<svg xmlns="http://www.w3.org/2000/svg" width="800" height="500" viewBox="0 0 800 500">
<rect width="800" height="500" fill="#A8C8E8"/>
<path d="M 787.45,161.36 L 769.40,235.93 L 800.00,263.09 L 800.00,266.39 L 742.37,260.75 L 674.49,281.25 L 578.30,267.25 L 507.86,279.74 L 436.99,257.08 L 439.44,238.93 L 366.27,241.19 L 344.59,223.49 L 212.17,204.28 L 173.02,203.22 L 169.85,227.27 L 0.00,227.17 L 0.00,0.00 L 800.00,0.00 L 800.00,157.31 L 787.45,161.36 Z M 508.82,264.86 L 498.09,258.94 L 495.82,263.72 L 508.82,264.86 Z" fill="#E8E0D0" stroke="#B8B0A0" stroke-width="0.5"/>
<path d="M 51.24,220.71 L 77.79,229.74 L 173.13,226.72 L 173.02,203.22 L 212.17,204.28 L 344.59,223.49 L 370.92,266.31 L 435.70,255.66 L 511.25,279.99 L 578.30,267.25 L 637.65,283.34 L 742.37,260.75 L 800.00,266.39 L 800.00,296.38 L 788.65,300.11 L 800.00,317.15 L 800.00,350.94 L 742.19,379.15 L 575.78,420.37 L 541.58,443.03 L 263.30,482.38 L 227.17,500.00 L 0.00,500.00 L 0.00,227.07 L 51.24,220.71 Z M 495.82,263.72 L 498.09,258.94 L 508.82,264.86 L 495.82,263.72 Z" fill="#C8D8E8" stroke="#8BAABB" stroke-width="0.8"/>
<path d="M 386.06,267.24 L 360.56,251.53 L 394.72,232.76 L 439.44,238.93 L 435.70,255.66 L 386.06,267.24 Z" fill="#4A90D9" stroke="#1a5fa8" stroke-width="1.2"/>
</svg>