<svg xmlns="http://www.w3.org/2000/svg" width="800" height="500" viewBox="0 0 800 500">
<rect width="800" height="500" fill="#A8C8E8"/>
<path d="M 578.42,161.36 L 570.11,235.93 L 584.20,263.09 L 584.20,266.39 L 557.66,260.75 L 526.41,281.25 L 482.11,267.25 L 449.67,279.74 L 417.03,257.08 L 418.16,238.93 L 384.47,241.19 L 374.48,223.49 L 313.50,204.28 L 295.48,203.22 L 294.01,227.27 L 215.80,227.17 L 215.80,0.00 L 584.20,0.00 L 584.20,157.31 L 578.42,161.36 Z M 450.11,264.86 L 445.17,258.94 L 444.13,263.72 L 450.11,264.86 Z" fill="#E8E0D0" stroke="#B8B0A0" stroke-width="0.5"/>
<path d="M 239.39,220.71 L 251.62,229.74 L 295.52,226.72 L 295.48,203.22 L 313.50,204.28 L 374.48,223.49 L 386.61,266.31 L 416.44,255.66 L 451.23,279.99 L 482.11,267.25 L 509.44,283.34 L 557.66,260.75 L 584.20,266.39 L 584.20,296.38 L 578.98,300.11 L 584.20,317.15 L 584.20,350.94 L 557.58,379.15 L 480.95,420.37 L 465.20,443.03 L 337.05,482.38 L 320.41,500.00 L 215.80,500.00 L 215.80,227.07 L 239.39,220.71 Z M 444.13,263.72 L 445.17,258.94 L 450.11,264.86 L 444.13,263.72 Z" fill="#C8D8E8" stroke="#8BAABB" stroke-width="0.8"/>
<path d="M 393.58,267.24 L 381.84,251.53 L 397.57,232.76 L 418.16,238.93 L 416.44,255.66 L 393.58,267.24 Z" fill="#4A90D9" stroke="#1a5fa8" stroke-width="1.2"/>
</svg>