<svg xmlns="http://www.w3.org/2000/svg" width="800" height="500" viewBox="0 0 800 500">
<rect width="800" height="500" fill="#A8C8E8"/>
<path d="M 794.48,132.43 L 792.81,122.69 L 746.59,118.92 L 731.53,91.75 L 736.33,84.19 L 722.53,61.54 L 716.77,21.94 L 706.43,12.47 L 711.40,8.12 L 700.18,7.31 L 696.46,0.00 L 800.00,0.00 L 800.00,130.98 L 794.48,132.43 Z M 603.79,5.97 L 575.34,8.81 L 560.34,27.98 L 534.23,27.25 L 484.30,54.23 L 442.51,44.29 L 434.05,34.30 L 372.44,34.89 L 349.07,21.64 L 344.14,10.61 L 304.86,0.00 L 613.20,0.00 L 603.79,5.97 Z M 458.95,72.90 L 456.20,76.49 L 452.78,72.21 L 458.95,72.90 Z M 397.35,54.52 L 391.87,50.56 L 403.94,48.80 L 405.82,54.90 L 397.35,54.52 Z M 321.11,26.62 L 313.47,22.22 L 337.68,26.29 L 321.11,26.62 Z M 645.61,19.36 L 652.17,18.12 L 649.57,23.06 L 645.61,19.36 Z M 640.02,12.47 L 604.60,36.00 L 597.27,31.77 L 536.28,49.44 L 535.67,39.28 L 586.61,26.85 L 584.93,12.57 L 599.47,16.87 L 632.22,8.12 L 640.02,12.47 Z M 662.64,2.79 L 655.34,3.41 L 655.57,1.12 L 662.64,2.79 Z M 459.56,108.40 L 455.44,108.15 L 455.03,107.14 L 459.56,108.40 Z M 598.63,42.60 L 594.84,42.84 L 596.41,38.72 L 598.63,42.60 Z M 365.17,39.56 L 360.49,37.52 L 361.32,36.53 L 365.17,39.56 Z M 511.71,111.61 L 507.96,112.06 L 507.30,110.06 L 511.71,111.61 Z" fill="#E8E0D0" stroke="#B8B0A0" stroke-width="0.5"/>
<path d="M 75.19,208.79 L 63.88,145.23 L 73.89,147.72 L 67.42,135.25 L 74.93,131.04 L 79.25,141.82 L 87.46,131.47 L 78.09,128.31 L 88.15,101.00 L 115.94,84.75 L 130.22,102.30 L 149.89,110.13 L 151.20,125.49 L 142.36,127.74 L 146.98,132.83 L 138.91,142.81 L 143.78,163.20 L 153.02,167.01 L 153.38,188.17 L 125.24,229.30 L 118.73,220.84 L 87.60,229.50 L 69.80,213.24 L 75.19,208.79 Z" fill="#E8E0D0" stroke="#B8B0A0" stroke-width="0.5"/>
<path d="M 52.92,86.05 L 44.56,118.43 L 32.45,84.61 L 35.83,77.25 L 47.47,77.61 L 43.13,81.64 L 52.92,86.05 Z M 29.35,84.20 L 29.80,88.39 L 25.89,88.10 L 29.35,84.20 Z M 53.93,74.15 L 56.38,80.39 L 49.46,77.37 L 53.93,74.15 Z M 69.08,123.74 L 64.47,137.49 L 62.89,128.92 L 69.08,123.74 Z M 67.96,121.55 L 68.09,122.13 L 66.97,122.47 L 67.96,121.55 Z M 71.05,128.52 L 70.72,129.38 L 69.87,129.84 L 71.05,128.52 Z M 70.72,131.62 L 70.20,132.77 L 68.02,132.89 L 70.72,131.62 Z" fill="#E8E0D0" stroke="#B8B0A0" stroke-width="0.5"/>
<path d="M 645.95,165.98 L 633.00,170.64 L 631.80,166.99 L 637.23,160.11 L 645.95,165.98 Z M 639.56,166.98 L 640.12,165.49 L 637.70,164.65 L 639.56,166.98 Z M 631.78,75.38 L 632.22,80.41 L 652.17,79.78 L 642.21,79.16 L 647.97,64.21 L 662.25,66.69 L 651.59,74.87 L 660.82,77.92 L 655.06,79.16 L 660.04,86.04 L 644.33,83.59 L 645.07,89.15 L 659.33,90.33 L 649.67,95.82 L 657.28,104.10 L 650.03,106.02 L 639.15,133.17 L 625.21,129.22 L 629.20,97.98 L 618.17,93.75 L 631.78,75.38 Z M 673.71,235.99 L 729.94,285.33 L 800.00,302.80 L 800.00,500.00 L 559.02,500.00 L 572.40,464.83 L 525.49,398.96 L 529.56,360.99 L 562.07,302.02 L 553.58,284.46 L 609.89,273.72 L 603.16,261.05 L 584.69,260.17 L 592.36,197.37 L 610.69,194.19 L 613.16,202.83 L 605.70,202.14 L 620.43,214.70 L 650.00,192.19 L 673.71,235.99 Z" fill="#C8D8E8" stroke="#8BAABB" stroke-width="0.8"/>
<path d="M 87.60,229.50 L 117.77,224.34 L 121.27,234.10 L 130.93,223.72 L 141.65,228.06 L 118.81,253.13 L 149.04,257.82 L 151.56,273.99 L 251.98,377.60 L 517.01,406.48 L 525.49,398.96 L 572.40,464.83 L 559.02,500.00 L 0.00,500.00 L 0.00,107.70 L 12.53,132.76 L 0.79,123.54 L 1.21,126.58 L 34.80,150.46 L 44.24,185.22 L 87.60,229.50 Z M 2.22,38.86 L 0.00,38.18 L 0.00,37.62 L 2.22,38.86 Z M 8.27,69.85 L 0.44,96.03 L 0.00,95.44 L 0.00,63.22 L 8.27,69.85 Z" fill="#C8D8E8" stroke="#8BAABB" stroke-width="0.8"/>
<path d="M 648.61,142.42 L 650.00,192.19 L 620.43,214.70 L 606.45,203.49 L 613.16,202.83 L 607.87,192.77 L 589.21,200.56 L 584.69,260.17 L 603.16,261.05 L 609.89,273.72 L 553.58,284.46 L 562.07,302.02 L 529.56,360.99 L 518.58,406.25 L 251.98,377.60 L 150.00,271.85 L 151.58,246.12 L 155.82,260.49 L 170.91,257.29 L 174.03,281.05 L 186.44,284.32 L 229.35,280.43 L 256.32,262.06 L 264.76,268.31 L 315.12,265.63 L 359.28,276.83 L 389.38,275.22 L 446.45,254.55 L 452.52,240.48 L 461.76,240.48 L 445.41,232.47 L 462.53,234.89 L 468.93,213.05 L 514.61,188.68 L 535.44,166.51 L 540.27,171.89 L 537.65,164.48 L 563.39,137.61 L 571.22,141.45 L 605.92,115.33 L 603.57,119.60 L 605.15,120.02 L 618.17,93.75 L 629.20,97.98 L 625.21,129.22 L 648.61,142.42 Z M 631.80,166.99 L 633.00,170.64 L 645.95,165.98 L 637.23,160.11 L 631.80,166.99 Z M 637.70,164.65 L 640.12,165.49 L 639.56,166.98 L 637.70,164.65 Z M 386.18,256.11 L 398.33,265.42 L 378.54,269.28 L 366.29,266.71 L 386.18,256.11 Z M 413.70,256.41 L 413.98,252.16 L 421.58,255.89 L 421.84,260.45 L 413.70,256.41 Z M 261.59,251.58 L 255.48,258.08 L 251.73,253.21 L 261.59,251.58 Z M 317.13,255.02 L 336.08,252.09 L 341.29,243.58 L 343.76,250.09 L 331.51,257.23 L 317.13,255.02 Z M 436.83,238.48 L 443.22,233.60 L 450.95,242.47 L 436.83,238.48 Z M 425.11,255.25 L 421.19,250.47 L 426.17,248.61 L 425.11,255.25 Z M 436.96,249.26 L 434.13,252.58 L 431.03,247.98 L 436.96,249.26 Z M 229.16,235.52 L 226.56,237.87 L 223.33,235.93 L 229.16,235.52 Z" fill="#4A90D9" stroke="#1a5fa8" stroke-width="1.2"/>
</svg>