<svg xmlns="http://www.w3.org/2000/svg" width="800" height="500" viewBox="0 0 800 500">
<rect width="800" height="500" fill="#A8C8E8"/>
<path d="M 713.97,132.43 L 712.64,122.69 L 675.86,118.92 L 663.86,91.75 L 667.69,84.19 L 656.71,61.54 L 652.12,21.94 L 643.89,12.47 L 647.84,8.12 L 638.91,7.31 L 635.96,0.00 L 718.36,0.00 L 718.36,130.98 L 713.97,132.43 Z M 562.20,5.97 L 539.55,8.81 L 527.62,27.98 L 506.84,27.25 L 467.10,54.23 L 433.83,44.29 L 427.10,34.30 L 378.06,34.89 L 359.47,21.64 L 355.54,10.61 L 324.27,0.00 L 569.69,0.00 L 562.20,5.97 Z M 446.92,72.90 L 444.73,76.49 L 442.01,72.21 L 446.92,72.90 Z M 397.89,54.52 L 393.53,50.56 L 403.14,48.80 L 404.63,54.90 L 397.89,54.52 Z M 337.21,26.62 L 331.13,22.22 L 350.40,26.29 L 337.21,26.62 Z M 595.48,19.36 L 600.70,18.12 L 598.63,23.06 L 595.48,19.36 Z M 591.04,12.47 L 562.84,36.00 L 557.01,31.77 L 508.47,49.44 L 507.98,39.28 L 548.53,26.85 L 547.18,12.57 L 558.76,16.87 L 584.82,8.12 L 591.04,12.47 Z M 609.03,2.79 L 603.22,3.41 L 603.41,1.12 L 609.03,2.79 Z M 447.40,108.40 L 444.13,108.15 L 443.80,107.14 L 447.40,108.40 Z M 558.09,42.60 L 555.07,42.84 L 556.32,38.72 L 558.09,42.60 Z M 372.28,39.56 L 368.55,37.52 L 369.21,36.53 L 372.28,39.56 Z M 488.91,111.61 L 485.93,112.06 L 485.40,110.06 L 488.91,111.61 Z" fill="#E8E0D0" stroke="#B8B0A0" stroke-width="0.5"/>
<path d="M 141.48,208.79 L 132.48,145.23 L 140.45,147.72 L 135.30,135.25 L 141.28,131.04 L 144.72,141.82 L 151.25,131.47 L 143.79,128.31 L 151.80,101.00 L 173.92,84.75 L 185.28,102.30 L 200.94,110.13 L 201.98,125.49 L 194.94,127.74 L 198.62,132.83 L 192.19,142.81 L 196.08,163.20 L 203.43,167.01 L 203.71,188.17 L 181.32,229.30 L 176.14,220.84 L 151.36,229.50 L 137.19,213.24 L 141.48,208.79 Z" fill="#E8E0D0" stroke="#B8B0A0" stroke-width="0.5"/>
<path d="M 123.76,86.05 L 117.10,118.43 L 107.46,84.61 L 110.16,77.25 L 119.42,77.61 L 115.97,81.64 L 123.76,86.05 Z M 105.00,84.20 L 105.36,88.39 L 102.24,88.10 L 105.00,84.20 Z M 124.56,74.15 L 126.52,80.39 L 121.00,77.37 L 124.56,74.15 Z M 136.62,123.74 L 132.95,137.49 L 131.69,128.92 L 136.62,123.74 Z M 135.72,121.55 L 135.83,122.13 L 134.94,122.47 L 135.72,121.55 Z M 138.19,128.52 L 137.93,129.38 L 137.24,129.84 L 138.19,128.52 Z M 137.93,131.62 L 137.51,132.77 L 135.78,132.89 L 137.93,131.62 Z" fill="#E8E0D0" stroke="#B8B0A0" stroke-width="0.5"/>
<path d="M 595.75,165.98 L 585.45,170.64 L 584.49,166.99 L 588.81,160.11 L 595.75,165.98 Z M 590.67,166.98 L 591.11,165.49 L 589.18,164.65 L 590.67,166.98 Z M 584.48,75.38 L 584.82,80.41 L 600.70,79.78 L 592.78,79.16 L 597.36,64.21 L 608.72,66.69 L 600.24,74.87 L 607.59,77.92 L 603.01,79.16 L 606.97,86.04 L 594.46,83.59 L 595.05,89.15 L 606.40,90.33 L 598.71,95.82 L 604.77,104.10 L 599.00,106.02 L 590.34,133.17 L 579.25,129.22 L 582.42,97.98 L 573.64,93.75 L 584.48,75.38 Z M 617.85,235.99 L 662.60,285.33 L 718.36,302.80 L 718.36,500.00 L 526.56,500.00 L 537.21,464.83 L 499.88,398.96 L 503.12,360.99 L 528.99,302.02 L 522.24,284.46 L 567.05,273.72 L 561.69,261.05 L 546.99,260.17 L 553.10,197.37 L 567.69,194.19 L 569.65,202.83 L 563.72,202.14 L 575.44,214.70 L 598.98,192.19 L 617.85,235.99 Z" fill="#C8D8E8" stroke="#8BAABB" stroke-width="0.8"/>
<path d="M 151.36,229.50 L 175.37,224.34 L 178.15,234.10 L 185.85,223.72 L 194.38,228.06 L 176.20,253.13 L 200.26,257.82 L 202.27,273.99 L 282.19,377.60 L 493.13,406.48 L 499.88,398.96 L 537.21,464.83 L 526.56,500.00 L 81.64,500.00 L 81.64,107.70 L 91.61,132.76 L 82.27,123.54 L 82.60,126.58 L 109.34,150.46 L 116.85,185.22 L 151.36,229.50 Z M 83.41,38.86 L 81.64,38.18 L 81.64,37.62 L 83.41,38.86 Z M 88.22,69.85 L 81.99,96.03 L 81.64,95.44 L 81.64,63.22 L 88.22,69.85 Z" fill="#C8D8E8" stroke="#8BAABB" stroke-width="0.8"/>
<path d="M 597.87,142.42 L 598.98,192.19 L 575.44,214.70 L 564.31,203.49 L 569.65,202.83 L 565.44,192.77 L 550.59,200.56 L 546.99,260.17 L 561.69,261.05 L 567.05,273.72 L 522.24,284.46 L 528.99,302.02 L 503.12,360.99 L 494.38,406.25 L 282.19,377.60 L 201.02,271.85 L 202.28,246.12 L 205.66,260.49 L 217.67,257.29 L 220.15,281.05 L 230.03,284.32 L 264.18,280.43 L 285.65,262.06 L 292.36,268.31 L 332.45,265.63 L 367.59,276.83 L 391.55,275.22 L 436.97,254.55 L 441.80,240.48 L 449.15,240.48 L 436.14,232.47 L 449.77,234.89 L 454.86,213.05 L 491.22,188.68 L 507.79,166.51 L 511.64,171.89 L 509.56,164.48 L 530.04,137.61 L 536.28,141.45 L 563.89,115.33 L 562.03,119.60 L 563.28,120.02 L 573.64,93.75 L 582.42,97.98 L 579.25,129.22 L 597.87,142.42 Z M 584.49,166.99 L 585.45,170.64 L 595.75,165.98 L 588.81,160.11 L 584.49,166.99 Z M 589.18,164.65 L 591.11,165.49 L 590.67,166.98 L 589.18,164.65 Z M 389.00,256.11 L 398.67,265.42 L 382.92,269.28 L 373.17,266.71 L 389.00,256.11 Z M 410.90,256.41 L 411.13,252.16 L 417.18,255.89 L 417.38,260.45 L 410.90,256.41 Z M 289.84,251.58 L 284.98,258.08 L 281.99,253.21 L 289.84,251.58 Z M 334.04,255.02 L 349.13,252.09 L 353.27,243.58 L 355.23,250.09 L 345.49,257.23 L 334.04,255.02 Z M 429.31,238.48 L 434.40,233.60 L 440.55,242.47 L 429.31,238.48 Z M 419.98,255.25 L 416.87,250.47 L 420.83,248.61 L 419.98,255.25 Z M 429.42,249.26 L 427.17,252.58 L 424.69,247.98 L 429.42,249.26 Z M 264.03,235.52 L 261.96,237.87 L 259.39,235.93 L 264.03,235.52 Z" fill="#4A90D9" stroke="#1a5fa8" stroke-width="1.2"/>
</svg>