<svg xmlns="http://www.w3.org/2000/svg" width="800" height="500" viewBox="0 0 800 500">
<rect width="800" height="500" fill="#A8C8E8"/>
<path d="M 753.85,198.37 L 759.45,196.29 L 757.95,203.95 L 768.19,226.10 L 780.99,229.48 L 790.94,235.58 L 791.81,240.12 L 783.26,244.86 L 785.72,264.98 L 795.24,271.81 L 800.00,272.37 L 800.00,298.15 L 796.55,300.12 L 795.25,303.62 L 790.67,304.46 L 784.70,300.49 L 783.49,294.71 L 771.27,297.54 L 773.81,308.47 L 783.76,317.60 L 781.20,324.26 L 786.34,329.87 L 782.20,333.22 L 783.78,340.17 L 789.89,341.49 L 795.07,334.89 L 797.20,335.68 L 800.00,339.95 L 800.00,500.00 L 468.11,500.00 L 462.91,497.44 L 463.96,484.01 L 492.00,453.54 L 498.70,453.39 L 504.79,462.84 L 509.00,464.21 L 545.21,455.32 L 546.39,449.28 L 554.78,441.77 L 561.88,427.55 L 581.87,417.91 L 592.38,401.09 L 597.15,387.65 L 617.08,378.68 L 613.87,372.34 L 630.10,354.43 L 641.89,347.88 L 636.60,344.73 L 640.45,334.98 L 636.01,326.30 L 638.13,322.32 L 647.79,315.50 L 663.97,311.25 L 666.21,307.37 L 654.56,300.33 L 642.95,300.16 L 640.88,296.14 L 642.81,287.78 L 638.94,290.49 L 631.04,290.00 L 629.82,282.17 L 619.10,275.87 L 624.49,264.98 L 617.84,256.72 L 628.47,248.89 L 615.33,245.72 L 618.69,240.07 L 611.20,234.83 L 616.22,225.49 L 631.13,220.99 L 681.37,230.12 L 689.28,224.30 L 711.12,221.90 L 714.77,216.11 L 723.64,213.66 L 724.66,209.51 L 750.98,196.16 L 753.85,198.37 Z" fill="#E8E0D0" stroke="#B8B0A0" stroke-width="0.5"/>
<path d="M 430.50,9.82 L 432.00,20.29 L 426.71,21.13 L 410.36,13.34 L 415.24,5.82 L 411.87,5.37 L 408.53,0.00 L 445.95,0.00 L 430.50,9.82 Z M 366.68,1.41 L 366.29,0.00 L 407.13,0.00 L 366.68,1.41 Z" fill="#E8E0D0" stroke="#B8B0A0" stroke-width="0.5"/>
<path d="M 760.51,5.48 L 718.36,6.39 L 710.96,14.93 L 710.02,20.21 L 699.93,29.26 L 696.94,26.06 L 677.41,31.20 L 673.18,19.47 L 660.47,26.06 L 648.02,23.64 L 646.36,26.77 L 648.95,30.02 L 643.52,29.84 L 630.61,38.01 L 617.85,40.09 L 612.87,47.92 L 616.47,55.24 L 612.79,59.53 L 600.85,59.64 L 590.12,63.41 L 567.59,62.71 L 560.55,64.32 L 557.52,69.12 L 551.30,62.94 L 540.93,66.20 L 540.55,60.21 L 532.65,59.85 L 530.80,54.58 L 518.18,58.01 L 514.05,62.05 L 506.86,62.49 L 501.73,56.25 L 496.69,54.95 L 487.88,57.77 L 487.09,54.32 L 484.72,56.71 L 455.83,57.89 L 453.26,49.80 L 456.17,41.76 L 459.47,44.81 L 462.82,43.90 L 463.39,36.93 L 480.28,34.06 L 498.37,40.08 L 496.69,44.64 L 503.25,37.65 L 512.39,35.37 L 514.68,32.07 L 523.66,30.08 L 532.95,34.23 L 536.66,32.33 L 539.40,36.27 L 543.89,32.67 L 550.23,32.98 L 548.06,30.38 L 555.33,25.61 L 563.25,27.84 L 561.79,20.53 L 571.29,23.68 L 576.79,18.20 L 589.45,13.25 L 572.43,11.41 L 561.11,4.34 L 555.30,6.87 L 555.07,0.38 L 545.11,0.15 L 545.09,0.00 L 767.10,0.00 L 760.51,5.48 Z M 538.52,42.78 L 537.96,43.29 L 541.14,44.57 L 542.12,41.59 L 538.52,42.78 Z M 515.14,35.81 L 513.25,37.94 L 516.44,41.51 L 515.61,45.33 L 522.08,45.06 L 520.91,41.44 L 523.32,39.63 L 515.14,35.81 Z M 500.32,49.26 L 504.60,47.35 L 504.39,46.10 L 497.44,45.30 L 500.32,49.26 Z M 529.29,2.46 L 524.43,2.95 L 522.01,0.35 L 521.10,3.12 L 511.19,0.00 L 529.32,0.00 L 529.29,2.46 Z" fill="#E8E0D0" stroke="#B8B0A0" stroke-width="0.5"/>
<path d="M 715.46,190.97 L 736.51,196.96 L 750.98,196.16 L 724.89,209.40 L 715.46,190.97 Z" fill="#E8E0D0" stroke="#B8B0A0" stroke-width="0.5"/>
<path d="M 4.40,107.26 L 4.53,103.85 L 9.15,101.25 L 30.05,103.58 L 34.79,100.47 L 40.96,111.14 L 68.88,117.30 L 70.62,121.07 L 75.87,122.63 L 91.26,120.52 L 109.01,126.17 L 114.20,137.27 L 133.56,143.52 L 144.77,156.89 L 173.37,156.92 L 172.71,166.52 L 175.42,174.55 L 172.12,179.82 L 175.98,182.45 L 177.68,194.35 L 174.11,202.86 L 171.37,203.64 L 172.73,209.68 L 169.89,219.57 L 165.79,225.65 L 157.18,229.83 L 163.81,236.62 L 155.24,237.04 L 150.00,242.81 L 150.66,260.02 L 164.86,264.30 L 152.60,276.78 L 152.44,279.97 L 161.72,307.81 L 159.80,315.44 L 161.42,333.75 L 191.46,337.93 L 196.31,350.25 L 195.47,356.02 L 162.21,390.03 L 179.33,406.67 L 187.28,423.98 L 198.61,435.28 L 214.93,439.53 L 222.32,446.06 L 228.78,445.46 L 230.63,471.31 L 228.11,479.15 L 233.32,480.99 L 243.21,479.44 L 248.16,484.30 L 245.09,486.07 L 246.26,492.11 L 243.39,494.17 L 242.80,500.00 L 30.43,500.00 L 29.58,493.45 L 26.13,489.87 L 27.79,488.23 L 24.05,487.92 L 22.08,483.53 L 0.00,482.86 L 0.00,106.98 L 4.40,107.26 Z M 5.84,492.48 L 8.03,492.01 L 7.16,493.88 L 5.84,492.48 Z M 3.98,489.87 L 0.00,492.87 L 0.00,488.64 L 1.37,488.23 L 3.98,489.87 Z M 11.52,486.21 L 9.09,486.44 L 9.17,485.58 L 11.52,486.21 Z" fill="#C8D8E8" stroke="#8BAABB" stroke-width="0.8"/>
<path d="M 688.96,170.88 L 685.04,174.90 L 685.77,177.71 L 691.59,179.56 L 694.23,185.47 L 707.75,182.32 L 708.28,187.36 L 715.46,190.97 L 724.89,209.40 L 723.64,213.66 L 714.77,216.11 L 710.67,222.10 L 689.28,224.30 L 680.72,230.26 L 628.94,221.14 L 616.22,225.49 L 611.37,233.97 L 618.69,240.07 L 615.31,243.64 L 616.11,246.63 L 628.47,248.89 L 617.84,256.72 L 624.49,264.98 L 619.10,275.87 L 629.82,282.17 L 631.04,290.00 L 638.94,290.49 L 642.81,287.78 L 640.88,296.14 L 642.95,300.16 L 654.56,300.33 L 666.21,307.37 L 663.97,311.25 L 647.79,315.50 L 637.79,322.87 L 636.01,326.30 L 640.45,334.98 L 636.60,344.73 L 641.89,347.88 L 630.10,354.43 L 613.87,372.34 L 617.08,378.68 L 597.15,387.65 L 592.38,401.09 L 581.87,417.91 L 561.88,427.55 L 554.78,441.77 L 546.39,449.28 L 545.21,455.32 L 509.00,464.21 L 504.79,462.84 L 498.70,453.39 L 492.00,453.54 L 463.96,484.01 L 462.91,497.44 L 468.11,500.00 L 242.23,500.00 L 243.64,493.63 L 246.14,492.74 L 245.09,486.07 L 248.16,484.30 L 243.21,479.44 L 233.32,480.99 L 228.11,479.15 L 230.63,471.31 L 228.78,445.46 L 222.32,446.06 L 214.93,439.53 L 198.61,435.28 L 187.28,423.98 L 179.33,406.67 L 162.21,390.03 L 218.92,405.52 L 256.80,402.44 L 274.77,406.25 L 277.78,402.89 L 288.37,399.93 L 307.77,400.97 L 348.02,390.82 L 353.05,386.65 L 348.84,383.16 L 351.83,376.74 L 350.53,364.47 L 353.95,353.42 L 360.33,351.55 L 365.43,344.03 L 373.98,339.94 L 377.18,342.65 L 387.97,343.62 L 402.51,339.27 L 402.70,337.19 L 397.18,336.63 L 395.71,332.54 L 409.50,328.81 L 415.49,322.40 L 427.97,325.82 L 429.77,324.85 L 425.22,323.83 L 434.14,324.12 L 438.59,330.04 L 446.79,327.61 L 455.78,318.51 L 453.49,300.46 L 460.19,293.84 L 458.47,289.82 L 461.97,286.90 L 462.33,281.00 L 479.94,277.60 L 490.35,271.01 L 485.50,264.56 L 484.22,257.34 L 478.65,256.09 L 474.82,250.10 L 475.70,246.99 L 498.25,249.69 L 517.02,245.72 L 519.08,235.32 L 513.35,229.29 L 517.13,228.38 L 517.64,224.44 L 531.15,214.92 L 537.00,206.67 L 533.24,202.85 L 536.46,198.42 L 530.97,185.86 L 520.61,177.23 L 534.23,167.53 L 536.04,163.05 L 542.02,165.17 L 541.69,162.29 L 555.53,156.32 L 555.46,154.34 L 569.20,150.58 L 606.52,147.97 L 620.24,150.75 L 642.02,142.54 L 649.31,147.61 L 657.22,144.61 L 665.94,147.31 L 668.74,153.94 L 679.04,153.93 L 687.81,163.48 L 688.96,170.88 Z" fill="#C8D8E8" stroke="#8BAABB" stroke-width="0.8"/>
<path d="M 175.98,182.45 L 172.12,179.82 L 175.42,174.55 L 172.71,166.52 L 173.37,156.92 L 144.77,156.89 L 133.56,143.52 L 114.20,137.27 L 109.01,126.17 L 91.26,120.52 L 75.87,122.63 L 70.62,121.07 L 68.88,117.30 L 40.96,111.14 L 35.17,100.51 L 30.05,103.58 L 9.15,101.25 L 1.43,107.65 L 0.00,107.62 L 0.00,0.00 L 171.01,0.00 L 177.38,1.43 L 178.92,0.00 L 191.58,0.00 L 198.10,2.55 L 206.99,21.36 L 214.60,26.43 L 218.06,40.92 L 253.64,61.77 L 261.69,69.06 L 277.01,77.37 L 283.50,76.63 L 327.48,101.85 L 336.95,100.63 L 363.65,111.88 L 359.24,117.49 L 360.21,128.91 L 357.55,133.07 L 346.89,131.45 L 332.95,124.52 L 325.15,135.57 L 308.70,136.39 L 299.84,139.75 L 292.34,157.44 L 292.42,164.21 L 288.37,169.46 L 273.77,175.18 L 273.35,178.85 L 267.96,177.78 L 252.00,183.24 L 240.67,183.74 L 244.50,189.15 L 239.72,191.71 L 239.84,198.16 L 226.42,204.65 L 217.33,203.54 L 212.27,208.36 L 210.45,203.09 L 202.60,198.10 L 188.61,198.39 L 176.98,191.92 L 175.98,182.45 Z" fill="#C8D8E8" stroke="#8BAABB" stroke-width="0.8"/>
<path d="M 541.14,44.57 L 537.96,43.29 L 538.52,42.78 L 542.12,41.59 L 541.14,44.57 Z M 501.73,34.37 L 498.32,29.41 L 493.02,28.68 L 492.96,24.88 L 506.76,15.87 L 502.26,14.73 L 504.61,13.47 L 495.60,5.95 L 492.75,5.73 L 489.86,11.05 L 469.39,19.57 L 463.08,14.59 L 457.73,14.40 L 456.14,20.74 L 452.29,21.75 L 456.26,29.45 L 452.63,30.98 L 455.30,34.53 L 430.85,35.59 L 444.95,38.08 L 437.58,38.49 L 441.26,45.42 L 437.03,41.90 L 438.02,45.30 L 436.43,47.44 L 432.42,46.41 L 428.64,56.77 L 400.87,54.19 L 390.79,59.24 L 388.11,68.07 L 399.13,71.10 L 399.93,75.98 L 414.18,76.34 L 416.67,80.95 L 412.99,82.92 L 412.59,91.57 L 423.05,102.71 L 419.31,111.77 L 414.92,113.17 L 404.75,126.25 L 403.06,137.92 L 393.42,134.71 L 384.95,138.04 L 376.16,131.19 L 359.27,131.89 L 359.24,117.49 L 362.91,110.23 L 336.95,100.63 L 327.48,101.85 L 283.50,76.63 L 277.01,77.37 L 261.69,69.06 L 253.64,61.77 L 218.06,40.92 L 214.60,26.43 L 206.99,21.36 L 198.10,2.55 L 191.58,0.00 L 366.29,0.00 L 366.68,1.41 L 407.13,0.00 L 408.53,0.00 L 411.87,5.37 L 415.24,5.82 L 410.36,13.34 L 426.71,21.13 L 432.00,20.29 L 430.50,9.82 L 445.95,0.00 L 511.19,0.00 L 521.10,3.12 L 522.01,0.35 L 524.43,2.95 L 529.29,2.46 L 529.32,0.00 L 545.09,0.00 L 545.11,0.15 L 555.07,0.38 L 555.30,6.87 L 561.11,4.34 L 572.43,11.41 L 589.27,12.56 L 576.79,18.20 L 571.29,23.68 L 561.79,20.53 L 563.25,27.84 L 555.33,25.61 L 548.06,30.38 L 550.23,32.98 L 543.89,32.67 L 539.40,36.27 L 536.66,32.33 L 532.95,34.23 L 523.66,30.08 L 501.73,34.37 Z M 499.62,7.03 L 502.52,9.07 L 501.53,7.07 L 499.62,7.03 Z M 177.38,1.43 L 171.01,0.00 L 178.92,0.00 L 177.38,1.43 Z M 523.32,39.63 L 520.91,41.44 L 522.08,45.06 L 515.61,45.33 L 516.44,41.51 L 513.25,37.94 L 515.14,35.81 L 523.32,39.63 Z" fill="#C8D8E8" stroke="#8BAABB" stroke-width="0.8"/>
<path d="M 501.53,7.07 L 502.52,9.07 L 499.62,7.03 L 501.53,7.07 Z M 503.25,37.65 L 496.69,44.64 L 498.37,40.08 L 480.28,34.06 L 463.39,36.93 L 462.82,43.90 L 459.47,44.81 L 456.30,41.69 L 453.76,47.12 L 455.34,57.07 L 479.39,57.25 L 487.09,54.32 L 487.88,57.77 L 496.69,54.95 L 501.73,56.25 L 506.86,62.49 L 514.05,62.05 L 518.18,58.01 L 530.80,54.58 L 532.65,59.85 L 540.55,60.21 L 540.93,66.20 L 551.30,62.94 L 557.52,69.12 L 560.55,64.32 L 567.59,62.71 L 590.12,63.41 L 605.28,59.82 L 605.40,68.50 L 612.98,76.42 L 607.93,80.00 L 612.64,89.85 L 620.02,91.89 L 623.30,86.99 L 630.62,87.08 L 647.94,94.07 L 646.47,107.22 L 652.53,118.02 L 649.99,123.80 L 659.44,130.63 L 650.00,136.46 L 641.95,130.86 L 629.97,129.73 L 608.92,136.95 L 605.03,135.41 L 609.96,132.77 L 610.46,129.68 L 594.58,128.42 L 577.03,136.84 L 572.41,143.42 L 558.59,145.54 L 543.89,154.76 L 537.52,155.18 L 529.82,142.11 L 535.60,113.51 L 523.81,112.55 L 527.28,101.38 L 513.14,93.75 L 503.21,96.08 L 496.45,105.87 L 489.20,112.11 L 486.10,111.87 L 489.95,120.17 L 485.60,125.79 L 477.30,123.19 L 463.06,124.50 L 458.54,129.37 L 460.75,136.72 L 456.65,140.25 L 453.93,140.84 L 441.51,132.78 L 442.48,134.81 L 439.70,133.09 L 439.16,135.78 L 433.90,134.84 L 411.81,146.98 L 403.22,141.09 L 404.75,126.25 L 414.92,113.17 L 419.31,111.77 L 423.05,102.71 L 412.59,91.57 L 412.99,82.92 L 416.67,80.95 L 414.18,76.34 L 399.93,75.98 L 399.13,71.10 L 388.11,68.07 L 392.89,57.12 L 400.87,54.19 L 428.64,56.77 L 432.42,46.41 L 436.43,47.44 L 438.02,45.30 L 437.03,41.90 L 441.26,45.42 L 437.58,38.49 L 444.95,38.08 L 430.85,35.59 L 455.30,34.53 L 452.63,30.98 L 456.26,29.45 L 452.29,21.75 L 456.14,20.74 L 457.73,14.40 L 463.08,14.59 L 470.32,19.35 L 489.86,11.05 L 492.75,5.73 L 506.76,15.87 L 492.96,24.88 L 493.02,28.68 L 498.32,29.41 L 501.73,34.37 L 513.42,33.04 L 503.25,37.65 Z M 504.39,46.10 L 504.60,47.35 L 500.32,49.26 L 497.44,45.30 L 504.39,46.10 Z" fill="#C8D8E8" stroke="#8BAABB" stroke-width="0.8"/>
<path d="M 785.04,262.97 L 782.95,247.78 L 783.26,244.86 L 791.81,240.12 L 791.81,236.95 L 780.99,229.48 L 768.19,226.10 L 757.95,203.95 L 759.45,196.29 L 753.85,198.37 L 750.98,196.16 L 736.51,196.96 L 720.24,193.14 L 708.28,187.36 L 707.12,182.16 L 694.23,185.47 L 691.59,179.56 L 684.99,176.62 L 688.96,170.88 L 687.65,162.89 L 683.25,156.63 L 676.30,152.87 L 668.74,153.94 L 664.62,146.86 L 657.22,144.61 L 649.31,147.61 L 646.54,143.89 L 637.85,143.67 L 632.30,140.06 L 644.07,134.17 L 646.59,137.05 L 650.00,136.46 L 659.44,130.63 L 649.99,123.80 L 652.53,118.02 L 646.47,107.22 L 648.04,94.36 L 630.62,87.08 L 623.30,86.99 L 620.02,91.89 L 612.64,89.85 L 607.93,80.00 L 612.98,76.42 L 605.40,68.50 L 606.26,60.21 L 613.40,59.27 L 616.29,55.61 L 612.72,48.59 L 618.21,39.74 L 630.61,38.01 L 643.52,29.84 L 648.95,30.02 L 646.36,26.77 L 648.02,23.64 L 660.47,26.06 L 673.18,19.47 L 677.41,31.20 L 696.94,26.06 L 699.35,29.43 L 709.62,20.70 L 710.96,14.93 L 718.36,6.39 L 760.51,5.48 L 767.10,0.00 L 800.00,0.00 L 800.00,272.49 L 796.04,272.09 L 785.04,262.97 Z M 797.20,335.68 L 795.07,334.89 L 789.89,341.49 L 783.78,340.17 L 782.20,333.22 L 786.34,329.87 L 781.20,324.26 L 783.76,317.60 L 773.81,308.47 L 771.27,297.54 L 783.49,294.71 L 784.70,300.49 L 790.67,304.46 L 795.25,303.62 L 796.55,300.12 L 800.00,298.15 L 800.00,339.95 L 797.20,335.68 Z" fill="#C8D8E8" stroke="#8BAABB" stroke-width="0.8"/>
<path d="M 637.68,145.71 L 632.70,144.62 L 620.24,150.75 L 611.13,148.12 L 590.95,148.64 L 556.99,153.82 L 541.69,162.29 L 542.02,165.17 L 536.04,163.05 L 534.23,167.53 L 522.59,174.49 L 520.78,177.87 L 527.22,181.11 L 532.74,189.07 L 531.96,192.23 L 535.45,194.30 L 536.41,199.09 L 533.24,202.85 L 537.00,206.67 L 531.15,214.92 L 517.64,224.44 L 517.13,228.38 L 513.35,229.29 L 519.08,235.32 L 517.02,245.72 L 498.25,249.69 L 475.70,246.99 L 474.82,250.10 L 478.65,256.09 L 484.22,257.34 L 485.50,264.56 L 490.35,271.01 L 479.94,277.60 L 462.33,281.00 L 461.97,286.90 L 458.47,289.82 L 460.19,293.84 L 453.49,300.46 L 455.78,318.51 L 446.79,327.61 L 438.59,330.04 L 434.14,324.12 L 425.22,323.83 L 429.77,324.85 L 427.97,325.82 L 415.49,322.40 L 409.50,328.81 L 395.71,332.54 L 397.18,336.63 L 402.70,337.19 L 402.51,339.27 L 387.97,343.62 L 377.18,342.65 L 373.98,339.94 L 365.43,344.03 L 360.33,351.55 L 353.95,353.42 L 350.53,364.47 L 351.83,376.74 L 348.84,383.16 L 353.05,386.65 L 348.02,390.82 L 307.77,400.97 L 288.37,399.93 L 277.78,402.89 L 274.77,406.25 L 256.80,402.44 L 218.92,405.52 L 162.21,390.03 L 195.47,356.02 L 196.31,350.25 L 191.46,337.93 L 161.42,333.75 L 159.80,315.44 L 161.72,307.81 L 152.44,279.97 L 152.60,276.78 L 164.86,264.30 L 150.66,260.02 L 150.00,242.81 L 155.24,237.04 L 163.81,236.62 L 157.18,229.83 L 165.79,225.65 L 169.89,219.57 L 172.73,209.68 L 171.17,204.37 L 174.11,202.86 L 176.98,191.92 L 188.61,198.39 L 202.60,198.10 L 210.45,203.09 L 212.27,208.36 L 217.33,203.54 L 226.42,204.65 L 239.84,198.16 L 239.72,191.71 L 244.50,189.15 L 240.67,183.74 L 252.00,183.24 L 267.96,177.78 L 273.35,178.85 L 273.77,175.18 L 288.37,169.46 L 298.82,146.53 L 298.82,140.35 L 308.70,136.39 L 325.15,135.57 L 332.95,124.52 L 351.45,133.02 L 376.16,131.19 L 384.95,138.04 L 393.42,134.71 L 401.88,136.52 L 402.80,140.63 L 411.38,146.97 L 433.90,134.84 L 439.16,135.78 L 439.70,133.09 L 442.48,134.81 L 441.51,132.78 L 456.24,140.37 L 460.75,136.72 L 458.54,129.37 L 463.06,124.50 L 477.30,123.19 L 485.60,125.79 L 489.95,120.17 L 486.10,111.87 L 489.20,112.11 L 496.45,105.87 L 503.21,96.08 L 513.14,93.75 L 527.28,101.38 L 523.81,112.55 L 535.60,113.51 L 529.82,142.11 L 537.52,155.18 L 543.89,154.76 L 558.59,145.54 L 572.41,143.42 L 577.03,136.84 L 594.58,128.42 L 610.46,129.68 L 609.96,132.77 L 605.03,135.41 L 608.92,136.95 L 629.97,129.73 L 641.95,130.86 L 650.00,136.46 L 646.59,137.05 L 644.07,134.17 L 631.81,138.67 L 637.68,145.71 Z" fill="#4A90D9" stroke="#1a5fa8" stroke-width="1.2"/>
<path d="M 686.28,310.26 L 689.93,310.63 L 695.33,320.72 L 686.20,317.59 L 686.28,310.26 Z" fill="#A8C8E8" stroke="none"/>
<path d="M 783.17,258.66 L 773.03,248.31 L 784.27,256.91 L 791.33,256.52 L 783.17,258.66 Z" fill="#A8C8E8" stroke="none"/>
<path d="M 638.85,234.43 L 637.26,237.08 L 637.80,233.36 L 641.57,233.89 L 638.85,234.43 Z" fill="#A8C8E8" stroke="none"/>
<path d="M 608.75,274.77 L 606.86,277.43 L 604.39,274.13 L 605.06,270.94 L 607.17,274.36 L 610.29,270.94 L 608.63,274.02 L 613.73,276.39 L 608.75,274.77 Z" fill="#A8C8E8" stroke="none"/>
<path d="M 420.17,6.29 L 411.85,5.36 L 408.54,0.00 L 414.36,0.00 L 425.90,2.53 L 420.17,6.29 Z" fill="#A8C8E8" stroke="none"/>
<path d="M 581.31,247.18 L 578.54,244.25 L 573.77,244.29 L 578.54,237.52 L 576.71,226.17 L 579.74,242.19 L 584.42,244.73 L 581.31,247.18 Z" fill="#A8C8E8" stroke="none"/>
<path d="M 491.43,30.40 L 486.49,32.10 L 473.95,32.11 L 493.08,27.06 L 491.43,30.40 Z" fill="#A8C8E8" stroke="none"/>
<path d="M 709.52,341.25 L 703.57,336.24 L 700.71,330.11 L 710.56,341.06 L 708.57,337.41 L 713.48,339.99 L 713.29,337.78 L 715.02,336.70 L 715.06,341.79 L 709.52,341.25 Z" fill="#A8C8E8" stroke="none"/>
<path d="M 407.37,13.22 L 392.80,16.17 L 397.02,24.13 L 387.28,18.24 L 387.14,14.89 L 345.21,6.72 L 375.42,6.79 L 385.24,8.67 L 390.13,11.19 L 388.90,13.02 L 394.70,13.01 L 411.85,5.36 L 407.37,13.22 Z" fill="#A8C8E8" stroke="none"/>
</svg>