<svg xmlns="http://www.w3.org/2000/svg" width="800" height="500" viewBox="0 0 800 500">
<rect width="800" height="500" fill="#A8C8E8"/>
<path d="M 690.80,198.37 L 695.39,196.29 L 694.16,203.95 L 702.58,226.10 L 713.09,229.48 L 721.27,235.58 L 721.99,240.12 L 714.96,244.86 L 716.98,264.98 L 724.81,271.81 L 728.72,272.37 L 728.72,298.15 L 725.89,300.12 L 724.82,303.62 L 721.05,304.46 L 716.14,300.49 L 715.16,294.71 L 705.11,297.54 L 707.20,308.47 L 715.38,317.60 L 713.27,324.26 L 717.50,329.87 L 714.09,333.22 L 715.39,340.17 L 720.41,341.49 L 724.67,334.89 L 726.42,335.68 L 728.72,339.95 L 728.72,500.00 L 455.97,500.00 L 451.70,497.44 L 452.56,484.01 L 475.60,453.54 L 481.11,453.39 L 486.12,462.84 L 489.57,464.21 L 519.33,455.32 L 520.30,449.28 L 527.20,441.77 L 533.03,427.55 L 549.46,417.91 L 558.10,401.09 L 562.02,387.65 L 578.40,378.68 L 575.76,372.34 L 589.10,354.43 L 598.79,347.88 L 594.44,344.73 L 597.60,334.98 L 593.95,326.30 L 595.69,322.32 L 603.63,315.50 L 616.93,311.25 L 618.77,307.37 L 609.20,300.33 L 599.66,300.16 L 597.95,296.14 L 599.54,287.78 L 596.36,290.49 L 589.87,290.00 L 588.87,282.17 L 580.05,275.87 L 584.49,264.98 L 579.02,256.72 L 587.76,248.89 L 576.95,245.72 L 579.72,240.07 L 573.56,234.83 L 577.69,225.49 L 589.94,220.99 L 631.23,230.12 L 637.73,224.30 L 655.68,221.90 L 658.68,216.11 L 665.97,213.66 L 666.81,209.51 L 688.43,196.16 L 690.80,198.37 Z" fill="#E8E0D0" stroke="#B8B0A0" stroke-width="0.5"/>
<path d="M 425.06,9.82 L 426.30,20.29 L 421.95,21.13 L 408.51,13.34 L 412.52,5.82 L 409.75,5.37 L 407.01,0.00 L 437.77,0.00 L 425.06,9.82 Z M 372.62,1.41 L 372.30,0.00 L 405.86,0.00 L 372.62,1.41 Z" fill="#E8E0D0" stroke="#B8B0A0" stroke-width="0.5"/>
<path d="M 696.27,5.48 L 661.63,6.39 L 655.55,14.93 L 654.77,20.21 L 646.48,29.26 L 644.03,26.06 L 627.98,31.20 L 624.50,19.47 L 614.06,26.06 L 603.83,23.64 L 602.46,26.77 L 604.59,30.02 L 600.13,29.84 L 589.51,38.01 L 579.03,40.09 L 574.94,47.92 L 577.90,55.24 L 574.87,59.53 L 565.06,59.64 L 556.24,63.41 L 537.73,62.71 L 531.94,64.32 L 529.45,69.12 L 524.34,62.94 L 515.82,66.20 L 515.50,60.21 L 509.02,59.85 L 507.49,54.58 L 497.12,58.01 L 493.73,62.05 L 487.82,62.49 L 483.60,56.25 L 479.46,54.95 L 472.22,57.77 L 471.57,54.32 L 469.62,56.71 L 445.88,57.89 L 443.77,49.80 L 446.16,41.76 L 448.88,44.81 L 451.62,43.90 L 452.09,36.93 L 465.98,34.06 L 480.84,40.08 L 479.46,44.64 L 484.85,37.65 L 492.36,35.37 L 494.24,32.07 L 501.62,30.08 L 509.25,34.23 L 512.31,32.33 L 514.56,36.27 L 518.25,32.67 L 523.46,32.98 L 521.68,30.38 L 527.65,25.61 L 534.16,27.84 L 532.96,20.53 L 540.76,23.68 L 545.29,18.20 L 555.69,13.25 L 541.70,11.41 L 532.40,4.34 L 527.63,6.87 L 527.44,0.38 L 519.25,0.15 L 519.23,0.00 L 701.68,0.00 L 696.27,5.48 Z M 513.83,42.78 L 513.37,43.29 L 515.99,44.57 L 516.80,41.59 L 513.83,42.78 Z M 494.63,35.81 L 493.07,37.94 L 495.69,41.51 L 495.01,45.33 L 500.33,45.06 L 499.37,41.44 L 501.34,39.63 L 494.63,35.81 Z M 482.44,49.26 L 485.96,47.35 L 485.79,46.10 L 480.08,45.30 L 482.44,49.26 Z M 506.25,2.46 L 502.26,2.95 L 500.27,0.35 L 499.52,3.12 L 491.37,0.00 L 506.28,0.00 L 506.25,2.46 Z" fill="#E8E0D0" stroke="#B8B0A0" stroke-width="0.5"/>
<path d="M 659.24,190.97 L 676.54,196.96 L 688.43,196.16 L 666.99,209.40 L 659.24,190.97 Z" fill="#E8E0D0" stroke="#B8B0A0" stroke-width="0.5"/>
<path d="M 74.90,107.26 L 75.00,103.85 L 78.80,101.25 L 95.98,103.58 L 99.87,100.47 L 104.94,111.14 L 127.89,117.30 L 129.32,121.07 L 133.63,122.63 L 146.28,120.52 L 160.86,126.17 L 165.13,137.27 L 181.04,143.52 L 190.26,156.89 L 213.76,156.92 L 213.21,166.52 L 215.44,174.55 L 212.73,179.82 L 215.90,182.45 L 217.30,194.35 L 214.36,202.86 L 212.12,203.64 L 213.23,209.68 L 210.89,219.57 L 207.53,225.65 L 200.45,229.83 L 205.90,236.62 L 198.86,237.04 L 194.55,242.81 L 195.09,260.02 L 206.77,264.30 L 196.68,276.78 L 196.55,279.97 L 204.18,307.81 L 202.60,315.44 L 203.94,333.75 L 228.63,337.93 L 232.61,350.25 L 231.92,356.02 L 204.58,390.03 L 218.65,406.67 L 225.19,423.98 L 234.50,435.28 L 247.91,439.53 L 253.99,446.06 L 259.29,445.46 L 260.81,471.31 L 258.74,479.15 L 263.03,480.99 L 271.15,479.44 L 275.22,484.30 L 272.70,486.07 L 273.65,492.11 L 271.30,494.17 L 270.81,500.00 L 96.28,500.00 L 95.59,493.45 L 92.76,489.87 L 94.12,488.23 L 91.04,487.92 L 89.43,483.53 L 71.28,482.86 L 71.28,106.98 L 74.90,107.26 Z M 76.08,492.48 L 77.88,492.01 L 77.16,493.88 L 76.08,492.48 Z M 74.55,489.87 L 71.28,492.87 L 71.28,488.64 L 72.41,488.23 L 74.55,489.87 Z M 80.75,486.21 L 78.75,486.44 L 78.81,485.58 L 80.75,486.21 Z" fill="#C8D8E8" stroke="#8BAABB" stroke-width="0.8"/>
<path d="M 637.47,170.88 L 634.25,174.90 L 634.84,177.71 L 639.63,179.56 L 641.80,185.47 L 652.91,182.32 L 653.35,187.36 L 659.24,190.97 L 666.99,209.40 L 665.97,213.66 L 658.68,216.11 L 655.31,222.10 L 637.73,224.30 L 630.70,230.26 L 588.14,221.14 L 577.69,225.49 L 573.70,233.97 L 579.72,240.07 L 576.94,243.64 L 577.60,246.63 L 587.76,248.89 L 579.02,256.72 L 584.49,264.98 L 580.05,275.87 L 588.87,282.17 L 589.87,290.00 L 596.36,290.49 L 599.54,287.78 L 597.95,296.14 L 599.66,300.16 L 609.20,300.33 L 618.77,307.37 L 616.93,311.25 L 603.63,315.50 L 595.42,322.87 L 593.95,326.30 L 597.60,334.98 L 594.44,344.73 L 598.79,347.88 L 589.10,354.43 L 575.76,372.34 L 578.40,378.68 L 562.02,387.65 L 558.10,401.09 L 549.46,417.91 L 533.03,427.55 L 527.20,441.77 L 520.30,449.28 L 519.33,455.32 L 489.57,464.21 L 486.12,462.84 L 481.11,453.39 L 475.60,453.54 L 452.56,484.01 L 451.70,497.44 L 455.97,500.00 L 270.35,500.00 L 271.50,493.63 L 273.56,492.74 L 272.70,486.07 L 275.22,484.30 L 271.15,479.44 L 263.03,480.99 L 258.74,479.15 L 260.81,471.31 L 259.29,445.46 L 253.99,446.06 L 247.91,439.53 L 234.50,435.28 L 225.19,423.98 L 218.65,406.67 L 204.58,390.03 L 251.19,405.52 L 282.32,402.44 L 297.09,406.25 L 299.56,402.89 L 308.26,399.93 L 324.20,400.97 L 357.28,390.82 L 361.42,386.65 L 357.96,383.16 L 360.41,376.74 L 359.35,364.47 L 362.15,353.42 L 367.40,351.55 L 371.59,344.03 L 378.62,339.94 L 381.24,342.65 L 390.12,343.62 L 402.06,339.27 L 402.22,337.19 L 397.69,336.63 L 396.47,332.54 L 407.81,328.81 L 412.73,322.40 L 422.98,325.82 L 424.46,324.85 L 420.72,323.83 L 428.06,324.12 L 431.71,330.04 L 438.45,327.61 L 445.84,318.51 L 443.95,300.46 L 449.47,293.84 L 448.05,289.82 L 450.93,286.90 L 451.23,281.00 L 465.69,277.60 L 474.25,271.01 L 470.27,264.56 L 469.22,257.34 L 464.63,256.09 L 461.48,250.10 L 462.21,246.99 L 480.74,249.69 L 496.17,245.72 L 497.86,235.32 L 493.15,229.29 L 496.26,228.38 L 496.68,224.44 L 507.78,214.92 L 512.58,206.67 L 509.50,202.85 L 512.14,198.42 L 507.63,185.86 L 499.12,177.23 L 510.31,167.53 L 511.80,163.05 L 516.71,165.17 L 516.45,162.29 L 527.81,156.32 L 527.76,154.34 L 539.05,150.58 L 569.72,147.97 L 581.00,150.75 L 598.89,142.54 L 604.88,147.61 L 611.38,144.61 L 618.55,147.31 L 620.85,153.94 L 629.32,153.93 L 636.52,163.48 L 637.47,170.88 Z" fill="#C8D8E8" stroke="#8BAABB" stroke-width="0.8"/>
<path d="M 215.90,182.45 L 212.73,179.82 L 215.44,174.55 L 213.21,166.52 L 213.76,156.92 L 190.26,156.89 L 181.04,143.52 L 165.13,137.27 L 160.86,126.17 L 146.28,120.52 L 133.63,122.63 L 129.32,121.07 L 127.89,117.30 L 104.94,111.14 L 100.19,100.51 L 95.98,103.58 L 78.80,101.25 L 72.45,107.65 L 71.28,107.62 L 71.28,0.00 L 211.82,0.00 L 217.05,1.43 L 218.32,0.00 L 228.72,0.00 L 234.08,2.55 L 241.39,21.36 L 247.64,26.43 L 250.48,40.92 L 279.72,61.77 L 286.33,69.06 L 298.93,77.37 L 304.26,76.63 L 340.41,101.85 L 348.18,100.63 L 370.13,111.88 L 366.51,117.49 L 367.30,128.91 L 365.11,133.07 L 356.36,131.45 L 344.89,124.52 L 338.49,135.57 L 324.97,136.39 L 317.69,139.75 L 311.52,157.44 L 311.59,164.21 L 308.26,169.46 L 296.26,175.18 L 295.92,178.85 L 291.49,177.78 L 278.37,183.24 L 269.07,183.74 L 272.21,189.15 L 268.28,191.71 L 268.38,198.16 L 257.35,204.65 L 249.88,203.54 L 245.73,208.36 L 244.23,203.09 L 237.77,198.10 L 226.28,198.39 L 216.72,191.92 L 215.90,182.45 Z" fill="#C8D8E8" stroke="#8BAABB" stroke-width="0.8"/>
<path d="M 515.99,44.57 L 513.37,43.29 L 513.83,42.78 L 516.80,41.59 L 515.99,44.57 Z M 483.60,34.37 L 480.80,29.41 L 476.44,28.68 L 476.39,24.88 L 487.74,15.87 L 484.03,14.73 L 485.97,13.47 L 478.56,5.95 L 476.22,5.73 L 473.85,11.05 L 457.03,19.57 L 451.84,14.59 L 447.44,14.40 L 446.14,20.74 L 442.97,21.75 L 446.23,29.45 L 443.26,30.98 L 445.45,34.53 L 425.36,35.59 L 436.94,38.08 L 430.88,38.49 L 433.91,45.42 L 430.43,41.90 L 431.24,45.30 L 429.94,47.44 L 426.64,46.41 L 423.54,56.77 L 400.72,54.19 L 392.43,59.24 L 390.23,68.07 L 399.29,71.10 L 399.94,75.98 L 411.65,76.34 L 413.70,80.95 L 410.68,82.92 L 410.35,91.57 L 418.94,102.71 L 415.87,111.77 L 412.26,113.17 L 403.90,126.25 L 402.51,137.92 L 394.60,134.71 L 387.63,138.04 L 380.41,131.19 L 366.53,131.89 L 366.51,117.49 L 369.52,110.23 L 348.18,100.63 L 340.41,101.85 L 304.26,76.63 L 298.93,77.37 L 286.33,69.06 L 279.72,61.77 L 250.48,40.92 L 247.64,26.43 L 241.39,21.36 L 234.08,2.55 L 228.72,0.00 L 372.30,0.00 L 372.62,1.41 L 405.86,0.00 L 407.01,0.00 L 409.75,5.37 L 412.52,5.82 L 408.51,13.34 L 421.95,21.13 L 426.30,20.29 L 425.06,9.82 L 437.77,0.00 L 491.37,0.00 L 499.52,3.12 L 500.27,0.35 L 502.26,2.95 L 506.25,2.46 L 506.28,0.00 L 519.23,0.00 L 519.25,0.15 L 527.44,0.38 L 527.63,6.87 L 532.40,4.34 L 541.70,11.41 L 555.54,12.56 L 545.29,18.20 L 540.76,23.68 L 532.96,20.53 L 534.16,27.84 L 527.65,25.61 L 521.68,30.38 L 523.46,32.98 L 518.25,32.67 L 514.56,36.27 L 512.31,32.33 L 509.25,34.23 L 501.62,30.08 L 483.60,34.37 Z M 481.87,7.03 L 484.25,9.07 L 483.44,7.07 L 481.87,7.03 Z M 217.05,1.43 L 211.82,0.00 L 218.32,0.00 L 217.05,1.43 Z M 501.34,39.63 L 499.37,41.44 L 500.33,45.06 L 495.01,45.33 L 495.69,41.51 L 493.07,37.94 L 494.63,35.81 L 501.34,39.63 Z" fill="#C8D8E8" stroke="#8BAABB" stroke-width="0.8"/>
<path d="M 483.44,7.07 L 484.25,9.07 L 481.87,7.03 L 483.44,7.07 Z M 484.85,37.65 L 479.46,44.64 L 480.84,40.08 L 465.98,34.06 L 452.09,36.93 L 451.62,43.90 L 448.88,44.81 L 446.27,41.69 L 444.18,47.12 L 445.48,57.07 L 465.24,57.25 L 471.57,54.32 L 472.22,57.77 L 479.46,54.95 L 483.60,56.25 L 487.82,62.49 L 493.73,62.05 L 497.12,58.01 L 507.49,54.58 L 509.02,59.85 L 515.50,60.21 L 515.82,66.20 L 524.34,62.94 L 529.45,69.12 L 531.94,64.32 L 537.73,62.71 L 556.24,63.41 L 568.70,59.82 L 568.80,68.50 L 575.03,76.42 L 570.88,80.00 L 574.75,89.85 L 580.81,91.89 L 583.51,86.99 L 589.52,87.08 L 603.75,94.07 L 602.55,107.22 L 607.53,118.02 L 605.44,123.80 L 613.21,130.63 L 605.45,136.46 L 598.83,130.86 L 588.99,129.73 L 571.69,136.95 L 568.50,135.41 L 572.54,132.77 L 572.95,129.68 L 559.91,128.42 L 545.48,136.84 L 541.68,143.42 L 530.33,145.54 L 518.25,154.76 L 513.02,155.18 L 506.68,142.11 L 511.44,113.51 L 501.75,112.55 L 504.60,101.38 L 492.97,93.75 L 484.82,96.08 L 479.27,105.87 L 473.31,112.11 L 470.76,111.87 L 473.92,120.17 L 470.35,125.79 L 463.53,123.19 L 451.82,124.50 L 448.11,129.37 L 449.93,136.72 L 446.55,140.25 L 444.32,140.84 L 434.11,132.78 L 434.91,134.81 L 432.62,133.09 L 432.18,135.78 L 427.86,134.84 L 409.71,146.98 L 402.65,141.09 L 403.90,126.25 L 412.26,113.17 L 415.87,111.77 L 418.94,102.71 L 410.35,91.57 L 410.68,82.92 L 413.70,80.95 L 411.65,76.34 L 399.94,75.98 L 399.29,71.10 L 390.23,68.07 L 394.15,57.12 L 400.72,54.19 L 423.54,56.77 L 426.64,46.41 L 429.94,47.44 L 431.24,45.30 L 430.43,41.90 L 433.91,45.42 L 430.88,38.49 L 436.94,38.08 L 425.36,35.59 L 445.45,34.53 L 443.26,30.98 L 446.23,29.45 L 442.97,21.75 L 446.14,20.74 L 447.44,14.40 L 451.84,14.59 L 457.79,19.35 L 473.85,11.05 L 476.22,5.73 L 487.74,15.87 L 476.39,24.88 L 476.44,28.68 L 480.80,29.41 L 483.60,34.37 L 493.21,33.04 L 484.85,37.65 Z M 485.79,46.10 L 485.96,47.35 L 482.44,49.26 L 480.08,45.30 L 485.79,46.10 Z" fill="#C8D8E8" stroke="#8BAABB" stroke-width="0.8"/>
<path d="M 716.43,262.97 L 714.71,247.78 L 714.96,244.86 L 721.99,240.12 L 721.99,236.95 L 713.09,229.48 L 702.58,226.10 L 694.16,203.95 L 695.39,196.29 L 690.80,198.37 L 688.43,196.16 L 676.54,196.96 L 663.17,193.14 L 653.35,187.36 L 652.39,182.16 L 641.80,185.47 L 639.63,179.56 L 634.21,176.62 L 637.47,170.88 L 636.39,162.89 L 632.77,156.63 L 627.07,152.87 L 620.85,153.94 L 617.47,146.86 L 611.38,144.61 L 604.88,147.61 L 602.60,143.89 L 595.46,143.67 L 590.90,140.06 L 600.58,134.17 L 602.65,137.05 L 605.45,136.46 L 613.21,130.63 L 605.44,123.80 L 607.53,118.02 L 602.55,107.22 L 603.84,94.36 L 589.52,87.08 L 583.51,86.99 L 580.81,91.89 L 574.75,89.85 L 570.88,80.00 L 575.03,76.42 L 568.80,68.50 L 569.50,60.21 L 575.37,59.27 L 577.75,55.61 L 574.81,48.59 L 579.32,39.74 L 589.51,38.01 L 600.13,29.84 L 604.59,30.02 L 602.46,26.77 L 603.83,23.64 L 614.06,26.06 L 624.50,19.47 L 627.98,31.20 L 644.03,26.06 L 646.01,29.43 L 654.45,20.70 L 655.55,14.93 L 661.63,6.39 L 696.27,5.48 L 701.68,0.00 L 728.72,0.00 L 728.72,272.49 L 725.46,272.09 L 716.43,262.97 Z M 726.42,335.68 L 724.67,334.89 L 720.41,341.49 L 715.39,340.17 L 714.09,333.22 L 717.50,329.87 L 713.27,324.26 L 715.38,317.60 L 707.20,308.47 L 705.11,297.54 L 715.16,294.71 L 716.14,300.49 L 721.05,304.46 L 724.82,303.62 L 725.89,300.12 L 728.72,298.15 L 728.72,339.95 L 726.42,335.68 Z" fill="#C8D8E8" stroke="#8BAABB" stroke-width="0.8"/>
<path d="M 595.32,145.71 L 591.23,144.62 L 581.00,150.75 L 573.51,148.12 L 556.93,148.64 L 529.01,153.82 L 516.45,162.29 L 516.71,165.17 L 511.80,163.05 L 510.31,167.53 L 500.75,174.49 L 499.26,177.87 L 504.55,181.11 L 509.09,189.07 L 508.44,192.23 L 511.32,194.30 L 512.10,199.09 L 509.50,202.85 L 512.58,206.67 L 507.78,214.92 L 496.68,224.44 L 496.26,228.38 L 493.15,229.29 L 497.86,235.32 L 496.17,245.72 L 480.74,249.69 L 462.21,246.99 L 461.48,250.10 L 464.63,256.09 L 469.22,257.34 L 470.27,264.56 L 474.25,271.01 L 465.69,277.60 L 451.23,281.00 L 450.93,286.90 L 448.05,289.82 L 449.47,293.84 L 443.95,300.46 L 445.84,318.51 L 438.45,327.61 L 431.71,330.04 L 428.06,324.12 L 420.72,323.83 L 424.46,324.85 L 422.98,325.82 L 412.73,322.40 L 407.81,328.81 L 396.47,332.54 L 397.69,336.63 L 402.22,337.19 L 402.06,339.27 L 390.12,343.62 L 381.24,342.65 L 378.62,339.94 L 371.59,344.03 L 367.40,351.55 L 362.15,353.42 L 359.35,364.47 L 360.41,376.74 L 357.96,383.16 L 361.42,386.65 L 357.28,390.82 L 324.20,400.97 L 308.26,399.93 L 299.56,402.89 L 297.09,406.25 L 282.32,402.44 L 251.19,405.52 L 204.58,390.03 L 231.92,356.02 L 232.61,350.25 L 228.63,337.93 L 203.94,333.75 L 202.60,315.44 L 204.18,307.81 L 196.55,279.97 L 196.68,276.78 L 206.77,264.30 L 195.09,260.02 L 194.55,242.81 L 198.86,237.04 L 205.90,236.62 L 200.45,229.83 L 207.53,225.65 L 210.89,219.57 L 213.23,209.68 L 211.95,204.37 L 214.36,202.86 L 216.72,191.92 L 226.28,198.39 L 237.77,198.10 L 244.23,203.09 L 245.73,208.36 L 249.88,203.54 L 257.35,204.65 L 268.38,198.16 L 268.28,191.71 L 272.21,189.15 L 269.07,183.74 L 278.37,183.24 L 291.49,177.78 L 295.92,178.85 L 296.26,175.18 L 308.26,169.46 L 316.85,146.53 L 316.85,140.35 L 324.97,136.39 L 338.49,135.57 L 344.89,124.52 L 360.10,133.02 L 380.41,131.19 L 387.63,138.04 L 394.60,134.71 L 401.54,136.52 L 402.30,140.63 L 409.35,146.97 L 427.86,134.84 L 432.18,135.78 L 432.62,133.09 L 434.91,134.81 L 434.11,132.78 L 446.21,140.37 L 449.93,136.72 L 448.11,129.37 L 451.82,124.50 L 463.53,123.19 L 470.35,125.79 L 473.92,120.17 L 470.76,111.87 L 473.31,112.11 L 479.27,105.87 L 484.82,96.08 L 492.97,93.75 L 504.60,101.38 L 501.75,112.55 L 511.44,113.51 L 506.68,142.11 L 513.02,155.18 L 518.25,154.76 L 530.33,145.54 L 541.68,143.42 L 545.48,136.84 L 559.91,128.42 L 572.95,129.68 L 572.54,132.77 L 568.50,135.41 L 571.69,136.95 L 588.99,129.73 L 598.83,130.86 L 605.45,136.46 L 602.65,137.05 L 600.58,134.17 L 590.50,138.67 L 595.32,145.71 Z" fill="#4A90D9" stroke="#1a5fa8" stroke-width="1.2"/>
<path d="M 635.27,310.26 L 638.27,310.63 L 642.70,320.72 L 635.20,317.59 L 635.27,310.26 Z" fill="#A8C8E8" stroke="none"/>
<path d="M 714.89,258.66 L 706.56,248.31 L 715.79,256.91 L 721.59,256.52 L 714.89,258.66 Z" fill="#A8C8E8" stroke="none"/>
<path d="M 596.29,234.43 L 594.98,237.08 L 595.43,233.36 L 598.52,233.89 L 596.29,234.43 Z" fill="#A8C8E8" stroke="none"/>
<path d="M 571.55,274.77 L 570.00,277.43 L 567.97,274.13 L 568.52,270.94 L 570.25,274.36 L 572.82,270.94 L 571.46,274.02 L 575.65,276.39 L 571.55,274.77 Z" fill="#A8C8E8" stroke="none"/>
<path d="M 416.58,6.29 L 409.74,5.36 L 407.01,0.00 L 411.80,0.00 L 421.28,2.53 L 416.58,6.29 Z" fill="#A8C8E8" stroke="none"/>
<path d="M 549.00,247.18 L 546.73,244.25 L 542.80,244.29 L 546.73,237.52 L 545.22,226.17 L 547.71,242.19 L 551.56,244.73 L 549.00,247.18 Z" fill="#A8C8E8" stroke="none"/>
<path d="M 475.13,30.40 L 471.08,32.10 L 460.77,32.11 L 476.49,27.06 L 475.13,30.40 Z" fill="#A8C8E8" stroke="none"/>
<path d="M 654.36,341.25 L 649.47,336.24 L 647.12,330.11 L 655.22,341.06 L 653.58,337.41 L 657.62,339.99 L 657.46,337.78 L 658.88,336.70 L 658.91,341.79 L 654.36,341.25 Z" fill="#A8C8E8" stroke="none"/>
<path d="M 406.05,13.22 L 394.08,16.17 L 397.55,24.13 L 389.55,18.24 L 389.43,14.89 L 354.97,6.72 L 379.80,6.79 L 387.87,8.67 L 391.89,11.19 L 390.87,13.02 L 395.65,13.01 L 409.74,5.36 L 406.05,13.22 Z" fill="#A8C8E8" stroke="none"/>
</svg>