<svg xmlns="http://www.w3.org/2000/svg" width="800" height="500" viewBox="0 0 800 500">
<rect width="800" height="500" fill="#A8C8E8"/>
<path d="M 583.26,477.51 L 568.98,468.42 L 584.91,456.34 L 603.48,468.40 L 583.26,477.51 Z M 634.83,410.56 L 629.08,410.07 L 642.20,403.96 L 634.83,410.56 Z M 510.48,452.55 L 478.25,465.73 L 452.64,409.00 L 467.52,400.71 L 514.06,413.17 L 510.48,452.55 Z M 536.35,377.62 L 560.55,403.28 L 611.09,418.26 L 536.44,426.17 L 515.94,413.19 L 536.35,377.62 Z M 497.96,479.65 L 495.09,481.69 L 492.40,480.72 L 497.96,479.65 Z M 506.44,479.38 L 503.06,479.21 L 507.00,476.41 L 506.44,479.38 Z" fill="#E8E0D0" stroke="#B8B0A0" stroke-width="0.5"/>
<path d="M 125.23,134.82 L 115.27,134.30 L 147.57,126.20 L 147.59,140.07 L 125.23,134.82 Z" fill="#E8E0D0" stroke="#B8B0A0" stroke-width="0.5"/>
<path d="M 130.51,136.14 L 147.59,140.07 L 127.57,139.67 L 130.51,136.14 Z" fill="#E8E0D0" stroke="#B8B0A0" stroke-width="0.5"/>
<path d="M 165.72,225.69 L 162.30,228.95 L 156.71,228.45 L 152.70,219.41 L 165.72,225.69 Z M 96.06,203.22 L 92.38,205.49 L 89.15,204.07 L 96.06,203.22 Z" fill="#E8E0D0" stroke="#B8B0A0" stroke-width="0.5"/>
<path d="M 347.27,350.18 L 351.48,329.77 L 358.31,330.73 L 347.27,350.18 Z" fill="#E8E0D0" stroke="#B8B0A0" stroke-width="0.5"/>
<path d="M 265.36,272.82 L 265.08,285.19 L 248.94,285.26 L 252.17,269.83 L 265.36,272.82 Z M 240.22,267.60 L 188.70,239.86 L 221.99,245.51 L 240.22,267.60 Z" fill="#E8E0D0" stroke="#B8B0A0" stroke-width="0.5"/>
<path d="M 185.45,156.36 L 204.07,158.49 L 199.45,162.12 L 185.45,156.36 Z" fill="#E8E0D0" stroke="#B8B0A0" stroke-width="0.5"/>
<path d="M 151.84,109.76 L 110.02,118.83 L 142.43,103.45 L 151.84,109.76 Z M 44.78,51.34 L 46.09,51.53 L 44.99,52.65 L 44.78,51.34 Z M 165.07,98.84 L 170.56,100.02 L 162.81,102.42 L 165.07,98.84 Z M 86.32,101.22 L 92.97,101.07 L 88.97,102.63 L 86.32,101.22 Z M 107.11,103.64 L 103.93,103.28 L 104.46,103.22 L 107.11,103.64 Z M 109.71,103.83 L 109.90,104.37 L 108.46,104.34 L 109.71,103.83 Z" fill="#E8E0D0" stroke="#B8B0A0" stroke-width="0.5"/>
<path d="M 445.66,275.17 L 485.08,289.13 L 467.70,303.22 L 431.08,293.88 L 445.66,275.17 Z M 433.52,193.54 L 444.12,205.62 L 442.53,187.83 L 470.04,209.59 L 442.25,208.83 L 433.52,193.54 Z M 316.22,311.68 L 315.22,312.17 L 314.92,311.90 L 316.22,311.68 Z" fill="#4A90D9" stroke="#1a5fa8" stroke-width="1.2"/>
</svg>