<svg xmlns="http://www.w3.org/2000/svg" width="800" height="500" viewBox="0 0 800 500">
<rect width="800" height="500" fill="#A8C8E8"/>
<path d="M 410.42,299.74 L 404.51,299.22 L 423.67,291.12 L 423.68,304.99 L 410.42,299.74 Z" fill="#E8E0D0" stroke="#B8B0A0" stroke-width="0.5"/>
<path d="M 413.55,301.06 L 423.68,304.99 L 411.80,304.59 L 413.55,301.06 Z" fill="#E8E0D0" stroke="#B8B0A0" stroke-width="0.5"/>
<path d="M 434.43,390.61 L 432.40,393.86 L 429.09,393.37 L 426.71,384.32 L 434.43,390.61 Z M 393.11,368.14 L 390.93,370.41 L 389.02,368.99 L 393.11,368.14 Z" fill="#E8E0D0" stroke="#B8B0A0" stroke-width="0.5"/>
<path d="M 547.19,500.00 L 543.95,500.00 L 544.60,494.68 L 548.66,495.65 L 547.19,500.00 Z" fill="#E8E0D0" stroke="#B8B0A0" stroke-width="0.5"/>
<path d="M 600.47,440.08 L 623.84,454.04 L 613.53,468.13 L 591.81,458.79 L 600.47,440.08 Z M 593.26,358.46 L 599.55,370.54 L 598.61,352.75 L 614.92,374.51 L 598.44,373.75 L 593.26,358.46 Z M 523.69,476.60 L 523.10,477.08 L 522.92,476.82 L 523.69,476.60 Z" fill="#E8E0D0" stroke="#B8B0A0" stroke-width="0.5"/>
<path d="M 493.52,437.74 L 493.36,450.10 L 483.79,450.18 L 485.71,434.74 L 493.52,437.74 Z M 478.62,432.52 L 448.06,404.78 L 467.80,410.43 L 478.62,432.52 Z" fill="#E8E0D0" stroke="#B8B0A0" stroke-width="0.5"/>
<path d="M 178.59,354.39 L 162.76,356.94 L 162.76,346.41 L 195.06,349.01 L 178.59,354.39 Z M 173.62,262.81 L 162.76,259.88 L 162.76,255.78 L 167.25,251.83 L 180.09,257.59 L 173.62,262.81 Z" fill="#E8E0D0" stroke="#B8B0A0" stroke-width="0.5"/>
<path d="M 446.13,321.27 L 457.17,323.41 L 454.43,327.03 L 446.13,321.27 Z" fill="#E8E0D0" stroke="#B8B0A0" stroke-width="0.5"/>
<path d="M 172.12,249.86 L 182.86,239.71 L 201.37,241.56 L 172.12,249.86 Z M 217.48,238.85 L 212.27,240.97 L 216.41,230.21 L 229.66,230.21 L 217.48,238.85 Z M 221.59,196.74 L 217.43,193.84 L 230.51,193.60 L 237.86,200.72 L 221.59,196.74 Z M 193.36,257.91 L 188.60,254.64 L 192.25,253.86 L 193.36,257.91 Z M 169.72,241.78 L 163.24,241.10 L 164.07,239.95 L 169.72,241.78 Z M 199.55,235.77 L 198.45,237.96 L 198.02,234.76 L 199.55,235.77 Z" fill="#E8E0D0" stroke="#B8B0A0" stroke-width="0.5"/>
<path d="M 426.20,274.68 L 401.40,283.74 L 420.62,268.37 L 426.20,274.68 Z M 362.70,216.26 L 363.48,216.45 L 362.83,217.57 L 362.70,216.26 Z M 434.04,263.76 L 437.30,264.93 L 432.70,267.33 L 434.04,263.76 Z M 387.34,266.14 L 391.28,265.99 L 388.91,267.55 L 387.34,266.14 Z M 399.67,268.56 L 397.78,268.20 L 398.10,268.14 L 399.67,268.56 Z M 401.21,268.74 L 401.32,269.28 L 400.47,269.25 L 401.21,268.74 Z" fill="#4A90D9" stroke="#1a5fa8" stroke-width="1.2"/>
</svg>