<svg xmlns="http://www.w3.org/2000/svg" width="800" height="500" viewBox="0 0 800 500">
<rect width="800" height="500" fill="#A8C8E8"/>
<path d="M 417.56,299.74 L 407.60,299.22 L 439.90,291.12 L 439.92,304.99 L 417.56,299.74 Z" fill="#E8E0D0" stroke="#B8B0A0" stroke-width="0.5"/>
<path d="M 422.84,301.06 L 439.92,304.99 L 419.90,304.59 L 422.84,301.06 Z" fill="#E8E0D0" stroke="#B8B0A0" stroke-width="0.5"/>
<path d="M 458.05,390.61 L 454.63,393.86 L 449.04,393.37 L 445.03,384.32 L 458.05,390.61 Z M 388.39,368.14 L 384.71,370.41 L 381.48,368.99 L 388.39,368.14 Z" fill="#E8E0D0" stroke="#B8B0A0" stroke-width="0.5"/>
<path d="M 648.17,500.00 L 642.71,500.00 L 643.81,494.68 L 650.64,495.65 L 648.17,500.00 Z" fill="#E8E0D0" stroke="#B8B0A0" stroke-width="0.5"/>
<path d="M 738.00,440.08 L 777.41,454.04 L 760.03,468.13 L 723.41,458.79 L 738.00,440.08 Z M 725.85,358.46 L 736.45,370.54 L 734.86,352.75 L 762.37,374.51 L 734.58,373.75 L 725.85,358.46 Z M 608.55,476.60 L 607.55,477.08 L 607.25,476.82 L 608.55,476.60 Z" fill="#E8E0D0" stroke="#B8B0A0" stroke-width="0.5"/>
<path d="M 557.69,437.74 L 557.41,450.10 L 541.27,450.18 L 544.50,434.74 L 557.69,437.74 Z M 532.55,432.52 L 481.03,404.78 L 514.32,410.43 L 532.55,432.52 Z" fill="#E8E0D0" stroke="#B8B0A0" stroke-width="0.5"/>
<path d="M 26.68,354.39 L 0.00,356.94 L 0.00,346.41 L 54.46,349.01 L 26.68,354.39 Z M 18.31,262.81 L 0.00,259.88 L 0.00,255.78 L 7.57,251.83 L 29.22,257.59 L 18.31,262.81 Z" fill="#E8E0D0" stroke="#B8B0A0" stroke-width="0.5"/>
<path d="M 477.78,321.27 L 496.40,323.41 L 491.78,327.03 L 477.78,321.27 Z" fill="#E8E0D0" stroke="#B8B0A0" stroke-width="0.5"/>
<path d="M 15.78,249.86 L 33.89,239.71 L 65.10,241.56 L 15.78,249.86 Z M 92.26,238.85 L 83.48,240.97 L 90.46,230.21 L 112.80,230.21 L 92.26,238.85 Z M 99.18,196.74 L 92.17,193.84 L 114.24,193.60 L 126.63,200.72 L 99.18,196.74 Z M 51.58,257.91 L 43.56,254.64 L 49.72,253.86 L 51.58,257.91 Z M 11.73,241.78 L 0.81,241.10 L 2.21,239.95 L 11.73,241.78 Z M 62.02,235.77 L 60.18,237.96 L 59.45,234.76 L 62.02,235.77 Z" fill="#E8E0D0" stroke="#B8B0A0" stroke-width="0.5"/>
<path d="M 444.17,274.68 L 402.35,283.74 L 434.76,268.37 L 444.17,274.68 Z M 337.11,216.26 L 338.42,216.45 L 337.32,217.57 L 337.11,216.26 Z M 457.40,263.76 L 462.89,264.93 L 455.14,267.33 L 457.40,263.76 Z M 378.66,266.14 L 385.30,265.99 L 381.31,267.55 L 378.66,266.14 Z M 399.44,268.56 L 396.26,268.20 L 396.79,268.14 L 399.44,268.56 Z M 402.04,268.74 L 402.23,269.28 L 400.79,269.25 L 402.04,268.74 Z" fill="#4A90D9" stroke="#1a5fa8" stroke-width="1.2"/>
</svg>