<svg xmlns="http://www.w3.org/2000/svg" width="800" height="500" viewBox="0 0 800 500">
<rect width="800" height="500" fill="#A8C8E8"/>
<path d="M 387.39,93.93 L 370.08,83.75 L 480.49,72.97 L 476.27,63.18 L 527.64,49.16 L 512.42,37.51 L 560.02,30.76 L 571.05,40.35 L 634.56,48.62 L 676.55,69.75 L 713.52,73.85 L 706.08,84.50 L 800.00,94.04 L 800.00,96.78 L 740.42,126.15 L 752.43,136.05 L 703.11,138.38 L 686.24,152.09 L 636.03,141.27 L 557.64,153.06 L 531.78,177.71 L 503.20,174.69 L 486.61,139.68 L 420.85,128.43 L 377.65,104.94 L 387.39,93.93 Z" fill="#E8E0D0" stroke="#B8B0A0" stroke-width="0.5"/>
<path d="M 755.17,136.50 L 740.42,126.15 L 765.77,121.52 L 800.00,94.22 L 800.00,133.06 L 755.17,136.50 Z M 706.08,84.50 L 713.52,73.85 L 676.55,69.75 L 634.56,48.62 L 571.05,40.35 L 566.27,31.35 L 512.42,37.51 L 522.37,52.59 L 476.27,63.18 L 480.49,72.97 L 447.75,75.87 L 445.68,67.64 L 343.70,46.21 L 260.94,39.76 L 155.39,8.21 L 169.51,0.00 L 800.00,0.00 L 800.00,92.02 L 706.08,84.50 Z" fill="#E8E0D0" stroke="#B8B0A0" stroke-width="0.5"/>
<path d="M 89.17,5.48 L 128.83,26.03 L 109.53,30.35 L 66.71,22.65 L 27.49,33.86 L 21.16,55.91 L 0.00,57.17 L 0.00,0.00 L 145.86,0.00 L 89.17,5.48 Z" fill="#E8E0D0" stroke="#B8B0A0" stroke-width="0.5"/>
<path d="M 21.16,55.91 L 27.49,33.86 L 66.71,22.65 L 109.53,30.35 L 128.83,26.03 L 87.82,7.20 L 105.78,1.44 L 160.25,2.83 L 159.47,10.94 L 260.94,39.76 L 343.70,46.21 L 449.82,69.30 L 407.26,84.67 L 368.04,84.60 L 387.39,93.93 L 356.85,108.67 L 311.76,113.08 L 291.94,94.65 L 266.86,98.91 L 180.14,141.75 L 204.53,150.76 L 202.68,176.85 L 153.98,167.98 L 82.91,132.11 L 56.05,133.45 L 0.00,118.32 L 0.00,117.88 L 36.52,120.86 L 33.25,111.55 L 0.00,116.35 L 0.00,58.73 L 21.16,55.91 Z" fill="#C8D8E8" stroke="#8BAABB" stroke-width="0.8"/>
<path d="M 756.80,278.96 L 800.00,268.01 L 800.00,500.00 L 592.89,500.00 L 576.38,492.56 L 543.75,491.91 L 562.71,485.91 L 553.86,476.46 L 632.71,486.26 L 655.77,485.05 L 651.39,472.45 L 632.71,465.70 L 626.00,471.28 L 572.64,468.39 L 567.02,460.36 L 547.20,469.16 L 569.36,475.97 L 553.00,474.53 L 545.19,477.38 L 482.02,442.94 L 420.41,430.86 L 427.39,419.55 L 394.80,417.36 L 406.86,407.55 L 361.37,400.40 L 422.92,403.57 L 431.42,388.96 L 460.67,387.50 L 435.89,370.02 L 523.30,358.92 L 554.07,324.97 L 616.11,310.78 L 602.73,280.71 L 756.80,278.96 Z M 532.98,487.74 L 536.93,500.00 L 518.03,500.00 L 532.98,487.74 Z M 408.94,451.23 L 411.89,453.61 L 396.02,450.54 L 408.94,451.23 Z M 387.84,434.45 L 339.36,427.65 L 268.03,394.73 L 348.41,390.37 L 322.66,404.63 L 343.29,407.46 L 345.54,423.24 L 384.42,427.32 L 387.84,434.45 Z" fill="#C8D8E8" stroke="#8BAABB" stroke-width="0.8"/>
<path d="M 537.15,177.13 L 557.64,153.06 L 636.03,141.27 L 683.63,152.27 L 720.50,135.99 L 800.00,131.11 L 800.00,268.01 L 756.80,278.96 L 602.73,280.71 L 540.72,274.10 L 486.43,240.72 L 496.45,223.62 L 472.45,208.19 L 495.08,204.50 L 486.51,189.09 L 503.20,174.69 L 537.15,177.13 Z" fill="#C8D8E8" stroke="#8BAABB" stroke-width="0.8"/>
<path d="M 486.51,189.09 L 495.08,204.50 L 472.45,208.19 L 496.45,223.62 L 486.43,240.72 L 540.72,274.10 L 600.58,276.01 L 597.33,289.42 L 620.58,302.42 L 595.62,319.73 L 554.07,324.97 L 523.30,358.92 L 435.89,370.02 L 460.67,387.50 L 431.42,388.96 L 435.53,397.93 L 407.44,406.25 L 358.67,401.10 L 363.85,382.57 L 338.02,378.35 L 327.27,363.97 L 230.47,346.53 L 183.80,325.13 L 230.15,332.59 L 208.01,312.40 L 225.06,311.31 L 187.50,301.03 L 206.71,274.61 L 242.27,273.33 L 235.27,264.84 L 231.33,269.88 L 223.35,271.91 L 240.56,238.56 L 209.72,222.29 L 240.56,211.94 L 221.64,204.49 L 264.65,202.43 L 259.32,180.32 L 202.68,176.85 L 204.53,150.76 L 179.42,142.85 L 286.23,93.75 L 307.52,112.42 L 371.22,103.80 L 420.85,128.43 L 481.83,137.67 L 511.23,165.64 L 486.51,189.09 Z" fill="#4A90D9" stroke="#1a5fa8" stroke-width="1.2"/>
<path d="M 173.35,146.65 L 130.88,129.89 L 195.72,135.13 L 220.08,126.47 L 202.86,137.63 L 231.56,149.85 L 173.35,146.65 Z" fill="#A8C8E8" stroke="none"/>
<path d="M 559.26,271.90 L 526.29,274.40 L 525.04,247.03 L 566.10,253.46 L 559.26,271.90 Z" fill="#A8C8E8" stroke="none"/>
<path d="M 619.01,281.17 L 618.94,281.48 L 618.94,281.44 L 619.01,281.17 Z" fill="#A8C8E8" stroke="none"/>
<path d="M 619.16,281.69 L 619.23,281.72 L 619.16,281.72 L 619.16,281.69 Z" fill="#A8C8E8" stroke="none"/>
<path d="M 620.04,281.69 L 620.41,281.72 L 620.78,281.81 L 620.04,281.69 Z" fill="#A8C8E8" stroke="none"/>
<path d="M 588.33,288.30 L 602.60,263.46 L 641.38,279.40 L 588.33,288.30 Z" fill="#A8C8E8" stroke="none"/>
<path d="M 636.23,293.58 L 610.48,298.21 L 624.97,287.48 L 640.50,285.96 L 636.23,293.58 Z" fill="#A8C8E8" stroke="none"/>
</svg>