<svg xmlns="http://www.w3.org/2000/svg" width="800" height="500" viewBox="0 0 800 500">
<rect width="800" height="500" fill="#A8C8E8"/>
<path d="M 396.07,93.93 L 390.67,83.75 L 425.10,72.97 L 423.79,63.18 L 439.81,49.16 L 435.07,37.51 L 449.91,30.76 L 453.35,40.35 L 473.16,48.62 L 486.26,69.75 L 497.79,73.85 L 495.47,84.50 L 524.77,94.04 L 524.77,96.78 L 506.18,126.15 L 509.93,136.05 L 494.54,138.38 L 489.28,152.09 L 473.62,141.27 L 449.17,153.06 L 441.10,177.71 L 432.19,174.69 L 427.01,139.68 L 406.50,128.43 L 393.03,104.94 L 396.07,93.93 Z" fill="#E8E0D0" stroke="#B8B0A0" stroke-width="0.5"/>
<path d="M 510.78,136.50 L 506.18,126.15 L 514.09,121.52 L 524.77,94.22 L 524.77,133.06 L 510.78,136.50 Z M 495.47,84.50 L 497.79,73.85 L 486.26,69.75 L 473.16,48.62 L 453.35,40.35 L 451.86,31.35 L 435.07,37.51 L 438.17,52.59 L 423.79,63.18 L 425.10,72.97 L 414.89,75.87 L 414.25,67.64 L 382.44,46.21 L 356.62,39.76 L 323.70,8.21 L 328.11,0.00 L 524.77,0.00 L 524.77,92.02 L 495.47,84.50 Z" fill="#E8E0D0" stroke="#B8B0A0" stroke-width="0.5"/>
<path d="M 303.05,5.48 L 315.42,26.03 L 309.40,30.35 L 296.04,22.65 L 283.81,33.86 L 281.83,55.91 L 275.23,57.17 L 275.23,0.00 L 320.73,0.00 L 303.05,5.48 Z" fill="#E8E0D0" stroke="#B8B0A0" stroke-width="0.5"/>
<path d="M 281.83,55.91 L 283.81,33.86 L 296.04,22.65 L 309.40,30.35 L 315.42,26.03 L 302.63,7.20 L 308.23,1.44 L 325.22,2.83 L 324.98,10.94 L 356.62,39.76 L 382.44,46.21 L 415.54,69.30 L 402.26,84.67 L 390.03,84.60 L 396.07,93.93 L 386.54,108.67 L 372.48,113.08 L 366.30,94.65 L 358.47,98.91 L 331.42,141.75 L 339.03,150.76 L 338.45,176.85 L 323.26,167.98 L 301.10,132.11 L 292.72,133.45 L 275.23,118.32 L 275.23,117.88 L 286.63,120.86 L 285.60,111.55 L 275.23,116.35 L 275.23,58.73 L 281.83,55.91 Z" fill="#C8D8E8" stroke="#8BAABB" stroke-width="0.8"/>
<path d="M 511.29,278.96 L 524.77,268.01 L 524.77,500.00 L 460.17,500.00 L 455.02,492.56 L 444.84,491.91 L 450.75,485.91 L 447.99,476.46 L 472.59,486.26 L 479.78,485.05 L 478.41,472.45 L 472.59,465.70 L 470.49,471.28 L 453.85,468.39 L 452.10,460.36 L 445.92,469.16 L 452.83,475.97 L 447.72,474.53 L 445.29,477.38 L 425.58,442.94 L 406.37,430.86 L 408.54,419.55 L 398.38,417.36 L 402.14,407.55 L 387.95,400.40 L 407.15,403.57 L 409.80,388.96 L 418.92,387.50 L 411.19,370.02 L 438.46,358.92 L 448.06,324.97 L 467.41,310.78 L 463.23,280.71 L 511.29,278.96 Z M 441.48,487.74 L 442.71,500.00 L 436.82,500.00 L 441.48,487.74 Z M 402.79,451.23 L 403.71,453.61 L 398.76,450.54 L 402.79,451.23 Z M 396.21,434.45 L 381.09,427.65 L 358.84,394.73 L 383.91,390.37 L 375.88,404.63 L 382.31,407.46 L 383.01,423.24 L 395.14,427.32 L 396.21,434.45 Z" fill="#C8D8E8" stroke="#8BAABB" stroke-width="0.8"/>
<path d="M 442.78,177.13 L 449.17,153.06 L 473.62,141.27 L 488.47,152.27 L 499.97,135.99 L 524.77,131.11 L 524.77,268.01 L 511.29,278.96 L 463.23,280.71 L 443.89,274.10 L 426.96,240.72 L 430.09,223.62 L 422.60,208.19 L 429.66,204.50 L 426.98,189.09 L 432.19,174.69 L 442.78,177.13 Z" fill="#C8D8E8" stroke="#8BAABB" stroke-width="0.8"/>
<path d="M 426.98,189.09 L 429.66,204.50 L 422.60,208.19 L 430.09,223.62 L 426.96,240.72 L 443.89,274.10 L 462.56,276.01 L 461.55,289.42 L 468.80,302.42 L 461.02,319.73 L 448.06,324.97 L 438.46,358.92 L 411.19,370.02 L 418.92,387.50 L 409.80,388.96 L 411.08,397.93 L 402.32,406.25 L 387.11,401.10 L 388.73,382.57 L 380.67,378.35 L 377.32,363.97 L 347.12,346.53 L 332.56,325.13 L 347.02,332.59 L 340.12,312.40 L 345.43,311.31 L 333.72,301.03 L 339.71,274.61 L 350.80,273.33 L 348.62,264.84 L 347.39,269.88 L 344.90,271.91 L 350.27,238.56 L 340.65,222.29 L 350.27,211.94 L 344.37,204.49 L 357.78,202.43 L 356.12,180.32 L 338.45,176.85 L 339.03,150.76 L 331.20,142.85 L 364.51,93.75 L 371.16,112.42 L 391.02,103.80 L 406.50,128.43 L 425.52,137.67 L 434.70,165.64 L 426.98,189.09 Z" fill="#4A90D9" stroke="#1a5fa8" stroke-width="1.2"/>
<path d="M 329.30,146.65 L 316.06,129.89 L 336.28,135.13 L 343.88,126.47 L 338.51,137.63 L 347.46,149.85 L 329.30,146.65 Z" fill="#A8C8E8" stroke="none"/>
<path d="M 449.67,271.90 L 439.39,274.40 L 439.00,247.03 L 451.81,253.46 L 449.67,271.90 Z" fill="#A8C8E8" stroke="none"/>
<path d="M 468.31,281.17 L 468.29,281.48 L 468.29,281.44 L 468.31,281.17 Z" fill="#A8C8E8" stroke="none"/>
<path d="M 468.36,281.69 L 468.38,281.72 L 468.36,281.72 L 468.36,281.69 Z" fill="#A8C8E8" stroke="none"/>
<path d="M 468.63,281.69 L 468.75,281.72 L 468.86,281.81 L 468.63,281.69 Z" fill="#A8C8E8" stroke="none"/>
<path d="M 458.74,288.30 L 463.19,263.46 L 475.29,279.40 L 458.74,288.30 Z" fill="#A8C8E8" stroke="none"/>
<path d="M 473.68,293.58 L 465.65,298.21 L 470.17,287.48 L 475.02,285.96 L 473.68,293.58 Z" fill="#A8C8E8" stroke="none"/>
</svg>