<svg xmlns="http://www.w3.org/2000/svg" width="800" height="500" viewBox="0 0 800 500">
<rect width="800" height="500" fill="#A8C8E8"/>
<path d="M 799.37,104.67 L 755.28,92.16 L 735.19,60.02 L 717.11,59.43 L 671.85,21.54 L 644.46,29.85 L 637.81,17.54 L 550.71,0.00 L 800.00,0.00 L 800.00,104.67 L 799.37,104.67 Z" fill="#E8E0D0" stroke="#B8B0A0" stroke-width="0.5"/>
<path d="M 399.58,121.51 L 399.08,128.16 L 391.37,125.38 L 399.58,121.51 Z M 436.07,73.91 L 470.09,75.76 L 514.25,87.97 L 505.05,93.00 L 526.37,104.26 L 588.01,105.38 L 633.27,125.38 L 652.93,116.40 L 663.58,94.54 L 604.36,67.57 L 583.18,46.79 L 584.60,35.84 L 604.32,33.72 L 622.85,16.49 L 640.66,18.57 L 644.46,29.85 L 671.85,21.54 L 717.11,59.43 L 735.19,60.02 L 755.28,92.16 L 800.00,98.95 L 800.00,322.63 L 729.00,348.98 L 635.99,403.87 L 632.50,378.15 L 617.22,363.56 L 650.00,360.95 L 611.78,335.87 L 637.61,317.28 L 583.85,312.30 L 514.04,267.59 L 488.21,263.77 L 534.76,258.67 L 551.43,231.13 L 479.80,203.13 L 455.68,172.97 L 491.34,148.84 L 462.87,128.92 L 407.67,123.16 L 428.18,112.78 L 402.11,105.69 L 396.98,93.75 L 436.07,73.91 Z M 483.12,179.89 L 485.26,176.53 L 472.38,176.19 L 483.12,179.89 Z M 465.95,388.15 L 445.79,362.88 L 420.75,361.20 L 360.95,298.20 L 401.90,289.49 L 420.05,314.62 L 437.70,311.47 L 465.35,325.75 L 521.21,318.01 L 516.55,341.12 L 552.47,356.58 L 548.09,369.19 L 576.20,406.25 L 465.95,388.15 Z M 426.13,134.91 L 424.61,131.95 L 431.46,133.85 L 426.13,134.91 Z" fill="#C8D8E8" stroke="#8BAABB" stroke-width="0.8"/>
<path d="M 619.00,13.32 L 606.63,32.46 L 584.60,35.84 L 585.20,52.58 L 664.58,96.41 L 649.87,119.04 L 629.81,125.47 L 590.86,105.99 L 549.84,109.48 L 508.82,96.68 L 514.25,87.97 L 441.14,72.83 L 389.51,97.32 L 368.25,95.95 L 372.53,104.25 L 266.99,101.54 L 151.59,117.67 L 140.96,107.05 L 96.67,99.11 L 109.46,92.65 L 43.44,66.21 L 48.88,56.56 L 14.78,56.62 L 0.00,71.10 L 0.00,0.00 L 549.41,0.00 L 619.00,13.32 Z" fill="#C8D8E8" stroke="#8BAABB" stroke-width="0.8"/>
<path d="M 420.75,361.20 L 445.79,362.88 L 465.95,388.15 L 574.65,406.38 L 642.27,402.89 L 729.00,348.98 L 800.00,322.63 L 800.00,500.00 L 292.37,500.00 L 311.02,473.90 L 284.26,468.25 L 281.96,408.84 L 262.51,393.25 L 267.99,370.01 L 250.76,362.94 L 240.83,340.53 L 299.82,335.32 L 311.13,298.76 L 327.93,290.07 L 366.08,306.30 L 420.75,361.20 Z" fill="#C8D8E8" stroke="#8BAABB" stroke-width="0.8"/>
<path d="M 194.30,161.69 L 192.18,181.12 L 168.83,198.39 L 194.43,238.11 L 185.58,245.74 L 243.61,258.82 L 289.97,255.46 L 366.08,306.30 L 327.93,290.07 L 311.13,298.76 L 299.82,335.32 L 240.83,340.53 L 250.76,362.94 L 267.99,370.01 L 262.51,393.25 L 281.96,408.84 L 284.26,468.25 L 311.02,473.90 L 292.37,500.00 L 0.00,500.00 L 0.00,72.62 L 26.76,55.40 L 51.89,57.45 L 43.44,66.21 L 109.46,92.65 L 96.67,99.11 L 140.96,107.05 L 194.30,161.69 Z" fill="#C8D8E8" stroke="#8BAABB" stroke-width="0.8"/>
<path d="M 402.11,105.69 L 428.18,112.78 L 407.67,123.16 L 462.87,128.92 L 491.34,148.84 L 455.68,172.97 L 479.80,203.13 L 551.43,231.13 L 534.76,258.67 L 488.21,263.77 L 514.04,267.59 L 583.85,312.30 L 637.61,317.28 L 611.78,335.87 L 650.00,360.95 L 617.22,363.56 L 632.50,378.15 L 635.99,403.87 L 576.20,406.25 L 548.09,369.19 L 552.47,356.58 L 516.55,341.12 L 517.63,316.38 L 465.35,325.75 L 437.70,311.47 L 420.05,314.62 L 401.90,289.49 L 360.95,298.20 L 289.97,255.46 L 243.61,258.82 L 185.58,245.74 L 194.43,238.11 L 168.83,198.39 L 192.18,181.12 L 194.30,161.69 L 150.00,117.43 L 266.99,101.54 L 372.53,104.25 L 368.25,95.95 L 396.98,93.75 L 402.11,105.69 Z M 391.37,125.38 L 399.08,128.16 L 399.58,121.51 L 391.37,125.38 Z M 431.46,133.85 L 424.61,131.95 L 426.13,134.91 L 431.46,133.85 Z M 472.38,176.19 L 485.26,176.53 L 483.12,179.89 L 472.38,176.19 Z" fill="#4A90D9" stroke="#1a5fa8" stroke-width="1.2"/>
<path d="M 390.34,193.01 L 393.14,179.59 L 460.81,199.64 L 501.21,234.03 L 441.82,240.92 L 429.35,208.44 L 390.34,193.01 Z" fill="#A8C8E8" stroke="none"/>
<path d="M 652.34,143.16 L 608.12,144.07 L 637.49,134.33 L 624.41,124.67 L 653.18,122.73 L 738.08,160.37 L 652.34,143.16 Z" fill="#A8C8E8" stroke="none"/>
<path d="M 397.18,499.71 L 404.07,485.23 L 453.78,483.22 L 473.24,496.11 L 472.42,500.00 L 400.04,500.00 L 397.18,499.71 Z" fill="#A8C8E8" stroke="none"/>
<path d="M 70.12,473.18 L 60.81,452.33 L 31.63,460.97 L 0.00,456.45 L 0.00,437.18 L 0.35,437.01 L 0.00,435.81 L 0.00,422.27 L 94.97,413.93 L 113.08,402.63 L 95.72,406.95 L 91.76,397.59 L 143.84,388.49 L 184.57,395.54 L 129.18,409.87 L 93.48,438.68 L 130.35,447.63 L 128.81,460.86 L 101.12,476.66 L 70.12,473.18 Z" fill="#A8C8E8" stroke="none"/>
</svg>