<svg xmlns="http://www.w3.org/2000/svg" width="800" height="500" viewBox="0 0 800 500">
<rect width="800" height="500" fill="#A8C8E8"/>
<path d="M 565.70,405.56 L 581.11,426.64 L 581.28,430.81 L 585.93,440.75 L 589.26,441.67 L 589.45,443.36 L 598.48,449.69 L 609.45,453.48 L 610.94,462.71 L 620.60,463.01 L 619.89,475.89 L 622.21,479.40 L 622.21,500.00 L 447.12,500.00 L 447.11,497.19 L 469.73,496.35 L 469.51,412.85 L 521.60,405.51 L 528.73,416.47 L 545.37,404.52 L 550.18,406.74 L 558.92,400.68 L 565.80,400.81 L 565.70,405.56 Z" fill="#E8E0D0" stroke="#B8B0A0" stroke-width="0.5"/>
<path d="M 571.57,402.38 L 575.28,401.21 L 580.74,405.51 L 587.20,402.85 L 598.17,407.12 L 605.39,404.58 L 617.89,390.94 L 622.21,383.52 L 622.21,479.40 L 619.89,475.89 L 620.60,463.01 L 610.94,462.71 L 609.45,453.48 L 598.48,449.69 L 589.45,443.36 L 589.26,441.67 L 585.93,440.75 L 581.28,430.81 L 581.11,426.64 L 565.70,405.56 L 565.80,400.81 L 571.57,402.38 Z" fill="#E8E0D0" stroke="#B8B0A0" stroke-width="0.5"/>
<path d="M 316.35,3.57 L 319.97,3.33 L 323.77,6.91 L 321.57,16.26 L 323.72,25.44 L 323.17,28.63 L 320.96,30.08 L 322.85,31.78 L 321.85,36.52 L 318.16,38.56 L 316.09,44.12 L 318.03,47.10 L 314.79,50.39 L 309.30,49.66 L 310.65,47.21 L 306.99,41.19 L 300.60,49.07 L 289.59,47.50 L 290.47,45.30 L 285.90,37.11 L 282.03,34.96 L 278.75,37.25 L 277.41,36.31 L 279.05,41.16 L 278.14,46.53 L 269.22,48.47 L 266.43,46.51 L 262.34,48.48 L 258.07,46.52 L 259.38,53.46 L 257.27,58.82 L 259.65,58.06 L 262.84,62.01 L 260.80,65.80 L 266.57,68.82 L 263.88,74.96 L 265.69,76.62 L 260.80,77.89 L 256.19,73.55 L 250.12,77.85 L 247.91,83.34 L 244.53,77.72 L 237.40,72.23 L 237.15,69.06 L 220.68,55.01 L 216.21,49.12 L 218.26,50.44 L 219.28,49.43 L 222.36,53.37 L 226.39,52.09 L 225.96,51.05 L 222.51,51.80 L 220.05,48.35 L 217.30,49.74 L 216.67,47.65 L 216.21,48.95 L 213.81,47.04 L 213.11,43.38 L 206.49,36.14 L 210.90,37.19 L 212.61,40.59 L 212.03,37.28 L 208.81,34.83 L 208.05,36.41 L 206.14,35.19 L 205.34,29.34 L 200.77,23.29 L 200.03,21.35 L 200.83,23.04 L 203.98,26.78 L 206.35,28.32 L 206.70,31.52 L 212.97,29.98 L 210.66,26.84 L 206.84,29.03 L 205.98,27.10 L 207.91,25.19 L 207.94,22.55 L 207.66,24.55 L 204.57,25.46 L 201.07,22.91 L 201.14,20.49 L 197.42,15.53 L 198.32,16.25 L 198.95,15.22 L 196.79,14.28 L 193.56,6.59 L 196.90,11.48 L 198.80,8.89 L 200.66,13.18 L 202.66,6.89 L 207.29,0.76 L 207.33,-0.00 L 315.09,-0.00 L 316.35,3.57 Z M 201.33,8.49 L 200.55,10.61 L 199.26,8.31 L 201.33,8.49 Z" fill="#E8E0D0" stroke="#B8B0A0" stroke-width="0.5"/>
<path d="M 397.03,5.14 L 387.10,16.40 L 380.69,18.28 L 376.43,22.22 L 369.26,36.39 L 362.08,43.14 L 362.78,69.05 L 355.73,82.90 L 347.23,86.12 L 345.55,89.69 L 339.82,92.55 L 331.44,103.46 L 327.88,105.40 L 324.45,104.06 L 321.77,105.09 L 320.65,97.60 L 323.32,94.62 L 321.46,91.14 L 311.52,96.20 L 306.36,95.17 L 306.30,100.50 L 299.11,105.07 L 292.82,98.01 L 290.90,98.81 L 287.37,94.23 L 284.93,93.75 L 281.84,97.60 L 276.51,98.66 L 275.05,102.62 L 272.14,102.28 L 268.03,108.15 L 263.78,102.77 L 263.47,98.01 L 247.91,83.34 L 250.12,77.85 L 256.19,73.55 L 260.80,77.89 L 265.69,76.62 L 263.88,74.96 L 266.57,68.82 L 260.80,65.80 L 262.84,62.01 L 259.65,58.06 L 257.27,58.82 L 259.38,53.46 L 258.07,46.52 L 262.34,48.48 L 266.43,46.51 L 269.22,48.47 L 278.14,46.53 L 279.05,41.16 L 277.41,36.31 L 278.75,37.25 L 282.03,34.96 L 285.90,37.11 L 290.47,45.30 L 289.59,47.50 L 300.60,49.07 L 306.99,41.19 L 310.65,47.21 L 309.30,49.66 L 314.79,50.39 L 318.03,47.10 L 316.09,44.12 L 318.27,38.39 L 321.69,36.83 L 322.85,31.78 L 320.96,30.08 L 323.17,28.63 L 323.72,25.44 L 321.57,16.59 L 323.77,6.91 L 319.97,3.33 L 316.35,3.57 L 315.09,-0.00 L 396.52,-0.00 L 397.03,5.14 Z" fill="#C8D8E8" stroke="#8BAABB" stroke-width="0.8"/>
<path d="M 619.25,274.80 L 614.37,266.28 L 610.18,263.70 L 608.96,258.21 L 605.45,258.80 L 603.74,265.99 L 598.56,268.37 L 591.76,266.05 L 582.02,265.85 L 573.93,261.86 L 571.10,262.95 L 567.72,259.87 L 566.94,249.62 L 553.51,252.63 L 548.53,255.73 L 544.10,254.30 L 546.31,251.55 L 545.82,247.45 L 540.29,246.15 L 540.06,243.31 L 537.53,242.26 L 533.76,245.81 L 525.27,244.27 L 515.34,247.51 L 503.81,246.13 L 497.89,250.88 L 496.27,241.78 L 499.73,239.69 L 499.59,230.69 L 496.14,220.68 L 489.83,214.39 L 487.87,208.64 L 491.29,186.87 L 487.02,176.37 L 489.42,164.28 L 487.71,160.01 L 459.30,160.08 L 461.34,151.59 L 454.78,151.65 L 454.22,153.56 L 436.86,153.56 L 436.66,164.50 L 433.12,166.67 L 433.12,176.47 L 414.26,174.88 L 414.06,176.37 L 405.36,176.94 L 404.86,178.93 L 399.69,177.45 L 393.67,178.69 L 387.28,170.78 L 384.15,163.33 L 378.96,158.21 L 379.58,153.86 L 374.97,146.84 L 373.58,141.26 L 374.04,134.94 L 370.14,128.37 L 311.50,126.98 L 297.99,128.10 L 287.96,126.36 L 285.04,127.52 L 284.06,130.13 L 277.92,131.80 L 278.09,130.19 L 276.73,130.74 L 273.42,126.69 L 273.64,124.58 L 279.26,124.34 L 279.74,111.42 L 277.80,108.96 L 283.07,105.96 L 285.86,101.74 L 291.76,100.00 L 292.27,98.06 L 299.11,105.07 L 306.30,100.50 L 306.36,95.17 L 311.52,96.20 L 321.46,91.14 L 323.32,94.62 L 320.65,97.60 L 321.77,105.09 L 324.45,104.06 L 327.88,105.40 L 331.44,103.46 L 339.82,92.55 L 345.55,89.69 L 347.23,86.12 L 355.73,82.90 L 362.78,69.05 L 362.08,43.14 L 369.26,36.39 L 376.43,22.22 L 380.69,18.28 L 387.10,16.40 L 397.03,5.14 L 396.52,-0.00 L 622.21,-0.00 L 622.21,274.37 L 619.25,274.80 Z M 290.17,127.59 L 284.56,129.24 L 286.43,127.67 L 290.17,127.59 Z" fill="#C8D8E8" stroke="#8BAABB" stroke-width="0.8"/>
<path d="M 617.89,390.94 L 607.51,402.83 L 598.17,407.12 L 587.20,402.85 L 580.74,405.51 L 575.28,401.21 L 567.51,401.89 L 560.80,395.94 L 552.87,393.90 L 542.45,393.61 L 523.60,397.31 L 494.98,372.17 L 492.13,363.02 L 492.10,291.01 L 537.51,291.01 L 534.47,286.16 L 538.19,276.89 L 536.47,271.55 L 536.47,259.75 L 538.88,254.48 L 536.76,242.23 L 540.06,243.31 L 540.29,246.15 L 545.82,247.45 L 546.31,251.55 L 543.91,253.89 L 547.53,255.78 L 553.51,252.63 L 566.94,249.62 L 567.72,259.87 L 571.10,262.95 L 573.93,261.86 L 582.02,265.85 L 591.76,266.05 L 598.56,268.37 L 603.74,265.99 L 605.45,258.80 L 608.96,258.21 L 610.18,263.70 L 614.37,266.28 L 619.25,274.80 L 622.21,274.37 L 622.21,383.52 L 617.89,390.94 Z" fill="#C8D8E8" stroke="#8BAABB" stroke-width="0.8"/>
<path d="M 299.23,470.81 L 294.28,455.69 L 291.13,452.71 L 277.93,426.25 L 268.53,417.11 L 263.25,404.52 L 261.47,395.14 L 262.31,388.73 L 269.80,385.81 L 273.27,387.77 L 280.56,387.99 L 294.03,381.50 L 301.07,382.86 L 302.01,385.41 L 312.33,392.32 L 412.85,391.55 L 417.10,397.24 L 422.66,400.93 L 442.46,403.02 L 455.16,402.21 L 465.72,406.25 L 473.70,403.94 L 478.77,405.86 L 542.45,393.61 L 560.80,395.94 L 565.80,400.81 L 558.92,400.68 L 550.18,406.74 L 545.37,404.52 L 528.73,416.47 L 521.60,405.51 L 469.51,412.85 L 469.73,496.35 L 447.11,497.19 L 447.12,500.00 L 317.95,500.00 L 299.23,470.81 Z" fill="#C8D8E8" stroke="#8BAABB" stroke-width="0.8"/>
<path d="M 285.86,101.74 L 283.07,105.96 L 277.80,108.96 L 279.74,111.42 L 279.26,124.34 L 272.55,125.19 L 271.13,121.85 L 272.97,118.39 L 268.34,108.75 L 270.08,109.53 L 270.90,108.04 L 268.03,108.15 L 272.03,102.38 L 275.05,102.62 L 276.51,98.66 L 281.84,97.60 L 284.93,93.75 L 287.37,94.23 L 291.95,99.34 L 285.86,101.74 Z M 538.88,254.48 L 536.47,259.75 L 536.47,271.55 L 538.19,276.89 L 534.47,286.16 L 537.51,291.01 L 492.10,291.01 L 492.18,363.51 L 495.96,373.40 L 500.05,375.14 L 509.74,386.51 L 523.60,397.31 L 478.77,405.86 L 473.70,403.94 L 465.72,406.25 L 455.16,402.21 L 442.46,403.02 L 422.66,400.93 L 417.10,397.24 L 412.85,391.55 L 312.33,392.32 L 302.01,385.41 L 301.07,382.86 L 294.03,381.50 L 280.56,387.99 L 273.27,387.77 L 269.80,385.81 L 262.38,388.10 L 263.82,370.69 L 261.87,356.44 L 267.64,350.94 L 269.08,342.14 L 271.08,340.66 L 275.26,323.82 L 275.21,316.00 L 277.16,311.11 L 279.11,310.57 L 279.40,300.74 L 289.05,290.58 L 288.93,286.78 L 294.30,281.86 L 299.12,281.14 L 304.67,273.77 L 308.09,263.28 L 309.31,247.76 L 306.73,239.76 L 307.63,237.78 L 302.15,231.56 L 290.21,201.49 L 290.12,200.21 L 292.23,196.87 L 293.36,196.38 L 290.58,201.26 L 295.33,194.16 L 294.74,195.29 L 298.83,193.73 L 298.81,184.38 L 286.92,159.61 L 286.55,151.51 L 280.19,145.10 L 274.34,132.82 L 286.19,131.34 L 294.45,127.32 L 369.28,128.02 L 374.04,134.94 L 373.58,141.26 L 374.97,146.84 L 379.58,153.86 L 378.96,158.21 L 384.15,163.33 L 387.28,170.78 L 393.67,178.69 L 399.69,177.45 L 404.86,178.93 L 405.36,176.94 L 414.06,176.37 L 414.26,174.88 L 433.12,176.47 L 433.12,166.67 L 436.66,164.50 L 436.86,153.56 L 454.22,153.56 L 454.78,151.65 L 461.34,151.59 L 459.30,160.08 L 487.71,160.01 L 489.42,164.28 L 487.02,176.37 L 491.29,186.87 L 487.87,208.64 L 489.83,214.39 L 496.14,220.68 L 499.59,230.69 L 499.73,239.69 L 496.27,241.78 L 497.89,250.88 L 503.81,246.13 L 515.34,247.51 L 525.27,244.27 L 533.76,245.81 L 536.76,242.23 L 538.88,254.48 Z M 261.94,375.88 L 261.12,371.17 L 261.52,371.30 L 261.94,375.88 Z" fill="#4A90D9" stroke="#1a5fa8" stroke-width="1.2"/>
<path d="M 403.02,15.43 L 400.70,11.92 L 401.31,9.70 L 398.38,9.56 L 398.38,7.99 L 405.33,9.09 L 406.31,15.69 L 404.29,15.99 L 404.39,14.72 L 403.02,15.43 Z" fill="#A8C8E8" stroke="none"/>
<path d="M 553.57,481.97 L 552.87,481.57 L 555.47,479.73 L 553.57,481.97 Z" fill="#A8C8E8" stroke="none"/>
<path d="M 228.69,16.14 L 224.83,16.07 L 225.91,16.48 L 223.13,19.00 L 222.18,18.76 L 224.68,16.00 L 222.68,16.00 L 222.51,11.14 L 224.35,13.79 L 225.52,12.70 L 226.31,15.26 L 228.63,14.78 L 228.69,16.14 Z" fill="#A8C8E8" stroke="none"/>
<path d="M 409.32,49.29 L 408.08,54.78 L 406.71,55.25 L 409.64,41.75 L 406.85,39.39 L 406.46,35.07 L 403.77,33.69 L 404.39,31.40 L 407.17,32.97 L 407.61,29.67 L 409.94,31.40 L 414.26,29.20 L 412.87,32.49 L 409.47,33.90 L 409.06,38.10 L 410.85,39.39 L 412.59,38.34 L 412.12,43.14 L 415.73,40.67 L 409.32,49.29 Z" fill="#A8C8E8" stroke="none"/>
<path d="M 603.83,243.01 L 606.13,241.76 L 604.51,240.58 L 604.45,240.19 L 607.53,241.76 L 609.41,240.46 L 605.91,246.01 L 603.83,243.01 Z" fill="#A8C8E8" stroke="none"/>
<path d="M 593.29,191.99 L 588.42,192.78 L 588.11,190.73 L 590.85,188.67 L 594.58,188.39 L 593.29,191.99 Z" fill="#A8C8E8" stroke="none"/>
<path d="M 620.51,387.22 L 617.85,393.57 L 612.79,396.38 L 605.49,405.16 L 607.91,401.75 L 606.90,400.50 L 613.25,394.67 L 611.98,392.70 L 614.30,388.96 L 619.22,383.52 L 620.92,383.98 L 619.69,383.21 L 621.22,380.69 L 622.21,380.53 L 622.21,386.80 L 620.51,387.22 Z" fill="#A8C8E8" stroke="none"/>
</svg>