<svg xmlns="http://www.w3.org/2000/svg" width="800" height="500" viewBox="0 0 800 500">
<rect width="800" height="500" fill="#A8C8E8"/>
<path d="M 240.04,2.13 L 240.08,3.77 L 244.55,4.25 L 247.89,8.20 L 246.89,8.11 L 246.15,6.80 L 245.62,7.71 L 245.17,11.08 L 244.79,10.50 L 243.29,13.59 L 243.28,12.76 L 242.52,13.56 L 242.80,14.38 L 242.47,16.07 L 242.65,16.70 L 242.24,22.19 L 242.28,27.06 L 241.59,28.76 L 239.77,26.19 L 238.99,22.51 L 239.37,20.37 L 239.75,20.55 L 239.82,21.49 L 239.46,22.87 L 239.79,22.71 L 239.97,22.33 L 239.95,20.42 L 240.32,20.14 L 240.47,22.96 L 239.98,24.43 L 240.41,23.99 L 240.55,23.23 L 240.57,20.11 L 241.42,18.71 L 241.96,16.15 L 241.85,14.75 L 241.44,14.68 L 241.34,13.65 L 241.34,15.00 L 240.21,17.34 L 239.95,18.83 L 239.36,17.59 L 238.75,18.23 L 239.18,18.09 L 239.57,19.55 L 238.80,19.77 L 239.08,20.54 L 238.81,20.72 L 238.84,21.98 L 238.57,21.34 L 239.19,24.20 L 238.82,24.27 L 238.30,22.26 L 238.23,22.94 L 237.10,19.20 L 237.87,19.29 L 238.40,21.01 L 238.47,20.33 L 238.23,19.46 L 238.55,19.20 L 237.93,18.56 L 238.05,17.67 L 237.87,14.91 L 238.31,14.19 L 238.44,13.38 L 238.64,14.25 L 238.41,15.49 L 238.69,14.54 L 239.04,15.33 L 239.64,12.66 L 241.16,12.58 L 240.95,11.47 L 239.31,10.89 L 239.07,12.67 L 238.78,11.87 L 239.13,10.77 L 238.73,11.42 L 238.09,10.70 L 237.80,13.34 L 238.18,11.80 L 238.50,12.66 L 237.74,15.13 L 237.88,15.81 L 237.82,17.91 L 237.47,18.49 L 237.39,17.40 L 237.34,18.57 L 236.76,17.02 L 237.24,16.70 L 237.30,15.73 L 236.53,14.55 L 237.26,14.47 L 237.10,13.48 L 237.51,11.33 L 237.77,11.43 L 237.57,10.59 L 237.99,10.62 L 237.34,9.76 L 237.25,10.62 L 237.42,11.50 L 237.18,12.94 L 236.90,11.25 L 236.89,12.45 L 236.41,13.92 L 236.22,13.47 L 236.51,12.40 L 236.25,11.95 L 236.68,10.35 L 236.30,9.68 L 236.53,8.36 L 236.49,6.87 L 236.14,4.54 L 236.56,6.59 L 236.68,5.87 L 237.10,7.04 L 237.32,5.56 L 237.78,5.00 L 237.60,7.24 L 237.79,6.59 L 238.07,7.50 L 238.32,4.89 L 238.04,6.74 L 237.89,4.80 L 238.22,3.33 L 238.81,7.04 L 238.66,8.58 L 237.93,10.00 L 238.84,10.00 L 238.58,9.34 L 238.90,8.26 L 238.96,6.81 L 238.51,3.64 L 238.96,3.23 L 238.96,1.40 L 238.69,0.00 L 239.46,0.00 L 240.04,2.13 Z M 238.78,0.77 L 238.39,2.04 L 237.56,0.00 L 238.51,0.00 L 238.78,0.77 Z M 237.28,0.38 L 237.62,0.55 L 237.79,1.40 L 237.54,0.82 L 237.67,1.95 L 237.32,2.57 L 237.96,2.30 L 237.45,3.37 L 237.28,5.34 L 237.05,0.59 L 236.97,0.00 L 237.24,0.00 L 237.28,0.38 Z M 237.08,6.32 L 236.53,4.67 L 236.34,2.17 L 236.89,4.35 L 236.47,0.88 L 236.75,0.06 L 236.32,0.08 L 236.22,1.35 L 235.97,0.08 L 236.00,0.00 L 236.93,0.00 L 237.08,6.32 Z M 247.41,41.81 L 246.83,40.40 L 246.74,40.48 L 247.25,41.94 L 246.52,42.63 L 245.23,40.98 L 245.27,39.28 L 245.16,40.22 L 245.08,39.24 L 245.04,40.73 L 244.95,39.58 L 244.87,40.83 L 244.64,40.93 L 244.51,39.08 L 244.46,41.14 L 244.24,41.33 L 244.25,40.41 L 243.76,41.19 L 243.90,39.24 L 243.63,41.14 L 243.15,40.41 L 242.76,41.21 L 242.58,40.52 L 243.06,39.79 L 243.44,38.52 L 242.63,40.04 L 242.40,39.54 L 242.72,39.14 L 242.34,39.02 L 242.16,40.39 L 242.33,38.29 L 241.58,39.07 L 241.79,38.43 L 241.65,38.26 L 241.70,37.18 L 241.45,36.99 L 241.31,37.80 L 241.48,38.16 L 241.14,39.22 L 241.12,37.98 L 240.93,38.79 L 240.89,37.83 L 240.79,38.79 L 240.55,37.98 L 240.12,38.79 L 240.04,38.25 L 240.24,37.66 L 240.00,37.71 L 239.98,36.84 L 240.13,36.91 L 240.06,36.10 L 240.73,37.71 L 240.56,36.91 L 240.93,37.36 L 240.33,35.66 L 240.97,36.91 L 241.12,36.46 L 240.86,35.61 L 241.36,36.21 L 241.50,35.83 L 241.26,35.48 L 241.41,35.11 L 242.02,36.91 L 241.90,35.92 L 242.28,36.37 L 242.33,34.67 L 242.67,34.37 L 243.09,34.67 L 242.83,35.83 L 242.75,38.07 L 243.04,38.08 L 242.90,36.70 L 243.14,35.34 L 243.89,37.75 L 243.77,36.72 L 244.15,37.36 L 243.49,35.96 L 243.16,33.83 L 242.57,33.68 L 242.45,32.62 L 242.62,32.80 L 242.37,31.73 L 244.14,35.83 L 244.28,35.07 L 244.00,34.43 L 244.37,33.60 L 244.94,37.49 L 245.02,36.48 L 244.76,33.90 L 245.43,35.94 L 245.50,34.65 L 246.13,36.00 L 245.74,38.38 L 245.83,39.14 L 246.07,37.19 L 246.29,37.79 L 246.32,36.16 L 246.68,36.36 L 244.41,31.73 L 244.05,28.07 L 244.14,26.84 L 245.86,24.00 L 245.88,21.84 L 243.99,23.31 L 243.39,21.23 L 243.51,17.35 L 243.74,16.78 L 243.70,17.87 L 243.90,18.00 L 244.25,16.04 L 243.78,16.09 L 243.82,14.57 L 243.52,14.04 L 244.16,13.70 L 244.64,15.21 L 245.35,12.52 L 245.32,10.95 L 245.74,10.04 L 246.36,13.07 L 247.16,11.30 L 247.49,12.49 L 247.46,40.46 L 247.31,40.31 L 247.46,40.67 L 247.41,41.81 Z M 250.61,55.01 L 250.18,54.17 L 250.31,53.87 L 250.61,55.01 Z M 250.94,55.17 L 250.73,54.70 L 250.80,53.96 L 250.94,55.17 Z M 249.73,55.28 L 249.71,54.51 L 249.33,55.01 L 249.08,54.21 L 250.00,54.01 L 249.73,55.28 Z M 250.69,53.17 L 250.76,53.45 L 250.60,53.71 L 250.69,53.17 Z M 250.12,53.25 L 249.82,52.55 L 249.99,51.83 L 250.18,52.53 L 250.15,51.06 L 250.34,50.81 L 250.31,52.51 L 250.55,53.26 L 250.12,53.25 Z M 249.80,50.94 L 249.47,51.34 L 249.56,49.89 L 249.80,50.94 Z M 245.25,48.36 L 244.89,48.62 L 244.89,47.63 L 245.25,48.36 Z M 244.56,47.00 L 244.43,48.18 L 244.20,47.11 L 244.56,47.00 Z M 251.25,47.66 L 250.95,46.92 L 251.13,46.28 L 251.43,46.83 L 251.25,47.66 Z M 252.19,46.74 L 251.90,46.74 L 252.14,45.42 L 252.39,45.71 L 252.19,46.74 Z M 251.54,44.77 L 250.95,43.42 L 251.06,43.20 L 251.54,44.77 Z M 248.67,52.59 L 248.55,51.08 L 248.24,51.26 L 248.33,50.14 L 247.52,48.62 L 247.55,49.33 L 247.11,48.79 L 247.18,49.72 L 246.97,49.89 L 246.74,48.62 L 247.20,47.63 L 246.73,48.22 L 247.11,45.76 L 246.70,46.76 L 246.39,45.22 L 246.37,46.53 L 246.13,44.95 L 245.69,45.41 L 246.03,45.49 L 246.07,46.30 L 245.60,46.39 L 245.65,47.29 L 246.04,47.46 L 246.00,48.88 L 246.36,49.06 L 246.31,50.01 L 245.91,49.49 L 245.86,48.37 L 245.70,49.71 L 245.51,48.44 L 245.74,47.90 L 244.92,47.29 L 245.40,46.83 L 245.17,46.69 L 245.56,45.58 L 244.78,46.66 L 244.61,46.20 L 244.79,45.49 L 244.38,45.22 L 245.36,43.83 L 245.37,45.31 L 245.49,43.71 L 247.91,42.51 L 248.14,44.11 L 247.55,44.16 L 247.52,45.28 L 246.53,43.88 L 248.42,46.72 L 247.78,47.36 L 247.42,46.65 L 247.23,46.83 L 247.64,47.55 L 247.55,47.99 L 248.56,48.57 L 248.49,49.33 L 248.76,49.41 L 248.66,50.18 L 248.89,51.48 L 248.67,52.59 Z M 249.47,46.39 L 249.12,45.50 L 248.59,46.15 L 248.47,43.01 L 248.09,42.39 L 250.44,42.37 L 250.99,44.52 L 250.51,47.30 L 250.11,46.84 L 250.17,46.12 L 249.99,45.54 L 249.67,46.71 L 249.15,46.48 L 249.47,46.39 Z M 243.52,44.32 L 243.62,45.41 L 243.35,46.03 L 243.25,45.31 L 243.23,46.08 L 243.19,45.13 L 243.30,44.69 L 243.13,43.95 L 242.85,44.90 L 242.82,44.00 L 242.21,43.88 L 242.40,43.17 L 242.19,42.84 L 243.19,42.89 L 243.09,42.54 L 243.67,41.91 L 243.28,43.25 L 242.82,43.47 L 243.76,43.66 L 243.79,44.37 L 243.52,44.32 Z M 244.55,42.68 L 244.79,42.54 L 244.63,41.82 L 245.08,42.63 L 245.05,41.53 L 246.30,42.72 L 244.55,42.68 Z M 243.15,41.96 L 242.78,41.64 L 243.10,41.11 L 243.51,41.28 L 243.15,41.96 Z M 241.60,41.54 L 241.44,42.70 L 241.48,42.02 L 241.33,42.55 L 241.20,41.72 L 241.85,41.11 L 242.42,42.26 L 241.60,41.54 Z M 240.01,40.07 L 239.77,38.66 L 239.94,38.46 L 240.12,39.41 L 240.01,40.07 Z M 238.95,35.83 L 238.80,34.72 L 239.08,34.21 L 239.24,34.57 L 238.95,35.83 Z M 243.81,32.70 L 243.96,33.31 L 243.69,33.71 L 243.29,32.52 L 243.81,32.70 Z M 239.54,32.17 L 239.33,33.53 L 238.89,33.41 L 239.34,31.27 L 239.54,32.17 Z M 237.38,31.91 L 236.72,31.18 L 236.98,30.55 L 237.38,31.91 Z M 240.86,29.57 L 241.19,29.48 L 241.34,31.06 L 241.34,29.93 L 241.47,29.94 L 241.73,32.66 L 241.82,31.36 L 241.88,32.27 L 241.97,31.17 L 242.19,31.49 L 242.08,32.89 L 242.21,32.42 L 242.24,33.71 L 242.10,34.55 L 241.87,34.13 L 241.99,35.16 L 241.76,35.06 L 241.43,34.13 L 241.75,33.24 L 241.31,33.29 L 241.30,31.68 L 241.09,32.08 L 241.02,33.77 L 240.90,33.24 L 241.00,32.62 L 240.77,33.27 L 240.67,32.41 L 240.82,31.27 L 240.86,29.57 Z M 239.72,31.99 L 239.91,31.73 L 239.77,31.01 L 239.54,31.45 L 239.42,29.33 L 239.86,30.03 L 240.12,28.33 L 240.33,29.91 L 240.46,28.90 L 240.77,29.29 L 240.46,30.22 L 240.67,30.06 L 240.51,30.92 L 240.77,31.41 L 240.52,32.39 L 240.11,30.44 L 240.57,33.26 L 240.29,33.95 L 240.38,34.57 L 240.03,34.39 L 240.21,33.24 L 239.72,31.99 Z M 243.44,28.77 L 243.68,30.61 L 243.47,31.03 L 242.96,29.60 L 243.24,33.14 L 242.62,31.73 L 242.49,28.19 L 243.10,28.49 L 242.86,26.35 L 243.25,24.51 L 243.43,25.18 L 243.44,28.77 Z M 236.21,23.83 L 236.25,24.02 L 235.89,24.87 L 235.79,24.06 L 236.21,23.83 Z M 236.65,23.40 L 236.91,24.12 L 236.71,24.66 L 235.99,22.87 L 236.50,23.61 L 236.46,22.23 L 236.91,22.60 L 236.65,23.40 Z M 238.59,30.55 L 238.13,31.99 L 237.76,31.45 L 238.23,31.01 L 238.04,30.70 L 238.31,30.64 L 238.11,29.66 L 238.57,28.41 L 238.22,27.86 L 237.76,28.60 L 237.65,27.80 L 237.55,29.39 L 237.70,30.06 L 237.56,30.74 L 237.09,29.90 L 237.25,28.90 L 237.09,26.88 L 237.23,26.54 L 236.46,27.06 L 236.70,26.34 L 236.41,25.21 L 236.81,24.55 L 237.32,25.89 L 237.88,25.87 L 237.60,25.66 L 237.71,24.83 L 237.20,25.49 L 237.20,24.48 L 236.84,23.45 L 237.61,24.12 L 237.39,22.69 L 237.69,22.23 L 237.77,23.63 L 237.74,22.51 L 237.97,22.77 L 238.04,26.09 L 238.18,24.57 L 238.09,23.10 L 238.37,23.94 L 238.49,25.98 L 238.50,24.20 L 238.97,24.70 L 239.12,25.46 L 238.92,25.99 L 238.99,26.88 L 239.17,26.17 L 239.69,27.61 L 239.44,28.65 L 239.13,28.23 L 239.24,29.07 L 239.07,28.90 L 239.07,29.85 L 239.27,30.70 L 238.85,30.02 L 238.82,31.23 L 238.59,30.55 Z M 235.43,20.46 L 235.02,21.25 L 235.06,20.86 L 235.43,20.46 Z M 236.85,16.65 L 236.66,15.71 L 235.98,16.07 L 236.42,14.87 L 236.81,15.44 L 236.85,16.65 Z M 237.58,21.84 L 236.48,21.34 L 236.68,20.99 L 235.82,17.95 L 235.36,18.57 L 235.00,17.68 L 234.85,18.47 L 233.89,14.01 L 234.06,13.56 L 234.73,15.54 L 234.76,16.52 L 235.39,16.52 L 236.38,19.11 L 236.39,17.98 L 236.63,20.61 L 236.76,18.93 L 237.09,20.31 L 236.96,20.74 L 237.58,21.84 Z M 236.96,13.66 L 236.89,13.65 L 236.95,13.38 L 236.96,13.66 Z M 235.66,13.38 L 235.90,11.95 L 235.60,12.67 L 235.84,11.33 L 235.28,13.37 L 235.15,11.81 L 235.68,10.45 L 235.49,9.76 L 236.17,9.43 L 236.27,10.48 L 235.92,13.29 L 235.66,13.38 Z M 233.74,8.72 L 233.53,6.79 L 234.35,7.36 L 234.24,9.30 L 233.74,8.72 Z M 235.84,9.06 L 235.95,8.57 L 235.35,6.32 L 235.97,7.30 L 236.07,9.10 L 235.84,9.06 Z M 235.01,8.28 L 235.10,7.10 L 235.32,7.39 L 235.06,6.59 L 235.23,6.68 L 234.63,5.83 L 234.92,5.31 L 235.70,8.39 L 235.28,9.34 L 235.01,8.28 Z M 233.79,5.77 L 234.22,4.98 L 234.06,6.28 L 233.80,6.49 L 233.79,5.77 Z M 234.69,5.16 L 234.65,4.71 L 234.76,4.89 L 234.69,5.16 Z M 234.41,4.22 L 233.92,5.25 L 234.35,3.11 L 234.41,4.22 Z M 236.24,7.31 L 235.36,4.28 L 235.35,3.20 L 236.04,4.93 L 236.24,7.31 Z M 233.56,5.62 L 233.81,4.26 L 233.68,4.11 L 233.89,1.98 L 234.23,2.03 L 233.89,4.71 L 233.56,5.62 Z M 233.07,2.77 L 233.12,1.23 L 233.37,0.51 L 233.07,2.77 Z M 234.44,0.33 L 235.34,2.55 L 235.12,3.50 L 234.59,2.12 L 234.44,0.33 Z M 235.91,1.70 L 235.72,0.00 L 235.75,0.00 L 235.89,0.60 L 236.02,0.69 L 235.91,1.70 Z M 233.41,5.68 L 233.45,4.89 L 233.30,5.51 L 233.39,4.62 L 233.17,3.92 L 233.40,3.20 L 233.25,3.11 L 233.43,1.74 L 233.63,2.57 L 233.71,2.03 L 233.54,0.00 L 233.72,0.00 L 233.86,1.32 L 233.41,5.68 Z M 235.52,1.54 L 235.02,0.21 L 235.09,0.00 L 235.59,0.00 L 235.68,0.77 L 235.52,1.54 Z M 237.84,36.05 L 237.88,36.21 L 237.56,36.59 L 237.84,36.05 Z M 243.75,30.93 L 243.78,31.89 L 243.30,31.44 L 243.75,30.93 Z M 243.07,15.15 L 242.69,15.90 L 242.73,15.73 L 243.07,15.15 Z M 234.68,10.93 L 234.78,12.28 L 234.48,11.60 L 234.68,10.93 Z M 234.55,9.30 L 234.48,9.91 L 234.36,8.96 L 234.50,8.19 L 234.55,9.30 Z M 236.18,2.18 L 236.19,4.10 L 235.60,2.04 L 236.18,2.18 Z" fill="#E8E0D0" stroke="#B8B0A0" stroke-width="0.5"/>
<path d="M 246.22,0.06 L 246.26,0.00 L 246.85,0.00 L 248.08,8.14 L 247.92,9.25 L 247.88,8.06 L 244.55,4.25 L 240.08,3.77 L 240.04,2.13 L 239.46,0.00 L 246.23,0.00 L 246.22,0.06 Z M 247.46,41.39 L 247.46,40.67 L 247.63,41.71 L 247.46,41.39 Z M 247.49,12.49 L 248.20,16.05 L 248.39,18.53 L 248.11,17.41 L 247.73,18.77 L 247.66,20.31 L 248.64,21.68 L 248.93,25.04 L 249.87,28.11 L 249.84,29.05 L 251.63,33.51 L 252.26,36.32 L 253.68,38.69 L 255.24,38.69 L 254.76,42.34 L 254.53,41.79 L 254.07,42.93 L 253.41,42.02 L 253.35,42.93 L 252.33,43.97 L 251.04,42.06 L 248.22,40.58 L 247.73,41.37 L 247.46,40.46 L 247.49,12.49 Z M 258.20,39.77 L 257.85,40.88 L 257.82,40.13 L 257.23,41.17 L 257.09,40.39 L 256.39,42.04 L 256.09,41.11 L 256.62,40.45 L 256.57,39.58 L 256.92,40.48 L 256.97,39.46 L 258.20,39.77 Z" fill="#E8E0D0" stroke="#B8B0A0" stroke-width="0.5"/>
<path d="M 407.71,36.00 L 407.45,36.19 L 407.50,35.35 L 407.71,36.00 Z" fill="#E8E0D0" stroke="#B8B0A0" stroke-width="0.5"/>
<path d="M 753.25,36.37 L 752.97,40.04 L 753.01,38.25 L 753.25,36.37 Z" fill="#E8E0D0" stroke="#B8B0A0" stroke-width="0.5"/>
<path d="M 775.99,11.98 L 775.59,11.23 L 775.97,10.27 L 776.11,10.94 L 775.99,11.98 Z" fill="#E8E0D0" stroke="#B8B0A0" stroke-width="0.5"/>
<path d="M 564.03,18.74 L 563.27,19.67 L 562.75,16.96 L 564.03,18.74 Z" fill="#E8E0D0" stroke="#B8B0A0" stroke-width="0.5"/>
<path d="M 339.49,101.21 L 339.70,101.19 L 339.66,101.63 L 339.49,101.21 Z M 339.33,101.65 L 339.10,101.12 L 339.26,101.03 L 339.33,101.65 Z M 340.97,95.59 L 341.11,95.92 L 340.82,96.31 L 340.97,95.59 Z M 341.68,88.95 L 341.20,88.01 L 341.53,87.43 L 341.68,88.95 Z M 341.16,79.87 L 341.08,79.47 L 341.43,79.65 L 341.16,79.87 Z M 340.69,70.05 L 340.78,70.43 L 340.75,70.52 L 340.69,70.05 Z M 339.79,65.56 L 339.54,65.65 L 339.55,65.35 L 339.79,65.56 Z M 338.73,59.90 L 338.83,60.06 L 338.74,60.53 L 338.73,59.90 Z M 317.67,36.44 L 317.74,36.81 L 317.59,36.91 L 317.67,36.44 Z M 315.42,30.09 L 315.50,30.11 L 315.41,30.28 L 315.42,30.09 Z M 320.48,40.22 L 319.76,40.22 L 320.17,41.37 L 319.74,41.79 L 318.89,36.91 L 318.20,36.10 L 318.03,34.64 L 317.44,33.61 L 316.86,33.58 L 317.07,33.24 L 316.87,32.62 L 317.25,32.17 L 316.24,32.52 L 316.32,31.54 L 316.17,31.45 L 316.41,30.74 L 315.48,30.38 L 316.93,30.02 L 316.75,30.64 L 317.51,30.64 L 317.45,31.73 L 317.77,30.92 L 317.74,31.81 L 318.54,31.63 L 318.41,32.52 L 318.91,32.66 L 318.50,33.87 L 318.91,33.31 L 318.89,34.76 L 319.21,34.93 L 319.12,33.41 L 319.42,33.97 L 319.43,35.07 L 319.96,36.71 L 319.84,37.64 L 320.25,37.44 L 320.20,39.21 L 320.48,40.22 Z M 337.40,65.54 L 337.40,65.69 L 337.36,65.82 L 337.40,65.54 Z" fill="#E8E0D0" stroke="#B8B0A0" stroke-width="0.5"/>
<path d="M 267.21,7.72 L 267.13,5.85 L 267.34,6.32 L 267.21,7.72 Z M 263.96,2.35 L 263.74,1.86 L 263.95,1.49 L 263.96,2.35 Z M 264.35,3.37 L 264.10,2.12 L 264.47,1.23 L 264.57,1.72 L 264.37,2.41 L 264.54,2.24 L 264.75,1.03 L 264.74,2.84 L 264.35,3.37 Z M 263.89,0.00 L 263.91,0.00 L 264.01,0.15 L 263.83,0.96 L 263.89,0.00 Z M 266.92,3.60 L 266.05,4.08 L 266.07,5.22 L 265.84,6.23 L 265.44,5.61 L 265.56,6.59 L 265.35,7.24 L 265.14,5.57 L 264.85,5.51 L 265.06,6.42 L 264.90,6.39 L 264.36,4.76 L 265.02,4.26 L 264.79,3.56 L 265.48,4.15 L 265.78,3.06 L 265.52,3.39 L 265.32,3.20 L 265.60,3.04 L 265.68,1.32 L 265.84,1.14 L 265.91,2.30 L 266.00,0.89 L 266.26,1.03 L 266.27,0.33 L 265.91,0.35 L 265.44,1.41 L 265.29,0.00 L 265.91,0.00 L 266.49,0.15 L 266.43,0.00 L 267.68,0.00 L 266.92,3.60 Z M 271.70,0.06 L 270.53,0.96 L 270.79,1.40 L 270.18,2.74 L 269.43,2.73 L 269.02,1.49 L 268.96,2.24 L 269.31,3.52 L 269.71,3.73 L 269.69,5.56 L 268.29,4.02 L 268.72,5.43 L 268.55,6.03 L 268.80,5.92 L 268.67,6.42 L 268.78,6.92 L 267.88,6.00 L 268.14,8.61 L 267.29,5.55 L 267.62,4.89 L 267.49,4.24 L 267.73,3.64 L 267.54,3.11 L 267.80,3.29 L 267.80,2.12 L 268.43,0.33 L 268.76,0.06 L 268.79,1.76 L 268.91,1.59 L 268.91,0.00 L 271.58,0.00 L 271.70,0.06 Z M 267.35,8.11 L 267.24,8.82 L 267.46,8.95 L 267.07,8.82 L 267.35,8.11 Z M 270.16,5.46 L 269.90,4.48 L 270.04,4.05 L 270.19,4.07 L 270.16,5.46 Z M 267.38,3.99 L 267.29,3.84 L 267.34,3.34 L 267.38,3.99 Z" fill="#E8E0D0" stroke="#B8B0A0" stroke-width="0.5"/>
<path d="M 287.19,395.07 L 292.49,394.18 L 294.71,394.61 L 294.97,395.22 L 294.26,395.88 L 294.99,396.55 L 297.16,394.43 L 297.75,396.84 L 297.68,397.47 L 297.89,397.25 L 296.25,400.90 L 296.77,401.75 L 296.63,402.18 L 297.66,402.85 L 298.40,401.40 L 298.84,402.48 L 301.03,400.57 L 301.92,398.80 L 302.19,399.04 L 301.88,400.69 L 302.20,400.71 L 304.09,397.24 L 303.88,396.23 L 304.08,394.12 L 306.80,390.54 L 307.02,388.41 L 307.58,387.00 L 308.79,384.93 L 310.23,384.78 L 313.80,380.73 L 317.27,383.73 L 318.18,382.24 L 319.93,381.53 L 321.74,378.59 L 321.18,377.97 L 321.43,377.54 L 325.61,377.54 L 326.27,376.75 L 325.63,376.01 L 326.82,376.58 L 328.82,375.19 L 332.56,376.04 L 330.40,373.54 L 333.95,372.93 L 333.64,372.32 L 333.86,371.80 L 346.10,370.50 L 349.93,368.43 L 346.08,367.19 L 346.10,365.80 L 345.04,366.67 L 331.84,364.14 L 334.35,360.12 L 332.13,360.05 L 333.46,357.92 L 332.90,357.83 L 333.02,357.43 L 332.80,356.91 L 327.07,359.65 L 323.96,358.27 L 324.11,358.00 L 319.44,354.53 L 319.09,353.25 L 319.01,351.69 L 319.95,346.23 L 320.93,345.38 L 320.84,344.48 L 321.13,344.08 L 321.53,341.39 L 323.33,341.48 L 323.42,341.09 L 322.72,339.34 L 323.73,336.45 L 327.78,332.01 L 329.08,332.33 L 329.56,330.06 L 331.86,328.43 L 332.99,325.61 L 335.87,321.93 L 340.03,319.53 L 342.34,316.44 L 346.19,314.14 L 349.93,312.65 L 352.73,313.59 L 354.08,312.38 L 353.93,311.34 L 354.67,310.43 L 357.24,311.43 L 357.85,310.99 L 357.81,310.05 L 359.44,310.27 L 358.06,307.52 L 358.79,306.19 L 358.87,304.56 L 359.43,304.12 L 360.44,301.35 L 360.08,299.54 L 360.84,298.86 L 360.95,296.04 L 363.12,295.23 L 365.25,296.84 L 366.23,295.92 L 365.96,295.38 L 366.00,294.11 L 367.72,290.90 L 368.08,289.36 L 367.29,288.36 L 365.14,290.55 L 363.30,289.72 L 364.83,288.46 L 363.15,287.13 L 363.24,284.29 L 364.50,282.14 L 364.46,280.97 L 364.67,280.13 L 365.41,279.21 L 366.93,278.73 L 367.91,280.32 L 369.07,279.55 L 368.86,279.04 L 369.12,278.00 L 368.02,274.43 L 370.27,276.03 L 372.05,272.75 L 374.69,270.58 L 374.83,269.40 L 374.65,269.06 L 375.02,267.43 L 374.70,267.37 L 375.48,265.76 L 375.29,265.62 L 375.60,264.87 L 375.90,262.26 L 373.00,260.38 L 372.52,257.96 L 372.56,256.72 L 374.09,255.68 L 373.96,256.36 L 374.11,257.42 L 376.09,259.61 L 376.44,258.95 L 376.15,257.42 L 376.33,256.31 L 377.80,253.63 L 376.78,251.96 L 377.62,250.92 L 377.90,251.35 L 377.83,252.45 L 378.03,253.17 L 379.88,254.77 L 380.03,255.68 L 379.70,257.37 L 380.55,258.25 L 380.38,259.03 L 380.63,259.72 L 380.63,261.27 L 381.31,261.60 L 381.86,259.60 L 382.02,260.66 L 383.10,260.35 L 382.71,258.52 L 383.18,256.44 L 383.19,254.04 L 382.50,251.94 L 382.31,250.42 L 382.42,250.03 L 383.81,249.35 L 385.29,251.08 L 385.71,248.65 L 386.64,247.90 L 387.39,248.59 L 387.63,250.01 L 387.28,252.47 L 386.57,253.62 L 386.45,254.12 L 386.54,254.93 L 386.04,256.13 L 386.33,256.85 L 391.25,256.87 L 391.13,256.19 L 391.25,255.91 L 392.24,258.90 L 392.29,257.79 L 392.58,257.62 L 392.69,255.82 L 393.35,256.79 L 393.35,255.74 L 394.05,255.43 L 395.32,258.41 L 395.62,257.59 L 396.90,257.86 L 397.10,257.33 L 397.09,256.24 L 397.47,255.41 L 398.19,257.00 L 397.88,260.21 L 398.85,262.06 L 400.52,256.64 L 405.60,250.78 L 409.39,249.25 L 411.16,247.34 L 417.04,245.79 L 416.53,243.43 L 416.48,241.92 L 416.62,241.50 L 417.54,241.34 L 417.41,243.80 L 417.62,245.19 L 418.76,245.32 L 419.64,243.64 L 420.30,243.92 L 420.34,242.81 L 419.77,241.45 L 420.65,240.05 L 421.46,242.26 L 421.46,243.50 L 422.18,244.94 L 424.97,248.90 L 426.34,249.22 L 426.85,247.82 L 426.86,246.14 L 427.38,243.86 L 428.98,242.09 L 427.65,239.94 L 428.82,239.63 L 429.65,242.58 L 430.78,243.56 L 433.42,242.82 L 435.17,243.95 L 435.47,241.50 L 436.84,240.74 L 437.00,241.91 L 436.68,244.95 L 440.21,246.10 L 441.11,245.58 L 440.56,243.28 L 442.09,241.26 L 442.87,242.26 L 442.61,242.60 L 442.88,243.83 L 442.03,247.30 L 442.07,248.63 L 442.86,250.96 L 443.48,251.37 L 447.11,249.62 L 447.01,247.51 L 447.13,246.55 L 448.32,241.98 L 450.18,246.07 L 449.96,246.99 L 448.50,247.57 L 449.71,248.09 L 449.62,248.94 L 451.76,249.74 L 452.78,244.28 L 453.58,244.37 L 454.27,246.14 L 454.35,247.04 L 453.92,247.88 L 454.04,248.69 L 455.48,251.36 L 457.74,252.62 L 459.84,251.08 L 460.61,251.94 L 460.71,251.10 L 460.35,250.39 L 461.40,248.70 L 463.23,248.08 L 466.31,243.09 L 469.51,242.12 L 472.77,239.20 L 473.04,238.12 L 472.97,236.22 L 473.30,234.58 L 473.33,232.56 L 473.23,230.67 L 472.19,227.04 L 472.23,224.71 L 473.81,221.67 L 476.22,221.91 L 476.38,223.45 L 474.67,226.66 L 476.36,227.71 L 476.93,226.90 L 478.06,229.36 L 478.22,229.81 L 478.01,231.97 L 478.29,232.98 L 477.95,234.73 L 478.32,235.58 L 481.57,234.20 L 482.30,237.55 L 482.76,236.83 L 482.65,236.18 L 482.85,235.48 L 483.97,234.87 L 483.97,235.86 L 484.98,235.98 L 484.49,237.06 L 485.01,238.36 L 484.93,239.34 L 486.53,241.70 L 486.83,241.04 L 486.26,239.75 L 486.23,238.87 L 487.09,237.62 L 487.21,237.07 L 486.97,236.80 L 487.03,235.46 L 488.40,233.96 L 488.19,233.04 L 488.44,232.85 L 488.31,232.38 L 488.55,231.00 L 488.23,229.98 L 488.48,229.63 L 488.24,226.25 L 488.57,223.75 L 490.05,222.31 L 490.56,222.72 L 491.14,220.71 L 492.32,219.09 L 494.52,217.88 L 494.58,215.85 L 495.17,214.19 L 497.28,213.53 L 497.78,212.52 L 499.56,212.62 L 499.15,211.11 L 499.94,209.42 L 500.90,208.95 L 501.30,209.60 L 501.15,210.29 L 501.30,210.64 L 501.72,209.78 L 501.64,209.13 L 501.82,208.56 L 502.70,208.40 L 503.11,209.61 L 503.12,207.96 L 503.61,207.58 L 502.90,207.18 L 502.91,206.06 L 502.74,205.73 L 502.85,204.24 L 503.29,203.47 L 504.25,203.36 L 504.43,204.40 L 505.42,205.22 L 504.27,206.49 L 504.40,206.91 L 504.29,207.47 L 505.17,207.27 L 504.70,208.09 L 504.88,208.48 L 504.65,209.08 L 505.85,208.50 L 505.13,209.58 L 505.24,209.97 L 505.66,210.11 L 506.47,208.35 L 507.68,209.41 L 507.05,211.48 L 507.22,213.20 L 507.52,213.23 L 508.26,209.40 L 507.96,206.07 L 509.28,204.80 L 509.62,203.65 L 509.58,202.78 L 509.79,202.79 L 509.04,201.85 L 507.72,202.33 L 507.45,201.46 L 507.47,200.09 L 509.37,197.52 L 509.66,199.29 L 509.24,199.89 L 510.85,200.90 L 510.44,203.64 L 511.44,201.38 L 512.54,203.04 L 512.71,202.99 L 512.56,202.20 L 513.07,202.70 L 512.93,202.20 L 513.28,202.07 L 513.23,201.37 L 512.13,200.78 L 512.27,199.81 L 512.10,199.10 L 512.96,196.94 L 511.64,196.53 L 511.54,194.27 L 511.83,191.97 L 512.31,190.80 L 514.12,189.72 L 515.05,187.32 L 519.53,184.81 L 522.63,185.93 L 524.14,188.39 L 525.33,192.87 L 525.44,192.01 L 526.24,192.12 L 527.28,194.41 L 527.29,196.08 L 526.70,196.35 L 525.83,195.72 L 525.70,194.83 L 525.55,195.78 L 524.87,194.44 L 524.43,194.47 L 524.82,196.11 L 525.58,196.54 L 525.29,197.35 L 525.65,197.16 L 525.32,197.69 L 526.02,198.57 L 525.05,198.26 L 525.16,198.69 L 524.79,199.25 L 525.26,200.01 L 523.85,203.32 L 524.79,202.44 L 524.64,204.43 L 524.82,205.22 L 525.69,201.31 L 526.60,200.48 L 527.46,201.03 L 527.35,200.43 L 527.99,199.75 L 529.19,201.16 L 528.99,202.82 L 529.49,201.81 L 530.92,202.20 L 531.32,203.07 L 531.09,203.93 L 530.11,202.88 L 530.40,204.36 L 531.39,205.42 L 531.08,206.24 L 531.70,206.20 L 532.25,207.79 L 532.43,207.63 L 532.24,206.72 L 532.57,206.55 L 532.57,205.06 L 534.37,204.70 L 535.93,206.47 L 535.84,206.94 L 536.10,207.58 L 538.04,207.22 L 539.15,208.49 L 540.25,206.84 L 541.45,206.45 L 543.82,208.40 L 548.28,210.21 L 549.18,209.78 L 551.95,211.56 L 553.57,210.92 L 554.12,209.41 L 554.75,209.84 L 554.74,214.52 L 555.95,219.38 L 554.74,220.61 L 554.61,221.04 L 554.83,221.19 L 554.68,222.31 L 554.83,222.24 L 553.96,223.78 L 555.24,224.31 L 554.01,226.59 L 554.95,228.19 L 554.98,229.84 L 553.91,230.78 L 553.16,230.01 L 552.76,231.06 L 553.11,231.91 L 552.74,233.17 L 554.12,234.03 L 553.07,235.64 L 553.79,236.39 L 553.38,238.35 L 552.38,239.30 L 551.50,235.37 L 551.39,237.05 L 550.92,238.75 L 550.16,239.35 L 549.95,241.66 L 549.37,242.45 L 550.47,242.62 L 550.40,243.54 L 551.06,244.95 L 552.05,244.27 L 552.36,245.19 L 552.64,243.64 L 553.16,243.00 L 553.71,243.16 L 553.91,244.66 L 553.79,248.07 L 553.10,252.55 L 552.33,254.44 L 552.60,254.73 L 551.23,256.70 L 550.74,259.10 L 550.82,260.98 L 550.07,262.48 L 550.25,262.86 L 549.89,263.76 L 550.02,265.04 L 549.47,266.18 L 549.63,266.81 L 549.59,269.40 L 549.08,273.40 L 548.84,277.21 L 547.39,279.89 L 547.91,281.19 L 549.11,280.75 L 548.93,281.71 L 549.38,282.25 L 551.16,280.09 L 551.37,277.55 L 551.02,275.92 L 550.94,274.17 L 551.85,271.75 L 553.52,270.55 L 554.58,271.18 L 554.82,269.08 L 555.45,268.49 L 555.12,267.57 L 555.24,266.68 L 556.73,265.75 L 557.18,264.42 L 556.55,262.91 L 558.40,261.58 L 557.90,260.83 L 557.99,260.18 L 558.98,260.04 L 558.13,258.03 L 558.34,257.14 L 558.23,256.45 L 558.97,255.28 L 558.54,254.45 L 558.98,251.55 L 559.66,250.05 L 559.39,249.13 L 560.00,247.67 L 560.77,247.84 L 561.44,245.13 L 561.90,244.83 L 561.42,241.12 L 561.70,239.93 L 562.73,238.75 L 562.78,237.18 L 563.12,236.38 L 563.79,237.23 L 564.61,235.28 L 565.15,236.50 L 565.12,237.98 L 566.04,236.88 L 566.17,237.84 L 566.53,237.16 L 566.87,238.20 L 567.28,236.55 L 567.64,238.21 L 568.70,236.19 L 568.34,234.09 L 568.49,232.83 L 569.73,231.27 L 569.79,232.18 L 570.23,230.74 L 570.69,230.68 L 571.11,228.74 L 572.98,227.67 L 573.16,226.08 L 573.43,226.01 L 573.22,225.68 L 573.40,225.00 L 573.19,224.93 L 573.30,223.63 L 574.82,222.04 L 574.35,221.41 L 574.54,220.77 L 574.36,219.26 L 574.99,216.35 L 582.35,208.65 L 583.03,209.07 L 583.52,207.75 L 585.81,208.21 L 585.90,207.62 L 585.40,207.00 L 585.30,205.71 L 587.76,201.32 L 588.80,200.87 L 590.26,202.33 L 591.26,200.41 L 592.66,200.71 L 595.48,196.88 L 595.92,196.98 L 596.11,198.05 L 597.19,197.07 L 600.89,197.53 L 602.41,194.37 L 604.36,193.33 L 606.13,195.10 L 606.71,194.17 L 608.05,194.43 L 608.29,194.72 L 608.19,195.34 L 608.31,196.58 L 610.93,193.03 L 611.73,193.71 L 611.88,195.15 L 612.35,196.10 L 613.57,194.27 L 614.69,194.85 L 615.73,193.25 L 617.10,195.69 L 618.33,192.68 L 618.97,192.76 L 618.98,194.96 L 620.15,193.22 L 619.37,195.22 L 619.59,196.33 L 619.35,196.93 L 619.61,198.70 L 620.04,195.89 L 620.38,196.66 L 621.18,194.10 L 621.24,195.60 L 622.84,192.46 L 623.33,193.60 L 623.65,192.80 L 623.27,192.02 L 624.12,191.78 L 625.50,187.59 L 624.82,187.22 L 625.19,186.10 L 627.42,186.19 L 628.25,185.02 L 630.25,186.96 L 630.91,186.55 L 636.32,192.49 L 639.51,194.03 L 639.73,195.09 L 639.34,196.46 L 639.36,197.89 L 640.46,195.01 L 640.66,196.70 L 641.38,197.51 L 641.91,199.51 L 642.50,198.37 L 643.58,198.83 L 645.37,195.39 L 646.10,196.15 L 645.78,193.74 L 646.06,192.12 L 645.53,190.86 L 646.50,187.54 L 651.56,183.77 L 654.29,189.78 L 654.02,191.49 L 654.41,192.25 L 654.05,193.47 L 655.81,193.07 L 657.00,194.85 L 657.29,197.12 L 656.42,199.93 L 653.40,202.37 L 652.55,205.94 L 652.68,206.41 L 654.82,204.36 L 654.63,205.31 L 654.82,205.42 L 656.12,203.96 L 656.02,203.68 L 656.31,202.74 L 657.44,202.82 L 658.29,201.13 L 658.58,201.83 L 659.87,199.20 L 659.74,201.66 L 661.21,200.96 L 661.59,202.12 L 663.17,200.29 L 662.78,201.81 L 663.24,202.28 L 665.17,201.54 L 667.45,199.03 L 667.66,199.59 L 663.85,203.52 L 664.35,205.39 L 670.03,201.09 L 671.53,197.99 L 674.57,196.60 L 675.59,194.51 L 676.13,194.59 L 676.38,195.42 L 676.31,196.20 L 677.15,196.74 L 678.11,195.44 L 678.69,192.28 L 679.87,190.78 L 680.39,192.96 L 680.73,192.96 L 680.83,194.16 L 680.96,191.46 L 681.23,192.61 L 681.90,192.69 L 681.27,195.52 L 681.82,195.85 L 681.51,196.71 L 681.52,197.86 L 682.36,197.91 L 682.22,199.00 L 682.41,199.31 L 682.40,201.65 L 682.63,199.73 L 683.03,198.98 L 683.11,200.76 L 684.61,200.17 L 684.81,201.20 L 685.60,201.78 L 686.14,200.22 L 686.81,202.16 L 687.65,199.35 L 687.54,198.03 L 687.97,196.35 L 687.72,195.85 L 688.27,192.55 L 689.12,190.44 L 690.14,190.24 L 690.46,188.78 L 692.80,190.01 L 694.40,188.80 L 695.17,189.31 L 696.17,187.88 L 697.32,188.21 L 698.73,190.89 L 698.02,193.41 L 698.56,193.62 L 699.48,191.24 L 700.40,191.16 L 700.37,190.24 L 700.66,189.65 L 700.76,188.14 L 701.10,188.33 L 701.44,190.46 L 701.40,191.36 L 702.51,189.90 L 703.43,192.18 L 703.68,193.89 L 703.85,193.06 L 703.64,192.79 L 703.68,192.05 L 703.86,191.38 L 705.46,191.33 L 706.98,193.34 L 706.96,194.97 L 707.51,193.79 L 709.45,194.23 L 710.82,195.86 L 710.72,197.23 L 712.26,196.29 L 713.96,198.07 L 714.62,197.01 L 715.51,197.27 L 716.62,200.22 L 717.38,200.14 L 718.91,197.85 L 719.69,198.83 L 719.73,200.84 L 719.45,201.70 L 720.15,201.00 L 720.26,202.19 L 720.50,200.19 L 721.14,200.08 L 721.47,201.40 L 721.24,202.44 L 720.71,202.12 L 721.14,202.94 L 720.67,205.33 L 720.39,204.41 L 720.19,205.42 L 720.42,207.65 L 719.73,210.07 L 719.65,210.94 L 719.90,210.75 L 719.73,212.06 L 720.35,211.43 L 720.31,212.32 L 720.55,212.33 L 721.04,210.24 L 722.01,209.51 L 722.84,206.61 L 723.21,206.60 L 723.59,209.50 L 723.85,207.62 L 724.55,207.53 L 724.87,208.01 L 724.95,208.85 L 724.69,209.66 L 725.11,210.99 L 725.43,209.42 L 725.62,209.93 L 725.36,212.30 L 726.38,212.11 L 725.69,214.80 L 725.78,215.26 L 726.81,213.43 L 726.79,214.69 L 726.04,216.89 L 726.91,216.76 L 726.80,218.44 L 728.14,217.58 L 728.89,218.98 L 729.43,218.33 L 729.86,219.10 L 730.43,218.19 L 730.79,218.85 L 731.45,218.18 L 731.57,218.94 L 731.98,217.94 L 732.86,219.28 L 733.07,218.98 L 732.63,217.75 L 734.17,218.67 L 735.46,217.40 L 735.81,218.88 L 735.49,222.29 L 735.61,223.07 L 735.92,224.38 L 736.19,223.74 L 736.82,224.89 L 736.83,221.97 L 737.61,221.63 L 738.13,222.54 L 738.95,222.26 L 740.21,224.40 L 740.71,224.14 L 740.85,222.96 L 741.88,222.85 L 741.56,220.05 L 741.92,219.37 L 741.52,217.84 L 741.57,216.84 L 741.95,216.57 L 743.82,219.82 L 743.93,221.04 L 743.22,221.09 L 743.53,222.41 L 743.37,223.42 L 743.99,222.20 L 744.47,224.66 L 745.13,224.58 L 745.30,226.11 L 745.09,226.45 L 745.86,227.73 L 746.13,227.30 L 745.64,225.76 L 746.17,225.28 L 746.67,227.43 L 747.44,228.61 L 749.20,228.08 L 749.83,231.68 L 750.32,230.97 L 750.01,230.54 L 750.07,229.00 L 750.90,228.19 L 752.33,230.55 L 752.93,230.10 L 753.56,232.67 L 753.86,231.56 L 755.05,232.59 L 756.30,236.36 L 756.11,237.38 L 755.02,237.53 L 755.29,238.90 L 755.87,238.62 L 757.24,240.36 L 758.33,245.06 L 758.18,246.53 L 758.36,245.92 L 758.40,247.19 L 758.78,247.98 L 758.47,249.41 L 758.58,250.78 L 759.85,250.86 L 760.76,253.50 L 760.95,252.49 L 760.49,250.18 L 760.08,249.85 L 760.19,247.67 L 760.00,244.75 L 760.21,243.12 L 761.32,242.54 L 762.60,246.69 L 763.22,247.60 L 764.15,247.20 L 764.21,249.23 L 764.47,249.35 L 764.89,247.37 L 764.51,245.97 L 764.98,245.43 L 767.62,246.40 L 768.72,247.95 L 769.71,246.64 L 770.75,247.86 L 769.91,248.28 L 769.93,249.02 L 772.67,249.35 L 773.04,251.08 L 771.42,252.03 L 773.06,252.26 L 773.56,253.49 L 773.04,253.80 L 772.80,255.05 L 774.82,254.46 L 775.03,255.67 L 775.85,256.45 L 776.70,258.80 L 777.73,259.42 L 778.18,260.87 L 778.58,259.17 L 778.24,256.17 L 778.41,255.97 L 779.25,260.96 L 779.59,261.21 L 779.92,262.97 L 779.08,265.22 L 778.52,262.52 L 778.09,264.23 L 778.35,264.48 L 778.21,265.39 L 777.88,265.38 L 777.98,266.22 L 777.81,267.35 L 777.27,268.00 L 777.80,268.88 L 777.52,270.73 L 778.41,269.38 L 778.53,270.75 L 778.35,272.99 L 775.84,271.45 L 774.90,269.81 L 774.04,270.00 L 775.26,272.64 L 776.23,272.66 L 776.60,274.03 L 777.63,274.73 L 776.85,277.68 L 776.85,279.22 L 775.94,279.52 L 776.11,280.66 L 776.03,281.78 L 775.32,281.09 L 775.50,279.37 L 774.92,279.74 L 775.01,279.18 L 774.21,277.81 L 773.99,278.05 L 774.23,279.52 L 774.08,280.33 L 771.49,280.17 L 770.05,277.26 L 770.18,276.63 L 769.65,276.92 L 769.81,278.00 L 770.59,279.02 L 770.46,279.75 L 770.83,281.06 L 770.53,282.47 L 770.62,282.94 L 771.32,281.46 L 773.18,282.85 L 772.50,282.86 L 772.70,284.00 L 771.67,283.46 L 771.61,284.40 L 772.08,284.74 L 771.09,284.24 L 771.28,284.86 L 771.18,285.56 L 770.78,285.88 L 770.55,284.52 L 769.89,285.91 L 769.20,284.46 L 769.37,285.56 L 768.48,285.72 L 769.54,287.64 L 769.21,288.79 L 767.96,288.68 L 768.43,289.56 L 768.12,290.09 L 767.11,289.38 L 767.19,286.09 L 766.74,283.53 L 767.46,282.61 L 766.48,283.23 L 765.61,282.48 L 765.43,282.98 L 766.43,284.48 L 766.46,286.75 L 766.03,288.37 L 766.56,289.80 L 766.38,290.33 L 767.35,291.62 L 765.36,290.48 L 766.26,291.75 L 766.43,292.79 L 766.25,293.12 L 766.36,293.95 L 767.68,297.67 L 767.63,299.43 L 767.06,298.09 L 766.33,298.86 L 765.20,297.77 L 763.74,299.25 L 763.72,297.41 L 763.41,297.18 L 763.46,295.92 L 763.27,295.68 L 762.44,296.69 L 762.82,298.29 L 762.32,300.46 L 762.08,299.11 L 761.81,299.10 L 761.71,300.52 L 761.31,301.01 L 761.30,302.31 L 760.81,302.20 L 761.09,303.53 L 761.75,304.14 L 761.21,305.59 L 761.46,306.45 L 761.32,307.19 L 760.58,307.81 L 759.50,306.73 L 756.85,309.21 L 760.42,309.33 L 760.68,311.18 L 760.07,311.76 L 762.00,315.01 L 761.76,316.11 L 761.20,316.30 L 761.57,317.07 L 761.64,318.28 L 760.88,318.10 L 761.16,318.60 L 760.80,318.34 L 760.67,318.63 L 760.99,318.99 L 760.21,319.96 L 760.73,320.92 L 761.67,320.39 L 761.75,321.03 L 761.56,321.33 L 761.97,323.05 L 760.94,325.66 L 761.87,325.99 L 762.17,327.62 L 760.67,329.73 L 762.58,330.94 L 762.50,331.46 L 763.06,332.67 L 763.41,335.10 L 764.05,335.99 L 764.00,337.26 L 763.34,337.80 L 763.82,338.39 L 763.20,339.09 L 764.99,340.57 L 763.84,341.84 L 765.68,341.97 L 765.63,343.25 L 765.20,343.81 L 765.34,344.54 L 764.09,346.38 L 765.87,347.66 L 766.88,346.73 L 767.19,345.94 L 767.01,345.58 L 767.17,344.95 L 767.77,343.66 L 768.01,345.01 L 767.42,346.01 L 768.24,346.95 L 768.29,348.63 L 771.24,350.06 L 771.62,352.15 L 770.10,352.71 L 769.09,350.81 L 765.35,351.30 L 763.30,353.62 L 762.37,353.03 L 762.00,354.04 L 762.03,354.92 L 761.38,355.75 L 761.01,354.87 L 761.07,353.58 L 760.28,353.33 L 759.47,351.38 L 759.72,350.24 L 759.61,349.69 L 759.01,350.01 L 758.52,351.00 L 759.01,353.20 L 758.94,353.79 L 759.46,354.37 L 759.18,354.78 L 760.15,357.36 L 758.87,356.72 L 758.55,355.35 L 757.79,355.60 L 758.22,355.97 L 758.00,357.25 L 757.10,356.95 L 757.22,357.44 L 756.42,358.66 L 756.71,359.60 L 756.58,360.42 L 757.18,360.91 L 757.03,361.75 L 757.85,362.66 L 756.94,362.34 L 755.87,364.01 L 754.74,363.32 L 755.28,365.10 L 757.42,364.53 L 754.44,367.16 L 755.16,368.54 L 756.29,367.70 L 757.45,368.96 L 758.82,368.23 L 752.85,372.89 L 752.74,373.75 L 751.50,374.99 L 752.42,375.74 L 757.28,374.51 L 757.87,376.01 L 756.79,375.70 L 757.03,376.42 L 755.01,376.96 L 755.28,378.00 L 756.13,378.37 L 758.18,377.84 L 757.80,379.41 L 758.55,379.75 L 754.62,379.53 L 754.44,380.51 L 757.50,381.45 L 756.98,381.70 L 757.57,382.47 L 756.77,382.65 L 757.39,383.84 L 756.76,384.12 L 757.37,385.04 L 756.91,385.08 L 758.09,385.75 L 755.85,385.22 L 756.95,386.69 L 756.45,386.81 L 756.33,387.69 L 757.94,387.58 L 757.43,388.15 L 757.53,388.71 L 758.79,388.09 L 758.93,388.46 L 757.80,389.72 L 761.07,391.55 L 761.18,391.94 L 760.99,392.05 L 761.38,392.40 L 760.53,393.32 L 761.99,393.09 L 762.45,393.96 L 761.36,394.47 L 762.30,394.83 L 762.00,394.96 L 764.26,398.09 L 756.98,401.13 L 757.34,402.03 L 761.17,401.83 L 763.20,402.72 L 762.59,401.48 L 765.94,400.03 L 767.91,402.05 L 767.34,403.17 L 767.50,403.52 L 769.39,404.01 L 770.07,404.78 L 769.84,405.40 L 770.09,405.81 L 771.79,406.27 L 771.89,406.62 L 771.48,407.36 L 772.02,407.68 L 771.35,408.26 L 772.57,409.46 L 773.60,408.15 L 774.65,408.65 L 775.26,410.56 L 773.50,411.06 L 774.52,411.71 L 774.26,412.14 L 771.11,411.26 L 773.41,412.67 L 773.23,412.95 L 773.40,413.35 L 776.41,413.05 L 776.50,413.50 L 776.36,414.17 L 776.59,414.50 L 776.95,413.47 L 778.67,415.07 L 780.43,414.47 L 781.28,415.19 L 779.83,415.63 L 782.13,416.75 L 781.92,417.06 L 782.33,417.25 L 782.03,417.63 L 782.22,418.01 L 784.05,417.37 L 786.05,418.62 L 785.09,419.83 L 785.35,420.12 L 788.83,419.50 L 789.87,420.45 L 789.25,421.15 L 789.56,421.51 L 796.73,423.29 L 796.46,423.74 L 798.57,424.28 L 799.53,425.41 L 799.11,425.77 L 800.00,426.31 L 800.00,500.00 L 0.00,500.00 L 0.00,426.31 L 3.78,425.72 L 5.10,427.17 L 8.75,426.87 L 7.75,427.39 L 9.15,428.85 L 10.56,428.20 L 10.79,427.61 L 10.61,427.45 L 10.72,427.12 L 26.10,430.17 L 26.54,431.77 L 27.91,433.03 L 38.11,433.23 L 46.95,435.75 L 47.85,436.78 L 47.63,436.05 L 48.53,436.91 L 53.31,437.65 L 51.27,437.30 L 54.44,436.40 L 49.70,433.42 L 53.80,433.51 L 53.09,433.26 L 54.25,432.68 L 48.04,432.01 L 48.33,431.72 L 35.86,428.88 L 35.34,427.98 L 37.19,428.12 L 36.31,427.31 L 32.90,427.38 L 30.17,426.54 L 37.78,426.44 L 32.99,423.51 L 33.31,422.45 L 36.22,422.36 L 35.47,421.59 L 35.80,421.23 L 35.57,420.91 L 33.38,419.05 L 27.38,418.71 L 28.46,419.43 L 28.22,419.59 L 26.48,418.83 L 26.69,418.66 L 26.09,418.36 L 27.38,418.37 L 25.92,417.70 L 25.31,416.78 L 25.48,416.14 L 25.37,415.58 L 24.28,415.04 L 24.93,414.87 L 18.35,411.62 L 20.10,412.08 L 13.27,407.55 L 12.51,405.77 L 15.15,407.57 L 16.64,406.96 L 19.09,408.06 L 20.16,409.50 L 20.62,411.23 L 23.11,412.71 L 23.25,412.60 L 22.81,411.85 L 33.14,411.30 L 33.66,411.92 L 33.36,413.30 L 34.09,415.16 L 35.16,415.54 L 35.30,415.27 L 35.19,413.83 L 37.48,412.78 L 39.18,414.19 L 39.42,414.53 L 38.98,414.84 L 39.62,415.51 L 44.29,414.91 L 46.24,415.76 L 46.67,414.62 L 49.88,413.75 L 51.29,411.66 L 47.65,410.39 L 54.24,409.26 L 55.42,406.07 L 61.02,402.76 L 60.23,400.49 L 55.91,394.89 L 58.46,392.31 L 58.19,391.45 L 55.56,388.94 L 50.99,387.15 L 50.79,386.72 L 50.90,386.04 L 52.33,384.50 L 71.94,381.52 L 72.11,381.09 L 70.11,379.72 L 70.21,379.25 L 67.86,378.90 L 69.14,378.65 L 67.90,378.43 L 68.81,378.14 L 68.34,377.90 L 68.47,377.69 L 70.54,377.82 L 67.38,377.21 L 67.77,376.93 L 66.14,376.40 L 65.95,376.23 L 66.48,375.99 L 65.73,375.12 L 64.42,375.12 L 66.74,374.65 L 65.05,373.69 L 65.40,373.50 L 64.88,372.72 L 66.37,371.94 L 65.85,370.49 L 69.26,371.23 L 72.10,370.18 L 69.00,369.16 L 70.68,369.14 L 68.89,367.70 L 71.16,368.70 L 72.99,368.81 L 73.18,368.32 L 71.34,368.22 L 72.03,367.88 L 70.80,367.04 L 71.62,366.64 L 65.67,363.76 L 62.21,360.93 L 62.89,359.75 L 61.30,359.91 L 62.84,357.56 L 60.14,358.68 L 55.62,356.92 L 52.16,352.08 L 52.22,351.17 L 53.14,350.69 L 53.22,349.86 L 56.62,349.08 L 56.48,348.86 L 57.13,348.49 L 57.47,346.66 L 58.19,346.46 L 57.31,346.31 L 56.90,345.19 L 55.29,346.77 L 55.00,346.09 L 55.61,346.11 L 55.46,345.42 L 52.56,346.02 L 51.94,345.28 L 50.67,346.71 L 48.12,343.08 L 47.47,341.44 L 48.63,337.62 L 48.25,337.07 L 48.58,335.95 L 48.16,334.84 L 48.49,333.05 L 48.20,332.09 L 48.40,331.33 L 49.24,331.34 L 51.06,335.05 L 52.30,333.77 L 51.48,332.82 L 52.02,331.83 L 53.63,331.15 L 54.50,332.56 L 55.79,331.72 L 56.88,332.36 L 59.30,334.78 L 57.91,335.79 L 58.08,336.14 L 60.94,336.92 L 60.86,336.09 L 61.16,335.69 L 61.14,334.53 L 61.44,334.32 L 62.01,335.47 L 63.30,335.80 L 63.62,336.25 L 63.41,336.71 L 63.51,337.01 L 66.72,341.02 L 68.34,340.25 L 67.14,338.52 L 69.15,339.59 L 69.61,339.17 L 69.30,337.69 L 71.65,336.39 L 68.77,334.55 L 69.33,333.42 L 68.95,333.33 L 69.40,331.73 L 71.45,333.81 L 71.86,335.89 L 71.75,335.01 L 72.05,335.39 L 73.39,333.45 L 74.72,336.93 L 76.75,337.19 L 76.87,336.62 L 75.66,335.11 L 75.98,334.91 L 75.66,333.41 L 77.23,333.40 L 74.71,330.41 L 77.09,331.13 L 76.46,329.28 L 75.64,328.51 L 76.89,327.49 L 76.75,327.13 L 75.31,326.57 L 74.51,325.05 L 74.69,324.61 L 73.15,322.97 L 70.10,323.92 L 67.31,322.23 L 67.68,321.24 L 69.91,320.30 L 69.58,319.42 L 70.67,318.45 L 74.23,322.01 L 74.46,321.58 L 75.00,322.85 L 76.99,322.99 L 76.58,321.44 L 74.45,318.45 L 75.09,316.21 L 79.51,314.99 L 79.64,314.76 L 79.55,313.64 L 80.06,313.35 L 79.21,312.41 L 82.93,311.60 L 83.25,311.27 L 83.16,310.16 L 83.41,309.90 L 84.75,311.07 L 85.50,314.28 L 87.45,314.80 L 85.94,311.14 L 88.27,309.91 L 89.85,306.20 L 93.91,305.06 L 95.34,306.62 L 97.01,306.59 L 96.82,306.02 L 96.95,305.68 L 95.53,304.40 L 95.86,303.81 L 95.92,301.14 L 97.28,300.37 L 98.44,300.97 L 98.56,300.53 L 98.44,300.07 L 99.07,298.59 L 101.07,299.61 L 100.92,300.83 L 101.39,301.81 L 101.30,302.43 L 102.52,303.33 L 104.91,301.25 L 105.38,302.00 L 106.46,301.18 L 111.17,303.14 L 117.23,300.09 L 119.75,301.16 L 123.63,300.45 L 124.33,301.80 L 129.39,301.48 L 135.85,299.08 L 136.41,298.03 L 135.25,297.79 L 135.61,296.50 L 137.84,294.59 L 138.13,295.63 L 137.83,296.44 L 138.20,296.63 L 138.04,297.35 L 138.25,297.97 L 140.68,298.50 L 142.11,297.71 L 142.04,296.69 L 142.43,296.25 L 142.47,297.17 L 143.00,298.15 L 144.72,297.50 L 144.79,296.24 L 144.29,294.57 L 144.17,292.46 L 144.90,290.42 L 146.20,289.44 L 146.77,290.11 L 146.13,292.24 L 147.53,291.55 L 147.91,292.52 L 147.95,293.50 L 146.78,294.57 L 147.37,295.09 L 147.10,295.69 L 147.23,296.59 L 147.11,297.12 L 148.39,296.47 L 147.51,298.80 L 145.87,300.30 L 147.05,300.52 L 146.73,302.77 L 146.05,304.53 L 146.43,305.17 L 149.07,302.61 L 152.13,301.68 L 152.19,300.88 L 151.75,300.63 L 151.28,298.41 L 152.61,297.43 L 151.69,296.57 L 151.32,294.91 L 152.02,293.47 L 153.79,295.48 L 154.32,294.41 L 155.00,296.08 L 154.57,296.56 L 155.13,296.86 L 155.33,298.38 L 154.85,299.77 L 155.02,300.65 L 154.90,301.42 L 154.05,302.04 L 151.96,306.84 L 152.66,307.41 L 155.85,307.28 L 156.24,306.18 L 163.13,309.21 L 166.35,306.64 L 166.61,305.68 L 167.67,306.37 L 173.87,305.35 L 174.30,306.18 L 174.10,308.25 L 175.23,309.12 L 175.31,309.91 L 179.04,308.23 L 179.97,308.70 L 181.33,307.35 L 180.57,307.20 L 181.26,306.01 L 180.22,306.55 L 179.16,305.74 L 179.28,303.78 L 179.03,303.14 L 176.62,302.85 L 177.96,301.27 L 177.53,300.57 L 177.74,299.62 L 177.53,299.45 L 178.22,298.22 L 177.49,297.40 L 175.72,298.40 L 174.68,297.78 L 174.53,297.43 L 174.72,296.77 L 174.60,296.10 L 174.90,294.81 L 174.61,294.87 L 174.74,293.82 L 174.25,291.22 L 171.45,290.20 L 171.28,289.36 L 171.55,287.53 L 171.16,287.07 L 171.11,286.13 L 174.70,286.88 L 175.19,288.23 L 176.37,288.38 L 178.70,287.40 L 178.95,286.99 L 178.70,286.46 L 178.89,286.24 L 180.41,286.42 L 180.29,285.92 L 178.69,284.99 L 179.10,284.52 L 178.41,284.27 L 178.29,282.92 L 171.39,282.19 L 170.43,280.09 L 170.53,278.26 L 170.16,276.21 L 171.02,274.36 L 173.12,275.19 L 172.91,276.79 L 171.74,278.14 L 173.16,277.89 L 173.42,278.90 L 176.08,277.86 L 177.07,279.07 L 178.10,278.11 L 182.85,278.50 L 182.26,280.38 L 183.51,279.80 L 185.61,282.08 L 187.02,282.50 L 187.23,281.50 L 188.46,280.90 L 190.82,282.25 L 192.06,280.46 L 193.77,280.03 L 195.66,280.58 L 195.90,281.50 L 197.61,282.56 L 198.81,281.83 L 199.64,280.00 L 201.71,279.62 L 201.60,278.66 L 202.10,277.25 L 201.96,276.90 L 201.98,275.10 L 201.28,273.52 L 201.45,273.40 L 204.06,274.68 L 204.20,276.13 L 203.54,277.11 L 203.51,278.45 L 202.86,279.74 L 203.54,281.70 L 205.89,280.38 L 205.87,281.51 L 206.79,283.18 L 209.60,280.49 L 209.82,280.79 L 209.63,281.50 L 209.93,283.20 L 210.89,284.53 L 213.89,285.48 L 213.87,286.46 L 213.60,286.87 L 213.76,287.84 L 215.70,287.44 L 217.47,289.78 L 219.59,287.36 L 219.81,285.93 L 219.27,284.44 L 219.21,282.40 L 219.48,281.41 L 220.42,281.61 L 221.35,283.58 L 221.78,283.42 L 220.78,279.27 L 220.79,278.13 L 221.13,277.56 L 223.01,278.68 L 224.93,282.58 L 225.02,283.57 L 224.75,284.95 L 224.79,286.12 L 227.71,284.27 L 229.16,284.16 L 229.51,285.00 L 229.49,285.89 L 228.35,288.77 L 228.71,289.65 L 229.38,288.48 L 230.50,288.88 L 232.74,286.28 L 234.08,287.77 L 234.94,286.82 L 235.50,287.62 L 236.25,285.86 L 236.50,286.59 L 237.27,285.48 L 237.62,283.97 L 239.15,284.30 L 239.47,283.25 L 242.08,281.65 L 243.79,282.00 L 247.16,279.58 L 249.98,276.01 L 249.99,274.73 L 250.62,272.87 L 250.69,271.14 L 251.66,266.60 L 251.57,264.61 L 250.04,259.74 L 249.73,257.73 L 250.12,255.19 L 249.90,254.78 L 250.09,254.55 L 249.97,253.53 L 250.22,252.99 L 250.20,251.98 L 249.68,250.18 L 249.61,247.37 L 249.00,243.09 L 247.81,239.71 L 248.08,234.89 L 247.06,231.61 L 248.20,231.25 L 248.27,229.65 L 250.24,232.54 L 250.50,231.77 L 250.36,231.13 L 250.55,229.54 L 251.35,229.01 L 251.46,228.27 L 251.21,227.58 L 251.65,226.91 L 251.23,226.63 L 251.46,225.62 L 250.50,225.24 L 250.04,223.91 L 251.20,222.69 L 251.08,220.95 L 250.72,219.78 L 251.42,217.72 L 250.76,216.87 L 251.63,217.02 L 251.94,216.15 L 251.80,215.41 L 251.23,215.84 L 250.64,213.91 L 250.97,213.47 L 250.51,212.52 L 251.44,211.80 L 251.49,211.23 L 251.35,210.70 L 251.63,209.99 L 250.93,210.06 L 251.69,209.41 L 251.18,208.92 L 251.63,207.56 L 252.15,207.83 L 252.20,206.77 L 251.13,206.00 L 249.75,207.02 L 249.96,206.50 L 249.64,206.18 L 250.04,204.17 L 249.88,203.33 L 250.12,202.35 L 249.76,202.21 L 250.05,200.59 L 250.44,201.18 L 250.63,199.53 L 250.85,200.10 L 250.88,198.94 L 251.22,199.08 L 251.36,202.07 L 251.15,203.48 L 251.59,203.94 L 251.76,202.37 L 252.30,204.27 L 252.16,201.37 L 252.35,200.99 L 251.97,200.38 L 252.40,198.34 L 252.11,197.41 L 252.12,195.31 L 252.76,194.44 L 253.78,196.17 L 254.02,195.75 L 254.12,195.35 L 253.85,194.68 L 254.03,194.48 L 254.08,192.49 L 254.33,192.05 L 253.62,190.73 L 254.13,189.63 L 253.99,188.79 L 254.23,188.11 L 255.35,188.79 L 254.85,187.33 L 254.98,186.28 L 255.81,185.90 L 256.48,187.27 L 256.69,186.18 L 256.24,184.75 L 256.29,183.60 L 256.90,184.34 L 257.03,183.13 L 256.71,182.02 L 257.68,182.83 L 257.27,181.00 L 257.60,180.50 L 258.23,181.69 L 258.16,180.93 L 258.48,180.62 L 257.58,179.18 L 257.81,178.61 L 257.53,177.28 L 257.66,177.21 L 257.60,175.94 L 258.06,174.38 L 259.42,174.83 L 259.81,175.95 L 260.02,175.42 L 259.99,174.24 L 259.48,173.33 L 260.29,172.75 L 260.46,171.34 L 260.92,172.62 L 261.32,172.17 L 260.72,170.88 L 261.12,170.28 L 260.95,169.30 L 261.12,168.54 L 261.53,169.30 L 261.40,170.51 L 261.91,170.97 L 261.73,170.36 L 262.29,169.74 L 262.41,168.23 L 262.68,168.34 L 262.65,167.16 L 263.16,169.37 L 263.35,168.75 L 263.10,167.68 L 263.48,167.85 L 263.46,166.80 L 263.15,166.51 L 263.43,165.54 L 263.79,166.38 L 264.24,165.77 L 264.23,164.69 L 264.57,164.41 L 264.53,162.77 L 264.80,162.88 L 264.48,161.58 L 264.95,161.84 L 265.05,160.88 L 265.99,159.63 L 266.73,160.19 L 267.09,157.75 L 267.18,158.91 L 267.94,159.56 L 268.11,156.93 L 269.03,156.42 L 269.11,154.73 L 270.74,153.73 L 270.73,152.60 L 271.04,153.08 L 271.42,151.68 L 272.51,150.53 L 273.27,151.35 L 273.23,153.11 L 273.46,152.88 L 273.35,153.69 L 273.83,155.56 L 273.06,156.22 L 272.94,155.47 L 273.12,154.97 L 273.05,154.25 L 272.34,153.48 L 272.40,155.02 L 271.74,154.92 L 271.63,155.34 L 271.99,155.55 L 270.89,156.35 L 269.55,160.67 L 269.29,163.59 L 268.65,163.70 L 269.43,164.56 L 269.00,165.40 L 269.38,166.37 L 269.30,167.82 L 268.91,167.44 L 268.86,166.35 L 268.15,166.48 L 267.86,164.79 L 267.42,165.84 L 267.45,167.52 L 267.66,167.84 L 267.58,168.41 L 267.18,168.13 L 267.18,166.28 L 266.65,165.93 L 266.65,166.84 L 266.08,168.12 L 265.73,167.58 L 265.86,169.13 L 265.19,169.98 L 264.33,173.92 L 263.60,174.48 L 262.83,173.37 L 262.80,174.93 L 263.21,175.84 L 263.05,176.93 L 262.31,176.28 L 261.78,177.75 L 262.15,178.64 L 262.01,179.04 L 262.07,180.01 L 262.89,180.90 L 262.04,181.56 L 262.02,183.07 L 261.42,184.41 L 261.39,185.73 L 262.17,188.29 L 263.12,188.99 L 263.01,187.27 L 263.76,187.96 L 263.65,185.95 L 263.83,185.69 L 264.38,187.30 L 264.43,185.69 L 265.45,186.29 L 265.11,187.38 L 265.09,188.54 L 264.80,187.42 L 264.39,187.91 L 264.72,189.28 L 264.46,191.29 L 264.12,191.17 L 264.03,189.20 L 263.40,188.32 L 263.35,190.22 L 262.71,189.61 L 262.96,191.95 L 262.78,193.06 L 262.26,190.35 L 262.29,189.42 L 260.74,189.80 L 260.53,190.96 L 261.08,193.07 L 260.69,193.48 L 260.66,194.41 L 261.20,195.23 L 260.79,196.29 L 259.53,190.08 L 258.20,189.30 L 258.42,190.10 L 258.06,190.39 L 258.73,191.94 L 257.99,191.81 L 258.31,192.51 L 257.97,193.39 L 258.23,194.51 L 257.73,194.11 L 257.48,195.22 L 258.33,197.11 L 258.32,198.54 L 257.68,199.05 L 257.09,197.75 L 256.96,198.72 L 256.63,198.64 L 256.61,196.71 L 256.40,196.85 L 256.06,197.87 L 256.20,199.71 L 255.64,198.53 L 255.82,199.40 L 255.63,200.32 L 256.24,201.82 L 255.41,202.52 L 256.11,203.89 L 254.83,205.09 L 254.50,203.32 L 254.53,204.39 L 254.26,203.94 L 254.19,204.69 L 254.44,205.91 L 254.19,206.34 L 254.25,207.11 L 254.81,208.47 L 254.27,209.39 L 254.28,210.90 L 253.99,211.09 L 254.82,212.72 L 253.82,214.17 L 253.87,215.09 L 255.05,215.06 L 255.69,213.22 L 255.58,214.09 L 256.10,214.34 L 254.46,217.07 L 254.59,217.91 L 255.61,218.25 L 254.78,219.89 L 255.01,221.14 L 256.31,221.70 L 256.60,223.02 L 256.95,222.56 L 257.70,223.78 L 257.38,222.68 L 257.78,222.77 L 257.05,221.31 L 257.38,221.40 L 257.21,220.42 L 257.80,219.34 L 260.29,218.42 L 260.17,219.53 L 259.47,218.75 L 258.31,220.51 L 258.19,222.30 L 259.53,223.87 L 258.86,223.54 L 259.10,225.14 L 258.01,225.75 L 259.33,226.70 L 259.03,228.04 L 259.62,228.10 L 260.03,230.85 L 260.57,230.57 L 261.34,232.70 L 261.35,235.20 L 261.05,237.25 L 262.20,240.02 L 262.51,241.74 L 262.19,242.84 L 261.35,241.88 L 261.51,242.64 L 261.25,243.00 L 261.32,244.32 L 261.84,244.53 L 261.90,246.24 L 263.39,245.46 L 263.66,246.35 L 262.93,247.10 L 263.05,247.77 L 262.92,248.25 L 261.93,248.47 L 262.21,249.38 L 262.15,250.81 L 263.77,250.20 L 263.85,251.17 L 263.62,252.28 L 264.05,252.51 L 263.98,253.39 L 264.59,254.45 L 263.83,255.00 L 264.61,256.49 L 264.48,256.86 L 263.52,256.28 L 264.16,257.49 L 263.21,257.91 L 263.24,258.67 L 262.83,259.03 L 262.83,259.96 L 261.97,260.42 L 263.21,261.09 L 264.13,259.03 L 264.56,260.15 L 264.49,260.70 L 264.94,260.91 L 264.89,262.27 L 264.23,261.31 L 264.08,261.45 L 264.38,262.93 L 264.24,263.44 L 261.24,264.07 L 261.97,265.25 L 261.45,266.40 L 261.66,266.89 L 262.95,265.73 L 264.07,267.34 L 264.06,266.00 L 265.12,265.09 L 265.14,266.69 L 264.28,267.62 L 265.14,268.14 L 265.17,269.37 L 264.45,269.77 L 265.24,270.73 L 263.41,270.44 L 263.63,271.20 L 263.40,271.62 L 263.83,271.99 L 263.97,273.45 L 263.51,273.55 L 264.14,275.34 L 264.43,274.08 L 265.44,273.68 L 265.57,275.45 L 264.97,279.14 L 265.44,277.92 L 266.05,278.77 L 266.48,276.54 L 266.78,276.80 L 266.88,278.09 L 266.60,279.75 L 266.72,281.28 L 266.61,281.81 L 265.83,282.37 L 265.34,280.58 L 265.03,283.37 L 264.81,283.19 L 264.72,281.33 L 264.56,282.65 L 264.26,282.71 L 263.93,280.81 L 262.08,279.87 L 263.01,281.46 L 262.22,281.18 L 263.18,282.78 L 262.37,283.03 L 262.92,285.16 L 263.44,284.41 L 264.89,285.71 L 264.12,287.80 L 265.03,287.51 L 264.47,290.64 L 262.91,289.74 L 262.69,290.00 L 263.15,290.83 L 262.53,291.61 L 264.32,292.18 L 264.15,293.36 L 263.55,294.46 L 263.21,293.50 L 262.27,294.41 L 262.54,295.51 L 265.22,294.53 L 264.49,296.72 L 264.65,297.08 L 264.49,297.71 L 263.24,298.32 L 261.41,296.49 L 262.69,300.51 L 262.68,301.39 L 261.93,303.64 L 261.05,304.23 L 260.91,303.63 L 260.92,301.32 L 260.66,300.07 L 259.41,299.94 L 259.35,300.62 L 259.83,303.07 L 258.73,302.59 L 258.65,303.44 L 257.59,304.25 L 259.38,304.47 L 259.91,306.19 L 257.42,307.20 L 256.81,308.41 L 259.81,308.86 L 259.64,309.61 L 252.85,317.46 L 248.66,319.25 L 249.00,320.14 L 245.45,321.58 L 244.04,323.20 L 245.01,323.44 L 244.33,323.83 L 244.85,324.13 L 244.22,324.69 L 244.83,325.33 L 244.23,326.13 L 244.57,326.02 L 244.41,326.37 L 240.65,327.27 L 235.70,325.84 L 236.07,326.70 L 232.87,324.69 L 231.85,324.64 L 232.02,325.25 L 231.53,325.64 L 229.91,324.06 L 229.40,324.87 L 229.54,326.12 L 227.87,323.58 L 228.03,324.43 L 227.76,324.57 L 227.94,325.50 L 227.35,323.68 L 227.76,325.54 L 227.73,326.84 L 229.28,330.44 L 228.89,330.84 L 231.40,334.93 L 232.16,337.43 L 233.15,336.07 L 238.39,337.88 L 238.21,339.49 L 236.74,343.61 L 234.96,345.10 L 235.70,344.88 L 235.43,345.20 L 233.23,346.44 L 232.85,345.30 L 227.37,342.50 L 223.50,341.82 L 220.51,339.11 L 220.76,339.83 L 219.65,341.49 L 218.52,341.35 L 227.97,348.89 L 228.16,351.22 L 227.21,353.02 L 221.57,354.46 L 216.70,349.49 L 213.85,343.00 L 213.71,343.37 L 213.94,345.19 L 214.31,345.73 L 214.24,346.37 L 215.68,349.59 L 215.32,350.01 L 215.02,348.62 L 214.04,347.69 L 213.90,348.87 L 213.59,348.89 L 214.99,353.50 L 218.35,357.32 L 219.14,359.28 L 219.77,359.12 L 219.29,360.36 L 219.63,362.31 L 221.13,364.00 L 221.36,363.10 L 221.01,361.87 L 221.03,360.69 L 221.27,359.84 L 229.93,360.55 L 230.96,362.14 L 231.28,363.54 L 230.89,366.04 L 229.71,368.72 L 227.96,369.69 L 222.92,369.29 L 226.06,371.84 L 230.50,370.57 L 230.55,371.92 L 230.90,373.35 L 231.19,373.10 L 232.41,375.89 L 231.75,377.84 L 233.45,379.56 L 231.62,380.44 L 232.10,381.14 L 233.69,381.51 L 235.32,379.90 L 238.69,382.06 L 238.70,380.37 L 238.97,379.30 L 242.62,377.47 L 243.55,378.23 L 243.56,380.26 L 244.37,381.16 L 244.50,382.25 L 246.28,382.95 L 247.89,382.26 L 248.76,383.06 L 247.95,383.71 L 248.06,384.00 L 255.17,389.25 L 261.75,390.29 L 262.04,390.99 L 257.59,391.55 L 258.05,390.40 L 257.34,391.54 L 256.19,391.67 L 256.64,390.90 L 256.41,390.64 L 254.02,391.83 L 254.17,392.79 L 258.93,392.74 L 258.80,393.38 L 258.94,393.49 L 252.76,394.93 L 254.16,395.44 L 253.46,396.86 L 253.19,398.16 L 253.64,398.80 L 253.16,399.42 L 253.27,399.68 L 255.04,398.96 L 255.39,400.91 L 256.76,400.24 L 256.61,400.54 L 256.80,400.96 L 258.13,399.55 L 259.26,400.06 L 259.58,398.97 L 262.06,399.36 L 265.78,397.83 L 264.18,400.10 L 260.46,402.39 L 261.12,404.51 L 261.03,405.01 L 262.37,408.30 L 261.82,409.10 L 262.59,408.56 L 263.07,409.49 L 263.75,407.23 L 264.12,408.20 L 264.30,407.48 L 264.50,408.73 L 264.19,410.81 L 262.55,413.46 L 264.67,413.72 L 264.19,414.50 L 264.55,414.87 L 267.84,414.66 L 271.78,407.49 L 274.80,404.03 L 275.74,401.83 L 277.28,402.37 L 277.74,400.21 L 280.17,398.30 L 279.33,398.11 L 283.02,397.70 L 287.19,395.07 Z M 772.01,346.67 L 770.99,346.32 L 769.59,347.46 L 769.11,346.91 L 768.86,344.84 L 770.66,346.18 L 772.25,343.32 L 772.59,345.08 L 772.01,346.67 Z M 763.72,302.42 L 763.77,302.86 L 763.61,303.14 L 763.59,302.23 L 763.72,302.42 Z M 764.48,299.09 L 765.12,298.43 L 764.99,299.46 L 764.53,299.52 L 764.68,300.83 L 764.28,301.30 L 764.53,301.74 L 764.36,302.53 L 763.75,300.69 L 764.48,299.09 Z M 763.23,243.45 L 763.48,243.77 L 762.91,244.07 L 763.23,243.45 Z M 766.50,205.50 L 766.39,206.60 L 765.90,206.90 L 765.90,203.28 L 766.50,205.50 Z M 762.65,197.84 L 762.40,196.05 L 762.80,196.18 L 762.87,197.77 L 762.65,197.84 Z M 299.81,117.47 L 299.85,116.77 L 300.00,117.68 L 299.81,117.47 Z M 267.57,372.30 L 267.61,373.24 L 267.21,373.89 L 267.26,374.92 L 267.01,376.41 L 267.85,375.92 L 266.98,377.28 L 266.92,377.94 L 267.41,377.95 L 267.07,379.23 L 265.22,382.04 L 261.06,380.80 L 260.09,379.63 L 259.69,377.24 L 258.24,377.42 L 257.14,379.31 L 251.78,374.89 L 251.54,373.80 L 252.80,372.05 L 252.96,372.36 L 252.88,374.00 L 253.51,374.67 L 262.78,374.32 L 264.03,372.81 L 263.30,372.67 L 262.65,370.26 L 263.92,369.25 L 263.28,368.12 L 266.50,365.02 L 265.59,366.09 L 267.11,366.57 L 266.99,367.13 L 267.43,367.56 L 266.99,367.39 L 266.97,368.25 L 267.50,368.29 L 267.01,368.78 L 267.15,370.27 L 266.75,370.61 L 267.73,370.97 L 268.25,372.25 L 267.57,372.30 Z M 253.80,364.61 L 251.78,365.18 L 254.32,366.61 L 253.55,367.42 L 254.56,368.89 L 252.64,370.57 L 252.40,369.00 L 251.05,368.19 L 251.53,366.80 L 249.24,363.76 L 253.80,364.61 Z M 328.51,365.20 L 327.79,365.25 L 327.55,365.09 L 328.24,363.27 L 329.08,363.94 L 328.43,364.65 L 328.51,365.20 Z M 249.75,359.22 L 251.00,359.92 L 249.98,361.65 L 250.57,362.41 L 250.07,363.07 L 247.62,362.16 L 250.07,360.48 L 247.90,360.69 L 249.75,359.22 Z M 249.77,358.25 L 248.39,358.66 L 249.58,358.10 L 249.77,358.25 Z M 318.39,360.35 L 317.91,358.83 L 318.69,360.06 L 318.53,359.37 L 321.10,357.64 L 324.63,360.54 L 318.39,360.35 Z M 232.21,353.01 L 232.46,353.08 L 232.17,353.93 L 232.19,354.73 L 231.89,354.29 L 232.21,353.01 Z M 246.01,359.30 L 245.19,361.84 L 245.55,361.88 L 244.84,362.45 L 245.57,363.41 L 245.03,363.86 L 245.23,364.34 L 243.68,365.56 L 241.24,364.98 L 240.41,362.72 L 240.89,359.07 L 243.13,354.98 L 249.83,348.27 L 251.13,347.42 L 251.99,348.16 L 251.39,349.00 L 251.70,349.18 L 246.01,359.30 Z M 283.56,371.93 L 285.59,368.55 L 288.30,363.45 L 288.34,362.25 L 288.02,360.78 L 287.25,360.18 L 287.81,358.15 L 287.88,356.51 L 287.64,355.94 L 288.41,354.28 L 287.93,354.02 L 288.29,352.85 L 288.07,352.43 L 290.49,346.04 L 290.86,344.11 L 295.06,340.45 L 297.92,341.03 L 301.08,343.97 L 302.62,346.66 L 302.83,348.57 L 302.40,351.20 L 299.33,352.29 L 299.50,353.01 L 299.18,353.67 L 302.80,353.86 L 303.42,355.88 L 303.44,357.91 L 304.15,358.84 L 303.67,359.59 L 304.29,361.11 L 304.59,363.28 L 304.49,366.73 L 304.14,368.88 L 302.54,369.46 L 303.47,370.94 L 303.26,372.12 L 289.51,378.46 L 289.56,379.53 L 289.34,379.83 L 279.64,380.96 L 279.09,379.17 L 279.16,377.05 L 279.79,376.80 L 281.28,372.03 L 281.32,370.92 L 282.47,371.82 L 283.82,370.53 L 283.29,372.12 L 283.56,371.93 Z M 290.11,341.63 L 291.45,340.08 L 291.67,340.12 L 290.11,341.63 Z M 354.49,297.73 L 353.68,297.26 L 353.38,293.97 L 352.67,292.60 L 351.02,292.60 L 353.01,290.57 L 353.58,287.03 L 354.13,285.84 L 354.41,286.78 L 354.45,288.53 L 354.02,292.55 L 354.74,296.77 L 354.49,297.73 Z M 236.05,282.86 L 236.14,283.00 L 236.03,283.34 L 236.05,282.86 Z M 240.03,281.54 L 239.79,280.97 L 240.04,280.53 L 240.45,281.04 L 240.03,281.54 Z M 236.23,279.46 L 236.62,279.87 L 235.52,283.47 L 235.20,282.19 L 235.83,280.65 L 235.81,279.74 L 236.23,279.46 Z M 167.71,280.45 L 166.79,280.60 L 166.32,278.24 L 166.76,277.42 L 167.71,280.45 Z M 200.95,276.38 L 201.49,277.23 L 200.69,279.35 L 199.51,279.27 L 199.25,278.01 L 199.99,277.87 L 200.24,276.67 L 200.95,276.38 Z M 234.44,276.63 L 235.07,278.05 L 234.43,281.46 L 233.87,282.13 L 234.32,282.30 L 234.33,283.23 L 234.75,284.18 L 234.52,285.78 L 234.24,286.19 L 231.39,282.69 L 230.83,280.24 L 231.43,278.79 L 232.17,279.65 L 233.25,278.68 L 231.61,276.78 L 232.44,275.85 L 234.44,276.63 Z M 191.42,277.23 L 190.83,276.51 L 191.15,275.81 L 191.66,276.72 L 191.42,277.23 Z M 182.35,273.70 L 182.78,274.04 L 182.35,274.58 L 181.93,274.16 L 182.35,273.70 Z M 198.39,277.03 L 197.96,279.49 L 196.65,280.75 L 196.78,277.54 L 197.04,276.83 L 196.25,273.08 L 197.97,272.46 L 198.32,274.22 L 198.00,275.82 L 198.39,277.03 Z M 192.72,272.24 L 193.09,272.43 L 192.81,273.42 L 192.53,272.69 L 192.72,272.24 Z M 264.83,272.75 L 264.51,272.85 L 264.65,272.18 L 264.94,272.46 L 264.83,272.75 Z M 190.22,273.05 L 188.28,273.63 L 189.82,271.24 L 190.22,273.05 Z M 364.22,274.09 L 363.60,274.13 L 363.30,271.90 L 363.69,271.13 L 364.22,274.09 Z M 243.45,268.10 L 243.52,268.23 L 242.99,268.39 L 243.45,268.10 Z M 266.25,267.42 L 266.43,268.05 L 266.26,268.46 L 266.09,267.79 L 266.25,267.42 Z M 372.25,267.30 L 371.68,267.54 L 371.18,265.86 L 371.53,265.13 L 372.25,267.30 Z M 187.94,269.48 L 187.74,270.37 L 186.62,270.82 L 186.45,271.14 L 186.79,271.67 L 186.54,272.74 L 185.08,271.87 L 184.59,272.69 L 183.87,271.74 L 180.93,272.60 L 180.73,272.20 L 181.03,271.18 L 179.12,271.62 L 178.96,271.14 L 179.59,270.02 L 173.41,267.65 L 172.61,265.96 L 173.14,264.78 L 177.48,262.80 L 177.90,263.74 L 176.77,265.10 L 177.90,264.84 L 178.09,265.77 L 178.89,264.22 L 180.70,266.52 L 180.81,266.40 L 180.48,265.15 L 179.66,264.03 L 180.32,262.06 L 181.04,261.95 L 182.26,263.29 L 181.58,264.79 L 181.71,265.71 L 181.44,267.16 L 182.07,266.14 L 182.55,266.65 L 182.33,267.26 L 182.75,266.98 L 182.46,263.96 L 183.10,263.66 L 183.39,263.92 L 183.06,264.48 L 183.63,264.86 L 183.07,266.38 L 183.57,267.84 L 184.47,263.13 L 185.87,262.97 L 186.52,264.00 L 186.36,265.30 L 185.53,265.30 L 185.82,265.87 L 184.44,267.92 L 185.06,268.57 L 187.43,265.74 L 187.57,266.13 L 187.36,266.34 L 187.29,266.47 L 187.77,267.10 L 187.46,267.82 L 186.15,268.18 L 185.74,268.90 L 187.94,269.48 Z M 264.99,252.73 L 264.54,251.78 L 265.36,251.10 L 265.49,252.74 L 264.99,252.73 Z M 230.82,253.87 L 230.21,253.48 L 229.91,251.63 L 230.87,249.96 L 232.89,249.16 L 233.43,246.65 L 234.23,249.39 L 234.51,248.83 L 234.53,246.55 L 235.33,247.62 L 235.26,246.40 L 235.81,246.47 L 236.56,248.37 L 234.67,251.75 L 230.82,253.87 Z M 265.07,248.30 L 264.48,247.13 L 264.51,246.17 L 264.81,245.71 L 265.54,245.78 L 265.70,246.81 L 265.07,248.30 Z M 392.24,245.30 L 393.01,242.95 L 393.70,242.70 L 394.04,244.09 L 393.90,245.70 L 392.38,246.05 L 392.24,245.30 Z M 240.41,242.89 L 241.51,242.92 L 241.03,244.72 L 240.64,244.63 L 240.41,242.89 Z M 242.84,242.17 L 243.04,242.35 L 242.96,243.29 L 242.74,242.99 L 242.84,242.17 Z M 263.80,238.82 L 263.54,238.28 L 263.85,237.09 L 264.21,238.55 L 263.80,238.82 Z M 231.49,239.24 L 231.72,237.60 L 232.82,236.96 L 232.37,236.01 L 233.42,235.33 L 233.96,235.93 L 234.67,238.53 L 234.13,238.92 L 234.25,240.21 L 233.83,241.26 L 232.26,240.77 L 231.49,239.24 Z M 237.85,232.31 L 238.53,231.41 L 240.11,234.89 L 239.96,235.25 L 240.07,235.79 L 239.63,234.90 L 239.54,235.56 L 238.12,233.62 L 237.85,232.31 Z M 262.40,232.99 L 262.50,233.72 L 262.31,235.22 L 262.01,235.50 L 261.78,232.61 L 260.94,228.44 L 261.80,228.41 L 262.77,231.90 L 262.40,232.99 Z M 239.09,273.92 L 238.86,273.47 L 239.04,272.35 L 238.22,272.88 L 237.41,270.75 L 238.50,268.66 L 239.60,269.85 L 242.87,270.30 L 244.19,268.24 L 243.43,266.95 L 241.41,268.88 L 239.88,267.19 L 242.73,264.99 L 242.85,263.89 L 241.35,262.95 L 240.38,263.80 L 240.37,262.50 L 239.25,260.08 L 238.78,261.84 L 238.48,261.73 L 238.42,263.31 L 238.09,264.09 L 235.82,263.35 L 236.66,265.29 L 235.54,267.39 L 234.76,265.70 L 233.74,265.97 L 232.54,264.13 L 232.38,263.49 L 232.44,262.53 L 232.94,261.89 L 232.41,260.70 L 233.30,258.94 L 234.91,260.66 L 234.59,257.96 L 235.06,257.06 L 236.61,259.98 L 237.03,259.08 L 236.31,257.43 L 236.48,256.29 L 238.32,257.35 L 239.58,256.94 L 239.30,255.84 L 237.50,253.95 L 238.25,252.89 L 240.69,254.15 L 241.42,252.98 L 241.46,251.63 L 243.53,251.36 L 243.98,251.92 L 244.45,254.05 L 244.80,254.06 L 244.92,250.16 L 242.89,249.88 L 241.63,247.90 L 242.23,245.10 L 244.18,243.33 L 245.36,244.16 L 243.93,242.09 L 244.01,240.85 L 242.89,240.52 L 242.09,241.95 L 240.48,239.58 L 240.16,238.43 L 240.37,236.41 L 240.20,235.22 L 240.62,234.34 L 240.57,233.37 L 240.85,231.91 L 239.78,230.06 L 239.91,229.84 L 239.56,227.25 L 239.97,225.40 L 243.55,223.19 L 244.23,224.70 L 244.21,225.99 L 244.46,227.20 L 244.23,227.75 L 244.40,228.48 L 244.13,229.07 L 244.20,229.90 L 245.02,229.81 L 245.96,234.14 L 246.03,238.02 L 247.29,243.84 L 248.16,249.46 L 247.82,249.59 L 248.22,250.37 L 248.38,256.53 L 248.28,257.77 L 248.53,259.99 L 248.43,262.79 L 247.82,263.78 L 248.13,265.87 L 247.92,268.27 L 247.19,268.04 L 246.85,269.83 L 246.16,270.69 L 246.35,271.68 L 246.18,272.21 L 243.28,273.83 L 242.95,273.73 L 242.79,272.41 L 242.39,273.62 L 239.09,273.92 Z M 264.40,222.15 L 264.91,221.96 L 265.22,223.05 L 264.40,222.15 Z M 250.66,215.18 L 250.54,214.82 L 250.58,214.66 L 250.81,214.73 L 250.66,215.18 Z M 251.23,210.96 L 251.43,211.26 L 251.33,211.47 L 251.02,211.12 L 251.23,210.96 Z M 250.56,211.54 L 250.46,211.22 L 250.59,210.72 L 250.36,210.56 L 250.93,210.74 L 250.56,211.54 Z M 255.69,207.69 L 256.53,207.97 L 256.21,208.68 L 255.66,208.51 L 255.69,207.69 Z M 249.98,210.18 L 249.39,208.83 L 250.01,207.57 L 250.84,208.26 L 249.98,210.18 Z M 251.11,207.60 L 250.75,207.55 L 251.18,206.63 L 251.53,206.71 L 251.11,207.60 Z M 249.58,204.04 L 249.77,203.98 L 249.63,204.54 L 249.46,204.59 L 249.58,204.04 Z M 249.57,203.59 L 249.31,203.32 L 249.62,202.55 L 249.83,202.68 L 249.57,203.59 Z M 249.84,200.49 L 249.91,201.17 L 249.70,201.73 L 249.84,200.49 Z M 250.01,198.63 L 249.77,198.31 L 250.21,196.44 L 250.58,197.67 L 250.01,198.63 Z M 246.27,207.08 L 246.41,205.50 L 247.03,203.36 L 248.05,197.54 L 249.20,194.99 L 249.65,195.29 L 248.83,199.10 L 249.06,199.84 L 248.92,200.70 L 249.61,201.81 L 248.33,204.70 L 248.97,205.03 L 248.95,205.99 L 248.60,207.35 L 247.97,207.18 L 248.01,208.04 L 247.61,209.59 L 246.89,209.80 L 246.27,207.08 Z M 250.78,191.08 L 251.05,191.29 L 250.99,191.77 L 250.75,191.90 L 250.78,191.08 Z M 250.95,189.90 L 251.38,190.27 L 251.16,190.59 L 250.95,189.90 Z M 251.91,187.72 L 252.10,187.97 L 251.92,188.50 L 252.00,189.55 L 251.36,191.08 L 251.91,187.72 Z M 253.94,186.69 L 253.77,186.73 L 253.82,186.15 L 253.94,186.69 Z M 253.52,185.75 L 253.26,185.85 L 253.40,185.37 L 253.52,185.75 Z M 254.79,184.74 L 255.12,185.32 L 254.99,185.53 L 254.79,184.74 Z M 253.25,183.42 L 253.17,182.45 L 253.42,181.00 L 254.17,180.76 L 254.08,182.40 L 253.53,182.99 L 253.75,184.74 L 253.11,185.32 L 252.91,184.53 L 253.25,183.42 Z M 254.09,180.46 L 253.93,180.11 L 253.95,179.93 L 254.38,179.95 L 254.09,180.46 Z M 267.45,176.65 L 267.02,175.44 L 267.17,174.91 L 267.92,176.83 L 267.45,176.65 Z M 260.03,172.43 L 259.71,172.08 L 259.84,171.71 L 260.17,172.18 L 260.03,172.43 Z M 260.22,171.48 L 259.93,171.26 L 260.10,171.11 L 260.34,171.29 L 260.22,171.48 Z M 259.28,172.04 L 258.68,172.57 L 259.00,171.03 L 259.65,170.19 L 259.28,172.04 Z M 260.66,170.49 L 260.52,169.99 L 260.74,169.47 L 260.81,170.21 L 260.66,170.49 Z M 262.14,169.36 L 262.05,169.23 L 262.07,168.99 L 262.14,169.36 Z M 262.10,167.75 L 262.19,167.95 L 262.02,168.83 L 261.89,168.30 L 262.10,167.75 Z M 272.03,166.18 L 272.08,166.50 L 272.03,166.88 L 271.88,166.61 L 272.03,166.18 Z M 263.23,165.30 L 263.36,165.75 L 263.19,165.90 L 263.05,165.42 L 263.23,165.30 Z M 273.46,165.02 L 273.60,165.11 L 272.85,168.11 L 272.34,167.71 L 272.35,166.63 L 273.46,165.02 Z M 260.38,168.17 L 259.22,170.70 L 258.76,170.29 L 258.87,170.65 L 258.48,171.87 L 257.11,169.87 L 257.33,168.46 L 258.10,167.29 L 257.93,166.73 L 258.54,166.18 L 258.46,165.29 L 258.72,164.19 L 259.66,164.54 L 259.20,166.43 L 259.75,165.93 L 259.46,166.97 L 259.77,166.96 L 259.40,168.32 L 260.21,167.53 L 260.38,168.17 Z M 274.14,163.62 L 274.26,163.80 L 273.56,164.87 L 274.14,163.62 Z M 262.78,162.79 L 262.77,162.22 L 262.91,162.07 L 262.98,162.97 L 262.78,162.79 Z M 260.47,167.05 L 260.92,166.65 L 260.73,165.91 L 261.19,163.82 L 260.84,162.44 L 261.14,161.89 L 260.95,161.42 L 261.52,160.94 L 261.63,162.03 L 262.20,162.58 L 261.75,163.06 L 262.11,163.53 L 261.76,164.66 L 261.85,165.46 L 260.76,167.30 L 260.47,167.05 Z M 262.60,160.21 L 262.70,160.34 L 262.08,161.66 L 262.60,160.21 Z M 271.72,165.87 L 271.88,164.67 L 271.43,164.64 L 271.55,165.71 L 271.44,166.17 L 271.18,165.93 L 271.32,165.14 L 271.19,164.86 L 270.63,165.75 L 270.41,164.93 L 271.08,163.85 L 270.70,163.51 L 270.82,162.07 L 270.09,161.85 L 270.44,159.75 L 271.57,158.01 L 271.65,159.38 L 271.36,160.42 L 271.52,160.79 L 271.41,161.60 L 271.74,161.72 L 271.68,161.12 L 272.24,159.77 L 272.15,161.01 L 272.99,161.84 L 272.44,162.63 L 273.18,162.82 L 272.08,164.48 L 272.68,165.58 L 271.72,165.87 Z M 271.79,158.34 L 273.14,158.64 L 272.79,159.46 L 271.79,158.34 Z M 262.65,157.20 L 263.08,157.65 L 262.92,158.23 L 262.65,157.20 Z M 264.48,158.68 L 264.92,158.58 L 264.89,157.53 L 265.19,157.11 L 264.88,156.37 L 265.44,156.81 L 265.11,158.25 L 265.27,158.89 L 264.84,159.60 L 264.48,158.68 Z M 272.06,156.07 L 272.44,155.88 L 272.30,156.67 L 272.06,156.07 Z M 274.22,154.96 L 274.52,155.07 L 274.12,155.82 L 274.02,155.42 L 274.22,154.96 Z M 267.12,154.91 L 267.16,155.45 L 266.95,155.30 L 267.12,154.91 Z M 275.63,155.27 L 275.02,153.93 L 275.99,153.00 L 276.18,153.89 L 275.63,155.27 Z M 262.20,152.19 L 261.61,152.28 L 261.77,150.78 L 262.33,151.75 L 262.20,152.19 Z M 274.10,149.75 L 274.30,149.81 L 274.24,150.41 L 274.00,150.38 L 274.10,149.75 Z M 277.68,151.38 L 277.39,152.35 L 276.02,151.41 L 274.77,153.42 L 274.32,152.48 L 274.73,150.66 L 275.61,149.60 L 277.42,150.34 L 277.68,151.38 Z M 274.18,148.36 L 274.50,147.38 L 275.48,148.44 L 274.95,150.01 L 274.18,148.36 Z M 265.14,146.72 L 265.43,147.78 L 265.29,147.90 L 265.01,146.91 L 265.29,146.34 L 265.56,147.22 L 265.14,146.72 Z M 260.64,148.85 L 261.07,146.54 L 261.54,146.06 L 260.64,148.85 Z M 263.42,144.26 L 264.00,144.13 L 263.53,145.38 L 263.32,145.25 L 263.42,144.26 Z M 264.01,142.38 L 264.84,142.15 L 264.88,140.75 L 265.58,142.17 L 266.38,140.64 L 266.64,141.49 L 266.49,141.99 L 266.61,142.82 L 267.10,142.61 L 266.02,144.52 L 266.00,143.53 L 265.70,143.98 L 265.95,142.84 L 265.82,142.60 L 264.09,143.29 L 264.01,142.38 Z M 267.11,141.28 L 266.68,140.54 L 267.66,141.18 L 267.11,141.28 Z M 267.92,139.27 L 268.12,139.94 L 267.76,140.60 L 267.35,139.57 L 267.92,139.27 Z M 269.26,138.67 L 268.73,139.19 L 268.40,138.45 L 269.26,138.67 Z M 269.81,137.88 L 269.32,136.86 L 268.87,137.50 L 269.56,134.80 L 270.19,133.77 L 271.84,133.51 L 272.02,134.97 L 270.77,135.40 L 270.84,136.46 L 270.57,137.01 L 270.27,136.02 L 270.49,135.71 L 270.05,135.55 L 269.70,136.96 L 270.07,136.73 L 269.81,137.88 Z M 279.78,125.66 L 279.49,125.11 L 279.87,123.24 L 279.78,125.66 Z M 277.84,122.98 L 278.55,122.98 L 277.66,123.67 L 277.31,125.07 L 276.78,123.09 L 277.84,122.98 Z M 300.63,118.62 L 300.34,117.87 L 301.22,117.72 L 300.63,118.62 Z M 297.92,115.38 L 298.94,115.66 L 299.58,116.80 L 299.69,118.14 L 298.25,116.16 L 297.76,116.53 L 297.92,115.38 Z M 40.94,408.98 L 39.11,410.59 L 37.20,409.72 L 35.97,406.66 L 40.94,408.98 Z M 24.92,411.45 L 22.66,411.06 L 18.00,406.60 L 24.92,411.45 Z M 49.31,396.12 L 48.67,396.86 L 48.81,396.60 L 46.62,392.84 L 49.31,396.12 Z M 36.16,388.85 L 36.32,388.58 L 35.58,387.83 L 35.89,386.72 L 37.81,386.09 L 42.94,388.60 L 43.05,389.04 L 42.92,389.28 L 43.52,390.05 L 36.16,388.85 Z M 56.97,369.91 L 57.09,369.73 L 54.08,367.12 L 58.01,369.79 L 56.97,369.91 Z M 54.26,366.68 L 53.65,366.87 L 53.80,366.51 L 54.26,366.68 Z M 38.37,366.82 L 38.47,367.10 L 36.89,366.68 L 37.69,366.60 L 37.42,366.12 L 38.37,366.82 Z M 333.12,367.64 L 332.77,368.03 L 333.36,369.06 L 332.52,369.74 L 332.29,369.37 L 332.72,369.20 L 332.16,368.24 L 331.82,368.94 L 329.91,368.19 L 329.17,367.52 L 329.51,367.03 L 328.69,367.02 L 329.16,366.31 L 328.53,365.72 L 329.68,364.77 L 330.90,367.04 L 332.83,367.39 L 331.27,365.39 L 331.56,364.95 L 331.90,366.12 L 334.18,368.35 L 333.12,367.64 Z M 45.92,363.36 L 46.77,366.51 L 42.86,367.62 L 36.71,362.85 L 34.83,360.21 L 35.06,360.19 L 34.88,359.34 L 35.16,356.51 L 36.05,355.56 L 35.93,355.25 L 37.24,352.63 L 39.22,353.24 L 45.92,363.36 Z M 68.43,336.33 L 68.42,336.11 L 69.26,336.22 L 68.43,336.33 Z M 68.02,335.35 L 67.40,334.34 L 68.14,334.07 L 69.07,335.39 L 68.02,335.35 Z M 65.89,334.87 L 65.56,335.27 L 63.31,333.90 L 64.48,333.27 L 65.89,334.87 Z M 59.76,333.82 L 58.96,333.12 L 59.74,333.06 L 59.90,333.50 L 59.76,333.82 Z M 72.92,333.11 L 72.48,333.75 L 72.00,332.77 L 72.92,333.11 Z M 776.37,337.18 L 775.27,338.72 L 774.22,339.45 L 772.02,338.77 L 770.39,341.59 L 770.25,341.28 L 770.87,339.66 L 769.90,339.63 L 770.88,339.18 L 769.26,337.35 L 770.39,335.06 L 769.78,333.84 L 770.40,332.50 L 771.05,332.74 L 771.31,333.51 L 771.26,334.49 L 772.37,335.76 L 773.82,335.23 L 776.16,336.30 L 776.37,337.18 Z M 57.15,331.20 L 57.70,332.06 L 57.36,332.38 L 56.53,331.85 L 57.15,331.20 Z M 771.01,329.56 L 771.06,329.88 L 770.79,329.53 L 771.01,329.56 Z M 70.14,330.02 L 69.02,330.73 L 68.36,330.32 L 68.21,329.22 L 70.14,330.02 Z M 65.73,331.54 L 64.89,330.24 L 65.79,328.77 L 67.02,328.77 L 68.39,331.91 L 65.73,331.54 Z M 74.70,328.94 L 73.26,330.44 L 73.04,328.82 L 73.17,328.07 L 75.00,328.81 L 75.19,329.47 L 74.70,328.94 Z M 69.05,328.41 L 67.80,327.32 L 68.20,326.64 L 70.42,327.31 L 69.05,328.41 Z M 65.33,327.71 L 64.72,326.98 L 66.21,326.28 L 66.49,326.95 L 65.33,327.71 Z M 69.01,326.26 L 68.56,325.63 L 70.07,326.15 L 69.01,326.26 Z M 71.13,325.13 L 71.10,324.80 L 72.09,325.97 L 71.13,325.13 Z M 73.91,325.67 L 73.19,325.51 L 73.69,326.47 L 73.44,326.67 L 72.52,325.37 L 72.80,323.91 L 73.91,325.67 Z M 72.57,318.13 L 73.54,318.71 L 74.09,320.91 L 73.20,320.54 L 72.31,318.59 L 72.57,318.13 Z M 762.17,311.64 L 761.81,313.32 L 761.28,312.92 L 762.17,311.64 Z M 77.33,313.22 L 76.93,313.64 L 75.20,311.70 L 75.84,310.85 L 77.33,313.22 Z M 761.27,309.79 L 761.37,310.26 L 761.19,310.59 L 761.08,310.24 L 761.27,309.79 Z M 105.91,296.50 L 105.48,297.73 L 104.67,296.78 L 105.91,296.50 Z M 108.69,299.04 L 108.43,299.14 L 107.01,298.45 L 106.26,296.75 L 107.37,295.40 L 109.07,297.02 L 108.69,299.04 Z M 117.30,298.90 L 116.55,299.62 L 115.36,297.60 L 115.14,295.35 L 117.49,297.35 L 117.30,298.90 Z M 139.37,296.14 L 139.12,296.00 L 140.07,295.03 L 139.37,296.14 Z M 106.28,293.48 L 106.00,292.98 L 106.26,292.91 L 106.40,293.17 L 106.28,293.48 Z M 140.78,292.08 L 141.14,292.28 L 140.89,293.07 L 139.56,293.83 L 139.11,292.95 L 141.33,289.49 L 141.91,289.95 L 140.78,292.08 Z M 133.49,292.32 L 134.14,291.24 L 133.65,289.61 L 133.85,289.28 L 133.55,288.94 L 135.28,288.36 L 135.84,289.73 L 135.06,291.80 L 133.49,292.32 Z M 132.72,291.26 L 131.05,293.25 L 130.95,294.82 L 131.24,295.25 L 130.89,295.76 L 128.35,296.61 L 126.88,295.62 L 126.60,294.46 L 127.27,294.04 L 126.79,292.98 L 127.25,291.22 L 128.16,290.12 L 125.89,289.12 L 126.40,287.08 L 128.28,287.07 L 132.13,288.00 L 132.49,289.02 L 131.70,289.65 L 132.75,290.28 L 132.72,291.26 Z M 777.04,286.41 L 776.58,285.41 L 777.23,282.35 L 777.69,284.88 L 777.04,286.41 Z M 116.86,285.03 L 116.68,283.78 L 117.45,281.79 L 119.77,282.04 L 120.89,283.77 L 120.88,284.92 L 121.75,286.52 L 121.62,287.29 L 120.27,287.37 L 120.30,288.36 L 121.64,288.51 L 122.24,289.68 L 122.44,288.55 L 123.26,287.67 L 124.38,289.33 L 123.98,290.36 L 124.99,292.17 L 124.67,293.55 L 124.87,294.03 L 124.60,294.64 L 122.70,294.17 L 118.94,289.16 L 119.10,288.33 L 118.79,286.92 L 118.06,286.61 L 117.77,287.83 L 117.22,287.68 L 117.41,286.04 L 116.73,285.34 L 116.86,285.03 Z M 553.03,267.65 L 552.91,268.25 L 551.99,269.00 L 552.55,266.55 L 553.03,267.65 Z M 555.08,265.85 L 554.85,264.80 L 555.05,263.77 L 555.39,263.93 L 555.08,265.85 Z M 392.94,253.51 L 393.46,255.01 L 392.83,255.06 L 392.41,253.77 L 392.42,252.94 L 392.94,253.51 Z M 395.38,249.80 L 394.88,252.29 L 393.78,254.26 L 393.64,252.77 L 394.07,251.99 L 392.03,248.66 L 392.93,247.74 L 394.43,248.57 L 393.96,249.73 L 395.38,249.80 Z M 404.59,246.87 L 404.77,247.51 L 404.56,247.81 L 404.34,246.91 L 404.59,246.87 Z M 386.74,245.53 L 386.92,246.19 L 386.33,247.05 L 385.66,244.82 L 386.80,244.54 L 386.74,245.53 Z M 407.23,245.38 L 406.81,246.77 L 405.96,247.15 L 405.74,245.87 L 407.16,244.15 L 407.23,245.38 Z M 559.53,246.96 L 559.16,243.65 L 559.57,242.49 L 559.75,244.41 L 560.45,246.09 L 560.45,246.95 L 559.53,246.96 Z M 409.93,242.22 L 410.27,243.63 L 410.10,245.19 L 409.63,245.61 L 409.00,242.98 L 409.93,242.22 Z M 412.57,241.97 L 412.95,242.99 L 412.54,243.33 L 412.15,242.36 L 412.57,241.97 Z M 759.71,241.86 L 759.82,242.17 L 759.68,242.43 L 759.71,241.86 Z M 414.34,240.81 L 414.53,241.73 L 414.29,241.82 L 413.94,240.63 L 414.34,240.81 Z M 459.73,243.19 L 459.60,244.56 L 457.91,244.13 L 457.58,242.74 L 458.51,239.89 L 459.22,240.24 L 459.73,243.19 Z M 403.26,240.99 L 402.66,244.33 L 402.13,241.53 L 402.18,239.88 L 403.14,239.55 L 403.26,240.99 Z M 424.03,240.02 L 423.42,239.18 L 424.21,239.26 L 424.42,239.63 L 424.03,240.02 Z M 561.62,239.32 L 560.92,240.00 L 561.42,238.63 L 561.62,239.32 Z M 436.97,235.67 L 436.20,237.07 L 435.94,239.98 L 434.57,237.36 L 434.94,235.95 L 436.97,235.67 Z M 506.50,207.53 L 505.36,207.99 L 505.69,206.68 L 505.80,206.72 L 505.54,207.35 L 506.50,207.53 Z M 668.25,198.71 L 668.59,198.40 L 667.73,199.23 L 668.25,198.71 Z M 669.32,197.09 L 668.63,197.88 L 669.00,197.12 L 669.32,197.09 Z M 590.98,198.44 L 590.25,199.70 L 590.31,199.09 L 589.72,198.28 L 589.46,196.83 L 590.35,196.53 L 590.98,198.44 Z M 508.36,197.05 L 507.29,196.84 L 507.50,195.95 L 508.39,196.23 L 508.36,197.05 Z M 592.61,196.22 L 592.01,197.22 L 591.62,196.36 L 592.61,196.22 Z M 589.65,194.72 L 589.01,194.74 L 589.13,193.62 L 589.65,194.72 Z M 619.36,191.58 L 619.90,192.29 L 619.54,193.19 L 619.09,191.89 L 619.36,191.58 Z M 616.43,192.45 L 615.58,191.80 L 615.93,191.08 L 616.43,192.45 Z M 761.21,193.81 L 760.64,192.02 L 760.78,191.53 L 760.66,190.16 L 761.39,192.87 L 761.21,193.81 Z M 622.79,189.74 L 622.37,189.50 L 622.68,188.33 L 622.90,188.53 L 622.79,189.74 Z M 615.62,188.66 L 615.35,189.59 L 613.99,189.23 L 614.37,187.49 L 615.37,187.54 L 615.62,188.66 Z M 624.50,184.39 L 624.23,185.24 L 623.11,184.93 L 623.99,183.92 L 624.50,184.39 Z M 605.93,184.02 L 605.41,184.54 L 604.97,183.58 L 605.55,182.96 L 605.93,184.02 Z M 624.73,179.16 L 625.03,180.83 L 624.37,182.69 L 622.88,182.38 L 622.90,180.78 L 623.48,179.04 L 624.73,179.16 Z M 629.81,179.64 L 629.27,179.79 L 629.12,177.76 L 628.34,176.11 L 629.10,176.05 L 629.81,179.64 Z M 198.64,222.43 L 198.86,222.75 L 198.86,223.49 L 198.65,223.60 L 198.64,222.43 Z" fill="#4A90D9" stroke="#1a5fa8" stroke-width="1.2"/>
</svg>