<svg xmlns="http://www.w3.org/2000/svg" width="800" height="500" viewBox="0 0 800 500">
<rect width="800" height="500" fill="#A8C8E8"/>
<path d="M 240.04,121.37 L 240.08,122.23 L 244.55,122.47 L 247.89,124.53 L 246.89,124.48 L 246.15,123.80 L 245.62,124.27 L 245.17,126.02 L 244.79,125.72 L 243.29,127.32 L 243.28,126.89 L 242.52,127.31 L 242.80,127.73 L 242.47,128.61 L 242.65,128.94 L 242.24,131.79 L 242.28,134.32 L 241.59,135.20 L 239.77,133.86 L 238.99,131.95 L 239.37,130.84 L 239.75,130.93 L 239.82,131.42 L 239.46,132.14 L 239.79,132.06 L 239.97,131.86 L 239.95,130.87 L 240.32,130.72 L 240.47,132.18 L 239.98,132.95 L 240.41,132.72 L 240.55,132.33 L 240.57,130.71 L 241.42,129.98 L 241.96,128.65 L 241.85,127.93 L 241.44,127.89 L 241.34,127.36 L 241.34,128.06 L 240.21,129.27 L 239.95,130.05 L 239.36,129.40 L 238.75,129.73 L 239.18,129.66 L 239.57,130.42 L 238.80,130.53 L 239.08,130.93 L 238.81,131.02 L 238.84,131.68 L 238.57,131.35 L 239.19,132.83 L 238.82,132.87 L 238.30,131.82 L 238.23,132.18 L 237.10,130.23 L 237.87,130.28 L 238.40,131.18 L 238.47,130.82 L 238.23,130.37 L 238.55,130.23 L 237.93,129.91 L 238.05,129.44 L 237.87,128.01 L 238.31,127.64 L 238.44,127.22 L 238.64,127.67 L 238.41,128.31 L 238.69,127.81 L 239.04,128.22 L 239.64,126.84 L 241.16,126.80 L 240.95,126.23 L 239.31,125.92 L 239.07,126.85 L 238.78,126.43 L 239.13,125.86 L 238.73,126.20 L 238.09,125.83 L 237.80,127.19 L 238.18,126.40 L 238.50,126.84 L 237.74,128.12 L 237.88,128.47 L 237.82,129.57 L 237.47,129.87 L 237.39,129.30 L 237.34,129.91 L 236.76,129.10 L 237.24,128.94 L 237.30,128.44 L 236.53,127.82 L 237.26,127.78 L 237.10,127.27 L 237.51,126.15 L 237.77,126.20 L 237.57,125.77 L 237.99,125.78 L 237.34,125.34 L 237.25,125.78 L 237.42,126.24 L 237.18,126.99 L 236.90,126.11 L 236.89,126.73 L 236.41,127.50 L 236.22,127.26 L 236.51,126.70 L 236.25,126.47 L 236.68,125.64 L 236.30,125.30 L 236.53,124.61 L 236.49,123.84 L 236.14,122.63 L 236.56,123.69 L 236.68,123.32 L 237.10,123.93 L 237.32,123.16 L 237.78,122.86 L 237.60,124.03 L 237.79,123.69 L 238.07,124.16 L 238.32,122.81 L 238.04,123.77 L 237.89,122.76 L 238.22,122.00 L 238.81,123.93 L 238.66,124.72 L 237.93,125.46 L 238.84,125.46 L 238.58,125.12 L 238.90,124.56 L 238.96,123.81 L 238.51,122.16 L 238.96,121.95 L 238.96,121.00 L 238.69,120.27 L 239.46,120.27 L 240.04,121.37 Z M 238.78,120.67 L 238.39,121.33 L 237.56,120.27 L 238.51,120.27 L 238.78,120.67 Z M 237.28,120.47 L 237.62,120.56 L 237.79,121.00 L 237.54,120.70 L 237.67,121.28 L 237.32,121.61 L 237.96,121.47 L 237.45,122.02 L 237.28,123.04 L 237.05,120.58 L 236.97,120.27 L 237.24,120.27 L 237.28,120.47 Z M 237.08,123.55 L 236.53,122.70 L 236.34,121.40 L 236.89,122.53 L 236.47,120.73 L 236.75,120.30 L 236.32,120.32 L 236.22,120.97 L 235.97,120.32 L 236.00,120.27 L 236.93,120.27 L 237.08,123.55 Z M 247.41,141.97 L 246.83,141.24 L 246.74,141.28 L 247.25,142.03 L 246.52,142.39 L 245.23,141.54 L 245.27,140.65 L 245.16,141.15 L 245.08,140.63 L 245.04,141.41 L 244.95,140.81 L 244.87,141.46 L 244.64,141.51 L 244.51,140.55 L 244.46,141.62 L 244.24,141.72 L 244.25,141.24 L 243.76,141.64 L 243.90,140.63 L 243.63,141.62 L 243.15,141.24 L 242.76,141.66 L 242.58,141.30 L 243.06,140.92 L 243.44,140.26 L 242.63,141.05 L 242.40,140.79 L 242.72,140.58 L 242.34,140.52 L 242.16,141.23 L 242.33,140.14 L 241.58,140.55 L 241.79,140.21 L 241.65,140.12 L 241.70,139.56 L 241.45,139.47 L 241.31,139.89 L 241.48,140.07 L 241.14,140.62 L 241.12,139.98 L 240.93,140.40 L 240.89,139.90 L 240.79,140.40 L 240.55,139.98 L 240.12,140.40 L 240.04,140.12 L 240.24,139.81 L 240.00,139.84 L 239.98,139.39 L 240.13,139.43 L 240.06,139.00 L 240.73,139.84 L 240.56,139.43 L 240.93,139.66 L 240.33,138.77 L 240.97,139.43 L 241.12,139.19 L 240.86,138.75 L 241.36,139.06 L 241.50,138.86 L 241.26,138.68 L 241.41,138.49 L 242.02,139.43 L 241.90,138.91 L 242.28,139.14 L 242.33,138.26 L 242.67,138.11 L 243.09,138.26 L 242.83,138.86 L 242.75,140.03 L 243.04,140.03 L 242.90,139.32 L 243.14,138.61 L 243.89,139.86 L 243.77,139.33 L 244.15,139.66 L 243.49,138.93 L 243.16,137.83 L 242.57,137.75 L 242.45,137.20 L 242.62,137.29 L 242.37,136.74 L 244.14,138.86 L 244.28,138.47 L 244.00,138.14 L 244.37,137.71 L 244.94,139.72 L 245.02,139.20 L 244.76,137.87 L 245.43,138.92 L 245.50,138.25 L 246.13,138.96 L 245.74,140.19 L 245.83,140.58 L 246.07,139.57 L 246.29,139.88 L 246.32,139.03 L 246.68,139.14 L 244.41,136.74 L 244.05,134.84 L 244.14,134.20 L 245.86,132.73 L 245.88,131.60 L 243.99,132.37 L 243.39,131.29 L 243.51,129.28 L 243.74,128.98 L 243.70,129.54 L 243.90,129.61 L 244.25,128.59 L 243.78,128.62 L 243.82,127.83 L 243.52,127.56 L 244.16,127.38 L 244.64,128.17 L 245.35,126.77 L 245.32,125.95 L 245.74,125.48 L 246.36,127.05 L 247.16,126.14 L 247.49,126.76 L 247.46,141.27 L 247.31,141.19 L 247.46,141.38 L 247.41,141.97 Z M 250.61,148.82 L 250.18,148.38 L 250.31,148.23 L 250.61,148.82 Z M 250.94,148.90 L 250.73,148.65 L 250.80,148.27 L 250.94,148.90 Z M 249.73,148.96 L 249.71,148.56 L 249.33,148.82 L 249.08,148.40 L 250.00,148.30 L 249.73,148.96 Z M 250.69,147.86 L 250.76,148.01 L 250.60,148.14 L 250.69,147.86 Z M 250.12,147.90 L 249.82,147.54 L 249.99,147.17 L 250.18,147.53 L 250.15,146.77 L 250.34,146.64 L 250.31,147.52 L 250.55,147.91 L 250.12,147.90 Z M 249.80,146.71 L 249.47,146.92 L 249.56,146.16 L 249.80,146.71 Z M 245.25,145.37 L 244.89,145.50 L 244.89,144.99 L 245.25,145.37 Z M 244.56,144.66 L 244.43,145.27 L 244.20,144.72 L 244.56,144.66 Z M 251.25,145.00 L 250.95,144.62 L 251.13,144.29 L 251.43,144.57 L 251.25,145.00 Z M 252.19,144.53 L 251.90,144.53 L 252.14,143.84 L 252.39,143.99 L 252.19,144.53 Z M 251.54,143.50 L 250.95,142.80 L 251.06,142.69 L 251.54,143.50 Z M 248.67,147.56 L 248.55,146.78 L 248.24,146.87 L 248.33,146.29 L 247.52,145.50 L 247.55,145.87 L 247.11,145.59 L 247.18,146.07 L 246.97,146.16 L 246.74,145.50 L 247.20,144.99 L 246.73,145.29 L 247.11,144.02 L 246.70,144.53 L 246.39,143.74 L 246.37,144.42 L 246.13,143.60 L 245.69,143.83 L 246.03,143.88 L 246.07,144.30 L 245.60,144.34 L 245.65,144.81 L 246.04,144.90 L 246.00,145.64 L 246.36,145.73 L 246.31,146.22 L 245.91,145.95 L 245.86,145.37 L 245.70,146.06 L 245.51,145.41 L 245.74,145.13 L 244.92,144.81 L 245.40,144.57 L 245.17,144.50 L 245.56,143.92 L 244.78,144.48 L 244.61,144.25 L 244.79,143.88 L 244.38,143.74 L 245.36,143.02 L 245.37,143.78 L 245.49,142.95 L 247.91,142.33 L 248.14,143.16 L 247.55,143.19 L 247.52,143.77 L 246.53,143.04 L 248.42,144.52 L 247.78,144.85 L 247.42,144.48 L 247.23,144.57 L 247.64,144.95 L 247.55,145.18 L 248.56,145.48 L 248.49,145.87 L 248.76,145.91 L 248.66,146.31 L 248.89,146.99 L 248.67,147.56 Z M 249.47,144.34 L 249.12,143.88 L 248.59,144.22 L 248.47,142.59 L 248.09,142.27 L 250.44,142.26 L 250.99,143.37 L 250.51,144.82 L 250.11,144.58 L 250.17,144.20 L 249.99,143.90 L 249.67,144.51 L 249.15,144.39 L 249.47,144.34 Z M 243.52,143.27 L 243.62,143.83 L 243.35,144.16 L 243.25,143.78 L 243.23,144.18 L 243.19,143.69 L 243.30,143.46 L 243.13,143.08 L 242.85,143.57 L 242.82,143.10 L 242.21,143.04 L 242.40,142.67 L 242.19,142.50 L 243.19,142.53 L 243.09,142.35 L 243.67,142.02 L 243.28,142.72 L 242.82,142.83 L 243.76,142.93 L 243.79,143.30 L 243.52,143.27 Z M 244.55,142.42 L 244.79,142.35 L 244.63,141.97 L 245.08,142.39 L 245.05,141.82 L 246.30,142.44 L 244.55,142.42 Z M 243.15,142.05 L 242.78,141.88 L 243.10,141.60 L 243.51,141.70 L 243.15,142.05 Z M 241.60,141.83 L 241.44,142.43 L 241.48,142.08 L 241.33,142.35 L 241.20,141.92 L 241.85,141.60 L 242.42,142.20 L 241.60,141.83 Z M 240.01,141.07 L 239.77,140.33 L 239.94,140.23 L 240.12,140.72 L 240.01,141.07 Z M 238.95,138.86 L 238.80,138.29 L 239.08,138.03 L 239.24,138.21 L 238.95,138.86 Z M 243.80,137.24 L 243.96,137.56 L 243.69,137.77 L 243.29,137.15 L 243.80,137.24 Z M 239.54,136.97 L 239.33,137.67 L 238.89,137.61 L 239.34,136.50 L 239.54,136.97 Z M 237.38,136.83 L 236.72,136.45 L 236.98,136.13 L 237.38,136.83 Z M 240.86,135.61 L 241.19,135.57 L 241.34,136.39 L 241.34,135.80 L 241.47,135.81 L 241.73,137.22 L 241.82,136.55 L 241.88,137.02 L 241.97,136.44 L 242.19,136.61 L 242.08,137.34 L 242.21,137.09 L 242.24,137.77 L 242.10,138.20 L 241.87,137.98 L 241.99,138.52 L 241.76,138.47 L 241.43,137.98 L 241.75,137.52 L 241.31,137.55 L 241.30,136.71 L 241.09,136.92 L 241.02,137.79 L 240.90,137.52 L 241.00,137.20 L 240.77,137.54 L 240.67,137.09 L 240.82,136.50 L 240.86,135.61 Z M 239.72,136.87 L 239.91,136.74 L 239.77,136.36 L 239.54,136.59 L 239.42,135.49 L 239.86,135.86 L 240.12,134.97 L 240.33,135.79 L 240.46,135.27 L 240.77,135.47 L 240.46,135.95 L 240.67,135.87 L 240.51,136.32 L 240.77,136.57 L 240.52,137.08 L 240.11,136.07 L 240.57,137.53 L 240.29,137.89 L 240.38,138.21 L 240.03,138.12 L 240.21,137.52 L 239.72,136.87 Z M 243.44,135.20 L 243.68,136.16 L 243.47,136.38 L 242.96,135.63 L 243.24,137.47 L 242.62,136.74 L 242.49,134.90 L 243.10,135.05 L 242.86,133.95 L 243.25,132.99 L 243.43,133.34 L 243.44,135.20 Z M 236.21,132.64 L 236.25,132.74 L 235.89,133.18 L 235.79,132.76 L 236.21,132.64 Z M 236.65,132.42 L 236.91,132.79 L 236.71,133.07 L 235.99,132.14 L 236.50,132.52 L 236.46,131.81 L 236.91,132.00 L 236.65,132.42 Z M 238.59,136.13 L 238.13,136.87 L 237.76,136.59 L 238.23,136.36 L 238.04,136.20 L 238.31,136.17 L 238.11,135.66 L 238.57,135.02 L 238.22,134.73 L 237.76,135.11 L 237.65,134.70 L 237.55,135.52 L 237.70,135.87 L 237.56,136.22 L 237.09,135.79 L 237.25,135.27 L 237.09,134.22 L 237.23,134.04 L 236.46,134.32 L 236.70,133.94 L 236.41,133.35 L 236.81,133.01 L 237.32,133.71 L 237.88,133.70 L 237.60,133.58 L 237.71,133.16 L 237.20,133.50 L 237.20,132.97 L 236.84,132.44 L 237.61,132.79 L 237.39,132.05 L 237.69,131.81 L 237.77,132.54 L 237.74,131.95 L 237.97,132.09 L 238.04,133.81 L 238.18,133.02 L 238.09,132.26 L 238.37,132.69 L 238.49,133.75 L 238.50,132.83 L 238.97,133.09 L 239.12,133.49 L 238.92,133.76 L 238.99,134.22 L 239.17,133.85 L 239.69,134.60 L 239.44,135.14 L 239.13,134.92 L 239.24,135.36 L 239.07,135.27 L 239.07,135.76 L 239.27,136.20 L 238.85,135.85 L 238.82,136.48 L 238.59,136.13 Z M 235.43,130.89 L 235.02,131.30 L 235.06,131.10 L 235.43,130.89 Z M 236.85,128.91 L 236.66,128.42 L 235.98,128.61 L 236.42,127.99 L 236.81,128.28 L 236.85,128.91 Z M 237.58,131.60 L 236.48,131.35 L 236.68,131.16 L 235.82,129.59 L 235.36,129.91 L 235.00,129.45 L 234.85,129.85 L 233.89,127.54 L 234.06,127.31 L 234.73,128.33 L 234.76,128.84 L 235.39,128.84 L 236.38,130.19 L 236.39,129.60 L 236.63,130.97 L 236.76,130.10 L 237.09,130.81 L 236.96,131.03 L 237.58,131.60 Z M 236.96,127.36 L 236.89,127.36 L 236.95,127.22 L 236.96,127.36 Z M 235.66,127.22 L 235.90,126.47 L 235.60,126.85 L 235.84,126.15 L 235.28,127.21 L 235.15,126.40 L 235.68,125.69 L 235.49,125.34 L 236.17,125.17 L 236.27,125.71 L 235.92,127.17 L 235.66,127.22 Z M 233.74,124.80 L 233.53,123.80 L 234.35,124.09 L 234.24,125.10 L 233.74,124.80 Z M 235.84,124.97 L 235.95,124.72 L 235.35,123.55 L 235.97,124.06 L 236.07,124.99 L 235.84,124.97 Z M 235.01,124.57 L 235.10,123.96 L 235.32,124.11 L 235.06,123.69 L 235.23,123.74 L 234.63,123.30 L 234.92,123.02 L 235.70,124.62 L 235.28,125.12 L 235.01,124.57 Z M 233.79,123.26 L 234.22,122.86 L 234.06,123.53 L 233.80,123.64 L 233.79,123.26 Z M 234.69,122.95 L 234.65,122.72 L 234.76,122.81 L 234.69,122.95 Z M 234.41,122.46 L 233.92,123.00 L 234.35,121.89 L 234.41,122.46 Z M 236.24,124.07 L 235.36,122.49 L 235.35,121.93 L 236.04,122.83 L 236.24,124.07 Z M 233.56,123.19 L 233.81,122.48 L 233.68,122.40 L 233.89,121.30 L 234.23,121.32 L 233.89,122.72 L 233.56,123.19 Z M 233.07,121.71 L 233.12,120.91 L 233.37,120.54 L 233.07,121.71 Z M 234.44,120.44 L 235.34,121.59 L 235.12,122.09 L 234.59,121.37 L 234.44,120.44 Z M 235.91,121.16 L 235.72,120.27 L 235.75,120.27 L 235.89,120.58 L 236.02,120.63 L 235.91,121.16 Z M 233.41,123.22 L 233.45,122.81 L 233.30,123.13 L 233.39,122.67 L 233.17,122.30 L 233.40,121.93 L 233.25,121.89 L 233.43,121.18 L 233.63,121.61 L 233.71,121.32 L 233.54,120.27 L 233.72,120.27 L 233.86,120.95 L 233.41,123.22 Z M 235.52,121.07 L 235.02,120.38 L 235.09,120.27 L 235.59,120.27 L 235.68,120.67 L 235.52,121.07 Z M 237.84,138.98 L 237.88,139.06 L 237.56,139.26 L 237.84,138.98 Z M 243.75,136.32 L 243.78,136.82 L 243.30,136.59 L 243.75,136.32 Z M 243.07,128.14 L 242.69,128.52 L 242.73,128.44 L 243.07,128.14 Z M 234.68,125.95 L 234.78,126.64 L 234.48,126.29 L 234.68,125.95 Z M 234.55,125.10 L 234.48,125.42 L 234.36,124.92 L 234.50,124.52 L 234.55,125.10 Z M 236.18,121.40 L 236.19,122.40 L 235.60,121.33 L 236.18,121.40 Z" fill="#E8E0D0" stroke="#B8B0A0" stroke-width="0.5"/>
<path d="M 246.22,120.30 L 246.26,120.27 L 246.85,120.27 L 248.08,124.50 L 247.92,125.07 L 247.88,124.46 L 244.55,122.47 L 240.08,122.23 L 240.04,121.37 L 239.46,120.27 L 246.23,120.27 L 246.22,120.30 Z M 247.46,141.75 L 247.46,141.38 L 247.63,141.91 L 247.46,141.75 Z M 247.49,126.76 L 248.20,128.60 L 248.39,129.89 L 248.11,129.31 L 247.73,130.01 L 247.66,130.81 L 248.64,131.52 L 248.93,133.27 L 249.87,134.86 L 249.84,135.34 L 251.63,137.66 L 252.26,139.12 L 253.68,140.35 L 255.24,140.35 L 254.76,142.24 L 254.53,141.96 L 254.07,142.55 L 253.41,142.08 L 253.35,142.55 L 252.33,143.09 L 251.04,142.10 L 248.22,141.33 L 247.73,141.74 L 247.46,141.27 L 247.49,126.76 Z M 258.20,140.91 L 257.85,141.49 L 257.82,141.10 L 257.23,141.64 L 257.09,141.23 L 256.39,142.09 L 256.09,141.60 L 256.62,141.26 L 256.57,140.81 L 256.92,141.28 L 256.97,140.75 L 258.20,140.91 Z" fill="#E8E0D0" stroke="#B8B0A0" stroke-width="0.5"/>
<path d="M 407.71,138.96 L 407.45,139.05 L 407.50,138.62 L 407.71,138.96 Z" fill="#E8E0D0" stroke="#B8B0A0" stroke-width="0.5"/>
<path d="M 753.25,139.14 L 752.97,141.05 L 753.01,140.12 L 753.25,139.14 Z" fill="#E8E0D0" stroke="#B8B0A0" stroke-width="0.5"/>
<path d="M 775.99,126.49 L 775.59,126.10 L 775.97,125.60 L 776.11,125.95 L 775.99,126.49 Z" fill="#E8E0D0" stroke="#B8B0A0" stroke-width="0.5"/>
<path d="M 564.03,130.00 L 563.27,130.48 L 562.75,129.07 L 564.03,130.00 Z" fill="#E8E0D0" stroke="#B8B0A0" stroke-width="0.5"/>
<path d="M 339.49,172.79 L 339.70,172.78 L 339.66,173.01 L 339.49,172.79 Z M 339.33,173.02 L 339.10,172.75 L 339.26,172.70 L 339.33,173.02 Z M 340.97,169.88 L 341.11,170.05 L 340.82,170.25 L 340.97,169.88 Z M 341.68,166.43 L 341.20,165.94 L 341.53,165.64 L 341.68,166.43 Z M 341.16,161.72 L 341.08,161.51 L 341.43,161.60 L 341.16,161.72 Z M 340.69,156.62 L 340.78,156.82 L 340.75,156.87 L 340.69,156.62 Z M 339.79,154.29 L 339.54,154.34 L 339.55,154.18 L 339.79,154.29 Z M 338.73,151.35 L 338.83,151.44 L 338.74,151.68 L 338.73,151.35 Z M 317.67,139.18 L 317.74,139.38 L 317.59,139.43 L 317.67,139.18 Z M 315.42,135.89 L 315.50,135.90 L 315.41,135.98 L 315.42,135.89 Z M 320.48,141.15 L 319.76,141.15 L 320.17,141.74 L 319.74,141.96 L 318.89,139.42 L 318.20,139.01 L 318.03,138.24 L 317.44,137.71 L 316.86,137.70 L 317.07,137.52 L 316.87,137.20 L 317.25,136.97 L 316.24,137.15 L 316.32,136.64 L 316.17,136.59 L 316.41,136.22 L 315.48,136.03 L 316.93,135.85 L 316.75,136.17 L 317.51,136.17 L 317.45,136.74 L 317.77,136.32 L 317.74,136.78 L 318.54,136.69 L 318.41,137.15 L 318.91,137.22 L 318.50,137.85 L 318.91,137.56 L 318.89,138.31 L 319.21,138.40 L 319.12,137.61 L 319.42,137.90 L 319.43,138.47 L 319.96,139.32 L 319.84,139.80 L 320.25,139.70 L 320.20,140.62 L 320.48,141.15 Z M 337.40,154.28 L 337.40,154.36 L 337.36,154.43 L 337.40,154.28 Z" fill="#E8E0D0" stroke="#B8B0A0" stroke-width="0.5"/>
<path d="M 267.21,124.28 L 267.13,123.31 L 267.34,123.55 L 267.21,124.28 Z M 263.96,121.49 L 263.74,121.24 L 263.95,121.05 L 263.96,121.49 Z M 264.35,122.02 L 264.10,121.37 L 264.47,120.91 L 264.57,121.16 L 264.37,121.52 L 264.54,121.43 L 264.75,120.81 L 264.74,121.74 L 264.35,122.02 Z M 263.89,120.27 L 263.91,120.27 L 264.01,120.35 L 263.83,120.77 L 263.89,120.27 Z M 266.92,122.14 L 266.05,122.39 L 266.07,122.98 L 265.84,123.51 L 265.44,123.18 L 265.56,123.69 L 265.35,124.03 L 265.14,123.16 L 264.85,123.13 L 265.06,123.60 L 264.90,123.59 L 264.36,122.74 L 265.02,122.48 L 264.79,122.12 L 265.48,122.42 L 265.78,121.86 L 265.52,122.03 L 265.32,121.93 L 265.60,121.85 L 265.68,120.95 L 265.84,120.86 L 265.91,121.47 L 266.00,120.73 L 266.26,120.81 L 266.27,120.44 L 265.91,120.46 L 265.44,121.00 L 265.29,120.27 L 265.91,120.27 L 266.49,120.35 L 266.43,120.27 L 267.68,120.27 L 266.92,122.14 Z M 271.70,120.30 L 270.53,120.77 L 270.79,121.00 L 270.18,121.69 L 269.43,121.69 L 269.02,121.05 L 268.96,121.43 L 269.31,122.10 L 269.71,122.21 L 269.69,123.15 L 268.29,122.36 L 268.72,123.09 L 268.55,123.40 L 268.80,123.34 L 268.67,123.60 L 268.78,123.86 L 267.88,123.39 L 268.14,124.74 L 267.29,123.15 L 267.62,122.81 L 267.49,122.47 L 267.73,122.16 L 267.54,121.89 L 267.80,121.98 L 267.80,121.37 L 268.43,120.44 L 268.76,120.30 L 268.79,121.19 L 268.91,121.10 L 268.91,120.27 L 271.58,120.27 L 271.70,120.30 Z M 267.35,124.48 L 267.24,124.85 L 267.46,124.92 L 267.07,124.85 L 267.35,124.48 Z M 270.16,123.11 L 269.90,122.60 L 270.04,122.37 L 270.19,122.38 L 270.16,123.11 Z M 267.38,122.34 L 267.29,122.26 L 267.34,122.01 L 267.38,122.34 Z" fill="#E8E0D0" stroke="#B8B0A0" stroke-width="0.5"/>
<path d="M 287.19,325.28 L 292.49,324.82 L 294.71,325.04 L 294.97,325.36 L 294.26,325.70 L 294.99,326.05 L 297.16,324.95 L 297.75,326.20 L 297.68,326.52 L 297.89,326.41 L 296.25,328.30 L 296.77,328.75 L 296.63,328.97 L 297.66,329.32 L 298.40,328.56 L 298.84,329.12 L 301.03,328.13 L 301.92,327.22 L 302.19,327.34 L 301.88,328.20 L 302.20,328.21 L 304.09,326.40 L 303.88,325.88 L 304.08,324.79 L 306.80,322.93 L 307.02,321.82 L 307.58,321.09 L 308.79,320.02 L 310.23,319.94 L 313.80,317.84 L 317.27,319.39 L 318.18,318.62 L 319.93,318.25 L 321.74,316.73 L 321.18,316.41 L 321.43,316.18 L 325.61,316.18 L 326.27,315.77 L 325.63,315.39 L 326.82,315.68 L 328.82,314.96 L 332.56,315.40 L 330.40,314.11 L 333.95,313.79 L 333.64,313.48 L 333.86,313.21 L 346.10,312.53 L 349.93,311.46 L 346.08,310.81 L 346.10,310.09 L 345.04,310.54 L 331.84,309.23 L 334.35,307.14 L 332.13,307.11 L 333.46,306.00 L 332.90,305.95 L 333.02,305.75 L 332.80,305.48 L 327.07,306.90 L 323.96,306.18 L 324.11,306.04 L 319.44,304.24 L 319.09,303.58 L 319.01,302.77 L 319.95,299.94 L 320.93,299.49 L 320.84,299.03 L 321.13,298.82 L 321.53,297.42 L 323.33,297.47 L 323.42,297.27 L 322.72,296.36 L 323.73,294.86 L 327.78,292.56 L 329.08,292.72 L 329.56,291.55 L 331.86,290.70 L 332.99,289.23 L 335.87,287.32 L 340.03,286.08 L 342.34,284.48 L 346.19,283.28 L 349.93,282.51 L 352.73,283.00 L 354.08,282.37 L 353.93,281.83 L 354.67,281.36 L 357.24,281.87 L 357.85,281.65 L 357.81,281.16 L 359.44,281.28 L 358.06,279.85 L 358.79,279.16 L 358.87,278.31 L 359.43,278.08 L 360.44,276.65 L 360.08,275.71 L 360.84,275.35 L 360.95,273.89 L 363.12,273.47 L 365.25,274.31 L 366.23,273.83 L 365.96,273.55 L 366.00,272.89 L 367.72,271.23 L 368.08,270.43 L 367.29,269.90 L 365.14,271.04 L 363.30,270.61 L 364.83,269.96 L 363.15,269.27 L 363.24,267.79 L 364.50,266.68 L 364.46,266.07 L 364.67,265.63 L 365.41,265.16 L 366.93,264.91 L 367.91,265.73 L 369.07,265.34 L 368.86,265.07 L 369.12,264.53 L 368.02,262.68 L 370.27,263.51 L 372.05,261.81 L 374.69,260.68 L 374.83,260.07 L 374.65,259.89 L 375.02,259.04 L 374.70,259.01 L 375.48,258.18 L 375.29,258.10 L 375.60,257.72 L 375.90,256.36 L 373.00,255.39 L 372.52,254.13 L 372.56,253.49 L 374.09,252.95 L 373.96,253.30 L 374.11,253.85 L 376.09,254.99 L 376.44,254.64 L 376.15,253.85 L 376.33,253.28 L 377.80,251.88 L 376.78,251.02 L 377.62,250.48 L 377.90,250.70 L 377.83,251.27 L 378.03,251.65 L 379.88,252.48 L 380.03,252.95 L 379.70,253.82 L 380.55,254.28 L 380.38,254.69 L 380.63,255.04 L 380.63,255.85 L 381.31,256.02 L 381.86,254.98 L 382.02,255.53 L 383.10,255.37 L 382.71,254.42 L 383.18,253.34 L 383.19,252.10 L 382.50,251.01 L 382.31,250.22 L 382.42,250.02 L 383.81,249.66 L 385.29,250.56 L 385.71,249.30 L 386.64,248.91 L 387.39,249.27 L 387.63,250.00 L 387.28,251.28 L 386.57,251.88 L 386.45,252.14 L 386.54,252.56 L 386.04,253.18 L 386.33,253.56 L 391.25,253.56 L 391.13,253.21 L 391.25,253.07 L 392.24,254.62 L 392.29,254.04 L 392.58,253.96 L 392.69,253.02 L 393.35,253.52 L 393.35,252.98 L 394.05,252.82 L 395.32,254.36 L 395.62,253.94 L 396.90,254.08 L 397.10,253.80 L 397.09,253.24 L 397.47,252.81 L 398.19,253.63 L 397.88,255.30 L 398.85,256.26 L 400.52,253.45 L 405.60,250.40 L 409.39,249.61 L 411.16,248.62 L 417.04,247.81 L 416.53,246.59 L 416.48,245.80 L 416.62,245.59 L 417.54,245.51 L 417.41,246.78 L 417.62,247.50 L 418.76,247.57 L 419.64,246.70 L 420.30,246.85 L 420.34,246.27 L 419.77,245.56 L 420.65,244.84 L 421.46,245.98 L 421.46,246.63 L 422.18,247.38 L 424.97,249.43 L 426.34,249.60 L 426.85,248.87 L 426.86,248.00 L 427.38,246.81 L 428.98,245.89 L 427.65,244.78 L 428.82,244.62 L 429.65,246.15 L 430.78,246.66 L 433.42,246.28 L 435.17,246.86 L 435.47,245.59 L 436.84,245.20 L 437.00,245.80 L 436.68,247.38 L 440.21,247.98 L 441.11,247.71 L 440.56,246.51 L 442.09,245.46 L 442.87,245.99 L 442.61,246.16 L 442.88,246.80 L 442.03,248.60 L 442.07,249.29 L 442.86,250.50 L 443.48,250.71 L 447.11,249.80 L 447.01,248.71 L 447.13,248.21 L 448.32,245.84 L 450.18,247.96 L 449.96,248.44 L 448.50,248.74 L 449.71,249.01 L 449.62,249.45 L 451.76,249.87 L 452.78,247.03 L 453.58,247.08 L 454.27,247.99 L 454.35,248.47 L 453.92,248.90 L 454.04,249.32 L 455.48,250.71 L 457.74,251.36 L 459.84,250.56 L 460.61,251.01 L 460.71,250.57 L 460.35,250.20 L 461.40,249.32 L 463.23,249.00 L 466.31,246.41 L 469.51,245.91 L 472.77,244.40 L 473.04,243.83 L 472.97,242.85 L 473.30,242.00 L 473.33,240.95 L 473.23,239.97 L 472.19,238.09 L 472.23,236.88 L 473.81,235.30 L 476.22,235.42 L 476.38,236.22 L 474.67,237.89 L 476.36,238.43 L 476.93,238.01 L 478.06,239.29 L 478.22,239.53 L 478.01,240.65 L 478.29,241.17 L 477.95,242.07 L 478.32,242.51 L 481.57,241.80 L 482.30,243.54 L 482.76,243.17 L 482.65,242.83 L 482.85,242.47 L 483.97,242.15 L 483.97,242.66 L 484.98,242.72 L 484.49,243.29 L 485.01,243.96 L 484.93,244.47 L 486.53,245.69 L 486.83,245.35 L 486.26,244.68 L 486.23,244.22 L 487.09,243.58 L 487.21,243.29 L 486.97,243.15 L 487.03,242.45 L 488.40,241.67 L 488.19,241.20 L 488.44,241.10 L 488.31,240.86 L 488.55,240.14 L 488.23,239.61 L 488.48,239.43 L 488.24,237.68 L 488.57,236.38 L 490.05,235.63 L 490.56,235.85 L 491.14,234.80 L 492.32,233.96 L 494.52,233.33 L 494.58,232.28 L 495.17,231.42 L 497.28,231.08 L 497.78,230.55 L 499.56,230.60 L 499.15,229.82 L 499.94,228.94 L 500.90,228.70 L 501.30,229.04 L 501.15,229.39 L 501.30,229.57 L 501.72,229.13 L 501.64,228.79 L 501.82,228.50 L 502.70,228.41 L 503.11,229.04 L 503.12,228.19 L 503.61,227.99 L 502.90,227.78 L 502.91,227.20 L 502.74,227.03 L 502.85,226.25 L 503.29,225.86 L 504.25,225.80 L 504.43,226.34 L 505.42,226.76 L 504.27,227.42 L 504.40,227.64 L 504.29,227.93 L 505.17,227.83 L 504.70,228.25 L 504.88,228.45 L 504.65,228.77 L 505.85,228.46 L 505.13,229.03 L 505.24,229.23 L 505.66,229.30 L 506.47,228.39 L 507.68,228.94 L 507.05,230.01 L 507.22,230.90 L 507.52,230.92 L 508.26,228.93 L 507.96,227.21 L 509.28,226.54 L 509.62,225.95 L 509.58,225.50 L 509.79,225.50 L 509.04,225.01 L 507.72,225.27 L 507.45,224.81 L 507.47,224.10 L 509.37,222.77 L 509.66,223.68 L 509.24,224.00 L 510.85,224.52 L 510.44,225.95 L 511.44,224.77 L 512.54,225.63 L 512.71,225.60 L 512.56,225.19 L 513.07,225.46 L 512.93,225.20 L 513.28,225.13 L 513.23,224.76 L 512.13,224.46 L 512.27,223.96 L 512.10,223.59 L 512.96,222.47 L 511.64,222.25 L 511.54,221.08 L 511.83,219.89 L 512.31,219.28 L 514.12,218.72 L 515.05,217.47 L 519.53,216.17 L 522.63,216.75 L 524.14,218.03 L 525.33,220.35 L 525.44,219.91 L 526.24,219.97 L 527.28,221.16 L 527.29,222.02 L 526.70,222.16 L 525.83,221.83 L 525.70,221.37 L 525.55,221.86 L 524.87,221.17 L 524.43,221.19 L 524.82,222.04 L 525.58,222.26 L 525.29,222.68 L 525.65,222.58 L 525.32,222.86 L 526.02,223.31 L 525.05,223.15 L 525.16,223.37 L 524.79,223.67 L 525.26,224.06 L 523.85,225.78 L 524.79,225.32 L 524.64,226.35 L 524.82,226.76 L 525.69,224.74 L 526.60,224.30 L 527.46,224.59 L 527.35,224.28 L 527.99,223.92 L 529.19,224.66 L 528.99,225.52 L 529.49,224.99 L 530.92,225.19 L 531.32,225.65 L 531.09,226.09 L 530.11,225.55 L 530.40,226.31 L 531.39,226.87 L 531.08,227.29 L 531.70,227.27 L 532.25,228.10 L 532.43,228.02 L 532.24,227.54 L 532.57,227.45 L 532.57,226.68 L 534.37,226.50 L 535.93,227.41 L 535.84,227.66 L 536.10,227.99 L 538.04,227.80 L 539.15,228.46 L 540.25,227.61 L 541.45,227.40 L 543.82,228.41 L 548.28,229.35 L 549.18,229.13 L 551.95,230.05 L 553.57,229.72 L 554.12,228.94 L 554.75,229.16 L 554.74,231.59 L 555.95,234.11 L 554.74,234.75 L 554.61,234.97 L 554.83,235.05 L 554.68,235.63 L 554.83,235.60 L 553.96,236.39 L 555.24,236.67 L 554.01,237.85 L 554.95,238.68 L 554.98,239.54 L 553.91,240.03 L 553.16,239.63 L 552.76,240.17 L 553.11,240.61 L 552.74,241.26 L 554.12,241.71 L 553.07,242.55 L 553.79,242.94 L 553.38,243.96 L 552.38,244.45 L 551.50,242.41 L 551.39,243.28 L 550.92,244.16 L 550.16,244.47 L 549.95,245.67 L 549.37,246.08 L 550.47,246.17 L 550.40,246.65 L 551.06,247.38 L 552.05,247.03 L 552.36,247.50 L 552.64,246.70 L 553.16,246.37 L 553.71,246.45 L 553.91,247.23 L 553.79,249.00 L 553.10,251.32 L 552.33,252.30 L 552.60,252.46 L 551.23,253.48 L 550.74,254.72 L 550.82,255.70 L 550.07,256.48 L 550.25,256.67 L 549.89,257.14 L 550.02,257.80 L 549.47,258.40 L 549.63,258.72 L 549.59,260.07 L 549.08,262.14 L 548.84,264.12 L 547.39,265.51 L 547.91,266.19 L 549.11,265.96 L 548.93,266.45 L 549.38,266.73 L 551.16,265.61 L 551.37,264.30 L 551.02,263.45 L 550.94,262.54 L 551.85,261.28 L 553.52,260.67 L 554.58,260.99 L 554.82,259.90 L 555.45,259.59 L 555.12,259.12 L 555.24,258.66 L 556.73,258.17 L 557.18,257.48 L 556.55,256.70 L 558.40,256.01 L 557.90,255.62 L 557.99,255.28 L 558.98,255.21 L 558.13,254.17 L 558.34,253.70 L 558.23,253.35 L 558.97,252.74 L 558.54,252.31 L 558.98,250.81 L 559.66,250.02 L 559.39,249.55 L 560.00,248.79 L 560.77,248.88 L 561.44,247.47 L 561.90,247.32 L 561.42,245.39 L 561.70,244.77 L 562.73,244.16 L 562.78,243.35 L 563.12,242.93 L 563.79,243.37 L 564.61,242.36 L 565.15,243.00 L 565.12,243.76 L 566.04,243.19 L 566.17,243.69 L 566.53,243.33 L 566.87,243.88 L 567.28,243.02 L 567.64,243.88 L 568.70,242.83 L 568.34,241.74 L 568.49,241.09 L 569.73,240.28 L 569.79,240.75 L 570.23,240.01 L 570.69,239.98 L 571.11,238.97 L 572.98,238.41 L 573.16,237.59 L 573.43,237.55 L 573.22,237.38 L 573.40,237.03 L 573.19,236.99 L 573.30,236.32 L 574.82,235.49 L 574.35,235.16 L 574.54,234.83 L 574.36,234.05 L 574.99,232.54 L 582.35,228.54 L 583.03,228.76 L 583.52,228.08 L 585.81,228.31 L 585.90,228.01 L 585.40,227.69 L 585.30,227.02 L 587.76,224.74 L 588.80,224.51 L 590.26,225.27 L 591.26,224.27 L 592.66,224.42 L 595.48,222.44 L 595.92,222.49 L 596.11,223.04 L 597.19,222.54 L 600.89,222.77 L 602.41,221.13 L 604.36,220.59 L 606.13,221.51 L 606.71,221.03 L 608.05,221.17 L 608.29,221.31 L 608.19,221.63 L 608.31,222.28 L 610.93,220.44 L 611.73,220.79 L 611.88,221.54 L 612.35,222.03 L 613.57,221.08 L 614.69,221.38 L 615.73,220.55 L 617.10,221.82 L 618.33,220.25 L 618.97,220.30 L 618.98,221.44 L 620.15,220.54 L 619.37,221.57 L 619.59,222.15 L 619.35,222.46 L 619.61,223.38 L 620.04,221.92 L 620.38,222.32 L 621.18,220.99 L 621.24,221.77 L 622.84,220.14 L 623.33,220.73 L 623.65,220.32 L 623.27,219.91 L 624.12,219.79 L 625.50,217.62 L 624.82,217.42 L 625.19,216.84 L 627.42,216.89 L 628.25,216.28 L 630.25,217.29 L 630.91,217.08 L 636.32,220.16 L 639.51,220.96 L 639.73,221.51 L 639.34,222.22 L 639.36,222.96 L 640.46,221.46 L 640.66,222.34 L 641.38,222.76 L 641.91,223.80 L 642.50,223.21 L 643.58,223.45 L 645.37,221.66 L 646.10,222.06 L 645.78,220.81 L 646.06,219.97 L 645.53,219.31 L 646.50,217.59 L 651.56,215.63 L 654.29,218.75 L 654.02,219.64 L 654.41,220.03 L 654.05,220.67 L 655.81,220.46 L 657.00,221.38 L 657.29,222.56 L 656.42,224.02 L 653.40,225.28 L 652.55,227.14 L 652.68,227.38 L 654.82,226.32 L 654.63,226.81 L 654.82,226.86 L 656.12,226.11 L 656.02,225.96 L 656.31,225.48 L 657.44,225.52 L 658.29,224.64 L 658.58,225.01 L 659.87,223.64 L 659.74,224.92 L 661.21,224.56 L 661.59,225.16 L 663.17,224.21 L 662.78,224.99 L 663.24,225.24 L 665.17,224.86 L 667.45,223.55 L 667.66,223.84 L 663.85,225.88 L 664.35,226.85 L 670.03,224.62 L 671.53,223.01 L 674.57,222.29 L 675.59,221.21 L 676.13,221.25 L 676.38,221.68 L 676.31,222.08 L 677.15,222.36 L 678.11,221.69 L 678.69,220.05 L 679.87,219.27 L 680.39,220.40 L 680.73,220.40 L 680.83,221.02 L 680.96,219.62 L 681.23,220.22 L 681.90,220.26 L 681.27,221.73 L 681.82,221.90 L 681.51,222.35 L 681.52,222.94 L 682.36,222.97 L 682.22,223.54 L 682.41,223.70 L 682.40,224.91 L 682.63,223.91 L 683.03,223.53 L 683.11,224.45 L 684.61,224.14 L 684.81,224.68 L 685.60,224.98 L 686.14,224.17 L 686.81,225.17 L 687.65,223.72 L 687.54,223.03 L 687.97,222.16 L 687.72,221.90 L 688.27,220.19 L 689.12,219.09 L 690.14,218.99 L 690.46,218.23 L 692.80,218.87 L 694.40,218.24 L 695.17,218.51 L 696.17,217.76 L 697.32,217.93 L 698.73,219.33 L 698.02,220.64 L 698.56,220.74 L 699.48,219.51 L 700.40,219.47 L 700.37,218.99 L 700.66,218.68 L 700.76,217.90 L 701.10,218.00 L 701.44,219.10 L 701.40,219.57 L 702.51,218.82 L 703.43,220.00 L 703.68,220.88 L 703.85,220.45 L 703.64,220.31 L 703.68,219.93 L 703.86,219.58 L 705.46,219.56 L 706.98,220.60 L 706.96,221.45 L 707.51,220.83 L 709.45,221.06 L 710.82,221.91 L 710.72,222.62 L 712.26,222.13 L 713.96,223.05 L 714.62,222.50 L 715.51,222.64 L 716.62,224.17 L 717.38,224.13 L 718.91,222.94 L 719.69,223.45 L 719.73,224.49 L 719.45,224.94 L 720.15,224.58 L 720.26,225.19 L 720.50,224.15 L 721.14,224.10 L 721.47,224.78 L 721.24,225.32 L 720.71,225.15 L 721.14,225.58 L 720.67,226.82 L 720.39,226.34 L 720.19,226.87 L 720.42,228.02 L 719.73,229.28 L 719.65,229.73 L 719.90,229.63 L 719.73,230.32 L 720.35,229.99 L 720.31,230.45 L 720.55,230.45 L 721.04,229.37 L 722.01,228.99 L 722.84,227.48 L 723.21,227.48 L 723.59,228.98 L 723.85,228.01 L 724.55,227.96 L 724.87,228.21 L 724.95,228.64 L 724.69,229.07 L 725.11,229.76 L 725.43,228.94 L 725.62,229.21 L 725.36,230.44 L 726.38,230.34 L 725.69,231.73 L 725.78,231.97 L 726.81,231.03 L 726.79,231.67 L 726.04,232.82 L 726.91,232.75 L 726.80,233.63 L 728.14,233.18 L 728.89,233.91 L 729.43,233.57 L 729.86,233.97 L 730.43,233.49 L 730.79,233.84 L 731.45,233.49 L 731.57,233.88 L 731.98,233.37 L 732.86,234.06 L 733.07,233.90 L 732.63,233.26 L 734.17,233.74 L 735.46,233.09 L 735.81,233.85 L 735.49,235.62 L 735.61,236.02 L 735.92,236.71 L 736.19,236.37 L 736.82,236.97 L 736.83,235.45 L 737.61,235.28 L 738.13,235.75 L 738.95,235.60 L 740.21,236.72 L 740.71,236.58 L 740.85,235.97 L 741.88,235.91 L 741.56,234.46 L 741.92,234.11 L 741.52,233.31 L 741.57,232.79 L 741.95,232.65 L 743.82,234.34 L 743.93,234.97 L 743.22,235.00 L 743.53,235.68 L 743.37,236.21 L 743.99,235.58 L 744.47,236.85 L 745.13,236.81 L 745.30,237.60 L 745.09,237.78 L 745.86,238.44 L 746.13,238.22 L 745.64,237.42 L 746.17,237.17 L 746.67,238.29 L 747.44,238.90 L 749.20,238.63 L 749.83,240.49 L 750.32,240.12 L 750.01,239.90 L 750.07,239.11 L 750.90,238.68 L 752.33,239.91 L 752.93,239.68 L 753.56,241.01 L 753.86,240.43 L 755.05,240.96 L 756.30,242.92 L 756.11,243.45 L 755.02,243.53 L 755.29,244.24 L 755.87,244.09 L 757.24,245.00 L 758.33,247.43 L 758.18,248.20 L 758.36,247.88 L 758.40,248.54 L 758.78,248.95 L 758.47,249.70 L 758.58,250.41 L 759.85,250.45 L 760.76,251.82 L 760.95,251.29 L 760.49,250.09 L 760.08,249.92 L 760.19,248.79 L 760.00,247.27 L 760.21,246.43 L 761.32,246.13 L 762.60,248.28 L 763.22,248.76 L 764.15,248.55 L 764.21,249.60 L 764.47,249.66 L 764.89,248.63 L 764.51,247.91 L 764.98,247.63 L 767.62,248.13 L 768.72,248.94 L 769.71,248.26 L 770.75,248.89 L 769.91,249.11 L 769.93,249.49 L 772.67,249.66 L 773.04,250.56 L 771.42,251.05 L 773.06,251.17 L 773.56,251.81 L 773.04,251.97 L 772.80,252.62 L 774.82,252.31 L 775.03,252.94 L 775.85,253.35 L 776.70,254.56 L 777.73,254.89 L 778.18,255.64 L 778.58,254.76 L 778.24,253.20 L 778.41,253.10 L 779.25,255.68 L 779.59,255.81 L 779.92,256.73 L 779.08,257.90 L 778.52,256.50 L 778.09,257.39 L 778.35,257.51 L 778.21,257.98 L 777.88,257.98 L 777.98,258.42 L 777.81,259.00 L 777.27,259.34 L 777.80,259.80 L 777.52,260.76 L 778.41,260.06 L 778.53,260.77 L 778.35,261.93 L 775.84,261.13 L 774.90,260.28 L 774.04,260.38 L 775.26,261.75 L 776.23,261.76 L 776.60,262.47 L 777.63,262.83 L 776.85,264.36 L 776.85,265.16 L 775.94,265.32 L 776.11,265.91 L 776.03,266.49 L 775.32,266.13 L 775.50,265.24 L 774.92,265.43 L 775.01,265.14 L 774.21,264.43 L 773.99,264.55 L 774.23,265.32 L 774.08,265.74 L 771.49,265.65 L 770.05,264.14 L 770.18,263.82 L 769.65,263.97 L 769.81,264.53 L 770.59,265.06 L 770.46,265.44 L 770.83,266.12 L 770.53,266.85 L 770.62,267.09 L 771.32,266.33 L 773.18,267.05 L 772.50,267.05 L 772.70,267.64 L 771.67,267.36 L 771.61,267.85 L 772.08,268.03 L 771.09,267.77 L 771.28,268.09 L 771.18,268.45 L 770.78,268.62 L 770.55,267.91 L 769.89,268.63 L 769.20,267.88 L 769.37,268.45 L 768.48,268.53 L 769.54,269.53 L 769.21,270.13 L 767.96,270.07 L 768.43,270.53 L 768.12,270.81 L 767.11,270.44 L 767.19,268.73 L 766.74,267.40 L 767.46,266.92 L 766.48,267.24 L 765.61,266.85 L 765.43,267.12 L 766.43,267.89 L 766.46,269.07 L 766.03,269.91 L 766.56,270.65 L 766.38,270.93 L 767.35,271.60 L 765.36,271.01 L 766.26,271.66 L 766.43,272.20 L 766.25,272.38 L 766.36,272.81 L 767.68,274.74 L 767.63,275.65 L 767.06,274.95 L 766.33,275.35 L 765.20,274.79 L 763.74,275.56 L 763.72,274.60 L 763.41,274.48 L 763.46,273.83 L 763.27,273.71 L 762.44,274.23 L 762.82,275.06 L 762.32,276.18 L 762.08,275.48 L 761.81,275.48 L 761.71,276.22 L 761.31,276.47 L 761.30,277.15 L 760.81,277.09 L 761.09,277.78 L 761.75,278.09 L 761.21,278.85 L 761.46,279.29 L 761.32,279.68 L 760.58,280.00 L 759.50,279.44 L 756.85,280.72 L 760.42,280.79 L 760.68,281.75 L 760.07,282.05 L 762.00,283.73 L 761.76,284.30 L 761.20,284.40 L 761.57,284.80 L 761.64,285.43 L 760.88,285.34 L 761.16,285.60 L 760.80,285.46 L 760.67,285.61 L 760.99,285.80 L 760.21,286.30 L 760.73,286.80 L 761.67,286.52 L 761.75,286.86 L 761.56,287.02 L 761.97,287.91 L 760.94,289.26 L 761.87,289.43 L 762.17,290.28 L 760.67,291.37 L 762.58,292.00 L 762.50,292.27 L 763.06,292.90 L 763.41,294.16 L 764.05,294.62 L 764.00,295.28 L 763.34,295.56 L 763.82,295.87 L 763.20,296.23 L 764.99,297.00 L 763.84,297.66 L 765.68,297.73 L 765.63,298.39 L 765.20,298.68 L 765.34,299.06 L 764.09,300.01 L 765.87,300.68 L 766.88,300.19 L 767.19,299.78 L 767.01,299.60 L 767.17,299.27 L 767.77,298.60 L 768.01,299.30 L 767.42,299.82 L 768.24,300.31 L 768.29,301.18 L 771.24,301.92 L 771.62,303.01 L 770.10,303.30 L 769.09,302.31 L 765.35,302.56 L 763.30,303.77 L 762.37,303.46 L 762.00,303.99 L 762.03,304.44 L 761.38,304.87 L 761.01,304.42 L 761.07,303.75 L 760.28,303.62 L 759.47,302.61 L 759.72,302.01 L 759.61,301.73 L 759.01,301.90 L 758.52,302.41 L 759.01,303.55 L 758.94,303.86 L 759.46,304.16 L 759.18,304.37 L 760.15,305.71 L 758.87,305.38 L 758.55,304.67 L 757.79,304.80 L 758.22,304.99 L 758.00,305.65 L 757.10,305.50 L 757.22,305.75 L 756.42,306.38 L 756.71,306.87 L 756.58,307.30 L 757.18,307.55 L 757.03,307.99 L 757.85,308.46 L 756.94,308.29 L 755.87,309.16 L 754.74,308.80 L 755.28,309.73 L 757.42,309.43 L 754.44,310.79 L 755.16,311.51 L 756.29,311.08 L 757.45,311.73 L 758.82,311.35 L 752.85,313.77 L 752.74,314.21 L 751.50,314.86 L 752.42,315.25 L 757.28,314.61 L 757.87,315.39 L 756.79,315.22 L 757.03,315.60 L 755.01,315.88 L 755.28,316.42 L 756.13,316.61 L 758.18,316.34 L 757.80,317.15 L 758.55,317.33 L 754.62,317.22 L 754.44,317.72 L 757.50,318.21 L 756.98,318.34 L 757.57,318.74 L 756.77,318.83 L 757.39,319.45 L 756.76,319.60 L 757.37,320.07 L 756.91,320.10 L 758.09,320.44 L 755.85,320.17 L 756.95,320.93 L 756.45,320.99 L 756.33,321.45 L 757.94,321.39 L 757.43,321.69 L 757.53,321.98 L 758.79,321.66 L 758.93,321.85 L 757.80,322.50 L 761.07,323.45 L 761.18,323.66 L 760.99,323.71 L 761.38,323.90 L 760.53,324.37 L 761.99,324.25 L 762.45,324.70 L 761.36,324.96 L 762.30,325.15 L 762.00,325.22 L 764.26,326.85 L 756.98,328.42 L 757.34,328.89 L 761.17,328.79 L 763.20,329.25 L 762.59,328.60 L 765.94,327.85 L 767.91,328.90 L 767.34,329.48 L 767.50,329.66 L 769.39,329.92 L 770.07,330.32 L 769.84,330.64 L 770.09,330.85 L 771.79,331.09 L 771.89,331.27 L 771.48,331.66 L 772.02,331.82 L 771.35,332.12 L 772.57,332.75 L 773.60,332.07 L 774.65,332.32 L 775.26,333.32 L 773.50,333.57 L 774.52,333.91 L 774.26,334.14 L 771.11,333.68 L 773.41,334.41 L 773.23,334.55 L 773.40,334.77 L 776.41,334.61 L 776.50,334.84 L 776.36,335.19 L 776.59,335.36 L 776.95,334.83 L 778.67,335.66 L 780.43,335.35 L 781.28,335.72 L 779.83,335.95 L 782.13,336.53 L 781.92,336.69 L 782.33,336.79 L 782.03,336.99 L 782.22,337.18 L 784.05,336.85 L 786.05,337.50 L 785.09,338.13 L 785.35,338.28 L 788.83,337.95 L 789.87,338.45 L 789.25,338.81 L 789.56,339.00 L 796.73,339.92 L 796.46,340.15 L 798.57,340.44 L 799.53,341.02 L 799.11,341.21 L 800.00,341.49 L 800.00,379.73 L 0.00,379.73 L 0.00,341.49 L 3.78,341.18 L 5.10,341.93 L 8.75,341.78 L 7.75,342.05 L 9.15,342.81 L 10.56,342.47 L 10.79,342.16 L 10.61,342.08 L 10.72,341.91 L 26.10,343.49 L 26.54,344.32 L 27.91,344.97 L 38.11,345.08 L 46.95,346.39 L 47.85,346.92 L 47.63,346.54 L 48.53,346.99 L 53.31,347.38 L 51.27,347.19 L 54.44,346.73 L 49.70,345.18 L 53.80,345.23 L 53.09,345.10 L 54.25,344.79 L 48.04,344.45 L 48.33,344.30 L 35.86,342.82 L 35.34,342.36 L 37.19,342.43 L 36.31,342.01 L 32.90,342.04 L 30.17,341.61 L 37.78,341.56 L 32.99,340.04 L 33.31,339.49 L 36.22,339.44 L 35.47,339.04 L 35.80,338.85 L 35.57,338.69 L 33.38,337.72 L 27.38,337.54 L 28.46,337.92 L 28.22,338.00 L 26.48,337.61 L 26.69,337.52 L 26.09,337.36 L 27.38,337.37 L 25.92,337.02 L 25.31,336.55 L 25.48,336.21 L 25.37,335.92 L 24.28,335.64 L 24.93,335.55 L 18.35,333.87 L 20.10,334.10 L 13.27,331.76 L 12.51,330.83 L 15.15,331.76 L 16.64,331.45 L 19.09,332.02 L 20.16,332.76 L 20.62,333.66 L 23.11,334.43 L 23.25,334.37 L 22.81,333.98 L 33.14,333.70 L 33.66,334.02 L 33.36,334.74 L 34.09,335.70 L 35.16,335.90 L 35.30,335.76 L 35.19,335.01 L 37.48,334.47 L 39.18,335.20 L 39.42,335.38 L 38.98,335.54 L 39.62,335.88 L 44.29,335.57 L 46.24,336.02 L 46.67,335.43 L 49.88,334.97 L 51.29,333.89 L 47.65,333.23 L 54.24,332.64 L 55.42,330.99 L 61.02,329.27 L 60.23,328.09 L 55.91,325.18 L 58.46,323.85 L 58.19,323.40 L 55.56,322.10 L 50.99,321.17 L 50.79,320.95 L 50.90,320.59 L 52.33,319.79 L 71.94,318.25 L 72.11,318.02 L 70.11,317.31 L 70.21,317.07 L 67.86,316.89 L 69.14,316.76 L 67.90,316.64 L 68.81,316.49 L 68.34,316.37 L 68.47,316.26 L 70.54,316.33 L 67.38,316.01 L 67.77,315.87 L 66.14,315.59 L 65.95,315.50 L 66.48,315.38 L 65.73,314.93 L 64.42,314.92 L 66.74,314.68 L 65.05,314.19 L 65.40,314.09 L 64.88,313.68 L 66.37,313.27 L 65.85,312.52 L 69.26,312.91 L 72.10,312.36 L 69.00,311.83 L 70.68,311.82 L 68.89,311.07 L 71.16,311.59 L 72.99,311.65 L 73.18,311.40 L 71.34,311.35 L 72.03,311.17 L 70.80,310.74 L 71.62,310.52 L 65.67,309.03 L 62.21,307.56 L 62.89,306.95 L 61.30,307.03 L 62.84,305.81 L 60.14,306.40 L 55.62,305.48 L 52.16,302.97 L 52.22,302.50 L 53.14,302.25 L 53.22,301.82 L 56.62,301.41 L 56.48,301.30 L 57.13,301.11 L 57.47,300.16 L 58.19,300.05 L 57.31,299.98 L 56.90,299.39 L 55.29,300.21 L 55.00,299.86 L 55.61,299.87 L 55.46,299.52 L 52.56,299.83 L 51.94,299.44 L 50.67,300.19 L 48.12,298.30 L 47.47,297.45 L 48.63,295.47 L 48.25,295.18 L 48.58,294.60 L 48.16,294.02 L 48.49,293.10 L 48.20,292.60 L 48.40,292.20 L 49.24,292.21 L 51.06,294.13 L 52.30,293.47 L 51.48,292.97 L 52.02,292.46 L 53.63,292.11 L 54.50,292.84 L 55.79,292.41 L 56.88,292.74 L 59.30,293.99 L 57.91,294.52 L 58.08,294.70 L 60.94,295.10 L 60.86,294.67 L 61.16,294.47 L 61.14,293.86 L 61.44,293.75 L 62.01,294.35 L 63.30,294.52 L 63.62,294.75 L 63.41,295.00 L 63.51,295.15 L 66.72,297.23 L 68.34,296.83 L 67.14,295.93 L 69.15,296.49 L 69.61,296.27 L 69.30,295.50 L 71.65,294.83 L 68.77,293.87 L 69.33,293.29 L 68.95,293.24 L 69.40,292.41 L 71.45,293.49 L 71.86,294.57 L 71.75,294.11 L 72.05,294.31 L 73.39,293.30 L 74.72,295.11 L 76.75,295.25 L 76.87,294.95 L 75.66,294.16 L 75.98,294.06 L 75.66,293.28 L 77.23,293.28 L 74.71,291.72 L 77.09,292.10 L 76.46,291.14 L 75.64,290.74 L 76.89,290.21 L 76.75,290.02 L 75.31,289.73 L 74.51,288.95 L 74.69,288.72 L 73.15,287.86 L 70.10,288.36 L 67.31,287.48 L 67.68,286.97 L 69.91,286.48 L 69.58,286.02 L 70.67,285.52 L 74.23,287.37 L 74.46,287.14 L 75.00,287.80 L 76.99,287.87 L 76.58,287.07 L 74.45,285.52 L 75.09,284.36 L 79.51,283.72 L 79.64,283.60 L 79.55,283.03 L 80.06,282.87 L 79.21,282.39 L 82.93,281.96 L 83.25,281.80 L 83.16,281.22 L 83.41,281.08 L 84.75,281.69 L 85.50,283.36 L 87.45,283.63 L 85.94,281.73 L 88.27,281.09 L 89.85,279.16 L 93.91,278.57 L 95.34,279.38 L 97.01,279.37 L 96.82,279.07 L 96.95,278.89 L 95.53,278.23 L 95.86,277.92 L 95.92,276.54 L 97.28,276.14 L 98.44,276.45 L 98.56,276.22 L 98.44,275.98 L 99.07,275.22 L 101.07,275.75 L 100.92,276.38 L 101.39,276.89 L 101.30,277.21 L 102.52,277.68 L 104.91,276.59 L 105.38,276.98 L 106.46,276.56 L 111.17,277.57 L 117.23,275.99 L 119.75,276.55 L 123.63,276.18 L 124.33,276.88 L 129.39,276.71 L 135.85,275.47 L 136.41,274.93 L 135.25,274.80 L 135.61,274.13 L 137.84,273.14 L 138.13,273.68 L 137.83,274.10 L 138.20,274.20 L 138.04,274.57 L 138.25,274.89 L 140.68,275.17 L 142.11,274.76 L 142.04,274.23 L 142.43,274.00 L 142.47,274.48 L 143.00,274.98 L 144.72,274.65 L 144.79,274.00 L 144.29,273.13 L 144.17,272.03 L 144.90,270.98 L 146.20,270.47 L 146.77,270.81 L 146.13,271.92 L 147.53,271.56 L 147.91,272.06 L 147.95,272.57 L 146.78,273.13 L 147.37,273.40 L 147.10,273.71 L 147.23,274.17 L 147.11,274.45 L 148.39,274.11 L 147.51,275.32 L 145.87,276.10 L 147.05,276.22 L 146.73,277.38 L 146.05,278.29 L 146.43,278.63 L 149.07,277.30 L 152.13,276.82 L 152.19,276.40 L 151.75,276.27 L 151.28,275.12 L 152.61,274.61 L 151.69,274.16 L 151.32,273.30 L 152.02,272.56 L 153.79,273.60 L 154.32,273.04 L 155.00,273.91 L 154.57,274.16 L 155.13,274.32 L 155.33,275.10 L 154.85,275.83 L 155.02,276.28 L 154.90,276.68 L 154.05,277.01 L 151.96,279.50 L 152.66,279.79 L 155.85,279.72 L 156.24,279.15 L 163.13,280.72 L 166.35,279.39 L 166.61,278.89 L 167.67,279.25 L 173.87,278.72 L 174.30,279.15 L 174.10,280.23 L 175.23,280.68 L 175.31,281.09 L 179.04,280.22 L 179.97,280.46 L 181.33,279.76 L 180.57,279.68 L 181.26,279.06 L 180.22,279.35 L 179.16,278.92 L 179.28,277.91 L 179.03,277.57 L 176.62,277.42 L 177.96,276.60 L 177.53,276.24 L 177.74,275.75 L 177.53,275.66 L 178.22,275.02 L 177.49,274.60 L 175.72,275.12 L 174.68,274.79 L 174.53,274.61 L 174.72,274.27 L 174.60,273.92 L 174.90,273.25 L 174.61,273.29 L 174.74,272.74 L 174.25,271.39 L 171.45,270.86 L 171.28,270.43 L 171.55,269.47 L 171.16,269.24 L 171.11,268.75 L 174.70,269.14 L 175.19,269.84 L 176.37,269.91 L 178.70,269.41 L 178.95,269.19 L 178.70,268.92 L 178.89,268.81 L 180.41,268.90 L 180.29,268.64 L 178.69,268.16 L 179.10,267.91 L 178.41,267.79 L 178.29,267.08 L 171.39,266.71 L 170.43,265.62 L 170.53,264.66 L 170.16,263.60 L 171.02,262.64 L 173.12,263.07 L 172.91,263.90 L 171.74,264.60 L 173.16,264.47 L 173.42,265.00 L 176.08,264.46 L 177.07,265.08 L 178.10,264.59 L 182.85,264.79 L 182.26,265.77 L 183.51,265.46 L 185.61,266.65 L 187.02,266.86 L 187.23,266.35 L 188.46,266.03 L 190.82,266.74 L 192.06,265.81 L 193.77,265.59 L 195.66,265.87 L 195.90,266.35 L 197.61,266.90 L 198.81,266.52 L 199.64,265.56 L 201.71,265.37 L 201.60,264.87 L 202.10,264.14 L 201.96,263.96 L 201.98,263.02 L 201.28,262.20 L 201.45,262.14 L 204.06,262.80 L 204.20,263.56 L 203.54,264.07 L 203.51,264.76 L 202.86,265.43 L 203.54,266.45 L 205.89,265.77 L 205.87,266.35 L 206.79,267.22 L 209.60,265.82 L 209.82,265.98 L 209.63,266.35 L 209.93,267.23 L 210.89,267.92 L 213.89,268.41 L 213.87,268.92 L 213.60,269.13 L 213.76,269.64 L 215.70,269.43 L 217.47,270.64 L 219.59,269.39 L 219.81,268.64 L 219.27,267.87 L 219.21,266.81 L 219.48,266.30 L 220.42,266.40 L 221.35,267.42 L 221.78,267.34 L 220.78,265.19 L 220.79,264.60 L 221.13,264.30 L 223.01,264.88 L 224.93,266.91 L 225.02,267.42 L 224.75,268.14 L 224.79,268.74 L 227.71,267.78 L 229.16,267.72 L 229.51,268.16 L 229.49,268.63 L 228.35,270.12 L 228.71,270.57 L 229.38,269.97 L 230.50,270.18 L 232.74,268.82 L 234.08,269.60 L 234.94,269.11 L 235.50,269.52 L 236.25,268.61 L 236.50,268.99 L 237.27,268.41 L 237.62,267.63 L 239.15,267.80 L 239.47,267.25 L 242.08,266.42 L 243.79,266.61 L 247.16,265.35 L 249.98,263.50 L 249.99,262.83 L 250.62,261.87 L 250.69,260.97 L 251.66,258.61 L 251.57,257.58 L 250.04,255.05 L 249.73,254.01 L 250.12,252.69 L 249.90,252.48 L 250.09,252.36 L 249.97,251.83 L 250.22,251.55 L 250.20,251.03 L 249.68,250.09 L 249.61,248.64 L 249.00,246.42 L 247.81,244.66 L 248.08,242.16 L 247.06,240.45 L 248.20,240.27 L 248.27,239.44 L 250.24,240.94 L 250.50,240.54 L 250.36,240.21 L 250.55,239.38 L 251.35,239.11 L 251.46,238.72 L 251.21,238.36 L 251.65,238.02 L 251.23,237.88 L 251.46,237.35 L 250.50,237.15 L 250.04,236.46 L 251.20,235.83 L 251.08,234.93 L 250.72,234.32 L 251.42,233.25 L 250.76,232.81 L 251.63,232.89 L 251.94,232.43 L 251.80,232.05 L 251.23,232.27 L 250.64,231.27 L 250.97,231.04 L 250.51,230.55 L 251.44,230.18 L 251.49,229.88 L 251.35,229.61 L 251.63,229.24 L 250.93,229.27 L 251.69,228.94 L 251.18,228.69 L 251.63,227.98 L 252.15,228.12 L 252.20,227.57 L 251.13,227.17 L 249.75,227.70 L 249.96,227.43 L 249.64,227.26 L 250.04,226.22 L 249.88,225.78 L 250.12,225.27 L 249.76,225.20 L 250.05,224.36 L 250.44,224.66 L 250.63,223.81 L 250.85,224.11 L 250.88,223.50 L 251.22,223.58 L 251.36,225.13 L 251.15,225.86 L 251.59,226.10 L 251.76,225.28 L 252.30,226.27 L 252.16,224.76 L 252.35,224.57 L 251.97,224.25 L 252.40,223.19 L 252.11,222.71 L 252.12,221.62 L 252.76,221.17 L 253.78,222.07 L 254.02,221.85 L 254.12,221.64 L 253.85,221.30 L 254.03,221.19 L 254.08,220.16 L 254.33,219.93 L 253.62,219.24 L 254.13,218.67 L 253.99,218.24 L 254.23,217.89 L 255.35,218.24 L 254.85,217.48 L 254.98,216.93 L 255.81,216.74 L 256.48,217.45 L 256.69,216.89 L 256.24,216.14 L 256.29,215.55 L 256.90,215.93 L 257.03,215.30 L 256.71,214.73 L 257.68,215.14 L 257.27,214.20 L 257.60,213.94 L 258.23,214.55 L 258.16,214.16 L 258.48,214.00 L 257.58,213.25 L 257.81,212.95 L 257.53,212.26 L 257.66,212.23 L 257.60,211.57 L 258.06,210.76 L 259.42,210.99 L 259.81,211.57 L 260.02,211.30 L 259.99,210.69 L 259.48,210.21 L 260.29,209.91 L 260.46,209.18 L 260.92,209.85 L 261.32,209.61 L 260.72,208.94 L 261.12,208.63 L 260.95,208.12 L 261.12,207.73 L 261.53,208.12 L 261.40,208.75 L 261.91,208.99 L 261.73,208.68 L 262.29,208.35 L 262.41,207.57 L 262.68,207.62 L 262.65,207.02 L 263.16,208.16 L 263.35,207.84 L 263.10,207.28 L 263.48,207.37 L 263.46,206.83 L 263.15,206.68 L 263.43,206.17 L 263.79,206.61 L 264.24,206.29 L 264.23,205.73 L 264.57,205.59 L 264.53,204.74 L 264.80,204.79 L 264.48,204.12 L 264.95,204.25 L 265.05,203.76 L 265.99,203.11 L 266.73,203.39 L 267.09,202.13 L 267.18,202.73 L 267.94,203.07 L 268.11,201.71 L 269.03,201.44 L 269.11,200.57 L 270.74,200.04 L 270.73,199.46 L 271.04,199.70 L 271.42,198.98 L 272.51,198.38 L 273.27,198.81 L 273.23,199.72 L 273.46,199.61 L 273.35,200.02 L 273.83,201.00 L 273.06,201.34 L 272.94,200.95 L 273.12,200.69 L 273.05,200.32 L 272.34,199.92 L 272.40,200.71 L 271.74,200.66 L 271.63,200.88 L 271.99,200.99 L 270.89,201.40 L 269.55,203.64 L 269.29,205.16 L 268.65,205.22 L 269.43,205.66 L 269.00,206.10 L 269.38,206.60 L 269.30,207.35 L 268.91,207.16 L 268.86,206.59 L 268.15,206.66 L 267.86,205.78 L 267.42,206.33 L 267.45,207.20 L 267.66,207.37 L 267.58,207.66 L 267.18,207.52 L 267.18,206.55 L 266.65,206.38 L 266.65,206.85 L 266.08,207.51 L 265.73,207.23 L 265.86,208.04 L 265.19,208.48 L 264.33,210.52 L 263.60,210.81 L 262.83,210.24 L 262.80,211.04 L 263.21,211.52 L 263.05,212.08 L 262.31,211.75 L 261.78,212.51 L 262.15,212.97 L 262.01,213.18 L 262.07,213.68 L 262.89,214.14 L 262.04,214.49 L 262.02,215.27 L 261.42,215.96 L 261.39,216.65 L 262.17,217.98 L 263.12,218.34 L 263.01,217.45 L 263.76,217.81 L 263.65,216.76 L 263.83,216.63 L 264.38,217.46 L 264.43,216.63 L 265.45,216.94 L 265.11,217.50 L 265.09,218.11 L 264.80,217.53 L 264.39,217.78 L 264.72,218.49 L 264.46,219.53 L 264.12,219.47 L 264.03,218.45 L 263.40,217.99 L 263.35,218.98 L 262.71,218.66 L 262.96,219.88 L 262.78,220.46 L 262.26,219.05 L 262.29,218.56 L 260.74,218.76 L 260.53,219.36 L 261.08,220.46 L 260.69,220.67 L 260.66,221.15 L 261.20,221.58 L 260.79,222.13 L 259.53,218.90 L 258.20,218.50 L 258.42,218.92 L 258.06,219.07 L 258.73,219.87 L 257.99,219.80 L 258.31,220.17 L 257.97,220.62 L 258.23,221.21 L 257.73,221.00 L 257.48,221.58 L 258.33,222.55 L 258.32,223.30 L 257.68,223.56 L 257.09,222.88 L 256.96,223.39 L 256.63,223.35 L 256.61,222.34 L 256.40,222.42 L 256.06,222.95 L 256.20,223.90 L 255.64,223.29 L 255.82,223.74 L 255.63,224.22 L 256.24,225.00 L 255.41,225.36 L 256.11,226.07 L 254.83,226.69 L 254.50,225.78 L 254.53,226.33 L 254.26,226.10 L 254.19,226.49 L 254.44,227.12 L 254.19,227.34 L 254.25,227.75 L 254.81,228.45 L 254.27,228.93 L 254.28,229.71 L 253.99,229.81 L 254.82,230.65 L 253.82,231.40 L 253.87,231.88 L 255.05,231.87 L 255.69,230.91 L 255.58,231.37 L 256.10,231.49 L 254.46,232.91 L 254.59,233.35 L 255.61,233.52 L 254.78,234.38 L 255.01,235.03 L 256.31,235.32 L 256.60,236.00 L 256.95,235.76 L 257.70,236.39 L 257.38,235.83 L 257.78,235.87 L 257.05,235.11 L 257.38,235.16 L 257.21,234.65 L 257.80,234.09 L 260.29,233.61 L 260.17,234.19 L 259.47,233.79 L 258.31,234.70 L 258.19,235.62 L 259.53,236.44 L 258.86,236.27 L 259.10,237.10 L 258.01,237.42 L 259.33,237.91 L 259.03,238.60 L 259.62,238.63 L 260.03,240.06 L 260.57,239.92 L 261.34,241.02 L 261.35,242.32 L 261.05,243.38 L 262.20,244.82 L 262.51,245.72 L 262.19,246.29 L 261.35,245.79 L 261.51,246.18 L 261.25,246.37 L 261.32,247.05 L 261.84,247.16 L 261.90,248.05 L 263.39,247.64 L 263.66,248.10 L 262.93,248.50 L 263.05,248.84 L 262.92,249.09 L 261.93,249.20 L 262.21,249.68 L 262.15,250.42 L 263.77,250.10 L 263.85,250.61 L 263.62,251.18 L 264.05,251.30 L 263.98,251.76 L 264.59,252.31 L 263.83,252.60 L 264.61,253.37 L 264.48,253.56 L 263.52,253.26 L 264.16,253.89 L 263.21,254.11 L 263.24,254.50 L 262.83,254.68 L 262.83,255.17 L 261.97,255.41 L 263.21,255.75 L 264.13,254.68 L 264.56,255.27 L 264.49,255.55 L 264.94,255.66 L 264.89,256.37 L 264.23,255.87 L 264.08,255.94 L 264.38,256.71 L 264.24,256.97 L 261.24,257.30 L 261.97,257.91 L 261.45,258.51 L 261.66,258.76 L 262.95,258.16 L 264.07,259.00 L 264.06,258.30 L 265.12,257.83 L 265.14,258.66 L 264.28,259.14 L 265.14,259.41 L 265.17,260.05 L 264.45,260.26 L 265.24,260.76 L 263.41,260.61 L 263.63,261.00 L 263.40,261.22 L 263.83,261.41 L 263.97,262.17 L 263.51,262.22 L 264.14,263.15 L 264.43,262.50 L 265.44,262.29 L 265.57,263.20 L 264.97,265.12 L 265.44,264.49 L 266.05,264.93 L 266.48,263.77 L 266.78,263.91 L 266.88,264.57 L 266.60,265.44 L 266.72,266.23 L 266.61,266.51 L 265.83,266.80 L 265.34,265.87 L 265.03,267.31 L 264.81,267.23 L 264.72,266.26 L 264.56,266.94 L 264.26,266.97 L 263.93,265.99 L 262.08,265.50 L 263.01,266.33 L 262.22,266.18 L 263.18,267.01 L 262.37,267.14 L 262.92,268.25 L 263.44,267.85 L 264.89,268.53 L 264.12,269.61 L 265.03,269.47 L 264.47,271.09 L 262.91,270.62 L 262.69,270.76 L 263.15,271.19 L 262.53,271.59 L 264.32,271.89 L 264.15,272.50 L 263.55,273.07 L 263.21,272.58 L 262.27,273.04 L 262.54,273.62 L 265.22,273.11 L 264.49,274.24 L 264.65,274.43 L 264.49,274.76 L 263.24,275.07 L 261.41,274.12 L 262.69,276.21 L 262.68,276.66 L 261.93,277.83 L 261.05,278.14 L 260.91,277.83 L 260.92,276.63 L 260.66,275.98 L 259.41,275.91 L 259.35,276.27 L 259.83,277.54 L 258.73,277.29 L 258.65,277.73 L 257.59,278.15 L 259.38,278.27 L 259.91,279.16 L 257.42,279.68 L 256.81,280.31 L 259.81,280.54 L 259.64,280.93 L 252.85,285.01 L 248.66,285.93 L 249.00,286.39 L 245.45,287.15 L 244.04,287.98 L 245.01,288.11 L 244.33,288.31 L 244.85,288.47 L 244.22,288.76 L 244.83,289.09 L 244.23,289.50 L 244.57,289.45 L 244.41,289.63 L 240.65,290.10 L 235.70,289.35 L 236.07,289.80 L 232.87,288.76 L 231.85,288.73 L 232.02,289.05 L 231.53,289.25 L 229.91,288.43 L 229.40,288.85 L 229.54,289.50 L 227.87,288.18 L 228.03,288.62 L 227.76,288.70 L 227.94,289.18 L 227.35,288.23 L 227.76,289.20 L 227.73,289.87 L 229.28,291.74 L 228.89,291.95 L 231.40,294.07 L 232.16,295.37 L 233.15,294.66 L 238.39,295.60 L 238.21,296.44 L 236.74,298.57 L 234.96,299.35 L 235.70,299.24 L 235.43,299.40 L 233.23,300.04 L 232.85,299.45 L 227.37,298.00 L 223.50,297.65 L 220.51,296.24 L 220.76,296.61 L 219.65,297.47 L 218.52,297.40 L 227.97,301.32 L 228.16,302.52 L 227.21,303.46 L 221.57,304.21 L 216.70,301.63 L 213.85,298.26 L 213.71,298.45 L 213.94,299.39 L 214.31,299.67 L 214.24,300.01 L 215.68,301.68 L 215.32,301.89 L 215.02,301.17 L 214.04,300.69 L 213.90,301.31 L 213.59,301.31 L 214.99,303.71 L 218.35,305.69 L 219.14,306.70 L 219.77,306.62 L 219.29,307.27 L 219.63,308.28 L 221.13,309.16 L 221.36,308.69 L 221.01,308.05 L 221.03,307.44 L 221.27,307.00 L 229.93,307.36 L 230.96,308.19 L 231.28,308.92 L 230.89,310.21 L 229.71,311.61 L 227.96,312.11 L 222.92,311.90 L 226.06,313.22 L 230.50,312.57 L 230.55,313.26 L 230.90,314.01 L 231.19,313.88 L 232.41,315.32 L 231.75,316.34 L 233.45,317.23 L 231.62,317.69 L 232.10,318.05 L 233.69,318.24 L 235.32,317.41 L 238.69,318.53 L 238.70,317.65 L 238.97,317.10 L 242.62,316.15 L 243.55,316.54 L 243.56,317.59 L 244.37,318.06 L 244.50,318.63 L 246.28,318.99 L 247.89,318.63 L 248.76,319.05 L 247.95,319.38 L 248.06,319.53 L 255.17,322.26 L 261.75,322.80 L 262.04,323.16 L 257.59,323.45 L 258.05,322.86 L 257.34,323.45 L 256.19,323.52 L 256.64,323.11 L 256.41,322.98 L 254.02,323.60 L 254.17,324.10 L 258.93,324.07 L 258.80,324.40 L 258.94,324.46 L 252.76,325.21 L 254.16,325.47 L 253.46,326.21 L 253.19,326.88 L 253.64,327.22 L 253.16,327.53 L 253.27,327.67 L 255.04,327.30 L 255.39,328.31 L 256.76,327.96 L 256.61,328.12 L 256.80,328.34 L 258.13,327.61 L 259.26,327.87 L 259.58,327.30 L 262.06,327.51 L 265.78,326.71 L 264.18,327.89 L 260.46,329.08 L 261.12,330.18 L 261.03,330.44 L 262.37,332.14 L 261.82,332.56 L 262.59,332.28 L 263.07,332.76 L 263.75,331.59 L 264.12,332.09 L 264.30,331.72 L 264.50,332.37 L 264.19,333.45 L 262.55,334.82 L 264.67,334.96 L 264.19,335.36 L 264.55,335.55 L 267.84,335.45 L 271.78,331.72 L 274.80,329.93 L 275.74,328.79 L 277.28,329.06 L 277.74,327.94 L 280.17,326.95 L 279.33,326.86 L 283.02,326.65 L 287.19,325.28 Z M 772.01,300.16 L 770.99,299.98 L 769.59,300.58 L 769.11,300.29 L 768.86,299.22 L 770.66,299.91 L 772.25,298.42 L 772.59,299.34 L 772.01,300.16 Z M 763.72,277.20 L 763.77,277.43 L 763.61,277.58 L 763.59,277.10 L 763.72,277.20 Z M 764.48,275.47 L 765.12,275.13 L 764.99,275.66 L 764.53,275.70 L 764.68,276.37 L 764.28,276.62 L 764.53,276.85 L 764.36,277.26 L 763.75,276.30 L 764.48,275.47 Z M 763.23,246.60 L 763.48,246.77 L 762.91,246.92 L 763.23,246.60 Z M 766.50,226.91 L 766.39,227.48 L 765.90,227.64 L 765.90,225.76 L 766.50,226.91 Z M 762.65,222.93 L 762.40,222.00 L 762.80,222.07 L 762.87,222.90 L 762.65,222.93 Z M 299.81,181.23 L 299.85,180.87 L 300.00,181.34 L 299.81,181.23 Z M 267.57,313.47 L 267.61,313.95 L 267.21,314.29 L 267.26,314.82 L 267.01,315.59 L 267.85,315.34 L 266.98,316.05 L 266.92,316.39 L 267.41,316.39 L 267.07,317.06 L 265.22,318.52 L 261.06,317.87 L 260.09,317.27 L 259.69,316.03 L 258.24,316.12 L 257.14,317.10 L 251.78,314.81 L 251.54,314.24 L 252.80,313.33 L 252.96,313.49 L 252.88,314.34 L 253.51,314.69 L 262.78,314.51 L 264.03,313.73 L 263.30,313.65 L 262.65,312.41 L 263.92,311.88 L 263.28,311.29 L 266.50,309.69 L 265.59,310.24 L 267.11,310.49 L 266.99,310.78 L 267.43,311.00 L 266.99,310.92 L 266.97,311.36 L 267.50,311.38 L 267.01,311.63 L 267.15,312.41 L 266.75,312.58 L 267.73,312.77 L 268.25,313.44 L 267.57,313.47 Z M 253.80,309.47 L 251.78,309.77 L 254.32,310.51 L 253.55,310.93 L 254.56,311.69 L 252.64,312.56 L 252.40,311.75 L 251.05,311.33 L 251.53,310.61 L 249.24,309.03 L 253.80,309.47 Z M 328.51,309.78 L 327.79,309.80 L 327.55,309.72 L 328.24,308.78 L 329.08,309.12 L 328.43,309.49 L 328.51,309.78 Z M 249.75,306.68 L 251.00,307.04 L 249.98,307.94 L 250.57,308.33 L 250.07,308.67 L 247.62,308.20 L 250.07,307.33 L 247.90,307.44 L 249.75,306.68 Z M 249.77,306.17 L 248.39,306.38 L 249.58,306.09 L 249.77,306.17 Z M 318.39,307.26 L 317.91,306.47 L 318.69,307.11 L 318.53,306.76 L 321.10,305.86 L 324.63,307.36 L 318.39,307.26 Z M 232.21,303.45 L 232.46,303.49 L 232.17,303.93 L 232.19,304.34 L 231.89,304.12 L 232.21,303.45 Z M 246.01,306.72 L 245.19,308.03 L 245.55,308.06 L 244.84,308.35 L 245.57,308.85 L 245.03,309.09 L 245.23,309.33 L 243.68,309.96 L 241.24,309.67 L 240.41,308.49 L 240.89,306.60 L 243.13,304.47 L 249.83,300.99 L 251.13,300.55 L 251.99,300.94 L 251.39,301.37 L 251.70,301.47 L 246.01,306.72 Z M 283.56,313.27 L 285.59,311.52 L 288.30,308.87 L 288.34,308.25 L 288.02,307.49 L 287.25,307.17 L 287.81,306.12 L 287.88,305.27 L 287.64,304.97 L 288.41,304.11 L 287.93,303.98 L 288.29,303.37 L 288.07,303.15 L 290.49,299.83 L 290.86,298.83 L 295.06,296.93 L 297.92,297.24 L 301.08,298.76 L 302.62,300.16 L 302.83,301.15 L 302.40,302.51 L 299.33,303.08 L 299.50,303.46 L 299.18,303.80 L 302.80,303.89 L 303.42,304.94 L 303.44,306.00 L 304.15,306.48 L 303.67,306.87 L 304.29,307.65 L 304.59,308.78 L 304.49,310.57 L 304.14,311.69 L 302.54,311.99 L 303.47,312.76 L 303.26,313.37 L 289.51,316.66 L 289.56,317.22 L 289.34,317.37 L 279.64,317.96 L 279.09,317.03 L 279.16,315.93 L 279.79,315.80 L 281.28,313.32 L 281.32,312.75 L 282.47,313.22 L 283.82,312.55 L 283.29,313.37 L 283.56,313.27 Z M 290.11,297.55 L 291.45,296.74 L 291.67,296.77 L 290.11,297.55 Z M 354.49,274.77 L 353.68,274.52 L 353.38,272.82 L 352.67,272.11 L 351.02,272.10 L 353.01,271.05 L 353.58,269.22 L 354.13,268.60 L 354.41,269.09 L 354.45,269.99 L 354.02,272.08 L 354.74,274.27 L 354.49,274.77 Z M 236.05,267.05 L 236.14,267.12 L 236.03,267.30 L 236.05,267.05 Z M 240.03,266.37 L 239.79,266.07 L 240.04,265.84 L 240.45,266.11 L 240.03,266.37 Z M 236.23,265.29 L 236.62,265.50 L 235.52,267.37 L 235.20,266.70 L 235.83,265.90 L 235.81,265.43 L 236.23,265.29 Z M 167.71,265.80 L 166.79,265.88 L 166.32,264.65 L 166.76,264.23 L 167.71,265.80 Z M 200.95,263.69 L 201.49,264.13 L 200.69,265.23 L 199.51,265.19 L 199.25,264.53 L 199.99,264.46 L 200.24,263.84 L 200.95,263.69 Z M 234.44,263.82 L 235.07,264.56 L 234.43,266.33 L 233.87,266.67 L 234.32,266.76 L 234.33,267.24 L 234.75,267.74 L 234.52,268.57 L 234.24,268.78 L 231.39,266.97 L 230.83,265.69 L 231.43,264.94 L 232.17,265.39 L 233.25,264.88 L 231.61,263.90 L 232.44,263.41 L 234.44,263.82 Z M 191.42,264.13 L 190.83,263.76 L 191.15,263.39 L 191.66,263.86 L 191.42,264.13 Z M 182.35,262.30 L 182.78,262.47 L 182.35,262.76 L 181.93,262.54 L 182.35,262.30 Z M 198.39,264.03 L 197.96,265.30 L 196.65,265.96 L 196.78,264.29 L 197.04,263.92 L 196.25,261.98 L 197.97,261.65 L 198.32,262.57 L 198.00,263.40 L 198.39,264.03 Z M 192.72,261.54 L 193.09,261.64 L 192.81,262.15 L 192.53,261.77 L 192.72,261.54 Z M 264.83,261.80 L 264.51,261.86 L 264.65,261.51 L 264.94,261.66 L 264.83,261.80 Z M 190.22,261.96 L 188.28,262.26 L 189.82,261.02 L 190.22,261.96 Z M 364.22,262.50 L 363.60,262.52 L 363.30,261.36 L 363.69,260.97 L 364.22,262.50 Z M 243.45,259.39 L 243.52,259.46 L 242.99,259.55 L 243.45,259.39 Z M 266.25,259.04 L 266.43,259.36 L 266.26,259.58 L 266.09,259.23 L 266.25,259.04 Z M 372.25,258.98 L 371.68,259.10 L 371.18,258.23 L 371.53,257.85 L 372.25,258.98 Z M 187.94,260.11 L 187.74,260.57 L 186.62,260.80 L 186.45,260.97 L 186.79,261.24 L 186.54,261.80 L 185.08,261.35 L 184.59,261.78 L 183.87,261.28 L 180.93,261.73 L 180.73,261.52 L 181.03,260.99 L 179.12,261.22 L 178.96,260.97 L 179.59,260.39 L 173.41,259.16 L 172.61,258.28 L 173.14,257.67 L 177.48,256.64 L 177.90,257.13 L 176.77,257.84 L 177.90,257.70 L 178.09,258.18 L 178.89,257.38 L 180.70,258.57 L 180.81,258.51 L 180.48,257.86 L 179.66,257.28 L 180.32,256.26 L 181.04,256.20 L 182.26,256.90 L 181.58,257.67 L 181.71,258.15 L 181.44,258.91 L 182.07,258.38 L 182.55,258.64 L 182.33,258.96 L 182.75,258.81 L 182.46,257.24 L 183.10,257.09 L 183.39,257.22 L 183.06,257.51 L 183.63,257.71 L 183.07,258.50 L 183.57,259.26 L 184.47,256.81 L 185.87,256.73 L 186.52,257.26 L 186.36,257.94 L 185.53,257.94 L 185.82,258.23 L 184.44,259.30 L 185.06,259.64 L 187.43,258.17 L 187.57,258.37 L 187.36,258.48 L 187.29,258.55 L 187.77,258.87 L 187.46,259.25 L 186.15,259.43 L 185.74,259.81 L 187.94,260.11 Z M 264.99,251.41 L 264.54,250.92 L 265.36,250.57 L 265.49,251.42 L 264.99,251.41 Z M 230.82,252.01 L 230.21,251.80 L 229.91,250.84 L 230.87,249.98 L 232.89,249.56 L 233.43,248.26 L 234.23,249.68 L 234.51,249.39 L 234.53,248.21 L 235.33,248.76 L 235.26,248.13 L 235.81,248.17 L 236.56,249.15 L 234.67,250.91 L 230.82,252.01 Z M 265.07,249.12 L 264.48,248.51 L 264.51,248.01 L 264.81,247.77 L 265.54,247.81 L 265.70,248.35 L 265.07,249.12 Z M 392.24,247.56 L 393.01,246.34 L 393.70,246.21 L 394.04,246.93 L 393.90,247.77 L 392.38,247.95 L 392.24,247.56 Z M 240.41,246.31 L 241.51,246.33 L 241.03,247.26 L 240.64,247.22 L 240.41,246.31 Z M 242.84,245.94 L 243.04,246.03 L 242.96,246.52 L 242.74,246.36 L 242.84,245.94 Z M 263.80,244.20 L 263.54,243.92 L 263.85,243.30 L 264.21,244.06 L 263.80,244.20 Z M 231.49,244.42 L 231.72,243.57 L 232.82,243.23 L 232.37,242.74 L 233.42,242.39 L 233.96,242.70 L 234.67,244.05 L 234.13,244.25 L 234.25,244.92 L 233.83,245.46 L 232.26,245.21 L 231.49,244.42 Z M 237.85,240.82 L 238.53,240.35 L 240.11,242.16 L 239.96,242.35 L 240.07,242.62 L 239.63,242.17 L 239.54,242.51 L 238.12,241.50 L 237.85,240.82 Z M 262.40,241.18 L 262.50,241.55 L 262.31,242.33 L 262.01,242.47 L 261.78,240.97 L 260.94,238.81 L 261.80,238.79 L 262.77,240.61 L 262.40,241.18 Z M 239.09,262.41 L 238.86,262.18 L 239.04,261.60 L 238.22,261.87 L 237.41,260.77 L 238.50,259.68 L 239.60,260.30 L 242.87,260.53 L 244.19,259.46 L 243.43,258.80 L 241.41,259.80 L 239.88,258.92 L 242.73,257.78 L 242.85,257.21 L 241.35,256.72 L 240.38,257.16 L 240.37,256.49 L 239.25,255.23 L 238.78,256.14 L 238.48,256.09 L 238.42,256.91 L 238.09,257.31 L 235.82,256.93 L 236.66,257.93 L 235.54,259.02 L 234.76,258.15 L 233.74,258.29 L 232.54,257.33 L 232.38,257.00 L 232.44,256.50 L 232.94,256.17 L 232.41,255.55 L 233.30,254.64 L 234.91,255.53 L 234.59,254.13 L 235.06,253.66 L 236.61,255.18 L 237.03,254.71 L 236.31,253.86 L 236.48,253.26 L 238.32,253.82 L 239.58,253.60 L 239.30,253.03 L 237.50,252.05 L 238.25,251.50 L 240.69,252.15 L 241.42,251.54 L 241.46,250.85 L 243.53,250.71 L 243.98,250.99 L 244.45,252.10 L 244.80,252.11 L 244.92,250.08 L 242.89,249.94 L 241.63,248.91 L 242.23,247.46 L 244.18,246.54 L 245.36,246.97 L 243.93,245.90 L 244.01,245.25 L 242.89,245.08 L 242.09,245.82 L 240.48,244.59 L 240.16,244.00 L 240.37,242.95 L 240.20,242.33 L 240.62,241.87 L 240.57,241.37 L 240.85,240.61 L 239.78,239.65 L 239.91,239.54 L 239.56,238.20 L 239.97,237.23 L 243.55,236.09 L 244.23,236.87 L 244.21,237.54 L 244.46,238.17 L 244.23,238.46 L 244.40,238.83 L 244.13,239.14 L 244.20,239.57 L 245.02,239.52 L 245.96,241.77 L 246.03,243.78 L 247.29,246.80 L 248.16,249.72 L 247.82,249.79 L 248.22,250.19 L 248.38,253.39 L 248.28,254.03 L 248.53,255.18 L 248.43,256.64 L 247.82,257.15 L 248.13,258.23 L 247.92,259.48 L 247.19,259.36 L 246.85,260.29 L 246.16,260.74 L 246.35,261.25 L 246.18,261.52 L 243.28,262.37 L 242.95,262.31 L 242.79,261.63 L 242.39,262.26 L 239.09,262.41 Z M 264.40,235.55 L 264.91,235.45 L 265.22,236.02 L 264.40,235.55 Z M 250.66,231.93 L 250.54,231.74 L 250.58,231.66 L 250.81,231.70 L 250.66,231.93 Z M 251.23,229.74 L 251.43,229.90 L 251.33,230.01 L 251.02,229.82 L 251.23,229.74 Z M 250.56,230.05 L 250.46,229.87 L 250.59,229.62 L 250.36,229.53 L 250.93,229.63 L 250.56,230.05 Z M 255.69,228.05 L 256.53,228.19 L 256.21,228.56 L 255.66,228.47 L 255.69,228.05 Z M 249.98,229.34 L 249.39,228.64 L 250.01,227.98 L 250.84,228.34 L 249.98,229.34 Z M 251.11,228.00 L 250.75,227.97 L 251.18,227.49 L 251.53,227.54 L 251.11,228.00 Z M 249.58,226.15 L 249.77,226.12 L 249.63,226.41 L 249.46,226.43 L 249.58,226.15 Z M 249.57,225.92 L 249.31,225.78 L 249.62,225.38 L 249.83,225.44 L 249.57,225.92 Z M 249.84,224.31 L 249.91,224.66 L 249.70,224.95 L 249.84,224.31 Z M 250.01,223.34 L 249.77,223.18 L 250.21,222.21 L 250.58,222.85 L 250.01,223.34 Z M 246.27,227.73 L 246.41,226.91 L 247.03,225.80 L 248.05,222.78 L 249.20,221.46 L 249.65,221.61 L 248.83,223.59 L 249.06,223.97 L 248.92,224.42 L 249.61,224.99 L 248.33,226.49 L 248.97,226.66 L 248.95,227.16 L 248.60,227.87 L 247.97,227.78 L 248.01,228.22 L 247.61,229.03 L 246.89,229.14 L 246.27,227.73 Z M 250.78,219.42 L 251.05,219.54 L 250.99,219.78 L 250.75,219.85 L 250.78,219.42 Z M 250.95,218.81 L 251.38,219.01 L 251.16,219.17 L 250.95,218.81 Z M 251.91,217.68 L 252.10,217.81 L 251.92,218.09 L 252.00,218.63 L 251.36,219.43 L 251.91,217.68 Z M 253.94,217.15 L 253.77,217.17 L 253.82,216.87 L 253.94,217.15 Z M 253.52,216.66 L 253.26,216.71 L 253.40,216.46 L 253.52,216.66 Z M 254.79,216.13 L 255.12,216.43 L 254.99,216.54 L 254.79,216.13 Z M 253.25,215.45 L 253.17,214.95 L 253.42,214.20 L 254.17,214.07 L 254.08,214.92 L 253.53,215.23 L 253.75,216.14 L 253.11,216.44 L 252.91,216.03 L 253.25,215.45 Z M 254.09,213.91 L 253.93,213.74 L 253.95,213.64 L 254.38,213.65 L 254.09,213.91 Z M 267.45,211.94 L 267.02,211.31 L 267.17,211.03 L 267.92,212.03 L 267.45,211.94 Z M 260.03,209.75 L 259.71,209.57 L 259.84,209.38 L 260.17,209.62 L 260.03,209.75 Z M 260.22,209.26 L 259.93,209.14 L 260.10,209.06 L 260.34,209.16 L 260.22,209.26 Z M 259.28,209.54 L 258.68,209.82 L 259.00,209.02 L 259.65,208.58 L 259.28,209.54 Z M 260.66,208.74 L 260.52,208.48 L 260.74,208.21 L 260.81,208.60 L 260.66,208.74 Z M 262.14,208.16 L 262.05,208.09 L 262.07,207.96 L 262.14,208.16 Z M 262.10,207.32 L 262.19,207.42 L 262.02,207.88 L 261.89,207.61 L 262.10,207.32 Z M 272.03,206.51 L 272.08,206.67 L 272.03,206.87 L 271.88,206.73 L 272.03,206.51 Z M 263.23,206.05 L 263.36,206.28 L 263.19,206.36 L 263.05,206.11 L 263.23,206.05 Z M 273.46,205.90 L 273.60,205.95 L 272.85,207.51 L 272.34,207.30 L 272.35,206.74 L 273.46,205.90 Z M 260.38,207.54 L 259.22,208.85 L 258.76,208.64 L 258.87,208.82 L 258.48,209.46 L 257.11,208.42 L 257.33,207.69 L 258.10,207.08 L 257.93,206.79 L 258.54,206.51 L 258.46,206.04 L 258.72,205.47 L 259.66,205.65 L 259.20,206.63 L 259.75,206.37 L 259.46,206.92 L 259.77,206.91 L 259.40,207.61 L 260.21,207.21 L 260.38,207.54 Z M 274.14,205.18 L 274.26,205.27 L 273.56,205.83 L 274.14,205.18 Z M 262.78,204.74 L 262.77,204.45 L 262.91,204.37 L 262.98,204.84 L 262.78,204.74 Z M 260.47,206.95 L 260.92,206.75 L 260.73,206.36 L 261.19,205.28 L 260.84,204.56 L 261.14,204.28 L 260.95,204.03 L 261.52,203.79 L 261.63,204.35 L 262.20,204.64 L 261.75,204.89 L 262.11,205.13 L 261.76,205.71 L 261.85,206.13 L 260.76,207.08 L 260.47,206.95 Z M 262.60,203.41 L 262.70,203.47 L 262.08,204.16 L 262.60,203.41 Z M 271.72,206.34 L 271.88,205.72 L 271.43,205.71 L 271.55,206.26 L 271.44,206.50 L 271.18,206.38 L 271.32,205.96 L 271.19,205.82 L 270.63,206.28 L 270.41,205.85 L 271.08,205.30 L 270.70,205.12 L 270.82,204.37 L 270.09,204.26 L 270.44,203.17 L 271.57,202.27 L 271.65,202.97 L 271.36,203.51 L 271.52,203.71 L 271.41,204.13 L 271.74,204.19 L 271.68,203.88 L 272.24,203.18 L 272.15,203.82 L 272.99,204.25 L 272.44,204.66 L 273.18,204.76 L 272.08,205.62 L 272.68,206.19 L 271.72,206.34 Z M 271.79,202.44 L 273.14,202.59 L 272.79,203.02 L 271.79,202.44 Z M 262.65,201.84 L 263.08,202.08 L 262.92,202.38 L 262.65,201.84 Z M 264.48,202.61 L 264.92,202.56 L 264.89,202.02 L 265.19,201.80 L 264.88,201.42 L 265.44,201.64 L 265.11,202.39 L 265.27,202.72 L 264.84,203.09 L 264.48,202.61 Z M 272.06,201.26 L 272.44,201.16 L 272.30,201.57 L 272.06,201.26 Z M 274.22,200.68 L 274.52,200.74 L 274.12,201.13 L 274.02,200.92 L 274.22,200.68 Z M 267.12,200.65 L 267.16,200.93 L 266.95,200.86 L 267.12,200.65 Z M 275.63,200.84 L 275.02,200.15 L 275.99,199.67 L 276.18,200.13 L 275.63,200.84 Z M 262.20,199.24 L 261.61,199.29 L 261.77,198.51 L 262.33,199.02 L 262.20,199.24 Z M 274.10,197.98 L 274.30,198.01 L 274.24,198.32 L 274.00,198.30 L 274.10,197.98 Z M 277.68,198.82 L 277.39,199.33 L 276.02,198.84 L 274.77,199.88 L 274.32,199.39 L 274.73,198.45 L 275.61,197.90 L 277.42,198.29 L 277.68,198.82 Z M 274.18,197.26 L 274.50,196.75 L 275.48,197.30 L 274.95,198.12 L 274.18,197.26 Z M 265.14,196.41 L 265.43,196.96 L 265.29,197.02 L 265.01,196.51 L 265.29,196.21 L 265.56,196.67 L 265.14,196.41 Z M 260.64,197.51 L 261.07,196.31 L 261.54,196.06 L 260.64,197.51 Z M 263.42,195.13 L 264.00,195.06 L 263.53,195.71 L 263.32,195.64 L 263.42,195.13 Z M 264.01,194.16 L 264.84,194.03 L 264.88,193.31 L 265.58,194.04 L 266.38,193.25 L 266.64,193.70 L 266.49,193.95 L 266.61,194.38 L 267.10,194.28 L 266.02,195.27 L 266.00,194.75 L 265.70,194.99 L 265.95,194.39 L 265.82,194.27 L 264.09,194.63 L 264.01,194.16 Z M 267.11,193.59 L 266.68,193.20 L 267.66,193.53 L 267.11,193.59 Z M 267.92,192.54 L 268.12,192.89 L 267.76,193.23 L 267.35,192.70 L 267.92,192.54 Z M 269.26,192.23 L 268.73,192.50 L 268.40,192.11 L 269.26,192.23 Z M 269.81,191.82 L 269.32,191.29 L 268.87,191.62 L 269.56,190.22 L 270.19,189.68 L 271.84,189.55 L 272.02,190.31 L 270.77,190.53 L 270.84,191.08 L 270.57,191.37 L 270.27,190.85 L 270.49,190.70 L 270.05,190.61 L 269.70,191.34 L 270.07,191.22 L 269.81,191.82 Z M 279.78,185.48 L 279.49,185.19 L 279.87,184.23 L 279.78,185.48 Z M 277.84,184.09 L 278.55,184.09 L 277.66,184.45 L 277.31,185.17 L 276.78,184.14 L 277.84,184.09 Z M 300.63,181.83 L 300.34,181.44 L 301.22,181.36 L 300.63,181.83 Z M 297.92,180.15 L 298.94,180.29 L 299.58,180.88 L 299.69,181.58 L 298.25,180.55 L 297.76,180.74 L 297.92,180.15 Z M 40.94,332.49 L 39.11,333.33 L 37.20,332.88 L 35.97,331.29 L 40.94,332.49 Z M 24.92,333.78 L 22.66,333.58 L 18.00,331.26 L 24.92,333.78 Z M 49.31,325.82 L 48.67,326.21 L 48.81,326.07 L 46.62,324.12 L 49.31,325.82 Z M 36.16,322.05 L 36.32,321.91 L 35.58,321.52 L 35.89,320.95 L 37.81,320.62 L 42.94,321.92 L 43.05,322.15 L 42.92,322.27 L 43.52,322.67 L 36.16,322.05 Z M 56.97,312.22 L 57.09,312.13 L 54.08,310.78 L 58.01,312.16 L 56.97,312.22 Z M 54.26,310.55 L 53.65,310.65 L 53.80,310.46 L 54.26,310.55 Z M 38.37,310.62 L 38.47,310.76 L 36.89,310.55 L 37.69,310.51 L 37.42,310.26 L 38.37,310.62 Z M 333.12,311.04 L 332.77,311.25 L 333.36,311.78 L 332.52,312.14 L 332.29,311.94 L 332.72,311.85 L 332.16,311.36 L 331.82,311.72 L 329.91,311.33 L 329.17,310.98 L 329.51,310.73 L 328.69,310.73 L 329.16,310.35 L 328.53,310.05 L 329.68,309.56 L 330.90,310.74 L 332.83,310.92 L 331.27,309.88 L 331.56,309.65 L 331.90,310.25 L 334.18,311.42 L 333.12,311.04 Z M 45.92,308.82 L 46.77,310.46 L 42.86,311.03 L 36.71,308.56 L 34.83,307.19 L 35.06,307.18 L 34.88,306.74 L 35.16,305.27 L 36.05,304.77 L 35.93,304.62 L 37.24,303.26 L 39.22,303.57 L 45.92,308.82 Z M 68.43,294.80 L 68.42,294.68 L 69.26,294.74 L 68.43,294.80 Z M 68.02,294.29 L 67.40,293.76 L 68.14,293.62 L 69.07,294.31 L 68.02,294.29 Z M 65.89,294.04 L 65.56,294.25 L 63.31,293.54 L 64.48,293.21 L 65.89,294.04 Z M 59.76,293.50 L 58.96,293.13 L 59.74,293.10 L 59.90,293.33 L 59.76,293.50 Z M 72.92,293.13 L 72.48,293.46 L 72.00,292.95 L 72.92,293.13 Z M 776.37,295.24 L 775.27,296.04 L 774.22,296.42 L 772.02,296.06 L 770.39,297.53 L 770.25,297.37 L 770.87,296.53 L 769.90,296.51 L 770.88,296.28 L 769.26,295.32 L 770.39,294.14 L 769.78,293.51 L 770.40,292.81 L 771.05,292.94 L 771.31,293.33 L 771.26,293.85 L 772.37,294.50 L 773.82,294.22 L 776.16,294.78 L 776.37,295.24 Z M 57.15,292.14 L 57.70,292.58 L 57.36,292.75 L 56.53,292.47 L 57.15,292.14 Z M 771.01,291.29 L 771.06,291.45 L 770.79,291.27 L 771.01,291.29 Z M 70.14,291.53 L 69.02,291.89 L 68.36,291.68 L 68.21,291.11 L 70.14,291.53 Z M 65.73,292.31 L 64.89,291.64 L 65.79,290.87 L 67.02,290.88 L 68.39,292.50 L 65.73,292.31 Z M 74.70,290.96 L 73.26,291.74 L 73.04,290.90 L 73.17,290.51 L 75.00,290.90 L 75.19,291.24 L 74.70,290.96 Z M 69.05,290.69 L 67.80,290.12 L 68.20,289.77 L 70.42,290.12 L 69.05,290.69 Z M 65.33,290.33 L 64.72,289.95 L 66.21,289.58 L 66.49,289.93 L 65.33,290.33 Z M 69.01,289.57 L 68.56,289.25 L 70.07,289.52 L 69.01,289.57 Z M 71.13,288.99 L 71.10,288.82 L 72.09,289.42 L 71.13,288.99 Z M 73.91,289.26 L 73.19,289.19 L 73.69,289.68 L 73.44,289.79 L 72.52,289.11 L 72.80,288.35 L 73.91,289.26 Z M 72.57,285.35 L 73.54,285.66 L 74.09,286.80 L 73.20,286.60 L 72.31,285.59 L 72.57,285.35 Z M 762.17,281.99 L 761.81,282.86 L 761.28,282.65 L 762.17,281.99 Z M 77.33,282.80 L 76.93,283.02 L 75.20,282.02 L 75.84,281.58 L 77.33,282.80 Z M 761.27,281.02 L 761.37,281.27 L 761.19,281.44 L 761.08,281.26 L 761.27,281.02 Z M 105.91,274.13 L 105.48,274.77 L 104.67,274.28 L 105.91,274.13 Z M 108.69,275.45 L 108.43,275.50 L 107.01,275.14 L 106.26,274.26 L 107.37,273.56 L 109.07,274.40 L 108.69,275.45 Z M 117.30,275.37 L 116.55,275.75 L 115.36,274.70 L 115.14,273.53 L 117.49,274.57 L 117.30,275.37 Z M 139.37,273.95 L 139.12,273.87 L 140.07,273.37 L 139.37,273.95 Z M 106.28,272.56 L 106.00,272.30 L 106.26,272.27 L 106.40,272.40 L 106.28,272.56 Z M 140.78,271.83 L 141.14,271.94 L 140.89,272.35 L 139.56,272.75 L 139.11,272.29 L 141.33,270.49 L 141.91,270.73 L 140.78,271.83 Z M 133.49,271.96 L 134.14,271.40 L 133.65,270.55 L 133.85,270.38 L 133.55,270.20 L 135.28,269.91 L 135.84,270.62 L 135.06,271.69 L 133.49,271.96 Z M 132.72,271.41 L 131.05,272.45 L 130.95,273.26 L 131.24,273.48 L 130.89,273.75 L 128.35,274.19 L 126.88,273.67 L 126.60,273.07 L 127.27,272.85 L 126.79,272.31 L 127.25,271.39 L 128.16,270.82 L 125.89,270.30 L 126.40,269.24 L 128.28,269.24 L 132.13,269.72 L 132.49,270.25 L 131.70,270.57 L 132.75,270.90 L 132.72,271.41 Z M 777.04,268.89 L 776.58,268.38 L 777.23,266.79 L 777.69,268.10 L 777.04,268.89 Z M 116.86,268.18 L 116.68,267.53 L 117.45,266.50 L 119.77,266.62 L 120.89,267.53 L 120.88,268.12 L 121.75,268.95 L 121.62,269.35 L 120.27,269.39 L 120.30,269.91 L 121.64,269.98 L 122.24,270.59 L 122.44,270.01 L 123.26,269.55 L 124.38,270.41 L 123.98,270.95 L 124.99,271.88 L 124.67,272.60 L 124.87,272.85 L 124.60,273.16 L 122.70,272.92 L 118.94,270.32 L 119.10,269.89 L 118.79,269.16 L 118.06,269.00 L 117.77,269.63 L 117.22,269.55 L 117.41,268.70 L 116.73,268.34 L 116.86,268.18 Z M 553.03,259.16 L 552.91,259.47 L 551.99,259.86 L 552.55,258.59 L 553.03,259.16 Z M 555.08,258.22 L 554.85,257.68 L 555.05,257.15 L 555.39,257.23 L 555.08,258.22 Z M 392.94,251.82 L 393.46,252.60 L 392.83,252.63 L 392.41,251.96 L 392.42,251.53 L 392.94,251.82 Z M 395.38,249.90 L 394.88,251.19 L 393.78,252.21 L 393.64,251.44 L 394.07,251.03 L 392.03,249.30 L 392.93,248.83 L 394.43,249.26 L 393.96,249.86 L 395.38,249.90 Z M 404.59,248.37 L 404.77,248.71 L 404.56,248.87 L 404.34,248.40 L 404.59,248.37 Z M 386.74,247.68 L 386.92,248.03 L 386.33,248.47 L 385.66,247.31 L 386.80,247.17 L 386.74,247.68 Z M 407.23,247.60 L 406.81,248.32 L 405.96,248.52 L 405.74,247.86 L 407.16,246.96 L 407.23,247.60 Z M 559.53,248.42 L 559.16,246.71 L 559.57,246.11 L 559.75,247.10 L 560.45,247.97 L 560.45,248.42 L 559.53,248.42 Z M 409.93,245.96 L 410.27,246.69 L 410.10,247.51 L 409.63,247.72 L 409.00,246.36 L 409.93,245.96 Z M 412.57,245.83 L 412.95,246.36 L 412.54,246.54 L 412.15,246.03 L 412.57,245.83 Z M 759.71,245.78 L 759.82,245.93 L 759.68,246.07 L 759.71,245.78 Z M 414.34,245.23 L 414.53,245.71 L 414.29,245.76 L 413.94,245.14 L 414.34,245.23 Z M 459.73,246.46 L 459.60,247.18 L 457.91,246.95 L 457.58,246.23 L 458.51,244.76 L 459.22,244.93 L 459.73,246.46 Z M 403.26,245.32 L 402.66,247.06 L 402.13,245.60 L 402.18,244.75 L 403.14,244.58 L 403.26,245.32 Z M 424.03,244.82 L 423.42,244.38 L 424.21,244.43 L 424.42,244.62 L 424.03,244.82 Z M 561.62,244.46 L 560.92,244.81 L 561.42,244.10 L 561.62,244.46 Z M 436.97,242.56 L 436.20,243.29 L 435.94,244.80 L 434.57,243.44 L 434.94,242.71 L 436.97,242.56 Z M 506.50,227.96 L 505.36,228.20 L 505.69,227.52 L 505.80,227.54 L 505.54,227.87 L 506.50,227.96 Z M 668.25,223.39 L 668.59,223.23 L 667.73,223.65 L 668.25,223.39 Z M 669.32,222.55 L 668.63,222.95 L 669.00,222.56 L 669.32,222.55 Z M 590.98,223.25 L 590.25,223.90 L 590.31,223.58 L 589.72,223.16 L 589.46,222.41 L 590.35,222.26 L 590.98,223.25 Z M 508.36,222.52 L 507.29,222.42 L 507.50,221.95 L 508.39,222.10 L 508.36,222.52 Z M 592.61,222.09 L 592.01,222.61 L 591.62,222.17 L 592.61,222.09 Z M 589.65,221.32 L 589.01,221.33 L 589.13,220.75 L 589.65,221.32 Z M 619.36,219.69 L 619.90,220.05 L 619.54,220.52 L 619.09,219.85 L 619.36,219.69 Z M 616.43,220.13 L 615.58,219.80 L 615.93,219.43 L 616.43,220.13 Z M 761.21,220.84 L 760.64,219.91 L 760.78,219.66 L 760.66,218.95 L 761.39,220.35 L 761.21,220.84 Z M 622.79,218.73 L 622.37,218.60 L 622.68,218.00 L 622.90,218.10 L 622.79,218.73 Z M 615.62,218.17 L 615.35,218.65 L 613.99,218.46 L 614.37,217.56 L 615.37,217.59 L 615.62,218.17 Z M 624.50,215.95 L 624.23,216.40 L 623.11,216.24 L 623.99,215.71 L 624.50,215.95 Z M 605.93,215.76 L 605.41,216.03 L 604.97,215.53 L 605.55,215.21 L 605.93,215.76 Z M 624.73,213.24 L 625.03,214.11 L 624.37,215.07 L 622.88,214.91 L 622.90,214.08 L 623.48,213.18 L 624.73,213.24 Z M 629.81,213.49 L 629.27,213.57 L 629.12,212.51 L 628.34,211.66 L 629.10,211.62 L 629.81,213.49 Z M 198.64,235.69 L 198.86,235.86 L 198.86,236.24 L 198.65,236.30 L 198.64,235.69 Z" fill="#4A90D9" stroke="#1a5fa8" stroke-width="1.2"/>
</svg>