<svg xmlns="http://www.w3.org/2000/svg" width="800" height="500" viewBox="0 0 800 500">
<rect width="800" height="500" fill="#A8C8E8"/>
<path d="M 243.49,55.28 L 245.16,58.00 L 240.46,60.53 L 229.81,61.35 L 204.95,55.34 L 204.55,52.54 L 201.69,51.45 L 186.53,48.96 L 178.44,46.10 L 169.87,45.30 L 153.83,42.14 L 146.79,41.68 L 138.10,39.01 L 112.94,34.32 L 101.44,29.22 L 90.79,26.70 L 85.30,22.70 L 81.75,22.17 L 81.70,19.66 L 79.15,19.73 L 79.96,18.73 L 82.67,19.20 L 84.50,16.27 L 83.50,14.56 L 68.98,6.59 L 69.19,5.39 L 59.54,2.48 L 58.98,0.00 L 262.70,0.00 L 272.76,6.53 L 270.02,7.64 L 270.70,8.48 L 265.31,9.96 L 265.56,15.91 L 262.28,17.47 L 268.23,22.39 L 264.57,22.91 L 265.07,24.16 L 258.94,25.99 L 258.11,27.65 L 255.52,28.13 L 255.18,29.82 L 261.11,32.18 L 254.03,35.88 L 260.19,41.22 L 265.28,41.36 L 269.01,42.48 L 264.13,43.65 L 263.90,45.68 L 260.25,46.23 L 254.09,49.60 L 249.19,50.52 L 248.09,51.49 L 251.71,52.25 L 252.02,53.54 L 243.49,55.28 Z M 84.64,23.31 L 84.54,23.37 L 83.52,23.18 L 84.64,23.31 Z M 77.96,19.23 L 77.24,19.22 L 77.58,18.93 L 77.96,19.23 Z M 59.07,2.75 L 59.38,2.90 L 57.99,2.69 L 59.07,2.75 Z" fill="#E8E0D0" stroke="#B8B0A0" stroke-width="0.5"/>
<path d="M 550.25,172.63 L 551.03,172.70 L 550.03,172.72 L 550.25,172.63 Z" fill="#E8E0D0" stroke="#B8B0A0" stroke-width="0.5"/>
<path d="M 149.62,354.47 L 152.55,352.38 L 161.92,351.96 L 162.88,354.61 L 159.44,355.81 L 152.70,356.54 L 149.62,354.47 Z" fill="#E8E0D0" stroke="#B8B0A0" stroke-width="0.5"/>
<path d="M 409.63,499.38 L 418.81,498.96 L 420.67,497.94 L 425.94,498.87 L 430.38,498.54 L 423.69,497.61 L 428.12,497.18 L 426.19,496.48 L 428.17,495.93 L 432.80,496.48 L 431.34,497.35 L 437.05,497.68 L 435.08,497.24 L 441.34,496.79 L 442.73,495.71 L 445.76,495.78 L 445.49,494.94 L 451.18,496.53 L 453.39,496.08 L 450.51,495.31 L 454.87,495.43 L 454.55,494.68 L 451.08,494.47 L 454.27,493.77 L 458.30,494.37 L 463.44,493.94 L 463.31,493.16 L 467.18,492.96 L 466.65,491.78 L 469.72,491.85 L 466.08,490.92 L 471.42,491.11 L 472.52,490.42 L 483.14,489.52 L 491.59,489.92 L 495.67,488.16 L 496.60,488.99 L 505.17,489.46 L 507.10,487.57 L 517.55,487.20 L 518.49,485.99 L 536.91,485.26 L 536.79,484.45 L 540.23,484.80 L 544.50,483.80 L 556.91,482.96 L 565.43,483.56 L 564.97,484.82 L 567.56,484.66 L 566.38,485.24 L 571.80,486.59 L 563.04,487.06 L 561.76,486.52 L 563.74,486.16 L 562.98,485.65 L 554.98,485.09 L 555.60,486.19 L 548.20,486.12 L 546.94,486.43 L 550.99,486.58 L 538.60,487.15 L 523.36,490.26 L 520.47,492.36 L 513.23,492.44 L 522.11,493.07 L 517.21,493.67 L 521.47,494.37 L 520.57,495.41 L 516.17,495.14 L 515.60,494.35 L 507.63,494.44 L 504.29,493.23 L 499.32,493.99 L 499.64,495.20 L 502.11,495.43 L 501.10,495.83 L 496.64,495.64 L 496.60,494.30 L 490.65,494.05 L 490.59,494.71 L 484.25,495.63 L 480.24,495.24 L 481.77,496.36 L 474.11,496.97 L 464.42,499.81 L 460.40,500.00 L 453.90,500.00 L 447.42,499.41 L 447.28,500.00 L 415.04,500.00 L 409.63,499.38 Z M 415.80,498.73 L 412.24,498.48 L 413.74,498.21 L 417.47,498.55 L 415.80,498.73 Z M 418.00,498.05 L 414.72,497.89 L 416.57,497.78 L 419.35,497.91 L 418.00,498.05 Z M 407.34,498.45 L 400.57,498.83 L 404.25,497.73 L 411.55,497.12 L 407.34,498.45 Z M 422.91,497.33 L 421.42,496.98 L 423.84,496.60 L 424.60,497.13 L 422.91,497.33 Z M 439.69,496.52 L 438.68,496.43 L 438.88,496.25 L 439.69,496.52 Z M 439.26,495.36 L 440.24,495.50 L 438.27,496.14 L 436.87,495.76 L 439.26,495.36 Z M 551.49,494.23 L 552.00,494.46 L 551.41,494.73 L 549.78,494.54 L 551.49,494.23 Z M 452.00,493.60 L 453.43,493.92 L 451.51,494.03 L 449.99,493.69 L 452.00,493.60 Z M 567.57,493.40 L 569.22,493.46 L 560.66,495.62 L 554.93,495.33 L 555.07,494.56 L 567.57,493.40 Z M 419.77,495.66 L 406.67,497.48 L 401.48,497.19 L 402.73,497.45 L 398.37,498.32 L 382.82,496.88 L 385.38,495.87 L 394.02,495.03 L 392.12,494.63 L 398.99,494.23 L 398.15,493.59 L 401.06,492.80 L 411.64,493.05 L 406.46,494.41 L 412.71,494.05 L 409.41,494.80 L 412.86,494.79 L 408.71,495.77 L 417.85,495.21 L 419.77,495.66 Z M 575.33,492.39 L 576.65,492.52 L 568.71,493.29 L 575.33,492.39 Z M 446.91,491.79 L 446.79,491.38 L 448.40,491.27 L 449.17,491.92 L 446.91,491.79 Z M 420.81,494.85 L 425.90,494.57 L 423.76,494.03 L 428.96,492.53 L 424.95,491.54 L 428.35,491.15 L 426.24,490.80 L 432.71,490.46 L 433.91,491.24 L 440.38,491.64 L 435.30,491.99 L 439.38,492.32 L 435.40,493.13 L 436.40,493.71 L 424.12,495.04 L 420.81,494.85 Z M 444.90,489.93 L 446.03,490.02 L 439.00,490.98 L 444.90,489.93 Z M 547.91,494.01 L 549.74,493.14 L 544.69,493.12 L 546.00,493.89 L 544.76,494.22 L 541.87,494.05 L 543.39,493.48 L 542.00,493.28 L 535.66,493.92 L 533.19,493.33 L 540.74,492.55 L 536.45,492.31 L 537.76,491.27 L 529.49,491.11 L 533.42,489.60 L 546.21,488.35 L 547.20,489.33 L 543.87,490.08 L 545.62,490.35 L 544.46,490.93 L 548.14,491.02 L 547.47,490.59 L 553.77,489.62 L 552.79,490.51 L 562.26,491.11 L 556.11,491.68 L 564.40,491.81 L 551.99,493.01 L 558.75,493.80 L 547.91,494.01 Z M 548.71,488.59 L 563.93,488.80 L 560.04,489.39 L 548.71,488.59 Z M 445.42,487.76 L 450.31,488.09 L 448.54,488.50 L 445.42,487.76 Z M 466.11,488.83 L 471.06,488.76 L 470.75,488.00 L 474.13,487.70 L 470.69,487.17 L 476.95,487.48 L 473.28,488.52 L 475.06,488.98 L 470.21,489.50 L 466.11,488.83 Z M 551.80,486.95 L 556.07,486.82 L 554.52,487.38 L 551.80,486.95 Z M 576.14,486.15 L 579.53,486.23 L 575.01,486.77 L 573.97,486.48 L 576.14,486.15 Z M 495.92,486.11 L 496.41,486.50 L 494.06,486.40 L 495.92,486.11 Z M 592.16,486.38 L 585.24,485.41 L 596.14,484.74 L 598.32,485.38 L 592.16,486.38 Z M 440.31,484.16 L 433.64,484.22 L 435.52,483.14 L 441.82,483.84 L 440.31,484.16 Z M 574.83,482.40 L 577.07,482.45 L 576.42,482.87 L 573.74,482.85 L 574.83,482.40 Z M 615.31,483.57 L 612.05,484.27 L 596.50,483.60 L 582.36,485.05 L 577.37,484.37 L 582.00,483.06 L 591.92,482.30 L 612.39,482.83 L 615.31,483.57 Z M 575.76,481.40 L 579.30,480.70 L 590.40,481.46 L 584.41,482.59 L 575.76,481.40 Z M 473.62,480.22 L 476.83,480.99 L 475.29,481.07 L 472.07,480.36 L 475.28,479.94 L 478.33,480.58 L 473.62,480.22 Z M 422.72,481.75 L 427.57,480.09 L 432.92,479.74 L 422.72,481.75 Z M 454.15,478.45 L 460.73,478.36 L 455.44,479.26 L 452.98,479.16 L 454.15,478.45 Z M 460.84,477.10 L 470.15,476.93 L 470.70,475.93 L 478.50,476.94 L 487.58,475.84 L 490.56,476.46 L 488.83,476.82 L 490.22,477.41 L 495.78,477.26 L 483.53,478.64 L 483.34,477.93 L 479.94,478.25 L 482.71,477.43 L 481.31,477.25 L 461.69,477.75 L 460.84,477.10 Z M 495.88,476.31 L 490.93,475.77 L 502.04,476.23 L 495.88,476.31 Z M 504.98,474.86 L 507.22,475.34 L 503.17,475.81 L 498.51,475.08 L 504.98,474.86 Z M 520.10,474.43 L 514.20,474.80 L 510.48,474.26 L 520.10,474.43 Z M 526.37,473.86 L 520.78,473.12 L 515.67,473.58 L 523.50,471.64 L 530.66,470.89 L 549.34,470.71 L 551.35,471.76 L 537.16,472.07 L 537.96,472.84 L 534.96,473.23 L 531.54,472.52 L 534.04,472.30 L 529.10,472.18 L 525.14,473.19 L 529.33,473.03 L 526.37,473.86 Z M 639.04,465.06 L 635.79,464.66 L 640.06,463.32 L 639.04,465.06 Z M 617.06,463.13 L 625.14,463.13 L 615.04,463.63 L 611.08,464.64 L 605.11,463.21 L 617.06,463.13 Z" fill="#E8E0D0" stroke="#B8B0A0" stroke-width="0.5"/>
<path d="M 496.96,380.15 L 496.05,378.81 L 498.49,379.14 L 496.96,380.15 Z M 460.26,376.28 L 457.73,375.93 L 460.14,375.67 L 460.26,376.28 Z M 464.62,377.02 L 461.88,376.12 L 466.05,375.47 L 467.12,375.83 L 464.90,376.33 L 466.85,376.20 L 469.16,375.33 L 469.09,376.64 L 464.62,377.02 Z M 459.47,374.57 L 460.85,374.70 L 458.76,375.28 L 459.47,374.57 Z M 493.67,377.18 L 483.90,377.53 L 484.10,378.35 L 481.48,379.08 L 477.01,378.63 L 478.38,379.33 L 475.95,379.80 L 473.54,378.60 L 470.29,378.56 L 472.69,379.21 L 470.82,379.19 L 464.79,378.02 L 472.19,377.66 L 469.61,377.15 L 477.47,377.58 L 480.79,376.80 L 477.91,377.03 L 475.62,376.89 L 478.80,376.78 L 479.67,375.54 L 481.48,375.41 L 482.33,376.25 L 483.35,375.23 L 486.21,375.33 L 486.30,374.83 L 482.33,374.85 L 477.00,375.60 L 475.14,374.47 L 488.89,374.70 L 478.52,373.13 L 481.07,372.74 L 474.61,371.49 L 486.99,372.76 L 491.12,372.58 L 488.73,372.37 L 490.39,371.71 L 495.81,372.38 L 503.68,371.87 L 501.26,372.31 L 503.61,372.47 L 506.08,372.25 L 505.77,371.36 L 510.57,372.07 L 493.67,377.18 Z M 491.80,371.42 L 490.26,370.97 L 491.83,370.88 L 493.36,371.04 L 491.80,371.42 Z M 483.58,371.80 L 488.03,371.55 L 483.28,370.70 L 488.97,371.00 L 489.60,371.44 L 486.57,371.87 L 483.58,371.80 Z M 547.73,374.64 L 534.49,375.28 L 537.41,375.60 L 530.53,376.57 L 522.03,376.56 L 517.44,375.67 L 516.72,376.20 L 520.70,377.13 L 525.18,377.28 L 524.95,378.59 L 509.17,377.49 L 514.01,378.50 L 512.09,378.93 L 514.97,378.85 L 513.48,379.21 L 514.71,379.57 L 504.49,378.91 L 507.43,380.79 L 497.82,378.59 L 501.62,378.11 L 500.09,377.64 L 502.82,377.21 L 500.75,376.83 L 503.68,376.96 L 503.68,376.12 L 510.74,374.83 L 514.53,374.64 L 514.87,375.86 L 516.19,375.73 L 516.16,374.26 L 511.73,373.57 L 513.14,372.90 L 515.74,373.42 L 513.46,372.06 L 519.34,371.55 L 517.10,370.52 L 530.84,371.23 L 532.67,372.20 L 528.38,371.90 L 527.95,372.80 L 530.45,372.67 L 530.48,373.35 L 535.26,374.31 L 535.11,373.75 L 536.72,373.93 L 535.60,373.13 L 532.03,372.93 L 533.74,372.15 L 543.41,371.72 L 546.63,373.29 L 537.41,373.28 L 546.55,374.00 L 543.60,374.51 L 547.73,374.64 Z M 495.63,370.59 L 503.34,370.65 L 504.71,371.23 L 495.63,370.59 Z M 498.56,380.43 L 497.30,380.94 L 499.82,381.03 L 495.33,380.95 L 498.56,380.43 Z M 530.32,378.52 L 527.33,377.82 L 528.99,377.51 L 530.62,377.52 L 530.32,378.52 Z M 498.86,377.46 L 497.89,377.35 L 498.39,377.00 L 498.86,377.46 Z M 499.23,371.39 L 500.95,371.76 L 495.12,371.48 L 499.23,371.39 Z M 477.75,371.14 L 475.85,370.66 L 476.20,370.58 L 477.75,371.14 Z M 462.56,368.80 L 462.73,368.45 L 463.40,368.54 L 462.56,368.80 Z" fill="#E8E0D0" stroke="#B8B0A0" stroke-width="0.5"/>
<path d="M 251.71,52.25 L 248.09,51.49 L 249.19,50.52 L 254.09,49.60 L 260.25,46.23 L 263.90,45.68 L 264.13,43.65 L 269.01,42.48 L 265.28,41.36 L 260.19,41.22 L 254.03,35.88 L 261.11,32.18 L 255.18,29.82 L 255.52,28.13 L 258.11,27.65 L 258.94,25.99 L 265.07,24.16 L 264.57,22.91 L 268.23,22.39 L 262.28,17.47 L 265.56,15.91 L 265.31,9.96 L 270.70,8.48 L 270.02,7.64 L 272.76,6.53 L 262.70,0.00 L 363.96,0.00 L 365.04,1.66 L 370.49,2.11 L 371.82,3.17 L 373.06,2.79 L 378.10,4.06 L 378.09,5.32 L 383.17,6.48 L 392.36,6.92 L 395.37,6.08 L 403.30,7.05 L 407.51,8.40 L 413.61,7.94 L 415.80,9.74 L 420.78,11.21 L 423.37,10.87 L 429.96,12.39 L 437.73,12.61 L 437.86,13.54 L 444.72,16.28 L 464.53,15.57 L 478.96,18.70 L 481.11,20.44 L 479.17,23.21 L 483.51,26.52 L 484.06,30.78 L 476.21,30.92 L 484.64,34.48 L 486.80,41.87 L 529.39,42.50 L 532.27,42.02 L 532.45,43.83 L 528.99,45.81 L 531.03,51.01 L 540.80,53.45 L 546.06,53.79 L 547.83,56.73 L 554.44,60.43 L 551.93,60.58 L 546.52,66.73 L 548.19,67.99 L 546.35,68.13 L 537.93,74.43 L 544.58,76.78 L 537.07,78.51 L 536.65,75.29 L 513.69,70.26 L 490.67,70.37 L 446.81,73.64 L 442.01,77.94 L 433.86,82.16 L 433.69,86.98 L 424.28,97.95 L 420.05,95.76 L 392.06,95.77 L 384.09,100.83 L 382.22,103.94 L 375.41,97.69 L 364.76,96.66 L 346.58,96.82 L 334.58,93.75 L 332.44,96.48 L 321.68,97.87 L 320.45,99.77 L 314.23,100.68 L 314.38,101.76 L 310.18,103.48 L 295.68,104.10 L 292.78,103.44 L 293.48,100.89 L 290.93,96.72 L 287.52,95.32 L 284.73,89.03 L 279.49,85.98 L 276.00,85.55 L 275.56,83.94 L 277.86,82.83 L 270.72,80.92 L 272.90,80.05 L 270.04,77.96 L 275.17,77.49 L 276.34,76.22 L 272.28,74.29 L 278.70,71.65 L 265.09,67.07 L 266.05,66.32 L 260.93,59.49 L 262.78,58.55 L 257.23,57.95 L 251.71,52.25 Z" fill="#C8D8E8" stroke="#8BAABB" stroke-width="0.8"/>
<path d="M 558.00,170.73 L 558.85,169.17 L 563.33,168.71 L 570.71,165.97 L 575.78,163.02 L 580.53,162.17 L 584.09,159.45 L 593.74,156.49 L 593.65,155.67 L 598.96,155.88 L 599.73,155.18 L 596.99,154.30 L 605.32,152.86 L 608.50,151.32 L 615.65,150.71 L 614.35,150.03 L 618.57,149.65 L 621.29,147.67 L 634.30,146.75 L 637.06,145.01 L 639.20,145.40 L 642.40,144.17 L 645.77,144.20 L 648.72,141.83 L 647.17,140.04 L 650.00,135.77 L 645.68,132.97 L 643.76,129.85 L 639.02,129.54 L 638.58,128.58 L 636.11,128.93 L 636.72,129.39 L 631.57,129.39 L 630.27,130.41 L 626.43,129.34 L 626.48,127.67 L 630.79,125.34 L 629.89,124.28 L 634.92,117.91 L 633.10,115.94 L 635.34,115.02 L 625.45,112.70 L 612.24,114.70 L 605.83,114.11 L 600.37,105.15 L 600.73,101.75 L 594.77,98.47 L 585.90,98.34 L 581.04,96.46 L 578.44,96.61 L 574.99,98.23 L 573.31,97.78 L 569.78,98.51 L 541.40,96.45 L 545.64,85.92 L 543.19,85.47 L 544.58,84.78 L 542.55,84.42 L 544.57,83.82 L 541.54,83.47 L 541.32,81.03 L 537.07,78.51 L 544.58,76.78 L 537.93,74.43 L 546.35,68.13 L 548.19,67.99 L 546.52,66.73 L 551.93,60.58 L 554.47,60.22 L 547.83,56.73 L 546.06,53.79 L 540.80,53.45 L 531.03,51.01 L 528.99,45.81 L 532.45,43.83 L 532.53,42.10 L 486.80,41.87 L 484.64,34.48 L 476.21,30.92 L 484.06,30.78 L 483.51,26.52 L 479.17,23.21 L 481.11,20.44 L 478.96,18.70 L 464.53,15.57 L 444.72,16.28 L 437.86,13.54 L 437.73,12.61 L 429.96,12.39 L 423.37,10.87 L 420.78,11.21 L 415.80,9.74 L 413.61,7.94 L 407.51,8.40 L 403.30,7.05 L 395.37,6.08 L 392.36,6.92 L 383.17,6.48 L 378.09,5.32 L 378.10,4.06 L 373.06,2.79 L 371.82,3.17 L 370.49,2.11 L 365.34,1.77 L 364.01,0.00 L 800.00,0.00 L 800.00,122.01 L 796.55,122.94 L 793.16,124.40 L 790.87,124.28 L 793.43,124.69 L 795.01,124.47 L 786.92,128.23 L 786.59,127.12 L 788.97,126.56 L 783.81,127.30 L 784.00,126.08 L 782.94,126.80 L 780.73,126.27 L 781.41,126.98 L 779.70,127.11 L 781.77,127.79 L 780.30,128.40 L 773.51,127.24 L 774.32,128.60 L 783.10,129.30 L 778.58,131.88 L 777.64,131.42 L 777.52,131.96 L 772.85,132.08 L 778.02,132.07 L 777.29,135.06 L 773.74,135.44 L 772.17,133.97 L 772.12,136.19 L 776.90,137.43 L 775.01,139.55 L 777.66,140.62 L 776.92,143.70 L 780.21,144.17 L 776.60,145.04 L 778.31,146.36 L 775.91,147.23 L 777.97,150.80 L 776.20,154.28 L 773.05,156.70 L 770.22,155.37 L 770.70,156.58 L 773.18,157.08 L 758.45,160.79 L 746.70,165.67 L 734.02,175.24 L 723.83,180.72 L 713.02,184.82 L 695.15,189.05 L 689.78,191.27 L 691.42,189.23 L 689.53,188.08 L 695.83,188.33 L 704.31,185.70 L 705.60,186.06 L 706.23,184.86 L 710.68,184.66 L 712.77,181.03 L 716.48,180.89 L 717.44,181.53 L 717.38,179.30 L 724.55,177.73 L 723.72,174.32 L 726.69,175.46 L 727.76,175.13 L 728.39,173.42 L 726.51,172.65 L 725.07,173.62 L 719.02,173.88 L 718.43,174.96 L 715.98,174.43 L 716.26,173.38 L 710.98,172.69 L 709.72,170.98 L 708.62,173.01 L 712.12,174.29 L 714.56,174.21 L 710.55,175.25 L 710.06,178.25 L 707.37,176.94 L 707.75,179.16 L 704.64,179.99 L 705.71,181.06 L 701.18,181.57 L 700.83,182.71 L 692.64,183.42 L 691.53,186.37 L 689.63,185.55 L 690.13,186.55 L 686.23,187.26 L 685.49,188.40 L 688.36,189.04 L 685.23,190.20 L 689.68,189.99 L 687.48,190.64 L 689.53,190.33 L 689.43,191.25 L 685.36,192.35 L 675.53,200.37 L 657.09,206.05 L 653.06,205.19 L 653.13,200.69 L 663.83,196.48 L 652.52,193.92 L 647.60,190.21 L 634.61,188.03 L 626.32,184.62 L 610.25,182.60 L 601.53,178.88 L 594.93,181.00 L 590.99,181.07 L 590.99,178.40 L 570.40,171.86 L 564.23,171.90 L 560.01,173.66 L 552.71,173.48 L 551.03,172.70 L 558.00,170.73 Z M 781.94,148.16 L 778.01,150.40 L 778.67,147.20 L 781.26,146.52 L 781.94,148.16 Z M 777.52,137.28 L 774.51,136.26 L 778.42,134.90 L 779.89,135.55 L 777.52,137.28 Z M 800.00,122.32 L 800.00,122.74 L 794.68,124.28 L 796.39,123.12 L 800.00,122.32 Z M 785.76,127.21 L 784.86,128.53 L 783.64,127.93 L 785.76,127.21 Z" fill="#C8D8E8" stroke="#8BAABB" stroke-width="0.8"/>
<path d="M 257.23,57.95 L 262.78,58.55 L 260.93,59.49 L 266.05,66.32 L 265.09,67.07 L 278.70,71.65 L 272.28,74.29 L 276.34,76.22 L 275.17,77.49 L 270.04,77.96 L 272.90,80.05 L 270.72,80.92 L 277.86,82.83 L 275.56,83.94 L 276.00,85.55 L 279.49,85.98 L 284.73,89.03 L 287.52,95.32 L 290.93,96.72 L 293.48,100.89 L 292.78,103.44 L 299.56,104.18 L 310.18,103.48 L 314.70,105.15 L 305.95,114.83 L 283.80,118.16 L 277.50,120.19 L 275.57,121.77 L 280.73,125.09 L 276.98,125.66 L 274.72,128.04 L 279.67,134.68 L 275.50,136.18 L 274.99,137.62 L 282.27,141.76 L 281.64,143.15 L 275.23,144.25 L 269.49,143.85 L 260.05,151.66 L 248.43,155.85 L 244.64,162.44 L 238.70,164.31 L 241.84,169.08 L 240.21,171.59 L 243.84,172.43 L 240.61,174.43 L 235.36,174.33 L 231.20,179.72 L 233.02,180.64 L 229.46,181.71 L 227.97,181.14 L 226.12,182.07 L 224.91,185.63 L 228.06,188.17 L 233.58,189.15 L 232.57,190.13 L 229.95,190.19 L 235.68,194.25 L 235.81,196.63 L 239.71,197.93 L 236.97,200.68 L 239.47,201.90 L 243.81,201.58 L 245.05,202.65 L 241.87,206.34 L 244.01,210.67 L 238.27,211.22 L 238.02,212.38 L 231.77,215.49 L 230.01,219.44 L 225.18,220.32 L 228.96,221.23 L 230.00,227.82 L 221.87,229.77 L 221.67,231.17 L 213.52,231.82 L 213.16,233.73 L 210.96,233.74 L 209.70,235.15 L 211.20,236.21 L 209.40,236.41 L 212.37,237.64 L 209.44,239.41 L 211.65,241.05 L 209.96,243.30 L 214.42,246.73 L 215.26,250.05 L 218.68,251.55 L 215.99,253.08 L 204.56,254.61 L 201.96,261.11 L 196.67,261.10 L 199.12,264.00 L 197.44,265.78 L 194.16,265.72 L 193.92,266.82 L 197.68,267.89 L 190.61,271.62 L 193.22,273.66 L 191.91,277.70 L 193.18,279.57 L 191.35,280.38 L 196.12,284.42 L 191.41,285.30 L 188.49,285.00 L 186.14,286.34 L 188.51,288.16 L 185.77,289.20 L 186.25,293.43 L 195.95,294.82 L 195.75,295.81 L 191.96,296.06 L 190.62,297.20 L 196.67,298.69 L 196.80,299.46 L 194.03,300.15 L 198.03,301.73 L 193.04,303.44 L 194.42,305.38 L 192.99,305.97 L 209.34,306.44 L 211.53,307.59 L 207.13,309.90 L 187.27,309.78 L 187.65,310.90 L 199.82,311.61 L 206.64,314.33 L 201.84,315.66 L 202.32,316.50 L 195.39,317.20 L 195.56,319.79 L 199.23,320.94 L 191.64,322.64 L 195.44,323.51 L 197.35,327.70 L 190.75,328.86 L 191.63,330.59 L 189.36,331.19 L 192.65,331.95 L 192.49,332.69 L 188.73,332.46 L 185.21,334.44 L 180.42,334.84 L 180.84,336.27 L 175.84,339.20 L 180.88,340.66 L 182.08,343.13 L 174.06,344.79 L 174.62,347.43 L 164.14,349.31 L 159.75,351.41 L 161.93,351.90 L 160.74,352.25 L 152.55,352.38 L 149.65,354.37 L 152.76,356.79 L 150.00,358.15 L 152.36,358.88 L 150.79,359.86 L 156.81,361.60 L 159.92,365.83 L 170.51,364.58 L 181.89,364.89 L 180.77,365.77 L 182.82,367.82 L 179.33,369.18 L 182.99,370.49 L 178.19,373.38 L 189.95,376.12 L 190.37,377.30 L 240.90,377.65 L 278.68,380.49 L 267.38,380.43 L 258.93,379.49 L 253.00,380.14 L 247.94,382.57 L 243.57,382.15 L 226.72,384.37 L 226.51,383.78 L 218.03,384.36 L 221.16,384.94 L 217.39,386.16 L 219.40,386.61 L 214.79,390.57 L 215.27,394.08 L 207.45,395.30 L 186.89,393.45 L 178.11,390.80 L 182.40,389.25 L 186.62,389.39 L 187.47,390.06 L 183.42,391.05 L 187.17,390.94 L 189.11,390.66 L 188.95,389.30 L 193.12,389.09 L 194.79,391.12 L 189.29,392.18 L 194.16,391.86 L 195.66,391.32 L 195.96,389.07 L 205.56,388.06 L 211.62,386.22 L 210.35,385.21 L 205.76,385.16 L 204.59,384.42 L 204.60,385.39 L 191.85,387.08 L 188.94,388.15 L 182.31,387.25 L 175.35,387.71 L 180.28,387.61 L 184.69,388.67 L 175.98,388.83 L 179.14,389.38 L 176.04,389.51 L 176.38,390.41 L 173.29,389.96 L 180.34,392.02 L 176.14,392.07 L 170.33,390.62 L 169.54,391.11 L 156.77,388.41 L 165.48,388.48 L 171.42,389.72 L 172.19,389.23 L 169.51,388.60 L 173.11,388.41 L 166.05,387.96 L 167.49,387.31 L 165.38,385.33 L 170.35,384.81 L 171.83,384.23 L 174.14,384.85 L 171.54,385.75 L 174.72,385.06 L 178.66,385.63 L 185.45,383.70 L 202.60,383.65 L 200.25,382.85 L 181.71,382.43 L 178.97,383.71 L 175.70,383.14 L 179.71,382.35 L 175.18,382.81 L 167.95,382.30 L 164.67,384.19 L 168.92,383.09 L 172.57,383.71 L 163.99,385.49 L 165.55,385.97 L 164.90,387.49 L 160.87,387.90 L 159.95,387.12 L 159.40,387.96 L 152.93,386.85 L 158.32,386.61 L 159.01,385.92 L 150.23,385.07 L 158.53,385.01 L 156.68,384.30 L 161.32,382.75 L 164.28,382.82 L 162.08,382.22 L 166.75,382.24 L 159.49,381.62 L 158.47,382.24 L 160.37,382.87 L 157.63,383.91 L 154.50,382.69 L 154.40,383.56 L 148.90,384.62 L 146.82,384.29 L 150.06,383.52 L 147.11,383.19 L 151.96,382.05 L 147.65,381.56 L 150.25,380.61 L 149.80,379.54 L 145.93,377.86 L 150.57,379.33 L 151.93,378.82 L 156.77,379.66 L 159.26,378.59 L 164.44,378.19 L 162.39,379.81 L 164.52,379.33 L 167.74,379.99 L 170.54,378.11 L 167.30,379.44 L 165.70,378.05 L 169.33,376.99 L 176.04,379.66 L 174.38,380.77 L 166.13,381.79 L 176.38,381.79 L 173.48,381.31 L 177.01,380.54 L 177.77,379.50 L 172.68,377.21 L 177.72,376.91 L 177.77,375.60 L 172.19,373.76 L 163.04,372.76 L 162.45,372.13 L 157.84,372.61 L 163.02,372.91 L 161.92,373.87 L 164.65,373.13 L 175.69,375.15 L 171.31,376.06 L 157.35,373.88 L 158.75,374.86 L 162.62,374.99 L 164.52,375.60 L 161.72,375.18 L 163.13,375.99 L 159.17,376.44 L 166.41,376.25 L 160.73,377.02 L 158.76,378.44 L 156.18,375.01 L 154.68,374.31 L 156.44,379.14 L 150.23,377.95 L 148.17,376.16 L 154.34,377.73 L 149.59,375.23 L 152.81,374.64 L 147.94,374.65 L 146.82,375.56 L 143.99,374.65 L 146.44,374.19 L 141.79,374.06 L 143.87,373.22 L 141.26,372.87 L 142.28,371.64 L 149.20,373.93 L 147.81,372.83 L 149.37,372.25 L 147.00,372.08 L 144.72,370.39 L 147.24,370.78 L 146.95,369.49 L 145.05,369.29 L 142.30,370.42 L 138.69,369.23 L 138.52,370.13 L 136.02,369.95 L 135.43,368.76 L 137.48,367.75 L 133.44,368.52 L 132.83,367.61 L 141.11,366.91 L 144.21,367.81 L 142.29,366.63 L 145.75,366.50 L 144.97,365.09 L 152.47,365.11 L 146.17,364.05 L 150.23,362.59 L 145.31,363.63 L 143.73,365.91 L 138.20,366.51 L 136.10,365.95 L 137.76,365.48 L 135.58,365.64 L 131.80,363.31 L 134.05,363.15 L 136.10,364.34 L 135.51,363.33 L 142.29,363.89 L 136.03,362.76 L 138.86,362.21 L 132.93,362.93 L 131.20,362.40 L 132.17,361.28 L 128.24,362.14 L 125.80,361.57 L 127.17,361.13 L 121.83,360.51 L 130.54,359.60 L 134.39,361.23 L 142.84,361.51 L 134.41,360.54 L 130.11,358.33 L 142.14,359.51 L 139.08,358.71 L 142.29,358.03 L 141.62,357.45 L 137.08,358.41 L 131.12,357.58 L 130.53,356.84 L 137.48,356.36 L 131.99,356.36 L 131.07,355.76 L 131.65,355.07 L 137.30,354.44 L 138.69,355.20 L 140.76,354.65 L 141.97,355.58 L 146.50,356.59 L 147.11,356.16 L 142.91,355.51 L 142.29,354.36 L 136.99,354.07 L 136.17,353.37 L 137.40,351.85 L 140.19,352.49 L 143.17,352.68 L 139.65,351.96 L 138.18,350.18 L 143.74,349.79 L 137.83,349.51 L 138.37,350.76 L 134.43,351.35 L 135.61,352.23 L 133.22,354.36 L 128.65,353.01 L 129.93,351.15 L 127.50,349.69 L 130.09,348.76 L 127.88,347.81 L 129.93,346.76 L 130.86,347.09 L 137.83,346.96 L 131.58,346.84 L 129.42,345.63 L 134.32,344.45 L 139.43,345.61 L 138.55,344.21 L 141.97,343.87 L 133.30,343.30 L 136.58,342.88 L 132.49,343.15 L 131.29,341.99 L 126.41,340.85 L 127.50,340.26 L 123.39,340.33 L 128.84,339.85 L 134.11,342.17 L 130.96,340.01 L 142.01,340.21 L 142.29,340.90 L 145.05,340.26 L 144.19,341.02 L 149.28,341.22 L 150.41,342.32 L 152.17,341.62 L 155.56,342.06 L 157.43,341.30 L 157.31,340.75 L 154.97,341.53 L 152.28,341.16 L 147.98,339.04 L 151.65,339.79 L 158.66,340.04 L 148.84,338.72 L 150.57,338.20 L 146.00,337.59 L 147.65,336.40 L 146.27,335.56 L 144.97,337.93 L 141.19,338.52 L 120.80,337.36 L 122.78,336.66 L 125.02,337.00 L 123.40,336.44 L 125.29,335.77 L 130.62,336.59 L 127.17,337.17 L 130.62,336.91 L 131.84,337.42 L 134.12,337.72 L 131.65,336.98 L 138.18,336.33 L 135.76,336.11 L 137.83,335.63 L 131.38,336.20 L 127.88,335.13 L 129.37,334.80 L 126.00,334.66 L 131.12,332.66 L 134.81,332.54 L 136.45,333.76 L 136.37,332.42 L 138.86,332.27 L 139.94,333.00 L 139.53,332.18 L 137.83,332.08 L 140.75,330.87 L 135.42,330.30 L 134.03,329.61 L 136.10,329.00 L 133.16,329.34 L 132.57,328.56 L 124.41,328.03 L 127.28,328.47 L 123.20,328.54 L 122.36,329.19 L 128.36,329.25 L 127.24,329.69 L 122.17,329.52 L 118.80,328.43 L 114.00,328.29 L 112.07,327.23 L 115.81,325.32 L 109.09,327.13 L 103.74,327.16 L 99.72,327.68 L 97.56,328.42 L 103.55,327.92 L 103.26,329.32 L 105.46,329.36 L 103.85,329.96 L 97.83,329.42 L 96.37,327.36 L 105.49,324.92 L 108.58,325.01 L 109.23,324.02 L 111.50,324.47 L 113.41,324.43 L 110.68,324.16 L 111.88,323.24 L 115.97,323.78 L 117.18,322.59 L 119.75,323.21 L 118.65,322.27 L 121.66,321.52 L 122.56,319.55 L 125.21,319.58 L 127.89,321.37 L 129.23,320.56 L 127.67,319.48 L 130.24,319.24 L 136.68,319.68 L 134.43,320.10 L 137.78,320.55 L 135.08,321.27 L 137.17,321.49 L 135.08,322.49 L 137.36,322.12 L 137.73,321.03 L 140.01,322.00 L 131.41,323.56 L 126.97,322.99 L 130.68,323.66 L 138.02,323.01 L 137.32,324.24 L 143.17,324.43 L 138.79,323.13 L 142.24,322.55 L 144.97,324.23 L 139.54,326.47 L 142.44,326.87 L 144.61,325.88 L 145.75,326.23 L 145.74,325.17 L 152.11,324.04 L 150.11,323.75 L 151.23,322.86 L 155.73,321.46 L 153.58,321.49 L 147.11,324.24 L 148.84,322.17 L 147.79,320.98 L 154.29,318.41 L 159.72,318.04 L 156.16,317.63 L 149.52,319.15 L 151.55,316.06 L 158.70,314.65 L 164.02,316.00 L 168.64,315.75 L 157.94,314.15 L 153.13,314.44 L 153.08,313.69 L 156.74,313.18 L 154.39,311.71 L 161.44,311.33 L 171.22,309.55 L 172.42,307.53 L 174.48,307.17 L 174.65,305.63 L 171.37,307.13 L 165.89,305.31 L 159.77,304.76 L 161.17,303.79 L 157.10,303.86 L 159.32,303.00 L 161.47,303.23 L 160.89,302.28 L 164.06,300.28 L 168.79,300.62 L 168.22,299.41 L 166.97,300.11 L 163.00,299.75 L 166.75,298.74 L 163.73,298.54 L 161.59,297.36 L 162.26,296.00 L 166.59,295.24 L 166.03,293.95 L 167.78,293.21 L 171.05,293.78 L 170.73,292.18 L 167.78,290.69 L 168.39,288.57 L 175.95,288.88 L 168.31,286.25 L 174.56,285.35 L 178.95,287.77 L 177.83,283.41 L 170.98,283.77 L 167.18,282.80 L 173.29,281.03 L 177.07,280.97 L 181.88,280.33 L 181.88,277.82 L 178.79,280.48 L 174.19,280.88 L 170.62,279.39 L 165.46,278.78 L 161.57,279.75 L 162.90,280.79 L 160.82,281.33 L 151.45,281.79 L 145.30,281.28 L 146.89,280.23 L 150.45,279.96 L 151.96,279.04 L 148.93,279.88 L 144.34,279.56 L 140.76,274.71 L 143.25,271.11 L 146.09,269.96 L 144.72,268.84 L 147.81,265.88 L 146.52,264.55 L 152.87,263.29 L 154.87,263.91 L 154.19,261.98 L 158.75,259.37 L 159.11,257.27 L 150.74,250.01 L 152.76,246.54 L 147.64,243.48 L 149.33,240.87 L 147.30,239.93 L 149.13,238.13 L 152.81,238.94 L 159.13,238.17 L 160.73,235.10 L 159.17,234.55 L 161.08,234.19 L 161.40,232.88 L 162.62,233.98 L 164.84,233.76 L 164.73,232.17 L 168.75,229.97 L 169.40,227.07 L 174.84,225.12 L 173.26,223.20 L 183.70,218.97 L 189.77,211.82 L 189.03,209.81 L 198.92,204.17 L 195.47,200.05 L 200.34,199.11 L 204.36,193.32 L 200.99,191.62 L 202.02,188.66 L 196.69,176.68 L 198.59,173.17 L 200.99,173.59 L 204.59,172.57 L 204.25,170.83 L 207.51,169.78 L 206.85,165.35 L 202.38,163.50 L 201.50,160.95 L 209.87,155.93 L 213.63,148.98 L 216.80,148.56 L 215.61,144.24 L 219.91,142.69 L 219.06,141.46 L 223.90,136.53 L 222.60,136.19 L 223.75,133.09 L 221.13,131.73 L 223.47,128.83 L 228.55,127.17 L 225.08,119.47 L 227.20,112.52 L 229.90,110.57 L 227.24,109.56 L 223.86,110.00 L 224.65,107.44 L 225.60,105.71 L 227.01,105.24 L 229.03,105.98 L 232.40,104.22 L 234.89,94.67 L 238.24,90.43 L 235.42,86.49 L 236.52,85.75 L 234.35,84.59 L 236.28,75.55 L 233.63,73.19 L 234.71,72.59 L 230.76,65.44 L 232.09,62.36 L 229.81,61.35 L 240.46,60.53 L 245.16,58.00 L 243.49,55.28 L 252.02,53.54 L 257.23,57.95 Z M 273.22,404.69 L 266.62,403.68 L 265.69,403.74 L 271.41,404.79 L 263.15,405.28 L 248.55,404.09 L 249.08,402.87 L 247.78,403.55 L 246.85,402.84 L 246.48,403.91 L 245.38,403.09 L 244.51,403.99 L 241.94,404.06 L 240.48,402.73 L 239.89,404.21 L 237.39,404.34 L 237.53,403.68 L 231.95,404.24 L 233.58,402.84 L 230.54,404.21 L 225.12,403.69 L 220.66,404.26 L 218.70,403.77 L 224.03,403.24 L 228.34,402.32 L 219.23,403.42 L 216.56,403.06 L 220.27,402.77 L 215.99,402.68 L 213.91,403.67 L 215.82,402.16 L 207.33,402.72 L 209.77,402.26 L 208.18,402.13 L 208.74,401.36 L 205.89,401.23 L 204.25,401.81 L 206.17,402.06 L 202.35,402.83 L 202.19,401.94 L 199.96,402.52 L 199.59,401.83 L 198.40,402.52 L 195.66,401.94 L 190.89,402.52 L 189.97,402.13 L 192.26,401.70 L 189.46,401.74 L 189.30,401.11 L 191.00,401.17 L 190.16,400.58 L 197.73,401.74 L 195.82,401.17 L 199.96,401.49 L 193.24,400.26 L 200.46,401.17 L 202.19,400.84 L 199.18,400.23 L 204.83,400.66 L 206.49,400.38 L 203.73,400.13 L 205.45,399.87 L 212.34,401.17 L 210.97,400.46 L 215.30,400.77 L 215.80,399.55 L 219.61,399.33 L 224.39,399.55 L 221.46,400.38 L 220.52,402.00 L 223.80,402.01 L 222.22,401.02 L 225.02,400.04 L 233.45,401.77 L 232.13,401.03 L 236.43,401.49 L 228.98,400.48 L 225.21,398.95 L 218.54,398.84 L 217.15,398.08 L 219.06,398.20 L 216.30,397.43 L 236.28,400.38 L 237.84,399.84 L 234.72,399.38 L 238.85,398.78 L 245.36,401.58 L 246.21,400.86 L 243.25,399.00 L 250.80,400.47 L 251.70,399.54 L 258.80,400.51 L 254.35,402.22 L 255.36,402.77 L 258.06,401.37 L 260.56,401.80 L 260.87,400.62 L 264.96,400.77 L 239.36,397.43 L 235.24,394.80 L 236.28,393.91 L 255.77,391.87 L 255.97,390.31 L 234.63,391.38 L 227.83,389.88 L 229.20,387.08 L 231.81,386.67 L 231.30,387.45 L 233.60,387.55 L 237.48,386.14 L 232.16,386.17 L 232.62,385.08 L 229.27,384.70 L 236.49,384.46 L 241.94,385.54 L 249.99,383.61 L 249.66,382.47 L 254.34,381.82 L 261.31,384.00 L 270.38,382.73 L 274.18,383.59 L 273.82,403.72 L 272.05,403.61 L 273.82,403.87 L 273.22,404.69 Z M 19.80,205.13 L 13.92,205.26 L 16.60,204.50 L 19.80,205.13 Z M 309.42,414.19 L 304.58,413.59 L 306.05,413.38 L 309.42,414.19 Z M 313.08,414.31 L 310.78,413.97 L 311.53,413.44 L 313.08,414.31 Z M 299.44,414.39 L 299.18,413.83 L 294.89,414.20 L 292.10,413.62 L 302.46,413.47 L 299.44,414.39 Z M 310.34,412.87 L 311.11,413.07 L 309.31,413.26 L 310.34,412.87 Z M 303.86,412.93 L 300.45,412.43 L 302.35,411.91 L 304.49,412.41 L 304.20,411.36 L 306.29,411.17 L 305.97,412.40 L 308.71,412.94 L 303.86,412.93 Z M 300.29,411.27 L 296.50,411.56 L 297.49,410.51 L 300.29,411.27 Z M 248.82,409.41 L 244.70,409.59 L 244.70,408.89 L 248.82,409.41 Z M 241.03,408.43 L 239.55,409.28 L 236.95,408.51 L 241.03,408.43 Z M 316.61,408.90 L 313.18,408.37 L 315.25,407.91 L 318.68,408.31 L 316.61,408.90 Z M 327.22,408.24 L 324.01,408.24 L 326.73,407.29 L 329.45,407.50 L 327.22,408.24 Z M 319.90,406.82 L 313.27,405.85 L 314.45,405.69 L 319.90,406.82 Z M 287.47,412.45 L 286.09,411.36 L 282.66,411.49 L 283.60,410.69 L 274.45,409.59 L 274.81,410.10 L 269.82,409.72 L 270.65,410.39 L 268.21,410.51 L 265.69,409.59 L 270.85,408.89 L 265.55,409.30 L 269.82,407.53 L 265.16,408.25 L 261.75,407.15 L 261.46,408.09 L 258.80,406.96 L 253.81,407.28 L 257.60,407.34 L 258.12,407.92 L 252.78,407.99 L 253.30,408.64 L 257.79,408.76 L 257.27,409.78 L 261.39,409.91 L 260.77,410.59 L 256.31,410.22 L 255.72,409.42 L 253.85,410.38 L 251.76,409.46 L 254.38,409.08 L 245.04,408.64 L 250.54,408.31 L 247.90,408.21 L 252.27,407.41 L 243.53,408.18 L 241.61,407.85 L 243.67,407.34 L 238.94,407.15 L 250.08,406.15 L 250.21,407.21 L 251.58,406.06 L 278.86,405.19 L 281.53,406.35 L 274.81,406.38 L 274.47,407.19 L 263.27,406.18 L 284.69,408.23 L 277.38,408.69 L 273.34,408.18 L 271.21,408.31 L 275.84,408.83 L 274.81,409.14 L 286.26,409.56 L 285.49,410.10 L 288.50,410.17 L 287.39,410.72 L 289.96,411.66 L 287.47,412.45 Z M 296.50,407.99 L 292.50,407.35 L 286.55,407.82 L 285.26,405.56 L 280.89,405.11 L 307.47,405.09 L 313.71,406.64 L 308.26,408.64 L 303.72,408.31 L 304.42,407.80 L 302.42,407.38 L 298.80,408.22 L 292.87,408.05 L 296.50,407.99 Z M 229.22,406.50 L 230.42,407.28 L 227.30,407.73 L 226.19,407.21 L 225.95,407.77 L 225.55,407.08 L 226.82,406.76 L 224.90,406.24 L 221.74,406.92 L 221.41,406.27 L 214.43,406.18 L 216.64,405.67 L 214.28,405.43 L 225.59,405.47 L 224.39,405.22 L 230.92,404.76 L 226.55,405.73 L 221.39,405.89 L 231.95,406.02 L 232.31,406.54 L 229.22,406.50 Z M 240.96,405.32 L 243.67,405.22 L 241.84,404.70 L 246.91,405.28 L 246.54,404.49 L 260.70,405.35 L 240.96,405.32 Z M 225.13,404.80 L 220.94,404.57 L 224.47,404.19 L 229.13,404.31 L 225.13,404.80 Z M 207.60,404.50 L 205.79,405.33 L 206.20,404.84 L 204.49,405.22 L 203.06,404.63 L 210.45,404.19 L 216.83,405.02 L 207.60,404.50 Z M 189.56,403.44 L 186.87,402.42 L 188.79,402.28 L 190.83,402.97 L 189.56,403.44 Z M 177.67,400.38 L 175.89,399.59 L 179.05,399.22 L 180.96,399.48 L 177.67,400.38 Z M 232.49,398.13 L 234.23,398.57 L 231.19,398.86 L 226.63,398.01 L 232.49,398.13 Z M 184.31,397.75 L 181.92,398.73 L 176.90,398.65 L 182.04,397.11 L 184.31,397.75 Z M 159.90,397.56 L 152.47,397.04 L 155.39,396.59 L 159.90,397.56 Z M 199.23,395.88 L 202.97,395.82 L 204.65,396.96 L 204.59,396.14 L 206.12,396.14 L 209.05,398.10 L 210.09,397.17 L 210.71,397.83 L 211.78,397.03 L 214.20,397.26 L 213.04,398.27 L 214.48,397.93 L 214.85,398.86 L 213.19,399.47 L 210.64,399.16 L 211.93,399.91 L 209.39,399.84 L 205.62,399.16 L 209.25,398.52 L 204.28,398.56 L 204.14,397.40 L 201.85,397.69 L 200.99,398.90 L 199.62,398.52 L 200.80,398.08 L 198.24,398.55 L 197.03,397.93 L 198.76,397.11 L 199.23,395.88 Z M 186.37,397.62 L 188.43,397.43 L 186.89,396.92 L 184.34,397.23 L 182.99,395.71 L 187.87,396.21 L 190.86,394.98 L 193.21,396.12 L 194.70,395.40 L 198.21,395.68 L 194.71,396.35 L 197.01,396.23 L 195.30,396.85 L 198.23,397.20 L 195.37,397.91 L 190.69,396.51 L 195.91,398.54 L 192.73,399.03 L 193.76,399.48 L 189.80,399.35 L 191.87,398.52 L 186.37,397.62 Z M 228.36,395.30 L 231.11,396.63 L 228.69,396.93 L 222.89,395.90 L 226.15,398.45 L 219.06,397.43 L 217.58,394.89 L 224.50,395.10 L 221.82,393.56 L 226.27,392.24 L 228.29,392.72 L 228.36,395.30 Z M 146.64,391.75 L 147.11,391.89 L 143.07,392.50 L 141.97,391.92 L 146.64,391.75 Z M 151.60,391.44 L 154.53,391.96 L 152.28,392.34 L 144.21,391.05 L 149.94,391.59 L 149.50,390.60 L 154.53,390.86 L 151.60,391.44 Z M 173.54,396.59 L 168.32,397.62 L 164.16,397.24 L 169.51,396.92 L 167.38,396.69 L 170.35,396.65 L 168.13,395.95 L 173.29,395.05 L 169.36,394.65 L 164.20,395.18 L 162.98,394.61 L 161.76,395.75 L 163.47,396.24 L 161.92,396.72 L 156.62,396.12 L 158.45,395.40 L 156.59,393.95 L 158.22,393.70 L 149.52,394.08 L 152.21,393.56 L 148.93,392.74 L 153.45,392.26 L 159.25,393.23 L 165.57,393.22 L 162.35,393.06 L 163.65,392.47 L 157.89,392.94 L 157.80,392.22 L 153.83,391.47 L 162.45,391.96 L 159.98,390.93 L 163.44,390.59 L 164.33,391.61 L 163.99,390.80 L 166.56,390.98 L 167.29,393.37 L 168.98,392.28 L 167.94,391.23 L 171.05,391.83 L 172.45,393.30 L 172.59,392.02 L 177.84,392.38 L 179.52,392.92 L 177.32,393.30 L 178.11,393.95 L 180.13,393.43 L 186.01,394.47 L 183.19,395.22 L 179.65,394.91 L 180.85,395.52 L 178.95,395.40 L 178.95,396.08 L 181.21,396.69 L 176.55,396.20 L 176.19,397.08 L 173.54,396.59 Z M 137.81,389.32 L 133.19,389.89 L 133.66,389.61 L 137.81,389.32 Z M 153.85,386.58 L 151.78,385.90 L 144.02,386.16 L 149.02,385.30 L 153.50,385.71 L 153.85,386.58 Z M 162.10,390.31 L 149.71,389.96 L 151.96,389.70 L 142.27,387.52 L 137.10,387.96 L 133.02,387.32 L 131.28,387.89 L 120.44,384.68 L 122.33,384.35 L 129.96,385.78 L 130.26,386.48 L 137.40,386.48 L 148.59,388.35 L 148.73,387.53 L 151.42,389.43 L 152.84,388.22 L 156.56,389.22 L 155.19,389.52 L 162.10,390.31 Z M 155.11,384.42 L 154.34,384.42 L 155.04,384.23 L 155.11,384.42 Z M 140.41,384.23 L 143.17,383.19 L 139.72,383.71 L 142.48,382.75 L 136.17,384.22 L 134.64,383.09 L 140.68,382.11 L 138.52,381.62 L 146.17,381.38 L 147.38,382.14 L 143.35,384.16 L 140.41,384.23 Z M 118.79,380.87 L 116.38,379.48 L 125.60,379.89 L 124.36,381.29 L 118.79,380.87 Z M 142.47,381.11 L 143.68,380.76 L 136.94,379.14 L 143.91,379.84 L 145.05,381.14 L 142.47,381.11 Z M 133.11,380.55 L 134.07,379.70 L 136.63,379.91 L 133.70,379.33 L 135.61,379.40 L 128.80,378.79 L 132.07,378.41 L 140.89,380.63 L 136.19,381.31 L 133.11,380.55 Z M 119.34,378.74 L 124.16,378.18 L 122.40,379.11 L 119.41,379.26 L 119.34,378.74 Z M 129.53,378.30 L 129.05,377.98 L 130.24,378.11 L 129.53,378.30 Z M 126.36,377.63 L 120.80,378.37 L 125.61,376.83 L 126.36,377.63 Z M 146.95,379.85 L 137.00,377.67 L 136.90,376.89 L 144.69,378.14 L 146.95,379.85 Z M 116.76,378.64 L 119.60,377.66 L 118.05,377.55 L 120.41,376.02 L 124.24,376.05 L 120.44,377.98 L 116.76,378.64 Z M 111.23,376.58 L 111.76,375.48 L 114.59,374.96 L 111.23,376.58 Z M 126.64,374.83 L 136.85,376.43 L 134.38,377.11 L 128.36,376.12 L 126.64,374.83 Z M 143.32,375.82 L 140.76,374.41 L 142.99,375.03 L 144.55,375.09 L 143.32,375.82 Z M 115.06,378.68 L 115.47,378.11 L 113.81,378.56 L 114.78,377.92 L 112.37,377.41 L 114.94,376.89 L 113.22,376.83 L 115.23,375.85 L 117.54,376.44 L 118.38,376.05 L 116.11,374.35 L 117.54,373.99 L 120.11,375.54 L 115.06,378.68 Z M 138.91,375.70 L 133.23,374.75 L 137.48,373.87 L 137.21,373.24 L 140.68,375.15 L 138.91,375.70 Z M 133.28,372.03 L 132.88,370.92 L 135.12,370.88 L 136.45,371.74 L 136.27,372.39 L 133.28,372.03 Z M 113.75,372.07 L 111.25,372.63 L 110.12,372.19 L 110.60,373.49 L 106.30,374.09 L 109.45,371.71 L 108.64,371.05 L 110.99,370.72 L 110.42,371.63 L 111.59,370.97 L 113.75,372.07 Z M 144.45,371.67 L 141.26,371.04 L 142.67,370.61 L 144.47,370.61 L 144.45,371.67 Z M 119.22,372.25 L 113.55,372.47 L 119.22,371.28 L 115.07,371.41 L 119.36,370.17 L 125.32,370.54 L 123.54,370.65 L 125.61,371.61 L 124.35,371.94 L 122.02,370.85 L 119.22,372.25 Z M 117.25,369.67 L 113.64,369.81 L 114.94,369.17 L 117.25,369.67 Z M 128.37,370.12 L 124.07,368.94 L 127.06,368.38 L 126.22,369.09 L 128.72,369.23 L 128.37,370.12 Z M 132.12,370.40 L 130.43,367.49 L 134.33,369.83 L 132.12,370.40 Z M 129.27,369.00 L 127.33,368.13 L 121.05,369.17 L 122.17,368.26 L 119.82,368.12 L 118.38,368.90 L 116.84,368.65 L 118.23,367.94 L 115.00,367.71 L 116.59,367.11 L 123.56,367.48 L 123.12,366.75 L 125.26,366.47 L 122.69,365.63 L 129.23,366.72 L 129.27,369.00 Z M 115.19,365.63 L 118.06,365.82 L 116.64,365.14 L 119.07,365.05 L 121.31,366.33 L 119.75,366.33 L 122.69,366.53 L 119.63,367.08 L 115.89,366.78 L 117.70,366.53 L 115.19,365.63 Z M 112.05,366.15 L 112.11,364.94 L 114.53,364.96 L 114.62,366.28 L 112.05,366.15 Z M 124.14,364.08 L 122.36,364.21 L 122.17,363.63 L 124.14,364.08 Z M 108.75,364.40 L 105.48,364.06 L 107.36,364.62 L 106.86,366.13 L 102.56,365.95 L 103.94,365.12 L 101.26,364.89 L 105.14,364.34 L 102.39,363.43 L 110.99,363.43 L 108.75,364.40 Z M 124.68,364.74 L 128.72,363.75 L 122.36,363.24 L 129.65,363.07 L 133.27,365.14 L 128.55,364.92 L 134.72,366.14 L 134.27,366.76 L 132.51,366.18 L 131.48,366.63 L 124.68,364.74 Z M 120.77,362.28 L 125.60,362.38 L 121.18,363.39 L 119.60,363.31 L 120.77,362.28 Z M 108.56,362.89 L 106.04,362.55 L 109.27,361.63 L 102.73,362.21 L 104.35,360.31 L 107.43,360.28 L 105.30,360.68 L 109.66,361.19 L 111.15,360.09 L 104.11,359.16 L 110.22,358.99 L 112.85,359.97 L 115.33,359.54 L 112.37,360.54 L 119.19,359.97 L 118.90,360.80 L 113.14,361.51 L 108.56,362.89 Z M 98.22,357.17 L 101.33,356.14 L 98.75,355.37 L 101.49,354.63 L 105.24,355.13 L 109.62,357.90 L 105.63,357.47 L 104.96,356.16 L 98.22,357.17 Z M 103.38,353.78 L 103.10,354.26 L 100.49,353.65 L 101.07,352.96 L 103.38,353.78 Z M 115.77,352.03 L 112.71,350.95 L 109.09,351.01 L 111.15,350.63 L 108.24,350.76 L 110.99,349.60 L 116.59,350.12 L 115.77,352.03 Z M 97.56,351.33 L 105.69,349.30 L 106.23,350.65 L 100.15,351.72 L 97.56,351.33 Z M 107.23,349.99 L 106.21,348.96 L 104.79,348.95 L 101.62,349.76 L 102.39,348.95 L 99.16,349.28 L 97.71,348.56 L 104.26,347.79 L 103.57,348.31 L 106.48,348.13 L 108.75,349.53 L 107.23,349.99 Z M 108.56,349.20 L 106.42,347.47 L 111.86,348.18 L 111.50,349.11 L 108.56,349.20 Z M 106.70,355.34 L 108.24,354.62 L 106.18,354.55 L 107.72,354.04 L 105.74,354.20 L 102.56,352.28 L 104.53,352.03 L 109.97,354.10 L 106.04,351.87 L 110.34,352.94 L 111.84,352.87 L 109.45,352.17 L 113.22,351.84 L 111.84,351.27 L 116.84,352.82 L 119.07,350.37 L 115.30,349.46 L 118.72,349.46 L 118.59,348.93 L 114.94,349.27 L 113.78,348.38 L 117.35,347.92 L 112.70,347.67 L 115.62,347.79 L 113.91,347.28 L 121.78,346.39 L 123.63,346.79 L 123.33,348.04 L 125.61,346.64 L 125.11,348.47 L 127.33,348.89 L 125.96,349.66 L 128.08,352.24 L 124.07,356.10 L 126.51,355.22 L 128.47,355.58 L 128.63,356.39 L 125.80,356.41 L 128.36,356.80 L 127.86,357.71 L 126.13,357.45 L 127.36,358.27 L 123.90,357.96 L 125.80,358.74 L 119.97,359.29 L 117.77,358.71 L 122.18,358.12 L 116.33,358.09 L 120.97,357.32 L 118.23,357.25 L 119.84,356.61 L 117.11,356.88 L 116.87,355.17 L 121.48,355.39 L 117.00,354.42 L 120.61,354.27 L 123.04,352.68 L 118.90,352.94 L 120.47,353.39 L 115.55,354.49 L 114.47,353.90 L 113.05,354.94 L 113.88,355.75 L 115.34,355.42 L 113.91,357.84 L 106.70,355.34 Z M 111.41,347.60 L 107.98,347.37 L 107.90,347.20 L 112.02,345.99 L 111.41,347.60 Z M 113.91,345.99 L 118.56,346.19 L 114.45,346.96 L 113.91,345.99 Z M 106.70,346.83 L 97.89,347.32 L 98.04,346.59 L 101.41,346.74 L 105.65,345.87 L 106.70,346.83 Z M 100.56,346.59 L 98.93,346.21 L 103.09,345.74 L 97.20,345.48 L 98.93,344.13 L 105.51,344.02 L 105.91,345.19 L 100.56,346.59 Z M 126.46,343.84 L 131.66,344.51 L 128.50,344.94 L 126.46,343.84 Z M 134.77,344.16 L 132.97,343.55 L 137.83,344.00 L 134.77,344.16 Z M 130.26,343.48 L 129.40,342.94 L 131.38,342.64 L 133.66,344.18 L 126.83,343.29 L 130.26,343.48 Z M 126.36,346.26 L 124.02,346.52 L 114.25,345.67 L 113.33,344.74 L 118.03,343.67 L 119.64,344.56 L 121.26,344.26 L 118.84,343.22 L 120.75,341.18 L 124.59,343.54 L 122.36,343.93 L 124.22,345.30 L 126.74,345.48 L 126.36,346.26 Z M 126.17,341.83 L 124.11,342.21 L 125.25,341.15 L 129.91,342.38 L 125.61,343.03 L 126.17,341.83 Z M 111.15,342.45 L 107.72,340.65 L 119.07,341.64 L 118.14,343.38 L 113.38,344.17 L 110.12,342.81 L 111.15,342.45 Z M 108.52,346.64 L 107.06,345.93 L 106.18,343.28 L 100.24,343.73 L 105.48,342.83 L 100.50,343.03 L 103.26,341.87 L 100.60,342.13 L 100.32,340.53 L 105.65,340.17 L 112.06,344.77 L 108.52,346.64 Z M 109.95,339.00 L 119.47,338.24 L 118.31,340.08 L 121.01,341.00 L 112.84,339.87 L 107.36,340.26 L 109.95,339.00 Z M 126.64,339.23 L 130.12,338.41 L 133.02,338.85 L 131.99,338.19 L 144.07,338.94 L 141.20,339.66 L 126.64,339.23 Z M 105.56,337.96 L 105.22,337.52 L 111.86,337.00 L 112.67,337.65 L 111.07,337.95 L 113.56,338.15 L 108.45,338.64 L 109.58,338.42 L 105.56,337.96 Z M 115.22,337.89 L 112.79,337.09 L 114.15,336.83 L 117.04,337.30 L 115.22,337.89 Z M 130.31,331.03 L 131.34,331.34 L 127.85,332.18 L 127.50,331.31 L 130.31,331.03 Z M 139.89,331.05 L 135.61,332.22 L 133.58,331.75 L 134.82,330.76 L 139.89,331.05 Z M 147.20,322.20 L 144.91,323.09 L 140.76,321.85 L 141.87,321.32 L 147.20,322.20 Z M 147.23,321.38 L 143.80,321.20 L 144.99,320.26 L 147.23,321.38 Z M 119.67,321.32 L 116.18,322.19 L 112.29,322.09 L 112.04,321.46 L 116.91,321.37 L 117.70,321.20 L 112.18,321.07 L 113.41,320.88 L 111.44,320.03 L 117.08,320.55 L 114.90,319.93 L 120.36,319.41 L 119.67,321.32 Z M 146.95,320.17 L 144.55,320.05 L 140.92,320.95 L 141.49,320.04 L 145.75,319.28 L 146.95,320.17 Z M 139.89,319.15 L 138.88,320.41 L 136.90,319.00 L 141.11,318.82 L 139.89,319.15 Z M 120.38,318.39 L 117.19,317.69 L 118.20,317.47 L 120.38,318.39 Z M 124.61,318.73 L 122.05,318.80 L 122.20,317.65 L 125.35,317.22 L 124.61,318.73 Z M 136.39,317.45 L 138.00,316.94 L 141.53,317.37 L 141.26,318.37 L 137.48,318.31 L 136.39,317.45 Z M 128.69,316.09 L 132.40,316.47 L 133.20,318.17 L 128.23,319.12 L 126.64,318.70 L 128.69,316.09 Z M 149.71,316.63 L 147.30,318.89 L 143.83,317.85 L 147.65,315.92 L 149.71,316.63 Z M 143.87,316.28 L 142.52,317.10 L 138.53,316.68 L 135.69,317.22 L 137.66,315.80 L 143.87,316.28 Z M 126.22,315.99 L 128.08,315.84 L 126.68,317.34 L 126.22,315.99 Z M 141.24,315.86 L 138.69,315.51 L 140.75,315.26 L 143.68,315.54 L 141.24,315.86 Z M 131.48,315.48 L 129.78,315.59 L 126.07,314.59 L 131.48,315.48 Z M 144.64,314.96 L 138.96,315.14 L 135.08,314.19 L 137.50,313.74 L 139.62,314.36 L 143.68,314.32 L 144.64,314.96 Z M 131.10,314.66 L 128.72,314.00 L 129.54,313.28 L 132.40,313.77 L 131.10,314.66 Z M 145.10,314.49 L 143.22,314.07 L 139.53,314.13 L 132.99,312.85 L 134.90,312.06 L 142.63,311.77 L 146.44,312.89 L 145.10,314.49 Z M 135.16,310.55 L 141.45,311.35 L 130.31,311.93 L 135.16,310.55 Z M 137.48,310.45 L 134.56,310.00 L 139.38,309.68 L 140.24,310.04 L 137.48,310.45 Z M 142.93,309.65 L 145.24,311.16 L 142.20,311.14 L 141.02,309.84 L 142.93,309.65 Z M 113.37,310.92 L 110.33,311.08 L 109.18,310.01 L 111.86,309.90 L 113.37,310.92 Z M 148.63,310.22 L 145.57,309.97 L 145.76,309.51 L 149.20,309.42 L 148.63,310.22 Z M 129.39,310.48 L 126.02,309.41 L 128.55,309.17 L 130.70,310.00 L 129.39,310.48 Z M 127.49,308.97 L 122.46,308.72 L 123.63,308.27 L 127.49,308.97 Z M 142.39,308.94 L 132.77,309.98 L 128.88,308.87 L 132.56,308.09 L 141.11,308.33 L 142.39,308.94 Z M 120.49,308.68 L 119.08,308.75 L 118.56,307.88 L 120.49,308.68 Z M 149.53,309.06 L 145.49,309.39 L 143.76,307.86 L 147.31,307.54 L 149.53,309.06 Z M 135.93,307.56 L 130.01,307.51 L 131.88,307.12 L 135.93,307.56 Z M 135.66,306.73 L 135.08,306.47 L 139.99,306.85 L 140.59,307.53 L 135.93,307.30 L 138.37,307.11 L 135.66,306.73 Z M 126.13,307.37 L 125.68,306.69 L 132.75,306.30 L 133.67,306.82 L 128.72,307.17 L 126.13,307.37 Z M 142.61,306.80 L 141.51,306.15 L 142.09,305.89 L 144.55,306.40 L 142.61,306.80 Z M 158.33,308.43 L 157.34,307.51 L 161.08,307.55 L 158.32,307.24 L 158.20,306.53 L 163.47,306.98 L 162.10,306.20 L 164.33,305.82 L 166.23,306.53 L 164.86,307.24 L 167.59,306.53 L 171.38,307.38 L 169.07,308.40 L 164.86,308.08 L 168.46,309.10 L 157.93,311.26 L 154.15,310.15 L 159.17,309.94 L 154.50,309.83 L 152.63,308.46 L 154.78,307.95 L 158.33,308.43 Z M 144.55,306.02 L 147.96,305.72 L 146.08,306.08 L 147.34,306.51 L 144.55,306.02 Z M 141.11,305.76 L 140.76,306.66 L 136.45,305.50 L 141.11,305.76 Z M 158.13,305.31 L 159.93,305.88 L 159.94,305.95 L 157.78,306.07 L 158.13,305.31 Z M 140.97,305.51 L 139.89,305.15 L 144.15,304.93 L 140.97,305.51 Z M 131.65,304.85 L 131.99,305.22 L 128.98,305.10 L 131.65,304.85 Z M 147.41,304.69 L 147.65,304.91 L 146.25,305.27 L 147.41,304.69 Z M 137.66,303.82 L 141.94,304.67 L 139.04,304.84 L 138.82,305.50 L 136.54,304.56 L 137.66,303.82 Z M 130.80,304.21 L 129.59,303.92 L 130.29,303.79 L 132.32,303.82 L 130.80,304.21 Z M 143.13,304.21 L 138.86,303.77 L 140.46,303.41 L 143.13,304.21 Z M 132.30,302.54 L 134.05,302.61 L 131.78,302.72 L 132.30,302.54 Z M 148.34,302.47 L 148.48,303.59 L 146.08,302.86 L 145.67,301.99 L 148.34,302.47 Z M 157.25,301.82 L 160.37,301.31 L 160.58,302.57 L 157.25,301.82 Z M 142.66,300.19 L 145.24,301.38 L 141.07,300.93 L 139.89,301.18 L 141.62,301.57 L 139.38,301.83 L 135.12,301.25 L 142.66,300.19 Z M 120.74,298.01 L 125.27,298.92 L 120.22,299.39 L 118.72,299.00 L 120.74,298.01 Z M 150.50,292.27 L 155.21,292.94 L 153.08,292.97 L 149.03,292.43 L 150.50,292.27 Z M 148.89,289.64 L 145.42,289.26 L 148.79,288.97 L 148.89,289.64 Z M 149.00,287.88 L 148.15,287.15 L 150.74,287.20 L 154.03,288.57 L 149.00,287.88 Z M 160.83,286.58 L 159.51,285.98 L 160.73,286.25 L 162.18,285.96 L 160.83,286.58 Z M 173.98,284.61 L 175.44,284.12 L 176.71,284.33 L 175.87,284.96 L 173.98,284.61 Z M 129.05,295.27 L 133.51,293.25 L 135.97,290.15 L 134.51,287.69 L 135.27,285.90 L 137.93,284.86 L 139.05,282.58 L 137.66,281.81 L 141.35,281.59 L 141.88,282.16 L 139.12,282.18 L 145.05,282.71 L 147.03,281.84 L 150.20,281.80 L 151.77,282.20 L 149.86,283.12 L 152.92,284.05 L 151.77,284.73 L 154.87,286.25 L 147.65,286.96 L 147.09,287.89 L 149.03,288.44 L 145.45,288.65 L 145.24,287.93 L 143.68,288.47 L 144.06,289.35 L 152.03,291.33 L 151.59,291.88 L 146.61,291.78 L 151.77,294.23 L 144.90,294.14 L 147.58,296.45 L 143.10,297.01 L 129.05,295.27 Z M 162.23,281.27 L 162.70,281.17 L 164.31,282.17 L 162.18,282.17 L 162.23,281.27 Z M 165.06,400.55 L 165.54,400.66 L 161.91,400.93 L 165.06,400.55 Z M 231.85,396.86 L 232.23,397.55 L 226.82,397.22 L 231.85,396.86 Z M 224.17,385.50 L 219.89,386.04 L 220.39,385.92 L 224.17,385.50 Z M 129.37,382.46 L 130.50,383.43 L 127.17,382.94 L 129.37,382.46 Z M 127.91,381.29 L 127.16,381.73 L 125.80,381.04 L 127.31,380.49 L 127.91,381.29 Z M 146.34,376.16 L 146.47,377.54 L 139.79,376.06 L 146.34,376.16 Z M 131.83,371.90 L 131.58,372.11 L 129.31,372.06 L 130.25,371.36 L 131.83,371.90 Z M 116.94,361.56 L 114.76,362.86 L 109.85,363.13 L 116.94,361.56 Z M 127.50,354.10 L 128.55,353.40 L 132.04,354.55 L 128.57,355.17 L 127.50,354.10 Z M 126.06,338.24 L 126.10,338.76 L 123.10,339.28 L 122.95,338.10 L 126.06,338.24 Z M 109.79,327.58 L 110.84,328.52 L 105.56,327.81 L 109.79,327.58 Z M 133.48,296.91 L 132.81,297.05 L 132.14,296.96 L 132.91,296.32 L 133.48,296.91 Z M 147.90,294.87 L 147.78,295.33 L 146.34,295.06 L 147.90,294.87 Z M 166.13,290.43 L 166.42,291.03 L 165.47,291.22 L 164.15,290.17 L 166.13,290.43 Z M 158.33,289.57 L 158.38,289.75 L 155.42,289.55 L 158.33,289.57 Z M 141.48,249.91 L 140.44,249.01 L 141.01,249.10 L 141.48,249.91 Z M 151.25,236.43 L 153.17,237.22 L 151.35,237.42 L 151.25,236.43 Z" fill="#C8D8E8" stroke="#8BAABB" stroke-width="0.8"/>
<path d="M 433.69,86.98 L 433.86,82.16 L 442.01,77.94 L 446.81,73.64 L 490.67,70.37 L 514.19,70.31 L 536.93,75.39 L 536.97,79.25 L 541.32,81.03 L 541.54,83.47 L 544.63,83.91 L 542.55,84.42 L 544.58,84.78 L 543.19,85.47 L 545.64,85.92 L 541.40,96.45 L 569.78,98.51 L 573.31,97.78 L 574.99,98.23 L 578.44,96.61 L 581.04,96.46 L 585.90,98.34 L 594.77,98.47 L 600.73,101.75 L 600.37,105.15 L 605.83,114.11 L 612.24,114.70 L 625.45,112.70 L 635.34,115.02 L 633.10,115.94 L 634.92,117.91 L 629.89,124.28 L 630.79,125.34 L 626.19,128.00 L 625.47,135.18 L 621.59,139.39 L 618.40,139.66 L 612.92,142.29 L 605.99,142.53 L 601.37,144.30 L 601.54,145.81 L 597.44,146.89 L 593.97,145.87 L 588.15,145.53 L 581.24,148.24 L 577.56,147.00 L 571.91,147.48 L 568.57,146.66 L 561.64,147.30 L 540.50,145.16 L 525.88,145.69 L 524.65,144.19 L 529.12,142.14 L 533.13,141.54 L 532.52,140.92 L 536.57,139.44 L 537.26,135.03 L 544.25,133.43 L 546.72,130.53 L 551.72,129.24 L 552.15,128.10 L 547.23,125.63 L 535.43,123.38 L 532.62,123.86 L 529.17,122.54 L 520.73,121.84 L 489.99,114.61 L 482.36,114.69 L 465.56,112.71 L 462.96,110.85 L 453.14,108.98 L 441.70,105.47 L 433.40,100.30 L 424.28,97.95 L 433.69,86.98 Z" fill="#C8D8E8" stroke="#8BAABB" stroke-width="0.8"/>
<path d="M 552.71,173.48 L 560.01,173.66 L 564.23,171.90 L 570.40,171.86 L 590.99,178.40 L 590.99,181.07 L 594.93,181.00 L 601.53,178.88 L 610.25,182.60 L 626.32,184.62 L 634.61,188.03 L 647.60,190.21 L 652.52,193.92 L 663.60,196.34 L 653.76,200.02 L 653.06,205.19 L 657.09,206.05 L 653.07,209.07 L 647.63,211.00 L 647.41,212.15 L 637.84,214.75 L 634.98,214.93 L 635.51,214.02 L 633.25,213.76 L 633.81,215.13 L 617.91,217.59 L 598.98,215.67 L 587.36,217.32 L 581.16,216.51 L 581.83,215.84 L 569.33,214.78 L 562.35,212.72 L 544.69,212.91 L 539.12,210.29 L 535.81,209.87 L 530.94,207.76 L 530.02,205.65 L 532.23,200.23 L 537.60,199.98 L 539.84,198.26 L 536.10,194.11 L 538.63,192.33 L 536.37,191.13 L 535.97,188.69 L 539.83,187.79 L 541.57,185.92 L 539.17,184.76 L 543.44,182.56 L 543.47,179.64 L 546.17,179.06 L 544.14,175.74 L 549.78,174.00 L 551.03,172.70 L 552.71,173.48 Z" fill="#C8D8E8" stroke="#8BAABB" stroke-width="0.8"/>
<path d="M 314.38,101.76 L 314.23,100.68 L 320.45,99.77 L 321.68,97.87 L 332.44,96.48 L 334.58,93.75 L 346.58,96.82 L 364.76,96.66 L 375.41,97.69 L 382.22,103.94 L 384.09,100.83 L 391.70,95.82 L 420.41,95.79 L 424.91,98.62 L 434.55,100.81 L 441.70,105.47 L 453.14,108.98 L 462.96,110.85 L 465.56,112.71 L 482.36,114.69 L 489.99,114.61 L 520.73,121.84 L 529.17,122.54 L 532.62,123.86 L 535.43,123.38 L 547.23,125.63 L 552.15,128.10 L 551.72,129.24 L 546.72,130.53 L 544.25,133.43 L 537.26,135.03 L 536.57,139.44 L 532.52,140.92 L 533.13,141.54 L 529.12,142.14 L 524.65,144.19 L 525.88,145.69 L 540.50,145.16 L 561.64,147.30 L 568.57,146.66 L 571.91,147.48 L 577.56,147.00 L 581.24,148.24 L 588.15,145.53 L 593.97,145.87 L 597.44,146.89 L 601.54,145.81 L 601.37,144.30 L 605.99,142.53 L 612.92,142.29 L 618.40,139.66 L 621.59,139.39 L 625.47,135.18 L 626.43,129.34 L 630.27,130.41 L 631.57,129.39 L 636.72,129.39 L 636.11,128.93 L 638.58,128.58 L 639.02,129.54 L 643.76,129.85 L 645.68,132.97 L 650.00,135.77 L 647.17,140.04 L 648.72,141.83 L 645.77,144.20 L 642.40,144.17 L 639.20,145.40 L 637.06,145.01 L 634.30,146.75 L 621.29,147.67 L 618.57,149.65 L 614.35,150.03 L 615.65,150.71 L 608.50,151.32 L 605.32,152.86 L 596.99,154.30 L 599.73,155.18 L 598.96,155.88 L 593.65,155.67 L 593.74,156.49 L 584.09,159.45 L 580.53,162.17 L 575.78,163.02 L 573.98,164.61 L 563.80,168.58 L 558.85,169.17 L 558.00,170.73 L 550.25,172.63 L 549.78,174.00 L 543.82,176.08 L 546.17,179.06 L 543.47,179.64 L 543.44,182.56 L 539.17,184.76 L 541.57,185.92 L 539.83,187.79 L 535.97,188.69 L 536.37,191.13 L 538.63,192.33 L 535.53,194.29 L 537.37,199.56 L 530.25,200.05 L 530.70,201.89 L 527.95,203.31 L 527.26,205.71 L 531.55,210.25 L 526.73,211.19 L 529.64,211.92 L 529.15,213.38 L 533.14,214.66 L 553.06,218.00 L 559.92,220.21 L 562.95,222.02 L 557.31,224.71 L 556.96,227.16 L 559.94,228.87 L 567.69,230.89 L 572.68,230.24 L 574.40,232.91 L 574.04,235.99 L 553.93,244.48 L 552.14,247.19 L 532.74,250.69 L 495.93,253.94 L 452.71,255.56 L 439.94,254.87 L 436.66,253.67 L 431.07,253.56 L 431.22,254.51 L 433.73,255.03 L 431.62,256.41 L 434.15,257.85 L 432.43,257.85 L 440.01,258.88 L 439.18,259.32 L 433.48,258.37 L 439.21,259.70 L 437.74,263.17 L 432.95,263.07 L 431.58,266.65 L 428.30,267.74 L 433.98,270.03 L 432.33,271.13 L 436.05,270.73 L 432.13,273.05 L 422.29,274.63 L 413.00,275.70 L 395.93,275.73 L 388.83,274.24 L 367.50,272.59 L 371.68,272.34 L 370.39,271.64 L 365.73,271.64 L 367.56,272.08 L 361.97,272.76 L 361.59,275.94 L 365.49,279.17 L 363.40,283.18 L 365.15,284.51 L 368.86,285.46 L 378.31,286.03 L 375.26,287.60 L 379.21,287.83 L 387.78,287.66 L 388.67,286.17 L 381.86,285.87 L 396.20,284.37 L 400.48,286.45 L 399.92,290.69 L 387.68,291.94 L 384.07,290.92 L 385.30,289.61 L 379.39,288.40 L 366.63,289.78 L 365.35,291.01 L 382.80,292.85 L 366.68,295.28 L 356.97,299.26 L 358.45,302.09 L 360.59,302.76 L 357.52,304.30 L 359.83,305.87 L 356.95,306.75 L 358.26,307.27 L 349.12,308.70 L 347.02,310.03 L 352.18,311.18 L 347.93,312.41 L 335.13,311.75 L 327.69,312.65 L 328.28,313.40 L 325.40,313.13 L 327.00,313.85 L 316.83,314.23 L 306.72,317.58 L 305.90,319.21 L 300.52,321.15 L 299.42,322.75 L 304.42,326.54 L 311.79,327.85 L 320.41,330.67 L 340.68,331.23 L 346.57,332.53 L 346.80,335.39 L 344.04,337.58 L 339.36,337.55 L 330.39,338.72 L 342.63,337.84 L 346.14,339.52 L 341.99,339.45 L 342.24,341.07 L 337.44,341.16 L 331.60,343.32 L 312.18,346.33 L 310.07,347.69 L 301.08,349.54 L 297.17,352.36 L 294.19,352.96 L 296.84,353.07 L 299.79,351.89 L 296.67,356.74 L 292.58,358.76 L 281.36,359.90 L 273.52,356.52 L 271.36,356.23 L 275.44,358.11 L 264.49,358.86 L 275.29,358.51 L 281.15,360.19 L 267.93,361.90 L 262.91,364.05 L 261.39,367.28 L 254.51,368.97 L 260.62,367.98 L 265.77,373.45 L 255.36,373.42 L 249.34,374.06 L 257.18,373.76 L 260.89,374.15 L 259.83,374.63 L 265.49,374.01 L 280.76,380.46 L 279.02,381.25 L 278.53,380.40 L 240.90,377.65 L 190.37,377.30 L 189.95,376.12 L 178.19,373.38 L 182.99,370.49 L 179.33,369.18 L 182.82,367.82 L 180.77,365.77 L 181.89,364.89 L 170.51,364.58 L 159.92,365.83 L 157.24,361.92 L 151.06,360.11 L 152.36,358.88 L 150.00,358.15 L 152.70,356.54 L 159.44,355.81 L 162.88,354.61 L 160.08,351.17 L 164.14,349.31 L 173.96,347.70 L 175.01,344.25 L 181.90,343.27 L 180.88,340.66 L 175.84,339.20 L 180.84,336.27 L 180.42,334.84 L 185.21,334.44 L 188.73,332.46 L 192.49,332.69 L 192.65,331.95 L 189.36,331.19 L 191.63,330.59 L 190.75,328.86 L 197.35,327.70 L 195.44,323.51 L 191.64,322.64 L 199.23,320.94 L 195.56,319.79 L 195.39,317.20 L 202.32,316.50 L 201.84,315.66 L 206.64,314.33 L 199.82,311.61 L 187.65,310.90 L 187.27,309.78 L 207.13,309.90 L 211.53,307.59 L 209.34,306.44 L 192.99,305.97 L 194.42,305.38 L 193.04,303.44 L 198.03,301.73 L 194.03,300.15 L 196.80,299.46 L 196.67,298.69 L 190.62,297.20 L 191.96,296.06 L 195.75,295.81 L 195.95,294.82 L 186.25,293.43 L 185.77,289.20 L 188.51,288.16 L 186.14,286.34 L 188.49,285.00 L 191.41,285.30 L 196.12,284.42 L 191.35,280.38 L 193.18,279.57 L 191.91,277.70 L 193.22,273.66 L 190.61,271.62 L 197.68,267.89 L 193.92,266.82 L 194.16,265.72 L 197.44,265.78 L 199.12,264.00 L 196.67,261.10 L 201.96,261.11 L 204.56,254.61 L 215.99,253.08 L 218.68,251.55 L 215.26,250.05 L 214.42,246.73 L 209.96,243.30 L 211.65,241.05 L 209.44,239.41 L 212.37,237.64 L 209.40,236.41 L 211.20,236.21 L 209.70,235.15 L 210.96,233.74 L 213.16,233.73 L 213.52,231.82 L 221.67,231.17 L 221.87,229.77 L 230.00,227.82 L 228.96,221.23 L 225.18,220.32 L 230.01,219.44 L 231.77,215.49 L 238.02,212.38 L 238.27,211.22 L 244.01,210.67 L 241.87,206.34 L 245.05,202.65 L 243.81,201.58 L 239.47,201.90 L 236.97,200.68 L 239.71,197.93 L 235.81,196.63 L 235.68,194.25 L 229.95,190.19 L 232.57,190.13 L 233.58,189.15 L 228.06,188.17 L 224.91,185.63 L 225.43,183.16 L 227.67,181.21 L 229.46,181.71 L 233.02,180.64 L 231.20,179.72 L 235.36,174.33 L 240.61,174.43 L 243.84,172.43 L 240.21,171.59 L 241.84,169.08 L 238.70,164.31 L 244.64,162.44 L 248.43,155.85 L 260.05,151.66 L 269.49,143.85 L 275.23,144.25 L 281.64,143.15 L 282.27,141.76 L 274.99,137.62 L 275.50,136.18 L 279.67,134.68 L 274.72,128.04 L 276.98,125.66 L 280.73,125.09 L 275.57,121.77 L 277.50,120.19 L 283.80,118.16 L 306.52,114.55 L 314.70,105.15 L 310.18,103.48 L 314.38,101.76 Z M 273.81,404.39 L 273.82,403.87 L 275.67,404.62 L 273.81,404.39 Z M 274.18,383.59 L 282.12,386.15 L 284.27,387.94 L 281.16,387.12 L 276.86,388.11 L 276.11,389.21 L 287.14,390.20 L 290.35,392.62 L 301.03,394.83 L 300.70,395.50 L 320.91,398.71 L 328.05,400.74 L 344.07,402.45 L 361.71,402.44 L 356.26,405.07 L 353.65,404.68 L 348.47,405.50 L 341.01,404.84 L 340.33,405.50 L 328.85,406.25 L 314.27,404.87 L 282.35,403.81 L 276.87,404.37 L 273.82,403.72 L 274.18,383.59 Z M 395.10,403.22 L 391.22,404.02 L 390.90,403.48 L 384.25,404.23 L 382.57,403.67 L 374.71,404.86 L 371.33,404.19 L 377.26,403.71 L 376.77,403.09 L 380.73,403.74 L 381.25,403.00 L 395.10,403.22 Z M 443.92,257.70 L 438.15,256.28 L 442.64,256.89 L 443.92,257.70 Z M 437.33,255.65 L 439.60,255.50 L 441.43,255.89 L 437.33,255.65 Z M 439.89,269.12 L 437.88,270.15 L 434.65,269.64 L 436.71,268.36 L 439.89,269.12 Z M 440.24,266.49 L 440.08,268.08 L 437.26,266.55 L 440.24,266.49 Z" fill="#4A90D9" stroke="#1a5fa8" stroke-width="1.2"/>
<path d="M 255.20,41.11 L 252.19,41.27 L 253.90,39.50 L 247.63,39.10 L 244.18,37.37 L 242.81,38.08 L 244.64,38.61 L 239.02,37.89 L 241.09,35.32 L 245.84,36.78 L 240.98,33.85 L 244.54,33.21 L 242.59,32.83 L 246.78,32.77 L 246.72,32.25 L 253.80,34.66 L 255.54,34.46 L 258.04,36.28 L 260.87,36.33 L 264.37,37.64 L 264.32,38.66 L 270.60,39.17 L 267.07,40.01 L 268.61,41.36 L 275.46,41.76 L 275.32,42.45 L 265.92,43.55 L 268.17,43.81 L 268.26,45.03 L 262.42,44.03 L 264.05,42.59 L 262.76,41.88 L 268.77,41.71 L 264.42,40.43 L 261.33,39.96 L 261.98,41.59 L 257.43,41.88 L 255.20,41.11 Z" fill="#A8C8E8" stroke="none"/>
<path d="M 207.53,326.80 L 193.06,325.66 L 183.43,326.36 L 170.39,329.09 L 168.38,330.62 L 165.89,330.86 L 168.81,328.48 L 173.70,327.35 L 170.52,325.89 L 172.25,325.39 L 173.45,326.94 L 177.77,327.07 L 194.92,324.80 L 190.16,323.85 L 195.81,324.48 L 199.62,323.91 L 198.06,324.56 L 210.12,325.89 L 207.53,326.80 Z" fill="#A8C8E8" stroke="none"/>
<path d="M 164.03,276.35 L 165.60,275.77 L 163.22,275.43 L 168.25,273.77 L 172.25,274.27 L 175.32,276.19 L 171.29,276.10 L 166.83,277.24 L 164.03,276.35 Z" fill="#A8C8E8" stroke="none"/>
<path d="M 189.53,361.11 L 182.49,361.77 L 171.17,361.18 L 163.72,361.98 L 165.01,363.29 L 171.22,362.86 L 164.79,365.08 L 166.24,363.57 L 162.53,363.18 L 160.81,361.76 L 156.77,362.08 L 158.13,361.23 L 164.25,361.69 L 168.29,361.07 L 162.44,360.84 L 159.93,359.89 L 158.72,360.50 L 156.07,360.80 L 158.47,359.61 L 156.59,359.70 L 157.12,358.77 L 159.94,359.38 L 158.66,358.54 L 160.64,358.48 L 164.49,360.64 L 186.88,359.83 L 189.53,361.11 Z" fill="#A8C8E8" stroke="none"/>
<path d="M 164.68,364.86 L 164.70,364.90 L 164.68,364.92 L 164.68,364.86 Z" fill="#A8C8E8" stroke="none"/>
<path d="M 181.40,267.30 L 182.63,267.79 L 176.38,267.66 L 175.29,266.88 L 181.02,265.79 L 182.81,267.15 L 181.40,267.30 Z" fill="#A8C8E8" stroke="none"/>
<path d="M 170.63,355.20 L 163.20,355.85 L 166.76,355.33 L 163.67,354.06 L 166.78,353.12 L 172.26,354.32 L 184.40,355.19 L 187.22,356.19 L 184.96,356.78 L 170.63,355.20 Z" fill="#A8C8E8" stroke="none"/>
<path d="M 174.03,271.05 L 180.72,270.85 L 179.81,271.23 L 174.03,271.05 Z" fill="#A8C8E8" stroke="none"/>
<path d="M 274.98,318.10 L 268.66,317.95 L 265.03,316.08 L 265.44,314.43 L 267.86,314.39 L 267.27,315.54 L 269.20,316.15 L 270.22,315.26 L 272.53,315.33 L 274.98,318.10 Z" fill="#A8C8E8" stroke="none"/>
<path d="M 187.75,258.15 L 183.84,257.96 L 184.61,257.26 L 189.28,257.53 L 187.75,258.15 Z" fill="#A8C8E8" stroke="none"/>
<path d="M 169.64,347.36 L 174.51,347.49 L 173.98,344.83 L 172.00,344.41 L 173.77,344.16 L 178.61,348.18 L 176.23,347.49 L 174.10,348.06 L 182.14,348.75 L 177.92,350.18 L 183.43,350.79 L 176.86,350.63 L 177.45,349.01 L 174.92,350.15 L 174.64,348.49 L 168.81,347.65 L 162.62,349.21 L 164.16,348.21 L 162.60,347.80 L 164.81,347.25 L 160.52,346.50 L 160.37,346.24 L 167.42,347.02 L 168.81,345.74 L 167.58,344.26 L 165.08,344.02 L 164.52,343.67 L 169.23,344.34 L 169.64,347.36 Z M 167.07,347.38 L 165.66,347.41 L 166.17,347.59 L 167.07,347.38 Z" fill="#A8C8E8" stroke="none"/>
<path d="M 199.43,274.66 L 199.96,274.91 L 197.37,275.55 L 196.85,275.50 L 198.82,274.80 L 194.44,274.37 L 200.28,273.92 L 194.62,271.77 L 204.69,273.52 L 201.58,273.83 L 204.25,274.66 L 210.28,274.83 L 207.01,275.40 L 199.43,274.66 Z" fill="#A8C8E8" stroke="none"/>
<path d="M 738.06,89.70 L 738.17,89.63 L 738.14,89.67 L 738.06,89.70 Z" fill="#A8C8E8" stroke="none"/>
<path d="M 546.34,54.63 L 544.10,53.36 L 547.91,52.95 L 546.34,54.63 Z" fill="#A8C8E8" stroke="none"/>
<path d="M 190.16,310.20 L 192.82,310.59 L 196.35,310.32 L 197.66,310.35 L 198.40,310.58 L 191.62,310.70 L 190.16,310.20 Z" fill="#A8C8E8" stroke="none"/>
<path d="M 202.38,311.45 L 198.76,310.58 L 205.46,311.48 L 202.38,311.45 Z" fill="#A8C8E8" stroke="none"/>
<path d="M 458.60,54.00 L 457.35,53.01 L 456.65,53.84 L 453.45,53.43 L 458.19,52.70 L 458.60,54.00 Z" fill="#A8C8E8" stroke="none"/>
<path d="M 561.66,157.09 L 560.11,156.82 L 562.11,155.40 L 566.80,155.52 L 561.66,157.09 Z" fill="#A8C8E8" stroke="none"/>
<path d="M 566.94,155.00 L 565.62,154.83 L 565.35,154.00 L 569.18,153.56 L 566.94,155.00 Z" fill="#A8C8E8" stroke="none"/>
<path d="M 342.03,12.36 L 340.03,12.34 L 339.57,10.83 L 342.87,10.69 L 342.03,12.36 Z" fill="#A8C8E8" stroke="none"/>
<path d="M 352.49,11.63 L 350.33,11.01 L 349.90,8.94 L 352.08,9.21 L 352.49,11.63 Z" fill="#A8C8E8" stroke="none"/>
<path d="M 261.25,317.03 L 257.97,317.36 L 259.26,315.05 L 256.69,314.38 L 261.94,314.34 L 261.25,317.03 Z" fill="#A8C8E8" stroke="none"/>
<path d="M 212.70,348.31 L 210.49,349.43 L 205.01,348.90 L 206.02,347.75 L 210.82,347.48 L 212.70,348.31 Z" fill="#A8C8E8" stroke="none"/>
<path d="M 184.47,273.05 L 176.95,273.03 L 172.11,272.14 L 184.47,273.05 Z" fill="#A8C8E8" stroke="none"/>
<path d="M 276.91,252.10 L 271.89,251.19 L 269.08,251.94 L 266.21,251.40 L 268.90,250.37 L 276.91,252.10 Z" fill="#A8C8E8" stroke="none"/>
<path d="M 617.11,127.57 L 613.99,127.38 L 614.62,126.81 L 611.87,127.37 L 609.45,126.21 L 607.17,126.98 L 603.18,127.04 L 600.91,126.21 L 601.31,125.65 L 603.16,126.80 L 605.70,126.86 L 607.89,126.13 L 606.57,126.35 L 605.07,126.04 L 609.78,125.87 L 603.76,124.02 L 616.42,127.16 L 617.11,127.57 Z" fill="#A8C8E8" stroke="none"/>
<path d="M 791.42,102.06 L 784.91,101.47 L 783.52,101.92 L 788.83,102.32 L 788.65,102.91 L 784.07,102.14 L 782.86,102.72 L 783.05,101.68 L 780.56,101.94 L 778.68,100.59 L 792.54,101.84 L 791.42,102.06 Z" fill="#A8C8E8" stroke="none"/>
<path d="M 778.31,107.73 L 774.93,109.00 L 776.49,109.35 L 776.51,109.83 L 775.74,110.19 L 773.86,109.15 L 774.65,108.32 L 767.48,107.99 L 768.77,109.51 L 766.33,108.73 L 766.64,107.78 L 762.49,107.70 L 764.94,108.71 L 761.99,108.31 L 763.18,109.80 L 760.78,107.35 L 762.56,106.55 L 762.93,107.32 L 765.06,106.83 L 763.86,107.35 L 766.15,106.87 L 766.76,107.35 L 767.34,106.77 L 768.52,107.80 L 771.63,106.96 L 774.77,108.10 L 776.77,107.35 L 776.73,108.06 L 778.31,107.73 Z" fill="#A8C8E8" stroke="none"/>
<path d="M 758.68,93.18 L 758.51,91.83 L 749.87,89.99 L 752.35,92.52 L 749.10,91.14 L 748.56,89.60 L 744.24,88.79 L 739.39,88.44 L 740.58,89.04 L 738.96,88.78 L 738.17,89.63 L 737.10,87.28 L 740.29,86.42 L 740.19,87.88 L 747.99,88.89 L 749.69,87.94 L 749.55,89.13 L 751.37,88.74 L 751.51,89.48 L 753.84,87.84 L 759.29,87.17 L 760.31,87.56 L 754.22,88.43 L 752.91,89.59 L 754.75,89.49 L 754.42,90.32 L 757.38,89.55 L 755.33,90.73 L 758.41,90.74 L 760.00,91.76 L 761.54,91.32 L 760.68,92.39 L 762.68,92.20 L 766.80,93.43 L 762.69,92.68 L 761.32,94.72 L 761.31,93.01 L 758.68,93.18 Z" fill="#A8C8E8" stroke="none"/>
<path d="M 728.09,86.54 L 726.91,87.37 L 726.28,86.09 L 721.90,85.42 L 721.98,86.39 L 720.18,85.14 L 717.94,85.93 L 719.04,84.78 L 714.62,84.69 L 714.58,83.91 L 710.03,82.93 L 713.15,82.52 L 719.63,84.09 L 721.25,83.57 L 722.63,84.82 L 727.65,85.11 L 728.95,86.25 L 733.93,86.70 L 728.09,86.54 Z" fill="#A8C8E8" stroke="none"/>
<path d="M 799.59,61.76 L 800.00,61.87 L 800.00,62.48 L 797.85,62.17 L 798.69,63.41 L 795.69,62.58 L 795.33,63.28 L 791.97,62.94 L 793.25,61.63 L 793.95,62.28 L 797.08,60.92 L 800.00,60.95 L 800.00,61.76 L 799.59,61.76 Z" fill="#A8C8E8" stroke="none"/>
<path d="M 637.82,121.28 L 633.29,122.06 L 636.80,123.25 L 632.16,122.57 L 631.53,123.99 L 634.89,124.60 L 632.42,124.75 L 633.79,125.32 L 631.86,125.71 L 637.28,126.10 L 632.23,126.46 L 633.64,126.91 L 630.29,126.62 L 632.74,127.73 L 625.29,127.93 L 626.26,126.92 L 624.63,126.47 L 627.29,126.52 L 629.34,125.35 L 621.65,124.75 L 624.07,124.08 L 628.69,124.59 L 629.31,123.36 L 620.20,122.91 L 629.85,122.84 L 630.28,121.80 L 625.72,121.22 L 631.79,121.01 L 632.06,120.09 L 629.56,119.76 L 632.04,119.59 L 630.52,118.34 L 632.95,118.63 L 634.14,117.78 L 631.75,116.70 L 634.60,115.14 L 635.83,121.00 L 637.82,121.28 Z" fill="#A8C8E8" stroke="none"/>
<path d="M 703.35,78.81 L 708.13,79.88 L 708.77,79.12 L 713.07,79.40 L 710.77,77.81 L 714.96,78.82 L 715.11,74.34 L 716.90,73.84 L 717.69,77.02 L 727.33,75.27 L 725.21,76.69 L 719.59,77.18 L 716.72,78.61 L 721.50,80.08 L 716.21,79.59 L 715.65,80.57 L 714.46,79.94 L 713.48,80.75 L 709.46,80.40 L 712.99,81.58 L 718.33,82.05 L 711.79,81.67 L 708.77,80.76 L 707.41,81.24 L 705.85,80.97 L 707.06,80.12 L 703.35,78.81 Z" fill="#A8C8E8" stroke="none"/>
<path d="M 693.32,90.33 L 692.71,91.07 L 690.54,91.31 L 691.04,92.40 L 684.09,95.05 L 682.45,96.68 L 667.60,100.02 L 668.35,98.89 L 679.41,97.27 L 686.80,93.22 L 685.43,92.29 L 687.42,93.19 L 690.14,92.18 L 689.77,90.92 L 693.32,90.33 Z" fill="#A8C8E8" stroke="none"/>
<path d="M 604.61,194.55 L 600.73,194.52 L 600.91,195.03 L 598.56,194.98 L 597.43,194.65 L 598.49,196.25 L 595.90,195.73 L 597.28,196.90 L 594.01,195.68 L 594.19,197.03 L 587.22,196.83 L 586.96,197.74 L 591.62,198.57 L 586.46,198.12 L 586.29,198.96 L 583.61,197.60 L 581.06,197.95 L 579.31,197.54 L 570.79,198.32 L 570.69,196.90 L 572.68,197.67 L 573.13,196.82 L 573.73,197.48 L 576.39,195.80 L 575.07,197.59 L 577.25,197.28 L 580.77,197.72 L 583.09,195.28 L 581.94,196.73 L 583.95,197.22 L 587.86,195.46 L 589.38,195.96 L 590.87,195.06 L 591.53,195.61 L 592.48,194.70 L 595.73,195.48 L 595.58,194.19 L 598.49,194.77 L 598.40,193.75 L 602.16,194.39 L 604.63,193.83 L 604.61,194.55 Z" fill="#A8C8E8" stroke="none"/>
<path d="M 262.43,261.06 L 256.26,261.67 L 260.49,260.47 L 258.17,259.95 L 260.09,259.51 L 263.62,259.79 L 266.40,259.16 L 262.81,259.16 L 269.33,258.07 L 270.93,257.98 L 269.97,258.65 L 272.74,258.42 L 271.39,259.67 L 268.78,259.42 L 262.43,261.06 Z" fill="#A8C8E8" stroke="none"/>
<path d="M 730.01,66.36 L 728.10,65.50 L 732.18,65.37 L 732.21,63.68 L 735.25,64.20 L 735.44,63.15 L 736.63,64.23 L 740.26,63.97 L 739.23,60.99 L 742.01,63.57 L 747.25,63.95 L 741.36,64.19 L 742.33,65.48 L 738.07,64.67 L 734.69,65.07 L 734.10,65.71 L 736.83,65.90 L 729.91,67.00 L 733.18,67.62 L 728.85,67.73 L 727.53,66.61 L 730.01,66.36 Z" fill="#A8C8E8" stroke="none"/>
<path d="M 777.16,61.54 L 777.93,62.68 L 775.36,61.55 L 764.21,62.11 L 767.14,60.63 L 771.90,60.21 L 770.75,58.94 L 772.97,60.06 L 775.71,58.80 L 773.74,60.39 L 770.05,61.09 L 782.05,61.38 L 785.10,60.12 L 784.36,61.11 L 786.60,61.36 L 777.16,61.54 Z" fill="#A8C8E8" stroke="none"/>
<path d="M 736.21,76.71 L 732.40,75.85 L 739.81,74.77 L 743.76,76.08 L 754.19,75.78 L 757.43,76.77 L 745.11,76.78 L 750.59,78.13 L 744.31,77.53 L 742.12,76.51 L 740.65,78.35 L 740.07,76.35 L 736.87,76.05 L 736.21,76.71 Z" fill="#A8C8E8" stroke="none"/>
<path d="M 749.74,106.69 L 754.40,111.13 L 751.15,109.77 L 751.58,111.37 L 748.57,110.23 L 750.47,108.92 L 746.85,108.74 L 749.23,107.26 L 746.86,105.90 L 754.88,106.19 L 749.74,106.69 Z" fill="#A8C8E8" stroke="none"/>
<path d="M 722.25,104.90 L 717.91,103.46 L 718.72,104.98 L 716.81,105.99 L 717.01,103.80 L 714.47,103.18 L 710.99,103.51 L 709.07,102.24 L 707.75,104.23 L 705.05,101.74 L 709.21,100.74 L 709.34,101.51 L 713.02,101.36 L 712.28,102.24 L 716.51,102.65 L 718.83,101.23 L 717.79,102.71 L 720.21,102.43 L 720.77,103.38 L 723.08,103.57 L 722.59,104.40 L 728.76,104.51 L 722.25,104.90 Z" fill="#A8C8E8" stroke="none"/>
<path d="M 676.63,195.48 L 672.11,198.19 L 669.25,198.27 L 666.71,196.79 L 663.49,197.20 L 661.15,199.66 L 655.97,200.57 L 655.45,203.98 L 653.22,204.62 L 651.04,199.53 L 658.46,198.60 L 659.42,197.44 L 657.76,196.76 L 665.87,195.38 L 667.59,194.10 L 672.25,193.30 L 670.94,192.70 L 674.86,191.34 L 673.87,192.78 L 676.63,194.01 L 676.63,195.48 Z" fill="#A8C8E8" stroke="none"/>
<path d="M 434.39,178.77 L 425.03,178.86 L 422.11,179.77 L 414.92,177.45 L 423.03,176.49 L 424.01,175.69 L 430.78,175.94 L 435.10,176.96 L 434.39,178.77 Z" fill="#A8C8E8" stroke="none"/>
<path d="M 317.89,68.43 L 315.08,69.38 L 313.02,66.52 L 309.82,65.67 L 311.59,64.81 L 308.71,64.15 L 313.57,61.59 L 313.18,60.36 L 309.39,59.39 L 312.01,58.45 L 314.13,58.71 L 312.76,59.94 L 314.38,60.58 L 312.33,64.28 L 317.84,67.13 L 317.89,68.43 Z" fill="#A8C8E8" stroke="none"/>
</svg>