<svg xmlns="http://www.w3.org/2000/svg" width="800" height="500" viewBox="0 0 800 500">
<rect width="800" height="500" fill="#A8C8E8"/>
<path d="M 2.71,112.51 L 11.63,106.28 L 26.35,119.05 L 63.41,126.77 L 37.84,160.23 L 33.94,186.88 L 23.12,207.49 L 25.44,222.91 L 18.28,248.63 L 23.14,260.58 L 9.54,275.58 L 0.00,273.53 L 0.00,112.46 L 2.71,112.51 Z" fill="#E8E0D0" stroke="#B8B0A0" stroke-width="0.5"/>
<path d="M 757.52,57.62 L 746.32,53.21 L 744.68,45.14 L 800.00,45.14 L 800.00,65.80 L 780.68,84.34 L 768.91,84.83 L 768.84,74.74 L 760.45,73.04 L 757.52,57.62 Z" fill="#E8E0D0" stroke="#B8B0A0" stroke-width="0.5"/>
<path d="M 769.32,447.18 L 761.90,428.81 L 775.67,413.74 L 788.66,416.72 L 800.00,405.97 L 800.00,454.86 L 765.81,454.86 L 769.32,447.18 Z" fill="#E8E0D0" stroke="#B8B0A0" stroke-width="0.5"/>
<path d="M 629.63,377.72 L 659.30,416.41 L 679.03,421.13 L 696.53,437.15 L 732.34,440.06 L 748.81,423.91 L 764.92,421.61 L 761.22,432.86 L 769.32,447.18 L 765.81,454.86 L 527.07,454.86 L 526.77,453.71 L 533.67,449.95 L 525.88,441.85 L 553.49,430.33 L 554.92,411.39 L 547.84,403.86 L 551.11,394.69 L 575.98,385.81 L 578.52,378.14 L 592.79,378.57 L 590.12,366.87 L 597.28,361.64 L 629.63,377.72 Z M 481.69,447.27 L 487.15,454.86 L 476.10,454.86 L 481.69,447.27 Z" fill="#E8E0D0" stroke="#B8B0A0" stroke-width="0.5"/>
<path d="M 746.32,53.21 L 757.52,57.62 L 760.45,73.04 L 740.94,75.82 L 716.36,97.54 L 710.78,118.14 L 687.95,136.09 L 651.25,136.39 L 636.67,161.29 L 631.95,150.10 L 608.78,141.67 L 598.21,149.30 L 580.32,147.78 L 562.82,135.17 L 509.43,121.78 L 505.21,145.84 L 496.08,144.50 L 487.90,164.01 L 473.65,157.49 L 464.31,165.79 L 446.29,161.58 L 417.96,127.98 L 406.07,126.63 L 378.04,94.01 L 354.69,80.91 L 337.65,50.39 L 340.71,45.14 L 744.68,45.14 L 746.32,53.21 Z" fill="#C8D8E8" stroke="#8BAABB" stroke-width="0.8"/>
<path d="M 425.03,169.32 L 407.85,164.28 L 404.64,183.45 L 360.94,209.08 L 377.48,235.02 L 370.98,247.05 L 382.78,253.29 L 378.18,272.13 L 363.56,263.48 L 362.45,252.57 L 345.05,256.27 L 328.15,251.40 L 328.38,246.23 L 323.88,258.59 L 287.62,260.09 L 262.48,279.15 L 245.60,279.48 L 237.68,265.84 L 209.53,261.32 L 209.47,278.95 L 191.87,291.12 L 195.11,281.24 L 186.82,282.55 L 177.85,264.85 L 167.11,260.21 L 156.00,266.69 L 127.86,252.23 L 108.08,253.62 L 86.87,239.49 L 75.93,252.71 L 90.09,253.60 L 87.92,259.82 L 65.55,256.95 L 53.05,262.93 L 24.70,262.52 L 27.97,259.42 L 23.14,260.58 L 18.28,248.63 L 25.44,222.91 L 22.68,208.98 L 33.94,186.88 L 37.84,160.23 L 63.41,126.77 L 26.35,119.05 L 11.63,106.28 L 2.71,112.51 L 0.00,112.46 L 0.00,45.14 L 340.71,45.14 L 337.65,50.39 L 354.69,80.91 L 378.04,94.01 L 389.76,111.21 L 408.14,128.09 L 417.96,127.98 L 431.53,145.48 L 425.03,169.32 Z" fill="#C8D8E8" stroke="#8BAABB" stroke-width="0.8"/>
<path d="M 788.66,416.72 L 777.19,413.08 L 770.19,422.52 L 748.81,423.91 L 732.34,440.06 L 696.53,437.15 L 679.03,421.13 L 662.91,419.23 L 629.63,377.72 L 608.50,366.05 L 598.87,352.29 L 596.05,333.16 L 580.89,330.89 L 592.74,317.10 L 606.60,317.66 L 602.56,315.17 L 608.12,304.13 L 601.78,299.29 L 605.74,290.56 L 603.17,278.87 L 616.73,273.41 L 619.90,265.12 L 616.04,256.94 L 601.46,253.11 L 611.94,244.07 L 627.00,251.74 L 645.22,248.52 L 640.54,233.44 L 652.39,218.15 L 694.41,244.48 L 751.25,241.75 L 759.35,236.43 L 754.55,222.95 L 760.80,216.23 L 799.46,211.77 L 800.00,211.18 L 800.00,405.97 L 788.66,416.72 Z" fill="#C8D8E8" stroke="#8BAABB" stroke-width="0.8"/>
<path d="M 20.20,416.46 L 40.04,422.78 L 57.53,402.55 L 56.01,388.44 L 76.45,370.87 L 79.00,391.99 L 103.31,406.17 L 100.62,416.56 L 107.38,420.07 L 109.28,431.82 L 115.99,432.37 L 119.97,424.75 L 115.97,411.08 L 130.58,392.40 L 134.34,366.47 L 144.33,366.38 L 151.00,385.83 L 176.04,378.77 L 186.36,393.48 L 191.81,389.35 L 187.41,382.88 L 190.62,375.67 L 183.12,371.45 L 183.54,363.01 L 193.99,353.87 L 210.50,362.54 L 211.49,354.18 L 205.59,349.43 L 211.14,330.72 L 246.74,340.01 L 258.38,321.04 L 295.12,320.38 L 324.34,309.22 L 320.82,326.40 L 329.98,330.36 L 339.05,347.70 L 424.01,364.29 L 402.00,386.64 L 404.94,394.66 L 419.84,397.34 L 408.33,414.29 L 417.77,416.33 L 415.16,431.44 L 429.10,439.90 L 436.71,450.77 L 433.97,454.86 L 428.21,454.86 L 424.72,454.53 L 431.03,452.48 L 415.70,435.40 L 404.39,446.52 L 402.27,439.79 L 385.88,437.12 L 383.63,449.79 L 372.56,454.86 L 0.00,454.86 L 0.00,424.79 L 20.20,416.46 Z" fill="#C8D8E8" stroke="#8BAABB" stroke-width="0.8"/>
<path d="M 156.20,307.12 L 153.94,311.98 L 147.11,311.30 L 150.00,291.93 L 156.20,307.12 Z" fill="#C8D8E8" stroke="#8BAABB" stroke-width="0.8"/>
<path d="M 799.46,211.77 L 760.80,216.23 L 754.55,222.95 L 759.35,236.43 L 751.25,241.75 L 688.92,242.98 L 662.43,220.25 L 644.84,216.65 L 630.08,184.52 L 641.94,147.44 L 651.25,136.39 L 687.95,136.09 L 710.78,118.14 L 716.36,97.54 L 740.94,75.82 L 766.94,73.62 L 768.91,84.83 L 780.68,84.34 L 800.00,64.59 L 800.00,211.18 L 799.46,211.77 Z" fill="#C8D8E8" stroke="#8BAABB" stroke-width="0.8"/>
<path d="M 436.71,450.77 L 416.16,433.49 L 417.77,416.33 L 408.33,414.29 L 419.84,397.34 L 404.94,394.66 L 402.00,386.64 L 424.01,364.29 L 479.03,378.04 L 499.36,356.37 L 513.23,351.65 L 539.49,355.05 L 550.86,345.03 L 564.94,344.35 L 575.82,349.59 L 572.88,334.99 L 580.89,330.89 L 596.05,333.16 L 599.40,353.64 L 607.55,361.85 L 592.02,364.67 L 592.79,378.57 L 578.52,378.14 L 575.98,385.81 L 551.11,394.69 L 547.84,403.86 L 554.92,411.39 L 553.49,430.33 L 525.88,441.85 L 533.67,449.95 L 526.77,453.71 L 527.07,454.86 L 487.15,454.86 L 481.69,447.27 L 476.10,454.86 L 427.02,454.86 L 436.71,450.77 Z" fill="#C8D8E8" stroke="#8BAABB" stroke-width="0.8"/>
<path d="M 205.59,349.43 L 211.49,354.18 L 210.50,362.54 L 193.99,353.87 L 183.54,363.01 L 183.12,371.45 L 190.62,375.67 L 189.12,392.40 L 184.19,393.44 L 176.04,378.77 L 151.00,385.83 L 144.33,366.38 L 133.09,367.67 L 130.58,392.40 L 115.97,411.08 L 119.97,424.75 L 115.99,432.37 L 109.28,431.82 L 107.38,420.07 L 100.62,416.56 L 103.31,406.17 L 79.00,391.99 L 76.45,370.87 L 56.01,388.44 L 57.53,402.55 L 39.22,423.24 L 20.20,416.46 L 0.00,422.40 L 0.00,276.31 L 0.33,276.93 L 26.49,259.57 L 29.53,264.51 L 87.04,260.12 L 90.09,253.60 L 75.93,252.71 L 86.87,239.49 L 108.08,253.62 L 133.75,254.21 L 158.47,273.49 L 147.78,297.07 L 147.11,311.30 L 172.08,316.01 L 173.21,324.59 L 188.69,332.41 L 206.23,317.96 L 211.14,330.72 L 205.59,349.43 Z" fill="#C8D8E8" stroke="#8BAABB" stroke-width="0.8"/>
<path d="M 630.08,184.52 L 650.00,219.60 L 640.54,233.44 L 645.22,248.52 L 627.00,251.74 L 611.94,244.07 L 601.46,253.11 L 616.04,256.94 L 619.90,265.12 L 616.73,273.41 L 603.17,278.87 L 605.74,290.56 L 601.78,299.29 L 608.12,304.13 L 602.56,315.17 L 606.60,317.66 L 592.74,317.10 L 573.52,334.30 L 575.82,349.59 L 564.94,344.35 L 550.86,345.03 L 539.49,355.05 L 513.23,351.65 L 499.36,356.37 L 479.03,378.04 L 339.05,347.70 L 329.98,330.36 L 320.82,326.40 L 324.34,309.22 L 295.12,320.38 L 258.38,321.04 L 246.74,340.01 L 213.27,332.48 L 205.87,317.89 L 188.69,332.41 L 173.21,324.59 L 172.08,316.01 L 153.94,311.98 L 150.00,291.93 L 158.41,277.62 L 151.73,265.46 L 167.11,260.21 L 182.87,270.00 L 186.82,282.55 L 195.11,281.24 L 191.87,291.12 L 209.47,278.95 L 209.53,261.32 L 237.68,265.84 L 245.60,279.48 L 262.48,279.15 L 287.62,260.09 L 323.88,258.59 L 324.08,248.78 L 328.38,246.23 L 328.15,251.40 L 345.05,256.27 L 362.45,252.57 L 363.56,263.48 L 378.18,272.13 L 382.78,253.29 L 370.98,247.05 L 377.48,235.02 L 361.34,208.38 L 404.64,183.45 L 407.85,164.28 L 425.03,169.32 L 431.53,145.48 L 448.52,162.50 L 464.94,165.72 L 473.65,157.49 L 487.90,164.01 L 496.08,144.50 L 505.21,145.84 L 507.99,121.96 L 562.82,135.17 L 580.32,147.78 L 598.21,149.30 L 608.78,141.67 L 631.95,150.10 L 636.67,161.29 L 630.08,184.52 Z" fill="#4A90D9" stroke="#1a5fa8" stroke-width="1.2"/>
<path d="M 148.26,269.98 L 117.94,237.59 L 136.97,251.12 L 162.94,264.28 L 148.26,269.98 Z" fill="#A8C8E8" stroke="none"/>
<path d="M 671.38,345.07 L 656.52,343.66 L 698.80,327.69 L 696.99,322.99 L 708.89,311.64 L 716.88,316.20 L 697.30,330.79 L 671.38,345.07 Z" fill="#A8C8E8" stroke="none"/>
<path d="M 124.19,252.21 L 116.88,251.38 L 112.21,253.78 L 108.04,253.58 L 116.15,248.94 L 112.52,244.84 L 124.19,252.21 Z" fill="#A8C8E8" stroke="none"/>
<path d="M 90.13,423.82 L 89.23,441.22 L 82.59,420.98 L 90.64,419.29 L 105.75,398.45 L 90.13,423.82 Z" fill="#A8C8E8" stroke="none"/>
<path d="M 227.99,448.79 L 227.79,454.86 L 216.81,454.86 L 215.84,453.09 L 237.45,425.08 L 227.99,448.79 Z" fill="#A8C8E8" stroke="none"/>
</svg>