<svg xmlns="http://www.w3.org/2000/svg" width="800" height="500" viewBox="0 0 800 500">
<rect width="800" height="500" fill="#A8C8E8"/>
<path d="M 2.71,82.21 L 11.63,74.61 L 26.35,90.20 L 63.41,99.62 L 37.84,140.45 L 33.94,172.97 L 23.12,198.13 L 25.44,216.94 L 18.28,248.33 L 23.14,262.91 L 9.54,281.21 L 0.00,278.72 L 0.00,82.15 L 2.71,82.21 Z" fill="#E8E0D0" stroke="#B8B0A0" stroke-width="0.5"/>
<path d="M 757.52,15.23 L 746.32,9.84 L 744.68,0.00 L 800.00,0.00 L 800.00,25.21 L 780.68,47.84 L 768.91,48.43 L 768.84,36.12 L 760.45,34.04 L 757.52,15.23 Z" fill="#E8E0D0" stroke="#B8B0A0" stroke-width="0.5"/>
<path d="M 769.32,490.63 L 761.90,468.21 L 775.67,449.82 L 788.66,453.46 L 800.00,440.34 L 800.00,500.00 L 765.81,500.00 L 769.32,490.63 Z" fill="#E8E0D0" stroke="#B8B0A0" stroke-width="0.5"/>
<path d="M 629.63,405.87 L 659.30,453.08 L 679.03,458.83 L 696.53,478.38 L 732.34,481.94 L 748.81,462.24 L 764.92,459.43 L 761.22,473.16 L 769.32,490.63 L 765.81,500.00 L 527.07,500.00 L 526.77,498.60 L 533.67,494.02 L 525.88,484.12 L 553.49,470.07 L 554.92,446.95 L 547.84,437.76 L 551.11,426.57 L 575.98,415.74 L 578.52,406.38 L 592.79,406.90 L 590.12,392.62 L 597.28,386.24 L 629.63,405.87 Z M 481.69,490.74 L 487.15,500.00 L 476.10,500.00 L 481.69,490.74 Z" fill="#E8E0D0" stroke="#B8B0A0" stroke-width="0.5"/>
<path d="M 746.32,9.84 L 757.52,15.23 L 760.45,34.04 L 740.94,37.44 L 716.36,63.94 L 710.78,89.08 L 687.95,110.98 L 651.25,111.36 L 636.67,141.74 L 631.95,128.09 L 608.78,117.80 L 598.21,127.11 L 580.32,125.25 L 562.82,109.87 L 509.43,93.53 L 505.21,122.88 L 496.08,121.25 L 487.90,145.06 L 473.65,137.10 L 464.31,147.23 L 446.29,142.09 L 417.96,101.09 L 406.07,99.45 L 378.04,59.64 L 354.69,43.64 L 337.65,6.40 L 340.71,0.00 L 744.68,0.00 L 746.32,9.84 Z" fill="#C8D8E8" stroke="#8BAABB" stroke-width="0.8"/>
<path d="M 425.03,151.54 L 407.85,145.39 L 404.64,168.79 L 360.94,200.06 L 377.48,231.72 L 370.98,246.40 L 382.78,254.02 L 378.18,277.01 L 363.56,266.46 L 362.45,253.14 L 345.05,257.65 L 328.15,251.71 L 328.38,245.40 L 323.88,260.48 L 287.62,262.32 L 262.48,285.58 L 245.60,285.98 L 237.68,269.33 L 209.53,263.82 L 209.47,285.33 L 191.87,300.18 L 195.11,288.13 L 186.82,289.72 L 177.85,268.13 L 167.11,262.46 L 156.00,270.37 L 127.86,252.72 L 108.08,254.41 L 86.87,237.18 L 75.93,253.31 L 90.09,254.40 L 87.92,261.98 L 65.55,258.48 L 53.05,265.77 L 24.70,265.28 L 27.97,261.49 L 23.14,262.91 L 18.28,248.33 L 25.44,216.94 L 22.68,199.94 L 33.94,172.97 L 37.84,140.45 L 63.41,99.62 L 26.35,90.20 L 11.63,74.61 L 2.71,82.21 L 0.00,82.15 L 0.00,0.00 L 340.71,0.00 L 337.65,6.40 L 354.69,43.64 L 378.04,59.64 L 389.76,80.62 L 408.14,101.22 L 417.96,101.09 L 431.53,122.45 L 425.03,151.54 Z" fill="#C8D8E8" stroke="#8BAABB" stroke-width="0.8"/>
<path d="M 788.66,453.46 L 777.19,449.01 L 770.19,460.54 L 748.81,462.24 L 732.34,481.94 L 696.53,478.38 L 679.03,458.83 L 662.91,456.52 L 629.63,405.87 L 608.50,391.62 L 598.87,374.83 L 596.05,351.48 L 580.89,348.71 L 592.74,331.89 L 606.60,332.57 L 602.56,329.54 L 608.12,316.05 L 601.78,310.15 L 605.74,299.50 L 603.17,285.23 L 616.73,278.57 L 619.90,268.45 L 616.04,258.47 L 601.46,253.80 L 611.94,242.76 L 627.00,252.12 L 645.22,248.19 L 640.54,229.79 L 652.39,211.14 L 694.41,243.26 L 751.25,239.93 L 759.35,233.45 L 754.55,216.99 L 760.80,208.79 L 799.46,203.34 L 800.00,202.63 L 800.00,440.34 L 788.66,453.46 Z" fill="#C8D8E8" stroke="#8BAABB" stroke-width="0.8"/>
<path d="M 20.20,453.14 L 40.04,460.86 L 57.53,436.16 L 56.01,418.95 L 76.45,397.51 L 79.00,423.28 L 103.31,440.59 L 100.62,453.26 L 107.38,457.54 L 109.28,471.89 L 115.99,472.56 L 119.97,463.26 L 115.97,446.58 L 130.58,423.78 L 134.34,392.14 L 144.33,392.03 L 151.00,415.76 L 176.04,407.14 L 186.36,425.10 L 191.81,420.06 L 187.41,412.16 L 190.62,403.37 L 183.12,398.21 L 183.54,387.91 L 193.99,376.75 L 210.50,387.34 L 211.49,377.14 L 205.59,371.34 L 211.14,348.51 L 246.74,359.84 L 258.38,336.70 L 295.12,335.89 L 324.34,322.27 L 320.82,343.23 L 329.98,348.07 L 339.05,369.23 L 424.01,389.48 L 402.00,416.75 L 404.94,426.53 L 419.84,429.81 L 408.33,450.49 L 417.77,452.99 L 415.16,471.42 L 429.10,481.75 L 436.71,495.01 L 433.97,500.00 L 428.21,500.00 L 424.72,499.60 L 431.03,497.09 L 415.70,476.26 L 404.39,489.83 L 402.27,481.61 L 385.88,478.36 L 383.63,493.81 L 372.56,500.00 L 0.00,500.00 L 0.00,463.31 L 20.20,453.14 Z" fill="#C8D8E8" stroke="#8BAABB" stroke-width="0.8"/>
<path d="M 156.20,319.71 L 153.94,325.64 L 147.11,324.80 L 150.00,301.16 L 156.20,319.71 Z" fill="#C8D8E8" stroke="#8BAABB" stroke-width="0.8"/>
<path d="M 799.46,203.34 L 760.80,208.79 L 754.55,216.99 L 759.35,233.45 L 751.25,239.93 L 688.92,241.43 L 662.43,213.70 L 644.84,209.30 L 630.08,170.09 L 641.94,124.84 L 651.25,111.36 L 687.95,110.98 L 710.78,89.08 L 716.36,63.94 L 740.94,37.44 L 766.94,34.75 L 768.91,48.43 L 780.68,47.84 L 800.00,23.73 L 800.00,202.63 L 799.46,203.34 Z" fill="#C8D8E8" stroke="#8BAABB" stroke-width="0.8"/>
<path d="M 436.71,495.01 L 416.16,473.93 L 417.77,452.99 L 408.33,450.49 L 419.84,429.81 L 404.94,426.53 L 402.00,416.75 L 424.01,389.48 L 479.03,406.25 L 499.36,379.81 L 513.23,374.05 L 539.49,378.20 L 550.86,365.97 L 564.94,365.14 L 575.82,371.54 L 572.88,353.72 L 580.89,348.71 L 596.05,351.48 L 599.40,376.48 L 607.55,386.50 L 592.02,389.93 L 592.79,406.90 L 578.52,406.38 L 575.98,415.74 L 551.11,426.57 L 547.84,437.76 L 554.92,446.95 L 553.49,470.07 L 525.88,484.12 L 533.67,494.02 L 526.77,498.60 L 527.07,500.00 L 487.15,500.00 L 481.69,490.74 L 476.10,500.00 L 427.02,500.00 L 436.71,495.01 Z" fill="#C8D8E8" stroke="#8BAABB" stroke-width="0.8"/>
<path d="M 205.59,371.34 L 211.49,377.14 L 210.50,387.34 L 193.99,376.75 L 183.54,387.91 L 183.12,398.21 L 190.62,403.37 L 189.12,423.78 L 184.19,425.05 L 176.04,407.14 L 151.00,415.76 L 144.33,392.03 L 133.09,393.59 L 130.58,423.78 L 115.97,446.58 L 119.97,463.26 L 115.99,472.56 L 109.28,471.89 L 107.38,457.54 L 100.62,453.26 L 103.31,440.59 L 79.00,423.28 L 76.45,397.51 L 56.01,418.95 L 57.53,436.16 L 39.22,461.42 L 20.20,453.14 L 0.00,460.39 L 0.00,282.11 L 0.33,282.86 L 26.49,261.68 L 29.53,267.71 L 87.04,262.35 L 90.09,254.40 L 75.93,253.31 L 86.87,237.18 L 108.08,254.41 L 133.75,255.13 L 158.47,278.67 L 147.78,307.44 L 147.11,324.80 L 172.08,330.56 L 173.21,341.03 L 188.69,350.57 L 206.23,332.93 L 211.14,348.51 L 205.59,371.34 Z" fill="#C8D8E8" stroke="#8BAABB" stroke-width="0.8"/>
<path d="M 630.08,170.09 L 650.00,212.90 L 640.54,229.79 L 645.22,248.19 L 627.00,252.12 L 611.94,242.76 L 601.46,253.80 L 616.04,258.47 L 619.90,268.45 L 616.73,278.57 L 603.17,285.23 L 605.74,299.50 L 601.78,310.15 L 608.12,316.05 L 602.56,329.54 L 606.60,332.57 L 592.74,331.89 L 573.52,352.88 L 575.82,371.54 L 564.94,365.14 L 550.86,365.97 L 539.49,378.20 L 513.23,374.05 L 499.36,379.81 L 479.03,406.25 L 339.05,369.23 L 329.98,348.07 L 320.82,343.23 L 324.34,322.27 L 295.12,335.89 L 258.38,336.70 L 246.74,359.84 L 213.27,350.66 L 205.87,332.84 L 188.69,350.57 L 173.21,341.03 L 172.08,330.56 L 153.94,325.64 L 150.00,301.16 L 158.41,283.70 L 151.73,268.87 L 167.11,262.46 L 182.87,274.40 L 186.82,289.72 L 195.11,288.13 L 191.87,300.18 L 209.47,285.33 L 209.53,263.82 L 237.68,269.33 L 245.60,285.98 L 262.48,285.58 L 287.62,262.32 L 323.88,260.48 L 324.08,248.51 L 328.38,245.40 L 328.15,251.71 L 345.05,257.65 L 362.45,253.14 L 363.56,266.46 L 378.18,277.01 L 382.78,254.02 L 370.98,246.40 L 377.48,231.72 L 361.34,199.21 L 404.64,168.79 L 407.85,145.39 L 425.03,151.54 L 431.53,122.45 L 448.52,143.22 L 464.94,147.15 L 473.65,137.10 L 487.90,145.06 L 496.08,121.25 L 505.21,122.88 L 507.99,93.75 L 562.82,109.87 L 580.32,125.25 L 598.21,127.11 L 608.78,117.80 L 631.95,128.09 L 636.67,141.74 L 630.08,170.09 Z" fill="#4A90D9" stroke="#1a5fa8" stroke-width="1.2"/>
<path d="M 148.26,274.38 L 117.94,234.85 L 136.97,251.36 L 162.94,267.42 L 148.26,274.38 Z" fill="#A8C8E8" stroke="none"/>
<path d="M 671.38,366.01 L 656.52,364.30 L 698.80,344.81 L 696.99,339.07 L 708.89,325.22 L 716.88,330.78 L 697.30,348.59 L 671.38,366.01 Z" fill="#A8C8E8" stroke="none"/>
<path d="M 124.19,252.69 L 116.88,251.68 L 112.21,254.62 L 108.04,254.37 L 116.15,248.70 L 112.52,243.70 L 124.19,252.69 Z" fill="#A8C8E8" stroke="none"/>
<path d="M 90.13,462.12 L 89.23,483.36 L 82.59,458.66 L 90.64,456.59 L 105.75,431.16 L 90.13,462.12 Z" fill="#A8C8E8" stroke="none"/>
<path d="M 227.99,492.60 L 227.79,500.00 L 216.81,500.00 L 215.84,497.84 L 237.45,463.66 L 227.99,492.60 Z" fill="#A8C8E8" stroke="none"/>
</svg>