<svg xmlns="http://www.w3.org/2000/svg" width="800" height="500" viewBox="0 0 800 500">
<rect width="800" height="500" fill="#A8C8E8"/>
<path d="M 203.66,1.57 L 203.96,2.23 L 202.92,2.37 L 201.46,1.52 L 203.66,1.57 Z M 279.63,91.69 L 279.78,92.46 L 281.44,91.86 L 282.26,92.37 L 282.14,93.23 L 280.05,93.41 L 281.17,95.29 L 280.28,96.41 L 275.08,99.59 L 271.00,100.01 L 267.50,101.40 L 263.95,101.33 L 264.42,100.29 L 267.12,99.34 L 265.09,99.06 L 266.30,96.15 L 269.78,94.32 L 270.98,94.89 L 271.95,94.56 L 273.03,95.31 L 274.55,93.19 L 279.63,91.69 Z M 197.88,1.48 L 201.29,3.27 L 200.89,3.36 L 200.01,3.10 L 199.51,3.13 L 201.62,3.60 L 202.32,4.16 L 201.44,4.16 L 202.78,4.68 L 200.65,5.17 L 198.91,4.07 L 199.36,5.34 L 194.81,5.08 L 194.17,5.43 L 195.99,5.28 L 196.00,5.70 L 196.47,6.14 L 198.67,6.53 L 197.73,7.84 L 196.76,7.90 L 200.52,8.92 L 199.95,9.63 L 201.26,9.77 L 199.73,10.05 L 201.81,10.19 L 200.55,10.71 L 202.33,11.18 L 202.78,12.21 L 205.56,14.07 L 205.29,14.87 L 203.74,15.74 L 202.78,15.65 L 203.59,16.04 L 201.96,16.17 L 203.30,16.45 L 203.85,17.63 L 209.27,19.92 L 209.61,20.54 L 211.31,20.84 L 215.63,23.42 L 213.32,24.59 L 208.83,24.59 L 205.72,23.88 L 203.52,22.47 L 205.03,24.63 L 203.61,24.37 L 201.89,25.04 L 198.93,29.38 L 199.58,30.35 L 198.55,31.77 L 199.22,32.53 L 198.62,33.73 L 200.66,33.00 L 199.81,34.86 L 199.07,34.93 L 200.63,35.42 L 197.51,36.32 L 196.88,35.68 L 193.38,38.64 L 191.88,38.79 L 191.05,37.16 L 191.26,39.50 L 189.15,40.06 L 188.85,41.27 L 185.41,42.42 L 187.60,42.26 L 188.06,43.23 L 187.96,44.16 L 186.07,45.03 L 189.54,45.40 L 188.61,47.67 L 186.30,47.47 L 186.22,48.04 L 187.26,47.81 L 186.12,50.64 L 185.48,50.74 L 184.49,49.52 L 184.15,50.72 L 185.87,51.67 L 184.20,52.42 L 182.65,54.92 L 168.53,58.87 L 167.91,58.51 L 167.95,55.43 L 166.99,54.30 L 167.30,53.12 L 166.50,54.17 L 164.19,53.46 L 165.29,52.19 L 163.35,53.36 L 162.51,53.12 L 162.61,52.04 L 161.79,53.18 L 157.35,53.87 L 157.12,51.93 L 154.46,52.47 L 153.78,51.85 L 154.30,52.60 L 150.88,50.20 L 149.86,51.46 L 150.73,51.85 L 146.58,53.60 L 141.86,53.00 L 138.64,54.66 L 137.59,54.39 L 137.85,51.16 L 137.00,48.94 L 136.45,50.35 L 135.01,50.84 L 132.77,50.20 L 128.68,51.33 L 126.17,50.91 L 128.36,49.90 L 125.18,51.29 L 123.95,49.82 L 120.85,50.75 L 119.70,48.13 L 121.04,47.42 L 119.73,46.86 L 119.00,43.52 L 116.96,42.67 L 118.37,41.43 L 118.66,39.37 L 117.24,38.53 L 117.29,37.77 L 115.19,36.77 L 115.44,36.11 L 114.50,36.88 L 112.86,36.05 L 111.40,36.39 L 110.13,35.99 L 110.01,34.71 L 112.24,35.19 L 112.65,35.05 L 111.01,34.58 L 111.51,34.23 L 108.68,33.76 L 107.67,31.81 L 109.60,31.75 L 108.86,29.99 L 110.42,30.05 L 106.31,27.79 L 105.60,24.41 L 106.96,23.56 L 106.35,22.13 L 108.71,21.53 L 110.05,20.54 L 107.01,21.77 L 107.96,19.59 L 110.11,18.49 L 110.86,16.83 L 114.16,15.81 L 112.89,17.14 L 114.12,17.89 L 114.29,19.15 L 119.84,22.06 L 120.85,23.29 L 124.00,24.28 L 130.97,22.74 L 134.28,23.54 L 135.58,23.05 L 137.75,23.20 L 138.69,22.47 L 140.67,22.27 L 141.42,20.27 L 144.76,19.35 L 150.21,19.34 L 150.76,19.72 L 150.05,20.40 L 156.18,21.10 L 157.27,21.69 L 160.35,20.21 L 163.21,20.37 L 165.39,19.77 L 167.24,20.27 L 168.70,17.48 L 170.35,17.05 L 169.77,14.69 L 174.40,12.88 L 172.78,12.20 L 172.92,10.66 L 174.79,9.23 L 175.53,9.61 L 177.19,9.30 L 177.77,7.06 L 178.68,6.56 L 178.00,3.19 L 181.28,0.00 L 181.38,0.00 L 183.22,0.78 L 184.36,0.04 L 186.37,0.01 L 187.46,0.66 L 188.53,0.00 L 188.79,0.00 L 189.39,0.37 L 196.03,0.20 L 199.98,1.55 L 197.88,1.48 Z M 453.59,73.65 L 452.21,76.17 L 453.59,77.50 L 453.59,92.68 L 442.88,86.40 L 443.64,85.65 L 443.66,84.73 L 444.40,84.64 L 444.65,84.29 L 443.67,84.56 L 442.72,85.75 L 436.46,86.46 L 434.93,86.09 L 434.83,85.19 L 434.55,84.94 L 435.29,84.90 L 434.53,84.75 L 434.61,85.59 L 431.25,87.09 L 430.47,85.89 L 431.36,85.57 L 431.26,84.42 L 432.11,84.16 L 433.18,82.06 L 428.57,79.57 L 433.88,79.88 L 434.77,79.25 L 432.83,79.67 L 430.47,79.21 L 427.42,77.65 L 431.43,77.13 L 432.96,77.86 L 434.26,78.03 L 428.74,76.25 L 428.73,75.77 L 430.32,76.19 L 426.39,74.11 L 424.18,70.76 L 425.72,70.21 L 423.05,69.79 L 425.27,69.14 L 422.11,69.48 L 422.01,67.25 L 421.33,67.76 L 420.53,66.73 L 419.33,66.93 L 419.26,66.21 L 414.60,65.04 L 413.41,64.57 L 413.53,64.04 L 412.88,64.56 L 411.48,64.20 L 411.61,63.71 L 408.58,63.98 L 399.14,61.08 L 390.85,60.69 L 385.03,58.42 L 385.46,57.24 L 387.93,57.46 L 388.49,57.17 L 385.33,56.97 L 383.70,57.79 L 381.62,56.70 L 381.42,57.74 L 379.53,56.94 L 380.09,56.47 L 379.39,55.85 L 379.20,56.35 L 377.69,56.57 L 376.25,54.79 L 376.16,55.69 L 374.79,55.35 L 374.12,54.06 L 374.66,52.22 L 376.34,51.33 L 377.24,51.52 L 376.49,50.20 L 374.41,51.57 L 373.97,53.59 L 372.74,53.33 L 373.58,54.48 L 371.60,55.70 L 372.08,56.68 L 369.89,58.06 L 366.17,58.21 L 364.26,55.42 L 366.43,54.54 L 365.23,53.74 L 365.13,52.67 L 363.61,52.99 L 362.33,51.47 L 359.87,50.37 L 356.08,50.25 L 356.82,49.38 L 355.88,49.28 L 359.72,48.51 L 364.23,49.45 L 367.54,47.16 L 369.77,46.73 L 371.40,47.48 L 371.30,48.51 L 372.00,47.26 L 372.05,48.28 L 372.30,47.45 L 372.79,47.91 L 374.04,47.57 L 374.57,48.79 L 374.90,47.38 L 376.02,48.32 L 376.05,47.14 L 375.27,46.87 L 377.01,47.14 L 376.56,46.69 L 378.06,46.53 L 376.57,46.21 L 377.46,45.88 L 377.46,45.26 L 377.24,45.75 L 375.75,45.65 L 377.36,44.60 L 374.17,45.49 L 370.38,45.27 L 363.80,45.97 L 362.41,45.14 L 359.65,45.69 L 356.86,44.44 L 357.71,43.85 L 356.64,43.99 L 355.71,43.14 L 356.60,41.64 L 355.11,41.47 L 356.15,40.70 L 354.22,41.17 L 354.08,40.41 L 353.63,40.93 L 351.71,40.29 L 350.23,40.44 L 349.54,39.71 L 348.51,39.57 L 349.16,40.11 L 347.73,40.59 L 344.94,39.83 L 348.06,37.80 L 348.66,36.41 L 348.14,35.75 L 355.00,34.86 L 357.97,33.12 L 360.64,32.55 L 366.90,33.18 L 371.41,35.09 L 377.76,35.09 L 379.87,36.06 L 378.40,36.70 L 381.06,39.40 L 378.95,41.68 L 380.10,46.47 L 383.03,49.79 L 383.78,49.59 L 383.25,47.57 L 383.93,47.04 L 384.92,47.38 L 385.60,50.45 L 387.23,50.05 L 386.87,51.67 L 387.74,52.54 L 392.53,53.41 L 394.31,53.12 L 398.70,50.64 L 399.29,49.19 L 402.56,47.71 L 403.80,45.47 L 405.44,45.17 L 407.79,45.60 L 412.44,44.59 L 413.04,44.28 L 411.61,43.10 L 411.85,42.47 L 419.60,40.23 L 428.55,42.42 L 430.47,43.52 L 440.63,46.30 L 444.72,46.07 L 446.61,46.99 L 447.09,46.58 L 451.07,47.29 L 450.85,48.22 L 453.56,47.99 L 453.59,73.65 Z M 154.93,88.43 L 153.55,88.44 L 153.63,88.06 L 154.93,88.43 Z M 260.61,88.34 L 257.57,89.09 L 258.83,88.16 L 260.61,88.34 Z M 314.98,87.04 L 313.91,86.83 L 315.32,86.45 L 314.98,87.04 Z M 323.90,86.89 L 322.04,86.46 L 322.64,86.30 L 324.16,86.50 L 323.90,86.89 Z M 310.50,86.54 L 308.71,86.50 L 309.57,86.15 L 310.50,86.54 Z M 199.97,87.58 L 199.17,87.56 L 199.11,86.34 L 201.03,86.10 L 199.97,87.58 Z M 304.61,85.83 L 303.82,85.75 L 303.89,85.32 L 304.61,85.83 Z M 346.50,82.97 L 345.19,83.03 L 345.50,82.73 L 346.64,82.53 L 346.50,82.97 Z M 345.35,82.00 L 343.78,81.85 L 343.97,81.56 L 345.35,82.00 Z M 346.38,81.67 L 345.39,81.46 L 345.70,81.07 L 347.40,80.99 L 346.38,81.67 Z M 348.51,80.76 L 347.84,80.67 L 348.38,80.25 L 348.51,80.76 Z M 237.89,80.29 L 234.92,80.13 L 235.17,79.98 L 237.89,80.29 Z M 234.69,79.11 L 233.60,79.25 L 232.36,78.71 L 233.07,78.20 L 234.69,79.11 Z M 429.87,77.04 L 429.10,77.28 L 428.04,76.35 L 429.87,77.04 Z M 352.27,76.22 L 351.47,76.85 L 351.33,76.41 L 352.27,76.22 Z M 386.00,75.68 L 385.26,76.65 L 384.81,76.22 L 385.67,75.39 L 386.00,75.68 Z M 383.88,74.98 L 383.03,74.26 L 381.77,73.81 L 382.84,73.30 L 384.59,74.24 L 383.88,74.98 Z M 387.63,73.50 L 386.96,74.59 L 386.61,74.10 L 387.11,73.32 L 387.63,73.50 Z M 382.59,73.27 L 381.66,73.62 L 380.20,72.68 L 379.76,72.69 L 379.37,71.58 L 380.95,71.77 L 380.54,72.24 L 381.86,73.09 L 382.59,73.27 Z M 111.16,83.11 L 107.32,83.25 L 105.79,82.41 L 103.62,83.16 L 102.18,82.97 L 101.25,83.84 L 94.86,83.33 L 89.95,81.62 L 78.97,80.81 L 78.85,79.80 L 80.52,78.59 L 80.20,77.96 L 78.27,78.22 L 74.43,76.96 L 66.81,77.18 L 66.18,76.65 L 67.77,75.91 L 69.14,76.90 L 70.81,74.66 L 72.31,74.86 L 73.23,72.10 L 75.24,70.53 L 76.39,71.41 L 77.90,70.97 L 79.76,71.58 L 82.09,71.43 L 83.26,72.06 L 85.55,71.84 L 85.98,70.75 L 89.33,71.18 L 90.59,72.34 L 92.85,72.98 L 95.09,72.63 L 97.35,73.59 L 98.35,72.93 L 100.23,73.04 L 102.18,74.69 L 102.89,76.58 L 106.57,77.18 L 107.39,76.76 L 110.98,77.36 L 112.51,76.85 L 117.36,77.69 L 119.92,77.23 L 122.13,78.05 L 124.19,77.09 L 125.27,74.78 L 128.95,74.24 L 130.40,76.10 L 132.80,76.23 L 134.18,75.63 L 136.85,76.71 L 139.41,76.73 L 140.58,77.57 L 145.98,77.32 L 147.07,79.41 L 146.21,79.54 L 148.58,80.02 L 147.92,81.86 L 151.94,83.21 L 154.00,83.61 L 156.23,83.02 L 159.01,83.20 L 161.83,82.42 L 165.55,83.42 L 166.40,83.92 L 165.41,88.65 L 165.73,88.15 L 166.16,89.22 L 168.10,90.17 L 165.31,90.18 L 165.51,89.65 L 164.61,89.29 L 161.12,89.34 L 153.11,87.01 L 146.95,88.15 L 137.41,86.84 L 136.37,87.63 L 133.44,86.93 L 130.59,87.02 L 129.95,86.50 L 129.02,86.83 L 123.16,85.85 L 116.98,83.97 L 111.16,83.11 Z M 270.31,71.53 L 269.44,70.45 L 270.08,70.75 L 270.31,71.53 Z M 364.61,69.14 L 364.84,68.10 L 365.13,68.29 L 364.61,69.14 Z M 360.46,68.14 L 360.36,68.28 L 359.96,68.41 L 359.79,68.00 L 360.46,68.14 Z M 267.66,68.57 L 266.32,67.72 L 266.78,67.74 L 267.66,68.57 Z M 265.59,66.30 L 265.70,66.99 L 264.89,66.89 L 264.68,66.16 L 265.59,66.30 Z M 333.95,61.47 L 333.14,61.41 L 333.31,61.35 L 333.95,61.47 Z M 304.79,56.99 L 303.74,56.81 L 303.96,56.33 L 304.71,56.37 L 304.79,56.99 Z M 251.85,54.56 L 251.18,54.72 L 251.15,54.45 L 251.85,54.56 Z M 363.95,54.30 L 363.06,53.64 L 363.56,53.55 L 363.95,54.30 Z M 253.04,53.76 L 252.70,54.07 L 252.47,53.40 L 253.04,53.76 Z M 309.14,53.18 L 307.38,52.75 L 308.28,52.49 L 309.14,53.18 Z M 310.60,52.41 L 309.14,52.27 L 309.82,51.81 L 310.60,52.41 Z M 312.43,50.86 L 311.13,50.93 L 312.20,50.16 L 312.43,50.86 Z M 268.45,44.21 L 268.45,44.37 L 267.93,44.20 L 268.45,44.21 Z M 273.70,43.81 L 273.68,44.13 L 272.93,43.78 L 273.70,43.81 Z M 266.03,43.51 L 266.03,43.61 L 265.87,43.19 L 266.03,43.51 Z M 266.92,43.42 L 266.55,43.57 L 266.56,43.26 L 266.92,43.42 Z M 104.17,41.76 L 104.76,41.82 L 104.55,41.92 L 103.67,41.90 L 104.17,41.76 Z M 306.27,39.78 L 305.25,39.92 L 305.75,39.42 L 306.27,39.78 Z M 108.73,39.13 L 108.26,39.06 L 108.41,38.92 L 109.01,38.76 L 108.73,39.13 Z M 109.98,38.38 L 109.59,38.55 L 109.55,38.35 L 109.98,38.38 Z M 58.33,32.25 L 57.40,32.27 L 57.38,32.07 L 58.33,32.25 Z M 40.91,27.96 L 41.38,27.99 L 40.81,28.17 L 40.91,27.96 Z M 43.00,26.18 L 42.56,25.61 L 42.76,25.60 L 43.00,26.18 Z M 47.77,25.54 L 47.28,25.84 L 47.30,25.63 L 47.77,25.54 Z M 43.42,24.92 L 43.16,25.16 L 43.00,24.90 L 43.42,24.92 Z M 59.72,24.79 L 58.54,24.97 L 58.67,24.71 L 59.72,24.79 Z M 49.94,24.64 L 50.02,24.86 L 49.76,24.86 L 49.40,24.36 L 49.94,24.64 Z M 47.24,24.15 L 46.57,23.86 L 47.08,23.80 L 47.24,24.15 Z M 233.58,22.84 L 233.74,22.95 L 232.92,22.76 L 233.58,22.84 Z M 230.74,22.84 L 230.43,23.09 L 230.32,22.92 L 230.74,22.84 Z M 223.71,33.35 L 224.17,30.97 L 222.82,30.81 L 222.37,30.05 L 224.52,30.70 L 225.12,29.63 L 224.01,28.48 L 224.92,28.15 L 225.38,26.87 L 226.68,26.58 L 226.83,25.08 L 228.80,24.53 L 229.35,23.29 L 230.04,23.37 L 230.09,24.25 L 232.49,24.75 L 233.51,23.47 L 235.02,22.89 L 235.37,21.02 L 238.04,20.97 L 240.04,21.68 L 242.06,21.21 L 242.05,22.10 L 243.09,22.76 L 252.92,23.11 L 257.20,24.50 L 258.49,23.51 L 260.74,23.79 L 260.86,23.44 L 268.90,24.41 L 272.82,23.14 L 273.89,21.98 L 276.10,21.91 L 275.61,20.78 L 278.72,20.03 L 278.62,19.32 L 280.33,18.23 L 282.40,18.60 L 283.20,19.92 L 281.75,20.61 L 279.41,23.44 L 276.86,24.59 L 275.24,26.67 L 273.16,27.38 L 265.62,28.29 L 261.42,27.89 L 259.64,26.58 L 245.84,27.19 L 243.69,26.33 L 238.34,27.33 L 231.78,26.49 L 228.05,28.56 L 226.29,31.56 L 227.13,34.34 L 229.10,36.30 L 231.76,36.82 L 233.66,39.71 L 235.33,39.33 L 238.31,39.78 L 239.41,38.31 L 243.89,35.62 L 244.91,36.55 L 249.14,36.49 L 250.25,35.38 L 258.07,35.34 L 255.96,34.58 L 259.66,33.95 L 263.21,34.54 L 263.76,35.33 L 262.21,37.35 L 259.88,35.86 L 257.09,36.30 L 252.00,40.38 L 250.00,41.21 L 246.50,41.59 L 244.67,43.23 L 243.16,43.38 L 241.95,42.58 L 240.38,42.60 L 240.86,43.80 L 241.52,43.24 L 243.39,44.98 L 246.08,45.84 L 248.17,48.63 L 251.11,49.97 L 251.03,51.01 L 253.13,51.77 L 252.65,52.42 L 251.48,52.50 L 252.10,53.75 L 250.73,53.32 L 251.15,53.97 L 250.23,54.81 L 253.95,56.77 L 255.11,56.84 L 253.97,57.40 L 255.11,57.65 L 255.46,58.55 L 257.12,58.49 L 256.40,57.93 L 257.16,58.00 L 257.75,60.27 L 257.12,60.61 L 255.26,59.76 L 256.22,60.93 L 254.49,60.33 L 249.17,61.18 L 248.43,62.16 L 249.40,63.10 L 248.84,63.39 L 244.80,63.34 L 243.17,62.71 L 242.37,61.59 L 243.97,58.20 L 239.94,56.94 L 239.93,56.34 L 235.81,54.16 L 237.89,52.06 L 238.05,49.86 L 237.00,49.52 L 238.04,49.08 L 237.23,48.40 L 234.99,48.09 L 232.67,48.55 L 228.54,50.44 L 229.20,51.71 L 230.95,52.49 L 231.17,55.74 L 230.15,58.29 L 231.21,62.05 L 229.69,63.59 L 229.20,65.50 L 231.36,68.73 L 229.84,67.97 L 227.42,68.57 L 225.41,68.38 L 223.34,69.31 L 221.11,68.31 L 220.20,68.51 L 219.32,66.92 L 222.29,59.76 L 222.51,57.45 L 221.93,57.79 L 220.42,55.54 L 220.89,54.14 L 218.73,53.67 L 214.71,54.62 L 212.95,51.36 L 213.86,51.20 L 214.26,49.84 L 213.03,49.79 L 212.87,49.19 L 213.40,48.19 L 214.57,48.32 L 216.97,46.98 L 217.84,43.93 L 219.26,43.58 L 218.90,38.68 L 220.41,37.66 L 221.19,36.04 L 223.45,34.48 L 224.67,36.13 L 223.71,33.35 Z M 311.01,14.78 L 310.63,14.95 L 310.28,14.68 L 311.01,14.78 Z M 314.85,14.34 L 314.68,14.42 L 314.40,13.92 L 315.10,13.86 L 314.85,14.34 Z M 18.33,14.95 L 19.26,14.34 L 21.04,14.38 L 23.93,16.22 L 25.12,18.38 L 28.61,18.71 L 32.61,20.60 L 33.59,23.09 L 35.93,24.60 L 41.66,25.48 L 42.97,27.09 L 37.63,28.88 L 36.78,28.50 L 35.99,28.43 L 37.24,28.96 L 41.11,28.28 L 46.09,26.44 L 50.22,28.22 L 50.85,30.17 L 48.41,30.22 L 48.40,30.84 L 45.09,31.89 L 47.46,31.58 L 45.91,32.64 L 48.65,33.12 L 46.69,33.68 L 46.20,33.21 L 46.67,34.08 L 45.91,34.90 L 51.14,37.50 L 52.52,36.84 L 55.30,37.50 L 57.08,37.21 L 58.82,42.22 L 58.38,43.42 L 59.11,42.89 L 59.90,43.32 L 59.38,44.00 L 61.82,43.92 L 62.56,44.73 L 61.20,46.13 L 59.56,46.63 L 60.69,46.41 L 60.72,47.70 L 59.17,48.37 L 58.75,49.17 L 60.92,47.92 L 62.57,45.82 L 63.06,46.44 L 63.62,46.11 L 70.59,46.62 L 70.53,47.95 L 72.26,48.60 L 72.60,50.04 L 74.97,50.62 L 75.46,52.49 L 73.58,53.53 L 72.71,55.35 L 74.15,56.46 L 72.64,59.24 L 73.65,60.83 L 73.69,64.08 L 72.82,68.97 L 71.74,70.63 L 66.86,67.53 L 65.78,68.46 L 65.60,69.87 L 60.38,67.96 L 58.97,67.97 L 60.75,70.80 L 59.08,70.85 L 51.93,65.97 L 51.82,65.19 L 49.81,64.16 L 46.65,63.58 L 34.72,57.54 L 33.74,55.15 L 27.12,52.28 L 24.04,48.94 L 21.63,47.90 L 19.66,46.15 L 18.70,44.96 L 18.95,43.12 L 16.75,41.24 L 15.83,39.27 L 14.06,38.81 L 14.17,37.32 L 12.93,35.73 L 7.76,32.28 L 6.92,30.33 L 2.52,28.48 L 0.32,28.32 L 0.00,26.47 L 0.00,5.75 L 6.96,8.27 L 9.44,9.87 L 9.16,11.60 L 9.75,12.24 L 9.38,11.55 L 10.26,11.39 L 11.03,12.74 L 10.97,11.83 L 11.94,11.53 L 14.37,14.51 L 18.47,16.11 L 19.93,17.58 L 18.33,14.95 Z M 235.43,99.18 L 234.19,100.17 L 231.21,100.95 L 228.02,100.34 L 225.98,98.71 L 222.37,97.24 L 216.55,96.88 L 214.80,95.75 L 217.33,94.60 L 224.16,94.59 L 225.89,93.95 L 227.36,95.12 L 228.82,95.33 L 229.27,96.37 L 231.52,96.36 L 235.43,99.18 Z M 178.93,90.36 L 178.55,90.63 L 177.24,90.11 L 178.13,89.66 L 178.93,90.36 Z M 224.08,89.37 L 223.07,90.59 L 222.17,90.42 L 222.37,89.18 L 223.04,89.67 L 224.08,89.37 Z M 221.67,89.14 L 220.45,89.18 L 220.59,90.17 L 219.63,90.17 L 220.00,88.13 L 221.67,89.14 Z M 261.97,87.86 L 259.05,87.77 L 260.53,86.76 L 262.61,86.93 L 261.97,87.86 Z M 191.05,87.77 L 188.42,90.60 L 189.13,91.24 L 187.84,91.40 L 187.58,90.83 L 187.37,91.64 L 181.26,90.69 L 181.36,90.06 L 183.95,90.15 L 183.30,88.14 L 186.10,86.71 L 189.86,86.97 L 191.05,87.77 Z M 216.99,86.39 L 216.06,86.88 L 215.72,86.39 L 216.44,85.99 L 216.99,86.39 Z M 217.14,90.18 L 214.40,89.81 L 212.27,90.22 L 214.71,90.55 L 214.51,90.93 L 212.40,90.58 L 209.16,90.95 L 209.16,89.09 L 206.38,91.04 L 201.69,91.35 L 198.05,92.32 L 195.92,92.12 L 193.94,92.69 L 190.89,91.70 L 191.93,90.57 L 191.11,89.66 L 192.08,88.57 L 195.95,87.54 L 198.54,88.39 L 198.63,87.90 L 199.88,87.87 L 200.25,88.62 L 200.59,88.09 L 202.56,90.03 L 204.33,90.22 L 205.41,89.59 L 207.72,89.49 L 201.55,86.74 L 201.86,86.10 L 203.78,85.67 L 206.29,86.01 L 208.05,87.63 L 209.69,86.80 L 211.68,87.07 L 211.90,88.84 L 212.84,87.33 L 215.20,87.16 L 216.07,89.52 L 217.31,88.93 L 217.14,90.18 Z M 257.80,87.58 L 257.72,88.25 L 256.71,88.09 L 256.75,89.28 L 252.87,90.13 L 249.24,90.11 L 245.62,91.18 L 241.46,90.54 L 240.86,91.39 L 237.11,91.54 L 235.36,90.70 L 234.44,91.07 L 232.60,90.51 L 229.36,90.78 L 228.13,90.36 L 225.33,91.07 L 224.23,90.17 L 224.90,87.92 L 226.23,88.15 L 230.91,86.64 L 236.91,87.40 L 242.60,89.22 L 243.95,88.29 L 246.84,88.47 L 248.21,88.01 L 248.43,88.62 L 251.13,89.44 L 253.17,89.17 L 253.26,88.41 L 254.48,87.80 L 257.55,87.05 L 258.19,86.41 L 256.02,86.61 L 257.35,85.56 L 259.12,87.07 L 257.80,87.58 Z M 179.76,87.96 L 175.66,89.37 L 174.37,90.21 L 174.65,90.79 L 173.62,90.93 L 173.86,89.63 L 171.38,88.29 L 167.88,87.74 L 166.19,85.92 L 170.62,86.41 L 174.26,85.46 L 178.87,87.07 L 179.76,87.96 Z M 107.63,83.56 L 104.97,83.03 L 105.23,82.88 L 107.63,83.56 Z M 176.31,77.60 L 176.51,78.03 L 175.34,78.26 L 174.49,77.72 L 175.15,77.08 L 178.35,77.56 L 176.31,77.60 Z M 147.59,70.16 L 146.21,70.29 L 145.98,69.93 L 147.26,69.46 L 147.59,70.16 Z M 34.40,67.90 L 32.40,66.77 L 33.19,66.40 L 35.73,67.25 L 34.40,67.90 Z M 180.91,63.25 L 180.55,63.20 L 181.40,62.68 L 180.91,63.25 Z M 187.71,53.55 L 187.18,55.13 L 186.52,54.39 L 187.71,53.55 Z M 186.32,56.95 L 183.99,58.06 L 183.18,55.06 L 184.29,52.96 L 185.90,52.24 L 186.32,56.95 Z M 15.47,51.95 L 15.39,51.99 L 15.01,51.83 L 15.47,51.95 Z M 14.65,53.03 L 11.72,50.50 L 12.13,49.17 L 14.73,50.84 L 13.98,51.99 L 14.65,53.03 Z M 11.16,49.50 L 9.83,49.59 L 9.39,47.26 L 11.90,48.63 L 11.16,49.50 Z M 8.00,46.47 L 5.37,45.69 L 4.55,44.86 L 4.95,44.08 L 6.35,44.33 L 8.00,46.47 Z M 105.63,41.56 L 104.93,40.98 L 106.09,40.65 L 106.78,40.93 L 105.63,41.56 Z M 112.61,39.00 L 111.69,38.74 L 112.32,36.84 L 115.00,36.91 L 115.40,37.71 L 112.61,39.00 Z M 1.80,42.06 L 1.58,41.49 L 1.00,41.31 L 1.59,42.30 L 0.11,42.51 L 0.00,42.47 L 0.00,39.17 L 1.80,41.36 L 1.80,42.06 Z M 45.21,26.43 L 43.69,26.42 L 44.10,25.35 L 45.34,25.83 L 45.21,26.43 Z M 47.83,24.78 L 46.73,24.13 L 47.46,24.32 L 47.83,24.78 Z M 51.89,24.26 L 52.36,24.80 L 52.04,24.76 L 51.03,24.04 L 51.89,24.26 Z M 46.87,25.68 L 46.04,24.13 L 46.51,24.08 L 47.46,24.79 L 46.87,25.68 Z M 51.17,24.52 L 51.18,24.87 L 50.03,24.13 L 51.17,24.52 Z M 52.15,23.70 L 51.25,23.23 L 51.70,23.04 L 52.15,23.70 Z M 62.14,23.13 L 62.02,23.56 L 61.57,23.09 L 62.14,23.13 Z M 92.02,23.19 L 91.56,23.46 L 91.23,23.13 L 92.02,23.19 Z M 45.86,23.12 L 45.78,22.49 L 46.39,22.36 L 46.96,23.17 L 45.86,23.12 Z M 42.24,25.36 L 41.02,24.70 L 36.92,24.69 L 35.73,24.13 L 36.75,23.58 L 36.40,22.52 L 37.36,22.39 L 37.89,23.18 L 38.52,23.28 L 39.61,23.18 L 42.69,24.65 L 42.24,25.36 Z M 43.54,24.39 L 39.90,23.04 L 38.10,23.10 L 40.02,22.13 L 43.53,23.75 L 43.54,24.39 Z M 54.00,23.32 L 51.99,22.76 L 53.33,21.96 L 54.58,22.15 L 54.00,23.32 Z M 60.13,23.75 L 59.14,24.43 L 57.56,23.55 L 58.25,23.02 L 55.93,23.23 L 55.51,22.61 L 59.23,21.71 L 60.13,23.75 Z M 36.16,22.73 L 36.40,23.44 L 35.33,23.70 L 33.85,22.57 L 33.61,20.52 L 36.46,21.59 L 36.16,22.73 Z M 36.52,21.39 L 34.91,20.42 L 32.37,19.99 L 31.41,19.03 L 36.34,19.71 L 36.52,21.39 Z M 28.90,16.74 L 28.24,17.91 L 25.81,18.19 L 24.80,17.01 L 25.03,16.08 L 27.53,15.50 L 28.90,16.74 Z M 211.76,15.08 L 211.76,15.13 L 210.93,14.76 L 210.70,14.24 L 211.76,15.08 Z M 107.45,13.05 L 106.82,12.65 L 107.13,12.53 L 108.34,12.73 L 107.45,13.05 Z M 77.24,11.35 L 76.87,10.76 L 77.12,10.77 L 77.24,11.35 Z M 106.07,9.63 L 105.46,10.57 L 104.73,10.24 L 106.07,9.63 Z M 94.29,9.61 L 93.57,9.63 L 93.87,9.34 L 94.29,9.61 Z M 72.63,10.17 L 71.55,10.59 L 71.29,9.10 L 72.63,10.17 Z M 77.75,8.92 L 77.69,8.92 L 76.92,7.97 L 77.75,8.92 Z M 199.55,7.52 L 198.35,7.53 L 198.53,7.20 L 199.55,7.52 Z M 77.89,7.05 L 77.69,7.93 L 77.16,7.74 L 77.89,7.05 Z M 201.24,6.77 L 200.86,7.82 L 199.59,6.75 L 201.24,6.77 Z M 202.78,6.12 L 202.34,5.52 L 203.02,5.56 L 203.52,6.10 L 202.78,6.12 Z M 196.77,6.08 L 196.20,5.67 L 198.10,5.62 L 199.44,6.24 L 196.77,6.08 Z M 202.33,3.88 L 201.74,3.55 L 202.58,3.63 L 203.00,4.02 L 202.33,3.88 Z M 201.99,2.29 L 201.04,2.76 L 200.27,2.21 L 201.00,1.62 L 201.99,2.29 Z M 99.77,4.82 L 98.32,5.06 L 97.36,4.73 L 98.36,4.07 L 99.37,4.49 L 99.17,4.07 L 97.01,3.63 L 96.17,2.56 L 98.77,0.96 L 100.62,3.50 L 99.77,4.82 Z M 263.27,103.49 L 261.10,104.41 L 256.90,104.96 L 256.80,104.17 L 259.37,103.71 L 263.02,101.80 L 263.27,103.49 Z M 247.98,102.32 L 246.72,102.93 L 244.65,102.70 L 247.35,101.78 L 247.98,102.32 Z M 263.31,101.11 L 262.32,101.15 L 263.05,100.03 L 263.88,99.85 L 263.31,101.11 Z M 265.03,88.32 L 265.15,88.97 L 261.30,88.70 L 264.10,87.49 L 262.84,87.26 L 263.32,86.92 L 264.99,86.78 L 264.45,87.51 L 265.22,87.65 L 265.79,86.62 L 268.89,86.64 L 265.03,88.32 Z M 271.29,88.79 L 270.31,88.87 L 269.87,88.04 L 268.66,88.21 L 269.92,87.24 L 270.85,87.73 L 272.47,86.33 L 273.01,86.60 L 271.29,88.79 Z M 431.03,87.87 L 427.28,87.47 L 429.85,86.17 L 431.03,87.87 Z M 281.84,87.50 L 274.31,88.29 L 273.28,87.92 L 275.60,86.67 L 273.92,86.90 L 274.82,85.99 L 276.20,86.50 L 279.99,86.11 L 281.96,86.57 L 281.84,87.50 Z M 313.28,86.88 L 310.42,85.89 L 311.19,85.76 L 313.99,85.98 L 313.28,86.88 Z M 347.47,85.94 L 342.94,87.49 L 344.71,85.99 L 347.47,85.94 Z M 332.25,85.46 L 330.18,84.41 L 330.69,83.68 L 332.95,84.24 L 332.25,85.46 Z M 297.40,83.85 L 296.39,84.85 L 291.92,84.29 L 288.89,85.13 L 291.00,82.75 L 294.89,82.99 L 298.13,82.06 L 300.40,83.20 L 297.40,83.85 Z M 307.39,82.27 L 306.05,82.72 L 306.21,81.69 L 307.39,82.27 Z M 432.99,82.17 L 430.99,84.38 L 431.14,85.60 L 428.50,86.24 L 425.41,87.90 L 417.42,88.01 L 418.73,85.59 L 422.30,82.06 L 425.62,80.99 L 429.11,80.68 L 432.99,82.17 Z M 352.47,79.96 L 353.19,81.08 L 352.36,82.47 L 348.94,85.21 L 348.58,84.64 L 346.76,85.09 L 346.75,83.07 L 348.21,83.07 L 347.47,82.68 L 348.12,81.56 L 350.41,80.51 L 351.67,79.11 L 353.13,79.12 L 352.47,79.96 Z M 355.97,79.96 L 353.44,79.18 L 355.46,78.92 L 355.97,79.96 Z M 319.92,79.72 L 318.73,79.11 L 319.72,78.65 L 319.92,79.72 Z M 162.69,78.09 L 160.36,78.54 L 159.96,79.10 L 157.11,79.10 L 156.06,79.92 L 152.29,79.72 L 151.83,79.17 L 151.89,79.80 L 147.54,79.30 L 147.17,78.61 L 149.58,77.47 L 161.83,77.63 L 162.69,78.09 Z M 66.04,75.97 L 65.73,75.35 L 65.13,75.68 L 65.87,75.11 L 66.69,74.97 L 66.04,75.97 Z M 381.37,77.25 L 380.01,77.65 L 378.80,77.02 L 379.20,74.50 L 380.28,74.83 L 379.31,74.23 L 379.12,72.58 L 382.96,74.40 L 383.25,75.30 L 381.37,77.25 Z M 232.39,71.80 L 231.55,74.62 L 231.43,69.74 L 232.39,71.80 Z M 62.08,70.11 L 61.34,69.64 L 61.52,69.57 L 62.08,70.11 Z M 364.74,70.82 L 363.83,70.85 L 363.05,68.62 L 363.90,68.58 L 365.03,69.88 L 364.74,70.82 Z M 384.59,73.88 L 381.00,72.16 L 381.99,71.58 L 381.13,70.82 L 382.10,69.93 L 380.19,69.37 L 381.82,69.38 L 383.47,68.24 L 383.51,67.42 L 384.81,67.53 L 385.55,68.14 L 384.89,68.52 L 386.22,69.09 L 385.98,71.13 L 385.09,70.88 L 384.52,71.01 L 386.37,71.96 L 385.49,72.64 L 386.22,72.43 L 384.59,73.88 Z M 368.40,68.57 L 365.46,71.32 L 368.37,66.61 L 369.17,66.61 L 368.40,68.57 Z M 248.51,67.58 L 247.66,67.69 L 245.91,66.26 L 246.42,65.17 L 247.76,64.96 L 248.73,65.95 L 248.51,67.58 Z M 353.68,62.66 L 353.48,62.87 L 353.36,62.63 L 353.68,62.66 Z M 254.55,65.57 L 255.14,66.51 L 254.49,67.36 L 253.89,67.42 L 253.54,66.44 L 253.08,67.20 L 252.41,66.90 L 252.89,66.64 L 251.03,67.01 L 252.36,64.90 L 251.55,63.39 L 252.15,62.73 L 255.71,61.83 L 256.45,63.90 L 254.55,65.57 Z M 352.37,60.56 L 352.88,61.20 L 352.67,61.27 L 352.37,60.56 Z M 261.15,66.55 L 257.50,67.62 L 257.95,68.10 L 256.97,69.12 L 254.92,69.02 L 254.15,67.96 L 256.83,65.93 L 256.21,65.89 L 256.72,64.77 L 256.16,64.71 L 257.03,63.99 L 257.27,61.79 L 259.28,60.24 L 261.01,61.65 L 261.22,63.21 L 260.46,62.54 L 259.40,62.69 L 258.29,65.78 L 259.34,65.42 L 261.15,66.55 Z M 373.97,59.67 L 371.38,59.01 L 370.68,58.35 L 373.97,59.67 Z M 349.75,58.66 L 348.55,58.08 L 348.70,58.04 L 349.75,58.66 Z M 348.21,57.67 L 348.10,57.93 L 347.77,57.46 L 348.21,57.67 Z M 261.58,58.22 L 260.96,58.89 L 259.32,59.04 L 258.30,57.93 L 259.14,57.42 L 261.05,57.55 L 261.58,58.22 Z M 349.85,57.93 L 349.51,57.34 L 350.01,57.32 L 349.85,57.93 Z M 321.79,55.38 L 321.26,55.54 L 321.09,55.27 L 321.79,55.38 Z M 260.13,55.06 L 259.50,54.66 L 260.36,54.44 L 260.13,55.06 Z M 319.11,54.80 L 317.26,55.15 L 317.63,54.32 L 319.11,54.80 Z M 316.63,55.04 L 315.73,54.96 L 315.57,55.70 L 314.06,56.05 L 315.20,55.13 L 312.28,55.98 L 312.83,55.00 L 316.59,54.25 L 316.63,55.04 Z M 320.89,54.96 L 320.25,54.64 L 319.90,55.01 L 319.08,54.13 L 320.81,54.34 L 320.89,54.96 Z M 304.40,55.26 L 298.88,56.67 L 293.54,55.07 L 291.25,52.44 L 292.32,51.50 L 293.53,51.98 L 295.90,51.22 L 300.44,51.24 L 303.18,52.11 L 302.76,52.95 L 304.98,53.28 L 304.40,55.26 Z M 83.99,50.93 L 82.49,50.50 L 83.47,49.99 L 84.51,50.25 L 83.99,50.93 Z M 86.41,50.11 L 85.68,49.91 L 86.20,49.51 L 86.41,50.11 Z M 90.75,49.50 L 90.97,49.74 L 89.94,50.37 L 89.20,49.96 L 90.75,49.50 Z M 343.53,56.70 L 334.69,53.98 L 333.48,53.02 L 329.36,52.81 L 329.94,53.75 L 329.10,53.92 L 323.41,53.18 L 323.64,52.46 L 322.51,52.13 L 320.34,53.70 L 318.25,53.91 L 314.94,52.07 L 314.80,51.19 L 312.20,54.54 L 312.25,52.95 L 311.30,51.92 L 314.13,51.19 L 313.76,50.53 L 314.91,49.75 L 324.41,49.39 L 325.76,50.44 L 328.17,49.30 L 329.70,49.22 L 334.29,50.55 L 338.89,50.69 L 341.04,51.62 L 341.89,53.51 L 343.52,53.72 L 344.13,54.68 L 343.53,56.70 Z M 352.44,48.08 L 352.60,48.08 L 351.71,48.34 L 352.44,48.08 Z M 98.61,51.67 L 97.13,52.29 L 96.13,52.38 L 94.93,51.09 L 94.33,51.88 L 92.03,52.31 L 92.12,50.17 L 91.43,50.16 L 92.76,47.72 L 94.54,47.47 L 96.68,48.28 L 97.39,48.04 L 99.51,49.69 L 98.61,51.67 Z M 383.66,46.66 L 384.15,45.88 L 384.30,45.98 L 384.30,46.72 L 383.66,46.66 Z M 382.62,44.14 L 381.90,44.92 L 381.62,44.44 L 382.18,43.89 L 382.62,44.14 Z M 292.16,47.04 L 291.48,47.02 L 290.30,45.45 L 289.86,44.23 L 290.61,43.62 L 292.16,47.04 Z M 267.44,43.81 L 267.37,43.00 L 267.99,43.37 L 267.44,43.81 Z M 290.55,43.39 L 285.18,43.52 L 284.14,42.84 L 284.86,42.32 L 294.90,42.62 L 290.55,43.39 Z M 260.49,42.65 L 259.62,43.19 L 259.86,42.18 L 260.49,42.65 Z M 380.66,42.46 L 379.90,43.48 L 379.84,42.69 L 380.56,42.07 L 380.66,42.46 Z M 338.40,43.37 L 339.40,43.70 L 338.72,43.95 L 338.33,43.52 L 336.04,44.32 L 331.58,43.05 L 338.39,41.64 L 339.44,42.74 L 338.40,43.37 Z M 283.95,43.06 L 280.65,43.48 L 278.64,43.14 L 275.55,43.91 L 274.07,43.89 L 273.24,42.98 L 273.84,41.58 L 275.28,41.30 L 281.02,42.25 L 281.81,41.68 L 282.64,42.41 L 283.41,42.00 L 283.95,43.06 Z M 409.42,42.49 L 402.56,43.24 L 393.41,41.19 L 409.42,42.49 Z M 83.69,47.85 L 82.49,48.19 L 81.21,50.12 L 82.81,51.24 L 80.43,51.46 L 79.39,50.53 L 74.52,49.51 L 73.66,48.50 L 74.06,47.29 L 72.81,46.58 L 72.29,44.90 L 69.96,44.32 L 67.15,44.79 L 65.43,44.41 L 65.30,43.63 L 68.19,42.38 L 67.62,41.45 L 69.96,40.65 L 71.45,41.50 L 71.01,42.08 L 72.64,42.44 L 71.37,40.65 L 73.73,40.39 L 75.11,41.00 L 76.61,43.10 L 76.84,45.09 L 78.12,46.83 L 83.69,47.85 Z M 392.46,40.32 L 389.89,40.49 L 390.02,40.25 L 392.46,40.32 Z M 314.64,41.59 L 313.56,41.90 L 307.94,42.02 L 306.27,41.34 L 306.81,39.85 L 307.46,40.09 L 309.04,39.25 L 314.58,41.07 L 314.64,41.59 Z M 309.39,38.86 L 307.16,38.61 L 308.10,38.17 L 309.65,38.46 L 309.39,38.86 Z M 264.56,39.97 L 263.26,40.54 L 261.96,39.89 L 261.47,41.34 L 260.04,40.96 L 260.84,40.33 L 260.49,39.06 L 257.71,41.04 L 256.80,40.04 L 257.90,38.21 L 260.89,37.99 L 261.35,39.71 L 262.65,38.57 L 264.29,38.81 L 264.56,39.97 Z M 333.15,38.60 L 331.90,38.37 L 333.14,37.97 L 334.18,38.11 L 333.15,38.60 Z M 388.04,37.92 L 386.67,37.18 L 387.52,36.56 L 388.35,36.93 L 388.06,37.49 L 388.82,37.12 L 388.04,37.92 Z M 345.09,39.42 L 342.88,38.63 L 341.71,36.81 L 344.33,36.24 L 345.88,36.41 L 345.09,39.42 Z M 343.55,36.10 L 339.01,36.51 L 339.86,35.62 L 344.61,35.47 L 343.55,36.10 Z M 401.41,38.51 L 398.43,38.25 L 397.13,35.89 L 396.00,36.22 L 393.81,35.57 L 392.85,34.49 L 397.26,35.27 L 398.26,34.96 L 401.80,37.45 L 403.74,37.64 L 401.41,38.51 Z M 305.19,35.66 L 303.86,35.43 L 304.35,34.40 L 305.19,35.66 Z M 341.62,33.75 L 340.86,33.78 L 341.14,33.32 L 339.67,33.73 L 340.14,33.16 L 342.01,33.12 L 341.62,33.75 Z M 246.86,33.61 L 245.14,33.42 L 244.13,33.87 L 245.32,32.88 L 246.42,32.88 L 246.86,33.61 Z M 59.49,33.31 L 58.54,34.34 L 57.55,34.07 L 56.86,34.67 L 56.07,32.88 L 58.08,32.41 L 59.49,33.31 Z M 248.29,32.92 L 246.49,32.72 L 247.21,32.27 L 248.32,32.41 L 248.29,32.92 Z M 310.35,36.22 L 308.95,35.29 L 307.13,35.73 L 307.26,34.53 L 305.37,33.52 L 305.60,32.46 L 307.01,32.98 L 307.77,32.20 L 308.44,32.36 L 309.62,33.43 L 308.71,34.36 L 309.24,34.98 L 311.80,35.38 L 310.35,36.22 Z M 303.35,33.57 L 303.37,32.10 L 304.06,31.88 L 305.39,32.06 L 304.71,33.49 L 303.35,33.57 Z M 50.36,32.50 L 47.17,32.64 L 48.21,31.66 L 50.36,32.50 Z M 250.56,32.00 L 249.57,31.72 L 249.92,31.47 L 250.56,32.00 Z M 252.08,32.50 L 250.45,31.49 L 251.55,31.71 L 252.08,32.50 Z M 243.64,30.98 L 244.21,31.14 L 243.93,31.49 L 243.64,30.98 Z M 349.25,32.10 L 348.25,32.76 L 345.28,32.60 L 341.45,30.71 L 342.81,32.10 L 344.94,32.64 L 342.86,33.19 L 342.13,32.12 L 340.60,33.12 L 340.34,31.89 L 337.02,31.50 L 339.27,31.49 L 339.07,31.00 L 337.89,31.26 L 338.33,30.67 L 338.56,31.00 L 343.61,30.15 L 347.17,30.71 L 348.73,31.22 L 349.25,32.10 Z M 63.96,32.06 L 63.13,32.41 L 60.97,31.60 L 58.86,31.99 L 57.72,31.44 L 59.11,29.92 L 61.30,31.42 L 62.19,31.08 L 63.96,32.06 Z M 329.69,31.61 L 327.02,29.80 L 327.19,29.79 L 329.65,31.05 L 329.69,31.61 Z M 306.49,30.10 L 306.60,29.11 L 307.07,29.16 L 307.15,30.15 L 306.49,30.10 Z M 58.16,29.96 L 57.45,29.49 L 57.48,28.92 L 58.16,29.96 Z M 60.61,29.90 L 58.31,28.46 L 58.94,28.58 L 60.61,29.90 Z M 57.39,28.12 L 56.67,27.61 L 56.88,27.59 L 57.39,28.12 Z M 306.69,27.97 L 306.05,28.18 L 305.82,27.73 L 306.49,27.52 L 306.69,27.97 Z M 55.93,25.49 L 56.00,25.82 L 55.88,25.78 L 55.34,25.26 L 55.93,25.49 Z M 306.34,24.92 L 306.70,24.92 L 307.01,25.54 L 306.27,25.84 L 306.34,24.92 Z M 55.22,25.14 L 55.12,24.77 L 55.95,24.65 L 56.07,25.26 L 55.22,25.14 Z M 305.56,24.92 L 305.30,24.37 L 306.11,24.35 L 305.56,24.92 Z M 54.91,24.64 L 54.07,23.61 L 54.86,24.05 L 55.45,24.08 L 54.91,24.64 Z M 283.40,20.41 L 282.51,20.57 L 282.40,20.40 L 283.21,20.17 L 283.70,19.46 L 283.40,20.41 Z M 309.92,27.98 L 307.88,26.27 L 308.94,24.41 L 307.53,23.91 L 307.50,22.88 L 306.55,22.96 L 306.49,21.82 L 308.99,17.52 L 312.30,15.10 L 313.52,14.98 L 311.34,17.40 L 313.17,18.31 L 313.17,21.16 L 308.97,23.68 L 311.40,24.55 L 312.94,22.68 L 314.95,22.19 L 314.00,21.49 L 315.22,20.58 L 317.74,19.55 L 320.80,19.33 L 320.60,22.77 L 316.26,23.98 L 315.32,24.81 L 316.95,25.70 L 320.38,26.31 L 320.48,27.74 L 321.93,27.99 L 322.75,28.70 L 318.00,27.41 L 312.03,27.12 L 311.77,29.96 L 312.80,31.94 L 315.47,35.00 L 317.78,36.37 L 313.35,34.93 L 311.76,32.91 L 309.39,31.56 L 309.92,27.98 Z M 285.41,14.10 L 284.75,14.15 L 284.51,13.81 L 285.41,14.10 Z M 319.14,15.63 L 315.92,16.42 L 315.14,14.56 L 316.48,13.23 L 319.14,12.03 L 320.44,13.06 L 319.14,15.63 Z M 285.07,12.03 L 284.76,12.06 L 284.40,11.21 L 285.31,10.94 L 285.07,12.03 Z M 287.19,6.80 L 286.00,6.33 L 285.29,4.45 L 287.57,6.29 L 287.19,6.80 Z M 300.13,3.85 L 300.61,4.31 L 300.13,4.49 L 299.40,3.65 L 300.13,3.85 Z M 299.06,3.19 L 298.88,3.93 L 298.00,2.34 L 299.06,3.19 Z M 301.33,0.71 L 299.99,2.52 L 298.67,2.61 L 300.04,1.11 L 299.04,0.83 L 299.19,0.00 L 301.08,0.00 L 301.33,0.71 Z M 252.45,88.13 L 252.44,88.43 L 251.82,88.38 L 252.45,88.13 Z M 245.24,87.22 L 244.85,87.52 L 244.49,87.21 L 245.24,87.22 Z M 246.21,80.88 L 245.39,81.07 L 245.34,80.82 L 246.21,80.88 Z M 168.04,79.36 L 166.70,79.28 L 167.19,79.03 L 168.04,79.36 Z M 165.58,79.44 L 164.26,78.77 L 164.82,78.56 L 165.58,79.44 Z M 262.93,41.89 L 261.87,42.39 L 261.87,42.13 L 262.93,41.89 Z M 248.77,32.86 L 248.83,31.97 L 249.03,31.94 L 249.51,32.76 L 248.77,32.86 Z M 335.54,83.62 L 334.95,83.52 L 335.01,83.45 L 335.54,83.62 Z M 334.64,83.35 L 334.48,83.06 L 334.68,83.07 L 334.64,83.35 Z M 330.97,81.89 L 331.57,82.05 L 331.36,82.18 L 330.97,81.89 Z M 325.11,78.03 L 325.41,77.95 L 325.47,78.15 L 325.11,78.03 Z M 329.11,76.35 L 329.57,76.31 L 329.38,76.63 L 329.11,76.35 Z M 334.66,73.52 L 334.65,73.47 L 334.95,73.53 L 334.66,73.52 Z M 308.19,67.95 L 308.25,68.03 L 308.14,67.99 L 308.19,67.95 Z M 308.20,67.91 L 308.08,67.88 L 308.18,67.84 L 308.20,67.91 Z M 310.82,67.22 L 310.87,67.27 L 310.73,67.29 L 310.82,67.22 Z M 310.61,66.83 L 310.68,66.90 L 310.59,66.87 L 310.61,66.83 Z M 356.52,66.75 L 355.97,67.14 L 355.93,66.83 L 356.52,66.75 Z M 332.27,61.21 L 332.18,61.31 L 332.05,61.19 L 332.27,61.21 Z M 381.72,24.87 L 381.76,24.96 L 381.50,25.11 L 381.72,24.87 Z M 348.07,23.08 L 348.16,23.01 L 348.15,23.05 L 348.07,23.08 Z M 348.44,22.76 L 348.27,22.95 L 348.25,22.89 L 348.44,22.76 Z M 295.69,20.97 L 295.46,21.31 L 295.10,21.03 L 295.69,20.97 Z M 284.87,15.68 L 284.12,15.82 L 284.34,15.49 L 284.87,15.68 Z M 243.62,103.18 L 242.88,103.15 L 243.29,102.97 L 243.62,103.18 Z M 181.86,79.34 L 181.24,79.57 L 180.22,79.25 L 181.82,78.95 L 181.86,79.34 Z M 385.32,75.21 L 384.76,74.68 L 385.42,74.49 L 385.32,75.21 Z M 123.04,70.24 L 122.74,70.53 L 122.57,70.32 L 123.04,70.24 Z M 380.39,70.08 L 379.96,70.16 L 379.84,69.75 L 380.39,70.08 Z M 373.27,47.39 L 372.48,46.83 L 372.65,46.78 L 373.58,47.03 L 373.27,47.39 Z M 265.35,41.82 L 264.18,41.87 L 264.51,40.31 L 265.35,41.82 Z M 317.41,37.17 L 316.32,36.60 L 316.51,36.59 L 317.41,37.17 Z M 333.74,33.16 L 333.20,33.55 L 333.03,33.09 L 333.74,33.16 Z M 61.17,25.06 L 61.01,25.20 L 60.81,25.06 L 61.17,25.06 Z M 60.16,24.49 L 59.83,24.58 L 59.92,24.30 L 60.16,24.49 Z M 282.42,17.90 L 282.07,18.16 L 281.91,17.56 L 282.42,17.90 Z" fill="#E8E0D0" stroke="#B8B0A0" stroke-width="0.5"/>
<path d="M 200.77,1.08 L 201.44,0.81 L 203.66,1.57 L 200.77,1.08 Z M 47.54,0.54 L 45.83,4.31 L 47.39,6.00 L 46.94,10.05 L 49.08,11.77 L 50.45,11.93 L 52.44,14.05 L 55.76,18.87 L 56.00,20.73 L 54.15,20.68 L 53.64,19.92 L 54.60,19.51 L 53.58,19.78 L 52.63,18.80 L 53.10,20.17 L 49.72,20.16 L 48.10,20.63 L 47.76,21.40 L 46.14,19.56 L 38.91,17.35 L 37.23,15.99 L 33.00,14.77 L 31.21,13.67 L 29.87,13.67 L 28.89,12.35 L 23.60,10.55 L 24.54,9.50 L 23.72,7.63 L 20.94,5.24 L 18.46,4.11 L 18.82,3.67 L 17.35,3.45 L 17.31,2.76 L 19.10,2.52 L 16.52,1.58 L 15.79,0.45 L 16.03,0.00 L 47.46,0.00 L 47.54,0.54 Z M 210.70,0.15 L 204.48,1.06 L 201.66,0.00 L 210.98,0.00 L 210.70,0.15 Z M 200.63,1.43 L 199.98,1.55 L 196.03,0.20 L 189.39,0.37 L 188.79,0.00 L 200.89,0.00 L 200.63,1.43 Z M 187.46,0.66 L 186.37,0.01 L 184.36,0.04 L 183.22,0.78 L 181.38,0.00 L 188.53,0.00 L 187.46,0.66 Z M 178.00,3.19 L 178.68,6.56 L 177.77,7.06 L 177.19,9.30 L 175.53,9.61 L 174.79,9.23 L 172.92,10.66 L 172.78,12.20 L 174.40,12.88 L 169.77,14.69 L 170.35,17.05 L 168.70,17.48 L 167.24,20.27 L 165.39,19.77 L 163.21,20.37 L 160.35,20.21 L 157.27,21.69 L 156.18,21.10 L 150.05,20.40 L 150.76,19.72 L 150.21,19.34 L 144.76,19.35 L 141.42,20.27 L 140.67,22.27 L 138.69,22.47 L 137.75,23.20 L 135.58,23.05 L 134.28,23.54 L 130.97,22.74 L 124.00,24.28 L 120.85,23.29 L 119.84,22.06 L 114.29,19.15 L 114.12,17.89 L 112.89,17.14 L 114.16,15.81 L 114.67,17.26 L 117.22,18.50 L 121.15,18.62 L 121.57,17.74 L 122.23,18.45 L 123.50,18.16 L 123.04,18.99 L 125.87,19.49 L 125.34,20.17 L 126.59,19.32 L 130.37,20.70 L 131.35,20.54 L 132.52,20.96 L 132.99,20.82 L 129.54,20.08 L 128.89,19.24 L 129.87,18.53 L 130.78,18.95 L 131.73,18.94 L 129.87,17.93 L 131.06,15.91 L 131.73,15.92 L 131.58,15.52 L 132.48,15.61 L 132.93,15.27 L 130.83,15.39 L 131.23,13.53 L 132.79,14.04 L 134.18,14.01 L 133.22,13.06 L 134.48,13.01 L 133.35,12.57 L 133.79,11.54 L 136.09,10.59 L 150.58,8.40 L 155.20,4.34 L 160.76,0.76 L 160.87,0.00 L 164.17,0.00 L 164.40,0.82 L 165.88,0.86 L 168.13,2.53 L 169.64,1.74 L 170.46,0.00 L 173.78,0.00 L 175.92,0.49 L 175.66,0.00 L 181.28,0.00 L 178.00,3.19 Z M 132.22,13.42 L 132.25,11.00 L 132.96,11.59 L 133.29,13.70 L 132.22,13.42 Z M 55.28,11.47 L 54.41,11.26 L 54.85,10.26 L 55.28,11.47 Z M 23.31,9.31 L 23.06,9.27 L 23.34,9.13 L 23.31,9.31 Z M 24.13,9.45 L 23.40,9.75 L 23.81,9.08 L 24.13,9.45 Z" fill="#E8E0D0" stroke="#B8B0A0" stroke-width="0.5"/>
<path d="M 273.03,95.31 L 271.95,94.56 L 270.65,94.85 L 270.00,94.30 L 274.55,93.19 L 273.03,95.31 Z M 281.55,90.55 L 282.07,89.42 L 284.63,89.01 L 289.72,88.41 L 292.09,88.67 L 295.80,87.96 L 297.28,88.43 L 301.81,87.21 L 305.56,87.94 L 302.40,89.72 L 297.66,90.62 L 296.46,91.56 L 286.93,93.26 L 281.17,95.29 L 280.05,93.41 L 282.14,93.23 L 282.26,92.37 L 281.44,91.86 L 279.78,92.46 L 279.63,91.69 L 281.55,90.55 Z M 287.55,86.06 L 286.72,87.26 L 285.96,86.94 L 287.55,86.06 Z" fill="#E8E0D0" stroke="#B8B0A0" stroke-width="0.5"/>
<path d="M 175.92,0.49 L 173.78,0.00 L 175.74,0.00 L 175.92,0.49 Z M 169.64,1.74 L 168.13,2.53 L 165.88,0.86 L 164.40,0.82 L 164.17,0.00 L 170.46,0.00 L 169.64,1.74 Z" fill="#E8E0D0" stroke="#B8B0A0" stroke-width="0.5"/>
<path d="M 456.83,48.28 L 463.43,50.48 L 464.79,50.46 L 465.36,51.15 L 481.17,53.73 L 486.58,56.25 L 488.93,56.70 L 489.70,56.22 L 491.90,56.35 L 492.39,57.46 L 495.74,58.28 L 498.02,60.05 L 500.92,60.28 L 505.86,63.39 L 505.41,67.75 L 513.00,68.59 L 520.10,71.13 L 522.57,70.87 L 524.38,71.34 L 527.80,73.65 L 528.10,76.09 L 518.44,76.47 L 518.37,77.90 L 519.63,78.31 L 520.89,81.39 L 524.12,82.45 L 526.72,84.62 L 531.26,85.40 L 532.16,88.89 L 534.50,89.72 L 536.02,92.39 L 537.89,92.66 L 542.05,91.78 L 543.86,92.07 L 544.13,92.95 L 542.49,94.48 L 542.97,95.30 L 545.29,96.01 L 551.87,96.65 L 548.43,97.51 L 549.77,98.92 L 557.86,100.24 L 558.14,100.73 L 560.81,100.37 L 558.42,101.15 L 555.31,101.07 L 555.26,101.57 L 558.36,102.10 L 558.79,102.72 L 553.63,103.64 L 549.77,102.60 L 552.23,101.99 L 550.85,101.75 L 550.51,102.18 L 548.62,101.15 L 546.02,101.33 L 544.50,100.72 L 537.78,100.43 L 537.14,99.54 L 536.60,100.11 L 534.03,100.20 L 531.36,99.31 L 529.43,99.96 L 528.24,99.12 L 526.61,99.50 L 522.20,95.65 L 520.17,94.92 L 519.60,95.20 L 517.70,93.80 L 517.63,92.86 L 518.59,92.48 L 518.58,92.18 L 517.47,92.68 L 514.53,91.99 L 513.95,91.21 L 514.58,90.59 L 511.94,88.94 L 509.09,85.65 L 505.82,85.13 L 505.75,84.48 L 501.96,84.70 L 499.17,83.75 L 495.87,83.58 L 495.58,82.12 L 495.28,82.90 L 493.42,82.07 L 492.89,82.73 L 492.00,81.62 L 491.91,82.83 L 490.75,81.74 L 491.84,83.70 L 490.32,83.32 L 489.71,82.41 L 489.96,82.94 L 488.82,82.73 L 489.33,83.49 L 488.67,83.68 L 484.73,82.69 L 483.81,81.69 L 482.51,81.22 L 485.87,84.89 L 484.22,84.62 L 485.41,85.13 L 483.82,85.36 L 479.45,84.37 L 481.57,85.39 L 482.14,86.73 L 475.05,87.40 L 472.26,86.88 L 470.03,87.37 L 468.58,86.23 L 467.11,86.27 L 466.26,86.58 L 468.51,86.38 L 469.57,87.65 L 472.56,87.26 L 476.61,88.29 L 479.79,90.36 L 479.54,91.95 L 471.75,94.22 L 466.96,93.04 L 460.57,93.56 L 457.59,92.92 L 455.49,93.55 L 453.59,92.68 L 453.59,77.50 L 452.21,76.17 L 453.59,73.65 L 453.56,47.99 L 456.83,48.28 Z M 589.86,110.06 L 587.88,109.53 L 588.00,109.09 L 586.97,109.29 L 587.34,108.91 L 586.07,107.87 L 592.10,109.72 L 589.86,110.06 Z M 597.58,108.58 L 594.76,108.34 L 596.23,108.22 L 595.65,107.83 L 597.73,108.08 L 597.58,108.58 Z M 586.00,107.50 L 584.98,106.97 L 586.60,107.36 L 586.00,107.50 Z M 582.45,103.46 L 581.18,103.69 L 578.87,103.12 L 582.45,103.46 Z M 562.68,103.42 L 561.36,103.50 L 561.46,102.94 L 562.99,102.98 L 562.68,103.42 Z M 561.01,103.27 L 559.94,103.22 L 560.72,103.11 L 559.91,102.53 L 560.83,102.51 L 561.01,103.27 Z M 565.43,98.60 L 564.69,100.20 L 561.72,99.54 L 562.10,98.78 L 561.17,98.80 L 559.62,96.78 L 563.15,99.01 L 565.43,98.60 Z M 556.04,96.29 L 556.91,95.71 L 556.03,94.46 L 559.99,94.88 L 561.43,96.43 L 560.46,96.86 L 560.02,96.43 L 556.04,96.29 Z M 554.73,95.52 L 552.57,94.01 L 553.67,93.37 L 555.34,94.51 L 554.73,95.52 Z M 583.08,93.27 L 583.49,93.71 L 581.07,93.20 L 580.98,93.74 L 579.99,93.21 L 580.64,92.95 L 578.12,92.26 L 577.90,91.71 L 577.58,92.53 L 577.22,91.89 L 577.91,91.57 L 581.62,91.98 L 583.80,92.92 L 583.08,93.27 Z M 563.73,90.79 L 562.65,90.08 L 563.50,89.09 L 562.17,88.64 L 563.58,87.96 L 563.68,89.14 L 563.73,90.79 Z M 482.32,90.10 L 477.45,87.96 L 480.65,88.69 L 482.32,90.10 Z M 478.94,87.64 L 481.72,87.65 L 482.12,88.35 L 478.94,87.64 Z M 529.58,70.36 L 527.17,68.68 L 527.20,67.96 L 530.21,68.64 L 529.58,70.36 Z M 615.59,76.80 L 615.43,76.34 L 613.06,77.37 L 609.09,76.29 L 607.39,74.97 L 607.84,73.52 L 605.41,72.78 L 602.87,70.98 L 602.26,69.74 L 603.02,68.31 L 602.26,67.43 L 604.34,68.28 L 606.22,68.24 L 607.82,70.45 L 609.52,71.05 L 610.96,72.64 L 612.43,72.57 L 614.32,73.85 L 615.62,75.75 L 615.59,76.80 Z M 531.26,67.36 L 530.99,67.67 L 530.50,67.42 L 531.26,67.36 Z M 525.86,66.68 L 525.34,66.97 L 524.93,66.59 L 525.86,66.68 Z M 521.48,66.91 L 520.60,67.53 L 518.90,66.67 L 520.06,65.79 L 521.48,66.91 Z M 602.14,67.41 L 601.52,67.63 L 600.48,65.42 L 601.44,64.56 L 602.56,65.93 L 602.14,67.41 Z M 542.34,63.53 L 542.47,63.64 L 542.20,63.95 L 542.34,63.53 Z M 510.65,63.01 L 510.87,63.34 L 510.53,63.47 L 510.65,63.01 Z M 546.60,62.23 L 546.58,62.54 L 545.44,62.36 L 546.60,62.23 Z M 508.61,62.14 L 507.35,62.83 L 506.72,62.07 L 507.98,61.27 L 508.61,62.14 Z M 576.92,61.08 L 577.47,62.30 L 576.17,64.03 L 572.73,64.36 L 572.77,65.49 L 574.61,66.85 L 574.08,67.60 L 571.22,68.55 L 567.21,68.14 L 567.95,69.04 L 564.16,71.10 L 560.24,71.44 L 559.97,72.17 L 556.38,73.23 L 547.39,73.46 L 545.80,72.17 L 543.98,71.72 L 541.08,72.45 L 541.09,71.39 L 539.08,71.29 L 537.96,70.40 L 533.86,69.80 L 533.24,69.17 L 534.33,67.53 L 535.70,68.18 L 536.74,67.78 L 538.86,68.19 L 540.27,67.67 L 542.94,68.59 L 545.91,68.52 L 547.77,67.76 L 548.29,68.38 L 550.38,68.01 L 551.19,67.36 L 550.44,66.87 L 551.63,66.02 L 551.49,65.06 L 552.56,64.53 L 553.54,64.90 L 551.69,66.50 L 553.09,68.23 L 554.67,68.33 L 556.48,67.55 L 558.21,68.30 L 560.11,67.52 L 561.28,67.81 L 562.31,67.29 L 563.08,65.60 L 566.17,63.81 L 568.81,64.24 L 569.53,63.79 L 568.03,58.82 L 571.03,59.07 L 572.63,59.88 L 573.10,58.92 L 575.02,58.58 L 575.67,59.22 L 574.94,59.05 L 575.02,59.72 L 577.54,59.98 L 576.92,61.08 Z M 498.26,58.40 L 497.59,58.45 L 497.47,58.00 L 498.26,58.40 Z M 586.37,53.79 L 586.66,54.16 L 586.52,54.16 L 586.37,53.79 Z M 587.56,53.33 L 587.56,53.59 L 586.74,53.50 L 587.56,53.33 Z M 602.44,53.44 L 602.61,53.90 L 600.67,52.15 L 602.44,53.44 Z M 579.99,52.28 L 578.77,51.25 L 580.06,51.05 L 579.99,52.28 Z M 562.46,50.53 L 559.68,50.59 L 560.90,50.07 L 562.46,50.53 Z M 573.29,50.71 L 572.71,49.69 L 573.27,50.02 L 573.29,50.71 Z M 572.87,49.57 L 572.10,49.66 L 572.07,48.71 L 572.87,49.57 Z M 572.58,48.17 L 573.01,47.95 L 573.42,48.28 L 572.58,48.17 Z M 584.29,60.94 L 584.66,61.74 L 582.74,63.43 L 580.48,61.37 L 580.46,58.73 L 576.14,54.65 L 570.94,53.21 L 563.16,49.58 L 559.58,49.15 L 559.58,48.75 L 561.01,48.66 L 560.15,47.68 L 564.52,49.84 L 566.92,50.11 L 570.99,52.02 L 573.58,52.43 L 577.61,55.24 L 578.50,55.25 L 579.24,56.37 L 581.93,56.72 L 582.45,57.54 L 583.26,57.50 L 585.33,59.45 L 584.29,60.94 Z M 556.23,48.39 L 553.37,48.53 L 550.90,47.04 L 553.60,46.44 L 556.38,47.52 L 556.23,48.39 Z M 528.14,46.09 L 526.76,46.11 L 527.37,46.01 L 527.80,45.50 L 528.14,46.09 Z M 523.51,44.28 L 522.00,44.30 L 521.07,45.14 L 515.62,44.65 L 515.89,45.08 L 514.20,45.43 L 513.65,44.89 L 514.70,44.60 L 514.30,43.83 L 515.14,43.61 L 523.35,44.18 L 522.97,43.60 L 523.51,44.28 Z M 549.10,40.98 L 547.74,40.95 L 546.36,39.92 L 547.21,39.42 L 549.10,40.98 Z M 597.43,61.22 L 597.19,61.59 L 596.69,61.35 L 597.30,61.23 L 596.76,60.80 L 597.43,61.22 Z M 596.14,60.19 L 596.25,60.14 L 596.36,60.33 L 596.14,60.19 Z M 578.50,58.78 L 578.35,59.05 L 577.68,58.72 L 578.50,58.78 Z M 591.11,58.22 L 590.67,58.50 L 590.24,58.21 L 591.11,58.22 Z M 591.79,57.88 L 591.20,57.79 L 591.28,57.72 L 591.79,57.88 Z M 574.09,101.51 L 574.20,101.51 L 574.18,101.57 L 574.09,101.51 Z M 571.59,101.14 L 571.68,101.12 L 571.60,101.19 L 571.59,101.14 Z M 571.52,100.54 L 571.46,100.64 L 571.42,100.61 L 571.52,100.54 Z M 493.04,54.23 L 493.06,54.28 L 492.80,54.29 L 493.04,54.23 Z M 487.38,52.03 L 487.80,52.31 L 487.59,52.44 L 487.38,52.03 Z M 473.70,41.78 L 474.05,41.83 L 473.83,41.89 L 473.70,41.78 Z M 562.37,96.55 L 561.74,96.02 L 562.42,96.02 L 562.37,96.55 Z M 484.32,88.73 L 484.13,88.78 L 483.96,88.61 L 484.32,88.73 Z M 482.53,88.01 L 481.37,87.49 L 482.42,87.42 L 482.53,88.01 Z M 482.73,86.23 L 482.00,85.84 L 482.15,85.73 L 482.73,86.23 Z M 482.99,85.77 L 481.62,85.29 L 482.14,85.22 L 482.99,85.77 Z M 564.42,64.11 L 563.47,63.96 L 563.74,63.76 L 564.42,64.11 Z M 481.18,53.21 L 481.10,52.93 L 481.94,53.13 L 481.18,53.21 Z M 550.56,41.70 L 550.39,41.48 L 550.96,41.32 L 551.39,41.61 L 550.56,41.70 Z" fill="#E8E0D0" stroke="#B8B0A0" stroke-width="0.5"/>
<path d="M 0.66,488.71 L 4.57,487.36 L 4.90,488.15 L 12.69,486.49 L 15.08,487.10 L 16.64,486.68 L 14.76,486.26 L 18.93,486.14 L 25.66,483.93 L 22.32,483.74 L 24.14,483.15 L 34.99,483.20 L 39.06,482.58 L 48.78,483.60 L 52.00,483.39 L 78.41,486.51 L 93.94,487.32 L 95.02,487.88 L 93.10,488.60 L 93.19,489.36 L 98.57,487.84 L 99.56,488.73 L 103.07,489.15 L 105.63,490.21 L 108.52,489.61 L 113.77,489.85 L 122.52,488.04 L 126.06,488.44 L 124.52,487.17 L 125.85,486.32 L 123.30,485.65 L 128.04,483.91 L 152.71,481.92 L 165.99,485.09 L 164.69,485.99 L 166.57,486.39 L 164.83,487.03 L 173.40,486.82 L 179.20,487.75 L 180.63,488.95 L 176.36,490.43 L 161.66,491.71 L 157.51,493.59 L 158.13,493.84 L 168.59,492.76 L 167.64,493.26 L 168.58,493.32 L 174.92,492.55 L 174.42,492.40 L 175.83,491.91 L 181.35,491.95 L 185.52,491.06 L 186.89,491.43 L 193.22,490.05 L 192.57,491.34 L 199.74,490.97 L 201.57,491.58 L 209.31,490.62 L 207.41,491.42 L 209.65,491.67 L 219.06,491.28 L 230.15,489.95 L 231.17,490.25 L 212.60,492.32 L 215.03,493.30 L 242.75,491.04 L 250.04,489.41 L 264.88,488.68 L 269.83,487.58 L 272.49,487.62 L 273.69,488.06 L 273.36,488.46 L 277.44,488.75 L 282.11,488.06 L 284.95,486.40 L 290.69,485.61 L 293.24,486.76 L 294.89,486.76 L 295.37,487.39 L 296.00,485.97 L 297.33,486.58 L 300.59,486.62 L 297.51,488.11 L 300.21,488.28 L 298.71,488.73 L 298.73,489.34 L 302.85,489.36 L 302.16,489.94 L 303.07,490.10 L 303.05,491.33 L 304.17,490.32 L 306.11,489.93 L 306.52,490.87 L 313.81,490.56 L 314.78,491.10 L 318.64,491.40 L 321.28,490.58 L 324.54,491.60 L 328.65,490.12 L 328.09,489.43 L 330.17,488.54 L 328.98,488.28 L 331.66,486.54 L 335.78,485.43 L 340.77,485.33 L 342.31,484.56 L 353.72,485.20 L 361.52,484.57 L 365.30,484.84 L 370.16,484.08 L 375.76,484.26 L 382.63,485.67 L 379.19,487.00 L 381.80,487.10 L 386.31,485.85 L 390.77,485.81 L 390.64,485.33 L 392.06,485.01 L 392.56,484.22 L 394.19,484.32 L 395.85,485.44 L 395.66,485.92 L 401.06,485.15 L 405.57,486.35 L 406.79,487.25 L 407.60,486.81 L 406.57,486.67 L 406.78,486.28 L 407.65,485.93 L 415.47,485.90 L 422.87,486.96 L 422.78,487.82 L 425.44,487.20 L 434.90,487.43 L 441.57,488.29 L 441.09,489.01 L 448.61,488.51 L 456.89,489.45 L 460.10,488.89 L 464.48,489.03 L 469.84,490.58 L 473.58,490.54 L 481.02,489.34 L 484.84,489.85 L 485.03,490.91 L 483.65,491.36 L 487.09,490.99 L 487.59,491.62 L 488.80,490.57 L 491.89,490.51 L 493.52,491.20 L 492.37,491.75 L 489.82,491.58 L 491.91,492.01 L 489.60,493.27 L 488.26,492.79 L 487.27,493.32 L 488.40,494.49 L 485.04,495.77 L 484.62,496.22 L 485.85,496.13 L 485.05,496.82 L 488.03,496.49 L 487.84,496.95 L 489.04,496.96 L 491.42,495.86 L 496.15,495.47 L 500.21,493.95 L 501.99,493.94 L 503.85,495.47 L 505.12,494.48 L 508.53,494.43 L 510.08,494.68 L 510.49,495.12 L 509.20,495.55 L 511.27,496.25 L 512.79,495.43 L 513.74,495.69 L 512.45,496.94 L 517.47,496.84 L 514.06,498.26 L 514.53,498.50 L 519.54,497.54 L 519.44,498.20 L 515.79,499.36 L 520.01,499.29 L 519.60,500.00 L 0.00,500.00 L 0.00,488.54 L 0.66,488.71 Z M 526.02,499.72 L 527.40,500.00 L 522.03,500.00 L 526.02,499.72 Z M 544.74,499.91 L 545.27,500.00 L 544.41,500.00 L 544.74,499.91 Z M 547.92,499.81 L 550.87,500.00 L 548.55,500.00 L 547.92,499.81 Z M 561.71,499.63 L 562.52,500.00 L 558.21,500.00 L 561.71,499.63 Z M 591.23,499.86 L 591.52,499.33 L 593.36,499.19 L 597.67,500.00 L 591.59,500.00 L 591.23,499.86 Z M 713.05,493.36 L 712.49,493.94 L 710.14,494.10 L 710.14,492.19 L 713.05,493.36 Z M 694.25,489.33 L 693.06,488.39 L 695.00,488.45 L 695.36,489.29 L 694.25,489.33 Z M 234.05,489.79 L 235.72,489.62 L 231.54,490.06 L 234.05,489.79 Z M 239.28,488.94 L 235.90,489.35 L 237.69,488.95 L 239.28,488.94 Z M 687.27,487.21 L 684.49,486.26 L 685.13,486.01 L 684.57,485.28 L 688.13,486.71 L 687.27,487.21 Z M 12.41,485.06 L 10.36,484.94 L 11.89,484.32 L 12.98,484.43 L 12.41,485.06 Z M 20.77,482.25 L 19.46,482.70 L 13.99,482.53 L 18.30,482.00 L 20.77,482.25 Z M 21.87,479.49 L 23.33,480.37 L 20.14,481.35 L 12.89,481.19 L 12.95,480.35 L 15.79,479.43 L 21.87,479.49 Z M 46.67,479.75 L 44.03,479.83 L 43.29,478.76 L 39.48,477.89 L 43.17,477.86 L 46.67,479.75 Z" fill="#E8E0D0" stroke="#B8B0A0" stroke-width="0.5"/>
<path d="M 727.13,379.70 L 724.53,379.83 L 723.86,379.46 L 727.13,379.70 Z M 759.30,391.48 L 757.35,391.08 L 759.20,390.58 L 759.90,390.93 L 759.30,391.48 Z M 726.46,378.33 L 727.13,378.38 L 726.01,378.43 L 727.20,378.80 L 727.28,379.46 L 725.35,379.32 L 725.59,379.02 L 725.12,378.78 L 724.91,379.36 L 723.56,379.46 L 723.87,378.80 L 725.54,378.26 L 725.72,377.30 L 727.80,377.34 L 726.46,378.33 Z M 731.59,360.30 L 730.84,360.16 L 731.39,359.86 L 731.59,360.30 Z M 740.44,354.43 L 740.79,354.51 L 740.14,354.69 L 740.44,354.43 Z M 742.91,351.60 L 742.70,351.48 L 743.03,351.34 L 742.91,351.60 Z M 752.91,351.32 L 752.45,351.64 L 752.22,351.36 L 752.91,351.32 Z M 749.16,353.59 L 745.29,354.30 L 743.80,353.95 L 742.20,354.46 L 743.39,354.42 L 742.79,354.80 L 741.16,354.88 L 744.34,352.40 L 744.05,350.93 L 746.00,350.94 L 748.29,352.07 L 746.44,352.29 L 745.99,352.82 L 748.84,352.81 L 749.16,353.59 Z M 732.69,344.27 L 731.72,344.34 L 731.43,343.79 L 730.17,344.25 L 730.82,343.64 L 732.39,343.50 L 732.69,344.27 Z M 735.48,340.87 L 735.89,341.33 L 734.36,340.94 L 735.23,340.39 L 735.48,340.87 Z M 797.78,329.42 L 798.70,329.66 L 797.07,329.92 L 800.00,329.96 L 800.00,330.76 L 799.96,330.69 L 800.00,330.91 L 800.00,331.73 L 798.54,331.58 L 797.95,330.97 L 794.26,331.40 L 796.70,330.90 L 794.21,330.59 L 793.76,331.47 L 782.60,334.31 L 780.73,336.15 L 781.05,338.62 L 778.05,340.90 L 777.40,342.58 L 774.81,344.12 L 776.24,344.60 L 774.05,345.42 L 776.43,344.63 L 776.45,345.29 L 771.63,346.01 L 770.37,347.32 L 766.93,348.51 L 766.38,349.35 L 764.33,349.52 L 765.37,349.57 L 764.81,349.91 L 757.57,350.82 L 755.98,350.64 L 755.50,349.98 L 753.04,349.90 L 752.76,350.36 L 750.31,349.85 L 750.45,350.39 L 749.25,349.75 L 750.52,349.57 L 750.35,349.00 L 749.62,349.42 L 748.20,348.45 L 744.60,348.84 L 743.24,347.50 L 741.91,347.23 L 740.42,347.17 L 739.91,347.86 L 738.71,348.02 L 732.94,347.65 L 731.95,347.19 L 735.00,345.75 L 731.36,346.74 L 733.44,345.66 L 732.17,345.73 L 732.74,345.18 L 729.83,346.11 L 729.99,344.81 L 734.32,344.60 L 735.74,344.06 L 733.07,344.20 L 734.33,343.73 L 733.11,343.78 L 733.15,343.35 L 735.43,343.22 L 736.11,342.64 L 732.42,343.22 L 733.00,342.08 L 735.00,342.27 L 733.63,341.45 L 734.33,341.21 L 736.03,341.75 L 735.64,342.20 L 736.57,341.89 L 737.74,342.55 L 736.03,341.51 L 738.86,341.42 L 736.03,341.12 L 735.65,340.18 L 737.37,340.54 L 736.11,339.97 L 736.80,339.54 L 737.60,340.20 L 738.49,339.91 L 737.16,339.32 L 739.15,339.52 L 737.67,339.02 L 739.69,338.18 L 741.09,339.22 L 740.47,337.82 L 741.53,337.79 L 741.67,338.46 L 741.46,337.44 L 742.88,337.65 L 741.96,337.19 L 743.66,336.54 L 745.62,337.18 L 744.58,335.87 L 750.37,332.67 L 755.06,332.38 L 761.73,330.00 L 764.96,329.47 L 769.15,327.30 L 770.60,327.16 L 771.15,326.26 L 777.32,324.45 L 781.29,321.75 L 783.92,317.05 L 788.12,316.36 L 790.45,314.63 L 791.20,313.79 L 790.84,311.01 L 795.18,308.97 L 796.10,309.07 L 796.14,308.54 L 798.78,308.37 L 800.00,308.48 L 800.00,308.51 L 797.72,308.50 L 796.84,309.37 L 798.96,310.71 L 800.00,310.52 L 800.00,326.13 L 799.60,326.23 L 797.79,327.45 L 797.78,329.42 Z M 791.25,264.86 L 790.93,264.70 L 791.19,264.72 L 791.25,264.86 Z M 796.99,267.00 L 797.30,266.53 L 800.00,266.53 L 800.00,267.05 L 799.52,267.42 L 800.00,267.49 L 800.00,268.84 L 796.99,267.00 Z" fill="#E8E0D0" stroke="#B8B0A0" stroke-width="0.5"/>
<path d="M 702.44,167.97 L 702.47,167.54 L 702.66,167.58 L 702.44,167.97 Z M 741.53,185.65 L 740.05,185.69 L 740.20,184.99 L 741.53,185.65 Z M 733.82,184.18 L 733.37,184.44 L 733.03,184.36 L 733.82,184.18 Z M 747.72,178.67 L 746.27,178.89 L 744.85,178.52 L 744.27,177.03 L 746.22,176.70 L 746.43,177.50 L 747.84,177.36 L 747.72,178.67 Z M 729.65,172.47 L 728.92,172.51 L 729.09,172.46 L 729.65,172.47 Z M 739.75,175.62 L 736.82,174.75 L 735.74,173.78 L 737.58,173.09 L 736.00,172.80 L 736.15,172.44 L 738.78,172.42 L 738.57,173.66 L 740.20,174.58 L 739.75,175.62 Z M 730.96,171.30 L 731.50,171.62 L 730.03,172.42 L 731.22,170.67 L 730.79,170.28 L 731.59,170.44 L 730.96,171.30 Z M 734.60,183.98 L 733.79,183.31 L 733.11,183.95 L 730.59,182.89 L 729.41,183.38 L 729.36,182.44 L 728.41,182.82 L 728.24,182.26 L 725.86,181.88 L 726.45,181.43 L 725.35,180.51 L 724.72,181.01 L 722.63,180.29 L 721.79,179.34 L 721.19,179.62 L 717.00,178.35 L 713.69,176.47 L 713.32,176.82 L 711.58,174.83 L 710.73,175.01 L 710.13,174.02 L 707.08,172.84 L 707.39,172.50 L 704.35,170.34 L 704.82,169.80 L 702.96,169.34 L 703.63,169.08 L 702.93,168.09 L 706.44,169.71 L 706.34,169.14 L 708.38,169.58 L 713.28,172.22 L 716.21,172.77 L 720.60,176.23 L 728.69,178.92 L 732.10,181.13 L 734.85,181.81 L 735.89,182.89 L 734.60,183.98 Z M 704.85,168.37 L 704.79,167.95 L 704.86,167.95 L 705.45,168.47 L 704.85,168.37 Z M 699.44,166.06 L 698.92,164.94 L 699.22,165.09 L 699.44,166.06 Z M 782.57,183.64 L 782.55,183.66 L 782.52,183.65 L 782.57,183.64 Z" fill="#E8E0D0" stroke="#B8B0A0" stroke-width="0.5"/>
<path d="M 799.96,18.94 L 800.00,18.96 L 800.00,19.04 L 799.96,18.94 Z M 800.00,16.94 L 800.00,17.03 L 799.85,16.91 L 799.81,16.78 L 800.00,16.94 Z M 798.04,9.35 L 798.67,9.07 L 799.29,9.01 L 798.03,9.44 L 798.04,9.35 Z M 800.00,8.64 L 800.00,8.67 L 799.29,8.83 L 799.91,8.64 L 800.00,8.64 Z M 762.85,36.04 L 763.09,35.95 L 763.20,36.07 L 762.85,36.04 Z" fill="#E8E0D0" stroke="#B8B0A0" stroke-width="0.5"/>
<path d="M 71.36,102.70 L 70.17,102.37 L 70.27,101.94 L 71.46,101.78 L 71.36,102.70 Z" fill="#E8E0D0" stroke="#B8B0A0" stroke-width="0.5"/>
<path d="M 51.25,21.43 L 49.10,21.04 L 49.84,20.30 L 52.57,20.57 L 51.25,21.43 Z" fill="#E8E0D0" stroke="#B8B0A0" stroke-width="0.5"/>
<path d="M 745.99,229.90 L 745.55,229.80 L 745.55,229.33 L 745.99,229.90 Z" fill="#E8E0D0" stroke="#B8B0A0" stroke-width="0.5"/>
<path d="M 665.99,111.15 L 664.91,111.50 L 662.61,110.04 L 659.94,109.82 L 659.35,109.15 L 660.62,109.09 L 665.99,111.15 Z M 657.94,107.74 L 658.09,107.92 L 657.27,107.64 L 657.94,107.74 Z M 678.28,100.41 L 678.43,100.24 L 678.84,100.55 L 678.28,100.41 Z M 682.55,104.48 L 679.10,103.87 L 676.20,102.70 L 676.05,101.33 L 673.60,101.05 L 673.76,100.25 L 679.57,101.89 L 682.58,101.96 L 684.47,103.58 L 684.29,104.42 L 685.41,104.48 L 682.55,104.48 Z M 737.31,97.92 L 737.36,97.85 L 737.64,98.04 L 737.31,97.92 Z M 736.65,97.46 L 736.69,97.48 L 736.64,97.49 L 736.65,97.46 Z M 680.57,96.90 L 681.11,96.67 L 680.95,96.90 L 681.11,97.80 L 680.57,96.90 Z M 674.35,94.28 L 676.42,96.11 L 676.57,97.37 L 674.86,96.56 L 674.79,94.79 L 674.35,94.28 Z M 666.67,98.39 L 663.15,97.55 L 657.90,97.41 L 655.37,95.54 L 655.45,94.08 L 656.90,93.74 L 659.03,94.93 L 663.65,94.79 L 666.49,95.95 L 668.63,97.70 L 666.67,98.39 Z M 657.56,92.85 L 657.87,92.66 L 658.00,92.95 L 657.56,92.85 Z M 663.09,92.38 L 664.17,92.86 L 663.65,93.23 L 662.43,93.04 L 663.09,92.38 Z M 651.40,92.11 L 650.73,92.90 L 650.78,92.59 L 651.40,92.11 Z M 661.28,91.88 L 662.95,92.38 L 662.55,92.86 L 660.73,92.34 L 661.28,91.88 Z M 650.44,92.66 L 649.27,92.42 L 649.84,91.91 L 650.66,92.08 L 650.44,92.66 Z M 660.49,91.62 L 660.68,91.54 L 660.91,91.91 L 660.49,91.62 Z M 633.92,90.55 L 632.08,90.04 L 633.13,89.84 L 633.92,90.55 Z M 639.68,90.55 L 640.27,89.75 L 640.51,90.15 L 639.68,90.55 Z M 639.45,88.83 L 638.72,89.28 L 639.16,89.83 L 637.55,90.28 L 636.70,89.77 L 636.93,88.95 L 639.45,88.83 Z M 630.75,89.54 L 631.66,90.08 L 629.36,88.97 L 630.94,87.92 L 631.66,88.50 L 630.75,89.54 Z M 654.80,88.32 L 654.89,87.76 L 655.74,87.72 L 656.31,88.57 L 654.80,88.32 Z M 689.31,87.65 L 689.55,87.68 L 689.47,87.73 L 689.31,87.65 Z M 669.08,93.00 L 666.19,87.32 L 667.90,87.26 L 670.48,89.23 L 669.94,90.67 L 672.15,91.61 L 673.60,93.23 L 673.06,93.88 L 674.64,95.45 L 674.42,96.20 L 669.08,93.00 Z M 628.83,87.40 L 627.42,86.41 L 628.27,86.48 L 628.83,87.40 Z M 629.05,86.93 L 628.24,86.17 L 629.21,86.36 L 629.05,86.93 Z M 625.28,85.56 L 625.46,85.86 L 624.86,85.67 L 625.28,85.56 Z M 636.04,89.33 L 633.44,88.08 L 633.30,87.31 L 634.03,87.75 L 633.13,86.88 L 629.65,87.26 L 629.62,86.58 L 631.96,84.94 L 633.74,85.13 L 634.11,86.74 L 635.26,86.65 L 636.26,87.40 L 637.00,88.46 L 636.78,89.09 L 635.82,88.95 L 636.04,89.33 Z M 622.71,86.45 L 622.30,84.67 L 622.60,84.85 L 622.71,86.45 Z M 626.61,84.94 L 628.17,84.06 L 629.36,85.09 L 628.99,86.01 L 626.61,84.94 Z M 623.49,84.67 L 621.81,82.54 L 622.97,82.12 L 625.09,83.16 L 623.49,84.67 Z M 611.98,80.84 L 611.02,80.79 L 611.39,80.43 L 611.98,80.84 Z M 614.73,78.90 L 612.80,78.83 L 613.47,77.98 L 614.73,78.90 Z M 618.00,77.74 L 616.81,78.08 L 617.29,77.54 L 616.85,77.19 L 617.18,76.94 L 618.00,77.74 Z M 735.34,110.57 L 733.82,110.59 L 732.99,109.93 L 735.34,110.57 Z M 730.19,107.82 L 729.88,107.39 L 730.54,107.17 L 730.19,107.82 Z M 723.19,104.79 L 722.04,104.40 L 723.36,103.33 L 726.28,103.59 L 723.19,104.79 Z M 643.69,82.73 L 641.45,82.19 L 642.12,82.08 L 643.69,82.73 Z M 658.46,88.95 L 655.64,87.54 L 648.28,85.42 L 644.35,83.39 L 642.91,81.87 L 646.16,82.29 L 649.78,84.42 L 653.21,84.96 L 657.97,87.32 L 657.05,87.77 L 658.46,88.95 Z M 640.89,81.57 L 640.92,81.42 L 642.72,81.84 L 640.89,81.57 Z M 633.89,81.32 L 632.33,81.04 L 632.70,80.90 L 633.89,81.32 Z M 640.71,81.46 L 640.12,81.22 L 640.72,80.93 L 640.71,81.46 Z M 635.82,81.46 L 634.53,81.29 L 635.00,80.85 L 635.82,81.46 Z M 632.03,81.18 L 627.34,80.15 L 621.34,76.38 L 621.27,75.68 L 622.28,75.54 L 627.64,77.51 L 629.21,79.44 L 632.92,80.50 L 632.03,81.18 Z M 755.30,114.50 L 755.04,114.56 L 754.99,114.50 L 755.30,114.50 Z M 721.68,101.66 L 721.78,101.50 L 722.03,101.62 L 721.68,101.66 Z M 666.70,84.58 L 666.26,84.32 L 666.57,84.33 L 666.70,84.58 Z M 735.30,110.08 L 734.93,110.18 L 734.91,109.99 L 735.30,110.08 Z M 727.25,100.96 L 727.27,100.30 L 727.31,100.67 L 727.25,100.96 Z M 622.36,83.83 L 621.95,83.83 L 622.04,83.70 L 622.36,83.83 Z" fill="#E8E0D0" stroke="#B8B0A0" stroke-width="0.5"/>
<path d="M 735.06,33.68 L 734.85,33.92 L 734.51,33.73 L 735.06,33.68 Z" fill="#E8E0D0" stroke="#B8B0A0" stroke-width="0.5"/>
<path d="M 603.54,23.79 L 603.36,23.82 L 603.33,23.77 L 603.54,23.79 Z M 602.50,23.47 L 602.62,23.48 L 602.55,23.52 L 602.50,23.47 Z M 603.26,23.51 L 603.11,23.47 L 603.18,23.42 L 603.26,23.51 Z M 604.18,4.24 L 604.34,4.16 L 604.37,4.27 L 604.18,4.24 Z M 603.26,4.18 L 603.06,4.25 L 603.03,4.15 L 603.26,4.18 Z" fill="#E8E0D0" stroke="#B8B0A0" stroke-width="0.5"/>
<path d="M 766.63,169.17 L 765.18,168.96 L 765.37,168.51 L 766.29,168.49 L 766.63,169.17 Z M 762.62,164.27 L 761.91,165.17 L 759.55,164.02 L 759.82,163.00 L 760.83,162.81 L 762.62,164.27 Z M 760.16,160.65 L 757.05,159.80 L 757.27,158.25 L 758.83,158.15 L 760.83,160.20 L 760.16,160.65 Z M 751.59,152.55 L 749.03,152.31 L 749.70,151.93 L 749.08,151.69 L 747.99,151.84 L 749.85,150.57 L 751.26,150.66 L 752.30,151.66 L 751.59,152.55 Z M 748.94,150.50 L 749.55,150.53 L 749.03,150.66 L 748.57,150.90 L 748.94,150.50 Z M 750.02,149.76 L 750.38,150.20 L 749.97,150.14 L 750.02,149.76 Z M 750.43,147.50 L 749.85,147.53 L 750.96,147.23 L 750.43,147.50 Z M 752.13,146.19 L 752.62,146.07 L 752.82,146.19 L 752.13,146.19 Z M 747.91,143.98 L 751.56,145.54 L 751.48,145.87 L 748.43,145.63 L 747.91,143.98 Z M 749.77,143.72 L 749.55,143.46 L 750.13,143.46 L 749.77,143.72 Z M 748.76,143.07 L 749.18,142.99 L 748.99,143.44 L 748.76,143.07 Z M 746.59,142.28 L 745.41,141.64 L 748.21,140.59 L 749.92,142.15 L 746.59,142.28 Z M 743.76,143.79 L 742.25,143.44 L 740.49,143.94 L 739.58,141.37 L 737.11,140.61 L 737.52,139.29 L 739.16,139.42 L 739.82,140.64 L 743.88,142.35 L 744.07,143.27 L 744.32,142.92 L 743.76,143.79 Z M 736.48,138.00 L 736.34,137.63 L 738.05,137.58 L 737.74,138.33 L 736.48,138.00 Z M 737.60,136.85 L 737.63,137.35 L 736.70,137.21 L 737.60,136.85 Z M 749.28,139.45 L 748.56,139.99 L 747.65,137.72 L 748.02,136.35 L 749.28,139.45 Z M 744.60,136.50 L 742.81,136.26 L 744.23,135.37 L 746.38,135.11 L 744.60,136.50 Z M 736.61,132.76 L 736.56,132.68 L 737.22,132.87 L 736.61,132.76 Z M 747.55,132.59 L 748.29,135.89 L 747.77,135.89 L 747.55,132.59 Z M 732.85,137.48 L 731.36,135.82 L 730.71,130.74 L 732.78,131.93 L 733.49,134.27 L 734.65,134.24 L 735.13,132.84 L 736.41,132.68 L 735.96,133.34 L 737.08,134.05 L 738.19,136.59 L 732.85,137.48 Z M 742.05,127.60 L 741.60,128.36 L 739.86,128.40 L 739.93,127.64 L 741.09,127.27 L 742.05,127.60 Z M 739.75,124.77 L 740.81,124.30 L 741.91,125.32 L 740.42,125.74 L 739.75,124.77 Z M 743.24,124.02 L 742.40,124.20 L 742.77,123.80 L 743.24,124.02 Z M 739.53,122.99 L 739.51,123.16 L 738.93,123.22 L 739.53,122.99 Z M 731.31,120.91 L 731.66,121.01 L 731.32,121.27 L 731.31,120.91 Z M 730.42,120.60 L 730.32,119.88 L 730.76,119.97 L 730.42,120.60 Z M 731.82,122.29 L 731.98,122.23 L 732.14,122.34 L 731.82,122.29 Z" fill="#E8E0D0" stroke="#B8B0A0" stroke-width="0.5"/>
<path d="M 347.49,9.10 L 347.59,9.18 L 347.00,9.38 L 347.49,9.10 Z M 354.31,9.79 L 354.12,9.86 L 353.91,9.76 L 354.31,9.79 Z" fill="#E8E0D0" stroke="#B8B0A0" stroke-width="0.5"/>
<path d="M 598.89,174.59 L 598.92,174.59 L 598.92,174.60 L 598.89,174.59 Z" fill="#E8E0D0" stroke="#B8B0A0" stroke-width="0.5"/>
<path d="M 265.31,115.57 L 265.07,115.56 L 265.07,115.49 L 265.31,115.57 Z" fill="#E8E0D0" stroke="#B8B0A0" stroke-width="0.5"/>
<path d="M 346.97,246.35 L 343.23,247.27 L 336.37,247.03 L 326.01,247.60 L 305.30,251.84 L 291.42,251.84 L 278.70,255.92 L 271.85,257.09 L 269.15,260.73 L 264.54,263.28 L 262.99,262.95 L 260.51,263.76 L 259.09,262.74 L 254.58,262.98 L 254.07,263.42 L 251.79,263.12 L 250.80,263.85 L 249.03,263.83 L 248.06,262.47 L 245.77,262.99 L 240.78,262.43 L 232.43,262.96 L 230.61,263.52 L 226.36,263.19 L 221.70,264.67 L 220.59,265.85 L 221.56,266.33 L 219.93,266.24 L 219.45,267.10 L 218.77,266.76 L 217.99,267.35 L 213.77,266.81 L 214.28,267.14 L 212.55,267.53 L 212.52,268.07 L 209.46,268.78 L 208.98,269.89 L 206.41,270.19 L 206.83,270.68 L 202.89,270.78 L 204.68,271.17 L 204.11,271.37 L 201.25,270.89 L 200.55,271.52 L 195.91,270.62 L 195.36,271.00 L 189.91,270.91 L 187.28,270.22 L 188.46,270.15 L 187.20,269.59 L 187.08,270.00 L 182.77,269.44 L 178.80,266.76 L 175.32,265.77 L 173.45,266.19 L 172.28,265.38 L 172.04,260.41 L 174.28,261.26 L 176.15,261.17 L 179.86,258.69 L 178.68,254.50 L 179.76,253.48 L 179.10,254.47 L 179.90,255.32 L 179.30,254.28 L 180.50,254.10 L 179.47,251.84 L 180.37,251.23 L 179.98,248.40 L 172.83,239.81 L 171.55,236.43 L 171.94,232.65 L 170.46,230.09 L 167.87,228.24 L 167.09,226.07 L 163.13,223.21 L 162.39,221.54 L 162.89,220.33 L 161.47,217.78 L 152.20,209.78 L 153.49,210.35 L 153.82,208.72 L 154.05,210.63 L 154.66,211.37 L 154.43,208.83 L 155.77,212.04 L 156.39,210.71 L 156.63,212.62 L 157.27,211.76 L 157.75,213.22 L 159.93,212.33 L 160.09,211.09 L 156.75,209.35 L 155.06,206.87 L 156.08,205.37 L 158.70,207.95 L 158.39,210.09 L 159.69,209.58 L 159.76,208.36 L 161.57,211.42 L 162.46,211.82 L 163.87,210.91 L 163.35,208.59 L 164.24,208.67 L 164.13,207.65 L 163.02,207.30 L 159.19,203.05 L 158.00,202.59 L 157.05,200.00 L 154.74,197.84 L 155.48,194.38 L 158.83,191.27 L 159.25,187.65 L 157.64,186.26 L 157.51,185.23 L 160.76,180.93 L 163.20,179.91 L 162.17,182.47 L 162.52,183.53 L 163.19,183.44 L 162.53,184.54 L 164.99,184.65 L 166.73,182.38 L 166.70,181.29 L 167.30,181.55 L 168.34,180.18 L 177.35,177.83 L 182.31,174.80 L 184.64,174.18 L 185.13,173.34 L 187.89,173.12 L 191.57,171.20 L 192.27,172.41 L 195.50,171.62 L 197.67,172.52 L 201.81,172.04 L 206.30,169.97 L 213.40,169.45 L 216.54,167.29 L 221.89,167.97 L 223.46,167.26 L 230.33,166.61 L 238.56,164.23 L 242.80,161.13 L 244.13,159.35 L 243.81,158.68 L 245.50,158.30 L 245.09,157.77 L 245.96,156.96 L 247.03,156.97 L 251.76,154.61 L 251.73,153.66 L 249.84,153.63 L 249.87,148.71 L 253.13,146.36 L 254.45,146.71 L 253.70,145.96 L 254.31,145.40 L 256.90,145.40 L 256.22,144.19 L 257.93,142.90 L 259.06,142.67 L 259.42,143.27 L 258.40,144.03 L 259.30,144.80 L 260.27,144.76 L 260.39,146.32 L 265.02,151.00 L 265.82,148.18 L 265.28,146.81 L 268.73,148.39 L 267.44,146.91 L 268.19,147.09 L 267.95,146.54 L 269.16,145.73 L 267.42,146.16 L 266.51,145.14 L 264.36,144.53 L 265.44,143.79 L 263.43,143.42 L 265.81,143.65 L 264.32,142.84 L 266.55,142.99 L 265.68,142.55 L 266.55,142.33 L 264.68,141.86 L 265.01,141.26 L 267.58,141.35 L 266.77,141.82 L 268.18,142.29 L 268.19,142.99 L 268.50,142.37 L 269.59,142.64 L 268.70,141.54 L 271.04,141.91 L 272.08,142.76 L 273.85,142.45 L 274.80,142.74 L 278.77,142.97 L 279.46,142.81 L 274.02,142.30 L 274.38,140.44 L 275.31,141.25 L 276.13,140.83 L 276.28,139.35 L 277.61,138.71 L 276.28,138.71 L 274.94,140.03 L 274.42,138.85 L 274.05,139.18 L 273.75,136.78 L 276.49,136.64 L 276.60,136.03 L 277.07,136.43 L 277.61,135.63 L 276.92,135.59 L 276.86,134.89 L 279.64,135.65 L 280.28,136.45 L 282.51,136.73 L 281.29,136.05 L 282.07,135.32 L 279.26,135.21 L 281.10,134.29 L 279.09,134.89 L 278.79,134.14 L 280.73,133.86 L 280.51,132.97 L 281.29,132.96 L 282.29,134.29 L 282.08,133.36 L 282.29,133.25 L 283.63,134.14 L 285.18,134.12 L 284.47,133.52 L 285.16,133.23 L 282.53,132.80 L 283.85,132.38 L 281.98,131.36 L 283.77,130.66 L 283.03,130.52 L 284.27,129.73 L 284.22,130.47 L 284.74,130.01 L 285.26,130.69 L 285.85,129.67 L 286.89,130.05 L 287.20,127.84 L 288.45,128.16 L 287.63,128.59 L 287.41,130.66 L 288.44,129.04 L 288.45,129.53 L 289.71,129.45 L 289.53,130.32 L 290.45,130.68 L 290.53,129.86 L 291.78,129.80 L 291.12,128.92 L 292.91,127.64 L 292.79,126.95 L 291.04,126.45 L 292.38,126.47 L 291.52,125.77 L 292.27,125.54 L 292.98,125.77 L 292.54,126.42 L 293.73,126.00 L 293.13,126.89 L 294.47,127.88 L 294.90,126.71 L 297.05,125.81 L 296.25,126.83 L 297.05,126.80 L 297.88,127.88 L 298.40,126.76 L 298.84,127.13 L 299.29,126.80 L 299.00,126.19 L 300.62,125.95 L 299.43,124.87 L 300.47,125.06 L 300.69,124.54 L 302.39,124.77 L 303.58,126.08 L 303.96,125.48 L 304.30,125.95 L 304.74,125.56 L 306.70,125.90 L 312.43,130.24 L 315.51,131.24 L 314.28,132.17 L 313.27,136.58 L 314.10,136.09 L 314.36,134.42 L 316.14,135.93 L 315.13,133.56 L 316.40,132.52 L 316.80,133.43 L 316.96,133.06 L 317.53,133.44 L 317.88,133.46 L 317.76,132.14 L 317.21,131.82 L 318.77,131.47 L 324.95,132.52 L 325.83,133.05 L 325.49,134.71 L 326.24,134.34 L 326.16,134.80 L 326.69,133.91 L 326.32,132.05 L 329.00,132.72 L 330.18,134.34 L 331.71,134.50 L 330.47,132.78 L 330.87,132.02 L 334.48,131.84 L 334.60,131.28 L 332.10,131.93 L 332.47,131.55 L 331.55,131.69 L 330.21,130.52 L 331.61,130.40 L 332.39,129.95 L 329.64,130.05 L 327.72,129.11 L 327.88,128.56 L 329.06,126.66 L 330.18,126.94 L 330.40,126.28 L 331.81,126.25 L 331.59,125.39 L 332.68,124.67 L 333.49,122.44 L 334.33,123.08 L 337.42,121.66 L 338.27,121.81 L 336.00,120.56 L 336.08,119.02 L 338.12,118.79 L 338.51,117.18 L 340.26,117.06 L 340.16,116.66 L 341.02,117.43 L 342.18,117.38 L 340.74,116.88 L 341.36,116.71 L 340.94,115.32 L 343.16,115.55 L 343.23,116.58 L 343.46,116.25 L 344.42,116.96 L 345.16,116.87 L 344.14,116.09 L 345.16,116.25 L 343.61,115.32 L 344.50,114.84 L 346.06,115.13 L 345.79,113.57 L 348.29,114.19 L 348.71,112.86 L 350.36,114.55 L 355.22,114.05 L 356.97,114.67 L 359.06,113.64 L 359.35,114.13 L 360.45,114.05 L 360.54,115.17 L 361.10,113.63 L 362.45,113.19 L 363.70,113.50 L 364.55,113.48 L 363.21,113.02 L 362.76,111.08 L 363.87,110.18 L 361.71,108.96 L 360.35,108.68 L 357.49,109.29 L 356.08,108.11 L 353.82,107.83 L 355.07,106.87 L 356.16,107.25 L 356.18,106.58 L 357.58,107.13 L 358.23,108.48 L 358.89,108.02 L 357.94,106.64 L 359.43,107.54 L 360.05,106.53 L 360.43,107.64 L 361.48,107.30 L 363.64,109.18 L 366.03,108.57 L 366.21,107.97 L 368.98,110.53 L 372.94,110.84 L 372.94,111.64 L 377.09,110.65 L 376.31,111.57 L 377.39,111.97 L 378.61,111.50 L 378.95,112.07 L 379.50,111.73 L 380.02,113.09 L 381.09,112.34 L 384.44,113.00 L 386.33,112.20 L 387.33,113.43 L 391.20,114.63 L 390.68,114.13 L 392.50,114.25 L 391.25,113.88 L 392.81,113.16 L 395.21,113.24 L 396.55,112.69 L 395.13,112.96 L 395.26,112.32 L 397.24,112.01 L 398.59,110.91 L 398.63,111.53 L 396.61,112.58 L 398.77,112.34 L 395.90,113.96 L 396.77,114.70 L 400.25,113.00 L 398.97,114.03 L 400.33,114.16 L 399.51,115.06 L 400.04,115.76 L 402.76,115.42 L 403.61,114.09 L 401.59,113.74 L 404.56,112.17 L 405.87,111.85 L 404.77,112.47 L 406.86,114.37 L 407.75,114.39 L 407.03,113.97 L 407.92,113.69 L 410.33,114.94 L 408.03,116.28 L 408.40,115.70 L 407.69,115.83 L 407.92,116.51 L 407.15,117.46 L 406.26,117.47 L 406.29,118.27 L 405.73,117.68 L 404.78,117.88 L 406.80,119.40 L 405.05,119.26 L 405.82,119.83 L 404.79,121.10 L 403.16,121.55 L 403.88,120.98 L 403.28,119.75 L 403.01,120.55 L 402.37,120.32 L 401.39,121.24 L 401.27,120.27 L 400.25,121.57 L 399.76,120.91 L 398.41,121.67 L 399.34,122.36 L 398.10,122.56 L 398.45,124.33 L 400.52,123.98 L 398.84,126.02 L 398.69,127.64 L 397.06,128.12 L 394.50,130.78 L 392.83,131.27 L 393.93,132.81 L 402.11,135.98 L 402.63,137.02 L 406.12,138.06 L 407.43,139.60 L 409.70,139.59 L 410.42,139.11 L 414.42,140.88 L 418.59,141.77 L 423.34,144.83 L 432.26,146.19 L 433.89,147.14 L 433.95,148.31 L 435.14,149.30 L 443.00,151.76 L 448.68,151.24 L 452.16,149.94 L 453.27,147.04 L 456.00,144.87 L 458.51,140.47 L 457.93,139.56 L 458.61,137.63 L 461.05,133.25 L 459.49,129.63 L 460.33,127.09 L 458.91,125.38 L 461.36,121.15 L 460.17,119.33 L 462.61,117.15 L 464.01,118.80 L 463.65,117.76 L 464.77,117.47 L 462.76,117.06 L 464.39,116.58 L 462.48,116.55 L 461.36,116.02 L 461.91,115.69 L 460.98,115.64 L 461.42,116.30 L 460.24,116.28 L 461.61,114.16 L 462.61,114.19 L 462.00,113.99 L 462.85,112.60 L 463.74,112.25 L 463.80,113.29 L 465.03,112.84 L 464.11,111.85 L 466.10,108.02 L 466.31,105.35 L 468.18,105.02 L 470.59,103.55 L 471.35,103.99 L 470.11,105.33 L 471.08,104.76 L 471.89,105.71 L 472.71,105.52 L 474.12,108.32 L 474.02,111.44 L 475.42,112.11 L 478.21,112.34 L 476.44,113.59 L 476.34,114.82 L 478.25,115.23 L 478.70,116.24 L 480.21,116.77 L 479.40,118.61 L 481.40,118.28 L 480.96,119.95 L 481.99,123.03 L 481.25,124.59 L 482.95,126.40 L 483.99,129.07 L 485.70,129.81 L 488.09,128.87 L 488.52,128.02 L 489.63,128.45 L 491.61,127.41 L 492.63,128.80 L 493.20,128.64 L 493.68,130.12 L 496.10,130.52 L 497.51,131.84 L 499.59,132.02 L 500.92,132.78 L 499.73,134.31 L 500.96,134.89 L 499.82,136.11 L 502.19,140.46 L 501.51,143.09 L 505.00,145.54 L 505.56,146.83 L 506.27,146.10 L 507.52,146.04 L 506.73,147.32 L 509.61,151.26 L 508.12,155.41 L 510.00,156.39 L 510.28,157.31 L 511.69,157.40 L 510.94,159.63 L 511.62,160.37 L 517.82,162.74 L 519.10,161.87 L 520.29,163.47 L 523.41,163.49 L 523.20,162.74 L 526.26,166.34 L 527.35,166.39 L 526.98,165.40 L 527.77,165.56 L 528.91,166.82 L 532.69,167.29 L 532.55,168.09 L 534.03,168.88 L 534.70,168.79 L 534.49,167.95 L 535.74,167.88 L 536.29,168.99 L 536.70,168.65 L 537.08,169.40 L 538.15,169.17 L 539.83,171.20 L 537.27,170.54 L 536.83,171.45 L 538.82,172.86 L 538.64,173.64 L 541.12,173.69 L 540.80,174.23 L 543.02,175.01 L 542.64,175.90 L 544.21,177.31 L 543.68,177.90 L 544.79,177.85 L 545.16,178.40 L 545.79,178.07 L 545.23,179.82 L 546.88,183.20 L 548.07,183.63 L 547.70,184.65 L 549.32,183.86 L 551.85,185.69 L 550.52,183.31 L 551.92,182.23 L 553.45,183.86 L 557.94,185.45 L 557.23,183.78 L 558.04,183.56 L 558.54,184.14 L 558.68,183.72 L 559.58,184.49 L 558.68,185.13 L 559.27,185.58 L 559.72,184.90 L 560.30,186.05 L 559.32,187.67 L 560.90,191.49 L 560.16,191.63 L 562.30,192.02 L 564.21,193.65 L 568.14,195.63 L 569.67,195.68 L 569.13,194.85 L 569.99,195.40 L 570.63,195.15 L 574.34,199.06 L 578.10,200.53 L 579.91,202.97 L 579.16,203.10 L 582.91,203.85 L 582.44,205.14 L 583.44,204.87 L 583.48,205.29 L 582.59,206.50 L 584.08,207.54 L 584.08,208.53 L 584.51,207.49 L 585.16,208.28 L 586.07,208.29 L 584.65,210.91 L 586.12,216.14 L 584.26,216.94 L 585.12,216.96 L 584.55,217.74 L 588.67,221.05 L 588.18,222.16 L 590.03,223.81 L 590.68,227.02 L 590.41,228.44 L 587.64,231.28 L 587.04,235.03 L 584.09,240.17 L 584.49,243.62 L 581.11,248.88 L 578.93,250.26 L 578.86,253.00 L 576.20,253.80 L 575.39,254.75 L 573.67,254.75 L 575.02,255.23 L 570.84,256.10 L 568.34,258.84 L 567.09,258.92 L 567.64,259.30 L 566.77,260.45 L 564.68,260.50 L 564.62,261.01 L 565.87,261.07 L 564.85,262.71 L 565.23,263.37 L 563.21,263.80 L 564.68,263.98 L 561.84,265.50 L 561.30,267.04 L 560.02,267.46 L 561.28,267.84 L 559.22,269.70 L 560.50,271.10 L 558.88,270.75 L 559.57,271.80 L 557.35,272.04 L 554.50,275.53 L 553.41,275.56 L 553.93,276.29 L 552.23,278.01 L 552.90,278.22 L 552.89,279.64 L 550.37,283.66 L 550.71,284.73 L 550.00,284.97 L 551.92,286.15 L 550.81,286.26 L 551.19,287.71 L 548.29,287.85 L 548.81,288.32 L 547.86,289.05 L 545.83,289.69 L 533.00,289.96 L 527.05,291.08 L 517.19,295.88 L 510.44,296.09 L 509.99,296.37 L 511.11,297.43 L 513.17,296.75 L 513.25,298.49 L 512.28,299.04 L 509.98,297.14 L 509.00,296.81 L 507.16,297.41 L 505.38,295.71 L 506.42,295.99 L 505.94,295.64 L 503.67,295.85 L 501.22,294.87 L 501.73,294.11 L 503.21,293.82 L 502.21,292.79 L 499.95,292.84 L 499.66,294.02 L 496.58,294.68 L 493.67,293.47 L 496.99,293.52 L 498.47,292.27 L 496.47,290.27 L 491.94,291.94 L 490.38,291.99 L 493.98,292.18 L 493.41,293.14 L 490.70,293.25 L 481.33,297.07 L 473.45,295.15 L 470.12,293.75 L 466.58,293.92 L 462.10,292.98 L 459.89,294.20 L 458.12,293.94 L 458.08,293.28 L 455.30,292.05 L 450.49,291.65 L 447.32,290.63 L 444.25,287.86 L 442.88,287.65 L 440.79,286.15 L 439.45,283.99 L 441.30,283.25 L 441.46,281.80 L 440.07,280.00 L 437.12,277.15 L 431.28,274.53 L 437.02,276.94 L 439.45,279.00 L 437.32,276.73 L 432.62,274.72 L 433.86,274.03 L 434.71,274.33 L 434.66,275.30 L 435.84,275.29 L 436.03,274.64 L 434.55,274.05 L 436.09,273.93 L 436.11,273.16 L 434.10,272.73 L 431.75,273.41 L 432.51,274.12 L 429.94,273.89 L 432.10,274.33 L 429.42,274.27 L 427.10,275.01 L 422.50,274.83 L 426.09,272.92 L 426.69,269.14 L 427.31,269.07 L 422.19,264.58 L 420.17,267.31 L 418.63,271.47 L 417.78,271.81 L 415.12,271.38 L 412.34,272.23 L 408.77,272.33 L 410.72,269.89 L 415.34,270.00 L 416.06,267.94 L 415.69,266.90 L 415.00,266.94 L 415.75,266.14 L 415.41,264.77 L 416.45,264.30 L 417.03,262.85 L 420.59,261.06 L 419.29,258.61 L 421.78,257.39 L 418.89,253.53 L 418.94,256.71 L 417.35,256.56 L 415.41,257.79 L 412.94,261.32 L 410.73,261.84 L 409.92,261.52 L 409.24,262.01 L 410.12,262.00 L 406.25,263.03 L 400.92,266.33 L 400.77,267.37 L 400.42,267.01 L 398.99,267.37 L 398.41,268.98 L 397.50,269.23 L 399.85,268.81 L 399.29,270.62 L 397.32,269.59 L 395.69,270.24 L 391.96,267.77 L 390.01,267.79 L 391.11,266.66 L 392.86,268.01 L 394.30,267.90 L 393.06,267.61 L 390.90,262.96 L 387.12,261.17 L 387.33,260.12 L 385.34,258.43 L 385.66,258.02 L 384.31,257.83 L 384.81,258.52 L 383.18,257.91 L 381.62,258.24 L 379.62,257.02 L 380.07,256.46 L 378.75,256.34 L 379.44,255.70 L 378.81,254.86 L 380.35,254.94 L 380.32,255.50 L 381.23,254.62 L 379.61,253.10 L 376.54,253.72 L 376.59,252.93 L 377.46,252.63 L 374.21,250.66 L 370.11,251.46 L 364.75,249.62 L 358.87,250.19 L 351.31,247.25 L 346.97,246.35 Z M 315.11,134.04 L 315.03,134.48 L 314.43,133.43 L 315.11,134.04 Z M 317.78,133.44 L 316.84,132.27 L 317.17,132.43 L 317.78,133.44 Z M 330.47,132.26 L 330.15,131.82 L 330.52,131.97 L 330.47,132.26 Z M 330.20,132.37 L 330.25,132.92 L 329.28,131.79 L 330.20,132.37 Z M 297.34,125.44 L 297.95,125.62 L 296.92,125.65 L 297.34,125.44 Z M 388.04,113.03 L 387.84,113.37 L 387.26,112.82 L 388.04,113.03 Z M 388.28,112.94 L 387.85,112.72 L 388.37,112.68 L 388.28,112.94 Z M 389.46,112.24 L 389.34,112.16 L 389.42,112.01 L 390.16,112.08 L 389.46,112.24 Z M 372.42,109.83 L 371.07,110.23 L 371.07,109.93 L 372.42,109.83 Z M 372.71,109.15 L 371.45,109.43 L 371.45,109.05 L 372.71,109.15 Z M 528.41,326.43 L 527.43,327.20 L 526.43,326.64 L 526.95,326.25 L 525.64,325.82 L 526.35,325.09 L 527.11,325.78 L 528.45,325.76 L 527.95,324.85 L 524.62,324.40 L 524.90,325.37 L 523.57,325.84 L 524.01,324.90 L 521.92,324.00 L 522.75,325.01 L 522.45,325.82 L 521.60,325.71 L 521.63,327.27 L 520.62,327.38 L 520.00,326.59 L 519.50,326.91 L 518.55,326.43 L 519.92,327.58 L 518.44,327.86 L 519.44,327.97 L 517.99,328.48 L 519.04,328.81 L 517.78,329.18 L 518.05,329.73 L 515.71,329.85 L 514.02,328.75 L 513.57,329.19 L 510.59,328.86 L 508.27,329.32 L 507.39,328.03 L 509.76,328.38 L 510.50,327.72 L 508.28,327.76 L 507.11,326.87 L 506.59,327.40 L 507.21,327.51 L 506.19,327.54 L 500.05,322.81 L 499.22,320.00 L 501.89,321.26 L 502.29,322.18 L 503.22,321.00 L 502.19,320.90 L 500.92,319.67 L 499.66,320.00 L 499.41,318.43 L 496.31,316.62 L 494.47,314.63 L 492.91,311.76 L 493.97,310.90 L 493.91,309.45 L 498.46,310.56 L 500.09,309.86 L 500.78,310.67 L 502.85,310.73 L 505.95,311.97 L 514.35,313.02 L 516.07,312.24 L 516.76,312.86 L 518.30,312.89 L 516.89,312.30 L 519.03,311.63 L 522.56,311.39 L 523.66,311.84 L 525.89,310.61 L 528.05,311.02 L 529.51,309.98 L 531.94,310.69 L 533.27,311.80 L 532.63,312.10 L 533.16,313.63 L 532.47,314.17 L 533.51,313.79 L 532.50,317.29 L 533.62,320.06 L 533.16,320.57 L 532.47,320.33 L 533.14,319.48 L 531.44,319.06 L 532.30,318.71 L 531.64,318.30 L 531.10,319.08 L 532.03,319.30 L 530.68,319.35 L 529.29,320.99 L 530.01,320.94 L 529.74,322.19 L 528.47,322.40 L 529.17,323.60 L 527.99,324.61 L 529.73,324.90 L 529.13,326.03 L 529.66,327.11 L 528.41,326.43 Z M 648.44,404.32 L 647.09,406.25 L 647.25,405.31 L 648.44,404.32 Z M 522.14,329.02 L 521.18,328.38 L 520.66,328.97 L 519.78,328.48 L 520.78,328.65 L 520.66,328.06 L 522.14,327.33 L 522.14,329.02 Z M 523.58,327.17 L 522.75,327.30 L 523.05,326.87 L 522.00,326.58 L 522.74,326.04 L 523.58,327.17 Z M 531.58,323.11 L 529.80,323.82 L 529.94,322.87 L 531.58,323.11 Z M 533.37,321.09 L 532.18,320.71 L 532.55,320.69 L 533.37,321.09 Z M 497.88,309.79 L 495.80,309.84 L 496.42,309.14 L 497.88,309.79 Z M 531.10,308.45 L 532.40,308.28 L 531.78,309.01 L 531.10,308.45 Z M 494.91,308.37 L 494.39,308.99 L 494.02,308.28 L 494.91,307.81 L 494.91,308.37 Z M 495.35,307.86 L 496.75,307.65 L 496.64,308.03 L 495.35,307.86 Z M 534.93,307.86 L 533.37,308.38 L 533.22,307.91 L 529.66,307.79 L 533.18,307.01 L 534.93,307.86 Z M 528.43,305.13 L 528.39,304.20 L 527.05,304.09 L 529.17,302.94 L 531.49,304.48 L 532.92,304.66 L 532.10,305.79 L 532.92,305.60 L 533.22,306.45 L 531.02,306.78 L 528.43,305.13 Z M 487.56,305.13 L 485.29,305.78 L 484.58,304.36 L 485.74,302.02 L 487.53,302.62 L 487.56,305.13 Z M 513.85,296.65 L 513.12,296.31 L 514.53,296.31 L 513.85,296.65 Z M 501.09,294.95 L 501.00,295.10 L 498.40,294.82 L 500.20,294.28 L 501.09,294.95 Z M 502.53,293.69 L 500.25,293.94 L 500.40,293.21 L 502.53,293.69 Z M 421.86,276.88 L 419.41,276.50 L 417.32,276.82 L 417.03,277.62 L 415.48,278.01 L 412.98,277.30 L 407.43,277.87 L 405.44,276.83 L 406.15,275.77 L 414.14,274.57 L 417.26,274.57 L 416.80,275.56 L 418.94,275.65 L 419.31,276.14 L 420.64,275.56 L 422.75,276.18 L 421.86,276.88 Z M 404.83,271.56 L 405.07,271.75 L 404.52,271.73 L 404.83,271.56 Z M 401.85,271.09 L 400.61,270.21 L 401.05,270.21 L 401.85,271.09 Z M 414.56,267.12 L 414.35,267.39 L 414.15,267.24 L 414.56,267.12 Z M 383.97,261.87 L 383.20,262.21 L 383.27,261.72 L 383.97,261.87 Z M 373.45,251.74 L 374.49,251.60 L 373.89,251.74 L 373.30,252.17 L 373.45,251.74 Z M 649.59,246.67 L 650.00,246.99 L 649.82,247.14 L 649.59,246.67 Z M 589.79,218.46 L 588.21,220.60 L 588.16,219.00 L 588.55,218.31 L 589.79,218.46 Z M 587.75,216.06 L 588.73,215.73 L 588.49,218.04 L 587.75,216.06 Z M 152.74,209.70 L 150.00,207.18 L 150.06,205.18 L 151.75,208.49 L 152.74,209.70 Z M 583.91,204.12 L 583.78,204.19 L 583.34,203.78 L 583.91,204.12 Z M 151.36,202.30 L 151.77,201.93 L 151.25,203.77 L 151.36,202.30 Z M 151.77,201.84 L 152.15,200.19 L 151.96,201.13 L 151.77,201.84 Z M 584.93,207.08 L 584.44,207.35 L 583.26,205.87 L 584.59,204.13 L 584.00,203.32 L 586.29,202.06 L 586.44,201.27 L 585.33,200.61 L 586.89,199.76 L 587.85,201.79 L 584.93,207.08 Z M 566.33,194.17 L 565.74,193.65 L 565.79,193.28 L 566.33,194.17 Z M 565.40,193.27 L 564.49,193.48 L 561.96,191.48 L 564.77,191.49 L 565.40,193.27 Z M 548.81,183.77 L 548.36,184.28 L 548.21,183.91 L 548.81,183.77 Z M 557.37,183.36 L 556.57,183.63 L 556.53,182.75 L 557.37,183.36 Z M 550.57,182.36 L 550.14,182.82 L 549.93,182.24 L 550.44,181.55 L 550.57,182.36 Z M 555.04,179.48 L 555.34,179.38 L 555.06,179.69 L 555.04,179.48 Z M 554.01,179.05 L 554.01,178.67 L 554.65,178.92 L 554.01,179.05 Z M 176.59,173.39 L 175.49,173.50 L 176.81,172.12 L 176.59,173.39 Z M 541.76,170.82 L 541.09,171.15 L 540.94,170.96 L 541.53,170.39 L 541.76,170.82 Z M 539.72,169.49 L 540.35,168.56 L 540.55,169.10 L 541.24,169.69 L 539.72,169.49 Z M 539.23,168.47 L 540.12,167.81 L 540.30,167.91 L 540.05,168.51 L 539.23,168.47 Z M 534.89,167.55 L 534.77,167.85 L 534.56,167.81 L 534.89,167.55 Z M 516.89,161.85 L 516.46,161.56 L 517.03,161.35 L 516.89,161.85 Z M 511.38,157.07 L 510.43,156.98 L 510.17,156.36 L 509.06,155.47 L 511.28,155.41 L 511.38,157.07 Z M 438.34,147.60 L 436.78,147.89 L 437.52,146.81 L 438.34,147.60 Z M 433.62,145.63 L 433.89,145.73 L 433.34,145.97 L 433.62,145.63 Z M 439.84,143.66 L 437.45,143.60 L 436.99,144.61 L 435.45,145.02 L 434.10,144.59 L 433.74,145.24 L 433.95,144.28 L 435.29,143.27 L 438.49,142.76 L 440.13,143.09 L 439.84,143.66 Z M 407.39,138.00 L 406.86,138.52 L 406.34,138.08 L 407.39,138.00 Z M 408.72,137.86 L 407.60,138.29 L 407.60,137.63 L 408.72,137.86 Z M 411.30,138.99 L 409.80,138.13 L 410.45,137.24 L 411.41,137.65 L 411.30,138.99 Z M 406.04,137.54 L 405.07,137.48 L 405.36,136.84 L 406.34,136.87 L 406.04,137.54 Z M 408.87,137.54 L 408.79,136.97 L 409.24,136.59 L 408.87,137.54 Z M 274.35,135.29 L 273.31,135.23 L 274.09,135.04 L 274.35,135.29 Z M 276.71,135.89 L 275.43,136.20 L 275.98,135.74 L 274.64,135.65 L 275.83,134.85 L 276.71,135.89 Z M 279.71,133.37 L 279.03,132.98 L 279.69,132.73 L 279.71,133.37 Z M 397.10,132.49 L 396.28,132.50 L 396.72,132.03 L 397.10,132.49 Z M 282.72,130.38 L 281.99,130.75 L 281.55,130.07 L 282.62,129.53 L 282.72,130.38 Z M 408.45,124.98 L 408.54,124.94 L 408.47,124.99 L 408.45,124.98 Z M 402.23,125.25 L 401.59,124.68 L 400.94,125.04 L 401.79,124.03 L 402.78,124.28 L 402.23,125.25 Z M 409.46,128.36 L 403.18,127.88 L 404.41,127.13 L 404.11,125.06 L 406.12,125.01 L 405.87,124.15 L 407.45,123.88 L 407.60,125.20 L 408.49,125.27 L 409.46,124.64 L 407.31,127.17 L 407.65,127.60 L 409.98,127.55 L 409.46,128.36 Z M 400.70,121.91 L 401.87,122.60 L 401.22,123.28 L 400.70,121.91 Z M 408.66,113.47 L 408.57,113.51 L 408.31,113.31 L 408.66,113.47 Z M 360.80,113.14 L 360.73,113.48 L 360.02,113.24 L 360.80,113.14 Z M 402.59,112.83 L 401.07,112.96 L 401.07,112.68 L 402.82,112.39 L 402.59,112.83 Z M 404.85,111.29 L 405.07,111.18 L 404.91,111.80 L 404.85,111.29 Z M 405.97,111.18 L 405.30,111.12 L 405.40,111.03 L 406.23,110.82 L 405.97,111.18 Z M 399.47,110.24 L 400.27,110.16 L 399.74,110.56 L 399.47,110.24 Z M 362.66,110.64 L 361.85,110.15 L 362.24,110.03 L 363.05,110.13 L 362.66,110.64 Z M 404.85,108.86 L 403.74,109.76 L 401.59,110.42 L 404.85,108.86 Z M 341.48,111.22 L 334.85,111.03 L 335.45,110.30 L 336.68,110.34 L 336.26,109.05 L 338.41,107.87 L 339.53,110.51 L 341.48,111.22 Z M 350.64,109.82 L 349.69,109.66 L 348.68,110.67 L 345.08,112.11 L 340.05,110.15 L 338.65,107.10 L 339.01,106.74 L 341.03,107.66 L 340.81,108.40 L 341.80,107.97 L 342.21,108.68 L 344.65,107.82 L 345.76,108.53 L 347.16,107.40 L 347.88,108.44 L 347.73,107.39 L 348.48,106.99 L 348.77,107.60 L 350.14,107.41 L 351.33,108.53 L 350.64,109.82 Z M 407.44,107.11 L 405.47,108.74 L 404.85,108.77 L 407.95,105.97 L 407.44,107.11 Z M 361.41,105.90 L 362.83,105.47 L 362.83,108.06 L 361.41,105.90 Z M 466.70,104.11 L 465.89,103.52 L 466.77,102.89 L 467.44,103.40 L 466.70,104.11 Z M 467.86,102.76 L 468.20,103.03 L 467.65,103.22 L 467.86,102.76 Z M 468.30,100.20 L 467.07,100.49 L 467.00,99.88 L 468.30,100.20 Z M 466.73,99.81 L 466.22,100.10 L 465.73,99.64 L 466.73,99.38 L 466.73,99.81 Z M 179.52,251.45 L 179.54,251.60 L 179.32,251.56 L 179.32,250.99 L 179.52,251.45 Z M 177.85,249.92 L 178.15,250.00 L 176.94,250.11 L 177.85,249.92 Z M 158.30,225.42 L 158.62,225.42 L 157.92,225.82 L 158.30,225.42 Z M 514.19,159.01 L 514.31,158.47 L 514.88,158.84 L 514.19,159.01 Z M 472.41,94.90 L 471.19,94.70 L 471.58,94.52 L 472.85,94.49 L 472.41,94.90 Z M 467.71,93.75 L 467.70,93.92 L 466.31,93.82 L 467.71,93.75 Z" fill="#4A90D9" stroke="#1a5fa8" stroke-width="1.2"/>
<path d="M 0.00,13.64 L 0.00,13.50 L 0.19,13.46 L 0.00,13.64 Z" fill="#A8C8E8" stroke="none"/>
<path d="M 459.21,79.37 L 458.30,78.92 L 459.27,78.76 L 459.28,77.67 L 457.56,77.03 L 459.27,76.90 L 459.87,78.22 L 460.61,77.86 L 459.21,79.37 Z" fill="#A8C8E8" stroke="none"/>
<path d="M 187.11,32.45 L 185.91,32.24 L 186.77,31.80 L 187.18,32.18 L 187.74,31.33 L 188.61,31.67 L 187.11,32.45 Z" fill="#A8C8E8" stroke="none"/>
<path d="M 184.61,33.58 L 184.20,32.90 L 184.37,32.78 L 185.80,32.97 L 184.61,33.58 Z" fill="#A8C8E8" stroke="none"/>
<path d="M 324.05,141.48 L 322.97,141.75 L 323.30,142.62 L 321.70,142.95 L 321.79,144.50 L 321.00,145.51 L 321.20,144.75 L 319.03,144.24 L 319.61,143.57 L 318.37,143.84 L 319.94,142.44 L 319.62,141.77 L 320.74,141.58 L 319.76,141.18 L 321.70,140.50 L 320.89,141.21 L 321.56,141.39 L 324.12,140.83 L 324.05,141.48 Z" fill="#A8C8E8" stroke="none"/>
<path d="M 541.46,262.99 L 541.04,263.72 L 540.46,263.30 L 540.15,263.64 L 540.27,263.18 L 541.46,262.99 Z" fill="#A8C8E8" stroke="none"/>
<path d="M 510.35,277.82 L 508.09,277.32 L 508.64,277.21 L 510.35,277.82 Z" fill="#A8C8E8" stroke="none"/>
<path d="M 519.90,277.94 L 519.92,278.67 L 520.97,278.95 L 519.86,279.05 L 519.47,277.26 L 521.38,277.66 L 519.90,277.94 Z" fill="#A8C8E8" stroke="none"/>
<path d="M 542.34,254.32 L 543.31,255.44 L 543.05,256.25 L 543.02,255.51 L 541.49,254.73 L 543.68,253.53 L 543.62,254.19 L 542.34,254.32 Z" fill="#A8C8E8" stroke="none"/>
<path d="M 418.77,229.17 L 417.16,229.74 L 415.81,229.40 L 413.71,226.96 L 414.06,229.81 L 412.72,227.96 L 411.64,229.38 L 410.42,229.39 L 409.48,228.66 L 409.24,227.73 L 409.98,227.61 L 409.06,225.38 L 410.41,225.22 L 410.39,224.06 L 409.28,222.56 L 408.23,222.79 L 408.28,222.19 L 411.35,221.47 L 414.73,222.37 L 416.09,223.78 L 418.22,223.35 L 417.06,223.98 L 419.03,224.72 L 418.07,225.18 L 416.95,224.61 L 418.28,226.07 L 417.15,226.07 L 417.06,226.76 L 419.50,229.44 L 421.93,229.86 L 420.97,230.09 L 418.77,229.17 Z" fill="#A8C8E8" stroke="none"/>
<path d="M 254.48,191.75 L 255.75,189.81 L 258.26,190.15 L 258.26,192.07 L 257.22,192.77 L 254.48,191.75 Z" fill="#A8C8E8" stroke="none"/>
<path d="M 316.42,185.20 L 316.45,184.07 L 317.52,184.44 L 318.38,183.50 L 320.61,183.27 L 323.15,181.50 L 326.08,181.41 L 324.17,182.72 L 324.81,183.53 L 326.47,183.96 L 325.08,184.11 L 324.95,184.96 L 322.66,185.95 L 316.42,185.20 Z" fill="#A8C8E8" stroke="none"/>
<path d="M 398.10,252.00 L 400.39,249.65 L 400.07,248.91 L 397.57,248.06 L 397.26,246.87 L 395.31,247.00 L 396.89,245.72 L 393.81,244.91 L 393.17,243.52 L 395.87,244.64 L 400.77,244.96 L 400.29,245.85 L 402.15,247.14 L 403.15,249.71 L 402.38,251.63 L 400.97,251.77 L 401.35,250.85 L 400.12,250.84 L 398.54,251.89 L 398.99,252.40 L 398.10,252.00 Z" fill="#A8C8E8" stroke="none"/>
<path d="M 418.82,249.48 L 416.63,248.47 L 418.02,248.51 L 419.00,245.16 L 415.71,243.89 L 417.94,243.93 L 417.22,241.61 L 418.07,240.47 L 414.68,240.49 L 414.44,239.09 L 412.72,237.46 L 414.31,237.76 L 416.13,239.04 L 417.92,239.26 L 421.28,241.92 L 421.90,242.98 L 420.98,243.64 L 422.26,244.20 L 422.83,245.41 L 420.00,247.46 L 418.82,249.48 Z" fill="#A8C8E8" stroke="none"/>
<path d="M 441.03,243.99 L 440.62,243.21 L 438.98,243.27 L 437.44,242.43 L 438.82,240.64 L 442.66,238.00 L 443.59,239.12 L 442.64,242.37 L 441.03,243.99 Z" fill="#A8C8E8" stroke="none"/>
<path d="M 223.90,233.38 L 222.28,233.15 L 223.66,232.53 L 222.06,231.88 L 222.88,230.92 L 222.05,230.59 L 221.04,232.91 L 219.79,233.19 L 220.15,230.32 L 217.46,231.77 L 217.88,230.47 L 216.38,230.29 L 219.52,229.24 L 222.15,229.76 L 223.55,228.51 L 226.06,228.56 L 226.07,229.65 L 225.44,228.85 L 222.87,229.94 L 224.39,232.26 L 223.90,233.38 Z" fill="#A8C8E8" stroke="none"/>
<path d="M 417.55,232.27 L 416.56,231.53 L 414.68,232.67 L 414.06,232.16 L 413.03,232.71 L 411.32,232.46 L 412.28,231.00 L 417.88,230.14 L 417.55,232.27 Z" fill="#A8C8E8" stroke="none"/>
<path d="M 442.66,201.53 L 444.36,202.12 L 439.92,203.39 L 442.66,201.53 Z" fill="#A8C8E8" stroke="none"/>
<path d="M 476.96,261.47 L 475.39,260.56 L 476.65,259.37 L 478.93,260.22 L 478.23,261.04 L 476.90,260.11 L 476.25,260.73 L 476.96,261.47 Z" fill="#A8C8E8" stroke="none"/>
<path d="M 350.18,201.70 L 345.91,201.54 L 338.71,198.66 L 344.77,199.43 L 344.72,199.91 L 350.18,201.70 Z" fill="#A8C8E8" stroke="none"/>
<path d="M 261.00,212.73 L 259.59,212.55 L 257.57,210.34 L 251.98,210.61 L 251.91,209.81 L 248.97,209.61 L 250.17,208.29 L 251.21,209.05 L 252.95,208.67 L 253.24,209.86 L 254.79,209.32 L 254.95,209.74 L 259.82,210.62 L 261.00,212.73 Z" fill="#A8C8E8" stroke="none"/>
<path d="M 198.38,235.11 L 199.39,233.35 L 198.42,232.52 L 200.50,232.72 L 201.96,231.78 L 201.48,233.90 L 199.81,233.78 L 199.16,235.01 L 200.90,235.53 L 199.53,236.06 L 199.66,237.97 L 198.76,238.56 L 198.38,235.11 Z" fill="#A8C8E8" stroke="none"/>
<path d="M 256.60,232.08 L 254.34,231.97 L 251.25,230.64 L 249.63,229.32 L 250.36,228.86 L 248.88,228.96 L 249.33,228.35 L 250.50,228.08 L 251.93,228.53 L 252.63,230.38 L 256.60,232.08 Z" fill="#A8C8E8" stroke="none"/>
<path d="M 393.23,247.45 L 391.96,246.46 L 391.39,247.11 L 390.65,246.26 L 389.13,246.45 L 387.92,247.67 L 387.27,247.03 L 387.74,246.32 L 386.44,246.29 L 386.95,245.64 L 388.39,246.03 L 389.57,245.72 L 391.08,242.82 L 392.57,243.13 L 392.60,243.65 L 390.83,244.11 L 390.36,245.04 L 390.76,245.68 L 392.61,245.88 L 393.23,247.45 Z" fill="#A8C8E8" stroke="none"/>
<path d="M 391.13,154.90 L 390.90,156.17 L 389.42,156.45 L 388.00,156.03 L 391.13,154.90 Z" fill="#A8C8E8" stroke="none"/>
<path d="M 324.52,191.97 L 319.36,191.03 L 319.86,190.88 L 324.09,190.72 L 324.52,191.97 Z" fill="#A8C8E8" stroke="none"/>
<path d="M 337.29,198.16 L 332.42,196.90 L 332.24,196.27 L 335.30,196.85 L 337.29,198.16 Z" fill="#A8C8E8" stroke="none"/>
<path d="M 262.72,217.08 L 262.91,216.32 L 261.74,215.46 L 261.96,214.11 L 258.84,214.05 L 258.60,213.28 L 260.52,212.96 L 262.43,213.80 L 262.90,214.95 L 263.88,215.10 L 263.01,215.41 L 263.36,216.77 L 262.72,217.08 Z" fill="#A8C8E8" stroke="none"/>
<path d="M 236.46,233.26 L 236.14,232.68 L 232.43,232.19 L 234.02,231.62 L 239.36,232.86 L 236.46,233.26 Z" fill="#A8C8E8" stroke="none"/>
<path d="M 241.08,233.36 L 243.99,234.58 L 241.28,235.74 L 241.79,234.63 L 241.08,233.36 Z" fill="#A8C8E8" stroke="none"/>
<path d="M 346.46,231.93 L 346.08,233.23 L 343.85,232.51 L 344.67,231.75 L 346.46,231.93 Z" fill="#A8C8E8" stroke="none"/>
<path d="M 246.50,250.47 L 245.37,250.77 L 244.64,249.18 L 246.46,248.41 L 246.09,247.95 L 249.95,247.03 L 247.48,248.49 L 247.55,249.44 L 246.41,249.82 L 245.96,249.08 L 246.50,250.47 Z" fill="#A8C8E8" stroke="none"/>
<path d="M 372.37,151.14 L 373.67,152.60 L 373.33,153.25 L 371.89,153.57 L 371.56,152.41 L 372.37,151.14 Z" fill="#A8C8E8" stroke="none"/>
<path d="M 773.91,332.10 L 773.07,332.41 L 773.54,331.07 L 773.91,332.10 Z" fill="#A8C8E8" stroke="none"/>
<path d="M 767.33,334.35 L 766.66,334.37 L 766.09,334.09 L 766.13,333.57 L 767.33,334.35 Z" fill="#A8C8E8" stroke="none"/>
<path d="M 745.83,339.40 L 745.83,339.36 L 745.83,339.36 L 745.83,339.40 Z" fill="#A8C8E8" stroke="none"/>
<path d="M 754.54,341.53 L 754.20,339.81 L 751.46,339.88 L 750.63,338.22 L 752.13,339.77 L 754.57,339.38 L 754.54,341.53 Z" fill="#A8C8E8" stroke="none"/>
<path d="M 770.36,333.50 L 769.55,333.63 L 769.42,331.78 L 769.99,331.71 L 770.36,333.50 Z" fill="#A8C8E8" stroke="none"/>
<path d="M 742.66,343.05 L 740.01,343.25 L 740.43,342.72 L 739.01,342.80 L 740.02,342.35 L 742.66,343.05 Z" fill="#A8C8E8" stroke="none"/>
<path d="M 745.80,339.25 L 743.61,342.27 L 743.42,341.69 L 741.81,341.68 L 740.92,341.39 L 743.77,341.55 L 743.53,340.77 L 741.38,340.26 L 742.17,339.92 L 744.21,340.44 L 743.73,339.56 L 744.71,339.94 L 745.14,338.86 L 745.80,339.25 Z" fill="#A8C8E8" stroke="none"/>
<path d="M 757.31,336.63 L 759.18,334.58 L 758.11,336.39 L 758.89,336.89 L 757.31,336.63 Z" fill="#A8C8E8" stroke="none"/>
<path d="M 760.99,335.25 L 762.06,334.37 L 760.52,336.49 L 759.91,336.57 L 759.43,335.42 L 760.99,335.25 Z" fill="#A8C8E8" stroke="none"/>
<path d="M 770.19,335.98 L 770.10,334.76 L 770.40,334.77 L 770.38,336.27 L 769.59,336.08 L 770.19,335.98 Z" fill="#A8C8E8" stroke="none"/>
<path d="M 784.52,327.65 L 785.15,327.90 L 783.86,327.53 L 783.67,327.13 L 784.52,327.65 Z" fill="#A8C8E8" stroke="none"/>
<path d="M 738.73,345.58 L 739.74,346.23 L 738.59,346.65 L 738.64,345.77 L 737.05,345.04 L 738.73,345.58 Z" fill="#A8C8E8" stroke="none"/>
<path d="M 737.13,346.83 L 736.48,347.37 L 736.77,346.99 L 736.61,345.73 L 737.13,346.83 Z" fill="#A8C8E8" stroke="none"/>
<path d="M 740.01,345.35 L 741.13,344.89 L 739.99,345.45 L 739.28,345.04 L 740.01,345.35 Z" fill="#A8C8E8" stroke="none"/>
<path d="M 797.06,317.92 L 796.98,318.04 L 796.68,318.02 L 796.15,317.26 L 797.06,317.92 Z" fill="#A8C8E8" stroke="none"/>
<path d="M 798.89,317.37 L 798.58,317.77 L 798.72,317.54 L 798.89,317.37 Z" fill="#A8C8E8" stroke="none"/>
<path d="M 759.44,339.34 L 760.52,338.68 L 759.56,339.64 L 760.66,340.10 L 760.55,340.50 L 759.25,339.74 L 759.44,339.34 Z" fill="#A8C8E8" stroke="none"/>
<path d="M 508.55,324.05 L 509.86,324.57 L 509.08,324.69 L 509.82,325.18 L 511.28,324.90 L 511.89,325.73 L 510.45,325.84 L 507.94,324.44 L 508.55,324.05 Z" fill="#A8C8E8" stroke="none"/>
<path d="M 510.74,323.00 L 510.42,323.47 L 511.57,324.28 L 510.25,324.56 L 509.32,323.63 L 507.82,323.79 L 509.03,322.76 L 509.79,323.31 L 510.74,323.00 Z" fill="#A8C8E8" stroke="none"/>
</svg>