<svg xmlns="http://www.w3.org/2000/svg" width="800" height="500" viewBox="0 0 800 500">
<rect width="800" height="500" fill="#A8C8E8"/>
<path d="M 294.42,1.57 L 294.58,2.23 L 294.02,2.37 L 293.24,1.52 L 294.42,1.57 Z M 335.27,91.69 L 335.35,92.46 L 336.25,91.86 L 336.69,92.37 L 336.62,93.23 L 335.50,93.41 L 336.10,95.29 L 335.63,96.41 L 332.83,99.59 L 330.63,100.01 L 328.75,101.40 L 326.84,101.33 L 327.09,100.29 L 328.55,99.34 L 327.46,99.06 L 328.10,96.15 L 329.98,94.32 L 330.62,94.89 L 331.14,94.56 L 331.72,95.31 L 332.54,93.19 L 335.27,91.69 Z M 291.31,1.48 L 293.15,3.27 L 292.93,3.36 L 292.46,3.10 L 292.19,3.13 L 293.33,3.60 L 293.70,4.16 L 293.23,4.16 L 293.95,4.68 L 292.80,5.17 L 291.87,4.07 L 292.11,5.34 L 289.67,5.08 L 289.32,5.43 L 290.30,5.28 L 290.30,5.70 L 290.55,6.14 L 291.74,6.53 L 291.23,7.84 L 290.71,7.90 L 292.73,8.92 L 292.43,9.63 L 293.13,9.77 L 292.31,10.05 L 293.43,10.19 L 292.75,10.71 L 293.71,11.18 L 293.95,12.21 L 295.44,14.07 L 295.30,14.87 L 294.47,15.74 L 293.95,15.65 L 294.38,16.04 L 293.51,16.17 L 294.23,16.45 L 294.52,17.63 L 297.44,19.92 L 297.62,20.54 L 298.54,20.84 L 300.86,23.42 L 299.61,24.59 L 297.20,24.59 L 295.53,23.88 L 294.35,22.47 L 295.16,24.63 L 294.40,24.37 L 293.47,25.04 L 291.88,29.38 L 292.23,30.35 L 291.67,31.77 L 292.03,32.53 L 291.71,33.73 L 292.81,33.00 L 292.35,34.86 L 291.95,34.93 L 292.79,35.42 L 291.11,36.32 L 290.78,35.68 L 288.89,38.64 L 288.09,38.79 L 287.64,37.16 L 287.75,39.50 L 286.62,40.06 L 286.46,41.27 L 284.61,42.42 L 285.79,42.26 L 286.03,43.23 L 285.98,44.16 L 284.96,45.03 L 286.83,45.40 L 286.33,47.67 L 285.09,47.47 L 285.04,48.04 L 285.60,47.81 L 284.99,50.64 L 284.65,50.74 L 284.12,49.52 L 283.93,50.72 L 284.86,51.67 L 283.96,52.42 L 283.13,54.92 L 275.53,58.87 L 275.20,58.51 L 275.22,55.43 L 274.70,54.30 L 274.87,53.12 L 274.44,54.17 L 273.20,53.46 L 273.79,52.19 L 272.75,53.36 L 272.29,53.12 L 272.35,52.04 L 271.91,53.18 L 269.52,53.87 L 269.40,51.93 L 267.97,52.47 L 267.60,51.85 L 267.88,52.60 L 266.04,50.20 L 265.49,51.46 L 265.96,51.85 L 263.73,53.60 L 261.19,53.00 L 259.46,54.66 L 258.90,54.39 L 259.04,51.16 L 258.58,48.94 L 258.28,50.35 L 257.50,50.84 L 256.30,50.20 L 254.10,51.33 L 252.75,50.91 L 253.93,49.90 L 252.22,51.29 L 251.56,49.82 L 249.89,50.75 L 249.27,48.13 L 249.99,47.42 L 249.29,46.86 L 248.90,43.52 L 247.80,42.67 L 248.56,41.43 L 248.72,39.37 L 247.95,38.53 L 247.98,37.77 L 246.85,36.77 L 246.98,36.11 L 246.48,36.88 L 245.60,36.05 L 244.81,36.39 L 244.13,35.99 L 244.06,34.71 L 245.26,35.19 L 245.48,35.05 L 244.60,34.58 L 244.87,34.23 L 243.35,33.76 L 242.80,31.81 L 243.84,31.75 L 243.45,29.99 L 244.28,30.05 L 242.07,27.79 L 241.69,24.41 L 242.42,23.56 L 242.09,22.13 L 243.37,21.53 L 244.09,20.54 L 242.45,21.77 L 242.96,19.59 L 244.12,18.49 L 244.52,16.83 L 246.29,15.81 L 245.61,17.14 L 246.27,17.89 L 246.37,19.15 L 249.35,22.06 L 249.89,23.29 L 251.59,24.28 L 255.34,22.74 L 257.12,23.54 L 257.81,23.05 L 258.98,23.20 L 259.49,22.47 L 260.55,22.27 L 260.95,20.27 L 262.75,19.35 L 265.68,19.34 L 265.98,19.72 L 265.59,20.40 L 268.89,21.10 L 269.48,21.69 L 271.14,20.21 L 272.67,20.37 L 273.85,19.77 L 274.84,20.27 L 275.62,17.48 L 276.51,17.05 L 276.20,14.69 L 278.69,12.88 L 277.82,12.20 L 277.89,10.66 L 278.90,9.23 L 279.29,9.61 L 280.19,9.30 L 280.50,7.06 L 280.99,6.56 L 280.63,3.19 L 282.39,0.00 L 282.44,0.00 L 283.43,0.78 L 284.05,0.04 L 285.12,0.01 L 285.71,0.66 L 286.28,0.00 L 286.43,0.00 L 286.75,0.37 L 290.32,0.20 L 292.44,1.55 L 291.31,1.48 Z M 428.82,73.65 L 428.07,76.17 L 428.82,77.50 L 428.82,92.68 L 423.06,86.40 L 423.47,85.65 L 423.48,84.73 L 423.88,84.64 L 424.01,84.29 L 423.48,84.56 L 422.97,85.75 L 419.60,86.46 L 418.78,86.09 L 418.73,85.19 L 418.58,84.94 L 418.98,84.90 L 418.57,84.75 L 418.61,85.59 L 416.80,87.09 L 416.39,85.89 L 416.87,85.57 L 416.81,84.42 L 417.27,84.16 L 417.84,82.06 L 415.36,79.57 L 418.22,79.88 L 418.70,79.25 L 417.65,79.67 L 416.38,79.21 L 414.75,77.65 L 416.90,77.13 L 417.72,77.86 L 418.42,78.03 L 415.46,76.25 L 415.45,75.77 L 416.31,76.19 L 414.19,74.11 L 413.00,70.76 L 413.83,70.21 L 412.39,69.79 L 413.59,69.14 L 411.89,69.48 L 411.83,67.25 L 411.47,67.76 L 411.04,66.73 L 410.39,66.93 L 410.36,66.21 L 407.85,65.04 L 407.21,64.57 L 407.27,64.04 L 406.93,64.56 L 406.17,64.20 L 406.24,63.71 L 404.61,63.98 L 399.54,61.08 L 395.08,60.69 L 391.95,58.42 L 392.18,57.24 L 393.51,57.46 L 393.81,57.17 L 392.11,56.97 L 391.23,57.79 L 390.12,56.70 L 390.01,57.74 L 389.00,56.94 L 389.30,56.47 L 388.92,55.85 L 388.82,56.35 L 388.00,56.57 L 387.23,54.79 L 387.18,55.69 L 386.44,55.35 L 386.08,54.06 L 386.37,52.22 L 387.28,51.33 L 387.76,51.52 L 387.36,50.20 L 386.24,51.57 L 386.00,53.59 L 385.34,53.33 L 385.80,54.48 L 384.73,55.70 L 384.99,56.68 L 383.81,58.06 L 381.81,58.21 L 380.78,55.42 L 381.95,54.54 L 381.31,53.74 L 381.25,52.67 L 380.43,52.99 L 379.74,51.47 L 378.42,50.37 L 376.38,50.25 L 376.78,49.38 L 376.28,49.28 L 378.34,48.51 L 380.76,49.45 L 382.54,47.16 L 383.74,46.73 L 384.62,47.48 L 384.57,48.51 L 384.94,47.26 L 384.97,48.28 L 385.11,47.45 L 385.37,47.91 L 386.04,47.57 L 386.32,48.79 L 386.50,47.38 L 387.11,48.32 L 387.12,47.14 L 386.70,46.87 L 387.64,47.14 L 387.40,46.69 L 388.20,46.53 L 387.40,46.21 L 387.88,45.88 L 387.88,45.26 L 387.76,45.75 L 386.96,45.65 L 387.83,44.60 L 386.11,45.49 L 384.07,45.27 L 380.53,45.97 L 379.79,45.14 L 378.30,45.69 L 376.80,44.44 L 377.26,43.85 L 376.68,43.99 L 376.18,43.14 L 376.66,41.64 L 375.86,41.47 L 376.42,40.70 L 375.39,41.17 L 375.31,40.41 L 375.07,40.93 L 374.04,40.29 L 373.24,40.44 L 372.87,39.71 L 372.31,39.57 L 372.66,40.11 L 371.90,40.59 L 370.40,39.83 L 372.07,37.80 L 372.39,36.41 L 372.11,35.75 L 375.80,34.86 L 377.40,33.12 L 378.83,32.55 L 382.20,33.18 L 384.63,35.09 L 388.04,35.09 L 389.18,36.06 L 388.38,36.70 L 389.82,39.40 L 388.68,41.68 L 389.30,46.47 L 390.88,49.79 L 391.28,49.59 L 390.99,47.57 L 391.36,47.04 L 391.89,47.38 L 392.26,50.45 L 393.13,50.05 L 392.94,51.67 L 393.41,52.54 L 395.98,53.41 L 396.94,53.12 L 399.30,50.64 L 399.62,49.19 L 401.38,47.71 L 402.04,45.47 L 402.93,45.17 L 404.19,45.60 L 406.69,44.59 L 407.01,44.28 L 406.24,43.10 L 406.37,42.47 L 410.54,40.23 L 415.35,42.42 L 416.39,43.52 L 421.85,46.30 L 424.05,46.07 L 425.06,46.99 L 425.32,46.58 L 427.46,47.29 L 427.34,48.22 L 428.80,47.99 L 428.82,73.65 Z M 268.22,88.43 L 267.48,88.44 L 267.52,88.06 L 268.22,88.43 Z M 325.04,88.34 L 323.41,89.09 L 324.09,88.16 L 325.04,88.34 Z M 354.28,87.04 L 353.70,86.83 L 354.46,86.45 L 354.28,87.04 Z M 359.08,86.89 L 358.08,86.46 L 358.40,86.30 L 359.22,86.50 L 359.08,86.89 Z M 351.87,86.54 L 350.91,86.50 L 351.37,86.15 L 351.87,86.54 Z M 292.44,87.58 L 292.01,87.56 L 291.97,86.34 L 293.01,86.10 L 292.44,87.58 Z M 348.70,85.83 L 348.28,85.75 L 348.32,85.32 L 348.70,85.83 Z M 371.23,82.97 L 370.53,83.03 L 370.69,82.73 L 371.31,82.53 L 371.23,82.97 Z M 370.61,82.00 L 369.77,81.85 L 369.87,81.56 L 370.61,82.00 Z M 371.16,81.67 L 370.63,81.46 L 370.80,81.07 L 371.71,80.99 L 371.16,81.67 Z M 372.31,80.76 L 371.95,80.67 L 372.24,80.25 L 372.31,80.76 Z M 312.83,80.29 L 311.23,80.13 L 311.37,79.98 L 312.83,80.29 Z M 311.11,79.11 L 310.52,79.25 L 309.86,78.71 L 310.23,78.20 L 311.11,79.11 Z M 416.06,77.04 L 415.65,77.28 L 415.08,76.35 L 416.06,77.04 Z M 374.33,76.22 L 373.91,76.85 L 373.83,76.41 L 374.33,76.22 Z M 392.47,75.68 L 392.07,76.65 L 391.83,76.22 L 392.29,75.39 L 392.47,75.68 Z M 391.33,74.98 L 390.88,74.26 L 390.20,73.81 L 390.77,73.30 L 391.71,74.24 L 391.33,74.98 Z M 393.35,73.50 L 392.99,74.59 L 392.80,74.10 L 393.07,73.32 L 393.35,73.50 Z M 390.64,73.27 L 390.14,73.62 L 389.35,72.68 L 389.12,72.69 L 388.91,71.58 L 389.75,71.77 L 389.54,72.24 L 390.25,73.09 L 390.64,73.27 Z M 244.68,83.11 L 242.62,83.25 L 241.80,82.41 L 240.63,83.16 L 239.85,82.97 L 239.35,83.84 L 235.92,83.33 L 233.28,81.62 L 227.37,80.81 L 227.31,79.80 L 228.21,78.59 L 228.03,77.96 L 227.00,78.22 L 224.93,76.96 L 220.83,77.18 L 220.49,76.65 L 221.35,75.91 L 222.09,76.90 L 222.98,74.66 L 223.79,74.86 L 224.28,72.10 L 225.36,70.53 L 225.98,71.41 L 226.80,70.97 L 227.80,71.58 L 229.05,71.43 L 229.68,72.06 L 230.91,71.84 L 231.14,70.75 L 232.95,71.18 L 233.62,72.34 L 234.83,72.98 L 236.04,72.63 L 237.25,73.59 L 237.80,72.93 L 238.81,73.04 L 239.85,74.69 L 240.24,76.58 L 242.21,77.18 L 242.66,76.76 L 244.58,77.36 L 245.41,76.85 L 248.01,77.69 L 249.39,77.23 L 250.58,78.05 L 251.69,77.09 L 252.27,74.78 L 254.25,74.24 L 255.03,76.10 L 256.32,76.23 L 257.06,75.63 L 258.50,76.71 L 259.87,76.73 L 260.50,77.57 L 263.41,77.32 L 263.99,79.41 L 263.53,79.54 L 264.81,80.02 L 264.45,81.86 L 266.61,83.21 L 267.72,83.61 L 268.92,83.02 L 270.41,83.20 L 271.93,82.42 L 273.93,83.42 L 274.38,83.92 L 273.86,88.65 L 274.02,88.15 L 274.26,89.22 L 275.30,90.17 L 273.80,90.18 L 273.91,89.65 L 273.42,89.29 L 271.55,89.34 L 267.24,87.01 L 263.93,88.15 L 258.80,86.84 L 258.24,87.63 L 256.66,86.93 L 255.13,87.02 L 254.79,86.50 L 254.29,86.83 L 251.14,85.85 L 247.81,83.97 L 244.68,83.11 Z M 330.26,71.53 L 329.80,70.45 L 330.14,70.75 L 330.26,71.53 Z M 380.97,69.14 L 381.09,68.10 L 381.25,68.29 L 380.97,69.14 Z M 378.74,68.14 L 378.69,68.28 L 378.47,68.41 L 378.38,68.00 L 378.74,68.14 Z M 328.84,68.57 L 328.12,67.72 L 328.36,67.74 L 328.84,68.57 Z M 327.73,66.30 L 327.78,66.99 L 327.35,66.89 L 327.24,66.16 L 327.73,66.30 Z M 364.48,61.47 L 364.05,61.41 L 364.14,61.35 L 364.48,61.47 Z M 348.80,56.99 L 348.24,56.81 L 348.36,56.33 L 348.76,56.37 L 348.80,56.99 Z M 320.34,54.56 L 319.98,54.72 L 319.96,54.45 L 320.34,54.56 Z M 380.62,54.30 L 380.14,53.64 L 380.40,53.55 L 380.62,54.30 Z M 320.97,53.76 L 320.79,54.07 L 320.67,53.40 L 320.97,53.76 Z M 351.14,53.18 L 350.19,52.75 L 350.68,52.49 L 351.14,53.18 Z M 351.93,52.41 L 351.14,52.27 L 351.51,51.81 L 351.93,52.41 Z M 352.91,50.86 L 352.21,50.93 L 352.79,50.16 L 352.91,50.86 Z M 329.26,44.21 L 329.26,44.37 L 328.98,44.20 L 329.26,44.21 Z M 332.09,43.81 L 332.07,44.13 L 331.67,43.78 L 332.09,43.81 Z M 327.96,43.51 L 327.96,43.61 L 327.88,43.19 L 327.96,43.51 Z M 328.44,43.42 L 328.24,43.57 L 328.25,43.26 L 328.44,43.42 Z M 240.92,41.76 L 241.24,41.82 L 241.13,41.92 L 240.65,41.90 L 240.92,41.76 Z M 349.60,39.78 L 349.05,39.92 L 349.32,39.42 L 349.60,39.78 Z M 243.37,39.13 L 243.12,39.06 L 243.20,38.92 L 243.53,38.76 L 243.37,39.13 Z M 244.05,38.38 L 243.84,38.55 L 243.82,38.35 L 244.05,38.38 Z M 216.28,32.25 L 215.77,32.27 L 215.77,32.07 L 216.28,32.25 Z M 206.91,27.96 L 207.16,27.99 L 206.85,28.17 L 206.91,27.96 Z M 208.03,26.18 L 207.79,25.61 L 207.90,25.60 L 208.03,26.18 Z M 210.60,25.54 L 210.33,25.84 L 210.34,25.63 L 210.60,25.54 Z M 208.26,24.92 L 208.12,25.16 L 208.03,24.90 L 208.26,24.92 Z M 217.02,24.79 L 216.38,24.97 L 216.46,24.71 L 217.02,24.79 Z M 211.76,24.64 L 211.80,24.86 L 211.66,24.86 L 211.47,24.36 L 211.76,24.64 Z M 210.31,24.15 L 209.95,23.86 L 210.22,23.80 L 210.31,24.15 Z M 310.51,22.84 L 310.60,22.95 L 310.15,22.76 L 310.51,22.84 Z M 308.98,22.84 L 308.82,23.09 L 308.76,22.92 L 308.98,22.84 Z M 305.20,33.35 L 305.45,30.97 L 304.72,30.81 L 304.49,30.05 L 305.64,30.70 L 305.96,29.63 L 305.36,28.48 L 305.85,28.15 L 306.10,26.87 L 306.80,26.58 L 306.88,25.08 L 307.94,24.53 L 308.24,23.29 L 308.61,23.37 L 308.63,24.25 L 309.92,24.75 L 310.47,23.47 L 311.29,22.89 L 311.47,21.02 L 312.91,20.97 L 313.98,21.68 L 315.07,21.21 L 315.07,22.10 L 315.63,22.76 L 320.91,23.11 L 323.21,24.50 L 323.91,23.51 L 325.12,23.79 L 325.18,23.44 L 329.51,24.41 L 331.61,23.14 L 332.19,21.98 L 333.38,21.91 L 333.11,20.78 L 334.79,20.03 L 334.73,19.32 L 335.65,18.23 L 336.76,18.60 L 337.19,19.92 L 336.42,20.61 L 335.15,23.44 L 333.78,24.59 L 332.91,26.67 L 331.79,27.38 L 327.74,28.29 L 325.48,27.89 L 324.52,26.58 L 317.10,27.19 L 315.95,26.33 L 313.07,27.33 L 309.54,26.49 L 307.54,28.56 L 306.59,31.56 L 307.04,34.34 L 308.10,36.30 L 309.53,36.82 L 310.55,39.71 L 311.45,39.33 L 313.06,39.78 L 313.64,38.31 L 316.05,35.62 L 316.60,36.55 L 318.88,36.49 L 319.48,35.38 L 323.68,35.34 L 322.55,34.58 L 324.53,33.95 L 326.44,34.54 L 326.74,35.33 L 325.90,37.35 L 324.65,35.86 L 323.15,36.30 L 320.42,40.38 L 319.34,41.21 L 317.46,41.59 L 316.47,43.23 L 315.66,43.38 L 315.01,42.58 L 314.17,42.60 L 314.42,43.80 L 314.78,43.24 L 315.79,44.98 L 317.23,45.84 L 318.36,48.63 L 319.94,49.97 L 319.90,51.01 L 321.02,51.77 L 320.77,52.42 L 320.14,52.50 L 320.47,53.75 L 319.73,53.32 L 319.96,53.97 L 319.46,54.81 L 321.46,56.77 L 322.09,56.84 L 321.48,57.40 L 322.09,57.65 L 322.28,58.55 L 323.17,58.49 L 322.78,57.93 L 323.19,58.00 L 323.51,60.27 L 323.17,60.61 L 322.17,59.76 L 322.68,60.93 L 321.76,60.33 L 318.89,61.18 L 318.50,62.16 L 319.02,63.10 L 318.72,63.39 L 316.54,63.34 L 315.67,62.71 L 315.24,61.59 L 316.10,58.20 L 313.93,56.94 L 313.93,56.34 L 311.71,54.16 L 312.83,52.06 L 312.92,49.86 L 312.35,49.52 L 312.91,49.08 L 312.48,48.40 L 311.27,48.09 L 310.02,48.55 L 307.80,50.44 L 308.16,51.71 L 309.10,52.49 L 309.22,55.74 L 308.67,58.29 L 309.24,62.05 L 308.42,63.59 L 308.16,65.50 L 309.32,68.73 L 308.50,67.97 L 307.20,68.57 L 306.12,68.38 L 305.01,69.31 L 303.81,68.31 L 303.31,68.51 L 302.84,66.92 L 304.44,59.76 L 304.56,57.45 L 304.25,57.79 L 303.44,55.54 L 303.69,54.14 L 302.52,53.67 L 300.36,54.62 L 299.42,51.36 L 299.91,51.20 L 300.12,49.84 L 299.46,49.79 L 299.38,49.19 L 299.66,48.19 L 300.29,48.32 L 301.58,46.98 L 302.05,43.93 L 302.81,43.58 L 302.62,38.68 L 303.43,37.66 L 303.85,36.04 L 305.06,34.48 L 305.72,36.13 L 305.20,33.35 Z M 352.15,14.78 L 351.95,14.95 L 351.75,14.68 L 352.15,14.78 Z M 354.21,14.34 L 354.12,14.42 L 353.97,13.92 L 354.35,13.86 L 354.21,14.34 Z M 194.76,14.95 L 195.27,14.34 L 196.22,14.38 L 197.78,16.22 L 198.42,18.38 L 200.29,18.71 L 202.44,20.60 L 202.97,23.09 L 204.23,24.60 L 207.31,25.48 L 208.02,27.09 L 205.15,28.88 L 204.68,28.50 L 204.26,28.43 L 204.93,28.96 L 207.01,28.28 L 209.69,26.44 L 211.91,28.22 L 212.25,30.17 L 210.94,30.22 L 210.94,30.84 L 209.16,31.89 L 210.43,31.58 L 209.59,32.64 L 211.07,33.12 L 210.02,33.68 L 209.75,33.21 L 210.01,34.08 L 209.59,34.90 L 212.41,37.50 L 213.15,36.84 L 214.64,37.50 L 215.60,37.21 L 216.54,42.22 L 216.30,43.42 L 216.69,42.89 L 217.12,43.32 L 216.84,44.00 L 218.15,43.92 L 218.55,44.73 L 217.82,46.13 L 216.94,46.63 L 217.54,46.41 L 217.56,47.70 L 216.72,48.37 L 216.50,49.17 L 217.67,47.92 L 218.55,45.82 L 218.82,46.44 L 219.12,46.11 L 222.87,46.62 L 222.83,47.95 L 223.76,48.60 L 223.95,50.04 L 225.22,50.62 L 225.48,52.49 L 224.48,53.53 L 224.01,55.35 L 224.78,56.46 L 223.97,59.24 L 224.51,60.83 L 224.53,64.08 L 224.06,68.97 L 223.48,70.63 L 220.86,67.53 L 220.28,68.46 L 220.18,69.87 L 217.38,67.96 L 216.62,67.97 L 217.58,70.80 L 216.68,70.85 L 212.83,65.97 L 212.77,65.19 L 211.69,64.16 L 210.00,63.58 L 203.58,57.54 L 203.05,55.15 L 199.49,52.28 L 197.83,48.94 L 196.54,47.90 L 195.48,46.15 L 194.96,44.96 L 195.10,43.12 L 193.92,41.24 L 193.42,39.27 L 192.47,38.81 L 192.53,37.32 L 191.86,35.73 L 189.08,32.28 L 188.63,30.33 L 186.27,28.48 L 185.08,28.32 L 184.91,26.47 L 184.91,5.75 L 188.65,8.27 L 189.98,9.87 L 189.83,11.60 L 190.15,12.24 L 189.95,11.55 L 190.42,11.39 L 190.84,12.74 L 190.81,11.83 L 191.33,11.53 L 192.63,14.51 L 194.84,16.11 L 195.62,17.58 L 194.76,14.95 Z M 311.51,99.18 L 310.84,100.17 L 309.24,100.95 L 307.52,100.34 L 306.42,98.71 L 304.49,97.24 L 301.35,96.88 L 300.41,95.75 L 301.77,94.60 L 305.45,94.59 L 306.38,93.95 L 307.16,95.12 L 307.95,95.33 L 308.20,96.37 L 309.40,96.36 L 311.51,99.18 Z M 281.12,90.36 L 280.92,90.63 L 280.22,90.11 L 280.69,89.66 L 281.12,90.36 Z M 305.40,89.37 L 304.86,90.59 L 304.37,90.42 L 304.49,89.18 L 304.84,89.67 L 305.40,89.37 Z M 304.11,89.14 L 303.45,89.18 L 303.53,90.17 L 303.01,90.17 L 303.21,88.13 L 304.11,89.14 Z M 325.78,87.86 L 324.21,87.77 L 325.00,86.76 L 326.12,86.93 L 325.78,87.86 Z M 287.64,87.77 L 286.23,90.60 L 286.61,91.24 L 285.91,91.40 L 285.78,90.83 L 285.66,91.64 L 282.38,90.69 L 282.43,90.06 L 283.82,90.15 L 283.48,88.14 L 284.98,86.71 L 287.00,86.97 L 287.64,87.77 Z M 301.59,86.39 L 301.09,86.88 L 300.91,86.39 L 301.29,85.99 L 301.59,86.39 Z M 301.67,90.18 L 300.20,89.81 L 299.05,90.22 L 300.36,90.55 L 300.25,90.93 L 299.12,90.58 L 297.38,90.95 L 297.38,89.09 L 295.88,91.04 L 293.36,91.35 L 291.40,92.32 L 290.26,92.12 L 289.20,92.69 L 287.56,91.70 L 288.12,90.57 L 287.67,89.66 L 288.20,88.57 L 290.28,87.54 L 291.67,88.39 L 291.72,87.90 L 292.39,87.87 L 292.59,88.62 L 292.77,88.09 L 293.83,90.03 L 294.78,90.22 L 295.36,89.59 L 296.61,89.49 L 293.29,86.74 L 293.46,86.10 L 294.49,85.67 L 295.84,86.01 L 296.78,87.63 L 297.66,86.80 L 298.74,87.07 L 298.85,88.84 L 299.36,87.33 L 300.63,87.16 L 301.09,89.52 L 301.76,88.93 L 301.67,90.18 Z M 323.53,87.58 L 323.49,88.25 L 322.95,88.09 L 322.97,89.28 L 320.88,90.13 L 318.93,90.11 L 316.99,91.18 L 314.75,90.54 L 314.42,91.39 L 312.41,91.54 L 311.47,90.70 L 310.97,91.07 L 309.98,90.51 L 308.24,90.78 L 307.58,90.36 L 306.08,91.07 L 305.48,90.17 L 305.84,87.92 L 306.56,88.15 L 309.07,86.64 L 312.30,87.40 L 315.36,89.22 L 316.08,88.29 L 317.64,88.47 L 318.38,88.01 L 318.50,88.62 L 319.95,89.44 L 321.05,89.17 L 321.09,88.41 L 321.75,87.80 L 323.40,87.05 L 323.75,86.41 L 322.58,86.61 L 323.29,85.56 L 324.25,87.07 L 323.53,87.58 Z M 281.57,87.96 L 279.37,89.37 L 278.67,90.21 L 278.82,90.79 L 278.27,90.93 L 278.40,89.63 L 277.06,88.29 L 275.18,87.74 L 274.27,85.92 L 276.66,86.41 L 278.61,85.46 L 281.09,87.07 L 281.57,87.96 Z M 242.79,83.56 L 241.35,83.03 L 241.49,82.88 L 242.79,83.56 Z M 279.71,77.60 L 279.82,78.03 L 279.20,78.26 L 278.74,77.72 L 279.09,77.08 L 280.81,77.56 L 279.71,77.60 Z M 264.27,70.16 L 263.53,70.29 L 263.41,69.93 L 264.09,69.46 L 264.27,70.16 Z M 203.41,67.90 L 202.33,66.77 L 202.76,66.40 L 204.12,67.25 L 203.41,67.90 Z M 282.19,63.25 L 281.99,63.20 L 282.45,62.68 L 282.19,63.25 Z M 285.84,53.55 L 285.56,55.13 L 285.20,54.39 L 285.84,53.55 Z M 285.10,56.95 L 283.85,58.06 L 283.41,55.06 L 284.01,52.96 L 284.87,52.24 L 285.10,56.95 Z M 193.23,51.95 L 193.18,51.99 L 192.98,51.83 L 193.23,51.95 Z M 192.79,53.03 L 191.21,50.50 L 191.43,49.17 L 192.83,50.84 L 192.43,51.99 L 192.79,53.03 Z M 190.91,49.50 L 190.20,49.59 L 189.96,47.26 L 191.31,48.63 L 190.91,49.50 Z M 189.21,46.47 L 187.79,45.69 L 187.35,44.86 L 187.57,44.08 L 188.32,44.33 L 189.21,46.47 Z M 241.71,41.56 L 241.33,40.98 L 241.95,40.65 L 242.33,40.93 L 241.71,41.56 Z M 245.46,39.00 L 244.96,38.74 L 245.30,36.84 L 246.75,36.91 L 246.96,37.71 L 245.46,39.00 Z M 185.88,42.06 L 185.76,41.49 L 185.44,41.31 L 185.76,42.30 L 184.97,42.51 L 184.91,42.47 L 184.91,39.17 L 185.88,41.36 L 185.88,42.06 Z M 209.22,26.43 L 208.40,26.42 L 208.62,25.35 L 209.29,25.83 L 209.22,26.43 Z M 210.63,24.78 L 210.03,24.13 L 210.43,24.32 L 210.63,24.78 Z M 212.81,24.26 L 213.07,24.80 L 212.89,24.76 L 212.35,24.04 L 212.81,24.26 Z M 210.11,25.68 L 209.66,24.13 L 209.92,24.08 L 210.43,24.79 L 210.11,25.68 Z M 212.42,24.52 L 212.43,24.87 L 211.81,24.13 L 212.42,24.52 Z M 212.95,23.70 L 212.47,23.23 L 212.71,23.04 L 212.95,23.70 Z M 218.32,23.13 L 218.26,23.56 L 218.02,23.09 L 218.32,23.13 Z M 234.39,23.19 L 234.14,23.46 L 233.97,23.13 L 234.39,23.19 Z M 209.57,23.12 L 209.53,22.49 L 209.85,22.36 L 210.16,23.17 L 209.57,23.12 Z M 207.62,25.36 L 206.97,24.70 L 204.76,24.69 L 204.12,24.13 L 204.67,23.58 L 204.48,22.52 L 205.00,22.39 L 205.28,23.18 L 205.62,23.28 L 206.21,23.18 L 207.86,24.65 L 207.62,25.36 Z M 208.32,24.39 L 206.36,23.04 L 205.39,23.10 L 206.43,22.13 L 208.32,23.75 L 208.32,24.39 Z M 213.94,23.32 L 212.86,22.76 L 213.59,21.96 L 214.26,22.15 L 213.94,23.32 Z M 217.24,23.75 L 216.71,24.43 L 215.86,23.55 L 216.23,23.02 L 214.99,23.23 L 214.76,22.61 L 216.76,21.71 L 217.24,23.75 Z M 204.35,22.73 L 204.48,23.44 L 203.91,23.70 L 203.11,22.57 L 202.98,20.52 L 204.51,21.59 L 204.35,22.73 Z M 204.54,21.39 L 203.68,20.42 L 202.31,19.99 L 201.80,19.03 L 204.45,19.71 L 204.54,21.39 Z M 200.45,16.74 L 200.10,17.91 L 198.79,18.19 L 198.24,17.01 L 198.37,16.08 L 199.71,15.50 L 200.45,16.74 Z M 298.78,15.08 L 298.78,15.13 L 298.33,14.76 L 298.21,14.24 L 298.78,15.08 Z M 242.69,13.05 L 242.35,12.65 L 242.51,12.53 L 243.17,12.73 L 242.69,13.05 Z M 226.44,11.35 L 226.24,10.76 L 226.38,10.77 L 226.44,11.35 Z M 241.94,9.63 L 241.62,10.57 L 241.22,10.24 L 241.94,9.63 Z M 235.61,9.61 L 235.22,9.63 L 235.39,9.34 L 235.61,9.61 Z M 223.96,10.17 L 223.38,10.59 L 223.24,9.10 L 223.96,10.17 Z M 226.72,8.92 L 226.68,8.92 L 226.27,7.97 L 226.72,8.92 Z M 292.21,7.52 L 291.57,7.53 L 291.66,7.20 L 292.21,7.52 Z M 226.79,7.05 L 226.68,7.93 L 226.40,7.74 L 226.79,7.05 Z M 293.12,6.77 L 292.92,7.82 L 292.23,6.75 L 293.12,6.77 Z M 293.95,6.12 L 293.71,5.52 L 294.08,5.56 L 294.35,6.10 L 293.95,6.12 Z M 290.72,6.08 L 290.41,5.67 L 291.43,5.62 L 292.15,6.24 L 290.72,6.08 Z M 293.71,3.88 L 293.39,3.55 L 293.84,3.63 L 294.07,4.02 L 293.71,3.88 Z M 293.53,2.29 L 293.01,2.76 L 292.60,2.21 L 292.99,1.62 L 293.53,2.29 Z M 238.56,4.82 L 237.78,5.06 L 237.26,4.73 L 237.80,4.07 L 238.34,4.49 L 238.24,4.07 L 237.07,3.63 L 236.62,2.56 L 238.02,0.96 L 239.02,3.50 L 238.56,4.82 Z M 326.48,103.49 L 325.31,104.41 L 323.05,104.96 L 323.00,104.17 L 324.38,103.71 L 326.34,101.80 L 326.48,103.49 Z M 318.25,102.32 L 317.58,102.93 L 316.46,102.70 L 317.92,101.78 L 318.25,102.32 Z M 326.50,101.11 L 325.97,101.15 L 326.36,100.03 L 326.81,99.85 L 326.50,101.11 Z M 327.42,88.32 L 327.49,88.97 L 325.42,88.70 L 326.92,87.49 L 326.25,87.26 L 326.51,86.92 L 327.40,86.78 L 327.11,87.51 L 327.52,87.65 L 327.83,86.62 L 329.50,86.64 L 327.42,88.32 Z M 330.79,88.79 L 330.26,88.87 L 330.03,88.04 L 329.38,88.21 L 330.05,87.24 L 330.55,87.73 L 331.42,86.33 L 331.71,86.60 L 330.79,88.79 Z M 416.68,87.87 L 414.67,87.47 L 416.05,86.17 L 416.68,87.87 Z M 336.46,87.50 L 332.41,88.29 L 331.86,87.92 L 333.11,86.67 L 332.20,86.90 L 332.69,85.99 L 333.43,86.50 L 335.47,86.11 L 336.52,86.57 L 336.46,87.50 Z M 353.37,86.88 L 351.83,85.89 L 352.24,85.76 L 353.75,85.98 L 353.37,86.88 Z M 371.75,85.94 L 369.32,87.49 L 370.27,85.99 L 371.75,85.94 Z M 363.57,85.46 L 362.45,84.41 L 362.73,83.68 L 363.95,84.24 L 363.57,85.46 Z M 344.83,83.85 L 344.28,84.85 L 341.88,84.29 L 340.25,85.13 L 341.39,82.75 L 343.48,82.99 L 345.22,82.06 L 346.44,83.20 L 344.83,83.85 Z M 350.20,82.27 L 349.48,82.72 L 349.57,81.69 L 350.20,82.27 Z M 417.74,82.17 L 416.67,84.38 L 416.74,85.60 L 415.33,86.24 L 413.67,87.90 L 409.37,88.01 L 410.07,85.59 L 411.99,82.06 L 413.78,80.99 L 415.65,80.68 L 417.74,82.17 Z M 374.44,79.96 L 374.83,81.08 L 374.38,82.47 L 372.54,85.21 L 372.35,84.64 L 371.37,85.09 L 371.37,83.07 L 372.15,83.07 L 371.75,82.68 L 372.10,81.56 L 373.34,80.51 L 374.01,79.11 L 374.80,79.12 L 374.44,79.96 Z M 376.32,79.96 L 374.96,79.18 L 376.05,78.92 L 376.32,79.96 Z M 356.94,79.72 L 356.30,79.11 L 356.83,78.65 L 356.94,79.72 Z M 272.39,78.09 L 271.14,78.54 L 270.92,79.10 L 269.39,79.10 L 268.83,79.92 L 266.80,79.72 L 266.55,79.17 L 266.58,79.80 L 264.24,79.30 L 264.05,78.61 L 265.34,77.47 L 271.93,77.63 L 272.39,78.09 Z M 220.42,75.97 L 220.25,75.35 L 219.93,75.68 L 220.33,75.11 L 220.77,74.97 L 220.42,75.97 Z M 389.98,77.25 L 389.25,77.65 L 388.60,77.02 L 388.82,74.50 L 389.40,74.83 L 388.87,74.23 L 388.77,72.58 L 390.84,74.40 L 390.99,75.30 L 389.98,77.25 Z M 309.87,71.80 L 309.42,74.62 L 309.36,69.74 L 309.87,71.80 Z M 218.29,70.11 L 217.89,69.64 L 217.99,69.57 L 218.29,70.11 Z M 381.04,70.82 L 380.55,70.85 L 380.13,68.62 L 380.59,68.58 L 381.19,69.88 L 381.04,70.82 Z M 391.71,73.88 L 389.78,72.16 L 390.32,71.58 L 389.85,70.82 L 390.38,69.93 L 389.35,69.37 L 390.22,69.38 L 391.11,68.24 L 391.13,67.42 L 391.83,67.53 L 392.23,68.14 L 391.87,68.52 L 392.59,69.09 L 392.46,71.13 L 391.98,70.88 L 391.67,71.01 L 392.67,71.96 L 392.20,72.64 L 392.59,72.43 L 391.71,73.88 Z M 383.01,68.57 L 381.43,71.32 L 382.99,66.61 L 383.42,66.61 L 383.01,68.57 Z M 318.54,67.58 L 318.08,67.69 L 317.14,66.26 L 317.42,65.17 L 318.13,64.96 L 318.66,65.95 L 318.54,67.58 Z M 375.09,62.66 L 374.99,62.87 L 374.92,62.63 L 375.09,62.66 Z M 321.79,65.57 L 322.10,66.51 L 321.75,67.36 L 321.43,67.42 L 321.25,66.44 L 321.00,67.20 L 320.64,66.90 L 320.89,66.64 L 319.90,67.01 L 320.61,64.90 L 320.17,63.39 L 320.50,62.73 L 322.41,61.83 L 322.81,63.90 L 321.79,65.57 Z M 374.39,60.56 L 374.66,61.20 L 374.55,61.27 L 374.39,60.56 Z M 325.33,66.55 L 323.37,67.62 L 323.62,68.10 L 323.09,69.12 L 321.99,69.02 L 321.57,67.96 L 323.01,65.93 L 322.68,65.89 L 322.95,64.77 L 322.65,64.71 L 323.12,63.99 L 323.25,61.79 L 324.33,60.24 L 325.26,61.65 L 325.37,63.21 L 324.97,62.54 L 324.40,62.69 L 323.80,65.78 L 324.37,65.42 L 325.33,66.55 Z M 386.00,59.67 L 384.61,59.01 L 384.24,58.35 L 386.00,59.67 Z M 372.98,58.66 L 372.34,58.08 L 372.41,58.04 L 372.98,58.66 Z M 372.15,57.67 L 372.09,57.93 L 371.91,57.46 L 372.15,57.67 Z M 325.57,58.22 L 325.24,58.89 L 324.35,59.04 L 323.80,57.93 L 324.26,57.42 L 325.28,57.55 L 325.57,58.22 Z M 373.03,57.93 L 372.85,57.34 L 373.12,57.32 L 373.03,57.93 Z M 357.94,55.38 L 357.66,55.54 L 357.57,55.27 L 357.94,55.38 Z M 324.79,55.06 L 324.45,54.66 L 324.91,54.44 L 324.79,55.06 Z M 356.50,54.80 L 355.51,55.15 L 355.71,54.32 L 356.50,54.80 Z M 355.17,55.04 L 354.69,54.96 L 354.60,55.70 L 353.79,56.05 L 354.40,55.13 L 352.83,55.98 L 353.13,55.00 L 355.15,54.25 L 355.17,55.04 Z M 357.46,54.96 L 357.12,54.64 L 356.93,55.01 L 356.49,54.13 L 357.42,54.34 L 357.46,54.96 Z M 348.59,55.26 L 345.63,56.67 L 342.75,55.07 L 341.52,52.44 L 342.10,51.50 L 342.75,51.98 L 344.02,51.22 L 346.46,51.24 L 347.94,52.11 L 347.71,52.95 L 348.91,53.28 L 348.59,55.26 Z M 230.07,50.93 L 229.27,50.50 L 229.79,49.99 L 230.35,50.25 L 230.07,50.93 Z M 231.37,50.11 L 230.98,49.91 L 231.26,49.51 L 231.37,50.11 Z M 233.70,49.50 L 233.82,49.74 L 233.27,50.37 L 232.87,49.96 L 233.70,49.50 Z M 369.64,56.70 L 364.88,53.98 L 364.23,53.02 L 362.01,52.81 L 362.33,53.75 L 361.87,53.92 L 358.82,53.18 L 358.94,52.46 L 358.33,52.13 L 357.17,53.70 L 356.04,53.91 L 354.26,52.07 L 354.19,51.19 L 352.79,54.54 L 352.81,52.95 L 352.30,51.92 L 353.82,51.19 L 353.63,50.53 L 354.24,49.75 L 359.35,49.39 L 360.08,50.44 L 361.38,49.30 L 362.20,49.22 L 364.67,50.55 L 367.14,50.69 L 368.30,51.62 L 368.75,53.51 L 369.63,53.72 L 369.96,54.68 L 369.64,56.70 Z M 374.42,48.08 L 374.51,48.08 L 374.03,48.34 L 374.42,48.08 Z M 237.94,51.67 L 237.14,52.29 L 236.60,52.38 L 235.95,51.09 L 235.63,51.88 L 234.39,52.31 L 234.44,50.17 L 234.07,50.16 L 234.79,47.72 L 235.74,47.47 L 236.90,48.28 L 237.28,48.04 L 238.42,49.69 L 237.94,51.67 Z M 391.21,46.66 L 391.48,45.88 L 391.56,45.98 L 391.56,46.72 L 391.21,46.66 Z M 390.66,44.14 L 390.27,44.92 L 390.11,44.44 L 390.42,43.89 L 390.66,44.14 Z M 342.01,47.04 L 341.65,47.02 L 341.01,45.45 L 340.77,44.23 L 341.18,43.62 L 342.01,47.04 Z M 328.72,43.81 L 328.68,43.00 L 329.01,43.37 L 328.72,43.81 Z M 341.15,43.39 L 338.26,43.52 L 337.70,42.84 L 338.09,42.32 L 343.49,42.62 L 341.15,43.39 Z M 324.98,42.65 L 324.52,43.19 L 324.64,42.18 L 324.98,42.65 Z M 389.60,42.46 L 389.19,43.48 L 389.16,42.69 L 389.55,42.07 L 389.60,42.46 Z M 366.88,43.37 L 367.42,43.70 L 367.05,43.95 L 366.84,43.52 L 365.61,44.32 L 363.21,43.05 L 366.87,41.64 L 367.43,42.74 L 366.88,43.37 Z M 337.60,43.06 L 335.82,43.48 L 334.74,43.14 L 333.08,43.91 L 332.28,43.89 L 331.83,42.98 L 332.16,41.58 L 332.94,41.30 L 336.02,42.25 L 336.44,41.68 L 336.89,42.41 L 337.31,42.00 L 337.60,43.06 Z M 405.06,42.49 L 401.38,43.24 L 396.46,41.19 L 405.06,42.49 Z M 229.91,47.85 L 229.26,48.19 L 228.57,50.12 L 229.44,51.24 L 228.16,51.46 L 227.60,50.53 L 224.98,49.51 L 224.52,48.50 L 224.73,47.29 L 224.06,46.58 L 223.78,44.90 L 222.53,44.32 L 221.02,44.79 L 220.09,44.41 L 220.02,43.63 L 221.58,42.38 L 221.27,41.45 L 222.53,40.65 L 223.33,41.50 L 223.09,42.08 L 223.97,42.44 L 223.28,40.65 L 224.56,40.39 L 225.30,41.00 L 226.10,43.10 L 226.23,45.09 L 226.92,46.83 L 229.91,47.85 Z M 395.94,40.32 L 394.56,40.49 L 394.63,40.25 L 395.94,40.32 Z M 354.10,41.59 L 353.52,41.90 L 350.50,42.02 L 349.60,41.34 L 349.89,39.85 L 350.24,40.09 L 351.09,39.25 L 354.07,41.07 L 354.10,41.59 Z M 351.27,38.86 L 350.08,38.61 L 350.58,38.17 L 351.41,38.46 L 351.27,38.86 Z M 327.17,39.97 L 326.47,40.54 L 325.77,39.89 L 325.51,41.34 L 324.74,40.96 L 325.17,40.33 L 324.98,39.06 L 323.49,41.04 L 323.00,40.04 L 323.59,38.21 L 325.20,37.99 L 325.44,39.71 L 326.14,38.57 L 327.02,38.81 L 327.17,39.97 Z M 364.05,38.60 L 363.38,38.37 L 364.05,37.97 L 364.61,38.11 L 364.05,38.60 Z M 393.57,37.92 L 392.83,37.18 L 393.29,36.56 L 393.73,36.93 L 393.58,37.49 L 393.99,37.12 L 393.57,37.92 Z M 370.47,39.42 L 369.29,38.63 L 368.66,36.81 L 370.07,36.24 L 370.90,36.41 L 370.47,39.42 Z M 369.64,36.10 L 367.20,36.51 L 367.66,35.62 L 370.21,35.47 L 369.64,36.10 Z M 400.76,38.51 L 399.15,38.25 L 398.46,35.89 L 397.85,36.22 L 396.67,35.57 L 396.16,34.49 L 398.53,35.27 L 399.06,34.96 L 400.97,37.45 L 402.01,37.64 L 400.76,38.51 Z M 349.02,35.66 L 348.30,35.43 L 348.56,34.40 L 349.02,35.66 Z M 368.61,33.75 L 368.20,33.78 L 368.35,33.32 L 367.56,33.73 L 367.81,33.16 L 368.82,33.12 L 368.61,33.75 Z M 317.65,33.61 L 316.72,33.42 L 316.18,33.87 L 316.82,32.88 L 317.42,32.88 L 317.65,33.61 Z M 216.90,33.31 L 216.38,34.34 L 215.86,34.07 L 215.48,34.67 L 215.06,32.88 L 216.14,32.41 L 216.90,33.31 Z M 318.42,32.92 L 317.46,32.72 L 317.84,32.27 L 318.44,32.41 L 318.42,32.92 Z M 351.79,36.22 L 351.04,35.29 L 350.06,35.73 L 350.13,34.53 L 349.11,33.52 L 349.24,32.46 L 349.99,32.98 L 350.41,32.20 L 350.77,32.36 L 351.40,33.43 L 350.91,34.36 L 351.20,34.98 L 352.57,35.38 L 351.79,36.22 Z M 348.03,33.57 L 348.04,32.10 L 348.41,31.88 L 349.13,32.06 L 348.76,33.49 L 348.03,33.57 Z M 211.99,32.50 L 210.27,32.64 L 210.83,31.66 L 211.99,32.50 Z M 319.64,32.00 L 319.11,31.72 L 319.30,31.47 L 319.64,32.00 Z M 320.46,32.50 L 319.58,31.49 L 320.18,31.71 L 320.46,32.50 Z M 315.92,30.98 L 316.23,31.14 L 316.08,31.49 L 315.92,30.98 Z M 372.71,32.10 L 372.17,32.76 L 370.57,32.60 L 368.51,30.71 L 369.25,32.10 L 370.40,32.64 L 369.28,33.19 L 368.88,32.12 L 368.06,33.12 L 367.92,31.89 L 366.14,31.50 L 367.34,31.49 L 367.24,31.00 L 366.60,31.26 L 366.84,30.67 L 366.96,31.00 L 369.68,30.15 L 371.59,30.71 L 372.43,31.22 L 372.71,32.10 Z M 219.30,32.06 L 218.85,32.41 L 217.69,31.60 L 216.56,31.99 L 215.94,31.44 L 216.70,29.92 L 217.87,31.42 L 218.35,31.08 L 219.30,32.06 Z M 362.19,31.61 L 360.75,29.80 L 360.85,29.79 L 362.17,31.05 L 362.19,31.61 Z M 349.72,30.10 L 349.78,29.11 L 350.03,29.16 L 350.07,30.15 L 349.72,30.10 Z M 216.18,29.96 L 215.80,29.49 L 215.82,28.92 L 216.18,29.96 Z M 217.50,29.90 L 216.26,28.46 L 216.60,28.58 L 217.50,29.90 Z M 215.77,28.12 L 215.38,27.61 L 215.49,27.59 L 215.77,28.12 Z M 349.82,27.97 L 349.48,28.18 L 349.36,27.73 L 349.72,27.52 L 349.82,27.97 Z M 214.98,25.49 L 215.02,25.82 L 214.96,25.78 L 214.66,25.26 L 214.98,25.49 Z M 349.64,24.92 L 349.83,24.92 L 349.99,25.54 L 349.60,25.84 L 349.64,24.92 Z M 214.60,25.14 L 214.55,24.77 L 215.00,24.65 L 215.06,25.26 L 214.60,25.14 Z M 349.22,24.92 L 349.08,24.37 L 349.51,24.35 L 349.22,24.92 Z M 214.43,24.64 L 213.98,23.61 L 214.41,24.05 L 214.72,24.08 L 214.43,24.64 Z M 337.30,20.41 L 336.82,20.57 L 336.76,20.40 L 337.20,20.17 L 337.46,19.46 L 337.30,20.41 Z M 351.56,27.98 L 350.46,26.27 L 351.03,24.41 L 350.28,23.91 L 350.26,22.88 L 349.75,22.96 L 349.72,21.82 L 351.06,17.52 L 352.84,15.10 L 353.50,14.98 L 352.33,17.40 L 353.31,18.31 L 353.31,21.16 L 351.05,23.68 L 352.36,24.55 L 353.18,22.68 L 354.27,22.19 L 353.76,21.49 L 354.41,20.58 L 355.77,19.55 L 357.41,19.33 L 357.30,22.77 L 354.97,23.98 L 354.46,24.81 L 355.34,25.70 L 357.19,26.31 L 357.24,27.74 L 358.02,27.99 L 358.46,28.70 L 355.91,27.41 L 352.70,27.12 L 352.55,29.96 L 353.11,31.94 L 354.55,35.00 L 355.79,36.37 L 353.41,34.93 L 352.55,32.91 L 351.27,31.56 L 351.56,27.98 Z M 338.38,14.10 L 338.03,14.15 L 337.90,13.81 L 338.38,14.10 Z M 356.52,15.63 L 354.79,16.42 L 354.37,14.56 L 355.09,13.23 L 356.52,12.03 L 357.22,13.06 L 356.52,15.63 Z M 338.20,12.03 L 338.03,12.06 L 337.84,11.21 L 338.33,10.94 L 338.20,12.03 Z M 339.34,6.80 L 338.70,6.33 L 338.32,4.45 L 339.54,6.29 L 339.34,6.80 Z M 346.30,3.85 L 346.56,4.31 L 346.30,4.49 L 345.90,3.65 L 346.30,3.85 Z M 345.72,3.19 L 345.62,3.93 L 345.15,2.34 L 345.72,3.19 Z M 346.94,0.71 L 346.22,2.52 L 345.51,2.61 L 346.25,1.11 L 345.71,0.83 L 345.79,0.00 L 346.81,0.00 L 346.94,0.71 Z M 320.66,88.13 L 320.65,88.43 L 320.32,88.38 L 320.66,88.13 Z M 316.78,87.22 L 316.57,87.52 L 316.38,87.21 L 316.78,87.22 Z M 317.30,80.88 L 316.86,81.07 L 316.83,80.82 L 317.30,80.88 Z M 275.27,79.36 L 274.55,79.28 L 274.81,79.03 L 275.27,79.36 Z M 273.94,79.44 L 273.23,78.77 L 273.54,78.56 L 273.94,79.44 Z M 326.30,41.89 L 325.72,42.39 L 325.72,42.13 L 326.30,41.89 Z M 318.68,32.86 L 318.71,31.97 L 318.82,31.94 L 319.08,32.76 L 318.68,32.86 Z M 365.34,83.62 L 365.02,83.52 L 365.05,83.45 L 365.34,83.62 Z M 364.85,83.35 L 364.77,83.06 L 364.88,83.07 L 364.85,83.35 Z M 362.88,81.89 L 363.20,82.05 L 363.09,82.18 L 362.88,81.89 Z M 359.73,78.03 L 359.89,77.95 L 359.92,78.15 L 359.73,78.03 Z M 361.88,76.35 L 362.13,76.31 L 362.03,76.63 L 361.88,76.35 Z M 364.86,73.52 L 364.86,73.47 L 365.02,73.53 L 364.86,73.52 Z M 350.63,67.95 L 350.66,68.03 L 350.61,67.99 L 350.63,67.95 Z M 350.64,67.91 L 350.57,67.88 L 350.63,67.84 L 350.64,67.91 Z M 352.05,67.22 L 352.07,67.27 L 352.00,67.29 L 352.05,67.22 Z M 351.93,66.83 L 351.97,66.90 L 351.92,66.87 L 351.93,66.83 Z M 376.62,66.75 L 376.32,67.14 L 376.30,66.83 L 376.62,66.75 Z M 363.58,61.21 L 363.53,61.31 L 363.46,61.19 L 363.58,61.21 Z M 390.17,24.87 L 390.19,24.96 L 390.05,25.11 L 390.17,24.87 Z M 372.08,23.08 L 372.12,23.01 L 372.12,23.05 L 372.08,23.08 Z M 372.28,22.76 L 372.18,22.95 L 372.17,22.89 L 372.28,22.76 Z M 343.91,20.97 L 343.79,21.31 L 343.59,21.03 L 343.91,20.97 Z M 338.09,15.68 L 337.69,15.82 L 337.81,15.49 L 338.09,15.68 Z M 315.91,103.18 L 315.51,103.15 L 315.73,102.97 L 315.91,103.18 Z M 282.70,79.34 L 282.37,79.57 L 281.82,79.25 L 282.68,78.95 L 282.70,79.34 Z M 392.10,75.21 L 391.81,74.68 L 392.16,74.49 L 392.10,75.21 Z M 251.07,70.24 L 250.91,70.53 L 250.82,70.32 L 251.07,70.24 Z M 389.46,70.08 L 389.22,70.16 L 389.16,69.75 L 389.46,70.08 Z M 385.63,47.39 L 385.20,46.83 L 385.29,46.78 L 385.80,47.03 L 385.63,47.39 Z M 327.60,41.82 L 326.97,41.87 L 327.14,40.31 L 327.60,41.82 Z M 355.59,37.17 L 355.00,36.60 L 355.10,36.59 L 355.59,37.17 Z M 364.37,33.16 L 364.08,33.55 L 363.99,33.09 L 364.37,33.16 Z M 217.80,25.06 L 217.71,25.20 L 217.60,25.06 L 217.80,25.06 Z M 217.26,24.49 L 217.08,24.58 L 217.13,24.30 L 217.26,24.49 Z M 336.77,17.90 L 336.59,18.16 L 336.50,17.56 L 336.77,17.90 Z" fill="#E8E0D0" stroke="#B8B0A0" stroke-width="0.5"/>
<path d="M 292.87,1.08 L 293.23,0.81 L 294.42,1.57 L 292.87,1.08 Z M 210.47,0.54 L 209.55,4.31 L 210.39,6.00 L 210.15,10.05 L 211.30,11.77 L 212.04,11.93 L 213.11,14.05 L 214.89,18.87 L 215.02,20.73 L 214.03,20.68 L 213.75,19.92 L 214.27,19.51 L 213.72,19.78 L 213.21,18.80 L 213.46,20.17 L 211.64,20.16 L 210.77,20.63 L 210.59,21.40 L 209.72,19.56 L 205.83,17.35 L 204.93,15.99 L 202.65,14.77 L 201.69,13.67 L 200.97,13.67 L 200.44,12.35 L 197.60,10.55 L 198.10,9.50 L 197.66,7.63 L 196.17,5.24 L 194.84,4.11 L 195.03,3.67 L 194.24,3.45 L 194.22,2.76 L 195.18,2.52 L 193.79,1.58 L 193.40,0.45 L 193.53,0.00 L 210.43,0.00 L 210.47,0.54 Z M 298.21,0.15 L 294.86,1.06 L 293.35,0.00 L 298.36,0.00 L 298.21,0.15 Z M 292.79,1.43 L 292.44,1.55 L 290.32,0.20 L 286.75,0.37 L 286.43,0.00 L 292.93,0.00 L 292.79,1.43 Z M 285.71,0.66 L 285.12,0.01 L 284.05,0.04 L 283.43,0.78 L 282.44,0.00 L 286.28,0.00 L 285.71,0.66 Z M 280.63,3.19 L 280.99,6.56 L 280.50,7.06 L 280.19,9.30 L 279.29,9.61 L 278.90,9.23 L 277.89,10.66 L 277.82,12.20 L 278.69,12.88 L 276.20,14.69 L 276.51,17.05 L 275.62,17.48 L 274.84,20.27 L 273.85,19.77 L 272.67,20.37 L 271.14,20.21 L 269.48,21.69 L 268.89,21.10 L 265.59,20.40 L 265.98,19.72 L 265.68,19.34 L 262.75,19.35 L 260.95,20.27 L 260.55,22.27 L 259.49,22.47 L 258.98,23.20 L 257.81,23.05 L 257.12,23.54 L 255.34,22.74 L 251.59,24.28 L 249.89,23.29 L 249.35,22.06 L 246.37,19.15 L 246.27,17.89 L 245.61,17.14 L 246.29,15.81 L 246.57,17.26 L 247.94,18.50 L 250.05,18.62 L 250.28,17.74 L 250.63,18.45 L 251.32,18.16 L 251.07,18.99 L 252.59,19.49 L 252.31,20.17 L 252.98,19.32 L 255.01,20.70 L 255.54,20.54 L 256.17,20.96 L 256.42,20.82 L 254.56,20.08 L 254.22,19.24 L 254.74,18.53 L 255.23,18.95 L 255.74,18.94 L 254.74,17.93 L 255.38,15.91 L 255.75,15.92 L 255.66,15.52 L 256.15,15.61 L 256.39,15.27 L 255.26,15.39 L 255.47,13.53 L 256.31,14.04 L 257.06,14.01 L 256.54,13.06 L 257.22,13.01 L 256.62,12.57 L 256.85,11.54 L 258.09,10.59 L 265.88,8.40 L 268.37,4.34 L 271.35,0.76 L 271.41,0.00 L 273.19,0.00 L 273.31,0.82 L 274.11,0.86 L 275.32,2.53 L 276.13,1.74 L 276.57,0.00 L 278.35,0.00 L 279.50,0.49 L 279.37,0.00 L 282.39,0.00 L 280.63,3.19 Z M 256.01,13.42 L 256.02,11.00 L 256.41,11.59 L 256.58,13.70 L 256.01,13.42 Z M 214.63,11.47 L 214.17,11.26 L 214.40,10.26 L 214.63,11.47 Z M 197.44,9.31 L 197.31,9.27 L 197.46,9.13 L 197.44,9.31 Z M 197.88,9.45 L 197.49,9.75 L 197.71,9.08 L 197.88,9.45 Z" fill="#E8E0D0" stroke="#B8B0A0" stroke-width="0.5"/>
<path d="M 331.72,95.31 L 331.14,94.56 L 330.44,94.85 L 330.09,94.30 L 332.54,93.19 L 331.72,95.31 Z M 336.30,90.55 L 336.58,89.42 L 337.96,89.01 L 340.70,88.41 L 341.97,88.67 L 343.97,87.96 L 344.77,88.43 L 347.20,87.21 L 349.22,87.94 L 347.52,89.72 L 344.97,90.62 L 344.32,91.56 L 339.20,93.26 L 336.10,95.29 L 335.50,93.41 L 336.62,93.23 L 336.69,92.37 L 336.25,91.86 L 335.35,92.46 L 335.27,91.69 L 336.30,90.55 Z M 339.53,86.06 L 339.08,87.26 L 338.68,86.94 L 339.53,86.06 Z" fill="#E8E0D0" stroke="#B8B0A0" stroke-width="0.5"/>
<path d="M 279.50,0.49 L 278.35,0.00 L 279.41,0.00 L 279.50,0.49 Z M 276.13,1.74 L 275.32,2.53 L 274.11,0.86 L 273.31,0.82 L 273.19,0.00 L 276.57,0.00 L 276.13,1.74 Z" fill="#E8E0D0" stroke="#B8B0A0" stroke-width="0.5"/>
<path d="M 430.56,48.28 L 434.11,50.48 L 434.84,50.46 L 435.14,51.15 L 443.65,53.73 L 446.55,56.25 L 447.82,56.70 L 448.23,56.22 L 449.42,56.35 L 449.68,57.46 L 451.48,58.28 L 452.71,60.05 L 454.27,60.28 L 456.92,63.39 L 456.68,67.75 L 460.77,68.59 L 464.58,71.13 L 465.91,70.87 L 466.88,71.34 L 468.72,73.65 L 468.88,76.09 L 463.69,76.47 L 463.65,77.90 L 464.33,78.31 L 465.00,81.39 L 466.74,82.45 L 468.14,84.62 L 470.58,85.40 L 471.07,88.89 L 472.33,89.72 L 473.14,92.39 L 474.15,92.66 L 476.38,91.78 L 477.36,92.07 L 477.50,92.95 L 476.62,94.48 L 476.88,95.30 L 478.13,96.01 L 481.67,96.65 L 479.81,97.51 L 480.53,98.92 L 484.89,100.24 L 485.04,100.73 L 486.47,100.37 L 485.19,101.15 L 483.52,101.07 L 483.49,101.57 L 485.15,102.10 L 485.39,102.72 L 482.61,103.64 L 480.53,102.60 L 481.86,101.99 L 481.12,101.75 L 480.94,102.18 L 479.92,101.15 L 478.52,101.33 L 477.70,100.72 L 474.09,100.43 L 473.75,99.54 L 473.45,100.11 L 472.07,100.20 L 470.63,99.31 L 469.60,99.96 L 468.96,99.12 L 468.08,99.50 L 465.71,95.65 L 464.62,94.92 L 464.31,95.20 L 463.29,93.80 L 463.25,92.86 L 463.77,92.48 L 463.76,92.18 L 463.16,92.68 L 461.59,91.99 L 461.27,91.21 L 461.61,90.59 L 460.19,88.94 L 458.66,85.65 L 456.90,85.13 L 456.86,84.48 L 454.83,84.70 L 453.33,83.75 L 451.55,83.58 L 451.39,82.12 L 451.23,82.90 L 450.24,82.07 L 449.95,82.73 L 449.47,81.62 L 449.42,82.83 L 448.80,81.74 L 449.39,83.70 L 448.57,83.32 L 448.24,82.41 L 448.37,82.94 L 447.76,82.73 L 448.04,83.49 L 447.68,83.68 L 445.56,82.69 L 445.06,81.69 L 444.37,81.22 L 446.18,84.89 L 445.29,84.62 L 445.93,85.13 L 445.07,85.36 L 442.72,84.37 L 443.86,85.39 L 444.17,86.73 L 440.36,87.40 L 438.86,86.88 L 437.66,87.37 L 436.88,86.23 L 436.09,86.27 L 435.63,86.58 L 436.84,86.38 L 437.41,87.65 L 439.02,87.26 L 441.20,88.29 L 442.91,90.36 L 442.77,91.95 L 438.58,94.22 L 436.01,93.04 L 432.57,93.56 L 430.97,92.92 L 429.84,93.55 L 428.82,92.68 L 428.82,77.50 L 428.07,76.17 L 428.82,73.65 L 428.80,47.99 L 430.56,48.28 Z M 502.09,110.06 L 501.03,109.53 L 501.09,109.09 L 500.54,109.29 L 500.74,108.91 L 500.06,107.87 L 503.30,109.72 L 502.09,110.06 Z M 506.25,108.58 L 504.73,108.34 L 505.52,108.22 L 505.21,107.83 L 506.33,108.08 L 506.25,108.58 Z M 500.02,107.50 L 499.47,106.97 L 500.34,107.36 L 500.02,107.50 Z M 498.11,103.46 L 497.42,103.69 L 496.18,103.12 L 498.11,103.46 Z M 487.48,103.42 L 486.77,103.50 L 486.82,102.94 L 487.64,102.98 L 487.48,103.42 Z M 486.58,103.27 L 486.00,103.22 L 486.43,103.11 L 485.99,102.53 L 486.48,102.51 L 486.58,103.27 Z M 488.96,98.60 L 488.56,100.20 L 486.96,99.54 L 487.16,98.78 L 486.67,98.80 L 485.83,96.78 L 487.73,99.01 L 488.96,98.60 Z M 483.91,96.29 L 484.37,95.71 L 483.90,94.46 L 486.03,94.88 L 486.81,96.43 L 486.28,96.86 L 486.05,96.43 L 483.91,96.29 Z M 483.20,95.52 L 482.04,94.01 L 482.63,93.37 L 483.53,94.51 L 483.20,95.52 Z M 498.45,93.27 L 498.67,93.71 L 497.37,93.20 L 497.32,93.74 L 496.79,93.21 L 497.14,92.95 L 495.78,92.26 L 495.66,91.71 L 495.49,92.53 L 495.30,91.89 L 495.67,91.57 L 497.66,91.98 L 498.83,92.92 L 498.45,93.27 Z M 488.04,90.79 L 487.46,90.08 L 487.92,89.09 L 487.20,88.64 L 487.96,87.96 L 488.01,89.14 L 488.04,90.79 Z M 444.27,90.10 L 441.65,87.96 L 443.37,88.69 L 444.27,90.10 Z M 442.45,87.64 L 443.95,87.65 L 444.16,88.35 L 442.45,87.64 Z M 469.68,70.36 L 468.39,68.68 L 468.40,67.96 L 470.02,68.64 L 469.68,70.36 Z M 515.93,76.80 L 515.84,76.34 L 514.57,77.37 L 512.43,76.29 L 511.52,74.97 L 511.76,73.52 L 510.46,72.78 L 509.09,70.98 L 508.76,69.74 L 509.17,68.31 L 508.76,67.43 L 509.88,68.28 L 510.89,68.24 L 511.75,70.45 L 512.67,71.05 L 513.44,72.64 L 514.23,72.57 L 515.25,73.85 L 515.95,75.75 L 515.93,76.80 Z M 470.58,67.36 L 470.44,67.67 L 470.18,67.42 L 470.58,67.36 Z M 467.68,66.68 L 467.40,66.97 L 467.18,66.59 L 467.68,66.68 Z M 465.33,66.91 L 464.85,67.53 L 463.94,66.67 L 464.56,65.79 L 465.33,66.91 Z M 508.70,67.41 L 508.37,67.63 L 507.80,65.42 L 508.32,64.56 L 508.92,65.93 L 508.70,67.41 Z M 476.54,63.53 L 476.61,63.64 L 476.47,63.95 L 476.54,63.53 Z M 459.50,63.01 L 459.62,63.34 L 459.43,63.47 L 459.50,63.01 Z M 478.83,62.23 L 478.82,62.54 L 478.20,62.36 L 478.83,62.23 Z M 458.40,62.14 L 457.73,62.83 L 457.38,62.07 L 458.06,61.27 L 458.40,62.14 Z M 495.14,61.08 L 495.43,62.30 L 494.73,64.03 L 492.88,64.36 L 492.90,65.49 L 493.89,66.85 L 493.61,67.60 L 492.07,68.55 L 489.91,68.14 L 490.31,69.04 L 488.27,71.10 L 486.17,71.44 L 486.02,72.17 L 484.09,73.23 L 479.26,73.46 L 478.40,72.17 L 477.42,71.72 L 475.86,72.45 L 475.87,71.39 L 474.79,71.29 L 474.18,70.40 L 471.98,69.80 L 471.65,69.17 L 472.24,67.53 L 472.97,68.18 L 473.53,67.78 L 474.67,68.19 L 475.43,67.67 L 476.86,68.59 L 478.46,68.52 L 479.46,67.76 L 479.74,68.38 L 480.87,68.01 L 481.30,67.36 L 480.90,66.87 L 481.54,66.02 L 481.46,65.06 L 482.04,64.53 L 482.56,64.90 L 481.57,66.50 L 482.32,68.23 L 483.17,68.33 L 484.14,67.55 L 485.08,68.30 L 486.10,67.52 L 486.72,67.81 L 487.28,67.29 L 487.69,65.60 L 489.36,63.81 L 490.78,64.24 L 491.16,63.79 L 490.36,58.82 L 491.97,59.07 L 492.83,59.88 L 493.08,58.92 L 494.11,58.58 L 494.47,59.22 L 494.07,59.05 L 494.12,59.72 L 495.47,59.98 L 495.14,61.08 Z M 452.84,58.40 L 452.48,58.45 L 452.41,58.00 L 452.84,58.40 Z M 500.22,53.79 L 500.37,54.16 L 500.30,54.16 L 500.22,53.79 Z M 500.86,53.33 L 500.86,53.59 L 500.42,53.50 L 500.86,53.33 Z M 508.86,53.44 L 508.95,53.90 L 507.91,52.15 L 508.86,53.44 Z M 496.78,52.28 L 496.13,51.25 L 496.82,51.05 L 496.78,52.28 Z M 487.36,50.53 L 485.87,50.59 L 486.52,50.07 L 487.36,50.53 Z M 493.18,50.71 L 492.87,49.69 L 493.17,50.02 L 493.18,50.71 Z M 492.96,49.57 L 492.54,49.66 L 492.53,48.71 L 492.96,49.57 Z M 492.80,48.17 L 493.03,47.95 L 493.25,48.28 L 492.80,48.17 Z M 499.10,60.94 L 499.30,61.74 L 498.26,63.43 L 497.05,61.37 L 497.04,58.73 L 494.71,54.65 L 491.92,53.21 L 487.74,49.58 L 485.81,49.15 L 485.81,48.75 L 486.58,48.66 L 486.12,47.68 L 488.47,49.84 L 489.76,50.11 L 491.95,52.02 L 493.34,52.43 L 495.51,55.24 L 495.98,55.25 L 496.38,56.37 L 497.83,56.72 L 498.11,57.54 L 498.54,57.50 L 499.66,59.45 L 499.10,60.94 Z M 484.01,48.39 L 482.47,48.53 L 481.14,47.04 L 482.59,46.44 L 484.09,47.52 L 484.01,48.39 Z M 468.90,46.09 L 468.16,46.11 L 468.49,46.01 L 468.72,45.50 L 468.90,46.09 Z M 466.42,44.28 L 465.61,44.30 L 465.10,45.14 L 462.17,44.65 L 462.32,45.08 L 461.41,45.43 L 461.11,44.89 L 461.68,44.60 L 461.46,43.83 L 461.91,43.61 L 466.33,44.18 L 466.12,43.60 L 466.42,44.28 Z M 480.18,40.98 L 479.44,40.95 L 478.70,39.92 L 479.16,39.42 L 480.18,40.98 Z M 506.16,61.22 L 506.04,61.59 L 505.76,61.35 L 506.09,61.23 L 505.80,60.80 L 506.16,61.22 Z M 505.47,60.19 L 505.53,60.14 L 505.59,60.33 L 505.47,60.19 Z M 495.98,58.78 L 495.90,59.05 L 495.55,58.72 L 495.98,58.78 Z M 502.77,58.22 L 502.53,58.50 L 502.30,58.21 L 502.77,58.22 Z M 503.13,57.88 L 502.81,57.79 L 502.86,57.72 L 503.13,57.88 Z M 493.61,101.51 L 493.67,101.51 L 493.66,101.57 L 493.61,101.51 Z M 492.27,101.14 L 492.32,101.12 L 492.27,101.19 L 492.27,101.14 Z M 492.23,100.54 L 492.20,100.64 L 492.18,100.61 L 492.23,100.54 Z M 450.03,54.23 L 450.04,54.28 L 449.90,54.29 L 450.03,54.23 Z M 446.99,52.03 L 447.21,52.31 L 447.10,52.44 L 446.99,52.03 Z M 439.63,41.78 L 439.82,41.83 L 439.70,41.89 L 439.63,41.78 Z M 487.31,96.55 L 486.97,96.02 L 487.34,96.02 L 487.31,96.55 Z M 445.34,88.73 L 445.24,88.78 L 445.15,88.61 L 445.34,88.73 Z M 444.38,88.01 L 443.75,87.49 L 444.32,87.42 L 444.38,88.01 Z M 444.49,86.23 L 444.09,85.84 L 444.18,85.73 L 444.49,86.23 Z M 444.63,85.77 L 443.89,85.29 L 444.17,85.22 L 444.63,85.77 Z M 488.41,64.11 L 487.90,63.96 L 488.05,63.76 L 488.41,64.11 Z M 443.65,53.21 L 443.61,52.93 L 444.06,53.13 L 443.65,53.21 Z M 480.96,41.70 L 480.87,41.48 L 481.17,41.32 L 481.41,41.61 L 480.96,41.70 Z" fill="#E8E0D0" stroke="#B8B0A0" stroke-width="0.5"/>
<path d="M 185.27,488.71 L 187.36,487.36 L 187.54,488.15 L 191.73,486.49 L 193.02,487.10 L 193.86,486.68 L 192.85,486.26 L 195.08,486.14 L 198.70,483.93 L 196.91,483.74 L 197.89,483.15 L 203.72,483.20 L 205.91,482.58 L 211.14,483.60 L 212.87,483.39 L 227.07,486.51 L 235.42,487.32 L 236.00,487.88 L 234.97,488.60 L 235.02,489.36 L 237.91,487.84 L 238.45,488.73 L 240.33,489.15 L 241.71,490.21 L 243.26,489.61 L 246.09,489.85 L 250.79,488.04 L 252.69,488.44 L 251.87,487.17 L 252.58,486.32 L 251.21,485.65 L 253.76,483.91 L 267.02,481.92 L 274.17,485.09 L 273.46,485.99 L 274.48,486.39 L 273.54,487.03 L 278.15,486.82 L 281.27,487.75 L 282.04,488.95 L 279.74,490.43 L 271.84,491.71 L 269.60,493.59 L 269.94,493.84 L 275.57,492.76 L 275.06,493.26 L 275.56,493.32 L 278.97,492.55 L 278.70,492.40 L 279.46,491.91 L 282.42,491.95 L 284.67,491.06 L 285.40,491.43 L 288.81,490.05 L 288.46,491.34 L 292.31,490.97 L 293.30,491.58 L 297.46,490.62 L 296.44,491.42 L 297.64,491.67 L 302.70,491.28 L 308.66,489.95 L 309.21,490.25 L 299.23,492.32 L 300.54,493.30 L 315.44,491.04 L 319.36,489.41 L 327.34,488.68 L 330.01,487.58 L 331.44,487.62 L 332.08,488.06 L 331.90,488.46 L 334.09,488.75 L 336.61,488.06 L 338.13,486.40 L 341.22,485.61 L 342.59,486.76 L 343.48,486.76 L 343.74,487.39 L 344.08,485.97 L 344.79,486.58 L 346.55,486.62 L 344.89,488.11 L 346.34,488.28 L 345.53,488.73 L 345.54,489.34 L 347.76,489.36 L 347.39,489.94 L 347.88,490.10 L 347.87,491.33 L 348.47,490.32 L 349.51,489.93 L 349.73,490.87 L 353.65,490.56 L 354.17,491.10 L 356.25,491.40 L 357.67,490.58 L 359.42,491.60 L 361.63,490.12 L 361.33,489.43 L 362.45,488.54 L 361.81,488.28 L 363.25,486.54 L 365.47,485.43 L 368.15,485.33 L 368.98,484.56 L 375.11,485.20 L 379.31,484.57 L 381.34,484.84 L 383.95,484.08 L 386.96,484.26 L 390.66,485.67 L 388.81,487.00 L 390.21,487.10 L 392.64,485.85 L 395.04,485.81 L 394.97,485.33 L 395.73,485.01 L 396.00,484.22 L 396.88,484.32 L 397.77,485.44 L 397.67,485.92 L 400.57,485.15 L 403.00,486.35 L 403.65,487.25 L 404.09,486.81 L 403.53,486.67 L 403.65,486.28 L 404.11,485.93 L 408.32,485.90 L 412.30,486.96 L 412.25,487.82 L 413.68,487.20 L 418.77,487.43 L 422.35,488.29 L 422.09,489.01 L 426.14,488.51 L 430.59,489.45 L 432.32,488.89 L 434.67,489.03 L 437.56,490.58 L 439.57,490.54 L 443.56,489.34 L 445.62,489.85 L 445.72,490.91 L 444.98,491.36 L 446.83,490.99 L 447.10,491.62 L 447.75,490.57 L 449.41,490.51 L 450.29,491.20 L 449.67,491.75 L 448.30,491.58 L 449.42,492.01 L 448.18,493.27 L 447.46,492.79 L 446.93,493.32 L 447.53,494.49 L 445.73,495.77 L 445.50,496.22 L 446.17,496.13 L 445.73,496.82 L 447.34,496.49 L 447.24,496.95 L 447.88,496.96 L 449.16,495.86 L 451.70,495.47 L 453.88,493.95 L 454.84,493.94 L 455.84,495.47 L 456.53,494.48 L 458.36,494.43 L 459.19,494.68 L 459.41,495.12 L 458.72,495.55 L 459.83,496.25 L 460.65,495.43 L 461.16,495.69 L 460.47,496.94 L 463.16,496.84 L 461.33,498.26 L 461.59,498.50 L 464.28,497.54 L 464.23,498.20 L 462.26,499.36 L 464.53,499.29 L 464.31,500.00 L 184.91,500.00 L 184.91,488.54 L 185.27,488.71 Z M 467.76,499.72 L 468.51,500.00 L 465.62,500.00 L 467.76,499.72 Z M 477.83,499.91 L 478.11,500.00 L 477.65,500.00 L 477.83,499.91 Z M 479.54,499.81 L 481.13,500.00 L 479.88,500.00 L 479.54,499.81 Z M 486.95,499.63 L 487.39,500.00 L 485.07,500.00 L 486.95,499.63 Z M 502.83,499.86 L 502.98,499.33 L 503.98,499.19 L 506.29,500.00 L 503.02,500.00 L 502.83,499.86 Z M 568.33,493.36 L 568.04,493.94 L 566.77,494.10 L 566.77,492.19 L 568.33,493.36 Z M 558.23,489.33 L 557.59,488.39 L 558.63,488.45 L 558.83,489.29 L 558.23,489.33 Z M 310.76,489.79 L 311.66,489.62 L 309.41,490.06 L 310.76,489.79 Z M 313.58,488.94 L 311.76,489.35 L 312.72,488.95 L 313.58,488.94 Z M 554.47,487.21 L 552.98,486.26 L 553.32,486.01 L 553.02,485.28 L 554.94,486.71 L 554.47,487.21 Z M 191.58,485.06 L 190.48,484.94 L 191.30,484.32 L 191.89,484.43 L 191.58,485.06 Z M 196.08,482.25 L 195.37,482.70 L 192.43,482.53 L 194.75,482.00 L 196.08,482.25 Z M 196.67,479.49 L 197.45,480.37 L 195.74,481.35 L 191.84,481.19 L 191.87,480.35 L 193.40,479.43 L 196.67,479.49 Z M 210.00,479.75 L 208.58,479.83 L 208.19,478.76 L 206.14,477.89 L 208.12,477.86 L 210.00,479.75 Z" fill="#E8E0D0" stroke="#B8B0A0" stroke-width="0.5"/>
<path d="M 575.91,379.70 L 574.51,379.83 L 574.15,379.46 L 575.91,379.70 Z M 593.21,391.48 L 592.16,391.08 L 593.15,390.58 L 593.53,390.93 L 593.21,391.48 Z M 575.55,378.33 L 575.91,378.38 L 575.31,378.43 L 575.95,378.80 L 575.99,379.46 L 574.95,379.32 L 575.08,379.02 L 574.83,378.78 L 574.72,379.36 L 573.99,379.46 L 574.16,378.80 L 575.05,378.26 L 575.15,377.30 L 576.27,377.34 L 575.55,378.33 Z M 578.30,360.30 L 577.90,360.16 L 578.20,359.86 L 578.30,360.30 Z M 583.06,354.43 L 583.25,354.51 L 582.90,354.69 L 583.06,354.43 Z M 584.39,351.60 L 584.28,351.48 L 584.46,351.34 L 584.39,351.60 Z M 589.77,351.32 L 589.52,351.64 L 589.40,351.36 L 589.77,351.32 Z M 587.75,353.59 L 585.67,354.30 L 584.87,353.95 L 584.01,354.46 L 584.65,354.42 L 584.33,354.80 L 583.45,354.88 L 585.16,352.40 L 585.00,350.93 L 586.05,350.94 L 587.29,352.07 L 586.29,352.29 L 586.05,352.82 L 587.58,352.81 L 587.75,353.59 Z M 578.90,344.27 L 578.38,344.34 L 578.22,343.79 L 577.54,344.25 L 577.89,343.64 L 578.74,343.50 L 578.90,344.27 Z M 580.40,340.87 L 580.62,341.33 L 579.80,340.94 L 580.26,340.39 L 580.40,340.87 Z M 613.90,329.42 L 614.39,329.66 L 613.51,329.92 L 615.09,329.96 L 615.09,330.76 L 615.07,330.69 L 615.09,330.91 L 615.09,331.73 L 614.31,331.58 L 613.99,330.97 L 612.01,331.40 L 613.32,330.90 L 611.98,330.59 L 611.74,331.47 L 605.73,334.31 L 604.73,336.15 L 604.90,338.62 L 603.29,340.90 L 602.94,342.58 L 601.54,344.12 L 602.32,344.60 L 601.14,345.42 L 602.42,344.63 L 602.43,345.29 L 599.84,346.01 L 599.16,347.32 L 597.31,348.51 L 597.01,349.35 L 595.91,349.52 L 596.47,349.57 L 596.17,349.91 L 592.28,350.82 L 591.42,350.64 L 591.16,349.98 L 589.84,349.90 L 589.69,350.36 L 588.37,349.85 L 588.44,350.39 L 587.80,349.75 L 588.49,349.57 L 588.39,349.00 L 588.00,349.42 L 587.24,348.45 L 585.30,348.84 L 584.57,347.50 L 583.85,347.23 L 583.05,347.17 L 582.78,347.86 L 582.14,348.02 L 579.03,347.65 L 578.50,347.19 L 580.14,345.75 L 578.18,346.74 L 579.30,345.66 L 578.62,345.73 L 578.92,345.18 L 577.36,346.11 L 577.44,344.81 L 579.77,344.60 L 580.54,344.06 L 579.10,344.20 L 579.78,343.73 L 579.12,343.78 L 579.15,343.35 L 580.37,343.22 L 580.74,342.64 L 578.75,343.22 L 579.06,342.08 L 580.14,342.27 L 579.40,341.45 L 579.78,341.21 L 580.69,341.75 L 580.48,342.20 L 580.98,341.89 L 581.62,342.55 L 580.69,341.51 L 582.22,341.42 L 580.69,341.12 L 580.49,340.18 L 581.41,340.54 L 580.74,339.97 L 581.11,339.54 L 581.54,340.20 L 582.02,339.91 L 581.30,339.32 L 582.37,339.52 L 581.58,339.02 L 582.66,338.18 L 583.41,339.22 L 583.08,337.82 L 583.65,337.79 L 583.73,338.46 L 583.61,337.44 L 584.37,337.65 L 583.88,337.19 L 584.80,336.54 L 585.85,337.18 L 585.29,335.87 L 588.40,332.67 L 590.92,332.38 L 594.51,330.00 L 596.25,329.47 L 598.50,327.30 L 599.28,327.16 L 599.58,326.26 L 602.89,324.45 L 605.03,321.75 L 606.45,317.05 L 608.70,316.36 L 609.96,314.63 L 610.36,313.79 L 610.17,311.01 L 612.50,308.97 L 613.00,309.07 L 613.02,308.54 L 614.44,308.37 L 615.09,308.48 L 615.09,308.51 L 613.87,308.50 L 613.39,309.37 L 614.53,310.71 L 615.09,310.52 L 615.09,326.13 L 614.88,326.23 L 613.91,327.45 L 613.90,329.42 Z M 610.39,264.86 L 610.21,264.70 L 610.35,264.72 L 610.39,264.86 Z M 613.47,267.00 L 613.64,266.53 L 615.09,266.53 L 615.09,267.05 L 614.83,267.42 L 615.09,267.49 L 615.09,268.84 L 613.47,267.00 Z" fill="#E8E0D0" stroke="#B8B0A0" stroke-width="0.5"/>
<path d="M 562.63,167.97 L 562.65,167.54 L 562.75,167.58 L 562.63,167.97 Z M 583.65,185.65 L 582.86,185.69 L 582.94,184.99 L 583.65,185.65 Z M 579.50,184.18 L 579.26,184.44 L 579.08,184.36 L 579.50,184.18 Z M 586.98,178.67 L 586.20,178.89 L 585.43,178.52 L 585.13,177.03 L 586.17,176.70 L 586.29,177.50 L 587.04,177.36 L 586.98,178.67 Z M 577.26,172.47 L 576.87,172.51 L 576.96,172.46 L 577.26,172.47 Z M 582.69,175.62 L 581.12,174.75 L 580.54,173.78 L 581.53,173.09 L 580.68,172.80 L 580.76,172.44 L 582.17,172.42 L 582.06,173.66 L 582.94,174.58 L 582.69,175.62 Z M 577.97,171.30 L 578.26,171.62 L 577.47,172.42 L 578.11,170.67 L 577.88,170.28 L 578.30,170.44 L 577.97,171.30 Z M 579.93,183.98 L 579.49,183.31 L 579.12,183.95 L 577.77,182.89 L 577.14,183.38 L 577.11,182.44 L 576.60,182.82 L 576.50,182.26 L 575.23,181.88 L 575.54,181.43 L 574.95,180.51 L 574.61,181.01 L 573.49,180.29 L 573.04,179.34 L 572.71,179.62 L 570.46,178.35 L 568.68,176.47 L 568.48,176.82 L 567.55,174.83 L 567.09,175.01 L 566.76,174.02 L 565.13,172.84 L 565.30,172.50 L 563.66,170.34 L 563.91,169.80 L 562.91,169.34 L 563.27,169.08 L 562.89,168.09 L 564.78,169.71 L 564.73,169.14 L 565.83,169.58 L 568.46,172.22 L 570.03,172.77 L 572.40,176.23 L 576.75,178.92 L 578.58,181.13 L 580.06,181.81 L 580.62,182.89 L 579.93,183.98 Z M 563.93,168.37 L 563.89,167.95 L 563.93,167.95 L 564.25,168.47 L 563.93,168.37 Z M 561.02,166.06 L 560.74,164.94 L 560.90,165.09 L 561.02,166.06 Z M 605.72,183.64 L 605.71,183.66 L 605.69,183.65 L 605.72,183.64 Z" fill="#E8E0D0" stroke="#B8B0A0" stroke-width="0.5"/>
<path d="M 615.07,18.94 L 615.09,18.96 L 615.09,19.04 L 615.07,18.94 Z M 615.09,16.94 L 615.09,17.03 L 615.01,16.91 L 614.99,16.78 L 615.09,16.94 Z M 614.04,9.35 L 614.37,9.07 L 614.71,9.01 L 614.03,9.44 L 614.04,9.35 Z M 615.09,8.64 L 615.09,8.67 L 614.71,8.83 L 615.04,8.64 L 615.09,8.64 Z M 595.11,36.04 L 595.24,35.95 L 595.30,36.07 L 595.11,36.04 Z" fill="#E8E0D0" stroke="#B8B0A0" stroke-width="0.5"/>
<path d="M 223.28,102.70 L 222.64,102.37 L 222.69,101.94 L 223.33,101.78 L 223.28,102.70 Z" fill="#E8E0D0" stroke="#B8B0A0" stroke-width="0.5"/>
<path d="M 212.47,21.43 L 211.31,21.04 L 211.71,20.30 L 213.18,20.57 L 212.47,21.43 Z" fill="#E8E0D0" stroke="#B8B0A0" stroke-width="0.5"/>
<path d="M 586.05,229.90 L 585.81,229.80 L 585.81,229.33 L 586.05,229.90 Z" fill="#E8E0D0" stroke="#B8B0A0" stroke-width="0.5"/>
<path d="M 543.03,111.15 L 542.45,111.50 L 541.22,110.04 L 539.78,109.82 L 539.46,109.15 L 540.15,109.09 L 543.03,111.15 Z M 538.70,107.74 L 538.78,107.92 L 538.34,107.64 L 538.70,107.74 Z M 549.64,100.41 L 549.72,100.24 L 549.94,100.55 L 549.64,100.41 Z M 551.93,104.48 L 550.08,103.87 L 548.52,102.70 L 548.44,101.33 L 547.12,101.05 L 547.21,100.25 L 550.33,101.89 L 551.95,101.96 L 552.97,103.58 L 552.87,104.42 L 553.47,104.48 L 551.93,104.48 Z M 581.38,97.92 L 581.41,97.85 L 581.56,98.04 L 581.38,97.92 Z M 581.03,97.46 L 581.05,97.48 L 581.02,97.49 L 581.03,97.46 Z M 550.87,96.90 L 551.16,96.67 L 551.08,96.90 L 551.16,97.80 L 550.87,96.90 Z M 547.53,94.28 L 548.64,96.11 L 548.72,97.37 L 547.80,96.56 L 547.76,94.79 L 547.53,94.28 Z M 543.39,98.39 L 541.50,97.55 L 538.68,97.41 L 537.32,95.54 L 537.36,94.08 L 538.14,93.74 L 539.29,94.93 L 541.77,94.79 L 543.30,95.95 L 544.45,97.70 L 543.39,98.39 Z M 538.50,92.85 L 538.66,92.66 L 538.73,92.95 L 538.50,92.85 Z M 541.47,92.38 L 542.05,92.86 L 541.77,93.23 L 541.12,93.04 L 541.47,92.38 Z M 535.19,92.11 L 534.83,92.90 L 534.85,92.59 L 535.19,92.11 Z M 540.50,91.88 L 541.39,92.38 L 541.18,92.86 L 540.20,92.34 L 540.50,91.88 Z M 534.67,92.66 L 534.04,92.42 L 534.35,91.91 L 534.79,92.08 L 534.67,92.66 Z M 540.07,91.62 L 540.18,91.54 L 540.30,91.91 L 540.07,91.62 Z M 525.79,90.55 L 524.80,90.04 L 525.36,89.84 L 525.79,90.55 Z M 528.88,90.55 L 529.20,89.75 L 529.33,90.15 L 528.88,90.55 Z M 528.76,88.83 L 528.37,89.28 L 528.60,89.83 L 527.74,90.28 L 527.28,89.77 L 527.40,88.95 L 528.76,88.83 Z M 524.08,89.54 L 524.57,90.08 L 523.33,88.97 L 524.19,87.92 L 524.57,88.50 L 524.08,89.54 Z M 537.02,88.32 L 537.06,87.76 L 537.52,87.72 L 537.82,88.57 L 537.02,88.32 Z M 555.57,87.65 L 555.70,87.68 L 555.66,87.73 L 555.57,87.65 Z M 544.69,93.00 L 543.14,87.32 L 544.06,87.26 L 545.44,89.23 L 545.15,90.67 L 546.34,91.61 L 547.12,93.23 L 546.83,93.88 L 547.68,95.45 L 547.56,96.20 L 544.69,93.00 Z M 523.05,87.40 L 522.29,86.41 L 522.75,86.48 L 523.05,87.40 Z M 523.17,86.93 L 522.73,86.17 L 523.25,86.36 L 523.17,86.93 Z M 521.14,85.56 L 521.24,85.86 L 520.91,85.67 L 521.14,85.56 Z M 526.93,89.33 L 525.53,88.08 L 525.45,87.31 L 525.84,87.75 L 525.36,86.88 L 523.49,87.26 L 523.47,86.58 L 524.73,84.94 L 525.69,85.13 L 525.89,86.74 L 526.51,86.65 L 527.05,87.40 L 527.44,88.46 L 527.32,89.09 L 526.81,88.95 L 526.93,89.33 Z M 519.76,86.45 L 519.54,84.67 L 519.70,84.85 L 519.76,86.45 Z M 521.85,84.94 L 522.69,84.06 L 523.33,85.09 L 523.14,86.01 L 521.85,84.94 Z M 520.18,84.67 L 519.27,82.54 L 519.90,82.12 L 521.04,83.16 L 520.18,84.67 Z M 513.99,80.84 L 513.47,80.79 L 513.67,80.43 L 513.99,80.84 Z M 515.47,78.90 L 514.43,78.83 L 514.79,77.98 L 515.47,78.90 Z M 517.22,77.74 L 516.58,78.08 L 516.84,77.54 L 516.61,77.19 L 516.78,76.94 L 517.22,77.74 Z M 580.32,110.57 L 579.50,110.59 L 579.06,109.93 L 580.32,110.57 Z M 577.56,107.82 L 577.39,107.39 L 577.74,107.17 L 577.56,107.82 Z M 573.79,104.79 L 573.17,104.40 L 573.88,103.33 L 575.45,103.59 L 573.79,104.79 Z M 531.04,82.73 L 529.83,82.19 L 530.19,82.08 L 531.04,82.73 Z M 538.98,88.95 L 537.47,87.54 L 533.51,85.42 L 531.39,83.39 L 530.62,81.87 L 532.37,82.29 L 534.31,84.42 L 536.16,84.96 L 538.72,87.32 L 538.22,87.77 L 538.98,88.95 Z M 529.54,81.57 L 529.55,81.42 L 530.52,81.84 L 529.54,81.57 Z M 525.77,81.32 L 524.93,81.04 L 525.13,80.90 L 525.77,81.32 Z M 529.44,81.46 L 529.12,81.22 L 529.44,80.93 L 529.44,81.46 Z M 526.81,81.46 L 526.11,81.29 L 526.37,80.85 L 526.81,81.46 Z M 524.77,81.18 L 522.25,80.15 L 519.02,76.38 L 518.98,75.68 L 519.53,75.54 L 522.41,77.51 L 523.25,79.44 L 525.25,80.50 L 524.77,81.18 Z M 591.05,114.50 L 590.92,114.56 L 590.89,114.50 L 591.05,114.50 Z M 572.98,101.66 L 573.03,101.50 L 573.16,101.62 L 572.98,101.66 Z M 543.41,84.58 L 543.18,84.32 L 543.34,84.33 L 543.41,84.58 Z M 580.30,110.08 L 580.10,110.18 L 580.09,109.99 L 580.30,110.08 Z M 575.97,100.96 L 575.98,100.30 L 576.00,100.67 L 575.97,100.96 Z M 519.57,83.83 L 519.35,83.83 L 519.40,83.70 L 519.57,83.83 Z" fill="#E8E0D0" stroke="#B8B0A0" stroke-width="0.5"/>
<path d="M 580.17,33.68 L 580.06,33.92 L 579.87,33.73 L 580.17,33.68 Z" fill="#E8E0D0" stroke="#B8B0A0" stroke-width="0.5"/>
<path d="M 509.45,23.79 L 509.36,23.82 L 509.34,23.77 L 509.45,23.79 Z M 508.89,23.47 L 508.95,23.48 L 508.92,23.52 L 508.89,23.47 Z M 509.30,23.51 L 509.22,23.47 L 509.25,23.42 L 509.30,23.51 Z M 509.79,4.24 L 509.88,4.16 L 509.89,4.27 L 509.79,4.24 Z M 509.30,4.18 L 509.19,4.25 L 509.18,4.15 L 509.30,4.18 Z" fill="#E8E0D0" stroke="#B8B0A0" stroke-width="0.5"/>
<path d="M 597.15,169.17 L 596.37,168.96 L 596.47,168.51 L 596.96,168.49 L 597.15,169.17 Z M 594.99,164.27 L 594.61,165.17 L 593.34,164.02 L 593.49,163.00 L 594.03,162.81 L 594.99,164.27 Z M 593.67,160.65 L 591.99,159.80 L 592.12,158.25 L 592.96,158.15 L 594.03,160.20 L 593.67,160.65 Z M 589.06,152.55 L 587.68,152.31 L 588.04,151.93 L 587.71,151.69 L 587.12,151.84 L 588.12,150.57 L 588.88,150.66 L 589.44,151.66 L 589.06,152.55 Z M 587.63,150.50 L 587.96,150.53 L 587.68,150.66 L 587.44,150.90 L 587.63,150.50 Z M 588.21,149.76 L 588.41,150.20 L 588.19,150.14 L 588.21,149.76 Z M 588.44,147.50 L 588.12,147.53 L 588.72,147.23 L 588.44,147.50 Z M 589.35,146.19 L 589.61,146.07 L 589.72,146.19 L 589.35,146.19 Z M 587.08,143.98 L 589.04,145.54 L 589.00,145.87 L 587.36,145.63 L 587.08,143.98 Z M 588.08,143.72 L 587.96,143.46 L 588.28,143.46 L 588.08,143.72 Z M 587.54,143.07 L 587.76,142.99 L 587.66,143.44 L 587.54,143.07 Z M 586.37,142.28 L 585.73,141.64 L 587.24,140.59 L 588.16,142.15 L 586.37,142.28 Z M 584.85,143.79 L 584.04,143.44 L 583.09,143.94 L 582.60,141.37 L 581.28,140.61 L 581.50,139.29 L 582.37,139.42 L 582.73,140.64 L 584.92,142.35 L 585.01,143.27 L 585.15,142.92 L 584.85,143.79 Z M 580.94,138.00 L 580.86,137.63 L 581.78,137.58 L 581.62,138.33 L 580.94,138.00 Z M 581.54,136.85 L 581.55,137.35 L 581.05,137.21 L 581.54,136.85 Z M 587.82,139.45 L 587.43,139.99 L 586.94,137.72 L 587.14,136.35 L 587.82,139.45 Z M 585.30,136.50 L 584.34,136.26 L 585.10,135.37 L 586.26,135.11 L 585.30,136.50 Z M 581.01,132.76 L 580.98,132.68 L 581.33,132.87 L 581.01,132.76 Z M 586.89,132.59 L 587.28,135.89 L 587.01,135.89 L 586.89,132.59 Z M 578.98,137.48 L 578.18,135.82 L 577.83,130.74 L 578.94,131.93 L 579.33,134.27 L 579.95,134.24 L 580.21,132.84 L 580.90,132.68 L 580.66,133.34 L 581.26,134.05 L 581.86,136.59 L 578.98,137.48 Z M 583.93,127.60 L 583.69,128.36 L 582.75,128.40 L 582.79,127.64 L 583.42,127.27 L 583.93,127.60 Z M 582.69,124.77 L 583.27,124.30 L 583.85,125.32 L 583.05,125.74 L 582.69,124.77 Z M 584.57,124.02 L 584.12,124.20 L 584.32,123.80 L 584.57,124.02 Z M 582.58,122.99 L 582.56,123.16 L 582.26,123.22 L 582.58,122.99 Z M 578.15,120.91 L 578.34,121.01 L 578.16,121.27 L 578.15,120.91 Z M 577.68,120.60 L 577.62,119.88 L 577.86,119.97 L 577.68,120.60 Z M 578.43,122.29 L 578.52,122.23 L 578.60,122.34 L 578.43,122.29 Z" fill="#E8E0D0" stroke="#B8B0A0" stroke-width="0.5"/>
<path d="M 371.77,9.10 L 371.82,9.18 L 371.50,9.38 L 371.77,9.10 Z M 375.43,9.79 L 375.33,9.86 L 375.21,9.76 L 375.43,9.79 Z" fill="#E8E0D0" stroke="#B8B0A0" stroke-width="0.5"/>
<path d="M 506.95,174.59 L 506.96,174.59 L 506.96,174.60 L 506.95,174.59 Z" fill="#E8E0D0" stroke="#B8B0A0" stroke-width="0.5"/>
<path d="M 327.57,115.57 L 327.45,115.56 L 327.44,115.49 L 327.57,115.57 Z" fill="#E8E0D0" stroke="#B8B0A0" stroke-width="0.5"/>
<path d="M 371.49,246.35 L 369.47,247.27 L 365.79,247.03 L 360.21,247.60 L 349.08,251.84 L 341.61,251.84 L 334.78,255.92 L 331.09,257.09 L 329.64,260.73 L 327.16,263.28 L 326.33,262.95 L 324.99,263.76 L 324.23,262.74 L 321.81,262.98 L 321.53,263.42 L 320.30,263.12 L 319.77,263.85 L 318.82,263.83 L 318.30,262.47 L 317.06,262.99 L 314.39,262.43 L 309.89,262.96 L 308.91,263.52 L 306.63,263.19 L 304.12,264.67 L 303.52,265.85 L 304.05,266.33 L 303.17,266.24 L 302.91,267.10 L 302.55,266.76 L 302.13,267.35 L 299.86,266.81 L 300.14,267.14 L 299.20,267.53 L 299.19,268.07 L 297.54,268.78 L 297.29,269.89 L 295.90,270.19 L 296.13,270.68 L 294.01,270.78 L 294.97,271.17 L 294.66,271.37 L 293.13,270.89 L 292.75,271.52 L 290.26,270.62 L 289.96,271.00 L 287.03,270.91 L 285.61,270.22 L 286.25,270.15 L 285.57,269.59 L 285.50,270.00 L 283.19,269.44 L 281.05,266.76 L 279.18,265.77 L 278.18,266.19 L 277.55,265.38 L 277.42,260.41 L 278.62,261.26 L 279.63,261.17 L 281.62,258.69 L 280.99,254.50 L 281.57,253.48 L 281.21,254.47 L 281.65,255.32 L 281.33,254.28 L 281.97,254.10 L 281.41,251.84 L 281.90,251.23 L 281.69,248.40 L 277.84,239.81 L 277.15,236.43 L 277.36,232.65 L 276.57,230.09 L 275.18,228.24 L 274.76,226.07 L 272.63,223.21 L 272.23,221.54 L 272.50,220.33 L 271.74,217.78 L 266.75,209.78 L 267.44,210.35 L 267.62,208.72 L 267.75,210.63 L 268.07,211.37 L 267.95,208.83 L 268.67,212.04 L 269.00,210.71 L 269.13,212.62 L 269.48,211.76 L 269.74,213.22 L 270.91,212.33 L 270.99,211.09 L 269.20,209.35 L 268.29,206.87 L 268.84,205.37 L 270.25,207.95 L 270.08,210.09 L 270.78,209.58 L 270.81,208.36 L 271.79,211.42 L 272.27,211.82 L 273.03,210.91 L 272.75,208.59 L 273.23,208.67 L 273.17,207.65 L 272.57,207.30 L 270.51,203.05 L 269.87,202.59 L 269.36,200.00 L 268.12,197.84 L 268.51,194.38 L 270.32,191.27 L 270.54,187.65 L 269.68,186.26 L 269.60,185.23 L 271.35,180.93 L 272.67,179.91 L 272.11,182.47 L 272.30,183.53 L 272.66,183.44 L 272.31,184.54 L 273.63,184.65 L 274.56,182.38 L 274.55,181.29 L 274.87,181.55 L 275.43,180.18 L 280.28,177.83 L 282.94,174.80 L 284.20,174.18 L 284.46,173.34 L 285.94,173.12 L 287.92,171.20 L 288.30,172.41 L 290.04,171.62 L 291.20,172.52 L 293.43,172.04 L 295.84,169.97 L 299.66,169.45 L 301.35,167.29 L 304.23,167.97 L 305.07,167.26 L 308.76,166.61 L 313.19,164.23 L 315.47,161.13 L 316.18,159.35 L 316.01,158.68 L 316.92,158.30 L 316.70,157.77 L 317.17,156.96 L 317.74,156.97 L 320.29,154.61 L 320.27,153.66 L 319.26,153.63 L 319.27,148.71 L 321.02,146.36 L 321.73,146.71 L 321.33,145.96 L 321.66,145.40 L 323.05,145.40 L 322.69,144.19 L 323.60,142.90 L 324.21,142.67 L 324.40,143.27 L 323.86,144.03 L 324.34,144.80 L 324.86,144.76 L 324.93,146.32 L 327.42,151.00 L 327.85,148.18 L 327.56,146.81 L 329.41,148.39 L 328.72,146.91 L 329.12,147.09 L 329.00,146.54 L 329.65,145.73 L 328.71,146.16 L 328.22,145.14 L 327.06,144.53 L 327.64,143.79 L 326.56,143.42 L 327.84,143.65 L 327.04,142.84 L 328.24,142.99 L 327.77,142.55 L 328.24,142.33 L 327.24,141.86 L 327.41,141.26 L 328.79,141.35 L 328.36,141.82 L 329.12,142.29 L 329.12,142.99 L 329.29,142.37 L 329.88,142.64 L 329.40,141.54 L 330.65,141.91 L 331.21,142.76 L 332.17,142.45 L 332.68,142.74 L 334.81,142.97 L 335.18,142.81 L 332.26,142.30 L 332.45,140.44 L 332.95,141.25 L 333.39,140.83 L 333.47,139.35 L 334.19,138.71 L 333.47,138.71 L 332.75,140.03 L 332.47,138.85 L 332.27,139.18 L 332.11,136.78 L 333.59,136.64 L 333.65,136.03 L 333.89,136.43 L 334.19,135.63 L 333.82,135.59 L 333.78,134.89 L 335.28,135.65 L 335.63,136.45 L 336.82,136.73 L 336.17,136.05 L 336.58,135.32 L 335.07,135.21 L 336.07,134.29 L 334.99,134.89 L 334.82,134.14 L 335.87,133.86 L 335.74,132.97 L 336.16,132.96 L 336.71,134.29 L 336.59,133.36 L 336.71,133.25 L 337.42,134.14 L 338.26,134.12 L 337.88,133.52 L 338.25,133.23 L 336.83,132.80 L 337.54,132.38 L 336.54,131.36 L 337.50,130.66 L 337.10,130.52 L 337.77,129.73 L 337.74,130.47 L 338.02,130.01 L 338.30,130.69 L 338.62,129.67 L 339.18,130.05 L 339.34,127.84 L 340.01,128.16 L 339.58,128.59 L 339.46,130.66 L 340.01,129.04 L 340.01,129.53 L 340.69,129.45 L 340.60,130.32 L 341.09,130.68 L 341.13,129.86 L 341.81,129.80 L 341.45,128.92 L 342.41,127.64 L 342.35,126.95 L 341.41,126.45 L 342.13,126.47 L 341.67,125.77 L 342.07,125.54 L 342.45,125.77 L 342.21,126.42 L 342.85,126.00 L 342.53,126.89 L 343.25,127.88 L 343.49,126.71 L 344.64,125.81 L 344.21,126.83 L 344.64,126.80 L 345.08,127.88 L 345.37,126.76 L 345.60,127.13 L 345.84,126.80 L 345.69,126.19 L 346.56,125.95 L 345.92,124.87 L 346.48,125.06 L 346.60,124.54 L 347.51,124.77 L 348.15,126.08 L 348.36,125.48 L 348.54,125.95 L 348.77,125.56 L 349.83,125.90 L 352.91,130.24 L 354.57,131.24 L 353.91,132.17 L 353.36,136.58 L 353.81,136.09 L 353.95,134.42 L 354.91,135.93 L 354.36,133.56 L 355.05,132.52 L 355.26,133.43 L 355.35,133.06 L 355.65,133.44 L 355.84,133.46 L 355.78,132.14 L 355.48,131.82 L 356.32,131.47 L 359.64,132.52 L 360.12,133.05 L 359.93,134.71 L 360.34,134.34 L 360.29,134.80 L 360.58,133.91 L 360.38,132.05 L 361.82,132.72 L 362.45,134.34 L 363.28,134.50 L 362.61,132.78 L 362.83,132.02 L 364.77,131.84 L 364.83,131.28 L 363.49,131.93 L 363.69,131.55 L 363.19,131.69 L 362.47,130.52 L 363.23,130.40 L 363.64,129.95 L 362.16,130.05 L 361.13,129.11 L 361.22,128.56 L 361.85,126.66 L 362.45,126.94 L 362.57,126.28 L 363.33,126.25 L 363.22,125.39 L 363.80,124.67 L 364.24,122.44 L 364.69,123.08 L 366.35,121.66 L 366.81,121.81 L 365.59,120.56 L 365.63,119.02 L 366.73,118.79 L 366.94,117.18 L 367.88,117.06 L 367.82,116.66 L 368.29,117.43 L 368.91,117.38 L 368.14,116.88 L 368.47,116.71 L 368.24,115.32 L 369.44,115.55 L 369.47,116.58 L 369.60,116.25 L 370.11,116.96 L 370.51,116.87 L 369.96,116.09 L 370.51,116.25 L 369.68,115.32 L 370.16,114.84 L 371.00,115.13 L 370.85,113.57 L 372.20,114.19 L 372.42,112.86 L 373.30,114.55 L 375.92,114.05 L 376.86,114.67 L 377.99,113.64 L 378.14,114.13 L 378.74,114.05 L 378.78,115.17 L 379.08,113.63 L 379.81,113.19 L 380.48,113.50 L 380.94,113.48 L 380.22,113.02 L 379.98,111.08 L 380.57,110.18 L 379.41,108.96 L 378.68,108.68 L 377.14,109.29 L 376.38,108.11 L 375.17,107.83 L 375.84,106.87 L 376.42,107.25 L 376.44,106.58 L 377.19,107.13 L 377.54,108.48 L 377.89,108.02 L 377.38,106.64 L 378.18,107.54 L 378.52,106.53 L 378.72,107.64 L 379.29,107.30 L 380.45,109.18 L 381.74,108.57 L 381.83,107.97 L 383.32,110.53 L 385.45,110.84 L 385.45,111.64 L 387.68,110.65 L 387.26,111.57 L 387.84,111.97 L 388.50,111.50 L 388.68,112.07 L 388.98,111.73 L 389.26,113.09 L 389.83,112.34 L 391.64,113.00 L 392.65,112.20 L 393.19,113.43 L 395.27,114.63 L 394.99,114.13 L 395.97,114.25 L 395.30,113.88 L 396.13,113.16 L 397.42,113.24 L 398.15,112.69 L 397.38,112.96 L 397.45,112.32 L 398.51,112.01 L 399.24,110.91 L 399.26,111.53 L 398.18,112.58 L 399.34,112.34 L 397.80,113.96 L 398.26,114.70 L 400.14,113.00 L 399.45,114.03 L 400.18,114.16 L 399.74,115.06 L 400.02,115.76 L 401.48,115.42 L 401.94,114.09 L 400.86,113.74 L 402.45,112.17 L 403.16,111.85 L 402.56,112.47 L 403.69,114.37 L 404.17,114.39 L 403.78,113.97 L 404.26,113.69 L 405.55,114.94 L 404.32,116.28 L 404.52,115.70 L 404.14,115.83 L 404.26,116.51 L 403.84,117.46 L 403.37,117.47 L 403.38,118.27 L 403.08,117.68 L 402.57,117.88 L 403.65,119.40 L 402.72,119.26 L 403.13,119.83 L 402.58,121.10 L 401.70,121.55 L 402.09,120.98 L 401.76,119.75 L 401.62,120.55 L 401.28,120.32 L 400.75,121.24 L 400.68,120.27 L 400.14,121.57 L 399.87,120.91 L 399.14,121.67 L 399.65,122.36 L 398.98,122.56 L 399.16,124.33 L 400.28,123.98 L 399.38,126.02 L 399.30,127.64 L 398.42,128.12 L 397.04,130.78 L 396.14,131.27 L 396.73,132.81 L 401.13,135.98 L 401.42,137.02 L 403.29,138.06 L 403.99,139.60 L 405.22,139.59 L 405.60,139.11 L 407.75,140.88 L 410.00,141.77 L 412.55,144.83 L 417.35,146.19 L 418.22,147.14 L 418.26,148.31 L 418.90,149.30 L 423.12,151.76 L 426.17,151.24 L 428.05,149.94 L 428.64,147.04 L 430.11,144.87 L 431.46,140.47 L 431.15,139.56 L 431.51,137.63 L 432.83,133.25 L 431.99,129.63 L 432.44,127.09 L 431.68,125.38 L 432.99,121.15 L 432.35,119.33 L 433.67,117.15 L 434.42,118.80 L 434.23,117.76 L 434.83,117.47 L 433.75,117.06 L 434.63,116.58 L 433.60,116.55 L 432.99,116.02 L 433.29,115.69 L 432.79,115.64 L 433.03,116.30 L 432.39,116.28 L 433.13,114.16 L 433.67,114.19 L 433.34,113.99 L 433.79,112.60 L 434.27,112.25 L 434.31,113.29 L 434.97,112.84 L 434.47,111.85 L 435.55,108.02 L 435.66,105.35 L 436.66,105.02 L 437.96,103.55 L 438.37,103.99 L 437.70,105.33 L 438.22,104.76 L 438.66,105.71 L 439.10,105.52 L 439.86,108.32 L 439.80,111.44 L 440.56,112.11 L 442.05,112.34 L 441.11,113.59 L 441.05,114.82 L 442.08,115.23 L 442.32,116.24 L 443.13,116.77 L 442.69,118.61 L 443.77,118.28 L 443.53,119.95 L 444.09,123.03 L 443.69,124.59 L 444.61,126.40 L 445.16,129.07 L 446.09,129.81 L 447.37,128.87 L 447.60,128.02 L 448.20,128.45 L 449.26,127.41 L 449.81,128.80 L 450.12,128.64 L 450.38,130.12 L 451.68,130.52 L 452.43,131.84 L 453.55,132.02 L 454.27,132.78 L 453.63,134.31 L 454.29,134.89 L 453.68,136.11 L 454.95,140.46 L 454.59,143.09 L 456.46,145.54 L 456.76,146.83 L 457.14,146.10 L 457.82,146.04 L 457.39,147.32 L 458.94,151.26 L 458.14,155.41 L 459.15,156.39 L 459.30,157.31 L 460.06,157.40 L 459.66,159.63 L 460.02,160.37 L 463.35,162.74 L 464.05,161.87 L 464.69,163.47 L 466.36,163.49 L 466.25,162.74 L 467.89,166.34 L 468.48,166.39 L 468.28,165.40 L 468.71,165.56 L 469.32,166.82 L 471.35,167.29 L 471.27,168.09 L 472.07,168.88 L 472.43,168.79 L 472.32,167.95 L 472.99,167.88 L 473.29,168.99 L 473.51,168.65 L 473.71,169.40 L 474.29,169.17 L 475.19,171.20 L 473.81,170.54 L 473.58,171.45 L 474.64,172.86 L 474.55,173.64 L 475.88,173.69 L 475.71,174.23 L 476.90,175.01 L 476.70,175.90 L 477.54,177.31 L 477.26,177.90 L 477.86,177.85 L 478.06,178.40 L 478.39,178.07 L 478.09,179.82 L 478.98,183.20 L 479.62,183.63 L 479.42,184.65 L 480.29,183.86 L 481.65,185.69 L 480.94,183.31 L 481.69,182.23 L 482.51,183.86 L 484.93,185.45 L 484.55,183.78 L 484.98,183.56 L 485.25,184.14 L 485.33,183.72 L 485.81,184.49 L 485.33,185.13 L 485.65,185.58 L 485.89,184.90 L 486.20,186.05 L 485.67,187.67 L 486.52,191.49 L 486.12,191.63 L 487.27,192.02 L 488.30,193.65 L 490.41,195.63 L 491.24,195.68 L 490.94,194.85 L 491.41,195.40 L 491.75,195.15 L 493.75,199.06 L 495.77,200.53 L 496.74,202.97 L 496.34,203.10 L 498.36,203.85 L 498.10,205.14 L 498.64,204.87 L 498.66,205.29 L 498.18,206.50 L 498.98,207.54 L 498.98,208.53 L 499.22,207.49 L 499.57,208.28 L 500.06,208.29 L 499.29,210.91 L 500.08,216.14 L 499.08,216.94 L 499.54,216.96 L 499.24,217.74 L 501.46,221.05 L 501.19,222.16 L 502.18,223.81 L 502.53,227.02 L 502.39,228.44 L 500.90,231.28 L 500.58,235.03 L 498.99,240.17 L 499.21,243.62 L 497.39,248.88 L 496.22,250.26 L 496.18,253.00 L 494.75,253.80 L 494.31,254.75 L 493.39,254.75 L 494.11,255.23 L 491.86,256.10 L 490.52,258.84 L 489.85,258.92 L 490.14,259.30 L 489.68,260.45 L 488.55,260.50 L 488.52,261.01 L 489.19,261.07 L 488.65,262.71 L 488.85,263.37 L 487.76,263.80 L 488.55,263.98 L 487.03,265.50 L 486.74,267.04 L 486.05,267.46 L 486.72,267.84 L 485.62,269.70 L 486.30,271.10 L 485.43,270.75 L 485.81,271.80 L 484.61,272.04 L 483.08,275.53 L 482.49,275.56 L 482.77,276.29 L 481.86,278.01 L 482.22,278.22 L 482.21,279.64 L 480.86,283.66 L 481.04,284.73 L 480.66,284.97 L 481.69,286.15 L 481.10,286.26 L 481.30,287.71 L 479.74,287.85 L 480.02,288.32 L 479.51,289.05 L 478.42,289.69 L 471.52,289.96 L 468.32,291.08 L 463.02,295.88 L 459.39,296.09 L 459.14,296.37 L 459.75,297.43 L 460.86,296.75 L 460.90,298.49 L 460.38,299.04 L 459.14,297.14 L 458.61,296.81 L 457.62,297.41 L 456.67,295.71 L 457.23,295.99 L 456.97,295.64 L 455.75,295.85 L 454.43,294.87 L 454.71,294.11 L 455.50,293.82 L 454.96,292.79 L 453.74,292.84 L 453.59,294.02 L 451.93,294.68 L 450.37,293.47 L 452.15,293.52 L 452.95,292.27 L 451.87,290.27 L 449.44,291.94 L 448.60,291.99 L 450.53,292.18 L 450.23,293.14 L 448.77,293.25 L 443.73,297.07 L 439.50,295.15 L 437.70,293.75 L 435.80,293.92 L 433.39,292.98 L 432.20,294.20 L 431.25,293.94 L 431.23,293.28 L 429.73,292.05 L 427.15,291.65 L 425.45,290.63 L 423.79,287.86 L 423.06,287.65 L 421.93,286.15 L 421.22,283.99 L 422.21,283.25 L 422.29,281.80 L 421.55,280.00 L 419.96,277.15 L 416.82,274.53 L 419.91,276.94 L 421.22,279.00 L 420.07,276.73 L 417.54,274.72 L 418.21,274.03 L 418.66,274.33 L 418.64,275.30 L 419.27,275.29 L 419.37,274.64 L 418.58,274.05 L 419.40,273.93 L 419.42,273.16 L 418.34,272.73 L 417.07,273.41 L 417.48,274.12 L 416.10,273.89 L 417.26,274.33 L 415.82,274.27 L 414.57,275.01 L 412.10,274.83 L 414.03,272.92 L 414.35,269.14 L 414.68,269.07 L 411.93,264.58 L 410.85,267.31 L 410.02,271.47 L 409.56,271.81 L 408.13,271.38 L 406.64,272.23 L 404.71,272.33 L 405.77,269.89 L 408.25,270.00 L 408.64,267.94 L 408.44,266.90 L 408.06,266.94 L 408.47,266.14 L 408.29,264.77 L 408.85,264.30 L 409.16,262.85 L 411.07,261.06 L 410.37,258.61 L 411.71,257.39 L 410.16,253.53 L 410.18,256.71 L 409.33,256.56 L 408.28,257.79 L 406.96,261.32 L 405.77,261.84 L 405.33,261.52 L 404.97,262.01 L 405.44,262.00 L 403.36,263.03 L 400.49,266.33 L 400.42,267.37 L 400.23,267.01 L 399.46,267.37 L 399.14,268.98 L 398.66,269.23 L 399.92,268.81 L 399.62,270.62 L 398.56,269.59 L 397.68,270.24 L 395.68,267.77 L 394.63,267.79 L 395.22,266.66 L 396.16,268.01 L 396.93,267.90 L 396.27,267.61 L 395.10,262.96 L 393.07,261.17 L 393.19,260.12 L 392.11,258.43 L 392.29,258.02 L 391.56,257.83 L 391.83,258.52 L 390.96,257.91 L 390.12,258.24 L 389.04,257.02 L 389.28,256.46 L 388.57,256.34 L 388.95,255.70 L 388.60,254.86 L 389.44,254.94 L 389.42,255.50 L 389.91,254.62 L 389.04,253.10 L 387.38,253.72 L 387.41,252.93 L 387.88,252.63 L 386.13,250.66 L 383.93,251.46 L 381.04,249.62 L 377.88,250.19 L 373.82,247.25 L 371.49,246.35 Z M 354.35,134.04 L 354.31,134.48 L 353.99,133.43 L 354.35,134.04 Z M 355.79,133.44 L 355.28,132.27 L 355.46,132.43 L 355.79,133.44 Z M 362.61,132.26 L 362.44,131.82 L 362.64,131.97 L 362.61,132.26 Z M 362.47,132.37 L 362.49,132.92 L 361.97,131.79 L 362.47,132.37 Z M 344.80,125.44 L 345.13,125.62 L 344.57,125.65 L 344.80,125.44 Z M 393.57,113.03 L 393.46,113.37 L 393.15,112.82 L 393.57,113.03 Z M 393.70,112.94 L 393.47,112.72 L 393.74,112.68 L 393.70,112.94 Z M 394.33,112.24 L 394.27,112.16 L 394.31,112.01 L 394.71,112.08 L 394.33,112.24 Z M 385.17,109.83 L 384.45,110.23 L 384.44,109.93 L 385.17,109.83 Z M 385.32,109.15 L 384.65,109.43 L 384.65,109.05 L 385.32,109.15 Z M 469.05,326.43 L 468.52,327.20 L 467.98,326.64 L 468.26,326.25 L 467.56,325.82 L 467.94,325.09 L 468.35,325.78 L 469.07,325.76 L 468.80,324.85 L 467.01,324.40 L 467.16,325.37 L 466.45,325.84 L 466.69,324.90 L 465.56,324.00 L 466.00,325.01 L 465.85,325.82 L 465.39,325.71 L 465.41,327.27 L 464.86,327.38 L 464.53,326.59 L 464.26,326.91 L 463.75,326.43 L 464.49,327.58 L 463.69,327.86 L 464.23,327.97 L 463.45,328.48 L 464.01,328.81 L 463.33,329.18 L 463.48,329.73 L 462.22,329.85 L 461.31,328.75 L 461.07,329.19 L 459.47,328.86 L 458.22,329.32 L 457.75,328.03 L 459.02,328.38 L 459.42,327.72 L 458.23,327.76 L 457.60,326.87 L 457.32,327.40 L 457.65,327.51 L 457.10,327.54 L 453.80,322.81 L 453.35,320.00 L 454.79,321.26 L 455.00,322.18 L 455.51,321.00 L 454.95,320.90 L 454.27,319.67 L 453.59,320.00 L 453.46,318.43 L 451.79,316.62 L 450.80,314.63 L 449.96,311.76 L 450.53,310.90 L 450.50,309.45 L 452.95,310.56 L 453.82,309.86 L 454.19,310.67 L 455.31,310.73 L 456.97,311.97 L 461.49,313.02 L 462.41,312.24 L 462.79,312.86 L 463.61,312.89 L 462.85,312.30 L 464.01,311.63 L 465.90,311.39 L 466.50,311.84 L 467.70,310.61 L 468.85,311.02 L 469.64,309.98 L 470.95,310.69 L 471.66,311.80 L 471.32,312.10 L 471.60,313.63 L 471.23,314.17 L 471.79,313.79 L 471.25,317.29 L 471.85,320.06 L 471.61,320.57 L 471.23,320.33 L 471.60,319.48 L 470.68,319.06 L 471.14,318.71 L 470.79,318.30 L 470.50,319.08 L 471.00,319.30 L 470.27,319.35 L 469.52,320.99 L 469.91,320.94 L 469.77,322.19 L 469.08,322.40 L 469.46,323.60 L 468.83,324.61 L 469.76,324.90 L 469.44,326.03 L 469.72,327.11 L 469.05,326.43 Z M 533.59,404.32 L 532.87,406.25 L 532.95,405.31 L 533.59,404.32 Z M 465.68,329.02 L 465.16,328.38 L 464.88,328.97 L 464.41,328.48 L 464.95,328.65 L 464.88,328.06 L 465.68,327.33 L 465.68,329.02 Z M 466.45,327.17 L 466.01,327.30 L 466.17,326.87 L 465.61,326.58 L 466.00,326.04 L 466.45,327.17 Z M 470.76,323.11 L 469.80,323.82 L 469.87,322.87 L 470.76,323.11 Z M 471.72,321.09 L 471.08,320.71 L 471.28,320.69 L 471.72,321.09 Z M 452.63,309.79 L 451.51,309.84 L 451.85,309.14 L 452.63,309.79 Z M 470.49,308.45 L 471.19,308.28 L 470.86,309.01 L 470.49,308.45 Z M 451.03,308.37 L 450.75,308.99 L 450.55,308.28 L 451.04,307.81 L 451.03,308.37 Z M 451.27,307.86 L 452.02,307.65 L 451.96,308.03 L 451.27,307.86 Z M 472.55,307.86 L 471.72,308.38 L 471.64,307.91 L 469.72,307.79 L 471.62,307.01 L 472.55,307.86 Z M 469.06,305.13 L 469.04,304.20 L 468.32,304.09 L 469.46,302.94 L 470.70,304.48 L 471.47,304.66 L 471.04,305.79 L 471.47,305.60 L 471.64,306.45 L 470.46,306.78 L 469.06,305.13 Z M 447.08,305.13 L 445.86,305.78 L 445.48,304.36 L 446.11,302.02 L 447.07,302.62 L 447.08,305.13 Z M 461.22,296.65 L 460.83,296.31 L 461.59,296.31 L 461.22,296.65 Z M 454.36,294.95 L 454.31,295.10 L 452.91,294.82 L 453.88,294.28 L 454.36,294.95 Z M 455.13,293.69 L 453.91,293.94 L 453.99,293.21 L 455.13,293.69 Z M 411.75,276.88 L 410.44,276.50 L 409.31,276.82 L 409.16,277.62 L 408.33,278.01 L 406.98,277.30 L 403.99,277.87 L 402.93,276.83 L 403.31,275.77 L 407.60,274.57 L 409.28,274.57 L 409.03,275.56 L 410.19,275.65 L 410.38,276.14 L 411.10,275.56 L 412.23,276.18 L 411.75,276.88 Z M 402.60,271.56 L 402.73,271.75 L 402.43,271.73 L 402.60,271.56 Z M 401.00,271.09 L 400.33,270.21 L 400.56,270.21 L 401.00,271.09 Z M 407.83,267.12 L 407.72,267.39 L 407.61,267.24 L 407.83,267.12 Z M 391.38,261.87 L 390.96,262.21 L 391.01,261.72 L 391.38,261.87 Z M 385.72,251.74 L 386.28,251.60 L 385.96,251.74 L 385.64,252.17 L 385.72,251.74 Z M 534.21,246.67 L 534.43,246.99 L 534.33,247.14 L 534.21,246.67 Z M 502.06,218.46 L 501.21,220.60 L 501.18,219.00 L 501.39,218.31 L 502.06,218.46 Z M 500.96,216.06 L 501.49,215.73 L 501.36,218.04 L 500.96,216.06 Z M 267.04,209.70 L 265.57,207.18 L 265.60,205.18 L 266.51,208.49 L 267.04,209.70 Z M 498.90,204.12 L 498.82,204.19 L 498.59,203.78 L 498.90,204.12 Z M 266.30,202.30 L 266.52,201.93 L 266.24,203.77 L 266.30,202.30 Z M 266.52,201.84 L 266.72,200.19 L 266.62,201.13 L 266.52,201.84 Z M 499.44,207.08 L 499.18,207.35 L 498.55,205.87 L 499.26,204.13 L 498.94,203.32 L 500.18,202.06 L 500.25,201.27 L 499.66,200.61 L 500.50,199.76 L 501.01,201.79 L 499.44,207.08 Z M 489.44,194.17 L 489.12,193.65 L 489.15,193.28 L 489.44,194.17 Z M 488.94,193.27 L 488.45,193.48 L 487.09,191.48 L 488.60,191.49 L 488.94,193.27 Z M 480.02,183.77 L 479.78,184.28 L 479.69,183.91 L 480.02,183.77 Z M 484.62,183.36 L 484.19,183.63 L 484.17,182.75 L 484.62,183.36 Z M 480.96,182.36 L 480.73,182.82 L 480.62,182.24 L 480.90,181.55 L 480.96,182.36 Z M 483.37,179.48 L 483.53,179.38 L 483.38,179.69 L 483.37,179.48 Z M 482.82,179.05 L 482.82,178.67 L 483.16,178.92 L 482.82,179.05 Z M 279.86,173.39 L 279.28,173.50 L 279.99,172.12 L 279.86,173.39 Z M 476.23,170.82 L 475.87,171.15 L 475.79,170.96 L 476.10,170.39 L 476.23,170.82 Z M 475.13,169.49 L 475.47,168.56 L 475.58,169.10 L 475.95,169.69 L 475.13,169.49 Z M 474.87,168.47 L 475.35,167.81 L 475.44,167.91 L 475.31,168.51 L 474.87,168.47 Z M 472.53,167.55 L 472.47,167.85 L 472.36,167.81 L 472.53,167.55 Z M 462.86,161.85 L 462.63,161.56 L 462.93,161.35 L 462.86,161.85 Z M 459.89,157.07 L 459.38,156.98 L 459.24,156.36 L 458.65,155.47 L 459.84,155.41 L 459.89,157.07 Z M 420.62,147.60 L 419.78,147.89 L 420.18,146.81 L 420.62,147.60 Z M 418.08,145.63 L 418.22,145.73 L 417.93,145.97 L 418.08,145.63 Z M 421.42,143.66 L 420.14,143.60 L 419.89,144.61 L 419.06,145.02 L 418.34,144.59 L 418.14,145.24 L 418.26,144.28 L 418.98,143.27 L 420.70,142.76 L 421.58,143.09 L 421.42,143.66 Z M 403.97,138.00 L 403.69,138.52 L 403.41,138.08 L 403.97,138.00 Z M 404.69,137.86 L 404.09,138.29 L 404.09,137.63 L 404.69,137.86 Z M 406.07,138.99 L 405.27,138.13 L 405.62,137.24 L 406.13,137.65 L 406.07,138.99 Z M 403.25,137.54 L 402.73,137.48 L 402.88,136.84 L 403.41,136.87 L 403.25,137.54 Z M 404.77,137.54 L 404.73,136.97 L 404.97,136.59 L 404.77,137.54 Z M 332.43,135.29 L 331.88,135.23 L 332.29,135.04 L 332.43,135.29 Z M 333.71,135.89 L 333.01,136.20 L 333.31,135.74 L 332.59,135.65 L 333.23,134.85 L 333.71,135.89 Z M 335.32,133.37 L 334.95,132.98 L 335.30,132.73 L 335.32,133.37 Z M 398.44,132.49 L 398.00,132.50 L 398.24,132.03 L 398.44,132.49 Z M 336.94,130.38 L 336.54,130.75 L 336.30,130.07 L 336.88,129.53 L 336.94,130.38 Z M 404.54,124.98 L 404.59,124.94 L 404.55,124.99 L 404.54,124.98 Z M 401.20,125.25 L 400.86,124.68 L 400.50,125.04 L 400.96,124.03 L 401.50,124.28 L 401.20,125.25 Z M 405.09,128.36 L 401.71,127.88 L 402.37,127.13 L 402.21,125.06 L 403.29,125.01 L 403.16,124.15 L 404.01,123.88 L 404.09,125.20 L 404.57,125.27 L 405.09,124.64 L 403.93,127.17 L 404.11,127.60 L 405.37,127.55 L 405.09,128.36 Z M 400.38,121.91 L 401.01,122.60 L 400.66,123.28 L 400.38,121.91 Z M 404.66,113.47 L 404.61,113.51 L 404.47,113.31 L 404.66,113.47 Z M 378.92,113.14 L 378.89,113.48 L 378.50,113.24 L 378.92,113.14 Z M 401.39,112.83 L 400.58,112.96 L 400.58,112.68 L 401.51,112.39 L 401.39,112.83 Z M 402.61,111.29 L 402.73,111.18 L 402.64,111.80 L 402.61,111.29 Z M 403.21,111.18 L 402.85,111.12 L 402.91,111.03 L 403.35,110.82 L 403.21,111.18 Z M 399.71,110.24 L 400.15,110.16 L 399.86,110.56 L 399.71,110.24 Z M 379.92,110.64 L 379.49,110.15 L 379.70,110.03 L 380.13,110.13 L 379.92,110.64 Z M 402.61,108.86 L 402.01,109.76 L 400.86,110.42 L 402.61,108.86 Z M 368.53,111.22 L 364.97,111.03 L 365.29,110.30 L 365.95,110.34 L 365.73,109.05 L 366.88,107.87 L 367.48,110.51 L 368.53,111.22 Z M 373.46,109.82 L 372.95,109.66 L 372.40,110.67 L 370.47,112.11 L 367.76,110.15 L 367.01,107.10 L 367.20,106.74 L 368.29,107.66 L 368.17,108.40 L 368.71,107.97 L 368.92,108.68 L 370.24,107.82 L 370.83,108.53 L 371.59,107.40 L 371.97,108.44 L 371.89,107.39 L 372.30,106.99 L 372.45,107.60 L 373.19,107.41 L 373.83,108.53 L 373.46,109.82 Z M 404.00,107.11 L 402.94,108.74 L 402.61,108.77 L 404.27,105.97 L 404.00,107.11 Z M 379.25,105.90 L 380.01,105.47 L 380.01,108.06 L 379.25,105.90 Z M 435.87,104.11 L 435.43,103.52 L 435.90,102.89 L 436.27,103.40 L 435.87,104.11 Z M 436.49,102.76 L 436.67,103.03 L 436.38,103.22 L 436.49,102.76 Z M 436.72,100.20 L 436.07,100.49 L 436.03,99.88 L 436.72,100.20 Z M 435.89,99.81 L 435.61,100.10 L 435.34,99.64 L 435.89,99.38 L 435.89,99.81 Z M 281.44,251.45 L 281.45,251.60 L 281.33,251.56 L 281.33,250.99 L 281.44,251.45 Z M 280.54,249.92 L 280.70,250.00 L 280.05,250.11 L 280.54,249.92 Z M 270.03,225.42 L 270.20,225.42 L 269.82,225.82 L 270.03,225.42 Z M 461.40,159.01 L 461.47,158.47 L 461.77,158.84 L 461.40,159.01 Z M 438.94,94.90 L 438.28,94.70 L 438.49,94.52 L 439.17,94.49 L 438.94,94.90 Z M 436.41,93.75 L 436.40,93.92 L 435.66,93.82 L 436.41,93.75 Z" fill="#4A90D9" stroke="#1a5fa8" stroke-width="1.2"/>
<path d="M 184.91,13.64 L 184.91,13.50 L 185.01,13.46 L 184.91,13.64 Z" fill="#A8C8E8" stroke="none"/>
<path d="M 431.84,79.37 L 431.35,78.92 L 431.87,78.76 L 431.88,77.67 L 430.95,77.03 L 431.87,76.90 L 432.19,78.22 L 432.59,77.86 L 431.84,79.37 Z" fill="#A8C8E8" stroke="none"/>
<path d="M 285.52,32.45 L 284.88,32.24 L 285.34,31.80 L 285.56,32.18 L 285.86,31.33 L 286.33,31.67 L 285.52,32.45 Z" fill="#A8C8E8" stroke="none"/>
<path d="M 284.18,33.58 L 283.96,32.90 L 284.05,32.78 L 284.82,32.97 L 284.18,33.58 Z" fill="#A8C8E8" stroke="none"/>
<path d="M 359.16,141.48 L 358.58,141.75 L 358.76,142.62 L 357.90,142.95 L 357.94,144.50 L 357.52,145.51 L 357.63,144.75 L 356.46,144.24 L 356.77,143.57 L 356.11,143.84 L 356.95,142.44 L 356.78,141.77 L 357.38,141.58 L 356.85,141.18 L 357.90,140.50 L 357.46,141.21 L 357.82,141.39 L 359.20,140.83 L 359.16,141.48 Z" fill="#A8C8E8" stroke="none"/>
<path d="M 476.07,262.99 L 475.84,263.72 L 475.53,263.30 L 475.36,263.64 L 475.43,263.18 L 476.07,262.99 Z" fill="#A8C8E8" stroke="none"/>
<path d="M 459.34,277.82 L 458.12,277.32 L 458.42,277.21 L 459.34,277.82 Z" fill="#A8C8E8" stroke="none"/>
<path d="M 464.47,277.94 L 464.49,278.67 L 465.05,278.95 L 464.45,279.05 L 464.25,277.26 L 465.27,277.66 L 464.47,277.94 Z" fill="#A8C8E8" stroke="none"/>
<path d="M 476.54,254.32 L 477.06,255.44 L 476.92,256.25 L 476.90,255.51 L 476.08,254.73 L 477.26,253.53 L 477.23,254.19 L 476.54,254.32 Z" fill="#A8C8E8" stroke="none"/>
<path d="M 410.09,229.17 L 409.23,229.74 L 408.50,229.40 L 407.37,226.96 L 407.56,229.81 L 406.84,227.96 L 406.26,229.38 L 405.60,229.39 L 405.10,228.66 L 404.97,227.73 L 405.37,227.61 L 404.87,225.38 L 405.60,225.22 L 405.59,224.06 L 404.99,222.56 L 404.42,222.79 L 404.45,222.19 L 406.10,221.47 L 407.92,222.37 L 408.65,223.78 L 409.80,223.35 L 409.17,223.98 L 410.23,224.72 L 409.71,225.18 L 409.11,224.61 L 409.83,226.07 L 409.22,226.07 L 409.17,226.76 L 410.49,229.44 L 411.79,229.86 L 411.28,230.09 L 410.09,229.17 Z" fill="#A8C8E8" stroke="none"/>
<path d="M 321.75,191.75 L 322.43,189.81 L 323.78,190.15 L 323.78,192.07 L 323.22,192.77 L 321.75,191.75 Z" fill="#A8C8E8" stroke="none"/>
<path d="M 355.06,185.20 L 355.08,184.07 L 355.65,184.44 L 356.11,183.50 L 357.31,183.27 L 358.68,181.50 L 360.25,181.41 L 359.23,182.72 L 359.57,183.53 L 360.46,183.96 L 359.71,184.11 L 359.65,184.96 L 358.41,185.95 L 355.06,185.20 Z" fill="#A8C8E8" stroke="none"/>
<path d="M 398.98,252.00 L 400.21,249.65 L 400.04,248.91 L 398.69,248.06 L 398.53,246.87 L 397.48,247.00 L 398.33,245.72 L 396.67,244.91 L 396.33,243.52 L 397.78,244.64 L 400.41,244.96 L 400.15,245.85 L 401.16,247.14 L 401.69,249.71 L 401.28,251.63 L 400.52,251.77 L 400.73,250.85 L 400.07,250.84 L 399.22,251.89 L 399.46,252.40 L 398.98,252.00 Z" fill="#A8C8E8" stroke="none"/>
<path d="M 410.12,249.48 L 408.94,248.47 L 409.69,248.51 L 410.22,245.16 L 408.45,243.89 L 409.64,243.93 L 409.26,241.61 L 409.72,240.47 L 407.89,240.49 L 407.76,239.09 L 406.84,237.46 L 407.69,237.76 L 408.67,239.04 L 409.64,239.26 L 411.45,241.92 L 411.77,242.98 L 411.28,243.64 L 411.97,244.20 L 412.28,245.41 L 410.75,247.46 L 410.12,249.48 Z" fill="#A8C8E8" stroke="none"/>
<path d="M 422.06,243.99 L 421.84,243.21 L 420.96,243.27 L 420.13,242.43 L 420.88,240.64 L 422.94,238.00 L 423.44,239.12 L 422.93,242.37 L 422.06,243.99 Z" fill="#A8C8E8" stroke="none"/>
<path d="M 305.30,233.38 L 304.43,233.15 L 305.18,232.53 L 304.31,231.88 L 304.76,230.92 L 304.31,230.59 L 303.77,232.91 L 303.10,233.19 L 303.29,230.32 L 301.84,231.77 L 302.07,230.47 L 301.26,230.29 L 302.95,229.24 L 304.36,229.76 L 305.12,228.51 L 306.47,228.56 L 306.47,229.65 L 306.13,228.85 L 304.75,229.94 L 305.57,232.26 L 305.30,233.38 Z" fill="#A8C8E8" stroke="none"/>
<path d="M 409.44,232.27 L 408.91,231.53 L 407.89,232.67 L 407.56,232.16 L 407.01,232.71 L 406.09,232.46 L 406.60,231.00 L 409.61,230.14 L 409.44,232.27 Z" fill="#A8C8E8" stroke="none"/>
<path d="M 422.94,201.53 L 423.86,202.12 L 421.47,203.39 L 422.94,201.53 Z" fill="#A8C8E8" stroke="none"/>
<path d="M 441.39,261.47 L 440.54,260.56 L 441.21,259.37 L 442.44,260.22 L 442.07,261.04 L 441.35,260.11 L 441.00,260.73 L 441.39,261.47 Z" fill="#A8C8E8" stroke="none"/>
<path d="M 373.21,201.70 L 370.92,201.54 L 367.04,198.66 L 370.30,199.43 L 370.27,199.91 L 373.21,201.70 Z" fill="#A8C8E8" stroke="none"/>
<path d="M 325.26,212.73 L 324.50,212.55 L 323.41,210.34 L 320.40,210.61 L 320.37,209.81 L 318.79,209.61 L 319.43,208.29 L 319.99,209.05 L 320.93,208.67 L 321.08,209.86 L 321.92,209.32 L 322.00,209.74 L 324.62,210.62 L 325.26,212.73 Z" fill="#A8C8E8" stroke="none"/>
<path d="M 291.59,235.11 L 292.12,233.35 L 291.60,232.52 L 292.72,232.72 L 293.51,231.78 L 293.25,233.90 L 292.35,233.78 L 292.00,235.01 L 292.94,235.53 L 292.20,236.06 L 292.27,237.97 L 291.79,238.56 L 291.59,235.11 Z" fill="#A8C8E8" stroke="none"/>
<path d="M 322.89,232.08 L 321.67,231.97 L 320.01,230.64 L 319.14,229.32 L 319.54,228.86 L 318.74,228.96 L 318.98,228.35 L 319.61,228.08 L 320.38,228.53 L 320.75,230.38 L 322.89,232.08 Z" fill="#A8C8E8" stroke="none"/>
<path d="M 396.36,247.45 L 395.68,246.46 L 395.37,247.11 L 394.97,246.26 L 394.15,246.45 L 393.50,247.67 L 393.15,247.03 L 393.41,246.32 L 392.71,246.29 L 392.98,245.64 L 393.76,246.03 L 394.39,245.72 L 395.21,242.82 L 396.00,243.13 L 396.02,243.65 L 395.07,244.11 L 394.82,245.04 L 395.03,245.68 L 396.02,245.88 L 396.36,247.45 Z" fill="#A8C8E8" stroke="none"/>
<path d="M 395.23,154.90 L 395.11,156.17 L 394.31,156.45 L 393.55,156.03 L 395.23,154.90 Z" fill="#A8C8E8" stroke="none"/>
<path d="M 359.41,191.97 L 356.64,191.03 L 356.91,190.88 L 359.18,190.72 L 359.41,191.97 Z" fill="#A8C8E8" stroke="none"/>
<path d="M 366.28,198.16 L 363.66,196.90 L 363.56,196.27 L 365.21,196.85 L 366.28,198.16 Z" fill="#A8C8E8" stroke="none"/>
<path d="M 326.18,217.08 L 326.28,216.32 L 325.65,215.46 L 325.77,214.11 L 324.09,214.05 L 323.96,213.28 L 325.00,212.96 L 326.02,213.80 L 326.28,214.95 L 326.81,215.10 L 326.34,215.41 L 326.52,216.77 L 326.18,217.08 Z" fill="#A8C8E8" stroke="none"/>
<path d="M 312.06,233.26 L 311.89,232.68 L 309.89,232.19 L 310.75,231.62 L 313.62,232.86 L 312.06,233.26 Z" fill="#A8C8E8" stroke="none"/>
<path d="M 314.54,233.36 L 316.11,234.58 L 314.65,235.74 L 314.92,234.63 L 314.54,233.36 Z" fill="#A8C8E8" stroke="none"/>
<path d="M 371.21,231.93 L 371.01,233.23 L 369.81,232.51 L 370.25,231.75 L 371.21,231.93 Z" fill="#A8C8E8" stroke="none"/>
<path d="M 317.46,250.47 L 316.85,250.77 L 316.46,249.18 L 317.44,248.41 L 317.24,247.95 L 319.31,247.03 L 317.99,248.49 L 318.02,249.44 L 317.41,249.82 L 317.17,249.08 L 317.46,250.47 Z" fill="#A8C8E8" stroke="none"/>
<path d="M 385.14,151.14 L 385.84,152.60 L 385.66,153.25 L 384.89,153.57 L 384.71,152.41 L 385.14,151.14 Z" fill="#A8C8E8" stroke="none"/>
<path d="M 601.06,332.10 L 600.61,332.41 L 600.87,331.07 L 601.06,332.10 Z" fill="#A8C8E8" stroke="none"/>
<path d="M 597.52,334.35 L 597.16,334.37 L 596.86,334.09 L 596.88,333.57 L 597.52,334.35 Z" fill="#A8C8E8" stroke="none"/>
<path d="M 585.96,339.40 L 585.96,339.36 L 585.96,339.36 L 585.96,339.40 Z" fill="#A8C8E8" stroke="none"/>
<path d="M 590.65,341.53 L 590.46,339.81 L 588.99,339.88 L 588.55,338.22 L 589.35,339.77 L 590.66,339.38 L 590.65,341.53 Z" fill="#A8C8E8" stroke="none"/>
<path d="M 599.15,333.50 L 598.72,333.63 L 598.65,331.78 L 598.95,331.71 L 599.15,333.50 Z" fill="#A8C8E8" stroke="none"/>
<path d="M 584.26,343.05 L 582.83,343.25 L 583.06,342.72 L 582.30,342.80 L 582.84,342.35 L 584.26,343.05 Z" fill="#A8C8E8" stroke="none"/>
<path d="M 585.95,339.25 L 584.77,342.27 L 584.67,341.69 L 583.80,341.68 L 583.32,341.39 L 584.85,341.55 L 584.72,340.77 L 583.57,340.26 L 584.00,339.92 L 585.09,340.44 L 584.83,339.56 L 585.36,339.94 L 585.59,338.86 L 585.95,339.25 Z" fill="#A8C8E8" stroke="none"/>
<path d="M 592.13,336.63 L 593.14,334.58 L 592.57,336.39 L 592.98,336.89 L 592.13,336.63 Z" fill="#A8C8E8" stroke="none"/>
<path d="M 594.11,335.25 L 594.69,334.37 L 593.86,336.49 L 593.53,336.57 L 593.27,335.42 L 594.11,335.25 Z" fill="#A8C8E8" stroke="none"/>
<path d="M 599.06,335.98 L 599.02,334.76 L 599.18,334.77 L 599.17,336.27 L 598.74,336.08 L 599.06,335.98 Z" fill="#A8C8E8" stroke="none"/>
<path d="M 606.77,327.65 L 607.11,327.90 L 606.41,327.53 L 606.31,327.13 L 606.77,327.65 Z" fill="#A8C8E8" stroke="none"/>
<path d="M 582.15,345.58 L 582.69,346.23 L 582.07,346.65 L 582.10,345.77 L 581.24,345.04 L 582.15,345.58 Z" fill="#A8C8E8" stroke="none"/>
<path d="M 581.28,346.83 L 580.94,347.37 L 581.09,346.99 L 581.01,345.73 L 581.28,346.83 Z" fill="#A8C8E8" stroke="none"/>
<path d="M 582.83,345.35 L 583.43,344.89 L 582.82,345.45 L 582.44,345.04 L 582.83,345.35 Z" fill="#A8C8E8" stroke="none"/>
<path d="M 613.51,317.92 L 613.47,318.04 L 613.31,318.02 L 613.02,317.26 L 613.51,317.92 Z" fill="#A8C8E8" stroke="none"/>
<path d="M 614.50,317.37 L 614.33,317.77 L 614.40,317.54 L 614.50,317.37 Z" fill="#A8C8E8" stroke="none"/>
<path d="M 593.28,339.34 L 593.86,338.68 L 593.35,339.64 L 593.94,340.10 L 593.88,340.50 L 593.18,339.74 L 593.28,339.34 Z" fill="#A8C8E8" stroke="none"/>
<path d="M 458.37,324.05 L 459.07,324.57 L 458.66,324.69 L 459.05,325.18 L 459.84,324.90 L 460.17,325.73 L 459.39,325.84 L 458.04,324.44 L 458.37,324.05 Z" fill="#A8C8E8" stroke="none"/>
<path d="M 459.55,323.00 L 459.38,323.47 L 459.99,324.28 L 459.28,324.56 L 458.79,323.63 L 457.98,323.79 L 458.63,322.76 L 459.04,323.31 L 459.55,323.00 Z" fill="#A8C8E8" stroke="none"/>
</svg>