<svg xmlns="http://www.w3.org/2000/svg" width="800" height="500" viewBox="0 0 800 500">
<rect width="800" height="500" fill="#A8C8E8"/>
<path d="M 789.30,291.33 L 799.50,283.04 L 800.00,283.20 L 800.00,294.48 L 789.30,291.33 Z" fill="#E8E0D0" stroke="#B8B0A0" stroke-width="0.5"/>
<path d="M 78.19,278.07 L 115.18,316.74 L 109.13,329.02 L 41.23,360.82 L 0.00,368.06 L 0.00,263.14 L 78.19,278.07 Z" fill="#E8E0D0" stroke="#B8B0A0" stroke-width="0.5"/>
<path d="M 54.24,354.80 L 49.11,369.23 L 0.00,378.04 L 0.00,365.24 L 54.24,354.80 Z M 18.37,493.98 L 335.88,432.80 L 355.03,414.31 L 384.52,418.85 L 353.25,398.90 L 444.92,419.50 L 457.74,409.09 L 439.64,379.35 L 340.70,392.57 L 341.65,366.75 L 318.15,353.65 L 342.20,313.99 L 389.22,300.41 L 434.82,329.11 L 456.86,388.95 L 487.75,414.65 L 576.05,403.98 L 677.85,416.98 L 792.82,456.45 L 800.00,466.32 L 800.00,500.00 L 39.21,500.00 L 18.37,493.98 Z" fill="#E8E0D0" stroke="#B8B0A0" stroke-width="0.5"/>
<path d="M 708.72,323.20 L 649.21,312.02 L 602.12,270.89 L 708.72,323.20 Z" fill="#E8E0D0" stroke="#B8B0A0" stroke-width="0.5"/>
<path d="M 412.48,250.36 L 421.63,266.23 L 379.13,247.56 L 378.37,233.77 L 412.48,250.36 Z" fill="#4A90D9" stroke="#1a5fa8" stroke-width="1.2"/>
</svg>