<svg xmlns="http://www.w3.org/2000/svg" width="800" height="500" viewBox="0 0 800 500">
<rect width="800" height="500" fill="#A8C8E8"/>
<path d="M 637.53,291.33 L 643.75,283.04 L 644.05,283.20 L 644.05,294.48 L 637.53,291.33 Z" fill="#E8E0D0" stroke="#B8B0A0" stroke-width="0.5"/>
<path d="M 203.65,278.07 L 226.22,316.74 L 222.53,329.02 L 181.10,360.82 L 155.95,368.06 L 155.95,263.14 L 203.65,278.07 Z" fill="#E8E0D0" stroke="#B8B0A0" stroke-width="0.5"/>
<path d="M 189.04,354.80 L 185.91,369.23 L 155.95,378.04 L 155.95,365.24 L 189.04,354.80 Z M 167.15,493.98 L 360.88,432.80 L 372.56,414.31 L 390.55,418.85 L 371.48,398.90 L 427.41,419.50 L 435.23,409.09 L 424.19,379.35 L 363.82,392.57 L 364.40,366.75 L 350.06,353.65 L 364.73,313.99 L 393.42,300.41 L 421.25,329.11 L 434.69,388.95 L 453.54,414.65 L 507.41,403.98 L 569.53,416.98 L 639.67,456.45 L 644.05,466.32 L 644.05,500.00 L 179.87,500.00 L 167.15,493.98 Z" fill="#E8E0D0" stroke="#B8B0A0" stroke-width="0.5"/>
<path d="M 588.36,323.20 L 552.05,312.02 L 523.32,270.89 L 588.36,323.20 Z" fill="#E8E0D0" stroke="#B8B0A0" stroke-width="0.5"/>
<path d="M 407.62,250.36 L 413.20,266.23 L 387.26,247.56 L 386.80,233.77 L 407.62,250.36 Z" fill="#4A90D9" stroke="#1a5fa8" stroke-width="1.2"/>
</svg>