<svg xmlns="http://www.w3.org/2000/svg" width="800" height="500" viewBox="0 0 800 500">
<rect width="800" height="500" fill="#A8C8E8"/>
<path d="M 22.25,278.82 L 11.37,266.76 L 27.32,261.22 L 48.86,287.84 L 91.00,295.80 L 81.76,305.37 L 44.59,290.55 L 54.11,302.68 L 6.57,315.72 L 91.71,318.71 L 51.43,318.38 L 0.00,332.07 L 0.00,265.10 L 22.25,278.82 Z M 10.60,403.79 L 0.00,405.86 L 0.00,403.38 L 10.60,403.79 Z M 16.88,396.44 L 3.76,394.85 L 12.51,389.82 L 16.88,396.44 Z M 9.86,383.99 L 0.00,386.86 L 0.00,381.95 L 9.86,383.99 Z M 39.36,373.37 L 40.46,374.37 L 35.01,375.01 L 39.36,373.37 Z M 57.51,377.53 L 47.95,373.24 L 53.48,372.42 L 57.51,377.53 Z M 46.57,372.23 L 38.24,369.52 L 47.75,366.21 L 46.57,372.23 Z M 0.00,354.58 L 0.00,352.64 L 7.87,351.40 L 0.00,354.58 Z M 49.41,344.72 L 37.74,342.76 L 57.53,334.43 L 49.41,344.72 Z M 29.07,344.61 L 12.30,346.37 L 54.17,333.20 L 29.07,344.61 Z M 66.10,312.94 L 44.53,311.79 L 62.88,300.89 L 66.10,312.94 Z M 11.37,246.91 L 24.82,254.50 L 4.19,255.31 L 11.37,246.91 Z" fill="#E8E0D0" stroke="#B8B0A0" stroke-width="0.5"/>
<path d="M 798.88,196.96 L 769.43,204.91 L 783.22,181.36 L 726.11,203.22 L 702.53,190.95 L 717.75,190.95 L 675.23,188.91 L 690.59,184.55 L 661.41,171.76 L 690.59,165.35 L 655.31,150.29 L 680.19,138.58 L 647.76,113.95 L 693.66,113.95 L 683.75,96.79 L 712.62,91.45 L 692.11,84.95 L 709.20,79.62 L 704.16,64.70 L 685.32,60.41 L 716.20,58.28 L 678.63,47.51 L 721.13,47.51 L 693.66,34.62 L 752.17,41.01 L 707.49,21.81 L 702.53,12.21 L 719.58,14.34 L 690.59,4.64 L 687.77,0.00 L 800.00,0.00 L 800.00,197.22 L 798.88,196.96 Z M 715.86,252.98 L 736.67,255.25 L 726.38,263.64 L 697.24,258.45 L 715.86,252.98 Z M 786.47,248.85 L 795.02,252.04 L 747.05,260.59 L 786.47,248.85 Z M 665.32,248.88 L 685.32,250.89 L 640.76,249.81 L 665.32,248.88 Z M 771.62,221.16 L 775.12,206.67 L 800.00,212.12 L 800.00,224.65 L 771.62,221.16 Z M 743.51,206.95 L 764.14,197.44 L 763.22,199.59 L 743.51,206.95 Z M 635.66,201.72 L 630.39,192.12 L 642.72,194.86 L 652.87,204.33 L 635.66,201.72 Z M 693.66,197.44 L 683.75,205.98 L 655.25,197.51 L 693.66,197.44 Z M 631.38,186.80 L 626.56,183.29 L 640.76,179.12 L 647.76,190.95 L 631.38,186.80 Z M 623.69,140.62 L 647.76,139.64 L 640.60,128.35 L 666.66,134.22 L 652.62,142.07 L 623.69,140.62 Z M 791.93,231.96 L 800.00,231.73 L 800.00,235.60 L 791.93,231.96 Z M 661.92,224.63 L 646.70,221.70 L 650.04,218.72 L 661.92,224.63 Z M 729.77,240.13 L 713.96,244.25 L 719.82,237.51 L 729.77,240.13 Z M 638.89,149.87 L 619.67,145.77 L 634.56,147.41 L 638.89,149.87 Z M 661.19,95.84 L 658.83,93.56 L 668.11,89.91 L 678.56,95.73 L 661.19,95.84 Z M 700.05,26.77 L 688.09,25.01 L 694.23,23.28 L 700.05,26.77 Z" fill="#E8E0D0" stroke="#B8B0A0" stroke-width="0.5"/>
<path d="M 392.49,269.21 L 373.57,265.92 L 378.70,256.22 L 392.49,269.21 Z M 240.86,254.89 L 204.85,256.37 L 215.06,239.74 L 240.86,254.89 Z M 421.32,248.85 L 409.44,242.46 L 412.82,238.08 L 430.07,238.08 L 421.32,248.85 Z M 520.73,242.30 L 519.91,234.86 L 536.35,238.08 L 520.73,242.30 Z M 337.56,249.81 L 338.42,231.15 L 329.02,230.62 L 327.16,250.89 L 301.73,245.50 L 325.60,255.25 L 334.14,252.04 L 335.71,264.31 L 310.22,272.15 L 263.85,268.05 L 234.84,238.08 L 272.23,232.75 L 276.65,249.81 L 306.68,235.47 L 267.43,224.12 L 293.68,216.22 L 392.49,236.05 L 337.56,249.81 Z M 547.46,288.95 L 553.14,293.78 L 551.18,294.52 L 547.46,288.95 Z M 568.78,291.86 L 551.41,287.65 L 572.06,287.43 L 568.78,291.86 Z M 469.89,278.33 L 448.30,277.62 L 459.33,270.83 L 469.89,278.33 Z M 438.74,269.16 L 420.63,275.19 L 423.97,273.27 L 438.74,269.16 Z M 440.93,273.14 L 440.53,270.63 L 458.55,268.50 L 440.93,273.14 Z M 490.98,262.53 L 481.97,257.10 L 488.07,256.20 L 490.98,262.53 Z M 499.57,245.50 L 502.17,246.89 L 490.76,248.47 L 499.57,245.50 Z M 508.09,230.78 L 506.26,230.48 L 512.39,222.39 L 508.09,230.78 Z M 407.95,276.45 L 434.86,280.35 L 399.75,286.84 L 407.95,276.45 Z M 363.91,265.87 L 379.40,278.74 L 366.87,284.06 L 331.51,269.66 L 363.91,265.87 Z M 595.15,208.94 L 589.33,208.54 L 589.17,205.48 L 595.15,208.94 Z" fill="#4A90D9" stroke="#1a5fa8" stroke-width="1.2"/>
</svg>