<svg xmlns="http://www.w3.org/2000/svg" width="800" height="500" viewBox="0 0 800 500">
<rect width="800" height="500" fill="#A8C8E8"/>
<path d="M 792.82,12.52 L 783.93,4.63 L 761.92,8.62 L 755.73,0.00 L 800.00,0.00 L 800.00,11.48 L 792.82,12.52 Z" fill="#E8E0D0" stroke="#B8B0A0" stroke-width="0.5"/>
<path d="M 7.71,497.90 L 15.87,500.00 L 0.00,500.00 L 0.00,498.22 L 7.71,497.90 Z" fill="#E8E0D0" stroke="#B8B0A0" stroke-width="0.5"/>
<path d="M 172.31,155.70 L 186.45,160.62 L 175.33,167.83 L 205.26,171.83 L 220.69,185.66 L 201.36,202.42 L 214.44,223.37 L 253.28,242.81 L 244.23,261.93 L 219.00,265.47 L 233.00,268.13 L 270.85,299.18 L 300.00,302.63 L 285.99,315.55 L 306.72,332.96 L 288.94,334.78 L 297.23,344.91 L 299.12,362.77 L 266.70,364.42 L 251.46,338.68 L 253.84,329.93 L 234.36,319.19 L 234.95,302.01 L 206.60,308.52 L 191.61,298.60 L 182.04,300.79 L 172.20,283.34 L 150.00,289.38 L 111.52,259.71 L 86.38,262.04 L 54.92,252.96 L 59.71,247.66 L 45.83,220.07 L 58.50,208.08 L 59.65,194.58 L 35.63,163.85 L 99.06,152.82 L 156.28,154.70 L 153.96,148.94 L 169.53,147.41 L 172.31,155.70 Z M 166.49,169.37 L 170.68,171.30 L 170.95,166.68 L 166.49,169.37 Z M 188.23,175.25 L 184.52,173.93 L 185.34,175.99 L 188.23,175.25 Z M 210.41,204.66 L 217.40,204.89 L 216.23,207.22 L 210.41,204.66 Z" fill="#C8D8E8" stroke="#8BAABB" stroke-width="0.8"/>
<path d="M 66.51,17.20 L 59.82,28.07 L 78.43,34.57 L 127.16,16.86 L 141.84,19.24 L 149.91,29.43 L 157.27,16.03 L 182.65,21.96 L 196.99,36.55 L 232.73,41.79 L 223.46,65.96 L 250.56,81.90 L 289.91,91.55 L 283.20,104.84 L 271.26,107.19 L 271.58,118.81 L 314.62,149.25 L 306.64,164.97 L 295.77,169.43 L 274.65,155.90 L 252.41,158.33 L 230.17,149.44 L 233.11,143.39 L 193.48,132.88 L 165.48,149.89 L 153.96,148.94 L 156.28,154.70 L 99.06,152.82 L 36.49,164.02 L 30.73,156.64 L 6.71,151.13 L 13.65,146.64 L 0.00,139.64 L 0.00,0.00 L 12.23,0.00 L 66.51,17.20 Z" fill="#C8D8E8" stroke="#8BAABB" stroke-width="0.8"/>
<path d="M 182.42,333.14 L 196.00,334.30 L 206.93,351.86 L 265.86,364.52 L 302.52,362.09 L 349.55,324.65 L 424.06,289.23 L 455.57,318.35 L 435.61,328.16 L 451.69,351.82 L 431.53,356.85 L 425.92,365.64 L 453.11,387.99 L 462.11,386.39 L 478.62,406.25 L 501.46,402.84 L 507.48,450.30 L 523.60,475.34 L 550.11,486.83 L 614.74,496.27 L 616.66,500.00 L 144.49,500.00 L 132.65,492.56 L 134.70,467.02 L 100.92,450.86 L 122.93,411.41 L 108.42,407.48 L 107.17,366.22 L 96.63,355.40 L 99.60,339.26 L 90.26,334.34 L 84.87,318.78 L 116.86,315.17 L 122.99,289.77 L 132.10,283.74 L 152.78,295.01 L 182.42,333.14 Z" fill="#C8D8E8" stroke="#8BAABB" stroke-width="0.8"/>
<path d="M 400.63,6.41 L 403.13,24.68 L 434.74,52.67 L 459.66,89.57 L 476.14,97.79 L 458.24,121.50 L 431.10,132.13 L 415.46,154.76 L 387.70,154.99 L 363.79,146.30 L 352.90,123.98 L 343.10,123.57 L 318.56,97.26 L 303.71,103.03 L 300.11,94.48 L 249.41,81.40 L 223.46,65.96 L 229.22,38.56 L 196.99,36.55 L 179.87,21.15 L 157.27,16.03 L 149.91,29.43 L 141.84,19.24 L 127.16,16.86 L 78.43,34.57 L 59.82,28.07 L 66.51,17.20 L 12.23,0.00 L 391.19,0.00 L 400.63,6.41 Z" fill="#C8D8E8" stroke="#8BAABB" stroke-width="0.8"/>
<path d="M 59.65,194.58 L 58.50,208.08 L 45.83,220.07 L 59.71,247.66 L 54.92,252.96 L 86.38,262.04 L 111.52,259.71 L 152.78,295.01 L 132.10,283.74 L 122.99,289.77 L 116.86,315.17 L 84.87,318.78 L 90.26,334.34 L 99.60,339.26 L 96.63,355.40 L 107.17,366.22 L 108.42,407.48 L 122.93,411.41 L 100.92,450.86 L 134.70,467.02 L 132.12,491.10 L 145.13,500.00 L 15.87,500.00 L 7.71,497.90 L 0.69,500.00 L 0.00,500.00 L 0.00,139.64 L 13.65,146.64 L 6.71,151.13 L 30.73,156.64 L 59.65,194.58 Z" fill="#C8D8E8" stroke="#8BAABB" stroke-width="0.8"/>
<path d="M 170.95,166.68 L 170.68,171.30 L 166.49,169.37 L 170.95,166.68 Z M 190.73,133.63 L 209.17,134.91 L 233.11,143.39 L 228.13,146.89 L 239.69,154.71 L 273.11,155.48 L 297.64,169.37 L 308.30,163.13 L 314.08,147.95 L 281.97,129.23 L 270.49,114.79 L 271.26,107.19 L 281.95,105.71 L 291.99,93.75 L 301.65,95.19 L 303.71,103.03 L 318.56,97.26 L 343.10,123.57 L 352.90,123.98 L 363.79,146.30 L 411.83,155.64 L 431.10,132.13 L 460.21,119.82 L 476.14,97.79 L 515.88,136.32 L 529.00,168.26 L 558.43,192.33 L 558.44,204.32 L 618.33,218.44 L 631.50,241.79 L 617.68,232.15 L 588.83,229.80 L 554.46,249.04 L 548.55,288.78 L 536.67,305.53 L 547.14,326.35 L 535.65,322.14 L 529.67,349.18 L 519.04,355.51 L 524.90,344.77 L 509.46,335.80 L 505.53,358.01 L 497.82,363.76 L 501.46,402.84 L 478.62,406.25 L 462.11,386.39 L 453.11,387.99 L 425.92,365.64 L 431.53,356.85 L 451.69,351.82 L 435.61,328.16 L 455.57,318.35 L 424.06,289.23 L 349.55,324.65 L 299.12,362.77 L 297.23,344.91 L 288.94,334.78 L 306.72,332.96 L 285.99,315.55 L 300.00,302.63 L 270.85,299.18 L 233.00,268.13 L 219.00,265.47 L 244.23,261.93 L 253.28,242.81 L 214.44,223.37 L 201.36,202.42 L 220.69,185.66 L 205.26,171.83 L 175.33,167.83 L 186.45,160.62 L 172.31,155.70 L 169.53,147.41 L 190.73,133.63 Z M 216.23,207.22 L 217.40,204.89 L 210.41,204.66 L 216.23,207.22 Z M 206.93,351.86 L 196.00,334.30 L 182.42,333.14 L 150.00,289.38 L 172.20,283.34 L 182.04,300.79 L 191.61,298.60 L 206.60,308.52 L 236.89,303.14 L 234.36,319.19 L 253.84,329.93 L 251.46,338.68 L 266.70,364.42 L 206.93,351.86 Z M 185.34,175.99 L 184.52,173.93 L 188.23,175.25 L 185.34,175.99 Z M 647.07,235.08 L 646.43,232.60 L 650.00,232.60 L 647.07,235.08 Z M 628.29,227.05 L 625.95,219.71 L 628.87,220.38 L 628.29,227.05 Z" fill="#4A90D9" stroke="#1a5fa8" stroke-width="1.2"/>
<path d="M 165.94,216.34 L 167.45,207.02 L 204.14,220.94 L 226.05,244.82 L 193.85,249.61 L 187.08,227.05 L 165.94,216.34 Z" fill="#A8C8E8" stroke="none"/>
<path d="M 307.99,181.72 L 284.01,182.35 L 299.94,175.59 L 292.84,168.88 L 308.44,167.53 L 354.47,193.67 L 307.99,181.72 Z" fill="#A8C8E8" stroke="none"/>
<path d="M 240.62,500.00 L 215.84,500.00 L 215.72,493.72 L 211.91,492.06 L 210.80,495.29 L 215.50,500.00 L 197.67,500.00 L 191.02,463.10 L 174.47,454.39 L 174.47,442.75 L 186.43,431.51 L 169.65,429.33 L 173.38,419.27 L 200.33,417.88 L 210.88,426.83 L 205.48,459.70 L 211.69,466.05 L 234.10,466.05 L 237.02,473.74 L 225.89,473.81 L 246.66,495.24 L 240.62,500.00 Z M 219.84,483.84 L 217.67,487.53 L 221.76,489.98 L 219.84,483.84 Z" fill="#A8C8E8" stroke="none"/>
<path d="M 0.00,412.01 L 0.00,370.41 L 5.79,369.75 L 15.61,361.91 L 6.20,364.91 L 4.05,358.41 L 32.29,352.09 L 54.37,356.99 L 24.34,366.94 L 4.98,386.94 L 24.97,393.16 L 24.14,402.34 L 9.12,413.32 L 0.00,412.01 Z" fill="#A8C8E8" stroke="none"/>
</svg>