<svg xmlns="http://www.w3.org/2000/svg" width="800" height="500" viewBox="0 0 800 500">
<rect width="800" height="500" fill="#A8C8E8"/>
<path d="M 790.55,488.42 L 800.00,464.51 L 800.00,500.00 L 765.38,500.00 L 773.06,485.71 L 790.55,488.42 Z" fill="#E8E0D0" stroke="#B8B0A0" stroke-width="0.5"/>
<path d="M 765.30,500.00 L 648.35,500.00 L 647.45,491.96 L 618.28,488.11 L 619.23,459.16 L 606.30,450.38 L 661.31,395.90 L 672.28,416.61 L 705.08,407.05 L 730.65,434.38 L 762.06,444.63 L 777.20,475.67 L 765.30,500.00 Z" fill="#E8E0D0" stroke="#B8B0A0" stroke-width="0.5"/>
<path d="M 713.42,396.10 L 704.50,384.80 L 761.37,372.84 L 759.20,361.99 L 785.65,346.43 L 777.81,333.50 L 800.00,326.73 L 800.00,463.98 L 787.78,489.06 L 773.06,485.71 L 764.52,446.87 L 730.65,434.38 L 708.40,408.32 L 713.42,396.10 Z" fill="#E8E0D0" stroke="#B8B0A0" stroke-width="0.5"/>
<path d="M 798.82,71.37 L 800.00,55.84 L 800.00,71.85 L 798.82,71.37 Z M 788.63,41.06 L 732.50,0.00 L 800.00,0.00 L 800.00,40.08 L 788.63,41.06 Z" fill="#E8E0D0" stroke="#B8B0A0" stroke-width="0.5"/>
<path d="M 605.19,13.68 L 582.66,9.38 L 568.92,20.52 L 526.92,22.16 L 494.57,41.21 L 424.22,37.77 L 389.85,18.87 L 358.20,16.63 L 335.99,0.00 L 629.22,0.00 L 605.19,13.68 Z" fill="#E8E0D0" stroke="#B8B0A0" stroke-width="0.5"/>
<path d="M 18.76,450.98 L 22.81,461.42 L 77.49,479.44 L 203.05,480.34 L 208.70,496.46 L 201.87,500.00 L 0.00,500.00 L 0.00,439.80 L 18.76,450.98 Z" fill="#E8E0D0" stroke="#B8B0A0" stroke-width="0.5"/>
<path d="M 146.07,7.38 L 143.25,29.73 L 89.03,43.32 L 104.33,52.88 L 90.78,57.31 L 98.07,74.41 L 74.13,77.03 L 46.23,67.27 L 30.08,72.99 L 2.24,49.71 L 0.00,51.53 L 0.00,0.00 L 134.51,0.00 L 146.07,7.38 Z" fill="#E8E0D0" stroke="#B8B0A0" stroke-width="0.5"/>
<path d="M 351.09,13.31 L 389.85,18.87 L 424.22,37.77 L 494.57,41.21 L 526.92,22.16 L 558.56,19.45 L 551.30,32.72 L 567.21,49.60 L 558.85,60.59 L 584.95,67.65 L 572.50,69.14 L 568.37,83.79 L 623.78,103.10 L 586.96,103.94 L 577.04,110.67 L 588.22,131.82 L 557.05,142.39 L 530.58,116.70 L 509.08,120.02 L 473.13,108.35 L 421.35,119.04 L 401.90,107.60 L 337.82,109.37 L 303.99,93.75 L 289.49,105.62 L 253.07,100.90 L 225.69,126.30 L 187.60,101.86 L 158.22,104.63 L 150.00,152.97 L 188.61,169.56 L 185.75,179.18 L 199.96,181.42 L 227.06,231.88 L 317.66,293.22 L 348.56,303.02 L 351.06,321.38 L 394.65,350.89 L 395.44,361.94 L 380.13,360.97 L 378.37,352.68 L 298.36,309.60 L 235.37,297.55 L 240.83,293.08 L 179.75,298.34 L 178.58,277.13 L 147.15,268.53 L 74.81,218.88 L 74.31,208.89 L 94.22,212.54 L 89.84,203.13 L 110.86,210.55 L 124.27,210.11 L 57.14,175.88 L 41.23,158.20 L 46.11,131.17 L 37.24,115.68 L 0.93,92.70 L 0.00,92.54 L 0.00,51.53 L 2.24,49.71 L 30.08,72.99 L 46.23,67.27 L 74.13,77.03 L 98.07,74.41 L 90.78,57.31 L 104.33,52.88 L 89.03,43.32 L 143.25,29.73 L 146.07,7.38 L 134.51,0.00 L 334.10,0.00 L 351.09,13.31 Z M 506.42,423.31 L 428.70,380.27 L 406.57,376.21 L 411.84,381.67 L 410.14,382.43 L 341.27,358.24 L 319.67,356.81 L 313.94,350.32 L 409.21,374.71 L 397.86,368.77 L 418.26,366.60 L 424.27,377.27 L 498.82,406.89 L 506.42,423.31 Z M 303.57,381.85 L 305.54,384.33 L 290.66,386.57 L 303.57,381.85 Z M 410.16,391.34 L 355.42,380.27 L 364.25,379.03 L 410.16,391.34 Z M 339.51,365.23 L 294.60,367.65 L 266.30,358.24 L 339.51,365.23 Z M 196.19,354.92 L 191.25,348.75 L 201.73,346.08 L 216.03,347.97 L 196.19,354.92 Z M 232.81,333.78 L 338.63,341.62 L 306.42,341.62 L 232.81,333.78 Z M 239.29,319.75 L 237.21,318.01 L 239.85,310.96 L 299.87,320.37 L 239.29,319.75 Z M 229.86,317.33 L 210.77,309.47 L 220.64,308.91 L 229.86,317.33 Z M 151.54,284.14 L 142.73,283.00 L 133.94,278.72 L 151.54,284.14 Z M 90.50,257.77 L 107.15,267.49 L 85.53,255.77 L 90.50,257.77 Z M 89.84,240.07 L 113.63,254.27 L 102.38,250.61 L 89.84,240.07 Z M 71.88,230.74 L 64.25,222.74 L 85.27,233.73 L 88.96,239.29 L 71.88,230.74 Z M 33.33,221.96 L 39.35,225.19 L 33.97,223.20 L 33.33,221.96 Z M 81.24,255.98 L 36.83,221.16 L 57.14,230.66 L 81.24,255.98 Z M 21.90,160.55 L 88.96,202.27 L 72.78,205.49 L 21.90,160.55 Z M 12.14,149.56 L 21.02,149.56 L 15.74,144.00 L 38.05,158.92 L 12.14,149.56 Z M 0.00,124.09 L 0.00,99.59 L 32.37,129.03 L 20.58,132.95 L 0.00,124.09 Z M 233.28,299.92 L 212.19,299.93 L 219.01,297.31 L 233.28,299.92 Z M 29.37,210.03 L 29.12,210.67 L 23.82,211.28 L 29.37,210.03 Z M 10.30,203.91 L 12.59,205.88 L 4.05,201.46 L 10.30,203.91 Z M 24.80,199.52 L 25.73,193.62 L 30.86,194.75 L 24.80,199.52 Z" fill="#C8D8E8" stroke="#8BAABB" stroke-width="0.8"/>
<path d="M 498.82,406.89 L 513.32,394.38 L 498.32,361.50 L 524.78,353.92 L 528.04,329.45 L 548.24,317.02 L 570.30,325.55 L 580.24,320.76 L 559.12,299.87 L 568.37,293.48 L 596.42,295.02 L 596.02,304.02 L 648.28,336.00 L 690.91,343.15 L 745.57,368.77 L 723.65,385.83 L 703.45,385.75 L 713.42,396.10 L 697.68,412.45 L 674.46,417.35 L 664.25,396.91 L 651.33,401.63 L 606.67,449.16 L 619.23,459.16 L 618.28,488.11 L 593.19,478.27 L 556.59,438.47 L 542.75,439.95 L 512.70,422.47 L 532.69,425.99 L 531.01,415.66 L 506.42,423.31 L 498.82,406.89 Z" fill="#C8D8E8" stroke="#8BAABB" stroke-width="0.8"/>
<path d="M 788.63,41.06 L 800.00,40.08 L 800.00,55.84 L 798.82,71.37 L 800.00,71.85 L 800.00,328.03 L 777.81,333.50 L 782.94,350.24 L 759.20,361.99 L 761.37,372.84 L 744.50,376.07 L 743.44,366.93 L 690.91,343.15 L 648.28,336.00 L 593.92,300.99 L 603.81,288.61 L 634.31,291.39 L 636.60,281.88 L 602.62,241.11 L 639.33,243.96 L 650.96,237.24 L 586.29,201.85 L 588.00,181.79 L 619.76,142.18 L 595.33,134.77 L 573.30,141.88 L 570.16,136.22 L 588.22,131.82 L 577.04,110.67 L 623.78,103.10 L 568.37,83.79 L 572.50,69.14 L 584.95,67.65 L 558.85,60.59 L 567.21,49.60 L 552.64,27.93 L 579.69,10.16 L 605.19,13.68 L 629.22,0.00 L 732.50,0.00 L 788.63,41.06 Z" fill="#C8D8E8" stroke="#8BAABB" stroke-width="0.8"/>
<path d="M 385.39,363.74 L 399.07,360.18 L 394.65,350.89 L 351.06,321.38 L 348.56,303.02 L 317.66,293.22 L 227.06,231.88 L 199.96,181.42 L 185.75,179.18 L 188.61,169.56 L 150.00,152.97 L 158.22,104.63 L 187.60,101.86 L 225.69,126.30 L 253.07,100.90 L 289.49,105.62 L 303.99,93.75 L 337.82,109.37 L 401.90,107.60 L 421.35,119.04 L 473.13,108.35 L 509.08,120.02 L 529.82,116.40 L 557.05,142.39 L 595.33,134.77 L 618.74,139.41 L 585.07,197.37 L 650.00,235.08 L 639.33,243.96 L 606.39,239.92 L 600.80,246.20 L 630.72,268.67 L 634.31,291.39 L 615.89,286.29 L 559.81,297.96 L 580.24,320.76 L 570.30,325.55 L 548.24,317.02 L 528.04,329.45 L 524.78,353.92 L 500.80,357.00 L 499.75,377.26 L 513.32,394.38 L 505.87,406.25 L 441.90,386.07 L 418.26,366.60 L 385.39,363.74 Z" fill="#4A90D9" stroke="#1a5fa8" stroke-width="1.2"/>
<path d="M 603.17,454.60 L 581.30,436.00 L 614.69,441.82 L 627.24,432.21 L 618.37,444.59 L 633.15,458.16 L 603.17,454.60 Z" fill="#A8C8E8" stroke="none"/>
</svg>