<svg xmlns="http://www.w3.org/2000/svg" width="800" height="500" viewBox="0 0 800 500">
<rect width="800" height="500" fill="#A8C8E8"/>
<path d="M 651.00,488.42 L 657.07,464.51 L 657.07,500.00 L 634.82,500.00 L 639.76,485.71 L 651.00,488.42 Z" fill="#E8E0D0" stroke="#B8B0A0" stroke-width="0.5"/>
<path d="M 634.77,500.00 L 559.61,500.00 L 559.03,491.96 L 540.28,488.11 L 540.90,459.16 L 532.58,450.38 L 567.94,395.90 L 574.99,416.61 L 596.07,407.05 L 612.50,434.38 L 632.69,444.63 L 642.42,475.67 L 634.77,500.00 Z" fill="#E8E0D0" stroke="#B8B0A0" stroke-width="0.5"/>
<path d="M 601.43,396.10 L 595.70,384.80 L 632.24,372.84 L 630.85,361.99 L 647.85,346.43 L 642.82,333.50 L 657.07,326.73 L 657.07,463.98 L 649.22,489.06 L 639.76,485.71 L 634.27,446.87 L 612.50,434.38 L 598.20,408.32 L 601.43,396.10 Z" fill="#E8E0D0" stroke="#B8B0A0" stroke-width="0.5"/>
<path d="M 656.31,71.37 L 657.07,55.84 L 657.07,71.85 L 656.31,71.37 Z M 649.77,41.06 L 613.69,0.00 L 657.07,0.00 L 657.07,40.08 L 649.77,41.06 Z" fill="#E8E0D0" stroke="#B8B0A0" stroke-width="0.5"/>
<path d="M 531.87,13.68 L 517.39,9.38 L 508.57,20.52 L 481.57,22.16 L 460.78,41.21 L 415.57,37.77 L 393.47,18.87 L 373.13,16.63 L 358.86,0.00 L 547.32,0.00 L 531.87,13.68 Z" fill="#E8E0D0" stroke="#B8B0A0" stroke-width="0.5"/>
<path d="M 154.98,450.98 L 157.59,461.42 L 192.73,479.44 L 273.42,480.34 L 277.05,496.46 L 272.67,500.00 L 142.93,500.00 L 142.93,439.80 L 154.98,450.98 Z" fill="#E8E0D0" stroke="#B8B0A0" stroke-width="0.5"/>
<path d="M 236.81,7.38 L 234.99,29.73 L 200.15,43.32 L 209.97,52.88 L 201.27,57.31 L 205.95,74.41 L 190.57,77.03 L 172.64,67.27 L 162.26,72.99 L 144.36,49.71 L 142.93,51.53 L 142.93,0.00 L 229.37,0.00 L 236.81,7.38 Z" fill="#E8E0D0" stroke="#B8B0A0" stroke-width="0.5"/>
<path d="M 368.57,13.31 L 393.47,18.87 L 415.57,37.77 L 460.78,41.21 L 481.57,22.16 L 501.90,19.45 L 497.24,32.72 L 507.46,49.60 L 502.09,60.59 L 518.86,67.65 L 510.87,69.14 L 508.21,83.79 L 543.82,103.10 L 520.16,103.94 L 513.78,110.67 L 520.97,131.82 L 500.94,142.39 L 483.92,116.70 L 470.10,120.02 L 447.00,108.35 L 413.72,119.04 L 401.22,107.60 L 360.04,109.37 L 338.30,93.75 L 328.97,105.62 L 305.57,100.90 L 287.97,126.30 L 263.49,101.86 L 244.61,104.63 L 239.33,152.97 L 264.14,169.56 L 262.30,179.18 L 271.44,181.42 L 288.85,231.88 L 347.08,293.22 L 366.94,303.02 L 368.55,321.38 L 396.56,350.89 L 397.07,361.94 L 387.23,360.97 L 386.10,352.68 L 334.68,309.60 L 294.19,297.55 L 297.70,293.08 L 258.45,298.34 L 257.70,277.13 L 237.49,268.53 L 191.00,218.88 L 190.68,208.89 L 203.48,212.54 L 200.66,203.13 L 214.17,210.55 L 222.79,210.11 L 179.65,175.88 L 169.43,158.20 L 172.56,131.17 L 166.86,115.68 L 143.52,92.70 L 142.93,92.54 L 142.93,51.53 L 144.36,49.71 L 162.26,72.99 L 172.64,67.27 L 190.57,77.03 L 205.95,74.41 L 201.27,57.31 L 209.97,52.88 L 200.15,43.32 L 234.99,29.73 L 236.81,7.38 L 229.37,0.00 L 357.65,0.00 L 368.57,13.31 Z M 468.40,423.31 L 418.44,380.27 L 404.22,376.21 L 407.61,381.67 L 406.52,382.43 L 362.26,358.24 L 348.38,356.81 L 344.69,350.32 L 405.92,374.71 L 398.62,368.77 L 411.73,366.60 L 415.60,377.27 L 463.51,406.89 L 468.40,423.31 Z M 338.02,381.85 L 339.29,384.33 L 329.73,386.57 L 338.02,381.85 Z M 406.53,391.34 L 371.35,380.27 L 377.03,379.03 L 406.53,391.34 Z M 361.12,365.23 L 332.26,367.65 L 314.08,358.24 L 361.12,365.23 Z M 269.01,354.92 L 265.84,348.75 L 272.58,346.08 L 281.76,347.97 L 269.01,354.92 Z M 292.55,333.78 L 360.56,341.62 L 339.86,341.62 L 292.55,333.78 Z M 296.71,319.75 L 295.38,318.01 L 297.08,310.96 L 335.65,320.37 L 296.71,319.75 Z M 290.65,317.33 L 278.39,309.47 L 284.73,308.91 L 290.65,317.33 Z M 240.32,284.14 L 234.66,283.00 L 229.01,278.72 L 240.32,284.14 Z M 201.09,257.77 L 211.79,267.49 L 197.89,255.77 L 201.09,257.77 Z M 200.66,240.07 L 215.96,254.27 L 208.72,250.61 L 200.66,240.07 Z M 189.12,230.74 L 184.22,222.74 L 197.73,233.73 L 200.10,239.29 L 189.12,230.74 Z M 164.35,221.96 L 168.21,225.19 L 164.76,223.20 L 164.35,221.96 Z M 195.14,255.98 L 166.60,221.16 L 179.65,230.66 L 195.14,255.98 Z M 157.00,160.55 L 200.10,202.27 L 189.70,205.49 L 157.00,160.55 Z M 150.73,149.56 L 156.43,149.56 L 153.04,144.00 L 167.38,158.92 L 150.73,149.56 Z M 142.93,124.09 L 142.93,99.59 L 163.73,129.03 L 156.15,132.95 L 142.93,124.09 Z M 292.85,299.92 L 279.30,299.93 L 283.68,297.31 L 292.85,299.92 Z M 161.80,210.03 L 161.64,210.67 L 158.23,211.28 L 161.80,210.03 Z M 149.54,203.91 L 151.02,205.88 L 145.53,201.46 L 149.54,203.91 Z M 158.87,199.52 L 159.46,193.62 L 162.76,194.75 L 158.87,199.52 Z" fill="#C8D8E8" stroke="#8BAABB" stroke-width="0.8"/>
<path d="M 463.51,406.89 L 472.83,394.38 L 463.19,361.50 L 480.19,353.92 L 482.29,329.45 L 495.27,317.02 L 509.45,325.55 L 515.84,320.76 L 502.26,299.87 L 508.21,293.48 L 526.24,295.02 L 525.98,304.02 L 559.57,336.00 L 586.96,343.15 L 622.09,368.77 L 608.00,385.83 L 595.02,385.75 L 601.43,396.10 L 591.32,412.45 L 576.39,417.35 L 569.83,396.91 L 561.53,401.63 L 532.82,449.16 L 540.90,459.16 L 540.28,488.11 L 524.16,478.27 L 500.64,438.47 L 491.75,439.95 L 472.43,422.47 L 485.28,425.99 L 484.20,415.66 L 468.40,423.31 L 463.51,406.89 Z" fill="#C8D8E8" stroke="#8BAABB" stroke-width="0.8"/>
<path d="M 649.77,41.06 L 657.07,40.08 L 657.07,55.84 L 656.31,71.37 L 657.07,71.85 L 657.07,328.03 L 642.82,333.50 L 646.11,350.24 L 630.85,361.99 L 632.24,372.84 L 621.41,376.07 L 620.72,366.93 L 586.96,343.15 L 559.57,336.00 L 524.63,300.99 L 530.98,288.61 L 550.59,291.39 L 552.06,281.88 L 530.22,241.11 L 553.81,243.96 L 561.29,237.24 L 519.73,201.85 L 520.82,181.79 L 541.24,142.18 L 525.53,134.77 L 511.38,141.88 L 509.36,136.22 L 520.97,131.82 L 513.78,110.67 L 543.82,103.10 L 508.21,83.79 L 510.87,69.14 L 518.86,67.65 L 502.09,60.59 L 507.46,49.60 L 498.10,27.93 L 515.48,10.16 L 531.87,13.68 L 547.32,0.00 L 613.69,0.00 L 649.77,41.06 Z" fill="#C8D8E8" stroke="#8BAABB" stroke-width="0.8"/>
<path d="M 390.61,363.74 L 399.40,360.18 L 396.56,350.89 L 368.55,321.38 L 366.94,303.02 L 347.08,293.22 L 288.85,231.88 L 271.44,181.42 L 262.30,179.18 L 264.14,169.56 L 239.33,152.97 L 244.61,104.63 L 263.49,101.86 L 287.97,126.30 L 305.57,100.90 L 328.97,105.62 L 338.30,93.75 L 360.04,109.37 L 401.22,107.60 L 413.72,119.04 L 447.00,108.35 L 470.10,120.02 L 483.44,116.40 L 500.94,142.39 L 525.53,134.77 L 540.58,139.41 L 518.94,197.37 L 560.67,235.08 L 553.81,243.96 L 532.64,239.92 L 529.05,246.20 L 548.28,268.67 L 550.59,291.39 L 538.75,286.29 L 502.71,297.96 L 515.84,320.76 L 509.45,325.55 L 495.27,317.02 L 482.29,329.45 L 480.19,353.92 L 464.78,357.00 L 464.11,377.26 L 472.83,394.38 L 468.04,406.25 L 426.93,386.07 L 411.73,366.60 L 390.61,363.74 Z" fill="#4A90D9" stroke="#1a5fa8" stroke-width="1.2"/>
<path d="M 530.57,454.60 L 516.52,436.00 L 537.98,441.82 L 546.04,432.21 L 540.34,444.59 L 549.84,458.16 L 530.57,454.60 Z" fill="#A8C8E8" stroke="none"/>
</svg>