<svg xmlns="http://www.w3.org/2000/svg" width="800" height="500" viewBox="0 0 800 500">
<rect width="800" height="500" fill="#A8C8E8"/>
<path d="M 540.06,2.57 L 514.32,13.59 L 512.39,17.60 L 517.13,21.40 L 514.57,25.41 L 496.10,32.01 L 492.97,27.81 L 479.00,35.27 L 446.80,15.80 L 435.22,22.63 L 416.52,15.86 L 407.17,16.81 L 412.64,8.27 L 398.23,6.78 L 395.03,1.62 L 379.98,3.90 L 362.73,13.51 L 334.38,45.60 L 334.06,57.17 L 323.75,50.66 L 328.32,28.96 L 326.56,20.93 L 316.49,15.04 L 292.43,23.46 L 292.55,28.04 L 278.86,25.52 L 273.51,30.86 L 256.12,31.07 L 255.86,28.34 L 245.74,29.91 L 222.61,15.04 L 220.57,15.07 L 220.57,0.00 L 539.51,0.00 L 540.06,2.57 Z" fill="#E8E0D0" stroke="#B8B0A0" stroke-width="0.5"/>
<path d="M 416.52,15.86 L 435.22,22.63 L 446.80,15.80 L 463.72,23.86 L 460.14,28.55 L 463.61,32.21 L 461.63,44.74 L 468.05,49.34 L 482.47,50.03 L 485.64,58.24 L 480.72,68.23 L 484.86,79.72 L 476.13,80.06 L 475.42,84.22 L 472.82,81.28 L 458.01,84.51 L 453.13,80.58 L 447.11,85.73 L 418.93,86.13 L 401.02,79.25 L 390.25,86.96 L 375.00,89.89 L 352.04,81.49 L 340.12,83.24 L 330.89,74.76 L 328.22,76.66 L 323.48,62.47 L 335.28,56.19 L 334.38,45.60 L 362.73,13.51 L 379.98,3.90 L 395.03,1.62 L 398.23,6.78 L 412.64,8.27 L 407.17,16.81 L 416.52,15.86 Z" fill="#E8E0D0" stroke="#B8B0A0" stroke-width="0.5"/>
<path d="M 294.56,32.65 L 287.93,47.48 L 285.30,67.88 L 294.96,86.35 L 288.95,105.32 L 285.61,107.40 L 280.47,102.19 L 266.71,106.79 L 258.42,104.19 L 252.78,108.49 L 243.34,105.37 L 240.18,96.05 L 224.24,104.85 L 220.57,103.01 L 220.57,15.01 L 221.73,14.98 L 245.74,29.91 L 273.51,30.86 L 278.86,25.52 L 292.55,28.04 L 294.56,32.65 Z" fill="#E8E0D0" stroke="#B8B0A0" stroke-width="0.5"/>
<path d="M 514.58,331.08 L 523.99,341.56 L 528.40,339.95 L 531.15,328.55 L 536.85,329.33 L 538.40,325.50 L 533.82,298.24 L 538.49,292.45 L 537.36,283.52 L 543.22,285.86 L 548.19,279.28 L 550.98,251.80 L 545.62,228.82 L 552.16,235.19 L 564.54,232.78 L 579.43,238.52 L 579.43,488.55 L 577.29,490.81 L 574.23,488.44 L 577.74,500.00 L 566.49,500.00 L 562.97,497.54 L 553.64,480.86 L 556.85,475.72 L 570.52,485.93 L 575.18,482.66 L 577.97,478.05 L 577.83,473.94 L 565.51,464.99 L 568.86,463.72 L 569.19,458.97 L 566.97,462.74 L 566.51,457.92 L 559.20,460.42 L 565.94,449.45 L 558.20,451.78 L 555.52,445.52 L 550.53,447.32 L 548.55,440.78 L 547.55,444.07 L 546.52,440.05 L 543.20,442.95 L 536.20,440.45 L 541.42,453.59 L 535.26,445.81 L 538.16,455.71 L 528.51,438.60 L 534.54,437.51 L 535.83,434.22 L 529.49,437.25 L 534.39,425.25 L 531.46,423.72 L 534.12,417.18 L 533.52,416.03 L 523.52,439.00 L 519.17,433.18 L 527.18,428.42 L 521.54,419.19 L 518.73,421.31 L 516.37,414.03 L 512.20,408.41 L 516.88,431.71 L 499.86,408.30 L 489.99,376.46 L 497.01,367.85 L 506.83,373.20 L 509.07,379.24 L 512.14,377.39 L 509.33,340.46 L 514.58,331.08 Z M 568.99,483.89 L 561.16,472.45 L 565.15,469.03 L 577.16,476.44 L 568.99,483.89 Z M 554.85,458.97 L 549.54,447.97 L 554.21,451.48 L 554.85,458.97 Z M 530.67,450.49 L 531.16,454.62 L 525.67,440.98 L 530.67,450.49 Z" fill="#C8D8E8" stroke="#8BAABB" stroke-width="0.8"/>
<path d="M 224.24,104.85 L 240.18,96.05 L 243.34,105.37 L 252.78,108.49 L 258.42,104.19 L 266.71,106.79 L 280.47,102.19 L 285.61,107.40 L 295.02,87.35 L 285.30,67.88 L 287.93,47.48 L 294.56,32.65 L 291.66,24.46 L 316.49,15.04 L 325.85,20.07 L 328.38,28.13 L 322.86,45.53 L 330.19,57.00 L 322.30,65.74 L 327.05,68.56 L 328.22,76.66 L 330.89,74.76 L 340.12,83.24 L 352.04,81.49 L 375.00,89.89 L 390.25,86.96 L 401.02,79.25 L 418.93,86.13 L 447.11,85.73 L 453.13,80.58 L 458.01,84.51 L 472.82,81.28 L 475.42,84.22 L 476.13,80.06 L 484.86,79.72 L 480.73,67.27 L 485.64,58.24 L 480.11,48.67 L 468.05,49.34 L 462.09,45.50 L 463.61,32.21 L 460.14,28.55 L 479.00,35.27 L 492.97,27.81 L 496.10,32.01 L 509.28,28.74 L 517.13,21.40 L 512.39,17.60 L 514.32,13.59 L 540.06,2.57 L 539.51,0.00 L 579.43,0.00 L 579.43,238.52 L 564.54,232.78 L 552.16,235.19 L 545.01,229.67 L 550.88,250.04 L 548.19,279.28 L 543.22,285.86 L 536.77,284.48 L 538.49,292.45 L 533.40,302.48 L 538.40,325.50 L 536.85,329.33 L 531.15,328.55 L 528.93,339.52 L 523.99,341.56 L 514.58,331.08 L 509.33,340.46 L 505.44,302.33 L 498.82,290.07 L 493.93,248.65 L 490.77,251.75 L 488.66,247.32 L 482.25,252.18 L 477.56,247.78 L 478.44,259.87 L 468.86,271.71 L 471.38,281.42 L 461.19,289.12 L 451.87,272.22 L 450.73,282.84 L 447.94,280.80 L 446.66,267.29 L 439.32,252.74 L 450.35,227.76 L 460.99,227.96 L 463.28,221.63 L 466.91,225.48 L 468.33,220.63 L 475.35,224.68 L 476.45,215.12 L 486.55,211.51 L 492.17,185.73 L 499.84,188.64 L 504.85,183.78 L 482.98,170.32 L 463.75,173.38 L 444.15,169.24 L 401.79,172.00 L 375.26,164.83 L 375.73,127.96 L 367.19,115.04 L 362.80,119.29 L 365.16,123.03 L 361.77,129.00 L 351.73,126.94 L 341.23,119.08 L 337.56,106.63 L 332.56,103.53 L 330.14,106.38 L 336.38,114.41 L 319.06,112.82 L 321.43,109.43 L 318.71,104.82 L 304.91,94.38 L 302.12,102.17 L 309.22,102.76 L 311.00,108.13 L 294.76,119.40 L 291.06,135.84 L 299.44,138.07 L 312.59,153.40 L 324.36,153.31 L 327.75,162.29 L 334.70,164.83 L 331.74,171.05 L 308.26,169.89 L 302.49,186.62 L 292.39,184.40 L 287.86,198.78 L 292.14,206.46 L 309.92,216.31 L 322.66,217.82 L 319.77,224.87 L 321.53,237.04 L 314.89,240.76 L 313.06,251.66 L 324.25,260.21 L 320.67,272.77 L 333.48,275.41 L 327.59,287.45 L 332.73,294.24 L 331.93,310.17 L 339.23,331.26 L 338.39,342.54 L 330.81,340.90 L 339.45,359.59 L 330.16,357.67 L 328.56,351.65 L 328.56,358.57 L 326.23,355.64 L 325.24,362.20 L 321.21,361.67 L 323.90,332.34 L 317.48,342.17 L 320.02,329.45 L 318.90,328.39 L 314.37,347.19 L 314.26,351.65 L 317.57,352.54 L 314.63,362.75 L 310.53,362.82 L 312.71,350.14 L 310.90,341.83 L 308.99,359.24 L 305.91,360.50 L 302.91,354.19 L 301.86,359.97 L 301.30,351.80 L 299.52,349.96 L 301.67,362.02 L 299.17,362.92 L 293.93,341.44 L 296.43,330.36 L 287.24,326.51 L 283.90,317.34 L 282.25,316.72 L 285.11,326.27 L 293.25,329.76 L 294.79,334.50 L 278.72,353.65 L 247.94,363.06 L 234.16,374.99 L 230.58,388.01 L 236.50,402.68 L 232.27,404.03 L 240.27,408.41 L 226.08,419.50 L 224.57,425.91 L 228.92,423.43 L 223.27,429.87 L 226.23,428.78 L 220.57,431.89 L 220.57,103.01 L 224.24,104.85 Z M 331.12,362.27 L 330.95,364.19 L 327.59,364.13 L 331.12,362.27 Z M 292.60,346.73 L 293.93,346.18 L 293.58,358.90 L 289.26,354.92 L 292.60,346.73 Z M 319.41,344.19 L 318.23,350.54 L 315.25,348.48 L 319.41,344.19 Z M 290.56,344.34 L 292.58,342.19 L 292.88,345.18 L 290.73,347.27 L 290.56,344.34 Z" fill="#C8D8E8" stroke="#8BAABB" stroke-width="0.8"/>
<path d="M 512.14,377.39 L 509.07,379.24 L 506.83,373.20 L 497.01,367.85 L 489.99,376.46 L 497.15,406.25 L 479.04,368.91 L 482.75,354.94 L 480.54,357.85 L 480.84,350.17 L 476.42,350.45 L 478.88,345.42 L 472.23,329.70 L 476.85,316.72 L 470.97,326.64 L 465.57,310.88 L 455.18,298.81 L 456.54,291.24 L 448.13,302.25 L 441.54,300.70 L 445.55,305.24 L 442.55,310.43 L 437.03,310.36 L 433.58,303.00 L 434.54,308.02 L 429.86,308.16 L 414.67,282.75 L 416.51,271.96 L 413.25,262.28 L 418.83,259.71 L 418.87,257.75 L 413.62,260.09 L 413.82,253.98 L 407.22,255.21 L 412.11,257.52 L 410.90,265.73 L 396.19,261.99 L 413.77,273.91 L 411.87,281.83 L 411.23,280.29 L 406.12,282.33 L 405.89,283.21 L 406.83,286.38 L 408.88,290.51 L 410.32,291.66 L 407.22,292.32 L 402.18,298.84 L 408.03,301.57 L 405.56,313.06 L 409.55,308.31 L 413.56,314.54 L 412.57,314.14 L 413.89,322.55 L 411.19,328.47 L 403.92,334.71 L 404.56,328.71 L 403.24,323.97 L 397.32,346.84 L 388.58,348.29 L 390.20,342.89 L 385.25,346.58 L 395.69,330.12 L 385.91,339.99 L 386.62,331.02 L 380.87,339.39 L 378.07,324.68 L 384.55,313.24 L 377.88,317.04 L 377.80,334.39 L 374.20,335.24 L 378.24,345.42 L 369.92,348.30 L 366.89,343.25 L 369.50,350.70 L 363.97,355.16 L 361.07,349.21 L 365.90,321.43 L 361.34,340.09 L 361.55,334.55 L 358.57,323.60 L 360.81,341.27 L 358.08,350.89 L 353.40,352.90 L 354.25,344.52 L 352.56,340.74 L 349.90,356.36 L 345.66,357.64 L 344.56,349.28 L 340.52,349.05 L 339.13,329.98 L 331.93,310.17 L 332.73,294.24 L 327.59,287.45 L 333.48,275.41 L 320.67,272.77 L 324.25,260.21 L 313.13,252.25 L 314.89,240.76 L 321.53,237.04 L 319.77,224.87 L 322.66,217.82 L 309.92,216.31 L 292.14,206.46 L 287.86,198.78 L 292.39,184.40 L 302.49,186.62 L 308.26,169.89 L 331.74,171.05 L 334.70,164.83 L 327.75,162.29 L 324.36,153.31 L 312.59,153.40 L 299.44,138.07 L 291.06,135.84 L 294.76,119.40 L 311.00,108.13 L 309.22,102.76 L 302.12,102.17 L 305.53,93.75 L 318.71,104.82 L 321.43,109.43 L 319.06,112.82 L 336.38,114.41 L 330.14,106.38 L 332.56,103.53 L 337.56,106.63 L 341.23,119.08 L 351.73,126.94 L 361.77,129.00 L 365.16,123.03 L 362.80,119.29 L 367.19,115.04 L 375.73,127.96 L 375.26,164.83 L 401.79,172.00 L 444.15,169.24 L 463.75,173.38 L 482.98,170.32 L 504.85,183.78 L 499.84,188.64 L 492.17,185.73 L 486.55,211.51 L 476.45,215.12 L 475.35,224.68 L 468.33,220.63 L 466.91,225.48 L 463.28,221.63 L 460.99,227.96 L 450.35,227.76 L 439.13,247.90 L 447.94,280.80 L 450.73,282.84 L 451.87,272.22 L 461.19,289.12 L 471.38,281.42 L 468.86,271.71 L 478.44,259.87 L 477.56,247.78 L 482.25,252.18 L 488.66,247.32 L 490.77,251.75 L 493.93,248.65 L 498.82,290.07 L 505.44,302.33 L 512.14,377.39 Z M 479.87,364.57 L 475.35,366.83 L 474.20,353.83 L 475.86,356.00 L 478.19,352.02 L 479.87,364.57 Z M 341.87,354.05 L 337.93,350.25 L 337.65,343.68 L 341.87,354.05 Z M 474.65,350.42 L 473.18,353.83 L 474.86,342.89 L 474.65,350.42 Z M 413.56,342.52 L 410.36,345.86 L 408.55,346.58 L 413.56,342.52 Z M 403.24,339.26 L 399.76,347.56 L 399.55,344.96 L 403.24,339.26 Z M 402.59,338.05 L 400.58,340.74 L 401.50,338.07 L 402.59,338.05 Z M 407.70,340.50 L 404.27,344.55 L 403.24,342.52 L 405.23,337.08 L 407.70,340.50 Z M 407.58,337.41 L 413.89,330.56 L 408.82,339.30 L 410.54,336.00 L 407.58,337.41 Z M 430.59,331.58 L 429.26,333.07 L 428.81,330.77 L 430.59,331.58 Z M 431.58,326.57 L 431.86,325.51 L 432.58,326.79 L 431.54,329.41 L 431.58,326.57 Z M 429.64,326.91 L 431.54,319.98 L 432.42,323.23 L 429.64,326.91 Z M 441.77,327.18 L 433.78,334.23 L 436.33,318.64 L 441.77,327.18 Z M 416.09,319.12 L 415.19,322.88 L 415.19,320.70 L 414.19,316.72 L 416.09,319.12 Z M 415.84,313.60 L 416.51,315.96 L 415.55,316.72 L 415.84,313.60 Z M 442.94,312.96 L 438.22,314.77 L 438.70,313.30 L 442.94,312.96 Z M 459.75,313.88 L 459.69,317.92 L 454.41,315.20 L 455.43,308.14 L 459.75,313.88 Z M 425.64,316.19 L 424.72,329.81 L 415.55,339.59 L 417.52,319.22 L 415.55,310.16 L 411.23,307.26 L 412.53,298.49 L 415.70,297.46 L 425.64,316.19 Z M 417.04,296.35 L 412.80,296.05 L 409.40,301.48 L 406.22,298.52 L 407.08,293.33 L 417.04,296.35 Z M 415.00,290.35 L 408.77,287.46 L 412.57,284.32 L 415.00,290.35 Z M 409.14,283.41 L 406.89,285.76 L 406.22,282.83 L 409.14,283.41 Z M 407.75,269.23 L 404.96,265.72 L 410.29,267.58 L 412.57,270.15 L 407.75,269.23 Z" fill="#4A90D9" stroke="#1a5fa8" stroke-width="1.2"/>
<path d="M 444.31,215.17 L 437.25,222.08 L 432.87,224.26 L 435.51,228.73 L 431.54,235.17 L 434.49,228.13 L 429.87,225.07 L 444.31,215.17 Z" fill="#A8C8E8" stroke="none"/>
<path d="M 500.18,303.96 L 493.18,302.51 L 495.84,306.16 L 492.88,304.35 L 491.89,309.79 L 498.86,312.37 L 492.25,314.20 L 490.15,302.46 L 485.88,298.52 L 486.88,297.43 L 484.52,294.86 L 485.15,293.78 L 483.19,290.38 L 482.86,284.69 L 491.89,303.96 L 494.21,299.24 L 489.20,286.16 L 493.58,284.69 L 500.18,303.96 Z" fill="#A8C8E8" stroke="none"/>
</svg>