<svg xmlns="http://www.w3.org/2000/svg" width="800" height="500" viewBox="0 0 800 500">
<rect width="800" height="500" fill="#A8C8E8"/>
<path d="M 712.24,2.57 L 654.86,13.59 L 650.56,17.60 L 661.13,21.40 L 655.41,25.41 L 614.23,32.01 L 607.26,27.81 L 576.12,35.27 L 504.34,15.80 L 478.51,22.63 L 436.83,15.86 L 415.99,16.81 L 428.18,8.27 L 396.06,6.78 L 388.92,1.62 L 355.37,3.90 L 316.92,13.51 L 253.71,45.60 L 253.01,57.17 L 230.01,50.66 L 240.21,28.96 L 236.29,20.93 L 213.82,15.04 L 160.19,23.46 L 160.45,28.04 L 129.93,25.52 L 118.02,30.86 L 79.24,31.07 L 78.67,28.34 L 56.11,29.91 L 4.54,15.04 L 0.00,15.07 L 0.00,0.00 L 711.00,0.00 L 712.24,2.57 Z" fill="#E8E0D0" stroke="#B8B0A0" stroke-width="0.5"/>
<path d="M 436.83,15.86 L 478.51,22.63 L 504.34,15.80 L 542.04,23.86 L 534.06,28.55 L 541.80,32.21 L 537.39,44.74 L 551.71,49.34 L 583.85,50.03 L 590.92,58.24 L 579.96,68.23 L 589.18,79.72 L 569.71,80.06 L 568.14,84.22 L 562.33,81.28 L 529.32,84.51 L 518.43,80.58 L 505.03,85.73 L 442.21,86.13 L 402.28,79.25 L 378.25,86.96 L 344.26,89.89 L 293.09,81.49 L 266.51,83.24 L 245.93,74.76 L 239.97,76.66 L 229.42,62.47 L 255.73,56.19 L 253.71,45.60 L 316.92,13.51 L 355.37,3.90 L 388.92,1.62 L 396.06,6.78 L 428.18,8.27 L 415.99,16.81 L 436.83,15.86 Z" fill="#E8E0D0" stroke="#B8B0A0" stroke-width="0.5"/>
<path d="M 164.95,32.65 L 150.17,47.48 L 144.30,67.88 L 165.83,86.35 L 152.44,105.32 L 144.98,107.40 L 133.52,102.19 L 102.86,106.79 L 84.37,104.19 L 71.80,108.49 L 50.75,105.37 L 43.71,96.05 L 8.17,104.85 L 0.00,103.01 L 0.00,15.01 L 2.58,14.98 L 56.11,29.91 L 118.02,30.86 L 129.93,25.52 L 160.45,28.04 L 164.95,32.65 Z" fill="#E8E0D0" stroke="#B8B0A0" stroke-width="0.5"/>
<path d="M 655.42,331.08 L 676.42,341.56 L 686.25,339.95 L 692.37,328.55 L 705.07,329.33 L 708.53,325.50 L 698.33,298.24 L 708.74,292.45 L 706.23,283.52 L 719.28,285.86 L 730.35,279.28 L 736.58,251.80 L 724.64,228.82 L 739.21,235.19 L 766.80,232.78 L 800.00,238.52 L 800.00,488.55 L 795.24,490.81 L 788.41,488.44 L 796.23,500.00 L 771.16,500.00 L 763.31,497.54 L 742.51,480.86 L 749.66,475.72 L 780.15,485.93 L 790.52,482.66 L 796.74,478.05 L 796.43,473.94 L 768.98,464.99 L 776.44,463.72 L 777.18,458.97 L 772.22,462.74 L 771.19,457.92 L 754.91,460.42 L 769.93,449.45 L 752.67,451.78 L 746.69,445.52 L 735.59,447.32 L 731.16,440.78 L 728.93,444.07 L 726.64,440.05 L 719.25,442.95 L 703.63,440.45 L 715.28,453.59 L 701.54,445.81 L 708.01,455.71 L 686.48,438.60 L 699.92,437.51 L 702.82,434.22 L 688.67,437.25 L 699.61,425.25 L 693.07,423.72 L 698.99,417.18 L 697.65,416.03 L 675.36,439.00 L 665.66,433.18 L 683.51,428.42 L 670.94,419.19 L 664.69,421.31 L 659.43,414.03 L 650.14,408.41 L 660.57,431.71 L 622.61,408.30 L 600.62,376.46 L 616.27,367.85 L 638.16,373.20 L 643.15,379.24 L 650.00,377.39 L 643.73,340.46 L 655.42,331.08 Z M 776.73,483.89 L 759.28,472.45 L 768.16,469.03 L 794.94,476.44 L 776.73,483.89 Z M 745.21,458.97 L 733.38,447.97 L 743.78,451.48 L 745.21,458.97 Z M 691.30,450.49 L 692.41,454.62 L 680.16,440.98 L 691.30,450.49 Z" fill="#C8D8E8" stroke="#8BAABB" stroke-width="0.8"/>
<path d="M 8.17,104.85 L 43.71,96.05 L 50.75,105.37 L 71.80,108.49 L 84.37,104.19 L 102.86,106.79 L 133.52,102.19 L 144.98,107.40 L 165.97,87.35 L 144.30,67.88 L 150.17,47.48 L 164.95,32.65 L 158.47,24.46 L 213.82,15.04 L 234.69,20.07 L 240.34,28.13 L 228.04,45.53 L 244.38,57.00 L 226.79,65.74 L 237.36,68.56 L 239.97,76.66 L 245.93,74.76 L 266.51,83.24 L 293.09,81.49 L 344.26,89.89 L 378.25,86.96 L 402.28,79.25 L 442.21,86.13 L 505.03,85.73 L 518.43,80.58 L 529.32,84.51 L 562.33,81.28 L 568.14,84.22 L 569.71,80.06 L 589.18,79.72 L 579.98,67.27 L 590.92,58.24 L 578.59,48.67 L 551.71,49.34 L 538.41,45.50 L 541.80,32.21 L 534.06,28.55 L 576.12,35.27 L 607.26,27.81 L 614.23,32.01 L 643.63,28.74 L 661.13,21.40 L 650.56,17.60 L 654.86,13.59 L 712.24,2.57 L 711.00,0.00 L 800.00,0.00 L 800.00,238.52 L 766.80,232.78 L 739.21,235.19 L 723.28,229.67 L 736.36,250.04 L 730.35,279.28 L 719.28,285.86 L 704.89,284.48 L 708.74,292.45 L 697.39,302.48 L 708.53,325.50 L 705.07,329.33 L 692.37,328.55 L 687.42,339.52 L 676.42,341.56 L 655.42,331.08 L 643.73,340.46 L 635.05,302.33 L 620.31,290.07 L 609.40,248.65 L 602.36,251.75 L 597.64,247.32 L 583.35,252.18 L 572.91,247.78 L 574.87,259.87 L 553.50,271.71 L 559.13,281.42 L 536.42,289.12 L 515.63,272.22 L 513.09,282.84 L 506.87,280.80 L 504.02,267.29 L 487.65,252.74 L 512.24,227.76 L 535.96,227.96 L 541.08,221.63 L 549.17,225.48 L 552.34,220.63 L 567.97,224.68 L 570.43,215.12 L 592.96,211.51 L 605.47,185.73 L 622.57,188.64 L 633.74,183.78 L 584.98,170.32 L 542.12,173.38 L 498.43,169.24 L 404.00,172.00 L 344.85,164.83 L 345.89,127.96 L 326.85,115.04 L 317.06,119.29 L 322.33,123.03 L 314.78,129.00 L 292.40,126.94 L 268.97,119.08 L 260.79,106.63 L 249.66,103.53 L 244.26,106.38 L 258.16,114.41 L 219.56,112.82 L 224.85,109.43 L 218.79,104.82 L 188.02,94.38 L 181.80,102.17 L 197.63,102.76 L 201.59,108.13 L 165.40,119.40 L 157.13,135.84 L 175.82,138.07 L 205.13,153.40 L 231.37,153.31 L 238.92,162.29 L 254.42,164.83 L 247.83,171.05 L 195.48,169.89 L 182.63,186.62 L 160.10,184.40 L 150.00,198.78 L 159.56,206.46 L 199.18,216.31 L 227.59,217.82 L 221.15,224.87 L 225.06,237.04 L 210.26,240.76 L 206.19,251.66 L 231.13,260.21 L 223.16,272.77 L 251.71,275.41 L 238.57,287.45 L 250.04,294.24 L 248.24,310.17 L 264.52,331.26 L 262.65,342.54 L 245.76,340.90 L 265.02,359.59 L 244.30,357.67 L 240.73,351.65 L 240.73,358.57 L 235.55,355.64 L 233.34,362.20 L 224.34,361.67 L 230.36,332.34 L 216.03,342.17 L 221.70,329.45 L 219.21,328.39 L 209.12,347.19 L 208.85,351.65 L 216.24,352.54 L 209.68,362.75 L 200.54,362.82 L 205.41,350.14 L 201.37,341.83 L 197.11,359.24 L 190.25,360.50 L 183.55,354.19 L 181.22,359.97 L 179.97,351.80 L 176.00,349.96 L 180.79,362.02 L 175.22,362.92 L 163.55,341.44 L 169.10,330.36 L 148.62,326.51 L 141.18,317.34 L 137.51,316.72 L 143.88,326.27 L 162.01,329.76 L 165.45,334.50 L 129.64,353.65 L 61.01,363.06 L 30.30,374.99 L 22.31,388.01 L 35.50,402.68 L 26.08,404.03 L 43.91,408.41 L 12.28,419.50 L 8.92,425.91 L 18.61,423.43 L 6.02,429.87 L 12.62,428.78 L 0.00,431.89 L 0.00,103.01 L 8.17,104.85 Z M 246.44,362.27 L 246.07,364.19 L 238.57,364.13 L 246.44,362.27 Z M 160.57,346.73 L 163.55,346.18 L 162.75,358.90 L 153.12,354.92 L 160.57,346.73 Z M 220.34,344.19 L 217.71,350.54 L 211.06,348.48 L 220.34,344.19 Z M 156.02,344.34 L 160.53,342.19 L 161.19,345.18 L 156.41,347.27 L 156.02,344.34 Z" fill="#C8D8E8" stroke="#8BAABB" stroke-width="0.8"/>
<path d="M 650.00,377.39 L 643.15,379.24 L 638.16,373.20 L 616.27,367.85 L 600.62,376.46 L 616.58,406.25 L 576.19,368.91 L 584.47,354.94 L 579.55,357.85 L 580.21,350.17 L 570.37,350.45 L 575.84,345.42 L 561.02,329.70 L 571.32,316.72 L 558.21,326.64 L 546.17,310.88 L 523.01,298.81 L 526.05,291.24 L 507.29,302.25 L 492.60,300.70 L 501.55,305.24 L 494.86,310.43 L 482.55,310.36 L 474.86,303.00 L 476.99,308.02 L 466.56,308.16 L 432.70,282.75 L 436.81,271.96 L 429.54,262.28 L 441.98,259.71 L 442.07,257.75 L 430.35,260.09 L 430.81,253.98 L 416.11,255.21 L 427.00,257.52 L 424.30,265.73 L 391.50,261.99 L 430.69,273.91 L 426.47,281.83 L 425.04,280.29 L 413.64,282.33 L 413.13,283.21 L 415.23,286.38 L 419.80,290.51 L 423.01,291.66 L 416.11,292.32 L 404.86,298.84 L 417.91,301.57 L 412.39,313.06 L 421.28,308.31 L 430.23,314.54 L 428.02,314.14 L 430.97,322.55 L 424.95,328.47 L 408.75,334.71 L 410.18,328.71 L 407.21,323.97 L 394.03,346.84 L 374.54,348.29 L 378.15,342.89 L 367.11,346.58 L 390.39,330.12 L 368.60,339.99 L 370.17,331.02 L 357.35,339.39 L 351.11,324.68 L 365.56,313.24 L 350.69,317.04 L 350.52,334.39 L 342.48,335.24 L 351.50,345.42 L 332.93,348.30 L 326.19,343.25 L 332.02,350.70 L 319.68,355.16 L 313.22,349.21 L 323.97,321.43 L 313.82,340.09 L 314.28,334.55 L 307.63,323.60 L 312.62,341.27 L 306.55,350.89 L 296.13,352.90 L 298.00,344.52 L 294.24,340.74 L 288.31,356.36 L 278.87,357.64 L 276.40,349.28 L 267.40,349.05 L 264.31,329.98 L 248.24,310.17 L 250.04,294.24 L 238.57,287.45 L 251.71,275.41 L 223.16,272.77 L 231.13,260.21 L 206.35,252.25 L 210.26,240.76 L 225.06,237.04 L 221.15,224.87 L 227.59,217.82 L 199.18,216.31 L 159.56,206.46 L 150.00,198.78 L 160.10,184.40 L 182.63,186.62 L 195.48,169.89 L 247.83,171.05 L 254.42,164.83 L 238.92,162.29 L 231.37,153.31 L 205.13,153.40 L 175.82,138.07 L 157.13,135.84 L 165.40,119.40 L 201.59,108.13 L 197.63,102.76 L 181.80,102.17 L 189.41,93.75 L 218.79,104.82 L 224.85,109.43 L 219.56,112.82 L 258.16,114.41 L 244.26,106.38 L 249.66,103.53 L 260.79,106.63 L 268.97,119.08 L 292.40,126.94 L 314.78,129.00 L 322.33,123.03 L 317.06,119.29 L 326.85,115.04 L 345.89,127.96 L 344.85,164.83 L 404.00,172.00 L 498.43,169.24 L 542.12,173.38 L 584.98,170.32 L 633.74,183.78 L 622.57,188.64 L 605.47,185.73 L 592.96,211.51 L 570.43,215.12 L 567.97,224.68 L 552.34,220.63 L 549.17,225.48 L 541.08,221.63 L 535.96,227.96 L 512.24,227.76 L 487.23,247.90 L 506.87,280.80 L 513.09,282.84 L 515.63,272.22 L 536.42,289.12 L 559.13,281.42 L 553.50,271.71 L 574.87,259.87 L 572.91,247.78 L 583.35,252.18 L 597.64,247.32 L 602.36,251.75 L 609.40,248.65 L 620.31,290.07 L 635.05,302.33 L 650.00,377.39 Z M 578.06,364.57 L 567.97,366.83 L 565.41,353.83 L 569.12,356.00 L 574.31,352.02 L 578.06,364.57 Z M 270.42,354.05 L 261.64,350.25 L 261.00,343.68 L 270.42,354.05 Z M 566.42,350.42 L 563.14,353.83 L 566.89,342.89 L 566.42,350.42 Z M 430.23,342.52 L 423.09,345.86 L 419.06,346.58 L 430.23,342.52 Z M 407.21,339.26 L 399.47,347.56 L 399.01,344.96 L 407.21,339.26 Z M 405.78,338.05 L 401.28,340.74 L 403.35,338.07 L 405.78,338.05 Z M 417.17,340.50 L 409.51,344.55 L 407.21,342.52 L 411.65,337.08 L 417.17,340.50 Z M 416.90,337.41 L 430.97,330.56 L 419.65,339.30 L 423.49,336.00 L 416.90,337.41 Z M 468.19,331.58 L 465.22,333.07 L 464.23,330.77 L 468.19,331.58 Z M 470.39,326.57 L 471.03,325.51 L 472.64,326.79 L 470.32,329.41 L 470.39,326.57 Z M 466.07,326.91 L 470.32,319.98 L 472.27,323.23 L 466.07,326.91 Z M 493.13,327.18 L 475.31,334.23 L 480.99,318.64 L 493.13,327.18 Z M 435.88,319.12 L 433.87,322.88 L 433.87,320.70 L 431.64,316.72 L 435.88,319.12 Z M 435.31,313.60 L 436.81,315.96 L 434.66,316.72 L 435.31,313.60 Z M 495.74,312.96 L 485.21,314.77 L 486.27,313.30 L 495.74,312.96 Z M 533.20,313.88 L 533.07,317.92 L 521.29,315.20 L 523.57,308.14 L 533.20,313.88 Z M 457.16,316.19 L 455.12,329.81 L 434.66,339.59 L 439.05,319.22 L 434.66,310.16 L 425.04,307.26 L 427.94,298.49 L 434.99,297.46 L 457.16,316.19 Z M 437.99,296.35 L 428.53,296.05 L 420.95,301.48 L 413.87,298.52 L 415.79,293.33 L 437.99,296.35 Z M 433.44,290.35 L 419.55,287.46 L 428.02,284.32 L 433.44,290.35 Z M 420.37,283.41 L 415.36,285.76 L 413.87,282.83 L 420.37,283.41 Z M 417.27,269.23 L 411.05,265.72 L 422.94,267.58 L 428.02,270.15 L 417.27,269.23 Z" fill="#4A90D9" stroke="#1a5fa8" stroke-width="1.2"/>
<path d="M 498.78,215.17 L 483.05,222.08 L 473.28,224.26 L 479.15,228.73 L 470.31,235.17 L 476.89,228.13 L 466.58,225.07 L 498.78,215.17 Z" fill="#A8C8E8" stroke="none"/>
<path d="M 623.34,303.96 L 607.73,302.51 L 613.67,306.16 L 607.06,304.35 L 604.86,309.79 L 620.40,312.37 L 605.66,314.20 L 600.96,302.46 L 591.45,298.52 L 593.69,297.43 L 588.42,294.86 L 589.83,293.78 L 585.45,290.38 L 584.72,284.69 L 604.86,303.96 L 610.03,299.24 L 598.86,286.16 L 608.62,284.69 L 623.34,303.96 Z" fill="#A8C8E8" stroke="none"/>
</svg>