<svg xmlns="http://www.w3.org/2000/svg" width="800" height="500" viewBox="0 0 800 500">
<rect width="800" height="500" fill="#A8C8E8"/>
<path d="M 217.15,177.50 L 214.99,195.58 L 234.87,214.65 L 268.91,205.95 L 283.00,245.35 L 316.52,253.23 L 325.33,281.08 L 355.78,273.92 L 375.10,287.29 L 367.96,307.66 L 376.33,318.28 L 368.54,331.59 L 419.65,330.10 L 436.52,302.47 L 442.11,305.84 L 433.37,334.20 L 440.95,341.22 L 439.84,359.84 L 480.62,375.91 L 500.19,405.97 L 529.03,398.08 L 550.34,414.97 L 594.27,411.20 L 625.19,459.11 L 645.13,451.64 L 657.86,467.12 L 680.91,467.52 L 694.43,457.53 L 706.35,468.48 L 706.35,500.00 L 93.65,500.00 L 93.65,313.18 L 109.06,294.14 L 124.12,297.60 L 111.10,284.26 L 117.94,269.76 L 112.46,264.43 L 114.98,191.93 L 208.53,157.75 L 217.15,177.50 Z" fill="#E8E0D0" stroke="#B8B0A0" stroke-width="0.5"/>
<path d="M 115.15,2.45 L 93.65,21.56 L 93.65,0.00 L 115.88,0.00 L 115.15,2.45 Z M 101.83,111.60 L 94.81,120.46 L 95.49,147.73 L 93.65,148.52 L 93.65,112.52 L 101.83,111.60 Z" fill="#E8E0D0" stroke="#B8B0A0" stroke-width="0.5"/>
<path d="M 694.43,457.53 L 680.91,467.52 L 657.86,467.12 L 645.13,451.64 L 626.36,459.62 L 605.10,417.56 L 588.56,412.78 L 604.20,359.61 L 584.32,353.47 L 563.82,320.08 L 568.84,294.24 L 591.47,278.39 L 587.73,252.52 L 571.22,246.75 L 579.00,231.68 L 551.56,205.52 L 560.58,185.88 L 540.15,168.41 L 568.88,147.64 L 559.87,138.35 L 574.90,110.86 L 573.46,91.85 L 547.43,43.98 L 569.76,39.86 L 566.86,31.32 L 588.53,43.13 L 628.17,29.50 L 634.67,18.38 L 621.82,5.73 L 629.24,0.00 L 706.35,0.00 L 706.35,468.48 L 694.43,457.53 Z" fill="#C8D8E8" stroke="#8BAABB" stroke-width="0.8"/>
<path d="M 576.38,345.31 L 584.32,353.47 L 587.48,352.65 L 593.71,357.59 L 600.21,358.07 L 603.66,359.02 L 604.20,359.61 L 588.56,412.78 L 550.34,414.97 L 533.44,399.91 L 542.86,383.38 L 526.31,344.65 L 550.43,301.80 L 565.92,308.86 L 576.38,345.31 Z" fill="#C8D8E8" stroke="#8BAABB" stroke-width="0.8"/>
<path d="M 621.13,7.36 L 634.82,21.34 L 588.53,43.13 L 566.86,31.32 L 569.76,39.86 L 547.43,43.98 L 574.65,99.80 L 559.87,138.35 L 568.88,147.64 L 539.58,164.75 L 541.78,176.84 L 560.58,185.88 L 553.74,210.50 L 525.08,209.83 L 516.92,197.95 L 537.26,146.98 L 503.87,126.66 L 476.26,131.00 L 457.58,96.93 L 445.94,110.20 L 431.20,106.84 L 437.22,106.79 L 432.85,94.03 L 418.09,106.09 L 403.47,97.32 L 392.94,102.23 L 394.44,116.68 L 355.34,100.63 L 338.28,110.33 L 300.89,88.66 L 340.65,75.99 L 365.87,101.79 L 383.61,101.48 L 354.28,79.20 L 376.06,79.20 L 366.68,71.53 L 373.04,64.26 L 341.77,43.92 L 363.17,39.62 L 357.01,17.10 L 369.56,14.30 L 379.63,0.00 L 630.29,0.00 L 621.13,7.36 Z M 309.87,106.32 L 338.96,117.80 L 353.88,107.29 L 377.47,113.93 L 367.28,128.87 L 336.44,139.35 L 316.65,126.05 L 294.99,132.87 L 290.79,112.80 L 309.87,106.32 Z M 365.33,69.22 L 324.32,63.20 L 336.99,54.52 L 365.33,69.22 Z" fill="#C8D8E8" stroke="#8BAABB" stroke-width="0.8"/>
<path d="M 290.79,112.80 L 294.99,132.87 L 316.65,126.05 L 348.20,139.20 L 377.47,113.93 L 386.10,129.05 L 381.40,113.71 L 396.33,115.69 L 398.14,99.25 L 418.09,106.09 L 432.85,94.03 L 437.22,106.79 L 431.20,106.84 L 445.94,110.20 L 457.58,96.93 L 476.26,131.00 L 503.87,126.66 L 537.26,146.98 L 516.92,197.95 L 579.00,231.68 L 571.22,246.75 L 587.73,252.52 L 591.47,278.39 L 569.86,292.88 L 565.92,308.86 L 550.43,301.80 L 526.31,344.65 L 542.86,383.38 L 538.08,396.26 L 500.19,405.97 L 480.62,375.91 L 439.84,359.84 L 440.95,341.22 L 433.37,334.20 L 441.20,304.62 L 401.65,337.74 L 368.54,331.59 L 376.33,318.28 L 367.96,307.66 L 375.10,287.29 L 355.78,273.92 L 325.33,281.08 L 316.52,253.23 L 283.00,245.35 L 268.91,205.95 L 234.87,214.65 L 214.99,195.58 L 217.15,177.50 L 208.53,157.75 L 290.79,112.80 Z" fill="#4A90D9" stroke="#1a5fa8" stroke-width="1.2"/>
</svg>