<svg xmlns="http://www.w3.org/2000/svg" width="800" height="500" viewBox="0 0 800 500">
<rect width="800" height="500" fill="#A8C8E8"/>
<path d="M 161.25,177.50 L 158.43,195.58 L 184.38,214.65 L 228.83,205.95 L 247.24,245.35 L 291.00,253.23 L 302.50,281.08 L 342.27,273.92 L 367.48,287.29 L 358.16,307.66 L 369.09,318.28 L 358.93,331.59 L 425.65,330.10 L 447.68,302.47 L 454.99,305.84 L 443.57,334.20 L 453.47,341.22 L 452.02,359.84 L 505.26,375.91 L 530.81,405.97 L 568.48,398.08 L 596.29,414.97 L 653.66,411.20 L 694.03,459.11 L 720.06,451.64 L 736.69,467.12 L 766.78,467.52 L 784.44,457.53 L 800.00,468.48 L 800.00,500.00 L 0.00,500.00 L 0.00,313.18 L 20.12,294.14 L 39.78,297.60 L 22.78,284.26 L 31.72,269.76 L 24.55,264.43 L 27.85,191.93 L 150.00,157.75 L 161.25,177.50 Z" fill="#E8E0D0" stroke="#B8B0A0" stroke-width="0.5"/>
<path d="M 28.07,2.45 L 0.00,21.56 L 0.00,0.00 L 29.02,0.00 L 28.07,2.45 Z M 10.68,111.60 L 1.51,120.46 L 2.40,147.73 L 0.00,148.52 L 0.00,112.52 L 10.68,111.60 Z" fill="#E8E0D0" stroke="#B8B0A0" stroke-width="0.5"/>
<path d="M 784.44,457.53 L 766.78,467.52 L 736.69,467.12 L 720.06,451.64 L 695.56,459.62 L 667.80,417.56 L 646.21,412.78 L 666.62,359.61 L 640.66,353.47 L 613.91,320.08 L 620.45,294.24 L 650.00,278.39 L 645.12,252.52 L 623.56,246.75 L 633.72,231.68 L 597.89,205.52 L 609.67,185.88 L 582.99,168.41 L 620.50,147.64 L 608.74,138.35 L 628.36,110.86 L 626.49,91.85 L 592.50,43.98 L 621.66,39.86 L 617.88,31.32 L 646.16,43.13 L 697.92,29.50 L 706.41,18.38 L 689.63,5.73 L 699.32,0.00 L 800.00,0.00 L 800.00,468.48 L 784.44,457.53 Z" fill="#C8D8E8" stroke="#8BAABB" stroke-width="0.8"/>
<path d="M 630.30,345.31 L 640.66,353.47 L 644.80,352.65 L 652.92,357.59 L 661.41,358.07 L 665.92,359.02 L 666.62,359.61 L 646.21,412.78 L 596.29,414.97 L 574.23,399.91 L 586.53,383.38 L 564.92,344.65 L 596.42,301.80 L 616.64,308.86 L 630.30,345.31 Z" fill="#C8D8E8" stroke="#8BAABB" stroke-width="0.8"/>
<path d="M 688.73,7.36 L 706.61,21.34 L 646.16,43.13 L 617.88,31.32 L 621.66,39.86 L 592.50,43.98 L 628.04,99.80 L 608.74,138.35 L 620.50,147.64 L 582.25,164.75 L 585.12,176.84 L 609.67,185.88 L 600.73,210.50 L 563.31,209.83 L 552.66,197.95 L 579.22,146.98 L 535.63,126.66 L 499.57,131.00 L 475.19,96.93 L 459.98,110.20 L 440.74,106.84 L 448.60,106.79 L 442.89,94.03 L 423.62,106.09 L 404.53,97.32 L 390.78,102.23 L 392.74,116.68 L 341.68,100.63 L 319.41,110.33 L 270.59,88.66 L 322.51,75.99 L 355.44,101.79 L 378.59,101.48 L 340.30,79.20 L 368.74,79.20 L 356.50,71.53 L 364.80,64.26 L 323.97,43.92 L 351.92,39.62 L 343.87,17.10 L 360.25,14.30 L 373.41,0.00 L 700.69,0.00 L 688.73,7.36 Z M 282.32,106.32 L 320.29,117.80 L 339.78,107.29 L 370.58,113.93 L 357.28,128.87 L 317.01,139.35 L 291.16,126.05 L 262.89,132.87 L 257.41,112.80 L 282.32,106.32 Z M 354.74,69.22 L 301.18,63.20 L 317.73,54.52 L 354.74,69.22 Z" fill="#C8D8E8" stroke="#8BAABB" stroke-width="0.8"/>
<path d="M 257.41,112.80 L 262.89,132.87 L 291.16,126.05 L 332.37,139.20 L 370.58,113.93 L 381.86,129.05 L 375.72,113.71 L 395.21,115.69 L 397.57,99.25 L 423.62,106.09 L 442.89,94.03 L 448.60,106.79 L 440.74,106.84 L 459.98,110.20 L 475.19,96.93 L 499.57,131.00 L 535.63,126.66 L 579.22,146.98 L 552.66,197.95 L 633.72,231.68 L 623.56,246.75 L 645.12,252.52 L 650.00,278.39 L 621.79,292.88 L 616.64,308.86 L 596.42,301.80 L 564.92,344.65 L 586.53,383.38 L 580.29,396.26 L 530.81,405.97 L 505.26,375.91 L 452.02,359.84 L 453.47,341.22 L 443.57,334.20 L 453.80,304.62 L 402.16,337.74 L 358.93,331.59 L 369.09,318.28 L 358.16,307.66 L 367.48,287.29 L 342.27,273.92 L 302.50,281.08 L 291.00,253.23 L 247.24,245.35 L 228.83,205.95 L 184.38,214.65 L 158.43,195.58 L 161.25,177.50 L 150.00,157.75 L 257.41,112.80 Z" fill="#4A90D9" stroke="#1a5fa8" stroke-width="1.2"/>
</svg>