<svg xmlns="http://www.w3.org/2000/svg" width="800" height="500" viewBox="0 0 800 500">
<rect width="800" height="500" fill="#A8C8E8"/>
<path d="M 61.79,405.26 L 60.12,411.26 L 60.12,405.45 L 61.79,405.26 Z M 68.15,423.58 L 60.12,427.13 L 60.12,418.75 L 68.15,423.58 Z M 70.84,448.39 L 72.68,462.12 L 64.02,456.47 L 61.77,459.60 L 60.12,458.37 L 60.12,440.82 L 70.84,448.39 Z" fill="#E8E0D0" stroke="#B8B0A0" stroke-width="0.5"/>
<path d="M 680.98,276.16 L 677.60,268.15 L 679.62,234.50 L 695.05,221.73 L 703.63,208.23 L 705.61,182.03 L 726.07,169.86 L 739.88,166.65 L 739.88,500.00 L 630.80,500.00 L 627.51,488.33 L 632.77,424.65 L 649.25,422.55 L 652.29,402.66 L 662.97,391.96 L 662.67,383.73 L 672.72,381.27 L 676.82,375.65 L 681.01,364.79 L 675.90,357.14 L 680.18,348.90 L 686.65,350.44 L 690.13,339.88 L 684.37,328.46 L 683.94,311.73 L 670.32,294.85 L 680.98,276.16 Z" fill="#E8E0D0" stroke="#B8B0A0" stroke-width="0.5"/>
<path d="M 182.16,14.20 L 196.66,26.06 L 188.20,70.99 L 60.12,70.94 L 60.12,0.00 L 180.57,0.00 L 182.16,14.20 Z" fill="#E8E0D0" stroke="#B8B0A0" stroke-width="0.5"/>
<path d="M 670.32,294.85 L 683.94,311.73 L 684.37,328.46 L 690.13,339.88 L 686.65,350.44 L 680.18,348.90 L 675.90,357.14 L 681.01,364.79 L 676.82,375.65 L 672.72,381.27 L 662.67,383.73 L 662.97,391.96 L 652.29,402.66 L 649.25,422.55 L 632.77,424.65 L 627.51,488.33 L 630.80,500.00 L 570.94,500.00 L 570.06,425.06 L 555.31,399.10 L 555.56,373.03 L 525.37,352.67 L 526.04,334.76 L 532.49,318.30 L 535.81,319.32 L 536.78,313.50 L 543.91,316.38 L 541.13,310.10 L 546.29,308.78 L 545.06,303.61 L 555.52,302.03 L 561.39,291.87 L 570.08,296.55 L 590.58,295.15 L 606.17,282.08 L 611.93,265.82 L 616.00,264.11 L 610.87,250.93 L 618.06,247.40 L 636.81,241.03 L 677.19,279.67 L 670.32,294.85 Z" fill="#C8D8E8" stroke="#8BAABB" stroke-width="0.8"/>
<path d="M 63.74,361.21 L 72.58,348.82 L 81.32,347.64 L 88.74,358.98 L 107.40,365.10 L 110.33,353.89 L 126.03,353.01 L 126.01,336.90 L 138.00,342.50 L 139.01,335.15 L 148.20,332.93 L 150.96,338.25 L 147.91,344.60 L 152.25,349.75 L 149.05,359.00 L 161.09,362.41 L 168.49,352.18 L 183.74,347.90 L 194.02,356.33 L 208.35,356.12 L 211.87,366.79 L 217.60,370.62 L 217.45,378.28 L 226.45,381.49 L 226.56,386.33 L 232.76,390.31 L 241.94,386.85 L 242.39,391.79 L 249.40,395.75 L 261.26,382.82 L 282.48,376.36 L 305.99,378.26 L 306.82,381.57 L 311.49,377.48 L 333.20,405.19 L 339.70,400.93 L 341.21,413.83 L 335.11,424.76 L 343.45,431.98 L 349.52,471.22 L 343.92,473.66 L 343.93,480.52 L 334.26,485.84 L 328.55,500.00 L 60.12,500.00 L 60.12,457.03 L 72.68,462.12 L 70.84,448.39 L 60.12,440.82 L 60.12,427.13 L 68.15,423.58 L 60.12,418.75 L 60.12,411.26 L 61.79,405.26 L 60.12,405.45 L 60.12,362.36 L 63.74,361.21 Z" fill="#C8D8E8" stroke="#8BAABB" stroke-width="0.8"/>
<path d="M 484.96,314.46 L 479.36,338.04 L 505.39,357.28 L 502.73,391.35 L 498.10,391.68 L 504.37,395.40 L 496.45,396.15 L 500.30,399.90 L 496.27,404.03 L 506.20,400.74 L 512.62,405.74 L 507.25,426.26 L 511.24,435.12 L 503.74,440.18 L 522.36,466.35 L 514.90,471.52 L 516.97,499.23 L 516.52,500.00 L 328.55,500.00 L 334.26,485.84 L 343.93,480.52 L 343.92,473.66 L 349.52,471.22 L 343.45,431.98 L 335.11,424.76 L 341.28,412.79 L 334.01,388.22 L 337.30,382.58 L 336.17,358.51 L 331.54,353.98 L 335.50,349.70 L 326.64,337.99 L 331.75,318.01 L 439.65,317.58 L 450.01,322.96 L 467.89,308.95 L 484.96,314.46 Z" fill="#C8D8E8" stroke="#8BAABB" stroke-width="0.8"/>
<path d="M 188.20,70.99 L 196.66,26.06 L 182.16,14.20 L 180.57,0.00 L 709.06,0.00 L 708.74,20.34 L 702.11,26.81 L 691.95,58.87 L 673.44,70.89 L 672.40,78.69 L 646.97,74.71 L 645.18,79.51 L 555.58,82.56 L 536.37,98.62 L 520.07,101.45 L 495.97,98.36 L 495.82,103.03 L 471.38,94.54 L 461.23,98.00 L 458.97,93.75 L 445.45,93.83 L 426.18,109.33 L 392.98,125.82 L 376.87,127.22 L 374.78,143.12 L 368.55,144.50 L 351.92,137.65 L 344.63,140.87 L 330.14,153.05 L 328.64,172.22 L 319.39,174.68 L 307.61,169.68 L 309.67,191.93 L 298.93,193.42 L 298.88,198.75 L 270.85,186.77 L 273.73,183.24 L 270.33,180.61 L 250.48,201.52 L 257.95,217.95 L 255.49,223.35 L 243.27,223.70 L 248.53,233.62 L 245.08,239.04 L 247.52,246.07 L 243.11,245.34 L 239.23,254.75 L 228.45,262.60 L 210.84,264.10 L 193.49,272.38 L 200.22,276.20 L 203.91,294.70 L 197.78,311.22 L 188.56,313.91 L 192.47,326.43 L 189.77,343.43 L 187.57,349.46 L 168.49,352.18 L 161.09,362.41 L 149.05,359.00 L 152.25,349.75 L 147.91,344.60 L 150.96,338.25 L 148.20,332.93 L 139.01,335.15 L 138.00,342.50 L 126.01,336.90 L 126.03,353.01 L 110.33,353.89 L 107.40,365.10 L 88.74,358.98 L 81.32,347.64 L 72.58,348.82 L 63.74,361.21 L 60.12,362.36 L 60.12,70.94 L 188.20,70.99 Z" fill="#C8D8E8" stroke="#8BAABB" stroke-width="0.8"/>
<path d="M 636.81,241.03 L 611.34,249.98 L 616.03,263.17 L 612.43,268.64 L 594.26,244.17 L 604.63,239.66 L 597.33,224.19 L 589.96,223.17 L 583.09,229.66 L 568.06,228.23 L 536.90,206.24 L 536.90,187.78 L 552.21,189.01 L 538.60,182.44 L 532.25,174.24 L 516.00,170.17 L 503.91,150.93 L 504.97,139.26 L 492.30,123.04 L 495.97,98.36 L 535.06,99.26 L 555.58,82.56 L 645.18,79.51 L 646.97,74.71 L 672.40,78.69 L 673.44,70.89 L 690.60,60.49 L 702.11,26.81 L 708.74,20.34 L 709.06,0.00 L 739.88,0.00 L 739.88,166.55 L 723.16,171.00 L 705.61,182.03 L 703.63,208.23 L 695.05,221.73 L 679.62,234.50 L 677.60,268.15 L 680.98,276.16 L 677.19,279.67 L 636.81,241.03 Z" fill="#C8D8E8" stroke="#8BAABB" stroke-width="0.8"/>
<path d="M 510.22,317.72 L 510.28,321.57 L 532.49,318.30 L 524.94,351.84 L 556.25,374.90 L 555.31,399.10 L 569.77,423.56 L 572.37,455.61 L 571.83,500.00 L 516.52,500.00 L 516.97,499.23 L 514.90,471.52 L 522.36,466.35 L 503.74,440.18 L 511.24,435.12 L 507.25,426.26 L 512.62,405.74 L 506.20,400.74 L 496.27,404.03 L 500.30,399.90 L 496.45,396.15 L 504.37,395.40 L 498.10,391.68 L 502.73,391.35 L 505.39,357.28 L 479.36,338.04 L 484.96,314.46 L 475.17,310.48 L 510.22,317.72 Z" fill="#C8D8E8" stroke="#8BAABB" stroke-width="0.8"/>
<path d="M 606.91,281.35 L 592.05,294.45 L 570.08,296.55 L 561.39,291.87 L 555.52,302.03 L 546.18,302.21 L 546.29,308.78 L 541.13,310.10 L 544.09,316.13 L 536.78,313.50 L 535.81,319.32 L 510.28,321.57 L 510.22,317.72 L 467.89,308.95 L 450.01,322.96 L 439.65,317.58 L 331.75,318.01 L 326.64,337.99 L 335.50,349.70 L 331.54,353.98 L 336.17,358.51 L 337.30,382.58 L 334.01,388.22 L 339.70,400.93 L 335.71,406.25 L 311.49,377.48 L 306.82,381.57 L 305.99,378.26 L 282.48,376.36 L 261.26,382.82 L 249.40,395.75 L 242.39,391.79 L 241.94,386.85 L 232.76,390.31 L 226.56,386.33 L 226.45,381.49 L 217.45,378.28 L 217.60,370.62 L 211.87,366.79 L 209.23,356.71 L 194.02,356.33 L 187.57,349.46 L 192.47,326.43 L 188.56,313.91 L 197.78,311.22 L 203.91,294.70 L 200.22,276.20 L 193.49,272.38 L 210.84,264.10 L 228.45,262.60 L 239.23,254.75 L 243.11,245.34 L 247.52,246.07 L 245.08,239.04 L 248.53,233.62 L 243.27,223.70 L 255.49,223.35 L 257.95,217.95 L 251.77,198.76 L 256.72,198.37 L 270.52,180.55 L 273.73,183.24 L 270.85,186.77 L 298.88,198.75 L 298.93,193.42 L 309.67,191.93 L 307.61,169.68 L 319.39,174.68 L 328.64,172.22 L 330.14,153.05 L 344.63,140.87 L 351.92,137.65 L 368.55,144.50 L 374.78,143.12 L 376.87,127.22 L 392.98,125.82 L 426.18,109.33 L 445.45,93.83 L 458.97,93.75 L 461.23,98.00 L 471.38,94.54 L 495.82,103.03 L 492.62,125.82 L 504.97,139.26 L 503.91,150.93 L 516.00,170.17 L 532.25,174.24 L 538.60,182.44 L 552.21,189.01 L 536.90,187.78 L 536.90,206.24 L 568.06,228.23 L 583.09,229.66 L 589.96,223.17 L 597.33,224.19 L 604.63,239.66 L 594.26,244.17 L 612.43,268.64 L 606.91,281.35 Z" fill="#4A90D9" stroke="#1a5fa8" stroke-width="1.2"/>
<path d="M 257.39,85.91 L 260.00,80.14 L 254.79,78.73 L 253.01,70.29 L 269.57,80.59 L 257.39,85.91 Z" fill="#A8C8E8" stroke="none"/>
<path d="M 732.89,361.49 L 728.02,364.90 L 732.27,366.39 L 733.41,378.29 L 729.52,381.48 L 727.67,368.99 L 723.96,370.53 L 725.46,366.78 L 722.12,366.37 L 726.93,364.90 L 722.88,361.86 L 725.98,361.59 L 724.73,356.02 L 716.62,351.71 L 723.63,350.96 L 723.96,336.26 L 730.41,341.61 L 734.01,339.14 L 732.89,361.49 Z" fill="#A8C8E8" stroke="none"/>
<path d="M 479.19,497.13 L 474.54,495.14 L 477.43,492.74 L 474.54,483.48 L 466.41,477.06 L 465.14,483.82 L 459.52,484.76 L 464.86,480.47 L 460.55,477.35 L 454.32,483.09 L 456.51,478.37 L 454.32,473.31 L 448.74,478.97 L 449.31,475.94 L 443.24,477.77 L 452.45,472.56 L 438.55,465.14 L 443.28,464.30 L 428.86,445.68 L 422.52,446.78 L 421.92,453.36 L 420.05,445.86 L 415.28,446.31 L 409.92,441.30 L 400.56,446.94 L 392.13,448.08 L 410.13,440.17 L 410.13,436.38 L 417.12,445.07 L 429.65,444.66 L 429.04,440.17 L 420.70,438.53 L 425.19,438.29 L 420.67,431.76 L 422.26,421.38 L 425.19,426.63 L 422.68,432.31 L 427.97,437.90 L 429.29,434.51 L 437.74,452.38 L 441.75,448.95 L 438.85,445.26 L 441.38,440.17 L 439.95,445.07 L 444.75,449.21 L 446.22,446.20 L 446.55,449.21 L 439.84,456.02 L 455.05,467.27 L 456.84,472.93 L 472.31,469.18 L 474.22,473.06 L 466.41,471.77 L 466.05,475.21 L 476.89,481.21 L 481.15,495.51 L 488.54,495.14 L 486.27,486.10 L 489.97,482.35 L 486.19,478.66 L 494.38,477.77 L 488.61,469.76 L 496.37,463.20 L 488.87,461.81 L 487.98,452.78 L 490.34,449.61 L 492.94,450.36 L 491.44,445.86 L 495.88,441.66 L 491.13,457.38 L 489.24,458.07 L 500.28,463.86 L 494.38,464.99 L 491.81,471.02 L 499.18,476.35 L 488.14,485.76 L 493.59,487.80 L 492.18,493.63 L 498.44,486.10 L 495.14,492.13 L 499.18,494.35 L 499.57,500.00 L 470.92,500.00 L 479.19,497.13 Z" fill="#A8C8E8" stroke="none"/>
<path d="M 176.47,487.60 L 180.17,491.39 L 187.36,476.72 L 190.14,477.48 L 184.57,486.10 L 187.94,486.84 L 181.86,495.19 L 189.01,492.13 L 184.14,500.00 L 177.56,500.00 L 176.47,487.60 Z" fill="#A8C8E8" stroke="none"/>
</svg>