<svg xmlns="http://www.w3.org/2000/svg" width="800" height="500" viewBox="0 0 800 500">
<rect width="800" height="500" fill="#A8C8E8"/>
<path d="M 1.96,405.26 L 0.00,411.26 L 0.00,405.45 L 1.96,405.26 Z M 9.45,423.58 L 0.00,427.13 L 0.00,418.75 L 9.45,423.58 Z M 12.61,448.39 L 14.78,462.12 L 4.59,456.47 L 1.95,459.60 L 0.00,458.37 L 0.00,440.82 L 12.61,448.39 Z" fill="#E8E0D0" stroke="#B8B0A0" stroke-width="0.5"/>
<path d="M 730.68,276.16 L 726.70,268.15 L 729.07,234.50 L 747.24,221.73 L 757.33,208.23 L 759.67,182.03 L 783.74,169.86 L 800.00,166.65 L 800.00,500.00 L 671.62,500.00 L 667.75,488.33 L 673.95,424.65 L 693.34,422.55 L 696.91,402.66 L 709.49,391.96 L 709.13,383.73 L 720.96,381.27 L 725.78,375.65 L 730.71,364.79 L 724.71,357.14 L 729.74,348.90 L 737.35,350.44 L 741.45,339.88 L 734.67,328.46 L 734.16,311.73 L 718.14,294.85 L 730.68,276.16 Z" fill="#E8E0D0" stroke="#B8B0A0" stroke-width="0.5"/>
<path d="M 143.63,14.20 L 160.70,26.06 L 150.73,70.99 L 0.00,70.94 L 0.00,0.00 L 141.76,0.00 L 143.63,14.20 Z" fill="#E8E0D0" stroke="#B8B0A0" stroke-width="0.5"/>
<path d="M 718.14,294.85 L 734.16,311.73 L 734.67,328.46 L 741.45,339.88 L 737.35,350.44 L 729.74,348.90 L 724.71,357.14 L 730.71,364.79 L 725.78,375.65 L 720.96,381.27 L 709.13,383.73 L 709.49,391.96 L 696.91,402.66 L 693.34,422.55 L 673.95,424.65 L 667.75,488.33 L 671.62,500.00 L 601.17,500.00 L 600.14,425.06 L 582.78,399.10 L 583.07,373.03 L 547.55,352.67 L 548.34,334.76 L 555.93,318.30 L 559.84,319.32 L 560.98,313.50 L 569.37,316.38 L 566.09,310.10 L 572.17,308.78 L 570.72,303.61 L 583.03,302.03 L 589.94,291.87 L 600.17,296.55 L 624.29,295.15 L 642.63,282.08 L 649.41,265.82 L 654.21,264.11 L 648.17,250.93 L 656.63,247.40 L 678.70,241.03 L 726.22,279.67 L 718.14,294.85 Z" fill="#C8D8E8" stroke="#8BAABB" stroke-width="0.8"/>
<path d="M 4.26,361.21 L 14.66,348.82 L 24.96,347.64 L 33.68,358.98 L 55.65,365.10 L 59.09,353.89 L 77.56,353.01 L 77.55,336.90 L 91.65,342.50 L 92.85,335.15 L 103.66,332.93 L 106.91,338.25 L 103.32,344.60 L 108.42,349.75 L 104.67,359.00 L 118.83,362.41 L 127.54,352.18 L 145.48,347.90 L 157.59,356.33 L 174.45,356.12 L 178.59,366.79 L 185.34,370.62 L 185.16,378.28 L 195.76,381.49 L 195.88,386.33 L 203.17,390.31 L 213.99,386.85 L 214.51,391.79 L 222.76,395.75 L 236.72,382.82 L 261.69,376.36 L 289.36,378.26 L 290.33,381.57 L 295.83,377.48 L 321.38,405.19 L 329.04,400.93 L 330.81,413.83 L 323.63,424.76 L 333.45,431.98 L 340.59,471.22 L 334.00,473.66 L 334.01,480.52 L 322.63,485.84 L 315.92,500.00 L 0.00,500.00 L 0.00,457.03 L 14.78,462.12 L 12.61,448.39 L 0.00,440.82 L 0.00,427.13 L 9.45,423.58 L 0.00,418.75 L 0.00,411.26 L 1.96,405.26 L 0.00,405.45 L 0.00,362.36 L 4.26,361.21 Z" fill="#C8D8E8" stroke="#8BAABB" stroke-width="0.8"/>
<path d="M 499.99,314.46 L 493.40,338.04 L 524.03,357.28 L 520.90,391.35 L 515.46,391.68 L 522.84,395.40 L 513.51,396.15 L 518.05,399.90 L 513.30,404.03 L 524.98,400.74 L 532.54,405.74 L 526.22,426.26 L 530.92,435.12 L 522.09,440.18 L 544.01,466.35 L 535.23,471.52 L 537.66,499.23 L 537.13,500.00 L 315.92,500.00 L 322.63,485.84 L 334.01,480.52 L 334.00,473.66 L 340.59,471.22 L 333.45,431.98 L 323.63,424.76 L 330.90,412.79 L 322.33,388.22 L 326.21,382.58 L 324.88,358.51 L 319.43,353.98 L 324.09,349.70 L 313.66,337.99 L 319.68,318.01 L 446.66,317.58 L 458.86,322.96 L 479.90,308.95 L 499.99,314.46 Z" fill="#C8D8E8" stroke="#8BAABB" stroke-width="0.8"/>
<path d="M 150.73,70.99 L 160.70,26.06 L 143.63,14.20 L 141.76,0.00 L 763.73,0.00 L 763.35,20.34 L 755.55,26.81 L 743.59,58.87 L 721.81,70.89 L 720.58,78.69 L 690.65,74.71 L 688.54,79.51 L 583.11,82.56 L 560.50,98.62 L 541.31,101.45 L 512.95,98.36 L 512.77,103.03 L 484.01,94.54 L 472.07,98.00 L 469.40,93.75 L 453.49,93.83 L 430.81,109.33 L 391.74,125.82 L 372.77,127.22 L 370.32,143.12 L 362.99,144.50 L 343.42,137.65 L 334.84,140.87 L 317.79,153.05 L 316.02,172.22 L 305.13,174.68 L 291.27,169.68 L 293.69,191.93 L 281.06,193.42 L 281.00,198.75 L 248.00,186.77 L 251.39,183.24 L 247.40,180.61 L 224.03,201.52 L 232.82,217.95 L 229.93,223.35 L 215.55,223.70 L 221.74,233.62 L 217.67,239.04 L 220.55,246.07 L 215.36,245.34 L 210.80,254.75 L 198.11,262.60 L 177.38,264.10 L 156.97,272.38 L 164.88,276.20 L 169.23,294.70 L 162.01,311.22 L 151.16,313.91 L 155.76,326.43 L 152.59,343.43 L 150.00,349.46 L 127.54,352.18 L 118.83,362.41 L 104.67,359.00 L 108.42,349.75 L 103.32,344.60 L 106.91,338.25 L 103.66,332.93 L 92.85,335.15 L 91.65,342.50 L 77.55,336.90 L 77.56,353.01 L 59.09,353.89 L 55.65,365.10 L 33.68,358.98 L 24.96,347.64 L 14.66,348.82 L 4.26,361.21 L 0.00,362.36 L 0.00,70.94 L 150.73,70.99 Z" fill="#C8D8E8" stroke="#8BAABB" stroke-width="0.8"/>
<path d="M 678.70,241.03 L 648.73,249.98 L 654.24,263.17 L 650.00,268.64 L 628.62,244.17 L 640.82,239.66 L 632.24,224.19 L 623.56,223.17 L 615.47,229.66 L 597.79,228.23 L 561.12,206.24 L 561.12,187.78 L 579.13,189.01 L 563.12,182.44 L 555.64,174.24 L 536.52,170.17 L 522.29,150.93 L 523.53,139.26 L 508.63,123.04 L 512.95,98.36 L 558.95,99.26 L 583.11,82.56 L 688.54,79.51 L 690.65,74.71 L 720.58,78.69 L 721.81,70.89 L 742.00,60.49 L 755.55,26.81 L 763.35,20.34 L 763.73,0.00 L 800.00,0.00 L 800.00,166.55 L 780.32,171.00 L 759.67,182.03 L 757.33,208.23 L 747.24,221.73 L 729.07,234.50 L 726.70,268.15 L 730.68,276.16 L 726.22,279.67 L 678.70,241.03 Z" fill="#C8D8E8" stroke="#8BAABB" stroke-width="0.8"/>
<path d="M 529.72,317.72 L 529.78,321.57 L 555.93,318.30 L 547.04,351.84 L 583.88,374.90 L 582.78,399.10 L 599.80,423.56 L 602.86,455.61 L 602.23,500.00 L 537.13,500.00 L 537.66,499.23 L 535.23,471.52 L 544.01,466.35 L 522.09,440.18 L 530.92,435.12 L 526.22,426.26 L 532.54,405.74 L 524.98,400.74 L 513.30,404.03 L 518.05,399.90 L 513.51,396.15 L 522.84,395.40 L 515.46,391.68 L 520.90,391.35 L 524.03,357.28 L 493.40,338.04 L 499.99,314.46 L 488.47,310.48 L 529.72,317.72 Z" fill="#C8D8E8" stroke="#8BAABB" stroke-width="0.8"/>
<path d="M 643.51,281.35 L 626.03,294.45 L 600.17,296.55 L 589.94,291.87 L 583.03,302.03 L 572.04,302.21 L 572.17,308.78 L 566.09,310.10 L 569.58,316.13 L 560.98,313.50 L 559.84,319.32 L 529.78,321.57 L 529.72,317.72 L 479.90,308.95 L 458.86,322.96 L 446.66,317.58 L 319.68,318.01 L 313.66,337.99 L 324.09,349.70 L 319.43,353.98 L 324.88,358.51 L 326.21,382.58 L 322.33,388.22 L 329.04,400.93 L 324.33,406.25 L 295.83,377.48 L 290.33,381.57 L 289.36,378.26 L 261.69,376.36 L 236.72,382.82 L 222.76,395.75 L 214.51,391.79 L 213.99,386.85 L 203.17,390.31 L 195.88,386.33 L 195.76,381.49 L 185.16,378.28 L 185.34,370.62 L 178.59,366.79 L 175.49,356.71 L 157.59,356.33 L 150.00,349.46 L 155.76,326.43 L 151.16,313.91 L 162.01,311.22 L 169.23,294.70 L 164.88,276.20 L 156.97,272.38 L 177.38,264.10 L 198.11,262.60 L 210.80,254.75 L 215.36,245.34 L 220.55,246.07 L 217.67,239.04 L 221.74,233.62 L 215.55,223.70 L 229.93,223.35 L 232.82,217.95 L 225.54,198.76 L 231.37,198.37 L 247.62,180.55 L 251.39,183.24 L 248.00,186.77 L 281.00,198.75 L 281.06,193.42 L 293.69,191.93 L 291.27,169.68 L 305.13,174.68 L 316.02,172.22 L 317.79,153.05 L 334.84,140.87 L 343.42,137.65 L 362.99,144.50 L 370.32,143.12 L 372.77,127.22 L 391.74,125.82 L 430.81,109.33 L 453.49,93.83 L 469.40,93.75 L 472.07,98.00 L 484.01,94.54 L 512.77,103.03 L 509.00,125.82 L 523.53,139.26 L 522.29,150.93 L 536.52,170.17 L 555.64,174.24 L 563.12,182.44 L 579.13,189.01 L 561.12,187.78 L 561.12,206.24 L 597.79,228.23 L 615.47,229.66 L 623.56,223.17 L 632.24,224.19 L 640.82,239.66 L 628.62,244.17 L 650.00,268.64 L 643.51,281.35 Z" fill="#4A90D9" stroke="#1a5fa8" stroke-width="1.2"/>
<path d="M 232.17,85.91 L 235.24,80.14 L 229.10,78.73 L 227.01,70.29 L 246.50,80.59 L 232.17,85.91 Z" fill="#A8C8E8" stroke="none"/>
<path d="M 791.77,361.49 L 786.04,364.90 L 791.04,366.39 L 792.38,378.29 L 787.81,381.48 L 785.63,368.99 L 781.26,370.53 L 783.03,366.78 L 779.10,366.37 L 784.76,364.90 L 779.99,361.86 L 783.64,361.59 L 782.17,356.02 L 772.63,351.71 L 780.87,350.96 L 781.26,336.26 L 788.85,341.61 L 793.09,339.14 L 791.77,361.49 Z" fill="#A8C8E8" stroke="none"/>
<path d="M 493.19,497.13 L 487.72,495.14 L 491.13,492.74 L 487.72,483.48 L 478.15,477.06 L 476.67,483.82 L 470.05,484.76 L 476.33,480.47 L 471.26,477.35 L 463.92,483.09 L 466.51,478.37 L 463.92,473.31 L 457.37,478.97 L 458.04,475.94 L 450.89,477.77 L 461.73,472.56 L 445.37,465.14 L 450.93,464.30 L 433.97,445.68 L 426.50,446.78 L 425.80,453.36 L 423.60,445.86 L 417.98,446.31 L 411.67,441.30 L 400.65,446.94 L 390.74,448.08 L 411.92,440.17 L 411.92,436.38 L 420.15,445.07 L 434.90,444.66 L 434.17,440.17 L 424.36,438.53 L 429.64,438.29 L 424.32,431.76 L 426.19,421.38 L 429.64,426.63 L 426.69,432.31 L 432.92,437.90 L 434.47,434.51 L 444.42,452.38 L 449.14,448.95 L 445.72,445.26 L 448.70,440.17 L 447.02,445.07 L 452.66,449.21 L 454.39,446.20 L 454.78,449.21 L 446.89,456.02 L 464.79,467.27 L 466.90,472.93 L 485.10,469.18 L 487.35,473.06 L 478.15,471.77 L 477.73,475.21 L 490.49,481.21 L 495.50,495.51 L 504.20,495.14 L 501.53,486.10 L 505.89,482.35 L 501.44,478.66 L 511.08,477.77 L 504.28,469.76 L 513.41,463.20 L 504.58,461.81 L 503.54,452.78 L 506.32,449.61 L 509.38,450.36 L 507.62,445.86 L 512.83,441.66 L 507.25,457.38 L 505.02,458.07 L 518.01,463.86 L 511.08,464.99 L 508.05,471.02 L 516.72,476.35 L 503.73,485.76 L 510.15,487.80 L 508.48,493.63 L 515.86,486.10 L 511.97,492.13 L 516.72,494.35 L 517.18,500.00 L 483.47,500.00 L 493.19,497.13 Z" fill="#A8C8E8" stroke="none"/>
<path d="M 136.93,487.60 L 141.29,491.39 L 149.75,476.72 L 153.01,477.48 L 146.47,486.10 L 150.43,486.84 L 143.28,495.19 L 151.68,492.13 L 145.96,500.00 L 138.21,500.00 L 136.93,487.60 Z" fill="#A8C8E8" stroke="none"/>
</svg>