<svg xmlns="http://www.w3.org/2000/svg" width="800" height="500" viewBox="0 0 800 500">
<rect width="800" height="500" fill="#A8C8E8"/>
<path d="M 18.82,354.66 L 21.46,370.23 L 16.87,372.68 L 16.87,302.46 L 17.38,302.71 L 26.42,330.97 L 18.82,354.66 Z M 21.88,389.54 L 18.80,406.81 L 35.48,440.53 L 53.88,442.46 L 52.88,456.00 L 60.03,469.13 L 52.36,486.62 L 39.59,491.91 L 37.36,500.00 L 16.87,500.00 L 16.87,378.96 L 21.88,389.54 Z" fill="#E8E0D0" stroke="#B8B0A0" stroke-width="0.5"/>
<path d="M 16.97,237.36 L 16.87,236.60 L 16.87,226.40 L 31.46,213.31 L 26.79,201.54 L 41.41,194.73 L 44.80,204.41 L 64.32,212.76 L 77.23,234.11 L 88.59,238.25 L 86.30,249.01 L 116.58,259.12 L 96.85,291.08 L 100.54,301.08 L 85.39,303.43 L 80.20,317.29 L 64.77,306.35 L 40.68,318.27 L 32.73,343.16 L 23.95,340.11 L 18.85,304.75 L 16.87,303.64 L 16.87,237.39 L 16.97,237.36 Z" fill="#E8E0D0" stroke="#B8B0A0" stroke-width="0.5"/>
<path d="M 101.89,445.43 L 137.74,415.56 L 188.19,416.84 L 194.04,396.42 L 257.92,392.64 L 305.62,372.68 L 326.89,372.70 L 332.29,385.37 L 347.20,395.04 L 355.80,389.54 L 386.48,406.41 L 450.64,394.02 L 453.89,376.10 L 445.05,359.37 L 458.73,353.03 L 487.11,367.39 L 490.25,389.65 L 488.20,396.86 L 465.98,405.69 L 468.95,435.14 L 447.63,459.11 L 441.81,451.96 L 445.50,449.13 L 405.84,445.00 L 375.16,430.39 L 349.32,446.78 L 336.00,446.24 L 326.51,435.46 L 296.16,459.91 L 267.08,457.40 L 264.66,465.58 L 281.16,479.68 L 274.10,483.02 L 277.57,492.79 L 287.89,495.63 L 288.57,489.07 L 298.93,500.00 L 286.90,500.00 L 282.82,497.85 L 266.99,498.50 L 266.84,500.00 L 211.00,500.00 L 202.28,495.64 L 197.16,483.52 L 209.57,478.24 L 203.99,468.62 L 178.53,487.07 L 184.83,497.45 L 184.30,500.00 L 37.36,500.00 L 39.59,491.91 L 58.65,477.58 L 54.54,447.20 L 101.89,445.43 Z M 408.10,494.22 L 398.60,485.64 L 408.77,482.21 L 417.59,489.22 L 408.10,494.22 Z M 347.63,472.01 L 337.04,476.36 L 327.40,469.20 L 337.04,451.96 L 348.12,459.16 L 347.63,472.01 Z" fill="#C8D8E8" stroke="#8BAABB" stroke-width="0.8"/>
<path d="M 34.39,342.58 L 40.68,318.27 L 64.77,306.35 L 79.40,317.46 L 90.73,301.02 L 154.69,288.11 L 174.84,313.34 L 198.44,324.81 L 211.60,356.51 L 205.72,367.40 L 206.32,394.86 L 191.76,398.48 L 188.19,416.84 L 137.74,415.56 L 101.89,445.43 L 54.54,447.20 L 35.48,440.53 L 18.80,406.81 L 21.88,389.54 L 16.87,378.96 L 16.87,372.68 L 21.46,370.23 L 18.82,354.66 L 23.95,340.11 L 34.39,342.58 Z" fill="#C8D8E8" stroke="#8BAABB" stroke-width="0.8"/>
<path d="M 719.32,27.53 L 683.84,35.59 L 671.90,45.58 L 669.92,39.72 L 682.50,33.54 L 675.24,27.11 L 680.35,16.18 L 670.56,11.76 L 661.81,18.97 L 667.71,37.60 L 655.25,49.73 L 663.99,42.67 L 669.35,44.32 L 670.89,47.01 L 653.24,52.08 L 653.29,68.98 L 666.08,52.73 L 643.81,84.55 L 646.63,117.92 L 639.45,144.71 L 612.02,142.54 L 593.56,133.40 L 588.26,118.34 L 573.64,123.01 L 566.85,114.53 L 547.68,116.07 L 520.30,99.13 L 452.94,116.35 L 424.54,145.68 L 395.50,154.25 L 248.11,130.13 L 202.32,134.43 L 202.10,118.22 L 213.25,107.91 L 187.11,93.70 L 170.69,69.11 L 178.63,58.49 L 192.82,56.68 L 166.77,40.90 L 143.77,65.07 L 133.60,48.76 L 87.63,34.98 L 84.52,28.04 L 98.41,24.62 L 84.20,13.23 L 93.59,0.00 L 724.82,0.00 L 719.32,27.53 Z" fill="#C8D8E8" stroke="#8BAABB" stroke-width="0.8"/>
<path d="M 84.20,13.23 L 98.41,24.62 L 84.52,28.04 L 87.63,34.98 L 133.60,48.76 L 143.77,65.07 L 166.77,40.90 L 192.82,56.68 L 171.23,65.37 L 187.18,93.75 L 179.60,110.96 L 164.74,118.34 L 160.89,137.74 L 173.90,172.64 L 209.68,203.98 L 189.89,234.08 L 166.87,241.74 L 171.14,250.09 L 166.72,266.93 L 175.26,276.81 L 166.61,292.76 L 154.69,288.11 L 101.39,301.53 L 96.85,291.08 L 104.64,286.40 L 115.94,256.80 L 86.30,249.01 L 88.59,238.25 L 77.23,234.11 L 64.32,212.76 L 44.80,204.41 L 43.33,195.32 L 26.79,201.54 L 29.84,216.78 L 16.87,226.57 L 16.87,0.00 L 93.59,0.00 L 84.20,13.23 Z M 16.97,237.36 L 16.87,237.39 L 16.87,236.60 L 16.97,237.36 Z" fill="#C8D8E8" stroke="#8BAABB" stroke-width="0.8"/>
<path d="M 497.87,493.84 L 540.23,487.07 L 550.97,500.00 L 491.89,500.00 L 497.87,493.84 Z M 586.07,495.64 L 570.76,484.15 L 576.58,479.87 L 597.66,486.42 L 587.64,494.22 L 590.77,497.76 L 675.81,497.63 L 683.49,490.64 L 655.92,478.17 L 709.54,459.98 L 744.01,459.16 L 691.41,451.24 L 692.12,445.07 L 672.43,428.26 L 676.64,423.46 L 678.81,416.71 L 677.16,415.47 L 684.88,407.07 L 759.19,416.41 L 770.38,408.90 L 783.13,413.18 L 783.13,500.00 L 580.62,500.00 L 586.07,495.64 Z M 598.47,338.33 L 592.87,345.44 L 612.90,377.16 L 680.24,406.84 L 671.26,430.59 L 643.06,434.75 L 637.42,423.03 L 636.61,432.54 L 607.72,422.54 L 590.50,434.47 L 558.46,432.58 L 540.31,462.46 L 493.86,488.41 L 482.61,500.00 L 460.47,500.00 L 505.05,473.08 L 502.08,466.95 L 480.20,473.44 L 445.48,466.95 L 443.91,459.16 L 468.95,435.14 L 465.98,405.69 L 489.89,394.05 L 487.11,367.39 L 466.97,356.86 L 467.03,348.86 L 481.78,345.23 L 487.89,330.26 L 513.49,327.24 L 521.76,318.17 L 539.19,317.25 L 560.17,337.19 L 580.57,327.40 L 596.31,329.72 L 598.47,338.33 Z M 574.48,470.65 L 564.65,475.71 L 558.63,469.20 L 574.48,470.65 Z M 568.63,489.04 L 562.74,486.20 L 564.84,483.18 L 568.63,489.04 Z" fill="#C8D8E8" stroke="#8BAABB" stroke-width="0.8"/>
<path d="M 445.48,358.07 L 454.85,386.27 L 432.29,399.64 L 382.90,406.25 L 355.80,389.54 L 347.20,395.04 L 332.29,385.37 L 326.89,372.70 L 293.58,375.38 L 290.37,384.24 L 257.92,392.64 L 204.49,396.33 L 211.55,354.05 L 198.44,324.81 L 174.84,313.34 L 160.55,294.06 L 175.00,278.98 L 166.72,266.93 L 171.14,250.09 L 166.87,241.74 L 189.89,234.08 L 209.44,201.43 L 173.90,172.64 L 160.89,137.74 L 164.74,118.34 L 179.60,110.96 L 187.18,93.75 L 213.25,107.91 L 202.10,118.22 L 202.32,134.43 L 248.11,130.13 L 395.50,154.25 L 424.54,145.68 L 452.94,116.35 L 520.30,99.13 L 547.68,116.07 L 566.85,114.53 L 573.64,123.01 L 588.26,118.34 L 593.56,133.40 L 612.02,142.54 L 639.45,144.71 L 638.07,174.77 L 631.37,183.87 L 619.73,177.45 L 604.15,181.29 L 596.37,197.90 L 587.64,201.08 L 586.74,252.53 L 574.48,252.11 L 566.47,261.06 L 568.14,268.47 L 552.98,276.62 L 573.43,283.47 L 576.26,299.81 L 596.31,329.72 L 580.57,327.40 L 560.17,337.19 L 539.19,317.25 L 521.76,318.17 L 513.49,327.24 L 487.89,330.26 L 481.78,345.23 L 467.03,348.86 L 466.97,356.86 L 445.48,358.07 Z" fill="#4A90D9" stroke="#1a5fa8" stroke-width="1.2"/>
<path d="M 41.18,438.31 L 31.05,440.84 L 30.66,413.19 L 43.28,419.68 L 41.18,438.31 Z" fill="#A8C8E8" stroke="none"/>
<path d="M 59.54,447.67 L 59.52,447.98 L 59.52,447.95 L 59.54,447.67 Z" fill="#A8C8E8" stroke="none"/>
<path d="M 59.59,448.19 L 59.61,448.23 L 59.59,448.23 L 59.59,448.19 Z" fill="#A8C8E8" stroke="none"/>
<path d="M 59.86,448.19 L 59.97,448.23 L 60.09,448.32 L 59.86,448.19 Z" fill="#A8C8E8" stroke="none"/>
<path d="M 50.11,454.88 L 54.50,429.78 L 66.42,445.89 L 50.11,454.88 Z" fill="#A8C8E8" stroke="none"/>
<path d="M 64.84,460.20 L 56.92,464.88 L 61.38,454.04 L 66.15,452.51 L 64.84,460.20 Z" fill="#A8C8E8" stroke="none"/>
</svg>