<svg xmlns="http://www.w3.org/2000/svg" width="800" height="500" viewBox="0 0 800 500">
<rect width="800" height="500" fill="#A8C8E8"/>
<path d="M 2.03,354.66 L 4.79,370.23 L 0.00,372.68 L 0.00,302.46 L 0.53,302.71 L 9.97,330.97 L 2.03,354.66 Z M 5.23,389.54 L 2.01,406.81 L 19.43,440.53 L 38.64,442.46 L 37.59,456.00 L 45.05,469.13 L 37.04,486.62 L 23.71,491.91 L 21.39,500.00 L 0.00,500.00 L 0.00,378.96 L 5.23,389.54 Z" fill="#E8E0D0" stroke="#B8B0A0" stroke-width="0.5"/>
<path d="M 0.10,237.36 L 0.00,236.60 L 0.00,226.40 L 15.23,213.31 L 10.35,201.54 L 25.62,194.73 L 29.16,204.41 L 49.54,212.76 L 63.01,234.11 L 74.87,238.25 L 72.49,249.01 L 104.10,259.12 L 83.50,291.08 L 87.36,301.08 L 71.53,303.43 L 66.12,317.29 L 50.01,306.35 L 24.86,318.27 L 16.56,343.16 L 7.39,340.11 L 2.07,304.75 L 0.00,303.64 L 0.00,237.39 L 0.10,237.36 Z" fill="#E8E0D0" stroke="#B8B0A0" stroke-width="0.5"/>
<path d="M 88.76,445.43 L 126.19,415.56 L 178.87,416.84 L 184.97,396.42 L 251.66,392.64 L 301.46,372.68 L 323.67,372.70 L 329.31,385.37 L 344.87,395.04 L 353.85,389.54 L 385.88,406.41 L 452.87,394.02 L 456.26,376.10 L 447.04,359.37 L 461.32,353.03 L 490.94,367.39 L 494.23,389.65 L 492.09,396.86 L 468.89,405.69 L 471.98,435.14 L 449.72,459.11 L 443.65,451.96 L 447.51,449.13 L 406.10,445.00 L 374.07,430.39 L 347.08,446.78 L 333.18,446.24 L 323.27,435.46 L 291.58,459.91 L 261.23,457.40 L 258.70,465.58 L 275.92,479.68 L 268.55,483.02 L 272.18,492.79 L 282.95,495.63 L 283.67,489.07 L 294.47,500.00 L 281.92,500.00 L 277.66,497.85 L 261.13,498.50 L 260.98,500.00 L 202.67,500.00 L 193.57,495.64 L 188.23,483.52 L 201.19,478.24 L 195.36,468.62 L 168.78,487.07 L 175.36,497.45 L 174.80,500.00 L 21.39,500.00 L 23.71,491.91 L 43.62,477.58 L 39.32,447.20 L 88.76,445.43 Z M 408.46,494.22 L 398.54,485.64 L 409.16,482.21 L 418.37,489.22 L 408.46,494.22 Z M 345.33,472.01 L 334.27,476.36 L 324.20,469.20 L 334.27,451.96 L 345.83,459.16 L 345.33,472.01 Z" fill="#C8D8E8" stroke="#8BAABB" stroke-width="0.8"/>
<path d="M 18.28,342.58 L 24.86,318.27 L 50.01,306.35 L 65.28,317.46 L 77.11,301.02 L 143.89,288.11 L 164.92,313.34 L 189.56,324.81 L 203.31,356.51 L 197.16,367.40 L 197.79,394.86 L 182.59,398.48 L 178.87,416.84 L 126.19,415.56 L 88.76,445.43 L 39.32,447.20 L 19.43,440.53 L 2.01,406.81 L 5.23,389.54 L 0.00,378.96 L 0.00,372.68 L 4.79,370.23 L 2.03,354.66 L 7.39,340.11 L 18.28,342.58 Z" fill="#C8D8E8" stroke="#8BAABB" stroke-width="0.8"/>
<path d="M 733.38,27.53 L 696.34,35.59 L 683.88,45.58 L 681.81,39.72 L 694.94,33.54 L 687.36,27.11 L 692.69,16.18 L 682.48,11.76 L 673.34,18.97 L 679.50,37.60 L 666.50,49.73 L 675.62,42.67 L 681.21,44.32 L 682.82,47.01 L 664.39,52.08 L 664.45,68.98 L 677.80,52.73 L 654.55,84.55 L 657.49,117.92 L 650.00,144.71 L 621.35,142.54 L 602.08,133.40 L 596.55,118.34 L 581.28,123.01 L 574.20,114.53 L 554.18,116.07 L 525.60,99.13 L 455.27,116.35 L 425.62,145.68 L 395.30,154.25 L 241.42,130.13 L 193.62,134.43 L 193.38,118.22 L 205.02,107.91 L 177.73,93.70 L 160.59,69.11 L 168.89,58.49 L 183.70,56.68 L 156.50,40.90 L 132.48,65.07 L 121.87,48.76 L 73.87,34.98 L 70.63,28.04 L 85.13,24.62 L 70.30,13.23 L 80.10,0.00 L 739.12,0.00 L 733.38,27.53 Z" fill="#C8D8E8" stroke="#8BAABB" stroke-width="0.8"/>
<path d="M 70.30,13.23 L 85.13,24.62 L 70.63,28.04 L 73.87,34.98 L 121.87,48.76 L 132.48,65.07 L 156.50,40.90 L 183.70,56.68 L 161.16,65.37 L 177.80,93.75 L 169.89,110.96 L 154.38,118.34 L 150.36,137.74 L 163.94,172.64 L 201.30,203.98 L 180.64,234.08 L 156.61,241.74 L 161.06,250.09 L 156.44,266.93 L 165.36,276.81 L 156.33,292.76 L 143.89,288.11 L 88.24,301.53 L 83.50,291.08 L 91.64,286.40 L 103.43,256.80 L 72.49,249.01 L 74.87,238.25 L 63.01,234.11 L 49.54,212.76 L 29.16,204.41 L 27.63,195.32 L 10.35,201.54 L 13.54,216.78 L 0.00,226.57 L 0.00,0.00 L 80.10,0.00 L 70.30,13.23 Z M 0.10,237.36 L 0.00,237.39 L 0.00,236.60 L 0.10,237.36 Z" fill="#C8D8E8" stroke="#8BAABB" stroke-width="0.8"/>
<path d="M 502.18,493.84 L 546.41,487.07 L 557.62,500.00 L 495.94,500.00 L 502.18,493.84 Z M 594.27,495.64 L 578.28,484.15 L 584.36,479.87 L 606.37,486.42 L 595.90,494.22 L 599.17,497.76 L 687.96,497.63 L 695.98,490.64 L 667.19,478.17 L 723.17,459.98 L 759.16,459.16 L 704.24,451.24 L 704.99,445.07 L 684.43,428.26 L 688.82,423.46 L 691.09,416.71 L 689.36,415.47 L 697.43,407.07 L 775.01,416.41 L 786.69,408.90 L 800.00,413.18 L 800.00,500.00 L 588.57,500.00 L 594.27,495.64 Z M 607.21,338.33 L 601.36,345.44 L 622.28,377.16 L 692.58,406.84 L 683.21,430.59 L 653.76,434.75 L 647.88,423.03 L 647.03,432.54 L 616.86,422.54 L 598.89,434.47 L 565.44,432.58 L 546.49,462.46 L 497.99,488.41 L 486.25,500.00 L 463.14,500.00 L 509.67,473.08 L 506.58,466.95 L 483.74,473.44 L 447.49,466.95 L 445.84,459.16 L 471.98,435.14 L 468.89,405.69 L 493.85,394.05 L 490.94,367.39 L 469.92,356.86 L 469.99,348.86 L 485.38,345.23 L 491.76,330.26 L 518.49,327.24 L 527.13,318.17 L 545.32,317.25 L 567.22,337.19 L 588.52,327.40 L 604.95,329.72 L 607.21,338.33 Z M 582.16,470.65 L 571.90,475.71 L 565.62,469.20 L 582.16,470.65 Z M 576.06,489.04 L 569.91,486.20 L 572.10,483.18 L 576.06,489.04 Z" fill="#C8D8E8" stroke="#8BAABB" stroke-width="0.8"/>
<path d="M 447.49,358.07 L 457.27,386.27 L 433.72,399.64 L 382.15,406.25 L 353.85,389.54 L 344.87,395.04 L 329.31,385.37 L 323.67,372.70 L 288.90,375.38 L 285.54,384.24 L 251.66,392.64 L 195.88,396.33 L 203.25,354.05 L 189.56,324.81 L 164.92,313.34 L 150.00,294.06 L 165.09,278.98 L 156.44,266.93 L 161.06,250.09 L 156.61,241.74 L 180.64,234.08 L 201.04,201.43 L 163.94,172.64 L 150.36,137.74 L 154.38,118.34 L 169.89,110.96 L 177.80,93.75 L 205.02,107.91 L 193.38,118.22 L 193.62,134.43 L 241.42,130.13 L 395.30,154.25 L 425.62,145.68 L 455.27,116.35 L 525.60,99.13 L 554.18,116.07 L 574.20,114.53 L 581.28,123.01 L 596.55,118.34 L 602.08,133.40 L 621.35,142.54 L 650.00,144.71 L 648.55,174.77 L 641.56,183.87 L 629.40,177.45 L 613.14,181.29 L 605.02,197.90 L 595.90,201.08 L 594.96,252.53 L 582.16,252.11 L 573.80,261.06 L 575.54,268.47 L 559.72,276.62 L 581.07,283.47 L 584.02,299.81 L 604.95,329.72 L 588.52,327.40 L 567.22,337.19 L 545.32,317.25 L 527.13,318.17 L 518.49,327.24 L 491.76,330.26 L 485.38,345.23 L 469.99,348.86 L 469.92,356.86 L 447.49,358.07 Z" fill="#4A90D9" stroke="#1a5fa8" stroke-width="1.2"/>
<path d="M 25.38,438.31 L 14.80,440.84 L 14.40,413.19 L 27.57,419.68 L 25.38,438.31 Z" fill="#A8C8E8" stroke="none"/>
<path d="M 44.55,447.67 L 44.53,447.98 L 44.53,447.95 L 44.55,447.67 Z" fill="#A8C8E8" stroke="none"/>
<path d="M 44.60,448.19 L 44.62,448.23 L 44.60,448.23 L 44.60,448.19 Z" fill="#A8C8E8" stroke="none"/>
<path d="M 44.88,448.19 L 45.00,448.23 L 45.12,448.32 L 44.88,448.19 Z" fill="#A8C8E8" stroke="none"/>
<path d="M 34.70,454.88 L 39.28,429.78 L 51.73,445.89 L 34.70,454.88 Z" fill="#A8C8E8" stroke="none"/>
<path d="M 50.08,460.20 L 41.81,464.88 L 46.46,454.04 L 51.44,452.51 L 50.08,460.20 Z" fill="#A8C8E8" stroke="none"/>
</svg>