<svg xmlns="http://www.w3.org/2000/svg" width="800" height="500" viewBox="0 0 800 500">
<rect width="800" height="500" fill="#A8C8E8"/>
<path d="M 539.24,491.15 L 541.29,500.00 L 538.81,500.00 L 539.24,491.15 Z" fill="#E8E0D0" stroke="#B8B0A0" stroke-width="0.5"/>
<path d="M 436.08,426.98 L 420.81,317.75 L 434.33,322.02 L 425.59,300.58 L 435.74,293.36 L 441.57,311.89 L 452.65,294.09 L 440.00,288.66 L 453.59,241.71 L 491.11,213.78 L 510.39,243.95 L 536.95,257.41 L 538.73,283.81 L 526.79,287.68 L 533.02,296.43 L 522.12,313.58 L 528.71,348.63 L 541.18,355.19 L 541.66,391.55 L 503.66,462.25 L 494.88,447.70 L 452.84,462.59 L 428.81,434.63 L 436.08,426.98 Z" fill="#E8E0D0" stroke="#B8B0A0" stroke-width="0.5"/>
<path d="M 452.84,462.59 L 493.58,453.72 L 498.30,470.49 L 511.35,452.65 L 525.83,460.11 L 497.28,500.00 L 175.16,500.00 L 175.16,0.00 L 210.24,0.00 L 218.71,12.45 L 191.59,13.62 L 211.84,17.88 L 206.15,30.78 L 218.71,28.65 L 220.09,50.40 L 232.71,50.67 L 227.43,59.25 L 255.15,52.21 L 273.05,89.07 L 337.55,134.91 L 313.66,125.60 L 319.58,161.51 L 345.71,188.18 L 335.15,233.18 L 319.83,207.38 L 313.88,238.52 L 329.52,240.44 L 351.47,296.31 L 335.62,280.46 L 336.18,285.69 L 381.54,326.73 L 394.28,386.48 L 452.84,462.59 Z M 256.98,28.75 L 271.55,32.91 L 238.87,37.18 L 256.98,28.75 Z" fill="#E8E0D0" stroke="#B8B0A0" stroke-width="0.5"/>
<path d="M 406.01,216.02 L 394.72,271.68 L 378.36,213.55 L 382.94,200.89 L 398.65,201.52 L 392.79,208.45 L 406.01,216.02 Z M 374.18,212.84 L 374.79,220.05 L 369.51,219.55 L 374.18,212.84 Z M 407.37,195.56 L 410.69,206.30 L 401.33,201.10 L 407.37,195.56 Z M 427.82,280.81 L 421.60,304.44 L 419.46,289.71 L 427.82,280.81 Z M 426.31,277.05 L 426.49,278.04 L 424.98,278.63 L 426.31,277.05 Z M 430.49,289.01 L 430.05,290.50 L 428.89,291.29 L 430.49,289.01 Z M 430.05,294.35 L 429.34,296.33 L 426.40,296.53 L 430.05,294.35 Z" fill="#4A90D9" stroke="#1a5fa8" stroke-width="1.2"/>
</svg>