<svg xmlns="http://www.w3.org/2000/svg" width="800" height="500" viewBox="0 0 800 500">
<rect width="800" height="500" fill="#A8C8E8"/>
<path d="M 647.72,491.15 L 651.36,500.00 L 646.96,500.00 L 647.72,491.15 Z" fill="#E8E0D0" stroke="#B8B0A0" stroke-width="0.5"/>
<path d="M 464.19,426.98 L 437.03,317.75 L 461.07,322.02 L 445.53,300.58 L 463.58,293.36 L 473.95,311.89 L 493.67,294.09 L 471.16,288.66 L 495.33,241.71 L 562.09,213.78 L 596.39,243.95 L 643.65,257.41 L 646.80,283.81 L 625.56,287.68 L 636.65,296.43 L 617.26,313.58 L 628.98,348.63 L 651.18,355.19 L 652.03,391.55 L 584.43,462.25 L 568.80,447.70 L 494.00,462.59 L 451.25,434.63 L 464.19,426.98 Z" fill="#E8E0D0" stroke="#B8B0A0" stroke-width="0.5"/>
<path d="M 494.00,462.59 L 566.48,453.72 L 574.88,470.49 L 598.10,452.65 L 623.85,460.11 L 573.07,500.00 L 0.00,500.00 L 0.00,0.00 L 62.40,0.00 L 77.47,12.45 L 29.23,13.62 L 65.24,17.88 L 55.13,30.78 L 77.47,28.65 L 79.93,50.40 L 102.37,50.67 L 92.99,59.25 L 142.31,52.21 L 174.15,89.07 L 288.89,134.91 L 246.39,125.60 L 256.93,161.51 L 303.42,188.18 L 284.62,233.18 L 257.38,207.38 L 246.78,238.52 L 274.61,240.44 L 313.65,296.31 L 285.45,280.46 L 286.45,285.69 L 367.16,326.73 L 389.82,386.48 L 494.00,462.59 Z M 145.56,28.75 L 171.48,32.91 L 113.34,37.18 L 145.56,28.75 Z" fill="#E8E0D0" stroke="#B8B0A0" stroke-width="0.5"/>
<path d="M 410.69,216.02 L 390.60,271.68 L 361.50,213.55 L 369.64,200.89 L 397.60,201.52 L 387.18,208.45 L 410.69,216.02 Z M 354.07,212.84 L 355.14,220.05 L 345.75,219.55 L 354.07,212.84 Z M 413.11,195.56 L 419.01,206.30 L 402.37,201.10 L 413.11,195.56 Z M 449.50,280.81 L 438.43,304.44 L 434.63,289.71 L 449.50,280.81 Z M 446.81,277.05 L 447.13,278.04 L 444.44,278.63 L 446.81,277.05 Z M 454.25,289.01 L 453.46,290.50 L 451.40,291.29 L 454.25,289.01 Z M 453.46,294.35 L 452.19,296.33 L 446.97,296.53 L 453.46,294.35 Z" fill="#4A90D9" stroke="#1a5fa8" stroke-width="1.2"/>
</svg>