<svg xmlns="http://www.w3.org/2000/svg" width="800" height="500" viewBox="0 0 800 500">
<rect width="800" height="500" fill="#A8C8E8"/>
<path d="M 231.79,0.53 L 206.08,27.25 L 207.16,78.52 L 140.04,106.61 L 137.76,124.89 L 146.29,144.33 L 180.60,157.66 L 172.18,167.61 L 232.11,201.31 L 227.21,324.74 L 258.32,352.71 L 276.18,411.89 L 254.39,472.33 L 272.00,500.00 L 0.00,500.00 L 0.00,0.00 L 232.96,0.00 L 231.79,0.53 Z" fill="#C8D8E8" stroke="#8BAABB" stroke-width="0.8"/>
<path d="M 146.29,144.33 L 138.16,110.41 L 207.16,78.52 L 206.08,27.25 L 236.67,0.00 L 631.72,0.00 L 622.69,39.69 L 645.40,61.85 L 632.05,99.86 L 553.89,107.68 L 518.10,93.75 L 452.65,112.33 L 406.38,95.75 L 397.93,146.99 L 353.43,166.43 L 258.37,169.46 L 250.11,145.40 L 201.81,135.93 L 177.29,154.17 L 146.29,144.33 Z" fill="#C8D8E8" stroke="#8BAABB" stroke-width="0.8"/>
<path d="M 254.39,472.33 L 274.50,404.29 L 356.66,406.25 L 424.20,378.56 L 501.38,308.83 L 518.85,308.61 L 531.52,274.40 L 623.39,234.29 L 631.50,219.56 L 629.82,191.47 L 545.57,186.40 L 527.40,173.11 L 554.09,143.85 L 526.48,146.86 L 550.48,116.95 L 632.05,99.86 L 645.40,61.85 L 622.69,39.69 L 629.66,0.00 L 800.00,0.00 L 800.00,500.00 L 272.00,500.00 L 254.39,472.33 Z" fill="#C8D8E8" stroke="#8BAABB" stroke-width="0.8"/>
<path d="M 527.45,143.30 L 554.09,143.85 L 527.40,173.11 L 545.57,186.40 L 629.82,191.47 L 627.16,230.40 L 531.52,274.40 L 518.85,308.61 L 501.38,308.83 L 424.20,378.56 L 356.66,406.25 L 274.50,404.29 L 258.32,352.71 L 227.21,324.74 L 232.11,201.31 L 170.18,165.17 L 181.60,139.69 L 247.06,144.09 L 258.37,169.46 L 353.43,166.43 L 397.93,146.99 L 406.38,95.75 L 452.65,112.33 L 518.10,93.75 L 562.10,107.86 L 527.45,143.30 Z" fill="#4A90D9" stroke="#1a5fa8" stroke-width="1.2"/>
<path d="M 197.52,493.71 L 201.64,428.14 L 223.79,413.87 L 238.29,356.47 L 231.96,346.04 L 207.97,389.64 L 183.91,383.64 L 199.66,371.63 L 207.09,256.32 L 224.97,242.95 L 255.73,246.95 L 266.77,322.92 L 337.05,396.97 L 321.74,470.04 L 368.84,484.81 L 376.78,500.00 L 203.07,500.00 L 197.52,493.71 Z" fill="#A8C8E8" stroke="none"/>
<path d="M 187.88,105.62 L 180.45,91.27 L 134.09,117.97 L 133.87,103.92 L 166.54,88.12 L 144.46,97.15 L 154.91,86.46 L 139.31,87.35 L 137.62,70.45 L 165.22,57.63 L 159.03,47.58 L 144.46,51.58 L 196.64,2.32 L 195.93,0.00 L 218.64,0.00 L 237.11,6.02 L 256.76,57.33 L 187.88,105.62 Z M 184.50,45.79 L 177.06,87.35 L 196.93,81.77 L 198.33,43.49 L 184.50,45.79 Z M 177.06,5.08 L 180.86,0.00 L 185.00,0.00 L 177.06,5.08 Z" fill="#A8C8E8" stroke="none"/>
</svg>