<svg xmlns="http://www.w3.org/2000/svg" width="800" height="500" viewBox="0 0 800 500">
<rect width="800" height="500" fill="#A8C8E8"/>
<path d="M 302.84,0.53 L 287.99,27.25 L 288.61,78.52 L 249.84,106.61 L 248.53,124.89 L 253.45,144.33 L 273.27,157.66 L 268.41,167.61 L 303.02,201.31 L 300.19,324.74 L 318.16,352.71 L 328.48,411.89 L 315.90,472.33 L 326.06,500.00 L 168.95,500.00 L 168.95,0.00 L 303.51,0.00 L 302.84,0.53 Z" fill="#C8D8E8" stroke="#8BAABB" stroke-width="0.8"/>
<path d="M 253.45,144.33 L 248.76,110.41 L 288.61,78.52 L 287.99,27.25 L 305.66,0.00 L 533.85,0.00 L 528.63,39.69 L 541.75,61.85 L 534.03,99.86 L 488.89,107.68 L 468.22,93.75 L 430.41,112.33 L 403.68,95.75 L 398.80,146.99 L 373.10,166.43 L 318.19,169.46 L 313.42,145.40 L 285.52,135.93 L 271.36,154.17 L 253.45,144.33 Z" fill="#C8D8E8" stroke="#8BAABB" stroke-width="0.8"/>
<path d="M 315.90,472.33 L 327.51,404.29 L 374.97,406.25 L 413.98,378.56 L 458.56,308.83 L 468.65,308.61 L 475.97,274.40 L 529.03,234.29 L 533.72,219.56 L 532.75,191.47 L 484.08,186.40 L 473.59,173.11 L 489.01,143.85 L 473.06,146.86 L 486.92,116.95 L 534.03,99.86 L 541.75,61.85 L 528.63,39.69 L 532.66,0.00 L 631.05,0.00 L 631.05,500.00 L 326.06,500.00 L 315.90,472.33 Z" fill="#C8D8E8" stroke="#8BAABB" stroke-width="0.8"/>
<path d="M 473.62,143.30 L 489.01,143.85 L 473.59,173.11 L 484.08,186.40 L 532.75,191.47 L 531.21,230.40 L 475.97,274.40 L 468.65,308.61 L 458.56,308.83 L 413.98,378.56 L 374.97,406.25 L 327.51,404.29 L 318.16,352.71 L 300.19,324.74 L 303.02,201.31 L 267.25,165.17 L 273.85,139.69 L 311.66,144.09 L 318.19,169.46 L 373.10,166.43 L 398.80,146.99 L 403.68,95.75 L 430.41,112.33 L 468.22,93.75 L 493.63,107.86 L 473.62,143.30 Z" fill="#4A90D9" stroke="#1a5fa8" stroke-width="1.2"/>
<path d="M 283.04,493.71 L 285.43,428.14 L 298.22,413.87 L 306.59,356.47 L 302.94,346.04 L 289.08,389.64 L 275.18,383.64 L 284.28,371.63 L 288.57,256.32 L 298.90,242.95 L 316.67,246.95 L 323.04,322.92 L 363.64,396.97 L 354.80,470.04 L 382.00,484.81 L 386.59,500.00 L 286.25,500.00 L 283.04,493.71 Z" fill="#A8C8E8" stroke="none"/>
<path d="M 277.48,105.62 L 273.18,91.27 L 246.40,117.97 L 246.28,103.92 L 265.15,88.12 L 252.40,97.15 L 258.43,86.46 L 249.42,87.35 L 248.44,70.45 L 264.38,57.63 L 260.81,47.58 L 252.40,51.58 L 282.53,2.32 L 282.13,0.00 L 295.24,0.00 L 305.91,6.02 L 317.26,57.33 L 277.48,105.62 Z M 275.52,45.79 L 271.23,87.35 L 282.70,81.77 L 283.51,43.49 L 275.52,45.79 Z M 271.23,5.08 L 273.42,0.00 L 275.81,0.00 L 271.23,5.08 Z" fill="#A8C8E8" stroke="none"/>
</svg>