<svg xmlns="http://www.w3.org/2000/svg" width="800" height="500" viewBox="0 0 800 500">
<rect width="800" height="500" fill="#A8C8E8"/>
<path d="M 27.38,161.28 L 10.38,182.96 L 89.36,200.66 L 81.29,231.98 L 67.26,232.29 L 86.29,235.71 L 62.25,236.40 L 73.93,239.85 L 61.69,243.65 L 91.81,240.62 L 111.32,245.22 L 95.01,264.09 L 107.13,272.24 L 84.35,276.89 L 140.87,300.96 L 118.24,305.71 L 124.50,331.20 L 105.49,341.06 L 129.94,350.19 L 122.18,364.96 L 105.32,367.89 L 108.83,374.53 L 146.24,394.78 L 184.99,400.66 L 217.88,411.98 L 180.32,427.61 L 64.39,429.38 L 0.00,439.74 L 0.00,158.60 L 27.38,161.28 Z" fill="#E8E0D0" stroke="#B8B0A0" stroke-width="0.5"/>
<path d="M 397.45,130.83 L 352.37,142.88 L 285.70,144.81 L 259.31,140.51 L 241.51,149.85 L 213.15,150.02 L 213.49,156.06 L 197.83,157.27 L 206.82,162.82 L 184.64,160.40 L 181.69,165.75 L 104.19,167.82 L 104.03,164.28 L 0.00,157.75 L 0.00,0.00 L 87.59,0.00 L 88.09,0.16 L 84.89,10.90 L 121.57,28.59 L 170.88,32.33 L 190.16,39.87 L 231.46,45.91 L 184.99,44.79 L 184.99,61.76 L 279.55,81.98 L 325.15,83.30 L 346.00,77.33 L 368.38,78.27 L 390.53,92.49 L 359.05,96.65 L 414.19,119.15 L 397.45,130.83 Z" fill="#C8D8E8" stroke="#8BAABB" stroke-width="0.8"/>
<path d="M 488.18,93.75 L 410.90,101.98 L 425.13,114.11 L 414.19,119.15 L 359.05,96.65 L 390.53,92.49 L 368.38,78.27 L 346.00,77.33 L 325.15,83.30 L 279.55,81.98 L 184.99,61.76 L 184.99,44.79 L 231.46,45.91 L 190.16,39.87 L 170.88,32.33 L 121.57,28.59 L 84.89,10.90 L 88.09,0.16 L 87.67,0.00 L 800.00,0.00 L 800.00,25.34 L 750.23,29.36 L 696.98,39.50 L 690.96,63.59 L 664.94,76.01 L 618.09,87.75 L 611.96,118.69 L 622.23,126.06 L 610.73,129.29 L 488.18,93.75 Z" fill="#C8D8E8" stroke="#8BAABB" stroke-width="0.8"/>
<path d="M 622.23,126.06 L 611.96,118.69 L 618.09,87.75 L 664.94,76.01 L 690.96,63.59 L 696.98,39.50 L 759.06,28.30 L 800.00,25.42 L 800.00,410.69 L 798.34,410.04 L 742.57,398.93 L 585.83,396.32 L 576.27,394.60 L 651.07,386.20 L 597.52,390.43 L 591.96,386.63 L 579.11,389.16 L 573.81,394.32 L 576.21,396.96 L 465.30,398.45 L 479.71,342.40 L 459.96,321.17 L 475.94,262.61 L 525.94,260.68 L 535.15,242.39 L 567.58,232.55 L 566.66,224.98 L 597.16,222.72 L 609.60,217.55 L 622.31,207.56 L 606.82,200.53 L 619.81,192.95 L 639.42,194.37 L 650.00,184.66 L 632.50,174.16 L 631.21,158.77 L 589.88,143.25 L 622.23,126.06 Z" fill="#C8D8E8" stroke="#8BAABB" stroke-width="0.8"/>
<path d="M 104.03,164.28 L 104.19,167.82 L 171.62,164.81 L 148.69,195.66 L 243.70,216.86 L 240.85,239.12 L 284.75,261.61 L 292.64,291.08 L 289.62,366.70 L 274.35,366.94 L 279.90,382.79 L 315.15,403.05 L 288.64,406.25 L 217.88,411.98 L 184.99,400.66 L 146.24,394.78 L 109.35,375.01 L 105.32,367.89 L 122.18,364.96 L 129.94,350.19 L 105.49,341.06 L 124.50,331.20 L 118.24,305.71 L 140.87,300.96 L 84.35,276.89 L 107.13,272.24 L 95.01,264.09 L 111.32,245.22 L 91.81,240.62 L 61.69,243.65 L 73.93,239.85 L 62.25,236.40 L 86.29,235.71 L 67.26,232.29 L 81.29,231.98 L 89.36,200.66 L 10.38,182.96 L 27.38,161.28 L 0.00,157.91 L 0.00,157.77 L 104.03,164.28 Z" fill="#C8D8E8" stroke="#8BAABB" stroke-width="0.8"/>
<path d="M 589.88,143.25 L 631.21,158.77 L 632.50,174.16 L 650.00,184.66 L 639.42,194.37 L 619.81,192.95 L 606.82,200.53 L 622.31,207.56 L 609.60,217.55 L 597.16,222.72 L 566.66,224.98 L 567.58,232.55 L 535.15,242.39 L 525.94,260.68 L 475.94,262.61 L 459.96,321.17 L 479.71,342.40 L 465.30,398.45 L 288.64,406.25 L 315.15,403.05 L 279.90,382.79 L 274.35,366.94 L 289.62,366.70 L 285.63,262.99 L 240.85,239.12 L 241.61,215.14 L 150.00,196.42 L 152.04,179.95 L 171.62,164.81 L 181.69,165.75 L 184.64,160.40 L 206.28,163.05 L 197.83,157.27 L 213.49,156.06 L 209.77,151.30 L 241.51,149.85 L 259.31,140.51 L 285.70,144.81 L 347.91,143.53 L 395.19,131.50 L 412.67,116.55 L 425.03,114.98 L 409.47,102.86 L 431.28,99.61 L 488.18,93.75 L 610.73,129.29 L 589.88,143.25 Z" fill="#4A90D9" stroke="#1a5fa8" stroke-width="1.2"/>
<path d="M 428.85,397.57 L 412.16,397.08 L 423.29,392.72 L 439.69,394.91 L 428.85,397.57 Z" fill="#A8C8E8" stroke="none"/>
<path d="M 779.75,204.53 L 764.98,207.67 L 777.88,209.03 L 781.33,219.98 L 769.53,222.91 L 763.92,211.43 L 752.65,212.84 L 757.21,209.39 L 747.09,209.02 L 761.67,207.67 L 749.39,204.87 L 758.79,204.62 L 755.00,199.50 L 730.40,195.53 L 751.64,194.85 L 752.65,181.33 L 772.22,186.25 L 783.16,183.97 L 779.75,204.53 Z" fill="#A8C8E8" stroke="none"/>
<path d="M 67.16,357.90 L 74.93,363.11 L 60.59,374.65 L 63.85,383.91 L 77.16,377.31 L 76.18,383.53 L 48.17,386.64 L 42.58,399.80 L 40.09,392.93 L 23.01,399.93 L 5.77,391.14 L 0.00,390.43 L 0.00,381.86 L 11.24,385.94 L 22.46,380.78 L 10.23,375.21 L 43.71,372.42 L 24.69,371.39 L 32.58,366.90 L 44.86,368.70 L 34.72,365.53 L 46.01,363.78 L 24.52,356.65 L 41.57,357.56 L 56.75,352.68 L 33.68,341.60 L 10.23,340.59 L 18.86,344.59 L 15.79,345.08 L 0.00,342.73 L 0.00,340.01 L 32.58,339.54 L 15.07,333.47 L 0.00,334.34 L 0.00,330.30 L 9.85,329.26 L 0.00,327.98 L 0.00,326.36 L 4.52,325.23 L 0.00,320.84 L 0.00,314.14 L 2.87,314.63 L 15.79,327.77 L 38.24,327.43 L 31.36,319.12 L 42.58,315.67 L 31.12,312.28 L 55.96,311.46 L 38.43,304.10 L 61.98,298.06 L 39.22,296.78 L 36.54,288.48 L 43.71,285.57 L 51.60,286.25 L 47.04,282.12 L 60.50,278.25 L 46.11,292.70 L 40.35,293.34 L 73.85,298.67 L 55.96,299.71 L 48.17,305.26 L 70.52,310.15 L 37.02,318.80 L 53.56,320.68 L 49.27,326.05 L 68.29,319.12 L 58.27,324.66 L 70.52,326.70 L 72.73,336.43 L 58.27,338.87 L 64.12,343.40 L 78.39,337.84 L 67.16,357.90 Z M 41.57,375.91 L 24.24,379.93 L 39.25,384.21 L 52.58,381.77 L 41.57,375.91 Z" fill="#A8C8E8" stroke="none"/>
</svg>