<svg xmlns="http://www.w3.org/2000/svg" width="800" height="500" viewBox="0 0 800 500">
<rect width="800" height="500" fill="#A8C8E8"/>
<path d="M 285.98,161.28 L 280.78,182.96 L 304.95,200.66 L 302.48,231.98 L 298.18,232.29 L 304.01,235.71 L 296.65,236.40 L 300.23,239.85 L 296.48,243.65 L 305.70,240.62 L 311.67,245.22 L 306.68,264.09 L 310.38,272.24 L 303.41,276.89 L 320.71,300.96 L 313.78,305.71 L 315.70,331.20 L 309.88,341.06 L 317.37,350.19 L 314.99,364.96 L 309.83,367.89 L 310.90,374.53 L 322.35,394.78 L 334.21,400.66 L 344.27,411.98 L 332.78,427.61 L 297.31,429.38 L 277.60,439.74 L 277.60,158.60 L 285.98,161.28 Z" fill="#E8E0D0" stroke="#B8B0A0" stroke-width="0.5"/>
<path d="M 399.22,130.83 L 385.42,142.88 L 365.02,144.81 L 356.95,140.51 L 351.50,149.85 L 342.83,150.02 L 342.93,156.06 L 338.14,157.27 L 340.89,162.82 L 334.10,160.40 L 333.20,165.75 L 309.49,167.82 L 309.43,164.28 L 277.60,157.75 L 277.60,0.00 L 304.41,0.00 L 304.56,0.16 L 303.58,10.90 L 314.80,28.59 L 329.89,32.33 L 335.79,39.87 L 348.43,45.91 L 334.21,44.79 L 334.21,61.76 L 363.14,81.98 L 377.10,83.30 L 383.48,77.33 L 390.33,78.27 L 397.10,92.49 L 387.47,96.65 L 404.34,119.15 L 399.22,130.83 Z" fill="#C8D8E8" stroke="#8BAABB" stroke-width="0.8"/>
<path d="M 426.98,93.75 L 403.34,101.98 L 407.69,114.11 L 404.34,119.15 L 387.47,96.65 L 397.10,92.49 L 390.33,78.27 L 383.48,77.33 L 377.10,83.30 L 363.14,81.98 L 334.21,61.76 L 334.21,44.79 L 348.43,45.91 L 335.79,39.87 L 329.89,32.33 L 314.80,28.59 L 303.58,10.90 L 304.56,0.16 L 304.43,0.00 L 522.40,0.00 L 522.40,25.34 L 507.17,29.36 L 490.87,39.50 L 489.03,63.59 L 481.07,76.01 L 466.73,87.75 L 464.86,118.69 L 468.00,126.06 L 464.48,129.29 L 426.98,93.75 Z" fill="#C8D8E8" stroke="#8BAABB" stroke-width="0.8"/>
<path d="M 468.00,126.06 L 464.86,118.69 L 466.73,87.75 L 481.07,76.01 L 489.03,63.59 L 490.87,39.50 L 509.87,28.30 L 522.40,25.42 L 522.40,410.69 L 521.89,410.04 L 504.82,398.93 L 456.86,396.32 L 453.94,394.60 L 476.83,386.20 L 460.44,390.43 L 458.74,386.63 L 454.81,389.16 L 453.18,394.32 L 453.92,396.96 L 419.98,398.45 L 424.39,342.40 L 418.35,321.17 L 423.24,262.61 L 438.54,260.68 L 441.35,242.39 L 451.28,232.55 L 451.00,224.98 L 460.33,222.72 L 464.14,217.55 L 468.03,207.56 L 463.29,200.53 L 467.26,192.95 L 473.26,194.37 L 476.50,184.66 L 471.14,174.16 L 470.75,158.77 L 458.10,143.25 L 468.00,126.06 Z" fill="#C8D8E8" stroke="#8BAABB" stroke-width="0.8"/>
<path d="M 309.43,164.28 L 309.49,167.82 L 330.12,164.81 L 323.10,195.66 L 352.17,216.86 L 351.30,239.12 L 364.74,261.61 L 367.15,291.08 L 366.23,366.70 L 361.55,366.94 L 363.25,382.79 L 374.04,403.05 L 365.92,406.25 L 344.27,411.98 L 334.21,400.66 L 322.35,394.78 L 311.06,375.01 L 309.83,367.89 L 314.99,364.96 L 317.37,350.19 L 309.88,341.06 L 315.70,331.20 L 313.78,305.71 L 320.71,300.96 L 303.41,276.89 L 310.38,272.24 L 306.68,264.09 L 311.67,245.22 L 305.70,240.62 L 296.48,243.65 L 300.23,239.85 L 296.65,236.40 L 304.01,235.71 L 298.18,232.29 L 302.48,231.98 L 304.95,200.66 L 280.78,182.96 L 285.98,161.28 L 277.60,157.91 L 277.60,157.77 L 309.43,164.28 Z" fill="#C8D8E8" stroke="#8BAABB" stroke-width="0.8"/>
<path d="M 458.10,143.25 L 470.75,158.77 L 471.14,174.16 L 476.50,184.66 L 473.26,194.37 L 467.26,192.95 L 463.29,200.53 L 468.03,207.56 L 464.14,217.55 L 460.33,222.72 L 451.00,224.98 L 451.28,232.55 L 441.35,242.39 L 438.54,260.68 L 423.24,262.61 L 418.35,321.17 L 424.39,342.40 L 419.98,398.45 L 365.92,406.25 L 374.04,403.05 L 363.25,382.79 L 361.55,366.94 L 366.23,366.70 L 365.00,262.99 L 351.30,239.12 L 351.53,215.14 L 323.50,196.42 L 324.13,179.95 L 330.12,164.81 L 333.20,165.75 L 334.10,160.40 L 340.72,163.05 L 338.14,157.27 L 342.93,156.06 L 341.79,151.30 L 351.50,149.85 L 356.95,140.51 L 365.02,144.81 L 384.06,143.53 L 398.53,131.50 L 403.88,116.55 L 407.66,114.98 L 402.90,102.86 L 409.57,99.61 L 426.98,93.75 L 464.48,129.29 L 458.10,143.25 Z" fill="#4A90D9" stroke="#1a5fa8" stroke-width="1.2"/>
<path d="M 408.83,397.57 L 403.72,397.08 L 407.13,392.72 L 412.15,394.91 L 408.83,397.57 Z" fill="#A8C8E8" stroke="none"/>
<path d="M 516.20,204.53 L 511.68,207.67 L 515.63,209.03 L 516.68,219.98 L 513.07,222.91 L 511.36,211.43 L 507.91,212.84 L 509.30,209.39 L 506.21,209.02 L 510.67,207.67 L 506.91,204.87 L 509.79,204.62 L 508.63,199.50 L 501.10,195.53 L 507.60,194.85 L 507.91,181.33 L 513.90,186.25 L 517.24,183.97 L 516.20,204.53 Z" fill="#A8C8E8" stroke="none"/>
<path d="M 298.15,357.90 L 300.53,363.11 L 296.14,374.65 L 297.14,383.91 L 301.21,377.31 L 300.91,383.53 L 292.34,386.64 L 290.63,399.80 L 289.87,392.93 L 284.65,399.93 L 279.37,391.14 L 277.60,390.43 L 277.60,381.86 L 281.04,385.94 L 284.48,380.78 L 280.73,375.21 L 290.98,372.42 L 285.16,371.39 L 287.57,366.90 L 291.33,368.70 L 288.23,365.53 L 291.68,363.78 L 285.11,356.65 L 290.32,357.56 L 294.97,352.68 L 287.91,341.60 L 280.73,340.59 L 283.38,344.59 L 282.44,345.08 L 277.60,342.73 L 277.60,340.01 L 287.57,339.54 L 282.22,333.47 L 277.60,334.34 L 277.60,330.30 L 280.62,329.26 L 277.60,327.98 L 277.60,326.36 L 278.99,325.23 L 277.60,320.84 L 277.60,314.14 L 278.48,314.63 L 282.44,327.77 L 289.30,327.43 L 287.20,319.12 L 290.63,315.67 L 287.13,312.28 L 294.73,311.46 L 289.36,304.10 L 296.57,298.06 L 289.61,296.78 L 288.78,288.48 L 290.98,285.57 L 293.39,286.25 L 292.00,282.12 L 296.11,278.25 L 291.71,292.70 L 289.95,293.34 L 300.20,298.67 L 294.73,299.71 L 292.34,305.26 L 299.18,310.15 L 288.93,318.80 L 293.99,320.68 L 292.68,326.05 L 298.50,319.12 L 295.43,324.66 L 299.18,326.70 L 299.86,336.43 L 295.43,338.87 L 297.22,343.40 L 301.59,337.84 L 298.15,357.90 Z M 290.32,375.91 L 285.02,379.93 L 289.61,384.21 L 293.69,381.77 L 290.32,375.91 Z" fill="#A8C8E8" stroke="none"/>
</svg>