<svg xmlns="http://www.w3.org/2000/svg" width="800" height="500" viewBox="0 0 800 500">
<rect width="800" height="500" fill="#A8C8E8"/>
<path d="M 553.37,499.77 L 562.21,491.47 L 581.16,500.00 L 553.43,500.00 L 553.37,499.77 Z M 603.15,468.38 L 617.54,494.05 L 629.49,500.00 L 592.36,500.00 L 603.15,468.38 Z" fill="#E8E0D0" stroke="#B8B0A0" stroke-width="0.5"/>
<path d="M 358.65,225.59 L 352.73,225.06 L 371.94,216.96 L 371.95,230.83 L 358.65,225.59 Z" fill="#E8E0D0" stroke="#B8B0A0" stroke-width="0.5"/>
<path d="M 361.79,226.91 L 371.95,230.83 L 360.04,230.43 L 361.79,226.91 Z" fill="#E8E0D0" stroke="#B8B0A0" stroke-width="0.5"/>
<path d="M 382.73,316.46 L 380.70,319.71 L 377.37,319.22 L 374.98,310.17 L 382.73,316.46 Z M 341.30,293.98 L 339.12,296.25 L 337.19,294.84 L 341.30,293.98 Z" fill="#E8E0D0" stroke="#B8B0A0" stroke-width="0.5"/>
<path d="M 490.70,440.94 L 493.20,420.53 L 497.27,421.50 L 490.70,440.94 Z" fill="#E8E0D0" stroke="#B8B0A0" stroke-width="0.5"/>
<path d="M 549.22,365.93 L 572.66,379.89 L 562.32,393.98 L 540.54,384.64 L 549.22,365.93 Z M 541.99,284.31 L 548.30,296.39 L 547.35,278.60 L 563.71,300.35 L 547.18,299.59 L 541.99,284.31 Z M 472.23,402.45 L 471.64,402.93 L 471.46,402.66 L 472.23,402.45 Z" fill="#E8E0D0" stroke="#B8B0A0" stroke-width="0.5"/>
<path d="M 441.99,363.58 L 441.82,375.95 L 432.22,376.02 L 434.14,360.59 L 441.99,363.58 Z M 427.04,358.36 L 396.39,330.62 L 416.20,336.28 L 427.04,358.36 Z" fill="#E8E0D0" stroke="#B8B0A0" stroke-width="0.5"/>
<path d="M 374.48,200.52 L 349.61,209.59 L 368.88,194.22 L 374.48,200.52 Z M 310.80,142.10 L 311.58,142.29 L 310.93,143.42 L 310.80,142.10 Z M 382.34,189.60 L 385.61,190.78 L 381.00,193.18 L 382.34,189.60 Z M 335.51,191.98 L 339.47,191.83 L 337.09,193.40 L 335.51,191.98 Z M 347.87,194.41 L 345.98,194.05 L 346.30,193.99 L 347.87,194.41 Z M 349.42,194.59 L 349.53,195.13 L 348.68,195.10 L 349.42,194.59 Z" fill="#E8E0D0" stroke="#B8B0A0" stroke-width="0.5"/>
<path d="M 165.19,164.69 L 162.12,165.94 L 162.12,161.25 L 164.12,156.06 L 177.41,156.06 L 165.19,164.69 Z M 169.31,122.59 L 165.14,119.69 L 178.26,119.45 L 185.63,126.57 L 169.31,122.59 Z" fill="#E8E0D0" stroke="#B8B0A0" stroke-width="0.5"/>
<path d="M 394.46,247.12 L 405.54,249.26 L 402.79,252.88 L 394.46,247.12 Z" fill="#4A90D9" stroke="#1a5fa8" stroke-width="1.2"/>
</svg>