<svg xmlns="http://www.w3.org/2000/svg" width="800" height="500" viewBox="0 0 800 500">
<rect width="800" height="500" fill="#A8C8E8"/>
<path d="M 657.88,499.77 L 672.76,491.47 L 704.62,500.00 L 657.99,500.00 L 657.88,499.77 Z M 741.59,468.38 L 765.79,494.05 L 785.89,500.00 L 723.45,500.00 L 741.59,468.38 Z" fill="#E8E0D0" stroke="#B8B0A0" stroke-width="0.5"/>
<path d="M 330.47,225.59 L 320.51,225.06 L 352.81,216.96 L 352.83,230.83 L 330.47,225.59 Z" fill="#E8E0D0" stroke="#B8B0A0" stroke-width="0.5"/>
<path d="M 335.75,226.91 L 352.83,230.83 L 332.81,230.43 L 335.75,226.91 Z" fill="#E8E0D0" stroke="#B8B0A0" stroke-width="0.5"/>
<path d="M 370.96,316.46 L 367.54,319.71 L 361.95,319.22 L 357.94,310.17 L 370.96,316.46 Z M 301.30,293.98 L 297.62,296.25 L 294.39,294.84 L 301.30,293.98 Z" fill="#E8E0D0" stroke="#B8B0A0" stroke-width="0.5"/>
<path d="M 552.51,440.94 L 556.72,420.53 L 563.55,421.50 L 552.51,440.94 Z" fill="#E8E0D0" stroke="#B8B0A0" stroke-width="0.5"/>
<path d="M 650.91,365.93 L 690.32,379.89 L 672.94,393.98 L 636.32,384.64 L 650.91,365.93 Z M 638.76,284.31 L 649.36,296.39 L 647.77,278.60 L 675.28,300.35 L 647.49,299.59 L 638.76,284.31 Z M 521.46,402.45 L 520.46,402.93 L 520.16,402.66 L 521.46,402.45 Z" fill="#E8E0D0" stroke="#B8B0A0" stroke-width="0.5"/>
<path d="M 470.60,363.58 L 470.32,375.95 L 454.18,376.02 L 457.41,360.59 L 470.60,363.58 Z M 445.46,358.36 L 393.94,330.62 L 427.23,336.28 L 445.46,358.36 Z" fill="#E8E0D0" stroke="#B8B0A0" stroke-width="0.5"/>
<path d="M 357.08,200.52 L 315.26,209.59 L 347.67,194.22 L 357.08,200.52 Z M 250.02,142.10 L 251.33,142.29 L 250.23,143.42 L 250.02,142.10 Z M 370.31,189.60 L 375.80,190.78 L 368.05,193.18 L 370.31,189.60 Z M 291.56,191.98 L 298.21,191.83 L 294.21,193.40 L 291.56,191.98 Z M 312.35,194.41 L 309.17,194.05 L 309.70,193.99 L 312.35,194.41 Z M 314.95,194.59 L 315.14,195.13 L 313.70,195.10 L 314.95,194.59 Z" fill="#E8E0D0" stroke="#B8B0A0" stroke-width="0.5"/>
<path d="M 5.17,164.69 L 0.00,165.94 L 0.00,161.25 L 3.37,156.06 L 25.71,156.06 L 5.17,164.69 Z M 12.09,122.59 L 5.08,119.69 L 27.15,119.45 L 39.54,126.57 L 12.09,122.59 Z" fill="#E8E0D0" stroke="#B8B0A0" stroke-width="0.5"/>
<path d="M 390.69,247.12 L 409.31,249.26 L 404.69,252.88 L 390.69,247.12 Z" fill="#4A90D9" stroke="#1a5fa8" stroke-width="1.2"/>
</svg>