<svg xmlns="http://www.w3.org/2000/svg" width="800" height="500" viewBox="0 0 800 500">
<rect width="800" height="500" fill="#A8C8E8"/>
<path d="M 488.72,483.07 L 499.29,491.77 L 523.29,484.76 L 531.63,433.77 L 544.66,422.35 L 534.93,345.73 L 582.49,272.51 L 609.98,291.00 L 626.36,274.12 L 649.22,273.57 L 649.22,500.00 L 474.74,500.00 L 488.72,483.07 Z" fill="#E8E0D0" stroke="#B8B0A0" stroke-width="0.5"/>
<path d="M 483.81,183.37 L 506.83,192.27 L 537.76,166.57 L 545.28,143.93 L 507.90,129.04 L 512.16,112.50 L 545.22,77.73 L 545.22,95.87 L 583.19,89.57 L 595.97,57.85 L 614.68,45.47 L 623.27,1.07 L 624.42,0.00 L 649.22,0.00 L 649.22,273.57 L 626.36,274.12 L 609.98,291.00 L 582.49,272.51 L 534.93,345.73 L 544.66,422.35 L 531.63,433.77 L 523.29,484.76 L 499.29,491.77 L 488.72,483.07 L 474.74,500.00 L 150.78,500.00 L 150.78,450.29 L 207.12,371.89 L 286.96,290.54 L 291.48,240.40 L 333.50,258.10 L 339.27,291.93 L 360.65,292.68 L 393.03,330.72 L 414.70,312.73 L 426.96,271.59 L 410.82,219.35 L 453.47,190.14 L 465.31,269.98 L 504.94,284.30 L 473.77,191.37 L 483.81,183.37 Z M 491.39,131.57 L 475.80,137.67 L 480.47,123.20 L 489.72,119.97 L 491.39,131.57 Z" fill="#C8D8E8" stroke="#8BAABB" stroke-width="0.8"/>
<path d="M 493.48,233.83 L 504.94,284.30 L 465.31,269.98 L 455.65,205.10 L 473.77,191.37 L 493.48,233.83 Z M 410.82,219.35 L 426.96,271.59 L 414.70,312.73 L 393.03,330.72 L 360.65,292.68 L 339.27,291.93 L 333.50,258.10 L 295.06,239.40 L 346.13,238.50 L 466.85,169.28 L 410.82,219.35 Z" fill="#4A90D9" stroke="#1a5fa8" stroke-width="1.2"/>
</svg>