<svg xmlns="http://www.w3.org/2000/svg" width="800" height="500" viewBox="0 0 800 500">
<rect width="800" height="500" fill="#A8C8E8"/>
<path d="M 542.39,483.07 L 559.37,491.77 L 597.89,484.76 L 611.28,433.77 L 632.18,422.35 L 616.57,345.73 L 692.90,272.51 L 737.03,291.00 L 763.31,274.12 L 800.00,273.57 L 800.00,500.00 L 519.97,500.00 L 542.39,483.07 Z" fill="#E8E0D0" stroke="#B8B0A0" stroke-width="0.5"/>
<path d="M 534.52,183.37 L 571.47,192.27 L 621.11,166.57 L 633.18,143.93 L 573.18,129.04 L 580.01,112.50 L 633.07,77.73 L 633.07,95.87 L 694.03,89.57 L 714.54,57.85 L 744.57,45.47 L 758.36,1.07 L 760.20,0.00 L 800.00,0.00 L 800.00,273.57 L 763.31,274.12 L 737.03,291.00 L 692.90,272.51 L 616.57,345.73 L 632.18,422.35 L 611.28,433.77 L 597.89,484.76 L 559.37,491.77 L 542.39,483.07 L 519.97,500.00 L 0.00,500.00 L 0.00,450.29 L 90.43,371.89 L 218.56,290.54 L 225.83,240.40 L 293.26,258.10 L 302.53,291.93 L 336.85,292.68 L 388.81,330.72 L 423.59,312.73 L 443.27,271.59 L 417.36,219.35 L 485.82,190.14 L 504.82,269.98 L 568.44,284.30 L 518.41,191.37 L 534.52,183.37 Z M 546.69,131.57 L 521.66,137.67 L 529.15,123.20 L 544.00,119.97 L 546.69,131.57 Z" fill="#C8D8E8" stroke="#8BAABB" stroke-width="0.8"/>
<path d="M 550.04,233.83 L 568.44,284.30 L 504.82,269.98 L 489.31,205.10 L 518.41,191.37 L 550.04,233.83 Z M 417.36,219.35 L 443.27,271.59 L 423.59,312.73 L 388.81,330.72 L 336.85,292.68 L 302.53,291.93 L 293.26,258.10 L 231.56,239.40 L 313.54,238.50 L 507.30,169.28 L 417.36,219.35 Z" fill="#4A90D9" stroke="#1a5fa8" stroke-width="1.2"/>
</svg>