<svg xmlns="http://www.w3.org/2000/svg" width="800" height="500" viewBox="0 0 800 500">
<rect width="800" height="500" fill="#A8C8E8"/>
<path d="M 258.19,400.35 L 257.94,397.64 L 268.09,395.34 L 270.11,390.55 L 287.66,387.05 L 291.15,380.18 L 310.74,387.92 L 340.42,387.51 L 357.80,390.11 L 368.91,405.85 L 371.96,398.02 L 384.39,385.40 L 431.24,385.32 L 438.58,392.44 L 454.32,397.96 L 465.99,409.70 L 484.66,418.53 L 500.69,423.24 L 504.93,427.94 L 532.35,432.93 L 544.80,432.71 L 594.98,450.92 L 608.74,452.68 L 614.38,456.01 L 618.96,454.81 L 638.23,460.48 L 646.26,466.69 L 645.55,469.56 L 637.39,472.80 L 633.36,480.10 L 621.95,484.15 L 620.83,495.25 L 614.21,498.99 L 614.86,500.00 L 204.52,500.00 L 193.90,490.68 L 194.73,487.04 L 201.54,483.27 L 193.47,466.54 L 197.15,460.54 L 203.27,459.12 L 194.84,450.76 L 197.99,446.78 L 208.28,441.66 L 245.36,432.56 L 258.71,408.90 L 251.34,404.68 L 258.19,400.35 Z M 754.38,495.81 L 759.58,495.12 L 765.93,484.52 L 767.49,469.80 L 773.75,472.51 L 775.88,469.95 L 784.29,469.94 L 783.28,468.78 L 787.31,467.90 L 788.03,470.33 L 795.78,471.09 L 798.91,478.97 L 800.00,480.05 L 800.00,500.00 L 748.71,500.00 L 754.38,495.81 Z" fill="#C8D8E8" stroke="#8BAABB" stroke-width="0.8"/>
<path d="M 798.91,478.97 L 795.78,471.09 L 788.03,470.33 L 787.31,467.90 L 783.28,468.78 L 784.29,469.94 L 775.88,469.95 L 773.75,472.51 L 767.49,469.80 L 767.58,465.61 L 774.60,459.74 L 773.14,457.08 L 781.34,441.02 L 778.37,436.07 L 782.03,433.74 L 765.89,427.92 L 744.32,432.94 L 733.86,431.47 L 724.96,408.90 L 725.54,400.34 L 715.81,392.08 L 701.33,391.74 L 693.41,387.02 L 689.16,387.39 L 683.52,391.46 L 680.80,390.32 L 675.03,392.16 L 628.71,386.99 L 635.62,360.47 L 631.64,359.33 L 633.90,357.58 L 630.59,356.68 L 633.88,355.18 L 628.94,354.30 L 628.58,348.15 L 621.64,341.81 L 633.90,337.44 L 623.04,331.52 L 636.79,315.65 L 639.79,315.30 L 637.07,312.13 L 645.90,296.65 L 650.05,295.74 L 639.21,286.95 L 636.31,279.55 L 627.73,278.68 L 611.79,272.55 L 608.46,259.45 L 614.10,254.47 L 614.23,250.12 L 539.59,249.54 L 536.08,230.93 L 522.31,221.95 L 535.12,221.58 L 534.22,210.86 L 527.15,202.54 L 530.31,195.56 L 526.81,191.17 L 503.26,183.29 L 470.92,185.08 L 459.72,178.18 L 459.51,175.85 L 446.83,175.29 L 436.07,171.47 L 431.84,172.31 L 423.72,168.60 L 420.15,164.08 L 410.19,165.24 L 403.32,161.82 L 390.38,159.40 L 385.47,161.51 L 370.45,160.40 L 362.17,157.47 L 362.18,154.30 L 353.96,151.11 L 351.93,152.06 L 349.76,149.41 L 341.36,148.55 L 338.57,142.79 L 336.61,141.31 L 335.05,143.27 L 333.21,142.53 L 334.39,139.54 L 328.16,136.25 L 325.38,131.54 L 328.98,124.26 L 324.67,120.23 L 322.81,112.39 L 329.58,106.21 L 329.00,97.56 L 324.94,93.91 L 317.32,97.47 L 308.94,95.00 L 273.93,99.14 L 256.65,107.40 L 246.03,108.86 L 235.32,113.19 L 229.71,118.01 L 216.51,117.10 L 206.28,124.48 L 193.07,127.64 L 186.50,128.30 L 185.32,124.85 L 161.09,123.44 L 138.13,123.07 L 124.47,126.51 L 114.44,123.51 L 110.05,125.23 L 110.16,97.81 L 114.12,94.42 L 110.74,91.05 L 114.81,87.85 L 83.06,101.16 L 46.34,101.45 L 47.69,98.41 L 41.55,90.26 L 21.03,87.38 L 4.57,87.34 L 14.52,80.84 L 14.36,77.31 L 0.00,68.75 L 0.00,20.79 L 7.32,17.95 L 3.76,8.52 L 12.69,0.00 L 800.00,0.00 L 800.00,480.05 L 798.91,478.97 Z" fill="#C8D8E8" stroke="#8BAABB" stroke-width="0.8"/>
<path d="M 164.92,290.03 L 173.97,291.54 L 170.95,293.91 L 179.31,311.11 L 177.74,312.98 L 199.95,324.53 L 189.48,331.18 L 196.10,336.02 L 194.19,339.22 L 185.82,340.43 L 190.49,345.68 L 186.93,347.87 L 198.59,352.69 L 194.83,355.48 L 195.55,359.53 L 201.24,360.61 L 209.79,368.29 L 214.36,384.14 L 219.91,387.66 L 224.07,398.17 L 222.93,404.59 L 234.01,406.45 L 251.34,404.68 L 258.71,408.90 L 244.43,433.26 L 208.28,441.66 L 197.99,446.78 L 194.84,450.76 L 203.27,459.12 L 197.15,460.54 L 193.47,466.54 L 201.54,483.27 L 194.73,487.04 L 193.90,490.68 L 204.52,500.00 L 102.84,500.00 L 110.51,487.93 L 108.40,487.06 L 110.27,479.26 L 106.00,475.82 L 109.82,468.54 L 118.10,464.36 L 112.44,444.96 L 115.90,427.45 L 120.32,422.53 L 115.96,419.99 L 110.44,421.12 L 111.74,414.66 L 113.29,410.30 L 115.59,409.12 L 118.90,410.98 L 124.38,406.56 L 128.46,382.49 L 133.93,371.82 L 129.31,361.91 L 131.11,360.03 L 127.57,357.11 L 130.72,334.34 L 126.39,328.40 L 128.15,326.89 L 121.72,308.89 L 123.89,301.13 L 120.15,298.58 L 137.55,296.52 L 145.22,290.15 L 142.49,283.29 L 156.41,278.92 L 164.92,290.03 Z" fill="#C8D8E8" stroke="#8BAABB" stroke-width="0.8"/>
<path d="M 452.91,363.14 L 453.19,350.99 L 466.49,340.37 L 474.32,329.53 L 545.92,321.30 L 584.31,321.14 L 621.41,333.95 L 621.48,343.66 L 628.58,348.15 L 628.94,354.30 L 633.98,355.41 L 630.59,356.68 L 633.90,357.58 L 631.64,359.33 L 635.62,360.47 L 628.71,386.99 L 675.03,392.16 L 680.80,390.32 L 683.52,391.46 L 689.16,387.39 L 693.41,387.02 L 701.33,391.74 L 715.81,392.08 L 725.54,400.34 L 724.96,408.90 L 733.86,431.47 L 744.32,432.94 L 765.89,427.92 L 782.03,433.74 L 778.37,436.07 L 781.34,441.02 L 773.14,457.08 L 774.60,459.74 L 767.09,466.44 L 765.93,484.52 L 759.58,495.12 L 754.38,495.81 L 748.71,500.00 L 614.86,500.00 L 614.21,498.99 L 620.83,495.25 L 621.95,484.15 L 633.36,480.10 L 637.39,472.80 L 645.55,469.56 L 646.26,466.69 L 638.23,460.48 L 618.96,454.81 L 614.38,456.01 L 608.74,452.68 L 594.98,450.92 L 544.80,432.71 L 532.35,432.93 L 504.93,427.94 L 500.69,423.24 L 484.66,418.53 L 465.99,409.70 L 452.44,396.67 L 437.55,390.77 L 452.91,363.14 Z" fill="#C8D8E8" stroke="#8BAABB" stroke-width="0.8"/>
<path d="M 142.49,283.29 L 145.22,290.15 L 137.55,296.52 L 120.15,298.58 L 79.59,283.44 L 78.94,276.40 L 74.26,273.66 L 49.52,267.39 L 36.32,260.17 L 22.34,258.16 L 0.00,251.38 L 0.00,68.75 L 14.36,77.31 L 14.52,80.84 L 4.57,87.34 L 21.03,87.38 L 41.55,90.26 L 47.69,98.41 L 46.34,101.45 L 83.06,101.16 L 114.81,87.85 L 110.74,91.05 L 114.12,94.42 L 110.16,97.81 L 110.05,125.23 L 114.44,123.51 L 124.47,126.51 L 138.13,123.07 L 153.64,123.85 L 190.26,160.52 L 185.78,163.31 L 186.90,165.45 L 178.10,169.17 L 178.51,184.16 L 173.15,188.07 L 182.87,200.48 L 176.90,201.77 L 177.72,204.92 L 167.70,209.54 L 166.35,213.71 L 162.13,214.92 L 161.57,219.18 L 171.25,225.13 L 159.69,234.43 L 169.74,247.89 L 178.05,248.24 L 184.14,251.05 L 176.17,254.02 L 175.80,259.13 L 169.84,260.51 L 159.80,268.99 L 151.79,271.32 L 150.00,273.75 L 155.90,275.66 L 156.41,278.92 L 142.49,283.29 Z M 3.76,8.52 L 7.32,17.95 L 0.00,20.79 L 0.00,0.00 L 12.69,0.00 L 3.76,8.52 Z" fill="#C8D8E8" stroke="#8BAABB" stroke-width="0.8"/>
<path d="M 155.90,275.66 L 150.00,273.75 L 151.79,271.32 L 159.80,268.99 L 169.84,260.51 L 175.80,259.13 L 176.17,254.02 L 184.14,251.05 L 178.05,248.24 L 169.74,247.89 L 159.69,234.43 L 171.25,225.13 L 161.57,219.18 L 162.13,214.92 L 166.35,213.71 L 167.70,209.54 L 177.72,204.92 L 176.90,201.77 L 182.87,200.48 L 173.15,188.07 L 178.51,184.16 L 178.10,169.17 L 186.90,165.45 L 185.78,163.31 L 190.26,160.52 L 153.64,123.85 L 185.32,124.85 L 186.50,128.30 L 193.07,127.64 L 206.28,124.48 L 216.51,117.10 L 229.71,118.01 L 235.32,113.19 L 246.03,108.86 L 256.65,107.40 L 273.93,99.14 L 308.94,95.00 L 317.32,97.47 L 324.20,93.75 L 329.00,97.56 L 329.58,106.21 L 322.81,112.39 L 324.67,120.23 L 328.98,124.26 L 325.38,131.54 L 328.16,136.25 L 334.39,139.54 L 333.21,142.53 L 335.05,143.27 L 336.61,141.31 L 338.57,142.79 L 340.87,148.26 L 349.76,149.41 L 351.93,152.06 L 353.96,151.11 L 362.18,154.30 L 362.17,157.47 L 370.45,160.40 L 385.47,161.51 L 390.38,159.40 L 403.32,161.82 L 410.19,165.24 L 420.15,164.08 L 423.72,168.60 L 431.84,172.31 L 436.07,171.47 L 446.83,175.29 L 459.51,175.85 L 459.72,178.18 L 470.92,185.08 L 503.26,183.29 L 526.81,191.17 L 530.31,195.56 L 527.15,202.54 L 534.22,210.86 L 535.12,221.58 L 522.31,221.95 L 536.08,230.93 L 539.59,249.54 L 609.10,251.11 L 613.81,249.91 L 614.10,254.47 L 608.46,259.45 L 611.79,272.55 L 627.73,278.68 L 636.31,279.55 L 639.21,286.95 L 650.00,296.26 L 645.90,296.65 L 637.07,312.13 L 639.79,315.30 L 636.79,315.65 L 623.04,331.52 L 633.90,337.44 L 621.64,341.81 L 620.96,333.68 L 583.49,321.03 L 545.92,321.30 L 474.32,329.53 L 466.49,340.37 L 453.19,350.99 L 452.91,363.14 L 437.55,390.77 L 430.66,385.25 L 384.98,385.27 L 371.96,398.02 L 368.91,405.85 L 357.80,390.11 L 340.42,387.51 L 310.74,387.92 L 291.15,380.18 L 287.66,387.05 L 270.11,390.55 L 268.09,395.34 L 257.94,397.64 L 258.19,400.35 L 251.34,404.68 L 227.67,406.25 L 222.93,404.59 L 224.07,398.17 L 219.91,387.66 L 214.36,384.14 L 209.79,368.29 L 201.24,360.61 L 195.55,359.53 L 194.83,355.48 L 198.59,352.69 L 186.93,347.87 L 190.49,345.68 L 185.82,340.43 L 194.19,339.22 L 196.10,336.02 L 189.48,331.18 L 199.95,324.53 L 177.74,312.98 L 179.31,311.11 L 170.95,293.91 L 173.97,291.54 L 164.92,290.03 L 155.90,275.66 Z" fill="#4A90D9" stroke="#1a5fa8" stroke-width="1.2"/>
<path d="M 161.60,247.61 L 156.68,248.02 L 159.48,243.56 L 149.25,242.54 L 143.62,238.20 L 141.38,239.99 L 144.36,241.32 L 135.20,239.50 L 138.58,233.03 L 146.32,236.71 L 138.39,229.32 L 144.21,227.73 L 141.03,226.75 L 147.86,226.62 L 147.77,225.29 L 159.32,231.36 L 162.16,230.88 L 166.24,235.45 L 170.86,235.58 L 176.56,238.88 L 176.48,241.44 L 186.74,242.72 L 180.97,244.85 L 183.48,248.25 L 194.67,249.26 L 194.44,251.00 L 179.09,253.76 L 182.78,254.41 L 182.92,257.49 L 173.38,254.97 L 176.04,251.35 L 173.94,249.55 L 183.75,249.14 L 176.65,245.91 L 171.60,244.71 L 172.67,248.82 L 165.24,249.55 L 161.60,247.61 Z" fill="#A8C8E8" stroke="none"/>
<path d="M 636.78,281.67 L 633.12,278.47 L 639.34,277.43 L 636.78,281.67 Z" fill="#A8C8E8" stroke="none"/>
<path d="M 493.58,280.07 L 491.53,277.58 L 490.39,279.68 L 485.16,278.63 L 492.90,276.79 L 493.58,280.07 Z" fill="#A8C8E8" stroke="none"/>
<path d="M 303.32,175.20 L 300.05,175.15 L 299.29,171.34 L 304.69,171.00 L 303.32,175.20 Z" fill="#A8C8E8" stroke="none"/>
<path d="M 320.38,173.36 L 316.87,171.82 L 316.17,166.60 L 319.72,167.26 L 320.38,173.36 Z" fill="#A8C8E8" stroke="none"/>
<path d="M 752.28,465.36 L 747.19,464.89 L 748.22,463.45 L 743.72,464.86 L 739.77,461.94 L 736.05,463.88 L 729.55,464.03 L 725.84,461.92 L 726.48,460.52 L 729.50,463.41 L 733.65,463.56 L 737.23,461.73 L 735.07,462.28 L 732.62,461.51 L 740.32,461.08 L 730.48,456.42 L 751.15,464.32 L 752.28,465.36 Z" fill="#A8C8E8" stroke="none"/>
<path d="M 786.07,449.51 L 778.69,451.48 L 784.42,454.47 L 776.83,452.77 L 775.81,456.34 L 781.29,457.87 L 777.27,458.27 L 779.51,459.69 L 776.36,460.68 L 785.19,461.65 L 776.95,462.57 L 779.25,463.70 L 773.79,462.96 L 777.79,465.76 L 765.63,466.26 L 767.21,463.72 L 764.56,462.58 L 768.89,462.73 L 772.24,459.77 L 759.68,458.25 L 763.63,456.58 L 771.17,457.86 L 772.18,454.75 L 757.33,453.63 L 773.08,453.46 L 773.77,450.82 L 766.33,449.38 L 776.23,448.83 L 776.68,446.53 L 772.60,445.68 L 776.64,445.25 L 774.16,442.12 L 778.13,442.84 L 780.07,440.71 L 776.16,437.98 L 780.82,434.05 L 782.83,448.81 L 786.07,449.51 Z" fill="#A8C8E8" stroke="none"/>
<path d="M 263.92,316.42 L 259.34,318.80 L 255.97,311.60 L 250.74,309.45 L 253.63,307.30 L 248.94,305.65 L 256.86,299.18 L 256.24,296.08 L 250.05,293.65 L 254.32,291.28 L 257.77,291.94 L 255.55,295.02 L 258.20,296.65 L 254.84,305.97 L 263.84,313.15 L 263.92,316.42 Z" fill="#A8C8E8" stroke="none"/>
</svg>