<svg xmlns="http://www.w3.org/2000/svg" width="800" height="500" viewBox="0 0 800 500">
<rect width="800" height="500" fill="#A8C8E8"/>
<path d="M 321.42,400.35 L 321.29,397.64 L 326.91,395.34 L 328.03,390.55 L 337.75,387.05 L 339.69,380.18 L 350.54,387.92 L 366.99,387.51 L 376.62,390.11 L 382.77,405.85 L 384.46,398.02 L 391.35,385.40 L 417.31,385.32 L 421.38,392.44 L 430.10,397.96 L 436.57,409.70 L 446.91,418.53 L 455.79,423.24 L 458.14,427.94 L 473.34,432.93 L 480.23,432.71 L 508.04,450.92 L 515.67,452.68 L 518.79,456.01 L 521.33,454.81 L 532.00,460.48 L 536.45,466.69 L 536.06,469.56 L 531.54,472.80 L 529.31,480.10 L 522.98,484.15 L 522.36,495.25 L 518.70,498.99 L 519.05,500.00 L 291.69,500.00 L 285.80,490.68 L 286.26,487.04 L 290.03,483.27 L 285.56,466.54 L 287.60,460.54 L 290.99,459.12 L 286.32,450.76 L 288.07,446.78 L 293.77,441.66 L 314.31,432.56 L 321.71,408.90 L 317.63,404.68 L 321.42,400.35 Z M 596.37,495.81 L 599.25,495.12 L 602.76,484.52 L 603.63,469.80 L 607.10,472.51 L 608.28,469.95 L 612.94,469.94 L 612.38,468.78 L 614.61,467.90 L 615.01,470.33 L 619.30,471.09 L 621.04,478.97 L 621.64,480.05 L 621.64,500.00 L 593.22,500.00 L 596.37,495.81 Z" fill="#C8D8E8" stroke="#8BAABB" stroke-width="0.8"/>
<path d="M 621.04,478.97 L 619.30,471.09 L 615.01,470.33 L 614.61,467.90 L 612.38,468.78 L 612.94,469.94 L 608.28,469.95 L 607.10,472.51 L 603.63,469.80 L 603.68,465.61 L 607.57,459.74 L 606.76,457.08 L 611.30,441.02 L 609.66,436.07 L 611.69,433.74 L 602.74,427.92 L 590.79,432.94 L 584.99,431.47 L 580.06,408.90 L 580.38,400.34 L 574.99,392.08 L 566.97,391.74 L 562.58,387.02 L 560.23,387.39 L 557.10,391.46 L 555.59,390.32 L 552.40,392.16 L 526.73,386.99 L 530.56,360.47 L 528.35,359.33 L 529.60,357.58 L 527.77,356.68 L 529.59,355.18 L 526.86,354.30 L 526.66,348.15 L 522.81,341.81 L 529.60,337.44 L 523.59,331.52 L 531.21,315.65 L 532.87,315.30 L 531.36,312.13 L 536.26,296.65 L 538.55,295.74 L 532.55,286.95 L 530.94,279.55 L 526.19,278.68 L 517.35,272.55 L 515.51,259.45 L 518.64,254.47 L 518.71,250.12 L 477.35,249.54 L 475.40,230.93 L 467.78,221.95 L 474.87,221.58 L 474.37,210.86 L 470.45,202.54 L 472.20,195.56 L 470.26,191.17 L 457.22,183.29 L 439.29,185.08 L 433.09,178.18 L 432.97,175.85 L 425.95,175.29 L 419.98,171.47 L 417.64,172.31 L 413.14,168.60 L 411.16,164.08 L 405.65,165.24 L 401.84,161.82 L 394.67,159.40 L 391.95,161.51 L 383.63,160.40 L 379.04,157.47 L 379.04,154.30 L 374.49,151.11 L 373.36,152.06 L 372.16,149.41 L 367.51,148.55 L 365.96,142.79 L 364.87,141.31 L 364.01,143.27 L 362.99,142.53 L 363.65,139.54 L 360.19,136.25 L 358.65,131.54 L 360.64,124.26 L 358.26,120.23 L 357.23,112.39 L 360.98,106.21 L 360.66,97.56 L 358.41,93.91 L 354.19,97.47 L 349.54,95.00 L 330.15,99.14 L 320.57,107.40 L 314.68,108.86 L 308.75,113.19 L 305.64,118.01 L 298.33,117.10 L 292.66,124.48 L 285.34,127.64 L 281.70,128.30 L 281.05,124.85 L 267.62,123.44 L 254.90,123.07 L 247.33,126.51 L 241.77,123.51 L 239.34,125.23 L 239.40,97.81 L 241.59,94.42 L 239.72,91.05 L 241.98,87.85 L 224.38,101.16 L 204.04,101.45 L 204.78,98.41 L 201.38,90.26 L 190.01,87.38 L 180.89,87.34 L 186.41,80.84 L 186.31,77.31 L 178.36,68.75 L 178.36,20.79 L 182.41,17.95 L 180.44,8.52 L 185.39,0.00 L 621.64,0.00 L 621.64,480.05 L 621.04,478.97 Z" fill="#C8D8E8" stroke="#8BAABB" stroke-width="0.8"/>
<path d="M 269.74,290.03 L 274.75,291.54 L 273.08,293.91 L 277.71,311.11 L 276.85,312.98 L 289.15,324.53 L 283.35,331.18 L 287.02,336.02 L 285.96,339.22 L 281.32,340.43 L 283.91,345.68 L 281.94,347.87 L 288.40,352.69 L 286.31,355.48 L 286.71,359.53 L 289.87,360.61 L 294.61,368.29 L 297.13,384.14 L 300.21,387.66 L 302.52,398.17 L 301.88,404.59 L 308.02,406.45 L 317.63,404.68 L 321.71,408.90 L 313.80,433.26 L 293.77,441.66 L 288.07,446.78 L 286.32,450.76 L 290.99,459.12 L 287.60,460.54 L 285.56,466.54 L 290.03,483.27 L 286.26,487.04 L 285.80,490.68 L 291.69,500.00 L 235.34,500.00 L 239.59,487.93 L 238.42,487.06 L 239.46,479.26 L 237.10,475.82 L 239.21,468.54 L 243.80,464.36 L 240.66,444.96 L 242.58,427.45 L 245.03,422.53 L 242.61,419.99 L 239.56,421.12 L 240.27,414.66 L 241.13,410.30 L 242.40,409.12 L 244.24,410.98 L 247.28,406.56 L 249.54,382.49 L 252.57,371.82 L 250.01,361.91 L 251.01,360.03 L 249.04,357.11 L 250.79,334.34 L 248.39,328.40 L 249.37,326.89 L 245.80,308.89 L 247.01,301.13 L 244.94,298.58 L 254.57,296.52 L 258.83,290.15 L 257.31,283.29 L 265.03,278.92 L 269.74,290.03 Z" fill="#C8D8E8" stroke="#8BAABB" stroke-width="0.8"/>
<path d="M 429.32,363.14 L 429.47,350.99 L 436.84,340.37 L 441.18,329.53 L 480.85,321.30 L 502.13,321.14 L 522.68,333.95 L 522.72,343.66 L 526.66,348.15 L 526.86,354.30 L 529.65,355.41 L 527.77,356.68 L 529.60,357.58 L 528.35,359.33 L 530.56,360.47 L 526.73,386.99 L 552.40,392.16 L 555.59,390.32 L 557.10,391.46 L 560.23,387.39 L 562.58,387.02 L 566.97,391.74 L 574.99,392.08 L 580.38,400.34 L 580.06,408.90 L 584.99,431.47 L 590.79,432.94 L 602.74,427.92 L 611.69,433.74 L 609.66,436.07 L 611.30,441.02 L 606.76,457.08 L 607.57,459.74 L 603.41,466.44 L 602.76,484.52 L 599.25,495.12 L 596.37,495.81 L 593.22,500.00 L 519.05,500.00 L 518.70,498.99 L 522.36,495.25 L 522.98,484.15 L 529.31,480.10 L 531.54,472.80 L 536.06,469.56 L 536.45,466.69 L 532.00,460.48 L 521.33,454.81 L 518.79,456.01 L 515.67,452.68 L 508.04,450.92 L 480.23,432.71 L 473.34,432.93 L 458.14,427.94 L 455.79,423.24 L 446.91,418.53 L 436.57,409.70 L 429.06,396.67 L 420.81,390.77 L 429.32,363.14 Z" fill="#C8D8E8" stroke="#8BAABB" stroke-width="0.8"/>
<path d="M 257.31,283.29 L 258.83,290.15 L 254.57,296.52 L 244.94,298.58 L 222.46,283.44 L 222.10,276.40 L 219.51,273.66 L 205.80,267.39 L 198.49,260.17 L 190.74,258.16 L 178.36,251.38 L 178.36,68.75 L 186.31,77.31 L 186.41,80.84 L 180.89,87.34 L 190.01,87.38 L 201.38,90.26 L 204.78,98.41 L 204.04,101.45 L 224.38,101.16 L 241.98,87.85 L 239.72,91.05 L 241.59,94.42 L 239.40,97.81 L 239.34,125.23 L 241.77,123.51 L 247.33,126.51 L 254.90,123.07 L 263.49,123.85 L 283.78,160.52 L 281.30,163.31 L 281.92,165.45 L 277.04,169.17 L 277.27,184.16 L 274.30,188.07 L 279.69,200.48 L 276.38,201.77 L 276.83,204.92 L 271.28,209.54 L 270.53,213.71 L 268.19,214.92 L 267.88,219.18 L 273.25,225.13 L 266.84,234.43 L 272.41,247.89 L 277.02,248.24 L 280.39,251.05 L 275.98,254.02 L 275.77,259.13 L 272.47,260.51 L 266.90,268.99 L 262.47,271.32 L 261.47,273.75 L 264.74,275.66 L 265.03,278.92 L 257.31,283.29 Z M 180.44,8.52 L 182.41,17.95 L 178.36,20.79 L 178.36,0.00 L 185.39,0.00 L 180.44,8.52 Z" fill="#C8D8E8" stroke="#8BAABB" stroke-width="0.8"/>
<path d="M 264.74,275.66 L 261.47,273.75 L 262.47,271.32 L 266.90,268.99 L 272.47,260.51 L 275.77,259.13 L 275.98,254.02 L 280.39,251.05 L 277.02,248.24 L 272.41,247.89 L 266.84,234.43 L 273.25,225.13 L 267.88,219.18 L 268.19,214.92 L 270.53,213.71 L 271.28,209.54 L 276.83,204.92 L 276.38,201.77 L 279.69,200.48 L 274.30,188.07 L 277.27,184.16 L 277.04,169.17 L 281.92,165.45 L 281.30,163.31 L 283.78,160.52 L 263.49,123.85 L 281.05,124.85 L 281.70,128.30 L 285.34,127.64 L 292.66,124.48 L 298.33,117.10 L 305.64,118.01 L 308.75,113.19 L 314.68,108.86 L 320.57,107.40 L 330.15,99.14 L 349.54,95.00 L 354.19,97.47 L 358.00,93.75 L 360.66,97.56 L 360.98,106.21 L 357.23,112.39 L 358.26,120.23 L 360.64,124.26 L 358.65,131.54 L 360.19,136.25 L 363.65,139.54 L 362.99,142.53 L 364.01,143.27 L 364.87,141.31 L 365.96,142.79 L 367.23,148.26 L 372.16,149.41 L 373.36,152.06 L 374.49,151.11 L 379.04,154.30 L 379.04,157.47 L 383.63,160.40 L 391.95,161.51 L 394.67,159.40 L 401.84,161.82 L 405.65,165.24 L 411.16,164.08 L 413.14,168.60 L 417.64,172.31 L 419.98,171.47 L 425.95,175.29 L 432.97,175.85 L 433.09,178.18 L 439.29,185.08 L 457.22,183.29 L 470.26,191.17 L 472.20,195.56 L 470.45,202.54 L 474.37,210.86 L 474.87,221.58 L 467.78,221.95 L 475.40,230.93 L 477.35,249.54 L 515.86,251.11 L 518.47,249.91 L 518.64,254.47 L 515.51,259.45 L 517.35,272.55 L 526.19,278.68 L 530.94,279.55 L 532.55,286.95 L 538.53,296.26 L 536.26,296.65 L 531.36,312.13 L 532.87,315.30 L 531.21,315.65 L 523.59,331.52 L 529.60,337.44 L 522.81,341.81 L 522.44,333.68 L 501.67,321.03 L 480.85,321.30 L 441.18,329.53 L 436.84,340.37 L 429.47,350.99 L 429.32,363.14 L 420.81,390.77 L 416.99,385.25 L 391.68,385.27 L 384.46,398.02 L 382.77,405.85 L 376.62,390.11 L 366.99,387.51 L 350.54,387.92 L 339.69,380.18 L 337.75,387.05 L 328.03,390.55 L 326.91,395.34 L 321.29,397.64 L 321.42,400.35 L 317.63,404.68 L 304.51,406.25 L 301.88,404.59 L 302.52,398.17 L 300.21,387.66 L 297.13,384.14 L 294.61,368.29 L 289.87,360.61 L 286.71,359.53 L 286.31,355.48 L 288.40,352.69 L 281.94,347.87 L 283.91,345.68 L 281.32,340.43 L 285.96,339.22 L 287.02,336.02 L 283.35,331.18 L 289.15,324.53 L 276.85,312.98 L 277.71,311.11 L 273.08,293.91 L 274.75,291.54 L 269.74,290.03 L 264.74,275.66 Z" fill="#4A90D9" stroke="#1a5fa8" stroke-width="1.2"/>
<path d="M 267.90,247.61 L 265.18,248.02 L 266.73,243.56 L 261.06,242.54 L 257.94,238.20 L 256.70,239.99 L 258.35,241.32 L 253.27,239.50 L 255.14,233.03 L 259.44,236.71 L 255.04,229.32 L 258.26,227.73 L 256.50,226.75 L 260.29,226.62 L 260.24,225.29 L 266.64,231.36 L 268.21,230.88 L 270.47,235.45 L 273.03,235.58 L 276.19,238.88 L 276.15,241.44 L 281.83,242.72 L 278.63,244.85 L 280.03,248.25 L 286.22,249.26 L 286.10,251.00 L 277.59,253.76 L 279.64,254.41 L 279.72,257.49 L 274.43,254.97 L 275.91,251.35 L 274.74,249.55 L 280.17,249.14 L 276.24,245.91 L 273.44,244.71 L 274.04,248.82 L 269.92,249.55 L 267.90,247.61 Z" fill="#A8C8E8" stroke="none"/>
<path d="M 531.20,281.67 L 529.17,278.47 L 532.62,277.43 L 531.20,281.67 Z" fill="#A8C8E8" stroke="none"/>
<path d="M 451.85,280.07 L 450.72,277.58 L 450.09,279.68 L 447.19,278.63 L 451.47,276.79 L 451.85,280.07 Z" fill="#A8C8E8" stroke="none"/>
<path d="M 346.43,175.20 L 344.62,175.15 L 344.20,171.34 L 347.19,171.00 L 346.43,175.20 Z" fill="#A8C8E8" stroke="none"/>
<path d="M 355.88,173.36 L 353.93,171.82 L 353.55,166.60 L 355.52,167.26 L 355.88,173.36 Z" fill="#A8C8E8" stroke="none"/>
<path d="M 595.20,465.36 L 592.38,464.89 L 592.95,463.45 L 590.46,464.86 L 588.27,461.94 L 586.21,463.88 L 582.60,464.03 L 580.55,461.92 L 580.91,460.52 L 582.58,463.41 L 584.88,463.56 L 586.86,461.73 L 585.66,462.28 L 584.31,461.51 L 588.57,461.08 L 583.12,456.42 L 594.57,464.32 L 595.20,465.36 Z" fill="#A8C8E8" stroke="none"/>
<path d="M 613.93,449.51 L 609.83,451.48 L 613.01,454.47 L 608.81,452.77 L 608.24,456.34 L 611.28,457.87 L 609.05,458.27 L 610.29,459.69 L 608.54,460.68 L 613.44,461.65 L 608.87,462.57 L 610.15,463.70 L 607.12,462.96 L 609.34,465.76 L 602.60,466.26 L 603.47,463.72 L 602.00,462.58 L 604.40,462.73 L 606.26,459.77 L 599.30,458.25 L 601.49,456.58 L 605.67,457.86 L 606.23,454.75 L 598.00,453.63 L 606.72,453.46 L 607.11,450.82 L 602.99,449.38 L 608.47,448.83 L 608.72,446.53 L 606.46,445.68 L 608.70,445.25 L 607.32,442.12 L 609.52,442.84 L 610.60,440.71 L 608.43,437.98 L 611.01,434.05 L 612.13,448.81 L 613.93,449.51 Z" fill="#A8C8E8" stroke="none"/>
<path d="M 324.60,316.42 L 322.06,318.80 L 320.19,311.60 L 317.29,309.45 L 318.90,307.30 L 316.30,305.65 L 320.69,299.18 L 320.34,296.08 L 316.91,293.65 L 319.28,291.28 L 321.19,291.94 L 319.96,295.02 L 321.43,296.65 L 319.56,305.97 L 324.55,313.15 L 324.60,316.42 Z" fill="#A8C8E8" stroke="none"/>
</svg>