<svg xmlns="http://www.w3.org/2000/svg" width="800" height="500" viewBox="0 0 800 500">
<rect width="800" height="500" fill="#A8C8E8"/>
<path d="M 261.36,279.96 L 263.07,280.47 L 262.50,281.27 L 264.08,287.10 L 263.78,287.73 L 267.99,291.64 L 266.01,293.89 L 267.26,295.53 L 266.90,296.62 L 265.31,297.02 L 266.20,298.80 L 265.53,299.55 L 267.73,301.18 L 267.02,302.12 L 267.16,303.49 L 268.24,303.86 L 269.86,306.46 L 270.72,311.82 L 271.78,313.02 L 272.56,316.58 L 272.35,318.75 L 274.45,319.38 L 277.73,318.78 L 279.13,320.21 L 276.42,328.46 L 269.57,331.30 L 267.62,333.04 L 267.02,334.38 L 268.62,337.22 L 267.46,337.70 L 266.76,339.73 L 268.29,345.39 L 267.00,346.67 L 266.85,347.90 L 269.10,351.43 L 268.90,352.61 L 266.92,353.55 L 265.15,353.21 L 262.23,359.87 L 258.63,363.45 L 257.46,369.06 L 255.62,370.66 L 256.59,374.73 L 256.09,376.86 L 257.21,377.58 L 256.21,379.29 L 254.59,379.20 L 253.30,383.80 L 253.87,384.59 L 252.77,385.50 L 252.31,385.01 L 251.73,385.80 L 251.36,388.84 L 252.33,391.01 L 254.04,391.84 L 253.73,392.68 L 252.92,392.73 L 254.69,396.19 L 254.73,398.22 L 255.94,399.33 L 255.09,401.68 L 255.86,402.71 L 257.21,402.45 L 257.59,403.36 L 256.60,406.50 L 257.27,410.20 L 255.49,410.66 L 255.41,411.65 L 253.48,414.30 L 252.94,417.67 L 251.44,418.42 L 252.61,419.20 L 252.93,424.82 L 250.42,426.48 L 250.36,427.67 L 247.84,428.23 L 247.73,429.86 L 247.05,429.86 L 246.66,431.07 L 247.12,431.97 L 246.57,432.14 L 247.48,433.19 L 246.58,434.71 L 247.26,436.10 L 246.74,438.02 L 248.12,440.94 L 248.38,443.77 L 249.44,445.05 L 248.60,446.36 L 245.07,447.67 L 244.26,453.20 L 242.63,453.20 L 243.39,455.67 L 242.86,457.19 L 241.85,457.14 L 241.78,458.08 L 242.94,458.99 L 240.75,462.17 L 241.56,463.91 L 241.15,467.35 L 241.55,468.95 L 240.98,469.64 L 242.46,473.09 L 241.00,473.83 L 240.10,473.58 L 239.37,474.72 L 240.10,476.27 L 239.26,477.16 L 239.40,480.77 L 242.40,481.95 L 242.34,482.79 L 241.17,483.01 L 240.76,483.98 L 242.63,485.25 L 242.67,485.91 L 241.81,486.50 L 243.05,487.85 L 241.51,489.30 L 241.93,490.96 L 241.49,491.46 L 246.54,491.86 L 247.22,492.84 L 245.86,494.81 L 239.72,494.71 L 239.84,495.67 L 243.60,496.28 L 245.71,498.59 L 244.23,499.72 L 244.28,500.00 L 232.62,500.00 L 233.96,499.80 L 230.65,498.44 L 229.16,498.69 L 229.15,498.05 L 230.28,497.61 L 229.55,496.36 L 231.73,496.04 L 234.76,494.52 L 235.13,492.79 L 235.77,492.49 L 235.82,491.17 L 234.80,492.46 L 233.11,490.90 L 231.22,490.43 L 231.65,489.61 L 230.39,489.66 L 231.08,488.93 L 231.74,489.13 L 231.56,488.32 L 232.55,486.61 L 234.01,486.90 L 233.83,485.87 L 233.44,486.46 L 232.21,486.16 L 233.37,485.30 L 232.44,485.13 L 231.78,484.12 L 231.99,482.96 L 233.33,482.31 L 233.15,481.22 L 233.69,480.58 L 234.71,481.07 L 234.61,479.71 L 233.69,478.44 L 233.88,476.62 L 236.22,476.89 L 233.86,474.65 L 235.79,473.88 L 237.15,475.94 L 236.80,472.23 L 234.68,472.53 L 233.51,471.70 L 235.40,470.20 L 236.57,470.15 L 238.06,469.60 L 238.06,467.46 L 237.10,469.73 L 235.68,470.07 L 234.57,468.80 L 232.98,468.28 L 231.77,469.10 L 232.18,469.99 L 231.54,470.45 L 228.64,470.84 L 226.74,470.40 L 227.23,469.51 L 228.34,469.28 L 228.80,468.50 L 227.87,469.21 L 226.45,468.94 L 225.34,464.81 L 226.11,461.74 L 226.99,460.75 L 226.56,459.80 L 227.52,457.27 L 227.12,456.14 L 229.08,455.06 L 229.70,455.60 L 229.49,453.95 L 230.90,451.73 L 231.01,449.94 L 228.42,443.74 L 229.05,440.78 L 227.47,438.17 L 227.99,435.95 L 227.36,435.15 L 227.93,433.61 L 229.07,434.30 L 231.02,433.64 L 231.51,431.03 L 231.03,430.56 L 231.62,430.25 L 231.72,429.13 L 232.10,430.07 L 232.78,429.88 L 232.75,428.53 L 233.99,426.65 L 234.20,424.17 L 235.88,422.51 L 235.39,420.88 L 238.62,417.27 L 240.49,411.17 L 240.26,409.46 L 243.32,404.65 L 242.26,401.13 L 243.76,400.33 L 245.01,395.40 L 243.96,393.95 L 244.28,391.42 L 242.63,381.21 L 243.22,378.22 L 243.96,378.57 L 245.08,377.70 L 244.97,376.22 L 245.98,375.32 L 245.78,371.55 L 244.39,369.97 L 244.12,367.79 L 246.71,363.51 L 247.87,357.59 L 248.85,357.23 L 248.48,353.54 L 249.82,352.22 L 249.55,351.17 L 251.05,346.97 L 250.65,346.68 L 251.00,344.04 L 250.19,342.87 L 250.92,340.41 L 252.48,338.99 L 251.41,332.42 L 252.07,326.49 L 252.90,324.83 L 252.08,323.97 L 251.03,324.35 L 251.28,322.16 L 251.57,320.68 L 252.01,320.28 L 252.64,320.91 L 253.67,319.42 L 254.45,311.27 L 255.48,307.65 L 254.61,304.30 L 254.95,303.66 L 254.28,302.67 L 254.88,294.96 L 254.06,292.95 L 254.39,292.44 L 253.17,286.34 L 253.58,283.72 L 252.87,282.85 L 256.17,282.16 L 257.62,280.00 L 257.11,277.68 L 259.74,276.20 L 261.36,279.96 Z M 230.89,498.86 L 232.51,500.00 L 228.80,500.00 L 230.89,498.86 Z M 172.25,406.20 L 172.53,405.81 L 172.82,406.46 L 172.25,406.20 Z M 187.93,405.47 L 186.12,405.58 L 186.95,404.93 L 187.93,405.47 Z M 179.14,347.06 L 179.14,347.09 L 178.99,347.11 L 179.14,347.06 Z M 177.59,346.44 L 177.45,346.44 L 177.54,346.37 L 177.59,346.44 Z M 227.52,500.00 L 227.44,500.00 L 227.47,499.95 L 227.52,500.00 Z M 225.12,500.00 L 224.30,500.00 L 224.38,499.84 L 225.12,500.00 Z M 221.42,499.88 L 221.38,500.00 L 220.88,500.00 L 221.42,499.88 Z M 225.49,499.90 L 224.70,499.60 L 225.34,499.39 L 226.24,499.62 L 225.49,499.90 Z M 222.47,499.57 L 221.94,499.66 L 220.80,498.81 L 222.47,499.57 Z M 226.54,499.13 L 224.78,499.28 L 223.58,498.47 L 224.33,498.09 L 224.99,498.62 L 226.24,498.58 L 226.54,499.13 Z M 222.35,498.87 L 221.61,498.31 L 221.87,497.69 L 222.75,498.12 L 222.35,498.87 Z M 226.68,498.73 L 226.10,498.37 L 224.96,498.42 L 222.94,497.33 L 223.53,496.66 L 225.92,496.41 L 227.09,497.37 L 226.68,498.73 Z M 223.61,495.37 L 225.55,496.05 L 222.11,496.54 L 223.61,495.37 Z M 224.32,495.28 L 223.42,494.90 L 224.91,494.63 L 225.18,494.93 L 224.32,495.28 Z M 226.01,494.60 L 226.72,495.89 L 225.79,495.88 L 225.42,494.76 L 226.01,494.60 Z M 216.87,495.68 L 215.93,495.82 L 215.57,494.91 L 216.40,494.82 L 216.87,495.68 Z M 227.77,495.09 L 226.83,494.87 L 226.88,494.49 L 227.95,494.41 L 227.77,495.09 Z M 221.82,495.31 L 220.78,494.39 L 221.56,494.19 L 222.23,494.90 L 221.82,495.31 Z M 221.24,494.02 L 219.68,493.81 L 220.04,493.42 L 221.24,494.02 Z M 225.84,494.00 L 222.87,494.88 L 221.67,493.93 L 222.80,493.27 L 225.45,493.48 L 225.84,494.00 Z M 219.07,493.77 L 218.64,493.84 L 218.47,493.10 L 219.07,493.77 Z M 228.05,494.10 L 226.80,494.38 L 226.27,493.08 L 227.36,492.80 L 228.05,494.10 Z M 223.85,492.82 L 222.01,492.77 L 222.59,492.44 L 223.85,492.82 Z M 223.76,492.11 L 223.58,491.89 L 225.10,492.22 L 225.29,492.79 L 223.85,492.60 L 224.60,492.43 L 223.76,492.11 Z M 220.81,492.66 L 220.68,492.07 L 222.86,491.75 L 223.15,492.18 L 221.61,492.49 L 220.81,492.66 Z M 225.91,492.17 L 225.57,491.62 L 225.75,491.40 L 226.51,491.83 L 225.91,492.17 Z M 230.77,493.56 L 230.47,492.78 L 231.62,492.81 L 230.77,492.54 L 230.73,491.94 L 232.36,492.32 L 231.94,491.66 L 232.63,491.33 L 233.22,491.94 L 232.79,492.54 L 233.64,491.94 L 234.81,492.67 L 234.09,493.54 L 232.79,493.26 L 233.90,494.13 L 230.65,495.97 L 229.48,495.03 L 231.03,494.85 L 229.59,494.76 L 229.01,493.59 L 229.67,493.15 L 230.77,493.56 Z M 226.51,491.50 L 227.56,491.25 L 226.98,491.55 L 227.37,491.92 L 226.51,491.50 Z M 225.45,491.28 L 225.34,492.05 L 224.01,491.06 L 225.45,491.28 Z M 230.71,490.90 L 231.27,491.39 L 231.27,491.44 L 230.60,491.55 L 230.71,490.90 Z M 225.40,491.07 L 225.07,490.76 L 226.39,490.57 L 225.40,491.07 Z M 222.52,490.51 L 222.63,490.82 L 221.70,490.72 L 222.52,490.51 Z M 227.40,490.37 L 227.47,490.56 L 227.04,490.87 L 227.40,490.37 Z M 224.38,489.63 L 225.70,490.36 L 224.81,490.50 L 224.74,491.06 L 224.03,490.26 L 224.38,489.63 Z M 222.26,489.96 L 221.88,489.72 L 222.10,489.61 L 222.73,489.63 L 222.26,489.96 Z M 226.07,489.96 L 224.75,489.58 L 225.25,489.28 L 226.07,489.96 Z M 222.72,488.53 L 223.26,488.59 L 222.56,488.70 L 222.72,488.53 Z M 227.68,488.48 L 227.73,489.43 L 226.98,488.81 L 226.86,488.07 L 227.68,488.48 Z M 230.44,487.92 L 231.40,487.49 L 231.47,488.57 L 230.44,487.92 Z M 225.93,486.54 L 226.72,487.55 L 225.43,487.16 L 225.07,487.38 L 225.61,487.71 L 224.91,487.93 L 223.59,487.44 L 225.93,486.54 Z M 219.15,484.68 L 220.55,485.45 L 218.99,485.85 L 218.53,485.52 L 219.15,484.68 Z M 228.35,479.78 L 229.81,480.35 L 229.15,480.38 L 227.90,479.92 L 228.35,479.78 Z M 227.85,477.53 L 226.78,477.21 L 227.82,476.97 L 227.85,477.53 Z M 227.89,476.04 L 227.62,475.41 L 228.43,475.45 L 229.44,476.63 L 227.89,476.04 Z M 231.54,474.93 L 231.14,474.41 L 231.51,474.65 L 231.96,474.40 L 231.54,474.93 Z M 235.61,473.25 L 236.06,472.83 L 236.45,473.00 L 236.19,473.55 L 235.61,473.25 Z M 221.72,482.33 L 223.10,480.61 L 223.86,477.97 L 223.41,475.88 L 223.64,474.35 L 224.46,473.46 L 224.81,471.52 L 224.38,470.86 L 225.52,470.68 L 225.69,471.16 L 224.83,471.18 L 226.67,471.63 L 227.28,470.89 L 228.26,470.85 L 228.74,471.19 L 228.15,471.98 L 229.10,472.77 L 228.74,473.35 L 229.70,474.65 L 227.47,475.25 L 227.30,476.04 L 227.90,476.52 L 226.79,476.69 L 226.72,476.08 L 226.24,476.54 L 226.36,477.29 L 228.82,478.98 L 228.69,479.45 L 227.15,479.37 L 228.74,481.45 L 226.62,481.37 L 227.45,483.34 L 226.06,483.82 L 221.72,482.33 Z M 231.98,470.40 L 232.12,470.31 L 232.62,471.17 L 231.96,471.16 L 231.98,470.40 Z M 223.09,483.74 L 222.88,483.85 L 222.67,483.78 L 222.91,483.24 L 223.09,483.74 Z M 227.55,482.00 L 227.51,482.39 L 227.06,482.16 L 227.55,482.00 Z M 233.18,478.21 L 233.27,478.72 L 232.98,478.89 L 232.57,477.99 L 233.18,478.21 Z M 230.77,477.48 L 230.79,477.63 L 229.87,477.46 L 230.77,477.48 Z M 225.56,443.66 L 225.24,442.88 L 225.42,442.97 L 225.56,443.66 Z M 228.58,432.16 L 229.18,432.84 L 228.61,433.00 L 228.58,432.16 Z" fill="#E8E0D0" stroke="#B8B0A0" stroke-width="0.5"/>
<path d="M 375.40,117.31 L 377.26,116.05 L 378.86,113.09 L 378.54,110.89 L 380.16,108.26 L 380.22,106.92 L 378.31,104.89 L 377.02,102.37 L 376.40,96.67 L 377.76,94.08 L 379.71,92.39 L 380.69,89.92 L 388.75,92.64 L 392.69,96.72 L 393.54,96.44 L 393.07,98.10 L 393.91,96.89 L 395.52,98.35 L 396.09,100.26 L 395.35,101.23 L 396.20,100.76 L 396.42,98.65 L 397.25,98.99 L 398.44,102.68 L 392.95,110.70 L 392.53,112.74 L 390.35,116.94 L 388.09,118.54 L 385.86,118.36 L 386.13,117.91 L 385.27,117.12 L 383.82,117.95 L 382.01,116.97 L 379.32,119.01 L 375.40,117.31 Z M 326.83,20.52 L 326.85,19.98 L 325.29,20.05 L 325.00,19.65 L 325.86,19.26 L 324.59,18.45 L 324.12,17.01 L 326.76,17.56 L 326.31,18.45 L 327.30,20.09 L 326.83,20.52 Z M 323.69,8.78 L 323.25,8.31 L 323.74,7.69 L 324.32,8.31 L 323.69,8.78 Z M 325.29,5.35 L 325.11,5.32 L 325.52,5.01 L 325.29,5.35 Z M 321.43,7.50 L 320.43,8.17 L 319.63,5.27 L 320.10,4.84 L 321.54,5.48 L 321.43,7.50 Z M 322.23,3.66 L 322.99,4.97 L 324.56,5.74 L 322.24,6.15 L 321.60,5.48 L 322.23,3.66 Z M 321.04,8.89 L 320.95,8.99 L 320.87,8.94 L 321.04,8.89 Z M 321.30,8.87 L 321.20,8.87 L 321.32,8.72 L 321.30,8.87 Z" fill="#E8E0D0" stroke="#B8B0A0" stroke-width="0.5"/>
<path d="M 149.99,48.42 L 150.48,49.37 L 150.15,48.96 L 150.04,50.06 L 150.52,49.68 L 153.41,54.80 L 156.64,58.46 L 158.39,59.53 L 157.70,59.94 L 156.18,59.03 L 156.18,59.90 L 155.44,60.19 L 155.46,63.37 L 157.17,64.47 L 155.59,65.80 L 156.17,68.13 L 154.59,69.23 L 155.43,69.87 L 155.87,71.04 L 155.79,71.58 L 155.24,70.08 L 153.82,68.90 L 154.27,68.28 L 153.66,66.75 L 151.25,66.15 L 152.76,67.52 L 152.76,68.84 L 150.52,68.29 L 149.27,67.11 L 150.52,65.54 L 150.00,65.59 L 150.52,64.83 L 150.06,63.49 L 145.61,60.12 L 142.44,59.21 L 141.53,56.10 L 140.62,56.10 L 141.11,55.94 L 137.22,53.57 L 138.02,55.55 L 140.51,57.20 L 138.55,59.40 L 137.14,57.37 L 134.31,56.64 L 132.91,53.98 L 133.18,51.71 L 134.56,50.86 L 134.03,50.94 L 134.18,49.46 L 132.11,48.64 L 133.94,48.40 L 133.67,47.64 L 134.28,47.50 L 134.82,46.14 L 139.99,48.29 L 141.97,47.26 L 143.82,48.21 L 144.47,47.87 L 145.74,49.57 L 147.16,49.51 L 147.87,50.12 L 149.84,49.37 L 149.58,48.33 L 149.99,48.42 Z M 138.71,55.16 L 137.92,54.89 L 138.60,54.95 L 138.71,55.16 Z M 123.02,91.76 L 123.43,91.42 L 123.42,91.61 L 123.02,91.76 Z M 148.13,66.15 L 148.24,66.14 L 148.17,66.26 L 148.13,66.15 Z" fill="#E8E0D0" stroke="#B8B0A0" stroke-width="0.5"/>
<path d="M 127.84,41.74 L 125.70,38.23 L 119.58,33.34 L 119.58,31.25 L 120.88,32.49 L 121.68,32.45 L 120.99,32.30 L 121.49,31.95 L 123.66,31.96 L 124.53,31.11 L 124.62,29.88 L 126.23,29.41 L 125.75,25.83 L 129.06,25.74 L 130.95,23.44 L 133.70,25.20 L 133.81,24.07 L 138.14,21.21 L 138.33,19.27 L 139.23,19.07 L 139.04,18.48 L 140.21,17.25 L 141.08,17.21 L 141.80,18.38 L 143.48,18.83 L 144.41,18.06 L 145.15,18.36 L 145.19,17.71 L 145.92,18.06 L 146.36,17.43 L 147.81,17.67 L 150.21,16.80 L 151.04,15.69 L 153.98,15.80 L 152.71,17.35 L 152.49,16.47 L 152.12,16.72 L 151.69,17.35 L 152.67,17.61 L 153.54,21.00 L 151.64,24.14 L 150.65,28.47 L 151.25,36.47 L 150.04,36.72 L 150.04,35.29 L 150.68,34.72 L 150.61,33.30 L 149.98,33.51 L 150.42,34.75 L 148.98,35.54 L 149.74,37.57 L 150.20,37.02 L 149.78,39.91 L 149.57,38.73 L 149.33,38.44 L 148.95,38.39 L 149.45,38.81 L 148.75,39.33 L 149.09,40.24 L 148.50,40.84 L 149.03,41.38 L 149.56,41.01 L 149.93,42.86 L 149.08,43.36 L 148.25,45.63 L 149.84,49.37 L 147.80,50.11 L 147.16,49.51 L 145.74,49.57 L 144.47,47.87 L 143.82,48.21 L 141.97,47.26 L 139.99,48.29 L 134.82,46.14 L 134.01,47.18 L 127.84,41.74 Z M 149.75,48.42 L 149.66,48.32 L 149.70,48.31 L 149.75,48.42 Z M 149.28,40.28 L 149.50,39.92 L 149.40,40.85 L 149.28,40.28 Z M 154.56,38.48 L 154.74,38.28 L 154.83,38.36 L 154.56,38.48 Z M 157.07,20.83 L 156.93,20.89 L 156.48,20.86 L 157.07,20.83 Z" fill="#E8E0D0" stroke="#B8B0A0" stroke-width="0.5"/>
<path d="M 269.88,38.87 L 269.50,39.62 L 269.12,38.19 L 268.23,37.75 L 268.54,37.33 L 269.83,37.99 L 269.88,38.87 Z" fill="#E8E0D0" stroke="#B8B0A0" stroke-width="0.5"/>
<path d="M 677.77,36.29 L 673.53,36.17 L 669.60,37.15 L 669.04,35.85 L 670.76,34.74 L 671.12,35.28 L 672.38,35.40 L 675.03,34.74 L 676.50,35.35 L 677.36,35.07 L 678.02,35.51 L 679.06,34.72 L 678.87,33.54 L 679.86,33.41 L 679.98,33.10 L 678.76,33.45 L 678.81,34.61 L 678.05,35.33 L 677.06,34.80 L 675.93,35.00 L 675.09,33.97 L 674.66,34.69 L 672.38,35.29 L 671.36,34.14 L 671.31,34.80 L 670.33,34.45 L 670.67,33.71 L 670.62,33.43 L 670.23,34.75 L 669.40,35.23 L 669.22,34.38 L 669.83,33.91 L 669.07,34.08 L 669.02,33.29 L 669.76,30.55 L 676.55,30.54 L 676.67,29.13 L 680.42,28.79 L 680.42,34.93 L 677.77,36.29 Z M 679.96,25.62 L 679.00,27.13 L 670.90,27.10 L 671.31,25.87 L 670.61,26.56 L 670.37,25.71 L 670.94,25.03 L 671.48,25.36 L 671.48,23.77 L 669.82,25.64 L 669.46,24.18 L 670.78,23.88 L 670.67,23.44 L 672.43,22.45 L 671.62,22.24 L 670.18,23.77 L 669.66,23.66 L 670.19,22.99 L 669.61,23.27 L 669.24,25.08 L 669.15,23.31 L 667.83,20.66 L 665.75,18.26 L 664.25,17.88 L 664.08,18.55 L 663.33,17.72 L 666.15,16.57 L 668.44,13.91 L 671.11,9.50 L 671.64,6.37 L 672.97,3.68 L 674.23,3.32 L 677.80,3.91 L 679.42,3.11 L 680.42,3.11 L 680.42,25.55 L 679.96,25.62 Z" fill="#E8E0D0" stroke="#B8B0A0" stroke-width="0.5"/>
<path d="M 120.21,9.48 L 121.25,8.97 L 124.58,9.69 L 128.79,9.60 L 132.21,8.27 L 132.32,7.74 L 131.63,7.52 L 134.00,7.96 L 135.67,8.81 L 139.46,7.86 L 141.97,8.76 L 142.10,9.57 L 143.71,9.40 L 142.24,8.87 L 144.94,9.28 L 149.32,12.56 L 147.20,11.47 L 146.42,11.36 L 146.53,11.91 L 146.21,11.36 L 145.57,11.36 L 147.71,13.70 L 148.61,13.61 L 147.02,12.50 L 148.67,13.20 L 149.09,14.16 L 150.15,13.41 L 150.89,13.50 L 150.85,14.09 L 150.39,13.88 L 150.17,14.37 L 151.25,14.05 L 150.88,13.37 L 150.25,13.34 L 149.53,12.56 L 151.82,13.64 L 152.78,15.23 L 153.98,15.80 L 151.04,15.69 L 150.21,16.80 L 147.81,17.67 L 146.36,17.43 L 145.92,18.06 L 145.19,17.71 L 145.15,18.36 L 144.41,18.06 L 143.48,18.83 L 141.80,18.38 L 141.08,17.21 L 140.21,17.25 L 139.04,18.48 L 139.23,19.07 L 138.33,19.27 L 138.14,21.21 L 133.81,24.07 L 133.70,25.20 L 132.24,24.49 L 131.54,23.35 L 129.06,25.74 L 125.75,25.83 L 126.23,29.41 L 124.62,29.88 L 124.53,31.11 L 123.66,31.96 L 121.49,31.95 L 121.57,31.01 L 120.68,30.91 L 119.95,29.50 L 120.82,28.51 L 119.58,28.74 L 119.58,8.61 L 120.21,9.48 Z M 124.87,7.02 L 123.95,7.10 L 124.36,6.83 L 124.87,7.02 Z M 128.28,4.59 L 129.12,4.33 L 130.29,4.34 L 126.99,5.48 L 128.28,4.59 Z M 132.85,3.62 L 133.12,3.78 L 132.11,4.54 L 132.85,3.62 Z" fill="#E8E0D0" stroke="#B8B0A0" stroke-width="0.5"/>
<path d="M 192.89,128.57 L 195.00,129.46 L 196.12,129.19 L 196.57,130.21 L 197.95,130.73 L 198.50,132.84 L 204.96,134.22 L 206.18,133.91 L 206.11,132.73 L 207.01,132.25 L 208.93,133.03 L 210.76,135.14 L 214.91,136.80 L 212.12,136.98 L 215.09,140.30 L 214.81,141.93 L 215.35,143.72 L 213.96,143.28 L 212.66,148.26 L 208.64,153.00 L 204.03,156.56 L 194.84,159.90 L 192.29,162.89 L 192.55,163.80 L 192.06,164.04 L 191.09,163.10 L 190.56,166.32 L 188.52,170.61 L 188.59,172.41 L 186.84,173.55 L 186.83,174.75 L 185.56,176.09 L 183.70,175.69 L 182.55,174.48 L 182.11,172.25 L 180.94,171.51 L 179.59,171.83 L 177.20,170.26 L 175.31,171.81 L 174.46,171.30 L 175.61,169.58 L 174.64,169.70 L 174.47,168.11 L 175.76,168.12 L 177.00,167.11 L 176.22,163.40 L 175.64,162.93 L 178.65,161.56 L 180.41,156.73 L 179.31,153.26 L 180.11,152.01 L 179.13,152.90 L 179.09,156.32 L 177.79,156.59 L 178.83,155.85 L 178.02,155.77 L 178.68,154.43 L 178.19,154.58 L 176.93,156.67 L 176.12,156.88 L 176.30,157.82 L 173.19,155.30 L 171.19,154.52 L 170.42,153.31 L 171.53,153.60 L 172.56,152.32 L 171.64,148.67 L 172.51,146.71 L 171.22,144.32 L 171.95,143.53 L 173.86,143.25 L 174.80,140.80 L 175.35,141.22 L 175.97,141.25 L 175.25,140.96 L 174.43,139.00 L 177.89,135.23 L 178.36,133.02 L 177.45,130.38 L 177.70,129.41 L 180.96,127.91 L 180.85,128.56 L 181.28,129.18 L 181.14,128.05 L 184.77,127.14 L 185.61,126.19 L 186.12,126.98 L 186.60,125.99 L 186.82,126.04 L 187.05,125.62 L 187.51,125.71 L 186.97,125.38 L 187.38,124.46 L 192.89,128.57 Z M 179.01,157.84 L 177.27,160.15 L 176.22,160.13 L 176.65,157.78 L 177.82,157.28 L 179.01,157.84 Z M 186.83,125.76 L 186.39,126.04 L 186.09,125.64 L 186.82,124.94 L 186.83,125.76 Z M 180.05,156.31 L 179.24,157.17 L 179.21,156.99 L 179.69,155.86 L 180.05,156.31 Z" fill="#E8E0D0" stroke="#B8B0A0" stroke-width="0.5"/>
<path d="M 351.96,377.75 L 352.21,377.81 L 351.90,377.83 L 351.96,377.75 Z" fill="#E8E0D0" stroke="#B8B0A0" stroke-width="0.5"/>
<path d="M 680.24,46.67 L 679.71,45.53 L 680.42,44.85 L 680.42,46.70 L 680.24,46.67 Z M 680.36,44.79 L 680.28,44.11 L 679.09,44.96 L 679.35,43.86 L 680.42,43.47 L 680.42,44.74 L 680.36,44.79 Z M 679.62,43.36 L 679.71,42.27 L 679.33,42.58 L 678.74,41.95 L 679.62,40.73 L 680.42,40.78 L 680.42,42.58 L 679.62,43.36 Z M 679.71,40.12 L 676.57,41.83 L 677.32,40.95 L 676.84,40.73 L 675.58,41.94 L 676.30,40.03 L 677.43,40.07 L 677.48,39.69 L 676.31,39.58 L 674.29,40.73 L 672.50,39.11 L 674.77,37.00 L 671.70,38.43 L 669.60,37.15 L 673.53,36.17 L 677.77,36.29 L 680.42,34.93 L 680.42,40.30 L 679.71,40.12 Z M 676.21,47.23 L 675.43,47.44 L 675.83,47.10 L 675.67,46.22 L 676.21,47.23 Z M 675.46,46.89 L 675.12,47.27 L 674.81,46.51 L 675.46,46.89 Z M 674.23,47.59 L 673.33,46.98 L 674.48,46.16 L 674.88,46.88 L 674.23,47.59 Z M 676.61,45.48 L 676.26,46.22 L 676.06,45.83 L 676.61,45.48 Z M 677.91,45.95 L 677.02,46.44 L 677.17,45.61 L 677.91,45.40 L 677.91,45.95 Z M 673.30,46.08 L 673.07,45.88 L 673.65,45.34 L 673.91,46.05 L 673.30,46.08 Z M 677.75,44.30 L 677.31,44.22 L 677.64,43.80 L 677.75,44.30 Z M 672.91,44.19 L 673.97,43.69 L 673.60,44.30 L 672.91,44.19 Z M 672.00,43.91 L 671.95,43.58 L 673.33,43.15 L 673.12,43.85 L 672.00,43.91 Z M 675.73,42.98 L 676.05,44.19 L 674.98,44.46 L 674.61,44.08 L 675.73,42.98 Z M 679.36,43.29 L 678.13,43.59 L 678.92,42.82 L 679.36,43.29 Z M 674.97,40.62 L 675.37,40.71 L 674.94,41.77 L 673.97,40.84 L 674.97,40.62 Z" fill="#E8E0D0" stroke="#B8B0A0" stroke-width="0.5"/>
<path d="M 160.10,60.38 L 160.03,62.19 L 161.43,62.25 L 160.73,62.53 L 160.87,63.81 L 162.00,64.40 L 164.50,64.32 L 163.27,62.81 L 163.67,62.41 L 166.34,65.34 L 168.16,65.59 L 171.90,64.72 L 173.79,63.20 L 177.28,62.19 L 178.65,60.85 L 178.84,61.41 L 179.29,60.61 L 179.90,61.05 L 181.16,58.97 L 186.28,59.25 L 185.60,60.18 L 190.30,60.57 L 193.53,61.95 L 194.94,63.41 L 194.90,62.96 L 197.35,66.13 L 198.68,66.53 L 197.79,68.06 L 200.32,72.34 L 199.25,72.64 L 198.63,73.66 L 198.94,74.20 L 197.08,75.64 L 195.65,74.21 L 195.90,75.62 L 194.45,77.93 L 191.55,74.33 L 190.43,71.39 L 191.86,70.92 L 191.44,69.82 L 192.27,69.66 L 192.79,68.61 L 193.80,69.96 L 194.70,69.98 L 195.54,70.93 L 195.86,70.81 L 194.74,69.91 L 193.64,69.53 L 193.13,67.75 L 192.77,67.36 L 193.09,68.57 L 192.60,68.12 L 191.95,68.78 L 192.24,68.46 L 192.08,67.52 L 192.08,68.35 L 191.82,67.85 L 190.97,68.46 L 190.65,67.47 L 191.01,68.70 L 190.59,69.00 L 189.05,65.65 L 188.76,66.19 L 185.41,63.94 L 185.42,63.34 L 185.22,63.18 L 185.51,63.10 L 185.65,62.85 L 185.84,62.96 L 186.23,62.68 L 185.65,62.80 L 185.13,63.18 L 185.15,63.89 L 182.73,63.74 L 182.08,64.66 L 181.65,64.17 L 181.67,64.71 L 180.21,65.32 L 180.25,66.27 L 179.64,66.74 L 180.64,66.66 L 180.04,67.21 L 174.64,70.09 L 174.53,71.20 L 177.88,74.76 L 178.15,76.21 L 177.24,76.47 L 176.28,76.36 L 175.90,76.47 L 174.89,77.89 L 171.60,78.22 L 169.85,73.63 L 170.36,73.28 L 170.11,72.57 L 169.84,73.12 L 169.03,72.95 L 168.97,72.71 L 168.83,72.68 L 169.24,73.55 L 168.61,73.83 L 168.83,74.99 L 167.23,74.49 L 166.06,73.78 L 165.79,71.97 L 165.02,71.61 L 164.73,70.32 L 164.46,70.87 L 163.29,69.99 L 161.86,69.99 L 161.54,70.59 L 161.05,70.10 L 161.32,69.11 L 156.48,69.49 L 155.79,71.58 L 155.43,69.87 L 154.59,69.23 L 156.17,68.13 L 155.59,65.80 L 157.17,64.47 L 155.46,63.37 L 155.44,60.19 L 156.18,59.90 L 156.18,59.03 L 157.85,59.96 L 158.30,59.23 L 160.10,60.38 Z M 164.57,77.57 L 164.36,78.06 L 164.18,77.69 L 164.57,77.57 Z M 170.27,75.26 L 168.57,75.94 L 169.17,75.61 L 170.27,75.26 Z M 165.96,77.18 L 164.73,77.07 L 163.73,75.94 L 164.62,74.71 L 165.96,77.18 Z M 160.85,70.48 L 160.31,70.14 L 160.63,69.99 L 160.85,70.48 Z M 159.76,70.15 L 159.41,69.77 L 160.04,69.50 L 159.76,70.15 Z M 185.54,69.77 L 185.10,70.18 L 185.05,69.56 L 185.54,69.77 Z M 160.09,70.87 L 160.27,70.81 L 160.29,71.06 L 160.09,70.87 Z M 185.04,68.61 L 185.13,68.42 L 185.41,68.52 L 185.04,68.61 Z M 162.18,61.53 L 161.68,61.88 L 161.11,61.05 L 162.18,61.53 Z M 160.69,60.33 L 160.85,61.20 L 160.58,60.84 L 160.21,60.54 L 160.69,60.33 Z M 187.34,69.11 L 186.80,70.10 L 186.25,68.30 L 186.89,68.19 L 187.34,69.11 Z M 181.75,65.42 L 181.83,65.64 L 181.63,65.58 L 181.75,65.42 Z M 166.27,63.02 L 166.37,63.16 L 166.08,63.13 L 166.27,63.02 Z M 162.35,62.39 L 162.68,62.71 L 162.37,62.68 L 162.35,62.39 Z" fill="#E8E0D0" stroke="#B8B0A0" stroke-width="0.5"/>
<path d="M 679.42,3.11 L 677.80,3.91 L 673.13,3.58 L 671.70,6.21 L 671.05,9.30 L 671.15,5.10 L 672.98,0.00 L 680.42,0.00 L 680.42,3.11 L 679.42,3.11 Z" fill="#E8E0D0" stroke="#B8B0A0" stroke-width="0.5"/>
<path d="M 668.81,29.09 L 669.99,27.83 L 672.00,30.13 L 671.84,29.59 L 673.25,29.20 L 673.49,29.75 L 673.63,29.79 L 674.08,29.59 L 673.49,29.13 L 674.01,28.37 L 678.20,28.16 L 678.80,27.72 L 680.38,28.27 L 680.42,28.25 L 680.42,28.79 L 676.67,29.13 L 676.55,30.54 L 670.03,30.48 L 669.41,31.28 L 668.81,29.09 Z M 678.70,27.57 L 674.16,28.16 L 672.22,29.10 L 671.21,28.92 L 670.90,27.10 L 679.00,27.13 L 679.96,25.62 L 680.42,25.54 L 680.42,27.79 L 678.70,27.57 Z" fill="#E8E0D0" stroke="#B8B0A0" stroke-width="0.5"/>
<path d="M 265.73,39.39 L 263.88,38.81 L 262.41,36.71 L 265.73,39.39 Z" fill="#E8E0D0" stroke="#B8B0A0" stroke-width="0.5"/>
<path d="M 256.52,35.65 L 256.81,36.47 L 255.49,35.51 L 255.46,34.80 L 256.52,35.65 Z" fill="#E8E0D0" stroke="#B8B0A0" stroke-width="0.5"/>
<path d="M 325.86,54.73 L 318.61,55.38 L 322.24,53.57 L 322.03,50.78 L 320.64,50.17 L 326.55,49.13 L 325.81,50.23 L 325.86,54.73 Z M 329.45,45.69 L 327.01,46.51 L 328.30,45.45 L 329.47,45.01 L 329.45,45.69 Z" fill="#E8E0D0" stroke="#B8B0A0" stroke-width="0.5"/>
<path d="M 320.92,39.46 L 319.69,39.75 L 320.61,37.92 L 321.07,38.09 L 320.92,39.46 Z M 321.97,36.28 L 322.50,35.57 L 322.55,35.70 L 321.97,36.28 Z" fill="#E8E0D0" stroke="#B8B0A0" stroke-width="0.5"/>
<path d="M 323.94,32.00 L 323.67,31.89 L 324.26,31.39 L 323.94,32.00 Z M 323.66,30.07 L 324.37,28.75 L 324.86,29.33 L 324.53,30.63 L 323.66,30.07 Z M 322.51,35.07 L 322.29,35.12 L 322.29,34.95 L 322.51,35.07 Z M 323.28,34.21 L 323.08,34.23 L 323.22,33.99 L 323.28,34.21 Z M 324.40,32.73 L 324.47,32.75 L 324.37,32.95 L 324.40,32.73 Z" fill="#E8E0D0" stroke="#B8B0A0" stroke-width="0.5"/>
<path d="M 337.40,31.34 L 336.53,31.05 L 336.35,29.21 L 338.04,30.52 L 337.40,31.34 Z" fill="#E8E0D0" stroke="#B8B0A0" stroke-width="0.5"/>
<path d="M 326.66,25.13 L 326.17,26.08 L 325.22,24.75 L 326.34,22.89 L 326.66,25.13 Z" fill="#E8E0D0" stroke="#B8B0A0" stroke-width="0.5"/>
<path d="M 322.03,11.49 L 322.18,10.70 L 323.44,11.14 L 323.82,11.99 L 323.83,13.49 L 323.01,14.16 L 322.03,11.49 Z" fill="#E8E0D0" stroke="#B8B0A0" stroke-width="0.5"/>
<path d="M 316.36,2.25 L 316.49,1.20 L 316.70,1.25 L 316.36,2.25 Z" fill="#E8E0D0" stroke="#B8B0A0" stroke-width="0.5"/>
<path d="M 315.40,0.28 L 315.37,0.30 L 315.36,0.29 L 315.40,0.28 Z" fill="#E8E0D0" stroke="#B8B0A0" stroke-width="0.5"/>
<path d="M 607.83,17.04 L 607.56,17.35 L 607.24,16.85 L 607.83,17.04 Z M 610.21,17.25 L 609.05,16.38 L 610.30,15.42 L 610.83,16.44 L 610.21,17.25 Z M 616.77,16.51 L 615.35,16.03 L 614.75,15.09 L 614.85,13.28 L 615.44,13.27 L 617.35,15.59 L 616.77,16.51 Z M 620.03,14.40 L 619.38,14.80 L 618.95,13.72 L 619.91,13.28 L 620.03,14.40 Z M 622.41,7.88 L 621.18,7.35 L 621.56,5.81 L 623.05,6.06 L 623.37,6.86 L 622.41,7.88 Z M 612.88,3.26 L 611.02,3.06 L 610.61,3.90 L 609.79,2.64 L 612.88,3.26 Z M 620.97,1.23 L 621.50,0.88 L 621.82,2.22 L 621.45,3.01 L 620.97,1.23 Z M 606.22,1.25 L 604.64,1.15 L 605.54,0.37 L 606.22,1.25 Z M 603.05,0.42 L 602.87,0.00 L 603.75,0.00 L 603.05,0.42 Z M 608.71,2.80 L 608.67,2.92 L 608.47,2.88 L 608.71,2.80 Z M 607.83,1.71 L 607.82,1.82 L 607.39,1.89 L 607.13,1.34 L 607.83,1.71 Z" fill="#E8E0D0" stroke="#B8B0A0" stroke-width="0.5"/>
<path d="M 178.38,9.40 L 178.39,9.41 L 178.38,9.42 L 178.38,9.40 Z" fill="#E8E0D0" stroke="#B8B0A0" stroke-width="0.5"/>
<path d="M 188.84,8.86 L 188.87,8.83 L 188.87,8.87 L 188.84,8.86 Z" fill="#E8E0D0" stroke="#B8B0A0" stroke-width="0.5"/>
<path d="M 279.03,317.32 L 278.98,316.40 L 280.90,315.62 L 281.29,314.00 L 284.61,312.81 L 285.27,310.49 L 288.98,313.11 L 294.61,312.97 L 297.90,313.85 L 300.00,319.18 L 300.58,316.52 L 302.94,312.25 L 311.81,312.23 L 313.20,314.64 L 316.19,316.51 L 318.40,320.48 L 321.93,323.47 L 324.97,325.07 L 325.78,326.66 L 330.97,328.35 L 333.33,328.27 L 342.84,334.44 L 345.44,335.04 L 346.51,336.16 L 347.38,335.76 L 351.03,337.68 L 352.55,339.78 L 352.42,340.75 L 350.87,341.85 L 350.11,344.32 L 347.95,345.69 L 347.73,349.45 L 346.48,350.72 L 346.67,351.24 L 345.43,351.75 L 344.05,353.50 L 344.43,354.78 L 348.95,354.33 L 355.49,356.15 L 357.63,355.60 L 358.66,356.31 L 360.41,355.89 L 361.55,356.95 L 363.68,354.64 L 365.48,354.93 L 366.56,355.80 L 367.82,354.88 L 367.77,353.59 L 369.20,352.09 L 371.34,351.88 L 373.04,349.64 L 374.02,349.41 L 375.23,345.82 L 375.52,340.83 L 376.71,341.75 L 377.11,340.88 L 378.70,340.88 L 378.51,340.48 L 379.28,340.19 L 379.41,341.01 L 380.88,341.27 L 381.47,343.94 L 382.81,346.32 L 381.93,349.96 L 382.41,351.48 L 381.50,353.51 L 380.46,353.48 L 379.47,354.53 L 378.81,354.20 L 377.95,355.68 L 373.93,356.47 L 373.09,358.15 L 371.79,358.48 L 372.19,359.06 L 369.98,359.58 L 368.99,360.89 L 366.42,362.12 L 367.26,362.88 L 367.03,363.47 L 365.38,363.29 L 365.41,363.99 L 362.43,366.51 L 361.33,368.83 L 359.86,369.56 L 359.30,370.91 L 356.15,374.30 L 354.62,374.80 L 354.36,376.13 L 351.96,377.75 L 351.82,378.92 L 349.98,380.70 L 350.70,383.24 L 349.87,383.73 L 349.86,386.22 L 348.54,388.10 L 349.28,389.09 L 348.74,390.68 L 347.55,391.45 L 347.67,393.53 L 348.37,394.56 L 347.41,396.23 L 347.98,400.72 L 345.78,401.14 L 345.92,402.71 L 345.07,403.92 L 344.86,405.97 L 346.18,409.84 L 344.69,410.64 L 345.59,411.26 L 345.44,412.51 L 346.67,413.59 L 352.83,416.44 L 354.95,418.33 L 355.89,419.87 L 354.15,422.17 L 354.04,424.25 L 354.96,425.71 L 357.36,427.43 L 358.90,426.89 L 359.43,429.16 L 359.32,431.78 L 353.10,439.03 L 352.55,441.34 L 346.55,444.32 L 335.17,447.09 L 321.80,448.48 L 317.85,447.88 L 316.84,446.87 L 315.11,446.77 L 315.16,447.58 L 315.93,448.02 L 315.28,449.20 L 316.06,450.43 L 315.53,450.42 L 317.87,451.31 L 317.62,451.68 L 315.86,450.87 L 317.63,452.00 L 317.17,454.96 L 315.69,454.88 L 315.27,457.93 L 314.25,458.86 L 316.01,460.81 L 315.50,461.76 L 316.65,461.41 L 315.44,463.39 L 312.40,464.74 L 309.52,465.65 L 304.24,465.68 L 302.05,464.40 L 295.45,462.99 L 296.75,462.78 L 296.35,462.19 L 294.91,462.19 L 295.47,462.56 L 293.74,463.14 L 293.62,465.85 L 294.83,468.60 L 294.19,472.02 L 294.73,473.16 L 295.87,473.97 L 298.80,474.46 L 297.85,475.80 L 299.07,476.00 L 301.73,475.84 L 302.00,474.58 L 299.89,474.32 L 304.33,473.04 L 305.65,474.82 L 305.48,478.44 L 301.69,479.50 L 300.58,478.63 L 300.96,477.51 L 299.13,476.48 L 295.18,477.66 L 294.79,478.70 L 300.18,480.28 L 295.20,482.35 L 292.20,485.74 L 292.65,488.15 L 293.31,488.72 L 292.37,490.04 L 293.08,491.37 L 292.19,492.13 L 292.60,492.58 L 289.77,493.79 L 289.12,494.93 L 290.72,495.91 L 289.40,496.95 L 285.44,496.39 L 283.14,497.16 L 283.32,497.80 L 282.44,497.57 L 282.93,498.18 L 279.78,498.51 L 278.15,500.00 L 244.28,500.00 L 244.23,499.72 L 245.71,498.59 L 243.60,496.28 L 239.84,495.67 L 239.72,494.71 L 245.86,494.81 L 247.22,492.84 L 246.54,491.86 L 241.49,491.46 L 241.93,490.96 L 241.51,489.30 L 243.05,487.85 L 241.81,486.50 L 242.67,485.91 L 242.63,485.25 L 240.76,483.98 L 241.17,483.01 L 242.34,482.79 L 242.40,481.95 L 239.40,480.77 L 239.26,477.16 L 240.10,476.27 L 239.37,474.72 L 240.10,473.58 L 241.00,473.83 L 242.46,473.09 L 240.98,469.64 L 241.55,468.95 L 241.15,467.35 L 241.56,463.91 L 240.75,462.17 L 242.94,458.99 L 241.78,458.08 L 241.85,457.14 L 242.86,457.19 L 243.39,455.67 L 242.63,453.20 L 244.26,453.20 L 245.07,447.67 L 248.60,446.36 L 249.44,445.05 L 248.38,443.77 L 248.12,440.94 L 246.74,438.02 L 247.26,436.10 L 246.58,434.71 L 247.48,433.19 L 246.57,432.14 L 247.12,431.97 L 246.66,431.07 L 247.05,429.86 L 247.73,429.86 L 247.84,428.23 L 250.36,427.67 L 250.42,426.48 L 252.93,424.82 L 252.61,419.20 L 251.44,418.42 L 252.94,417.67 L 253.48,414.30 L 255.41,411.65 L 255.49,410.66 L 257.27,410.20 L 256.60,406.50 L 257.59,403.36 L 257.21,402.45 L 255.86,402.71 L 255.09,401.68 L 255.94,399.33 L 254.73,398.22 L 254.69,396.19 L 252.92,392.73 L 253.73,392.68 L 254.04,391.84 L 252.33,391.01 L 251.36,388.84 L 251.52,386.73 L 252.21,385.07 L 252.77,385.50 L 253.87,384.59 L 253.30,383.80 L 254.59,379.20 L 256.21,379.29 L 257.21,377.58 L 256.09,376.86 L 256.59,374.73 L 255.62,370.66 L 257.46,369.06 L 258.63,363.45 L 262.23,359.87 L 265.15,353.21 L 266.92,353.55 L 268.90,352.61 L 269.10,351.43 L 266.85,347.90 L 267.00,346.67 L 268.29,345.39 L 266.76,339.73 L 267.46,337.70 L 268.62,337.22 L 267.02,334.38 L 267.62,333.04 L 269.57,331.30 L 276.60,328.22 L 279.13,320.21 L 277.73,318.78 L 279.03,317.32 Z M 319.08,450.30 L 317.30,449.09 L 318.69,449.61 L 319.08,450.30 Z M 317.04,448.55 L 317.75,448.43 L 318.31,448.76 L 317.04,448.55 Z M 317.84,460.04 L 317.22,460.91 L 316.22,460.48 L 316.85,459.39 L 317.84,460.04 Z M 317.95,457.80 L 317.90,459.15 L 317.03,457.85 L 317.95,457.80 Z" fill="#C8D8E8" stroke="#8BAABB" stroke-width="0.8"/>
<path d="M 259.65,275.09 L 258.53,274.45 L 258.87,273.62 L 260.39,272.83 L 262.29,269.96 L 263.42,269.50 L 263.49,267.76 L 265.00,266.76 L 263.84,265.81 L 262.27,265.69 L 260.36,261.13 L 262.55,257.98 L 260.72,255.97 L 260.83,254.52 L 261.63,254.12 L 261.88,252.70 L 263.78,251.14 L 263.63,250.07 L 264.76,249.64 L 262.92,245.43 L 263.93,244.11 L 263.85,239.03 L 265.52,237.77 L 265.31,237.05 L 266.16,236.11 L 259.22,223.69 L 265.22,224.03 L 265.44,225.20 L 266.69,224.97 L 269.19,223.90 L 271.13,221.40 L 273.63,221.71 L 274.69,220.08 L 276.72,218.61 L 278.74,218.12 L 282.01,215.32 L 288.64,213.92 L 290.23,214.75 L 291.53,213.50 L 292.44,214.79 L 292.55,217.72 L 291.27,219.81 L 291.62,222.46 L 292.44,223.83 L 291.76,226.29 L 292.28,227.89 L 293.46,229.00 L 293.24,230.01 L 293.59,230.26 L 293.88,229.60 L 294.26,230.10 L 294.69,231.96 L 296.38,232.34 L 296.79,233.24 L 297.17,232.92 L 298.73,234.00 L 298.73,235.07 L 300.30,236.06 L 303.14,236.44 L 304.07,235.73 L 306.52,236.55 L 307.83,237.70 L 309.71,237.31 L 310.39,238.84 L 311.93,240.10 L 312.73,239.81 L 314.77,241.11 L 317.17,241.30 L 317.21,242.09 L 319.33,244.42 L 325.46,243.81 L 329.92,246.48 L 330.58,247.97 L 329.98,250.33 L 331.33,253.15 L 331.50,256.78 L 329.07,256.91 L 331.68,259.95 L 332.34,266.25 L 345.51,266.78 L 346.41,266.37 L 346.46,267.92 L 345.39,269.60 L 346.02,274.04 L 349.04,276.12 L 350.67,276.41 L 351.22,278.92 L 353.26,282.07 L 352.49,282.20 L 350.81,287.44 L 351.33,288.52 L 350.76,288.63 L 348.15,294.01 L 350.21,296.01 L 347.89,297.49 L 347.76,294.74 L 340.66,290.46 L 333.54,290.55 L 319.98,293.33 L 318.49,297.01 L 315.97,300.60 L 315.92,304.72 L 313.01,314.07 L 311.70,312.20 L 303.05,312.21 L 300.58,316.52 L 300.00,319.18 L 297.90,313.85 L 294.61,312.97 L 288.98,313.11 L 285.27,310.49 L 284.61,312.81 L 281.29,314.00 L 280.90,315.62 L 278.98,316.40 L 279.03,317.32 L 277.73,318.78 L 273.24,319.31 L 272.35,318.75 L 272.56,316.58 L 271.78,313.02 L 270.72,311.82 L 269.86,306.46 L 268.24,303.86 L 267.16,303.49 L 267.02,302.12 L 267.73,301.18 L 265.53,299.55 L 266.20,298.80 L 265.31,297.02 L 266.90,296.62 L 267.26,295.53 L 266.01,293.89 L 267.99,291.64 L 263.78,287.73 L 264.08,287.10 L 262.50,281.27 L 263.07,280.47 L 261.36,279.96 L 259.65,275.09 Z" fill="#C8D8E8" stroke="#8BAABB" stroke-width="0.8"/>
<path d="M 187.13,123.46 L 185.89,122.82 L 187.25,121.35 L 189.38,121.67 L 189.58,120.61 L 189.10,119.70 L 188.65,120.06 L 188.36,118.40 L 189.36,116.45 L 189.48,116.87 L 191.13,114.73 L 191.84,115.58 L 191.90,114.61 L 192.20,115.62 L 192.79,115.98 L 193.16,115.79 L 193.07,114.71 L 194.21,114.52 L 194.56,115.28 L 195.06,115.39 L 195.68,115.18 L 195.75,114.90 L 195.27,113.80 L 196.23,113.58 L 195.96,113.19 L 196.64,112.96 L 196.07,112.57 L 196.77,112.46 L 196.66,111.95 L 195.98,112.06 L 197.86,110.09 L 197.38,109.94 L 198.03,109.06 L 199.11,109.35 L 199.00,107.81 L 199.53,108.14 L 199.08,107.52 L 200.66,106.48 L 200.02,105.96 L 200.61,106.04 L 200.42,105.39 L 201.34,104.58 L 199.62,105.18 L 199.25,104.15 L 199.96,104.08 L 200.11,103.36 L 199.53,103.04 L 198.89,104.47 L 198.20,103.67 L 198.27,102.46 L 199.26,102.27 L 199.75,101.78 L 198.58,101.12 L 199.15,100.13 L 199.05,97.87 L 199.58,98.26 L 198.88,97.06 L 198.62,92.66 L 197.24,91.86 L 199.67,90.01 L 197.82,86.37 L 197.83,85.52 L 198.36,85.96 L 198.62,85.47 L 198.90,83.34 L 198.39,82.32 L 197.41,82.56 L 196.98,81.25 L 196.18,81.08 L 196.42,79.74 L 194.63,77.98 L 195.21,76.05 L 195.90,75.62 L 195.65,74.21 L 197.08,75.64 L 198.94,74.20 L 198.63,73.66 L 199.25,72.64 L 200.32,72.34 L 197.79,68.06 L 198.21,66.82 L 198.85,66.50 L 199.45,67.89 L 201.88,69.72 L 202.03,70.82 L 202.89,70.76 L 202.30,72.42 L 203.47,72.47 L 203.33,68.52 L 201.99,67.49 L 206.90,64.26 L 208.04,61.87 L 209.78,60.32 L 210.81,60.71 L 212.29,60.22 L 212.64,58.87 L 211.64,58.23 L 212.99,53.91 L 211.65,54.76 L 213.11,53.28 L 213.05,52.70 L 212.62,52.64 L 213.21,51.93 L 213.28,52.35 L 213.32,51.82 L 213.08,51.22 L 215.18,50.17 L 215.04,49.46 L 218.32,46.95 L 222.57,47.89 L 221.06,47.99 L 221.14,49.02 L 220.24,48.88 L 220.23,49.57 L 220.50,49.18 L 220.66,49.73 L 221.00,49.71 L 220.92,49.07 L 221.81,49.83 L 223.69,45.07 L 230.37,45.47 L 234.65,42.15 L 238.37,40.73 L 239.33,37.76 L 240.64,37.77 L 240.29,38.26 L 240.89,38.48 L 241.41,37.76 L 240.72,37.55 L 242.49,36.53 L 242.79,36.89 L 243.27,36.39 L 242.42,36.45 L 242.93,36.06 L 246.14,37.07 L 247.29,39.06 L 247.10,39.69 L 244.99,41.32 L 240.48,42.62 L 238.33,46.58 L 236.53,46.86 L 235.11,48.98 L 233.30,52.37 L 232.76,57.34 L 229.61,62.46 L 231.00,62.46 L 232.57,61.48 L 232.99,63.01 L 234.27,62.93 L 235.16,66.64 L 237.35,69.01 L 237.80,71.02 L 236.59,72.36 L 236.69,75.99 L 238.81,76.81 L 239.65,79.17 L 240.46,79.77 L 243.36,79.45 L 246.74,80.17 L 250.48,79.07 L 253.46,80.36 L 254.94,80.09 L 260.26,86.90 L 261.13,86.63 L 261.79,87.23 L 263.23,86.13 L 266.54,86.79 L 271.64,86.13 L 272.81,85.37 L 275.74,86.29 L 275.42,86.96 L 275.95,88.05 L 274.38,89.61 L 274.44,91.55 L 272.75,93.17 L 273.08,95.38 L 272.44,99.63 L 274.33,105.81 L 275.35,106.16 L 276.83,108.84 L 272.72,112.83 L 272.59,113.60 L 274.37,113.41 L 274.76,114.39 L 277.76,116.76 L 277.55,117.79 L 280.14,125.13 L 280.20,126.15 L 278.57,126.53 L 278.32,122.25 L 275.94,118.82 L 272.02,122.00 L 269.98,119.81 L 269.29,121.29 L 270.20,122.16 L 259.50,121.75 L 257.06,122.27 L 257.09,127.46 L 261.46,127.63 L 262.52,128.99 L 262.64,130.74 L 261.40,131.00 L 259.99,130.08 L 255.52,131.24 L 255.41,137.23 L 258.89,140.15 L 258.82,141.82 L 260.60,145.42 L 256.21,169.89 L 253.52,166.62 L 252.13,167.02 L 250.24,166.25 L 255.55,157.70 L 255.12,156.98 L 254.77,157.33 L 251.45,155.22 L 250.91,155.58 L 248.92,153.66 L 244.91,154.98 L 244.63,154.01 L 244.31,154.49 L 243.99,153.76 L 242.38,153.03 L 240.81,154.57 L 239.04,155.26 L 237.47,155.58 L 235.41,154.65 L 234.88,155.35 L 234.71,154.91 L 233.15,155.38 L 231.11,153.68 L 231.78,152.56 L 231.14,150.28 L 229.92,150.29 L 228.52,149.36 L 228.78,147.79 L 227.70,146.00 L 225.99,145.64 L 224.28,143.89 L 222.81,143.74 L 221.63,140.29 L 219.89,138.67 L 218.74,138.45 L 218.47,137.31 L 217.63,137.62 L 216.01,136.29 L 214.91,136.80 L 212.25,135.31 L 210.98,135.27 L 208.93,133.03 L 207.01,132.25 L 206.11,132.73 L 206.18,133.91 L 204.96,134.22 L 198.50,132.84 L 197.95,130.73 L 196.57,130.21 L 196.12,129.19 L 195.00,129.46 L 192.89,128.57 L 187.38,124.46 L 187.13,123.46 Z M 193.07,115.60 L 192.77,115.88 L 192.15,114.46 L 193.07,115.60 Z M 194.98,114.81 L 195.49,115.17 L 194.69,115.17 L 194.58,114.35 L 194.98,114.81 Z M 195.69,115.09 L 194.73,114.12 L 195.01,114.12 L 195.69,115.09 Z M 199.47,101.83 L 197.32,102.26 L 198.26,101.17 L 199.47,101.83 Z M 164.96,35.30 L 165.16,35.08 L 164.95,35.79 L 164.96,35.30 Z M 167.52,29.07 L 167.69,28.81 L 167.83,29.01 L 167.52,29.07 Z M 165.85,104.00 L 166.00,103.97 L 166.02,104.09 L 165.85,104.00 Z M 192.52,112.24 L 192.11,112.44 L 192.23,112.35 L 192.52,112.24 Z M 212.64,52.81 L 212.96,53.03 L 212.53,53.28 L 212.64,52.81 Z M 177.59,27.18 L 177.59,27.18 L 177.58,27.17 L 177.59,27.18 Z" fill="#C8D8E8" stroke="#8BAABB" stroke-width="0.8"/>
<path d="M 358.39,120.94 L 356.80,120.58 L 356.07,119.75 L 354.41,120.11 L 352.53,122.26 L 349.24,122.67 L 348.91,123.79 L 346.63,123.12 L 345.13,124.42 L 345.09,125.79 L 343.70,125.68 L 342.64,126.45 L 341.62,125.45 L 339.34,124.83 L 337.23,122.30 L 336.07,121.87 L 336.34,121.21 L 335.46,121.03 L 335.60,117.81 L 334.34,117.04 L 333.59,114.36 L 333.83,111.57 L 334.97,109.06 L 334.66,107.25 L 336.03,106.38 L 337.26,104.39 L 335.62,102.28 L 336.02,100.85 L 332.35,99.67 L 333.34,98.09 L 333.73,95.43 L 332.57,93.94 L 327.85,94.27 L 322.74,88.32 L 324.88,86.38 L 324.18,83.38 L 324.82,82.14 L 326.34,82.02 L 326.54,81.35 L 328.15,81.73 L 330.66,80.36 L 331.23,79.43 L 330.70,78.49 L 329.34,78.86 L 328.71,78.34 L 328.92,77.22 L 327.92,75.66 L 329.51,73.35 L 330.68,73.27 L 334.92,69.89 L 333.43,67.39 L 334.85,68.90 L 337.99,70.81 L 335.44,69.01 L 335.61,68.62 L 340.54,71.75 L 345.32,76.86 L 345.35,79.78 L 343.84,84.87 L 344.54,84.54 L 345.54,81.30 L 346.70,80.73 L 349.08,81.54 L 352.24,84.46 L 352.78,85.75 L 353.08,85.16 L 353.71,85.37 L 355.59,87.20 L 355.63,90.77 L 354.28,93.35 L 355.41,94.54 L 354.64,94.52 L 354.63,95.73 L 351.55,95.84 L 350.28,96.51 L 349.70,97.52 L 350.38,98.69 L 348.60,102.69 L 350.44,106.61 L 351.88,107.77 L 351.80,108.79 L 353.19,109.20 L 354.49,108.75 L 355.32,113.15 L 356.19,113.72 L 359.18,119.69 L 360.91,120.39 L 358.39,120.94 Z M 346.53,80.15 L 345.54,80.80 L 345.65,80.32 L 346.53,80.15 Z" fill="#C8D8E8" stroke="#8BAABB" stroke-width="0.8"/>
<path d="M 315.92,304.72 L 315.97,300.60 L 318.49,297.01 L 319.98,293.33 L 333.54,290.55 L 340.81,290.49 L 347.84,294.83 L 347.86,298.12 L 349.20,299.64 L 349.27,301.72 L 350.23,302.10 L 349.58,302.53 L 350.21,302.83 L 349.78,303.43 L 350.54,303.81 L 349.23,312.79 L 358.00,314.54 L 359.10,313.92 L 359.61,314.30 L 360.68,312.93 L 361.49,312.80 L 362.99,314.40 L 365.73,314.51 L 367.57,317.31 L 367.46,320.21 L 369.15,327.85 L 371.13,328.35 L 375.22,326.65 L 378.28,328.62 L 377.58,329.41 L 378.15,331.09 L 376.59,336.52 L 376.87,337.42 L 375.45,339.69 L 375.23,345.82 L 374.02,349.41 L 373.04,349.64 L 371.34,351.88 L 369.20,352.09 L 367.77,353.59 L 367.82,354.88 L 366.56,355.80 L 365.48,354.93 L 363.68,354.64 L 361.55,356.95 L 360.41,355.89 L 358.66,356.31 L 357.63,355.60 L 355.49,356.15 L 348.95,354.33 L 344.43,354.78 L 344.05,353.50 L 345.43,351.75 L 346.67,351.24 L 346.48,350.72 L 347.73,349.45 L 347.95,345.69 L 350.11,344.32 L 350.87,341.85 L 352.42,340.75 L 352.55,339.78 L 351.03,337.68 L 347.38,335.76 L 346.51,336.16 L 345.44,335.04 L 342.84,334.44 L 333.33,328.27 L 330.97,328.35 L 325.78,326.66 L 324.97,325.07 L 321.93,323.47 L 318.40,320.48 L 315.83,316.07 L 313.01,314.07 L 315.92,304.72 Z" fill="#C8D8E8" stroke="#8BAABB" stroke-width="0.8"/>
<path d="M 257.11,277.68 L 257.62,280.00 L 256.17,282.16 L 252.87,282.85 L 245.19,277.73 L 245.07,275.34 L 244.18,274.42 L 239.49,272.29 L 236.99,269.85 L 234.34,269.17 L 229.38,266.47 L 227.20,266.09 L 224.52,263.81 L 216.74,259.81 L 213.18,255.46 L 209.89,253.31 L 208.19,249.90 L 207.09,249.44 L 207.08,247.31 L 206.29,247.37 L 206.54,246.51 L 207.38,246.91 L 207.94,244.41 L 207.63,242.96 L 203.14,236.16 L 203.21,235.13 L 200.22,232.66 L 199.95,229.25 L 196.56,226.41 L 196.97,225.39 L 196.38,223.49 L 192.40,216.95 L 192.04,214.41 L 190.95,212.98 L 190.60,210.95 L 189.73,210.21 L 189.96,209.57 L 189.52,210.00 L 189.07,209.46 L 189.47,209.07 L 187.88,206.25 L 187.92,204.91 L 186.52,203.53 L 186.16,201.78 L 182.43,197.76 L 181.29,194.16 L 178.25,189.95 L 169.51,184.29 L 169.36,183.08 L 169.94,182.31 L 170.99,182.82 L 171.64,181.21 L 171.05,179.72 L 168.98,177.67 L 169.26,176.58 L 170.03,176.18 L 167.90,173.43 L 167.97,171.81 L 168.47,170.01 L 172.02,165.90 L 174.12,164.03 L 176.12,163.31 L 177.00,167.11 L 175.76,168.12 L 174.47,168.11 L 174.64,169.70 L 175.61,169.58 L 174.53,171.47 L 175.31,171.81 L 177.20,170.26 L 179.59,171.83 L 180.94,171.51 L 182.11,172.25 L 182.55,174.48 L 183.70,175.69 L 185.56,176.09 L 186.83,174.75 L 186.84,173.55 L 188.59,172.41 L 188.52,170.61 L 190.56,166.32 L 191.09,163.10 L 192.06,164.04 L 192.55,163.80 L 192.29,162.89 L 194.84,159.90 L 204.49,156.28 L 208.64,153.00 L 212.66,148.26 L 213.91,143.35 L 215.35,143.66 L 214.81,141.93 L 215.09,140.30 L 212.16,136.84 L 214.44,137.14 L 215.51,136.18 L 217.63,137.62 L 218.47,137.31 L 218.74,138.45 L 219.89,138.67 L 221.63,140.29 L 222.81,143.74 L 224.28,143.89 L 225.99,145.64 L 227.70,146.00 L 228.78,147.79 L 228.52,149.36 L 229.92,150.29 L 231.14,150.28 L 231.78,152.56 L 231.11,153.68 L 233.15,155.38 L 234.71,154.91 L 234.88,155.35 L 235.41,154.65 L 237.47,155.58 L 239.04,155.26 L 240.81,154.57 L 242.38,153.03 L 243.99,153.76 L 244.31,154.49 L 244.63,154.01 L 244.91,154.98 L 248.23,153.55 L 250.45,154.60 L 250.91,155.58 L 251.45,155.22 L 253.16,155.87 L 253.11,156.44 L 253.81,156.35 L 254.77,157.33 L 255.12,156.98 L 255.55,157.69 L 250.24,166.25 L 252.13,167.02 L 253.52,166.62 L 256.00,169.44 L 256.02,170.51 L 254.86,170.08 L 254.34,170.74 L 253.37,169.14 L 251.39,169.55 L 250.92,168.92 L 249.48,169.43 L 248.42,171.08 L 246.12,171.00 L 245.35,171.67 L 241.13,172.14 L 237.41,174.35 L 235.40,176.49 L 233.28,177.06 L 232.82,181.22 L 230.82,184.64 L 231.50,187.83 L 226.75,191.12 L 226.34,192.85 L 227.11,194.47 L 225.01,194.88 L 225.31,195.62 L 224.73,196.38 L 227.11,198.34 L 226.55,199.56 L 227.46,200.15 L 228.44,202.91 L 229.88,203.88 L 229.92,204.83 L 232.83,207.93 L 232.86,209.12 L 230.97,211.32 L 234.09,211.34 L 237.98,212.31 L 239.14,215.08 L 238.89,216.10 L 245.85,216.01 L 251.86,211.50 L 251.09,212.58 L 251.73,213.72 L 250.98,214.87 L 250.96,224.16 L 251.79,223.57 L 253.69,224.59 L 256.28,223.42 L 259.22,223.69 L 266.16,236.11 L 265.31,237.05 L 265.52,237.77 L 263.85,239.03 L 263.93,244.11 L 262.92,245.43 L 264.76,249.64 L 263.63,250.07 L 263.78,251.14 L 261.88,252.70 L 261.63,254.12 L 260.83,254.52 L 260.72,255.97 L 262.55,257.98 L 260.36,261.13 L 262.27,265.69 L 263.84,265.81 L 265.00,266.76 L 263.49,267.76 L 263.42,269.50 L 262.29,269.96 L 260.39,272.83 L 258.87,273.62 L 258.53,274.45 L 259.65,275.09 L 259.74,276.20 L 257.11,277.68 Z M 207.98,250.41 L 207.95,250.47 L 207.64,250.30 L 207.98,250.41 Z M 205.92,246.93 L 205.70,246.93 L 205.80,246.68 L 205.92,246.93 Z M 200.08,232.88 L 200.17,233.01 L 199.75,232.83 L 200.08,232.88 Z M 171.77,187.82 L 171.58,187.83 L 171.49,187.48 L 171.74,187.07 L 171.77,187.82 Z" fill="#C8D8E8" stroke="#8BAABB" stroke-width="0.8"/>
<path d="M 378.54,110.89 L 378.86,113.09 L 376.05,117.20 L 374.71,117.32 L 374.72,116.35 L 373.35,116.34 L 372.73,115.05 L 369.93,115.77 L 369.31,116.48 L 366.79,116.74 L 364.88,115.68 L 363.51,117.87 L 365.29,119.52 L 365.01,121.10 L 359.39,119.78 L 356.19,113.72 L 355.32,113.15 L 354.49,108.75 L 353.19,109.20 L 351.84,108.82 L 351.88,107.77 L 350.44,106.61 L 348.87,104.00 L 348.61,102.53 L 350.38,98.69 L 349.75,97.25 L 351.55,95.84 L 354.71,95.68 L 354.64,94.52 L 355.45,94.42 L 354.31,93.26 L 355.62,91.43 L 356.09,88.79 L 357.22,87.79 L 365.15,89.44 L 365.45,90.47 L 365.03,88.83 L 365.86,88.07 L 369.81,88.18 L 371.27,88.62 L 371.41,89.32 L 371.75,88.82 L 372.34,89.04 L 373.48,89.04 L 371.17,88.22 L 372.07,87.93 L 379.90,89.14 L 380.29,89.92 L 379.71,91.78 L 376.40,96.67 L 377.43,103.57 L 380.27,107.02 L 378.54,110.89 Z" fill="#C8D8E8" stroke="#8BAABB" stroke-width="0.8"/>
<path d="M 352.72,378.48 L 354.98,378.63 L 356.29,377.13 L 358.20,377.10 L 364.56,382.68 L 364.56,384.95 L 365.78,384.89 L 367.82,383.08 L 370.52,386.25 L 375.49,387.98 L 378.05,390.89 L 382.07,392.75 L 383.59,395.91 L 387.02,397.97 L 383.97,401.11 L 383.76,405.52 L 385.00,406.25 L 383.76,408.83 L 382.08,410.47 L 382.01,411.46 L 379.05,413.68 L 378.17,413.82 L 378.33,413.05 L 377.63,412.83 L 377.80,414.00 L 372.89,416.10 L 367.03,414.45 L 363.44,415.87 L 361.52,415.18 L 361.73,414.60 L 357.87,413.70 L 355.71,411.94 L 350.24,412.10 L 348.52,409.87 L 347.50,409.51 L 345.99,407.71 L 345.71,405.91 L 346.39,401.29 L 348.05,401.08 L 348.74,399.61 L 347.59,396.07 L 348.37,394.56 L 347.67,393.53 L 347.55,391.45 L 348.74,390.68 L 349.28,389.09 L 348.54,388.10 L 349.86,386.22 L 349.87,383.73 L 350.70,383.24 L 350.08,380.41 L 351.82,378.92 L 352.21,377.81 L 352.72,378.48 Z" fill="#C8D8E8" stroke="#8BAABB" stroke-width="0.8"/>
<path d="M 334.92,69.89 L 330.68,73.27 L 329.51,73.35 L 327.92,75.66 L 328.92,77.22 L 328.71,78.34 L 329.34,78.86 L 330.70,78.49 L 331.23,79.43 L 330.66,80.36 L 328.15,81.73 L 326.54,81.35 L 326.34,82.02 L 324.82,82.14 L 324.18,83.38 L 324.88,86.38 L 322.74,88.32 L 328.43,94.53 L 328.83,96.69 L 326.63,98.23 L 326.00,99.62 L 323.37,99.73 L 323.55,100.31 L 321.93,100.68 L 321.42,101.91 L 316.87,103.18 L 314.74,102.43 L 313.70,103.60 L 312.28,103.63 L 312.24,106.62 L 311.15,107.42 L 307.56,104.23 L 306.33,105.07 L 305.08,104.33 L 302.24,104.84 L 301.39,103.02 L 297.95,102.95 L 296.38,101.62 L 296.22,102.22 L 297.54,104.12 L 300.95,107.15 L 300.80,110.92 L 302.55,114.20 L 302.16,116.15 L 307.31,116.56 L 307.40,117.79 L 307.10,118.73 L 302.25,120.51 L 301.81,122.95 L 299.79,125.00 L 299.35,123.87 L 296.85,125.95 L 296.01,125.77 L 293.70,126.92 L 293.19,128.55 L 292.22,128.65 L 290.55,130.74 L 290.20,130.03 L 290.74,128.84 L 290.14,128.07 L 288.98,128.14 L 285.96,130.09 L 284.79,129.97 L 280.20,126.15 L 277.55,117.79 L 277.76,116.76 L 274.76,114.39 L 274.37,113.41 L 272.59,113.60 L 272.72,112.83 L 276.83,108.84 L 275.35,106.16 L 274.33,105.81 L 272.44,99.63 L 273.08,95.38 L 272.75,93.17 L 274.44,91.55 L 274.38,89.61 L 275.95,88.05 L 275.42,86.96 L 275.74,86.29 L 272.81,85.37 L 271.64,86.13 L 266.54,86.79 L 263.23,86.13 L 261.79,87.23 L 261.13,86.63 L 260.26,86.90 L 254.94,80.09 L 253.46,80.36 L 250.48,79.07 L 246.74,80.17 L 243.36,79.45 L 240.46,79.77 L 239.65,79.17 L 238.81,76.81 L 236.69,75.99 L 236.59,72.36 L 237.80,71.02 L 237.35,69.01 L 235.16,66.64 L 234.27,62.93 L 232.99,63.01 L 232.57,61.48 L 231.00,62.46 L 229.61,62.29 L 232.76,57.34 L 233.30,52.37 L 236.53,46.86 L 238.33,46.58 L 240.63,42.52 L 245.40,41.01 L 245.24,41.75 L 240.72,43.09 L 241.52,46.09 L 243.31,47.70 L 242.21,47.70 L 243.70,50.06 L 243.29,52.20 L 240.65,54.99 L 239.44,57.23 L 240.42,58.60 L 240.82,59.51 L 240.50,58.96 L 240.45,60.17 L 241.04,59.84 L 241.62,60.33 L 241.18,60.36 L 241.14,60.76 L 242.47,60.76 L 241.83,61.98 L 242.39,61.94 L 242.67,63.23 L 243.84,63.51 L 246.30,62.60 L 247.69,61.23 L 247.90,57.88 L 244.53,52.62 L 243.65,49.35 L 244.71,49.46 L 244.97,48.47 L 244.28,48.14 L 254.14,45.01 L 254.74,44.06 L 255.66,44.29 L 254.68,43.27 L 257.53,44.33 L 257.93,43.79 L 257.37,42.27 L 254.29,42.94 L 254.32,41.62 L 253.59,40.95 L 254.34,38.92 L 255.80,38.22 L 257.22,39.69 L 257.90,42.76 L 258.86,44.08 L 261.60,43.53 L 264.77,44.20 L 268.34,46.22 L 269.31,48.42 L 268.54,48.47 L 269.61,48.75 L 268.89,49.19 L 269.24,50.56 L 270.46,51.93 L 272.51,52.21 L 279.14,50.94 L 284.86,50.61 L 286.64,51.22 L 286.05,51.77 L 287.60,53.57 L 294.11,55.45 L 296.50,55.11 L 296.96,54.01 L 298.89,53.84 L 299.60,53.43 L 298.93,53.17 L 301.07,52.01 L 305.21,51.87 L 302.28,51.11 L 300.71,51.71 L 300.43,50.45 L 303.19,50.78 L 303.99,50.12 L 306.00,50.79 L 309.04,49.95 L 316.86,50.34 L 319.26,49.90 L 318.35,50.61 L 316.10,50.77 L 315.46,51.59 L 312.92,51.29 L 310.89,51.58 L 310.21,52.20 L 311.41,51.58 L 311.61,52.58 L 310.33,52.57 L 310.26,53.63 L 310.83,53.55 L 310.74,52.59 L 312.12,52.67 L 313.19,54.79 L 312.96,55.18 L 312.02,55.14 L 311.67,55.50 L 311.06,55.01 L 310.16,55.01 L 311.84,55.87 L 311.96,55.28 L 312.49,55.45 L 313.26,55.10 L 313.56,54.04 L 315.59,58.19 L 316.06,56.04 L 316.34,56.33 L 316.39,58.74 L 316.86,58.03 L 316.54,56.37 L 317.85,56.84 L 316.34,56.22 L 316.53,55.68 L 319.37,57.50 L 319.26,58.63 L 319.77,57.76 L 320.05,59.07 L 320.15,58.29 L 319.39,57.22 L 321.22,57.58 L 320.88,56.65 L 322.55,57.95 L 321.92,57.12 L 322.42,57.29 L 324.23,59.22 L 325.41,59.19 L 326.89,60.19 L 327.49,61.33 L 325.16,63.03 L 324.96,63.51 L 326.14,62.38 L 325.05,64.16 L 324.20,66.98 L 320.71,66.92 L 321.18,67.41 L 323.62,68.68 L 324.42,67.90 L 325.62,67.84 L 325.22,68.12 L 325.27,68.63 L 326.02,67.24 L 328.21,67.01 L 329.87,67.59 L 330.70,66.77 L 333.43,67.39 L 334.92,69.89 Z M 325.50,67.70 L 323.73,67.74 L 324.06,67.28 L 324.84,67.58 L 325.70,66.97 L 325.50,67.70 Z M 327.08,63.84 L 326.87,64.32 L 325.11,65.27 L 326.44,63.62 L 327.08,63.84 Z M 325.29,64.02 L 326.97,63.08 L 326.79,63.50 L 326.27,63.64 L 325.16,64.72 L 325.29,64.02 Z M 326.68,63.06 L 326.13,63.29 L 326.96,62.29 L 326.68,63.06 Z M 327.93,62.30 L 327.03,62.91 L 327.15,62.34 L 327.93,62.30 Z M 303.28,49.61 L 303.24,49.94 L 302.49,49.62 L 303.28,49.61 Z M 293.17,48.59 L 292.87,48.75 L 291.57,48.43 L 293.17,48.59 Z M 304.18,48.03 L 303.32,48.75 L 302.07,48.96 L 301.16,48.08 L 299.36,48.08 L 299.65,47.32 L 300.82,47.09 L 302.15,47.90 L 302.71,46.88 L 303.72,46.74 L 304.18,48.03 Z M 282.02,41.72 L 281.53,41.55 L 282.22,41.22 L 282.02,41.72 Z M 286.11,41.58 L 285.49,41.27 L 285.61,41.23 L 286.11,41.58 Z M 298.21,40.96 L 298.16,41.28 L 297.49,41.17 L 297.82,40.62 L 298.21,40.96 Z M 281.35,41.56 L 280.57,41.85 L 280.36,41.80 L 281.35,41.56 Z M 281.47,40.87 L 280.65,40.85 L 280.67,40.83 L 281.47,40.87 Z M 274.19,39.94 L 274.28,39.97 L 274.06,39.96 L 273.99,39.90 L 274.19,39.94 Z M 273.94,39.61 L 273.96,39.59 L 273.95,39.61 L 273.94,39.61 Z M 273.98,39.57 L 273.98,39.60 L 273.97,39.59 L 273.98,39.57 Z M 274.00,39.42 L 273.98,39.46 L 273.98,39.44 L 274.00,39.42 Z M 273.95,39.32 L 273.92,39.30 L 273.94,39.30 L 273.95,39.32 Z M 273.89,39.26 L 273.90,39.27 L 273.90,39.29 L 273.89,39.26 Z M 305.30,10.17 L 305.37,10.17 L 305.36,10.22 L 305.30,10.17 Z M 323.38,67.28 L 323.78,68.20 L 321.63,67.33 L 323.38,67.28 Z M 328.34,65.75 L 328.79,66.76 L 327.32,66.79 L 328.34,65.75 Z M 327.90,64.71 L 328.26,65.54 L 327.02,66.75 L 324.51,67.09 L 324.84,65.80 L 327.90,64.71 Z M 315.60,56.75 L 315.53,57.08 L 315.35,56.86 L 315.60,56.75 Z M 314.88,56.05 L 314.67,55.46 L 314.75,55.44 L 314.88,56.05 Z M 316.23,55.72 L 315.75,55.97 L 315.84,55.64 L 316.23,55.72 Z M 312.94,53.35 L 311.99,51.89 L 312.26,52.15 L 312.94,53.35 Z M 301.17,49.43 L 300.81,49.37 L 300.95,49.21 L 301.17,49.43 Z" fill="#C8D8E8" stroke="#8BAABB" stroke-width="0.8"/>
<path d="M 354.36,376.13 L 354.62,374.80 L 356.01,374.41 L 358.29,372.08 L 359.86,369.56 L 361.33,368.83 L 362.43,366.51 L 365.41,363.99 L 365.38,363.29 L 367.03,363.47 L 367.26,362.88 L 366.42,362.12 L 368.99,360.89 L 369.98,359.58 L 372.19,359.06 L 371.79,358.48 L 373.09,358.15 L 373.93,356.47 L 377.95,355.68 L 378.81,354.20 L 379.47,354.53 L 380.46,353.48 L 381.50,353.51 L 382.41,351.48 L 381.93,349.96 L 382.81,346.32 L 381.47,343.94 L 380.88,341.27 L 379.41,341.01 L 379.28,340.19 L 378.51,340.48 L 378.70,340.88 L 377.11,340.88 L 376.71,341.75 L 375.52,340.83 L 375.54,339.41 L 376.87,337.42 L 376.59,336.52 L 378.15,331.09 L 377.58,329.41 L 378.28,328.62 L 375.22,326.65 L 371.13,328.35 L 369.15,327.85 L 367.46,320.21 L 367.57,317.31 L 365.73,314.51 L 362.99,314.40 L 361.49,312.80 L 360.68,312.93 L 359.61,314.30 L 359.10,313.92 L 358.00,314.54 L 349.23,312.79 L 350.54,303.81 L 349.78,303.43 L 350.21,302.83 L 349.58,302.53 L 350.21,302.02 L 349.27,301.72 L 349.20,299.64 L 347.89,297.49 L 350.21,296.01 L 348.15,294.01 L 350.76,288.63 L 351.33,288.52 L 350.81,287.44 L 352.49,282.20 L 353.27,281.89 L 351.22,278.92 L 350.67,276.41 L 349.04,276.12 L 346.02,274.04 L 345.39,269.60 L 346.46,267.92 L 346.48,266.44 L 332.34,266.25 L 331.68,259.95 L 329.07,256.91 L 331.50,256.78 L 331.33,253.15 L 329.98,250.33 L 330.58,247.97 L 329.92,246.48 L 325.46,243.81 L 319.33,244.42 L 317.21,242.09 L 317.17,241.30 L 314.77,241.11 L 312.73,239.81 L 311.93,240.10 L 310.39,238.84 L 309.71,237.31 L 307.83,237.70 L 306.52,236.55 L 304.07,235.73 L 303.14,236.44 L 300.30,236.06 L 298.73,235.07 L 298.73,234.00 L 297.17,232.92 L 296.79,233.24 L 296.38,232.34 L 294.78,232.05 L 294.26,230.10 L 293.88,229.60 L 293.59,230.26 L 293.24,230.01 L 293.46,229.00 L 292.28,227.89 L 291.76,226.29 L 292.44,223.83 L 291.62,222.46 L 291.27,219.81 L 292.55,217.72 L 292.44,214.79 L 291.67,213.55 L 290.23,214.75 L 288.64,213.92 L 282.01,215.32 L 278.74,218.12 L 276.72,218.61 L 274.69,220.08 L 273.63,221.71 L 271.13,221.40 L 269.19,223.90 L 266.69,224.97 L 265.44,225.20 L 265.22,224.03 L 260.63,223.55 L 256.28,223.42 L 253.69,224.59 L 251.79,223.57 L 250.96,224.16 L 250.98,214.87 L 251.73,213.72 L 251.09,212.58 L 251.86,211.50 L 245.85,216.01 L 238.89,216.10 L 239.14,215.08 L 237.98,212.31 L 234.09,211.34 L 230.97,211.32 L 232.86,209.12 L 232.83,207.93 L 229.92,204.83 L 229.88,203.88 L 228.44,202.91 L 227.46,200.15 L 226.55,199.56 L 227.11,198.34 L 224.73,196.38 L 225.31,195.62 L 225.01,194.88 L 227.11,194.47 L 226.34,192.85 L 226.75,191.12 L 231.50,187.83 L 230.82,184.64 L 232.82,181.22 L 233.28,177.06 L 235.40,176.49 L 237.41,174.35 L 241.13,172.14 L 245.35,171.67 L 246.12,171.00 L 248.42,171.08 L 249.48,169.43 L 250.92,168.92 L 251.39,169.55 L 253.37,169.14 L 254.34,170.74 L 254.86,170.08 L 255.65,170.72 L 256.16,170.32 L 260.60,145.42 L 258.82,141.82 L 258.89,140.15 L 255.41,137.23 L 255.52,131.24 L 259.99,130.08 L 261.40,131.00 L 262.64,130.74 L 262.52,128.99 L 261.46,127.63 L 257.09,127.46 L 257.06,122.27 L 259.50,121.75 L 270.20,122.16 L 269.29,121.29 L 269.98,119.81 L 272.02,122.00 L 275.94,118.82 L 278.32,122.25 L 278.57,126.53 L 280.20,126.15 L 284.79,129.97 L 285.96,130.09 L 288.98,128.14 L 290.14,128.07 L 290.75,129.03 L 290.22,130.41 L 290.90,130.67 L 292.22,128.65 L 293.19,128.55 L 293.70,126.92 L 296.01,125.77 L 296.85,125.95 L 299.35,123.87 L 299.79,125.00 L 301.81,122.95 L 302.25,120.51 L 307.10,118.73 L 307.40,117.79 L 307.31,116.56 L 302.16,116.15 L 302.55,114.20 L 300.80,110.92 L 300.95,107.15 L 297.54,104.12 L 296.22,102.22 L 296.38,101.62 L 297.95,102.95 L 301.39,103.02 L 302.24,104.84 L 305.08,104.33 L 306.33,105.07 L 307.56,104.23 L 311.15,107.42 L 312.24,106.62 L 312.11,103.74 L 313.70,103.60 L 314.74,102.43 L 316.87,103.18 L 318.93,102.70 L 319.95,101.93 L 321.54,101.86 L 321.93,100.68 L 323.55,100.31 L 323.37,99.73 L 326.00,99.62 L 326.63,98.23 L 328.01,97.62 L 328.99,96.29 L 327.85,94.27 L 330.10,94.49 L 331.93,93.75 L 333.72,95.20 L 333.34,98.09 L 332.35,99.67 L 336.02,100.85 L 335.62,102.28 L 337.26,104.39 L 336.03,106.38 L 334.66,107.25 L 334.97,109.06 L 333.64,113.06 L 334.26,116.89 L 335.60,117.81 L 335.46,121.03 L 336.34,121.21 L 336.07,121.87 L 337.23,122.30 L 339.34,124.83 L 341.62,125.45 L 342.64,126.45 L 343.70,125.68 L 345.09,125.79 L 345.13,124.42 L 346.63,123.12 L 348.91,123.79 L 349.24,122.67 L 352.53,122.26 L 354.41,120.11 L 356.07,119.75 L 356.80,120.58 L 358.39,120.94 L 360.91,120.39 L 365.01,121.10 L 365.29,119.52 L 363.51,117.87 L 364.88,115.68 L 366.79,116.74 L 369.31,116.48 L 369.93,115.77 L 372.73,115.05 L 373.35,116.34 L 374.72,116.35 L 374.71,117.32 L 379.13,119.04 L 382.01,116.97 L 383.82,117.95 L 385.27,117.12 L 386.13,117.91 L 385.86,118.36 L 388.26,118.52 L 391.13,115.88 L 392.95,110.70 L 397.40,104.05 L 398.57,103.36 L 398.93,102.03 L 400.08,104.47 L 399.23,101.86 L 399.47,100.37 L 402.03,103.27 L 402.11,106.72 L 402.86,104.85 L 402.76,108.90 L 403.35,111.63 L 405.97,118.55 L 405.09,118.63 L 405.19,119.36 L 406.43,119.08 L 407.62,121.40 L 409.96,121.40 L 411.63,122.16 L 412.15,125.47 L 410.08,126.16 L 412.12,126.53 L 407.72,130.63 L 405.10,134.59 L 403.63,134.98 L 402.84,136.21 L 400.94,136.58 L 401.53,136.97 L 399.95,139.85 L 398.97,140.15 L 399.34,140.37 L 397.93,142.30 L 397.92,144.18 L 396.26,145.39 L 396.22,146.68 L 395.20,147.20 L 393.86,146.73 L 390.21,148.76 L 393.54,148.11 L 393.69,149.53 L 394.13,149.49 L 401.28,145.81 L 403.45,144.07 L 403.50,143.34 L 404.72,143.26 L 404.82,144.32 L 403.82,144.99 L 404.88,145.81 L 404.88,147.45 L 406.16,149.87 L 405.52,149.87 L 405.13,151.15 L 404.41,150.78 L 404.69,151.61 L 406.50,150.48 L 407.48,151.79 L 407.80,151.46 L 408.01,152.56 L 408.82,151.24 L 411.42,150.58 L 412.26,151.08 L 412.12,152.67 L 412.70,152.83 L 412.43,151.18 L 413.76,151.24 L 414.40,152.06 L 413.92,151.13 L 415.73,150.20 L 415.50,150.56 L 415.48,150.82 L 415.63,151.01 L 416.13,151.21 L 416.05,151.90 L 413.85,157.40 L 414.91,157.00 L 417.21,151.55 L 419.27,148.76 L 420.12,148.44 L 418.75,150.74 L 421.67,147.03 L 423.45,149.26 L 423.02,148.05 L 424.25,147.73 L 422.92,147.65 L 423.02,146.21 L 423.39,145.71 L 423.47,146.34 L 424.17,146.47 L 425.04,144.87 L 424.51,144.31 L 425.32,144.11 L 425.68,143.17 L 425.58,142.21 L 426.48,141.25 L 427.07,142.21 L 428.31,141.48 L 428.26,140.47 L 428.88,142.01 L 429.80,141.51 L 430.00,140.58 L 430.68,142.07 L 431.49,142.46 L 430.95,140.70 L 431.43,140.70 L 431.32,140.87 L 431.32,141.24 L 431.37,141.41 L 432.25,140.70 L 432.55,141.36 L 433.00,141.17 L 432.71,141.69 L 433.29,141.41 L 433.45,142.35 L 433.94,141.28 L 434.09,142.89 L 434.78,141.52 L 435.14,142.63 L 434.82,142.88 L 434.95,143.17 L 435.94,141.65 L 436.22,143.17 L 436.44,142.51 L 436.75,142.98 L 436.48,143.50 L 436.88,143.00 L 436.95,142.56 L 437.39,142.86 L 437.21,142.37 L 437.66,142.89 L 437.50,143.44 L 437.12,143.34 L 436.58,143.83 L 436.48,144.11 L 438.98,142.90 L 438.61,144.32 L 439.47,144.03 L 439.78,144.82 L 440.00,144.21 L 440.37,144.71 L 440.14,143.85 L 440.75,143.22 L 440.27,145.43 L 441.22,144.87 L 441.17,145.37 L 441.51,144.55 L 441.91,145.64 L 442.46,144.40 L 442.71,145.97 L 443.33,144.47 L 443.08,146.02 L 443.56,145.58 L 443.54,146.20 L 443.77,146.57 L 444.46,145.04 L 444.82,146.89 L 445.84,146.12 L 445.95,147.29 L 446.84,146.26 L 445.85,147.89 L 446.49,148.33 L 447.54,146.46 L 447.77,147.29 L 446.95,148.45 L 447.55,149.92 L 448.80,147.83 L 449.58,147.39 L 450.32,148.33 L 449.91,148.59 L 449.90,148.77 L 450.32,148.72 L 451.09,147.33 L 450.58,149.21 L 451.39,149.04 L 451.33,148.49 L 451.83,149.76 L 451.45,150.04 L 452.34,149.71 L 451.54,150.47 L 453.19,149.92 L 452.71,150.69 L 453.72,150.64 L 453.25,151.18 L 454.04,151.87 L 453.04,152.28 L 453.99,152.34 L 452.45,154.10 L 452.00,153.99 L 451.43,154.21 L 452.66,154.14 L 452.23,155.19 L 452.68,154.83 L 452.68,155.34 L 452.76,155.41 L 452.93,154.15 L 454.25,153.13 L 455.01,154.64 L 454.76,155.19 L 453.87,154.91 L 453.55,155.10 L 453.78,155.98 L 452.74,156.72 L 453.64,156.28 L 452.51,159.31 L 453.00,160.39 L 451.76,161.56 L 451.65,162.39 L 454.47,159.58 L 454.97,156.37 L 455.59,156.62 L 455.56,155.82 L 457.57,155.30 L 456.77,157.34 L 456.17,157.33 L 455.13,158.46 L 456.38,158.05 L 456.28,158.93 L 457.01,157.97 L 457.30,158.34 L 458.43,156.35 L 458.78,157.06 L 459.98,155.79 L 460.00,156.46 L 460.59,155.79 L 460.43,156.07 L 461.39,156.18 L 461.43,155.46 L 462.08,156.40 L 462.40,155.63 L 461.82,155.14 L 462.29,154.68 L 467.93,156.48 L 469.85,158.00 L 471.31,158.05 L 471.50,158.65 L 473.80,158.68 L 473.28,157.79 L 474.62,157.81 L 475.80,158.99 L 478.46,159.34 L 479.23,160.10 L 478.68,159.20 L 479.13,158.98 L 480.49,159.31 L 485.01,158.27 L 489.00,158.77 L 496.77,163.15 L 499.30,165.40 L 500.72,165.57 L 504.19,169.89 L 506.22,171.17 L 507.47,172.86 L 509.92,173.74 L 510.77,175.29 L 512.98,175.51 L 515.73,177.03 L 515.45,176.65 L 519.98,176.38 L 523.75,177.15 L 525.99,180.67 L 526.90,183.98 L 527.00,185.50 L 526.55,185.74 L 527.42,185.91 L 528.81,191.34 L 528.38,193.07 L 528.97,191.81 L 529.32,193.44 L 529.24,196.14 L 528.27,196.48 L 529.23,197.01 L 529.04,197.48 L 528.70,196.97 L 528.44,197.90 L 528.76,197.77 L 528.56,198.13 L 528.55,198.47 L 529.18,199.50 L 528.88,200.59 L 528.27,200.32 L 528.65,200.75 L 528.20,202.82 L 525.35,209.59 L 522.31,213.44 L 521.68,213.66 L 521.51,212.73 L 521.06,213.93 L 520.69,213.05 L 520.24,212.94 L 520.94,214.10 L 521.42,214.01 L 516.79,220.08 L 512.94,222.25 L 511.12,225.08 L 510.05,224.25 L 511.03,225.57 L 509.63,227.44 L 509.06,227.27 L 510.08,226.07 L 509.86,225.63 L 508.96,227.33 L 508.54,226.94 L 509.12,227.57 L 508.37,228.21 L 509.39,227.71 L 507.11,232.48 L 501.94,239.57 L 500.29,240.22 L 500.47,237.87 L 499.56,237.71 L 499.06,236.66 L 498.16,238.77 L 497.73,237.32 L 497.25,237.98 L 497.79,238.90 L 498.80,239.08 L 497.47,240.74 L 498.16,241.24 L 497.07,242.07 L 497.01,243.08 L 496.35,242.76 L 495.76,244.89 L 496.57,244.07 L 496.81,246.79 L 495.95,245.80 L 495.50,246.00 L 496.70,247.01 L 496.08,247.26 L 496.82,248.59 L 496.11,248.72 L 496.08,249.23 L 496.35,249.51 L 496.17,248.98 L 496.99,248.63 L 496.74,247.55 L 497.20,247.28 L 497.25,248.14 L 496.14,253.51 L 497.73,262.96 L 495.04,273.44 L 495.59,277.58 L 494.52,279.08 L 493.16,279.73 L 491.54,282.34 L 490.87,285.61 L 491.21,291.17 L 490.55,292.98 L 488.69,294.28 L 487.09,298.31 L 486.03,298.03 L 486.05,298.76 L 486.88,298.75 L 486.19,300.18 L 484.36,302.60 L 483.00,303.09 L 480.68,308.06 L 481.17,312.31 L 475.95,314.45 L 473.63,316.48 L 473.42,317.80 L 474.37,318.22 L 473.44,318.81 L 473.26,320.06 L 465.35,320.00 L 464.58,319.56 L 465.40,318.09 L 465.01,317.53 L 463.50,318.18 L 464.27,319.96 L 461.25,320.74 L 457.80,320.93 L 460.91,320.27 L 459.00,319.34 L 456.39,320.60 L 455.09,320.20 L 455.30,319.58 L 454.64,319.70 L 452.39,321.07 L 452.78,322.49 L 453.51,322.03 L 453.94,322.58 L 450.69,323.00 L 449.73,323.45 L 449.52,324.33 L 446.86,325.15 L 446.75,326.86 L 443.36,326.26 L 441.17,326.97 L 440.47,327.52 L 441.43,327.13 L 441.01,328.07 L 440.07,328.39 L 439.84,328.35 L 440.16,328.07 L 439.98,327.62 L 439.31,327.20 L 438.78,327.63 L 439.38,328.41 L 435.03,330.41 L 434.42,331.60 L 429.62,334.27 L 428.13,335.38 L 427.08,336.63 L 426.37,336.52 L 427.16,336.87 L 427.65,336.69 L 425.15,339.89 L 425.05,338.94 L 425.78,338.47 L 424.19,339.10 L 424.25,338.06 L 423.92,338.67 L 423.23,338.22 L 423.45,338.82 L 422.92,338.94 L 423.56,339.51 L 423.10,340.04 L 421.00,339.05 L 421.25,340.20 L 423.97,340.80 L 422.57,343.00 L 422.28,342.61 L 422.24,343.07 L 420.80,343.18 L 422.40,343.16 L 422.17,345.71 L 421.07,346.04 L 420.59,344.79 L 420.57,346.68 L 422.05,347.74 L 421.47,349.54 L 422.28,350.46 L 422.06,353.09 L 423.08,353.48 L 421.96,354.23 L 422.49,355.35 L 421.74,356.09 L 422.38,359.14 L 421.83,362.10 L 420.86,364.16 L 419.99,363.03 L 420.13,364.07 L 420.90,364.49 L 416.35,367.66 L 412.71,371.82 L 408.79,379.98 L 405.64,384.65 L 402.30,388.15 L 396.77,391.76 L 395.11,393.64 L 395.62,391.91 L 395.03,390.93 L 396.98,391.14 L 399.60,388.90 L 400.00,389.20 L 400.20,388.18 L 401.57,388.01 L 402.22,384.92 L 403.37,384.80 L 403.66,385.34 L 403.64,383.44 L 405.86,382.10 L 405.61,379.19 L 406.52,380.17 L 406.85,379.89 L 407.05,378.43 L 406.47,377.77 L 406.02,378.60 L 404.15,378.82 L 403.97,379.74 L 403.21,379.29 L 403.30,378.40 L 401.67,377.80 L 401.28,376.34 L 400.94,378.08 L 402.02,379.17 L 402.77,379.10 L 401.53,379.99 L 401.38,382.55 L 400.55,381.43 L 400.67,383.33 L 399.71,384.03 L 400.04,384.94 L 398.63,385.38 L 398.53,386.35 L 396.00,386.96 L 395.65,389.47 L 395.06,388.77 L 395.22,389.63 L 394.01,390.23 L 393.78,391.20 L 394.67,391.75 L 393.70,392.73 L 395.08,392.56 L 394.40,393.11 L 395.03,392.84 L 395.00,393.64 L 393.74,394.57 L 390.70,401.41 L 385.00,406.25 L 383.76,405.52 L 383.78,401.68 L 387.09,398.09 L 383.59,395.91 L 382.07,392.75 L 378.05,390.89 L 375.49,387.98 L 370.52,386.25 L 367.82,383.08 L 365.78,384.89 L 364.56,384.95 L 364.56,382.68 L 358.20,377.10 L 356.29,377.13 L 354.98,378.63 L 352.72,378.48 L 352.21,377.81 L 354.36,376.13 Z M 497.46,243.73 L 497.42,245.47 L 496.91,244.08 L 496.30,243.76 L 497.09,243.25 L 497.46,243.73 Z M 499.86,239.99 L 498.32,241.16 L 499.23,239.79 L 499.01,239.14 L 499.86,239.99 Z M 453.97,159.57 L 453.19,160.46 L 453.36,158.38 L 454.10,157.61 L 453.97,159.57 Z M 472.70,158.05 L 471.92,157.39 L 472.65,157.40 L 472.70,158.05 Z M 460.67,155.17 L 459.91,155.33 L 460.04,154.29 L 460.73,153.99 L 460.67,155.17 Z M 416.15,151.13 L 415.57,150.91 L 416.27,149.75 L 416.77,150.03 L 416.15,151.13 Z M 450.96,146.57 L 449.92,146.98 L 450.27,146.04 L 450.96,146.57 Z M 424.18,145.60 L 423.18,145.28 L 423.50,144.60 L 424.14,144.49 L 424.18,145.60 Z M 425.20,144.05 L 424.39,144.12 L 424.34,143.58 L 425.26,142.51 L 425.20,144.05 Z M 427.65,141.31 L 427.07,141.80 L 426.91,141.36 L 427.65,141.31 Z M 404.70,141.68 L 402.70,142.57 L 402.96,141.36 L 404.71,140.42 L 404.70,141.68 Z M 429.54,141.50 L 429.09,141.63 L 428.63,140.56 L 429.41,140.59 L 429.54,141.50 Z M 401.34,144.16 L 397.72,147.32 L 396.25,147.73 L 396.61,146.01 L 398.17,144.73 L 398.23,142.73 L 399.33,141.03 L 400.78,140.21 L 400.51,141.19 L 401.08,140.10 L 402.03,140.87 L 401.34,144.16 Z M 402.18,138.39 L 400.33,139.63 L 401.42,137.71 L 402.19,137.07 L 402.18,138.39 Z M 422.92,141.91 L 422.33,141.41 L 422.68,142.94 L 421.61,143.97 L 421.78,144.63 L 420.42,145.58 L 419.62,145.09 L 420.59,146.11 L 420.30,147.29 L 419.46,146.33 L 419.08,146.30 L 419.08,146.96 L 420.26,147.56 L 418.50,148.22 L 417.47,147.07 L 417.22,148.55 L 417.70,148.66 L 417.28,148.93 L 416.00,147.84 L 416.23,149.07 L 415.57,149.05 L 415.15,147.95 L 414.88,147.95 L 414.67,149.76 L 413.66,150.12 L 413.23,148.61 L 412.98,150.42 L 411.22,149.93 L 411.02,149.21 L 410.04,150.20 L 409.50,149.88 L 409.40,148.94 L 409.08,148.74 L 409.30,148.47 L 409.24,147.84 L 408.97,148.74 L 409.18,149.92 L 408.86,149.21 L 409.03,150.01 L 408.39,150.14 L 408.94,150.39 L 408.10,150.62 L 406.55,150.14 L 406.68,149.44 L 405.01,147.44 L 405.09,144.65 L 406.90,145.43 L 406.45,144.92 L 407.54,144.27 L 406.09,144.72 L 405.09,144.11 L 405.52,140.37 L 405.93,141.07 L 406.98,141.38 L 405.94,140.94 L 405.83,138.83 L 406.71,137.49 L 408.38,136.79 L 413.93,137.88 L 416.00,138.01 L 416.00,137.43 L 417.41,137.07 L 423.45,138.03 L 423.90,138.84 L 422.92,141.91 Z M 403.18,137.55 L 403.89,136.04 L 405.29,135.58 L 406.15,136.14 L 405.99,137.18 L 404.07,138.59 L 403.18,137.55 Z M 415.15,135.26 L 416.31,136.02 L 415.41,136.97 L 412.54,136.77 L 415.15,135.26 Z M 406.50,134.48 L 407.44,134.67 L 407.84,135.95 L 406.32,135.38 L 406.50,134.48 Z M 409.96,133.85 L 409.53,133.97 L 410.36,133.24 L 409.96,133.85 Z M 413.96,132.85 L 414.89,133.11 L 412.27,136.03 L 411.21,136.37 L 410.49,135.70 L 408.56,135.57 L 408.31,134.28 L 410.41,134.17 L 413.96,132.85 Z M 407.99,134.60 L 407.23,134.28 L 408.39,130.98 L 408.78,133.47 L 407.99,134.60 Z M 409.24,131.26 L 410.31,131.37 L 410.73,130.76 L 410.91,131.86 L 409.30,133.05 L 408.82,132.63 L 409.24,131.26 Z M 409.04,129.78 L 409.49,129.06 L 411.12,128.80 L 410.44,129.89 L 409.04,129.78 Z M 410.46,128.26 L 411.81,127.38 L 411.52,128.15 L 410.46,128.26 Z M 408.80,120.18 L 407.99,121.02 L 407.17,119.91 L 407.71,119.04 L 408.80,120.18 Z M 407.64,118.43 L 408.02,118.91 L 407.38,119.06 L 407.02,118.75 L 407.64,118.43 Z M 571.61,300.67 L 571.64,300.58 L 571.85,300.73 L 571.61,300.67 Z M 575.24,300.26 L 575.27,300.27 L 575.26,300.29 L 575.24,300.26 Z M 423.61,356.89 L 422.39,358.80 L 422.60,356.06 L 423.40,355.49 L 423.61,356.89 Z M 422.24,347.61 L 421.31,346.74 L 422.52,345.58 L 422.97,346.13 L 422.24,347.61 Z M 431.06,333.72 L 427.55,336.52 L 428.08,335.53 L 431.06,333.72 Z M 440.04,328.14 L 439.04,327.79 L 439.25,327.58 L 440.04,328.14 Z M 448.19,327.96 L 446.55,327.35 L 447.67,325.98 L 448.19,327.96 Z M 455.29,321.98 L 454.98,321.53 L 456.01,320.76 L 457.05,321.40 L 455.29,321.98 Z M 547.91,166.89 L 547.42,167.02 L 547.62,166.79 L 547.91,166.89 Z M 571.54,128.87 L 571.60,129.12 L 571.12,129.26 L 571.54,128.87 Z M 424.79,339.02 L 424.51,340.15 L 424.14,339.64 L 424.79,339.02 Z M 529.10,197.94 L 528.92,198.54 L 528.62,198.47 L 528.86,197.61 L 529.10,197.94 Z M 472.21,157.86 L 472.54,158.16 L 471.42,157.87 L 472.21,157.86 Z M 459.20,155.24 L 459.72,155.56 L 459.31,156.08 L 459.20,155.24 Z M 461.39,154.94 L 461.14,155.36 L 460.85,155.05 L 461.39,154.94 Z M 415.71,149.54 L 415.06,149.93 L 414.93,149.35 L 415.71,149.54 Z" fill="#4A90D9" stroke="#1a5fa8" stroke-width="1.2"/>
<path d="M 141.27,47.10 L 140.25,47.59 L 134.59,45.78 L 132.32,42.07 L 132.70,39.03 L 134.84,39.39 L 136.10,40.89 L 138.02,41.77 L 140.25,44.41 L 141.27,47.10 Z M 133.39,42.13 L 133.31,41.72 L 132.91,41.66 L 132.64,42.15 L 133.39,42.13 Z M 134.82,43.09 L 133.92,43.75 L 135.54,44.62 L 135.95,44.40 L 134.82,43.09 Z" fill="#A8C8E8" stroke="none"/>
<path d="M 130.78,38.37 L 129.36,38.49 L 129.34,37.55 L 128.39,37.84 L 127.06,36.56 L 129.45,35.80 L 130.14,37.60 L 130.73,37.05 L 130.78,38.37 Z" fill="#A8C8E8" stroke="none"/>
<path d="M 153.07,21.76 L 152.91,21.99 L 152.38,20.91 L 153.07,21.76 Z" fill="#A8C8E8" stroke="none"/>
<path d="M 260.73,265.60 L 259.79,265.73 L 260.32,264.23 L 258.39,263.88 L 257.32,262.41 L 256.90,263.01 L 257.46,263.46 L 255.72,262.85 L 256.36,260.66 L 257.83,261.90 L 256.33,259.40 L 257.43,258.86 L 256.83,258.53 L 258.12,258.49 L 258.11,258.04 L 260.29,260.09 L 260.83,259.93 L 261.60,261.48 L 262.48,261.52 L 263.56,262.64 L 263.55,263.51 L 265.49,263.94 L 264.40,264.66 L 264.87,265.81 L 266.99,266.15 L 266.95,266.74 L 264.04,267.68 L 264.74,267.90 L 264.77,268.94 L 262.96,268.09 L 263.46,266.86 L 263.06,266.25 L 264.92,266.11 L 263.58,265.02 L 262.62,264.61 L 262.82,266.01 L 261.42,266.25 L 260.73,265.60 Z" fill="#A8C8E8" stroke="none"/>
<path d="M 232.53,466.20 L 233.02,465.71 L 232.28,465.42 L 233.84,464.00 L 235.08,464.43 L 236.03,466.06 L 234.78,465.99 L 233.40,466.97 L 232.53,466.20 Z" fill="#A8C8E8" stroke="none"/>
<path d="M 237.90,458.49 L 238.29,458.90 L 236.35,458.79 L 236.02,458.13 L 237.79,457.20 L 238.34,458.36 L 237.90,458.49 Z" fill="#A8C8E8" stroke="none"/>
<path d="M 235.63,461.69 L 237.70,461.52 L 237.42,461.84 L 235.63,461.69 Z" fill="#A8C8E8" stroke="none"/>
<path d="M 266.26,500.00 L 265.12,500.00 L 265.37,499.39 L 266.09,499.45 L 266.26,500.00 Z M 263.89,498.67 L 264.64,498.65 L 264.46,499.62 L 264.89,500.00 L 263.77,500.00 L 263.89,498.67 Z" fill="#A8C8E8" stroke="none"/>
<path d="M 361.30,146.65 L 362.79,148.17 L 364.41,147.94 L 364.65,147.39 L 365.65,150.20 L 364.29,148.40 L 362.37,148.60 L 361.94,147.61 L 360.48,147.47 L 360.18,147.18 L 361.14,146.86 L 359.24,146.55 L 361.30,146.65 Z" fill="#A8C8E8" stroke="none"/>
<path d="M 239.87,450.68 L 238.66,450.52 L 238.90,449.92 L 240.34,450.15 L 239.87,450.68 Z" fill="#A8C8E8" stroke="none"/>
<path d="M 453.04,166.67 L 452.84,166.93 L 452.39,166.23 L 453.04,166.67 Z" fill="#A8C8E8" stroke="none"/>
<path d="M 243.48,464.77 L 243.65,464.98 L 242.85,465.52 L 242.68,465.48 L 243.29,464.88 L 241.94,464.52 L 243.74,464.13 L 241.99,462.29 L 245.11,463.79 L 244.15,464.05 L 244.97,464.77 L 246.84,464.90 L 245.82,465.39 L 243.48,464.77 Z" fill="#A8C8E8" stroke="none"/>
<path d="M 378.43,154.56 L 378.11,154.15 L 377.27,154.65 L 377.59,153.90 L 376.94,153.87 L 376.83,153.55 L 378.94,153.88 L 378.43,154.56 Z" fill="#A8C8E8" stroke="none"/>
<path d="M 410.04,307.04 L 410.08,306.97 L 410.06,307.01 L 410.04,307.04 Z" fill="#A8C8E8" stroke="none"/>
<path d="M 350.76,277.13 L 350.06,276.04 L 351.24,275.69 L 350.76,277.13 Z" fill="#A8C8E8" stroke="none"/>
<path d="M 240.61,495.07 L 241.44,495.41 L 242.53,495.17 L 242.93,495.20 L 243.16,495.39 L 241.07,495.49 L 240.61,495.07 Z" fill="#A8C8E8" stroke="none"/>
<path d="M 244.39,496.13 L 243.27,495.40 L 245.35,496.16 L 244.39,496.13 Z" fill="#A8C8E8" stroke="none"/>
<path d="M 323.63,276.59 L 323.24,275.74 L 323.02,276.45 L 322.03,276.10 L 323.50,275.48 L 323.63,276.59 Z" fill="#A8C8E8" stroke="none"/>
<path d="M 274.37,54.89 L 272.45,54.82 L 272.75,54.10 L 274.01,53.90 L 274.37,54.89 Z" fill="#A8C8E8" stroke="none"/>
<path d="M 355.49,364.50 L 355.01,364.27 L 355.63,363.06 L 357.08,363.16 L 355.49,364.50 Z" fill="#A8C8E8" stroke="none"/>
<path d="M 357.13,362.72 L 356.72,362.57 L 356.63,361.86 L 357.82,361.49 L 357.13,362.72 Z" fill="#A8C8E8" stroke="none"/>
<path d="M 287.58,241.07 L 286.96,241.06 L 286.81,239.77 L 287.84,239.66 L 287.58,241.07 Z" fill="#A8C8E8" stroke="none"/>
<path d="M 290.81,240.45 L 290.14,239.93 L 290.01,238.16 L 290.68,238.39 L 290.81,240.45 Z" fill="#A8C8E8" stroke="none"/>
<path d="M 262.68,500.00 L 261.82,500.00 L 261.98,499.20 L 261.19,498.64 L 262.81,498.60 L 262.68,500.00 Z" fill="#A8C8E8" stroke="none"/>
<path d="M 238.86,463.39 L 236.53,463.37 L 235.03,462.61 L 238.86,463.39 Z" fill="#A8C8E8" stroke="none"/>
<path d="M 267.44,445.52 L 265.89,444.75 L 265.02,445.39 L 264.13,444.93 L 264.96,444.05 L 267.44,445.52 Z" fill="#A8C8E8" stroke="none"/>
<path d="M 372.64,339.33 L 371.67,339.17 L 371.87,338.68 L 371.02,339.16 L 370.27,338.17 L 369.56,338.83 L 368.33,338.88 L 367.63,338.16 L 367.75,337.69 L 368.32,338.67 L 369.11,338.72 L 369.79,338.10 L 369.38,338.28 L 368.92,338.02 L 370.37,337.88 L 368.51,336.30 L 372.43,338.98 L 372.64,339.33 Z" fill="#A8C8E8" stroke="none"/>
<path d="M 454.46,308.36 L 453.68,307.02 L 452.74,306.87 L 453.38,306.34 L 454.85,307.63 L 454.46,308.36 Z" fill="#A8C8E8" stroke="none"/>
<path d="M 426.54,317.57 L 424.53,317.07 L 424.10,317.46 L 425.74,317.79 L 425.68,318.30 L 424.27,317.64 L 423.89,318.14 L 423.95,317.25 L 423.18,317.47 L 422.60,316.32 L 426.89,317.39 L 426.54,317.57 Z" fill="#A8C8E8" stroke="none"/>
<path d="M 422.49,322.41 L 421.44,323.49 L 421.93,323.79 L 421.93,324.20 L 421.69,324.50 L 421.11,323.62 L 421.35,322.91 L 419.14,322.63 L 419.54,323.92 L 418.78,323.26 L 418.88,322.45 L 417.59,322.38 L 418.35,323.24 L 417.44,322.90 L 417.81,324.17 L 417.07,322.09 L 417.62,321.40 L 417.73,322.06 L 418.39,321.64 L 418.02,322.09 L 418.73,321.68 L 418.92,322.09 L 419.09,321.59 L 419.46,322.47 L 420.42,321.75 L 421.39,322.73 L 422.01,322.09 L 422.00,322.69 L 422.49,322.41 Z" fill="#A8C8E8" stroke="none"/>
<path d="M 416.42,310.00 L 416.36,308.85 L 413.69,307.28 L 414.46,309.44 L 413.45,308.26 L 413.29,306.95 L 411.95,306.26 L 410.45,305.96 L 410.82,306.47 L 410.32,306.24 L 410.08,306.97 L 409.74,304.97 L 410.73,304.24 L 410.70,305.48 L 413.11,306.34 L 413.64,305.53 L 413.59,306.54 L 414.16,306.22 L 414.20,306.85 L 414.92,305.45 L 416.60,304.87 L 416.92,305.21 L 415.04,305.95 L 414.63,306.94 L 415.20,306.85 L 415.10,307.56 L 416.01,306.90 L 415.38,307.91 L 416.33,307.92 L 416.82,308.79 L 417.30,308.41 L 417.03,309.33 L 417.65,309.17 L 418.93,310.21 L 417.66,309.57 L 417.23,311.31 L 417.23,309.86 L 416.42,310.00 Z" fill="#A8C8E8" stroke="none"/>
<path d="M 406.96,304.34 L 406.59,305.05 L 406.40,303.96 L 405.04,303.38 L 405.07,304.21 L 404.51,303.15 L 403.82,303.81 L 404.16,302.83 L 402.79,302.76 L 402.78,302.09 L 401.37,301.26 L 402.34,300.91 L 404.34,302.24 L 404.84,301.81 L 405.27,302.87 L 406.82,303.12 L 407.22,304.09 L 408.76,304.47 L 406.96,304.34 Z" fill="#A8C8E8" stroke="none"/>
<path d="M 437.70,301.16 L 435.88,299.95 L 436.07,300.66 L 435.57,300.56 L 435.76,299.63 L 434.78,299.46 L 434.01,298.24 L 435.29,298.47 L 435.37,299.40 L 435.95,299.02 L 436.16,299.92 L 437.91,300.56 L 437.70,301.16 Z" fill="#A8C8E8" stroke="none"/>
<path d="M 429.98,282.26 L 430.42,282.28 L 429.83,282.90 L 430.30,283.26 L 429.07,283.20 L 429.61,283.63 L 429.70,284.03 L 428.53,283.56 L 428.79,284.61 L 427.86,283.91 L 427.75,284.50 L 426.71,284.21 L 427.11,283.09 L 427.32,283.65 L 428.29,282.49 L 429.57,282.53 L 429.46,281.44 L 429.89,281.91 L 430.88,281.45 L 429.98,282.26 Z" fill="#A8C8E8" stroke="none"/>
<path d="M 482.60,211.50 L 481.28,211.55 L 480.79,212.19 L 480.43,211.68 L 479.85,212.69 L 480.12,213.63 L 478.86,213.54 L 476.87,214.78 L 477.00,214.29 L 475.36,214.69 L 474.55,215.52 L 475.14,214.68 L 474.38,213.92 L 473.24,215.41 L 473.52,214.40 L 472.94,214.34 L 472.76,215.60 L 471.76,216.63 L 473.17,216.82 L 474.00,217.69 L 474.34,219.48 L 473.76,217.71 L 471.68,217.16 L 472.96,219.60 L 471.39,216.65 L 470.61,216.79 L 470.42,218.52 L 472.52,221.37 L 471.99,221.23 L 471.84,223.05 L 470.87,223.60 L 470.65,224.72 L 470.81,223.16 L 471.67,221.16 L 470.78,219.79 L 470.94,221.35 L 470.46,221.42 L 470.48,220.36 L 470.20,221.13 L 470.71,219.55 L 470.22,218.73 L 467.37,223.28 L 467.93,223.55 L 467.45,223.87 L 467.70,225.12 L 466.97,225.29 L 467.08,226.60 L 466.69,225.84 L 466.14,226.27 L 465.76,225.10 L 465.21,225.27 L 465.41,224.18 L 464.50,225.25 L 463.74,225.12 L 465.04,224.09 L 464.64,223.63 L 465.25,222.99 L 466.60,222.36 L 465.84,221.86 L 466.43,221.74 L 465.50,221.57 L 465.55,220.86 L 466.23,220.84 L 466.87,222.20 L 467.65,221.85 L 466.67,220.99 L 467.89,220.76 L 466.22,220.08 L 467.09,220.21 L 466.82,219.48 L 467.87,220.43 L 468.60,220.10 L 467.53,219.82 L 467.37,219.31 L 468.78,219.57 L 467.44,218.55 L 468.50,218.93 L 468.22,218.24 L 469.13,219.25 L 469.63,218.76 L 469.18,217.12 L 467.05,215.97 L 467.20,215.43 L 467.78,215.78 L 467.48,215.42 L 467.64,215.13 L 467.88,215.85 L 468.44,215.63 L 469.56,216.76 L 469.02,215.24 L 469.90,216.21 L 470.79,215.95 L 470.53,215.39 L 471.22,214.82 L 470.32,213.26 L 471.03,213.92 L 471.79,213.62 L 471.50,212.99 L 472.78,213.00 L 472.63,212.04 L 473.18,212.35 L 473.32,211.88 L 473.66,213.09 L 475.05,212.88 L 475.18,212.27 L 476.26,212.91 L 479.28,212.79 L 479.54,211.34 L 478.32,210.83 L 479.02,210.59 L 479.91,211.26 L 479.57,210.14 L 480.83,210.45 L 481.12,209.39 L 480.29,209.03 L 481.17,208.91 L 480.38,207.80 L 481.90,208.64 L 481.34,209.23 L 481.55,211.08 L 481.71,210.03 L 482.60,211.50 Z M 466.68,223.80 L 466.10,224.77 L 466.76,225.26 L 467.24,224.28 L 466.68,223.80 Z M 467.44,222.74 L 465.35,223.94 L 466.63,223.53 L 467.44,222.74 Z" fill="#A8C8E8" stroke="none"/>
<path d="M 372.81,98.13 L 373.05,98.73 L 373.51,98.40 L 373.49,99.12 L 372.84,99.56 L 372.35,98.41 L 371.48,100.22 L 370.54,99.49 L 369.54,99.96 L 369.76,99.00 L 370.55,99.03 L 370.13,98.13 L 371.08,97.22 L 371.27,95.91 L 372.54,96.12 L 372.80,96.88 L 373.94,96.54 L 373.63,97.94 L 373.44,97.46 L 372.81,98.13 Z" fill="#A8C8E8" stroke="none"/>
<path d="M 379.04,333.96 L 377.64,334.63 L 378.73,335.64 L 377.29,335.06 L 377.10,336.27 L 378.14,336.79 L 377.37,336.93 L 377.80,337.41 L 377.20,337.74 L 378.88,338.07 L 377.31,338.38 L 377.75,338.77 L 376.71,338.51 L 377.47,339.46 L 375.17,339.63 L 375.47,338.77 L 374.97,338.39 L 375.79,338.44 L 376.42,337.43 L 374.04,336.92 L 374.79,336.35 L 376.22,336.79 L 376.41,335.74 L 373.60,335.36 L 376.58,335.30 L 376.71,334.40 L 375.30,333.92 L 377.18,333.73 L 377.26,332.95 L 376.49,332.66 L 377.26,332.52 L 376.79,331.46 L 377.54,331.70 L 377.91,330.98 L 377.16,330.06 L 378.05,328.72 L 378.43,333.72 L 379.04,333.96 Z" fill="#A8C8E8" stroke="none"/>
<path d="M 413.17,170.36 L 412.40,169.27 L 413.42,169.48 L 412.91,168.38 L 413.73,168.35 L 413.43,166.69 L 414.59,166.48 L 414.38,169.39 L 415.74,169.53 L 414.55,170.10 L 415.81,170.25 L 415.20,171.14 L 416.02,171.77 L 415.57,172.26 L 417.19,173.56 L 415.72,172.92 L 416.21,173.53 L 415.80,173.79 L 417.00,174.48 L 415.79,175.09 L 417.00,176.12 L 416.44,176.24 L 416.63,177.27 L 417.60,178.52 L 419.52,178.46 L 417.23,178.87 L 415.03,175.46 L 414.59,173.04 L 412.82,172.98 L 414.20,172.30 L 413.91,171.43 L 412.49,172.04 L 413.07,171.04 L 412.30,171.30 L 412.71,170.87 L 412.24,170.53 L 413.17,170.36 Z" fill="#A8C8E8" stroke="none"/>
<path d="M 450.77,287.24 L 448.88,286.73 L 449.38,288.57 L 448.73,287.35 L 448.34,287.99 L 448.14,287.61 L 446.63,288.31 L 447.53,287.85 L 446.64,287.62 L 448.46,287.43 L 448.67,286.68 L 448.38,285.70 L 448.32,286.89 L 447.06,286.70 L 447.78,286.47 L 448.16,284.80 L 447.40,285.79 L 446.95,285.23 L 448.32,284.36 L 447.18,283.83 L 446.99,284.76 L 446.46,284.46 L 445.85,285.30 L 446.58,283.44 L 447.59,283.23 L 447.10,283.03 L 447.75,281.97 L 446.78,282.61 L 447.23,281.95 L 447.91,281.70 L 448.41,282.06 L 447.90,282.46 L 448.51,282.51 L 447.79,283.42 L 448.31,283.63 L 447.45,283.77 L 448.56,283.91 L 448.59,285.23 L 449.24,284.67 L 448.66,285.55 L 449.13,286.16 L 448.64,286.36 L 449.50,286.64 L 449.92,285.60 L 450.04,286.52 L 450.80,286.35 L 450.45,286.83 L 450.99,286.85 L 450.77,287.24 Z" fill="#A8C8E8" stroke="none"/>
<path d="M 399.31,297.74 L 400.79,298.66 L 400.98,298.01 L 402.31,298.24 L 401.60,296.90 L 402.90,297.75 L 402.94,293.93 L 403.50,293.51 L 403.74,296.22 L 406.72,294.73 L 406.07,295.94 L 404.33,296.36 L 403.44,297.58 L 404.92,298.83 L 403.28,298.41 L 403.11,299.24 L 402.74,298.71 L 402.44,299.40 L 401.20,299.10 L 402.29,300.11 L 403.94,300.51 L 401.92,300.18 L 400.98,299.41 L 400.56,299.82 L 400.08,299.58 L 400.45,298.86 L 399.31,297.74 Z" fill="#A8C8E8" stroke="none"/>
<path d="M 396.21,307.57 L 396.02,308.20 L 395.34,308.41 L 395.50,309.33 L 393.35,311.59 L 392.84,312.99 L 388.25,315.84 L 388.48,314.87 L 391.90,313.49 L 394.19,310.04 L 393.77,309.24 L 394.38,310.01 L 395.22,309.15 L 395.11,308.07 L 396.21,307.57 Z" fill="#A8C8E8" stroke="none"/>
<path d="M 309.95,75.14 L 309.79,75.09 L 310.53,74.58 L 310.32,73.67 L 311.01,74.32 L 312.45,73.89 L 312.82,74.33 L 311.97,74.33 L 312.40,74.82 L 311.51,75.07 L 312.87,75.37 L 311.99,76.09 L 312.36,77.20 L 310.96,79.82 L 311.43,81.36 L 310.29,80.04 L 310.38,79.21 L 311.91,77.67 L 311.81,76.91 L 311.33,76.79 L 311.38,75.64 L 310.64,76.30 L 310.21,75.97 L 310.69,75.26 L 309.95,75.14 Z" fill="#A8C8E8" stroke="none"/>
<path d="M 368.77,396.44 L 367.57,396.42 L 367.63,396.86 L 366.90,396.81 L 366.55,396.53 L 366.88,397.90 L 366.08,397.45 L 366.51,398.45 L 365.50,397.41 L 365.55,398.56 L 363.40,398.39 L 363.32,399.16 L 364.76,399.88 L 363.16,399.49 L 363.11,400.21 L 362.28,399.05 L 361.49,399.34 L 360.95,398.99 L 358.32,399.66 L 358.28,398.45 L 358.90,399.11 L 359.04,398.38 L 359.23,398.95 L 360.05,397.51 L 359.64,399.04 L 360.31,398.78 L 361.40,399.15 L 362.12,397.07 L 361.76,398.31 L 362.39,398.72 L 363.59,397.22 L 364.06,397.65 L 364.53,396.88 L 364.73,397.35 L 365.02,396.58 L 366.03,397.24 L 365.98,396.14 L 366.88,396.63 L 366.85,395.76 L 368.01,396.31 L 368.78,395.83 L 368.77,396.44 Z" fill="#A8C8E8" stroke="none"/>
<path d="M 262.96,453.16 L 261.06,453.69 L 262.36,452.67 L 261.64,452.22 L 262.24,451.84 L 263.33,452.08 L 264.19,451.54 L 263.08,451.54 L 265.10,450.62 L 265.59,450.54 L 265.29,451.11 L 266.15,450.91 L 265.73,451.98 L 264.93,451.77 L 262.96,453.16 Z" fill="#A8C8E8" stroke="none"/>
<path d="M 407.55,287.13 L 406.96,286.39 L 408.22,286.28 L 408.23,284.84 L 409.17,285.29 L 409.23,284.40 L 409.60,285.31 L 410.72,285.09 L 410.40,282.55 L 411.26,284.75 L 412.88,285.07 L 411.06,285.28 L 411.36,286.38 L 410.04,285.69 L 409.00,286.03 L 408.82,286.58 L 409.66,286.73 L 407.52,287.68 L 408.53,288.20 L 407.19,288.30 L 406.79,287.34 L 407.55,287.13 Z" fill="#A8C8E8" stroke="none"/>
<path d="M 278.27,56.92 L 278.67,56.73 L 279.73,57.28 L 279.08,57.71 L 278.27,56.92 Z" fill="#A8C8E8" stroke="none"/>
<path d="M 276.50,64.15 L 276.12,64.17 L 276.18,62.58 L 276.83,63.18 L 276.50,64.15 Z" fill="#A8C8E8" stroke="none"/>
<path d="M 422.13,283.02 L 422.37,283.99 L 421.57,283.02 L 418.13,283.50 L 419.03,282.24 L 420.50,281.89 L 420.15,280.80 L 420.83,281.76 L 421.68,280.69 L 421.07,282.04 L 419.93,282.64 L 423.64,282.88 L 424.59,281.81 L 424.36,282.65 L 425.05,282.86 L 422.13,283.02 Z" fill="#A8C8E8" stroke="none"/>
<path d="M 409.47,295.96 L 408.29,295.22 L 410.58,294.30 L 411.80,295.42 L 415.03,295.16 L 416.03,296.00 L 412.22,296.01 L 413.91,297.17 L 411.97,296.65 L 411.30,295.78 L 410.84,297.35 L 410.66,295.65 L 409.67,295.39 L 409.47,295.96 Z" fill="#A8C8E8" stroke="none"/>
<path d="M 448.49,305.17 L 448.14,305.34 L 447.84,305.19 L 447.76,304.60 L 446.99,304.96 L 446.04,304.23 L 445.72,304.86 L 445.84,303.86 L 444.70,303.23 L 444.12,301.97 L 443.50,301.66 L 442.88,302.33 L 441.74,301.77 L 441.06,302.81 L 441.57,302.53 L 441.98,302.85 L 442.34,303.54 L 441.85,303.59 L 442.57,304.04 L 442.18,304.46 L 443.12,304.18 L 444.41,304.77 L 442.80,304.59 L 443.26,305.66 L 442.75,305.95 L 444.30,306.62 L 443.73,307.22 L 445.82,307.69 L 446.08,308.45 L 445.17,307.86 L 444.63,308.31 L 443.84,307.50 L 443.35,308.41 L 443.44,306.69 L 442.53,306.24 L 442.16,307.54 L 440.79,307.75 L 442.24,306.87 L 440.95,306.37 L 442.19,306.60 L 441.82,306.17 L 442.62,305.49 L 442.18,305.67 L 442.46,304.91 L 440.91,304.23 L 442.03,304.14 L 440.90,303.74 L 441.77,303.09 L 440.70,302.73 L 441.19,301.86 L 439.77,301.52 L 442.47,301.26 L 442.90,301.83 L 443.74,301.16 L 443.88,300.12 L 444.48,301.35 L 443.87,301.50 L 444.73,301.79 L 445.04,300.59 L 445.48,300.46 L 445.29,301.12 L 445.90,300.67 L 445.26,301.60 L 446.33,301.66 L 444.52,302.10 L 445.04,302.25 L 444.88,302.95 L 446.54,303.48 L 446.25,304.04 L 447.17,304.54 L 448.41,304.24 L 447.98,305.06 L 448.49,305.17 Z" fill="#A8C8E8" stroke="none"/>
<path d="M 413.65,321.52 L 415.09,325.31 L 414.09,324.15 L 414.22,325.51 L 413.29,324.54 L 413.88,323.43 L 412.76,323.27 L 413.50,322.01 L 412.76,320.85 L 415.24,321.10 L 413.65,321.52 Z" fill="#A8C8E8" stroke="none"/>
<path d="M 405.15,319.99 L 403.81,318.77 L 404.06,320.07 L 403.47,320.92 L 403.53,319.06 L 402.74,318.53 L 401.67,318.81 L 401.08,317.73 L 400.67,319.42 L 399.83,317.30 L 401.12,316.45 L 401.16,317.10 L 402.30,316.97 L 402.07,317.73 L 403.37,318.08 L 404.09,316.87 L 403.77,318.13 L 404.52,317.89 L 404.69,318.70 L 405.41,318.86 L 405.26,319.57 L 407.16,319.66 L 405.15,319.99 Z" fill="#A8C8E8" stroke="none"/>
<path d="M 391.04,397.24 L 389.65,399.55 L 388.76,399.62 L 387.98,398.36 L 386.98,398.71 L 386.26,400.81 L 384.66,401.58 L 384.50,404.49 L 383.80,405.04 L 383.13,400.69 L 385.42,399.90 L 385.72,398.91 L 385.21,398.33 L 387.72,397.16 L 388.25,396.06 L 389.69,395.38 L 389.29,394.87 L 390.50,393.71 L 390.19,394.94 L 391.04,395.98 L 391.04,397.24 Z" fill="#A8C8E8" stroke="none"/>
<path d="M 316.14,382.99 L 313.24,383.07 L 312.34,383.84 L 310.12,381.87 L 312.62,381.04 L 312.93,380.36 L 315.02,380.58 L 316.36,381.44 L 316.14,382.99 Z" fill="#A8C8E8" stroke="none"/>
<path d="M 280.11,288.89 L 279.24,289.70 L 278.61,287.26 L 277.62,286.54 L 278.16,285.81 L 277.27,285.25 L 278.78,283.06 L 278.66,282.01 L 277.49,281.18 L 278.29,280.38 L 278.95,280.61 L 278.53,281.65 L 279.03,282.20 L 278.39,285.35 L 280.10,287.79 L 280.11,288.89 Z" fill="#A8C8E8" stroke="none"/>
<path d="M 181.03,62.60 L 180.68,63.01 L 179.89,63.02 L 179.52,63.56 L 179.85,63.04 L 178.88,62.55 L 178.65,63.83 L 178.25,63.29 L 177.61,63.62 L 179.63,61.20 L 180.05,61.87 L 179.42,62.36 L 181.03,62.60 Z" fill="#A8C8E8" stroke="none"/>
</svg>