<svg xmlns="http://www.w3.org/2000/svg" width="800" height="500" viewBox="0 0 800 500">
<rect width="800" height="500" fill="#A8C8E8"/>
<path d="M 202.24,279.96 L 204.68,280.47 L 203.86,281.27 L 206.12,287.10 L 205.70,287.73 L 211.70,291.64 L 208.87,293.89 L 210.66,295.53 L 210.15,296.62 L 207.88,297.02 L 209.15,298.80 L 208.18,299.55 L 211.34,301.18 L 210.32,302.12 L 210.51,303.49 L 212.05,303.86 L 214.36,306.46 L 215.60,311.82 L 217.10,313.02 L 218.22,316.58 L 217.91,318.75 L 220.91,319.38 L 225.59,318.78 L 227.58,320.21 L 223.73,328.46 L 213.95,331.30 L 211.17,333.04 L 210.32,334.38 L 212.60,337.22 L 210.95,337.70 L 209.95,339.73 L 212.13,345.39 L 210.29,346.67 L 210.07,347.90 L 213.28,351.43 L 213.00,352.61 L 210.17,353.55 L 207.64,353.21 L 203.48,359.87 L 198.35,363.45 L 196.68,369.06 L 194.06,370.66 L 195.44,374.73 L 194.73,376.86 L 196.33,377.58 L 194.90,379.29 L 192.59,379.20 L 190.75,383.80 L 191.56,384.59 L 189.98,385.50 L 189.33,385.01 L 188.51,385.80 L 187.98,388.84 L 189.37,391.01 L 191.80,391.84 L 191.36,392.68 L 190.20,392.73 L 192.73,396.19 L 192.78,398.22 L 194.51,399.33 L 193.30,401.68 L 194.40,402.71 L 196.32,402.45 L 196.86,403.36 L 195.46,406.50 L 196.41,410.20 L 193.87,410.66 L 193.76,411.65 L 191.01,414.30 L 190.23,417.67 L 188.10,418.42 L 189.76,419.20 L 190.22,424.82 L 186.64,426.48 L 186.55,427.67 L 182.95,428.23 L 182.80,429.86 L 181.82,429.86 L 181.27,431.07 L 181.93,431.97 L 181.14,432.14 L 182.45,433.19 L 181.16,434.71 L 182.13,436.10 L 181.38,438.02 L 183.35,440.94 L 183.72,443.77 L 185.23,445.05 L 184.04,446.36 L 179.00,447.67 L 177.86,453.20 L 175.52,453.20 L 176.60,455.67 L 175.86,457.19 L 174.42,457.14 L 174.31,458.08 L 175.97,458.99 L 172.85,462.17 L 174.00,463.91 L 173.42,467.35 L 173.98,468.95 L 173.18,469.64 L 175.28,473.09 L 173.20,473.83 L 171.92,473.58 L 170.88,474.72 L 171.92,476.27 L 170.71,477.16 L 170.92,480.77 L 175.20,481.95 L 175.12,482.79 L 173.45,483.01 L 172.85,483.98 L 175.52,485.25 L 175.58,485.91 L 174.36,486.50 L 176.12,487.85 L 173.92,489.30 L 174.53,490.96 L 173.90,491.46 L 181.11,491.86 L 182.08,492.84 L 180.13,494.81 L 171.37,494.71 L 171.54,495.67 L 176.91,496.28 L 179.92,498.59 L 177.80,499.72 L 177.89,500.00 L 161.25,500.00 L 163.16,499.80 L 158.44,498.44 L 156.32,498.69 L 156.30,498.05 L 157.91,497.61 L 156.88,496.36 L 159.98,496.04 L 164.30,494.52 L 164.83,492.79 L 165.73,492.49 L 165.81,491.17 L 164.36,492.46 L 161.95,490.90 L 159.25,490.43 L 159.86,489.61 L 158.07,489.66 L 159.05,488.93 L 159.99,489.13 L 159.74,488.32 L 161.14,486.61 L 163.22,486.90 L 162.97,485.87 L 162.42,486.46 L 160.67,486.16 L 162.32,485.30 L 160.99,485.13 L 160.05,484.12 L 160.34,482.96 L 162.25,482.31 L 162.01,481.22 L 162.78,480.58 L 164.22,481.07 L 164.08,479.71 L 162.78,478.44 L 163.05,476.62 L 166.38,476.89 L 163.01,474.65 L 165.77,473.88 L 167.71,475.94 L 167.21,472.23 L 164.19,472.53 L 162.52,471.70 L 165.21,470.20 L 166.88,470.15 L 169.00,469.60 L 169.00,467.46 L 167.64,469.73 L 165.61,470.07 L 164.03,468.80 L 161.75,468.28 L 160.04,469.10 L 160.63,469.99 L 159.71,470.45 L 155.58,470.84 L 152.86,470.40 L 153.56,469.51 L 155.14,469.28 L 155.80,468.50 L 154.47,469.21 L 152.44,468.94 L 150.86,464.81 L 151.96,461.74 L 153.21,460.75 L 152.61,459.80 L 153.97,457.27 L 153.40,456.14 L 156.20,455.06 L 157.09,455.60 L 156.78,453.95 L 158.79,451.73 L 158.96,449.94 L 155.26,443.74 L 156.15,440.78 L 153.90,438.17 L 154.64,435.95 L 153.74,435.15 L 154.55,433.61 L 156.18,434.30 L 158.97,433.64 L 159.67,431.03 L 158.98,430.56 L 159.82,430.25 L 159.97,429.13 L 160.50,430.07 L 161.48,429.88 L 161.43,428.53 L 163.21,426.65 L 163.49,424.17 L 165.89,422.51 L 165.20,420.88 L 169.80,417.27 L 172.48,411.17 L 172.15,409.46 L 176.51,404.65 L 174.99,401.13 L 177.14,400.33 L 178.91,395.40 L 177.43,393.95 L 177.88,391.42 L 175.53,381.21 L 176.37,378.22 L 177.43,378.57 L 179.02,377.70 L 178.86,376.22 L 180.30,375.32 L 180.01,371.55 L 178.04,369.97 L 177.65,367.79 L 181.34,363.51 L 183.01,357.59 L 184.40,357.23 L 183.88,353.54 L 185.77,352.22 L 185.40,351.17 L 187.53,346.97 L 186.96,346.68 L 187.47,344.04 L 186.31,342.87 L 187.34,340.41 L 189.58,338.99 L 188.05,332.42 L 188.99,326.49 L 190.18,324.83 L 189.01,323.97 L 187.51,324.35 L 187.86,322.16 L 188.28,320.68 L 188.90,320.28 L 189.80,320.91 L 191.28,319.42 L 192.38,311.27 L 193.86,307.65 L 192.61,304.30 L 193.10,303.66 L 192.14,302.67 L 192.99,294.96 L 191.82,292.95 L 192.30,292.44 L 190.56,286.34 L 191.15,283.72 L 190.14,282.85 L 194.84,282.16 L 196.91,280.00 L 196.17,277.68 L 199.94,276.20 L 202.24,279.96 Z M 158.77,498.86 L 161.09,500.00 L 155.80,500.00 L 158.77,498.86 Z M 75.14,406.20 L 75.54,405.81 L 75.94,406.46 L 75.14,406.20 Z M 97.51,405.47 L 94.92,405.58 L 96.10,404.93 L 97.51,405.47 Z M 84.96,347.06 L 84.96,347.09 L 84.75,347.11 L 84.96,347.06 Z M 82.75,346.44 L 82.55,346.44 L 82.69,346.37 L 82.75,346.44 Z M 153.98,500.00 L 153.85,500.00 L 153.90,499.95 L 153.98,500.00 Z M 150.55,500.00 L 149.38,500.00 L 149.50,499.84 L 150.55,500.00 Z M 145.27,499.88 L 145.21,500.00 L 144.50,500.00 L 145.27,499.88 Z M 151.07,499.90 L 149.95,499.60 L 150.86,499.39 L 152.15,499.62 L 151.07,499.90 Z M 146.77,499.57 L 146.02,499.66 L 144.38,498.81 L 146.77,499.57 Z M 152.57,499.13 L 150.07,499.28 L 148.35,498.47 L 149.43,498.09 L 150.36,498.62 L 152.15,498.58 L 152.57,499.13 Z M 146.60,498.87 L 145.55,498.31 L 145.91,497.69 L 147.17,498.12 L 146.60,498.87 Z M 152.77,498.73 L 151.95,498.37 L 150.32,498.42 L 147.43,497.33 L 148.28,496.66 L 151.69,496.41 L 153.37,497.37 L 152.77,498.73 Z M 148.39,495.37 L 151.17,496.05 L 146.25,496.54 L 148.39,495.37 Z M 149.41,495.28 L 148.13,494.90 L 150.25,494.63 L 150.63,494.93 L 149.41,495.28 Z M 151.82,494.60 L 152.84,495.89 L 151.50,495.88 L 150.97,494.76 L 151.82,494.60 Z M 138.78,495.68 L 137.44,495.82 L 136.93,494.91 L 138.12,494.82 L 138.78,495.68 Z M 154.33,495.09 L 152.98,494.87 L 153.07,494.49 L 154.58,494.41 L 154.33,495.09 Z M 145.85,495.31 L 144.36,494.39 L 145.47,494.19 L 146.42,494.90 L 145.85,495.31 Z M 145.01,494.02 L 142.79,493.81 L 143.31,493.42 L 145.01,494.02 Z M 151.58,494.00 L 147.34,494.88 L 145.62,493.93 L 147.25,493.27 L 151.02,493.48 L 151.58,494.00 Z M 141.92,493.77 L 141.30,493.84 L 141.07,493.10 L 141.92,493.77 Z M 154.73,494.10 L 152.95,494.38 L 152.18,493.08 L 153.75,492.80 L 154.73,494.10 Z M 148.73,492.82 L 146.12,492.77 L 146.94,492.44 L 148.73,492.82 Z M 148.61,492.11 L 148.35,491.89 L 150.52,492.22 L 150.79,492.79 L 148.73,492.60 L 149.81,492.43 L 148.61,492.11 Z M 144.41,492.66 L 144.21,492.07 L 147.33,491.75 L 147.73,492.18 L 145.55,492.49 L 144.41,492.66 Z M 151.68,492.17 L 151.19,491.62 L 151.45,491.40 L 152.53,491.83 L 151.68,492.17 Z M 158.61,493.56 L 158.17,492.78 L 159.82,492.81 L 158.61,492.54 L 158.55,491.94 L 160.88,492.32 L 160.28,491.66 L 161.26,491.33 L 162.10,491.94 L 161.49,492.54 L 162.70,491.94 L 164.37,492.67 L 163.35,493.54 L 161.49,493.26 L 163.08,494.13 L 158.43,495.97 L 156.77,495.03 L 158.98,494.85 L 156.92,494.76 L 156.10,493.59 L 157.04,493.15 L 158.61,493.56 Z M 152.53,491.50 L 154.04,491.25 L 153.21,491.55 L 153.76,491.92 L 152.53,491.50 Z M 151.02,491.28 L 150.86,492.05 L 148.96,491.06 L 151.02,491.28 Z M 158.52,490.90 L 159.32,491.39 L 159.32,491.44 L 158.37,491.55 L 158.52,490.90 Z M 150.95,491.07 L 150.48,490.76 L 152.36,490.57 L 150.95,491.07 Z M 146.84,490.51 L 146.99,490.82 L 145.66,490.72 L 146.84,490.51 Z M 153.80,490.37 L 153.90,490.56 L 153.28,490.87 L 153.80,490.37 Z M 149.49,489.63 L 151.38,490.36 L 150.10,490.50 L 150.01,491.06 L 149.00,490.26 L 149.49,489.63 Z M 146.47,489.96 L 145.93,489.72 L 146.24,489.61 L 147.14,489.63 L 146.47,489.96 Z M 151.91,489.96 L 150.02,489.58 L 150.73,489.28 L 151.91,489.96 Z M 147.13,488.53 L 147.90,488.59 L 146.90,488.70 L 147.13,488.53 Z M 154.21,488.48 L 154.27,489.43 L 153.21,488.81 L 153.03,488.07 L 154.21,488.48 Z M 158.13,487.92 L 159.51,487.49 L 159.60,488.57 L 158.13,487.92 Z M 151.70,486.54 L 152.84,487.55 L 151.00,487.16 L 150.48,487.38 L 151.24,487.71 L 150.25,487.93 L 148.37,487.44 L 151.70,486.54 Z M 142.03,484.68 L 144.03,485.45 L 141.80,485.85 L 141.14,485.52 L 142.03,484.68 Z M 155.16,479.78 L 157.24,480.35 L 156.30,480.38 L 154.51,479.92 L 155.16,479.78 Z M 154.45,477.53 L 152.92,477.21 L 154.40,476.97 L 154.45,477.53 Z M 154.49,476.04 L 154.12,475.41 L 155.26,475.45 L 156.71,476.63 L 154.49,476.04 Z M 159.71,474.93 L 159.13,474.41 L 159.67,474.65 L 160.31,474.40 L 159.71,474.93 Z M 165.51,473.25 L 166.16,472.83 L 166.72,473.00 L 166.35,473.55 L 165.51,473.25 Z M 145.69,482.33 L 147.66,480.61 L 148.75,477.97 L 148.10,475.88 L 148.44,474.35 L 149.61,473.46 L 150.11,471.52 L 149.50,470.86 L 151.12,470.68 L 151.36,471.16 L 150.14,471.18 L 152.75,471.63 L 153.63,470.89 L 155.02,470.85 L 155.72,471.19 L 154.87,471.98 L 156.23,472.77 L 155.72,473.35 L 157.09,474.65 L 153.90,475.25 L 153.65,476.04 L 154.51,476.52 L 152.93,476.69 L 152.84,476.08 L 152.15,476.54 L 152.32,477.29 L 155.83,478.98 L 155.64,479.45 L 153.44,479.37 L 155.72,481.45 L 152.69,481.37 L 153.87,483.34 L 151.89,483.82 L 145.69,482.33 Z M 160.33,470.40 L 160.54,470.31 L 161.25,471.17 L 160.31,471.16 L 160.33,470.40 Z M 147.65,483.74 L 147.35,483.85 L 147.06,483.78 L 147.40,483.24 L 147.65,483.74 Z M 154.01,482.00 L 153.96,482.39 L 153.32,482.16 L 154.01,482.00 Z M 162.05,478.21 L 162.18,478.72 L 161.76,478.89 L 161.18,477.99 L 162.05,478.21 Z M 158.61,477.48 L 158.63,477.63 L 157.33,477.46 L 158.61,477.48 Z M 151.18,443.66 L 150.72,442.88 L 150.97,442.97 L 151.18,443.66 Z M 155.49,432.16 L 156.34,432.84 L 155.53,433.00 L 155.49,432.16 Z" fill="#E8E0D0" stroke="#B8B0A0" stroke-width="0.5"/>
<path d="M 364.92,117.31 L 367.57,116.05 L 369.85,113.09 L 369.39,110.89 L 371.70,108.26 L 371.79,106.92 L 369.06,104.89 L 367.23,102.37 L 366.34,96.67 L 368.28,94.08 L 371.05,92.39 L 372.46,89.92 L 383.95,92.64 L 389.57,96.72 L 390.79,96.44 L 390.11,98.10 L 391.31,96.89 L 393.61,98.35 L 394.43,100.26 L 393.37,101.23 L 394.59,100.76 L 394.89,98.65 L 396.08,98.99 L 397.77,102.68 L 389.95,110.70 L 389.35,112.74 L 386.23,116.94 L 383.02,118.54 L 379.83,118.36 L 380.21,117.91 L 379.00,117.12 L 376.92,117.95 L 374.34,116.97 L 370.50,119.01 L 364.92,117.31 Z M 295.63,20.52 L 295.65,19.98 L 293.43,20.05 L 293.02,19.65 L 294.24,19.26 L 292.43,18.45 L 291.77,17.01 L 295.53,17.56 L 294.89,18.45 L 296.30,20.09 L 295.63,20.52 Z M 291.15,8.78 L 290.52,8.31 L 291.22,7.69 L 292.05,8.31 L 291.15,8.78 Z M 293.44,5.35 L 293.18,5.32 L 293.76,5.01 L 293.44,5.35 Z M 287.93,7.50 L 286.50,8.17 L 285.36,5.27 L 286.02,4.84 L 288.09,5.48 L 287.93,7.50 Z M 289.07,3.66 L 290.15,4.97 L 292.38,5.74 L 289.08,6.15 L 288.17,5.48 L 289.07,3.66 Z M 287.37,8.89 L 287.25,8.99 L 287.13,8.94 L 287.37,8.89 Z M 287.75,8.87 L 287.60,8.87 L 287.77,8.72 L 287.75,8.87 Z" fill="#E8E0D0" stroke="#B8B0A0" stroke-width="0.5"/>
<path d="M 43.38,48.42 L 44.09,49.37 L 43.61,48.96 L 43.46,50.06 L 44.14,49.68 L 48.26,54.80 L 52.87,58.46 L 55.36,59.53 L 54.39,59.94 L 52.21,59.03 L 52.22,59.90 L 51.16,60.19 L 51.19,63.37 L 53.63,64.47 L 51.37,65.80 L 52.20,68.13 L 49.94,69.23 L 51.14,69.87 L 51.78,71.04 L 51.65,71.58 L 50.87,70.08 L 48.85,68.90 L 49.49,68.28 L 48.62,66.75 L 45.18,66.15 L 47.33,67.52 L 47.33,68.84 L 44.14,68.29 L 42.36,67.11 L 44.14,65.54 L 43.40,65.59 L 44.14,64.83 L 43.49,63.49 L 37.13,60.12 L 32.61,59.21 L 31.32,56.10 L 30.02,56.10 L 30.71,55.94 L 25.16,53.57 L 26.30,55.55 L 29.86,57.20 L 27.06,59.40 L 25.05,57.37 L 21.01,56.64 L 19.02,53.98 L 19.40,51.71 L 21.37,50.86 L 20.61,50.94 L 20.83,49.46 L 17.88,48.64 L 20.49,48.40 L 20.10,47.64 L 20.97,47.50 L 21.74,46.14 L 29.13,48.29 L 31.95,47.26 L 34.59,48.21 L 35.50,47.87 L 37.32,49.57 L 39.34,49.51 L 40.36,50.12 L 43.17,49.37 L 42.80,48.33 L 43.38,48.42 Z M 27.29,55.16 L 26.16,54.89 L 27.14,54.95 L 27.29,55.16 Z M 4.91,91.76 L 5.50,91.42 L 5.49,91.61 L 4.91,91.76 Z M 40.73,66.15 L 40.89,66.14 L 40.79,66.26 L 40.73,66.15 Z" fill="#E8E0D0" stroke="#B8B0A0" stroke-width="0.5"/>
<path d="M 11.79,41.74 L 8.73,38.23 L 0.00,33.34 L 0.00,31.25 L 1.87,32.49 L 3.01,32.45 L 2.01,32.30 L 2.73,31.95 L 5.82,31.96 L 7.07,31.11 L 7.20,29.88 L 9.49,29.41 L 8.80,25.83 L 13.52,25.74 L 16.22,23.44 L 20.14,25.20 L 20.31,24.07 L 26.49,21.21 L 26.75,19.27 L 28.04,19.07 L 27.77,18.48 L 29.43,17.25 L 30.67,17.21 L 31.70,18.38 L 34.10,18.83 L 35.42,18.06 L 36.48,18.36 L 36.54,17.71 L 37.58,18.06 L 38.20,17.43 L 40.28,17.67 L 43.70,16.80 L 44.88,15.69 L 49.07,15.80 L 47.26,17.35 L 46.95,16.47 L 46.42,16.72 L 45.81,17.35 L 47.20,17.61 L 48.45,21.00 L 45.74,24.14 L 44.32,28.47 L 45.18,36.47 L 43.46,36.72 L 43.46,35.29 L 44.37,34.72 L 44.27,33.30 L 43.36,33.51 L 43.99,34.75 L 41.94,35.54 L 43.03,37.57 L 43.68,37.02 L 43.09,39.91 L 42.79,38.73 L 42.45,38.44 L 41.90,38.39 L 42.62,38.81 L 41.61,39.33 L 42.10,40.24 L 41.26,40.84 L 42.01,41.38 L 42.77,41.01 L 43.30,42.86 L 42.09,43.36 L 40.90,45.63 L 43.17,49.37 L 40.25,50.11 L 39.34,49.51 L 37.32,49.57 L 35.50,47.87 L 34.59,48.21 L 31.95,47.26 L 29.13,48.29 L 21.74,46.14 L 20.59,47.18 L 11.79,41.74 Z M 43.04,48.42 L 42.91,48.32 L 42.96,48.31 L 43.04,48.42 Z M 42.36,40.28 L 42.69,39.92 L 42.54,40.85 L 42.36,40.28 Z M 49.90,38.48 L 50.16,38.28 L 50.28,38.36 L 49.90,38.48 Z M 53.48,20.83 L 53.28,20.89 L 52.64,20.86 L 53.48,20.83 Z" fill="#E8E0D0" stroke="#B8B0A0" stroke-width="0.5"/>
<path d="M 214.39,38.87 L 213.85,39.62 L 213.31,38.19 L 212.04,37.75 L 212.49,37.33 L 214.32,37.99 L 214.39,38.87 Z" fill="#E8E0D0" stroke="#B8B0A0" stroke-width="0.5"/>
<path d="M 796.21,36.29 L 790.17,36.17 L 784.56,37.15 L 783.76,35.85 L 786.21,34.74 L 786.72,35.28 L 788.52,35.40 L 792.30,34.74 L 794.40,35.35 L 795.63,35.07 L 796.56,35.51 L 798.06,34.72 L 797.78,33.54 L 799.20,33.41 L 799.37,33.10 L 797.62,33.45 L 797.70,34.61 L 796.61,35.33 L 795.20,34.80 L 793.59,35.00 L 792.39,33.97 L 791.78,34.69 L 788.52,35.29 L 787.08,34.14 L 787.00,34.80 L 785.60,34.45 L 786.09,33.71 L 786.02,33.43 L 785.46,34.75 L 784.27,35.23 L 784.02,34.38 L 784.89,33.91 L 783.81,34.08 L 783.74,33.29 L 784.78,30.55 L 794.48,30.54 L 794.64,29.13 L 800.00,28.79 L 800.00,34.93 L 796.21,36.29 Z M 799.34,25.62 L 797.97,27.13 L 786.41,27.10 L 786.99,25.87 L 786.00,26.56 L 785.65,25.71 L 786.47,25.03 L 787.24,25.36 L 787.24,23.77 L 784.88,25.64 L 784.36,24.18 L 786.25,23.88 L 786.09,23.44 L 788.59,22.45 L 787.44,22.24 L 785.38,23.77 L 784.64,23.66 L 785.41,22.99 L 784.57,23.27 L 784.05,25.08 L 783.92,23.31 L 782.04,20.66 L 779.07,18.26 L 776.93,17.88 L 776.68,18.55 L 775.62,17.72 L 779.64,16.57 L 782.90,13.91 L 786.71,9.50 L 787.47,6.37 L 789.36,3.68 L 791.17,3.32 L 796.26,3.91 L 798.57,3.11 L 800.00,3.11 L 800.00,25.55 L 799.34,25.62 Z" fill="#E8E0D0" stroke="#B8B0A0" stroke-width="0.5"/>
<path d="M 0.90,9.48 L 2.39,8.97 L 7.13,9.69 L 13.14,9.60 L 18.03,8.27 L 18.18,7.74 L 17.20,7.52 L 20.58,7.96 L 22.95,8.81 L 28.37,7.86 L 31.95,8.76 L 32.13,9.57 L 34.43,9.40 L 32.33,8.87 L 36.18,9.28 L 42.43,12.56 L 39.40,11.47 L 38.29,11.36 L 38.45,11.91 L 38.00,11.36 L 37.08,11.36 L 40.12,13.70 L 41.41,13.61 L 39.15,12.50 L 41.50,13.20 L 42.10,14.16 L 43.61,13.41 L 44.67,13.50 L 44.62,14.09 L 43.95,13.88 L 43.63,14.37 L 45.18,14.05 L 44.65,13.37 L 43.76,13.34 L 42.73,12.56 L 46.00,13.64 L 47.37,15.23 L 49.07,15.80 L 44.88,15.69 L 43.70,16.80 L 40.28,17.67 L 38.20,17.43 L 37.58,18.06 L 36.54,17.71 L 36.48,18.36 L 35.42,18.06 L 34.10,18.83 L 31.70,18.38 L 30.67,17.21 L 29.43,17.25 L 27.77,18.48 L 28.04,19.07 L 26.75,19.27 L 26.49,21.21 L 20.31,24.07 L 20.14,25.20 L 18.07,24.49 L 17.07,23.35 L 13.52,25.74 L 8.80,25.83 L 9.49,29.41 L 7.20,29.88 L 7.07,31.11 L 5.82,31.96 L 2.73,31.95 L 2.85,31.01 L 1.57,30.91 L 0.54,29.50 L 1.78,28.51 L 0.00,28.74 L 0.00,8.61 L 0.90,9.48 Z M 7.56,7.02 L 6.24,7.10 L 6.83,6.83 L 7.56,7.02 Z M 12.41,4.59 L 13.61,4.33 L 15.28,4.34 L 10.57,5.48 L 12.41,4.59 Z M 18.94,3.62 L 19.32,3.78 L 17.88,4.54 L 18.94,3.62 Z" fill="#E8E0D0" stroke="#B8B0A0" stroke-width="0.5"/>
<path d="M 104.57,128.57 L 107.58,129.46 L 109.19,129.19 L 109.83,130.21 L 111.79,130.73 L 112.57,132.84 L 121.79,134.22 L 123.53,133.91 L 123.44,132.73 L 124.72,132.25 L 127.46,133.03 L 130.07,135.14 L 135.99,136.80 L 132.00,136.98 L 136.24,140.30 L 135.84,141.93 L 136.61,143.72 L 134.63,143.28 L 132.78,148.26 L 127.04,153.00 L 120.47,156.56 L 107.36,159.90 L 103.72,162.89 L 104.09,163.80 L 103.39,164.04 L 102.01,163.10 L 101.25,166.32 L 98.34,170.61 L 98.45,172.41 L 95.95,173.55 L 95.93,174.75 L 94.12,176.09 L 91.46,175.69 L 89.83,174.48 L 89.21,172.25 L 87.54,171.51 L 85.60,171.83 L 82.19,170.26 L 79.51,171.81 L 78.29,171.30 L 79.92,169.58 L 78.55,169.70 L 78.30,168.11 L 80.14,168.12 L 81.92,167.11 L 80.80,163.40 L 79.97,162.93 L 84.27,161.56 L 86.78,156.73 L 85.20,153.26 L 86.34,152.01 L 84.94,152.90 L 84.90,156.32 L 83.04,156.59 L 84.53,155.85 L 83.37,155.77 L 84.30,154.43 L 83.61,154.58 L 81.81,156.67 L 80.65,156.88 L 80.92,157.82 L 76.47,155.30 L 73.63,154.52 L 72.53,153.31 L 74.10,153.60 L 75.58,152.32 L 74.27,148.67 L 75.50,146.71 L 73.67,144.32 L 74.70,143.53 L 77.43,143.25 L 78.77,140.80 L 79.55,141.22 L 80.43,141.25 L 79.41,140.96 L 78.25,139.00 L 83.18,135.23 L 83.85,133.02 L 82.55,130.38 L 82.91,129.41 L 87.56,127.91 L 87.40,128.56 L 88.01,129.18 L 87.82,128.05 L 92.99,127.14 L 94.19,126.19 L 94.92,126.98 L 95.61,125.99 L 95.91,126.04 L 96.24,125.62 L 96.90,125.71 L 96.13,125.38 L 96.72,124.46 L 104.57,128.57 Z M 84.77,157.84 L 82.30,160.15 L 80.80,160.13 L 81.41,157.78 L 83.08,157.28 L 84.77,157.84 Z M 95.94,125.76 L 95.30,126.04 L 94.87,125.64 L 95.91,124.94 L 95.94,125.76 Z M 86.27,156.31 L 85.11,157.17 L 85.06,156.99 L 85.74,155.86 L 86.27,156.31 Z" fill="#E8E0D0" stroke="#B8B0A0" stroke-width="0.5"/>
<path d="M 331.48,377.75 L 331.83,377.81 L 331.39,377.83 L 331.48,377.75 Z" fill="#E8E0D0" stroke="#B8B0A0" stroke-width="0.5"/>
<path d="M 799.74,46.67 L 798.99,45.53 L 800.00,44.85 L 800.00,46.70 L 799.74,46.67 Z M 799.91,44.79 L 799.79,44.11 L 798.09,44.96 L 798.46,43.86 L 800.00,43.47 L 800.00,44.74 L 799.91,44.79 Z M 798.85,43.36 L 798.98,42.27 L 798.43,42.58 L 797.60,41.95 L 798.85,40.73 L 800.00,40.78 L 800.00,42.58 L 798.85,43.36 Z M 798.98,40.12 L 794.51,41.83 L 795.57,40.95 L 794.89,40.73 L 793.08,41.94 L 794.12,40.03 L 795.73,40.07 L 795.80,39.69 L 794.14,39.58 L 791.25,40.73 L 788.70,39.11 L 791.93,37.00 L 787.56,38.43 L 784.56,37.15 L 790.17,36.17 L 796.21,36.29 L 800.00,34.93 L 800.00,40.30 L 798.98,40.12 Z M 793.99,47.23 L 792.87,47.44 L 793.45,47.10 L 793.22,46.22 L 793.99,47.23 Z M 792.91,46.89 L 792.44,47.27 L 792.00,46.51 L 792.91,46.89 Z M 791.17,47.59 L 789.88,46.98 L 791.52,46.16 L 792.09,46.88 L 791.17,47.59 Z M 794.56,45.48 L 794.06,46.22 L 793.78,45.83 L 794.56,45.48 Z M 796.41,45.95 L 795.14,46.44 L 795.35,45.61 L 796.41,45.40 L 796.41,45.95 Z M 789.85,46.08 L 789.51,45.88 L 790.34,45.34 L 790.71,46.05 L 789.85,46.08 Z M 796.18,44.30 L 795.56,44.22 L 796.03,43.80 L 796.18,44.30 Z M 789.28,44.19 L 790.80,43.69 L 790.26,44.30 L 789.28,44.19 Z M 787.98,43.91 L 787.91,43.58 L 789.88,43.15 L 789.58,43.85 L 787.98,43.91 Z M 793.30,42.98 L 793.76,44.19 L 792.24,44.46 L 791.70,44.08 L 793.30,42.98 Z M 798.48,43.29 L 796.73,43.59 L 797.85,42.82 L 798.48,43.29 Z M 792.22,40.62 L 792.79,40.71 L 792.17,41.77 L 790.80,40.84 L 792.22,40.62 Z" fill="#E8E0D0" stroke="#B8B0A0" stroke-width="0.5"/>
<path d="M 57.80,60.38 L 57.71,62.19 L 59.70,62.25 L 58.71,62.53 L 58.90,63.81 L 60.51,64.40 L 64.08,64.32 L 62.33,62.81 L 62.89,62.41 L 66.70,65.34 L 69.30,65.59 L 74.64,64.72 L 77.33,63.20 L 82.31,62.19 L 84.26,60.85 L 84.53,61.41 L 85.17,60.61 L 86.04,61.05 L 87.84,58.97 L 95.15,59.25 L 94.18,60.18 L 100.89,60.57 L 105.49,61.95 L 107.50,63.41 L 107.45,62.96 L 110.94,66.13 L 112.84,66.53 L 111.56,68.06 L 115.17,72.34 L 113.65,72.64 L 112.77,73.66 L 113.21,74.20 L 110.55,75.64 L 108.51,74.21 L 108.88,75.62 L 106.80,77.93 L 102.66,74.33 L 101.07,71.39 L 103.11,70.92 L 102.51,69.82 L 103.69,69.66 L 104.43,68.61 L 105.87,69.96 L 107.16,69.98 L 108.36,70.93 L 108.81,70.81 L 107.22,69.91 L 105.64,69.53 L 104.92,67.75 L 104.41,67.36 L 104.86,68.57 L 104.16,68.12 L 103.23,68.78 L 103.65,68.46 L 103.43,67.52 L 103.43,68.35 L 103.05,67.85 L 101.83,68.46 L 101.38,67.47 L 101.90,68.70 L 101.30,69.00 L 99.10,65.65 L 98.68,66.19 L 93.90,63.94 L 93.93,63.34 L 93.63,63.18 L 94.05,63.10 L 94.24,62.85 L 94.52,62.96 L 95.07,62.68 L 94.24,62.80 L 93.50,63.18 L 93.54,63.89 L 90.09,63.74 L 89.15,64.66 L 88.55,64.17 L 88.58,64.71 L 86.49,65.32 L 86.55,66.27 L 85.67,66.74 L 87.10,66.66 L 86.25,67.21 L 78.54,70.09 L 78.38,71.20 L 83.17,74.76 L 83.55,76.21 L 82.25,76.47 L 80.88,76.36 L 80.35,76.47 L 78.90,77.89 L 74.20,78.22 L 71.72,73.63 L 72.43,73.28 L 72.08,72.57 L 71.70,73.12 L 70.54,72.95 L 70.46,72.71 L 70.26,72.68 L 70.85,73.55 L 69.95,73.83 L 70.26,74.99 L 67.97,74.49 L 66.30,73.78 L 65.92,71.97 L 64.82,71.61 L 64.40,70.32 L 64.03,70.87 L 62.36,69.99 L 60.31,69.99 L 59.86,70.59 L 59.17,70.10 L 59.55,69.11 L 52.64,69.49 L 51.65,71.58 L 51.14,69.87 L 49.94,69.23 L 52.20,68.13 L 51.37,65.80 L 53.63,64.47 L 51.19,63.37 L 51.16,60.19 L 52.22,59.90 L 52.21,59.03 L 54.59,59.96 L 55.24,59.23 L 57.80,60.38 Z M 64.18,77.57 L 63.88,78.06 L 63.63,77.69 L 64.18,77.57 Z M 72.30,75.26 L 69.88,75.94 L 70.74,75.61 L 72.30,75.26 Z M 66.16,77.18 L 64.40,77.07 L 62.98,75.94 L 64.25,74.71 L 66.16,77.18 Z M 58.87,70.48 L 58.10,70.14 L 58.56,69.99 L 58.87,70.48 Z M 57.31,70.15 L 56.82,69.77 L 57.72,69.50 L 57.31,70.15 Z M 94.09,69.77 L 93.46,70.18 L 93.39,69.56 L 94.09,69.77 Z M 57.79,70.87 L 58.04,70.81 L 58.07,71.06 L 57.79,70.87 Z M 93.38,68.61 L 93.51,68.42 L 93.91,68.52 L 93.38,68.61 Z M 60.77,61.53 L 60.06,61.88 L 59.25,61.05 L 60.77,61.53 Z M 58.64,60.33 L 58.87,61.20 L 58.48,60.84 L 57.96,60.54 L 58.64,60.33 Z M 96.66,69.11 L 95.89,70.10 L 95.10,68.30 L 96.02,68.19 L 96.66,69.11 Z M 88.69,65.42 L 88.80,65.64 L 88.52,65.58 L 88.69,65.42 Z M 66.61,63.02 L 66.75,63.16 L 66.34,63.13 L 66.61,63.02 Z M 61.02,62.39 L 61.48,62.71 L 61.04,62.68 L 61.02,62.39 Z" fill="#E8E0D0" stroke="#B8B0A0" stroke-width="0.5"/>
<path d="M 798.57,3.11 L 796.26,3.91 L 789.60,3.58 L 787.55,6.21 L 786.62,9.30 L 786.77,5.10 L 789.39,0.00 L 800.00,0.00 L 800.00,3.11 L 798.57,3.11 Z" fill="#E8E0D0" stroke="#B8B0A0" stroke-width="0.5"/>
<path d="M 783.44,29.09 L 785.11,27.83 L 787.98,30.13 L 787.76,29.59 L 789.77,29.20 L 790.11,29.75 L 790.31,29.79 L 790.95,29.59 L 790.11,29.13 L 790.84,28.37 L 796.83,28.16 L 797.69,27.72 L 799.93,28.27 L 800.00,28.25 L 800.00,28.79 L 794.64,29.13 L 794.48,30.54 L 785.17,30.48 L 784.28,31.28 L 783.44,29.09 Z M 797.55,27.57 L 791.06,28.16 L 788.30,29.10 L 786.85,28.92 L 786.41,27.10 L 797.97,27.13 L 799.34,25.62 L 800.00,25.54 L 800.00,27.79 L 797.55,27.57 Z" fill="#E8E0D0" stroke="#B8B0A0" stroke-width="0.5"/>
<path d="M 208.47,39.39 L 205.83,38.81 L 203.75,36.71 L 208.47,39.39 Z" fill="#E8E0D0" stroke="#B8B0A0" stroke-width="0.5"/>
<path d="M 195.34,35.65 L 195.75,36.47 L 193.87,35.51 L 193.83,34.80 L 195.34,35.65 Z" fill="#E8E0D0" stroke="#B8B0A0" stroke-width="0.5"/>
<path d="M 294.24,54.73 L 283.91,55.38 L 289.08,53.57 L 288.78,50.78 L 286.80,50.17 L 295.22,49.13 L 294.17,50.23 L 294.24,54.73 Z M 299.37,45.69 L 295.89,46.51 L 297.73,45.45 L 299.40,45.01 L 299.37,45.69 Z" fill="#E8E0D0" stroke="#B8B0A0" stroke-width="0.5"/>
<path d="M 287.20,39.46 L 285.44,39.75 L 286.76,37.92 L 287.41,38.09 L 287.20,39.46 Z M 288.70,36.28 L 289.46,35.57 L 289.53,35.70 L 288.70,36.28 Z" fill="#E8E0D0" stroke="#B8B0A0" stroke-width="0.5"/>
<path d="M 291.51,32.00 L 291.13,31.89 L 291.96,31.39 L 291.51,32.00 Z M 291.10,30.07 L 292.12,28.75 L 292.82,29.33 L 292.34,30.63 L 291.10,30.07 Z M 289.47,35.07 L 289.15,35.12 L 289.15,34.95 L 289.47,35.07 Z M 290.56,34.21 L 290.29,34.23 L 290.48,33.99 L 290.56,34.21 Z M 292.17,32.73 L 292.26,32.75 L 292.12,32.95 L 292.17,32.73 Z" fill="#E8E0D0" stroke="#B8B0A0" stroke-width="0.5"/>
<path d="M 310.71,31.34 L 309.46,31.05 L 309.20,29.21 L 311.62,30.52 L 310.71,31.34 Z" fill="#E8E0D0" stroke="#B8B0A0" stroke-width="0.5"/>
<path d="M 295.39,25.13 L 294.69,26.08 L 293.33,24.75 L 294.93,22.89 L 295.39,25.13 Z" fill="#E8E0D0" stroke="#B8B0A0" stroke-width="0.5"/>
<path d="M 288.78,11.49 L 289.00,10.70 L 290.79,11.14 L 291.34,11.99 L 291.35,13.49 L 290.18,14.16 L 288.78,11.49 Z" fill="#E8E0D0" stroke="#B8B0A0" stroke-width="0.5"/>
<path d="M 280.70,2.25 L 280.88,1.20 L 281.19,1.25 L 280.70,2.25 Z" fill="#E8E0D0" stroke="#B8B0A0" stroke-width="0.5"/>
<path d="M 279.32,0.28 L 279.28,0.30 L 279.26,0.29 L 279.32,0.28 Z" fill="#E8E0D0" stroke="#B8B0A0" stroke-width="0.5"/>
<path d="M 696.45,17.04 L 696.07,17.35 L 695.61,16.85 L 696.45,17.04 Z M 699.85,17.25 L 698.19,16.38 L 699.98,15.42 L 700.74,16.44 L 699.85,17.25 Z M 709.21,16.51 L 707.18,16.03 L 706.32,15.09 L 706.46,13.28 L 707.31,13.27 L 710.04,15.59 L 709.21,16.51 Z M 713.86,14.40 L 712.93,14.80 L 712.31,13.72 L 713.68,13.28 L 713.86,14.40 Z M 717.24,7.88 L 715.50,7.35 L 716.03,5.81 L 718.15,6.06 L 718.62,6.86 L 717.24,7.88 Z M 703.66,3.26 L 701.00,3.06 L 700.42,3.90 L 699.25,2.64 L 703.66,3.26 Z M 715.20,1.23 L 715.96,0.88 L 716.41,2.22 L 715.88,3.01 L 715.20,1.23 Z M 694.15,1.25 L 691.90,1.15 L 693.19,0.37 L 694.15,1.25 Z M 689.64,0.42 L 689.38,0.00 L 690.63,0.00 L 689.64,0.42 Z M 697.71,2.80 L 697.65,2.92 L 697.36,2.88 L 697.71,2.80 Z M 696.45,1.71 L 696.43,1.82 L 695.82,1.89 L 695.45,1.34 L 696.45,1.71 Z" fill="#E8E0D0" stroke="#B8B0A0" stroke-width="0.5"/>
<path d="M 83.88,9.40 L 83.90,9.41 L 83.88,9.42 L 83.88,9.40 Z" fill="#E8E0D0" stroke="#B8B0A0" stroke-width="0.5"/>
<path d="M 98.81,8.86 L 98.85,8.83 L 98.84,8.87 L 98.81,8.86 Z" fill="#E8E0D0" stroke="#B8B0A0" stroke-width="0.5"/>
<path d="M 227.44,317.32 L 227.38,316.40 L 230.12,315.62 L 230.66,314.00 L 235.41,312.81 L 236.35,310.49 L 241.64,313.11 L 249.67,312.97 L 254.36,313.85 L 257.36,319.18 L 258.19,316.52 L 261.55,312.25 L 274.21,312.23 L 276.19,314.64 L 280.45,316.51 L 283.60,320.48 L 288.65,323.47 L 292.98,325.07 L 294.13,326.66 L 301.54,328.35 L 304.90,328.27 L 318.46,334.44 L 322.18,335.04 L 323.70,336.16 L 324.94,335.76 L 330.15,337.68 L 332.32,339.78 L 332.13,340.75 L 329.92,341.85 L 328.84,344.32 L 325.75,345.69 L 325.45,349.45 L 323.66,350.72 L 323.93,351.24 L 322.16,351.75 L 320.19,353.50 L 320.73,354.78 L 327.18,354.33 L 336.51,356.15 L 339.56,355.60 L 341.04,356.31 L 343.53,355.89 L 345.15,356.95 L 348.20,354.64 L 350.77,354.93 L 352.29,355.80 L 354.10,354.88 L 354.03,353.59 L 356.07,352.09 L 359.12,351.88 L 361.54,349.64 L 362.95,349.41 L 364.66,345.82 L 365.08,340.83 L 366.78,341.75 L 367.35,340.88 L 369.62,340.88 L 369.35,340.48 L 370.44,340.19 L 370.64,341.01 L 372.73,341.27 L 373.58,343.94 L 375.48,346.32 L 374.23,349.96 L 374.92,351.48 L 373.61,353.51 L 372.13,353.48 L 370.71,354.53 L 369.77,354.20 L 368.55,355.68 L 362.81,356.47 L 361.62,358.15 L 359.76,358.48 L 360.33,359.06 L 357.18,359.58 L 355.77,360.89 L 352.10,362.12 L 353.30,362.88 L 352.96,363.47 L 350.62,363.29 L 350.66,363.99 L 346.41,366.51 L 344.84,368.83 L 342.74,369.56 L 341.95,370.91 L 337.46,374.30 L 335.27,374.80 L 334.90,376.13 L 331.48,377.75 L 331.27,378.92 L 328.65,380.70 L 329.68,383.24 L 328.49,383.73 L 328.48,386.22 L 326.59,388.10 L 327.65,389.09 L 326.88,390.68 L 325.18,391.45 L 325.36,393.53 L 326.36,394.56 L 324.99,396.23 L 325.80,400.72 L 322.66,401.14 L 322.86,402.71 L 321.65,403.92 L 321.34,405.97 L 323.23,409.84 L 321.11,410.64 L 322.39,411.26 L 322.17,412.51 L 323.94,413.59 L 332.72,416.44 L 335.75,418.33 L 337.08,419.87 L 334.60,422.17 L 334.44,424.25 L 335.75,425.71 L 339.18,427.43 L 341.38,426.89 L 342.13,429.16 L 341.97,431.78 L 333.10,439.03 L 332.32,441.34 L 323.76,444.32 L 307.52,447.09 L 288.46,448.48 L 282.82,447.88 L 281.38,446.87 L 278.91,446.77 L 278.98,447.58 L 280.08,448.02 L 279.16,449.20 L 280.27,450.43 L 279.51,450.42 L 282.86,451.31 L 282.49,451.68 L 279.98,450.87 L 282.50,452.00 L 281.85,454.96 L 279.74,454.88 L 279.14,457.93 L 277.69,458.86 L 280.19,460.81 L 279.47,461.76 L 281.11,461.41 L 279.38,463.39 L 275.04,464.74 L 270.94,465.65 L 263.41,465.68 L 260.28,464.40 L 250.87,462.99 L 252.72,462.78 L 252.15,462.19 L 250.09,462.19 L 250.90,462.56 L 248.43,463.14 L 248.27,465.85 L 249.99,468.60 L 249.07,472.02 L 249.84,473.16 L 251.47,473.97 L 255.64,474.46 L 254.30,475.80 L 256.04,476.00 L 259.82,475.84 L 260.21,474.58 L 257.20,474.32 L 263.53,473.04 L 265.42,474.82 L 265.17,478.44 L 259.77,479.50 L 258.18,478.63 L 258.73,477.51 L 256.12,476.48 L 250.49,477.66 L 249.92,478.70 L 257.62,480.28 L 250.51,482.35 L 246.23,485.74 L 246.88,488.15 L 247.82,488.72 L 246.47,490.04 L 247.49,491.37 L 246.22,492.13 L 246.80,492.58 L 242.77,493.79 L 241.84,494.93 L 244.12,495.91 L 242.24,496.95 L 236.60,496.39 L 233.31,497.16 L 233.57,497.80 L 232.30,497.57 L 233.01,498.18 L 228.52,498.51 L 226.19,500.00 L 177.89,500.00 L 177.80,499.72 L 179.92,498.59 L 176.91,496.28 L 171.54,495.67 L 171.37,494.71 L 180.13,494.81 L 182.08,492.84 L 181.11,491.86 L 173.90,491.46 L 174.53,490.96 L 173.92,489.30 L 176.12,487.85 L 174.36,486.50 L 175.58,485.91 L 175.52,485.25 L 172.85,483.98 L 173.45,483.01 L 175.12,482.79 L 175.20,481.95 L 170.92,480.77 L 170.71,477.16 L 171.92,476.27 L 170.88,474.72 L 171.92,473.58 L 173.20,473.83 L 175.28,473.09 L 173.18,469.64 L 173.98,468.95 L 173.42,467.35 L 174.00,463.91 L 172.85,462.17 L 175.97,458.99 L 174.31,458.08 L 174.42,457.14 L 175.86,457.19 L 176.60,455.67 L 175.52,453.20 L 177.86,453.20 L 179.00,447.67 L 184.04,446.36 L 185.23,445.05 L 183.72,443.77 L 183.35,440.94 L 181.38,438.02 L 182.13,436.10 L 181.16,434.71 L 182.45,433.19 L 181.14,432.14 L 181.93,431.97 L 181.27,431.07 L 181.82,429.86 L 182.80,429.86 L 182.95,428.23 L 186.55,427.67 L 186.64,426.48 L 190.22,424.82 L 189.76,419.20 L 188.10,418.42 L 190.23,417.67 L 191.01,414.30 L 193.76,411.65 L 193.87,410.66 L 196.41,410.20 L 195.46,406.50 L 196.86,403.36 L 196.32,402.45 L 194.40,402.71 L 193.30,401.68 L 194.51,399.33 L 192.78,398.22 L 192.73,396.19 L 190.20,392.73 L 191.36,392.68 L 191.80,391.84 L 189.37,391.01 L 187.98,388.84 L 188.21,386.73 L 189.20,385.07 L 189.98,385.50 L 191.56,384.59 L 190.75,383.80 L 192.59,379.20 L 194.90,379.29 L 196.33,377.58 L 194.73,376.86 L 195.44,374.73 L 194.06,370.66 L 196.68,369.06 L 198.35,363.45 L 203.48,359.87 L 207.64,353.21 L 210.17,353.55 L 213.00,352.61 L 213.28,351.43 L 210.07,347.90 L 210.29,346.67 L 212.13,345.39 L 209.95,339.73 L 210.95,337.70 L 212.60,337.22 L 210.32,334.38 L 211.17,333.04 L 213.95,331.30 L 223.98,328.22 L 227.58,320.21 L 225.59,318.78 L 227.44,317.32 Z M 284.58,450.30 L 282.03,449.09 L 284.01,449.61 L 284.58,450.30 Z M 281.67,448.55 L 282.68,448.43 L 283.48,448.76 L 281.67,448.55 Z M 282.80,460.04 L 281.92,460.91 L 280.49,460.48 L 281.40,459.39 L 282.80,460.04 Z M 282.96,457.80 L 282.89,459.15 L 281.65,457.85 L 282.96,457.80 Z" fill="#C8D8E8" stroke="#8BAABB" stroke-width="0.8"/>
<path d="M 199.80,275.09 L 198.20,274.45 L 198.69,273.62 L 200.85,272.83 L 203.57,269.96 L 205.18,269.50 L 205.28,267.76 L 207.43,266.76 L 205.79,265.81 L 203.54,265.69 L 200.82,261.13 L 203.95,257.98 L 201.33,255.97 L 201.48,254.52 L 202.62,254.12 L 202.99,252.70 L 205.69,251.14 L 205.47,250.07 L 207.09,249.64 L 204.46,245.43 L 205.91,244.11 L 205.80,239.03 L 208.18,237.77 L 207.87,237.05 L 209.08,236.11 L 199.19,223.69 L 207.75,224.03 L 208.07,225.20 L 209.84,224.97 L 213.41,223.90 L 216.18,221.40 L 219.74,221.71 L 221.26,220.08 L 224.16,218.61 L 227.03,218.12 L 231.70,215.32 L 241.16,213.92 L 243.42,214.75 L 245.28,213.50 L 246.58,214.79 L 246.74,217.72 L 244.91,219.81 L 245.41,222.46 L 246.57,223.83 L 245.60,226.29 L 246.35,227.89 L 248.04,229.00 L 247.72,230.01 L 248.21,230.26 L 248.64,229.60 L 249.17,230.10 L 249.79,231.96 L 252.19,232.34 L 252.78,233.24 L 253.33,232.92 L 255.55,234.00 L 255.54,235.07 L 257.78,236.06 L 261.84,236.44 L 263.17,235.73 L 266.66,236.55 L 268.52,237.70 L 271.21,237.31 L 272.18,238.84 L 274.37,240.10 L 275.51,239.81 L 278.42,241.11 L 281.85,241.30 L 281.91,242.09 L 284.93,244.42 L 293.67,243.81 L 300.04,246.48 L 300.98,247.97 L 300.13,250.33 L 302.04,253.15 L 302.28,256.78 L 298.82,256.91 L 302.54,259.95 L 303.49,266.25 L 322.28,266.78 L 323.55,266.37 L 323.63,267.92 L 322.11,269.60 L 323.00,274.04 L 327.31,276.12 L 329.63,276.41 L 330.42,278.92 L 333.33,282.07 L 332.22,282.20 L 329.84,287.44 L 330.57,288.52 L 329.76,288.63 L 326.04,294.01 L 328.98,296.01 L 325.67,297.49 L 325.48,294.74 L 315.36,290.46 L 305.20,290.55 L 285.85,293.33 L 283.74,297.01 L 280.14,300.60 L 280.07,304.72 L 275.92,314.07 L 274.05,312.20 L 261.71,312.21 L 258.19,316.52 L 257.36,319.18 L 254.36,313.85 L 249.67,312.97 L 241.64,313.11 L 236.35,310.49 L 235.41,312.81 L 230.66,314.00 L 230.12,315.62 L 227.38,316.40 L 227.44,317.32 L 225.59,318.78 L 219.19,319.31 L 217.91,318.75 L 218.22,316.58 L 217.10,313.02 L 215.60,311.82 L 214.36,306.46 L 212.05,303.86 L 210.51,303.49 L 210.32,302.12 L 211.34,301.18 L 208.18,299.55 L 209.15,298.80 L 207.88,297.02 L 210.15,296.62 L 210.66,295.53 L 208.87,293.89 L 211.70,291.64 L 205.70,287.73 L 206.12,287.10 L 203.86,281.27 L 204.68,280.47 L 202.24,279.96 L 199.80,275.09 Z" fill="#C8D8E8" stroke="#8BAABB" stroke-width="0.8"/>
<path d="M 96.37,123.46 L 94.58,122.82 L 96.53,121.35 L 99.57,121.67 L 99.86,120.61 L 99.16,119.70 L 98.53,120.06 L 98.11,118.40 L 99.54,116.45 L 99.71,116.87 L 102.07,114.73 L 103.08,115.58 L 103.16,114.61 L 103.60,115.62 L 104.43,115.98 L 104.95,115.79 L 104.83,114.71 L 106.46,114.52 L 106.96,115.28 L 107.68,115.39 L 108.55,115.18 L 108.65,114.90 L 107.98,113.80 L 109.35,113.58 L 108.96,113.19 L 109.93,112.96 L 109.11,112.57 L 110.11,112.46 L 109.95,111.95 L 108.98,112.06 L 111.66,110.09 L 110.97,109.94 L 111.91,109.06 L 113.44,109.35 L 113.29,107.81 L 114.05,108.14 L 113.41,107.52 L 115.67,106.48 L 114.75,105.96 L 115.58,106.04 L 115.31,105.39 L 116.63,104.58 L 114.17,105.18 L 113.65,104.15 L 114.65,104.08 L 114.88,103.36 L 114.05,103.04 L 113.14,104.47 L 112.16,103.67 L 112.25,102.46 L 113.66,102.27 L 114.36,101.78 L 112.69,101.12 L 113.51,100.13 L 113.37,97.87 L 114.12,98.26 L 113.11,97.06 L 112.76,92.66 L 110.78,91.86 L 114.25,90.01 L 111.61,86.37 L 111.62,85.52 L 112.38,85.96 L 112.76,85.47 L 113.15,83.34 L 112.42,82.32 L 111.02,82.56 L 110.40,81.25 L 109.26,81.08 L 109.61,79.74 L 107.05,77.98 L 107.89,76.05 L 108.88,75.62 L 108.51,74.21 L 110.55,75.64 L 113.21,74.20 L 112.77,73.66 L 113.65,72.64 L 115.17,72.34 L 111.56,68.06 L 112.17,66.82 L 113.08,66.50 L 113.93,67.89 L 117.40,69.72 L 117.61,70.82 L 118.83,70.76 L 118.01,72.42 L 119.66,72.47 L 119.47,68.52 L 117.56,67.49 L 124.56,64.26 L 126.19,61.87 L 128.67,60.32 L 130.14,60.71 L 132.25,60.22 L 132.74,58.87 L 131.32,58.23 L 133.25,53.91 L 131.34,54.76 L 133.42,53.28 L 133.33,52.70 L 132.72,52.64 L 133.56,51.93 L 133.66,52.35 L 133.71,51.82 L 133.37,51.22 L 136.36,50.17 L 136.17,49.46 L 140.85,46.95 L 146.91,47.89 L 144.76,47.99 L 144.87,49.02 L 143.59,48.88 L 143.58,49.57 L 143.95,49.18 L 144.18,49.73 L 144.67,49.71 L 144.56,49.07 L 145.83,49.83 L 148.51,45.07 L 158.04,45.47 L 164.15,42.15 L 169.44,40.73 L 170.82,37.76 L 172.69,37.77 L 172.19,38.26 L 173.05,38.48 L 173.79,37.76 L 172.79,37.55 L 175.32,36.53 L 175.75,36.89 L 176.45,36.39 L 175.23,36.45 L 175.95,36.06 L 180.53,37.07 L 182.17,39.06 L 181.90,39.69 L 178.90,41.32 L 172.46,42.62 L 169.40,46.58 L 166.83,46.86 L 164.79,48.98 L 162.22,52.37 L 161.44,57.34 L 156.95,62.46 L 158.93,62.46 L 161.17,61.48 L 161.78,63.01 L 163.60,62.93 L 164.88,66.64 L 168.00,69.01 L 168.64,71.02 L 166.92,72.36 L 167.06,75.99 L 170.07,76.81 L 171.27,79.17 L 172.43,79.77 L 176.56,79.45 L 181.39,80.17 L 186.72,79.07 L 190.98,80.36 L 193.08,80.09 L 200.67,86.90 L 201.92,86.63 L 202.86,87.23 L 204.91,86.13 L 209.63,86.79 L 216.91,86.13 L 218.58,85.37 L 222.75,86.29 L 222.30,86.96 L 223.06,88.05 L 220.81,89.61 L 220.90,91.55 L 218.49,93.17 L 218.95,95.38 L 218.05,99.63 L 220.74,105.81 L 222.20,106.16 L 224.31,108.84 L 218.45,112.83 L 218.26,113.60 L 220.80,113.41 L 221.36,114.39 L 225.64,116.76 L 225.33,117.79 L 229.03,125.13 L 229.12,126.15 L 226.79,126.53 L 226.44,122.25 L 223.04,118.82 L 217.45,122.00 L 214.53,119.81 L 213.56,121.29 L 214.85,122.16 L 199.58,121.75 L 196.10,122.27 L 196.15,127.46 L 202.39,127.63 L 203.90,128.99 L 204.06,130.74 L 202.30,131.00 L 200.29,130.08 L 193.91,131.24 L 193.76,137.23 L 198.72,140.15 L 198.63,141.82 L 201.16,145.42 L 194.90,169.89 L 191.06,166.62 L 189.07,167.02 L 186.38,166.25 L 193.95,157.70 L 193.34,156.98 L 192.84,157.33 L 188.10,155.22 L 187.34,155.58 L 184.49,153.66 L 178.77,154.98 L 178.38,154.01 L 177.92,154.49 L 177.47,153.76 L 175.17,153.03 L 172.93,154.57 L 170.40,155.26 L 168.17,155.58 L 165.22,154.65 L 164.47,155.35 L 164.23,154.91 L 162.00,155.38 L 159.09,153.68 L 160.05,152.56 L 159.14,150.28 L 157.40,150.29 L 155.40,149.36 L 155.77,147.79 L 154.23,146.00 L 151.79,145.64 L 149.35,143.89 L 147.25,143.74 L 145.58,140.29 L 143.09,138.67 L 141.45,138.45 L 141.07,137.31 L 139.87,137.62 L 137.56,136.29 L 135.99,136.80 L 132.19,135.31 L 130.38,135.27 L 127.46,133.03 L 124.72,132.25 L 123.44,132.73 L 123.53,133.91 L 121.79,134.22 L 112.57,132.84 L 111.79,130.73 L 109.83,130.21 L 109.19,129.19 L 107.58,129.46 L 104.57,128.57 L 96.72,124.46 L 96.37,123.46 Z M 104.83,115.60 L 104.41,115.88 L 103.52,114.46 L 104.83,115.60 Z M 107.56,114.81 L 108.28,115.17 L 107.14,115.17 L 106.98,114.35 L 107.56,114.81 Z M 108.57,115.09 L 107.20,114.12 L 107.59,114.12 L 108.57,115.09 Z M 113.97,101.83 L 110.89,102.26 L 112.23,101.17 L 113.97,101.83 Z M 64.73,35.30 L 65.02,35.08 L 64.72,35.79 L 64.73,35.30 Z M 68.39,29.07 L 68.62,28.81 L 68.83,29.01 L 68.39,29.07 Z M 66.01,104.00 L 66.22,103.97 L 66.24,104.09 L 66.01,104.00 Z M 104.05,112.24 L 103.46,112.44 L 103.64,112.35 L 104.05,112.24 Z M 132.75,52.81 L 133.20,53.03 L 132.59,53.28 L 132.75,52.81 Z M 82.76,27.18 L 82.75,27.18 L 82.74,27.17 L 82.76,27.18 Z" fill="#C8D8E8" stroke="#8BAABB" stroke-width="0.8"/>
<path d="M 340.65,120.94 L 338.38,120.58 L 337.34,119.75 L 334.96,120.11 L 332.29,122.26 L 327.59,122.67 L 327.12,123.79 L 323.88,123.12 L 321.74,124.42 L 321.68,125.79 L 319.70,125.68 L 318.19,126.45 L 316.72,125.45 L 313.47,124.83 L 310.47,122.30 L 308.81,121.87 L 309.19,121.21 L 307.95,121.03 L 308.13,117.81 L 306.35,117.04 L 305.27,114.36 L 305.61,111.57 L 307.25,109.06 L 306.79,107.25 L 308.75,106.38 L 310.50,104.39 L 308.17,102.28 L 308.74,100.85 L 303.50,99.67 L 304.91,98.09 L 305.48,95.43 L 303.81,93.94 L 297.08,94.27 L 289.80,88.32 L 292.85,86.38 L 291.85,83.38 L 292.76,82.14 L 294.93,82.02 L 295.22,81.35 L 297.52,81.73 L 301.09,80.36 L 301.91,79.43 L 301.15,78.49 L 299.20,78.86 L 298.31,78.34 L 298.61,77.22 L 297.18,75.66 L 299.45,73.35 L 301.12,73.27 L 307.16,69.89 L 305.04,67.39 L 307.07,68.90 L 311.54,70.81 L 307.92,69.01 L 308.16,68.62 L 315.19,71.75 L 322.00,76.86 L 322.05,79.78 L 319.90,84.87 L 320.89,84.54 L 322.31,81.30 L 323.97,80.73 L 327.36,81.54 L 331.87,84.46 L 332.64,85.75 L 333.07,85.16 L 333.97,85.37 L 336.65,87.20 L 336.71,90.77 L 334.78,93.35 L 336.40,94.54 L 335.30,94.52 L 335.28,95.73 L 330.89,95.84 L 329.08,96.51 L 328.25,97.52 L 329.23,98.69 L 326.68,102.69 L 329.31,106.61 L 331.37,107.77 L 331.25,108.79 L 333.23,109.20 L 335.09,108.75 L 336.26,113.15 L 337.51,113.72 L 341.77,119.69 L 344.24,120.39 L 340.65,120.94 Z M 323.73,80.15 L 322.32,80.80 L 322.47,80.32 L 323.73,80.15 Z" fill="#C8D8E8" stroke="#8BAABB" stroke-width="0.8"/>
<path d="M 280.07,304.72 L 280.14,300.60 L 283.74,297.01 L 285.85,293.33 L 305.20,290.55 L 315.58,290.49 L 325.60,294.83 L 325.62,298.12 L 327.54,299.64 L 327.64,301.72 L 329.00,302.10 L 328.09,302.53 L 328.98,302.83 L 328.37,303.43 L 329.45,303.81 L 327.58,312.79 L 340.10,314.54 L 341.65,313.92 L 342.39,314.30 L 343.91,312.93 L 345.06,312.80 L 347.20,314.40 L 351.12,314.51 L 353.75,317.31 L 353.59,320.21 L 355.99,327.85 L 358.82,328.35 L 364.65,326.65 L 369.01,328.62 L 368.02,329.41 L 368.83,331.09 L 366.61,336.52 L 367.01,337.42 L 364.98,339.69 L 364.66,345.82 L 362.95,349.41 L 361.54,349.64 L 359.12,351.88 L 356.07,352.09 L 354.03,353.59 L 354.10,354.88 L 352.29,355.80 L 350.77,354.93 L 348.20,354.64 L 345.15,356.95 L 343.53,355.89 L 341.04,356.31 L 339.56,355.60 L 336.51,356.15 L 327.18,354.33 L 320.73,354.78 L 320.19,353.50 L 322.16,351.75 L 323.93,351.24 L 323.66,350.72 L 325.45,349.45 L 325.75,345.69 L 328.84,344.32 L 329.92,341.85 L 332.13,340.75 L 332.32,339.78 L 330.15,337.68 L 324.94,335.76 L 323.70,336.16 L 322.18,335.04 L 318.46,334.44 L 304.90,328.27 L 301.54,328.35 L 294.13,326.66 L 292.98,325.07 L 288.65,323.47 L 283.60,320.48 L 279.94,316.07 L 275.92,314.07 L 280.07,304.72 Z" fill="#C8D8E8" stroke="#8BAABB" stroke-width="0.8"/>
<path d="M 196.17,277.68 L 196.91,280.00 L 194.84,282.16 L 190.14,282.85 L 179.18,277.73 L 179.00,275.34 L 177.73,274.42 L 171.05,272.29 L 167.48,269.85 L 163.70,269.17 L 156.63,266.47 L 153.52,266.09 L 149.69,263.81 L 138.59,259.81 L 133.52,255.46 L 128.82,253.31 L 126.40,249.90 L 124.84,249.44 L 124.81,247.31 L 123.69,247.37 L 124.04,246.51 L 125.24,246.91 L 126.04,244.41 L 125.60,242.96 L 119.20,236.16 L 119.29,235.13 L 115.04,232.66 L 114.64,229.25 L 109.81,226.41 L 110.39,225.39 L 109.55,223.49 L 103.88,216.95 L 103.36,214.41 L 101.80,212.98 L 101.31,210.95 L 100.07,210.21 L 100.39,209.57 L 99.77,210.00 L 99.13,209.46 L 99.70,209.07 L 97.43,206.25 L 97.49,204.91 L 95.48,203.53 L 94.98,201.78 L 89.66,197.76 L 88.04,194.16 L 83.70,189.95 L 71.22,184.29 L 71.01,183.08 L 71.84,182.31 L 73.34,182.82 L 74.26,181.21 L 73.43,179.72 L 70.47,177.67 L 70.87,176.58 L 71.97,176.18 L 68.93,173.43 L 69.03,171.81 L 69.75,170.01 L 74.80,165.90 L 77.81,164.03 L 80.65,163.31 L 81.92,167.11 L 80.14,168.12 L 78.30,168.11 L 78.55,169.70 L 79.92,169.58 L 78.39,171.47 L 79.51,171.81 L 82.19,170.26 L 85.60,171.83 L 87.54,171.51 L 89.21,172.25 L 89.83,174.48 L 91.46,175.69 L 94.12,176.09 L 95.93,174.75 L 95.95,173.55 L 98.45,172.41 L 98.34,170.61 L 101.25,166.32 L 102.01,163.10 L 103.39,164.04 L 104.09,163.80 L 103.72,162.89 L 107.36,159.90 L 121.13,156.28 L 127.04,153.00 L 132.78,148.26 L 134.56,143.35 L 136.61,143.66 L 135.84,141.93 L 136.24,140.30 L 132.07,136.84 L 135.32,137.14 L 136.84,136.18 L 139.87,137.62 L 141.07,137.31 L 141.45,138.45 L 143.09,138.67 L 145.58,140.29 L 147.25,143.74 L 149.35,143.89 L 151.79,145.64 L 154.23,146.00 L 155.77,147.79 L 155.40,149.36 L 157.40,150.29 L 159.14,150.28 L 160.05,152.56 L 159.09,153.68 L 162.00,155.38 L 164.23,154.91 L 164.47,155.35 L 165.22,154.65 L 168.17,155.58 L 170.40,155.26 L 172.93,154.57 L 175.17,153.03 L 177.47,153.76 L 177.92,154.49 L 178.38,154.01 L 178.77,154.98 L 183.51,153.55 L 186.68,154.60 L 187.34,155.58 L 188.10,155.22 L 190.55,155.87 L 190.47,156.44 L 191.48,156.35 L 192.84,157.33 L 193.34,156.98 L 193.95,157.69 L 186.38,166.25 L 189.07,167.02 L 191.06,166.62 L 194.59,169.44 L 194.63,170.51 L 192.97,170.08 L 192.23,170.74 L 190.85,169.14 L 188.03,169.55 L 187.35,168.92 L 185.29,169.43 L 183.78,171.08 L 180.50,171.00 L 179.41,171.67 L 173.39,172.14 L 168.08,174.35 L 165.22,176.49 L 162.19,177.06 L 161.54,181.22 L 158.68,184.64 L 159.64,187.83 L 152.87,191.12 L 152.28,192.85 L 153.38,194.47 L 150.39,194.88 L 150.82,195.62 L 150.00,196.38 L 153.39,198.34 L 152.59,199.56 L 153.88,200.15 L 155.29,202.91 L 157.33,203.88 L 157.40,204.83 L 161.55,207.93 L 161.59,209.12 L 158.90,211.32 L 163.35,211.34 L 168.89,212.31 L 170.55,215.08 L 170.19,216.10 L 180.11,216.01 L 188.69,211.50 L 187.59,212.58 L 188.51,213.72 L 187.44,214.87 L 187.41,224.16 L 188.59,223.57 L 191.30,224.59 L 195.00,223.42 L 199.19,223.69 L 209.08,236.11 L 207.87,237.05 L 208.18,237.77 L 205.80,239.03 L 205.91,244.11 L 204.46,245.43 L 207.09,249.64 L 205.47,250.07 L 205.69,251.14 L 202.99,252.70 L 202.62,254.12 L 201.48,254.52 L 201.33,255.97 L 203.95,257.98 L 200.82,261.13 L 203.54,265.69 L 205.79,265.81 L 207.43,266.76 L 205.28,267.76 L 205.18,269.50 L 203.57,269.96 L 200.85,272.83 L 198.69,273.62 L 198.20,274.45 L 199.80,275.09 L 199.94,276.20 L 196.17,277.68 Z M 126.11,250.41 L 126.06,250.47 L 125.61,250.30 L 126.11,250.41 Z M 123.16,246.93 L 122.84,246.93 L 122.99,246.68 L 123.16,246.93 Z M 114.83,232.88 L 114.96,233.01 L 114.35,232.83 L 114.83,232.88 Z M 74.45,187.82 L 74.18,187.83 L 74.05,187.48 L 74.41,187.07 L 74.45,187.82 Z" fill="#C8D8E8" stroke="#8BAABB" stroke-width="0.8"/>
<path d="M 369.39,110.89 L 369.85,113.09 L 365.84,117.20 L 363.93,117.32 L 363.94,116.35 L 361.98,116.34 L 361.11,115.05 L 357.10,115.77 L 356.23,116.48 L 352.63,116.74 L 349.90,115.68 L 347.95,117.87 L 350.48,119.52 L 350.09,121.10 L 342.07,119.78 L 337.51,113.72 L 336.26,113.15 L 335.09,108.75 L 333.23,109.20 L 331.30,108.82 L 331.37,107.77 L 329.31,106.61 L 327.07,104.00 L 326.70,102.53 L 329.23,98.69 L 328.33,97.25 L 330.89,95.84 L 335.40,95.68 L 335.30,94.52 L 336.45,94.42 L 334.82,93.26 L 336.69,91.43 L 337.37,88.79 L 338.98,87.79 L 350.29,89.44 L 350.71,90.47 L 350.12,88.83 L 351.30,88.07 L 356.93,88.18 L 359.02,88.62 L 359.22,89.32 L 359.71,88.82 L 360.54,89.04 L 362.17,89.04 L 358.88,88.22 L 360.16,87.93 L 371.32,89.14 L 371.88,89.92 L 371.05,91.78 L 366.34,96.67 L 367.81,103.57 L 371.85,107.02 L 369.39,110.89 Z" fill="#C8D8E8" stroke="#8BAABB" stroke-width="0.8"/>
<path d="M 332.56,378.48 L 335.79,378.63 L 337.65,377.13 L 340.37,377.10 L 349.45,382.68 L 349.45,384.95 L 351.19,384.89 L 354.10,383.08 L 357.95,386.25 L 365.03,387.98 L 368.69,390.89 L 374.42,392.75 L 376.59,395.91 L 381.48,397.97 L 377.14,401.11 L 376.83,405.52 L 378.61,406.25 L 376.83,408.83 L 374.43,410.47 L 374.33,411.46 L 370.11,413.68 L 368.85,413.82 L 369.09,413.05 L 368.09,412.83 L 368.34,414.00 L 361.33,416.10 L 352.97,414.45 L 347.85,415.87 L 345.11,415.18 L 345.41,414.60 L 339.90,413.70 L 336.82,411.94 L 329.03,412.10 L 326.57,409.87 L 325.11,409.51 L 322.97,407.71 L 322.56,405.91 L 323.53,401.29 L 325.90,401.08 L 326.89,399.61 L 325.24,396.07 L 326.36,394.56 L 325.36,393.53 L 325.18,391.45 L 326.88,390.68 L 327.65,389.09 L 326.59,388.10 L 328.48,386.22 L 328.49,383.73 L 329.68,383.24 L 328.79,380.41 L 331.27,378.92 L 331.83,377.81 L 332.56,378.48 Z" fill="#C8D8E8" stroke="#8BAABB" stroke-width="0.8"/>
<path d="M 307.16,69.89 L 301.12,73.27 L 299.45,73.35 L 297.18,75.66 L 298.61,77.22 L 298.31,78.34 L 299.20,78.86 L 301.15,78.49 L 301.91,79.43 L 301.09,80.36 L 297.52,81.73 L 295.22,81.35 L 294.93,82.02 L 292.76,82.14 L 291.85,83.38 L 292.85,86.38 L 289.80,88.32 L 297.91,94.53 L 298.49,96.69 L 295.35,98.23 L 294.45,99.62 L 290.70,99.73 L 290.95,100.31 L 288.64,100.68 L 287.91,101.91 L 281.42,103.18 L 278.38,102.43 L 276.91,103.60 L 274.88,103.63 L 274.82,106.62 L 273.27,107.42 L 268.15,104.23 L 266.39,105.07 L 264.61,104.33 L 260.55,104.84 L 259.34,103.02 L 254.44,102.95 L 252.20,101.62 L 251.96,102.22 L 253.85,104.12 L 258.72,107.15 L 258.50,110.92 L 260.99,114.20 L 260.44,116.15 L 267.78,116.56 L 267.92,117.79 L 267.48,118.73 L 260.56,120.51 L 259.94,122.95 L 257.06,125.00 L 256.44,123.87 L 252.87,125.95 L 251.67,125.77 L 248.38,126.92 L 247.64,128.55 L 246.27,128.65 L 243.88,130.74 L 243.39,130.03 L 244.15,128.84 L 243.29,128.07 L 241.63,128.14 L 237.33,130.09 L 235.66,129.97 L 229.12,126.15 L 225.33,117.79 L 225.64,116.76 L 221.36,114.39 L 220.80,113.41 L 218.26,113.60 L 218.45,112.83 L 224.31,108.84 L 222.20,106.16 L 220.74,105.81 L 218.05,99.63 L 218.95,95.38 L 218.49,93.17 L 220.90,91.55 L 220.81,89.61 L 223.06,88.05 L 222.30,86.96 L 222.75,86.29 L 218.58,85.37 L 216.91,86.13 L 209.63,86.79 L 204.91,86.13 L 202.86,87.23 L 201.92,86.63 L 200.67,86.90 L 193.08,80.09 L 190.98,80.36 L 186.72,79.07 L 181.39,80.17 L 176.56,79.45 L 172.43,79.77 L 171.27,79.17 L 170.07,76.81 L 167.06,75.99 L 166.92,72.36 L 168.64,71.02 L 168.00,69.01 L 164.88,66.64 L 163.60,62.93 L 161.78,63.01 L 161.17,61.48 L 158.93,62.46 L 156.95,62.29 L 161.44,57.34 L 162.22,52.37 L 166.83,46.86 L 169.40,46.58 L 172.68,42.52 L 179.47,41.01 L 179.24,41.75 L 172.79,43.09 L 173.94,46.09 L 176.49,47.70 L 174.92,47.70 L 177.05,50.06 L 176.46,52.20 L 172.70,54.99 L 170.98,57.23 L 172.37,58.60 L 172.95,59.51 L 172.49,58.96 L 172.41,60.17 L 173.26,59.84 L 174.08,60.33 L 173.46,60.36 L 173.41,60.76 L 175.30,60.76 L 174.39,61.98 L 175.19,61.94 L 175.59,63.23 L 177.26,63.51 L 180.76,62.60 L 182.74,61.23 L 183.04,57.88 L 178.23,52.62 L 176.97,49.35 L 178.49,49.46 L 178.86,48.47 L 177.88,48.14 L 191.95,45.01 L 192.80,44.06 L 194.11,44.29 L 192.72,43.27 L 196.78,44.33 L 197.35,43.79 L 196.55,42.27 L 192.16,42.94 L 192.21,41.62 L 191.16,40.95 L 192.23,38.92 L 194.31,38.22 L 196.33,39.69 L 197.31,42.76 L 198.68,44.08 L 202.59,43.53 L 207.10,44.20 L 212.20,46.22 L 213.58,48.42 L 212.49,48.47 L 214.02,48.75 L 212.99,49.19 L 213.48,50.56 L 215.23,51.93 L 218.15,52.21 L 227.60,50.94 L 235.76,50.61 L 238.30,51.22 L 237.46,51.77 L 239.67,53.57 L 248.96,55.45 L 252.37,55.11 L 253.03,54.01 L 255.78,53.84 L 256.80,53.43 L 255.84,53.17 L 258.88,52.01 L 264.79,51.87 L 260.61,51.11 L 258.38,51.71 L 257.97,50.45 L 261.91,50.78 L 263.05,50.12 L 265.92,50.79 L 270.25,49.95 L 281.41,50.34 L 284.83,49.90 L 283.54,50.61 L 280.32,50.77 L 279.41,51.59 L 275.78,51.29 L 272.89,51.58 L 271.92,52.20 L 273.63,51.58 L 273.91,52.58 L 272.10,52.57 L 272.00,53.63 L 272.80,53.55 L 272.68,52.59 L 274.65,52.67 L 276.18,54.79 L 275.85,55.18 L 274.51,55.14 L 274.01,55.50 L 273.13,55.01 L 271.85,55.01 L 274.25,55.87 L 274.43,55.28 L 275.18,55.45 L 276.27,55.10 L 276.70,54.04 L 279.59,58.19 L 280.27,56.04 L 280.66,56.33 L 280.73,58.74 L 281.41,58.03 L 280.96,56.37 L 282.82,56.84 L 280.67,56.22 L 280.94,55.68 L 284.99,57.50 L 284.83,58.63 L 285.56,57.76 L 285.96,59.07 L 286.10,58.29 L 285.02,57.22 L 287.63,57.58 L 287.14,56.65 L 289.52,57.95 L 288.62,57.12 L 289.33,57.29 L 291.91,59.22 L 293.61,59.19 L 295.72,60.19 L 296.57,61.33 L 293.25,63.03 L 292.96,63.51 L 294.65,62.38 L 293.09,64.16 L 291.88,66.98 L 286.90,66.92 L 287.56,67.41 L 291.05,68.68 L 292.19,67.90 L 293.90,67.84 L 293.33,68.12 L 293.40,68.63 L 294.47,67.24 L 297.60,67.01 L 299.97,67.59 L 301.15,66.77 L 305.04,67.39 L 307.16,69.89 Z M 293.74,67.70 L 291.20,67.74 L 291.68,67.28 L 292.80,67.58 L 294.01,66.97 L 293.74,67.70 Z M 295.99,63.84 L 295.69,64.32 L 293.18,65.27 L 295.08,63.62 L 295.99,63.84 Z M 293.43,64.02 L 295.84,63.08 L 295.57,63.50 L 294.83,63.64 L 293.25,64.72 L 293.43,64.02 Z M 295.42,63.06 L 294.63,63.29 L 295.82,62.29 L 295.42,63.06 Z M 297.20,62.30 L 295.91,62.91 L 296.09,62.34 L 297.20,62.30 Z M 262.04,49.61 L 261.97,49.94 L 260.92,49.62 L 262.04,49.61 Z M 247.62,48.59 L 247.18,48.75 L 245.33,48.43 L 247.62,48.59 Z M 263.32,48.03 L 262.10,48.75 L 260.31,48.96 L 259.02,48.08 L 256.44,48.08 L 256.86,47.32 L 258.53,47.09 L 260.42,47.90 L 261.23,46.88 L 262.66,46.74 L 263.32,48.03 Z M 231.71,41.72 L 231.01,41.55 L 232.00,41.22 L 231.71,41.72 Z M 237.55,41.58 L 236.66,41.27 L 236.83,41.23 L 237.55,41.58 Z M 254.80,40.96 L 254.73,41.28 L 253.78,41.17 L 254.24,40.62 L 254.80,40.96 Z M 230.75,41.56 L 229.65,41.85 L 229.35,41.80 L 230.75,41.56 Z M 230.93,40.87 L 229.76,40.85 L 229.79,40.83 L 230.93,40.87 Z M 220.55,39.94 L 220.68,39.97 L 220.36,39.96 L 220.26,39.90 L 220.55,39.94 Z M 220.19,39.61 L 220.22,39.59 L 220.20,39.61 L 220.19,39.61 Z M 220.24,39.57 L 220.24,39.60 L 220.23,39.59 L 220.24,39.57 Z M 220.27,39.42 L 220.25,39.46 L 220.24,39.44 L 220.27,39.42 Z M 220.20,39.32 L 220.16,39.30 L 220.19,39.30 L 220.20,39.32 Z M 220.11,39.26 L 220.13,39.27 L 220.13,39.29 L 220.11,39.26 Z M 264.91,10.17 L 265.02,10.17 L 265.01,10.22 L 264.91,10.17 Z M 290.71,67.28 L 291.28,68.20 L 288.21,67.33 L 290.71,67.28 Z M 297.78,65.75 L 298.43,66.76 L 296.32,66.79 L 297.78,65.75 Z M 297.16,64.71 L 297.67,65.54 L 295.90,66.75 L 292.31,67.09 L 292.80,65.80 L 297.16,64.71 Z M 279.62,56.75 L 279.51,57.08 L 279.25,56.86 L 279.62,56.75 Z M 278.59,56.05 L 278.29,55.46 L 278.39,55.44 L 278.59,56.05 Z M 280.51,55.72 L 279.82,55.97 L 279.95,55.64 L 280.51,55.72 Z M 275.81,53.35 L 274.47,51.89 L 274.84,52.15 L 275.81,53.35 Z M 259.03,49.43 L 258.52,49.37 L 258.71,49.21 L 259.03,49.43 Z" fill="#C8D8E8" stroke="#8BAABB" stroke-width="0.8"/>
<path d="M 334.90,376.13 L 335.27,374.80 L 337.25,374.41 L 340.51,372.08 L 342.74,369.56 L 344.84,368.83 L 346.41,366.51 L 350.66,363.99 L 350.62,363.29 L 352.96,363.47 L 353.30,362.88 L 352.10,362.12 L 355.77,360.89 L 357.18,359.58 L 360.33,359.06 L 359.76,358.48 L 361.62,358.15 L 362.81,356.47 L 368.55,355.68 L 369.77,354.20 L 370.71,354.53 L 372.13,353.48 L 373.61,353.51 L 374.92,351.48 L 374.23,349.96 L 375.48,346.32 L 373.58,343.94 L 372.73,341.27 L 370.64,341.01 L 370.44,340.19 L 369.35,340.48 L 369.62,340.88 L 367.35,340.88 L 366.78,341.75 L 365.08,340.83 L 365.11,339.41 L 367.01,337.42 L 366.61,336.52 L 368.83,331.09 L 368.02,329.41 L 369.01,328.62 L 364.65,326.65 L 358.82,328.35 L 355.99,327.85 L 353.59,320.21 L 353.75,317.31 L 351.12,314.51 L 347.20,314.40 L 345.06,312.80 L 343.91,312.93 L 342.39,314.30 L 341.65,313.92 L 340.10,314.54 L 327.58,312.79 L 329.45,303.81 L 328.37,303.43 L 328.98,302.83 L 328.09,302.53 L 328.97,302.02 L 327.64,301.72 L 327.54,299.64 L 325.67,297.49 L 328.98,296.01 L 326.04,294.01 L 329.76,288.63 L 330.57,288.52 L 329.84,287.44 L 332.22,282.20 L 333.34,281.89 L 330.42,278.92 L 329.63,276.41 L 327.31,276.12 L 323.00,274.04 L 322.11,269.60 L 323.63,267.92 L 323.66,266.44 L 303.49,266.25 L 302.54,259.95 L 298.82,256.91 L 302.28,256.78 L 302.04,253.15 L 300.13,250.33 L 300.98,247.97 L 300.04,246.48 L 293.67,243.81 L 284.93,244.42 L 281.91,242.09 L 281.85,241.30 L 278.42,241.11 L 275.51,239.81 L 274.37,240.10 L 272.18,238.84 L 271.21,237.31 L 268.52,237.70 L 266.66,236.55 L 263.17,235.73 L 261.84,236.44 L 257.78,236.06 L 255.54,235.07 L 255.55,234.00 L 253.33,232.92 L 252.78,233.24 L 252.19,232.34 L 249.92,232.05 L 249.17,230.10 L 248.64,229.60 L 248.21,230.26 L 247.72,230.01 L 248.04,229.00 L 246.35,227.89 L 245.60,226.29 L 246.57,223.83 L 245.41,222.46 L 244.91,219.81 L 246.74,217.72 L 246.58,214.79 L 245.48,213.55 L 243.42,214.75 L 241.16,213.92 L 231.70,215.32 L 227.03,218.12 L 224.16,218.61 L 221.26,220.08 L 219.74,221.71 L 216.18,221.40 L 213.41,223.90 L 209.84,224.97 L 208.07,225.20 L 207.75,224.03 L 201.20,223.55 L 195.00,223.42 L 191.30,224.59 L 188.59,223.57 L 187.41,224.16 L 187.44,214.87 L 188.51,213.72 L 187.59,212.58 L 188.69,211.50 L 180.11,216.01 L 170.19,216.10 L 170.55,215.08 L 168.89,212.31 L 163.35,211.34 L 158.90,211.32 L 161.59,209.12 L 161.55,207.93 L 157.40,204.83 L 157.33,203.88 L 155.29,202.91 L 153.88,200.15 L 152.59,199.56 L 153.39,198.34 L 150.00,196.38 L 150.82,195.62 L 150.39,194.88 L 153.38,194.47 L 152.28,192.85 L 152.87,191.12 L 159.64,187.83 L 158.68,184.64 L 161.54,181.22 L 162.19,177.06 L 165.22,176.49 L 168.08,174.35 L 173.39,172.14 L 179.41,171.67 L 180.50,171.00 L 183.78,171.08 L 185.29,169.43 L 187.35,168.92 L 188.03,169.55 L 190.85,169.14 L 192.23,170.74 L 192.97,170.08 L 194.10,170.72 L 194.82,170.32 L 201.16,145.42 L 198.63,141.82 L 198.72,140.15 L 193.76,137.23 L 193.91,131.24 L 200.29,130.08 L 202.30,131.00 L 204.06,130.74 L 203.90,128.99 L 202.39,127.63 L 196.15,127.46 L 196.10,122.27 L 199.58,121.75 L 214.85,122.16 L 213.56,121.29 L 214.53,119.81 L 217.45,122.00 L 223.04,118.82 L 226.44,122.25 L 226.79,126.53 L 229.12,126.15 L 235.66,129.97 L 237.33,130.09 L 241.63,128.14 L 243.29,128.07 L 244.16,129.03 L 243.41,130.41 L 244.38,130.67 L 246.27,128.65 L 247.64,128.55 L 248.38,126.92 L 251.67,125.77 L 252.87,125.95 L 256.44,123.87 L 257.06,125.00 L 259.94,122.95 L 260.56,120.51 L 267.48,118.73 L 267.92,117.79 L 267.78,116.56 L 260.44,116.15 L 260.99,114.20 L 258.50,110.92 L 258.72,107.15 L 253.85,104.12 L 251.96,102.22 L 252.20,101.62 L 254.44,102.95 L 259.34,103.02 L 260.55,104.84 L 264.61,104.33 L 266.39,105.07 L 268.15,104.23 L 273.27,107.42 L 274.82,106.62 L 274.63,103.74 L 276.91,103.60 L 278.38,102.43 L 281.42,103.18 L 284.36,102.70 L 285.82,101.93 L 288.08,101.86 L 288.64,100.68 L 290.95,100.31 L 290.70,99.73 L 294.45,99.62 L 295.35,98.23 L 297.32,97.62 L 298.72,96.29 L 297.08,94.27 L 300.30,94.49 L 302.91,93.75 L 305.46,95.20 L 304.91,98.09 L 303.50,99.67 L 308.74,100.85 L 308.17,102.28 L 310.50,104.39 L 308.75,106.38 L 306.79,107.25 L 307.25,109.06 L 305.34,113.06 L 306.23,116.89 L 308.13,117.81 L 307.95,121.03 L 309.19,121.21 L 308.81,121.87 L 310.47,122.30 L 313.47,124.83 L 316.72,125.45 L 318.19,126.45 L 319.70,125.68 L 321.68,125.79 L 321.74,124.42 L 323.88,123.12 L 327.12,123.79 L 327.59,122.67 L 332.29,122.26 L 334.96,120.11 L 337.34,119.75 L 338.38,120.58 L 340.65,120.94 L 344.24,120.39 L 350.09,121.10 L 350.48,119.52 L 347.95,117.87 L 349.90,115.68 L 352.63,116.74 L 356.23,116.48 L 357.10,115.77 L 361.11,115.05 L 361.98,116.34 L 363.94,116.35 L 363.93,117.32 L 370.24,119.04 L 374.34,116.97 L 376.92,117.95 L 379.00,117.12 L 380.21,117.91 L 379.83,118.36 L 383.25,118.52 L 387.34,115.88 L 389.95,110.70 L 396.28,104.05 L 397.96,103.36 L 398.48,102.03 L 400.12,104.47 L 398.90,101.86 L 399.24,100.37 L 402.89,103.27 L 403.01,106.72 L 404.07,104.85 L 403.93,108.90 L 404.77,111.63 L 408.51,118.55 L 407.26,118.63 L 407.40,119.36 L 409.17,119.08 L 410.87,121.40 L 414.21,121.40 L 416.58,122.16 L 417.33,125.47 L 414.38,126.16 L 417.28,126.53 L 411.01,130.63 L 407.28,134.59 L 405.18,134.98 L 404.06,136.21 L 401.34,136.58 L 402.18,136.97 L 399.94,139.85 L 398.53,140.15 L 399.06,140.37 L 397.05,142.30 L 397.03,144.18 L 394.67,145.39 L 394.61,146.68 L 393.15,147.20 L 391.25,146.73 L 386.04,148.76 L 390.79,148.11 L 391.00,149.53 L 391.62,149.49 L 401.82,145.81 L 404.92,144.07 L 404.99,143.34 L 406.74,143.26 L 406.88,144.32 L 405.44,144.99 L 406.95,145.81 L 406.96,147.45 L 408.78,149.87 L 407.87,149.87 L 407.31,151.15 L 406.29,150.78 L 406.69,151.61 L 409.27,150.48 L 410.67,151.79 L 411.13,151.46 L 411.43,152.56 L 412.57,151.24 L 416.29,150.58 L 417.48,151.08 L 417.28,152.67 L 418.11,152.83 L 417.74,151.18 L 419.62,151.24 L 420.55,152.06 L 419.86,151.13 L 422.44,150.20 L 422.12,150.56 L 422.08,150.82 L 422.30,151.01 L 423.01,151.21 L 422.89,151.90 L 419.76,157.40 L 421.27,157.00 L 424.54,151.55 L 427.49,148.76 L 428.70,148.44 L 426.74,150.74 L 430.91,147.03 L 433.44,149.26 L 432.84,148.05 L 434.59,147.73 L 432.69,147.65 L 432.84,146.21 L 433.36,145.71 L 433.48,146.34 L 434.48,146.47 L 435.72,144.87 L 434.96,144.31 L 436.11,144.11 L 436.63,143.17 L 436.48,142.21 L 437.77,141.25 L 438.61,142.21 L 440.38,141.48 L 440.30,140.47 L 441.19,142.01 L 442.50,141.51 L 442.79,140.58 L 443.76,142.07 L 444.91,142.46 L 444.15,140.70 L 444.84,140.70 L 444.68,140.87 L 444.67,141.24 L 444.75,141.41 L 446.01,140.70 L 446.43,141.36 L 447.07,141.17 L 446.65,141.69 L 447.48,141.41 L 447.72,142.35 L 448.41,141.28 L 448.63,142.89 L 449.61,141.52 L 450.13,142.63 L 449.67,142.88 L 449.85,143.17 L 451.27,141.65 L 451.67,143.17 L 451.97,142.51 L 452.43,142.98 L 452.04,143.50 L 452.61,143.00 L 452.71,142.56 L 453.33,142.86 L 453.08,142.37 L 453.71,142.89 L 453.48,143.44 L 452.95,143.34 L 452.17,143.83 L 452.04,144.11 L 455.60,142.90 L 455.08,144.32 L 456.30,144.03 L 456.74,144.82 L 457.05,144.21 L 457.59,144.71 L 457.25,143.85 L 458.12,143.22 L 457.44,145.43 L 458.80,144.87 L 458.72,145.37 L 459.21,144.55 L 459.78,145.64 L 460.57,144.40 L 460.92,145.97 L 461.81,144.47 L 461.45,146.02 L 462.13,145.58 L 462.11,146.20 L 462.44,146.57 L 463.42,145.04 L 463.94,146.89 L 465.39,146.12 L 465.55,147.29 L 466.81,146.26 L 465.41,147.89 L 466.31,148.33 L 467.80,146.46 L 468.14,147.29 L 466.98,148.45 L 467.83,149.92 L 469.61,147.83 L 470.72,147.39 L 471.78,148.33 L 471.19,148.59 L 471.17,148.77 L 471.78,148.72 L 472.88,147.33 L 472.15,149.21 L 473.30,149.04 L 473.22,148.49 L 473.93,149.76 L 473.39,150.04 L 474.65,149.71 L 473.52,150.47 L 475.87,149.92 L 475.19,150.69 L 476.62,150.64 L 475.95,151.18 L 477.09,151.87 L 475.66,152.28 L 477.02,152.34 L 474.81,154.10 L 474.17,153.99 L 473.37,154.21 L 475.12,154.14 L 474.51,155.19 L 475.14,154.83 L 475.14,155.34 L 475.26,155.41 L 475.50,154.15 L 477.38,153.13 L 478.47,154.64 L 478.11,155.19 L 476.84,154.91 L 476.39,155.10 L 476.72,155.98 L 475.23,156.72 L 476.51,156.28 L 474.89,159.31 L 475.60,160.39 L 473.84,161.56 L 473.68,162.39 L 477.70,159.58 L 478.42,156.37 L 479.29,156.62 L 479.25,155.82 L 482.11,155.30 L 480.97,157.34 L 480.13,157.33 L 478.63,158.46 L 480.43,158.05 L 480.28,158.93 L 481.32,157.97 L 481.74,158.34 L 483.34,156.35 L 483.84,157.06 L 485.55,155.79 L 485.58,156.46 L 486.43,155.79 L 486.20,156.07 L 487.56,156.18 L 487.62,155.46 L 488.55,156.40 L 489.01,155.63 L 488.18,155.14 L 488.85,154.68 L 496.89,156.48 L 499.63,158.00 L 501.72,158.05 L 501.99,158.65 L 505.27,158.68 L 504.53,157.79 L 506.43,157.81 L 508.12,158.99 L 511.92,159.34 L 513.01,160.10 L 512.23,159.20 L 512.88,158.98 L 514.81,159.31 L 521.27,158.27 L 526.96,158.77 L 538.04,163.15 L 541.65,165.40 L 543.66,165.57 L 548.62,169.89 L 551.51,171.17 L 553.30,172.86 L 556.79,173.74 L 558.00,175.29 L 561.15,175.51 L 565.07,177.03 L 564.68,176.65 L 571.14,176.38 L 576.53,177.15 L 579.71,180.67 L 581.02,183.98 L 581.15,185.50 L 580.51,185.74 L 581.76,185.91 L 583.73,191.34 L 583.13,193.07 L 583.96,191.81 L 584.47,193.44 L 584.34,196.14 L 582.97,196.48 L 584.34,197.01 L 584.06,197.48 L 583.58,196.97 L 583.21,197.90 L 583.67,197.77 L 583.38,198.13 L 583.36,198.47 L 584.27,199.50 L 583.83,200.59 L 582.97,200.32 L 583.50,200.75 L 582.86,202.82 L 578.80,209.59 L 574.47,213.44 L 573.56,213.66 L 573.32,212.73 L 572.68,213.93 L 572.15,213.05 L 571.51,212.94 L 572.50,214.10 L 573.20,214.01 L 566.58,220.08 L 561.10,222.25 L 558.50,225.08 L 556.98,224.25 L 558.38,225.57 L 556.37,227.44 L 555.57,227.27 L 557.01,226.07 L 556.71,225.63 L 555.43,227.33 L 554.82,226.94 L 555.65,227.57 L 554.58,228.21 L 556.03,227.71 L 552.78,232.48 L 545.40,239.57 L 543.05,240.22 L 543.31,237.87 L 542.02,237.71 L 541.30,236.66 L 540.02,238.77 L 539.41,237.32 L 538.72,237.98 L 539.49,238.90 L 540.93,239.08 L 539.04,240.74 L 540.01,241.24 L 538.46,242.07 L 538.38,243.08 L 537.43,242.76 L 536.60,244.89 L 537.74,244.07 L 538.10,246.79 L 536.86,245.80 L 536.23,246.00 L 537.94,247.01 L 537.05,247.26 L 538.10,248.59 L 537.09,248.72 L 537.05,249.23 L 537.43,249.51 L 537.17,248.98 L 538.35,248.63 L 537.99,247.55 L 538.65,247.28 L 538.72,248.14 L 537.13,253.51 L 539.41,262.96 L 535.56,273.44 L 536.36,277.58 L 534.83,279.08 L 532.89,279.73 L 530.57,282.34 L 529.62,285.61 L 530.11,291.17 L 529.17,292.98 L 526.50,294.28 L 524.22,298.31 L 522.71,298.03 L 522.75,298.76 L 523.92,298.75 L 522.94,300.18 L 520.34,302.60 L 518.40,303.09 L 515.09,308.06 L 515.78,312.31 L 508.34,314.45 L 505.02,316.48 L 504.72,317.80 L 506.09,318.22 L 504.76,318.81 L 504.50,320.06 L 493.22,320.00 L 492.12,319.56 L 493.29,318.09 L 492.73,317.53 L 490.58,318.18 L 491.68,319.96 L 487.36,320.74 L 482.45,320.93 L 486.88,320.27 L 484.15,319.34 L 480.43,320.60 L 478.59,320.20 L 478.88,319.58 L 477.94,319.70 L 474.73,321.07 L 475.28,322.49 L 476.33,322.03 L 476.94,322.58 L 472.31,323.00 L 470.94,323.45 L 470.64,324.33 L 466.84,325.15 L 466.69,326.86 L 461.84,326.26 L 458.72,326.97 L 457.73,327.52 L 459.10,327.13 L 458.50,328.07 L 457.15,328.39 L 456.83,328.35 L 457.28,328.07 L 457.02,327.62 L 456.07,327.20 L 455.31,327.63 L 456.18,328.41 L 449.97,330.41 L 449.09,331.60 L 442.24,334.27 L 440.12,335.38 L 438.63,336.63 L 437.62,336.52 L 438.75,336.87 L 439.44,336.69 L 435.87,339.89 L 435.73,338.94 L 436.78,338.47 L 434.50,339.10 L 434.59,338.06 L 434.12,338.67 L 433.14,338.22 L 433.44,338.82 L 432.69,338.94 L 433.60,339.51 L 432.95,340.04 L 429.96,339.05 L 430.32,340.20 L 434.19,340.80 L 432.20,343.00 L 431.78,342.61 L 431.73,343.07 L 429.67,343.18 L 431.95,343.16 L 431.63,345.71 L 430.06,346.04 L 429.37,344.79 L 429.35,346.68 L 431.46,347.74 L 430.62,349.54 L 431.79,350.46 L 431.46,353.09 L 432.91,353.48 L 431.32,354.23 L 432.08,355.35 L 431.02,356.09 L 431.92,359.14 L 431.15,362.10 L 429.76,364.16 L 428.51,363.03 L 428.72,364.07 L 429.81,364.49 L 423.32,367.66 L 418.13,371.82 L 412.54,379.98 L 408.05,384.65 L 403.28,388.15 L 395.40,391.76 L 393.03,393.64 L 393.75,391.91 L 392.92,390.93 L 395.70,391.14 L 399.44,388.90 L 400.00,389.20 L 400.28,388.18 L 402.25,388.01 L 403.17,384.92 L 404.80,384.80 L 405.23,385.34 L 405.20,383.44 L 408.36,382.10 L 408.00,379.19 L 409.31,380.17 L 409.78,379.89 L 410.06,378.43 L 409.23,377.77 L 408.59,378.60 L 405.92,378.82 L 405.66,379.74 L 404.58,379.29 L 404.70,378.40 L 402.38,377.80 L 401.82,376.34 L 401.34,378.08 L 402.88,379.17 L 403.96,379.10 L 402.19,379.99 L 401.97,382.55 L 400.78,381.43 L 400.95,383.33 L 399.58,384.03 L 400.05,384.94 L 398.05,385.38 L 397.90,386.35 L 394.29,386.96 L 393.80,389.47 L 392.96,388.77 L 393.18,389.63 L 391.46,390.23 L 391.13,391.20 L 392.40,391.75 L 391.02,392.73 L 392.98,392.56 L 392.01,393.11 L 392.92,392.84 L 392.87,393.64 L 391.08,394.57 L 386.74,401.41 L 378.61,406.25 L 376.83,405.52 L 376.86,401.68 L 381.58,398.09 L 376.59,395.91 L 374.42,392.75 L 368.69,390.89 L 365.03,387.98 L 357.95,386.25 L 354.10,383.08 L 351.19,384.89 L 349.45,384.95 L 349.45,382.68 L 340.37,377.10 L 337.65,377.13 L 335.79,378.63 L 332.56,378.48 L 331.83,377.81 L 334.90,376.13 Z M 539.02,243.73 L 538.96,245.47 L 538.23,244.08 L 537.37,243.76 L 538.49,243.25 L 539.02,243.73 Z M 542.44,239.99 L 540.24,241.16 L 541.54,239.79 L 541.23,239.14 L 542.44,239.99 Z M 476.99,159.57 L 475.87,160.46 L 476.11,158.38 L 477.17,157.61 L 476.99,159.57 Z M 503.70,158.05 L 502.59,157.39 L 503.63,157.40 L 503.70,158.05 Z M 486.54,155.17 L 485.45,155.33 L 485.65,154.29 L 486.62,153.99 L 486.54,155.17 Z M 423.04,151.13 L 422.21,150.91 L 423.21,149.75 L 423.92,150.03 L 423.04,151.13 Z M 472.69,146.57 L 471.21,146.98 L 471.70,146.04 L 472.69,146.57 Z M 434.49,145.60 L 433.07,145.28 L 433.52,144.60 L 434.43,144.49 L 434.49,145.60 Z M 435.95,144.05 L 434.79,144.12 L 434.73,143.58 L 436.03,142.51 L 435.95,144.05 Z M 439.44,141.31 L 438.61,141.80 L 438.38,141.36 L 439.44,141.31 Z M 406.70,141.68 L 403.85,142.57 L 404.23,141.36 L 406.72,140.42 L 406.70,141.68 Z M 442.14,141.50 L 441.49,141.63 L 440.83,140.56 L 441.95,140.59 L 442.14,141.50 Z M 401.91,144.16 L 396.75,147.32 L 394.66,147.73 L 395.17,146.01 L 397.38,144.73 L 397.47,142.73 L 399.04,141.03 L 401.11,140.21 L 400.73,141.19 L 401.54,140.10 L 402.90,140.87 L 401.91,144.16 Z M 403.11,138.39 L 400.47,139.63 L 402.03,137.71 L 403.13,137.07 L 403.11,138.39 Z M 432.69,141.91 L 431.85,141.41 L 432.34,142.94 L 430.83,143.97 L 431.07,144.63 L 429.12,145.58 L 427.99,145.09 L 429.37,146.11 L 428.96,147.29 L 427.75,146.33 L 427.22,146.30 L 427.22,146.96 L 428.89,147.56 L 426.38,148.22 L 424.92,147.07 L 424.57,148.55 L 425.25,148.66 L 424.64,148.93 L 422.82,147.84 L 423.14,149.07 L 422.21,149.05 L 421.61,147.95 L 421.23,147.95 L 420.92,149.76 L 419.49,150.12 L 418.87,148.61 L 418.51,150.42 L 416.01,149.93 L 415.72,149.21 L 414.32,150.20 L 413.55,149.88 L 413.40,148.94 L 412.95,148.74 L 413.27,148.47 L 413.18,147.84 L 412.80,148.74 L 413.10,149.92 L 412.64,149.21 L 412.88,150.01 L 411.97,150.14 L 412.75,150.39 L 411.55,150.62 L 409.35,150.14 L 409.52,149.44 L 407.14,147.44 L 407.26,144.65 L 409.84,145.43 L 409.21,144.92 L 410.76,144.27 L 408.68,144.72 L 407.26,144.11 L 407.87,140.37 L 408.46,141.07 L 409.96,141.38 L 408.47,140.94 L 408.32,138.83 L 409.57,137.49 L 411.96,136.79 L 419.87,137.88 L 422.82,138.01 L 422.83,137.43 L 424.83,137.07 L 433.46,138.03 L 434.09,138.84 L 432.69,141.91 Z M 404.53,137.55 L 405.54,136.04 L 407.55,135.58 L 408.78,136.14 L 408.55,137.18 L 405.81,138.59 L 404.53,137.55 Z M 421.61,135.26 L 423.26,136.02 L 421.98,136.97 L 417.89,136.77 L 421.61,135.26 Z M 409.27,134.48 L 410.61,134.67 L 411.19,135.95 L 409.01,135.38 L 409.27,134.48 Z M 414.20,133.85 L 413.59,133.97 L 414.78,133.24 L 414.20,133.85 Z M 419.91,132.85 L 421.24,133.11 L 417.51,136.03 L 415.99,136.37 L 414.96,135.70 L 412.21,135.57 L 411.85,134.28 L 414.85,134.17 L 419.91,132.85 Z M 411.39,134.60 L 410.31,134.28 L 411.97,130.98 L 412.53,133.47 L 411.39,134.60 Z M 413.18,131.26 L 414.70,131.37 L 415.31,130.76 L 415.56,131.86 L 413.27,133.05 L 412.58,132.63 L 413.18,131.26 Z M 412.90,129.78 L 413.54,129.06 L 415.86,128.80 L 414.89,129.89 L 412.90,129.78 Z M 414.92,128.26 L 416.85,127.38 L 416.43,128.15 L 414.92,128.26 Z M 412.56,120.18 L 411.39,121.02 L 410.23,119.91 L 411.00,119.04 L 412.56,120.18 Z M 410.90,118.43 L 411.44,118.91 L 410.52,119.06 L 410.02,118.75 L 410.90,118.43 Z M 644.78,300.67 L 644.82,300.58 L 645.13,300.73 L 644.78,300.67 Z M 649.96,300.26 L 650.00,300.27 L 649.99,300.29 L 649.96,300.26 Z M 433.68,356.89 L 431.94,358.80 L 432.23,356.06 L 433.38,355.49 L 433.68,356.89 Z M 431.73,347.61 L 430.40,346.74 L 432.12,345.58 L 432.77,346.13 L 431.73,347.61 Z M 444.30,333.72 L 439.29,336.52 L 440.05,335.53 L 444.30,333.72 Z M 457.11,328.14 L 455.68,327.79 L 455.98,327.58 L 457.11,328.14 Z M 468.74,327.96 L 466.40,327.35 L 468.00,325.98 L 468.74,327.96 Z M 478.86,321.98 L 478.43,321.53 L 479.89,320.76 L 481.38,321.40 L 478.86,321.98 Z M 610.98,166.89 L 610.28,167.02 L 610.57,166.79 L 610.98,166.89 Z M 644.69,128.87 L 644.77,129.12 L 644.09,129.26 L 644.69,128.87 Z M 435.36,339.02 L 434.96,340.15 L 434.43,339.64 L 435.36,339.02 Z M 584.15,197.94 L 583.89,198.54 L 583.46,198.47 L 583.81,197.61 L 584.15,197.94 Z M 503.00,157.86 L 503.47,158.16 L 501.88,157.87 L 503.00,157.86 Z M 484.45,155.24 L 485.19,155.56 L 484.61,156.08 L 484.45,155.24 Z M 487.57,154.94 L 487.22,155.36 L 486.79,155.05 L 487.57,154.94 Z M 422.42,149.54 L 421.48,149.93 L 421.29,149.35 L 422.42,149.54 Z" fill="#4A90D9" stroke="#1a5fa8" stroke-width="1.2"/>
<path d="M 30.94,47.10 L 29.49,47.59 L 21.41,45.78 L 18.18,42.07 L 18.71,39.03 L 21.77,39.39 L 23.57,40.89 L 26.30,41.77 L 29.49,44.41 L 30.94,47.10 Z M 19.70,42.13 L 19.59,41.72 L 19.02,41.66 L 18.64,42.15 L 19.70,42.13 Z M 21.74,43.09 L 20.46,43.75 L 22.77,44.62 L 23.35,44.40 L 21.74,43.09 Z" fill="#A8C8E8" stroke="none"/>
<path d="M 15.98,38.37 L 13.96,38.49 L 13.92,37.55 L 12.58,37.84 L 10.68,36.56 L 14.08,35.80 L 15.07,37.60 L 15.92,37.05 L 15.98,38.37 Z" fill="#A8C8E8" stroke="none"/>
<path d="M 47.78,21.76 L 47.55,21.99 L 46.80,20.91 L 47.78,21.76 Z" fill="#A8C8E8" stroke="none"/>
<path d="M 201.34,265.60 L 200.01,265.73 L 200.77,264.23 L 198.00,263.88 L 196.48,262.41 L 195.87,263.01 L 196.68,263.46 L 194.20,262.85 L 195.12,260.66 L 197.21,261.90 L 195.07,259.40 L 196.64,258.86 L 195.78,258.53 L 197.63,258.49 L 197.60,258.04 L 200.72,260.09 L 201.49,259.93 L 202.59,261.48 L 203.84,261.52 L 205.38,262.64 L 205.36,263.51 L 208.13,263.94 L 206.57,264.66 L 207.25,265.81 L 210.27,266.15 L 210.21,266.74 L 206.07,267.68 L 207.06,267.90 L 207.10,268.94 L 204.52,268.09 L 205.24,266.86 L 204.67,266.25 L 207.32,266.11 L 205.41,265.02 L 204.04,264.61 L 204.33,266.01 L 202.32,266.25 L 201.34,265.60 Z" fill="#A8C8E8" stroke="none"/>
<path d="M 161.13,466.20 L 161.82,465.71 L 160.77,465.42 L 162.99,464.00 L 164.75,464.43 L 166.11,466.06 L 164.33,465.99 L 162.36,466.97 L 161.13,466.20 Z" fill="#A8C8E8" stroke="none"/>
<path d="M 168.79,458.49 L 169.33,458.90 L 166.57,458.79 L 166.09,458.13 L 168.62,457.20 L 169.41,458.36 L 168.79,458.49 Z" fill="#A8C8E8" stroke="none"/>
<path d="M 165.54,461.69 L 168.49,461.52 L 168.09,461.84 L 165.54,461.69 Z" fill="#A8C8E8" stroke="none"/>
<path d="M 209.24,500.00 L 207.60,500.00 L 207.96,499.39 L 208.98,499.45 L 209.24,500.00 Z M 205.86,498.67 L 206.92,498.65 L 206.66,499.62 L 207.28,500.00 L 205.69,500.00 L 205.86,498.67 Z" fill="#A8C8E8" stroke="none"/>
<path d="M 344.80,146.65 L 346.92,148.17 L 349.23,147.94 L 349.58,147.39 L 351.01,150.20 L 349.07,148.40 L 346.32,148.60 L 345.71,147.61 L 343.62,147.47 L 343.20,147.18 L 344.57,146.86 L 341.85,146.55 L 344.80,146.65 Z" fill="#A8C8E8" stroke="none"/>
<path d="M 171.59,450.68 L 169.86,450.52 L 170.20,449.92 L 172.26,450.15 L 171.59,450.68 Z" fill="#A8C8E8" stroke="none"/>
<path d="M 475.66,166.67 L 475.37,166.93 L 474.73,166.23 L 475.66,166.67 Z" fill="#A8C8E8" stroke="none"/>
<path d="M 176.74,464.77 L 176.97,464.98 L 175.83,465.52 L 175.60,465.48 L 176.47,464.88 L 174.54,464.52 L 177.11,464.13 L 174.62,462.29 L 179.06,463.79 L 177.69,464.05 L 178.87,464.77 L 181.53,464.90 L 180.08,465.39 L 176.74,464.77 Z" fill="#A8C8E8" stroke="none"/>
<path d="M 369.23,154.56 L 368.78,154.15 L 367.57,154.65 L 368.04,153.90 L 367.11,153.87 L 366.96,153.55 L 369.96,153.88 L 369.23,154.56 Z" fill="#A8C8E8" stroke="none"/>
<path d="M 414.32,307.04 L 414.37,306.97 L 414.36,307.01 L 414.32,307.04 Z" fill="#A8C8E8" stroke="none"/>
<path d="M 329.76,277.13 L 328.77,276.04 L 330.45,275.69 L 329.76,277.13 Z" fill="#A8C8E8" stroke="none"/>
<path d="M 172.65,495.07 L 173.82,495.41 L 175.38,495.17 L 175.96,495.20 L 176.29,495.39 L 173.30,495.49 L 172.65,495.07 Z" fill="#A8C8E8" stroke="none"/>
<path d="M 178.04,496.13 L 176.44,495.40 L 179.40,496.16 L 178.04,496.13 Z" fill="#A8C8E8" stroke="none"/>
<path d="M 291.06,276.59 L 290.50,275.74 L 290.20,276.45 L 288.78,276.10 L 290.87,275.48 L 291.06,276.59 Z" fill="#A8C8E8" stroke="none"/>
<path d="M 220.80,54.89 L 218.06,54.82 L 218.49,54.10 L 220.29,53.90 L 220.80,54.89 Z" fill="#A8C8E8" stroke="none"/>
<path d="M 336.52,364.50 L 335.83,364.27 L 336.71,363.06 L 338.78,363.16 L 336.52,364.50 Z" fill="#A8C8E8" stroke="none"/>
<path d="M 338.84,362.72 L 338.26,362.57 L 338.14,361.86 L 339.83,361.49 L 338.84,362.72 Z" fill="#A8C8E8" stroke="none"/>
<path d="M 239.64,241.07 L 238.76,241.06 L 238.55,239.77 L 240.01,239.66 L 239.64,241.07 Z" fill="#A8C8E8" stroke="none"/>
<path d="M 244.25,240.45 L 243.30,239.93 L 243.11,238.16 L 244.07,238.39 L 244.25,240.45 Z" fill="#A8C8E8" stroke="none"/>
<path d="M 204.13,500.00 L 202.90,500.00 L 203.13,499.20 L 202.00,498.64 L 204.31,498.60 L 204.13,500.00 Z" fill="#A8C8E8" stroke="none"/>
<path d="M 170.14,463.39 L 166.82,463.37 L 164.69,462.61 L 170.14,463.39 Z" fill="#A8C8E8" stroke="none"/>
<path d="M 210.92,445.52 L 208.70,444.75 L 207.46,445.39 L 206.20,444.93 L 207.38,444.05 L 210.92,445.52 Z" fill="#A8C8E8" stroke="none"/>
<path d="M 360.97,339.33 L 359.60,339.17 L 359.87,338.68 L 358.66,339.16 L 357.59,338.17 L 356.59,338.83 L 354.83,338.88 L 353.83,338.16 L 354.00,337.69 L 354.82,338.67 L 355.94,338.72 L 356.90,338.10 L 356.32,338.28 L 355.66,338.02 L 357.74,337.88 L 355.08,336.30 L 360.67,338.98 L 360.97,339.33 Z" fill="#A8C8E8" stroke="none"/>
<path d="M 477.68,308.36 L 476.57,307.02 L 475.23,306.87 L 476.14,306.34 L 478.23,307.63 L 477.68,308.36 Z" fill="#A8C8E8" stroke="none"/>
<path d="M 437.86,317.57 L 434.99,317.07 L 434.37,317.46 L 436.71,317.79 L 436.63,318.30 L 434.61,317.64 L 434.08,318.14 L 434.17,317.25 L 433.07,317.47 L 432.24,316.32 L 438.35,317.39 L 437.86,317.57 Z" fill="#A8C8E8" stroke="none"/>
<path d="M 432.08,322.41 L 430.58,323.49 L 431.27,323.79 L 431.28,324.20 L 430.94,324.50 L 430.11,323.62 L 430.46,322.91 L 427.30,322.63 L 427.87,323.92 L 426.79,323.26 L 426.93,322.45 L 425.10,322.38 L 426.18,323.24 L 424.88,322.90 L 425.40,324.17 L 424.34,322.09 L 425.13,321.40 L 425.29,322.06 L 426.23,321.64 L 425.70,322.09 L 426.71,321.68 L 426.98,322.09 L 427.23,321.59 L 427.76,322.47 L 429.13,321.75 L 430.51,322.73 L 431.39,322.09 L 431.38,322.69 L 432.08,322.41 Z" fill="#A8C8E8" stroke="none"/>
<path d="M 423.41,310.00 L 423.34,308.85 L 419.53,307.28 L 420.62,309.44 L 419.19,308.26 L 418.95,306.95 L 417.05,306.26 L 414.91,305.96 L 415.43,306.47 L 414.72,306.24 L 414.37,306.97 L 413.90,304.97 L 415.30,304.24 L 415.26,305.48 L 418.70,306.34 L 419.45,305.53 L 419.39,306.54 L 420.19,306.22 L 420.25,306.85 L 421.28,305.45 L 423.69,304.87 L 424.14,305.21 L 421.45,305.95 L 420.87,306.94 L 421.68,306.85 L 421.54,307.56 L 422.84,306.90 L 421.94,307.91 L 423.30,307.92 L 424.00,308.79 L 424.68,308.41 L 424.30,309.33 L 425.18,309.17 L 427.00,310.21 L 425.18,309.57 L 424.58,311.31 L 424.58,309.86 L 423.41,310.00 Z" fill="#A8C8E8" stroke="none"/>
<path d="M 409.92,304.34 L 409.40,305.05 L 409.13,303.96 L 407.19,303.38 L 407.23,304.21 L 406.43,303.15 L 405.44,303.81 L 405.93,302.83 L 403.98,302.76 L 403.96,302.09 L 401.96,301.26 L 403.33,300.91 L 406.19,302.24 L 406.91,301.81 L 407.51,302.87 L 409.73,303.12 L 410.30,304.09 L 412.50,304.47 L 409.92,304.34 Z" fill="#A8C8E8" stroke="none"/>
<path d="M 453.78,301.16 L 451.17,299.95 L 451.45,300.66 L 450.74,300.56 L 451.00,299.63 L 449.60,299.46 L 448.51,298.24 L 450.34,298.47 L 450.45,299.40 L 451.28,299.02 L 451.58,299.92 L 454.08,300.56 L 453.78,301.16 Z" fill="#A8C8E8" stroke="none"/>
<path d="M 442.77,282.26 L 443.40,282.28 L 442.55,282.90 L 443.22,283.26 L 441.46,283.20 L 442.24,283.63 L 442.37,284.03 L 440.69,283.56 L 441.07,284.61 L 439.74,283.91 L 439.58,284.50 L 438.10,284.21 L 438.66,283.09 L 438.97,283.65 L 440.36,282.49 L 442.18,282.53 L 442.03,281.44 L 442.64,281.91 L 444.05,281.45 L 442.77,282.26 Z" fill="#A8C8E8" stroke="none"/>
<path d="M 517.82,211.50 L 515.93,211.55 L 515.24,212.19 L 514.73,211.68 L 513.89,212.69 L 514.28,213.63 L 512.49,213.54 L 509.65,214.78 L 509.83,214.29 L 507.49,214.69 L 506.34,215.52 L 507.18,214.68 L 506.10,213.92 L 504.47,215.41 L 504.87,214.40 L 504.05,214.34 L 503.79,215.60 L 502.36,216.63 L 504.37,216.82 L 505.55,217.69 L 506.04,219.48 L 505.21,217.71 L 502.25,217.16 L 504.07,219.60 L 501.83,216.65 L 500.71,216.79 L 500.44,218.52 L 503.44,221.37 L 502.69,221.23 L 502.47,223.05 L 501.10,223.60 L 500.78,224.72 L 501.00,223.16 L 502.24,221.16 L 500.96,219.79 L 501.20,221.35 L 500.51,221.42 L 500.53,220.36 L 500.14,221.13 L 500.87,219.55 L 500.16,218.73 L 496.10,223.28 L 496.89,223.55 L 496.22,223.87 L 496.57,225.12 L 495.52,225.29 L 495.68,226.60 L 495.13,225.84 L 494.34,226.27 L 493.79,225.10 L 493.02,225.27 L 493.31,224.18 L 492.00,225.25 L 490.92,225.12 L 492.77,224.09 L 492.20,223.63 L 493.07,222.99 L 494.99,222.36 L 493.91,221.86 L 494.76,221.74 L 493.43,221.57 L 493.50,220.86 L 494.47,220.84 L 495.38,222.20 L 496.50,221.85 L 495.10,220.99 L 496.84,220.76 L 494.46,220.08 L 495.70,220.21 L 495.31,219.48 L 496.82,220.43 L 497.86,220.10 L 496.33,219.82 L 496.09,219.31 L 498.11,219.57 L 496.20,218.55 L 497.71,218.93 L 497.32,218.24 L 498.60,219.25 L 499.33,218.76 L 498.68,217.12 L 495.65,215.97 L 495.85,215.43 L 496.68,215.78 L 496.26,215.42 L 496.48,215.13 L 496.82,215.85 L 497.62,215.63 L 499.22,216.76 L 498.45,215.24 L 499.71,216.21 L 500.97,215.95 L 500.60,215.39 L 501.58,214.82 L 500.30,213.26 L 501.32,213.92 L 502.40,213.62 L 501.98,212.99 L 503.81,213.00 L 503.59,212.04 L 504.38,212.35 L 504.59,211.88 L 505.07,213.09 L 507.05,212.88 L 507.23,212.27 L 508.78,212.91 L 513.08,212.79 L 513.45,211.34 L 511.72,210.83 L 512.72,210.59 L 513.98,211.26 L 513.51,210.14 L 515.29,210.45 L 515.70,209.39 L 514.53,209.03 L 515.79,208.91 L 514.65,207.80 L 516.82,208.64 L 516.02,209.23 L 516.32,211.08 L 516.55,210.03 L 517.82,211.50 Z M 495.11,223.80 L 494.28,224.77 L 495.23,225.26 L 495.91,224.28 L 495.11,223.80 Z M 496.20,222.74 L 493.21,223.94 L 495.04,223.53 L 496.20,222.74 Z" fill="#A8C8E8" stroke="none"/>
<path d="M 361.22,98.13 L 361.56,98.73 L 362.21,98.40 L 362.18,99.12 L 361.26,99.56 L 360.56,98.41 L 359.32,100.22 L 357.97,99.49 L 356.56,99.96 L 356.86,99.00 L 358.00,99.03 L 357.39,98.13 L 358.75,97.22 L 359.02,95.91 L 360.83,96.12 L 361.20,96.88 L 362.83,96.54 L 362.38,97.94 L 362.12,97.46 L 361.22,98.13 Z" fill="#A8C8E8" stroke="none"/>
<path d="M 370.11,333.96 L 368.11,334.63 L 369.66,335.64 L 367.61,335.06 L 367.33,336.27 L 368.81,336.79 L 367.73,336.93 L 368.33,337.41 L 367.48,337.74 L 369.87,338.07 L 367.64,338.38 L 368.26,338.77 L 366.79,338.51 L 367.87,339.46 L 364.58,339.63 L 365.01,338.77 L 364.29,338.39 L 365.46,338.44 L 366.37,337.43 L 362.97,336.92 L 364.04,336.35 L 366.08,336.79 L 366.35,335.74 L 362.34,335.36 L 366.59,335.30 L 366.78,334.40 L 364.77,333.92 L 367.45,333.73 L 367.57,332.95 L 366.46,332.66 L 367.56,332.52 L 366.89,331.46 L 367.96,331.70 L 368.48,330.98 L 367.43,330.06 L 368.69,328.72 L 369.23,333.72 L 370.11,333.96 Z" fill="#A8C8E8" stroke="none"/>
<path d="M 418.79,170.36 L 417.69,169.27 L 419.14,169.48 L 418.42,168.38 L 419.59,168.35 L 419.16,166.69 L 420.81,166.48 L 420.52,169.39 L 422.45,169.53 L 420.75,170.10 L 422.55,170.25 L 421.69,171.14 L 422.85,171.77 L 422.22,172.26 L 424.53,173.56 L 422.43,172.92 L 423.12,173.53 L 422.53,173.79 L 424.25,174.48 L 422.52,175.09 L 424.25,176.12 L 423.45,176.24 L 423.71,177.27 L 425.11,178.52 L 427.84,178.46 L 424.58,178.87 L 421.44,175.46 L 420.81,173.04 L 418.29,172.98 L 420.26,172.30 L 419.85,171.43 L 417.82,172.04 L 418.64,171.04 L 417.55,171.30 L 418.13,170.87 L 417.46,170.53 L 418.79,170.36 Z" fill="#A8C8E8" stroke="none"/>
<path d="M 472.42,287.24 L 469.72,286.73 L 470.43,288.57 L 469.51,287.35 L 468.96,287.99 L 468.67,287.61 L 466.51,288.31 L 467.80,287.85 L 466.53,287.62 L 469.13,287.43 L 469.43,286.68 L 469.01,285.70 L 468.92,286.89 L 467.12,286.70 L 468.16,286.47 L 468.70,284.80 L 467.61,285.79 L 466.97,285.23 L 468.92,284.36 L 467.29,283.83 L 467.02,284.76 L 466.26,284.46 L 465.41,285.30 L 466.45,283.44 L 467.88,283.23 L 467.18,283.03 L 468.11,281.97 L 466.73,282.61 L 467.37,281.95 L 468.34,281.70 L 469.05,282.06 L 468.33,282.46 L 469.19,282.51 L 468.16,283.42 L 468.91,283.63 L 467.68,283.77 L 469.27,283.91 L 469.31,285.23 L 470.24,284.67 L 469.41,285.55 L 470.08,286.16 L 469.38,286.36 L 470.60,286.64 L 471.21,285.60 L 471.37,286.52 L 472.46,286.35 L 471.96,286.83 L 472.74,286.85 L 472.42,287.24 Z" fill="#A8C8E8" stroke="none"/>
<path d="M 399.01,297.74 L 401.12,298.66 L 401.40,298.01 L 403.30,298.24 L 402.28,296.90 L 404.13,297.75 L 404.20,293.93 L 404.99,293.51 L 405.34,296.22 L 409.59,294.73 L 408.65,295.94 L 406.18,296.36 L 404.91,297.58 L 407.02,298.83 L 404.68,298.41 L 404.44,299.24 L 403.91,298.71 L 403.48,299.40 L 401.71,299.10 L 403.27,300.11 L 405.62,300.51 L 402.74,300.18 L 401.40,299.41 L 400.80,299.82 L 400.12,299.58 L 400.65,298.86 L 399.01,297.74 Z" fill="#A8C8E8" stroke="none"/>
<path d="M 394.59,307.57 L 394.32,308.20 L 393.36,308.41 L 393.58,309.33 L 390.52,311.59 L 389.79,312.99 L 383.24,315.84 L 383.57,314.87 L 388.45,313.49 L 391.71,310.04 L 391.11,309.24 L 391.98,310.01 L 393.18,309.15 L 393.02,308.07 L 394.59,307.57 Z" fill="#A8C8E8" stroke="none"/>
<path d="M 271.56,75.14 L 271.32,75.09 L 272.38,74.58 L 272.08,73.67 L 273.06,74.32 L 275.11,73.89 L 275.64,74.33 L 274.43,74.33 L 275.05,74.82 L 273.77,75.07 L 275.72,75.37 L 274.46,76.09 L 274.99,77.20 L 272.99,79.82 L 273.66,81.36 L 272.04,80.04 L 272.16,79.21 L 274.35,77.67 L 274.20,76.91 L 273.53,76.79 L 273.59,75.64 L 272.53,76.30 L 271.92,75.97 L 272.61,75.26 L 271.56,75.14 Z" fill="#A8C8E8" stroke="none"/>
<path d="M 355.46,396.44 L 353.75,396.42 L 353.83,396.86 L 352.79,396.81 L 352.29,396.53 L 352.76,397.90 L 351.62,397.45 L 352.22,398.45 L 350.78,397.41 L 350.86,398.56 L 347.79,398.39 L 347.67,399.16 L 349.73,399.88 L 347.45,399.49 L 347.38,400.21 L 346.20,399.05 L 345.07,399.34 L 344.30,398.99 L 340.54,399.66 L 340.50,398.45 L 341.38,399.11 L 341.57,398.38 L 341.84,398.95 L 343.01,397.51 L 342.43,399.04 L 343.39,398.78 L 344.94,399.15 L 345.97,397.07 L 345.46,398.31 L 346.35,398.72 L 348.07,397.22 L 348.74,397.65 L 349.40,396.88 L 349.69,397.35 L 350.11,396.58 L 351.54,397.24 L 351.47,396.14 L 352.76,396.63 L 352.72,395.76 L 354.38,396.31 L 355.47,395.83 L 355.46,396.44 Z" fill="#A8C8E8" stroke="none"/>
<path d="M 204.53,453.16 L 201.81,453.69 L 203.67,452.67 L 202.65,452.22 L 203.49,451.84 L 205.05,452.08 L 206.28,451.54 L 204.69,451.54 L 207.57,450.62 L 208.28,450.54 L 207.85,451.11 L 209.08,450.91 L 208.48,451.98 L 207.33,451.77 L 204.53,453.16 Z" fill="#A8C8E8" stroke="none"/>
<path d="M 410.77,287.13 L 409.93,286.39 L 411.73,286.28 L 411.74,284.84 L 413.08,285.29 L 413.17,284.40 L 413.69,285.31 L 415.29,285.09 L 414.84,282.55 L 416.06,284.75 L 418.38,285.07 L 415.78,285.28 L 416.21,286.38 L 414.33,285.69 L 412.83,286.03 L 412.57,286.58 L 413.78,286.73 L 410.73,287.68 L 412.17,288.20 L 410.26,288.30 L 409.68,287.34 L 410.77,287.13 Z" fill="#A8C8E8" stroke="none"/>
<path d="M 226.37,56.92 L 226.93,56.73 L 228.45,57.28 L 227.51,57.71 L 226.37,56.92 Z" fill="#A8C8E8" stroke="none"/>
<path d="M 223.83,64.15 L 223.30,64.17 L 223.39,62.58 L 224.31,63.18 L 223.83,64.15 Z" fill="#A8C8E8" stroke="none"/>
<path d="M 431.57,283.02 L 431.91,283.99 L 430.77,283.02 L 425.85,283.50 L 427.15,282.24 L 429.25,281.89 L 428.74,280.80 L 429.72,281.76 L 430.93,280.69 L 430.06,282.04 L 428.43,282.64 L 433.72,282.88 L 435.07,281.81 L 434.75,282.65 L 435.73,282.86 L 431.57,283.02 Z" fill="#A8C8E8" stroke="none"/>
<path d="M 413.50,295.96 L 411.82,295.22 L 415.09,294.30 L 416.84,295.42 L 421.44,295.16 L 422.87,296.00 L 417.43,296.01 L 419.85,297.17 L 417.08,296.65 L 416.11,295.78 L 415.46,297.35 L 415.21,295.65 L 413.79,295.39 L 413.50,295.96 Z" fill="#A8C8E8" stroke="none"/>
<path d="M 469.17,305.17 L 468.67,305.34 L 468.24,305.19 L 468.13,304.60 L 467.02,304.96 L 465.67,304.23 L 465.22,304.86 L 465.38,303.86 L 463.76,303.23 L 462.93,301.97 L 462.05,301.66 L 461.17,302.33 L 459.54,301.77 L 458.57,302.81 L 459.29,302.53 L 459.88,302.85 L 460.40,303.54 L 459.70,303.59 L 460.72,304.04 L 460.17,304.46 L 461.51,304.18 L 463.35,304.77 L 461.06,304.59 L 461.70,305.66 L 460.98,305.95 L 463.19,306.62 L 462.38,307.22 L 465.35,307.69 L 465.74,308.45 L 464.43,307.86 L 463.66,308.31 L 462.53,307.50 L 461.84,308.41 L 461.97,306.69 L 460.66,306.24 L 460.14,307.54 L 458.19,307.75 L 460.25,306.87 L 458.41,306.37 L 460.18,306.60 L 459.65,306.17 L 460.79,305.49 L 460.17,305.67 L 460.56,304.91 L 458.35,304.23 L 459.96,304.14 L 458.34,303.74 L 459.58,303.09 L 458.05,302.73 L 458.76,301.86 L 456.73,301.52 L 460.58,301.26 L 461.19,301.83 L 462.39,301.16 L 462.59,300.12 L 463.45,301.35 L 462.58,301.50 L 463.81,301.79 L 464.24,300.59 L 464.87,300.46 L 464.60,301.12 L 465.47,300.67 L 464.56,301.60 L 466.09,301.66 L 463.51,302.10 L 464.25,302.25 L 464.02,302.95 L 466.38,303.48 L 465.97,304.04 L 467.28,304.54 L 469.05,304.24 L 468.44,305.06 L 469.17,305.17 Z" fill="#A8C8E8" stroke="none"/>
<path d="M 419.47,321.52 L 421.53,325.31 L 420.10,324.15 L 420.28,325.51 L 418.96,324.54 L 419.80,323.43 L 418.20,323.27 L 419.25,322.01 L 418.20,320.85 L 421.74,321.10 L 419.47,321.52 Z" fill="#A8C8E8" stroke="none"/>
<path d="M 407.35,319.99 L 405.43,318.77 L 405.79,320.07 L 404.95,320.92 L 405.04,319.06 L 403.91,318.53 L 402.38,318.81 L 401.54,317.73 L 400.95,319.42 L 399.76,317.30 L 401.60,316.45 L 401.65,317.10 L 403.28,316.97 L 402.95,317.73 L 404.81,318.08 L 405.84,316.87 L 405.38,318.13 L 406.45,317.89 L 406.70,318.70 L 407.71,318.86 L 407.50,319.57 L 410.22,319.66 L 407.35,319.99 Z" fill="#A8C8E8" stroke="none"/>
<path d="M 387.22,397.24 L 385.23,399.55 L 383.97,399.62 L 382.85,398.36 L 381.43,398.71 L 380.40,400.81 L 378.11,401.58 L 377.88,404.49 L 376.90,405.04 L 375.94,400.69 L 379.21,399.90 L 379.63,398.91 L 378.90,398.33 L 382.48,397.16 L 383.24,396.06 L 385.29,395.38 L 384.72,394.87 L 386.44,393.71 L 386.01,394.94 L 387.22,395.98 L 387.22,397.24 Z" fill="#A8C8E8" stroke="none"/>
<path d="M 280.37,382.99 L 276.25,383.07 L 274.96,383.84 L 271.79,381.87 L 275.37,381.04 L 275.80,380.36 L 278.78,380.58 L 280.69,381.44 L 280.37,382.99 Z" fill="#A8C8E8" stroke="none"/>
<path d="M 228.99,288.89 L 227.75,289.70 L 226.84,287.26 L 225.43,286.54 L 226.21,285.81 L 224.94,285.25 L 227.08,283.06 L 226.91,282.01 L 225.24,281.18 L 226.40,280.38 L 227.33,280.61 L 226.73,281.65 L 227.44,282.20 L 226.54,285.35 L 228.97,287.79 L 228.99,288.89 Z" fill="#A8C8E8" stroke="none"/>
<path d="M 87.66,62.60 L 87.15,63.01 L 86.04,63.02 L 85.50,63.56 L 85.98,63.04 L 84.60,62.55 L 84.27,63.83 L 83.69,63.29 L 82.77,63.62 L 85.66,61.20 L 86.27,61.87 L 85.36,62.36 L 87.66,62.60 Z" fill="#A8C8E8" stroke="none"/>
</svg>