<svg xmlns="http://www.w3.org/2000/svg" width="800" height="500" viewBox="0 0 800 500">
<rect width="800" height="500" fill="#A8C8E8"/>
<path d="M 726.10,484.14 L 720.80,488.67 L 730.50,497.76 L 726.79,500.00 L 651.75,500.00 L 652.85,499.52 L 645.82,493.63 L 652.35,490.44 L 648.05,486.12 L 653.43,482.52 L 631.31,474.33 L 601.57,472.64 L 597.29,468.03 L 604.81,463.03 L 600.78,463.03 L 619.27,456.96 L 647.82,456.64 L 676.36,463.58 L 680.10,468.35 L 688.51,464.80 L 717.52,471.56 L 715.84,468.74 L 722.19,468.79 L 726.10,484.14 Z M 645.89,449.20 L 658.66,453.30 L 634.36,450.55 L 645.89,449.20 Z" fill="#E8E0D0" stroke="#B8B0A0" stroke-width="0.5"/>
<path d="M 729.20,459.25 L 764.92,462.35 L 777.43,456.96 L 800.00,464.25 L 800.00,500.00 L 726.79,500.00 L 730.50,497.76 L 720.80,488.67 L 726.10,484.14 L 722.19,468.79 L 729.20,459.25 Z" fill="#E8E0D0" stroke="#B8B0A0" stroke-width="0.5"/>
<path d="M 473.37,459.08 L 475.44,455.21 L 478.51,455.20 L 478.51,459.07 L 473.37,459.08 Z M 474.00,456.90 L 468.44,458.92 L 468.73,456.98 L 474.00,456.90 Z" fill="#E8E0D0" stroke="#B8B0A0" stroke-width="0.5"/>
<path d="M 478.69,450.55 L 464.66,459.53 L 397.66,454.13 L 287.87,462.56 L 296.60,449.13 L 331.14,434.58 L 333.40,429.55 L 321.90,424.47 L 325.15,420.65 L 314.37,416.40 L 261.62,416.75 L 230.78,399.77 L 230.03,387.74 L 212.04,368.70 L 178.14,373.27 L 145.78,365.83 L 131.27,366.44 L 128.02,362.28 L 120.15,364.32 L 87.67,347.20 L 92.00,345.54 L 85.01,339.84 L 81.08,341.27 L 86.01,347.67 L 40.91,345.35 L 33.21,335.18 L 32.42,346.68 L 29.91,341.96 L 22.70,345.19 L 9.15,339.16 L 0.00,339.51 L 0.00,323.00 L 0.41,320.06 L 0.00,319.92 L 0.00,289.46 L 4.94,289.66 L 8.76,295.41 L 36.48,286.82 L 26.47,291.08 L 36.48,296.04 L 41.67,292.46 L 71.96,293.20 L 76.77,289.75 L 79.73,297.47 L 88.88,300.46 L 117.01,299.98 L 126.48,305.69 L 130.37,303.90 L 135.50,303.17 L 130.81,307.17 L 145.81,310.39 L 168.44,328.35 L 209.32,329.52 L 212.77,333.38 L 214.71,329.71 L 261.66,345.29 L 274.58,356.58 L 276.62,351.57 L 280.56,351.57 L 277.47,354.46 L 284.54,359.96 L 306.15,361.41 L 308.00,367.60 L 314.07,368.59 L 306.65,360.11 L 294.57,355.83 L 298.82,353.53 L 329.64,367.25 L 328.15,372.96 L 312.82,369.99 L 320.79,372.29 L 320.58,377.02 L 327.60,376.82 L 332.97,370.27 L 353.16,381.12 L 347.65,385.80 L 353.61,381.50 L 363.40,383.28 L 358.79,386.93 L 372.65,386.82 L 367.66,390.05 L 373.19,392.18 L 379.13,390.05 L 374.06,387.12 L 384.13,387.00 L 409.72,397.89 L 434.04,395.59 L 443.21,401.08 L 431.17,407.52 L 445.20,411.04 L 429.21,410.30 L 432.54,417.59 L 439.22,413.17 L 445.20,418.17 L 453.34,415.25 L 462.60,419.19 L 466.73,418.88 L 463.96,416.16 L 485.56,417.32 L 504.75,422.07 L 529.76,438.84 L 541.23,437.04 L 548.26,441.14 L 538.93,450.18 L 499.10,451.79 L 478.51,459.07 L 478.69,450.55 Z M 241.66,426.81 L 232.57,422.43 L 234.76,422.06 L 241.66,426.81 Z M 229.04,417.82 L 226.59,417.14 L 231.07,415.69 L 229.04,417.82 Z M 207.48,414.38 L 211.59,416.01 L 208.56,416.32 L 207.48,414.38 Z M 448.34,412.86 L 450.24,415.39 L 443.26,413.75 L 448.34,412.86 Z M 202.40,411.68 L 204.56,413.56 L 196.00,411.43 L 202.40,411.68 Z M 195.50,408.34 L 194.21,410.13 L 187.57,407.11 L 195.50,408.34 Z M 184.96,406.40 L 177.01,401.47 L 183.34,402.67 L 184.96,406.40 Z M 167.31,395.14 L 172.03,397.89 L 168.52,397.98 L 167.31,395.14 Z M 11.11,369.64 L 6.44,370.44 L 7.11,369.16 L 20.19,365.12 L 11.11,369.64 Z M 288.08,354.45 L 270.10,344.48 L 275.77,345.88 L 280.39,344.64 L 293.12,346.99 L 288.08,354.45 Z M 275.12,333.77 L 284.10,340.55 L 282.34,340.58 L 275.12,333.77 Z M 263.07,339.48 L 265.83,337.66 L 266.16,334.94 L 265.11,333.45 L 279.11,341.61 L 276.38,344.66 L 263.07,339.48 Z M 243.58,328.81 L 255.88,327.53 L 265.61,335.19 L 243.58,328.81 Z M 226.92,325.99 L 215.77,323.44 L 215.58,321.68 L 237.47,320.73 L 246.07,326.50 L 226.92,325.99 Z M 193.07,315.69 L 187.03,314.91 L 196.25,315.51 L 193.07,315.69 Z M 155.42,312.37 L 151.65,308.86 L 147.01,308.14 L 151.78,308.04 L 166.24,314.66 L 169.53,317.78 L 155.42,312.37 Z M 127.79,301.15 L 124.06,301.58 L 123.49,300.30 L 127.79,301.15 Z M 102.15,297.29 L 103.46,299.98 L 94.99,298.56 L 102.15,297.29 Z M 108.23,293.05 L 110.80,293.34 L 103.96,293.20 L 108.23,293.05 Z M 61.62,289.91 L 59.74,290.81 L 49.44,292.11 L 61.62,289.91 Z M 84.22,289.11 L 77.99,288.56 L 79.52,287.20 L 84.22,289.11 Z M 224.19,420.04 L 223.64,420.29 L 221.62,419.54 L 224.19,420.04 Z M 220.43,419.50 L 220.32,419.79 L 219.21,419.84 L 220.43,419.50 Z M 7.43,347.50 L 4.38,346.04 L 4.84,345.83 L 7.43,347.50 Z M 212.47,322.57 L 210.48,322.86 L 210.32,321.67 L 212.47,322.57 Z M 177.64,316.40 L 180.48,316.32 L 178.32,317.37 L 177.64,316.40 Z M 140.03,304.81 L 140.28,302.85 L 140.95,304.09 L 140.03,304.81 Z M 132.99,302.06 L 131.59,302.52 L 129.79,300.57 L 132.99,302.06 Z M 116.27,296.47 L 113.46,295.35 L 114.78,294.23 L 116.27,296.47 Z M 102.11,293.45 L 98.06,290.87 L 100.49,290.58 L 102.11,293.45 Z M 92.91,289.95 L 86.81,291.18 L 87.81,290.03 L 92.91,289.95 Z M 71.12,288.15 L 68.96,288.49 L 69.65,287.26 L 71.12,288.15 Z M 68.41,287.94 L 57.49,286.41 L 59.21,286.24 L 68.41,287.94 Z M 56.24,285.80 L 51.55,284.49 L 53.72,284.06 L 56.24,285.80 Z" fill="#E8E0D0" stroke="#B8B0A0" stroke-width="0.5"/>
<path d="M 74.60,4.26 L 81.82,13.52 L 77.15,27.27 L 87.46,45.02 L 75.12,27.32 L 76.55,6.88 L 64.46,6.26 L 65.38,0.00 L 70.37,0.00 L 74.60,4.26 Z M 66.48,18.67 L 92.57,55.42 L 95.17,63.29 L 105.94,79.85 L 106.00,80.65 L 104.53,79.15 L 97.43,77.43 L 109.52,82.85 L 117.59,99.84 L 110.98,153.66 L 110.12,147.14 L 97.98,161.82 L 91.00,184.27 L 79.09,181.16 L 68.48,186.40 L 39.93,187.46 L 34.44,182.11 L 35.33,178.46 L 37.88,176.05 L 41.69,179.77 L 48.45,181.75 L 46.95,182.82 L 53.41,181.18 L 37.05,173.95 L 21.93,151.50 L 1.91,144.73 L 0.00,145.06 L 0.00,0.00 L 59.57,0.00 L 66.48,18.67 Z M 8.61,213.94 L 0.90,215.58 L 8.88,213.45 L 6.44,209.87 L 10.43,212.71 L 8.61,213.94 Z M 37.43,209.17 L 44.46,207.75 L 41.81,209.06 L 37.43,209.17 Z M 21.42,210.25 L 20.89,213.10 L 20.78,211.55 L 15.95,206.68 L 21.42,210.25 Z M 50.37,206.97 L 44.96,208.46 L 50.62,205.96 L 50.37,206.97 Z M 61.82,203.82 L 57.96,204.16 L 58.68,203.59 L 61.82,203.82 Z M 93.99,185.66 L 78.14,196.53 L 76.72,196.54 L 94.29,182.13 L 93.44,179.08 L 102.01,176.05 L 93.99,185.66 Z M 104.55,172.36 L 103.00,172.85 L 106.64,168.05 L 104.55,172.36 Z M 107.00,156.86 L 108.99,155.76 L 108.82,158.65 L 107.00,156.86 Z M 87.92,45.48 L 108.49,81.01 L 99.02,68.35 L 87.92,45.48 Z M 73.60,27.47 L 73.03,26.50 L 74.46,28.67 L 73.60,27.47 Z M 75.69,8.52 L 72.94,26.38 L 66.54,12.88 L 75.69,8.52 Z M 16.88,211.64 L 17.39,211.85 L 17.09,212.25 L 16.88,211.64 Z M 28.51,211.21 L 27.22,211.84 L 27.11,211.73 L 28.51,211.21 Z M 15.29,211.59 L 15.14,212.10 L 13.74,211.38 L 15.29,211.59 Z M 12.23,212.14 L 9.39,210.88 L 9.77,209.65 L 12.23,212.14 Z M 23.96,209.82 L 24.17,210.83 L 22.48,209.53 L 23.96,209.82 Z M 68.48,200.99 L 66.47,201.70 L 67.10,201.07 L 68.48,200.99 Z M 75.22,196.98 L 72.40,199.08 L 74.72,197.26 L 75.22,196.98 Z M 44.47,178.53 L 42.49,179.56 L 41.65,178.27 L 44.47,178.53 Z M 40.75,177.69 L 38.45,176.46 L 38.86,176.18 L 40.75,177.69 Z M 15.28,152.18 L 15.21,150.17 L 16.01,149.73 L 19.59,151.29 L 15.28,152.18 Z M 9.99,150.50 L 9.63,149.27 L 12.74,148.61 L 9.99,150.50 Z M 8.41,148.29 L 7.52,149.59 L 6.61,147.01 L 8.41,148.29 Z" fill="#E8E0D0" stroke="#B8B0A0" stroke-width="0.5"/>
<path d="M 672.85,366.43 L 669.34,369.02 L 670.65,367.22 L 672.85,366.43 Z M 735.64,363.57 L 734.37,362.60 L 742.38,364.08 L 743.94,367.25 L 735.64,363.57 Z M 715.38,357.28 L 727.93,358.03 L 731.43,361.54 L 715.38,357.28 Z M 680.35,356.96 L 695.40,359.41 L 683.17,362.86 L 680.35,356.96 Z M 703.21,352.05 L 710.97,352.49 L 714.89,357.96 L 707.82,356.73 L 708.31,352.80 L 702.88,354.77 L 703.21,352.05 Z M 768.08,377.23 L 766.91,379.34 L 766.47,377.20 L 768.08,377.23 Z M 727.82,385.95 L 728.28,385.84 L 726.45,386.60 L 727.82,385.95 Z M 731.58,384.92 L 731.15,386.47 L 730.70,386.03 L 731.58,384.92 Z M 763.44,384.36 L 761.89,385.63 L 761.48,385.44 L 763.44,384.36 Z M 741.25,375.41 L 739.45,376.35 L 738.09,374.93 L 741.11,372.19 L 741.25,375.41 Z M 695.99,357.41 L 694.77,357.73 L 695.36,357.37 L 695.99,357.41 Z M 698.12,356.43 L 697.20,356.85 L 697.06,356.48 L 698.12,356.43 Z" fill="#E8E0D0" stroke="#B8B0A0" stroke-width="0.5"/>
<path d="M 41.05,489.58 L 19.08,491.97 L 16.96,486.46 L 21.84,489.99 L 41.05,489.58 Z M 122.99,469.06 L 112.12,471.46 L 115.85,469.28 L 122.99,469.06 Z M 138.94,466.32 L 140.34,467.39 L 128.14,470.37 L 138.94,466.32 Z" fill="#E8E0D0" stroke="#B8B0A0" stroke-width="0.5"/>
<path d="M 627.59,379.69 L 625.90,375.44 L 632.09,372.57 L 638.01,375.54 L 627.59,379.69 Z M 621.85,325.94 L 650.00,332.60 L 647.57,334.84 L 621.31,330.94 L 621.85,325.94 Z M 590.84,318.30 L 590.66,318.03 L 594.87,318.07 L 590.84,318.30 Z M 582.71,395.78 L 603.00,389.65 L 612.84,394.75 L 619.71,392.94 L 631.13,385.43 L 621.99,402.10 L 615.00,404.24 L 583.89,406.25 L 580.12,400.74 L 582.71,395.78 Z M 535.27,318.51 L 530.30,321.68 L 530.95,319.45 L 537.74,314.91 L 535.27,318.51 Z M 569.28,311.71 L 568.28,324.87 L 538.23,340.90 L 567.20,323.68 L 558.77,315.65 L 569.28,311.71 Z M 533.30,306.37 L 557.27,312.39 L 551.83,315.65 L 537.51,311.71 L 533.30,306.37 Z M 573.25,294.02 L 571.82,292.46 L 581.40,292.53 L 573.25,294.02 Z M 443.32,274.69 L 447.20,276.82 L 438.91,275.23 L 443.32,274.69 Z M 437.18,274.34 L 409.72,266.86 L 410.13,263.12 L 437.18,274.34 Z M 497.13,305.13 L 487.05,294.07 L 477.78,292.68 L 468.68,288.95 L 480.44,291.80 L 461.25,262.22 L 481.06,290.50 L 495.73,298.88 L 497.13,305.13 Z M 499.14,260.47 L 501.71,261.51 L 489.70,263.63 L 499.14,260.47 Z M 385.05,243.48 L 383.12,239.80 L 384.92,240.63 L 388.69,247.25 L 385.05,243.48 Z M 517.71,248.31 L 524.52,238.42 L 527.27,241.58 L 523.74,246.93 L 517.71,248.31 Z M 268.14,236.19 L 277.36,232.84 L 281.10,232.67 L 268.14,236.19 Z M 271.09,234.09 L 265.17,232.99 L 271.36,231.58 L 271.09,234.09 Z M 376.42,234.53 L 372.65,230.54 L 373.77,230.97 L 376.42,234.53 Z M 298.10,259.37 L 282.60,259.06 L 290.12,258.31 L 297.35,253.84 L 286.84,257.08 L 283.60,255.09 L 290.82,252.99 L 291.17,251.89 L 281.10,253.35 L 278.56,244.77 L 270.64,240.87 L 290.12,230.16 L 293.33,232.96 L 284.10,236.93 L 285.09,244.06 L 295.06,234.56 L 301.09,247.44 L 295.56,250.83 L 301.09,249.38 L 298.10,259.37 Z M 280.69,228.90 L 286.91,226.59 L 289.59,227.57 L 280.69,228.90 Z M 464.24,238.38 L 448.21,238.52 L 455.50,231.72 L 431.99,209.60 L 464.24,238.38 Z M 298.39,192.96 L 320.16,190.93 L 311.71,193.86 L 298.39,192.96 Z M 243.67,209.01 L 242.58,215.49 L 252.06,214.52 L 244.21,208.06 L 254.89,193.93 L 250.76,184.35 L 263.11,184.43 L 285.59,209.52 L 286.94,219.93 L 264.40,231.72 L 256.59,219.84 L 249.87,221.72 L 234.97,214.63 L 243.67,209.01 Z M 404.19,187.97 L 400.66,212.39 L 387.87,203.56 L 399.11,201.80 L 400.39,187.20 L 385.30,177.19 L 355.15,171.79 L 358.64,164.66 L 362.13,168.60 L 386.76,176.35 L 404.19,187.97 Z M 275.13,153.99 L 275.12,152.92 L 276.76,153.56 L 279.61,157.18 L 275.13,153.99 Z M 297.60,128.03 L 297.10,124.45 L 297.77,124.70 L 297.60,128.03 Z M 210.42,115.59 L 193.55,105.55 L 214.26,112.34 L 224.52,106.44 L 219.56,104.84 L 223.05,99.87 L 243.04,106.32 L 272.58,101.65 L 271.59,108.78 L 210.42,115.59 Z M 269.14,95.59 L 276.03,93.75 L 295.11,94.17 L 335.78,115.16 L 338.34,125.59 L 327.38,129.24 L 322.87,147.96 L 309.61,140.44 L 323.12,134.41 L 321.14,125.72 L 327.68,112.67 L 315.34,110.58 L 300.40,97.14 L 269.14,95.59 Z M 155.61,272.19 L 154.08,271.35 L 155.86,272.10 L 155.61,272.19 Z M 153.03,270.12 L 150.00,268.00 L 150.41,268.17 L 153.03,270.12 Z M 173.94,166.00 L 174.26,166.51 L 174.10,166.47 L 173.94,166.00 Z M 172.33,164.69 L 172.96,165.48 L 172.30,164.89 L 172.33,164.69 Z M 433.26,340.31 L 431.83,340.72 L 431.45,338.24 L 433.26,340.31 Z M 430.44,337.48 L 430.55,336.14 L 430.86,336.23 L 430.44,337.48 Z M 426.84,331.46 L 426.63,331.75 L 425.60,329.63 L 426.84,331.46 Z M 588.11,318.54 L 585.80,319.98 L 586.33,318.57 L 588.11,318.54 Z M 477.72,254.66 L 476.87,255.51 L 476.42,254.68 L 477.72,254.66 Z M 278.11,227.71 L 278.61,227.74 L 276.10,229.30 L 278.11,227.71 Z M 356.02,218.93 L 354.80,218.96 L 354.58,217.37 L 356.02,218.93 Z M 275.20,172.75 L 273.22,172.69 L 278.32,171.37 L 275.20,172.75 Z M 174.55,157.62 L 171.44,157.68 L 172.93,154.60 L 174.55,157.62 Z M 321.82,118.98 L 320.83,119.22 L 319.10,117.79 L 321.82,118.98 Z M 278.48,110.27 L 276.02,112.69 L 274.21,110.68 L 278.48,110.27 Z M 357.06,165.42 L 357.97,165.63 L 354.94,165.79 L 357.06,165.42 Z M 353.34,166.44 L 348.76,167.62 L 349.85,166.72 L 353.34,166.44 Z" fill="#4A90D9" stroke="#1a5fa8" stroke-width="1.2"/>
<path d="M 66.23,106.25 L 39.98,91.89 L 62.81,79.83 L 74.50,89.43 L 66.23,106.25 Z" fill="#A8C8E8" stroke="none"/>
<path d="M 33.89,49.67 L 24.93,44.66 L 24.93,38.64 L 33.89,49.67 Z" fill="#A8C8E8" stroke="none"/>
<path d="M 0.00,8.85 L 0.00,8.85 L 0.00,2.83 L 5.59,4.69 L 0.00,8.85 Z" fill="#A8C8E8" stroke="none"/>
<path d="M 30.78,70.83 L 25.12,74.20 L 22.48,68.91 L 30.78,70.83 Z" fill="#A8C8E8" stroke="none"/>
</svg>