<svg xmlns="http://www.w3.org/2000/svg" width="800" height="500" viewBox="0 0 800 500">
<rect width="800" height="500" fill="#A8C8E8"/>
<path d="M 612.13,484.14 L 608.68,488.67 L 614.99,497.76 L 612.57,500.00 L 563.76,500.00 L 564.47,499.52 L 559.91,493.63 L 564.15,490.44 L 561.35,486.12 L 564.86,482.52 L 550.46,474.33 L 531.12,472.64 L 528.33,468.03 L 533.23,463.03 L 530.61,463.03 L 542.63,456.96 L 561.20,456.64 L 579.77,463.58 L 582.21,468.35 L 587.68,464.80 L 606.54,471.56 L 605.45,468.74 L 609.58,468.79 L 612.13,484.14 Z M 559.95,449.20 L 568.26,453.30 L 552.45,450.55 L 559.95,449.20 Z" fill="#E8E0D0" stroke="#B8B0A0" stroke-width="0.5"/>
<path d="M 614.14,459.25 L 637.38,462.35 L 645.51,456.96 L 660.20,464.25 L 660.20,500.00 L 612.57,500.00 L 614.99,497.76 L 608.68,488.67 L 612.13,484.14 L 609.58,468.79 L 614.14,459.25 Z" fill="#E8E0D0" stroke="#B8B0A0" stroke-width="0.5"/>
<path d="M 447.73,459.08 L 449.07,455.21 L 451.07,455.20 L 451.07,459.07 L 447.73,459.08 Z M 448.14,456.90 L 444.52,458.92 L 444.71,456.98 L 448.14,456.90 Z" fill="#E8E0D0" stroke="#B8B0A0" stroke-width="0.5"/>
<path d="M 451.19,450.55 L 442.06,459.53 L 398.48,454.13 L 327.06,462.56 L 332.74,449.13 L 355.21,434.58 L 356.68,429.55 L 349.20,424.47 L 351.31,420.65 L 344.30,416.40 L 309.99,416.75 L 289.93,399.77 L 289.44,387.74 L 277.73,368.70 L 255.68,373.27 L 234.63,365.83 L 225.20,366.44 L 223.08,362.28 L 217.96,364.32 L 196.83,347.20 L 199.65,345.54 L 195.10,339.84 L 192.55,341.27 L 195.75,347.67 L 166.42,345.35 L 161.41,335.18 L 160.90,346.68 L 159.26,341.96 L 154.57,345.19 L 145.75,339.16 L 139.80,339.51 L 139.80,323.00 L 140.07,320.06 L 139.80,319.92 L 139.80,289.46 L 143.02,289.66 L 145.50,295.41 L 163.53,286.82 L 157.02,291.08 L 163.53,296.04 L 166.91,292.46 L 186.62,293.20 L 189.74,289.75 L 191.67,297.47 L 197.62,300.46 L 215.92,299.98 L 222.08,305.69 L 224.61,303.90 L 227.94,303.17 L 224.89,307.17 L 234.65,310.39 L 249.37,328.35 L 275.97,329.52 L 278.21,333.38 L 279.47,329.71 L 310.01,345.29 L 318.42,356.58 L 319.74,351.57 L 322.31,351.57 L 320.29,354.46 L 324.90,359.96 L 338.95,361.41 L 340.16,367.60 L 344.10,368.59 L 339.28,360.11 L 331.42,355.83 L 334.18,353.53 L 354.23,367.25 L 353.26,372.96 L 343.29,369.99 L 348.48,372.29 L 348.34,377.02 L 352.91,376.82 L 356.40,370.27 L 369.53,381.12 L 365.95,385.80 L 369.83,381.50 L 376.19,383.28 L 373.19,386.93 L 382.21,386.82 L 378.97,390.05 L 382.56,392.18 L 386.42,390.05 L 383.13,387.12 L 389.68,387.00 L 406.32,397.89 L 422.14,395.59 L 428.11,401.08 L 420.27,407.52 L 429.40,411.04 L 419.00,410.30 L 421.17,417.59 L 425.51,413.17 L 429.40,418.17 L 434.70,415.25 L 440.72,419.19 L 443.41,418.88 L 441.60,416.16 L 455.66,417.32 L 468.14,422.07 L 484.41,438.84 L 491.87,437.04 L 496.44,441.14 L 490.37,450.18 L 464.46,451.79 L 451.07,459.07 L 451.19,450.55 Z M 297.00,426.81 L 291.09,422.43 L 292.51,422.06 L 297.00,426.81 Z M 288.79,417.82 L 287.20,417.14 L 290.11,415.69 L 288.79,417.82 Z M 274.77,414.38 L 277.44,416.01 L 275.47,416.32 L 274.77,414.38 Z M 431.45,412.86 L 432.68,415.39 L 428.14,413.75 L 431.45,412.86 Z M 271.46,411.68 L 272.87,413.56 L 267.30,411.43 L 271.46,411.68 Z M 266.97,408.34 L 266.13,410.13 L 261.81,407.11 L 266.97,408.34 Z M 260.11,406.40 L 254.95,401.47 L 259.07,402.67 L 260.11,406.40 Z M 248.63,395.14 L 251.71,397.89 L 249.42,397.98 L 248.63,395.14 Z M 147.03,369.64 L 143.99,370.44 L 144.43,369.16 L 152.94,365.12 L 147.03,369.64 Z M 327.20,354.45 L 315.50,344.48 L 319.19,345.88 L 322.19,344.64 L 330.47,346.99 L 327.20,354.45 Z M 318.77,333.77 L 324.61,340.55 L 323.47,340.58 L 318.77,333.77 Z M 310.93,339.48 L 312.72,337.66 L 312.94,334.94 L 312.25,333.45 L 321.36,341.61 L 319.58,344.66 L 310.93,339.48 Z M 298.25,328.81 L 306.25,327.53 L 312.58,335.19 L 298.25,328.81 Z M 287.41,325.99 L 280.16,323.44 L 280.03,321.68 L 294.27,320.73 L 299.87,326.50 L 287.41,325.99 Z M 265.39,315.69 L 261.46,314.91 L 267.46,315.51 L 265.39,315.69 Z M 240.90,312.37 L 238.45,308.86 L 235.43,308.14 L 238.53,308.04 L 247.94,314.66 L 250.08,317.78 L 240.90,312.37 Z M 222.93,301.15 L 220.50,301.58 L 220.13,300.30 L 222.93,301.15 Z M 206.25,297.29 L 207.10,299.98 L 201.59,298.56 L 206.25,297.29 Z M 210.20,293.05 L 211.88,293.34 L 207.43,293.20 L 210.20,293.05 Z M 179.89,289.91 L 178.66,290.81 L 171.96,292.11 L 179.89,289.91 Z M 194.59,289.11 L 190.53,288.56 L 191.53,287.20 L 194.59,289.11 Z M 285.63,420.04 L 285.28,420.29 L 283.97,419.54 L 285.63,420.04 Z M 283.19,419.50 L 283.12,419.79 L 282.40,419.84 L 283.19,419.50 Z M 144.64,347.50 L 142.65,346.04 L 142.95,345.83 L 144.64,347.50 Z M 278.01,322.57 L 276.72,322.86 L 276.62,321.67 L 278.01,322.57 Z M 255.36,316.40 L 257.20,316.32 L 255.80,317.37 L 255.36,316.40 Z M 230.89,304.81 L 231.05,302.85 L 231.49,304.09 L 230.89,304.81 Z M 226.31,302.06 L 225.40,302.52 L 224.23,300.57 L 226.31,302.06 Z M 215.44,296.47 L 213.61,295.35 L 214.46,294.23 L 215.44,296.47 Z M 206.22,293.45 L 203.59,290.87 L 205.17,290.58 L 206.22,293.45 Z M 200.24,289.95 L 196.27,291.18 L 196.92,290.03 L 200.24,289.95 Z M 186.07,288.15 L 184.66,288.49 L 185.11,287.26 L 186.07,288.15 Z M 184.30,287.94 L 177.20,286.41 L 178.32,286.24 L 184.30,287.94 Z M 176.38,285.80 L 173.34,284.49 L 174.75,284.06 L 176.38,285.80 Z" fill="#E8E0D0" stroke="#B8B0A0" stroke-width="0.5"/>
<path d="M 188.33,4.26 L 193.02,13.52 L 189.99,27.27 L 196.70,45.02 L 188.67,27.32 L 189.60,6.88 L 181.73,6.26 L 182.33,0.00 L 185.58,0.00 L 188.33,4.26 Z M 183.05,18.67 L 200.02,55.42 L 201.71,63.29 L 208.72,79.85 L 208.75,80.65 L 207.80,79.15 L 203.18,77.43 L 211.04,82.85 L 216.29,99.84 L 211.99,153.66 L 211.43,147.14 L 203.54,161.82 L 198.99,184.27 L 191.25,181.16 L 184.35,186.40 L 165.77,187.46 L 162.21,182.11 L 162.79,178.46 L 164.45,176.05 L 166.92,179.77 L 171.32,181.75 L 170.34,182.82 L 174.55,181.18 L 163.90,173.95 L 154.07,151.50 L 141.04,144.73 L 139.80,145.06 L 139.80,0.00 L 178.55,0.00 L 183.05,18.67 Z M 145.41,213.94 L 140.39,215.58 L 145.58,213.45 L 143.99,209.87 L 146.58,212.71 L 145.41,213.94 Z M 164.15,209.17 L 168.72,207.75 L 167.00,209.06 L 164.15,209.17 Z M 153.74,210.25 L 153.39,213.10 L 153.32,211.55 L 150.18,206.68 L 153.74,210.25 Z M 172.57,206.97 L 169.05,208.46 L 172.73,205.96 L 172.57,206.97 Z M 180.01,203.82 L 177.51,204.16 L 177.98,203.59 L 180.01,203.82 Z M 200.94,185.66 L 190.63,196.53 L 189.71,196.54 L 201.14,182.13 L 200.59,179.08 L 206.16,176.05 L 200.94,185.66 Z M 207.81,172.36 L 206.81,172.85 L 209.17,168.05 L 207.81,172.36 Z M 209.40,156.86 L 210.70,155.76 L 210.59,158.65 L 209.40,156.86 Z M 197.00,45.48 L 210.37,81.01 L 204.21,68.35 L 197.00,45.48 Z M 187.68,27.47 L 187.31,26.50 L 188.24,28.67 L 187.68,27.47 Z M 189.04,8.52 L 187.25,26.38 L 183.09,12.88 L 189.04,8.52 Z M 150.78,211.64 L 151.11,211.85 L 150.92,212.25 L 150.78,211.64 Z M 158.35,211.21 L 157.51,211.84 L 157.44,211.73 L 158.35,211.21 Z M 149.75,211.59 L 149.65,212.10 L 148.74,211.38 L 149.75,211.59 Z M 147.76,212.14 L 145.91,210.88 L 146.16,209.65 L 147.76,212.14 Z M 155.39,209.82 L 155.52,210.83 L 154.43,209.53 L 155.39,209.82 Z M 184.35,200.99 L 183.04,201.70 L 183.45,201.07 L 184.35,200.99 Z M 188.74,196.98 L 186.90,199.08 L 188.40,197.26 L 188.74,196.98 Z M 168.73,178.53 L 167.44,179.56 L 166.90,178.27 L 168.73,178.53 Z M 166.31,177.69 L 164.81,176.46 L 165.08,176.18 L 166.31,177.69 Z M 149.74,152.18 L 149.70,150.17 L 150.22,149.73 L 152.55,151.29 L 149.74,152.18 Z M 146.30,150.50 L 146.07,149.27 L 148.09,148.61 L 146.30,150.50 Z M 145.28,148.29 L 144.70,149.59 L 144.10,147.01 L 145.28,148.29 Z" fill="#E8E0D0" stroke="#B8B0A0" stroke-width="0.5"/>
<path d="M 577.48,366.43 L 575.20,369.02 L 576.05,367.22 L 577.48,366.43 Z M 618.33,363.57 L 617.51,362.60 L 622.71,364.08 L 623.73,367.25 L 618.33,363.57 Z M 605.15,357.28 L 613.32,358.03 L 615.59,361.54 L 605.15,357.28 Z M 582.37,356.96 L 592.15,359.41 L 584.20,362.86 L 582.37,356.96 Z M 597.23,352.05 L 602.29,352.49 L 604.83,357.96 L 600.23,356.73 L 600.55,352.80 L 597.02,354.77 L 597.23,352.05 Z M 639.43,377.23 L 638.67,379.34 L 638.38,377.20 L 639.43,377.23 Z M 613.24,385.95 L 613.54,385.84 L 612.35,386.60 L 613.24,385.95 Z M 615.69,384.92 L 615.41,386.47 L 615.12,386.03 L 615.69,384.92 Z M 636.41,384.36 L 635.41,385.63 L 635.14,385.44 L 636.41,384.36 Z M 621.98,375.41 L 620.81,376.35 L 619.92,374.93 L 621.89,372.19 L 621.98,375.41 Z M 592.54,357.41 L 591.74,357.73 L 592.13,357.37 L 592.54,357.41 Z M 593.93,356.43 L 593.33,356.85 L 593.24,356.48 L 593.93,356.43 Z" fill="#E8E0D0" stroke="#B8B0A0" stroke-width="0.5"/>
<path d="M 166.50,489.58 L 152.21,491.97 L 150.83,486.46 L 154.01,489.99 L 166.50,489.58 Z M 219.81,469.06 L 212.74,471.46 L 215.16,469.28 L 219.81,469.06 Z M 230.18,466.32 L 231.09,467.39 L 223.16,470.37 L 230.18,466.32 Z" fill="#E8E0D0" stroke="#B8B0A0" stroke-width="0.5"/>
<path d="M 548.05,379.69 L 546.95,375.44 L 550.97,372.57 L 554.82,375.54 L 548.05,379.69 Z M 544.31,325.94 L 562.62,332.60 L 561.04,334.84 L 543.96,330.94 L 544.31,325.94 Z M 524.14,318.30 L 524.03,318.03 L 526.76,318.07 L 524.14,318.30 Z M 518.85,395.78 L 532.05,389.65 L 538.45,394.75 L 542.92,392.94 L 550.35,385.43 L 544.40,402.10 L 539.85,404.24 L 519.62,406.25 L 517.17,400.74 L 518.85,395.78 Z M 487.99,318.51 L 484.76,321.68 L 485.18,319.45 L 489.60,314.91 L 487.99,318.51 Z M 510.12,311.71 L 509.47,324.87 L 489.92,340.90 L 508.76,323.68 L 503.28,315.65 L 510.12,311.71 Z M 486.71,306.37 L 502.30,312.39 L 498.77,315.65 L 489.45,311.71 L 486.71,306.37 Z M 512.70,294.02 L 511.77,292.46 L 518.00,292.53 L 512.70,294.02 Z M 428.18,274.69 L 430.70,276.82 L 425.31,275.23 L 428.18,274.69 Z M 424.18,274.34 L 406.32,266.86 L 406.59,263.12 L 424.18,274.34 Z M 463.18,305.13 L 456.62,294.07 L 450.60,292.68 L 444.67,288.95 L 452.33,291.80 L 439.84,262.22 L 452.73,290.50 L 462.27,298.88 L 463.18,305.13 Z M 464.49,260.47 L 466.16,261.51 L 458.35,263.63 L 464.49,260.47 Z M 390.28,243.48 L 389.02,239.80 L 390.19,240.63 L 392.64,247.25 L 390.28,243.48 Z M 476.57,248.31 L 481.00,238.42 L 482.79,241.58 L 480.49,246.93 L 476.57,248.31 Z M 314.23,236.19 L 320.22,232.84 L 322.66,232.67 L 314.23,236.19 Z M 316.14,234.09 L 312.30,232.99 L 316.32,231.58 L 316.14,234.09 Z M 384.66,234.53 L 382.21,230.54 L 382.94,230.97 L 384.66,234.53 Z M 333.72,259.37 L 323.63,259.06 L 328.53,258.31 L 333.23,253.84 L 326.39,257.08 L 324.28,255.09 L 328.98,252.99 L 329.20,251.89 L 322.66,253.35 L 321.01,244.77 L 315.85,240.87 L 328.53,230.16 L 330.61,232.96 L 324.61,236.93 L 325.25,244.06 L 331.74,234.56 L 335.66,247.44 L 332.06,250.83 L 335.66,249.38 L 333.72,259.37 Z M 322.39,228.90 L 326.43,226.59 L 328.18,227.57 L 322.39,228.90 Z M 441.79,238.38 L 431.36,238.52 L 436.10,231.72 L 420.81,209.60 L 441.79,238.38 Z M 333.91,192.96 L 348.06,190.93 L 342.57,193.86 L 333.91,192.96 Z M 298.31,209.01 L 297.60,215.49 L 303.76,214.52 L 298.66,208.06 L 305.61,193.93 L 302.92,184.35 L 310.95,184.43 L 325.58,209.52 L 326.46,219.93 L 311.79,231.72 L 306.71,219.84 L 302.34,221.72 L 292.65,214.63 L 298.31,209.01 Z M 402.72,187.97 L 400.43,212.39 L 392.11,203.56 L 399.42,201.80 L 400.25,187.20 L 390.44,177.19 L 370.83,171.79 L 373.10,164.66 L 375.37,168.60 L 391.39,176.35 L 402.72,187.97 Z M 318.77,153.99 L 318.77,152.92 L 319.83,153.56 L 321.69,157.18 L 318.77,153.99 Z M 333.39,128.03 L 333.07,124.45 L 333.50,124.70 L 333.39,128.03 Z M 276.68,115.59 L 265.71,105.55 L 279.17,112.34 L 285.85,106.44 L 282.63,104.84 L 284.90,99.87 L 297.90,106.32 L 317.12,101.65 L 316.47,108.78 L 276.68,115.59 Z M 314.88,95.59 L 319.36,93.75 L 331.77,94.17 L 358.23,115.16 L 359.89,125.59 L 352.76,129.24 L 349.83,147.96 L 341.20,140.44 L 349.99,134.41 L 348.70,125.72 L 352.96,112.67 L 344.93,110.58 L 335.21,97.14 L 314.88,95.59 Z M 241.02,272.19 L 240.03,271.35 L 241.19,272.10 L 241.02,272.19 Z M 239.35,270.12 L 237.38,268.00 L 237.65,268.17 L 239.35,270.12 Z M 252.95,166.00 L 253.16,166.51 L 253.05,166.47 L 252.95,166.00 Z M 251.91,164.69 L 252.31,165.48 L 251.88,164.89 L 251.91,164.69 Z M 421.64,340.31 L 420.70,340.72 L 420.46,338.24 L 421.64,340.31 Z M 419.80,337.48 L 419.87,336.14 L 420.08,336.23 L 419.80,337.48 Z M 417.46,331.46 L 417.32,331.75 L 416.66,329.63 L 417.46,331.46 Z M 522.37,318.54 L 520.86,319.98 L 521.21,318.57 L 522.37,318.54 Z M 450.56,254.66 L 450.00,255.51 L 449.71,254.68 L 450.56,254.66 Z M 320.71,227.71 L 321.04,227.74 L 319.40,229.30 L 320.71,227.71 Z M 371.39,218.93 L 370.60,218.96 L 370.45,217.37 L 371.39,218.93 Z M 318.82,172.75 L 317.53,172.69 L 320.85,171.37 L 318.82,172.75 Z M 253.35,157.62 L 251.33,157.68 L 252.29,154.60 L 253.35,157.62 Z M 349.14,118.98 L 348.50,119.22 L 347.38,117.79 L 349.14,118.98 Z M 320.95,110.27 L 319.35,112.69 L 318.17,110.68 L 320.95,110.27 Z M 372.07,165.42 L 372.66,165.63 L 370.69,165.79 L 372.07,165.42 Z M 369.65,166.44 L 366.67,167.62 L 367.38,166.72 L 369.65,166.44 Z" fill="#4A90D9" stroke="#1a5fa8" stroke-width="1.2"/>
<path d="M 182.88,106.25 L 165.81,91.89 L 180.66,79.83 L 188.27,89.43 L 182.88,106.25 Z" fill="#A8C8E8" stroke="none"/>
<path d="M 161.85,49.67 L 156.02,44.66 L 156.02,38.64 L 161.85,49.67 Z" fill="#A8C8E8" stroke="none"/>
<path d="M 139.80,8.85 L 139.80,8.85 L 139.80,2.83 L 143.44,4.69 L 139.80,8.85 Z" fill="#A8C8E8" stroke="none"/>
<path d="M 159.82,70.83 L 156.15,74.20 L 154.43,68.91 L 159.82,70.83 Z" fill="#A8C8E8" stroke="none"/>
</svg>