<svg xmlns="http://www.w3.org/2000/svg" width="800" height="500" viewBox="0 0 800 500">
<rect width="800" height="500" fill="#A8C8E8"/>
<path d="M 87.16,466.69 L 133.42,433.53 L 128.36,417.72 L 108.13,415.97 L 117.85,391.21 L 155.40,423.77 L 163.15,437.35 L 156.39,447.32 L 205.72,452.00 L 187.96,428.36 L 194.85,419.98 L 209.09,429.09 L 219.54,465.73 L 249.49,488.86 L 278.08,494.93 L 287.74,477.35 L 281.01,466.36 L 293.51,453.84 L 317.85,491.86 L 317.75,500.00 L 79.89,500.00 L 87.16,466.69 Z" fill="#E8E0D0" stroke="#B8B0A0" stroke-width="0.5"/>
<path d="M 86.59,211.43 L 67.70,255.06 L 60.20,315.07 L 87.72,369.43 L 70.61,425.25 L 61.07,431.36 L 46.43,416.04 L 30.38,421.58 L 30.38,202.28 L 41.84,190.46 L 80.85,197.87 L 86.59,211.43 Z" fill="#E8E0D0" stroke="#B8B0A0" stroke-width="0.5"/>
<path d="M 712.74,155.35 L 707.24,167.15 L 720.74,178.34 L 713.44,190.13 L 660.81,209.55 L 651.90,197.19 L 612.09,219.13 L 520.35,161.85 L 487.35,181.95 L 434.07,162.02 L 407.44,164.83 L 423.02,139.68 L 381.97,135.30 L 372.85,120.14 L 329.97,126.82 L 280.83,155.10 L 200.03,249.53 L 199.14,283.58 L 169.74,264.41 L 182.78,200.56 L 177.77,176.94 L 149.06,159.60 L 80.50,184.38 L 80.85,197.87 L 41.84,190.46 L 30.38,202.28 L 30.38,0.00 L 769.62,0.00 L 769.62,130.20 L 712.74,155.35 Z" fill="#C8D8E8" stroke="#8BAABB" stroke-width="0.8"/>
<path d="M 46.43,416.04 L 61.07,431.36 L 87.89,372.39 L 60.20,315.07 L 67.70,255.06 L 86.59,211.43 L 78.31,187.34 L 149.06,159.60 L 175.72,174.42 L 182.94,198.14 L 167.23,249.31 L 188.11,283.08 L 165.62,308.80 L 179.14,317.09 L 182.48,340.91 L 190.09,335.34 L 216.40,360.29 L 250.37,355.15 L 315.77,379.86 L 359.21,371.23 L 389.92,348.53 L 440.95,368.79 L 521.24,367.61 L 538.37,352.46 L 552.29,364.01 L 594.48,354.50 L 601.90,363.17 L 603.90,350.92 L 628.79,349.92 L 617.03,313.28 L 631.01,286.71 L 615.26,258.57 L 580.90,260.52 L 563.90,249.24 L 568.24,210.12 L 558.35,199.36 L 612.09,219.13 L 651.90,197.19 L 660.81,209.55 L 698.38,199.92 L 720.74,178.34 L 707.24,167.15 L 712.74,155.35 L 769.62,130.20 L 769.62,500.00 L 317.75,500.00 L 317.85,491.86 L 293.51,453.84 L 281.01,466.36 L 287.74,477.35 L 278.08,494.93 L 249.49,488.86 L 219.54,465.73 L 209.09,429.09 L 194.85,419.98 L 187.96,428.36 L 205.72,452.00 L 156.39,447.32 L 163.15,437.35 L 155.40,423.77 L 116.08,393.07 L 108.13,415.97 L 128.36,417.72 L 133.42,433.53 L 87.16,466.69 L 79.89,500.00 L 30.38,500.00 L 30.38,421.58 L 46.43,416.04 Z" fill="#C8D8E8" stroke="#8BAABB" stroke-width="0.8"/>
<path d="M 434.07,162.02 L 487.35,181.95 L 520.35,161.85 L 568.54,185.55 L 558.35,199.36 L 568.24,210.12 L 562.60,247.01 L 580.90,260.52 L 621.98,262.58 L 631.01,286.71 L 617.00,316.13 L 628.79,349.92 L 603.90,350.92 L 601.90,363.17 L 594.48,354.50 L 552.29,364.01 L 538.37,352.46 L 521.24,367.61 L 440.95,368.79 L 389.92,348.53 L 359.21,371.23 L 315.77,379.86 L 250.37,355.15 L 216.40,360.29 L 190.09,335.34 L 182.48,340.91 L 168.99,299.17 L 202.61,280.69 L 200.03,249.53 L 280.83,155.10 L 329.97,126.82 L 372.85,120.14 L 381.97,135.30 L 423.02,139.68 L 407.44,164.83 L 434.07,162.02 Z" fill="#4A90D9" stroke="#1a5fa8" stroke-width="1.2"/>
<path d="M 442.65,23.89 L 447.75,39.85 L 432.57,34.61 L 423.76,53.37 L 411.89,53.92 L 402.19,36.49 L 418.05,49.65 L 418.05,36.77 L 430.45,32.45 L 424.78,26.28 L 437.84,22.69 L 432.99,0.00 L 444.54,0.00 L 446.77,19.93 L 472.59,16.07 L 482.58,40.08 L 442.65,23.89 Z M 396.56,7.56 L 391.62,2.46 L 396.24,0.00 L 407.53,0.00 L 396.56,7.56 Z" fill="#A8C8E8" stroke="none"/>
<path d="M 405.00,79.31 L 415.61,93.16 L 384.77,92.93 L 378.41,78.53 L 405.00,79.31 Z" fill="#A8C8E8" stroke="none"/>
</svg>