<svg xmlns="http://www.w3.org/2000/svg" width="800" height="500" viewBox="0 0 800 500">
<rect width="800" height="500" fill="#A8C8E8"/>
<path d="M 61.45,466.69 L 111.50,433.53 L 106.03,417.72 L 84.13,415.97 L 94.66,391.21 L 135.29,423.77 L 143.68,437.35 L 136.36,447.32 L 189.75,452.00 L 170.53,428.36 L 177.99,419.98 L 193.39,429.09 L 204.71,465.73 L 237.11,488.86 L 268.06,494.93 L 278.51,477.35 L 271.22,466.36 L 284.75,453.84 L 311.09,491.86 L 310.98,500.00 L 53.57,500.00 L 61.45,466.69 Z" fill="#E8E0D0" stroke="#B8B0A0" stroke-width="0.5"/>
<path d="M 60.83,211.43 L 40.38,255.06 L 32.26,315.07 L 62.05,369.43 L 43.53,425.25 L 33.21,431.36 L 17.36,416.04 L 0.00,421.58 L 0.00,202.28 L 12.39,190.46 L 54.61,197.87 L 60.83,211.43 Z" fill="#E8E0D0" stroke="#B8B0A0" stroke-width="0.5"/>
<path d="M 738.45,155.35 L 732.50,167.15 L 747.11,178.34 L 739.21,190.13 L 682.25,209.55 L 672.61,197.19 L 629.53,219.13 L 530.25,161.85 L 494.53,181.95 L 436.87,162.02 L 408.05,164.83 L 424.92,139.68 L 380.49,135.30 L 370.61,120.14 L 324.21,126.82 L 271.03,155.10 L 183.59,249.53 L 182.63,283.58 L 150.81,264.41 L 164.92,200.56 L 159.50,176.94 L 128.43,159.60 L 54.24,184.38 L 54.61,197.87 L 12.39,190.46 L 0.00,202.28 L 0.00,0.00 L 800.00,0.00 L 800.00,130.20 L 738.45,155.35 Z" fill="#C8D8E8" stroke="#8BAABB" stroke-width="0.8"/>
<path d="M 17.36,416.04 L 33.21,431.36 L 62.24,372.39 L 32.26,315.07 L 40.38,255.06 L 60.83,211.43 L 51.87,187.34 L 128.43,159.60 L 157.28,174.42 L 165.10,198.14 L 148.09,249.31 L 170.69,283.08 L 146.36,308.80 L 160.99,317.09 L 164.60,340.91 L 172.84,335.34 L 201.31,360.29 L 238.07,355.15 L 308.85,379.86 L 355.86,371.23 L 389.09,348.53 L 444.31,368.79 L 531.21,367.61 L 549.74,352.46 L 564.81,364.01 L 610.46,354.50 L 618.49,363.17 L 620.66,350.92 L 647.60,349.92 L 634.87,313.28 L 650.00,286.71 L 632.95,258.57 L 595.77,260.52 L 577.38,249.24 L 582.07,210.12 L 571.36,199.36 L 629.53,219.13 L 672.61,197.19 L 682.25,209.55 L 722.91,199.92 L 747.11,178.34 L 732.50,167.15 L 738.45,155.35 L 800.00,130.20 L 800.00,500.00 L 310.98,500.00 L 311.09,491.86 L 284.75,453.84 L 271.22,466.36 L 278.51,477.35 L 268.06,494.93 L 237.11,488.86 L 204.71,465.73 L 193.39,429.09 L 177.99,419.98 L 170.53,428.36 L 189.75,452.00 L 136.36,447.32 L 143.68,437.35 L 135.29,423.77 L 92.74,393.07 L 84.13,415.97 L 106.03,417.72 L 111.50,433.53 L 61.45,466.69 L 53.57,500.00 L 0.00,500.00 L 0.00,421.58 L 17.36,416.04 Z" fill="#C8D8E8" stroke="#8BAABB" stroke-width="0.8"/>
<path d="M 436.87,162.02 L 494.53,181.95 L 530.25,161.85 L 582.40,185.55 L 571.36,199.36 L 582.07,210.12 L 575.97,247.01 L 595.77,260.52 L 640.23,262.58 L 650.00,286.71 L 634.84,316.13 L 647.60,349.92 L 620.66,350.92 L 618.49,363.17 L 610.46,354.50 L 564.81,364.01 L 549.74,352.46 L 531.21,367.61 L 444.31,368.79 L 389.09,348.53 L 355.86,371.23 L 308.85,379.86 L 238.07,355.15 L 201.31,360.29 L 172.84,335.34 L 164.60,340.91 L 150.00,299.17 L 186.39,280.69 L 183.59,249.53 L 271.03,155.10 L 324.21,126.82 L 370.61,120.14 L 380.49,135.30 L 424.92,139.68 L 408.05,164.83 L 436.87,162.02 Z" fill="#4A90D9" stroke="#1a5fa8" stroke-width="1.2"/>
<path d="M 446.15,23.89 L 451.67,39.85 L 435.25,34.61 L 425.72,53.37 L 412.87,53.92 L 402.37,36.49 L 419.54,49.65 L 419.54,36.77 L 432.96,32.45 L 426.82,26.28 L 440.95,22.69 L 435.70,0.00 L 448.20,0.00 L 450.61,19.93 L 478.55,16.07 L 489.37,40.08 L 446.15,23.89 Z M 396.28,7.56 L 390.93,2.46 L 395.93,0.00 L 408.15,0.00 L 396.28,7.56 Z" fill="#A8C8E8" stroke="none"/>
<path d="M 405.41,79.31 L 416.89,93.16 L 383.52,92.93 L 376.63,78.53 L 405.41,79.31 Z" fill="#A8C8E8" stroke="none"/>
</svg>