<svg xmlns="http://www.w3.org/2000/svg" width="800" height="500" viewBox="0 0 800 500">
<rect width="800" height="500" fill="#A8C8E8"/>
<path d="M 257.00,38.05 L 265.95,52.87 L 275.66,55.48 L 298.68,72.51 L 331.57,88.69 L 225.15,101.51 L 213.11,98.63 L 194.17,102.09 L 169.09,96.03 L 138.94,97.25 L 91.94,94.12 L 78.75,88.59 L 68.65,80.07 L 0.00,80.40 L 0.00,0.00 L 256.92,0.00 L 257.00,38.05 Z" fill="#E8E0D0" stroke="#B8B0A0" stroke-width="0.5"/>
<path d="M 795.14,375.97 L 788.67,374.20 L 786.35,369.22 L 791.15,363.17 L 790.66,321.51 L 783.40,304.60 L 766.18,288.33 L 766.64,278.04 L 752.92,252.58 L 800.00,224.01 L 800.00,404.49 L 797.45,404.47 L 795.14,375.97 Z M 786.59,47.08 L 775.94,39.84 L 759.61,37.93 L 751.90,33.16 L 706.15,32.40 L 705.63,14.53 L 697.56,0.00 L 800.00,0.00 L 800.00,47.60 L 786.59,47.08 Z" fill="#E8E0D0" stroke="#B8B0A0" stroke-width="0.5"/>
<path d="M 795.14,375.97 L 793.51,385.37 L 797.64,395.62 L 797.45,404.47 L 790.85,403.38 L 789.69,420.82 L 766.12,420.64 L 745.60,416.71 L 726.59,400.25 L 727.60,389.28 L 744.42,372.55 L 759.45,366.57 L 782.55,375.02 L 795.14,375.97 Z" fill="#E8E0D0" stroke="#B8B0A0" stroke-width="0.5"/>
<path d="M 647.96,481.70 L 654.58,490.37 L 642.76,500.00 L 529.09,500.00 L 543.31,495.11 L 564.50,475.48 L 578.69,474.45 L 586.24,468.40 L 611.81,463.89 L 630.30,475.50 L 647.96,481.70 Z" fill="#E8E0D0" stroke="#B8B0A0" stroke-width="0.5"/>
<path d="M 68.65,80.07 L 78.75,88.59 L 91.94,94.12 L 138.94,97.25 L 169.09,96.03 L 194.17,102.09 L 213.11,98.63 L 225.15,101.51 L 376.33,83.15 L 419.89,86.64 L 431.77,93.95 L 415.43,93.75 L 394.68,102.83 L 383.27,99.50 L 343.75,117.41 L 326.83,100.98 L 203.18,111.98 L 203.70,237.09 L 150.00,238.35 L 150.18,458.79 L 128.15,462.53 L 122.08,468.50 L 111.99,469.79 L 113.19,474.61 L 104.22,477.16 L 84.23,473.12 L 53.33,475.25 L 39.82,471.11 L 24.64,470.52 L 22.20,467.64 L 12.63,468.47 L 13.54,464.66 L 8.40,460.44 L 12.42,457.86 L 9.55,452.11 L 2.47,452.26 L 0.00,449.87 L 0.00,80.40 L 68.65,80.07 Z" fill="#C8D8E8" stroke="#8BAABB" stroke-width="0.8"/>
<path d="M 170.62,342.45 L 186.18,357.37 L 185.19,362.60 L 196.05,380.14 L 183.45,392.57 L 188.01,406.25 L 199.58,403.10 L 239.96,405.26 L 245.18,403.25 L 246.15,398.92 L 260.94,396.84 L 271.11,387.55 L 286.94,382.76 L 296.24,375.10 L 302.92,357.82 L 312.85,351.59 L 335.71,351.00 L 360.55,362.91 L 374.35,362.80 L 382.64,367.12 L 400.04,369.57 L 442.37,365.72 L 449.25,362.58 L 462.47,341.87 L 464.24,332.66 L 492.84,328.70 L 499.61,322.73 L 516.04,316.10 L 522.87,297.32 L 531.42,290.68 L 553.90,285.04 L 557.06,280.09 L 564.83,280.23 L 594.07,259.05 L 626.66,253.90 L 633.39,246.01 L 666.61,242.67 L 702.55,250.16 L 746.17,249.19 L 753.44,251.96 L 766.64,278.04 L 766.18,288.33 L 783.40,304.60 L 790.66,321.51 L 791.15,363.17 L 785.61,375.08 L 759.45,366.57 L 744.42,372.55 L 727.60,389.28 L 727.49,403.40 L 731.64,402.15 L 735.55,409.98 L 745.60,416.71 L 766.12,420.64 L 789.69,420.82 L 790.85,403.38 L 800.00,403.63 L 800.00,467.93 L 792.28,471.24 L 795.12,471.95 L 792.02,474.04 L 779.06,475.95 L 757.50,490.04 L 747.62,500.00 L 642.76,500.00 L 654.58,490.37 L 647.96,481.70 L 630.30,475.50 L 611.81,463.89 L 586.24,468.40 L 578.69,474.45 L 564.50,475.48 L 543.31,495.11 L 529.09,500.00 L 0.00,500.00 L 0.00,449.87 L 2.47,452.26 L 9.55,452.11 L 12.42,457.86 L 8.40,460.44 L 13.54,464.66 L 12.63,468.47 L 22.20,467.64 L 24.64,470.52 L 39.82,471.11 L 53.33,475.25 L 84.23,473.12 L 104.22,477.16 L 113.19,474.61 L 111.99,469.79 L 122.08,468.50 L 128.15,462.53 L 150.18,458.79 L 150.17,332.81 L 170.62,342.45 Z" fill="#C8D8E8" stroke="#8BAABB" stroke-width="0.8"/>
<path d="M 706.57,19.67 L 662.65,20.54 L 627.71,31.11 L 623.71,34.43 L 623.71,45.68 L 618.58,50.63 L 568.20,65.30 L 555.42,79.15 L 530.78,96.97 L 508.61,103.39 L 482.57,96.99 L 467.24,100.98 L 454.27,94.54 L 435.82,95.56 L 419.89,86.64 L 401.08,83.59 L 376.33,83.15 L 331.57,88.69 L 263.63,51.03 L 256.87,37.31 L 256.84,0.00 L 697.34,0.00 L 706.57,19.67 Z" fill="#C8D8E8" stroke="#8BAABB" stroke-width="0.8"/>
<path d="M 445.47,96.29 L 454.27,94.54 L 467.24,100.98 L 482.57,96.99 L 508.61,103.39 L 525.75,99.59 L 555.42,79.15 L 568.20,65.30 L 621.13,49.05 L 623.71,34.43 L 627.71,31.11 L 662.65,20.54 L 705.82,19.86 L 706.15,32.40 L 751.90,33.16 L 759.61,37.93 L 775.94,39.84 L 786.59,47.08 L 800.00,47.60 L 800.00,223.94 L 753.44,251.96 L 729.38,248.02 L 702.55,250.16 L 671.81,242.82 L 650.37,244.88 L 633.49,239.04 L 633.39,231.39 L 610.82,226.21 L 577.46,222.94 L 560.18,206.44 L 561.87,187.14 L 538.94,186.69 L 535.38,172.86 L 509.36,167.18 L 487.92,157.70 L 487.46,155.16 L 479.56,153.78 L 468.52,138.89 L 468.10,132.64 L 431.52,101.05 L 431.77,93.95 L 445.47,96.29 Z" fill="#C8D8E8" stroke="#8BAABB" stroke-width="0.8"/>
<path d="M 431.52,101.05 L 468.10,132.64 L 468.52,138.89 L 479.56,153.78 L 487.46,155.16 L 487.92,157.70 L 509.36,167.18 L 535.38,172.86 L 538.94,186.69 L 561.87,187.14 L 560.18,206.44 L 577.46,222.94 L 610.82,226.21 L 633.39,231.39 L 633.49,239.04 L 650.00,244.73 L 633.39,246.01 L 627.61,253.46 L 621.55,255.25 L 594.07,259.05 L 564.83,280.23 L 557.06,280.09 L 553.90,285.04 L 531.42,290.68 L 522.87,297.32 L 516.04,316.10 L 499.61,322.73 L 492.84,328.70 L 464.24,332.66 L 462.47,341.87 L 449.25,362.58 L 442.37,365.72 L 400.04,369.57 L 382.64,367.12 L 374.35,362.80 L 360.55,362.91 L 335.71,351.00 L 312.85,351.59 L 302.92,357.82 L 295.76,375.53 L 286.94,382.76 L 271.11,387.55 L 260.94,396.84 L 246.15,398.92 L 245.18,403.25 L 239.96,405.26 L 199.58,403.10 L 188.01,406.25 L 183.45,392.57 L 196.05,380.14 L 185.19,362.60 L 186.18,357.37 L 170.62,342.45 L 150.17,332.81 L 150.00,238.35 L 203.70,237.09 L 203.18,111.98 L 326.83,100.98 L 343.75,117.41 L 383.27,99.50 L 394.68,102.83 L 415.43,93.75 L 431.77,93.95 L 431.52,101.05 Z" fill="#4A90D9" stroke="#1a5fa8" stroke-width="1.2"/>
<path d="M 402.74,215.55 L 401.07,214.95 L 407.25,212.20 L 402.74,215.55 Z" fill="#A8C8E8" stroke="none"/>
<path d="M 791.45,426.39 L 785.80,421.81 L 789.16,421.33 L 791.45,426.39 Z" fill="#A8C8E8" stroke="none"/>
<path d="M 619.64,60.30 L 614.17,55.59 L 601.55,60.30 L 603.21,63.09 L 598.22,58.06 L 584.19,61.40 L 580.64,66.23 L 584.57,65.92 L 583.49,67.82 L 580.53,69.46 L 575.74,67.45 L 569.93,72.29 L 561.64,73.58 L 555.33,83.10 L 543.33,87.31 L 525.99,100.46 L 531.74,95.35 L 529.34,93.47 L 544.41,84.73 L 541.40,81.79 L 546.89,76.18 L 558.58,68.03 L 562.62,68.73 L 559.69,67.56 L 563.34,63.80 L 571.03,62.98 L 566.07,61.40 L 567.00,59.99 L 573.69,58.59 L 576.89,61.47 L 581.74,60.88 L 582.36,57.91 L 588.69,56.01 L 586.78,54.19 L 595.52,52.75 L 593.63,50.76 L 599.18,52.99 L 613.26,48.77 L 629.97,52.88 L 619.64,60.30 Z" fill="#A8C8E8" stroke="none"/>
<path d="M 798.24,23.35 L 756.01,21.05 L 746.50,27.59 L 749.42,22.88 L 742.77,22.95 L 727.17,20.07 L 745.56,22.43 L 755.68,18.90 L 794.42,19.58 L 800.00,18.24 L 800.00,22.78 L 798.24,23.35 Z" fill="#A8C8E8" stroke="none"/>
<path d="M 473.95,435.25 L 461.81,430.47 L 455.49,432.44 L 463.53,437.61 L 460.12,439.09 L 450.89,434.46 L 460.27,429.24 L 473.03,433.15 L 476.25,430.81 L 473.95,435.25 Z" fill="#A8C8E8" stroke="none"/>
<path d="M 600.86,410.01 L 589.30,407.02 L 591.94,409.21 L 588.92,410.30 L 596.02,409.85 L 599.84,413.05 L 598.08,416.43 L 595.14,411.63 L 594.04,413.61 L 586.94,412.08 L 587.21,406.54 L 582.94,407.00 L 585.67,403.51 L 604.94,409.04 L 600.86,410.01 Z" fill="#A8C8E8" stroke="none"/>
</svg>