<svg xmlns="http://www.w3.org/2000/svg" width="800" height="500" viewBox="0 0 800 500">
<rect width="800" height="500" fill="#A8C8E8"/>
<path d="M 314.89,38.05 L 320.22,52.87 L 326.00,55.48 L 339.70,72.51 L 359.28,88.69 L 295.94,101.51 L 288.78,98.63 L 277.50,102.09 L 262.58,96.03 L 244.63,97.25 L 216.66,94.12 L 208.81,88.59 L 202.80,80.07 L 161.95,80.40 L 161.95,0.00 L 314.85,0.00 L 314.89,38.05 Z" fill="#E8E0D0" stroke="#B8B0A0" stroke-width="0.5"/>
<path d="M 635.16,375.97 L 631.31,374.20 L 629.93,369.22 L 632.79,363.17 L 632.49,321.51 L 628.17,304.60 L 617.92,288.33 L 618.20,278.04 L 610.03,252.58 L 638.05,224.01 L 638.05,404.49 L 636.54,404.47 L 635.16,375.97 Z M 630.07,47.08 L 623.74,39.84 L 614.02,37.93 L 609.43,33.16 L 582.20,32.40 L 581.89,14.53 L 577.09,0.00 L 638.05,0.00 L 638.05,47.60 L 630.07,47.08 Z" fill="#E8E0D0" stroke="#B8B0A0" stroke-width="0.5"/>
<path d="M 635.16,375.97 L 634.19,385.37 L 636.65,395.62 L 636.54,404.47 L 632.61,403.38 L 631.91,420.82 L 617.89,420.64 L 605.68,416.71 L 594.37,400.25 L 594.96,389.28 L 604.98,372.55 L 613.92,366.57 L 627.67,375.02 L 635.16,375.97 Z" fill="#E8E0D0" stroke="#B8B0A0" stroke-width="0.5"/>
<path d="M 547.57,481.70 L 551.51,490.37 L 544.47,500.00 L 476.83,500.00 L 485.29,495.11 L 497.90,475.48 L 506.35,474.45 L 510.84,468.40 L 526.06,463.89 L 537.06,475.50 L 547.57,481.70 Z" fill="#E8E0D0" stroke="#B8B0A0" stroke-width="0.5"/>
<path d="M 202.80,80.07 L 208.81,88.59 L 216.66,94.12 L 244.63,97.25 L 262.58,96.03 L 277.50,102.09 L 288.78,98.63 L 295.94,101.51 L 385.91,83.15 L 411.84,86.64 L 418.91,93.95 L 409.18,93.75 L 396.83,102.83 L 390.04,99.50 L 366.52,117.41 L 356.45,100.98 L 282.86,111.98 L 283.17,237.09 L 251.22,238.35 L 251.32,458.79 L 238.21,462.53 L 234.60,468.50 L 228.60,469.79 L 229.31,474.61 L 223.97,477.16 L 212.08,473.12 L 193.69,475.25 L 185.65,471.11 L 176.61,470.52 L 175.16,467.64 L 169.47,468.47 L 170.00,464.66 L 166.95,460.44 L 169.34,457.86 L 167.63,452.11 L 163.42,452.26 L 161.95,449.87 L 161.95,80.40 L 202.80,80.07 Z" fill="#C8D8E8" stroke="#8BAABB" stroke-width="0.8"/>
<path d="M 263.49,342.45 L 272.75,357.37 L 272.16,362.60 L 278.62,380.14 L 271.12,392.57 L 273.84,406.25 L 280.73,403.10 L 304.76,405.26 L 307.86,403.25 L 308.44,398.92 L 317.24,396.84 L 323.29,387.55 L 332.72,382.76 L 338.25,375.10 L 342.23,357.82 L 348.13,351.59 L 361.74,351.00 L 376.52,362.91 L 384.74,362.80 L 389.67,367.12 L 400.02,369.57 L 425.22,365.72 L 429.31,362.58 L 437.18,341.87 L 438.23,332.66 L 455.25,328.70 L 459.28,322.73 L 469.06,316.10 L 473.12,297.32 L 478.21,290.68 L 491.59,285.04 L 493.47,280.09 L 498.09,280.23 L 515.50,259.05 L 534.89,253.90 L 538.90,246.01 L 558.67,242.67 L 580.05,250.16 L 606.02,249.19 L 610.34,251.96 L 618.20,278.04 L 617.92,288.33 L 628.17,304.60 L 632.49,321.51 L 632.79,363.17 L 629.49,375.08 L 613.92,366.57 L 604.98,372.55 L 594.96,389.28 L 594.90,403.40 L 597.37,402.15 L 599.70,409.98 L 605.68,416.71 L 617.89,420.64 L 631.91,420.82 L 632.61,403.38 L 638.05,403.63 L 638.05,467.93 L 633.46,471.24 L 635.15,471.95 L 633.30,474.04 L 625.59,475.95 L 612.76,490.04 L 606.88,500.00 L 544.47,500.00 L 551.51,490.37 L 547.57,481.70 L 537.06,475.50 L 526.06,463.89 L 510.84,468.40 L 506.35,474.45 L 497.90,475.48 L 485.29,495.11 L 476.83,500.00 L 161.95,500.00 L 161.95,449.87 L 163.42,452.26 L 167.63,452.11 L 169.34,457.86 L 166.95,460.44 L 170.00,464.66 L 169.47,468.47 L 175.16,467.64 L 176.61,470.52 L 185.65,471.11 L 193.69,475.25 L 212.08,473.12 L 223.97,477.16 L 229.31,474.61 L 228.60,469.79 L 234.60,468.50 L 238.21,462.53 L 251.32,458.79 L 251.32,332.81 L 263.49,342.45 Z" fill="#C8D8E8" stroke="#8BAABB" stroke-width="0.8"/>
<path d="M 582.45,19.67 L 556.31,20.54 L 535.52,31.11 L 533.13,34.43 L 533.13,45.68 L 530.08,50.63 L 500.10,65.30 L 492.50,79.15 L 477.83,96.97 L 464.64,103.39 L 449.14,96.99 L 440.02,100.98 L 432.30,94.54 L 421.32,95.56 L 411.84,86.64 L 400.64,83.59 L 385.91,83.15 L 359.28,88.69 L 318.84,51.03 L 314.82,37.31 L 314.80,0.00 L 576.96,0.00 L 582.45,19.67 Z" fill="#C8D8E8" stroke="#8BAABB" stroke-width="0.8"/>
<path d="M 427.06,96.29 L 432.30,94.54 L 440.02,100.98 L 449.14,96.99 L 464.64,103.39 L 474.84,99.59 L 492.50,79.15 L 500.10,65.30 L 531.60,49.05 L 533.13,34.43 L 535.52,31.11 L 556.31,20.54 L 582.00,19.86 L 582.20,32.40 L 609.43,33.16 L 614.02,37.93 L 623.74,39.84 L 630.07,47.08 L 638.05,47.60 L 638.05,223.94 L 610.34,251.96 L 596.02,248.02 L 580.05,250.16 L 561.76,242.82 L 549.00,244.88 L 538.95,239.04 L 538.90,231.39 L 525.47,226.21 L 505.61,222.94 L 495.33,206.44 L 496.33,187.14 L 482.69,186.69 L 480.57,172.86 L 465.08,167.18 L 452.33,157.70 L 452.05,155.16 L 447.35,153.78 L 440.78,138.89 L 440.53,132.64 L 418.76,101.05 L 418.91,93.95 L 427.06,96.29 Z" fill="#C8D8E8" stroke="#8BAABB" stroke-width="0.8"/>
<path d="M 418.76,101.05 L 440.53,132.64 L 440.78,138.89 L 447.35,153.78 L 452.05,155.16 L 452.33,157.70 L 465.08,167.18 L 480.57,172.86 L 482.69,186.69 L 496.33,187.14 L 495.33,206.44 L 505.61,222.94 L 525.47,226.21 L 538.90,231.39 L 538.95,239.04 L 548.78,244.73 L 538.90,246.01 L 535.46,253.46 L 531.85,255.25 L 515.50,259.05 L 498.09,280.23 L 493.47,280.09 L 491.59,285.04 L 478.21,290.68 L 473.12,297.32 L 469.06,316.10 L 459.28,322.73 L 455.25,328.70 L 438.23,332.66 L 437.18,341.87 L 429.31,362.58 L 425.22,365.72 L 400.02,369.57 L 389.67,367.12 L 384.74,362.80 L 376.52,362.91 L 361.74,351.00 L 348.13,351.59 L 342.23,357.82 L 337.97,375.53 L 332.72,382.76 L 323.29,387.55 L 317.24,396.84 L 308.44,398.92 L 307.86,403.25 L 304.76,405.26 L 280.73,403.10 L 273.84,406.25 L 271.12,392.57 L 278.62,380.14 L 272.16,362.60 L 272.75,357.37 L 263.49,342.45 L 251.32,332.81 L 251.22,238.35 L 283.17,237.09 L 282.86,111.98 L 356.45,100.98 L 366.52,117.41 L 390.04,99.50 L 396.83,102.83 L 409.18,93.75 L 418.91,93.95 L 418.76,101.05 Z" fill="#4A90D9" stroke="#1a5fa8" stroke-width="1.2"/>
<path d="M 401.63,215.55 L 400.64,214.95 L 404.31,212.20 L 401.63,215.55 Z" fill="#A8C8E8" stroke="none"/>
<path d="M 632.96,426.39 L 629.60,421.81 L 631.60,421.33 L 632.96,426.39 Z" fill="#A8C8E8" stroke="none"/>
<path d="M 530.71,60.30 L 527.46,55.59 L 519.95,60.30 L 520.94,63.09 L 517.97,58.06 L 509.62,61.40 L 507.51,66.23 L 509.84,65.92 L 509.20,67.82 L 507.44,69.46 L 504.59,67.45 L 501.13,72.29 L 496.20,73.58 L 492.44,83.10 L 485.30,87.31 L 474.98,100.46 L 478.40,95.35 L 476.97,93.47 L 485.94,84.73 L 484.15,81.79 L 487.42,76.18 L 494.38,68.03 L 496.78,68.73 L 495.04,67.56 L 497.21,63.80 L 501.79,62.98 L 498.83,61.40 L 499.38,59.99 L 503.37,58.59 L 505.27,61.47 L 508.16,60.88 L 508.53,57.91 L 512.29,56.01 L 511.16,54.19 L 516.36,52.75 L 515.24,50.76 L 518.54,52.99 L 526.92,48.77 L 536.86,52.88 L 530.71,60.30 Z" fill="#A8C8E8" stroke="none"/>
<path d="M 637.00,23.35 L 611.87,21.05 L 606.22,27.59 L 607.95,22.88 L 603.99,22.95 L 594.71,20.07 L 605.65,22.43 L 611.67,18.90 L 634.73,19.58 L 638.05,18.24 L 638.05,22.78 L 637.00,23.35 Z" fill="#A8C8E8" stroke="none"/>
<path d="M 444.01,435.25 L 436.78,430.47 L 433.02,432.44 L 437.81,437.61 L 435.78,439.09 L 430.29,434.46 L 435.87,429.24 L 443.47,433.15 L 445.38,430.81 L 444.01,435.25 Z" fill="#A8C8E8" stroke="none"/>
<path d="M 519.54,410.01 L 512.66,407.02 L 514.23,409.21 L 512.43,410.30 L 516.66,409.85 L 518.93,413.05 L 517.88,416.43 L 516.13,411.63 L 515.48,413.61 L 511.26,412.08 L 511.41,406.54 L 508.87,407.00 L 510.50,403.51 L 521.97,409.04 L 519.54,410.01 Z" fill="#A8C8E8" stroke="none"/>
</svg>