<svg xmlns="http://www.w3.org/2000/svg" width="800" height="500" viewBox="0 0 800 500">
<rect width="800" height="500" fill="#A8C8E8"/>
<path d="M 367.84,3.15 L 369.14,6.68 L 344.01,0.36 L 324.48,7.43 L 313.23,0.00 L 370.12,0.00 L 367.84,3.15 Z" fill="#E8E0D0" stroke="#B8B0A0" stroke-width="0.5"/>
<path d="M 378.31,6.63 L 377.43,12.86 L 394.65,21.73 L 393.81,30.09 L 386.37,33.61 L 389.96,37.50 L 383.56,50.09 L 398.48,51.62 L 395.96,56.54 L 409.60,68.92 L 414.38,86.51 L 410.80,94.66 L 399.19,96.76 L 384.43,108.61 L 381.69,116.78 L 349.68,114.71 L 341.40,122.38 L 323.51,124.14 L 280.64,94.77 L 249.83,91.15 L 239.25,75.60 L 218.86,86.63 L 200.94,87.36 L 178.32,81.20 L 156.43,80.02 L 144.59,84.39 L 137.38,77.53 L 123.87,81.54 L 93.92,77.20 L 53.81,89.46 L 46.62,98.35 L 39.46,99.10 L 35.27,88.97 L 36.99,70.68 L 40.84,78.11 L 36.25,68.85 L 39.42,51.06 L 56.68,39.63 L 59.35,20.73 L 74.85,3.75 L 88.65,0.00 L 122.67,0.00 L 123.33,2.99 L 148.15,16.64 L 154.99,33.91 L 177.71,42.27 L 191.20,39.35 L 214.63,23.80 L 211.60,0.00 L 313.23,0.00 L 324.48,7.43 L 344.01,0.36 L 378.31,6.63 Z" fill="#C8D8E8" stroke="#8BAABB" stroke-width="0.8"/>
<path d="M 321.89,146.45 L 340.24,149.87 L 329.79,159.55 L 312.17,158.33 L 305.59,169.20 L 286.96,175.50 L 284.75,194.63 L 273.67,210.35 L 282.42,210.35 L 287.30,215.74 L 285.93,220.81 L 273.01,221.55 L 274.99,216.05 L 270.04,211.76 L 256.79,214.43 L 249.77,222.35 L 236.66,222.20 L 234.94,232.67 L 213.44,237.93 L 202.54,233.35 L 174.15,237.21 L 166.75,234.60 L 166.13,223.59 L 159.88,216.96 L 126.00,204.14 L 125.68,187.58 L 133.39,179.05 L 118.59,162.92 L 93.02,165.41 L 56.28,148.81 L 50.67,151.43 L 50.12,143.76 L 46.26,145.24 L 48.33,134.18 L 44.37,124.15 L 39.83,117.10 L 39.46,99.10 L 46.62,98.35 L 53.81,89.46 L 93.92,77.20 L 123.87,81.54 L 137.38,77.53 L 144.59,84.39 L 156.43,80.02 L 178.32,81.20 L 200.94,87.36 L 218.86,86.63 L 239.25,75.60 L 249.83,91.15 L 280.64,94.77 L 312.97,120.02 L 329.45,124.86 L 321.89,146.45 Z M 32.71,149.27 L 40.97,135.62 L 41.12,121.31 L 42.22,140.47 L 32.71,149.27 Z" fill="#C8D8E8" stroke="#8BAABB" stroke-width="0.8"/>
<path d="M 125.55,208.96 L 132.83,205.28 L 164.83,220.90 L 172.26,255.43 L 188.10,284.61 L 189.61,310.61 L 161.86,325.40 L 150.00,339.39 L 174.69,352.41 L 176.73,358.15 L 169.77,383.64 L 177.84,395.60 L 174.57,401.94 L 201.16,430.41 L 191.45,433.48 L 197.91,439.52 L 199.30,450.45 L 192.69,459.10 L 177.03,461.42 L 136.69,500.00 L 0.00,500.00 L 0.00,203.35 L 125.55,208.96 Z" fill="#C8D8E8" stroke="#8BAABB" stroke-width="0.8"/>
<path d="M 789.12,445.31 L 793.89,442.34 L 784.25,424.83 L 787.93,419.66 L 776.86,417.58 L 773.47,408.10 L 752.33,410.64 L 748.85,406.43 L 726.74,405.48 L 733.17,400.04 L 726.74,396.26 L 728.72,388.59 L 721.68,378.95 L 736.71,376.28 L 738.61,371.89 L 722.05,360.83 L 720.43,347.70 L 706.76,335.25 L 691.37,339.51 L 689.83,335.05 L 674.25,334.45 L 659.91,342.46 L 632.98,337.02 L 624.55,352.64 L 607.65,355.93 L 600.01,351.39 L 596.61,341.80 L 589.70,338.00 L 588.82,325.26 L 592.91,322.96 L 585.16,314.43 L 589.36,307.78 L 572.94,293.34 L 581.80,281.56 L 622.87,288.06 L 634.51,281.28 L 636.15,275.18 L 649.89,272.98 L 650.00,266.34 L 634.82,258.59 L 633.23,253.90 L 638.00,251.25 L 635.48,248.91 L 616.72,242.83 L 598.98,243.77 L 603.06,227.35 L 577.00,216.18 L 570.95,202.28 L 563.39,199.47 L 568.80,191.26 L 548.00,180.82 L 550.32,171.80 L 560.30,165.77 L 557.90,156.90 L 549.24,149.09 L 555.73,142.60 L 555.45,130.92 L 519.07,112.91 L 502.85,113.67 L 480.51,123.97 L 473.70,118.57 L 478.60,109.62 L 475.09,106.63 L 456.95,102.17 L 441.31,107.09 L 431.15,97.50 L 418.17,100.75 L 410.80,94.66 L 414.38,86.51 L 409.92,69.67 L 395.96,56.54 L 398.48,51.62 L 383.56,50.09 L 389.96,37.50 L 386.37,33.61 L 393.81,30.09 L 394.65,21.73 L 377.43,12.86 L 378.31,6.63 L 367.84,3.15 L 370.12,0.00 L 800.00,0.00 L 800.00,460.58 L 789.12,445.31 Z M 0.00,204.03 L 0.00,169.03 L 9.57,168.78 L 32.71,149.27 L 36.11,150.05 L 12.11,169.47 L 41.41,173.48 L 49.40,169.69 L 46.26,154.41 L 56.28,148.81 L 91.61,165.10 L 119.39,163.57 L 133.18,177.88 L 124.68,194.54 L 129.15,208.11 L 0.00,204.03 Z" fill="#C8D8E8" stroke="#8BAABB" stroke-width="0.8"/>
<path d="M 607.65,355.93 L 624.55,352.64 L 632.98,337.02 L 659.91,342.46 L 674.25,334.45 L 689.83,335.05 L 691.37,339.51 L 706.76,335.25 L 720.43,347.70 L 722.05,360.83 L 738.61,371.89 L 736.71,376.28 L 721.68,378.95 L 728.72,388.59 L 726.74,396.26 L 733.17,400.04 L 726.74,405.48 L 748.85,406.43 L 752.33,410.64 L 773.47,408.10 L 776.86,417.58 L 787.93,419.66 L 784.25,424.83 L 793.89,442.34 L 789.12,445.31 L 800.00,460.58 L 800.00,500.00 L 136.69,500.00 L 177.03,461.42 L 192.69,459.10 L 199.30,450.45 L 197.91,439.52 L 191.45,433.48 L 201.16,430.41 L 174.57,401.94 L 177.84,395.60 L 173.60,381.61 L 192.69,384.07 L 214.12,365.40 L 286.19,362.31 L 358.58,373.22 L 364.67,383.97 L 386.92,383.86 L 388.05,391.84 L 394.17,382.36 L 406.71,385.87 L 414.00,379.88 L 420.48,387.73 L 434.61,386.13 L 441.14,395.80 L 444.87,387.46 L 458.65,381.24 L 463.73,382.97 L 472.08,398.07 L 488.72,390.11 L 498.71,393.98 L 515.45,390.52 L 535.91,406.35 L 541.46,397.95 L 534.63,382.95 L 546.49,364.26 L 556.93,358.17 L 555.76,354.02 L 600.01,351.39 L 607.65,355.93 Z" fill="#C8D8E8" stroke="#8BAABB" stroke-width="0.8"/>
<path d="M 169.20,379.44 L 176.73,358.15 L 174.69,352.41 L 150.00,339.39 L 161.86,325.40 L 189.61,310.61 L 188.10,284.61 L 172.26,255.43 L 166.75,234.60 L 202.54,233.35 L 213.44,237.93 L 235.87,232.31 L 236.66,222.20 L 249.77,222.35 L 256.79,214.43 L 270.04,211.76 L 274.99,216.05 L 273.01,221.55 L 285.93,220.81 L 287.30,215.74 L 282.42,210.35 L 273.67,210.35 L 284.75,194.63 L 286.96,175.50 L 305.59,169.20 L 312.17,158.33 L 329.79,159.55 L 340.24,149.87 L 321.89,146.45 L 330.55,123.53 L 341.40,122.38 L 349.68,114.71 L 381.69,116.78 L 384.43,108.61 L 408.81,93.75 L 419.28,101.00 L 435.01,98.09 L 441.31,107.09 L 456.95,102.17 L 476.04,107.03 L 478.60,109.62 L 473.32,117.24 L 480.51,123.97 L 502.85,113.67 L 518.15,112.73 L 532.21,116.82 L 546.52,129.47 L 554.05,129.09 L 555.73,142.60 L 549.24,149.09 L 557.90,156.90 L 560.30,165.77 L 550.32,171.80 L 548.00,180.82 L 568.80,191.26 L 563.39,199.47 L 570.95,202.28 L 577.00,216.18 L 603.06,227.35 L 598.98,243.77 L 616.72,242.83 L 635.48,248.91 L 638.00,251.25 L 633.23,253.90 L 634.82,258.59 L 650.00,266.34 L 649.89,272.98 L 636.15,275.18 L 634.51,281.28 L 618.48,289.11 L 592.14,280.94 L 579.82,282.70 L 572.94,293.34 L 589.36,307.78 L 585.16,314.43 L 592.91,322.96 L 588.82,325.26 L 589.70,338.00 L 596.61,341.80 L 600.01,351.39 L 555.76,354.02 L 556.93,358.17 L 546.49,364.26 L 534.63,382.95 L 541.46,397.95 L 536.49,406.25 L 515.45,390.52 L 498.71,393.98 L 488.72,390.11 L 472.08,398.07 L 463.73,382.97 L 458.65,381.24 L 444.87,387.46 L 441.14,395.80 L 434.61,386.13 L 420.48,387.73 L 414.00,379.88 L 406.71,385.87 L 394.17,382.36 L 388.05,391.84 L 386.92,383.86 L 364.67,383.97 L 358.58,373.22 L 286.19,362.31 L 214.12,365.40 L 192.69,384.07 L 174.25,381.34 L 173.06,388.43 L 169.20,379.44 Z" fill="#4A90D9" stroke="#1a5fa8" stroke-width="1.2"/>
<path d="M 583.07,483.90 L 587.40,483.43 L 590.92,495.67 L 582.36,499.38 L 583.07,483.90 Z" fill="#A8C8E8" stroke="none"/>
<path d="M 70.00,222.33 L 73.79,222.33 L 70.64,217.30 L 79.12,219.33 L 74.15,221.02 L 77.19,223.42 L 74.66,228.81 L 67.09,225.00 L 70.00,222.33 Z" fill="#A8C8E8" stroke="none"/>
<path d="M 66.25,243.33 L 61.79,236.74 L 64.80,235.17 L 66.25,243.33 Z" fill="#A8C8E8" stroke="none"/>
<path d="M 74.83,247.16 L 77.77,251.06 L 68.76,249.75 L 68.85,245.90 L 65.87,251.06 L 66.25,243.33 L 79.89,245.36 L 74.83,247.16 Z" fill="#A8C8E8" stroke="none"/>
<path d="M 87.44,251.92 L 79.12,252.94 L 81.47,250.54 L 87.44,251.92 Z" fill="#A8C8E8" stroke="none"/>
<path d="M 79.54,231.43 L 71.62,237.63 L 76.66,232.60 L 75.53,229.53 L 79.54,231.43 Z" fill="#A8C8E8" stroke="none"/>
<path d="M 461.84,188.62 L 458.01,191.64 L 457.53,186.67 L 461.84,188.62 Z" fill="#A8C8E8" stroke="none"/>
<path d="M 525.39,27.88 L 525.31,27.99 L 525.31,27.93 L 525.39,27.88 Z" fill="#A8C8E8" stroke="none"/>
<path d="M 527.79,29.97 L 525.39,27.88 L 528.21,25.60 L 527.79,29.97 Z" fill="#A8C8E8" stroke="none"/>
<path d="M 665.58,33.17 L 664.99,24.08 L 651.04,22.53 L 670.19,18.61 L 674.48,20.77 L 670.31,24.16 L 674.14,28.22 L 665.58,33.17 Z M 670.59,22.55 L 664.82,22.34 L 667.34,25.60 L 670.59,22.55 Z" fill="#A8C8E8" stroke="none"/>
<path d="M 148.37,229.73 L 145.72,230.20 L 141.95,229.73 L 148.37,229.73 Z" fill="#A8C8E8" stroke="none"/>
<path d="M 350.32,53.46 L 338.83,58.24 L 342.17,52.75 L 350.32,53.46 Z" fill="#A8C8E8" stroke="none"/>
<path d="M 340.23,179.01 L 334.50,174.67 L 336.30,173.12 L 341.36,174.61 L 340.23,179.01 Z" fill="#A8C8E8" stroke="none"/>
<path d="M 375.66,85.24 L 369.29,82.60 L 372.69,79.73 L 377.45,82.36 L 375.66,85.24 Z" fill="#A8C8E8" stroke="none"/>
<path d="M 529.24,420.51 L 520.97,419.13 L 538.58,407.29 L 534.60,446.91 L 527.50,438.63 L 529.24,420.51 Z" fill="#A8C8E8" stroke="none"/>
<path d="M 205.90,179.02 L 205.06,180.09 L 200.50,181.01 L 205.06,178.35 L 193.29,175.25 L 204.31,176.65 L 205.90,179.02 Z" fill="#A8C8E8" stroke="none"/>
<path d="M 5.61,187.06 L 0.00,189.67 L 0.00,187.68 L 5.61,187.06 Z" fill="#A8C8E8" stroke="none"/>
</svg>