<svg xmlns="http://www.w3.org/2000/svg" width="800" height="500" viewBox="0 0 800 500">
<rect width="800" height="500" fill="#A8C8E8"/>
<path d="M 376.89,3.15 L 377.83,6.68 L 359.76,0.36 L 345.73,7.43 L 337.65,0.00 L 378.53,0.00 L 376.89,3.15 Z" fill="#E8E0D0" stroke="#B8B0A0" stroke-width="0.5"/>
<path d="M 384.42,6.63 L 383.78,12.86 L 396.15,21.73 L 395.55,30.09 L 390.21,33.61 L 392.79,37.50 L 388.18,50.09 L 398.91,51.62 L 397.10,56.54 L 406.90,68.92 L 410.33,86.51 L 407.76,94.66 L 399.42,96.76 L 388.81,108.61 L 386.84,116.78 L 363.84,114.71 L 357.89,122.38 L 345.04,124.14 L 314.23,94.77 L 292.09,91.15 L 284.49,75.60 L 269.84,86.63 L 256.96,87.36 L 240.71,81.20 L 224.98,80.02 L 216.48,84.39 L 211.29,77.53 L 201.59,81.54 L 180.07,77.20 L 151.24,89.46 L 146.08,98.35 L 140.93,99.10 L 137.92,88.97 L 139.16,70.68 L 141.92,78.11 L 138.63,68.85 L 140.91,51.06 L 153.31,39.63 L 155.23,20.73 L 166.36,3.75 L 176.28,0.00 L 200.72,0.00 L 201.20,2.99 L 219.03,16.64 L 223.94,33.91 L 240.27,42.27 L 249.97,39.35 L 266.80,23.80 L 264.62,0.00 L 337.65,0.00 L 345.73,7.43 L 359.76,0.36 L 384.42,6.63 Z" fill="#C8D8E8" stroke="#8BAABB" stroke-width="0.8"/>
<path d="M 343.87,146.45 L 357.06,149.87 L 349.55,159.55 L 336.89,158.33 L 332.16,169.20 L 318.78,175.50 L 317.19,194.63 L 309.22,210.35 L 315.52,210.35 L 319.02,215.74 L 318.04,220.81 L 308.75,221.55 L 310.18,216.05 L 306.62,211.76 L 297.10,214.43 L 292.05,222.35 L 282.63,222.20 L 281.40,232.67 L 265.95,237.93 L 258.12,233.35 L 237.72,237.21 L 232.39,234.60 L 231.96,223.59 L 227.46,216.96 L 203.11,204.14 L 202.88,187.58 L 208.43,179.05 L 197.79,162.92 L 179.42,165.41 L 153.02,148.81 L 148.99,151.43 L 148.59,143.76 L 145.82,145.24 L 147.30,134.18 L 144.46,124.15 L 141.20,117.10 L 140.93,99.10 L 146.08,98.35 L 151.24,89.46 L 180.07,77.20 L 201.59,81.54 L 211.29,77.53 L 216.48,84.39 L 224.98,80.02 L 240.71,81.20 L 256.96,87.36 L 269.84,86.63 L 284.49,75.60 L 292.09,91.15 L 314.23,94.77 L 337.47,120.02 L 349.31,124.86 L 343.87,146.45 Z M 136.09,149.27 L 142.02,135.62 L 142.13,121.31 L 142.92,140.47 L 136.09,149.27 Z" fill="#C8D8E8" stroke="#8BAABB" stroke-width="0.8"/>
<path d="M 202.79,208.96 L 208.03,205.28 L 231.02,220.90 L 236.36,255.43 L 247.74,284.61 L 248.82,310.61 L 228.89,325.40 L 220.36,339.39 L 238.10,352.41 L 239.57,358.15 L 234.57,383.64 L 240.37,395.60 L 238.02,401.94 L 257.12,430.41 L 250.14,433.48 L 254.79,439.52 L 255.79,450.45 L 251.04,459.10 L 239.79,461.42 L 210.80,500.00 L 112.58,500.00 L 112.58,203.35 L 202.79,208.96 Z" fill="#C8D8E8" stroke="#8BAABB" stroke-width="0.8"/>
<path d="M 679.60,445.31 L 683.03,442.34 L 676.11,424.83 L 678.75,419.66 L 670.80,417.58 L 668.36,408.10 L 653.17,410.64 L 650.67,406.43 L 634.78,405.48 L 639.40,400.04 L 634.78,396.26 L 636.20,388.59 L 631.14,378.95 L 641.94,376.28 L 643.31,371.89 L 631.41,360.83 L 630.25,347.70 L 620.42,335.25 L 609.37,339.51 L 608.26,335.05 L 597.06,334.45 L 586.76,342.46 L 567.41,337.02 L 561.35,352.64 L 549.21,355.93 L 543.72,351.39 L 541.28,341.80 L 536.31,338.00 L 535.68,325.26 L 538.61,322.96 L 533.05,314.43 L 536.07,307.78 L 524.27,293.34 L 530.63,281.56 L 560.14,288.06 L 568.51,281.28 L 569.68,275.18 L 579.56,272.98 L 579.64,266.34 L 568.73,258.59 L 567.59,253.90 L 571.01,251.25 L 569.21,248.91 L 555.72,242.83 L 542.98,243.77 L 545.91,227.35 L 527.18,216.18 L 522.84,202.28 L 517.41,199.47 L 521.29,191.26 L 506.35,180.82 L 508.01,171.80 L 515.19,165.77 L 513.46,156.90 L 507.24,149.09 L 511.90,142.60 L 511.70,130.92 L 485.56,112.91 L 473.90,113.67 L 457.85,123.97 L 452.95,118.57 L 456.48,109.62 L 453.96,106.63 L 440.92,102.17 L 429.68,107.09 L 422.38,97.50 L 413.06,100.75 L 407.76,94.66 L 410.33,86.51 L 407.13,69.67 L 397.10,56.54 L 398.91,51.62 L 388.18,50.09 L 392.79,37.50 L 390.21,33.61 L 395.55,30.09 L 396.15,21.73 L 383.78,12.86 L 384.42,6.63 L 376.89,3.15 L 378.53,0.00 L 687.42,0.00 L 687.42,460.58 L 679.60,445.31 Z M 112.58,204.03 L 112.58,169.03 L 119.46,168.78 L 136.09,149.27 L 138.53,150.05 L 121.28,169.47 L 142.33,173.48 L 148.08,169.69 L 145.82,154.41 L 153.02,148.81 L 178.41,165.10 L 198.36,163.57 L 208.28,177.88 L 202.16,194.54 L 205.38,208.11 L 112.58,204.03 Z" fill="#C8D8E8" stroke="#8BAABB" stroke-width="0.8"/>
<path d="M 549.21,355.93 L 561.35,352.64 L 567.41,337.02 L 586.76,342.46 L 597.06,334.45 L 608.26,335.05 L 609.37,339.51 L 620.42,335.25 L 630.25,347.70 L 631.41,360.83 L 643.31,371.89 L 641.94,376.28 L 631.14,378.95 L 636.20,388.59 L 634.78,396.26 L 639.40,400.04 L 634.78,405.48 L 650.67,406.43 L 653.17,410.64 L 668.36,408.10 L 670.80,417.58 L 678.75,419.66 L 676.11,424.83 L 683.03,442.34 L 679.60,445.31 L 687.42,460.58 L 687.42,500.00 L 210.80,500.00 L 239.79,461.42 L 251.04,459.10 L 255.79,450.45 L 254.79,439.52 L 250.14,433.48 L 257.12,430.41 L 238.02,401.94 L 240.37,395.60 L 237.32,381.61 L 251.04,384.07 L 266.43,365.40 L 318.22,362.31 L 370.24,373.22 L 374.61,383.97 L 390.60,383.86 L 391.41,391.84 L 395.81,382.36 L 404.82,385.87 L 410.06,379.88 L 414.71,387.73 L 424.87,386.13 L 429.56,395.80 L 432.24,387.46 L 442.14,381.24 L 445.80,382.97 L 451.80,398.07 L 463.75,390.11 L 470.93,393.98 L 482.96,390.52 L 497.66,406.35 L 501.65,397.95 L 496.74,382.95 L 505.26,364.26 L 512.77,358.17 L 511.92,354.02 L 543.72,351.39 L 549.21,355.93 Z" fill="#C8D8E8" stroke="#8BAABB" stroke-width="0.8"/>
<path d="M 234.16,379.44 L 239.57,358.15 L 238.10,352.41 L 220.36,339.39 L 228.89,325.40 L 248.82,310.61 L 247.74,284.61 L 236.36,255.43 L 232.39,234.60 L 258.12,233.35 L 265.95,237.93 L 282.06,232.31 L 282.63,222.20 L 292.05,222.35 L 297.10,214.43 L 306.62,211.76 L 310.18,216.05 L 308.75,221.55 L 318.04,220.81 L 319.02,215.74 L 315.52,210.35 L 309.22,210.35 L 317.19,194.63 L 318.78,175.50 L 332.16,169.20 L 336.89,158.33 L 349.55,159.55 L 357.06,149.87 L 343.87,146.45 L 350.10,123.53 L 357.89,122.38 L 363.84,114.71 L 386.84,116.78 L 388.81,108.61 L 406.33,93.75 L 413.85,101.00 L 425.15,98.09 L 429.68,107.09 L 440.92,102.17 L 454.64,107.03 L 456.48,109.62 L 452.69,117.24 L 457.85,123.97 L 473.90,113.67 L 484.90,112.73 L 495.00,116.82 L 505.28,129.47 L 510.69,129.09 L 511.90,142.60 L 507.24,149.09 L 513.46,156.90 L 515.19,165.77 L 508.01,171.80 L 506.35,180.82 L 521.29,191.26 L 517.41,199.47 L 522.84,202.28 L 527.18,216.18 L 545.91,227.35 L 542.98,243.77 L 555.72,242.83 L 569.21,248.91 L 571.01,251.25 L 567.59,253.90 L 568.73,258.59 L 579.64,266.34 L 579.56,272.98 L 569.68,275.18 L 568.51,281.28 L 556.99,289.11 L 538.07,280.94 L 529.21,282.70 L 524.27,293.34 L 536.07,307.78 L 533.05,314.43 L 538.61,322.96 L 535.68,325.26 L 536.31,338.00 L 541.28,341.80 L 543.72,351.39 L 511.92,354.02 L 512.77,358.17 L 505.26,364.26 L 496.74,382.95 L 501.65,397.95 L 498.08,406.25 L 482.96,390.52 L 470.93,393.98 L 463.75,390.11 L 451.80,398.07 L 445.80,382.97 L 442.14,381.24 L 432.24,387.46 L 429.56,395.80 L 424.87,386.13 L 414.71,387.73 L 410.06,379.88 L 404.82,385.87 L 395.81,382.36 L 391.41,391.84 L 390.60,383.86 L 374.61,383.97 L 370.24,373.22 L 318.22,362.31 L 266.43,365.40 L 251.04,384.07 L 237.79,381.34 L 236.93,388.43 L 234.16,379.44 Z" fill="#4A90D9" stroke="#1a5fa8" stroke-width="1.2"/>
<path d="M 531.54,483.90 L 534.65,483.43 L 537.19,495.67 L 531.03,499.38 L 531.54,483.90 Z" fill="#A8C8E8" stroke="none"/>
<path d="M 162.88,222.33 L 165.60,222.33 L 163.34,217.30 L 169.43,219.33 L 165.86,221.02 L 168.05,223.42 L 166.22,228.81 L 160.79,225.00 L 162.88,222.33 Z" fill="#A8C8E8" stroke="none"/>
<path d="M 160.19,243.33 L 156.98,236.74 L 159.14,235.17 L 160.19,243.33 Z" fill="#A8C8E8" stroke="none"/>
<path d="M 166.35,247.16 L 168.46,251.06 L 161.98,249.75 L 162.05,245.90 L 159.91,251.06 L 160.19,243.33 L 169.99,245.36 L 166.35,247.16 Z" fill="#A8C8E8" stroke="none"/>
<path d="M 175.41,251.92 L 169.43,252.94 L 171.12,250.54 L 175.41,251.92 Z" fill="#A8C8E8" stroke="none"/>
<path d="M 169.73,231.43 L 164.04,237.63 L 167.67,232.60 L 166.85,229.53 L 169.73,231.43 Z" fill="#A8C8E8" stroke="none"/>
<path d="M 444.44,188.62 L 441.68,191.64 L 441.34,186.67 L 444.44,188.62 Z" fill="#A8C8E8" stroke="none"/>
<path d="M 490.10,27.88 L 490.04,27.99 L 490.04,27.93 L 490.10,27.88 Z" fill="#A8C8E8" stroke="none"/>
<path d="M 491.83,29.97 L 490.10,27.88 L 492.12,25.60 L 491.83,29.97 Z" fill="#A8C8E8" stroke="none"/>
<path d="M 590.83,33.17 L 590.41,24.08 L 580.38,22.53 L 594.14,18.61 L 597.23,20.77 L 594.23,24.16 L 596.99,28.22 L 590.83,33.17 Z M 594.43,22.55 L 590.29,22.34 L 592.09,25.60 L 594.43,22.55 Z" fill="#A8C8E8" stroke="none"/>
<path d="M 219.19,229.73 L 217.29,230.20 L 214.58,229.73 L 219.19,229.73 Z" fill="#A8C8E8" stroke="none"/>
<path d="M 364.30,53.46 L 356.05,58.24 L 358.45,52.75 L 364.30,53.46 Z" fill="#A8C8E8" stroke="none"/>
<path d="M 357.05,179.01 L 352.93,174.67 L 354.23,173.12 L 357.86,174.61 L 357.05,179.01 Z" fill="#A8C8E8" stroke="none"/>
<path d="M 382.51,85.24 L 377.93,82.60 L 380.38,79.73 L 383.80,82.36 L 382.51,85.24 Z" fill="#A8C8E8" stroke="none"/>
<path d="M 492.87,420.51 L 486.92,419.13 L 499.57,407.29 L 496.72,446.91 L 491.62,438.63 L 492.87,420.51 Z" fill="#A8C8E8" stroke="none"/>
<path d="M 260.53,179.02 L 259.93,180.09 L 256.65,181.01 L 259.93,178.35 L 251.47,175.25 L 259.39,176.65 L 260.53,179.02 Z" fill="#A8C8E8" stroke="none"/>
<path d="M 116.61,187.06 L 112.58,189.67 L 112.58,187.68 L 116.61,187.06 Z" fill="#A8C8E8" stroke="none"/>
</svg>