<svg xmlns="http://www.w3.org/2000/svg" width="800" height="500" viewBox="0 0 800 500">
<rect width="800" height="500" fill="#A8C8E8"/>
<path d="M 422.40,430.88 L 445.09,428.33 L 464.36,407.75 L 505.64,399.54 L 518.48,417.49 L 533.89,409.77 L 583.03,420.57 L 583.61,420.56 L 583.61,500.00 L 331.66,500.00 L 422.40,430.88 Z M 583.61,379.19 L 583.61,380.91 L 573.79,381.71 L 579.89,377.80 L 583.61,379.19 Z" fill="#E8E0D0" stroke="#B8B0A0" stroke-width="0.5"/>
<path d="M 325.56,173.87 L 316.84,404.54 L 368.39,408.72 L 388.82,427.58 L 394.74,409.46 L 402.64,410.20 L 389.26,395.44 L 433.38,424.75 L 331.83,500.00 L 216.39,500.00 L 216.39,174.11 L 325.56,173.87 Z" fill="#C8D8E8" stroke="#8BAABB" stroke-width="0.8"/>
<path d="M 500.16,4.92 L 508.55,0.00 L 518.29,0.00 L 476.57,127.94 L 466.18,98.34 L 449.81,91.68 L 458.49,68.67 L 454.57,46.47 L 444.13,63.86 L 443.28,59.14 L 435.92,62.69 L 430.30,67.93 L 441.44,67.66 L 426.22,92.54 L 398.17,97.02 L 358.74,164.67 L 338.31,151.66 L 326.32,158.64 L 325.56,173.87 L 216.39,174.11 L 216.39,0.00 L 498.25,0.00 L 500.16,4.92 Z M 537.90,83.44 L 535.11,96.99 L 529.95,103.22 L 537.90,83.44 Z M 545.01,70.34 L 543.32,76.06 L 543.81,72.66 L 542.60,62.86 L 545.01,70.34 Z" fill="#C8D8E8" stroke="#8BAABB" stroke-width="0.8"/>
<path d="M 326.32,158.64 L 338.31,151.66 L 358.74,164.67 L 398.17,97.02 L 423.87,93.75 L 413.87,107.05 L 422.30,106.55 L 417.66,115.09 L 447.63,106.47 L 441.93,114.42 L 447.84,111.47 L 449.15,126.33 L 425.72,199.10 L 439.54,210.18 L 425.88,230.88 L 434.06,275.63 L 419.16,328.79 L 423.02,312.24 L 397.16,359.21 L 373.81,364.15 L 349.50,406.25 L 316.84,404.54 L 326.32,158.64 Z M 480.06,225.88 L 481.28,236.57 L 478.86,236.57 L 480.06,225.88 Z M 482.92,207.78 L 483.16,212.00 L 467.17,238.21 L 482.92,207.78 Z M 452.58,198.86 L 453.71,205.26 L 452.35,204.10 L 452.58,198.86 Z M 442.73,188.56 L 450.58,183.48 L 446.84,189.78 L 442.73,188.56 Z M 468.48,153.64 L 466.25,158.42 L 462.66,161.92 L 457.70,163.28 L 475.11,131.19 L 468.48,153.64 Z M 450.97,212.76 L 449.89,216.30 L 445.28,210.08 L 450.97,212.76 Z M 463.04,141.96 L 460.87,143.01 L 460.53,142.25 L 463.04,141.96 Z M 466.04,139.09 L 464.01,140.96 L 463.68,139.87 L 466.04,139.09 Z M 473.11,127.86 L 471.61,130.47 L 471.27,127.85 L 473.11,127.86 Z" fill="#4A90D9" stroke="#1a5fa8" stroke-width="1.2"/>
<path d="M 346.81,431.68 L 345.24,450.95 L 333.77,460.32 L 307.61,468.03 L 297.22,454.73 L 363.33,420.12 L 346.81,431.68 Z" fill="#A8C8E8" stroke="none"/>
</svg>