<svg xmlns="http://www.w3.org/2000/svg" width="800" height="500" viewBox="0 0 800 500">
<rect width="800" height="500" fill="#A8C8E8"/>
<path d="M 448.79,430.88 L 498.24,428.33 L 540.21,407.75 L 630.14,399.54 L 658.11,417.49 L 691.69,409.77 L 798.75,420.57 L 800.00,420.56 L 800.00,500.00 L 251.12,500.00 L 448.79,430.88 Z M 800.00,379.19 L 800.00,380.91 L 778.61,381.71 L 791.90,377.80 L 800.00,379.19 Z" fill="#E8E0D0" stroke="#B8B0A0" stroke-width="0.5"/>
<path d="M 237.84,173.87 L 218.83,404.54 L 331.13,408.72 L 375.65,427.58 L 388.54,409.46 L 405.75,410.20 L 376.60,395.44 L 472.73,424.75 L 251.50,500.00 L 0.00,500.00 L 0.00,174.11 L 237.84,173.87 Z" fill="#C8D8E8" stroke="#8BAABB" stroke-width="0.8"/>
<path d="M 618.21,4.92 L 636.47,0.00 L 657.71,0.00 L 566.82,127.94 L 544.17,98.34 L 508.51,91.68 L 527.41,68.67 L 518.89,46.47 L 496.13,63.86 L 494.29,59.14 L 478.26,62.69 L 466.01,67.93 L 490.28,67.66 L 457.13,92.54 L 396.01,97.02 L 310.12,164.67 L 265.60,151.66 L 239.48,158.64 L 237.84,173.87 L 0.00,174.11 L 0.00,0.00 L 614.04,0.00 L 618.21,4.92 Z M 700.43,83.44 L 694.34,96.99 L 683.11,103.22 L 700.43,83.44 Z M 715.92,70.34 L 712.23,76.06 L 713.31,72.66 L 710.67,62.86 L 715.92,70.34 Z" fill="#C8D8E8" stroke="#8BAABB" stroke-width="0.8"/>
<path d="M 239.48,158.64 L 265.60,151.66 L 310.12,164.67 L 396.01,97.02 L 452.01,93.75 L 430.22,107.05 L 448.59,106.55 L 438.47,115.09 L 503.77,106.47 L 491.34,114.42 L 504.22,111.47 L 507.07,126.33 L 456.03,199.10 L 486.13,210.18 L 456.39,230.88 L 474.19,275.63 L 441.75,328.79 L 450.14,312.24 L 393.81,359.21 L 342.95,364.15 L 289.99,406.25 L 218.83,404.54 L 239.48,158.64 Z M 574.41,225.88 L 577.07,236.57 L 571.81,236.57 L 574.41,225.88 Z M 580.66,207.78 L 581.17,212.00 L 546.34,238.21 L 580.66,207.78 Z M 514.56,198.86 L 517.01,205.26 L 514.05,204.10 L 514.56,198.86 Z M 493.08,188.56 L 510.18,183.48 L 502.04,189.78 L 493.08,188.56 Z M 549.18,153.64 L 544.32,158.42 L 536.51,161.92 L 525.71,163.28 L 563.64,131.19 L 549.18,153.64 Z M 511.04,212.76 L 508.70,216.30 L 498.64,210.08 L 511.04,212.76 Z M 537.33,141.96 L 532.60,143.01 L 531.87,142.25 L 537.33,141.96 Z M 543.86,139.09 L 539.46,140.96 L 538.74,139.87 L 543.86,139.09 Z M 559.28,127.86 L 556.01,130.47 L 555.27,127.85 L 559.28,127.86 Z" fill="#4A90D9" stroke="#1a5fa8" stroke-width="1.2"/>
<path d="M 284.12,431.68 L 280.69,450.95 L 255.71,460.32 L 198.71,468.03 L 176.08,454.73 L 320.10,420.12 L 284.12,431.68 Z" fill="#A8C8E8" stroke="none"/>
</svg>