<svg xmlns="http://www.w3.org/2000/svg" width="800" height="500" viewBox="0 0 800 500">
<rect width="800" height="500" fill="#A8C8E8"/>
<path d="M 608.01,13.29 L 607.24,7.62 L 612.13,2.33 L 615.10,5.65 L 616.49,4.90 L 618.48,2.01 L 618.40,0.00 L 651.91,0.00 L 651.91,110.38 L 636.40,109.21 L 634.73,108.14 L 631.61,102.39 L 632.48,94.70 L 626.93,92.83 L 623.93,93.77 L 623.50,91.48 L 620.80,89.65 L 618.74,85.65 L 614.26,72.02 L 611.30,70.89 L 610.95,68.61 L 607.26,67.12 L 605.62,64.01 L 603.17,62.63 L 602.72,59.98 L 597.91,55.88 L 587.02,53.55 L 585.89,51.57 L 589.12,47.85 L 588.74,44.19 L 589.95,42.63 L 596.33,42.55 L 598.33,44.10 L 604.11,40.96 L 603.78,26.05 L 608.01,13.29 Z" fill="#E8E0D0" stroke="#B8B0A0" stroke-width="0.5"/>
<path d="M 631.41,105.27 L 634.41,106.29 L 636.40,109.21 L 651.91,110.38 L 651.91,227.46 L 601.03,199.59 L 601.84,185.51 L 600.85,181.13 L 604.02,177.19 L 605.09,172.94 L 609.04,169.41 L 610.67,164.99 L 615.82,162.51 L 615.51,159.91 L 618.71,155.50 L 619.27,151.14 L 616.94,144.00 L 617.90,141.84 L 617.11,139.95 L 609.80,130.15 L 608.92,125.25 L 609.89,122.09 L 605.14,120.30 L 606.01,118.65 L 604.02,118.61 L 602.23,112.93 L 608.92,106.28 L 625.98,99.47 L 625.72,101.20 L 628.62,101.57 L 627.81,103.62 L 629.27,106.28 L 631.41,105.27 Z" fill="#E8E0D0" stroke="#B8B0A0" stroke-width="0.5"/>
<path d="M 612.82,375.10 L 611.95,379.29 L 608.55,384.66 L 610.80,393.50 L 611.64,404.09 L 613.22,406.86 L 616.90,407.25 L 620.56,410.37 L 633.19,426.08 L 634.14,430.00 L 632.15,434.73 L 633.08,438.80 L 632.16,449.17 L 627.68,451.32 L 625.37,450.81 L 621.35,457.40 L 624.30,462.59 L 624.21,466.80 L 623.05,467.31 L 620.26,466.89 L 621.12,462.30 L 617.60,460.77 L 609.67,453.02 L 609.31,449.46 L 606.47,446.65 L 611.97,436.81 L 610.92,424.84 L 608.31,421.71 L 603.45,423.50 L 597.98,423.41 L 596.73,425.27 L 590.70,416.29 L 588.38,414.04 L 586.06,416.12 L 583.98,412.31 L 582.14,411.59 L 582.25,409.42 L 580.48,408.58 L 582.96,407.45 L 586.03,402.05 L 586.28,397.31 L 585.08,394.87 L 586.47,392.26 L 591.86,390.93 L 594.78,387.99 L 591.84,387.54 L 590.24,384.41 L 591.26,378.31 L 590.97,375.35 L 589.58,374.86 L 589.87,372.41 L 592.53,368.23 L 589.91,363.56 L 594.35,361.67 L 597.22,358.48 L 594.89,352.74 L 591.09,349.96 L 591.74,346.11 L 588.96,342.30 L 585.84,342.74 L 585.00,338.81 L 588.92,340.79 L 591.03,340.48 L 593.33,342.62 L 598.22,342.00 L 601.15,344.22 L 602.82,340.23 L 607.88,344.24 L 611.49,349.62 L 612.23,357.86 L 613.79,361.39 L 612.77,367.19 L 615.29,371.23 L 617.29,371.73 L 618.58,375.02 L 612.82,375.10 Z M 615.23,382.76 L 614.02,384.16 L 613.47,383.36 L 614.10,382.10 L 615.23,382.76 Z M 613.00,381.88 L 612.73,383.30 L 611.62,382.28 L 613.00,381.88 Z" fill="#E8E0D0" stroke="#B8B0A0" stroke-width="0.5"/>
<path d="M 245.88,496.67 L 238.96,490.05 L 235.07,480.93 L 233.75,474.13 L 234.38,469.49 L 239.89,467.38 L 242.45,468.80 L 247.82,468.96 L 257.74,464.26 L 262.92,465.24 L 263.61,467.09 L 271.21,472.10 L 345.26,471.54 L 348.39,475.66 L 352.49,478.33 L 367.07,479.84 L 376.42,479.26 L 384.20,482.18 L 390.08,480.51 L 393.82,481.90 L 440.72,473.03 L 454.24,474.71 L 457.93,478.25 L 452.86,478.15 L 446.42,482.54 L 442.88,480.93 L 430.62,489.59 L 425.37,481.65 L 387.00,486.96 L 387.04,500.00 L 247.57,500.00 L 245.88,496.67 Z" fill="#E8E0D0" stroke="#B8B0A0" stroke-width="0.5"/>
<path d="M 418.71,0.00 L 575.54,0.00 L 568.56,6.12 L 563.96,13.45 L 555.67,20.92 L 549.07,21.58 L 536.61,12.51 L 530.03,16.04 L 530.01,18.42 L 527.84,20.96 L 518.42,24.82 L 517.26,28.21 L 504.04,28.10 L 501.55,23.72 L 488.07,23.53 L 480.54,25.62 L 468.62,13.99 L 467.34,10.04 L 454.90,12.24 L 453.24,17.54 L 450.26,20.01 L 450.19,24.96 L 448.33,27.40 L 446.32,35.48 L 438.96,38.88 L 428.63,38.04 L 429.91,34.02 L 427.73,33.28 L 428.37,30.77 L 430.99,28.99 L 431.19,19.28 L 425.34,9.71 L 418.22,1.75 L 418.71,0.00 Z M 618.48,2.01 L 616.49,4.90 L 615.10,5.65 L 612.13,2.33 L 607.24,7.62 L 608.01,13.29 L 603.78,26.05 L 600.65,25.31 L 602.17,19.41 L 601.24,14.11 L 592.37,6.29 L 588.38,4.74 L 588.06,0.00 L 618.40,0.00 L 618.48,2.01 Z" fill="#E8E0D0" stroke="#B8B0A0" stroke-width="0.5"/>
<path d="M 267.48,0.13 L 263.90,6.69 L 262.18,14.46 L 258.79,16.25 L 258.22,24.60 L 252.59,27.32 L 253.30,29.24 L 251.22,37.60 L 247.67,40.14 L 244.53,40.08 L 245.11,41.95 L 242.19,43.78 L 241.61,50.85 L 238.74,54.86 L 238.78,57.23 L 234.07,62.42 L 236.31,65.47 L 231.17,68.84 L 230.71,72.68 L 228.00,75.82 L 223.75,76.18 L 222.48,71.09 L 214.90,64.62 L 213.53,68.87 L 208.81,68.79 L 207.69,66.66 L 203.25,70.31 L 201.82,70.19 L 200.24,74.57 L 194.41,78.17 L 188.48,85.11 L 186.38,85.91 L 185.78,88.30 L 187.18,90.10 L 185.44,97.33 L 180.98,104.81 L 175.22,100.12 L 178.07,105.80 L 176.99,107.47 L 164.90,107.85 L 164.68,104.77 L 163.97,107.07 L 160.31,106.60 L 161.18,107.79 L 160.31,108.19 L 156.85,103.99 L 158.72,107.96 L 156.39,109.33 L 156.39,105.91 L 155.04,104.44 L 155.48,106.48 L 154.01,105.23 L 156.05,109.97 L 155.16,110.36 L 153.49,109.94 L 152.11,103.01 L 150.95,102.72 L 153.52,110.59 L 150.95,110.69 L 151.29,106.48 L 150.61,109.55 L 149.93,108.08 L 150.49,110.99 L 149.25,110.98 L 148.97,108.57 L 148.22,108.19 L 148.54,111.02 L 148.09,111.08 L 148.09,0.00 L 267.59,0.00 L 267.48,0.13 Z M 165.34,108.53 L 162.81,109.36 L 161.24,108.94 L 165.34,108.53 Z M 161.16,108.41 L 160.60,109.69 L 157.94,109.98 L 159.46,107.73 L 160.20,108.41 L 161.16,108.41 Z" fill="#E8E0D0" stroke="#B8B0A0" stroke-width="0.5"/>
<path d="M 457.85,481.68 L 469.20,496.95 L 469.33,499.97 L 469.34,500.00 L 387.04,500.00 L 387.00,486.96 L 425.37,481.65 L 430.62,489.59 L 442.88,480.93 L 446.42,482.54 L 452.86,478.15 L 457.93,478.25 L 457.85,481.68 Z" fill="#E8E0D0" stroke="#B8B0A0" stroke-width="0.5"/>
<path d="M 462.18,479.38 L 464.91,478.53 L 468.93,481.65 L 473.69,479.72 L 481.77,482.81 L 487.09,480.98 L 496.29,471.09 L 500.26,464.40 L 516.68,456.54 L 517.48,449.48 L 518.72,447.87 L 529.56,442.76 L 542.96,442.43 L 543.06,448.49 L 557.25,448.86 L 559.65,451.17 L 564.72,452.09 L 568.02,455.59 L 574.31,455.97 L 580.63,458.43 L 581.61,460.24 L 585.54,459.78 L 583.22,463.99 L 586.42,470.80 L 585.01,473.34 L 586.46,475.34 L 584.86,481.21 L 585.31,485.92 L 586.77,487.50 L 583.92,490.55 L 584.44,494.52 L 580.95,495.51 L 580.78,497.51 L 583.67,499.65 L 583.59,500.00 L 469.34,500.00 L 469.33,499.97 L 469.20,496.95 L 457.85,481.68 L 457.93,478.25 L 462.18,479.38 Z" fill="#E8E0D0" stroke="#B8B0A0" stroke-width="0.5"/>
<path d="M 418.22,1.75 L 411.37,0.44 L 399.38,6.44 L 399.31,12.08 L 395.91,13.68 L 393.61,17.45 L 391.67,17.41 L 384.54,26.66 L 381.92,28.59 L 379.83,28.26 L 378.06,31.31 L 354.67,33.84 L 352.15,36.10 L 356.36,38.99 L 347.51,49.40 L 331.79,50.44 L 317.98,57.77 L 314.81,55.51 L 313.73,52.35 L 311.14,53.78 L 310.78,55.63 L 303.41,58.69 L 296.05,58.10 L 297.41,53.64 L 295.39,52.86 L 291.13,42.24 L 277.32,30.80 L 270.67,23.01 L 274.54,17.36 L 284.33,18.30 L 299.37,17.15 L 290.27,8.03 L 288.89,0.00 L 418.86,0.00 L 418.22,1.75 Z" fill="#E8E0D0" stroke="#B8B0A0" stroke-width="0.5"/>
<path d="M 583.67,499.65 L 580.78,497.51 L 580.95,495.51 L 584.44,494.52 L 583.92,490.55 L 586.77,487.50 L 585.31,485.92 L 584.86,481.21 L 586.46,475.34 L 585.01,473.34 L 586.42,470.80 L 583.22,463.99 L 585.54,459.78 L 581.61,460.24 L 580.63,458.43 L 574.31,455.97 L 568.02,455.59 L 564.72,452.09 L 559.65,451.17 L 557.25,448.86 L 543.06,448.49 L 542.90,439.86 L 539.95,431.57 L 589.41,415.51 L 596.73,425.27 L 597.98,423.41 L 603.45,423.50 L 608.31,421.71 L 611.19,425.36 L 612.03,436.38 L 606.47,446.65 L 609.31,449.46 L 609.67,453.02 L 617.60,460.77 L 621.12,462.30 L 620.26,466.89 L 624.00,467.21 L 623.77,460.10 L 621.35,457.40 L 625.37,450.81 L 627.68,451.32 L 632.16,449.17 L 633.08,438.80 L 632.15,434.73 L 634.14,430.00 L 633.19,426.08 L 620.56,410.37 L 616.90,407.25 L 613.22,406.86 L 611.64,404.09 L 610.80,393.50 L 608.47,385.40 L 612.82,375.10 L 627.96,375.67 L 632.85,372.36 L 638.50,375.10 L 639.03,377.14 L 646.08,377.47 L 649.30,375.02 L 651.91,374.91 L 651.91,481.73 L 650.42,479.69 L 649.51,479.63 L 651.90,482.44 L 643.55,490.90 L 642.47,494.69 L 639.66,493.18 L 640.14,496.45 L 638.15,496.61 L 637.77,494.95 L 633.32,497.45 L 630.87,500.00 L 583.59,500.00 L 583.67,499.65 Z M 613.47,383.36 L 614.02,384.16 L 615.23,382.76 L 614.10,382.10 L 613.47,383.36 Z M 611.62,382.28 L 612.73,383.30 L 613.00,381.88 L 611.62,382.28 Z" fill="#E8E0D0" stroke="#B8B0A0" stroke-width="0.5"/>
<path d="M 205.17,147.01 L 202.19,145.37 L 204.59,132.33 L 204.15,128.66 L 199.40,124.22 L 202.33,122.75 L 199.13,123.21 L 197.80,119.57 L 199.10,120.72 L 199.05,118.65 L 201.09,119.57 L 199.96,118.08 L 201.42,117.28 L 199.01,117.23 L 201.26,114.32 L 198.36,116.36 L 196.69,114.72 L 197.58,116.75 L 196.02,116.07 L 196.66,117.97 L 194.45,117.97 L 194.17,116.04 L 192.26,117.17 L 188.29,114.90 L 187.70,107.39 L 186.24,105.96 L 186.58,107.54 L 185.43,106.60 L 185.27,107.59 L 183.06,104.32 L 184.18,108.06 L 180.66,107.83 L 182.18,101.95 L 185.44,97.33 L 187.18,90.10 L 185.78,88.30 L 186.21,86.19 L 194.41,78.17 L 200.24,74.57 L 201.82,70.19 L 203.25,70.31 L 207.69,66.66 L 208.81,68.79 L 213.53,68.87 L 214.90,64.62 L 222.48,71.09 L 223.48,75.93 L 226.11,76.25 L 230.71,72.68 L 231.17,68.84 L 236.31,65.47 L 234.07,62.42 L 238.78,57.23 L 238.74,54.86 L 241.61,50.85 L 242.19,43.78 L 245.11,41.95 L 244.53,40.08 L 247.67,40.14 L 251.58,37.11 L 253.30,29.24 L 252.59,27.32 L 258.22,24.60 L 258.79,16.25 L 262.18,14.46 L 263.90,6.69 L 267.48,0.13 L 267.59,0.00 L 288.90,0.00 L 290.38,8.35 L 299.37,17.15 L 284.33,18.30 L 274.54,17.36 L 270.64,22.77 L 277.32,30.80 L 288.95,39.51 L 295.39,52.86 L 297.41,53.64 L 295.25,60.32 L 291.80,62.68 L 284.32,78.10 L 277.95,82.73 L 281.76,85.62 L 281.76,91.76 L 280.14,95.16 L 282.44,97.25 L 283.41,106.25 L 287.99,109.71 L 289.60,114.55 L 291.23,115.53 L 288.52,116.14 L 289.50,118.47 L 306.17,135.44 L 306.14,141.29 L 308.08,146.06 L 306.37,146.55 L 305.70,149.50 L 307.22,154.42 L 305.80,155.50 L 304.87,153.56 L 299.79,150.89 L 296.08,150.16 L 293.68,151.07 L 291.61,149.11 L 286.31,149.66 L 285.72,147.84 L 284.20,148.68 L 280.84,146.30 L 278.70,147.57 L 259.86,147.09 L 259.69,145.74 L 257.69,145.06 L 250.84,145.83 L 232.76,144.41 L 227.70,144.77 L 227.21,147.01 L 205.17,147.01 Z" fill="#E8E0D0" stroke="#B8B0A0" stroke-width="0.5"/>
<path d="M 257.67,151.43 L 257.13,156.53 L 259.14,160.75 L 257.47,162.10 L 263.98,161.65 L 268.14,159.15 L 273.93,159.86 L 275.71,160.87 L 276.22,164.20 L 279.29,167.80 L 276.98,172.64 L 272.79,174.00 L 270.63,177.14 L 269.40,179.69 L 270.23,183.83 L 268.74,186.36 L 273.12,187.54 L 274.18,190.51 L 276.84,190.33 L 279.65,192.93 L 278.03,199.70 L 279.61,206.34 L 279.20,208.65 L 277.58,209.70 L 278.97,210.94 L 278.23,214.37 L 275.51,215.85 L 273.99,219.87 L 275.42,222.03 L 273.03,224.42 L 268.98,223.89 L 269.98,222.11 L 267.29,217.75 L 262.58,223.46 L 254.47,222.32 L 255.12,220.73 L 251.75,214.80 L 248.90,213.24 L 246.48,214.90 L 245.50,214.22 L 246.70,217.73 L 246.03,221.62 L 239.46,223.03 L 237.41,221.60 L 234.39,223.03 L 231.25,221.61 L 232.21,226.64 L 230.66,230.53 L 232.42,229.97 L 234.76,232.83 L 233.26,235.58 L 237.51,237.77 L 235.53,242.22 L 236.86,243.42 L 233.26,244.33 L 229.86,241.19 L 225.39,244.31 L 223.76,248.29 L 221.28,244.21 L 216.02,240.24 L 215.84,237.94 L 203.71,227.77 L 200.41,223.50 L 201.93,224.46 L 202.67,223.72 L 204.95,226.58 L 207.91,225.65 L 207.60,224.90 L 205.06,225.44 L 203.24,222.94 L 201.22,223.95 L 200.75,222.43 L 200.41,223.37 L 198.65,221.99 L 198.13,219.34 L 193.26,214.10 L 196.50,214.86 L 197.76,217.32 L 197.34,214.92 L 194.97,213.14 L 194.40,214.29 L 193.00,213.41 L 192.41,209.17 L 189.04,204.79 L 188.50,203.38 L 189.09,204.61 L 191.40,207.31 L 193.15,208.43 L 193.41,210.75 L 198.03,209.63 L 196.33,207.36 L 193.51,208.94 L 192.88,207.55 L 194.30,206.16 L 194.32,204.25 L 194.11,205.70 L 191.84,206.36 L 189.26,204.51 L 189.31,202.76 L 186.57,199.17 L 187.24,199.69 L 187.70,198.94 L 186.11,198.26 L 183.73,192.69 L 186.19,196.23 L 187.59,194.36 L 188.96,197.47 L 190.44,192.91 L 193.84,188.47 L 194.49,177.05 L 194.73,179.95 L 195.79,179.50 L 196.85,181.32 L 197.11,179.83 L 198.48,181.09 L 200.56,180.72 L 202.21,182.56 L 201.32,180.87 L 205.75,179.83 L 201.88,179.95 L 197.01,178.12 L 193.83,173.92 L 194.00,172.56 L 197.69,171.64 L 198.03,172.64 L 196.68,172.68 L 196.45,173.01 L 198.26,173.01 L 198.26,174.49 L 198.83,175.17 L 198.57,166.12 L 201.10,165.37 L 204.40,167.60 L 205.81,166.30 L 227.44,166.37 L 227.70,144.77 L 243.75,144.55 L 250.84,145.83 L 257.69,145.06 L 259.69,145.74 L 257.67,151.43 Z M 189.45,194.07 L 188.88,195.60 L 187.93,193.93 L 189.45,194.07 Z M 195.13,169.52 L 195.05,169.56 L 195.00,169.51 L 195.13,169.52 Z" fill="#E8E0D0" stroke="#B8B0A0" stroke-width="0.5"/>
<path d="M 202.40,145.63 L 205.17,147.01 L 227.21,147.01 L 227.44,166.37 L 205.81,166.30 L 204.40,167.60 L 200.65,164.15 L 198.44,165.65 L 197.45,164.15 L 195.33,164.51 L 194.51,163.34 L 196.47,159.48 L 198.94,156.60 L 199.68,156.98 L 200.12,156.92 L 201.09,156.40 L 198.82,155.66 L 202.17,150.84 L 202.00,144.09 L 202.40,145.63 Z M 187.96,122.76 L 183.57,129.89 L 179.67,128.64 L 179.53,126.18 L 181.81,125.48 L 183.26,121.12 L 187.49,120.71 L 187.96,122.76 Z" fill="#E8E0D0" stroke="#B8B0A0" stroke-width="0.5"/>
<path d="M 151.63,178.80 L 148.09,182.29 L 148.09,177.72 L 150.39,176.20 L 151.63,178.80 Z M 162.30,157.54 L 161.16,156.98 L 162.04,154.87 L 163.32,155.16 L 162.30,157.54 Z" fill="#E8E0D0" stroke="#B8B0A0" stroke-width="0.5"/>
<path d="M 251.72,261.61 L 249.67,264.67 L 245.79,266.84 L 247.21,268.63 L 246.85,277.98 L 241.91,278.60 L 240.87,276.18 L 242.22,273.68 L 238.81,266.69 L 240.09,267.26 L 240.70,266.18 L 238.59,266.25 L 241.53,262.08 L 243.76,262.25 L 244.84,259.38 L 248.76,258.61 L 251.04,255.83 L 252.83,256.17 L 256.20,259.88 L 251.72,261.61 Z M 438.10,372.25 L 436.32,376.07 L 436.32,384.61 L 437.58,388.48 L 434.85,395.20 L 437.08,398.71 L 403.63,398.71 L 403.70,451.23 L 406.48,458.39 L 409.49,459.65 L 416.63,467.88 L 426.84,475.71 L 393.82,481.90 L 390.08,480.51 L 384.20,482.18 L 376.42,479.26 L 367.07,479.84 L 352.49,478.33 L 348.39,475.66 L 345.26,471.54 L 271.21,472.10 L 263.61,467.09 L 262.92,465.24 L 257.74,464.26 L 247.82,468.96 L 242.45,468.80 L 239.89,467.38 L 234.42,469.04 L 235.48,456.42 L 234.05,446.10 L 238.30,442.12 L 239.36,435.75 L 240.83,434.68 L 243.91,422.48 L 243.87,416.81 L 245.31,413.27 L 246.75,412.88 L 246.96,405.76 L 254.07,398.40 L 253.98,395.65 L 257.94,392.08 L 261.49,391.56 L 265.57,386.22 L 268.10,378.62 L 269.00,367.39 L 267.09,361.59 L 267.76,360.15 L 263.72,355.65 L 254.92,333.87 L 254.86,332.94 L 256.41,330.52 L 257.24,330.17 L 255.20,333.70 L 258.69,328.56 L 258.26,329.37 L 261.28,328.24 L 261.26,321.47 L 252.50,303.53 L 252.23,297.66 L 247.54,293.02 L 243.23,284.13 L 251.96,283.05 L 258.04,280.14 L 313.17,280.65 L 316.67,285.66 L 316.33,290.24 L 317.36,294.28 L 320.75,299.36 L 320.30,302.51 L 324.12,306.22 L 326.43,311.62 L 331.13,317.35 L 335.57,316.45 L 339.38,317.53 L 339.74,316.09 L 346.15,315.67 L 346.30,314.59 L 360.19,315.75 L 360.19,308.65 L 362.80,307.07 L 362.94,299.15 L 375.73,299.15 L 376.15,297.77 L 380.98,297.72 L 379.48,303.87 L 400.41,303.82 L 401.66,306.91 L 399.89,315.67 L 403.04,323.28 L 400.52,339.05 L 401.96,343.21 L 406.61,347.77 L 409.15,355.02 L 409.26,361.54 L 406.71,363.05 L 407.90,369.64 L 412.26,366.20 L 420.76,367.20 L 428.07,364.85 L 434.32,365.97 L 436.54,363.38 L 438.10,372.25 Z M 234.10,460.19 L 233.50,456.78 L 233.79,456.87 L 234.10,460.19 Z" fill="#C8D8E8" stroke="#8BAABB" stroke-width="0.8"/>
<path d="M 543.28,226.86 L 545.05,226.92 L 543.28,230.28 L 544.48,231.80 L 550.06,232.38 L 549.89,236.85 L 543.55,241.90 L 542.71,245.82 L 541.56,245.85 L 536.45,253.85 L 531.97,257.02 L 526.53,256.80 L 525.46,250.88 L 523.40,247.67 L 523.73,233.51 L 519.63,229.37 L 520.38,226.44 L 524.72,226.95 L 525.47,229.86 L 531.76,229.51 L 534.71,227.28 L 535.27,221.40 L 538.33,223.30 L 542.66,221.17 L 545.58,222.79 L 543.28,226.86 Z" fill="#C8D8E8" stroke="#8BAABB" stroke-width="0.8"/>
<path d="M 425.34,9.71 L 431.19,19.28 L 430.99,28.99 L 428.37,30.77 L 427.73,33.28 L 429.91,34.02 L 428.88,38.40 L 440.68,38.72 L 441.22,40.57 L 439.34,42.91 L 439.61,44.92 L 450.32,47.20 L 454.61,51.92 L 457.22,52.45 L 458.25,55.84 L 456.36,57.16 L 456.78,58.47 L 459.59,61.22 L 470.61,66.84 L 471.69,69.60 L 476.44,72.54 L 474.65,75.66 L 478.61,79.97 L 477.21,82.18 L 483.03,83.68 L 483.74,85.13 L 488.79,87.22 L 491.06,90.39 L 491.11,95.66 L 494.04,98.80 L 487.96,96.60 L 484.54,99.35 L 482.42,98.41 L 478.50,99.19 L 473.46,96.02 L 468.71,97.15 L 462.63,93.75 L 459.65,94.82 L 458.72,99.44 L 449.17,101.35 L 443.64,97.95 L 443.67,99.38 L 441.37,101.14 L 430.26,104.39 L 427.38,106.77 L 418.84,102.91 L 415.38,108.41 L 413.77,108.71 L 412.42,113.40 L 408.99,114.44 L 399.62,111.70 L 390.90,111.73 L 385.29,109.05 L 380.46,109.69 L 376.47,103.76 L 367.96,98.37 L 361.08,97.81 L 355.68,101.48 L 350.22,109.92 L 346.72,111.13 L 348.45,115.81 L 348.12,125.25 L 345.57,122.68 L 341.87,123.63 L 340.76,125.25 L 339.11,123.82 L 335.14,124.20 L 334.33,122.92 L 328.79,121.41 L 321.35,124.24 L 315.23,124.40 L 312.35,130.57 L 312.58,135.88 L 307.62,145.66 L 305.56,134.17 L 303.22,131.54 L 301.10,131.38 L 289.50,118.47 L 288.52,116.14 L 291.23,115.53 L 289.60,114.55 L 287.99,109.71 L 283.41,106.25 L 282.44,97.25 L 280.14,95.16 L 281.76,91.76 L 281.76,85.62 L 277.95,82.73 L 284.32,78.10 L 291.80,62.68 L 295.25,60.32 L 296.05,58.10 L 303.41,58.69 L 310.78,55.63 L 311.14,53.78 L 313.73,52.35 L 314.81,55.51 L 317.60,57.81 L 331.79,50.44 L 347.51,49.40 L 356.36,38.99 L 352.15,36.10 L 354.67,33.84 L 378.06,31.31 L 379.83,28.26 L 381.92,28.59 L 384.54,26.66 L 391.67,17.41 L 393.61,17.45 L 395.91,13.68 L 399.31,12.08 L 399.38,6.44 L 411.37,0.44 L 418.22,1.75 L 425.34,9.71 Z" fill="#C8D8E8" stroke="#8BAABB" stroke-width="0.8"/>
<path d="M 347.90,131.04 L 338.95,147.11 L 338.93,157.21 L 335.54,166.08 L 336.85,176.69 L 333.06,186.20 L 333.61,191.64 L 326.30,199.80 L 321.57,201.16 L 318.44,204.01 L 313.15,214.27 L 307.87,219.16 L 308.38,237.94 L 303.19,247.96 L 296.93,250.30 L 295.69,252.88 L 291.47,254.96 L 285.30,262.86 L 282.67,264.27 L 280.14,263.29 L 278.17,264.04 L 277.34,258.61 L 279.31,256.46 L 277.94,253.93 L 270.62,257.60 L 266.82,256.85 L 266.78,260.71 L 261.48,264.03 L 256.84,258.91 L 255.43,259.49 L 252.83,256.17 L 251.04,255.83 L 248.76,258.61 L 244.84,259.38 L 243.76,262.25 L 241.61,262.00 L 238.59,266.25 L 235.45,262.36 L 235.22,258.91 L 223.76,248.29 L 225.39,244.31 L 229.86,241.19 L 233.26,244.33 L 236.86,243.42 L 235.53,242.22 L 237.51,237.77 L 233.26,235.58 L 234.76,232.83 L 232.42,229.97 L 230.66,230.53 L 232.21,226.64 L 231.25,221.61 L 234.39,223.03 L 237.41,221.60 L 239.46,223.03 L 246.03,221.62 L 246.70,217.73 L 245.50,214.22 L 246.48,214.90 L 248.90,213.24 L 251.75,214.80 L 255.12,220.73 L 254.47,222.32 L 262.58,223.46 L 267.29,217.75 L 269.98,222.11 L 268.98,223.89 L 273.03,224.42 L 275.42,222.03 L 273.99,219.87 L 275.59,215.73 L 278.11,214.60 L 278.97,210.94 L 277.58,209.70 L 279.20,208.65 L 279.61,206.34 L 278.02,199.94 L 279.65,192.93 L 276.84,190.33 L 274.18,190.51 L 273.12,187.54 L 268.74,186.36 L 270.23,183.83 L 269.40,179.69 L 270.63,177.14 L 272.79,174.00 L 276.98,172.64 L 279.29,167.80 L 276.22,164.20 L 275.71,160.87 L 273.93,159.86 L 268.14,159.15 L 263.98,161.65 L 257.47,162.10 L 259.14,160.75 L 257.13,156.53 L 257.67,151.43 L 259.86,147.09 L 278.70,147.57 L 280.84,146.30 L 284.20,148.68 L 285.72,147.84 L 286.31,149.66 L 291.61,149.11 L 293.68,151.07 L 296.08,150.16 L 299.79,150.89 L 304.87,153.56 L 305.80,155.50 L 307.28,154.16 L 305.72,150.11 L 306.06,147.29 L 308.08,146.06 L 312.58,135.88 L 312.35,130.57 L 314.55,124.84 L 324.46,123.51 L 328.79,121.41 L 334.33,122.92 L 335.14,124.20 L 339.11,123.82 L 340.76,125.25 L 341.87,123.63 L 345.57,122.68 L 348.12,125.25 L 347.90,131.04 Z" fill="#C8D8E8" stroke="#8BAABB" stroke-width="0.8"/>
<path d="M 518.04,226.97 L 517.51,223.08 L 522.08,219.42 L 522.00,213.54 L 525.52,208.12 L 533.35,204.90 L 535.74,207.26 L 538.83,205.27 L 541.98,200.65 L 544.21,200.66 L 545.59,204.83 L 548.61,206.30 L 550.27,209.76 L 549.59,214.97 L 551.09,217.51 L 550.21,221.87 L 545.03,222.77 L 542.66,221.17 L 538.33,223.30 L 535.27,221.40 L 534.71,227.28 L 531.76,229.51 L 525.47,229.86 L 524.92,227.10 L 521.72,226.01 L 520.10,228.10 L 518.04,226.97 Z" fill="#C8D8E8" stroke="#8BAABB" stroke-width="0.8"/>
<path d="M 631.41,105.27 L 630.76,106.80 L 629.27,106.28 L 627.81,103.62 L 628.62,101.57 L 625.72,101.20 L 625.98,99.47 L 623.23,100.28 L 608.92,106.28 L 594.18,120.73 L 588.78,120.50 L 586.01,118.47 L 582.03,120.41 L 575.66,121.04 L 572.61,122.89 L 572.29,124.67 L 568.35,123.24 L 565.83,119.62 L 561.62,122.28 L 555.29,120.14 L 552.03,121.90 L 550.29,125.03 L 548.76,121.97 L 545.56,123.14 L 545.09,118.77 L 539.53,117.30 L 535.24,111.45 L 532.88,110.45 L 533.03,107.35 L 528.70,105.61 L 527.42,105.46 L 523.51,110.92 L 515.79,107.38 L 509.21,111.88 L 504.11,109.62 L 503.52,107.44 L 499.52,106.69 L 499.19,103.67 L 495.25,101.26 L 491.11,95.66 L 491.06,90.39 L 488.79,87.22 L 483.74,85.13 L 483.03,83.68 L 477.21,82.18 L 478.61,79.97 L 474.65,75.66 L 476.44,72.54 L 471.69,69.60 L 470.61,66.84 L 459.59,61.22 L 456.78,58.47 L 456.36,57.16 L 458.25,55.84 L 457.22,52.45 L 454.61,51.92 L 450.32,47.20 L 439.61,44.92 L 439.34,42.91 L 441.22,40.57 L 440.00,38.41 L 446.32,35.48 L 448.33,27.40 L 450.19,24.96 L 450.26,20.01 L 453.24,17.54 L 454.90,12.24 L 467.34,10.04 L 468.62,13.99 L 480.54,25.62 L 488.07,23.53 L 501.55,23.72 L 504.04,28.10 L 517.26,28.21 L 518.42,24.82 L 527.84,20.96 L 530.01,18.42 L 530.03,16.04 L 536.61,12.51 L 549.07,21.58 L 555.67,20.92 L 563.96,13.45 L 568.56,6.12 L 575.54,0.00 L 588.06,0.00 L 588.38,4.74 L 592.37,6.29 L 601.24,14.11 L 602.17,19.41 L 600.65,25.31 L 603.78,26.05 L 604.46,39.80 L 602.13,42.80 L 598.50,44.07 L 596.33,42.55 L 589.95,42.63 L 588.74,44.19 L 589.12,47.85 L 585.89,51.57 L 587.02,53.55 L 597.91,55.88 L 602.72,59.98 L 603.17,62.63 L 605.62,64.01 L 607.26,67.12 L 610.95,68.61 L 611.30,70.89 L 614.26,72.02 L 618.74,85.65 L 620.80,89.65 L 623.50,91.48 L 623.93,93.77 L 626.93,92.83 L 632.48,94.70 L 631.61,102.39 L 634.41,106.29 L 631.41,105.27 Z" fill="#C8D8E8" stroke="#8BAABB" stroke-width="0.8"/>
<path d="M 578.08,336.59 L 576.51,334.70 L 568.48,333.33 L 568.46,331.19 L 564.09,330.87 L 561.87,327.39 L 558.80,325.46 L 554.24,325.94 L 552.28,324.85 L 543.71,309.01 L 541.27,301.60 L 537.90,297.29 L 531.55,292.80 L 528.54,287.06 L 527.72,282.56 L 529.98,277.62 L 525.20,264.60 L 526.53,256.80 L 531.97,257.02 L 536.45,253.85 L 541.56,245.85 L 542.71,245.82 L 543.55,241.90 L 549.64,237.29 L 550.17,235.61 L 550.06,232.38 L 544.48,231.80 L 543.28,230.28 L 545.05,226.92 L 543.22,227.26 L 544.81,223.83 L 550.21,221.87 L 551.09,217.51 L 549.59,214.97 L 550.15,209.41 L 548.61,206.30 L 545.59,204.83 L 544.36,200.53 L 546.97,200.77 L 549.26,199.31 L 602.61,199.59 L 651.91,227.30 L 651.91,374.91 L 649.30,375.02 L 646.08,377.47 L 639.03,377.14 L 638.50,375.10 L 632.85,372.36 L 628.71,375.54 L 618.58,375.02 L 617.29,371.73 L 615.29,371.23 L 612.77,367.19 L 613.79,361.39 L 612.23,357.86 L 611.49,349.62 L 607.88,344.24 L 602.82,340.23 L 601.15,344.22 L 598.22,342.00 L 593.33,342.62 L 591.03,340.48 L 578.08,336.59 Z" fill="#C8D8E8" stroke="#8BAABB" stroke-width="0.8"/>
<path d="M 541.98,200.65 L 538.83,205.27 L 535.38,207.40 L 533.50,204.92 L 529.41,205.99 L 529.03,198.36 L 531.48,181.75 L 535.41,174.68 L 535.52,169.27 L 538.96,167.87 L 540.35,164.10 L 544.31,162.40 L 557.44,148.05 L 555.89,144.74 L 553.87,144.95 L 552.42,143.03 L 550.83,144.25 L 548.16,142.38 L 550.52,135.60 L 548.71,132.25 L 551.46,126.64 L 551.24,124.54 L 550.29,125.03 L 552.03,121.90 L 556.51,120.02 L 561.62,122.28 L 565.83,119.62 L 568.35,123.24 L 572.29,124.67 L 572.61,122.89 L 575.66,121.04 L 582.03,120.41 L 586.01,118.47 L 588.78,120.50 L 594.18,120.73 L 602.71,113.16 L 604.02,118.61 L 606.01,118.65 L 605.14,120.30 L 609.89,122.09 L 608.92,125.25 L 609.80,130.15 L 617.11,139.95 L 617.90,141.84 L 616.94,144.00 L 619.27,151.14 L 618.71,155.50 L 615.51,159.91 L 615.82,162.51 L 610.67,164.99 L 609.04,169.41 L 605.09,172.94 L 604.02,177.19 L 600.85,181.13 L 601.84,185.51 L 601.03,199.59 L 549.26,199.31 L 541.98,200.65 Z" fill="#C8D8E8" stroke="#8BAABB" stroke-width="0.8"/>
<path d="M 585.84,342.74 L 588.96,342.30 L 591.74,346.11 L 591.09,349.96 L 594.89,352.74 L 597.22,358.48 L 594.35,361.67 L 589.91,363.56 L 592.53,368.23 L 589.87,372.41 L 589.58,374.86 L 590.97,375.35 L 591.26,378.31 L 590.24,384.41 L 591.84,387.54 L 594.78,387.99 L 591.86,390.93 L 586.47,392.26 L 585.08,394.87 L 586.28,397.31 L 586.03,402.05 L 582.96,407.45 L 580.48,408.58 L 582.25,409.42 L 582.14,411.59 L 583.98,412.31 L 586.06,416.12 L 588.38,414.04 L 589.41,415.51 L 539.95,431.57 L 543.19,442.34 L 529.56,442.76 L 518.72,447.87 L 517.48,449.48 L 517.48,454.92 L 515.89,457.31 L 500.26,464.40 L 496.29,471.09 L 488.65,479.71 L 481.77,482.81 L 473.69,479.72 L 468.93,481.65 L 464.91,478.53 L 459.18,479.03 L 454.24,474.71 L 448.40,473.24 L 440.72,473.03 L 426.84,475.71 L 405.76,457.50 L 403.66,450.87 L 403.63,398.71 L 437.08,398.71 L 434.85,395.20 L 437.58,388.48 L 436.32,384.61 L 436.32,376.07 L 438.10,372.25 L 436.54,363.38 L 438.97,364.16 L 439.13,366.22 L 443.21,367.16 L 443.57,370.13 L 441.80,371.82 L 444.47,373.19 L 448.87,370.91 L 458.77,368.73 L 459.34,376.16 L 461.83,378.38 L 463.92,377.59 L 469.87,380.48 L 477.05,380.63 L 482.06,382.31 L 485.87,380.59 L 487.13,375.38 L 489.72,374.95 L 490.61,378.93 L 493.70,380.80 L 497.30,386.97 L 500.92,386.45 L 502.61,388.20 L 510.29,390.74 L 512.28,396.79 L 515.01,396.86 L 519.74,405.26 L 522.89,405.94 L 529.35,402.43 L 530.92,403.35 L 530.06,405.68 L 532.54,406.29 L 533.07,384.65 L 527.69,386.12 L 528.11,389.61 L 520.42,388.38 L 515.72,381.96 L 511.70,379.98 L 509.18,374.10 L 512.47,362.76 L 514.87,359.58 L 512.72,352.55 L 514.85,345.45 L 511.83,338.59 L 509.12,336.82 L 518.07,328.42 L 518.01,323.73 L 548.85,318.93 L 553.51,325.68 L 558.80,325.46 L 561.87,327.39 L 564.09,330.87 L 568.46,331.19 L 568.48,333.33 L 576.51,334.70 L 578.08,336.59 L 584.75,339.08 L 585.84,342.74 Z" fill="#C8D8E8" stroke="#8BAABB" stroke-width="0.8"/>
<path d="M 348.45,115.81 L 346.72,111.13 L 350.22,109.92 L 355.68,101.48 L 361.08,97.81 L 367.96,98.37 L 376.47,103.76 L 380.46,109.69 L 385.29,109.05 L 390.90,111.73 L 399.62,111.70 L 408.99,114.44 L 412.42,113.40 L 413.77,108.71 L 415.38,108.41 L 418.84,102.91 L 427.38,106.77 L 430.26,104.39 L 441.37,101.14 L 443.67,99.38 L 443.64,97.95 L 449.17,101.35 L 458.72,99.44 L 459.65,94.82 L 462.63,93.75 L 468.71,97.15 L 473.46,96.02 L 478.50,99.19 L 482.42,98.41 L 484.54,99.35 L 487.96,96.60 L 491.73,97.79 L 499.06,103.50 L 499.52,106.69 L 503.52,107.44 L 504.11,109.62 L 509.60,112.00 L 515.79,107.38 L 523.51,110.92 L 527.42,105.46 L 530.08,105.93 L 533.03,107.35 L 532.88,110.45 L 535.24,111.45 L 539.53,117.30 L 545.09,118.77 L 545.39,123.00 L 548.76,121.97 L 550.29,125.03 L 551.24,124.54 L 551.46,126.64 L 548.71,132.25 L 550.52,135.60 L 548.16,142.38 L 550.83,144.25 L 552.42,143.03 L 553.87,144.95 L 555.89,144.74 L 557.44,148.05 L 544.31,162.40 L 540.35,164.10 L 538.96,167.87 L 535.52,169.27 L 535.41,174.68 L 531.48,181.75 L 529.03,198.36 L 529.41,205.99 L 523.71,210.48 L 522.00,213.54 L 522.08,219.42 L 517.63,222.65 L 517.48,224.74 L 518.04,226.97 L 520.32,228.50 L 519.76,229.65 L 523.73,233.51 L 523.40,247.67 L 525.46,250.88 L 526.65,257.67 L 525.20,264.60 L 529.98,277.62 L 527.72,282.56 L 528.74,287.71 L 531.55,292.80 L 537.90,297.29 L 541.27,301.60 L 548.85,318.93 L 518.01,323.73 L 518.07,328.42 L 509.12,336.82 L 511.83,338.59 L 514.85,345.45 L 512.72,352.55 L 514.87,359.58 L 512.47,362.76 L 509.25,374.35 L 511.70,379.98 L 515.72,381.96 L 520.42,388.38 L 528.11,389.61 L 527.69,386.12 L 533.07,384.65 L 532.79,406.25 L 530.06,405.68 L 530.92,403.35 L 529.35,402.43 L 522.89,405.94 L 519.74,405.26 L 515.01,396.86 L 512.28,396.79 L 510.29,390.74 L 502.61,388.20 L 500.92,386.45 L 497.30,386.97 L 493.70,380.80 L 490.61,378.93 L 489.72,374.95 L 487.13,375.38 L 485.87,380.59 L 482.06,382.31 L 477.05,380.63 L 469.87,380.48 L 463.92,377.59 L 461.83,378.38 L 459.34,376.16 L 458.77,368.73 L 448.87,370.91 L 445.20,373.16 L 441.94,372.12 L 443.57,370.13 L 443.21,367.16 L 439.13,366.22 L 438.97,364.16 L 437.10,363.40 L 434.32,365.97 L 428.07,364.85 L 420.76,367.20 L 412.26,366.20 L 407.90,369.64 L 406.71,363.05 L 409.26,361.54 L 409.15,355.02 L 406.61,347.77 L 401.96,343.21 L 400.52,339.05 L 403.04,323.28 L 399.89,315.67 L 401.66,306.91 L 400.41,303.82 L 379.48,303.87 L 380.98,297.72 L 376.15,297.77 L 375.73,299.15 L 362.94,299.15 L 362.80,307.07 L 360.19,308.65 L 360.19,315.75 L 346.30,314.59 L 346.15,315.67 L 339.74,316.09 L 339.38,317.53 L 335.57,316.45 L 331.13,317.35 L 326.43,311.62 L 324.12,306.22 L 320.30,302.51 L 320.75,299.36 L 317.36,294.28 L 316.33,290.24 L 316.67,285.66 L 313.80,280.90 L 270.60,279.89 L 260.65,280.71 L 253.26,279.45 L 251.12,280.29 L 250.39,282.18 L 245.87,283.38 L 246.00,282.22 L 244.99,282.62 L 242.56,279.68 L 242.72,278.15 L 246.85,277.98 L 247.21,268.63 L 245.79,266.84 L 249.67,264.67 L 251.72,261.61 L 256.06,260.35 L 256.44,258.95 L 261.48,264.03 L 266.78,260.71 L 266.82,256.85 L 270.62,257.60 L 277.94,253.93 L 279.31,256.46 L 277.34,258.61 L 278.17,264.04 L 280.14,263.29 L 282.67,264.27 L 285.30,262.86 L 291.47,254.96 L 295.69,252.88 L 296.93,250.30 L 303.19,247.96 L 308.38,237.94 L 307.87,219.16 L 313.15,214.27 L 318.44,204.01 L 321.57,201.16 L 326.30,199.80 L 333.61,191.64 L 333.06,186.20 L 336.85,176.69 L 335.54,166.08 L 338.93,157.21 L 338.95,147.11 L 347.90,131.04 L 348.45,115.81 Z M 254.89,280.34 L 250.76,281.53 L 252.14,280.40 L 254.89,280.34 Z" fill="#4A90D9" stroke="#1a5fa8" stroke-width="1.2"/>
<path d="M 559.67,151.18 L 557.85,154.54 L 552.07,157.77 L 546.40,165.83 L 544.64,165.79 L 544.80,162.78 L 542.79,161.21 L 544.65,157.91 L 556.87,147.82 L 560.81,142.99 L 559.01,145.26 L 559.67,151.18 Z" fill="#A8C8E8" stroke="none"/>
<path d="M 617.40,415.47 L 616.34,418.71 L 614.35,419.84 L 611.74,416.59 L 613.12,410.36 L 607.99,405.26 L 608.10,397.05 L 605.70,392.41 L 605.44,388.68 L 603.27,386.58 L 603.75,382.13 L 607.99,376.12 L 605.64,358.49 L 607.10,356.22 L 601.08,346.04 L 602.82,340.23 L 607.88,344.24 L 611.30,349.05 L 613.79,361.39 L 612.77,367.19 L 618.52,373.77 L 618.44,379.00 L 617.00,382.80 L 614.11,385.21 L 614.01,389.19 L 616.28,393.96 L 615.11,397.39 L 616.80,410.19 L 620.31,411.12 L 623.93,420.86 L 622.88,421.67 L 617.40,415.47 Z M 614.86,383.57 L 615.14,382.82 L 614.68,382.60 L 614.86,383.57 Z" fill="#A8C8E8" stroke="none"/>
<path d="M 547.59,323.70 L 545.47,325.37 L 545.78,324.05 L 544.18,324.15 L 543.88,322.29 L 545.83,320.74 L 546.07,318.04 L 540.85,312.99 L 538.52,303.24 L 532.91,299.90 L 528.93,295.32 L 527.91,291.05 L 523.12,283.82 L 522.81,281.16 L 525.15,279.47 L 526.01,276.04 L 521.44,267.06 L 521.71,259.53 L 523.18,257.90 L 524.14,251.31 L 523.72,250.11 L 522.13,255.12 L 520.54,254.43 L 521.58,253.05 L 522.07,239.82 L 523.25,238.29 L 525.29,238.75 L 526.02,247.46 L 530.68,255.96 L 529.66,264.34 L 532.78,266.03 L 533.47,268.31 L 532.11,273.08 L 535.62,279.90 L 535.51,281.16 L 532.00,283.27 L 531.63,286.62 L 535.62,290.94 L 539.02,290.30 L 545.74,298.39 L 545.66,300.81 L 544.58,300.94 L 546.40,304.63 L 546.05,307.55 L 552.20,317.56 L 552.47,320.06 L 555.36,322.78 L 556.17,327.72 L 553.37,328.97 L 547.59,323.70 Z" fill="#A8C8E8" stroke="none"/>
<path d="M 596.88,207.36 L 597.34,208.43 L 596.20,208.94 L 597.79,210.50 L 595.05,210.76 L 596.67,212.41 L 592.10,212.90 L 590.74,214.85 L 593.70,214.18 L 595.17,216.62 L 590.72,216.15 L 589.50,218.05 L 596.08,219.18 L 598.46,217.57 L 599.94,219.80 L 592.80,223.90 L 593.14,225.32 L 589.50,224.65 L 587.39,222.60 L 583.98,224.06 L 584.06,227.83 L 586.45,230.79 L 584.39,229.42 L 582.01,232.94 L 582.69,231.24 L 581.43,230.57 L 583.53,229.82 L 583.96,228.24 L 582.69,226.68 L 583.37,224.64 L 580.65,224.74 L 580.42,222.46 L 577.82,225.21 L 578.62,223.37 L 575.65,223.32 L 575.48,221.60 L 573.13,220.31 L 572.14,222.59 L 570.60,222.54 L 572.10,225.28 L 569.99,223.95 L 568.42,226.01 L 569.76,228.76 L 567.84,226.68 L 565.91,229.67 L 565.76,227.00 L 567.16,226.11 L 565.44,226.43 L 564.86,225.09 L 566.14,223.82 L 565.45,221.56 L 563.44,222.06 L 564.65,216.22 L 563.09,216.20 L 567.42,199.96 L 566.59,199.28 L 565.67,200.34 L 565.68,197.29 L 564.52,196.22 L 566.97,190.78 L 570.12,188.36 L 568.18,185.18 L 570.66,184.60 L 569.77,183.69 L 572.62,184.09 L 572.92,183.65 L 572.71,182.73 L 572.95,182.34 L 574.30,183.24 L 573.74,182.10 L 575.78,183.36 L 575.55,181.53 L 576.91,180.98 L 576.75,182.39 L 578.73,182.22 L 580.19,178.12 L 580.45,180.10 L 581.78,180.07 L 580.54,181.43 L 584.29,179.71 L 584.42,181.68 L 585.83,181.28 L 587.58,179.86 L 587.24,178.59 L 588.15,179.35 L 590.52,176.76 L 589.16,175.85 L 592.12,174.71 L 591.32,177.11 L 593.82,177.11 L 594.25,178.47 L 592.68,178.01 L 594.04,179.83 L 595.44,179.90 L 596.69,177.59 L 598.46,177.66 L 597.79,179.60 L 599.13,179.03 L 599.60,180.40 L 602.31,178.54 L 602.55,183.63 L 603.69,184.72 L 604.85,184.03 L 604.17,185.76 L 606.74,187.14 L 607.38,189.53 L 609.02,187.68 L 608.33,186.09 L 614.81,184.38 L 616.48,188.08 L 610.04,188.70 L 610.98,190.72 L 609.63,191.67 L 609.00,190.33 L 605.74,189.96 L 603.56,192.22 L 603.23,195.08 L 605.64,197.41 L 600.51,203.80 L 601.52,204.16 L 602.38,205.69 L 599.18,205.09 L 601.18,208.38 L 596.88,207.36 Z M 604.59,190.05 L 605.28,190.19 L 605.99,189.71 L 606.30,188.93 L 604.59,190.05 Z M 602.90,191.33 L 603.64,190.83 L 603.12,190.13 L 601.73,190.65 L 602.90,191.33 Z M 566.37,213.15 L 567.01,212.49 L 566.94,212.05 L 566.37,213.15 Z M 566.60,218.31 L 565.79,217.47 L 565.60,218.15 L 566.60,218.31 Z M 567.98,221.48 L 566.37,219.18 L 565.91,221.47 L 566.99,223.69 L 567.98,221.48 Z M 568.51,210.54 L 567.72,209.69 L 567.16,209.86 L 567.16,211.91 L 568.51,210.54 Z M 569.93,220.02 L 568.75,221.91 L 570.13,221.97 L 569.93,220.02 Z M 574.30,187.91 L 572.26,188.36 L 572.36,186.93 L 570.34,187.23 L 573.61,189.54 L 572.33,190.18 L 571.79,191.89 L 574.19,190.75 L 574.30,187.91 Z M 575.63,187.43 L 574.94,186.34 L 574.41,186.32 L 575.63,187.43 Z M 576.35,188.93 L 575.62,188.50 L 575.41,189.17 L 576.35,188.93 Z M 576.69,220.55 L 576.81,223.05 L 577.89,222.72 L 578.30,221.56 L 576.69,220.55 Z M 577.85,189.33 L 577.02,190.06 L 576.93,191.28 L 577.85,189.33 Z M 582.13,183.82 L 582.93,182.63 L 582.57,182.34 L 582.13,183.82 Z M 581.67,183.58 L 582.01,184.38 L 580.42,184.60 L 582.81,184.72 L 581.67,183.58 Z M 586.45,214.29 L 587.56,213.64 L 587.58,212.82 L 586.15,212.91 L 586.45,214.29 Z M 587.80,215.59 L 583.16,214.97 L 584.39,215.77 L 583.63,217.34 L 589.15,218.33 L 587.80,215.59 Z M 588.80,180.51 L 588.93,181.19 L 589.05,181.01 L 588.80,180.51 Z M 590.87,181.90 L 590.20,182.13 L 590.30,182.78 L 590.87,181.90 Z M 590.01,178.01 L 590.40,179.78 L 589.50,179.83 L 591.67,181.63 L 591.33,179.45 L 592.46,178.78 L 590.01,178.01 Z M 597.96,184.60 L 596.88,185.28 L 597.90,185.75 L 597.96,184.60 Z M 600.62,181.90 L 600.67,181.65 L 599.07,181.03 L 600.62,181.90 Z" fill="#A8C8E8" stroke="none"/>
<path d="M 624.57,425.71 L 623.77,427.85 L 622.32,426.66 L 622.37,424.54 L 623.43,423.65 L 624.57,425.71 Z" fill="#A8C8E8" stroke="none"/>
<path d="M 519.97,332.11 L 515.18,337.35 L 515.21,339.70 L 511.92,339.38 L 511.57,338.36 L 510.89,340.07 L 512.03,340.76 L 508.50,340.97 L 508.74,334.03 L 517.68,323.93 L 521.95,326.02 L 519.97,332.11 Z" fill="#A8C8E8" stroke="none"/>
<path d="M 536.20,367.54 L 536.01,366.68 L 534.71,367.59 L 535.53,370.08 L 533.48,372.46 L 529.20,371.87 L 531.42,366.22 L 529.09,369.73 L 528.17,369.53 L 527.79,368.50 L 528.35,369.41 L 531.79,364.35 L 531.99,365.42 L 533.01,363.94 L 531.65,366.34 L 535.16,362.92 L 537.01,365.10 L 536.20,367.54 Z" fill="#A8C8E8" stroke="none"/>
<path d="M 520.80,222.53 L 520.31,220.89 L 517.24,223.95 L 517.22,222.34 L 519.39,220.53 L 517.92,221.56 L 518.62,220.34 L 517.58,220.44 L 517.47,218.50 L 519.30,217.03 L 518.89,215.88 L 517.92,216.33 L 521.38,210.68 L 521.21,209.75 L 520.08,211.00 L 520.82,209.28 L 524.06,211.11 L 525.36,216.99 L 520.80,222.53 Z M 520.57,215.67 L 520.08,220.44 L 521.40,219.80 L 521.49,215.41 L 520.57,215.67 Z" fill="#A8C8E8" stroke="none"/>
<path d="M 525.97,194.40 L 524.96,191.21 L 528.01,185.96 L 531.97,184.10 L 533.47,185.64 L 534.77,185.28 L 533.59,188.93 L 525.97,194.40 Z" fill="#A8C8E8" stroke="none"/>
<path d="M 588.72,155.84 L 588.64,155.90 L 588.62,155.88 L 588.72,155.84 Z" fill="#A8C8E8" stroke="none"/>
<path d="M 587.63,157.94 L 590.63,158.30 L 588.59,159.49 L 589.42,160.03 L 591.56,159.33 L 590.52,162.78 L 584.39,159.03 L 583.37,159.49 L 584.06,161.42 L 583.26,159.70 L 581.49,159.73 L 582.36,161.29 L 578.40,158.88 L 578.50,157.67 L 580.77,158.22 L 582.92,156.40 L 582.92,157.43 L 585.77,157.43 L 587.84,155.58 L 590.22,154.87 L 590.59,155.84 L 593.31,153.51 L 594.14,155.42 L 587.63,157.94 Z M 581.94,158.94 L 581.34,158.69 L 581.94,159.20 L 583.83,159.02 L 581.94,158.94 Z" fill="#A8C8E8" stroke="none"/>
<path d="M 568.12,308.52 L 568.22,308.52 L 568.21,308.53 L 568.12,308.52 Z M 578.42,317.74 L 571.38,314.63 L 568.95,315.76 L 566.14,309.69 L 568.83,308.57 L 578.42,317.74 Z" fill="#A8C8E8" stroke="none"/>
<path d="M 631.40,242.60 L 633.44,239.45 L 633.49,244.02 L 631.40,245.37 L 631.40,242.60 Z" fill="#A8C8E8" stroke="none"/>
<path d="M 338.02,199.09 L 336.31,196.55 L 336.76,194.94 L 334.60,194.84 L 334.60,193.71 L 339.72,194.50 L 340.45,199.28 L 338.96,199.50 L 339.03,198.58 L 338.02,199.09 Z" fill="#A8C8E8" stroke="none"/>
<path d="M 574.87,155.72 L 577.37,157.20 L 573.40,155.27 L 578.96,155.14 L 582.26,152.08 L 584.52,152.66 L 586.44,150.98 L 585.31,152.30 L 586.28,152.69 L 585.88,154.48 L 583.03,152.54 L 582.69,154.21 L 578.45,155.98 L 574.87,155.72 Z" fill="#A8C8E8" stroke="none"/>
<path d="M 209.61,199.61 L 206.76,199.56 L 207.56,199.86 L 205.51,201.68 L 204.81,201.51 L 206.65,199.51 L 205.18,199.51 L 205.06,195.98 L 206.41,197.91 L 207.28,197.12 L 207.86,198.97 L 209.56,198.62 L 209.61,199.61 Z" fill="#A8C8E8" stroke="none"/>
<path d="M 342.66,223.62 L 341.75,227.59 L 340.74,227.94 L 342.90,218.16 L 340.84,216.45 L 340.56,213.32 L 338.57,212.32 L 339.03,210.66 L 341.08,211.80 L 341.40,209.41 L 343.12,210.66 L 346.30,209.07 L 345.28,211.45 L 342.77,212.48 L 342.47,215.51 L 343.79,216.45 L 345.07,215.69 L 344.72,219.16 L 347.38,217.38 L 342.66,223.62 Z" fill="#A8C8E8" stroke="none"/>
<path d="M 485.94,363.94 L 487.63,363.04 L 486.44,362.18 L 486.39,361.90 L 488.66,363.04 L 490.05,362.10 L 487.47,366.11 L 485.94,363.94 Z" fill="#A8C8E8" stroke="none"/>
<path d="M 534.82,205.42 L 533.72,202.87 L 535.28,203.82 L 535.85,205.19 L 534.82,205.42 Z" fill="#A8C8E8" stroke="none"/>
<path d="M 532.38,328.51 L 531.15,329.17 L 529.96,328.13 L 534.26,325.16 L 532.38,328.51 Z" fill="#A8C8E8" stroke="none"/>
<path d="M 478.17,326.98 L 474.58,327.56 L 474.36,326.08 L 476.38,324.58 L 479.13,324.38 L 478.17,326.98 Z" fill="#A8C8E8" stroke="none"/>
<path d="M 252.87,75.36 L 251.30,76.28 L 253.79,78.04 L 254.06,76.28 L 255.26,76.10 L 255.00,78.10 L 252.22,78.50 L 248.73,75.82 L 250.39,74.71 L 252.87,75.36 Z" fill="#A8C8E8" stroke="none"/>
<path d="M 516.22,461.98 L 514.52,459.70 L 510.60,461.98 L 511.12,463.33 L 509.57,460.90 L 505.22,462.51 L 504.12,464.85 L 505.34,464.70 L 505.00,465.62 L 504.08,466.41 L 502.60,465.44 L 500.80,467.78 L 498.22,468.40 L 496.26,473.00 L 492.54,475.04 L 487.16,481.39 L 488.95,478.93 L 488.20,478.02 L 492.88,473.79 L 491.94,472.37 L 493.65,469.66 L 497.27,465.72 L 498.53,466.06 L 497.62,465.49 L 498.75,463.67 L 501.14,463.28 L 499.60,462.51 L 499.88,461.83 L 501.96,461.16 L 502.95,462.55 L 504.46,462.26 L 504.65,460.83 L 506.61,459.91 L 506.02,459.03 L 508.73,458.33 L 508.15,457.37 L 509.87,458.45 L 514.24,456.41 L 519.42,458.40 L 516.22,461.98 Z" fill="#A8C8E8" stroke="none"/>
<path d="M 580.88,441.99 L 576.91,441.50 L 571.63,444.12 L 558.53,443.01 L 555.58,446.17 L 556.49,443.89 L 554.42,443.93 L 549.58,442.53 L 555.29,443.67 L 558.43,441.97 L 570.45,442.29 L 575.33,440.47 L 580.88,441.99 Z" fill="#A8C8E8" stroke="none"/>
<path d="M 647.35,141.69 L 644.96,143.22 L 642.02,135.72 L 639.81,133.49 L 637.82,133.37 L 638.17,129.63 L 634.86,127.54 L 634.73,124.19 L 634.37,125.18 L 632.96,121.22 L 635.52,106.03 L 636.25,107.85 L 636.44,106.01 L 638.81,106.21 L 639.77,114.17 L 638.73,117.20 L 640.12,120.66 L 639.40,127.82 L 642.35,132.99 L 647.13,135.14 L 647.35,141.69 Z" fill="#A8C8E8" stroke="none"/>
<path d="M 651.75,105.96 L 647.84,108.67 L 648.96,102.78 L 650.30,103.62 L 651.91,101.95 L 651.91,103.37 L 651.75,105.96 Z" fill="#A8C8E8" stroke="none"/>
<path d="M 615.95,244.54 L 614.75,244.26 L 616.13,242.97 L 619.34,242.45 L 624.18,238.59 L 624.78,240.18 L 622.39,243.43 L 615.12,245.64 L 615.95,244.54 Z" fill="#A8C8E8" stroke="none"/>
<path d="M 635.14,219.42 L 636.09,217.94 L 637.67,220.58 L 636.34,225.07 L 634.80,225.82 L 635.72,224.35 L 635.14,219.42 Z" fill="#A8C8E8" stroke="none"/>
</svg>