<svg xmlns="http://www.w3.org/2000/svg" width="800" height="500" viewBox="0 0 800 500">
<rect width="800" height="500" fill="#A8C8E8"/>
<path d="M 730.29,13.29 L 729.07,7.62 L 736.83,2.33 L 741.55,5.65 L 743.76,4.90 L 746.91,2.01 L 746.78,0.00 L 800.00,0.00 L 800.00,110.38 L 775.38,109.21 L 772.73,108.14 L 767.76,102.39 L 769.14,94.70 L 760.34,92.83 L 755.56,93.77 L 754.89,91.48 L 750.60,89.65 L 747.33,85.65 L 740.21,72.02 L 735.51,70.89 L 734.96,68.61 L 729.10,67.12 L 726.49,64.01 L 722.60,62.63 L 721.89,59.98 L 714.26,55.88 L 696.97,53.55 L 695.17,51.57 L 700.30,47.85 L 699.69,44.19 L 701.62,42.63 L 711.74,42.55 L 714.91,44.10 L 724.09,40.96 L 723.58,26.05 L 730.29,13.29 Z" fill="#E8E0D0" stroke="#B8B0A0" stroke-width="0.5"/>
<path d="M 767.44,105.27 L 772.21,106.29 L 775.38,109.21 L 800.00,110.38 L 800.00,227.46 L 719.20,199.59 L 720.50,185.51 L 718.92,181.13 L 723.96,177.19 L 725.65,172.94 L 731.92,169.41 L 734.52,164.99 L 742.69,162.51 L 742.20,159.91 L 747.29,155.50 L 748.18,151.14 L 744.47,144.00 L 746.00,141.84 L 744.74,139.95 L 733.13,130.15 L 731.74,125.25 L 733.28,122.09 L 725.73,120.30 L 727.11,118.65 L 723.95,118.61 L 721.12,112.93 L 731.74,106.28 L 758.82,99.47 L 758.42,101.20 L 763.01,101.57 L 761.73,103.62 L 764.06,106.28 L 767.44,105.27 Z" fill="#E8E0D0" stroke="#B8B0A0" stroke-width="0.5"/>
<path d="M 737.93,375.10 L 736.54,379.29 L 731.15,384.66 L 734.72,393.50 L 736.05,404.09 L 738.56,406.86 L 744.41,407.25 L 750.22,410.37 L 770.28,426.08 L 771.77,430.00 L 768.62,434.73 L 770.10,438.80 L 768.64,449.17 L 761.53,451.32 L 757.85,450.81 L 751.47,457.40 L 756.16,462.59 L 756.02,466.80 L 754.18,467.31 L 749.74,466.89 L 751.11,462.30 L 745.52,460.77 L 732.93,453.02 L 732.35,449.46 L 727.85,446.65 L 736.58,436.81 L 734.91,424.84 L 730.76,421.71 L 723.05,423.50 L 714.37,423.41 L 712.38,425.27 L 702.80,416.29 L 699.12,414.04 L 695.43,416.12 L 692.13,412.31 L 689.21,411.59 L 689.39,409.42 L 686.59,408.58 L 690.52,407.45 L 695.39,402.05 L 695.79,397.31 L 693.89,394.87 L 696.09,392.26 L 704.65,390.93 L 709.29,387.99 L 704.62,387.54 L 702.08,384.41 L 703.69,378.31 L 703.24,375.35 L 701.02,374.86 L 701.49,372.41 L 705.71,368.23 L 701.55,363.56 L 708.60,361.67 L 713.16,358.48 L 709.45,352.74 L 703.43,349.96 L 704.46,346.11 L 700.05,342.30 L 695.09,342.74 L 693.76,338.81 L 699.98,340.79 L 703.33,340.48 L 706.97,342.62 L 714.74,342.00 L 719.40,344.22 L 722.05,340.23 L 730.08,344.24 L 735.82,349.62 L 736.99,357.86 L 739.46,361.39 L 737.85,367.19 L 741.84,371.23 L 745.02,371.73 L 747.08,375.02 L 737.93,375.10 Z M 741.76,382.76 L 739.83,384.16 L 738.96,383.36 L 739.97,382.10 L 741.76,382.76 Z M 738.21,381.88 L 737.78,383.30 L 736.02,382.28 L 738.21,381.88 Z" fill="#E8E0D0" stroke="#B8B0A0" stroke-width="0.5"/>
<path d="M 155.28,496.67 L 144.29,490.05 L 138.11,480.93 L 136.03,474.13 L 137.01,469.49 L 145.76,467.38 L 149.83,468.80 L 158.36,468.96 L 174.10,464.26 L 182.34,465.24 L 183.44,467.09 L 195.51,472.10 L 313.08,471.54 L 318.05,475.66 L 324.55,478.33 L 347.71,479.84 L 362.56,479.26 L 374.92,482.18 L 384.25,480.51 L 390.18,481.90 L 464.66,473.03 L 486.13,474.71 L 491.98,478.25 L 483.93,478.15 L 473.70,482.54 L 468.08,480.93 L 448.61,489.59 L 440.28,481.65 L 379.36,486.96 L 379.41,500.00 L 157.96,500.00 L 155.28,496.67 Z" fill="#E8E0D0" stroke="#B8B0A0" stroke-width="0.5"/>
<path d="M 429.71,0.00 L 678.74,0.00 L 667.65,6.12 L 660.34,13.45 L 647.19,20.92 L 636.70,21.58 L 616.92,12.51 L 606.47,16.04 L 606.43,18.42 L 602.99,20.96 L 588.03,24.82 L 586.19,28.21 L 565.20,28.10 L 561.25,23.72 L 539.84,23.53 L 527.89,25.62 L 508.95,13.99 L 506.93,10.04 L 487.18,12.24 L 484.53,17.54 L 479.80,20.01 L 479.70,24.96 L 476.75,27.40 L 473.55,35.48 L 461.87,38.88 L 445.47,38.04 L 447.50,34.02 L 444.04,33.28 L 445.05,30.77 L 449.20,28.99 L 449.53,19.28 L 440.24,9.71 L 428.93,1.75 L 429.71,0.00 Z M 746.91,2.01 L 743.76,4.90 L 741.55,5.65 L 736.83,2.33 L 729.07,7.62 L 730.29,13.29 L 723.58,26.05 L 718.60,25.31 L 721.02,19.41 L 719.54,14.11 L 705.46,6.29 L 699.12,4.74 L 698.62,0.00 L 746.78,0.00 L 746.91,2.01 Z" fill="#E8E0D0" stroke="#B8B0A0" stroke-width="0.5"/>
<path d="M 189.57,0.13 L 183.89,6.69 L 181.16,14.46 L 175.78,16.25 L 174.87,24.60 L 165.93,27.32 L 167.06,29.24 L 163.76,37.60 L 158.11,40.14 L 153.14,40.08 L 154.06,41.95 L 149.42,43.78 L 148.50,50.85 L 143.95,54.86 L 144.00,57.23 L 136.52,62.42 L 140.09,65.47 L 131.93,68.84 L 131.18,72.68 L 126.88,75.82 L 120.15,76.18 L 118.13,71.09 L 106.09,64.62 L 103.91,68.87 L 96.42,68.79 L 94.63,66.66 L 87.58,70.31 L 85.32,70.19 L 82.81,74.57 L 73.56,78.17 L 64.14,85.11 L 60.80,85.91 L 59.84,88.30 L 62.07,90.10 L 59.31,97.33 L 52.23,104.81 L 43.08,100.12 L 47.60,105.80 L 45.89,107.47 L 26.70,107.85 L 26.34,104.77 L 25.22,107.07 L 19.41,106.60 L 20.78,107.79 L 19.41,108.19 L 13.91,103.99 L 16.87,107.96 L 13.18,109.33 L 13.18,105.91 L 11.04,104.44 L 11.74,106.48 L 9.41,105.23 L 12.64,109.97 L 11.22,110.36 L 8.57,109.94 L 6.38,103.01 L 4.55,102.72 L 8.63,110.59 L 4.55,110.69 L 5.09,106.48 L 4.01,109.55 L 2.93,108.08 L 3.81,110.99 L 1.84,110.98 L 1.40,108.57 L 0.21,108.19 L 0.71,111.02 L 0.00,111.08 L 0.00,0.00 L 189.75,0.00 L 189.57,0.13 Z M 27.39,108.53 L 23.37,109.36 L 20.88,108.94 L 27.39,108.53 Z M 20.76,108.41 L 19.86,109.69 L 15.65,109.98 L 18.05,107.73 L 19.23,108.41 L 20.76,108.41 Z" fill="#E8E0D0" stroke="#B8B0A0" stroke-width="0.5"/>
<path d="M 491.86,481.68 L 509.88,496.95 L 510.09,499.97 L 510.11,500.00 L 379.41,500.00 L 379.36,486.96 L 440.28,481.65 L 448.61,489.59 L 468.08,480.93 L 473.70,482.54 L 483.93,478.15 L 491.98,478.25 L 491.86,481.68 Z" fill="#E8E0D0" stroke="#B8B0A0" stroke-width="0.5"/>
<path d="M 498.73,479.38 L 503.07,478.53 L 509.45,481.65 L 517.01,479.72 L 529.84,482.81 L 538.28,480.98 L 552.90,471.09 L 559.20,464.40 L 585.27,456.54 L 586.54,449.48 L 588.52,447.87 L 605.73,442.76 L 627.00,442.43 L 627.16,448.49 L 649.70,448.86 L 653.50,451.17 L 661.55,452.09 L 666.79,455.59 L 676.78,455.97 L 686.81,458.43 L 688.37,460.24 L 694.61,459.78 L 690.93,463.99 L 696.00,470.80 L 693.77,473.34 L 696.08,475.34 L 693.53,481.21 L 694.25,485.92 L 696.56,487.50 L 692.04,490.55 L 692.87,494.52 L 687.32,495.51 L 687.05,497.51 L 691.65,499.65 L 691.51,500.00 L 510.11,500.00 L 510.09,499.97 L 509.88,496.95 L 491.86,481.68 L 491.98,478.25 L 498.73,479.38 Z" fill="#E8E0D0" stroke="#B8B0A0" stroke-width="0.5"/>
<path d="M 428.93,1.75 L 418.05,0.44 L 399.01,6.44 L 398.91,12.08 L 393.50,13.68 L 389.85,17.45 L 386.77,17.41 L 375.44,26.66 L 371.28,28.59 L 367.97,28.26 L 365.17,31.31 L 328.02,33.84 L 324.02,36.10 L 330.71,38.99 L 316.65,49.40 L 291.69,50.44 L 269.76,57.77 L 264.73,55.51 L 263.01,52.35 L 258.90,53.78 L 258.34,55.63 L 246.62,58.69 L 234.95,58.10 L 237.10,53.64 L 233.89,52.86 L 227.13,42.24 L 205.21,30.80 L 194.64,23.01 L 200.79,17.36 L 216.32,18.30 L 240.21,17.15 L 225.77,8.03 L 223.58,0.00 L 429.94,0.00 L 428.93,1.75 Z" fill="#E8E0D0" stroke="#B8B0A0" stroke-width="0.5"/>
<path d="M 691.65,499.65 L 687.05,497.51 L 687.32,495.51 L 692.87,494.52 L 692.04,490.55 L 696.56,487.50 L 694.25,485.92 L 693.53,481.21 L 696.08,475.34 L 693.77,473.34 L 696.00,470.80 L 690.93,463.99 L 694.61,459.78 L 688.37,460.24 L 686.81,458.43 L 676.78,455.97 L 666.79,455.59 L 661.55,452.09 L 653.50,451.17 L 649.70,448.86 L 627.16,448.49 L 626.91,439.86 L 622.22,431.57 L 700.76,415.51 L 712.38,425.27 L 714.37,423.41 L 723.05,423.50 L 730.76,421.71 L 735.34,425.36 L 736.68,436.38 L 727.85,446.65 L 732.35,449.46 L 732.93,453.02 L 745.52,460.77 L 751.11,462.30 L 749.74,466.89 L 755.68,467.21 L 755.32,460.10 L 751.47,457.40 L 757.85,450.81 L 761.53,451.32 L 768.64,449.17 L 770.10,438.80 L 768.62,434.73 L 771.77,430.00 L 770.28,426.08 L 750.22,410.37 L 744.41,407.25 L 738.56,406.86 L 736.05,404.09 L 734.72,393.50 L 731.03,385.40 L 737.93,375.10 L 761.98,375.67 L 769.73,372.36 L 778.71,375.10 L 779.54,377.14 L 790.74,377.47 L 795.85,375.02 L 800.00,374.91 L 800.00,481.73 L 797.63,479.69 L 796.18,479.63 L 799.98,482.44 L 786.72,490.90 L 785.00,494.69 L 780.55,493.18 L 781.31,496.45 L 778.15,496.61 L 777.54,494.95 L 770.49,497.45 L 766.58,500.00 L 691.51,500.00 L 691.65,499.65 Z M 738.96,383.36 L 739.83,384.16 L 741.76,382.76 L 739.97,382.10 L 738.96,383.36 Z M 736.02,382.28 L 737.78,383.30 L 738.21,381.88 L 736.02,382.28 Z" fill="#E8E0D0" stroke="#B8B0A0" stroke-width="0.5"/>
<path d="M 90.64,147.01 L 85.91,145.37 L 89.71,132.33 L 89.02,128.66 L 81.47,124.22 L 86.14,122.75 L 81.05,123.21 L 78.94,119.57 L 81.00,120.72 L 80.92,118.65 L 84.16,119.57 L 82.37,118.08 L 84.69,117.28 L 80.86,117.23 L 84.43,114.32 L 79.82,116.36 L 77.17,114.72 L 78.59,116.75 L 76.11,116.07 L 77.13,117.97 L 73.62,117.97 L 73.17,116.04 L 70.13,117.17 L 63.84,114.90 L 62.90,107.39 L 60.57,105.96 L 61.12,107.54 L 59.30,106.60 L 59.03,107.59 L 55.53,104.32 L 57.30,108.06 L 51.72,107.83 L 54.14,101.95 L 59.31,97.33 L 62.07,90.10 L 59.84,88.30 L 60.52,86.19 L 73.56,78.17 L 82.81,74.57 L 85.32,70.19 L 87.58,70.31 L 94.63,66.66 L 96.42,68.79 L 103.91,68.87 L 106.09,64.62 L 118.13,71.09 L 119.71,75.93 L 123.88,76.25 L 131.18,72.68 L 131.93,68.84 L 140.09,65.47 L 136.52,62.42 L 144.00,57.23 L 143.95,54.86 L 148.50,50.85 L 149.42,43.78 L 154.06,41.95 L 153.14,40.08 L 158.11,40.14 L 164.33,37.11 L 167.06,29.24 L 165.93,27.32 L 174.87,24.60 L 175.78,16.25 L 181.16,14.46 L 183.89,6.69 L 189.57,0.13 L 189.75,0.00 L 223.60,0.00 L 225.94,8.35 L 240.21,17.15 L 216.32,18.30 L 200.79,17.36 L 194.60,22.77 L 205.21,30.80 L 223.67,39.51 L 233.89,52.86 L 237.10,53.64 L 233.68,60.32 L 228.19,62.68 L 216.32,78.10 L 206.20,82.73 L 212.25,85.62 L 212.25,91.76 L 209.68,95.16 L 213.34,97.25 L 214.87,106.25 L 222.14,109.71 L 224.70,114.55 L 227.29,115.53 L 222.99,116.14 L 224.53,118.47 L 251.02,135.44 L 250.96,141.29 L 254.05,146.06 L 251.33,146.55 L 250.26,149.50 L 252.68,154.42 L 250.42,155.50 L 248.95,153.56 L 240.88,150.89 L 235.00,150.16 L 231.17,151.07 L 227.89,149.11 L 219.48,149.66 L 218.54,147.84 L 216.12,148.68 L 210.79,146.30 L 207.40,147.57 L 177.48,147.09 L 177.21,145.74 L 174.04,145.06 L 163.16,145.83 L 134.44,144.41 L 126.41,144.77 L 125.63,147.01 L 90.64,147.01 Z" fill="#E8E0D0" stroke="#B8B0A0" stroke-width="0.5"/>
<path d="M 174.00,151.43 L 173.14,156.53 L 176.34,160.75 L 173.68,162.10 L 184.02,161.65 L 190.62,159.15 L 199.82,159.86 L 202.65,160.87 L 203.45,164.20 L 208.32,167.80 L 204.66,172.64 L 198.01,174.00 L 194.58,177.14 L 192.63,179.69 L 193.95,183.83 L 191.58,186.36 L 198.53,187.54 L 200.22,190.51 L 204.45,190.33 L 208.90,192.93 L 206.32,199.70 L 208.84,206.34 L 208.19,208.65 L 205.61,209.70 L 207.81,210.94 L 206.65,214.37 L 202.33,215.85 L 199.91,219.87 L 202.18,222.03 L 198.38,224.42 L 191.96,223.89 L 193.55,222.11 L 189.27,217.75 L 181.80,223.46 L 168.92,222.32 L 169.95,220.73 L 164.60,214.80 L 160.07,213.24 L 156.24,214.90 L 154.67,214.22 L 156.58,217.73 L 155.52,221.62 L 145.09,223.03 L 141.83,221.60 L 137.04,223.03 L 132.05,221.61 L 133.57,226.64 L 131.11,230.53 L 133.90,229.97 L 137.62,232.83 L 135.23,235.58 L 141.99,237.77 L 138.85,242.22 L 140.96,243.42 L 135.24,244.33 L 129.85,241.19 L 122.75,244.31 L 120.16,248.29 L 116.21,244.21 L 107.87,240.24 L 107.58,237.94 L 88.31,227.77 L 83.08,223.50 L 85.49,224.46 L 86.67,223.72 L 90.28,226.58 L 94.99,225.65 L 94.49,224.90 L 90.46,225.44 L 87.58,222.94 L 84.36,223.95 L 83.62,222.43 L 83.08,223.37 L 80.29,221.99 L 79.46,219.34 L 71.72,214.10 L 76.88,214.86 L 78.87,217.32 L 78.20,214.92 L 74.44,213.14 L 73.54,214.29 L 71.31,213.41 L 70.38,209.17 L 65.03,204.79 L 64.16,203.38 L 65.10,204.61 L 68.78,207.31 L 71.55,208.43 L 71.96,210.75 L 79.30,209.63 L 76.59,207.36 L 72.13,208.94 L 71.13,207.55 L 73.38,206.16 L 73.41,204.25 L 73.08,205.70 L 69.47,206.36 L 65.38,204.51 L 65.46,202.76 L 61.11,199.17 L 62.17,199.69 L 62.90,198.94 L 60.38,198.26 L 56.59,192.69 L 60.50,196.23 L 62.73,194.36 L 64.89,197.47 L 67.24,192.91 L 72.65,188.47 L 73.67,177.05 L 74.06,179.95 L 75.75,179.50 L 77.42,181.32 L 77.85,179.83 L 80.02,181.09 L 83.32,180.72 L 85.94,182.56 L 84.53,180.87 L 91.55,179.83 L 85.42,179.95 L 77.68,178.12 L 72.63,173.92 L 72.90,172.56 L 78.76,171.64 L 79.29,172.64 L 77.15,172.68 L 76.79,173.01 L 79.66,173.01 L 79.66,174.49 L 80.57,175.17 L 80.15,166.12 L 84.18,165.37 L 89.41,167.60 L 91.65,166.30 L 126.00,166.37 L 126.41,144.77 L 151.90,144.55 L 163.16,145.83 L 174.04,145.06 L 177.21,145.74 L 174.00,151.43 Z M 65.68,194.07 L 64.77,195.60 L 63.26,193.93 L 65.68,194.07 Z M 74.69,169.52 L 74.57,169.56 L 74.50,169.51 L 74.69,169.52 Z" fill="#E8E0D0" stroke="#B8B0A0" stroke-width="0.5"/>
<path d="M 86.24,145.63 L 90.64,147.01 L 125.63,147.01 L 126.00,166.37 L 91.65,166.30 L 89.41,167.60 L 83.46,164.15 L 79.95,165.65 L 78.39,164.15 L 75.01,164.51 L 73.71,163.34 L 76.82,159.48 L 80.75,156.60 L 81.92,156.98 L 82.62,156.92 L 84.16,156.40 L 80.55,155.66 L 85.88,150.84 L 85.61,144.09 L 86.24,145.63 Z M 63.31,122.76 L 56.34,129.89 L 50.14,128.64 L 49.93,126.18 L 53.54,125.48 L 55.84,121.12 L 62.56,120.71 L 63.31,122.76 Z" fill="#E8E0D0" stroke="#B8B0A0" stroke-width="0.5"/>
<path d="M 5.62,178.80 L 0.00,182.29 L 0.00,177.72 L 3.65,176.20 L 5.62,178.80 Z M 22.57,157.54 L 20.76,156.98 L 22.15,154.87 L 24.19,155.16 L 22.57,157.54 Z" fill="#E8E0D0" stroke="#B8B0A0" stroke-width="0.5"/>
<path d="M 164.55,261.61 L 161.29,264.67 L 155.13,266.84 L 157.40,268.63 L 156.83,277.98 L 148.98,278.60 L 147.32,276.18 L 149.47,273.68 L 144.06,266.69 L 146.09,267.26 L 147.05,266.18 L 143.70,266.25 L 148.38,262.08 L 151.91,262.25 L 153.62,259.38 L 159.84,258.61 L 163.47,255.83 L 166.31,256.17 L 171.67,259.88 L 164.55,261.61 Z M 460.49,372.25 L 457.68,376.07 L 457.67,384.61 L 459.68,388.48 L 455.34,395.20 L 458.89,398.71 L 405.77,398.71 L 405.87,451.23 L 410.28,458.39 L 415.07,459.65 L 426.41,467.88 L 442.62,475.71 L 390.18,481.90 L 384.25,480.51 L 374.92,482.18 L 362.56,479.26 L 347.71,479.84 L 324.55,478.33 L 318.05,475.66 L 313.08,471.54 L 195.51,472.10 L 183.44,467.09 L 182.34,465.24 L 174.10,464.26 L 158.36,468.96 L 149.83,468.80 L 145.76,467.38 L 137.09,469.04 L 138.77,456.42 L 136.50,446.10 L 143.24,442.12 L 144.93,435.75 L 147.27,434.68 L 152.16,422.48 L 152.09,416.81 L 154.37,413.27 L 156.65,412.88 L 156.99,405.76 L 168.28,398.40 L 168.14,395.65 L 174.43,392.08 L 180.06,391.56 L 186.55,386.22 L 190.56,378.62 L 191.98,367.39 L 188.96,361.59 L 190.02,360.15 L 183.60,355.65 L 169.64,333.87 L 169.53,332.94 L 172.00,330.52 L 173.32,330.17 L 170.08,333.70 L 175.62,328.56 L 174.94,329.37 L 179.72,328.24 L 179.69,321.47 L 165.79,303.53 L 165.36,297.66 L 157.92,293.02 L 151.08,284.13 L 164.93,283.05 L 174.59,280.14 L 262.13,280.65 L 267.69,285.66 L 267.15,290.24 L 268.78,294.28 L 274.17,299.36 L 273.44,302.51 L 279.51,306.22 L 283.18,311.62 L 290.65,317.35 L 297.69,316.45 L 303.74,317.53 L 304.32,316.09 L 314.50,315.67 L 314.74,314.59 L 336.79,315.75 L 336.79,308.65 L 340.93,307.07 L 341.16,299.15 L 361.46,299.15 L 362.13,297.77 L 369.80,297.72 L 367.41,303.87 L 400.65,303.82 L 402.64,306.91 L 399.83,315.67 L 404.82,323.28 L 400.83,339.05 L 403.12,343.21 L 410.50,347.77 L 414.54,355.02 L 414.70,361.54 L 410.65,363.05 L 412.55,369.64 L 419.47,366.20 L 432.96,367.20 L 444.57,364.85 L 454.50,365.97 L 458.01,363.38 L 460.49,372.25 Z M 136.57,460.19 L 135.61,456.78 L 136.08,456.87 L 136.57,460.19 Z" fill="#C8D8E8" stroke="#8BAABB" stroke-width="0.8"/>
<path d="M 627.51,226.86 L 630.32,226.92 L 627.51,230.28 L 629.42,231.80 L 638.28,232.38 L 638.00,236.85 L 627.94,241.90 L 626.61,245.82 L 624.77,245.85 L 616.66,253.85 L 609.56,257.02 L 600.92,256.80 L 599.22,250.88 L 595.95,247.67 L 596.46,233.51 L 589.95,229.37 L 591.15,226.44 L 598.03,226.95 L 599.22,229.86 L 609.22,229.51 L 613.90,227.28 L 614.78,221.40 L 619.65,223.30 L 626.53,221.17 L 631.16,222.79 L 627.51,226.86 Z" fill="#C8D8E8" stroke="#8BAABB" stroke-width="0.8"/>
<path d="M 440.24,9.71 L 449.53,19.28 L 449.20,28.99 L 445.05,30.77 L 444.04,33.28 L 447.50,34.02 L 445.86,38.40 L 464.59,38.72 L 465.45,40.57 L 462.47,42.91 L 462.89,44.92 L 479.90,47.20 L 486.71,51.92 L 490.86,52.45 L 492.50,55.84 L 489.50,57.16 L 490.16,58.47 L 494.62,61.22 L 512.13,66.84 L 513.84,69.60 L 521.38,72.54 L 518.54,75.66 L 524.82,79.97 L 522.61,82.18 L 531.85,83.68 L 532.96,85.13 L 540.98,87.22 L 544.59,90.39 L 544.68,95.66 L 549.32,98.80 L 539.66,96.60 L 534.23,99.35 L 530.88,98.41 L 524.65,99.19 L 516.65,96.02 L 509.10,97.15 L 499.45,93.75 L 494.71,94.82 L 493.24,99.44 L 478.07,101.35 L 469.29,97.95 L 469.35,99.38 L 465.68,101.14 L 448.04,104.39 L 443.48,106.77 L 429.91,102.91 L 424.42,108.41 L 421.87,108.71 L 419.72,113.40 L 414.27,114.44 L 399.39,111.70 L 385.56,111.73 L 376.64,109.05 L 368.98,109.69 L 362.64,103.76 L 349.12,98.37 L 338.19,97.81 L 329.63,101.48 L 320.96,109.92 L 315.40,111.13 L 318.15,115.81 L 317.62,125.25 L 313.57,122.68 L 307.69,123.63 L 305.93,125.25 L 303.31,123.82 L 297.01,124.20 L 295.72,122.92 L 286.94,121.41 L 275.12,124.24 L 265.40,124.40 L 260.82,130.57 L 261.18,135.88 L 253.31,145.66 L 250.04,134.17 L 246.33,131.54 L 242.95,131.38 L 224.53,118.47 L 222.99,116.14 L 227.29,115.53 L 224.70,114.55 L 222.14,109.71 L 214.87,106.25 L 213.34,97.25 L 209.68,95.16 L 212.25,91.76 L 212.25,85.62 L 206.20,82.73 L 216.32,78.10 L 228.19,62.68 L 233.68,60.32 L 234.95,58.10 L 246.62,58.69 L 258.34,55.63 L 258.90,53.78 L 263.01,52.35 L 264.73,55.51 L 269.15,57.81 L 291.69,50.44 L 316.65,49.40 L 330.71,38.99 L 324.02,36.10 L 328.02,33.84 L 365.17,31.31 L 367.97,28.26 L 371.28,28.59 L 375.44,26.66 L 386.77,17.41 L 389.85,17.45 L 393.50,13.68 L 398.91,12.08 L 399.01,6.44 L 418.05,0.44 L 428.93,1.75 L 440.24,9.71 Z" fill="#C8D8E8" stroke="#8BAABB" stroke-width="0.8"/>
<path d="M 317.27,131.04 L 303.06,147.11 L 303.03,157.21 L 297.65,166.08 L 299.73,176.69 L 293.70,186.20 L 294.58,191.64 L 282.97,199.80 L 275.47,201.16 L 270.49,204.01 L 262.10,214.27 L 253.70,219.16 L 254.52,237.94 L 246.28,247.96 L 236.33,250.30 L 234.37,252.88 L 227.66,254.96 L 217.87,262.86 L 213.70,264.27 L 209.68,263.29 L 206.55,264.04 L 205.24,258.61 L 208.37,256.46 L 206.19,253.93 L 194.56,257.60 L 188.53,256.85 L 188.46,260.71 L 180.05,264.03 L 172.69,258.91 L 170.45,259.49 L 166.31,256.17 L 163.47,255.83 L 159.84,258.61 L 153.62,259.38 L 151.91,262.25 L 148.50,262.00 L 143.70,266.25 L 138.72,262.36 L 138.36,258.91 L 120.16,248.29 L 122.75,244.31 L 129.85,241.19 L 135.24,244.33 L 140.96,243.42 L 138.85,242.22 L 141.99,237.77 L 135.23,235.58 L 137.62,232.83 L 133.90,229.97 L 131.11,230.53 L 133.57,226.64 L 132.05,221.61 L 137.04,223.03 L 141.83,221.60 L 145.09,223.03 L 155.52,221.62 L 156.58,217.73 L 154.67,214.22 L 156.24,214.90 L 160.07,213.24 L 164.60,214.80 L 169.95,220.73 L 168.92,222.32 L 181.80,223.46 L 189.27,217.75 L 193.55,222.11 L 191.96,223.89 L 198.38,224.42 L 202.18,222.03 L 199.91,219.87 L 202.46,215.73 L 206.46,214.60 L 207.81,210.94 L 205.61,209.70 L 208.19,208.65 L 208.84,206.34 L 206.32,199.94 L 208.90,192.93 L 204.45,190.33 L 200.22,190.51 L 198.53,187.54 L 191.58,186.36 L 193.95,183.83 L 192.63,179.69 L 194.58,177.14 L 198.01,174.00 L 204.66,172.64 L 208.32,167.80 L 203.45,164.20 L 202.65,160.87 L 199.82,159.86 L 190.62,159.15 L 184.02,161.65 L 173.68,162.10 L 176.34,160.75 L 173.14,156.53 L 174.00,151.43 L 177.48,147.09 L 207.40,147.57 L 210.79,146.30 L 216.12,148.68 L 218.54,147.84 L 219.48,149.66 L 227.89,149.11 L 231.17,151.07 L 235.00,150.16 L 240.88,150.89 L 248.95,153.56 L 250.42,155.50 L 252.77,154.16 L 250.29,150.11 L 250.84,147.29 L 254.05,146.06 L 261.18,135.88 L 260.82,130.57 L 264.32,124.84 L 280.06,123.51 L 286.94,121.41 L 295.72,122.92 L 297.01,124.20 L 303.31,123.82 L 305.93,125.25 L 307.69,123.63 L 313.57,122.68 L 317.62,125.25 L 317.27,131.04 Z" fill="#C8D8E8" stroke="#8BAABB" stroke-width="0.8"/>
<path d="M 587.44,226.97 L 586.58,223.08 L 593.84,219.42 L 593.72,213.54 L 599.30,208.12 L 611.75,204.90 L 615.54,207.26 L 620.45,205.27 L 625.45,200.65 L 628.98,200.66 L 631.18,204.83 L 635.97,206.30 L 638.61,209.76 L 637.53,214.97 L 639.92,217.51 L 638.51,221.87 L 630.29,222.77 L 626.53,221.17 L 619.65,223.30 L 614.78,221.40 L 613.90,227.28 L 609.22,229.51 L 599.22,229.86 L 598.35,227.10 L 593.28,226.01 L 590.70,228.10 L 587.44,226.97 Z" fill="#C8D8E8" stroke="#8BAABB" stroke-width="0.8"/>
<path d="M 767.44,105.27 L 766.41,106.80 L 764.06,106.28 L 761.73,103.62 L 763.01,101.57 L 758.42,101.20 L 758.82,99.47 L 754.46,100.28 L 731.74,106.28 L 708.33,120.73 L 699.76,120.50 L 695.36,118.47 L 689.03,120.41 L 678.92,121.04 L 674.09,122.89 L 673.57,124.67 L 667.31,123.24 L 663.31,119.62 L 656.63,122.28 L 646.58,120.14 L 641.40,121.90 L 638.65,125.03 L 636.21,121.97 L 631.13,123.14 L 630.39,118.77 L 621.56,117.30 L 614.75,111.45 L 611.00,110.45 L 611.24,107.35 L 604.36,105.61 L 602.32,105.46 L 596.11,110.92 L 583.87,107.38 L 573.40,111.88 L 565.32,109.62 L 564.38,107.44 L 558.03,106.69 L 557.51,103.67 L 551.25,101.26 L 544.68,95.66 L 544.59,90.39 L 540.98,87.22 L 532.96,85.13 L 531.85,83.68 L 522.61,82.18 L 524.82,79.97 L 518.54,75.66 L 521.38,72.54 L 513.84,69.60 L 512.13,66.84 L 494.62,61.22 L 490.16,58.47 L 489.50,57.16 L 492.50,55.84 L 490.86,52.45 L 486.71,51.92 L 479.90,47.20 L 462.89,44.92 L 462.47,42.91 L 465.45,40.57 L 463.52,38.41 L 473.55,35.48 L 476.75,27.40 L 479.70,24.96 L 479.80,20.01 L 484.53,17.54 L 487.18,12.24 L 506.93,10.04 L 508.95,13.99 L 527.89,25.62 L 539.84,23.53 L 561.25,23.72 L 565.20,28.10 L 586.19,28.21 L 588.03,24.82 L 602.99,20.96 L 606.43,18.42 L 606.47,16.04 L 616.92,12.51 L 636.70,21.58 L 647.19,20.92 L 660.34,13.45 L 667.65,6.12 L 678.74,0.00 L 698.62,0.00 L 699.12,4.74 L 705.46,6.29 L 719.54,14.11 L 721.02,19.41 L 718.60,25.31 L 723.58,26.05 L 724.66,39.80 L 720.95,42.80 L 715.20,44.07 L 711.74,42.55 L 701.62,42.63 L 699.69,44.19 L 700.30,47.85 L 695.17,51.57 L 696.97,53.55 L 714.26,55.88 L 721.89,59.98 L 722.60,62.63 L 726.49,64.01 L 729.10,67.12 L 734.96,68.61 L 735.51,70.89 L 740.21,72.02 L 747.33,85.65 L 750.60,89.65 L 754.89,91.48 L 755.56,93.77 L 760.34,92.83 L 769.14,94.70 L 767.76,102.39 L 772.21,106.29 L 767.44,105.27 Z" fill="#C8D8E8" stroke="#8BAABB" stroke-width="0.8"/>
<path d="M 682.77,336.59 L 680.28,334.70 L 667.52,333.33 L 667.48,331.19 L 660.55,330.87 L 657.03,327.39 L 652.15,325.46 L 644.91,325.94 L 641.80,324.85 L 628.19,309.01 L 624.32,301.60 L 618.97,297.29 L 608.88,292.80 L 604.11,287.06 L 602.81,282.56 L 606.39,277.62 L 598.80,264.60 L 600.92,256.80 L 609.56,257.02 L 616.66,253.85 L 624.77,245.85 L 626.61,245.82 L 627.94,241.90 L 637.60,237.29 L 638.45,235.61 L 638.28,232.38 L 629.42,231.80 L 627.51,230.28 L 630.32,226.92 L 627.41,227.26 L 629.93,223.83 L 638.51,221.87 L 639.92,217.51 L 637.53,214.97 L 638.42,209.41 L 635.97,206.30 L 631.18,204.83 L 629.22,200.53 L 633.37,200.77 L 637.01,199.31 L 721.72,199.59 L 800.00,227.30 L 800.00,374.91 L 795.85,375.02 L 790.74,377.47 L 779.54,377.14 L 778.71,375.10 L 769.73,372.36 L 763.15,375.54 L 747.08,375.02 L 745.02,371.73 L 741.84,371.23 L 737.85,367.19 L 739.46,361.39 L 736.99,357.86 L 735.82,349.62 L 730.08,344.24 L 722.05,340.23 L 719.40,344.22 L 714.74,342.00 L 706.97,342.62 L 703.33,340.48 L 682.77,336.59 Z" fill="#C8D8E8" stroke="#8BAABB" stroke-width="0.8"/>
<path d="M 625.45,200.65 L 620.45,205.27 L 614.96,207.40 L 611.98,204.92 L 605.49,205.99 L 604.87,198.36 L 608.77,181.75 L 615.02,174.68 L 615.19,169.27 L 620.65,167.87 L 622.86,164.10 L 629.15,162.40 L 650.00,148.05 L 647.53,144.74 L 644.32,144.95 L 642.02,143.03 L 639.49,144.25 L 635.26,142.38 L 639.01,135.60 L 636.13,132.25 L 640.50,126.64 L 640.14,124.54 L 638.65,125.03 L 641.40,121.90 L 648.51,120.02 L 656.63,122.28 L 663.31,119.62 L 667.31,123.24 L 673.57,124.67 L 674.09,122.89 L 678.92,121.04 L 689.03,120.41 L 695.36,118.47 L 699.76,120.50 L 708.33,120.73 L 721.88,113.16 L 723.95,118.61 L 727.11,118.65 L 725.73,120.30 L 733.28,122.09 L 731.74,125.25 L 733.13,130.15 L 744.74,139.95 L 746.00,141.84 L 744.47,144.00 L 748.18,151.14 L 747.29,155.50 L 742.20,159.91 L 742.69,162.51 L 734.52,164.99 L 731.92,169.41 L 725.65,172.94 L 723.96,177.19 L 718.92,181.13 L 720.50,185.51 L 719.20,199.59 L 637.01,199.31 L 625.45,200.65 Z" fill="#C8D8E8" stroke="#8BAABB" stroke-width="0.8"/>
<path d="M 695.09,342.74 L 700.05,342.30 L 704.46,346.11 L 703.43,349.96 L 709.45,352.74 L 713.16,358.48 L 708.60,361.67 L 701.55,363.56 L 705.71,368.23 L 701.49,372.41 L 701.02,374.86 L 703.24,375.35 L 703.69,378.31 L 702.08,384.41 L 704.62,387.54 L 709.29,387.99 L 704.65,390.93 L 696.09,392.26 L 693.89,394.87 L 695.79,397.31 L 695.39,402.05 L 690.52,407.45 L 686.59,408.58 L 689.39,409.42 L 689.21,411.59 L 692.13,412.31 L 695.43,416.12 L 699.12,414.04 L 700.76,415.51 L 622.22,431.57 L 627.37,442.34 L 605.73,442.76 L 588.52,447.87 L 586.54,449.48 L 586.54,454.92 L 584.02,457.31 L 559.20,464.40 L 552.90,471.09 L 540.76,479.71 L 529.84,482.81 L 517.01,479.72 L 509.45,481.65 L 503.07,478.53 L 493.97,479.03 L 486.13,474.71 L 476.86,473.24 L 464.66,473.03 L 442.62,475.71 L 409.14,457.50 L 405.81,450.87 L 405.77,398.71 L 458.89,398.71 L 455.34,395.20 L 459.68,388.48 L 457.67,384.61 L 457.68,376.07 L 460.49,372.25 L 458.01,363.38 L 461.87,364.16 L 462.13,366.22 L 468.61,367.16 L 469.18,370.13 L 466.37,371.82 L 470.61,373.19 L 477.60,370.91 L 493.31,368.73 L 494.22,376.16 L 498.18,378.38 L 501.49,377.59 L 510.94,380.48 L 522.34,380.63 L 530.30,382.31 L 536.35,380.59 L 538.35,375.38 L 542.46,374.95 L 543.88,378.93 L 548.78,380.80 L 554.50,386.97 L 560.24,386.45 L 562.92,388.20 L 575.12,390.74 L 578.28,396.79 L 582.62,396.86 L 590.14,405.26 L 595.13,405.94 L 605.39,402.43 L 607.88,403.35 L 606.52,405.68 L 610.46,406.29 L 611.30,384.65 L 602.76,386.12 L 603.43,389.61 L 591.22,388.38 L 583.75,381.96 L 577.36,379.98 L 573.36,374.10 L 578.58,362.76 L 582.40,359.58 L 578.99,352.55 L 582.37,345.45 L 577.57,338.59 L 573.27,336.82 L 587.48,328.42 L 587.38,323.73 L 636.35,318.93 L 643.75,325.68 L 652.15,325.46 L 657.03,327.39 L 660.55,330.87 L 667.48,331.19 L 667.52,333.33 L 680.28,334.70 L 682.77,336.59 L 693.35,339.08 L 695.09,342.74 Z" fill="#C8D8E8" stroke="#8BAABB" stroke-width="0.8"/>
<path d="M 318.15,115.81 L 315.40,111.13 L 320.96,109.92 L 329.63,101.48 L 338.19,97.81 L 349.12,98.37 L 362.64,103.76 L 368.98,109.69 L 376.64,109.05 L 385.56,111.73 L 399.39,111.70 L 414.27,114.44 L 419.72,113.40 L 421.87,108.71 L 424.42,108.41 L 429.91,102.91 L 443.48,106.77 L 448.04,104.39 L 465.68,101.14 L 469.35,99.38 L 469.29,97.95 L 478.07,101.35 L 493.24,99.44 L 494.71,94.82 L 499.45,93.75 L 509.10,97.15 L 516.65,96.02 L 524.65,99.19 L 530.88,98.41 L 534.23,99.35 L 539.66,96.60 L 545.66,97.79 L 557.29,103.50 L 558.03,106.69 L 564.38,107.44 L 565.32,109.62 L 574.04,112.00 L 583.87,107.38 L 596.11,110.92 L 602.32,105.46 L 606.55,105.93 L 611.24,107.35 L 611.00,110.45 L 614.75,111.45 L 621.56,117.30 L 630.39,118.77 L 630.85,123.00 L 636.21,121.97 L 638.65,125.03 L 640.14,124.54 L 640.50,126.64 L 636.13,132.25 L 639.01,135.60 L 635.26,142.38 L 639.49,144.25 L 642.02,143.03 L 644.32,144.95 L 647.53,144.74 L 650.00,148.05 L 629.15,162.40 L 622.86,164.10 L 620.65,167.87 L 615.19,169.27 L 615.02,174.68 L 608.77,181.75 L 604.87,198.36 L 605.49,205.99 L 596.43,210.48 L 593.72,213.54 L 593.84,219.42 L 586.78,222.65 L 586.54,224.74 L 587.44,226.97 L 591.05,228.50 L 590.16,229.65 L 596.46,233.51 L 595.95,247.67 L 599.22,250.88 L 601.10,257.67 L 598.80,264.60 L 606.39,277.62 L 602.81,282.56 L 604.43,287.71 L 608.88,292.80 L 618.97,297.29 L 624.32,301.60 L 636.35,318.93 L 587.38,323.73 L 587.48,328.42 L 573.27,336.82 L 577.57,338.59 L 582.37,345.45 L 578.99,352.55 L 582.40,359.58 L 578.58,362.76 L 573.48,374.35 L 577.36,379.98 L 583.75,381.96 L 591.22,388.38 L 603.43,389.61 L 602.76,386.12 L 611.30,384.65 L 610.86,406.25 L 606.52,405.68 L 607.88,403.35 L 605.39,402.43 L 595.13,405.94 L 590.14,405.26 L 582.62,396.86 L 578.28,396.79 L 575.12,390.74 L 562.92,388.20 L 560.24,386.45 L 554.50,386.97 L 548.78,380.80 L 543.88,378.93 L 542.46,374.95 L 538.35,375.38 L 536.35,380.59 L 530.30,382.31 L 522.34,380.63 L 510.94,380.48 L 501.49,377.59 L 498.18,378.38 L 494.22,376.16 L 493.31,368.73 L 477.60,370.91 L 471.77,373.16 L 466.60,372.12 L 469.18,370.13 L 468.61,367.16 L 462.13,366.22 L 461.87,364.16 L 458.91,363.40 L 454.50,365.97 L 444.57,364.85 L 432.96,367.20 L 419.47,366.20 L 412.55,369.64 L 410.65,363.05 L 414.70,361.54 L 414.54,355.02 L 410.50,347.77 L 403.12,343.21 L 400.83,339.05 L 404.82,323.28 L 399.83,315.67 L 402.64,306.91 L 400.65,303.82 L 367.41,303.87 L 369.80,297.72 L 362.13,297.77 L 361.46,299.15 L 341.16,299.15 L 340.93,307.07 L 336.79,308.65 L 336.79,315.75 L 314.74,314.59 L 314.50,315.67 L 304.32,316.09 L 303.74,317.53 L 297.69,316.45 L 290.65,317.35 L 283.18,311.62 L 279.51,306.22 L 273.44,302.51 L 274.17,299.36 L 268.78,294.28 L 267.15,290.24 L 267.69,285.66 L 263.12,280.90 L 194.53,279.89 L 178.74,280.71 L 167.00,279.45 L 163.59,280.29 L 162.44,282.18 L 155.26,283.38 L 155.47,282.22 L 153.87,282.62 L 150.00,279.68 L 150.25,278.15 L 156.83,277.98 L 157.40,268.63 L 155.13,266.84 L 161.29,264.67 L 164.55,261.61 L 171.45,260.35 L 172.05,258.95 L 180.05,264.03 L 188.46,260.71 L 188.53,256.85 L 194.56,257.60 L 206.19,253.93 L 208.37,256.46 L 205.24,258.61 L 206.55,264.04 L 209.68,263.29 L 213.70,264.27 L 217.87,262.86 L 227.66,254.96 L 234.37,252.88 L 236.33,250.30 L 246.28,247.96 L 254.52,237.94 L 253.70,219.16 L 262.10,214.27 L 270.49,204.01 L 275.47,201.16 L 282.97,199.80 L 294.58,191.64 L 293.70,186.20 L 299.73,176.69 L 297.65,166.08 L 303.03,157.21 L 303.06,147.11 L 317.27,131.04 L 318.15,115.81 Z M 169.59,280.34 L 163.03,281.53 L 165.22,280.40 L 169.59,280.34 Z" fill="#4A90D9" stroke="#1a5fa8" stroke-width="1.2"/>
<path d="M 653.54,151.18 L 650.64,154.54 L 641.46,157.77 L 632.46,165.83 L 629.66,165.79 L 629.93,162.78 L 626.72,161.21 L 629.69,157.91 L 649.09,147.82 L 655.34,142.99 L 652.49,145.26 L 653.54,151.18 Z" fill="#A8C8E8" stroke="none"/>
<path d="M 745.21,415.47 L 743.51,418.71 L 740.36,419.84 L 736.21,416.59 L 738.40,410.36 L 730.26,405.26 L 730.43,397.05 L 726.62,392.41 L 726.22,388.68 L 722.76,386.58 L 723.53,382.13 L 730.26,376.12 L 726.54,358.49 L 728.84,356.22 L 719.29,346.04 L 722.05,340.23 L 730.08,344.24 L 735.51,349.05 L 739.46,361.39 L 737.85,367.19 L 746.97,373.77 L 746.85,379.00 L 744.57,382.80 L 739.98,385.21 L 739.82,389.19 L 743.42,393.96 L 741.56,397.39 L 744.25,410.19 L 749.82,411.12 L 755.57,420.86 L 753.91,421.67 L 745.21,415.47 Z M 741.17,383.57 L 741.62,382.82 L 740.88,382.60 L 741.17,383.57 Z" fill="#A8C8E8" stroke="none"/>
<path d="M 634.35,323.70 L 630.99,325.37 L 631.48,324.05 L 628.94,324.15 L 628.46,322.29 L 631.56,320.74 L 631.94,318.04 L 623.64,312.99 L 619.94,303.24 L 611.05,299.90 L 604.73,295.32 L 603.10,291.05 L 595.49,283.82 L 595.00,281.16 L 598.72,279.47 L 600.09,276.04 L 592.83,267.06 L 593.26,259.53 L 595.59,257.90 L 597.11,251.31 L 596.45,250.11 L 593.92,255.12 L 591.39,254.43 L 593.05,253.05 L 593.83,239.82 L 595.71,238.29 L 598.95,238.75 L 600.11,247.46 L 607.50,255.96 L 605.89,264.34 L 610.84,266.03 L 611.93,268.31 L 609.78,273.08 L 615.34,279.90 L 615.16,281.16 L 609.60,283.27 L 609.00,286.62 L 615.34,290.94 L 620.75,290.30 L 631.42,298.39 L 631.30,300.81 L 629.57,300.94 L 632.46,304.63 L 631.91,307.55 L 641.68,317.56 L 642.10,320.06 L 646.69,322.78 L 647.97,327.72 L 643.53,328.97 L 634.35,323.70 Z" fill="#A8C8E8" stroke="none"/>
<path d="M 712.62,207.36 L 713.34,208.43 L 711.53,208.94 L 714.06,210.50 L 709.71,210.76 L 712.29,212.41 L 705.03,212.90 L 702.87,214.85 L 707.57,214.18 L 709.91,216.62 L 702.84,216.15 L 700.89,218.05 L 711.35,219.18 L 715.13,217.57 L 717.47,219.80 L 706.15,223.90 L 706.67,225.32 L 700.89,224.65 L 697.55,222.60 L 692.14,224.06 L 692.27,227.83 L 696.05,230.79 L 692.78,229.42 L 689.01,232.94 L 690.09,231.24 L 688.09,230.57 L 691.42,229.82 L 692.10,228.24 L 690.09,226.68 L 691.17,224.64 L 686.85,224.74 L 686.49,222.46 L 682.35,225.21 L 683.62,223.37 L 678.91,223.32 L 678.64,221.60 L 674.90,220.31 L 673.34,222.59 L 670.90,222.54 L 673.27,225.28 L 669.93,223.95 L 667.42,226.01 L 669.56,228.76 L 666.51,226.68 L 663.44,229.67 L 663.20,227.00 L 665.43,226.11 L 662.70,226.43 L 661.78,225.09 L 663.80,223.82 L 662.72,221.56 L 659.52,222.06 L 661.45,216.22 L 658.96,216.20 L 665.84,199.96 L 664.53,199.28 L 663.07,200.34 L 663.08,197.29 L 661.24,196.22 L 665.12,190.78 L 670.13,188.36 L 667.04,185.18 L 670.99,184.60 L 669.57,183.69 L 674.10,184.09 L 674.57,183.65 L 674.24,182.73 L 674.62,182.34 L 676.77,183.24 L 675.87,182.10 L 679.11,183.36 L 678.76,181.53 L 680.92,180.98 L 680.65,182.39 L 683.80,182.22 L 686.12,178.12 L 686.53,180.10 L 688.65,180.07 L 686.67,181.43 L 692.62,179.71 L 692.84,181.68 L 695.07,181.28 L 697.85,179.86 L 697.30,178.59 L 698.76,179.35 L 702.53,176.76 L 700.36,175.85 L 705.06,174.71 L 703.79,177.11 L 707.76,177.11 L 708.45,178.47 L 705.95,178.01 L 708.11,179.83 L 710.33,179.90 L 712.31,177.59 L 715.12,177.66 L 714.06,179.60 L 716.20,179.03 L 716.93,180.40 L 721.24,178.54 L 721.61,183.63 L 723.42,184.72 L 725.27,184.03 L 724.19,185.76 L 728.27,187.14 L 729.29,189.53 L 731.89,187.68 L 730.80,186.09 L 741.08,184.38 L 743.74,188.08 L 733.51,188.70 L 735.01,190.72 L 732.86,191.67 L 731.87,190.33 L 726.69,189.96 L 723.23,192.22 L 722.71,195.08 L 726.54,197.41 L 718.39,203.80 L 719.98,204.16 L 721.34,205.69 L 716.27,205.09 L 719.45,208.38 L 712.62,207.36 Z M 724.86,190.05 L 725.95,190.19 L 727.08,189.71 L 727.57,188.93 L 724.86,190.05 Z M 722.17,191.33 L 723.35,190.83 L 722.52,190.13 L 720.31,190.65 L 722.17,191.33 Z M 664.17,213.15 L 665.19,212.49 L 665.08,212.05 L 664.17,213.15 Z M 664.54,218.31 L 663.26,217.47 L 662.95,218.15 L 664.54,218.31 Z M 666.73,221.48 L 664.17,219.18 L 663.44,221.47 L 665.16,223.69 L 666.73,221.48 Z M 667.58,210.54 L 666.32,209.69 L 665.43,209.86 L 665.43,211.91 L 667.58,210.54 Z M 669.83,220.02 L 667.96,221.91 L 670.14,221.97 L 669.83,220.02 Z M 676.77,187.91 L 673.52,188.36 L 673.68,186.93 L 670.47,187.23 L 675.67,189.54 L 673.63,190.18 L 672.78,191.89 L 676.59,190.75 L 676.77,187.91 Z M 678.87,187.43 L 677.77,186.34 L 676.95,186.32 L 678.87,187.43 Z M 680.02,188.93 L 678.86,188.50 L 678.52,189.17 L 680.02,188.93 Z M 680.55,220.55 L 680.75,223.05 L 682.47,222.72 L 683.11,221.56 L 680.55,220.55 Z M 682.40,189.33 L 681.09,190.06 L 680.94,191.28 L 682.40,189.33 Z M 689.20,183.82 L 690.46,182.63 L 689.90,182.34 L 689.20,183.82 Z M 688.46,183.58 L 689.01,184.38 L 686.49,184.60 L 690.28,184.72 L 688.46,183.58 Z M 696.05,214.29 L 697.82,213.64 L 697.84,212.82 L 695.59,212.91 L 696.05,214.29 Z M 698.20,215.59 L 690.83,214.97 L 692.78,215.77 L 691.58,217.34 L 700.34,218.33 L 698.20,215.59 Z M 699.79,180.51 L 700.00,181.19 L 700.19,181.01 L 699.79,180.51 Z M 703.07,181.90 L 702.02,182.13 L 702.17,182.78 L 703.07,181.90 Z M 701.71,178.01 L 702.32,179.78 L 700.89,179.83 L 704.35,181.63 L 703.80,179.45 L 705.61,178.78 L 701.71,178.01 Z M 714.33,184.60 L 712.62,185.28 L 714.24,185.75 L 714.33,184.60 Z M 718.55,181.90 L 718.64,181.65 L 716.10,181.03 L 718.55,181.90 Z" fill="#A8C8E8" stroke="none"/>
<path d="M 756.58,425.71 L 755.31,427.85 L 753.02,426.66 L 753.09,424.54 L 754.77,423.65 L 756.58,425.71 Z" fill="#A8C8E8" stroke="none"/>
<path d="M 590.50,332.11 L 582.89,337.35 L 582.94,339.70 L 577.71,339.38 L 577.16,338.36 L 576.07,340.07 L 577.88,340.76 L 572.29,340.97 L 572.66,334.03 L 586.85,323.93 L 593.64,326.02 L 590.50,332.11 Z" fill="#A8C8E8" stroke="none"/>
<path d="M 616.27,367.54 L 615.97,366.68 L 613.90,367.59 L 615.21,370.08 L 611.94,372.46 L 605.16,371.87 L 608.68,366.22 L 604.98,369.73 L 603.51,369.53 L 602.91,368.50 L 603.80,369.41 L 609.26,364.35 L 609.58,365.42 L 611.21,363.94 L 609.04,366.34 L 614.62,362.92 L 617.55,365.10 L 616.27,367.54 Z" fill="#A8C8E8" stroke="none"/>
<path d="M 591.81,222.53 L 591.03,220.89 L 586.16,223.95 L 586.13,222.34 L 589.57,220.53 L 587.25,221.56 L 588.35,220.34 L 586.70,220.44 L 586.53,218.50 L 589.43,217.03 L 588.78,215.88 L 587.25,216.33 L 592.73,210.68 L 592.47,209.75 L 590.67,211.00 L 591.85,209.28 L 596.99,211.11 L 599.05,216.99 L 591.81,222.53 Z M 591.46,215.67 L 590.67,220.44 L 592.76,219.80 L 592.91,215.41 L 591.46,215.67 Z" fill="#A8C8E8" stroke="none"/>
<path d="M 600.02,194.40 L 598.42,191.21 L 603.26,185.96 L 609.55,184.10 L 611.93,185.64 L 613.99,185.28 L 612.11,188.93 L 600.02,194.40 Z" fill="#A8C8E8" stroke="none"/>
<path d="M 699.66,155.84 L 699.53,155.90 L 699.50,155.88 L 699.66,155.84 Z" fill="#A8C8E8" stroke="none"/>
<path d="M 697.94,157.94 L 702.70,158.30 L 699.46,159.49 L 700.77,160.03 L 704.17,159.33 L 702.53,162.78 L 692.79,159.03 L 691.17,159.49 L 692.27,161.42 L 691.00,159.70 L 688.19,159.73 L 689.56,161.29 L 683.28,158.88 L 683.44,157.67 L 687.04,158.22 L 690.46,156.40 L 690.46,157.43 L 694.97,157.43 L 698.26,155.58 L 702.05,154.87 L 702.63,155.84 L 706.94,153.51 L 708.26,155.42 L 697.94,157.94 Z M 688.90,158.94 L 687.94,158.69 L 688.89,159.20 L 691.89,159.02 L 688.90,158.94 Z" fill="#A8C8E8" stroke="none"/>
<path d="M 666.96,308.52 L 667.10,308.52 L 667.09,308.53 L 666.96,308.52 Z M 683.31,317.74 L 672.13,314.63 L 668.27,315.76 L 663.80,309.69 L 668.07,308.57 L 683.31,317.74 Z" fill="#A8C8E8" stroke="none"/>
<path d="M 767.43,242.60 L 770.67,239.45 L 770.75,244.02 L 767.43,245.37 L 767.43,242.60 Z" fill="#A8C8E8" stroke="none"/>
<path d="M 301.59,199.09 L 298.87,196.55 L 299.59,194.94 L 296.16,194.84 L 296.16,193.71 L 304.28,194.50 L 305.44,199.28 L 303.08,199.50 L 303.19,198.58 L 301.59,199.09 Z" fill="#A8C8E8" stroke="none"/>
<path d="M 677.67,155.72 L 681.64,157.20 L 675.33,155.27 L 684.16,155.14 L 689.41,152.08 L 692.99,152.66 L 696.04,150.98 L 694.24,152.30 L 695.79,152.69 L 695.15,154.48 L 690.63,152.54 L 690.08,154.21 L 683.35,155.98 L 677.67,155.72 Z" fill="#A8C8E8" stroke="none"/>
<path d="M 97.69,199.61 L 93.17,199.56 L 94.44,199.86 L 91.18,201.68 L 90.07,201.51 L 92.99,199.51 L 90.65,199.51 L 90.46,195.98 L 92.61,197.91 L 93.98,197.12 L 94.90,198.97 L 97.61,198.62 L 97.69,199.61 Z" fill="#A8C8E8" stroke="none"/>
<path d="M 308.95,223.62 L 307.51,227.59 L 305.90,227.94 L 309.33,218.16 L 306.06,216.45 L 305.61,213.32 L 302.46,212.32 L 303.19,210.66 L 306.44,211.80 L 306.95,209.41 L 309.68,210.66 L 314.73,209.07 L 313.11,211.45 L 309.13,212.48 L 308.65,215.51 L 310.74,216.45 L 312.78,215.69 L 312.23,219.16 L 316.45,217.38 L 308.95,223.62 Z" fill="#A8C8E8" stroke="none"/>
<path d="M 536.46,363.94 L 539.15,363.04 L 537.26,362.18 L 537.18,361.90 L 540.78,363.04 L 542.98,362.10 L 538.89,366.11 L 536.46,363.94 Z" fill="#A8C8E8" stroke="none"/>
<path d="M 614.08,205.42 L 612.32,202.87 L 614.80,203.82 L 615.70,205.19 L 614.08,205.42 Z" fill="#A8C8E8" stroke="none"/>
<path d="M 610.20,328.51 L 608.25,329.17 L 606.36,328.13 L 613.19,325.16 L 610.20,328.51 Z" fill="#A8C8E8" stroke="none"/>
<path d="M 524.12,326.98 L 518.43,327.56 L 518.07,326.08 L 521.28,324.58 L 525.64,324.38 L 524.12,326.98 Z" fill="#A8C8E8" stroke="none"/>
<path d="M 166.37,75.36 L 163.89,76.28 L 167.83,78.04 L 168.27,76.28 L 170.17,76.10 L 169.77,78.10 L 165.35,78.50 L 159.80,75.82 L 162.43,74.71 L 166.37,75.36 Z" fill="#A8C8E8" stroke="none"/>
<path d="M 584.54,461.98 L 581.85,459.70 L 575.63,461.98 L 576.45,463.33 L 573.98,460.90 L 567.08,462.51 L 565.33,464.85 L 567.26,464.70 L 566.73,465.62 L 565.27,466.41 L 562.91,465.44 L 560.05,467.78 L 555.96,468.40 L 552.85,473.00 L 546.94,475.04 L 538.40,481.39 L 541.23,478.93 L 540.05,478.02 L 547.48,473.79 L 545.99,472.37 L 548.70,469.66 L 554.46,465.72 L 556.44,466.06 L 555.00,465.49 L 556.80,463.67 L 560.59,463.28 L 558.15,462.51 L 558.60,461.83 L 561.90,461.16 L 563.48,462.55 L 565.87,462.26 L 566.17,460.83 L 569.29,459.91 L 568.35,459.03 L 572.65,458.33 L 571.73,457.37 L 574.46,458.45 L 581.40,456.41 L 589.63,458.40 L 584.54,461.98 Z" fill="#A8C8E8" stroke="none"/>
<path d="M 687.21,441.99 L 680.92,441.50 L 672.53,444.12 L 651.72,443.01 L 647.04,446.17 L 648.48,443.89 L 645.20,443.93 L 637.52,442.53 L 646.58,443.67 L 651.56,441.97 L 670.65,442.29 L 678.40,440.47 L 687.21,441.99 Z" fill="#A8C8E8" stroke="none"/>
<path d="M 792.75,141.69 L 788.96,143.22 L 784.29,135.72 L 780.79,133.49 L 777.62,133.37 L 778.18,129.63 L 772.92,127.54 L 772.71,124.19 L 772.14,125.18 L 769.91,121.22 L 773.98,106.03 L 775.13,107.85 L 775.43,106.01 L 779.20,106.21 L 780.72,114.17 L 779.06,117.20 L 781.28,120.66 L 780.14,127.82 L 784.82,132.99 L 792.40,135.14 L 792.75,141.69 Z" fill="#A8C8E8" stroke="none"/>
<path d="M 799.75,105.96 L 793.54,108.67 L 795.32,102.78 L 797.45,103.62 L 800.00,101.95 L 800.00,103.37 L 799.75,105.96 Z" fill="#A8C8E8" stroke="none"/>
<path d="M 742.89,244.54 L 741.00,244.26 L 743.19,242.97 L 748.28,242.45 L 755.96,238.59 L 756.91,240.18 L 753.12,243.43 L 741.58,245.64 L 742.89,244.54 Z" fill="#A8C8E8" stroke="none"/>
<path d="M 773.36,219.42 L 774.88,217.94 L 777.39,220.58 L 775.28,225.07 L 772.84,225.82 L 774.29,224.35 L 773.36,219.42 Z" fill="#A8C8E8" stroke="none"/>
</svg>