<svg xmlns="http://www.w3.org/2000/svg" width="800" height="500" viewBox="0 0 800 500">
<rect width="800" height="500" fill="#A8C8E8"/>
<path d="M 7.81,8.88 L 37.11,9.26 L 60.77,18.10 L 76.67,19.98 L 80.05,13.60 L 89.40,8.95 L 90.82,4.80 L 105.60,2.70 L 107.43,0.00 L 122.38,0.00 L 137.65,19.49 L 142.40,44.75 L 153.82,45.92 L 160.83,52.00 L 155.92,68.34 L 158.97,71.20 L 158.37,75.31 L 141.50,85.18 L 134.49,83.82 L 125.78,93.09 L 117.50,107.21 L 113.52,123.92 L 105.68,127.78 L 104.35,145.74 L 91.33,151.60 L 92.97,155.74 L 88.17,173.71 L 79.93,179.19 L 72.69,179.05 L 74.03,183.08 L 67.26,187.02 L 65.92,202.22 L 59.29,210.85 L 59.37,215.95 L 48.47,227.12 L 53.67,233.69 L 41.78,240.95 L 40.69,249.20 L 34.43,255.96 L 24.61,256.74 L 21.67,245.79 L 4.12,231.85 L 0.95,241.00 L 0.00,240.99 L 0.00,10.52 L 7.81,8.88 Z" fill="#E8E0D0" stroke="#B8B0A0" stroke-width="0.5"/>
<path d="M 736.63,483.90 L 745.72,468.69 L 745.99,457.04 L 753.93,454.04 L 757.15,445.92 L 766.32,442.26 L 796.70,411.39 L 793.11,404.25 L 788.42,404.71 L 785.08,400.59 L 781.40,403.21 L 775.22,399.18 L 780.69,384.60 L 776.49,377.38 L 782.86,365.31 L 782.34,360.79 L 780.16,361.86 L 784.18,355.10 L 794.53,351.07 L 800.00,353.31 L 800.00,500.00 L 734.07,500.00 L 736.63,483.90 Z" fill="#E8E0D0" stroke="#B8B0A0" stroke-width="0.5"/>
<path d="M 103.08,418.65 L 101.83,429.62 L 106.49,438.72 L 102.62,441.62 L 117.68,440.66 L 127.31,435.27 L 140.70,436.79 L 144.83,438.97 L 146.00,446.13 L 153.10,453.88 L 147.76,464.31 L 138.08,467.22 L 133.07,473.98 L 130.23,479.47 L 132.15,488.38 L 128.70,493.82 L 138.82,496.37 L 140.22,500.00 L 0.00,500.00 L 0.00,450.71 L 33.14,450.81 L 33.73,404.34 L 70.88,403.85 L 87.28,406.62 L 103.14,404.96 L 107.77,406.42 L 103.08,418.65 Z" fill="#E8E0D0" stroke="#B8B0A0" stroke-width="0.5"/>
<path d="M 105.60,2.70 L 90.82,4.80 L 89.40,8.95 L 80.05,13.60 L 76.67,19.98 L 60.77,18.10 L 37.11,9.26 L 7.81,8.88 L 0.00,10.52 L 0.00,0.00 L 107.43,0.00 L 105.60,2.70 Z" fill="#E8E0D0" stroke="#B8B0A0" stroke-width="0.5"/>
<path d="M 32.60,409.15 L 33.14,450.81 L 0.00,450.71 L 0.00,409.15 L 32.60,409.15 Z" fill="#E8E0D0" stroke="#B8B0A0" stroke-width="0.5"/>
<path d="M 0.00,409.15 L 0.00,240.99 L 0.95,241.00 L 4.12,231.85 L 21.67,245.79 L 23.98,256.20 L 30.05,256.88 L 40.69,249.20 L 41.78,240.95 L 53.67,233.69 L 48.47,227.12 L 59.37,215.95 L 59.29,210.85 L 65.92,202.22 L 67.26,187.02 L 74.03,183.08 L 72.69,179.05 L 79.93,179.19 L 89.00,172.65 L 92.97,155.74 L 91.33,151.60 L 104.35,145.74 L 105.68,127.78 L 113.52,123.92 L 117.50,107.21 L 125.78,93.09 L 134.49,83.82 L 141.50,85.18 L 158.77,74.45 L 155.92,68.34 L 160.76,51.62 L 153.82,45.92 L 142.40,44.75 L 137.65,19.49 L 151.18,19.37 L 156.42,30.59 L 166.54,35.17 L 169.56,52.52 L 175.36,54.96 L 178.66,74.73 L 174.28,87.17 L 178.76,110.77 L 199.56,129.71 L 164.76,132.19 L 142.13,130.18 L 133.10,141.80 L 148.56,159.09 L 175.46,177.83 L 190.35,206.55 L 195.03,208.23 L 190.05,222.61 L 182.05,227.69 L 164.75,260.87 L 150.00,270.84 L 158.82,277.06 L 158.82,290.26 L 155.08,297.57 L 160.40,302.07 L 162.64,321.44 L 173.24,328.89 L 176.96,339.30 L 180.74,341.40 L 174.46,342.72 L 176.72,347.73 L 215.31,384.24 L 215.23,396.84 L 219.73,407.10 L 215.77,408.16 L 214.21,414.50 L 217.74,425.10 L 214.45,427.41 L 212.30,423.24 L 200.54,417.50 L 191.97,415.93 L 186.39,417.87 L 181.61,413.66 L 169.35,414.84 L 167.99,410.93 L 164.46,412.73 L 156.70,407.61 L 151.75,410.35 L 108.15,409.32 L 107.77,406.42 L 103.14,404.96 L 87.28,406.62 L 45.43,403.55 L 33.73,404.34 L 32.60,409.15 L 0.00,409.15 Z" fill="#C8D8E8" stroke="#8BAABB" stroke-width="0.8"/>
<path d="M 122.38,0.00 L 447.05,0.00 L 451.84,10.32 L 440.21,18.76 L 434.29,29.64 L 439.13,35.14 L 445.64,34.75 L 449.43,31.43 L 458.66,36.16 L 455.87,41.44 L 460.13,52.10 L 459.13,56.89 L 465.04,55.38 L 462.33,71.08 L 471.15,79.29 L 476.62,79.54 L 476.91,90.58 L 474.57,96.58 L 458.71,93.75 L 430.96,106.66 L 430.82,118.80 L 422.94,122.24 L 417.62,130.36 L 413.12,130.26 L 396.62,150.18 L 390.56,154.32 L 385.73,153.62 L 381.65,160.17 L 327.52,165.63 L 321.69,170.48 L 331.43,176.71 L 310.95,199.11 L 274.58,201.35 L 242.62,217.11 L 235.30,212.26 L 232.79,205.46 L 226.79,208.54 L 225.97,212.51 L 208.91,219.09 L 191.89,217.84 L 195.03,208.23 L 190.35,206.55 L 180.51,183.71 L 148.56,159.09 L 133.16,142.33 L 142.13,130.18 L 164.76,132.19 L 199.56,129.71 L 178.51,110.09 L 174.28,87.17 L 178.66,74.73 L 176.02,69.38 L 177.72,65.73 L 175.36,54.96 L 169.56,52.52 L 166.99,35.90 L 156.42,30.59 L 151.18,19.37 L 137.65,19.49 L 122.38,0.00 Z" fill="#C8D8E8" stroke="#8BAABB" stroke-width="0.8"/>
<path d="M 313.14,342.01 L 309.13,331.94 L 317.23,329.35 L 329.87,311.18 L 342.34,303.29 L 358.26,304.48 L 377.96,316.09 L 387.21,328.83 L 398.36,327.46 L 411.36,333.24 L 431.52,333.18 L 453.20,339.06 L 461.14,336.82 L 464.28,326.74 L 467.99,326.09 L 476.00,314.24 L 495.76,322.55 L 502.41,317.44 L 528.12,310.45 L 533.46,306.66 L 533.37,303.58 L 546.17,310.89 L 568.28,306.79 L 570.42,296.85 L 577.32,294.54 L 591.38,301.87 L 602.39,299.43 L 614.04,306.25 L 623.12,304.57 L 628.01,306.60 L 635.92,300.68 L 644.66,303.23 L 661.60,315.52 L 662.68,322.38 L 671.94,324.01 L 673.30,328.68 L 686.01,333.82 L 700.33,323.87 L 718.18,331.49 L 727.23,319.74 L 733.39,320.74 L 740.22,323.80 L 739.88,330.48 L 745.34,332.63 L 755.26,345.22 L 768.12,348.38 L 768.80,357.47 L 776.61,355.26 L 780.16,361.86 L 782.34,360.79 L 782.86,365.31 L 776.49,377.38 L 780.69,384.60 L 775.22,399.18 L 781.40,403.21 L 785.08,400.59 L 788.42,404.71 L 793.11,404.25 L 796.70,411.39 L 766.32,442.26 L 757.15,445.92 L 753.93,454.04 L 745.99,457.04 L 745.72,468.69 L 736.63,483.90 L 734.07,500.00 L 278.22,500.00 L 277.51,493.48 L 286.29,473.02 L 283.27,450.19 L 291.11,431.09 L 291.15,409.36 L 311.86,374.78 L 313.14,342.01 Z" fill="#C8D8E8" stroke="#8BAABB" stroke-width="0.8"/>
<path d="M 311.86,374.78 L 291.15,409.36 L 291.11,431.09 L 283.27,450.19 L 286.29,473.02 L 277.51,493.48 L 278.22,500.00 L 140.22,500.00 L 138.82,496.37 L 128.70,493.82 L 132.15,488.38 L 130.23,479.47 L 133.07,473.98 L 138.08,467.22 L 147.76,464.31 L 153.10,453.88 L 146.00,446.13 L 144.83,438.97 L 140.70,436.79 L 127.31,435.27 L 117.68,440.66 L 102.62,441.62 L 106.49,438.72 L 101.83,429.62 L 103.08,418.65 L 108.15,409.32 L 151.75,410.35 L 156.70,407.61 L 164.46,412.73 L 167.99,410.93 L 169.35,414.84 L 181.61,413.66 L 186.39,417.87 L 191.97,415.93 L 200.54,417.50 L 212.30,423.24 L 214.45,427.41 L 217.86,424.54 L 214.26,415.82 L 215.06,409.74 L 219.73,407.10 L 230.12,385.21 L 229.60,373.77 L 234.70,361.45 L 257.63,358.59 L 267.65,354.07 L 280.45,357.31 L 282.33,360.07 L 291.52,359.24 L 295.33,362.31 L 297.90,358.83 L 306.46,356.79 L 312.37,362.33 L 311.86,374.78 Z" fill="#C8D8E8" stroke="#8BAABB" stroke-width="0.8"/>
<path d="M 791.73,351.33 L 784.18,355.10 L 780.16,361.86 L 776.61,355.26 L 769.20,357.77 L 768.12,348.38 L 755.26,345.22 L 745.34,332.63 L 739.88,330.48 L 740.22,323.80 L 730.19,320.06 L 727.23,319.74 L 718.18,331.49 L 700.33,323.87 L 685.09,333.55 L 673.30,328.68 L 671.94,324.01 L 662.68,322.38 L 661.92,315.88 L 652.81,310.71 L 643.23,298.65 L 643.10,287.32 L 637.84,280.49 L 626.16,276.00 L 624.53,272.88 L 611.07,269.65 L 614.29,264.90 L 605.14,255.61 L 609.27,248.91 L 598.29,242.58 L 595.79,236.64 L 570.28,224.54 L 563.79,218.63 L 562.82,215.82 L 567.19,212.98 L 564.80,205.67 L 558.76,204.53 L 548.84,194.38 L 524.05,189.46 L 523.44,185.14 L 527.79,180.12 L 524.97,175.47 L 539.58,169.15 L 544.24,151.77 L 548.55,146.52 L 548.69,135.87 L 555.58,130.56 L 559.44,119.15 L 588.23,114.42 L 591.17,122.92 L 618.76,147.94 L 636.18,143.44 L 667.38,143.84 L 673.13,153.27 L 703.72,153.52 L 706.40,146.22 L 728.21,137.91 L 733.21,132.45 L 733.27,127.32 L 748.50,119.74 L 777.32,139.24 L 792.60,137.82 L 800.00,131.62 L 800.00,353.93 L 791.73,351.33 Z" fill="#C8D8E8" stroke="#8BAABB" stroke-width="0.8"/>
<path d="M 478.11,84.73 L 476.62,79.54 L 471.15,79.29 L 462.33,71.08 L 465.04,55.38 L 459.13,56.89 L 460.13,52.10 L 455.87,41.44 L 458.66,36.16 L 449.43,31.43 L 445.64,34.75 L 439.13,35.14 L 434.29,29.64 L 440.21,18.76 L 451.84,10.32 L 447.05,0.00 L 800.00,0.00 L 800.00,131.62 L 792.60,137.82 L 777.32,139.24 L 748.50,119.74 L 733.27,127.32 L 733.21,132.45 L 728.21,137.91 L 706.40,146.22 L 703.72,153.52 L 673.13,153.27 L 667.38,143.84 L 636.18,143.44 L 618.76,147.94 L 591.17,122.92 L 588.23,114.42 L 559.44,119.15 L 555.58,130.56 L 548.69,135.87 L 548.55,146.52 L 544.24,151.77 L 539.58,169.15 L 522.56,176.47 L 498.66,174.66 L 501.62,166.01 L 496.58,164.43 L 498.05,159.01 L 504.10,155.19 L 504.58,134.29 L 491.04,113.70 L 474.57,96.58 L 478.11,84.73 Z" fill="#C8D8E8" stroke="#8BAABB" stroke-width="0.8"/>
<path d="M 491.04,113.70 L 504.58,134.29 L 504.10,155.19 L 498.05,159.01 L 496.58,164.43 L 501.62,166.01 L 499.24,175.44 L 526.53,176.12 L 527.79,180.12 L 523.44,185.14 L 524.05,189.46 L 548.84,194.38 L 558.76,204.53 L 564.80,205.67 L 567.19,212.98 L 562.82,215.82 L 563.79,218.63 L 570.28,224.54 L 595.79,236.64 L 598.29,242.58 L 609.27,248.91 L 605.14,255.61 L 614.29,264.90 L 611.07,269.65 L 624.53,272.88 L 626.16,276.00 L 637.84,280.49 L 643.10,287.32 L 643.23,298.65 L 650.00,305.42 L 635.92,300.68 L 628.01,306.60 L 623.12,304.57 L 614.04,306.25 L 602.39,299.43 L 591.38,301.87 L 577.32,294.54 L 570.42,296.85 L 568.28,306.79 L 546.17,310.89 L 533.37,303.58 L 533.46,306.66 L 528.12,310.45 L 502.41,317.44 L 495.76,322.55 L 476.00,314.24 L 467.99,326.09 L 464.28,326.74 L 461.14,336.82 L 453.20,339.06 L 431.52,333.18 L 411.36,333.24 L 398.36,327.46 L 387.21,328.83 L 377.96,316.09 L 358.26,304.48 L 342.34,303.29 L 329.87,311.18 L 317.23,329.35 L 309.13,331.94 L 313.14,342.01 L 312.37,362.33 L 306.46,356.79 L 297.90,358.83 L 295.33,362.31 L 291.52,359.24 L 282.33,360.07 L 280.45,357.31 L 267.65,354.07 L 250.43,360.14 L 236.26,360.49 L 229.60,373.77 L 230.12,385.21 L 218.65,406.25 L 213.89,381.51 L 208.48,375.86 L 203.56,375.51 L 176.72,347.73 L 174.46,342.72 L 180.74,341.40 L 176.96,339.30 L 173.24,328.89 L 162.64,321.44 L 160.40,302.07 L 155.08,297.57 L 158.82,290.26 L 158.82,277.06 L 150.00,270.84 L 164.75,260.87 L 182.05,227.69 L 190.05,222.61 L 191.89,217.84 L 208.91,219.09 L 225.97,212.51 L 226.79,208.54 L 232.79,205.46 L 235.30,212.26 L 241.74,217.20 L 274.58,201.35 L 310.95,199.11 L 331.43,176.71 L 321.69,170.48 L 327.52,165.63 L 381.65,160.17 L 385.73,153.62 L 390.56,154.32 L 396.62,150.18 L 413.12,130.26 L 417.62,130.36 L 422.94,122.24 L 430.82,118.80 L 430.96,106.66 L 458.71,93.75 L 474.57,96.58 L 491.04,113.70 Z" fill="#4A90D9" stroke="#1a5fa8" stroke-width="1.2"/>
<path d="M 797.64,425.36 L 784.26,432.30 L 771.14,449.65 L 767.07,449.55 L 767.45,443.07 L 762.78,439.70 L 767.10,432.60 L 795.38,410.90 L 800.00,405.62 L 800.00,421.31 L 797.64,425.36 Z" fill="#A8C8E8" stroke="none"/>
<path d="M 161.26,23.06 L 145.46,26.26 L 145.85,17.41 L 149.75,20.00 L 146.67,16.11 L 155.73,13.22 L 160.73,14.93 L 163.27,19.39 L 161.26,23.06 Z" fill="#A8C8E8" stroke="none"/>
<path d="M 740.52,500.00 L 724.20,500.00 L 728.60,492.96 L 737.75,488.96 L 741.23,492.28 L 744.24,491.50 L 741.50,499.35 L 740.52,500.00 Z" fill="#A8C8E8" stroke="none"/>
<path d="M 91.97,254.98 L 88.35,256.96 L 94.10,260.73 L 94.74,256.96 L 97.50,256.56 L 96.92,260.88 L 90.48,261.72 L 82.39,255.97 L 86.23,253.58 L 91.97,254.98 Z" fill="#A8C8E8" stroke="none"/>
</svg>