<svg xmlns="http://www.w3.org/2000/svg" width="800" height="500" viewBox="0 0 800 500">
<rect width="800" height="500" fill="#A8C8E8"/>
<path d="M 31.99,0.45 L 8.15,15.43 L 0.00,17.10 L 0.00,0.00 L 33.36,0.00 L 31.99,0.45 Z M 2.90,26.19 L 0.00,32.67 L 0.00,24.19 L 2.90,26.19 Z" fill="#E8E0D0" stroke="#B8B0A0" stroke-width="0.5"/>
<path d="M 64.12,146.00 L 75.26,148.98 L 163.85,148.98 L 164.80,190.75 L 77.81,190.59 L 72.13,193.41 L 57.07,185.95 L 48.19,189.18 L 44.22,185.95 L 35.69,186.73 L 32.37,184.21 L 40.27,175.88 L 50.21,169.66 L 53.17,170.48 L 54.95,170.35 L 58.85,169.23 L 49.72,167.65 L 63.19,157.24 L 62.51,142.68 L 64.12,146.00 Z M 6.05,96.64 L 0.00,101.93 L 0.00,92.44 L 4.15,92.23 L 6.05,96.64 Z" fill="#E8E0D0" stroke="#B8B0A0" stroke-width="0.5"/>
<path d="M 262.41,396.23 L 254.15,402.84 L 238.55,407.52 L 244.29,411.37 L 242.84,431.55 L 222.98,432.88 L 218.77,427.67 L 224.23,422.26 L 210.51,407.19 L 215.66,408.41 L 218.09,406.08 L 209.61,406.25 L 221.45,397.24 L 230.39,397.60 L 234.73,391.42 L 250.49,389.77 L 259.66,383.75 L 266.87,384.49 L 280.43,392.49 L 262.41,396.23 Z M 265.54,486.68 L 264.44,474.02 L 245.62,464.00 L 228.29,444.81 L 263.37,442.49 L 287.83,436.21 L 509.48,437.31 L 523.57,448.13 L 522.19,458.00 L 526.32,466.71 L 539.97,477.69 L 538.14,484.48 L 553.50,492.49 L 559.49,500.00 L 277.66,500.00 L 265.54,486.68 Z M 698.54,497.71 L 709.02,494.32 L 709.60,477.23 L 761.01,477.23 L 762.69,474.24 L 782.12,474.15 L 776.07,487.41 L 800.00,487.38 L 800.00,500.00 L 698.54,500.00 L 698.54,497.71 Z" fill="#C8D8E8" stroke="#8BAABB" stroke-width="0.8"/>
<path d="M 75.26,148.98 L 63.27,145.43 L 72.91,117.30 L 71.16,109.39 L 52.03,99.81 L 63.85,96.63 L 50.98,97.63 L 45.63,89.76 L 50.85,92.25 L 50.64,87.79 L 58.85,89.76 L 54.31,86.56 L 60.17,84.83 L 50.49,84.72 L 59.52,78.45 L 47.86,82.84 L 41.15,79.32 L 44.74,83.68 L 38.45,82.21 L 41.04,86.32 L 32.16,86.32 L 31.01,82.16 L 23.32,84.58 L 7.38,79.70 L 5.02,63.49 L 0.00,60.86 L 0.00,32.67 L 2.90,26.19 L 0.00,24.19 L 0.00,17.22 L 31.99,0.45 L 33.36,0.00 L 393.75,0.00 L 393.48,0.30 L 367.86,10.30 L 383.18,16.53 L 383.18,29.77 L 376.68,37.10 L 385.93,41.61 L 389.82,61.03 L 408.24,68.51 L 414.71,78.94 L 421.27,81.05 L 410.37,82.37 L 414.29,87.39 L 481.34,124.00 L 481.21,136.64 L 489.02,146.93 L 482.14,147.98 L 479.44,154.35 L 485.57,164.97 L 479.84,167.28 L 476.12,163.10 L 455.68,157.35 L 440.78,155.78 L 431.09,157.73 L 422.79,153.50 L 401.48,154.69 L 399.12,150.76 L 392.99,152.57 L 379.50,147.44 L 370.90,150.18 L 295.13,149.15 L 294.47,146.24 L 286.43,144.78 L 258.88,146.44 L 186.16,143.37 L 165.82,144.15 L 163.85,148.98 L 75.26,148.98 Z M 0.50,63.81 L 0.00,63.59 L 0.00,62.57 L 0.50,63.81 Z" fill="#C8D8E8" stroke="#8BAABB" stroke-width="0.8"/>
<path d="M 799.43,67.07 L 780.04,68.45 L 763.98,55.67 L 729.75,44.03 L 702.09,42.83 L 680.41,50.75 L 658.45,68.96 L 644.38,71.57 L 651.34,81.66 L 650.00,102.04 L 639.73,96.48 L 624.85,98.53 L 620.39,102.02 L 613.77,98.94 L 597.80,99.77 L 594.54,97.00 L 572.30,93.75 L 542.37,99.84 L 517.75,100.18 L 506.18,113.51 L 507.09,124.97 L 487.16,146.07 L 478.88,121.27 L 469.47,115.60 L 460.93,115.24 L 414.29,87.39 L 410.37,82.37 L 421.27,81.05 L 414.71,78.94 L 408.24,68.51 L 389.82,61.03 L 385.93,41.61 L 376.68,37.10 L 383.18,29.77 L 383.18,16.53 L 367.86,10.30 L 393.48,0.30 L 393.75,0.00 L 800.00,0.00 L 800.00,67.22 L 799.43,67.07 Z" fill="#C8D8E8" stroke="#8BAABB" stroke-width="0.8"/>
<path d="M 651.34,81.66 L 644.38,71.57 L 658.45,68.96 L 680.41,50.75 L 702.09,42.83 L 729.75,44.03 L 763.98,55.67 L 780.04,68.45 L 799.43,67.07 L 800.00,67.22 L 800.00,487.38 L 776.07,487.41 L 782.12,474.15 L 762.69,474.24 L 761.01,477.23 L 709.60,477.23 L 709.02,494.32 L 698.54,497.71 L 698.54,500.00 L 559.49,500.00 L 553.50,492.49 L 538.14,484.48 L 539.97,477.69 L 526.32,466.71 L 522.19,458.00 L 523.57,448.13 L 512.00,437.86 L 338.33,435.68 L 298.32,437.43 L 268.61,434.71 L 259.98,436.53 L 257.06,440.61 L 238.89,443.21 L 239.40,440.70 L 235.36,441.57 L 225.56,435.22 L 226.20,431.92 L 242.84,431.55 L 244.29,411.37 L 238.55,407.52 L 254.15,402.84 L 262.41,396.23 L 279.87,393.52 L 281.38,390.49 L 301.66,401.44 L 322.95,394.29 L 323.11,385.96 L 338.39,387.58 L 367.84,379.66 L 373.35,385.11 L 365.43,389.76 L 368.75,401.47 L 376.68,399.87 L 386.86,401.96 L 397.40,398.93 L 422.21,381.88 L 439.18,377.40 L 444.16,371.82 L 469.35,366.79 L 490.21,345.15 L 488.15,304.65 L 509.40,294.10 L 530.65,271.96 L 543.25,265.80 L 562.25,262.86 L 591.64,245.26 L 589.43,233.53 L 604.68,213.01 L 599.43,190.12 L 613.06,170.97 L 613.13,149.18 L 649.11,114.52 L 651.34,81.66 Z M 275.17,436.63 L 258.56,439.21 L 264.09,436.76 L 275.17,436.63 Z" fill="#C8D8E8" stroke="#8BAABB" stroke-width="0.8"/>
<path d="M 286.32,158.50 L 284.15,169.51 L 292.25,178.63 L 285.52,181.53 L 311.70,180.57 L 328.42,175.16 L 351.70,176.70 L 358.87,178.87 L 360.91,186.06 L 373.24,193.83 L 363.96,204.28 L 347.14,207.21 L 338.44,213.98 L 333.51,219.49 L 336.83,228.42 L 330.85,233.88 L 348.43,236.43 L 352.71,242.82 L 363.42,242.44 L 374.69,248.04 L 368.17,262.65 L 374.54,276.99 L 372.91,281.97 L 366.36,284.24 L 371.95,286.90 L 369.01,294.30 L 358.06,297.50 L 351.93,306.18 L 357.68,310.84 L 348.07,315.99 L 331.82,314.84 L 335.84,311.02 L 324.99,301.61 L 306.07,313.92 L 273.46,311.47 L 276.07,308.03 L 262.52,295.24 L 251.06,291.87 L 241.35,295.44 L 237.38,293.98 L 242.23,301.55 L 239.54,309.95 L 213.11,312.99 L 204.87,309.92 L 192.73,313.00 L 180.10,309.94 L 183.97,320.79 L 177.74,329.17 L 184.79,327.97 L 194.22,334.14 L 188.17,340.06 L 205.27,344.79 L 197.32,354.39 L 202.68,356.98 L 188.18,358.96 L 174.53,352.17 L 156.56,358.90 L 150.00,367.48 L 140.00,358.70 L 118.88,350.12 L 118.15,345.17 L 69.36,323.21 L 56.12,314.00 L 62.21,316.07 L 65.21,314.49 L 74.34,320.64 L 86.28,318.65 L 85.00,317.02 L 74.80,318.20 L 67.50,312.79 L 59.35,314.98 L 57.48,311.71 L 56.12,313.73 L 49.03,310.74 L 46.95,305.03 L 27.35,293.72 L 40.40,295.36 L 45.45,300.67 L 43.76,295.50 L 34.22,291.66 L 31.96,294.13 L 26.30,292.23 L 23.94,283.09 L 10.40,273.64 L 8.20,270.60 L 10.59,273.24 L 19.89,279.09 L 26.91,281.50 L 27.95,286.50 L 46.54,284.08 L 39.68,279.17 L 28.38,282.60 L 25.84,279.59 L 31.54,276.60 L 31.62,272.47 L 30.79,275.61 L 21.66,277.03 L 11.30,273.04 L 11.50,269.25 L 0.48,261.50 L 3.16,262.63 L 5.02,261.02 L 0.00,259.87 L 0.00,254.42 L 4.58,251.13 L 10.06,257.84 L 16.01,248.00 L 29.70,238.42 L 32.29,213.79 L 33.27,220.04 L 37.54,219.07 L 41.78,223.00 L 42.86,219.79 L 48.35,222.50 L 56.71,221.70 L 63.35,225.68 L 59.78,222.03 L 77.56,219.79 L 62.03,220.04 L 42.45,216.11 L 29.64,207.04 L 30.32,204.10 L 45.18,202.12 L 46.52,204.27 L 41.10,204.36 L 40.18,205.08 L 47.45,205.08 L 47.45,208.26 L 49.76,209.72 L 48.70,190.21 L 58.89,188.58 L 72.13,193.41 L 77.81,190.59 L 164.80,190.75 L 165.82,144.15 L 230.37,143.67 L 258.88,146.44 L 286.43,144.78 L 294.47,146.24 L 286.32,158.50 Z M 12.06,250.51 L 9.74,253.81 L 5.93,250.22 L 12.06,250.51 Z M 34.86,197.54 L 34.57,197.63 L 34.38,197.52 L 34.86,197.54 Z" fill="#C8D8E8" stroke="#8BAABB" stroke-width="0.8"/>
<path d="M 649.11,114.52 L 613.13,149.18 L 613.06,170.97 L 599.43,190.12 L 604.68,213.01 L 589.43,233.53 L 591.64,245.26 L 562.25,262.86 L 543.25,265.80 L 530.65,271.96 L 509.40,294.10 L 488.15,304.65 L 490.21,345.15 L 469.35,366.79 L 444.16,371.82 L 439.18,377.40 L 422.21,381.88 L 397.40,398.93 L 386.86,401.96 L 376.68,399.87 L 368.75,401.47 L 365.43,389.76 L 373.35,385.11 L 367.84,379.66 L 338.39,387.58 L 323.11,385.96 L 322.95,394.29 L 301.66,401.44 L 283.00,390.40 L 277.34,391.66 L 266.87,384.49 L 259.66,383.75 L 250.49,389.77 L 234.73,391.42 L 230.39,397.60 L 221.76,397.08 L 209.61,406.25 L 197.00,397.84 L 196.08,390.41 L 150.00,367.48 L 156.56,358.90 L 174.53,352.17 L 188.18,358.96 L 202.68,356.98 L 197.32,354.39 L 205.27,344.79 L 188.17,340.06 L 194.22,334.14 L 184.79,327.97 L 177.74,329.17 L 183.97,320.79 L 180.10,309.94 L 192.73,313.00 L 204.87,309.92 L 213.11,312.99 L 239.54,309.95 L 242.23,301.55 L 237.38,293.98 L 241.35,295.44 L 251.06,291.87 L 262.52,295.24 L 276.07,308.03 L 273.46,311.47 L 306.07,313.92 L 324.99,301.61 L 335.84,311.02 L 331.82,314.84 L 348.07,315.99 L 357.68,310.84 L 351.93,306.18 L 358.39,297.23 L 368.52,294.80 L 371.95,286.90 L 366.36,284.24 L 372.91,281.97 L 374.54,276.99 L 368.16,263.16 L 374.69,248.04 L 363.42,242.44 L 352.71,242.82 L 348.43,236.43 L 330.85,233.88 L 336.83,228.42 L 333.51,219.49 L 338.44,213.98 L 347.14,207.21 L 363.96,204.28 L 373.24,193.83 L 360.91,186.06 L 358.87,178.87 L 351.70,176.70 L 328.42,175.16 L 311.70,180.57 L 285.52,181.53 L 292.25,178.63 L 284.15,169.51 L 286.32,158.50 L 295.13,149.15 L 370.90,150.18 L 379.50,147.44 L 392.99,152.57 L 399.12,150.76 L 401.48,154.69 L 422.79,153.50 L 431.09,157.73 L 440.78,155.78 L 455.68,157.35 L 476.12,163.10 L 479.84,167.28 L 485.78,164.41 L 479.51,155.67 L 480.90,149.57 L 489.02,146.93 L 507.09,124.97 L 506.18,113.51 L 515.03,101.15 L 554.88,98.28 L 572.30,93.75 L 594.54,97.00 L 597.80,99.77 L 613.77,98.94 L 620.39,102.02 L 624.85,98.53 L 639.73,96.48 L 650.00,102.04 L 649.11,114.52 Z" fill="#4A90D9" stroke="#1a5fa8" stroke-width="1.2"/>
<path d="M 609.40,261.34 L 602.51,255.86 L 604.33,252.39 L 595.65,252.17 L 595.65,249.73 L 616.22,251.44 L 619.14,261.75 L 613.16,262.23 L 613.46,260.24 L 609.40,261.34 Z" fill="#A8C8E8" stroke="none"/>
<path d="M 93.10,262.46 L 81.65,262.35 L 84.87,263.00 L 76.62,266.93 L 73.82,266.56 L 81.20,262.24 L 75.29,262.24 L 74.80,254.64 L 80.24,258.79 L 83.71,257.08 L 86.04,261.08 L 92.90,260.33 L 93.10,262.46 Z" fill="#A8C8E8" stroke="none"/>
<path d="M 628.03,314.26 L 624.39,322.84 L 620.31,323.58 L 628.99,302.49 L 620.73,298.80 L 619.59,292.04 L 611.60,289.88 L 613.46,286.31 L 621.69,288.76 L 622.98,283.60 L 629.90,286.31 L 642.67,282.86 L 638.57,288.02 L 628.48,290.22 L 627.27,296.78 L 632.58,298.80 L 637.73,297.16 L 636.34,304.65 L 647.04,300.79 L 628.03,314.26 Z" fill="#A8C8E8" stroke="none"/>
<path d="M 270.72,0.16 L 270.76,0.00 L 275.69,0.00 L 275.61,0.31 L 264.43,1.15 L 261.62,0.00 L 270.29,0.00 L 270.72,0.16 Z" fill="#A8C8E8" stroke="none"/>
</svg>