<svg xmlns="http://www.w3.org/2000/svg" width="800" height="500" viewBox="0 0 800 500">
<rect width="800" height="500" fill="#A8C8E8"/>
<path d="M 202.04,0.45 L 189.21,15.43 L 184.83,17.10 L 184.83,0.00 L 202.78,0.00 L 202.04,0.45 Z M 186.39,26.19 L 184.83,32.67 L 184.83,24.19 L 186.39,26.19 Z" fill="#E8E0D0" stroke="#B8B0A0" stroke-width="0.5"/>
<path d="M 219.32,146.00 L 225.31,148.98 L 272.97,148.98 L 273.48,190.75 L 226.69,190.59 L 223.63,193.41 L 215.53,185.95 L 210.75,189.18 L 208.62,185.95 L 204.03,186.73 L 202.25,184.21 L 206.49,175.88 L 211.84,169.66 L 213.43,170.48 L 214.39,170.35 L 216.49,169.23 L 211.57,167.65 L 218.82,157.24 L 218.46,142.68 L 219.32,146.00 Z M 188.09,96.64 L 184.83,101.93 L 184.83,92.44 L 187.07,92.23 L 188.09,96.64 Z" fill="#E8E0D0" stroke="#B8B0A0" stroke-width="0.5"/>
<path d="M 325.99,396.23 L 321.55,402.84 L 313.15,407.52 L 316.24,411.37 L 315.46,431.55 L 304.78,432.88 L 302.51,427.67 L 305.45,422.26 L 298.07,407.19 L 300.84,408.41 L 302.15,406.08 L 297.58,406.25 L 303.95,397.24 L 308.77,397.60 L 311.10,391.42 L 319.57,389.77 L 324.51,383.75 L 328.38,384.49 L 335.68,392.49 L 325.99,396.23 Z M 327.67,486.68 L 327.08,474.02 L 316.95,464.00 L 307.63,444.81 L 326.51,442.49 L 339.66,436.21 L 458.89,437.31 L 466.47,448.13 L 465.73,458.00 L 467.95,466.71 L 475.29,477.69 L 474.31,484.48 L 482.57,492.49 L 485.79,500.00 L 334.19,500.00 L 327.67,486.68 Z M 560.59,497.71 L 566.23,494.32 L 566.54,477.23 L 594.20,477.23 L 595.10,474.24 L 605.55,474.15 L 602.30,487.41 L 615.17,487.38 L 615.17,500.00 L 560.59,500.00 L 560.59,497.71 Z" fill="#C8D8E8" stroke="#8BAABB" stroke-width="0.8"/>
<path d="M 225.31,148.98 L 218.86,145.43 L 224.05,117.30 L 223.11,109.39 L 212.82,99.81 L 219.18,96.63 L 212.25,97.63 L 209.38,89.76 L 212.18,92.25 L 212.07,87.79 L 216.49,89.76 L 214.05,86.56 L 217.20,84.83 L 211.99,84.72 L 216.85,78.45 L 210.58,82.84 L 206.97,79.32 L 208.90,83.68 L 205.51,82.21 L 206.91,86.32 L 202.13,86.32 L 201.51,82.16 L 197.38,84.58 L 188.80,79.70 L 187.53,63.49 L 184.83,60.86 L 184.83,32.67 L 186.39,26.19 L 184.83,24.19 L 184.83,17.22 L 202.04,0.45 L 202.78,0.00 L 396.64,0.00 L 396.49,0.30 L 382.71,10.30 L 390.95,16.53 L 390.95,29.77 L 387.46,37.10 L 392.43,41.61 L 394.52,61.03 L 404.43,68.51 L 407.91,78.94 L 411.44,81.05 L 405.58,82.37 L 407.69,87.39 L 443.76,124.00 L 443.68,136.64 L 447.89,146.93 L 444.19,147.98 L 442.73,154.35 L 446.03,164.97 L 442.95,167.28 L 440.94,163.10 L 429.95,157.35 L 421.94,155.78 L 416.73,157.73 L 412.26,153.50 L 400.80,154.69 L 399.53,150.76 L 396.23,152.57 L 388.97,147.44 L 384.35,150.18 L 343.59,149.15 L 343.23,146.24 L 338.91,144.78 L 324.09,146.44 L 284.97,143.37 L 274.03,144.15 L 272.97,148.98 L 225.31,148.98 Z M 185.10,63.81 L 184.83,63.59 L 184.83,62.57 L 185.10,63.81 Z" fill="#C8D8E8" stroke="#8BAABB" stroke-width="0.8"/>
<path d="M 614.86,67.07 L 604.43,68.45 L 595.79,55.67 L 577.38,44.03 L 562.50,42.83 L 550.84,50.75 L 539.02,68.96 L 531.46,71.57 L 535.20,81.66 L 534.48,102.04 L 528.96,96.48 L 520.95,98.53 L 518.55,102.02 L 514.99,98.94 L 506.40,99.77 L 504.65,97.00 L 492.68,93.75 L 476.58,99.84 L 463.34,100.18 L 457.11,113.51 L 457.60,124.97 L 446.88,146.07 L 442.43,121.27 L 437.37,115.60 L 432.77,115.24 L 407.69,87.39 L 405.58,82.37 L 411.44,81.05 L 407.91,78.94 L 404.43,68.51 L 394.52,61.03 L 392.43,41.61 L 387.46,37.10 L 390.95,29.77 L 390.95,16.53 L 382.71,10.30 L 396.49,0.30 L 396.64,0.00 L 615.17,0.00 L 615.17,67.22 L 614.86,67.07 Z" fill="#C8D8E8" stroke="#8BAABB" stroke-width="0.8"/>
<path d="M 535.20,81.66 L 531.46,71.57 L 539.02,68.96 L 550.84,50.75 L 562.50,42.83 L 577.38,44.03 L 595.79,55.67 L 604.43,68.45 L 614.86,67.07 L 615.17,67.22 L 615.17,487.38 L 602.30,487.41 L 605.55,474.15 L 595.10,474.24 L 594.20,477.23 L 566.54,477.23 L 566.23,494.32 L 560.59,497.71 L 560.59,500.00 L 485.79,500.00 L 482.57,492.49 L 474.31,484.48 L 475.29,477.69 L 467.95,466.71 L 465.73,458.00 L 466.47,448.13 L 460.25,437.86 L 366.82,435.68 L 345.31,437.43 L 329.33,434.71 L 324.68,436.53 L 323.11,440.61 L 313.33,443.21 L 313.61,440.70 L 311.44,441.57 L 306.16,435.22 L 306.51,431.92 L 315.46,431.55 L 316.24,411.37 L 313.15,407.52 L 321.55,402.84 L 325.99,396.23 L 335.38,393.52 L 336.19,390.49 L 347.10,401.44 L 358.55,394.29 L 358.64,385.96 L 366.86,387.58 L 382.70,379.66 L 385.66,385.11 L 381.40,389.76 L 383.19,401.47 L 387.46,399.87 L 392.93,401.96 L 398.60,398.93 L 411.95,381.88 L 421.08,377.40 L 423.76,371.82 L 437.30,366.79 L 448.53,345.15 L 447.42,304.65 L 458.85,294.10 L 470.28,271.96 L 477.06,265.80 L 487.28,262.86 L 503.09,245.26 L 501.90,233.53 L 510.10,213.01 L 507.28,190.12 L 514.61,170.97 L 514.65,149.18 L 534.00,114.52 L 535.20,81.66 Z M 332.85,436.63 L 323.92,439.21 L 326.89,436.76 L 332.85,436.63 Z" fill="#C8D8E8" stroke="#8BAABB" stroke-width="0.8"/>
<path d="M 338.85,158.50 L 337.68,169.51 L 342.04,178.63 L 338.42,181.53 L 352.50,180.57 L 361.50,175.16 L 374.02,176.70 L 377.87,178.87 L 378.97,186.06 L 385.60,193.83 L 380.62,204.28 L 371.56,207.21 L 366.88,213.98 L 364.23,219.49 L 366.02,228.42 L 362.80,233.88 L 372.26,236.43 L 374.56,242.82 L 380.32,242.44 L 386.39,248.04 L 382.88,262.65 L 386.31,276.99 L 385.43,281.97 L 381.91,284.24 L 384.91,286.90 L 383.33,294.30 L 377.44,297.50 L 374.14,306.18 L 377.24,310.84 L 372.07,315.99 L 363.32,314.84 L 365.48,311.02 L 359.65,301.61 L 349.47,313.92 L 331.93,311.47 L 333.34,308.03 L 326.05,295.24 L 319.88,291.87 L 314.66,295.44 L 312.52,293.98 L 315.13,301.55 L 313.68,309.95 L 299.47,312.99 L 295.03,309.92 L 288.51,313.00 L 281.71,309.94 L 283.79,320.79 L 280.44,329.17 L 284.24,327.97 L 289.31,334.14 L 286.05,340.06 L 295.25,344.79 L 290.97,354.39 L 293.86,356.98 L 286.06,358.96 L 278.72,352.17 L 269.05,358.90 L 265.52,367.48 L 260.14,358.70 L 248.78,350.12 L 248.39,345.17 L 222.14,323.21 L 215.02,314.00 L 218.29,316.07 L 219.91,314.49 L 224.82,320.64 L 231.24,318.65 L 230.56,317.02 L 225.07,318.20 L 221.14,312.79 L 216.76,314.98 L 215.75,311.71 L 215.02,313.73 L 211.21,310.74 L 210.09,305.03 L 199.54,293.72 L 206.56,295.36 L 209.28,300.67 L 208.37,295.50 L 203.24,291.66 L 202.02,294.13 L 198.98,292.23 L 197.71,283.09 L 190.43,273.64 L 189.24,270.60 L 190.53,273.24 L 195.53,279.09 L 199.31,281.50 L 199.87,286.50 L 209.87,284.08 L 206.18,279.17 L 200.10,282.60 L 198.73,279.59 L 201.80,276.60 L 201.84,272.47 L 201.39,275.61 L 196.48,277.03 L 190.91,273.04 L 191.02,269.25 L 185.09,261.50 L 186.53,262.63 L 187.53,261.02 L 184.83,259.87 L 184.83,254.42 L 187.29,251.13 L 190.24,257.84 L 193.44,248.00 L 200.81,238.42 L 202.20,213.79 L 202.73,220.04 L 205.02,219.07 L 207.31,223.00 L 207.89,219.79 L 210.84,222.50 L 215.34,221.70 L 218.91,225.68 L 216.99,222.03 L 226.55,219.79 L 218.20,220.04 L 207.66,216.11 L 200.78,207.04 L 201.14,204.10 L 209.13,202.12 L 209.86,204.27 L 206.94,204.36 L 206.45,205.08 L 210.36,205.08 L 210.36,208.26 L 211.60,209.72 L 211.03,190.21 L 216.51,188.58 L 223.63,193.41 L 226.69,190.59 L 273.48,190.75 L 274.03,144.15 L 308.75,143.67 L 324.09,146.44 L 338.91,144.78 L 343.23,146.24 L 338.85,158.50 Z M 191.32,250.51 L 190.07,253.81 L 188.02,250.22 L 191.32,250.51 Z M 203.58,197.54 L 203.43,197.63 L 203.32,197.52 L 203.58,197.54 Z" fill="#C8D8E8" stroke="#8BAABB" stroke-width="0.8"/>
<path d="M 534.00,114.52 L 514.65,149.18 L 514.61,170.97 L 507.28,190.12 L 510.10,213.01 L 501.90,233.53 L 503.09,245.26 L 487.28,262.86 L 477.06,265.80 L 470.28,271.96 L 458.85,294.10 L 447.42,304.65 L 448.53,345.15 L 437.30,366.79 L 423.76,371.82 L 421.08,377.40 L 411.95,381.88 L 398.60,398.93 L 392.93,401.96 L 387.46,399.87 L 383.19,401.47 L 381.40,389.76 L 385.66,385.11 L 382.70,379.66 L 366.86,387.58 L 358.64,385.96 L 358.55,394.29 L 347.10,401.44 L 337.07,390.40 L 334.02,391.66 L 328.38,384.49 L 324.51,383.75 L 319.57,389.77 L 311.10,391.42 L 308.77,397.60 L 304.12,397.08 L 297.58,406.25 L 290.80,397.84 L 290.31,390.41 L 265.52,367.48 L 269.05,358.90 L 278.72,352.17 L 286.06,358.96 L 293.86,356.98 L 290.97,354.39 L 295.25,344.79 L 286.05,340.06 L 289.31,334.14 L 284.24,327.97 L 280.44,329.17 L 283.79,320.79 L 281.71,309.94 L 288.51,313.00 L 295.03,309.92 L 299.47,312.99 L 313.68,309.95 L 315.13,301.55 L 312.52,293.98 L 314.66,295.44 L 319.88,291.87 L 326.05,295.24 L 333.34,308.03 L 331.93,311.47 L 349.47,313.92 L 359.65,301.61 L 365.48,311.02 L 363.32,314.84 L 372.07,315.99 L 377.24,310.84 L 374.14,306.18 L 377.62,297.23 L 383.07,294.80 L 384.91,286.90 L 381.91,284.24 L 385.43,281.97 L 386.31,276.99 L 382.87,263.16 L 386.39,248.04 L 380.32,242.44 L 374.56,242.82 L 372.26,236.43 L 362.80,233.88 L 366.02,228.42 L 364.23,219.49 L 366.88,213.98 L 371.56,207.21 L 380.62,204.28 L 385.60,193.83 L 378.97,186.06 L 377.87,178.87 L 374.02,176.70 L 361.50,175.16 L 352.50,180.57 L 338.42,181.53 L 342.04,178.63 L 337.68,169.51 L 338.85,158.50 L 343.59,149.15 L 384.35,150.18 L 388.97,147.44 L 396.23,152.57 L 399.53,150.76 L 400.80,154.69 L 412.26,153.50 L 416.73,157.73 L 421.94,155.78 L 429.95,157.35 L 440.94,163.10 L 442.95,167.28 L 446.14,164.41 L 442.77,155.67 L 443.52,149.57 L 447.89,146.93 L 457.60,124.97 L 457.11,113.51 L 461.88,101.15 L 483.31,98.28 L 492.68,93.75 L 504.65,97.00 L 506.40,99.77 L 514.99,98.94 L 518.55,102.02 L 520.95,98.53 L 528.96,96.48 L 534.48,102.04 L 534.00,114.52 Z" fill="#4A90D9" stroke="#1a5fa8" stroke-width="1.2"/>
<path d="M 512.64,261.34 L 508.93,255.86 L 509.91,252.39 L 505.24,252.17 L 505.24,249.73 L 516.31,251.44 L 517.88,261.75 L 514.67,262.23 L 514.82,260.24 L 512.64,261.34 Z" fill="#A8C8E8" stroke="none"/>
<path d="M 234.91,262.46 L 228.75,262.35 L 230.48,263.00 L 226.05,266.93 L 224.54,266.56 L 228.51,262.24 L 225.33,262.24 L 225.07,254.64 L 228.00,258.79 L 229.86,257.08 L 231.12,261.08 L 234.80,260.33 L 234.91,262.46 Z" fill="#A8C8E8" stroke="none"/>
<path d="M 522.66,314.26 L 520.70,322.84 L 518.51,323.58 L 523.18,302.49 L 518.73,298.80 L 518.12,292.04 L 513.82,289.88 L 514.82,286.31 L 519.25,288.76 L 519.95,283.60 L 523.67,286.31 L 530.54,282.86 L 528.33,288.02 L 522.91,290.22 L 522.25,296.78 L 525.11,298.80 L 527.88,297.16 L 527.13,304.65 L 532.89,300.79 L 522.66,314.26 Z" fill="#A8C8E8" stroke="none"/>
<path d="M 330.46,0.16 L 330.48,0.00 L 333.13,0.00 L 333.09,0.31 L 327.07,1.15 L 325.56,0.00 L 330.23,0.00 L 330.46,0.16 Z" fill="#A8C8E8" stroke="none"/>
</svg>