<svg xmlns="http://www.w3.org/2000/svg" width="800" height="500" viewBox="0 0 800 500">
<rect width="800" height="500" fill="#A8C8E8"/>
<path d="M 349.11,10.87 L 330.77,43.94 L 334.71,68.67 L 322.57,109.94 L 330.81,129.11 L 307.76,153.17 L 262.74,144.04 L 250.89,165.12 L 269.77,168.97 L 228.53,217.13 L 203.78,229.18 L 202.29,257.83 L 167.76,285.54 L 160.63,311.18 L 169.61,318.83 L 165.05,337.17 L 149.59,345.47 L 150.03,356.32 L 170.20,353.24 L 185.85,339.20 L 178.40,327.42 L 184.50,318.11 L 208.26,306.62 L 242.05,312.00 L 237.97,322.72 L 246.56,334.60 L 239.67,353.02 L 268.16,388.39 L 243.57,403.83 L 243.03,420.75 L 283.56,468.75 L 271.87,499.57 L 270.62,500.00 L 0.00,500.00 L 0.00,0.00 L 350.79,0.00 L 349.11,10.87 Z" fill="#E8E0D0" stroke="#B8B0A0" stroke-width="0.5"/>
<path d="M 791.74,225.05 L 729.48,226.11 L 709.75,256.54 L 653.02,244.46 L 640.48,221.04 L 611.36,244.35 L 585.13,231.80 L 583.22,218.04 L 552.47,211.57 L 545.80,179.40 L 560.06,156.44 L 548.72,136.94 L 574.79,128.52 L 601.51,144.22 L 608.20,164.35 L 622.25,162.26 L 616.76,178.10 L 646.58,158.58 L 646.68,130.30 L 694.39,137.54 L 707.81,159.44 L 736.43,158.90 L 779.03,128.33 L 800.00,127.50 L 800.00,222.06 L 791.74,225.05 Z" fill="#C8D8E8" stroke="#8BAABB" stroke-width="0.8"/>
<path d="M 282.76,396.00 L 325.82,379.19 L 359.44,389.33 L 389.09,356.87 L 386.51,334.24 L 421.15,306.06 L 425.48,339.93 L 466.67,362.69 L 462.12,379.35 L 473.56,384.98 L 476.79,403.83 L 488.17,404.72 L 494.91,392.50 L 488.13,370.57 L 512.88,340.59 L 519.26,299.00 L 536.19,298.85 L 547.50,330.05 L 589.94,318.72 L 607.41,342.33 L 616.66,335.70 L 609.19,325.31 L 614.63,313.76 L 601.92,306.98 L 602.64,293.43 L 620.34,278.77 L 648.32,292.69 L 650.00,279.28 L 640.01,271.65 L 649.41,241.64 L 709.75,256.54 L 729.48,226.11 L 791.74,225.05 L 800.00,222.06 L 800.00,500.00 L 260.34,500.00 L 277.75,492.46 L 283.56,468.75 L 263.79,453.10 L 261.64,432.85 L 241.48,411.48 L 268.16,388.39 L 282.76,396.00 Z" fill="#C8D8E8" stroke="#8BAABB" stroke-width="0.8"/>
<path d="M 556.30,203.78 L 552.47,211.57 L 540.90,210.48 L 545.80,179.40 L 556.30,203.78 Z" fill="#C8D8E8" stroke="#8BAABB" stroke-width="0.8"/>
<path d="M 779.03,128.33 L 736.43,158.90 L 707.81,159.44 L 694.39,137.54 L 646.68,130.30 L 646.58,158.58 L 616.76,178.10 L 622.25,162.26 L 608.20,164.35 L 592.99,135.96 L 574.79,128.52 L 555.96,138.92 L 508.27,115.71 L 474.76,117.94 L 438.82,95.28 L 420.27,116.48 L 444.27,117.91 L 440.59,127.89 L 402.68,123.28 L 381.50,132.87 L 333.45,132.22 L 338.99,127.24 L 330.81,129.11 L 322.57,109.94 L 334.71,68.67 L 330.02,46.32 L 349.11,10.87 L 350.79,0.00 L 800.00,0.00 L 800.00,127.50 L 779.03,128.33 Z" fill="#C8D8E8" stroke="#8BAABB" stroke-width="0.8"/>
<path d="M 640.01,271.65 L 650.00,279.28 L 648.32,292.69 L 620.34,278.77 L 602.64,293.43 L 601.92,306.98 L 614.63,313.76 L 612.10,340.60 L 603.74,342.26 L 589.94,318.72 L 547.50,330.05 L 536.19,298.85 L 517.14,300.91 L 512.88,340.59 L 488.13,370.57 L 494.91,392.50 L 488.17,404.72 L 476.79,403.83 L 473.56,384.98 L 462.12,379.35 L 466.67,362.69 L 425.48,339.93 L 421.15,306.06 L 386.51,334.24 L 389.09,356.87 L 358.05,390.08 L 325.82,379.19 L 273.14,393.86 L 240.64,355.65 L 242.05,312.00 L 222.79,305.48 L 188.11,315.07 L 178.40,327.42 L 185.85,339.20 L 150.03,356.32 L 150.00,343.59 L 164.57,338.21 L 169.76,320.56 L 160.63,311.18 L 167.76,285.54 L 202.29,257.83 L 203.78,229.18 L 228.53,217.13 L 269.77,168.97 L 250.89,165.12 L 262.74,144.04 L 285.79,144.17 L 292.16,155.34 L 336.48,127.49 L 341.63,135.42 L 439.09,128.37 L 444.27,117.91 L 420.27,116.48 L 438.82,95.28 L 474.76,117.94 L 518.25,118.88 L 560.15,149.82 L 542.04,187.64 L 540.90,210.48 L 583.22,218.04 L 585.13,231.80 L 611.36,244.35 L 641.10,221.16 L 649.41,241.64 L 640.01,271.65 Z" fill="#4A90D9" stroke="#1a5fa8" stroke-width="1.2"/>
<path d="M 258.52,310.60 L 187.36,318.28 L 169.41,344.73 L 191.78,304.62 L 221.01,295.10 L 258.52,310.60 Z" fill="#A8C8E8" stroke="none"/>
<path d="M 542.85,144.19 L 491.47,92.22 L 523.71,113.93 L 567.73,135.04 L 542.85,144.19 Z" fill="#A8C8E8" stroke="none"/>
<path d="M 502.06,115.68 L 489.67,114.34 L 481.76,118.21 L 474.69,117.88 L 488.43,110.43 L 482.28,103.85 L 502.06,115.68 Z" fill="#A8C8E8" stroke="none"/>
<path d="M 444.34,391.00 L 442.81,418.92 L 431.56,386.44 L 445.19,383.73 L 470.80,350.29 L 444.34,391.00 Z" fill="#A8C8E8" stroke="none"/>
<path d="M 677.97,431.06 L 676.86,462.75 L 655.83,455.11 L 662.73,447.16 L 657.37,437.96 L 694.00,393.02 L 677.97,431.06 Z" fill="#A8C8E8" stroke="none"/>
</svg>