<svg xmlns="http://www.w3.org/2000/svg" width="800" height="500" viewBox="0 0 800 500">
<rect width="800" height="500" fill="#A8C8E8"/>
<path d="M 351.01,10.87 L 333.36,43.94 L 337.15,68.67 L 325.47,109.94 L 333.40,129.11 L 311.21,153.17 L 267.88,144.04 L 256.47,165.12 L 274.64,168.97 L 234.95,217.13 L 211.13,229.18 L 209.69,257.83 L 176.46,285.54 L 169.59,311.18 L 178.24,318.83 L 173.85,337.17 L 158.96,345.47 L 159.39,356.32 L 178.80,353.24 L 193.86,339.20 L 186.69,327.42 L 192.57,318.11 L 215.44,306.62 L 247.96,312.00 L 244.04,322.72 L 252.30,334.60 L 245.67,353.02 L 273.09,388.39 L 249.43,403.83 L 248.91,420.75 L 287.91,468.75 L 276.66,499.57 L 275.46,500.00 L 14.97,500.00 L 14.97,0.00 L 352.63,0.00 L 351.01,10.87 Z" fill="#E8E0D0" stroke="#B8B0A0" stroke-width="0.5"/>
<path d="M 777.07,225.05 L 717.15,226.11 L 698.16,256.54 L 643.55,244.46 L 631.48,221.04 L 603.45,244.35 L 578.20,231.80 L 576.36,218.04 L 546.76,211.57 L 540.34,179.40 L 554.07,156.44 L 543.16,136.94 L 568.25,128.52 L 593.97,144.22 L 600.41,164.35 L 613.93,162.26 L 608.64,178.10 L 637.35,158.58 L 637.45,130.30 L 683.37,137.54 L 696.29,159.44 L 723.83,158.90 L 764.84,128.33 L 785.03,127.50 L 785.03,222.06 L 777.07,225.05 Z" fill="#C8D8E8" stroke="#8BAABB" stroke-width="0.8"/>
<path d="M 287.15,396.00 L 328.60,379.19 L 360.96,389.33 L 389.50,356.87 L 387.01,334.24 L 420.36,306.06 L 424.52,339.93 L 464.18,362.69 L 459.79,379.35 L 470.81,384.98 L 473.92,403.83 L 484.87,404.72 L 491.36,392.50 L 484.84,370.57 L 508.65,340.59 L 514.80,299.00 L 531.09,298.85 L 541.98,330.05 L 582.83,318.72 L 599.65,342.33 L 608.55,335.70 L 601.36,325.31 L 606.60,313.76 L 594.37,306.98 L 595.05,293.43 L 612.09,278.77 L 639.03,292.69 L 640.64,279.28 L 631.03,271.65 L 640.08,241.64 L 698.16,256.54 L 717.15,226.11 L 777.07,225.05 L 785.03,222.06 L 785.03,500.00 L 265.57,500.00 L 282.32,492.46 L 287.91,468.75 L 268.89,453.10 L 266.82,432.85 L 247.42,411.48 L 273.09,388.39 L 287.15,396.00 Z" fill="#C8D8E8" stroke="#8BAABB" stroke-width="0.8"/>
<path d="M 550.45,203.78 L 546.76,211.57 L 535.62,210.48 L 540.34,179.40 L 550.45,203.78 Z" fill="#C8D8E8" stroke="#8BAABB" stroke-width="0.8"/>
<path d="M 764.84,128.33 L 723.83,158.90 L 696.29,159.44 L 683.37,137.54 L 637.45,130.30 L 637.35,158.58 L 608.64,178.10 L 613.93,162.26 L 600.41,164.35 L 585.77,135.96 L 568.25,128.52 L 550.12,138.92 L 504.22,115.71 L 471.96,117.94 L 437.37,95.28 L 419.52,116.48 L 442.62,117.91 L 439.07,127.89 L 402.58,123.28 L 382.19,132.87 L 335.94,132.22 L 341.28,127.24 L 333.40,129.11 L 325.47,109.94 L 337.15,68.67 L 332.64,46.32 L 351.01,10.87 L 352.63,0.00 L 785.03,0.00 L 785.03,127.50 L 764.84,128.33 Z" fill="#C8D8E8" stroke="#8BAABB" stroke-width="0.8"/>
<path d="M 631.03,271.65 L 640.64,279.28 L 639.03,292.69 L 612.09,278.77 L 595.05,293.43 L 594.37,306.98 L 606.60,313.76 L 604.16,340.60 L 596.11,342.26 L 582.83,318.72 L 541.98,330.05 L 531.09,298.85 L 512.75,300.91 L 508.65,340.59 L 484.84,370.57 L 491.36,392.50 L 484.87,404.72 L 473.92,403.83 L 470.81,384.98 L 459.79,379.35 L 464.18,362.69 L 424.52,339.93 L 420.36,306.06 L 387.01,334.24 L 389.50,356.87 L 359.62,390.08 L 328.60,379.19 L 277.89,393.86 L 246.60,355.65 L 247.96,312.00 L 229.42,305.48 L 196.04,315.07 L 186.69,327.42 L 193.86,339.20 L 159.39,356.32 L 159.36,343.59 L 173.38,338.21 L 178.38,320.56 L 169.59,311.18 L 176.46,285.54 L 209.69,257.83 L 211.13,229.18 L 234.95,217.13 L 274.64,168.97 L 256.47,165.12 L 267.88,144.04 L 290.07,144.17 L 296.19,155.34 L 338.86,127.49 L 343.82,135.42 L 437.63,128.37 L 442.62,117.91 L 419.52,116.48 L 437.37,95.28 L 471.96,117.94 L 513.83,118.88 L 554.16,149.82 L 536.73,187.64 L 535.62,210.48 L 576.36,218.04 L 578.20,231.80 L 603.45,244.35 L 632.08,221.16 L 640.08,241.64 L 631.03,271.65 Z" fill="#4A90D9" stroke="#1a5fa8" stroke-width="1.2"/>
<path d="M 263.82,310.60 L 195.32,318.28 L 178.04,344.73 L 199.57,304.62 L 227.71,295.10 L 263.82,310.60 Z" fill="#A8C8E8" stroke="none"/>
<path d="M 537.50,144.19 L 488.04,92.22 L 519.08,113.93 L 561.45,135.04 L 537.50,144.19 Z" fill="#A8C8E8" stroke="none"/>
<path d="M 498.24,115.68 L 486.31,114.34 L 478.70,118.21 L 471.90,117.88 L 485.12,110.43 L 479.20,103.85 L 498.24,115.68 Z" fill="#A8C8E8" stroke="none"/>
<path d="M 442.68,391.00 L 441.20,418.92 L 430.38,386.44 L 443.50,383.73 L 468.15,350.29 L 442.68,391.00 Z" fill="#A8C8E8" stroke="none"/>
<path d="M 667.57,431.06 L 666.50,462.75 L 646.26,455.11 L 652.90,447.16 L 647.74,437.96 L 682.99,393.02 L 667.57,431.06 Z" fill="#A8C8E8" stroke="none"/>
</svg>