<svg xmlns="http://www.w3.org/2000/svg" width="800" height="500" viewBox="0 0 800 500">
<rect width="800" height="500" fill="#A8C8E8"/>
<path d="M 169.03,218.28 L 162.64,221.62 L 162.64,207.15 L 170.91,203.52 L 169.03,218.28 Z" fill="#E8E0D0" stroke="#B8B0A0" stroke-width="0.5"/>
<path d="M 629.82,80.07 L 532.28,80.45 L 527.66,98.26 L 535.67,108.70 L 532.09,112.51 L 536.28,116.55 L 537.30,138.00 L 534.32,143.03 L 539.47,154.35 L 535.86,159.10 L 513.96,133.45 L 509.74,137.10 L 508.99,134.15 L 487.74,132.46 L 468.55,138.22 L 457.83,149.74 L 451.49,146.21 L 451.09,141.80 L 442.79,144.89 L 437.19,141.34 L 437.09,137.03 L 428.95,134.17 L 429.08,127.35 L 423.90,123.93 L 421.52,114.95 L 407.77,114.60 L 401.94,108.49 L 406.36,87.96 L 402.83,76.80 L 411.16,74.41 L 416.71,59.69 L 413.37,43.20 L 407.29,39.79 L 422.97,32.41 L 438.89,31.07 L 448.64,24.08 L 452.15,15.69 L 456.13,16.34 L 453.92,10.08 L 457.05,5.25 L 454.22,0.00 L 637.36,0.00 L 637.36,83.92 L 629.82,80.07 Z" fill="#C8D8E8" stroke="#8BAABB" stroke-width="0.8"/>
<path d="M 631.19,363.61 L 591.44,373.03 L 573.83,386.26 L 568.24,386.94 L 555.62,378.07 L 518.58,369.66 L 535.71,366.25 L 534.60,357.15 L 537.48,355.86 L 534.41,344.36 L 527.01,344.35 L 526.09,339.38 L 522.94,339.65 L 511.64,294.95 L 512.65,285.47 L 525.70,265.68 L 527.22,247.95 L 534.55,230.02 L 543.29,225.29 L 543.28,219.17 L 548.35,217.00 L 542.86,182.02 L 535.31,175.59 L 540.90,164.92 L 534.32,143.03 L 537.30,138.00 L 536.28,116.55 L 532.09,112.51 L 535.67,108.70 L 527.66,98.26 L 532.28,80.45 L 629.82,80.07 L 637.36,83.92 L 637.36,360.39 L 631.19,363.61 Z" fill="#C8D8E8" stroke="#8BAABB" stroke-width="0.8"/>
<path d="M 171.65,20.73 L 198.05,30.15 L 202.65,23.06 L 216.80,18.18 L 218.14,13.88 L 213.12,9.10 L 220.24,7.15 L 234.31,13.34 L 233.42,20.39 L 242.96,35.06 L 240.56,48.14 L 246.42,48.56 L 249.81,56.05 L 263.47,62.36 L 247.67,81.41 L 254.52,81.75 L 257.14,77.77 L 265.83,79.19 L 267.88,104.29 L 283.08,115.52 L 273.25,132.17 L 274.03,152.29 L 279.06,159.23 L 288.22,158.21 L 285.10,169.28 L 293.98,174.54 L 284.99,178.45 L 283.19,187.45 L 296.40,196.65 L 298.07,208.89 L 290.24,203.85 L 288.21,206.64 L 283.12,202.91 L 269.61,205.04 L 268.77,215.20 L 281.52,218.23 L 283.50,226.50 L 278.33,225.81 L 271.97,247.99 L 261.55,246.20 L 258.12,248.89 L 254.14,242.51 L 248.36,242.21 L 240.05,262.84 L 227.06,266.90 L 221.77,257.54 L 209.33,257.80 L 215.89,239.88 L 207.41,218.16 L 208.92,210.43 L 200.27,208.08 L 201.57,204.49 L 198.09,205.92 L 195.60,199.68 L 181.61,206.57 L 177.42,201.58 L 166.42,203.02 L 162.64,206.89 L 162.64,24.43 L 171.65,20.73 Z" fill="#C8D8E8" stroke="#8BAABB" stroke-width="0.8"/>
<path d="M 169.03,218.28 L 170.91,203.52 L 180.18,202.27 L 181.61,206.57 L 195.60,199.68 L 198.09,205.92 L 201.57,204.49 L 200.27,208.08 L 208.92,210.43 L 207.41,218.16 L 215.89,239.88 L 209.33,257.80 L 221.77,257.54 L 227.06,266.90 L 237.41,263.96 L 248.36,242.21 L 254.14,242.51 L 261.03,251.63 L 267.89,275.33 L 265.30,287.11 L 251.65,301.04 L 261.38,303.08 L 261.70,308.52 L 285.84,311.87 L 292.04,327.22 L 306.23,334.66 L 308.55,332.71 L 311.31,358.61 L 302.28,370.60 L 303.55,378.35 L 300.83,379.16 L 303.98,405.82 L 269.20,394.70 L 228.05,372.59 L 168.41,318.51 L 162.64,316.50 L 162.64,221.62 L 169.03,218.28 Z" fill="#C8D8E8" stroke="#8BAABB" stroke-width="0.8"/>
<path d="M 457.05,5.25 L 453.92,10.08 L 456.13,16.34 L 452.15,15.69 L 448.64,24.08 L 438.89,31.07 L 422.97,32.41 L 407.29,39.79 L 413.37,43.20 L 416.71,59.69 L 411.16,74.41 L 402.83,76.80 L 406.36,87.96 L 403.93,103.11 L 401.94,108.49 L 384.68,110.91 L 377.99,120.02 L 367.12,116.98 L 370.00,108.75 L 366.08,104.15 L 368.84,98.49 L 366.34,93.75 L 358.04,95.73 L 357.12,102.28 L 346.28,97.29 L 346.30,111.64 L 332.11,112.43 L 329.46,122.42 L 312.59,116.97 L 305.88,106.86 L 297.97,107.92 L 289.99,118.96 L 282.19,121.39 L 281.87,113.25 L 270.58,108.59 L 267.34,103.01 L 265.83,79.19 L 257.14,77.77 L 254.52,81.75 L 247.89,82.18 L 263.47,62.36 L 249.81,56.05 L 246.42,48.56 L 240.56,48.14 L 241.89,30.78 L 236.93,29.17 L 234.31,13.34 L 225.99,8.60 L 213.82,8.22 L 218.14,13.88 L 216.80,18.18 L 202.65,23.06 L 198.05,30.15 L 171.65,20.73 L 162.64,24.43 L 162.64,0.00 L 454.22,0.00 L 457.05,5.25 Z" fill="#C8D8E8" stroke="#8BAABB" stroke-width="0.8"/>
<path d="M 289.99,118.96 L 297.97,107.92 L 305.88,106.86 L 312.59,116.97 L 329.46,122.42 L 332.11,112.43 L 346.30,111.64 L 346.28,97.29 L 357.12,102.28 L 358.04,95.73 L 366.34,93.75 L 368.84,98.49 L 366.08,104.15 L 370.00,108.75 L 367.12,116.98 L 377.99,120.02 L 384.68,110.91 L 398.47,107.09 L 407.77,114.60 L 420.72,114.42 L 423.90,123.93 L 429.08,127.35 L 428.95,134.17 L 437.09,137.03 L 437.19,141.34 L 442.79,144.89 L 451.09,141.80 L 451.49,146.21 L 457.83,149.74 L 468.55,138.22 L 487.74,132.46 L 508.99,134.15 L 509.74,137.10 L 513.96,133.45 L 533.59,158.15 L 539.47,154.35 L 540.83,165.85 L 535.31,175.59 L 542.86,182.02 L 548.35,217.00 L 543.28,219.17 L 543.29,225.29 L 534.55,230.02 L 527.22,247.95 L 525.70,265.68 L 513.47,283.58 L 511.64,294.95 L 522.94,339.65 L 526.09,339.38 L 527.01,344.35 L 534.79,345.00 L 535.71,366.25 L 517.63,367.17 L 514.43,363.43 L 517.29,356.07 L 511.66,357.44 L 509.23,368.26 L 489.37,362.46 L 484.22,364.46 L 475.75,361.08 L 489.01,361.08 L 489.65,360.31 L 487.55,356.20 L 485.31,355.73 L 488.27,360.72 L 480.39,357.08 L 476.37,360.96 L 469.75,359.08 L 464.14,360.23 L 462.52,358.84 L 453.82,361.45 L 448.49,359.45 L 442.49,362.79 L 443.16,358.78 L 436.60,365.30 L 466.92,360.42 L 476.05,362.79 L 432.52,367.83 L 426.83,363.56 L 411.70,362.86 L 407.94,367.18 L 418.23,366.09 L 416.22,364.12 L 427.19,367.83 L 385.98,372.67 L 334.93,390.68 L 308.05,406.25 L 302.37,404.72 L 302.28,370.60 L 311.31,358.61 L 308.55,332.71 L 306.23,334.66 L 292.04,327.22 L 285.84,311.87 L 261.70,308.52 L 261.38,303.08 L 251.65,301.04 L 264.61,288.19 L 267.77,276.51 L 258.12,248.89 L 261.55,246.20 L 270.57,249.56 L 278.33,225.81 L 283.50,226.50 L 281.52,218.23 L 268.77,215.20 L 269.34,205.38 L 283.12,202.91 L 298.07,208.89 L 296.40,196.65 L 283.19,187.45 L 284.99,178.45 L 293.98,174.54 L 285.10,169.28 L 288.22,158.21 L 279.06,159.23 L 274.03,152.29 L 273.25,132.17 L 282.19,121.39 L 289.99,118.96 Z M 518.58,369.66 L 510.97,368.35 L 513.02,366.13 L 518.58,369.66 Z" fill="#4A90D9" stroke="#1a5fa8" stroke-width="1.2"/>
<path d="M 423.87,310.61 L 422.69,315.38 L 417.84,310.46 L 416.88,307.10 L 421.85,313.46 L 423.87,310.61 Z" fill="#A8C8E8" stroke="none"/>
<path d="M 635.07,283.60 L 637.36,284.94 L 637.36,286.30 L 635.07,283.60 Z M 633.08,222.83 L 637.36,220.45 L 637.36,221.56 L 633.08,222.83 Z M 628.83,211.58 L 633.10,210.83 L 620.07,194.24 L 614.34,195.22 L 613.80,201.08 L 612.11,194.40 L 607.79,194.80 L 602.95,190.33 L 594.48,195.36 L 586.87,196.37 L 603.13,189.32 L 603.13,185.95 L 609.46,193.69 L 620.79,193.33 L 620.23,189.32 L 612.69,187.87 L 616.75,187.65 L 612.66,181.83 L 614.10,172.58 L 616.75,177.26 L 614.49,182.32 L 619.27,187.31 L 620.46,184.28 L 628.10,200.20 L 631.73,197.15 L 629.10,193.86 L 631.39,189.32 L 630.10,193.69 L 634.43,197.38 L 635.76,194.70 L 636.06,197.38 L 630.00,203.45 L 637.36,208.82 L 637.36,216.06 L 628.83,211.58 Z" fill="#A8C8E8" stroke="none"/>
<path d="M 405.47,262.05 L 409.86,261.62 L 408.23,264.50 L 404.20,265.32 L 410.22,274.56 L 408.54,279.24 L 392.90,271.52 L 393.72,267.57 L 389.92,265.48 L 392.27,264.50 L 386.57,260.13 L 390.50,259.97 L 389.89,248.70 L 393.20,246.22 L 391.90,231.60 L 395.25,234.97 L 401.75,221.90 L 404.25,222.57 L 399.22,230.26 L 402.27,230.92 L 396.77,238.36 L 403.23,235.63 L 397.24,245.19 L 399.54,251.66 L 394.00,251.46 L 393.23,255.42 L 397.24,256.11 L 395.25,260.49 L 399.70,266.50 L 400.22,256.76 L 402.90,256.41 L 400.58,253.42 L 404.45,254.24 L 405.43,248.06 L 408.90,253.75 L 406.55,258.13 L 410.56,255.12 L 405.47,262.05 Z" fill="#A8C8E8" stroke="none"/>
<path d="M 328.06,312.80 L 319.68,313.56 L 320.62,310.43 L 308.82,303.88 L 306.10,297.02 L 322.82,309.93 L 326.39,302.55 L 328.36,306.44 L 329.35,300.01 L 324.09,296.86 L 330.45,293.50 L 326.38,282.44 L 328.36,274.20 L 333.66,299.86 L 328.06,312.80 Z" fill="#A8C8E8" stroke="none"/>
</svg>