<svg xmlns="http://www.w3.org/2000/svg" width="800" height="500" viewBox="0 0 800 500">
<rect width="800" height="500" fill="#A8C8E8"/>
<path d="M 10.76,218.28 L 0.00,221.62 L 0.00,207.15 L 13.92,203.52 L 10.76,218.28 Z" fill="#E8E0D0" stroke="#B8B0A0" stroke-width="0.5"/>
<path d="M 787.31,80.07 L 622.92,80.45 L 615.14,98.26 L 628.63,108.70 L 622.60,112.51 L 629.66,116.55 L 631.38,138.00 L 626.36,143.03 L 635.04,154.35 L 628.95,159.10 L 592.05,133.45 L 584.94,137.10 L 583.67,134.15 L 547.85,132.46 L 515.52,138.22 L 497.45,149.74 L 486.78,146.21 L 486.10,141.80 L 472.10,144.89 L 462.67,141.34 L 462.50,137.03 L 448.79,134.17 L 449.01,127.35 L 440.28,123.93 L 436.27,114.95 L 413.09,114.60 L 403.27,108.49 L 410.72,87.96 L 404.77,76.80 L 418.82,74.41 L 428.16,59.69 L 422.53,43.20 L 412.28,39.79 L 438.71,32.41 L 465.54,31.07 L 481.97,24.08 L 487.88,15.69 L 494.59,16.34 L 490.87,10.08 L 496.14,5.25 L 491.38,0.00 L 800.00,0.00 L 800.00,83.92 L 787.31,80.07 Z" fill="#C8D8E8" stroke="#8BAABB" stroke-width="0.8"/>
<path d="M 789.62,363.61 L 722.63,373.03 L 692.94,386.26 L 683.52,386.94 L 662.25,378.07 L 599.83,369.66 L 628.71,366.25 L 626.83,357.15 L 631.69,355.86 L 626.51,344.36 L 614.05,344.35 L 612.50,339.38 L 607.18,339.65 L 588.14,294.95 L 589.85,285.47 L 611.84,265.68 L 614.40,247.95 L 626.74,230.02 L 641.47,225.29 L 641.47,219.17 L 650.00,217.00 L 640.75,182.02 L 628.04,175.59 L 637.45,164.92 L 626.36,143.03 L 631.38,138.00 L 629.66,116.55 L 622.60,112.51 L 628.63,108.70 L 615.14,98.26 L 622.92,80.45 L 787.31,80.07 L 800.00,83.92 L 800.00,360.39 L 789.62,363.61 Z" fill="#C8D8E8" stroke="#8BAABB" stroke-width="0.8"/>
<path d="M 15.17,20.73 L 59.67,30.15 L 67.43,23.06 L 91.26,18.18 L 93.52,13.88 L 85.06,9.10 L 97.06,7.15 L 120.78,13.34 L 119.28,20.39 L 135.35,35.06 L 131.31,48.14 L 141.18,48.56 L 146.89,56.05 L 169.91,62.36 L 143.29,81.41 L 154.84,81.75 L 159.24,77.77 L 173.90,79.19 L 177.35,104.29 L 202.97,115.52 L 186.39,132.17 L 187.72,152.29 L 196.19,159.23 L 211.62,158.21 L 206.37,169.28 L 221.33,174.54 L 206.19,178.45 L 203.15,187.45 L 225.41,196.65 L 228.22,208.89 L 215.02,203.85 L 211.61,206.64 L 203.02,202.91 L 180.25,205.04 L 178.85,215.20 L 200.34,218.23 L 203.67,226.50 L 194.96,225.81 L 184.23,247.99 L 166.68,246.20 L 160.90,248.89 L 154.20,242.51 L 144.45,242.21 L 130.44,262.84 L 108.55,266.90 L 99.64,257.54 L 78.67,257.80 L 89.73,239.88 L 75.45,218.16 L 77.98,210.43 L 63.41,208.08 L 65.60,204.49 L 59.74,205.92 L 55.53,199.68 L 31.96,206.57 L 24.90,201.58 L 6.36,203.02 L 0.00,206.89 L 0.00,24.43 L 15.17,20.73 Z" fill="#C8D8E8" stroke="#8BAABB" stroke-width="0.8"/>
<path d="M 10.76,218.28 L 13.92,203.52 L 29.56,202.27 L 31.96,206.57 L 55.53,199.68 L 59.74,205.92 L 65.60,204.49 L 63.41,208.08 L 77.98,210.43 L 75.45,218.16 L 89.73,239.88 L 78.67,257.80 L 99.64,257.54 L 108.55,266.90 L 125.99,263.96 L 144.45,242.21 L 154.20,242.51 L 165.80,251.63 L 177.37,275.33 L 173.00,287.11 L 150.00,301.04 L 166.40,303.08 L 166.93,308.52 L 207.62,311.87 L 218.07,327.22 L 241.97,334.66 L 245.89,332.71 L 250.53,358.61 L 235.31,370.60 L 237.46,378.35 L 232.88,379.16 L 238.19,405.82 L 179.56,394.70 L 110.22,372.59 L 9.72,318.51 L 0.00,316.50 L 0.00,221.62 L 10.76,218.28 Z" fill="#C8D8E8" stroke="#8BAABB" stroke-width="0.8"/>
<path d="M 496.14,5.25 L 490.87,10.08 L 494.59,16.34 L 487.88,15.69 L 481.97,24.08 L 465.54,31.07 L 438.71,32.41 L 412.28,39.79 L 422.53,43.20 L 428.16,59.69 L 418.82,74.41 L 404.77,76.80 L 410.72,87.96 L 406.62,103.11 L 403.27,108.49 L 374.19,110.91 L 362.91,120.02 L 344.58,116.98 L 349.44,108.75 L 342.84,104.15 L 347.49,98.49 L 343.28,93.75 L 329.28,95.73 L 327.73,102.28 L 309.47,97.29 L 309.50,111.64 L 285.58,112.43 L 281.12,122.42 L 252.69,116.97 L 241.39,106.86 L 228.06,107.92 L 214.60,118.96 L 201.46,121.39 L 200.92,113.25 L 181.89,108.59 L 176.44,103.01 L 173.90,79.19 L 159.24,77.77 L 154.84,81.75 L 143.66,82.18 L 169.91,62.36 L 146.89,56.05 L 141.18,48.56 L 131.31,48.14 L 133.55,30.78 L 125.18,29.17 L 120.78,13.34 L 106.76,8.60 L 86.24,8.22 L 93.52,13.88 L 91.26,18.18 L 67.43,23.06 L 59.67,30.15 L 15.17,20.73 L 0.00,24.43 L 0.00,0.00 L 491.38,0.00 L 496.14,5.25 Z" fill="#C8D8E8" stroke="#8BAABB" stroke-width="0.8"/>
<path d="M 214.60,118.96 L 228.06,107.92 L 241.39,106.86 L 252.69,116.97 L 281.12,122.42 L 285.58,112.43 L 309.50,111.64 L 309.47,97.29 L 327.73,102.28 L 329.28,95.73 L 343.28,93.75 L 347.49,98.49 L 342.84,104.15 L 349.44,108.75 L 344.58,116.98 L 362.91,120.02 L 374.19,110.91 L 397.42,107.09 L 413.09,114.60 L 434.92,114.42 L 440.28,123.93 L 449.01,127.35 L 448.79,134.17 L 462.50,137.03 L 462.67,141.34 L 472.10,144.89 L 486.10,141.80 L 486.78,146.21 L 497.45,149.74 L 515.52,138.22 L 547.85,132.46 L 583.67,134.15 L 584.94,137.10 L 592.05,133.45 L 625.13,158.15 L 635.04,154.35 L 637.34,165.85 L 628.04,175.59 L 640.75,182.02 L 650.00,217.00 L 641.47,219.17 L 641.47,225.29 L 626.74,230.02 L 614.40,247.95 L 611.84,265.68 L 591.22,283.58 L 588.14,294.95 L 607.18,339.65 L 612.50,339.38 L 614.05,344.35 L 627.16,345.00 L 628.71,366.25 L 598.23,367.17 L 592.84,363.43 L 597.67,356.07 L 588.18,357.44 L 584.08,368.26 L 550.60,362.46 L 541.93,364.46 L 527.66,361.08 L 549.99,361.08 L 551.07,360.31 L 547.54,356.20 L 543.77,355.73 L 548.76,360.72 L 535.48,357.08 L 528.71,360.96 L 517.55,359.08 L 508.10,360.23 L 505.36,358.84 L 490.70,361.45 L 481.71,359.45 L 471.61,362.79 L 472.73,358.78 L 461.67,365.30 L 512.78,360.42 L 528.16,362.79 L 454.80,367.83 L 445.22,363.56 L 419.71,362.86 L 413.38,367.18 L 430.72,366.09 L 427.33,364.12 L 445.82,367.83 L 376.38,372.67 L 290.34,390.68 L 245.05,406.25 L 235.48,404.72 L 235.31,370.60 L 250.53,358.61 L 245.89,332.71 L 241.97,334.66 L 218.07,327.22 L 207.62,311.87 L 166.93,308.52 L 166.40,303.08 L 150.00,301.04 L 171.84,288.19 L 177.16,276.51 L 160.90,248.89 L 166.68,246.20 L 181.88,249.56 L 194.96,225.81 L 203.67,226.50 L 200.34,218.23 L 178.85,215.20 L 179.80,205.38 L 203.02,202.91 L 228.22,208.89 L 225.41,196.65 L 203.15,187.45 L 206.19,178.45 L 221.33,174.54 L 206.37,169.28 L 211.62,158.21 L 196.19,159.23 L 187.72,152.29 L 186.39,132.17 L 201.46,121.39 L 214.60,118.96 Z M 599.83,369.66 L 587.01,368.35 L 590.47,366.13 L 599.83,369.66 Z" fill="#4A90D9" stroke="#1a5fa8" stroke-width="1.2"/>
<path d="M 440.23,310.61 L 438.23,315.38 L 430.07,310.46 L 428.44,307.10 L 436.82,313.46 L 440.23,310.61 Z" fill="#A8C8E8" stroke="none"/>
<path d="M 796.15,283.60 L 800.00,284.94 L 800.00,286.30 L 796.15,283.60 Z M 792.79,222.83 L 800.00,220.45 L 800.00,221.56 L 792.79,222.83 Z M 785.64,211.58 L 792.84,210.83 L 770.88,194.24 L 761.21,195.22 L 760.30,201.08 L 757.45,194.40 L 750.18,194.80 L 742.02,190.33 L 727.75,195.36 L 714.92,196.37 L 742.33,189.32 L 742.33,185.95 L 752.98,193.69 L 772.08,193.33 L 771.14,189.32 L 758.44,187.87 L 765.28,187.65 L 758.39,181.83 L 760.81,172.58 L 765.28,177.26 L 761.46,182.32 L 769.51,187.31 L 771.53,184.28 L 784.41,200.20 L 790.51,197.15 L 786.09,193.86 L 789.95,189.32 L 787.77,193.69 L 795.08,197.38 L 797.31,194.70 L 797.82,197.38 L 787.60,203.45 L 800.00,208.82 L 800.00,216.06 L 785.64,211.58 Z" fill="#A8C8E8" stroke="none"/>
<path d="M 409.22,262.05 L 416.61,261.62 L 413.88,264.50 L 407.09,265.32 L 417.22,274.56 L 414.39,279.24 L 388.03,271.52 L 389.41,267.57 L 383.01,265.48 L 386.97,264.50 L 377.37,260.13 L 383.99,259.97 L 382.97,248.70 L 388.54,246.22 L 386.35,231.60 L 391.99,234.97 L 402.94,221.90 L 407.17,222.57 L 398.69,230.26 L 403.82,230.92 L 394.56,238.36 L 405.45,235.63 L 395.35,245.19 L 399.22,251.66 L 389.88,251.46 L 388.59,255.42 L 395.35,256.11 L 391.99,260.49 L 399.49,266.50 L 400.37,256.76 L 404.89,256.41 L 400.98,253.42 L 407.51,254.24 L 409.16,248.06 L 415.00,253.75 L 411.03,258.13 L 417.80,255.12 L 409.22,262.05 Z" fill="#A8C8E8" stroke="none"/>
<path d="M 278.77,312.80 L 264.64,313.56 L 266.22,310.43 L 246.33,303.88 L 241.76,297.02 L 269.93,309.93 L 275.95,302.55 L 279.27,306.44 L 280.95,300.01 L 272.07,296.86 L 282.79,293.50 L 275.93,282.44 L 279.27,274.20 L 288.19,299.86 L 278.77,312.80 Z" fill="#A8C8E8" stroke="none"/>
</svg>