<svg xmlns="http://www.w3.org/2000/svg" width="800" height="500" viewBox="0 0 800 500">
<rect width="800" height="500" fill="#A8C8E8"/>
<path d="M 532.10,13.40 L 532.56,13.78 L 531.47,14.03 L 530.85,13.39 L 532.10,13.40 Z" fill="#E8E0D0" stroke="#B8B0A0" stroke-width="0.5"/>
<path d="M 246.79,228.02 L 247.09,227.96 L 247.06,228.24 L 246.79,228.02 Z" fill="#E8E0D0" stroke="#B8B0A0" stroke-width="0.5"/>
<path d="M 484.97,405.42 L 485.51,406.25 L 483.79,406.19 L 484.97,405.42 Z M 489.66,356.05 L 489.35,356.40 L 488.87,355.17 L 489.66,354.27 L 489.66,356.05 Z M 483.38,94.46 L 482.70,93.90 L 482.82,93.75 L 483.38,94.46 Z M 442.44,388.80 L 442.43,390.07 L 440.04,389.58 L 442.44,388.80 Z M 498.20,364.10 L 498.00,363.32 L 498.57,363.28 L 498.20,364.10 Z M 480.22,360.25 L 479.75,359.30 L 480.10,359.22 L 480.22,360.25 Z M 476.36,355.58 L 476.47,355.62 L 476.66,355.84 L 476.36,355.58 Z M 476.07,355.45 L 475.99,355.47 L 476.02,355.41 L 476.07,355.45 Z M 460.84,341.92 L 460.71,341.70 L 461.58,342.08 L 460.84,341.92 Z M 301.60,140.30 L 301.69,140.33 L 301.43,140.57 L 301.60,140.30 Z M 413.35,128.05 L 414.70,129.29 L 413.58,128.31 L 413.35,128.05 Z M 411.64,119.77 L 411.24,120.18 L 411.22,119.95 L 411.64,119.77 Z M 441.75,331.68 L 442.00,331.88 L 442.01,332.07 L 441.26,333.09 L 441.75,331.68 Z" fill="#4A90D9" stroke="#1a5fa8" stroke-width="1.2"/>
</svg>