<svg xmlns="http://www.w3.org/2000/svg" width="800" height="500" viewBox="0 0 800 500">
<rect width="800" height="500" fill="#A8C8E8"/>
<path d="M 735.04,13.40 L 736.21,13.78 L 733.47,14.03 L 731.88,13.39 L 735.04,13.40 Z" fill="#E8E0D0" stroke="#B8B0A0" stroke-width="0.5"/>
<path d="M 11.41,228.02 L 12.16,227.96 L 12.09,228.24 L 11.41,228.02 Z" fill="#E8E0D0" stroke="#B8B0A0" stroke-width="0.5"/>
<path d="M 615.51,405.42 L 616.88,406.25 L 612.53,406.19 L 615.51,405.42 Z M 627.41,356.05 L 626.62,356.40 L 625.41,355.17 L 627.42,354.27 L 627.41,356.05 Z M 611.49,94.46 L 609.74,93.90 L 610.06,93.75 L 611.49,94.46 Z M 507.65,388.80 L 507.62,390.07 L 501.56,389.58 L 507.65,388.80 Z M 649.06,364.10 L 648.55,363.32 L 650.00,363.28 L 649.06,364.10 Z M 603.46,360.25 L 602.27,359.30 L 603.15,359.22 L 603.46,360.25 Z M 593.69,355.58 L 593.97,355.62 L 594.44,355.84 L 593.69,355.58 Z M 592.94,355.45 L 592.73,355.47 L 592.81,355.41 L 592.94,355.45 Z M 554.30,341.92 L 553.99,341.70 L 556.19,342.08 L 554.30,341.92 Z M 150.41,140.30 L 150.65,140.33 L 150.00,140.57 L 150.41,140.30 Z M 433.86,128.05 L 437.29,129.29 L 434.45,128.31 L 433.86,128.05 Z M 429.52,119.77 L 428.51,120.18 L 428.46,119.95 L 429.52,119.77 Z M 505.89,331.68 L 506.52,331.88 L 506.55,332.07 L 504.66,333.09 L 505.89,331.68 Z" fill="#4A90D9" stroke="#1a5fa8" stroke-width="1.2"/>
</svg>