<svg xmlns="http://www.w3.org/2000/svg" width="800" height="500" viewBox="0 0 800 500">
<rect width="800" height="500" fill="#A8C8E8"/>
<path d="M 599.66,195.24 L 599.88,193.89 L 601.04,193.49 L 602.96,191.12 L 604.27,188.56 L 605.51,187.82 L 606.43,185.47 L 608.94,182.90 L 608.91,182.19 L 610.29,182.37 L 610.49,181.78 L 609.78,181.01 L 611.95,179.76 L 612.77,178.43 L 614.63,177.90 L 614.29,177.32 L 615.39,176.98 L 616.09,175.27 L 619.47,174.47 L 620.19,172.96 L 620.74,173.30 L 621.58,172.24 L 622.45,172.26 L 623.22,170.21 L 622.81,168.66 L 623.55,164.96 L 622.43,162.54 L 621.93,159.83 L 620.70,159.57 L 620.58,158.74 L 619.94,159.04 L 620.10,159.44 L 618.76,159.44 L 618.43,160.32 L 617.43,159.39 L 617.44,157.95 L 618.56,155.93 L 618.33,155.02 L 619.63,149.49 L 619.16,147.79 L 619.74,146.99 L 617.17,144.99 L 613.74,146.71 L 612.08,146.21 L 610.66,138.45 L 610.75,135.50 L 609.21,132.66 L 606.90,132.55 L 605.64,130.92 L 604.96,131.05 L 604.07,132.45 L 603.63,132.06 L 602.72,132.69 L 595.35,130.91 L 596.45,121.79 L 595.81,121.40 L 596.17,120.80 L 595.64,120.49 L 596.17,119.98 L 595.38,119.67 L 595.32,117.56 L 594.22,115.38 L 596.17,113.87 L 594.44,111.84 L 596.63,106.38 L 597.11,106.26 L 596.68,105.17 L 598.08,99.85 L 598.74,99.54 L 597.02,96.51 L 596.56,93.97 L 595.19,93.67 L 592.65,91.56 L 592.12,87.06 L 593.02,85.34 L 593.04,83.85 L 581.16,83.65 L 580.61,77.25 L 578.41,74.16 L 580.45,74.04 L 580.31,70.35 L 579.18,67.49 L 579.69,65.09 L 579.13,63.58 L 575.38,60.87 L 570.24,61.48 L 568.46,59.11 L 568.42,58.31 L 566.40,58.12 L 564.69,56.80 L 564.02,57.09 L 562.73,55.82 L 562.16,54.26 L 560.57,54.66 L 559.48,53.49 L 557.42,52.65 L 556.64,53.38 L 554.25,53.00 L 552.93,51.99 L 552.93,50.90 L 551.63,49.80 L 551.30,50.13 L 550.96,49.22 L 549.62,48.92 L 549.18,46.94 L 548.86,46.43 L 548.62,47.11 L 548.32,46.85 L 548.51,45.82 L 547.52,44.69 L 547.08,43.07 L 547.65,40.57 L 546.96,39.18 L 546.67,36.49 L 547.75,34.36 L 547.65,31.39 L 547.01,30.13 L 545.79,31.36 L 544.46,30.51 L 538.89,31.93 L 536.14,34.77 L 534.45,35.27 L 532.75,36.76 L 531.85,38.42 L 529.75,38.11 L 528.12,40.64 L 526.02,41.73 L 524.98,41.96 L 524.79,40.77 L 520.93,40.29 L 517.28,40.16 L 515.11,41.34 L 513.51,40.31 L 512.81,40.90 L 512.83,31.47 L 513.46,30.31 L 512.92,29.15 L 513.57,28.05 L 508.52,32.63 L 502.67,32.73 L 502.89,31.68 L 501.91,28.88 L 498.65,27.89 L 496.03,27.87 L 497.61,25.64 L 497.59,24.43 L 495.14,21.28 L 495.10,20.31 L 493.90,19.33 L 493.07,16.52 L 492.31,15.92 L 492.78,14.69 L 490.79,12.70 L 491.27,11.92 L 491.02,11.17 L 492.78,10.75 L 492.13,9.11 L 492.48,7.36 L 496.47,4.01 L 495.90,0.77 L 496.27,0.00 L 624.48,0.00 L 624.48,215.52 L 624.20,215.32 L 622.93,212.11 L 619.55,210.22 L 617.40,207.27 L 613.23,205.52 L 610.96,202.29 L 609.25,204.13 L 608.23,204.19 L 608.23,201.88 L 602.88,196.22 L 601.27,196.25 L 600.18,197.78 L 598.28,197.62 L 597.85,196.94 L 599.66,195.24 Z M 624.35,225.08 L 624.36,221.19 L 624.48,221.04 L 624.48,225.17 L 624.35,225.08 Z" fill="#E8E0D0" stroke="#B8B0A0" stroke-width="0.5"/>
<path d="M 598.28,197.62 L 600.18,197.78 L 601.27,196.25 L 602.88,196.22 L 608.23,201.88 L 608.23,204.19 L 609.25,204.13 L 610.96,202.29 L 613.23,205.52 L 617.40,207.27 L 619.55,210.22 L 622.93,212.11 L 624.20,215.32 L 624.48,215.52 L 624.48,221.84 L 624.35,225.08 L 624.48,225.17 L 624.48,228.11 L 624.35,228.44 L 622.93,230.11 L 622.88,231.11 L 620.39,233.36 L 619.65,233.51 L 619.79,232.73 L 619.20,232.50 L 619.34,233.69 L 615.22,235.82 L 610.30,234.15 L 607.28,235.59 L 605.67,234.89 L 605.85,234.30 L 602.60,233.38 L 600.79,231.60 L 596.20,231.76 L 594.75,229.49 L 593.89,229.13 L 592.63,227.30 L 592.39,225.48 L 592.96,220.79 L 594.36,220.57 L 594.94,219.08 L 593.97,215.48 L 594.63,213.95 L 594.04,212.91 L 593.93,210.79 L 594.94,210.01 L 595.39,208.40 L 594.77,207.39 L 595.87,205.49 L 595.88,202.95 L 596.59,202.45 L 596.06,199.58 L 597.52,198.07 L 597.85,196.94 L 598.28,197.62 Z" fill="#E8E0D0" stroke="#B8B0A0" stroke-width="0.5"/>
<path d="M 567.37,122.71 L 567.42,118.53 L 569.53,114.88 L 570.78,111.15 L 582.17,108.32 L 588.28,108.27 L 594.18,112.68 L 594.19,116.01 L 595.32,117.56 L 595.38,119.67 L 596.18,120.05 L 595.64,120.49 L 596.17,120.80 L 595.81,121.40 L 596.45,121.79 L 595.35,130.91 L 602.72,132.69 L 603.63,132.06 L 604.07,132.45 L 604.96,131.05 L 605.64,130.92 L 606.90,132.55 L 609.21,132.66 L 610.75,135.50 L 610.66,138.45 L 612.08,146.21 L 613.74,146.71 L 617.17,144.99 L 619.74,146.99 L 619.16,147.79 L 619.63,149.49 L 618.33,155.02 L 618.56,155.93 L 617.37,158.23 L 617.18,164.45 L 616.17,168.10 L 615.34,168.33 L 613.92,170.61 L 612.12,170.82 L 610.92,172.35 L 610.96,173.65 L 609.90,174.59 L 609.00,173.71 L 607.49,173.42 L 605.69,175.76 L 604.74,174.69 L 603.27,175.11 L 602.40,174.39 L 600.60,174.95 L 595.11,173.10 L 591.32,173.56 L 591.00,172.25 L 592.15,170.48 L 593.20,169.96 L 593.04,169.43 L 594.09,168.14 L 594.27,164.32 L 596.09,162.93 L 596.73,160.42 L 598.03,159.30 L 598.14,158.32 L 596.86,156.18 L 593.79,154.23 L 593.06,154.65 L 592.17,153.50 L 589.98,152.90 L 581.99,146.63 L 580.01,146.71 L 575.65,144.99 L 574.97,143.38 L 572.42,141.76 L 569.45,138.72 L 567.30,134.24 L 564.93,132.21 L 567.37,122.71 Z" fill="#E8E0D0" stroke="#B8B0A0" stroke-width="0.5"/>
<path d="M 597.64,196.88 L 597.85,196.94 L 597.59,196.96 L 597.64,196.88 Z" fill="#E8E0D0" stroke="#B8B0A0" stroke-width="0.5"/>
<path d="M 493.59,354.36 L 494.36,352.55 L 496.79,352.18 L 497.04,354.48 L 496.15,355.52 L 494.40,356.15 L 493.59,354.36 Z" fill="#E8E0D0" stroke="#B8B0A0" stroke-width="0.5"/>
<path d="M 533.41,499.08 L 532.94,498.55 L 533.67,497.94 L 532.60,497.85 L 533.45,496.84 L 534.58,497.21 L 535.15,496.19 L 535.78,496.54 L 535.88,495.82 L 536.88,495.91 L 537.29,497.77 L 536.68,498.65 L 537.96,498.94 L 538.46,497.95 L 540.06,499.14 L 539.65,497.33 L 540.18,497.10 L 539.08,496.71 L 540.34,495.44 L 539.48,494.86 L 539.51,493.56 L 541.41,493.01 L 544.38,494.09 L 545.11,493.83 L 545.39,493.58 L 544.60,493.16 L 545.12,493.04 L 545.28,491.80 L 546.01,491.52 L 543.91,490.70 L 545.43,490.02 L 545.00,489.49 L 545.72,489.07 L 549.01,489.49 L 547.52,488.58 L 547.91,487.92 L 550.34,487.69 L 552.32,488.54 L 552.94,487.86 L 551.60,486.97 L 551.75,486.26 L 553.54,486.72 L 553.94,485.96 L 553.00,485.27 L 555.83,485.77 L 554.65,484.63 L 555.59,484.32 L 557.46,485.06 L 557.24,484.59 L 558.20,484.39 L 555.54,483.50 L 556.23,483.14 L 555.41,482.31 L 555.77,482.27 L 555.61,481.48 L 556.95,480.51 L 560.94,480.79 L 562.10,481.48 L 562.70,481.15 L 562.61,480.42 L 561.12,479.85 L 563.51,479.49 L 563.99,478.61 L 565.36,479.41 L 566.51,479.13 L 564.77,478.32 L 565.93,477.95 L 565.42,477.34 L 565.94,476.87 L 567.14,477.34 L 566.76,478.09 L 568.24,478.38 L 567.73,478.00 L 569.36,477.61 L 569.72,476.67 L 570.51,476.74 L 570.44,476.01 L 571.92,477.38 L 572.49,477.00 L 571.74,476.33 L 572.87,476.44 L 572.79,475.78 L 571.89,475.60 L 572.72,474.99 L 573.76,475.51 L 575.10,475.14 L 575.07,474.46 L 576.07,474.29 L 575.93,473.27 L 576.73,473.33 L 575.78,472.52 L 577.17,472.69 L 577.46,472.09 L 580.21,471.31 L 582.41,471.66 L 583.47,470.14 L 583.71,470.86 L 585.94,471.26 L 586.44,469.63 L 589.15,469.31 L 589.40,468.26 L 594.18,467.63 L 594.15,466.92 L 595.04,467.22 L 596.15,466.36 L 599.37,465.63 L 601.59,466.15 L 601.47,467.24 L 602.14,467.10 L 601.83,467.61 L 603.24,468.77 L 600.97,469.19 L 600.63,468.72 L 601.15,468.41 L 600.95,467.96 L 598.87,467.48 L 599.03,468.43 L 597.11,468.37 L 596.78,468.64 L 597.84,468.76 L 594.62,469.26 L 590.66,471.95 L 589.91,473.78 L 588.03,473.85 L 590.33,474.38 L 589.06,474.90 L 590.17,475.51 L 589.94,476.41 L 588.79,476.18 L 588.64,475.50 L 586.58,475.58 L 585.71,474.52 L 584.42,475.18 L 584.50,476.23 L 585.14,476.43 L 584.88,476.78 L 583.72,476.61 L 583.71,475.45 L 582.16,475.24 L 582.15,475.80 L 580.50,476.60 L 579.46,476.27 L 579.86,477.23 L 577.87,477.76 L 575.35,480.22 L 573.20,480.57 L 570.94,479.88 L 570.87,480.85 L 572.07,481.42 L 571.60,482.10 L 569.42,481.69 L 567.88,482.61 L 568.96,483.16 L 568.55,483.41 L 568.73,484.02 L 571.12,484.57 L 568.65,484.98 L 568.58,485.92 L 566.81,486.76 L 566.74,487.58 L 569.02,489.18 L 571.80,489.62 L 571.47,488.54 L 573.67,488.97 L 573.37,487.72 L 573.89,487.56 L 575.49,488.56 L 575.65,487.56 L 578.64,487.93 L 577.65,488.61 L 577.59,489.33 L 576.73,488.64 L 575.53,488.94 L 576.50,489.79 L 575.72,491.05 L 574.74,490.97 L 574.47,489.74 L 572.63,489.20 L 572.47,490.38 L 570.60,490.00 L 571.33,491.46 L 570.79,492.15 L 569.28,490.46 L 569.36,489.88 L 564.81,490.12 L 564.21,490.84 L 565.81,492.16 L 564.67,492.42 L 564.58,492.99 L 566.18,493.50 L 564.97,494.16 L 561.27,490.29 L 557.35,489.80 L 558.00,490.31 L 556.95,490.49 L 558.91,491.45 L 556.76,491.37 L 557.68,491.81 L 556.70,492.36 L 557.45,493.06 L 555.99,492.80 L 555.25,493.50 L 557.75,494.68 L 557.72,495.57 L 555.84,495.88 L 554.11,495.07 L 553.72,495.68 L 552.76,495.63 L 552.69,494.42 L 552.10,494.51 L 551.08,495.15 L 551.49,496.30 L 549.84,495.56 L 550.37,496.10 L 549.82,496.68 L 551.62,497.61 L 549.17,498.05 L 551.24,498.90 L 547.47,499.65 L 546.49,498.55 L 546.58,499.22 L 545.79,498.94 L 545.59,499.40 L 546.17,500.00 L 532.56,500.00 L 533.41,499.08 Z M 532.06,499.00 L 532.62,498.96 L 532.20,499.31 L 531.70,499.34 L 532.06,499.00 Z M 532.04,498.72 L 531.28,498.55 L 532.18,498.07 L 532.80,498.15 L 532.04,498.72 Z M 532.82,496.78 L 533.04,497.21 L 532.43,497.55 L 532.82,496.78 Z M 533.34,495.63 L 532.63,495.43 L 533.91,494.26 L 534.99,495.03 L 533.34,495.63 Z M 522.76,499.91 L 524.58,498.57 L 527.57,494.95 L 530.95,493.36 L 532.26,493.54 L 529.87,495.92 L 530.54,496.38 L 530.13,496.91 L 532.15,497.61 L 528.40,499.41 L 530.27,499.61 L 530.23,500.00 L 522.72,500.00 L 522.76,499.91 Z M 535.60,490.91 L 536.38,491.05 L 536.19,491.35 L 535.51,491.43 L 535.60,490.91 Z M 536.09,490.18 L 537.36,490.41 L 536.71,490.61 L 536.09,490.18 Z M 538.91,488.83 L 539.46,488.98 L 538.94,489.31 L 539.16,489.97 L 537.29,490.92 L 538.91,488.83 Z M 544.86,488.18 L 544.37,488.21 L 544.52,487.85 L 544.86,488.18 Z M 543.64,487.59 L 542.86,487.65 L 543.27,487.36 L 543.64,487.59 Z M 547.36,486.96 L 548.34,487.32 L 547.95,487.46 L 547.36,486.96 Z M 542.83,486.14 L 542.60,485.53 L 543.34,484.63 L 545.53,484.48 L 545.26,485.50 L 543.65,485.87 L 544.30,486.97 L 542.42,487.33 L 541.84,486.83 L 542.83,486.14 Z M 545.30,484.29 L 544.83,484.08 L 544.89,483.96 L 546.17,483.98 L 545.30,484.29 Z M 584.50,481.92 L 583.25,481.17 L 583.70,480.83 L 585.89,482.03 L 584.50,481.92 Z M 562.73,479.29 L 561.80,479.07 L 562.19,478.84 L 563.16,479.13 L 562.73,479.29 Z M 563.30,478.70 L 562.44,478.56 L 562.93,478.46 L 563.65,478.58 L 563.30,478.70 Z M 560.53,479.05 L 558.77,479.38 L 559.73,478.42 L 561.62,477.89 L 560.53,479.05 Z M 564.57,478.08 L 564.18,477.77 L 564.81,477.45 L 565.01,477.90 L 564.57,478.08 Z M 568.93,477.38 L 568.67,477.29 L 568.72,477.14 L 568.93,477.38 Z M 568.82,476.37 L 569.07,476.50 L 568.56,477.05 L 568.20,476.72 L 568.82,476.37 Z M 597.96,475.39 L 598.10,475.60 L 597.95,475.83 L 597.52,475.66 L 597.96,475.39 Z M 572.13,474.85 L 572.50,475.13 L 572.00,475.22 L 571.60,474.92 L 572.13,474.85 Z M 602.14,474.67 L 602.57,474.73 L 600.35,476.60 L 598.86,476.34 L 598.90,475.68 L 602.14,474.67 Z M 563.76,476.63 L 560.35,478.21 L 559.01,477.95 L 559.33,478.18 L 558.20,478.94 L 554.16,477.69 L 554.82,476.81 L 557.07,476.09 L 556.58,475.73 L 558.36,475.39 L 558.14,474.84 L 558.90,474.15 L 561.65,474.37 L 560.30,475.55 L 561.92,475.24 L 561.07,475.89 L 561.96,475.88 L 560.88,476.73 L 563.26,476.24 L 563.76,476.63 Z M 604.16,473.80 L 604.50,473.91 L 602.44,474.58 L 604.16,473.80 Z M 570.80,473.28 L 570.77,472.93 L 571.19,472.83 L 571.39,473.39 L 570.80,473.28 Z M 564.03,475.93 L 565.35,475.69 L 564.79,475.22 L 566.14,473.92 L 565.10,473.06 L 565.99,472.72 L 565.44,472.42 L 567.12,472.13 L 567.43,472.80 L 569.11,473.15 L 567.79,473.45 L 568.85,473.74 L 567.82,474.44 L 568.08,474.94 L 564.89,476.09 L 564.03,475.93 Z M 570.28,471.67 L 570.58,471.75 L 568.75,472.57 L 570.28,471.67 Z M 597.04,475.20 L 597.51,474.45 L 596.20,474.43 L 596.54,475.10 L 596.22,475.39 L 595.47,475.24 L 595.86,474.74 L 595.50,474.57 L 593.85,475.13 L 593.21,474.61 L 595.17,473.94 L 594.06,473.73 L 594.40,472.83 L 592.25,472.69 L 593.27,471.39 L 596.59,470.30 L 596.85,471.15 L 595.99,471.80 L 596.44,472.03 L 596.14,472.54 L 597.10,472.61 L 596.92,472.24 L 598.56,471.40 L 598.30,472.17 L 600.76,472.69 L 599.17,473.18 L 601.32,473.30 L 598.10,474.33 L 599.85,475.02 L 597.04,475.20 Z M 597.24,470.51 L 601.20,470.69 L 600.19,471.20 L 597.24,470.51 Z M 570.42,469.79 L 571.69,470.07 L 571.23,470.43 L 570.42,469.79 Z M 575.79,470.72 L 577.08,470.65 L 577.00,470.00 L 577.87,469.74 L 576.98,469.28 L 578.61,469.55 L 577.65,470.45 L 578.12,470.85 L 576.86,471.29 L 575.79,470.72 Z M 598.05,469.09 L 599.16,468.97 L 598.75,469.46 L 598.05,469.09 Z M 604.37,468.40 L 605.25,468.46 L 604.07,468.93 L 603.80,468.68 L 604.37,468.40 Z M 583.53,468.36 L 583.66,468.70 L 583.05,468.61 L 583.53,468.36 Z M 608.53,468.59 L 606.73,467.76 L 609.56,467.18 L 610.13,467.73 L 608.53,468.59 Z M 569.09,466.67 L 567.36,466.73 L 567.85,465.79 L 569.48,466.40 L 569.09,466.67 Z M 604.03,465.15 L 604.61,465.19 L 604.44,465.56 L 603.74,465.54 L 604.03,465.15 Z M 614.54,466.16 L 613.69,466.77 L 609.66,466.18 L 605.98,467.44 L 604.69,466.85 L 605.89,465.72 L 608.47,465.06 L 613.78,465.52 L 614.54,466.16 Z M 604.27,464.28 L 605.19,463.67 L 608.07,464.33 L 606.52,465.31 L 604.27,464.28 Z M 577.74,463.26 L 578.58,463.92 L 578.18,464.00 L 577.34,463.38 L 578.17,463.02 L 578.97,463.57 L 577.74,463.26 Z M 564.52,464.59 L 565.78,463.15 L 567.17,462.85 L 564.52,464.59 Z M 572.69,461.72 L 574.39,461.65 L 573.02,462.42 L 572.38,462.34 L 572.69,461.72 Z M 574.42,460.56 L 576.84,460.41 L 576.98,459.54 L 579.01,460.42 L 581.37,459.47 L 582.14,460.00 L 581.69,460.31 L 582.05,460.83 L 583.50,460.70 L 580.32,461.89 L 580.27,461.27 L 579.38,461.55 L 580.10,460.84 L 579.74,460.69 L 574.64,461.12 L 574.42,460.56 Z M 583.52,459.87 L 582.24,459.41 L 585.12,459.80 L 583.52,459.87 Z M 585.89,458.61 L 586.47,459.03 L 585.42,459.44 L 584.21,458.81 L 585.89,458.61 Z M 589.81,458.24 L 588.28,458.57 L 587.31,458.10 L 589.81,458.24 Z M 591.44,457.75 L 589.99,457.11 L 588.66,457.51 L 590.70,455.83 L 592.56,455.18 L 597.41,455.02 L 597.93,455.93 L 594.24,456.20 L 594.45,456.87 L 593.67,457.20 L 592.78,456.59 L 593.43,456.40 L 592.15,456.30 L 591.12,457.17 L 592.21,457.03 L 591.44,457.75 Z M 620.70,450.13 L 619.86,449.79 L 620.97,448.62 L 620.70,450.13 Z M 614.99,448.46 L 617.09,448.46 L 614.47,448.89 L 613.44,449.76 L 611.89,448.53 L 614.99,448.46 Z" fill="#E8E0D0" stroke="#B8B0A0" stroke-width="0.5"/>
<path d="M 583.80,376.60 L 583.57,375.43 L 584.20,375.72 L 583.80,376.60 Z M 574.27,373.25 L 573.62,372.94 L 574.24,372.72 L 574.27,373.25 Z M 575.40,373.89 L 574.69,373.11 L 575.78,372.55 L 576.05,372.86 L 575.48,373.29 L 575.98,373.18 L 576.58,372.43 L 576.57,373.55 L 575.40,373.89 Z M 574.07,371.77 L 574.43,371.88 L 573.88,372.38 L 574.07,371.77 Z M 582.95,374.03 L 580.41,374.33 L 580.46,375.04 L 579.78,375.67 L 578.62,375.28 L 578.98,375.89 L 578.35,376.30 L 577.72,375.26 L 576.88,375.22 L 577.50,375.79 L 577.02,375.77 L 575.45,374.75 L 577.37,374.44 L 576.70,374.00 L 578.74,374.37 L 579.60,373.69 L 578.86,373.90 L 578.26,373.78 L 579.09,373.68 L 579.31,372.60 L 579.78,372.49 L 580.00,373.22 L 580.27,372.34 L 581.01,372.43 L 581.04,371.99 L 580.00,372.00 L 578.62,372.66 L 578.14,371.68 L 581.71,371.88 L 579.01,370.52 L 579.68,370.18 L 578.00,369.10 L 581.21,370.20 L 582.29,370.04 L 581.67,369.86 L 582.10,369.29 L 583.50,369.87 L 585.55,369.43 L 584.92,369.81 L 585.53,369.95 L 586.17,369.76 L 586.09,368.98 L 587.34,369.60 L 582.95,374.03 Z M 582.46,369.03 L 582.06,368.64 L 582.47,368.57 L 582.87,368.71 L 582.46,369.03 Z M 580.33,369.37 L 581.48,369.15 L 580.25,368.42 L 581.73,368.68 L 581.89,369.05 L 581.10,369.43 L 580.33,369.37 Z M 596.99,371.82 L 593.55,372.38 L 594.31,372.66 L 592.52,373.49 L 590.31,373.49 L 589.12,372.72 L 588.94,373.18 L 589.97,373.98 L 591.13,374.11 L 591.07,375.25 L 586.98,374.29 L 588.23,375.17 L 587.73,375.54 L 588.48,375.48 L 588.10,375.79 L 588.41,376.10 L 585.76,375.53 L 586.52,377.15 L 584.03,375.25 L 585.01,374.83 L 584.62,374.43 L 585.33,374.05 L 584.79,373.73 L 585.55,373.84 L 585.55,373.11 L 587.38,371.99 L 588.37,371.82 L 588.46,372.88 L 588.80,372.77 L 588.79,371.50 L 587.64,370.90 L 588.01,370.32 L 588.68,370.77 L 588.09,369.59 L 589.62,369.15 L 589.03,368.26 L 592.60,368.87 L 593.08,369.71 L 591.96,369.45 L 591.85,370.23 L 592.50,370.12 L 592.51,370.71 L 593.75,371.54 L 593.71,371.06 L 594.13,371.21 L 593.84,370.51 L 592.91,370.34 L 593.36,369.67 L 595.87,369.30 L 596.70,370.65 L 594.31,370.65 L 596.68,371.27 L 595.92,371.71 L 596.99,371.82 Z M 583.46,368.32 L 585.46,368.37 L 585.82,368.87 L 583.46,368.32 Z M 584.22,376.84 L 583.89,377.28 L 584.55,377.36 L 583.38,377.29 L 584.22,376.84 Z M 592.47,375.19 L 591.69,374.58 L 592.12,374.31 L 592.55,374.32 L 592.47,375.19 Z M 584.30,374.27 L 584.05,374.18 L 584.18,373.87 L 584.30,374.27 Z M 584.39,369.01 L 584.84,369.33 L 583.32,369.09 L 584.39,369.01 Z M 578.81,368.80 L 578.32,368.38 L 578.41,368.31 L 578.81,368.80 Z M 574.87,366.77 L 574.91,366.46 L 575.09,366.55 L 574.87,366.77 Z" fill="#E8E0D0" stroke="#B8B0A0" stroke-width="0.5"/>
<path d="M 536.39,135.51 L 536.35,134.57 L 537.96,133.79 L 538.28,132.14 L 541.08,130.93 L 541.63,128.57 L 544.75,131.23 L 549.47,131.09 L 552.24,131.99 L 554.00,137.40 L 554.49,134.70 L 556.47,130.37 L 563.92,130.34 L 565.09,132.79 L 567.60,134.69 L 569.45,138.72 L 572.42,141.76 L 574.97,143.38 L 575.65,144.99 L 580.01,146.71 L 581.99,146.63 L 589.98,152.90 L 592.17,153.50 L 593.06,154.65 L 593.79,154.23 L 596.86,156.18 L 598.14,158.32 L 598.03,159.30 L 596.73,160.42 L 596.09,162.93 L 594.27,164.32 L 594.09,168.14 L 593.04,169.43 L 593.20,169.96 L 592.15,170.48 L 591.00,172.25 L 591.32,173.56 L 595.11,173.10 L 600.60,174.95 L 602.40,174.39 L 603.27,175.11 L 604.74,174.69 L 605.69,175.76 L 607.49,173.42 L 609.00,173.71 L 609.90,174.59 L 610.96,173.65 L 610.92,172.35 L 612.12,170.82 L 613.92,170.61 L 615.34,168.33 L 616.17,168.10 L 617.18,164.45 L 617.43,159.39 L 618.43,160.32 L 618.76,159.44 L 620.10,159.44 L 619.94,159.04 L 620.58,158.74 L 620.70,159.57 L 621.93,159.83 L 622.43,162.54 L 623.55,164.96 L 622.81,168.66 L 623.22,170.21 L 622.45,172.26 L 621.58,172.24 L 620.74,173.30 L 620.19,172.96 L 619.47,174.47 L 616.09,175.27 L 615.39,176.98 L 614.29,177.32 L 614.63,177.90 L 612.77,178.43 L 611.95,179.76 L 609.78,181.01 L 610.49,181.78 L 610.29,182.37 L 608.91,182.19 L 608.94,182.90 L 606.43,185.47 L 605.51,187.82 L 604.27,188.56 L 603.81,189.94 L 601.16,193.37 L 599.88,193.89 L 599.66,195.24 L 597.64,196.88 L 597.52,198.07 L 595.97,199.87 L 596.59,202.45 L 595.88,202.95 L 595.87,205.49 L 594.77,207.39 L 595.39,208.40 L 594.94,210.01 L 593.93,210.79 L 594.04,212.91 L 594.63,213.95 L 593.82,215.64 L 594.30,220.20 L 592.45,220.63 L 592.57,222.22 L 591.85,223.45 L 591.67,225.53 L 592.79,229.46 L 591.54,230.28 L 592.29,230.91 L 592.16,232.18 L 593.20,233.28 L 598.37,236.17 L 600.16,238.09 L 600.94,239.66 L 599.48,241.99 L 599.39,244.10 L 600.16,245.59 L 602.17,247.33 L 603.47,246.78 L 603.91,249.09 L 603.82,251.75 L 598.60,259.11 L 598.14,261.46 L 593.10,264.48 L 583.54,267.30 L 572.31,268.70 L 568.99,268.10 L 568.14,267.07 L 566.69,266.97 L 566.73,267.80 L 567.38,268.24 L 566.84,269.44 L 567.49,270.69 L 567.05,270.68 L 569.01,271.58 L 568.80,271.96 L 567.32,271.14 L 568.80,272.29 L 568.42,275.29 L 567.18,275.21 L 566.82,278.31 L 565.97,279.25 L 567.45,281.23 L 567.02,282.19 L 567.98,281.84 L 566.97,283.85 L 564.41,285.22 L 562.00,286.14 L 557.56,286.17 L 555.72,284.88 L 550.18,283.45 L 551.27,283.23 L 550.93,282.63 L 549.72,282.63 L 550.20,283.01 L 548.74,283.60 L 548.65,286.35 L 549.66,289.14 L 549.12,292.62 L 549.57,293.77 L 550.53,294.59 L 552.99,295.09 L 552.20,296.45 L 553.22,296.65 L 555.45,296.50 L 555.68,295.21 L 553.91,294.95 L 557.63,293.65 L 558.75,295.46 L 558.60,299.13 L 555.42,300.21 L 554.49,299.32 L 554.81,298.19 L 553.27,297.14 L 549.96,298.34 L 549.62,299.40 L 554.15,301.00 L 549.97,303.10 L 547.45,306.55 L 547.83,308.99 L 548.39,309.58 L 547.59,310.91 L 548.19,312.27 L 547.44,313.04 L 547.78,313.49 L 545.41,314.72 L 544.86,315.87 L 546.20,316.87 L 545.10,317.93 L 541.77,317.36 L 539.84,318.14 L 539.99,318.79 L 539.25,318.56 L 539.66,319.18 L 537.02,319.51 L 534.39,322.41 L 534.18,323.82 L 532.79,325.50 L 532.50,326.89 L 533.80,330.17 L 535.71,331.31 L 537.95,333.75 L 543.21,334.23 L 544.75,335.35 L 544.81,337.84 L 544.09,339.73 L 542.87,339.71 L 540.54,340.72 L 543.72,339.96 L 544.63,341.41 L 543.56,341.35 L 543.62,342.75 L 542.37,342.83 L 540.86,344.70 L 535.81,347.31 L 535.27,348.49 L 532.93,350.09 L 531.92,352.53 L 531.14,353.05 L 531.83,353.14 L 532.60,352.12 L 531.79,356.32 L 530.72,358.07 L 527.81,359.06 L 525.77,356.13 L 525.21,355.88 L 526.27,357.51 L 523.43,358.16 L 526.23,357.86 L 527.76,359.31 L 524.32,360.79 L 523.02,362.66 L 522.62,365.45 L 520.84,366.92 L 522.42,366.06 L 523.76,370.79 L 521.06,370.77 L 519.49,371.32 L 521.53,371.06 L 522.49,371.40 L 522.22,371.82 L 523.69,371.28 L 527.65,376.86 L 527.20,377.55 L 527.07,376.81 L 517.30,374.43 L 504.18,374.13 L 504.07,373.11 L 501.02,370.73 L 502.26,368.23 L 501.31,367.10 L 502.22,365.92 L 501.69,364.15 L 501.98,363.38 L 499.02,363.12 L 496.27,364.20 L 495.57,360.81 L 493.97,359.25 L 494.31,358.18 L 493.69,357.55 L 494.40,356.15 L 496.15,355.52 L 497.04,354.48 L 496.31,351.50 L 497.37,349.89 L 499.92,348.50 L 500.19,345.51 L 501.98,344.66 L 501.71,342.40 L 500.40,341.14 L 501.70,338.59 L 501.60,337.36 L 502.84,337.01 L 503.75,335.30 L 504.73,335.50 L 504.77,334.85 L 503.92,334.20 L 504.51,333.68 L 504.28,332.18 L 505.99,331.17 L 505.49,327.55 L 504.51,326.80 L 506.48,325.32 L 505.53,324.32 L 505.48,322.08 L 507.28,321.48 L 507.16,320.75 L 508.40,319.60 L 506.63,317.24 L 503.47,316.63 L 503.37,315.66 L 508.53,315.76 L 509.67,313.76 L 509.10,312.77 L 504.86,312.36 L 505.23,311.85 L 504.87,310.16 L 506.17,308.69 L 505.13,307.32 L 505.85,306.72 L 505.81,306.05 L 504.24,304.76 L 504.59,303.77 L 505.58,303.55 L 505.63,302.70 L 503.11,301.50 L 502.98,297.84 L 503.70,296.93 L 503.08,295.36 L 503.69,294.19 L 504.45,294.46 L 505.67,293.70 L 504.43,290.19 L 504.91,289.50 L 504.58,287.87 L 504.92,284.38 L 504.24,282.61 L 506.08,279.38 L 505.10,278.45 L 505.16,277.50 L 506.01,277.55 L 506.45,276.01 L 505.81,273.50 L 507.19,273.50 L 507.86,267.88 L 510.83,266.55 L 511.53,265.23 L 510.64,263.93 L 510.42,261.05 L 509.27,258.08 L 509.71,256.13 L 509.13,254.72 L 509.89,253.18 L 509.12,252.11 L 509.59,251.94 L 509.20,251.03 L 509.52,249.80 L 510.10,249.80 L 510.19,248.14 L 512.31,247.58 L 512.36,246.37 L 514.47,244.68 L 514.20,238.97 L 513.22,238.18 L 514.47,237.42 L 514.93,234.00 L 516.55,231.30 L 516.62,230.30 L 518.11,229.83 L 517.55,226.08 L 518.38,222.88 L 518.06,221.96 L 516.93,222.23 L 516.28,221.18 L 516.99,218.79 L 515.98,217.67 L 515.95,215.61 L 514.46,212.09 L 515.14,212.04 L 515.40,211.19 L 513.97,210.35 L 513.15,208.14 L 513.28,206.00 L 513.87,204.31 L 514.33,204.75 L 515.26,203.82 L 514.78,203.02 L 515.86,198.36 L 517.23,198.44 L 518.07,196.71 L 517.12,195.98 L 517.54,193.81 L 516.73,189.68 L 518.27,188.06 L 519.26,182.36 L 522.28,178.72 L 524.73,171.96 L 526.22,172.31 L 527.88,171.35 L 528.05,170.15 L 526.16,166.57 L 526.29,165.32 L 527.37,164.02 L 526.09,158.27 L 526.67,156.21 L 527.65,155.72 L 526.31,152.84 L 526.81,151.47 L 528.44,149.71 L 534.34,146.58 L 536.47,138.45 L 535.30,137.00 L 536.39,135.51 Z M 525.85,397.59 L 525.85,397.14 L 526.33,397.79 L 525.85,397.59 Z M 525.94,379.57 L 528.01,381.79 L 528.57,383.34 L 527.76,382.64 L 526.64,383.49 L 526.45,384.45 L 529.31,385.30 L 530.14,387.40 L 532.92,389.31 L 532.83,389.89 L 538.08,392.67 L 539.94,394.43 L 544.10,395.91 L 548.68,395.90 L 547.26,398.18 L 546.59,397.84 L 545.24,398.55 L 543.30,397.98 L 543.12,398.55 L 540.14,399.20 L 536.36,398.01 L 528.07,397.09 L 526.64,397.58 L 525.85,397.01 L 525.94,379.57 Z M 557.35,396.58 L 556.34,397.27 L 556.26,396.80 L 554.53,397.45 L 554.10,396.97 L 552.05,397.99 L 551.18,397.41 L 552.72,397.00 L 552.59,396.46 L 553.62,397.02 L 553.75,396.39 L 557.35,396.58 Z M 570.03,270.56 L 568.53,269.32 L 569.70,269.85 L 570.03,270.56 Z M 568.32,268.78 L 568.91,268.65 L 569.38,268.99 L 568.32,268.78 Z M 568.98,280.45 L 568.46,281.33 L 567.62,280.89 L 568.16,279.79 L 568.98,280.45 Z M 569.07,278.17 L 569.03,279.54 L 568.30,278.22 L 569.07,278.17 Z" fill="#C8D8E8" stroke="#8BAABB" stroke-width="0.8"/>
<path d="M 520.11,92.63 L 519.17,91.97 L 519.45,91.14 L 520.73,90.34 L 522.33,87.42 L 523.27,86.95 L 523.33,85.19 L 524.60,84.17 L 523.63,83.20 L 522.31,83.08 L 520.71,78.45 L 522.55,75.26 L 521.01,73.21 L 521.10,71.74 L 521.77,71.33 L 521.99,69.89 L 523.58,68.31 L 523.45,67.22 L 524.40,66.78 L 522.85,62.51 L 523.71,61.17 L 523.64,56.01 L 525.04,54.73 L 524.86,54.00 L 525.58,53.04 L 519.75,40.43 L 524.79,40.77 L 524.98,41.96 L 526.02,41.73 L 528.12,40.64 L 529.75,38.11 L 531.85,38.42 L 532.75,36.76 L 534.45,35.27 L 536.14,34.77 L 538.89,31.93 L 544.46,30.51 L 545.79,31.36 L 546.89,30.08 L 547.65,31.39 L 547.75,34.36 L 546.67,36.49 L 546.96,39.18 L 547.65,40.57 L 547.08,43.07 L 547.52,44.69 L 548.51,45.82 L 548.32,46.85 L 548.62,47.11 L 548.86,46.43 L 549.18,46.94 L 549.54,48.82 L 550.96,49.22 L 551.30,50.13 L 551.63,49.80 L 552.93,50.90 L 552.93,51.99 L 554.25,53.00 L 556.64,53.38 L 557.42,52.65 L 559.48,53.49 L 560.57,54.66 L 562.16,54.26 L 562.73,55.82 L 564.02,57.09 L 564.69,56.80 L 566.40,58.12 L 568.42,58.31 L 568.46,59.11 L 570.24,61.48 L 575.38,60.87 L 579.13,63.58 L 579.69,65.09 L 579.18,67.49 L 580.31,70.35 L 580.45,74.04 L 578.41,74.16 L 580.61,77.25 L 581.16,83.65 L 592.22,84.19 L 592.97,83.77 L 593.02,85.34 L 592.12,87.06 L 592.65,91.56 L 595.19,93.67 L 596.56,93.97 L 597.02,96.51 L 598.73,99.71 L 598.08,99.85 L 596.68,105.17 L 597.11,106.26 L 596.63,106.38 L 594.44,111.84 L 596.17,113.87 L 594.22,115.38 L 594.11,112.58 L 588.15,108.23 L 582.17,108.32 L 570.78,111.15 L 569.53,114.88 L 567.42,118.53 L 567.37,122.71 L 564.93,132.21 L 563.83,130.31 L 556.56,130.32 L 554.49,134.70 L 554.00,137.40 L 552.24,131.99 L 549.47,131.09 L 544.75,131.23 L 541.63,128.57 L 541.08,130.93 L 538.28,132.14 L 537.96,133.79 L 536.35,134.57 L 536.39,135.51 L 535.30,137.00 L 531.53,137.54 L 530.77,136.97 L 530.96,134.76 L 530.29,131.14 L 529.41,129.93 L 528.68,124.48 L 527.32,121.84 L 526.42,121.47 L 526.30,120.08 L 526.90,119.12 L 525.05,117.46 L 525.61,116.71 L 524.87,114.90 L 526.20,114.49 L 526.51,113.39 L 525.45,111.72 L 527.12,109.44 L 523.58,105.46 L 523.83,104.82 L 522.50,98.91 L 522.98,98.09 L 521.54,97.57 L 520.11,92.63 Z" fill="#C8D8E8" stroke="#8BAABB" stroke-width="0.8"/>
<path d="M 517.97,95.26 L 518.41,97.61 L 517.19,99.80 L 514.42,100.51 L 507.97,95.31 L 507.86,92.89 L 507.12,91.94 L 503.18,89.79 L 501.08,87.31 L 498.86,86.61 L 494.69,83.88 L 492.86,83.48 L 490.60,81.17 L 484.07,77.11 L 481.08,72.69 L 478.32,70.50 L 476.89,67.04 L 475.97,66.58 L 475.95,64.41 L 475.29,64.47 L 475.50,63.61 L 476.21,64.01 L 476.68,61.48 L 476.42,60.00 L 472.65,53.09 L 472.71,52.05 L 470.20,49.54 L 469.97,46.07 L 467.12,43.19 L 467.46,42.16 L 466.97,40.23 L 463.63,33.58 L 463.32,31.00 L 462.41,29.55 L 462.12,27.49 L 461.39,26.74 L 461.58,26.09 L 461.21,26.53 L 460.83,25.98 L 461.17,25.59 L 459.84,22.72 L 459.87,21.36 L 458.69,19.95 L 458.39,18.18 L 455.26,14.10 L 454.30,10.44 L 451.75,6.17 L 444.40,0.42 L 444.36,0.00 L 496.27,0.00 L 495.90,0.77 L 496.47,4.01 L 492.48,7.36 L 492.13,9.11 L 492.78,10.75 L 491.02,11.17 L 491.27,11.92 L 490.79,12.70 L 492.78,14.69 L 492.31,15.92 L 493.07,16.52 L 493.90,19.33 L 495.10,20.31 L 495.14,21.28 L 497.59,24.43 L 497.61,25.64 L 496.03,27.87 L 498.65,27.89 L 501.91,28.88 L 502.89,31.68 L 502.67,32.73 L 508.52,32.63 L 513.57,28.05 L 512.92,29.15 L 513.46,30.31 L 512.83,31.47 L 512.81,40.90 L 513.51,40.31 L 515.11,41.34 L 517.28,40.16 L 519.75,40.43 L 525.58,53.04 L 524.86,54.00 L 525.04,54.73 L 523.64,56.01 L 523.71,61.17 L 522.85,62.51 L 524.40,66.78 L 523.45,67.22 L 523.58,68.31 L 521.99,69.89 L 521.77,71.33 L 521.10,71.74 L 521.01,73.21 L 522.55,75.26 L 520.71,78.45 L 522.31,83.08 L 523.63,83.20 L 524.60,84.17 L 523.33,85.19 L 523.27,86.95 L 522.33,87.42 L 520.73,90.34 L 519.45,91.14 L 519.17,91.97 L 520.11,92.63 L 520.19,93.75 L 517.97,95.26 Z M 476.72,67.57 L 476.69,67.62 L 476.43,67.46 L 476.72,67.57 Z M 474.98,64.03 L 474.80,64.03 L 474.88,63.78 L 474.98,64.03 Z M 470.08,49.77 L 470.16,49.89 L 469.80,49.71 L 470.08,49.77 Z M 446.30,4.00 L 446.14,4.01 L 446.07,3.66 L 446.28,3.24 L 446.30,4.00 Z" fill="#C8D8E8" stroke="#8BAABB" stroke-width="0.8"/>
<path d="M 521.54,97.57 L 522.98,98.09 L 522.50,98.91 L 523.83,104.82 L 523.58,105.46 L 527.12,109.44 L 525.45,111.72 L 526.51,113.39 L 526.20,114.49 L 524.87,114.90 L 525.61,116.71 L 525.05,117.46 L 526.90,119.12 L 526.30,120.08 L 526.42,121.47 L 527.32,121.84 L 528.68,124.48 L 529.41,129.93 L 530.29,131.14 L 530.96,134.76 L 530.77,136.97 L 532.54,137.61 L 535.30,137.00 L 536.47,138.45 L 534.20,146.82 L 528.44,149.71 L 526.81,151.47 L 526.31,152.84 L 527.65,155.72 L 526.67,156.21 L 526.09,158.27 L 527.37,164.02 L 526.29,165.32 L 526.16,166.57 L 528.05,170.15 L 527.88,171.35 L 526.22,172.31 L 524.73,171.96 L 522.28,178.72 L 519.26,182.36 L 518.27,188.06 L 516.73,189.68 L 517.54,193.81 L 517.12,195.98 L 518.07,196.71 L 517.23,198.44 L 515.86,198.36 L 514.78,203.02 L 515.26,203.82 L 514.33,204.75 L 513.94,204.25 L 513.46,205.06 L 513.15,208.14 L 513.97,210.35 L 515.40,211.19 L 515.14,212.04 L 514.46,212.09 L 515.95,215.61 L 515.98,217.67 L 516.99,218.79 L 516.28,221.18 L 516.93,222.23 L 518.06,221.96 L 518.38,222.88 L 517.55,226.08 L 518.11,229.83 L 516.62,230.30 L 516.55,231.30 L 514.93,234.00 L 514.47,237.42 L 513.22,238.18 L 514.20,238.97 L 514.47,244.68 L 512.36,246.37 L 512.31,247.58 L 510.19,248.14 L 510.10,249.80 L 509.52,249.80 L 509.20,251.03 L 509.59,251.94 L 509.12,252.11 L 509.89,253.18 L 509.13,254.72 L 509.71,256.13 L 509.27,258.08 L 510.42,261.05 L 510.64,263.93 L 511.53,265.23 L 510.83,266.55 L 507.86,267.88 L 507.19,273.50 L 505.81,273.50 L 506.45,276.01 L 506.01,277.55 L 505.16,277.50 L 505.10,278.45 L 506.08,279.38 L 504.24,282.61 L 504.92,284.38 L 504.58,287.87 L 504.91,289.50 L 504.43,290.19 L 505.67,293.70 L 504.45,294.46 L 503.69,294.19 L 503.08,295.36 L 503.70,296.93 L 502.98,297.84 L 503.11,301.50 L 505.63,302.70 L 505.58,303.55 L 504.59,303.77 L 504.24,304.76 L 505.81,306.05 L 505.85,306.72 L 505.13,307.32 L 506.17,308.69 L 504.87,310.16 L 505.23,311.85 L 504.86,312.36 L 509.10,312.77 L 509.67,313.76 L 508.53,315.76 L 503.37,315.66 L 503.47,316.63 L 506.63,317.24 L 508.40,319.60 L 507.16,320.75 L 507.28,321.48 L 505.48,322.08 L 505.53,324.32 L 506.48,325.32 L 504.51,326.80 L 505.49,327.55 L 505.99,331.17 L 504.28,332.18 L 504.51,333.68 L 503.92,334.20 L 504.77,334.85 L 504.73,335.50 L 503.75,335.30 L 502.84,337.01 L 501.60,337.36 L 501.70,338.59 L 500.40,341.14 L 501.71,342.40 L 502.03,344.54 L 499.94,345.98 L 500.09,348.27 L 497.37,349.89 L 496.23,351.71 L 496.79,352.13 L 496.48,352.43 L 494.36,352.55 L 493.60,354.28 L 494.41,356.37 L 493.69,357.55 L 494.31,358.18 L 493.90,359.03 L 495.46,360.54 L 496.27,364.20 L 499.02,363.12 L 501.98,363.38 L 501.69,364.15 L 502.22,365.92 L 501.31,367.10 L 502.26,368.23 L 501.02,370.73 L 504.07,373.11 L 504.18,374.13 L 517.30,374.43 L 527.11,376.90 L 524.18,376.84 L 521.99,376.02 L 520.44,376.59 L 519.13,378.69 L 517.99,378.33 L 513.62,380.26 L 513.56,379.74 L 511.36,380.24 L 512.18,380.75 L 511.20,381.80 L 511.72,382.19 L 510.52,385.62 L 510.64,388.66 L 508.61,389.71 L 503.27,388.11 L 500.99,385.82 L 502.11,384.48 L 503.20,384.60 L 503.43,385.18 L 502.37,386.04 L 503.35,385.94 L 503.85,385.70 L 503.81,384.52 L 504.89,384.34 L 505.33,386.10 L 503.90,387.02 L 505.16,386.74 L 505.55,386.27 L 505.63,384.32 L 508.12,383.45 L 509.70,381.85 L 509.37,380.98 L 508.18,380.94 L 507.87,380.30 L 507.87,381.14 L 504.56,382.60 L 503.81,383.53 L 502.09,382.75 L 500.28,383.15 L 501.56,383.06 L 502.70,383.98 L 500.44,384.11 L 501.26,384.59 L 500.46,384.70 L 500.55,385.49 L 499.74,385.09 L 501.57,386.87 L 500.48,386.92 L 498.97,385.66 L 498.77,386.09 L 495.45,383.75 L 497.71,383.81 L 499.26,384.89 L 499.46,384.46 L 498.76,383.92 L 499.69,383.75 L 497.86,383.36 L 498.24,382.80 L 497.69,381.08 L 498.98,380.63 L 499.36,380.13 L 499.96,380.67 L 499.29,381.44 L 500.11,380.85 L 501.14,381.34 L 502.90,379.68 L 507.35,379.63 L 506.74,378.94 L 501.93,378.57 L 501.22,379.68 L 500.37,379.18 L 501.41,378.50 L 500.23,378.90 L 498.36,378.46 L 497.51,380.10 L 498.61,379.14 L 499.56,379.68 L 497.33,381.22 L 497.73,381.64 L 497.56,382.95 L 496.52,383.31 L 496.28,382.63 L 496.13,383.36 L 494.46,382.40 L 495.85,382.19 L 496.03,381.59 L 493.75,380.86 L 495.91,380.80 L 495.43,380.19 L 496.63,378.85 L 497.40,378.91 L 496.83,378.39 L 498.04,378.41 L 496.16,377.87 L 495.89,378.41 L 496.39,378.96 L 495.68,379.85 L 494.86,378.80 L 494.84,379.55 L 493.41,380.47 L 492.87,380.18 L 493.71,379.51 L 492.94,379.23 L 494.20,378.24 L 493.08,377.82 L 493.76,377.00 L 493.64,376.07 L 492.64,374.61 L 493.84,375.89 L 494.20,375.44 L 495.45,376.18 L 496.10,375.25 L 497.44,374.90 L 496.91,376.30 L 497.46,375.89 L 498.30,376.46 L 499.03,374.83 L 498.19,375.98 L 497.77,374.78 L 498.72,373.86 L 500.46,376.18 L 500.03,377.13 L 497.88,378.02 L 500.55,378.02 L 499.79,377.61 L 500.71,376.94 L 500.91,376.03 L 499.58,374.05 L 500.89,373.80 L 500.91,372.66 L 499.46,371.06 L 497.08,370.20 L 496.93,369.65 L 495.73,370.07 L 497.07,370.32 L 496.79,371.16 L 497.50,370.52 L 500.37,372.27 L 499.23,373.05 L 495.60,371.17 L 495.97,372.02 L 496.97,372.13 L 497.46,372.66 L 496.74,372.30 L 497.10,373.00 L 496.08,373.39 L 497.95,373.22 L 496.48,373.88 L 495.97,375.12 L 495.30,372.15 L 494.91,371.54 L 495.37,375.72 L 493.75,374.70 L 493.22,373.14 L 494.82,374.50 L 493.59,372.33 L 494.42,371.82 L 493.16,371.84 L 492.87,372.62 L 492.13,371.84 L 492.77,371.43 L 491.56,371.32 L 492.10,370.60 L 491.42,370.29 L 491.69,369.23 L 493.49,371.21 L 493.12,370.26 L 493.53,369.76 L 492.91,369.61 L 492.32,368.15 L 492.98,368.48 L 492.90,367.37 L 492.41,367.20 L 491.69,368.17 L 490.76,367.14 L 490.71,367.92 L 490.06,367.76 L 489.91,366.73 L 490.44,365.86 L 489.39,366.52 L 489.23,365.74 L 491.38,365.13 L 492.19,365.91 L 491.69,364.89 L 492.59,364.78 L 492.39,363.56 L 494.34,363.57 L 492.70,362.65 L 493.75,361.39 L 492.48,362.30 L 492.06,364.27 L 490.63,364.79 L 490.08,364.30 L 490.51,363.89 L 489.95,364.03 L 488.97,362.01 L 489.55,361.87 L 490.08,362.90 L 489.93,362.03 L 491.69,362.52 L 490.07,361.54 L 490.80,361.06 L 489.26,361.68 L 488.81,361.23 L 489.06,360.26 L 488.04,361.01 L 487.41,360.51 L 487.77,360.12 L 486.38,359.59 L 488.64,358.80 L 489.64,360.21 L 491.83,360.46 L 489.64,359.62 L 488.53,357.70 L 491.65,358.72 L 490.86,358.03 L 491.69,357.44 L 491.52,356.94 L 490.34,357.77 L 488.79,357.05 L 488.64,356.41 L 490.44,356.00 L 489.02,356.00 L 488.78,355.47 L 488.93,354.88 L 490.40,354.33 L 490.76,354.99 L 491.29,354.52 L 491.61,355.32 L 492.79,356.19 L 492.94,355.82 L 491.85,355.26 L 491.69,354.26 L 490.31,354.01 L 490.10,353.40 L 490.42,352.09 L 491.15,352.65 L 491.92,352.81 L 491.00,352.19 L 490.62,350.64 L 492.07,350.31 L 490.53,350.07 L 490.67,351.14 L 489.65,351.66 L 489.96,352.42 L 489.33,354.26 L 488.15,353.09 L 488.48,351.48 L 487.85,350.22 L 488.52,349.41 L 487.95,348.59 L 488.48,347.68 L 488.72,347.97 L 490.53,347.85 L 488.91,347.75 L 488.35,346.70 L 489.62,345.68 L 490.95,346.69 L 490.72,345.47 L 491.61,345.18 L 489.36,344.68 L 490.21,344.32 L 489.15,344.56 L 488.83,343.55 L 487.57,342.56 L 487.85,342.05 L 486.78,342.11 L 488.20,341.70 L 489.57,343.71 L 488.75,341.83 L 491.62,342.01 L 491.69,342.61 L 492.41,342.05 L 492.18,342.71 L 493.51,342.89 L 493.80,343.84 L 494.26,343.23 L 495.14,343.61 L 495.62,342.95 L 495.59,342.47 L 494.98,343.15 L 494.29,342.83 L 493.17,341.00 L 494.12,341.65 L 495.94,341.86 L 493.39,340.72 L 493.84,340.27 L 492.66,339.74 L 493.08,338.71 L 492.72,337.98 L 492.39,340.03 L 491.40,340.55 L 486.11,339.54 L 486.62,338.93 L 487.21,339.23 L 486.78,338.75 L 487.28,338.17 L 488.66,338.87 L 487.77,339.38 L 488.66,339.15 L 488.98,339.59 L 489.57,339.85 L 488.93,339.21 L 490.62,338.65 L 489.99,338.46 L 490.53,338.04 L 488.86,338.54 L 487.95,337.61 L 488.34,337.33 L 487.46,337.21 L 488.79,335.47 L 489.75,335.36 L 490.17,336.42 L 490.15,335.26 L 490.80,335.14 L 491.08,335.77 L 490.98,335.06 L 490.53,334.97 L 491.29,333.92 L 489.91,333.43 L 489.55,332.83 L 490.08,332.30 L 489.32,332.59 L 489.17,331.92 L 487.05,331.46 L 487.79,331.84 L 486.73,331.90 L 486.51,332.47 L 488.07,332.52 L 487.78,332.90 L 486.47,332.75 L 485.59,331.81 L 484.34,331.69 L 483.84,330.77 L 484.81,329.12 L 483.07,330.68 L 481.68,330.71 L 480.64,331.15 L 480.07,331.80 L 481.63,331.37 L 481.56,332.58 L 482.13,332.61 L 481.71,333.14 L 480.14,332.66 L 479.77,330.88 L 482.13,328.77 L 482.94,328.84 L 483.11,327.98 L 483.70,328.38 L 484.19,328.34 L 483.48,328.11 L 483.79,327.32 L 484.85,327.78 L 485.17,326.75 L 485.84,327.28 L 485.55,326.47 L 486.33,325.83 L 486.57,324.12 L 487.26,324.14 L 487.95,325.69 L 488.30,324.99 L 487.90,324.05 L 488.56,323.85 L 490.23,324.23 L 489.65,324.60 L 490.52,324.99 L 489.82,325.60 L 490.36,325.80 L 489.82,326.67 L 490.41,326.34 L 490.51,325.40 L 491.10,326.24 L 488.86,327.59 L 487.71,327.10 L 488.68,327.68 L 490.58,327.11 L 490.40,328.18 L 491.92,328.34 L 490.78,327.22 L 491.68,326.71 L 492.39,328.17 L 490.98,330.11 L 491.73,330.46 L 492.29,329.60 L 492.59,329.90 L 492.59,328.98 L 494.24,328.01 L 493.72,327.76 L 494.01,326.98 L 495.18,325.77 L 494.62,325.80 L 492.94,328.18 L 493.39,326.39 L 493.12,325.36 L 494.81,323.13 L 496.22,322.81 L 495.29,322.46 L 493.57,323.77 L 494.10,321.10 L 495.95,319.87 L 497.34,321.04 L 498.53,320.82 L 495.76,319.44 L 494.51,319.70 L 494.49,319.05 L 495.44,318.60 L 494.83,317.33 L 496.67,317.00 L 499.21,315.46 L 499.52,313.71 L 500.05,313.40 L 500.10,312.06 L 499.24,313.37 L 497.82,311.78 L 496.23,311.31 L 496.59,310.47 L 495.54,310.53 L 496.11,309.79 L 496.67,309.98 L 496.52,309.17 L 497.35,307.43 L 498.57,307.72 L 498.43,306.68 L 498.10,307.28 L 497.07,306.97 L 498.04,306.10 L 497.26,305.92 L 496.70,304.90 L 496.88,303.73 L 498.00,303.07 L 497.86,301.95 L 498.31,301.30 L 499.16,301.80 L 499.08,300.42 L 498.31,299.13 L 498.47,297.29 L 500.43,297.56 L 498.45,295.28 L 500.07,294.50 L 501.21,296.59 L 500.92,292.82 L 499.14,293.13 L 498.16,292.29 L 499.74,290.76 L 500.72,290.71 L 501.97,290.15 L 501.97,287.98 L 501.17,290.28 L 499.98,290.63 L 499.05,289.34 L 497.71,288.81 L 496.70,289.65 L 497.04,290.55 L 496.50,291.02 L 494.07,291.42 L 492.47,290.97 L 492.89,290.06 L 493.81,289.83 L 494.20,289.03 L 493.42,289.76 L 492.22,289.48 L 491.29,285.29 L 491.94,282.17 L 492.68,281.17 L 492.32,280.20 L 493.12,277.64 L 492.79,276.49 L 494.44,275.39 L 494.96,275.94 L 494.78,274.26 L 495.97,272.00 L 496.06,270.19 L 493.89,263.90 L 494.41,260.89 L 493.08,258.24 L 493.52,255.98 L 492.99,255.17 L 493.47,253.60 L 494.42,254.31 L 496.07,253.64 L 496.48,250.99 L 496.08,250.51 L 496.57,250.19 L 496.66,249.06 L 496.97,250.01 L 497.55,249.82 L 497.52,248.45 L 498.56,246.54 L 498.73,244.03 L 500.14,242.34 L 499.73,240.68 L 502.45,237.01 L 504.02,230.82 L 503.83,229.08 L 506.40,224.20 L 505.50,220.63 L 506.77,219.81 L 507.81,214.80 L 506.94,213.33 L 507.20,210.76 L 505.82,200.39 L 506.31,197.35 L 506.94,197.71 L 507.87,196.83 L 507.78,195.32 L 508.63,194.41 L 508.46,190.58 L 507.30,188.98 L 507.07,186.77 L 509.24,182.42 L 510.22,176.41 L 511.04,176.04 L 510.73,172.30 L 511.85,170.95 L 511.63,169.89 L 512.89,165.62 L 512.55,165.33 L 512.85,162.64 L 512.17,161.46 L 512.78,158.96 L 514.09,157.52 L 513.19,150.85 L 513.74,144.82 L 514.45,143.14 L 513.75,142.26 L 512.88,142.65 L 513.08,140.43 L 513.33,138.93 L 513.69,138.52 L 514.22,139.16 L 515.09,137.64 L 515.74,129.37 L 516.61,125.70 L 515.88,122.29 L 516.16,121.64 L 515.60,120.64 L 516.10,112.81 L 515.41,110.77 L 515.69,110.25 L 514.67,104.06 L 515.01,101.39 L 514.42,100.51 L 517.19,99.80 L 518.41,97.61 L 517.97,95.26 L 520.19,93.75 L 521.54,97.57 Z M 525.70,397.85 L 523.98,396.98 L 523.74,397.02 L 525.23,397.93 L 523.08,398.36 L 519.29,397.33 L 519.43,396.27 L 519.09,396.86 L 518.85,396.25 L 518.75,397.18 L 518.47,396.46 L 518.24,397.24 L 517.57,397.30 L 517.19,396.15 L 517.04,397.44 L 516.39,397.55 L 516.43,396.98 L 514.98,397.46 L 515.40,396.25 L 514.61,397.44 L 513.20,396.98 L 512.05,397.48 L 511.54,397.05 L 512.92,396.59 L 514.04,395.80 L 511.67,396.75 L 510.98,396.44 L 511.94,396.19 L 510.83,396.11 L 510.29,396.96 L 510.79,395.66 L 508.58,396.15 L 509.22,395.74 L 508.80,395.64 L 508.95,394.96 L 508.21,394.85 L 507.78,395.35 L 508.28,395.58 L 507.29,396.23 L 507.25,395.46 L 506.67,395.97 L 506.57,395.37 L 506.26,395.97 L 505.55,395.46 L 504.31,395.97 L 504.08,395.63 L 504.67,395.26 L 503.94,395.29 L 503.90,394.75 L 504.34,394.80 L 504.12,394.29 L 506.09,395.29 L 505.59,394.80 L 506.67,395.08 L 504.92,394.02 L 506.80,394.80 L 507.25,394.51 L 506.47,393.98 L 507.93,394.36 L 508.37,394.12 L 507.65,393.90 L 508.09,393.68 L 509.88,394.80 L 509.53,394.18 L 510.65,394.46 L 510.78,393.40 L 511.77,393.21 L 513.01,393.40 L 512.25,394.12 L 512.01,395.52 L 512.86,395.53 L 512.45,394.67 L 513.18,393.82 L 515.37,395.32 L 515.02,394.68 L 516.14,395.08 L 514.21,394.20 L 513.23,392.88 L 511.49,392.78 L 511.13,392.12 L 511.63,392.23 L 510.91,391.57 L 516.10,394.12 L 516.51,393.65 L 515.70,393.25 L 516.77,392.73 L 518.46,395.16 L 518.68,394.53 L 517.91,392.92 L 519.87,394.19 L 520.11,393.39 L 521.95,394.23 L 520.79,395.71 L 521.06,396.19 L 521.76,394.97 L 522.41,395.35 L 522.49,394.33 L 523.55,394.45 L 516.90,391.57 L 515.83,389.29 L 516.10,388.52 L 521.16,386.75 L 521.22,385.40 L 515.67,386.32 L 513.91,385.02 L 514.26,382.60 L 514.94,382.25 L 514.81,382.92 L 515.41,383.01 L 516.41,381.78 L 515.03,381.81 L 515.15,380.87 L 514.28,380.54 L 516.16,380.33 L 517.57,381.27 L 519.66,379.59 L 519.58,378.61 L 520.79,378.04 L 522.60,379.93 L 524.96,378.83 L 525.94,379.57 L 525.85,397.01 L 525.39,396.91 L 525.85,397.14 L 525.70,397.85 Z M 446.71,225.77 L 446.95,225.37 L 447.18,226.03 L 446.71,225.77 Z M 459.88,225.03 L 458.35,225.14 L 459.05,224.48 L 459.88,225.03 Z M 261.06,172.03 L 259.70,172.57 L 260.17,171.47 L 261.06,172.03 Z M 285.66,166.57 L 285.71,166.57 L 285.74,166.63 L 285.66,166.57 Z M 452.49,165.71 L 452.49,165.74 L 452.37,165.76 L 452.49,165.71 Z M 451.19,165.08 L 451.07,165.09 L 451.15,165.01 L 451.19,165.08 Z M 535.10,406.08 L 533.84,405.56 L 534.22,405.37 L 535.10,406.08 Z M 536.05,406.18 L 535.45,405.89 L 535.64,405.43 L 536.05,406.18 Z M 532.50,406.25 L 532.44,405.77 L 531.32,406.08 L 530.60,405.58 L 533.29,405.46 L 532.50,406.25 Z M 535.33,404.94 L 535.54,405.11 L 535.07,405.27 L 535.33,404.94 Z M 533.65,404.98 L 532.77,404.55 L 533.26,404.10 L 533.82,404.53 L 533.74,403.62 L 534.29,403.46 L 534.20,404.52 L 534.91,404.99 L 533.65,404.98 Z M 532.73,403.54 L 531.74,403.80 L 532.00,402.89 L 532.73,403.54 Z M 519.36,401.94 L 518.29,402.10 L 518.29,401.48 L 519.36,401.94 Z M 517.33,401.09 L 516.95,401.82 L 516.28,401.16 L 517.33,401.09 Z M 536.96,401.50 L 536.07,401.04 L 536.61,400.64 L 537.50,400.98 L 536.96,401.50 Z M 539.72,400.93 L 538.89,400.93 L 539.59,400.10 L 540.30,400.29 L 539.72,400.93 Z M 537.82,399.70 L 536.10,398.85 L 536.40,398.72 L 537.82,399.70 Z M 529.40,404.57 L 529.04,403.63 L 528.15,403.74 L 528.39,403.04 L 526.02,402.10 L 526.11,402.54 L 524.81,402.21 L 525.03,402.79 L 524.39,402.89 L 523.74,402.10 L 525.08,401.48 L 523.70,401.85 L 524.81,400.31 L 523.60,400.94 L 522.72,399.98 L 522.64,400.79 L 521.95,399.81 L 520.66,400.09 L 521.64,400.15 L 521.77,400.65 L 520.39,400.71 L 520.52,401.27 L 521.69,401.37 L 521.55,402.26 L 522.62,402.37 L 522.46,402.96 L 521.30,402.64 L 521.15,401.94 L 520.67,402.77 L 520.12,401.98 L 520.80,401.65 L 518.38,401.27 L 519.81,400.98 L 519.12,400.90 L 520.25,400.20 L 517.99,400.88 L 517.49,400.59 L 518.02,400.15 L 516.79,399.98 L 519.68,399.11 L 519.72,400.03 L 520.08,399.04 L 527.16,398.29 L 527.85,399.29 L 526.11,399.32 L 526.02,400.02 L 523.11,399.14 L 528.67,400.92 L 526.78,401.31 L 525.73,400.87 L 525.17,400.98 L 526.38,401.43 L 526.11,401.71 L 529.08,402.07 L 528.88,402.54 L 529.66,402.59 L 529.38,403.07 L 530.04,403.88 L 529.40,404.57 Z M 531.74,400.71 L 530.70,400.15 L 529.16,400.56 L 528.82,398.60 L 527.69,398.22 L 534.59,398.20 L 536.21,399.54 L 534.79,401.27 L 533.62,400.99 L 533.80,400.54 L 533.28,400.18 L 532.34,400.90 L 530.80,400.76 L 531.74,400.71 Z M 514.27,399.42 L 514.58,400.09 L 513.77,400.48 L 513.48,400.03 L 513.42,400.51 L 513.32,399.92 L 513.64,399.64 L 513.15,399.19 L 512.33,399.78 L 512.24,399.22 L 510.43,399.14 L 511.00,398.70 L 510.39,398.49 L 513.32,398.52 L 513.01,398.31 L 514.71,397.91 L 513.57,398.75 L 512.23,398.89 L 514.98,399.00 L 515.07,399.45 L 514.27,399.42 Z M 517.32,398.39 L 518.02,398.31 L 517.54,397.86 L 518.86,398.36 L 518.77,397.68 L 522.44,398.42 L 517.32,398.39 Z M 513.21,397.95 L 512.12,397.75 L 513.04,397.41 L 514.24,397.52 L 513.21,397.95 Z M 508.65,397.68 L 508.18,398.41 L 508.29,397.98 L 507.85,398.31 L 507.48,397.80 L 509.39,397.41 L 511.05,398.14 L 508.65,397.68 Z M 503.97,396.77 L 503.27,395.89 L 503.77,395.76 L 504.30,396.36 L 503.97,396.77 Z M 500.88,394.12 L 500.42,393.43 L 501.24,393.12 L 501.73,393.34 L 500.88,394.12 Z M 515.12,392.17 L 515.57,392.55 L 514.78,392.80 L 513.60,392.06 L 515.12,392.17 Z M 502.61,391.84 L 501.98,392.69 L 500.68,392.62 L 502.01,391.28 L 502.61,391.84 Z M 496.27,391.68 L 494.34,391.23 L 495.09,390.83 L 496.27,391.68 Z M 506.48,390.22 L 507.45,390.17 L 507.89,391.15 L 507.87,390.44 L 508.27,390.45 L 509.03,392.14 L 509.30,391.34 L 509.46,391.91 L 509.74,391.22 L 510.37,391.42 L 510.07,392.29 L 510.44,392.00 L 510.54,392.80 L 510.10,393.33 L 509.44,393.06 L 509.78,393.71 L 509.12,393.65 L 508.14,393.06 L 509.08,392.51 L 507.79,392.54 L 507.76,391.54 L 507.16,391.78 L 506.94,392.84 L 506.58,392.51 L 506.89,392.12 L 506.22,392.53 L 505.91,391.99 L 506.36,391.28 L 506.48,390.22 Z M 503.14,391.73 L 503.67,391.57 L 503.27,391.12 L 502.61,391.39 L 502.26,390.07 L 503.53,390.51 L 504.30,389.44 L 504.92,390.43 L 505.30,389.80 L 506.21,390.04 L 505.31,390.63 L 505.90,390.52 L 505.46,391.06 L 506.22,391.37 L 505.48,391.98 L 504.26,390.76 L 505.62,392.52 L 504.79,392.95 L 505.06,393.34 L 504.03,393.23 L 504.57,392.51 L 503.14,391.73 Z M 514.05,389.72 L 514.76,390.87 L 514.13,391.13 L 512.63,390.24 L 513.47,392.44 L 511.63,391.57 L 511.25,389.36 L 513.04,389.54 L 512.35,388.21 L 513.50,387.07 L 514.03,387.48 L 514.05,389.72 Z M 492.82,386.64 L 492.94,386.76 L 491.90,387.29 L 491.61,386.79 L 492.82,386.64 Z M 494.11,386.38 L 494.87,386.82 L 494.29,387.16 L 492.19,386.04 L 493.68,386.50 L 493.56,385.65 L 494.87,385.87 L 494.11,386.38 Z M 499.81,390.83 L 498.45,391.73 L 497.37,391.39 L 498.76,391.12 L 498.21,390.92 L 498.98,390.89 L 498.40,390.28 L 499.74,389.50 L 498.72,389.16 L 497.38,389.61 L 497.06,389.12 L 496.75,390.11 L 497.19,390.53 L 496.79,390.95 L 495.41,390.43 L 495.89,389.80 L 495.40,388.55 L 495.83,388.33 L 493.57,388.66 L 494.27,388.21 L 493.42,387.50 L 494.59,387.09 L 496.10,387.93 L 497.74,387.91 L 496.90,387.78 L 497.24,387.26 L 495.74,387.67 L 495.72,387.05 L 494.69,386.40 L 496.93,386.82 L 496.29,385.93 L 497.18,385.64 L 497.42,386.52 L 497.33,385.82 L 497.99,385.98 L 498.18,388.05 L 498.62,387.10 L 498.35,386.19 L 499.16,386.71 L 499.53,387.98 L 499.56,386.87 L 500.92,387.19 L 501.36,387.66 L 500.79,387.99 L 500.99,388.55 L 501.52,388.10 L 503.05,389.00 L 502.31,389.65 L 501.40,389.38 L 501.71,389.91 L 501.21,389.80 L 501.21,390.39 L 501.80,390.92 L 500.59,390.50 L 500.50,391.26 L 499.81,390.83 Z M 490.53,384.54 L 489.33,385.04 L 489.45,384.79 L 490.53,384.54 Z M 494.69,382.16 L 494.16,381.58 L 492.14,381.80 L 493.44,381.06 L 494.60,381.41 L 494.69,382.16 Z M 496.84,385.40 L 493.62,385.09 L 494.20,384.87 L 491.69,382.98 L 490.34,383.36 L 489.28,382.81 L 488.83,383.30 L 486.02,380.52 L 486.51,380.24 L 488.49,381.47 L 488.57,382.08 L 490.42,382.08 L 493.33,383.70 L 493.36,382.99 L 494.06,384.63 L 494.43,383.59 L 495.40,384.45 L 495.04,384.71 L 496.84,385.40 Z M 495.02,380.30 L 494.82,380.30 L 495.00,380.13 L 495.02,380.30 Z M 491.20,380.13 L 491.92,379.23 L 491.02,379.68 L 491.74,378.85 L 490.10,380.12 L 489.70,379.14 L 491.27,378.30 L 490.71,377.87 L 492.70,377.66 L 493.01,378.32 L 491.97,380.07 L 491.20,380.13 Z M 485.59,377.22 L 484.96,376.02 L 487.36,376.37 L 487.03,377.58 L 485.59,377.22 Z M 491.74,377.43 L 492.05,377.12 L 490.30,375.73 L 492.11,376.33 L 492.41,377.46 L 491.74,377.43 Z M 489.31,376.95 L 489.56,376.21 L 490.22,376.39 L 489.46,375.89 L 489.96,375.95 L 488.19,375.42 L 489.04,375.09 L 491.33,377.01 L 490.11,377.61 L 489.31,376.95 Z M 485.73,375.38 L 486.98,374.89 L 486.53,375.70 L 485.75,375.83 L 485.73,375.38 Z M 488.38,375.00 L 488.25,374.72 L 488.56,374.83 L 488.38,375.00 Z M 487.55,374.41 L 486.11,375.06 L 487.36,373.73 L 487.55,374.41 Z M 492.90,376.34 L 490.32,374.45 L 490.29,373.78 L 492.32,374.86 L 492.90,376.34 Z M 485.06,375.29 L 485.80,374.44 L 485.40,374.34 L 486.01,373.02 L 487.00,373.05 L 486.02,374.72 L 485.06,375.29 Z M 483.62,373.51 L 483.76,372.55 L 484.50,372.10 L 483.62,373.51 Z M 487.63,371.99 L 490.28,373.37 L 489.64,373.97 L 488.07,373.11 L 487.63,371.99 Z M 491.96,372.85 L 491.30,371.63 L 491.87,372.16 L 492.28,372.22 L 491.96,372.85 Z M 484.62,375.33 L 484.73,374.83 L 484.29,375.22 L 484.55,374.67 L 483.92,374.23 L 484.59,373.78 L 484.14,373.73 L 484.66,372.87 L 485.26,373.39 L 485.48,373.05 L 484.89,371.57 L 485.26,371.27 L 485.93,372.60 L 484.62,375.33 Z M 490.81,372.74 L 489.34,371.92 L 490.44,371.16 L 490.37,370.61 L 491.27,372.27 L 490.81,372.74 Z M 489.35,369.57 L 489.25,368.60 L 489.83,368.57 L 490.17,369.32 L 490.13,369.88 L 489.35,369.57 Z M 484.28,369.60 L 483.63,370.09 L 483.34,369.71 L 483.46,370.83 L 482.34,371.35 L 483.16,369.29 L 482.95,368.72 L 483.56,368.43 L 483.41,369.22 L 483.72,368.64 L 484.28,369.60 Z M 492.25,369.25 L 491.42,368.71 L 491.79,368.34 L 492.26,368.34 L 492.25,369.25 Z M 485.70,369.75 L 484.23,369.95 L 485.70,368.92 L 484.62,369.03 L 485.74,367.95 L 487.28,368.27 L 486.82,368.37 L 487.36,369.21 L 487.03,369.49 L 486.43,368.54 L 485.70,369.75 Z M 485.19,367.52 L 484.25,367.64 L 484.59,367.09 L 485.19,367.52 Z M 488.08,367.91 L 486.96,366.89 L 487.74,366.41 L 487.52,367.02 L 488.17,367.14 L 488.08,367.91 Z M 489.05,368.15 L 488.61,365.63 L 489.62,367.66 L 489.05,368.15 Z M 488.31,366.94 L 487.81,366.19 L 486.18,367.09 L 486.47,366.30 L 485.86,366.18 L 485.48,366.86 L 485.08,366.64 L 485.44,366.03 L 484.60,365.83 L 485.02,365.30 L 486.83,365.62 L 486.71,365.00 L 487.27,364.75 L 486.60,364.02 L 488.30,364.97 L 488.31,366.94 Z M 484.65,364.02 L 485.40,364.19 L 485.03,363.60 L 485.66,363.52 L 486.24,364.63 L 485.84,364.63 L 486.60,364.80 L 485.81,365.28 L 484.83,365.02 L 485.30,364.80 L 484.65,364.02 Z M 483.84,364.48 L 483.85,363.43 L 484.48,363.45 L 484.51,364.59 L 483.84,364.48 Z M 486.98,362.68 L 486.51,362.79 L 486.47,362.29 L 486.98,362.68 Z M 482.98,362.96 L 482.13,362.66 L 482.62,363.15 L 482.49,364.46 L 481.37,364.30 L 481.73,363.58 L 481.03,363.38 L 482.04,362.90 L 481.33,362.12 L 483.56,362.12 L 482.98,362.96 Z M 487.12,363.25 L 488.17,362.40 L 486.51,361.95 L 488.41,361.81 L 489.35,363.60 L 488.12,363.41 L 489.72,364.46 L 489.61,365.00 L 489.15,364.50 L 488.88,364.89 L 487.12,363.25 Z M 486.10,361.13 L 487.36,361.21 L 486.21,362.08 L 485.80,362.01 L 486.10,361.13 Z M 482.93,361.65 L 482.28,361.36 L 483.11,360.56 L 481.42,361.06 L 481.84,359.42 L 482.64,359.39 L 482.09,359.73 L 483.22,360.18 L 483.60,359.23 L 481.77,358.42 L 483.36,358.27 L 484.05,359.12 L 484.69,358.75 L 483.92,359.62 L 485.69,359.12 L 485.62,359.84 L 484.12,360.46 L 482.93,361.65 Z M 480.25,356.70 L 481.05,355.81 L 480.38,355.14 L 481.10,354.50 L 482.07,354.93 L 483.21,357.33 L 482.17,356.96 L 482.00,355.82 L 480.25,356.70 Z M 481.58,353.76 L 481.51,354.18 L 480.84,353.65 L 480.99,353.05 L 481.58,353.76 Z M 484.80,352.25 L 484.01,351.31 L 483.07,351.37 L 483.60,351.03 L 482.85,351.14 L 483.56,350.14 L 485.02,350.59 L 484.80,352.25 Z M 480.07,351.64 L 482.19,349.88 L 482.33,351.05 L 480.75,351.98 L 480.07,351.64 Z M 482.59,350.48 L 482.32,349.59 L 481.95,349.58 L 481.13,350.28 L 481.33,349.58 L 480.49,349.86 L 480.11,349.24 L 481.81,348.57 L 481.64,349.02 L 482.39,348.87 L 482.98,350.08 L 482.59,350.48 Z M 482.93,349.79 L 482.38,348.30 L 483.79,348.91 L 483.70,349.72 L 482.93,349.79 Z M 482.45,355.11 L 482.85,354.49 L 482.31,354.43 L 482.71,353.98 L 482.20,354.12 L 481.37,352.46 L 481.89,352.25 L 483.30,354.04 L 482.28,352.11 L 483.39,353.04 L 483.78,352.98 L 483.16,352.37 L 484.14,352.08 L 483.78,351.59 L 485.08,352.93 L 485.66,350.81 L 484.68,350.02 L 485.57,350.02 L 485.54,349.56 L 484.59,349.86 L 484.29,349.08 L 485.22,348.68 L 484.01,348.47 L 484.77,348.57 L 484.32,348.13 L 486.36,347.36 L 486.85,347.71 L 486.77,348.79 L 487.36,347.57 L 487.23,349.16 L 487.81,349.53 L 487.45,350.19 L 488.00,352.42 L 486.96,355.77 L 487.59,355.01 L 488.10,355.32 L 488.14,356.02 L 487.41,356.04 L 488.07,356.38 L 487.94,357.16 L 487.49,356.94 L 487.81,357.65 L 486.92,357.38 L 487.41,358.06 L 485.90,358.53 L 485.32,358.03 L 486.47,357.52 L 484.95,357.50 L 486.15,356.82 L 485.44,356.77 L 485.86,356.21 L 485.15,356.45 L 485.09,354.96 L 486.29,355.16 L 485.12,354.31 L 486.06,354.18 L 486.69,352.81 L 485.62,353.04 L 486.02,353.42 L 484.75,354.38 L 484.47,353.86 L 484.10,354.76 L 484.31,355.46 L 484.69,355.18 L 484.32,357.27 L 482.45,355.11 Z M 483.67,348.41 L 482.78,348.21 L 482.76,348.07 L 483.83,347.01 L 483.67,348.41 Z M 484.32,347.01 L 485.53,347.19 L 484.46,347.85 L 484.32,347.01 Z M 482.45,347.74 L 480.16,348.17 L 480.20,347.53 L 481.08,347.67 L 482.18,346.91 L 482.45,347.74 Z M 480.85,347.53 L 480.43,347.21 L 481.51,346.80 L 479.98,346.57 L 480.43,345.40 L 482.14,345.31 L 482.24,346.32 L 480.85,347.53 Z M 487.58,345.15 L 488.93,345.73 L 488.11,346.11 L 487.58,345.15 Z M 489.74,345.43 L 489.27,344.90 L 490.53,345.29 L 489.74,345.43 Z M 488.57,344.84 L 488.34,344.38 L 488.86,344.11 L 489.45,345.45 L 487.68,344.68 L 488.57,344.84 Z M 487.55,347.25 L 486.95,347.47 L 484.41,346.74 L 484.17,345.93 L 485.39,345.00 L 485.81,345.78 L 486.23,345.52 L 485.60,344.62 L 486.10,342.85 L 487.09,344.89 L 486.51,345.23 L 487.00,346.41 L 487.65,346.57 L 487.55,347.25 Z M 487.50,343.41 L 486.97,343.74 L 487.27,342.82 L 488.48,343.89 L 487.36,344.45 L 487.50,343.41 Z M 483.60,343.95 L 482.71,342.39 L 485.66,343.25 L 485.42,344.75 L 484.18,345.44 L 483.34,344.26 L 483.60,343.95 Z M 482.92,347.58 L 482.54,346.96 L 482.31,344.67 L 480.77,345.06 L 482.13,344.28 L 480.84,344.45 L 481.56,343.45 L 480.86,343.67 L 480.79,342.28 L 482.18,341.97 L 483.84,345.96 L 482.92,347.58 Z M 483.29,340.96 L 485.77,340.30 L 485.46,341.89 L 486.16,342.69 L 484.04,341.72 L 482.62,342.05 L 483.29,340.96 Z M 487.63,341.16 L 488.53,340.45 L 489.28,340.83 L 489.02,340.26 L 492.15,340.91 L 491.41,341.53 L 487.63,341.16 Z M 482.15,340.06 L 482.06,339.68 L 483.79,339.23 L 484.00,339.79 L 483.58,340.05 L 484.23,340.23 L 482.90,340.65 L 483.20,340.46 L 482.15,340.06 Z M 484.66,340.00 L 484.03,339.30 L 484.38,339.08 L 485.13,339.49 L 484.66,340.00 Z M 488.58,334.06 L 488.85,334.33 L 487.94,335.06 L 487.85,334.30 L 488.58,334.06 Z M 491.07,334.08 L 489.96,335.09 L 489.43,334.69 L 489.75,333.83 L 491.07,334.08 Z M 492.97,326.42 L 492.37,327.18 L 491.30,326.11 L 491.58,325.65 L 492.97,326.42 Z M 492.97,325.70 L 492.08,325.55 L 492.39,324.73 L 492.97,325.70 Z M 485.82,325.65 L 484.91,326.41 L 483.90,326.32 L 483.84,325.78 L 485.10,325.69 L 485.30,325.55 L 483.87,325.44 L 484.19,325.27 L 483.68,324.53 L 485.15,324.98 L 484.58,324.44 L 486.00,323.99 L 485.82,325.65 Z M 492.90,324.65 L 492.28,324.55 L 491.34,325.33 L 491.48,324.54 L 492.59,323.88 L 492.90,324.65 Z M 491.07,323.77 L 490.81,324.86 L 490.29,323.64 L 491.38,323.49 L 491.07,323.77 Z M 486.00,323.11 L 485.17,322.50 L 485.43,322.32 L 486.00,323.11 Z M 487.10,323.40 L 486.44,323.47 L 486.47,322.47 L 487.29,322.10 L 487.10,323.40 Z M 490.16,322.30 L 490.58,321.85 L 491.49,322.23 L 491.42,323.10 L 490.44,323.04 L 490.16,322.30 Z M 488.16,321.12 L 489.12,321.45 L 489.33,322.92 L 488.04,323.74 L 487.63,323.38 L 488.16,321.12 Z M 493.62,321.59 L 492.99,323.55 L 492.09,322.65 L 493.08,320.98 L 493.62,321.59 Z M 492.10,321.29 L 491.75,321.99 L 490.71,321.63 L 489.98,322.10 L 490.49,320.87 L 492.10,321.29 Z M 487.52,321.04 L 488.00,320.91 L 487.64,322.21 L 487.52,321.04 Z M 491.42,320.92 L 490.76,320.62 L 491.29,320.40 L 492.05,320.64 L 491.42,320.92 Z M 488.88,320.59 L 488.44,320.68 L 487.48,319.82 L 488.88,320.59 Z M 492.30,320.14 L 490.83,320.30 L 489.82,319.48 L 490.45,319.08 L 491.00,319.63 L 492.05,319.59 L 492.30,320.14 Z M 488.79,319.88 L 488.17,319.31 L 488.38,318.69 L 489.12,319.11 L 488.79,319.88 Z M 492.42,319.74 L 491.93,319.37 L 490.98,319.42 L 489.28,318.31 L 489.77,317.63 L 491.78,317.38 L 492.77,318.35 L 492.42,319.74 Z M 489.84,316.32 L 491.47,317.02 L 488.58,317.52 L 489.84,316.32 Z M 490.44,316.24 L 489.68,315.85 L 490.94,315.57 L 491.16,315.88 L 490.44,316.24 Z M 491.86,315.54 L 492.46,316.85 L 491.67,316.84 L 491.36,315.71 L 491.86,315.54 Z M 484.18,316.64 L 483.39,316.78 L 483.09,315.85 L 483.79,315.76 L 484.18,316.64 Z M 493.34,316.04 L 492.54,315.82 L 492.59,315.43 L 493.49,315.35 L 493.34,316.04 Z M 488.34,316.26 L 487.47,315.33 L 488.12,315.13 L 488.68,315.85 L 488.34,316.26 Z M 487.85,314.96 L 486.54,314.74 L 486.85,314.35 L 487.85,314.96 Z M 491.72,314.93 L 489.22,315.83 L 488.21,314.87 L 489.16,314.19 L 491.38,314.40 L 491.72,314.93 Z M 486.03,314.70 L 485.66,314.77 L 485.53,314.01 L 486.03,314.70 Z M 493.57,315.04 L 492.52,315.32 L 492.07,314.00 L 492.99,313.72 L 493.57,315.04 Z M 490.04,313.74 L 488.50,313.69 L 488.99,313.35 L 490.04,313.74 Z M 489.97,313.01 L 489.82,312.79 L 491.09,313.12 L 491.25,313.71 L 490.04,313.51 L 490.67,313.34 L 489.97,313.01 Z M 487.49,313.57 L 487.38,312.98 L 489.21,312.65 L 489.45,313.09 L 488.17,313.40 L 487.49,313.57 Z M 491.77,313.08 L 491.49,312.51 L 491.64,312.29 L 492.28,312.73 L 491.77,313.08 Z M 495.86,314.49 L 495.60,313.69 L 496.57,313.72 L 495.85,313.45 L 495.82,312.84 L 497.19,313.23 L 496.84,312.56 L 497.42,312.23 L 497.91,312.84 L 497.55,313.45 L 498.26,312.84 L 499.25,313.58 L 498.65,314.46 L 497.55,314.18 L 498.49,315.06 L 495.75,316.93 L 494.77,315.98 L 496.08,315.80 L 494.86,315.70 L 494.38,314.51 L 494.93,314.07 L 495.86,314.49 Z M 492.28,312.40 L 493.16,312.14 L 492.68,312.45 L 493.00,312.82 L 492.28,312.40 Z M 491.38,312.17 L 491.30,312.95 L 490.17,311.95 L 491.38,312.17 Z M 495.81,311.78 L 496.27,312.28 L 496.28,312.34 L 495.72,312.45 L 495.81,311.78 Z M 491.35,311.96 L 491.07,311.64 L 492.17,311.45 L 491.35,311.96 Z M 488.93,311.39 L 489.02,311.71 L 488.23,311.60 L 488.93,311.39 Z M 493.02,311.25 L 493.08,311.44 L 492.72,311.75 L 493.02,311.25 Z M 490.49,310.50 L 491.60,311.23 L 490.85,311.38 L 490.79,311.95 L 490.20,311.14 L 490.49,310.50 Z M 488.71,310.83 L 488.39,310.59 L 488.57,310.47 L 489.10,310.50 L 488.71,310.83 Z M 491.91,310.83 L 490.80,310.45 L 491.22,310.14 L 491.91,310.83 Z M 489.10,309.38 L 489.55,309.44 L 488.96,309.55 L 489.10,309.38 Z M 493.26,309.33 L 493.30,310.29 L 492.68,309.67 L 492.57,308.91 L 493.26,309.33 Z M 495.58,308.76 L 496.39,308.32 L 496.44,309.42 L 495.58,308.76 Z M 491.79,307.36 L 492.46,308.38 L 491.37,307.99 L 491.07,308.21 L 491.52,308.55 L 490.94,308.77 L 489.83,308.27 L 491.79,307.36 Z M 486.09,305.46 L 487.27,306.26 L 485.96,306.66 L 485.57,306.32 L 486.09,305.46 Z M 493.82,300.49 L 495.05,301.08 L 494.49,301.10 L 493.44,300.63 L 493.82,300.49 Z M 493.41,298.21 L 492.50,297.89 L 493.38,297.64 L 493.41,298.21 Z M 493.43,296.69 L 493.21,296.06 L 493.89,296.10 L 494.74,297.29 L 493.43,296.69 Z M 496.51,295.57 L 496.16,295.04 L 496.48,295.28 L 496.86,295.03 L 496.51,295.57 Z M 499.92,293.86 L 500.30,293.44 L 500.63,293.61 L 500.41,294.16 L 499.92,293.86 Z M 488.25,303.09 L 489.41,301.34 L 490.05,298.65 L 489.67,296.53 L 489.87,294.98 L 490.56,294.08 L 490.85,292.10 L 490.49,291.44 L 491.45,291.25 L 491.58,291.74 L 490.87,291.76 L 492.41,292.22 L 492.92,291.46 L 493.74,291.43 L 494.15,291.77 L 493.66,292.57 L 494.45,293.38 L 494.15,293.96 L 494.96,295.28 L 493.08,295.90 L 492.94,296.70 L 493.44,297.18 L 492.51,297.36 L 492.46,296.74 L 492.05,297.20 L 492.15,297.97 L 494.22,299.68 L 494.11,300.16 L 492.81,300.07 L 494.15,302.19 L 492.37,302.11 L 493.07,304.11 L 491.90,304.60 L 488.25,303.09 Z M 496.87,290.96 L 496.99,290.88 L 497.41,291.75 L 496.86,291.74 L 496.87,290.96 Z M 497.61,394.26 L 497.73,394.36 L 496.79,394.59 L 497.61,394.26 Z M 514.95,391.07 L 515.05,391.67 L 513.64,391.38 L 514.95,391.07 Z M 512.96,381.23 L 511.84,381.70 L 511.98,381.59 L 512.96,381.23 Z M 488.34,378.60 L 488.63,379.44 L 487.76,379.01 L 488.34,378.60 Z M 487.96,377.58 L 487.76,377.96 L 487.41,377.37 L 487.80,376.89 L 487.96,377.58 Z M 492.74,373.14 L 492.78,374.34 L 491.04,373.06 L 492.74,373.14 Z M 488.97,369.45 L 488.91,369.63 L 488.32,369.60 L 488.57,368.98 L 488.97,369.45 Z M 485.11,360.50 L 484.54,361.62 L 483.27,361.86 L 485.11,360.50 Z M 487.85,354.04 L 488.12,353.43 L 489.03,354.43 L 488.13,354.97 L 487.85,354.04 Z M 487.48,340.31 L 487.49,340.76 L 486.71,341.20 L 486.67,340.18 L 487.48,340.31 Z M 483.25,331.07 L 483.52,331.89 L 482.15,331.27 L 483.25,331.07 Z M 489.40,304.51 L 489.23,304.63 L 489.05,304.55 L 489.25,304.00 L 489.40,304.51 Z M 493.15,302.75 L 493.12,303.14 L 492.74,302.91 L 493.15,302.75 Z M 497.88,298.90 L 497.96,299.41 L 497.71,299.59 L 497.37,298.67 L 497.88,298.90 Z M 495.86,298.15 L 495.87,298.31 L 495.10,298.13 L 495.86,298.15 Z M 491.48,263.81 L 491.21,263.03 L 491.36,263.11 L 491.48,263.81 Z M 494.02,252.14 L 494.52,252.82 L 494.05,252.99 L 494.02,252.14 Z" fill="#4A90D9" stroke="#1a5fa8" stroke-width="1.2"/>
<path d="M 521.02,82.99 L 520.23,83.12 L 520.68,81.59 L 519.05,81.24 L 518.15,79.75 L 517.80,80.36 L 518.27,80.82 L 516.81,80.20 L 517.35,77.97 L 518.58,79.24 L 517.32,76.70 L 518.25,76.15 L 517.74,75.81 L 518.83,75.77 L 518.81,75.31 L 520.65,77.40 L 521.10,77.23 L 521.75,78.80 L 522.49,78.85 L 523.40,79.98 L 523.38,80.86 L 525.02,81.30 L 524.10,82.03 L 524.50,83.21 L 526.28,83.55 L 526.24,84.15 L 523.80,85.10 L 524.39,85.32 L 524.41,86.38 L 522.89,85.52 L 523.31,84.27 L 522.98,83.65 L 524.54,83.51 L 523.41,82.40 L 522.61,81.99 L 522.78,83.40 L 521.59,83.65 L 521.02,82.99 Z" fill="#A8C8E8" stroke="none"/>
<path d="M 508.64,330.39 L 504.88,329.41 L 502.37,330.01 L 498.99,332.38 L 498.47,333.70 L 497.82,333.91 L 498.58,331.86 L 499.85,330.87 L 499.02,329.60 L 499.47,329.17 L 499.78,330.52 L 500.91,330.63 L 505.36,328.66 L 504.12,327.84 L 505.59,328.39 L 506.58,327.89 L 506.18,328.45 L 509.31,329.60 L 508.64,330.39 Z" fill="#A8C8E8" stroke="none"/>
<path d="M 497.34,286.71 L 497.75,286.21 L 497.13,285.91 L 498.43,284.47 L 499.47,284.91 L 500.27,286.56 L 499.22,286.49 L 498.07,287.48 L 497.34,286.71 Z" fill="#A8C8E8" stroke="none"/>
<path d="M 503.96,360.11 L 502.13,360.68 L 499.19,360.17 L 497.26,360.87 L 497.59,362.00 L 499.21,361.62 L 497.54,363.55 L 497.91,362.24 L 496.95,361.90 L 496.50,360.67 L 495.45,360.95 L 495.81,360.22 L 497.39,360.61 L 498.44,360.07 L 496.92,359.87 L 496.27,359.05 L 495.96,359.58 L 495.27,359.84 L 495.89,358.81 L 495.40,358.89 L 495.54,358.08 L 496.28,358.61 L 495.94,357.88 L 496.46,357.83 L 497.46,359.70 L 503.27,359.00 L 503.96,360.11 Z" fill="#A8C8E8" stroke="none"/>
<path d="M 497.51,363.35 L 497.51,363.39 L 497.51,363.41 L 497.51,363.35 Z" fill="#A8C8E8" stroke="none"/>
<path d="M 501.85,278.87 L 502.17,279.29 L 500.54,279.18 L 500.26,278.51 L 501.75,277.56 L 502.21,278.74 L 501.85,278.87 Z" fill="#A8C8E8" stroke="none"/>
<path d="M 499.05,354.99 L 497.12,355.55 L 498.05,355.10 L 497.24,354.00 L 498.05,353.19 L 499.47,354.23 L 502.63,354.98 L 503.36,355.85 L 502.77,356.36 L 499.05,354.99 Z" fill="#A8C8E8" stroke="none"/>
<path d="M 499.93,282.12 L 501.67,281.95 L 501.44,282.28 L 499.93,282.12 Z" fill="#A8C8E8" stroke="none"/>
<path d="M 526.15,322.86 L 524.51,322.73 L 523.57,321.11 L 523.67,319.68 L 524.30,319.65 L 524.15,320.65 L 524.65,321.17 L 524.92,320.41 L 525.52,320.47 L 526.15,322.86 Z" fill="#A8C8E8" stroke="none"/>
<path d="M 503.50,270.95 L 502.48,270.78 L 502.68,270.17 L 503.89,270.40 L 503.50,270.95 Z" fill="#A8C8E8" stroke="none"/>
<path d="M 498.79,348.20 L 500.06,348.32 L 499.92,346.01 L 499.41,345.65 L 499.87,345.43 L 501.12,348.91 L 500.50,348.32 L 499.95,348.81 L 502.04,349.40 L 500.95,350.64 L 502.37,351.17 L 500.67,351.04 L 500.82,349.63 L 500.17,350.61 L 500.09,349.18 L 498.58,348.45 L 496.97,349.81 L 497.37,348.94 L 496.97,348.58 L 497.54,348.11 L 496.43,347.46 L 496.39,347.23 L 498.22,347.91 L 498.58,346.80 L 498.26,345.52 L 497.61,345.31 L 497.46,345.01 L 498.69,345.59 L 498.79,348.20 Z M 498.13,348.22 L 497.76,348.24 L 497.89,348.40 L 498.13,348.22 Z" fill="#A8C8E8" stroke="none"/>
<path d="M 506.53,285.25 L 506.67,285.46 L 506.00,286.01 L 505.86,285.97 L 506.37,285.37 L 505.24,284.99 L 506.75,284.60 L 505.28,282.74 L 507.90,284.26 L 507.09,284.52 L 507.78,285.25 L 509.35,285.39 L 508.50,285.88 L 506.53,285.25 Z" fill="#A8C8E8" stroke="none"/>
<path d="M 596.63,94.70 L 596.05,93.60 L 597.04,93.24 L 596.63,94.70 Z" fill="#A8C8E8" stroke="none"/>
<path d="M 504.12,316.02 L 504.81,316.36 L 505.73,316.12 L 506.07,316.15 L 506.26,316.35 L 504.50,316.45 L 504.12,316.02 Z" fill="#A8C8E8" stroke="none"/>
<path d="M 507.30,317.10 L 506.36,316.35 L 508.10,317.13 L 507.30,317.10 Z" fill="#A8C8E8" stroke="none"/>
<path d="M 573.84,94.15 L 573.52,93.29 L 573.34,94.01 L 572.50,93.65 L 573.73,93.02 L 573.84,94.15 Z" fill="#A8C8E8" stroke="none"/>
<path d="M 600.61,183.42 L 600.20,183.19 L 600.72,181.96 L 601.94,182.07 L 600.61,183.42 Z" fill="#A8C8E8" stroke="none"/>
<path d="M 601.98,181.62 L 601.63,181.47 L 601.56,180.75 L 602.56,180.37 L 601.98,181.62 Z" fill="#A8C8E8" stroke="none"/>
<path d="M 543.57,58.08 L 543.05,58.07 L 542.93,56.76 L 543.78,56.64 L 543.57,58.08 Z" fill="#A8C8E8" stroke="none"/>
<path d="M 546.28,57.45 L 545.72,56.92 L 545.61,55.13 L 546.18,55.36 L 546.28,57.45 Z" fill="#A8C8E8" stroke="none"/>
<path d="M 522.59,321.94 L 521.73,322.22 L 522.07,320.22 L 521.40,319.64 L 522.76,319.61 L 522.59,321.94 Z" fill="#A8C8E8" stroke="none"/>
<path d="M 509.98,349.03 L 509.41,350.00 L 507.98,349.54 L 508.24,348.54 L 509.49,348.31 L 509.98,349.03 Z" fill="#A8C8E8" stroke="none"/>
<path d="M 502.65,283.85 L 500.69,283.83 L 499.44,283.06 L 502.65,283.85 Z" fill="#A8C8E8" stroke="none"/>
<path d="M 526.65,265.70 L 525.35,264.92 L 524.62,265.57 L 523.88,265.10 L 524.57,264.21 L 526.65,265.70 Z" fill="#A8C8E8" stroke="none"/>
<path d="M 615.01,157.86 L 614.20,157.70 L 614.36,157.21 L 613.65,157.69 L 613.02,156.69 L 612.43,157.35 L 611.39,157.41 L 610.80,156.68 L 610.90,156.20 L 611.38,157.19 L 612.04,157.24 L 612.61,156.61 L 612.27,156.80 L 611.88,156.54 L 613.11,156.39 L 611.54,154.79 L 614.83,157.50 L 615.01,157.86 Z" fill="#A8C8E8" stroke="none"/>
<path d="M 620.39,152.41 L 619.21,153.09 L 620.12,154.12 L 618.92,153.53 L 618.75,154.76 L 619.63,155.29 L 618.98,155.42 L 619.34,155.91 L 618.84,156.25 L 620.25,156.59 L 618.94,156.90 L 619.30,157.29 L 618.43,157.04 L 619.07,158.00 L 617.13,158.17 L 617.38,157.30 L 616.96,156.91 L 617.65,156.96 L 618.19,155.94 L 616.19,155.42 L 616.81,154.84 L 618.01,155.28 L 618.18,154.21 L 615.81,153.83 L 618.32,153.77 L 618.43,152.86 L 617.24,152.37 L 618.82,152.18 L 618.89,151.39 L 618.24,151.09 L 618.89,150.95 L 618.49,149.87 L 619.12,150.12 L 619.43,149.39 L 618.81,148.45 L 619.55,147.09 L 619.87,152.17 L 620.39,152.41 Z" fill="#A8C8E8" stroke="none"/>
<path d="M 611.76,215.86 L 610.75,215.84 L 610.80,216.28 L 610.19,216.24 L 609.90,215.95 L 610.17,217.34 L 609.50,216.89 L 609.86,217.90 L 609.01,216.85 L 609.06,218.01 L 607.24,217.84 L 607.18,218.63 L 608.39,219.35 L 607.05,218.95 L 607.00,219.69 L 606.31,218.51 L 605.65,218.81 L 605.19,218.45 L 602.98,219.13 L 602.95,217.90 L 603.47,218.57 L 603.59,217.83 L 603.74,218.40 L 604.43,216.95 L 604.09,218.50 L 604.66,218.23 L 605.57,218.61 L 606.17,216.50 L 605.87,217.76 L 606.40,218.18 L 607.41,216.65 L 607.81,217.09 L 608.19,216.31 L 608.36,216.78 L 608.61,216.00 L 609.46,216.67 L 609.42,215.55 L 610.17,216.06 L 610.15,215.17 L 611.12,215.73 L 611.77,215.24 L 611.76,215.86 Z" fill="#A8C8E8" stroke="none"/>
<path d="M 522.89,273.46 L 521.29,273.99 L 522.39,272.96 L 521.79,272.51 L 522.28,272.12 L 523.20,272.36 L 523.93,271.82 L 522.99,271.82 L 524.68,270.88 L 525.10,270.80 L 524.85,271.38 L 525.57,271.18 L 525.22,272.26 L 524.54,272.05 L 522.89,273.46 Z" fill="#A8C8E8" stroke="none"/>
<path d="M 624.39,224.59 L 623.82,220.18 L 624.48,219.91 L 624.48,224.50 L 624.39,224.59 Z" fill="#A8C8E8" stroke="none"/>
<path d="M 567.55,202.20 L 565.12,202.28 L 564.37,203.07 L 562.50,201.06 L 564.60,200.23 L 564.86,199.54 L 566.62,199.75 L 567.74,200.63 L 567.55,202.20 Z" fill="#A8C8E8" stroke="none"/>
<path d="M 537.30,106.65 L 536.57,107.47 L 536.03,104.99 L 535.20,104.25 L 535.66,103.51 L 534.91,102.94 L 536.17,100.72 L 536.07,99.65 L 535.09,98.82 L 535.77,98.00 L 536.32,98.23 L 535.97,99.29 L 536.39,99.85 L 535.85,103.05 L 537.28,105.52 L 537.30,106.65 Z" fill="#A8C8E8" stroke="none"/>
</svg>