<svg xmlns="http://www.w3.org/2000/svg" width="800" height="500" viewBox="0 0 800 500">
<rect width="800" height="500" fill="#A8C8E8"/>
<path d="M 755.77,195.24 L 756.16,193.89 L 758.24,193.49 L 761.65,191.12 L 764.00,188.56 L 766.20,187.82 L 767.85,185.47 L 772.31,182.90 L 772.27,182.19 L 774.73,182.37 L 775.08,181.78 L 773.82,181.01 L 777.67,179.76 L 779.14,178.43 L 782.45,177.90 L 781.85,177.32 L 783.80,176.98 L 785.06,175.27 L 791.08,174.47 L 792.36,172.96 L 793.35,173.30 L 794.83,172.24 L 796.39,172.26 L 797.76,170.21 L 797.04,168.66 L 798.35,164.96 L 796.35,162.54 L 795.46,159.83 L 793.27,159.57 L 793.06,158.74 L 791.92,159.04 L 792.20,159.44 L 789.82,159.44 L 789.22,160.32 L 787.44,159.39 L 787.47,157.95 L 789.46,155.93 L 789.04,155.02 L 791.37,149.49 L 790.53,147.79 L 791.56,146.99 L 786.99,144.99 L 780.87,146.71 L 777.90,146.21 L 775.38,138.45 L 775.55,135.50 L 772.79,132.66 L 768.68,132.55 L 766.43,130.92 L 765.23,131.05 L 763.63,132.45 L 762.86,132.06 L 761.22,132.69 L 748.09,130.91 L 750.05,121.79 L 748.92,121.40 L 749.56,120.80 L 748.62,120.49 L 749.55,119.98 L 748.15,119.67 L 748.05,117.56 L 746.08,115.38 L 749.56,113.87 L 746.48,111.84 L 750.38,106.38 L 751.23,106.26 L 750.46,105.17 L 752.96,99.85 L 754.14,99.54 L 751.07,96.51 L 750.25,93.97 L 747.81,93.67 L 743.29,91.56 L 742.35,87.06 L 743.95,85.34 L 743.98,83.85 L 722.82,83.65 L 721.82,77.25 L 717.92,74.16 L 721.55,74.04 L 721.30,70.35 L 719.29,67.49 L 720.19,65.09 L 719.19,63.58 L 712.52,60.87 L 703.35,61.48 L 700.17,59.11 L 700.11,58.31 L 696.52,58.12 L 693.46,56.80 L 692.27,57.09 L 689.96,55.82 L 688.95,54.26 L 686.13,54.66 L 684.18,53.49 L 680.51,52.65 L 679.12,53.38 L 674.86,53.00 L 672.51,51.99 L 672.51,50.90 L 670.18,49.80 L 669.61,50.13 L 668.99,49.22 L 666.61,48.92 L 665.82,46.94 L 665.26,46.43 L 664.82,47.11 L 664.30,46.85 L 664.63,45.82 L 662.87,44.69 L 662.08,43.07 L 663.10,40.57 L 661.88,39.18 L 661.35,36.49 L 663.27,34.36 L 663.10,31.39 L 661.96,30.13 L 659.79,31.36 L 657.42,30.51 L 647.49,31.93 L 642.59,34.77 L 639.58,35.27 L 636.54,36.76 L 634.95,38.42 L 631.21,38.11 L 628.31,40.64 L 624.56,41.73 L 622.70,41.96 L 622.37,40.77 L 615.49,40.29 L 608.98,40.16 L 605.11,41.34 L 602.27,40.31 L 601.02,40.90 L 601.05,31.47 L 602.18,30.31 L 601.22,29.15 L 602.37,28.05 L 593.37,32.63 L 582.96,32.73 L 583.34,31.68 L 581.60,28.88 L 575.78,27.89 L 571.11,27.87 L 573.94,25.64 L 573.89,24.43 L 569.54,21.28 L 569.47,20.31 L 567.33,19.33 L 565.85,16.52 L 564.49,15.92 L 565.33,14.69 L 561.77,12.70 L 562.64,11.92 L 562.19,11.17 L 565.32,10.75 L 564.17,9.11 L 564.79,7.36 L 571.89,4.01 L 570.88,0.77 L 571.55,0.00 L 800.00,0.00 L 800.00,215.52 L 799.51,215.32 L 797.23,212.11 L 791.23,210.22 L 787.39,207.27 L 779.95,205.52 L 775.91,202.29 L 772.86,204.13 L 771.04,204.19 L 771.04,201.88 L 761.51,196.22 L 758.65,196.25 L 756.70,197.78 L 753.32,197.62 L 752.55,196.94 L 755.77,195.24 Z M 799.76,225.08 L 799.80,221.19 L 800.00,221.04 L 800.00,225.17 L 799.76,225.08 Z" fill="#E8E0D0" stroke="#B8B0A0" stroke-width="0.5"/>
<path d="M 753.32,197.62 L 756.70,197.78 L 758.65,196.25 L 761.51,196.22 L 771.04,201.88 L 771.04,204.19 L 772.86,204.13 L 775.91,202.29 L 779.95,205.52 L 787.39,207.27 L 791.23,210.22 L 797.23,212.11 L 799.51,215.32 L 800.00,215.52 L 800.00,221.84 L 799.76,225.08 L 800.00,225.17 L 800.00,228.11 L 799.77,228.44 L 797.25,230.11 L 797.15,231.11 L 792.72,233.36 L 791.40,233.51 L 791.64,232.73 L 790.60,232.50 L 790.85,233.69 L 783.50,235.82 L 774.73,234.15 L 769.36,235.59 L 766.49,234.89 L 766.80,234.30 L 761.02,233.38 L 757.78,231.60 L 749.61,231.76 L 747.03,229.49 L 745.50,229.13 L 743.25,227.30 L 742.82,225.48 L 743.85,220.79 L 746.33,220.57 L 747.37,219.08 L 745.64,215.48 L 746.81,213.95 L 745.76,212.91 L 745.57,210.79 L 747.36,210.01 L 748.17,208.40 L 747.06,207.39 L 749.03,205.49 L 749.05,202.95 L 750.30,202.45 L 749.36,199.58 L 751.97,198.07 L 752.55,196.94 L 753.32,197.62 Z" fill="#E8E0D0" stroke="#B8B0A0" stroke-width="0.5"/>
<path d="M 698.24,122.71 L 698.32,118.53 L 702.09,114.88 L 704.31,111.15 L 724.61,108.32 L 735.50,108.27 L 746.02,112.68 L 746.04,116.01 L 748.05,117.56 L 748.15,119.67 L 749.58,120.05 L 748.62,120.49 L 749.56,120.80 L 748.92,121.40 L 750.05,121.79 L 748.09,130.91 L 761.22,132.69 L 762.86,132.06 L 763.63,132.45 L 765.23,131.05 L 766.43,130.92 L 768.68,132.55 L 772.79,132.66 L 775.55,135.50 L 775.38,138.45 L 777.90,146.21 L 780.87,146.71 L 786.99,144.99 L 791.56,146.99 L 790.53,147.79 L 791.37,149.49 L 789.04,155.02 L 789.46,155.93 L 787.33,158.23 L 787.00,164.45 L 785.20,168.10 L 783.72,168.33 L 781.19,170.61 L 777.98,170.82 L 775.84,172.35 L 775.92,173.65 L 774.02,174.59 L 772.42,173.71 L 769.72,173.42 L 766.53,175.76 L 764.82,174.69 L 762.21,175.11 L 760.66,174.39 L 757.46,174.95 L 747.67,173.10 L 740.91,173.56 L 740.34,172.25 L 742.40,170.48 L 744.26,169.96 L 743.98,169.43 L 745.85,168.14 L 746.17,164.32 L 749.41,162.93 L 750.55,160.42 L 752.86,159.30 L 753.06,158.32 L 750.79,156.18 L 745.33,154.23 L 744.02,154.65 L 742.43,153.50 L 738.53,152.90 L 724.30,146.63 L 720.77,146.71 L 712.99,144.99 L 711.79,143.38 L 707.24,141.76 L 701.95,138.72 L 698.11,134.24 L 693.89,132.21 L 698.24,122.71 Z" fill="#E8E0D0" stroke="#B8B0A0" stroke-width="0.5"/>
<path d="M 752.18,196.88 L 752.55,196.94 L 752.08,196.96 L 752.18,196.88 Z" fill="#E8E0D0" stroke="#B8B0A0" stroke-width="0.5"/>
<path d="M 566.78,354.36 L 568.14,352.55 L 572.47,352.18 L 572.92,354.48 L 571.32,355.52 L 568.21,356.15 L 566.78,354.36 Z" fill="#E8E0D0" stroke="#B8B0A0" stroke-width="0.5"/>
<path d="M 637.72,499.08 L 636.89,498.55 L 638.18,497.94 L 636.28,497.85 L 637.80,496.84 L 639.82,497.21 L 640.82,496.19 L 641.96,496.54 L 642.13,495.82 L 643.91,495.91 L 644.65,497.77 L 643.56,498.65 L 645.83,498.94 L 646.72,497.95 L 649.58,499.14 L 648.84,497.33 L 649.80,497.10 L 647.82,496.71 L 650.07,495.44 L 648.55,494.86 L 648.59,493.56 L 651.97,493.01 L 657.28,494.09 L 658.57,493.83 L 659.07,493.58 L 657.67,493.16 L 658.59,493.04 L 658.88,491.80 L 660.18,491.52 L 656.44,490.70 L 659.14,490.02 L 658.38,489.49 L 659.66,489.07 L 665.52,489.49 L 662.87,488.58 L 663.56,487.92 L 667.90,487.69 L 671.41,488.54 L 672.53,487.86 L 670.14,486.97 L 670.40,486.26 L 673.60,486.72 L 674.31,485.96 L 672.64,485.27 L 677.68,485.77 L 675.57,484.63 L 677.25,484.32 L 680.58,485.06 L 680.19,484.59 L 681.89,484.39 L 677.16,483.50 L 678.38,483.14 L 676.93,482.31 L 677.56,482.27 L 677.28,481.48 L 679.67,480.51 L 686.79,480.79 L 688.85,481.48 L 689.92,481.15 L 689.76,480.42 L 687.11,479.85 L 691.36,479.49 L 692.22,478.61 L 694.66,479.41 L 696.71,479.13 L 693.61,478.32 L 695.67,477.95 L 694.77,477.34 L 695.69,476.87 L 697.83,477.34 L 697.16,478.09 L 699.80,478.38 L 698.89,478.00 L 701.78,477.61 L 702.42,476.67 L 703.83,476.74 L 703.70,476.01 L 706.34,477.38 L 707.36,477.00 L 706.03,476.33 L 708.04,476.44 L 707.90,475.78 L 706.29,475.60 L 707.76,474.99 L 709.63,475.51 L 712.01,475.14 L 711.95,474.46 L 713.74,474.29 L 713.50,473.27 L 714.92,473.33 L 713.23,472.52 L 715.71,472.69 L 716.21,472.09 L 721.13,471.31 L 725.04,471.66 L 726.92,470.14 L 727.36,470.86 L 731.32,471.26 L 732.21,469.63 L 737.05,469.31 L 737.49,468.26 L 746.01,467.63 L 745.95,466.92 L 747.55,467.22 L 749.52,466.36 L 755.27,465.63 L 759.21,466.15 L 759.00,467.24 L 760.20,467.10 L 759.65,467.61 L 762.16,468.77 L 758.10,469.19 L 757.51,468.72 L 758.43,468.41 L 758.08,467.96 L 754.37,467.48 L 754.66,468.43 L 751.23,468.37 L 750.65,468.64 L 752.53,468.76 L 746.79,469.26 L 739.74,471.95 L 738.40,473.78 L 735.05,473.85 L 739.16,474.38 L 736.90,474.90 L 738.87,475.51 L 738.45,476.41 L 736.41,476.18 L 736.15,475.50 L 732.46,475.58 L 730.92,474.52 L 728.61,475.18 L 728.76,476.23 L 729.91,476.43 L 729.44,476.78 L 727.37,476.61 L 727.36,475.45 L 724.60,475.24 L 724.58,475.80 L 721.64,476.60 L 719.78,476.27 L 720.49,477.23 L 716.95,477.76 L 712.46,480.22 L 708.64,480.57 L 704.60,479.88 L 704.47,480.85 L 706.61,481.42 L 705.77,482.10 L 701.90,481.69 L 699.14,482.61 L 701.07,483.16 L 700.34,483.41 L 700.66,484.02 L 704.92,484.57 L 700.52,484.98 L 700.40,485.92 L 697.24,486.76 L 697.12,487.58 L 701.18,489.18 L 706.14,489.62 L 705.55,488.54 L 709.47,488.97 L 708.94,487.72 L 709.86,487.56 L 712.70,488.56 L 712.99,487.56 L 718.33,487.93 L 716.55,488.61 L 716.45,489.33 L 714.92,488.64 L 712.79,488.94 L 714.51,489.79 L 713.13,491.05 L 711.37,490.97 L 710.89,489.74 L 707.62,489.20 L 707.33,490.38 L 704.00,490.00 L 705.29,491.46 L 704.34,492.15 L 701.65,490.46 L 701.79,489.88 L 693.68,490.12 L 692.60,490.84 L 695.47,492.16 L 693.42,492.42 L 693.27,492.99 L 696.12,493.50 L 693.96,494.16 L 687.37,490.29 L 680.39,489.80 L 681.55,490.31 L 679.66,490.49 L 683.16,491.45 L 679.33,491.37 L 680.98,491.81 L 679.22,492.36 L 680.56,493.06 L 677.96,492.80 L 676.63,493.50 L 681.09,494.68 L 681.04,495.57 L 677.69,495.88 L 674.61,495.07 L 673.92,495.68 L 672.21,495.63 L 672.08,494.42 L 671.02,494.51 L 669.21,495.15 L 669.94,496.30 L 667.00,495.56 L 667.95,496.10 L 666.97,496.68 L 670.18,497.61 L 665.81,498.05 L 669.50,498.90 L 662.78,499.65 L 661.04,498.55 L 661.19,499.22 L 659.79,498.94 L 659.42,499.40 L 660.46,500.00 L 636.20,500.00 L 637.72,499.08 Z M 635.31,499.00 L 636.32,498.96 L 635.57,499.31 L 634.69,499.34 L 635.31,499.00 Z M 635.28,498.72 L 633.92,498.55 L 635.54,498.07 L 636.65,498.15 L 635.28,498.72 Z M 636.68,496.78 L 637.06,497.21 L 635.98,497.55 L 636.68,496.78 Z M 637.60,495.63 L 636.33,495.43 L 638.61,494.26 L 640.54,495.03 L 637.60,495.63 Z M 618.74,499.91 L 621.98,498.57 L 627.33,494.95 L 633.34,493.36 L 635.67,493.54 L 631.41,495.92 L 632.61,496.38 L 631.89,496.91 L 635.47,497.61 L 628.80,499.41 L 632.12,499.61 L 632.06,500.00 L 618.67,500.00 L 618.74,499.91 Z M 641.62,490.91 L 643.02,491.05 L 642.68,491.35 L 641.47,491.43 L 641.62,490.91 Z M 642.51,490.18 L 644.77,490.41 L 643.60,490.61 L 642.51,490.18 Z M 647.52,488.83 L 648.50,488.98 L 647.58,489.31 L 647.96,489.97 L 644.63,490.92 L 647.52,488.83 Z M 658.12,488.18 L 657.26,488.21 L 657.52,487.85 L 658.12,488.18 Z M 655.95,487.59 L 654.57,487.65 L 655.30,487.36 L 655.95,487.59 Z M 662.58,486.96 L 664.33,487.32 L 663.63,487.46 L 662.58,486.96 Z M 654.52,486.14 L 654.10,485.53 L 655.42,484.63 L 659.32,484.48 L 658.85,485.50 L 655.97,485.87 L 657.13,486.97 L 653.78,487.33 L 652.75,486.83 L 654.52,486.14 Z M 658.91,484.29 L 658.07,484.08 L 658.19,483.96 L 660.46,483.98 L 658.91,484.29 Z M 728.77,481.92 L 726.53,481.17 L 727.34,480.83 L 731.25,482.03 L 728.77,481.92 Z M 689.96,479.29 L 688.32,479.07 L 689.01,478.84 L 690.74,479.13 L 689.96,479.29 Z M 690.98,478.70 L 689.46,478.56 L 690.32,478.46 L 691.60,478.58 L 690.98,478.70 Z M 686.05,479.05 L 682.91,479.38 L 684.62,478.42 L 688.00,477.89 L 686.05,479.05 Z M 693.25,478.08 L 692.56,477.77 L 693.68,477.45 L 694.04,477.90 L 693.25,478.08 Z M 701.02,477.38 L 700.55,477.29 L 700.64,477.14 L 701.02,477.38 Z M 700.82,476.37 L 701.27,476.50 L 700.36,477.05 L 699.71,476.72 L 700.82,476.37 Z M 752.76,475.39 L 753.00,475.60 L 752.72,475.83 L 751.97,475.66 L 752.76,475.39 Z M 706.72,474.85 L 707.38,475.13 L 706.49,475.22 L 705.78,474.92 L 706.72,474.85 Z M 760.20,474.67 L 760.96,474.73 L 757.00,476.60 L 754.35,476.34 L 754.41,475.68 L 760.20,474.67 Z M 691.80,476.63 L 685.74,478.21 L 683.34,477.95 L 683.91,478.18 L 681.90,478.94 L 674.70,477.69 L 675.88,476.81 L 679.88,476.09 L 679.01,475.73 L 682.18,475.39 L 681.79,474.84 L 683.14,474.15 L 688.04,474.37 L 685.64,475.55 L 688.53,475.24 L 687.01,475.89 L 688.60,475.88 L 686.68,476.73 L 690.91,476.24 L 691.80,476.63 Z M 763.79,473.80 L 764.40,473.91 L 760.73,474.58 L 763.79,473.80 Z M 704.36,473.28 L 704.31,472.93 L 705.05,472.83 L 705.41,473.39 L 704.36,473.28 Z M 692.28,475.93 L 694.64,475.69 L 693.65,475.22 L 696.05,473.92 L 694.20,473.06 L 695.77,472.72 L 694.80,472.42 L 697.79,472.13 L 698.34,472.80 L 701.34,473.15 L 698.99,473.45 L 700.88,473.74 L 699.03,474.44 L 699.50,474.94 L 693.81,476.09 L 692.28,475.93 Z M 703.43,471.67 L 703.95,471.75 L 700.70,472.57 L 703.43,471.67 Z M 751.10,475.20 L 751.95,474.45 L 749.61,474.43 L 750.22,475.10 L 749.64,475.39 L 748.31,475.24 L 749.01,474.74 L 748.37,474.57 L 745.43,475.13 L 744.29,474.61 L 747.78,473.94 L 745.80,473.73 L 746.41,472.83 L 742.58,472.69 L 744.40,471.39 L 750.32,470.30 L 750.77,471.15 L 749.23,471.80 L 750.04,472.03 L 749.51,472.54 L 751.21,472.61 L 750.90,472.24 L 753.82,471.40 L 753.36,472.17 L 757.74,472.69 L 754.90,473.18 L 758.73,473.30 L 752.99,474.33 L 756.12,475.02 L 751.10,475.20 Z M 751.47,470.51 L 758.52,470.69 L 756.72,471.20 L 751.47,470.51 Z M 703.67,469.79 L 705.93,470.07 L 705.11,470.43 L 703.67,469.79 Z M 713.25,470.72 L 715.54,470.65 L 715.39,470.00 L 716.96,469.74 L 715.36,469.28 L 718.26,469.55 L 716.57,470.45 L 717.39,470.85 L 715.14,471.29 L 713.25,470.72 Z M 752.90,469.09 L 754.88,468.97 L 754.16,469.46 L 752.90,469.09 Z M 764.17,468.40 L 765.73,468.46 L 763.64,468.93 L 763.16,468.68 L 764.17,468.40 Z M 727.04,468.36 L 727.27,468.70 L 726.18,468.61 L 727.04,468.36 Z M 771.58,468.59 L 768.38,467.76 L 773.42,467.18 L 774.43,467.73 L 771.58,468.59 Z M 701.31,466.67 L 698.22,466.73 L 699.09,465.79 L 702.01,466.40 L 701.31,466.67 Z M 763.56,465.15 L 764.59,465.19 L 764.29,465.56 L 763.05,465.54 L 763.56,465.15 Z M 782.30,466.16 L 780.79,466.77 L 773.59,466.18 L 767.04,467.44 L 764.74,466.85 L 766.88,465.72 L 771.47,465.06 L 780.94,465.52 L 782.30,466.16 Z M 763.99,464.28 L 765.63,463.67 L 770.76,464.33 L 767.99,465.31 L 763.99,464.28 Z M 716.72,463.26 L 718.21,463.92 L 717.50,464.00 L 716.01,463.38 L 717.49,463.02 L 718.90,463.57 L 716.72,463.26 Z M 693.17,464.59 L 695.41,463.15 L 697.89,462.85 L 693.17,464.59 Z M 707.71,461.72 L 710.75,461.65 L 708.31,462.42 L 707.17,462.34 L 707.71,461.72 Z M 710.81,460.56 L 715.11,460.41 L 715.37,459.54 L 718.98,460.42 L 723.18,459.47 L 724.56,460.00 L 723.76,460.31 L 724.40,460.83 L 726.98,460.70 L 721.31,461.89 L 721.22,461.27 L 719.65,461.55 L 720.93,460.84 L 720.28,460.69 L 711.20,461.12 L 710.81,460.56 Z M 727.02,459.87 L 724.73,459.41 L 729.87,459.80 L 727.02,459.87 Z M 731.23,458.61 L 732.27,459.03 L 730.40,459.44 L 728.24,458.81 L 731.23,458.61 Z M 738.23,458.24 L 735.50,458.57 L 733.78,458.10 L 738.23,458.24 Z M 741.14,457.75 L 738.55,457.11 L 736.18,457.51 L 739.81,455.83 L 743.12,455.18 L 751.77,455.02 L 752.70,455.93 L 746.13,456.20 L 746.50,456.87 L 745.11,457.20 L 743.52,456.59 L 744.68,456.40 L 742.40,456.30 L 740.56,457.17 L 742.50,457.03 L 741.14,457.75 Z M 793.28,450.13 L 791.77,449.79 L 793.75,448.62 L 793.28,450.13 Z M 783.10,448.46 L 786.84,448.46 L 782.17,448.89 L 780.34,449.76 L 777.57,448.53 L 783.10,448.46 Z" fill="#E8E0D0" stroke="#B8B0A0" stroke-width="0.5"/>
<path d="M 727.52,376.60 L 727.10,375.43 L 728.23,375.72 L 727.52,376.60 Z M 710.54,373.25 L 709.37,372.94 L 710.48,372.72 L 710.54,373.25 Z M 712.56,373.89 L 711.29,373.11 L 713.22,372.55 L 713.71,372.86 L 712.69,373.29 L 713.59,373.18 L 714.66,372.43 L 714.63,373.55 L 712.56,373.89 Z M 710.17,371.77 L 710.81,371.88 L 709.84,372.38 L 710.17,371.77 Z M 726.00,374.03 L 721.48,374.33 L 721.57,375.04 L 720.36,375.67 L 718.29,375.28 L 718.93,375.89 L 717.80,376.30 L 716.68,375.26 L 715.18,375.22 L 716.29,375.79 L 715.43,375.77 L 712.64,374.75 L 716.06,374.44 L 714.86,374.00 L 718.50,374.37 L 720.04,373.69 L 718.71,373.90 L 717.65,373.78 L 719.12,373.68 L 719.52,372.60 L 720.36,372.49 L 720.75,373.22 L 721.23,372.34 L 722.55,372.43 L 722.59,371.99 L 720.75,372.00 L 718.29,372.66 L 717.42,371.68 L 723.79,371.88 L 718.99,370.52 L 720.17,370.18 L 717.18,369.10 L 722.91,370.20 L 724.82,370.04 L 723.72,369.86 L 724.48,369.29 L 726.99,369.87 L 730.63,369.43 L 729.51,369.81 L 730.60,369.95 L 731.74,369.76 L 731.60,368.98 L 733.82,369.60 L 726.00,374.03 Z M 725.14,369.03 L 724.42,368.64 L 725.15,368.57 L 725.86,368.71 L 725.14,369.03 Z M 721.33,369.37 L 723.39,369.15 L 721.19,368.42 L 723.82,368.68 L 724.12,369.05 L 722.71,369.43 L 721.33,369.37 Z M 751.02,371.82 L 744.89,372.38 L 746.24,372.66 L 743.06,373.49 L 739.12,373.49 L 737.00,372.72 L 736.67,373.18 L 738.51,373.98 L 740.58,374.11 L 740.48,375.25 L 733.18,374.29 L 735.42,375.17 L 734.53,375.54 L 735.86,375.48 L 735.17,375.79 L 735.74,376.10 L 731.01,375.53 L 732.37,377.15 L 727.92,375.25 L 729.68,374.83 L 728.97,374.43 L 730.24,374.05 L 729.28,373.73 L 730.63,373.84 L 730.63,373.11 L 733.90,371.99 L 735.65,371.82 L 735.81,372.88 L 736.42,372.77 L 736.41,371.50 L 734.36,370.90 L 735.01,370.32 L 736.22,370.77 L 735.16,369.59 L 737.88,369.15 L 736.84,368.26 L 743.20,368.87 L 744.05,369.71 L 742.06,369.45 L 741.86,370.23 L 743.02,370.12 L 743.03,370.71 L 745.25,371.54 L 745.18,371.06 L 745.92,371.21 L 745.41,370.51 L 743.75,370.34 L 744.54,369.67 L 749.02,369.30 L 750.51,370.65 L 746.24,370.65 L 750.47,371.27 L 749.11,371.71 L 751.02,371.82 Z M 726.91,368.32 L 730.47,368.37 L 731.11,368.87 L 726.91,368.32 Z M 728.26,376.84 L 727.68,377.28 L 728.85,377.36 L 726.77,377.29 L 728.26,376.84 Z M 742.96,375.19 L 741.58,374.58 L 742.34,374.31 L 743.10,374.32 L 742.96,375.19 Z M 728.40,374.27 L 727.95,374.18 L 728.19,373.87 L 728.40,374.27 Z M 728.57,369.01 L 729.37,369.33 L 726.67,369.09 L 728.57,369.01 Z M 718.63,368.80 L 717.75,368.38 L 717.91,368.31 L 718.63,368.80 Z M 711.60,366.77 L 711.68,366.46 L 711.99,366.55 L 711.60,366.77 Z" fill="#E8E0D0" stroke="#B8B0A0" stroke-width="0.5"/>
<path d="M 643.03,135.51 L 642.96,134.57 L 645.84,133.79 L 646.41,132.14 L 651.38,130.93 L 652.37,128.57 L 657.93,131.23 L 666.34,131.09 L 671.27,131.99 L 674.42,137.40 L 675.29,134.70 L 678.81,130.37 L 692.10,130.34 L 694.18,132.79 L 698.64,134.69 L 701.95,138.72 L 707.24,141.76 L 711.79,143.38 L 712.99,144.99 L 720.77,146.71 L 724.30,146.63 L 738.53,152.90 L 742.43,153.50 L 744.02,154.65 L 745.33,154.23 L 750.79,156.18 L 753.06,158.32 L 752.86,159.30 L 750.55,160.42 L 749.41,162.93 L 746.17,164.32 L 745.85,168.14 L 743.98,169.43 L 744.26,169.96 L 742.40,170.48 L 740.34,172.25 L 740.91,173.56 L 747.67,173.10 L 757.46,174.95 L 760.66,174.39 L 762.21,175.11 L 764.82,174.69 L 766.53,175.76 L 769.72,173.42 L 772.42,173.71 L 774.02,174.59 L 775.92,173.65 L 775.84,172.35 L 777.98,170.82 L 781.19,170.61 L 783.72,168.33 L 785.20,168.10 L 787.00,164.45 L 787.44,159.39 L 789.22,160.32 L 789.82,159.44 L 792.20,159.44 L 791.92,159.04 L 793.06,158.74 L 793.27,159.57 L 795.46,159.83 L 796.35,162.54 L 798.35,164.96 L 797.04,168.66 L 797.76,170.21 L 796.39,172.26 L 794.83,172.24 L 793.35,173.30 L 792.36,172.96 L 791.08,174.47 L 785.06,175.27 L 783.80,176.98 L 781.85,177.32 L 782.45,177.90 L 779.14,178.43 L 777.67,179.76 L 773.82,181.01 L 775.08,181.78 L 774.73,182.37 L 772.27,182.19 L 772.31,182.90 L 767.85,185.47 L 766.20,187.82 L 764.00,188.56 L 763.17,189.94 L 758.46,193.37 L 756.16,193.89 L 755.77,195.24 L 752.18,196.88 L 751.97,198.07 L 749.21,199.87 L 750.30,202.45 L 749.05,202.95 L 749.03,205.49 L 747.06,207.39 L 748.17,208.40 L 747.36,210.01 L 745.57,210.79 L 745.76,212.91 L 746.81,213.95 L 745.37,215.64 L 746.22,220.20 L 742.93,220.63 L 743.14,222.22 L 741.87,223.45 L 741.55,225.53 L 743.53,229.46 L 741.30,230.28 L 742.65,230.91 L 742.42,232.18 L 744.27,233.28 L 753.48,236.17 L 756.66,238.09 L 758.06,239.66 L 755.45,241.99 L 755.29,244.10 L 756.67,245.59 L 760.26,247.33 L 762.57,246.78 L 763.36,249.09 L 763.19,251.75 L 753.89,259.11 L 753.06,261.46 L 744.08,264.48 L 727.05,267.30 L 707.05,268.70 L 701.13,268.10 L 699.62,267.07 L 697.03,266.97 L 697.10,267.80 L 698.26,268.24 L 697.29,269.44 L 698.46,270.69 L 697.66,270.68 L 701.17,271.58 L 700.78,271.96 L 698.14,271.14 L 700.80,272.29 L 700.12,275.29 L 697.90,275.21 L 697.26,278.31 L 695.75,279.25 L 698.37,281.23 L 697.61,282.19 L 699.33,281.84 L 697.52,283.85 L 692.97,285.22 L 688.67,286.14 L 680.77,286.17 L 677.48,284.88 L 667.61,283.45 L 669.54,283.23 L 668.95,282.63 L 666.79,282.63 L 667.64,283.01 L 665.05,283.60 L 664.87,286.35 L 666.68,289.14 L 665.71,292.62 L 666.52,293.77 L 668.24,294.59 L 672.61,295.09 L 671.20,296.45 L 673.03,296.65 L 677.00,296.50 L 677.41,295.21 L 674.25,294.95 L 680.89,293.65 L 682.87,295.46 L 682.61,299.13 L 676.95,300.21 L 675.28,299.32 L 675.85,298.19 L 673.11,297.14 L 667.21,298.34 L 666.61,299.40 L 674.69,301.00 L 667.23,303.10 L 662.74,306.55 L 663.42,308.99 L 664.41,309.58 L 662.99,310.91 L 664.06,312.27 L 662.73,313.04 L 663.34,313.49 L 659.11,314.72 L 658.13,315.87 L 660.52,316.87 L 658.55,317.93 L 652.63,317.36 L 649.19,318.14 L 649.46,318.79 L 648.13,318.56 L 648.87,319.18 L 644.16,319.51 L 639.48,322.41 L 639.10,323.82 L 636.62,325.50 L 636.10,326.89 L 638.42,330.17 L 641.83,331.31 L 645.82,333.75 L 655.20,334.23 L 657.92,335.35 L 658.03,337.84 L 656.75,339.73 L 654.59,339.71 L 650.44,340.72 L 656.10,339.96 L 657.73,341.41 L 655.80,341.35 L 655.92,342.75 L 653.70,342.83 L 651.00,344.70 L 642.01,347.31 L 641.03,348.49 L 636.87,350.09 L 635.06,352.53 L 633.68,353.05 L 634.91,353.14 L 636.28,352.12 L 634.83,356.32 L 632.94,358.07 L 627.74,359.06 L 624.12,356.13 L 623.12,355.88 L 625.01,357.51 L 619.94,358.16 L 624.94,357.86 L 627.65,359.31 L 621.53,360.79 L 619.21,362.66 L 618.51,365.45 L 615.32,366.92 L 618.15,366.06 L 620.53,370.79 L 615.71,370.77 L 612.93,371.32 L 616.56,371.06 L 618.27,371.40 L 617.78,371.82 L 620.40,371.28 L 627.47,376.86 L 626.66,377.55 L 626.43,376.81 L 609.02,374.43 L 585.64,374.13 L 585.44,373.11 L 580.00,370.73 L 582.22,368.23 L 580.53,367.10 L 582.14,365.92 L 581.19,364.15 L 581.71,363.38 L 576.45,363.12 L 571.55,364.20 L 570.31,360.81 L 567.44,359.25 L 568.05,358.18 L 566.95,357.55 L 568.21,356.15 L 571.32,355.52 L 572.92,354.48 L 571.62,351.50 L 573.50,349.89 L 578.04,348.50 L 578.53,345.51 L 581.72,344.66 L 581.25,342.40 L 578.91,341.14 L 581.23,338.59 L 581.03,337.36 L 583.25,337.01 L 584.88,335.30 L 586.62,335.50 L 586.69,334.85 L 585.17,334.20 L 586.22,333.68 L 585.81,332.18 L 588.87,331.17 L 587.98,327.55 L 586.22,326.80 L 589.74,325.32 L 588.04,324.32 L 587.96,322.08 L 591.17,321.48 L 590.95,320.75 L 593.17,319.60 L 590.01,317.24 L 584.38,316.63 L 584.20,315.66 L 593.39,315.76 L 595.43,313.76 L 594.42,312.77 L 586.85,312.36 L 587.51,311.85 L 586.87,310.16 L 589.18,308.69 L 587.33,307.32 L 588.61,306.72 L 588.55,306.05 L 585.75,304.76 L 586.37,303.77 L 588.13,303.55 L 588.22,302.70 L 583.73,301.50 L 583.51,297.84 L 584.78,296.93 L 583.68,295.36 L 584.77,294.19 L 586.12,294.46 L 588.30,293.70 L 586.09,290.19 L 586.94,289.50 L 586.35,287.87 L 586.96,284.38 L 585.75,282.61 L 589.02,279.38 L 587.28,278.45 L 587.39,277.50 L 588.91,277.55 L 589.69,276.01 L 588.55,273.50 L 591.00,273.50 L 592.21,267.88 L 597.49,266.55 L 598.74,265.23 L 597.16,263.93 L 596.77,261.05 L 594.70,258.08 L 595.49,256.13 L 594.46,254.72 L 595.82,253.18 L 594.45,252.11 L 595.28,251.94 L 594.59,251.03 L 595.16,249.80 L 596.19,249.80 L 596.35,248.14 L 600.12,247.58 L 600.22,246.37 L 603.98,244.68 L 603.50,238.97 L 601.75,238.18 L 603.98,237.42 L 604.80,234.00 L 607.69,231.30 L 607.81,230.30 L 610.46,229.83 L 609.47,226.08 L 610.94,222.88 L 610.37,221.96 L 608.36,222.23 L 607.20,221.18 L 608.47,218.79 L 606.66,217.67 L 606.61,215.61 L 603.95,212.09 L 605.17,212.04 L 605.63,211.19 L 603.08,210.35 L 601.62,208.14 L 601.86,206.00 L 602.90,204.31 L 603.73,204.75 L 605.38,203.82 L 604.53,203.02 L 606.46,198.36 L 608.89,198.44 L 610.38,196.71 L 608.70,195.98 L 609.46,193.81 L 608.00,189.68 L 610.75,188.06 L 612.51,182.36 L 617.89,178.72 L 622.25,171.96 L 624.91,172.31 L 627.88,171.35 L 628.17,170.15 L 624.80,166.57 L 625.03,165.32 L 626.96,164.02 L 624.67,158.27 L 625.72,156.21 L 627.46,155.72 L 625.07,152.84 L 625.96,151.47 L 628.88,149.71 L 639.39,146.58 L 643.18,138.45 L 641.08,137.00 L 643.03,135.51 Z M 624.25,397.59 L 624.26,397.14 L 625.11,397.79 L 624.25,397.59 Z M 624.42,379.57 L 628.10,381.79 L 629.09,383.34 L 627.65,382.64 L 625.67,383.49 L 625.32,384.45 L 630.42,385.30 L 631.91,387.40 L 636.85,389.31 L 636.70,389.89 L 646.05,392.67 L 649.36,394.43 L 656.77,395.91 L 664.93,395.90 L 662.41,398.18 L 661.20,397.84 L 658.80,398.55 L 655.35,397.98 L 655.04,398.55 L 649.72,399.20 L 642.98,398.01 L 628.21,397.09 L 625.67,397.58 L 624.26,397.01 L 624.42,379.57 Z M 680.39,396.58 L 678.59,397.27 L 678.44,396.80 L 675.36,397.45 L 674.59,396.97 L 670.95,397.99 L 669.39,397.41 L 672.13,397.00 L 671.90,396.46 L 673.73,397.02 L 673.97,396.39 L 680.39,396.58 Z M 702.98,270.56 L 700.31,269.32 L 702.38,269.85 L 702.98,270.56 Z M 699.92,268.78 L 700.98,268.65 L 701.82,268.99 L 699.92,268.78 Z M 701.11,280.45 L 700.18,281.33 L 698.69,280.89 L 699.64,279.79 L 701.11,280.45 Z M 701.27,278.17 L 701.20,279.54 L 699.90,278.22 L 701.27,278.17 Z" fill="#C8D8E8" stroke="#8BAABB" stroke-width="0.8"/>
<path d="M 614.02,92.63 L 612.35,91.97 L 612.86,91.14 L 615.13,90.34 L 617.98,87.42 L 619.66,86.95 L 619.77,85.19 L 622.03,84.17 L 620.30,83.20 L 617.95,83.08 L 615.10,78.45 L 618.37,75.26 L 615.63,73.21 L 615.79,71.74 L 616.99,71.33 L 617.37,69.89 L 620.21,68.31 L 619.98,67.22 L 621.67,66.78 L 618.91,62.51 L 620.44,61.17 L 620.32,56.01 L 622.81,54.73 L 622.50,54.00 L 623.76,53.04 L 613.38,40.43 L 622.37,40.77 L 622.70,41.96 L 624.56,41.73 L 628.31,40.64 L 631.21,38.11 L 634.95,38.42 L 636.54,36.76 L 639.58,35.27 L 642.59,34.77 L 647.49,31.93 L 657.42,30.51 L 659.79,31.36 L 661.74,30.08 L 663.10,31.39 L 663.27,34.36 L 661.35,36.49 L 661.88,39.18 L 663.10,40.57 L 662.08,43.07 L 662.87,44.69 L 664.63,45.82 L 664.30,46.85 L 664.82,47.11 L 665.26,46.43 L 665.82,46.94 L 666.47,48.82 L 668.99,49.22 L 669.61,50.13 L 670.18,49.80 L 672.51,50.90 L 672.51,51.99 L 674.86,53.00 L 679.12,53.38 L 680.51,52.65 L 684.18,53.49 L 686.13,54.66 L 688.95,54.26 L 689.96,55.82 L 692.27,57.09 L 693.46,56.80 L 696.52,58.12 L 700.11,58.31 L 700.17,59.11 L 703.35,61.48 L 712.52,60.87 L 719.19,63.58 L 720.19,65.09 L 719.29,67.49 L 721.30,70.35 L 721.55,74.04 L 717.92,74.16 L 721.82,77.25 L 722.82,83.65 L 742.53,84.19 L 743.87,83.77 L 743.95,85.34 L 742.35,87.06 L 743.29,91.56 L 747.81,93.67 L 750.25,93.97 L 751.07,96.51 L 754.13,99.71 L 752.96,99.85 L 750.46,105.17 L 751.23,106.26 L 750.38,106.38 L 746.48,111.84 L 749.56,113.87 L 746.08,115.38 L 745.89,112.58 L 735.27,108.23 L 724.61,108.32 L 704.31,111.15 L 702.09,114.88 L 698.32,118.53 L 698.24,122.71 L 693.89,132.21 L 691.93,130.31 L 678.98,130.32 L 675.29,134.70 L 674.42,137.40 L 671.27,131.99 L 666.34,131.09 L 657.93,131.23 L 652.37,128.57 L 651.38,130.93 L 646.41,132.14 L 645.84,133.79 L 642.96,134.57 L 643.03,135.51 L 641.08,137.00 L 634.37,137.54 L 633.03,136.97 L 633.35,134.76 L 632.17,131.14 L 630.60,129.93 L 629.30,124.48 L 626.88,121.84 L 625.27,121.47 L 625.06,120.08 L 626.13,119.12 L 622.82,117.46 L 623.83,116.71 L 622.51,114.90 L 624.88,114.49 L 625.42,113.39 L 623.54,111.72 L 626.51,109.44 L 620.22,105.46 L 620.66,104.82 L 618.29,98.91 L 619.15,98.09 L 616.58,97.57 L 614.02,92.63 Z" fill="#C8D8E8" stroke="#8BAABB" stroke-width="0.8"/>
<path d="M 610.22,95.26 L 610.99,97.61 L 608.82,99.80 L 603.89,100.51 L 592.39,95.31 L 592.20,92.89 L 590.87,91.94 L 583.86,89.79 L 580.12,87.31 L 576.15,86.61 L 568.73,83.88 L 565.47,83.48 L 561.45,81.17 L 549.80,77.11 L 544.48,72.69 L 539.55,70.50 L 537.01,67.04 L 535.37,66.58 L 535.34,64.41 L 534.17,64.47 L 534.54,63.61 L 535.80,64.01 L 536.64,61.48 L 536.18,60.00 L 529.46,53.09 L 529.56,52.05 L 525.09,49.54 L 524.67,46.07 L 519.60,43.19 L 520.21,42.16 L 519.33,40.23 L 513.39,33.58 L 512.84,31.00 L 511.21,29.55 L 510.68,27.49 L 509.38,26.74 L 509.72,26.09 L 509.08,26.53 L 508.40,25.98 L 509.00,25.59 L 506.62,22.72 L 506.68,21.36 L 504.58,19.95 L 504.05,18.18 L 498.47,14.10 L 496.76,10.44 L 492.21,6.17 L 479.12,0.42 L 479.04,0.00 L 571.55,0.00 L 570.88,0.77 L 571.89,4.01 L 564.79,7.36 L 564.17,9.11 L 565.32,10.75 L 562.19,11.17 L 562.64,11.92 L 561.77,12.70 L 565.33,14.69 L 564.49,15.92 L 565.85,16.52 L 567.33,19.33 L 569.47,20.31 L 569.54,21.28 L 573.89,24.43 L 573.94,25.64 L 571.11,27.87 L 575.78,27.89 L 581.60,28.88 L 583.34,31.68 L 582.96,32.73 L 593.37,32.63 L 602.37,28.05 L 601.22,29.15 L 602.18,30.31 L 601.05,31.47 L 601.02,40.90 L 602.27,40.31 L 605.11,41.34 L 608.98,40.16 L 613.38,40.43 L 623.76,53.04 L 622.50,54.00 L 622.81,54.73 L 620.32,56.01 L 620.44,61.17 L 618.91,62.51 L 621.67,66.78 L 619.98,67.22 L 620.21,68.31 L 617.37,69.89 L 616.99,71.33 L 615.79,71.74 L 615.63,73.21 L 618.37,75.26 L 615.10,78.45 L 617.95,83.08 L 620.30,83.20 L 622.03,84.17 L 619.77,85.19 L 619.66,86.95 L 617.98,87.42 L 615.13,90.34 L 612.86,91.14 L 612.35,91.97 L 614.02,92.63 L 614.17,93.75 L 610.22,95.26 Z M 536.71,67.57 L 536.66,67.62 L 536.19,67.46 L 536.71,67.57 Z M 533.62,64.03 L 533.28,64.03 L 533.44,63.78 L 533.62,64.03 Z M 524.87,49.77 L 525.02,49.89 L 524.38,49.71 L 524.87,49.77 Z M 482.50,4.00 L 482.22,4.01 L 482.09,3.66 L 482.47,3.24 L 482.50,4.00 Z" fill="#C8D8E8" stroke="#8BAABB" stroke-width="0.8"/>
<path d="M 616.58,97.57 L 619.15,98.09 L 618.29,98.91 L 620.66,104.82 L 620.22,105.46 L 626.51,109.44 L 623.54,111.72 L 625.42,113.39 L 624.88,114.49 L 622.51,114.90 L 623.83,116.71 L 622.82,117.46 L 626.13,119.12 L 625.06,120.08 L 625.27,121.47 L 626.88,121.84 L 629.30,124.48 L 630.60,129.93 L 632.17,131.14 L 633.35,134.76 L 633.03,136.97 L 636.17,137.61 L 641.08,137.00 L 643.18,138.45 L 639.13,146.82 L 628.88,149.71 L 625.96,151.47 L 625.07,152.84 L 627.46,155.72 L 625.72,156.21 L 624.67,158.27 L 626.96,164.02 L 625.03,165.32 L 624.80,166.57 L 628.17,170.15 L 627.88,171.35 L 624.91,172.31 L 622.25,171.96 L 617.89,178.72 L 612.51,182.36 L 610.75,188.06 L 608.00,189.68 L 609.46,193.81 L 608.70,195.98 L 610.38,196.71 L 608.89,198.44 L 606.46,198.36 L 604.53,203.02 L 605.38,203.82 L 603.73,204.75 L 603.04,204.25 L 602.18,205.06 L 601.62,208.14 L 603.08,210.35 L 605.63,211.19 L 605.17,212.04 L 603.95,212.09 L 606.61,215.61 L 606.66,217.67 L 608.47,218.79 L 607.20,221.18 L 608.36,222.23 L 610.37,221.96 L 610.94,222.88 L 609.47,226.08 L 610.46,229.83 L 607.81,230.30 L 607.69,231.30 L 604.80,234.00 L 603.98,237.42 L 601.75,238.18 L 603.50,238.97 L 603.98,244.68 L 600.22,246.37 L 600.12,247.58 L 596.35,248.14 L 596.19,249.80 L 595.16,249.80 L 594.59,251.03 L 595.28,251.94 L 594.45,252.11 L 595.82,253.18 L 594.46,254.72 L 595.49,256.13 L 594.70,258.08 L 596.77,261.05 L 597.16,263.93 L 598.74,265.23 L 597.49,266.55 L 592.21,267.88 L 591.00,273.50 L 588.55,273.50 L 589.69,276.01 L 588.91,277.55 L 587.39,277.50 L 587.28,278.45 L 589.02,279.38 L 585.75,282.61 L 586.96,284.38 L 586.35,287.87 L 586.94,289.50 L 586.09,290.19 L 588.30,293.70 L 586.12,294.46 L 584.77,294.19 L 583.68,295.36 L 584.78,296.93 L 583.51,297.84 L 583.73,301.50 L 588.22,302.70 L 588.13,303.55 L 586.37,303.77 L 585.75,304.76 L 588.55,306.05 L 588.61,306.72 L 587.33,307.32 L 589.18,308.69 L 586.87,310.16 L 587.51,311.85 L 586.85,312.36 L 594.42,312.77 L 595.43,313.76 L 593.39,315.76 L 584.20,315.66 L 584.38,316.63 L 590.01,317.24 L 593.17,319.60 L 590.95,320.75 L 591.17,321.48 L 587.96,322.08 L 588.04,324.32 L 589.74,325.32 L 586.22,326.80 L 587.98,327.55 L 588.87,331.17 L 585.81,332.18 L 586.22,333.68 L 585.17,334.20 L 586.69,334.85 L 586.62,335.50 L 584.88,335.30 L 583.25,337.01 L 581.03,337.36 L 581.23,338.59 L 578.91,341.14 L 581.25,342.40 L 581.80,344.54 L 578.09,345.98 L 578.35,348.27 L 573.50,349.89 L 571.47,351.71 L 572.48,352.13 L 571.93,352.43 L 568.14,352.55 L 566.79,354.28 L 568.23,356.37 L 566.95,357.55 L 568.05,358.18 L 567.32,359.03 L 570.11,360.54 L 571.55,364.20 L 576.45,363.12 L 581.71,363.38 L 581.19,364.15 L 582.14,365.92 L 580.53,367.10 L 582.22,368.23 L 580.00,370.73 L 585.44,373.11 L 585.64,374.13 L 609.02,374.43 L 626.51,376.90 L 621.28,376.84 L 617.37,376.02 L 614.62,376.59 L 612.28,378.69 L 610.26,378.33 L 602.46,380.26 L 602.36,379.74 L 598.44,380.24 L 599.89,380.75 L 598.14,381.80 L 599.07,382.19 L 596.94,385.62 L 597.16,388.66 L 593.54,389.71 L 584.02,388.11 L 579.96,385.82 L 581.95,384.48 L 583.90,384.60 L 584.30,385.18 L 582.42,386.04 L 584.16,385.94 L 585.06,385.70 L 584.98,384.52 L 586.91,384.34 L 587.68,386.10 L 585.14,387.02 L 587.39,386.74 L 588.09,386.27 L 588.23,384.32 L 592.67,383.45 L 595.47,381.85 L 594.89,380.98 L 592.76,380.94 L 592.22,380.30 L 592.22,381.14 L 586.32,382.60 L 584.98,383.53 L 581.91,382.75 L 578.69,383.15 L 580.97,383.06 L 583.01,383.98 L 578.98,384.11 L 580.44,384.59 L 579.00,384.70 L 579.16,385.49 L 577.73,385.09 L 580.99,386.87 L 579.05,386.92 L 576.36,385.66 L 576.00,386.09 L 570.09,383.75 L 574.12,383.81 L 576.87,384.89 L 577.22,384.46 L 575.98,383.92 L 577.65,383.75 L 574.38,383.36 L 575.05,382.80 L 574.07,381.08 L 576.37,380.63 L 577.06,380.13 L 578.13,380.67 L 576.92,381.44 L 578.40,380.85 L 580.22,381.34 L 583.36,379.68 L 591.30,379.63 L 590.21,378.94 L 581.63,378.57 L 580.36,379.68 L 578.85,379.18 L 580.70,378.50 L 578.61,378.90 L 575.26,378.46 L 573.75,380.10 L 575.71,379.14 L 577.40,379.68 L 573.43,381.22 L 574.15,381.64 L 573.85,382.95 L 571.99,383.31 L 571.56,382.63 L 571.30,383.36 L 568.31,382.40 L 570.80,382.19 L 571.13,381.59 L 567.06,380.86 L 570.90,380.80 L 570.05,380.19 L 572.19,378.85 L 573.56,378.91 L 572.55,378.39 L 574.70,378.41 L 571.34,377.87 L 570.88,378.41 L 571.76,378.96 L 570.49,379.85 L 569.04,378.80 L 568.99,379.55 L 566.45,380.47 L 565.48,380.18 L 566.98,379.51 L 565.62,379.23 L 567.86,378.24 L 565.87,377.82 L 567.07,377.00 L 566.86,376.07 L 565.07,374.61 L 567.22,375.89 L 567.85,375.44 L 570.09,376.18 L 571.24,375.25 L 573.64,374.90 L 572.69,376.30 L 573.67,375.89 L 575.16,376.46 L 576.46,374.83 L 574.96,375.98 L 574.22,374.78 L 575.90,373.86 L 579.00,376.18 L 578.24,377.13 L 574.42,378.02 L 579.16,378.02 L 577.82,377.61 L 579.45,376.94 L 579.81,376.03 L 577.45,374.05 L 579.78,373.80 L 579.81,372.66 L 577.22,371.06 L 572.99,370.20 L 572.71,369.65 L 570.58,370.07 L 572.98,370.32 L 572.47,371.16 L 573.74,370.52 L 578.85,372.27 L 576.82,373.05 L 570.36,371.17 L 571.00,372.02 L 572.80,372.13 L 573.67,372.66 L 572.38,372.30 L 573.03,373.00 L 571.20,373.39 L 574.55,373.22 L 571.92,373.88 L 571.01,375.12 L 569.81,372.15 L 569.12,371.54 L 569.94,375.72 L 567.06,374.70 L 566.11,373.14 L 568.96,374.50 L 566.76,372.33 L 568.26,371.82 L 566.00,371.84 L 565.48,372.62 L 564.17,371.84 L 565.31,371.43 L 563.16,371.32 L 564.12,370.60 L 562.91,370.29 L 563.38,369.23 L 566.59,371.21 L 565.94,370.26 L 566.66,369.76 L 565.57,369.61 L 564.51,368.15 L 565.68,368.48 L 565.54,367.37 L 564.66,367.20 L 563.39,368.17 L 561.72,367.14 L 561.64,367.92 L 560.48,367.76 L 560.21,366.73 L 561.16,365.86 L 559.29,366.52 L 559.01,365.74 L 562.84,365.13 L 564.27,365.91 L 563.39,364.89 L 564.99,364.78 L 564.63,363.56 L 568.10,363.57 L 565.18,362.65 L 567.06,361.39 L 564.79,362.30 L 564.05,364.27 L 561.49,364.79 L 560.52,364.30 L 561.29,363.89 L 560.28,364.03 L 558.53,362.01 L 559.57,361.87 L 560.52,362.90 L 560.25,362.03 L 563.39,362.52 L 560.49,361.54 L 561.80,361.06 L 559.05,361.68 L 558.26,361.23 L 558.70,360.26 L 556.88,361.01 L 555.76,360.51 L 556.39,360.12 L 553.92,359.59 L 557.95,358.80 L 559.73,360.21 L 563.64,360.46 L 559.74,359.62 L 557.75,357.70 L 563.32,358.72 L 561.90,358.03 L 563.39,357.44 L 563.08,356.94 L 560.98,357.77 L 558.22,357.05 L 557.94,356.41 L 561.16,356.00 L 558.62,356.00 L 558.19,355.47 L 558.46,354.88 L 561.08,354.33 L 561.72,354.99 L 562.68,354.52 L 563.24,355.32 L 565.34,356.19 L 565.62,355.82 L 563.67,355.26 L 563.39,354.26 L 560.93,354.01 L 560.55,353.40 L 561.12,352.09 L 562.41,352.65 L 563.79,352.81 L 562.16,352.19 L 561.48,350.64 L 564.06,350.31 L 561.32,350.07 L 561.57,351.14 L 559.75,351.66 L 560.29,352.42 L 559.19,354.26 L 557.08,353.09 L 557.67,351.48 L 556.54,350.22 L 557.74,349.41 L 556.72,348.59 L 557.67,347.68 L 558.10,347.97 L 561.32,347.85 L 558.43,347.75 L 557.43,346.70 L 559.70,345.68 L 562.07,346.69 L 561.66,345.47 L 563.24,345.18 L 559.22,344.68 L 560.74,344.32 L 558.85,344.56 L 558.30,343.55 L 556.04,342.56 L 556.54,342.05 L 554.64,342.11 L 557.16,341.70 L 559.60,343.71 L 558.14,341.83 L 563.25,342.01 L 563.39,342.61 L 564.66,342.05 L 564.26,342.71 L 566.62,342.89 L 567.15,343.84 L 567.96,343.23 L 569.53,343.61 L 570.40,342.95 L 570.34,342.47 L 569.25,343.15 L 568.01,342.83 L 566.02,341.00 L 567.72,341.65 L 570.96,341.86 L 566.42,340.72 L 567.22,340.27 L 565.10,339.74 L 565.87,338.71 L 565.23,337.98 L 564.63,340.03 L 562.88,340.55 L 553.44,339.54 L 554.36,338.93 L 555.39,339.23 L 554.64,338.75 L 555.52,338.17 L 557.99,338.87 L 556.39,339.38 L 557.99,339.15 L 558.55,339.59 L 559.61,339.85 L 558.46,339.21 L 561.48,338.65 L 560.36,338.46 L 561.32,338.04 L 558.34,338.54 L 556.72,337.61 L 557.41,337.33 L 555.85,337.21 L 558.22,335.47 L 559.93,335.36 L 560.68,336.42 L 560.65,335.26 L 561.80,335.14 L 562.30,335.77 L 562.11,335.06 L 561.32,334.97 L 562.67,333.92 L 560.21,333.43 L 559.56,332.83 L 560.52,332.30 L 559.16,332.59 L 558.89,331.92 L 555.11,331.46 L 556.44,331.84 L 554.55,331.90 L 554.16,332.47 L 556.94,332.52 L 556.42,332.90 L 554.08,332.75 L 552.51,331.81 L 550.29,331.69 L 549.40,330.77 L 551.13,329.12 L 548.02,330.68 L 545.55,330.71 L 543.68,331.15 L 542.69,331.80 L 545.46,331.37 L 545.33,332.58 L 546.34,332.61 L 545.60,333.14 L 542.81,332.66 L 542.14,330.88 L 546.35,328.77 L 547.79,328.84 L 548.09,327.98 L 549.14,328.38 L 550.02,328.34 L 548.76,328.11 L 549.31,327.32 L 551.20,327.78 L 551.77,326.75 L 552.96,327.28 L 552.45,326.47 L 553.84,325.83 L 554.25,324.12 L 555.48,324.14 L 556.72,325.69 L 557.34,324.99 L 556.62,324.05 L 557.81,323.85 L 560.79,324.23 L 559.75,324.60 L 561.30,324.99 L 560.05,325.60 L 561.01,325.80 L 560.05,326.67 L 561.10,326.34 L 561.28,325.40 L 562.33,326.24 L 558.35,327.59 L 556.30,327.10 L 558.01,327.68 L 561.41,327.11 L 561.09,328.18 L 563.79,328.34 L 561.77,327.22 L 563.36,326.71 L 564.63,328.17 L 562.12,330.11 L 563.45,330.46 L 564.46,329.60 L 564.99,329.90 L 564.98,328.98 L 567.93,328.01 L 567.01,327.76 L 567.52,326.98 L 569.61,325.77 L 568.61,325.80 L 565.62,328.18 L 566.42,326.39 L 565.93,325.36 L 568.94,323.13 L 571.45,322.81 L 569.81,322.46 L 566.73,323.77 L 567.67,321.10 L 570.98,319.87 L 573.44,321.04 L 575.58,320.82 L 570.63,319.44 L 568.40,319.70 L 568.38,319.05 L 570.07,318.60 L 568.99,317.33 L 572.25,317.00 L 576.78,315.46 L 577.33,313.71 L 578.28,313.40 L 578.36,312.06 L 576.84,313.37 L 574.31,311.78 L 571.48,311.31 L 572.12,310.47 L 570.24,310.53 L 571.27,309.79 L 572.26,309.98 L 571.99,309.17 L 573.46,307.43 L 575.65,307.72 L 575.39,306.68 L 574.81,307.28 L 572.97,306.97 L 574.70,306.10 L 573.31,305.92 L 572.32,304.90 L 572.63,303.73 L 574.63,303.07 L 574.37,301.95 L 575.18,301.30 L 576.70,301.80 L 576.55,300.42 L 575.18,299.13 L 575.47,297.29 L 578.96,297.56 L 575.43,295.28 L 578.32,294.50 L 580.35,296.59 L 579.84,292.82 L 576.66,293.13 L 574.91,292.29 L 577.73,290.76 L 579.48,290.71 L 581.71,290.15 L 581.71,287.98 L 580.28,290.28 L 578.15,290.63 L 576.50,289.34 L 574.11,288.81 L 572.31,289.65 L 572.92,290.55 L 571.96,291.02 L 567.63,291.42 L 564.78,290.97 L 565.51,290.06 L 567.16,289.83 L 567.86,289.03 L 566.46,289.76 L 564.33,289.48 L 562.68,285.29 L 563.83,282.17 L 565.14,281.17 L 564.51,280.20 L 565.94,277.64 L 565.35,276.49 L 568.28,275.39 L 569.21,275.94 L 568.89,274.26 L 571.00,272.00 L 571.17,270.19 L 567.30,263.90 L 568.23,260.89 L 565.86,258.24 L 566.65,255.98 L 565.70,255.17 L 566.55,253.60 L 568.26,254.31 L 571.18,253.64 L 571.92,250.99 L 571.20,250.51 L 572.08,250.19 L 572.23,249.06 L 572.79,250.01 L 573.82,249.82 L 573.77,248.45 L 575.63,246.54 L 575.93,244.03 L 578.45,242.34 L 577.72,240.68 L 582.55,237.01 L 585.36,230.82 L 585.02,229.08 L 589.59,224.20 L 588.00,220.63 L 590.25,219.81 L 592.11,214.80 L 590.55,213.33 L 591.03,210.76 L 588.56,200.39 L 589.44,197.35 L 590.55,197.71 L 592.22,196.83 L 592.06,195.32 L 593.57,194.41 L 593.26,190.58 L 591.19,188.98 L 590.79,186.77 L 594.66,182.42 L 596.40,176.41 L 597.87,176.04 L 597.32,172.30 L 599.31,170.95 L 598.92,169.89 L 601.15,165.62 L 600.56,165.33 L 601.08,162.64 L 599.87,161.46 L 600.96,158.96 L 603.30,157.52 L 601.70,150.85 L 602.68,144.82 L 603.93,143.14 L 602.70,142.26 L 601.13,142.65 L 601.50,140.43 L 601.94,138.93 L 602.59,138.52 L 603.53,139.16 L 605.09,137.64 L 606.24,129.37 L 607.79,125.70 L 606.48,122.29 L 606.99,121.64 L 605.99,120.64 L 606.88,112.81 L 605.66,110.77 L 606.15,110.25 L 604.33,104.06 L 604.95,101.39 L 603.89,100.51 L 608.82,99.80 L 610.99,97.61 L 610.22,95.26 L 614.17,93.75 L 616.58,97.57 Z M 623.98,397.85 L 620.93,396.98 L 620.49,397.02 L 623.14,397.93 L 619.32,398.36 L 612.56,397.33 L 612.81,396.27 L 612.21,396.86 L 611.77,396.25 L 611.60,397.18 L 611.10,396.46 L 610.69,397.24 L 609.50,397.30 L 608.83,396.15 L 608.55,397.44 L 607.40,397.55 L 607.46,396.98 L 604.88,397.46 L 605.63,396.25 L 604.23,397.44 L 601.72,396.98 L 599.66,397.48 L 598.75,397.05 L 601.22,396.59 L 603.21,395.80 L 598.99,396.75 L 597.76,396.44 L 599.48,396.19 L 597.49,396.11 L 596.53,396.96 L 597.42,395.66 L 593.49,396.15 L 594.61,395.74 L 593.88,395.64 L 594.14,394.96 L 592.82,394.85 L 592.06,395.35 L 592.95,395.58 L 591.18,396.23 L 591.11,395.46 L 590.08,395.97 L 589.91,395.37 L 589.36,395.97 L 588.09,395.46 L 585.88,395.97 L 585.45,395.63 L 586.51,395.26 L 585.21,395.29 L 585.14,394.75 L 585.93,394.80 L 585.54,394.29 L 589.05,395.29 L 588.16,394.80 L 590.08,395.08 L 586.97,394.02 L 590.31,394.80 L 591.11,394.51 L 589.72,393.98 L 592.33,394.36 L 593.10,394.12 L 591.82,393.90 L 592.62,393.68 L 595.80,394.80 L 595.17,394.18 L 597.17,394.46 L 597.40,393.40 L 599.17,393.21 L 601.38,393.40 L 600.02,394.12 L 599.59,395.52 L 601.11,395.53 L 600.38,394.67 L 601.67,393.82 L 605.58,395.32 L 604.96,394.68 L 606.96,395.08 L 603.50,394.20 L 601.76,392.88 L 598.67,392.78 L 598.03,392.12 L 598.91,392.23 L 597.64,391.57 L 606.88,394.12 L 607.60,393.65 L 606.16,393.25 L 608.07,392.73 L 611.08,395.16 L 611.48,394.53 L 610.11,392.92 L 613.60,394.19 L 614.02,393.39 L 617.31,394.23 L 615.24,395.71 L 615.71,396.19 L 616.96,394.97 L 618.12,395.35 L 618.27,394.33 L 620.15,394.45 L 608.31,391.57 L 606.40,389.29 L 606.88,388.52 L 615.90,386.75 L 616.00,385.40 L 606.12,386.32 L 602.97,385.02 L 603.61,382.60 L 604.82,382.25 L 604.58,382.92 L 605.65,383.01 L 607.44,381.78 L 604.98,381.81 L 605.19,380.87 L 603.64,380.54 L 606.98,380.33 L 609.50,381.27 L 613.23,379.59 L 613.08,378.61 L 615.24,378.04 L 618.47,379.93 L 622.66,378.83 L 624.42,379.57 L 624.26,397.01 L 623.44,396.91 L 624.26,397.14 L 623.98,397.85 Z M 483.23,225.77 L 483.65,225.37 L 484.07,226.03 L 483.23,225.77 Z M 506.70,225.03 L 503.98,225.14 L 505.22,224.48 L 506.70,225.03 Z M 152.41,172.03 L 150.00,172.57 L 150.83,171.47 L 152.41,172.03 Z M 196.26,166.57 L 196.34,166.57 L 196.39,166.63 L 196.26,166.57 Z M 493.53,165.71 L 493.54,165.74 L 493.31,165.76 L 493.53,165.71 Z M 491.21,165.08 L 491.01,165.09 L 491.15,165.01 L 491.21,165.08 Z M 640.73,406.08 L 638.49,405.56 L 639.17,405.37 L 640.73,406.08 Z M 642.43,406.18 L 641.36,405.89 L 641.71,405.43 L 642.43,406.18 Z M 636.11,406.25 L 635.99,405.77 L 634.01,406.08 L 632.72,405.58 L 637.51,405.46 L 636.11,406.25 Z M 641.16,404.94 L 641.51,405.11 L 640.68,405.27 L 641.16,404.94 Z M 638.16,404.98 L 636.58,404.55 L 637.46,404.10 L 638.45,404.53 L 638.32,403.62 L 639.29,403.46 L 639.13,404.52 L 640.40,404.99 L 638.16,404.98 Z M 636.51,403.54 L 634.75,403.80 L 635.21,402.89 L 636.51,403.54 Z M 612.69,401.94 L 610.78,402.10 L 610.78,401.48 L 612.69,401.94 Z M 609.08,401.09 L 608.40,401.82 L 607.19,401.16 L 609.08,401.09 Z M 644.06,401.50 L 642.47,401.04 L 643.43,400.64 L 645.02,400.98 L 644.06,401.50 Z M 648.97,400.93 L 647.49,400.93 L 648.74,400.10 L 650.00,400.29 L 648.97,400.93 Z M 645.58,399.70 L 642.51,398.85 L 643.06,398.72 L 645.58,399.70 Z M 630.57,404.57 L 629.94,403.63 L 628.35,403.74 L 628.78,403.04 L 624.55,402.10 L 624.71,402.54 L 622.41,402.21 L 622.79,402.79 L 621.66,402.89 L 620.49,402.10 L 622.88,401.48 L 620.43,401.85 L 622.41,400.31 L 620.25,400.94 L 618.67,399.98 L 618.54,400.79 L 617.31,399.81 L 615.00,400.09 L 616.75,400.15 L 616.99,400.65 L 614.52,400.71 L 614.76,401.27 L 616.84,401.37 L 616.60,402.26 L 618.50,402.37 L 618.22,402.96 L 616.15,402.64 L 615.88,401.94 L 615.02,402.77 L 614.05,401.98 L 615.26,401.65 L 610.94,401.27 L 613.48,400.98 L 612.26,400.90 L 614.28,400.20 L 610.24,400.88 L 609.35,400.59 L 610.30,400.15 L 608.11,399.98 L 613.27,399.11 L 613.33,400.03 L 613.96,399.04 L 626.59,398.29 L 627.83,399.29 L 624.71,399.32 L 624.56,400.02 L 619.38,399.14 L 629.29,400.92 L 625.91,401.31 L 624.04,400.87 L 623.05,400.98 L 625.19,401.43 L 624.71,401.71 L 630.01,402.07 L 629.66,402.54 L 631.05,402.59 L 630.54,403.07 L 631.73,403.88 L 630.57,404.57 Z M 634.75,400.71 L 632.90,400.15 L 630.15,400.56 L 629.55,398.60 L 627.53,398.22 L 639.83,398.20 L 642.72,399.54 L 640.19,401.27 L 638.10,400.99 L 638.42,400.54 L 637.49,400.18 L 635.81,400.90 L 633.07,400.76 L 634.75,400.71 Z M 603.62,399.42 L 604.17,400.09 L 602.73,400.48 L 602.22,400.03 L 602.10,400.51 L 601.92,399.92 L 602.50,399.64 L 601.62,399.19 L 600.16,399.78 L 600.00,399.22 L 596.77,399.14 L 597.79,398.70 L 596.70,398.49 L 601.94,398.52 L 601.38,398.31 L 604.40,397.91 L 602.38,398.75 L 599.99,398.89 L 604.88,399.00 L 605.04,399.45 L 603.62,399.42 Z M 609.05,398.39 L 610.30,398.31 L 609.46,397.86 L 611.80,398.36 L 611.63,397.68 L 618.19,398.42 L 609.05,398.39 Z M 601.72,397.95 L 599.79,397.75 L 601.42,397.41 L 603.57,397.52 L 601.72,397.95 Z M 593.61,397.68 L 592.77,398.41 L 592.96,397.98 L 592.17,398.31 L 591.51,397.80 L 594.93,397.41 L 597.88,398.14 L 593.61,397.68 Z M 585.26,396.77 L 584.02,395.89 L 584.90,395.76 L 585.85,396.36 L 585.26,396.77 Z M 579.76,394.12 L 578.94,393.43 L 580.40,393.12 L 581.28,393.34 L 579.76,394.12 Z M 605.13,392.17 L 605.93,392.55 L 604.53,392.80 L 602.42,392.06 L 605.13,392.17 Z M 582.83,391.84 L 581.73,392.69 L 579.40,392.62 L 581.78,391.28 L 582.83,391.84 Z M 571.54,391.68 L 568.10,391.23 L 569.45,390.83 L 571.54,391.68 Z M 589.74,390.22 L 591.47,390.17 L 592.25,391.15 L 592.22,390.44 L 592.93,390.45 L 594.28,392.14 L 594.76,391.34 L 595.05,391.91 L 595.55,391.22 L 596.66,391.42 L 596.13,392.29 L 596.80,392.00 L 596.97,392.80 L 596.20,393.33 L 595.02,393.06 L 595.62,393.71 L 594.44,393.65 L 592.69,393.06 L 594.38,392.51 L 592.08,392.54 L 592.01,391.54 L 590.95,391.78 L 590.55,392.84 L 589.92,392.51 L 590.47,392.12 L 589.28,392.53 L 588.72,391.99 L 589.52,391.28 L 589.74,390.22 Z M 583.79,391.73 L 584.74,391.57 L 584.02,391.12 L 582.85,391.39 L 582.22,390.07 L 584.48,390.51 L 585.86,389.44 L 586.95,390.43 L 587.64,389.80 L 589.27,390.04 L 587.65,390.63 L 588.71,390.52 L 587.92,391.06 L 589.28,391.37 L 587.95,391.98 L 585.79,390.76 L 588.20,392.52 L 586.73,392.95 L 587.21,393.34 L 585.37,393.23 L 586.33,392.51 L 583.79,391.73 Z M 603.22,389.72 L 604.49,390.87 L 603.37,391.13 L 600.69,390.24 L 602.19,392.44 L 598.91,391.57 L 598.23,389.36 L 601.43,389.54 L 600.19,388.21 L 602.25,387.07 L 603.19,387.48 L 603.22,389.72 Z M 565.40,386.64 L 565.62,386.76 L 563.75,387.29 L 563.24,386.79 L 565.40,386.64 Z M 567.69,386.38 L 569.05,386.82 L 568.01,387.16 L 564.27,386.04 L 566.93,386.50 L 566.72,385.65 L 569.05,385.87 L 567.69,386.38 Z M 577.85,390.83 L 575.43,391.73 L 573.51,391.39 L 575.98,391.12 L 575.00,390.92 L 576.37,390.89 L 575.35,390.28 L 577.73,389.50 L 575.92,389.16 L 573.53,389.61 L 572.96,389.12 L 572.40,390.11 L 573.19,390.53 L 572.47,390.95 L 570.02,390.43 L 570.86,389.80 L 570.00,388.55 L 570.76,388.33 L 566.73,388.66 L 567.98,388.21 L 566.46,387.50 L 568.55,387.09 L 571.24,387.93 L 574.16,387.91 L 572.67,387.78 L 573.27,387.26 L 570.60,387.67 L 570.56,387.05 L 568.73,386.40 L 572.71,386.82 L 571.57,385.93 L 573.17,385.64 L 573.59,386.52 L 573.43,385.82 L 574.62,385.98 L 574.96,388.05 L 575.74,387.10 L 575.26,386.19 L 576.70,386.71 L 577.35,387.98 L 577.41,386.87 L 579.84,387.19 L 580.61,387.66 L 579.60,387.99 L 579.96,388.55 L 580.90,388.10 L 583.62,389.00 L 582.32,389.65 L 580.68,389.38 L 581.23,389.91 L 580.35,389.80 L 580.35,390.39 L 581.40,390.92 L 579.24,390.50 L 579.08,391.26 L 577.85,390.83 Z M 561.31,384.54 L 559.17,385.04 L 559.39,384.79 L 561.31,384.54 Z M 568.74,382.16 L 567.78,381.58 L 564.19,381.80 L 566.50,381.06 L 568.57,381.41 L 568.74,382.16 Z M 572.56,385.40 L 566.82,385.09 L 567.86,384.87 L 563.38,382.98 L 560.99,383.36 L 559.10,382.81 L 558.29,383.30 L 553.27,380.52 L 554.15,380.24 L 557.68,381.47 L 557.82,382.08 L 561.12,382.08 L 566.30,383.70 L 566.37,382.99 L 567.61,384.63 L 568.27,383.59 L 569.99,384.45 L 569.36,384.71 L 572.56,385.40 Z M 569.32,380.30 L 568.96,380.30 L 569.29,380.13 L 569.32,380.30 Z M 562.52,380.13 L 563.79,379.23 L 562.20,379.68 L 563.47,378.85 L 560.55,380.12 L 559.85,379.14 L 562.64,378.30 L 561.64,377.87 L 565.18,377.66 L 565.74,378.32 L 563.88,380.07 L 562.52,380.13 Z M 552.51,377.22 L 551.40,376.02 L 555.66,376.37 L 555.09,377.58 L 552.51,377.22 Z M 563.47,377.43 L 564.03,377.12 L 560.91,375.73 L 564.14,376.33 L 564.66,377.46 L 563.47,377.43 Z M 559.14,376.95 L 559.58,376.21 L 560.77,376.39 L 559.41,375.89 L 560.29,375.95 L 557.14,375.42 L 558.66,375.09 L 562.74,377.01 L 560.57,377.61 L 559.14,376.95 Z M 552.76,375.38 L 555.00,374.89 L 554.18,375.70 L 552.80,375.83 L 552.76,375.38 Z M 557.48,375.00 L 557.26,374.72 L 557.81,374.83 L 557.48,375.00 Z M 556.02,374.41 L 553.44,375.06 L 555.67,373.73 L 556.02,374.41 Z M 565.54,376.34 L 560.94,374.45 L 560.89,373.78 L 564.50,374.86 L 565.54,376.34 Z M 551.57,375.29 L 552.89,374.44 L 552.17,374.34 L 553.26,373.02 L 555.03,373.05 L 553.27,374.72 L 551.57,375.29 Z M 549.01,373.51 L 549.26,372.55 L 550.57,372.10 L 549.01,373.51 Z M 556.15,371.99 L 560.87,373.37 L 559.73,373.97 L 556.94,373.11 L 556.15,371.99 Z M 563.86,372.85 L 562.68,371.63 L 563.71,372.16 L 564.43,372.22 L 563.86,372.85 Z M 550.78,375.33 L 550.97,374.83 L 550.21,375.22 L 550.66,374.67 L 549.54,374.23 L 550.73,373.78 L 549.94,373.73 L 550.86,372.87 L 551.93,373.39 L 552.32,373.05 L 551.27,371.57 L 551.93,371.27 L 553.12,372.60 L 550.78,375.33 Z M 561.82,372.74 L 559.19,371.92 L 561.16,371.16 L 561.03,370.61 L 562.64,372.27 L 561.82,372.74 Z M 559.22,369.57 L 559.03,368.60 L 560.07,368.57 L 560.68,369.32 L 560.60,369.88 L 559.22,369.57 Z M 550.18,369.60 L 549.02,370.09 L 548.50,369.71 L 548.72,370.83 L 546.73,371.35 L 548.19,369.29 L 547.81,368.72 L 548.90,368.43 L 548.64,369.22 L 549.18,368.64 L 550.18,369.60 Z M 564.39,369.25 L 562.91,368.71 L 563.56,368.34 L 564.39,368.34 L 564.39,369.25 Z M 552.71,369.75 L 550.09,369.95 L 552.71,368.92 L 550.79,369.03 L 552.77,367.95 L 555.53,368.27 L 554.71,368.37 L 555.67,369.21 L 555.08,369.49 L 554.00,368.54 L 552.71,369.75 Z M 551.80,367.52 L 550.13,367.64 L 550.73,367.09 L 551.80,367.52 Z M 556.94,367.91 L 554.96,366.89 L 556.34,366.41 L 555.95,367.02 L 557.11,367.14 L 556.94,367.91 Z M 558.68,368.15 L 557.90,365.63 L 559.70,367.66 L 558.68,368.15 Z M 557.36,366.94 L 556.46,366.19 L 553.56,367.09 L 554.08,366.30 L 552.99,366.18 L 552.32,366.86 L 551.61,366.64 L 552.25,366.03 L 550.76,365.83 L 551.49,365.30 L 554.72,365.62 L 554.52,365.00 L 555.50,364.75 L 554.31,364.02 L 557.34,364.97 L 557.36,366.94 Z M 550.84,364.02 L 552.17,364.19 L 551.52,363.60 L 552.64,363.52 L 553.68,364.63 L 552.96,364.63 L 554.31,364.80 L 552.90,365.28 L 551.17,365.02 L 552.01,364.80 L 550.84,364.02 Z M 549.39,364.48 L 549.42,363.43 L 550.54,363.45 L 550.58,364.59 L 549.39,364.48 Z M 554.99,362.68 L 554.16,362.79 L 554.08,362.29 L 554.99,362.68 Z M 547.86,362.96 L 546.35,362.66 L 547.22,363.15 L 546.99,364.46 L 545.00,364.30 L 545.64,363.58 L 544.40,363.38 L 546.19,362.90 L 544.92,362.12 L 548.90,362.12 L 547.86,362.96 Z M 555.23,363.25 L 557.11,362.40 L 554.16,361.95 L 557.54,361.81 L 559.21,363.60 L 557.03,363.41 L 559.88,364.46 L 559.67,365.00 L 558.86,364.50 L 558.38,364.89 L 555.23,363.25 Z M 553.43,361.13 L 555.66,361.21 L 553.62,362.08 L 552.89,362.01 L 553.43,361.13 Z M 547.78,361.65 L 546.61,361.36 L 548.10,360.56 L 545.08,361.06 L 545.83,359.42 L 547.25,359.39 L 546.27,359.73 L 548.28,360.18 L 548.98,359.23 L 545.72,358.42 L 548.54,358.27 L 549.76,359.12 L 550.91,358.75 L 549.54,359.62 L 552.70,359.12 L 552.56,359.84 L 549.90,360.46 L 547.78,361.65 Z M 542.99,356.70 L 544.43,355.81 L 543.24,355.14 L 544.51,354.50 L 546.24,354.93 L 548.27,357.33 L 546.42,356.96 L 546.11,355.82 L 542.99,356.70 Z M 545.38,353.76 L 545.25,354.18 L 544.04,353.65 L 544.31,353.05 L 545.38,353.76 Z M 551.12,352.25 L 549.70,351.31 L 548.02,351.37 L 548.98,351.03 L 547.63,351.14 L 548.90,350.14 L 551.49,350.59 L 551.12,352.25 Z M 542.69,351.64 L 546.45,349.88 L 546.70,351.05 L 543.88,351.98 L 542.69,351.64 Z M 547.16,350.48 L 546.69,349.59 L 546.03,349.58 L 544.57,350.28 L 544.92,349.58 L 543.43,349.86 L 542.76,349.24 L 545.79,348.57 L 545.47,349.02 L 546.81,348.87 L 547.86,350.08 L 547.16,350.48 Z M 547.78,349.79 L 546.79,348.30 L 549.31,348.91 L 549.14,349.72 L 547.78,349.79 Z M 546.91,355.11 L 547.63,354.49 L 546.67,354.43 L 547.39,353.98 L 546.47,354.12 L 545.00,352.46 L 545.91,352.25 L 548.43,354.04 L 546.61,352.11 L 548.60,353.04 L 549.29,352.98 L 548.19,352.37 L 549.94,352.08 L 549.29,351.59 L 551.61,352.93 L 552.64,350.81 L 550.89,350.02 L 552.48,350.02 L 552.42,349.56 L 550.73,349.86 L 550.19,349.08 L 551.85,348.68 L 549.69,348.47 L 551.05,348.57 L 550.25,348.13 L 553.89,347.36 L 554.75,347.71 L 554.61,348.79 L 555.67,347.57 L 555.44,349.16 L 556.46,349.53 L 555.83,350.19 L 556.81,352.42 L 554.96,355.77 L 556.08,355.01 L 556.99,355.32 L 557.07,356.02 L 555.76,356.04 L 556.94,356.38 L 556.71,357.16 L 555.91,356.94 L 556.48,357.65 L 554.88,357.38 L 555.76,358.06 L 553.06,358.53 L 552.04,358.03 L 554.08,357.52 L 551.37,357.50 L 553.52,356.82 L 552.25,356.77 L 553.00,356.21 L 551.73,356.45 L 551.62,354.96 L 553.76,355.16 L 551.68,354.31 L 553.35,354.18 L 554.48,352.81 L 552.56,353.04 L 553.29,353.42 L 551.01,354.38 L 550.51,353.86 L 549.86,354.76 L 550.24,355.46 L 550.92,355.18 L 550.25,357.27 L 546.91,355.11 Z M 549.10,348.41 L 547.51,348.21 L 547.47,348.07 L 549.38,347.01 L 549.10,348.41 Z M 550.25,347.01 L 552.40,347.19 L 550.50,347.85 L 550.25,347.01 Z M 546.92,347.74 L 542.84,348.17 L 542.91,347.53 L 544.47,347.67 L 546.43,346.91 L 546.92,347.74 Z M 544.07,347.53 L 543.32,347.21 L 545.25,346.80 L 542.52,346.57 L 543.32,345.40 L 546.37,345.31 L 546.55,346.32 L 544.07,347.53 Z M 556.06,345.15 L 558.47,345.73 L 557.00,346.11 L 556.06,345.15 Z M 559.91,345.43 L 559.07,344.90 L 561.32,345.29 L 559.91,345.43 Z M 557.82,344.84 L 557.42,344.38 L 558.34,344.11 L 559.39,345.45 L 556.23,344.68 L 557.82,344.84 Z M 556.02,347.25 L 554.93,347.47 L 550.41,346.74 L 549.98,345.93 L 552.16,345.00 L 552.91,345.78 L 553.66,345.52 L 552.53,344.62 L 553.42,342.85 L 555.19,344.89 L 554.16,345.23 L 555.02,346.41 L 556.19,346.57 L 556.02,347.25 Z M 555.92,343.41 L 554.97,343.74 L 555.50,342.82 L 557.66,343.89 L 555.67,344.45 L 555.92,343.41 Z M 548.98,343.95 L 547.39,342.39 L 552.64,343.25 L 552.21,344.75 L 550.01,345.44 L 548.50,344.26 L 548.98,343.95 Z M 547.76,347.58 L 547.08,346.96 L 546.67,344.67 L 543.93,345.06 L 546.35,344.28 L 544.05,344.45 L 545.33,343.45 L 544.09,343.67 L 543.96,342.28 L 546.43,341.97 L 549.40,345.96 L 547.76,347.58 Z M 548.42,340.96 L 552.83,340.30 L 552.29,341.89 L 553.54,342.69 L 549.76,341.72 L 547.22,342.05 L 548.42,340.96 Z M 556.15,341.16 L 557.76,340.45 L 559.10,340.83 L 558.62,340.26 L 564.21,340.91 L 562.88,341.53 L 556.15,341.16 Z M 546.39,340.06 L 546.23,339.68 L 549.30,339.23 L 549.68,339.79 L 548.94,340.05 L 550.09,340.23 L 547.73,340.65 L 548.25,340.46 L 546.39,340.06 Z M 550.86,340.00 L 549.74,339.30 L 550.36,339.08 L 551.70,339.49 L 550.86,340.00 Z M 557.84,334.06 L 558.32,334.33 L 556.71,335.06 L 556.54,334.30 L 557.84,334.06 Z M 562.28,334.08 L 560.29,335.09 L 559.36,334.69 L 559.93,333.83 L 562.28,334.08 Z M 565.66,326.42 L 564.60,327.18 L 562.68,326.11 L 563.19,325.65 L 565.66,326.42 Z M 565.67,325.70 L 564.09,325.55 L 564.64,324.73 L 565.67,325.70 Z M 552.92,325.65 L 551.30,326.41 L 549.50,326.32 L 549.39,325.78 L 551.64,325.69 L 552.01,325.55 L 549.45,325.44 L 550.02,325.27 L 549.11,324.53 L 551.72,324.98 L 550.71,324.44 L 553.24,323.99 L 552.92,325.65 Z M 565.54,324.65 L 564.43,324.55 L 562.75,325.33 L 563.02,324.54 L 564.99,323.88 L 565.54,324.65 Z M 562.28,323.77 L 561.81,324.86 L 560.89,323.64 L 562.84,323.49 L 562.28,323.77 Z M 553.25,323.11 L 551.77,322.50 L 552.24,322.32 L 553.25,323.11 Z M 555.20,323.40 L 554.02,323.47 L 554.09,322.47 L 555.55,322.10 L 555.20,323.40 Z M 560.66,322.30 L 561.40,321.85 L 563.03,322.23 L 562.91,323.10 L 561.16,323.04 L 560.66,322.30 Z M 557.09,321.12 L 558.81,321.45 L 559.18,322.92 L 556.88,323.74 L 556.15,323.38 L 557.09,321.12 Z M 566.82,321.59 L 565.70,323.55 L 564.10,322.65 L 565.87,320.98 L 566.82,321.59 Z M 564.12,321.29 L 563.49,321.99 L 561.64,321.63 L 560.33,322.10 L 561.25,320.87 L 564.12,321.29 Z M 555.95,321.04 L 556.81,320.91 L 556.16,322.21 L 555.95,321.04 Z M 562.90,320.92 L 561.72,320.62 L 562.67,320.40 L 564.03,320.64 L 562.90,320.92 Z M 558.38,320.59 L 557.60,320.68 L 555.88,319.82 L 558.38,320.59 Z M 564.47,320.14 L 561.85,320.30 L 560.05,319.48 L 561.17,319.08 L 562.15,319.63 L 564.03,319.59 L 564.47,320.14 Z M 558.21,319.88 L 557.11,319.31 L 557.49,318.69 L 558.81,319.11 L 558.21,319.88 Z M 564.69,319.74 L 563.82,319.37 L 562.11,319.42 L 559.08,318.31 L 559.97,317.63 L 563.55,317.38 L 565.31,318.35 L 564.69,319.74 Z M 560.09,316.32 L 563.00,317.02 L 557.84,317.52 L 560.09,316.32 Z M 561.16,316.24 L 559.81,315.85 L 562.04,315.57 L 562.44,315.88 L 561.16,316.24 Z M 563.68,315.54 L 564.75,316.85 L 563.35,316.84 L 562.80,315.71 L 563.68,315.54 Z M 550.00,316.64 L 548.60,316.78 L 548.06,315.85 L 549.30,315.76 L 550.00,316.64 Z M 566.32,316.04 L 564.90,315.82 L 564.99,315.43 L 566.58,315.35 L 566.32,316.04 Z M 557.42,316.26 L 555.86,315.33 L 557.03,315.13 L 558.02,315.85 L 557.42,316.26 Z M 556.54,314.96 L 554.21,314.74 L 554.75,314.35 L 556.54,314.96 Z M 563.43,314.93 L 558.98,315.83 L 557.18,314.87 L 558.88,314.19 L 562.84,314.40 L 563.43,314.93 Z M 553.30,314.70 L 552.65,314.77 L 552.40,314.01 L 553.30,314.70 Z M 566.74,315.04 L 564.87,315.32 L 564.06,314.00 L 565.71,313.72 L 566.74,315.04 Z M 560.44,313.74 L 557.70,313.69 L 558.57,313.35 L 560.44,313.74 Z M 560.32,313.01 L 560.05,312.79 L 562.32,313.12 L 562.60,313.71 L 560.44,313.51 L 561.57,313.34 L 560.32,313.01 Z M 555.91,313.57 L 555.70,312.98 L 558.97,312.65 L 559.40,313.09 L 557.11,313.40 L 555.91,313.57 Z M 563.53,313.08 L 563.02,312.51 L 563.29,312.29 L 564.43,312.73 L 563.53,313.08 Z M 570.81,314.49 L 570.35,313.69 L 572.08,313.72 L 570.80,313.45 L 570.75,312.84 L 573.19,313.23 L 572.56,312.56 L 573.59,312.23 L 574.47,312.84 L 573.83,313.45 L 575.09,312.84 L 576.85,313.58 L 575.78,314.46 L 573.83,314.18 L 575.50,315.06 L 570.62,316.93 L 568.87,315.98 L 571.20,315.80 L 569.04,315.70 L 568.17,314.51 L 569.17,314.07 L 570.81,314.49 Z M 564.43,312.40 L 566.01,312.14 L 565.14,312.45 L 565.72,312.82 L 564.43,312.40 Z M 562.84,312.17 L 562.68,312.95 L 560.68,311.95 L 562.84,312.17 Z M 570.72,311.78 L 571.55,312.28 L 571.56,312.34 L 570.56,312.45 L 570.72,311.78 Z M 562.77,311.96 L 562.28,311.64 L 564.25,311.45 L 562.77,311.96 Z M 558.46,311.39 L 558.62,311.71 L 557.23,311.60 L 558.46,311.39 Z M 565.76,311.25 L 565.87,311.44 L 565.22,311.75 L 565.76,311.25 Z M 561.24,310.50 L 563.23,311.23 L 561.88,311.38 L 561.78,311.95 L 560.73,311.14 L 561.24,310.50 Z M 558.07,310.83 L 557.51,310.59 L 557.83,310.47 L 558.77,310.50 L 558.07,310.83 Z M 563.78,310.83 L 561.80,310.45 L 562.54,310.14 L 563.78,310.83 Z M 558.77,309.38 L 559.57,309.44 L 558.52,309.55 L 558.77,309.38 Z M 566.19,309.33 L 566.25,310.29 L 565.14,309.67 L 564.95,308.91 L 566.19,309.33 Z M 570.31,308.76 L 571.76,308.32 L 571.85,309.42 L 570.31,308.76 Z M 563.56,307.36 L 564.75,308.38 L 562.82,307.99 L 562.28,308.21 L 563.08,308.55 L 562.04,308.77 L 560.07,308.27 L 563.56,307.36 Z M 553.41,305.46 L 555.51,306.26 L 553.18,306.66 L 552.48,306.32 L 553.41,305.46 Z M 567.19,300.49 L 569.37,301.08 L 568.38,301.10 L 566.50,300.63 L 567.19,300.49 Z M 566.44,298.21 L 564.84,297.89 L 566.39,297.64 L 566.44,298.21 Z M 566.49,296.69 L 566.10,296.06 L 567.30,296.10 L 568.82,297.29 L 566.49,296.69 Z M 571.97,295.57 L 571.36,295.04 L 571.92,295.28 L 572.59,295.03 L 571.97,295.57 Z M 578.05,293.86 L 578.73,293.44 L 579.31,293.61 L 578.92,294.16 L 578.05,293.86 Z M 557.26,303.09 L 559.32,301.34 L 560.46,298.65 L 559.79,296.53 L 560.14,294.98 L 561.37,294.08 L 561.89,292.10 L 561.25,291.44 L 562.95,291.25 L 563.20,291.74 L 561.92,291.76 L 564.66,292.22 L 565.58,291.46 L 567.05,291.43 L 567.77,291.77 L 566.89,292.57 L 568.31,293.38 L 567.77,293.96 L 569.21,295.28 L 565.87,295.90 L 565.61,296.70 L 566.50,297.18 L 564.85,297.36 L 564.75,296.74 L 564.03,297.20 L 564.21,297.97 L 567.89,299.68 L 567.69,300.16 L 565.39,300.07 L 567.77,302.19 L 564.60,302.11 L 565.84,304.11 L 563.76,304.60 L 557.26,303.09 Z M 572.61,290.96 L 572.83,290.88 L 573.58,291.75 L 572.59,291.74 L 572.61,290.96 Z M 573.93,394.26 L 574.15,394.36 L 572.47,394.59 L 573.93,394.26 Z M 604.83,391.07 L 605.01,391.67 L 602.50,391.38 L 604.83,391.07 Z M 601.28,381.23 L 599.30,381.70 L 599.53,381.59 L 601.28,381.23 Z M 557.41,378.60 L 557.93,379.44 L 556.39,379.01 L 557.41,378.60 Z M 556.73,377.58 L 556.39,377.96 L 555.76,377.37 L 556.45,376.89 L 556.73,377.58 Z M 565.26,373.14 L 565.32,374.34 L 562.23,373.06 L 565.26,373.14 Z M 558.54,369.45 L 558.43,369.63 L 557.38,369.60 L 557.82,368.98 L 558.54,369.45 Z M 551.65,360.50 L 550.64,361.62 L 548.37,361.86 L 551.65,360.50 Z M 556.54,354.04 L 557.03,353.43 L 558.64,354.43 L 557.04,354.97 L 556.54,354.04 Z M 555.87,340.31 L 555.89,340.76 L 554.50,341.20 L 554.44,340.18 L 555.87,340.31 Z M 548.35,331.07 L 548.83,331.89 L 546.39,331.27 L 548.35,331.07 Z M 559.31,304.51 L 559.00,304.63 L 558.69,304.55 L 559.04,304.00 L 559.31,304.51 Z M 565.98,302.75 L 565.93,303.14 L 565.26,302.91 L 565.98,302.75 Z M 574.42,298.90 L 574.55,299.41 L 574.12,299.59 L 573.50,298.67 L 574.42,298.90 Z M 570.81,298.15 L 570.83,298.31 L 569.46,298.13 L 570.81,298.15 Z M 563.01,263.81 L 562.53,263.03 L 562.79,263.11 L 563.01,263.81 Z M 567.53,252.14 L 568.42,252.82 L 567.58,252.99 L 567.53,252.14 Z" fill="#4A90D9" stroke="#1a5fa8" stroke-width="1.2"/>
<path d="M 615.64,82.99 L 614.24,83.12 L 615.04,81.59 L 612.14,81.24 L 610.54,79.75 L 609.90,80.36 L 610.75,80.82 L 608.15,80.20 L 609.11,77.97 L 611.31,79.24 L 609.06,76.70 L 610.71,76.15 L 609.81,75.81 L 611.74,75.77 L 611.72,75.31 L 614.99,77.40 L 615.80,77.23 L 616.95,78.80 L 618.27,78.85 L 619.88,79.98 L 619.86,80.86 L 622.77,81.30 L 621.13,82.03 L 621.84,83.21 L 625.02,83.55 L 624.95,84.15 L 620.60,85.10 L 621.64,85.32 L 621.68,86.38 L 618.98,85.52 L 619.73,84.27 L 619.14,83.65 L 621.92,83.51 L 619.91,82.40 L 618.47,81.99 L 618.78,83.40 L 616.67,83.65 L 615.64,82.99 Z" fill="#A8C8E8" stroke="none"/>
<path d="M 593.58,330.39 L 586.88,329.41 L 582.42,330.01 L 576.39,332.38 L 575.46,333.70 L 574.31,333.91 L 575.66,331.86 L 577.92,330.87 L 576.45,329.60 L 577.25,329.17 L 577.81,330.52 L 579.80,330.63 L 587.74,328.66 L 585.54,327.84 L 588.16,328.39 L 589.92,327.89 L 589.20,328.45 L 594.78,329.60 L 593.58,330.39 Z" fill="#A8C8E8" stroke="none"/>
<path d="M 573.45,286.71 L 574.17,286.21 L 573.07,285.91 L 575.40,284.47 L 577.25,284.91 L 578.67,286.56 L 576.81,286.49 L 574.75,287.48 L 573.45,286.71 Z" fill="#A8C8E8" stroke="none"/>
<path d="M 585.25,360.11 L 581.99,360.68 L 576.75,360.17 L 573.30,360.87 L 573.90,362.00 L 576.78,361.62 L 573.80,363.55 L 574.47,362.24 L 572.75,361.90 L 571.96,360.67 L 570.09,360.95 L 570.72,360.22 L 573.55,360.61 L 575.42,360.07 L 572.71,359.87 L 571.55,359.05 L 570.99,359.58 L 569.76,359.84 L 570.88,358.81 L 570.00,358.89 L 570.25,358.08 L 571.56,358.61 L 570.96,357.88 L 571.88,357.83 L 573.66,359.70 L 584.02,359.00 L 585.25,360.11 Z" fill="#A8C8E8" stroke="none"/>
<path d="M 573.75,363.35 L 573.76,363.39 L 573.75,363.41 L 573.75,363.35 Z" fill="#A8C8E8" stroke="none"/>
<path d="M 581.48,278.87 L 582.06,279.29 L 579.16,279.18 L 578.66,278.51 L 581.31,277.56 L 582.14,278.74 L 581.48,278.87 Z" fill="#A8C8E8" stroke="none"/>
<path d="M 576.50,354.99 L 573.06,355.55 L 574.71,355.10 L 573.28,354.00 L 574.72,353.19 L 577.25,354.23 L 582.87,354.98 L 584.18,355.85 L 583.13,356.36 L 576.50,354.99 Z" fill="#A8C8E8" stroke="none"/>
<path d="M 578.08,282.12 L 581.17,281.95 L 580.75,282.28 L 578.08,282.12 Z" fill="#A8C8E8" stroke="none"/>
<path d="M 624.79,322.86 L 621.87,322.73 L 620.19,321.11 L 620.38,319.68 L 621.50,319.65 L 621.22,320.65 L 622.12,321.17 L 622.59,320.41 L 623.66,320.47 L 624.79,322.86 Z" fill="#A8C8E8" stroke="none"/>
<path d="M 584.42,270.95 L 582.61,270.78 L 582.97,270.17 L 585.13,270.40 L 584.42,270.95 Z" fill="#A8C8E8" stroke="none"/>
<path d="M 576.04,348.20 L 578.30,348.32 L 578.05,346.01 L 577.14,345.65 L 577.96,345.43 L 580.19,348.91 L 579.09,348.32 L 578.11,348.81 L 581.83,349.40 L 579.88,350.64 L 582.42,351.17 L 579.39,351.04 L 579.66,349.63 L 578.49,350.61 L 578.36,349.18 L 575.66,348.45 L 572.80,349.81 L 573.51,348.94 L 572.79,348.58 L 573.81,348.11 L 571.82,347.46 L 571.76,347.23 L 575.02,347.91 L 575.66,346.80 L 575.09,345.52 L 573.93,345.31 L 573.67,345.01 L 575.85,345.59 L 576.04,348.20 Z M 574.86,348.22 L 574.20,348.24 L 574.44,348.40 L 574.86,348.22 Z" fill="#A8C8E8" stroke="none"/>
<path d="M 589.83,285.25 L 590.08,285.46 L 588.88,286.01 L 588.63,285.97 L 589.55,285.37 L 587.52,284.99 L 590.22,284.60 L 587.60,282.74 L 592.27,284.26 L 590.83,284.52 L 592.06,285.25 L 594.85,285.39 L 593.34,285.88 L 589.83,285.25 Z" fill="#A8C8E8" stroke="none"/>
<path d="M 750.38,94.70 L 749.34,93.60 L 751.10,93.24 L 750.38,94.70 Z" fill="#A8C8E8" stroke="none"/>
<path d="M 585.54,316.02 L 586.77,316.36 L 588.40,316.12 L 589.01,316.15 L 589.35,316.35 L 586.22,316.45 L 585.54,316.02 Z" fill="#A8C8E8" stroke="none"/>
<path d="M 591.20,317.10 L 589.52,316.35 L 592.62,317.13 L 591.20,317.10 Z" fill="#A8C8E8" stroke="none"/>
<path d="M 709.77,94.15 L 709.19,93.29 L 708.87,94.01 L 707.38,93.65 L 709.58,93.02 L 709.77,94.15 Z" fill="#A8C8E8" stroke="none"/>
<path d="M 757.47,183.42 L 756.75,183.19 L 757.67,181.96 L 759.84,182.07 L 757.47,183.42 Z" fill="#A8C8E8" stroke="none"/>
<path d="M 759.91,181.62 L 759.30,181.47 L 759.17,180.75 L 760.95,180.37 L 759.91,181.62 Z" fill="#A8C8E8" stroke="none"/>
<path d="M 655.82,58.08 L 654.90,58.07 L 654.68,56.76 L 656.21,56.64 L 655.82,58.08 Z" fill="#A8C8E8" stroke="none"/>
<path d="M 660.66,57.45 L 659.67,56.92 L 659.47,55.13 L 660.47,55.36 L 660.66,57.45 Z" fill="#A8C8E8" stroke="none"/>
<path d="M 618.44,321.94 L 616.92,322.22 L 617.52,320.22 L 616.33,319.64 L 618.76,319.61 L 618.44,321.94 Z" fill="#A8C8E8" stroke="none"/>
<path d="M 595.97,349.03 L 594.95,350.00 L 592.41,349.54 L 592.88,348.54 L 595.10,348.31 L 595.97,349.03 Z" fill="#A8C8E8" stroke="none"/>
<path d="M 582.91,283.85 L 579.43,283.83 L 577.19,283.06 L 582.91,283.85 Z" fill="#A8C8E8" stroke="none"/>
<path d="M 625.69,265.70 L 623.36,264.92 L 622.06,265.57 L 620.74,265.10 L 621.98,264.21 L 625.69,265.70 Z" fill="#A8C8E8" stroke="none"/>
<path d="M 783.13,157.86 L 781.68,157.70 L 781.98,157.21 L 780.70,157.69 L 779.58,156.69 L 778.53,157.35 L 776.68,157.41 L 775.63,156.68 L 775.81,156.20 L 776.67,157.19 L 777.85,157.24 L 778.86,156.61 L 778.25,156.80 L 777.55,156.54 L 779.74,156.39 L 776.95,154.79 L 782.81,157.50 L 783.13,157.86 Z" fill="#A8C8E8" stroke="none"/>
<path d="M 792.71,152.41 L 790.61,153.09 L 792.24,154.12 L 790.09,153.53 L 789.80,154.76 L 791.35,155.29 L 790.21,155.42 L 790.85,155.91 L 789.95,156.25 L 792.46,156.59 L 790.12,156.90 L 790.78,157.29 L 789.23,157.04 L 790.36,158.00 L 786.91,158.17 L 787.36,157.30 L 786.61,156.91 L 787.84,156.96 L 788.79,155.94 L 785.23,155.42 L 786.35,154.84 L 788.48,155.28 L 788.77,154.21 L 784.56,153.83 L 789.02,153.77 L 789.22,152.86 L 787.11,152.37 L 789.92,152.18 L 790.05,151.39 L 788.89,151.09 L 790.04,150.95 L 789.33,149.87 L 790.46,150.12 L 791.01,149.39 L 789.90,148.45 L 791.22,147.09 L 791.79,152.17 L 792.71,152.41 Z" fill="#A8C8E8" stroke="none"/>
<path d="M 777.34,215.86 L 775.55,215.84 L 775.63,216.28 L 774.54,216.24 L 774.02,215.95 L 774.51,217.34 L 773.31,216.89 L 773.95,217.90 L 772.44,216.85 L 772.52,218.01 L 769.29,217.84 L 769.17,218.63 L 771.33,219.35 L 768.94,218.95 L 768.86,219.69 L 767.62,218.51 L 766.44,218.81 L 765.64,218.45 L 761.69,219.13 L 761.64,217.90 L 762.57,218.57 L 762.77,217.83 L 763.05,218.40 L 764.28,216.95 L 763.67,218.50 L 764.68,218.23 L 766.31,218.61 L 767.38,216.50 L 766.85,217.76 L 767.78,218.18 L 769.59,216.65 L 770.29,217.09 L 770.98,216.31 L 771.29,216.78 L 771.73,216.00 L 773.23,216.67 L 773.16,215.55 L 774.51,216.06 L 774.47,215.17 L 776.21,215.73 L 777.35,215.24 L 777.34,215.86 Z" fill="#A8C8E8" stroke="none"/>
<path d="M 618.99,273.46 L 616.13,273.99 L 618.09,272.96 L 617.01,272.51 L 617.90,272.12 L 619.54,272.36 L 620.82,271.82 L 619.16,271.82 L 622.18,270.88 L 622.92,270.80 L 622.47,271.38 L 623.76,271.18 L 623.13,272.26 L 621.93,272.05 L 618.99,273.46 Z" fill="#A8C8E8" stroke="none"/>
<path d="M 799.84,224.59 L 798.83,220.18 L 800.00,219.91 L 800.00,224.50 L 799.84,224.59 Z" fill="#A8C8E8" stroke="none"/>
<path d="M 698.56,202.20 L 694.23,202.28 L 692.89,203.07 L 689.56,201.06 L 693.31,200.23 L 693.76,199.54 L 696.89,199.75 L 698.90,200.63 L 698.56,202.20 Z" fill="#A8C8E8" stroke="none"/>
<path d="M 644.65,106.65 L 643.35,107.47 L 642.40,104.99 L 640.92,104.25 L 641.73,103.51 L 640.40,102.94 L 642.65,100.72 L 642.47,99.65 L 640.72,98.82 L 641.93,98.00 L 642.91,98.23 L 642.28,99.29 L 643.03,99.85 L 642.08,103.05 L 644.63,105.52 L 644.65,106.65 Z" fill="#A8C8E8" stroke="none"/>
</svg>