<svg xmlns="http://www.w3.org/2000/svg" width="800" height="500" viewBox="0 0 800 500">
<rect width="800" height="500" fill="#A8C8E8"/>
<path d="M 690.63,486.21 L 702.93,481.50 L 721.47,479.26 L 750.15,465.81 L 748.00,456.85 L 762.88,441.18 L 757.76,423.70 L 771.06,409.07 L 771.12,392.43 L 800.00,370.65 L 800.00,500.00 L 673.71,500.00 L 690.63,486.21 Z" fill="#E8E0D0" stroke="#B8B0A0" stroke-width="0.5"/>
<path d="M 530.56,20.77 L 495.81,40.74 L 484.37,53.61 L 470.84,56.61 L 481.09,76.71 L 463.07,76.57 L 456.45,80.98 L 431.39,82.59 L 428.98,85.77 L 413.13,89.33 L 407.39,94.21 L 380.43,92.78 L 340.31,86.00 L 290.61,85.71 L 254.55,89.13 L 220.16,101.40 L 160.98,98.06 L 123.68,87.77 L 105.42,86.53 L 77.36,92.89 L 64.77,92.76 L 56.36,96.08 L 47.81,96.09 L 6.57,77.81 L 0.00,78.21 L 0.00,0.00 L 577.18,0.00 L 530.56,20.77 Z" fill="#E8E0D0" stroke="#B8B0A0" stroke-width="0.5"/>
<path d="M 36.08,444.66 L 21.15,450.84 L 17.53,444.17 L 31.20,440.37 L 36.08,444.66 Z M 77.97,409.62 L 73.50,408.69 L 76.92,405.22 L 81.96,405.70 L 77.97,409.62 Z" fill="#E8E0D0" stroke="#B8B0A0" stroke-width="0.5"/>
<path d="M 797.08,352.17 L 782.56,353.73 L 778.21,356.40 L 771.75,354.04 L 756.17,354.68 L 752.98,352.57 L 731.27,350.08 L 702.06,354.74 L 678.04,355.00 L 666.74,365.17 L 667.63,373.93 L 648.18,390.05 L 640.10,371.10 L 630.92,366.78 L 622.58,366.50 L 577.07,345.23 L 573.24,341.39 L 583.88,340.38 L 577.47,338.77 L 571.16,330.80 L 553.19,325.09 L 549.39,310.26 L 540.36,306.81 L 546.70,301.21 L 546.70,291.10 L 531.75,286.34 L 556.76,278.70 L 586.09,253.29 L 599.66,249.40 L 602.80,245.75 L 631.65,246.71 L 660.59,241.67 L 661.98,238.63 L 672.15,236.27 L 676.40,241.47 L 687.33,245.26 L 743.03,233.12 L 800.00,231.53 L 800.00,353.40 L 797.08,352.17 Z" fill="#C8D8E8" stroke="#8BAABB" stroke-width="0.8"/>
<path d="M 481.09,76.71 L 470.84,56.61 L 484.37,53.61 L 495.81,40.74 L 530.56,20.77 L 577.81,0.00 L 800.00,0.00 L 800.00,231.53 L 743.03,233.12 L 688.83,245.19 L 676.40,241.47 L 672.15,236.27 L 661.98,238.63 L 660.59,241.67 L 631.65,246.71 L 602.80,245.75 L 608.11,238.39 L 600.18,237.10 L 583.48,219.61 L 529.30,200.76 L 503.19,187.92 L 518.40,178.61 L 556.78,180.15 L 615.80,178.25 L 580.11,163.23 L 572.93,145.67 L 580.36,136.15 L 575.87,132.05 L 578.76,129.25 L 574.76,121.00 L 564.93,119.14 L 560.56,106.41 L 542.63,102.34 L 533.76,93.75 L 510.81,93.84 L 481.09,76.71 Z" fill="#C8D8E8" stroke="#8BAABB" stroke-width="0.8"/>
<path d="M 771.12,392.43 L 771.06,409.07 L 757.76,423.70 L 762.88,441.18 L 748.00,456.85 L 750.15,465.81 L 721.47,479.26 L 702.93,481.50 L 690.63,486.21 L 673.71,500.00 L 534.42,500.00 L 535.74,497.62 L 530.29,495.59 L 536.68,493.85 L 538.27,490.04 L 532.04,479.49 L 538.42,467.93 L 527.42,463.66 L 516.97,463.95 L 512.79,459.06 L 495.63,457.12 L 501.47,452.95 L 498.23,446.13 L 503.04,441.92 L 511.53,436.75 L 527.95,434.51 L 537.00,426.52 L 524.97,420.59 L 522.98,415.10 L 515.98,413.44 L 493.26,412.27 L 476.94,416.40 L 451.39,417.13 L 457.96,414.92 L 450.06,407.95 L 452.17,399.54 L 460.77,392.40 L 534.72,393.19 L 543.11,391.09 L 556.27,395.01 L 562.26,393.63 L 564.56,396.63 L 585.36,395.72 L 593.47,398.95 L 602.92,397.46 L 617.46,398.66 L 637.41,403.06 L 641.04,406.25 L 646.84,404.06 L 640.72,397.38 L 642.08,392.72 L 650.00,390.70 L 667.63,373.93 L 666.74,365.17 L 675.38,355.73 L 714.27,353.54 L 731.27,350.08 L 752.98,352.57 L 756.17,354.68 L 771.75,354.04 L 778.21,356.40 L 782.56,353.73 L 797.08,352.17 L 800.00,353.40 L 800.00,370.65 L 771.12,392.43 Z" fill="#C8D8E8" stroke="#8BAABB" stroke-width="0.8"/>
<path d="M 235.31,389.99 L 246.18,392.27 L 332.65,392.27 L 333.57,424.17 L 248.68,424.06 L 243.14,426.21 L 228.44,420.51 L 219.77,422.98 L 215.90,420.51 L 207.57,421.10 L 204.33,419.18 L 212.04,412.81 L 221.74,408.07 L 224.63,408.69 L 226.36,408.59 L 230.17,407.74 L 221.26,406.53 L 234.41,398.58 L 233.75,387.46 L 235.31,389.99 Z M 178.64,352.29 L 161.43,364.06 L 146.10,361.99 L 145.58,357.93 L 154.50,356.78 L 160.19,349.59 L 176.79,348.92 L 178.64,352.29 Z" fill="#C8D8E8" stroke="#8BAABB" stroke-width="0.8"/>
<path d="M 452.17,399.54 L 450.06,407.95 L 457.96,414.92 L 451.39,417.13 L 476.94,416.40 L 493.26,412.27 L 515.98,413.44 L 522.98,415.10 L 524.97,420.59 L 537.00,426.52 L 527.95,434.51 L 511.53,436.75 L 503.04,441.92 L 498.23,446.13 L 501.47,452.95 L 495.63,457.12 L 512.79,459.06 L 516.97,463.95 L 527.42,463.66 L 538.42,467.93 L 532.06,479.09 L 538.27,490.04 L 536.68,493.85 L 530.29,495.59 L 535.74,497.62 L 534.53,500.00 L 197.85,500.00 L 196.11,494.70 L 182.89,487.49 L 180.74,485.16 L 183.07,487.18 L 192.15,491.65 L 199.00,493.49 L 200.02,497.31 L 218.16,495.46 L 211.47,491.71 L 200.43,494.33 L 197.96,492.03 L 203.52,489.75 L 203.60,486.60 L 202.79,488.99 L 193.88,490.08 L 183.76,487.03 L 183.96,484.14 L 173.20,478.22 L 175.82,479.08 L 177.64,477.85 L 171.39,476.73 L 162.04,467.54 L 171.71,473.38 L 177.20,470.30 L 182.56,475.42 L 188.36,467.90 L 201.72,460.59 L 204.25,441.77 L 205.21,446.55 L 209.37,445.81 L 213.51,448.81 L 214.57,446.36 L 219.93,448.43 L 228.09,447.81 L 234.57,450.86 L 231.08,448.07 L 248.43,446.36 L 233.27,446.55 L 214.16,443.54 L 201.67,436.61 L 202.33,434.37 L 216.83,432.86 L 218.14,434.50 L 212.85,434.57 L 211.95,435.12 L 219.05,435.12 L 219.05,437.55 L 221.30,438.67 L 220.27,423.76 L 230.21,422.52 L 243.14,426.21 L 248.68,424.06 L 333.57,424.17 L 334.57,388.58 L 397.57,388.21 L 425.39,390.33 L 452.28,389.06 L 460.13,390.18 L 452.17,399.54 Z M 184.51,469.82 L 182.24,472.34 L 178.53,469.60 L 184.51,469.82 Z M 206.76,429.36 L 206.47,429.43 L 206.29,429.35 L 206.76,429.36 Z" fill="#C8D8E8" stroke="#8BAABB" stroke-width="0.8"/>
<path d="M 10.91,78.84 L 47.81,96.09 L 56.36,96.08 L 64.77,92.76 L 77.36,92.89 L 105.42,86.53 L 123.68,87.77 L 160.98,98.06 L 220.16,101.40 L 254.55,89.13 L 290.61,85.71 L 340.31,86.00 L 380.43,92.78 L 407.39,94.21 L 413.13,89.33 L 428.98,85.77 L 431.39,82.59 L 456.45,80.98 L 463.07,76.57 L 481.09,76.71 L 510.81,93.84 L 518.87,113.19 L 538.23,114.08 L 550.11,118.74 L 541.79,131.25 L 546.96,133.44 L 545.94,136.59 L 517.34,144.15 L 505.45,143.11 L 490.67,150.21 L 476.64,161.02 L 469.89,173.82 L 456.59,176.77 L 454.33,190.53 L 432.25,195.02 L 435.04,198.19 L 426.89,211.95 L 412.92,216.15 L 400.64,216.04 L 402.92,219.13 L 391.43,222.15 L 389.16,233.79 L 377.91,240.40 L 378.05,244.30 L 359.57,252.86 L 368.38,257.89 L 348.21,263.45 L 346.37,269.77 L 335.75,274.94 L 319.10,275.54 L 314.11,267.16 L 284.36,256.48 L 278.99,263.49 L 260.46,263.36 L 256.05,259.85 L 238.62,265.87 L 233.03,265.67 L 226.83,272.88 L 203.96,278.82 L 180.69,290.26 L 172.45,291.58 L 170.07,295.52 L 175.57,298.48 L 168.75,310.39 L 151.27,322.72 L 128.65,314.99 L 139.82,324.36 L 135.60,327.10 L 88.17,327.74 L 87.28,322.66 L 84.50,326.44 L 70.15,325.67 L 73.55,327.63 L 70.15,328.30 L 56.56,321.37 L 63.89,327.91 L 54.75,330.17 L 54.75,324.53 L 49.47,322.12 L 51.20,325.48 L 45.44,323.41 L 53.44,331.22 L 49.92,331.86 L 43.37,331.17 L 37.95,319.76 L 33.42,319.28 L 43.50,332.24 L 33.42,332.41 L 34.76,325.48 L 32.09,330.54 L 29.43,328.11 L 31.61,332.90 L 26.74,332.90 L 25.65,328.92 L 22.70,328.30 L 23.94,332.95 L 4.51,334.10 L 8.54,330.17 L 4.03,331.28 L 2.29,328.49 L 1.41,333.90 L 0.00,334.05 L 0.00,78.55 L 10.91,78.84 Z M 89.86,328.85 L 79.95,330.21 L 73.78,329.52 L 89.86,328.85 Z M 73.50,328.65 L 71.28,330.76 L 60.86,331.25 L 66.81,327.53 L 69.71,328.65 L 73.50,328.65 Z" fill="#C8D8E8" stroke="#8BAABB" stroke-width="0.8"/>
<path d="M 246.18,392.27 L 234.48,389.56 L 243.89,368.07 L 242.19,362.03 L 223.52,354.71 L 235.05,352.28 L 222.49,353.04 L 217.27,347.04 L 222.36,348.94 L 222.16,345.53 L 230.17,347.04 L 225.74,344.59 L 231.47,343.27 L 222.01,343.19 L 230.83,338.39 L 219.44,341.75 L 212.89,339.06 L 216.40,342.39 L 210.26,341.27 L 212.79,344.41 L 204.13,344.41 L 203.00,341.23 L 195.50,343.08 L 179.94,339.35 L 177.64,326.97 L 171.87,324.61 L 173.23,327.21 L 168.73,325.67 L 168.07,327.30 L 159.41,321.92 L 163.80,328.07 L 150.00,327.69 L 155.97,318.00 L 168.75,310.39 L 175.57,298.48 L 170.07,295.52 L 171.76,292.03 L 203.96,278.82 L 226.83,272.88 L 233.03,265.67 L 238.62,265.87 L 256.05,259.85 L 260.46,263.36 L 278.99,263.49 L 284.36,256.48 L 314.11,267.16 L 318.03,275.13 L 328.32,275.65 L 346.37,269.77 L 348.21,263.45 L 368.38,257.89 L 359.57,252.86 L 378.05,244.30 L 377.91,240.40 L 389.16,233.79 L 391.43,222.15 L 402.92,219.13 L 400.64,216.04 L 412.92,216.15 L 428.29,211.14 L 435.04,198.19 L 432.25,195.02 L 454.33,190.53 L 456.59,176.77 L 469.89,173.82 L 476.64,161.02 L 490.67,150.21 L 505.45,143.11 L 517.34,144.15 L 546.62,135.93 L 541.79,131.25 L 550.00,118.45 L 538.23,114.08 L 518.87,113.19 L 510.81,93.84 L 533.76,93.75 L 542.63,102.34 L 559.80,105.85 L 564.93,119.14 L 574.76,121.00 L 580.36,136.15 L 572.93,145.67 L 580.53,163.75 L 615.80,178.25 L 556.78,180.15 L 518.40,178.61 L 503.08,187.51 L 529.30,200.76 L 574.92,215.10 L 600.18,237.10 L 608.11,238.39 L 599.66,249.40 L 586.09,253.29 L 556.76,278.70 L 531.75,286.34 L 546.70,291.10 L 546.70,301.21 L 540.36,306.81 L 549.39,310.26 L 553.19,325.09 L 571.16,330.80 L 577.47,338.77 L 583.88,340.38 L 573.24,341.39 L 577.07,345.23 L 642.51,373.19 L 642.37,382.84 L 650.00,390.70 L 643.29,391.51 L 640.65,396.37 L 646.63,404.49 L 641.04,406.25 L 637.41,403.06 L 617.46,398.66 L 602.92,397.46 L 593.47,398.95 L 585.36,395.72 L 564.56,396.63 L 562.26,393.63 L 556.27,395.01 L 543.11,391.09 L 534.72,393.19 L 460.77,392.40 L 460.13,390.18 L 452.28,389.06 L 425.39,390.33 L 354.42,387.98 L 334.57,388.58 L 332.65,392.27 L 246.18,392.27 Z" fill="#4A90D9" stroke="#1a5fa8" stroke-width="1.2"/>
<path d="M 550.85,96.58 L 524.06,99.03 L 524.71,92.25 L 531.32,94.23 L 526.10,91.25 L 541.46,89.03 L 549.95,90.35 L 554.25,93.76 L 550.85,96.58 Z" fill="#A8C8E8" stroke="none"/>
<path d="M 767.49,478.09 L 760.76,473.91 L 762.53,471.26 L 754.06,471.09 L 754.06,469.22 L 774.14,470.53 L 776.99,478.41 L 771.16,478.77 L 771.44,477.25 L 767.49,478.09 Z" fill="#A8C8E8" stroke="none"/>
<path d="M 263.59,478.95 L 252.43,478.87 L 255.56,479.36 L 247.51,482.36 L 244.78,482.08 L 251.99,478.78 L 246.21,478.78 L 245.74,472.97 L 251.05,476.15 L 254.44,474.84 L 256.71,477.89 L 263.40,477.32 L 263.59,478.95 Z" fill="#A8C8E8" stroke="none"/>
<path d="M 769.63,499.90 L 771.44,497.17 L 779.48,499.03 L 780.74,495.10 L 787.49,497.17 L 799.95,494.53 L 795.96,498.47 L 787.01,500.00 L 770.12,500.00 L 769.63,499.90 Z" fill="#A8C8E8" stroke="none"/>
<path d="M 433.33,274.19 L 427.19,275.71 L 436.94,278.60 L 438.03,275.71 L 442.72,275.40 L 441.72,278.71 L 430.81,279.35 L 417.10,274.95 L 423.60,273.12 L 433.33,274.19 Z" fill="#A8C8E8" stroke="none"/>
</svg>