<svg xmlns="http://www.w3.org/2000/svg" width="800" height="500" viewBox="0 0 800 500">
<rect width="800" height="500" fill="#A8C8E8"/>
<path d="M 521.35,486.21 L 526.49,481.50 L 534.23,479.26 L 546.21,465.81 L 545.31,456.85 L 551.52,441.18 L 549.38,423.70 L 554.94,409.07 L 554.96,392.43 L 567.02,370.65 L 567.02,500.00 L 514.29,500.00 L 521.35,486.21 Z" fill="#E8E0D0" stroke="#B8B0A0" stroke-width="0.5"/>
<path d="M 454.52,20.77 L 440.00,40.74 L 435.23,53.61 L 429.58,56.61 L 433.86,76.71 L 426.33,76.57 L 423.57,80.98 L 413.11,82.59 L 412.10,85.77 L 405.48,89.33 L 403.08,94.21 L 391.83,92.78 L 375.07,86.00 L 354.33,85.71 L 339.27,89.13 L 324.91,101.40 L 300.20,98.06 L 284.62,87.77 L 277.00,86.53 L 265.28,92.89 L 260.03,92.76 L 256.51,96.08 L 252.94,96.09 L 235.72,77.81 L 232.98,78.21 L 232.98,0.00 L 473.98,0.00 L 454.52,20.77 Z" fill="#E8E0D0" stroke="#B8B0A0" stroke-width="0.5"/>
<path d="M 248.05,444.66 L 241.81,450.84 L 240.30,444.17 L 246.01,440.37 L 248.05,444.66 Z M 265.54,409.62 L 263.67,408.69 L 265.10,405.22 L 267.20,405.70 L 265.54,409.62 Z" fill="#E8E0D0" stroke="#B8B0A0" stroke-width="0.5"/>
<path d="M 565.80,352.17 L 559.74,353.73 L 557.92,356.40 L 555.22,354.04 L 548.72,354.68 L 547.39,352.57 L 538.32,350.08 L 526.13,354.74 L 516.10,355.00 L 511.38,365.17 L 511.75,373.93 L 503.63,390.05 L 500.26,371.10 L 496.42,366.78 L 492.94,366.50 L 473.93,345.23 L 472.34,341.39 L 476.78,340.38 L 474.10,338.77 L 471.47,330.80 L 463.96,325.09 L 462.38,310.26 L 458.61,306.81 L 461.25,301.21 L 461.25,291.10 L 455.01,286.34 L 465.45,278.70 L 477.70,253.29 L 483.37,249.40 L 484.68,245.75 L 496.73,246.71 L 508.81,241.67 L 509.39,238.63 L 513.64,236.27 L 515.41,241.47 L 519.97,245.26 L 543.23,233.12 L 567.02,231.53 L 567.02,353.40 L 565.80,352.17 Z" fill="#C8D8E8" stroke="#8BAABB" stroke-width="0.8"/>
<path d="M 433.86,76.71 L 429.58,56.61 L 435.23,53.61 L 440.00,40.74 L 454.52,20.77 L 474.24,0.00 L 567.02,0.00 L 567.02,231.53 L 543.23,233.12 L 520.60,245.19 L 515.41,241.47 L 513.64,236.27 L 509.39,238.63 L 508.81,241.67 L 496.73,246.71 L 484.68,245.75 L 486.90,238.39 L 483.59,237.10 L 476.61,219.61 L 453.99,200.76 L 443.09,187.92 L 449.44,178.61 L 465.46,180.15 L 490.11,178.25 L 475.20,163.23 L 472.21,145.67 L 475.31,136.15 L 473.43,132.05 L 474.64,129.25 L 472.97,121.00 L 468.87,119.14 L 467.04,106.41 L 459.56,102.34 L 455.85,93.75 L 446.27,93.84 L 433.86,76.71 Z" fill="#C8D8E8" stroke="#8BAABB" stroke-width="0.8"/>
<path d="M 554.96,392.43 L 554.94,409.07 L 549.38,423.70 L 551.52,441.18 L 545.31,456.85 L 546.21,465.81 L 534.23,479.26 L 526.49,481.50 L 521.35,486.21 L 514.29,500.00 L 456.13,500.00 L 456.68,497.62 L 454.40,495.59 L 457.07,493.85 L 457.74,490.04 L 455.14,479.49 L 457.80,467.93 L 453.20,463.66 L 448.84,463.95 L 447.10,459.06 L 439.93,457.12 L 442.37,452.95 L 441.02,446.13 L 443.02,441.92 L 446.57,436.75 L 453.43,434.51 L 457.20,426.52 L 452.18,420.59 L 451.35,415.10 L 448.43,413.44 L 438.94,412.27 L 432.13,416.40 L 421.46,417.13 L 424.20,414.92 L 420.90,407.95 L 421.78,399.54 L 425.38,392.40 L 456.25,393.19 L 459.76,391.09 L 465.25,395.01 L 467.75,393.63 L 468.71,396.63 L 477.40,395.72 L 480.78,398.95 L 484.73,397.46 L 490.80,398.66 L 499.13,403.06 L 500.65,406.25 L 503.07,404.06 L 500.51,397.38 L 501.08,392.72 L 504.39,390.70 L 511.75,373.93 L 511.38,365.17 L 514.99,355.73 L 531.23,353.54 L 538.32,350.08 L 547.39,352.57 L 548.72,354.68 L 555.22,354.04 L 557.92,356.40 L 559.74,353.73 L 565.80,352.17 L 567.02,353.40 L 567.02,370.65 L 554.96,392.43 Z" fill="#C8D8E8" stroke="#8BAABB" stroke-width="0.8"/>
<path d="M 331.24,389.99 L 335.77,392.27 L 371.88,392.27 L 372.26,424.17 L 336.82,424.06 L 334.50,426.21 L 328.36,420.51 L 324.74,422.98 L 323.13,420.51 L 319.65,421.10 L 318.30,419.18 L 321.52,412.81 L 325.57,408.07 L 326.77,408.69 L 327.50,408.59 L 329.09,407.74 L 325.37,406.53 L 330.86,398.58 L 330.58,387.46 L 331.24,389.99 Z M 307.57,352.29 L 300.38,364.06 L 293.98,361.99 L 293.76,357.93 L 297.49,356.78 L 299.87,349.59 L 306.80,348.92 L 307.57,352.29 Z" fill="#C8D8E8" stroke="#8BAABB" stroke-width="0.8"/>
<path d="M 421.78,399.54 L 420.90,407.95 L 424.20,414.92 L 421.46,417.13 L 432.13,416.40 L 438.94,412.27 L 448.43,413.44 L 451.35,415.10 L 452.18,420.59 L 457.20,426.52 L 453.43,434.51 L 446.57,436.75 L 443.02,441.92 L 441.02,446.13 L 442.37,452.95 L 439.93,457.12 L 447.10,459.06 L 448.84,463.95 L 453.20,463.66 L 457.80,467.93 L 455.14,479.09 L 457.74,490.04 L 457.07,493.85 L 454.40,495.59 L 456.68,497.62 L 456.17,500.00 L 315.59,500.00 L 314.86,494.70 L 309.35,487.49 L 308.45,485.16 L 309.42,487.18 L 313.21,491.65 L 316.07,493.49 L 316.50,497.31 L 324.07,495.46 L 321.28,491.71 L 316.67,494.33 L 315.64,492.03 L 317.96,489.75 L 317.99,486.60 L 317.65,488.99 L 313.93,490.08 L 309.71,487.03 L 309.79,484.14 L 305.30,478.22 L 306.39,479.08 L 307.15,477.85 L 304.54,476.73 L 300.64,467.54 L 304.68,473.38 L 306.97,470.30 L 309.21,475.42 L 311.63,467.90 L 317.21,460.59 L 318.26,441.77 L 318.66,446.55 L 320.40,445.81 L 322.13,448.81 L 322.57,446.36 L 324.81,448.43 L 328.22,447.81 L 330.92,450.86 L 329.47,448.07 L 336.71,446.36 L 330.38,446.55 L 322.40,443.54 L 317.19,436.61 L 317.46,434.37 L 323.52,432.86 L 324.06,434.50 L 321.85,434.57 L 321.48,435.12 L 324.44,435.12 L 324.44,437.55 L 325.38,438.67 L 324.95,423.76 L 329.10,422.52 L 334.50,426.21 L 336.82,424.06 L 372.26,424.17 L 372.68,388.58 L 398.99,388.21 L 410.60,390.33 L 421.83,389.06 L 425.11,390.18 L 421.78,399.54 Z M 310.02,469.82 L 309.07,472.34 L 307.52,469.60 L 310.02,469.82 Z M 319.31,429.36 L 319.19,429.43 L 319.11,429.35 L 319.31,429.36 Z" fill="#C8D8E8" stroke="#8BAABB" stroke-width="0.8"/>
<path d="M 237.53,78.84 L 252.94,96.09 L 256.51,96.08 L 260.03,92.76 L 265.28,92.89 L 277.00,86.53 L 284.62,87.77 L 300.20,98.06 L 324.91,101.40 L 339.27,89.13 L 354.33,85.71 L 375.07,86.00 L 391.83,92.78 L 403.08,94.21 L 405.48,89.33 L 412.10,85.77 L 413.11,82.59 L 423.57,80.98 L 426.33,76.57 L 433.86,76.71 L 446.27,93.84 L 449.63,113.19 L 457.72,114.08 L 462.68,118.74 L 459.21,131.25 L 461.36,133.44 L 460.94,136.59 L 449.00,144.15 L 444.03,143.11 L 437.86,150.21 L 432.00,161.02 L 429.18,173.82 L 423.63,176.77 L 422.69,190.53 L 413.46,195.02 L 414.63,198.19 L 411.23,211.95 L 405.40,216.15 L 400.27,216.04 L 401.22,219.13 L 396.42,222.15 L 395.47,233.79 L 390.78,240.40 L 390.83,244.30 L 383.12,252.86 L 386.80,257.89 L 378.38,263.45 L 377.61,269.77 L 373.17,274.94 L 366.22,275.54 L 364.14,267.16 L 351.71,256.48 L 349.47,263.49 L 341.74,263.36 L 339.89,259.85 L 332.62,265.87 L 330.28,265.67 L 327.69,272.88 L 318.14,278.82 L 308.43,290.26 L 304.99,291.58 L 303.99,295.52 L 306.29,298.48 L 303.44,310.39 L 296.14,322.72 L 286.70,314.99 L 291.36,324.36 L 289.60,327.10 L 269.80,327.74 L 269.43,322.66 L 268.26,326.44 L 262.27,325.67 L 263.69,327.63 L 262.27,328.30 L 256.60,321.37 L 259.66,327.91 L 255.84,330.17 L 255.84,324.53 L 253.64,322.12 L 254.36,325.48 L 251.95,323.41 L 255.29,331.22 L 253.82,331.86 L 251.09,331.17 L 248.83,319.76 L 246.94,319.28 L 251.14,332.24 L 246.94,332.41 L 247.49,325.48 L 246.38,330.54 L 245.27,328.11 L 246.18,332.90 L 244.14,332.90 L 243.69,328.92 L 242.46,328.30 L 242.98,332.95 L 234.86,334.10 L 236.55,330.17 L 234.66,331.28 L 233.94,328.49 L 233.57,333.90 L 232.98,334.05 L 232.98,78.55 L 237.53,78.84 Z M 270.50,328.85 L 266.36,330.21 L 263.79,329.52 L 270.50,328.85 Z M 263.67,328.65 L 262.74,330.76 L 258.39,331.25 L 260.87,327.53 L 262.09,328.65 L 263.67,328.65 Z" fill="#C8D8E8" stroke="#8BAABB" stroke-width="0.8"/>
<path d="M 335.77,392.27 L 330.89,389.56 L 334.82,368.07 L 334.10,362.03 L 326.31,354.71 L 331.12,352.28 L 325.88,353.04 L 323.70,347.04 L 325.83,348.94 L 325.74,345.53 L 329.09,347.04 L 327.24,344.59 L 329.63,343.27 L 325.68,343.19 L 329.36,338.39 L 324.61,341.75 L 321.87,339.06 L 323.34,342.39 L 320.77,341.27 L 321.83,344.41 L 318.21,344.41 L 317.74,341.23 L 314.61,343.08 L 308.11,339.35 L 307.15,326.97 L 304.75,324.61 L 305.31,327.21 L 303.43,325.67 L 303.16,327.30 L 299.54,321.92 L 301.37,328.07 L 295.61,327.69 L 298.11,318.00 L 303.44,310.39 L 306.29,298.48 L 303.99,295.52 L 304.70,292.03 L 318.14,278.82 L 327.69,272.88 L 330.28,265.67 L 332.62,265.87 L 339.89,259.85 L 341.74,263.36 L 349.47,263.49 L 351.71,256.48 L 364.14,267.16 L 365.77,275.13 L 370.07,275.65 L 377.61,269.77 L 378.38,263.45 L 386.80,257.89 L 383.12,252.86 L 390.83,244.30 L 390.78,240.40 L 395.47,233.79 L 396.42,222.15 L 401.22,219.13 L 400.27,216.04 L 405.40,216.15 L 411.81,211.14 L 414.63,198.19 L 413.46,195.02 L 422.69,190.53 L 423.63,176.77 L 429.18,173.82 L 432.00,161.02 L 437.86,150.21 L 444.03,143.11 L 449.00,144.15 L 461.22,135.93 L 459.21,131.25 L 462.63,118.45 L 457.72,114.08 L 449.63,113.19 L 446.27,93.84 L 455.85,93.75 L 459.56,102.34 L 466.73,105.85 L 468.87,119.14 L 472.97,121.00 L 475.31,136.15 L 472.21,145.67 L 475.38,163.75 L 490.11,178.25 L 465.46,180.15 L 449.44,178.61 L 443.04,187.51 L 453.99,200.76 L 473.04,215.10 L 483.59,237.10 L 486.90,238.39 L 483.37,249.40 L 477.70,253.29 L 465.45,278.70 L 455.01,286.34 L 461.25,291.10 L 461.25,301.21 L 458.61,306.81 L 462.38,310.26 L 463.96,325.09 L 471.47,330.80 L 474.10,338.77 L 476.78,340.38 L 472.34,341.39 L 473.93,345.23 L 501.26,373.19 L 501.20,382.84 L 504.39,390.70 L 501.58,391.51 L 500.48,396.37 L 502.98,404.49 L 500.65,406.25 L 499.13,403.06 L 490.80,398.66 L 484.73,397.46 L 480.78,398.95 L 477.40,395.72 L 468.71,396.63 L 467.75,393.63 L 465.25,395.01 L 459.76,391.09 L 456.25,393.19 L 425.38,392.40 L 425.11,390.18 L 421.83,389.06 L 410.60,390.33 L 380.97,387.98 L 372.68,388.58 L 371.88,392.27 L 335.77,392.27 Z" fill="#4A90D9" stroke="#1a5fa8" stroke-width="1.2"/>
<path d="M 462.99,96.58 L 451.80,99.03 L 452.07,92.25 L 454.83,94.23 L 452.66,91.25 L 459.07,89.03 L 462.61,90.35 L 464.41,93.76 L 462.99,96.58 Z" fill="#A8C8E8" stroke="none"/>
<path d="M 553.44,478.09 L 550.63,473.91 L 551.38,471.26 L 547.84,471.09 L 547.84,469.22 L 556.22,470.53 L 557.41,478.41 L 554.98,478.77 L 555.10,477.25 L 553.44,478.09 Z" fill="#A8C8E8" stroke="none"/>
<path d="M 343.04,478.95 L 338.38,478.87 L 339.69,479.36 L 336.33,482.36 L 335.19,482.08 L 338.20,478.78 L 335.79,478.78 L 335.59,472.97 L 337.81,476.15 L 339.22,474.84 L 340.17,477.89 L 342.96,477.32 L 343.04,478.95 Z" fill="#A8C8E8" stroke="none"/>
<path d="M 554.34,499.90 L 555.10,497.17 L 558.45,499.03 L 558.98,495.10 L 561.80,497.17 L 567.00,494.53 L 565.33,498.47 L 561.59,500.00 L 554.54,500.00 L 554.34,499.90 Z" fill="#A8C8E8" stroke="none"/>
<path d="M 413.92,274.19 L 411.35,275.71 L 415.43,278.60 L 415.88,275.71 L 417.84,275.40 L 417.42,278.71 L 412.86,279.35 L 407.14,274.95 L 409.85,273.12 L 413.92,274.19 Z" fill="#A8C8E8" stroke="none"/>
</svg>