<svg xmlns="http://www.w3.org/2000/svg" width="800" height="500" viewBox="0 0 800 500">
<rect width="800" height="500" fill="#A8C8E8"/>
<path d="M 85.09,140.27 L 87.23,142.35 L 85.78,141.47 L 85.32,143.87 L 87.41,143.04 L 99.93,154.25 L 113.94,162.26 L 121.52,164.61 L 118.56,165.50 L 111.93,163.52 L 111.97,165.42 L 108.76,166.05 L 108.83,173.01 L 116.25,175.43 L 109.39,178.33 L 111.90,183.44 L 105.04,185.85 L 108.69,187.24 L 110.62,189.81 L 110.24,190.99 L 107.85,187.72 L 101.71,185.12 L 103.67,183.76 L 101.02,180.42 L 90.56,179.10 L 97.11,182.09 L 97.11,184.99 L 87.40,183.79 L 81.97,181.20 L 87.41,177.77 L 85.15,177.88 L 87.41,176.20 L 85.41,173.28 L 66.09,165.90 L 52.33,163.92 L 48.39,157.10 L 44.44,157.10 L 46.55,156.74 L 29.68,151.56 L 33.15,155.89 L 43.98,159.51 L 35.45,164.31 L 29.33,159.88 L 17.06,158.27 L 10.98,152.46 L 12.16,147.48 L 18.14,145.62 L 15.83,145.79 L 16.50,142.55 L 7.53,140.75 L 15.48,140.23 L 14.29,138.57 L 16.93,138.27 L 19.28,135.29 L 41.73,139.99 L 50.32,137.74 L 58.34,139.81 L 61.13,139.07 L 66.65,142.80 L 72.79,142.67 L 75.89,144.00 L 84.46,142.36 L 83.33,140.09 L 85.09,140.27 Z M 36.14,155.05 L 32.71,154.45 L 35.70,154.58 L 36.14,155.05 Z M 77.03,179.09 L 77.51,179.08 L 77.21,179.34 L 77.03,179.09 Z" fill="#E8E0D0" stroke="#B8B0A0" stroke-width="0.5"/>
<path d="M 0.00,130.54 L 0.00,87.09 L 2.47,85.57 L 14.41,89.44 L 14.92,86.96 L 33.70,80.70 L 34.52,76.45 L 38.42,76.02 L 37.60,74.72 L 42.64,72.02 L 46.42,71.94 L 49.55,74.51 L 56.84,75.48 L 60.88,73.79 L 64.10,74.46 L 64.29,73.04 L 67.44,73.81 L 69.34,72.43 L 75.64,72.96 L 86.05,71.04 L 89.64,68.60 L 102.40,68.86 L 96.89,72.24 L 95.94,70.32 L 94.33,70.86 L 92.49,72.25 L 96.71,72.82 L 100.51,80.25 L 92.26,87.11 L 87.96,96.60 L 90.56,114.12 L 85.32,114.67 L 85.32,111.53 L 88.08,110.28 L 87.79,107.18 L 85.03,107.63 L 86.95,110.34 L 80.70,112.07 L 84.01,116.52 L 86.01,115.33 L 84.19,121.64 L 83.28,119.06 L 82.25,118.42 L 80.59,118.32 L 82.76,119.23 L 79.71,120.37 L 81.20,122.36 L 78.63,123.69 L 80.93,124.86 L 83.21,124.06 L 84.84,128.11 L 81.15,129.20 L 77.55,134.17 L 84.46,142.36 L 75.58,143.97 L 72.79,142.67 L 66.65,142.80 L 61.13,139.07 L 58.34,139.81 L 50.32,137.74 L 41.73,139.99 L 19.28,135.29 L 15.78,137.55 L 0.00,130.54 Z M 84.03,140.27 L 83.65,140.06 L 83.82,140.05 L 84.03,140.27 Z M 82.00,122.45 L 82.98,121.66 L 82.54,123.71 L 82.00,122.45 Z M 104.91,118.52 L 105.70,118.08 L 106.08,118.24 L 104.91,118.52 Z M 115.80,79.86 L 115.19,80.01 L 113.25,79.92 L 115.80,79.86 Z" fill="#E8E0D0" stroke="#B8B0A0" stroke-width="0.5"/>
<path d="M 776.94,15.01 L 775.59,14.95 L 779.95,14.04 L 779.95,15.59 L 776.94,15.01 Z" fill="#E8E0D0" stroke="#B8B0A0" stroke-width="0.5"/>
<path d="M 777.65,15.15 L 779.95,15.59 L 777.25,15.55 L 777.65,15.15 Z" fill="#E8E0D0" stroke="#B8B0A0" stroke-width="0.5"/>
<path d="M 605.19,119.36 L 603.54,121.02 L 601.91,117.87 L 598.04,116.92 L 599.42,115.99 L 604.98,117.43 L 605.19,119.36 Z M 782.39,25.21 L 781.93,25.57 L 781.18,25.52 L 780.64,24.50 L 782.39,25.21 Z M 773.00,22.68 L 772.51,22.94 L 772.07,22.78 L 773.00,22.68 Z" fill="#E8E0D0" stroke="#B8B0A0" stroke-width="0.5"/>
<path d="M 486.33,0.70 L 486.77,2.75 L 482.69,5.34 L 477.02,5.68 L 480.31,8.62 L 487.15,10.69 L 484.89,15.49 L 474.94,12.01 L 447.51,13.70 L 430.96,11.65 L 421.43,12.49 L 421.89,11.64 L 415.79,13.69 L 416.93,15.67 L 414.25,15.72 L 406.44,11.84 L 397.44,10.94 L 393.50,8.65 L 395.88,5.35 L 401.36,4.42 L 416.60,6.72 L 423.91,6.02 L 419.59,6.59 L 421.70,7.39 L 446.90,8.56 L 453.22,8.50 L 457.26,6.34 L 465.43,6.88 L 466.22,4.19 L 458.84,2.40 L 454.29,0.00 L 484.17,0.00 L 486.33,0.70 Z M 424.20,15.01 L 419.83,14.53 L 420.09,14.28 L 424.20,15.01 Z M 418.74,5.01 L 419.59,5.63 L 417.74,5.86 L 418.74,5.01 Z M 434.76,0.00 L 440.81,0.00 L 448.85,1.67 L 450.11,3.54 L 434.76,0.00 Z" fill="#E8E0D0" stroke="#B8B0A0" stroke-width="0.5"/>
<path d="M 600.85,6.05 L 596.75,9.90 L 592.26,9.47 L 590.31,12.41 L 587.07,12.59 L 581.03,8.95 L 549.73,7.89 L 544.17,8.96 L 538.94,12.12 L 526.10,12.60 L 525.21,9.42 L 521.02,8.64 L 513.32,11.59 L 508.21,10.84 L 508.98,13.69 L 496.99,23.11 L 493.13,20.48 L 488.16,20.30 L 488.85,17.00 L 484.89,15.49 L 487.15,10.69 L 480.31,8.62 L 477.02,5.68 L 482.69,5.34 L 486.77,2.75 L 486.33,0.70 L 484.17,0.00 L 588.67,0.00 L 600.85,6.05 Z M 492.80,23.62 L 493.49,22.82 L 495.31,23.54 L 492.80,23.62 Z M 592.84,14.29 L 585.59,12.73 L 586.68,12.71 L 592.84,14.29 Z" fill="#E8E0D0" stroke="#B8B0A0" stroke-width="0.5"/>
<path d="M 7.98,52.37 L 8.45,51.20 L 5.46,50.72 L 15.73,51.68 L 22.96,53.55 L 39.42,51.48 L 50.31,53.44 L 50.87,55.22 L 57.85,54.85 L 51.48,53.67 L 63.18,54.58 L 82.20,61.76 L 72.97,59.38 L 69.61,59.14 L 70.10,60.33 L 68.71,59.14 L 65.93,59.14 L 75.18,64.26 L 79.11,64.06 L 72.21,61.64 L 79.37,63.16 L 81.20,65.26 L 85.79,63.61 L 89.02,63.82 L 88.84,65.10 L 86.83,64.64 L 85.86,65.72 L 90.56,65.02 L 88.95,63.53 L 86.24,63.46 L 83.11,61.75 L 93.05,64.13 L 97.22,67.61 L 102.40,68.86 L 89.64,68.60 L 86.05,71.04 L 75.64,72.96 L 69.34,72.43 L 67.44,73.81 L 64.29,73.04 L 64.10,74.46 L 60.88,73.79 L 56.84,75.48 L 49.55,74.51 L 46.42,71.94 L 42.64,72.02 L 37.60,74.72 L 38.42,76.02 L 34.52,76.45 L 33.70,80.70 L 14.92,86.96 L 14.41,89.44 L 8.11,87.89 L 5.05,85.38 L 0.00,87.83 L 0.00,53.93 L 7.98,52.37 Z M 10.75,42.19 L 11.90,42.52 L 7.51,44.19 L 10.75,42.19 Z M 75.59,26.42 L 76.06,26.51 L 75.45,26.54 L 75.59,26.42 Z" fill="#E8E0D0" stroke="#B8B0A0" stroke-width="0.5"/>
<path d="M 587.18,120.50 L 579.17,119.25 L 572.82,114.63 L 587.18,120.50 Z" fill="#E8E0D0" stroke="#B8B0A0" stroke-width="0.5"/>
<path d="M 547.27,112.32 L 548.50,114.10 L 542.77,112.01 L 542.67,110.46 L 547.27,112.32 Z" fill="#E8E0D0" stroke="#B8B0A0" stroke-width="0.5"/>
<path d="M 376.06,8.90 L 376.19,9.20 L 375.69,9.22 L 376.06,8.90 Z" fill="#E8E0D0" stroke="#B8B0A0" stroke-width="0.5"/>
<path d="M 795.82,30.50 L 795.78,31.89 L 793.61,31.90 L 794.04,30.16 L 795.82,30.50 Z M 792.43,29.91 L 785.49,26.80 L 789.97,27.43 L 792.43,29.91 Z" fill="#E8E0D0" stroke="#B8B0A0" stroke-width="0.5"/>
<path d="M 724.27,21.14 L 716.70,21.75 L 717.33,20.11 L 728.01,20.54 L 724.27,21.14 Z M 723.14,10.86 L 719.86,10.42 L 721.69,9.63 L 724.61,10.27 L 723.14,10.86 Z M 717.25,10.84 L 711.77,9.98 L 714.85,9.40 L 717.25,10.84 Z" fill="#E8E0D0" stroke="#B8B0A0" stroke-width="0.5"/>
<path d="M 785.05,17.42 L 787.56,17.66 L 786.94,18.07 L 785.05,17.42 Z" fill="#E8E0D0" stroke="#B8B0A0" stroke-width="0.5"/>
<path d="M 616.38,15.24 L 614.20,14.53 L 614.81,14.17 L 616.96,14.17 L 616.38,15.24 Z M 696.85,14.65 L 693.61,14.04 L 703.88,13.77 L 696.85,14.65 Z M 703.31,10.92 L 701.91,10.20 L 704.52,10.50 L 703.31,10.92 Z M 692.83,12.40 L 688.32,12.98 L 681.53,16.70 L 672.60,17.53 L 653.40,16.14 L 639.59,17.32 L 640.68,12.61 L 636.67,9.83 L 642.36,7.01 L 666.60,7.56 L 692.23,9.36 L 692.83,12.40 Z" fill="#E8E0D0" stroke="#B8B0A0" stroke-width="0.5"/>
<path d="M 780.52,12.19 L 774.89,13.21 L 779.25,11.48 L 780.52,12.19 Z M 766.09,5.63 L 766.27,5.65 L 766.12,5.78 L 766.09,5.63 Z M 782.30,10.97 L 783.04,11.10 L 782.00,11.37 L 782.30,10.97 Z M 771.69,11.23 L 772.59,11.22 L 772.05,11.39 L 771.69,11.23 Z M 774.49,11.51 L 774.07,11.46 L 774.14,11.46 L 774.49,11.51 Z M 774.84,11.53 L 774.87,11.59 L 774.68,11.58 L 774.84,11.53 Z" fill="#E8E0D0" stroke="#B8B0A0" stroke-width="0.5"/>
<path d="M 722.80,9.41 L 725.24,8.27 L 729.44,8.47 L 722.80,9.41 Z M 733.10,8.17 L 731.92,8.41 L 732.86,7.20 L 735.87,7.20 L 733.10,8.17 Z M 734.03,3.44 L 733.09,3.12 L 736.06,3.09 L 737.73,3.89 L 734.03,3.44 Z M 727.62,10.31 L 726.54,9.94 L 727.37,9.86 L 727.62,10.31 Z M 722.25,8.50 L 720.78,8.42 L 720.97,8.29 L 722.25,8.50 Z M 729.03,7.82 L 728.78,8.07 L 728.68,7.71 L 729.03,7.82 Z" fill="#E8E0D0" stroke="#B8B0A0" stroke-width="0.5"/>
<path d="M 336.27,17.66 L 330.37,18.62 L 322.30,18.50 L 313.97,16.32 L 310.87,19.10 L 304.15,18.27 L 301.62,20.18 L 304.18,20.30 L 302.89,21.37 L 294.85,18.61 L 284.30,18.73 L 273.54,12.93 L 262.61,11.52 L 267.46,8.39 L 276.24,8.41 L 278.52,7.08 L 299.73,8.12 L 312.46,9.00 L 316.23,11.31 L 330.78,13.44 L 336.27,17.66 Z" fill="#E8E0D0" stroke="#B8B0A0" stroke-width="0.5"/>
<path d="M 208.26,54.84 L 208.31,54.87 L 208.25,54.87 L 208.26,54.84 Z" fill="#E8E0D0" stroke="#B8B0A0" stroke-width="0.5"/>
<path d="M 253.66,53.65 L 253.77,53.59 L 253.77,53.68 L 253.66,53.65 Z" fill="#E8E0D0" stroke="#B8B0A0" stroke-width="0.5"/>
<path d="M 523.69,499.74 L 527.04,497.37 L 520.09,500.00 L 467.53,500.00 L 466.82,499.15 L 449.96,497.02 L 436.42,496.99 L 444.61,492.17 L 444.47,489.55 L 431.86,482.77 L 431.66,480.69 L 425.45,478.57 L 421.16,472.51 L 417.22,471.22 L 419.68,468.55 L 409.36,464.26 L 411.85,462.60 L 410.56,460.98 L 419.64,460.07 L 416.30,456.53 L 418.08,452.75 L 438.69,445.54 L 435.76,438.55 L 444.44,431.08 L 446.43,421.96 L 455.63,420.71 L 464.35,416.03 L 480.48,411.20 L 498.80,410.16 L 502.12,408.69 L 512.10,408.86 L 516.69,405.25 L 522.94,404.13 L 525.01,405.51 L 533.59,404.61 L 537.80,408.12 L 540.05,406.67 L 543.48,408.08 L 545.68,407.21 L 564.96,352.68 L 557.25,344.80 L 557.54,341.14 L 542.44,334.74 L 542.90,321.62 L 562.31,319.08 L 568.41,321.09 L 573.79,320.53 L 573.28,316.71 L 568.69,313.72 L 549.71,313.35 L 549.57,301.98 L 560.16,300.84 L 606.60,301.74 L 602.66,299.84 L 605.63,296.59 L 614.50,301.39 L 631.49,294.43 L 641.84,301.94 L 642.89,311.30 L 650.00,310.49 L 669.88,318.85 L 674.95,319.11 L 688.05,314.85 L 693.09,314.68 L 695.75,316.80 L 693.45,319.80 L 696.40,320.38 L 702.14,315.97 L 706.33,315.73 L 708.56,312.17 L 718.58,309.64 L 722.23,310.05 L 733.07,305.49 L 734.96,307.97 L 743.72,303.47 L 745.62,298.13 L 766.67,294.23 L 767.99,292.17 L 767.58,289.47 L 745.24,288.58 L 746.94,284.31 L 739.34,277.13 L 740.02,268.88 L 725.20,262.24 L 719.46,258.07 L 720.19,256.78 L 726.99,259.68 L 741.91,259.83 L 745.58,263.83 L 757.92,262.71 L 763.34,264.32 L 768.69,262.49 L 784.27,269.47 L 788.98,267.72 L 788.42,261.40 L 795.33,261.10 L 799.81,258.55 L 800.00,258.59 L 800.00,500.00 L 523.99,500.00 L 523.69,499.74 Z" fill="#C8D8E8" stroke="#8BAABB" stroke-width="0.8"/>
<path d="M 271.19,315.77 L 280.35,317.74 L 285.23,317.14 L 287.17,319.37 L 293.15,320.52 L 295.53,325.13 L 323.56,328.14 L 328.86,327.47 L 328.58,324.88 L 332.48,323.84 L 340.80,325.56 L 348.74,330.18 L 366.74,333.81 L 354.62,334.19 L 367.51,341.47 L 366.29,345.04 L 368.64,348.95 L 362.60,347.99 L 356.99,358.90 L 339.53,369.28 L 319.54,377.08 L 279.68,384.39 L 268.61,390.94 L 269.71,392.93 L 267.61,393.45 L 263.41,391.39 L 261.09,398.44 L 252.24,407.84 L 252.57,411.77 L 244.96,414.28 L 244.90,416.90 L 239.39,419.84 L 231.33,418.96 L 226.36,416.31 L 224.46,411.43 L 219.38,409.80 L 213.48,410.50 L 203.13,407.07 L 194.96,410.46 L 191.27,409.35 L 196.22,405.58 L 192.03,405.84 L 191.28,402.36 L 196.89,402.37 L 202.29,400.17 L 198.91,392.04 L 196.37,391.03 L 209.43,388.02 L 217.07,377.44 L 212.28,369.84 L 215.75,367.11 L 211.49,369.05 L 211.35,376.55 L 205.71,377.14 L 210.22,375.51 L 206.70,375.33 L 209.54,372.41 L 207.43,372.74 L 201.96,377.31 L 198.44,377.76 L 199.25,379.83 L 185.73,374.31 L 177.08,372.61 L 173.73,369.95 L 178.53,370.58 L 183.01,367.78 L 179.03,359.80 L 182.78,355.51 L 177.21,350.26 L 180.35,348.53 L 188.66,347.94 L 192.73,342.57 L 195.09,343.47 L 197.78,343.55 L 194.66,342.91 L 191.13,338.62 L 206.12,330.36 L 208.16,325.52 L 204.21,319.74 L 205.30,317.62 L 219.45,314.33 L 218.97,315.77 L 220.83,317.11 L 220.23,314.64 L 235.96,312.64 L 239.61,310.58 L 241.82,312.29 L 243.94,310.13 L 244.85,310.25 L 245.86,309.32 L 247.85,309.53 L 245.52,308.79 L 247.31,306.77 L 271.19,315.77 Z M 210.98,379.86 L 203.44,384.93 L 198.90,384.88 L 200.76,379.73 L 205.84,378.64 L 210.98,379.86 Z M 244.94,309.63 L 242.99,310.25 L 241.70,309.36 L 244.85,307.83 L 244.94,309.63 Z M 215.52,376.53 L 211.99,378.41 L 211.84,378.02 L 213.93,375.54 L 215.52,376.53 Z" fill="#C8D8E8" stroke="#8BAABB" stroke-width="0.8"/>
<path d="M 128.93,166.47 L 128.67,170.42 L 134.73,170.55 L 131.70,171.18 L 132.29,173.98 L 137.18,175.27 L 148.04,175.11 L 142.72,171.79 L 144.43,170.91 L 156.01,177.34 L 163.91,177.88 L 180.15,175.97 L 188.34,172.64 L 203.49,170.44 L 209.41,167.51 L 210.23,168.72 L 212.19,166.97 L 214.83,167.93 L 220.31,163.38 L 242.53,164.00 L 239.59,166.02 L 259.98,166.89 L 273.99,169.91 L 280.09,173.10 L 279.94,172.12 L 290.57,179.06 L 296.33,179.94 L 292.45,183.29 L 303.42,192.66 L 298.80,193.32 L 296.12,195.56 L 297.47,196.73 L 289.38,199.87 L 283.17,196.76 L 284.28,199.84 L 277.96,204.90 L 265.39,197.01 L 260.54,190.58 L 266.73,189.54 L 264.93,187.15 L 268.50,186.79 L 270.77,184.49 L 275.14,187.44 L 279.07,187.48 L 282.70,189.57 L 284.08,189.31 L 279.25,187.33 L 274.45,186.50 L 272.26,182.60 L 270.70,181.75 L 272.06,184.39 L 269.95,183.42 L 267.12,184.87 L 268.40,184.15 L 267.71,182.09 L 267.71,183.91 L 266.56,182.82 L 262.86,184.15 L 261.48,181.99 L 263.07,184.69 L 261.23,185.35 L 254.54,178.01 L 253.28,179.18 L 238.75,174.25 L 238.82,172.96 L 237.91,172.60 L 239.19,172.42 L 239.77,171.88 L 240.61,172.11 L 242.30,171.51 L 239.77,171.76 L 237.53,172.60 L 237.63,174.16 L 227.14,173.82 L 224.30,175.84 L 222.46,174.77 L 222.55,175.94 L 216.21,177.29 L 216.38,179.36 L 213.71,180.40 L 218.07,180.22 L 215.45,181.43 L 192.01,187.73 L 191.54,190.15 L 206.09,197.96 L 207.25,201.13 L 203.29,201.69 L 199.13,201.45 L 197.52,201.69 L 193.13,204.82 L 178.82,205.53 L 171.27,195.47 L 173.45,194.71 L 172.36,193.16 L 171.21,194.37 L 167.69,194.00 L 167.43,193.47 L 166.82,193.40 L 168.62,195.30 L 165.88,195.91 L 166.82,198.46 L 159.88,197.37 L 154.80,195.80 L 153.65,191.84 L 150.30,191.05 L 149.03,188.23 L 147.88,189.43 L 142.80,187.51 L 136.59,187.51 L 135.21,188.83 L 133.09,187.76 L 134.27,185.58 L 113.24,186.41 L 110.24,190.99 L 108.69,187.24 L 105.04,185.85 L 111.90,183.44 L 109.39,178.33 L 116.25,175.43 L 108.83,173.01 L 108.76,166.05 L 111.97,165.42 L 111.93,163.52 L 119.18,165.56 L 121.16,163.95 L 128.93,166.47 Z M 148.34,204.10 L 147.44,205.18 L 146.67,204.38 L 148.34,204.10 Z M 173.05,199.05 L 165.68,200.54 L 168.29,199.82 L 173.05,199.05 Z M 154.36,203.26 L 149.03,203.02 L 144.69,200.54 L 148.57,197.84 L 154.36,203.26 Z M 132.19,188.59 L 129.85,187.83 L 131.26,187.51 L 132.19,188.59 Z M 127.46,187.86 L 125.96,187.04 L 128.69,186.45 L 127.46,187.86 Z M 239.33,187.02 L 237.41,187.93 L 237.18,186.56 L 239.33,187.02 Z M 128.92,189.44 L 129.68,189.31 L 129.76,189.85 L 128.92,189.44 Z M 237.16,184.50 L 237.56,184.07 L 238.76,184.30 L 237.16,184.50 Z M 137.97,169.00 L 135.80,169.75 L 133.35,167.93 L 137.97,169.00 Z M 131.50,166.35 L 132.19,168.27 L 131.02,167.48 L 129.41,166.83 L 131.50,166.35 Z M 247.12,185.59 L 244.78,187.75 L 242.39,183.80 L 245.17,183.56 L 247.12,185.59 Z M 222.89,177.51 L 223.24,177.99 L 222.37,177.86 L 222.89,177.51 Z M 155.73,172.25 L 156.16,172.55 L 154.91,172.49 L 155.73,172.25 Z M 138.73,170.86 L 140.13,171.58 L 138.79,171.50 L 138.73,170.86 Z" fill="#C8D8E8" stroke="#8BAABB" stroke-width="0.8"/>
<path d="M 261.26,496.16 L 257.49,494.54 L 258.47,493.14 L 256.60,494.09 L 254.64,492.91 L 256.38,492.06 L 249.48,485.87 L 249.65,482.94 L 243.55,479.91 L 242.02,476.08 L 225.85,467.29 L 220.90,459.40 L 207.70,450.18 L 169.76,437.79 L 169.11,435.13 L 171.63,433.45 L 176.19,434.57 L 179.01,431.05 L 176.46,427.78 L 167.48,423.29 L 168.68,420.92 L 172.03,420.03 L 162.80,414.00 L 163.09,410.46 L 165.27,406.53 L 180.65,397.53 L 189.79,393.42 L 198.43,391.85 L 202.29,400.17 L 196.89,402.37 L 191.28,402.36 L 192.03,405.84 L 196.22,405.58 L 191.57,409.71 L 194.96,410.46 L 203.13,407.07 L 213.48,410.50 L 219.38,409.80 L 224.46,411.43 L 226.36,416.31 L 231.33,418.96 L 239.39,419.84 L 244.90,416.90 L 244.96,414.28 L 252.57,411.77 L 252.24,407.84 L 261.09,398.44 L 263.41,391.39 L 267.61,393.45 L 269.71,392.93 L 268.61,390.94 L 279.68,384.39 L 321.54,376.45 L 339.53,369.28 L 356.99,358.90 L 362.39,348.14 L 368.63,348.83 L 366.29,345.04 L 367.51,341.47 L 354.81,333.89 L 364.70,334.55 L 369.33,332.44 L 378.53,335.61 L 382.20,334.92 L 383.34,337.42 L 388.34,337.89 L 395.90,341.45 L 400.99,348.99 L 407.39,349.32 L 414.79,353.17 L 422.22,353.95 L 426.92,357.86 L 425.78,361.29 L 431.86,363.35 L 437.16,363.31 L 439.93,368.31 L 437.00,370.76 L 445.84,374.48 L 452.64,373.47 L 453.35,374.42 L 455.65,372.88 L 464.62,374.92 L 471.41,374.22 L 479.08,372.70 L 485.91,369.34 L 492.90,370.93 L 494.26,372.54 L 495.66,371.49 L 496.86,373.61 L 511.29,370.48 L 520.93,372.78 L 522.91,374.92 L 525.24,374.13 L 532.68,375.56 L 532.45,376.80 L 535.50,376.60 L 539.66,378.76 L 541.16,377.99 L 543.03,379.55 L 520.00,398.28 L 528.19,399.97 L 534.25,399.11 L 544.97,405.27 L 545.09,407.62 L 540.05,406.67 L 537.80,408.12 L 533.59,404.61 L 525.01,405.51 L 522.94,404.13 L 516.69,405.25 L 512.10,408.86 L 502.12,408.69 L 498.80,410.16 L 480.48,411.20 L 464.35,416.03 L 455.63,420.71 L 446.43,421.96 L 444.44,431.08 L 435.76,438.55 L 438.69,445.54 L 418.08,452.75 L 416.30,456.53 L 419.64,460.07 L 410.56,460.98 L 411.85,462.60 L 409.36,464.26 L 419.68,468.55 L 417.22,471.22 L 421.16,472.51 L 425.45,478.57 L 431.66,480.69 L 431.86,482.77 L 444.47,489.55 L 444.61,492.17 L 436.42,496.99 L 449.96,497.02 L 466.82,499.15 L 467.53,500.00 L 262.56,500.00 L 261.26,496.16 Z M 527.04,497.37 L 523.69,499.74 L 523.99,500.00 L 520.09,500.00 L 527.04,497.37 Z M 179.57,445.52 L 178.75,445.53 L 178.37,444.78 L 179.46,443.88 L 179.57,445.52 Z" fill="#C8D8E8" stroke="#8BAABB" stroke-width="0.8"/>
<path d="M 799.81,258.55 L 795.33,261.10 L 789.15,261.17 L 788.98,267.72 L 784.27,269.47 L 768.69,262.49 L 763.34,264.32 L 757.92,262.71 L 745.58,263.83 L 741.91,259.83 L 726.99,259.68 L 720.19,256.78 L 719.46,258.07 L 725.20,262.24 L 740.02,268.88 L 739.34,277.13 L 746.94,284.31 L 745.24,288.58 L 767.58,289.47 L 767.99,292.17 L 766.67,294.23 L 745.62,298.13 L 743.72,303.47 L 734.96,307.97 L 733.07,305.49 L 722.23,310.05 L 718.58,309.64 L 708.56,312.17 L 706.33,315.73 L 702.14,315.97 L 694.89,320.54 L 693.38,318.97 L 695.70,316.38 L 693.09,314.68 L 688.05,314.85 L 674.95,319.11 L 669.88,318.85 L 650.00,310.49 L 638.47,292.18 L 639.40,289.93 L 626.40,284.73 L 624.68,282.58 L 616.96,283.00 L 617.54,281.31 L 635.37,272.57 L 628.95,266.71 L 624.51,265.94 L 616.31,252.42 L 619.07,243.11 L 617.68,238.27 L 625.00,234.72 L 624.73,230.46 L 631.56,227.06 L 629.24,224.67 L 630.63,223.21 L 617.92,221.18 L 612.85,222.86 L 590.70,224.30 L 576.36,222.86 L 570.13,225.27 L 567.25,223.94 L 563.47,224.54 L 540.38,209.62 L 533.98,210.22 L 521.04,207.39 L 504.84,209.80 L 490.14,208.23 L 477.56,208.92 L 474.04,207.62 L 470.41,202.44 L 461.23,200.64 L 460.81,192.70 L 466.04,189.78 L 464.10,185.37 L 454.60,180.17 L 450.71,172.06 L 445.17,172.23 L 443.34,168.88 L 436.52,171.01 L 430.50,170.65 L 444.15,159.81 L 446.53,148.92 L 460.53,136.85 L 468.36,136.26 L 478.33,127.36 L 498.99,124.05 L 498.30,125.67 L 478.68,128.60 L 482.17,135.17 L 489.94,138.71 L 485.15,138.71 L 491.63,143.87 L 489.83,148.55 L 478.40,154.66 L 473.16,159.57 L 477.39,162.57 L 479.14,164.56 L 477.76,163.36 L 477.51,166.00 L 480.08,165.28 L 482.60,166.35 L 480.70,166.43 L 480.55,167.31 L 486.30,167.31 L 483.54,169.96 L 485.95,169.89 L 487.17,172.71 L 492.25,173.33 L 502.92,171.33 L 508.94,168.33 L 509.84,161.00 L 495.23,149.47 L 491.40,142.32 L 496.02,142.55 L 497.15,140.39 L 494.16,139.67 L 536.94,132.81 L 539.53,130.73 L 543.50,131.24 L 539.29,129.00 L 551.64,131.31 L 553.36,130.14 L 550.93,126.81 L 537.59,128.29 L 537.72,125.39 L 534.56,123.92 L 537.80,119.47 L 544.13,117.94 L 550.28,121.16 L 553.25,127.88 L 557.41,130.77 L 569.31,129.57 L 583.03,131.03 L 598.52,135.46 L 602.72,140.28 L 599.42,140.39 L 604.06,140.99 L 600.92,141.96 L 602.43,144.97 L 607.74,147.96 L 616.64,148.58 L 645.37,145.79 L 670.19,145.08 L 677.91,146.40 L 675.36,147.62 L 682.07,151.56 L 710.34,155.68 L 720.69,154.93 L 722.70,152.52 L 731.08,152.15 L 734.16,151.24 L 731.24,150.68 L 740.50,148.14 L 758.47,147.84 L 745.78,146.16 L 738.97,147.48 L 737.73,144.72 L 749.71,145.45 L 753.18,144.00 L 761.90,145.48 L 775.10,143.63 L 800.00,144.25 L 800.00,147.04 L 791.92,146.57 L 783.12,147.20 L 780.18,148.56 L 785.36,147.19 L 786.23,149.38 L 780.70,149.36 L 780.41,151.68 L 782.84,151.50 L 782.48,149.41 L 788.48,149.58 L 793.12,154.22 L 792.11,155.07 L 788.04,155.00 L 786.51,155.78 L 783.86,154.70 L 779.95,154.70 L 787.24,156.59 L 787.78,155.29 L 790.08,155.67 L 793.39,154.91 L 794.69,152.58 L 800.00,158.06 L 800.00,258.59 L 799.81,258.55 Z M 750.10,142.88 L 749.91,143.61 L 746.70,142.91 L 750.10,142.88 Z M 706.26,140.65 L 704.93,140.99 L 699.29,140.29 L 706.26,140.65 Z M 754.01,139.43 L 750.29,140.99 L 744.84,141.47 L 740.93,139.54 L 733.09,139.54 L 734.37,137.88 L 739.44,137.37 L 745.20,139.14 L 747.64,136.90 L 752.01,136.60 L 754.01,139.43 Z M 657.86,125.62 L 655.75,125.24 L 658.76,124.52 L 657.86,125.62 Z M 675.64,125.29 L 672.93,124.63 L 673.43,124.53 L 675.64,125.29 Z M 728.10,123.93 L 727.89,124.65 L 725.00,124.41 L 726.40,123.20 L 728.10,123.93 Z M 654.95,125.25 L 651.59,125.88 L 650.69,125.79 L 654.95,125.25 Z M 655.50,123.75 L 651.93,123.69 L 652.03,123.66 L 655.50,123.75 Z M 623.93,121.71 L 624.31,121.78 L 623.36,121.75 L 623.06,121.61 L 623.93,121.71 Z M 622.83,120.98 L 622.92,120.94 L 622.87,120.99 L 622.83,120.98 Z M 622.98,120.91 L 623.00,120.96 L 622.96,120.94 L 622.98,120.91 Z M 623.06,120.58 L 623.02,120.65 L 622.99,120.62 L 623.06,120.58 Z M 622.85,120.35 L 622.73,120.32 L 622.84,120.31 L 622.85,120.35 Z M 622.59,120.22 L 622.65,120.25 L 622.64,120.28 L 622.59,120.22 Z M 758.86,56.52 L 759.16,56.52 L 759.13,56.63 L 758.86,56.52 Z M 800.00,155.99 L 800.00,156.36 L 799.53,155.70 L 799.85,155.65 L 800.00,155.99 Z M 792.00,151.08 L 787.91,147.87 L 789.06,148.44 L 792.00,151.08 Z M 740.97,142.50 L 739.41,142.37 L 740.00,142.00 L 740.97,142.50 Z" fill="#C8D8E8" stroke="#8BAABB" stroke-width="0.8"/>
<path d="M 246.23,304.60 L 240.82,303.20 L 246.73,299.98 L 255.99,300.67 L 256.86,298.35 L 254.75,296.36 L 252.81,297.15 L 251.54,293.52 L 255.89,289.25 L 256.40,290.16 L 263.57,285.48 L 266.65,287.34 L 266.91,285.21 L 268.23,287.42 L 270.77,288.21 L 272.36,287.80 L 271.99,285.42 L 276.92,285.02 L 278.45,286.68 L 280.63,286.92 L 283.30,286.47 L 283.60,285.85 L 281.55,283.44 L 285.71,282.96 L 284.54,282.11 L 287.49,281.60 L 285.00,280.74 L 288.04,280.51 L 287.56,279.40 L 284.60,279.62 L 292.76,275.32 L 290.67,274.99 L 293.51,273.06 L 298.17,273.70 L 297.69,270.33 L 300.01,271.05 L 298.08,269.70 L 304.93,267.41 L 302.15,266.27 L 304.68,266.44 L 303.85,265.04 L 307.85,263.24 L 300.39,264.56 L 298.80,262.31 L 301.86,262.17 L 302.54,260.59 L 300.01,259.87 L 297.25,263.00 L 294.26,261.25 L 294.54,258.60 L 298.85,258.20 L 300.96,257.11 L 295.87,255.68 L 298.38,253.50 L 297.94,248.57 L 300.22,249.42 L 297.17,246.78 L 296.08,237.15 L 290.08,235.40 L 300.63,231.35 L 292.60,223.37 L 292.63,221.52 L 294.93,222.49 L 296.08,221.41 L 297.28,216.75 L 295.06,214.51 L 290.79,215.04 L 288.93,212.16 L 285.46,211.79 L 286.51,208.87 L 278.74,205.02 L 281.29,200.78 L 284.28,199.84 L 283.17,196.76 L 289.38,199.87 L 297.47,196.73 L 296.12,195.56 L 298.80,193.32 L 303.42,192.66 L 292.45,183.29 L 294.30,180.58 L 297.07,179.86 L 299.66,182.90 L 310.20,186.92 L 310.85,189.34 L 314.57,189.20 L 312.05,192.84 L 317.10,192.94 L 316.50,184.29 L 310.70,182.03 L 331.97,174.97 L 336.94,169.72 L 344.50,166.33 L 348.94,167.19 L 355.38,166.11 L 356.88,163.16 L 352.54,161.77 L 358.41,152.29 L 352.59,154.16 L 358.92,150.92 L 358.65,149.65 L 356.80,149.53 L 359.36,147.96 L 359.67,148.89 L 359.81,147.72 L 358.79,146.40 L 367.89,144.12 L 367.28,142.56 L 381.53,137.05 L 399.95,139.12 L 393.42,139.33 L 393.75,141.59 L 389.87,141.29 L 389.82,142.80 L 390.97,141.94 L 391.66,143.15 L 393.15,143.10 L 392.81,141.70 L 396.67,143.37 L 404.81,132.95 L 433.82,133.82 L 452.38,126.55 L 468.49,123.43 L 472.68,116.94 L 478.38,116.96 L 476.84,118.03 L 479.46,118.51 L 481.70,116.94 L 478.68,116.47 L 486.36,114.24 L 487.68,115.02 L 489.79,113.93 L 486.09,114.07 L 488.28,113.22 L 502.22,115.43 L 507.21,119.78 L 506.39,121.15 L 497.24,124.72 L 477.67,127.59 L 468.36,136.26 L 460.53,136.85 L 454.35,141.51 L 446.53,148.92 L 444.15,159.81 L 430.49,171.03 L 436.52,171.01 L 443.34,168.88 L 445.17,172.23 L 450.71,172.06 L 454.60,180.17 L 464.10,185.37 L 466.04,189.78 L 460.81,192.70 L 461.23,200.64 L 470.41,202.44 L 474.04,207.62 L 477.56,208.92 L 490.14,208.23 L 504.84,209.80 L 521.04,207.39 L 533.98,210.22 L 540.38,209.62 L 563.47,224.54 L 567.25,223.94 L 570.13,225.27 L 576.36,222.86 L 590.70,224.30 L 612.85,222.86 L 617.92,221.18 L 630.63,223.21 L 629.24,224.67 L 631.56,227.06 L 624.73,230.46 L 625.00,234.72 L 617.68,238.27 L 619.07,243.11 L 616.31,252.42 L 624.51,265.94 L 628.95,266.71 L 635.37,272.57 L 617.54,281.31 L 616.96,283.00 L 624.68,282.58 L 626.40,284.73 L 639.40,289.93 L 638.47,292.18 L 649.71,308.25 L 650.00,310.49 L 642.89,311.30 L 641.84,301.94 L 631.49,294.43 L 614.50,301.39 L 605.63,296.59 L 602.66,299.84 L 606.60,301.74 L 560.16,300.84 L 549.57,301.98 L 549.71,313.35 L 568.69,313.72 L 573.28,316.71 L 573.79,320.53 L 568.41,321.09 L 562.31,319.08 L 542.90,321.62 L 542.44,334.74 L 557.54,341.14 L 557.25,344.80 L 564.96,352.68 L 545.91,406.25 L 534.25,399.11 L 528.19,399.97 L 520.00,398.28 L 543.02,379.56 L 541.16,377.99 L 539.66,378.76 L 525.24,374.13 L 522.91,374.92 L 514.26,370.72 L 496.86,373.61 L 495.66,371.49 L 494.26,372.54 L 492.90,370.93 L 485.91,369.34 L 479.08,372.70 L 471.41,374.22 L 464.62,374.92 L 455.65,372.88 L 453.35,374.42 L 452.64,373.47 L 445.84,374.48 L 437.00,370.76 L 439.93,368.31 L 437.16,363.31 L 431.86,363.35 L 425.78,361.29 L 426.92,357.86 L 422.22,353.95 L 414.79,353.17 L 407.39,349.32 L 400.99,348.99 L 395.90,341.45 L 388.34,337.89 L 383.34,337.42 L 382.20,334.92 L 378.53,335.61 L 371.52,332.70 L 366.74,333.81 L 355.18,330.55 L 349.69,330.45 L 340.80,325.56 L 332.48,323.84 L 328.58,324.88 L 328.86,327.47 L 323.56,328.14 L 295.53,325.13 L 293.15,320.52 L 287.17,319.37 L 285.23,317.14 L 280.35,317.74 L 271.19,315.77 L 247.31,306.77 L 246.23,304.60 Z M 271.99,287.38 L 270.70,288.00 L 267.99,284.89 L 271.99,287.38 Z M 280.27,285.66 L 282.47,286.43 L 279.00,286.43 L 278.52,284.64 L 280.27,285.66 Z M 283.34,286.27 L 279.19,284.14 L 280.38,284.15 L 283.34,286.27 Z M 299.76,257.23 L 290.40,258.17 L 294.49,255.78 L 299.76,257.23 Z M 150.02,111.55 L 150.89,111.06 L 150.00,112.62 L 150.02,111.55 Z M 161.16,97.90 L 161.86,97.33 L 162.50,97.77 L 161.16,97.90 Z M 153.91,261.97 L 154.55,261.92 L 154.62,262.19 L 153.91,261.97 Z M 269.60,280.02 L 267.81,280.47 L 268.34,280.26 L 269.60,280.02 Z M 356.89,149.89 L 358.26,150.36 L 356.39,150.92 L 356.89,149.89 Z M 204.84,93.77 L 204.81,93.77 L 204.79,93.75 L 204.84,93.77 Z" fill="#4A90D9" stroke="#1a5fa8" stroke-width="1.2"/>
<path d="M 47.24,137.39 L 42.85,138.46 L 18.26,134.49 L 8.45,126.38 L 10.07,119.71 L 19.37,120.51 L 24.85,123.80 L 33.15,125.72 L 42.85,131.50 L 47.24,137.39 Z M 13.07,126.50 L 12.73,125.61 L 10.98,125.48 L 9.83,126.56 L 13.07,126.50 Z M 19.28,128.60 L 15.38,130.05 L 22.39,131.96 L 24.17,131.48 L 19.28,128.60 Z" fill="#A8C8E8" stroke="none"/>
<path d="M 1.76,118.27 L 0.00,118.35 L 0.00,116.11 L 1.55,115.39 L 1.76,118.27 Z" fill="#A8C8E8" stroke="none"/>
<path d="M 98.47,81.91 L 97.77,82.42 L 95.48,80.04 L 98.47,81.91 Z" fill="#A8C8E8" stroke="none"/>
<path d="M 624.69,154.45 L 616.36,154.29 L 617.67,152.71 L 623.13,152.29 L 624.69,154.45 Z" fill="#A8C8E8" stroke="none"/>
<path d="M 779.05,198.79 L 778.34,198.69 L 781.56,197.56 L 780.64,195.56 L 783.62,196.98 L 789.88,196.04 L 791.49,197.01 L 787.81,197.01 L 789.67,198.09 L 785.80,198.64 L 791.72,199.30 L 787.89,200.87 L 789.51,203.30 L 783.42,209.03 L 785.46,212.40 L 780.54,209.51 L 780.89,207.70 L 787.56,204.34 L 787.10,202.66 L 785.05,202.41 L 785.26,199.89 L 782.02,201.33 L 780.18,200.61 L 782.27,199.05 L 779.05,198.79 Z" fill="#A8C8E8" stroke="none"/>
<path d="M 641.62,158.89 L 643.34,158.48 L 647.95,159.69 L 645.10,160.62 L 641.62,158.89 Z" fill="#A8C8E8" stroke="none"/>
<path d="M 633.91,174.72 L 632.28,174.76 L 632.56,171.28 L 635.38,172.59 L 633.91,174.72 Z" fill="#A8C8E8" stroke="none"/>
<path d="M 494.39,8.04 L 490.96,8.94 L 483.97,7.40 L 483.43,6.69 L 494.39,8.04 Z" fill="#A8C8E8" stroke="none"/>
<path d="M 480.55,7.56 L 475.36,6.22 L 476.62,4.66 L 480.55,7.56 Z" fill="#A8C8E8" stroke="none"/>
<path d="M 219.75,171.32 L 218.22,172.23 L 214.83,172.24 L 213.20,173.44 L 214.65,172.29 L 210.44,171.23 L 209.43,174.01 L 207.68,172.84 L 204.90,173.56 L 213.68,168.27 L 215.52,169.72 L 212.76,170.80 L 219.75,171.32 Z" fill="#A8C8E8" stroke="none"/>
</svg>