<svg xmlns="http://www.w3.org/2000/svg" width="800" height="500" viewBox="0 0 800 500">
<rect width="800" height="500" fill="#A8C8E8"/>
<path d="M 236.56,140.27 L 237.68,142.35 L 236.92,141.47 L 236.68,143.87 L 237.77,143.04 L 244.26,154.25 L 251.54,162.26 L 255.47,164.61 L 253.93,165.50 L 250.49,163.52 L 250.51,165.42 L 248.85,166.05 L 248.89,173.01 L 252.73,175.43 L 249.17,178.33 L 250.48,183.44 L 246.92,185.85 L 248.81,187.24 L 249.81,189.81 L 249.62,190.99 L 248.38,187.72 L 245.19,185.12 L 246.21,183.76 L 244.83,180.42 L 239.40,179.10 L 242.80,182.09 L 242.80,184.99 L 237.76,183.79 L 234.94,181.20 L 237.77,177.77 L 236.59,177.88 L 237.77,176.20 L 236.73,173.28 L 226.70,165.90 L 219.56,163.92 L 217.52,157.10 L 215.47,157.10 L 216.56,156.74 L 207.80,151.56 L 209.60,155.89 L 215.23,159.51 L 210.80,164.31 L 207.63,159.88 L 201.25,158.27 L 198.10,152.46 L 198.71,147.48 L 201.81,145.62 L 200.62,145.79 L 200.97,142.55 L 196.31,140.75 L 200.44,140.23 L 199.82,138.57 L 201.19,138.27 L 202.41,135.29 L 214.06,139.99 L 218.52,137.74 L 222.68,139.81 L 224.13,139.07 L 226.99,142.80 L 230.18,142.67 L 231.79,144.00 L 236.23,142.36 L 235.65,140.09 L 236.56,140.27 Z M 211.16,155.05 L 209.38,154.45 L 210.93,154.58 L 211.16,155.05 Z M 232.38,179.09 L 232.63,179.08 L 232.47,179.34 L 232.38,179.09 Z" fill="#E8E0D0" stroke="#B8B0A0" stroke-width="0.5"/>
<path d="M 192.40,130.54 L 192.40,87.09 L 193.68,85.57 L 199.88,89.44 L 200.14,86.96 L 209.89,80.70 L 210.32,76.45 L 212.34,76.02 L 211.92,74.72 L 214.53,72.02 L 216.49,71.94 L 218.12,74.51 L 221.90,75.48 L 224.00,73.79 L 225.67,74.46 L 225.77,73.04 L 227.40,73.81 L 228.39,72.43 L 231.66,72.96 L 237.06,71.04 L 238.93,68.60 L 245.55,68.86 L 242.69,72.24 L 242.19,70.32 L 241.36,70.86 L 240.40,72.25 L 242.60,72.82 L 244.56,80.25 L 240.29,87.11 L 238.05,96.60 L 239.40,114.12 L 236.68,114.67 L 236.68,111.53 L 238.12,110.28 L 237.97,107.18 L 236.53,107.63 L 237.53,110.34 L 234.28,112.07 L 236.00,116.52 L 237.04,115.33 L 236.09,121.64 L 235.63,119.06 L 235.09,118.42 L 234.23,118.32 L 235.36,119.23 L 233.77,120.37 L 234.54,122.36 L 233.21,123.69 L 234.40,124.86 L 235.59,124.06 L 236.43,128.11 L 234.52,129.20 L 232.65,134.17 L 236.23,142.36 L 231.63,143.97 L 230.18,142.67 L 226.99,142.80 L 224.13,139.07 L 222.68,139.81 L 218.52,137.74 L 214.06,139.99 L 202.41,135.29 L 200.59,137.55 L 192.40,130.54 Z M 236.02,140.27 L 235.82,140.06 L 235.90,140.05 L 236.02,140.27 Z M 234.96,122.45 L 235.47,121.66 L 235.24,123.71 L 234.96,122.45 Z M 246.85,118.52 L 247.26,118.08 L 247.46,118.24 L 246.85,118.52 Z M 252.50,79.86 L 252.18,80.01 L 251.18,79.92 L 252.50,79.86 Z" fill="#E8E0D0" stroke="#B8B0A0" stroke-width="0.5"/>
<path d="M 595.63,15.01 L 594.93,14.95 L 597.19,14.04 L 597.19,15.59 L 595.63,15.01 Z" fill="#E8E0D0" stroke="#B8B0A0" stroke-width="0.5"/>
<path d="M 596.00,15.15 L 597.19,15.59 L 595.79,15.55 L 596.00,15.15 Z" fill="#E8E0D0" stroke="#B8B0A0" stroke-width="0.5"/>
<path d="M 506.49,119.36 L 505.64,121.02 L 504.79,117.87 L 502.78,116.92 L 503.50,115.99 L 506.38,117.43 L 506.49,119.36 Z M 598.46,25.21 L 598.22,25.57 L 597.83,25.52 L 597.55,24.50 L 598.46,25.21 Z M 593.59,22.68 L 593.33,22.94 L 593.10,22.78 L 593.59,22.68 Z" fill="#E8E0D0" stroke="#B8B0A0" stroke-width="0.5"/>
<path d="M 444.81,0.70 L 445.04,2.75 L 442.92,5.34 L 439.97,5.68 L 441.68,8.62 L 445.23,10.69 L 444.06,15.49 L 438.89,12.01 L 424.66,13.70 L 416.07,11.65 L 411.12,12.49 L 411.36,11.64 L 408.20,13.69 L 408.78,15.67 L 407.39,15.72 L 403.34,11.84 L 398.67,10.94 L 396.63,8.65 L 397.86,5.35 L 400.70,4.42 L 408.62,6.72 L 412.41,6.02 L 410.17,6.59 L 411.26,7.39 L 424.34,8.56 L 427.62,8.50 L 429.72,6.34 L 433.96,6.88 L 434.37,4.19 L 430.54,2.40 L 428.18,0.00 L 443.68,0.00 L 444.81,0.70 Z M 412.56,15.01 L 410.29,14.53 L 410.43,14.28 L 412.56,15.01 Z M 409.73,5.01 L 410.17,5.63 L 409.21,5.86 L 409.73,5.01 Z M 418.04,0.00 L 421.18,0.00 L 425.35,1.67 L 426.01,3.54 L 418.04,0.00 Z" fill="#E8E0D0" stroke="#B8B0A0" stroke-width="0.5"/>
<path d="M 504.24,6.05 L 502.11,9.90 L 499.78,9.47 L 498.77,12.41 L 497.09,12.59 L 493.95,8.95 L 477.71,7.89 L 474.82,8.96 L 472.11,12.12 L 465.45,12.60 L 464.98,9.42 L 462.81,8.64 L 458.81,11.59 L 456.16,10.84 L 456.56,13.69 L 450.34,23.11 L 448.34,20.48 L 445.75,20.30 L 446.11,17.00 L 444.06,15.49 L 445.23,10.69 L 441.68,8.62 L 439.97,5.68 L 442.92,5.34 L 445.04,2.75 L 444.81,0.70 L 443.68,0.00 L 497.92,0.00 L 504.24,6.05 Z M 448.16,23.62 L 448.52,22.82 L 449.46,23.54 L 448.16,23.62 Z M 500.08,14.29 L 496.32,12.73 L 496.89,12.71 L 500.08,14.29 Z" fill="#E8E0D0" stroke="#B8B0A0" stroke-width="0.5"/>
<path d="M 196.54,52.37 L 196.79,51.20 L 195.24,50.72 L 200.56,51.68 L 204.32,53.55 L 212.86,51.48 L 218.51,53.44 L 218.80,55.22 L 222.43,54.85 L 219.12,53.67 L 225.19,54.58 L 235.06,61.76 L 230.27,59.38 L 228.53,59.14 L 228.78,60.33 L 228.06,59.14 L 226.62,59.14 L 231.42,64.26 L 233.46,64.06 L 229.88,61.64 L 233.59,63.16 L 234.54,65.26 L 236.93,63.61 L 238.60,63.82 L 238.51,65.10 L 237.47,64.64 L 236.96,65.72 L 239.40,65.02 L 238.57,63.53 L 237.16,63.46 L 235.54,61.75 L 240.69,64.13 L 242.86,67.61 L 245.55,68.86 L 238.93,68.60 L 237.06,71.04 L 231.66,72.96 L 228.39,72.43 L 227.40,73.81 L 225.77,73.04 L 225.67,74.46 L 224.00,73.79 L 221.90,75.48 L 218.12,74.51 L 216.49,71.94 L 214.53,72.02 L 211.92,74.72 L 212.34,76.02 L 210.32,76.45 L 209.89,80.70 L 200.14,86.96 L 199.88,89.44 L 196.61,87.89 L 195.02,85.38 L 192.40,87.83 L 192.40,53.93 L 196.54,52.37 Z M 197.98,42.19 L 198.58,42.52 L 196.30,44.19 L 197.98,42.19 Z M 231.63,26.42 L 231.88,26.51 L 231.56,26.54 L 231.63,26.42 Z" fill="#E8E0D0" stroke="#B8B0A0" stroke-width="0.5"/>
<path d="M 497.15,120.50 L 492.99,119.25 L 489.69,114.63 L 497.15,120.50 Z" fill="#E8E0D0" stroke="#B8B0A0" stroke-width="0.5"/>
<path d="M 476.43,112.32 L 477.07,114.10 L 474.10,112.01 L 474.05,110.46 L 476.43,112.32 Z" fill="#E8E0D0" stroke="#B8B0A0" stroke-width="0.5"/>
<path d="M 387.57,8.90 L 387.64,9.20 L 387.38,9.22 L 387.57,8.90 Z" fill="#E8E0D0" stroke="#B8B0A0" stroke-width="0.5"/>
<path d="M 605.43,30.50 L 605.41,31.89 L 604.28,31.90 L 604.51,30.16 L 605.43,30.50 Z M 603.67,29.91 L 600.07,26.80 L 602.40,27.43 L 603.67,29.91 Z" fill="#E8E0D0" stroke="#B8B0A0" stroke-width="0.5"/>
<path d="M 568.29,21.14 L 564.36,21.75 L 564.69,20.11 L 570.24,20.54 L 568.29,21.14 Z M 567.71,10.86 L 566.01,10.42 L 566.96,9.63 L 568.47,10.27 L 567.71,10.86 Z M 564.65,10.84 L 561.81,9.98 L 563.41,9.40 L 564.65,10.84 Z" fill="#E8E0D0" stroke="#B8B0A0" stroke-width="0.5"/>
<path d="M 599.84,17.42 L 601.14,17.66 L 600.82,18.07 L 599.84,17.42 Z" fill="#E8E0D0" stroke="#B8B0A0" stroke-width="0.5"/>
<path d="M 512.30,15.24 L 511.17,14.53 L 511.48,14.17 L 512.60,14.17 L 512.30,15.24 Z M 554.07,14.65 L 552.38,14.04 L 557.71,13.77 L 554.07,14.65 Z M 557.42,10.92 L 556.69,10.20 L 558.04,10.50 L 557.42,10.92 Z M 551.98,12.40 L 549.64,12.98 L 546.11,16.70 L 541.48,17.53 L 531.52,16.14 L 524.34,17.32 L 524.91,12.61 L 522.83,9.83 L 525.79,7.01 L 538.36,7.56 L 551.67,9.36 L 551.98,12.40 Z" fill="#E8E0D0" stroke="#B8B0A0" stroke-width="0.5"/>
<path d="M 597.49,12.19 L 594.56,13.21 L 596.83,11.48 L 597.49,12.19 Z M 590.00,5.63 L 590.09,5.65 L 590.02,5.78 L 590.00,5.63 Z M 598.41,10.97 L 598.80,11.10 L 598.26,11.37 L 598.41,10.97 Z M 592.91,11.23 L 593.37,11.22 L 593.09,11.39 L 592.91,11.23 Z M 594.36,11.51 L 594.14,11.46 L 594.18,11.46 L 594.36,11.51 Z M 594.54,11.53 L 594.56,11.59 L 594.46,11.58 L 594.54,11.53 Z" fill="#E8E0D0" stroke="#B8B0A0" stroke-width="0.5"/>
<path d="M 567.53,9.41 L 568.80,8.27 L 570.98,8.47 L 567.53,9.41 Z M 572.88,8.17 L 572.26,8.41 L 572.75,7.20 L 574.32,7.20 L 572.88,8.17 Z M 573.36,3.44 L 572.87,3.12 L 574.42,3.09 L 575.28,3.89 L 573.36,3.44 Z M 570.03,10.31 L 569.47,9.94 L 569.90,9.86 L 570.03,10.31 Z M 567.25,8.50 L 566.48,8.42 L 566.58,8.29 L 567.25,8.50 Z M 570.76,7.82 L 570.63,8.07 L 570.58,7.71 L 570.76,7.82 Z" fill="#E8E0D0" stroke="#B8B0A0" stroke-width="0.5"/>
<path d="M 366.93,17.66 L 363.86,18.62 L 359.67,18.50 L 355.35,16.32 L 353.74,19.10 L 350.25,18.27 L 348.94,20.18 L 350.27,20.30 L 349.60,21.37 L 345.43,18.61 L 339.95,18.73 L 334.37,12.93 L 328.69,11.52 L 331.21,8.39 L 335.77,8.41 L 336.95,7.08 L 347.96,8.12 L 354.57,9.00 L 356.53,11.31 L 364.07,13.44 L 366.93,17.66 Z" fill="#E8E0D0" stroke="#B8B0A0" stroke-width="0.5"/>
<path d="M 300.49,54.84 L 300.52,54.87 L 300.48,54.87 L 300.49,54.84 Z" fill="#E8E0D0" stroke="#B8B0A0" stroke-width="0.5"/>
<path d="M 324.05,53.65 L 324.11,53.59 L 324.11,53.68 L 324.05,53.65 Z" fill="#E8E0D0" stroke="#B8B0A0" stroke-width="0.5"/>
<path d="M 464.20,499.74 L 465.93,497.37 L 462.33,500.00 L 435.05,500.00 L 434.68,499.15 L 425.93,497.02 L 418.90,496.99 L 423.15,492.17 L 423.08,489.55 L 416.53,482.77 L 416.43,480.69 L 413.21,478.57 L 410.98,472.51 L 408.94,471.22 L 410.21,468.55 L 404.86,464.26 L 406.15,462.60 L 405.48,460.98 L 410.20,460.07 L 408.46,456.53 L 409.39,452.75 L 420.08,445.54 L 418.56,438.55 L 423.07,431.08 L 424.10,421.96 L 428.87,420.71 L 433.40,416.03 L 441.77,411.20 L 451.28,410.16 L 453.00,408.69 L 458.18,408.86 L 460.56,405.25 L 463.81,404.13 L 464.88,405.51 L 469.33,404.61 L 471.52,408.12 L 472.69,406.67 L 474.47,408.08 L 475.61,407.21 L 485.61,352.68 L 481.61,344.80 L 481.76,341.14 L 473.92,334.74 L 474.17,321.62 L 484.24,319.08 L 487.40,321.09 L 490.19,320.53 L 489.93,316.71 L 487.55,313.72 L 477.70,313.35 L 477.63,301.98 L 483.12,300.84 L 507.23,301.74 L 505.18,299.84 L 506.72,296.59 L 511.32,301.39 L 520.14,294.43 L 525.52,301.94 L 526.06,311.30 L 529.75,310.49 L 540.06,318.85 L 542.70,319.11 L 549.50,314.85 L 552.11,314.68 L 553.49,316.80 L 552.30,319.80 L 553.83,320.38 L 556.81,315.97 L 558.98,315.73 L 560.14,312.17 L 565.34,309.64 L 567.24,310.05 L 572.86,305.49 L 573.84,307.97 L 578.39,303.47 L 579.37,298.13 L 590.30,294.23 L 590.98,292.17 L 590.77,289.47 L 579.18,288.58 L 580.06,284.31 L 576.12,277.13 L 576.47,268.88 L 568.78,262.24 L 565.80,258.07 L 566.17,256.78 L 569.71,259.68 L 577.45,259.83 L 579.36,263.83 L 585.76,262.71 L 588.57,264.32 L 591.35,262.49 L 599.43,269.47 L 601.88,267.72 L 601.59,261.40 L 605.18,261.10 L 607.50,258.55 L 607.60,258.59 L 607.60,500.00 L 464.35,500.00 L 464.20,499.74 Z" fill="#C8D8E8" stroke="#8BAABB" stroke-width="0.8"/>
<path d="M 333.15,315.77 L 337.90,317.74 L 340.43,317.14 L 341.44,319.37 L 344.54,320.52 L 345.78,325.13 L 360.33,328.14 L 363.08,327.47 L 362.93,324.88 L 364.96,323.84 L 369.28,325.56 L 373.40,330.18 L 382.74,333.81 L 376.45,334.19 L 383.14,341.47 L 382.50,345.04 L 383.72,348.95 L 380.59,347.99 L 377.68,358.90 L 368.62,369.28 L 358.24,377.08 L 337.56,384.39 L 331.81,390.94 L 332.38,392.93 L 331.29,393.45 L 329.11,391.39 L 327.91,398.44 L 323.31,407.84 L 323.48,411.77 L 319.53,414.28 L 319.51,416.90 L 316.64,419.84 L 312.46,418.96 L 309.88,416.31 L 308.89,411.43 L 306.26,409.80 L 303.20,410.50 L 297.83,407.07 L 293.58,410.46 L 291.67,409.35 L 294.24,405.58 L 292.07,405.84 L 291.68,402.36 L 294.59,402.37 L 297.39,400.17 L 295.63,392.04 L 294.31,391.03 L 301.10,388.02 L 305.06,377.44 L 302.57,369.84 L 304.38,367.11 L 302.17,369.05 L 302.09,376.55 L 299.17,377.14 L 301.51,375.51 L 299.68,375.33 L 301.15,372.41 L 300.06,372.74 L 297.22,377.31 L 295.39,377.76 L 295.81,379.83 L 288.80,374.31 L 284.30,372.61 L 282.57,369.95 L 285.06,370.58 L 287.38,367.78 L 285.32,359.80 L 287.27,355.51 L 284.37,350.26 L 286.00,348.53 L 290.31,347.94 L 292.43,342.57 L 293.65,343.47 L 295.05,343.55 L 293.43,342.91 L 291.60,338.62 L 299.38,330.36 L 300.44,325.52 L 298.38,319.74 L 298.95,317.62 L 306.30,314.33 L 306.05,315.77 L 307.01,317.11 L 306.70,314.64 L 314.86,312.64 L 316.76,310.58 L 317.91,312.29 L 319.00,310.13 L 319.48,310.25 L 320.00,309.32 L 321.03,309.53 L 319.83,308.79 L 320.76,306.77 L 333.15,315.77 Z M 301.90,379.86 L 297.99,384.93 L 295.63,384.88 L 296.59,379.73 L 299.23,378.64 L 301.90,379.86 Z M 319.52,309.63 L 318.51,310.25 L 317.84,309.36 L 319.48,307.83 L 319.52,309.63 Z M 304.25,376.53 L 302.42,378.41 L 302.34,378.02 L 303.43,375.54 L 304.25,376.53 Z" fill="#C8D8E8" stroke="#8BAABB" stroke-width="0.8"/>
<path d="M 259.32,166.47 L 259.18,170.42 L 262.32,170.55 L 260.75,171.18 L 261.06,173.98 L 263.60,175.27 L 269.23,175.11 L 266.47,171.79 L 267.36,170.91 L 273.37,177.34 L 277.47,177.88 L 285.90,175.97 L 290.15,172.64 L 298.01,170.44 L 301.09,167.51 L 301.51,168.72 L 302.53,166.97 L 303.90,167.93 L 306.74,163.38 L 318.28,164.00 L 316.75,166.02 L 327.33,166.89 L 334.60,169.91 L 337.77,173.10 L 337.69,172.12 L 343.20,179.06 L 346.20,179.94 L 344.18,183.29 L 349.87,192.66 L 347.48,193.32 L 346.09,195.56 L 346.79,196.73 L 342.59,199.87 L 339.37,196.76 L 339.94,199.84 L 336.66,204.90 L 330.14,197.01 L 327.62,190.58 L 330.84,189.54 L 329.90,187.15 L 331.75,186.79 L 332.93,184.49 L 335.20,187.44 L 337.24,187.48 L 339.12,189.57 L 339.84,189.31 L 337.33,187.33 L 334.84,186.50 L 333.70,182.60 L 332.89,181.75 L 333.60,184.39 L 332.50,183.42 L 331.04,184.87 L 331.70,184.15 L 331.34,182.09 L 331.34,183.91 L 330.74,182.82 L 328.82,184.15 L 328.11,181.99 L 328.93,184.69 L 327.98,185.35 L 324.51,178.01 L 323.85,179.18 L 316.31,174.25 L 316.35,172.96 L 315.88,172.60 L 316.54,172.42 L 316.84,171.88 L 317.28,172.11 L 318.16,171.51 L 316.84,171.76 L 315.68,172.60 L 315.73,174.16 L 310.29,173.82 L 308.81,175.84 L 307.86,174.77 L 307.90,175.94 L 304.61,177.29 L 304.70,179.36 L 303.31,180.40 L 305.58,180.22 L 304.22,181.43 L 292.06,187.73 L 291.81,190.15 L 299.36,197.96 L 299.97,201.13 L 297.91,201.69 L 295.75,201.45 L 294.91,201.69 L 292.63,204.82 L 285.21,205.53 L 281.29,195.47 L 282.42,194.71 L 281.86,193.16 L 281.26,194.37 L 279.43,194.00 L 279.30,193.47 L 278.98,193.40 L 279.91,195.30 L 278.49,195.91 L 278.98,198.46 L 275.38,197.37 L 272.74,195.80 L 272.14,191.84 L 270.41,191.05 L 269.75,188.23 L 269.15,189.43 L 266.51,187.51 L 263.29,187.51 L 262.57,188.83 L 261.48,187.76 L 262.09,185.58 L 251.17,186.41 L 249.62,190.99 L 248.81,187.24 L 246.92,185.85 L 250.48,183.44 L 249.17,178.33 L 252.73,175.43 L 248.89,173.01 L 248.85,166.05 L 250.51,165.42 L 250.49,163.52 L 254.26,165.56 L 255.28,163.95 L 259.32,166.47 Z M 269.39,204.10 L 268.92,205.18 L 268.52,204.38 L 269.39,204.10 Z M 282.22,199.05 L 278.39,200.54 L 279.74,199.82 L 282.22,199.05 Z M 272.51,203.26 L 269.75,203.02 L 267.49,200.54 L 269.51,197.84 L 272.51,203.26 Z M 261.01,188.59 L 259.79,187.83 L 260.52,187.51 L 261.01,188.59 Z M 258.55,187.86 L 257.78,187.04 L 259.19,186.45 L 258.55,187.86 Z M 316.61,187.02 L 315.62,187.93 L 315.50,186.56 L 316.61,187.02 Z M 259.31,189.44 L 259.70,189.31 L 259.75,189.85 L 259.31,189.44 Z M 315.49,184.50 L 315.69,184.07 L 316.32,184.30 L 315.49,184.50 Z M 264.01,169.00 L 262.88,169.75 L 261.61,167.93 L 264.01,169.00 Z M 260.65,166.35 L 261.01,168.27 L 260.40,167.48 L 259.57,166.83 L 260.65,166.35 Z M 320.66,185.59 L 319.44,187.75 L 318.20,183.80 L 319.65,183.56 L 320.66,185.59 Z M 308.08,177.51 L 308.26,177.99 L 307.81,177.86 L 308.08,177.51 Z M 273.23,172.25 L 273.45,172.55 L 272.80,172.49 L 273.23,172.25 Z M 264.40,170.86 L 265.13,171.58 L 264.43,171.50 L 264.40,170.86 Z" fill="#C8D8E8" stroke="#8BAABB" stroke-width="0.8"/>
<path d="M 327.99,496.16 L 326.04,494.54 L 326.55,493.14 L 325.57,494.09 L 324.56,492.91 L 325.46,492.06 L 321.88,485.87 L 321.97,482.94 L 318.81,479.91 L 318.01,476.08 L 309.61,467.29 L 307.05,459.40 L 300.20,450.18 L 280.51,437.79 L 280.17,435.13 L 281.48,433.45 L 283.84,434.57 L 285.31,431.05 L 283.99,427.78 L 279.32,423.29 L 279.95,420.92 L 281.69,420.03 L 276.89,414.00 L 277.04,410.46 L 278.18,406.53 L 286.16,397.53 L 290.90,393.42 L 295.39,391.85 L 297.39,400.17 L 294.59,402.37 L 291.68,402.36 L 292.07,405.84 L 294.24,405.58 L 291.82,409.71 L 293.58,410.46 L 297.83,407.07 L 303.20,410.50 L 306.26,409.80 L 308.89,411.43 L 309.88,416.31 L 312.46,418.96 L 316.64,419.84 L 319.51,416.90 L 319.53,414.28 L 323.48,411.77 L 323.31,407.84 L 327.91,398.44 L 329.11,391.39 L 331.29,393.45 L 332.38,392.93 L 331.81,390.94 L 337.56,384.39 L 359.28,376.45 L 368.62,369.28 L 377.68,358.90 L 380.48,348.14 L 383.72,348.83 L 382.50,345.04 L 383.14,341.47 L 376.55,333.89 L 381.68,334.55 L 384.08,332.44 L 388.86,335.61 L 390.76,334.92 L 391.35,337.42 L 393.95,337.89 L 397.87,341.45 L 400.52,348.99 L 403.83,349.32 L 407.68,353.17 L 411.53,353.95 L 413.97,357.86 L 413.38,361.29 L 416.53,363.35 L 419.29,363.31 L 420.72,368.31 L 419.20,370.76 L 423.79,374.48 L 427.32,373.47 L 427.69,374.42 L 428.88,372.88 L 433.54,374.92 L 437.06,374.22 L 441.04,372.70 L 444.58,369.34 L 448.22,370.93 L 448.92,372.54 L 449.65,371.49 L 450.27,373.61 L 457.76,370.48 L 462.76,372.78 L 463.79,374.92 L 465.00,374.13 L 468.86,375.56 L 468.74,376.80 L 470.32,376.60 L 472.48,378.76 L 473.26,377.99 L 474.23,379.55 L 462.28,398.28 L 466.53,399.97 L 469.67,399.11 L 475.24,405.27 L 475.30,407.62 L 472.69,406.67 L 471.52,408.12 L 469.33,404.61 L 464.88,405.51 L 463.81,404.13 L 460.56,405.25 L 458.18,408.86 L 453.00,408.69 L 451.28,410.16 L 441.77,411.20 L 433.40,416.03 L 428.87,420.71 L 424.10,421.96 L 423.07,431.08 L 418.56,438.55 L 420.08,445.54 L 409.39,452.75 L 408.46,456.53 L 410.20,460.07 L 405.48,460.98 L 406.15,462.60 L 404.86,464.26 L 410.21,468.55 L 408.94,471.22 L 410.98,472.51 L 413.21,478.57 L 416.43,480.69 L 416.53,482.77 L 423.08,489.55 L 423.15,492.17 L 418.90,496.99 L 425.93,497.02 L 434.68,499.15 L 435.05,500.00 L 328.67,500.00 L 327.99,496.16 Z M 465.93,497.37 L 464.20,499.74 L 464.35,500.00 L 462.33,500.00 L 465.93,497.37 Z M 285.60,445.52 L 285.17,445.53 L 284.97,444.78 L 285.54,443.88 L 285.60,445.52 Z" fill="#C8D8E8" stroke="#8BAABB" stroke-width="0.8"/>
<path d="M 607.50,258.55 L 605.18,261.10 L 601.97,261.17 L 601.88,267.72 L 599.43,269.47 L 591.35,262.49 L 588.57,264.32 L 585.76,262.71 L 579.36,263.83 L 577.45,259.83 L 569.71,259.68 L 566.17,256.78 L 565.80,258.07 L 568.78,262.24 L 576.47,268.88 L 576.12,277.13 L 580.06,284.31 L 579.18,288.58 L 590.77,289.47 L 590.98,292.17 L 590.30,294.23 L 579.37,298.13 L 578.39,303.47 L 573.84,307.97 L 572.86,305.49 L 567.24,310.05 L 565.34,309.64 L 560.14,312.17 L 558.98,315.73 L 556.81,315.97 L 553.04,320.54 L 552.26,318.97 L 553.47,316.38 L 552.11,314.68 L 549.50,314.85 L 542.70,319.11 L 540.06,318.85 L 529.75,310.49 L 523.77,292.18 L 524.25,289.93 L 517.50,284.73 L 516.61,282.58 L 512.60,283.00 L 512.90,281.31 L 522.15,272.57 L 518.83,266.71 L 516.52,265.94 L 512.27,252.42 L 513.70,243.11 L 512.97,238.27 L 516.78,234.72 L 516.63,230.46 L 520.18,227.06 L 518.98,224.67 L 519.70,223.21 L 513.10,221.18 L 510.47,222.86 L 498.97,224.30 L 491.53,222.86 L 488.29,225.27 L 486.80,223.94 L 484.84,224.54 L 472.85,209.62 L 469.54,210.22 L 462.82,207.39 L 454.41,209.80 L 446.78,208.23 L 440.25,208.92 L 438.43,207.62 L 436.54,202.44 L 431.78,200.64 L 431.56,192.70 L 434.28,189.78 L 433.27,185.37 L 428.34,180.17 L 426.32,172.06 L 423.44,172.23 L 422.49,168.88 L 418.95,171.01 L 415.83,170.65 L 422.92,159.81 L 424.15,148.92 L 431.42,136.85 L 435.48,136.26 L 440.65,127.36 L 451.38,124.05 L 451.02,125.67 L 440.84,128.60 L 442.65,135.17 L 446.68,138.71 L 444.19,138.71 L 447.55,143.87 L 446.62,148.55 L 440.69,154.66 L 437.97,159.57 L 440.17,162.57 L 441.08,164.56 L 440.36,163.36 L 440.23,166.00 L 441.56,165.28 L 442.87,166.35 L 441.88,166.43 L 441.80,167.31 L 444.79,167.31 L 443.35,169.96 L 444.61,169.89 L 445.24,172.71 L 447.88,173.33 L 453.42,171.33 L 456.54,168.33 L 457.01,161.00 L 449.42,149.47 L 447.43,142.32 L 449.83,142.55 L 450.42,140.39 L 448.87,139.67 L 471.07,132.81 L 472.41,130.73 L 474.47,131.24 L 472.29,129.00 L 478.70,131.31 L 479.60,130.14 L 478.33,126.81 L 471.41,128.29 L 471.48,125.39 L 469.83,123.92 L 471.52,119.47 L 474.80,117.94 L 477.99,121.16 L 479.53,127.88 L 481.69,130.77 L 487.87,129.57 L 494.99,131.03 L 503.03,135.46 L 505.21,140.28 L 503.50,140.39 L 505.91,140.99 L 504.28,141.96 L 505.06,144.97 L 507.82,147.96 L 512.43,148.58 L 527.35,145.79 L 540.22,145.08 L 544.23,146.40 L 542.91,147.62 L 546.39,151.56 L 561.06,155.68 L 566.44,154.93 L 567.48,152.52 L 571.83,152.15 L 573.43,151.24 L 571.91,150.68 L 576.72,148.14 L 586.05,147.84 L 579.46,146.16 L 575.93,147.48 L 575.28,144.72 L 581.50,145.45 L 583.30,144.00 L 587.82,145.48 L 594.67,143.63 L 607.60,144.25 L 607.60,147.04 L 603.40,146.57 L 598.84,147.20 L 597.31,148.56 L 600.00,147.19 L 600.45,149.38 L 597.58,149.36 L 597.43,151.68 L 598.69,151.50 L 598.50,149.41 L 601.62,149.58 L 604.03,154.22 L 603.50,155.07 L 601.39,155.00 L 600.60,155.78 L 599.22,154.70 L 597.19,154.70 L 600.98,156.59 L 601.26,155.29 L 602.45,155.67 L 604.17,154.91 L 604.84,152.58 L 607.60,158.06 L 607.60,258.59 L 607.50,258.55 Z M 581.70,142.88 L 581.60,143.61 L 579.94,142.91 L 581.70,142.88 Z M 558.95,140.65 L 558.25,140.99 L 555.33,140.29 L 558.95,140.65 Z M 583.73,139.43 L 581.80,140.99 L 578.97,141.47 L 576.94,139.54 L 572.87,139.54 L 573.54,137.88 L 576.17,137.37 L 579.16,139.14 L 580.43,136.90 L 582.69,136.60 L 583.73,139.43 Z M 533.83,125.62 L 532.73,125.24 L 534.29,124.52 L 533.83,125.62 Z M 543.05,125.29 L 541.65,124.63 L 541.91,124.53 L 543.05,125.29 Z M 570.28,123.93 L 570.17,124.65 L 568.67,124.41 L 569.40,123.20 L 570.28,123.93 Z M 532.32,125.25 L 530.58,125.88 L 530.11,125.79 L 532.32,125.25 Z M 532.60,123.75 L 530.75,123.69 L 530.80,123.66 L 532.60,123.75 Z M 516.22,121.71 L 516.42,121.78 L 515.92,121.75 L 515.77,121.61 L 516.22,121.71 Z M 515.65,120.98 L 515.69,120.94 L 515.67,120.99 L 515.65,120.98 Z M 515.72,120.91 L 515.73,120.96 L 515.72,120.94 L 515.72,120.91 Z M 515.77,120.58 L 515.74,120.65 L 515.73,120.62 L 515.77,120.58 Z M 515.66,120.35 L 515.60,120.32 L 515.65,120.31 L 515.66,120.35 Z M 515.52,120.22 L 515.55,120.25 L 515.55,120.28 L 515.52,120.22 Z M 586.25,56.52 L 586.40,56.52 L 586.39,56.63 L 586.25,56.52 Z M 607.60,155.99 L 607.60,156.36 L 607.36,155.70 L 607.52,155.65 L 607.60,155.99 Z M 603.45,151.08 L 601.33,147.87 L 601.92,148.44 L 603.45,151.08 Z M 576.96,142.50 L 576.15,142.37 L 576.46,142.00 L 576.96,142.50 Z" fill="#C8D8E8" stroke="#8BAABB" stroke-width="0.8"/>
<path d="M 320.20,304.60 L 317.38,303.20 L 320.45,299.98 L 325.26,300.67 L 325.71,298.35 L 324.61,296.36 L 323.61,297.15 L 322.95,293.52 L 325.21,289.25 L 325.47,290.16 L 329.20,285.48 L 330.79,287.34 L 330.93,285.21 L 331.61,287.42 L 332.93,288.21 L 333.75,287.80 L 333.56,285.42 L 336.12,285.02 L 336.92,286.68 L 338.05,286.92 L 339.43,286.47 L 339.59,285.85 L 338.53,283.44 L 340.69,282.96 L 340.08,282.11 L 341.61,281.60 L 340.31,280.74 L 341.89,280.51 L 341.65,279.40 L 340.11,279.62 L 344.34,275.32 L 343.26,274.99 L 344.73,273.06 L 347.15,273.70 L 346.90,270.33 L 348.11,271.05 L 347.10,269.70 L 350.66,267.41 L 349.22,266.27 L 350.53,266.44 L 350.10,265.04 L 352.18,263.24 L 348.30,264.56 L 347.48,262.31 L 349.06,262.17 L 349.42,260.59 L 348.11,259.87 L 346.68,263.00 L 345.12,261.25 L 345.27,258.60 L 347.50,258.20 L 348.60,257.11 L 345.96,255.68 L 347.26,253.50 L 347.03,248.57 L 348.22,249.42 L 346.63,246.78 L 346.07,237.15 L 342.95,235.40 L 348.43,231.35 L 344.26,223.37 L 344.28,221.52 L 345.47,222.49 L 346.07,221.41 L 346.69,216.75 L 345.54,214.51 L 343.32,215.04 L 342.36,212.16 L 340.55,211.79 L 341.10,208.87 L 337.07,205.02 L 338.39,200.78 L 339.94,199.84 L 339.37,196.76 L 342.59,199.87 L 346.79,196.73 L 346.09,195.56 L 347.48,193.32 L 349.87,192.66 L 344.18,183.29 L 345.14,180.58 L 346.58,179.86 L 347.93,182.90 L 353.39,186.92 L 353.73,189.34 L 355.66,189.20 L 354.35,192.84 L 356.97,192.94 L 356.67,184.29 L 353.65,182.03 L 364.70,174.97 L 367.27,169.72 L 371.19,166.33 L 373.50,167.19 L 376.84,166.11 L 377.62,163.16 L 375.37,161.77 L 378.42,152.29 L 375.39,154.16 L 378.68,150.92 L 378.54,149.65 L 377.58,149.53 L 378.91,147.96 L 379.07,148.89 L 379.14,147.72 L 378.61,146.40 L 383.33,144.12 L 383.02,142.56 L 390.42,137.05 L 399.97,139.12 L 396.58,139.33 L 396.76,141.59 L 394.74,141.29 L 394.72,142.80 L 395.31,141.94 L 395.67,143.15 L 396.44,143.10 L 396.27,141.70 L 398.27,143.37 L 402.50,132.95 L 417.55,133.82 L 427.19,126.55 L 435.55,123.43 L 437.72,116.94 L 440.68,116.96 L 439.88,118.03 L 441.24,118.51 L 442.40,116.94 L 440.84,116.47 L 444.82,114.24 L 445.50,115.02 L 446.60,113.93 L 444.68,114.07 L 445.82,113.22 L 453.05,115.43 L 455.64,119.78 L 455.22,121.15 L 450.47,124.72 L 440.31,127.59 L 435.48,136.26 L 431.42,136.85 L 428.21,141.51 L 424.15,148.92 L 422.92,159.81 L 415.82,171.03 L 418.95,171.01 L 422.49,168.88 L 423.44,172.23 L 426.32,172.06 L 428.34,180.17 L 433.27,185.37 L 434.28,189.78 L 431.56,192.70 L 431.78,200.64 L 436.54,202.44 L 438.43,207.62 L 440.25,208.92 L 446.78,208.23 L 454.41,209.80 L 462.82,207.39 L 469.54,210.22 L 472.85,209.62 L 484.84,224.54 L 486.80,223.94 L 488.29,225.27 L 491.53,222.86 L 498.97,224.30 L 510.47,222.86 L 513.10,221.18 L 519.70,223.21 L 518.98,224.67 L 520.18,227.06 L 516.63,230.46 L 516.78,234.72 L 512.97,238.27 L 513.70,243.11 L 512.27,252.42 L 516.52,265.94 L 518.83,266.71 L 522.15,272.57 L 512.90,281.31 L 512.60,283.00 L 516.61,282.58 L 517.50,284.73 L 524.25,289.93 L 523.77,292.18 L 529.60,308.25 L 529.75,310.49 L 526.06,311.30 L 525.52,301.94 L 520.14,294.43 L 511.32,301.39 L 506.72,296.59 L 505.18,299.84 L 507.23,301.74 L 483.12,300.84 L 477.63,301.98 L 477.70,313.35 L 487.55,313.72 L 489.93,316.71 L 490.19,320.53 L 487.40,321.09 L 484.24,319.08 L 474.17,321.62 L 473.92,334.74 L 481.76,341.14 L 481.61,344.80 L 485.61,352.68 L 475.73,406.25 L 469.67,399.11 L 466.53,399.97 L 462.28,398.28 L 474.23,379.56 L 473.26,377.99 L 472.48,378.76 L 465.00,374.13 L 463.79,374.92 L 459.30,370.72 L 450.27,373.61 L 449.65,371.49 L 448.92,372.54 L 448.22,370.93 L 444.58,369.34 L 441.04,372.70 L 437.06,374.22 L 433.54,374.92 L 428.88,372.88 L 427.69,374.42 L 427.32,373.47 L 423.79,374.48 L 419.20,370.76 L 420.72,368.31 L 419.29,363.31 L 416.53,363.35 L 413.38,361.29 L 413.97,357.86 L 411.53,353.95 L 407.68,353.17 L 403.83,349.32 L 400.52,348.99 L 397.87,341.45 L 393.95,337.89 L 391.35,337.42 L 390.76,334.92 L 388.86,335.61 L 385.22,332.70 L 382.74,333.81 L 376.74,330.55 L 373.89,330.45 L 369.28,325.56 L 364.96,323.84 L 362.93,324.88 L 363.08,327.47 L 360.33,328.14 L 345.78,325.13 L 344.54,320.52 L 341.44,319.37 L 340.43,317.14 L 337.90,317.74 L 333.15,315.77 L 320.76,306.77 L 320.20,304.60 Z M 333.56,287.38 L 332.89,288.00 L 331.49,284.89 L 333.56,287.38 Z M 337.86,285.66 L 339.00,286.43 L 337.20,286.43 L 336.95,284.64 L 337.86,285.66 Z M 339.46,286.27 L 337.30,284.14 L 337.92,284.15 L 339.46,286.27 Z M 347.98,257.23 L 343.12,258.17 L 345.24,255.78 L 347.98,257.23 Z M 270.26,111.55 L 270.71,111.06 L 270.25,112.62 L 270.26,111.55 Z M 276.04,97.90 L 276.41,97.33 L 276.74,97.77 L 276.04,97.90 Z M 272.28,261.97 L 272.61,261.92 L 272.65,262.19 L 272.28,261.97 Z M 332.32,280.02 L 331.39,280.47 L 331.67,280.26 L 332.32,280.02 Z M 377.63,149.89 L 378.34,150.36 L 377.37,150.92 L 377.63,149.89 Z M 298.71,93.77 L 298.70,93.77 L 298.69,93.75 L 298.71,93.77 Z" fill="#4A90D9" stroke="#1a5fa8" stroke-width="1.2"/>
<path d="M 216.92,137.39 L 214.64,138.46 L 201.88,134.49 L 196.79,126.38 L 197.63,119.71 L 202.46,120.51 L 205.30,123.80 L 209.60,125.72 L 214.64,131.50 L 216.92,137.39 Z M 199.19,126.50 L 199.01,125.61 L 198.10,125.48 L 197.50,126.56 L 199.19,126.50 Z M 202.41,128.60 L 200.38,130.05 L 204.02,131.96 L 204.95,131.48 L 202.41,128.60 Z" fill="#A8C8E8" stroke="none"/>
<path d="M 193.32,118.27 L 192.40,118.35 L 192.40,116.11 L 193.21,115.39 L 193.32,118.27 Z" fill="#A8C8E8" stroke="none"/>
<path d="M 243.51,81.91 L 243.14,82.42 L 241.96,80.04 L 243.51,81.91 Z" fill="#A8C8E8" stroke="none"/>
<path d="M 516.61,154.45 L 512.29,154.29 L 512.97,152.71 L 515.81,152.29 L 516.61,154.45 Z" fill="#A8C8E8" stroke="none"/>
<path d="M 596.73,198.79 L 596.35,198.69 L 598.03,197.56 L 597.55,195.56 L 599.10,196.98 L 602.35,196.04 L 603.18,197.01 L 601.27,197.01 L 602.24,198.09 L 600.23,198.64 L 603.30,199.30 L 601.31,200.87 L 602.15,203.30 L 598.99,209.03 L 600.05,212.40 L 597.50,209.51 L 597.68,207.70 L 601.14,204.34 L 600.90,202.66 L 599.84,202.41 L 599.95,199.89 L 598.27,201.33 L 597.31,200.61 L 598.40,199.05 L 596.73,198.79 Z" fill="#A8C8E8" stroke="none"/>
<path d="M 525.40,158.89 L 526.29,158.48 L 528.68,159.69 L 527.21,160.62 L 525.40,158.89 Z" fill="#A8C8E8" stroke="none"/>
<path d="M 521.40,174.72 L 520.55,174.76 L 520.70,171.28 L 522.16,172.59 L 521.40,174.72 Z" fill="#A8C8E8" stroke="none"/>
<path d="M 448.99,8.04 L 447.21,8.94 L 443.58,7.40 L 443.30,6.69 L 448.99,8.04 Z" fill="#A8C8E8" stroke="none"/>
<path d="M 441.80,7.56 L 439.11,6.22 L 439.76,4.66 L 441.80,7.56 Z" fill="#A8C8E8" stroke="none"/>
<path d="M 306.45,171.32 L 305.66,172.23 L 303.90,172.24 L 303.05,173.44 L 303.80,172.29 L 301.62,171.23 L 301.10,174.01 L 300.19,172.84 L 298.74,173.56 L 303.30,168.27 L 304.25,169.72 L 302.82,170.80 L 306.45,171.32 Z" fill="#A8C8E8" stroke="none"/>
</svg>