<svg xmlns="http://www.w3.org/2000/svg" width="800" height="500" viewBox="0 0 800 500">
<rect width="800" height="500" fill="#A8C8E8"/>
<path d="M 569.57,19.49 L 570.97,17.95 L 569.54,22.83 L 569.57,19.49 Z M 575.84,490.03 L 576.88,489.85 L 576.98,490.70 L 575.84,490.03 Z" fill="#E8E0D0" stroke="#B8B0A0" stroke-width="0.5"/>
<path d="M 310.09,63.60 L 295.09,39.56 L 246.32,1.37 L 246.38,0.00 L 261.14,0.00 L 261.44,0.27 L 265.95,0.00 L 471.64,0.00 L 473.75,27.53 L 465.30,29.23 L 465.30,19.42 L 469.75,15.50 L 469.29,5.80 L 464.84,7.22 L 467.93,15.71 L 457.85,21.12 L 463.19,35.04 L 466.41,31.30 L 463.48,51.06 L 462.02,42.98 L 460.35,40.98 L 457.68,40.68 L 461.19,43.50 L 456.26,47.09 L 458.66,53.31 L 454.52,57.46 L 458.23,61.11 L 461.91,58.63 L 464.53,71.28 L 458.59,74.70 L 452.79,90.25 L 463.91,115.86 L 449.60,120.91 L 445.12,116.82 L 435.22,117.25 L 426.32,105.56 L 421.83,107.89 L 408.89,101.41 L 395.05,108.46 L 358.87,93.75 L 353.23,100.83 L 310.09,63.60 Z M 463.23,109.33 L 462.62,108.67 L 462.88,108.64 L 463.23,109.33 Z M 459.95,53.59 L 461.53,51.11 L 460.83,57.51 L 459.95,53.59 Z M 496.87,41.28 L 498.14,39.92 L 498.76,40.42 L 496.87,41.28 Z" fill="#C8D8E8" stroke="#8BAABB" stroke-width="0.8"/>
<path d="M 535.59,191.28 L 535.17,203.65 L 544.93,204.06 L 540.04,206.02 L 541.00,214.77 L 548.89,218.83 L 566.39,218.30 L 557.81,207.93 L 560.56,205.17 L 579.22,225.28 L 591.96,226.99 L 597.83,225.65 L 597.83,276.51 L 597.63,275.73 L 596.65,275.52 L 597.83,277.93 L 597.83,282.22 L 595.14,283.38 L 596.65,291.35 L 585.46,287.94 L 577.28,283.04 L 575.42,270.64 L 570.03,268.17 L 567.98,259.37 L 566.12,263.12 L 557.94,257.09 L 547.92,257.09 L 545.70,261.24 L 542.30,257.87 L 544.19,251.06 L 510.29,253.67 L 505.47,267.99 L 502.97,256.25 L 497.08,251.91 L 508.14,244.37 L 504.09,228.40 L 515.14,219.32 L 503.20,211.75 L 503.07,189.98 L 508.25,187.99 L 508.19,182.06 L 519.88,188.42 L 523.06,183.40 L 535.59,191.28 Z M 566.86,308.99 L 565.41,312.37 L 564.18,309.88 L 566.86,308.99 Z M 594.81,297.85 L 597.83,296.24 L 597.83,296.67 L 594.81,297.85 Z M 576.57,306.37 L 567.98,305.62 L 560.98,297.85 L 567.23,289.41 L 576.57,306.37 Z M 540.85,260.49 L 537.06,258.10 L 539.33,257.09 L 540.85,260.49 Z M 533.22,258.21 L 530.81,255.63 L 535.20,253.78 L 533.22,258.21 Z M 535.57,263.12 L 536.79,262.74 L 536.92,264.41 L 535.57,263.12 Z M 550.15,199.19 L 546.66,201.56 L 542.70,195.85 L 550.15,199.19 Z M 539.73,190.91 L 540.85,196.91 L 538.96,194.46 L 536.37,192.41 L 539.73,190.91 Z M 578.78,209.38 L 579.47,210.30 L 577.45,210.10 L 578.78,209.38 Z M 551.38,205.02 L 553.63,207.26 L 551.48,207.01 L 551.38,205.02 Z" fill="#C8D8E8" stroke="#8BAABB" stroke-width="0.8"/>
<path d="M 464.93,109.33 L 468.39,115.84 L 466.04,113.08 L 465.30,120.57 L 468.67,117.99 L 488.85,153.05 L 511.43,178.10 L 523.64,185.46 L 518.87,188.25 L 508.19,182.06 L 508.25,187.99 L 503.07,189.98 L 503.20,211.75 L 515.14,219.32 L 504.09,228.40 L 508.14,244.37 L 497.08,251.91 L 502.97,256.25 L 506.08,264.28 L 505.47,267.99 L 501.62,257.75 L 491.72,249.63 L 494.88,245.38 L 490.60,234.91 L 473.76,230.79 L 484.31,240.16 L 484.31,249.22 L 468.66,245.47 L 459.91,237.37 L 468.67,226.64 L 465.02,226.99 L 468.67,221.73 L 465.45,212.60 L 434.31,189.50 L 412.14,183.30 L 405.79,161.96 L 399.42,161.96 L 402.82,160.83 L 375.63,144.66 L 381.22,158.18 L 398.68,169.52 L 384.93,184.54 L 375.08,170.68 L 355.29,165.63 L 345.50,147.47 L 347.39,131.88 L 357.03,126.06 L 353.32,126.60 L 354.39,116.45 L 339.94,110.84 L 352.75,109.21 L 350.83,104.01 L 355.09,103.08 L 358.87,93.75 L 395.05,108.46 L 408.89,101.41 L 421.83,107.89 L 426.32,105.56 L 435.22,117.25 L 445.12,116.82 L 450.11,120.99 L 463.91,115.86 L 462.09,108.75 L 464.93,109.33 Z M 386.04,155.55 L 380.52,153.68 L 385.33,154.09 L 386.04,155.55 Z M 276.36,406.25 L 279.24,403.90 L 279.19,405.18 L 276.36,406.25 Z M 451.94,230.77 L 452.72,230.73 L 452.24,231.55 L 451.94,230.77 Z" fill="#4A90D9" stroke="#1a5fa8" stroke-width="1.2"/>
<path d="M 403.94,100.32 L 396.86,103.68 L 357.23,91.25 L 341.43,65.88 L 344.02,45.02 L 359.02,47.53 L 367.84,57.80 L 381.22,63.83 L 396.86,81.89 L 403.94,100.32 Z M 348.87,66.25 L 348.32,63.47 L 345.50,63.05 L 343.65,66.43 L 348.87,66.25 Z M 358.88,72.82 L 352.58,77.35 L 363.89,83.32 L 366.76,81.82 L 358.88,72.82 Z" fill="#A8C8E8" stroke="none"/>
<path d="M 330.64,40.50 L 320.71,41.36 L 320.54,34.93 L 313.94,36.87 L 304.64,28.13 L 321.31,22.88 L 326.16,35.22 L 330.30,31.50 L 330.64,40.50 Z" fill="#A8C8E8" stroke="none"/>
</svg>