<svg xmlns="http://www.w3.org/2000/svg" width="800" height="500" viewBox="0 0 800 500">
<rect width="800" height="500" fill="#A8C8E8"/>
<path d="M 742.86,19.49 L 745.70,17.95 L 742.81,22.83 L 742.86,19.49 Z M 755.54,490.03 L 757.64,489.85 L 757.86,490.70 L 755.54,490.03 Z" fill="#E8E0D0" stroke="#B8B0A0" stroke-width="0.5"/>
<path d="M 218.20,63.60 L 187.88,39.56 L 89.27,1.37 L 89.39,0.00 L 119.24,0.00 L 119.83,0.27 L 128.96,0.00 L 544.86,0.00 L 549.12,27.53 L 532.03,29.23 L 532.03,19.42 L 541.04,15.50 L 540.09,5.80 L 531.11,7.22 L 537.34,15.71 L 516.98,21.12 L 527.76,35.04 L 534.28,31.30 L 528.35,51.06 L 525.40,42.98 L 522.03,40.98 L 516.64,40.68 L 523.72,43.50 L 513.76,47.09 L 518.60,53.31 L 510.23,57.46 L 517.73,61.11 L 525.18,58.63 L 530.47,71.28 L 518.47,74.70 L 506.74,90.25 L 529.23,115.86 L 500.30,120.91 L 491.22,116.82 L 471.20,117.25 L 453.22,105.56 L 444.13,107.89 L 417.98,101.41 L 389.99,108.46 L 316.84,93.75 L 305.43,100.83 L 218.20,63.60 Z M 527.85,109.33 L 526.61,108.67 L 527.15,108.64 L 527.85,109.33 Z M 521.21,53.59 L 524.42,51.11 L 522.99,57.51 L 521.21,53.59 Z M 595.87,41.28 L 598.44,39.92 L 599.69,40.42 L 595.87,41.28 Z" fill="#C8D8E8" stroke="#8BAABB" stroke-width="0.8"/>
<path d="M 674.16,191.28 L 673.30,203.65 L 693.03,204.06 L 683.16,206.02 L 685.11,214.77 L 701.05,218.83 L 736.42,218.30 L 719.09,207.93 L 724.65,205.17 L 762.38,225.28 L 788.14,226.99 L 800.00,225.65 L 800.00,276.51 L 799.61,275.73 L 797.62,275.52 L 800.00,277.93 L 800.00,282.22 L 794.56,283.38 L 797.62,291.35 L 775.00,287.94 L 758.44,283.04 L 754.69,270.64 L 743.80,268.17 L 739.64,259.37 L 735.89,263.12 L 719.34,257.09 L 699.10,257.09 L 694.60,261.24 L 687.72,257.87 L 691.54,251.06 L 623.01,253.67 L 613.25,267.99 L 608.20,256.25 L 596.29,251.91 L 618.66,244.37 L 610.47,228.40 L 632.82,219.32 L 608.67,211.75 L 608.41,189.98 L 618.87,187.99 L 618.75,182.06 L 642.39,188.42 L 648.82,183.40 L 674.16,191.28 Z M 737.39,308.99 L 734.46,312.37 L 731.96,309.88 L 737.39,308.99 Z M 793.90,297.85 L 800.00,296.24 L 800.00,296.67 L 793.90,297.85 Z M 757.01,306.37 L 739.64,305.62 L 725.49,297.85 L 738.14,289.41 L 757.01,306.37 Z M 684.78,260.49 L 677.13,258.10 L 681.72,257.09 L 684.78,260.49 Z M 669.36,258.21 L 664.48,255.63 L 673.36,253.78 L 669.36,258.21 Z M 674.12,263.12 L 676.58,262.74 L 676.85,264.41 L 674.12,263.12 Z M 703.59,199.19 L 696.55,201.56 L 688.54,195.85 L 703.59,199.19 Z M 682.54,190.91 L 684.78,196.91 L 680.97,194.46 L 675.73,192.41 L 682.54,190.91 Z M 761.49,209.38 L 762.89,210.30 L 758.80,210.10 L 761.49,209.38 Z M 706.09,205.02 L 710.63,207.26 L 706.29,207.01 L 706.09,205.02 Z" fill="#C8D8E8" stroke="#8BAABB" stroke-width="0.8"/>
<path d="M 531.28,109.33 L 538.28,115.84 L 533.53,113.08 L 532.03,120.57 L 538.84,117.99 L 579.65,153.05 L 625.31,178.10 L 650.00,185.46 L 640.35,188.25 L 618.75,182.06 L 618.87,187.99 L 608.41,189.98 L 608.67,211.75 L 632.82,219.32 L 610.47,228.40 L 618.66,244.37 L 596.29,251.91 L 608.20,256.25 L 614.48,264.28 L 613.25,267.99 L 605.47,257.75 L 585.45,249.63 L 591.84,245.38 L 583.20,234.91 L 549.13,230.79 L 570.46,240.16 L 570.46,249.22 L 538.83,245.47 L 521.13,237.37 L 538.84,226.64 L 531.47,226.99 L 538.84,221.73 L 532.33,212.60 L 469.36,189.50 L 424.55,183.30 L 411.70,161.96 L 398.83,161.96 L 405.71,160.83 L 350.72,144.66 L 362.03,158.18 L 397.33,169.52 L 369.53,184.54 L 349.61,170.68 L 309.60,165.63 L 289.81,147.47 L 293.63,131.88 L 313.11,126.06 L 305.62,126.60 L 307.79,116.45 L 278.57,110.84 L 304.46,109.21 L 300.57,104.01 L 309.19,103.08 L 316.84,93.75 L 389.99,108.46 L 417.98,101.41 L 444.13,107.89 L 453.22,105.56 L 471.20,117.25 L 491.22,116.82 L 501.32,120.99 L 529.23,115.86 L 525.55,108.75 L 531.28,109.33 Z M 371.78,155.55 L 360.60,153.68 L 370.34,154.09 L 371.78,155.55 Z M 150.00,406.25 L 155.82,403.90 L 155.72,405.18 L 150.00,406.25 Z M 505.03,230.77 L 506.61,230.73 L 505.62,231.55 L 505.03,230.77 Z" fill="#4A90D9" stroke="#1a5fa8" stroke-width="1.2"/>
<path d="M 407.96,100.32 L 393.64,103.68 L 313.52,91.25 L 281.57,65.88 L 286.82,45.02 L 317.14,47.53 L 334.98,57.80 L 362.03,63.83 L 393.64,81.89 L 407.96,100.32 Z M 296.62,66.25 L 295.51,63.47 L 289.81,63.05 L 286.06,66.43 L 296.62,66.25 Z M 316.85,72.82 L 304.12,77.35 L 326.98,83.32 L 332.78,81.82 L 316.85,72.82 Z" fill="#A8C8E8" stroke="none"/>
<path d="M 259.75,40.50 L 239.69,41.36 L 239.33,34.93 L 225.99,36.87 L 207.18,28.13 L 240.90,22.88 L 250.71,35.22 L 259.08,31.50 L 259.75,40.50 Z" fill="#A8C8E8" stroke="none"/>
</svg>