<svg xmlns="http://www.w3.org/2000/svg" width="800" height="500" viewBox="0 0 800 500">
<rect width="800" height="500" fill="#A8C8E8"/>
<path d="M 762.66,356.08 L 759.30,360.41 L 765.45,369.12 L 755.19,378.47 L 761.29,382.54 L 761.73,386.68 L 722.92,386.68 L 711.34,374.07 L 716.26,370.80 L 711.81,365.17 L 715.94,362.11 L 713.21,357.98 L 716.63,354.53 L 702.61,346.69 L 683.77,345.07 L 681.06,340.66 L 685.83,335.87 L 683.27,335.87 L 694.98,330.07 L 713.07,329.76 L 731.15,336.40 L 733.52,340.97 L 738.85,337.57 L 757.22,344.04 L 756.16,341.34 L 760.19,341.39 L 762.66,356.08 Z M 711.85,322.63 L 719.94,326.56 L 704.55,323.93 L 711.85,322.63 Z M 689.01,379.86 L 693.42,378.26 L 709.83,385.30 L 710.28,386.68 L 703.32,386.68 L 689.01,379.86 Z" fill="#E8E0D0" stroke="#B8B0A0" stroke-width="0.5"/>
<path d="M 764.63,332.26 L 787.25,335.22 L 795.18,330.07 L 800.00,332.42 L 800.00,386.68 L 761.73,386.68 L 761.29,382.54 L 755.19,378.47 L 765.45,369.12 L 759.30,360.41 L 762.66,356.08 L 760.19,341.39 L 764.63,332.26 Z" fill="#E8E0D0" stroke="#B8B0A0" stroke-width="0.5"/>
<path d="M 602.56,332.09 L 603.87,328.39 L 605.81,328.38 L 605.81,332.08 L 602.56,332.09 Z M 602.96,330.01 L 599.43,331.94 L 599.61,330.08 L 602.96,330.01 Z" fill="#E8E0D0" stroke="#B8B0A0" stroke-width="0.5"/>
<path d="M 4.99,247.94 L 0.00,248.49 L 0.00,247.86 L 2.92,246.61 L 43.28,255.33 L 48.76,249.24 L 36.05,250.68 L 50.01,246.24 L 63.12,255.69 L 63.72,267.06 L 67.12,269.08 L 60.93,284.45 L 35.25,315.98 L 35.08,332.48 L 32.97,337.70 L 34.63,331.27 L 33.05,328.72 L 34.13,332.48 L 24.30,345.18 L 20.88,343.30 L 24.00,351.55 L 34.75,349.17 L 30.68,347.48 L 34.79,345.07 L 36.07,347.97 L 33.96,354.07 L 23.90,361.22 L 25.61,365.71 L 33.84,360.75 L 25.61,386.68 L 7.88,386.68 L 7.23,382.92 L 5.03,386.68 L 0.00,386.68 L 0.00,248.80 L 4.99,247.94 Z M 64.55,303.23 L 55.38,314.00 L 56.64,301.80 L 66.77,297.52 L 64.55,303.23 Z M 67.21,265.17 L 67.12,262.94 L 67.77,265.16 L 69.01,267.35 L 67.21,265.17 Z" fill="#E8E0D0" stroke="#B8B0A0" stroke-width="0.5"/>
<path d="M 700.26,256.11 L 699.19,252.04 L 703.10,249.29 L 706.85,252.14 L 700.26,256.11 Z M 696.62,204.66 L 714.45,211.04 L 712.91,213.18 L 696.28,209.44 L 696.62,204.66 Z M 676.98,197.35 L 676.86,197.09 L 679.53,197.13 L 676.98,197.35 Z M 671.82,271.51 L 684.68,265.64 L 690.91,270.53 L 695.27,268.79 L 702.50,261.60 L 696.71,277.56 L 692.28,279.61 L 672.57,281.53 L 670.19,276.26 L 671.82,271.51 Z M 641.77,197.55 L 638.62,200.59 L 639.04,198.45 L 643.33,194.10 L 641.77,197.55 Z M 663.32,191.05 L 662.69,203.64 L 643.65,218.98 L 662.00,202.50 L 656.66,194.81 L 663.32,191.05 Z M 640.52,185.93 L 655.71,191.70 L 652.26,194.81 L 643.19,191.05 L 640.52,185.93 Z M 665.83,174.11 L 664.92,172.62 L 671.00,172.69 L 665.83,174.11 Z M 583.52,155.61 L 585.98,157.65 L 580.73,156.13 L 583.52,155.61 Z M 579.63,155.27 L 562.23,148.11 L 562.50,144.54 L 579.63,155.27 Z M 617.61,184.75 L 611.22,174.16 L 605.35,172.83 L 599.58,169.26 L 607.04,171.98 L 594.88,143.67 L 607.43,170.74 L 616.72,178.76 L 617.61,184.75 Z M 618.88,141.99 L 620.51,142.99 L 612.90,145.03 L 618.88,141.99 Z M 546.61,125.74 L 545.38,122.22 L 546.52,123.01 L 548.91,129.35 L 546.61,125.74 Z M 630.64,130.36 L 634.96,120.90 L 636.70,123.91 L 634.47,129.04 L 630.64,130.36 Z M 472.54,118.76 L 478.38,115.55 L 480.76,115.39 L 472.54,118.76 Z M 474.41,116.75 L 470.66,115.70 L 474.58,114.34 L 474.41,116.75 Z M 541.14,117.17 L 538.75,113.36 L 539.46,113.76 L 541.14,117.17 Z M 491.52,140.95 L 481.70,140.65 L 486.47,139.93 L 491.05,135.66 L 484.39,138.76 L 482.33,136.85 L 486.91,134.84 L 487.13,133.79 L 480.76,135.18 L 479.15,126.97 L 474.13,123.24 L 486.07,113.32 L 486.72,113.32 L 488.50,115.67 L 482.65,119.47 L 483.28,126.29 L 489.60,117.20 L 493.42,129.53 L 489.91,132.77 L 493.42,131.38 L 491.52,140.95 Z M 596.77,120.86 L 586.62,120.99 L 591.24,114.48 L 590.42,113.32 L 591.18,113.32 L 596.77,120.86 Z M 470.17,114.49 L 469.67,113.32 L 471.65,113.32 L 470.17,114.49 Z M 401.25,153.21 L 400.29,152.41 L 401.42,153.13 L 401.25,153.21 Z M 399.62,151.24 L 397.70,149.21 L 397.96,149.37 L 399.62,151.24 Z M 577.15,218.42 L 576.24,218.81 L 576.00,216.43 L 577.15,218.42 Z M 575.36,215.71 L 575.43,214.42 L 575.63,214.51 L 575.36,215.71 Z M 573.08,209.95 L 572.95,210.23 L 572.30,208.20 L 573.08,209.95 Z M 675.25,197.58 L 673.78,198.96 L 674.12,197.61 L 675.25,197.58 Z M 605.31,136.44 L 604.77,137.25 L 604.49,136.46 L 605.31,136.44 Z" fill="#E8E0D0" stroke="#B8B0A0" stroke-width="0.5"/>
<path d="M 728.93,243.42 L 726.70,245.90 L 727.53,244.17 L 728.93,243.42 Z M 768.71,240.68 L 767.90,239.76 L 772.97,241.16 L 773.96,244.20 L 768.71,240.68 Z M 755.87,234.66 L 763.82,235.38 L 766.04,238.74 L 755.87,234.66 Z M 733.68,234.35 L 743.21,236.70 L 735.47,240.00 L 733.68,234.35 Z M 748.16,229.65 L 753.08,230.08 L 755.56,235.31 L 751.08,234.13 L 751.39,230.37 L 747.95,232.26 L 748.16,229.65 Z M 789.26,253.76 L 788.52,255.78 L 788.24,253.73 L 789.26,253.76 Z M 763.75,262.10 L 764.04,262.00 L 762.88,262.72 L 763.75,262.10 Z M 766.13,261.11 L 765.86,262.60 L 765.58,262.18 L 766.13,261.11 Z M 786.32,260.58 L 785.34,261.79 L 785.08,261.61 L 786.32,260.58 Z M 772.26,252.01 L 771.12,252.91 L 770.26,251.55 L 772.17,248.93 L 772.26,252.01 Z M 743.59,234.79 L 742.81,235.09 L 743.19,234.74 L 743.59,234.79 Z M 744.94,233.84 L 744.36,234.25 L 744.27,233.90 L 744.94,233.84 Z" fill="#E8E0D0" stroke="#B8B0A0" stroke-width="0.5"/>
<path d="M 328.68,361.29 L 314.76,363.58 L 313.42,358.30 L 316.51,361.68 L 328.68,361.29 Z M 380.59,341.65 L 373.70,343.95 L 376.07,341.86 L 380.59,341.65 Z M 390.69,339.02 L 391.58,340.05 L 383.85,342.90 L 390.69,339.02 Z" fill="#E8E0D0" stroke="#B8B0A0" stroke-width="0.5"/>
<path d="M 605.93,323.93 L 597.04,332.53 L 554.60,327.35 L 485.04,335.42 L 490.57,322.57 L 512.45,308.65 L 513.89,303.83 L 506.60,298.97 L 508.66,295.32 L 501.83,291.24 L 468.41,291.58 L 448.88,275.32 L 448.40,263.82 L 437.00,245.59 L 415.53,249.97 L 395.03,242.84 L 385.84,243.42 L 383.78,239.45 L 378.79,241.39 L 358.21,225.01 L 360.95,223.43 L 356.53,217.96 L 354.04,219.33 L 357.16,225.46 L 328.59,223.24 L 323.71,213.51 L 323.22,224.51 L 321.62,220.00 L 317.06,223.09 L 308.47,217.32 L 294.55,218.12 L 278.85,207.78 L 302.55,203.25 L 302.93,199.03 L 292.10,193.71 L 251.28,192.41 L 220.96,218.26 L 213.56,215.25 L 209.14,218.98 L 197.37,218.98 L 192.56,231.50 L 182.82,231.95 L 170.41,239.11 L 170.97,230.81 L 155.07,236.32 L 150.00,233.64 L 169.81,225.12 L 180.58,226.48 L 173.31,217.32 L 184.08,198.52 L 187.23,199.20 L 191.70,191.79 L 221.98,183.91 L 229.71,177.69 L 232.34,181.26 L 237.35,176.81 L 241.83,179.13 L 276.28,168.12 L 305.80,169.94 L 308.22,175.44 L 325.78,167.22 L 319.44,171.29 L 325.78,176.05 L 329.07,172.62 L 348.26,173.33 L 351.31,170.02 L 353.18,177.42 L 358.98,180.27 L 376.80,179.81 L 382.80,185.28 L 385.27,183.57 L 388.51,182.87 L 385.54,186.70 L 395.05,189.78 L 409.38,206.97 L 435.28,208.09 L 437.47,211.79 L 438.69,208.27 L 468.44,223.19 L 476.62,233.98 L 477.92,229.20 L 480.41,229.20 L 478.45,231.96 L 482.93,237.23 L 496.62,238.61 L 497.80,244.54 L 501.64,245.48 L 496.94,237.36 L 489.28,233.27 L 491.98,231.07 L 511.50,244.20 L 510.56,249.66 L 500.85,246.82 L 505.90,249.02 L 505.76,253.55 L 510.21,253.37 L 513.61,247.10 L 526.40,257.47 L 522.91,261.96 L 526.69,257.84 L 532.89,259.54 L 529.97,263.04 L 538.75,262.94 L 535.59,266.02 L 539.09,268.06 L 542.85,266.02 L 539.64,263.22 L 546.03,263.10 L 562.23,273.52 L 577.64,271.33 L 583.45,276.58 L 575.82,282.74 L 584.71,286.12 L 574.58,285.40 L 576.69,292.38 L 580.92,288.15 L 584.71,292.94 L 589.87,290.14 L 595.74,293.91 L 598.35,293.62 L 596.59,291.01 L 610.28,292.12 L 622.44,296.67 L 638.28,312.72 L 645.55,311.00 L 650.00,314.92 L 644.09,323.57 L 618.86,325.12 L 605.81,332.08 L 605.93,323.93 Z M 455.77,301.21 L 450.01,297.01 L 451.39,296.66 L 455.77,301.21 Z M 447.77,292.60 L 446.22,291.95 L 449.06,290.56 L 447.77,292.60 Z M 434.12,289.31 L 436.72,290.87 L 434.80,291.17 L 434.12,289.31 Z M 586.70,287.86 L 587.90,290.28 L 583.48,288.70 L 586.70,287.86 Z M 430.90,286.73 L 432.27,288.52 L 426.84,286.49 L 430.90,286.73 Z M 426.52,283.53 L 425.71,285.24 L 421.50,282.35 L 426.52,283.53 Z M 419.84,281.68 L 414.81,276.95 L 418.82,278.10 L 419.84,281.68 Z M 408.66,270.90 L 411.66,273.52 L 409.43,273.62 L 408.66,270.90 Z M 309.71,246.49 L 306.75,247.26 L 307.18,246.03 L 315.46,242.16 L 309.71,246.49 Z M 258.93,250.30 L 244.51,255.49 L 236.54,253.91 L 231.31,245.90 L 242.07,249.29 L 236.22,237.44 L 240.66,230.08 L 253.88,232.84 L 260.16,245.59 L 258.93,250.30 Z M 485.18,231.95 L 473.78,222.41 L 477.38,223.75 L 480.30,222.56 L 488.36,224.81 L 485.18,231.95 Z M 476.96,212.16 L 482.65,218.64 L 481.54,218.67 L 476.96,212.16 Z M 469.33,217.62 L 471.08,215.88 L 471.29,213.27 L 470.62,211.85 L 479.49,219.66 L 477.76,222.58 L 469.33,217.62 Z M 456.99,207.41 L 464.77,206.18 L 470.94,213.52 L 456.99,207.41 Z M 446.43,204.71 L 439.36,202.27 L 439.24,200.59 L 453.11,199.67 L 458.56,205.20 L 446.43,204.71 Z M 424.98,194.85 L 421.16,194.10 L 427.00,194.68 L 424.98,194.85 Z M 401.13,191.67 L 398.74,188.31 L 395.80,187.62 L 398.83,187.53 L 407.99,193.86 L 410.07,196.85 L 401.13,191.67 Z M 383.63,180.93 L 381.26,181.34 L 380.91,180.12 L 383.63,180.93 Z M 367.39,177.24 L 368.22,179.81 L 362.85,178.45 L 367.39,177.24 Z M 371.24,173.18 L 372.87,173.46 L 368.53,173.33 L 371.24,173.18 Z M 341.71,170.18 L 340.52,171.04 L 333.99,172.28 L 341.71,170.18 Z M 356.03,169.41 L 352.08,168.89 L 353.05,167.59 L 356.03,169.41 Z M 444.70,294.72 L 444.35,294.96 L 443.07,294.25 L 444.70,294.72 Z M 442.32,294.21 L 442.25,294.49 L 441.54,294.53 L 442.32,294.21 Z M 286.90,246.96 L 281.15,248.88 L 286.59,246.08 L 286.90,246.96 Z M 290.99,246.63 L 289.56,245.99 L 289.40,245.32 L 293.25,244.24 L 290.99,246.63 Z M 258.32,230.56 L 259.09,231.16 L 256.00,230.89 L 258.32,230.56 Z M 214.95,229.44 L 212.77,229.50 L 212.06,229.18 L 214.95,229.44 Z M 307.38,225.30 L 305.45,223.90 L 305.74,223.70 L 307.38,225.30 Z M 437.27,201.44 L 436.02,201.71 L 435.92,200.58 L 437.27,201.44 Z M 262.95,198.17 L 262.25,199.70 L 261.99,195.68 L 262.95,198.17 Z M 415.21,195.54 L 417.01,195.45 L 415.64,196.46 L 415.21,195.54 Z M 391.39,184.44 L 391.54,182.56 L 391.97,183.75 L 391.39,184.44 Z M 386.92,181.80 L 386.04,182.24 L 384.90,180.38 L 386.92,181.80 Z M 376.33,176.46 L 374.55,175.38 L 375.39,174.31 L 376.33,176.46 Z M 367.36,173.56 L 364.80,171.09 L 366.34,170.82 L 367.36,173.56 Z M 361.53,170.22 L 357.67,171.39 L 358.30,170.29 L 361.53,170.22 Z M 347.73,168.49 L 346.36,168.82 L 346.80,167.64 L 347.73,168.49 Z M 346.01,168.29 L 339.09,166.82 L 340.18,166.67 L 346.01,168.29 Z M 338.30,166.24 L 335.33,164.99 L 336.71,164.58 L 338.30,166.24 Z" fill="#4A90D9" stroke="#1a5fa8" stroke-width="1.2"/>
</svg>