<svg xmlns="http://www.w3.org/2000/svg" width="800" height="500" viewBox="0 0 800 500">
<rect width="800" height="500" fill="#A8C8E8"/>
<path d="M 316.89,401.22 L 312.53,406.25 L 307.39,398.06 L 316.89,401.22 Z M 355.40,404.68 L 336.60,390.48 L 356.86,374.71 L 365.44,391.41 L 355.40,404.68 Z M 461.45,392.58 L 438.44,384.76 L 428.71,369.44 L 430.35,339.94 L 439.93,339.70 L 470.87,377.55 L 461.45,392.58 Z M 514.17,358.19 L 503.62,364.70 L 496.66,347.15 L 512.17,339.94 L 514.17,358.19 Z M 552.56,251.88 L 532.74,243.22 L 538.81,218.17 L 562.89,222.26 L 568.13,235.20 L 552.56,251.88 Z M 398.55,176.58 L 368.48,173.34 L 361.91,187.00 L 348.60,166.52 L 398.55,176.58 Z M 529.37,143.50 L 537.96,137.67 L 543.12,159.56 L 537.11,172.53 L 529.37,143.50 Z M 290.79,143.73 L 265.30,142.13 L 279.87,129.48 L 290.79,143.73 Z M 239.62,130.22 L 231.87,112.21 L 264.24,93.75 L 280.73,105.41 L 239.62,130.22 Z M 331.17,169.06 L 330.44,170.95 L 327.17,170.38 L 331.17,169.06 Z M 316.82,151.30 L 316.64,153.00 L 309.74,154.13 L 305.56,145.25 L 316.82,151.30 Z" fill="#4A90D9" stroke="#1a5fa8" stroke-width="1.2"/>
</svg>