<svg xmlns="http://www.w3.org/2000/svg" width="800" height="500" viewBox="0 0 800 500">
<rect width="800" height="500" fill="#A8C8E8"/>
<path d="M 276.42,401.22 L 269.93,406.25 L 262.29,398.06 L 276.42,401.22 Z M 333.68,404.68 L 305.73,390.48 L 335.86,374.71 L 348.61,391.41 L 333.68,404.68 Z M 491.37,392.58 L 457.16,384.76 L 442.69,369.44 L 445.13,339.94 L 459.37,339.70 L 505.38,377.55 L 491.37,392.58 Z M 569.76,358.19 L 554.07,364.70 L 543.74,347.15 L 566.80,339.94 L 569.76,358.19 Z M 626.85,251.88 L 597.38,243.22 L 606.41,218.17 L 642.21,222.26 L 650.00,235.20 L 626.85,251.88 Z M 397.84,176.58 L 353.13,173.34 L 343.35,187.00 L 323.57,166.52 L 397.84,176.58 Z M 592.37,143.50 L 605.14,137.67 L 612.81,159.56 L 603.88,172.53 L 592.37,143.50 Z M 237.61,143.73 L 199.71,142.13 L 221.37,129.48 L 237.61,143.73 Z M 161.52,130.22 L 150.00,112.21 L 198.13,93.75 L 222.65,105.41 L 161.52,130.22 Z M 297.65,169.06 L 296.57,170.95 L 291.71,170.38 L 297.65,169.06 Z M 276.31,151.30 L 276.04,153.00 L 265.78,154.13 L 259.57,145.25 L 276.31,151.30 Z" fill="#4A90D9" stroke="#1a5fa8" stroke-width="1.2"/>
</svg>