<svg xmlns="http://www.w3.org/2000/svg" width="800" height="500" viewBox="0 0 800 500">
<rect width="800" height="500" fill="#A8C8E8"/>
<path d="M 514.17,265.97 L 506.70,280.75 L 499.32,252.73 L 481.78,244.28 L 488.01,236.00 L 513.22,248.80 L 514.17,265.97 Z" fill="#E8E0D0" stroke="#B8B0A0" stroke-width="0.5"/>
<path d="M 204.82,385.76 L 216.51,367.26 L 234.52,371.80 L 215.43,351.86 L 271.42,372.46 L 279.25,362.04 L 268.20,332.31 L 207.76,345.53 L 208.34,319.71 L 193.99,306.61 L 208.68,266.94 L 237.40,253.36 L 265.25,282.07 L 278.72,341.90 L 297.58,367.61 L 351.52,356.94 L 413.70,369.93 L 483.93,409.40 L 503.00,452.34 L 488.01,453.34 L 509.05,458.67 L 494.83,467.32 L 501.68,494.15 L 506.98,500.00 L 155.66,500.00 L 155.66,401.26 L 204.82,385.76 Z M 599.12,286.95 L 600.86,287.56 L 596.54,287.26 L 595.17,286.06 L 599.12,286.95 Z M 594.15,280.42 L 594.53,280.05 L 594.33,280.53 L 594.15,280.42 Z M 594.81,279.75 L 594.90,280.24 L 594.75,280.10 L 594.81,279.75 Z M 595.20,276.88 L 594.98,277.50 L 594.85,277.21 L 595.20,276.88 Z M 594.23,274.78 L 593.71,274.53 L 594.18,274.49 L 594.23,274.78 Z M 593.04,273.66 L 593.31,273.89 L 593.27,274.20 L 593.04,273.66 Z" fill="#E8E0D0" stroke="#B8B0A0" stroke-width="0.5"/>
<path d="M 251.61,203.31 L 257.19,219.18 L 231.23,200.51 L 230.77,186.73 L 251.61,203.31 Z" fill="#E8E0D0" stroke="#B8B0A0" stroke-width="0.5"/>
<path d="M 432.56,276.16 L 396.21,264.98 L 367.44,223.84 L 432.56,276.16 Z" fill="#4A90D9" stroke="#1a5fa8" stroke-width="1.2"/>
</svg>