<svg xmlns="http://www.w3.org/2000/svg" width="800" height="500" viewBox="0 0 800 500">
<rect width="800" height="500" fill="#A8C8E8"/>
<path d="M 586.90,265.97 L 574.68,280.75 L 562.59,252.73 L 533.89,244.28 L 544.08,236.00 L 585.35,248.80 L 586.90,265.97 Z" fill="#E8E0D0" stroke="#B8B0A0" stroke-width="0.5"/>
<path d="M 80.47,385.76 L 99.62,367.26 L 129.10,371.80 L 97.83,351.86 L 189.51,372.46 L 202.32,362.04 L 184.23,332.31 L 85.29,345.53 L 86.23,319.71 L 62.74,306.61 L 86.78,266.94 L 133.80,253.36 L 179.40,282.07 L 201.45,341.90 L 232.33,367.61 L 320.63,356.94 L 422.44,369.93 L 537.41,409.40 L 568.62,452.34 L 544.08,453.34 L 578.52,458.67 L 555.25,467.32 L 566.46,494.15 L 575.13,500.00 L 0.00,500.00 L 0.00,401.26 L 80.47,385.76 Z M 725.98,286.95 L 728.83,287.56 L 721.76,287.26 L 719.51,286.06 L 725.98,286.95 Z M 717.85,280.42 L 718.47,280.05 L 718.13,280.53 L 717.85,280.42 Z M 718.92,279.75 L 719.07,280.24 L 718.83,280.10 L 718.92,279.75 Z M 719.56,276.88 L 719.21,277.50 L 718.99,277.21 L 719.56,276.88 Z M 717.98,274.78 L 717.12,274.53 L 717.89,274.49 L 717.98,274.78 Z M 716.02,273.66 L 716.46,273.89 L 716.40,274.20 L 716.02,273.66 Z" fill="#E8E0D0" stroke="#B8B0A0" stroke-width="0.5"/>
<path d="M 157.06,203.31 L 166.21,219.18 L 123.71,200.51 L 122.96,186.73 L 157.06,203.31 Z" fill="#E8E0D0" stroke="#B8B0A0" stroke-width="0.5"/>
<path d="M 453.30,276.16 L 393.79,264.98 L 346.70,223.84 L 453.30,276.16 Z" fill="#4A90D9" stroke="#1a5fa8" stroke-width="1.2"/>
</svg>