<svg xmlns="http://www.w3.org/2000/svg" width="800" height="500" viewBox="0 0 800 500">
<rect width="800" height="500" fill="#A8C8E8"/>
<path d="M 529.02,239.56 L 523.35,226.60 L 576.00,216.73 L 582.25,223.91 L 553.39,229.30 L 576.60,241.86 L 529.02,239.56 Z M 541.66,234.64 L 541.66,233.07 L 538.97,233.18 L 541.66,234.64 Z" fill="#E8E0D0" stroke="#B8B0A0" stroke-width="0.5"/>
<path d="M 593.39,45.70 L 571.42,29.87 L 525.70,57.66 L 515.45,48.98 L 491.71,59.15 L 392.87,57.66 L 304.57,74.83 L 195.01,51.26 L 117.86,0.00 L 655.51,0.00 L 593.39,45.70 Z" fill="#E8E0D0" stroke="#B8B0A0" stroke-width="0.5"/>
<path d="M 572.69,216.73 L 545.17,230.38 L 488.81,223.91 L 472.84,234.90 L 457.03,204.16 L 317.37,222.95 L 281.29,207.93 L 326.79,207.97 L 333.75,173.17 L 518.72,179.18 L 751.78,127.20 L 591.56,186.65 L 578.62,209.62 L 606.71,225.35 L 572.69,216.73 Z M 260.19,209.53 L 254.33,208.08 L 258.49,206.43 L 260.19,209.53 Z" fill="#E8E0D0" stroke="#B8B0A0" stroke-width="0.5"/>
<path d="M 606.71,225.35 L 609.13,226.41 L 586.34,227.34 L 606.71,225.35 Z M 531.51,237.58 L 483.54,228.43 L 468.34,238.79 L 457.62,210.27 L 310.14,226.11 L 281.82,214.42 L 276.53,206.62 L 317.37,222.95 L 457.03,204.16 L 470.28,234.52 L 488.81,223.91 L 531.51,237.58 Z M 262.13,211.24 L 249.84,208.37 L 260.19,209.53 L 262.13,211.24 Z" fill="#E8E0D0" stroke="#B8B0A0" stroke-width="0.5"/>
<path d="M 361.21,302.73 L 338.87,302.73 L 332.04,288.96 L 293.67,287.02 L 318.56,282.11 L 361.21,302.73 Z" fill="#E8E0D0" stroke="#B8B0A0" stroke-width="0.5"/>
<path d="M 548.69,238.55 L 543.44,237.09 L 552.23,238.79 L 548.69,238.55 Z M 538.97,233.18 L 541.66,233.07 L 541.66,234.64 L 538.97,233.18 Z M 505.05,263.17 L 344.27,293.91 L 350.52,286.35 L 318.56,282.11 L 280.48,290.72 L 218.39,278.78 L 171.58,223.94 L 207.10,228.60 L 268.59,206.09 L 310.14,226.11 L 457.62,210.27 L 468.34,238.79 L 483.54,228.43 L 529.37,237.20 L 505.05,263.17 Z M 609.13,226.41 L 628.42,240.76 L 563.16,240.99 L 554.73,227.58 L 609.13,226.41 Z" fill="#4A90D9" stroke="#1a5fa8" stroke-width="1.2"/>
</svg>