<svg xmlns="http://www.w3.org/2000/svg" width="800" height="500" viewBox="0 0 800 500">
<rect width="800" height="500" fill="#A8C8E8"/>
<path d="M 514.65,493.81 L 528.03,474.02 L 564.20,500.00 L 516.33,500.00 L 514.65,493.81 Z M 648.76,497.68 L 643.34,480.22 L 650.39,471.53 L 694.03,465.75 L 708.46,447.96 L 731.06,460.18 L 760.33,441.29 L 771.98,410.26 L 795.56,404.82 L 800.00,406.78 L 800.00,500.00 L 645.67,500.00 L 648.76,497.68 Z" fill="#E8E0D0" stroke="#B8B0A0" stroke-width="0.5"/>
<path d="M 502.84,430.49 L 525.33,475.89 L 514.65,493.81 L 516.33,500.00 L 215.75,500.00 L 217.71,495.84 L 199.50,461.37 L 248.37,429.11 L 252.00,404.29 L 271.38,410.82 L 278.72,379.97 L 297.90,401.99 L 316.43,406.16 L 326.26,395.50 L 342.35,403.94 L 351.58,378.70 L 361.89,380.42 L 365.03,349.53 L 426.92,366.62 L 446.67,382.94 L 466.87,384.91 L 478.80,375.03 L 504.95,385.95 L 510.28,400.42 L 502.84,430.49 Z" fill="#C8D8E8" stroke="#8BAABB" stroke-width="0.8"/>
<path d="M 271.38,410.82 L 252.00,404.29 L 248.37,429.11 L 199.05,462.27 L 217.71,495.84 L 215.75,500.00 L 0.00,500.00 L 0.00,0.00 L 337.42,0.00 L 346.56,15.46 L 344.90,31.60 L 363.06,43.56 L 367.99,68.59 L 363.05,90.37 L 348.54,122.36 L 337.73,117.90 L 338.92,108.43 L 333.08,109.52 L 334.86,101.53 L 328.04,93.75 L 313.64,93.80 L 310.00,100.65 L 320.62,108.41 L 318.00,113.54 L 259.55,135.40 L 251.51,149.20 L 219.07,162.38 L 214.85,173.54 L 182.12,175.48 L 166.60,204.21 L 162.10,192.14 L 150.00,184.76 L 162.63,218.82 L 183.15,236.46 L 172.75,256.89 L 191.99,296.39 L 218.35,313.35 L 231.57,335.61 L 252.32,357.46 L 263.40,357.31 L 278.72,379.97 L 271.38,410.82 Z" fill="#C8D8E8" stroke="#8BAABB" stroke-width="0.8"/>
<path d="M 646.69,266.25 L 634.05,260.55 L 629.73,236.18 L 609.99,236.10 L 588.53,218.59 L 590.75,224.13 L 576.46,227.81 L 561.17,211.08 L 557.97,203.91 L 569.67,197.07 L 566.74,185.28 L 545.74,194.16 L 506.43,169.91 L 515.45,196.94 L 489.24,212.76 L 465.79,177.85 L 455.12,173.27 L 471.87,152.94 L 464.89,143.30 L 439.02,148.40 L 438.24,138.95 L 424.98,130.87 L 392.71,126.74 L 386.32,104.41 L 377.04,96.98 L 363.47,99.36 L 365.03,116.20 L 352.33,116.28 L 367.80,64.19 L 362.29,41.82 L 344.90,31.60 L 346.56,15.46 L 337.42,0.00 L 800.00,0.00 L 800.00,310.38 L 787.36,300.05 L 759.84,301.17 L 746.39,311.60 L 740.08,328.69 L 718.63,326.05 L 719.27,300.98 L 708.74,299.87 L 696.18,275.15 L 672.83,300.84 L 659.55,301.47 L 659.47,288.41 L 650.00,286.21 L 646.69,266.25 Z" fill="#C8D8E8" stroke="#8BAABB" stroke-width="0.8"/>
<path d="M 795.56,404.82 L 774.12,409.29 L 760.33,441.29 L 731.06,460.18 L 708.46,447.96 L 694.03,465.75 L 650.39,471.53 L 643.34,480.22 L 648.76,497.68 L 645.67,500.00 L 563.01,500.00 L 539.35,476.73 L 519.51,472.08 L 502.84,430.49 L 516.23,382.50 L 526.74,368.20 L 568.16,367.81 L 593.93,344.58 L 600.23,317.92 L 627.98,289.81 L 657.33,286.96 L 659.55,301.47 L 672.83,300.84 L 695.15,274.68 L 708.74,299.87 L 719.27,300.98 L 720.50,326.81 L 740.08,328.69 L 746.39,311.60 L 759.84,301.17 L 787.36,300.05 L 800.00,310.38 L 800.00,406.78 L 795.56,404.82 Z" fill="#C8D8E8" stroke="#8BAABB" stroke-width="0.8"/>
<path d="M 365.03,116.20 L 363.47,99.36 L 377.04,96.98 L 386.32,104.41 L 392.71,126.74 L 424.98,130.87 L 438.24,138.95 L 439.02,148.40 L 464.89,143.30 L 471.87,152.94 L 455.12,173.27 L 465.79,177.85 L 489.24,212.76 L 515.45,196.94 L 506.43,169.91 L 545.74,194.16 L 566.74,185.28 L 569.67,197.07 L 557.97,203.91 L 561.17,211.08 L 576.46,227.81 L 590.75,224.13 L 588.53,218.59 L 609.99,236.10 L 629.73,236.18 L 634.05,260.55 L 646.69,266.25 L 650.00,286.21 L 627.98,289.81 L 600.23,317.92 L 593.93,344.58 L 568.16,367.81 L 526.74,368.20 L 510.28,400.42 L 504.95,385.95 L 478.80,375.03 L 466.87,384.91 L 446.67,382.94 L 426.92,366.62 L 366.65,349.30 L 361.89,380.42 L 351.58,378.70 L 342.35,403.94 L 326.26,395.50 L 315.72,406.25 L 295.38,400.80 L 263.40,357.31 L 249.98,355.57 L 218.35,313.35 L 191.99,296.39 L 172.75,256.89 L 183.15,236.46 L 162.63,218.82 L 150.25,193.89 L 150.00,184.76 L 155.41,185.19 L 166.60,204.21 L 182.12,175.48 L 214.85,173.54 L 219.07,162.38 L 251.51,149.20 L 259.55,135.40 L 318.00,113.54 L 320.62,108.41 L 310.00,100.65 L 313.64,93.80 L 328.04,93.75 L 334.86,101.53 L 333.08,109.52 L 338.92,108.43 L 337.73,117.90 L 365.03,116.20 Z" fill="#4A90D9" stroke="#1a5fa8" stroke-width="1.2"/>
<path d="M 658.00,232.21 L 646.78,234.81 L 648.85,232.21 L 658.00,232.21 Z" fill="#A8C8E8" stroke="none"/>
<path d="M 323.25,16.31 L 320.27,23.25 L 321.03,16.98 L 323.25,16.31 Z" fill="#A8C8E8" stroke="none"/>
</svg>