<svg xmlns="http://www.w3.org/2000/svg" width="800" height="500" viewBox="0 0 800 500">
<rect width="800" height="500" fill="#A8C8E8"/>
<path d="M 514.65,471.74 L 528.03,453.74 L 564.20,477.37 L 516.33,477.37 L 514.65,471.74 Z M 648.76,475.26 L 643.34,459.38 L 650.39,451.48 L 694.03,446.22 L 708.46,430.04 L 731.06,441.15 L 760.33,423.97 L 771.98,395.76 L 795.56,390.81 L 800.00,392.59 L 800.00,477.37 L 645.67,477.37 L 648.76,475.26 Z" fill="#E8E0D0" stroke="#B8B0A0" stroke-width="0.5"/>
<path d="M 502.84,414.15 L 525.33,455.44 L 514.65,471.74 L 516.33,477.37 L 215.75,477.37 L 217.71,473.59 L 199.50,442.24 L 248.37,412.90 L 252.00,390.33 L 271.38,396.26 L 278.72,368.20 L 297.90,388.23 L 316.43,392.03 L 326.26,382.33 L 342.35,390.01 L 351.58,367.05 L 361.89,368.62 L 365.03,340.52 L 426.92,356.07 L 446.67,370.91 L 466.87,372.70 L 478.80,363.71 L 504.95,373.64 L 510.28,386.81 L 502.84,414.15 Z" fill="#C8D8E8" stroke="#8BAABB" stroke-width="0.8"/>
<path d="M 271.38,396.26 L 252.00,390.33 L 248.37,412.90 L 199.05,443.06 L 217.71,473.59 L 215.75,477.37 L 0.00,477.37 L 0.00,22.63 L 337.42,22.63 L 346.56,36.69 L 344.90,51.37 L 363.06,62.24 L 367.99,85.01 L 363.05,104.81 L 348.54,133.92 L 337.73,129.86 L 338.92,121.24 L 333.08,122.23 L 334.86,114.97 L 328.04,107.89 L 313.64,107.93 L 310.00,114.17 L 320.62,121.23 L 318.00,125.89 L 259.55,145.78 L 251.51,158.32 L 219.07,170.31 L 214.85,180.46 L 182.12,182.23 L 166.60,208.36 L 162.10,197.38 L 150.00,190.66 L 162.63,221.64 L 183.15,237.69 L 172.75,256.27 L 191.99,292.19 L 218.35,307.62 L 231.57,327.86 L 252.32,347.73 L 263.40,347.60 L 278.72,368.20 L 271.38,396.26 Z" fill="#C8D8E8" stroke="#8BAABB" stroke-width="0.8"/>
<path d="M 646.69,264.78 L 634.05,259.59 L 629.73,237.43 L 609.99,237.36 L 588.53,221.43 L 590.75,226.47 L 576.46,229.81 L 561.17,214.60 L 557.97,208.08 L 569.67,201.86 L 566.74,191.14 L 545.74,199.22 L 506.43,177.16 L 515.45,201.75 L 489.24,216.13 L 465.79,184.38 L 455.12,180.22 L 471.87,161.73 L 464.89,152.96 L 439.02,157.59 L 438.24,149.00 L 424.98,141.65 L 392.71,137.90 L 386.32,117.58 L 377.04,110.83 L 363.47,113.00 L 365.03,128.31 L 352.33,128.38 L 367.80,81.01 L 362.29,60.66 L 344.90,51.37 L 346.56,36.69 L 337.42,22.63 L 800.00,22.63 L 800.00,304.92 L 787.36,295.52 L 759.84,296.54 L 746.39,306.02 L 740.08,321.57 L 718.63,319.17 L 719.27,296.36 L 708.74,295.36 L 696.18,272.87 L 672.83,296.24 L 659.55,296.81 L 659.47,284.94 L 650.00,282.93 L 646.69,264.78 Z" fill="#C8D8E8" stroke="#8BAABB" stroke-width="0.8"/>
<path d="M 795.56,390.81 L 774.12,394.87 L 760.33,423.97 L 731.06,441.15 L 708.46,430.04 L 694.03,446.22 L 650.39,451.48 L 643.34,459.38 L 648.76,475.26 L 645.67,477.37 L 563.01,477.37 L 539.35,456.21 L 519.51,451.98 L 502.84,414.15 L 516.23,370.51 L 526.74,357.51 L 568.16,357.14 L 593.93,336.02 L 600.23,311.77 L 627.98,286.21 L 657.33,283.62 L 659.55,296.81 L 672.83,296.24 L 695.15,272.44 L 708.74,295.36 L 719.27,296.36 L 720.50,319.86 L 740.08,321.57 L 746.39,306.02 L 759.84,296.54 L 787.36,295.52 L 800.00,304.92 L 800.00,392.59 L 795.56,390.81 Z" fill="#C8D8E8" stroke="#8BAABB" stroke-width="0.8"/>
<path d="M 365.03,128.31 L 363.47,113.00 L 377.04,110.83 L 386.32,117.58 L 392.71,137.90 L 424.98,141.65 L 438.24,149.00 L 439.02,157.59 L 464.89,152.96 L 471.87,161.73 L 455.12,180.22 L 465.79,184.38 L 489.24,216.13 L 515.45,201.75 L 506.43,177.16 L 545.74,199.22 L 566.74,191.14 L 569.67,201.86 L 557.97,208.08 L 561.17,214.60 L 576.46,229.81 L 590.75,226.47 L 588.53,221.43 L 609.99,237.36 L 629.73,237.43 L 634.05,259.59 L 646.69,264.78 L 650.00,282.93 L 627.98,286.21 L 600.23,311.77 L 593.93,336.02 L 568.16,357.14 L 526.74,357.51 L 510.28,386.81 L 504.95,373.64 L 478.80,363.71 L 466.87,372.70 L 446.67,370.91 L 426.92,356.07 L 366.65,340.31 L 361.89,368.62 L 351.58,367.05 L 342.35,390.01 L 326.26,382.33 L 315.72,392.11 L 295.38,387.15 L 263.40,347.60 L 249.98,346.02 L 218.35,307.62 L 191.99,292.19 L 172.75,256.27 L 183.15,237.69 L 162.63,221.64 L 150.25,198.97 L 150.00,190.66 L 155.41,191.06 L 166.60,208.36 L 182.12,182.23 L 214.85,180.46 L 219.07,170.31 L 251.51,158.32 L 259.55,145.78 L 318.00,125.89 L 320.62,121.23 L 310.00,114.17 L 313.64,107.93 L 328.04,107.89 L 334.86,114.97 L 333.08,122.23 L 338.92,121.24 L 337.73,129.86 L 365.03,128.31 Z" fill="#4A90D9" stroke="#1a5fa8" stroke-width="1.2"/>
<path d="M 658.00,233.82 L 646.78,236.18 L 648.85,233.82 L 658.00,233.82 Z" fill="#A8C8E8" stroke="none"/>
<path d="M 323.25,37.46 L 320.27,43.77 L 321.03,38.07 L 323.25,37.46 Z" fill="#A8C8E8" stroke="none"/>
</svg>