<svg xmlns="http://www.w3.org/2000/svg" width="800" height="500" viewBox="0 0 800 500">
<rect width="800" height="500" fill="#A8C8E8"/>
<path d="M 1.10,265.60 L 8.84,275.71 L 27.24,277.73 L 32.07,284.88 L 48.79,283.04 L 59.40,286.48 L 55.48,291.70 L 60.07,294.43 L 55.80,297.84 L 83.85,297.46 L 93.11,290.37 L 96.19,291.23 L 91.39,298.51 L 95.55,300.31 L 94.94,305.09 L 117.32,309.21 L 128.06,316.93 L 143.90,314.90 L 155.59,319.24 L 179.71,318.27 L 196.68,330.56 L 207.63,328.65 L 214.62,332.62 L 227.27,332.72 L 234.70,330.16 L 246.95,335.42 L 277.79,338.59 L 256.51,352.37 L 253.26,363.34 L 244.26,371.83 L 246.19,378.17 L 240.23,388.76 L 244.28,393.68 L 232.95,399.85 L 210.84,397.51 L 205.02,402.92 L 214.29,403.91 L 194.04,416.27 L 181.89,419.36 L 181.16,426.71 L 164.20,433.82 L 160.70,440.40 L 165.11,442.36 L 162.87,447.07 L 155.27,449.20 L 155.49,451.98 L 165.39,451.19 L 173.08,447.59 L 169.42,444.57 L 172.42,442.18 L 184.09,439.23 L 200.68,440.61 L 198.68,443.36 L 202.90,446.41 L 199.51,451.14 L 213.51,460.21 L 201.43,464.17 L 201.17,468.51 L 221.07,480.83 L 215.33,488.74 L 190.62,493.16 L 197.41,500.00 L 0.00,500.00 L 0.00,265.73 L 1.10,265.60 Z" fill="#E8E0D0" stroke="#B8B0A0" stroke-width="0.5"/>
<path d="M 728.95,5.14 L 735.18,14.38 L 727.35,14.11 L 725.62,24.24 L 729.09,25.11 L 716.80,30.52 L 705.45,46.05 L 695.27,52.81 L 691.83,52.01 L 693.89,49.89 L 680.79,47.90 L 668.74,50.62 L 633.79,49.55 L 631.46,51.58 L 636.12,55.04 L 621.37,54.65 L 607.04,61.78 L 604.92,67.28 L 614.29,74.50 L 604.12,80.70 L 530.55,81.03 L 538.89,78.41 L 535.17,74.43 L 542.67,68.54 L 535.45,66.32 L 535.64,62.93 L 509.74,44.07 L 529.55,46.81 L 519.03,39.46 L 533.68,38.02 L 536.09,34.34 L 532.68,30.24 L 525.04,30.33 L 517.76,23.36 L 504.56,19.24 L 495.55,7.66 L 490.64,6.69 L 492.97,3.75 L 487.83,2.10 L 491.04,0.37 L 490.66,0.00 L 736.79,0.00 L 728.95,5.14 Z M 483.97,2.29 L 479.84,0.37 L 479.87,0.00 L 486.19,0.00 L 483.97,2.29 Z M 752.39,14.66 L 732.89,44.00 L 726.74,47.54 L 726.24,32.80 L 737.23,21.30 L 743.26,20.03 L 756.09,3.97 L 764.71,3.38 L 752.39,14.66 Z M 686.81,53.30 L 683.84,52.08 L 685.30,51.31 L 686.81,53.30 Z" fill="#E8E0D0" stroke="#B8B0A0" stroke-width="0.5"/>
<path d="M 790.17,459.77 L 776.76,458.99 L 749.06,441.90 L 731.47,437.10 L 723.46,431.43 L 721.11,423.56 L 708.49,422.62 L 718.36,416.95 L 729.90,417.18 L 726.53,416.15 L 731.16,411.61 L 725.88,409.62 L 729.18,406.02 L 727.04,401.21 L 738.33,398.96 L 740.96,395.55 L 737.75,392.18 L 725.61,390.61 L 734.34,386.88 L 746.87,390.04 L 762.03,388.71 L 758.14,382.51 L 768.00,376.21 L 800.00,386.13 L 800.00,464.22 L 790.17,459.77 Z" fill="#E8E0D0" stroke="#B8B0A0" stroke-width="0.5"/>
<path d="M 798.41,386.43 L 776.36,377.08 L 761.72,375.60 L 749.43,362.37 L 759.30,347.10 L 767.06,342.56 L 797.60,342.43 L 800.00,341.50 L 800.00,386.42 L 798.41,386.43 Z" fill="#E8E0D0" stroke="#B8B0A0" stroke-width="0.5"/>
<path d="M 220.68,462.16 L 241.82,457.85 L 258.34,460.45 L 272.90,452.12 L 271.63,446.32 L 288.64,439.08 L 290.77,447.78 L 311.00,453.62 L 308.76,457.89 L 314.38,459.34 L 315.97,464.17 L 321.56,464.40 L 324.87,461.27 L 321.54,455.64 L 333.69,447.95 L 336.83,437.27 L 345.14,437.23 L 350.69,445.24 L 371.54,442.33 L 380.12,448.39 L 384.66,446.69 L 380.99,444.03 L 383.67,441.06 L 377.42,439.32 L 377.77,435.85 L 386.47,432.08 L 400.21,435.65 L 401.03,432.21 L 396.13,430.26 L 400.75,422.56 L 430.38,426.38 L 440.07,418.57 L 470.64,418.30 L 494.97,413.70 L 492.03,420.77 L 499.66,422.41 L 507.21,429.54 L 577.92,436.38 L 559.60,445.57 L 562.05,448.88 L 574.45,449.98 L 564.87,456.96 L 572.73,457.80 L 570.55,464.02 L 582.16,467.50 L 588.49,471.98 L 585.93,473.87 L 578.51,473.52 L 583.76,472.68 L 571.00,465.65 L 561.59,470.23 L 559.83,467.45 L 546.18,466.36 L 544.31,471.57 L 508.23,479.74 L 516.85,475.14 L 506.76,475.69 L 493.54,484.74 L 497.69,489.12 L 501.88,488.06 L 505.23,496.87 L 505.23,494.68 L 514.24,498.51 L 513.03,500.00 L 197.41,500.00 L 190.62,493.16 L 218.21,486.92 L 221.07,480.83 L 211.36,476.82 L 210.30,471.62 L 200.41,466.14 L 213.51,460.21 L 220.68,462.16 Z M 506.34,479.93 L 508.62,480.64 L 502.65,483.35 L 506.34,479.93 Z M 504.96,479.28 L 504.87,479.74 L 502.61,480.07 L 504.96,479.28 Z" fill="#E8E0D0" stroke="#B8B0A0" stroke-width="0.5"/>
<path d="M 355.02,412.84 L 353.14,414.84 L 347.45,414.56 L 349.86,406.58 L 355.02,412.84 Z" fill="#E8E0D0" stroke="#B8B0A0" stroke-width="0.5"/>
<path d="M 749.06,441.90 L 773.75,457.83 L 790.17,459.77 L 800.00,464.22 L 800.00,493.02 L 795.28,490.73 L 768.13,491.35 L 753.79,485.90 L 747.65,490.04 L 732.22,488.40 L 720.61,497.26 L 704.47,488.73 L 692.03,489.70 L 689.90,500.00 L 644.29,500.00 L 644.52,498.96 L 640.76,493.55 L 625.38,485.53 L 611.23,483.52 L 602.49,498.21 L 597.99,499.33 L 598.81,497.85 L 596.43,495.75 L 595.40,500.00 L 580.80,500.00 L 573.68,494.38 L 579.30,491.92 L 572.19,491.48 L 572.93,484.47 L 567.34,476.78 L 588.18,480.32 L 592.70,476.69 L 614.57,478.15 L 625.93,470.53 L 637.73,478.66 L 644.58,476.66 L 656.39,480.07 L 666.54,479.15 L 663.45,473.19 L 669.19,471.64 L 662.71,468.30 L 685.68,463.56 L 686.88,455.76 L 680.98,452.66 L 683.71,448.89 L 704.41,445.23 L 706.52,442.08 L 718.40,442.25 L 716.18,437.43 L 722.14,435.28 L 749.06,441.90 Z M 616.68,499.06 L 609.43,492.76 L 611.35,490.39 L 620.07,498.45 L 620.34,500.00 L 613.53,500.00 L 616.68,499.06 Z M 617.43,493.81 L 623.16,491.90 L 624.18,487.34 L 638.70,498.21 L 633.70,499.58 L 617.43,493.81 Z" fill="#E8E0D0" stroke="#B8B0A0" stroke-width="0.5"/>
<path d="M 570.70,475.69 L 588.49,471.98 L 571.39,464.86 L 572.73,457.80 L 564.87,456.96 L 574.45,449.98 L 562.05,448.88 L 559.60,445.57 L 577.92,436.38 L 623.72,442.03 L 640.63,433.11 L 652.18,431.17 L 674.04,432.57 L 683.50,428.44 L 695.21,428.17 L 704.27,430.32 L 701.83,424.31 L 708.49,422.62 L 721.11,423.56 L 723.90,431.99 L 730.68,435.37 L 717.76,436.53 L 718.40,442.25 L 706.52,442.08 L 704.41,445.23 L 683.71,448.89 L 680.98,452.66 L 686.88,455.76 L 685.68,463.56 L 662.71,468.30 L 669.19,471.64 L 663.45,473.19 L 666.54,479.15 L 656.39,480.07 L 644.58,476.66 L 637.73,478.66 L 625.93,470.53 L 614.57,478.15 L 574.75,478.89 L 570.70,475.69 Z" fill="#E8E0D0" stroke="#B8B0A0" stroke-width="0.5"/>
<path d="M 692.03,489.70 L 704.47,488.73 L 720.61,497.26 L 732.22,488.40 L 747.65,490.04 L 753.79,485.90 L 768.13,491.35 L 795.28,490.73 L 800.00,493.02 L 800.00,500.00 L 689.90,500.00 L 692.03,489.70 Z" fill="#E8E0D0" stroke="#B8B0A0" stroke-width="0.5"/>
<path d="M 749.43,362.37 L 766.01,376.81 L 758.14,382.51 L 762.03,388.71 L 746.87,390.04 L 734.34,386.88 L 725.61,390.61 L 737.75,392.18 L 740.96,395.55 L 738.33,398.96 L 727.04,401.21 L 729.18,406.02 L 725.88,409.62 L 731.16,411.61 L 726.53,416.15 L 729.90,417.18 L 718.36,416.95 L 702.36,424.03 L 704.27,430.32 L 695.21,428.17 L 683.50,428.44 L 674.04,432.57 L 652.18,431.17 L 640.63,433.11 L 623.72,442.03 L 507.21,429.54 L 499.66,422.41 L 492.03,420.77 L 494.97,413.70 L 470.64,418.30 L 440.07,418.57 L 430.38,426.38 L 402.52,423.28 L 396.36,417.27 L 382.06,423.25 L 369.17,420.03 L 368.24,416.50 L 353.14,414.84 L 349.86,406.58 L 356.86,400.69 L 351.30,395.69 L 364.10,393.53 L 377.22,397.56 L 380.51,402.72 L 387.40,402.19 L 384.71,406.25 L 399.35,401.24 L 399.41,393.99 L 422.84,395.84 L 429.43,401.46 L 443.48,401.33 L 464.40,393.48 L 494.58,392.86 L 494.75,388.82 L 498.33,387.77 L 498.14,389.90 L 512.20,391.91 L 526.69,390.38 L 527.61,394.88 L 539.77,398.44 L 543.60,390.68 L 533.78,388.11 L 539.19,383.16 L 525.76,372.19 L 561.80,361.93 L 564.47,354.03 L 578.77,356.11 L 584.18,346.30 L 598.32,353.30 L 611.99,354.63 L 619.23,351.24 L 631.10,353.92 L 637.90,345.89 L 645.50,346.44 L 647.82,336.62 L 693.46,342.05 L 708.02,347.24 L 722.91,347.87 L 731.71,344.73 L 750.99,348.20 L 754.92,352.80 L 749.43,362.37 Z" fill="#C8D8E8" stroke="#8BAABB" stroke-width="0.8"/>
<path d="M 13.12,241.70 L 15.42,246.85 L 27.31,245.10 L 44.63,248.48 L 60.70,241.99 L 65.44,245.87 L 62.86,241.94 L 71.05,242.44 L 72.04,238.22 L 83.00,239.98 L 91.10,236.88 L 93.50,240.16 L 90.20,240.17 L 98.28,241.03 L 104.68,237.63 L 114.93,246.37 L 130.09,245.26 L 148.42,250.47 L 137.25,263.55 L 171.33,272.20 L 167.06,276.07 L 176.12,277.55 L 178.17,284.19 L 166.31,287.91 L 164.15,292.01 L 155.64,290.20 L 142.40,301.19 L 151.49,311.13 L 148.87,314.44 L 128.06,316.93 L 117.32,309.21 L 94.94,305.09 L 95.55,300.31 L 91.39,298.51 L 95.68,290.92 L 73.97,299.42 L 55.80,297.84 L 60.07,294.43 L 55.48,291.70 L 59.40,286.48 L 48.79,283.04 L 32.07,284.88 L 27.24,277.73 L 8.84,275.71 L 1.10,265.60 L 0.00,265.73 L 0.00,245.05 L 13.12,241.70 Z" fill="#C8D8E8" stroke="#8BAABB" stroke-width="0.8"/>
<path d="M 647.82,262.40 L 646.67,257.04 L 656.68,256.28 L 663.52,258.64 L 668.23,265.75 L 692.02,267.06 L 701.80,269.63 L 702.38,272.64 L 721.45,271.02 L 726.60,274.08 L 714.25,280.55 L 722.11,282.01 L 739.40,293.11 L 758.73,288.08 L 752.08,279.48 L 781.06,287.19 L 796.55,284.37 L 798.71,288.12 L 790.08,290.29 L 792.44,292.57 L 800.00,296.14 L 800.00,341.50 L 797.60,342.43 L 767.06,342.56 L 754.92,352.80 L 750.99,348.20 L 731.71,344.73 L 722.91,347.87 L 708.02,347.24 L 693.46,342.05 L 649.01,336.54 L 645.50,346.44 L 637.90,345.89 L 631.10,353.92 L 619.23,351.24 L 611.46,354.66 L 596.46,352.92 L 572.88,339.09 L 562.99,338.54 L 539.66,325.11 L 520.22,319.71 L 506.04,307.15 L 513.70,300.65 L 498.58,295.04 L 489.45,287.11 L 489.26,284.20 L 493.26,284.34 L 501.50,290.39 L 512.95,281.25 L 537.08,280.63 L 540.20,277.09 L 564.11,272.89 L 570.04,268.50 L 613.14,261.55 L 615.07,259.92 L 607.24,257.45 L 609.92,255.27 L 620.54,255.25 L 625.57,257.73 L 624.26,260.27 L 628.57,259.92 L 627.69,262.94 L 647.82,262.40 Z" fill="#C8D8E8" stroke="#8BAABB" stroke-width="0.8"/>
<path d="M 304.07,91.03 L 291.90,92.22 L 293.54,88.46 L 304.48,90.69 L 300.56,78.81 L 290.97,77.77 L 283.95,73.01 L 279.90,74.00 L 283.96,77.55 L 272.06,74.36 L 276.77,67.14 L 273.83,56.77 L 277.43,63.82 L 288.32,59.92 L 282.27,53.23 L 275.03,51.82 L 272.75,55.30 L 276.61,29.33 L 278.86,27.84 L 283.63,34.05 L 297.73,33.07 L 306.51,36.90 L 308.47,33.69 L 304.07,31.16 L 324.87,23.70 L 331.03,27.87 L 324.73,33.59 L 329.91,29.76 L 336.50,30.90 L 335.08,33.07 L 339.22,35.01 L 341.76,33.61 L 337.45,33.78 L 338.10,28.39 L 330.65,28.66 L 334.66,26.32 L 330.97,23.96 L 332.35,18.63 L 371.39,13.83 L 364.84,11.92 L 334.81,16.09 L 327.67,13.83 L 303.94,18.08 L 293.67,24.43 L 295.62,28.40 L 289.14,28.66 L 298.85,28.66 L 297.39,32.50 L 286.08,28.49 L 283.34,25.65 L 280.16,25.11 L 280.28,28.05 L 279.75,25.36 L 280.39,23.70 L 300.58,11.26 L 343.91,9.55 L 360.84,0.00 L 405.74,0.00 L 405.40,6.69 L 394.93,15.77 L 375.69,12.46 L 372.00,13.83 L 393.10,16.87 L 390.49,19.88 L 394.57,27.51 L 383.98,27.31 L 365.40,30.61 L 394.22,28.06 L 394.56,31.40 L 387.68,33.89 L 385.99,37.45 L 394.01,32.09 L 401.63,35.39 L 420.85,34.86 L 428.59,38.30 L 425.73,42.88 L 416.29,50.08 L 410.28,46.75 L 405.89,52.22 L 395.34,48.17 L 402.79,47.60 L 403.53,45.14 L 397.98,44.32 L 388.00,50.35 L 391.13,55.56 L 385.92,62.94 L 368.75,62.21 L 378.48,63.74 L 376.27,68.26 L 351.78,67.84 L 368.01,71.24 L 348.60,76.75 L 357.44,77.21 L 353.44,79.23 L 360.18,86.40 L 347.96,90.11 L 351.96,92.95 L 345.12,94.86 L 361.31,96.55 L 362.12,102.94 L 354.98,99.07 L 338.72,104.32 L 302.92,100.53 L 304.07,91.03 Z M 474.78,110.20 L 456.43,111.36 L 430.50,104.92 L 436.45,103.12 L 432.32,99.61 L 443.19,97.92 L 463.00,103.94 L 465.98,99.84 L 476.67,107.12 L 474.78,110.20 Z M 404.28,102.30 L 396.91,103.16 L 386.31,97.27 L 404.28,102.30 Z M 515.22,98.09 L 491.39,100.09 L 500.76,96.80 L 498.80,93.93 L 515.22,98.09 Z M 379.50,101.14 L 373.46,101.88 L 364.03,99.70 L 362.79,97.10 L 367.67,98.45 L 365.02,95.71 L 355.71,94.04 L 364.72,93.13 L 379.50,101.14 Z M 428.19,90.21 L 413.84,106.98 L 408.78,102.85 L 428.19,90.21 Z M 652.76,96.70 L 631.56,92.31 L 635.75,83.97 L 657.06,91.03 L 652.76,96.70 Z M 288.82,81.13 L 287.29,77.79 L 292.15,79.23 L 292.86,82.52 L 288.82,81.13 Z M 379.58,92.67 L 384.50,90.75 L 376.18,88.46 L 377.39,91.33 L 375.20,91.25 L 369.70,82.38 L 359.81,77.59 L 365.74,78.69 L 358.32,76.50 L 392.77,71.58 L 404.29,74.98 L 398.88,77.97 L 401.71,78.61 L 409.22,76.62 L 410.23,71.77 L 416.49,76.82 L 407.16,77.88 L 406.22,78.63 L 414.07,78.72 L 421.51,84.73 L 418.16,84.86 L 418.73,91.39 L 412.34,93.79 L 379.58,92.67 Z M 521.92,72.26 L 515.46,74.30 L 513.49,71.54 L 518.71,68.78 L 521.92,72.26 Z M 404.11,58.23 L 405.67,56.36 L 412.50,61.09 L 407.75,65.91 L 403.90,63.28 L 404.11,58.23 Z M 494.40,102.85 L 482.97,108.64 L 482.33,113.67 L 477.97,110.02 L 480.21,107.53 L 469.37,98.74 L 478.72,97.10 L 464.15,92.67 L 475.70,94.34 L 469.70,91.33 L 474.58,90.48 L 469.70,88.02 L 444.79,88.33 L 440.92,82.52 L 435.34,81.99 L 442.24,80.18 L 434.96,75.80 L 438.50,73.27 L 426.73,69.60 L 435.34,69.90 L 423.76,66.59 L 441.06,68.29 L 458.11,61.54 L 456.60,58.63 L 447.16,57.57 L 445.42,56.41 L 472.47,57.46 L 466.73,60.00 L 469.70,63.85 L 463.71,64.97 L 470.86,64.40 L 472.16,66.32 L 466.41,67.07 L 473.10,69.90 L 482.58,62.15 L 481.55,58.94 L 487.94,66.83 L 480.21,69.90 L 488.40,70.15 L 490.30,67.14 L 486.54,58.63 L 477.78,57.37 L 498.49,51.11 L 519.04,54.52 L 513.08,59.15 L 517.97,67.96 L 495.92,76.82 L 510.48,84.73 L 485.91,89.66 L 494.77,92.15 L 493.24,96.60 L 479.50,96.55 L 479.12,99.19 L 494.40,102.85 Z M 458.97,27.59 L 465.98,27.02 L 462.25,28.96 L 458.97,27.59 Z M 302.78,29.09 L 294.94,26.68 L 303.35,23.16 L 302.42,20.42 L 317.54,17.12 L 311.92,26.45 L 302.78,29.09 Z M 441.27,4.04 L 434.18,4.50 L 432.12,8.09 L 422.64,5.57 L 438.31,2.86 L 441.27,4.04 Z" fill="#C8D8E8" stroke="#8BAABB" stroke-width="0.8"/>
<path d="M 169.89,301.36 L 174.25,303.46 L 175.99,303.25 L 179.40,304.51 L 182.97,304.64 L 184.87,304.88 L 185.16,305.03 L 176.58,318.68 L 155.59,319.24 L 146.32,315.37 L 151.49,311.13 L 142.40,301.19 L 155.64,290.20 L 164.15,292.01 L 169.89,301.36 Z" fill="#C8D8E8" stroke="#8BAABB" stroke-width="0.8"/>
<path d="M 222.82,176.64 L 214.30,190.70 L 197.95,191.20 L 194.39,194.93 L 196.74,198.15 L 210.84,198.55 L 214.93,202.01 L 213.74,207.40 L 194.46,214.64 L 201.97,218.23 L 176.56,223.82 L 164.67,220.79 L 166.26,222.98 L 154.00,224.04 L 168.94,238.36 L 160.83,248.26 L 165.77,250.64 L 149.69,255.03 L 150.90,258.13 L 161.22,260.45 L 157.46,266.77 L 141.73,266.60 L 137.25,263.55 L 148.42,250.47 L 130.09,245.26 L 114.93,246.37 L 104.68,237.63 L 98.28,241.03 L 90.20,240.17 L 93.50,240.16 L 91.10,236.88 L 83.00,239.98 L 74.97,237.73 L 69.19,238.99 L 70.01,242.70 L 48.55,238.58 L 39.18,241.07 L 18.66,235.51 L 40.49,232.26 L 54.33,238.87 L 64.07,238.79 L 47.97,233.08 L 59.92,233.08 L 54.78,231.11 L 58.27,229.25 L 41.10,224.03 L 52.85,222.92 L 49.47,217.14 L 56.35,216.43 L 76.34,203.16 L 89.29,177.86 L 96.29,180.41 L 107.44,178.40 L 123.87,172.65 L 135.45,164.42 L 156.69,160.28 L 202.98,158.49 L 206.87,162.45 L 222.92,166.73 L 222.82,176.64 Z M 23.59,240.04 L 39.56,242.98 L 47.75,240.29 L 60.70,241.99 L 55.10,245.82 L 38.18,248.51 L 27.31,245.10 L 15.42,246.85 L 13.12,241.70 L 23.59,240.04 Z M 54.04,230.52 L 31.52,228.97 L 38.48,226.75 L 54.04,230.52 Z M 92.03,176.54 L 87.23,175.42 L 95.23,169.03 L 97.32,172.11 L 92.03,176.54 Z M 102.44,164.93 L 108.90,164.14 L 98.27,168.04 L 102.44,164.93 Z M 135.11,158.37 L 112.32,161.79 L 116.83,160.26 L 135.11,158.37 Z M 153.04,157.56 L 155.26,158.07 L 137.88,158.57 L 153.04,157.56 Z M 174.70,155.94 L 176.22,156.43 L 164.69,158.12 L 174.70,155.94 Z M 182.57,154.18 L 185.57,154.76 L 184.82,155.06 L 182.57,154.18 Z" fill="#C8D8E8" stroke="#8BAABB" stroke-width="0.8"/>
<path d="M 792.44,292.57 L 790.08,290.29 L 798.71,288.12 L 796.55,284.37 L 781.06,287.19 L 752.08,279.48 L 758.73,288.08 L 739.40,293.11 L 722.11,282.01 L 714.25,280.55 L 726.60,274.08 L 721.45,271.02 L 702.38,272.64 L 701.80,269.63 L 692.02,267.06 L 668.23,265.75 L 663.52,258.64 L 656.68,256.28 L 646.67,257.04 L 647.82,262.40 L 638.45,262.42 L 649.86,245.85 L 645.80,238.74 L 632.98,235.49 L 634.20,230.35 L 626.20,224.51 L 635.78,213.58 L 631.68,211.80 L 633.11,207.19 L 623.99,201.33 L 629.42,193.52 L 601.00,182.55 L 602.12,178.16 L 612.97,174.61 L 618.33,166.46 L 608.63,148.49 L 610.29,146.52 L 626.46,152.57 L 628.27,150.38 L 623.97,148.33 L 628.64,142.42 L 617.80,140.23 L 611.63,143.75 L 603.80,140.21 L 713.14,125.92 L 734.44,114.12 L 776.33,106.43 L 800.00,104.53 L 800.00,296.14 L 792.44,292.57 Z" fill="#C8D8E8" stroke="#8BAABB" stroke-width="0.8"/>
<path d="M 396.13,430.26 L 401.03,432.21 L 400.21,435.65 L 386.47,432.08 L 377.77,435.85 L 377.42,439.32 L 383.67,441.06 L 382.42,447.95 L 378.31,448.37 L 371.54,442.33 L 350.69,445.24 L 345.14,437.23 L 335.78,437.76 L 333.69,447.95 L 321.54,455.64 L 324.87,461.27 L 321.56,464.40 L 315.97,464.17 L 314.38,459.34 L 308.76,457.89 L 311.00,453.62 L 290.77,447.78 L 288.64,439.08 L 271.63,446.32 L 272.90,452.12 L 257.65,460.64 L 241.82,457.85 L 215.95,461.62 L 199.99,451.81 L 200.68,440.61 L 191.22,438.94 L 174.19,441.40 L 169.42,444.57 L 173.08,447.59 L 155.49,451.98 L 155.48,448.72 L 162.63,447.34 L 165.18,442.81 L 160.70,440.40 L 164.20,433.82 L 181.16,426.71 L 181.89,419.36 L 194.04,416.27 L 214.29,403.91 L 205.02,402.92 L 210.84,397.51 L 222.17,397.54 L 225.29,400.41 L 247.06,393.27 L 249.59,395.30 L 297.46,393.49 L 300.00,390.81 L 288.21,390.44 L 297.32,385.00 L 314.97,390.81 L 336.33,391.06 L 356.91,398.99 L 348.02,408.70 L 347.45,414.56 L 368.24,416.50 L 369.17,420.03 L 382.06,423.25 L 396.66,417.30 L 400.75,422.56 L 396.13,430.26 Z" fill="#C8D8E8" stroke="#8BAABB" stroke-width="0.8"/>
<path d="M 578.77,356.11 L 564.47,354.03 L 561.80,361.93 L 525.43,372.48 L 539.19,383.16 L 533.78,388.11 L 543.60,390.68 L 539.77,398.44 L 527.61,394.88 L 526.69,390.38 L 512.20,391.91 L 498.14,389.90 L 498.33,387.77 L 494.58,392.86 L 464.40,393.48 L 443.48,401.33 L 429.43,401.46 L 422.84,395.84 L 399.41,393.99 L 399.35,401.24 L 384.71,406.25 L 387.40,402.19 L 380.51,402.72 L 373.04,395.44 L 364.10,393.53 L 354.85,396.20 L 331.43,390.24 L 314.97,390.81 L 297.32,385.00 L 288.21,390.44 L 300.00,390.81 L 298.19,393.37 L 279.57,392.18 L 269.17,394.65 L 245.57,394.48 L 248.29,393.20 L 244.28,393.68 L 240.23,388.76 L 246.19,378.17 L 243.89,372.44 L 253.26,363.34 L 256.51,352.37 L 277.79,338.59 L 246.95,335.42 L 234.70,330.16 L 227.27,332.72 L 214.62,332.62 L 207.63,328.65 L 197.33,330.70 L 185.66,319.90 L 176.58,318.68 L 185.16,305.03 L 174.25,303.46 L 163.00,294.89 L 165.75,288.26 L 178.17,284.19 L 176.12,277.55 L 167.06,276.07 L 171.33,272.20 L 156.27,265.49 L 161.22,260.45 L 150.00,255.97 L 165.77,250.64 L 160.83,248.26 L 169.08,241.20 L 168.29,236.32 L 154.00,224.04 L 166.26,222.98 L 164.67,220.79 L 176.56,223.82 L 198.32,220.33 L 201.89,217.47 L 194.83,214.23 L 213.74,207.40 L 214.93,202.01 L 210.84,198.55 L 196.74,198.15 L 194.39,194.93 L 197.95,191.20 L 213.31,191.55 L 222.82,176.64 L 222.92,166.73 L 226.20,163.75 L 232.30,164.42 L 213.59,161.47 L 215.11,156.01 L 220.04,155.02 L 217.03,153.03 L 224.64,149.84 L 268.58,148.17 L 276.03,154.38 L 271.06,157.77 L 278.07,160.09 L 284.06,157.52 L 279.48,155.50 L 281.63,151.99 L 296.99,154.76 L 293.60,157.06 L 294.38,162.20 L 297.73,154.64 L 293.38,148.47 L 298.92,141.66 L 332.92,141.60 L 353.20,152.85 L 366.82,154.76 L 353.27,152.00 L 342.99,143.24 L 335.49,141.05 L 320.59,140.59 L 316.84,138.97 L 312.33,135.00 L 321.27,135.25 L 322.42,132.54 L 311.21,129.23 L 319.41,123.73 L 303.88,125.67 L 299.59,122.91 L 322.06,116.16 L 304.44,106.98 L 302.92,100.53 L 334.74,104.32 L 353.07,101.73 L 366.37,106.12 L 373.12,105.21 L 376.98,108.35 L 372.14,109.44 L 378.12,109.73 L 377.45,114.01 L 367.26,117.41 L 383.81,116.74 L 387.11,117.98 L 383.72,123.46 L 393.36,118.69 L 415.89,124.03 L 437.94,120.99 L 434.18,122.09 L 434.18,129.09 L 417.05,134.45 L 425.21,138.01 L 440.10,135.74 L 455.52,140.23 L 468.18,130.24 L 489.92,128.68 L 490.11,131.89 L 491.39,132.54 L 491.05,129.13 L 514.24,116.89 L 535.37,119.08 L 519.17,119.51 L 513.87,121.54 L 509.04,120.93 L 505.23,125.67 L 522.26,119.99 L 531.74,122.12 L 540.15,118.90 L 545.94,125.24 L 566.06,132.80 L 578.52,129.50 L 583.76,132.27 L 580.38,135.00 L 589.11,138.75 L 584.33,141.35 L 584.25,142.36 L 608.67,146.42 L 605.84,148.17 L 618.33,166.46 L 612.97,174.61 L 602.12,178.16 L 601.00,182.55 L 629.42,193.52 L 623.99,201.33 L 633.11,207.19 L 631.68,211.80 L 635.78,213.58 L 626.20,224.51 L 634.20,230.35 L 632.98,235.49 L 646.36,239.29 L 650.00,247.25 L 646.36,254.18 L 635.66,264.36 L 627.69,262.94 L 628.57,259.92 L 624.26,260.27 L 625.57,257.73 L 620.54,255.25 L 609.92,255.27 L 607.24,257.45 L 615.07,259.92 L 613.14,261.55 L 570.04,268.50 L 564.11,272.89 L 540.20,277.09 L 537.08,280.63 L 512.95,281.25 L 501.50,290.39 L 498.19,286.55 L 489.26,284.20 L 498.58,295.04 L 513.70,300.65 L 506.04,307.15 L 520.22,319.71 L 539.66,325.11 L 549.41,332.19 L 564.71,339.14 L 572.88,339.09 L 584.18,346.30 L 578.77,356.11 Z M 605.19,141.35 L 585.51,142.47 L 590.51,140.50 L 589.02,136.65 L 596.87,138.83 L 597.03,136.26 L 591.29,133.79 L 581.91,135.55 L 584.14,132.40 L 580.75,130.32 L 584.14,129.50 L 605.70,138.93 L 605.19,141.35 Z M 199.02,153.99 L 193.72,152.54 L 200.55,151.70 L 199.02,153.99 Z M 214.87,148.73 L 216.96,149.01 L 205.41,149.58 L 214.87,148.73 Z M 225.01,147.31 L 231.22,147.56 L 221.77,148.44 L 225.01,147.31 Z M 234.32,147.02 L 236.07,147.37 L 235.28,147.64 L 234.32,147.02 Z M 275.18,146.92 L 277.56,147.37 L 275.10,147.92 L 275.18,146.92 Z M 245.40,145.98 L 246.52,146.45 L 238.11,147.21 L 245.40,145.98 Z M 249.75,145.24 L 256.65,145.16 L 253.12,146.05 L 249.75,145.24 Z M 258.92,145.10 L 261.28,144.63 L 264.44,145.17 L 258.92,145.10 Z M 453.82,135.54 L 457.71,135.55 L 455.52,138.01 L 451.05,137.19 L 453.82,135.54 Z M 459.68,133.06 L 464.15,131.97 L 459.99,134.18 L 459.68,133.06 Z M 315.31,117.68 L 311.21,117.13 L 312.94,115.63 L 319.41,115.47 L 315.31,117.68 Z M 447.69,119.87 L 430.86,117.68 L 437.16,114.97 L 447.69,119.87 Z M 546.16,112.95 L 543.02,117.68 L 545.25,112.56 L 546.16,112.95 Z M 581.49,122.63 L 579.13,125.30 L 573.33,123.73 L 577.37,122.36 L 566.94,122.63 L 559.29,125.42 L 561.89,127.31 L 545.97,122.91 L 554.23,120.99 L 548.24,119.35 L 554.57,117.13 L 547.50,114.70 L 555.92,115.63 L 559.83,113.00 L 558.71,115.47 L 567.34,116.89 L 568.09,113.58 L 563.76,114.12 L 559.81,111.92 L 553.49,113.82 L 555.68,110.71 L 552.27,110.27 L 561.00,108.87 L 562.84,113.00 L 576.27,113.76 L 571.07,117.54 L 581.49,122.63 Z M 287.72,110.84 L 288.76,111.09 L 282.77,109.72 L 287.72,110.84 Z M 299.26,107.53 L 288.39,107.80 L 290.69,106.45 L 299.26,107.53 Z M 288.05,100.61 L 302.57,100.63 L 283.62,101.77 L 282.38,106.70 L 283.12,99.88 L 287.25,94.97 L 289.55,93.75 L 292.15,94.34 L 288.05,100.61 Z M 305.00,114.07 L 305.11,114.50 L 300.63,116.71 L 305.00,114.07 Z M 261.36,129.32 L 260.31,128.69 L 261.11,128.66 L 261.36,129.32 Z M 263.04,128.63 L 263.23,128.85 L 262.37,128.97 L 263.04,128.63 Z" fill="#4A90D9" stroke="#1a5fa8" stroke-width="1.2"/>
<path d="M 208.77,440.25 L 173.83,442.22 L 165.01,449.01 L 175.99,438.72 L 190.35,436.27 L 208.77,440.25 Z" fill="#A8C8E8" stroke="none"/>
<path d="M 348.41,397.55 L 323.18,384.21 L 339.01,389.78 L 360.63,395.20 L 348.41,397.55 Z" fill="#A8C8E8" stroke="none"/>
<path d="M 783.81,428.46 L 771.44,427.88 L 800.00,422.55 L 800.00,424.05 L 783.81,428.46 Z" fill="#A8C8E8" stroke="none"/>
<path d="M 328.38,390.23 L 322.29,389.89 L 318.41,390.88 L 314.94,390.80 L 321.68,388.89 L 318.66,387.20 L 328.38,390.23 Z" fill="#A8C8E8" stroke="none"/>
<path d="M 300.03,460.88 L 299.28,468.04 L 293.75,459.71 L 300.45,459.02 L 313.03,450.44 L 300.03,460.88 Z" fill="#A8C8E8" stroke="none"/>
<path d="M 414.77,471.16 L 414.23,479.29 L 403.90,477.33 L 407.29,475.29 L 404.66,472.93 L 422.64,461.40 L 414.77,471.16 Z" fill="#A8C8E8" stroke="none"/>
<path d="M 580.75,21.31 L 574.42,25.65 L 572.56,18.78 L 577.04,14.11 L 583.50,14.03 L 580.75,21.31 Z" fill="#A8C8E8" stroke="none"/>
<path d="M 640.54,32.64 L 635.52,32.31 L 637.96,34.72 L 632.00,34.44 L 626.75,25.65 L 629.94,30.61 L 632.74,27.02 L 640.54,32.64 Z" fill="#A8C8E8" stroke="none"/>
<path d="M 523.70,163.32 L 516.84,159.44 L 521.44,155.91 L 526.96,159.04 L 523.70,163.32 Z" fill="#A8C8E8" stroke="none"/>
<path d="M 459.68,144.88 L 455.52,148.46 L 458.14,152.17 L 453.69,151.47 L 455.25,146.21 L 459.68,144.88 Z" fill="#A8C8E8" stroke="none"/>
<path d="M 617.01,230.62 L 614.81,232.83 L 615.38,230.83 L 617.01,230.62 Z" fill="#A8C8E8" stroke="none"/>
<path d="M 172.09,162.45 L 165.75,162.33 L 167.82,160.24 L 172.09,162.45 Z" fill="#A8C8E8" stroke="none"/>
<path d="M 549.35,199.33 L 545.27,199.31 L 549.32,197.93 L 550.10,195.99 L 549.35,199.33 Z" fill="#A8C8E8" stroke="none"/>
<path d="M 528.76,168.25 L 528.41,167.56 L 529.18,167.12 L 528.76,168.25 Z" fill="#A8C8E8" stroke="none"/>
<path d="M 510.11,202.05 L 506.39,200.65 L 507.16,200.42 L 511.83,200.02 L 510.11,202.05 Z" fill="#A8C8E8" stroke="none"/>
<path d="M 535.50,200.26 L 533.67,199.31 L 537.03,200.38 L 535.50,200.26 Z" fill="#A8C8E8" stroke="none"/>
<path d="M 539.28,202.59 L 535.92,203.96 L 537.45,202.22 L 539.28,202.59 Z" fill="#A8C8E8" stroke="none"/>
<path d="M 575.21,199.32 L 573.68,199.04 L 574.89,198.45 L 575.21,199.32 Z" fill="#A8C8E8" stroke="none"/>
<path d="M 607.68,213.29 L 604.54,216.06 L 604.33,212.47 L 607.68,213.29 Z" fill="#A8C8E8" stroke="none"/>
<path d="M 630.41,160.18 L 627.39,158.79 L 629.85,155.12 L 630.41,160.18 Z" fill="#A8C8E8" stroke="none"/>
<path d="M 398.42,132.89 L 394.34,131.19 L 395.63,130.21 L 399.55,130.07 L 398.42,132.89 Z" fill="#A8C8E8" stroke="none"/>
<path d="M 150.13,197.48 L 146.87,199.70 L 132.27,205.91 L 125.26,206.33 L 101.44,201.78 L 108.18,199.04 L 105.89,190.92 L 119.76,188.31 L 110.62,186.09 L 105.58,179.22 L 123.49,173.47 L 123.31,181.43 L 142.55,183.08 L 136.56,185.57 L 135.79,189.81 L 149.04,192.43 L 150.66,195.00 L 150.13,197.48 Z M 138.84,192.13 L 110.43,201.20 L 129.87,205.60 L 150.01,196.35 L 138.84,192.13 Z" fill="#A8C8E8" stroke="none"/>
</svg>