<svg xmlns="http://www.w3.org/2000/svg" width="800" height="500" viewBox="0 0 800 500">
<rect width="800" height="500" fill="#A8C8E8"/>
<path d="M 216.20,265.60 L 219.77,275.71 L 228.25,277.73 L 230.47,284.88 L 238.18,283.04 L 243.06,286.48 L 241.26,291.70 L 243.37,294.43 L 241.40,297.84 L 254.33,297.46 L 258.60,290.37 L 260.01,291.23 L 257.80,298.51 L 259.72,300.31 L 259.44,305.09 L 269.75,309.21 L 274.70,316.93 L 282.00,314.90 L 287.39,319.24 L 298.50,318.27 L 306.32,330.56 L 311.36,328.65 L 314.58,332.62 L 320.41,332.72 L 323.83,330.16 L 329.48,335.42 L 343.69,338.59 L 333.88,352.37 L 332.39,363.34 L 328.24,371.83 L 329.13,378.17 L 326.38,388.76 L 328.25,393.68 L 323.03,399.85 L 312.84,397.51 L 310.16,402.92 L 314.43,403.91 L 305.10,416.27 L 299.50,419.36 L 299.16,426.71 L 291.35,433.82 L 289.74,440.40 L 291.77,442.36 L 290.74,447.07 L 287.24,449.20 L 287.34,451.98 L 291.90,451.19 L 295.44,447.59 L 293.76,444.57 L 295.14,442.18 L 300.52,439.23 L 308.16,440.61 L 307.24,443.36 L 309.18,446.41 L 307.62,451.14 L 314.07,460.21 L 308.51,464.17 L 308.38,468.51 L 317.55,480.83 L 314.91,488.74 L 303.53,493.16 L 306.65,500.00 L 215.69,500.00 L 215.69,265.73 L 216.20,265.60 Z" fill="#E8E0D0" stroke="#B8B0A0" stroke-width="0.5"/>
<path d="M 551.57,5.14 L 554.44,14.38 L 550.83,14.11 L 550.03,24.24 L 551.64,25.11 L 545.97,30.52 L 540.74,46.05 L 536.05,52.81 L 534.47,52.01 L 535.42,49.89 L 529.38,47.90 L 523.83,50.62 L 507.72,49.55 L 506.65,51.58 L 508.80,55.04 L 502.00,54.65 L 495.40,61.78 L 494.42,67.28 L 498.74,74.50 L 494.05,80.70 L 460.15,81.03 L 464.00,78.41 L 462.28,74.43 L 465.74,68.54 L 462.41,66.32 L 462.50,62.93 L 450.56,44.07 L 459.69,46.81 L 454.84,39.46 L 461.59,38.02 L 462.71,34.34 L 461.13,30.24 L 457.61,30.33 L 454.26,23.36 L 448.18,19.24 L 444.02,7.66 L 441.76,6.69 L 442.84,3.75 L 440.47,2.10 L 441.95,0.37 L 441.77,0.00 L 555.18,0.00 L 551.57,5.14 Z M 438.69,2.29 L 436.79,0.37 L 436.80,0.00 L 439.71,0.00 L 438.69,2.29 Z M 562.37,14.66 L 553.38,44.00 L 550.55,47.54 L 550.32,32.80 L 555.39,21.30 L 558.16,20.03 L 564.07,3.97 L 568.05,3.38 L 562.37,14.66 Z M 532.15,53.30 L 530.79,52.08 L 531.46,51.31 L 532.15,53.30 Z" fill="#E8E0D0" stroke="#B8B0A0" stroke-width="0.5"/>
<path d="M 579.78,459.77 L 573.60,458.99 L 560.84,441.90 L 552.73,437.10 L 549.04,431.43 L 547.96,423.56 L 542.14,422.62 L 546.69,416.95 L 552.00,417.18 L 550.45,416.15 L 552.59,411.61 L 550.15,409.62 L 551.67,406.02 L 550.69,401.21 L 555.89,398.96 L 557.10,395.55 L 555.62,392.18 L 550.03,390.61 L 554.05,386.88 L 559.83,390.04 L 566.81,388.71 L 565.02,382.51 L 569.56,376.21 L 584.31,386.13 L 584.31,464.22 L 579.78,459.77 Z" fill="#E8E0D0" stroke="#B8B0A0" stroke-width="0.5"/>
<path d="M 583.57,386.43 L 573.41,377.08 L 566.67,375.60 L 561.01,362.37 L 565.55,347.10 L 569.13,342.56 L 583.20,342.43 L 584.31,341.50 L 584.31,386.42 L 583.57,386.43 Z" fill="#E8E0D0" stroke="#B8B0A0" stroke-width="0.5"/>
<path d="M 317.37,462.16 L 327.12,457.85 L 334.73,460.45 L 341.44,452.12 L 340.85,446.32 L 348.69,439.08 L 349.67,447.78 L 358.99,453.62 L 357.96,457.89 L 360.55,459.34 L 361.28,464.17 L 363.86,464.40 L 365.38,461.27 L 363.85,455.64 L 369.45,447.95 L 370.89,437.27 L 374.72,437.23 L 377.28,445.24 L 386.88,442.33 L 390.84,448.39 L 392.93,446.69 L 391.24,444.03 L 392.47,441.06 L 389.60,439.32 L 389.76,435.85 L 393.77,432.08 L 400.10,435.65 L 400.48,432.21 L 398.22,430.26 L 400.34,422.56 L 414.00,426.38 L 418.46,418.57 L 432.55,418.30 L 443.76,413.70 L 442.41,420.77 L 445.92,422.41 L 449.40,429.54 L 481.98,436.38 L 473.54,445.57 L 474.67,448.88 L 480.38,449.98 L 475.97,456.96 L 479.59,457.80 L 478.58,464.02 L 483.93,467.50 L 486.85,471.98 L 485.67,473.87 L 482.25,473.52 L 484.67,472.68 L 478.79,465.65 L 474.46,470.23 L 473.64,467.45 L 467.36,466.36 L 466.49,471.57 L 449.87,479.74 L 453.84,475.14 L 449.19,475.69 L 443.10,484.74 L 445.01,489.12 L 446.94,488.06 L 448.49,496.87 L 448.49,494.68 L 452.64,498.51 L 452.08,500.00 L 306.65,500.00 L 303.53,493.16 L 316.24,486.92 L 317.55,480.83 L 313.08,476.82 L 312.59,471.62 L 308.03,466.14 L 314.07,460.21 L 317.37,462.16 Z M 449.00,479.93 L 450.05,480.64 L 447.30,483.35 L 449.00,479.93 Z M 448.36,479.28 L 448.32,479.74 L 447.28,480.07 L 448.36,479.28 Z" fill="#E8E0D0" stroke="#B8B0A0" stroke-width="0.5"/>
<path d="M 379.27,412.84 L 378.41,414.84 L 375.79,414.56 L 376.90,406.58 L 379.27,412.84 Z" fill="#E8E0D0" stroke="#B8B0A0" stroke-width="0.5"/>
<path d="M 560.84,441.90 L 572.21,457.83 L 579.78,459.77 L 584.31,464.22 L 584.31,493.02 L 582.13,490.73 L 569.62,491.35 L 563.02,485.90 L 560.18,490.04 L 553.07,488.40 L 547.73,497.26 L 540.29,488.73 L 534.56,489.70 L 533.58,500.00 L 512.56,500.00 L 512.67,498.96 L 510.94,493.55 L 503.85,485.53 L 497.33,483.52 L 493.30,498.21 L 491.23,499.33 L 491.60,497.85 L 490.51,495.75 L 490.03,500.00 L 483.31,500.00 L 480.02,494.38 L 482.61,491.92 L 479.34,491.48 L 479.68,484.47 L 477.10,476.78 L 486.71,480.32 L 488.79,476.69 L 498.87,478.15 L 504.10,470.53 L 509.54,478.66 L 512.69,476.66 L 518.14,480.07 L 522.81,479.15 L 521.39,473.19 L 524.03,471.64 L 521.05,468.30 L 531.63,463.56 L 532.18,455.76 L 529.47,452.66 L 530.72,448.89 L 540.26,445.23 L 541.23,442.08 L 546.71,442.25 L 545.68,437.43 L 548.43,435.28 L 560.84,441.90 Z M 499.84,499.06 L 496.50,492.76 L 497.38,490.39 L 501.40,498.45 L 501.53,500.00 L 498.39,500.00 L 499.84,499.06 Z M 500.18,493.81 L 502.82,491.90 L 503.29,487.34 L 509.98,498.21 L 507.68,499.58 L 500.18,493.81 Z" fill="#E8E0D0" stroke="#B8B0A0" stroke-width="0.5"/>
<path d="M 478.65,475.69 L 486.85,471.98 L 478.97,464.86 L 479.59,457.80 L 475.97,456.96 L 480.38,449.98 L 474.67,448.88 L 473.54,445.57 L 481.98,436.38 L 503.08,442.03 L 510.88,433.11 L 516.19,431.17 L 526.27,432.57 L 530.63,428.44 L 536.02,428.17 L 540.20,430.32 L 539.07,424.31 L 542.14,422.62 L 547.96,423.56 L 549.24,431.99 L 552.37,435.37 L 546.41,436.53 L 546.71,442.25 L 541.23,442.08 L 540.26,445.23 L 530.72,448.89 L 529.47,452.66 L 532.18,455.76 L 531.63,463.56 L 521.05,468.30 L 524.03,471.64 L 521.39,473.19 L 522.81,479.15 L 518.14,480.07 L 512.69,476.66 L 509.54,478.66 L 504.10,470.53 L 498.87,478.15 L 480.52,478.89 L 478.65,475.69 Z" fill="#E8E0D0" stroke="#B8B0A0" stroke-width="0.5"/>
<path d="M 534.56,489.70 L 540.29,488.73 L 547.73,497.26 L 553.07,488.40 L 560.18,490.04 L 563.02,485.90 L 569.62,491.35 L 582.13,490.73 L 584.31,493.02 L 584.31,500.00 L 533.58,500.00 L 534.56,489.70 Z" fill="#E8E0D0" stroke="#B8B0A0" stroke-width="0.5"/>
<path d="M 561.01,362.37 L 568.65,376.81 L 565.02,382.51 L 566.81,388.71 L 559.83,390.04 L 554.05,386.88 L 550.03,390.61 L 555.62,392.18 L 557.10,395.55 L 555.89,398.96 L 550.69,401.21 L 551.67,406.02 L 550.15,409.62 L 552.59,411.61 L 550.45,416.15 L 552.00,417.18 L 546.69,416.95 L 539.32,424.03 L 540.20,430.32 L 536.02,428.17 L 530.63,428.44 L 526.27,432.57 L 516.19,431.17 L 510.88,433.11 L 503.08,442.03 L 449.40,429.54 L 445.92,422.41 L 442.41,420.77 L 443.76,413.70 L 432.55,418.30 L 418.46,418.57 L 414.00,426.38 L 401.16,423.28 L 398.32,417.27 L 391.73,423.25 L 385.80,420.03 L 385.36,416.50 L 378.41,414.84 L 376.90,406.58 L 380.12,400.69 L 377.56,395.69 L 383.46,393.53 L 389.50,397.56 L 391.02,402.72 L 394.20,402.19 L 392.95,406.25 L 399.70,401.24 L 399.73,393.99 L 410.52,395.84 L 413.56,401.46 L 420.03,401.33 L 429.67,393.48 L 443.58,392.86 L 443.66,388.82 L 445.31,387.77 L 445.22,389.90 L 451.70,391.91 L 458.37,390.38 L 458.80,394.88 L 464.40,398.44 L 466.17,390.68 L 461.64,388.11 L 464.14,383.16 L 457.95,372.19 L 474.55,361.93 L 475.78,354.03 L 482.37,356.11 L 484.86,346.30 L 491.38,353.30 L 497.68,354.63 L 501.01,351.24 L 506.48,353.92 L 509.62,345.89 L 513.12,346.44 L 514.19,336.62 L 535.21,342.05 L 541.92,347.24 L 548.79,347.87 L 552.84,344.73 L 561.72,348.20 L 563.54,352.80 L 561.01,362.37 Z" fill="#C8D8E8" stroke="#8BAABB" stroke-width="0.8"/>
<path d="M 221.74,241.70 L 222.80,246.85 L 228.28,245.10 L 236.26,248.48 L 243.66,241.99 L 245.85,245.87 L 244.66,241.94 L 248.43,242.44 L 248.89,238.22 L 253.94,239.98 L 257.67,236.88 L 258.78,240.16 L 257.25,240.17 L 260.98,241.03 L 263.93,237.63 L 268.65,246.37 L 275.63,245.26 L 284.08,250.47 L 278.93,263.55 L 294.64,272.20 L 292.67,276.07 L 296.84,277.55 L 297.79,284.19 L 292.33,287.91 L 291.33,292.01 L 287.41,290.20 L 281.31,301.19 L 285.49,311.13 L 284.29,314.44 L 274.70,316.93 L 269.75,309.21 L 259.44,305.09 L 259.72,300.31 L 257.80,298.51 L 259.78,290.92 L 249.78,299.42 L 241.40,297.84 L 243.37,294.43 L 241.26,291.70 L 243.06,286.48 L 238.18,283.04 L 230.47,284.88 L 228.25,277.73 L 219.77,275.71 L 216.20,265.60 L 215.69,265.73 L 215.69,245.05 L 221.74,241.70 Z" fill="#C8D8E8" stroke="#8BAABB" stroke-width="0.8"/>
<path d="M 514.19,262.40 L 513.66,257.04 L 518.27,256.28 L 521.42,258.64 L 523.59,265.75 L 534.55,267.06 L 539.06,269.63 L 539.32,272.64 L 548.11,271.02 L 550.48,274.08 L 544.79,280.55 L 548.42,282.01 L 556.39,293.11 L 565.29,288.08 L 562.23,279.48 L 575.58,287.19 L 582.72,284.37 L 583.71,288.12 L 579.74,290.29 L 580.82,292.57 L 584.31,296.14 L 584.31,341.50 L 583.20,342.43 L 569.13,342.56 L 563.54,352.80 L 561.72,348.20 L 552.84,344.73 L 548.79,347.87 L 541.92,347.24 L 535.21,342.05 L 514.74,336.54 L 513.12,346.44 L 509.62,345.89 L 506.48,353.92 L 501.01,351.24 L 497.43,354.66 L 490.52,352.92 L 479.66,339.09 L 475.10,338.54 L 464.35,325.11 L 455.39,319.71 L 448.86,307.15 L 452.39,300.65 L 445.42,295.04 L 441.22,287.11 L 441.13,284.20 L 442.97,284.34 L 446.77,290.39 L 452.04,281.25 L 463.16,280.63 L 464.60,277.09 L 475.62,272.89 L 478.35,268.50 L 498.21,261.55 L 499.10,259.92 L 495.49,257.45 L 496.73,255.27 L 501.62,255.25 L 503.94,257.73 L 503.33,260.27 L 505.32,259.92 L 504.91,262.94 L 514.19,262.40 Z" fill="#C8D8E8" stroke="#8BAABB" stroke-width="0.8"/>
<path d="M 355.80,91.03 L 350.19,92.22 L 350.95,88.46 L 355.99,90.69 L 354.18,78.81 L 349.76,77.77 L 346.53,73.01 L 344.66,74.00 L 346.53,77.55 L 341.05,74.36 L 343.22,67.14 L 341.87,56.77 L 343.52,63.82 L 348.54,59.92 L 345.75,53.23 L 342.42,51.82 L 341.37,55.30 L 343.15,29.33 L 344.19,27.84 L 346.38,34.05 L 352.88,33.07 L 356.92,36.90 L 357.83,33.69 L 355.80,31.16 L 365.38,23.70 L 368.22,27.87 L 365.32,33.59 L 367.70,29.76 L 370.74,30.90 L 370.09,33.07 L 372.00,35.01 L 373.17,33.61 L 371.18,33.78 L 371.48,28.39 L 368.05,28.66 L 369.89,26.32 L 368.19,23.96 L 368.83,18.63 L 386.82,13.83 L 383.80,11.92 L 369.96,16.09 L 366.67,13.83 L 355.74,18.08 L 351.01,24.43 L 351.90,28.40 L 348.92,28.66 L 353.39,28.66 L 352.72,32.50 L 347.51,28.49 L 346.25,25.65 L 344.78,25.11 L 344.84,28.05 L 344.59,25.36 L 344.89,23.70 L 354.19,11.26 L 374.16,9.55 L 381.96,0.00 L 402.65,0.00 L 402.49,6.69 L 397.66,15.77 L 388.80,12.46 L 387.10,13.83 L 396.82,16.87 L 395.62,19.88 L 397.50,27.51 L 392.62,27.31 L 384.06,30.61 L 397.34,28.06 L 397.49,31.40 L 394.32,33.89 L 393.55,37.45 L 397.24,32.09 L 400.75,35.39 L 409.61,34.86 L 413.17,38.30 L 411.85,42.88 L 407.50,50.08 L 404.74,46.75 L 402.71,52.22 L 397.85,48.17 L 401.28,47.60 L 401.62,45.14 L 399.07,44.32 L 394.47,50.35 L 395.91,55.56 L 393.51,62.94 L 385.60,62.21 L 390.09,63.74 L 389.07,68.26 L 377.78,67.84 L 385.26,71.24 L 376.32,76.75 L 380.39,77.21 L 378.55,79.23 L 381.65,86.40 L 376.02,90.11 L 377.86,92.95 L 374.71,94.86 L 382.17,96.55 L 382.55,102.94 L 379.26,99.07 L 371.77,104.32 L 355.27,100.53 L 355.80,91.03 Z M 434.46,110.20 L 426.00,111.36 L 414.06,104.92 L 416.79,103.12 L 414.89,99.61 L 419.90,97.92 L 429.03,103.94 L 430.40,99.84 L 435.32,107.12 L 434.46,110.20 Z M 401.97,102.30 L 398.58,103.16 L 393.69,97.27 L 401.97,102.30 Z M 453.09,98.09 L 442.11,100.09 L 446.43,96.80 L 445.53,93.93 L 453.09,98.09 Z M 390.56,101.14 L 387.77,101.88 L 383.43,99.70 L 382.86,97.10 L 385.10,98.45 L 383.88,95.71 L 379.59,94.04 L 383.74,93.13 L 390.56,101.14 Z M 412.99,90.21 L 406.38,106.98 L 404.05,102.85 L 412.99,90.21 Z M 516.46,96.70 L 506.70,92.31 L 508.63,83.97 L 518.44,91.03 L 516.46,96.70 Z M 348.77,81.13 L 348.07,77.79 L 350.30,79.23 L 350.63,82.52 L 348.77,81.13 Z M 390.59,92.67 L 392.86,90.75 L 389.03,88.46 L 389.58,91.33 L 388.57,91.25 L 386.04,82.38 L 381.48,77.59 L 384.21,78.69 L 380.80,76.50 L 396.67,71.58 L 401.98,74.98 L 399.48,77.97 L 400.79,78.61 L 404.25,76.62 L 404.71,71.77 L 407.60,76.82 L 403.30,77.88 L 402.86,78.63 L 406.48,78.72 L 409.91,84.73 L 408.37,84.86 L 408.63,91.39 L 405.69,93.79 L 390.59,92.67 Z M 456.17,72.26 L 453.20,74.30 L 452.29,71.54 L 454.70,68.78 L 456.17,72.26 Z M 401.89,58.23 L 402.61,56.36 L 405.76,61.09 L 403.57,65.91 L 401.80,63.28 L 401.89,58.23 Z M 443.49,102.85 L 438.23,108.64 L 437.94,113.67 L 435.93,110.02 L 436.96,107.53 L 431.96,98.74 L 436.27,97.10 L 429.56,92.67 L 434.88,94.34 L 432.12,91.33 L 434.36,90.48 L 432.12,88.02 L 420.64,88.33 L 418.86,82.52 L 416.28,81.99 L 419.46,80.18 L 416.11,75.80 L 417.74,73.27 L 412.31,69.60 L 416.28,69.90 L 410.95,66.59 L 418.92,68.29 L 426.78,61.54 L 426.08,58.63 L 421.73,57.57 L 420.93,56.41 L 433.39,57.46 L 430.75,60.00 L 432.12,63.85 L 429.35,64.97 L 432.65,64.40 L 433.25,66.32 L 430.60,67.07 L 433.68,69.90 L 438.05,62.15 L 437.58,58.94 L 440.52,66.83 L 436.96,69.90 L 440.73,70.15 L 441.61,67.14 L 439.87,58.63 L 435.84,57.37 L 445.38,51.11 L 454.85,54.52 L 452.11,59.15 L 454.36,67.96 L 444.20,76.82 L 450.91,84.73 L 439.58,89.66 L 443.67,92.15 L 442.96,96.60 L 436.63,96.55 L 436.45,99.19 L 443.49,102.85 Z M 427.17,27.59 L 430.40,27.02 L 428.68,28.96 L 427.17,27.59 Z M 355.21,29.09 L 351.59,26.68 L 355.47,23.16 L 355.04,20.42 L 362.01,17.12 L 359.42,26.45 L 355.21,29.09 Z M 419.02,4.04 L 415.75,4.50 L 414.80,8.09 L 410.43,5.57 L 417.65,2.86 L 419.02,4.04 Z" fill="#C8D8E8" stroke="#8BAABB" stroke-width="0.8"/>
<path d="M 293.97,301.36 L 295.98,303.46 L 296.78,303.25 L 298.36,304.51 L 300.00,304.64 L 300.87,304.88 L 301.01,305.03 L 297.06,318.68 L 287.39,319.24 L 283.11,315.37 L 285.49,311.13 L 281.31,301.19 L 287.41,290.20 L 291.33,292.01 L 293.97,301.36 Z" fill="#C8D8E8" stroke="#8BAABB" stroke-width="0.8"/>
<path d="M 318.36,176.64 L 314.44,190.70 L 306.90,191.20 L 305.26,194.93 L 306.34,198.15 L 312.84,198.55 L 314.73,202.01 L 314.18,207.40 L 305.29,214.64 L 308.76,218.23 L 297.05,223.82 L 291.57,220.79 L 292.30,222.98 L 286.65,224.04 L 293.54,238.36 L 289.80,248.26 L 292.08,250.64 L 284.67,255.03 L 285.22,258.13 L 289.98,260.45 L 288.25,266.77 L 281.00,266.60 L 278.93,263.55 L 284.08,250.47 L 275.63,245.26 L 268.65,246.37 L 263.93,237.63 L 260.98,241.03 L 257.25,240.17 L 258.78,240.16 L 257.67,236.88 L 253.94,239.98 L 250.24,237.73 L 247.57,238.99 L 247.95,242.70 L 238.06,238.58 L 233.75,241.07 L 224.29,235.51 L 234.35,232.26 L 240.73,238.87 L 245.21,238.79 L 237.80,233.08 L 243.30,233.08 L 240.93,231.11 L 242.54,229.25 L 234.63,224.03 L 240.05,222.92 L 238.49,217.14 L 241.66,216.43 L 250.87,203.16 L 256.83,177.86 L 260.06,180.41 L 265.20,178.40 L 272.77,172.65 L 278.11,164.42 L 287.89,160.28 L 309.22,158.49 L 311.01,162.45 L 318.41,166.73 L 318.36,176.64 Z M 226.56,240.04 L 233.92,242.98 L 237.69,240.29 L 243.66,241.99 L 241.08,245.82 L 233.28,248.51 L 228.28,245.10 L 222.80,246.85 L 221.74,241.70 L 226.56,240.04 Z M 240.59,230.52 L 230.22,228.97 L 233.42,226.75 L 240.59,230.52 Z M 258.10,176.54 L 255.89,175.42 L 259.57,169.03 L 260.53,172.11 L 258.10,176.54 Z M 262.89,164.93 L 265.87,164.14 L 260.98,168.04 L 262.89,164.93 Z M 277.95,158.37 L 267.45,161.79 L 269.52,160.26 L 277.95,158.37 Z M 286.21,157.56 L 287.23,158.07 L 279.23,158.57 L 286.21,157.56 Z M 296.19,155.94 L 296.89,156.43 L 291.58,158.12 L 296.19,155.94 Z M 299.82,154.18 L 301.20,154.76 L 300.85,155.06 L 299.82,154.18 Z" fill="#C8D8E8" stroke="#8BAABB" stroke-width="0.8"/>
<path d="M 580.82,292.57 L 579.74,290.29 L 583.71,288.12 L 582.72,284.37 L 575.58,287.19 L 562.23,279.48 L 565.29,288.08 L 556.39,293.11 L 548.42,282.01 L 544.79,280.55 L 550.48,274.08 L 548.11,271.02 L 539.32,272.64 L 539.06,269.63 L 534.55,267.06 L 523.59,265.75 L 521.42,258.64 L 518.27,256.28 L 513.66,257.04 L 514.19,262.40 L 509.87,262.42 L 515.13,245.85 L 513.26,238.74 L 507.35,235.49 L 507.91,230.35 L 504.22,224.51 L 508.64,213.58 L 506.75,211.80 L 507.41,207.19 L 503.21,201.33 L 505.71,193.52 L 492.61,182.55 L 493.13,178.16 L 498.13,174.61 L 500.60,166.46 L 496.13,148.49 L 496.89,146.52 L 504.34,152.57 L 505.18,150.38 L 503.20,148.33 L 505.35,142.42 L 500.35,140.23 L 497.51,143.75 L 493.90,140.21 L 544.28,125.92 L 554.10,114.12 L 573.40,106.43 L 584.31,104.53 L 584.31,296.14 L 580.82,292.57 Z" fill="#C8D8E8" stroke="#8BAABB" stroke-width="0.8"/>
<path d="M 398.22,430.26 L 400.48,432.21 L 400.10,435.65 L 393.77,432.08 L 389.76,435.85 L 389.60,439.32 L 392.47,441.06 L 391.90,447.95 L 390.01,448.37 L 386.88,442.33 L 377.28,445.24 L 374.72,437.23 L 370.41,437.76 L 369.45,447.95 L 363.85,455.64 L 365.38,461.27 L 363.86,464.40 L 361.28,464.17 L 360.55,459.34 L 357.96,457.89 L 358.99,453.62 L 349.67,447.78 L 348.69,439.08 L 340.85,446.32 L 341.44,452.12 L 334.41,460.64 L 327.12,457.85 L 315.20,461.62 L 307.84,451.81 L 308.16,440.61 L 303.80,438.94 L 295.96,441.40 L 293.76,444.57 L 295.44,447.59 L 287.34,451.98 L 287.33,448.72 L 290.63,447.34 L 291.80,442.81 L 289.74,440.40 L 291.35,433.82 L 299.16,426.71 L 299.50,419.36 L 305.10,416.27 L 314.43,403.91 L 310.16,402.92 L 312.84,397.51 L 318.06,397.54 L 319.50,400.41 L 329.53,393.27 L 330.70,395.30 L 352.75,393.49 L 353.92,390.81 L 348.49,390.44 L 352.69,385.00 L 360.82,390.81 L 370.66,391.06 L 380.14,398.99 L 376.05,408.70 L 375.79,414.56 L 385.36,416.50 L 385.80,420.03 L 391.73,423.25 L 398.46,417.30 L 400.34,422.56 L 398.22,430.26 Z" fill="#C8D8E8" stroke="#8BAABB" stroke-width="0.8"/>
<path d="M 482.37,356.11 L 475.78,354.03 L 474.55,361.93 L 457.79,372.48 L 464.14,383.16 L 461.64,388.11 L 466.17,390.68 L 464.40,398.44 L 458.80,394.88 L 458.37,390.38 L 451.70,391.91 L 445.22,389.90 L 445.31,387.77 L 443.58,392.86 L 429.67,393.48 L 420.03,401.33 L 413.56,401.46 L 410.52,395.84 L 399.73,393.99 L 399.70,401.24 L 392.95,406.25 L 394.20,402.19 L 391.02,402.72 L 387.58,395.44 L 383.46,393.53 L 379.20,396.20 L 368.41,390.24 L 360.82,390.81 L 352.69,385.00 L 348.49,390.44 L 353.92,390.81 L 353.09,393.37 L 344.51,392.18 L 339.72,394.65 L 328.84,394.48 L 330.10,393.20 L 328.25,393.68 L 326.38,388.76 L 329.13,378.17 L 328.07,372.44 L 332.39,363.34 L 333.88,352.37 L 343.69,338.59 L 329.48,335.42 L 323.83,330.16 L 320.41,332.72 L 314.58,332.62 L 311.36,328.65 L 306.62,330.70 L 301.24,319.90 L 297.06,318.68 L 301.01,305.03 L 295.98,303.46 L 290.80,294.89 L 292.07,288.26 L 297.79,284.19 L 296.84,277.55 L 292.67,276.07 L 294.64,272.20 L 287.70,265.49 L 289.98,260.45 L 284.81,255.97 L 292.08,250.64 L 289.80,248.26 L 293.60,241.20 L 293.24,236.32 L 286.65,224.04 L 292.30,222.98 L 291.57,220.79 L 297.05,223.82 L 307.07,220.33 L 308.72,217.47 L 305.47,214.23 L 314.18,207.40 L 314.73,202.01 L 312.84,198.55 L 306.34,198.15 L 305.26,194.93 L 306.90,191.20 L 313.98,191.55 L 318.36,176.64 L 318.41,166.73 L 319.92,163.75 L 322.73,164.42 L 314.11,161.47 L 314.81,156.01 L 317.08,155.02 L 315.70,153.03 L 319.20,149.84 L 339.44,148.17 L 342.88,154.38 L 340.59,157.77 L 343.82,160.09 L 346.58,157.52 L 344.47,155.50 L 345.46,151.99 L 352.53,154.76 L 350.97,157.06 L 351.34,162.20 L 352.88,154.64 L 350.88,148.47 L 353.43,141.66 L 369.09,141.60 L 378.44,152.85 L 384.71,154.76 L 378.47,152.00 L 373.73,143.24 L 370.28,141.05 L 363.41,140.59 L 361.68,138.97 L 359.61,135.00 L 363.73,135.25 L 364.26,132.54 L 359.09,129.23 L 362.87,123.73 L 355.71,125.67 L 353.74,122.91 L 364.09,116.16 L 355.97,106.98 L 355.27,100.53 L 369.93,104.32 L 378.37,101.73 L 384.50,106.12 L 387.62,105.21 L 389.39,108.35 L 387.16,109.44 L 389.92,109.73 L 389.61,114.01 L 384.92,117.41 L 392.54,116.74 L 394.06,117.98 L 392.50,123.46 L 396.94,118.69 L 407.32,124.03 L 417.48,120.99 L 415.75,122.09 L 415.75,129.09 L 407.86,134.45 L 411.61,138.01 L 418.48,135.74 L 425.58,140.23 L 431.42,130.24 L 441.43,128.68 L 441.52,131.89 L 442.11,132.54 L 441.95,129.13 L 452.64,116.89 L 462.37,119.08 L 454.91,119.51 L 452.47,121.54 L 450.24,120.93 L 448.49,125.67 L 456.33,119.99 L 460.70,122.12 L 464.58,118.90 L 467.25,125.24 L 476.51,132.80 L 482.25,129.50 L 484.67,132.27 L 483.11,135.00 L 487.13,138.75 L 484.93,141.35 L 484.90,142.36 L 496.15,146.42 L 494.84,148.17 L 500.60,166.46 L 498.13,174.61 L 493.13,178.16 L 492.61,182.55 L 505.71,193.52 L 503.21,201.33 L 507.41,207.19 L 506.75,211.80 L 508.64,213.58 L 504.22,224.51 L 507.91,230.35 L 507.35,235.49 L 513.52,239.29 L 515.19,247.25 L 513.51,254.18 L 508.58,264.36 L 504.91,262.94 L 505.32,259.92 L 503.33,260.27 L 503.94,257.73 L 501.62,255.25 L 496.73,255.27 L 495.49,257.45 L 499.10,259.92 L 498.21,261.55 L 478.35,268.50 L 475.62,272.89 L 464.60,277.09 L 463.16,280.63 L 452.04,281.25 L 446.77,290.39 L 445.24,286.55 L 441.13,284.20 L 445.42,295.04 L 452.39,300.65 L 448.86,307.15 L 455.39,319.71 L 464.35,325.11 L 468.84,332.19 L 475.89,339.14 L 479.66,339.09 L 484.86,346.30 L 482.37,356.11 Z M 494.55,141.35 L 485.48,142.47 L 487.78,140.50 L 487.09,136.65 L 490.71,138.83 L 490.79,136.26 L 488.14,133.79 L 483.82,135.55 L 484.84,132.40 L 483.29,130.32 L 484.84,129.50 L 494.78,138.93 L 494.55,141.35 Z M 307.39,153.99 L 304.95,152.54 L 308.10,151.70 L 307.39,153.99 Z M 314.70,148.73 L 315.66,149.01 L 310.34,149.58 L 314.70,148.73 Z M 319.37,147.31 L 322.23,147.56 L 317.88,148.44 L 319.37,147.31 Z M 323.66,147.02 L 324.46,147.37 L 324.10,147.64 L 323.66,147.02 Z M 342.49,146.92 L 343.58,147.37 L 342.45,147.92 L 342.49,146.92 Z M 328.77,145.98 L 329.28,146.45 L 325.41,147.21 L 328.77,145.98 Z M 330.77,145.24 L 333.95,145.16 L 332.32,146.05 L 330.77,145.24 Z M 335.00,145.10 L 336.08,144.63 L 337.54,145.17 L 335.00,145.10 Z M 424.80,135.54 L 426.59,135.55 L 425.58,138.01 L 423.52,137.19 L 424.80,135.54 Z M 427.50,133.06 L 429.56,131.97 L 427.64,134.18 L 427.50,133.06 Z M 360.98,117.68 L 359.09,117.13 L 359.89,115.63 L 362.87,115.47 L 360.98,117.68 Z M 421.98,119.87 L 414.22,117.68 L 417.12,114.97 L 421.98,119.87 Z M 467.35,112.95 L 465.90,117.68 L 466.93,112.56 L 467.35,112.95 Z M 483.62,122.63 L 482.54,125.30 L 479.87,123.73 L 481.73,122.36 L 476.92,122.63 L 473.40,125.42 L 474.59,127.31 L 467.26,122.91 L 471.07,120.99 L 468.30,119.35 L 471.22,117.13 L 467.96,114.70 L 471.84,115.63 L 473.64,113.00 L 473.13,115.47 L 477.10,116.89 L 477.45,113.58 L 475.45,114.12 L 473.64,111.92 L 470.72,113.82 L 471.73,110.71 L 470.16,110.27 L 474.18,108.87 L 475.03,113.00 L 481.22,113.76 L 478.82,117.54 L 483.62,122.63 Z M 348.27,110.84 L 348.75,111.09 L 345.98,109.72 L 348.27,110.84 Z M 353.58,107.53 L 348.57,107.80 L 349.64,106.45 L 353.58,107.53 Z M 348.42,100.61 L 355.11,100.63 L 346.38,101.77 L 345.81,106.70 L 346.15,99.88 L 348.05,94.97 L 349.11,93.75 L 350.30,94.34 L 348.42,100.61 Z M 356.23,114.07 L 356.28,114.50 L 354.21,116.71 L 356.23,114.07 Z M 336.12,129.32 L 335.64,128.69 L 336.00,128.66 L 336.12,129.32 Z M 336.89,128.63 L 336.98,128.85 L 336.58,128.97 L 336.89,128.63 Z" fill="#4A90D9" stroke="#1a5fa8" stroke-width="1.2"/>
<path d="M 311.89,440.25 L 295.79,442.22 L 291.72,449.01 L 296.79,438.72 L 303.40,436.27 L 311.89,440.25 Z" fill="#A8C8E8" stroke="none"/>
<path d="M 376.23,397.55 L 364.60,384.21 L 371.90,389.78 L 381.86,395.20 L 376.23,397.55 Z" fill="#A8C8E8" stroke="none"/>
<path d="M 576.85,428.46 L 571.15,427.88 L 584.31,422.55 L 584.31,424.05 L 576.85,428.46 Z" fill="#A8C8E8" stroke="none"/>
<path d="M 367.00,390.23 L 364.20,389.89 L 362.40,390.88 L 360.81,390.80 L 363.91,388.89 L 362.52,387.20 L 367.00,390.23 Z" fill="#A8C8E8" stroke="none"/>
<path d="M 353.94,460.88 L 353.59,468.04 L 351.05,459.71 L 354.13,459.02 L 359.93,450.44 L 353.94,460.88 Z" fill="#A8C8E8" stroke="none"/>
<path d="M 406.81,471.16 L 406.56,479.29 L 401.80,477.33 L 403.36,475.29 L 402.14,472.93 L 410.43,461.40 L 406.81,471.16 Z" fill="#A8C8E8" stroke="none"/>
<path d="M 483.28,21.31 L 480.37,25.65 L 479.51,18.78 L 481.57,14.11 L 484.55,14.03 L 483.28,21.31 Z" fill="#A8C8E8" stroke="none"/>
<path d="M 510.83,32.64 L 508.52,32.31 L 509.64,34.72 L 506.90,34.44 L 504.48,25.65 L 505.95,30.61 L 507.24,27.02 L 510.83,32.64 Z" fill="#A8C8E8" stroke="none"/>
<path d="M 457.00,163.32 L 453.84,159.44 L 455.95,155.91 L 458.50,159.04 L 457.00,163.32 Z" fill="#A8C8E8" stroke="none"/>
<path d="M 427.50,144.88 L 425.58,148.46 L 426.79,152.17 L 424.74,151.47 L 425.46,146.21 L 427.50,144.88 Z" fill="#A8C8E8" stroke="none"/>
<path d="M 499.99,230.62 L 498.98,232.83 L 499.24,230.83 L 499.99,230.62 Z" fill="#A8C8E8" stroke="none"/>
<path d="M 294.99,162.45 L 292.06,162.33 L 293.02,160.24 L 294.99,162.45 Z" fill="#A8C8E8" stroke="none"/>
<path d="M 468.82,199.33 L 466.94,199.31 L 468.80,197.93 L 469.16,195.99 L 468.82,199.33 Z" fill="#A8C8E8" stroke="none"/>
<path d="M 459.33,168.25 L 459.17,167.56 L 459.52,167.12 L 459.33,168.25 Z" fill="#A8C8E8" stroke="none"/>
<path d="M 450.74,202.05 L 449.02,200.65 L 449.37,200.42 L 451.53,200.02 L 450.74,202.05 Z" fill="#A8C8E8" stroke="none"/>
<path d="M 462.44,200.26 L 461.59,199.31 L 463.14,200.38 L 462.44,200.26 Z" fill="#A8C8E8" stroke="none"/>
<path d="M 464.18,202.59 L 462.63,203.96 L 463.33,202.22 L 464.18,202.59 Z" fill="#A8C8E8" stroke="none"/>
<path d="M 480.73,199.32 L 480.03,199.04 L 480.58,198.45 L 480.73,199.32 Z" fill="#A8C8E8" stroke="none"/>
<path d="M 495.69,213.29 L 494.24,216.06 L 494.15,212.47 L 495.69,213.29 Z" fill="#A8C8E8" stroke="none"/>
<path d="M 506.16,160.18 L 504.77,158.79 L 505.91,155.12 L 506.16,160.18 Z" fill="#A8C8E8" stroke="none"/>
<path d="M 399.27,132.89 L 397.39,131.19 L 397.99,130.21 L 399.79,130.07 L 399.27,132.89 Z" fill="#A8C8E8" stroke="none"/>
<path d="M 284.87,197.48 L 283.37,199.70 L 276.64,205.91 L 273.41,206.33 L 262.43,201.78 L 265.54,199.04 L 264.48,190.92 L 270.88,188.31 L 266.67,186.09 L 264.34,179.22 L 272.59,173.47 L 272.51,181.43 L 281.38,183.08 L 278.62,185.57 L 278.26,189.81 L 284.37,192.43 L 285.12,195.00 L 284.87,197.48 Z M 279.67,192.13 L 266.58,201.20 L 275.53,205.60 L 284.81,196.35 L 279.67,192.13 Z" fill="#A8C8E8" stroke="none"/>
</svg>