<svg xmlns="http://www.w3.org/2000/svg" width="800" height="500" viewBox="0 0 800 500">
<rect width="800" height="500" fill="#A8C8E8"/>
<path d="M 409.30,438.72 L 506.28,299.99 L 537.89,318.43 L 537.69,340.62 L 589.92,408.73 L 644.70,450.71 L 644.70,500.00 L 437.23,500.00 L 409.30,438.72 Z" fill="#E8E0D0" stroke="#B8B0A0" stroke-width="0.5"/>
<path d="M 607.76,128.25 L 554.89,103.53 L 534.62,114.84 L 535.40,89.41 L 497.65,21.09 L 500.23,0.00 L 644.70,0.00 L 644.70,122.45 L 607.76,128.25 Z M 531.71,119.67 L 529.69,122.93 L 522.71,117.58 L 531.71,119.67 Z" fill="#E8E0D0" stroke="#B8B0A0" stroke-width="0.5"/>
<path d="M 442.98,123.86 L 431.27,154.64 L 413.83,165.44 L 382.85,141.02 L 368.14,148.90 L 338.39,107.16 L 301.94,84.80 L 266.02,26.71 L 229.09,0.00 L 360.37,0.00 L 368.13,30.66 L 391.76,29.11 L 421.71,60.27 L 429.59,88.59 L 452.03,98.30 L 463.19,81.03 L 481.04,111.09 L 442.98,123.86 Z" fill="#C8D8E8" stroke="#8BAABB" stroke-width="0.8"/>
<path d="M 266.02,26.71 L 301.94,84.80 L 338.39,107.16 L 368.14,148.90 L 278.35,267.88 L 273.60,378.54 L 300.55,388.91 L 404.25,363.94 L 451.37,378.14 L 409.09,435.41 L 437.27,500.00 L 155.30,500.00 L 155.30,0.00 L 229.09,0.00 L 266.02,26.71 Z" fill="#C8D8E8" stroke="#8BAABB" stroke-width="0.8"/>
<path d="M 443.66,381.35 L 404.25,363.94 L 300.55,388.91 L 273.60,378.54 L 278.35,267.88 L 376.01,140.40 L 413.83,165.44 L 431.27,154.64 L 442.98,123.86 L 481.04,111.09 L 513.41,145.33 L 526.40,186.55 L 520.72,220.94 L 494.63,228.29 L 471.53,252.38 L 428.96,263.53 L 412.26,289.11 L 388.89,288.24 L 402.44,304.86 L 440.99,284.86 L 486.27,282.36 L 499.86,301.72 L 443.66,381.35 Z" fill="#4A90D9" stroke="#1a5fa8" stroke-width="1.2"/>
<path d="M 251.63,318.68 L 244.92,320.65 L 243.84,317.85 L 251.63,318.68 Z" fill="#A8C8E8" stroke="none"/>
<path d="M 255.63,295.22 L 253.61,283.03 L 260.31,286.30 L 264.68,296.18 L 255.63,295.22 Z" fill="#A8C8E8" stroke="none"/>
<path d="M 378.76,272.54 L 373.00,280.36 L 368.90,269.78 L 378.76,272.54 Z" fill="#A8C8E8" stroke="none"/>
<path d="M 292.10,345.67 L 275.26,365.50 L 261.17,349.35 L 279.27,334.59 L 292.10,345.67 Z" fill="#A8C8E8" stroke="none"/>
</svg>