<svg xmlns="http://www.w3.org/2000/svg" width="800" height="500" viewBox="0 0 800 500">
<rect width="800" height="500" fill="#A8C8E8"/>
<path d="M 415.19,438.72 L 573.73,299.99 L 625.40,318.43 L 625.08,340.62 L 710.45,408.73 L 800.00,450.71 L 800.00,500.00 L 460.86,500.00 L 415.19,438.72 Z" fill="#E8E0D0" stroke="#B8B0A0" stroke-width="0.5"/>
<path d="M 739.62,128.25 L 653.20,103.53 L 620.05,114.84 L 621.34,89.41 L 559.63,21.09 L 563.83,0.00 L 800.00,0.00 L 800.00,122.45 L 739.62,128.25 Z M 615.29,119.67 L 612.00,122.93 L 600.58,117.58 L 615.29,119.67 Z" fill="#E8E0D0" stroke="#B8B0A0" stroke-width="0.5"/>
<path d="M 470.26,123.86 L 451.11,154.64 L 422.61,165.44 L 371.97,141.02 L 347.91,148.90 L 299.28,107.16 L 239.70,84.80 L 181.00,26.71 L 120.63,0.00 L 335.22,0.00 L 347.90,30.66 L 386.53,29.11 L 435.48,60.27 L 448.36,88.59 L 485.04,98.30 L 503.29,81.03 L 532.47,111.09 L 470.26,123.86 Z" fill="#C8D8E8" stroke="#8BAABB" stroke-width="0.8"/>
<path d="M 181.00,26.71 L 239.70,84.80 L 299.28,107.16 L 347.91,148.90 L 201.15,267.88 L 193.37,378.54 L 237.43,388.91 L 406.95,363.94 L 483.98,378.14 L 414.86,435.41 L 460.92,500.00 L 0.00,500.00 L 0.00,0.00 L 120.63,0.00 L 181.00,26.71 Z" fill="#C8D8E8" stroke="#8BAABB" stroke-width="0.8"/>
<path d="M 471.37,381.35 L 406.95,363.94 L 237.43,388.91 L 193.37,378.54 L 201.15,267.88 L 360.78,140.40 L 422.61,165.44 L 451.11,154.64 L 470.26,123.86 L 532.47,111.09 L 585.39,145.33 L 606.63,186.55 L 597.33,220.94 L 554.69,228.29 L 516.93,252.38 L 447.35,263.53 L 420.04,289.11 L 381.83,288.24 L 403.99,304.86 L 467.00,284.86 L 541.01,282.36 L 563.23,301.72 L 471.37,381.35 Z" fill="#4A90D9" stroke="#1a5fa8" stroke-width="1.2"/>
<path d="M 157.46,318.68 L 146.49,320.65 L 144.73,317.85 L 157.46,318.68 Z" fill="#A8C8E8" stroke="none"/>
<path d="M 164.01,295.22 L 160.70,283.03 L 171.66,286.30 L 178.80,296.18 L 164.01,295.22 Z" fill="#A8C8E8" stroke="none"/>
<path d="M 365.28,272.54 L 355.86,280.36 L 349.16,269.78 L 365.28,272.54 Z" fill="#A8C8E8" stroke="none"/>
<path d="M 223.62,345.67 L 196.09,365.50 L 173.06,349.35 L 202.64,334.59 L 223.62,345.67 Z" fill="#A8C8E8" stroke="none"/>
</svg>