<svg xmlns="http://www.w3.org/2000/svg" width="800" height="500" viewBox="0 0 800 500">
<rect width="800" height="500" fill="#A8C8E8"/>
<path d="M 207.97,8.81 L 207.69,19.24 L 151.96,58.50 L 144.99,54.66 L 148.91,52.59 L 145.35,46.41 L 140.16,59.36 L 113.41,66.81 L 90.10,62.78 L 72.86,69.21 L 82.84,58.69 L 65.35,63.39 L 58.52,58.69 L 71.63,54.66 L 56.63,50.62 L 58.78,56.68 L 53.36,56.74 L 52.72,49.90 L 50.30,56.68 L 56.98,62.11 L 45.36,61.82 L 39.13,56.68 L 61.48,41.83 L 49.82,46.59 L 46.43,41.49 L 50.23,36.32 L 41.38,44.61 L 2.25,30.66 L 0.00,25.45 L 0.00,0.00 L 228.02,0.00 L 207.97,8.81 Z" fill="#E8E0D0" stroke="#B8B0A0" stroke-width="0.5"/>
<path d="M 775.62,6.99 L 726.70,2.67 L 722.83,6.09 L 766.06,8.78 L 776.76,20.21 L 763.16,26.32 L 741.41,20.71 L 739.37,21.55 L 764.46,32.26 L 754.89,33.70 L 759.63,38.85 L 766.76,36.69 L 760.22,41.15 L 768.33,48.16 L 765.21,55.69 L 753.89,48.55 L 763.60,66.08 L 755.29,67.12 L 764.61,79.58 L 753.40,78.90 L 755.82,76.28 L 746.65,68.65 L 750.70,78.98 L 742.75,78.18 L 760.22,93.08 L 739.86,78.90 L 760.79,97.79 L 751.02,97.11 L 754.81,105.04 L 747.02,105.24 L 758.95,120.53 L 743.37,139.86 L 751.46,162.54 L 741.30,161.86 L 739.04,186.73 L 743.56,188.86 L 727.59,202.15 L 712.84,240.27 L 699.63,256.87 L 695.16,254.90 L 697.84,249.69 L 680.83,244.82 L 665.18,251.49 L 619.78,248.88 L 616.76,253.85 L 622.82,262.35 L 603.66,261.39 L 585.04,278.89 L 582.29,292.37 L 594.46,310.12 L 581.25,325.33 L 485.70,326.14 L 496.54,319.71 L 491.71,309.94 L 501.44,295.49 L 492.07,290.03 L 492.31,281.71 L 458.68,235.41 L 484.41,242.13 L 470.74,224.10 L 489.77,220.57 L 492.91,211.53 L 488.47,201.45 L 478.55,201.69 L 469.09,184.57 L 451.95,174.46 L 440.25,146.03 L 433.87,143.66 L 436.90,136.44 L 430.22,132.40 L 434.40,128.15 L 430.89,121.80 L 425.21,132.85 L 419.84,128.15 L 420.80,105.85 L 415.00,101.81 L 421.28,97.79 L 405.82,98.22 L 413.26,90.05 L 402.34,84.34 L 409.64,78.18 L 418.87,47.20 L 413.15,38.80 L 418.39,35.78 L 407.33,36.35 L 391.68,44.62 L 403.30,26.99 L 395.03,22.95 L 392.86,35.45 L 383.91,42.50 L 385.88,30.34 L 380.34,34.49 L 385.88,24.97 L 371.48,34.46 L 376.12,11.47 L 369.64,0.00 L 791.28,0.00 L 775.62,6.99 Z M 773.81,163.21 L 748.48,235.25 L 740.50,243.92 L 739.86,207.74 L 754.13,179.53 L 761.95,176.41 L 778.62,136.98 L 789.82,135.53 L 773.81,163.21 Z M 397.98,74.88 L 391.11,65.78 L 393.02,63.55 L 408.18,62.78 L 397.98,74.88 Z M 412.85,56.17 L 406.01,58.87 L 388.26,61.44 L 384.64,55.64 L 404.47,39.88 L 413.02,45.86 L 412.85,56.17 Z M 688.65,258.06 L 684.79,255.08 L 686.69,253.18 L 688.65,258.06 Z M 772.43,40.93 L 770.18,41.43 L 769.13,38.60 L 772.43,40.93 Z M 768.76,36.30 L 765.77,31.13 L 771.05,29.14 L 773.31,35.70 L 768.76,36.30 Z" fill="#E8E0D0" stroke="#B8B0A0" stroke-width="0.5"/>
<path d="M 587.11,491.74 L 589.26,486.90 L 607.80,500.00 L 589.47,500.00 L 587.11,491.74 Z M 612.62,496.38 L 607.03,491.34 L 613.10,476.82 L 599.02,471.45 L 591.01,480.10 L 580.83,471.41 L 722.83,436.32 L 750.49,407.37 L 800.00,390.19 L 800.00,500.00 L 611.02,500.00 L 612.62,496.38 Z" fill="#E8E0D0" stroke="#B8B0A0" stroke-width="0.5"/>
<path d="M 88.41,495.03 L 145.48,490.94 L 151.23,500.00 L 82.15,500.00 L 88.41,495.03 Z M 177.70,491.69 L 184.89,474.96 L 229.04,474.81 L 253.06,500.00 L 180.80,500.00 L 177.70,491.69 Z M 242.12,478.84 L 232.38,473.47 L 213.02,472.34 L 208.16,468.37 L 202.30,458.62 L 213.92,459.24 L 215.41,452.58 L 200.85,444.45 L 211.50,430.95 L 191.33,435.72 L 185.76,428.94 L 214.93,412.38 L 192.06,389.84 L 190.08,374.00 L 231.41,383.30 L 255.21,376.95 L 272.48,387.73 L 281.25,385.49 L 286.27,393.20 L 279.97,395.89 L 287.74,396.58 L 286.88,407.10 L 273.64,415.43 L 295.13,413.80 L 299.42,416.84 L 295.02,430.28 L 307.53,418.58 L 336.79,431.68 L 365.43,424.23 L 360.55,426.92 L 360.55,444.11 L 338.30,457.28 L 348.90,466.01 L 368.24,460.44 L 388.26,471.45 L 404.71,446.93 L 432.94,443.11 L 433.19,450.99 L 434.84,452.58 L 434.41,444.20 L 464.52,414.16 L 491.97,419.55 L 470.92,420.59 L 464.04,425.57 L 457.76,424.07 L 452.83,435.72 L 474.94,421.77 L 487.25,426.99 L 498.18,419.10 L 505.70,434.65 L 531.82,453.22 L 548.00,445.12 L 554.82,451.91 L 550.42,458.62 L 561.75,467.81 L 555.55,474.22 L 555.45,476.68 L 587.16,486.65 L 583.49,490.94 L 586.76,500.00 L 255.25,500.00 L 242.12,478.84 Z M 582.64,474.20 L 557.08,476.94 L 563.57,472.12 L 561.64,462.66 L 571.84,468.03 L 572.05,461.71 L 564.59,455.65 L 552.41,459.97 L 555.30,452.24 L 550.91,447.14 L 555.30,445.12 L 583.30,468.27 L 582.64,474.20 Z M 56.99,500.00 L 55.42,500.00 L 57.13,499.60 L 56.99,500.00 Z M 75.73,492.31 L 78.45,493.01 L 63.45,494.42 L 75.73,492.31 Z M 88.90,488.84 L 96.96,489.45 L 84.69,491.60 L 88.90,488.84 Z M 100.98,488.12 L 103.26,488.98 L 102.24,489.65 L 100.98,488.12 Z M 154.05,487.88 L 157.14,488.98 L 153.94,490.33 L 154.05,487.88 Z M 115.38,485.57 L 116.84,486.72 L 105.91,488.60 L 115.38,485.57 Z M 121.02,483.76 L 129.99,483.55 L 125.41,485.74 L 121.02,483.76 Z M 132.94,483.41 L 136.00,482.26 L 140.10,483.58 L 132.94,483.41 Z M 386.06,459.95 L 391.11,459.97 L 388.26,466.01 L 382.45,464.00 L 386.06,459.95 Z M 393.67,453.86 L 399.48,451.17 L 394.07,456.60 L 393.67,453.86 Z M 206.17,416.11 L 200.85,414.76 L 203.09,411.06 L 211.50,410.67 L 206.17,416.11 Z M 378.10,421.48 L 356.24,416.11 L 364.43,409.46 L 378.10,421.48 Z M 505.98,404.50 L 501.90,416.11 L 504.80,403.54 L 505.98,404.50 Z M 551.86,428.26 L 548.80,434.81 L 541.27,430.95 L 546.51,427.59 L 532.96,428.26 L 523.04,435.10 L 526.41,439.75 L 505.74,428.94 L 516.46,424.23 L 508.68,420.20 L 516.91,414.76 L 507.71,408.78 L 518.66,411.06 L 523.73,404.62 L 522.28,410.67 L 533.49,414.16 L 534.45,406.03 L 528.83,407.37 L 523.71,401.97 L 515.50,406.64 L 518.35,399.00 L 513.92,397.91 L 525.25,394.48 L 527.64,404.62 L 545.08,406.48 L 538.33,415.77 L 551.86,428.26 Z M 170.34,399.31 L 171.69,399.91 L 163.91,396.56 L 170.34,399.31 Z M 185.33,391.18 L 171.21,391.86 L 174.20,388.55 L 185.33,391.18 Z M 170.77,374.20 L 189.63,374.26 L 165.02,377.04 L 163.41,389.15 L 164.37,372.40 L 169.73,360.35 L 172.71,357.36 L 176.09,358.80 L 170.77,374.20 Z M 192.78,407.24 L 192.92,408.30 L 187.10,413.73 L 192.78,407.24 Z M 136.11,444.67 L 134.74,443.12 L 135.78,443.05 L 136.11,444.67 Z M 138.28,442.99 L 138.54,443.52 L 137.42,443.81 L 138.28,442.99 Z" fill="#C8D8E8" stroke="#8BAABB" stroke-width="0.8"/>
<path d="M 191.57,350.68 L 175.77,353.61 L 177.90,344.39 L 192.11,349.86 L 187.02,320.69 L 174.57,318.13 L 165.44,306.44 L 160.19,308.88 L 165.45,317.60 L 150.00,309.75 L 156.12,292.04 L 152.31,266.59 L 156.97,283.89 L 171.12,274.31 L 163.26,257.91 L 153.86,254.44 L 150.90,262.98 L 155.92,199.23 L 158.84,195.58 L 165.03,210.82 L 183.34,208.41 L 194.74,217.82 L 197.29,209.93 L 191.57,203.71 L 218.59,185.40 L 226.59,195.64 L 218.40,209.70 L 225.13,200.29 L 233.69,203.08 L 231.85,208.41 L 237.23,213.18 L 240.52,209.73 L 234.92,210.16 L 235.77,196.93 L 226.10,197.60 L 231.30,191.85 L 226.51,186.04 L 228.30,172.97 L 279.00,161.19 L 270.49,156.49 L 231.50,166.73 L 222.23,161.19 L 191.40,171.63 L 178.07,187.21 L 180.60,196.94 L 172.18,197.60 L 184.80,197.60 L 182.90,207.01 L 168.21,197.18 L 164.65,190.21 L 160.52,188.86 L 160.67,196.09 L 159.99,189.48 L 160.82,185.42 L 187.04,154.86 L 243.32,150.68 L 282.63,108.76 L 298.97,107.79 L 323.17,93.75 L 330.96,94.42 L 315.47,110.81 L 323.70,124.12 L 323.17,143.66 L 309.57,165.95 L 284.59,157.83 L 279.79,161.19 L 307.20,168.64 L 303.81,176.04 L 309.11,194.77 L 295.35,194.28 L 271.22,202.37 L 308.66,196.10 L 309.09,204.32 L 300.16,210.43 L 297.97,219.16 L 308.38,206.01 L 318.27,214.11 L 343.24,212.80 L 353.29,221.24 L 349.57,232.50 L 337.31,250.17 L 329.51,242.00 L 323.81,255.41 L 310.10,245.49 L 319.78,244.09 L 320.74,238.04 L 313.53,236.02 L 300.58,250.82 L 304.64,263.63 L 297.88,281.74 L 275.58,279.94 L 288.21,283.68 L 285.34,294.79 L 253.54,293.76 L 274.61,302.12 L 249.40,315.62 L 260.89,316.75 L 255.69,321.72 L 264.44,339.32 L 248.57,348.42 L 253.76,355.39 L 244.89,360.10 L 265.91,364.24 L 266.97,379.93 L 257.69,370.42 L 236.58,383.32 L 190.08,374.00 L 191.57,350.68 Z M 413.28,397.74 L 389.45,400.59 L 355.78,384.78 L 363.50,380.37 L 358.13,371.74 L 372.25,367.61 L 397.98,382.38 L 401.85,372.30 L 415.73,390.18 L 413.28,397.74 Z M 321.72,378.36 L 312.15,380.45 L 298.38,366.01 L 321.72,378.36 Z M 465.79,368.01 L 434.84,372.92 L 447.02,364.85 L 444.48,357.81 L 465.79,368.01 Z M 289.54,375.50 L 281.69,377.31 L 269.45,371.98 L 267.84,365.59 L 274.17,368.89 L 270.74,362.16 L 258.64,358.08 L 270.34,355.84 L 289.54,375.50 Z M 352.77,348.66 L 334.14,389.84 L 327.57,379.70 L 352.77,348.66 Z M 644.42,364.61 L 616.89,353.82 L 622.33,333.35 L 650.00,350.68 L 644.42,364.61 Z M 171.76,326.39 L 169.78,318.20 L 176.09,321.72 L 177.01,329.79 L 171.76,326.39 Z M 289.64,354.71 L 296.03,350.01 L 285.23,344.37 L 286.79,351.42 L 283.95,351.22 L 276.81,329.46 L 263.96,317.69 L 271.66,320.38 L 262.03,315.01 L 306.77,302.95 L 321.74,311.29 L 314.71,318.64 L 318.39,320.19 L 328.14,315.31 L 329.45,303.40 L 337.58,315.81 L 325.46,318.40 L 324.23,320.23 L 334.43,320.46 L 344.09,335.22 L 339.74,335.54 L 340.48,351.57 L 332.18,357.47 L 289.64,354.71 Z M 474.49,304.62 L 466.11,309.61 L 463.55,302.85 L 470.32,296.07 L 474.49,304.62 Z M 321.49,270.17 L 323.52,265.57 L 332.40,277.18 L 326.23,289.02 L 321.22,282.57 L 321.49,270.17 Z M 438.75,379.70 L 423.91,393.90 L 423.08,406.25 L 417.42,397.29 L 420.33,391.18 L 406.25,369.62 L 418.39,365.59 L 399.48,354.71 L 414.47,358.80 L 406.68,351.42 L 413.02,349.34 L 406.68,343.29 L 374.33,344.05 L 369.30,329.79 L 362.05,328.50 L 371.01,324.05 L 361.57,313.29 L 366.16,307.09 L 350.87,298.09 L 362.05,298.82 L 347.01,290.69 L 369.48,294.87 L 391.63,278.29 L 389.66,271.15 L 377.41,268.54 L 375.15,265.71 L 410.28,268.28 L 402.82,274.51 L 406.68,283.98 L 398.90,286.73 L 408.18,285.32 L 409.88,290.03 L 402.40,291.86 L 411.09,298.82 L 423.41,279.79 L 422.07,271.90 L 430.37,291.29 L 420.33,298.82 L 430.97,299.43 L 433.43,292.04 L 428.54,271.15 L 417.17,268.06 L 444.06,252.71 L 470.76,261.07 L 463.02,272.43 L 469.37,294.06 L 440.73,315.81 L 459.64,335.22 L 427.73,347.31 L 439.24,353.43 L 437.25,364.37 L 419.40,364.24 L 418.91,370.72 L 438.75,379.70 Z M 392.74,194.97 L 401.85,193.57 L 397.01,198.33 L 392.74,194.97 Z M 189.90,198.63 L 179.72,192.72 L 190.64,184.10 L 189.43,177.37 L 209.07,169.26 L 201.77,192.17 L 189.90,198.63 Z M 369.76,137.15 L 360.55,138.29 L 357.88,147.09 L 345.56,140.91 L 365.92,134.25 L 369.76,137.15 Z" fill="#4A90D9" stroke="#1a5fa8" stroke-width="1.2"/>
<path d="M 546.23,2.62 L 523.28,6.70 L 512.69,18.99 L 506.26,15.83 L 510.62,8.12 L 488.76,11.48 L 492.68,16.90 L 469.34,32.51 L 463.02,31.76 L 471.78,21.53 L 463.71,29.47 L 448.21,29.27 L 471.41,5.60 L 462.25,1.20 L 462.40,0.00 L 509.60,0.00 L 501.90,3.40 L 505.28,6.70 L 511.64,6.12 L 509.65,0.00 L 549.58,0.00 L 546.23,2.62 Z" fill="#A8C8E8" stroke="none"/>
<path d="M 633.50,6.70 L 628.14,10.79 L 637.82,16.90 L 615.92,30.05 L 605.51,57.52 L 586.32,87.76 L 579.43,88.98 L 574.55,74.06 L 588.15,38.71 L 607.66,5.31 L 613.49,0.00 L 633.59,0.00 L 633.50,6.70 Z" fill="#A8C8E8" stroke="none"/>
<path d="M 681.81,24.52 L 675.76,20.43 L 683.52,14.76 L 706.82,17.51 L 681.81,24.52 Z" fill="#A8C8E8" stroke="none"/>
<path d="M 642.74,14.21 L 659.24,13.48 L 655.34,15.51 L 642.74,14.21 Z" fill="#A8C8E8" stroke="none"/>
<path d="M 550.90,179.54 L 542.68,190.20 L 540.26,173.34 L 546.08,161.87 L 554.47,161.67 L 550.90,179.54 Z" fill="#A8C8E8" stroke="none"/>
<path d="M 628.56,207.35 L 622.03,206.54 L 625.20,212.45 L 617.46,211.78 L 610.64,190.20 L 614.79,202.37 L 618.42,193.56 L 628.56,207.35 Z" fill="#A8C8E8" stroke="none"/>
<path d="M 393.67,482.86 L 388.26,491.67 L 391.38,500.00 L 389.08,500.00 L 385.89,499.06 L 387.91,486.14 L 393.67,482.86 Z" fill="#A8C8E8" stroke="none"/>
<path d="M 598.00,18.26 L 590.68,5.14 L 585.88,10.79 L 581.12,8.12 L 590.74,1.34 L 601.57,13.02 L 598.00,18.26 Z" fill="#A8C8E8" stroke="none"/>
<path d="M 716.50,9.45 L 699.14,5.80 L 704.59,4.38 L 702.96,0.00 L 704.22,0.00 L 716.50,9.45 Z" fill="#A8C8E8" stroke="none"/>
<path d="M 710.20,68.15 L 697.60,68.76 L 705.32,74.87 L 699.16,76.64 L 692.99,68.47 L 710.20,68.15 Z" fill="#A8C8E8" stroke="none"/>
<path d="M 660.20,67.42 L 664.56,79.59 L 656.24,68.79 L 651.13,75.85 L 639.61,62.09 L 640.63,55.84 L 643.80,64.58 L 652.59,60.82 L 663.70,66.03 L 665.39,72.58 L 660.20,67.42 Z" fill="#A8C8E8" stroke="none"/>
<path d="M 314.11,453.43 L 308.81,449.26 L 310.48,446.85 L 315.57,446.50 L 314.11,453.43 Z" fill="#A8C8E8" stroke="none"/>
</svg>