<svg xmlns="http://www.w3.org/2000/svg" width="800" height="500" viewBox="0 0 800 500">
<rect width="800" height="500" fill="#A8C8E8"/>
<path d="M 251.46,8.81 L 251.25,19.24 L 208.14,58.50 L 202.75,54.66 L 205.78,52.59 L 203.02,46.41 L 199.01,59.36 L 178.32,66.81 L 160.28,62.78 L 146.95,69.21 L 154.67,58.69 L 141.14,63.39 L 135.86,58.69 L 146.00,54.66 L 134.40,50.62 L 136.06,56.68 L 131.87,56.74 L 131.37,49.90 L 129.50,56.68 L 134.67,62.11 L 125.68,61.82 L 120.86,56.68 L 138.15,41.83 L 129.13,46.59 L 126.51,41.49 L 129.45,36.32 L 122.60,44.61 L 92.33,30.66 L 90.59,25.45 L 90.59,0.00 L 266.97,0.00 L 251.46,8.81 Z" fill="#E8E0D0" stroke="#B8B0A0" stroke-width="0.5"/>
<path d="M 690.55,6.99 L 652.71,2.67 L 649.72,6.09 L 683.16,8.78 L 691.43,20.21 L 680.91,26.32 L 664.09,20.71 L 662.51,21.55 L 681.91,32.26 L 674.52,33.70 L 678.18,38.85 L 683.70,36.69 L 678.63,41.15 L 684.91,48.16 L 682.49,55.69 L 673.74,48.55 L 681.25,66.08 L 674.82,67.12 L 682.03,79.58 L 673.36,78.90 L 675.23,76.28 L 668.14,68.65 L 671.27,78.98 L 665.12,78.18 L 678.63,93.08 L 662.88,78.90 L 679.08,97.79 L 671.52,97.11 L 674.46,105.04 L 668.42,105.24 L 677.66,120.53 L 665.61,139.86 L 671.86,162.54 L 664.00,161.86 L 662.26,186.73 L 665.75,188.86 L 653.40,202.15 L 641.99,240.27 L 631.77,256.87 L 628.31,254.90 L 630.38,249.69 L 617.23,244.82 L 605.12,251.49 L 570.01,248.88 L 567.67,253.85 L 572.35,262.35 L 557.53,261.39 L 543.14,278.89 L 541.00,292.37 L 550.42,310.12 L 540.20,325.33 L 466.29,326.14 L 474.67,319.71 L 470.94,309.94 L 478.47,295.49 L 471.22,290.03 L 471.41,281.71 L 445.39,235.41 L 465.29,242.13 L 454.72,224.10 L 469.44,220.57 L 471.86,211.53 L 468.43,201.45 L 460.76,201.69 L 453.44,184.57 L 440.19,174.46 L 431.13,146.03 L 426.20,143.66 L 428.54,136.44 L 423.38,132.40 L 426.61,128.15 L 423.90,121.80 L 419.50,132.85 L 415.35,128.15 L 416.09,105.85 L 411.60,101.81 L 416.46,97.79 L 404.50,98.22 L 410.25,90.05 L 401.81,84.34 L 407.45,78.18 L 414.60,47.20 L 410.17,38.80 L 414.22,35.78 L 405.67,36.35 L 393.56,44.62 L 402.56,26.99 L 396.16,22.95 L 394.47,35.45 L 387.55,42.50 L 389.08,30.34 L 384.79,34.49 L 389.08,24.97 L 377.94,34.46 L 381.53,11.47 L 376.51,0.00 L 702.66,0.00 L 690.55,6.99 Z M 689.15,163.21 L 669.56,235.25 L 663.38,243.92 L 662.88,207.74 L 673.92,179.53 L 679.98,176.41 L 692.87,136.98 L 701.53,135.53 L 689.15,163.21 Z M 398.43,74.88 L 393.13,65.78 L 394.60,63.55 L 406.33,62.78 L 398.43,74.88 Z M 409.94,56.17 L 404.65,58.87 L 390.92,61.44 L 388.12,55.64 L 403.46,39.88 L 410.07,45.86 L 409.94,56.17 Z M 623.27,258.06 L 620.29,255.08 L 621.76,253.18 L 623.27,258.06 Z M 688.08,40.93 L 686.34,41.43 L 685.53,38.60 L 688.08,40.93 Z M 685.25,36.30 L 682.93,31.13 L 687.02,29.14 L 688.76,35.70 L 685.25,36.30 Z" fill="#E8E0D0" stroke="#B8B0A0" stroke-width="0.5"/>
<path d="M 544.74,491.74 L 546.40,486.90 L 560.74,500.00 L 546.56,500.00 L 544.74,491.74 Z M 564.46,496.38 L 560.14,491.34 L 564.84,476.82 L 553.94,471.45 L 547.75,480.10 L 539.88,471.41 L 649.72,436.32 L 671.11,407.37 L 709.41,390.19 L 709.41,500.00 L 563.23,500.00 L 564.46,496.38 Z" fill="#E8E0D0" stroke="#B8B0A0" stroke-width="0.5"/>
<path d="M 158.98,495.03 L 203.12,490.94 L 207.57,500.00 L 154.14,500.00 L 158.98,495.03 Z M 228.04,491.69 L 233.61,474.96 L 267.76,474.81 L 286.34,500.00 L 230.44,500.00 L 228.04,491.69 Z M 277.87,478.84 L 270.34,473.47 L 255.37,472.34 L 251.61,468.37 L 247.08,458.62 L 256.06,459.24 L 257.22,452.58 L 245.95,444.45 L 254.19,430.95 L 238.59,435.72 L 234.28,428.94 L 256.85,412.38 L 239.15,389.84 L 237.62,374.00 L 269.59,383.30 L 288.00,376.95 L 301.36,387.73 L 308.15,385.49 L 312.02,393.20 L 307.16,395.89 L 313.17,396.58 L 312.50,407.10 L 302.26,415.43 L 318.88,413.80 L 322.20,416.84 L 318.80,430.28 L 328.47,418.58 L 351.11,431.68 L 373.26,424.23 L 369.49,426.92 L 369.49,444.11 L 352.28,457.28 L 360.47,466.01 L 375.43,460.44 L 390.92,471.45 L 403.64,446.93 L 425.48,443.11 L 425.67,450.99 L 426.95,452.58 L 426.62,444.20 L 449.91,414.16 L 471.14,419.55 L 454.86,420.59 L 449.53,425.57 L 444.68,424.07 L 440.86,435.72 L 457.97,421.77 L 467.49,426.99 L 475.94,419.10 L 481.76,434.65 L 501.96,453.22 L 514.48,445.12 L 519.75,451.91 L 516.35,458.62 L 525.12,467.81 L 520.32,474.22 L 520.24,476.68 L 544.77,486.65 L 541.93,490.94 L 544.46,500.00 L 288.04,500.00 L 277.87,478.84 Z M 541.28,474.20 L 521.51,476.94 L 526.52,472.12 L 525.03,462.66 L 532.92,468.03 L 533.08,461.71 L 527.31,455.65 L 517.89,459.97 L 520.13,452.24 L 516.73,447.14 L 520.13,445.12 L 541.78,468.27 L 541.28,474.20 Z M 134.68,500.00 L 133.46,500.00 L 134.79,499.60 L 134.68,500.00 Z M 149.17,492.31 L 151.27,493.01 L 139.67,494.42 L 149.17,492.31 Z M 159.36,488.84 L 165.59,489.45 L 156.10,491.60 L 159.36,488.84 Z M 168.71,488.12 L 170.46,488.98 L 169.68,489.65 L 168.71,488.12 Z M 209.75,487.88 L 212.14,488.98 L 209.67,490.33 L 209.75,487.88 Z M 179.84,485.57 L 180.97,486.72 L 172.51,488.60 L 179.84,485.57 Z M 184.21,483.76 L 191.14,483.55 L 187.60,485.74 L 184.21,483.76 Z M 193.43,483.41 L 195.79,482.26 L 198.97,483.58 L 193.43,483.41 Z M 389.22,459.95 L 393.13,459.97 L 390.92,466.01 L 386.43,464.00 L 389.22,459.95 Z M 395.10,453.86 L 399.59,451.17 L 395.41,456.60 L 395.10,453.86 Z M 250.07,416.11 L 245.95,414.76 L 247.69,411.06 L 254.19,410.67 L 250.07,416.11 Z M 383.06,421.48 L 366.15,416.11 L 372.48,409.46 L 383.06,421.48 Z M 481.98,404.50 L 478.82,416.11 L 481.07,403.54 L 481.98,404.50 Z M 517.47,428.26 L 515.10,434.81 L 509.28,430.95 L 513.33,427.59 L 502.85,428.26 L 495.17,435.10 L 497.78,439.75 L 481.79,428.94 L 490.09,424.23 L 484.06,420.20 L 490.43,414.76 L 483.32,408.78 L 491.79,411.06 L 495.71,404.62 L 494.58,410.67 L 503.25,414.16 L 504.00,406.03 L 499.65,407.37 L 495.69,401.97 L 489.34,406.64 L 491.54,399.00 L 488.12,397.91 L 496.88,394.48 L 498.73,404.62 L 512.22,406.48 L 507.00,415.77 L 517.47,428.26 Z M 222.36,399.31 L 223.40,399.91 L 217.38,396.56 L 222.36,399.31 Z M 233.95,391.18 L 223.03,391.86 L 225.34,388.55 L 233.95,391.18 Z M 222.69,374.20 L 237.27,374.26 L 218.24,377.04 L 216.99,389.15 L 217.74,372.40 L 221.88,360.35 L 224.19,357.36 L 226.80,358.80 L 222.69,374.20 Z M 239.71,407.24 L 239.82,408.30 L 235.32,413.73 L 239.71,407.24 Z M 195.87,444.67 L 194.82,443.12 L 195.62,443.05 L 195.87,444.67 Z M 197.56,442.99 L 197.75,443.52 L 196.89,443.81 L 197.56,442.99 Z" fill="#C8D8E8" stroke="#8BAABB" stroke-width="0.8"/>
<path d="M 238.78,350.68 L 226.55,353.61 L 228.20,344.39 L 239.19,349.86 L 235.26,320.69 L 225.62,318.13 L 218.57,306.44 L 214.50,308.88 L 218.57,317.60 L 206.62,309.75 L 211.36,292.04 L 208.40,266.59 L 212.01,283.89 L 222.96,274.31 L 216.88,257.91 L 209.60,254.44 L 207.32,262.98 L 211.20,199.23 L 213.46,195.58 L 218.25,210.82 L 232.41,208.41 L 241.23,217.82 L 243.20,209.93 L 238.78,203.71 L 259.67,185.40 L 265.86,195.64 L 259.53,209.70 L 264.73,200.29 L 271.35,203.08 L 269.93,208.41 L 274.09,213.18 L 276.64,209.73 L 272.31,210.16 L 272.97,196.93 L 265.48,197.60 L 269.51,191.85 L 265.80,186.04 L 267.19,172.97 L 306.41,161.19 L 299.82,156.49 L 269.66,166.73 L 262.49,161.19 L 238.65,171.63 L 228.33,187.21 L 230.29,196.94 L 223.78,197.60 L 233.54,197.60 L 232.07,207.01 L 220.71,197.18 L 217.95,190.21 L 214.76,188.86 L 214.88,196.09 L 214.35,189.48 L 214.99,185.42 L 235.28,154.86 L 278.80,150.68 L 309.21,108.76 L 321.86,107.79 L 340.57,93.75 L 346.59,94.42 L 334.62,110.81 L 340.98,124.12 L 340.57,143.66 L 330.05,165.95 L 310.73,157.83 L 307.02,161.19 L 328.22,168.64 L 325.60,176.04 L 329.69,194.77 L 319.05,194.28 L 300.39,202.37 L 329.34,196.10 L 329.68,204.32 L 322.77,210.43 L 321.07,219.16 L 329.13,206.01 L 336.78,214.11 L 356.09,212.80 L 363.87,221.24 L 360.99,232.50 L 351.51,250.17 L 345.48,242.00 L 341.06,255.41 L 330.46,245.49 L 337.95,244.09 L 338.69,238.04 L 333.11,236.02 L 323.10,250.82 L 326.24,263.63 L 321.01,281.74 L 303.76,279.94 L 313.53,283.68 L 311.31,294.79 L 286.71,293.76 L 303.01,302.12 L 283.51,315.62 L 292.40,316.75 L 288.37,321.72 L 295.15,339.32 L 282.87,348.42 L 286.88,355.39 L 280.02,360.10 L 296.28,364.24 L 297.10,379.93 L 289.92,370.42 L 273.59,383.32 L 237.62,374.00 L 238.78,350.68 Z M 410.27,397.74 L 391.84,400.59 L 365.79,384.78 L 371.76,380.37 L 367.61,371.74 L 378.54,367.61 L 398.43,382.38 L 401.43,372.30 L 412.16,390.18 L 410.27,397.74 Z M 339.45,378.36 L 332.04,380.45 L 321.40,366.01 L 339.45,378.36 Z M 450.89,368.01 L 426.95,372.92 L 436.37,364.85 L 434.40,357.81 L 450.89,368.01 Z M 314.56,375.50 L 308.48,377.31 L 299.02,371.98 L 297.77,365.59 L 302.67,368.89 L 300.01,362.16 L 290.66,358.08 L 299.70,355.84 L 314.56,375.50 Z M 363.46,348.66 L 349.06,389.84 L 343.97,379.70 L 363.46,348.66 Z M 589.07,364.61 L 567.77,353.82 L 571.98,333.35 L 593.38,350.68 L 589.07,364.61 Z M 223.45,326.39 L 221.92,318.20 L 226.80,321.72 L 227.51,329.79 L 223.45,326.39 Z M 314.64,354.71 L 319.58,350.01 L 311.22,344.37 L 312.43,351.42 L 310.23,351.22 L 304.71,329.46 L 294.77,317.69 L 300.73,320.38 L 293.28,315.01 L 327.89,302.95 L 339.46,311.29 L 334.02,318.64 L 336.87,320.19 L 344.41,315.31 L 345.42,303.40 L 351.71,315.81 L 342.34,318.40 L 341.39,320.23 L 349.28,320.46 L 356.75,335.22 L 353.39,335.54 L 353.96,351.57 L 347.54,357.47 L 314.64,354.71 Z M 457.62,304.62 L 451.14,309.61 L 449.16,302.85 L 454.40,296.07 L 457.62,304.62 Z M 339.27,270.17 L 340.84,265.57 L 347.71,277.18 L 342.94,289.02 L 339.06,282.57 L 339.27,270.17 Z M 429.98,379.70 L 418.49,393.90 L 417.86,406.25 L 413.48,397.29 L 415.72,391.18 L 404.83,369.62 L 414.22,365.59 L 399.59,354.71 L 411.19,358.80 L 405.17,351.42 L 410.07,349.34 L 405.17,343.29 L 380.14,344.05 L 376.26,329.79 L 370.64,328.50 L 377.58,324.05 L 370.27,313.29 L 373.82,307.09 L 362.00,298.09 L 370.64,298.82 L 359.01,290.69 L 376.39,294.87 L 393.53,278.29 L 392.00,271.15 L 382.53,268.54 L 380.78,265.71 L 407.95,268.28 L 402.18,274.51 L 405.17,283.98 L 399.15,286.73 L 406.33,285.32 L 407.64,290.03 L 401.86,291.86 L 408.58,298.82 L 418.11,279.79 L 417.07,271.90 L 423.49,291.29 L 415.72,298.82 L 423.95,299.43 L 425.86,292.04 L 422.08,271.15 L 413.28,268.06 L 434.08,252.71 L 454.74,261.07 L 448.75,272.43 L 453.66,294.06 L 431.51,315.81 L 446.14,335.22 L 421.45,347.31 L 430.35,353.43 L 428.81,364.37 L 415.01,364.24 L 414.63,370.72 L 429.98,379.70 Z M 394.38,194.97 L 401.43,193.57 L 397.68,198.33 L 394.38,194.97 Z M 237.49,198.63 L 229.61,192.72 L 238.06,184.10 L 237.12,177.37 L 252.31,169.26 L 246.67,192.17 L 237.49,198.63 Z M 376.61,137.15 L 369.49,138.29 L 367.42,147.09 L 357.89,140.91 L 373.64,134.25 L 376.61,137.15 Z" fill="#4A90D9" stroke="#1a5fa8" stroke-width="1.2"/>
<path d="M 513.11,2.62 L 495.36,6.70 L 487.17,18.99 L 482.20,15.83 L 485.57,8.12 L 468.66,11.48 L 471.69,16.90 L 453.64,32.51 L 448.75,31.76 L 455.53,21.53 L 449.28,29.47 L 437.29,29.27 L 455.23,5.60 L 448.15,1.20 L 448.27,0.00 L 484.78,0.00 L 478.82,3.40 L 481.44,6.70 L 486.36,6.12 L 484.81,0.00 L 515.71,0.00 L 513.11,2.62 Z" fill="#A8C8E8" stroke="none"/>
<path d="M 580.62,6.70 L 576.47,10.79 L 583.96,16.90 L 567.02,30.05 L 558.96,57.52 L 544.12,87.76 L 538.80,88.98 L 535.02,74.06 L 545.54,38.71 L 560.63,5.31 L 565.14,0.00 L 580.69,0.00 L 580.62,6.70 Z" fill="#A8C8E8" stroke="none"/>
<path d="M 617.98,24.52 L 613.31,20.43 L 619.31,14.76 L 637.33,17.51 L 617.98,24.52 Z" fill="#A8C8E8" stroke="none"/>
<path d="M 587.76,14.21 L 600.53,13.48 L 597.51,15.51 L 587.76,14.21 Z" fill="#A8C8E8" stroke="none"/>
<path d="M 516.72,179.54 L 510.37,190.20 L 508.50,173.34 L 513.00,161.87 L 519.48,161.67 L 516.72,179.54 Z" fill="#A8C8E8" stroke="none"/>
<path d="M 576.79,207.35 L 571.74,206.54 L 574.20,212.45 L 568.21,211.78 L 562.93,190.20 L 566.14,202.37 L 568.95,193.56 L 576.79,207.35 Z" fill="#A8C8E8" stroke="none"/>
<path d="M 395.10,482.86 L 390.92,491.67 L 393.33,500.00 L 391.55,500.00 L 389.08,499.06 L 390.65,486.14 L 395.10,482.86 Z" fill="#A8C8E8" stroke="none"/>
<path d="M 553.16,18.26 L 547.49,5.14 L 543.78,10.79 L 540.10,8.12 L 547.54,1.34 L 555.91,13.02 L 553.16,18.26 Z" fill="#A8C8E8" stroke="none"/>
<path d="M 644.82,9.45 L 631.39,5.80 L 635.60,4.38 L 634.35,0.00 L 635.32,0.00 L 644.82,9.45 Z" fill="#A8C8E8" stroke="none"/>
<path d="M 639.94,68.15 L 630.20,68.76 L 636.17,74.87 L 631.41,76.64 L 626.63,68.47 L 639.94,68.15 Z" fill="#A8C8E8" stroke="none"/>
<path d="M 601.27,67.42 L 604.64,79.59 L 598.20,68.79 L 594.25,75.85 L 585.34,62.09 L 586.13,55.84 L 588.59,64.58 L 595.38,60.82 L 603.98,66.03 L 605.29,72.58 L 601.27,67.42 Z" fill="#A8C8E8" stroke="none"/>
<path d="M 333.56,453.43 L 329.47,449.26 L 330.76,446.85 L 334.69,446.50 L 333.56,453.43 Z" fill="#A8C8E8" stroke="none"/>
</svg>