<svg xmlns="http://www.w3.org/2000/svg" width="800" height="500" viewBox="0 0 800 500">
<rect width="800" height="500" fill="#A8C8E8"/>
<path d="M 525.55,407.77 L 526.07,397.16 L 475.81,398.61 L 466.73,390.82 L 494.20,383.25 L 453.30,367.33 L 438.33,339.27 L 523.37,350.09 L 508.83,367.41 L 540.59,399.35 L 525.55,407.77 Z M 424.48,178.76 L 410.19,169.67 L 426.12,157.59 L 444.70,169.65 L 424.48,178.76 Z M 476.05,111.81 L 470.29,111.32 L 483.41,105.21 L 476.05,111.81 Z M 351.70,153.80 L 319.46,166.98 L 293.86,110.26 L 308.73,101.96 L 355.28,114.42 L 351.70,153.80 Z M 377.57,78.87 L 401.77,104.53 L 452.31,119.51 L 377.66,127.42 L 357.15,114.44 L 377.57,78.87 Z M 339.18,180.90 L 336.31,182.94 L 333.61,181.97 L 339.18,180.90 Z M 347.65,180.63 L 344.27,180.46 L 348.21,177.66 L 347.65,180.63 Z" fill="#E8E0D0" stroke="#B8B0A0" stroke-width="0.5"/>
<path d="M 520.15,497.60 L 518.11,500.00 L 485.15,500.00 L 473.57,490.32 L 509.83,454.05 L 520.15,497.60 Z" fill="#E8E0D0" stroke="#B8B0A0" stroke-width="0.5"/>
<path d="M 188.48,51.43 L 192.69,31.02 L 199.53,31.98 L 188.48,51.43 Z" fill="#E8E0D0" stroke="#B8B0A0" stroke-width="0.5"/>
<path d="M 308.92,4.47 L 291.40,0.00 L 314.43,0.00 L 308.92,4.47 Z M 157.43,12.93 L 156.43,13.42 L 156.13,13.15 L 157.43,12.93 Z" fill="#E8E0D0" stroke="#B8B0A0" stroke-width="0.5"/>
<path d="M 370.97,231.58 L 375.95,216.25 L 416.28,224.78 L 428.78,241.44 L 429.03,270.70 L 402.48,283.75 L 370.97,231.58 Z" fill="#4A90D9" stroke="#1a5fa8" stroke-width="1.2"/>
</svg>