<svg xmlns="http://www.w3.org/2000/svg" width="800" height="500" viewBox="0 0 800 500">
<rect width="800" height="500" fill="#A8C8E8"/>
<path d="M 475.64,407.77 L 475.96,397.16 L 445.67,398.61 L 440.21,390.82 L 456.75,383.25 L 432.12,367.33 L 423.09,339.27 L 474.33,350.09 L 465.57,367.41 L 484.71,399.35 L 475.64,407.77 Z M 414.75,178.76 L 406.14,169.67 L 415.74,157.59 L 426.93,169.65 L 414.75,178.76 Z M 445.82,111.81 L 442.35,111.32 L 450.26,105.21 L 445.82,111.81 Z M 370.90,153.80 L 351.48,166.98 L 336.05,110.26 L 345.01,101.96 L 373.06,114.42 L 370.90,153.80 Z M 386.49,78.87 L 401.07,104.53 L 431.52,119.51 L 386.54,127.42 L 374.18,114.44 L 386.49,78.87 Z M 363.35,180.90 L 361.63,182.94 L 360.00,181.97 L 363.35,180.90 Z M 368.46,180.63 L 366.43,180.46 L 368.80,177.66 L 368.46,180.63 Z" fill="#E8E0D0" stroke="#B8B0A0" stroke-width="0.5"/>
<path d="M 472.39,497.60 L 471.16,500.00 L 451.30,500.00 L 444.33,490.32 L 466.18,454.05 L 472.39,497.60 Z" fill="#E8E0D0" stroke="#B8B0A0" stroke-width="0.5"/>
<path d="M 272.56,51.43 L 275.10,31.02 L 279.22,31.98 L 272.56,51.43 Z" fill="#E8E0D0" stroke="#B8B0A0" stroke-width="0.5"/>
<path d="M 345.12,4.47 L 334.57,0.00 L 348.44,0.00 L 345.12,4.47 Z M 253.85,12.93 L 253.25,13.42 L 253.07,13.15 L 253.85,12.93 Z" fill="#E8E0D0" stroke="#B8B0A0" stroke-width="0.5"/>
<path d="M 382.51,231.58 L 385.51,216.25 L 409.81,224.78 L 417.34,241.44 L 417.49,270.70 L 401.50,283.75 L 382.51,231.58 Z" fill="#4A90D9" stroke="#1a5fa8" stroke-width="1.2"/>
</svg>