<svg xmlns="http://www.w3.org/2000/svg" width="800" height="500" viewBox="0 0 800 500">
<rect width="800" height="500" fill="#A8C8E8"/>
<path d="M 712.69,343.09 L 703.90,337.69 L 706.36,335.01 L 715.05,334.99 L 712.69,343.09 Z M 794.62,302.28 L 800.00,297.31 L 800.00,309.25 L 794.62,302.28 Z" fill="#E8E0D0" stroke="#B8B0A0" stroke-width="0.5"/>
<path d="M 191.62,162.97 L 181.74,174.50 L 199.81,197.66 L 169.65,222.54 L 187.59,233.37 L 189.38,248.87 L 172.89,268.39 L 150.00,270.92 L 163.29,293.16 L 190.88,308.71 L 181.78,344.97 L 141.58,318.73 L 30.83,331.45 L 0.00,324.32 L 0.00,290.23 L 28.35,292.71 L 53.88,292.24 L 70.19,275.95 L 103.21,280.02 L 106.39,259.74 L 76.59,246.20 L 40.68,210.83 L 55.14,202.13 L 42.06,187.14 L 54.22,179.01 L 46.20,168.02 L 56.24,158.83 L 15.02,137.98 L 0.00,136.81 L 0.00,93.64 L 45.78,92.93 L 98.96,110.59 L 105.93,122.75 L 121.60,113.70 L 175.63,130.94 L 172.51,123.73 L 184.33,123.87 L 191.62,162.97 Z M 42.19,73.96 L 65.98,84.41 L 20.71,77.40 L 42.19,73.96 Z M 0.00,237.01 L 0.00,226.64 L 36.25,240.71 L 41.33,254.83 L 0.00,237.01 Z" fill="#C8D8E8" stroke="#8BAABB" stroke-width="0.8"/>
<path d="M 197.39,99.58 L 263.94,107.46 L 287.24,93.75 L 338.55,116.40 L 364.39,115.25 L 385.19,131.58 L 430.56,128.03 L 454.99,178.17 L 513.76,179.01 L 527.96,169.75 L 525.84,178.18 L 537.07,177.20 L 524.91,193.55 L 475.45,188.03 L 476.65,205.47 L 594.82,222.54 L 650.00,273.77 L 633.46,302.81 L 615.33,299.58 L 607.42,321.73 L 594.37,323.10 L 569.95,295.60 L 443.59,287.64 L 421.13,295.73 L 400.02,319.54 L 348.19,323.13 L 344.57,299.13 L 327.65,293.25 L 296.55,315.55 L 275.94,309.88 L 279.05,331.36 L 230.61,402.46 L 215.05,382.57 L 194.96,381.22 L 197.75,356.34 L 181.78,344.97 L 190.88,308.71 L 163.29,293.16 L 150.00,270.92 L 172.89,268.39 L 189.38,248.87 L 187.59,233.37 L 169.65,222.54 L 199.81,197.66 L 181.74,174.50 L 191.62,162.97 L 184.33,123.87 L 197.39,99.58 Z M 213.72,406.25 L 216.49,400.28 L 223.82,405.71 L 213.72,406.25 Z M 617.65,335.89 L 588.40,324.14 L 592.80,324.01 L 617.65,335.89 Z" fill="#4A90D9" stroke="#1a5fa8" stroke-width="1.2"/>
<path d="M 220.13,288.75 L 206.30,295.53 L 178.05,283.92 L 175.86,278.54 L 220.13,288.75 Z" fill="#A8C8E8" stroke="none"/>
<path d="M 164.23,285.13 L 143.27,275.04 L 148.36,263.27 L 164.23,285.13 Z" fill="#A8C8E8" stroke="none"/>
</svg>