<svg xmlns="http://www.w3.org/2000/svg" width="800" height="500" viewBox="0 0 800 500">
<rect width="800" height="500" fill="#A8C8E8"/>
<path d="M 688.04,343.09 L 679.94,337.69 L 682.20,335.01 L 690.21,334.99 L 688.04,343.09 Z M 763.51,302.28 L 768.46,297.31 L 768.46,309.25 L 763.51,302.28 Z" fill="#E8E0D0" stroke="#B8B0A0" stroke-width="0.5"/>
<path d="M 208.05,162.97 L 198.94,174.50 L 215.59,197.66 L 187.81,222.54 L 204.34,233.37 L 205.98,248.87 L 190.79,268.39 L 169.71,270.92 L 181.95,293.16 L 207.36,308.71 L 198.98,344.97 L 161.95,318.73 L 59.94,331.45 L 31.54,324.32 L 31.54,290.23 L 57.65,292.71 L 81.17,292.24 L 96.19,275.95 L 126.61,280.02 L 129.54,259.74 L 102.08,246.20 L 69.00,210.83 L 82.33,202.13 L 70.28,187.14 L 81.48,179.01 L 74.09,168.02 L 83.34,158.83 L 45.37,137.98 L 31.54,136.81 L 31.54,93.64 L 73.70,92.93 L 122.69,110.59 L 129.11,122.75 L 143.54,113.70 L 193.32,130.94 L 190.44,123.73 L 201.34,123.87 L 208.05,162.97 Z M 70.40,73.96 L 92.31,84.41 L 50.61,77.40 L 70.40,73.96 Z M 31.54,237.01 L 31.54,226.64 L 64.92,240.71 L 69.61,254.83 L 31.54,237.01 Z" fill="#C8D8E8" stroke="#8BAABB" stroke-width="0.8"/>
<path d="M 213.36,99.58 L 274.66,107.46 L 296.13,93.75 L 343.40,116.40 L 367.20,115.25 L 386.36,131.58 L 428.15,128.03 L 450.65,178.17 L 504.80,179.01 L 517.87,169.75 L 515.92,178.18 L 526.26,177.20 L 515.06,193.55 L 469.50,188.03 L 470.60,205.47 L 579.46,222.54 L 630.29,273.77 L 615.05,302.81 L 598.35,299.58 L 591.07,321.73 L 579.05,323.10 L 556.56,295.60 L 440.16,287.64 L 419.47,295.73 L 400.02,319.54 L 352.27,323.13 L 348.94,299.13 L 333.35,293.25 L 304.70,315.55 L 285.72,309.88 L 288.59,331.36 L 243.96,402.46 L 229.63,382.57 L 211.12,381.22 L 213.69,356.34 L 198.98,344.97 L 207.36,308.71 L 181.95,293.16 L 169.71,270.92 L 190.79,268.39 L 205.98,248.87 L 204.34,233.37 L 187.81,222.54 L 215.59,197.66 L 198.94,174.50 L 208.05,162.97 L 201.34,123.87 L 213.36,99.58 Z M 228.41,406.25 L 230.95,400.28 L 237.71,405.71 L 228.41,406.25 Z M 600.49,335.89 L 573.54,324.14 L 577.60,324.01 L 600.49,335.89 Z" fill="#4A90D9" stroke="#1a5fa8" stroke-width="1.2"/>
<path d="M 234.31,288.75 L 221.57,295.53 L 195.55,283.92 L 193.54,278.54 L 234.31,288.75 Z" fill="#A8C8E8" stroke="none"/>
<path d="M 182.82,285.13 L 163.51,275.04 L 168.20,263.27 L 182.82,285.13 Z" fill="#A8C8E8" stroke="none"/>
</svg>