<svg xmlns="http://www.w3.org/2000/svg" width="800" height="500" viewBox="0 0 800 500">
<rect width="800" height="500" fill="#A8C8E8"/>
<path d="M 423.41,1.67 L 419.65,1.00 L 415.51,3.26 L 409.66,1.72 L 405.37,3.10 L 401.05,0.59 L 401.09,-0.00 L 422.37,-0.00 L 423.41,1.67 Z M 405.42,1.45 L 404.77,0.80 L 404.63,1.33 L 405.42,1.45 Z M 507.25,4.40 L 505.14,2.61 L 506.82,1.70 L 507.32,-0.00 L 520.09,-0.00 L 520.52,6.58 L 518.14,9.92 L 518.12,14.17 L 516.45,15.55 L 517.34,16.33 L 515.21,18.63 L 515.40,19.93 L 508.83,16.68 L 510.83,14.38 L 506.75,13.42 L 509.04,10.72 L 506.13,10.82 L 505.71,9.65 L 508.12,8.13 L 505.39,5.51 L 507.25,4.40 Z" fill="#E8E0D0" stroke="#B8B0A0" stroke-width="0.5"/>
<path d="M 293.10,114.64 L 292.79,113.90 L 294.55,114.13 L 293.10,114.64 Z M 330.49,124.88 L 330.63,125.07 L 329.86,124.91 L 330.49,124.88 Z M 397.03,1.61 L 400.97,0.44 L 405.57,3.12 L 409.66,1.72 L 413.27,3.49 L 419.65,1.00 L 423.41,1.67 L 423.51,3.08 L 425.49,3.54 L 422.47,5.34 L 424.19,10.04 L 419.64,14.07 L 409.50,18.62 L 407.42,21.12 L 390.47,25.47 L 385.86,29.55 L 388.05,31.77 L 385.29,33.86 L 384.00,33.57 L 386.14,32.68 L 383.56,33.43 L 370.06,51.95 L 372.58,60.82 L 378.55,65.30 L 367.22,72.27 L 367.31,74.53 L 365.49,75.30 L 363.40,81.62 L 361.95,82.55 L 364.24,84.67 L 354.83,85.66 L 349.54,89.09 L 347.38,91.78 L 346.05,96.37 L 342.60,99.90 L 339.03,98.17 L 335.99,98.48 L 333.60,100.84 L 330.32,99.64 L 307.94,100.12 L 304.05,103.85 L 296.02,105.51 L 293.70,110.17 L 292.38,109.50 L 292.18,111.52 L 289.54,112.49 L 283.07,109.33 L 278.91,103.39 L 280.11,104.45 L 280.90,103.74 L 277.62,101.62 L 277.04,99.64 L 278.37,98.89 L 278.48,97.36 L 280.23,97.04 L 280.67,96.52 L 278.39,97.06 L 277.73,98.66 L 276.03,96.05 L 270.04,92.48 L 270.65,90.26 L 268.98,91.32 L 269.50,92.38 L 262.10,92.03 L 260.58,84.98 L 264.26,78.50 L 268.04,77.72 L 269.21,74.71 L 266.83,75.11 L 262.94,70.41 L 264.29,65.38 L 267.55,63.35 L 268.82,60.62 L 264.48,57.21 L 263.64,52.97 L 259.92,49.13 L 268.09,48.89 L 270.24,43.45 L 267.75,40.48 L 271.54,37.46 L 270.58,35.98 L 271.21,28.83 L 269.28,26.08 L 271.39,25.25 L 273.79,21.74 L 278.74,19.27 L 280.50,16.52 L 275.39,14.99 L 275.65,11.40 L 274.35,9.76 L 266.20,9.33 L 265.08,11.20 L 261.67,12.46 L 257.42,10.85 L 254.76,11.56 L 254.61,10.60 L 250.45,12.38 L 249.68,10.75 L 251.74,8.40 L 250.08,7.91 L 249.80,6.46 L 243.64,8.23 L 239.77,10.95 L 239.55,7.06 L 240.60,6.86 L 243.70,3.12 L 239.98,4.69 L 243.21,1.50 L 240.34,2.15 L 238.83,1.02 L 240.60,1.14 L 241.03,-0.00 L 396.48,-0.00 L 397.03,1.61 Z M 404.63,1.33 L 404.77,0.80 L 405.42,1.45 L 404.63,1.33 Z M 164.51,238.83 L 162.84,246.38 L 156.61,249.72 L 154.12,249.36 L 158.42,246.82 L 162.25,237.90 L 164.51,238.83 Z M 170.70,229.74 L 169.72,233.35 L 165.27,236.11 L 163.86,235.67 L 164.90,232.51 L 168.88,230.96 L 169.71,229.20 L 170.70,229.74 Z M 169.57,229.16 L 168.82,229.39 L 169.32,228.35 L 169.57,229.16 Z M 363.71,83.24 L 363.92,83.88 L 363.61,83.56 L 363.49,82.00 L 363.71,83.24 Z M 399.06,66.84 L 396.04,67.03 L 396.77,65.08 L 399.06,66.84 Z M 399.69,60.35 L 396.34,63.75 L 393.51,62.84 L 395.64,59.52 L 399.43,59.28 L 399.69,60.35 Z M 427.88,47.92 L 427.57,49.48 L 424.50,54.20 L 421.58,56.22 L 420.03,54.59 L 417.41,54.37 L 415.81,51.22 L 412.93,52.75 L 410.77,50.91 L 417.81,45.81 L 423.39,44.15 L 422.13,45.10 L 423.80,45.45 L 422.73,47.25 L 427.88,47.92 Z M 441.01,45.90 L 439.66,46.77 L 433.30,44.71 L 432.88,43.29 L 437.48,42.24 L 441.01,45.90 Z M 420.08,58.85 L 419.34,58.24 L 420.36,57.66 L 420.08,58.85 Z M 309.54,126.87 L 309.56,126.88 L 309.49,126.87 L 309.54,126.87 Z M 315.57,126.13 L 315.58,126.13 L 315.57,126.15 L 315.57,126.13 Z M 315.61,126.09 L 315.61,126.10 L 315.59,126.10 L 315.61,126.09 Z M 338.00,126.64 L 338.04,126.71 L 337.96,126.77 L 338.00,126.64 Z M 292.53,114.09 L 292.50,114.14 L 292.45,114.08 L 292.53,114.09 Z" fill="#E8E0D0" stroke="#B8B0A0" stroke-width="0.5"/>
<path d="M 598.93,6.08 L 599.41,7.65 L 605.87,10.36 L 620.72,10.49 L 621.38,12.91 L 617.06,15.76 L 617.99,18.43 L 634.67,24.95 L 641.05,29.29 L 649.13,32.38 L 651.53,35.11 L 651.53,45.61 L 650.12,45.13 L 646.94,38.68 L 641.60,38.37 L 636.85,36.36 L 638.72,35.01 L 633.44,35.11 L 627.79,42.15 L 628.19,44.19 L 626.03,47.48 L 626.89,49.46 L 636.22,53.85 L 636.43,61.54 L 627.49,64.34 L 627.25,70.70 L 621.16,75.63 L 619.75,79.14 L 613.77,78.91 L 612.99,74.31 L 615.73,72.92 L 617.33,69.19 L 616.09,66.91 L 620.90,65.50 L 621.95,63.33 L 615.14,45.49 L 612.86,42.27 L 609.60,43.71 L 607.33,43.10 L 605.29,40.68 L 602.00,39.44 L 603.33,36.75 L 600.03,32.05 L 593.35,33.77 L 595.35,31.02 L 592.61,29.14 L 588.86,29.99 L 588.45,27.71 L 583.89,22.01 L 581.19,22.80 L 577.26,21.26 L 573.58,22.43 L 571.28,19.47 L 567.35,18.64 L 561.32,13.66 L 557.99,9.23 L 555.05,8.52 L 552.48,4.29 L 548.19,2.09 L 544.08,2.36 L 545.32,0.83 L 545.06,-0.00 L 590.89,-0.00 L 598.93,6.08 Z M 564.59,10.79 L 564.59,10.77 L 564.58,10.77 L 564.59,10.79 Z M 558.46,98.97 L 558.15,99.81 L 556.54,98.60 L 558.46,98.97 Z M 562.46,79.03 L 563.29,79.39 L 562.24,79.50 L 562.46,79.03 Z M 613.27,73.36 L 606.60,82.22 L 604.75,87.12 L 604.93,89.67 L 607.19,90.91 L 606.15,91.77 L 608.41,95.15 L 605.76,96.66 L 604.78,101.31 L 595.55,98.92 L 592.37,94.59 L 583.80,92.40 L 575.55,86.95 L 567.72,85.61 L 564.18,81.61 L 565.18,77.74 L 568.41,76.19 L 568.82,74.78 L 571.40,77.62 L 573.84,76.66 L 574.44,74.83 L 577.75,74.30 L 578.86,76.33 L 584.94,78.56 L 588.44,77.25 L 595.92,77.34 L 601.94,74.87 L 604.69,75.89 L 606.96,73.54 L 607.80,74.53 L 613.27,73.36 Z M 603.47,71.59 L 603.15,71.82 L 602.57,71.27 L 603.47,71.59 Z M 602.21,69.09 L 603.04,69.70 L 602.84,70.28 L 602.21,69.09 Z M 601.25,68.80 L 600.21,68.25 L 601.33,68.08 L 601.25,68.80 Z M 504.15,59.65 L 503.02,61.51 L 502.05,59.17 L 504.15,59.65 Z M 501.44,59.05 L 500.66,59.01 L 500.28,57.88 L 501.44,57.52 L 501.44,59.05 Z M 585.83,31.27 L 586.04,30.46 L 587.61,30.93 L 585.83,31.27 Z M 500.53,26.47 L 499.97,26.43 L 501.75,24.18 L 500.53,26.47 Z M 524.19,35.75 L 521.54,39.07 L 523.15,42.16 L 520.63,58.28 L 519.90,59.05 L 512.22,56.30 L 513.22,56.98 L 512.40,60.94 L 509.77,62.96 L 507.69,62.02 L 506.54,63.20 L 505.30,59.88 L 502.46,57.03 L 503.54,47.80 L 504.65,48.75 L 505.39,48.76 L 504.46,48.41 L 505.23,46.15 L 502.79,45.11 L 502.52,43.03 L 504.24,41.81 L 502.56,35.52 L 501.22,33.34 L 499.02,33.38 L 499.72,26.98 L 501.50,28.94 L 504.71,29.34 L 509.30,27.27 L 515.52,21.83 L 518.44,23.24 L 518.75,24.77 L 520.52,24.18 L 519.80,26.08 L 522.09,26.31 L 519.68,27.62 L 523.03,29.03 L 522.02,29.81 L 524.19,35.75 Z M 541.54,3.41 L 541.29,3.61 L 540.35,2.79 L 541.54,3.41 Z M 570.99,114.91 L 570.96,115.15 L 570.56,114.97 L 570.99,114.91 Z M 593.35,68.67 L 593.57,68.60 L 593.62,68.81 L 593.35,68.67 Z M 596.53,68.42 L 596.39,67.98 L 596.72,68.02 L 596.53,68.42 Z M 575.73,65.73 L 575.91,65.89 L 575.24,66.12 L 575.73,65.73 Z M 606.66,64.77 L 606.20,64.50 L 606.58,64.13 L 606.66,64.77 Z M 579.36,29.80 L 579.48,29.78 L 579.22,30.05 L 579.36,29.80 Z M 566.98,121.41 L 565.69,120.94 L 566.14,120.86 L 566.98,121.41 Z M 558.89,78.96 L 558.14,78.37 L 558.49,78.24 L 558.89,78.96 Z M 519.23,23.27 L 519.07,23.38 L 518.66,23.15 L 519.23,22.29 L 519.23,23.27 Z M 518.02,22.73 L 517.68,22.39 L 518.31,21.83 L 518.02,22.73 Z M 532.04,3.23 L 532.00,3.52 L 531.71,3.45 L 532.04,3.23 Z" fill="#E8E0D0" stroke="#B8B0A0" stroke-width="0.5"/>
<path d="M 189.77,481.00 L 188.91,485.32 L 192.32,489.21 L 192.85,495.01 L 190.80,497.17 L 192.49,500.00 L 162.68,500.00 L 162.01,499.33 L 160.22,500.00 L 155.03,500.00 L 153.57,498.27 L 150.55,498.70 L 148.47,495.89 L 148.47,445.74 L 155.64,446.18 L 162.17,451.74 L 164.34,455.49 L 165.95,454.31 L 166.88,455.75 L 169.68,454.90 L 172.25,458.77 L 173.44,464.07 L 175.39,464.54 L 175.78,466.32 L 177.60,466.04 L 179.68,469.93 L 178.76,470.50 L 184.90,474.52 L 189.77,481.00 Z" fill="#E8E0D0" stroke="#B8B0A0" stroke-width="0.5"/>
<path d="M 443.60,497.34 L 448.93,495.97 L 454.57,496.53 L 459.05,494.14 L 468.50,498.27 L 471.95,498.52 L 473.13,500.00 L 439.56,500.00 L 443.60,497.34 Z M 576.38,499.87 L 577.93,497.08 L 582.15,497.18 L 583.97,500.00 L 575.61,500.00 L 576.38,499.87 Z" fill="#E8E0D0" stroke="#B8B0A0" stroke-width="0.5"/>
<path d="M 582.15,497.18 L 579.75,484.50 L 582.92,482.61 L 585.60,474.48 L 593.75,461.89 L 610.44,442.14 L 614.56,390.24 L 618.13,382.78 L 612.04,375.61 L 611.64,373.22 L 612.63,372.18 L 606.16,362.86 L 605.97,354.20 L 603.05,336.91 L 618.35,329.16 L 651.53,347.72 L 651.53,500.00 L 583.97,500.00 L 582.15,497.18 Z" fill="#E8E0D0" stroke="#B8B0A0" stroke-width="0.5"/>
<path d="M 397.95,1.72 L 396.41,-0.00 L 401.02,-0.00 L 400.97,0.44 L 397.95,1.72 Z" fill="#E8E0D0" stroke="#B8B0A0" stroke-width="0.5"/>
<path d="M 264.29,65.38 L 262.94,70.41 L 266.83,75.11 L 269.21,74.71 L 268.04,77.72 L 264.26,78.50 L 260.34,85.57 L 262.20,92.51 L 255.93,95.38 L 244.35,93.22 L 237.99,94.98 L 241.73,82.75 L 240.87,82.88 L 240.93,79.80 L 239.56,78.92 L 241.39,74.88 L 241.08,71.91 L 238.83,69.80 L 241.03,70.76 L 243.95,70.88 L 241.98,70.31 L 241.41,68.35 L 241.18,69.80 L 239.39,69.27 L 234.45,70.88 L 235.16,68.59 L 234.11,66.63 L 236.32,66.74 L 238.83,64.73 L 237.78,62.35 L 241.54,59.17 L 238.94,60.15 L 236.43,63.78 L 236.25,65.79 L 230.78,65.99 L 230.39,64.14 L 232.62,57.45 L 231.73,54.38 L 234.65,53.85 L 236.58,50.86 L 239.97,41.45 L 241.23,41.56 L 239.35,40.15 L 241.72,32.55 L 244.47,30.58 L 243.01,30.71 L 242.77,30.10 L 243.36,29.40 L 243.21,29.03 L 241.75,32.34 L 243.31,23.72 L 241.96,22.05 L 240.54,14.78 L 242.59,13.91 L 239.78,13.65 L 239.98,11.54 L 243.64,8.23 L 249.80,6.46 L 250.08,7.91 L 251.74,8.40 L 249.66,11.08 L 251.76,12.44 L 254.61,10.60 L 254.76,11.56 L 257.42,10.85 L 261.67,12.46 L 265.08,11.20 L 265.98,9.36 L 274.35,9.76 L 275.65,11.40 L 275.39,14.99 L 280.50,16.52 L 278.74,19.27 L 273.79,21.74 L 271.39,25.25 L 269.28,26.08 L 271.21,28.83 L 270.58,35.98 L 271.54,37.46 L 267.75,40.48 L 270.24,43.45 L 268.09,48.89 L 259.92,49.13 L 263.64,52.97 L 264.69,57.48 L 268.63,59.70 L 266.81,63.84 L 264.29,65.38 Z M 255.31,95.35 L 255.42,95.58 L 254.65,95.94 L 253.86,95.69 L 255.31,95.35 Z M 237.33,63.46 L 236.75,63.96 L 237.02,63.40 L 237.33,63.46 Z" fill="#E8E0D0" stroke="#B8B0A0" stroke-width="0.5"/>
<path d="M 324.94,497.28 L 328.28,498.85 L 330.90,498.08 L 331.33,492.06 L 335.44,488.24 L 337.50,487.23 L 342.22,489.38 L 343.99,488.95 L 344.58,483.95 L 349.15,483.51 L 358.56,478.34 L 364.02,473.47 L 367.86,473.44 L 368.50,474.78 L 371.38,473.69 L 378.31,476.36 L 377.40,483.51 L 380.90,487.73 L 380.60,491.40 L 384.03,497.44 L 388.64,498.71 L 389.54,500.00 L 325.17,500.00 L 324.94,497.28 Z" fill="#E8E0D0" stroke="#B8B0A0" stroke-width="0.5"/>
<path d="M 293.70,110.17 L 293.65,110.70 L 293.53,110.54 L 293.70,110.17 Z" fill="#E8E0D0" stroke="#B8B0A0" stroke-width="0.5"/>
<path d="M 150.55,498.70 L 153.57,498.27 L 155.03,500.00 L 148.47,500.00 L 148.47,495.89 L 150.55,498.70 Z M 162.01,499.33 L 162.68,500.00 L 160.22,500.00 L 162.01,499.33 Z" fill="#E8E0D0" stroke="#B8B0A0" stroke-width="0.5"/>
<path d="M 564.58,10.77 L 564.59,10.77 L 564.59,10.79 L 564.58,10.77 Z" fill="#E8E0D0" stroke="#B8B0A0" stroke-width="0.5"/>
<path d="M 596.16,116.03 L 594.59,115.64 L 593.03,113.07 L 596.47,114.50 L 596.16,116.03 Z M 592.92,111.72 L 593.22,112.01 L 590.94,112.01 L 592.92,111.72 Z" fill="#E8E0D0" stroke="#B8B0A0" stroke-width="0.5"/>
<path d="M 549.30,170.59 L 550.77,174.11 L 540.52,179.24 L 539.00,181.52 L 536.46,182.40 L 534.83,186.01 L 531.25,187.11 L 528.85,191.44 L 531.10,201.57 L 525.27,209.97 L 519.92,212.15 L 512.69,180.36 L 501.82,172.50 L 501.09,167.17 L 498.10,162.72 L 492.59,160.36 L 492.11,156.52 L 488.94,149.60 L 489.43,145.46 L 493.21,142.88 L 494.22,139.95 L 500.38,135.93 L 501.35,128.68 L 503.35,125.68 L 501.26,124.24 L 501.91,120.57 L 500.46,115.57 L 502.23,105.18 L 499.37,103.53 L 503.33,101.17 L 503.07,99.08 L 506.55,98.18 L 505.95,96.40 L 509.33,95.71 L 515.21,91.32 L 523.34,89.40 L 525.08,89.68 L 523.76,91.67 L 524.43,92.73 L 525.93,92.28 L 524.48,91.43 L 525.44,90.81 L 531.37,92.27 L 529.18,92.62 L 530.69,93.32 L 530.01,94.89 L 532.52,97.42 L 530.10,98.84 L 532.64,99.99 L 535.13,99.57 L 536.14,97.49 L 543.23,93.97 L 544.44,97.87 L 539.41,104.81 L 535.62,106.09 L 534.46,110.66 L 536.70,115.32 L 543.08,118.85 L 543.10,124.08 L 544.88,126.08 L 536.32,137.70 L 529.16,141.48 L 527.31,144.16 L 528.32,148.03 L 532.26,152.23 L 534.68,153.19 L 538.14,152.15 L 537.49,154.94 L 538.47,156.10 L 541.08,155.04 L 541.48,153.37 L 543.11,153.69 L 544.01,158.07 L 546.93,159.40 L 544.49,158.98 L 545.19,160.71 L 549.05,161.01 L 547.81,159.88 L 550.14,161.22 L 549.30,170.59 Z M 543.37,150.54 L 540.75,153.31 L 539.81,151.76 L 538.50,152.01 L 538.44,149.09 L 543.37,150.54 Z M 542.26,135.51 L 544.14,135.72 L 543.30,136.39 L 542.26,135.51 Z M 546.98,134.53 L 544.45,135.66 L 546.33,132.86 L 546.98,134.53 Z" fill="#C8D8E8" stroke="#8BAABB" stroke-width="0.8"/>
<path d="M 562.98,167.23 L 570.23,167.72 L 578.26,166.00 L 581.60,167.75 L 590.95,169.27 L 595.28,172.64 L 606.12,174.77 L 608.90,178.58 L 608.85,182.19 L 610.82,187.38 L 614.95,192.15 L 619.26,194.09 L 632.92,195.68 L 646.72,200.16 L 651.53,202.50 L 651.53,347.72 L 618.35,329.16 L 591.42,343.45 L 580.25,333.73 L 557.21,327.91 L 550.20,314.17 L 538.20,310.06 L 533.48,311.42 L 531.19,309.64 L 530.17,306.65 L 527.72,304.81 L 527.35,296.62 L 517.76,282.17 L 519.35,279.01 L 525.02,276.04 L 525.87,270.55 L 523.00,262.52 L 526.25,252.89 L 523.83,245.98 L 524.58,231.13 L 522.17,222.85 L 516.37,214.07 L 525.27,209.97 L 530.16,203.48 L 531.34,200.30 L 528.85,191.44 L 531.25,187.11 L 534.83,186.01 L 536.46,182.40 L 539.00,181.52 L 540.52,179.24 L 550.77,174.11 L 549.30,170.59 L 550.14,161.22 L 562.98,167.23 Z" fill="#C8D8E8" stroke="#8BAABB" stroke-width="0.8"/>
<path d="M 388.64,498.71 L 384.03,497.44 L 380.60,491.40 L 380.90,487.73 L 377.31,482.64 L 378.35,474.89 L 389.44,475.18 L 395.25,469.93 L 420.66,468.97 L 421.17,467.47 L 428.38,468.72 L 428.67,466.27 L 433.54,463.00 L 436.80,452.43 L 438.68,450.40 L 439.36,403.37 L 463.20,398.07 L 488.90,373.53 L 557.21,327.91 L 580.25,333.73 L 591.42,343.45 L 603.05,336.91 L 605.97,354.20 L 606.16,362.86 L 612.63,372.18 L 611.64,373.22 L 612.04,375.61 L 618.13,382.78 L 614.56,390.24 L 610.54,441.76 L 593.75,461.89 L 585.60,474.48 L 582.92,482.61 L 579.75,484.50 L 582.15,497.18 L 577.93,497.08 L 576.38,499.87 L 575.61,500.00 L 472.72,500.00 L 470.93,497.87 L 468.50,498.27 L 459.05,494.14 L 454.57,496.53 L 448.44,496.03 L 442.77,497.70 L 439.47,500.00 L 389.54,500.00 L 388.64,498.71 Z" fill="#C8D8E8" stroke="#8BAABB" stroke-width="0.8"/>
<path d="M 242.79,256.43 L 242.71,285.09 L 192.05,285.18 L 191.99,328.88 L 182.85,332.16 L 176.83,336.52 L 174.74,339.94 L 176.83,365.58 L 148.47,365.58 L 148.47,363.30 L 150.42,362.71 L 152.55,358.39 L 152.25,356.49 L 158.48,348.74 L 160.31,335.11 L 163.51,324.92 L 172.34,319.92 L 177.21,311.48 L 185.74,305.27 L 191.37,285.26 L 196.59,283.30 L 202.38,274.17 L 201.55,269.86 L 211.21,267.50 L 218.92,270.25 L 222.25,269.39 L 225.52,270.43 L 231.69,266.32 L 241.10,265.77 L 240.74,256.43 L 242.79,256.43 Z" fill="#C8D8E8" stroke="#8BAABB" stroke-width="0.8"/>
<path d="M 301.57,302.42 L 274.60,302.44 L 289.37,448.47 L 293.48,452.19 L 291.08,466.30 L 232.64,466.27 L 232.53,462.79 L 231.08,464.68 L 231.51,467.22 L 221.70,468.53 L 211.69,467.35 L 208.80,473.05 L 199.53,463.72 L 198.15,465.49 L 196.44,465.49 L 194.63,471.73 L 195.02,476.55 L 191.21,479.40 L 186.46,477.48 L 184.90,474.52 L 178.76,470.50 L 179.68,469.93 L 177.60,466.04 L 175.78,466.32 L 175.39,464.54 L 173.44,464.07 L 172.25,458.77 L 169.68,454.90 L 166.88,455.75 L 165.95,454.31 L 164.34,455.49 L 162.17,451.74 L 155.64,446.18 L 148.47,445.74 L 148.47,365.65 L 176.83,365.58 L 174.74,339.94 L 176.83,336.52 L 182.85,332.16 L 191.99,328.88 L 192.05,285.18 L 242.71,285.09 L 242.79,262.92 L 301.57,302.42 Z" fill="#C8D8E8" stroke="#8BAABB" stroke-width="0.8"/>
<path d="M 191.21,479.40 L 195.02,476.55 L 194.63,471.73 L 196.44,465.49 L 198.15,465.49 L 199.53,463.72 L 208.80,473.05 L 211.69,467.35 L 221.70,468.53 L 231.51,467.22 L 231.08,464.68 L 232.53,462.79 L 232.64,466.27 L 291.08,466.30 L 293.48,452.19 L 289.37,448.47 L 274.60,302.44 L 301.57,302.42 L 392.44,369.58 L 392.56,375.84 L 398.73,378.27 L 402.05,383.33 L 406.52,384.90 L 408.49,383.86 L 411.53,387.60 L 423.68,391.68 L 424.63,399.13 L 422.24,403.49 L 424.99,405.90 L 439.36,403.37 L 438.68,450.40 L 436.80,452.43 L 433.92,462.49 L 428.67,466.27 L 428.38,468.72 L 421.17,467.47 L 420.66,468.97 L 395.25,469.93 L 389.81,474.97 L 385.18,475.86 L 378.35,474.89 L 378.31,476.36 L 371.38,473.69 L 368.50,474.78 L 367.86,473.44 L 364.02,473.47 L 358.56,478.34 L 349.15,483.51 L 344.58,483.95 L 343.99,488.95 L 342.22,489.38 L 337.50,487.23 L 335.44,488.24 L 331.33,492.06 L 330.90,498.08 L 328.28,498.85 L 324.94,497.28 L 325.17,500.00 L 192.49,500.00 L 190.80,497.17 L 192.85,495.01 L 192.32,489.21 L 188.91,485.32 L 189.77,481.00 L 188.26,478.70 L 191.21,479.40 Z" fill="#C8D8E8" stroke="#8BAABB" stroke-width="0.8"/>
<path d="M 241.10,265.77 L 231.69,266.32 L 225.52,270.43 L 222.25,269.39 L 218.92,270.25 L 211.21,267.50 L 201.55,269.86 L 202.38,274.17 L 196.59,283.30 L 191.37,285.26 L 185.74,305.27 L 177.21,311.48 L 172.34,319.92 L 163.51,324.92 L 160.31,335.11 L 158.48,348.74 L 152.25,356.49 L 152.55,358.39 L 150.42,362.71 L 148.47,363.30 L 148.47,304.89 L 149.36,296.64 L 154.01,286.18 L 154.74,281.74 L 168.52,272.17 L 174.45,256.02 L 177.78,251.82 L 191.35,249.06 L 200.12,244.97 L 206.55,237.61 L 214.00,233.51 L 218.95,228.18 L 227.98,213.90 L 228.65,209.12 L 224.43,204.91 L 225.58,201.83 L 225.06,191.90 L 233.73,178.21 L 234.00,171.65 L 245.13,159.71 L 260.35,153.44 L 271.12,146.42 L 279.19,131.91 L 284.74,116.38 L 292.79,113.90 L 295.06,119.77 L 297.85,122.65 L 302.35,125.69 L 308.36,127.23 L 315.31,125.25 L 317.32,126.24 L 318.66,124.83 L 324.45,126.37 L 328.13,124.88 L 329.79,122.15 L 331.50,127.59 L 333.14,127.85 L 331.16,125.60 L 334.38,127.98 L 340.34,127.96 L 348.04,134.31 L 346.49,136.81 L 349.05,138.83 L 347.43,140.68 L 349.56,145.73 L 348.39,152.23 L 350.36,154.78 L 349.49,160.24 L 352.15,163.31 L 351.25,165.49 L 353.31,168.79 L 359.27,173.07 L 356.04,175.44 L 355.04,178.71 L 356.78,179.08 L 356.55,180.05 L 336.67,179.32 L 331.12,180.28 L 330.24,180.76 L 331.93,185.14 L 319.27,187.67 L 319.05,192.13 L 316.90,193.03 L 316.48,195.91 L 318.17,195.80 L 320.86,199.61 L 319.27,201.65 L 319.48,203.82 L 308.41,207.32 L 296.18,216.48 L 290.64,224.32 L 287.88,224.32 L 287.35,222.75 L 279.47,223.35 L 271.70,225.64 L 266.17,224.56 L 263.09,226.73 L 258.46,226.85 L 243.02,238.32 L 242.79,256.43 L 240.74,256.43 L 241.10,265.77 Z" fill="#C8D8E8" stroke="#8BAABB" stroke-width="0.8"/>
<path d="M 242.79,262.92 L 242.85,238.64 L 258.98,226.63 L 263.09,226.73 L 266.17,224.56 L 271.70,225.64 L 277.34,223.59 L 287.35,222.75 L 287.88,224.32 L 290.64,224.32 L 296.18,216.48 L 308.41,207.32 L 319.48,203.82 L 319.27,201.65 L 320.86,199.61 L 318.17,195.80 L 316.48,195.91 L 316.90,193.03 L 319.05,192.13 L 319.27,187.67 L 331.93,185.14 L 330.24,180.76 L 331.12,180.28 L 336.67,179.32 L 356.55,180.05 L 356.78,179.08 L 355.04,178.71 L 356.04,175.44 L 359.27,173.07 L 353.31,168.79 L 351.25,165.49 L 352.15,163.31 L 349.49,160.24 L 350.36,154.78 L 348.39,152.23 L 349.56,145.73 L 347.43,140.68 L 349.05,138.83 L 346.49,136.81 L 348.04,134.31 L 341.58,129.79 L 341.14,128.31 L 348.17,127.61 L 355.27,123.56 L 359.26,118.08 L 362.78,116.50 L 365.44,117.38 L 367.68,114.50 L 373.72,116.15 L 380.19,109.05 L 395.49,103.20 L 410.78,101.59 L 414.58,102.32 L 419.64,98.66 L 422.79,99.81 L 424.12,98.59 L 427.97,99.20 L 433.96,96.78 L 447.86,97.16 L 455.74,101.51 L 462.28,98.25 L 469.33,97.04 L 472.66,93.75 L 480.77,97.25 L 485.10,95.93 L 484.95,93.80 L 493.71,95.46 L 493.33,97.25 L 495.39,97.95 L 500.33,96.08 L 505.95,96.40 L 506.55,98.18 L 503.07,99.08 L 503.33,101.17 L 499.37,103.53 L 502.23,105.18 L 500.46,115.57 L 501.91,120.57 L 501.26,124.24 L 503.35,125.68 L 501.35,128.68 L 500.38,135.93 L 494.22,139.95 L 493.21,142.88 L 489.43,145.46 L 488.86,148.93 L 492.59,160.36 L 498.10,162.72 L 501.09,167.17 L 501.82,172.50 L 512.69,180.36 L 519.92,212.15 L 516.37,214.07 L 522.17,222.85 L 524.58,231.13 L 523.83,245.98 L 526.23,253.57 L 522.99,262.81 L 525.81,270.30 L 525.65,273.83 L 524.73,276.39 L 519.35,279.01 L 517.76,282.17 L 527.35,296.62 L 527.72,304.81 L 530.17,306.65 L 530.92,309.32 L 533.48,311.42 L 537.87,309.99 L 550.70,314.45 L 557.21,327.91 L 488.90,373.53 L 463.20,398.07 L 425.73,406.25 L 422.24,403.49 L 424.63,399.13 L 423.68,391.68 L 411.53,387.60 L 408.49,383.86 L 406.52,384.90 L 402.05,383.33 L 398.73,378.27 L 392.56,375.84 L 392.44,369.58 L 301.57,302.42 L 242.79,262.92 Z" fill="#4A90D9" stroke="#1a5fa8" stroke-width="1.2"/>
<path d="M 310.70,470.98 L 311.44,469.17 L 309.96,468.73 L 309.46,466.08 L 314.15,469.31 L 310.70,470.98 Z" fill="#A8C8E8" stroke="none"/>
<path d="M 294.64,47.35 L 286.67,47.47 L 283.70,46.17 L 289.08,47.09 L 293.08,45.22 L 294.32,47.01 L 295.48,46.76 L 294.64,47.35 Z" fill="#A8C8E8" stroke="none"/>
<path d="M 335.75,31.12 L 333.51,34.94 L 333.65,33.06 L 335.75,31.12 Z" fill="#A8C8E8" stroke="none"/>
<path d="M 298.50,54.64 L 298.82,54.70 L 297.87,56.15 L 298.50,54.64 Z" fill="#A8C8E8" stroke="none"/>
<path d="M 296.37,57.14 L 296.11,58.11 L 296.42,55.98 L 297.87,56.15 L 296.37,57.14 Z" fill="#A8C8E8" stroke="none"/>
<path d="M 298.09,53.61 L 299.52,53.53 L 301.22,54.09 L 299.47,53.92 L 302.36,56.57 L 298.09,53.61 Z" fill="#A8C8E8" stroke="none"/>
<path d="M 334.34,35.98 L 334.29,38.02 L 332.73,36.60 L 334.61,35.48 L 336.96,36.07 L 334.34,35.98 Z" fill="#A8C8E8" stroke="none"/>
</svg>