<svg xmlns="http://www.w3.org/2000/svg" width="800" height="500" viewBox="0 0 800 500">
<rect width="800" height="500" fill="#A8C8E8"/>
<path d="M 693.74,494.07 L 711.96,474.82 L 709.37,456.16 L 717.06,436.23 L 718.81,411.90 L 726.95,408.55 L 734.66,396.07 L 748.93,383.17 L 765.14,380.40 L 768.07,376.48 L 776.90,376.94 L 780.97,367.31 L 786.49,364.32 L 788.32,368.01 L 795.91,365.61 L 799.64,374.96 L 800.00,374.25 L 800.00,500.00 L 692.81,500.00 L 693.74,494.07 Z" fill="#E8E0D0" stroke="#B8B0A0" stroke-width="0.5"/>
<path d="M 541.73,98.71 L 536.94,94.97 L 542.17,86.39 L 550.36,88.23 L 551.12,82.03 L 549.26,76.73 L 547.54,78.84 L 546.42,69.15 L 550.27,57.76 L 550.72,60.18 L 557.07,47.71 L 559.79,52.67 L 560.02,46.97 L 561.19,52.89 L 563.43,54.97 L 564.84,53.88 L 564.51,47.54 L 568.87,46.46 L 570.23,50.89 L 572.15,51.55 L 574.52,50.34 L 574.78,48.68 L 572.97,42.25 L 576.65,40.98 L 575.61,38.71 L 578.22,37.33 L 576.02,35.06 L 578.71,34.43 L 578.29,31.47 L 575.67,32.07 L 582.88,20.58 L 581.03,19.71 L 583.55,14.56 L 587.67,16.25 L 587.25,7.27 L 589.30,9.19 L 587.59,5.58 L 593.14,0.00 L 800.00,0.00 L 800.00,295.37 L 788.52,284.27 L 786.47,286.38 L 778.81,275.16 L 763.43,282.89 L 762.36,277.23 L 761.12,280.03 L 759.92,275.72 L 753.73,271.48 L 747.70,280.46 L 740.91,284.49 L 734.90,286.38 L 726.97,280.92 L 724.94,285.04 L 724.30,282.49 L 718.29,285.19 L 710.48,275.28 L 713.06,268.72 L 710.62,255.39 L 705.92,255.48 L 700.55,250.01 L 701.55,240.85 L 697.40,230.42 L 690.83,228.33 L 684.28,218.05 L 678.62,217.18 L 674.12,197.06 L 667.43,187.57 L 663.01,186.29 L 662.00,179.64 L 658.75,181.47 L 652.55,173.70 L 648.32,176.67 L 638.10,167.97 L 633.24,167.71 L 625.38,154.64 L 618.02,150.05 L 614.57,152.85 L 614.82,159.75 L 610.12,161.55 L 585.33,153.52 L 583.23,141.19 L 577.94,138.13 L 576.22,132.19 L 571.91,133.78 L 563.80,128.54 L 542.68,104.52 L 541.73,98.71 Z M 796.49,350.91 L 791.14,353.22 L 783.89,348.70 L 800.00,309.20 L 800.00,357.39 L 796.49,350.91 Z M 564.51,52.76 L 563.37,54.43 L 560.97,46.12 L 564.51,52.76 Z M 571.83,48.17 L 573.78,50.24 L 570.71,50.24 L 570.29,45.45 L 571.83,48.17 Z M 574.56,49.81 L 570.88,44.12 L 571.93,44.14 L 574.56,49.81 Z M 562.40,33.11 L 560.81,34.34 L 561.29,33.77 L 562.40,33.11 Z" fill="#C8D8E8" stroke="#8BAABB" stroke-width="0.8"/>
<path d="M 507.64,487.21 L 474.08,454.15 L 473.51,447.06 L 475.74,442.55 L 479.77,445.55 L 482.27,436.17 L 480.01,427.43 L 472.07,415.46 L 473.13,409.11 L 476.09,406.75 L 467.92,390.66 L 468.18,381.22 L 470.11,370.72 L 483.71,346.71 L 491.80,335.75 L 499.44,331.55 L 502.86,353.76 L 498.08,359.63 L 493.12,359.60 L 493.79,368.89 L 497.49,368.20 L 493.37,379.22 L 496.37,381.20 L 503.60,372.16 L 512.76,381.33 L 517.97,379.44 L 522.46,383.79 L 524.15,396.83 L 528.54,403.90 L 535.67,406.25 L 540.55,398.40 L 540.60,391.40 L 547.33,384.70 L 547.04,374.21 L 554.87,349.12 L 556.92,330.33 L 560.63,335.83 L 562.50,334.44 L 561.52,329.12 L 571.32,311.64 L 608.34,290.45 L 624.25,271.32 L 639.70,243.63 L 644.48,214.91 L 649.99,216.74 L 647.92,206.63 L 649.00,197.10 L 637.77,176.88 L 646.52,178.64 L 650.61,173.02 L 658.75,181.47 L 662.00,179.64 L 663.01,186.29 L 667.43,187.57 L 674.12,197.06 L 678.62,217.18 L 684.28,218.05 L 690.83,228.33 L 697.40,230.42 L 701.55,240.85 L 700.55,250.01 L 705.92,255.48 L 710.62,255.39 L 713.06,268.72 L 710.48,275.28 L 718.29,285.19 L 724.30,282.49 L 724.94,285.04 L 726.97,280.92 L 734.90,286.38 L 740.91,284.49 L 747.70,280.46 L 753.73,271.48 L 759.92,275.72 L 761.12,280.03 L 762.36,277.23 L 763.43,282.89 L 776.18,274.53 L 784.71,280.65 L 786.47,286.38 L 788.52,284.27 L 795.11,288.08 L 794.90,291.39 L 797.60,290.85 L 800.00,294.61 L 800.00,309.18 L 783.89,348.70 L 791.14,353.22 L 796.49,350.91 L 800.00,357.00 L 800.00,374.25 L 799.64,374.96 L 795.91,365.61 L 788.32,368.01 L 786.49,364.32 L 780.97,367.31 L 776.90,376.94 L 768.07,376.48 L 765.14,380.40 L 748.93,383.17 L 734.66,396.07 L 726.95,408.55 L 718.81,411.90 L 717.06,436.23 L 709.37,456.16 L 711.96,474.82 L 693.74,494.07 L 692.81,500.00 L 513.71,500.00 L 507.64,487.21 Z M 482.76,474.78 L 482.04,474.80 L 481.69,472.80 L 482.66,470.39 L 482.76,474.78 Z" fill="#C8D8E8" stroke="#8BAABB" stroke-width="0.8"/>
<path d="M 563.80,128.54 L 571.91,133.78 L 576.22,132.19 L 577.94,138.13 L 583.23,141.19 L 585.33,153.52 L 610.12,161.55 L 614.82,159.75 L 614.57,152.85 L 618.02,150.05 L 625.38,154.64 L 632.40,166.98 L 648.32,176.67 L 637.61,177.69 L 649.00,197.10 L 647.92,206.63 L 650.00,217.06 L 644.66,214.50 L 639.70,243.63 L 624.25,271.32 L 606.57,292.14 L 571.32,311.64 L 561.52,329.12 L 562.50,334.44 L 560.63,335.83 L 556.92,330.33 L 554.87,349.12 L 547.04,374.21 L 547.33,384.70 L 540.60,391.40 L 540.55,398.40 L 535.67,406.25 L 528.54,403.90 L 524.15,396.83 L 522.46,383.79 L 517.97,379.44 L 512.76,381.33 L 503.60,372.16 L 496.37,381.20 L 493.11,378.24 L 497.49,368.20 L 493.79,368.89 L 493.12,359.60 L 498.08,359.63 L 502.86,353.76 L 499.86,332.06 L 497.62,329.35 L 509.17,321.34 L 515.93,293.08 L 511.69,272.82 L 514.76,265.52 L 511.00,270.71 L 510.88,290.72 L 505.89,292.31 L 509.88,287.95 L 506.76,287.47 L 509.27,279.67 L 507.40,280.56 L 502.56,292.75 L 499.45,293.96 L 500.17,299.47 L 488.21,284.75 L 480.55,280.21 L 477.59,273.10 L 481.84,274.80 L 485.81,267.32 L 482.28,246.01 L 485.60,234.57 L 480.67,220.58 L 483.45,215.96 L 490.80,214.36 L 494.40,200.03 L 496.49,202.46 L 498.87,202.66 L 496.11,200.94 L 492.99,189.51 L 506.25,167.45 L 508.05,154.55 L 504.55,139.13 L 505.52,133.46 L 518.04,124.68 L 517.61,128.52 L 519.26,132.09 L 518.73,125.50 L 532.64,120.18 L 535.87,114.67 L 537.83,119.25 L 539.70,113.47 L 540.51,113.79 L 541.40,111.32 L 543.15,111.87 L 541.10,109.90 L 542.68,104.52 L 563.80,128.54 Z M 510.54,299.57 L 503.88,313.07 L 499.86,312.96 L 501.50,299.22 L 506.00,296.31 L 510.54,299.57 Z M 221.32,236.81 L 217.04,235.35 L 217.65,234.39 L 221.32,236.81 Z M 196.92,234.67 L 194.18,232.79 L 195.73,228.62 L 198.45,230.39 L 196.92,234.67 Z M 231.45,207.24 L 227.08,214.70 L 220.82,215.00 L 230.41,203.76 L 231.45,207.24 Z M 203.87,203.57 L 199.75,208.03 L 193.57,203.57 L 196.07,195.72 L 204.08,196.86 L 203.87,203.57 Z M 161.92,193.02 L 160.07,185.00 L 166.42,183.72 L 168.04,192.86 L 161.92,193.02 Z M 191.77,188.97 L 183.75,184.36 L 186.63,178.58 L 192.96,185.00 L 191.77,188.97 Z M 182.12,217.08 L 167.01,218.36 L 166.11,209.48 L 177.41,198.93 L 168.82,184.86 L 167.38,173.00 L 162.02,172.33 L 165.18,166.69 L 170.35,165.14 L 174.82,182.36 L 181.31,191.42 L 180.29,198.77 L 185.62,205.86 L 182.12,217.08 Z M 194.76,154.76 L 197.64,157.11 L 196.25,159.14 L 194.76,154.76 Z M 187.24,142.14 L 187.13,145.74 L 185.80,144.90 L 187.24,142.14 Z M 540.58,112.14 L 538.86,113.79 L 537.71,111.42 L 540.51,107.33 L 540.58,112.14 Z M 155.83,107.19 L 155.63,107.62 L 155.40,107.20 L 155.83,107.19 Z M 155.64,106.37 L 155.55,106.53 L 155.50,106.38 L 155.64,106.37 Z M 150.02,93.75 L 150.20,94.37 L 150.00,94.44 L 150.02,93.75 Z M 514.56,290.65 L 511.44,295.70 L 511.30,294.63 L 513.15,288.03 L 514.56,290.65 Z" fill="#4A90D9" stroke="#1a5fa8" stroke-width="1.2"/>
</svg>