<svg xmlns="http://www.w3.org/2000/svg" width="800" height="500" viewBox="0 0 800 500">
<rect width="800" height="500" fill="#A8C8E8"/>
<path d="M 481.10,2.55 L 478.42,0.00 L 483.71,0.00 L 481.10,2.55 Z M 472.45,10.47 L 459.18,0.00 L 469.26,0.00 L 472.45,10.47 Z M 466.06,7.50 L 457.14,10.17 L 453.99,0.00 L 459.03,0.00 L 466.06,7.50 Z M 438.82,10.33 L 423.95,6.51 L 401.56,24.59 L 399.16,15.16 L 395.40,25.22 L 384.06,18.38 L 373.31,31.35 L 364.17,23.41 L 367.35,37.29 L 355.64,47.15 L 357.09,39.27 L 345.17,46.39 L 345.72,35.03 L 275.67,52.32 L 284.86,35.31 L 260.54,60.81 L 261.66,69.06 L 234.41,73.40 L 261.32,57.27 L 267.57,44.67 L 250.59,57.15 L 262.15,40.26 L 244.67,39.56 L 243.88,26.40 L 232.02,24.33 L 245.25,0.00 L 440.44,0.00 L 438.82,10.33 Z M 204.51,16.41 L 214.19,5.61 L 199.32,7.60 L 204.40,0.00 L 237.31,0.00 L 204.51,16.41 Z M 198.02,46.39 L 193.31,47.10 L 190.64,36.86 L 198.02,46.39 Z M 129.44,21.32 L 135.99,23.43 L 132.75,31.22 L 123.58,26.40 L 129.44,21.32 Z M 151.66,17.49 L 154.35,20.46 L 139.25,28.39 L 151.66,17.49 Z M 113.53,17.52 L 119.83,19.38 L 105.80,18.38 L 113.53,17.52 Z M 163.92,26.12 L 158.11,20.46 L 166.48,15.37 L 163.92,26.12 Z M 463.94,14.66 L 468.21,14.53 L 465.01,17.60 L 463.94,14.66 Z M 182.54,10.78 L 186.15,10.47 L 184.38,17.62 L 179.66,16.41 L 182.54,10.78 Z M 444.12,8.61 L 445.03,3.05 L 453.12,10.47 L 444.12,8.61 Z M 238.45,3.55 L 220.62,45.31 L 200.17,46.39 L 196.41,29.38 L 210.43,25.41 L 195.86,24.33 L 198.45,13.92 L 199.90,19.38 L 238.45,3.55 Z M 182.84,0.86 L 189.91,4.52 L 169.49,6.95 L 182.84,0.86 Z M 312.25,53.32 L 308.56,52.60 L 310.36,49.97 L 312.25,53.32 Z M 236.10,36.55 L 231.83,45.15 L 230.48,37.97 L 236.10,36.55 Z M 237.69,33.74 L 229.72,34.10 L 233.35,28.76 L 237.69,33.74 Z M 164.17,28.23 L 157.68,27.96 L 160.21,26.03 L 164.17,28.23 Z M 192.70,16.44 L 193.53,17.71 L 185.88,24.30 L 192.70,16.44 Z M 161.06,4.65 L 163.84,2.91 L 163.67,3.66 L 161.06,4.65 Z M 156.08,5.41 L 153.38,1.82 L 161.13,1.17 L 156.08,5.41 Z M 198.11,67.56 L 195.75,66.15 L 199.16,64.44 L 198.11,67.56 Z M 133.82,9.40 L 128.84,13.22 L 130.69,6.97 L 133.82,9.40 Z" fill="#E8E0D0" stroke="#B8B0A0" stroke-width="0.5"/>
<path d="M 27.66,36.39 L 21.70,33.33 L 23.31,24.33 L 27.66,36.39 Z M 36.73,17.49 L 32.99,11.56 L 34.05,7.50 L 39.48,7.50 L 36.73,17.49 Z M 68.02,11.41 L 67.76,4.51 L 72.94,7.50 L 68.02,11.41 Z M 10.37,18.38 L 10.64,1.07 L 7.68,0.57 L 7.09,19.38 L 0.00,14.95 L 0.00,5.98 L 0.65,5.07 L 0.00,4.52 L 0.00,0.00 L 18.17,0.00 L 27.66,5.61 L 10.37,18.38 Z M 6.60,23.43 L 9.29,20.46 L 9.78,31.84 L 1.76,39.11 L 0.00,38.65 L 0.00,15.48 L 6.60,23.43 Z M 76.43,54.71 L 78.22,59.19 L 77.61,59.88 L 76.43,54.71 Z M 83.14,57.40 L 77.68,53.50 L 84.18,53.29 L 83.14,57.40 Z M 52.02,44.85 L 45.22,44.19 L 48.69,37.89 L 52.02,44.85 Z M 42.21,36.34 L 36.51,41.93 L 37.56,40.15 L 42.21,36.34 Z M 42.90,40.03 L 42.78,37.71 L 48.45,35.73 L 42.90,40.03 Z M 58.66,30.19 L 55.82,25.15 L 57.74,24.31 L 58.66,30.19 Z M 61.36,14.38 L 62.18,15.68 L 58.59,17.14 L 61.36,14.38 Z M 64.04,0.73 L 63.47,0.44 L 63.58,0.00 L 64.17,0.00 L 64.04,0.73 Z M 32.52,43.11 L 40.99,46.72 L 29.94,52.75 L 32.52,43.11 Z M 18.66,33.29 L 23.53,45.23 L 19.59,50.17 L 8.46,36.80 L 18.66,33.29 Z" fill="#E8E0D0" stroke="#B8B0A0" stroke-width="0.5"/>
<path d="M 598.20,404.41 L 596.87,418.64 L 622.76,438.90 L 621.50,457.98 L 610.32,466.01 L 615.71,474.91 L 607.30,500.00 L 94.47,500.00 L 114.60,479.75 L 118.62,436.61 L 141.92,397.84 L 201.26,373.38 L 211.22,371.62 L 214.82,396.11 L 252.13,427.28 L 262.41,466.70 L 296.58,485.79 L 316.86,479.13 L 352.10,443.62 L 344.66,355.15 L 406.67,326.28 L 416.32,338.16 L 421.42,325.40 L 446.59,348.77 L 479.09,358.83 L 479.90,368.76 L 517.26,406.25 L 546.62,390.10 L 598.20,404.41 Z" fill="#C8D8E8" stroke="#8BAABB" stroke-width="0.8"/>
<path d="M 615.71,474.91 L 610.32,466.01 L 621.50,457.98 L 622.76,438.90 L 596.87,418.64 L 598.20,404.41 L 582.45,396.49 L 597.92,363.98 L 619.53,356.19 L 608.96,347.87 L 606.25,323.24 L 595.62,303.93 L 600.30,278.73 L 588.95,226.58 L 594.23,209.10 L 612.77,192.21 L 626.07,151.06 L 649.63,139.40 L 636.83,121.17 L 641.04,107.21 L 635.88,81.08 L 645.07,76.14 L 664.85,94.41 L 672.79,67.52 L 700.84,76.98 L 726.72,45.64 L 800.00,63.75 L 800.00,500.00 L 607.30,500.00 L 615.71,474.91 Z M 788.63,41.72 L 780.82,21.82 L 718.11,19.31 L 703.78,0.00 L 800.00,0.00 L 800.00,45.57 L 788.63,41.72 Z M 775.93,49.64 L 765.75,42.33 L 770.16,42.85 L 775.93,49.64 Z M 621.20,48.53 L 619.79,46.12 L 621.17,41.56 L 626.28,44.42 L 621.20,48.53 Z M 555.43,43.46 L 552.71,31.59 L 553.81,31.61 L 555.43,43.46 Z M 684.44,6.84 L 680.46,0.00 L 687.04,0.00 L 691.33,3.25 L 684.44,6.84 Z M 674.96,0.93 L 674.17,0.00 L 674.77,0.00 L 674.96,0.93 Z" fill="#C8D8E8" stroke="#8BAABB" stroke-width="0.8"/>
<path d="M 363.93,287.65 L 349.04,278.43 L 329.36,301.09 L 300.19,286.29 L 295.31,260.03 L 281.34,254.48 L 281.05,235.03 L 310.68,224.14 L 275.67,225.13 L 283.28,217.17 L 275.09,201.37 L 291.27,194.06 L 290.79,188.81 L 285.93,183.38 L 290.23,189.39 L 285.39,195.25 L 274.01,187.32 L 282.66,180.40 L 278.93,160.27 L 326.91,151.69 L 323.31,134.67 L 338.03,139.53 L 333.40,132.70 L 346.84,122.79 L 381.37,125.77 L 383.79,108.31 L 431.48,119.83 L 442.04,113.43 L 437.41,93.90 L 452.51,108.95 L 453.92,93.75 L 464.27,107.62 L 477.05,99.05 L 551.73,125.77 L 625.36,131.93 L 636.83,121.17 L 650.00,136.67 L 626.07,151.06 L 612.77,192.21 L 594.23,209.10 L 588.95,226.58 L 600.30,278.73 L 595.62,303.93 L 606.25,323.24 L 608.96,347.87 L 619.53,356.19 L 597.92,363.98 L 582.45,396.49 L 584.41,404.54 L 546.62,390.10 L 517.26,406.25 L 479.90,368.76 L 479.09,358.83 L 446.59,348.77 L 421.42,325.40 L 417.55,338.16 L 406.67,326.28 L 344.66,355.15 L 363.93,287.65 Z M 317.05,314.03 L 321.62,313.78 L 320.76,320.30 L 317.05,314.03 Z M 268.10,269.86 L 254.20,266.80 L 220.10,303.35 L 186.41,308.07 L 179.16,336.92 L 167.00,348.35 L 160.31,338.36 L 179.16,314.59 L 150.90,293.47 L 164.08,284.72 L 150.00,261.95 L 162.85,261.72 L 170.22,274.82 L 177.97,257.32 L 184.69,263.24 L 185.88,253.48 L 206.49,244.75 L 235.75,246.51 L 268.10,269.86 Z M 260.36,258.51 L 246.55,248.53 L 257.44,237.35 L 271.91,251.95 L 260.36,258.51 Z M 265.41,195.25 L 250.86,187.87 L 255.27,184.38 L 270.52,186.83 L 265.41,195.25 Z M 166.71,200.29 L 199.63,195.25 L 215.65,178.72 L 236.69,193.35 L 245.07,214.12 L 229.71,223.44 L 224.38,216.50 L 206.92,236.42 L 199.63,232.15 L 197.02,212.43 L 166.71,200.29 Z M 363.85,110.15 L 363.28,111.60 L 359.06,109.88 L 363.85,110.15 Z M 263.14,367.13 L 259.02,364.91 L 259.53,361.60 L 263.14,367.13 Z" fill="#4A90D9" stroke="#1a5fa8" stroke-width="1.2"/>
<path d="M 603.25,303.15 L 604.62,316.47 L 631.05,310.54 L 647.21,333.93 L 648.09,351.13 L 632.23,357.06 L 612.56,330.38 L 605.10,341.31 L 596.51,301.66 L 603.25,303.15 Z" fill="#A8C8E8" stroke="none"/>
<path d="M 588.98,281.30 L 575.29,274.55 L 569.32,239.89 L 553.13,220.64 L 560.14,199.13 L 614.39,191.96 L 622.20,267.59 L 593.38,304.00 L 588.98,281.30 Z M 595.70,282.11 L 598.18,281.85 L 595.28,278.99 L 595.70,282.11 Z" fill="#A8C8E8" stroke="none"/>
<path d="M 489.10,300.72 L 483.59,321.25 L 470.90,288.21 L 476.15,276.77 L 487.55,279.76 L 489.10,300.72 Z" fill="#A8C8E8" stroke="none"/>
<path d="M 659.03,153.58 L 653.05,147.05 L 642.07,169.42 L 643.42,151.28 L 631.12,150.64 L 622.89,167.63 L 627.71,148.89 L 642.91,144.66 L 637.83,141.42 L 671.61,144.58 L 659.03,153.58 Z" fill="#A8C8E8" stroke="none"/>
<path d="M 310.17,24.03 L 310.17,19.38 L 302.71,21.81 L 299.37,18.40 L 306.07,5.68 L 323.62,7.90 L 317.99,3.03 L 322.08,0.00 L 323.60,0.00 L 325.87,8.24 L 310.17,24.03 Z" fill="#A8C8E8" stroke="none"/>
<path d="M 424.13,379.81 L 411.55,366.15 L 419.66,369.31 L 424.13,379.81 Z" fill="#A8C8E8" stroke="none"/>
</svg>