<svg xmlns="http://www.w3.org/2000/svg" width="800" height="500" viewBox="0 0 800 500">
<rect width="800" height="500" fill="#A8C8E8"/>
<path d="M 477.88,2.55 L 475.30,-0.00 L 480.39,-0.00 L 477.88,2.55 Z M 469.58,10.47 L 456.83,-0.00 L 466.51,-0.00 L 469.58,10.47 Z M 463.43,7.50 L 454.87,10.17 L 451.85,-0.00 L 456.68,-0.00 L 463.43,7.50 Z M 437.28,10.33 L 423.00,6.51 L 401.50,24.59 L 399.20,15.16 L 395.58,25.22 L 384.69,18.38 L 374.37,31.35 L 365.59,23.41 L 368.65,37.29 L 357.40,47.15 L 358.79,39.27 L 347.35,46.39 L 347.88,35.03 L 280.61,52.32 L 289.43,35.31 L 266.08,60.81 L 267.15,69.06 L 240.99,73.40 L 266.83,57.27 L 272.83,44.67 L 256.52,57.15 L 267.62,40.26 L 250.84,39.56 L 250.08,26.40 L 238.69,24.33 L 251.40,-0.00 L 438.83,-0.00 L 437.28,10.33 Z M 212.27,16.41 L 221.57,5.61 L 207.29,7.60 L 212.17,-0.00 L 243.77,-0.00 L 212.27,16.41 Z M 206.04,46.39 L 201.52,47.10 L 198.96,36.86 L 206.04,46.39 Z M 140.18,21.32 L 146.47,23.43 L 143.36,31.22 L 134.55,26.40 L 140.18,21.32 Z M 161.53,17.49 L 164.11,20.46 L 149.61,28.39 L 161.53,17.49 Z M 124.91,17.52 L 130.95,19.38 L 117.48,18.38 L 124.91,17.52 Z M 173.30,26.12 L 167.71,20.46 L 175.75,15.37 L 173.30,26.12 Z M 461.40,14.66 L 465.50,14.53 L 462.43,17.60 L 461.40,14.66 Z M 191.17,10.78 L 194.64,10.47 L 192.94,17.62 L 188.41,16.41 L 191.17,10.78 Z M 442.37,8.61 L 443.25,3.05 L 451.01,10.47 L 442.37,8.61 Z M 244.86,3.55 L 227.74,45.31 L 208.10,46.39 L 204.49,29.38 L 217.95,25.41 L 203.97,24.33 L 206.45,13.92 L 207.84,19.38 L 244.86,3.55 Z M 191.47,0.86 L 198.26,4.52 L 178.65,6.95 L 191.47,0.86 Z M 315.73,53.32 L 312.19,52.60 L 313.92,49.97 L 315.73,53.32 Z M 242.61,36.55 L 238.51,45.15 L 237.21,37.97 L 242.61,36.55 Z M 244.14,33.74 L 236.48,34.10 L 239.97,28.76 L 244.14,33.74 Z M 173.53,28.23 L 167.30,27.96 L 169.73,26.03 L 173.53,28.23 Z M 200.93,16.44 L 201.73,17.71 L 194.38,24.30 L 200.93,16.44 Z M 170.55,4.65 L 173.22,2.91 L 173.05,3.66 L 170.55,4.65 Z M 165.77,5.41 L 163.17,1.82 L 170.62,1.17 L 165.77,5.41 Z M 206.12,67.56 L 203.87,66.15 L 207.13,64.44 L 206.12,67.56 Z M 144.39,9.40 L 139.61,13.22 L 141.38,6.97 L 144.39,9.40 Z" fill="#E8E0D0" stroke="#B8B0A0" stroke-width="0.5"/>
<path d="M 42.44,36.39 L 36.72,33.33 L 38.27,24.33 L 42.44,36.39 Z M 51.16,17.49 L 47.56,11.56 L 48.59,7.50 L 53.80,7.50 L 51.16,17.49 Z M 81.20,11.41 L 80.96,4.51 L 85.93,7.50 L 81.20,11.41 Z M 25.84,18.38 L 26.10,1.07 L 23.26,0.57 L 22.70,19.38 L 15.88,14.95 L 15.88,5.98 L 16.50,5.07 L 15.88,4.52 L 15.88,-0.00 L 33.33,-0.00 L 42.44,5.61 L 25.84,18.38 Z M 22.22,23.43 L 24.81,20.46 L 25.28,31.84 L 17.57,39.11 L 15.88,38.65 L 15.88,15.48 L 22.22,23.43 Z M 89.28,54.71 L 91.00,59.19 L 90.41,59.88 L 89.28,54.71 Z M 95.73,57.40 L 90.48,53.50 L 96.72,53.29 L 95.73,57.40 Z M 65.83,44.85 L 59.31,44.19 L 62.64,37.89 L 65.83,44.85 Z M 56.42,36.34 L 50.95,41.93 L 51.96,40.15 L 56.42,36.34 Z M 57.08,40.03 L 56.96,37.71 L 62.41,35.73 L 57.08,40.03 Z M 72.21,30.19 L 69.49,25.15 L 71.33,24.31 L 72.21,30.19 Z M 74.81,14.38 L 75.59,15.68 L 72.14,17.14 L 74.81,14.38 Z M 77.38,0.73 L 76.83,0.44 L 76.94,-0.00 L 77.50,-0.00 L 77.38,0.73 Z M 47.12,43.11 L 55.25,46.72 L 44.64,52.75 L 47.12,43.11 Z M 33.80,33.29 L 38.48,45.23 L 34.70,50.17 L 24.01,36.80 L 33.80,33.29 Z" fill="#E8E0D0" stroke="#B8B0A0" stroke-width="0.5"/>
<path d="M 590.33,404.41 L 589.05,418.64 L 613.91,438.90 L 612.71,457.98 L 601.97,466.01 L 607.15,474.91 L 599.07,500.00 L 106.60,500.00 L 125.93,479.75 L 129.80,436.61 L 152.17,397.84 L 209.15,373.38 L 218.72,371.62 L 222.17,396.11 L 258.00,427.28 L 267.88,466.70 L 300.69,485.79 L 320.16,479.13 L 354.00,443.62 L 346.86,355.15 L 406.41,326.28 L 415.67,338.16 L 420.57,325.40 L 444.74,348.77 L 475.95,358.83 L 476.72,368.76 L 512.60,406.25 L 540.79,390.10 L 590.33,404.41 Z" fill="#C8D8E8" stroke="#8BAABB" stroke-width="0.8"/>
<path d="M 607.15,474.91 L 601.97,466.01 L 612.71,457.98 L 613.91,438.90 L 589.05,418.64 L 590.33,404.41 L 575.20,396.49 L 590.06,363.98 L 610.82,356.19 L 600.66,347.87 L 598.06,323.24 L 587.85,303.93 L 592.35,278.73 L 581.44,226.58 L 586.52,209.10 L 604.32,192.21 L 617.09,151.06 L 639.72,139.40 L 627.42,121.17 L 631.47,107.21 L 626.51,81.08 L 635.34,76.14 L 654.34,94.41 L 661.96,67.52 L 688.89,76.98 L 713.74,45.64 L 784.12,63.75 L 784.12,500.00 L 599.07,500.00 L 607.15,474.91 Z M 773.20,41.72 L 765.70,21.82 L 705.48,19.31 L 691.71,-0.00 L 784.12,-0.00 L 784.12,45.57 L 773.20,41.72 Z M 761.01,49.64 L 751.22,42.33 L 755.47,42.85 L 761.01,49.64 Z M 612.42,48.53 L 611.06,46.12 L 612.39,41.56 L 617.29,44.42 L 612.42,48.53 Z M 549.26,43.46 L 546.64,31.59 L 547.71,31.61 L 549.26,43.46 Z M 673.15,6.84 L 669.32,-0.00 L 675.64,-0.00 L 679.77,3.25 L 673.15,6.84 Z M 664.04,0.93 L 663.28,-0.00 L 663.86,-0.00 L 664.04,0.93 Z" fill="#C8D8E8" stroke="#8BAABB" stroke-width="0.8"/>
<path d="M 365.36,287.65 L 351.06,278.43 L 332.16,301.09 L 304.15,286.29 L 299.46,260.03 L 286.05,254.48 L 285.77,235.03 L 314.23,224.14 L 280.61,225.13 L 287.92,217.17 L 280.05,201.37 L 295.59,194.06 L 295.13,188.81 L 290.46,183.38 L 294.59,189.39 L 289.95,195.25 L 279.02,187.32 L 287.32,180.40 L 283.74,160.27 L 329.81,151.69 L 326.36,134.67 L 340.49,139.53 L 336.05,132.70 L 348.95,122.79 L 382.11,125.77 L 384.44,108.31 L 430.23,119.83 L 440.37,113.43 L 435.93,93.90 L 450.43,108.95 L 451.78,93.75 L 461.72,107.62 L 473.99,99.05 L 545.71,125.77 L 616.41,131.93 L 627.42,121.17 L 640.07,136.67 L 617.09,151.06 L 604.32,192.21 L 586.52,209.10 L 581.44,226.58 L 592.35,278.73 L 587.85,303.93 L 598.06,323.24 L 600.66,347.87 L 610.82,356.19 L 590.06,363.98 L 575.20,396.49 L 577.09,404.54 L 540.79,390.10 L 512.60,406.25 L 476.72,368.76 L 475.95,358.83 L 444.74,348.77 L 420.57,325.40 L 416.86,338.16 L 406.41,326.28 L 346.86,355.15 L 365.36,287.65 Z M 320.35,314.03 L 324.73,313.78 L 323.91,320.30 L 320.35,314.03 Z M 273.34,269.86 L 259.99,266.80 L 227.24,303.35 L 194.89,308.07 L 187.93,336.92 L 176.25,348.35 L 169.83,338.36 L 187.93,314.59 L 160.79,293.47 L 173.44,284.72 L 159.93,261.95 L 172.26,261.72 L 179.35,274.82 L 186.78,257.32 L 193.24,263.24 L 194.38,253.48 L 214.18,244.75 L 242.27,246.51 L 273.34,269.86 Z M 265.91,258.51 L 252.64,248.53 L 263.10,237.35 L 276.99,251.95 L 265.91,258.51 Z M 270.76,195.25 L 256.78,187.87 L 261.02,184.38 L 275.67,186.83 L 270.76,195.25 Z M 175.97,200.29 L 207.59,195.25 L 222.97,178.72 L 243.18,193.35 L 251.22,214.12 L 236.48,223.44 L 231.35,216.50 L 214.58,236.42 L 207.59,232.15 L 205.08,212.43 L 175.97,200.29 Z M 365.29,110.15 L 364.74,111.60 L 360.68,109.88 L 365.29,110.15 Z M 268.58,367.13 L 264.62,364.91 L 265.11,361.60 L 268.58,367.13 Z" fill="#4A90D9" stroke="#1a5fa8" stroke-width="1.2"/>
<path d="M 595.18,303.15 L 596.49,316.47 L 621.87,310.54 L 637.40,333.93 L 638.24,351.13 L 623.01,357.06 L 604.12,330.38 L 596.96,341.31 L 588.71,301.66 L 595.18,303.15 Z" fill="#A8C8E8" stroke="none"/>
<path d="M 581.48,281.30 L 568.33,274.55 L 562.59,239.89 L 547.04,220.64 L 553.78,199.13 L 605.88,191.96 L 613.37,267.59 L 585.70,304.00 L 581.48,281.30 Z M 587.93,282.11 L 590.31,281.85 L 587.53,278.99 L 587.93,282.11 Z" fill="#A8C8E8" stroke="none"/>
<path d="M 485.56,300.72 L 480.27,321.25 L 468.08,288.21 L 473.13,276.77 L 484.07,279.76 L 485.56,300.72 Z" fill="#A8C8E8" stroke="none"/>
<path d="M 648.74,153.58 L 643.00,147.05 L 632.46,169.42 L 633.75,151.28 L 621.94,150.64 L 614.04,167.63 L 618.67,148.89 L 633.26,144.66 L 628.39,141.42 L 660.82,144.58 L 648.74,153.58 Z" fill="#A8C8E8" stroke="none"/>
<path d="M 313.73,24.03 L 313.73,19.38 L 306.57,21.81 L 303.37,18.40 L 309.80,5.68 L 326.66,7.90 L 321.25,3.03 L 325.18,-0.00 L 326.64,-0.00 L 328.81,8.24 L 313.73,24.03 Z" fill="#A8C8E8" stroke="none"/>
<path d="M 423.17,379.81 L 411.09,366.15 L 418.88,369.31 L 423.17,379.81 Z" fill="#A8C8E8" stroke="none"/>
</svg>