<svg xmlns="http://www.w3.org/2000/svg" width="800" height="500" viewBox="0 0 800 500">
<rect width="800" height="500" fill="#A8C8E8"/>
<path d="M 591.63,21.12 L 598.61,17.97 L 599.61,7.88 L 612.63,0.53 L 612.55,0.00 L 628.18,0.00 L 626.43,1.33 L 634.83,4.27 L 638.07,11.51 L 625.14,19.68 L 628.46,23.23 L 615.39,23.89 L 610.11,29.59 L 614.77,31.93 L 597.10,42.53 L 594.87,41.21 L 592.03,47.47 L 576.67,47.42 L 591.63,21.12 Z" fill="#E8E0D0" stroke="#B8B0A0" stroke-width="0.5"/>
<path d="M 608.74,52.08 L 603.65,39.48 L 614.77,31.93 L 610.11,29.59 L 611.21,27.36 L 618.99,22.79 L 627.97,23.65 L 625.14,19.68 L 638.07,11.51 L 634.83,4.27 L 626.43,1.33 L 628.18,0.00 L 800.00,0.00 L 800.00,9.39 L 726.97,38.28 L 646.89,72.39 L 629.21,70.37 L 603.39,58.57 L 608.74,52.08 Z" fill="#E8E0D0" stroke="#B8B0A0" stroke-width="0.5"/>
<path d="M 794.54,85.21 L 742.20,78.82 L 748.17,74.73 L 745.86,71.23 L 737.39,72.02 L 735.32,67.28 L 738.55,66.58 L 726.97,38.28 L 800.00,9.39 L 800.00,87.40 L 794.54,85.21 Z" fill="#E8E0D0" stroke="#B8B0A0" stroke-width="0.5"/>
<path d="M 799.06,471.99 L 780.60,461.72 L 773.20,460.78 L 774.74,462.37 L 767.34,459.41 L 743.35,434.89 L 739.51,428.22 L 743.21,425.34 L 740.67,414.23 L 733.39,405.87 L 736.44,406.00 L 742.05,393.03 L 739.08,394.24 L 736.74,381.27 L 728.00,373.77 L 727.95,368.89 L 713.79,348.37 L 692.60,336.89 L 693.11,334.69 L 689.74,336.53 L 671.87,329.50 L 672.99,327.11 L 660.37,313.86 L 664.80,313.20 L 664.21,303.37 L 651.68,288.14 L 642.09,283.81 L 641.84,275.98 L 634.33,273.11 L 614.63,247.37 L 579.06,211.71 L 581.22,210.25 L 574.49,208.14 L 564.37,209.71 L 560.45,207.48 L 557.91,208.81 L 558.78,209.71 L 556.51,211.03 L 554.86,208.36 L 564.33,194.96 L 570.29,168.29 L 616.17,173.20 L 632.87,163.67 L 643.17,152.06 L 673.55,147.50 L 680.81,136.62 L 694.48,131.19 L 652.63,99.10 L 734.71,82.82 L 742.67,78.71 L 792.34,84.63 L 800.00,87.68 L 800.00,473.22 L 799.06,471.99 Z M 652.10,294.75 L 652.31,293.92 L 654.26,293.86 L 655.39,295.47 L 652.10,294.75 Z M 650.18,297.36 L 645.13,292.98 L 650.37,296.29 L 650.18,297.36 Z M 647.20,291.34 L 647.79,290.60 L 648.82,291.01 L 647.20,291.34 Z M 642.79,291.07 L 641.24,291.14 L 643.05,290.76 L 649.34,294.70 L 642.79,291.07 Z M 650.12,289.78 L 650.78,289.42 L 651.14,292.24 L 650.12,289.78 Z M 640.67,291.26 L 635.42,289.98 L 633.46,288.18 L 635.59,286.31 L 635.08,288.19 L 640.67,291.26 Z M 635.55,283.10 L 636.20,281.99 L 637.53,281.21 L 638.36,286.09 L 635.55,283.10 Z" fill="#E8E0D0" stroke="#B8B0A0" stroke-width="0.5"/>
<path d="M 121.03,487.05 L 121.04,500.00 L 0.00,500.00 L 0.00,439.86 L 121.03,487.05 Z" fill="#E8E0D0" stroke="#B8B0A0" stroke-width="0.5"/>
<path d="M 609.05,59.57 L 616.04,65.91 L 646.36,72.51 L 726.97,38.28 L 738.55,66.58 L 735.32,67.28 L 737.39,72.02 L 745.86,71.23 L 748.17,74.73 L 734.71,82.82 L 652.63,99.10 L 694.48,131.19 L 680.81,136.62 L 673.55,147.50 L 643.17,152.06 L 632.87,163.67 L 614.00,173.52 L 570.29,168.29 L 578.31,143.33 L 578.10,133.41 L 590.32,111.63 L 588.57,106.65 L 595.28,90.23 L 593.78,80.77 L 597.42,60.59 L 609.05,59.57 Z" fill="#E8E0D0" stroke="#B8B0A0" stroke-width="0.5"/>
<path d="M 506.51,406.21 L 534.85,406.21 L 531.37,413.59 L 513.32,415.42 L 497.86,406.22 L 506.51,406.21 Z" fill="#E8E0D0" stroke="#B8B0A0" stroke-width="0.5"/>
<path d="M 554.18,97.52 L 551.11,96.12 L 560.56,84.20 L 570.21,56.31 L 574.93,54.88 L 576.44,47.46 L 592.03,47.47 L 594.87,41.21 L 597.10,42.53 L 606.00,37.14 L 603.85,41.48 L 608.74,52.08 L 603.39,58.57 L 595.32,61.91 L 595.34,70.20 L 580.18,65.12 L 574.19,68.60 L 570.78,76.12 L 573.96,85.59 L 571.44,88.03 L 579.99,88.83 L 581.46,86.55 L 583.13,90.77 L 571.28,94.59 L 567.40,103.25 L 579.12,103.27 L 591.15,99.08 L 588.57,106.65 L 590.32,111.63 L 578.10,133.41 L 578.31,143.33 L 568.71,163.82 L 541.57,108.14 L 554.18,97.52 Z" fill="#C8D8E8" stroke="#8BAABB" stroke-width="0.8"/>
<path d="M 1.00,57.66 L 15.90,56.98 L 24.44,52.34 L 46.00,51.98 L 85.18,61.95 L 86.93,67.18 L 84.13,71.84 L 93.62,77.38 L 93.08,75.39 L 108.26,76.71 L 125.51,82.45 L 151.85,81.57 L 163.49,84.29 L 169.15,93.54 L 156.57,103.71 L 162.54,121.93 L 149.99,142.66 L 161.98,173.80 L 161.80,470.88 L 121.03,470.90 L 121.03,487.05 L 0.00,439.86 L 0.00,58.01 L 1.00,57.66 Z" fill="#C8D8E8" stroke="#8BAABB" stroke-width="0.8"/>
<path d="M 554.18,97.52 L 541.57,108.14 L 539.61,104.82 L 551.11,96.12 L 554.18,97.52 Z M 570.65,76.61 L 575.00,67.66 L 580.91,65.09 L 595.34,70.20 L 595.28,90.23 L 591.15,99.08 L 579.12,103.27 L 567.40,103.25 L 571.28,94.59 L 583.13,90.77 L 581.46,86.55 L 579.99,88.83 L 571.44,88.03 L 573.96,85.59 L 570.65,76.61 Z" fill="#C8D8E8" stroke="#8BAABB" stroke-width="0.8"/>
<path d="M 121.03,470.90 L 161.96,470.69 L 161.98,406.22 L 418.69,406.25 L 425.86,398.73 L 428.66,400.47 L 426.36,406.22 L 497.86,406.22 L 513.42,415.48 L 531.37,413.59 L 534.85,406.21 L 649.52,406.21 L 649.69,417.38 L 667.11,436.55 L 664.61,438.22 L 663.70,434.28 L 658.59,431.70 L 663.63,452.48 L 661.46,459.46 L 664.27,484.46 L 669.52,500.00 L 121.05,500.00 L 121.03,470.90 Z M 665.90,443.82 L 664.71,446.50 L 664.26,444.75 L 665.90,443.82 Z" fill="#C8D8E8" stroke="#8BAABB" stroke-width="0.8"/>
<path d="M 531.55,253.79 L 529.56,251.14 L 530.40,251.14 L 531.55,253.79 Z M 567.72,163.82 L 561.57,169.60 L 556.98,188.21 L 548.20,201.66 L 549.22,212.80 L 540.17,218.75 L 541.94,220.79 L 521.71,211.23 L 499.81,193.59 L 497.73,180.01 L 478.77,164.92 L 473.15,146.96 L 463.31,160.51 L 473.29,167.73 L 475.10,180.55 L 482.53,186.84 L 485.07,193.29 L 513.15,215.36 L 514.69,218.76 L 509.84,217.73 L 514.69,223.44 L 510.77,223.44 L 524.78,236.51 L 524.72,240.45 L 531.24,247.70 L 529.28,249.82 L 529.00,255.56 L 553.79,285.59 L 578.28,325.20 L 592.59,337.86 L 602.62,341.92 L 604.83,344.54 L 593.41,342.12 L 592.18,344.04 L 592.41,357.65 L 594.79,360.98 L 600.84,375.92 L 608.65,382.27 L 622.58,385.52 L 631.34,394.54 L 650.00,403.93 L 649.52,406.21 L 426.36,406.22 L 428.66,400.47 L 425.86,398.73 L 418.69,406.25 L 161.98,406.22 L 161.98,173.80 L 150.00,141.41 L 158.97,131.20 L 162.54,121.93 L 156.57,103.71 L 166.37,95.14 L 168.93,93.75 L 170.57,97.79 L 179.21,98.71 L 202.35,95.04 L 257.81,102.66 L 262.96,107.76 L 271.72,109.15 L 279.61,107.21 L 282.64,111.78 L 303.02,112.28 L 327.75,120.58 L 347.21,116.38 L 370.41,104.20 L 374.33,107.97 L 379.39,107.29 L 374.91,105.98 L 380.37,103.64 L 381.65,98.88 L 382.49,100.10 L 383.89,100.64 L 382.39,98.53 L 389.51,99.98 L 407.45,96.01 L 389.79,101.97 L 397.64,102.43 L 413.40,99.03 L 407.62,96.08 L 412.51,95.32 L 431.33,100.64 L 444.33,97.66 L 445.91,97.68 L 447.22,98.13 L 457.65,105.44 L 444.95,97.77 L 443.68,103.53 L 439.93,105.78 L 446.47,108.93 L 451.00,107.97 L 450.14,110.84 L 453.84,113.26 L 461.09,110.57 L 461.07,106.40 L 457.96,105.44 L 463.05,106.20 L 474.12,113.01 L 487.46,109.96 L 476.78,113.29 L 479.43,113.73 L 487.45,111.37 L 490.85,113.16 L 493.08,110.62 L 491.68,111.72 L 488.57,111.52 L 494.92,108.63 L 495.90,113.51 L 507.09,109.96 L 510.90,110.84 L 516.98,111.19 L 539.61,104.82 L 567.72,163.82 Z M 581.05,380.64 L 597.80,369.22 L 589.94,374.43 L 581.05,380.64 Z M 565.33,386.44 L 566.71,384.07 L 563.25,389.90 L 565.33,386.44 Z M 559.34,396.43 L 548.72,398.01 L 537.44,399.86 L 559.34,396.43 Z M 528.69,228.35 L 527.86,227.41 L 532.57,228.12 L 533.50,229.64 L 528.69,228.35 Z M 559.33,213.35 L 561.38,213.40 L 560.27,214.97 L 559.33,213.35 Z M 552.62,214.26 L 551.45,212.14 L 553.31,211.74 L 556.82,214.59 L 552.62,214.26 Z M 489.91,112.28 L 490.00,112.61 L 489.20,112.18 L 489.91,112.28 Z M 501.49,107.97 L 502.68,108.10 L 509.94,110.40 L 501.49,107.97 Z M 494.64,107.65 L 487.77,110.20 L 494.73,107.21 L 500.42,107.89 L 494.64,107.65 Z" fill="#4A90D9" stroke="#1a5fa8" stroke-width="1.2"/>
<path d="M 598.34,58.31 L 596.00,59.35 L 593.82,55.08 L 598.57,55.15 L 598.34,58.31 Z" fill="#A8C8E8" stroke="none"/>
<path d="M 455.58,382.31 L 448.87,385.55 L 448.44,390.10 L 426.54,401.97 L 422.07,411.82 L 417.95,413.55 L 415.97,417.19 L 412.23,418.71 L 422.32,407.33 L 423.19,401.42 L 436.94,393.00 L 436.08,391.21 L 441.75,390.78 L 435.94,386.91 L 435.80,385.00 L 443.12,387.89 L 444.51,384.98 L 456.29,379.92 L 463.86,385.76 L 471.84,381.30 L 472.04,375.93 L 475.19,375.33 L 478.18,367.50 L 486.73,363.82 L 483.27,361.27 L 485.50,357.54 L 472.31,357.29 L 479.76,355.56 L 474.57,354.48 L 478.21,351.76 L 483.09,355.40 L 485.50,347.56 L 481.56,344.67 L 485.50,341.78 L 490.56,350.66 L 486.19,354.63 L 491.97,357.09 L 486.15,356.84 L 491.12,365.95 L 487.18,365.29 L 489.23,369.05 L 484.08,369.29 L 493.08,376.37 L 487.49,376.15 L 481.28,371.49 L 478.76,375.93 L 474.18,376.74 L 473.45,381.47 L 463.05,386.57 L 463.58,388.98 L 459.95,389.22 L 462.50,386.12 L 455.58,382.31 Z" fill="#A8C8E8" stroke="none"/>
<path d="M 595.79,99.84 L 593.37,105.12 L 593.27,103.09 L 589.35,104.42 L 588.45,98.35 L 595.26,90.22 L 595.79,99.84 Z" fill="#A8C8E8" stroke="none"/>
<path d="M 591.17,112.16 L 587.05,108.18 L 589.62,106.85 L 593.30,108.53 L 591.17,112.16 Z" fill="#A8C8E8" stroke="none"/>
<path d="M 463.05,137.30 L 462.00,134.40 L 465.29,133.67 L 472.42,141.52 L 463.05,137.30 Z" fill="#A8C8E8" stroke="none"/>
</svg>