<svg xmlns="http://www.w3.org/2000/svg" width="800" height="500" viewBox="0 0 800 500">
<rect width="800" height="500" fill="#A8C8E8"/>
<path d="M 193.90,86.81 L 189.76,94.61 L 182.28,90.99 L 191.64,85.11 L 193.90,86.81 Z M 297.30,85.10 L 289.03,90.45 L 278.98,81.95 L 283.73,70.82 L 296.00,70.26 L 297.30,85.10 Z M 221.45,69.09 L 226.18,73.84 L 219.59,77.29 L 216.06,73.98 L 217.45,69.02 L 221.45,69.09 Z M 249.02,77.32 L 242.95,78.41 L 233.72,62.32 L 250.62,59.18 L 258.51,52.48 L 266.72,52.48 L 256.89,61.13 L 249.02,77.32 Z M 361.52,47.50 L 357.00,67.34 L 340.07,76.11 L 333.30,75.18 L 344.98,68.50 L 355.39,45.05 L 361.52,47.50 Z M 200.44,45.29 L 195.64,57.76 L 189.04,43.05 L 192.58,39.62 L 199.01,41.31 L 200.44,45.29 Z M 378.33,23.61 L 375.67,33.10 L 363.58,40.35 L 359.75,39.20 L 362.59,30.90 L 373.39,26.81 L 375.63,22.20 L 378.33,23.61 Z M 375.26,22.08 L 373.22,22.68 L 374.59,19.96 L 375.26,22.08 Z" fill="#E8E0D0" stroke="#B8B0A0" stroke-width="0.5"/>
<path d="M 660.45,214.65 L 678.53,214.64 L 678.53,387.73 L 660.45,214.65 Z" fill="#E8E0D0" stroke="#B8B0A0" stroke-width="0.5"/>
<path d="M 574.08,110.79 L 574.23,47.00 L 618.02,15.43 L 629.17,15.70 L 637.55,10.00 L 652.57,12.85 L 667.89,7.46 L 678.53,6.60 L 678.53,178.73 L 574.08,110.79 Z" fill="#C8D8E8" stroke="#8BAABB" stroke-width="0.8"/>
<path d="M 678.53,178.73 L 678.53,214.64 L 660.45,214.65 L 678.53,387.73 L 678.53,500.00 L 265.49,500.00 L 263.13,487.12 L 249.45,469.08 L 256.74,467.49 L 259.81,462.35 L 255.40,465.30 L 256.51,461.89 L 252.36,467.64 L 261.92,450.36 L 261.33,445.41 L 258.63,446.01 L 262.39,440.85 L 260.79,434.86 L 263.22,430.44 L 252.27,411.57 L 254.69,410.41 L 249.71,407.52 L 249.17,415.59 L 243.78,410.30 L 233.65,388.47 L 227.90,406.25 L 231.56,380.97 L 394.97,380.57 L 389.30,313.19 L 394.97,304.22 L 411.33,292.76 L 436.14,284.14 L 436.30,169.29 L 573.86,169.06 L 574.08,110.79 L 678.53,178.73 Z M 257.28,446.98 L 253.71,459.08 L 252.40,455.30 L 257.28,446.98 Z M 259.12,453.58 L 255.14,459.14 L 256.76,455.63 L 259.12,453.58 Z M 252.09,454.62 L 251.57,455.62 L 251.04,454.36 L 252.09,454.62 Z M 253.13,413.48 L 252.81,415.12 L 251.98,414.08 L 253.13,413.48 Z" fill="#C8D8E8" stroke="#8BAABB" stroke-width="0.8"/>
<path d="M 569.47,118.28 L 543.92,119.74 L 527.18,130.54 L 518.30,127.80 L 509.26,130.06 L 488.33,122.84 L 462.09,129.04 L 464.35,140.37 L 448.62,164.36 L 434.46,169.50 L 419.15,222.08 L 396.00,238.41 L 382.78,260.59 L 358.80,273.74 L 350.12,300.52 L 345.16,336.32 L 328.22,356.69 L 329.05,361.69 L 323.26,373.02 L 314.16,375.72 L 269.93,373.02 L 229.68,376.65 L 233.51,353.47 L 242.37,337.87 L 252.30,333.25 L 259.61,309.58 L 264.84,305.34 L 262.77,300.75 L 280.98,269.33 L 280.88,263.70 L 271.80,275.80 L 274.08,269.92 L 317.24,227.72 L 320.39,199.41 L 333.02,171.91 L 334.99,160.25 L 372.40,135.10 L 388.52,92.68 L 397.57,81.64 L 434.40,74.37 L 458.20,63.65 L 475.67,44.30 L 495.89,33.51 L 509.34,19.51 L 522.10,0.00 L 678.53,0.00 L 678.53,6.47 L 673.66,6.83 L 652.57,12.85 L 637.55,10.00 L 629.17,15.70 L 616.61,16.03 L 574.69,46.15 L 574.08,93.75 L 568.51,93.75 L 569.47,118.28 Z" fill="#C8D8E8" stroke="#8BAABB" stroke-width="0.8"/>
<path d="M 574.08,93.75 L 573.86,169.06 L 436.30,169.29 L 436.14,284.14 L 411.33,292.76 L 394.97,304.22 L 389.30,313.19 L 394.97,380.57 L 231.95,380.60 L 227.90,406.25 L 225.92,401.92 L 229.68,376.65 L 269.93,373.02 L 314.16,375.72 L 323.26,373.02 L 329.05,361.69 L 328.22,356.69 L 345.16,336.32 L 350.12,300.52 L 358.80,273.74 L 382.78,260.59 L 396.00,238.41 L 419.15,222.08 L 434.46,169.50 L 448.62,164.36 L 464.35,140.37 L 462.09,129.04 L 488.33,122.84 L 509.26,130.06 L 518.30,127.80 L 527.18,130.54 L 543.92,119.74 L 569.47,118.28 L 568.51,93.75 L 574.08,93.75 Z" fill="#4A90D9" stroke="#1a5fa8" stroke-width="1.2"/>
</svg>