<svg xmlns="http://www.w3.org/2000/svg" width="800" height="500" viewBox="0 0 800 500">
<rect width="800" height="500" fill="#A8C8E8"/>
<path d="M 104.01,86.81 L 98.06,94.61 L 87.32,90.99 L 100.77,85.11 L 104.01,86.81 Z M 252.51,85.10 L 240.63,90.45 L 226.19,81.95 L 233.02,70.82 L 250.65,70.26 L 252.51,85.10 Z M 143.58,69.09 L 150.37,73.84 L 140.90,77.29 L 135.84,73.98 L 137.83,69.02 L 143.58,69.09 Z M 183.18,77.32 L 174.46,78.41 L 161.20,62.32 L 185.47,59.18 L 196.80,52.48 L 208.59,52.48 L 194.47,61.13 L 183.18,77.32 Z M 344.74,47.50 L 338.25,67.34 L 313.94,76.11 L 304.21,75.18 L 320.99,68.50 L 335.94,45.05 L 344.74,47.50 Z M 113.41,45.29 L 106.52,57.76 L 97.03,43.05 L 102.12,39.62 L 111.35,41.31 L 113.41,45.29 Z M 368.88,23.61 L 365.06,33.10 L 347.69,40.35 L 342.19,39.20 L 346.27,30.90 L 361.79,26.81 L 365.01,22.20 L 368.88,23.61 Z M 364.47,22.08 L 361.55,22.68 L 363.51,19.96 L 364.47,22.08 Z" fill="#E8E0D0" stroke="#B8B0A0" stroke-width="0.5"/>
<path d="M 774.03,214.65 L 800.00,214.64 L 800.00,387.73 L 774.03,214.65 Z" fill="#E8E0D0" stroke="#B8B0A0" stroke-width="0.5"/>
<path d="M 650.00,110.79 L 650.21,47.00 L 713.10,15.43 L 729.12,15.70 L 741.15,10.00 L 762.73,12.85 L 784.72,7.46 L 800.00,6.60 L 800.00,178.73 L 650.00,110.79 Z" fill="#C8D8E8" stroke="#8BAABB" stroke-width="0.8"/>
<path d="M 800.00,178.73 L 800.00,214.64 L 774.03,214.65 L 800.00,387.73 L 800.00,500.00 L 206.83,500.00 L 203.43,487.12 L 183.79,469.08 L 194.25,467.49 L 198.67,462.35 L 192.34,465.30 L 193.93,461.89 L 187.97,467.64 L 201.70,450.36 L 200.85,445.41 L 196.98,446.01 L 202.37,440.85 L 200.08,434.86 L 203.57,430.44 L 187.84,411.57 L 191.32,410.41 L 184.16,407.52 L 183.38,415.59 L 175.64,410.30 L 161.10,388.47 L 152.84,406.25 L 158.09,380.97 L 392.77,380.57 L 384.64,313.19 L 392.77,304.22 L 416.27,292.76 L 451.90,284.14 L 452.14,169.29 L 649.69,169.06 L 650.00,110.79 L 800.00,178.73 Z M 195.04,446.98 L 189.90,459.08 L 188.03,455.30 L 195.04,446.98 Z M 197.67,453.58 L 191.97,459.14 L 194.29,455.63 L 197.67,453.58 Z M 187.58,454.62 L 186.83,455.62 L 186.08,454.36 L 187.58,454.62 Z M 189.08,413.48 L 188.62,415.12 L 187.43,414.08 L 189.08,413.48 Z" fill="#C8D8E8" stroke="#8BAABB" stroke-width="0.8"/>
<path d="M 643.38,118.28 L 606.68,119.74 L 582.65,130.54 L 569.90,127.80 L 556.91,130.06 L 526.85,122.84 L 489.16,129.04 L 492.41,140.37 L 469.83,164.36 L 449.48,169.50 L 427.51,222.08 L 394.26,238.41 L 375.27,260.59 L 340.83,273.74 L 328.37,300.52 L 321.24,336.32 L 296.92,356.69 L 298.11,361.69 L 289.79,373.02 L 276.72,375.72 L 213.20,373.02 L 155.40,376.65 L 160.90,353.47 L 173.62,337.87 L 187.88,333.25 L 198.38,309.58 L 205.89,305.34 L 202.93,300.75 L 229.08,269.33 L 228.93,263.70 L 215.88,275.80 L 219.16,269.92 L 281.14,227.72 L 285.68,199.41 L 303.80,171.91 L 306.64,160.25 L 360.37,135.10 L 383.51,92.68 L 396.51,81.64 L 449.40,74.37 L 483.58,63.65 L 508.67,44.30 L 537.71,33.51 L 557.03,19.51 L 575.35,0.00 L 800.00,0.00 L 800.00,6.47 L 793.02,6.83 L 762.73,12.85 L 741.15,10.00 L 729.12,15.70 L 711.07,16.03 L 650.88,46.15 L 650.00,93.75 L 642.01,93.75 L 643.38,118.28 Z" fill="#C8D8E8" stroke="#8BAABB" stroke-width="0.8"/>
<path d="M 650.00,93.75 L 649.69,169.06 L 452.14,169.29 L 451.90,284.14 L 416.27,292.76 L 392.77,304.22 L 384.64,313.19 L 392.77,380.57 L 158.66,380.60 L 152.84,406.25 L 150.00,401.92 L 155.40,376.65 L 213.20,373.02 L 276.72,375.72 L 289.79,373.02 L 298.11,361.69 L 296.92,356.69 L 321.24,336.32 L 328.37,300.52 L 340.83,273.74 L 375.27,260.59 L 394.26,238.41 L 427.51,222.08 L 449.48,169.50 L 469.83,164.36 L 492.41,140.37 L 489.16,129.04 L 526.85,122.84 L 556.91,130.06 L 569.90,127.80 L 582.65,130.54 L 606.68,119.74 L 643.38,118.28 L 642.01,93.75 L 650.00,93.75 Z" fill="#4A90D9" stroke="#1a5fa8" stroke-width="1.2"/>
</svg>