<svg xmlns="http://www.w3.org/2000/svg" width="800" height="500" viewBox="0 0 800 500">
<rect width="800" height="500" fill="#A8C8E8"/>
<path d="M 662.33,453.92 L 677.77,460.45 L 677.68,468.32 L 703.19,492.45 L 716.77,500.00 L 617.92,500.00 L 662.33,453.92 Z" fill="#E8E0D0" stroke="#B8B0A0" stroke-width="0.5"/>
<path d="M 727.05,126.97 L 709.58,132.67 L 672.05,120.59 L 653.54,131.33 L 660.05,134.32 L 650.06,144.60 L 649.62,154.36 L 657.01,160.62 L 654.65,167.94 L 647.55,167.50 L 643.92,175.05 L 625.48,184.20 L 619.72,164.29 L 593.15,139.28 L 593.62,148.00 L 589.02,124.27 L 550.63,103.23 L 528.65,81.62 L 524.35,68.00 L 507.49,55.38 L 510.39,47.84 L 501.99,42.17 L 504.98,34.93 L 496.91,31.71 L 487.66,10.66 L 473.89,4.96 L 473.27,0.00 L 800.00,0.00 L 800.00,125.71 L 727.05,126.97 Z M 579.84,172.44 L 572.90,166.34 L 563.17,167.64 L 548.35,155.11 L 559.41,163.35 L 569.11,165.11 L 571.14,159.66 L 580.43,165.68 L 579.84,172.44 Z M 554.17,155.38 L 561.15,151.87 L 555.01,149.52 L 556.10,148.62 L 561.88,150.88 L 566.64,162.61 L 554.17,155.38 Z" fill="#E8E0D0" stroke="#B8B0A0" stroke-width="0.5"/>
<path d="M 799.46,372.94 L 795.00,383.99 L 789.08,382.87 L 791.76,378.64 L 781.03,381.70 L 781.76,385.77 L 761.54,380.81 L 746.96,389.08 L 711.91,393.07 L 686.08,384.31 L 676.17,388.32 L 676.56,379.31 L 658.12,355.10 L 662.20,330.84 L 638.17,287.03 L 642.81,290.99 L 632.51,266.54 L 637.15,270.54 L 636.52,262.95 L 631.05,252.55 L 612.08,246.61 L 617.50,246.45 L 619.72,239.82 L 625.89,248.51 L 618.19,221.23 L 628.87,209.42 L 625.48,184.20 L 643.92,175.05 L 647.55,167.50 L 654.65,167.94 L 657.01,160.62 L 649.62,154.36 L 650.06,144.60 L 659.78,135.43 L 653.54,131.33 L 663.85,123.97 L 678.81,120.95 L 709.58,132.67 L 727.05,126.97 L 800.00,125.71 L 800.00,372.79 L 799.46,372.94 Z M 674.75,390.03 L 673.77,391.18 L 670.36,389.29 L 674.75,390.03 Z M 625.89,328.20 L 617.93,334.07 L 618.31,332.11 L 625.89,328.20 Z M 626.40,314.18 L 624.90,319.89 L 618.19,314.73 L 626.40,314.18 Z M 609.95,238.42 L 608.96,245.21 L 608.26,238.34 L 614.01,235.43 L 609.95,238.42 Z" fill="#E8E0D0" stroke="#B8B0A0" stroke-width="0.5"/>
<path d="M 631.74,482.75 L 612.49,476.58 L 561.83,485.43 L 548.67,481.75 L 550.99,442.54 L 598.69,397.38 L 617.17,406.25 L 625.69,402.42 L 631.41,391.52 L 650.00,386.99 L 665.81,399.12 L 672.16,413.73 L 669.38,425.91 L 656.64,428.52 L 645.36,437.05 L 624.56,441.00 L 616.40,450.07 L 604.98,449.76 L 611.61,455.65 L 630.44,448.56 L 652.55,447.67 L 659.19,454.53 L 631.74,482.75 Z" fill="#C8D8E8" stroke="#8BAABB" stroke-width="0.8"/>
<path d="M 11.76,487.96 L 25.18,499.03 L 31.47,496.54 L 40.42,486.89 L 39.37,467.52 L 49.00,451.15 L 48.97,436.21 L 67.24,424.87 L 94.91,389.69 L 126.84,387.33 L 128.47,369.02 L 147.48,337.64 L 157.57,300.87 L 174.13,297.08 L 197.45,300.13 L 202.00,292.16 L 214.90,290.14 L 234.32,309.62 L 259.55,266.77 L 268.16,275.36 L 284.79,277.83 L 299.55,292.36 L 332.36,288.13 L 343.10,279.41 L 351.89,282.12 L 357.92,291.09 L 380.85,284.02 L 409.03,291.85 L 424.89,289.66 L 479.33,309.59 L 506.14,336.73 L 544.97,357.10 L 562.51,377.68 L 580.32,385.60 L 594.85,400.39 L 550.99,442.54 L 548.67,481.75 L 561.83,485.43 L 612.49,476.58 L 635.51,481.61 L 616.79,500.00 L 0.00,500.00 L 0.00,497.36 L 11.76,487.96 Z" fill="#C8D8E8" stroke="#8BAABB" stroke-width="0.8"/>
<path d="M 211.17,6.76 L 225.40,46.31 L 233.28,54.39 L 243.36,53.00 L 249.59,59.21 L 262.09,61.63 L 276.76,71.14 L 273.35,74.75 L 278.99,80.21 L 290.53,77.05 L 283.89,81.96 L 296.91,81.61 L 312.77,93.25 L 285.09,120.27 L 276.59,119.17 L 273.37,122.81 L 270.56,119.03 L 230.01,132.10 L 223.09,147.72 L 190.97,145.92 L 192.93,158.12 L 183.73,176.31 L 189.53,189.33 L 168.37,220.07 L 165.15,235.43 L 150.00,252.71 L 157.57,300.87 L 147.48,337.64 L 128.47,369.02 L 127.48,386.24 L 94.91,389.69 L 67.24,424.87 L 48.97,436.21 L 49.00,451.15 L 39.37,467.52 L 40.42,486.89 L 31.47,496.54 L 25.18,499.03 L 11.76,487.96 L 0.00,497.36 L 0.00,0.00 L 210.36,0.00 L 211.17,6.76 Z" fill="#C8D8E8" stroke="#8BAABB" stroke-width="0.8"/>
<path d="M 631.41,391.52 L 625.69,402.42 L 617.17,406.25 L 602.04,397.60 L 594.85,400.39 L 580.32,385.60 L 562.51,377.68 L 544.97,357.10 L 506.14,336.73 L 479.33,309.59 L 424.89,289.66 L 409.03,291.85 L 380.85,284.02 L 357.92,291.09 L 351.89,282.12 L 343.10,279.41 L 332.36,288.13 L 299.55,292.36 L 284.79,277.83 L 268.16,275.36 L 259.55,266.77 L 234.32,309.62 L 214.90,290.14 L 202.00,292.16 L 197.45,300.13 L 174.13,297.08 L 157.57,300.87 L 150.00,252.71 L 165.15,235.43 L 168.37,220.07 L 189.53,189.33 L 183.73,176.31 L 192.93,158.12 L 190.97,145.92 L 223.09,147.72 L 230.01,132.10 L 270.56,119.03 L 273.37,122.81 L 276.59,119.17 L 285.09,120.27 L 312.60,93.75 L 343.30,140.22 L 364.34,208.68 L 375.02,215.15 L 376.55,231.06 L 388.04,232.42 L 395.83,254.89 L 402.98,255.73 L 406.22,250.49 L 400.15,238.48 L 407.76,232.19 L 423.05,241.24 L 419.07,246.97 L 428.99,261.08 L 438.51,264.89 L 455.38,259.13 L 468.97,265.84 L 474.34,276.97 L 504.30,280.20 L 542.33,318.77 L 564.24,324.00 L 574.46,335.19 L 583.22,340.15 L 580.31,333.87 L 588.05,339.01 L 594.84,358.49 L 606.39,357.95 L 621.02,368.99 L 624.87,379.02 L 635.83,382.46 L 641.28,376.34 L 650.00,386.99 L 631.41,391.52 Z M 446.51,228.41 L 415.50,226.52 L 412.40,221.23 L 423.15,223.50 L 411.88,219.16 L 419.88,213.68 L 413.41,210.61 L 427.28,215.47 L 429.32,224.43 L 437.02,221.15 L 446.51,228.41 Z M 425.63,205.52 L 416.33,203.76 L 420.85,198.80 L 425.63,205.52 Z" fill="#4A90D9" stroke="#1a5fa8" stroke-width="1.2"/>
<path d="M 213.29,436.34 L 201.96,434.03 L 199.41,437.06 L 192.31,432.53 L 194.09,416.72 L 203.22,410.61 L 211.71,414.68 L 230.20,409.35 L 237.85,419.98 L 235.81,427.23 L 221.84,446.56 L 214.90,444.78 L 213.29,436.34 Z" fill="#A8C8E8" stroke="none"/>
<path d="M 537.93,460.54 L 534.66,461.24 L 534.13,460.25 L 537.93,460.54 Z" fill="#A8C8E8" stroke="none"/>
<path d="M 539.89,452.23 L 538.90,447.91 L 542.18,449.07 L 544.31,452.57 L 539.89,452.23 Z" fill="#A8C8E8" stroke="none"/>
<path d="M 110.41,281.15 L 110.90,263.67 L 114.50,271.13 L 110.41,281.15 Z" fill="#A8C8E8" stroke="none"/>
<path d="M 3.49,437.30 L 3.31,448.81 L 26.91,465.14 L 0.00,451.89 L 0.00,438.28 L 3.49,437.30 Z" fill="#A8C8E8" stroke="none"/>
<path d="M 600.04,444.20 L 597.22,446.97 L 595.22,443.22 L 600.04,444.20 Z" fill="#A8C8E8" stroke="none"/>
<path d="M 557.70,470.11 L 549.48,477.13 L 542.60,471.41 L 551.44,466.18 L 557.70,470.11 Z" fill="#A8C8E8" stroke="none"/>
</svg>