<svg xmlns="http://www.w3.org/2000/svg" width="800" height="500" viewBox="0 0 800 500">
<rect width="800" height="500" fill="#A8C8E8"/>
<path d="M 587.60,453.92 L 598.65,460.45 L 598.58,468.32 L 616.82,492.45 L 626.54,500.00 L 555.84,500.00 L 587.60,453.92 Z" fill="#E8E0D0" stroke="#B8B0A0" stroke-width="0.5"/>
<path d="M 633.89,126.97 L 621.39,132.67 L 594.56,120.59 L 581.32,131.33 L 585.97,134.32 L 578.83,144.60 L 578.52,154.36 L 583.80,160.62 L 582.12,167.94 L 577.04,167.50 L 574.44,175.05 L 561.25,184.20 L 557.13,164.29 L 538.13,139.28 L 538.46,148.00 L 535.18,124.27 L 507.72,103.23 L 492.00,81.62 L 488.93,68.00 L 476.87,55.38 L 478.95,47.84 L 472.93,42.17 L 475.07,34.93 L 469.31,31.71 L 462.69,10.66 L 452.84,4.96 L 452.40,0.00 L 686.06,0.00 L 686.06,125.71 L 633.89,126.97 Z M 528.61,172.44 L 523.65,166.34 L 516.69,167.64 L 506.09,155.11 L 514.00,163.35 L 520.94,165.11 L 522.39,159.66 L 529.03,165.68 L 528.61,172.44 Z M 510.25,155.38 L 515.25,151.87 L 510.85,149.52 L 511.64,148.62 L 515.77,150.88 L 519.17,162.61 L 510.25,155.38 Z" fill="#E8E0D0" stroke="#B8B0A0" stroke-width="0.5"/>
<path d="M 685.67,372.94 L 682.49,383.99 L 678.25,382.87 L 680.17,378.64 L 672.50,381.70 L 673.02,385.77 L 658.55,380.81 L 648.13,389.08 L 623.06,393.07 L 604.59,384.31 L 597.51,388.32 L 597.78,379.31 L 584.59,355.10 L 587.51,330.84 L 570.33,287.03 L 573.65,290.99 L 566.28,266.54 L 569.60,270.54 L 569.15,262.95 L 565.23,252.55 L 551.67,246.61 L 555.54,246.45 L 557.13,239.82 L 561.54,248.51 L 556.04,221.23 L 563.67,209.42 L 561.25,184.20 L 574.44,175.05 L 577.04,167.50 L 582.12,167.94 L 583.80,160.62 L 578.52,154.36 L 578.83,144.60 L 585.78,135.43 L 581.32,131.33 L 588.69,123.97 L 599.39,120.95 L 621.39,132.67 L 633.89,126.97 L 686.06,125.71 L 686.06,372.79 L 685.67,372.94 Z M 596.49,390.03 L 595.78,391.18 L 593.34,389.29 L 596.49,390.03 Z M 561.54,328.20 L 555.86,334.07 L 556.13,332.11 L 561.54,328.20 Z M 561.91,314.18 L 560.84,319.89 L 556.04,314.73 L 561.91,314.18 Z M 550.14,238.42 L 549.44,245.21 L 548.93,238.34 L 553.05,235.43 L 550.14,238.42 Z" fill="#E8E0D0" stroke="#B8B0A0" stroke-width="0.5"/>
<path d="M 565.73,482.75 L 551.96,476.58 L 515.73,485.43 L 506.32,481.75 L 507.98,442.54 L 542.09,397.38 L 555.31,406.25 L 561.40,402.42 L 565.49,391.52 L 578.79,386.99 L 590.10,399.12 L 594.64,413.73 L 592.65,425.91 L 583.54,428.52 L 575.47,437.05 L 560.60,441.00 L 554.76,450.07 L 546.59,449.76 L 551.33,455.65 L 564.80,448.56 L 580.61,447.67 L 585.36,454.53 L 565.73,482.75 Z" fill="#C8D8E8" stroke="#8BAABB" stroke-width="0.8"/>
<path d="M 122.35,487.96 L 131.95,499.03 L 136.45,496.54 L 142.84,486.89 L 142.09,467.52 L 148.98,451.15 L 148.96,436.21 L 162.03,424.87 L 181.81,389.69 L 204.65,387.33 L 205.82,369.02 L 219.41,337.64 L 226.62,300.87 L 238.47,297.08 L 255.15,300.13 L 258.40,292.16 L 267.63,290.14 L 281.51,309.62 L 299.56,266.77 L 305.72,275.36 L 317.61,277.83 L 328.16,292.36 L 351.63,288.13 L 359.31,279.41 L 365.60,282.12 L 369.91,291.09 L 386.30,284.02 L 406.46,291.85 L 417.80,289.66 L 456.73,309.59 L 475.90,336.73 L 503.67,357.10 L 516.22,377.68 L 528.95,385.60 L 539.34,400.39 L 507.98,442.54 L 506.32,481.75 L 515.73,485.43 L 551.96,476.58 L 568.42,481.61 L 555.04,500.00 L 113.94,500.00 L 113.94,497.36 L 122.35,487.96 Z" fill="#C8D8E8" stroke="#8BAABB" stroke-width="0.8"/>
<path d="M 264.96,6.76 L 275.14,46.31 L 280.77,54.39 L 287.98,53.00 L 292.43,59.21 L 301.38,61.63 L 311.87,71.14 L 309.42,74.75 L 313.46,80.21 L 321.72,77.05 L 316.97,81.96 L 326.27,81.61 L 337.62,93.25 L 317.83,120.27 L 311.74,119.17 L 309.44,122.81 L 307.43,119.03 L 278.43,132.10 L 273.48,147.72 L 250.51,145.92 L 251.92,158.12 L 245.33,176.31 L 249.49,189.33 L 234.35,220.07 L 232.05,235.43 L 221.21,252.71 L 226.62,300.87 L 219.41,337.64 L 205.82,369.02 L 205.11,386.24 L 181.81,389.69 L 162.03,424.87 L 148.96,436.21 L 148.98,451.15 L 142.09,467.52 L 142.84,486.89 L 136.45,496.54 L 131.95,499.03 L 122.35,487.96 L 113.94,497.36 L 113.94,0.00 L 264.38,0.00 L 264.96,6.76 Z" fill="#C8D8E8" stroke="#8BAABB" stroke-width="0.8"/>
<path d="M 565.49,391.52 L 561.40,402.42 L 555.31,406.25 L 544.49,397.60 L 539.34,400.39 L 528.95,385.60 L 516.22,377.68 L 503.67,357.10 L 475.90,336.73 L 456.73,309.59 L 417.80,289.66 L 406.46,291.85 L 386.30,284.02 L 369.91,291.09 L 365.60,282.12 L 359.31,279.41 L 351.63,288.13 L 328.16,292.36 L 317.61,277.83 L 305.72,275.36 L 299.56,266.77 L 281.51,309.62 L 267.63,290.14 L 258.40,292.16 L 255.15,300.13 L 238.47,297.08 L 226.62,300.87 L 221.21,252.71 L 232.05,235.43 L 234.35,220.07 L 249.49,189.33 L 245.33,176.31 L 251.92,158.12 L 250.51,145.92 L 273.48,147.72 L 278.43,132.10 L 307.43,119.03 L 309.44,122.81 L 311.74,119.17 L 317.83,120.27 L 337.50,93.75 L 359.45,140.22 L 374.50,208.68 L 382.14,215.15 L 383.23,231.06 L 391.45,232.42 L 397.02,254.89 L 402.13,255.73 L 404.45,250.49 L 400.11,238.48 L 405.55,232.19 L 416.48,241.24 L 413.64,246.97 L 420.73,261.08 L 427.54,264.89 L 439.61,259.13 L 449.32,265.84 L 453.16,276.97 L 474.59,280.20 L 501.79,318.77 L 517.45,324.00 L 524.77,335.19 L 531.03,340.15 L 528.95,333.87 L 534.48,339.01 L 539.34,358.49 L 547.60,357.95 L 558.06,368.99 L 560.81,379.02 L 568.65,382.46 L 572.55,376.34 L 578.79,386.99 L 565.49,391.52 Z M 433.26,228.41 L 411.08,226.52 L 408.87,221.23 L 416.56,223.50 L 408.50,219.16 L 414.21,213.68 L 409.59,210.61 L 419.51,215.47 L 420.97,224.43 L 426.48,221.15 L 433.26,228.41 Z M 418.33,205.52 L 411.68,203.76 L 414.91,198.80 L 418.33,205.52 Z" fill="#4A90D9" stroke="#1a5fa8" stroke-width="1.2"/>
<path d="M 266.47,436.34 L 258.38,434.03 L 256.55,437.06 L 251.47,432.53 L 252.74,416.72 L 259.27,410.61 L 265.34,414.68 L 278.57,409.35 L 284.04,419.98 L 282.58,427.23 L 272.59,446.56 L 267.62,444.78 L 266.47,436.34 Z" fill="#A8C8E8" stroke="none"/>
<path d="M 498.64,460.54 L 496.30,461.24 L 495.92,460.25 L 498.64,460.54 Z" fill="#A8C8E8" stroke="none"/>
<path d="M 500.04,452.23 L 499.33,447.91 L 501.68,449.07 L 503.20,452.57 L 500.04,452.23 Z" fill="#A8C8E8" stroke="none"/>
<path d="M 192.90,281.15 L 193.25,263.67 L 195.83,271.13 L 192.90,281.15 Z" fill="#A8C8E8" stroke="none"/>
<path d="M 116.44,437.30 L 116.31,448.81 L 133.18,465.14 L 113.94,451.89 L 113.94,438.28 L 116.44,437.30 Z" fill="#A8C8E8" stroke="none"/>
<path d="M 543.06,444.20 L 541.04,446.97 L 539.61,443.22 L 543.06,444.20 Z" fill="#A8C8E8" stroke="none"/>
<path d="M 512.78,470.11 L 506.90,477.13 L 501.98,471.41 L 508.30,466.18 L 512.78,470.11 Z" fill="#A8C8E8" stroke="none"/>
</svg>