<svg xmlns="http://www.w3.org/2000/svg" width="800" height="500" viewBox="0 0 800 500">
<rect width="800" height="500" fill="#A8C8E8"/>
<path d="M 727.19,0.46 L 725.87,5.75 L 722.20,9.85 L 722.99,12.91 L 720.56,18.02 L 722.21,20.40 L 717.60,23.37 L 708.59,22.24 L 706.22,24.85 L 709.99,25.33 L 701.75,31.30 L 696.80,32.79 L 696.50,36.34 L 689.59,39.77 L 688.16,42.94 L 689.96,43.89 L 689.05,46.16 L 685.95,47.19 L 686.04,48.53 L 690.08,48.15 L 693.21,46.41 L 691.72,44.95 L 692.94,43.80 L 697.69,42.38 L 704.45,43.04 L 703.63,44.37 L 705.35,45.84 L 703.97,48.12 L 709.67,52.50 L 704.76,54.41 L 704.65,56.51 L 712.75,62.45 L 710.42,66.27 L 700.35,68.40 L 703.52,72.19 L 709.34,73.85 L 710.41,76.50 L 708.29,76.53 L 705.53,79.42 L 707.36,81.31 L 706.21,82.55 L 708.80,85.08 L 716.54,87.33 L 723.75,86.35 L 724.52,88.45 L 719.80,92.36 L 719.77,94.31 L 712.55,96.43 L 712.27,98.38 L 708.34,98.65 L 706.83,100.83 L 703.21,101.21 L 700.09,103.90 L 702.37,103.82 L 702.07,105.20 L 695.30,107.34 L 691.25,107.00 L 690.96,108.41 L 685.64,106.51 L 683.77,108.23 L 679.71,105.62 L 672.44,104.92 L 671.27,102.22 L 665.49,102.61 L 665.31,101.18 L 669.76,99.81 L 665.38,98.29 L 665.87,100.80 L 661.80,100.95 L 661.53,102.49 L 659.35,100.93 L 659.01,98.95 L 657.95,97.90 L 659.01,100.93 L 660.74,102.40 L 641.46,98.65 L 622.82,107.05 L 621.21,116.28 L 624.31,120.10 L 618.81,119.35 L 612.78,121.89 L 604.22,120.16 L 597.96,121.70 L 591.66,118.90 L 591.88,116.65 L 585.38,116.93 L 583.45,114.74 L 571.68,112.36 L 568.20,112.23 L 567.91,115.21 L 552.74,115.19 L 546.44,112.15 L 540.96,113.50 L 536.73,110.14 L 528.05,108.99 L 525.03,106.99 L 521.22,108.23 L 522.42,104.39 L 517.56,104.32 L 513.68,101.86 L 516.69,101.37 L 520.79,97.88 L 525.67,78.99 L 527.24,76.88 L 530.39,76.80 L 527.56,74.69 L 525.60,77.61 L 529.49,59.39 L 536.58,64.10 L 537.70,67.80 L 541.73,72.44 L 540.36,69.93 L 542.64,70.44 L 539.03,68.49 L 535.93,61.17 L 525.89,56.67 L 527.74,54.80 L 531.67,56.52 L 528.01,53.61 L 530.30,50.31 L 526.70,47.68 L 528.92,45.20 L 526.05,45.56 L 513.71,41.49 L 511.16,37.67 L 506.52,35.19 L 509.37,31.02 L 503.80,28.95 L 505.49,28.46 L 505.59,26.46 L 515.23,27.63 L 508.94,25.52 L 502.97,26.94 L 497.11,25.90 L 499.47,25.77 L 496.79,24.29 L 500.45,23.51 L 498.16,22.20 L 501.07,21.91 L 495.11,21.65 L 495.84,21.47 L 496.34,20.99 L 491.00,22.05 L 488.95,20.90 L 492.68,21.04 L 493.86,20.01 L 493.96,19.65 L 493.46,19.27 L 488.73,20.18 L 487.50,18.86 L 488.27,20.86 L 484.20,20.12 L 484.01,22.45 L 482.48,19.33 L 484.31,17.54 L 482.64,17.27 L 481.95,19.01 L 478.97,18.21 L 480.65,18.33 L 478.97,17.95 L 480.65,16.47 L 477.01,18.07 L 461.77,13.83 L 460.59,15.97 L 456.45,16.09 L 455.05,12.83 L 448.53,11.57 L 458.37,10.13 L 456.28,7.86 L 452.32,8.93 L 450.79,6.80 L 452.56,5.65 L 453.25,6.63 L 458.72,6.78 L 460.54,6.41 L 454.63,5.87 L 458.27,4.01 L 447.63,5.68 L 447.72,2.29 L 452.18,0.18 L 453.34,0.00 L 467.77,0.00 L 468.01,0.18 L 468.09,0.00 L 490.99,0.00 L 493.99,2.51 L 499.57,0.00 L 501.86,0.00 L 501.82,0.18 L 504.41,1.10 L 507.40,0.00 L 508.13,0.00 L 509.60,2.42 L 508.56,0.00 L 513.44,0.00 L 513.69,0.44 L 521.84,0.00 L 727.79,0.00 L 727.19,0.46 Z M 598.05,119.86 L 597.09,119.13 L 596.89,119.72 L 598.05,119.86 Z M 764.35,116.45 L 764.23,116.47 L 763.78,115.92 L 764.35,116.45 Z M 746.69,123.17 L 743.61,121.15 L 746.06,120.13 L 747.17,117.24 L 756.25,114.29 L 760.13,115.40 L 761.34,109.03 L 763.95,109.29 L 763.47,116.06 L 765.37,117.55 L 766.07,125.62 L 762.59,129.36 L 762.56,134.13 L 760.13,135.68 L 761.42,136.55 L 758.31,139.13 L 758.59,140.59 L 749.00,136.94 L 751.91,134.36 L 745.97,133.29 L 749.31,130.25 L 745.06,130.37 L 744.44,129.05 L 747.96,127.36 L 743.98,124.42 L 746.69,123.17 Z M 526.73,54.65 L 522.39,50.03 L 525.88,51.02 L 526.73,54.65 Z M 520.18,47.04 L 519.03,46.18 L 524.54,47.05 L 525.13,48.03 L 520.18,47.04 Z M 502.53,37.12 L 503.18,37.56 L 500.65,37.07 L 502.53,37.12 Z M 505.99,33.45 L 502.59,31.06 L 504.71,31.24 L 505.99,33.45 Z M 485.45,25.86 L 481.97,25.67 L 481.11,24.29 L 485.45,25.86 Z M 440.53,3.71 L 439.53,3.49 L 440.45,3.06 L 440.53,3.71 Z M 692.56,109.05 L 690.65,109.11 L 690.85,108.93 L 692.56,109.05 Z" fill="#E8E0D0" stroke="#B8B0A0" stroke-width="0.5"/>
<path d="M 360.65,405.88 L 360.53,438.03 L 286.57,438.13 L 286.48,487.16 L 273.15,490.84 L 264.35,495.73 L 261.30,499.56 L 261.35,500.00 L 239.22,500.00 L 240.24,494.15 L 244.91,482.72 L 257.80,477.10 L 264.91,467.64 L 277.35,460.67 L 285.58,438.22 L 293.20,436.03 L 301.65,425.79 L 300.44,420.95 L 314.54,418.30 L 325.80,421.38 L 330.66,420.42 L 335.43,421.59 L 344.43,416.98 L 358.17,416.36 L 357.65,405.88 L 360.65,405.88 Z" fill="#E8E0D0" stroke="#B8B0A0" stroke-width="0.5"/>
<path d="M 797.62,24.15 L 794.94,21.44 L 785.40,20.54 L 785.38,24.04 L 779.41,26.46 L 780.51,24.50 L 777.70,24.76 L 774.66,21.24 L 771.01,20.32 L 767.25,21.61 L 757.71,18.74 L 751.00,19.01 L 743.81,16.21 L 740.10,18.83 L 744.90,19.01 L 744.17,20.24 L 736.58,19.67 L 732.35,20.86 L 722.73,20.78 L 723.84,20.16 L 722.21,20.40 L 720.56,18.02 L 722.99,12.91 L 722.05,10.14 L 725.87,5.75 L 727.19,0.46 L 727.79,0.00 L 800.00,0.00 L 800.00,24.12 L 797.62,24.15 Z" fill="#E8E0D0" stroke="#B8B0A0" stroke-width="0.5"/>
<path d="M 791.87,466.04 L 784.98,467.57 L 781.64,465.57 L 780.15,462.22 L 776.57,460.16 L 776.03,450.97 L 762.03,434.76 L 764.36,431.21 L 772.62,427.88 L 773.87,421.72 L 769.68,412.71 L 774.43,401.91 L 770.90,394.16 L 771.99,377.50 L 768.47,368.21 L 760.00,358.37 L 773.00,353.76 L 780.13,346.49 L 781.86,342.92 L 778.22,332.98 L 781.72,328.12 L 786.94,326.89 L 789.32,322.84 L 793.03,321.85 L 795.26,319.29 L 800.00,317.47 L 800.00,468.18 L 791.87,466.04 Z" fill="#E8E0D0" stroke="#B8B0A0" stroke-width="0.5"/>
<path d="M 795.26,319.29 L 793.03,321.85 L 789.32,322.84 L 786.94,326.89 L 781.72,328.12 L 778.22,332.98 L 781.50,344.35 L 773.00,353.76 L 765.18,356.21 L 754.63,320.55 L 738.77,311.73 L 737.69,305.76 L 733.34,300.77 L 725.30,298.11 L 724.59,293.80 L 719.96,286.05 L 720.68,281.40 L 726.19,278.51 L 727.66,275.22 L 736.66,270.71 L 738.08,262.58 L 740.99,259.21 L 737.95,257.60 L 738.90,253.48 L 736.77,247.88 L 739.36,236.22 L 735.18,234.37 L 740.97,231.72 L 740.59,229.38 L 745.67,228.36 L 744.80,226.36 L 749.73,225.59 L 758.31,220.67 L 770.18,218.52 L 772.72,218.83 L 770.79,221.07 L 771.77,222.26 L 773.95,221.74 L 771.85,220.79 L 773.25,220.09 L 781.90,221.74 L 778.70,222.12 L 780.90,222.92 L 779.91,224.67 L 783.57,227.51 L 780.05,229.11 L 783.75,230.40 L 787.38,229.92 L 788.86,227.59 L 799.22,223.64 L 800.00,225.58 L 800.00,229.06 L 793.63,235.80 L 788.10,237.24 L 786.41,242.37 L 789.68,247.59 L 798.99,251.55 L 799.02,257.42 L 800.00,258.27 L 800.00,261.35 L 789.13,272.70 L 778.67,276.94 L 775.97,279.94 L 777.44,284.28 L 783.20,288.99 L 786.73,290.07 L 791.78,288.91 L 790.84,292.03 L 792.26,293.34 L 796.07,292.15 L 796.66,290.28 L 799.03,290.63 L 800.00,294.24 L 800.00,317.47 L 795.26,319.29 Z M 799.42,287.10 L 795.59,290.20 L 794.22,288.47 L 792.31,288.75 L 792.21,285.47 L 799.42,287.10 Z M 797.80,270.24 L 800.00,270.43 L 800.00,270.81 L 799.32,271.23 L 797.80,270.24 Z" fill="#E8E0D0" stroke="#B8B0A0" stroke-width="0.5"/>
<path d="M 798.01,36.17 L 786.66,34.68 L 784.16,31.78 L 778.33,34.67 L 773.08,33.11 L 772.70,31.41 L 766.55,30.61 L 765.21,26.62 L 768.07,23.78 L 765.80,21.36 L 771.01,20.32 L 776.36,22.27 L 777.70,24.76 L 780.51,24.50 L 779.41,26.46 L 785.38,24.04 L 785.40,20.54 L 794.94,21.44 L 797.62,24.15 L 800.00,24.12 L 800.00,34.28 L 798.01,36.17 Z" fill="#E8E0D0" stroke="#B8B0A0" stroke-width="0.5"/>
<path d="M 712.60,53.44 L 721.21,51.36 L 727.93,52.62 L 733.87,48.60 L 733.35,45.80 L 740.28,42.31 L 741.14,46.50 L 749.39,49.32 L 748.47,51.38 L 750.76,52.08 L 751.41,54.41 L 753.69,54.52 L 755.03,53.01 L 753.68,50.30 L 758.63,46.58 L 759.91,41.43 L 763.29,41.41 L 765.55,45.28 L 774.04,43.87 L 777.54,46.80 L 779.39,45.98 L 777.90,44.69 L 778.98,43.26 L 776.44,42.42 L 776.58,40.74 L 780.13,38.93 L 785.72,40.65 L 786.06,38.99 L 784.06,38.05 L 785.94,34.33 L 798.01,36.17 L 800.00,34.28 L 800.00,116.38 L 796.83,114.08 L 792.11,112.89 L 792.83,110.68 L 786.96,110.25 L 787.60,104.33 L 782.91,99.57 L 781.45,92.72 L 777.87,89.26 L 772.41,87.65 L 772.13,88.93 L 758.76,82.91 L 758.31,83.85 L 748.35,81.39 L 741.77,83.87 L 732.91,91.75 L 720.35,93.77 L 719.80,92.36 L 724.52,88.45 L 723.75,86.35 L 716.75,87.36 L 708.59,84.93 L 705.53,79.42 L 708.29,76.53 L 710.41,76.50 L 709.29,73.73 L 703.52,72.19 L 700.35,68.40 L 711.59,65.39 L 712.75,62.45 L 708.80,60.52 L 708.37,58.01 L 704.34,55.36 L 709.67,52.50 L 712.60,53.44 Z M 742.16,185.15 L 740.52,187.24 L 739.10,184.61 L 742.16,185.15 Z M 738.20,184.47 L 737.07,184.42 L 736.52,183.15 L 738.20,182.76 L 738.20,184.47 Z M 736.88,147.92 L 736.07,147.88 L 738.66,145.36 L 736.88,147.92 Z M 771.42,158.33 L 767.55,162.06 L 769.91,165.52 L 766.22,183.61 L 765.16,184.47 L 753.94,181.39 L 755.41,182.15 L 754.20,186.59 L 750.37,188.86 L 747.33,187.80 L 745.65,189.12 L 743.84,185.40 L 739.69,182.20 L 741.28,171.85 L 742.90,172.91 L 743.98,172.93 L 742.62,172.54 L 743.75,170.00 L 740.18,168.84 L 739.79,166.50 L 742.30,165.13 L 739.85,158.08 L 737.89,155.63 L 734.68,155.67 L 735.70,148.50 L 738.30,150.69 L 742.98,151.15 L 749.69,148.82 L 758.76,142.72 L 763.02,144.30 L 763.47,146.02 L 766.07,145.36 L 765.01,147.48 L 768.36,147.75 L 764.84,149.21 L 769.72,150.80 L 768.25,151.67 L 771.42,158.33 Z M 796.74,122.05 L 796.38,122.28 L 795.01,121.36 L 796.74,122.05 Z M 785.09,114.73 L 778.23,113.80 L 778.81,112.74 L 785.71,112.09 L 785.09,114.73 Z M 772.35,108.62 L 771.44,108.95 L 771.57,107.82 L 772.35,108.62 Z M 764.19,144.33 L 763.95,144.46 L 763.34,144.20 L 764.18,143.23 L 764.19,144.33 Z M 762.42,143.72 L 761.92,143.35 L 762.84,142.72 L 762.42,143.72 Z M 782.88,121.86 L 782.82,122.18 L 782.40,122.10 L 782.88,121.86 Z M 777.76,117.37 L 776.97,117.19 L 777.62,116.57 L 777.76,117.37 Z" fill="#E8E0D0" stroke="#B8B0A0" stroke-width="0.5"/>
<path d="M 784.06,38.05 L 786.06,38.99 L 785.72,40.65 L 780.13,38.93 L 776.58,40.74 L 776.44,42.42 L 778.98,43.26 L 778.48,46.58 L 776.81,46.79 L 774.04,43.87 L 765.55,45.28 L 763.29,41.41 L 759.48,41.67 L 758.63,46.58 L 753.68,50.30 L 755.03,53.01 L 753.69,54.52 L 751.41,54.41 L 750.76,52.08 L 748.47,51.38 L 749.39,49.32 L 741.14,46.50 L 740.28,42.31 L 733.35,45.80 L 733.87,48.60 L 727.66,52.71 L 721.21,51.36 L 710.67,53.18 L 704.17,48.45 L 704.45,43.04 L 700.60,42.23 L 693.66,43.42 L 691.72,44.95 L 693.21,46.41 L 686.04,48.53 L 686.04,46.95 L 688.95,46.29 L 689.99,44.10 L 688.16,42.94 L 689.59,39.77 L 696.50,36.34 L 696.80,32.79 L 701.75,31.30 L 709.99,25.33 L 706.22,24.85 L 708.59,22.24 L 713.20,22.26 L 714.47,23.64 L 723.34,20.20 L 724.37,21.18 L 743.87,20.30 L 744.90,19.01 L 740.10,18.83 L 743.81,16.21 L 751.00,19.01 L 759.70,19.13 L 768.09,22.96 L 764.46,27.64 L 764.23,30.47 L 772.70,31.41 L 773.08,33.11 L 778.33,34.67 L 784.28,31.79 L 785.94,34.33 L 784.06,38.05 Z" fill="#E8E0D0" stroke="#B8B0A0" stroke-width="0.5"/>
<path d="M 767.32,29.64 L 766.55,30.61 L 764.23,30.47 L 765.21,26.62 L 767.32,29.64 Z" fill="#E8E0D0" stroke="#B8B0A0" stroke-width="0.5"/>
<path d="M 407.08,457.49 L 446.45,457.48 L 521.33,500.00 L 412.67,500.00 L 407.08,457.49 Z" fill="#E8E0D0" stroke="#B8B0A0" stroke-width="0.5"/>
<path d="M 718.17,95.21 L 717.31,95.12 L 718.23,94.33 L 718.17,95.21 Z" fill="#E8E0D0" stroke="#B8B0A0" stroke-width="0.5"/>
<path d="M 360.65,413.16 L 360.73,385.93 L 384.27,372.45 L 390.27,372.57 L 394.77,370.13 L 402.85,371.35 L 411.08,369.05 L 425.68,368.10 L 426.46,369.86 L 430.50,369.86 L 438.57,361.07 L 456.43,350.79 L 472.59,346.87 L 472.28,344.44 L 474.61,342.14 L 470.68,337.88 L 468.20,337.99 L 468.82,334.76 L 471.97,333.76 L 472.28,328.75 L 490.76,325.91 L 488.30,321.00 L 489.58,320.46 L 497.69,319.38 L 526.71,320.20 L 527.04,319.11 L 524.51,318.70 L 525.96,315.03 L 530.67,312.37 L 521.98,307.57 L 518.97,303.87 L 520.28,301.42 L 516.40,297.99 L 517.66,291.86 L 514.79,289.00 L 516.50,281.71 L 513.39,276.03 L 515.76,273.96 L 512.02,271.70 L 514.28,268.90 L 504.85,263.82 L 504.21,262.16 L 514.47,261.38 L 524.83,256.84 L 530.65,250.68 L 535.79,248.92 L 539.69,249.90 L 542.95,246.67 L 551.76,248.52 L 561.22,240.56 L 583.54,234.00 L 605.87,232.19 L 611.41,233.00 L 618.80,228.90 L 623.40,230.19 L 625.34,228.83 L 630.96,229.50 L 639.71,226.80 L 660.00,227.22 L 671.50,232.10 L 681.04,228.44 L 691.34,227.08 L 696.20,223.40 L 708.04,227.32 L 714.36,225.84 L 714.13,223.46 L 726.93,225.32 L 726.37,227.32 L 729.37,228.11 L 736.59,226.01 L 744.80,226.36 L 745.67,228.36 L 740.59,229.38 L 740.97,231.72 L 735.18,234.37 L 739.36,236.22 L 736.77,247.88 L 738.90,253.48 L 737.95,257.60 L 740.99,259.21 L 738.08,262.58 L 736.66,270.71 L 727.66,275.22 L 726.19,278.51 L 720.68,281.40 L 719.85,285.29 L 725.30,298.11 L 733.34,300.77 L 737.69,305.76 L 738.77,311.73 L 754.63,320.55 L 765.18,356.21 L 760.00,358.37 L 768.47,368.21 L 771.99,377.50 L 770.90,394.16 L 774.40,402.67 L 769.66,413.03 L 773.78,421.44 L 773.55,425.40 L 772.21,428.27 L 764.36,431.21 L 762.03,434.76 L 776.03,450.97 L 776.57,460.16 L 780.15,462.22 L 781.24,465.21 L 784.98,467.57 L 791.39,465.97 L 800.00,468.27 L 800.00,496.13 L 792.47,500.00 L 521.33,500.00 L 446.45,457.48 L 360.65,413.16 Z" fill="#E8E0D0" stroke="#B8B0A0" stroke-width="0.5"/>
<path d="M 800.00,496.13 L 800.00,500.00 L 792.47,500.00 L 800.00,496.13 Z" fill="#E8E0D0" stroke="#B8B0A0" stroke-width="0.5"/>
<path d="M 446.45,457.48 L 407.08,457.49 L 412.67,500.00 L 261.35,500.00 L 261.30,499.56 L 264.35,495.73 L 273.15,490.84 L 286.48,487.16 L 286.57,438.13 L 360.53,438.03 L 360.65,413.16 L 446.45,457.48 Z" fill="#E8E0D0" stroke="#B8B0A0" stroke-width="0.5"/>
<path d="M 587.13,120.16 L 584.87,118.21 L 587.90,115.89 L 591.88,116.65 L 591.55,118.72 L 587.13,120.16 Z" fill="#C8D8E8" stroke="#8BAABB" stroke-width="0.8"/>
<path d="M 434.96,241.81 L 434.88,242.41 L 434.70,242.24 L 434.96,241.81 Z" fill="#C8D8E8" stroke="#8BAABB" stroke-width="0.8"/>
<path d="M 392.03,191.58 L 390.05,197.21 L 395.74,202.49 L 399.20,202.04 L 397.50,205.41 L 391.98,206.29 L 386.26,214.22 L 388.98,222.00 L 379.82,225.22 L 362.92,222.80 L 353.63,224.78 L 359.09,211.05 L 357.84,211.21 L 357.92,207.74 L 355.92,206.76 L 358.60,202.23 L 358.14,198.90 L 354.86,196.53 L 358.06,197.60 L 362.33,197.74 L 359.45,197.10 L 358.62,194.91 L 358.29,196.53 L 355.68,195.93 L 348.46,197.74 L 349.50,195.17 L 347.97,192.97 L 351.19,193.10 L 354.86,190.84 L 353.33,188.17 L 358.81,184.61 L 355.01,185.71 L 351.36,189.78 L 351.09,192.03 L 343.10,192.25 L 342.53,190.18 L 345.79,182.68 L 344.49,179.24 L 348.75,178.64 L 351.58,175.29 L 356.52,164.73 L 358.37,164.85 L 355.62,163.27 L 359.08,154.75 L 363.08,152.53 L 360.96,152.69 L 360.62,152.00 L 361.46,151.21 L 361.25,150.80 L 359.13,154.51 L 361.40,144.84 L 359.43,142.97 L 357.35,134.81 L 360.34,133.83 L 356.25,133.54 L 356.53,131.18 L 361.88,127.46 L 370.87,125.48 L 371.28,127.11 L 373.70,127.66 L 370.66,130.66 L 373.73,132.19 L 377.90,130.12 L 378.11,131.20 L 381.99,130.40 L 388.20,132.21 L 393.18,130.79 L 394.49,128.73 L 406.72,129.18 L 408.61,131.02 L 408.23,135.05 L 415.68,136.77 L 413.12,139.85 L 405.89,142.62 L 402.38,146.55 L 399.31,147.49 L 402.12,150.57 L 401.21,158.59 L 402.61,160.25 L 397.08,163.64 L 400.71,166.97 L 397.57,173.07 L 385.65,173.34 L 391.07,177.65 L 392.61,182.71 L 398.35,185.21 L 395.71,189.84 L 392.03,191.58 Z M 186.08,311.14 L 185.96,310.71 L 186.75,311.41 L 187.19,312.42 L 186.08,311.14 Z M 176.31,309.42 L 170.19,306.18 L 171.68,305.02 L 183.06,307.26 L 176.31,309.42 Z M 189.16,301.82 L 191.59,300.49 L 191.89,301.42 L 189.16,301.82 Z M 378.92,225.19 L 379.07,225.45 L 377.95,225.85 L 376.80,225.57 L 378.92,225.19 Z M 197.50,360.01 L 197.50,360.07 L 197.41,360.06 L 197.50,360.01 Z M 201.23,357.79 L 201.13,358.06 L 200.80,357.97 L 201.23,357.79 Z M 352.67,189.42 L 351.82,189.98 L 352.22,189.36 L 352.67,189.42 Z" fill="#C8D8E8" stroke="#8BAABB" stroke-width="0.8"/>
<path d="M 358.17,416.36 L 344.43,416.98 L 335.43,421.59 L 330.66,420.42 L 325.80,421.38 L 314.54,418.30 L 300.44,420.95 L 301.65,425.79 L 293.20,436.03 L 285.58,438.22 L 277.35,460.67 L 264.91,467.64 L 257.80,477.10 L 244.91,482.72 L 240.24,494.15 L 239.22,500.00 L 190.81,500.00 L 191.58,498.02 L 194.39,496.21 L 193.28,494.25 L 203.07,480.83 L 203.01,478.43 L 198.13,483.60 L 199.36,481.09 L 222.56,463.07 L 224.26,450.99 L 231.04,439.25 L 232.10,434.27 L 252.22,423.54 L 260.88,405.43 L 265.75,400.71 L 285.55,397.61 L 298.35,393.03 L 307.74,384.78 L 318.61,380.17 L 325.84,374.19 L 339.03,358.18 L 339.99,352.81 L 333.84,348.09 L 335.52,344.63 L 334.75,333.50 L 347.41,318.13 L 347.81,310.78 L 364.05,297.39 L 386.28,290.35 L 401.99,282.47 L 413.77,266.20 L 421.88,248.79 L 433.62,246.00 L 436.94,252.58 L 441.01,255.81 L 447.59,259.23 L 456.35,260.95 L 466.50,258.73 L 469.43,259.84 L 471.39,258.26 L 479.84,259.99 L 485.22,258.32 L 487.63,255.25 L 490.13,261.35 L 492.53,261.65 L 489.64,259.13 L 494.34,261.80 L 503.04,261.77 L 514.28,268.90 L 512.02,271.70 L 515.76,273.96 L 513.39,276.03 L 516.50,281.71 L 514.79,289.00 L 517.66,291.86 L 516.40,297.99 L 520.28,301.42 L 518.97,303.87 L 521.98,307.57 L 530.67,312.37 L 525.96,315.03 L 524.51,318.70 L 527.04,319.11 L 526.71,320.20 L 497.69,319.38 L 489.58,320.46 L 488.30,321.00 L 490.76,325.91 L 472.28,328.75 L 471.97,333.76 L 468.82,334.76 L 468.20,337.99 L 470.68,337.88 L 474.61,342.14 L 472.28,344.44 L 472.59,346.87 L 456.43,350.79 L 438.57,361.07 L 430.50,369.86 L 426.46,369.86 L 425.68,368.10 L 414.19,368.78 L 402.85,371.35 L 394.77,370.13 L 390.27,372.57 L 383.51,372.71 L 360.97,385.56 L 360.65,405.88 L 357.65,405.88 L 358.17,416.36 Z" fill="#C8D8E8" stroke="#8BAABB" stroke-width="0.8"/>
<path d="M 434.08,246.83 L 433.62,246.00 L 436.19,246.25 L 434.08,246.83 Z M 488.67,258.32 L 488.87,258.53 L 487.74,258.35 L 488.67,258.32 Z M 514.77,103.47 L 522.42,104.39 L 521.22,108.23 L 525.03,106.99 L 528.05,108.99 L 536.73,110.14 L 540.96,113.50 L 546.44,112.15 L 552.74,115.19 L 557.37,114.39 L 559.73,115.51 L 568.21,115.14 L 568.20,112.23 L 571.68,112.36 L 583.45,114.74 L 585.79,120.04 L 591.55,118.72 L 598.26,121.74 L 604.22,120.16 L 609.50,122.15 L 618.81,119.35 L 624.31,120.10 L 624.45,121.69 L 627.34,122.20 L 622.92,124.23 L 625.44,129.50 L 618.79,134.01 L 604.00,139.12 L 600.96,141.92 L 576.22,146.80 L 569.48,151.38 L 572.68,153.87 L 568.66,156.21 L 566.78,155.89 L 569.89,154.89 L 566.13,155.73 L 546.42,176.51 L 550.10,186.46 L 558.82,191.48 L 542.28,199.30 L 542.41,201.84 L 539.75,202.70 L 536.70,209.79 L 534.58,210.83 L 537.93,213.21 L 524.19,214.32 L 516.47,218.17 L 513.32,221.19 L 511.37,226.33 L 506.34,230.29 L 501.12,228.35 L 496.70,228.70 L 493.20,231.35 L 488.42,230.00 L 455.75,230.54 L 450.06,234.72 L 438.34,236.59 L 434.96,241.81 L 433.03,241.07 L 432.74,243.33 L 428.89,244.42 L 419.44,240.88 L 413.37,234.21 L 415.12,235.40 L 416.28,234.61 L 411.49,232.22 L 410.63,230.01 L 412.58,229.16 L 412.74,227.44 L 415.30,227.08 L 415.93,226.51 L 412.60,227.10 L 411.64,228.91 L 409.16,225.98 L 400.42,221.97 L 401.31,219.48 L 398.87,220.67 L 399.63,221.86 L 388.83,221.46 L 386.61,213.56 L 391.98,206.29 L 397.50,205.41 L 399.20,202.04 L 395.74,202.49 L 390.05,197.21 L 392.03,191.58 L 396.79,189.30 L 398.63,186.23 L 392.30,182.41 L 391.07,177.65 L 385.65,173.34 L 397.57,173.07 L 400.71,166.97 L 397.08,163.64 L 402.61,160.25 L 401.21,158.59 L 402.12,150.57 L 399.31,147.49 L 402.38,146.55 L 405.89,142.62 L 413.12,139.85 L 415.68,136.77 L 408.23,135.05 L 408.61,131.02 L 406.72,129.18 L 394.81,128.69 L 393.18,130.79 L 388.20,132.21 L 381.99,130.40 L 378.11,131.20 L 377.90,130.12 L 371.82,132.11 L 370.70,130.30 L 373.70,127.66 L 371.28,127.11 L 370.87,125.48 L 361.88,127.46 L 356.23,130.52 L 355.91,126.15 L 357.44,125.93 L 361.97,121.73 L 356.53,123.49 L 361.25,119.91 L 357.06,120.64 L 354.86,119.37 L 357.44,119.51 L 359.57,115.13 L 353.00,117.94 L 352.92,114.76 L 356.08,112.37 L 351.36,113.79 L 350.60,110.70 L 347.52,111.17 L 347.37,108.04 L 351.19,106.37 L 348.75,106.10 L 355.09,104.55 L 353.85,103.63 L 357.37,102.50 L 360.41,103.43 L 368.46,101.25 L 371.14,103.04 L 371.91,101.05 L 369.03,100.37 L 372.07,99.58 L 368.41,99.98 L 368.86,98.13 L 377.84,94.27 L 378.96,96.17 L 382.80,93.75 L 382.67,95.03 L 389.88,95.94 L 392.01,98.24 L 397.05,98.28 L 397.05,99.83 L 399.28,98.15 L 418.72,98.08 L 423.55,96.27 L 427.43,98.24 L 433.73,98.36 L 433.29,99.30 L 454.01,101.68 L 468.56,99.49 L 469.84,99.83 L 468.91,100.87 L 474.06,99.07 L 477.35,100.07 L 476.69,101.12 L 486.75,102.89 L 488.12,100.77 L 492.08,100.35 L 493.80,101.99 L 506.32,103.54 L 513.74,101.63 L 514.77,103.47 Z M 596.89,119.72 L 597.09,119.13 L 598.05,119.86 L 596.89,119.72 Z M 156.25,402.92 L 154.02,406.25 L 150.00,404.71 L 155.03,402.20 L 156.25,402.92 Z M 211.84,402.19 L 207.39,404.47 L 201.99,400.85 L 204.54,396.09 L 211.14,395.86 L 211.84,402.19 Z M 171.06,395.36 L 173.60,397.38 L 170.06,398.86 L 168.16,397.44 L 168.91,395.33 L 171.06,395.36 Z M 185.88,398.87 L 182.62,399.34 L 177.65,392.47 L 186.74,391.13 L 190.98,388.26 L 195.40,388.26 L 190.11,391.96 L 185.88,398.87 Z M 246.37,386.14 L 243.94,394.61 L 234.84,398.35 L 231.19,397.96 L 237.48,395.10 L 243.07,385.09 L 246.37,386.14 Z M 159.76,385.20 L 157.19,390.52 L 153.64,384.24 L 155.54,382.78 L 158.99,383.50 L 159.76,385.20 Z M 255.40,375.94 L 253.97,380.00 L 247.47,383.09 L 245.41,382.60 L 246.94,379.05 L 252.75,377.31 L 253.95,375.34 L 255.40,375.94 Z M 253.75,375.29 L 252.66,375.55 L 253.39,374.38 L 253.75,375.29 Z M 537.16,211.60 L 537.46,212.32 L 537.01,211.96 L 536.84,210.21 L 537.16,211.60 Z M 588.76,193.21 L 584.35,193.42 L 585.42,191.24 L 588.76,193.21 Z M 589.68,185.93 L 584.79,189.74 L 580.65,188.72 L 583.76,185.00 L 589.30,184.73 L 589.68,185.93 Z M 630.83,171.99 L 630.37,173.73 L 625.90,179.03 L 621.63,181.29 L 619.37,179.47 L 615.54,179.22 L 613.21,175.69 L 609.01,177.40 L 605.85,175.34 L 616.13,169.61 L 624.27,167.75 L 622.44,168.82 L 624.88,169.22 L 623.32,171.24 L 630.83,171.99 Z M 650.00,169.72 L 648.02,170.70 L 638.74,168.39 L 638.13,166.80 L 644.84,165.61 L 650.00,169.72 Z M 619.44,184.25 L 618.36,183.56 L 619.85,182.91 L 619.44,184.25 Z M 458.07,260.55 L 458.11,260.56 L 458.00,260.55 L 458.07,260.55 Z M 466.88,259.71 L 466.89,259.72 L 466.88,259.74 L 466.88,259.71 Z M 466.93,259.68 L 466.94,259.69 L 466.90,259.69 L 466.93,259.68 Z M 499.62,260.29 L 499.68,260.37 L 499.57,260.43 L 499.62,260.29 Z M 433.24,246.22 L 433.20,246.27 L 433.13,246.20 L 433.24,246.22 Z" fill="#4A90D9" stroke="#1a5fa8" stroke-width="1.2"/>
<path d="M 707.75,42.87 L 693.51,43.82 L 689.92,47.10 L 694.39,42.13 L 700.24,40.95 L 707.75,42.87 Z" fill="#A8C8E8" stroke="none"/>
<path d="M 764.62,22.26 L 754.35,15.83 L 760.80,18.52 L 769.60,21.13 L 764.62,22.26 Z" fill="#A8C8E8" stroke="none"/>
<path d="M 756.47,18.73 L 753.99,18.57 L 752.40,19.04 L 750.99,19.00 L 753.74,18.08 L 752.51,17.27 L 756.47,18.73 Z" fill="#A8C8E8" stroke="none"/>
<path d="M 436.33,171.35 L 424.69,171.48 L 420.36,170.02 L 428.21,171.05 L 434.06,168.96 L 435.86,170.96 L 437.56,170.69 L 436.33,171.35 Z" fill="#A8C8E8" stroke="none"/>
<path d="M 744.92,52.83 L 744.61,56.28 L 742.36,52.26 L 745.09,51.93 L 750.21,47.78 L 744.92,52.83 Z" fill="#A8C8E8" stroke="none"/>
<path d="M 791.66,57.79 L 791.43,61.71 L 787.23,60.76 L 788.61,59.78 L 787.53,58.64 L 794.86,53.08 L 791.66,57.79 Z" fill="#A8C8E8" stroke="none"/>
<path d="M 496.34,153.14 L 493.07,157.43 L 493.27,155.32 L 496.34,153.14 Z" fill="#A8C8E8" stroke="none"/>
<path d="M 441.96,179.53 L 442.43,179.59 L 441.04,181.21 L 441.96,179.53 Z" fill="#A8C8E8" stroke="none"/>
<path d="M 438.85,182.33 L 438.47,183.42 L 438.93,181.03 L 441.04,181.21 L 438.85,182.33 Z" fill="#A8C8E8" stroke="none"/>
<path d="M 441.37,178.37 L 443.45,178.28 L 445.94,178.90 L 443.38,178.72 L 447.60,181.69 L 441.37,178.37 Z" fill="#A8C8E8" stroke="none"/>
<path d="M 494.29,158.59 L 494.20,160.88 L 491.93,159.29 L 494.67,158.03 L 498.11,158.69 L 494.29,158.59 Z" fill="#A8C8E8" stroke="none"/>
</svg>