<svg xmlns="http://www.w3.org/2000/svg" width="800" height="500" viewBox="0 0 800 500">
<rect width="800" height="500" fill="#A8C8E8"/>
<path d="M 631.27,0.46 L 630.33,5.75 L 627.74,9.85 L 628.30,12.91 L 626.58,18.02 L 627.75,20.40 L 624.49,23.37 L 618.12,22.24 L 616.45,24.85 L 619.12,25.33 L 613.29,31.30 L 609.79,32.79 L 609.57,36.34 L 604.69,39.77 L 603.68,42.94 L 604.95,43.89 L 604.31,46.16 L 602.12,47.19 L 602.19,48.53 L 605.04,48.15 L 607.25,46.41 L 606.20,44.95 L 607.06,43.80 L 610.42,42.38 L 615.20,43.04 L 614.62,44.37 L 615.83,45.84 L 614.86,48.12 L 618.89,52.50 L 615.41,54.41 L 615.34,56.51 L 621.07,62.45 L 619.41,66.27 L 612.30,68.40 L 614.54,72.19 L 618.65,73.85 L 619.41,76.50 L 617.91,76.53 L 615.96,79.42 L 617.25,81.31 L 616.44,82.55 L 618.27,85.08 L 623.74,87.33 L 628.84,86.35 L 629.38,88.45 L 626.05,92.36 L 626.03,94.31 L 620.92,96.43 L 620.72,98.38 L 617.95,98.65 L 616.88,100.83 L 614.32,101.21 L 612.11,103.90 L 613.72,103.82 L 613.51,105.20 L 608.73,107.34 L 605.87,107.00 L 605.66,108.41 L 601.90,106.51 L 600.58,108.23 L 597.71,105.62 L 592.57,104.92 L 591.74,102.22 L 587.66,102.61 L 587.53,101.18 L 590.68,99.81 L 587.58,98.29 L 587.93,100.80 L 585.05,100.95 L 584.86,102.49 L 583.32,100.93 L 583.08,98.95 L 582.33,97.90 L 583.08,100.93 L 584.30,102.40 L 570.68,98.65 L 557.50,107.05 L 556.36,116.28 L 558.55,120.10 L 554.66,119.35 L 550.40,121.89 L 544.35,120.16 L 539.93,121.70 L 535.47,118.90 L 535.63,116.65 L 531.03,116.93 L 529.67,114.74 L 521.35,112.36 L 518.89,112.23 L 518.69,115.21 L 507.97,115.19 L 503.51,112.15 L 499.64,113.50 L 496.64,110.14 L 490.51,108.99 L 488.37,106.99 L 485.69,108.23 L 486.53,104.39 L 483.10,104.32 L 480.36,101.86 L 482.48,101.37 L 485.38,97.88 L 488.83,78.99 L 489.94,76.88 L 492.16,76.80 L 490.16,74.69 L 488.78,77.61 L 491.53,59.39 L 496.54,64.10 L 497.33,67.80 L 500.18,72.44 L 499.21,69.93 L 500.82,70.44 L 498.27,68.49 L 496.08,61.17 L 488.98,56.67 L 490.29,54.80 L 493.07,56.52 L 490.48,53.61 L 492.10,50.31 L 489.56,47.68 L 491.13,45.20 L 489.10,45.56 L 480.37,41.49 L 478.57,37.67 L 475.29,35.19 L 477.30,31.02 L 473.37,28.95 L 474.56,28.46 L 474.64,26.46 L 481.45,27.63 L 477.00,25.52 L 472.79,26.94 L 468.64,25.90 L 470.31,25.77 L 468.42,24.29 L 471.00,23.51 L 469.39,22.20 L 471.44,21.91 L 467.23,21.65 L 467.74,21.47 L 468.10,20.99 L 464.32,22.05 L 462.87,20.90 L 465.51,21.04 L 466.34,20.01 L 466.41,19.65 L 466.06,19.27 L 462.71,20.18 L 461.85,18.86 L 462.39,20.86 L 459.51,20.12 L 459.38,22.45 L 458.30,19.33 L 459.59,17.54 L 458.41,17.27 L 457.93,19.01 L 455.82,18.21 L 457.01,18.33 L 455.82,17.95 L 457.01,16.47 L 454.44,18.07 L 443.66,13.83 L 442.83,15.97 L 439.90,16.09 L 438.91,12.83 L 434.30,11.57 L 441.26,10.13 L 439.78,7.86 L 436.98,8.93 L 435.90,6.80 L 437.15,5.65 L 437.64,6.63 L 441.51,6.78 L 442.79,6.41 L 438.61,5.87 L 441.19,4.01 L 433.67,5.68 L 433.73,2.29 L 436.89,0.18 L 437.70,0.00 L 447.90,0.00 L 448.07,0.18 L 448.13,0.00 L 464.31,0.00 L 466.44,2.51 L 470.38,0.00 L 472.00,0.00 L 471.97,0.18 L 473.80,1.10 L 475.91,0.00 L 476.43,0.00 L 477.47,2.42 L 476.73,0.00 L 480.19,0.00 L 480.36,0.44 L 486.12,0.00 L 631.69,0.00 L 631.27,0.46 Z M 539.99,119.86 L 539.31,119.13 L 539.17,119.72 L 539.99,119.86 Z M 657.53,116.45 L 657.45,116.47 L 657.13,115.92 L 657.53,116.45 Z M 645.06,123.17 L 642.88,121.15 L 644.61,120.13 L 645.39,117.24 L 651.81,114.29 L 654.55,115.40 L 655.41,109.03 L 657.25,109.29 L 656.92,116.06 L 658.26,117.55 L 658.75,125.62 L 656.29,129.36 L 656.27,134.13 L 654.55,135.68 L 655.47,136.55 L 653.27,139.13 L 653.47,140.59 L 646.69,136.94 L 648.75,134.36 L 644.54,133.29 L 646.90,130.25 L 643.90,130.37 L 643.46,129.05 L 645.95,127.36 L 643.14,124.42 L 645.06,123.17 Z M 489.58,54.65 L 486.51,50.03 L 488.98,51.02 L 489.58,54.65 Z M 484.95,47.04 L 484.14,46.18 L 488.03,47.05 L 488.45,48.03 L 484.95,47.04 Z M 472.47,37.12 L 472.93,37.56 L 471.14,37.07 L 472.47,37.12 Z M 474.92,33.45 L 472.51,31.06 L 474.02,31.24 L 474.92,33.45 Z M 460.40,25.86 L 457.94,25.67 L 457.33,24.29 L 460.40,25.86 Z M 428.65,3.71 L 427.94,3.49 L 428.59,3.06 L 428.65,3.71 Z M 606.79,109.05 L 605.44,109.11 L 605.58,108.93 L 606.79,109.05 Z" fill="#E8E0D0" stroke="#B8B0A0" stroke-width="0.5"/>
<path d="M 372.18,405.88 L 372.10,438.03 L 319.83,438.13 L 319.76,487.16 L 310.34,490.84 L 304.12,495.73 L 301.96,499.56 L 302.00,500.00 L 286.35,500.00 L 287.08,494.15 L 290.37,482.72 L 299.49,477.10 L 304.51,467.64 L 313.31,460.67 L 319.12,438.22 L 324.51,436.03 L 330.48,425.79 L 329.62,420.95 L 339.60,418.30 L 347.55,421.38 L 350.99,420.42 L 354.36,421.59 L 360.72,416.98 L 370.43,416.36 L 370.07,405.88 L 372.18,405.88 Z" fill="#E8E0D0" stroke="#B8B0A0" stroke-width="0.5"/>
<path d="M 681.06,24.15 L 679.16,21.44 L 672.41,20.54 L 672.40,24.04 L 668.18,26.46 L 668.96,24.50 L 666.97,24.76 L 664.82,21.24 L 662.25,20.32 L 659.58,21.61 L 652.84,18.74 L 648.10,19.01 L 643.02,16.21 L 640.40,18.83 L 643.79,19.01 L 643.27,20.24 L 637.91,19.67 L 634.92,20.86 L 628.12,20.78 L 628.90,20.16 L 627.75,20.40 L 626.58,18.02 L 628.30,12.91 L 627.64,10.14 L 630.33,5.75 L 631.27,0.46 L 631.69,0.00 L 682.73,0.00 L 682.73,24.12 L 681.06,24.15 Z" fill="#E8E0D0" stroke="#B8B0A0" stroke-width="0.5"/>
<path d="M 676.99,466.04 L 672.12,467.57 L 669.76,465.57 L 668.71,462.22 L 666.17,460.16 L 665.79,450.97 L 655.90,434.76 L 657.54,431.21 L 663.38,427.88 L 664.26,421.72 L 661.30,412.71 L 664.66,401.91 L 662.17,394.16 L 662.94,377.50 L 660.45,368.21 L 654.46,358.37 L 663.65,353.76 L 668.69,346.49 L 669.91,342.92 L 667.34,332.98 L 669.82,328.12 L 673.51,326.89 L 675.19,322.84 L 677.81,321.85 L 679.39,319.29 L 682.73,317.47 L 682.73,468.18 L 676.99,466.04 Z" fill="#E8E0D0" stroke="#B8B0A0" stroke-width="0.5"/>
<path d="M 679.39,319.29 L 677.81,321.85 L 675.19,322.84 L 673.51,326.89 L 669.82,328.12 L 667.34,332.98 L 669.66,344.35 L 663.65,353.76 L 658.12,356.21 L 650.67,320.55 L 639.45,311.73 L 638.69,305.76 L 635.61,300.77 L 629.93,298.11 L 629.43,293.80 L 626.16,286.05 L 626.67,281.40 L 630.56,278.51 L 631.60,275.22 L 637.97,270.71 L 638.97,262.58 L 641.03,259.21 L 638.88,257.60 L 639.55,253.48 L 638.04,247.88 L 639.87,236.22 L 636.92,234.37 L 641.01,231.72 L 640.74,229.38 L 644.33,228.36 L 643.72,226.36 L 647.20,225.59 L 653.27,220.67 L 661.66,218.52 L 663.45,218.83 L 662.08,221.07 L 662.78,222.26 L 664.32,221.74 L 662.84,220.79 L 663.82,220.09 L 669.94,221.74 L 667.68,222.12 L 669.24,222.92 L 668.53,224.67 L 671.12,227.51 L 668.63,229.11 L 671.25,230.40 L 673.82,229.92 L 674.86,227.59 L 682.18,223.64 L 682.73,225.58 L 682.73,229.06 L 678.24,235.80 L 674.32,237.24 L 673.13,242.37 L 675.44,247.59 L 682.02,251.55 L 682.04,257.42 L 682.73,258.27 L 682.73,261.35 L 675.05,272.70 L 667.66,276.94 L 665.75,279.94 L 666.79,284.28 L 670.86,288.99 L 673.36,290.07 L 676.93,288.91 L 676.26,292.03 L 677.26,293.34 L 679.96,292.15 L 680.38,290.28 L 682.05,290.63 L 682.73,294.24 L 682.73,317.47 L 679.39,319.29 Z M 682.33,287.10 L 679.62,290.20 L 678.65,288.47 L 677.30,288.75 L 677.23,285.47 L 682.33,287.10 Z M 681.18,270.24 L 682.73,270.43 L 682.73,270.81 L 682.25,271.23 L 681.18,270.24 Z" fill="#E8E0D0" stroke="#B8B0A0" stroke-width="0.5"/>
<path d="M 681.33,36.17 L 673.31,34.68 L 671.54,31.78 L 667.42,34.67 L 663.71,33.11 L 663.44,31.41 L 659.09,30.61 L 658.15,26.62 L 660.16,23.78 L 658.56,21.36 L 662.25,20.32 L 666.02,22.27 L 666.97,24.76 L 668.96,24.50 L 668.18,26.46 L 672.40,24.04 L 672.41,20.54 L 679.16,21.44 L 681.06,24.15 L 682.73,24.12 L 682.73,34.28 L 681.33,36.17 Z" fill="#E8E0D0" stroke="#B8B0A0" stroke-width="0.5"/>
<path d="M 620.95,53.44 L 627.04,51.36 L 631.80,52.62 L 635.99,48.60 L 635.62,45.80 L 640.52,42.31 L 641.13,46.50 L 646.96,49.32 L 646.31,51.38 L 647.93,52.08 L 648.39,54.41 L 650.00,54.52 L 650.95,53.01 L 649.99,50.30 L 653.49,46.58 L 654.39,41.43 L 656.79,41.41 L 658.39,45.28 L 664.39,43.87 L 666.86,46.80 L 668.17,45.98 L 667.11,44.69 L 667.88,43.26 L 666.08,42.42 L 666.18,40.74 L 668.69,38.93 L 672.64,40.65 L 672.88,38.99 L 671.47,38.05 L 672.80,34.33 L 681.33,36.17 L 682.73,34.28 L 682.73,116.38 L 680.49,114.08 L 677.16,112.89 L 677.66,110.68 L 673.52,110.25 L 673.97,104.33 L 670.65,99.57 L 669.62,92.72 L 667.09,89.26 L 663.23,87.65 L 663.03,88.93 L 653.58,82.91 L 653.27,83.85 L 646.23,81.39 L 641.57,83.87 L 635.31,91.75 L 626.43,93.77 L 626.05,92.36 L 629.38,88.45 L 628.84,86.35 L 623.89,87.36 L 618.12,84.93 L 615.96,79.42 L 617.91,76.53 L 619.41,76.50 L 618.62,73.73 L 614.54,72.19 L 612.30,68.40 L 620.24,65.39 L 621.07,62.45 L 618.27,60.52 L 617.97,58.01 L 615.12,55.36 L 618.89,52.50 L 620.95,53.44 Z M 641.85,185.15 L 640.69,187.24 L 639.69,184.61 L 641.85,185.15 Z M 639.06,184.47 L 638.25,184.42 L 637.86,183.15 L 639.06,182.76 L 639.06,184.47 Z M 638.12,147.92 L 637.54,147.88 L 639.37,145.36 L 638.12,147.92 Z M 662.53,158.33 L 659.80,162.06 L 661.46,165.52 L 658.86,183.61 L 658.11,184.47 L 650.18,181.39 L 651.21,182.15 L 650.36,186.59 L 647.66,188.86 L 645.51,187.80 L 644.32,189.12 L 643.04,185.40 L 640.11,182.20 L 641.23,171.85 L 642.37,172.91 L 643.14,172.93 L 642.17,172.54 L 642.97,170.00 L 640.45,168.84 L 640.18,166.50 L 641.95,165.13 L 640.22,158.08 L 638.83,155.63 L 636.57,155.67 L 637.28,148.50 L 639.12,150.69 L 642.43,151.15 L 647.17,148.82 L 653.58,142.72 L 656.60,144.30 L 656.92,146.02 L 658.75,145.36 L 658.00,147.48 L 660.37,147.75 L 657.88,149.21 L 661.33,150.80 L 660.30,151.67 L 662.53,158.33 Z M 680.43,122.05 L 680.17,122.28 L 679.21,121.36 L 680.43,122.05 Z M 672.20,114.73 L 667.35,113.80 L 667.76,112.74 L 672.63,112.09 L 672.20,114.73 Z M 663.19,108.62 L 662.55,108.95 L 662.64,107.82 L 663.19,108.62 Z M 657.42,144.33 L 657.25,144.46 L 656.83,144.20 L 657.42,143.23 L 657.42,144.33 Z M 656.17,143.72 L 655.82,143.35 L 656.47,142.72 L 656.17,143.72 Z M 670.63,121.86 L 670.59,122.18 L 670.29,122.10 L 670.63,121.86 Z M 667.02,117.37 L 666.46,117.19 L 666.92,116.57 L 667.02,117.37 Z" fill="#E8E0D0" stroke="#B8B0A0" stroke-width="0.5"/>
<path d="M 671.47,38.05 L 672.88,38.99 L 672.64,40.65 L 668.69,38.93 L 666.18,40.74 L 666.08,42.42 L 667.88,43.26 L 667.52,46.58 L 666.34,46.79 L 664.39,43.87 L 658.39,45.28 L 656.79,41.41 L 654.09,41.67 L 653.49,46.58 L 649.99,50.30 L 650.95,53.01 L 650.00,54.52 L 648.39,54.41 L 647.93,52.08 L 646.31,51.38 L 646.96,49.32 L 641.13,46.50 L 640.52,42.31 L 635.62,45.80 L 635.99,48.60 L 631.60,52.71 L 627.04,51.36 L 619.59,53.18 L 615.00,48.45 L 615.20,43.04 L 612.47,42.23 L 607.57,43.42 L 606.20,44.95 L 607.25,46.41 L 602.19,48.53 L 602.18,46.95 L 604.24,46.29 L 604.98,44.10 L 603.68,42.94 L 604.69,39.77 L 609.57,36.34 L 609.79,32.79 L 613.29,31.30 L 619.12,25.33 L 616.45,24.85 L 618.12,22.24 L 621.38,22.26 L 622.28,23.64 L 628.55,20.20 L 629.28,21.18 L 643.06,20.30 L 643.79,19.01 L 640.40,18.83 L 643.02,16.21 L 648.10,19.01 L 654.25,19.13 L 660.18,22.96 L 657.62,27.64 L 657.45,30.47 L 663.44,31.41 L 663.71,33.11 L 667.42,34.67 L 671.62,31.79 L 672.80,34.33 L 671.47,38.05 Z" fill="#E8E0D0" stroke="#B8B0A0" stroke-width="0.5"/>
<path d="M 659.63,29.64 L 659.09,30.61 L 657.45,30.47 L 658.15,26.62 L 659.63,29.64 Z" fill="#E8E0D0" stroke="#B8B0A0" stroke-width="0.5"/>
<path d="M 405.00,457.49 L 432.83,457.48 L 485.76,500.00 L 408.96,500.00 L 405.00,457.49 Z" fill="#E8E0D0" stroke="#B8B0A0" stroke-width="0.5"/>
<path d="M 624.89,95.21 L 624.29,95.12 L 624.93,94.33 L 624.89,95.21 Z" fill="#E8E0D0" stroke="#B8B0A0" stroke-width="0.5"/>
<path d="M 372.18,413.16 L 372.24,385.93 L 388.88,372.45 L 393.12,372.57 L 396.30,370.13 L 402.01,371.35 L 407.83,369.05 L 418.15,368.10 L 418.70,369.86 L 421.56,369.86 L 427.26,361.07 L 439.89,350.79 L 451.31,346.87 L 451.09,344.44 L 452.74,342.14 L 449.96,337.88 L 448.21,337.99 L 448.64,334.76 L 450.87,333.76 L 451.09,328.75 L 464.15,325.91 L 462.41,321.00 L 463.32,320.46 L 469.05,319.38 L 489.56,320.20 L 489.79,319.11 L 488.00,318.70 L 489.03,315.03 L 492.36,312.37 L 486.22,307.57 L 484.09,303.87 L 485.02,301.42 L 482.28,297.99 L 483.17,291.86 L 481.14,289.00 L 482.35,281.71 L 480.15,276.03 L 481.82,273.96 L 479.18,271.70 L 480.78,268.90 L 474.11,263.82 L 473.66,262.16 L 480.91,261.38 L 488.24,256.84 L 492.35,250.68 L 495.98,248.92 L 498.74,249.90 L 501.04,246.67 L 507.27,248.52 L 513.95,240.56 L 529.73,234.00 L 545.52,232.19 L 549.43,233.00 L 554.65,228.90 L 557.91,230.19 L 559.28,228.83 L 563.25,229.50 L 569.43,226.80 L 583.78,227.22 L 591.90,232.10 L 598.65,228.44 L 605.93,227.08 L 609.36,223.40 L 617.73,227.32 L 622.20,225.84 L 622.04,223.46 L 631.09,225.32 L 630.69,227.32 L 632.81,228.11 L 637.91,226.01 L 643.72,226.36 L 644.33,228.36 L 640.74,229.38 L 641.01,231.72 L 636.92,234.37 L 639.87,236.22 L 638.04,247.88 L 639.55,253.48 L 638.88,257.60 L 641.03,259.21 L 638.97,262.58 L 637.97,270.71 L 631.60,275.22 L 630.56,278.51 L 626.67,281.40 L 626.08,285.29 L 629.93,298.11 L 635.61,300.77 L 638.69,305.76 L 639.45,311.73 L 650.67,320.55 L 658.12,356.21 L 654.46,358.37 L 660.45,368.21 L 662.94,377.50 L 662.17,394.16 L 664.64,402.67 L 661.29,413.03 L 664.20,421.44 L 664.04,425.40 L 663.09,428.27 L 657.54,431.21 L 655.90,434.76 L 665.79,450.97 L 666.17,460.16 L 668.71,462.22 L 669.47,465.21 L 672.12,467.57 L 676.65,465.97 L 682.73,468.27 L 682.73,496.13 L 677.41,500.00 L 485.76,500.00 L 432.83,457.48 L 372.18,413.16 Z" fill="#E8E0D0" stroke="#B8B0A0" stroke-width="0.5"/>
<path d="M 682.73,496.13 L 682.73,500.00 L 677.41,500.00 L 682.73,496.13 Z" fill="#E8E0D0" stroke="#B8B0A0" stroke-width="0.5"/>
<path d="M 432.83,457.48 L 405.00,457.49 L 408.96,500.00 L 302.00,500.00 L 301.96,499.56 L 304.12,495.73 L 310.34,490.84 L 319.76,487.16 L 319.83,438.13 L 372.10,438.03 L 372.18,413.16 L 432.83,457.48 Z" fill="#E8E0D0" stroke="#B8B0A0" stroke-width="0.5"/>
<path d="M 532.27,120.16 L 530.67,118.21 L 532.82,115.89 L 535.63,116.65 L 535.39,118.72 L 532.27,120.16 Z" fill="#C8D8E8" stroke="#8BAABB" stroke-width="0.8"/>
<path d="M 424.71,241.81 L 424.66,242.41 L 424.53,242.24 L 424.71,241.81 Z" fill="#C8D8E8" stroke="#8BAABB" stroke-width="0.8"/>
<path d="M 394.36,191.58 L 392.97,197.21 L 396.99,202.49 L 399.44,202.04 L 398.24,205.41 L 394.33,206.29 L 390.29,214.22 L 392.21,222.00 L 385.74,225.22 L 373.79,222.80 L 367.23,224.78 L 371.09,211.05 L 370.20,211.21 L 370.26,207.74 L 368.85,206.76 L 370.74,202.23 L 370.41,198.90 L 368.10,196.53 L 370.36,197.60 L 373.37,197.74 L 371.34,197.10 L 370.75,194.91 L 370.52,196.53 L 368.67,195.93 L 363.57,197.74 L 364.31,195.17 L 363.22,192.97 L 365.50,193.10 L 368.10,190.84 L 367.01,188.17 L 370.88,184.61 L 368.20,185.71 L 365.62,189.78 L 365.43,192.03 L 359.78,192.25 L 359.38,190.18 L 361.68,182.68 L 360.76,179.24 L 363.78,178.64 L 365.77,175.29 L 369.26,164.73 L 370.57,164.85 L 368.63,163.27 L 371.07,154.75 L 373.91,152.53 L 372.40,152.69 L 372.16,152.00 L 372.76,151.21 L 372.61,150.80 L 371.11,154.51 L 372.72,144.84 L 371.32,142.97 L 369.86,134.81 L 371.97,133.83 L 369.07,133.54 L 369.28,131.18 L 373.05,127.46 L 379.41,125.48 L 379.70,127.11 L 381.41,127.66 L 379.26,130.66 L 381.43,132.19 L 384.38,130.12 L 384.53,131.20 L 387.27,130.40 L 391.66,132.21 L 395.18,130.79 L 396.10,128.73 L 404.75,129.18 L 406.09,131.02 L 405.81,135.05 L 411.09,136.77 L 409.28,139.85 L 404.16,142.62 L 401.69,146.55 L 399.52,147.49 L 401.50,150.57 L 400.86,158.59 L 401.84,160.25 L 397.93,163.64 L 400.50,166.97 L 398.28,173.07 L 389.86,173.34 L 393.69,177.65 L 394.78,182.71 L 398.84,185.21 L 396.96,189.84 L 394.36,191.58 Z M 248.80,311.14 L 248.71,310.71 L 249.27,311.41 L 249.58,312.42 L 248.80,311.14 Z M 241.88,309.42 L 237.56,306.18 L 238.62,305.02 L 246.66,307.26 L 241.88,309.42 Z M 250.97,301.82 L 252.69,300.49 L 252.90,301.42 L 250.97,301.82 Z M 385.10,225.19 L 385.21,225.45 L 384.41,225.85 L 383.60,225.57 L 385.10,225.19 Z M 256.87,360.01 L 256.87,360.07 L 256.80,360.06 L 256.87,360.01 Z M 259.50,357.79 L 259.43,358.06 L 259.20,357.97 L 259.50,357.79 Z M 366.54,189.42 L 365.94,189.98 L 366.23,189.36 L 366.54,189.42 Z" fill="#C8D8E8" stroke="#8BAABB" stroke-width="0.8"/>
<path d="M 370.43,416.36 L 360.72,416.98 L 354.36,421.59 L 350.99,420.42 L 347.55,421.38 L 339.60,418.30 L 329.62,420.95 L 330.48,425.79 L 324.51,436.03 L 319.12,438.22 L 313.31,460.67 L 304.51,467.64 L 299.49,477.10 L 290.37,482.72 L 287.08,494.15 L 286.35,500.00 L 252.13,500.00 L 252.68,498.02 L 254.66,496.21 L 253.88,494.25 L 260.80,480.83 L 260.76,478.43 L 257.31,483.60 L 258.18,481.09 L 274.58,463.07 L 275.78,450.99 L 280.57,439.25 L 281.32,434.27 L 295.54,423.54 L 301.67,405.43 L 305.10,400.71 L 319.10,397.61 L 328.15,393.03 L 334.78,384.78 L 342.47,380.17 L 347.58,374.19 L 356.90,358.18 L 357.59,352.81 L 353.24,348.09 L 354.42,344.63 L 353.88,333.50 L 362.83,318.13 L 363.11,310.78 L 374.59,297.39 L 390.30,290.35 L 401.41,282.47 L 409.73,266.20 L 415.46,248.79 L 423.76,246.00 L 426.11,252.58 L 428.99,255.81 L 433.64,259.23 L 439.83,260.95 L 447.01,258.73 L 449.08,259.84 L 450.46,258.26 L 456.43,259.99 L 460.24,258.32 L 461.94,255.25 L 463.71,261.35 L 465.41,261.65 L 463.36,259.13 L 466.68,261.80 L 472.83,261.77 L 480.78,268.90 L 479.18,271.70 L 481.82,273.96 L 480.15,276.03 L 482.35,281.71 L 481.14,289.00 L 483.17,291.86 L 482.28,297.99 L 485.02,301.42 L 484.09,303.87 L 486.22,307.57 L 492.36,312.37 L 489.03,315.03 L 488.00,318.70 L 489.79,319.11 L 489.56,320.20 L 469.05,319.38 L 463.32,320.46 L 462.41,321.00 L 464.15,325.91 L 451.09,328.75 L 450.87,333.76 L 448.64,334.76 L 448.21,337.99 L 449.96,337.88 L 452.74,342.14 L 451.09,344.44 L 451.31,346.87 L 439.89,350.79 L 427.26,361.07 L 421.56,369.86 L 418.70,369.86 L 418.15,368.10 L 410.03,368.78 L 402.01,371.35 L 396.30,370.13 L 393.12,372.57 L 388.34,372.71 L 372.42,385.56 L 372.18,405.88 L 370.07,405.88 L 370.43,416.36 Z" fill="#C8D8E8" stroke="#8BAABB" stroke-width="0.8"/>
<path d="M 424.09,246.83 L 423.76,246.00 L 425.58,246.25 L 424.09,246.83 Z M 462.67,258.32 L 462.82,258.53 L 462.02,258.35 L 462.67,258.32 Z M 481.13,103.47 L 486.53,104.39 L 485.69,108.23 L 488.37,106.99 L 490.51,108.99 L 496.64,110.14 L 499.64,113.50 L 503.51,112.15 L 507.97,115.19 L 511.23,114.39 L 512.90,115.51 L 518.89,115.14 L 518.89,112.23 L 521.35,112.36 L 529.67,114.74 L 531.32,120.04 L 535.39,118.72 L 540.14,121.74 L 544.35,120.16 L 548.08,122.15 L 554.66,119.35 L 558.55,120.10 L 558.65,121.69 L 560.70,122.20 L 557.57,124.23 L 559.35,129.50 L 554.65,134.01 L 544.20,139.12 L 542.05,141.92 L 524.56,146.80 L 519.80,151.38 L 522.06,153.87 L 519.21,156.21 L 517.88,155.89 L 520.09,154.89 L 517.43,155.73 L 503.50,176.51 L 506.09,186.46 L 512.26,191.48 L 500.57,199.30 L 500.66,201.84 L 498.78,202.70 L 496.63,209.79 L 495.13,210.83 L 497.50,213.21 L 487.78,214.32 L 482.33,218.17 L 480.10,221.19 L 478.72,226.33 L 475.17,230.29 L 471.48,228.35 L 468.35,228.70 L 465.88,231.35 L 462.50,230.00 L 439.41,230.54 L 435.38,234.72 L 427.10,236.59 L 424.71,241.81 L 423.35,241.07 L 423.14,243.33 L 420.42,244.42 L 413.74,240.88 L 409.45,234.21 L 410.69,235.40 L 411.50,234.61 L 408.12,232.22 L 407.51,230.01 L 408.89,229.16 L 409.01,227.44 L 410.81,227.08 L 411.26,226.51 L 408.91,227.10 L 408.23,228.91 L 406.47,225.98 L 400.29,221.97 L 400.93,219.48 L 399.20,220.67 L 399.74,221.86 L 392.10,221.46 L 390.53,213.56 L 394.33,206.29 L 398.24,205.41 L 399.44,202.04 L 396.99,202.49 L 392.97,197.21 L 394.36,191.58 L 397.73,189.30 L 399.03,186.23 L 394.56,182.41 L 393.69,177.65 L 389.86,173.34 L 398.28,173.07 L 400.50,166.97 L 397.93,163.64 L 401.84,160.25 L 400.86,158.59 L 401.50,150.57 L 399.52,147.49 L 401.69,146.55 L 404.16,142.62 L 409.28,139.85 L 411.09,136.77 L 405.81,135.05 L 406.09,131.02 L 404.75,129.18 L 396.33,128.69 L 395.18,130.79 L 391.66,132.21 L 387.27,130.40 L 384.53,131.20 L 384.38,130.12 L 380.08,132.11 L 379.29,130.30 L 381.41,127.66 L 379.70,127.11 L 379.41,125.48 L 373.05,127.46 L 369.06,130.52 L 368.84,126.15 L 369.92,125.93 L 373.12,121.73 L 369.28,123.49 L 372.61,119.91 L 369.65,120.64 L 368.10,119.37 L 369.92,119.51 L 371.42,115.13 L 366.78,117.94 L 366.72,114.76 L 368.96,112.37 L 365.62,113.79 L 365.08,110.70 L 362.90,111.17 L 362.80,108.04 L 365.50,106.37 L 363.78,106.10 L 368.25,104.55 L 367.38,103.63 L 369.86,102.50 L 372.01,103.43 L 377.71,101.25 L 379.60,103.04 L 380.15,101.05 L 378.11,100.37 L 380.25,99.58 L 377.67,99.98 L 377.99,98.13 L 384.34,94.27 L 385.13,96.17 L 387.84,93.75 L 387.75,95.03 L 392.85,95.94 L 394.35,98.24 L 397.92,98.28 L 397.91,99.83 L 399.49,98.15 L 413.23,98.08 L 416.64,96.27 L 419.39,98.24 L 423.84,98.36 L 423.53,99.30 L 438.17,101.68 L 448.46,99.49 L 449.37,99.83 L 448.71,100.87 L 452.35,99.07 L 454.67,100.07 L 454.21,101.12 L 461.32,102.89 L 462.29,100.77 L 465.08,100.35 L 466.30,101.99 L 475.15,103.54 L 480.39,101.63 L 481.13,103.47 Z M 539.17,119.72 L 539.31,119.13 L 539.99,119.86 L 539.17,119.72 Z M 227.71,402.92 L 226.13,406.25 L 223.29,404.71 L 226.85,402.20 L 227.71,402.92 Z M 267.00,402.19 L 263.86,404.47 L 260.04,400.85 L 261.84,396.09 L 266.51,395.86 L 267.00,402.19 Z M 238.18,395.36 L 239.97,397.38 L 237.47,398.86 L 236.13,397.44 L 236.65,395.33 L 238.18,395.36 Z M 248.66,398.87 L 246.35,399.34 L 242.84,392.47 L 249.26,391.13 L 252.26,388.26 L 255.38,388.26 L 251.64,391.96 L 248.66,398.87 Z M 291.41,386.14 L 289.69,394.61 L 283.26,398.35 L 280.68,397.96 L 285.12,395.10 L 289.08,385.09 L 291.41,386.14 Z M 230.19,385.20 L 228.37,390.52 L 225.86,384.24 L 227.21,382.78 L 229.65,383.50 L 230.19,385.20 Z M 297.79,375.94 L 296.78,380.00 L 292.19,383.09 L 290.73,382.60 L 291.81,379.05 L 295.92,377.31 L 296.77,375.34 L 297.79,375.94 Z M 296.63,375.29 L 295.85,375.55 L 296.37,374.38 L 296.63,375.29 Z M 496.95,211.60 L 497.16,212.32 L 496.84,211.96 L 496.72,210.21 L 496.95,211.60 Z M 533.42,193.21 L 530.30,193.42 L 531.06,191.24 L 533.42,193.21 Z M 534.07,185.93 L 530.62,189.74 L 527.69,188.72 L 529.89,185.00 L 533.81,184.73 L 534.07,185.93 Z M 563.16,171.99 L 562.83,173.73 L 559.67,179.03 L 556.66,181.29 L 555.06,179.47 L 552.35,179.22 L 550.70,175.69 L 547.74,177.40 L 545.51,175.34 L 552.77,169.61 L 558.52,167.75 L 557.23,168.82 L 558.95,169.22 L 557.85,171.24 L 563.16,171.99 Z M 576.71,169.72 L 575.31,170.70 L 568.75,168.39 L 568.32,166.80 L 573.06,165.61 L 576.71,169.72 Z M 555.11,184.25 L 554.35,183.56 L 555.40,182.91 L 555.11,184.25 Z M 441.05,260.55 L 441.08,260.56 L 441.00,260.55 L 441.05,260.55 Z M 447.27,259.71 L 447.28,259.72 L 447.27,259.74 L 447.27,259.71 Z M 447.31,259.68 L 447.31,259.69 L 447.29,259.69 L 447.31,259.68 Z M 470.41,260.29 L 470.46,260.37 L 470.38,260.43 L 470.41,260.29 Z M 423.50,246.22 L 423.47,246.27 L 423.42,246.20 L 423.50,246.22 Z" fill="#4A90D9" stroke="#1a5fa8" stroke-width="1.2"/>
<path d="M 617.53,42.87 L 607.46,43.82 L 604.93,47.10 L 608.09,42.13 L 612.22,40.95 L 617.53,42.87 Z" fill="#A8C8E8" stroke="none"/>
<path d="M 657.73,22.26 L 650.46,15.83 L 655.02,18.52 L 661.25,21.13 L 657.73,22.26 Z" fill="#A8C8E8" stroke="none"/>
<path d="M 651.96,18.73 L 650.21,18.57 L 649.09,19.04 L 648.09,19.00 L 650.03,18.08 L 649.17,17.27 L 651.96,18.73 Z" fill="#A8C8E8" stroke="none"/>
<path d="M 425.68,171.35 L 417.45,171.48 L 414.39,170.02 L 419.94,171.05 L 424.07,168.96 L 425.35,170.96 L 426.55,170.69 L 425.68,171.35 Z" fill="#A8C8E8" stroke="none"/>
<path d="M 643.80,52.83 L 643.58,56.28 L 641.99,52.26 L 643.92,51.93 L 647.54,47.78 L 643.80,52.83 Z" fill="#A8C8E8" stroke="none"/>
<path d="M 676.84,57.79 L 676.68,61.71 L 673.71,60.76 L 674.68,59.78 L 673.92,58.64 L 679.10,53.08 L 676.84,57.79 Z" fill="#A8C8E8" stroke="none"/>
<path d="M 468.10,153.14 L 465.79,157.43 L 465.93,155.32 L 468.10,153.14 Z" fill="#A8C8E8" stroke="none"/>
<path d="M 429.66,179.53 L 429.99,179.59 L 429.01,181.21 L 429.66,179.53 Z" fill="#A8C8E8" stroke="none"/>
<path d="M 427.46,182.33 L 427.19,183.42 L 427.51,181.03 L 429.01,181.21 L 427.46,182.33 Z" fill="#A8C8E8" stroke="none"/>
<path d="M 429.24,178.37 L 430.71,178.28 L 432.47,178.90 L 430.67,178.72 L 433.65,181.69 L 429.24,178.37 Z" fill="#A8C8E8" stroke="none"/>
<path d="M 466.65,158.59 L 466.59,160.88 L 464.98,159.29 L 466.92,158.03 L 469.35,158.69 L 466.65,158.59 Z" fill="#A8C8E8" stroke="none"/>
</svg>