<svg xmlns="http://www.w3.org/2000/svg" width="800" height="500" viewBox="0 0 800 500">
<rect width="800" height="500" fill="#A8C8E8"/>
<path d="M 682.02,241.56 L 650.00,281.17 L 616.65,281.17 L 518.06,254.25 L 504.64,244.68 L 497.89,242.60 L 490.15,229.80 L 486.17,228.73 L 478.45,220.95 L 472.19,209.98 L 493.34,185.80 L 500.24,189.02 L 500.19,192.88 L 511.58,204.76 L 528.86,215.33 L 536.82,216.18 L 549.36,215.30 L 576.29,202.71 L 598.92,207.75 L 630.88,194.36 L 641.04,196.63 L 655.04,195.67 L 668.11,190.70 L 682.02,192.61 L 682.02,241.56 Z" fill="#E8E0D0" stroke="#B8B0A0" stroke-width="0.5"/>
<path d="M 8.75,374.92 L 24.29,380.73 L 32.18,371.77 L 37.54,372.53 L 43.49,374.86 L 43.19,379.96 L 47.95,381.60 L 56.59,391.20 L 67.79,393.61 L 68.38,400.54 L 75.18,398.86 L 78.27,403.88 L 80.17,403.07 L 80.63,406.52 L 75.08,415.72 L 78.74,421.23 L 73.97,432.34 L 79.35,435.42 L 82.56,433.42 L 85.47,436.56 L 89.55,436.21 L 92.68,441.66 L 66.22,465.20 L 58.24,467.99 L 55.43,474.18 L 48.51,476.47 L 48.28,485.35 L 40.36,496.95 L 39.81,500.00 L 0.00,500.00 L 0.00,380.24 L 8.75,374.92 Z" fill="#E8E0D0" stroke="#B8B0A0" stroke-width="0.5"/>
<path d="M 793.24,0.00 L 800.00,0.00 L 800.00,12.61 L 793.24,0.00 Z" fill="#E8E0D0" stroke="#B8B0A0" stroke-width="0.5"/>
<path d="M 656.10,4.72 L 636.99,23.39 L 631.60,33.51 L 622.72,37.44 L 616.35,37.18 L 607.67,28.51 L 594.74,29.91 L 564.98,27.51 L 556.14,24.34 L 522.24,24.99 L 514.44,27.79 L 497.68,21.85 L 489.42,27.13 L 492.32,28.60 L 487.86,33.66 L 487.67,38.46 L 490.97,41.54 L 489.91,45.14 L 486.74,44.92 L 485.12,48.64 L 476.89,53.14 L 474.32,43.34 L 462.45,31.04 L 462.66,35.33 L 460.61,23.66 L 443.47,13.31 L 433.65,2.68 L 432.88,0.00 L 667.84,0.00 L 656.10,4.72 Z M 456.51,47.35 L 453.41,44.35 L 449.07,44.99 L 442.45,38.83 L 447.39,42.88 L 451.72,43.75 L 452.63,41.07 L 456.77,44.03 L 456.51,47.35 Z M 445.05,38.96 L 448.17,37.24 L 445.42,36.08 L 445.91,35.64 L 448.49,36.75 L 450.61,42.52 L 445.05,38.96 Z" fill="#E8E0D0" stroke="#B8B0A0" stroke-width="0.5"/>
<path d="M 40.36,496.95 L 48.28,485.35 L 48.51,476.47 L 55.43,474.18 L 58.24,467.99 L 66.22,465.20 L 92.68,441.66 L 89.55,436.21 L 85.47,436.56 L 82.56,433.42 L 79.35,435.42 L 73.97,432.34 L 78.74,421.23 L 75.08,415.72 L 80.63,406.52 L 80.17,403.07 L 78.27,403.88 L 81.77,398.74 L 90.79,395.66 L 101.10,399.37 L 109.57,395.00 L 114.65,400.94 L 122.59,403.28 L 123.25,400.37 L 129.39,397.33 L 142.22,396.29 L 150.25,393.12 L 155.83,396.45 L 166.71,396.82 L 183.90,384.40 L 186.52,393.34 L 190.53,393.42 L 188.78,396.11 L 198.36,399.05 L 196.42,404.25 L 198.17,412.28 L 212.91,428.36 L 214.51,431.47 L 212.57,435.00 L 217.27,446.73 L 216.14,453.88 L 209.68,461.11 L 210.31,465.38 L 199.94,469.45 L 196.64,476.71 L 188.69,482.49 L 186.54,489.47 L 180.15,495.93 L 181.28,500.00 L 39.81,500.00 L 40.36,496.95 Z" fill="#E8E0D0" stroke="#B8B0A0" stroke-width="0.5"/>
<path d="M 800.00,12.61 L 800.00,52.24 L 793.89,56.06 L 789.31,63.68 L 791.74,73.69 L 763.04,84.21 L 735.89,89.15 L 723.40,94.74 L 715.48,94.86 L 696.47,100.01 L 687.15,103.55 L 684.17,108.86 L 673.91,116.51 L 656.99,118.54 L 651.26,116.14 L 630.62,127.10 L 607.35,133.21 L 572.83,135.62 L 564.07,143.02 L 554.57,145.97 L 552.58,151.41 L 549.93,150.86 L 551.13,148.78 L 546.34,150.28 L 546.67,152.29 L 537.63,149.84 L 531.13,153.91 L 515.48,155.88 L 503.94,151.57 L 499.52,153.54 L 499.69,149.11 L 491.46,137.20 L 493.28,125.27 L 482.55,103.72 L 484.63,105.66 L 480.03,93.64 L 482.10,95.60 L 481.82,91.87 L 479.37,86.75 L 470.90,83.84 L 473.32,83.76 L 474.32,80.50 L 477.07,84.77 L 473.63,71.35 L 478.40,65.54 L 476.89,53.14 L 485.12,48.64 L 486.74,44.92 L 489.91,45.14 L 490.97,41.54 L 487.67,38.46 L 487.86,33.66 L 492.20,29.15 L 489.42,27.13 L 494.02,23.51 L 500.70,22.03 L 514.44,27.79 L 522.24,24.99 L 556.14,24.34 L 564.98,27.51 L 594.74,29.91 L 607.67,28.51 L 616.35,37.18 L 622.72,37.44 L 631.60,33.51 L 636.99,23.39 L 656.10,4.72 L 667.84,0.00 L 793.24,0.00 L 800.00,12.61 Z M 797.08,168.11 L 786.26,165.75 L 788.07,165.58 L 797.08,168.11 Z M 498.89,154.38 L 498.45,154.95 L 496.92,154.02 L 498.89,154.38 Z M 477.07,123.96 L 473.52,126.86 L 473.69,125.89 L 477.07,123.96 Z M 477.30,117.07 L 476.63,119.88 L 473.63,117.34 L 477.30,117.07 Z M 469.95,79.81 L 469.51,83.15 L 469.20,79.77 L 471.77,78.34 L 469.95,79.81 Z" fill="#E8E0D0" stroke="#B8B0A0" stroke-width="0.5"/>
<path d="M 479.68,199.98 L 471.09,196.95 L 448.47,201.30 L 442.59,199.49 L 443.63,180.21 L 464.93,157.99 L 473.18,162.36 L 476.98,160.47 L 479.53,155.11 L 487.84,152.88 L 494.90,158.85 L 497.73,166.04 L 496.49,172.03 L 490.80,173.31 L 485.76,177.51 L 476.48,179.45 L 472.83,183.91 L 467.74,183.76 L 470.69,186.65 L 479.10,183.17 L 488.98,182.73 L 491.94,186.11 L 479.68,199.98 Z" fill="#C8D8E8" stroke="#8BAABB" stroke-width="0.8"/>
<path d="M 479.53,155.11 L 476.98,160.47 L 473.18,162.36 L 466.42,158.10 L 463.21,159.47 L 456.72,152.20 L 448.77,148.30 L 440.94,138.18 L 423.60,128.16 L 411.63,114.81 L 387.33,105.01 L 380.25,106.08 L 367.66,102.24 L 357.43,105.71 L 354.73,101.30 L 350.81,99.97 L 346.01,104.26 L 331.36,106.34 L 324.77,99.19 L 317.35,97.97 L 313.50,93.75 L 302.24,114.83 L 293.57,105.24 L 287.81,106.24 L 285.78,110.16 L 275.36,108.66 L 267.97,110.52 L 264.59,86.84 L 271.36,78.34 L 272.79,70.78 L 282.24,55.66 L 279.65,49.25 L 283.76,40.31 L 282.88,34.31 L 297.23,35.19 L 300.31,27.51 L 318.42,21.08 L 319.68,22.94 L 321.11,21.15 L 324.91,21.69 L 337.19,8.65 L 350.90,31.51 L 360.29,65.18 L 365.06,68.36 L 365.74,76.18 L 370.87,76.85 L 374.35,87.91 L 377.54,88.32 L 378.99,85.75 L 376.28,79.84 L 379.68,76.74 L 386.51,81.19 L 384.73,84.01 L 389.16,90.95 L 393.41,92.83 L 400.94,89.99 L 407.01,93.30 L 409.41,98.77 L 422.78,100.36 L 439.76,119.33 L 449.54,121.90 L 454.11,127.41 L 458.02,129.85 L 456.72,126.75 L 460.17,129.28 L 463.21,138.87 L 468.36,138.60 L 474.90,144.03 L 476.61,148.96 L 481.51,150.66 L 483.94,147.65 L 487.84,152.88 L 479.53,155.11 Z M 396.98,74.88 L 383.13,73.95 L 381.75,71.35 L 386.55,72.47 L 381.52,70.33 L 385.09,67.64 L 382.20,66.13 L 388.39,68.52 L 389.30,72.92 L 392.74,71.31 L 396.98,74.88 Z M 387.66,63.62 L 383.51,62.76 L 385.52,60.32 L 387.66,63.62 Z" fill="#C8D8E8" stroke="#8BAABB" stroke-width="0.8"/>
<path d="M 241.72,371.46 L 247.77,373.14 L 251.79,377.92 L 284.29,379.91 L 320.52,400.55 L 334.10,399.51 L 367.31,406.25 L 378.78,393.62 L 409.32,382.24 L 422.63,391.56 L 446.72,390.62 L 428.63,411.76 L 416.04,422.29 L 416.41,500.00 L 181.28,500.00 L 180.15,495.93 L 186.54,489.47 L 188.69,482.49 L 196.64,476.71 L 199.94,469.45 L 210.31,465.38 L 209.68,461.11 L 216.14,453.88 L 217.27,446.73 L 212.57,435.00 L 214.51,431.47 L 212.91,428.36 L 198.17,412.28 L 196.42,404.25 L 198.36,399.05 L 188.78,396.11 L 190.53,393.42 L 186.52,393.34 L 182.93,384.02 L 196.41,373.12 L 230.78,361.95 L 230.27,364.78 L 236.10,365.38 L 234.47,368.75 L 237.42,373.12 L 241.72,371.46 Z" fill="#C8D8E8" stroke="#8BAABB" stroke-width="0.8"/>
<path d="M 650.00,281.17 L 682.02,241.56 L 682.02,192.61 L 726.36,183.34 L 738.79,173.40 L 744.02,172.46 L 760.53,176.70 L 753.48,190.09 L 753.63,194.27 L 757.09,195.62 L 754.60,199.57 L 756.12,210.32 L 751.10,214.80 L 758.12,214.58 L 756.64,211.30 L 763.95,213.58 L 764.03,215.84 L 753.77,215.53 L 748.34,217.69 L 745.11,242.42 L 732.08,256.90 L 720.45,276.70 L 711.55,282.88 L 708.87,292.27 L 692.30,313.47 L 685.26,331.61 L 648.98,377.56 L 585.57,432.07 L 535.62,456.47 L 505.89,477.01 L 479.56,500.00 L 416.52,500.00 L 416.52,421.54 L 428.63,411.76 L 448.00,388.08 L 452.83,385.25 L 478.29,381.77 L 487.89,372.37 L 515.01,364.26 L 548.67,365.18 L 599.56,320.88 L 650.00,281.17 Z" fill="#C8D8E8" stroke="#8BAABB" stroke-width="0.8"/>
<path d="M 241.72,371.46 L 240.42,373.96 L 237.42,373.12 L 234.47,368.75 L 236.10,365.38 L 230.27,364.78 L 230.78,361.95 L 225.25,363.27 L 196.41,373.12 L 166.71,396.82 L 155.83,396.45 L 150.25,393.12 L 142.22,396.29 L 129.39,397.33 L 123.25,400.37 L 122.59,403.28 L 114.65,400.94 L 109.57,395.00 L 101.10,399.37 L 88.35,395.85 L 81.77,398.74 L 78.27,403.88 L 75.18,398.86 L 68.73,400.77 L 67.79,393.61 L 56.59,391.20 L 47.95,381.60 L 43.19,379.96 L 43.49,374.86 L 34.76,372.01 L 32.18,371.77 L 24.29,380.73 L 8.75,374.92 L 0.00,379.79 L 0.00,244.93 L 11.70,245.01 L 14.04,239.45 L 33.03,233.11 L 37.39,228.95 L 37.44,225.04 L 50.70,219.26 L 75.80,234.13 L 89.11,233.05 L 105.80,220.79 L 115.08,208.77 L 131.35,197.15 L 128.62,191.02 L 128.60,180.24 L 119.73,172.17 L 141.89,172.09 L 141.39,166.27 L 157.32,166.43 L 153.12,183.08 L 155.01,206.50 L 163.06,209.04 L 180.93,221.87 L 182.81,230.57 L 179.74,240.26 L 186.06,241.47 L 187.43,264.02 L 182.72,268.95 L 175.42,271.04 L 171.04,268.54 L 158.18,268.67 L 155.74,271.24 L 156.52,277.24 L 150.00,283.33 L 152.29,286.58 L 174.23,290.42 L 183.92,297.15 L 184.82,301.50 L 189.75,303.76 L 193.06,308.85 L 200.50,311.31 L 201.20,315.04 L 207.17,316.89 L 216.20,339.27 L 220.35,345.82 L 225.79,348.83 L 226.64,352.59 L 232.71,351.04 L 243.88,354.11 L 242.13,366.74 L 247.77,373.14 L 241.72,371.46 Z" fill="#C8D8E8" stroke="#8BAABB" stroke-width="0.8"/>
<path d="M 322.18,1.99 L 327.34,0.43 L 324.37,2.85 L 330.18,2.67 L 337.27,8.40 L 324.91,21.69 L 321.11,21.15 L 319.68,22.94 L 318.42,21.08 L 300.31,27.51 L 297.23,35.19 L 282.88,34.31 L 283.76,40.31 L 279.65,49.25 L 282.24,55.66 L 272.79,70.78 L 271.36,78.34 L 264.59,86.84 L 267.97,110.52 L 263.46,128.61 L 254.98,144.05 L 254.53,152.52 L 239.99,154.21 L 227.64,171.51 L 219.48,177.09 L 219.49,184.44 L 215.19,192.49 L 215.66,202.02 L 211.67,206.77 L 208.86,207.99 L 202.87,202.55 L 193.02,211.22 L 194.57,220.53 L 186.06,241.47 L 179.74,240.26 L 182.81,230.57 L 180.93,221.87 L 163.06,209.04 L 155.01,206.50 L 153.12,183.08 L 157.32,166.43 L 141.39,166.27 L 141.89,172.09 L 119.73,172.17 L 128.60,180.24 L 128.62,191.02 L 131.35,197.15 L 115.08,208.77 L 105.80,220.79 L 89.11,233.05 L 75.80,234.13 L 50.70,219.26 L 37.44,225.04 L 37.39,228.95 L 33.03,233.11 L 14.04,239.45 L 11.70,245.01 L 0.00,244.93 L 0.00,0.00 L 320.32,0.00 L 322.18,1.99 Z" fill="#C8D8E8" stroke="#8BAABB" stroke-width="0.8"/>
<path d="M 194.57,220.53 L 193.02,211.22 L 202.87,202.55 L 208.86,207.99 L 211.67,206.77 L 215.66,202.02 L 215.19,192.49 L 219.49,184.44 L 219.48,177.09 L 227.64,171.51 L 239.99,154.21 L 254.25,153.05 L 254.98,144.05 L 263.46,128.61 L 267.97,110.52 L 275.36,108.66 L 285.78,110.16 L 287.81,106.24 L 293.57,105.24 L 302.24,114.83 L 313.50,93.75 L 317.35,97.97 L 324.77,99.19 L 331.36,106.34 L 346.01,104.26 L 350.81,99.97 L 354.73,101.30 L 357.43,105.71 L 367.66,102.24 L 380.25,106.08 L 387.33,105.01 L 411.63,114.81 L 423.60,128.16 L 440.94,138.18 L 448.77,148.30 L 456.72,152.20 L 463.21,159.47 L 443.63,180.21 L 442.59,199.49 L 448.47,201.30 L 471.09,196.95 L 481.37,199.42 L 472.14,209.41 L 478.45,220.95 L 486.17,228.73 L 490.15,229.80 L 497.89,242.60 L 504.64,244.68 L 516.76,253.62 L 616.65,281.17 L 650.00,281.17 L 598.12,322.02 L 548.67,365.18 L 516.23,364.03 L 501.54,367.09 L 487.89,372.37 L 478.29,381.77 L 453.99,384.78 L 445.08,391.38 L 422.63,391.56 L 409.32,382.24 L 378.78,393.62 L 367.31,406.25 L 334.10,399.51 L 320.52,400.55 L 284.29,379.91 L 251.79,377.92 L 248.43,376.17 L 242.13,366.74 L 243.88,354.11 L 232.71,351.04 L 226.64,352.59 L 225.79,348.83 L 220.35,345.82 L 216.20,339.27 L 207.17,316.89 L 201.20,315.04 L 200.50,311.31 L 193.06,308.85 L 189.75,303.76 L 184.82,301.50 L 183.92,297.15 L 174.23,290.42 L 152.29,286.58 L 150.00,283.33 L 156.52,277.24 L 155.74,271.24 L 158.18,268.67 L 171.04,268.54 L 175.06,271.09 L 186.71,265.93 L 186.06,241.47 L 194.57,220.53 Z" fill="#4A90D9" stroke="#1a5fa8" stroke-width="1.2"/>
<path d="M 97.17,446.79 L 93.49,452.31 L 81.85,457.60 L 70.42,470.83 L 66.87,470.75 L 67.21,465.82 L 63.14,463.24 L 66.90,457.83 L 91.53,441.28 L 99.46,433.34 L 95.84,437.07 L 97.17,446.79 Z" fill="#A8C8E8" stroke="none"/>
<path d="M 123.44,498.55 L 123.92,497.91 L 126.65,499.40 L 125.51,497.53 L 129.63,499.59 L 129.17,496.60 L 131.91,495.68 L 131.58,498.01 L 135.58,497.73 L 138.51,491.00 L 139.04,494.25 L 141.72,494.19 L 139.22,496.43 L 146.77,493.60 L 147.05,496.83 L 149.88,496.17 L 153.41,493.85 L 152.71,491.76 L 154.56,493.01 L 159.34,488.76 L 156.59,487.27 L 162.55,485.39 L 160.94,489.34 L 165.99,489.34 L 166.85,491.56 L 163.69,490.82 L 166.43,493.81 L 169.24,493.92 L 171.76,490.12 L 175.32,490.23 L 173.98,493.43 L 176.69,492.48 L 177.62,494.74 L 183.09,491.69 L 183.56,500.00 L 142.72,500.00 L 144.03,498.40 L 143.31,497.91 L 142.56,500.00 L 141.54,500.00 L 141.49,499.95 L 141.51,500.00 L 123.84,500.00 L 123.44,498.55 Z M 155.87,494.92 L 156.13,496.03 L 156.37,495.73 L 155.87,494.92 Z M 160.03,497.19 L 158.69,497.57 L 158.89,498.64 L 160.03,497.19 Z M 158.30,490.82 L 159.08,493.71 L 157.27,493.81 L 161.66,496.75 L 160.96,493.18 L 163.25,492.08 L 158.30,490.82 Z M 179.67,497.19 L 179.78,496.78 L 176.56,495.77 L 179.67,497.19 Z" fill="#A8C8E8" stroke="none"/>
<path d="M 292.85,177.16 L 287.79,176.02 L 286.65,177.51 L 283.48,175.28 L 284.28,167.51 L 288.35,164.50 L 292.14,166.51 L 300.40,163.88 L 303.82,169.11 L 302.90,172.68 L 296.67,182.18 L 293.57,181.31 L 292.85,177.16 Z" fill="#A8C8E8" stroke="none"/>
<path d="M 155.70,454.44 L 155.54,454.53 L 155.50,454.50 L 155.70,454.44 Z" fill="#A8C8E8" stroke="none"/>
<path d="M 153.52,457.89 L 159.56,458.47 L 155.45,460.43 L 157.11,461.31 L 161.43,460.16 L 159.34,465.82 L 146.99,459.68 L 144.92,460.43 L 146.32,463.59 L 144.71,460.77 L 141.14,460.82 L 142.88,463.38 L 134.91,459.42 L 135.12,457.43 L 139.69,458.35 L 144.02,455.36 L 144.02,457.05 L 149.76,457.05 L 153.93,454.00 L 158.73,452.85 L 159.47,454.44 L 164.95,450.62 L 166.62,453.75 L 153.52,457.89 Z M 142.05,459.52 L 140.83,459.11 L 142.04,459.95 L 145.85,459.66 L 142.05,459.52 Z" fill="#A8C8E8" stroke="none"/>
<path d="M 127.79,454.24 L 132.84,456.67 L 124.82,453.50 L 136.03,453.28 L 142.70,448.27 L 147.23,449.22 L 151.11,446.46 L 148.82,448.62 L 150.80,449.26 L 149.98,452.21 L 144.25,449.02 L 143.55,451.76 L 135.01,454.67 L 127.79,454.24 Z" fill="#A8C8E8" stroke="none"/>
<path d="M 437.80,189.06 L 436.34,189.41 L 436.10,188.92 L 437.80,189.06 Z" fill="#A8C8E8" stroke="none"/>
<path d="M 353.15,272.33 L 350.04,271.80 L 350.43,270.48 L 354.16,268.11 L 353.15,272.33 Z" fill="#A8C8E8" stroke="none"/>
<path d="M 438.67,184.97 L 438.23,182.85 L 439.69,183.42 L 440.65,185.14 L 438.67,184.97 Z" fill="#A8C8E8" stroke="none"/>
<path d="M 469.55,500.00 L 469.01,500.00 L 460.22,497.41 L 461.07,495.12 L 469.10,498.06 L 469.55,500.00 Z" fill="#A8C8E8" stroke="none"/>
<path d="M 246.92,100.83 L 247.13,92.22 L 248.74,95.90 L 246.92,100.83 Z" fill="#A8C8E8" stroke="none"/>
<path d="M 195.58,178.74 L 199.18,177.63 L 199.10,183.29 L 209.63,191.32 L 194.69,183.22 L 195.58,178.74 Z" fill="#A8C8E8" stroke="none"/>
<path d="M 273.84,431.22 L 269.03,433.72 L 263.11,421.42 L 258.66,417.76 L 254.63,417.57 L 255.35,411.43 L 248.67,407.99 L 248.41,402.51 L 247.68,404.13 L 244.85,397.64 L 250.02,372.71 L 251.48,375.70 L 251.85,372.67 L 256.64,373.00 L 258.57,386.05 L 256.47,391.04 L 259.28,396.71 L 257.83,408.46 L 263.77,416.94 L 273.40,420.47 L 273.84,431.22 Z" fill="#A8C8E8" stroke="none"/>
<path d="M 321.76,319.35 L 321.21,323.29 L 312.12,334.18 L 306.63,335.27 L 307.36,332.36 L 312.98,330.14 L 312.86,321.62 L 317.12,318.75 L 321.76,319.35 Z" fill="#A8C8E8" stroke="none"/>
<path d="M 465.53,181.02 L 464.27,182.38 L 463.38,180.54 L 465.53,181.02 Z" fill="#A8C8E8" stroke="none"/>
<path d="M 282.72,372.59 L 274.84,377.04 L 277.10,367.38 L 279.80,368.76 L 283.23,365.85 L 282.72,372.59 Z" fill="#A8C8E8" stroke="none"/>
<path d="M 307.28,341.42 L 302.30,343.56 L 304.15,337.81 L 307.12,336.75 L 307.28,341.42 Z" fill="#A8C8E8" stroke="none"/>
<path d="M 446.63,193.77 L 442.95,197.22 L 439.88,194.41 L 443.83,191.83 L 446.63,193.77 Z" fill="#A8C8E8" stroke="none"/>
</svg>