<svg xmlns="http://www.w3.org/2000/svg" width="800" height="500" viewBox="0 0 800 500">
<rect width="800" height="500" fill="#A8C8E8"/>
<path d="M 627.30,241.56 L 601.49,281.17 L 574.61,281.17 L 495.15,254.25 L 484.34,244.68 L 478.89,242.60 L 472.66,229.80 L 469.45,228.73 L 463.23,220.95 L 458.18,209.98 L 475.23,185.80 L 480.79,189.02 L 480.75,192.88 L 489.93,204.76 L 503.86,215.33 L 510.27,216.18 L 520.38,215.30 L 542.08,202.71 L 560.32,207.75 L 586.08,194.36 L 594.27,196.63 L 605.56,195.67 L 616.08,190.70 L 627.30,192.61 L 627.30,241.56 Z" fill="#E8E0D0" stroke="#B8B0A0" stroke-width="0.5"/>
<path d="M 84.67,374.92 L 97.20,380.73 L 103.55,371.77 L 107.88,372.53 L 112.67,374.86 L 112.43,379.96 L 116.26,381.60 L 123.22,391.20 L 132.25,393.61 L 132.73,400.54 L 138.21,398.86 L 140.70,403.88 L 142.23,403.07 L 142.60,406.52 L 138.13,415.72 L 141.07,421.23 L 137.23,432.34 L 141.57,435.42 L 144.16,433.42 L 146.50,436.56 L 149.79,436.21 L 152.31,441.66 L 130.99,465.20 L 124.55,467.99 L 122.29,474.18 L 116.71,476.47 L 116.53,485.35 L 110.15,496.95 L 109.70,500.00 L 77.62,500.00 L 77.62,380.24 L 84.67,374.92 Z" fill="#E8E0D0" stroke="#B8B0A0" stroke-width="0.5"/>
<path d="M 716.93,0.00 L 722.38,0.00 L 722.38,12.61 L 716.93,0.00 Z" fill="#E8E0D0" stroke="#B8B0A0" stroke-width="0.5"/>
<path d="M 606.40,4.72 L 591.00,23.39 L 586.66,33.51 L 579.50,37.44 L 574.37,37.18 L 567.37,28.51 L 556.96,29.91 L 532.97,27.51 L 525.84,24.34 L 498.52,24.99 L 492.23,27.79 L 478.73,21.85 L 472.07,27.13 L 474.41,28.60 L 470.81,33.66 L 470.66,38.46 L 473.31,41.54 L 472.47,45.14 L 469.91,44.92 L 468.60,48.64 L 461.97,53.14 L 459.90,43.34 L 450.33,31.04 L 450.50,35.33 L 448.85,23.66 L 435.03,13.31 L 427.12,2.68 L 426.50,0.00 L 615.86,0.00 L 606.40,4.72 Z M 445.54,47.35 L 443.05,44.35 L 439.55,44.99 L 434.21,38.83 L 438.19,42.88 L 441.68,43.75 L 442.42,41.07 L 445.76,44.03 L 445.54,47.35 Z M 436.31,38.96 L 438.82,37.24 L 436.61,36.08 L 437.00,35.64 L 439.08,36.75 L 440.79,42.52 L 436.31,38.96 Z" fill="#E8E0D0" stroke="#B8B0A0" stroke-width="0.5"/>
<path d="M 110.15,496.95 L 116.53,485.35 L 116.71,476.47 L 122.29,474.18 L 124.55,467.99 L 130.99,465.20 L 152.31,441.66 L 149.79,436.21 L 146.50,436.56 L 144.16,433.42 L 141.57,435.42 L 137.23,432.34 L 141.07,421.23 L 138.13,415.72 L 142.60,406.52 L 142.23,403.07 L 140.70,403.88 L 143.52,398.74 L 150.79,395.66 L 159.10,399.37 L 165.93,395.00 L 170.02,400.94 L 176.42,403.28 L 176.95,400.37 L 181.90,397.33 L 192.24,396.29 L 198.71,393.12 L 203.21,396.45 L 211.97,396.82 L 225.83,384.40 L 227.95,393.34 L 231.18,393.42 L 229.77,396.11 L 237.49,399.05 L 235.92,404.25 L 237.34,412.28 L 249.21,428.36 L 250.50,431.47 L 248.94,435.00 L 252.73,446.73 L 251.82,453.88 L 246.61,461.11 L 247.12,465.38 L 238.76,469.45 L 236.10,476.71 L 229.69,482.49 L 227.96,489.47 L 222.81,495.93 L 223.72,500.00 L 109.70,500.00 L 110.15,496.95 Z" fill="#E8E0D0" stroke="#B8B0A0" stroke-width="0.5"/>
<path d="M 722.38,12.61 L 722.38,52.24 L 717.46,56.06 L 713.77,63.68 L 715.73,73.69 L 692.59,84.21 L 670.71,89.15 L 660.65,94.74 L 654.26,94.86 L 638.95,100.01 L 631.43,103.55 L 629.03,108.86 L 620.76,116.51 L 607.12,118.54 L 602.50,116.14 L 585.87,127.10 L 567.12,133.21 L 539.30,135.62 L 532.23,143.02 L 524.57,145.97 L 522.97,151.41 L 520.84,150.86 L 521.80,148.78 L 517.94,150.28 L 518.21,152.29 L 510.93,149.84 L 505.68,153.91 L 493.07,155.88 L 483.77,151.57 L 480.21,153.54 L 480.35,149.11 L 473.71,137.20 L 475.18,125.27 L 466.53,103.72 L 468.21,105.66 L 464.50,93.64 L 466.17,95.60 L 465.94,91.87 L 463.97,86.75 L 457.15,83.84 L 459.10,83.76 L 459.90,80.50 L 462.12,84.77 L 459.35,71.35 L 463.19,65.54 L 461.97,53.14 L 468.60,48.64 L 469.91,44.92 L 472.47,45.14 L 473.31,41.54 L 470.66,38.46 L 470.81,33.66 L 474.31,29.15 L 472.07,27.13 L 475.78,23.51 L 481.16,22.03 L 492.23,27.79 L 498.52,24.99 L 525.84,24.34 L 532.97,27.51 L 556.96,29.91 L 567.37,28.51 L 574.37,37.18 L 579.50,37.44 L 586.66,33.51 L 591.00,23.39 L 606.40,4.72 L 615.86,0.00 L 716.93,0.00 L 722.38,12.61 Z M 720.03,168.11 L 711.31,165.75 L 712.77,165.58 L 720.03,168.11 Z M 479.70,154.38 L 479.34,154.95 L 478.12,154.02 L 479.70,154.38 Z M 462.12,123.96 L 459.25,126.86 L 459.39,125.89 L 462.12,123.96 Z M 462.30,117.07 L 461.76,119.88 L 459.35,117.34 L 462.30,117.07 Z M 456.38,79.81 L 456.02,83.15 L 455.77,79.77 L 457.84,78.34 L 456.38,79.81 Z" fill="#E8E0D0" stroke="#B8B0A0" stroke-width="0.5"/>
<path d="M 464.22,199.98 L 457.29,196.95 L 439.06,201.30 L 434.33,199.49 L 435.16,180.21 L 452.33,157.99 L 458.98,162.36 L 462.04,160.47 L 464.10,155.11 L 470.79,152.88 L 476.48,158.85 L 478.77,166.04 L 477.77,172.03 L 473.18,173.31 L 469.12,177.51 L 461.64,179.45 L 458.70,183.91 L 454.59,183.76 L 456.98,186.65 L 463.75,183.17 L 471.71,182.73 L 474.10,186.11 L 464.22,199.98 Z" fill="#C8D8E8" stroke="#8BAABB" stroke-width="0.8"/>
<path d="M 464.10,155.11 L 462.04,160.47 L 458.98,162.36 L 453.53,158.10 L 450.95,159.47 L 445.72,152.20 L 439.31,148.30 L 433.00,138.18 L 419.02,128.16 L 409.37,114.81 L 389.79,105.01 L 384.08,106.08 L 373.94,102.24 L 365.69,105.71 L 363.52,101.30 L 360.35,99.97 L 356.49,104.26 L 344.68,106.34 L 339.37,99.19 L 333.39,97.97 L 330.29,93.75 L 321.21,114.83 L 314.22,105.24 L 309.58,106.24 L 307.94,110.16 L 299.55,108.66 L 293.59,110.52 L 290.87,86.84 L 296.32,78.34 L 297.48,70.78 L 305.09,55.66 L 303.00,49.25 L 306.31,40.31 L 305.61,34.31 L 317.17,35.19 L 319.66,27.51 L 334.25,21.08 L 335.26,22.94 L 336.42,21.15 L 339.48,21.69 L 349.38,8.65 L 360.43,31.51 L 368.00,65.18 L 371.84,68.36 L 372.39,76.18 L 376.53,76.85 L 379.33,87.91 L 381.90,88.32 L 383.07,85.75 L 380.88,79.84 L 383.62,76.74 L 389.12,81.19 L 387.69,84.01 L 391.26,90.95 L 394.69,92.83 L 400.76,89.99 L 405.65,93.30 L 407.58,98.77 L 418.36,100.36 L 432.05,119.33 L 439.93,121.90 L 443.61,127.41 L 446.76,129.85 L 445.71,126.75 L 448.50,129.28 L 450.94,138.87 L 455.10,138.60 L 460.36,144.03 L 461.75,148.96 L 465.69,150.66 L 467.65,147.65 L 470.79,152.88 L 464.10,155.11 Z M 397.56,74.88 L 386.41,73.95 L 385.29,71.35 L 389.16,72.47 L 385.10,70.33 L 387.98,67.64 L 385.66,66.13 L 390.64,68.52 L 391.38,72.92 L 394.15,71.31 L 397.56,74.88 Z M 390.05,63.62 L 386.71,62.76 L 388.33,60.32 L 390.05,63.62 Z" fill="#C8D8E8" stroke="#8BAABB" stroke-width="0.8"/>
<path d="M 272.43,371.46 L 277.31,373.14 L 280.55,377.92 L 306.74,379.91 L 335.95,400.55 L 346.89,399.51 L 373.65,406.25 L 382.90,393.62 L 407.51,382.24 L 418.24,391.56 L 437.65,390.62 L 423.07,411.76 L 412.93,422.29 L 413.23,500.00 L 223.72,500.00 L 222.81,495.93 L 227.96,489.47 L 229.69,482.49 L 236.10,476.71 L 238.76,469.45 L 247.12,465.38 L 246.61,461.11 L 251.82,453.88 L 252.73,446.73 L 248.94,435.00 L 250.50,431.47 L 249.21,428.36 L 237.34,412.28 L 235.92,404.25 L 237.49,399.05 L 229.77,396.11 L 231.18,393.42 L 227.95,393.34 L 225.05,384.02 L 235.92,373.12 L 263.62,361.95 L 263.20,364.78 L 267.90,365.38 L 266.59,368.75 L 268.97,373.12 L 272.43,371.46 Z" fill="#C8D8E8" stroke="#8BAABB" stroke-width="0.8"/>
<path d="M 601.49,281.17 L 627.30,241.56 L 627.30,192.61 L 663.03,183.34 L 673.06,173.40 L 677.27,172.46 L 690.57,176.70 L 684.89,190.09 L 685.01,194.27 L 687.80,195.62 L 685.80,199.57 L 687.02,210.32 L 682.98,214.80 L 688.63,214.58 L 687.44,211.30 L 693.33,213.58 L 693.39,215.84 L 685.13,215.53 L 680.75,217.69 L 678.14,242.42 L 667.64,256.90 L 658.27,276.70 L 651.09,282.88 L 648.94,292.27 L 635.58,313.47 L 629.91,331.61 L 600.67,377.56 L 549.56,432.07 L 509.30,456.47 L 485.34,477.01 L 464.12,500.00 L 413.31,500.00 L 413.31,421.54 L 423.07,411.76 L 438.69,388.08 L 442.58,385.25 L 463.10,381.77 L 470.83,372.37 L 492.69,364.26 L 519.82,365.18 L 560.84,320.88 L 601.49,281.17 Z" fill="#C8D8E8" stroke="#8BAABB" stroke-width="0.8"/>
<path d="M 272.43,371.46 L 271.38,373.96 L 268.97,373.12 L 266.59,368.75 L 267.90,365.38 L 263.20,364.78 L 263.62,361.95 L 259.16,363.27 L 235.92,373.12 L 211.97,396.82 L 203.21,396.45 L 198.71,393.12 L 192.24,396.29 L 181.90,397.33 L 176.95,400.37 L 176.42,403.28 L 170.02,400.94 L 165.93,395.00 L 159.10,399.37 L 148.82,395.85 L 143.52,398.74 L 140.70,403.88 L 138.21,398.86 L 133.01,400.77 L 132.25,393.61 L 123.22,391.20 L 116.26,381.60 L 112.43,379.96 L 112.67,374.86 L 105.63,372.01 L 103.55,371.77 L 97.20,380.73 L 84.67,374.92 L 77.62,379.79 L 77.62,244.93 L 87.05,245.01 L 88.93,239.45 L 104.23,233.11 L 107.75,228.95 L 107.79,225.04 L 118.48,219.26 L 138.70,234.13 L 149.43,233.05 L 162.89,220.79 L 170.36,208.77 L 183.48,197.15 L 181.28,191.02 L 181.26,180.24 L 174.11,172.17 L 191.97,172.09 L 191.57,166.27 L 204.41,166.43 L 201.02,183.08 L 202.55,206.50 L 209.03,209.04 L 223.44,221.87 L 224.95,230.57 L 222.48,240.26 L 227.57,241.47 L 228.68,264.02 L 224.88,268.95 L 219.00,271.04 L 215.46,268.54 L 205.11,268.67 L 203.14,271.24 L 203.76,277.24 L 198.51,283.33 L 200.35,286.58 L 218.03,290.42 L 225.84,297.15 L 226.57,301.50 L 230.55,303.76 L 233.22,308.85 L 239.21,311.31 L 239.78,315.04 L 244.58,316.89 L 251.87,339.27 L 255.21,345.82 L 259.60,348.83 L 260.28,352.59 L 265.17,351.04 L 274.17,354.11 L 272.76,366.74 L 277.31,373.14 L 272.43,371.46 Z" fill="#C8D8E8" stroke="#8BAABB" stroke-width="0.8"/>
<path d="M 337.28,1.99 L 341.44,0.43 L 339.05,2.85 L 343.73,2.67 L 349.44,8.40 L 339.48,21.69 L 336.42,21.15 L 335.26,22.94 L 334.25,21.08 L 319.66,27.51 L 317.17,35.19 L 305.61,34.31 L 306.31,40.31 L 303.00,49.25 L 305.09,55.66 L 297.48,70.78 L 296.32,78.34 L 290.87,86.84 L 293.59,110.52 L 289.96,128.61 L 283.12,144.05 L 282.76,152.52 L 271.04,154.21 L 261.08,171.51 L 254.51,177.09 L 254.52,184.44 L 251.05,192.49 L 251.43,202.02 L 248.21,206.77 L 245.95,207.99 L 241.12,202.55 L 233.18,211.22 L 234.43,220.53 L 227.57,241.47 L 222.48,240.26 L 224.95,230.57 L 223.44,221.87 L 209.03,209.04 L 202.55,206.50 L 201.02,183.08 L 204.41,166.43 L 191.57,166.27 L 191.97,172.09 L 174.11,172.17 L 181.26,180.24 L 181.28,191.02 L 183.48,197.15 L 170.36,208.77 L 162.89,220.79 L 149.43,233.05 L 138.70,234.13 L 118.48,219.26 L 107.79,225.04 L 107.75,228.95 L 104.23,233.11 L 88.93,239.45 L 87.05,245.01 L 77.62,244.93 L 77.62,0.00 L 335.78,0.00 L 337.28,1.99 Z" fill="#C8D8E8" stroke="#8BAABB" stroke-width="0.8"/>
<path d="M 234.43,220.53 L 233.18,211.22 L 241.12,202.55 L 245.95,207.99 L 248.21,206.77 L 251.43,202.02 L 251.05,192.49 L 254.52,184.44 L 254.51,177.09 L 261.08,171.51 L 271.04,154.21 L 282.53,153.05 L 283.12,144.05 L 289.96,128.61 L 293.59,110.52 L 299.55,108.66 L 307.94,110.16 L 309.58,106.24 L 314.22,105.24 L 321.21,114.83 L 330.29,93.75 L 333.39,97.97 L 339.37,99.19 L 344.68,106.34 L 356.49,104.26 L 360.35,99.97 L 363.52,101.30 L 365.69,105.71 L 373.94,102.24 L 384.08,106.08 L 389.79,105.01 L 409.37,114.81 L 419.02,128.16 L 433.00,138.18 L 439.31,148.30 L 445.72,152.20 L 450.95,159.47 L 435.16,180.21 L 434.33,199.49 L 439.06,201.30 L 457.29,196.95 L 465.58,199.42 L 458.14,209.41 L 463.23,220.95 L 469.45,228.73 L 472.66,229.80 L 478.89,242.60 L 484.34,244.68 L 494.10,253.62 L 574.61,281.17 L 601.49,281.17 L 559.68,322.02 L 519.82,365.18 L 493.68,364.03 L 481.84,367.09 L 470.83,372.37 L 463.10,381.77 L 443.51,384.78 L 436.33,391.38 L 418.24,391.56 L 407.51,382.24 L 382.90,393.62 L 373.65,406.25 L 346.89,399.51 L 335.95,400.55 L 306.74,379.91 L 280.55,377.92 L 277.84,376.17 L 272.76,366.74 L 274.17,354.11 L 265.17,351.04 L 260.28,352.59 L 259.60,348.83 L 255.21,345.82 L 251.87,339.27 L 244.58,316.89 L 239.78,315.04 L 239.21,311.31 L 233.22,308.85 L 230.55,303.76 L 226.57,301.50 L 225.84,297.15 L 218.03,290.42 L 200.35,286.58 L 198.51,283.33 L 203.76,277.24 L 203.14,271.24 L 205.11,268.67 L 215.46,268.54 L 218.71,271.09 L 228.09,265.93 L 227.57,241.47 L 234.43,220.53 Z" fill="#4A90D9" stroke="#1a5fa8" stroke-width="1.2"/>
<path d="M 155.93,446.79 L 152.97,452.31 L 143.58,457.60 L 134.37,470.83 L 131.51,470.75 L 131.78,465.82 L 128.51,463.24 L 131.54,457.83 L 151.38,441.28 L 157.78,433.34 L 154.86,437.07 L 155.93,446.79 Z" fill="#A8C8E8" stroke="none"/>
<path d="M 177.10,498.55 L 177.49,497.91 L 179.69,499.40 L 178.77,497.53 L 182.09,499.59 L 181.73,496.60 L 183.93,495.68 L 183.66,498.01 L 186.89,497.73 L 189.25,491.00 L 189.68,494.25 L 191.84,494.19 L 189.82,496.43 L 195.91,493.60 L 196.13,496.83 L 198.42,496.17 L 201.26,493.85 L 200.69,491.76 L 202.18,493.01 L 206.04,488.76 L 203.82,487.27 L 208.62,485.39 L 207.33,489.34 L 211.39,489.34 L 212.09,491.56 L 209.54,490.82 L 211.75,493.81 L 214.01,493.92 L 216.05,490.12 L 218.92,490.23 L 217.84,493.43 L 220.02,492.48 L 220.77,494.74 L 225.18,491.69 L 225.56,500.00 L 192.64,500.00 L 193.70,498.40 L 193.12,497.91 L 192.51,500.00 L 191.69,500.00 L 191.65,499.95 L 191.67,500.00 L 177.43,500.00 L 177.10,498.55 Z M 203.24,494.92 L 203.45,496.03 L 203.65,495.73 L 203.24,494.92 Z M 206.59,497.19 L 205.51,497.57 L 205.67,498.64 L 206.59,497.19 Z M 205.20,490.82 L 205.83,493.71 L 204.37,493.81 L 207.90,496.75 L 207.34,493.18 L 209.19,492.08 L 205.20,490.82 Z M 222.43,497.19 L 222.51,496.78 L 219.92,495.77 L 222.43,497.19 Z" fill="#A8C8E8" stroke="none"/>
<path d="M 313.64,177.16 L 309.57,176.02 L 308.65,177.51 L 306.09,175.28 L 306.73,167.51 L 310.02,164.50 L 313.07,166.51 L 319.73,163.88 L 322.48,169.11 L 321.74,172.68 L 316.72,182.18 L 314.22,181.31 L 313.64,177.16 Z" fill="#A8C8E8" stroke="none"/>
<path d="M 203.10,454.44 L 202.97,454.53 L 202.94,454.50 L 203.10,454.44 Z" fill="#A8C8E8" stroke="none"/>
<path d="M 201.34,457.89 L 206.21,458.47 L 202.90,460.43 L 204.24,461.31 L 207.72,460.16 L 206.04,465.82 L 196.08,459.68 L 194.42,460.43 L 195.54,463.59 L 194.25,460.77 L 191.37,460.82 L 192.77,463.38 L 186.35,459.42 L 186.51,457.43 L 190.20,458.35 L 193.69,455.36 L 193.69,457.05 L 198.31,457.05 L 201.68,454.00 L 205.55,452.85 L 206.14,454.44 L 210.56,450.62 L 211.90,453.75 L 201.34,457.89 Z M 192.10,459.52 L 191.12,459.11 L 192.09,459.95 L 195.16,459.66 L 192.10,459.52 Z" fill="#A8C8E8" stroke="none"/>
<path d="M 180.61,454.24 L 184.68,456.67 L 178.22,453.50 L 187.25,453.28 L 192.62,448.27 L 196.28,449.22 L 199.40,446.46 L 197.56,448.62 L 199.15,449.26 L 198.49,452.21 L 193.87,449.02 L 193.31,451.76 L 186.43,454.67 L 180.61,454.24 Z" fill="#A8C8E8" stroke="none"/>
<path d="M 430.46,189.06 L 429.29,189.41 L 429.10,188.92 L 430.46,189.06 Z" fill="#A8C8E8" stroke="none"/>
<path d="M 362.24,272.33 L 359.73,271.80 L 360.05,270.48 L 363.05,268.11 L 362.24,272.33 Z" fill="#A8C8E8" stroke="none"/>
<path d="M 431.17,184.97 L 430.81,182.85 L 431.99,183.42 L 432.76,185.14 L 431.17,184.97 Z" fill="#A8C8E8" stroke="none"/>
<path d="M 456.06,500.00 L 455.62,500.00 L 448.53,497.41 L 449.22,495.12 L 455.69,498.06 L 456.06,500.00 Z" fill="#A8C8E8" stroke="none"/>
<path d="M 276.62,100.83 L 276.79,92.22 L 278.09,95.90 L 276.62,100.83 Z" fill="#A8C8E8" stroke="none"/>
<path d="M 235.25,178.74 L 238.14,177.63 L 238.08,183.29 L 246.57,191.32 L 234.53,183.22 L 235.25,178.74 Z" fill="#A8C8E8" stroke="none"/>
<path d="M 298.32,431.22 L 294.44,433.72 L 289.67,421.42 L 286.08,417.76 L 282.84,417.57 L 283.42,411.43 L 278.04,407.99 L 277.82,402.51 L 277.24,404.13 L 274.96,397.64 L 279.12,372.71 L 280.30,375.70 L 280.60,372.67 L 284.45,373.00 L 286.01,386.05 L 284.32,391.04 L 286.58,396.71 L 285.42,408.46 L 290.21,416.94 L 297.96,420.47 L 298.32,431.22 Z" fill="#A8C8E8" stroke="none"/>
<path d="M 336.94,319.35 L 336.50,323.29 L 329.18,334.18 L 324.74,335.27 L 325.34,332.36 L 329.86,330.14 L 329.77,321.62 L 333.20,318.75 L 336.94,319.35 Z" fill="#A8C8E8" stroke="none"/>
<path d="M 452.81,181.02 L 451.80,182.38 L 451.08,180.54 L 452.81,181.02 Z" fill="#A8C8E8" stroke="none"/>
<path d="M 305.47,372.59 L 299.13,377.04 L 300.95,367.38 L 303.12,368.76 L 305.89,365.85 L 305.47,372.59 Z" fill="#A8C8E8" stroke="none"/>
<path d="M 325.27,341.42 L 321.25,343.56 L 322.75,337.81 L 325.14,336.75 L 325.27,341.42 Z" fill="#A8C8E8" stroke="none"/>
<path d="M 437.58,193.77 L 434.62,197.22 L 432.14,194.41 L 435.32,191.83 L 437.58,193.77 Z" fill="#A8C8E8" stroke="none"/>
</svg>