<svg xmlns="http://www.w3.org/2000/svg" width="800" height="500" viewBox="0 0 800 500">
<rect width="800" height="500" fill="#A8C8E8"/>
<path d="M 329.41,451.23 L 320.77,449.30 L 309.35,454.06 L 292.41,450.95 L 289.58,445.44 L 281.47,444.27 L 281.30,440.19 L 298.51,437.90 L 278.18,438.11 L 282.60,436.44 L 277.85,433.12 L 287.24,431.58 L 286.96,430.48 L 284.14,429.34 L 286.63,430.60 L 283.83,431.83 L 277.22,430.17 L 282.24,428.72 L 280.08,424.49 L 307.93,422.69 L 305.84,419.12 L 314.38,420.14 L 311.69,418.70 L 319.49,416.62 L 339.54,417.24 L 340.95,413.58 L 368.62,416.00 L 374.76,414.66 L 372.07,410.55 L 380.83,413.71 L 381.65,410.52 L 387.66,413.43 L 395.08,411.64 L 438.43,417.24 L 481.17,418.54 L 487.82,416.28 L 495.47,419.53 L 481.58,422.56 L 473.86,431.20 L 463.10,434.74 L 460.03,438.41 L 466.62,449.36 L 463.90,454.65 L 470.07,458.71 L 471.65,463.88 L 477.79,465.62 L 465.24,467.26 L 456.26,474.09 L 457.40,475.78 L 435.46,472.75 L 418.42,476.14 L 396.73,468.26 L 396.26,466.18 L 377.40,464.07 L 362.79,459.16 L 360.54,461.84 L 354.23,459.35 L 318.23,465.41 L 329.41,451.23 Z M 302.20,456.77 L 304.85,456.72 L 304.36,458.09 L 302.20,456.77 Z M 273.79,447.50 L 265.72,446.86 L 245.92,454.53 L 226.37,455.52 L 222.16,461.58 L 215.10,463.98 L 211.22,461.88 L 222.16,456.89 L 205.75,452.46 L 213.40,450.62 L 205.23,445.84 L 212.69,445.79 L 216.97,448.54 L 221.47,444.87 L 225.37,446.11 L 226.06,444.06 L 238.03,442.23 L 255.01,442.60 L 273.79,447.50 Z M 269.30,445.12 L 261.28,443.02 L 267.60,440.67 L 276.00,443.74 L 269.30,445.12 Z M 272.23,431.83 L 263.78,430.28 L 266.34,429.55 L 275.19,430.07 L 272.23,431.83 Z M 214.93,432.89 L 234.04,431.83 L 243.34,428.36 L 255.56,431.43 L 260.42,435.80 L 251.51,437.75 L 248.41,436.30 L 238.27,440.48 L 234.04,439.58 L 232.53,435.44 L 214.93,432.89 Z M 329.37,413.97 L 329.04,414.27 L 326.59,413.91 L 329.37,413.97 Z M 270.91,467.92 L 268.52,467.46 L 268.81,466.76 L 270.91,467.92 Z" fill="#E8E0D0" stroke="#B8B0A0" stroke-width="0.5"/>
<path d="M 465.40,475.75 L 464.63,478.74 L 479.66,482.99 L 478.93,487.00 L 472.44,488.68 L 475.57,490.55 L 469.98,496.59 L 483.00,497.32 L 480.81,499.67 L 481.46,500.00 L 168.66,500.00 L 169.62,497.05 L 184.68,491.57 L 187.02,482.51 L 200.54,474.37 L 234.99,469.23 L 240.77,468.87 L 242.86,474.01 L 264.52,480.55 L 270.49,488.83 L 290.32,492.84 L 302.09,491.44 L 322.55,483.98 L 318.23,465.41 L 354.23,459.35 L 359.82,461.84 L 362.79,459.16 L 377.40,464.07 L 396.26,466.18 L 396.73,468.26 L 418.42,476.14 L 435.46,472.75 L 465.40,475.75 Z" fill="#E8E0D0" stroke="#B8B0A0" stroke-width="0.5"/>
<path d="M 126.21,125.81 L 137.12,129.23 L 137.82,132.44 L 132.34,136.87 L 119.81,140.46 L 132.77,142.40 L 120.22,146.24 L 50.11,139.46 L 37.56,140.79 L 38.79,150.88 L 26.57,157.76 L 0.00,153.85 L 0.00,151.72 L 3.69,149.75 L 0.00,148.46 L 0.00,144.63 L 24.33,144.97 L 5.86,143.31 L 9.47,140.80 L 0.00,142.01 L 0.00,135.29 L 15.54,136.83 L 0.00,134.60 L 0.00,133.08 L 5.56,132.11 L 20.27,134.14 L 5.86,131.63 L 22.23,129.72 L 3.97,129.55 L 14.60,122.93 L 37.14,121.80 L 29.66,119.33 L 36.52,115.76 L 37.42,112.50 L 43.93,111.67 L 46.84,114.57 L 52.43,114.86 L 53.13,119.33 L 55.98,115.39 L 61.77,118.47 L 63.76,116.62 L 76.45,117.75 L 50.95,112.66 L 51.85,110.77 L 69.13,109.67 L 76.52,114.40 L 93.19,116.69 L 83.97,118.77 L 97.66,119.77 L 95.48,116.08 L 81.31,114.74 L 75.52,111.78 L 87.86,110.56 L 86.33,109.20 L 76.61,110.22 L 73.32,107.76 L 87.23,102.83 L 111.68,102.00 L 106.66,105.74 L 109.08,106.94 L 105.56,112.50 L 100.08,114.30 L 107.31,112.95 L 109.80,107.84 L 124.29,108.86 L 126.68,108.67 L 115.04,107.39 L 113.52,104.81 L 121.81,100.83 L 121.86,103.09 L 129.20,97.80 L 131.00,100.34 L 134.90,96.93 L 140.96,99.78 L 136.09,105.74 L 139.01,108.26 L 117.74,118.29 L 134.19,114.55 L 143.57,108.90 L 160.50,111.39 L 144.03,107.39 L 146.28,105.01 L 143.57,103.25 L 157.40,102.08 L 157.69,99.71 L 171.44,97.61 L 162.37,100.52 L 168.15,102.49 L 175.00,99.83 L 173.00,101.79 L 175.40,101.54 L 176.77,98.86 L 182.10,98.86 L 176.77,98.03 L 180.45,95.40 L 192.71,96.37 L 195.03,98.72 L 217.37,103.66 L 209.03,100.96 L 213.72,100.75 L 208.94,97.71 L 215.28,97.92 L 218.08,95.12 L 203.68,94.91 L 217.43,92.38 L 200.08,94.20 L 176.77,89.70 L 187.28,87.84 L 189.58,89.70 L 192.47,86.27 L 207.14,91.57 L 204.01,88.21 L 212.29,86.20 L 217.68,86.78 L 218.24,88.93 L 226.86,87.30 L 225.44,91.92 L 238.44,92.19 L 227.78,90.94 L 231.19,88.18 L 257.06,89.73 L 251.11,92.38 L 232.74,93.34 L 225.90,94.70 L 252.50,92.81 L 259.42,91.57 L 259.48,94.88 L 264.43,95.02 L 262.88,97.40 L 273.63,97.61 L 283.20,95.31 L 266.59,93.23 L 275.89,92.29 L 272.23,90.94 L 277.85,90.09 L 269.71,89.47 L 282.86,88.62 L 272.86,88.22 L 286.63,86.77 L 279.74,86.35 L 282.01,84.91 L 300.50,80.53 L 320.24,82.15 L 308.94,79.56 L 320.34,75.01 L 337.29,77.13 L 334.21,74.45 L 315.44,72.16 L 322.32,69.65 L 333.27,72.30 L 332.26,69.88 L 337.35,69.46 L 330.46,67.57 L 334.67,66.28 L 341.72,68.40 L 351.45,66.47 L 346.09,69.46 L 356.94,68.05 L 361.14,71.95 L 367.84,69.12 L 366.59,66.32 L 374.40,67.94 L 370.10,70.42 L 392.21,69.75 L 353.28,80.72 L 361.16,79.97 L 352.66,81.13 L 363.04,82.16 L 361.64,84.28 L 353.62,85.10 L 359.12,86.69 L 349.00,89.06 L 347.34,92.93 L 350.12,94.09 L 350.48,91.96 L 354.25,91.36 L 355.12,93.53 L 361.46,92.96 L 374.60,86.97 L 370.07,85.62 L 423.63,67.15 L 428.73,67.79 L 427.17,73.63 L 411.20,76.32 L 425.61,76.54 L 418.71,85.00 L 432.70,81.43 L 445.94,81.74 L 440.04,78.83 L 453.45,78.22 L 445.84,76.52 L 448.44,75.30 L 446.33,73.86 L 456.32,73.41 L 456.08,70.97 L 470.04,71.53 L 447.39,67.12 L 457.22,67.36 L 452.84,64.80 L 466.59,66.96 L 465.24,63.33 L 470.97,61.73 L 474.24,63.78 L 495.70,62.97 L 498.88,63.90 L 496.32,66.11 L 512.02,66.43 L 503.55,70.91 L 497.25,70.70 L 499.10,71.84 L 475.99,71.95 L 492.92,73.63 L 470.97,77.58 L 500.72,74.65 L 480.07,81.34 L 481.63,83.01 L 495.41,80.72 L 488.82,82.50 L 492.76,82.59 L 502.27,80.28 L 494.29,84.39 L 494.59,91.92 L 487.59,93.87 L 495.36,92.52 L 497.58,83.89 L 504.79,81.02 L 510.13,82.38 L 512.31,80.49 L 505.30,79.02 L 515.29,75.39 L 512.31,73.20 L 523.25,69.46 L 551.12,72.16 L 546.10,73.40 L 551.72,73.63 L 546.63,76.16 L 564.58,73.40 L 568.33,75.07 L 563.66,77.17 L 583.09,74.40 L 587.75,75.30 L 582.74,76.32 L 594.17,77.89 L 578.34,79.66 L 604.88,79.54 L 614.24,83.24 L 621.56,82.34 L 627.50,87.39 L 603.38,88.47 L 585.57,93.87 L 542.70,92.38 L 516.81,90.49 L 515.12,90.66 L 521.38,90.94 L 515.70,92.78 L 525.78,93.04 L 520.42,93.44 L 563.96,96.97 L 549.25,100.31 L 566.49,98.86 L 568.05,100.96 L 554.89,106.36 L 579.70,102.86 L 581.17,103.04 L 575.42,105.00 L 575.54,105.55 L 581.56,103.96 L 586.82,105.55 L 583.36,103.47 L 587.75,103.04 L 585.85,99.71 L 591.52,99.50 L 596.70,101.18 L 597.03,105.11 L 593.71,105.97 L 598.57,105.83 L 600.37,101.58 L 616.72,101.95 L 620.68,106.03 L 619.34,109.92 L 612.81,110.61 L 583.75,107.17 L 588.89,109.49 L 583.95,113.03 L 549.84,117.31 L 542.73,123.49 L 535.59,125.43 L 524.73,123.24 L 526.45,119.89 L 548.37,112.35 L 539.35,106.28 L 505.43,102.06 L 480.87,93.75 L 445.86,99.03 L 419.98,98.32 L 404.66,104.71 L 395.83,105.50 L 383.60,119.85 L 386.27,126.69 L 378.60,130.32 L 359.12,132.19 L 355.97,137.22 L 345.59,139.98 L 301.00,132.08 L 267.59,138.12 L 231.58,135.23 L 229.85,131.89 L 196.39,118.23 L 171.71,119.20 L 168.75,120.97 L 174.35,123.82 L 170.48,125.37 L 155.54,123.31 L 150.00,125.38 L 126.21,125.81 Z M 4.62,130.57 L 0.00,131.61 L 0.00,129.23 L 4.62,130.57 Z M 34.34,115.58 L 26.67,116.37 L 28.69,118.48 L 24.64,118.89 L 29.65,120.78 L 6.07,120.40 L 0.00,122.62 L 0.00,115.23 L 2.75,115.34 L 0.00,114.59 L 0.00,113.77 L 7.15,113.45 L 0.00,112.95 L 0.00,111.65 L 2.41,111.81 L 0.18,110.12 L 13.98,112.43 L 5.86,108.23 L 14.55,111.01 L 14.60,108.23 L 18.90,110.03 L 23.75,108.63 L 22.45,112.84 L 27.63,110.56 L 32.49,111.39 L 27.47,113.45 L 33.42,113.16 L 34.34,115.58 Z M 78.48,103.25 L 66.45,105.92 L 68.39,108.09 L 65.32,109.08 L 39.04,110.33 L 29.97,108.46 L 48.46,106.99 L 39.97,104.74 L 59.09,105.12 L 46.25,104.27 L 47.64,102.21 L 53.13,103.66 L 60.02,102.00 L 60.48,104.78 L 65.01,105.55 L 66.26,102.62 L 61.19,99.51 L 78.48,103.25 Z M 199.28,97.42 L 200.84,97.61 L 199.00,98.24 L 199.28,97.42 Z M 119.16,95.23 L 121.35,95.53 L 119.25,95.75 L 119.16,95.23 Z M 171.75,95.72 L 162.28,97.93 L 156.27,96.05 L 171.75,95.72 Z M 169.34,94.85 L 165.17,95.31 L 166.84,94.48 L 169.34,94.85 Z M 107.06,96.48 L 100.53,97.52 L 92.98,101.42 L 81.41,102.50 L 63.47,97.63 L 85.37,93.04 L 93.79,96.29 L 107.06,96.48 Z M 149.06,94.70 L 148.59,92.81 L 139.35,92.92 L 141.53,90.36 L 155.06,88.84 L 159.19,89.65 L 156.75,92.52 L 149.06,94.70 Z M 128.57,92.61 L 111.31,93.99 L 100.39,88.43 L 106.82,87.20 L 113.11,90.87 L 116.57,89.53 L 128.57,92.61 Z M 259.31,88.30 L 229.96,85.94 L 243.71,83.90 L 245.52,85.78 L 247.44,84.02 L 259.31,88.30 Z M 285.63,83.40 L 268.45,87.43 L 262.31,86.86 L 264.72,83.42 L 260.34,85.66 L 251.90,83.63 L 268.77,80.28 L 266.59,79.37 L 270.54,79.72 L 271.29,81.53 L 272.62,79.28 L 283.20,79.45 L 276.43,77.23 L 284.76,77.37 L 288.53,80.72 L 285.63,83.40 Z M 308.88,78.12 L 295.30,80.41 L 287.88,77.79 L 290.09,75.71 L 287.60,74.97 L 295.83,73.17 L 308.88,78.12 Z M 219.95,81.66 L 228.12,77.37 L 210.62,76.32 L 231.86,76.98 L 230.45,74.45 L 237.60,74.20 L 246.00,77.67 L 250.63,76.32 L 245.91,73.25 L 257.16,75.91 L 266.90,73.63 L 261.59,71.31 L 273.59,72.32 L 274.21,69.68 L 280.68,71.72 L 265.81,74.91 L 262.63,78.19 L 219.95,81.66 Z M 315.44,66.94 L 306.22,68.21 L 300.10,66.94 L 306.02,66.32 L 299.03,65.71 L 314.50,65.70 L 307.58,66.74 L 315.44,66.94 Z M 405.56,64.64 L 398.92,66.35 L 375.20,67.79 L 368.94,66.11 L 375.54,65.07 L 363.28,64.74 L 371.47,62.47 L 382.74,64.01 L 375.20,61.31 L 380.40,60.57 L 386.80,60.89 L 386.72,62.68 L 396.96,62.05 L 390.57,64.01 L 393.61,65.54 L 405.56,64.64 Z M 153.82,101.61 L 145.59,101.49 L 147.24,99.21 L 153.64,99.43 L 153.82,101.61 Z M 583.22,101.26 L 565.21,103.25 L 571.11,98.82 L 583.22,101.26 Z M 114.98,96.86 L 108.77,100.16 L 95.69,100.90 L 114.98,96.86 Z M 63.13,92.51 L 74.74,93.80 L 62.23,96.51 L 63.13,92.51 Z M 159.24,93.82 L 157.76,92.42 L 160.68,91.63 L 162.38,93.62 L 159.24,93.82 Z M 92.24,92.60 L 91.16,92.15 L 94.49,91.11 L 100.47,93.19 L 92.24,92.60 Z M 83.81,92.54 L 75.67,91.41 L 83.55,88.28 L 86.93,89.93 L 83.81,92.54 Z M 203.47,86.20 L 199.33,88.07 L 198.48,84.97 L 203.47,86.20 Z M 3.64,126.60 L 0.22,126.39 L 3.67,124.08 L 9.50,123.68 L 3.64,126.60 Z M 339.42,64.80 L 332.30,63.87 L 336.79,62.32 L 342.47,62.71 L 339.42,64.80 Z" fill="#E8E0D0" stroke="#B8B0A0" stroke-width="0.5"/>
<path d="M 134.22,398.48 L 130.76,397.84 L 131.70,395.95 L 134.22,398.48 Z M 106.51,395.69 L 99.93,395.98 L 101.80,392.74 L 106.51,395.69 Z M 139.48,394.51 L 137.31,393.27 L 137.93,392.41 L 141.08,392.41 L 139.48,394.51 Z M 157.65,393.23 L 157.50,391.79 L 160.50,392.41 L 157.65,393.23 Z M 124.18,394.70 L 124.34,391.06 L 122.62,390.96 L 122.28,394.91 L 117.63,393.86 L 121.99,395.76 L 123.55,395.13 L 123.84,397.52 L 119.18,399.05 L 110.71,398.25 L 105.41,392.41 L 112.24,391.38 L 113.05,394.70 L 118.54,391.90 L 111.37,389.69 L 116.16,388.15 L 134.22,392.02 L 124.18,394.70 Z M 162.53,402.33 L 163.57,403.27 L 163.21,403.41 L 162.53,402.33 Z M 166.43,402.89 L 163.25,402.07 L 167.02,402.03 L 166.43,402.89 Z M 148.36,400.26 L 144.41,400.12 L 146.43,398.79 L 148.36,400.26 Z M 142.66,398.47 L 139.36,399.64 L 139.97,399.27 L 142.66,398.47 Z M 143.07,399.24 L 142.99,398.76 L 146.29,398.34 L 143.07,399.24 Z M 152.21,397.18 L 150.56,396.12 L 151.68,395.94 L 152.21,397.18 Z M 153.78,393.86 L 154.26,394.13 L 152.17,394.44 L 153.78,393.86 Z M 155.34,390.99 L 155.00,390.93 L 156.12,389.36 L 155.34,390.99 Z M 137.04,399.89 L 141.96,400.65 L 135.54,401.91 L 137.04,399.89 Z M 128.99,397.83 L 131.82,400.34 L 129.53,401.37 L 123.07,398.57 L 128.99,397.83 Z M 171.24,386.73 L 170.18,386.66 L 170.15,386.06 L 171.24,386.73 Z" fill="#E8E0D0" stroke="#B8B0A0" stroke-width="0.5"/>
<path d="M 163.16,127.08 L 162.91,129.70 L 216.19,142.41 L 249.81,144.91 L 261.63,148.10 L 266.13,153.22 L 272.57,152.50 L 288.81,158.44 L 280.55,161.06 L 283.85,169.51 L 278.27,172.60 L 293.52,174.59 L 294.45,177.10 L 286.10,179.46 L 285.12,182.72 L 304.43,193.31 L 299.33,194.96 L 298.85,200.67 L 288.37,203.86 L 288.84,208.19 L 291.65,211.54 L 305.14,216.34 L 311.69,223.22 L 300.88,225.12 L 292.34,223.02 L 280.04,222.90 L 278.14,224.97 L 267.52,223.09 L 269.42,224.87 L 263.27,226.82 L 242.72,220.62 L 243.21,225.21 L 231.41,221.97 L 227.78,222.79 L 227.78,225.88 L 222.45,225.10 L 230.61,227.80 L 225.75,226.92 L 225.90,229.04 L 221.53,229.27 L 226.62,229.65 L 226.99,227.89 L 231.40,231.77 L 202.12,226.12 L 222.16,231.56 L 206.20,231.97 L 214.33,234.05 L 187.72,237.40 L 199.26,239.57 L 195.66,240.94 L 183.00,236.92 L 179.90,237.62 L 195.07,243.13 L 192.08,244.09 L 193.98,246.17 L 178.33,249.70 L 175.50,253.27 L 168.92,253.37 L 181.18,255.33 L 177.68,255.95 L 181.14,258.45 L 172.29,257.43 L 183.35,261.38 L 189.39,260.96 L 192.42,262.44 L 183.08,262.52 L 194.91,264.95 L 165.69,274.17 L 162.51,279.21 L 152.35,285.14 L 144.53,284.14 L 139.55,288.43 L 136.40,286.21 L 135.60,289.24 L 134.53,286.85 L 132.63,289.35 L 123.11,289.17 L 107.25,296.03 L 96.24,292.09 L 99.46,296.54 L 89.25,294.96 L 87.70,299.15 L 78.48,301.23 L 80.97,302.48 L 78.27,303.72 L 64.49,301.26 L 71.90,302.71 L 65.50,304.03 L 67.81,302.48 L 62.18,302.29 L 64.70,304.37 L 55.96,303.75 L 60.08,305.70 L 41.22,309.17 L 54.14,309.41 L 56.52,310.43 L 48.60,310.24 L 54.07,311.46 L 48.46,311.87 L 51.85,312.91 L 47.43,314.14 L 39.64,313.14 L 43.10,313.99 L 39.09,315.94 L 30.59,315.42 L 36.86,314.58 L 33.71,313.56 L 27.23,314.73 L 22.45,309.17 L 16.19,309.36 L 23.22,311.56 L 30.30,318.03 L 24.33,319.19 L 33.11,321.47 L 27.30,320.87 L 23.01,324.70 L 14.60,325.04 L 16.81,326.29 L 4.00,323.14 L 0.00,324.62 L 0.00,153.85 L 26.57,157.76 L 38.79,150.88 L 38.03,140.62 L 50.11,139.46 L 122.01,145.86 L 132.77,142.40 L 119.81,140.46 L 132.34,136.87 L 137.82,132.44 L 137.12,129.23 L 126.21,125.81 L 163.16,127.08 Z M 1.89,329.48 L 14.32,332.55 L 7.74,332.96 L 5.54,339.51 L 0.24,341.54 L 0.00,344.09 L 0.00,325.56 L 1.89,329.48 Z M 3.03,345.06 L 2.74,348.06 L 7.99,348.32 L 7.18,350.72 L 0.00,348.33 L 0.00,344.98 L 3.03,345.06 Z M 0.01,381.53 L 10.77,380.78 L 15.13,385.15 L 29.03,382.61 L 28.69,384.91 L 42.16,388.86 L 40.91,390.54 L 49.73,389.88 L 49.67,391.79 L 57.81,393.25 L 48.48,392.60 L 44.66,390.73 L 49.36,394.61 L 55.24,395.20 L 56.59,398.25 L 59.93,395.99 L 66.57,400.35 L 64.58,398.00 L 67.49,396.92 L 71.43,402.11 L 79.13,403.66 L 77.44,405.53 L 70.65,402.64 L 72.39,405.00 L 63.70,407.54 L 79.26,408.12 L 71.90,408.06 L 42.47,416.41 L 44.22,418.87 L 38.47,417.00 L 30.59,418.51 L 36.86,420.59 L 34.53,421.00 L 40.26,421.21 L 44.71,419.50 L 51.65,420.69 L 49.67,417.66 L 52.32,417.73 L 59.71,420.89 L 43.49,421.12 L 49.56,426.57 L 30.81,429.58 L 25.29,435.18 L 19.84,432.15 L 21.20,433.74 L 19.88,434.41 L 19.62,427.28 L 16.96,429.34 L 14.60,425.81 L 10.86,432.27 L 13.13,433.45 L 8.99,433.93 L 11.48,435.18 L 4.93,434.14 L 6.81,437.05 L 0.00,436.84 L 0.00,381.53 L 0.01,381.53 Z M 0.85,438.52 L 0.00,438.52 L 0.00,436.99 L 0.85,438.52 Z M 79.75,466.70 L 67.05,469.48 L 65.11,472.75 L 65.50,477.46 L 72.49,479.89 L 48.75,487.49 L 50.95,487.96 L 45.62,490.89 L 48.46,491.72 L 44.41,493.42 L 36.52,494.21 L 43.44,489.02 L 39.36,489.85 L 40.60,487.77 L 34.72,483.96 L 38.37,480.28 L 36.04,475.15 L 61.14,464.02 L 66.88,466.70 L 69.07,463.98 L 79.75,466.70 Z M 91.32,462.50 L 83.26,463.65 L 81.78,466.06 L 77.54,464.28 L 80.35,462.11 L 91.32,462.50 Z M 87.29,450.96 L 84.43,449.37 L 86.02,449.37 L 91.01,450.20 L 87.29,450.96 Z M 45.93,421.84 L 58.15,423.08 L 53.76,422.69 L 55.38,424.07 L 45.93,421.84 Z M 48.55,389.24 L 47.48,385.04 L 52.32,389.35 L 55.31,390.54 L 48.55,389.24 Z M 161.04,284.90 L 163.58,285.61 L 161.44,286.21 L 161.04,284.90 Z M 49.07,430.59 L 45.91,430.17 L 47.30,428.56 L 52.35,427.98 L 49.07,430.59 Z M 64.44,424.70 L 60.31,425.56 L 61.74,424.59 L 64.44,424.70 Z M 65.59,423.27 L 63.19,422.96 L 64.79,421.98 L 65.59,423.27 Z M 59.32,419.74 L 64.31,420.84 L 61.13,421.83 L 59.32,419.74 Z M 35.79,419.10 L 41.57,419.78 L 37.74,420.58 L 35.79,419.10 Z M 69.70,418.77 L 69.90,418.97 L 68.90,419.09 L 69.70,418.77 Z M 73.01,419.58 L 71.26,418.75 L 72.28,418.59 L 73.01,419.58 Z M 71.01,418.55 L 69.49,418.02 L 71.23,417.38 L 71.01,418.55 Z M 55.60,418.09 L 53.50,416.24 L 63.94,414.49 L 55.60,418.09 Z M 71.53,413.19 L 69.40,412.81 L 73.02,411.19 L 71.53,413.19 Z M 67.81,413.17 L 64.75,413.51 L 72.40,410.95 L 67.81,413.17 Z M 74.58,407.00 L 70.64,406.78 L 73.99,404.65 L 74.58,407.00 Z M 64.58,394.13 L 67.04,395.61 L 63.27,395.77 L 64.58,394.13 Z M 46.49,431.65 L 39.02,433.65 L 40.52,432.63 L 46.49,431.65 Z M 36.79,431.89 L 32.49,432.14 L 34.91,430.26 L 39.24,430.65 L 36.79,431.89 Z M 15.78,433.97 L 14.29,428.77 L 15.87,429.42 L 15.78,433.97 Z M 31.42,318.77 L 30.46,318.13 L 37.48,316.86 L 31.42,318.77 Z M 160.64,289.35 L 159.26,289.57 L 161.03,288.56 L 160.64,289.35 Z M 164.86,285.58 L 161.04,288.37 L 161.77,286.56 L 164.86,285.58 Z M 230.05,235.16 L 225.92,235.13 L 226.89,234.41 L 230.05,235.16 Z M 220.84,233.83 L 223.54,235.37 L 223.47,235.54 L 220.84,233.83 Z M 240.95,232.69 L 238.15,232.13 L 238.42,231.88 L 240.95,232.69 Z M 221.42,231.90 L 229.28,232.93 L 225.69,233.71 L 221.42,231.90 Z M 241.48,230.21 L 242.19,230.34 L 237.06,230.73 L 241.48,230.21 Z M 238.22,229.84 L 240.50,230.00 L 239.80,230.20 L 238.22,229.84 Z M 257.29,227.96 L 253.19,226.34 L 255.37,225.69 L 257.29,227.96 Z M 294.41,226.41 L 292.29,227.06 L 289.70,226.30 L 294.41,226.41 Z M 247.00,224.82 L 249.95,226.53 L 249.68,226.80 L 247.00,224.82 Z" fill="#C8D8E8" stroke="#8BAABB" stroke-width="0.8"/>
<path d="M 480.81,499.67 L 483.00,497.32 L 469.98,496.59 L 475.57,490.55 L 472.44,488.68 L 478.93,487.00 L 479.66,482.99 L 464.63,478.74 L 465.40,475.75 L 456.26,474.09 L 465.24,467.26 L 477.79,465.62 L 471.65,463.88 L 470.07,458.71 L 463.90,454.65 L 466.62,449.36 L 460.03,438.41 L 463.10,434.74 L 473.86,431.20 L 481.58,422.56 L 495.26,420.11 L 487.82,416.28 L 490.27,413.35 L 487.27,407.86 L 492.61,406.83 L 504.09,410.66 L 508.70,405.02 L 524.98,407.00 L 540.00,400.42 L 585.71,404.51 L 589.55,401.27 L 575.94,399.60 L 571.41,395.42 L 535.01,394.89 L 523.47,389.27 L 515.13,388.87 L 507.00,383.46 L 519.06,386.46 L 518.49,378.02 L 496.81,383.83 L 477.55,384.27 L 523.39,367.11 L 541.91,362.57 L 607.89,333.74 L 620.59,330.41 L 635.12,324.29 L 650.00,312.03 L 633.30,302.69 L 599.37,294.77 L 577.43,286.59 L 587.51,285.03 L 603.54,278.06 L 603.82,272.03 L 579.79,266.63 L 581.52,264.35 L 576.25,261.40 L 586.57,259.15 L 583.74,255.34 L 568.27,254.50 L 561.57,251.10 L 559.96,247.23 L 571.47,244.57 L 570.69,242.03 L 559.13,241.11 L 565.52,238.25 L 565.81,233.31 L 570.93,231.07 L 564.74,229.11 L 582.81,228.29 L 583.41,226.59 L 573.75,214.54 L 534.99,190.19 L 556.38,178.30 L 574.48,171.91 L 578.74,166.50 L 562.38,162.31 L 547.74,154.72 L 518.49,151.36 L 507.41,140.81 L 523.56,131.50 L 505.69,129.58 L 538.12,125.06 L 549.84,117.31 L 576.81,115.12 L 588.57,110.02 L 583.75,107.17 L 617.27,110.43 L 620.68,106.03 L 616.72,101.95 L 642.67,104.70 L 637.54,107.84 L 645.81,105.25 L 661.01,105.55 L 656.00,104.06 L 656.46,101.30 L 674.18,102.38 L 665.70,97.99 L 672.15,97.15 L 693.56,102.04 L 721.43,104.30 L 720.21,106.73 L 709.48,108.75 L 677.41,106.55 L 674.76,103.57 L 674.30,105.97 L 668.21,106.57 L 672.22,107.11 L 670.40,109.31 L 687.89,108.70 L 692.59,110.75 L 678.51,113.26 L 694.19,110.97 L 710.74,111.81 L 704.81,113.88 L 719.22,111.99 L 707.28,117.32 L 714.85,114.51 L 739.26,113.45 L 726.08,118.27 L 735.79,117.71 L 728.89,119.51 L 740.20,120.14 L 718.11,123.95 L 716.41,127.87 L 718.28,124.73 L 734.83,123.30 L 741.66,120.42 L 741.45,117.23 L 748.41,116.23 L 780.23,117.02 L 800.00,119.83 L 800.00,199.60 L 797.72,199.15 L 782.95,201.46 L 777.28,198.65 L 784.00,198.39 L 784.85,197.82 L 765.23,197.35 L 767.47,194.27 L 758.61,196.97 L 742.38,192.53 L 739.07,193.40 L 743.94,195.05 L 739.26,194.01 L 741.45,195.24 L 737.67,194.43 L 738.96,195.78 L 719.94,191.70 L 706.43,187.07 L 712.14,184.34 L 687.14,182.52 L 662.85,182.73 L 681.63,183.58 L 694.78,187.38 L 687.57,188.79 L 692.31,189.42 L 688.86,190.85 L 730.16,198.17 L 710.84,200.33 L 727.20,199.00 L 739.86,201.51 L 724.14,200.20 L 712.64,201.74 L 742.85,202.55 L 748.93,204.86 L 738.92,205.48 L 744.07,207.34 L 729.54,208.18 L 765.71,210.31 L 786.28,214.97 L 794.04,218.20 L 792.77,220.58 L 799.95,220.86 L 800.00,221.08 L 800.00,225.09 L 792.48,223.62 L 796.49,230.11 L 789.95,233.43 L 792.16,234.47 L 774.59,236.55 L 782.16,237.18 L 782.93,239.72 L 790.27,240.93 L 791.31,244.41 L 796.36,245.22 L 798.29,246.95 L 793.10,248.87 L 800.00,251.23 L 800.00,253.82 L 795.60,255.14 L 800.00,255.51 L 800.00,257.30 L 799.03,257.47 L 800.00,257.85 L 800.00,260.99 L 794.97,261.80 L 800.00,262.89 L 800.00,500.00 L 481.44,500.00 L 480.81,499.67 Z M 513.24,382.83 L 512.58,381.34 L 514.57,380.86 L 513.24,382.83 Z M 568.57,401.26 L 562.66,399.73 L 565.22,399.84 L 568.57,401.26 Z M 478.75,401.03 L 477.94,400.52 L 478.74,399.56 L 481.70,400.17 L 478.75,401.03 Z M 440.58,399.96 L 438.99,397.47 L 439.64,397.48 L 440.58,399.96 Z M 515.47,392.28 L 511.68,389.93 L 513.46,389.88 L 519.47,391.52 L 515.47,392.28 Z M 509.96,391.03 L 506.39,389.52 L 509.10,389.48 L 509.96,391.03 Z M 687.65,184.33 L 685.09,183.58 L 685.93,183.15 L 687.65,184.33 Z M 770.88,114.07 L 779.60,115.76 L 759.90,115.24 L 770.88,114.07 Z" fill="#C8D8E8" stroke="#8BAABB" stroke-width="0.8"/>
<path d="M 505.69,129.58 L 523.56,131.50 L 507.41,140.81 L 517.27,150.72 L 547.74,154.72 L 562.38,162.31 L 578.74,166.50 L 574.48,171.91 L 556.38,178.30 L 534.99,190.19 L 573.75,214.54 L 583.41,226.59 L 582.81,228.29 L 564.74,229.11 L 570.93,231.07 L 565.81,233.31 L 565.52,238.25 L 559.13,241.11 L 570.69,242.03 L 571.47,244.57 L 559.96,247.23 L 561.57,251.10 L 568.27,254.50 L 583.74,255.34 L 586.57,259.15 L 576.25,261.40 L 581.52,264.35 L 579.79,266.63 L 603.82,272.03 L 603.54,278.06 L 587.51,285.03 L 577.43,286.59 L 599.37,294.77 L 633.30,302.69 L 650.00,312.03 L 635.12,324.29 L 541.91,362.57 L 475.06,383.02 L 473.50,385.72 L 462.14,386.39 L 451.89,384.91 L 455.35,384.49 L 451.08,382.69 L 439.56,386.89 L 417.65,386.25 L 424.15,381.94 L 430.00,383.02 L 425.71,380.66 L 411.22,389.07 L 391.82,385.72 L 400.54,390.28 L 397.43,391.38 L 388.38,388.26 L 392.41,393.04 L 384.35,390.74 L 388.70,392.41 L 383.52,392.97 L 380.46,389.40 L 373.95,390.54 L 372.89,393.01 L 364.26,392.21 L 351.26,396.00 L 349.87,394.02 L 347.68,396.13 L 341.10,394.70 L 334.86,397.42 L 329.55,395.75 L 331.40,398.67 L 324.60,400.74 L 325.44,399.08 L 318.53,400.58 L 318.85,398.19 L 278.18,401.82 L 283.51,398.25 L 269.40,403.61 L 270.05,405.34 L 254.23,406.25 L 269.85,402.86 L 273.48,400.22 L 263.62,402.84 L 270.33,399.29 L 260.19,399.15 L 259.73,396.38 L 252.84,395.95 L 262.25,389.69 L 236.87,394.28 L 242.49,392.02 L 233.86,392.44 L 241.41,388.35 L 226.21,388.85 L 208.47,384.40 L 203.08,385.95 L 205.60,381.36 L 195.17,385.62 L 190.86,383.23 L 193.64,383.23 L 185.87,382.83 L 188.68,381.98 L 183.35,379.49 L 188.68,378.24 L 182.23,375.31 L 186.78,373.02 L 180.86,368.23 L 189.24,368.23 L 187.43,364.88 L 192.71,363.84 L 188.96,362.57 L 192.08,361.54 L 191.16,358.63 L 187.72,357.79 L 193.36,357.38 L 186.49,355.28 L 194.26,355.28 L 189.24,352.77 L 199.93,354.01 L 191.77,350.27 L 190.86,348.40 L 193.98,348.82 L 188.68,346.93 L 186.13,342.45 L 178.02,340.07 L 184.31,331.49 L 181.48,332.55 L 182.70,328.79 L 179.58,327.10 L 177.08,329.41 L 176.46,326.90 L 173.31,327.31 L 173.00,322.74 L 176.05,321.32 L 170.19,321.47 L 174.56,317.71 L 172.40,315.83 L 185.06,312.81 L 187.50,307.92 L 198.66,308.34 L 189.90,302.80 L 208.07,301.23 L 207.45,303.75 L 212.15,304.80 L 214.02,301.88 L 220.89,302.08 L 227.97,300.52 L 229.96,299.38 L 221.82,296.04 L 231.24,296.43 L 225.74,293.14 L 231.50,295.25 L 239.80,287.75 L 248.22,290.06 L 254.08,287.68 L 250.94,287.06 L 255.18,286.53 L 254.11,284.96 L 258.60,285.92 L 261.44,283.20 L 277.56,281.01 L 276.68,277.01 L 286.18,277.88 L 284.77,275.45 L 301.66,271.21 L 304.45,266.87 L 319.96,262.56 L 331.09,254.93 L 328.84,254.20 L 354.25,250.76 L 366.13,253.46 L 366.35,250.98 L 358.64,249.28 L 370.18,249.28 L 366.16,245.33 L 359.58,244.50 L 364.88,241.37 L 365.22,237.81 L 362.08,236.78 L 366.16,235.73 L 364.70,232.84 L 343.49,228.21 L 335.11,228.93 L 329.39,225.03 L 336.70,220.50 L 327.94,224.04 L 313.66,224.56 L 305.14,216.34 L 290.06,210.00 L 288.37,203.86 L 298.85,200.67 L 299.33,194.96 L 304.43,193.31 L 285.12,182.72 L 286.10,179.46 L 294.45,177.10 L 293.52,174.59 L 278.27,172.60 L 283.85,169.51 L 280.55,161.06 L 288.81,158.44 L 272.57,152.50 L 266.13,153.22 L 261.63,148.10 L 249.81,144.91 L 216.19,142.41 L 162.91,129.70 L 163.16,127.08 L 150.00,125.38 L 155.54,123.31 L 170.48,125.37 L 174.35,123.82 L 168.75,120.97 L 171.71,119.20 L 196.39,118.23 L 229.85,131.89 L 231.58,135.23 L 267.59,138.12 L 301.00,132.08 L 345.59,139.98 L 355.97,137.22 L 359.12,132.19 L 378.60,130.32 L 386.27,126.69 L 383.60,119.85 L 395.83,105.50 L 404.66,104.71 L 419.98,98.32 L 445.86,99.03 L 480.87,93.75 L 505.43,102.06 L 539.35,106.28 L 548.37,112.35 L 525.88,120.29 L 524.76,123.73 L 530.53,125.66 L 505.69,129.58 Z M 233.11,400.58 L 230.38,400.73 L 228.83,398.58 L 233.11,400.58 Z M 193.30,395.32 L 197.10,395.76 L 195.22,397.39 L 189.90,396.38 L 193.30,395.32 Z M 206.20,394.51 L 207.76,395.13 L 199.00,396.80 L 206.20,394.51 Z M 184.06,394.52 L 187.72,394.91 L 179.58,394.70 L 184.06,394.52 Z M 213.31,396.32 L 209.94,395.13 L 214.80,394.07 L 213.31,396.32 Z M 387.47,393.92 L 389.95,393.89 L 388.09,394.53 L 387.47,393.92 Z M 224.12,393.10 L 226.22,393.04 L 225.19,394.54 L 222.45,394.28 L 224.12,393.10 Z M 375.97,392.65 L 376.49,391.48 L 381.18,393.04 L 375.97,392.65 Z M 256.58,391.58 L 246.23,400.35 L 234.35,400.58 L 232.17,397.01 L 240.31,396.17 L 231.86,395.95 L 233.36,393.76 L 234.20,394.91 L 256.58,391.58 Z M 224.30,391.02 L 228.40,391.79 L 216.55,392.30 L 224.30,391.02 Z M 227.18,390.73 L 231.08,389.69 L 234.69,390.73 L 227.18,390.73 Z M 203.49,389.12 L 204.13,386.29 L 209.78,387.61 L 212.78,390.34 L 203.49,389.12 Z M 198.35,386.35 L 202.12,384.49 L 201.95,384.91 L 198.35,386.35 Z M 178.64,385.33 L 177.68,383.46 L 179.93,383.99 L 181.79,385.84 L 178.64,385.33 Z M 189.24,384.49 L 187.43,386.16 L 182.22,384.51 L 189.24,384.49 Z M 177.86,382.42 L 176.98,381.74 L 179.58,380.92 L 180.86,383.23 L 177.86,382.42 Z M 176.46,373.42 L 180.86,373.23 L 179.55,371.03 L 184.31,372.18 L 181.74,373.70 L 176.46,373.42 Z M 178.33,304.58 L 170.82,300.40 L 178.33,300.61 L 176.12,302.29 L 180.31,302.73 L 186.49,301.65 L 178.33,304.58 Z M 181.61,299.91 L 177.68,299.15 L 184.31,298.53 L 181.61,299.91 Z M 352.75,246.95 L 341.68,246.96 L 337.24,248.17 L 342.03,249.10 L 337.80,249.77 L 329.95,247.14 L 349.62,246.60 L 352.75,246.95 Z M 299.41,402.03 L 297.28,401.88 L 298.32,401.33 L 299.41,402.03 Z M 255.21,398.51 L 252.73,400.32 L 251.95,398.81 L 255.21,398.51 Z M 256.14,397.92 L 251.51,398.00 L 253.62,396.88 L 256.14,397.92 Z M 213.46,396.77 L 209.69,396.71 L 211.16,396.30 L 213.46,396.77 Z M 230.02,394.29 L 230.50,394.56 L 226.06,395.94 L 230.02,394.29 Z M 211.65,391.81 L 213.27,391.45 L 213.17,391.61 L 211.65,391.81 Z M 208.76,391.97 L 207.20,391.22 L 211.69,391.09 L 208.76,391.97 Z M 221.62,390.10 L 220.07,389.79 L 224.57,389.11 L 221.62,390.10 Z M 222.37,389.07 L 217.65,389.72 L 219.19,388.96 L 222.37,389.07 Z M 183.44,389.79 L 180.66,389.22 L 181.27,388.64 L 183.44,389.79 Z M 425.41,387.50 L 418.77,388.22 L 421.85,387.66 L 425.41,387.50 Z M 215.02,300.57 L 211.90,300.64 L 212.39,299.72 L 215.02,300.57 Z M 216.05,299.47 L 223.45,298.85 L 218.12,300.51 L 216.05,299.47 Z M 212.73,297.45 L 217.28,297.49 L 216.37,298.20 L 210.94,299.07 L 212.73,297.45 Z M 246.67,287.23 L 244.02,285.92 L 247.78,285.07 L 246.67,287.23 Z M 233.16,405.02 L 231.79,404.73 L 233.77,404.37 L 233.16,405.02 Z M 195.84,392.81 L 192.95,393.61 L 194.02,392.30 L 195.84,392.81 Z M 179.23,375.22 L 175.72,374.43 L 178.44,374.74 L 179.23,375.22 Z M 183.31,364.70 L 182.88,364.25 L 184.57,363.54 L 186.48,364.68 L 183.31,364.70 Z M 190.41,351.24 L 188.22,350.90 L 189.35,350.56 L 190.41,351.24 Z M 173.91,310.59 L 173.17,309.14 L 176.15,309.34 L 173.91,310.59 Z" fill="#4A90D9" stroke="#1a5fa8" stroke-width="1.2"/>
<path d="M 721.75,226.60 L 744.38,221.44 L 750.88,221.59 L 738.49,223.17 L 758.63,223.92 L 743.58,226.49 L 747.04,229.22 L 721.75,226.60 Z" fill="#A8C8E8" stroke="none"/>
<path d="M 634.97,219.24 L 640.27,220.90 L 634.93,221.92 L 637.07,223.43 L 631.86,223.20 L 630.11,222.11 L 634.24,221.62 L 607.62,216.75 L 611.94,214.15 L 605.43,212.20 L 617.91,210.97 L 612.18,207.30 L 628.69,208.93 L 628.86,206.50 L 635.72,203.66 L 649.81,202.00 L 660.42,203.60 L 637.75,204.52 L 642.36,206.11 L 627.26,211.61 L 632.63,212.62 L 631.94,215.66 L 636.73,216.95 L 634.97,219.24 Z M 620.78,216.25 L 621.83,216.05 L 616.82,215.95 L 620.78,216.25 Z M 624.01,211.45 L 620.07,211.77 L 622.33,212.88 L 624.01,211.45 Z" fill="#A8C8E8" stroke="none"/>
<path d="M 582.53,360.69 L 590.25,360.29 L 584.92,359.25 L 587.76,357.15 L 594.33,356.32 L 588.69,354.01 L 599.27,355.27 L 598.97,353.81 L 607.81,353.40 L 603.77,351.73 L 616.74,346.35 L 626.25,348.40 L 627.56,351.09 L 641.27,351.10 L 652.54,357.70 L 651.34,355.26 L 692.89,365.90 L 696.17,370.11 L 706.47,374.28 L 706.85,378.53 L 713.26,380.51 L 705.44,386.57 L 697.14,383.92 L 701.04,388.24 L 696.07,389.77 L 698.28,392.48 L 695.69,394.69 L 683.01,396.42 L 677.16,393.93 L 657.62,392.63 L 650.89,395.42 L 648.52,402.72 L 629.80,402.94 L 625.93,402.00 L 631.35,399.91 L 628.82,395.87 L 610.56,382.84 L 602.70,381.32 L 602.29,375.08 L 568.98,363.41 L 578.82,365.39 L 570.86,362.16 L 574.18,360.72 L 581.87,362.66 L 582.53,360.69 Z M 614.97,347.76 L 610.97,349.93 L 616.51,351.17 L 614.97,347.76 Z M 617.47,349.34 L 619.99,350.27 L 619.76,348.73 L 617.47,349.34 Z M 608.94,353.05 L 609.66,352.97 L 606.52,352.12 L 608.94,353.05 Z M 604.90,354.84 L 606.52,354.24 L 606.21,354.01 L 604.90,354.84 Z M 595.15,355.80 L 596.80,355.90 L 595.87,355.47 L 595.15,355.80 Z M 618.77,358.21 L 625.14,357.54 L 622.17,357.50 L 618.77,358.21 Z M 648.92,359.45 L 654.10,360.49 L 653.50,359.04 L 648.92,359.45 Z M 661.43,360.83 L 664.44,360.90 L 660.58,359.36 L 655.00,358.42 L 661.43,360.83 Z M 593.00,358.27 L 594.33,358.21 L 589.02,358.40 L 593.00,358.27 Z M 577.41,362.78 L 574.26,361.97 L 574.81,362.47 L 577.41,362.78 Z M 605.35,373.34 L 603.99,374.06 L 605.98,374.31 L 605.35,373.34 Z M 614.69,348.60 L 614.69,348.59 L 614.70,348.62 L 614.69,348.60 Z" fill="#A8C8E8" stroke="none"/>
<path d="M 798.72,369.46 L 796.26,366.37 L 800.00,363.22 L 800.00,369.15 L 798.72,369.46 Z M 794.04,352.33 L 775.56,344.85 L 775.09,342.85 L 786.35,346.39 L 789.53,342.46 L 774.00,335.67 L 773.07,331.38 L 764.48,326.74 L 760.55,327.96 L 758.05,323.64 L 764.25,323.96 L 764.38,326.28 L 778.04,331.70 L 775.22,334.02 L 795.07,338.60 L 786.53,332.55 L 794.06,334.68 L 792.16,331.92 L 781.10,325.49 L 797.33,331.98 L 796.21,329.22 L 787.07,325.77 L 782.10,321.47 L 793.10,325.63 L 799.96,329.82 L 800.00,329.94 L 800.00,353.46 L 794.04,352.33 Z M 788.94,339.54 L 787.78,339.60 L 790.08,341.46 L 788.94,339.54 Z M 799.79,321.29 L 800.00,321.36 L 800.00,321.44 L 786.81,316.68 L 781.96,311.87 L 793.88,314.87 L 799.87,313.82 L 800.00,313.86 L 800.00,321.00 L 799.79,321.29 Z" fill="#A8C8E8" stroke="none"/>
<path d="M 483.77,368.17 L 478.18,365.32 L 498.87,365.32 L 488.80,361.66 L 471.31,362.16 L 471.57,364.05 L 458.79,362.57 L 463.80,361.74 L 456.29,359.25 L 455.98,360.29 L 452.20,360.29 L 453.07,358.04 L 457.85,356.76 L 452.62,354.96 L 463.49,355.90 L 453.95,353.71 L 453.79,349.98 L 458.79,351.10 L 454.73,353.81 L 465.39,354.43 L 460.68,353.18 L 462.55,350.27 L 467.31,352.83 L 477.88,348.82 L 468.48,346.51 L 472.25,345.68 L 483.00,349.30 L 488.53,355.28 L 497.62,352.56 L 498.05,347.44 L 511.07,347.16 L 508.56,344.00 L 526.21,344.35 L 501.06,337.33 L 509.20,338.57 L 506.36,337.58 L 481.67,335.25 L 486.34,334.41 L 478.82,329.62 L 484.13,329.82 L 478.63,329.10 L 481.01,328.14 L 476.62,325.24 L 475.06,327.95 L 467.72,325.52 L 469.83,327.20 L 466.77,327.64 L 458.48,323.78 L 460.37,325.24 L 452.89,325.45 L 446.79,320.34 L 456.30,324.60 L 456.74,321.88 L 461.61,324.02 L 466.47,322.74 L 466.60,324.21 L 475.06,327.11 L 468.48,323.45 L 474.88,323.94 L 464.44,321.17 L 470.66,322.12 L 468.01,319.26 L 472.34,316.59 L 468.83,315.51 L 473.17,314.65 L 470.35,313.33 L 473.16,311.67 L 466.44,314.30 L 459.10,312.52 L 459.41,309.79 L 452.52,308.34 L 455.01,307.72 L 449.09,307.30 L 453.45,306.25 L 447.21,303.54 L 452.52,302.71 L 448.77,299.77 L 453.45,299.99 L 448.58,296.06 L 449.39,293.72 L 440.33,294.15 L 435.67,291.17 L 447.98,292.05 L 454.38,297.28 L 449.39,296.24 L 453.80,298.73 L 457.97,297.93 L 459.35,299.95 L 455.35,301.88 L 458.48,303.95 L 451.27,303.95 L 459.55,308.77 L 470.04,309.79 L 467.57,308.15 L 476.54,311.26 L 478.57,309.79 L 473.50,307.10 L 479.28,305.62 L 481.94,309.17 L 504.17,307.72 L 492.60,310.65 L 498.21,313.76 L 492.91,313.99 L 496.03,318.35 L 499.56,318.51 L 497.62,320.02 L 516.70,322.74 L 531.09,327.95 L 514.70,326.85 L 507.92,324.21 L 516.70,325.24 L 514.68,324.15 L 503.24,321.27 L 496.33,323.55 L 496.97,326.71 L 490.05,326.15 L 494.04,323.66 L 488.21,319.39 L 492.60,319.39 L 484.77,316.18 L 474.12,319.80 L 480.70,320.45 L 479.17,321.15 L 473.81,320.64 L 482.04,326.44 L 489.32,326.59 L 484.19,331.74 L 502.58,330.65 L 512.03,333.40 L 520.76,329.62 L 517.14,327.45 L 531.73,334.63 L 523.25,332.13 L 529.53,334.63 L 518.26,333.38 L 525.44,335.48 L 521.69,335.67 L 542.99,334.82 L 537.11,333.34 L 547.34,334.77 L 551.43,332.74 L 545.18,332.13 L 546.41,329.41 L 542.70,327.32 L 547.96,325.96 L 542.04,322.74 L 545.49,321.06 L 562.89,327.86 L 558.64,325.24 L 561.47,325.14 L 558.74,323.58 L 561.96,320.62 L 575.90,325.94 L 566.49,328.79 L 571.76,330.25 L 557.39,330.66 L 579.24,335.60 L 574.29,337.02 L 555.84,334.19 L 556.46,337.14 L 551.71,336.49 L 569.29,341.73 L 564.93,342.98 L 565.45,345.12 L 551.43,347.16 L 552.37,348.82 L 546.43,349.08 L 544.18,351.74 L 534.54,351.32 L 537.35,352.95 L 522.32,349.04 L 514.21,350.50 L 515.15,351.75 L 521.67,351.14 L 526.08,352.56 L 518.26,352.12 L 519.23,355.47 L 511.37,354.87 L 512.49,357.74 L 500.58,359.31 L 517.52,358.73 L 526.46,363.16 L 501.64,367.81 L 483.77,368.17 Z M 515.38,363.89 L 517.95,363.41 L 515.15,362.57 L 512.79,362.57 L 515.38,363.89 Z M 475.45,353.49 L 477.26,356.32 L 464.11,355.47 L 477.88,356.94 L 473.81,357.80 L 480.07,357.56 L 484.74,355.31 L 475.45,353.49 Z M 474.12,361.74 L 469.44,358.21 L 455.01,358.00 L 474.12,361.74 Z M 500.09,357.38 L 511.68,356.76 L 505.69,354.44 L 495.41,356.32 L 500.09,357.38 Z M 503.55,354.24 L 508.56,352.33 L 504.49,352.12 L 498.04,353.65 L 503.55,354.24 Z M 499.78,351.52 L 511.68,351.10 L 507.62,348.82 L 509.81,348.20 L 505.44,348.59 L 505.89,350.04 L 503.83,347.94 L 499.78,351.52 Z M 540.50,347.16 L 546.41,345.06 L 547.75,340.54 L 556.11,341.31 L 544.88,335.04 L 546.10,340.07 L 541.76,339.01 L 539.87,337.14 L 543.93,337.17 L 541.00,335.31 L 517.95,337.94 L 540.50,347.16 Z M 477.36,323.52 L 471.31,322.53 L 476.20,323.85 L 478.51,325.05 L 477.36,323.52 Z M 481.23,314.71 L 494.50,316.90 L 489.15,315.86 L 492.60,314.58 L 489.15,313.33 L 492.91,312.91 L 488.53,312.71 L 489.48,309.79 L 479.76,311.44 L 481.23,314.71 Z" fill="#A8C8E8" stroke="none"/>
<path d="M 411.86,356.94 L 404.32,360.70 L 408.69,360.90 L 407.29,363.08 L 400.54,362.37 L 404.32,362.99 L 403.70,366.34 L 408.08,367.38 L 399.61,372.17 L 396.01,371.14 L 403.07,367.08 L 394.93,363.84 L 388.53,365.81 L 389.95,364.46 L 380.28,361.34 L 378.41,363.01 L 383.03,363.63 L 372.71,366.56 L 377.67,367.53 L 378.41,370.27 L 371.26,367.02 L 370.21,368.84 L 363.94,367.99 L 374.24,364.88 L 373.49,362.06 L 367.98,362.78 L 368.62,360.06 L 363.94,360.70 L 360.51,358.21 L 363.97,357.90 L 356.75,356.11 L 360.18,355.53 L 356.47,353.62 L 367.80,352.95 L 371.15,350.50 L 357.69,345.47 L 365.99,346.83 L 371.16,343.55 L 359.59,343.81 L 367.40,342.53 L 363.32,341.50 L 372.09,342.56 L 376.16,340.07 L 373.33,339.22 L 383.29,338.91 L 378.68,336.17 L 370.75,336.19 L 370.33,334.49 L 382.05,335.62 L 383.03,332.32 L 392.78,329.82 L 391.16,326.01 L 385.86,326.07 L 389.35,324.81 L 376.45,321.36 L 386.44,319.73 L 386.18,316.68 L 391.41,318.23 L 392.14,316.14 L 386.19,315.86 L 391.81,313.33 L 386.80,311.87 L 395.24,312.30 L 374.60,306.05 L 374.60,310.21 L 364.88,308.96 L 372.96,308.49 L 368.93,305.41 L 374.24,305.41 L 378.15,301.43 L 379.50,304.70 L 387.78,306.98 L 387.11,304.80 L 392.78,305.82 L 402.45,309.98 L 395.40,310.18 L 414.43,317.32 L 409.74,318.32 L 397.64,313.34 L 399.92,315.26 L 395.10,316.58 L 397.42,318.96 L 393.78,318.18 L 400.54,320.64 L 390.47,319.30 L 386.07,320.24 L 388.51,322.30 L 383.81,321.96 L 394.76,326.98 L 399.55,322.90 L 402.10,325.24 L 398.05,326.71 L 405.25,328.14 L 403.85,322.21 L 412.23,319.59 L 420.92,320.84 L 409.95,312.47 L 421.25,318.62 L 432.89,321.21 L 432.34,319.41 L 435.65,318.54 L 416.22,310.42 L 431.13,315.64 L 426.24,309.59 L 434.06,311.67 L 427.16,308.74 L 433.78,310.01 L 438.43,308.15 L 441.15,308.10 L 443.76,308.55 L 439.72,309.59 L 444.08,311.45 L 437.23,309.79 L 440.04,311.87 L 435.30,312.71 L 439.72,313.99 L 437.83,312.91 L 449.71,314.58 L 440.97,313.56 L 440.97,316.05 L 432.81,314.18 L 443.76,319.39 L 437.83,318.96 L 442.32,321.79 L 433.75,319.70 L 436.24,321.27 L 431.86,323.59 L 439.24,326.18 L 432.50,324.40 L 426.83,325.85 L 430.63,322.12 L 426.63,320.95 L 424.06,326.48 L 421.35,327.99 L 416.22,327.32 L 415.40,330.33 L 411.78,329.07 L 415.29,327.32 L 413.11,326.29 L 419.07,327.19 L 416.78,325.76 L 422.70,323.26 L 410.79,321.43 L 405.41,323.25 L 409.66,330.25 L 397.42,327.73 L 404.95,330.94 L 399.92,331.29 L 394.60,327.54 L 393.68,330.03 L 398.05,331.70 L 393.04,331.29 L 392.31,335.02 L 395.86,336.73 L 390.52,335.26 L 390.59,332.76 L 385.58,337.97 L 392.04,340.14 L 378.01,340.37 L 380.84,342.15 L 378.37,342.67 L 383.96,342.98 L 377.39,343.81 L 375.83,346.31 L 383.96,344.85 L 378.34,349.63 L 385.86,352.56 L 377.02,351.20 L 374.89,351.93 L 378.97,352.12 L 374.24,354.87 L 383.03,356.53 L 372.71,356.32 L 377.11,358.00 L 373.96,361.12 L 389.91,361.52 L 399.65,364.69 L 402.45,363.63 L 399.61,361.97 L 411.86,356.94 Z" fill="#A8C8E8" stroke="none"/>
<path d="M 468.33,454.49 L 469.13,457.29 L 484.47,456.04 L 493.85,460.95 L 494.37,464.56 L 485.16,465.81 L 473.74,460.21 L 469.41,462.50 L 464.42,454.18 L 468.33,454.49 Z" fill="#A8C8E8" stroke="none"/>
<path d="M 593.69,242.43 L 609.50,246.38 L 627.81,244.92 L 613.75,243.43 L 616.24,242.18 L 645.01,243.04 L 652.85,244.71 L 650.32,246.16 L 656.28,247.62 L 653.78,247.83 L 669.78,251.17 L 654.10,250.12 L 646.10,245.20 L 638.48,244.09 L 630.45,244.59 L 633.13,246.53 L 617.25,245.80 L 615.59,249.28 L 601.50,250.76 L 612.47,248.87 L 593.69,242.43 Z" fill="#A8C8E8" stroke="none"/>
<path d="M 441.89,129.55 L 462.81,126.69 L 482.64,120.63 L 487.92,122.23 L 500.09,120.37 L 490.21,121.22 L 486.82,117.86 L 493.88,116.79 L 491.54,119.99 L 501.99,117.64 L 494.14,118.68 L 497.94,116.87 L 514.21,115.14 L 503.83,118.20 L 524.77,113.20 L 505.40,118.94 L 516.70,119.10 L 506.40,121.44 L 505.11,123.49 L 509.79,122.79 L 508.25,125.15 L 499.18,123.56 L 490.71,126.53 L 504.49,130.80 L 481.62,129.72 L 481.89,131.72 L 491.97,132.05 L 478.34,135.17 L 475.37,134.95 L 482.91,132.87 L 476.67,131.81 L 473.05,134.71 L 470.04,135.58 L 472.25,134.54 L 460.64,133.33 L 454.88,135.39 L 450.64,134.73 L 456.41,133.19 L 467.26,132.67 L 457.27,129.39 L 441.89,129.55 Z" fill="#A8C8E8" stroke="none"/>
<path d="M 460.05,449.90 L 452.11,448.48 L 448.64,441.21 L 439.24,437.17 L 443.31,432.65 L 474.80,431.14 L 479.33,447.02 L 462.61,454.67 L 460.05,449.90 Z M 463.95,450.07 L 465.39,450.02 L 463.71,449.42 L 463.95,450.07 Z" fill="#A8C8E8" stroke="none"/>
<path d="M 466.13,372.18 L 455.35,370.72 L 458.16,368.65 L 461.07,370.76 L 472.09,370.72 L 475.68,369.06 L 470.94,367.66 L 474.30,367.54 L 481.32,370.07 L 470.02,371.88 L 466.13,372.18 Z" fill="#A8C8E8" stroke="none"/>
<path d="M 544.57,318.77 L 541.59,316.57 L 546.19,315.07 L 549.79,319.12 L 553.62,317.30 L 558.64,319.39 L 544.36,319.89 L 539.35,318.42 L 544.57,318.77 Z" fill="#A8C8E8" stroke="none"/>
<path d="M 688.24,173.77 L 688.55,173.78 L 688.23,173.78 L 688.24,173.77 Z" fill="#A8C8E8" stroke="none"/>
<path d="M 791.25,283.71 L 788.42,286.44 L 798.90,286.27 L 800.00,286.99 L 800.00,295.26 L 797.50,294.57 L 800.00,297.38 L 800.00,301.42 L 796.91,296.72 L 781.16,294.77 L 785.72,294.50 L 782.60,293.08 L 785.18,291.97 L 775.89,287.12 L 773.06,290.60 L 769.60,291.03 L 769.92,288.36 L 776.26,286.10 L 772.77,283.30 L 791.25,283.71 Z M 795.95,290.82 L 798.72,291.45 L 798.16,290.94 L 795.95,290.82 Z M 793.02,295.65 L 794.82,295.08 L 792.44,293.31 L 788.24,294.22 L 793.02,295.65 Z M 798.72,312.52 L 799.96,307.21 L 800.00,307.20 L 800.00,312.05 L 798.72,312.52 Z" fill="#A8C8E8" stroke="none"/>
<path d="M 796.85,290.82 L 797.16,290.81 L 797.43,290.82 L 796.85,290.82 Z" fill="#A8C8E8" stroke="none"/>
<path d="M 738.30,294.15 L 742.84,295.39 L 741.75,293.11 L 745.46,296.66 L 759.87,296.40 L 757.66,299.43 L 769.60,303.33 L 735.73,303.04 L 726.39,297.72 L 735.61,300.67 L 733.97,297.60 L 725.09,296.55 L 724.52,295.81 L 738.30,294.15 Z" fill="#A8C8E8" stroke="none"/>
<path d="M 581.80,301.46 L 574.50,301.62 L 578.05,302.89 L 578.66,307.19 L 596.78,315.64 L 589.45,314.33 L 585.00,317.36 L 581.17,317.92 L 589.66,312.91 L 568.88,306.30 L 569.10,303.63 L 561.31,305.50 L 559.56,303.13 L 550.43,303.66 L 529.84,293.29 L 539.97,295.18 L 534.54,290.82 L 559.59,299.27 L 581.80,301.46 Z" fill="#A8C8E8" stroke="none"/>
<path d="M 666.66,228.84 L 651.25,227.17 L 645.33,223.85 L 662.96,220.66 L 678.81,221.34 L 663.51,222.38 L 681.65,222.79 L 673.49,223.62 L 688.55,229.27 L 682.65,231.02 L 699.49,233.31 L 702.53,236.13 L 669.75,231.62 L 666.66,228.84 Z M 679.74,231.76 L 682.90,231.98 L 678.37,231.01 L 679.74,231.76 Z M 667.59,226.78 L 664.75,226.11 L 660.66,226.97 L 667.59,226.78 Z M 668.68,228.00 L 671.37,228.02 L 667.44,227.24 L 668.68,228.00 Z" fill="#A8C8E8" stroke="none"/>
<path d="M 619.71,341.09 L 616.24,339.63 L 618.12,337.97 L 614.03,336.73 L 622.27,336.94 L 627.32,340.64 L 621.02,342.48 L 617.13,341.05 L 619.71,341.09 Z" fill="#A8C8E8" stroke="none"/>
<path d="M 528.28,351.93 L 525.82,351.73 L 526.66,351.53 L 528.28,351.93 Z" fill="#A8C8E8" stroke="none"/>
<path d="M 426.55,348.20 L 435.54,350.11 L 437.23,352.56 L 431.98,353.21 L 419.97,345.93 L 407.75,343.38 L 414.12,340.00 L 416.88,341.09 L 411.86,343.81 L 417.47,344.08 L 420.83,341.11 L 425.77,343.92 L 432.81,343.38 L 426.55,341.73 L 422.07,338.12 L 435.88,342.67 L 436.25,347.35 L 443.76,349.44 L 426.55,348.20 Z" fill="#A8C8E8" stroke="none"/>
<path d="M 323.55,352.33 L 331.69,354.43 L 317.69,354.22 L 311.66,356.58 L 308.89,360.44 L 313.87,359.67 L 319.18,361.97 L 312.82,360.68 L 303.84,363.22 L 320.34,364.78 L 321.99,366.13 L 319.15,366.61 L 326.06,369.46 L 318.28,366.32 L 315.77,368.06 L 293.49,363.41 L 293.18,359.67 L 296.63,363.57 L 303.22,364.05 L 301.35,362.57 L 306.77,360.20 L 302.91,357.15 L 320.04,352.92 L 319.07,350.32 L 339.87,347.76 L 334.60,348.91 L 336.42,350.27 L 323.55,352.33 Z" fill="#A8C8E8" stroke="none"/>
<path d="M 281.41,358.42 L 291.62,360.06 L 291.37,362.54 L 273.48,358.62 L 284.14,355.28 L 290.92,355.02 L 284.07,350.67 L 288.22,349.63 L 283.20,348.59 L 290.18,348.20 L 289.16,345.06 L 293.49,344.62 L 287.60,342.56 L 297.06,343.97 L 296.71,342.13 L 307.58,340.48 L 302.97,336.47 L 288.58,336.19 L 286.95,333.17 L 298.51,335.56 L 303.06,332.27 L 302.17,335.31 L 313.55,334.46 L 307.93,335.67 L 311.69,335.87 L 308.89,337.77 L 314.03,338.57 L 318.24,335.87 L 320.58,336.61 L 316.96,338.16 L 319.80,339.01 L 330.42,339.03 L 316.96,334.19 L 331.08,337.54 L 331.40,331.70 L 336.12,331.21 L 335.40,334.02 L 339.87,332.96 L 330.74,339.41 L 337.67,342.98 L 328.39,339.35 L 316.96,340.07 L 307.58,338.38 L 313.25,340.88 L 305.12,341.31 L 307.93,342.35 L 291.94,346.51 L 295.99,347.76 L 291.98,350.24 L 301.35,350.06 L 292.87,351.10 L 295.99,351.17 L 295.64,353.76 L 291.00,355.47 L 281.41,358.42 Z" fill="#A8C8E8" stroke="none"/>
<path d="M 270.64,357.80 L 259.98,357.72 L 256.75,359.67 L 244.53,361.53 L 242.46,363.93 L 239.34,363.63 L 246.63,360.23 L 256.17,359.15 L 259.68,356.67 L 276.29,355.90 L 268.77,356.50 L 270.64,357.80 Z" fill="#A8C8E8" stroke="none"/>
<path d="M 419.98,306.67 L 424.35,311.04 L 404.63,300.80 L 416.22,304.58 L 424.99,303.33 L 413.11,298.53 L 429.07,299.38 L 424.64,299.99 L 430.63,303.13 L 419.98,306.67 Z" fill="#A8C8E8" stroke="none"/>
<path d="M 413.70,351.32 L 404.94,346.92 L 403.22,348.55 L 398.83,347.87 L 398.67,350.06 L 404.63,350.91 L 403.07,354.01 L 388.70,349.44 L 393.35,348.82 L 392.66,345.28 L 402.28,347.45 L 405.25,344.00 L 409.32,348.64 L 417.64,347.35 L 420.98,350.89 L 413.70,351.32 Z" fill="#A8C8E8" stroke="none"/>
<path d="M 615.31,283.71 L 615.93,281.02 L 619.44,281.87 L 617.57,283.00 L 631.89,284.43 L 634.08,285.59 L 623.42,284.75 L 631.90,287.68 L 626.87,288.31 L 631.24,291.03 L 618.91,288.29 L 620.96,285.59 L 608.74,284.14 L 615.31,283.71 Z" fill="#A8C8E8" stroke="none"/>
<path d="M 540.50,208.83 L 532.00,209.22 L 536.75,210.26 L 518.33,214.45 L 502.63,215.51 L 519.23,215.08 L 508.85,216.93 L 490.25,216.95 L 489.14,214.12 L 480.07,212.77 L 491.74,213.34 L 493.49,215.99 L 515.15,213.41 L 511.07,212.36 L 525.77,210.91 L 520.80,207.40 L 540.50,208.83 Z" fill="#A8C8E8" stroke="none"/>
<path d="M 710.94,221.96 L 702.94,220.09 L 708.91,216.93 L 706.51,216.41 L 713.18,216.44 L 708.35,217.67 L 712.23,219.69 L 720.86,219.84 L 719.86,223.17 L 707.63,225.28 L 702.32,224.87 L 705.44,224.04 L 700.76,222.18 L 710.94,221.96 Z M 707.29,222.46 L 704.51,223.00 L 714.54,222.79 L 707.29,222.46 Z" fill="#A8C8E8" stroke="none"/>
<path d="M 402.07,453.98 L 398.87,458.29 L 391.51,451.35 L 394.56,448.95 L 401.17,449.58 L 402.07,453.98 Z" fill="#A8C8E8" stroke="none"/>
<path d="M 35.76,224.69 L 45.26,224.59 L 54.38,228.21 L 38.70,227.38 L 40.44,228.44 L 36.05,228.73 L 38.50,229.83 L 34.27,229.33 L 35.30,226.55 L 27.81,220.83 L 35.76,224.69 Z" fill="#A8C8E8" stroke="none"/>
<path d="M 18.28,222.52 L 14.61,219.88 L 18.68,218.78 L 6.50,215.51 L 1.79,217.59 L 0.00,215.95 L 0.00,214.51 L 23.68,215.51 L 14.34,213.72 L 12.83,211.19 L 34.68,215.51 L 26.06,216.27 L 29.03,219.03 L 18.28,222.52 Z" fill="#A8C8E8" stroke="none"/>
<path d="M 661.23,264.63 L 657.87,261.38 L 660.73,261.34 L 672.44,264.41 L 668.22,264.54 L 670.09,266.61 L 659.75,266.82 L 639.58,264.89 L 638.13,262.64 L 661.23,264.63 Z" fill="#A8C8E8" stroke="none"/>
<path d="M 434.53,366.63 L 431.09,364.46 L 432.08,367.10 L 428.10,367.19 L 421.84,362.57 L 431.32,361.65 L 422.15,357.56 L 427.92,352.71 L 423.71,350.50 L 423.71,348.82 L 428.74,351.10 L 425.60,351.32 L 428.87,352.57 L 426.83,356.76 L 440.64,357.80 L 424.06,357.38 L 433.47,360.90 L 431.25,363.84 L 439.18,365.81 L 434.53,366.63 Z" fill="#A8C8E8" stroke="none"/>
<path d="M 3.12,384.75 L 0.00,387.29 L 0.00,385.56 L 3.12,384.75 Z" fill="#A8C8E8" stroke="none"/>
<path d="M 565.67,380.68 L 559.87,378.67 L 574.91,379.67 L 568.05,378.24 L 568.02,374.31 L 570.16,377.98 L 590.56,379.82 L 600.25,382.84 L 579.61,380.00 L 565.67,380.68 Z" fill="#A8C8E8" stroke="none"/>
<path d="M 500.71,423.09 L 497.24,421.71 L 490.87,426.41 L 491.65,422.60 L 484.51,422.47 L 479.74,426.03 L 482.53,422.10 L 491.35,421.21 L 488.41,420.53 L 508.01,421.19 L 500.71,423.09 Z" fill="#A8C8E8" stroke="none"/>
<path d="M 151.43,161.66 L 158.60,163.34 L 145.91,161.80 L 129.56,156.36 L 122.75,151.95 L 79.11,146.20 L 63.43,146.23 L 55.97,142.48 L 85.92,146.68 L 113.92,147.42 L 116.97,148.31 L 101.64,148.73 L 123.87,150.23 L 130.95,156.22 L 135.75,155.67 L 140.43,158.32 L 140.77,156.65 L 146.20,161.39 L 157.47,160.67 L 151.43,161.66 Z" fill="#A8C8E8" stroke="none"/>
<path d="M 544.63,116.73 L 547.48,117.12 L 547.50,119.42 L 539.69,119.52 L 544.63,116.73 Z" fill="#A8C8E8" stroke="none"/>
<path d="M 2.75,211.09 L 0.41,210.38 L 6.53,210.37 L 0.00,208.95 L 0.00,206.93 L 0.69,207.01 L 12.46,212.11 L 2.75,211.09 Z" fill="#A8C8E8" stroke="none"/>
<path d="M 557.39,273.08 L 551.12,270.98 L 558.95,271.60 L 552.68,270.15 L 557.33,270.34 L 556.11,267.21 L 562.36,266.61 L 559.56,268.47 L 567.11,269.31 L 566.30,270.69 L 560.96,269.10 L 557.69,270.79 L 570.55,271.42 L 556.77,274.81 L 573.32,277.65 L 556.74,275.99 L 550.43,273.67 L 557.39,273.08 Z" fill="#A8C8E8" stroke="none"/>
<path d="M 552.68,276.21 L 519.02,276.65 L 505.11,273.91 L 503.55,275.38 L 510.12,277.25 L 504.49,276.40 L 504.17,279.14 L 499.78,277.88 L 502.63,276.21 L 498.87,274.55 L 503.54,273.28 L 528.75,275.99 L 539.38,273.30 L 552.68,276.21 Z" fill="#A8C8E8" stroke="none"/>
<path d="M 433.47,263.89 L 433.29,263.90 L 433.12,263.89 L 433.47,263.89 Z" fill="#A8C8E8" stroke="none"/>
<path d="M 728.27,150.81 L 720.15,149.15 L 725.77,148.94 L 722.34,146.45 L 724.87,146.13 L 730.94,149.80 L 728.27,150.81 Z" fill="#A8C8E8" stroke="none"/>
<path d="M 103.74,162.74 L 77.64,161.84 L 112.25,162.84 L 119.00,164.71 L 103.74,162.74 Z" fill="#A8C8E8" stroke="none"/>
<path d="M 584.63,348.82 L 579.28,348.82 L 579.64,345.53 L 573.82,347.67 L 572.70,343.81 L 579.34,342.21 L 563.34,336.49 L 572.70,337.42 L 586.56,345.85 L 584.63,348.82 Z" fill="#A8C8E8" stroke="none"/>
<path d="M 349.81,359.36 L 340.49,355.09 L 352.66,354.66 L 355.19,355.68 L 343.58,355.68 L 355.58,358.05 L 349.81,359.36 Z" fill="#A8C8E8" stroke="none"/>
<path d="M 287.35,308.36 L 282.58,305.10 L 286.40,301.62 L 293.49,306.05 L 287.35,308.36 Z" fill="#A8C8E8" stroke="none"/>
<path d="M 227.01,373.36 L 219.64,367.58 L 228.07,369.35 L 230.67,371.95 L 227.01,373.36 Z" fill="#A8C8E8" stroke="none"/>
<path d="M 298.21,395.89 L 298.21,394.91 L 293.88,395.42 L 291.94,394.70 L 295.83,392.03 L 306.02,392.50 L 302.75,391.48 L 305.86,390.64 L 307.32,392.57 L 298.21,395.89 Z" fill="#A8C8E8" stroke="none"/>
<path d="M 549.83,383.70 L 550.66,384.40 L 543.62,383.02 L 549.83,383.70 Z" fill="#A8C8E8" stroke="none"/>
<path d="M 767.11,342.15 L 763.42,341.67 L 765.54,341.31 L 767.11,342.15 Z" fill="#A8C8E8" stroke="none"/>
<path d="M 768.62,341.29 L 768.04,341.73 L 762.39,339.01 L 768.62,341.29 Z" fill="#A8C8E8" stroke="none"/>
<path d="M 770.80,339.92 L 762.08,336.06 L 766.83,336.91 L 770.80,339.92 Z" fill="#A8C8E8" stroke="none"/>
<path d="M 723.68,344.00 L 712.95,340.07 L 721.29,338.15 L 721.52,339.89 L 732.56,340.62 L 723.68,344.00 Z" fill="#A8C8E8" stroke="none"/>
<path d="M 582.27,370.83 L 578.01,372.03 L 571.48,369.25 L 578.99,369.06 L 574.26,367.19 L 580.86,369.46 L 582.27,370.83 Z" fill="#A8C8E8" stroke="none"/>
<path d="M 477.54,296.43 L 507.00,304.58 L 503.24,306.86 L 495.70,306.47 L 500.43,305.21 L 494.76,302.48 L 488.84,303.12 L 477.54,296.43 Z" fill="#A8C8E8" stroke="none"/>
<path d="M 452.29,218.85 L 446.96,218.59 L 442.68,214.88 L 435.65,216.12 L 439.40,214.25 L 432.72,212.51 L 453.17,216.33 L 452.29,218.85 Z" fill="#A8C8E8" stroke="none"/>
<path d="M 550.17,221.34 L 538.59,219.45 L 552.29,220.84 L 557.94,217.82 L 566.41,217.45 L 569.61,218.01 L 560.20,218.41 L 577.72,221.34 L 565.68,220.33 L 555.84,220.50 L 561.47,220.71 L 550.17,221.34 Z" fill="#A8C8E8" stroke="none"/>
<path d="M 548.61,244.27 L 548.91,246.12 L 538.31,247.83 L 536.75,250.76 L 539.25,251.17 L 535.19,251.59 L 542.99,253.88 L 525.16,251.17 L 534.76,250.20 L 533.91,245.34 L 540.07,242.22 L 539.25,245.75 L 543.50,246.20 L 552.63,241.71 L 556.70,242.04 L 548.61,244.27 Z" fill="#A8C8E8" stroke="none"/>
<path d="M 313.25,108.23 L 308.55,105.55 L 317.14,105.21 L 319.19,106.42 L 313.25,108.23 Z" fill="#A8C8E8" stroke="none"/>
<path d="M 799.06,191.71 L 800.00,191.58 L 800.00,191.59 L 799.06,191.71 Z" fill="#A8C8E8" stroke="none"/>
<path d="M 771.50,189.02 L 764.36,188.20 L 760.85,182.63 L 771.50,189.02 Z" fill="#A8C8E8" stroke="none"/>
<path d="M 724.83,184.83 L 732.68,182.73 L 726.39,180.65 L 744.25,185.87 L 724.83,184.83 Z" fill="#A8C8E8" stroke="none"/>
<path d="M 617.08,190.57 L 611.55,189.21 L 634.69,190.12 L 638.48,191.29 L 617.08,190.57 Z" fill="#A8C8E8" stroke="none"/>
<path d="M 668.72,211.59 L 651.25,209.85 L 656.00,208.83 L 650.97,207.56 L 656.27,206.33 L 673.80,207.56 L 668.72,211.59 Z M 662.85,208.18 L 659.32,207.55 L 659.75,208.30 L 662.85,208.18 Z" fill="#A8C8E8" stroke="none"/>
<path d="M 591.83,261.79 L 592.08,261.59 L 592.44,261.38 L 591.83,261.79 Z" fill="#A8C8E8" stroke="none"/>
<path d="M 586.08,267.27 L 586.51,263.59 L 583.36,262.64 L 592.14,261.38 L 588.38,264.95 L 595.26,264.72 L 590.58,265.99 L 593.92,266.63 L 586.08,267.27 Z" fill="#A8C8E8" stroke="none"/>
<path d="M 637.54,296.24 L 629.07,293.72 L 630.79,292.62 L 637.54,296.24 Z" fill="#A8C8E8" stroke="none"/>
<path d="M 691.67,311.87 L 674.90,308.76 L 673.80,306.77 L 691.67,311.87 Z" fill="#A8C8E8" stroke="none"/>
<path d="M 760.52,318.96 L 769.41,320.27 L 768.58,322.98 L 762.92,322.33 L 760.52,318.96 Z" fill="#A8C8E8" stroke="none"/>
<path d="M 754.37,324.08 L 747.52,324.22 L 751.46,318.82 L 754.37,324.08 Z" fill="#A8C8E8" stroke="none"/>
<path d="M 689.80,332.97 L 684.13,336.03 L 686.36,333.38 L 683.04,331.76 L 689.80,332.97 Z" fill="#A8C8E8" stroke="none"/>
<path d="M 676.00,331.12 L 676.26,331.21 L 675.69,331.07 L 676.00,331.12 Z" fill="#A8C8E8" stroke="none"/>
<path d="M 676.30,331.23 L 676.26,331.21 L 676.47,331.27 L 676.30,331.23 Z" fill="#A8C8E8" stroke="none"/>
<path d="M 676.64,331.29 L 676.47,331.27 L 676.56,331.28 L 676.64,331.29 Z" fill="#A8C8E8" stroke="none"/>
<path d="M 682.55,333.46 L 680.82,335.34 L 674.43,334.00 L 677.55,333.02 L 674.14,331.29 L 682.55,333.46 Z" fill="#A8C8E8" stroke="none"/>
<path d="M 95.99,198.39 L 55.11,190.81 L 44.35,191.51 L 31.15,191.68 L 21.94,191.13 L 17.87,189.49 L 56.64,190.14 L 97.55,196.71 L 95.99,198.39 Z" fill="#A8C8E8" stroke="none"/>
<path d="M 119.16,145.60 L 76.30,137.68 L 111.36,141.85 L 107.58,142.67 L 119.16,145.60 Z" fill="#A8C8E8" stroke="none"/>
<path d="M 593.77,485.94 L 593.70,485.99 L 593.70,485.96 L 593.77,485.94 Z" fill="#A8C8E8" stroke="none"/>
<path d="M 595.87,486.94 L 593.77,485.94 L 596.23,484.84 L 595.87,486.94 Z" fill="#A8C8E8" stroke="none"/>
<path d="M 716.13,488.47 L 715.62,484.12 L 703.43,483.37 L 720.15,481.49 L 723.90,482.53 L 720.25,484.15 L 723.60,486.10 L 716.13,488.47 Z M 720.50,483.38 L 715.47,483.28 L 717.66,484.84 L 720.50,483.38 Z" fill="#A8C8E8" stroke="none"/>
<path d="M 440.97,498.20 L 433.09,500.00 L 431.49,500.00 L 433.86,497.86 L 440.97,498.20 Z" fill="#A8C8E8" stroke="none"/>
<path d="M 364.36,470.59 L 357.06,467.72 L 361.76,468.38 L 364.36,470.59 Z" fill="#A8C8E8" stroke="none"/>
<path d="M 28.79,420.78 L 24.61,424.12 L 12.16,422.06 L 11.80,424.12 L 0.53,421.01 L 2.75,423.27 L 0.00,423.21 L 0.00,415.67 L 3.34,416.52 L 0.00,412.11 L 0.00,411.90 L 2.13,410.99 L 8.81,415.73 L 17.89,417.30 L 20.55,414.52 L 10.26,410.83 L 12.71,408.71 L 7.99,409.35 L 8.99,413.50 L 4.94,410.25 L 7.12,408.59 L 1.47,408.06 L 11.80,406.18 L 15.87,408.68 L 11.49,410.78 L 17.39,411.91 L 17.74,409.53 L 21.94,412.97 L 20.60,419.15 L 34.52,421.00 L 28.79,420.78 Z" fill="#A8C8E8" stroke="none"/>
<path d="M 665.75,196.19 L 651.90,195.02 L 626.67,201.75 L 647.55,193.27 L 659.53,191.59 L 645.87,191.53 L 673.52,188.23 L 674.79,191.77 L 685.15,191.28 L 682.87,196.09 L 691.20,196.99 L 680.71,199.85 L 692.99,199.76 L 687.63,201.74 L 688.00,204.82 L 658.56,202.77 L 664.51,200.42 L 675.41,202.36 L 665.75,196.19 Z M 670.26,190.27 L 664.74,190.51 L 667.06,191.00 L 670.26,190.27 Z" fill="#A8C8E8" stroke="none"/>
<path d="M 664.79,170.70 L 680.68,170.84 L 683.95,172.48 L 688.95,173.43 L 676.45,175.00 L 664.79,170.70 Z M 678.49,173.33 L 680.71,171.90 L 678.51,171.67 L 673.44,171.72 L 678.49,173.33 Z M 701.04,168.12 L 675.25,166.11 L 678.24,169.51 L 666.03,166.78 L 660.37,167.82 L 674.14,170.01 L 649.07,166.46 L 675.39,165.63 L 685.08,166.46 L 682.40,165.59 L 701.04,168.12 Z M 730.92,157.22 L 722.24,164.38 L 725.46,167.30 L 718.40,168.16 L 731.09,170.65 L 723.21,170.39 L 720.97,173.15 L 707.29,170.17 L 697.61,171.46 L 703.22,173.15 L 694.92,175.08 L 685.08,172.31 L 683.84,170.65 L 703.41,170.07 L 704.20,167.94 L 716.10,168.75 L 710.73,166.46 L 718.94,166.06 L 717.97,162.90 L 706.38,162.72 L 722.03,161.72 L 711.70,158.32 L 721.89,159.48 L 728.66,154.98 L 730.92,157.22 Z" fill="#A8C8E8" stroke="none"/>
<path d="M 736.36,288.89 L 720.15,282.26 L 728.71,281.68 L 742.47,286.41 L 736.36,288.89 Z" fill="#A8C8E8" stroke="none"/>
<path d="M 609.66,313.14 L 601.81,310.65 L 618.07,307.54 L 615.34,313.00 L 606.84,314.37 L 609.66,316.68 L 597.14,315.86 L 609.66,313.14 Z" fill="#A8C8E8" stroke="none"/>
<path d="M 561.47,314.18 L 556.42,307.90 L 567.70,312.67 L 570.55,317.71 L 562.72,318.54 L 552.06,313.76 L 553.24,312.10 L 561.47,314.18 Z" fill="#A8C8E8" stroke="none"/>
<path d="M 644.30,454.82 L 641.60,456.04 L 643.49,457.95 L 616.57,454.63 L 632.05,450.75 L 637.85,445.61 L 640.72,448.65 L 654.42,449.95 L 651.92,450.72 L 657.25,456.67 L 644.30,454.82 Z" fill="#A8C8E8" stroke="none"/>
<path d="M 429.30,265.95 L 437.23,266.20 L 432.50,265.37 L 434.65,263.70 L 432.19,261.60 L 448.74,262.21 L 452.86,265.05 L 448.77,265.99 L 458.65,269.48 L 468.24,266.20 L 485.96,267.04 L 479.45,268.07 L 485.32,269.82 L 470.35,270.37 L 496.65,274.95 L 475.06,273.49 L 479.74,272.66 L 466.51,269.98 L 451.89,273.08 L 453.80,275.57 L 448.77,273.93 L 450.33,272.22 L 442.51,273.28 L 429.30,265.95 Z" fill="#A8C8E8" stroke="none"/>
<path d="M 455.98,201.93 L 461.53,197.40 L 465.16,198.74 L 458.86,194.54 L 472.09,196.82 L 469.13,199.00 L 476.00,200.47 L 485.72,198.17 L 479.91,201.75 L 465.34,199.40 L 459.41,200.27 L 458.02,203.61 L 451.50,201.22 L 455.98,201.93 Z" fill="#A8C8E8" stroke="none"/>
<path d="M 768.66,160.62 L 776.48,160.62 L 777.22,163.66 L 788.71,169.40 L 774.92,170.84 L 776.15,166.46 L 769.94,163.96 L 773.39,164.07 L 768.66,160.62 Z" fill="#A8C8E8" stroke="none"/>
<path d="M 658.66,137.94 L 638.44,138.90 L 631.40,141.97 L 632.70,143.70 L 609.14,147.29 L 609.60,149.26 L 605.99,149.71 L 609.53,151.30 L 606.09,151.84 L 612.06,153.70 L 600.90,152.36 L 594.82,155.17 L 590.27,152.54 L 597.44,153.57 L 600.71,152.00 L 605.95,150.92 L 604.43,149.68 L 608.32,149.03 L 598.72,148.45 L 598.29,146.84 L 606.23,147.88 L 627.01,142.35 L 619.92,137.40 L 611.10,139.24 L 609.78,136.12 L 602.39,136.49 L 604.62,135.05 L 658.66,137.94 Z" fill="#A8C8E8" stroke="none"/>
<path d="M 433.75,155.20 L 439.37,157.85 L 414.90,153.73 L 401.17,154.78 L 411.20,153.32 L 404.32,152.28 L 405.68,151.70 L 415.34,151.38 L 433.71,154.64 L 441.62,151.88 L 449.03,154.24 L 433.75,155.20 Z" fill="#A8C8E8" stroke="none"/>
<path d="M 463.88,153.24 L 459.74,156.24 L 464.14,157.11 L 475.06,156.65 L 468.48,154.78 L 477.88,153.74 L 477.52,156.83 L 489.48,154.69 L 492.60,155.92 L 489.48,156.85 L 494.14,157.50 L 481.94,157.28 L 475.06,160.62 L 476.97,162.03 L 468.75,162.57 L 450.96,159.78 L 459.10,157.69 L 449.27,153.82 L 463.88,153.24 Z" fill="#A8C8E8" stroke="none"/>
<path d="M 0.00,167.65 L 0.00,166.68 L 1.52,166.81 L 0.00,166.42 L 0.00,164.97 L 37.30,170.28 L 49.12,174.38 L 0.00,167.65 Z" fill="#A8C8E8" stroke="none"/>
<path d="M 67.19,175.31 L 113.11,186.80 L 90.00,183.82 L 78.72,178.87 L 49.58,173.74 L 67.19,175.31 Z" fill="#A8C8E8" stroke="none"/>
</svg>