<svg xmlns="http://www.w3.org/2000/svg" width="800" height="500" viewBox="0 0 800 500">
<rect width="800" height="500" fill="#A8C8E8"/>
<path d="M 380.07,451.23 L 377.63,449.30 L 374.41,454.06 L 369.63,450.95 L 368.83,445.44 L 366.54,444.27 L 366.49,440.19 L 371.35,437.90 L 365.61,438.11 L 366.86,436.44 L 365.52,433.12 L 368.17,431.58 L 368.09,430.48 L 367.29,429.34 L 368.00,430.60 L 367.21,431.83 L 365.34,430.17 L 366.76,428.72 L 366.15,424.49 L 374.01,422.69 L 373.42,419.12 L 375.83,420.14 L 375.07,418.70 L 377.27,416.62 L 382.93,417.24 L 383.33,413.58 L 391.14,416.00 L 392.87,414.66 L 392.12,410.55 L 394.59,413.71 L 394.82,410.52 L 396.52,413.43 L 398.61,411.64 L 410.85,417.24 L 422.91,418.54 L 424.79,416.28 L 426.95,419.53 L 423.03,422.56 L 420.85,431.20 L 417.81,434.74 L 416.95,438.41 L 418.81,449.36 L 418.04,454.65 L 419.78,458.71 L 420.23,463.88 L 421.96,465.62 L 418.42,467.26 L 415.88,474.09 L 416.20,475.78 L 410.01,472.75 L 405.20,476.14 L 399.08,468.26 L 398.94,466.18 L 393.62,464.07 L 389.50,459.16 L 388.86,461.84 L 387.08,459.35 L 376.92,465.41 L 380.07,451.23 Z M 372.39,456.77 L 373.14,456.72 L 373.00,458.09 L 372.39,456.77 Z M 364.37,447.50 L 362.09,446.86 L 356.50,454.53 L 350.99,455.52 L 349.80,461.58 L 347.80,463.98 L 346.71,461.88 L 349.80,456.89 L 345.17,452.46 L 347.33,450.62 L 345.02,445.84 L 347.12,445.79 L 348.33,448.54 L 349.60,444.87 L 350.70,446.11 L 350.90,444.06 L 354.28,442.23 L 359.07,442.60 L 364.37,447.50 Z M 363.10,445.12 L 360.84,443.02 L 362.62,440.67 L 365.00,443.74 L 363.10,445.12 Z M 363.93,431.83 L 361.55,430.28 L 362.27,429.55 L 364.77,430.07 L 363.93,431.83 Z M 347.76,432.89 L 353.15,431.83 L 355.78,428.36 L 359.22,431.43 L 360.60,435.80 L 358.08,437.75 L 357.21,436.30 L 354.35,440.48 L 353.15,439.58 L 352.72,435.44 L 347.76,432.89 Z M 380.06,413.97 L 379.97,414.27 L 379.28,413.91 L 380.06,413.97 Z M 363.56,467.92 L 362.88,467.46 L 362.97,466.76 L 363.56,467.92 Z" fill="#E8E0D0" stroke="#B8B0A0" stroke-width="0.5"/>
<path d="M 418.46,475.75 L 418.25,478.74 L 422.49,482.99 L 422.28,487.00 L 420.45,488.68 L 421.33,490.55 L 419.75,496.59 L 423.43,497.32 L 422.81,499.67 L 423.00,500.00 L 334.70,500.00 L 334.97,497.05 L 339.22,491.57 L 339.88,482.51 L 343.69,474.37 L 353.42,469.23 L 355.05,468.87 L 355.64,474.01 L 361.75,480.55 L 363.44,488.83 L 369.04,492.84 L 372.36,491.44 L 378.14,483.98 L 376.92,465.41 L 387.08,459.35 L 388.66,461.84 L 389.50,459.16 L 393.62,464.07 L 398.94,466.18 L 399.08,468.26 L 405.20,476.14 L 410.01,472.75 L 418.46,475.75 Z" fill="#E8E0D0" stroke="#B8B0A0" stroke-width="0.5"/>
<path d="M 322.71,125.81 L 325.79,129.23 L 325.99,132.44 L 324.44,136.87 L 320.90,140.46 L 324.56,142.40 L 321.02,146.24 L 301.23,139.46 L 297.69,140.79 L 298.03,150.88 L 294.58,157.76 L 287.08,153.85 L 287.08,151.72 L 288.12,149.75 L 287.08,148.46 L 287.08,144.63 L 293.95,144.97 L 288.74,143.31 L 289.76,140.80 L 287.08,142.01 L 287.08,135.29 L 291.47,136.83 L 287.08,134.60 L 287.08,133.08 L 288.65,132.11 L 292.80,134.14 L 288.74,131.63 L 293.36,129.72 L 288.20,129.55 L 291.20,122.93 L 297.57,121.80 L 295.46,119.33 L 297.39,115.76 L 297.65,112.50 L 299.48,111.67 L 300.31,114.57 L 301.88,114.86 L 302.08,119.33 L 302.89,115.39 L 304.52,118.47 L 305.08,116.62 L 308.66,117.75 L 301.46,112.66 L 301.72,110.77 L 306.60,109.67 L 308.68,114.40 L 313.39,116.69 L 310.79,118.77 L 314.65,119.77 L 314.04,116.08 L 310.04,114.74 L 308.40,111.78 L 311.88,110.56 L 311.45,109.20 L 308.71,110.22 L 307.78,107.76 L 311.71,102.83 L 318.61,102.00 L 317.19,105.74 L 317.88,106.94 L 316.88,112.50 L 315.33,114.30 L 317.37,112.95 L 318.08,107.84 L 322.17,108.86 L 322.84,108.67 L 319.56,107.39 L 319.13,104.81 L 321.47,100.83 L 321.48,103.09 L 323.55,97.80 L 324.06,100.34 L 325.17,96.93 L 326.88,99.78 L 325.50,105.74 L 326.32,108.26 L 320.32,118.29 L 324.96,114.55 L 327.61,108.90 L 332.39,111.39 L 327.74,107.39 L 328.38,105.01 L 327.61,103.25 L 331.52,102.08 L 331.60,99.71 L 335.48,97.61 L 332.92,100.52 L 334.55,102.49 L 336.48,99.83 L 335.92,101.79 L 336.60,101.54 L 336.98,98.86 L 338.49,98.86 L 336.98,98.03 L 338.02,95.40 L 341.48,96.37 L 342.14,98.72 L 348.45,103.66 L 346.09,100.96 L 347.41,100.75 L 346.07,97.71 L 347.85,97.92 L 348.65,95.12 L 344.58,94.91 L 348.46,92.38 L 343.56,94.20 L 336.98,89.70 L 339.95,87.84 L 340.60,89.70 L 341.42,86.27 L 345.56,91.57 L 344.67,88.21 L 347.01,86.20 L 348.53,86.78 L 348.69,88.93 L 351.12,87.30 L 350.72,91.92 L 354.39,92.19 L 351.38,90.94 L 352.35,88.18 L 359.65,89.73 L 357.97,92.38 L 352.78,93.34 L 350.85,94.70 L 358.36,92.81 L 360.31,91.57 L 360.33,94.88 L 361.73,95.02 L 361.29,97.40 L 364.33,97.61 L 367.03,95.31 L 362.34,93.23 L 364.96,92.29 L 363.93,90.94 L 365.52,90.09 L 363.22,89.47 L 366.93,88.62 L 364.11,88.22 L 368.00,86.77 L 366.05,86.35 L 366.69,84.91 L 371.91,80.53 L 377.49,82.15 L 374.29,79.56 L 377.51,75.01 L 382.30,77.13 L 381.43,74.45 L 376.13,72.16 L 378.07,69.65 L 381.16,72.30 L 380.88,69.88 L 382.32,69.46 L 380.37,67.57 L 381.56,66.28 L 383.55,68.40 L 386.29,66.47 L 384.78,69.46 L 387.84,68.05 L 389.03,71.95 L 390.92,69.12 L 390.57,66.32 L 392.77,67.94 L 391.56,70.42 L 397.80,69.75 L 386.81,80.72 L 389.03,79.97 L 386.64,81.13 L 389.57,82.16 L 389.17,84.28 L 386.91,85.10 L 388.46,86.69 L 385.60,89.06 L 385.13,92.93 L 385.92,94.09 L 386.02,91.96 L 387.08,91.36 L 387.33,93.53 L 389.12,92.96 L 392.83,86.97 L 391.55,85.62 L 406.67,67.15 L 408.11,67.79 L 407.67,73.63 L 403.16,76.32 L 407.23,76.54 L 405.28,85.00 L 409.23,81.43 L 412.97,81.74 L 411.30,78.83 L 415.09,78.22 L 412.94,76.52 L 413.67,75.30 L 413.08,73.86 L 415.90,73.41 L 415.83,70.97 L 419.77,71.53 L 413.38,67.12 L 416.15,67.36 L 414.92,64.80 L 418.80,66.96 L 418.42,63.33 L 420.04,61.73 L 420.96,63.78 L 427.01,62.97 L 427.91,63.90 L 427.19,66.11 L 431.62,66.43 L 429.23,70.91 L 427.45,70.70 L 427.97,71.84 L 421.45,71.95 L 426.23,73.63 L 420.04,77.58 L 428.43,74.65 L 422.60,81.34 L 423.04,83.01 L 426.93,80.72 L 425.07,82.50 L 426.19,82.59 L 428.87,80.28 L 426.62,84.39 L 426.70,91.92 L 424.72,93.87 L 426.92,92.52 L 427.55,83.89 L 429.58,81.02 L 431.09,82.38 L 431.70,80.49 L 429.73,79.02 L 432.54,75.39 L 431.70,73.20 L 434.79,69.46 L 442.66,72.16 L 441.24,73.40 L 442.83,73.63 L 441.39,76.16 L 446.46,73.40 L 447.52,75.07 L 446.20,77.17 L 451.69,74.40 L 453.00,75.30 L 451.58,76.32 L 454.81,77.89 L 450.34,79.66 L 457.84,79.54 L 460.48,83.24 L 462.55,82.34 L 464.22,87.39 L 457.41,88.47 L 452.38,93.87 L 440.28,92.38 L 432.97,90.49 L 432.50,90.66 L 434.26,90.94 L 432.66,92.78 L 435.51,93.04 L 433.99,93.44 L 446.28,96.97 L 442.13,100.31 L 447.00,98.86 L 447.44,100.96 L 443.72,106.36 L 450.73,102.86 L 451.14,103.04 L 449.52,105.00 L 449.55,105.55 L 451.25,103.96 L 452.74,105.55 L 451.76,103.47 L 453.00,103.04 L 452.47,99.71 L 454.06,99.50 L 455.53,101.18 L 455.62,105.11 L 454.68,105.97 L 456.05,105.83 L 456.56,101.58 L 461.18,101.95 L 462.30,106.03 L 461.92,109.92 L 460.07,110.61 L 451.87,107.17 L 453.32,109.49 L 451.93,113.03 L 442.30,117.31 L 440.29,123.49 L 438.28,125.43 L 435.21,123.24 L 435.70,119.89 L 441.88,112.35 L 439.34,106.28 L 429.76,102.06 L 422.83,93.75 L 412.95,99.03 L 405.64,98.32 L 401.31,104.71 L 398.82,105.50 L 395.37,119.85 L 396.12,126.69 L 393.96,130.32 L 388.46,132.19 L 387.57,137.22 L 384.64,139.98 L 372.05,132.08 L 362.62,138.12 L 352.46,135.23 L 351.97,131.89 L 342.52,118.23 L 335.55,119.20 L 334.72,120.97 L 336.30,123.82 L 335.21,125.37 L 330.99,123.31 L 329.43,125.38 L 322.71,125.81 Z M 288.39,130.57 L 287.08,131.61 L 287.08,129.23 L 288.39,130.57 Z M 296.78,115.58 L 294.61,116.37 L 295.18,118.48 L 294.04,118.89 L 295.45,120.78 L 288.80,120.40 L 287.08,122.62 L 287.08,115.23 L 287.86,115.34 L 287.08,114.59 L 287.08,113.77 L 289.10,113.45 L 287.08,112.95 L 287.08,111.65 L 287.76,111.81 L 287.13,110.12 L 291.03,112.43 L 288.74,108.23 L 291.19,111.01 L 291.21,108.23 L 292.42,110.03 L 293.79,108.63 L 293.42,112.84 L 294.88,110.56 L 296.25,111.39 L 294.84,113.45 L 296.52,113.16 L 296.78,115.58 Z M 309.24,103.25 L 305.84,105.92 L 306.39,108.09 L 305.52,109.08 L 298.10,110.33 L 295.54,108.46 L 300.76,106.99 L 298.37,104.74 L 303.76,105.12 L 300.14,104.27 L 300.53,102.21 L 302.08,103.66 L 304.03,102.00 L 304.16,104.78 L 305.43,105.55 L 305.79,102.62 L 304.36,99.51 L 309.24,103.25 Z M 343.34,97.42 L 343.78,97.61 L 343.26,98.24 L 343.34,97.42 Z M 320.72,95.23 L 321.34,95.53 L 320.75,95.75 L 320.72,95.23 Z M 335.57,95.72 L 332.89,97.93 L 331.20,96.05 L 335.57,95.72 Z M 334.89,94.85 L 333.71,95.31 L 334.18,94.48 L 334.89,94.85 Z M 317.31,96.48 L 315.46,97.52 L 313.33,101.42 L 310.07,102.50 L 305.00,97.63 L 311.18,93.04 L 313.56,96.29 L 317.31,96.48 Z M 329.16,94.70 L 329.03,92.81 L 326.42,92.92 L 327.04,90.36 L 330.85,88.84 L 332.02,89.65 L 331.33,92.52 L 329.16,94.70 Z M 323.38,92.61 L 318.51,93.99 L 315.42,88.43 L 317.24,87.20 L 319.01,90.87 L 319.99,89.53 L 323.38,92.61 Z M 360.28,88.30 L 352.00,85.94 L 355.88,83.90 L 356.39,85.78 L 356.93,84.02 L 360.28,88.30 Z M 367.72,83.40 L 362.86,87.43 L 361.13,86.86 L 361.81,83.42 L 360.58,85.66 L 358.19,83.63 L 362.96,80.28 L 362.34,79.37 L 363.45,79.72 L 363.67,81.53 L 364.04,79.28 L 367.03,79.45 L 365.12,77.23 L 367.47,77.37 L 368.53,80.72 L 367.72,83.40 Z M 374.28,78.12 L 370.44,80.41 L 368.35,77.79 L 368.97,75.71 L 368.27,74.97 L 370.59,73.17 L 374.28,78.12 Z M 349.17,81.66 L 351.48,77.37 L 346.54,76.32 L 352.53,76.98 L 352.14,74.45 L 354.16,74.20 L 356.53,77.67 L 357.83,76.32 L 356.50,73.25 L 359.68,75.91 L 362.43,73.63 L 360.93,71.31 L 364.32,72.32 L 364.49,69.68 L 366.32,71.72 L 362.12,74.91 L 361.22,78.19 L 349.17,81.66 Z M 376.13,66.94 L 373.53,68.21 L 371.80,66.94 L 373.47,66.32 L 371.50,65.71 L 375.87,65.70 L 373.91,66.74 L 376.13,66.94 Z M 401.57,64.64 L 399.69,66.35 L 393.00,67.79 L 391.23,66.11 L 393.09,65.07 L 389.63,64.74 L 391.95,62.47 L 395.13,64.01 L 393.00,61.31 L 394.47,60.57 L 396.27,60.89 L 396.25,62.68 L 399.14,62.05 L 397.34,64.01 L 398.20,65.54 L 401.57,64.64 Z M 330.50,101.61 L 328.18,101.49 L 328.65,99.21 L 330.45,99.43 L 330.50,101.61 Z M 451.72,101.26 L 446.64,103.25 L 448.30,98.82 L 451.72,101.26 Z M 319.54,96.86 L 317.79,100.16 L 314.10,100.90 L 319.54,96.86 Z M 304.90,92.51 L 308.18,93.80 L 304.65,96.51 L 304.90,92.51 Z M 332.04,93.82 L 331.62,92.42 L 332.44,91.63 L 332.92,93.62 L 332.04,93.82 Z M 313.12,92.60 L 312.82,92.15 L 313.76,91.11 L 315.44,93.19 L 313.12,92.60 Z M 310.74,92.54 L 308.44,91.41 L 310.67,88.28 L 311.62,89.93 L 310.74,92.54 Z M 344.52,86.20 L 343.35,88.07 L 343.11,84.97 L 344.52,86.20 Z M 288.11,126.60 L 287.15,126.39 L 288.12,124.08 L 289.76,123.68 L 288.11,126.60 Z M 382.90,64.80 L 380.89,63.87 L 382.16,62.32 L 383.76,62.71 L 382.90,64.80 Z" fill="#E8E0D0" stroke="#B8B0A0" stroke-width="0.5"/>
<path d="M 324.97,398.48 L 324.00,397.84 L 324.26,395.95 L 324.97,398.48 Z M 317.15,395.69 L 315.29,395.98 L 315.82,392.74 L 317.15,395.69 Z M 326.46,394.51 L 325.85,393.27 L 326.02,392.41 L 326.91,392.41 L 326.46,394.51 Z M 331.59,393.23 L 331.54,391.79 L 332.39,392.41 L 331.59,393.23 Z M 322.14,394.70 L 322.18,391.06 L 321.70,390.96 L 321.60,394.91 L 320.29,393.86 L 321.52,395.76 L 321.96,395.13 L 322.04,397.52 L 320.73,399.05 L 318.34,398.25 L 316.84,392.41 L 318.77,391.38 L 319.00,394.70 L 320.54,391.90 L 318.52,389.69 L 319.87,388.15 L 324.97,392.02 L 322.14,394.70 Z M 332.96,402.33 L 333.26,403.27 L 333.16,403.41 L 332.96,402.33 Z M 334.06,402.89 L 333.17,402.07 L 334.23,402.03 L 334.06,402.89 Z M 328.96,400.26 L 327.85,400.12 L 328.42,398.79 L 328.96,400.26 Z M 327.36,398.47 L 326.42,399.64 L 326.59,399.27 L 327.36,398.47 Z M 327.47,399.24 L 327.45,398.76 L 328.38,398.34 L 327.47,399.24 Z M 330.05,397.18 L 329.59,396.12 L 329.90,395.94 L 330.05,397.18 Z M 330.49,393.86 L 330.63,394.13 L 330.04,394.44 L 330.49,393.86 Z M 330.93,390.99 L 330.84,390.93 L 331.15,389.36 L 330.93,390.99 Z M 325.77,399.89 L 327.16,400.65 L 325.35,401.91 L 325.77,399.89 Z M 323.50,397.83 L 324.30,400.34 L 323.65,401.37 L 321.83,398.57 L 323.50,397.83 Z M 335.42,386.73 L 335.12,386.66 L 335.12,386.06 L 335.42,386.73 Z" fill="#E8E0D0" stroke="#B8B0A0" stroke-width="0.5"/>
<path d="M 333.14,127.08 L 333.07,129.70 L 348.11,142.41 L 357.60,144.91 L 360.94,148.10 L 362.21,153.22 L 364.03,152.50 L 368.61,158.44 L 366.28,161.06 L 367.21,169.51 L 365.64,172.60 L 369.94,174.59 L 370.21,177.10 L 367.85,179.46 L 367.57,182.72 L 373.02,193.31 L 371.58,194.96 L 371.45,200.67 L 368.49,203.86 L 368.62,208.19 L 369.41,211.54 L 373.22,216.34 L 375.07,223.22 L 372.02,225.12 L 369.61,223.02 L 366.14,222.90 L 365.60,224.97 L 362.60,223.09 L 363.14,224.87 L 361.40,226.82 L 355.60,220.62 L 355.74,225.21 L 352.41,221.97 L 351.38,222.79 L 351.38,225.88 L 349.88,225.10 L 352.18,227.80 L 350.81,226.92 L 350.85,229.04 L 349.62,229.27 L 351.06,229.65 L 351.16,227.89 L 352.41,231.77 L 344.14,226.12 L 349.80,231.56 L 345.29,231.97 L 347.59,234.05 L 340.07,237.40 L 343.33,239.57 L 342.32,240.94 L 338.74,236.92 L 337.87,237.62 L 342.15,243.13 L 341.31,244.09 L 341.84,246.17 L 337.42,249.70 L 336.62,253.27 L 334.77,253.37 L 338.23,255.33 L 337.24,255.95 L 338.22,258.45 L 335.72,257.43 L 338.84,261.38 L 340.55,260.96 L 341.40,262.44 L 338.76,262.52 L 342.11,264.95 L 333.85,274.17 L 332.96,279.21 L 330.09,285.14 L 327.88,284.14 L 326.48,288.43 L 325.59,286.21 L 325.36,289.24 L 325.06,286.85 L 324.52,289.35 L 321.84,289.17 L 317.36,296.03 L 314.25,292.09 L 315.16,296.54 L 312.28,294.96 L 311.84,299.15 L 309.24,301.23 L 309.94,302.48 L 309.18,303.72 L 305.29,301.26 L 307.38,302.71 L 305.57,304.03 L 306.23,302.48 L 304.63,302.29 L 305.35,304.37 L 302.88,303.75 L 304.04,305.70 L 298.72,309.17 L 302.37,309.41 L 303.04,310.43 L 300.80,310.24 L 302.35,311.46 L 300.76,311.87 L 301.72,312.91 L 300.47,314.14 L 298.27,313.14 L 299.25,313.99 L 298.12,315.94 L 295.72,315.42 L 297.49,314.58 L 296.60,313.56 L 294.77,314.73 L 293.42,309.17 L 291.65,309.36 L 293.64,311.56 L 295.64,318.03 L 293.95,319.19 L 296.43,321.47 L 294.79,320.87 L 293.58,324.70 L 291.21,325.04 L 291.83,326.29 L 288.21,323.14 L 287.08,324.62 L 287.08,153.85 L 294.58,157.76 L 298.03,150.88 L 297.82,140.62 L 301.23,139.46 L 321.52,145.86 L 324.56,142.40 L 320.90,140.46 L 324.44,136.87 L 325.99,132.44 L 325.79,129.23 L 322.71,125.81 L 333.14,127.08 Z M 287.62,329.48 L 291.12,332.55 L 289.27,332.96 L 288.65,339.51 L 287.15,341.54 L 287.08,344.09 L 287.08,325.56 L 287.62,329.48 Z M 287.94,345.06 L 287.86,348.06 L 289.34,348.32 L 289.11,350.72 L 287.08,348.33 L 287.08,344.98 L 287.94,345.06 Z M 287.09,381.53 L 290.12,380.78 L 291.36,385.15 L 295.28,382.61 L 295.18,384.91 L 298.98,388.86 L 298.63,390.54 L 301.12,389.88 L 301.11,391.79 L 303.40,393.25 L 300.77,392.60 L 299.69,390.73 L 301.02,394.61 L 302.68,395.20 L 303.06,398.25 L 304.00,395.99 L 305.88,400.35 L 305.31,398.00 L 306.14,396.92 L 307.25,402.11 L 309.42,403.66 L 308.94,405.53 L 307.03,402.64 L 307.52,405.00 L 305.07,407.54 L 309.46,408.12 L 307.38,408.06 L 299.07,416.41 L 299.57,418.87 L 297.94,417.00 L 295.72,418.51 L 297.49,420.59 L 296.83,421.00 L 298.45,421.21 L 299.71,419.50 L 301.66,420.69 L 301.11,417.66 L 301.85,417.73 L 303.94,420.89 L 299.36,421.12 L 301.07,426.57 L 295.78,429.58 L 294.22,435.18 L 292.68,432.15 L 293.07,433.74 L 292.69,434.41 L 292.62,427.28 L 291.87,429.34 L 291.21,425.81 L 290.15,432.27 L 290.79,433.45 L 289.62,433.93 L 290.32,435.18 L 288.48,434.14 L 289.00,437.05 L 287.08,436.84 L 287.08,381.53 L 287.09,381.53 Z M 287.32,438.52 L 287.08,438.52 L 287.08,436.99 L 287.32,438.52 Z M 309.60,466.70 L 306.01,469.48 L 305.46,472.75 L 305.57,477.46 L 307.55,479.89 L 300.84,487.49 L 301.46,487.96 L 299.96,490.89 L 300.76,491.72 L 299.62,493.42 L 297.39,494.21 L 299.35,489.02 L 298.19,489.85 L 298.54,487.77 L 296.88,483.96 L 297.91,480.28 L 297.26,475.15 L 304.34,464.02 L 305.96,466.70 L 306.58,463.98 L 309.60,466.70 Z M 312.86,462.50 L 310.59,463.65 L 310.17,466.06 L 308.97,464.28 L 309.77,462.11 L 312.86,462.50 Z M 311.73,450.96 L 310.92,449.37 L 311.37,449.37 L 312.77,450.20 L 311.73,450.96 Z M 300.05,421.84 L 303.50,423.08 L 302.26,422.69 L 302.72,424.07 L 300.05,421.84 Z M 300.79,389.24 L 300.49,385.04 L 301.85,389.35 L 302.70,390.54 L 300.79,389.24 Z M 332.54,284.90 L 333.26,285.61 L 332.66,286.21 L 332.54,284.90 Z M 300.94,430.59 L 300.04,430.17 L 300.44,428.56 L 301.86,427.98 L 300.94,430.59 Z M 305.27,424.70 L 304.11,425.56 L 304.51,424.59 L 305.27,424.70 Z M 305.60,423.27 L 304.92,422.96 L 305.37,421.98 L 305.60,423.27 Z M 303.83,419.74 L 305.24,420.84 L 304.34,421.83 L 303.83,419.74 Z M 297.19,419.10 L 298.82,419.78 L 297.74,420.58 L 297.19,419.10 Z M 306.76,418.77 L 306.81,418.97 L 306.53,419.09 L 306.76,418.77 Z M 307.69,419.58 L 307.20,418.75 L 307.49,418.59 L 307.69,419.58 Z M 307.13,418.55 L 306.70,418.02 L 307.19,417.38 L 307.13,418.55 Z M 302.78,418.09 L 302.19,416.24 L 305.13,414.49 L 302.78,418.09 Z M 307.28,413.19 L 306.67,412.81 L 307.69,411.19 L 307.28,413.19 Z M 306.23,413.17 L 305.36,413.51 L 307.52,410.95 L 306.23,413.17 Z M 308.14,407.00 L 307.02,406.78 L 307.97,404.65 L 308.14,407.00 Z M 305.31,394.13 L 306.01,395.61 L 304.94,395.77 L 305.31,394.13 Z M 300.21,431.65 L 298.10,433.65 L 298.52,432.63 L 300.21,431.65 Z M 297.47,431.89 L 296.26,432.14 L 296.94,430.26 L 298.16,430.65 L 297.47,431.89 Z M 291.54,433.97 L 291.12,428.77 L 291.56,429.42 L 291.54,433.97 Z M 295.95,318.77 L 295.68,318.13 L 297.66,316.86 L 295.95,318.77 Z M 332.43,289.35 L 332.04,289.57 L 332.54,288.56 L 332.43,289.35 Z M 333.62,285.58 L 332.54,288.37 L 332.75,286.56 L 333.62,285.58 Z M 352.02,235.16 L 350.86,235.13 L 351.13,234.41 L 352.02,235.16 Z M 349.42,233.83 L 350.19,235.37 L 350.17,235.54 L 349.42,233.83 Z M 355.10,232.69 L 354.31,232.13 L 354.39,231.88 L 355.10,232.69 Z M 349.59,231.90 L 351.81,232.93 L 350.79,233.71 L 349.59,231.90 Z M 355.25,230.21 L 355.45,230.34 L 354.00,230.73 L 355.25,230.21 Z M 354.33,229.84 L 354.98,230.00 L 354.78,230.20 L 354.33,229.84 Z M 359.71,227.96 L 358.56,226.34 L 359.17,225.69 L 359.71,227.96 Z M 370.19,226.41 L 369.59,227.06 L 368.86,226.30 L 370.19,226.41 Z M 356.81,224.82 L 357.64,226.53 L 357.57,226.80 L 356.81,224.82 Z" fill="#C8D8E8" stroke="#8BAABB" stroke-width="0.8"/>
<path d="M 422.81,499.67 L 423.43,497.32 L 419.75,496.59 L 421.33,490.55 L 420.45,488.68 L 422.28,487.00 L 422.49,482.99 L 418.25,478.74 L 418.46,475.75 L 415.88,474.09 L 418.42,467.26 L 421.96,465.62 L 420.23,463.88 L 419.78,458.71 L 418.04,454.65 L 418.81,449.36 L 416.95,438.41 L 417.81,434.74 L 420.85,431.20 L 423.03,422.56 L 426.89,420.11 L 424.79,416.28 L 425.48,413.35 L 424.64,407.86 L 426.14,406.83 L 429.39,410.66 L 430.69,405.02 L 435.28,407.00 L 439.52,400.42 L 452.42,404.51 L 453.51,401.27 L 449.67,399.60 L 448.39,395.42 L 438.11,394.89 L 434.86,389.27 L 432.50,388.87 L 430.21,383.46 L 433.61,386.46 L 433.45,378.02 L 427.33,383.83 L 421.89,384.27 L 434.83,367.11 L 440.06,362.57 L 458.69,333.74 L 462.27,330.41 L 466.37,324.29 L 470.57,312.03 L 465.86,302.69 L 456.28,294.77 L 450.09,286.59 L 452.93,285.03 L 457.46,278.06 L 457.54,272.03 L 450.75,266.63 L 451.24,264.35 L 449.75,261.40 L 452.67,259.15 L 451.87,255.34 L 447.50,254.50 L 445.61,251.10 L 445.16,247.23 L 448.40,244.57 L 448.18,242.03 L 444.92,241.11 L 446.73,238.25 L 446.81,233.31 L 448.25,231.07 L 446.50,229.11 L 451.61,228.29 L 451.78,226.59 L 449.05,214.54 L 438.11,190.19 L 444.14,178.30 L 449.26,171.91 L 450.46,166.50 L 445.84,162.31 L 441.71,154.72 L 433.45,151.36 L 430.32,140.81 L 434.88,131.50 L 429.84,129.58 L 438.99,125.06 L 442.30,117.31 L 449.91,115.12 L 453.23,110.02 L 451.87,107.17 L 461.33,110.43 L 462.30,106.03 L 461.18,101.95 L 468.50,104.70 L 467.06,107.84 L 469.39,105.25 L 473.68,105.55 L 472.27,104.06 L 472.40,101.30 L 477.40,102.38 L 475.01,97.99 L 476.83,97.15 L 482.87,102.04 L 490.74,104.30 L 490.39,106.73 L 487.36,108.75 L 478.31,106.55 L 477.56,103.57 L 477.43,105.97 L 475.71,106.57 L 476.84,107.11 L 476.33,109.31 L 481.27,108.70 L 482.60,110.75 L 478.62,113.26 L 483.05,110.97 L 487.72,111.81 L 486.05,113.88 L 490.11,111.99 L 486.74,117.32 L 488.88,114.51 L 495.77,113.45 L 492.05,118.27 L 494.79,117.71 L 492.84,119.51 L 496.04,120.14 L 489.80,123.95 L 489.32,127.87 L 489.85,124.73 L 494.52,123.30 L 496.45,120.42 L 496.39,117.23 L 498.35,116.23 L 507.34,117.02 L 512.92,119.83 L 512.92,199.60 L 512.27,199.15 L 508.10,201.46 L 506.50,198.65 L 508.40,198.39 L 508.64,197.82 L 503.10,197.35 L 503.74,194.27 L 501.23,196.97 L 496.65,192.53 L 495.72,193.40 L 497.09,195.05 L 495.77,194.01 L 496.39,195.24 L 495.32,194.43 L 495.69,195.78 L 490.32,191.70 L 486.50,187.07 L 488.11,184.34 L 481.06,182.52 L 474.20,182.73 L 479.50,183.58 L 483.21,187.38 L 481.18,188.79 L 482.52,189.42 L 481.54,190.85 L 493.20,198.17 L 487.75,200.33 L 492.37,199.00 L 495.94,201.51 L 491.50,200.20 L 488.26,201.74 L 496.78,202.55 L 498.50,204.86 L 495.68,205.48 L 497.13,207.34 L 493.03,208.18 L 503.24,210.31 L 509.04,214.97 L 511.23,218.20 L 510.87,220.58 L 512.90,220.86 L 512.92,221.08 L 512.92,225.09 L 510.79,223.62 L 511.93,230.11 L 510.08,233.43 L 510.70,234.47 L 505.74,236.55 L 507.88,237.18 L 508.10,239.72 L 510.17,240.93 L 510.46,244.41 L 511.89,245.22 L 512.44,246.95 L 510.97,248.87 L 512.92,251.23 L 512.92,253.82 L 511.67,255.14 L 512.92,255.51 L 512.92,257.30 L 512.64,257.47 L 512.92,257.85 L 512.92,260.99 L 511.50,261.80 L 512.92,262.89 L 512.92,500.00 L 422.99,500.00 L 422.81,499.67 Z M 431.97,382.83 L 431.78,381.34 L 432.34,380.86 L 431.97,382.83 Z M 447.59,401.26 L 445.92,399.73 L 446.64,399.84 L 447.59,401.26 Z M 422.23,401.03 L 422.00,400.52 L 422.23,399.56 L 423.06,400.17 L 422.23,401.03 Z M 411.45,399.96 L 411.01,397.47 L 411.19,397.48 L 411.45,399.96 Z M 432.59,392.28 L 431.53,389.93 L 432.03,389.88 L 433.72,391.52 L 432.59,392.28 Z M 431.04,391.03 L 430.03,389.52 L 430.80,389.48 L 431.04,391.03 Z M 481.20,184.33 L 480.48,183.58 L 480.72,183.15 L 481.20,184.33 Z M 504.70,114.07 L 507.16,115.76 L 501.60,115.24 L 504.70,114.07 Z" fill="#C8D8E8" stroke="#8BAABB" stroke-width="0.8"/>
<path d="M 429.84,129.58 L 434.88,131.50 L 430.32,140.81 L 433.11,150.72 L 441.71,154.72 L 445.84,162.31 L 450.46,166.50 L 449.26,171.91 L 444.14,178.30 L 438.11,190.19 L 449.05,214.54 L 451.78,226.59 L 451.61,228.29 L 446.50,229.11 L 448.25,231.07 L 446.81,233.31 L 446.73,238.25 L 444.92,241.11 L 448.18,242.03 L 448.40,244.57 L 445.16,247.23 L 445.61,251.10 L 447.50,254.50 L 451.87,255.34 L 452.67,259.15 L 449.75,261.40 L 451.24,264.35 L 450.75,266.63 L 457.54,272.03 L 457.46,278.06 L 452.93,285.03 L 450.09,286.59 L 456.28,294.77 L 465.86,302.69 L 470.57,312.03 L 466.37,324.29 L 440.06,362.57 L 421.19,383.02 L 420.75,385.72 L 417.54,386.39 L 414.65,384.91 L 415.62,384.49 L 414.42,382.69 L 411.17,386.89 L 404.98,386.25 L 406.82,381.94 L 408.47,383.02 L 407.26,380.66 L 403.17,389.07 L 397.69,385.72 L 400.15,390.28 L 399.27,391.38 L 396.72,388.26 L 397.86,393.04 L 395.58,390.74 L 396.81,392.41 L 395.35,392.97 L 394.48,389.40 L 392.65,390.54 L 392.35,393.01 L 389.91,392.21 L 386.24,396.00 L 385.85,394.02 L 385.23,396.13 L 383.37,394.70 L 381.61,397.42 L 380.11,395.75 L 380.63,398.67 L 378.72,400.74 L 378.95,399.08 L 377.00,400.58 L 377.09,398.19 L 365.61,401.82 L 367.12,398.25 L 363.13,403.61 L 363.32,405.34 L 358.85,406.25 L 363.26,402.86 L 364.28,400.22 L 361.50,402.84 L 363.40,399.29 L 360.53,399.15 L 360.40,396.38 L 358.46,395.95 L 361.11,389.69 L 353.95,394.28 L 355.54,392.02 L 353.10,392.44 L 355.23,388.35 L 350.94,388.85 L 345.93,384.40 L 344.41,385.95 L 345.12,381.36 L 342.18,385.62 L 340.96,383.23 L 341.75,383.23 L 339.55,382.83 L 340.35,381.98 L 338.84,379.49 L 340.35,378.24 L 338.53,375.31 L 339.81,373.02 L 338.14,368.23 L 340.50,368.23 L 339.99,364.88 L 341.48,363.84 L 340.42,362.57 L 341.31,361.54 L 341.05,358.63 L 340.07,357.79 L 341.67,357.38 L 339.73,355.28 L 341.92,355.28 L 340.50,352.77 L 343.52,354.01 L 341.22,350.27 L 340.96,348.40 L 341.84,348.82 L 340.35,346.93 L 339.63,342.45 L 337.34,340.07 L 339.11,331.49 L 338.31,332.55 L 338.66,328.79 L 337.78,327.10 L 337.07,329.41 L 336.90,326.90 L 336.01,327.31 L 335.92,322.74 L 336.78,321.32 L 335.13,321.47 L 336.36,317.71 L 335.75,315.83 L 339.33,312.81 L 340.01,307.92 L 343.16,308.34 L 340.69,302.80 L 345.82,301.23 L 345.64,303.75 L 346.97,304.80 L 347.50,301.88 L 349.44,302.08 L 351.44,300.52 L 352.00,299.38 L 349.70,296.04 L 352.36,296.43 L 350.81,293.14 L 352.43,295.25 L 354.78,287.75 L 357.15,290.06 L 358.81,287.68 L 357.92,287.06 L 359.12,286.53 L 358.82,284.96 L 360.08,285.92 L 360.88,283.20 L 365.44,281.01 L 365.19,277.01 L 367.87,277.88 L 367.47,275.45 L 372.24,271.21 L 373.03,266.87 L 377.41,262.56 L 380.55,254.93 L 379.91,254.20 L 387.08,250.76 L 390.44,253.46 L 390.50,250.98 L 388.33,249.28 L 391.58,249.28 L 390.45,245.33 L 388.59,244.50 L 390.09,241.37 L 390.18,237.81 L 389.29,236.78 L 390.45,235.73 L 390.04,232.84 L 384.05,228.21 L 381.68,228.93 L 380.07,225.03 L 382.13,220.50 L 379.66,224.04 L 375.63,224.56 L 373.22,216.34 L 368.96,210.00 L 368.49,203.86 L 371.45,200.67 L 371.58,194.96 L 373.02,193.31 L 367.57,182.72 L 367.85,179.46 L 370.21,177.10 L 369.94,174.59 L 365.64,172.60 L 367.21,169.51 L 366.28,161.06 L 368.61,158.44 L 364.03,152.50 L 362.21,153.22 L 360.94,148.10 L 357.60,144.91 L 348.11,142.41 L 333.07,129.70 L 333.14,127.08 L 329.43,125.38 L 330.99,123.31 L 335.21,125.37 L 336.30,123.82 L 334.72,120.97 L 335.55,119.20 L 342.52,118.23 L 351.97,131.89 L 352.46,135.23 L 362.62,138.12 L 372.05,132.08 L 384.64,139.98 L 387.57,137.22 L 388.46,132.19 L 393.96,130.32 L 396.12,126.69 L 395.37,119.85 L 398.82,105.50 L 401.31,104.71 L 405.64,98.32 L 412.95,99.03 L 422.83,93.75 L 429.76,102.06 L 439.34,106.28 L 441.88,112.35 L 435.53,120.29 L 435.22,123.73 L 436.85,125.66 L 429.84,129.58 Z M 352.89,400.58 L 352.12,400.73 L 351.68,398.58 L 352.89,400.58 Z M 341.65,395.32 L 342.72,395.76 L 342.19,397.39 L 340.69,396.38 L 341.65,395.32 Z M 345.29,394.51 L 345.73,395.13 L 343.26,396.80 L 345.29,394.51 Z M 339.04,394.52 L 340.07,394.91 L 337.78,394.70 L 339.04,394.52 Z M 347.30,396.32 L 346.35,395.13 L 347.72,394.07 L 347.30,396.32 Z M 396.46,393.92 L 397.16,393.89 L 396.64,394.53 L 396.46,393.92 Z M 350.35,393.10 L 350.94,393.04 L 350.65,394.54 L 349.88,394.28 L 350.35,393.10 Z M 393.22,392.65 L 393.36,391.48 L 394.69,393.04 L 393.22,392.65 Z M 359.51,391.58 L 356.59,400.35 L 353.24,400.58 L 352.62,397.01 L 354.92,396.17 L 352.53,395.95 L 352.96,393.76 L 353.20,394.91 L 359.51,391.58 Z M 350.40,391.02 L 351.56,391.79 L 348.21,392.30 L 350.40,391.02 Z M 351.21,390.73 L 352.31,389.69 L 353.33,390.73 L 351.21,390.73 Z M 344.53,389.12 L 344.71,386.29 L 346.30,387.61 L 347.15,390.34 L 344.53,389.12 Z M 343.08,386.35 L 344.14,384.49 L 344.09,384.91 L 343.08,386.35 Z M 337.51,385.33 L 337.24,383.46 L 337.88,383.99 L 338.40,385.84 L 337.51,385.33 Z M 340.50,384.49 L 339.99,386.16 L 338.52,384.51 L 340.50,384.49 Z M 337.29,382.42 L 337.04,381.74 L 337.78,380.92 L 338.14,383.23 L 337.29,382.42 Z M 336.90,373.42 L 338.14,373.23 L 337.77,371.03 L 339.11,372.18 L 338.39,373.70 L 336.90,373.42 Z M 337.42,304.58 L 335.30,300.40 L 337.42,300.61 L 336.80,302.29 L 337.98,302.73 L 339.73,301.65 L 337.42,304.58 Z M 338.35,299.91 L 337.24,299.15 L 339.11,298.53 L 338.35,299.91 Z M 386.66,246.95 L 383.54,246.96 L 382.28,248.17 L 383.64,249.10 L 382.44,249.77 L 380.23,247.14 L 385.78,246.60 L 386.66,246.95 Z M 371.61,402.03 L 371.00,401.88 L 371.30,401.33 L 371.61,402.03 Z M 359.13,398.51 L 358.43,400.32 L 358.21,398.81 L 359.13,398.51 Z M 359.39,397.92 L 358.08,398.00 L 358.68,396.88 L 359.39,397.92 Z M 347.34,396.77 L 346.28,396.71 L 346.69,396.30 L 347.34,396.77 Z M 352.02,394.29 L 352.15,394.56 L 350.90,395.94 L 352.02,394.29 Z M 346.83,391.81 L 347.29,391.45 L 347.26,391.61 L 346.83,391.81 Z M 346.02,391.97 L 345.57,391.22 L 346.84,391.09 L 346.02,391.97 Z M 349.64,390.10 L 349.21,389.79 L 350.48,389.11 L 349.64,390.10 Z M 349.86,389.07 L 348.52,389.72 L 348.96,388.96 L 349.86,389.07 Z M 338.87,389.79 L 338.08,389.22 L 338.25,388.64 L 338.87,389.79 Z M 407.17,387.50 L 405.30,388.22 L 406.17,387.66 L 407.17,387.50 Z M 347.78,300.57 L 346.90,300.64 L 347.04,299.72 L 347.78,300.57 Z M 348.07,299.47 L 350.16,298.85 L 348.66,300.51 L 348.07,299.47 Z M 347.13,297.45 L 348.42,297.49 L 348.16,298.20 L 346.63,299.07 L 347.13,297.45 Z M 356.72,287.23 L 355.97,285.92 L 357.03,285.07 L 356.72,287.23 Z M 352.90,405.02 L 352.52,404.73 L 353.07,404.37 L 352.90,405.02 Z M 342.37,392.81 L 341.55,393.61 L 341.85,392.30 L 342.37,392.81 Z M 337.68,375.22 L 336.69,374.43 L 337.46,374.74 L 337.68,375.22 Z M 338.83,364.70 L 338.71,364.25 L 339.19,363.54 L 339.73,364.68 L 338.83,364.70 Z M 340.83,351.24 L 340.22,350.90 L 340.53,350.56 L 340.83,351.24 Z M 336.18,310.59 L 335.97,309.14 L 336.81,309.34 L 336.18,310.59 Z" fill="#4A90D9" stroke="#1a5fa8" stroke-width="1.2"/>
<path d="M 490.83,226.60 L 497.21,221.44 L 499.05,221.59 L 495.55,223.17 L 501.24,223.92 L 496.99,226.49 L 497.97,229.22 L 490.83,226.60 Z" fill="#A8C8E8" stroke="none"/>
<path d="M 466.33,219.24 L 467.83,220.90 L 466.32,221.92 L 466.92,223.43 L 465.45,223.20 L 464.96,222.11 L 466.12,221.62 L 458.61,216.75 L 459.83,214.15 L 457.99,212.20 L 461.51,210.97 L 459.90,207.30 L 464.56,208.93 L 464.61,206.50 L 466.54,203.66 L 470.52,202.00 L 473.51,203.60 L 467.12,204.52 L 468.42,206.11 L 464.15,211.61 L 465.67,212.62 L 465.48,215.66 L 466.83,216.95 L 466.33,219.24 Z M 462.33,216.25 L 462.62,216.05 L 461.21,215.95 L 462.33,216.25 Z M 463.24,211.45 L 462.12,211.77 L 462.76,212.88 L 463.24,211.45 Z" fill="#A8C8E8" stroke="none"/>
<path d="M 451.53,360.69 L 453.71,360.29 L 452.20,359.25 L 453.00,357.15 L 454.86,356.32 L 453.26,354.01 L 456.25,355.27 L 456.17,353.81 L 458.66,353.40 L 457.52,351.73 L 461.18,346.35 L 463.87,348.40 L 464.24,351.09 L 468.11,351.10 L 471.29,357.70 L 470.95,355.26 L 482.68,365.90 L 483.61,370.11 L 486.51,374.28 L 486.62,378.53 L 488.43,380.51 L 486.22,386.57 L 483.88,383.92 L 484.98,388.24 L 483.58,389.77 L 484.20,392.48 L 483.47,394.69 L 479.89,396.42 L 478.24,393.93 L 472.73,392.63 L 470.82,395.42 L 470.16,402.72 L 464.87,402.94 L 463.78,402.00 L 465.31,399.91 L 464.59,395.87 L 459.44,382.84 L 457.22,381.32 L 457.11,375.08 L 447.70,363.41 L 450.48,365.39 L 448.23,362.16 L 449.17,360.72 L 451.34,362.66 L 451.53,360.69 Z M 460.69,347.76 L 459.55,349.93 L 461.12,351.17 L 460.69,347.76 Z M 461.39,349.34 L 462.10,350.27 L 462.04,348.73 L 461.39,349.34 Z M 458.98,353.05 L 459.19,352.97 L 458.30,352.12 L 458.98,353.05 Z M 457.84,354.84 L 458.30,354.24 L 458.21,354.01 L 457.84,354.84 Z M 455.09,355.80 L 455.55,355.90 L 455.29,355.47 L 455.09,355.80 Z M 461.76,358.21 L 463.55,357.54 L 462.72,357.50 L 461.76,358.21 Z M 470.27,359.45 L 471.73,360.49 L 471.56,359.04 L 470.27,359.45 Z M 473.80,360.83 L 474.65,360.90 L 473.56,359.36 L 471.99,358.42 L 473.80,360.83 Z M 454.48,358.27 L 454.86,358.21 L 453.36,358.40 L 454.48,358.27 Z M 450.08,362.78 L 449.19,361.97 L 449.35,362.47 L 450.08,362.78 Z M 457.97,373.34 L 457.58,374.06 L 458.15,374.31 L 457.97,373.34 Z M 460.61,348.60 L 460.61,348.59 L 460.61,348.62 L 460.61,348.60 Z" fill="#A8C8E8" stroke="none"/>
<path d="M 512.56,369.46 L 511.86,366.37 L 512.92,363.22 L 512.92,369.15 L 512.56,369.46 Z M 511.24,352.33 L 506.02,344.85 L 505.88,342.85 L 509.06,346.39 L 509.96,342.46 L 505.58,335.67 L 505.31,331.38 L 502.89,326.74 L 501.78,327.96 L 501.07,323.64 L 502.82,323.96 L 502.86,326.28 L 506.72,331.70 L 505.92,334.02 L 511.52,338.60 L 509.11,332.55 L 511.24,334.68 L 510.70,331.92 L 507.58,325.49 L 512.16,331.98 L 511.85,329.22 L 509.27,325.77 L 507.87,321.47 L 510.97,325.63 L 512.91,329.82 L 512.92,329.94 L 512.92,353.46 L 511.24,352.33 Z M 509.79,339.54 L 509.47,339.60 L 510.12,341.46 L 509.79,339.54 Z M 512.86,321.29 L 512.92,321.36 L 512.92,321.44 L 509.19,316.68 L 507.82,311.87 L 511.19,314.87 L 512.88,313.82 L 512.92,313.86 L 512.92,321.00 L 512.86,321.29 Z" fill="#A8C8E8" stroke="none"/>
<path d="M 423.65,368.17 L 422.07,365.32 L 427.91,365.32 L 425.07,361.66 L 420.13,362.16 L 420.21,364.05 L 416.60,362.57 L 418.01,361.74 L 415.89,359.25 L 415.80,360.29 L 414.74,360.29 L 414.98,358.04 L 416.33,356.76 L 414.85,354.96 L 417.92,355.90 L 415.23,353.71 L 415.18,349.98 L 416.60,351.10 L 415.45,353.81 L 418.46,354.43 L 417.13,353.18 L 417.66,350.27 L 419.00,352.83 L 421.99,348.82 L 419.33,346.51 L 420.39,345.68 L 423.43,349.30 L 424.99,355.28 L 427.56,352.56 L 427.68,347.44 L 431.35,347.16 L 430.65,344.00 L 435.63,344.35 L 428.53,337.33 L 430.83,338.57 L 430.02,337.58 L 423.06,335.25 L 424.37,334.41 L 422.25,329.62 L 423.75,329.82 L 422.20,329.10 L 422.87,328.14 L 421.63,325.24 L 421.19,327.95 L 419.12,325.52 L 419.71,327.20 L 418.85,327.64 L 416.51,323.78 L 417.04,325.24 L 414.93,325.45 L 413.21,320.34 L 415.89,324.60 L 416.02,321.88 L 417.39,324.02 L 418.76,322.74 L 418.80,324.21 L 421.19,327.11 L 419.33,323.45 L 421.14,323.94 L 418.19,321.17 L 419.95,322.12 L 419.20,319.26 L 420.42,316.59 L 419.43,315.51 L 420.66,314.65 L 419.86,313.33 L 420.65,311.67 L 418.76,314.30 L 416.68,312.52 L 416.77,309.79 L 414.83,308.34 L 415.53,307.72 L 413.86,307.30 L 415.09,306.25 L 413.33,303.54 L 414.83,302.71 L 413.77,299.77 L 415.09,299.99 L 413.71,296.06 L 413.94,293.72 L 411.38,294.15 L 410.07,291.17 L 413.54,292.05 L 415.35,297.28 L 413.94,296.24 L 415.19,298.73 L 416.36,297.93 L 416.75,299.95 L 415.62,301.88 L 416.51,303.95 L 414.47,303.95 L 416.81,308.77 L 419.77,309.79 L 419.07,308.15 L 421.61,311.26 L 422.18,309.79 L 420.75,307.10 L 422.38,305.62 L 423.13,309.17 L 429.41,307.72 L 426.14,310.65 L 427.72,313.76 L 426.23,313.99 L 427.11,318.35 L 428.10,318.51 L 427.56,320.02 L 432.94,322.74 L 437.00,327.95 L 432.38,326.85 L 430.46,324.21 L 432.94,325.24 L 432.37,324.15 L 429.14,321.27 L 427.19,323.55 L 427.37,326.71 L 425.42,326.15 L 426.55,323.66 L 424.90,319.39 L 426.14,319.39 L 423.93,316.18 L 420.92,319.80 L 422.78,320.45 L 422.35,321.15 L 420.84,320.64 L 423.16,326.44 L 425.22,326.59 L 423.77,331.74 L 428.96,330.65 L 431.63,333.40 L 434.09,329.62 L 433.07,327.45 L 437.19,334.63 L 434.79,332.13 L 436.56,334.63 L 433.38,333.38 L 435.41,335.48 L 434.35,335.67 L 440.36,334.82 L 438.70,333.34 L 441.59,334.77 L 442.75,332.74 L 440.98,332.13 L 441.33,329.41 L 440.28,327.32 L 441.77,325.96 L 440.10,322.74 L 441.07,321.06 L 445.98,327.86 L 444.78,325.24 L 445.58,325.14 L 444.81,323.58 L 445.72,320.62 L 449.66,325.94 L 447.00,328.79 L 448.49,330.25 L 444.43,330.66 L 450.60,335.60 L 449.20,337.02 L 443.99,334.19 L 444.17,337.14 L 442.83,336.49 L 447.79,341.73 L 446.56,342.98 L 446.71,345.12 L 442.75,347.16 L 443.01,348.82 L 441.34,349.08 L 440.70,351.74 L 437.98,351.32 L 438.77,352.95 L 434.53,349.04 L 432.24,350.50 L 432.51,351.75 L 434.35,351.14 L 435.59,352.56 L 433.38,352.12 L 433.66,355.47 L 431.44,354.87 L 431.76,357.74 L 428.39,359.31 L 433.17,358.73 L 435.70,363.16 L 428.69,367.81 L 423.65,368.17 Z M 432.57,363.89 L 433.30,363.41 L 432.51,362.57 L 431.84,362.57 L 432.57,363.89 Z M 421.30,353.49 L 421.81,356.32 L 418.10,355.47 L 421.99,356.94 L 420.84,357.80 L 422.60,357.56 L 423.92,355.31 L 421.30,353.49 Z M 420.92,361.74 L 419.60,358.21 L 415.53,358.00 L 420.92,361.74 Z M 428.26,357.38 L 431.53,356.76 L 429.83,354.44 L 426.93,356.32 L 428.26,357.38 Z M 429.23,354.24 L 430.65,352.33 L 429.50,352.12 L 427.67,353.65 L 429.23,354.24 Z M 428.17,351.52 L 431.53,351.10 L 430.38,348.82 L 431.00,348.20 L 429.77,348.59 L 429.89,350.04 L 429.31,347.94 L 428.17,351.52 Z M 439.66,347.16 L 441.33,345.06 L 441.71,340.54 L 444.07,341.31 L 440.90,335.04 L 441.24,340.07 L 440.02,339.01 L 439.48,337.14 L 440.63,337.17 L 439.80,335.31 L 433.30,337.94 L 439.66,347.16 Z M 421.84,323.52 L 420.13,322.53 L 421.51,323.85 L 422.16,325.05 L 421.84,323.52 Z M 422.93,314.71 L 426.68,316.90 L 425.17,315.86 L 426.14,314.58 L 425.17,313.33 L 426.23,312.91 L 424.99,312.71 L 425.26,309.79 L 422.52,311.44 L 422.93,314.71 Z" fill="#A8C8E8" stroke="none"/>
<path d="M 403.35,356.94 L 401.22,360.70 L 402.45,360.90 L 402.06,363.08 L 400.15,362.37 L 401.22,362.99 L 401.04,366.34 L 402.28,367.38 L 399.89,372.17 L 398.87,371.14 L 400.87,367.08 L 398.57,363.84 L 396.76,365.81 L 397.16,364.46 L 394.43,361.34 L 393.91,363.01 L 395.21,363.63 L 392.30,366.56 L 393.70,367.53 L 393.91,370.27 L 391.89,367.02 L 391.59,368.84 L 389.82,367.99 L 392.73,364.88 L 392.52,362.06 L 390.96,362.78 L 391.14,360.06 L 389.82,360.70 L 388.85,358.21 L 389.83,357.90 L 387.79,356.11 L 388.76,355.53 L 387.71,353.62 L 390.91,352.95 L 391.86,350.50 L 388.06,345.47 L 390.40,346.83 L 391.86,343.55 L 388.59,343.81 L 390.80,342.53 L 389.65,341.50 L 392.12,342.56 L 393.27,340.07 L 392.47,339.22 L 395.28,338.91 L 393.98,336.17 L 391.74,336.19 L 391.62,334.49 L 394.93,335.62 L 395.21,332.32 L 397.96,329.82 L 397.50,326.01 L 396.01,326.07 L 396.99,324.81 L 393.35,321.36 L 396.17,319.73 L 396.10,316.68 L 397.58,318.23 L 397.78,316.14 L 396.10,315.86 L 397.69,313.33 L 396.27,311.87 L 398.66,312.30 L 392.83,306.05 L 392.83,310.21 L 390.09,308.96 L 392.37,308.49 L 391.23,305.41 L 392.73,305.41 L 393.83,301.43 L 394.21,304.70 L 396.55,306.98 L 396.36,304.80 L 397.96,305.82 L 400.69,309.98 L 398.70,310.18 L 404.07,317.32 L 402.75,318.32 L 399.33,313.34 L 399.98,315.26 L 398.62,316.58 L 399.27,318.96 L 398.24,318.18 L 400.15,320.64 L 397.31,319.30 L 396.07,320.24 L 396.76,322.30 L 395.43,321.96 L 398.52,326.98 L 399.87,322.90 L 400.59,325.24 L 399.45,326.71 L 401.48,328.14 L 401.09,322.21 L 403.45,319.59 L 405.91,320.84 L 402.81,312.47 L 406.00,318.62 L 409.29,321.21 L 409.13,319.41 L 410.06,318.54 L 404.58,310.42 L 408.79,315.64 L 407.41,309.59 L 409.62,311.67 L 407.67,308.74 L 409.54,310.01 L 410.85,308.15 L 411.62,308.10 L 412.35,308.55 L 411.21,309.59 L 412.44,311.45 L 410.51,309.79 L 411.30,311.87 L 409.96,312.71 L 411.21,313.99 L 410.68,312.91 L 414.03,314.58 L 411.57,313.56 L 411.57,316.05 L 409.26,314.18 L 412.35,319.39 L 410.68,318.96 L 411.95,321.79 L 409.53,319.70 L 410.23,321.27 L 408.99,323.59 L 411.08,326.18 L 409.17,324.40 L 407.57,325.85 L 408.65,322.12 L 407.52,320.95 L 406.79,326.48 L 406.03,327.99 L 404.58,327.32 L 404.35,330.33 L 403.33,329.07 L 404.32,327.32 L 403.70,326.29 L 405.38,327.19 L 404.74,325.76 L 406.41,323.26 L 403.04,321.43 L 401.53,323.25 L 402.73,330.25 L 399.27,327.73 L 401.40,330.94 L 399.98,331.29 L 398.48,327.54 L 398.22,330.03 L 399.45,331.70 L 398.03,331.29 L 397.83,335.02 L 398.83,336.73 L 397.32,335.26 L 397.34,332.76 L 395.93,337.97 L 397.75,340.14 L 393.79,340.37 L 394.59,342.15 L 393.89,342.67 L 395.47,342.98 L 393.62,343.81 L 393.18,346.31 L 395.47,344.85 L 393.89,349.63 L 396.01,352.56 L 393.51,351.20 L 392.91,351.93 L 394.06,352.12 L 392.73,354.87 L 395.21,356.53 L 392.30,356.32 L 393.54,358.00 L 392.65,361.12 L 397.15,361.52 L 399.90,364.69 L 400.69,363.63 L 399.89,361.97 L 403.35,356.94 Z" fill="#A8C8E8" stroke="none"/>
<path d="M 419.29,454.49 L 419.51,457.29 L 423.85,456.04 L 426.49,460.95 L 426.64,464.56 L 424.04,465.81 L 420.82,460.21 L 419.59,462.50 L 418.19,454.18 L 419.29,454.49 Z" fill="#A8C8E8" stroke="none"/>
<path d="M 454.68,242.43 L 459.14,246.38 L 464.31,244.92 L 460.34,243.43 L 461.04,242.18 L 469.16,243.04 L 471.38,244.71 L 470.66,246.16 L 472.35,247.62 L 471.64,247.83 L 476.16,251.17 L 471.73,250.12 L 469.47,245.20 L 467.32,244.09 L 465.05,244.59 L 465.81,246.53 L 461.33,245.80 L 460.86,249.28 L 456.88,250.76 L 459.98,248.87 L 454.68,242.43 Z" fill="#A8C8E8" stroke="none"/>
<path d="M 411.82,129.55 L 417.73,126.69 L 423.33,120.63 L 424.82,122.23 L 428.26,120.37 L 425.47,121.22 L 424.51,117.86 L 426.50,116.79 L 425.84,119.99 L 428.79,117.64 L 426.57,118.68 L 427.65,116.87 L 432.24,115.14 L 429.31,118.20 L 435.22,113.20 L 429.75,118.94 L 432.94,119.10 L 430.04,121.44 L 429.67,123.49 L 430.99,122.79 L 430.56,125.15 L 428.00,123.56 L 425.61,126.53 L 429.50,130.80 L 423.04,129.72 L 423.12,131.72 L 425.96,132.05 L 422.11,135.17 L 421.28,134.95 L 423.40,132.87 L 421.64,131.81 L 420.62,134.71 L 419.77,135.58 L 420.39,134.54 L 417.12,133.33 L 415.49,135.39 L 414.30,134.73 L 415.92,133.19 L 418.99,132.67 L 416.17,129.39 L 411.82,129.55 Z" fill="#A8C8E8" stroke="none"/>
<path d="M 416.95,449.90 L 414.71,448.48 L 413.73,441.21 L 411.08,437.17 L 412.23,432.65 L 421.12,431.14 L 422.40,447.02 L 417.67,454.67 L 416.95,449.90 Z M 418.05,450.07 L 418.46,450.02 L 417.98,449.42 L 418.05,450.07 Z" fill="#A8C8E8" stroke="none"/>
<path d="M 418.67,372.18 L 415.62,370.72 L 416.42,368.65 L 417.24,370.76 L 420.35,370.72 L 421.36,369.06 L 420.03,367.66 L 420.98,367.54 L 422.96,370.07 L 419.76,371.88 L 418.67,372.18 Z" fill="#A8C8E8" stroke="none"/>
<path d="M 440.81,318.77 L 439.97,316.57 L 441.27,315.07 L 442.28,319.12 L 443.37,317.30 L 444.78,319.39 L 440.75,319.89 L 439.34,318.42 L 440.81,318.77 Z" fill="#A8C8E8" stroke="none"/>
<path d="M 481.37,173.77 L 481.46,173.78 L 481.36,173.78 L 481.37,173.77 Z" fill="#A8C8E8" stroke="none"/>
<path d="M 510.45,283.71 L 509.65,286.44 L 512.61,286.27 L 512.92,286.99 L 512.92,295.26 L 512.21,294.57 L 512.92,297.38 L 512.92,301.42 L 512.04,296.72 L 507.60,294.77 L 508.89,294.50 L 508.01,293.08 L 508.73,291.97 L 506.11,287.12 L 505.31,290.60 L 504.34,291.03 L 504.43,288.36 L 506.21,286.10 L 505.23,283.30 L 510.45,283.71 Z M 511.77,290.82 L 512.56,291.45 L 512.40,290.94 L 511.77,290.82 Z M 510.95,295.65 L 511.46,295.08 L 510.78,293.31 L 509.60,294.22 L 510.95,295.65 Z M 512.56,312.52 L 512.91,307.21 L 512.92,307.20 L 512.92,312.05 L 512.56,312.52 Z" fill="#A8C8E8" stroke="none"/>
<path d="M 512.03,290.82 L 512.12,290.81 L 512.19,290.82 L 512.03,290.82 Z" fill="#A8C8E8" stroke="none"/>
<path d="M 495.50,294.15 L 496.78,295.39 L 496.47,293.11 L 497.52,296.66 L 501.59,296.40 L 500.96,299.43 L 504.34,303.33 L 494.77,303.04 L 492.14,297.72 L 494.74,300.67 L 494.28,297.60 L 491.77,296.55 L 491.61,295.81 L 495.50,294.15 Z" fill="#A8C8E8" stroke="none"/>
<path d="M 451.32,301.46 L 449.26,301.62 L 450.26,302.89 L 450.43,307.19 L 455.55,315.64 L 453.48,314.33 L 452.22,317.36 L 451.14,317.92 L 453.54,312.91 L 447.67,306.30 L 447.73,303.63 L 445.54,305.50 L 445.04,303.13 L 442.47,303.66 L 436.65,293.29 L 439.51,295.18 L 437.98,290.82 L 445.05,299.27 L 451.32,301.46 Z" fill="#A8C8E8" stroke="none"/>
<path d="M 475.28,228.84 L 470.93,227.17 L 469.26,223.85 L 474.23,220.66 L 478.71,221.34 L 474.39,222.38 L 479.51,222.79 L 477.20,223.62 L 481.46,229.27 L 479.79,231.02 L 484.54,233.31 L 485.40,236.13 L 476.15,231.62 L 475.28,228.84 Z M 478.97,231.76 L 479.86,231.98 L 478.58,231.01 L 478.97,231.76 Z M 475.54,226.78 L 474.74,226.11 L 473.58,226.97 L 475.54,226.78 Z M 475.85,228.00 L 476.60,228.02 L 475.50,227.24 L 475.85,228.00 Z" fill="#A8C8E8" stroke="none"/>
<path d="M 462.02,341.09 L 461.04,339.63 L 461.57,337.97 L 460.42,336.73 L 462.75,336.94 L 464.17,340.64 L 462.39,342.48 L 461.29,341.05 L 462.02,341.09 Z" fill="#A8C8E8" stroke="none"/>
<path d="M 436.21,351.93 L 435.52,351.73 L 435.76,351.53 L 436.21,351.93 Z" fill="#A8C8E8" stroke="none"/>
<path d="M 407.49,348.20 L 410.03,350.11 L 410.51,352.56 L 409.03,353.21 L 405.64,345.93 L 402.19,343.38 L 403.99,340.00 L 404.76,341.09 L 403.35,343.81 L 404.93,344.08 L 405.88,341.11 L 407.27,343.92 L 409.26,343.38 L 407.49,341.73 L 406.23,338.12 L 410.13,342.67 L 410.23,347.35 L 412.35,349.44 L 407.49,348.20 Z" fill="#A8C8E8" stroke="none"/>
<path d="M 378.42,352.33 L 380.72,354.43 L 376.76,354.22 L 375.06,356.58 L 374.28,360.44 L 375.69,359.67 L 377.19,361.97 L 375.39,360.68 L 372.85,363.22 L 377.51,364.78 L 377.98,366.13 L 377.18,366.61 L 379.13,369.46 L 376.93,366.32 L 376.22,368.06 L 369.93,363.41 L 369.84,359.67 L 370.82,363.57 L 372.68,364.05 L 372.15,362.57 L 373.68,360.20 L 372.59,357.15 L 377.43,352.92 L 377.15,350.32 L 383.03,347.76 L 381.54,348.91 L 382.05,350.27 L 378.42,352.33 Z" fill="#A8C8E8" stroke="none"/>
<path d="M 366.52,358.42 L 369.40,360.06 L 369.34,362.54 L 364.28,358.62 L 367.29,355.28 L 369.21,355.02 L 367.27,350.67 L 368.44,349.63 L 367.03,348.59 L 369.00,348.20 L 368.71,345.06 L 369.93,344.62 L 368.27,342.56 L 370.94,343.97 L 370.84,342.13 L 373.91,340.48 L 372.61,336.47 L 368.55,336.19 L 368.09,333.17 L 371.35,335.56 L 372.63,332.27 L 372.38,335.31 L 375.59,334.46 L 374.01,335.67 L 375.07,335.87 L 374.28,337.77 L 375.73,338.57 L 376.92,335.87 L 377.58,336.61 L 376.56,338.16 L 377.36,339.01 L 380.36,339.03 L 376.56,334.19 L 380.54,337.54 L 380.64,331.70 L 381.97,331.21 L 381.76,334.02 L 383.03,332.96 L 380.45,339.41 L 382.40,342.98 L 379.79,339.35 L 376.56,340.07 L 373.91,338.38 L 375.51,340.88 L 373.22,341.31 L 374.01,342.35 L 369.50,346.51 L 370.64,347.76 L 369.51,350.24 L 372.15,350.06 L 369.76,351.10 L 370.64,351.17 L 370.54,353.76 L 369.23,355.47 L 366.52,358.42 Z" fill="#A8C8E8" stroke="none"/>
<path d="M 363.48,357.80 L 360.47,357.72 L 359.56,359.67 L 356.11,361.53 L 355.53,363.93 L 354.65,363.63 L 356.70,360.23 L 359.40,359.15 L 360.39,356.67 L 365.08,355.90 L 362.96,356.50 L 363.48,357.80 Z" fill="#A8C8E8" stroke="none"/>
<path d="M 405.64,306.67 L 406.87,311.04 L 401.31,300.80 L 404.58,304.58 L 407.05,303.33 L 403.70,298.53 L 408.21,299.38 L 406.95,299.99 L 408.65,303.13 L 405.64,306.67 Z" fill="#A8C8E8" stroke="none"/>
<path d="M 403.87,351.32 L 401.39,346.92 L 400.91,348.55 L 399.67,347.87 L 399.63,350.06 L 401.31,350.91 L 400.87,354.01 L 396.81,349.44 L 398.12,348.82 L 397.93,345.28 L 400.64,347.45 L 401.48,344.00 L 402.63,348.64 L 404.98,347.35 L 405.92,350.89 L 403.87,351.32 Z" fill="#A8C8E8" stroke="none"/>
<path d="M 460.78,283.71 L 460.95,281.02 L 461.95,281.87 L 461.42,283.00 L 465.46,284.43 L 466.08,285.59 L 463.07,284.75 L 465.46,287.68 L 464.04,288.31 L 465.28,291.03 L 461.80,288.29 L 462.37,285.59 L 458.92,284.14 L 460.78,283.71 Z" fill="#A8C8E8" stroke="none"/>
<path d="M 439.66,208.83 L 437.26,209.22 L 438.60,210.26 L 433.40,214.45 L 428.97,215.51 L 433.66,215.08 L 430.73,216.93 L 425.48,216.95 L 425.16,214.12 L 422.60,212.77 L 425.90,213.34 L 426.39,215.99 L 432.51,213.41 L 431.35,212.36 L 435.51,210.91 L 434.10,207.40 L 439.66,208.83 Z" fill="#A8C8E8" stroke="none"/>
<path d="M 487.77,221.96 L 485.52,220.09 L 487.20,216.93 L 486.53,216.41 L 488.41,216.44 L 487.05,217.67 L 488.14,219.69 L 490.58,219.84 L 490.30,223.17 L 486.84,225.28 L 485.34,224.87 L 486.22,224.04 L 484.90,222.18 L 487.77,221.96 Z M 486.75,222.46 L 485.96,223.00 L 488.79,222.79 L 486.75,222.46 Z" fill="#A8C8E8" stroke="none"/>
<path d="M 400.59,453.98 L 399.68,458.29 L 397.60,451.35 L 398.46,448.95 L 400.33,449.58 L 400.59,453.98 Z" fill="#A8C8E8" stroke="none"/>
<path d="M 297.18,224.69 L 299.86,224.59 L 302.43,228.21 L 298.01,227.38 L 298.50,228.44 L 297.26,228.73 L 297.95,229.83 L 296.76,229.33 L 297.05,226.55 L 294.93,220.83 L 297.18,224.69 Z" fill="#A8C8E8" stroke="none"/>
<path d="M 292.24,222.52 L 291.21,219.88 L 292.36,218.78 L 288.92,215.51 L 287.59,217.59 L 287.08,215.95 L 287.08,214.51 L 293.77,215.51 L 291.13,213.72 L 290.71,211.19 L 296.87,215.51 L 294.44,216.27 L 295.28,219.03 L 292.24,222.52 Z" fill="#A8C8E8" stroke="none"/>
<path d="M 473.74,264.63 L 472.79,261.38 L 473.60,261.34 L 476.91,264.41 L 475.72,264.54 L 476.24,266.61 L 473.32,266.82 L 467.63,264.89 L 467.22,262.64 L 473.74,264.63 Z" fill="#A8C8E8" stroke="none"/>
<path d="M 409.75,366.63 L 408.78,364.46 L 409.06,367.10 L 407.93,367.19 L 406.16,362.57 L 408.84,361.65 L 406.25,357.56 L 407.88,352.71 L 406.69,350.50 L 406.69,348.82 L 408.11,351.10 L 407.23,351.32 L 408.15,352.57 L 407.57,356.76 L 411.47,357.80 L 406.79,357.38 L 409.45,360.90 L 408.82,363.84 L 411.06,365.81 L 409.75,366.63 Z" fill="#A8C8E8" stroke="none"/>
<path d="M 287.97,384.75 L 287.08,387.29 L 287.08,385.56 L 287.97,384.75 Z" fill="#A8C8E8" stroke="none"/>
<path d="M 446.77,380.68 L 445.13,378.67 L 449.37,379.67 L 447.44,378.24 L 447.43,374.31 L 448.03,377.98 L 453.79,379.82 L 456.53,382.84 L 450.70,380.00 L 446.77,380.68 Z" fill="#A8C8E8" stroke="none"/>
<path d="M 428.43,423.09 L 427.45,421.71 L 425.65,426.41 L 425.87,422.60 L 423.86,422.47 L 422.51,426.03 L 423.30,422.10 L 425.79,421.21 L 424.96,420.53 L 430.49,421.19 L 428.43,423.09 Z" fill="#A8C8E8" stroke="none"/>
<path d="M 329.83,161.66 L 331.85,163.34 L 328.27,161.80 L 323.66,156.36 L 321.73,151.95 L 309.41,146.20 L 304.99,146.23 L 302.88,142.48 L 311.34,146.68 L 319.24,147.42 L 320.10,148.31 L 315.78,148.73 L 322.05,150.23 L 324.05,156.22 L 325.41,155.67 L 326.73,158.32 L 326.82,156.65 L 328.35,161.39 L 331.54,160.67 L 329.83,161.66 Z" fill="#A8C8E8" stroke="none"/>
<path d="M 440.83,116.73 L 441.63,117.12 L 441.64,119.42 L 439.43,119.52 L 440.83,116.73 Z" fill="#A8C8E8" stroke="none"/>
<path d="M 287.86,211.09 L 287.20,210.38 L 288.93,210.37 L 287.08,208.95 L 287.08,206.93 L 287.28,207.01 L 290.60,212.11 L 287.86,211.09 Z" fill="#A8C8E8" stroke="none"/>
<path d="M 444.43,273.08 L 442.66,270.98 L 444.87,271.60 L 443.10,270.15 L 444.41,270.34 L 444.07,267.21 L 445.83,266.61 L 445.04,268.47 L 447.17,269.31 L 446.95,270.69 L 445.44,269.10 L 444.52,270.79 L 448.14,271.42 L 444.25,274.81 L 448.93,277.65 L 444.25,275.99 L 442.47,273.67 L 444.43,273.08 Z" fill="#A8C8E8" stroke="none"/>
<path d="M 443.10,276.21 L 433.60,276.65 L 429.67,273.91 L 429.23,275.38 L 431.09,277.25 L 429.50,276.40 L 429.41,279.14 L 428.17,277.88 L 428.97,276.21 L 427.91,274.55 L 429.23,273.28 L 436.34,275.99 L 439.35,273.30 L 443.10,276.21 Z" fill="#A8C8E8" stroke="none"/>
<path d="M 409.45,263.89 L 409.40,263.90 L 409.35,263.89 L 409.45,263.89 Z" fill="#A8C8E8" stroke="none"/>
<path d="M 492.67,150.81 L 490.37,149.15 L 491.96,148.94 L 490.99,146.45 L 491.71,146.13 L 493.42,149.80 L 492.67,150.81 Z" fill="#A8C8E8" stroke="none"/>
<path d="M 316.37,162.74 L 309.00,161.84 L 318.77,162.84 L 320.68,164.71 L 316.37,162.74 Z" fill="#A8C8E8" stroke="none"/>
<path d="M 452.12,348.82 L 450.61,348.82 L 450.71,345.53 L 449.07,347.67 L 448.75,343.81 L 450.63,342.21 L 446.11,336.49 L 448.75,337.42 L 452.67,345.85 L 452.12,348.82 Z" fill="#A8C8E8" stroke="none"/>
<path d="M 385.83,359.36 L 383.20,355.09 L 386.64,354.66 L 387.35,355.68 L 384.07,355.68 L 387.46,358.05 L 385.83,359.36 Z" fill="#A8C8E8" stroke="none"/>
<path d="M 368.20,308.36 L 366.85,305.10 L 367.93,301.62 L 369.93,306.05 L 368.20,308.36 Z" fill="#A8C8E8" stroke="none"/>
<path d="M 351.17,373.36 L 349.09,367.58 L 351.47,369.35 L 352.20,371.95 L 351.17,373.36 Z" fill="#A8C8E8" stroke="none"/>
<path d="M 371.26,395.89 L 371.26,394.91 L 370.04,395.42 L 369.50,394.70 L 370.59,392.03 L 373.47,392.50 L 372.55,391.48 L 373.42,390.64 L 373.84,392.57 L 371.26,395.89 Z" fill="#A8C8E8" stroke="none"/>
<path d="M 442.30,383.70 L 442.53,384.40 L 440.54,383.02 L 442.30,383.70 Z" fill="#A8C8E8" stroke="none"/>
<path d="M 503.63,342.15 L 502.59,341.67 L 503.19,341.31 L 503.63,342.15 Z" fill="#A8C8E8" stroke="none"/>
<path d="M 504.06,341.29 L 503.89,341.73 L 502.30,339.01 L 504.06,341.29 Z" fill="#A8C8E8" stroke="none"/>
<path d="M 504.67,339.92 L 502.21,336.06 L 503.55,336.91 L 504.67,339.92 Z" fill="#A8C8E8" stroke="none"/>
<path d="M 491.37,344.00 L 488.34,340.07 L 490.70,338.15 L 490.76,339.89 L 493.88,340.62 L 491.37,344.00 Z" fill="#A8C8E8" stroke="none"/>
<path d="M 451.45,370.83 L 450.25,372.03 L 448.41,369.25 L 450.53,369.06 L 449.19,367.19 L 451.06,369.46 L 451.45,370.83 Z" fill="#A8C8E8" stroke="none"/>
<path d="M 421.89,296.43 L 430.21,304.58 L 429.14,306.86 L 427.01,306.47 L 428.35,305.21 L 426.75,302.48 L 425.08,303.12 L 421.89,296.43 Z" fill="#A8C8E8" stroke="none"/>
<path d="M 414.76,218.85 L 413.26,218.59 L 412.05,214.88 L 410.06,216.12 L 411.12,214.25 L 409.24,212.51 L 415.01,216.33 L 414.76,218.85 Z" fill="#A8C8E8" stroke="none"/>
<path d="M 442.39,221.34 L 439.12,219.45 L 442.99,220.84 L 444.58,217.82 L 446.98,217.45 L 447.88,218.01 L 445.22,218.41 L 450.17,221.34 L 446.77,220.33 L 443.99,220.50 L 445.58,220.71 L 442.39,221.34 Z" fill="#A8C8E8" stroke="none"/>
<path d="M 441.95,244.27 L 442.04,246.12 L 439.04,247.83 L 438.60,250.76 L 439.31,251.17 L 438.16,251.59 L 440.36,253.88 L 435.33,251.17 L 438.04,250.20 L 437.80,245.34 L 439.54,242.22 L 439.31,245.75 L 440.51,246.20 L 443.09,241.71 L 444.24,242.04 L 441.95,244.27 Z" fill="#A8C8E8" stroke="none"/>
<path d="M 375.51,108.23 L 374.18,105.55 L 376.61,105.21 L 377.19,106.42 L 375.51,108.23 Z" fill="#A8C8E8" stroke="none"/>
<path d="M 512.65,191.71 L 512.92,191.58 L 512.92,191.59 L 512.65,191.71 Z" fill="#A8C8E8" stroke="none"/>
<path d="M 504.87,189.02 L 502.85,188.20 L 501.86,182.63 L 504.87,189.02 Z" fill="#A8C8E8" stroke="none"/>
<path d="M 491.70,184.83 L 493.91,182.73 L 492.14,180.65 L 497.18,185.87 L 491.70,184.83 Z" fill="#A8C8E8" stroke="none"/>
<path d="M 461.28,190.57 L 459.72,189.21 L 466.25,190.12 L 467.32,191.29 L 461.28,190.57 Z" fill="#A8C8E8" stroke="none"/>
<path d="M 475.86,211.59 L 470.93,209.85 L 472.27,208.83 L 470.85,207.56 L 472.34,206.33 L 477.29,207.56 L 475.86,211.59 Z M 474.20,208.18 L 473.20,207.55 L 473.32,208.30 L 474.20,208.18 Z" fill="#A8C8E8" stroke="none"/>
<path d="M 454.15,261.79 L 454.22,261.59 L 454.32,261.38 L 454.15,261.79 Z" fill="#A8C8E8" stroke="none"/>
<path d="M 452.53,267.27 L 452.65,263.59 L 451.76,262.64 L 454.24,261.38 L 453.18,264.95 L 455.12,264.72 L 453.80,265.99 L 454.74,266.63 L 452.53,267.27 Z" fill="#A8C8E8" stroke="none"/>
<path d="M 467.05,296.24 L 464.66,293.72 L 465.15,292.62 L 467.05,296.24 Z" fill="#A8C8E8" stroke="none"/>
<path d="M 482.34,311.87 L 477.60,308.76 L 477.29,306.77 L 482.34,311.87 Z" fill="#A8C8E8" stroke="none"/>
<path d="M 501.77,318.96 L 504.28,320.27 L 504.05,322.98 L 502.45,322.33 L 501.77,318.96 Z" fill="#A8C8E8" stroke="none"/>
<path d="M 500.03,324.08 L 498.10,324.22 L 499.21,318.82 L 500.03,324.08 Z" fill="#A8C8E8" stroke="none"/>
<path d="M 481.81,332.97 L 480.21,336.03 L 480.84,333.38 L 479.90,331.76 L 481.81,332.97 Z" fill="#A8C8E8" stroke="none"/>
<path d="M 477.91,331.12 L 477.99,331.21 L 477.83,331.07 L 477.91,331.12 Z" fill="#A8C8E8" stroke="none"/>
<path d="M 478.00,331.23 L 477.99,331.21 L 478.05,331.27 L 478.00,331.23 Z" fill="#A8C8E8" stroke="none"/>
<path d="M 478.09,331.29 L 478.05,331.27 L 478.07,331.28 L 478.09,331.29 Z" fill="#A8C8E8" stroke="none"/>
<path d="M 479.76,333.46 L 479.27,335.34 L 477.47,334.00 L 478.35,333.02 L 477.39,331.29 L 479.76,333.46 Z" fill="#A8C8E8" stroke="none"/>
<path d="M 314.18,198.39 L 302.64,190.81 L 299.60,191.51 L 295.88,191.68 L 293.28,191.13 L 292.13,189.49 L 303.07,190.14 L 314.62,196.71 L 314.18,198.39 Z" fill="#A8C8E8" stroke="none"/>
<path d="M 320.72,145.60 L 308.62,137.68 L 318.52,141.85 L 317.45,142.67 L 320.72,145.60 Z" fill="#A8C8E8" stroke="none"/>
<path d="M 454.70,485.94 L 454.68,485.99 L 454.68,485.96 L 454.70,485.94 Z" fill="#A8C8E8" stroke="none"/>
<path d="M 455.29,486.94 L 454.70,485.94 L 455.39,484.84 L 455.29,486.94 Z" fill="#A8C8E8" stroke="none"/>
<path d="M 489.24,488.47 L 489.10,484.12 L 485.66,483.37 L 490.37,481.49 L 491.43,482.53 L 490.41,484.15 L 491.35,486.10 L 489.24,488.47 Z M 490.47,483.38 L 489.05,483.28 L 489.67,484.84 L 490.47,483.38 Z" fill="#A8C8E8" stroke="none"/>
<path d="M 411.57,498.20 L 409.34,500.00 L 408.89,500.00 L 409.56,497.86 L 411.57,498.20 Z" fill="#A8C8E8" stroke="none"/>
<path d="M 389.94,470.59 L 387.88,467.72 L 389.21,468.38 L 389.94,470.59 Z" fill="#A8C8E8" stroke="none"/>
<path d="M 295.21,420.78 L 294.03,424.12 L 290.52,422.06 L 290.41,424.12 L 287.23,421.01 L 287.86,423.27 L 287.08,423.21 L 287.08,415.67 L 288.03,416.52 L 287.08,412.11 L 287.08,411.90 L 287.68,410.99 L 289.57,415.73 L 292.13,417.30 L 292.88,414.52 L 289.98,410.83 L 290.67,408.71 L 289.34,409.35 L 289.62,413.50 L 288.48,410.25 L 289.09,408.59 L 287.50,408.06 L 290.41,406.18 L 291.56,408.68 L 290.33,410.78 L 291.99,411.91 L 292.09,409.53 L 293.28,412.97 L 292.90,419.15 L 296.83,421.00 L 295.21,420.78 Z" fill="#A8C8E8" stroke="none"/>
<path d="M 475.02,196.19 L 471.11,195.02 L 463.99,201.75 L 469.88,193.27 L 473.26,191.59 L 469.41,191.53 L 477.21,188.23 L 477.57,191.77 L 480.49,191.28 L 479.85,196.09 L 482.20,196.99 L 479.24,199.85 L 482.71,199.76 L 481.20,201.74 L 481.30,204.82 L 472.99,202.77 L 474.67,200.42 L 477.75,202.36 L 475.02,196.19 Z M 476.29,190.27 L 474.73,190.51 L 475.39,191.00 L 476.29,190.27 Z" fill="#A8C8E8" stroke="none"/>
<path d="M 474.75,170.70 L 479.23,170.84 L 480.16,172.48 L 481.57,173.43 L 478.04,175.00 L 474.75,170.70 Z M 478.62,173.33 L 479.24,171.90 L 478.62,171.67 L 477.19,171.72 L 478.62,173.33 Z M 484.98,168.12 L 477.70,166.11 L 478.54,169.51 L 475.10,166.78 L 473.50,167.82 L 477.39,170.01 L 470.31,166.46 L 477.74,165.63 L 480.48,166.46 L 479.72,165.59 L 484.98,168.12 Z M 493.42,157.22 L 490.97,164.38 L 491.87,167.30 L 489.88,168.16 L 493.46,170.65 L 491.24,170.39 L 490.61,173.15 L 486.75,170.17 L 484.01,171.46 L 485.60,173.15 L 483.25,175.08 L 480.48,172.31 L 480.13,170.65 L 485.65,170.07 L 485.87,167.94 L 489.23,168.75 L 487.72,166.46 L 490.03,166.06 L 489.76,162.90 L 486.49,162.72 L 490.91,161.72 L 487.99,158.32 L 490.87,159.48 L 492.78,154.98 L 493.42,157.22 Z" fill="#A8C8E8" stroke="none"/>
<path d="M 494.95,288.89 L 490.37,282.26 L 492.79,281.68 L 496.68,286.41 L 494.95,288.89 Z" fill="#A8C8E8" stroke="none"/>
<path d="M 459.19,313.14 L 456.97,310.65 L 461.56,307.54 L 460.79,313.00 L 458.39,314.37 L 459.19,316.68 L 455.65,315.86 L 459.19,313.14 Z" fill="#A8C8E8" stroke="none"/>
<path d="M 445.58,314.18 L 444.16,307.90 L 447.34,312.67 L 448.14,317.71 L 445.94,318.54 L 442.93,313.76 L 443.26,312.10 L 445.58,314.18 Z" fill="#A8C8E8" stroke="none"/>
<path d="M 468.96,454.82 L 468.20,456.04 L 468.74,457.95 L 461.14,454.63 L 465.51,450.75 L 467.14,445.61 L 467.95,448.65 L 471.82,449.95 L 471.12,450.72 L 472.62,456.67 L 468.96,454.82 Z" fill="#A8C8E8" stroke="none"/>
<path d="M 408.27,265.95 L 410.51,266.20 L 409.17,265.37 L 409.78,263.70 L 409.09,261.60 L 413.76,262.21 L 414.92,265.05 L 413.77,265.99 L 416.56,269.48 L 419.26,266.20 L 424.27,267.04 L 422.43,268.07 L 424.08,269.82 L 419.86,270.37 L 427.28,274.95 L 421.19,273.49 L 422.51,272.66 L 418.77,269.98 L 414.65,273.08 L 415.19,275.57 L 413.77,273.93 L 414.21,272.22 L 412.00,273.28 L 408.27,265.95 Z" fill="#A8C8E8" stroke="none"/>
<path d="M 415.80,201.93 L 417.37,197.40 L 418.39,198.74 L 416.61,194.54 L 420.35,196.82 L 419.51,199.00 L 421.45,200.47 L 424.20,198.17 L 422.56,201.75 L 418.44,199.40 L 416.77,200.27 L 416.38,203.61 L 414.54,201.22 L 415.80,201.93 Z" fill="#A8C8E8" stroke="none"/>
<path d="M 504.07,160.62 L 506.28,160.62 L 506.49,163.66 L 509.73,169.40 L 505.84,170.84 L 506.18,166.46 L 504.43,163.96 L 505.41,164.07 L 504.07,160.62 Z" fill="#A8C8E8" stroke="none"/>
<path d="M 473.02,137.94 L 467.31,138.90 L 465.32,141.97 L 465.69,143.70 L 459.04,147.29 L 459.17,149.26 L 458.15,149.71 L 459.15,151.30 L 458.18,151.84 L 459.86,153.70 L 456.71,152.36 L 455.00,155.17 L 453.71,152.54 L 455.74,153.57 L 456.66,152.00 L 458.14,150.92 L 457.71,149.68 L 458.81,149.03 L 456.10,148.45 L 455.98,146.84 L 458.22,147.88 L 464.08,142.35 L 462.08,137.40 L 459.59,139.24 L 459.22,136.12 L 457.13,136.49 L 457.76,135.05 L 473.02,137.94 Z" fill="#A8C8E8" stroke="none"/>
<path d="M 409.53,155.20 L 411.11,157.85 L 404.21,153.73 L 400.33,154.78 L 403.16,153.32 L 401.22,152.28 L 401.60,151.70 L 404.33,151.38 L 409.52,154.64 L 411.75,151.88 L 413.84,154.24 L 409.53,155.20 Z" fill="#A8C8E8" stroke="none"/>
<path d="M 418.03,153.24 L 416.86,156.24 L 418.11,157.11 L 421.19,156.65 L 419.33,154.78 L 421.99,153.74 L 421.88,156.83 L 425.26,154.69 L 426.14,155.92 L 425.26,156.85 L 426.57,157.50 L 423.13,157.28 L 421.19,160.62 L 421.73,162.03 L 419.41,162.57 L 414.39,159.78 L 416.68,157.69 L 413.91,153.82 L 418.03,153.24 Z" fill="#A8C8E8" stroke="none"/>
<path d="M 287.08,167.65 L 287.08,166.68 L 287.51,166.81 L 287.08,166.42 L 287.08,164.97 L 297.61,170.28 L 300.95,174.38 L 287.08,167.65 Z" fill="#A8C8E8" stroke="none"/>
<path d="M 306.05,175.31 L 319.01,186.80 L 312.49,183.82 L 309.30,178.87 L 301.08,173.74 L 306.05,175.31 Z" fill="#A8C8E8" stroke="none"/>
</svg>