<svg xmlns="http://www.w3.org/2000/svg" width="800" height="500" viewBox="0 0 800 500">
<rect width="800" height="500" fill="#A8C8E8"/>
<path d="M 377.75,339.97 L 374.25,317.62 L 383.64,323.20 L 377.75,339.97 Z M 236.21,275.67 L 226.46,269.80 L 235.75,265.44 L 236.21,275.67 Z M 253.03,287.94 L 242.45,272.99 L 258.54,262.23 L 262.68,268.14 L 254.11,276.42 L 261.64,274.37 L 270.55,259.87 L 270.28,281.53 L 253.03,287.94 Z M 233.17,247.24 L 238.48,249.34 L 230.43,259.03 L 233.17,247.24 Z M 365.06,290.63 L 327.39,296.37 L 328.15,310.05 L 318.07,322.16 L 300.82,314.71 L 306.11,326.43 L 296.71,334.21 L 287.43,314.28 L 274.91,313.54 L 284.17,324.40 L 276.95,324.11 L 253.70,304.50 L 282.24,298.61 L 272.26,290.15 L 302.59,297.21 L 315.39,284.19 L 304.27,288.13 L 295.47,285.81 L 307.71,283.97 L 311.07,263.30 L 318.07,261.16 L 321.31,275.12 L 325.28,258.23 L 336.29,259.90 L 336.65,251.47 L 321.34,251.78 L 300.79,264.38 L 293.59,245.60 L 346.62,249.34 L 306.63,223.23 L 316.47,216.67 L 291.56,195.89 L 339.29,217.14 L 355.22,214.03 L 346.02,210.66 L 352.42,199.59 L 373.31,210.82 L 403.66,202.30 L 394.35,209.66 L 403.38,212.26 L 412.92,208.60 L 411.72,193.73 L 430.24,205.58 L 365.06,290.63 Z M 357.86,194.72 L 351.91,187.25 L 357.96,185.78 L 363.87,188.42 L 357.86,194.72 Z M 326.16,201.16 L 343.31,196.96 L 324.98,182.89 L 346.92,187.84 L 349.36,195.10 L 337.66,202.30 L 326.16,201.16 Z M 573.54,248.27 L 522.50,259.03 L 533.75,264.37 L 507.22,280.38 L 474.42,280.24 L 456.75,265.44 L 453.96,274.37 L 469.32,289.71 L 486.57,292.21 L 485.71,314.07 L 424.85,295.74 L 443.52,312.57 L 436.10,319.76 L 447.20,318.45 L 441.48,324.40 L 446.22,330.43 L 406.80,319.44 L 418.14,350.62 L 381.08,314.03 L 395.73,306.06 L 389.84,298.28 L 400.36,291.13 L 392.36,284.83 L 403.66,286.96 L 403.66,272.99 L 430.90,251.47 L 445.50,248.27 L 446.83,268.64 L 451.92,266.54 L 451.82,242.00 L 434.71,230.61 L 440.15,219.37 L 450.19,227.99 L 441.37,205.43 L 464.07,196.96 L 455.42,179.80 L 508.43,191.57 L 515.48,207.77 L 498.93,202.73 L 497.26,217.71 L 506.91,215.63 L 507.02,226.82 L 525.45,242.93 L 524.86,233.56 L 531.10,236.53 L 526.77,223.16 L 513.01,219.82 L 519.60,206.99 L 556.87,199.82 L 569.31,225.83 L 533.75,225.76 L 569.02,237.75 L 557.61,246.13 L 573.54,248.27 Z M 372.64,180.97 L 402.34,181.93 L 407.64,191.62 L 372.64,180.97 Z M 383.92,344.68 L 379.06,353.16 L 388.79,354.69 L 371.48,353.22 L 383.92,344.68 Z M 506.40,312.95 L 494.86,301.22 L 501.27,296.02 L 507.56,296.30 L 506.40,312.95 Z M 385.08,295.30 L 381.34,293.50 L 383.28,287.60 L 385.08,295.30 Z M 386.50,194.33 L 393.15,200.46 L 370.64,195.74 L 386.50,194.33 Z M 303.65,190.20 L 296.33,182.12 L 297.67,180.81 L 303.65,190.20 Z M 245.09,151.16 L 245.73,145.31 L 248.32,146.96 L 245.09,151.16 Z" fill="#4A90D9" stroke="#1a5fa8" stroke-width="1.2"/>
</svg>