<svg xmlns="http://www.w3.org/2000/svg" width="800" height="500" viewBox="0 0 800 500">
<rect width="800" height="500" fill="#A8C8E8"/>
<path d="M 367.94,339.97 L 362.90,317.62 L 376.43,323.20 L 367.94,339.97 Z M 164.04,275.67 L 150.00,269.80 L 163.38,265.44 L 164.04,275.67 Z M 188.28,287.94 L 173.04,272.99 L 196.22,262.23 L 202.18,268.14 L 189.84,276.42 L 200.68,274.37 L 213.52,259.87 L 213.13,281.53 L 188.28,287.94 Z M 159.67,247.24 L 167.33,249.34 L 155.72,259.03 L 159.67,247.24 Z M 349.66,290.63 L 295.39,296.37 L 296.50,310.05 L 281.97,322.16 L 257.12,314.71 L 264.74,326.43 L 251.21,334.21 L 237.84,314.28 L 219.80,313.54 L 233.14,324.40 L 222.74,324.11 L 189.24,304.50 L 230.36,298.61 L 215.99,290.15 L 259.68,297.21 L 278.11,284.19 L 262.09,288.13 L 249.42,285.81 L 267.04,283.97 L 271.89,263.30 L 281.97,261.16 L 286.65,275.12 L 292.36,258.23 L 308.22,259.90 L 308.73,251.47 L 286.69,251.78 L 257.08,264.38 L 246.71,245.60 L 323.11,249.34 L 265.49,223.23 L 279.66,216.67 L 243.78,195.89 L 312.54,217.14 L 335.49,214.03 L 322.24,210.66 L 331.46,199.59 L 361.55,210.82 L 405.28,202.30 L 391.86,209.66 L 404.87,212.26 L 418.61,208.60 L 416.88,193.73 L 443.56,205.58 L 349.66,290.63 Z M 339.30,194.72 L 330.72,187.25 L 339.44,185.78 L 347.96,188.42 L 339.30,194.72 Z M 293.63,201.16 L 318.34,196.96 L 291.93,182.89 L 323.54,187.84 L 327.05,195.10 L 310.20,202.30 L 293.63,201.16 Z M 650.00,248.27 L 576.47,259.03 L 592.68,264.37 L 554.47,280.38 L 507.21,280.24 L 481.75,265.44 L 477.73,274.37 L 499.87,289.71 L 524.71,292.21 L 523.47,314.07 L 435.80,295.74 L 462.70,312.57 L 452.01,319.76 L 467.99,318.45 L 459.75,324.40 L 466.58,330.43 L 409.79,319.44 L 426.13,350.62 L 372.75,314.03 L 393.85,306.06 L 385.36,298.28 L 400.52,291.13 L 389.00,284.83 L 405.28,286.96 L 405.28,272.99 L 444.51,251.47 L 465.55,248.27 L 467.46,268.64 L 474.80,266.54 L 474.64,242.00 L 450.00,230.61 L 457.84,219.37 L 472.31,227.99 L 459.60,205.43 L 492.30,196.96 L 479.84,179.80 L 556.20,191.57 L 566.36,207.77 L 542.51,202.73 L 540.11,217.71 L 554.01,215.63 L 554.16,226.82 L 580.72,242.93 L 579.87,233.56 L 588.86,236.53 L 582.63,223.16 L 562.79,219.82 L 572.30,206.99 L 625.99,199.82 L 643.91,225.83 L 592.68,225.76 L 643.48,237.75 L 627.05,246.13 L 650.00,248.27 Z M 360.59,180.97 L 403.38,181.93 L 411.00,191.62 L 360.59,180.97 Z M 376.83,344.68 L 369.83,353.16 L 383.85,354.69 L 358.92,353.22 L 376.83,344.68 Z M 553.27,312.95 L 536.65,301.22 L 545.88,296.02 L 554.95,296.30 L 553.27,312.95 Z M 378.51,295.30 L 373.12,293.50 L 375.91,287.60 L 378.51,295.30 Z M 380.55,194.33 L 390.13,200.46 L 357.70,195.74 L 380.55,194.33 Z M 261.20,190.20 L 250.66,182.12 L 252.59,180.81 L 261.20,190.20 Z M 176.84,151.16 L 177.76,145.31 L 181.50,146.96 L 176.84,151.16 Z" fill="#4A90D9" stroke="#1a5fa8" stroke-width="1.2"/>
</svg>