<svg xmlns="http://www.w3.org/2000/svg" width="800" height="500" viewBox="0 0 800 500">
<rect width="800" height="500" fill="#A8C8E8"/>
<path d="M 28.88,391.34 L 26.13,390.86 L 28.04,388.58 L 24.49,389.96 L 24.22,387.75 L 23.39,389.28 L 19.84,387.40 L 17.11,387.83 L 15.83,385.68 L 13.91,385.27 L 15.11,386.85 L 12.48,388.27 L 7.32,386.03 L 13.09,380.09 L 14.20,376.02 L 13.23,374.10 L 25.92,371.49 L 31.42,366.38 L 36.35,364.72 L 47.94,366.56 L 56.29,372.16 L 68.02,372.16 L 71.93,374.99 L 69.20,376.88 L 74.13,384.78 L 70.22,391.48 L 70.39,392.60 L 28.41,392.60 L 28.88,391.34 Z M 145.41,387.22 L 159.34,392.60 L 133.65,392.60 L 145.41,387.22 Z M 73.20,392.60 L 73.20,392.60 L 73.20,392.60 L 73.20,392.60 Z M 117.05,392.60 L 104.23,392.60 L 96.98,390.03 L 117.05,392.60 Z M 95.21,387.48 L 90.46,387.97 L 90.70,387.27 L 95.21,387.48 Z M 87.03,380.46 L 84.51,378.29 L 86.07,376.45 L 87.61,377.55 L 87.07,379.18 L 88.48,378.11 L 87.03,380.46 Z M 7.60,384.85 L 3.51,382.53 L 1.34,377.21 L 6.19,375.52 L 9.06,376.02 L 7.60,384.85 Z M 4.74,375.12 L 0.00,375.79 L 0.00,373.60 L 6.70,373.27 L 4.74,375.12 Z M 111.78,382.18 L 106.25,381.42 L 103.86,374.50 L 101.76,375.46 L 97.71,373.56 L 95.94,370.41 L 104.10,372.68 L 105.94,371.77 L 112.49,379.07 L 116.08,379.62 L 111.78,382.18 Z M 1.17,368.22 L 0.00,368.30 L 0.00,367.71 L 0.28,366.96 L 0.00,367.08 L 0.00,366.44 L 1.90,366.38 L 1.17,368.22 Z M 15.28,363.41 L 13.43,365.34 L 7.94,364.85 L 0.85,359.32 L 3.37,363.39 L 7.32,364.99 L 3.47,366.58 L 2.11,363.47 L 0.00,365.65 L 0.00,358.97 L 4.85,357.68 L 11.44,359.33 L 14.32,360.81 L 15.28,363.41 Z M 75.35,342.21 L 75.43,342.47 L 74.94,342.90 L 75.35,342.21 Z M 13.11,336.98 L 13.27,336.77 L 13.25,336.88 L 13.11,336.98 Z M 13.79,336.03 L 13.47,336.59 L 13.44,336.42 L 13.79,336.03 Z" fill="#E8E0D0" stroke="#B8B0A0" stroke-width="0.5"/>
<path d="M 384.96,389.41 L 382.43,389.32 L 379.88,386.30 L 381.46,384.85 L 384.96,389.41 Z M 245.49,391.76 L 246.14,391.89 L 245.72,392.08 L 245.49,391.76 Z M 387.65,391.52 L 387.34,390.89 L 388.39,390.42 L 389.19,391.27 L 387.65,391.52 Z" fill="#E8E0D0" stroke="#B8B0A0" stroke-width="0.5"/>
<path d="M 780.32,374.93 L 780.78,374.67 L 780.98,375.04 L 780.32,374.93 Z" fill="#E8E0D0" stroke="#B8B0A0" stroke-width="0.5"/>
<path d="M 752.24,244.95 L 752.31,244.27 L 752.37,244.86 L 752.14,245.07 L 752.24,244.95 Z M 764.54,265.21 L 765.20,264.44 L 764.67,265.31 L 763.55,265.55 L 764.54,265.21 Z M 782.99,238.00 L 784.57,236.58 L 782.18,240.90 L 782.99,238.00 Z M 766.45,210.52 L 765.67,210.81 L 763.34,210.26 L 766.45,210.52 Z M 760.94,208.06 L 761.08,207.37 L 761.28,208.31 L 760.94,208.06 Z M 727.27,133.29 L 726.48,133.01 L 727.20,132.95 L 727.27,133.29 Z M 772.18,243.91 L 772.27,243.94 L 772.14,244.13 L 772.18,243.91 Z M 769.09,204.81 L 768.62,204.72 L 769.16,204.74 L 769.09,204.81 Z M 737.94,190.41 L 737.78,190.34 L 737.82,190.20 L 737.94,190.41 Z M 744.41,181.79 L 744.61,181.62 L 744.60,181.84 L 744.41,181.79 Z M 794.67,167.07 L 794.78,167.08 L 794.84,167.25 L 794.67,167.07 Z M 700.65,123.51 L 700.79,123.74 L 700.52,123.46 L 700.65,123.51 Z M 695.35,121.95 L 695.44,121.90 L 695.48,122.00 L 695.35,121.95 Z" fill="#E8E0D0" stroke="#B8B0A0" stroke-width="0.5"/>
<path d="M 728.94,368.03 L 728.55,368.71 L 727.91,368.17 L 728.94,368.03 Z" fill="#E8E0D0" stroke="#B8B0A0" stroke-width="0.5"/>
<path d="M 74.09,216.31 L 73.17,217.04 L 73.20,216.55 L 73.92,215.22 L 74.09,216.31 Z M 76.35,212.20 L 75.47,211.93 L 77.32,210.35 L 76.35,212.20 Z M 78.74,209.73 L 78.94,210.45 L 77.49,210.11 L 78.74,209.73 Z M 81.67,204.82 L 80.52,209.00 L 79.06,209.52 L 78.25,207.26 L 81.47,202.24 L 81.67,204.82 Z M 12.04,296.01 L 12.21,296.24 L 11.13,296.85 L 12.04,296.01 Z M 32.69,250.79 L 32.81,250.73 L 32.94,250.85 L 32.69,250.79 Z M 71.22,218.35 L 71.28,218.04 L 71.95,218.23 L 71.22,218.35 Z M 24.65,298.02 L 24.30,298.25 L 23.90,297.95 L 24.65,298.02 Z M 83.05,194.92 L 82.53,195.58 L 82.36,195.07 L 83.05,194.92 Z" fill="#E8E0D0" stroke="#B8B0A0" stroke-width="0.5"/>
<path d="M 650.00,251.48 L 647.94,251.20 L 649.43,249.43 L 650.00,251.48 Z M 555.71,220.57 L 553.03,220.70 L 552.07,217.90 L 555.25,217.97 L 555.71,220.57 Z M 421.90,208.93 L 422.06,209.96 L 420.53,209.82 L 421.90,208.93 Z M 426.86,207.39 L 427.53,207.49 L 426.30,208.17 L 426.86,207.39 Z M 152.69,165.98 L 150.00,168.17 L 151.16,165.07 L 152.69,165.98 Z M 485.65,339.05 L 485.33,339.13 L 485.27,339.00 L 485.65,339.05 Z M 483.73,338.10 L 483.95,338.14 L 483.83,338.27 L 483.73,338.10 Z M 485.14,338.23 L 484.86,338.11 L 484.98,337.97 L 485.14,338.23 Z M 486.83,281.77 L 487.13,281.55 L 487.18,281.87 L 486.83,281.77 Z M 485.13,281.60 L 484.77,281.80 L 484.72,281.50 L 485.13,281.60 Z M 462.96,250.74 L 463.46,250.64 L 463.40,250.83 L 462.96,250.74 Z M 532.56,241.32 L 532.56,241.29 L 532.66,241.30 L 532.56,241.32 Z M 375.42,222.56 L 375.55,222.37 L 375.57,222.61 L 375.42,222.56 Z M 548.20,222.21 L 548.39,222.12 L 548.33,222.30 L 548.20,222.21 Z M 426.24,209.60 L 426.27,209.27 L 426.49,209.66 L 426.24,209.60 Z M 372.69,209.05 L 372.84,209.08 L 372.79,209.24 L 372.69,209.05 Z M 397.21,184.80 L 397.31,184.83 L 397.27,185.01 L 397.21,184.80 Z M 382.45,184.43 L 382.84,184.19 L 382.87,184.37 L 382.45,184.43 Z M 391.60,176.76 L 391.77,176.75 L 391.72,176.85 L 391.60,176.76 Z M 199.17,160.87 L 199.39,160.93 L 199.04,161.15 L 199.17,160.87 Z" fill="#4A90D9" stroke="#1a5fa8" stroke-width="1.2"/>
</svg>