<svg xmlns="http://www.w3.org/2000/svg" width="800" height="500" viewBox="0 0 800 500">
<rect width="800" height="500" fill="#A8C8E8"/>
<path d="M 406.63,311.24 L 399.85,291.36 L 418.03,300.87 L 411.40,303.01 L 420.82,314.61 L 413.00,316.97 L 422.50,327.73 L 406.63,311.24 Z M 422.05,273.03 L 403.91,247.43 L 421.62,254.28 L 425.61,261.30 L 422.05,273.03 Z M 365.33,210.20 L 381.20,207.76 L 394.27,219.50 L 382.21,230.27 L 365.33,210.20 Z M 382.71,184.19 L 391.75,188.00 L 397.28,204.56 L 408.33,211.16 L 404.42,217.37 L 413.33,223.02 L 408.43,224.93 L 418.03,228.04 L 419.04,242.09 L 380.70,206.69 L 382.71,184.19 Z M 402.36,181.00 L 405.69,184.72 L 401.90,187.98 L 403.91,195.94 L 410.80,187.51 L 429.18,212.13 L 421.55,209.90 L 427.12,215.13 L 422.50,223.76 L 415.23,204.96 L 410.94,203.50 L 416.21,217.55 L 393.04,187.98 L 402.36,181.00 Z M 427.81,197.63 L 428.62,179.17 L 431.14,175.57 L 432.65,182.87 L 435.17,187.24 L 442.25,192.73 L 434.16,193.90 L 440.74,203.50 L 427.81,197.63 Z M 357.58,217.92 L 349.68,216.63 L 353.81,215.36 L 357.58,217.92 Z M 450.32,187.05 L 444.31,194.94 L 442.41,189.57 L 450.32,187.05 Z M 423.86,189.58 L 420.59,176.14 L 423.00,176.08 L 427.62,188.06 L 423.86,189.58 Z M 419.84,193.93 L 412.62,174.71 L 414.37,174.96 L 419.84,193.93 Z M 437.16,187.11 L 429.78,172.27 L 437.64,183.69 L 437.16,187.11 Z" fill="#4A90D9" stroke="#1a5fa8" stroke-width="1.2"/>
</svg>