<svg xmlns="http://www.w3.org/2000/svg" width="800" height="500" viewBox="0 0 800 500">
<rect width="800" height="500" fill="#A8C8E8"/>
<path d="M 422.51,311.24 L 399.49,291.36 L 461.23,300.87 L 438.73,303.01 L 470.72,314.61 L 444.16,316.97 L 476.43,327.73 L 422.51,311.24 Z M 474.89,273.03 L 413.29,247.43 L 473.41,254.28 L 486.99,261.30 L 474.89,273.03 Z M 282.24,210.20 L 336.15,207.76 L 380.55,219.50 L 339.59,230.27 L 282.24,210.20 Z M 341.27,184.19 L 371.97,188.00 L 390.78,204.56 L 428.29,211.16 L 415.00,217.37 L 445.28,223.02 L 428.64,224.93 L 461.23,228.04 L 464.65,242.09 L 334.46,206.69 L 341.27,184.19 Z M 408.01,181.00 L 419.32,184.72 L 406.46,187.98 L 413.29,195.94 L 436.67,187.51 L 499.10,212.13 L 473.18,209.90 L 492.12,215.13 L 476.43,223.76 L 451.73,204.96 L 437.17,203.50 L 455.05,217.55 L 376.35,187.98 L 408.01,181.00 Z M 494.44,197.63 L 497.20,179.17 L 505.76,175.57 L 510.90,182.87 L 519.44,187.24 L 543.48,192.73 L 516.00,193.90 L 538.35,203.50 L 494.44,197.63 Z M 255.94,217.92 L 229.09,216.63 L 243.11,215.36 L 255.94,217.92 Z M 570.91,187.05 L 550.50,194.94 L 544.04,189.57 L 570.91,187.05 Z M 481.03,189.58 L 469.92,176.14 L 478.11,176.08 L 493.81,188.06 L 481.03,189.58 Z M 467.37,193.93 L 442.86,174.71 L 448.80,174.96 L 467.37,193.93 Z M 526.20,187.11 L 501.15,172.27 L 527.84,183.69 L 526.20,187.11 Z" fill="#4A90D9" stroke="#1a5fa8" stroke-width="1.2"/>
</svg>