<svg xmlns="http://www.w3.org/2000/svg" width="800" height="500" viewBox="0 0 800 500">
<rect width="800" height="500" fill="#A8C8E8"/>
<path d="M 433.30,496.23 L 445.80,495.71 L 446.88,467.53 L 442.57,462.15 L 454.29,455.61 L 460.49,446.39 L 473.61,442.60 L 474.74,438.38 L 489.97,453.67 L 505.96,443.68 L 506.08,432.05 L 517.56,434.31 L 539.68,423.26 L 543.81,430.87 L 537.87,437.36 L 540.36,453.71 L 546.32,451.47 L 553.96,454.40 L 561.88,450.15 L 580.51,426.35 L 593.26,420.10 L 597.00,412.31 L 615.91,405.28 L 631.58,375.07 L 630.03,318.52 L 631.72,316.97 L 631.72,500.00 L 432.90,500.00 L 433.30,496.23 Z" fill="#E8E0D0" stroke="#B8B0A0" stroke-width="0.5"/>
<path d="M 629.29,97.10 L 623.07,62.47 L 616.01,54.56 L 609.59,54.06 L 574.56,15.17 L 571.62,8.16 L 579.81,6.31 L 574.88,3.38 L 573.75,0.00 L 631.72,0.00 L 631.72,92.32 L 629.29,97.10 Z" fill="#E8E0D0" stroke="#B8B0A0" stroke-width="0.5"/>
<path d="M 460.49,446.39 L 454.29,455.61 L 442.57,462.15 L 446.88,467.53 L 445.80,495.71 L 430.88,497.57 L 427.72,490.29 L 431.82,482.74 L 421.51,461.70 L 425.38,463.40 L 427.21,460.15 L 420.84,460.38 L 429.73,447.80 L 436.45,448.31 L 439.70,439.67 L 451.54,437.37 L 458.43,428.96 L 463.84,430.00 L 474.03,441.17 L 460.49,446.39 Z" fill="#E8E0D0" stroke="#B8B0A0" stroke-width="0.5"/>
<path d="M 190.48,132.89 L 187.04,131.18 L 189.68,124.83 L 193.55,125.72 L 190.48,132.89 Z" fill="#E8E0D0" stroke="#B8B0A0" stroke-width="0.5"/>
<path d="M 319.93,101.17 L 310.93,96.21 L 318.17,56.93 L 316.85,45.88 L 302.49,32.51 L 311.36,28.07 L 301.70,29.46 L 297.68,18.48 L 301.60,21.95 L 301.44,15.72 L 307.61,18.48 L 304.20,14.02 L 308.60,11.59 L 301.33,11.45 L 308.11,2.68 L 299.35,8.82 L 294.31,3.90 L 297.01,9.99 L 292.29,7.94 L 294.23,13.67 L 287.56,13.67 L 286.70,7.87 L 280.93,11.25 L 268.95,4.43 L 268.61,0.00 L 573.75,0.00 L 574.88,3.38 L 579.81,6.31 L 571.62,8.16 L 574.56,15.17 L 624.92,66.29 L 624.82,83.93 L 630.69,98.30 L 625.52,99.77 L 623.49,108.66 L 628.10,123.50 L 623.80,126.72 L 621.00,120.88 L 605.65,112.85 L 594.46,110.66 L 587.18,113.38 L 580.95,107.47 L 564.94,109.13 L 563.17,103.65 L 558.56,106.18 L 548.43,99.01 L 541.97,102.85 L 485.07,101.40 L 484.57,97.34 L 478.53,95.29 L 457.84,97.62 L 403.22,93.33 L 387.95,94.42 L 386.47,101.16 L 319.93,101.17 Z" fill="#C8D8E8" stroke="#8BAABB" stroke-width="0.8"/>
<path d="M 630.03,318.52 L 631.58,375.07 L 615.91,405.28 L 597.00,412.31 L 593.26,420.10 L 580.51,426.35 L 561.88,450.15 L 553.96,454.40 L 546.32,451.47 L 540.36,453.71 L 537.87,437.36 L 543.81,430.87 L 539.68,423.26 L 517.56,434.31 L 506.08,432.05 L 505.96,443.68 L 489.97,453.67 L 475.96,438.25 L 471.70,440.01 L 463.84,430.00 L 458.43,428.96 L 451.54,437.37 L 439.70,439.67 L 436.45,448.31 L 429.96,447.58 L 420.84,460.38 L 411.37,448.64 L 410.68,438.26 L 376.07,406.25 L 380.99,394.27 L 394.49,384.88 L 404.74,394.35 L 415.63,391.59 L 411.61,387.97 L 417.57,374.57 L 404.74,367.96 L 409.28,359.70 L 402.20,351.08 L 396.90,352.75 L 401.58,341.05 L 398.67,325.91 L 408.16,330.17 L 417.28,325.87 L 423.47,330.17 L 443.31,325.92 L 445.34,314.20 L 441.70,303.63 L 444.68,305.67 L 451.97,300.68 L 460.57,305.38 L 470.75,323.24 L 468.79,328.04 L 493.28,331.47 L 507.49,314.27 L 515.64,327.41 L 512.62,332.75 L 524.83,334.35 L 532.05,327.17 L 527.73,320.66 L 532.58,308.16 L 540.19,304.76 L 542.76,293.74 L 538.57,290.03 L 543.48,286.86 L 544.71,279.89 L 539.92,260.60 L 544.82,239.48 L 536.36,231.66 L 528.31,232.19 L 525.10,223.27 L 511.89,219.71 L 516.39,212.08 L 513.89,199.62 L 517.59,191.92 L 524.13,182.47 L 536.77,178.38 L 543.73,163.78 L 534.47,152.94 L 532.94,142.91 L 527.55,139.87 L 510.07,137.73 L 497.51,145.27 L 477.85,146.61 L 482.90,142.56 L 476.82,129.83 L 478.45,114.46 L 485.07,101.40 L 541.97,102.85 L 548.43,99.01 L 558.56,106.18 L 563.17,103.65 L 564.94,109.13 L 580.95,107.47 L 587.18,113.38 L 594.46,110.66 L 605.65,112.85 L 621.00,120.88 L 623.80,126.72 L 628.26,122.71 L 623.55,110.50 L 624.59,101.99 L 630.69,98.30 L 631.72,95.97 L 631.72,316.97 L 630.03,318.52 Z" fill="#C8D8E8" stroke="#8BAABB" stroke-width="0.8"/>
<path d="M 311.57,97.00 L 319.93,101.17 L 386.47,101.16 L 387.18,159.49 L 321.85,159.27 L 317.59,163.20 L 306.27,152.78 L 299.60,157.30 L 296.62,152.78 L 290.21,153.87 L 287.72,150.36 L 293.65,138.72 L 301.12,130.05 L 303.34,131.18 L 304.68,131.01 L 307.61,129.45 L 300.75,127.23 L 310.87,112.70 L 310.36,92.37 L 311.57,97.00 Z M 267.95,28.09 L 254.71,49.59 L 242.91,45.81 L 242.51,38.40 L 249.38,36.30 L 253.76,23.15 L 266.53,21.93 L 267.95,28.09 Z" fill="#C8D8E8" stroke="#8BAABB" stroke-width="0.8"/>
<path d="M 478.45,114.46 L 476.82,129.83 L 482.90,142.56 L 477.85,146.61 L 497.51,145.27 L 510.07,137.73 L 527.55,139.87 L 532.94,142.91 L 534.47,152.94 L 543.73,163.78 L 536.77,178.38 L 524.13,182.47 L 517.59,191.92 L 513.89,199.62 L 516.39,212.08 L 511.89,219.71 L 525.10,223.27 L 528.31,232.19 L 536.36,231.66 L 544.82,239.48 L 539.93,259.88 L 544.71,279.89 L 543.48,286.86 L 538.57,290.03 L 542.76,293.74 L 540.55,304.08 L 532.33,308.53 L 527.73,320.66 L 532.05,327.17 L 524.83,334.35 L 512.62,332.75 L 515.64,327.41 L 507.49,314.27 L 493.28,331.47 L 468.79,328.04 L 470.75,323.24 L 460.57,305.38 L 451.97,300.68 L 444.68,305.67 L 441.70,303.63 L 445.34,314.20 L 443.31,325.92 L 423.47,330.17 L 417.28,325.87 L 408.16,330.17 L 398.67,325.91 L 401.58,341.05 L 396.90,352.75 L 402.20,351.08 L 409.28,359.70 L 404.74,367.96 L 417.57,374.57 L 411.61,387.97 L 415.63,391.59 L 404.74,394.35 L 394.49,384.88 L 380.99,394.27 L 376.07,406.25 L 368.56,393.98 L 352.69,382.01 L 352.14,375.09 L 315.50,344.44 L 305.56,331.57 L 310.13,334.46 L 312.39,332.25 L 319.25,340.85 L 328.21,338.06 L 327.25,335.79 L 319.59,337.43 L 314.11,329.89 L 307.98,332.94 L 306.58,328.37 L 305.56,331.20 L 300.24,327.03 L 298.67,319.05 L 283.95,303.25 L 293.75,305.55 L 297.55,312.97 L 296.27,305.74 L 289.11,300.39 L 287.41,303.84 L 283.16,301.18 L 281.39,288.41 L 271.22,275.22 L 269.57,270.97 L 271.36,274.67 L 278.35,282.83 L 283.62,286.19 L 284.40,293.18 L 298.37,289.80 L 293.22,282.95 L 284.72,287.73 L 282.82,283.53 L 287.10,279.36 L 287.16,273.60 L 286.54,277.97 L 279.68,279.95 L 271.89,274.38 L 272.05,269.10 L 263.77,258.28 L 265.78,259.86 L 267.18,257.60 L 262.38,255.55 L 255.18,238.76 L 262.62,249.44 L 266.85,243.79 L 270.97,253.16 L 275.43,239.42 L 285.71,226.05 L 287.66,191.65 L 288.40,200.38 L 291.60,199.03 L 294.79,204.52 L 295.60,200.04 L 299.72,203.82 L 306.00,202.70 L 310.99,208.26 L 308.31,203.16 L 321.66,200.04 L 310.00,200.38 L 295.29,194.89 L 285.67,182.23 L 286.19,178.13 L 297.34,175.37 L 298.35,178.36 L 294.28,178.49 L 293.59,179.50 L 299.05,179.50 L 299.05,183.94 L 300.78,185.98 L 299.99,158.73 L 307.64,156.46 L 317.59,163.20 L 321.85,159.27 L 387.18,159.49 L 387.95,94.42 L 436.43,93.75 L 457.84,97.62 L 478.53,95.29 L 484.57,97.34 L 478.45,114.46 Z M 272.47,242.92 L 270.72,247.54 L 267.87,242.52 L 272.47,242.92 Z M 289.59,168.96 L 289.37,169.09 L 289.23,168.94 L 289.59,168.96 Z" fill="#4A90D9" stroke="#1a5fa8" stroke-width="1.2"/>
<path d="M 333.33,259.61 L 324.74,259.47 L 327.15,260.36 L 320.95,265.85 L 318.85,265.34 L 324.40,259.30 L 319.95,259.30 L 319.59,248.69 L 323.68,254.49 L 326.28,252.11 L 328.03,257.68 L 333.18,256.64 L 333.33,259.61 Z" fill="#A8C8E8" stroke="none"/>
</svg>