<svg xmlns="http://www.w3.org/2000/svg" width="800" height="500" viewBox="0 0 800 500">
<rect width="800" height="500" fill="#A8C8E8"/>
<path d="M 457.49,496.23 L 479.06,495.71 L 480.93,467.53 L 473.48,462.15 L 493.72,455.61 L 504.42,446.39 L 527.07,442.60 L 529.02,438.38 L 555.31,453.67 L 582.91,443.68 L 583.12,432.05 L 602.93,434.31 L 641.12,423.26 L 648.25,430.87 L 637.99,437.36 L 642.29,453.71 L 652.58,451.47 L 665.77,454.40 L 679.44,450.15 L 711.61,426.35 L 733.61,420.10 L 740.07,412.31 L 772.72,405.28 L 799.76,375.07 L 797.09,318.52 L 800.00,316.97 L 800.00,500.00 L 456.80,500.00 L 457.49,496.23 Z" fill="#E8E0D0" stroke="#B8B0A0" stroke-width="0.5"/>
<path d="M 795.81,97.10 L 785.08,62.47 L 772.88,54.56 L 761.80,54.06 L 701.33,15.17 L 696.25,8.16 L 710.39,6.31 L 701.88,3.38 L 699.93,0.00 L 800.00,0.00 L 800.00,92.32 L 795.81,97.10 Z" fill="#E8E0D0" stroke="#B8B0A0" stroke-width="0.5"/>
<path d="M 504.42,446.39 L 493.72,455.61 L 473.48,462.15 L 480.93,467.53 L 479.06,495.71 L 453.31,497.57 L 447.84,490.29 L 454.92,482.74 L 437.13,461.70 L 443.81,463.40 L 446.97,460.15 L 435.97,460.38 L 451.32,447.80 L 462.92,448.31 L 468.54,439.67 L 488.97,437.37 L 500.86,428.96 L 510.20,430.00 L 527.79,441.17 L 504.42,446.39 Z" fill="#E8E0D0" stroke="#B8B0A0" stroke-width="0.5"/>
<path d="M 38.32,132.89 L 32.38,131.18 L 36.93,124.83 L 43.62,125.72 L 38.32,132.89 Z" fill="#E8E0D0" stroke="#B8B0A0" stroke-width="0.5"/>
<path d="M 261.78,101.17 L 246.24,96.21 L 258.74,56.93 L 256.47,45.88 L 231.68,32.51 L 246.99,28.07 L 230.31,29.46 L 223.38,18.48 L 230.14,21.95 L 229.86,15.72 L 240.51,18.48 L 234.63,14.02 L 242.23,11.59 L 229.67,11.45 L 241.38,2.68 L 226.26,8.82 L 217.56,3.90 L 222.22,9.99 L 214.06,7.94 L 217.42,13.67 L 205.91,13.67 L 204.42,7.87 L 194.45,11.25 L 173.78,4.43 L 173.19,0.00 L 699.93,0.00 L 701.88,3.38 L 710.39,6.31 L 696.25,8.16 L 701.33,15.17 L 788.27,66.29 L 788.09,83.93 L 798.22,98.30 L 789.30,99.77 L 785.80,108.66 L 793.74,123.50 L 786.33,126.72 L 781.49,120.88 L 755.00,112.85 L 735.68,110.66 L 723.12,113.38 L 712.36,107.47 L 684.73,109.13 L 681.67,103.65 L 673.71,106.18 L 656.22,99.01 L 645.08,102.85 L 546.85,101.40 L 545.99,97.34 L 535.56,95.29 L 499.85,97.62 L 405.56,93.33 L 379.19,94.42 L 376.64,101.16 L 261.78,101.17 Z" fill="#C8D8E8" stroke="#8BAABB" stroke-width="0.8"/>
<path d="M 797.09,318.52 L 799.76,375.07 L 772.72,405.28 L 740.07,412.31 L 733.61,420.10 L 711.61,426.35 L 679.44,450.15 L 665.77,454.40 L 652.58,451.47 L 642.29,453.71 L 637.99,437.36 L 648.25,430.87 L 641.12,423.26 L 602.93,434.31 L 583.12,432.05 L 582.91,443.68 L 555.31,453.67 L 531.12,438.25 L 523.77,440.01 L 510.20,430.00 L 500.86,428.96 L 488.97,437.37 L 468.54,439.67 L 462.92,448.31 L 451.72,447.58 L 435.97,460.38 L 419.62,448.64 L 418.43,438.26 L 358.69,406.25 L 367.19,394.27 L 390.49,384.88 L 408.19,394.35 L 426.98,391.59 L 420.04,387.97 L 430.34,374.57 L 408.18,367.96 L 416.02,359.70 L 403.80,351.08 L 394.65,352.75 L 402.73,341.05 L 397.71,325.91 L 414.09,330.17 L 429.82,325.87 L 440.51,330.17 L 474.77,325.92 L 478.26,314.20 L 471.98,303.63 L 477.12,305.67 L 489.71,300.68 L 504.56,305.38 L 522.13,323.24 L 518.75,328.04 L 561.03,331.47 L 585.56,314.27 L 599.62,327.41 L 594.41,332.75 L 615.49,334.35 L 627.95,327.17 L 620.49,320.66 L 628.86,308.16 L 642.00,304.76 L 646.44,293.74 L 639.20,290.03 L 647.68,286.86 L 649.80,279.89 L 641.53,260.60 L 650.00,239.48 L 635.38,231.66 L 621.50,232.19 L 615.95,223.27 L 593.15,219.71 L 600.91,212.08 L 596.61,199.62 L 602.99,191.92 L 614.27,182.47 L 636.09,178.38 L 648.11,163.78 L 632.13,152.94 L 629.48,142.91 L 620.19,139.87 L 590.01,137.73 L 568.32,145.27 L 534.39,146.61 L 543.11,142.56 L 532.61,129.83 L 535.42,114.46 L 546.85,101.40 L 645.08,102.85 L 656.22,99.01 L 673.71,106.18 L 681.67,103.65 L 684.73,109.13 L 712.36,107.47 L 723.12,113.38 L 735.68,110.66 L 755.00,112.85 L 781.49,120.88 L 786.33,126.72 L 794.02,122.71 L 785.90,110.50 L 787.70,101.99 L 798.22,98.30 L 800.00,95.97 L 800.00,316.97 L 797.09,318.52 Z" fill="#C8D8E8" stroke="#8BAABB" stroke-width="0.8"/>
<path d="M 247.34,97.00 L 261.78,101.17 L 376.64,101.16 L 377.87,159.49 L 265.10,159.27 L 257.73,163.20 L 238.21,152.78 L 226.69,157.30 L 221.55,152.78 L 210.48,153.87 L 206.19,150.36 L 216.42,138.72 L 229.32,130.05 L 233.15,131.18 L 235.45,131.01 L 240.51,129.45 L 228.67,127.23 L 246.14,112.70 L 245.26,92.37 L 247.34,97.00 Z M 172.06,28.09 L 149.19,49.59 L 128.83,45.81 L 128.13,38.40 L 139.99,36.30 L 147.55,23.15 L 169.60,21.93 L 172.06,28.09 Z" fill="#C8D8E8" stroke="#8BAABB" stroke-width="0.8"/>
<path d="M 535.42,114.46 L 532.61,129.83 L 543.11,142.56 L 534.39,146.61 L 568.32,145.27 L 590.01,137.73 L 620.19,139.87 L 629.48,142.91 L 632.13,152.94 L 648.11,163.78 L 636.09,178.38 L 614.27,182.47 L 602.99,191.92 L 596.61,199.62 L 600.91,212.08 L 593.15,219.71 L 615.95,223.27 L 621.50,232.19 L 635.38,231.66 L 650.00,239.48 L 641.55,259.88 L 649.80,279.89 L 647.68,286.86 L 639.20,290.03 L 646.44,293.74 L 642.62,304.08 L 628.44,308.53 L 620.49,320.66 L 627.95,327.17 L 615.49,334.35 L 594.41,332.75 L 599.62,327.41 L 585.56,314.27 L 561.03,331.47 L 518.75,328.04 L 522.13,323.24 L 504.56,305.38 L 489.71,300.68 L 477.12,305.67 L 471.98,303.63 L 478.26,314.20 L 474.77,325.92 L 440.51,330.17 L 429.82,325.87 L 414.09,330.17 L 397.71,325.91 L 402.73,341.05 L 394.65,352.75 L 403.80,351.08 L 416.02,359.70 L 408.18,367.96 L 430.34,374.57 L 420.04,387.97 L 426.98,391.59 L 408.19,394.35 L 390.49,384.88 L 367.19,394.27 L 358.69,406.25 L 345.72,393.98 L 318.34,382.01 L 317.39,375.09 L 254.14,344.44 L 236.97,331.57 L 244.86,334.46 L 248.76,332.25 L 260.60,340.85 L 276.07,338.06 L 274.42,335.79 L 261.19,337.43 L 251.73,329.89 L 241.16,332.94 L 238.74,328.37 L 236.97,331.20 L 227.79,327.03 L 225.09,319.05 L 199.68,303.25 L 216.59,305.55 L 223.14,312.97 L 220.95,305.74 L 208.59,300.39 L 205.65,303.84 L 198.31,301.18 L 195.26,288.41 L 177.70,275.22 L 174.85,270.97 L 177.94,274.67 L 190.01,282.83 L 199.11,286.19 L 200.46,293.18 L 224.56,289.80 L 215.67,282.95 L 201.00,287.73 L 197.72,283.53 L 205.10,279.36 L 205.22,273.60 L 204.13,277.97 L 192.30,279.95 L 178.86,274.38 L 179.12,269.10 L 164.83,258.28 L 168.31,259.86 L 170.72,257.60 L 162.43,255.55 L 150.00,238.76 L 162.84,249.44 L 170.15,243.79 L 177.26,253.16 L 184.97,239.42 L 202.72,226.05 L 206.07,191.65 L 207.35,200.38 L 212.88,199.03 L 218.38,204.52 L 219.78,200.04 L 226.90,203.82 L 237.74,202.70 L 246.35,208.26 L 241.73,203.16 L 264.77,200.04 L 244.63,200.38 L 219.25,194.89 L 202.65,182.23 L 203.53,178.13 L 222.79,175.37 L 224.53,178.36 L 217.50,178.49 L 216.31,179.50 L 225.74,179.50 L 225.74,183.94 L 228.73,185.98 L 227.36,158.73 L 240.57,156.46 L 257.73,163.20 L 265.10,159.27 L 377.87,159.49 L 379.19,94.42 L 462.89,93.75 L 499.85,97.62 L 535.56,95.29 L 545.99,97.34 L 535.42,114.46 Z M 179.85,242.92 L 176.84,247.54 L 171.91,242.52 L 179.85,242.92 Z M 209.41,168.96 L 209.03,169.09 L 208.78,168.94 L 209.41,168.96 Z" fill="#4A90D9" stroke="#1a5fa8" stroke-width="1.2"/>
<path d="M 284.91,259.61 L 270.08,259.47 L 274.24,260.36 L 263.55,265.85 L 259.92,265.34 L 269.49,259.30 L 261.82,259.30 L 261.19,248.69 L 268.25,254.49 L 272.74,252.11 L 275.77,257.68 L 284.66,256.64 L 284.91,259.61 Z" fill="#A8C8E8" stroke="none"/>
</svg>