<svg xmlns="http://www.w3.org/2000/svg" width="800" height="500" viewBox="0 0 800 500">
<rect width="800" height="500" fill="#A8C8E8"/>
<path d="M 677.08,376.17 L 676.37,379.48 L 682.84,382.97 L 693.92,381.38 L 698.50,388.59 L 709.41,390.03 L 712.27,395.13 L 722.18,393.82 L 728.47,396.27 L 726.14,400.00 L 728.87,401.94 L 726.33,404.38 L 742.96,404.11 L 748.45,399.05 L 750.27,399.67 L 747.43,404.86 L 749.89,406.14 L 749.53,409.55 L 762.80,412.49 L 769.17,418.00 L 778.55,416.55 L 785.48,419.65 L 799.78,418.96 L 800.00,419.15 L 800.00,496.65 L 793.36,500.00 L 532.07,500.00 L 530.96,498.30 L 524.21,494.64 L 528.35,488.47 L 520.25,485.41 L 522.71,484.68 L 522.86,481.73 L 536.87,483.46 L 527.72,480.34 L 519.04,482.44 L 510.52,480.90 L 513.94,480.70 L 510.05,478.52 L 515.38,477.37 L 512.05,475.43 L 516.28,475.01 L 507.61,474.61 L 508.67,474.35 L 509.39,473.64 L 501.62,475.21 L 498.64,473.51 L 504.07,473.71 L 505.78,472.20 L 505.93,471.66 L 505.20,471.10 L 498.31,472.45 L 496.53,470.50 L 497.65,473.44 L 491.72,472.36 L 491.45,475.81 L 489.22,471.19 L 491.89,468.54 L 489.46,468.13 L 488.46,470.71 L 484.12,469.54 L 486.57,469.71 L 484.12,469.15 L 486.57,466.96 L 481.27,469.33 L 459.10,463.06 L 457.38,466.22 L 451.35,466.39 L 449.32,461.58 L 439.82,459.72 L 454.14,457.58 L 451.11,454.23 L 445.34,455.81 L 443.12,452.67 L 445.69,450.96 L 446.70,452.42 L 454.66,452.63 L 457.31,452.08 L 448.70,451.28 L 454.00,448.53 L 438.52,451.00 L 438.65,446.00 L 445.14,442.87 L 464.21,439.92 L 468.17,442.87 L 469.51,439.90 L 476.80,441.35 L 479.05,436.79 L 488.28,435.93 L 488.58,438.16 L 492.75,435.95 L 491.65,439.14 L 495.44,437.38 L 505.98,446.32 L 517.83,440.90 L 517.37,442.87 L 521.14,444.23 L 526.35,442.28 L 528.68,446.19 L 527.12,442.48 L 529.81,440.90 L 533.10,440.51 L 534.64,443.26 L 548.85,442.48 L 542.48,439.51 L 540.89,436.58 L 543.96,431.31 L 541.19,431.44 L 540.65,426.10 L 542.65,425.82 L 533.98,421.29 L 531.78,417.08 L 533.24,414.54 L 530.14,411.56 L 540.77,413.68 L 551.88,412.38 L 553.02,414.42 L 550.48,416.31 L 556.41,422.39 L 562.31,421.05 L 585.63,424.26 L 606.02,419.34 L 608.67,418.15 L 601.03,419.00 L 595.20,416.97 L 600.35,411.41 L 632.22,404.27 L 641.91,397.52 L 646.81,398.16 L 642.57,395.71 L 644.80,393.06 L 643.02,392.08 L 643.84,378.81 L 674.27,372.55 L 677.08,376.17 Z M 518.40,497.49 L 519.35,498.14 L 515.66,497.42 L 518.40,497.49 Z M 523.44,492.06 L 518.49,488.54 L 521.58,488.79 L 523.44,492.06 Z M 493.54,480.85 L 488.48,480.56 L 487.23,478.52 L 493.54,480.85 Z M 428.19,448.09 L 426.74,447.77 L 428.06,447.13 L 428.19,448.09 Z" fill="#E8E0D0" stroke="#B8B0A0" stroke-width="0.5"/>
<path d="M 797.92,419.25 L 800.00,415.26 L 800.00,419.58 L 797.92,419.25 Z M 796.54,408.39 L 789.87,402.27 L 791.50,397.54 L 798.86,394.64 L 797.65,389.90 L 792.28,388.85 L 794.81,386.09 L 785.88,381.30 L 788.81,377.70 L 782.17,374.50 L 791.51,370.70 L 788.58,369.00 L 793.47,363.97 L 793.01,360.49 L 784.54,351.72 L 791.80,350.97 L 790.86,349.40 L 797.91,351.57 L 800.00,351.16 L 800.00,408.99 L 796.54,408.39 Z" fill="#E8E0D0" stroke="#B8B0A0" stroke-width="0.5"/>
<path d="M 787.08,163.79 L 785.28,161.15 L 775.31,159.11 L 769.87,153.21 L 772.93,149.23 L 771.78,147.45 L 774.67,148.33 L 772.22,145.10 L 777.56,146.85 L 777.56,150.00 L 782.02,147.20 L 789.75,150.57 L 794.15,150.78 L 788.62,149.00 L 800.00,146.33 L 800.00,166.73 L 787.08,163.79 Z M 791.94,146.25 L 787.85,148.91 L 785.95,147.24 L 788.40,146.25 L 782.73,144.30 L 790.84,141.95 L 787.04,141.93 L 792.30,138.72 L 800.00,137.35 L 800.00,145.41 L 791.94,146.25 Z M 791.74,138.54 L 789.50,137.42 L 794.40,137.05 L 786.61,136.64 L 788.10,135.22 L 794.60,131.59 L 800.00,130.81 L 800.00,137.30 L 791.74,138.54 Z M 794.40,131.16 L 796.02,127.63 L 791.70,133.06 L 784.30,136.02 L 783.07,133.41 L 791.71,132.54 L 780.52,130.77 L 780.21,132.95 L 775.31,134.51 L 779.77,133.92 L 782.21,136.16 L 774.21,137.82 L 773.38,134.28 L 770.76,138.25 L 768.42,134.61 L 767.33,137.71 L 765.68,134.30 L 764.03,136.34 L 760.94,130.57 L 765.55,127.67 L 767.78,129.19 L 770.23,125.08 L 767.89,131.76 L 771.11,130.77 L 772.66,126.84 L 778.81,128.75 L 782.85,127.45 L 778.54,126.87 L 780.75,125.34 L 787.98,124.88 L 796.19,122.16 L 786.83,124.50 L 784.62,123.91 L 785.75,121.57 L 781.31,124.11 L 775.31,121.76 L 796.16,114.11 L 790.16,114.52 L 789.18,111.92 L 798.13,107.06 L 800.00,106.78 L 800.00,130.61 L 794.40,131.16 Z M 796.36,106.48 L 792.49,104.12 L 794.50,106.75 L 790.60,107.06 L 792.85,107.43 L 791.28,110.32 L 786.64,110.01 L 781.95,113.31 L 782.10,116.91 L 778.32,117.75 L 776.68,115.85 L 780.21,114.89 L 777.74,115.19 L 777.32,112.55 L 779.98,111.55 L 772.00,112.94 L 777.32,110.95 L 772.90,110.77 L 778.23,106.38 L 767.67,113.83 L 764.25,112.14 L 765.79,111.38 L 761.62,111.55 L 764.45,109.99 L 759.93,109.62 L 761.80,108.41 L 758.97,107.54 L 764.05,106.26 L 762.08,104.04 L 764.30,102.48 L 769.82,105.15 L 775.55,105.27 L 777.51,103.74 L 778.66,97.05 L 775.88,97.45 L 776.26,95.91 L 771.44,99.61 L 761.62,101.17 L 757.16,98.63 L 761.80,99.82 L 758.48,96.87 L 752.05,94.70 L 768.44,99.61 L 762.04,95.39 L 771.78,92.54 L 758.65,94.36 L 753.83,90.39 L 757.67,92.48 L 758.95,89.22 L 754.83,89.50 L 754.94,87.65 L 768.92,89.11 L 771.46,86.83 L 789.94,85.49 L 798.37,87.05 L 798.26,88.67 L 800.00,87.64 L 800.00,105.42 L 796.36,106.48 Z M 785.51,84.31 L 787.95,83.14 L 768.12,86.71 L 760.68,85.97 L 761.80,84.90 L 755.84,84.31 L 762.50,83.73 L 752.95,81.76 L 760.93,79.18 L 764.78,81.77 L 762.70,79.02 L 774.89,78.63 L 759.73,78.80 L 756.30,79.73 L 754.38,78.20 L 756.44,78.27 L 758.03,76.66 L 752.73,77.07 L 760.25,75.47 L 771.19,76.68 L 780.43,75.88 L 760.18,74.40 L 758.95,73.13 L 766.00,72.93 L 759.15,71.96 L 768.22,72.14 L 753.39,70.79 L 754.03,67.62 L 759.84,68.23 L 756.50,67.25 L 767.18,62.92 L 778.44,64.71 L 774.44,65.67 L 784.84,64.81 L 783.50,67.85 L 786.50,65.09 L 792.61,67.06 L 788.62,65.09 L 800.00,65.83 L 800.00,85.63 L 785.51,84.31 Z M 778.00,63.54 L 785.51,62.76 L 768.22,62.16 L 759.45,63.35 L 757.60,62.76 L 758.49,61.98 L 758.95,61.20 L 767.35,59.80 L 757.94,57.26 L 757.16,54.91 L 763.29,55.53 L 769.34,60.18 L 773.54,58.43 L 767.06,56.85 L 769.11,54.91 L 778.66,57.84 L 775.99,55.50 L 783.70,54.92 L 781.75,59.81 L 785.28,56.37 L 788.40,58.43 L 798.61,58.62 L 789.62,57.26 L 784.36,53.93 L 788.84,54.52 L 785.06,53.35 L 796.80,49.73 L 800.00,52.11 L 800.00,65.21 L 778.00,63.54 Z M 799.70,49.30 L 800.00,49.35 L 800.00,49.64 L 799.70,49.30 Z M 794.61,47.47 L 800.00,47.01 L 800.00,47.23 L 794.61,47.47 Z M 794.82,43.94 L 800.00,43.29 L 800.00,44.82 L 794.82,43.94 Z M 764.02,141.37 L 761.16,142.11 L 760.43,134.33 L 764.02,141.37 Z M 765.57,125.88 L 763.82,126.64 L 763.77,124.75 L 760.69,124.89 L 759.36,129.27 L 758.19,126.58 L 760.49,124.50 L 756.70,123.81 L 759.39,121.18 L 765.57,125.88 Z M 767.02,124.50 L 762.50,120.18 L 764.96,118.26 L 770.23,121.57 L 767.02,124.50 Z M 775.11,120.01 L 770.84,120.48 L 766.12,117.72 L 774.44,115.48 L 775.11,120.01 Z M 752.73,110.19 L 755.60,108.62 L 752.76,105.03 L 757.45,108.43 L 758.03,111.86 L 752.73,110.19 Z M 759.27,103.25 L 761.02,105.24 L 758.46,106.08 L 753.70,102.59 L 759.27,103.25 Z M 776.45,103.81 L 774.11,104.90 L 764.89,101.95 L 776.65,98.24 L 776.45,103.81 Z M 753.94,85.98 L 748.05,87.65 L 749.39,83.34 L 751.03,85.05 L 753.15,83.91 L 753.94,85.98 Z M 752.89,63.32 L 761.62,64.71 L 751.71,66.64 L 748.05,64.91 L 752.89,63.32 Z M 779.98,54.23 L 772.10,54.86 L 770.65,53.92 L 778.22,52.35 L 779.98,54.23 Z M 789.30,50.60 L 780.65,53.35 L 780.79,49.34 L 789.30,50.60 Z M 797.51,48.63 L 787.51,47.86 L 793.27,47.65 L 797.51,48.63 Z M 763.11,117.74 L 759.97,116.18 L 762.39,116.12 L 761.05,114.23 L 763.78,115.47 L 763.11,117.74 Z M 750.49,92.84 L 747.20,90.99 L 750.63,90.99 L 750.49,92.84 Z M 744.94,89.31 L 742.90,87.34 L 744.71,86.63 L 744.94,89.31 Z M 757.49,62.45 L 753.90,60.11 L 754.19,59.37 L 758.30,59.64 L 757.49,62.45 Z M 773.92,50.97 L 778.39,50.06 L 777.97,51.03 L 773.92,50.97 Z M 771.27,50.80 L 770.91,49.96 L 773.23,50.11 L 771.27,50.80 Z M 778.69,144.13 L 773.02,142.65 L 774.07,142.35 L 778.69,144.13 Z M 768.75,141.65 L 766.55,139.94 L 767.47,139.27 L 768.75,141.65 Z M 789.98,138.29 L 784.48,139.23 L 785.22,138.08 L 789.98,138.29 Z M 749.37,100.72 L 747.28,100.47 L 747.66,98.54 L 749.37,100.72 Z M 750.53,68.62 L 751.29,69.64 L 751.27,70.32 L 749.12,69.69 L 750.53,68.62 Z" fill="#E8E0D0" stroke="#B8B0A0" stroke-width="0.5"/>
<path d="M 793.95,406.89 L 796.54,408.39 L 797.57,408.24 L 799.59,409.14 L 800.00,409.16 L 800.00,415.26 L 797.92,419.25 L 785.48,419.65 L 779.98,416.89 L 783.05,413.86 L 777.66,406.77 L 785.51,398.93 L 790.55,400.22 L 793.95,406.89 Z" fill="#E8E0D0" stroke="#B8B0A0" stroke-width="0.5"/>
<path d="M 701.04,364.32 L 702.40,368.00 L 709.45,366.75 L 719.72,369.16 L 729.24,364.53 L 732.05,367.30 L 730.52,364.49 L 735.37,364.85 L 735.96,361.84 L 742.45,363.09 L 747.26,360.89 L 748.68,363.22 L 746.72,363.23 L 751.51,363.85 L 755.30,361.42 L 761.38,367.66 L 770.36,366.86 L 781.23,370.58 L 774.61,379.91 L 794.81,386.09 L 792.28,388.85 L 797.65,389.90 L 798.86,394.64 L 791.84,397.29 L 790.55,400.22 L 785.51,398.93 L 777.66,406.77 L 783.05,413.86 L 781.49,416.22 L 769.17,418.00 L 762.80,412.49 L 749.53,409.55 L 749.89,406.14 L 747.43,404.86 L 749.97,399.44 L 737.11,405.51 L 726.33,404.38 L 728.87,401.94 L 726.14,400.00 L 728.47,396.27 L 722.18,393.82 L 712.27,395.13 L 709.41,390.03 L 698.50,388.59 L 693.92,381.38 L 682.84,382.97 L 676.37,379.48 L 677.08,376.17 L 674.27,372.55 L 701.04,364.32 Z" fill="#E8E0D0" stroke="#B8B0A0" stroke-width="0.5"/>
<path d="M 800.00,496.65 L 800.00,500.00 L 793.36,500.00 L 800.00,496.65 Z" fill="#E8E0D0" stroke="#B8B0A0" stroke-width="0.5"/>
<path d="M 797.91,351.57 L 790.86,349.40 L 791.80,350.97 L 784.54,351.72 L 793.39,361.94 L 788.58,369.00 L 791.51,370.70 L 781.98,373.83 L 782.70,376.05 L 788.81,377.70 L 786.59,382.21 L 777.26,382.09 L 774.61,379.91 L 781.23,370.58 L 770.36,366.86 L 761.38,367.66 L 755.30,361.42 L 751.51,363.85 L 746.72,363.23 L 748.68,363.22 L 747.26,360.89 L 742.45,363.09 L 737.70,361.49 L 734.27,362.39 L 734.76,365.03 L 722.04,362.09 L 716.49,363.87 L 704.32,359.90 L 717.26,357.58 L 725.47,362.31 L 731.24,362.25 L 721.69,358.17 L 728.78,358.17 L 725.73,356.77 L 727.80,355.44 L 717.62,351.71 L 724.59,350.92 L 722.58,346.80 L 726.66,346.29 L 738.51,336.83 L 746.18,318.77 L 750.33,320.59 L 756.94,319.16 L 766.68,315.06 L 773.54,309.18 L 786.13,306.23 L 800.00,305.58 L 800.00,351.01 L 797.91,351.57 Z M 707.24,363.14 L 716.71,365.24 L 721.56,363.31 L 729.24,364.53 L 725.92,367.26 L 715.89,369.18 L 709.45,366.75 L 702.40,368.00 L 701.04,364.32 L 707.24,363.14 Z M 725.29,356.34 L 711.94,355.24 L 716.07,353.65 L 725.29,356.34 Z M 747.81,317.83 L 744.96,317.03 L 749.70,312.47 L 750.94,314.67 L 747.81,317.83 Z M 753.98,309.55 L 757.80,308.98 L 751.51,311.76 L 753.98,309.55 Z M 773.34,304.87 L 759.84,307.31 L 762.50,306.22 L 773.34,304.87 Z M 783.97,304.29 L 785.28,304.65 L 774.98,305.01 L 783.97,304.29 Z M 796.80,303.13 L 797.71,303.48 L 790.87,304.69 L 796.80,303.13 Z" fill="#E8E0D0" stroke="#B8B0A0" stroke-width="0.5"/>
<path d="M 60.11,5.89 L 50.01,7.08 L 49.56,8.83 L 45.24,6.98 L 45.36,8.88 L 44.04,9.24 L 44.90,6.09 L 43.98,5.44 L 42.77,8.95 L 25.20,9.24 L 23.87,10.41 L 19.66,11.59 L 22.77,10.41 L 19.86,9.42 L 11.69,12.42 L 17.21,12.56 L 11.65,13.95 L 15.22,14.32 L 11.77,16.82 L 4.32,18.24 L 6.79,16.49 L 0.39,16.08 L 4.70,18.50 L 0.00,19.01 L 0.00,0.00 L 73.38,0.00 L 60.11,5.89 Z M 18.94,11.65 L 18.24,12.26 L 16.35,11.99 L 18.94,11.65 Z" fill="#E8E0D0" stroke="#B8B0A0" stroke-width="0.5"/>
<path d="M 527.25,427.37 L 520.49,426.99 L 520.25,424.83 L 525.37,424.83 L 527.25,427.37 Z" fill="#E8E0D0" stroke="#B8B0A0" stroke-width="0.5"/>
<path d="M 511.82,417.78 L 510.52,419.94 L 506.27,419.87 L 511.82,417.78 Z M 516.59,420.03 L 515.82,420.46 L 515.90,419.81 L 516.59,420.03 Z M 521.97,411.94 L 520.73,412.02 L 520.98,411.71 L 521.97,411.94 Z M 513.65,418.69 L 513.39,419.05 L 513.33,418.68 L 513.65,418.69 Z" fill="#E8E0D0" stroke="#B8B0A0" stroke-width="0.5"/>
<path d="M 437.82,287.20 L 446.20,278.76 L 452.01,277.40 L 453.28,281.02 L 443.58,287.61 L 437.82,287.20 Z" fill="#E8E0D0" stroke="#B8B0A0" stroke-width="0.5"/>
<path d="M 370.54,74.64 L 367.57,71.00 L 375.55,72.74 L 372.64,73.13 L 376.78,75.25 L 373.35,75.69 L 377.52,77.66 L 370.54,74.64 Z M 377.32,67.64 L 369.35,62.96 L 377.13,64.21 L 378.89,65.49 L 377.32,67.64 Z M 352.40,56.14 L 359.37,55.69 L 365.12,57.84 L 359.82,59.81 L 352.40,56.14 Z M 360.04,51.38 L 364.01,52.07 L 366.44,55.11 L 371.29,56.31 L 369.57,57.45 L 373.49,58.49 L 371.34,58.83 L 375.55,59.40 L 376.00,61.98 L 359.16,55.50 L 360.04,51.38 Z M 368.67,50.79 L 370.13,51.47 L 368.47,52.07 L 369.35,53.53 L 372.38,51.98 L 380.45,56.49 L 377.10,56.08 L 379.55,57.04 L 377.52,58.62 L 374.33,55.18 L 372.44,54.91 L 374.75,57.48 L 364.57,52.07 L 368.67,50.79 Z M 379.85,53.84 L 380.21,50.46 L 381.31,49.80 L 381.98,51.13 L 383.08,51.93 L 386.19,52.94 L 382.64,53.15 L 385.53,54.91 L 379.85,53.84 Z M 349.00,57.55 L 345.53,57.32 L 347.34,57.08 L 349.00,57.55 Z M 389.74,51.90 L 387.10,53.34 L 386.27,52.36 L 389.74,51.90 Z M 378.11,52.36 L 376.68,49.90 L 377.74,49.89 L 379.77,52.08 L 378.11,52.36 Z M 376.35,53.16 L 373.18,49.64 L 373.95,49.69 L 376.35,53.16 Z M 383.96,51.91 L 380.72,49.19 L 384.17,51.28 L 383.96,51.91 Z" fill="#E8E0D0" stroke="#B8B0A0" stroke-width="0.5"/>
<path d="M 353.25,260.53 L 348.79,268.02 L 336.29,269.30 L 343.46,271.95 L 328.40,276.03 L 338.66,283.19 L 355.78,285.99 L 361.40,282.82 L 360.13,279.66 L 365.78,277.42 L 373.22,283.43 L 377.99,284.43 L 378.30,288.04 L 387.22,286.07 L 395.22,288.85 L 387.06,288.78 L 386.46,291.10 L 390.83,293.09 L 391.26,299.06 L 396.19,301.98 L 392.39,304.65 L 396.69,307.33 L 391.64,307.91 L 395.56,309.67 L 398.90,319.06 L 386.85,336.60 L 382.64,336.03 L 386.63,337.22 L 387.47,340.81 L 372.64,340.36 L 373.99,338.97 L 368.55,342.88 L 369.47,341.52 L 366.44,338.18 L 367.81,341.32 L 365.80,342.49 L 346.95,343.56 L 348.73,344.88 L 347.28,346.70 L 338.87,347.02 L 333.35,351.49 L 326.06,352.09 L 327.97,349.51 L 320.80,349.55 L 324.40,353.14 L 315.96,354.85 L 317.93,355.24 L 316.82,357.58 L 309.52,356.61 L 311.51,358.56 L 297.77,358.95 L 294.44,361.12 L 289.35,361.51 L 291.33,359.75 L 287.35,359.05 L 275.16,362.31 L 284.03,357.58 L 274.27,359.34 L 286.85,355.49 L 283.56,353.27 L 281.41,355.46 L 273.41,356.29 L 264.29,358.38 L 269.97,354.12 L 282.90,349.95 L 264.96,353.85 L 261.75,350.71 L 258.31,352.51 L 256.55,349.75 L 261.12,349.06 L 260.73,346.78 L 277.16,342.10 L 255.22,343.66 L 254.42,341.30 L 263.78,338.24 L 266.08,339.56 L 267.41,337.59 L 271.04,339.65 L 277.83,339.35 L 273.57,338.64 L 274.69,335.72 L 270.96,334.66 L 281.16,332.90 L 280.71,330.13 L 292.88,329.94 L 309.73,327.20 L 302.95,326.61 L 303.54,324.27 L 292.44,329.55 L 282.90,327.40 L 271.40,330.52 L 285.55,324.92 L 290.23,319.74 L 286.23,319.55 L 292.88,313.65 L 299.32,314.45 L 297.54,313.28 L 303.74,313.67 L 305.08,311.52 L 300.20,311.52 L 303.54,310.35 L 300.97,309.96 L 285.13,311.31 L 283.75,309.53 L 281.88,311.09 L 283.80,306.82 L 275.59,309.21 L 272.50,308.58 L 275.84,305.84 L 263.63,306.04 L 268.95,304.07 L 263.51,301.95 L 279.15,300.73 L 272.30,299.36 L 272.30,296.04 L 283.36,295.06 L 281.58,294.46 L 283.56,293.09 L 271.16,292.69 L 272.30,291.51 L 272.06,290.56 L 276.21,291.64 L 272.61,288.51 L 274.71,286.03 L 270.29,286.99 L 272.30,285.85 L 268.99,282.99 L 265.54,286.49 L 267.41,282.88 L 265.62,282.51 L 269.41,280.54 L 273.19,281.71 L 270.08,282.30 L 272.26,283.39 L 276.94,281.92 L 274.32,280.04 L 276.28,279.56 L 293.00,280.54 L 297.11,285.07 L 300.02,280.95 L 317.49,283.29 L 313.94,281.92 L 318.81,281.32 L 315.50,280.25 L 317.23,279.89 L 312.55,278.96 L 318.93,275.65 L 327.22,274.88 L 325.25,274.25 L 330.11,270.74 L 319.25,273.08 L 321.48,271.50 L 308.22,269.44 L 320.82,267.42 L 315.96,265.84 L 318.15,264.86 L 323.49,265.45 L 319.25,260.55 L 323.67,259.65 L 325.01,256.03 L 328.96,257.07 L 334.77,254.28 L 333.88,255.65 L 338.66,256.65 L 340.53,253.30 L 339.98,255.06 L 343.64,257.79 L 343.88,254.69 L 340.87,254.38 L 345.53,252.82 L 349.35,257.30 L 344.32,261.93 L 351.60,259.02 L 349.40,252.32 L 358.05,252.50 L 353.92,249.57 L 368.31,253.79 L 353.25,260.53 Z M 280.39,311.19 L 278.71,311.02 L 278.71,309.96 L 280.39,311.19 Z M 270.70,292.65 L 260.74,289.75 L 270.12,288.63 L 270.70,292.65 Z M 317.96,260.61 L 318.37,261.33 L 315.72,261.33 L 317.96,260.61 Z M 275.83,356.84 L 272.00,357.34 L 273.17,356.72 L 275.83,356.84 Z M 258.91,349.22 L 255.47,349.60 L 257.97,348.42 L 258.91,349.22 Z M 280.32,315.25 L 275.44,313.91 L 279.15,313.94 L 280.32,315.25 Z" fill="#C8D8E8" stroke="#8BAABB" stroke-width="0.8"/>
<path d="M 364.62,259.23 L 367.57,255.06 L 395.43,254.55 L 399.14,261.15 L 408.72,266.55 L 401.69,271.91 L 412.45,269.78 L 417.00,276.05 L 414.35,279.56 L 412.99,274.59 L 408.33,272.71 L 410.80,276.62 L 408.11,279.17 L 412.29,278.26 L 413.15,280.69 L 403.16,282.64 L 402.13,286.24 L 396.12,288.25 L 387.22,286.07 L 378.30,288.04 L 377.99,284.43 L 373.22,283.43 L 365.78,277.42 L 360.13,279.66 L 361.40,282.82 L 357.30,285.63 L 346.66,285.23 L 338.66,283.19 L 328.40,276.03 L 343.46,271.95 L 336.29,269.30 L 348.79,268.02 L 353.25,260.53 L 364.62,259.23 Z M 496.53,358.95 L 489.73,363.68 L 478.27,363.66 L 468.49,357.28 L 454.00,359.16 L 454.00,357.41 L 460.42,356.75 L 461.09,355.72 L 453.17,355.68 L 451.56,352.48 L 432.94,357.99 L 427.16,355.65 L 436.05,354.64 L 436.71,352.29 L 425.12,355.34 L 422.96,354.07 L 427.47,352.79 L 426.96,350.57 L 420.98,350.34 L 428.76,345.70 L 436.16,346.03 L 453.16,340.26 L 459.83,336.00 L 461.54,331.30 L 465.07,330.74 L 459.31,329.17 L 463.75,325.44 L 458.55,323.22 L 460.86,319.94 L 438.70,323.86 L 451.79,317.03 L 457.62,311.62 L 468.83,309.57 L 467.30,308.18 L 476.23,309.58 L 485.03,307.78 L 492.87,311.13 L 489.68,306.61 L 493.83,305.41 L 499.54,309.59 L 505.42,307.78 L 498.14,307.83 L 492.41,301.88 L 498.97,296.80 L 494.12,295.83 L 493.88,291.92 L 500.30,290.16 L 501.20,288.78 L 498.35,288.25 L 502.31,285.65 L 500.42,283.68 L 501.84,283.17 L 502.31,282.12 L 497.68,284.80 L 494.12,282.88 L 491.01,287.41 L 487.92,286.03 L 489.00,281.71 L 485.79,283.75 L 475.20,274.56 L 483.16,263.96 L 495.00,261.33 L 477.26,260.76 L 476.90,263.96 L 469.29,263.88 L 462.99,267.26 L 450.34,263.28 L 451.00,269.78 L 435.59,264.45 L 432.49,266.21 L 435.59,271.13 L 425.95,264.09 L 425.51,260.38 L 431.17,262.91 L 430.78,256.59 L 443.39,246.45 L 433.60,240.36 L 435.53,238.98 L 434.70,234.32 L 447.79,234.07 L 436.71,229.77 L 438.18,232.25 L 435.83,232.36 L 435.39,230.11 L 438.94,226.11 L 435.83,228.80 L 433.60,227.22 L 434.50,232.31 L 432.50,232.12 L 431.58,235.71 L 427.04,231.74 L 428.23,234.84 L 425.19,232.90 L 423.20,235.08 L 424.53,236.84 L 421.44,236.23 L 420.09,232.12 L 433.60,224.07 L 416.66,231.23 L 420.76,238.23 L 415.18,242.19 L 416.32,243.69 L 412.13,248.40 L 414.05,250.37 L 405.72,251.66 L 409.01,241.33 L 416.32,236.43 L 409.68,237.82 L 412.57,233.89 L 408.51,234.42 L 412.57,230.95 L 408.15,233.66 L 413.84,229.55 L 414.55,226.63 L 411.44,228.02 L 415.10,224.57 L 411.88,224.87 L 412.52,222.64 L 416.54,221.73 L 413.65,221.73 L 416.25,219.41 L 424.28,219.24 L 427.20,217.49 L 428.94,215.85 L 424.53,218.80 L 415.88,218.41 L 423.20,215.85 L 417.65,216.44 L 420.76,213.10 L 431.17,211.54 L 423.33,211.52 L 427.16,208.61 L 409.23,217.81 L 398.43,213.65 L 413.45,212.13 L 393.46,212.62 L 391.11,211.18 L 406.56,209.57 L 403.51,208.31 L 407.30,207.85 L 409.68,207.05 L 401.24,206.44 L 404.14,203.50 L 406.61,202.65 L 409.74,204.00 L 412.56,203.88 L 414.11,203.30 L 405.93,201.24 L 418.08,200.37 L 409.01,198.90 L 412.33,195.78 L 417.86,196.84 L 414.80,195.47 L 416.78,194.28 L 407.45,194.88 L 414.82,192.80 L 416.54,191.35 L 404.91,193.26 L 403.89,186.84 L 410.34,188.79 L 414.45,187.92 L 404.97,185.03 L 409.23,183.11 L 405.04,182.13 L 404.80,179.58 L 408.44,178.55 L 409.68,180.75 L 411.44,181.37 L 411.22,176.84 L 423.87,179.19 L 419.19,176.43 L 428.74,179.58 L 416.58,172.39 L 421.31,172.80 L 423.20,170.58 L 418.35,167.33 L 433.18,168.43 L 425.43,164.68 L 426.41,162.94 L 430.51,163.70 L 427.62,160.34 L 431.41,156.83 L 436.34,157.50 L 436.91,159.80 L 438.26,157.44 L 442.03,158.90 L 438.76,161.99 L 444.45,158.38 L 449.58,159.18 L 447.35,161.95 L 462.43,157.78 L 483.94,157.62 L 483.59,155.44 L 495.09,156.49 L 491.53,160.14 L 493.98,161.48 L 491.51,164.24 L 463.31,176.65 L 460.64,175.83 L 463.07,178.58 L 450.68,177.43 L 462.08,180.01 L 470.50,178.94 L 463.75,183.50 L 453.84,183.96 L 449.52,186.89 L 463.07,183.72 L 459.98,186.84 L 454.88,187.62 L 455.32,189.18 L 482.48,182.72 L 528.12,183.31 L 533.56,185.86 L 535.83,189.87 L 528.68,194.28 L 522.02,205.86 L 514.26,210.53 L 511.41,215.10 L 504.52,218.59 L 493.75,219.10 L 485.25,221.55 L 499.43,218.92 L 502.09,222.14 L 509.39,224.07 L 496.86,226.14 L 484.63,231.24 L 468.63,228.98 L 474.49,231.73 L 493.18,233.54 L 507.51,230.36 L 523.58,234.46 L 533.98,242.52 L 539.98,243.89 L 543.64,256.13 L 551.48,267.82 L 554.82,269.17 L 553.80,271.34 L 574.52,275.58 L 580.74,282.15 L 590.28,286.03 L 585.63,288.58 L 597.04,299.46 L 597.55,300.40 L 596.97,301.44 L 584.30,296.80 L 572.12,296.90 L 569.23,297.80 L 583.69,297.61 L 599.82,305.84 L 604.26,313.67 L 593.06,321.09 L 605.16,324.47 L 611.14,318.72 L 633.94,319.87 L 645.89,324.26 L 649.23,328.56 L 650.00,332.55 L 643.89,344.12 L 635.81,348.16 L 633.61,346.61 L 630.17,345.63 L 633.94,347.57 L 627.30,347.78 L 634.18,347.98 L 631.52,349.95 L 634.00,350.89 L 627.18,352.88 L 624.41,350.92 L 615.31,354.46 L 622.80,353.78 L 622.62,358.23 L 607.47,360.59 L 605.16,362.09 L 615.19,361.41 L 610.66,363.27 L 616.21,363.07 L 617.44,364.63 L 624.33,365.07 L 639.56,364.10 L 637.27,365.72 L 637.49,370.72 L 627.23,373.21 L 624.41,377.40 L 617.38,377.03 L 601.49,382.28 L 584.00,379.88 L 567.18,382.78 L 562.35,379.54 L 559.71,379.53 L 557.71,381.32 L 558.15,379.53 L 555.06,379.53 L 555.50,381.31 L 545.30,377.40 L 550.12,380.77 L 542.24,383.10 L 526.79,382.50 L 525.37,383.67 L 529.57,384.31 L 529.17,386.44 L 515.17,385.20 L 513.39,388.57 L 500.08,382.67 L 483.80,386.01 L 480.69,384.25 L 479.95,390.52 L 477.72,391.30 L 479.95,392.08 L 474.35,397.34 L 461.61,395.07 L 456.89,390.52 L 454.00,392.30 L 457.11,394.45 L 440.92,393.84 L 430.95,399.54 L 429.32,398.06 L 426.96,400.91 L 429.21,401.93 L 424.85,404.83 L 415.68,399.93 L 408.23,402.17 L 408.89,399.04 L 420.85,396.41 L 429.41,391.40 L 430.53,388.27 L 436.05,388.96 L 433.60,386.81 L 437.74,386.64 L 444.70,381.50 L 446.35,374.63 L 452.45,375.15 L 456.64,372.87 L 455.98,369.55 L 470.84,367.97 L 495.00,369.55 L 496.53,364.07 L 515.65,352.94 L 506.53,357.40 L 496.53,358.95 Z M 551.36,387.00 L 541.97,384.84 L 550.09,381.57 L 557.71,383.26 L 551.36,387.00 Z M 562.36,381.32 L 559.71,381.11 L 561.27,379.93 L 562.36,381.32 Z M 623.00,364.44 L 616.46,363.27 L 617.52,362.24 L 623.00,364.44 Z M 445.14,310.92 L 440.93,308.98 L 443.12,308.66 L 445.14,310.92 Z M 461.98,309.18 L 450.22,314.11 L 450.92,312.62 L 447.35,312.70 L 444.90,309.96 L 444.90,306.61 L 452.87,305.84 L 456.80,309.30 L 461.98,309.18 Z M 393.06,251.93 L 393.14,252.24 L 389.52,252.13 L 393.06,251.93 Z M 427.22,248.05 L 421.18,247.41 L 418.33,242.13 L 424.62,240.48 L 428.74,246.06 L 427.22,248.05 Z M 427.29,238.19 L 424.58,234.56 L 428.42,235.47 L 430.07,239.19 L 427.29,238.19 Z M 389.40,244.08 L 388.37,242.66 L 390.83,241.74 L 388.18,240.16 L 390.61,238.40 L 382.41,241.14 L 384.30,236.35 L 387.98,235.17 L 388.64,237.21 L 394.16,233.70 L 397.71,239.77 L 389.40,244.08 Z M 394.38,228.80 L 393.06,230.77 L 389.97,230.95 L 394.38,228.80 Z M 408.78,228.47 L 399.92,237.61 L 396.68,237.47 L 396.26,234.42 L 402.37,232.70 L 398.84,232.42 L 408.78,228.47 Z M 409.25,226.90 L 406.81,227.41 L 407.16,226.94 L 409.25,226.90 Z M 411.29,224.89 L 410.42,226.61 L 409.47,225.66 L 411.29,224.89 Z M 410.96,222.75 L 412.13,222.71 L 410.93,224.12 L 410.96,222.75 Z M 414.01,220.19 L 414.77,219.97 L 412.13,220.95 L 414.01,220.19 Z M 391.02,218.57 L 390.17,218.20 L 391.73,217.61 L 393.52,218.59 L 391.02,218.57 Z M 375.11,216.85 L 370.19,219.31 L 366.68,217.61 L 375.11,216.85 Z M 404.88,222.90 L 390.07,224.48 L 386.85,222.80 L 390.70,223.10 L 398.02,221.09 L 392.12,221.14 L 398.16,217.61 L 387.76,216.23 L 393.80,213.37 L 408.77,219.58 L 404.88,222.90 Z M 378.76,215.57 L 376.00,215.27 L 380.61,212.99 L 383.84,212.62 L 378.76,215.57 Z M 351.96,204.93 L 348.35,204.76 L 351.83,201.74 L 353.62,203.12 L 351.96,204.93 Z M 390.83,203.12 L 389.77,204.75 L 383.97,203.30 L 388.18,201.74 L 390.83,203.12 Z M 381.31,201.33 L 382.86,201.74 L 380.96,202.05 L 379.09,201.93 L 381.31,201.33 Z M 398.44,194.73 L 398.24,194.33 L 400.98,194.63 L 398.44,194.73 Z M 360.04,194.67 L 358.05,196.64 L 354.94,196.46 L 357.95,198.84 L 355.16,199.18 L 359.37,200.16 L 354.94,200.57 L 351.63,196.64 L 353.75,194.49 L 352.51,192.33 L 360.04,194.67 Z M 359.71,191.44 L 353.17,190.67 L 354.40,189.41 L 359.71,191.44 Z M 396.46,190.94 L 398.91,188.91 L 399.03,193.48 L 396.61,193.50 L 396.46,190.94 Z M 399.02,188.17 L 399.93,186.90 L 400.14,187.04 L 399.02,188.17 Z M 364.25,185.28 L 359.37,185.28 L 362.29,187.08 L 356.26,187.62 L 361.26,188.79 L 348.74,186.45 L 356.26,183.72 L 364.25,185.28 Z M 373.35,190.36 L 375.54,188.70 L 379.07,190.71 L 378.30,189.06 L 380.45,189.01 L 377.98,186.04 L 388.64,190.18 L 385.25,184.94 L 388.64,183.31 L 393.72,186.55 L 392.62,192.13 L 395.49,193.91 L 393.72,194.67 L 410.10,195.84 L 398.48,202.60 L 403.69,198.03 L 397.27,196.84 L 395.83,199.77 L 393.38,197.65 L 388.40,198.81 L 389.75,197.64 L 383.10,194.49 L 388.22,194.50 L 381.53,191.53 L 380.45,193.50 L 373.35,190.36 Z M 360.53,182.40 L 361.44,182.64 L 359.92,183.16 L 360.53,182.40 Z M 314.44,179.77 L 316.16,179.99 L 314.91,180.39 L 314.44,179.77 Z M 363.79,178.23 L 365.14,177.20 L 366.44,177.23 L 363.79,178.23 Z M 370.24,167.43 L 373.11,168.80 L 370.45,168.80 L 370.24,167.43 Z M 362.31,179.47 L 371.56,176.65 L 362.71,175.09 L 368.47,173.31 L 364.47,173.70 L 362.71,169.60 L 369.35,168.60 L 368.39,168.77 L 370.90,171.75 L 370.58,169.39 L 375.75,169.39 L 372.22,166.65 L 391.48,160.52 L 393.28,164.89 L 386.85,168.02 L 393.52,168.60 L 385.75,168.80 L 386.63,170.77 L 378.66,172.33 L 385.53,171.75 L 387.30,173.70 L 381.07,174.30 L 383.97,175.48 L 381.31,177.06 L 377.32,176.84 L 375.75,174.69 L 379.55,173.13 L 376.44,173.13 L 373.99,174.69 L 377.32,178.23 L 373.24,177.70 L 374.70,179.63 L 367.81,182.13 L 362.31,179.47 Z M 499.47,151.00 L 497.65,153.90 L 494.56,151.35 L 499.47,151.00 Z M 491.45,151.74 L 486.03,152.52 L 481.70,149.49 L 487.75,149.17 L 490.12,151.35 L 487.68,152.14 L 491.45,151.74 Z M 501.41,149.59 L 496.32,147.34 L 489.15,148.60 L 488.34,145.10 L 486.35,147.62 L 483.85,145.74 L 485.24,142.55 L 489.80,141.99 L 495.89,144.10 L 491.94,146.25 L 504.52,147.03 L 501.41,149.59 Z M 511.40,143.51 L 505.86,143.65 L 508.07,142.54 L 506.53,141.76 L 511.40,143.51 Z M 492.74,142.11 L 491.81,141.15 L 497.23,140.96 L 492.74,142.11 Z M 503.43,138.99 L 504.30,141.95 L 502.53,142.04 L 501.20,140.57 L 503.43,138.99 Z M 515.35,138.03 L 505.65,140.70 L 508.27,137.82 L 515.35,138.03 Z M 496.83,135.87 L 501.20,138.99 L 499.42,139.61 L 494.12,137.05 L 496.83,135.87 Z M 540.17,130.30 L 541.53,130.18 L 541.09,130.98 L 540.17,130.30 Z M 565.04,101.36 L 562.36,99.61 L 566.14,99.61 L 565.04,101.36 Z M 559.27,104.70 L 556.34,106.61 L 558.11,107.31 L 554.82,107.65 L 557.48,109.80 L 553.29,110.77 L 556.38,113.31 L 553.49,114.52 L 555.06,115.87 L 551.51,121.76 L 548.23,120.20 L 551.89,114.30 L 551.73,110.58 L 547.09,110.19 L 549.08,111.55 L 545.66,113.12 L 544.10,110.63 L 540.18,111.38 L 538.07,109.43 L 548.61,109.40 L 551.97,107.43 L 547.61,106.44 L 545.96,103.51 L 540.68,103.76 L 543.34,101.66 L 545.67,103.03 L 547.95,102.94 L 544.86,102.16 L 550.64,99.20 L 548.41,106.09 L 553.35,103.35 L 555.48,105.27 L 553.25,105.89 L 559.27,104.70 Z M 560.60,99.41 L 558.37,98.63 L 559.62,103.20 L 555.41,103.05 L 556.70,97.14 L 560.80,97.63 L 560.60,99.41 Z M 561.48,97.85 L 562.36,94.70 L 567.76,93.75 L 566.15,98.00 L 561.48,97.85 Z M 389.50,405.87 L 389.08,406.25 L 388.70,406.13 L 389.50,405.87 Z M 388.14,405.12 L 387.94,405.33 L 387.41,404.68 L 388.14,405.12 Z M 441.91,370.34 L 441.69,370.48 L 441.50,369.53 L 441.91,370.34 Z M 150.00,186.31 L 150.09,186.33 L 150.06,186.36 L 150.00,186.31 Z M 549.60,116.34 L 548.49,116.31 L 549.21,114.47 L 549.60,116.34 Z M 526.01,114.22 L 524.42,113.64 L 525.21,113.14 L 526.01,114.22 Z M 557.67,114.58 L 556.02,112.48 L 557.82,112.20 L 557.67,114.58 Z M 561.16,107.86 L 559.28,107.86 L 560.18,107.04 L 563.01,106.54 L 561.16,107.86 Z" fill="#4A90D9" stroke="#1a5fa8" stroke-width="1.2"/>
<path d="M 390.72,268.75 L 388.47,271.73 L 390.06,272.55 L 386.24,275.36 L 379.19,274.17 L 381.80,268.75 L 390.72,268.75 Z" fill="#A8C8E8" stroke="none"/>
<path d="M 446.63,196.68 L 441.48,199.16 L 449.06,193.98 L 452.37,192.26 L 446.63,196.68 Z" fill="#A8C8E8" stroke="none"/>
<path d="M 324.57,320.72 L 319.49,323.09 L 317.93,320.72 L 328.58,315.69 L 324.57,320.72 Z" fill="#A8C8E8" stroke="none"/>
<path d="M 334.09,293.02 L 333.82,292.67 L 336.09,293.49 L 334.09,293.02 Z" fill="#A8C8E8" stroke="none"/>
<path d="M 337.42,304.65 L 334.74,304.64 L 332.10,299.56 L 338.33,301.80 L 337.42,304.65 Z" fill="#A8C8E8" stroke="none"/>
<path d="M 330.79,284.85 L 333.00,284.46 L 333.24,286.44 L 330.79,284.85 Z" fill="#A8C8E8" stroke="none"/>
<path d="M 431.87,205.02 L 435.41,203.04 L 436.34,203.12 L 431.87,205.02 Z" fill="#A8C8E8" stroke="none"/>
<path d="M 350.51,284.86 L 346.53,281.92 L 348.54,281.32 L 350.51,284.86 Z" fill="#A8C8E8" stroke="none"/>
<path d="M 795.26,307.78 L 791.50,307.69 L 792.73,306.20 L 795.26,307.78 Z" fill="#A8C8E8" stroke="none"/>
<path d="M 782.25,332.77 L 780.31,334.35 L 771.66,338.78 L 767.50,339.09 L 753.38,335.84 L 757.38,333.88 L 756.02,328.09 L 764.25,326.23 L 758.83,324.64 L 755.84,319.74 L 766.45,315.64 L 766.35,321.32 L 777.75,322.50 L 774.20,324.27 L 773.75,327.30 L 781.60,329.17 L 782.56,331.00 L 782.25,332.77 Z M 775.55,328.96 L 758.71,335.42 L 770.23,338.56 L 782.17,331.96 L 775.55,328.96 Z" fill="#A8C8E8" stroke="none"/>
</svg>