<svg xmlns="http://www.w3.org/2000/svg" width="800" height="500" viewBox="0 0 800 500">
<rect width="800" height="500" fill="#A8C8E8"/>
<path d="M 539.28,376.17 L 538.93,379.48 L 542.18,382.97 L 547.75,381.38 L 550.06,388.59 L 555.54,390.03 L 556.98,395.13 L 561.96,393.82 L 565.12,396.27 L 563.95,400.00 L 565.32,401.94 L 564.05,404.38 L 572.40,404.11 L 575.16,399.05 L 576.08,399.67 L 574.65,404.86 L 575.89,406.14 L 575.71,409.55 L 582.38,412.49 L 585.58,418.00 L 590.29,416.55 L 593.78,419.65 L 600.96,418.96 L 601.08,419.15 L 601.08,496.65 L 597.74,500.00 L 466.39,500.00 L 465.83,498.30 L 462.44,494.64 L 464.52,488.47 L 460.45,485.41 L 461.68,484.68 L 461.76,481.73 L 468.81,483.46 L 464.20,480.34 L 459.84,482.44 L 455.56,480.90 L 457.28,480.70 L 455.32,478.52 L 458.00,477.37 L 456.33,475.43 L 458.45,475.01 L 454.09,474.61 L 454.63,474.35 L 454.99,473.64 L 451.08,475.21 L 449.59,473.51 L 452.32,473.71 L 453.17,472.20 L 453.25,471.66 L 452.88,471.10 L 449.42,472.45 L 448.52,470.50 L 449.09,473.44 L 446.11,472.36 L 445.97,475.81 L 444.85,471.19 L 446.19,468.54 L 444.97,468.13 L 444.47,470.71 L 442.29,469.54 L 443.52,469.71 L 442.29,469.15 L 443.52,466.96 L 440.85,469.33 L 429.71,463.06 L 428.85,466.22 L 425.81,466.39 L 424.79,461.58 L 420.02,459.72 L 427.22,457.58 L 425.69,454.23 L 422.79,455.81 L 421.67,452.67 L 422.97,450.96 L 423.48,452.42 L 427.48,452.63 L 428.81,452.08 L 424.48,451.28 L 427.14,448.53 L 419.37,451.00 L 419.43,446.00 L 422.69,442.87 L 432.28,439.92 L 434.27,442.87 L 434.94,439.90 L 438.61,441.35 L 439.74,436.79 L 444.38,435.93 L 444.53,438.16 L 446.63,435.95 L 446.07,439.14 L 447.98,437.38 L 453.28,446.32 L 459.23,440.90 L 459.00,442.87 L 460.89,444.23 L 463.52,442.28 L 464.69,446.19 L 463.90,442.48 L 465.25,440.90 L 466.91,440.51 L 467.68,443.26 L 474.83,442.48 L 471.62,439.51 L 470.82,436.58 L 472.37,431.31 L 470.98,431.44 L 470.70,426.10 L 471.71,425.82 L 467.35,421.29 L 466.24,417.08 L 466.98,414.54 L 465.42,411.56 L 470.76,413.68 L 476.35,412.38 L 476.92,414.42 L 475.65,416.31 L 478.63,422.39 L 481.59,421.05 L 493.31,424.26 L 503.57,419.34 L 504.90,418.15 L 501.06,419.00 L 498.13,416.97 L 500.71,411.41 L 516.73,404.27 L 521.61,397.52 L 524.07,398.16 L 521.94,395.71 L 523.06,393.06 L 522.16,392.08 L 522.57,378.81 L 537.88,372.55 L 539.28,376.17 Z M 459.52,497.49 L 460.00,498.14 L 458.14,497.42 L 459.52,497.49 Z M 462.05,492.06 L 459.56,488.54 L 461.12,488.79 L 462.05,492.06 Z M 447.02,480.85 L 444.48,480.56 L 443.85,478.52 L 447.02,480.85 Z M 414.17,448.09 L 413.44,447.77 L 414.11,447.13 L 414.17,448.09 Z" fill="#E8E0D0" stroke="#B8B0A0" stroke-width="0.5"/>
<path d="M 600.03,419.25 L 601.08,415.26 L 601.08,419.58 L 600.03,419.25 Z M 599.34,408.39 L 595.98,402.27 L 596.80,397.54 L 600.51,394.64 L 599.89,389.90 L 597.19,388.85 L 598.47,386.09 L 593.98,381.30 L 595.45,377.70 L 592.11,374.50 L 596.81,370.70 L 595.34,369.00 L 597.80,363.97 L 597.56,360.49 L 593.30,351.72 L 596.96,350.97 L 596.48,349.40 L 600.03,351.57 L 601.08,351.16 L 601.08,408.99 L 599.34,408.39 Z" fill="#E8E0D0" stroke="#B8B0A0" stroke-width="0.5"/>
<path d="M 594.58,163.79 L 593.68,161.15 L 588.67,159.11 L 585.93,153.21 L 587.47,149.23 L 586.89,147.45 L 588.34,148.33 L 587.11,145.10 L 589.79,146.85 L 589.79,150.00 L 592.04,147.20 L 595.92,150.57 L 598.14,150.78 L 595.35,149.00 L 601.08,146.33 L 601.08,166.73 L 594.58,163.79 Z M 597.03,146.25 L 594.97,148.91 L 594.01,147.24 L 595.24,146.25 L 592.39,144.30 L 596.47,141.95 L 594.56,141.93 L 597.20,138.72 L 601.08,137.35 L 601.08,145.41 L 597.03,146.25 Z M 596.92,138.54 L 595.80,137.42 L 598.26,137.05 L 594.34,136.64 L 595.09,135.22 L 598.36,131.59 L 601.08,130.81 L 601.08,137.30 L 596.92,138.54 Z M 598.26,131.16 L 599.07,127.63 L 596.91,133.06 L 593.19,136.02 L 592.57,133.41 L 596.91,132.54 L 591.29,130.77 L 591.13,132.95 L 588.67,134.51 L 590.91,133.92 L 592.14,136.16 L 588.11,137.82 L 587.70,134.28 L 586.38,138.25 L 585.20,134.61 L 584.65,137.71 L 583.83,134.30 L 582.99,136.34 L 581.44,130.57 L 583.76,127.67 L 584.88,129.19 L 586.11,125.08 L 584.94,131.76 L 586.56,130.77 L 587.33,126.84 L 590.43,128.75 L 592.46,127.45 L 590.29,126.87 L 591.40,125.34 L 595.04,124.88 L 599.16,122.16 L 594.46,124.50 L 593.35,123.91 L 593.91,121.57 L 591.68,124.11 L 588.67,121.76 L 599.15,114.11 L 596.13,114.52 L 595.64,111.92 L 600.14,107.06 L 601.08,106.78 L 601.08,130.61 L 598.26,131.16 Z M 599.25,106.48 L 597.30,104.12 L 598.31,106.75 L 596.35,107.06 L 597.48,107.43 L 596.69,110.32 L 594.36,110.01 L 592.00,113.31 L 592.08,116.91 L 590.18,117.75 L 589.36,115.85 L 591.13,114.89 L 589.89,115.19 L 589.68,112.55 L 591.02,111.55 L 587.00,112.94 L 589.68,110.95 L 587.45,110.77 L 590.14,106.38 L 584.82,113.83 L 583.10,112.14 L 583.88,111.38 L 581.78,111.55 L 583.21,109.99 L 580.94,109.62 L 581.87,108.41 L 580.45,107.54 L 583.00,106.26 L 582.02,104.04 L 583.13,102.48 L 585.90,105.15 L 588.79,105.27 L 589.77,103.74 L 590.35,97.05 L 588.95,97.45 L 589.14,95.91 L 586.72,99.61 L 581.78,101.17 L 579.54,98.63 L 581.87,99.82 L 580.21,96.87 L 576.97,94.70 L 585.21,99.61 L 582.00,95.39 L 586.89,92.54 L 580.29,94.36 L 577.87,90.39 L 579.80,92.48 L 580.44,89.22 L 578.37,89.50 L 578.42,87.65 L 585.45,89.11 L 586.73,86.83 L 596.02,85.49 L 600.26,87.05 L 600.20,88.67 L 601.08,87.64 L 601.08,105.42 L 599.25,106.48 Z M 593.79,84.31 L 595.02,83.14 L 585.05,86.71 L 581.31,85.97 L 581.87,84.90 L 578.88,84.31 L 582.23,83.73 L 577.42,81.76 L 581.44,79.18 L 583.37,81.77 L 582.33,79.02 L 588.45,78.63 L 580.83,78.80 L 579.11,79.73 L 578.14,78.20 L 579.18,78.27 L 579.98,76.66 L 577.32,77.07 L 581.10,75.47 L 586.60,76.68 L 591.24,75.88 L 581.06,74.40 L 580.44,73.13 L 583.98,72.93 L 580.54,71.96 L 585.10,72.14 L 577.65,70.79 L 577.97,67.62 L 580.89,68.23 L 579.21,67.25 L 584.58,62.92 L 590.24,64.71 L 588.23,65.67 L 593.46,64.81 L 592.78,67.85 L 594.29,65.09 L 597.36,67.06 L 595.35,65.09 L 601.08,65.83 L 601.08,85.63 L 593.79,84.31 Z M 590.02,63.54 L 593.79,62.76 L 585.10,62.16 L 580.69,63.35 L 579.77,62.76 L 580.21,61.98 L 580.44,61.20 L 584.67,59.80 L 579.94,57.26 L 579.54,54.91 L 582.63,55.53 L 585.67,60.18 L 587.78,58.43 L 584.52,56.85 L 585.55,54.91 L 590.35,57.84 L 589.01,55.50 L 592.88,54.92 L 591.90,59.81 L 593.68,56.37 L 595.24,58.43 L 600.38,58.62 L 595.86,57.26 L 593.22,53.93 L 595.47,54.52 L 593.57,53.35 L 599.47,49.73 L 601.08,52.11 L 601.08,65.21 L 590.02,63.54 Z M 600.92,49.30 L 601.08,49.35 L 601.08,49.64 L 600.92,49.30 Z M 598.37,47.47 L 601.08,47.01 L 601.08,47.23 L 598.37,47.47 Z M 598.47,43.94 L 601.08,43.29 L 601.08,44.82 L 598.47,43.94 Z M 582.99,141.37 L 581.55,142.11 L 581.18,134.33 L 582.99,141.37 Z M 583.77,125.88 L 582.89,126.64 L 582.86,124.75 L 581.32,124.89 L 580.65,129.27 L 580.06,126.58 L 581.22,124.50 L 579.31,123.81 L 580.66,121.18 L 583.77,125.88 Z M 584.50,124.50 L 582.23,120.18 L 583.46,118.26 L 586.11,121.57 L 584.50,124.50 Z M 588.56,120.01 L 586.42,120.48 L 584.04,117.72 L 588.23,115.48 L 588.56,120.01 Z M 577.32,110.19 L 578.76,108.62 L 577.33,105.03 L 579.69,108.43 L 579.98,111.86 L 577.32,110.19 Z M 580.60,103.25 L 581.48,105.24 L 580.19,106.08 L 577.80,102.59 L 580.60,103.25 Z M 589.24,103.81 L 588.06,104.90 L 583.43,101.95 L 589.34,98.24 L 589.24,103.81 Z M 577.92,85.98 L 574.96,87.65 L 575.64,83.34 L 576.46,85.05 L 577.52,83.91 L 577.92,85.98 Z M 577.40,63.32 L 581.78,64.71 L 576.80,66.64 L 574.96,64.91 L 577.40,63.32 Z M 591.02,54.23 L 587.05,54.86 L 586.32,53.92 L 590.13,52.35 L 591.02,54.23 Z M 595.70,50.60 L 591.35,53.35 L 591.42,49.34 L 595.70,50.60 Z M 599.82,48.63 L 594.80,47.86 L 597.70,47.65 L 599.82,48.63 Z M 582.53,117.74 L 580.95,116.18 L 582.17,116.12 L 581.50,114.23 L 582.87,115.47 L 582.53,117.74 Z M 576.19,92.84 L 574.53,90.99 L 576.26,90.99 L 576.19,92.84 Z M 573.40,89.31 L 572.37,87.34 L 573.29,86.63 L 573.40,89.31 Z M 579.71,62.45 L 577.91,60.11 L 578.05,59.37 L 580.12,59.64 L 579.71,62.45 Z M 587.96,50.97 L 590.22,50.06 L 590.00,51.03 L 587.96,50.97 Z M 586.64,50.80 L 586.45,49.96 L 587.62,50.11 L 586.64,50.80 Z M 590.37,144.13 L 587.51,142.65 L 588.04,142.35 L 590.37,144.13 Z M 585.37,141.65 L 584.26,139.94 L 584.73,139.27 L 585.37,141.65 Z M 596.04,138.29 L 593.28,139.23 L 593.65,138.08 L 596.04,138.29 Z M 575.62,100.72 L 574.58,100.47 L 574.77,98.54 L 575.62,100.72 Z M 576.21,68.62 L 576.59,69.64 L 576.58,70.32 L 575.50,69.69 L 576.21,68.62 Z" fill="#E8E0D0" stroke="#B8B0A0" stroke-width="0.5"/>
<path d="M 598.04,406.89 L 599.34,408.39 L 599.85,408.24 L 600.87,409.14 L 601.08,409.16 L 601.08,415.26 L 600.03,419.25 L 593.78,419.65 L 591.02,416.89 L 592.56,413.86 L 589.85,406.77 L 593.79,398.93 L 596.33,400.22 L 598.04,406.89 Z" fill="#E8E0D0" stroke="#B8B0A0" stroke-width="0.5"/>
<path d="M 551.33,364.32 L 552.02,368.00 L 555.56,366.75 L 560.72,369.16 L 565.51,364.53 L 566.92,367.30 L 566.15,364.49 L 568.59,364.85 L 568.89,361.84 L 572.15,363.09 L 574.56,360.89 L 575.28,363.22 L 574.29,363.23 L 576.70,363.85 L 578.61,361.42 L 581.66,367.66 L 586.18,366.86 L 591.64,370.58 L 588.31,379.91 L 598.47,386.09 L 597.19,388.85 L 599.89,389.90 L 600.51,394.64 L 596.97,397.29 L 596.33,400.22 L 593.79,398.93 L 589.85,406.77 L 592.56,413.86 L 591.77,416.22 L 585.58,418.00 L 582.38,412.49 L 575.71,409.55 L 575.89,406.14 L 574.65,404.86 L 575.93,399.44 L 569.46,405.51 L 564.05,404.38 L 565.32,401.94 L 563.95,400.00 L 565.12,396.27 L 561.96,393.82 L 556.98,395.13 L 555.54,390.03 L 550.06,388.59 L 547.75,381.38 L 542.18,382.97 L 538.93,379.48 L 539.28,376.17 L 537.88,372.55 L 551.33,364.32 Z" fill="#E8E0D0" stroke="#B8B0A0" stroke-width="0.5"/>
<path d="M 601.08,496.65 L 601.08,500.00 L 597.74,500.00 L 601.08,496.65 Z" fill="#E8E0D0" stroke="#B8B0A0" stroke-width="0.5"/>
<path d="M 600.03,351.57 L 596.48,349.40 L 596.96,350.97 L 593.30,351.72 L 597.76,361.94 L 595.34,369.00 L 596.81,370.70 L 592.02,373.83 L 592.38,376.05 L 595.45,377.70 L 594.34,382.21 L 589.65,382.09 L 588.31,379.91 L 591.64,370.58 L 586.18,366.86 L 581.66,367.66 L 578.61,361.42 L 576.70,363.85 L 574.29,363.23 L 575.28,363.22 L 574.56,360.89 L 572.15,363.09 L 569.76,361.49 L 568.04,362.39 L 568.28,365.03 L 561.89,362.09 L 559.10,363.87 L 552.98,359.90 L 559.48,357.58 L 563.61,362.31 L 566.51,362.25 L 561.71,358.17 L 565.28,358.17 L 563.74,356.77 L 564.78,355.44 L 559.67,351.71 L 563.17,350.92 L 562.16,346.80 L 564.21,346.29 L 570.17,336.83 L 574.02,318.77 L 576.11,320.59 L 579.43,319.16 L 584.33,315.06 L 587.78,309.18 L 594.11,306.23 L 601.08,305.58 L 601.08,351.01 L 600.03,351.57 Z M 554.45,363.14 L 559.21,365.24 L 561.65,363.31 L 565.51,364.53 L 563.84,367.26 L 558.80,369.18 L 555.56,366.75 L 552.02,368.00 L 551.33,364.32 L 554.45,363.14 Z M 563.52,356.34 L 556.81,355.24 L 558.89,353.65 L 563.52,356.34 Z M 574.84,317.83 L 573.41,317.03 L 575.79,312.47 L 576.42,314.67 L 574.84,317.83 Z M 577.94,309.55 L 579.87,308.98 L 576.70,311.76 L 577.94,309.55 Z M 587.68,304.87 L 580.89,307.31 L 582.23,306.22 L 587.68,304.87 Z M 593.02,304.29 L 593.68,304.65 L 588.50,305.01 L 593.02,304.29 Z M 599.47,303.13 L 599.92,303.48 L 596.49,304.69 L 599.47,303.13 Z" fill="#E8E0D0" stroke="#B8B0A0" stroke-width="0.5"/>
<path d="M 229.14,5.89 L 224.06,7.08 L 223.84,8.83 L 221.66,6.98 L 221.73,8.88 L 221.06,9.24 L 221.50,6.09 L 221.03,5.44 L 220.42,8.95 L 211.59,9.24 L 210.92,10.41 L 208.80,11.59 L 210.37,10.41 L 208.91,9.42 L 204.80,12.42 L 207.57,12.56 L 204.78,13.95 L 206.57,14.32 L 204.84,16.82 L 201.09,18.24 L 202.34,16.49 L 199.12,16.08 L 201.28,18.50 L 198.92,19.01 L 198.92,0.00 L 235.81,0.00 L 229.14,5.89 Z M 208.44,11.65 L 208.09,12.26 L 207.14,11.99 L 208.44,11.65 Z" fill="#E8E0D0" stroke="#B8B0A0" stroke-width="0.5"/>
<path d="M 463.97,427.37 L 460.57,426.99 L 460.45,424.83 L 463.02,424.83 L 463.97,427.37 Z" fill="#E8E0D0" stroke="#B8B0A0" stroke-width="0.5"/>
<path d="M 456.21,417.78 L 455.56,419.94 L 453.42,419.87 L 456.21,417.78 Z M 458.61,420.03 L 458.22,420.46 L 458.26,419.81 L 458.61,420.03 Z M 461.31,411.94 L 460.69,412.02 L 460.82,411.71 L 461.31,411.94 Z M 457.13,418.69 L 457.00,419.05 L 456.97,418.68 L 457.13,418.69 Z" fill="#E8E0D0" stroke="#B8B0A0" stroke-width="0.5"/>
<path d="M 419.01,287.20 L 423.22,278.76 L 426.15,277.40 L 426.79,281.02 L 421.91,287.61 L 419.01,287.20 Z" fill="#E8E0D0" stroke="#B8B0A0" stroke-width="0.5"/>
<path d="M 385.19,74.64 L 383.70,71.00 L 387.71,72.74 L 386.25,73.13 L 388.33,75.25 L 386.60,75.69 L 388.70,77.66 L 385.19,74.64 Z M 388.60,67.64 L 384.59,62.96 L 388.50,64.21 L 389.39,65.49 L 388.60,67.64 Z M 376.07,56.14 L 379.58,55.69 L 382.46,57.84 L 379.80,59.81 L 376.07,56.14 Z M 379.91,51.38 L 381.91,52.07 L 383.13,55.11 L 385.57,56.31 L 384.70,57.45 L 386.67,58.49 L 385.59,58.83 L 387.71,59.40 L 387.93,61.98 L 379.47,55.50 L 379.91,51.38 Z M 384.25,50.79 L 384.99,51.47 L 384.15,52.07 L 384.59,53.53 L 386.11,51.98 L 390.17,56.49 L 388.49,56.08 L 389.72,57.04 L 388.70,58.62 L 387.09,55.18 L 386.15,54.91 L 387.31,57.48 L 382.19,52.07 L 384.25,50.79 Z M 389.87,53.84 L 390.05,50.46 L 390.61,49.80 L 390.94,51.13 L 391.50,51.93 L 393.06,52.94 L 391.27,53.15 L 392.73,54.91 L 389.87,53.84 Z M 374.36,57.55 L 372.62,57.32 L 373.53,57.08 L 374.36,57.55 Z M 394.84,51.90 L 393.52,53.34 L 393.10,52.36 L 394.84,51.90 Z M 389.00,52.36 L 388.28,49.90 L 388.81,49.89 L 389.83,52.08 L 389.00,52.36 Z M 388.11,53.16 L 386.52,49.64 L 386.90,49.69 L 388.11,53.16 Z M 391.94,51.91 L 390.31,49.19 L 392.04,51.28 L 391.94,51.91 Z" fill="#E8E0D0" stroke="#B8B0A0" stroke-width="0.5"/>
<path d="M 376.50,260.53 L 374.26,268.02 L 367.97,269.30 L 371.58,271.95 L 364.01,276.03 L 369.17,283.19 L 377.77,285.99 L 380.59,282.82 L 379.96,279.66 L 382.80,277.42 L 386.54,283.43 L 388.93,284.43 L 389.09,288.04 L 393.58,286.07 L 397.60,288.85 L 393.49,288.78 L 393.19,291.10 L 395.39,293.09 L 395.61,299.06 L 398.09,301.98 L 396.18,304.65 L 398.34,307.33 L 395.80,307.91 L 397.77,309.67 L 399.45,319.06 L 393.39,336.60 L 391.27,336.03 L 393.28,337.22 L 393.70,340.81 L 386.25,340.36 L 386.92,338.97 L 384.19,342.88 L 384.65,341.52 L 383.13,338.18 L 383.82,341.32 L 382.81,342.49 L 373.33,343.56 L 374.23,344.88 L 373.50,346.70 L 369.27,347.02 L 366.50,351.49 L 362.83,352.09 L 363.79,349.51 L 360.19,349.55 L 362.00,353.14 L 357.75,354.85 L 358.74,355.24 L 358.19,357.58 L 354.51,356.61 L 355.51,358.56 L 348.61,358.95 L 346.94,361.12 L 344.37,361.51 L 345.37,359.75 L 343.37,359.05 L 337.24,362.31 L 341.70,357.58 L 336.80,359.34 L 343.12,355.49 L 341.47,353.27 L 340.39,355.46 L 336.37,356.29 L 331.78,358.38 L 334.63,354.12 L 341.13,349.95 L 332.11,353.85 L 330.51,350.71 L 328.77,352.51 L 327.89,349.75 L 330.19,349.06 L 329.99,346.78 L 338.25,342.10 L 327.22,343.66 L 326.82,341.30 L 331.53,338.24 L 332.68,339.56 L 333.35,337.59 L 335.17,339.65 L 338.58,339.35 L 336.44,338.64 L 337.01,335.72 L 335.13,334.66 L 340.26,332.90 L 340.04,330.13 L 346.15,329.94 L 354.62,327.20 L 351.21,326.61 L 351.51,324.27 L 345.93,329.55 L 341.13,327.40 L 335.35,330.52 L 342.47,324.92 L 344.82,319.74 L 342.81,319.55 L 346.15,313.65 L 349.39,314.45 L 348.49,313.28 L 351.61,313.67 L 352.28,311.52 L 349.83,311.52 L 351.51,310.35 L 350.22,309.96 L 342.26,311.31 L 341.56,309.53 L 340.62,311.09 L 341.59,306.82 L 337.46,309.21 L 335.91,308.58 L 337.58,305.84 L 331.45,306.04 L 334.12,304.07 L 331.39,301.95 L 339.25,300.73 L 335.81,299.36 L 335.81,296.04 L 341.37,295.06 L 340.47,294.46 L 341.47,293.09 L 335.23,292.69 L 335.81,291.51 L 335.69,290.56 L 337.77,291.64 L 335.96,288.51 L 337.02,286.03 L 334.80,286.99 L 335.81,285.85 L 334.14,282.99 L 332.41,286.49 L 333.35,282.88 L 332.45,282.51 L 334.35,280.54 L 336.25,281.71 L 334.69,282.30 L 335.78,283.39 L 338.14,281.92 L 336.82,280.04 L 337.81,279.56 L 346.21,280.54 L 348.28,285.07 L 349.74,280.95 L 358.52,283.29 L 356.74,281.92 L 359.19,281.32 L 357.52,280.25 L 358.39,279.89 L 356.04,278.96 L 359.24,275.65 L 363.41,274.88 L 362.43,274.25 L 364.87,270.74 L 359.41,273.08 L 360.53,271.50 L 353.86,269.44 L 360.20,267.42 L 357.75,265.84 L 358.85,264.86 L 361.54,265.45 L 359.41,260.55 L 361.63,259.65 L 362.30,256.03 L 364.29,257.07 L 367.21,254.28 L 366.76,255.65 L 369.17,256.65 L 370.10,253.30 L 369.83,255.06 L 371.67,257.79 L 371.79,254.69 L 370.28,254.38 L 372.62,252.82 L 374.54,257.30 L 372.01,261.93 L 375.67,259.02 L 374.56,252.32 L 378.91,252.50 L 376.84,249.57 L 384.07,253.79 L 376.50,260.53 Z M 339.87,311.19 L 339.03,311.02 L 339.03,309.96 L 339.87,311.19 Z M 335.00,292.65 L 330.00,289.75 L 334.71,288.63 L 335.00,292.65 Z M 358.76,260.61 L 358.96,261.33 L 357.63,261.33 L 358.76,260.61 Z M 337.58,356.84 L 335.65,357.34 L 336.24,356.72 L 337.58,356.84 Z M 329.07,349.22 L 327.34,349.60 L 328.60,348.42 L 329.07,349.22 Z M 339.84,315.25 L 337.38,313.91 L 339.25,313.94 L 339.84,315.25 Z" fill="#C8D8E8" stroke="#8BAABB" stroke-width="0.8"/>
<path d="M 382.21,259.23 L 383.70,255.06 L 397.70,254.55 L 399.57,261.15 L 404.39,266.55 L 400.85,271.91 L 406.26,269.78 L 408.55,276.05 L 407.22,279.56 L 406.53,274.59 L 404.19,272.71 L 405.43,276.62 L 404.08,279.17 L 406.18,278.26 L 406.61,280.69 L 401.59,282.64 L 401.07,286.24 L 398.05,288.25 L 393.58,286.07 L 389.09,288.04 L 388.93,284.43 L 386.54,283.43 L 382.80,277.42 L 379.96,279.66 L 380.59,282.82 L 378.54,285.63 L 373.19,285.23 L 369.17,283.19 L 364.01,276.03 L 371.58,271.95 L 367.97,269.30 L 374.26,268.02 L 376.50,260.53 L 382.21,259.23 Z M 448.52,358.95 L 445.11,363.68 L 439.35,363.66 L 434.43,357.28 L 427.14,359.16 L 427.14,357.41 L 430.37,356.75 L 430.71,355.72 L 426.73,355.68 L 425.92,352.48 L 416.56,357.99 L 413.65,355.65 L 418.12,354.64 L 418.46,352.29 L 412.63,355.34 L 411.54,354.07 L 413.81,352.79 L 413.55,350.57 L 410.55,350.34 L 414.46,345.70 L 418.18,346.03 L 426.72,340.26 L 430.07,336.00 L 430.94,331.30 L 432.71,330.74 L 429.82,329.17 L 432.05,325.44 L 429.43,323.22 L 430.59,319.94 L 419.46,323.86 L 426.03,317.03 L 428.96,311.62 L 434.60,309.57 L 433.83,308.18 L 438.32,309.58 L 442.74,307.78 L 446.69,311.13 L 445.08,306.61 L 447.17,305.41 L 450.04,309.59 L 452.99,307.78 L 449.33,307.83 L 446.46,301.88 L 449.75,296.80 L 447.31,295.83 L 447.19,291.92 L 450.42,290.16 L 450.87,288.78 L 449.44,288.25 L 451.43,285.65 L 450.48,283.68 L 451.20,283.17 L 451.43,282.12 L 449.10,284.80 L 447.31,282.88 L 445.75,287.41 L 444.20,286.03 L 444.74,281.71 L 443.12,283.75 L 437.80,274.56 L 441.81,263.96 L 447.76,261.33 L 438.84,260.76 L 438.66,263.96 L 434.83,263.88 L 431.67,267.26 L 425.31,263.28 L 425.64,269.78 L 417.89,264.45 L 416.33,266.21 L 417.89,271.13 L 413.05,264.09 L 412.82,260.38 L 415.67,262.91 L 415.47,256.59 L 421.81,246.45 L 416.89,240.36 L 417.86,238.98 L 417.45,234.32 L 424.03,234.07 L 418.46,229.77 L 419.19,232.25 L 418.01,232.36 L 417.79,230.11 L 419.57,226.11 L 418.01,228.80 L 416.89,227.22 L 417.34,232.31 L 416.34,232.12 L 415.87,235.71 L 413.59,231.74 L 414.19,234.84 L 412.66,232.90 L 411.66,235.08 L 412.33,236.84 L 410.78,236.23 L 410.10,232.12 L 416.89,224.07 L 408.38,231.23 L 410.43,238.23 L 407.63,242.19 L 408.20,243.69 L 406.10,248.40 L 407.06,250.37 L 402.87,251.66 L 404.53,241.33 L 408.20,236.43 L 404.86,237.82 L 406.32,233.89 L 404.28,234.42 L 406.32,230.95 L 404.10,233.66 L 406.96,229.55 L 407.32,226.63 L 405.75,228.02 L 407.59,224.57 L 405.97,224.87 L 406.29,222.64 L 408.32,221.73 L 406.86,221.73 L 408.17,219.41 L 412.21,219.24 L 413.67,217.49 L 414.55,215.85 L 412.33,218.80 L 407.98,218.41 L 411.66,215.85 L 408.87,216.44 L 410.43,213.10 L 415.67,211.54 L 411.73,211.52 L 413.65,208.61 L 404.64,217.81 L 399.21,213.65 L 406.76,212.13 L 396.71,212.62 L 395.53,211.18 L 403.30,209.57 L 401.76,208.31 L 403.67,207.85 L 404.86,207.05 L 400.63,206.44 L 402.08,203.50 L 403.32,202.65 L 404.89,204.00 L 406.31,203.88 L 407.09,203.30 L 402.98,201.24 L 409.09,200.37 L 404.53,198.90 L 406.20,195.78 L 408.98,196.84 L 407.44,195.47 L 408.44,194.28 L 403.74,194.88 L 407.45,192.80 L 408.32,191.35 L 402.47,193.26 L 401.96,186.84 L 405.20,188.79 L 407.27,187.92 L 402.50,185.03 L 404.64,183.11 L 402.53,182.13 L 402.41,179.58 L 404.24,178.55 L 404.86,180.75 L 405.75,181.37 L 405.64,176.84 L 412.00,179.19 L 409.65,176.43 L 414.45,179.58 L 408.33,172.39 L 410.71,172.80 L 411.66,170.58 L 409.23,167.33 L 416.68,168.43 L 412.78,164.68 L 413.27,162.94 L 415.34,163.70 L 413.88,160.34 L 415.79,156.83 L 418.27,157.50 L 418.56,159.80 L 419.23,157.44 L 421.13,158.90 L 419.49,161.99 L 422.35,158.38 L 424.92,159.18 L 423.80,161.95 L 431.38,157.78 L 442.19,157.62 L 442.02,155.44 L 447.80,156.49 L 446.01,160.14 L 447.25,161.48 L 446.00,164.24 L 431.82,176.65 L 430.48,175.83 L 431.70,178.58 L 425.48,177.43 L 431.21,180.01 L 435.44,178.94 L 432.05,183.50 L 427.06,183.96 L 424.89,186.89 L 431.70,183.72 L 430.15,186.84 L 427.59,187.62 L 427.81,189.18 L 441.46,182.72 L 464.41,183.31 L 467.14,185.86 L 468.28,189.87 L 464.69,194.28 L 461.34,205.86 L 457.44,210.53 L 456.00,215.10 L 452.54,218.59 L 447.13,219.10 L 442.85,221.55 L 449.98,218.92 L 451.32,222.14 L 454.99,224.07 L 448.69,226.14 L 442.54,231.24 L 434.50,228.98 L 437.44,231.73 L 446.84,233.54 L 454.04,230.36 L 462.12,234.46 L 467.35,242.52 L 470.37,243.89 L 472.20,256.13 L 476.15,267.82 L 477.82,269.17 L 477.31,271.34 L 487.73,275.58 L 490.86,282.15 L 495.65,286.03 L 493.31,288.58 L 499.05,299.46 L 499.31,300.40 L 499.01,301.44 L 492.65,296.80 L 486.52,296.90 L 485.07,297.80 L 492.34,297.61 L 500.45,305.84 L 502.68,313.67 L 497.05,321.09 L 503.13,324.47 L 506.14,318.72 L 517.60,319.87 L 523.61,324.26 L 525.28,328.56 L 525.67,332.55 L 522.60,344.12 L 518.54,348.16 L 517.44,346.61 L 515.70,345.63 L 517.60,347.57 L 514.26,347.78 L 517.72,347.98 L 516.38,349.95 L 517.63,350.89 L 514.20,352.88 L 512.81,350.92 L 508.24,354.46 L 512.00,353.78 L 511.91,358.23 L 504.29,360.59 L 503.13,362.09 L 508.18,361.41 L 505.90,363.27 L 508.69,363.07 L 509.31,364.63 L 512.77,365.07 L 520.42,364.10 L 519.28,365.72 L 519.39,370.72 L 514.22,373.21 L 512.81,377.40 L 509.28,377.03 L 501.29,382.28 L 492.50,379.88 L 484.04,382.78 L 481.61,379.54 L 480.29,379.53 L 479.28,381.32 L 479.50,379.53 L 477.95,379.53 L 478.17,381.31 L 473.04,377.40 L 475.47,380.77 L 471.50,383.10 L 463.73,382.50 L 463.02,383.67 L 465.14,384.31 L 464.93,386.44 L 457.89,385.20 L 457.00,388.57 L 450.31,382.67 L 442.13,386.01 L 440.56,384.25 L 440.19,390.52 L 439.07,391.30 L 440.19,392.08 L 437.37,397.34 L 430.97,395.07 L 428.60,390.52 L 427.14,392.30 L 428.71,394.45 L 420.57,393.84 L 415.56,399.54 L 414.74,398.06 L 413.55,400.91 L 414.68,401.93 L 412.49,404.83 L 407.88,399.93 L 404.14,402.17 L 404.47,399.04 L 410.48,396.41 L 414.78,391.40 L 415.35,388.27 L 418.12,388.96 L 416.89,386.81 L 418.97,386.64 L 422.47,381.50 L 423.30,374.63 L 426.37,375.15 L 428.47,372.87 L 428.14,369.55 L 435.61,367.97 L 447.76,369.55 L 448.52,364.07 L 458.14,352.94 L 453.55,357.40 L 448.52,358.95 Z M 476.09,387.00 L 471.37,384.84 L 475.45,381.57 L 479.28,383.26 L 476.09,387.00 Z M 481.62,381.32 L 480.29,381.11 L 481.07,379.93 L 481.62,381.32 Z M 512.10,364.44 L 508.81,363.27 L 509.35,362.24 L 512.10,364.44 Z M 422.69,310.92 L 420.57,308.98 L 421.67,308.66 L 422.69,310.92 Z M 431.16,309.18 L 425.25,314.11 L 425.60,312.62 L 423.80,312.70 L 422.57,309.96 L 422.57,306.61 L 426.58,305.84 L 428.55,309.30 L 431.16,309.18 Z M 396.51,251.93 L 396.55,252.24 L 394.73,252.13 L 396.51,251.93 Z M 413.69,248.05 L 410.65,247.41 L 409.21,242.13 L 412.38,240.48 L 414.45,246.06 L 413.69,248.05 Z M 413.72,238.19 L 412.36,234.56 L 414.28,235.47 L 415.12,239.19 L 413.72,238.19 Z M 394.67,244.08 L 394.15,242.66 L 395.39,241.74 L 394.06,240.16 L 395.28,238.40 L 391.16,241.14 L 392.11,236.35 L 393.96,235.17 L 394.29,237.21 L 397.07,233.70 L 398.85,239.77 L 394.67,244.08 Z M 397.18,228.80 L 396.51,230.77 L 394.96,230.95 L 397.18,228.80 Z M 404.42,228.47 L 399.96,237.61 L 398.33,237.47 L 398.12,234.42 L 401.19,232.70 L 399.42,232.42 L 404.42,228.47 Z M 404.65,226.90 L 403.42,227.41 L 403.60,226.94 L 404.65,226.90 Z M 405.67,224.89 L 405.24,226.61 L 404.76,225.66 L 405.67,224.89 Z M 405.51,222.75 L 406.10,222.71 L 405.49,224.12 L 405.51,222.75 Z M 407.04,220.19 L 407.43,219.97 L 406.10,220.95 L 407.04,220.19 Z M 395.48,218.57 L 395.06,218.20 L 395.84,217.61 L 396.74,218.59 L 395.48,218.57 Z M 387.49,216.85 L 385.01,219.31 L 383.25,217.61 L 387.49,216.85 Z M 402.45,222.90 L 395.01,224.48 L 393.39,222.80 L 395.32,223.10 L 399.01,221.09 L 396.04,221.14 L 399.07,217.61 L 393.85,216.23 L 396.88,213.37 L 404.41,219.58 L 402.45,222.90 Z M 389.32,215.57 L 387.93,215.27 L 390.25,212.99 L 391.88,212.62 L 389.32,215.57 Z M 375.85,204.93 L 374.04,204.76 L 375.79,201.74 L 376.68,203.12 L 375.85,204.93 Z M 395.39,203.12 L 394.86,204.75 L 391.94,203.30 L 394.06,201.74 L 395.39,203.12 Z M 390.61,201.33 L 391.38,201.74 L 390.43,202.05 L 389.49,201.93 L 390.61,201.33 Z M 399.22,194.73 L 399.12,194.33 L 400.49,194.63 L 399.22,194.73 Z M 379.91,194.67 L 378.91,196.64 L 377.35,196.46 L 378.86,198.84 L 377.46,199.18 L 379.58,200.16 L 377.35,200.57 L 375.68,196.64 L 376.75,194.49 L 376.13,192.33 L 379.91,194.67 Z M 379.75,191.44 L 376.46,190.67 L 377.08,189.41 L 379.75,191.44 Z M 398.22,190.94 L 399.45,188.91 L 399.51,193.48 L 398.30,193.50 L 398.22,190.94 Z M 399.51,188.17 L 399.96,186.90 L 400.07,187.04 L 399.51,188.17 Z M 382.03,185.28 L 379.58,185.28 L 381.05,187.08 L 378.01,187.62 L 380.53,188.79 L 374.23,186.45 L 378.01,183.72 L 382.03,185.28 Z M 386.60,190.36 L 387.71,188.70 L 389.48,190.71 L 389.09,189.06 L 390.17,189.01 L 388.93,186.04 L 394.29,190.18 L 392.59,184.94 L 394.29,183.31 L 396.84,186.55 L 396.29,192.13 L 397.73,193.91 L 396.84,194.67 L 405.08,195.84 L 399.23,202.60 L 401.86,198.03 L 398.63,196.84 L 397.90,199.77 L 396.67,197.65 L 394.17,198.81 L 394.85,197.64 L 391.51,194.49 L 394.08,194.50 L 390.72,191.53 L 390.17,193.50 L 386.60,190.36 Z M 380.16,182.40 L 380.62,182.64 L 379.85,183.16 L 380.16,182.40 Z M 356.99,179.77 L 357.85,179.99 L 357.23,180.39 L 356.99,179.77 Z M 381.80,178.23 L 382.47,177.20 L 383.13,177.23 L 381.80,178.23 Z M 385.04,167.43 L 386.48,168.80 L 385.15,168.80 L 385.04,167.43 Z M 381.05,179.47 L 385.70,176.65 L 381.25,175.09 L 384.15,173.31 L 382.14,173.70 L 381.25,169.60 L 384.59,168.60 L 384.11,168.77 L 385.37,171.75 L 385.21,169.39 L 387.81,169.39 L 386.04,166.65 L 395.72,160.52 L 396.62,164.89 L 393.39,168.02 L 396.74,168.60 L 392.84,168.80 L 393.28,170.77 L 389.28,172.33 L 392.73,171.75 L 393.61,173.70 L 390.49,174.30 L 391.94,175.48 L 390.61,177.06 L 388.60,176.84 L 387.81,174.69 L 389.72,173.13 L 388.15,173.13 L 386.92,174.69 L 388.60,178.23 L 386.55,177.70 L 387.28,179.63 L 383.82,182.13 L 381.05,179.47 Z M 450.00,151.00 L 449.09,153.90 L 447.53,151.35 L 450.00,151.00 Z M 445.97,151.74 L 443.25,152.52 L 441.07,149.49 L 444.11,149.17 L 445.30,151.35 L 444.07,152.14 L 445.97,151.74 Z M 450.98,149.59 L 448.42,147.34 L 444.82,148.60 L 444.41,145.10 L 443.41,147.62 L 442.15,145.74 L 442.85,142.55 L 445.14,141.99 L 448.20,144.10 L 446.22,146.25 L 452.54,147.03 L 450.98,149.59 Z M 456.00,143.51 L 453.21,143.65 L 454.33,142.54 L 453.55,141.76 L 456.00,143.51 Z M 446.62,142.11 L 446.15,141.15 L 448.88,140.96 L 446.62,142.11 Z M 452.00,138.99 L 452.43,141.95 L 451.54,142.04 L 450.87,140.57 L 452.00,138.99 Z M 457.99,138.03 L 453.11,140.70 L 454.43,137.82 L 457.99,138.03 Z M 448.68,135.87 L 450.87,138.99 L 449.98,139.61 L 447.31,137.05 L 448.68,135.87 Z M 470.46,130.30 L 471.15,130.18 L 470.92,130.98 L 470.46,130.30 Z M 482.96,101.36 L 481.62,99.61 L 483.52,99.61 L 482.96,101.36 Z M 480.07,104.70 L 478.59,106.61 L 479.48,107.31 L 477.82,107.65 L 479.17,109.80 L 477.06,110.77 L 478.61,113.31 L 477.16,114.52 L 477.95,115.87 L 476.16,121.76 L 474.51,120.20 L 476.36,114.30 L 476.27,110.58 L 473.94,110.19 L 474.94,111.55 L 473.22,113.12 L 472.44,110.63 L 470.47,111.38 L 469.40,109.43 L 474.71,109.40 L 476.39,107.43 L 474.20,106.44 L 473.38,103.51 L 470.72,103.76 L 472.06,101.66 L 473.23,103.03 L 474.38,102.94 L 472.82,102.16 L 475.72,99.20 L 474.61,106.09 L 477.09,103.35 L 478.16,105.27 L 477.04,105.89 L 480.07,104.70 Z M 480.73,99.41 L 479.61,98.63 L 480.24,103.20 L 478.12,103.05 L 478.77,97.14 L 480.83,97.63 L 480.73,99.41 Z M 481.17,97.85 L 481.62,94.70 L 484.33,93.75 L 483.52,98.00 L 481.17,97.85 Z M 394.72,405.87 L 394.51,406.25 L 394.32,406.13 L 394.72,405.87 Z M 394.04,405.12 L 393.94,405.33 L 393.67,404.68 L 394.04,405.12 Z M 421.07,370.34 L 420.96,370.48 L 420.86,369.53 L 421.07,370.34 Z M 274.33,186.31 L 274.37,186.33 L 274.36,186.36 L 274.33,186.31 Z M 475.20,116.34 L 474.64,116.31 L 475.00,114.47 L 475.20,116.34 Z M 463.34,114.22 L 462.54,113.64 L 462.94,113.14 L 463.34,114.22 Z M 479.26,114.58 L 478.43,112.48 L 479.33,112.20 L 479.26,114.58 Z M 481.01,107.86 L 480.07,107.86 L 480.52,107.04 L 481.95,106.54 L 481.01,107.86 Z" fill="#4A90D9" stroke="#1a5fa8" stroke-width="1.2"/>
<path d="M 395.34,268.75 L 394.20,271.73 L 395.00,272.55 L 393.08,275.36 L 389.54,274.17 L 390.85,268.75 L 395.34,268.75 Z" fill="#A8C8E8" stroke="none"/>
<path d="M 423.44,196.68 L 420.85,199.16 L 424.66,193.98 L 426.33,192.26 L 423.44,196.68 Z" fill="#A8C8E8" stroke="none"/>
<path d="M 362.08,320.72 L 359.53,323.09 L 358.74,320.72 L 364.10,315.69 L 362.08,320.72 Z" fill="#A8C8E8" stroke="none"/>
<path d="M 366.87,293.02 L 366.73,292.67 L 367.87,293.49 L 366.87,293.02 Z" fill="#A8C8E8" stroke="none"/>
<path d="M 368.54,304.65 L 367.20,304.64 L 365.87,299.56 L 369.00,301.80 L 368.54,304.65 Z" fill="#A8C8E8" stroke="none"/>
<path d="M 365.21,284.85 L 366.32,284.46 L 366.44,286.44 L 365.21,284.85 Z" fill="#A8C8E8" stroke="none"/>
<path d="M 416.02,205.02 L 417.80,203.04 L 418.27,203.12 L 416.02,205.02 Z" fill="#A8C8E8" stroke="none"/>
<path d="M 375.12,284.86 L 373.12,281.92 L 374.13,281.32 L 375.12,284.86 Z" fill="#A8C8E8" stroke="none"/>
<path d="M 598.69,307.78 L 596.80,307.69 L 597.42,306.20 L 598.69,307.78 Z" fill="#A8C8E8" stroke="none"/>
<path d="M 592.15,332.77 L 591.18,334.35 L 586.83,338.78 L 584.74,339.09 L 577.64,335.84 L 579.65,333.88 L 578.97,328.09 L 583.10,326.23 L 580.38,324.64 L 578.88,319.74 L 584.21,315.64 L 584.16,321.32 L 589.89,322.50 L 588.11,324.27 L 587.88,327.30 L 591.83,329.17 L 592.31,331.00 L 592.15,332.77 Z M 588.79,328.96 L 580.32,335.42 L 586.11,338.56 L 592.11,331.96 L 588.79,328.96 Z" fill="#A8C8E8" stroke="none"/>
</svg>