<svg xmlns="http://www.w3.org/2000/svg" width="800" height="500" viewBox="0 0 800 500">
<rect width="800" height="500" fill="#A8C8E8"/>
<path d="M 162.50,489.74 L 316.31,497.30 L 363.40,488.77 L 348.97,500.00 L 155.71,500.00 L 155.71,491.62 L 162.50,489.74 Z" fill="#E8E0D0" stroke="#B8B0A0" stroke-width="0.5"/>
<path d="M 492.24,500.00 L 404.20,500.00 L 390.61,494.11 L 506.69,473.74 L 492.19,495.26 L 492.24,500.00 Z M 563.83,406.65 L 515.82,422.67 L 541.19,401.97 L 564.22,393.44 L 563.83,406.65 Z" fill="#E8E0D0" stroke="#B8B0A0" stroke-width="0.5"/>
<path d="M 455.52,139.73 L 450.21,137.59 L 461.77,127.79 L 455.52,139.73 Z M 449.88,102.06 L 463.97,76.35 L 473.61,87.62 L 466.98,112.97 L 449.88,102.06 Z M 427.40,199.56 L 422.92,200.46 L 422.98,197.18 L 427.40,199.56 Z M 442.40,182.75 L 438.62,183.21 L 441.33,178.41 L 442.40,182.75 Z M 464.57,153.99 L 465.82,154.26 L 463.89,158.23 L 464.57,153.99 Z" fill="#E8E0D0" stroke="#B8B0A0" stroke-width="0.5"/>
<path d="M 508.99,5.60 L 499.40,24.12 L 481.77,0.00 L 508.18,0.00 L 508.99,5.60 Z" fill="#E8E0D0" stroke="#B8B0A0" stroke-width="0.5"/>
<path d="M 396.10,285.15 L 371.84,290.73 L 390.02,255.15 L 398.95,258.54 L 396.10,285.15 Z M 416.77,223.23 L 427.18,209.27 L 428.16,211.82 L 416.77,223.23 Z" fill="#4A90D9" stroke="#1a5fa8" stroke-width="1.2"/>
</svg>