<svg xmlns="http://www.w3.org/2000/svg" width="800" height="500" viewBox="0 0 800 500">
<rect width="800" height="500" fill="#A8C8E8"/>
<path d="M 11.11,489.74 L 262.97,497.30 L 340.07,488.77 L 316.45,500.00 L 0.00,500.00 L 0.00,491.62 L 11.11,489.74 Z" fill="#E8E0D0" stroke="#B8B0A0" stroke-width="0.5"/>
<path d="M 551.03,500.00 L 406.88,500.00 L 384.62,494.11 L 574.69,473.74 L 550.95,495.26 L 551.03,500.00 Z M 668.26,406.65 L 589.64,422.67 L 631.19,401.97 L 668.89,393.44 L 668.26,406.65 Z" fill="#E8E0D0" stroke="#B8B0A0" stroke-width="0.5"/>
<path d="M 490.91,139.73 L 482.21,137.59 L 501.15,127.79 L 490.91,139.73 Z M 481.68,102.06 L 504.74,76.35 L 520.53,87.62 L 509.68,112.97 L 481.68,102.06 Z M 444.86,199.56 L 437.54,200.46 L 437.63,197.18 L 444.86,199.56 Z M 469.43,182.75 L 463.24,183.21 L 467.68,178.41 L 469.43,182.75 Z M 505.72,153.99 L 507.78,154.26 L 504.61,158.23 L 505.72,153.99 Z" fill="#E8E0D0" stroke="#B8B0A0" stroke-width="0.5"/>
<path d="M 578.47,5.60 L 562.75,24.12 L 533.89,0.00 L 577.14,0.00 L 578.47,5.60 Z" fill="#E8E0D0" stroke="#B8B0A0" stroke-width="0.5"/>
<path d="M 393.62,285.15 L 353.89,290.73 L 383.65,255.15 L 398.28,258.54 L 393.62,285.15 Z M 427.46,223.23 L 444.50,209.27 L 446.11,211.82 L 427.46,223.23 Z" fill="#4A90D9" stroke="#1a5fa8" stroke-width="1.2"/>
</svg>