<svg xmlns="http://www.w3.org/2000/svg" width="800" height="500" viewBox="0 0 800 500">
<rect width="800" height="500" fill="#A8C8E8"/>
<path d="M 526.29,360.21 L 538.58,365.75 L 528.91,373.87 L 554.92,378.38 L 568.34,393.96 L 551.54,412.84 L 562.90,436.44 L 585.48,451.09 L 423.46,451.09 L 416.33,432.73 L 427.34,419.22 L 428.34,404.01 L 407.46,369.39 L 462.60,356.96 L 512.34,359.08 L 510.33,352.58 L 523.87,350.86 L 526.29,360.21 Z M 521.23,375.61 L 524.86,377.78 L 525.10,372.58 L 521.23,375.61 Z M 540.12,382.23 L 536.89,380.75 L 537.61,383.06 L 540.12,382.23 Z M 559.41,415.36 L 565.48,415.62 L 564.47,418.25 L 559.41,415.36 Z" fill="#C8D8E8" stroke="#8BAABB" stroke-width="0.8"/>
<path d="M 525.10,372.58 L 524.86,377.78 L 521.23,375.61 L 525.10,372.58 Z M 542.29,335.34 L 558.33,336.78 L 579.14,346.34 L 574.81,350.28 L 584.86,359.09 L 613.91,359.96 L 635.24,375.61 L 644.51,368.58 L 649.53,351.48 L 621.62,330.38 L 611.63,314.12 L 612.30,305.55 L 621.60,303.89 L 630.33,290.41 L 638.73,292.04 L 640.52,300.87 L 653.43,294.36 L 674.76,324.01 L 683.28,324.47 L 692.75,349.62 L 734.51,360.13 L 751.26,333.65 L 776.57,319.79 L 790.42,294.96 L 800.00,307.00 L 800.00,451.09 L 585.48,451.09 L 562.90,436.44 L 551.54,412.84 L 568.34,393.96 L 554.92,378.38 L 528.91,373.87 L 538.58,365.75 L 526.29,360.21 L 523.87,350.86 L 542.29,335.34 Z M 564.47,418.25 L 565.48,415.62 L 559.41,415.36 L 564.47,418.25 Z M 537.61,383.06 L 536.89,380.75 L 540.12,382.23 L 537.61,383.06 Z" fill="#C8D8E8" stroke="#8BAABB" stroke-width="0.8"/>
<path d="M 681.86,55.43 L 691.08,56.51 L 710.22,99.94 L 700.00,116.09 L 702.88,127.10 L 713.32,91.45 L 725.03,90.52 L 709.33,131.99 L 709.52,148.77 L 716.40,148.44 L 708.96,157.18 L 707.17,176.52 L 724.77,192.01 L 726.95,212.60 L 754.43,244.13 L 776.10,285.70 L 790.42,294.96 L 774.86,321.67 L 751.26,333.65 L 737.67,359.15 L 713.54,359.40 L 692.75,349.62 L 683.28,324.47 L 674.76,324.01 L 653.43,294.36 L 640.52,300.87 L 637.38,291.23 L 593.31,276.50 L 570.75,259.10 L 575.76,228.23 L 547.74,225.96 L 532.85,208.62 L 513.21,202.85 L 506.81,217.95 L 499.80,206.46 L 487.03,203.78 L 444.67,223.74 L 428.48,216.42 L 434.30,204.17 L 386.23,184.43 L 361.94,161.62 L 268.62,156.93 L 199.63,124.32 L 168.42,120.61 L 156.47,123.10 L 148.26,139.06 L 58.50,50.30 L 53.60,48.91 L 678.45,48.91 L 681.86,55.43 Z M 729.61,85.08 L 719.56,81.64 L 722.36,78.25 L 736.18,77.95 L 729.61,85.08 Z" fill="#C8D8E8" stroke="#8BAABB" stroke-width="0.8"/>
<path d="M 428.34,404.01 L 427.34,419.22 L 416.33,432.73 L 423.46,451.09 L 0.00,451.09 L 0.00,383.08 L 26.65,388.40 L 108.58,368.79 L 161.68,387.90 L 254.67,341.91 L 264.39,328.32 L 286.16,337.63 L 296.22,329.19 L 334.61,336.62 L 349.37,320.86 L 361.21,322.46 L 357.23,329.31 L 388.35,350.00 L 382.32,355.06 L 403.20,361.26 L 428.34,404.01 Z" fill="#C8D8E8" stroke="#8BAABB" stroke-width="0.8"/>
<path d="M 257.20,204.83 L 236.77,199.21 L 227.30,179.63 L 214.84,172.27 L 176.02,164.43 L 167.37,146.48 L 150.00,139.43 L 155.46,124.70 L 199.63,124.32 L 268.62,156.93 L 361.94,161.62 L 386.23,184.43 L 434.30,204.17 L 428.48,216.42 L 444.67,223.74 L 487.03,203.78 L 499.80,206.46 L 506.81,217.95 L 513.21,202.85 L 535.27,209.53 L 547.74,225.96 L 578.81,231.87 L 570.75,259.10 L 594.31,277.06 L 628.52,287.93 L 622.69,302.91 L 612.30,305.55 L 612.58,318.65 L 650.00,352.94 L 643.07,370.65 L 633.61,375.68 L 615.25,360.44 L 595.92,363.17 L 576.59,353.15 L 579.14,346.34 L 544.68,334.49 L 520.35,353.66 L 510.33,352.58 L 512.34,359.08 L 462.60,356.96 L 408.20,369.58 L 403.20,361.26 L 382.32,355.06 L 388.35,350.00 L 357.23,329.31 L 359.79,321.77 L 343.72,321.81 L 334.61,336.62 L 296.22,329.19 L 286.16,337.63 L 264.39,328.32 L 283.25,297.35 L 257.20,204.83 Z" fill="#4A90D9" stroke="#1a5fa8" stroke-width="1.2"/>
<path d="M 520.74,428.52 L 522.06,418.02 L 553.96,433.71 L 566.26,451.09 L 541.55,451.09 L 539.13,440.59 L 520.74,428.52 Z" fill="#A8C8E8" stroke="none"/>
<path d="M 644.23,389.52 L 623.39,390.23 L 637.23,382.61 L 631.07,375.05 L 644.63,373.54 L 684.64,402.99 L 644.23,389.52 Z" fill="#A8C8E8" stroke="none"/>
</svg>