<svg xmlns="http://www.w3.org/2000/svg" width="800" height="500" viewBox="0 0 800 500">
<rect width="800" height="500" fill="#A8C8E8"/>
<path d="M 526.29,387.01 L 538.58,393.91 L 528.91,404.00 L 554.92,409.60 L 568.34,428.98 L 551.54,452.45 L 562.90,481.79 L 585.48,500.00 L 423.46,500.00 L 416.33,477.17 L 427.34,460.38 L 428.34,441.48 L 407.46,398.42 L 462.60,382.97 L 512.34,385.61 L 510.33,377.54 L 523.87,375.39 L 526.29,387.01 Z M 521.23,406.16 L 524.86,408.87 L 525.10,402.39 L 521.23,406.16 Z M 540.12,414.40 L 536.89,412.55 L 537.61,415.43 L 540.12,414.40 Z M 559.41,455.59 L 565.48,455.91 L 564.47,459.18 L 559.41,455.59 Z" fill="#C8D8E8" stroke="#8BAABB" stroke-width="0.8"/>
<path d="M 525.10,402.39 L 524.86,408.87 L 521.23,406.16 L 525.10,402.39 Z M 542.29,356.10 L 558.33,357.89 L 579.14,369.77 L 574.81,374.67 L 584.86,385.62 L 613.91,386.70 L 635.24,406.16 L 644.51,397.42 L 649.53,376.16 L 621.62,349.93 L 611.63,329.71 L 612.30,319.07 L 621.60,317.00 L 630.33,300.24 L 638.73,302.26 L 640.52,313.24 L 653.43,305.15 L 674.76,342.01 L 683.28,342.58 L 692.75,373.85 L 734.51,386.92 L 751.26,353.99 L 776.57,336.76 L 790.42,305.90 L 800.00,320.86 L 800.00,500.00 L 585.48,500.00 L 562.90,481.79 L 551.54,452.45 L 568.34,428.98 L 554.92,409.60 L 528.91,404.00 L 538.58,393.91 L 526.29,387.01 L 523.87,375.39 L 542.29,356.10 Z M 564.47,459.18 L 565.48,455.91 L 559.41,455.59 L 564.47,459.18 Z M 537.61,415.43 L 536.89,412.55 L 540.12,414.40 L 537.61,415.43 Z" fill="#C8D8E8" stroke="#8BAABB" stroke-width="0.8"/>
<path d="M 681.86,8.10 L 691.08,9.45 L 710.22,63.44 L 700.00,83.52 L 702.88,97.21 L 713.32,52.88 L 725.03,51.72 L 709.33,103.29 L 709.52,124.14 L 716.40,123.74 L 708.96,134.60 L 707.17,158.65 L 724.77,177.90 L 726.95,203.50 L 754.43,242.70 L 776.10,294.38 L 790.42,305.90 L 774.86,339.11 L 751.26,353.99 L 737.67,385.70 L 713.54,386.02 L 692.75,373.85 L 683.28,342.58 L 674.76,342.01 L 653.43,305.15 L 640.52,313.24 L 637.38,301.26 L 593.31,282.95 L 570.75,261.32 L 575.76,222.94 L 547.74,220.12 L 532.85,198.55 L 513.21,191.38 L 506.81,210.15 L 499.80,195.87 L 487.03,192.54 L 444.67,217.35 L 428.48,208.25 L 434.30,193.02 L 386.23,168.48 L 361.94,140.12 L 268.62,134.29 L 199.63,93.75 L 168.42,89.14 L 156.47,92.24 L 148.26,112.08 L 58.50,1.73 L 53.60,0.00 L 678.45,0.00 L 681.86,8.10 Z M 729.61,44.97 L 719.56,40.69 L 722.36,36.47 L 736.18,36.10 L 729.61,44.97 Z" fill="#C8D8E8" stroke="#8BAABB" stroke-width="0.8"/>
<path d="M 428.34,441.48 L 427.34,460.38 L 416.33,477.17 L 423.46,500.00 L 0.00,500.00 L 0.00,415.45 L 26.65,422.06 L 108.58,397.68 L 161.68,421.45 L 254.67,364.26 L 264.39,347.36 L 286.16,358.94 L 296.22,348.45 L 334.61,357.68 L 349.37,338.09 L 361.21,340.08 L 357.23,348.60 L 388.35,374.33 L 382.32,380.61 L 403.20,388.33 L 428.34,441.48 Z" fill="#C8D8E8" stroke="#8BAABB" stroke-width="0.8"/>
<path d="M 257.20,193.84 L 236.77,186.86 L 227.30,162.52 L 214.84,153.36 L 176.02,143.62 L 167.37,121.30 L 150.00,112.54 L 155.46,94.22 L 199.63,93.75 L 268.62,134.29 L 361.94,140.12 L 386.23,168.48 L 434.30,193.02 L 428.48,208.25 L 444.67,217.35 L 487.03,192.54 L 499.80,195.87 L 506.81,210.15 L 513.21,191.38 L 535.27,199.68 L 547.74,220.12 L 578.81,227.46 L 570.75,261.32 L 594.31,283.65 L 628.52,297.16 L 622.69,315.78 L 612.30,319.07 L 612.58,335.35 L 650.00,377.98 L 643.07,400.00 L 633.61,406.25 L 615.25,387.30 L 595.92,390.70 L 576.59,378.24 L 579.14,369.77 L 544.68,355.04 L 520.35,378.87 L 510.33,377.54 L 512.34,385.61 L 462.60,382.97 L 408.20,398.66 L 403.20,388.33 L 382.32,380.61 L 388.35,374.33 L 357.23,348.60 L 359.79,339.22 L 343.72,339.28 L 334.61,357.68 L 296.22,348.45 L 286.16,358.94 L 264.39,347.36 L 283.25,308.86 L 257.20,193.84 Z" fill="#4A90D9" stroke="#1a5fa8" stroke-width="1.2"/>
<path d="M 520.74,471.95 L 522.06,458.89 L 553.96,478.40 L 566.26,500.00 L 541.55,500.00 L 539.13,486.95 L 520.74,471.95 Z" fill="#A8C8E8" stroke="none"/>
<path d="M 644.23,423.46 L 623.39,424.34 L 637.23,414.87 L 631.07,405.47 L 644.63,403.59 L 684.64,440.20 L 644.23,423.46 Z" fill="#A8C8E8" stroke="none"/>
</svg>