<svg xmlns="http://www.w3.org/2000/svg" width="800" height="500" viewBox="0 0 800 500">
<rect width="800" height="500" fill="#A8C8E8"/>
<path d="M 243.60,380.14 L 255.99,396.26 L 260.21,380.08 L 283.04,387.96 L 290.09,363.09 L 319.02,358.35 L 319.96,370.56 L 333.04,358.51 L 329.59,375.90 L 341.48,366.29 L 374.49,415.11 L 411.61,385.49 L 410.17,396.26 L 421.99,403.73 L 438.34,393.07 L 445.64,414.40 L 440.73,394.14 L 449.15,385.49 L 459.48,383.37 L 464.32,398.41 L 508.85,394.14 L 488.88,377.90 L 483.88,361.93 L 493.51,333.13 L 484.83,333.86 L 483.12,304.66 L 489.41,303.16 L 462.24,278.44 L 455.33,255.44 L 459.91,241.55 L 450.21,225.25 L 483.50,236.82 L 518.33,229.72 L 521.90,240.88 L 513.95,251.19 L 532.53,284.42 L 551.02,277.10 L 562.14,279.77 L 562.14,500.00 L 237.86,500.00 L 237.86,381.69 L 243.60,380.14 Z" fill="#E8E0D0" stroke="#B8B0A0" stroke-width="0.5"/>
<path d="M 551.15,50.39 L 542.88,50.32 L 536.60,60.12 L 537.98,50.32 L 528.29,50.32 L 529.67,60.05 L 497.72,38.68 L 512.83,57.11 L 488.11,69.80 L 439.70,66.53 L 435.27,72.93 L 448.43,76.43 L 447.17,88.05 L 403.28,81.27 L 397.70,99.70 L 356.00,67.49 L 305.00,85.72 L 295.24,76.12 L 292.91,110.36 L 285.93,114.63 L 292.91,118.90 L 275.36,147.61 L 237.86,135.96 L 237.86,0.00 L 562.14,0.00 L 562.14,63.25 L 551.15,50.39 Z M 516.69,91.13 L 487.27,79.33 L 512.71,61.49 L 536.60,70.69 L 516.69,91.13 Z M 551.18,60.12 L 542.88,58.96 L 547.76,52.49 L 551.18,60.12 Z" fill="#E8E0D0" stroke="#B8B0A0" stroke-width="0.5"/>
<path d="M 441.16,311.62 L 419.97,309.56 L 419.21,297.73 L 435.27,297.73 L 441.16,311.62 Z" fill="#E8E0D0" stroke="#B8B0A0" stroke-width="0.5"/>
<path d="M 392.80,259.23 L 388.72,271.07 L 375.40,270.66 L 392.80,259.23 Z M 407.73,271.55 L 405.33,273.90 L 405.59,270.35 L 407.73,271.55 Z M 424.60,227.36 L 420.72,227.80 L 421.50,226.10 L 424.60,227.36 Z M 398.53,264.24 L 397.70,266.18 L 397.53,264.17 L 398.53,264.24 Z" fill="#4A90D9" stroke="#1a5fa8" stroke-width="1.2"/>
</svg>