<svg xmlns="http://www.w3.org/2000/svg" width="800" height="500" viewBox="0 0 800 500">
<rect width="800" height="500" fill="#A8C8E8"/>
<path d="M 14.17,380.14 L 44.74,396.26 L 55.14,380.08 L 111.47,387.96 L 128.85,363.09 L 200.24,358.35 L 202.54,370.56 L 234.80,358.51 L 226.30,375.90 L 255.63,366.29 L 337.08,415.11 L 428.65,385.49 L 425.09,396.26 L 454.24,403.73 L 494.58,393.07 L 512.59,414.40 L 500.49,394.14 L 521.26,385.49 L 546.73,383.37 L 558.67,398.41 L 668.53,394.14 L 619.26,377.90 L 606.93,361.93 L 630.68,333.13 L 609.27,333.86 L 605.06,304.66 L 620.57,303.16 L 553.55,278.44 L 536.50,255.44 L 547.79,241.55 L 523.87,225.25 L 606.00,236.82 L 691.91,229.72 L 700.73,240.88 L 681.10,251.19 L 726.95,284.42 L 772.56,277.10 L 800.00,279.77 L 800.00,500.00 L 0.00,500.00 L 0.00,381.69 L 14.17,380.14 Z" fill="#E8E0D0" stroke="#B8B0A0" stroke-width="0.5"/>
<path d="M 772.87,50.39 L 752.48,50.32 L 736.98,60.12 L 740.38,50.32 L 716.49,50.32 L 719.89,60.05 L 641.06,38.68 L 678.35,57.11 L 617.37,69.80 L 497.93,66.53 L 487.00,72.93 L 519.47,76.43 L 516.37,88.05 L 408.08,81.27 L 394.33,99.70 L 291.46,67.49 L 165.63,85.72 L 141.56,76.12 L 135.80,110.36 L 118.60,114.63 L 135.80,118.90 L 92.51,147.61 L 0.00,135.96 L 0.00,0.00 L 800.00,0.00 L 800.00,63.25 L 772.87,50.39 Z M 687.87,91.13 L 615.30,79.33 L 678.04,61.49 L 736.98,70.69 L 687.87,91.13 Z M 772.96,60.12 L 752.48,58.96 L 764.53,52.49 L 772.96,60.12 Z" fill="#E8E0D0" stroke="#B8B0A0" stroke-width="0.5"/>
<path d="M 501.54,311.62 L 449.26,309.56 L 447.39,297.73 L 487.00,297.73 L 501.54,311.62 Z" fill="#E8E0D0" stroke="#B8B0A0" stroke-width="0.5"/>
<path d="M 382.24,259.23 L 372.17,271.07 L 339.31,270.66 L 382.24,259.23 Z M 419.07,271.55 L 413.15,273.90 L 413.80,270.35 L 419.07,271.55 Z M 460.69,227.36 L 451.11,227.80 L 453.04,226.10 L 460.69,227.36 Z M 396.36,264.24 L 394.33,266.18 L 393.90,264.17 L 396.36,264.24 Z" fill="#4A90D9" stroke="#1a5fa8" stroke-width="1.2"/>
</svg>