<svg xmlns="http://www.w3.org/2000/svg" width="800" height="500" viewBox="0 0 800 500">
<rect width="800" height="500" fill="#A8C8E8"/>
<path d="M 280.41,444.53 L 326.46,303.92 L 393.14,281.45 L 412.00,334.56 L 435.12,360.68 L 472.44,388.25 L 522.23,402.18 L 579.87,384.22 L 596.51,393.22 L 601.93,386.99 L 601.93,500.00 L 252.18,500.00 L 280.41,444.53 Z" fill="#E8E0D0" stroke="#B8B0A0" stroke-width="0.5"/>
<path d="M 395.72,288.14 L 393.14,281.45 L 407.75,283.46 L 395.72,288.14 Z M 518.80,156.55 L 486.48,190.34 L 419.94,205.41 L 400.72,247.61 L 389.79,241.57 L 388.12,259.84 L 366.27,268.65 L 312.63,240.05 L 278.15,186.20 L 288.06,195.80 L 294.64,189.42 L 267.46,170.14 L 262.58,152.28 L 273.65,145.44 L 274.59,131.57 L 289.10,128.67 L 292.69,124.01 L 273.77,128.83 L 268.30,143.38 L 254.22,119.71 L 204.58,87.38 L 209.66,67.28 L 198.07,75.30 L 198.07,0.00 L 601.93,0.00 L 601.93,154.61 L 518.80,156.55 Z M 200.10,86.48 L 198.07,86.37 L 198.07,81.95 L 200.10,86.48 Z M 531.99,398.94 L 532.22,398.99 L 531.59,398.93 L 531.99,398.94 Z M 582.01,392.17 L 582.06,392.24 L 581.99,392.35 L 582.01,392.17 Z M 582.31,391.87 L 582.33,391.96 L 582.14,391.95 L 582.31,391.87 Z M 390.98,283.17 L 390.74,283.58 L 390.37,283.05 L 390.98,283.17 Z" fill="#C8D8E8" stroke="#8BAABB" stroke-width="0.8"/>
<path d="M 400.72,247.61 L 400.31,252.39 L 399.28,251.02 L 400.72,247.61 Z" fill="#4A90D9" stroke="#1a5fa8" stroke-width="1.2"/>
</svg>