<svg xmlns="http://www.w3.org/2000/svg" width="800" height="500" viewBox="0 0 800 500">
<rect width="800" height="500" fill="#A8C8E8"/>
<path d="M 665.74,474.96 L 624.46,451.71 L 646.46,432.09 L 670.54,429.62 L 665.02,370.17 L 773.26,376.03 L 777.32,401.60 L 800.00,391.75 L 800.00,500.00 L 665.19,500.00 L 665.74,474.96 Z" fill="#E8E0D0" stroke="#B8B0A0" stroke-width="0.5"/>
<path d="M 670.54,429.62 L 646.46,432.09 L 624.46,451.71 L 665.74,474.96 L 665.19,500.00 L 445.95,500.00 L 442.18,497.15 L 452.64,478.77 L 418.12,489.51 L 383.04,481.46 L 345.62,500.00 L 329.64,500.00 L 331.92,497.56 L 321.73,493.29 L 313.99,500.00 L 301.64,500.00 L 310.14,479.73 L 334.19,480.48 L 335.32,472.92 L 310.38,470.78 L 267.09,493.29 L 228.81,461.74 L 277.29,420.54 L 211.79,448.52 L 166.82,423.43 L 250.85,404.29 L 341.41,406.75 L 421.44,369.23 L 665.02,370.17 L 670.54,429.62 Z M 380.99,493.29 L 422.42,495.51 L 438.91,484.74 L 441.34,500.00 L 375.71,500.00 L 380.99,493.29 Z M 281.64,491.13 L 290.17,492.98 L 287.02,500.00 L 265.39,500.00 L 260.29,495.51 L 281.64,491.13 Z" fill="#E8E0D0" stroke="#B8B0A0" stroke-width="0.5"/>
<path d="M 777.32,401.60 L 770.73,375.67 L 421.44,369.23 L 341.41,406.75 L 250.85,404.29 L 166.82,423.43 L 154.80,398.13 L 191.51,376.52 L 199.22,387.06 L 226.18,389.42 L 282.83,376.49 L 314.35,388.35 L 332.68,382.97 L 346.77,391.44 L 369.17,376.04 L 365.01,353.04 L 386.28,350.44 L 388.81,344.42 L 362.59,351.27 L 363.76,373.92 L 347.39,387.97 L 326.36,377.67 L 302.17,381.45 L 284.10,361.49 L 275.02,375.55 L 226.18,387.18 L 204.53,364.78 L 203.39,377.67 L 182.39,370.80 L 189.68,356.32 L 188.66,350.81 L 180.30,376.60 L 162.47,385.98 L 158.74,369.45 L 171.71,360.33 L 155.56,363.62 L 154.44,348.20 L 170.14,294.66 L 315.46,294.63 L 317.89,267.03 L 407.83,259.72 L 430.98,226.96 L 558.65,282.31 L 636.41,269.99 L 650.00,252.05 L 621.81,228.65 L 559.19,248.07 L 529.79,219.01 L 496.86,222.98 L 473.89,197.17 L 441.17,191.18 L 388.40,198.59 L 367.79,228.03 L 194.55,227.43 L 203.27,203.48 L 188.33,216.92 L 183.20,200.31 L 195.36,187.01 L 206.90,193.42 L 206.90,162.48 L 171.53,198.98 L 163.76,170.49 L 192.06,164.62 L 189.68,156.08 L 227.21,136.67 L 209.94,132.60 L 179.15,162.46 L 168.04,160.34 L 179.47,147.34 L 166.91,152.78 L 159.07,188.08 L 157.26,153.56 L 128.94,101.93 L 84.51,55.01 L 52.41,47.62 L 48.69,60.74 L 32.71,44.55 L 93.00,22.14 L 113.87,0.00 L 800.00,0.00 L 800.00,391.75 L 777.32,401.60 Z" fill="#C8D8E8" stroke="#8BAABB" stroke-width="0.8"/>
<path d="M 150.00,266.25 L 175.05,241.61 L 218.13,286.61 L 214.72,275.95 L 244.94,268.37 L 249.98,279.14 L 252.96,279.90 L 262.66,275.95 L 250.06,267.00 L 261.01,252.16 L 350.74,248.07 L 363.59,239.50 L 397.28,250.26 L 403.22,248.00 L 404.89,241.61 L 361.49,236.59 L 264.27,248.11 L 222.93,266.51 L 201.12,263.04 L 194.55,227.43 L 367.79,228.03 L 388.40,198.59 L 437.61,191.02 L 473.89,197.17 L 496.86,222.98 L 529.79,219.01 L 559.19,248.07 L 621.81,228.65 L 650.00,252.05 L 636.41,269.99 L 558.65,282.31 L 430.98,226.96 L 407.83,259.72 L 317.89,267.03 L 315.46,294.63 L 175.93,293.47 L 162.63,308.98 L 150.00,266.25 Z" fill="#4A90D9" stroke="#1a5fa8" stroke-width="1.2"/>
</svg>