<svg xmlns="http://www.w3.org/2000/svg" width="800" height="500" viewBox="0 0 800 500">
<rect width="800" height="500" fill="#A8C8E8"/>
<path d="M 643.19,474.96 L 605.41,451.71 L 625.55,432.09 L 647.59,429.62 L 642.53,370.17 L 741.59,376.03 L 745.31,401.60 L 766.06,391.75 L 766.06,500.00 L 642.69,500.00 L 643.19,474.96 Z" fill="#E8E0D0" stroke="#B8B0A0" stroke-width="0.5"/>
<path d="M 647.59,429.62 L 625.55,432.09 L 605.41,451.71 L 643.19,474.96 L 642.69,500.00 L 442.06,500.00 L 438.60,497.15 L 448.17,478.77 L 416.58,489.51 L 384.48,481.46 L 350.24,500.00 L 335.61,500.00 L 337.69,497.56 L 328.37,493.29 L 321.29,500.00 L 309.99,500.00 L 317.76,479.73 L 339.77,480.48 L 340.81,472.92 L 317.99,470.78 L 278.37,493.29 L 243.33,461.74 L 287.70,420.54 L 227.75,448.52 L 186.60,423.43 L 263.50,404.29 L 346.38,406.75 L 419.62,369.23 L 642.53,370.17 L 647.59,429.62 Z M 382.60,493.29 L 420.52,495.51 L 435.61,484.74 L 437.83,500.00 L 377.77,500.00 L 382.60,493.29 Z M 291.68,491.13 L 299.49,492.98 L 296.61,500.00 L 276.82,500.00 L 272.15,495.51 L 291.68,491.13 Z" fill="#E8E0D0" stroke="#B8B0A0" stroke-width="0.5"/>
<path d="M 745.31,401.60 L 739.27,375.67 L 419.62,369.23 L 346.38,406.75 L 263.50,404.29 L 186.60,423.43 L 175.61,398.13 L 209.20,376.52 L 216.25,387.06 L 240.93,389.42 L 292.78,376.49 L 321.62,388.35 L 338.39,382.97 L 351.29,391.44 L 371.79,376.04 L 367.98,353.04 L 387.45,350.44 L 389.76,344.42 L 365.77,351.27 L 366.83,373.92 L 351.85,387.97 L 332.60,377.67 L 310.47,381.45 L 293.94,361.49 L 285.63,375.55 L 240.93,387.18 L 221.11,364.78 L 220.07,377.67 L 200.85,370.80 L 207.53,356.32 L 206.59,350.81 L 198.94,376.60 L 182.62,385.98 L 179.21,369.45 L 191.08,360.33 L 176.30,363.62 L 175.27,348.20 L 189.64,294.66 L 322.63,294.63 L 324.85,267.03 L 407.16,259.72 L 428.35,226.96 L 545.19,282.31 L 616.35,269.99 L 628.79,252.05 L 602.99,228.65 L 545.69,248.07 L 518.78,219.01 L 488.64,222.98 L 467.62,197.17 L 437.67,191.18 L 389.38,198.59 L 370.52,228.03 L 211.98,227.43 L 219.96,203.48 L 206.29,216.92 L 201.60,200.31 L 212.72,187.01 L 223.28,193.42 L 223.28,162.48 L 190.91,198.98 L 183.81,170.49 L 209.70,164.62 L 207.53,156.08 L 241.87,136.67 L 226.07,132.60 L 197.89,162.46 L 187.72,160.34 L 198.18,147.34 L 186.68,152.78 L 179.52,188.08 L 177.85,153.56 L 151.94,101.93 L 111.27,55.01 L 81.90,47.62 L 78.49,60.74 L 63.87,44.55 L 119.05,22.14 L 138.14,0.00 L 766.06,0.00 L 766.06,391.75 L 745.31,401.60 Z" fill="#C8D8E8" stroke="#8BAABB" stroke-width="0.8"/>
<path d="M 171.21,266.25 L 194.14,241.61 L 233.56,286.61 L 230.44,275.95 L 258.10,268.37 L 262.71,279.14 L 265.43,279.90 L 274.31,275.95 L 262.78,267.00 L 272.80,252.16 L 354.92,248.07 L 366.68,239.50 L 397.51,250.26 L 402.95,248.00 L 404.48,241.61 L 364.75,236.59 L 275.78,248.11 L 237.95,266.51 L 218.00,263.04 L 211.98,227.43 L 370.52,228.03 L 389.38,198.59 L 434.42,191.02 L 467.62,197.17 L 488.64,222.98 L 518.78,219.01 L 545.69,248.07 L 602.99,228.65 L 628.79,252.05 L 616.35,269.99 L 545.19,282.31 L 428.35,226.96 L 407.16,259.72 L 324.85,267.03 L 322.63,294.63 L 194.95,293.47 L 182.77,308.98 L 171.21,266.25 Z" fill="#4A90D9" stroke="#1a5fa8" stroke-width="1.2"/>
</svg>