<svg xmlns="http://www.w3.org/2000/svg" width="800" height="500" viewBox="0 0 800 500">
<rect width="800" height="500" fill="#A8C8E8"/>
<path d="M 794.25,221.86 L 800.00,199.52 L 800.00,226.92 L 794.25,221.86 Z M 795.49,184.98 L 800.00,183.89 L 800.00,196.92 L 795.49,184.98 Z" fill="#E8E0D0" stroke="#B8B0A0" stroke-width="0.5"/>
<path d="M 32.01,55.84 L 42.18,46.86 L 59.67,63.27 L 58.29,59.38 L 70.55,56.62 L 72.60,60.55 L 73.81,60.82 L 77.75,59.38 L 72.63,56.12 L 77.08,50.70 L 113.50,49.21 L 118.72,46.09 L 132.40,50.01 L 134.81,49.19 L 135.49,46.86 L 117.87,45.03 L 78.40,49.23 L 61.62,55.94 L 52.77,54.67 L 50.10,41.69 L 120.42,41.90 L 128.79,31.17 L 148.77,28.40 L 163.50,30.65 L 172.82,40.06 L 186.19,38.61 L 198.13,49.21 L 223.54,42.13 L 234.99,50.67 L 229.47,57.21 L 197.90,61.70 L 146.08,41.51 L 136.68,53.46 L 100.17,56.13 L 99.18,66.20 L 42.54,65.77 L 37.14,71.43 L 32.01,55.84 Z" fill="#E8E0D0" stroke="#B8B0A0" stroke-width="0.5"/>
<path d="M 638.77,234.05 L 649.87,221.20 L 660.85,219.97 L 670.16,231.74 L 693.59,238.08 L 697.27,226.46 L 716.98,225.54 L 716.96,208.83 L 732.00,214.64 L 733.28,207.01 L 744.81,204.71 L 748.29,210.23 L 744.46,216.81 L 749.90,222.16 L 745.89,231.75 L 761.00,235.29 L 770.29,224.68 L 789.44,220.24 L 800.00,227.39 L 800.00,500.00 L 666.73,500.00 L 664.55,482.86 L 661.33,485.13 L 641.63,476.47 L 633.02,458.60 L 599.48,454.70 L 599.05,448.37 L 585.54,446.00 L 603.53,431.03 L 607.92,417.44 L 594.52,385.29 L 599.28,382.16 L 611.81,386.07 L 622.59,358.43 L 629.76,359.23 L 627.02,349.61 L 609.31,346.08 L 610.09,334.65 L 629.23,331.78 L 650.00,338.73 L 647.68,324.49 L 629.34,313.77 L 631.84,303.30 L 644.31,298.75 L 631.99,292.63 L 636.32,279.74 L 623.60,280.93 L 616.62,272.85 L 615.53,249.43 L 627.94,236.88 L 638.77,234.05 Z" fill="#C8D8E8" stroke="#8BAABB" stroke-width="0.8"/>
<path d="M 243.33,115.43 L 233.55,116.33 L 224.62,123.49 L 241.38,131.97 L 240.98,148.67 L 231.53,146.74 L 221.75,152.81 L 203.24,151.00 L 187.65,159.89 L 174.83,160.76 L 149.61,193.24 L 155.30,176.77 L 139.84,189.42 L 141.43,175.80 L 139.61,182.14 L 131.21,180.90 L 126.63,172.79 L 137.29,164.44 L 132.23,167.56 L 131.53,162.71 L 121.17,168.72 L 123.44,160.94 L 139.17,156.24 L 136.41,153.51 L 147.54,153.91 L 147.05,158.03 L 154.86,154.25 L 143.77,151.53 L 146.54,148.77 L 139.99,151.59 L 140.09,146.08 L 125.78,157.37 L 126.62,149.59 L 123.26,151.83 L 118.19,147.34 L 125.78,138.66 L 142.60,139.47 L 149.29,135.54 L 150.67,143.32 L 159.68,146.21 L 150.62,140.06 L 154.87,133.36 L 140.86,137.28 L 126.62,134.34 L 99.38,146.47 L 105.86,140.21 L 101.73,138.66 L 90.71,147.24 L 97.02,133.71 L 106.78,133.98 L 107.24,131.23 L 97.12,130.45 L 79.55,138.66 L 64.00,127.15 L 83.69,112.12 L 57.09,122.33 L 38.84,113.18 L 72.95,106.19 L 109.71,107.09 L 142.20,93.41 L 241.09,93.75 L 243.33,115.43 Z M 96.20,184.92 L 89.41,186.38 L 92.94,183.97 L 91.56,177.71 L 96.20,184.92 Z M 89.66,182.50 L 86.79,185.21 L 84.10,179.80 L 89.66,182.50 Z M 79.05,187.47 L 71.22,183.15 L 81.20,177.25 L 84.65,182.38 L 79.05,187.47 Z M 99.68,172.44 L 96.62,177.71 L 94.92,174.95 L 99.68,172.44 Z M 110.97,175.80 L 103.23,179.26 L 104.53,173.39 L 110.97,171.87 L 110.97,175.80 Z M 70.99,176.71 L 68.96,175.29 L 74.02,171.45 L 76.28,176.54 L 70.99,176.71 Z M 109.55,164.02 L 105.80,163.48 L 108.63,160.52 L 109.55,164.02 Z M 67.58,163.27 L 76.79,159.74 L 73.52,164.02 L 67.58,163.27 Z M 59.67,161.30 L 59.21,158.96 L 71.22,155.85 L 69.37,160.88 L 59.67,161.30 Z M 92.02,154.64 L 94.82,163.27 L 85.57,165.18 L 82.31,162.46 L 92.02,154.64 Z M 123.56,156.85 L 112.87,158.97 L 119.71,153.51 L 123.56,156.85 Z M 85.45,137.87 L 88.92,138.54 L 85.15,146.08 L 76.79,139.47 L 85.45,137.87 Z" fill="#C8D8E8" stroke="#8BAABB" stroke-width="0.8"/>
<path d="M 403.62,404.92 L 450.95,373.26 L 451.15,358.28 L 470.78,349.66 L 473.39,332.48 L 486.28,331.03 L 488.26,336.04 L 507.68,328.01 L 511.15,335.27 L 515.98,333.61 L 514.18,337.78 L 526.18,340.52 L 524.09,349.53 L 535.87,374.81 L 526.75,395.66 L 544.03,395.36 L 551.38,406.25 L 565.75,402.83 L 580.96,377.52 L 588.99,377.87 L 598.55,388.48 L 608.09,416.07 L 604.49,429.78 L 585.54,446.00 L 599.05,448.37 L 599.48,454.70 L 633.02,458.60 L 641.63,476.47 L 661.33,485.13 L 664.55,482.86 L 666.73,500.00 L 514.24,500.00 L 469.93,466.33 L 439.28,457.39 L 441.23,451.05 L 401.20,434.12 L 392.91,421.68 L 403.62,404.92 Z" fill="#C8D8E8" stroke="#8BAABB" stroke-width="0.8"/>
<path d="M 795.49,184.98 L 800.00,196.92 L 800.00,200.05 L 797.01,215.60 L 794.25,221.86 L 770.29,224.68 L 761.00,235.29 L 745.89,231.75 L 749.90,222.16 L 744.46,216.81 L 748.29,210.23 L 744.81,204.71 L 733.28,207.01 L 732.00,214.64 L 716.96,208.83 L 716.98,225.54 L 697.27,226.46 L 693.59,238.08 L 670.16,231.74 L 660.85,219.97 L 649.87,221.20 L 638.77,234.05 L 627.94,236.88 L 627.50,227.40 L 611.82,221.98 L 607.32,215.48 L 605.23,187.76 L 593.15,186.11 L 589.52,190.74 L 580.31,191.24 L 601.94,168.17 L 582.97,160.83 L 578.27,152.11 L 570.13,151.62 L 571.98,131.41 L 565.08,129.54 L 561.46,111.11 L 549.90,105.60 L 532.99,105.16 L 538.99,111.74 L 537.13,116.75 L 517.49,122.43 L 511.09,130.68 L 474.42,119.71 L 457.93,125.40 L 444.47,138.38 L 428.23,119.62 L 421.48,120.59 L 412.12,131.31 L 402.45,130.64 L 390.78,121.21 L 398.81,110.22 L 399.54,104.76 L 393.47,101.15 L 398.79,76.81 L 389.07,68.76 L 383.68,54.57 L 375.04,51.89 L 369.18,57.62 L 351.01,34.99 L 360.09,27.86 L 357.76,8.67 L 347.54,0.00 L 800.00,0.00 L 800.00,183.89 L 795.49,184.98 Z" fill="#C8D8E8" stroke="#8BAABB" stroke-width="0.8"/>
<path d="M 357.76,8.67 L 360.09,27.86 L 351.01,34.99 L 369.18,57.62 L 375.04,51.89 L 383.68,54.57 L 389.07,68.76 L 398.48,76.23 L 393.47,101.15 L 398.82,109.11 L 350.58,108.91 L 333.26,114.71 L 296.04,101.56 L 286.68,105.21 L 284.00,95.76 L 142.20,93.41 L 109.71,107.09 L 72.95,106.19 L 38.84,113.18 L 33.96,103.95 L 48.86,96.06 L 51.99,99.91 L 62.94,100.77 L 85.94,96.05 L 98.73,100.38 L 106.17,98.42 L 111.89,101.51 L 120.99,95.89 L 119.30,87.50 L 127.93,86.55 L 128.96,84.36 L 118.32,86.86 L 118.79,95.12 L 112.14,100.24 L 103.60,96.49 L 93.79,97.86 L 86.45,90.58 L 82.77,95.71 L 62.94,99.95 L 54.15,91.78 L 53.69,96.49 L 45.16,93.98 L 48.12,88.70 L 47.70,86.69 L 44.31,96.10 L 37.07,99.52 L 35.56,93.48 L 40.82,90.16 L 34.27,91.36 L 33.81,85.73 L 40.19,66.21 L 99.18,66.20 L 100.17,56.13 L 136.68,53.46 L 146.08,41.51 L 197.90,61.70 L 229.47,57.21 L 234.99,50.67 L 223.54,42.13 L 198.13,49.21 L 186.19,38.61 L 172.82,40.06 L 163.50,30.65 L 150.21,28.46 L 128.79,31.17 L 120.42,41.90 L 50.10,41.69 L 53.64,32.95 L 47.57,37.85 L 45.49,31.79 L 50.43,26.94 L 55.11,29.28 L 55.11,17.99 L 40.75,31.31 L 37.60,20.92 L 49.09,18.77 L 48.12,15.66 L 63.36,8.58 L 56.34,7.10 L 43.84,17.99 L 39.34,17.21 L 43.97,12.47 L 38.87,14.46 L 35.70,27.33 L 34.96,14.74 L 25.96,0.00 L 347.54,0.00 L 357.76,8.67 Z" fill="#C8D8E8" stroke="#8BAABB" stroke-width="0.8"/>
<path d="M 470.78,349.66 L 451.15,358.28 L 450.95,373.26 L 403.62,404.92 L 392.91,421.68 L 368.41,408.60 L 323.44,394.87 L 332.69,394.87 L 324.61,391.73 L 328.72,386.68 L 345.20,382.74 L 326.33,385.06 L 320.93,379.84 L 327.13,372.97 L 317.02,378.12 L 294.37,366.57 L 302.23,364.80 L 296.13,358.35 L 298.55,354.23 L 292.06,345.63 L 279.13,350.34 L 270.85,331.59 L 287.92,338.63 L 282.35,333.14 L 298.97,327.66 L 294.82,326.88 L 298.55,321.05 L 286.01,326.86 L 288.38,322.99 L 279.55,321.86 L 282.94,326.99 L 279.23,330.60 L 273.99,313.03 L 291.15,311.25 L 281.39,310.85 L 285.12,306.58 L 272.19,305.84 L 269.88,300.74 L 282.37,300.60 L 292.94,292.97 L 293.02,287.58 L 306.08,283.29 L 325.75,252.88 L 338.94,250.14 L 348.07,253.24 L 362.87,250.55 L 363.65,246.54 L 408.34,246.49 L 432.67,270.71 L 436.35,280.76 L 446.91,285.64 L 442.11,298.33 L 452.37,300.02 L 451.99,313.63 L 459.94,321.77 L 442.85,343.72 L 473.39,332.48 L 470.78,349.66 Z M 320.54,394.88 L 316.77,389.81 L 293.44,384.30 L 315.70,380.63 L 324.36,384.72 L 320.54,394.88 Z" fill="#C8D8E8" stroke="#8BAABB" stroke-width="0.8"/>
<path d="M 279.55,292.53 L 272.69,291.91 L 274.49,287.87 L 268.93,292.73 L 269.88,282.77 L 262.69,286.75 L 263.44,278.07 L 255.53,277.48 L 257.37,270.67 L 253.27,274.60 L 250.51,270.67 L 241.22,273.98 L 252.36,258.18 L 246.28,255.07 L 241.04,260.70 L 243.98,249.16 L 233.36,254.05 L 218.84,244.67 L 222.78,234.73 L 212.44,242.94 L 213.48,235.90 L 207.78,240.07 L 206.33,235.72 L 192.26,233.88 L 186.70,217.15 L 178.43,218.78 L 189.05,195.33 L 175.59,209.46 L 178.86,199.95 L 171.51,206.25 L 172.85,196.42 L 168.25,199.18 L 167.51,194.14 L 177.96,187.08 L 176.58,185.49 L 165.91,190.97 L 160.85,187.47 L 158.08,202.33 L 150.00,197.17 L 174.83,160.76 L 187.65,159.89 L 203.24,151.00 L 221.75,152.81 L 231.53,146.74 L 240.98,148.67 L 241.38,131.97 L 224.62,123.49 L 233.55,116.33 L 243.33,115.43 L 241.09,93.75 L 285.03,95.89 L 286.68,105.21 L 296.04,101.56 L 333.26,114.71 L 350.58,108.91 L 392.54,107.72 L 398.81,110.22 L 390.78,121.21 L 402.45,130.64 L 412.12,131.31 L 421.48,120.59 L 428.23,119.62 L 444.47,138.38 L 457.93,125.40 L 474.42,119.71 L 511.09,130.68 L 517.49,122.43 L 537.13,116.75 L 538.99,111.74 L 532.02,106.18 L 541.91,103.90 L 561.46,111.11 L 560.22,119.31 L 573.46,136.40 L 570.13,151.62 L 578.27,152.11 L 582.97,160.83 L 601.94,168.17 L 580.01,190.35 L 589.52,190.74 L 593.15,186.11 L 605.23,187.76 L 608.07,216.98 L 629.19,230.05 L 615.53,249.43 L 616.62,272.85 L 623.60,280.93 L 636.32,279.74 L 631.99,292.63 L 644.31,298.75 L 631.84,303.30 L 629.34,313.77 L 647.68,324.49 L 650.00,338.73 L 639.12,332.86 L 636.31,336.11 L 629.23,331.78 L 610.47,334.25 L 609.31,346.08 L 627.02,349.61 L 629.76,359.23 L 622.59,358.43 L 613.75,384.24 L 599.28,382.16 L 594.52,385.29 L 588.99,377.87 L 580.96,377.52 L 569.42,401.53 L 551.38,406.25 L 544.03,395.36 L 526.75,395.66 L 535.87,374.81 L 524.09,349.53 L 526.18,340.52 L 514.18,337.78 L 515.98,333.61 L 511.15,335.27 L 507.68,328.01 L 488.26,336.04 L 482.44,330.22 L 467.16,331.90 L 455.05,342.33 L 442.85,343.72 L 459.94,321.77 L 451.99,313.63 L 452.37,300.02 L 442.11,298.33 L 446.91,285.64 L 436.35,280.76 L 411.55,247.13 L 363.65,246.54 L 362.87,250.55 L 348.07,253.24 L 338.94,250.14 L 325.75,252.88 L 306.08,283.29 L 293.02,287.58 L 292.94,292.97 L 282.37,300.60 L 269.88,300.74 L 279.55,292.53 Z" fill="#4A90D9" stroke="#1a5fa8" stroke-width="1.2"/>
<path d="M 799.16,400.61 L 800.00,400.54 L 800.00,403.97 L 797.40,404.42 L 800.00,407.76 L 800.00,419.21 L 781.69,411.63 L 782.84,407.04 L 777.56,404.60 L 780.82,403.46 L 772.91,398.38 L 778.37,398.19 L 777.53,385.08 L 782.12,382.19 L 780.31,365.16 L 784.96,369.09 L 793.99,353.87 L 797.47,354.66 L 790.48,363.60 L 794.71,364.37 L 787.08,373.03 L 796.05,369.86 L 787.73,380.98 L 790.92,388.51 L 783.22,388.28 L 782.16,392.89 L 787.73,393.70 L 784.96,398.80 L 791.14,405.79 L 791.86,394.45 L 795.59,394.05 L 792.37,390.56 L 797.75,391.52 L 799.11,384.32 L 800.00,385.55 L 800.00,399.65 L 799.16,400.61 Z" fill="#A8C8E8" stroke="none"/>
<path d="M 691.65,459.68 L 680.01,460.57 L 681.31,456.93 L 664.92,449.30 L 661.15,441.31 L 684.37,456.34 L 689.33,447.75 L 692.07,452.28 L 693.45,444.80 L 686.14,441.13 L 694.97,437.22 L 689.31,424.35 L 692.07,414.75 L 699.42,444.62 L 691.65,459.68 Z" fill="#A8C8E8" stroke="none"/>
</svg>