<svg xmlns="http://www.w3.org/2000/svg" width="800" height="500" viewBox="0 0 800 500">
<rect width="800" height="500" fill="#A8C8E8"/>
<path d="M 688.66,497.73 L 676.27,487.42 L 667.00,489.43 L 675.19,475.43 L 670.10,457.32 L 686.70,462.42 L 702.65,457.28 L 713.48,462.41 L 748.20,457.33 L 751.74,443.31 L 745.37,430.67 L 750.58,433.11 L 763.34,427.15 L 778.39,432.76 L 796.20,454.13 L 792.77,459.87 L 800.00,460.56 L 800.00,500.00 L 686.83,500.00 L 688.66,497.73 Z" fill="#E8E0D0" stroke="#B8B0A0" stroke-width="0.5"/>
<path d="M 428.11,9.51 L 404.57,36.46 L 374.13,19.56 L 389.16,40.05 L 383.48,46.04 L 319.63,47.43 L 318.43,36.33 L 314.69,44.60 L 295.37,42.90 L 299.94,47.19 L 295.37,48.66 L 277.07,33.51 L 286.94,47.81 L 274.64,52.74 L 274.64,40.42 L 267.53,35.14 L 269.86,42.50 L 262.10,37.97 L 272.87,55.04 L 268.13,56.45 L 259.31,54.94 L 252.02,29.99 L 245.92,28.95 L 259.50,57.27 L 245.92,57.64 L 247.72,42.50 L 244.13,53.56 L 240.54,48.25 L 243.48,58.72 L 236.92,58.71 L 235.46,50.02 L 231.48,48.66 L 233.16,58.82 L 207.00,61.35 L 212.43,52.74 L 206.35,55.19 L 204.01,49.07 L 202.82,60.90 L 193.21,62.57 L 191.11,54.26 L 188.75,61.19 L 182.35,53.97 L 179.97,58.90 L 173.72,56.79 L 137.47,28.17 L 129.65,11.54 L 139.26,10.54 L 127.87,9.28 L 125.96,0.00 L 431.46,0.00 L 428.11,9.51 Z M 321.91,49.87 L 308.56,52.85 L 300.26,51.33 L 321.91,49.87 Z M 299.87,49.43 L 296.89,54.05 L 282.87,55.10 L 290.86,46.99 L 294.77,49.43 L 299.87,49.43 Z" fill="#E8E0D0" stroke="#B8B0A0" stroke-width="0.5"/>
<path d="M 249.50,303.06 L 229.40,316.57 L 224.52,302.00 L 242.93,293.67 L 249.50,303.06 Z M 305.90,226.46 L 299.87,224.42 L 304.49,216.83 L 311.26,217.89 L 305.90,226.46 Z" fill="#E8E0D0" stroke="#B8B0A0" stroke-width="0.5"/>
<path d="M 532.35,188.53 L 516.60,182.59 L 529.27,135.62 L 526.97,122.40 L 501.84,106.41 L 517.36,101.10 L 500.45,102.76 L 493.43,89.63 L 500.28,93.78 L 500.01,86.33 L 510.79,89.63 L 504.83,84.29 L 512.54,81.39 L 499.81,81.22 L 511.68,70.73 L 496.36,78.07 L 487.54,72.18 L 492.26,79.48 L 483.99,77.02 L 487.40,83.88 L 475.73,83.88 L 474.22,76.94 L 464.12,80.98 L 443.17,72.82 L 440.07,45.76 L 432.31,40.59 L 434.14,46.28 L 428.08,42.90 L 427.19,46.47 L 415.53,34.70 L 421.44,48.16 L 402.87,47.33 L 410.91,26.15 L 428.11,9.51 L 431.46,0.00 L 800.00,0.00 L 800.00,182.25 L 773.61,184.28 L 678.06,179.15 L 651.34,180.46 L 648.75,188.52 L 532.35,188.53 Z" fill="#C8D8E8" stroke="#8BAABB" stroke-width="0.8"/>
<path d="M 792.77,459.87 L 796.20,454.13 L 778.39,432.76 L 763.34,427.15 L 750.58,433.11 L 745.37,430.67 L 751.74,443.31 L 748.20,457.33 L 713.48,462.41 L 702.65,457.28 L 686.70,462.42 L 670.10,457.32 L 675.19,475.43 L 667.00,489.43 L 676.27,487.42 L 688.66,497.73 L 686.83,500.00 L 560.48,500.00 L 524.61,479.48 L 507.21,464.09 L 515.21,467.55 L 519.16,464.91 L 531.15,475.19 L 546.83,471.86 L 545.16,469.14 L 531.75,471.10 L 522.17,462.08 L 511.45,465.73 L 509.00,460.27 L 507.21,463.65 L 497.90,458.66 L 495.17,449.11 L 469.41,430.22 L 486.56,432.96 L 493.20,441.84 L 490.97,433.20 L 478.44,426.79 L 475.47,430.92 L 468.02,427.75 L 464.94,412.47 L 447.14,396.69 L 444.25,391.61 L 447.39,396.03 L 459.61,405.79 L 468.84,409.82 L 470.20,418.17 L 494.63,414.14 L 485.62,405.94 L 470.76,411.66 L 467.43,406.63 L 474.91,401.64 L 475.03,394.75 L 473.93,399.98 L 461.93,402.36 L 448.32,395.69 L 448.58,389.37 L 434.10,376.43 L 437.62,378.32 L 440.07,375.62 L 431.67,373.17 L 419.07,353.09 L 432.09,365.86 L 439.49,359.11 L 446.70,370.31 L 454.51,353.87 L 472.49,337.88 L 475.89,296.74 L 477.19,307.19 L 482.80,305.57 L 488.37,312.14 L 489.79,306.78 L 497.00,311.30 L 507.99,309.95 L 516.72,316.61 L 512.03,310.51 L 535.38,306.78 L 514.97,307.19 L 489.25,300.62 L 472.42,285.47 L 473.32,280.58 L 492.83,277.27 L 494.60,280.85 L 487.47,281.00 L 486.27,282.21 L 495.82,282.21 L 495.82,287.52 L 498.85,289.96 L 497.47,257.36 L 510.85,254.65 L 528.25,262.72 L 535.71,258.01 L 650.00,258.27 L 651.34,180.46 L 736.16,179.65 L 773.61,184.28 L 800.00,182.25 L 800.00,460.56 L 792.77,459.87 Z M 449.32,358.07 L 446.27,363.59 L 441.27,357.58 L 449.32,358.07 Z M 479.28,269.61 L 478.89,269.76 L 478.64,269.58 L 479.28,269.61 Z" fill="#C8D8E8" stroke="#8BAABB" stroke-width="0.8"/>
<path d="M 517.72,183.54 L 532.35,188.53 L 648.75,188.52 L 650.00,258.27 L 535.71,258.01 L 528.25,262.72 L 508.46,250.25 L 496.79,255.65 L 491.58,250.25 L 480.36,251.56 L 476.01,247.36 L 486.38,233.44 L 499.45,223.06 L 503.34,224.42 L 505.67,224.21 L 510.79,222.34 L 498.80,219.69 L 516.50,202.32 L 515.61,178.00 L 517.72,183.54 Z M 150.00,403.70 L 151.26,402.67 L 150.90,406.25 L 150.00,403.70 Z M 441.42,101.12 L 418.25,126.84 L 397.61,122.32 L 396.91,113.44 L 408.93,110.93 L 416.59,95.21 L 438.93,93.75 L 441.42,101.12 Z" fill="#4A90D9" stroke="#1a5fa8" stroke-width="1.2"/>
<path d="M 555.79,378.03 L 540.76,377.85 L 544.98,378.92 L 534.14,385.49 L 530.46,384.87 L 540.17,377.66 L 532.39,377.66 L 531.75,364.97 L 538.91,371.90 L 543.46,369.05 L 546.52,375.72 L 555.53,374.47 L 555.79,378.03 Z" fill="#A8C8E8" stroke="none"/>
</svg>