<svg xmlns="http://www.w3.org/2000/svg" width="800" height="500" viewBox="0 0 800 500">
<rect width="800" height="500" fill="#A8C8E8"/>
<path d="M 264.55,53.04 L 262.10,48.61 L 277.72,43.92 L 277.12,39.66 L 284.39,33.56 L 282.24,28.49 L 288.97,25.55 L 290.53,29.72 L 299.52,33.32 L 305.46,42.52 L 310.69,44.30 L 309.64,48.94 L 323.58,53.29 L 314.50,67.06 L 316.20,71.37 L 309.22,72.38 L 306.83,78.35 L 299.73,73.64 L 288.64,78.77 L 284.98,89.50 L 280.93,88.18 L 278.59,72.95 L 269.28,68.05 L 263.17,57.83 L 264.55,53.04 Z" fill="#E8E0D0" stroke="#B8B0A0" stroke-width="0.5"/>
<path d="M 298.05,498.30 L 310.92,497.35 L 318.29,490.89 L 336.91,490.39 L 360.34,500.00 L 295.01,500.00 L 298.05,498.30 Z" fill="#E8E0D0" stroke="#B8B0A0" stroke-width="0.5"/>
<path d="M 564.32,4.00 L 551.69,3.07 L 545.06,0.00 L 565.46,0.00 L 564.32,4.00 Z M 465.37,4.42 L 452.00,8.11 L 399.01,0.00 L 469.94,0.00 L 465.37,4.42 Z" fill="#E8E0D0" stroke="#B8B0A0" stroke-width="0.5"/>
<path d="M 156.77,123.84 L 171.59,135.19 L 190.37,143.27 L 208.38,166.32 L 203.89,180.84 L 192.66,176.58 L 185.28,159.72 L 172.87,158.91 L 161.83,153.65 L 166.19,150.13 L 156.26,150.35 L 156.26,123.62 L 156.77,123.84 Z M 160.37,199.36 L 160.85,219.44 L 156.26,221.06 L 156.26,197.18 L 160.37,199.36 Z" fill="#E8E0D0" stroke="#B8B0A0" stroke-width="0.5"/>
<path d="M 343.98,1.00 L 349.97,16.03 L 366.45,29.54 L 357.34,42.50 L 346.74,45.81 L 348.70,49.40 L 346.66,56.65 L 350.60,60.91 L 346.62,67.78 L 341.13,65.78 L 316.59,71.56 L 314.50,67.06 L 318.09,65.05 L 323.28,52.29 L 309.64,48.94 L 310.69,44.30 L 305.46,42.52 L 299.52,33.32 L 290.53,29.72 L 289.86,25.81 L 282.24,28.49 L 283.65,35.05 L 277.12,39.66 L 277.72,43.92 L 273.09,45.18 L 272.80,41.60 L 258.37,32.27 L 246.66,29.47 L 231.72,15.74 L 234.44,10.88 L 242.82,11.97 L 243.45,8.24 L 238.64,0.00 L 344.19,0.00 L 343.98,1.00 Z" fill="#E8E0D0" stroke="#B8B0A0" stroke-width="0.5"/>
<path d="M 164.32,16.53 L 165.01,23.73 L 176.98,35.31 L 177.20,39.64 L 172.99,39.26 L 172.51,36.01 L 156.26,23.51 L 156.26,12.88 L 164.32,16.53 Z M 207.69,63.71 L 186.34,46.83 L 180.26,45.24 L 181.70,47.38 L 181.24,47.68 L 162.32,38.19 L 156.39,37.63 L 156.26,37.42 L 156.26,35.61 L 180.98,44.65 L 177.86,42.32 L 183.47,41.47 L 185.12,45.65 L 205.60,57.27 L 207.69,63.71 Z M 181.24,51.17 L 166.20,46.83 L 168.63,46.34 L 181.24,51.17 Z M 161.83,40.93 L 156.26,41.36 L 156.26,40.17 L 161.83,40.93 Z M 161.59,31.67 L 156.26,31.67 L 156.26,31.11 L 161.59,31.67 Z" fill="#E8E0D0" stroke="#B8B0A0" stroke-width="0.5"/>
<path d="M 205.60,57.27 L 209.58,52.36 L 205.46,39.47 L 212.73,36.49 L 213.63,26.90 L 219.17,22.02 L 225.23,25.37 L 227.96,23.49 L 222.16,15.30 L 224.70,12.79 L 232.41,13.40 L 232.30,16.92 L 246.66,29.47 L 258.37,32.27 L 273.38,42.32 L 267.36,49.01 L 261.81,48.98 L 264.55,53.04 L 260.23,59.45 L 253.85,61.37 L 251.04,53.35 L 247.49,55.21 L 235.22,73.85 L 238.68,77.77 L 238.41,89.12 L 231.52,85.26 L 221.47,69.65 L 217.67,70.24 L 209.41,63.38 L 214.90,64.76 L 214.44,60.71 L 207.69,63.71 L 205.60,57.27 Z" fill="#E8E0D0" stroke="#B8B0A0" stroke-width="0.5"/>
<path d="M 174.44,40.35 L 178.20,38.95 L 176.98,35.31 L 165.01,23.73 L 164.32,16.53 L 156.26,12.88 L 156.26,0.00 L 238.98,0.00 L 241.83,3.06 L 242.82,11.97 L 237.76,9.97 L 222.35,14.55 L 227.96,23.49 L 225.23,25.37 L 219.17,22.02 L 213.63,26.90 L 212.73,36.49 L 206.14,37.70 L 205.85,45.65 L 209.58,52.36 L 207.53,57.02 L 189.96,49.10 L 183.47,41.47 L 174.44,40.35 Z" fill="#E8E0D0" stroke="#B8B0A0" stroke-width="0.5"/>
<path d="M 278.57,94.45 L 279.79,101.16 L 276.58,102.76 L 279.98,109.48 L 278.56,116.92 L 286.24,131.44 L 294.71,132.28 L 294.25,138.11 L 297.54,143.77 L 294.01,151.30 L 288.13,153.58 L 283.78,168.36 L 271.41,173.19 L 274.92,180.79 L 270.78,181.43 L 271.36,185.33 L 267.39,188.95 L 260.48,186.71 L 261.22,178.65 L 257.56,176.81 L 256.04,170.55 L 242.35,162.97 L 235.74,153.65 L 242.30,156.90 L 239.17,148.11 L 241.58,147.64 L 236.27,143.16 L 238.98,131.67 L 244.02,131.11 L 243.03,127.41 L 242.47,129.61 L 241.34,130.49 L 243.77,115.98 L 239.41,108.90 L 243.77,104.40 L 241.10,101.15 L 247.18,100.26 L 246.43,90.64 L 238.41,89.12 L 238.68,77.77 L 235.12,74.33 L 250.24,52.96 L 253.25,61.08 L 262.26,57.33 L 269.28,68.05 L 277.91,72.07 L 282.07,84.25 L 278.57,94.45 Z" fill="#C8D8E8" stroke="#8BAABB" stroke-width="0.8"/>
<path d="M 475.01,95.92 L 479.33,108.07 L 468.94,113.83 L 446.20,116.68 L 433.72,109.48 L 429.76,111.85 L 422.90,107.68 L 420.41,102.22 L 405.08,103.38 L 403.59,107.19 L 388.66,110.81 L 364.06,112.40 L 367.31,94.19 L 361.27,81.59 L 350.40,76.65 L 343.82,68.34 L 350.48,61.85 L 346.66,56.65 L 348.70,49.40 L 346.74,45.81 L 357.34,42.50 L 366.33,28.44 L 349.97,16.03 L 343.98,1.00 L 344.19,0.00 L 399.01,0.00 L 452.00,8.11 L 465.37,4.42 L 469.94,0.00 L 545.06,0.00 L 551.69,3.07 L 564.32,4.00 L 563.68,16.95 L 560.60,20.87 L 555.24,18.11 L 548.06,19.76 L 544.48,26.92 L 540.46,28.29 L 540.05,50.45 L 534.40,50.27 L 530.72,54.13 L 531.48,57.32 L 524.51,60.83 L 533.92,63.78 L 535.22,70.82 L 544.45,83.71 L 537.21,82.71 L 527.81,86.92 L 518.16,78.34 L 510.13,78.73 L 506.32,82.64 L 494.54,83.94 L 491.72,90.39 L 484.93,91.95 L 484.90,95.40 L 475.01,95.92 Z" fill="#C8D8E8" stroke="#8BAABB" stroke-width="0.8"/>
<path d="M 638.89,312.69 L 634.76,317.64 L 634.76,329.06 L 629.73,342.65 L 620.21,339.39 L 603.02,347.29 L 582.64,335.23 L 583.30,327.94 L 579.74,328.16 L 582.64,322.87 L 577.07,318.99 L 573.18,325.70 L 559.85,313.03 L 557.87,317.27 L 552.96,314.72 L 554.30,320.41 L 545.13,327.40 L 542.42,325.70 L 547.03,323.82 L 542.66,321.81 L 547.98,320.46 L 548.05,316.77 L 540.95,319.49 L 533.93,318.77 L 532.23,323.21 L 522.79,322.87 L 521.07,320.75 L 531.31,316.51 L 544.83,317.64 L 545.34,310.54 L 549.71,311.77 L 555.51,306.13 L 528.37,309.00 L 521.80,306.54 L 517.80,309.44 L 517.43,302.20 L 528.48,302.13 L 527.16,299.10 L 530.06,298.79 L 530.28,295.41 L 524.89,296.43 L 525.87,293.04 L 522.52,293.22 L 522.89,289.19 L 515.23,291.68 L 515.86,280.89 L 508.89,277.79 L 517.31,274.24 L 516.94,263.27 L 504.00,261.14 L 500.01,252.96 L 495.61,253.55 L 494.16,258.04 L 486.91,250.93 L 481.36,250.09 L 491.26,243.21 L 486.83,242.25 L 485.46,234.09 L 487.76,232.11 L 495.41,239.32 L 493.92,243.86 L 496.92,248.88 L 497.96,243.34 L 501.24,246.56 L 514.30,242.60 L 506.20,243.13 L 501.93,238.26 L 504.59,239.83 L 503.14,235.80 L 498.55,233.31 L 498.55,230.24 L 505.07,229.62 L 504.85,225.93 L 510.70,222.76 L 501.64,219.91 L 504.07,213.56 L 498.54,205.81 L 494.66,205.26 L 506.00,195.68 L 506.28,191.76 L 475.59,195.30 L 478.66,188.40 L 479.04,173.79 L 499.13,154.41 L 518.64,151.50 L 524.49,158.09 L 535.47,158.38 L 539.74,155.19 L 532.69,150.24 L 535.37,148.39 L 545.08,151.22 L 540.46,154.58 L 541.90,156.10 L 581.06,156.04 L 584.59,153.04 L 571.90,147.66 L 596.59,139.82 L 612.46,139.47 L 588.24,136.06 L 588.57,133.40 L 579.50,126.16 L 581.44,124.09 L 582.44,121.18 L 581.68,120.65 L 585.24,117.03 L 619.45,121.05 L 624.60,117.82 L 643.74,123.83 L 643.74,313.47 L 638.89,312.69 Z M 545.45,87.42 L 542.87,90.48 L 552.09,104.15 L 583.10,116.93 L 578.96,127.16 L 565.98,128.96 L 563.38,123.90 L 563.01,128.00 L 549.71,123.70 L 541.78,128.84 L 527.03,128.02 L 518.67,140.89 L 497.29,152.07 L 485.34,163.59 L 486.41,165.68 L 478.68,170.10 L 482.73,162.21 L 480.86,157.66 L 502.44,145.47 L 501.07,142.83 L 491.00,145.62 L 475.01,142.83 L 474.29,139.47 L 485.81,129.12 L 484.45,116.44 L 495.46,111.42 L 494.18,99.93 L 484.90,95.40 L 484.93,91.95 L 491.72,90.39 L 494.54,83.94 L 506.32,82.64 L 510.13,78.73 L 518.16,78.34 L 527.81,86.92 L 537.21,82.71 L 544.45,83.71 L 545.45,87.42 Z M 475.76,182.29 L 472.34,180.07 L 473.26,179.57 L 475.76,182.29 Z M 472.77,166.43 L 464.83,168.22 L 461.20,166.91 L 470.49,161.65 L 472.77,166.43 Z M 534.40,144.42 L 529.88,146.60 L 527.11,143.80 L 534.40,144.42 Z M 531.71,152.34 L 529.00,151.12 L 529.97,149.82 L 531.71,152.34 Z" fill="#C8D8E8" stroke="#8BAABB" stroke-width="0.8"/>
<path d="M 285.74,89.25 L 288.64,78.77 L 299.73,73.64 L 306.46,78.43 L 311.68,71.34 L 341.13,65.78 L 350.40,76.65 L 361.27,81.59 L 367.33,95.25 L 364.62,99.94 L 364.90,111.77 L 358.20,113.33 L 356.55,121.24 L 333.32,120.69 L 316.82,133.56 L 295.02,134.32 L 286.24,131.44 L 278.56,116.92 L 279.98,109.48 L 276.58,102.76 L 279.79,101.16 L 278.57,94.45 L 280.93,88.18 L 285.74,89.25 Z" fill="#C8D8E8" stroke="#8BAABB" stroke-width="0.8"/>
<path d="M 316.82,133.56 L 333.32,120.69 L 356.55,121.24 L 359.24,112.44 L 388.66,110.81 L 410.62,102.22 L 420.41,102.22 L 422.90,107.68 L 429.76,111.85 L 433.72,109.48 L 447.85,116.74 L 477.39,111.41 L 478.88,103.69 L 474.81,96.48 L 481.11,93.75 L 494.18,99.93 L 495.62,109.53 L 494.68,112.63 L 484.45,116.44 L 485.81,129.12 L 476.00,139.45 L 473.32,136.37 L 475.02,135.15 L 456.76,133.37 L 442.64,127.08 L 430.74,134.14 L 424.60,133.91 L 420.23,129.26 L 406.26,139.80 L 392.88,138.72 L 391.76,142.24 L 399.36,148.31 L 396.11,149.75 L 397.70,153.96 L 402.45,155.18 L 402.77,152.36 L 416.30,165.72 L 412.98,166.82 L 408.34,160.19 L 400.12,156.14 L 392.83,156.42 L 392.33,161.09 L 402.06,167.25 L 402.06,174.69 L 396.23,172.20 L 390.89,162.78 L 382.50,160.01 L 379.02,162.32 L 379.85,165.82 L 393.45,175.73 L 379.75,174.35 L 377.57,161.99 L 363.04,155.19 L 360.68,149.97 L 366.40,147.69 L 363.83,143.55 L 352.10,151.50 L 355.01,155.97 L 351.83,170.15 L 379.15,209.56 L 374.20,212.95 L 368.83,213.26 L 374.67,209.56 L 371.75,204.28 L 364.72,201.41 L 360.84,207.69 L 366.92,214.52 L 365.71,217.26 L 369.58,216.02 L 359.64,223.16 L 353.61,221.51 L 350.19,224.05 L 368.48,229.07 L 370.69,233.95 L 377.81,233.31 L 377.09,237.65 L 380.49,238.60 L 378.84,240.03 L 387.06,240.14 L 387.28,242.29 L 390.79,246.66 L 400.63,249.61 L 405.22,255.24 L 401.98,257.20 L 405.46,272.40 L 403.52,278.43 L 386.83,263.95 L 387.32,260.62 L 366.82,268.03 L 373.44,271.32 L 371.27,274.40 L 372.96,280.11 L 378.90,283.66 L 378.04,279.97 L 381.10,279.04 L 380.97,284.58 L 385.59,288.00 L 376.29,289.72 L 372.96,294.29 L 369.58,291.78 L 371.66,287.57 L 357.31,282.26 L 371.03,317.64 L 368.25,323.60 L 373.93,333.36 L 366.02,329.41 L 359.45,317.09 L 355.87,316.37 L 352.04,317.56 L 348.74,325.51 L 348.99,335.23 L 344.16,329.78 L 345.34,321.03 L 336.50,311.52 L 337.04,306.83 L 329.61,308.09 L 330.57,317.03 L 327.47,320.11 L 321.27,315.99 L 321.36,310.37 L 316.40,302.55 L 320.12,289.94 L 300.00,268.22 L 307.78,261.76 L 309.49,252.78 L 318.26,255.75 L 326.29,247.34 L 362.29,265.45 L 366.12,263.67 L 362.59,260.50 L 373.11,259.14 L 374.89,255.55 L 360.12,252.50 L 354.49,245.15 L 351.52,249.50 L 345.83,242.29 L 345.14,247.28 L 338.31,248.16 L 330.13,244.17 L 314.56,249.39 L 307.65,240.36 L 308.15,244.89 L 301.75,249.03 L 295.83,232.80 L 291.29,226.51 L 286.67,226.23 L 289.35,223.62 L 288.10,219.51 L 299.26,223.77 L 302.52,223.25 L 301.90,217.76 L 299.26,214.82 L 298.31,217.26 L 290.76,216.00 L 289.96,212.50 L 287.16,216.33 L 290.30,219.30 L 287.98,218.67 L 286.88,219.91 L 277.94,204.92 L 269.22,199.66 L 270.21,194.74 L 265.60,193.79 L 267.30,189.52 L 260.87,186.41 L 269.58,187.79 L 270.78,181.43 L 274.92,180.79 L 271.41,173.19 L 283.78,168.36 L 288.13,153.58 L 296.91,147.41 L 295.02,134.32 L 316.82,133.56 Z M 407.15,406.25 L 404.01,404.72 L 405.22,403.82 L 407.15,406.25 Z M 508.74,379.99 L 503.12,381.13 L 504.96,378.78 L 508.74,379.99 Z M 482.93,393.41 L 478.32,397.81 L 438.41,400.99 L 428.49,400.99 L 428.64,394.43 L 416.59,389.30 L 385.32,384.66 L 387.52,371.96 L 392.41,374.80 L 393.22,366.96 L 395.90,373.81 L 408.84,371.52 L 408.84,374.78 L 404.91,375.46 L 411.30,376.33 L 414.40,382.22 L 427.87,378.66 L 453.79,384.66 L 464.85,382.79 L 462.95,389.67 L 465.87,392.73 L 475.25,387.40 L 479.46,388.58 L 484.47,383.71 L 482.93,393.41 Z M 513.31,379.71 L 510.89,371.37 L 516.30,360.54 L 514.03,369.34 L 515.98,374.45 L 513.31,379.71 Z M 378.69,358.94 L 378.78,360.55 L 377.45,359.18 L 378.69,358.94 Z M 370.67,342.16 L 366.66,346.68 L 363.51,337.60 L 365.03,335.30 L 370.67,342.16 Z M 464.90,334.75 L 467.99,336.47 L 464.14,336.72 L 464.90,334.75 Z M 547.03,350.37 L 534.40,356.68 L 535.27,349.05 L 532.69,345.72 L 540.31,337.52 L 552.34,333.36 L 547.03,350.37 Z M 454.69,333.73 L 454.19,337.42 L 450.53,336.77 L 453.19,335.23 L 451.26,331.24 L 454.69,333.73 Z M 523.63,335.49 L 518.99,331.89 L 521.07,331.24 L 523.63,335.49 Z M 489.60,326.59 L 483.76,329.72 L 482.36,326.37 L 487.40,326.29 L 485.92,324.10 L 489.60,326.59 Z M 538.31,329.06 L 535.37,326.90 L 538.27,323.80 L 538.31,329.06 Z M 435.90,324.72 L 436.46,325.98 L 432.11,322.87 L 435.90,324.72 Z M 444.23,321.03 L 440.12,324.10 L 441.44,321.33 L 444.23,321.03 Z M 323.84,319.17 L 323.76,321.33 L 322.79,320.75 L 323.84,319.17 Z M 421.23,318.24 L 421.68,321.81 L 413.93,323.52 L 414.90,318.87 L 417.45,321.33 L 416.83,318.57 L 421.23,318.24 Z M 425.92,317.94 L 425.69,319.03 L 423.88,317.64 L 425.92,317.94 Z M 448.60,317.03 L 452.22,320.75 L 450.94,323.39 L 447.39,320.41 L 448.60,317.03 Z M 321.04,317.20 L 322.05,317.03 L 321.58,317.64 L 321.04,317.20 Z M 422.63,317.61 L 420.80,316.02 L 422.24,314.74 L 422.63,317.61 Z M 453.55,314.21 L 454.66,313.61 L 454.64,315.22 L 453.55,314.21 Z M 521.07,313.95 L 508.20,318.89 L 507.53,322.26 L 505.58,320.58 L 518.42,311.94 L 521.07,313.95 Z M 460.72,311.77 L 461.95,312.69 L 461.58,313.22 L 460.72,311.77 Z M 475.76,312.60 L 468.86,317.03 L 464.47,318.15 L 463.88,317.03 L 473.32,310.54 L 475.76,312.60 Z M 439.40,309.17 L 438.66,307.43 L 440.31,305.89 L 439.40,309.17 Z M 429.45,310.08 L 427.50,312.10 L 425.08,305.59 L 429.45,310.08 Z M 506.85,306.53 L 505.56,305.91 L 504.59,303.74 L 510.05,307.96 L 505.36,310.23 L 506.85,306.53 Z M 465.35,302.20 L 467.26,301.59 L 467.34,303.17 L 465.35,302.20 Z M 444.41,308.45 L 441.40,307.21 L 446.19,300.94 L 448.11,300.94 L 444.41,308.45 Z M 458.28,306.99 L 453.65,311.46 L 449.83,304.05 L 456.35,298.94 L 458.28,306.99 Z M 420.78,298.60 L 421.20,301.92 L 417.31,302.20 L 420.78,298.60 Z M 372.60,295.56 L 372.74,296.78 L 370.33,295.41 L 372.60,295.56 Z M 384.57,293.37 L 380.23,294.15 L 383.39,291.68 L 387.76,291.07 L 384.57,293.37 Z M 417.80,285.84 L 419.44,289.20 L 415.38,293.84 L 417.80,285.84 Z M 448.60,289.22 L 448.80,285.79 L 454.11,286.61 L 448.60,289.22 Z M 436.47,289.68 L 433.56,291.41 L 434.04,284.78 L 436.47,289.68 Z M 384.71,283.79 L 385.59,284.27 L 382.43,284.27 L 384.71,283.79 Z M 437.20,277.19 L 446.91,281.20 L 445.38,283.77 L 437.20,277.19 Z M 416.37,279.64 L 412.11,283.83 L 412.60,278.71 L 415.62,276.86 L 416.37,279.64 Z M 481.27,282.04 L 472.28,284.53 L 475.74,279.04 L 485.92,276.86 L 481.27,282.04 Z M 384.12,277.19 L 382.01,273.46 L 382.05,273.17 L 386.31,272.89 L 384.12,277.19 Z M 501.32,278.74 L 498.17,275.63 L 494.28,277.27 L 493.64,274.40 L 501.64,271.08 L 510.89,272.89 L 501.32,278.74 Z M 295.78,274.90 L 296.12,276.27 L 292.49,274.73 L 289.71,278.43 L 282.79,268.83 L 285.95,266.09 L 295.78,274.90 Z M 436.24,276.86 L 426.90,264.27 L 429.92,262.71 L 436.11,266.96 L 436.24,276.86 Z M 384.60,264.22 L 382.18,263.27 L 387.28,264.86 L 381.44,267.29 L 384.60,264.22 Z M 278.91,257.73 L 276.63,250.28 L 275.92,254.82 L 273.09,254.52 L 275.02,246.32 L 279.61,247.52 L 279.90,241.37 L 283.18,251.10 L 284.98,250.01 L 289.09,256.81 L 286.82,259.91 L 278.91,257.73 Z M 287.67,245.98 L 287.89,248.16 L 285.20,247.55 L 282.79,241.03 L 287.67,245.98 Z M 292.98,237.98 L 292.49,237.98 L 293.85,235.55 L 292.98,237.98 Z M 477.08,252.69 L 473.46,255.66 L 469.22,252.78 L 472.72,245.63 L 467.77,236.57 L 478.90,238.26 L 477.08,252.69 Z M 459.77,236.63 L 457.58,238.60 L 456.25,235.80 L 459.77,236.63 Z M 280.14,237.06 L 285.15,224.42 L 286.20,234.47 L 280.14,237.06 Z M 422.41,228.36 L 422.07,224.61 L 417.80,223.16 L 418.68,219.12 L 426.30,226.23 L 422.41,228.36 Z M 422.41,263.27 L 415.52,263.99 L 409.58,258.65 L 403.86,244.63 L 389.96,244.44 L 388.72,237.58 L 374.15,225.33 L 361.11,224.63 L 377.57,215.75 L 388.00,228.02 L 407.87,233.31 L 411.30,252.45 L 423.15,255.55 L 422.41,263.27 Z M 383.63,208.02 L 385.13,209.61 L 383.28,211.72 L 383.63,208.02 Z M 387.76,208.31 L 395.03,212.05 L 392.35,214.18 L 387.76,208.31 Z M 267.60,208.53 L 268.01,209.56 L 265.77,208.23 L 267.60,208.53 Z M 398.68,210.37 L 396.48,211.07 L 400.85,204.61 L 398.68,210.37 Z M 492.19,216.79 L 490.42,212.54 L 488.57,213.00 L 492.47,218.21 L 478.97,216.65 L 476.22,213.90 L 483.02,208.81 L 475.38,213.56 L 467.53,207.38 L 478.90,200.59 L 485.92,200.59 L 494.77,215.44 L 492.19,216.79 Z M 439.42,193.08 L 437.20,196.62 L 436.91,193.43 L 439.42,193.08 Z M 264.61,201.23 L 257.75,198.27 L 247.66,183.94 L 259.03,182.04 L 255.39,188.25 L 258.31,189.48 L 258.63,196.35 L 264.13,198.12 L 264.61,201.23 Z M 450.08,182.16 L 446.61,176.27 L 445.33,181.46 L 439.40,179.92 L 438.92,172.81 L 447.83,174.70 L 453.65,170.97 L 450.08,182.16 Z M 457.80,154.58 L 453.43,150.88 L 458.11,149.40 L 462.17,152.42 L 457.80,154.58 Z M 429.96,145.01 L 425.08,146.88 L 420.65,143.80 L 425.08,136.37 L 430.18,139.47 L 429.96,145.01 Z M 398.44,315.25 L 398.27,315.34 L 398.01,314.83 L 398.44,315.25 Z M 383.52,312.00 L 383.40,312.11 L 382.90,310.98 L 383.52,312.00 Z M 530.29,341.92 L 530.37,342.57 L 526.84,343.08 L 530.29,341.92 Z M 515.49,327.24 L 513.07,327.19 L 513.34,325.81 L 515.49,327.24 Z M 503.18,303.35 L 500.45,299.55 L 503.17,299.35 L 503.18,303.35 Z M 492.53,293.07 L 493.19,295.41 L 492.44,295.30 L 492.09,290.99 L 494.29,291.77 L 492.53,293.07 Z M 427.77,281.04 L 425.70,280.44 L 427.70,279.35 L 427.77,281.04 Z M 294.18,234.45 L 291.67,236.47 L 292.30,234.38 L 294.18,234.45 Z M 287.74,234.45 L 289.17,235.89 L 287.46,234.51 L 286.94,233.33 L 289.21,232.74 L 287.74,234.45 Z M 405.69,202.79 L 404.60,204.27 L 403.96,202.27 L 405.69,202.79 Z" fill="#4A90D9" stroke="#1a5fa8" stroke-width="1.2"/>
<path d="M 643.74,252.68 L 643.74,258.01 L 641.31,255.01 L 643.74,252.68 Z M 641.91,264.56 L 643.74,261.13 L 643.74,266.95 L 641.91,264.56 Z" fill="#A8C8E8" stroke="none"/>
<path d="M 234.26,75.98 L 228.25,68.69 L 237.43,70.97 L 240.87,67.20 L 238.44,72.06 L 242.50,77.38 L 234.26,75.98 Z" fill="#A8C8E8" stroke="none"/>
<path d="M 288.87,130.49 L 284.20,131.58 L 284.02,119.67 L 289.83,122.46 L 288.87,130.49 Z" fill="#A8C8E8" stroke="none"/>
<path d="M 297.32,134.52 L 297.31,134.65 L 297.31,134.64 L 297.32,134.52 Z" fill="#A8C8E8" stroke="none"/>
<path d="M 297.34,134.75 L 297.35,134.76 L 297.34,134.76 L 297.34,134.75 Z" fill="#A8C8E8" stroke="none"/>
<path d="M 297.47,134.75 L 297.52,134.76 L 297.57,134.80 L 297.47,134.75 Z" fill="#A8C8E8" stroke="none"/>
<path d="M 292.98,137.63 L 295.00,126.82 L 300.49,133.75 L 292.98,137.63 Z" fill="#A8C8E8" stroke="none"/>
<path d="M 299.76,139.92 L 296.11,141.94 L 298.16,137.27 L 300.36,136.60 L 299.76,139.92 Z" fill="#A8C8E8" stroke="none"/>
</svg>