<svg xmlns="http://www.w3.org/2000/svg" width="800" height="500" viewBox="0 0 800 500">
<rect width="800" height="500" fill="#A8C8E8"/>
<path d="M 608.33,404.33 L 612.32,404.27 L 611.64,406.19 L 608.33,404.33 Z M 605.36,406.25 L 600.89,403.96 L 604.11,403.55 L 605.36,406.25 Z M 636.61,379.83 L 639.29,381.27 L 633.77,382.96 L 636.61,379.83 Z M 650.00,350.85 L 641.05,346.75 L 647.20,344.21 L 650.00,350.85 Z M 640.16,311.22 L 638.71,309.51 L 645.35,310.29 L 640.16,311.22 Z M 631.21,268.40 L 632.91,270.07 L 632.33,270.46 L 631.21,268.40 Z M 614.20,248.82 L 609.33,249.20 L 609.46,247.89 L 614.20,248.82 Z M 593.89,224.11 L 595.78,224.81 L 594.04,226.85 L 593.89,224.11 Z M 193.02,121.76 L 194.32,123.40 L 191.43,123.82 L 193.02,121.76 Z M 150.14,94.06 L 151.67,94.14 L 150.00,94.88 L 150.14,94.06 Z M 246.51,138.28 L 232.89,138.28 L 240.69,143.26 L 232.48,145.10 L 216.28,123.80 L 203.12,120.30 L 199.97,113.89 L 188.60,109.40 L 177.59,109.27 L 181.58,107.78 L 177.77,105.09 L 185.05,103.15 L 165.90,104.67 L 167.35,100.39 L 164.44,100.00 L 169.08,96.90 L 151.41,95.31 L 178.93,93.75 L 175.46,96.47 L 189.96,96.47 L 188.78,101.20 L 194.86,97.70 L 194.32,101.56 L 209.68,100.78 L 207.05,104.67 L 216.61,105.27 L 208.81,110.53 L 216.58,108.10 L 216.34,114.43 L 222.41,115.20 L 220.70,108.56 L 226.36,110.99 L 226.51,115.80 L 236.70,122.94 L 234.43,127.00 L 242.16,126.12 L 241.25,133.87 L 246.51,138.28 Z M 568.56,248.72 L 568.68,249.36 L 567.89,249.94 L 568.56,248.72 Z" fill="#4A90D9" stroke="#1a5fa8" stroke-width="1.2"/>
</svg>