<svg xmlns="http://www.w3.org/2000/svg" width="800" height="500" viewBox="0 0 800 500">
<rect width="800" height="500" fill="#A8C8E8"/>
<path d="M 553.81,404.33 L 556.76,404.27 L 556.26,406.19 L 553.81,404.33 Z M 551.62,406.25 L 548.32,403.96 L 550.70,403.55 L 551.62,406.25 Z M 574.69,379.83 L 576.67,381.27 L 572.60,382.96 L 574.69,379.83 Z M 584.58,350.85 L 577.97,346.75 L 582.51,344.21 L 584.58,350.85 Z M 577.31,311.22 L 576.24,309.51 L 581.15,310.29 L 577.31,311.22 Z M 570.71,268.40 L 571.96,270.07 L 571.53,270.46 L 570.71,268.40 Z M 558.15,248.82 L 554.55,249.20 L 554.64,247.89 L 558.15,248.82 Z M 543.15,224.11 L 544.55,224.81 L 543.26,226.85 L 543.15,224.11 Z M 247.19,121.76 L 248.14,123.40 L 246.01,123.82 L 247.19,121.76 Z M 215.53,94.06 L 216.66,94.14 L 215.42,94.88 L 215.53,94.06 Z M 286.68,138.28 L 276.62,138.28 L 282.38,143.26 L 276.32,145.10 L 264.36,123.80 L 254.65,120.30 L 252.32,113.89 L 243.92,109.40 L 235.79,109.27 L 238.74,107.78 L 235.93,105.09 L 241.30,103.15 L 227.17,104.67 L 228.23,100.39 L 226.08,100.00 L 229.51,96.90 L 216.47,95.31 L 236.78,93.75 L 234.22,96.47 L 244.92,96.47 L 244.05,101.20 L 248.55,97.70 L 248.14,101.56 L 259.48,100.78 L 257.54,104.67 L 264.60,105.27 L 258.84,110.53 L 264.58,108.10 L 264.41,114.43 L 268.88,115.20 L 267.62,108.56 L 271.80,110.99 L 271.91,115.80 L 279.44,122.94 L 277.76,127.00 L 283.46,126.12 L 282.79,133.87 L 286.68,138.28 Z M 524.45,248.72 L 524.54,249.36 L 523.96,249.94 L 524.45,248.72 Z" fill="#4A90D9" stroke="#1a5fa8" stroke-width="1.2"/>
</svg>