<svg xmlns="http://www.w3.org/2000/svg" width="800" height="500" viewBox="0 0 800 500">
<rect width="800" height="500" fill="#A8C8E8"/>
<path d="M 718.32,470.38 L 718.80,463.59 L 729.91,455.75 L 752.90,468.86 L 765.69,468.39 L 754.58,467.01 L 762.65,463.64 L 797.30,463.78 L 800.00,462.20 L 800.00,500.00 L 780.35,500.00 L 718.32,470.38 Z" fill="#E8E0D0" stroke="#B8B0A0" stroke-width="0.5"/>
<path d="M 534.11,84.05 L 547.09,79.60 L 569.21,87.88 L 611.88,44.78 L 639.70,42.70 L 628.88,51.17 L 638.01,50.85 L 632.98,56.29 L 665.43,50.80 L 659.25,55.87 L 665.65,53.99 L 667.06,63.46 L 641.71,109.83 L 656.66,116.89 L 641.88,130.08 L 650.73,158.59 L 634.61,192.47 L 638.78,181.92 L 610.79,211.85 L 585.52,215.00 L 559.21,241.83 L 523.85,240.73 L 534.11,84.05 Z M 700.52,126.89 L 701.84,133.70 L 699.23,133.70 L 700.52,126.89 Z M 703.63,115.36 L 703.88,118.04 L 686.57,134.75 L 703.63,115.36 Z M 670.78,109.67 L 672.00,113.75 L 670.53,113.01 L 670.78,109.67 Z M 660.11,103.11 L 668.61,99.88 L 664.57,103.89 L 660.11,103.11 Z M 687.99,80.86 L 685.57,83.91 L 681.69,86.14 L 676.32,87.00 L 695.17,66.55 L 687.99,80.86 Z M 669.03,118.53 L 667.87,120.79 L 662.87,116.82 L 669.03,118.53 Z M 682.10,73.42 L 679.75,74.08 L 679.39,73.60 L 682.10,73.42 Z M 685.34,71.58 L 683.16,72.78 L 682.80,72.09 L 685.34,71.58 Z M 693.00,64.43 L 691.38,66.10 L 691.01,64.42 L 693.00,64.43 Z" fill="#C8D8E8" stroke="#8BAABB" stroke-width="0.8"/>
<path d="M 426.16,390.52 L 449.41,381.17 L 460.36,382.81 L 467.54,372.68 L 488.08,367.95 L 480.68,354.94 L 503.77,351.60 L 534.10,358.80 L 539.88,355.39 L 573.26,378.01 L 614.79,386.94 L 615.73,397.08 L 661.87,386.36 L 675.54,395.92 L 700.06,392.13 L 714.26,399.85 L 703.54,421.45 L 712.08,426.96 L 697.53,428.48 L 693.12,434.27 L 703.54,440.26 L 686.36,450.09 L 637.08,449.48 L 633.68,448.91 L 636.69,447.15 L 632.92,444.73 L 625.92,449.10 L 621.60,442.75 L 603.08,440.50 L 587.67,441.60 L 605.72,442.11 L 620.09,449.35 L 579.85,443.46 L 522.00,426.08 L 452.86,421.91 L 416.80,406.25 L 426.16,390.52 Z M 713.95,446.03 L 715.55,449.38 L 711.84,449.67 L 713.95,446.03 Z M 708.32,444.71 L 706.78,445.83 L 704.75,443.74 L 708.32,444.71 Z" fill="#C8D8E8" stroke="#8BAABB" stroke-width="0.8"/>
<path d="M 533.31,341.20 L 524.36,320.75 L 533.26,304.54 L 638.11,257.52 L 662.68,255.89 L 683.53,242.78 L 728.21,237.55 L 742.11,248.99 L 758.79,244.07 L 800.00,249.40 L 800.00,462.20 L 797.30,463.78 L 762.65,463.64 L 763.90,454.70 L 749.57,453.71 L 738.03,440.29 L 751.89,430.76 L 724.82,433.76 L 724.15,426.54 L 715.60,434.18 L 700.15,431.11 L 712.08,426.96 L 703.54,421.45 L 714.26,399.85 L 700.06,392.13 L 675.54,395.92 L 665.14,386.47 L 648.24,386.24 L 641.99,392.89 L 615.73,397.08 L 614.79,386.94 L 573.26,378.01 L 539.88,355.39 L 508.31,353.89 L 533.31,341.20 Z M 724.11,442.87 L 718.80,442.64 L 717.96,440.50 L 724.11,442.87 Z M 730.76,433.76 L 728.21,438.93 L 719.80,436.84 L 730.76,433.76 Z" fill="#C8D8E8" stroke="#8BAABB" stroke-width="0.8"/>
<path d="M 37.03,45.63 L 40.41,53.47 L 39.28,46.71 L 74.29,43.87 L 91.54,34.21 L 97.48,46.67 L 94.15,32.42 L 130.26,28.18 L 187.04,26.63 L 197.16,33.74 L 186.78,31.35 L 174.03,37.69 L 194.46,40.83 L 184.28,34.08 L 192.77,35.08 L 203.66,49.79 L 205.64,41.92 L 244.37,46.13 L 242.19,40.35 L 282.20,29.29 L 267.71,31.42 L 271.82,23.23 L 253.29,17.26 L 275.34,6.25 L 242.04,17.04 L 283.35,0.00 L 732.47,0.00 L 696.75,64.48 L 685.50,45.62 L 667.78,41.38 L 677.17,26.72 L 672.94,12.57 L 661.63,23.65 L 660.72,20.64 L 652.75,22.90 L 646.66,26.25 L 658.72,26.07 L 642.25,41.92 L 611.88,44.78 L 569.21,87.88 L 547.09,79.60 L 534.11,84.05 L 533.29,93.75 L 306.93,94.04 L 305.80,136.79 L 249.84,137.86 L 270.08,142.29 L 297.98,163.12 L 330.02,170.97 L 350.38,195.62 L 379.96,200.53 L 374.68,225.05 L 212.90,227.95 L 154.34,288.33 L 171.42,303.51 L 161.43,309.46 L 152.50,343.65 L 76.17,296.82 L 88.99,302.07 L 85.14,296.03 L 58.47,288.83 L 0.00,258.96 L 0.00,46.41 L 37.03,45.63 Z M 763.13,36.12 L 760.11,44.76 L 754.53,48.73 L 763.13,36.12 Z M 770.83,27.78 L 769.00,31.42 L 769.53,29.25 L 768.22,23.01 L 770.83,27.78 Z M 237.86,18.83 L 239.64,21.97 L 200.13,29.70 L 237.86,18.83 Z" fill="#C8D8E8" stroke="#8BAABB" stroke-width="0.8"/>
<path d="M 480.68,354.94 L 488.08,367.95 L 467.54,372.68 L 460.36,382.81 L 449.41,381.17 L 426.16,390.52 L 416.80,406.25 L 356.92,392.33 L 265.49,389.08 L 150.00,343.88 L 160.61,333.38 L 161.43,309.46 L 171.42,303.51 L 154.34,288.33 L 212.90,227.95 L 374.68,225.05 L 379.96,200.53 L 350.38,195.62 L 330.02,170.97 L 297.98,163.12 L 270.08,142.29 L 249.84,137.86 L 305.80,136.79 L 306.93,94.04 L 533.29,93.75 L 523.85,240.73 L 579.64,243.40 L 601.77,255.42 L 608.17,243.87 L 616.72,244.34 L 602.24,234.94 L 650.00,253.61 L 533.26,304.54 L 524.36,320.75 L 533.31,341.20 L 508.31,353.89 L 480.68,354.94 Z" fill="#4A90D9" stroke="#1a5fa8" stroke-width="1.2"/>
<path d="M 556.29,258.03 L 554.59,270.31 L 542.17,276.28 L 513.86,281.19 L 502.61,272.72 L 574.17,250.66 L 556.29,258.03 Z" fill="#A8C8E8" stroke="none"/>
<path d="M 554.59,391.77 L 531.61,379.69 L 549.18,379.96 L 554.59,391.77 Z" fill="#A8C8E8" stroke="none"/>
<path d="M 583.49,385.48 L 582.58,387.06 L 571.63,388.62 L 583.49,385.48 Z" fill="#A8C8E8" stroke="none"/>
<path d="M 171.49,243.88 L 163.39,240.84 L 155.45,245.91 L 159.62,239.13 L 125.33,227.86 L 102.56,236.51 L 114.74,228.90 L 109.42,225.47 L 81.28,232.32 L 86.37,220.79 L 105.95,222.50 L 80.90,211.60 L 73.31,218.87 L 61.98,215.11 L 86.37,200.31 L 77.81,209.77 L 106.42,218.13 L 118.74,212.90 L 115.31,222.16 L 168.36,239.87 L 171.49,243.88 Z" fill="#A8C8E8" stroke="none"/>
<path d="M 14.13,154.17 L 0.00,150.25 L 0.00,148.84 L 14.13,154.17 Z" fill="#A8C8E8" stroke="none"/>
</svg>