<svg xmlns="http://www.w3.org/2000/svg" width="800" height="500" viewBox="0 0 800 500">
<rect width="800" height="500" fill="#A8C8E8"/>
<path d="M 588.76,470.38 L 589.05,463.59 L 595.63,455.75 L 609.27,468.86 L 616.85,468.39 L 610.26,467.01 L 615.05,463.64 L 635.59,463.78 L 637.19,462.20 L 637.19,500.00 L 625.54,500.00 L 588.76,470.38 Z" fill="#E8E0D0" stroke="#B8B0A0" stroke-width="0.5"/>
<path d="M 479.52,84.05 L 487.22,79.60 L 500.34,87.88 L 525.64,44.78 L 542.14,42.70 L 535.72,51.17 L 541.13,50.85 L 538.15,56.29 L 557.39,50.80 L 553.73,55.87 L 557.52,53.99 L 558.36,63.46 L 543.33,109.83 L 552.20,116.89 L 543.43,130.08 L 548.68,158.59 L 539.12,192.47 L 541.59,181.92 L 524.99,211.85 L 510.01,215.00 L 494.41,241.83 L 473.44,240.73 L 479.52,84.05 Z M 578.20,126.89 L 578.99,133.70 L 577.44,133.70 L 578.20,126.89 Z M 580.04,115.36 L 580.19,118.04 L 569.93,134.75 L 580.04,115.36 Z M 560.57,109.67 L 561.29,113.75 L 560.42,113.01 L 560.57,109.67 Z M 554.24,103.11 L 559.28,99.88 L 556.88,103.89 L 554.24,103.11 Z M 570.77,80.86 L 569.34,83.91 L 567.04,86.14 L 563.85,87.00 L 575.03,66.55 L 570.77,80.86 Z M 559.53,118.53 L 558.84,120.79 L 555.88,116.82 L 559.53,118.53 Z M 567.28,73.42 L 565.89,74.08 L 565.67,73.60 L 567.28,73.42 Z M 569.20,71.58 L 567.91,72.78 L 567.69,72.09 L 569.20,71.58 Z M 573.75,64.43 L 572.78,66.10 L 572.56,64.42 L 573.75,64.43 Z" fill="#C8D8E8" stroke="#8BAABB" stroke-width="0.8"/>
<path d="M 415.51,390.52 L 429.30,381.17 L 435.79,382.81 L 440.05,372.68 L 452.23,367.95 L 447.84,354.94 L 461.53,351.60 L 479.52,358.80 L 482.95,355.39 L 502.74,378.01 L 527.37,386.94 L 527.93,397.08 L 555.28,386.36 L 563.39,395.92 L 577.93,392.13 L 586.35,399.85 L 579.99,421.45 L 585.06,426.96 L 576.43,428.48 L 573.82,434.27 L 579.99,440.26 L 569.81,450.09 L 540.59,449.48 L 538.57,448.91 L 540.35,447.15 L 538.12,444.73 L 533.96,449.10 L 531.41,442.75 L 520.42,440.50 L 511.28,441.60 L 521.99,442.11 L 530.51,449.35 L 506.65,443.46 L 472.34,426.08 L 431.34,421.91 L 409.97,406.25 L 415.51,390.52 Z M 586.17,446.03 L 587.12,449.38 L 584.91,449.67 L 586.17,446.03 Z M 582.83,444.71 L 581.92,445.83 L 580.71,443.74 L 582.83,444.71 Z" fill="#C8D8E8" stroke="#8BAABB" stroke-width="0.8"/>
<path d="M 479.05,341.20 L 473.74,320.75 L 479.02,304.54 L 541.19,257.52 L 555.76,255.89 L 568.13,242.78 L 594.62,237.55 L 602.86,248.99 L 612.76,244.07 L 637.19,249.40 L 637.19,462.20 L 635.59,463.78 L 615.05,463.64 L 615.79,454.70 L 607.29,453.71 L 600.45,440.29 L 608.67,430.76 L 592.61,433.76 L 592.21,426.54 L 587.15,434.18 L 577.99,431.11 L 585.06,426.96 L 579.99,421.45 L 586.35,399.85 L 577.93,392.13 L 563.39,395.92 L 557.22,386.47 L 547.20,386.24 L 543.50,392.89 L 527.93,397.08 L 527.37,386.94 L 502.74,378.01 L 482.95,355.39 L 464.23,353.89 L 479.05,341.20 Z M 592.19,442.87 L 589.04,442.64 L 588.54,440.50 L 592.19,442.87 Z M 596.13,433.76 L 594.62,438.93 L 589.64,436.84 L 596.13,433.76 Z" fill="#C8D8E8" stroke="#8BAABB" stroke-width="0.8"/>
<path d="M 184.76,45.63 L 186.77,53.47 L 186.10,46.71 L 206.86,43.87 L 217.09,34.21 L 220.61,46.67 L 218.64,32.42 L 240.05,28.18 L 273.72,26.63 L 279.72,33.74 L 273.56,31.35 L 266.00,37.69 L 278.12,40.83 L 272.08,34.08 L 277.11,35.08 L 283.57,49.79 L 284.75,41.92 L 307.72,46.13 L 306.42,40.35 L 330.14,29.29 L 321.55,31.42 L 323.99,23.23 L 313.00,17.26 L 326.08,6.25 L 306.33,17.04 L 330.83,0.00 L 597.15,0.00 L 575.97,64.48 L 569.29,45.62 L 558.79,41.38 L 564.36,26.72 L 561.85,12.57 L 555.14,23.65 L 554.60,20.64 L 549.88,22.90 L 546.27,26.25 L 553.42,26.07 L 543.65,41.92 L 525.64,44.78 L 500.34,87.88 L 487.22,79.60 L 479.52,84.05 L 479.04,93.75 L 344.81,94.04 L 344.14,136.79 L 310.96,137.86 L 322.96,142.29 L 339.50,163.12 L 358.50,170.97 L 370.57,195.62 L 388.12,200.53 L 384.99,225.05 L 289.05,227.95 L 254.33,288.33 L 264.46,303.51 L 258.53,309.46 L 253.24,343.65 L 207.98,296.82 L 215.58,302.07 L 213.29,296.03 L 197.48,288.83 L 162.81,258.96 L 162.81,46.41 L 184.76,45.63 Z M 615.33,36.12 L 613.54,44.76 L 610.23,48.73 L 615.33,36.12 Z M 619.90,27.78 L 618.81,31.42 L 619.13,29.25 L 618.35,23.01 L 619.90,27.78 Z M 303.86,18.83 L 304.91,21.97 L 281.48,29.70 L 303.86,18.83 Z" fill="#C8D8E8" stroke="#8BAABB" stroke-width="0.8"/>
<path d="M 447.84,354.94 L 452.23,367.95 L 440.05,372.68 L 435.79,382.81 L 429.30,381.17 L 415.51,390.52 L 409.97,406.25 L 374.45,392.33 L 320.24,389.08 L 251.75,343.88 L 258.05,333.38 L 258.53,309.46 L 264.46,303.51 L 254.33,288.33 L 289.05,227.95 L 384.99,225.05 L 388.12,200.53 L 370.57,195.62 L 358.50,170.97 L 339.50,163.12 L 322.96,142.29 L 310.96,137.86 L 344.14,136.79 L 344.81,94.04 L 479.04,93.75 L 473.44,240.73 L 506.53,243.40 L 519.64,255.42 L 523.44,243.87 L 528.51,244.34 L 519.92,234.94 L 548.25,253.61 L 479.02,304.54 L 473.74,320.75 L 479.05,341.20 L 464.23,353.89 L 447.84,354.94 Z" fill="#4A90D9" stroke="#1a5fa8" stroke-width="1.2"/>
<path d="M 492.68,258.03 L 491.67,270.31 L 484.31,276.28 L 467.51,281.19 L 460.85,272.72 L 503.28,250.66 L 492.68,258.03 Z" fill="#A8C8E8" stroke="none"/>
<path d="M 491.67,391.77 L 478.04,379.69 L 488.46,379.96 L 491.67,391.77 Z" fill="#A8C8E8" stroke="none"/>
<path d="M 508.81,385.48 L 508.27,387.06 L 501.77,388.62 L 508.81,385.48 Z" fill="#A8C8E8" stroke="none"/>
<path d="M 264.50,243.88 L 259.69,240.84 L 254.99,245.91 L 257.46,239.13 L 237.12,227.86 L 223.63,236.51 L 230.85,228.90 L 227.69,225.47 L 211.01,232.32 L 214.02,220.79 L 225.63,222.50 L 210.78,211.60 L 206.28,218.87 L 199.56,215.11 L 214.02,200.31 L 208.95,209.77 L 225.91,218.13 L 233.22,212.90 L 231.18,222.16 L 262.64,239.87 L 264.50,243.88 Z" fill="#A8C8E8" stroke="none"/>
<path d="M 171.19,154.17 L 162.81,150.25 L 162.81,148.84 L 171.19,154.17 Z" fill="#A8C8E8" stroke="none"/>
</svg>