<svg xmlns="http://www.w3.org/2000/svg" width="800" height="500" viewBox="0 0 800 500">
<rect width="800" height="500" fill="#A8C8E8"/>
<path d="M 133.31,10.16 L 143.56,0.00 L 171.93,0.00 L 200.94,30.52 L 197.55,19.86 L 227.55,12.29 L 232.55,23.05 L 235.50,23.81 L 245.13,19.86 L 232.63,10.91 L 240.62,0.00 L 391.78,0.00 L 389.23,3.63 L 299.95,10.94 L 297.54,38.55 L 159.05,37.38 L 145.84,52.89 L 133.31,10.16 Z M 205.70,10.42 L 184.05,6.95 L 182.78,0.00 L 228.94,0.00 L 205.70,10.42 Z M 616.12,13.90 L 538.94,26.22 L 478.90,0.00 L 626.58,0.00 L 616.12,13.90 Z" fill="#E8E0D0" stroke="#B8B0A0" stroke-width="0.5"/>
<path d="M 525.14,498.27 L 511.54,452.40 L 491.31,456.87 L 517.28,392.57 L 484.38,431.31 L 492.37,405.25 L 474.41,422.53 L 477.68,395.57 L 466.43,403.14 L 464.61,389.30 L 490.17,369.96 L 486.79,365.60 L 460.70,380.63 L 448.32,371.03 L 441.56,411.76 L 421.80,397.63 L 482.53,297.81 L 513.86,295.41 L 551.98,271.04 L 597.24,276.00 L 621.15,259.35 L 644.25,264.64 L 645.23,218.87 L 604.26,195.62 L 626.10,176.00 L 650.00,173.53 L 644.52,114.09 L 751.96,119.94 L 755.99,145.51 L 778.88,135.50 L 800.00,143.86 L 800.00,500.00 L 536.91,500.00 L 525.14,498.27 Z" fill="#C8D8E8" stroke="#8BAABB" stroke-width="0.8"/>
<path d="M 778.88,135.50 L 755.99,145.51 L 749.45,119.58 L 402.74,113.14 L 323.30,150.66 L 233.41,148.20 L 150.00,167.34 L 138.08,142.04 L 174.51,120.43 L 182.16,130.97 L 208.92,133.33 L 265.16,120.40 L 296.44,132.26 L 314.64,126.88 L 328.62,135.36 L 350.86,119.96 L 346.73,96.95 L 367.85,94.35 L 370.35,88.33 L 344.33,95.19 L 345.48,117.83 L 329.24,131.88 L 308.36,121.58 L 284.36,125.36 L 266.42,105.40 L 257.41,119.46 L 208.92,131.10 L 187.43,108.69 L 186.31,121.58 L 165.46,114.71 L 172.70,100.24 L 171.68,94.72 L 163.39,120.52 L 145.68,129.89 L 141.98,113.36 L 154.86,104.24 L 138.83,107.53 L 137.71,92.11 L 153.30,38.57 L 297.54,38.55 L 299.95,10.94 L 389.23,3.63 L 391.78,0.00 L 478.90,0.00 L 538.94,26.22 L 616.12,13.90 L 626.58,0.00 L 800.00,0.00 L 800.00,143.86 L 778.88,135.50 Z" fill="#C8D8E8" stroke="#8BAABB" stroke-width="0.8"/>
<path d="M 650.00,173.53 L 626.10,176.00 L 604.26,195.62 L 645.23,218.87 L 644.25,264.64 L 621.15,259.35 L 597.24,276.00 L 551.98,271.04 L 513.86,295.41 L 482.53,297.81 L 420.86,386.86 L 434.75,341.68 L 396.97,376.36 L 400.84,339.02 L 396.41,356.40 L 375.85,353.02 L 364.66,330.78 L 390.72,307.89 L 378.34,316.43 L 376.65,303.16 L 351.32,319.63 L 356.85,298.29 L 395.32,285.40 L 388.56,277.92 L 415.80,279.03 L 414.58,290.32 L 433.69,279.96 L 406.57,272.49 L 413.33,264.93 L 397.32,272.65 L 397.57,257.57 L 362.59,288.50 L 364.63,267.17 L 356.42,273.31 L 344.02,261.00 L 362.59,237.20 L 403.71,239.42 L 420.08,228.66 L 423.45,249.99 L 445.47,257.90 L 423.33,241.06 L 433.71,222.69 L 399.45,233.43 L 364.63,225.37 L 298.03,258.62 L 313.88,241.47 L 303.77,237.20 L 276.83,260.74 L 292.26,223.64 L 316.13,224.39 L 317.26,216.83 L 292.51,214.70 L 249.53,237.20 L 211.53,205.65 L 259.66,164.46 L 194.64,192.44 L 150.00,167.34 L 233.41,148.20 L 323.30,150.66 L 402.74,113.14 L 644.52,114.09 L 650.00,173.53 Z M 290.25,364.05 L 273.67,368.04 L 282.28,361.43 L 278.90,344.26 L 290.25,364.05 Z M 274.28,357.40 L 267.25,364.82 L 260.67,350.00 L 274.28,357.40 Z M 248.31,371.03 L 229.18,359.20 L 253.59,343.02 L 262.01,357.07 L 248.31,371.03 Z M 298.78,329.82 L 291.28,344.26 L 287.13,336.69 L 298.78,329.82 Z M 326.37,339.02 L 307.44,348.51 L 310.61,332.44 L 326.37,328.26 L 326.37,339.02 Z M 228.62,341.54 L 223.64,337.64 L 236.03,327.10 L 241.56,341.06 L 228.62,341.54 Z M 322.89,306.74 L 313.73,305.26 L 320.64,297.13 L 322.89,306.74 Z M 220.27,304.69 L 242.79,294.99 L 234.80,306.74 L 220.27,304.69 Z M 200.94,299.27 L 199.81,292.86 L 229.18,284.33 L 224.65,298.13 L 200.94,299.27 Z M 280.02,281.03 L 286.88,304.69 L 264.26,309.93 L 256.29,302.47 L 280.02,281.03 Z M 357.15,287.09 L 331.01,292.90 L 347.75,277.92 L 357.15,287.09 Z M 263.97,235.05 L 272.44,236.89 L 263.24,257.57 L 242.79,239.42 L 263.97,235.05 Z" fill="#4A90D9" stroke="#1a5fa8" stroke-width="1.2"/>
</svg>