<svg xmlns="http://www.w3.org/2000/svg" width="800" height="500" viewBox="0 0 800 500">
<rect width="800" height="500" fill="#A8C8E8"/>
<path d="M 152.54,10.16 L 162.05,0.00 L 188.38,0.00 L 215.29,30.52 L 212.15,19.86 L 239.98,12.29 L 244.63,23.05 L 247.36,23.81 L 256.30,19.86 L 244.70,10.91 L 252.11,0.00 L 392.37,0.00 L 390.01,3.63 L 307.17,10.94 L 304.93,38.55 L 176.42,37.38 L 164.17,52.89 L 152.54,10.16 Z M 219.71,10.42 L 199.62,6.95 L 198.44,0.00 L 241.27,0.00 L 219.71,10.42 Z M 600.54,13.90 L 528.92,26.22 L 473.21,0.00 L 610.24,0.00 L 600.54,13.90 Z" fill="#E8E0D0" stroke="#B8B0A0" stroke-width="0.5"/>
<path d="M 516.11,498.27 L 503.50,452.40 L 484.72,456.87 L 508.82,392.57 L 478.30,431.31 L 485.71,405.25 L 469.04,422.53 L 472.08,395.57 L 461.64,403.14 L 459.95,389.30 L 483.67,369.96 L 480.54,365.60 L 456.32,380.63 L 444.84,371.03 L 438.56,411.76 L 420.23,397.63 L 476.58,297.81 L 505.65,295.41 L 541.02,271.04 L 583.01,276.00 L 605.20,259.35 L 626.64,264.64 L 627.55,218.87 L 589.53,195.62 L 609.80,176.00 L 631.97,173.53 L 626.89,114.09 L 726.58,119.94 L 730.32,145.51 L 751.56,135.50 L 771.16,143.86 L 771.16,500.00 L 527.04,500.00 L 516.11,498.27 Z" fill="#C8D8E8" stroke="#8BAABB" stroke-width="0.8"/>
<path d="M 751.56,135.50 L 730.32,145.51 L 724.25,119.58 L 402.54,113.14 L 328.83,150.66 L 245.42,148.20 L 168.03,167.34 L 156.96,142.04 L 190.77,120.43 L 197.87,130.97 L 222.70,133.33 L 274.88,120.40 L 303.91,132.26 L 320.79,126.88 L 333.77,135.36 L 354.41,119.96 L 350.57,96.95 L 370.16,94.35 L 372.49,88.33 L 348.34,95.19 L 349.41,117.83 L 334.34,131.88 L 314.97,121.58 L 292.69,125.36 L 276.05,105.40 L 267.69,119.46 L 222.70,131.10 L 202.76,108.69 L 201.72,121.58 L 182.37,114.71 L 189.09,100.24 L 188.14,94.72 L 180.45,120.52 L 164.02,129.89 L 160.58,113.36 L 172.53,104.24 L 157.66,107.53 L 156.63,92.11 L 171.09,38.57 L 304.93,38.55 L 307.17,10.94 L 390.01,3.63 L 392.37,0.00 L 473.21,0.00 L 528.92,26.22 L 600.54,13.90 L 610.24,0.00 L 771.16,0.00 L 771.16,143.86 L 751.56,135.50 Z" fill="#C8D8E8" stroke="#8BAABB" stroke-width="0.8"/>
<path d="M 631.97,173.53 L 609.80,176.00 L 589.53,195.62 L 627.55,218.87 L 626.64,264.64 L 605.20,259.35 L 583.01,276.00 L 541.02,271.04 L 505.65,295.41 L 476.58,297.81 L 419.35,386.86 L 432.25,341.68 L 397.19,376.36 L 400.78,339.02 L 396.67,356.40 L 377.59,353.02 L 367.21,330.78 L 391.39,307.89 L 379.90,316.43 L 378.33,303.16 L 354.83,319.63 L 359.96,298.29 L 395.66,285.40 L 389.39,277.92 L 414.66,279.03 L 413.53,290.32 L 431.26,279.96 L 406.10,272.49 L 412.37,264.93 L 397.51,272.65 L 397.75,257.57 L 365.28,288.50 L 367.18,267.17 L 359.56,273.31 L 348.05,261.00 L 365.28,237.20 L 403.45,239.42 L 418.63,228.66 L 421.76,249.99 L 442.19,257.90 L 421.64,241.06 L 431.28,222.69 L 399.49,233.43 L 367.18,225.37 L 305.38,258.62 L 320.09,241.47 L 310.71,237.20 L 285.71,260.74 L 300.03,223.64 L 322.18,224.39 L 323.23,216.83 L 300.26,214.70 L 260.38,237.20 L 225.12,205.65 L 269.78,164.46 L 209.44,192.44 L 168.03,167.34 L 245.42,148.20 L 328.83,150.66 L 402.54,113.14 L 626.89,114.09 L 631.97,173.53 Z M 298.17,364.05 L 282.77,368.04 L 290.77,361.43 L 287.64,344.26 L 298.17,364.05 Z M 283.34,357.40 L 276.83,364.82 L 270.72,350.00 L 283.34,357.40 Z M 259.25,371.03 L 241.50,359.20 L 264.15,343.02 L 271.96,357.07 L 259.25,371.03 Z M 306.08,329.82 L 299.12,344.26 L 295.27,336.69 L 306.08,329.82 Z M 331.68,339.02 L 314.11,348.51 L 317.06,332.44 L 331.68,328.26 L 331.68,339.02 Z M 240.98,341.54 L 236.36,337.64 L 247.85,327.10 L 252.98,341.06 L 240.98,341.54 Z M 328.45,306.74 L 319.95,305.26 L 326.36,297.13 L 328.45,306.74 Z M 233.23,304.69 L 254.12,294.99 L 246.71,306.74 L 233.23,304.69 Z M 215.29,299.27 L 214.24,292.86 L 241.50,284.33 L 237.29,298.13 L 215.29,299.27 Z M 288.67,281.03 L 295.03,304.69 L 274.05,309.93 L 266.65,302.47 L 288.67,281.03 Z M 360.24,287.09 L 335.98,292.90 L 351.52,277.92 L 360.24,287.09 Z M 273.78,235.05 L 281.64,236.89 L 273.10,257.57 L 254.12,239.42 L 273.78,235.05 Z" fill="#4A90D9" stroke="#1a5fa8" stroke-width="1.2"/>
</svg>