<svg xmlns="http://www.w3.org/2000/svg" width="800" height="500" viewBox="0 0 800 500">
<rect width="800" height="500" fill="#A8C8E8"/>
<path d="M 313.13,26.77 L 273.74,30.23 L 293.44,20.66 L 292.31,5.88 L 284.77,2.67 L 300.26,0.00 L 314.91,0.00 L 312.87,2.98 L 313.13,26.77 Z" fill="#E8E0D0" stroke="#B8B0A0" stroke-width="0.5"/>
<path d="M 239.07,301.36 L 238.37,286.08 L 247.03,285.36 L 252.65,279.19 L 264.24,283.13 L 275.45,280.59 L 281.02,276.52 L 289.64,276.15 L 291.77,269.93 L 300.59,267.97 L 299.63,264.88 L 313.92,264.28 L 317.36,256.93 L 324.87,253.71 L 330.20,246.70 L 323.95,236.00 L 336.24,237.19 L 346.18,233.24 L 355.91,240.93 L 353.83,256.21 L 348.44,264.59 L 368.43,270.80 L 366.24,278.36 L 375.15,289.52 L 368.45,300.09 L 360.99,304.69 L 362.73,314.23 L 355.46,335.40 L 358.85,355.68 L 366.11,360.56 L 365.39,377.58 L 370.13,378.52 L 368.68,382.02 L 375.02,384.32 L 386.46,397.70 L 398.85,400.98 L 404.45,406.25 L 410.20,402.21 L 417.75,402.80 L 417.98,395.52 L 426.13,388.64 L 438.52,392.22 L 440.30,386.25 L 458.21,384.07 L 468.42,372.71 L 477.49,370.83 L 481.43,375.19 L 490.08,377.10 L 503.79,374.21 L 526.09,377.96 L 527.59,369.60 L 517.94,360.88 L 525.37,349.26 L 535.79,354.91 L 549.50,353.50 L 552.84,349.77 L 566.07,346.44 L 566.07,500.00 L 233.93,500.00 L 233.93,305.03 L 239.07,301.36 Z" fill="#C8D8E8" stroke="#8BAABB" stroke-width="0.8"/>
<path d="M 552.84,349.77 L 549.50,353.50 L 535.79,354.91 L 525.37,349.26 L 517.94,360.88 L 527.59,369.60 L 526.09,377.96 L 495.51,370.96 L 478.11,338.93 L 473.36,335.87 L 468.88,312.61 L 461.79,314.98 L 454.46,312.99 L 454.70,307.45 L 446.86,301.27 L 438.31,287.48 L 436.89,279.68 L 446.54,259.37 L 443.11,251.79 L 452.89,244.31 L 470.06,243.46 L 469.70,237.32 L 474.10,236.81 L 467.87,230.67 L 474.99,220.96 L 477.59,207.00 L 483.74,201.69 L 526.85,210.46 L 528.46,215.89 L 526.20,207.20 L 530.72,203.20 L 552.19,203.76 L 560.13,206.07 L 560.89,209.78 L 562.77,207.15 L 565.95,208.31 L 566.07,208.31 L 566.07,346.44 L 552.84,349.77 Z M 559.62,203.96 L 564.49,202.47 L 566.07,202.71 L 566.07,206.19 L 559.62,203.96 Z" fill="#C8D8E8" stroke="#8BAABB" stroke-width="0.8"/>
<path d="M 362.41,107.01 L 339.37,124.88 L 332.99,125.31 L 324.34,137.52 L 329.78,145.80 L 328.66,151.69 L 332.05,154.47 L 339.49,152.49 L 342.38,157.50 L 339.26,162.40 L 325.62,169.67 L 316.87,167.62 L 315.76,171.16 L 307.48,171.84 L 304.01,178.38 L 307.83,194.27 L 296.21,204.49 L 327.14,237.35 L 329.32,248.78 L 317.36,256.93 L 313.92,264.28 L 299.63,264.88 L 300.59,267.97 L 291.77,269.93 L 289.00,276.42 L 264.24,283.13 L 252.65,279.19 L 247.03,285.36 L 239.29,285.52 L 239.07,301.36 L 233.93,305.03 L 233.93,31.32 L 236.89,32.80 L 237.57,29.67 L 240.46,30.57 L 244.60,28.74 L 246.23,23.11 L 257.27,45.08 L 259.86,33.71 L 261.35,35.24 L 261.62,47.97 L 264.21,44.23 L 262.48,35.47 L 269.57,37.95 L 261.38,34.67 L 262.43,31.79 L 277.85,41.44 L 277.24,47.42 L 280.01,42.83 L 281.57,49.73 L 282.09,45.59 L 277.98,39.95 L 287.94,41.87 L 286.07,36.92 L 295.13,43.81 L 291.71,39.43 L 294.41,40.32 L 304.26,50.54 L 310.72,50.37 L 318.78,55.68 L 322.03,61.72 L 309.35,70.67 L 308.23,73.26 L 314.69,67.28 L 308.75,76.70 L 304.12,91.59 L 285.13,91.27 L 287.67,93.86 L 300.97,100.57 L 305.32,96.49 L 311.84,96.17 L 309.67,97.63 L 309.93,100.31 L 313.99,92.99 L 325.95,91.77 L 334.97,94.84 L 339.49,90.47 L 354.31,93.75 L 362.41,107.01 Z M 264.21,3.53 L 277.24,1.22 L 272.31,4.98 L 260.06,5.82 L 256.58,10.15 L 242.75,8.59 L 233.93,9.82 L 233.93,2.07 L 264.21,3.53 Z M 234.53,10.09 L 235.62,15.38 L 233.93,15.37 L 233.93,10.40 L 234.53,10.09 Z M 238.44,15.87 L 244.26,27.08 L 242.99,29.14 L 237.89,28.96 L 235.98,30.84 L 233.93,29.24 L 233.93,15.62 L 238.44,15.87 Z M 311.21,95.42 L 301.54,95.59 L 303.35,93.17 L 307.63,94.75 L 312.27,91.54 L 311.21,95.42 Z M 319.79,74.99 L 318.67,77.51 L 309.09,82.54 L 316.33,73.81 L 319.79,74.99 Z M 310.04,75.91 L 319.21,70.94 L 318.22,73.16 L 315.37,73.92 L 309.35,79.65 L 310.04,75.91 Z M 317.62,70.84 L 314.60,72.07 L 319.16,66.79 L 317.62,70.84 Z M 324.43,66.84 L 319.50,70.07 L 320.19,67.06 L 324.43,66.84 Z M 299.68,93.19 L 301.83,98.07 L 290.15,93.44 L 299.68,93.19 Z M 326.65,85.06 L 329.11,90.41 L 321.07,90.58 L 326.65,85.06 Z M 324.27,79.59 L 326.22,83.96 L 319.44,90.37 L 305.79,92.17 L 307.62,85.34 L 324.27,79.59 Z M 257.36,37.47 L 256.97,39.23 L 255.97,38.04 L 257.36,37.47 Z M 253.46,33.79 L 252.30,30.65 L 252.70,30.54 L 253.46,33.79 Z M 260.79,32.04 L 258.14,33.32 L 258.63,31.59 L 260.79,32.04 Z M 242.86,19.48 L 237.74,11.73 L 239.17,13.11 L 242.86,19.48 Z" fill="#C8D8E8" stroke="#8BAABB" stroke-width="0.8"/>
<path d="M 490.08,377.10 L 481.43,375.19 L 477.49,370.83 L 468.42,372.71 L 458.21,384.07 L 440.30,386.25 L 438.52,392.22 L 426.13,388.64 L 417.98,395.52 L 417.75,402.80 L 410.20,402.21 L 404.45,406.25 L 398.85,400.98 L 386.46,397.70 L 375.02,384.32 L 368.68,382.02 L 370.13,378.52 L 365.39,377.58 L 366.11,360.56 L 359.29,356.49 L 355.20,342.32 L 356.50,327.54 L 362.73,314.23 L 360.99,304.69 L 368.45,300.09 L 375.15,289.52 L 366.24,278.36 L 368.43,270.80 L 348.44,264.59 L 353.83,256.21 L 355.98,242.14 L 349.64,234.25 L 323.95,236.00 L 296.21,204.49 L 307.83,194.27 L 304.01,178.38 L 307.48,171.84 L 315.76,171.16 L 316.87,167.62 L 325.62,169.67 L 339.26,162.40 L 342.38,157.50 L 339.49,152.49 L 332.05,154.47 L 328.66,151.69 L 329.78,145.80 L 324.34,137.52 L 332.99,125.31 L 339.37,124.88 L 362.41,107.01 L 354.31,93.75 L 362.05,101.75 L 379.12,111.88 L 365.28,102.34 L 366.21,100.29 L 393.01,116.83 L 418.99,143.85 L 419.19,159.33 L 410.97,186.23 L 414.74,184.50 L 420.18,167.34 L 426.49,164.36 L 439.43,168.62 L 456.63,184.07 L 459.57,190.92 L 461.18,187.82 L 464.64,188.92 L 474.84,198.57 L 475.08,217.49 L 467.73,231.14 L 473.89,237.40 L 469.70,237.32 L 469.64,243.71 L 452.89,244.31 L 445.99,247.84 L 442.82,253.21 L 446.54,259.37 L 436.81,280.55 L 446.86,301.27 L 454.70,307.45 L 454.25,312.81 L 461.79,314.98 L 468.88,312.61 L 473.36,335.87 L 478.11,338.93 L 494.36,370.48 L 503.79,374.21 L 490.08,377.10 Z M 425.58,161.26 L 420.22,164.74 L 420.79,162.21 L 425.58,161.26 Z" fill="#4A90D9" stroke="#1a5fa8" stroke-width="1.2"/>
<path d="M 566.02,257.90 L 561.29,267.50 L 556.15,263.60 L 550.75,266.11 L 551.92,261.05 L 556.25,261.20 L 553.93,256.40 L 559.14,251.59 L 560.15,244.69 L 566.07,245.63 L 566.07,258.02 L 566.02,257.90 Z" fill="#A8C8E8" stroke="none"/>
<path d="M 240.20,128.14 L 242.22,130.48 L 237.61,130.48 L 239.94,133.09 L 235.09,134.41 L 242.51,136.01 L 237.70,139.81 L 239.74,145.69 L 233.93,156.21 L 233.93,151.45 L 237.29,148.18 L 236.71,144.14 L 234.14,143.53 L 234.41,137.43 L 233.93,137.84 L 233.93,129.96 L 240.20,128.14 Z M 234.66,167.66 L 233.93,166.84 L 233.93,165.35 L 234.66,167.66 Z" fill="#A8C8E8" stroke="none"/>
</svg>