<svg xmlns="http://www.w3.org/2000/svg" width="800" height="500" viewBox="0 0 800 500">
<rect width="800" height="500" fill="#A8C8E8"/>
<path d="M 190.76,26.77 L 95.88,30.23 L 143.34,20.66 L 140.62,5.88 L 122.44,2.67 L 159.76,0.00 L 195.06,0.00 L 190.13,2.98 L 190.76,26.77 Z" fill="#E8E0D0" stroke="#B8B0A0" stroke-width="0.5"/>
<path d="M 12.37,301.36 L 10.68,286.08 L 31.56,285.36 L 45.08,279.19 L 73.00,283.13 L 100.01,280.59 L 113.41,276.52 L 134.19,276.15 L 139.30,269.93 L 160.55,267.97 L 158.25,264.88 L 192.67,264.28 L 200.96,256.93 L 219.03,253.71 L 231.87,246.70 L 216.82,236.00 L 246.42,237.19 L 270.38,233.24 L 293.81,240.93 L 288.79,256.21 L 275.81,264.59 L 323.96,270.80 L 318.70,278.36 L 340.14,289.52 L 324.01,300.09 L 306.04,304.69 L 310.22,314.23 L 292.73,335.40 L 300.90,355.68 L 318.37,360.56 L 316.63,377.58 L 328.06,378.52 L 324.56,382.02 L 339.83,384.32 L 367.38,397.70 L 397.23,400.98 L 410.71,406.25 L 424.57,402.21 L 442.76,402.80 L 443.30,395.52 L 462.95,388.64 L 492.78,392.22 L 497.08,386.25 L 540.20,384.07 L 564.79,372.71 L 586.65,370.83 L 596.15,375.19 L 616.97,377.10 L 650.00,374.21 L 703.71,377.96 L 707.33,369.60 L 684.08,360.88 L 701.96,349.26 L 727.06,354.91 L 760.10,353.50 L 768.14,349.77 L 800.00,346.44 L 800.00,500.00 L 0.00,500.00 L 0.00,305.03 L 12.37,301.36 Z" fill="#C8D8E8" stroke="#8BAABB" stroke-width="0.8"/>
<path d="M 768.14,349.77 L 760.10,353.50 L 727.06,354.91 L 701.96,349.26 L 684.08,360.88 L 707.33,369.60 L 703.71,377.96 L 630.06,370.96 L 588.14,338.93 L 576.71,335.87 L 565.91,312.61 L 548.83,314.98 L 531.17,312.99 L 531.76,307.45 L 512.87,301.27 L 492.28,287.48 L 488.85,279.68 L 512.09,259.37 L 503.84,251.79 L 527.40,244.31 L 568.75,243.46 L 567.89,237.32 L 578.47,236.81 L 563.48,230.67 L 580.63,220.96 L 586.88,207.00 L 601.71,201.69 L 705.53,210.46 L 709.42,215.89 L 703.98,207.20 L 714.85,203.20 L 766.57,203.76 L 785.71,206.07 L 787.54,209.78 L 792.05,207.15 L 799.72,208.31 L 800.00,208.31 L 800.00,346.44 L 768.14,349.77 Z M 784.47,203.96 L 796.19,202.47 L 800.00,202.71 L 800.00,206.19 L 784.47,203.96 Z" fill="#C8D8E8" stroke="#8BAABB" stroke-width="0.8"/>
<path d="M 309.46,107.01 L 253.96,124.88 L 238.60,125.31 L 217.77,137.52 L 230.87,145.80 L 228.16,151.69 L 236.34,154.47 L 254.24,152.49 L 261.21,157.50 L 253.70,162.40 L 220.84,169.67 L 199.76,167.62 L 197.09,171.16 L 177.15,171.84 L 168.79,178.38 L 177.99,194.27 L 150.00,204.49 L 224.51,237.35 L 229.77,248.78 L 200.96,256.93 L 192.67,264.28 L 158.25,264.88 L 160.55,267.97 L 139.30,269.93 L 132.65,276.42 L 73.00,283.13 L 45.08,279.19 L 31.56,285.36 L 12.90,285.52 L 12.37,301.36 L 0.00,305.03 L 0.00,31.32 L 7.13,32.80 L 8.77,29.67 L 15.72,30.57 L 25.70,28.74 L 29.63,23.11 L 56.20,45.08 L 62.46,33.71 L 66.04,35.24 L 66.68,47.97 L 72.93,44.23 L 68.77,35.47 L 85.85,37.95 L 66.10,34.67 L 68.64,31.79 L 105.77,41.44 L 104.32,47.42 L 111.00,42.83 L 114.74,49.73 L 115.99,45.59 L 106.11,39.95 L 130.08,41.87 L 125.58,36.92 L 147.40,43.81 L 139.18,39.43 L 145.68,40.32 L 169.40,50.54 L 184.94,50.37 L 204.37,55.68 L 212.19,61.72 L 181.67,70.67 L 178.96,73.26 L 194.52,67.28 L 180.22,76.70 L 169.05,91.59 L 123.31,91.27 L 129.45,93.86 L 161.46,100.57 L 171.94,96.49 L 187.65,96.17 L 182.42,97.63 L 183.04,100.31 L 192.84,92.99 L 221.65,91.77 L 243.37,94.84 L 254.26,90.47 L 289.96,93.75 L 309.46,107.01 Z M 72.94,3.53 L 104.32,1.22 L 92.44,4.98 L 62.92,5.82 L 54.55,10.15 L 21.25,8.59 L 0.00,9.82 L 0.00,2.07 L 72.94,3.53 Z M 1.44,10.09 L 4.07,15.38 L 0.00,15.37 L 0.00,10.40 L 1.44,10.09 Z M 10.86,15.87 L 24.88,27.08 L 21.83,29.14 L 9.53,28.96 L 4.93,30.84 L 0.00,29.24 L 0.00,15.62 L 10.86,15.87 Z M 186.13,95.42 L 162.85,95.59 L 167.20,93.17 L 177.50,94.75 L 188.68,91.54 L 186.13,95.42 Z M 206.80,74.99 L 204.09,77.51 L 181.04,82.54 L 198.47,73.81 L 206.80,74.99 Z M 183.31,75.91 L 205.41,70.94 L 203.01,73.16 L 196.16,73.92 L 181.67,79.65 L 183.31,75.91 Z M 201.58,70.84 L 194.30,72.07 L 205.28,66.79 L 201.58,70.84 Z M 217.98,66.84 L 206.11,70.07 L 207.76,67.06 L 217.98,66.84 Z M 158.35,93.19 L 163.53,98.07 L 135.41,93.44 L 158.35,93.19 Z M 223.31,85.06 L 229.25,90.41 L 209.88,90.58 L 223.31,85.06 Z M 217.59,79.59 L 222.30,83.96 L 205.97,90.37 L 173.07,92.17 L 177.50,85.34 L 217.59,79.59 Z M 56.44,37.47 L 55.49,39.23 L 53.09,38.04 L 56.44,37.47 Z M 47.03,33.79 L 44.25,30.65 L 45.20,30.54 L 47.03,33.79 Z M 64.69,32.04 L 58.31,33.32 L 59.49,31.59 L 64.69,32.04 Z M 21.50,19.48 L 9.16,11.73 L 12.61,13.11 L 21.50,19.48 Z" fill="#C8D8E8" stroke="#8BAABB" stroke-width="0.8"/>
<path d="M 616.97,377.10 L 596.15,375.19 L 586.65,370.83 L 564.79,372.71 L 540.20,384.07 L 497.08,386.25 L 492.78,392.22 L 462.95,388.64 L 443.30,395.52 L 442.76,402.80 L 424.57,402.21 L 410.71,406.25 L 397.23,400.98 L 367.38,397.70 L 339.83,384.32 L 324.56,382.02 L 328.06,378.52 L 316.63,377.58 L 318.37,360.56 L 301.94,356.49 L 292.08,342.32 L 295.22,327.54 L 310.22,314.23 L 306.04,304.69 L 324.01,300.09 L 340.14,289.52 L 318.70,278.36 L 323.96,270.80 L 275.81,264.59 L 288.79,256.21 L 293.97,242.14 L 278.69,234.25 L 216.82,236.00 L 150.00,204.49 L 177.99,194.27 L 168.79,178.38 L 177.15,171.84 L 197.09,171.16 L 199.76,167.62 L 220.84,169.67 L 253.70,162.40 L 261.21,157.50 L 254.24,152.49 L 236.34,154.47 L 228.16,151.69 L 230.87,145.80 L 217.77,137.52 L 238.60,125.31 L 253.96,124.88 L 309.46,107.01 L 289.96,93.75 L 308.59,101.75 L 349.70,111.88 L 316.37,102.34 L 318.60,100.29 L 383.16,116.83 L 445.73,143.85 L 446.21,159.33 L 426.42,186.23 L 435.51,184.50 L 448.60,167.34 L 463.80,164.36 L 494.98,168.62 L 536.39,184.07 L 543.48,190.92 L 547.37,187.82 L 555.70,188.92 L 580.26,198.57 L 580.85,217.49 L 563.13,231.14 L 577.97,237.40 L 567.89,237.32 L 567.73,243.71 L 527.40,244.31 L 510.78,247.84 L 503.14,253.21 L 512.09,259.37 L 488.67,280.55 L 512.87,301.27 L 531.76,307.45 L 530.67,312.81 L 548.83,314.98 L 565.91,312.61 L 576.71,335.87 L 588.14,338.93 L 627.28,370.48 L 650.00,374.21 L 616.97,377.10 Z M 461.61,161.26 L 448.70,164.74 L 450.08,162.21 L 461.61,161.26 Z" fill="#4A90D9" stroke="#1a5fa8" stroke-width="1.2"/>
<path d="M 799.88,257.90 L 788.48,267.50 L 776.10,263.60 L 763.10,266.11 L 765.93,261.05 L 776.35,261.20 L 770.77,256.40 L 783.30,251.59 L 785.76,244.69 L 800.00,245.63 L 800.00,258.02 L 799.88,257.90 Z" fill="#A8C8E8" stroke="none"/>
<path d="M 15.09,128.14 L 19.96,130.48 L 8.85,130.48 L 14.47,133.09 L 2.79,134.41 L 20.66,136.01 L 9.07,139.81 L 13.99,145.69 L 0.00,156.21 L 0.00,151.45 L 8.09,148.18 L 6.69,144.14 L 0.51,143.53 L 1.14,137.43 L 0.00,137.84 L 0.00,129.96 L 15.09,128.14 Z M 1.75,167.66 L 0.00,166.84 L 0.00,165.35 L 1.75,167.66 Z" fill="#A8C8E8" stroke="none"/>
</svg>