<svg xmlns="http://www.w3.org/2000/svg" width="800" height="500" viewBox="0 0 800 500">
<rect width="800" height="500" fill="#A8C8E8"/>
<path d="M 322.61,287.75 L 316.73,290.79 L 314.62,283.41 L 322.61,287.75 Z M 318.22,275.62 L 313.54,280.11 L 313.48,274.05 L 318.22,275.62 Z" fill="#E8E0D0" stroke="#B8B0A0" stroke-width="0.5"/>
<path d="M 625.58,170.10 L 631.19,162.67 L 631.19,176.46 L 625.58,170.10 Z M 607.71,174.55 L 605.84,167.35 L 585.38,162.72 L 594.34,174.55 L 607.54,176.62 L 615.15,172.32 L 602.86,187.41 L 609.82,202.83 L 580.68,198.79 L 586.13,184.09 L 560.43,184.10 L 570.61,166.16 L 524.59,199.55 L 506.84,188.00 L 521.89,201.56 L 511.68,221.71 L 489.68,212.04 L 494.23,179.78 L 457.65,196.95 L 455.42,206.24 L 467.51,206.65 L 453.79,219.45 L 471.47,226.92 L 456.75,236.53 L 439.40,211.40 L 376.98,223.18 L 366.37,236.52 L 347.25,189.54 L 334.87,190.55 L 325.22,174.88 L 329.93,145.55 L 323.94,163.79 L 326.90,145.55 L 320.97,160.58 L 321.96,147.69 L 314.13,149.32 L 321.83,135.62 L 357.66,132.65 L 298.04,135.85 L 310.30,147.82 L 307.65,162.84 L 268.49,165.92 L 309.13,186.19 L 292.27,187.35 L 324.29,217.38 L 322.63,270.09 L 307.62,283.02 L 261.60,217.32 L 295.80,279.20 L 281.46,278.62 L 260.47,303.40 L 250.01,274.82 L 241.42,315.16 L 224.94,329.71 L 212.58,312.55 L 172.82,342.75 L 168.81,340.23 L 168.81,0.00 L 631.19,0.00 L 631.19,161.85 L 607.71,174.55 Z M 187.20,363.44 L 169.14,369.93 L 173.55,357.55 L 186.47,352.13 L 187.20,363.44 Z M 210.34,371.43 L 203.75,372.59 L 205.12,355.43 L 196.06,353.73 L 215.18,342.52 L 210.34,371.43 Z M 296.35,306.16 L 282.43,303.49 L 293.01,293.26 L 296.35,306.16 Z M 283.04,295.32 L 278.05,295.59 L 276.98,288.50 L 290.42,282.58 L 283.04,295.32 Z M 318.39,188.84 L 294.96,166.93 L 306.44,166.52 L 318.39,188.84 Z M 275.07,325.94 L 270.35,322.75 L 273.51,316.13 L 275.07,325.94 Z M 348.18,312.44 L 345.83,311.51 L 344.11,307.70 L 348.18,312.44 Z M 425.92,300.25 L 412.08,303.23 L 426.17,296.43 L 425.92,300.25 Z M 312.70,287.37 L 316.85,292.79 L 307.76,296.11 L 312.70,287.37 Z M 332.77,241.05 L 327.48,246.10 L 325.92,242.67 L 332.77,241.05 Z M 329.57,204.68 L 330.46,213.25 L 306.57,194.83 L 329.57,204.68 Z M 317.71,164.87 L 316.47,169.76 L 311.40,163.32 L 317.71,164.87 Z" fill="#C8D8E8" stroke="#8BAABB" stroke-width="0.8"/>
<path d="M 430.64,228.13 L 406.41,237.25 L 412.46,244.96 L 428.99,232.25 L 439.97,239.11 L 433.88,255.32 L 419.55,250.68 L 425.09,266.90 L 367.33,243.39 L 415.42,220.41 L 430.64,228.13 Z M 398.23,279.59 L 397.63,270.42 L 404.56,275.44 L 398.23,279.59 Z M 419.22,275.44 L 412.22,277.64 L 398.48,264.83 L 413.36,262.63 L 419.22,275.44 Z M 366.68,261.52 L 390.14,254.70 L 382.24,273.49 L 360.03,276.46 L 366.68,261.52 Z" fill="#4A90D9" stroke="#1a5fa8" stroke-width="1.2"/>
<path d="M 487.36,10.64 L 466.56,28.81 L 472.98,36.67 L 438.53,34.55 L 459.33,25.08 L 451.80,12.75 L 448.65,21.40 L 433.94,20.34 L 458.39,5.76 L 458.23,0.00 L 464.87,0.00 L 455.67,12.52 L 464.18,20.85 L 487.36,10.64 Z" fill="#A8C8E8" stroke="none"/>
</svg>