<svg xmlns="http://www.w3.org/2000/svg" width="800" height="500" viewBox="0 0 800 500">
<rect width="800" height="500" fill="#A8C8E8"/>
<path d="M 266.10,287.75 L 255.93,290.79 L 252.28,283.41 L 266.10,287.75 Z M 258.51,275.62 L 250.41,280.11 L 250.31,274.05 L 258.51,275.62 Z" fill="#E8E0D0" stroke="#B8B0A0" stroke-width="0.5"/>
<path d="M 790.29,170.10 L 800.00,162.67 L 800.00,176.46 L 790.29,170.10 Z M 759.36,174.55 L 756.13,167.35 L 720.73,162.72 L 736.23,174.55 L 759.08,176.62 L 772.24,172.32 L 750.98,187.41 L 763.03,202.83 L 712.60,198.79 L 722.03,184.09 L 677.57,184.10 L 695.18,166.16 L 615.56,199.55 L 584.86,188.00 L 610.88,201.56 L 593.22,221.71 L 555.17,212.04 L 563.04,179.78 L 499.74,196.95 L 495.88,206.24 L 516.81,206.65 L 493.07,219.45 L 523.65,226.92 L 498.18,236.53 L 468.17,211.40 L 360.17,223.18 L 341.81,236.52 L 308.74,189.54 L 287.32,190.55 L 270.62,174.88 L 278.77,145.55 L 268.40,163.79 L 273.53,145.55 L 263.27,160.58 L 264.98,147.69 L 251.43,149.32 L 264.76,135.62 L 326.75,132.65 L 223.60,135.85 L 244.80,147.82 L 240.22,162.84 L 172.47,165.92 L 242.78,186.19 L 213.61,187.35 L 269.02,217.38 L 266.14,270.09 L 240.16,283.02 L 160.55,217.32 L 219.72,279.20 L 194.91,278.62 L 158.59,303.40 L 140.49,274.82 L 125.63,315.16 L 97.12,329.71 L 75.73,312.55 L 6.94,342.75 L 0.00,340.23 L 0.00,0.00 L 800.00,0.00 L 800.00,161.85 L 759.36,174.55 Z M 31.83,363.44 L 0.58,369.93 L 8.21,357.55 L 30.56,352.13 L 31.83,363.44 Z M 71.86,371.43 L 60.45,372.59 L 62.83,355.43 L 47.15,353.73 L 80.23,342.52 L 71.86,371.43 Z M 220.67,306.16 L 196.58,303.49 L 214.89,293.26 L 220.67,306.16 Z M 197.64,295.32 L 189.01,295.59 L 187.16,288.50 L 210.41,282.58 L 197.64,295.32 Z M 258.80,188.84 L 218.27,166.93 L 238.12,166.52 L 258.80,188.84 Z M 183.84,325.94 L 175.69,322.75 L 181.16,316.13 L 183.84,325.94 Z M 310.34,312.44 L 306.28,311.51 L 303.30,307.70 L 310.34,312.44 Z M 444.85,300.25 L 420.90,303.23 L 445.28,296.43 L 444.85,300.25 Z M 248.95,287.37 L 256.13,292.79 L 240.40,296.11 L 248.95,287.37 Z M 283.68,241.05 L 274.52,246.10 L 271.84,242.67 L 283.68,241.05 Z M 278.15,204.68 L 279.68,213.25 L 238.35,194.83 L 278.15,204.68 Z M 257.63,164.87 L 255.48,169.76 L 246.72,163.32 L 257.63,164.87 Z" fill="#C8D8E8" stroke="#8BAABB" stroke-width="0.8"/>
<path d="M 453.01,228.13 L 411.10,237.25 L 421.56,244.96 L 450.16,232.25 L 469.16,239.11 L 458.62,255.32 L 433.82,250.68 L 443.41,266.90 L 343.47,243.39 L 426.68,220.41 L 453.01,228.13 Z M 396.94,279.59 L 395.90,270.42 L 407.88,275.44 L 396.94,279.59 Z M 433.25,275.44 L 421.15,277.64 L 397.37,264.83 L 423.12,262.63 L 433.25,275.44 Z M 342.35,261.52 L 382.94,254.70 L 369.27,273.49 L 330.84,276.46 L 342.35,261.52 Z" fill="#4A90D9" stroke="#1a5fa8" stroke-width="1.2"/>
<path d="M 551.15,10.64 L 515.16,28.81 L 526.27,36.67 L 466.66,34.55 L 502.65,25.08 L 489.63,12.75 L 484.18,21.40 L 458.72,20.34 L 501.03,5.76 L 500.74,0.00 L 512.23,0.00 L 496.32,12.52 L 511.04,20.85 L 551.15,10.64 Z" fill="#A8C8E8" stroke="none"/>
</svg>