<svg xmlns="http://www.w3.org/2000/svg" width="800" height="500" viewBox="0 0 800 500">
<rect width="800" height="500" fill="#A8C8E8"/>
<path d="M 707.86,435.59 L 709.62,433.62 L 707.83,439.87 L 707.86,435.59 Z M 730.35,380.77 L 731.76,378.48 L 733.05,380.26 L 730.35,380.77 Z" fill="#E8E0D0" stroke="#B8B0A0" stroke-width="0.5"/>
<path d="M 64.48,6.39 L 61.15,7.22 L 61.15,0.00 L 268.35,0.00 L 267.26,0.52 L 263.93,3.59 L 270.53,3.43 L 261.52,18.02 L 244.90,20.65 L 221.55,60.32 L 209.44,52.69 L 202.34,56.79 L 201.89,65.72 L 78.02,65.98 L 77.40,105.33 L 61.15,105.85 L 61.15,7.94 L 64.48,6.39 Z M 291.34,38.78 L 285.18,21.43 L 275.49,17.52 L 280.63,4.03 L 279.91,0.00 L 304.12,0.00 L 291.34,38.78 Z M 272.12,1.20 L 271.90,0.00 L 272.85,0.00 L 272.12,1.20 Z M 73.12,129.55 L 90.65,136.78 L 101.79,159.47 L 117.98,163.98 L 115.09,186.55 L 61.15,188.17 L 61.15,114.53 L 73.12,129.55 Z M 327.67,12.68 L 326.01,20.63 L 322.96,24.29 L 327.67,12.68 Z M 331.88,5.01 L 330.88,8.36 L 331.17,6.36 L 330.45,0.62 L 331.88,5.01 Z" fill="#E8E0D0" stroke="#B8B0A0" stroke-width="0.5"/>
<path d="M 202.34,56.79 L 209.44,52.69 L 221.55,60.32 L 244.90,20.65 L 260.12,18.73 L 254.20,26.53 L 259.19,26.24 L 256.44,31.25 L 274.20,26.19 L 270.82,30.85 L 274.32,29.12 L 275.10,37.84 L 261.22,80.51 L 269.40,87.01 L 261.32,99.15 L 266.16,125.39 L 257.34,156.56 L 259.62,146.86 L 244.30,174.40 L 230.47,177.30 L 216.07,201.99 L 196.72,200.99 L 202.34,56.79 Z M 293.41,96.22 L 294.13,102.49 L 292.70,102.49 L 293.41,96.22 Z M 295.10,85.60 L 295.24,88.08 L 285.77,103.45 L 295.10,85.60 Z M 277.13,80.37 L 277.80,84.13 L 276.99,83.44 L 277.13,80.37 Z M 271.29,74.33 L 275.94,71.35 L 273.73,75.05 L 271.29,74.33 Z M 286.55,53.85 L 285.22,56.66 L 283.10,58.71 L 280.16,59.51 L 290.48,40.69 L 286.55,53.85 Z M 276.17,88.52 L 275.54,90.60 L 272.80,86.95 L 276.17,88.52 Z M 283.32,47.00 L 282.04,47.62 L 281.84,47.17 L 283.32,47.00 Z M 285.10,45.32 L 283.90,46.42 L 283.71,45.78 L 285.10,45.32 Z M 289.29,38.74 L 288.40,40.27 L 288.20,38.73 L 289.29,38.74 Z" fill="#E8E0D0" stroke="#B8B0A0" stroke-width="0.5"/>
<path d="M 173.10,306.09 L 177.15,318.06 L 165.91,322.41 L 161.98,331.74 L 155.99,330.23 L 143.27,338.83 L 138.15,353.31 L 105.37,340.50 L 61.15,337.86 L 61.15,188.17 L 115.09,186.55 L 117.98,163.98 L 101.79,159.47 L 90.65,136.78 L 73.12,129.55 L 61.15,114.53 L 61.15,105.85 L 77.40,105.33 L 78.02,65.98 L 201.89,65.72 L 196.72,200.99 L 227.26,203.44 L 239.36,214.50 L 242.87,203.87 L 247.55,204.31 L 239.62,195.65 L 265.76,212.84 L 201.87,259.71 L 197.00,274.62 L 201.90,293.44 L 188.22,305.12 L 173.10,306.09 Z" fill="#C8D8E8" stroke="#8BAABB" stroke-width="0.8"/>
<path d="M 143.27,338.83 L 155.99,330.23 L 161.98,331.74 L 165.91,322.41 L 177.15,318.06 L 173.10,306.09 L 185.74,303.02 L 202.33,309.64 L 205.50,306.50 L 223.76,327.32 L 246.49,335.54 L 247.01,344.87 L 272.25,335.00 L 279.73,343.80 L 293.15,340.31 L 300.92,347.42 L 295.05,367.30 L 299.73,372.37 L 291.77,373.77 L 289.36,379.10 L 295.06,384.61 L 285.66,393.65 L 258.69,393.09 L 256.83,392.57 L 258.47,390.94 L 256.41,388.72 L 252.58,392.74 L 250.22,386.89 L 240.08,384.83 L 231.65,385.84 L 241.53,386.31 L 249.39,392.97 L 227.37,387.55 L 195.71,371.56 L 157.88,367.71 L 138.15,353.31 L 143.27,338.83 Z M 300.75,389.91 L 301.63,393.00 L 299.60,393.27 L 300.75,389.91 Z M 297.67,388.70 L 296.83,389.73 L 295.72,387.80 L 297.67,388.70 Z" fill="#C8D8E8" stroke="#8BAABB" stroke-width="0.8"/>
<path d="M 382.98,492.21 L 364.21,461.36 L 303.14,412.33 L 303.41,406.08 L 309.49,398.86 L 322.07,410.93 L 329.07,410.49 L 322.99,409.22 L 327.40,406.12 L 346.37,406.25 L 353.99,398.74 L 354.81,387.95 L 368.87,383.78 L 364.64,352.33 L 393.60,351.53 L 410.15,331.28 L 434.23,346.81 L 435.26,336.85 L 473.17,311.72 L 474.81,294.64 L 482.68,292.90 L 481.03,287.68 L 491.21,276.84 L 498.83,276.55 L 505.14,286.86 L 519.86,290.75 L 528.00,283.98 L 534.50,286.65 L 534.88,280.96 L 541.24,284.03 L 545.08,278.50 L 557.79,280.61 L 578.80,272.92 L 586.04,263.14 L 611.78,264.16 L 600.66,277.74 L 598.75,270.02 L 595.51,272.19 L 591.78,277.76 L 600.31,280.07 L 607.96,309.90 L 591.33,337.44 L 582.64,375.53 L 587.90,445.92 L 577.31,448.09 L 577.31,435.50 L 582.89,430.47 L 582.31,418.02 L 576.74,419.84 L 580.60,430.74 L 567.99,437.68 L 574.67,455.55 L 578.71,450.75 L 575.03,476.11 L 573.21,465.74 L 571.12,463.18 L 567.78,462.79 L 572.16,466.41 L 566.00,471.02 L 569.00,479.01 L 563.81,484.33 L 568.46,489.01 L 573.07,485.83 L 575.93,500.00 L 391.79,500.00 L 382.98,492.21 Z M 570.61,479.36 L 572.60,476.18 L 571.72,484.40 L 570.61,479.36 Z M 616.84,463.56 L 618.43,461.82 L 619.21,462.46 L 616.84,463.56 Z M 638.83,308.36 L 637.58,308.93 L 633.68,308.58 L 638.83,308.36 Z" fill="#C8D8E8" stroke="#8BAABB" stroke-width="0.8"/>
<path d="M 201.90,293.44 L 197.00,274.62 L 201.87,259.71 L 259.25,216.43 L 272.69,214.94 L 284.11,202.87 L 308.56,198.06 L 316.16,208.58 L 325.29,204.06 L 354.40,210.39 L 391.25,209.65 L 421.26,197.97 L 422.22,193.25 L 416.19,191.32 L 436.90,195.17 L 451.49,202.70 L 484.70,194.36 L 506.68,202.23 L 507.81,209.40 L 521.89,207.91 L 509.04,203.17 L 532.64,206.82 L 571.03,235.67 L 552.40,226.08 L 545.63,225.12 L 546.60,229.93 L 543.81,225.12 L 538.20,225.12 L 556.86,245.69 L 564.78,244.88 L 550.87,235.16 L 565.31,241.29 L 569.00,249.72 L 578.27,243.09 L 584.78,243.92 L 584.42,249.07 L 580.37,247.24 L 578.40,251.54 L 587.90,248.77 L 584.65,242.75 L 579.17,242.48 L 572.86,235.63 L 592.91,245.18 L 601.32,259.14 L 611.78,264.16 L 586.04,263.14 L 578.80,272.92 L 557.79,280.61 L 545.08,278.50 L 541.24,284.03 L 534.88,280.96 L 534.50,286.65 L 528.00,283.98 L 519.86,290.75 L 505.14,286.86 L 498.83,276.55 L 491.21,276.84 L 481.03,287.68 L 482.68,292.90 L 474.81,294.64 L 473.17,311.72 L 435.26,336.85 L 434.23,346.81 L 421.52,340.58 L 415.35,330.50 L 393.60,351.53 L 364.64,352.33 L 368.87,383.78 L 354.81,387.95 L 353.99,398.74 L 346.37,406.25 L 327.40,406.12 L 328.09,397.90 L 320.25,396.98 L 313.93,384.63 L 321.52,375.86 L 306.70,378.62 L 306.33,371.98 L 301.66,379.01 L 293.20,376.19 L 299.73,372.37 L 295.05,367.30 L 300.92,347.42 L 293.15,340.31 L 279.73,343.80 L 274.04,335.11 L 264.80,334.89 L 261.37,341.01 L 247.01,344.87 L 246.49,335.54 L 223.76,327.32 L 205.50,306.50 L 188.22,305.12 L 201.90,293.44 Z M 306.31,387.01 L 303.41,386.79 L 302.95,384.83 L 306.31,387.01 Z M 309.95,378.62 L 308.56,383.39 L 303.95,381.46 L 309.95,378.62 Z M 356.99,186.95 L 348.93,187.60 L 352.54,185.31 L 356.99,186.95 Z M 386.79,165.58 L 394.15,163.26 L 404.37,163.35 L 375.49,173.44 L 386.79,165.58 Z M 426.84,157.08 L 429.17,158.41 L 420.32,165.11 L 426.84,157.08 Z M 557.69,93.75 L 558.63,94.12 L 557.41,94.24 L 557.69,93.75 Z" fill="#4A90D9" stroke="#1a5fa8" stroke-width="1.2"/>
<path d="M 422.22,495.14 L 425.47,468.37 L 444.25,471.58 L 455.29,484.77 L 472.04,492.50 L 478.37,500.00 L 425.17,500.00 L 422.22,495.14 Z M 431.54,495.61 L 430.85,492.05 L 427.32,491.51 L 425.00,495.84 L 431.54,495.61 Z" fill="#A8C8E8" stroke="none"/>
<path d="M 214.48,216.90 L 213.54,228.20 L 206.75,233.70 L 191.25,238.22 L 185.10,230.42 L 224.26,210.12 L 214.48,216.90 Z" fill="#A8C8E8" stroke="none"/>
<path d="M 408.71,462.56 L 396.29,463.66 L 396.07,455.41 L 387.80,457.90 L 376.16,446.68 L 397.04,439.94 L 403.11,455.78 L 408.29,451.01 L 408.71,462.56 Z" fill="#A8C8E8" stroke="none"/>
<path d="M 213.54,339.98 L 200.97,328.87 L 210.58,329.12 L 213.54,339.98 Z" fill="#A8C8E8" stroke="none"/>
<path d="M 229.36,334.20 L 228.86,335.65 L 222.87,337.08 L 229.36,334.20 Z" fill="#A8C8E8" stroke="none"/>
<path d="M 603.86,316.57 L 602.44,318.60 L 597.82,309.07 L 603.86,316.57 Z" fill="#A8C8E8" stroke="none"/>
</svg>