<svg xmlns="http://www.w3.org/2000/svg" width="800" height="500" viewBox="0 0 800 500">
<rect width="800" height="500" fill="#A8C8E8"/>
<path d="M 763.42,435.59 L 765.50,433.62 L 763.39,439.87 L 763.42,435.59 Z M 789.97,380.77 L 791.63,378.48 L 793.16,380.26 L 789.97,380.77 Z" fill="#E8E0D0" stroke="#B8B0A0" stroke-width="0.5"/>
<path d="M 3.93,6.39 L 0.00,7.22 L 0.00,0.00 L 244.59,0.00 L 243.31,0.52 L 239.38,3.59 L 247.16,3.43 L 236.53,18.02 L 216.91,20.65 L 189.34,60.32 L 175.05,52.69 L 166.67,56.79 L 166.14,65.72 L 19.91,65.98 L 19.18,105.33 L 0.00,105.85 L 0.00,7.94 L 3.93,6.39 Z M 271.73,38.78 L 264.46,21.43 L 253.02,17.52 L 259.08,4.03 L 258.24,0.00 L 286.81,0.00 L 271.73,38.78 Z M 249.04,1.20 L 248.79,0.00 L 249.90,0.00 L 249.04,1.20 Z M 14.13,129.55 L 34.83,136.78 L 47.97,159.47 L 67.09,163.98 L 63.68,186.55 L 0.00,188.17 L 0.00,114.53 L 14.13,129.55 Z M 314.62,12.68 L 312.66,20.63 L 309.05,24.29 L 314.62,12.68 Z M 319.59,5.01 L 318.40,8.36 L 318.75,6.36 L 317.90,0.62 L 319.59,5.01 Z" fill="#E8E0D0" stroke="#B8B0A0" stroke-width="0.5"/>
<path d="M 166.67,56.79 L 175.05,52.69 L 189.34,60.32 L 216.91,20.65 L 234.88,18.73 L 227.89,26.53 L 233.78,26.24 L 230.53,31.25 L 251.50,26.19 L 247.51,30.85 L 251.64,29.12 L 252.55,37.84 L 236.17,80.51 L 245.83,87.01 L 236.29,99.15 L 242.00,125.39 L 231.59,156.56 L 234.28,146.86 L 216.20,174.40 L 199.88,177.30 L 182.88,201.99 L 160.04,200.99 L 166.67,56.79 Z M 274.17,96.22 L 275.02,102.49 L 273.33,102.49 L 274.17,96.22 Z M 276.17,85.60 L 276.34,88.08 L 265.16,103.45 L 276.17,85.60 Z M 254.96,80.37 L 255.74,84.13 L 254.79,83.44 L 254.96,80.37 Z M 248.06,74.33 L 253.55,71.35 L 250.94,75.05 L 248.06,74.33 Z M 266.07,53.85 L 264.51,56.66 L 262.00,58.71 L 258.53,59.51 L 270.71,40.69 L 266.07,53.85 Z M 253.83,88.52 L 253.08,90.60 L 249.85,86.95 L 253.83,88.52 Z M 262.27,47.00 L 260.75,47.62 L 260.51,47.17 L 262.27,47.00 Z M 264.36,45.32 L 262.95,46.42 L 262.72,45.78 L 264.36,45.32 Z M 269.31,38.74 L 268.26,40.27 L 268.02,38.73 L 269.31,38.74 Z" fill="#E8E0D0" stroke="#B8B0A0" stroke-width="0.5"/>
<path d="M 132.15,306.09 L 136.93,318.06 L 123.66,322.41 L 119.02,331.74 L 111.95,330.23 L 96.93,338.83 L 90.89,353.31 L 52.20,340.50 L 0.00,337.86 L 0.00,188.17 L 63.68,186.55 L 67.09,163.98 L 47.97,159.47 L 34.83,136.78 L 14.13,129.55 L 0.00,114.53 L 0.00,105.85 L 19.18,105.33 L 19.91,65.98 L 166.14,65.72 L 160.04,200.99 L 196.08,203.44 L 210.37,214.50 L 214.51,203.87 L 220.03,204.31 L 210.68,195.65 L 241.53,212.84 L 166.11,259.71 L 160.37,274.62 L 166.15,293.44 L 150.00,305.12 L 132.15,306.09 Z" fill="#C8D8E8" stroke="#8BAABB" stroke-width="0.8"/>
<path d="M 96.93,338.83 L 111.95,330.23 L 119.02,331.74 L 123.66,322.41 L 136.93,318.06 L 132.15,306.09 L 147.07,303.02 L 166.66,309.64 L 170.39,306.50 L 191.96,327.32 L 218.79,335.54 L 219.39,344.87 L 249.20,335.00 L 258.03,343.80 L 273.87,340.31 L 283.04,347.42 L 276.11,367.30 L 281.63,372.37 L 272.23,373.77 L 269.39,379.10 L 276.12,384.61 L 265.02,393.65 L 233.18,393.09 L 230.99,392.57 L 232.93,390.94 L 230.50,388.72 L 225.97,392.74 L 223.18,386.89 L 211.22,384.83 L 201.26,385.84 L 212.93,386.31 L 222.21,392.97 L 196.21,387.55 L 158.84,371.56 L 114.18,367.71 L 90.89,353.31 L 96.93,338.83 Z M 282.84,389.91 L 283.88,393.00 L 281.48,393.27 L 282.84,389.91 Z M 279.21,388.70 L 278.21,389.73 L 276.90,387.80 L 279.21,388.70 Z" fill="#C8D8E8" stroke="#8BAABB" stroke-width="0.8"/>
<path d="M 379.91,492.21 L 357.75,461.36 L 285.66,412.33 L 285.98,406.08 L 293.15,398.86 L 308.01,410.93 L 316.26,410.49 L 309.09,409.22 L 314.30,406.12 L 336.69,406.25 L 345.68,398.74 L 346.66,387.95 L 363.25,383.78 L 358.26,352.33 L 392.45,351.53 L 411.98,331.28 L 440.41,346.81 L 441.62,336.85 L 486.37,311.72 L 488.31,294.64 L 497.61,292.90 L 495.66,287.68 L 507.67,276.84 L 516.66,276.55 L 524.11,286.86 L 541.49,290.75 L 551.10,283.98 L 558.78,286.65 L 559.22,280.96 L 566.73,284.03 L 571.26,278.50 L 586.27,280.61 L 611.07,272.92 L 619.62,263.14 L 650.00,264.16 L 636.87,277.74 L 634.62,270.02 L 630.79,272.19 L 626.39,277.76 L 636.46,280.07 L 645.49,309.90 L 625.86,337.44 L 615.60,375.53 L 621.81,445.92 L 609.31,448.09 L 609.31,435.50 L 615.90,430.47 L 615.21,418.02 L 608.64,419.84 L 613.20,430.74 L 598.31,437.68 L 606.19,455.55 L 610.96,450.75 L 606.62,476.11 L 604.47,465.74 L 602.00,463.18 L 598.06,462.79 L 603.23,466.41 L 595.96,471.02 L 599.50,479.01 L 593.38,484.33 L 598.86,489.01 L 604.30,485.83 L 607.68,500.00 L 390.31,500.00 L 379.91,492.21 Z M 601.40,479.36 L 603.75,476.18 L 602.71,484.40 L 601.40,479.36 Z M 655.98,463.56 L 657.86,461.82 L 658.77,462.46 L 655.98,463.56 Z M 681.93,308.36 L 680.46,308.93 L 675.85,308.58 L 681.93,308.36 Z" fill="#C8D8E8" stroke="#8BAABB" stroke-width="0.8"/>
<path d="M 166.15,293.44 L 160.37,274.62 L 166.11,259.71 L 233.85,216.43 L 249.72,214.94 L 263.19,202.87 L 292.05,198.06 L 301.03,208.58 L 311.81,204.06 L 346.17,210.39 L 389.67,209.65 L 425.10,197.97 L 426.23,193.25 L 419.11,191.32 L 443.56,195.17 L 460.78,202.70 L 499.99,194.36 L 525.94,202.23 L 527.26,209.40 L 543.89,207.91 L 528.72,203.17 L 556.58,206.82 L 601.89,235.67 L 579.90,226.08 L 571.91,225.12 L 573.06,229.93 L 569.77,225.12 L 563.14,225.12 L 585.17,245.69 L 594.52,244.88 L 578.10,235.16 L 595.14,241.29 L 599.50,249.72 L 610.45,243.09 L 618.13,243.92 L 617.71,249.07 L 612.92,247.24 L 610.60,251.54 L 621.81,248.77 L 617.97,242.75 L 611.50,242.48 L 604.06,235.63 L 627.73,245.18 L 637.66,259.14 L 650.00,264.16 L 619.62,263.14 L 611.07,272.92 L 586.27,280.61 L 571.26,278.50 L 566.73,284.03 L 559.22,280.96 L 558.78,286.65 L 551.10,283.98 L 541.49,290.75 L 524.11,286.86 L 516.66,276.55 L 507.67,276.84 L 495.66,287.68 L 497.61,292.90 L 488.31,294.64 L 486.37,311.72 L 441.62,336.85 L 440.41,346.81 L 425.41,340.58 L 418.12,330.50 L 392.45,351.53 L 358.26,352.33 L 363.25,383.78 L 346.66,387.95 L 345.68,398.74 L 336.69,406.25 L 314.30,406.12 L 315.11,397.90 L 305.85,396.98 L 298.40,384.63 L 307.35,375.86 L 289.87,378.62 L 289.43,371.98 L 283.91,379.01 L 273.93,376.19 L 281.63,372.37 L 276.11,367.30 L 283.04,347.42 L 273.87,340.31 L 258.03,343.80 L 251.31,335.11 L 240.40,334.89 L 236.36,341.01 L 219.39,344.87 L 218.79,335.54 L 191.96,327.32 L 170.39,306.50 L 150.00,305.12 L 166.15,293.44 Z M 289.40,387.01 L 285.97,386.79 L 285.43,384.83 L 289.40,387.01 Z M 293.70,378.62 L 292.05,383.39 L 286.62,381.46 L 293.70,378.62 Z M 349.23,186.95 L 339.71,187.60 L 343.97,185.31 L 349.23,186.95 Z M 384.40,165.58 L 393.09,163.26 L 405.16,163.35 L 371.07,173.44 L 384.40,165.58 Z M 431.69,157.08 L 434.43,158.41 L 423.99,165.11 L 431.69,157.08 Z M 586.15,93.75 L 587.26,94.12 L 585.82,94.24 L 586.15,93.75 Z" fill="#4A90D9" stroke="#1a5fa8" stroke-width="1.2"/>
<path d="M 426.23,495.14 L 430.07,468.37 L 452.24,471.58 L 465.27,484.77 L 485.04,492.50 L 492.52,500.00 L 429.72,500.00 L 426.23,495.14 Z M 437.24,495.61 L 436.42,492.05 L 432.25,491.51 L 429.51,495.84 L 437.24,495.61 Z" fill="#A8C8E8" stroke="none"/>
<path d="M 180.99,216.90 L 179.89,228.20 L 171.88,233.70 L 153.58,238.22 L 146.32,230.42 L 192.54,210.12 L 180.99,216.90 Z" fill="#A8C8E8" stroke="none"/>
<path d="M 410.29,462.56 L 395.62,463.66 L 395.36,455.41 L 385.60,457.90 L 371.86,446.68 L 396.50,439.94 L 403.67,455.78 L 409.79,451.01 L 410.29,462.56 Z" fill="#A8C8E8" stroke="none"/>
<path d="M 179.89,339.98 L 165.05,328.87 L 176.40,329.12 L 179.89,339.98 Z" fill="#A8C8E8" stroke="none"/>
<path d="M 198.57,334.20 L 197.98,335.65 L 190.90,337.08 L 198.57,334.20 Z" fill="#A8C8E8" stroke="none"/>
<path d="M 640.65,316.57 L 638.98,318.60 L 633.52,309.07 L 640.65,316.57 Z" fill="#A8C8E8" stroke="none"/>
</svg>