<svg xmlns="http://www.w3.org/2000/svg" width="800" height="500" viewBox="0 0 800 500">
<rect width="800" height="500" fill="#A8C8E8"/>
<path d="M 97.88,4.74 L 113.14,9.59 L 107.19,24.22 L 88.30,17.50 L 86.86,9.03 L 64.37,11.90 L 42.52,8.12 L 42.82,4.10 L 37.01,13.70 L 0.00,14.62 L 0.00,0.00 L 102.14,0.00 L 97.88,4.74 Z" fill="#E8E0D0" stroke="#B8B0A0" stroke-width="0.5"/>
<path d="M 759.74,449.13 L 766.69,431.54 L 793.26,422.92 L 800.00,426.28 L 800.00,500.00 L 745.88,500.00 L 742.55,495.58 L 745.95,483.09 L 737.81,471.82 L 745.48,469.12 L 742.58,457.86 L 748.23,447.34 L 759.74,449.13 Z" fill="#E8E0D0" stroke="#B8B0A0" stroke-width="0.5"/>
<path d="M 742.58,457.86 L 745.48,469.12 L 737.81,471.82 L 745.95,483.09 L 742.55,495.58 L 745.88,500.00 L 657.78,500.00 L 659.22,494.00 L 648.76,482.12 L 659.22,474.56 L 652.80,469.11 L 667.38,467.61 L 665.57,451.46 L 646.38,448.92 L 647.00,429.86 L 638.49,424.08 L 674.70,388.21 L 681.91,401.84 L 703.50,395.55 L 720.32,413.54 L 740.99,420.29 L 750.96,440.73 L 742.58,457.86 Z" fill="#E8E0D0" stroke="#B8B0A0" stroke-width="0.5"/>
<path d="M 708.98,388.34 L 703.11,380.90 L 740.54,373.02 L 739.11,365.87 L 756.52,355.63 L 751.36,347.12 L 767.49,342.19 L 771.23,349.20 L 792.76,355.23 L 800.00,363.09 L 800.00,426.06 L 793.26,422.92 L 766.69,431.54 L 757.92,449.55 L 748.23,447.34 L 742.61,421.77 L 720.32,413.54 L 705.68,396.38 L 708.98,388.34 Z" fill="#E8E0D0" stroke="#B8B0A0" stroke-width="0.5"/>
<path d="M 765.18,174.52 L 766.76,153.85 L 758.48,154.57 L 720.75,126.95 L 739.88,121.96 L 756.44,124.71 L 767.85,114.88 L 797.15,113.67 L 800.00,111.19 L 800.00,188.83 L 765.18,174.52 Z" fill="#E8E0D0" stroke="#B8B0A0" stroke-width="0.5"/>
<path d="M 589.41,0.62 L 508.84,1.57 L 505.79,0.00 L 590.99,0.00 L 589.41,0.62 Z" fill="#E8E0D0" stroke="#B8B0A0" stroke-width="0.5"/>
<path d="M 452.36,5.88 L 428.81,8.38 L 409.35,2.42 L 395.79,9.44 L 414.64,12.42 L 419.63,18.77 L 415.54,25.21 L 398.01,29.45 L 401.34,38.54 L 396.21,45.32 L 404.41,49.07 L 397.22,57.66 L 402.45,59.59 L 384.53,59.15 L 359.69,72.51 L 362.65,84.39 L 348.59,80.32 L 330.39,80.84 L 315.70,88.63 L 281.75,85.99 L 263.82,89.65 L 237.55,106.49 L 56.62,82.92 L 44.89,69.45 L 33.05,66.37 L 37.60,53.03 L 0.00,61.66 L 0.00,14.62 L 37.01,13.70 L 37.26,6.08 L 42.82,4.10 L 42.52,8.12 L 64.37,11.90 L 86.86,9.03 L 88.30,17.50 L 107.19,24.22 L 113.14,9.59 L 97.88,4.74 L 102.14,0.00 L 449.33,0.00 L 452.36,5.88 Z" fill="#E8E0D0" stroke="#B8B0A0" stroke-width="0.5"/>
<path d="M 37.60,53.03 L 33.05,66.37 L 44.89,69.45 L 56.62,82.92 L 166.43,95.81 L 137.98,113.17 L 141.78,119.40 L 161.04,121.48 L 146.16,134.65 L 158.37,136.23 L 154.99,147.97 L 173.02,154.54 L 182.84,162.98 L 178.87,166.55 L 167.34,165.91 L 175.51,164.31 L 155.69,151.05 L 141.07,159.69 L 138.33,154.45 L 117.14,152.38 L 114.23,162.22 L 58.20,177.64 L 71.59,168.96 L 55.91,169.99 L 35.39,187.07 L 41.83,195.33 L 48.34,193.33 L 53.55,209.95 L 53.55,205.82 L 67.53,213.05 L 59.97,224.36 L 56.78,219.01 L 57.56,225.67 L 44.87,223.90 L 53.55,267.47 L 80.90,287.15 L 159.19,319.69 L 198.15,392.44 L 251.86,424.47 L 254.53,431.34 L 290.51,443.21 L 373.14,443.81 L 376.86,454.42 L 352.77,466.90 L 357.94,478.64 L 427.38,500.00 L 173.98,500.00 L 168.20,494.31 L 153.12,497.77 L 131.25,491.03 L 110.81,496.19 L 98.01,483.19 L 76.13,479.55 L 42.55,457.70 L 24.02,438.27 L 7.68,435.16 L 0.00,425.23 L 0.00,61.66 L 37.60,53.03 Z M 62.82,292.72 L 63.15,287.76 L 55.82,290.34 L 62.82,292.72 Z M 60.77,445.10 L 60.76,445.02 L 60.68,445.02 L 60.77,445.10 Z M 55.27,177.99 L 58.81,179.34 L 49.54,184.46 L 55.27,177.99 Z M 53.12,176.77 L 52.98,177.64 L 49.47,178.27 L 53.12,176.77 Z" fill="#E8E0D0" stroke="#B8B0A0" stroke-width="0.5"/>
<path d="M 55.82,290.34 L 63.15,287.76 L 62.82,292.72 L 55.82,290.34 Z" fill="#E8E0D0" stroke="#B8B0A0" stroke-width="0.5"/>
<path d="M 60.68,445.02 L 60.76,445.02 L 60.77,445.10 L 60.68,445.02 Z" fill="#E8E0D0" stroke="#B8B0A0" stroke-width="0.5"/>
<path d="M 493.13,367.03 L 502.13,364.69 L 499.22,358.57 L 470.54,339.14 L 468.89,327.05 L 448.56,320.60 L 388.94,280.21 L 371.11,246.99 L 361.75,245.51 L 363.63,239.18 L 338.23,228.25 L 343.64,196.43 L 362.97,194.60 L 388.03,210.69 L 406.06,193.97 L 430.02,197.07 L 439.56,189.26 L 461.83,199.55 L 503.99,198.38 L 516.79,205.91 L 550.86,198.87 L 574.52,206.56 L 588.17,204.17 L 606.09,221.29 L 631.28,216.27 L 646.68,219.32 L 624.52,257.48 L 667.25,282.31 L 660.23,288.16 L 638.55,285.50 L 634.88,289.64 L 654.56,304.43 L 656.93,319.39 L 644.81,316.03 L 607.90,323.72 L 621.35,338.73 L 614.80,341.89 L 600.29,336.27 L 587.00,344.45 L 584.85,360.56 L 569.07,362.59 L 568.38,375.93 L 577.31,387.20 L 572.41,395.02 L 530.31,381.73 L 514.76,368.91 L 493.13,367.03 Z" fill="#C8D8E8" stroke="#8BAABB" stroke-width="0.8"/>
<path d="M 789.27,117.27 L 769.63,114.58 L 756.44,124.71 L 739.88,121.96 L 720.75,126.95 L 662.04,122.71 L 637.77,136.54 L 622.94,133.71 L 613.90,141.04 L 586.26,142.12 L 564.97,154.66 L 518.68,152.40 L 496.06,139.96 L 475.23,138.48 L 432.22,106.24 L 404.90,97.17 L 392.46,86.49 L 388.80,71.62 L 369.20,69.86 L 384.53,59.15 L 402.45,59.59 L 397.22,57.66 L 404.41,49.07 L 396.21,45.32 L 401.34,38.54 L 398.01,29.45 L 415.54,25.21 L 419.63,18.77 L 414.64,12.42 L 395.79,9.44 L 409.35,2.42 L 428.81,8.38 L 452.36,5.88 L 449.33,0.00 L 508.67,0.00 L 515.94,2.74 L 589.41,0.62 L 590.99,0.00 L 800.00,0.00 L 800.00,109.74 L 789.27,117.27 Z" fill="#C8D8E8" stroke="#8BAABB" stroke-width="0.8"/>
<path d="M 567.77,395.44 L 577.31,387.20 L 567.44,365.56 L 584.85,360.56 L 587.00,344.45 L 600.29,336.27 L 614.80,341.89 L 621.35,338.73 L 607.45,324.97 L 613.53,320.77 L 631.99,321.78 L 631.73,327.71 L 666.12,348.76 L 694.17,353.48 L 730.14,370.34 L 715.72,381.57 L 702.42,381.52 L 708.98,388.34 L 698.63,399.11 L 683.35,402.33 L 676.63,388.87 L 668.13,391.98 L 638.74,423.28 L 647.00,429.86 L 646.38,448.92 L 629.87,442.44 L 605.78,416.23 L 596.68,417.21 L 576.90,405.70 L 590.06,408.02 L 588.95,401.21 L 572.77,406.25 L 567.77,395.44 Z" fill="#C8D8E8" stroke="#8BAABB" stroke-width="0.8"/>
<path d="M 758.48,154.57 L 766.76,153.85 L 765.18,174.52 L 800.00,188.83 L 800.00,363.09 L 792.76,355.23 L 771.23,349.20 L 769.61,342.62 L 751.36,347.12 L 754.73,358.14 L 739.11,365.87 L 740.54,373.02 L 729.44,375.15 L 728.74,369.13 L 694.17,353.48 L 666.12,348.76 L 630.35,325.71 L 636.85,317.56 L 656.93,319.39 L 658.43,313.13 L 636.08,286.29 L 660.23,288.16 L 667.88,283.74 L 625.33,260.44 L 626.45,247.23 L 647.36,221.15 L 631.28,216.27 L 616.78,220.95 L 614.72,217.22 L 626.60,214.33 L 619.24,200.40 L 650.00,195.42 L 613.53,182.70 L 616.26,173.06 L 624.45,172.08 L 607.27,167.43 L 612.77,160.19 L 603.18,145.92 L 620.99,134.22 L 637.77,136.54 L 662.04,122.71 L 720.75,126.95 L 758.48,154.57 Z" fill="#C8D8E8" stroke="#8BAABB" stroke-width="0.8"/>
<path d="M 155.21,169.99 L 182.84,162.98 L 156.29,149.56 L 158.37,136.23 L 146.16,134.65 L 161.04,121.48 L 141.78,119.40 L 137.98,113.17 L 166.43,95.81 L 237.55,106.49 L 263.82,89.65 L 281.75,85.99 L 315.70,88.63 L 330.39,80.84 L 348.59,80.32 L 362.65,84.39 L 358.86,73.05 L 369.20,69.86 L 388.80,71.62 L 393.13,87.54 L 403.67,93.91 L 383.60,96.10 L 384.59,106.90 L 366.15,106.57 L 362.86,112.52 L 330.72,119.42 L 326.49,126.54 L 335.65,132.39 L 333.79,147.11 L 298.11,156.05 L 308.17,162.35 L 299.26,165.27 L 304.06,176.53 L 288.30,178.25 L 269.95,171.83 L 259.31,175.59 L 240.99,160.26 L 223.36,174.63 L 161.51,176.03 L 155.21,169.99 Z" fill="#C8D8E8" stroke="#8BAABB" stroke-width="0.8"/>
<path d="M 432.22,106.24 L 470.56,136.29 L 496.06,139.96 L 518.68,152.40 L 564.97,154.66 L 586.26,142.12 L 607.08,140.34 L 602.31,149.07 L 612.77,160.19 L 607.27,167.43 L 624.45,172.08 L 616.26,173.06 L 613.53,182.70 L 650.00,195.42 L 625.77,195.97 L 619.24,200.40 L 626.60,214.33 L 606.09,221.29 L 588.67,204.37 L 574.52,206.56 L 550.86,198.87 L 516.79,205.91 L 503.99,198.38 L 461.83,199.55 L 439.56,189.26 L 430.02,197.07 L 406.06,193.97 L 388.03,210.69 L 362.97,194.60 L 343.64,196.43 L 338.23,228.25 L 363.63,239.18 L 361.75,245.51 L 371.11,246.99 L 388.94,280.21 L 448.56,320.60 L 468.89,327.05 L 470.54,339.14 L 499.22,358.57 L 499.74,365.85 L 489.66,365.20 L 488.51,359.75 L 435.86,331.38 L 394.41,323.45 L 398.00,320.50 L 357.80,323.97 L 357.04,310.00 L 336.35,304.34 L 288.75,271.65 L 288.42,265.07 L 301.52,267.47 L 298.64,261.28 L 312.47,266.17 L 321.30,265.88 L 277.12,243.34 L 266.66,231.69 L 269.86,213.90 L 264.03,203.70 L 240.13,188.57 L 218.16,184.76 L 204.59,212.49 L 197.60,214.60 L 198.87,211.81 L 195.18,207.84 L 191.77,224.93 L 182.46,223.38 L 184.82,227.56 L 183.56,228.00 L 159.84,205.26 L 168.57,200.61 L 157.53,199.78 L 158.68,186.57 L 150.00,172.06 L 182.36,178.74 L 189.38,171.88 L 223.36,174.63 L 240.99,160.26 L 259.31,175.59 L 269.95,171.83 L 288.30,178.25 L 304.06,176.53 L 299.26,165.27 L 308.17,162.35 L 298.11,156.05 L 333.79,147.11 L 335.65,132.39 L 326.49,126.54 L 330.72,119.42 L 362.86,112.52 L 366.15,106.57 L 384.59,106.90 L 381.14,97.81 L 390.40,93.75 L 432.22,106.24 Z M 572.77,406.25 L 521.63,377.92 L 507.06,375.24 L 510.53,378.83 L 509.41,379.34 L 464.09,363.41 L 449.88,362.47 L 446.11,358.20 L 508.80,374.25 L 501.33,370.34 L 514.76,368.91 L 518.71,375.94 L 567.77,395.44 L 572.77,406.25 Z M 439.28,378.95 L 440.58,380.59 L 430.79,382.06 L 439.28,378.95 Z M 509.43,385.20 L 473.40,377.92 L 479.22,377.09 L 509.43,385.20 Z M 462.94,368.01 L 433.38,369.61 L 414.76,363.41 L 462.94,368.01 Z M 368.62,361.23 L 365.38,357.16 L 372.27,355.40 L 381.68,356.65 L 368.62,361.23 Z M 392.72,347.30 L 462.36,352.46 L 441.16,352.46 L 392.72,347.30 Z M 396.99,338.07 L 395.62,336.92 L 397.36,332.28 L 436.85,338.47 L 396.99,338.07 Z M 390.78,336.47 L 378.22,331.30 L 384.71,330.93 L 390.78,336.47 Z M 339.24,314.62 L 333.45,313.87 L 327.66,311.05 L 339.24,314.62 Z M 299.07,297.26 L 310.03,303.66 L 295.80,295.94 L 299.07,297.26 Z M 298.64,285.60 L 314.30,294.95 L 306.89,292.54 L 298.64,285.60 Z M 286.83,279.46 L 281.80,274.19 L 295.63,281.43 L 298.06,285.09 L 286.83,279.46 Z M 261.46,273.68 L 265.41,275.81 L 261.88,274.49 L 261.46,273.68 Z M 292.98,296.08 L 263.76,273.15 L 277.12,279.40 L 292.98,296.08 Z M 253.93,233.24 L 298.06,260.71 L 287.41,262.84 L 253.93,233.24 Z M 237.05,249.82 L 222.53,243.06 L 220.22,232.21 L 237.05,249.82 Z M 247.51,226.01 L 253.35,226.01 L 249.88,222.35 L 264.56,232.17 L 247.51,226.01 Z M 228.03,236.77 L 216.70,217.70 L 226.63,214.09 L 215.36,202.21 L 218.34,197.74 L 231.89,212.95 L 235.31,236.34 L 228.03,236.77 Z M 227.78,204.18 L 236.69,200.58 L 238.27,191.97 L 260.82,212.49 L 253.06,215.07 L 227.78,204.18 Z M 393.03,325.01 L 379.15,325.02 L 383.64,323.29 L 393.03,325.01 Z M 258.85,265.82 L 258.68,266.25 L 255.19,266.64 L 258.85,265.82 Z M 246.30,261.79 L 247.81,263.09 L 242.19,260.18 L 246.30,261.79 Z M 255.84,258.90 L 256.46,255.02 L 259.83,255.76 L 255.84,258.90 Z M 215.53,235.18 L 214.74,240.10 L 211.48,239.08 L 215.53,235.18 Z" fill="#4A90D9" stroke="#1a5fa8" stroke-width="1.2"/>
<path d="M 486.18,80.87 L 466.97,79.78 L 521.62,67.38 L 519.28,63.73 L 534.67,54.91 L 544.99,58.45 L 519.68,69.78 L 486.18,80.87 Z" fill="#A8C8E8" stroke="none"/>
<path d="M 636.43,426.86 L 622.04,414.61 L 644.02,418.44 L 652.27,412.12 L 646.44,420.27 L 656.16,429.20 L 636.43,426.86 Z" fill="#A8C8E8" stroke="none"/>
<path d="M 21.04,396.57 L 10.39,392.90 L 13.31,389.13 L 20.34,389.33 L 21.04,396.57 Z" fill="#A8C8E8" stroke="none"/>
</svg>