<svg xmlns="http://www.w3.org/2000/svg" width="800" height="500" viewBox="0 0 800 500">
<rect width="800" height="500" fill="#A8C8E8"/>
<path d="M 207.55,4.74 L 217.26,9.59 L 213.48,24.22 L 201.44,17.50 L 200.53,9.03 L 186.20,11.90 L 172.28,8.12 L 172.47,4.10 L 168.77,13.70 L 145.20,14.62 L 145.20,0.00 L 210.26,0.00 L 207.55,4.74 Z" fill="#E8E0D0" stroke="#B8B0A0" stroke-width="0.5"/>
<path d="M 629.16,449.13 L 633.58,431.54 L 650.51,422.92 L 654.80,426.28 L 654.80,500.00 L 620.33,500.00 L 618.21,495.58 L 620.37,483.09 L 615.19,471.82 L 620.08,469.12 L 618.23,457.86 L 621.83,447.34 L 629.16,449.13 Z" fill="#E8E0D0" stroke="#B8B0A0" stroke-width="0.5"/>
<path d="M 618.23,457.86 L 620.08,469.12 L 615.19,471.82 L 620.37,483.09 L 618.21,495.58 L 620.33,500.00 L 564.21,500.00 L 565.12,494.00 L 558.46,482.12 L 565.12,474.56 L 561.04,469.11 L 570.33,467.61 L 569.17,451.46 L 556.94,448.92 L 557.34,429.86 L 551.92,424.08 L 574.98,388.21 L 579.58,401.84 L 593.33,395.55 L 604.05,413.54 L 617.22,420.29 L 623.56,440.73 L 618.23,457.86 Z" fill="#E8E0D0" stroke="#B8B0A0" stroke-width="0.5"/>
<path d="M 596.83,388.34 L 593.09,380.90 L 616.93,373.02 L 616.02,365.87 L 627.11,355.63 L 623.82,347.12 L 634.10,342.19 L 636.48,349.20 L 650.19,355.23 L 654.80,363.09 L 654.80,426.06 L 650.51,422.92 L 633.58,431.54 L 628.00,449.55 L 621.83,447.34 L 618.25,421.77 L 604.05,413.54 L 594.72,396.38 L 596.83,388.34 Z" fill="#E8E0D0" stroke="#B8B0A0" stroke-width="0.5"/>
<path d="M 632.62,174.52 L 633.63,153.85 L 628.36,154.57 L 604.32,126.95 L 616.51,121.96 L 627.06,124.71 L 634.33,114.88 L 652.99,113.67 L 654.80,111.19 L 654.80,188.83 L 632.62,174.52 Z" fill="#E8E0D0" stroke="#B8B0A0" stroke-width="0.5"/>
<path d="M 520.66,0.62 L 469.34,1.57 L 467.39,0.00 L 521.66,0.00 L 520.66,0.62 Z" fill="#E8E0D0" stroke="#B8B0A0" stroke-width="0.5"/>
<path d="M 433.35,5.88 L 418.35,8.38 L 405.96,2.42 L 397.32,9.44 L 409.33,12.42 L 412.51,18.77 L 409.90,25.21 L 398.73,29.45 L 400.85,38.54 L 397.59,45.32 L 402.81,49.07 L 398.23,57.66 L 401.56,59.59 L 390.15,59.15 L 374.32,72.51 L 376.21,84.39 L 367.25,80.32 L 355.66,80.84 L 346.30,88.63 L 324.67,85.99 L 313.25,89.65 L 296.52,106.49 L 181.26,82.92 L 173.79,69.45 L 166.25,66.37 L 169.15,53.03 L 145.20,61.66 L 145.20,14.62 L 168.77,13.70 L 168.93,6.08 L 172.47,4.10 L 172.28,8.12 L 186.20,11.90 L 200.53,9.03 L 201.44,17.50 L 213.48,24.22 L 217.26,9.59 L 207.55,4.74 L 210.26,0.00 L 431.42,0.00 L 433.35,5.88 Z" fill="#E8E0D0" stroke="#B8B0A0" stroke-width="0.5"/>
<path d="M 169.15,53.03 L 166.25,66.37 L 173.79,69.45 L 181.26,82.92 L 251.21,95.81 L 233.09,113.17 L 235.51,119.40 L 247.78,121.48 L 238.30,134.65 L 246.08,136.23 L 243.93,147.97 L 255.41,154.54 L 261.67,162.98 L 259.14,166.55 L 251.79,165.91 L 257.00,164.31 L 244.37,151.05 L 235.06,159.69 L 233.31,154.45 L 219.82,152.38 L 217.96,162.22 L 182.27,177.64 L 190.80,168.96 L 180.81,169.99 L 167.74,187.07 L 171.84,195.33 L 175.99,193.33 L 179.31,209.95 L 179.31,205.82 L 188.22,213.05 L 183.40,224.36 L 181.36,219.01 L 181.86,225.67 L 173.78,223.90 L 179.31,267.47 L 196.73,287.15 L 246.60,319.69 L 271.42,392.44 L 305.64,424.47 L 307.34,431.34 L 330.26,443.21 L 382.89,443.81 L 385.26,454.42 L 369.91,466.90 L 373.21,478.64 L 417.44,500.00 L 256.02,500.00 L 252.34,494.31 L 242.74,497.77 L 228.80,491.03 L 215.78,496.19 L 207.63,483.19 L 193.69,479.55 L 172.30,457.70 L 160.50,438.27 L 150.09,435.16 L 145.20,425.23 L 145.20,61.66 L 169.15,53.03 Z M 185.22,292.72 L 185.42,287.76 L 180.75,290.34 L 185.22,292.72 Z M 183.91,445.10 L 183.90,445.02 L 183.85,445.02 L 183.91,445.10 Z M 180.41,177.99 L 182.66,179.34 L 176.75,184.46 L 180.41,177.99 Z M 179.03,176.77 L 178.94,177.64 L 176.71,178.27 L 179.03,176.77 Z" fill="#E8E0D0" stroke="#B8B0A0" stroke-width="0.5"/>
<path d="M 180.75,290.34 L 185.42,287.76 L 185.22,292.72 L 180.75,290.34 Z" fill="#E8E0D0" stroke="#B8B0A0" stroke-width="0.5"/>
<path d="M 183.85,445.02 L 183.90,445.02 L 183.91,445.10 L 183.85,445.02 Z" fill="#E8E0D0" stroke="#B8B0A0" stroke-width="0.5"/>
<path d="M 459.32,367.03 L 465.06,364.69 L 463.20,358.57 L 444.93,339.14 L 443.89,327.05 L 430.93,320.60 L 392.95,280.21 L 381.59,246.99 L 375.64,245.51 L 376.84,239.18 L 360.65,228.25 L 364.10,196.43 L 376.41,194.60 L 392.38,210.69 L 403.86,193.97 L 419.12,197.07 L 425.20,189.26 L 439.38,199.55 L 466.24,198.38 L 474.40,205.91 L 496.10,198.87 L 511.17,206.56 L 519.87,204.17 L 531.28,221.29 L 547.33,216.27 L 557.14,219.32 L 543.02,257.48 L 570.24,282.31 L 565.77,288.16 L 551.96,285.50 L 549.62,289.64 L 562.16,304.43 L 563.67,319.39 L 555.94,316.03 L 532.44,323.72 L 541.00,338.73 L 536.83,341.89 L 527.59,336.27 L 519.12,344.45 L 517.75,360.56 L 507.70,362.59 L 507.26,375.93 L 512.95,387.20 L 509.83,395.02 L 483.01,381.73 L 473.10,368.91 L 459.32,367.03 Z" fill="#C8D8E8" stroke="#8BAABB" stroke-width="0.8"/>
<path d="M 647.97,117.27 L 635.46,114.58 L 627.06,124.71 L 616.51,121.96 L 604.32,126.95 L 566.92,122.71 L 551.46,136.54 L 542.01,133.71 L 536.26,141.04 L 518.65,142.12 L 505.09,154.66 L 475.60,152.40 L 461.19,139.96 L 447.92,138.48 L 420.52,106.24 L 403.12,97.17 L 395.19,86.49 L 392.87,71.62 L 380.38,69.86 L 390.15,59.15 L 401.56,59.59 L 398.23,57.66 L 402.81,49.07 L 397.59,45.32 L 400.85,38.54 L 398.73,29.45 L 409.90,25.21 L 412.51,18.77 L 409.33,12.42 L 397.32,9.44 L 405.96,2.42 L 418.35,8.38 L 433.35,5.88 L 431.42,0.00 L 469.22,0.00 L 473.85,2.74 L 520.66,0.62 L 521.66,0.00 L 654.80,0.00 L 654.80,109.74 L 647.97,117.27 Z" fill="#C8D8E8" stroke="#8BAABB" stroke-width="0.8"/>
<path d="M 506.87,395.44 L 512.95,387.20 L 506.66,365.56 L 517.75,360.56 L 519.12,344.45 L 527.59,336.27 L 536.83,341.89 L 541.00,338.73 L 532.15,324.97 L 536.02,320.77 L 547.78,321.78 L 547.62,327.71 L 569.52,348.76 L 587.39,353.48 L 610.30,370.34 L 601.12,381.57 L 592.65,381.52 L 596.83,388.34 L 590.23,399.11 L 580.50,402.33 L 576.22,388.87 L 570.80,391.98 L 552.08,423.28 L 557.34,429.86 L 556.94,448.92 L 546.43,442.44 L 531.09,416.23 L 525.29,417.21 L 512.69,405.70 L 521.07,408.02 L 520.36,401.21 L 510.06,406.25 L 506.87,395.44 Z" fill="#C8D8E8" stroke="#8BAABB" stroke-width="0.8"/>
<path d="M 628.36,154.57 L 633.63,153.85 L 632.62,174.52 L 654.80,188.83 L 654.80,363.09 L 650.19,355.23 L 636.48,349.20 L 635.45,342.62 L 623.82,347.12 L 625.97,358.14 L 616.02,365.87 L 616.93,373.02 L 609.86,375.15 L 609.41,369.13 L 587.39,353.48 L 569.52,348.76 L 546.73,325.71 L 550.88,317.56 L 563.67,319.39 L 564.63,313.13 L 550.38,286.29 L 565.77,288.16 L 570.64,283.74 L 543.54,260.44 L 544.25,247.23 L 557.57,221.15 L 547.33,216.27 L 538.09,220.95 L 536.78,217.22 L 544.35,214.33 L 539.66,200.40 L 559.25,195.42 L 536.02,182.70 L 537.76,173.06 L 542.97,172.08 L 532.03,167.43 L 535.54,160.19 L 529.43,145.92 L 540.77,134.22 L 551.46,136.54 L 566.92,122.71 L 604.32,126.95 L 628.36,154.57 Z" fill="#C8D8E8" stroke="#8BAABB" stroke-width="0.8"/>
<path d="M 244.07,169.99 L 261.67,162.98 L 244.75,149.56 L 246.08,136.23 L 238.30,134.65 L 247.78,121.48 L 235.51,119.40 L 233.09,113.17 L 251.21,95.81 L 296.52,106.49 L 313.25,89.65 L 324.67,85.99 L 346.30,88.63 L 355.66,80.84 L 367.25,80.32 L 376.21,84.39 L 373.79,73.05 L 380.38,69.86 L 392.87,71.62 L 395.62,87.54 L 402.34,93.91 L 389.55,96.10 L 390.18,106.90 L 378.44,106.57 L 376.34,112.52 L 355.86,119.42 L 353.17,126.54 L 359.01,132.39 L 357.82,147.11 L 335.10,156.05 L 341.51,162.35 L 335.83,165.27 L 338.88,176.53 L 328.85,178.25 L 317.15,171.83 L 310.38,175.59 L 298.71,160.26 L 287.48,174.63 L 248.08,176.03 L 244.07,169.99 Z" fill="#C8D8E8" stroke="#8BAABB" stroke-width="0.8"/>
<path d="M 420.52,106.24 L 444.95,136.29 L 461.19,139.96 L 475.60,152.40 L 505.09,154.66 L 518.65,142.12 L 531.91,140.34 L 528.87,149.07 L 535.54,160.19 L 532.03,167.43 L 542.97,172.08 L 537.76,173.06 L 536.02,182.70 L 559.25,195.42 L 543.82,195.97 L 539.66,200.40 L 544.35,214.33 L 531.28,221.29 L 520.19,204.37 L 511.17,206.56 L 496.10,198.87 L 474.40,205.91 L 466.24,198.38 L 439.38,199.55 L 425.20,189.26 L 419.12,197.07 L 403.86,193.97 L 392.38,210.69 L 376.41,194.60 L 364.10,196.43 L 360.65,228.25 L 376.84,239.18 L 375.64,245.51 L 381.59,246.99 L 392.95,280.21 L 430.93,320.60 L 443.89,327.05 L 444.93,339.14 L 463.20,358.57 L 463.53,365.85 L 457.12,365.20 L 456.38,359.75 L 422.84,331.38 L 396.44,323.45 L 398.73,320.50 L 373.12,323.97 L 372.63,310.00 L 359.45,304.34 L 329.13,271.65 L 328.92,265.07 L 337.27,267.47 L 335.43,261.28 L 344.24,266.17 L 349.87,265.88 L 321.73,243.34 L 315.06,231.69 L 317.10,213.90 L 313.38,203.70 L 298.16,188.57 L 284.17,184.76 L 275.52,212.49 L 271.07,214.60 L 271.88,211.81 L 269.53,207.84 L 267.35,224.93 L 261.42,223.38 L 262.93,227.56 L 262.13,228.00 L 247.02,205.26 L 252.58,200.61 L 245.54,199.78 L 246.28,186.57 L 240.75,172.06 L 261.36,178.74 L 265.84,171.88 L 287.48,174.63 L 298.71,160.26 L 310.38,175.59 L 317.15,171.83 L 328.85,178.25 L 338.88,176.53 L 335.83,165.27 L 341.51,162.35 L 335.10,156.05 L 357.82,147.11 L 359.01,132.39 L 353.17,126.54 L 355.86,119.42 L 376.34,112.52 L 378.44,106.57 L 390.18,106.90 L 387.99,97.81 L 393.88,93.75 L 420.52,106.24 Z M 510.06,406.25 L 477.48,377.92 L 468.20,375.24 L 470.41,378.83 L 469.70,379.34 L 440.83,363.41 L 431.78,362.47 L 429.37,358.20 L 469.31,374.25 L 464.55,370.34 L 473.10,368.91 L 475.62,375.94 L 506.87,395.44 L 510.06,406.25 Z M 425.02,378.95 L 425.85,380.59 L 419.61,382.06 L 425.02,378.95 Z M 469.71,385.20 L 446.76,377.92 L 450.46,377.09 L 469.71,385.20 Z M 440.09,368.01 L 421.26,369.61 L 409.40,363.41 L 440.09,368.01 Z M 380.01,361.23 L 377.94,357.16 L 382.34,355.40 L 388.33,356.65 L 380.01,361.23 Z M 395.36,347.30 L 439.72,352.46 L 426.22,352.46 L 395.36,347.30 Z M 398.08,338.07 L 397.21,336.92 L 398.32,332.28 L 423.47,338.47 L 398.08,338.07 Z M 394.13,336.47 L 386.13,331.30 L 390.26,330.93 L 394.13,336.47 Z M 361.30,314.62 L 357.61,313.87 L 353.92,311.05 L 361.30,314.62 Z M 335.71,297.26 L 342.69,303.66 L 333.63,295.94 L 335.71,297.26 Z M 335.43,285.60 L 345.41,294.95 L 340.69,292.54 L 335.43,285.60 Z M 327.91,279.46 L 324.70,274.19 L 333.52,281.43 L 335.06,285.09 L 327.91,279.46 Z M 311.75,273.68 L 314.27,275.81 L 312.01,274.49 L 311.75,273.68 Z M 331.83,296.08 L 313.21,273.15 L 321.73,279.40 L 331.83,296.08 Z M 306.95,233.24 L 335.06,260.71 L 328.28,262.84 L 306.95,233.24 Z M 296.20,249.82 L 286.95,243.06 L 285.48,232.21 L 296.20,249.82 Z M 302.86,226.01 L 306.58,226.01 L 304.37,222.35 L 313.72,232.17 L 302.86,226.01 Z M 290.45,236.77 L 283.23,217.70 L 289.56,214.09 L 282.39,202.21 L 284.28,197.74 L 292.91,212.95 L 295.09,236.34 L 290.45,236.77 Z M 290.30,204.18 L 295.97,200.58 L 296.98,191.97 L 311.34,212.49 L 306.40,215.07 L 290.30,204.18 Z M 395.56,325.01 L 386.72,325.02 L 389.58,323.29 L 395.56,325.01 Z M 310.09,265.82 L 309.98,266.25 L 307.76,266.64 L 310.09,265.82 Z M 302.09,261.79 L 303.05,263.09 L 299.47,260.18 L 302.09,261.79 Z M 308.17,258.90 L 308.56,255.02 L 310.71,255.76 L 308.17,258.90 Z M 282.49,235.18 L 281.99,240.10 L 279.91,239.08 L 282.49,235.18 Z" fill="#4A90D9" stroke="#1a5fa8" stroke-width="1.2"/>
<path d="M 454.90,80.87 L 442.66,79.78 L 477.47,67.38 L 475.98,63.73 L 485.78,54.91 L 492.36,58.45 L 476.23,69.78 L 454.90,80.87 Z" fill="#A8C8E8" stroke="none"/>
<path d="M 550.61,426.86 L 541.44,414.61 L 555.44,418.44 L 560.70,412.12 L 556.98,420.27 L 563.18,429.20 L 550.61,426.86 Z" fill="#A8C8E8" stroke="none"/>
<path d="M 158.60,396.57 L 151.81,392.90 L 153.67,389.13 L 158.15,389.33 L 158.60,396.57 Z" fill="#A8C8E8" stroke="none"/>
</svg>