<svg xmlns="http://www.w3.org/2000/svg" width="800" height="500" viewBox="0 0 800 500">
<rect width="800" height="500" fill="#A8C8E8"/>
<path d="M 31.19,122.59 L 36.16,111.29 L 43.55,111.28 L 43.54,122.56 L 31.19,122.59 Z M 32.70,116.24 L 19.32,122.13 L 20.01,116.46 L 32.70,116.24 Z" fill="#E8E0D0" stroke="#B8B0A0" stroke-width="0.5"/>
<path d="M 44.00,97.69 L 10.22,123.92 L 0.00,122.92 L 0.00,3.46 L 5.27,6.19 L 15.20,5.28 L 10.76,0.00 L 49.41,0.00 L 60.53,0.73 L 106.70,14.59 L 166.90,63.53 L 194.49,58.27 L 211.42,70.23 L 188.97,96.62 L 93.10,101.33 L 43.54,122.56 L 44.00,97.69 Z" fill="#E8E0D0" stroke="#B8B0A0" stroke-width="0.5"/>
<path d="M 59.01,347.28 L 59.68,349.92 L 57.11,350.08 L 59.01,347.28 Z" fill="#E8E0D0" stroke="#B8B0A0" stroke-width="0.5"/>
<path d="M 646.87,123.10 L 732.84,132.14 L 762.95,116.42 L 800.00,130.93 L 800.00,354.64 L 774.96,370.57 L 748.35,364.07 L 752.36,388.68 L 689.79,470.14 L 669.69,447.36 L 643.74,445.81 L 647.34,417.30 L 626.70,404.27 L 638.46,362.73 L 602.82,344.91 L 585.66,319.43 L 615.22,316.52 L 636.52,294.16 L 634.22,276.40 L 611.04,263.99 L 650.00,235.48 L 626.65,208.94 L 639.42,195.73 L 630.01,150.93 L 646.87,123.10 Z M 667.97,474.49 L 671.54,467.64 L 681.02,473.86 L 667.97,474.49 Z" fill="#C8D8E8" stroke="#8BAABB" stroke-width="0.8"/>
<path d="M 639.42,195.73 L 626.65,208.94 L 650.00,235.48 L 611.04,263.99 L 634.22,276.40 L 636.52,294.16 L 615.22,316.52 L 585.66,319.43 L 602.82,344.91 L 638.46,362.73 L 626.70,404.27 L 574.77,374.21 L 431.72,388.78 L 345.38,371.08 L 295.70,378.33 L 298.10,370.99 L 266.27,388.69 L 272.18,405.82 L 258.22,406.25 L 217.49,372.68 L 170.56,364.96 L 150.00,345.12 L 162.41,316.59 L 190.98,308.59 L 270.51,328.46 L 308.63,322.41 L 286.11,327.33 L 297.07,334.20 L 428.51,344.39 L 461.49,343.85 L 482.56,325.18 L 525.21,329.85 L 529.32,306.62 L 490.82,291.10 L 444.43,250.57 L 463.12,240.61 L 446.22,223.43 L 461.93,214.11 L 451.57,201.52 L 464.54,190.99 L 411.29,167.10 L 339.71,162.17 L 329.41,148.70 L 347.52,134.12 L 337.81,134.12 L 382.31,116.42 L 451.02,115.48 L 519.72,135.72 L 528.72,149.65 L 548.96,139.28 L 618.76,159.03 L 614.73,150.78 L 630.01,150.93 L 639.42,195.73 Z M 310.11,400.07 L 287.32,395.93 L 288.68,393.80 L 310.11,400.07 Z M 281.64,313.66 L 286.11,319.05 L 276.45,321.01 L 281.64,313.66 Z M 446.39,93.75 L 477.11,105.73 L 418.64,97.69 L 446.39,93.75 Z M 359.62,268.22 L 376.39,263.34 L 438.71,284.81 L 445.28,300.99 L 359.62,268.22 Z" fill="#4A90D9" stroke="#1a5fa8" stroke-width="1.2"/>
<path d="M 676.25,339.85 L 658.38,347.62 L 621.89,334.32 L 619.07,328.16 L 676.25,339.85 Z" fill="#A8C8E8" stroke="none"/>
<path d="M 604.04,335.70 L 576.96,324.14 L 583.53,310.66 L 604.04,335.70 Z" fill="#A8C8E8" stroke="none"/>
</svg>