<svg xmlns="http://www.w3.org/2000/svg" width="800" height="500" viewBox="0 0 800 500">
<rect width="800" height="500" fill="#A8C8E8"/>
<path d="M 302.32,22.03 L 296.05,44.96 L 270.38,64.93 L 229.12,65.27 L 212.73,92.98 L 207.42,80.53 L 181.36,71.14 L 169.48,79.64 L 149.36,77.94 L 129.69,63.91 L 69.65,49.01 L 64.91,75.78 L 54.65,74.30 L 45.45,96.01 L 29.42,88.75 L 18.93,97.99 L 0.00,93.61 L 0.00,4.82 L 322.00,4.82 L 302.32,22.03 Z" fill="#E8E0D0" stroke="#B8B0A0" stroke-width="0.5"/>
<path d="M 639.69,20.22 L 635.56,32.60 L 648.22,40.89 L 648.35,50.72 L 588.32,28.67 L 580.04,14.22 L 558.20,4.82 L 637.11,4.82 L 639.69,20.22 Z M 505.63,18.60 L 488.72,6.66 L 461.31,7.63 L 447.91,16.59 L 441.62,31.30 L 420.26,29.02 L 420.89,7.46 L 410.41,6.51 L 409.42,4.82 L 516.53,4.82 L 505.63,18.60 Z M 374.64,7.35 L 361.41,7.89 L 361.39,4.82 L 377.29,4.82 L 374.64,7.35 Z" fill="#E8E0D0" stroke="#B8B0A0" stroke-width="0.5"/>
<path d="M 127.76,463.07 L 144.58,460.45 L 166.38,483.51 L 182.06,459.55 L 202.90,464.00 L 211.20,452.80 L 230.57,467.54 L 267.25,465.87 L 278.38,476.66 L 308.02,466.57 L 328.59,477.59 L 340.47,474.17 L 353.82,495.18 L 124.45,495.18 L 127.76,463.07 Z M 377.97,491.49 L 389.23,495.18 L 366.75,495.18 L 377.97,491.49 Z" fill="#E8E0D0" stroke="#B8B0A0" stroke-width="0.5"/>
<path d="M 205.31,118.84 L 227.71,157.88 L 217.08,173.28 L 222.33,190.06 L 201.85,193.64 L 184.92,185.11 L 173.13,195.17 L 189.52,199.44 L 193.86,208.54 L 190.31,217.76 L 175.06,223.84 L 177.95,236.85 L 173.49,246.57 L 180.62,251.95 L 174.37,264.25 L 178.92,267.01 L 163.33,266.39 L 141.72,285.53 L 144.30,302.55 L 132.07,296.72 L 116.24,297.47 L 103.46,308.63 L 73.93,304.84 L 58.33,310.09 L 35.48,334.21 L 0.00,326.60 L 0.00,93.17 L 1.17,94.33 L 19.64,97.91 L 29.42,88.75 L 45.45,96.01 L 54.65,74.30 L 64.91,75.78 L 68.04,49.22 L 129.69,63.91 L 149.36,77.94 L 169.48,79.64 L 181.36,71.14 L 207.42,80.53 L 212.73,92.98 L 205.31,118.84 Z" fill="#C8D8E8" stroke="#8BAABB" stroke-width="0.8"/>
<path d="M 204.81,333.86 L 238.16,376.91 L 260.35,382.16 L 280.02,399.99 L 320.29,403.23 L 338.81,385.27 L 356.92,382.71 L 352.77,395.22 L 361.87,411.16 L 357.08,421.52 L 372.02,428.18 L 364.90,429.59 L 362.53,443.40 L 394.25,461.62 L 373.17,462.42 L 367.50,468.76 L 373.90,488.72 L 362.34,495.18 L 353.86,495.18 L 340.90,474.45 L 328.59,477.59 L 308.02,466.57 L 278.38,476.66 L 267.25,465.87 L 230.57,467.54 L 211.20,452.80 L 202.90,464.00 L 182.06,459.55 L 166.38,483.51 L 144.58,460.45 L 127.76,463.07 L 124.45,495.18 L 62.81,495.18 L 63.59,488.11 L 58.51,473.49 L 37.73,451.81 L 18.62,446.36 L 6.81,486.08 L 0.73,489.11 L 1.83,485.12 L 0.00,481.86 L 0.00,428.76 L 23.13,431.85 L 38.47,411.26 L 54.41,433.22 L 63.66,427.82 L 79.63,437.03 L 93.33,434.56 L 89.16,418.43 L 96.91,414.25 L 88.16,405.22 L 119.19,392.41 L 120.81,371.32 L 112.84,362.94 L 116.52,352.74 L 144.48,342.86 L 147.34,334.33 L 163.38,334.80 L 160.38,321.78 L 168.44,315.96 L 204.81,333.86 Z M 17.34,493.54 L 25.98,488.37 L 16.18,471.35 L 18.77,464.95 L 30.55,486.74 L 31.30,495.18 L 17.93,495.18 L 17.34,493.54 Z M 26.98,474.17 L 34.73,469.03 L 36.11,456.68 L 55.72,486.08 L 48.97,489.78 L 26.98,474.17 Z" fill="#C8D8E8" stroke="#8BAABB" stroke-width="0.8"/>
<path d="M 669.27,147.83 L 692.99,161.57 L 749.76,169.63 L 772.69,164.56 L 798.82,189.89 L 800.00,189.58 L 800.00,495.18 L 550.60,495.18 L 537.51,483.83 L 547.97,467.91 L 494.44,431.68 L 495.81,402.07 L 488.62,403.09 L 455.80,363.53 L 472.43,356.37 L 486.84,360.32 L 496.77,346.24 L 522.26,344.49 L 532.30,330.12 L 533.79,309.79 L 548.59,298.99 L 558.25,264.40 L 585.43,224.17 L 585.90,210.77 L 605.44,188.41 L 632.32,183.23 L 669.27,147.83 Z" fill="#C8D8E8" stroke="#8BAABB" stroke-width="0.8"/>
<path d="M 488.62,403.09 L 495.81,402.07 L 494.44,431.68 L 547.97,467.91 L 537.51,483.83 L 550.60,495.18 L 385.32,495.18 L 377.97,491.49 L 371.05,495.18 L 364.34,495.18 L 363.56,492.86 L 373.90,488.72 L 367.50,468.76 L 394.25,461.62 L 362.53,443.40 L 364.90,429.59 L 372.02,428.18 L 357.08,421.52 L 361.87,411.16 L 353.53,390.71 L 369.01,373.95 L 383.61,377.26 L 404.73,357.46 L 455.80,363.53 L 488.62,403.09 Z" fill="#C8D8E8" stroke="#8BAABB" stroke-width="0.8"/>
<path d="M 608.19,84.58 L 595.54,96.73 L 592.42,117.34 L 565.24,121.51 L 542.90,97.63 L 519.67,105.45 L 496.89,96.77 L 475.53,100.61 L 461.80,128.12 L 432.64,144.37 L 410.13,133.86 L 395.75,149.16 L 352.29,154.13 L 345.26,161.60 L 350.66,176.61 L 341.55,182.53 L 271.47,183.90 L 241.68,158.60 L 221.91,154.60 L 205.31,118.84 L 218.64,77.57 L 229.12,65.27 L 270.38,64.93 L 296.05,44.96 L 302.32,22.03 L 322.00,4.82 L 360.87,4.82 L 361.41,7.89 L 374.64,7.35 L 377.13,4.82 L 409.35,4.82 L 410.41,6.51 L 420.89,7.46 L 422.12,29.68 L 441.62,31.30 L 447.91,16.59 L 461.31,7.63 L 488.72,6.66 L 505.63,18.60 L 516.95,11.36 L 515.55,5.15 L 516.86,4.82 L 549.06,4.82 L 572.02,9.18 L 588.32,28.67 L 625.09,42.25 L 608.19,84.58 Z" fill="#C8D8E8" stroke="#8BAABB" stroke-width="0.8"/>
<path d="M 35.48,334.21 L 58.33,310.09 L 73.93,304.84 L 103.46,308.63 L 116.24,297.47 L 132.07,296.72 L 144.30,302.55 L 141.00,286.30 L 150.00,281.73 L 167.05,284.26 L 170.81,307.06 L 179.98,316.20 L 162.52,319.33 L 163.38,334.80 L 147.34,334.33 L 144.48,342.86 L 116.52,352.74 L 112.84,362.94 L 120.81,371.32 L 119.19,392.41 L 88.16,405.22 L 96.91,414.25 L 89.16,418.43 L 93.33,434.56 L 79.63,437.03 L 63.66,427.82 L 54.41,433.22 L 38.47,411.26 L 23.13,431.85 L 0.00,432.70 L 0.00,325.44 L 35.48,334.21 Z" fill="#C8D8E8" stroke="#8BAABB" stroke-width="0.8"/>
<path d="M 798.82,189.89 L 772.69,164.56 L 749.76,169.63 L 692.99,161.57 L 669.27,147.83 L 650.00,164.24 L 644.39,148.61 L 629.94,147.95 L 620.80,132.17 L 611.64,132.12 L 605.35,114.73 L 595.11,114.59 L 595.54,96.73 L 608.19,84.58 L 625.09,42.25 L 649.22,48.99 L 635.56,32.60 L 639.69,20.22 L 637.11,4.82 L 800.00,4.82 L 800.00,189.58 L 798.82,189.89 Z" fill="#C8D8E8" stroke="#8BAABB" stroke-width="0.8"/>
<path d="M 632.32,183.23 L 605.44,188.41 L 585.90,210.77 L 585.43,224.17 L 558.25,264.40 L 548.59,298.99 L 533.79,309.79 L 532.30,330.12 L 515.40,349.66 L 498.31,345.80 L 486.84,360.32 L 472.43,356.37 L 455.80,363.53 L 404.73,357.46 L 383.61,377.26 L 370.71,373.21 L 362.85,383.72 L 338.81,385.27 L 320.29,403.23 L 280.02,399.99 L 260.35,382.16 L 242.23,380.05 L 204.81,333.86 L 181.05,320.87 L 170.23,305.55 L 167.05,284.26 L 150.00,281.73 L 163.33,266.39 L 178.92,267.01 L 174.37,264.25 L 180.62,251.95 L 173.49,246.57 L 177.95,236.85 L 175.06,223.84 L 190.31,217.76 L 193.86,208.54 L 189.52,199.44 L 173.13,195.17 L 184.92,185.11 L 201.85,193.64 L 222.33,190.06 L 217.08,173.28 L 230.40,156.27 L 277.64,185.56 L 341.55,182.53 L 350.66,176.61 L 345.26,161.60 L 352.29,154.13 L 395.75,149.16 L 410.13,133.86 L 432.64,144.37 L 461.80,128.12 L 473.40,101.44 L 496.89,96.77 L 519.67,105.45 L 542.90,97.63 L 567.55,122.29 L 605.35,114.73 L 611.64,132.12 L 620.80,132.17 L 629.94,147.95 L 644.39,148.61 L 650.00,164.24 L 632.32,183.23 Z" fill="#4A90D9" stroke="#1a5fa8" stroke-width="1.2"/>
<path d="M 251.75,297.51 L 235.04,295.95 L 282.58,278.18 L 280.54,272.95 L 293.93,260.31 L 302.91,265.38 L 280.89,281.62 L 251.75,297.51 Z" fill="#A8C8E8" stroke="none"/>
</svg>