<svg xmlns="http://www.w3.org/2000/svg" width="800" height="500" viewBox="0 0 800 500">
<rect width="800" height="500" fill="#A8C8E8"/>
<path d="M 302.32,17.55 L 296.05,40.92 L 270.38,61.29 L 229.12,61.64 L 212.73,89.89 L 207.42,77.20 L 181.36,67.63 L 169.48,76.28 L 149.36,74.56 L 129.69,60.25 L 69.65,45.06 L 64.91,72.35 L 54.65,70.84 L 45.45,92.98 L 29.42,85.58 L 18.93,95.00 L 0.00,90.54 L 0.00,0.00 L 322.00,0.00 L 302.32,17.55 Z" fill="#E8E0D0" stroke="#B8B0A0" stroke-width="0.5"/>
<path d="M 639.69,15.70 L 635.56,28.32 L 648.22,36.77 L 648.35,46.80 L 588.32,24.32 L 580.04,9.58 L 558.20,0.00 L 637.11,0.00 L 639.69,15.70 Z M 505.63,14.05 L 488.72,1.87 L 461.31,2.86 L 447.91,12.00 L 441.62,26.99 L 420.26,24.67 L 420.89,2.69 L 410.41,1.72 L 409.42,0.00 L 516.53,0.00 L 505.63,14.05 Z M 374.64,2.57 L 361.41,3.13 L 361.39,0.00 L 377.29,0.00 L 374.64,2.57 Z" fill="#E8E0D0" stroke="#B8B0A0" stroke-width="0.5"/>
<path d="M 127.76,467.26 L 144.58,464.59 L 166.38,488.10 L 182.06,463.67 L 202.90,468.21 L 211.20,456.79 L 230.57,471.82 L 267.25,470.12 L 278.38,481.12 L 308.02,470.84 L 328.59,482.06 L 340.47,478.58 L 353.82,500.00 L 124.45,500.00 L 127.76,467.26 Z M 377.97,496.25 L 389.23,500.00 L 366.75,500.00 L 377.97,496.25 Z" fill="#E8E0D0" stroke="#B8B0A0" stroke-width="0.5"/>
<path d="M 205.31,116.26 L 227.71,156.06 L 217.08,171.78 L 222.33,188.88 L 201.85,192.53 L 184.92,183.83 L 173.13,194.10 L 189.52,198.44 L 193.86,207.72 L 190.31,217.13 L 175.06,223.33 L 177.95,236.60 L 173.49,246.50 L 180.62,251.99 L 174.37,264.53 L 178.92,267.35 L 163.33,266.71 L 141.72,286.23 L 144.30,303.59 L 132.07,297.64 L 116.24,298.41 L 103.46,309.78 L 73.93,305.92 L 58.33,311.27 L 35.48,335.86 L 0.00,328.10 L 0.00,90.08 L 1.17,91.27 L 19.64,94.92 L 29.42,85.58 L 45.45,92.98 L 54.65,70.84 L 64.91,72.35 L 68.04,45.26 L 129.69,60.25 L 149.36,74.56 L 169.48,76.28 L 181.36,67.63 L 207.42,77.20 L 212.73,89.89 L 205.31,116.26 Z" fill="#C8D8E8" stroke="#8BAABB" stroke-width="0.8"/>
<path d="M 204.81,335.51 L 238.16,379.41 L 260.35,384.76 L 280.02,402.94 L 320.29,406.25 L 338.81,387.93 L 356.92,385.32 L 352.77,398.08 L 361.87,414.33 L 357.08,424.90 L 372.02,431.69 L 364.90,433.12 L 362.53,447.21 L 394.25,465.79 L 373.17,466.60 L 367.50,473.07 L 373.90,493.41 L 362.34,500.00 L 353.86,500.00 L 340.90,478.87 L 328.59,482.06 L 308.02,470.84 L 278.38,481.12 L 267.25,470.12 L 230.57,471.82 L 211.20,456.79 L 202.90,468.21 L 182.06,463.67 L 166.38,488.10 L 144.58,464.59 L 127.76,467.26 L 124.45,500.00 L 62.81,500.00 L 63.59,492.79 L 58.51,477.89 L 37.73,455.78 L 18.62,450.22 L 6.81,490.73 L 0.73,493.82 L 1.83,489.74 L 0.00,486.42 L 0.00,432.28 L 23.13,435.42 L 38.47,414.43 L 54.41,436.82 L 63.66,431.32 L 79.63,440.71 L 93.33,438.19 L 89.16,421.74 L 96.91,417.48 L 88.16,408.28 L 119.19,395.21 L 120.81,373.71 L 112.84,365.17 L 116.52,354.76 L 144.48,344.69 L 147.34,335.99 L 163.38,336.47 L 160.38,323.19 L 168.44,317.26 L 204.81,335.51 Z M 17.34,498.34 L 25.98,493.06 L 16.18,475.71 L 18.77,469.18 L 30.55,491.40 L 31.30,500.00 L 17.93,500.00 L 17.34,498.34 Z M 26.98,478.58 L 34.73,473.34 L 36.11,460.75 L 55.72,490.73 L 48.97,494.50 L 26.98,478.58 Z" fill="#C8D8E8" stroke="#8BAABB" stroke-width="0.8"/>
<path d="M 669.27,145.82 L 692.99,159.83 L 749.76,168.05 L 772.69,162.87 L 798.82,188.71 L 800.00,188.39 L 800.00,500.00 L 550.60,500.00 L 537.51,488.43 L 547.97,472.20 L 494.44,435.26 L 495.81,405.06 L 488.62,406.11 L 455.80,365.77 L 472.43,358.47 L 486.84,362.49 L 496.77,348.14 L 522.26,346.35 L 532.30,331.69 L 533.79,310.96 L 548.59,299.96 L 558.25,264.68 L 585.43,223.66 L 585.90,210.00 L 605.44,187.20 L 632.32,181.91 L 669.27,145.82 Z" fill="#C8D8E8" stroke="#8BAABB" stroke-width="0.8"/>
<path d="M 488.62,406.11 L 495.81,405.06 L 494.44,435.26 L 547.97,472.20 L 537.51,488.43 L 550.60,500.00 L 385.32,500.00 L 377.97,496.25 L 371.05,500.00 L 364.34,500.00 L 363.56,497.64 L 373.90,493.41 L 367.50,473.07 L 394.25,465.79 L 362.53,447.21 L 364.90,433.12 L 372.02,431.69 L 357.08,424.90 L 361.87,414.33 L 353.53,393.48 L 369.01,376.38 L 383.61,379.77 L 404.73,359.57 L 455.80,365.77 L 488.62,406.11 Z" fill="#C8D8E8" stroke="#8BAABB" stroke-width="0.8"/>
<path d="M 608.19,81.32 L 595.54,93.71 L 592.42,114.73 L 565.24,118.99 L 542.90,94.63 L 519.67,102.61 L 496.89,93.75 L 475.53,97.67 L 461.80,125.72 L 432.64,142.29 L 410.13,131.57 L 395.75,147.18 L 352.29,152.24 L 345.26,159.86 L 350.66,175.17 L 341.55,181.20 L 271.47,182.60 L 241.68,156.81 L 221.91,152.72 L 205.31,116.26 L 218.64,74.18 L 229.12,61.64 L 270.38,61.29 L 296.05,40.92 L 302.32,17.55 L 322.00,0.00 L 360.87,0.00 L 361.41,3.13 L 374.64,2.57 L 377.13,0.00 L 409.35,0.00 L 410.41,1.72 L 420.89,2.69 L 422.12,25.34 L 441.62,26.99 L 447.91,12.00 L 461.31,2.86 L 488.72,1.87 L 505.63,14.05 L 516.95,6.66 L 515.55,0.33 L 516.86,0.00 L 549.06,0.00 L 572.02,4.44 L 588.32,24.32 L 625.09,38.16 L 608.19,81.32 Z" fill="#C8D8E8" stroke="#8BAABB" stroke-width="0.8"/>
<path d="M 35.48,335.86 L 58.33,311.27 L 73.93,305.92 L 103.46,309.78 L 116.24,298.41 L 132.07,297.64 L 144.30,303.59 L 141.00,287.01 L 150.00,282.36 L 167.05,284.93 L 170.81,308.18 L 179.98,317.50 L 162.52,320.69 L 163.38,336.47 L 147.34,335.99 L 144.48,344.69 L 116.52,354.76 L 112.84,365.17 L 120.81,373.71 L 119.19,395.21 L 88.16,408.28 L 96.91,417.48 L 89.16,421.74 L 93.33,438.19 L 79.63,440.71 L 63.66,431.32 L 54.41,436.82 L 38.47,414.43 L 23.13,435.42 L 0.00,436.30 L 0.00,326.92 L 35.48,335.86 Z" fill="#C8D8E8" stroke="#8BAABB" stroke-width="0.8"/>
<path d="M 798.82,188.71 L 772.69,162.87 L 749.76,168.05 L 692.99,159.83 L 669.27,145.82 L 650.00,162.55 L 644.39,146.61 L 629.94,145.94 L 620.80,129.85 L 611.64,129.80 L 605.35,112.07 L 595.11,111.92 L 595.54,93.71 L 608.19,81.32 L 625.09,38.16 L 649.22,45.04 L 635.56,28.32 L 639.69,15.70 L 637.11,0.00 L 800.00,0.00 L 800.00,188.39 L 798.82,188.71 Z" fill="#C8D8E8" stroke="#8BAABB" stroke-width="0.8"/>
<path d="M 632.32,181.91 L 605.44,187.20 L 585.90,210.00 L 585.43,223.66 L 558.25,264.68 L 548.59,299.96 L 533.79,310.96 L 532.30,331.69 L 515.40,351.62 L 498.31,347.68 L 486.84,362.49 L 472.43,358.47 L 455.80,365.77 L 404.73,359.57 L 383.61,379.77 L 370.71,375.63 L 362.85,386.35 L 338.81,387.93 L 320.29,406.25 L 280.02,402.94 L 260.35,384.76 L 242.23,382.61 L 204.81,335.51 L 181.05,322.26 L 170.23,306.65 L 167.05,284.93 L 150.00,282.36 L 163.33,266.71 L 178.92,267.35 L 174.37,264.53 L 180.62,251.99 L 173.49,246.50 L 177.95,236.60 L 175.06,223.33 L 190.31,217.13 L 193.86,207.72 L 189.52,198.44 L 173.13,194.10 L 184.92,183.83 L 201.85,192.53 L 222.33,188.88 L 217.08,171.78 L 230.40,154.42 L 277.64,184.29 L 341.55,181.20 L 350.66,175.17 L 345.26,159.86 L 352.29,152.24 L 395.75,147.18 L 410.13,131.57 L 432.64,142.29 L 461.80,125.72 L 473.40,98.52 L 496.89,93.75 L 519.67,102.61 L 542.90,94.63 L 567.55,119.77 L 605.35,112.07 L 611.64,129.80 L 620.80,129.85 L 629.94,145.94 L 644.39,146.61 L 650.00,162.55 L 632.32,181.91 Z" fill="#4A90D9" stroke="#1a5fa8" stroke-width="1.2"/>
<path d="M 251.75,298.45 L 235.04,296.85 L 282.58,278.73 L 280.54,273.40 L 293.93,260.51 L 302.91,265.69 L 280.89,282.25 L 251.75,298.45 Z" fill="#A8C8E8" stroke="none"/>
</svg>