<svg xmlns="http://www.w3.org/2000/svg" width="800" height="500" viewBox="0 0 800 500">
<rect width="800" height="500" fill="#A8C8E8"/>
<path d="M 137.91,76.90 L 137.16,78.06 L 135.15,73.09 L 135.44,69.95 L 137.12,68.94 L 138.09,72.88 L 137.91,76.90 Z M 136.01,67.06 L 134.81,68.49 L 135.67,65.05 L 136.01,67.06 Z M 133.03,57.16 L 131.40,55.66 L 132.11,54.40 L 133.03,57.16 Z M 134.33,55.30 L 134.33,56.12 L 133.64,55.09 L 134.33,55.30 Z M 133.35,54.88 L 132.94,51.85 L 133.57,50.50 L 133.35,54.88 Z M 128.80,49.74 L 128.99,48.10 L 129.22,49.60 L 128.80,49.74 Z M 134.92,45.67 L 134.63,46.57 L 134.69,44.14 L 134.92,45.67 Z M 126.26,33.42 L 125.16,33.68 L 125.37,31.26 L 126.26,33.42 Z M 123.03,7.75 L 121.38,7.66 L 121.87,1.68 L 122.94,0.85 L 123.57,3.16 L 123.03,7.75 Z" fill="#E8E0D0" stroke="#B8B0A0" stroke-width="0.5"/>
<path d="M 294.52,0.53 L 292.42,0.43 L 291.24,4.50 L 289.34,4.63 L 283.34,10.47 L 282.30,8.63 L 280.29,8.57 L 280.74,7.73 L 280.73,6.21 L 280.64,5.30 L 280.21,4.50 L 280.67,7.39 L 280.29,5.89 L 279.99,8.83 L 279.76,6.34 L 279.09,5.38 L 277.64,4.98 L 277.48,7.79 L 275.83,9.09 L 277.56,8.81 L 278.11,12.21 L 274.10,11.62 L 278.18,14.59 L 276.56,17.99 L 274.60,16.42 L 273.42,13.41 L 272.68,12.64 L 274.53,16.85 L 277.08,19.44 L 276.78,20.44 L 275.89,20.81 L 271.08,13.26 L 270.74,13.15 L 275.76,22.37 L 275.42,25.23 L 273.69,25.92 L 267.53,17.36 L 271.65,26.05 L 271.61,29.25 L 264.49,33.71 L 259.73,42.92 L 255.67,43.57 L 258.22,41.34 L 257.03,41.47 L 257.77,39.67 L 256.17,39.51 L 257.06,22.39 L 257.46,20.28 L 259.22,18.75 L 259.86,20.17 L 259.79,18.39 L 256.14,13.30 L 254.42,14.82 L 253.46,9.71 L 252.85,10.47 L 252.66,9.70 L 253.91,7.69 L 257.04,7.63 L 259.35,4.23 L 258.75,1.07 L 259.41,0.00 L 259.61,0.00 L 262.08,1.91 L 262.91,0.00 L 267.36,0.00 L 268.18,2.11 L 268.76,0.84 L 271.43,3.24 L 271.32,0.00 L 294.82,0.00 L 294.52,0.53 Z M 272.60,26.00 L 271.64,25.48 L 270.87,23.61 L 270.52,21.96 L 272.60,26.00 Z M 277.69,13.12 L 277.38,13.30 L 275.07,12.01 L 277.69,13.12 Z M 282.68,9.59 L 281.33,11.50 L 281.24,10.24 L 282.68,9.59 Z M 280.13,9.97 L 279.16,10.61 L 279.59,7.82 L 280.13,9.97 Z M 278.79,7.04 L 278.98,6.21 L 278.79,5.77 L 279.61,6.39 L 279.39,7.61 L 278.79,7.04 Z M 276.64,41.72 L 275.80,42.53 L 275.71,41.59 L 276.64,41.72 Z M 275.33,20.69 L 274.10,18.65 L 274.32,18.76 L 275.33,20.69 Z M 248.11,15.73 L 248.30,17.36 L 246.07,10.61 L 247.80,9.12 L 248.64,10.61 L 248.11,15.73 Z M 278.64,9.97 L 277.89,8.87 L 277.68,5.12 L 278.73,6.09 L 278.64,8.31 L 278.64,9.97 Z M 301.69,7.51 L 301.71,8.16 L 301.38,7.94 L 301.69,7.51 Z" fill="#E8E0D0" stroke="#B8B0A0" stroke-width="0.5"/>
<path d="M 271.43,3.24 L 268.76,0.84 L 268.18,2.11 L 267.36,0.00 L 271.32,0.00 L 271.43,3.24 Z M 262.08,1.91 L 259.61,0.00 L 262.91,0.00 L 262.08,1.91 Z M 258.75,1.07 L 259.09,4.66 L 257.04,7.63 L 253.91,7.69 L 252.85,9.78 L 250.46,6.90 L 247.15,6.57 L 246.29,4.50 L 245.79,7.39 L 243.65,8.19 L 242.33,6.03 L 243.04,4.00 L 244.36,3.73 L 244.73,0.86 L 244.58,0.00 L 259.41,0.00 L 258.75,1.07 Z M 241.24,1.06 L 238.25,1.12 L 238.11,0.00 L 241.40,0.00 L 241.24,1.06 Z M 245.64,8.50 L 245.51,9.07 L 244.96,8.57 L 245.64,8.50 Z M 239.89,5.00 L 239.03,3.33 L 239.53,3.04 L 239.89,5.00 Z M 240.39,7.37 L 240.01,6.11 L 240.34,6.03 L 240.39,7.37 Z" fill="#E8E0D0" stroke="#B8B0A0" stroke-width="0.5"/>
<path d="M 198.92,1.39 L 198.18,1.32 L 195.97,7.80 L 196.45,10.73 L 195.00,10.86 L 196.12,13.15 L 195.00,15.59 L 194.93,21.45 L 196.87,28.83 L 195.92,29.86 L 196.13,31.79 L 198.52,32.38 L 199.18,30.88 L 202.09,30.12 L 202.99,31.78 L 203.88,43.46 L 205.80,47.49 L 205.66,45.15 L 206.63,46.38 L 209.02,64.46 L 210.48,69.44 L 208.86,68.35 L 208.65,63.51 L 207.20,63.45 L 207.72,60.16 L 206.52,58.80 L 205.81,59.95 L 206.18,63.45 L 208.85,70.15 L 210.28,70.64 L 210.60,69.16 L 212.56,73.64 L 215.08,76.00 L 218.93,75.64 L 218.28,74.18 L 221.17,76.27 L 223.51,82.62 L 226.78,87.15 L 226.64,90.17 L 223.82,96.78 L 222.36,96.30 L 221.18,93.59 L 217.82,95.90 L 216.44,98.82 L 214.73,95.80 L 215.97,93.09 L 216.00,87.35 L 213.29,87.53 L 212.17,82.76 L 211.09,83.66 L 208.45,82.22 L 207.10,78.91 L 206.05,79.00 L 205.62,83.71 L 200.81,75.61 L 201.49,70.99 L 199.42,69.66 L 199.92,66.33 L 199.33,67.71 L 198.88,66.17 L 198.47,68.12 L 197.47,67.36 L 196.54,61.78 L 194.77,59.06 L 194.35,60.46 L 193.72,59.88 L 194.11,56.12 L 192.46,53.77 L 190.86,54.28 L 190.12,49.17 L 189.26,49.49 L 189.61,47.66 L 187.13,48.83 L 187.10,51.96 L 185.60,50.63 L 184.65,44.78 L 185.23,44.78 L 185.32,38.90 L 186.73,35.46 L 186.10,35.63 L 186.63,34.78 L 185.98,32.22 L 187.45,25.91 L 188.25,25.59 L 187.52,24.87 L 188.82,20.44 L 188.05,20.55 L 189.34,18.39 L 190.31,13.27 L 190.71,5.12 L 193.80,0.00 L 198.87,0.00 L 198.92,1.39 Z M 180.74,28.60 L 180.77,28.21 L 181.04,28.30 L 180.74,28.60 Z M 201.01,26.42 L 200.62,26.46 L 200.96,26.03 L 201.01,26.42 Z M 200.76,24.73 L 200.73,24.76 L 200.70,24.50 L 200.76,24.73 Z M 195.72,81.95 L 195.08,81.62 L 195.60,81.24 L 195.72,81.95 Z M 199.88,81.08 L 200.50,78.47 L 201.02,81.55 L 199.88,81.08 Z M 198.29,68.88 L 197.52,69.72 L 197.46,68.64 L 198.29,68.88 Z M 194.18,62.00 L 194.44,64.64 L 193.69,62.88 L 193.73,61.34 L 194.18,62.00 Z M 194.54,62.28 L 193.84,60.99 L 194.08,60.77 L 194.54,62.28 Z M 189.03,53.54 L 189.04,56.52 L 188.23,52.43 L 189.03,53.54 Z M 185.65,58.86 L 185.54,51.16 L 187.25,53.19 L 187.03,56.52 L 185.65,58.86 Z M 189.23,53.05 L 188.78,52.75 L 189.26,51.16 L 189.23,53.05 Z M 185.99,34.70 L 185.24,35.43 L 185.18,33.33 L 185.99,34.70 Z M 204.90,27.49 L 203.65,28.34 L 203.43,25.59 L 205.00,25.21 L 204.90,27.49 Z M 187.01,22.47 L 186.81,22.98 L 186.66,22.58 L 187.01,22.47 Z M 204.96,21.69 L 205.21,23.74 L 204.10,22.72 L 204.96,21.69 Z M 180.88,27.53 L 181.34,27.42 L 181.33,27.96 L 180.88,27.53 Z M 185.82,36.90 L 185.32,38.38 L 185.22,36.17 L 185.82,36.90 Z" fill="#E8E0D0" stroke="#B8B0A0" stroke-width="0.5"/>
<path d="M 370.38,117.30 L 371.18,123.31 L 368.41,121.61 L 367.73,113.88 L 369.00,112.24 L 370.38,117.30 Z M 364.60,115.58 L 365.73,121.80 L 364.87,126.70 L 363.36,128.84 L 361.10,124.31 L 359.61,124.22 L 359.20,120.19 L 356.52,117.96 L 360.08,117.86 L 368.52,109.61 L 364.60,115.58 Z" fill="#E8E0D0" stroke="#B8B0A0" stroke-width="0.5"/>
<path d="M 190.82,4.70 L 190.61,10.99 L 188.38,17.75 L 187.47,4.20 L 188.23,4.62 L 189.34,1.68 L 188.80,1.10 L 190.23,0.31 L 190.18,0.00 L 193.74,0.00 L 190.82,4.70 Z M 182.68,21.33 L 182.64,20.74 L 182.98,20.71 L 182.68,21.33 Z M 184.89,8.25 L 184.57,8.54 L 184.54,7.92 L 184.89,8.25 Z M 185.61,17.36 L 183.93,20.39 L 183.86,18.26 L 185.61,17.36 Z M 184.42,13.92 L 185.09,14.31 L 184.50,16.73 L 184.42,13.92 Z M 181.86,9.26 L 181.50,10.03 L 181.27,9.70 L 181.51,8.31 L 181.86,9.26 Z M 188.49,2.02 L 188.21,2.87 L 187.90,2.75 L 187.85,0.93 L 188.49,2.02 Z M 181.52,0.32 L 181.95,0.41 L 181.21,1.80 L 181.52,0.32 Z M 185.20,4.62 L 184.64,1.11 L 183.32,0.99 L 183.92,0.00 L 184.62,0.00 L 185.39,1.94 L 185.20,4.62 Z" fill="#E8E0D0" stroke="#B8B0A0" stroke-width="0.5"/>
<path d="M 471.95,499.38 L 473.29,497.67 L 471.95,497.67 L 471.07,500.00 L 470.40,500.00 L 470.09,498.03 L 469.71,498.94 L 469.41,492.43 L 472.16,492.06 L 472.28,490.40 L 472.74,491.48 L 473.29,489.31 L 472.60,489.21 L 472.54,487.32 L 475.33,489.38 L 475.97,491.55 L 478.21,492.29 L 476.98,490.45 L 477.76,488.48 L 474.95,488.18 L 476.80,485.68 L 474.78,487.32 L 474.47,485.29 L 476.42,484.53 L 476.20,482.11 L 476.98,482.07 L 477.99,485.68 L 477.78,483.18 L 477.99,482.87 L 479.33,485.27 L 480.89,485.23 L 480.18,483.62 L 480.87,482.83 L 478.23,481.65 L 479.55,480.52 L 477.67,477.75 L 479.47,475.86 L 478.73,475.48 L 479.98,473.33 L 479.92,475.35 L 480.44,474.09 L 480.97,475.94 L 481.56,473.18 L 482.60,474.20 L 482.92,468.22 L 484.17,469.09 L 483.35,470.25 L 483.13,475.86 L 484.17,471.47 L 484.17,472.80 L 485.44,472.57 L 485.26,474.93 L 486.18,475.92 L 486.26,473.70 L 487.52,473.52 L 486.86,471.14 L 488.65,467.69 L 488.53,465.82 L 486.78,464.45 L 488.12,464.52 L 487.26,462.60 L 488.01,462.00 L 488.72,462.61 L 488.28,464.38 L 489.47,463.24 L 488.88,465.64 L 490.21,468.33 L 490.65,465.16 L 492.81,462.73 L 492.00,465.50 L 492.81,465.41 L 493.64,468.33 L 494.16,465.28 L 494.61,466.30 L 495.05,465.41 L 494.77,463.75 L 496.40,463.11 L 495.20,460.18 L 496.24,460.68 L 496.47,459.28 L 498.17,459.92 L 499.36,463.45 L 499.75,461.83 L 500.09,463.11 L 500.53,462.04 L 502.50,462.97 L 508.26,474.72 L 511.34,477.42 L 510.11,479.94 L 509.09,491.90 L 509.93,490.56 L 510.19,486.05 L 511.98,490.14 L 510.96,483.72 L 512.24,480.89 L 512.64,483.35 L 512.80,482.36 L 513.38,483.40 L 513.73,483.45 L 513.60,479.87 L 513.05,479.00 L 514.62,478.06 L 520.82,480.90 L 521.71,482.32 L 521.37,486.82 L 522.12,485.82 L 522.04,487.08 L 522.57,484.66 L 522.20,479.62 L 524.89,481.43 L 526.07,485.82 L 527.62,486.26 L 526.36,481.59 L 526.77,479.55 L 530.39,479.05 L 530.51,477.54 L 528.00,479.30 L 528.38,478.28 L 527.45,478.66 L 526.10,475.47 L 527.51,475.14 L 528.29,473.95 L 525.53,474.20 L 523.60,471.66 L 523.76,470.18 L 524.95,465.02 L 526.07,465.78 L 526.30,464.00 L 527.71,463.90 L 527.50,461.59 L 528.58,459.63 L 529.40,453.59 L 530.25,455.32 L 533.35,451.47 L 534.20,451.89 L 531.92,448.51 L 532.00,444.34 L 534.05,443.70 L 534.44,439.35 L 536.20,439.01 L 536.10,437.94 L 536.97,440.04 L 538.12,439.88 L 536.68,438.53 L 537.30,438.08 L 536.88,434.30 L 539.11,434.94 L 539.18,437.73 L 539.41,436.84 L 540.38,438.75 L 541.12,438.50 L 540.09,436.40 L 541.12,436.84 L 539.56,434.30 L 540.45,433.02 L 542.02,433.79 L 541.75,429.58 L 544.26,431.24 L 544.69,427.66 L 546.34,432.23 L 551.22,430.86 L 552.97,432.55 L 555.08,429.75 L 555.37,431.09 L 556.48,430.86 L 556.56,433.92 L 557.12,429.72 L 558.48,428.55 L 559.73,429.39 L 560.58,429.32 L 559.25,428.09 L 558.79,422.83 L 559.91,420.40 L 557.73,417.10 L 556.37,416.33 L 553.50,417.97 L 552.08,414.77 L 549.81,414.02 L 551.06,411.44 L 552.16,412.45 L 552.19,410.64 L 553.59,412.12 L 554.24,415.80 L 554.91,414.55 L 553.95,410.79 L 555.44,413.23 L 556.07,410.51 L 556.45,413.50 L 557.51,412.59 L 559.68,417.70 L 562.08,416.03 L 562.25,414.41 L 565.04,421.34 L 569.01,422.17 L 569.01,424.35 L 573.18,421.68 L 572.40,424.15 L 573.48,425.24 L 574.71,423.95 L 575.05,425.50 L 575.60,424.60 L 576.12,428.26 L 577.20,426.25 L 580.56,428.04 L 582.46,425.87 L 583.47,429.20 L 587.34,432.44 L 586.83,431.09 L 588.66,431.41 L 587.40,430.40 L 588.96,428.47 L 591.37,428.68 L 592.72,427.19 L 591.30,427.91 L 591.42,426.19 L 593.41,425.34 L 594.77,422.36 L 594.81,424.05 L 592.78,426.90 L 594.95,426.25 L 592.07,430.62 L 592.94,432.64 L 596.44,428.04 L 595.15,430.82 L 596.51,431.16 L 595.69,433.60 L 596.23,435.51 L 598.95,434.58 L 599.81,430.99 L 597.78,430.02 L 600.76,425.77 L 602.08,424.92 L 600.97,426.59 L 603.08,431.75 L 603.96,431.79 L 603.25,430.65 L 604.13,429.90 L 606.56,433.27 L 604.25,436.92 L 604.62,435.34 L 603.91,435.69 L 604.14,437.53 L 603.36,440.11 L 602.47,440.14 L 602.50,442.29 L 601.94,440.71 L 600.99,441.24 L 603.01,445.37 L 601.26,444.99 L 602.03,446.53 L 600.99,449.96 L 599.36,451.18 L 600.08,449.65 L 599.48,446.32 L 599.21,448.48 L 598.57,447.86 L 597.58,450.34 L 597.46,447.72 L 596.44,451.25 L 595.95,449.46 L 594.59,451.51 L 595.52,453.37 L 594.28,453.93 L 594.62,458.73 L 596.70,457.78 L 595.02,463.30 L 594.87,467.69 L 593.24,468.99 L 590.66,476.18 L 588.98,477.50 L 590.09,481.69 L 598.30,490.26 L 598.83,493.07 L 602.33,495.89 L 603.62,500.00 L 471.93,500.00 L 471.95,499.38 Z M 606.65,498.74 L 607.70,500.00 L 605.95,500.00 L 606.65,498.74 Z M 654.36,499.95 L 655.03,494.73 L 657.49,482.87 L 655.92,473.06 L 656.76,466.18 L 655.34,461.55 L 657.79,450.11 L 656.60,445.18 L 659.06,439.26 L 660.46,443.74 L 660.10,440.93 L 661.22,440.14 L 659.20,439.01 L 660.85,437.73 L 658.93,437.63 L 657.79,436.20 L 658.35,435.30 L 657.42,435.18 L 657.86,436.97 L 656.67,436.90 L 658.05,431.17 L 659.06,431.24 L 658.44,430.71 L 659.29,426.95 L 660.18,426.00 L 660.25,428.82 L 661.49,427.61 L 660.56,424.91 L 662.56,414.53 L 662.77,407.32 L 664.65,406.41 L 667.07,402.43 L 667.83,403.63 L 666.58,407.27 L 667.55,405.72 L 668.37,408.29 L 669.20,407.77 L 670.62,415.35 L 670.51,423.81 L 671.92,425.61 L 674.71,426.25 L 672.94,429.61 L 672.84,432.96 L 674.76,434.08 L 675.21,436.79 L 676.73,438.25 L 675.91,443.23 L 677.92,442.34 L 677.48,446.85 L 678.51,455.20 L 677.77,459.41 L 679.48,464.32 L 680.52,471.54 L 682.24,473.56 L 684.64,471.00 L 685.07,468.71 L 686.19,469.87 L 688.17,467.07 L 689.20,470.83 L 689.77,470.38 L 690.25,474.40 L 692.68,475.48 L 694.09,479.05 L 696.19,479.55 L 697.52,481.59 L 696.33,485.75 L 697.56,487.32 L 696.42,490.63 L 698.31,500.00 L 654.37,500.00 L 654.36,499.95 Z M 510.94,485.02 L 510.86,486.20 L 510.26,483.36 L 510.94,485.02 Z M 513.62,483.38 L 512.68,480.23 L 513.02,480.64 L 513.62,483.38 Z M 526.36,480.19 L 526.05,479.01 L 526.41,479.40 L 526.36,480.19 Z M 526.09,480.49 L 526.14,481.98 L 525.17,478.91 L 526.09,480.49 Z M 493.10,461.73 L 493.72,462.21 L 492.68,462.28 L 493.10,461.73 Z M 584.18,428.11 L 583.98,429.03 L 583.39,427.54 L 584.18,428.11 Z M 584.42,427.86 L 583.98,427.26 L 584.50,427.15 L 584.42,427.86 Z M 585.61,425.97 L 585.48,425.75 L 585.56,425.34 L 586.30,425.53 L 585.61,425.97 Z M 568.49,419.44 L 567.14,420.52 L 567.13,419.72 L 568.49,419.44 Z M 568.78,417.60 L 567.52,418.36 L 567.52,417.34 L 568.78,417.60 Z M 603.60,495.75 L 603.08,497.15 L 602.55,495.95 L 603.60,495.75 Z M 604.94,495.36 L 603.82,496.51 L 603.82,494.73 L 604.94,495.36 Z M 607.53,498.42 L 606.02,496.08 L 606.68,493.69 L 607.64,494.79 L 607.53,498.42 Z M 602.25,494.48 L 601.28,494.34 L 601.57,492.60 L 602.55,492.69 L 602.25,494.48 Z M 605.09,494.48 L 605.01,492.95 L 605.47,491.93 L 605.09,494.48 Z M 470.01,488.40 L 468.97,488.24 L 469.75,487.72 L 470.01,488.40 Z M 472.39,490.01 L 471.09,490.85 L 471.65,489.62 L 470.31,489.38 L 471.50,487.20 L 472.39,490.01 Z M 475.40,483.20 L 474.71,482.15 L 475.37,481.47 L 475.40,483.20 Z M 593.27,480.82 L 592.45,480.85 L 592.90,479.58 L 593.27,480.82 Z M 478.42,475.09 L 477.69,476.10 L 477.24,474.27 L 478.32,472.80 L 478.42,475.09 Z M 604.67,460.49 L 604.76,460.36 L 604.69,460.50 L 604.67,460.49 Z M 598.42,461.21 L 597.78,459.66 L 597.13,460.64 L 597.98,457.91 L 598.98,458.58 L 598.42,461.21 Z M 605.68,469.62 L 599.38,468.33 L 600.61,466.29 L 600.31,460.68 L 602.33,460.56 L 602.08,458.22 L 603.67,457.50 L 603.82,461.07 L 604.71,461.26 L 605.68,459.54 L 603.52,466.41 L 603.87,467.57 L 606.21,467.43 L 605.68,469.62 Z M 596.89,452.15 L 598.07,454.03 L 597.41,455.88 L 596.89,452.15 Z M 604.88,429.30 L 604.79,429.41 L 604.53,428.86 L 604.88,429.30 Z M 556.82,428.40 L 556.76,429.32 L 556.04,428.68 L 556.82,428.40 Z M 598.79,427.57 L 597.26,427.91 L 597.26,427.15 L 599.01,426.39 L 598.79,427.57 Z M 601.05,423.39 L 601.28,423.09 L 601.11,424.78 L 601.05,423.39 Z M 602.18,423.09 L 601.51,422.95 L 601.61,422.68 L 602.44,422.12 L 602.18,423.09 Z M 595.65,420.54 L 596.46,420.33 L 595.92,421.42 L 595.65,420.54 Z M 558.69,421.64 L 557.88,420.32 L 558.27,419.99 L 559.09,420.27 L 558.69,421.64 Z M 601.06,416.82 L 599.94,419.25 L 597.78,421.04 L 601.06,416.82 Z M 537.42,423.21 L 530.77,422.69 L 531.36,420.72 L 532.60,420.82 L 532.18,417.34 L 534.34,414.14 L 535.46,421.29 L 537.42,423.21 Z M 546.62,419.40 L 545.67,418.99 L 544.65,421.71 L 541.04,425.61 L 535.99,420.32 L 534.58,412.04 L 534.94,411.09 L 536.97,413.57 L 536.74,415.58 L 537.75,414.40 L 538.15,416.32 L 540.60,413.99 L 541.72,415.93 L 543.13,412.87 L 543.85,415.67 L 543.70,412.82 L 544.45,411.76 L 544.74,413.40 L 546.12,412.88 L 547.31,415.93 L 546.62,419.40 Z M 603.65,412.07 L 601.68,416.48 L 601.06,416.57 L 604.16,408.98 L 603.65,412.07 Z M 557.43,408.79 L 558.86,407.65 L 558.86,414.66 L 557.43,408.79 Z M 663.16,403.95 L 662.35,402.36 L 663.23,400.64 L 663.91,402.03 L 663.16,403.95 Z M 664.33,400.29 L 664.66,401.02 L 664.11,401.55 L 664.33,400.29 Z M 664.76,393.36 L 663.53,394.14 L 663.46,392.48 L 664.76,393.36 Z M 663.20,392.30 L 662.68,393.08 L 662.18,391.84 L 663.20,391.14 L 663.20,392.30 Z M 668.89,379.00 L 667.67,378.46 L 668.06,377.98 L 669.34,377.91 L 668.89,379.00 Z M 664.17,375.89 L 664.16,376.37 L 662.77,376.07 L 664.17,375.89 Z" fill="#E8E0D0" stroke="#B8B0A0" stroke-width="0.5"/>
<path d="M 431.64,100.53 L 431.57,101.27 L 430.76,100.61 L 431.64,100.53 Z M 442.01,91.89 L 441.13,90.50 L 442.15,91.32 L 442.01,91.89 Z M 484.64,75.30 L 483.53,72.02 L 483.98,69.68 L 484.64,75.30 Z M 452.72,67.86 L 452.27,67.36 L 452.57,65.32 L 454.13,66.19 L 452.72,67.86 Z M 435.23,25.06 L 434.97,25.40 L 435.49,24.12 L 435.23,25.06 Z M 486.90,25.15 L 486.49,25.58 L 486.36,21.98 L 486.90,25.15 Z M 493.73,68.53 L 492.14,73.27 L 490.44,74.28 L 490.77,77.30 L 489.71,74.83 L 488.94,75.12 L 489.87,78.08 L 489.25,86.67 L 488.11,82.37 L 487.93,76.26 L 486.89,74.80 L 485.48,67.08 L 483.46,68.55 L 480.30,79.39 L 482.61,82.65 L 483.80,91.18 L 480.23,99.88 L 478.16,95.69 L 479.22,92.32 L 478.92,90.20 L 477.91,89.91 L 477.16,94.08 L 475.80,94.57 L 467.51,87.81 L 465.91,83.79 L 465.71,77.06 L 464.94,76.45 L 465.64,71.19 L 467.31,69.12 L 468.00,65.81 L 466.02,62.12 L 462.09,58.27 L 459.27,58.42 L 459.72,60.98 L 458.28,62.69 L 459.13,66.47 L 457.49,63.65 L 455.97,63.78 L 456.47,61.68 L 455.72,59.54 L 454.51,64.54 L 453.54,63.14 L 452.50,64.78 L 452.42,59.50 L 450.29,58.93 L 447.34,64.91 L 447.61,66.40 L 445.24,74.67 L 443.97,74.87 L 442.46,72.27 L 445.15,62.38 L 444.70,58.99 L 446.30,55.09 L 450.95,51.67 L 453.84,51.71 L 454.89,45.61 L 457.90,44.80 L 459.18,42.64 L 458.76,41.27 L 460.02,41.72 L 460.76,43.88 L 461.15,42.25 L 462.69,43.42 L 463.63,46.31 L 464.04,51.66 L 461.80,55.41 L 464.98,51.60 L 467.84,50.76 L 469.73,43.41 L 472.47,45.15 L 472.24,46.69 L 473.51,45.42 L 474.12,35.94 L 477.35,39.29 L 478.23,38.43 L 478.46,34.51 L 479.59,36.22 L 481.81,35.82 L 482.06,32.27 L 480.53,23.45 L 481.19,20.81 L 482.60,22.08 L 483.19,24.75 L 486.78,27.18 L 486.10,28.58 L 487.01,28.72 L 487.70,31.54 L 489.46,30.43 L 489.02,34.39 L 490.83,38.85 L 489.84,41.98 L 488.27,43.43 L 488.80,44.91 L 491.48,45.56 L 490.76,50.73 L 492.07,50.26 L 492.14,52.95 L 491.24,56.85 L 493.41,59.95 L 493.73,68.53 Z M 479.17,19.02 L 477.69,14.43 L 478.69,15.26 L 479.17,19.02 Z M 469.43,5.82 L 468.41,6.28 L 468.88,4.41 L 469.43,5.82 Z M 470.85,5.58 L 469.77,5.45 L 469.76,4.79 L 470.85,5.58 Z M 484.56,4.48 L 483.67,2.53 L 484.15,2.48 L 485.14,3.84 L 484.56,4.48 Z M 424.16,108.40 L 423.12,106.49 L 419.84,109.43 L 419.86,108.11 L 423.84,104.12 L 424.54,105.58 L 424.16,108.40 Z M 428.08,87.26 L 427.18,87.30 L 427.15,86.96 L 428.20,84.85 L 428.08,87.26 Z M 445.61,83.54 L 443.15,84.40 L 441.46,80.41 L 444.28,78.16 L 446.79,80.15 L 445.61,83.54 Z M 405.52,73.86 L 404.69,72.99 L 405.60,72.45 L 405.52,73.86 Z M 390.11,57.10 L 389.27,58.44 L 388.75,53.57 L 390.09,53.65 L 390.11,57.10 Z M 389.12,52.81 L 389.66,52.20 L 389.91,53.12 L 389.12,52.81 Z M 391.23,51.44 L 391.40,51.83 L 390.93,51.81 L 391.23,51.44 Z M 393.08,50.65 L 392.32,51.30 L 392.21,48.94 L 393.08,50.65 Z M 392.04,49.12 L 391.23,49.85 L 391.81,48.34 L 392.04,49.12 Z M 473.69,34.68 L 472.24,32.73 L 473.02,31.46 L 473.85,32.40 L 473.69,34.68 Z M 461.32,34.29 L 459.56,32.67 L 461.42,30.66 L 462.03,33.05 L 461.32,34.29 Z M 487.60,22.08 L 486.70,20.30 L 487.85,16.41 L 488.88,20.69 L 487.60,22.08 Z M 471.80,22.40 L 470.75,21.82 L 468.52,24.83 L 464.64,24.63 L 463.15,22.02 L 464.08,19.10 L 467.74,14.69 L 469.63,14.69 L 471.60,16.88 L 471.80,22.40 Z M 483.41,19.58 L 482.68,15.84 L 481.58,15.49 L 481.87,11.62 L 483.13,8.95 L 484.02,19.16 L 483.41,19.58 Z M 421.63,7.63 L 419.50,9.01 L 419.11,7.47 L 420.04,5.65 L 421.63,7.63 Z M 451.03,8.10 L 449.40,9.71 L 448.81,8.15 L 449.40,6.21 L 451.29,3.84 L 451.03,8.10 Z M 456.14,19.98 L 455.91,25.84 L 457.89,31.34 L 456.94,34.12 L 454.80,35.46 L 452.75,29.66 L 449.56,26.98 L 447.94,23.11 L 447.86,20.44 L 448.72,17.99 L 451.26,17.77 L 453.05,15.64 L 452.42,7.93 L 454.13,4.10 L 454.37,0.64 L 455.50,0.00 L 459.30,0.00 L 460.11,0.40 L 460.69,2.05 L 456.14,19.98 Z M 465.48,10.58 L 461.54,16.33 L 459.65,25.91 L 458.00,28.52 L 458.65,18.00 L 462.30,8.32 L 464.31,0.00 L 465.69,0.00 L 465.48,10.58 Z M 418.81,7.86 L 417.19,10.43 L 414.03,12.65 L 413.06,16.46 L 408.47,18.74 L 408.51,22.46 L 407.67,21.69 L 408.27,23.70 L 404.02,32.53 L 401.53,33.68 L 400.19,38.21 L 397.38,41.88 L 395.32,42.42 L 394.75,45.30 L 391.24,48.43 L 392.04,43.37 L 396.30,35.04 L 401.50,29.73 L 408.44,15.08 L 408.52,16.47 L 409.10,15.96 L 408.92,14.00 L 411.19,11.75 L 410.94,10.12 L 412.23,8.44 L 412.39,10.29 L 413.95,8.06 L 414.68,4.05 L 413.35,0.00 L 413.35,0.00 L 416.01,3.88 L 414.76,0.00 L 416.73,0.00 L 416.41,1.05 L 417.48,2.17 L 418.81,7.86 Z M 479.02,12.66 L 477.73,12.33 L 477.84,14.06 L 476.10,10.42 L 476.54,17.14 L 473.81,14.69 L 473.79,2.23 L 472.66,0.00 L 476.46,0.00 L 476.34,3.47 L 478.31,6.29 L 479.02,12.66 Z M 470.91,1.26 L 469.62,0.13 L 469.62,0.00 L 471.53,0.00 L 470.91,1.26 Z M 451.66,2.71 L 446.02,5.56 L 443.01,9.45 L 442.87,3.08 L 443.68,0.00 L 452.05,0.00 L 451.66,2.71 Z M 416.40,114.93 L 415.89,116.95 L 415.66,112.35 L 416.40,114.93 Z M 435.19,95.64 L 434.15,95.53 L 434.45,94.76 L 435.19,95.64 Z M 437.24,92.90 L 435.86,94.56 L 435.16,93.01 L 431.96,94.06 L 431.29,92.66 L 433.14,90.13 L 437.24,92.90 Z M 439.52,80.99 L 439.39,81.49 L 439.02,80.18 L 439.52,79.70 L 439.52,80.99 Z M 433.63,2.19 L 432.87,1.99 L 433.03,1.32 L 433.71,0.85 L 433.63,2.19 Z M 421.37,38.41 L 421.35,38.40 L 421.36,38.34 L 421.37,38.41 Z M 421.46,38.28 L 421.50,38.31 L 421.47,38.33 L 421.46,38.28 Z M 421.43,38.25 L 421.42,38.26 L 421.40,38.22 L 421.43,38.25 Z M 421.46,38.16 L 421.45,38.18 L 421.43,38.14 L 421.46,38.16 Z M 420.21,114.11 L 420.25,114.29 L 419.84,114.19 L 420.21,114.11 Z M 419.61,112.78 L 419.55,112.00 L 420.09,112.31 L 419.61,112.78 Z M 419.04,109.72 L 419.61,108.29 L 419.76,109.24 L 419.04,109.72 Z M 480.75,103.69 L 479.83,103.33 L 480.29,102.52 L 480.75,103.69 Z M 431.40,97.79 L 430.50,98.12 L 430.58,97.60 L 431.40,97.79 Z M 431.91,96.90 L 431.70,97.52 L 431.49,97.34 L 431.91,96.90 Z M 463.19,25.69 L 462.34,25.20 L 462.94,24.52 L 463.59,24.17 L 463.19,25.69 Z M 471.82,15.76 L 471.08,16.24 L 470.99,15.43 L 471.82,15.76 Z M 465.79,11.48 L 464.59,12.78 L 464.75,11.81 L 465.79,11.48 Z" fill="#E8E0D0" stroke="#B8B0A0" stroke-width="0.5"/>
<path d="M 5.98,80.58 L 1.08,88.12 L 0.00,88.82 L 0.00,45.54 L 1.52,45.75 L 2.42,52.34 L 1.93,51.16 L 1.85,52.18 L 3.64,54.74 L 5.30,60.09 L 4.36,59.19 L 4.02,59.82 L 5.69,61.75 L 5.93,64.83 L 6.85,65.66 L 7.07,71.62 L 5.98,80.58 Z M 0.06,42.61 L 0.26,44.57 L 0.00,44.25 L 0.00,42.47 L 0.06,42.61 Z M 5.43,59.56 L 6.31,62.19 L 6.33,64.41 L 5.43,59.56 Z" fill="#E8E0D0" stroke="#B8B0A0" stroke-width="0.5"/>
<path d="M 169.91,430.52 L 169.75,430.19 L 169.66,429.20 L 169.91,430.52 Z M 170.38,430.33 L 170.69,429.85 L 170.73,430.28 L 170.38,430.33 Z M 266.18,400.14 L 264.99,399.24 L 265.09,398.08 L 266.28,397.65 L 266.18,400.14 Z" fill="#E8E0D0" stroke="#B8B0A0" stroke-width="0.5"/>
<path d="M 245.99,180.01 L 243.83,178.97 L 244.57,176.98 L 247.32,177.69 L 245.99,180.01 Z" fill="#E8E0D0" stroke="#B8B0A0" stroke-width="0.5"/>
<path d="M 765.96,66.13 L 766.04,67.08 L 765.21,66.95 L 765.96,66.13 Z M 768.65,64.71 L 769.02,64.80 L 768.35,65.43 L 768.65,64.71 Z M 619.81,26.42 L 618.35,28.45 L 618.99,25.59 L 619.81,26.42 Z M 799.52,185.54 L 799.64,185.58 L 799.57,185.70 L 799.52,185.54 Z M 788.24,104.78 L 788.52,104.69 L 788.49,104.86 L 788.24,104.78 Z M 740.72,78.73 L 740.80,78.55 L 740.81,78.78 L 740.72,78.73 Z M 768.31,66.75 L 768.33,66.45 L 768.45,66.81 L 768.31,66.75 Z M 739.24,66.24 L 739.32,66.26 L 739.30,66.42 L 739.24,66.24 Z M 752.56,43.82 L 752.61,43.85 L 752.59,44.02 L 752.56,43.82 Z M 744.54,43.48 L 744.75,43.26 L 744.77,43.42 L 744.54,43.48 Z M 749.51,36.39 L 749.60,36.38 L 749.57,36.47 L 749.51,36.39 Z M 645.05,21.70 L 645.17,21.76 L 644.98,21.96 L 645.05,21.70 Z" fill="#E8E0D0" stroke="#B8B0A0" stroke-width="0.5"/>
<path d="M 577.14,72.95 L 576.65,73.62 L 576.66,73.17 L 577.05,71.94 L 577.14,72.95 Z M 578.37,69.15 L 577.90,68.91 L 578.90,67.44 L 578.37,69.15 Z M 579.67,66.87 L 579.78,67.54 L 578.99,67.22 L 579.67,66.87 Z M 581.26,62.33 L 580.64,66.19 L 579.84,66.68 L 579.40,64.59 L 581.15,59.95 L 581.26,62.33 Z M 543.46,146.63 L 543.55,146.85 L 542.97,147.40 L 543.46,146.63 Z M 554.67,104.83 L 554.74,104.77 L 554.81,104.88 L 554.67,104.83 Z M 575.59,74.84 L 575.62,74.55 L 575.98,74.73 L 575.59,74.84 Z M 550.31,148.49 L 550.11,148.70 L 549.90,148.42 L 550.31,148.49 Z M 582.01,53.18 L 581.73,53.79 L 581.64,53.32 L 582.01,53.18 Z" fill="#E8E0D0" stroke="#B8B0A0" stroke-width="0.5"/>
<path d="M 371.39,13.06 L 371.41,13.06 L 371.40,13.09 L 371.39,13.06 Z M 360.65,23.23 L 360.68,23.24 L 360.63,23.46 L 360.65,23.23 Z M 356.85,17.19 L 356.97,17.15 L 356.90,17.28 L 356.85,17.19 Z M 360.43,14.18 L 360.48,14.03 L 360.57,14.15 L 360.43,14.18 Z M 361.55,10.59 L 361.61,10.47 L 361.65,10.59 L 361.55,10.59 Z M 360.43,10.58 L 360.45,10.47 L 360.53,10.61 L 360.43,10.58 Z M 361.43,10.17 L 361.48,10.12 L 361.53,10.21 L 361.43,10.17 Z M 376.47,3.97 L 376.27,4.05 L 376.27,3.85 L 376.47,3.97 Z M 376.48,2.18 L 376.43,2.04 L 376.60,2.05 L 376.48,2.18 Z M 360.45,21.79 L 360.48,21.81 L 360.46,21.85 L 360.45,21.79 Z" fill="#E8E0D0" stroke="#B8B0A0" stroke-width="0.5"/>
<path d="M 460.94,435.00 L 460.70,434.97 L 460.69,434.78 L 460.94,435.00 Z" fill="#E8E0D0" stroke="#B8B0A0" stroke-width="0.5"/>
<path d="M 468.69,380.12 L 467.61,378.07 L 466.30,378.87 L 465.64,377.39 L 470.22,374.38 L 468.69,380.12 Z M 477.24,367.23 L 477.76,364.17 L 480.34,363.05 L 485.45,361.42 L 487.82,362.12 L 491.55,360.22 L 493.04,361.48 L 497.59,358.17 L 501.36,360.14 L 498.18,364.99 L 493.42,367.41 L 492.21,369.96 L 482.64,374.55 L 476.86,380.06 L 475.74,374.97 L 477.83,374.47 L 477.96,372.15 L 477.14,370.77 L 475.46,372.41 L 475.32,370.32 L 477.24,367.23 Z M 483.27,355.08 L 482.43,358.32 L 481.67,357.46 L 483.27,355.08 Z" fill="#C8D8E8" stroke="#8BAABB" stroke-width="0.8"/>
<path d="M 396.13,124.92 L 396.80,124.17 L 399.03,126.23 L 396.13,124.92 Z M 229.67,88.64 L 231.65,94.32 L 237.17,101.51 L 241.74,114.14 L 242.27,123.45 L 240.55,133.65 L 242.11,138.23 L 241.67,149.20 L 243.81,153.85 L 245.19,154.29 L 247.19,160.04 L 250.52,173.10 L 250.76,178.13 L 248.90,177.99 L 248.39,175.94 L 249.35,174.82 L 248.33,175.55 L 247.38,172.91 L 247.85,176.62 L 244.46,176.58 L 242.83,177.86 L 242.49,179.93 L 240.86,174.95 L 233.60,168.98 L 231.91,165.29 L 227.67,161.98 L 225.87,159.02 L 224.52,159.02 L 223.54,155.45 L 218.23,150.55 L 219.17,147.71 L 218.35,142.64 L 215.55,136.18 L 213.07,133.12 L 213.43,131.92 L 211.95,131.32 L 211.92,129.45 L 213.71,128.80 L 211.11,126.26 L 210.38,123.21 L 211.25,118.73 L 210.70,117.78 L 211.48,116.68 L 210.81,116.76 L 210.95,114.40 L 208.20,108.97 L 208.95,106.61 L 208.32,95.45 L 208.03,91.70 L 205.73,84.86 L 206.05,79.00 L 207.21,78.98 L 208.45,82.22 L 211.09,83.66 L 212.17,82.76 L 213.29,87.53 L 216.00,87.35 L 215.97,93.09 L 214.73,95.80 L 216.44,98.82 L 217.82,95.90 L 221.18,93.59 L 222.36,96.30 L 223.82,96.78 L 226.64,90.17 L 226.78,87.15 L 229.67,88.64 Z M 369.70,111.29 L 371.31,112.35 L 373.47,109.29 L 373.99,106.60 L 371.38,104.82 L 371.68,102.85 L 373.99,98.71 L 373.99,100.87 L 376.64,100.12 L 377.53,96.35 L 378.84,94.87 L 379.44,89.58 L 383.76,82.72 L 386.74,72.83 L 387.63,76.72 L 386.82,80.93 L 388.88,78.76 L 389.50,74.61 L 390.80,73.27 L 391.96,74.48 L 392.39,80.10 L 394.15,81.75 L 394.97,80.38 L 397.08,83.54 L 397.03,87.20 L 395.70,88.26 L 396.44,92.45 L 394.27,94.38 L 397.59,93.65 L 400.23,90.80 L 401.41,94.47 L 399.19,95.49 L 399.61,97.76 L 404.02,95.40 L 406.51,97.85 L 406.20,100.76 L 407.13,98.70 L 410.19,103.21 L 412.98,102.16 L 413.95,104.13 L 413.83,106.80 L 412.62,108.57 L 407.46,111.58 L 405.48,111.82 L 403.93,109.82 L 401.53,112.73 L 403.06,116.21 L 405.23,117.96 L 405.45,119.69 L 406.57,119.49 L 407.07,121.02 L 406.10,122.38 L 399.86,124.85 L 396.30,121.26 L 395.99,125.86 L 395.34,126.18 L 391.37,122.52 L 384.71,122.99 L 383.97,121.77 L 382.76,123.78 L 381.67,122.02 L 379.66,122.10 L 378.51,124.11 L 376.59,121.91 L 373.27,130.63 L 373.95,139.75 L 373.04,141.11 L 372.46,147.18 L 370.78,148.02 L 370.04,146.98 L 368.16,150.87 L 368.02,155.04 L 369.65,156.87 L 365.00,161.76 L 365.58,168.17 L 363.92,169.32 L 362.47,176.87 L 360.61,175.53 L 358.42,177.14 L 355.55,176.73 L 352.45,180.73 L 351.36,179.13 L 345.20,177.23 L 345.92,175.40 L 345.36,174.36 L 339.89,174.40 L 336.53,176.88 L 335.78,182.30 L 333.80,182.84 L 332.85,184.81 L 330.67,184.40 L 329.37,185.74 L 326.04,183.57 L 319.04,187.73 L 315.88,185.07 L 314.87,181.72 L 309.30,173.85 L 309.12,170.43 L 307.89,168.41 L 309.16,164.81 L 309.68,168.72 L 312.23,172.09 L 316.18,172.43 L 316.60,170.03 L 317.26,171.96 L 318.54,171.18 L 318.08,173.42 L 320.92,174.78 L 320.39,176.62 L 321.65,174.32 L 325.44,178.05 L 326.43,177.62 L 327.60,178.76 L 328.07,178.39 L 324.60,176.36 L 323.96,174.09 L 324.93,172.17 L 325.85,173.30 L 326.80,173.29 L 324.94,170.56 L 326.14,165.08 L 326.81,165.10 L 326.66,164.01 L 327.56,164.27 L 328.01,163.35 L 325.91,163.66 L 326.30,158.62 L 327.87,160.02 L 329.26,159.92 L 328.30,157.36 L 329.57,157.23 L 328.43,156.03 L 328.88,153.23 L 331.18,150.67 L 345.74,144.75 L 350.38,133.74 L 355.95,124.05 L 356.27,118.08 L 359.20,120.19 L 359.61,124.22 L 361.10,124.31 L 363.36,128.84 L 364.87,126.70 L 365.73,121.80 L 364.60,115.58 L 367.58,112.10 L 368.41,121.61 L 371.18,123.31 L 369.00,112.24 L 369.70,111.29 Z M 402.56,95.06 L 401.85,95.15 L 402.01,94.70 L 402.56,95.06 Z M 327.30,158.33 L 327.33,151.76 L 328.04,153.37 L 328.37,159.08 L 327.30,158.33 Z M 250.04,153.06 L 249.17,152.48 L 249.60,149.78 L 250.04,153.06 Z M 407.39,121.03 L 407.05,119.93 L 407.39,119.88 L 407.94,120.00 L 407.39,121.03 Z M 406.57,117.33 L 405.87,117.96 L 403.81,116.57 L 406.57,117.33 Z M 370.23,105.12 L 369.14,105.85 L 369.47,104.13 L 370.11,103.74 L 370.23,105.12 Z M 207.37,105.66 L 206.24,105.55 L 206.18,102.02 L 207.60,102.16 L 207.37,105.66 Z M 202.06,86.86 L 202.46,86.46 L 202.12,88.74 L 202.06,86.86 Z M 201.28,87.07 L 200.37,83.83 L 202.51,83.20 L 203.15,85.16 L 201.28,87.07 Z M 394.68,79.41 L 392.94,79.75 L 393.99,78.94 L 393.52,78.18 L 394.27,77.67 L 394.68,79.41 Z M 389.28,68.12 L 387.55,69.65 L 388.08,67.98 L 389.19,66.71 L 389.28,68.12 Z M 392.23,67.15 L 392.02,69.57 L 389.94,71.42 L 389.90,68.12 L 392.23,67.15 Z M 217.94,147.19 L 217.69,147.10 L 217.97,146.71 L 217.94,147.19 Z M 218.76,147.59 L 218.03,148.40 L 218.44,146.56 L 218.76,147.59 Z" fill="#C8D8E8" stroke="#8BAABB" stroke-width="0.8"/>
<path d="M 653.25,252.73 L 659.88,258.72 L 661.24,258.65 L 661.81,260.51 L 677.69,267.50 L 683.12,274.33 L 685.48,275.55 L 686.26,274.24 L 688.47,274.60 L 688.95,277.61 L 692.32,279.84 L 694.61,284.63 L 697.52,285.26 L 702.48,293.67 L 702.03,305.48 L 709.65,307.75 L 716.79,314.63 L 719.26,313.92 L 721.08,315.21 L 724.51,321.45 L 724.81,328.06 L 715.11,329.11 L 715.04,332.97 L 716.31,334.08 L 717.57,342.42 L 720.82,345.28 L 723.43,351.15 L 727.99,353.27 L 728.89,362.74 L 731.24,364.97 L 732.77,372.22 L 734.65,372.95 L 738.82,370.55 L 740.64,371.34 L 740.91,373.73 L 739.27,377.87 L 739.74,380.08 L 742.08,382.01 L 748.69,383.76 L 745.23,386.08 L 746.57,389.91 L 754.70,393.48 L 754.98,394.80 L 757.66,393.81 L 755.26,395.93 L 752.14,395.71 L 752.09,397.07 L 755.20,398.51 L 755.63,400.19 L 750.45,402.68 L 746.57,399.87 L 749.04,398.21 L 747.66,397.56 L 747.32,398.72 L 745.42,395.93 L 742.81,396.42 L 741.28,394.77 L 734.53,394.00 L 733.90,391.58 L 733.35,393.13 L 730.77,393.36 L 728.08,390.95 L 726.15,392.72 L 724.96,390.44 L 723.32,391.46 L 718.89,381.05 L 716.85,379.05 L 716.28,379.83 L 714.38,376.02 L 714.30,373.47 L 715.27,372.44 L 715.25,371.65 L 714.14,373.01 L 711.19,371.14 L 710.61,369.02 L 711.24,367.34 L 708.59,362.86 L 705.73,353.97 L 702.44,352.55 L 702.37,350.78 L 698.57,351.38 L 695.76,348.80 L 692.45,348.36 L 692.16,344.41 L 691.86,346.51 L 689.99,344.26 L 689.45,346.04 L 688.57,343.04 L 688.47,346.32 L 687.31,343.38 L 688.41,348.66 L 686.88,347.65 L 686.27,345.17 L 686.52,346.63 L 685.37,346.06 L 685.89,348.10 L 685.22,348.62 L 681.27,345.94 L 680.34,343.23 L 679.04,341.97 L 682.41,351.90 L 680.75,351.16 L 681.95,352.56 L 680.35,353.17 L 675.97,350.49 L 678.10,353.25 L 678.67,356.87 L 671.55,358.69 L 668.75,357.28 L 666.51,358.62 L 665.04,355.53 L 663.57,355.64 L 662.72,356.46 L 664.98,355.93 L 666.05,359.36 L 669.05,358.31 L 673.12,361.11 L 676.31,366.72 L 676.06,371.02 L 668.23,377.17 L 663.42,373.98 L 657.01,375.38 L 654.01,373.66 L 651.91,375.34 L 650.00,373.00 L 650.00,331.89 L 648.61,328.28 L 650.00,321.44 L 649.97,251.96 L 653.25,252.73 Z M 786.83,420.06 L 784.85,418.64 L 784.96,417.45 L 783.92,417.97 L 784.30,416.95 L 783.03,414.14 L 789.07,419.14 L 786.83,420.06 Z M 794.58,416.06 L 791.75,415.42 L 793.23,415.09 L 792.65,414.02 L 794.73,414.72 L 794.58,416.06 Z M 782.96,413.13 L 781.93,411.69 L 783.55,412.75 L 782.96,413.13 Z M 779.39,402.18 L 778.11,402.81 L 775.79,401.27 L 779.39,402.18 Z M 759.54,402.09 L 758.21,402.29 L 758.32,400.79 L 759.85,400.90 L 759.54,402.09 Z M 757.86,401.67 L 756.79,401.54 L 757.57,401.23 L 756.75,399.68 L 757.68,399.61 L 757.86,401.67 Z M 762.30,389.03 L 761.56,393.36 L 758.58,391.58 L 758.95,389.52 L 758.02,389.58 L 756.46,384.10 L 760.01,390.15 L 762.30,389.03 Z M 752.87,382.77 L 753.74,381.20 L 752.86,377.82 L 756.84,378.95 L 758.28,383.16 L 757.31,384.31 L 756.87,383.16 L 752.87,382.77 Z M 751.55,380.69 L 749.38,376.60 L 750.49,374.85 L 752.17,377.94 L 751.55,380.69 Z M 780.02,374.60 L 780.44,375.80 L 778.01,374.40 L 777.92,375.87 L 776.92,374.42 L 777.58,373.71 L 775.04,371.86 L 774.82,370.38 L 774.50,372.58 L 774.14,370.86 L 774.83,370.00 L 778.55,371.09 L 780.74,373.65 L 780.02,374.60 Z M 760.59,367.87 L 759.51,365.94 L 760.36,363.26 L 759.02,362.06 L 760.44,360.22 L 760.54,363.41 L 760.59,367.87 Z M 678.85,366.01 L 673.95,360.22 L 677.17,362.19 L 678.85,366.01 Z M 675.45,359.34 L 678.25,359.37 L 678.65,361.26 L 675.45,359.34 Z M 726.30,312.53 L 723.89,307.98 L 723.91,306.03 L 726.93,307.88 L 726.30,312.53 Z M 799.89,314.24 L 799.29,310.87 L 800.00,307.24 L 800.00,314.44 L 799.89,314.24 Z M 799.29,304.62 L 800.00,305.41 L 800.00,306.85 L 799.29,304.62 Z M 727.99,304.41 L 727.71,305.26 L 727.23,304.58 L 727.99,304.41 Z M 722.57,302.58 L 722.05,303.35 L 721.63,302.33 L 722.57,302.58 Z M 718.17,303.21 L 717.28,304.88 L 715.57,302.54 L 716.74,300.17 L 718.17,303.21 Z M 799.16,304.55 L 798.54,305.14 L 797.50,299.16 L 798.46,296.85 L 799.58,300.53 L 799.16,304.55 Z M 739.12,294.04 L 739.24,294.35 L 738.97,295.19 L 739.12,294.04 Z M 707.29,292.64 L 707.51,293.54 L 707.17,293.87 L 707.29,292.64 Z M 743.39,290.51 L 743.37,291.35 L 742.22,290.88 L 743.39,290.51 Z M 705.24,290.27 L 703.98,292.15 L 703.34,290.08 L 704.61,287.94 L 705.24,290.27 Z M 773.84,287.42 L 774.39,290.72 L 773.09,295.40 L 769.63,296.31 L 769.67,299.37 L 771.52,303.03 L 770.99,305.08 L 768.11,307.63 L 764.08,306.54 L 764.83,308.97 L 761.02,314.54 L 757.09,315.47 L 756.81,317.45 L 753.21,320.31 L 744.19,320.94 L 742.59,317.44 L 740.76,316.23 L 737.85,318.22 L 737.85,315.33 L 735.84,315.07 L 734.71,312.65 L 730.60,311.02 L 729.98,309.32 L 731.07,304.88 L 732.45,306.65 L 733.49,305.55 L 735.62,306.67 L 737.04,305.26 L 739.72,307.75 L 742.70,307.56 L 744.57,305.51 L 745.09,307.19 L 747.19,306.18 L 748.00,304.43 L 747.25,303.10 L 748.44,300.79 L 748.30,298.19 L 749.38,296.75 L 750.36,297.76 L 748.50,302.09 L 749.91,306.77 L 751.49,307.05 L 753.31,304.94 L 755.05,306.96 L 756.96,304.85 L 758.13,305.65 L 759.17,304.24 L 759.93,299.65 L 763.05,294.81 L 765.70,295.96 L 766.42,294.74 L 764.91,281.28 L 767.92,281.98 L 769.53,284.16 L 770.01,281.56 L 771.92,280.65 L 772.58,282.37 L 771.84,281.92 L 771.93,283.74 L 774.46,284.42 L 773.84,287.42 Z M 694.85,280.16 L 694.18,280.28 L 694.06,279.08 L 694.85,280.16 Z M 783.33,267.66 L 783.62,268.67 L 783.48,268.67 L 783.33,267.66 Z M 784.52,266.43 L 784.52,267.13 L 783.70,266.89 L 784.52,266.43 Z M 799.46,266.71 L 799.63,267.96 L 797.69,263.23 L 799.46,266.71 Z M 776.91,263.57 L 775.69,260.79 L 776.99,260.25 L 776.91,263.57 Z M 759.32,258.84 L 756.53,259.01 L 757.75,257.58 L 759.32,258.84 Z M 770.19,259.32 L 769.61,256.56 L 770.17,257.47 L 770.19,259.32 Z M 769.77,256.25 L 769.00,256.49 L 768.97,253.91 L 769.77,256.25 Z M 769.48,252.44 L 769.91,251.84 L 770.32,252.73 L 769.48,252.44 Z M 781.24,287.03 L 781.61,289.19 L 779.68,293.78 L 777.42,288.19 L 777.39,281.04 L 773.05,269.99 L 767.83,266.11 L 760.02,256.28 L 756.42,255.09 L 756.42,254.01 L 757.86,253.76 L 756.99,251.13 L 761.39,256.96 L 763.79,257.69 L 767.89,262.88 L 770.48,263.98 L 774.53,271.60 L 775.42,271.62 L 776.17,274.67 L 778.87,275.60 L 779.39,277.83 L 780.20,277.73 L 782.28,283.01 L 781.24,287.03 Z M 753.06,253.03 L 750.19,253.43 L 747.71,249.40 L 750.42,247.76 L 753.21,250.69 L 753.06,253.03 Z M 724.85,246.82 L 723.47,246.86 L 724.08,246.58 L 724.51,245.20 L 724.85,246.82 Z M 720.21,241.91 L 718.69,241.98 L 717.76,244.25 L 712.28,242.91 L 712.56,244.07 L 710.86,245.03 L 710.30,243.57 L 711.35,242.77 L 710.96,240.69 L 711.80,240.10 L 720.04,241.64 L 719.66,240.07 L 720.21,241.91 Z M 745.90,232.98 L 744.53,232.89 L 743.15,230.09 L 744.01,228.76 L 745.90,232.98 Z M 794.43,287.79 L 794.19,288.80 L 793.68,288.16 L 794.30,287.82 L 793.76,286.64 L 794.43,287.79 Z M 793.13,285.01 L 793.24,284.86 L 793.36,285.39 L 793.13,285.01 Z M 775.42,281.19 L 775.27,281.92 L 774.60,281.03 L 775.42,281.19 Z M 788.08,279.67 L 787.64,280.41 L 787.21,279.63 L 788.08,279.67 Z M 788.76,278.75 L 788.17,278.49 L 788.26,278.30 L 788.76,278.75 Z M 770.99,396.90 L 771.11,396.91 L 771.08,397.08 L 770.99,396.90 Z M 768.48,395.92 L 768.58,395.85 L 768.49,396.05 L 768.48,395.92 Z M 768.41,394.29 L 768.35,394.56 L 768.31,394.46 L 768.41,394.29 Z M 689.61,268.85 L 689.63,269.00 L 689.37,269.02 L 689.61,268.85 Z M 683.93,262.90 L 684.35,263.67 L 684.14,264.00 L 683.93,262.90 Z M 670.19,235.15 L 670.54,235.26 L 670.32,235.44 L 670.19,235.15 Z M 759.23,383.47 L 758.60,382.05 L 759.27,382.03 L 759.23,383.47 Z M 680.85,362.30 L 680.67,362.43 L 680.49,361.97 L 680.85,362.30 Z M 679.06,360.34 L 677.89,358.93 L 678.95,358.76 L 679.06,360.34 Z M 679.26,355.53 L 678.53,354.48 L 678.68,354.18 L 679.26,355.53 Z M 679.52,354.28 L 678.14,352.98 L 678.67,352.79 L 679.52,354.28 Z M 761.28,295.62 L 760.33,295.22 L 760.60,294.67 L 761.28,295.62 Z M 677.70,266.11 L 677.62,265.35 L 678.47,265.88 L 677.70,266.11 Z M 747.36,234.92 L 747.20,234.34 L 747.76,233.90 L 748.20,234.69 L 747.36,234.92 Z" fill="#C8D8E8" stroke="#8BAABB" stroke-width="0.8"/>
<path d="M 399.03,126.23 L 399.34,128.03 L 398.29,128.40 L 396.82,126.11 L 399.03,126.23 Z M 475.32,370.32 L 475.46,372.41 L 477.14,370.77 L 477.96,372.15 L 477.83,374.47 L 475.74,374.97 L 476.86,380.06 L 475.97,383.10 L 470.75,391.71 L 466.65,392.84 L 463.13,396.60 L 459.57,396.42 L 460.04,393.59 L 462.75,391.03 L 460.72,390.27 L 461.93,382.40 L 465.42,377.42 L 466.63,378.97 L 467.61,378.07 L 468.69,380.12 L 470.22,374.38 L 475.32,370.32 Z M 393.22,125.99 L 396.66,130.84 L 396.25,131.10 L 395.37,130.39 L 394.86,130.46 L 396.99,131.74 L 397.68,133.26 L 396.80,133.27 L 398.15,134.66 L 396.01,135.99 L 394.27,133.01 L 394.71,136.45 L 390.15,135.74 L 389.50,136.70 L 391.33,136.29 L 391.34,137.43 L 391.81,138.62 L 394.02,139.67 L 393.08,143.21 L 392.10,143.39 L 395.88,146.16 L 395.31,148.06 L 396.62,148.44 L 395.08,149.20 L 397.18,149.59 L 395.91,151.00 L 397.70,152.25 L 398.15,155.06 L 400.94,160.08 L 400.67,162.27 L 399.12,164.62 L 398.15,164.38 L 398.96,165.43 L 397.32,165.78 L 398.67,166.54 L 399.22,169.72 L 404.67,175.93 L 405.01,177.62 L 406.72,178.43 L 411.05,185.41 L 408.73,188.60 L 404.22,188.60 L 401.10,186.67 L 398.89,182.85 L 400.40,188.68 L 398.98,187.99 L 397.25,189.79 L 394.28,201.55 L 394.93,204.17 L 393.90,208.03 L 394.57,210.09 L 393.97,213.34 L 396.02,211.36 L 395.16,216.40 L 394.42,216.59 L 395.99,217.92 L 392.85,220.34 L 392.23,218.63 L 388.71,226.64 L 387.21,227.04 L 386.37,222.64 L 386.58,228.97 L 384.46,230.49 L 384.16,233.76 L 380.71,236.87 L 382.91,236.44 L 383.36,239.06 L 383.27,241.57 L 381.37,243.93 L 384.85,244.96 L 383.92,251.09 L 381.60,250.56 L 381.52,252.10 L 382.56,251.46 L 381.42,259.15 L 380.78,259.42 L 379.79,256.10 L 379.44,259.35 L 381.17,261.94 L 379.49,263.97 L 377.94,270.72 L 363.76,281.42 L 363.13,280.46 L 363.18,272.11 L 362.21,269.05 L 362.52,265.87 L 361.72,268.70 L 359.40,266.79 L 360.50,263.32 L 358.56,266.50 L 357.71,265.85 L 357.81,262.93 L 356.99,266.00 L 352.53,267.89 L 352.30,262.63 L 349.63,264.09 L 348.95,262.41 L 349.47,264.46 L 346.03,257.96 L 345.01,261.37 L 345.89,262.41 L 341.71,267.14 L 336.98,265.52 L 333.74,270.03 L 332.69,269.31 L 332.95,260.54 L 332.10,254.52 L 331.55,258.34 L 330.09,259.68 L 327.84,257.96 L 323.75,261.02 L 321.22,259.87 L 323.42,257.14 L 320.22,260.89 L 318.99,256.93 L 315.88,259.44 L 314.72,252.34 L 316.07,250.43 L 314.76,248.90 L 314.02,239.85 L 311.97,237.55 L 313.39,234.20 L 313.68,228.62 L 312.25,226.33 L 312.31,224.27 L 310.19,221.57 L 310.44,219.77 L 309.51,221.88 L 307.86,219.62 L 306.39,220.54 L 305.11,219.45 L 304.99,215.99 L 307.24,217.29 L 307.65,216.90 L 306.00,215.63 L 306.50,214.69 L 303.66,213.41 L 302.64,208.15 L 304.58,207.99 L 303.84,203.20 L 305.41,203.38 L 301.28,197.24 L 300.57,188.09 L 301.93,185.78 L 301.32,181.91 L 303.69,180.30 L 305.04,177.62 L 301.98,180.95 L 302.93,175.03 L 305.10,172.06 L 305.85,167.56 L 309.16,164.81 L 307.89,168.41 L 309.12,170.43 L 309.30,173.85 L 314.87,181.72 L 315.88,185.07 L 319.04,187.73 L 326.04,183.57 L 329.37,185.74 L 330.67,184.40 L 332.85,184.81 L 333.80,182.84 L 335.78,182.30 L 336.53,176.88 L 339.89,174.40 L 345.36,174.36 L 345.92,175.40 L 345.20,177.23 L 351.36,179.13 L 352.45,180.73 L 355.55,176.73 L 358.42,177.14 L 360.61,175.53 L 362.47,176.87 L 363.92,169.32 L 365.58,168.17 L 365.00,161.76 L 369.65,156.87 L 368.02,155.04 L 368.16,150.87 L 370.04,146.98 L 370.78,148.02 L 372.46,147.18 L 373.04,141.11 L 373.95,139.75 L 373.27,130.63 L 376.59,121.91 L 378.51,124.11 L 379.66,122.10 L 381.67,122.02 L 382.76,123.78 L 383.97,121.77 L 384.71,122.99 L 391.37,122.52 L 395.34,126.18 L 393.22,125.99 Z M 650.00,321.44 L 648.61,328.28 L 650.00,331.89 L 650.00,373.00 L 639.24,356.00 L 640.00,353.94 L 640.03,351.46 L 640.77,351.23 L 641.02,350.27 L 640.03,351.01 L 639.08,354.22 L 632.79,356.16 L 631.26,355.14 L 631.16,352.70 L 630.87,352.04 L 631.62,351.92 L 630.85,351.51 L 630.93,353.80 L 627.56,357.85 L 626.78,354.60 L 627.68,353.73 L 627.57,350.62 L 628.43,349.92 L 629.50,344.23 L 624.87,337.49 L 630.20,338.34 L 631.10,336.62 L 629.15,337.77 L 626.78,336.52 L 623.72,332.30 L 627.75,330.88 L 629.28,332.86 L 630.58,333.31 L 625.05,328.50 L 625.04,327.21 L 626.63,328.34 L 622.68,322.69 L 620.47,313.62 L 622.01,312.15 L 619.33,311.00 L 621.56,309.23 L 618.39,310.16 L 618.28,304.11 L 617.61,305.51 L 616.80,302.72 L 615.59,303.27 L 615.53,301.31 L 610.84,298.14 L 609.65,296.86 L 609.77,295.42 L 609.12,296.85 L 607.71,295.86 L 607.84,294.54 L 604.80,295.27 L 595.32,287.42 L 587.00,286.35 L 581.15,280.20 L 581.59,277.02 L 584.07,277.60 L 584.63,276.82 L 581.45,276.29 L 579.81,278.49 L 577.73,275.55 L 577.53,278.37 L 575.63,276.19 L 576.20,274.94 L 575.49,273.26 L 575.30,274.60 L 573.78,275.21 L 572.34,270.37 L 572.24,272.82 L 570.87,271.90 L 570.20,268.39 L 570.74,263.41 L 572.43,261.01 L 573.33,261.52 L 572.58,257.96 L 570.49,261.66 L 570.05,267.13 L 568.81,266.43 L 569.66,269.54 L 567.67,272.83 L 568.15,275.49 L 565.95,279.24 L 562.22,279.64 L 560.29,272.08 L 562.48,269.70 L 561.28,267.53 L 561.17,264.63 L 559.64,265.50 L 558.36,261.38 L 555.89,258.39 L 552.08,258.08 L 552.83,255.73 L 551.89,255.45 L 555.73,253.37 L 560.27,255.91 L 563.59,249.70 L 565.83,248.54 L 567.47,250.58 L 567.36,253.37 L 568.07,249.99 L 568.12,252.73 L 568.37,250.49 L 568.86,251.75 L 570.12,250.82 L 570.64,254.13 L 570.98,250.31 L 572.11,252.86 L 572.14,249.66 L 571.35,248.93 L 573.10,249.66 L 572.65,248.44 L 574.16,248.01 L 572.66,247.13 L 573.56,246.23 L 573.56,244.57 L 573.33,245.88 L 571.84,245.62 L 573.45,242.79 L 570.25,245.17 L 566.44,244.58 L 559.83,246.50 L 558.44,244.24 L 555.67,245.72 L 552.87,242.33 L 553.72,240.75 L 552.64,241.13 L 551.71,238.83 L 552.60,234.75 L 551.11,234.31 L 552.15,232.20 L 550.22,233.48 L 550.07,231.44 L 549.62,232.85 L 547.70,231.11 L 546.21,231.51 L 545.52,229.52 L 544.48,229.14 L 545.13,230.61 L 543.70,231.92 L 540.90,229.85 L 544.03,224.36 L 544.64,220.60 L 544.11,218.82 L 551.00,216.40 L 553.98,211.68 L 556.66,210.15 L 562.95,211.85 L 567.48,217.03 L 573.85,217.03 L 575.97,219.64 L 574.49,221.39 L 577.17,228.69 L 575.05,234.88 L 576.20,247.84 L 579.15,256.82 L 579.89,256.30 L 579.37,250.82 L 580.04,249.40 L 581.04,250.29 L 581.73,258.62 L 583.36,257.53 L 583.00,261.93 L 583.88,264.28 L 588.69,266.64 L 590.48,265.87 L 594.88,259.12 L 595.47,255.22 L 598.75,251.21 L 600.00,245.14 L 601.65,244.32 L 604.01,245.47 L 608.68,242.76 L 609.28,241.92 L 607.84,238.70 L 608.08,237.02 L 615.86,230.94 L 624.85,236.86 L 626.78,239.85 L 636.99,247.38 L 641.09,246.75 L 642.98,249.26 L 643.47,248.14 L 647.47,250.07 L 647.24,252.58 L 649.97,251.96 L 650.00,321.44 Z M 350.10,361.48 L 348.72,361.50 L 348.80,360.47 L 350.10,361.48 Z M 456.22,361.23 L 453.16,363.26 L 454.43,360.77 L 456.22,361.23 Z M 510.81,357.72 L 509.73,357.16 L 511.15,356.13 L 510.81,357.72 Z M 519.77,357.32 L 517.91,356.14 L 518.51,355.73 L 520.03,356.27 L 519.77,357.32 Z M 506.31,356.37 L 504.52,356.27 L 505.38,355.31 L 506.31,356.37 Z M 395.33,359.19 L 394.52,359.14 L 394.46,355.82 L 396.39,355.17 L 395.33,359.19 Z M 500.40,354.44 L 499.61,354.22 L 499.68,353.07 L 500.40,354.44 Z M 542.47,346.69 L 541.15,346.86 L 541.46,346.05 L 542.61,345.52 L 542.47,346.69 Z M 541.31,344.08 L 539.73,343.65 L 539.93,342.87 L 541.31,344.08 Z M 542.34,343.18 L 541.35,342.62 L 541.66,341.54 L 543.37,341.33 L 542.34,343.18 Z M 544.48,340.71 L 543.81,340.46 L 544.35,339.34 L 544.48,340.71 Z M 433.41,339.44 L 430.42,339.01 L 430.67,338.60 L 433.41,339.44 Z M 430.19,336.24 L 429.09,336.62 L 427.85,335.17 L 428.56,333.78 L 430.19,336.24 Z M 626.18,330.64 L 625.41,331.30 L 624.34,328.77 L 626.18,330.64 Z M 548.26,328.41 L 547.46,330.12 L 547.31,328.94 L 548.26,328.41 Z M 582.12,326.95 L 581.38,329.59 L 580.93,328.41 L 581.79,326.17 L 582.12,326.95 Z M 579.99,325.06 L 579.15,323.11 L 577.88,321.90 L 578.95,320.52 L 580.71,323.05 L 579.99,325.06 Z M 583.76,321.05 L 583.09,324.01 L 582.74,322.69 L 583.24,320.56 L 583.76,321.05 Z M 578.70,320.43 L 577.77,321.38 L 576.31,318.82 L 575.86,318.86 L 575.47,315.84 L 577.05,316.35 L 576.65,317.63 L 577.97,319.94 L 578.70,320.43 Z M 306.15,347.09 L 302.30,347.44 L 300.76,345.17 L 298.58,347.22 L 297.13,346.69 L 296.20,349.04 L 289.79,347.68 L 284.86,343.04 L 273.83,340.85 L 273.70,338.10 L 275.38,334.83 L 275.06,333.14 L 273.13,333.83 L 269.27,330.42 L 261.61,331.01 L 260.98,329.57 L 262.58,327.58 L 263.96,330.26 L 265.63,324.18 L 267.13,324.74 L 268.06,317.26 L 270.08,312.99 L 271.24,315.38 L 272.75,314.18 L 274.62,315.85 L 276.96,315.44 L 278.13,317.14 L 280.44,316.55 L 280.87,313.61 L 284.23,314.76 L 285.50,317.91 L 287.76,319.64 L 290.01,318.68 L 292.28,321.29 L 293.29,319.51 L 295.18,319.79 L 297.13,324.27 L 297.85,329.38 L 301.54,331.01 L 302.37,329.88 L 305.97,331.50 L 307.50,330.12 L 312.37,332.39 L 314.95,331.14 L 317.16,333.36 L 319.23,330.77 L 320.32,324.51 L 324.01,323.04 L 325.47,328.08 L 327.88,328.45 L 329.26,326.81 L 331.95,329.75 L 334.52,329.81 L 335.69,332.06 L 341.11,331.40 L 342.21,337.07 L 341.34,337.40 L 343.73,338.70 L 343.06,343.70 L 347.10,347.35 L 349.17,348.43 L 351.40,346.84 L 354.20,347.33 L 357.03,345.20 L 360.76,347.92 L 361.61,349.27 L 360.63,362.08 L 360.94,360.74 L 361.38,363.63 L 363.33,366.20 L 360.52,366.21 L 360.72,364.79 L 359.82,363.80 L 356.31,363.96 L 348.27,357.65 L 342.09,360.74 L 332.51,357.19 L 331.46,359.33 L 328.52,357.42 L 325.66,357.66 L 325.02,356.27 L 324.08,357.16 L 318.20,354.50 L 311.99,349.40 L 306.15,347.09 Z M 465.96,315.72 L 465.09,312.79 L 465.72,313.61 L 465.96,315.72 Z M 560.65,309.23 L 560.88,306.41 L 561.17,306.94 L 560.65,309.23 Z M 556.48,306.54 L 556.38,306.91 L 555.98,307.26 L 555.81,306.16 L 556.48,306.54 Z M 463.30,307.68 L 461.96,305.40 L 462.41,305.44 L 463.30,307.68 Z M 461.22,301.56 L 461.33,303.43 L 460.52,303.14 L 460.31,301.17 L 461.22,301.56 Z M 529.86,288.47 L 529.05,288.32 L 529.22,288.15 L 529.86,288.47 Z M 500.58,276.34 L 499.53,275.86 L 499.75,274.54 L 500.50,274.67 L 500.58,276.34 Z M 447.43,269.74 L 446.75,270.20 L 446.72,269.46 L 447.43,269.74 Z M 559.99,269.05 L 559.09,267.27 L 559.59,267.02 L 559.99,269.05 Z M 448.61,267.59 L 448.28,268.42 L 448.04,266.60 L 448.61,267.59 Z M 504.95,266.01 L 503.18,264.85 L 504.09,264.15 L 504.95,266.01 Z M 506.42,263.93 L 504.95,263.56 L 505.63,262.30 L 506.42,263.93 Z M 508.26,259.73 L 506.95,259.93 L 508.02,257.84 L 508.26,259.73 Z M 464.10,241.73 L 464.09,242.16 L 463.57,241.70 L 464.10,241.73 Z M 469.36,240.65 L 469.34,241.51 L 468.59,240.55 L 469.36,240.65 Z M 461.66,239.83 L 461.66,240.10 L 461.50,238.96 L 461.66,239.83 Z M 462.55,239.59 L 462.18,239.99 L 462.19,239.14 L 462.55,239.59 Z M 299.13,235.08 L 299.72,235.25 L 299.51,235.53 L 298.63,235.46 L 299.13,235.08 Z M 502.07,229.72 L 501.04,230.09 L 501.54,228.76 L 502.07,229.72 Z M 303.71,227.97 L 303.23,227.77 L 303.39,227.39 L 303.99,226.97 L 303.71,227.97 Z M 304.96,225.94 L 304.57,226.40 L 304.53,225.86 L 304.96,225.94 Z M 253.10,209.32 L 252.17,209.37 L 252.15,208.84 L 253.10,209.32 Z M 235.61,197.71 L 236.08,197.79 L 235.51,198.29 L 235.61,197.71 Z M 237.71,192.88 L 237.27,191.34 L 237.47,191.32 L 237.71,192.88 Z M 242.50,191.15 L 242.00,191.98 L 242.02,191.41 L 242.50,191.15 Z M 238.13,189.47 L 237.87,190.13 L 237.71,189.41 L 238.13,189.47 Z M 254.50,189.11 L 253.31,189.61 L 253.44,188.90 L 254.50,189.11 Z M 244.68,188.72 L 244.75,189.31 L 244.49,189.33 L 244.13,187.95 L 244.68,188.72 Z M 241.97,187.39 L 241.30,186.61 L 241.80,186.44 L 241.97,187.39 Z M 429.08,183.83 L 429.24,184.14 L 428.41,183.62 L 429.08,183.83 Z M 426.22,183.83 L 425.91,184.52 L 425.80,184.05 L 426.22,183.83 Z M 419.17,212.31 L 419.63,205.88 L 418.27,205.42 L 417.82,203.38 L 419.98,205.14 L 420.59,202.25 L 419.46,199.12 L 420.38,198.23 L 420.84,194.76 L 422.15,193.97 L 422.30,189.91 L 424.27,188.41 L 424.83,185.07 L 425.52,185.28 L 425.57,187.65 L 427.98,189.02 L 429.01,185.55 L 430.52,183.99 L 430.87,178.91 L 433.55,178.79 L 435.56,180.69 L 437.59,179.43 L 437.58,181.85 L 438.63,183.62 L 448.50,184.58 L 452.79,188.35 L 454.09,185.66 L 456.35,186.41 L 456.47,185.46 L 464.54,188.10 L 468.47,184.64 L 469.55,181.50 L 471.77,181.32 L 471.28,178.27 L 474.41,176.24 L 474.30,174.31 L 476.02,171.35 L 478.10,172.35 L 478.90,175.95 L 477.45,177.80 L 475.09,185.47 L 472.54,188.58 L 470.91,194.21 L 468.82,196.15 L 461.25,198.61 L 457.03,197.53 L 455.24,193.97 L 441.39,195.64 L 439.23,193.31 L 433.85,196.00 L 427.27,193.73 L 423.52,199.33 L 421.75,207.46 L 422.60,214.99 L 424.58,220.30 L 427.24,221.72 L 429.15,229.52 L 430.83,228.51 L 433.83,229.73 L 434.93,225.74 L 439.43,218.46 L 440.45,220.98 L 444.70,220.80 L 445.82,217.80 L 453.66,217.69 L 451.55,215.64 L 455.26,213.92 L 458.83,215.53 L 459.38,217.68 L 457.82,223.13 L 455.48,219.11 L 452.68,220.30 L 447.57,231.35 L 445.56,233.61 L 442.05,234.64 L 440.21,239.07 L 438.70,239.46 L 437.48,237.31 L 435.90,237.37 L 436.38,240.62 L 437.05,239.10 L 438.93,243.81 L 441.63,246.13 L 443.73,253.69 L 446.68,257.32 L 446.60,260.13 L 448.70,262.20 L 448.23,263.96 L 447.05,264.17 L 447.67,267.55 L 446.30,266.39 L 446.72,268.16 L 445.79,270.44 L 449.53,275.74 L 450.70,275.94 L 449.56,277.45 L 450.70,278.12 L 451.04,280.57 L 452.72,280.39 L 451.99,278.89 L 452.75,279.07 L 453.35,285.23 L 452.72,286.15 L 450.85,283.85 L 451.81,287.02 L 450.08,285.38 L 444.73,287.67 L 443.99,290.34 L 444.96,292.89 L 444.40,293.66 L 440.34,293.54 L 438.71,291.83 L 437.91,288.80 L 439.51,279.62 L 435.46,276.19 L 435.46,274.57 L 431.31,268.67 L 433.41,262.99 L 433.57,257.01 L 432.51,256.11 L 433.55,254.91 L 432.74,253.08 L 430.50,252.23 L 428.16,253.47 L 424.01,258.60 L 424.68,262.03 L 426.43,264.15 L 426.66,272.95 L 425.63,279.86 L 426.70,290.03 L 425.17,294.21 L 424.68,299.39 L 426.84,308.14 L 425.32,306.08 L 422.89,307.68 L 420.88,307.19 L 418.80,309.70 L 416.55,306.98 L 415.64,307.54 L 414.76,303.22 L 417.74,283.85 L 417.96,277.59 L 417.38,278.49 L 415.86,272.42 L 416.34,268.60 L 414.16,267.35 L 410.13,269.92 L 408.36,261.08 L 409.27,260.65 L 409.68,256.96 L 408.44,256.82 L 408.28,255.22 L 408.81,252.50 L 409.99,252.85 L 412.40,249.24 L 413.27,240.97 L 414.70,240.03 L 414.33,226.75 L 415.85,223.97 L 416.64,219.58 L 418.90,215.37 L 420.13,219.84 L 419.17,212.31 Z M 506.83,162.01 L 506.45,162.47 L 506.09,161.76 L 506.83,162.01 Z M 510.68,160.83 L 510.51,161.03 L 510.23,159.69 L 510.94,159.53 L 510.68,160.83 Z M 212.94,162.47 L 213.87,160.81 L 215.66,160.94 L 218.56,165.90 L 219.76,171.77 L 223.26,172.66 L 227.28,177.77 L 228.26,184.52 L 230.61,188.61 L 236.37,191.00 L 237.68,195.34 L 232.32,200.20 L 231.46,199.17 L 230.67,198.99 L 231.93,200.42 L 235.81,198.59 L 240.81,193.59 L 244.96,198.41 L 245.59,203.71 L 243.14,203.83 L 243.13,205.51 L 239.81,208.36 L 242.19,207.51 L 240.63,210.40 L 243.38,211.70 L 241.41,213.21 L 240.92,211.93 L 241.40,214.28 L 240.63,216.52 L 245.88,223.54 L 247.27,221.75 L 250.06,223.54 L 251.85,222.77 L 253.59,236.33 L 253.15,239.59 L 253.89,238.14 L 254.68,239.32 L 254.15,241.15 L 256.61,240.94 L 257.35,243.12 L 255.98,246.93 L 254.34,248.27 L 255.47,247.68 L 255.50,251.16 L 253.94,253.00 L 253.52,255.16 L 255.70,251.77 L 257.36,246.08 L 257.85,247.76 L 258.41,246.86 L 265.41,248.26 L 265.35,251.85 L 267.09,253.62 L 267.43,257.51 L 269.81,259.07 L 270.30,264.14 L 268.42,266.96 L 267.54,271.90 L 268.99,274.90 L 267.47,282.44 L 268.48,286.73 L 268.52,295.54 L 267.65,308.78 L 266.56,313.28 L 261.67,304.87 L 260.58,307.40 L 260.40,311.23 L 255.16,306.03 L 253.75,306.06 L 255.54,313.74 L 253.85,313.87 L 246.67,300.67 L 246.56,298.54 L 244.54,295.76 L 241.38,294.17 L 229.39,277.84 L 228.41,271.35 L 221.76,263.57 L 218.67,254.54 L 216.25,251.71 L 214.27,246.99 L 213.31,243.74 L 213.56,238.77 L 211.35,233.67 L 210.42,228.33 L 208.65,227.10 L 208.76,223.07 L 207.51,218.76 L 202.32,209.40 L 201.48,204.13 L 197.06,199.13 L 194.85,198.68 L 194.45,192.38 L 190.20,174.47 L 191.42,173.24 L 190.90,171.04 L 189.99,171.27 L 188.30,167.54 L 182.00,161.30 L 179.70,161.13 L 178.76,158.70 L 178.15,150.24 L 176.00,148.81 L 170.33,135.06 L 165.94,133.27 L 162.87,126.89 L 155.99,117.29 L 152.01,105.09 L 152.15,99.88 L 154.54,98.36 L 156.49,98.88 L 159.50,101.01 L 161.68,105.04 L 165.14,106.50 L 171.31,105.46 L 174.06,107.82 L 177.32,106.04 L 181.49,112.60 L 182.44,118.98 L 185.47,121.23 L 185.37,125.21 L 184.42,127.13 L 185.34,125.85 L 185.80,127.65 L 189.84,130.74 L 191.14,134.26 L 201.52,144.40 L 204.01,148.71 L 203.73,153.41 L 204.32,155.15 L 203.95,153.28 L 204.83,152.83 L 205.60,156.50 L 205.55,154.01 L 206.52,153.22 L 208.96,161.27 L 213.07,165.62 L 214.54,169.61 L 212.94,162.47 Z M 430.94,390.59 L 429.68,393.29 L 426.70,395.40 L 423.49,393.74 L 421.45,389.32 L 417.82,385.34 L 411.98,384.38 L 410.22,381.32 L 412.76,378.20 L 419.62,378.16 L 421.35,376.43 L 422.83,379.61 L 424.30,380.18 L 424.75,382.98 L 427.00,382.95 L 430.94,390.59 Z M 374.20,366.72 L 373.82,367.44 L 372.50,366.04 L 373.39,364.81 L 374.20,366.72 Z M 419.53,364.03 L 418.52,367.33 L 417.62,366.89 L 417.82,363.52 L 418.49,364.83 L 419.53,364.03 Z M 417.12,363.40 L 415.89,363.52 L 416.03,366.20 L 415.07,366.20 L 415.44,360.67 L 417.12,363.40 Z M 457.58,359.94 L 454.65,359.71 L 456.14,356.95 L 458.23,357.42 L 457.58,359.94 Z M 386.37,359.71 L 383.73,367.35 L 384.44,369.08 L 383.15,369.54 L 382.89,367.98 L 382.67,370.17 L 376.54,367.62 L 376.64,365.90 L 379.24,366.14 L 378.59,360.70 L 381.40,356.81 L 385.18,357.54 L 386.37,359.71 Z M 412.42,355.97 L 411.48,357.28 L 411.14,355.95 L 411.86,354.87 L 412.42,355.97 Z M 412.57,366.23 L 409.82,365.23 L 407.68,366.34 L 410.13,367.24 L 409.92,368.24 L 407.81,367.30 L 404.55,368.30 L 404.56,363.26 L 401.76,368.57 L 397.05,369.39 L 393.40,372.02 L 391.26,371.47 L 389.27,373.02 L 386.21,370.34 L 387.26,367.28 L 386.43,364.82 L 387.41,361.87 L 391.29,359.07 L 393.89,361.37 L 393.98,360.06 L 395.24,359.96 L 395.61,362.00 L 395.95,360.58 L 397.93,365.81 L 399.71,366.34 L 400.79,364.62 L 403.11,364.35 L 396.91,356.90 L 397.23,355.17 L 399.15,354.02 L 401.67,354.92 L 403.44,359.33 L 405.09,357.06 L 407.09,357.79 L 407.30,362.60 L 408.25,358.49 L 410.62,358.04 L 411.49,364.43 L 412.74,362.83 L 412.57,366.23 Z M 453.39,359.18 L 453.32,360.99 L 452.30,360.57 L 452.34,363.79 L 448.45,366.08 L 444.80,366.04 L 441.17,368.94 L 436.99,367.19 L 436.38,369.50 L 432.62,369.92 L 430.87,367.62 L 429.94,368.62 L 428.09,367.12 L 424.84,367.85 L 423.60,366.72 L 420.79,368.64 L 419.69,366.20 L 420.36,360.10 L 421.70,360.74 L 426.39,356.65 L 432.42,358.70 L 438.14,363.62 L 439.48,361.12 L 442.39,361.59 L 443.77,360.34 L 443.99,362.00 L 446.70,364.21 L 448.75,363.49 L 448.84,361.42 L 450.07,359.77 L 453.14,357.74 L 453.79,356.01 L 451.61,356.56 L 452.94,353.72 L 454.72,357.79 L 453.39,359.18 Z M 375.03,360.22 L 370.92,364.02 L 369.62,366.32 L 369.90,367.87 L 368.87,368.25 L 369.11,364.74 L 366.62,361.12 L 363.11,359.61 L 361.40,354.69 L 365.86,356.01 L 369.51,353.44 L 374.14,357.79 L 375.03,360.22 Z M 302.61,348.31 L 299.93,346.87 L 300.20,346.44 L 302.61,348.31 Z M 371.57,332.15 L 371.77,333.31 L 370.60,333.95 L 369.74,332.48 L 370.41,330.75 L 373.62,332.04 L 371.57,332.15 Z M 342.73,312.01 L 341.35,312.37 L 341.11,311.38 L 342.40,310.11 L 342.73,312.01 Z M 229.07,305.89 L 227.06,302.83 L 227.86,301.82 L 230.41,304.11 L 229.07,305.89 Z M 376.19,293.29 L 375.82,293.16 L 376.68,291.75 L 376.19,293.29 Z M 383.01,267.01 L 382.49,271.29 L 381.82,269.31 L 383.01,267.01 Z M 381.62,276.22 L 379.28,279.24 L 378.47,271.10 L 379.59,265.42 L 381.20,263.46 L 381.62,276.22 Z M 210.07,262.68 L 209.99,262.80 L 209.60,262.37 L 210.07,262.68 Z M 209.24,265.61 L 206.29,258.77 L 206.71,255.16 L 209.32,259.67 L 208.57,262.80 L 209.24,265.61 Z M 205.74,256.05 L 204.40,256.30 L 203.96,249.97 L 206.48,253.69 L 205.74,256.05 Z M 202.56,247.85 L 199.92,245.72 L 199.09,243.49 L 199.50,241.36 L 200.91,242.05 L 202.56,247.85 Z M 300.60,234.53 L 299.89,232.98 L 301.06,232.09 L 301.75,232.85 L 300.60,234.53 Z M 307.60,227.61 L 306.68,226.91 L 307.31,221.75 L 310.01,221.94 L 310.40,224.11 L 307.60,227.61 Z M 196.34,235.91 L 196.12,234.35 L 195.53,233.86 L 196.13,236.54 L 194.64,237.11 L 192.10,234.82 L 188.94,225.87 L 189.64,221.50 L 192.25,220.61 L 196.34,233.99 L 196.34,235.91 Z M 187.92,214.10 L 185.47,213.34 L 187.14,208.11 L 187.92,214.10 Z M 188.45,210.66 L 185.69,203.71 L 186.89,203.71 L 188.45,210.66 Z M 239.92,193.56 L 238.40,193.54 L 238.82,190.63 L 240.06,191.94 L 239.92,193.56 Z M 242.56,189.10 L 241.45,187.32 L 242.18,187.84 L 242.56,189.10 Z M 246.64,187.69 L 247.11,189.14 L 246.78,189.05 L 245.77,187.08 L 246.64,187.69 Z M 241.59,191.53 L 240.76,187.34 L 241.23,187.20 L 242.19,189.11 L 241.59,191.53 Z M 245.91,188.38 L 245.92,189.33 L 244.77,187.32 L 245.91,188.38 Z M 246.89,186.18 L 245.99,184.91 L 246.44,184.38 L 246.89,186.18 Z M 256.92,184.63 L 256.81,185.80 L 256.35,184.52 L 256.92,184.63 Z M 286.93,184.78 L 286.47,185.52 L 286.14,184.63 L 286.93,184.78 Z M 240.58,184.60 L 240.50,182.89 L 241.11,182.54 L 241.69,184.73 L 240.58,184.60 Z M 236.95,190.66 L 235.72,188.87 L 231.61,188.85 L 230.41,187.32 L 231.44,185.84 L 231.08,182.99 L 232.04,182.63 L 232.58,184.76 L 233.21,185.04 L 234.30,184.76 L 237.40,188.74 L 236.95,190.66 Z M 238.25,188.05 L 234.59,184.38 L 232.79,184.56 L 234.71,181.93 L 238.24,186.31 L 238.25,188.05 Z M 248.75,185.15 L 246.73,183.63 L 248.08,181.47 L 249.34,181.98 L 248.75,185.15 Z M 254.91,186.31 L 253.92,188.14 L 252.33,185.77 L 253.02,184.34 L 250.69,184.90 L 250.27,183.23 L 254.01,180.77 L 254.91,186.31 Z M 230.84,183.55 L 231.08,185.48 L 230.01,186.17 L 228.52,183.11 L 228.28,177.56 L 231.14,180.46 L 230.84,183.55 Z M 231.20,179.93 L 229.58,177.28 L 227.03,176.12 L 226.07,173.52 L 231.02,175.38 L 231.20,179.93 Z M 188.99,173.21 L 187.17,172.66 L 187.51,171.77 L 188.99,173.21 Z M 172.71,166.06 L 172.35,164.74 L 172.90,164.25 L 172.71,166.06 Z M 223.55,167.33 L 222.89,170.49 L 220.45,171.26 L 219.43,168.05 L 219.66,165.53 L 222.17,163.97 L 223.55,167.33 Z M 168.03,164.46 L 167.50,165.05 L 167.39,164.14 L 168.03,164.46 Z M 175.10,165.78 L 172.72,162.40 L 174.66,162.10 L 175.10,165.78 Z M 407.16,162.83 L 407.16,162.97 L 406.34,161.95 L 406.10,160.55 L 407.16,162.83 Z M 302.43,157.32 L 301.79,156.24 L 302.10,155.91 L 303.32,156.47 L 302.43,157.32 Z M 272.09,152.72 L 271.71,151.12 L 271.96,151.16 L 272.09,152.72 Z M 164.36,159.75 L 161.43,155.58 L 158.44,154.18 L 157.45,150.88 L 158.33,150.61 L 158.45,148.82 L 159.76,149.50 L 159.45,150.61 L 162.09,152.71 L 161.84,154.18 L 162.44,153.70 L 165.94,158.64 L 164.36,159.75 Z M 301.04,148.07 L 300.42,150.61 L 299.69,149.71 L 301.04,148.07 Z M 289.21,148.00 L 288.49,148.06 L 288.79,147.28 L 289.21,148.00 Z M 267.46,149.53 L 266.38,150.67 L 266.12,146.64 L 267.46,149.53 Z M 272.61,146.13 L 272.54,146.13 L 271.76,143.56 L 272.61,146.13 Z M 394.90,142.34 L 393.70,142.38 L 393.88,141.49 L 394.90,142.34 Z M 272.74,141.09 L 272.54,143.46 L 272.01,142.95 L 272.74,141.09 Z M 396.61,140.32 L 396.22,143.18 L 394.95,140.25 L 396.61,140.32 Z M 398.15,138.56 L 397.70,136.93 L 398.39,137.05 L 398.89,138.50 L 398.15,138.56 Z M 392.11,138.45 L 391.54,137.33 L 393.45,137.22 L 394.79,138.88 L 392.11,138.45 Z M 397.70,132.50 L 397.10,131.60 L 397.95,131.82 L 398.37,132.89 L 397.70,132.50 Z M 397.36,128.18 L 396.40,129.46 L 395.63,127.96 L 396.36,126.37 L 397.36,128.18 Z M 294.72,135.03 L 293.26,135.69 L 292.29,134.80 L 293.29,133.01 L 294.31,134.14 L 294.11,133.01 L 291.94,131.83 L 291.09,128.92 L 293.71,124.59 L 295.57,131.48 L 294.72,135.03 Z M 291.19,116.29 L 290.58,116.28 L 290.61,115.96 L 291.32,114.78 L 291.19,116.29 Z M 151.54,99.48 L 151.03,98.97 L 151.38,98.19 L 151.54,99.48 Z M 151.22,97.48 L 151.29,97.68 L 151.17,98.09 L 150.50,98.33 L 150.00,96.69 L 151.22,97.48 Z M 153.52,96.04 L 152.16,93.75 L 152.93,94.59 L 153.56,93.86 L 153.52,96.04 Z M 458.89,402.27 L 456.71,404.76 L 452.49,406.25 L 452.40,404.11 L 454.97,402.87 L 458.64,397.69 L 458.89,402.27 Z M 443.54,399.10 L 442.27,400.76 L 440.19,400.13 L 442.91,397.63 L 443.54,399.10 Z M 458.93,395.82 L 457.94,395.94 L 458.67,392.89 L 459.50,392.42 L 458.93,395.82 Z M 460.66,361.19 L 460.78,362.94 L 456.91,362.21 L 459.72,358.94 L 458.46,358.31 L 458.94,357.39 L 460.61,357.03 L 460.07,358.99 L 460.85,359.37 L 461.42,356.57 L 464.53,356.65 L 460.66,361.19 Z M 466.94,362.45 L 465.96,362.68 L 465.52,360.42 L 464.31,360.88 L 465.57,358.25 L 466.51,359.58 L 468.12,355.81 L 468.67,356.52 L 466.94,362.45 Z M 627.34,359.96 L 623.57,358.88 L 626.16,355.38 L 627.34,359.96 Z M 477.53,358.97 L 469.97,361.12 L 468.94,360.10 L 471.27,356.71 L 469.58,357.35 L 470.49,354.89 L 471.88,356.27 L 475.67,355.21 L 477.65,356.46 L 477.53,358.97 Z M 509.11,357.28 L 506.24,354.60 L 507.01,354.25 L 509.81,354.86 L 509.11,357.28 Z M 543.44,354.74 L 538.89,358.94 L 540.66,354.88 L 543.44,354.74 Z M 528.15,353.45 L 526.07,350.60 L 526.59,348.62 L 528.86,350.15 L 528.15,353.45 Z M 493.16,349.07 L 492.14,351.80 L 487.66,350.27 L 484.62,352.56 L 486.73,346.09 L 490.64,346.76 L 493.89,344.23 L 496.17,347.33 L 493.16,349.07 Z M 503.19,344.79 L 501.84,346.01 L 502.01,343.23 L 503.19,344.79 Z M 629.31,344.53 L 627.31,350.52 L 627.45,353.83 L 624.80,355.56 L 621.70,360.04 L 613.68,360.34 L 614.99,353.78 L 618.58,344.23 L 621.91,341.35 L 625.41,340.50 L 629.31,344.53 Z M 548.46,338.55 L 549.18,341.59 L 548.35,345.35 L 544.91,352.75 L 544.55,351.23 L 542.73,352.43 L 542.71,346.97 L 544.18,346.96 L 543.44,345.90 L 544.09,342.89 L 546.39,340.03 L 547.65,336.25 L 549.12,336.26 L 548.46,338.55 Z M 551.97,338.55 L 549.43,336.44 L 551.46,335.74 L 551.97,338.55 Z M 515.78,337.90 L 514.58,336.24 L 515.57,334.99 L 515.78,337.90 Z M 357.89,333.47 L 355.55,334.71 L 355.15,336.21 L 352.29,336.22 L 351.24,338.42 L 347.45,337.90 L 346.98,336.41 L 347.04,338.11 L 342.68,336.77 L 342.31,334.90 L 344.73,331.80 L 357.03,332.22 L 357.89,333.47 Z M 260.84,327.73 L 260.53,326.06 L 259.93,326.95 L 260.68,325.40 L 261.50,325.03 L 260.84,327.73 Z M 577.48,331.20 L 576.11,332.30 L 574.90,330.59 L 575.30,323.75 L 576.38,324.65 L 575.41,323.02 L 575.22,318.56 L 579.07,323.49 L 579.37,325.92 L 577.48,331.20 Z M 427.88,316.44 L 427.04,324.09 L 426.92,310.87 L 427.88,316.44 Z M 256.87,311.87 L 256.13,310.59 L 256.31,310.41 L 256.87,311.87 Z M 560.78,313.79 L 559.87,313.88 L 559.09,307.82 L 559.93,307.72 L 561.07,311.25 L 560.78,313.79 Z M 580.71,322.08 L 577.11,317.43 L 578.10,315.85 L 577.23,313.79 L 578.21,311.37 L 576.30,309.86 L 577.93,309.89 L 579.59,306.79 L 579.63,304.59 L 580.93,304.88 L 581.68,306.54 L 581.01,307.56 L 582.35,309.09 L 582.11,314.64 L 581.22,313.97 L 580.64,314.31 L 582.50,316.87 L 581.62,318.71 L 582.35,318.14 L 580.71,322.08 Z M 564.45,307.68 L 561.51,315.15 L 564.42,302.39 L 565.23,302.37 L 564.45,307.68 Z M 444.07,305.00 L 443.21,305.31 L 441.46,301.44 L 441.97,298.50 L 443.31,297.91 L 444.29,300.60 L 444.07,305.00 Z M 549.67,291.70 L 549.48,292.25 L 549.35,291.61 L 549.67,291.70 Z M 450.13,299.58 L 450.72,302.12 L 450.07,304.42 L 449.47,304.58 L 449.12,301.94 L 448.66,303.98 L 447.99,303.17 L 448.46,302.46 L 446.60,303.48 L 447.94,297.75 L 447.12,293.66 L 447.72,291.87 L 451.29,289.45 L 452.04,295.05 L 450.13,299.58 Z M 548.36,286.00 L 548.87,287.75 L 548.65,287.94 L 548.36,286.00 Z M 456.76,302.21 L 453.09,305.13 L 453.55,306.41 L 452.56,309.18 L 450.50,308.92 L 449.73,306.03 L 452.42,300.53 L 451.80,300.45 L 452.31,297.41 L 451.75,297.23 L 452.63,295.28 L 452.86,289.34 L 454.89,285.15 L 456.62,288.95 L 456.83,293.19 L 456.07,291.35 L 455.00,291.77 L 453.89,300.14 L 454.95,299.16 L 456.76,302.21 Z M 570.05,283.58 L 567.44,281.80 L 566.75,280.01 L 570.05,283.58 Z M 545.73,280.85 L 544.53,279.30 L 544.67,279.17 L 545.73,280.85 Z M 544.18,278.18 L 544.07,278.87 L 543.74,277.60 L 544.18,278.18 Z M 457.19,279.67 L 456.57,281.49 L 454.92,281.90 L 453.90,278.87 L 454.74,277.51 L 456.66,277.86 L 457.19,279.67 Z M 545.82,278.87 L 545.49,277.29 L 545.99,277.22 L 545.82,278.87 Z M 517.65,271.98 L 517.12,272.41 L 516.95,271.66 L 517.65,271.98 Z M 455.74,271.10 L 455.10,270.01 L 455.97,269.42 L 455.74,271.10 Z M 514.96,270.40 L 513.10,271.35 L 513.47,269.11 L 514.96,270.40 Z M 512.47,271.06 L 511.57,270.83 L 511.40,272.83 L 509.89,273.78 L 511.04,271.28 L 508.10,273.59 L 508.66,270.94 L 512.43,268.91 L 512.47,271.06 Z M 516.75,270.83 L 516.10,269.98 L 515.75,270.98 L 514.93,268.58 L 516.67,269.17 L 516.75,270.83 Z M 500.19,271.66 L 494.65,275.46 L 489.28,271.13 L 486.98,264.01 L 488.06,261.48 L 489.27,262.77 L 491.66,260.70 L 496.21,260.76 L 498.97,263.13 L 498.54,265.40 L 500.78,266.30 L 500.19,271.66 Z M 278.87,259.93 L 277.36,258.76 L 278.34,257.38 L 279.39,258.08 L 278.87,259.93 Z M 281.29,257.71 L 280.57,257.16 L 281.08,256.09 L 281.29,257.71 Z M 285.65,256.05 L 285.87,256.69 L 284.84,258.41 L 284.09,257.28 L 285.65,256.05 Z M 539.48,275.55 L 530.60,268.19 L 529.39,265.59 L 525.25,265.02 L 525.83,267.57 L 524.99,268.01 L 519.28,266.00 L 519.51,264.08 L 518.37,263.16 L 516.20,267.43 L 514.10,267.99 L 510.77,263.00 L 510.63,260.64 L 508.02,269.69 L 508.07,265.41 L 507.11,262.61 L 509.96,260.64 L 509.59,258.84 L 510.74,256.73 L 520.28,255.75 L 521.63,258.60 L 524.06,255.51 L 525.59,255.30 L 530.20,258.90 L 534.82,259.27 L 536.98,261.80 L 537.84,266.90 L 539.47,267.47 L 540.08,270.07 L 539.48,275.55 Z M 548.43,252.20 L 548.59,252.19 L 547.69,252.90 L 548.43,252.20 Z M 293.55,261.92 L 292.07,263.59 L 291.05,263.85 L 289.85,260.35 L 289.25,262.50 L 286.94,263.65 L 287.03,257.86 L 286.33,257.84 L 287.67,251.23 L 289.46,250.55 L 291.61,252.73 L 292.33,252.10 L 294.46,256.57 L 293.55,261.92 Z M 579.77,248.35 L 580.27,246.23 L 580.42,246.51 L 580.42,248.53 L 579.77,248.35 Z M 578.74,241.52 L 578.01,243.63 L 577.72,242.33 L 578.29,240.85 L 578.74,241.52 Z M 487.90,249.40 L 487.22,249.33 L 486.03,245.09 L 485.59,241.78 L 486.35,240.12 L 487.90,249.40 Z M 463.08,240.64 L 463.00,238.44 L 463.63,239.46 L 463.08,240.64 Z M 486.28,239.51 L 480.89,239.85 L 479.84,238.01 L 480.57,236.59 L 490.65,237.42 L 486.28,239.51 Z M 456.10,237.51 L 455.23,238.95 L 455.47,236.23 L 456.10,237.51 Z M 576.76,236.99 L 576.00,239.73 L 575.94,237.62 L 576.67,235.92 L 576.76,236.99 Z M 534.33,239.45 L 535.34,240.34 L 534.65,241.02 L 534.26,239.85 L 531.96,242.03 L 527.48,238.58 L 534.32,234.77 L 535.37,237.73 L 534.33,239.45 Z M 479.66,238.60 L 476.34,239.75 L 474.33,238.83 L 471.22,240.90 L 469.73,240.86 L 468.90,238.38 L 469.50,234.60 L 470.95,233.83 L 476.72,236.42 L 477.50,234.88 L 478.33,236.85 L 479.12,235.73 L 479.66,238.60 Z M 605.64,237.05 L 598.75,239.10 L 589.57,233.54 L 605.64,237.05 Z M 278.57,251.58 L 277.36,252.49 L 276.07,257.72 L 277.68,260.76 L 275.29,261.35 L 274.25,258.84 L 269.36,256.06 L 268.50,253.33 L 268.90,250.06 L 267.64,248.13 L 267.11,243.59 L 264.78,242.03 L 261.96,243.30 L 260.23,242.27 L 260.10,240.14 L 263.00,236.75 L 262.43,234.25 L 264.78,232.07 L 266.27,234.37 L 265.84,235.94 L 267.47,236.93 L 266.19,232.07 L 268.57,231.37 L 269.95,233.04 L 271.46,238.70 L 271.69,244.10 L 272.97,248.81 L 278.57,251.58 Z M 588.61,231.19 L 586.03,231.64 L 586.16,230.99 L 588.61,231.19 Z M 510.47,234.64 L 509.39,235.47 L 503.75,235.79 L 502.07,233.94 L 502.61,229.90 L 503.26,230.55 L 504.85,228.29 L 510.41,233.23 L 510.47,234.64 Z M 505.20,227.24 L 502.96,226.56 L 503.90,225.36 L 505.46,226.16 L 505.20,227.24 Z M 460.19,230.23 L 458.88,231.79 L 457.58,230.02 L 457.08,233.94 L 455.64,232.91 L 456.45,231.21 L 456.09,227.77 L 453.30,233.15 L 452.39,230.43 L 453.50,225.46 L 456.50,224.88 L 456.96,229.52 L 458.27,226.44 L 459.91,227.10 L 460.19,230.23 Z M 529.05,226.52 L 527.80,225.90 L 529.05,224.82 L 530.09,225.20 L 529.05,226.52 Z M 584.17,224.70 L 582.80,222.69 L 583.65,220.99 L 584.48,222.00 L 584.19,223.52 L 584.96,222.52 L 584.17,224.70 Z M 541.05,228.76 L 538.83,226.61 L 537.65,221.69 L 540.29,220.13 L 541.84,220.59 L 541.05,228.76 Z M 539.50,219.76 L 534.94,220.86 L 535.79,218.45 L 540.56,218.05 L 539.50,219.76 Z M 597.60,226.29 L 594.61,225.58 L 593.30,219.19 L 592.17,220.08 L 589.97,218.32 L 589.01,215.40 L 593.44,217.50 L 594.43,216.67 L 597.99,223.42 L 599.94,223.92 L 597.60,226.29 Z M 500.98,218.56 L 499.64,217.94 L 500.14,215.16 L 500.98,218.56 Z M 537.56,213.39 L 536.80,213.47 L 537.08,212.21 L 535.61,213.34 L 536.08,211.78 L 537.96,211.68 L 537.56,213.39 Z M 442.41,213.02 L 440.68,212.50 L 439.67,213.72 L 440.86,211.03 L 441.97,211.03 L 442.41,213.02 Z M 254.27,212.20 L 253.31,214.99 L 252.32,214.27 L 251.62,215.88 L 250.84,211.03 L 252.85,209.75 L 254.27,212.20 Z M 443.85,211.14 L 442.04,210.60 L 442.76,209.38 L 443.88,209.75 L 443.85,211.14 Z M 506.16,220.09 L 504.76,217.57 L 502.93,218.75 L 503.07,215.50 L 501.16,212.77 L 501.40,209.89 L 502.81,211.30 L 503.57,209.19 L 504.24,209.62 L 505.43,212.51 L 504.52,215.05 L 505.05,216.73 L 507.62,217.80 L 506.16,220.09 Z M 499.13,212.89 L 499.15,208.92 L 499.85,208.33 L 501.18,208.82 L 500.50,212.70 L 499.13,212.89 Z M 245.10,210.02 L 241.89,210.40 L 242.94,207.73 L 245.10,210.02 Z M 446.13,208.66 L 445.13,207.91 L 445.48,207.23 L 446.13,208.66 Z M 447.65,210.02 L 446.02,207.28 L 447.12,207.86 L 447.65,210.02 Z M 439.18,205.89 L 439.75,206.31 L 439.47,207.26 L 439.18,205.89 Z M 545.22,208.93 L 544.22,210.72 L 541.24,210.27 L 537.39,205.15 L 538.76,208.92 L 540.90,210.40 L 538.81,211.87 L 538.07,208.99 L 536.54,211.69 L 536.28,208.36 L 532.95,207.31 L 535.20,207.28 L 535.01,205.94 L 533.82,206.65 L 534.26,205.05 L 534.49,205.94 L 539.56,203.64 L 543.14,205.17 L 544.70,206.54 L 545.22,208.93 Z M 258.75,208.81 L 257.92,209.75 L 255.75,207.56 L 253.64,208.62 L 252.48,207.15 L 253.89,203.01 L 256.08,207.07 L 256.98,206.17 L 258.75,208.81 Z M 525.58,207.60 L 522.90,202.68 L 523.07,202.68 L 525.55,206.07 L 525.58,207.60 Z M 502.29,203.51 L 502.40,200.84 L 502.87,200.96 L 502.95,203.64 L 502.29,203.51 Z M 252.93,203.13 L 252.22,201.87 L 252.25,200.30 L 252.93,203.13 Z M 255.39,202.96 L 253.08,199.06 L 253.71,199.40 L 255.39,202.96 Z M 252.15,198.14 L 251.44,196.77 L 251.64,196.71 L 252.15,198.14 Z M 502.49,197.75 L 501.85,198.30 L 501.62,197.08 L 502.29,196.51 L 502.49,197.75 Z M 250.69,191.01 L 250.76,191.92 L 250.64,191.79 L 250.09,190.40 L 250.69,191.01 Z M 502.14,189.48 L 502.50,189.48 L 502.81,191.16 L 502.07,191.98 L 502.14,189.48 Z M 249.98,190.06 L 249.88,189.06 L 250.72,188.75 L 250.84,190.40 L 249.98,190.06 Z M 501.35,189.48 L 501.09,188.00 L 501.90,187.92 L 501.35,189.48 Z M 249.67,188.72 L 248.82,185.92 L 249.62,187.13 L 250.21,187.20 L 249.67,188.72 Z M 181.11,192.00 L 179.26,192.92 L 178.27,188.25 L 175.90,185.99 L 174.29,180.00 L 172.29,177.24 L 176.13,175.31 L 181.70,185.04 L 181.11,192.00 Z M 479.10,177.27 L 478.21,177.70 L 478.09,177.24 L 478.91,176.62 L 479.40,174.70 L 479.10,177.27 Z M 505.73,197.76 L 503.68,193.14 L 504.74,188.09 L 503.33,186.73 L 503.30,183.94 L 502.35,184.17 L 502.29,181.08 L 504.80,169.42 L 508.12,162.87 L 509.34,162.57 L 507.16,169.12 L 508.99,171.58 L 508.99,179.29 L 504.78,186.13 L 507.22,188.47 L 508.76,183.42 L 510.78,182.09 L 509.83,180.18 L 511.05,177.71 L 513.59,174.93 L 516.66,174.35 L 516.46,183.65 L 512.10,186.94 L 511.15,189.17 L 512.80,191.60 L 516.24,193.25 L 516.34,197.12 L 517.80,197.79 L 518.61,199.71 L 513.84,196.23 L 507.86,195.43 L 507.59,203.13 L 508.62,208.48 L 511.31,216.77 L 513.62,220.48 L 509.18,216.58 L 507.58,211.13 L 505.20,207.46 L 505.73,197.76 Z M 481.12,160.16 L 480.46,160.30 L 480.21,159.40 L 481.12,160.16 Z M 514.99,164.31 L 511.76,166.45 L 510.97,161.41 L 512.32,157.83 L 514.99,154.57 L 516.30,157.36 L 514.99,164.31 Z M 480.77,154.57 L 480.46,154.66 L 480.11,152.34 L 481.02,151.60 L 480.77,154.57 Z M 482.91,140.40 L 481.71,139.13 L 481.00,134.05 L 483.29,139.02 L 482.91,140.40 Z M 495.90,132.43 L 496.38,133.65 L 495.90,134.14 L 495.17,131.88 L 495.90,132.43 Z M 494.82,130.62 L 494.64,132.64 L 493.76,128.33 L 494.82,130.62 Z M 497.10,123.90 L 495.76,128.82 L 494.43,129.06 L 495.81,125.00 L 494.80,124.23 L 495.17,119.00 L 496.59,119.95 L 497.10,123.90 Z M 448.02,360.68 L 448.01,361.48 L 447.39,361.35 L 448.02,360.68 Z M 440.79,358.22 L 440.39,359.02 L 440.03,358.17 L 440.79,358.22 Z M 441.76,341.04 L 440.94,341.55 L 440.88,340.87 L 441.76,341.04 Z M 363.26,336.92 L 361.92,336.69 L 362.42,336.02 L 363.26,336.92 Z M 360.79,337.14 L 359.47,335.32 L 360.04,334.74 L 360.79,337.14 Z M 458.55,235.44 L 457.49,236.80 L 457.48,236.10 L 458.55,235.44 Z M 444.33,210.98 L 444.39,208.58 L 444.59,208.48 L 445.07,210.72 L 444.33,210.98 Z M 531.46,348.46 L 530.86,348.19 L 530.92,348.00 L 531.46,348.46 Z M 530.56,347.73 L 530.40,346.93 L 530.60,346.96 L 530.56,347.73 Z M 526.87,343.77 L 527.47,344.20 L 527.26,344.56 L 526.87,343.77 Z M 520.98,333.31 L 521.28,333.11 L 521.34,333.65 L 520.98,333.31 Z M 525.00,328.77 L 525.46,328.66 L 525.27,329.53 L 525.00,328.77 Z M 530.57,321.11 L 530.56,320.97 L 530.87,321.13 L 530.57,321.11 Z M 503.99,306.03 L 504.06,306.23 L 503.95,306.13 L 503.99,306.03 Z M 504.01,305.90 L 503.89,305.82 L 503.99,305.73 L 504.01,305.90 Z M 506.64,304.05 L 506.69,304.19 L 506.54,304.22 L 506.64,304.05 Z M 506.43,302.98 L 506.49,303.17 L 506.40,303.09 L 506.43,302.98 Z M 552.52,302.76 L 551.97,303.83 L 551.93,302.99 L 552.52,302.76 Z M 528.17,287.75 L 528.09,288.03 L 527.95,287.72 L 528.17,287.75 Z M 577.83,189.33 L 577.87,189.58 L 577.61,189.98 L 577.83,189.33 Z M 544.04,184.50 L 544.13,184.31 L 544.12,184.41 L 544.04,184.50 Z M 544.41,183.63 L 544.24,184.14 L 544.22,183.99 L 544.41,183.63 Z M 491.44,178.79 L 491.22,179.69 L 490.85,178.95 L 491.44,178.79 Z M 480.58,164.45 L 479.83,164.84 L 480.05,163.94 L 480.58,164.45 Z M 493.58,100.02 L 493.63,100.05 L 493.55,100.34 L 493.58,100.02 Z M 439.15,401.44 L 438.41,401.34 L 438.83,400.86 L 439.15,401.44 Z M 377.14,336.87 L 376.52,337.48 L 375.49,336.61 L 377.10,335.81 L 377.14,336.87 Z M 581.44,325.68 L 580.89,324.25 L 581.54,323.72 L 581.44,325.68 Z M 318.08,312.22 L 317.78,312.99 L 317.60,312.44 L 318.08,312.22 Z M 576.50,311.78 L 576.06,311.99 L 575.95,310.90 L 576.50,311.78 Z M 569.35,250.33 L 568.55,248.81 L 568.72,248.68 L 569.66,249.37 L 569.35,250.33 Z M 460.98,235.25 L 459.81,235.38 L 460.13,231.16 L 460.98,235.25 Z M 513.25,222.66 L 512.16,221.12 L 512.35,221.09 L 513.25,222.66 Z M 529.65,211.81 L 529.11,212.85 L 528.94,211.62 L 529.65,211.81 Z M 191.24,200.58 L 191.74,201.53 L 188.34,201.89 L 188.43,200.61 L 191.24,200.58 Z M 255.95,189.85 L 255.79,190.25 L 255.59,189.84 L 255.95,189.85 Z M 254.94,188.31 L 254.60,188.57 L 254.70,187.79 L 254.94,188.31 Z M 478.12,170.48 L 477.77,171.16 L 477.60,169.55 L 478.12,170.48 Z M 499.54,115.15 L 499.43,115.37 L 499.29,115.15 L 499.54,115.15 Z" fill="#4A90D9" stroke="#1a5fa8" stroke-width="1.2"/>
<path d="M 194.19,159.83 L 191.47,160.10 L 189.83,155.18 L 192.02,158.34 L 192.98,156.86 L 190.81,152.44 L 189.30,154.23 L 188.07,149.84 L 190.99,151.25 L 193.89,158.98 L 194.72,158.43 L 194.19,159.83 Z" fill="#A8C8E8" stroke="none"/>
<path d="M 655.64,336.96 L 654.73,335.73 L 655.70,335.29 L 655.71,332.34 L 653.99,330.61 L 655.70,330.26 L 656.30,333.84 L 657.05,332.85 L 655.64,336.96 Z" fill="#A8C8E8" stroke="none"/>
<path d="M 382.42,209.87 L 381.21,209.29 L 382.07,208.12 L 382.49,209.13 L 383.04,206.83 L 383.92,207.75 L 382.42,209.87 Z" fill="#A8C8E8" stroke="none"/>
<path d="M 379.90,212.94 L 379.49,211.09 L 379.66,210.78 L 381.10,211.29 L 379.90,212.94 Z" fill="#A8C8E8" stroke="none"/>
<path d="M 3.49,69.33 L 3.16,70.86 L 2.96,69.96 L 2.63,71.11 L 2.16,71.17 L 2.64,69.97 L 1.69,69.70 L 3.49,69.33 Z" fill="#A8C8E8" stroke="none"/>
</svg>