<svg xmlns="http://www.w3.org/2000/svg" width="800" height="500" viewBox="0 0 800 500">
<rect width="800" height="500" fill="#A8C8E8"/>
<path d="M 562.46,198.04 L 568.93,185.68 L 568.93,198.91 L 562.46,198.04 Z" fill="#E8E0D0" stroke="#B8B0A0" stroke-width="0.5"/>
<path d="M 455.47,120.53 L 459.78,108.95 L 500.50,107.55 L 505.93,125.84 L 519.93,140.80 L 509.65,155.67 L 525.38,149.76 L 532.03,167.13 L 528.16,176.88 L 526.16,163.10 L 519.36,157.88 L 522.97,168.71 L 519.04,175.80 L 525.14,173.26 L 526.40,180.02 L 511.80,185.41 L 510.29,195.39 L 501.51,200.95 L 488.50,194.92 L 475.47,200.38 L 475.01,190.37 L 468.04,187.59 L 457.17,170.93 L 448.92,177.15 L 450.76,185.91 L 444.78,193.69 L 429.23,192.60 L 417.53,186.93 L 402.53,167.07 L 424.56,155.78 L 414.07,148.44 L 432.34,144.88 L 438.86,124.11 L 455.47,120.53 Z M 555.33,394.29 L 546.88,387.80 L 559.87,384.99 L 560.84,378.49 L 543.90,386.93 L 540.75,383.41 L 547.33,379.86 L 546.59,373.71 L 537.84,373.08 L 549.22,360.20 L 560.03,361.12 L 568.93,355.40 L 568.93,386.66 L 555.33,394.29 Z M 563.75,299.69 L 568.93,294.55 L 568.93,297.95 L 563.75,299.69 Z M 559.20,134.99 L 554.67,139.87 L 559.20,153.50 L 545.11,133.98 L 544.47,123.70 L 552.75,130.71 L 552.17,113.19 L 568.93,87.64 L 568.93,141.37 L 559.20,134.99 Z M 556.29,68.20 L 559.10,64.38 L 557.90,51.46 L 568.93,51.07 L 568.93,83.11 L 556.29,68.20 Z M 560.84,38.86 L 562.99,45.72 L 559.55,46.04 L 558.90,39.80 L 564.09,28.71 L 559.55,36.16 L 556.29,31.77 L 557.61,45.90 L 554.68,45.36 L 553.34,55.32 L 546.70,44.30 L 548.45,52.92 L 544.00,47.52 L 541.10,53.58 L 543.03,58.45 L 538.52,56.77 L 536.55,45.36 L 556.29,23.06 L 531.53,42.90 L 537.52,62.30 L 529.37,73.27 L 531.03,77.45 L 524.91,90.49 L 527.72,95.95 L 515.54,99.53 L 520.36,70.90 L 531.03,57.32 L 521.33,61.16 L 525.55,50.28 L 519.62,51.75 L 525.55,42.11 L 519.10,49.64 L 527.41,38.24 L 528.45,30.15 L 523.91,33.99 L 529.25,24.44 L 524.55,25.28 L 525.48,19.07 L 531.36,16.57 L 527.13,16.57 L 530.94,10.13 L 542.67,9.65 L 546.94,4.82 L 549.49,0.27 L 543.03,8.44 L 530.39,7.36 L 541.10,0.27 L 532.97,1.90 L 533.91,0.00 L 568.93,0.00 L 568.93,44.81 L 560.84,38.86 Z M 520.68,5.68 L 512.89,0.00 L 526.52,0.00 L 520.68,5.68 Z M 566.99,493.66 L 561.15,500.00 L 538.36,500.00 L 550.16,486.90 L 551.80,478.23 L 559.87,480.13 L 556.29,474.17 L 562.35,473.70 L 568.93,464.48 L 568.93,493.80 L 566.99,493.66 Z M 567.00,258.44 L 568.93,257.90 L 568.93,260.12 L 567.00,258.44 Z M 497.04,100.29 L 497.15,101.14 L 491.87,100.83 L 497.04,100.29 Z M 546.97,89.52 L 538.14,87.74 L 533.97,73.12 L 543.17,68.54 L 549.19,84.00 L 546.97,89.52 Z M 547.08,62.19 L 543.11,52.14 L 548.71,54.64 L 551.13,64.95 L 547.08,62.19 Z M 491.69,78.52 L 490.19,74.57 L 493.78,72.04 L 489.91,67.66 L 493.46,62.79 L 481.48,70.36 L 484.23,57.08 L 489.61,53.82 L 490.58,59.49 L 498.65,49.74 L 503.84,66.57 L 491.69,78.52 Z M 498.97,36.16 L 497.04,41.62 L 492.52,42.11 L 498.97,36.16 Z M 520.02,35.25 L 507.07,60.57 L 502.33,60.20 L 501.72,51.75 L 510.65,46.98 L 505.48,46.20 L 520.02,35.25 Z M 520.70,30.90 L 517.13,32.32 L 517.64,31.02 L 520.70,30.90 Z M 523.68,25.31 L 522.41,30.08 L 521.03,27.45 L 523.68,25.31 Z M 523.20,19.38 L 524.91,19.27 L 523.16,23.20 L 523.20,19.38 Z M 527.65,12.29 L 528.78,11.69 L 524.91,14.40 L 527.65,12.29 Z M 494.05,7.81 L 492.81,6.77 L 495.10,5.15 L 497.71,7.85 L 494.05,7.81 Z M 470.81,3.03 L 463.61,9.86 L 458.49,5.15 L 470.81,3.03 Z M 514.32,19.80 L 492.66,24.19 L 487.97,19.54 L 493.59,20.37 L 504.29,14.79 L 495.67,14.93 L 504.49,5.15 L 489.29,1.31 L 490.75,0.00 L 506.52,0.00 L 520.01,10.61 L 514.32,19.80 Z M 568.44,428.52 L 568.11,428.90 L 567.83,426.28 L 568.44,428.52 Z" fill="#C8D8E8" stroke="#8BAABB" stroke-width="0.8"/>
<path d="M 438.86,124.11 L 432.34,144.88 L 414.07,148.44 L 424.56,155.78 L 402.53,167.07 L 417.53,186.93 L 442.56,194.68 L 450.76,185.91 L 448.92,177.15 L 457.17,170.93 L 468.04,187.59 L 475.01,190.37 L 475.47,200.38 L 488.50,194.92 L 500.20,202.61 L 488.27,202.42 L 487.40,208.86 L 493.78,214.39 L 494.41,230.93 L 501.62,239.01 L 496.07,246.43 L 502.34,253.86 L 494.96,255.46 L 500.69,260.35 L 505.58,286.37 L 487.97,334.98 L 481.81,333.40 L 487.65,336.70 L 488.87,346.65 L 467.20,345.42 L 469.16,341.57 L 461.22,352.41 L 462.56,348.64 L 458.14,339.36 L 460.13,348.07 L 457.20,351.32 L 429.66,354.28 L 432.25,357.93 L 430.13,363.00 L 417.84,363.87 L 409.78,376.26 L 399.11,377.94 L 401.91,370.77 L 391.42,370.87 L 396.69,380.85 L 384.36,385.58 L 387.23,386.66 L 385.62,393.16 L 374.94,390.45 L 377.85,395.87 L 357.78,396.95 L 352.91,402.95 L 345.46,404.04 L 348.36,399.16 L 342.53,397.22 L 324.72,406.25 L 337.68,393.16 L 323.43,398.03 L 341.81,387.35 L 337.01,381.20 L 333.86,387.27 L 322.17,389.56 L 308.84,395.38 L 317.13,383.56 L 336.04,371.99 L 309.81,382.82 L 305.13,374.11 L 300.10,379.08 L 297.52,371.45 L 304.21,369.54 L 303.64,363.21 L 327.65,350.24 L 295.59,354.57 L 294.42,348.02 L 308.10,339.55 L 311.46,343.20 L 313.39,337.74 L 318.70,343.45 L 328.62,342.61 L 322.39,340.63 L 324.04,332.54 L 318.59,329.61 L 333.49,324.74 L 332.84,317.06 L 350.62,316.52 L 375.25,308.93 L 365.34,307.28 L 366.20,300.82 L 349.98,315.44 L 336.04,309.48 L 319.23,318.15 L 339.92,302.62 L 346.75,288.27 L 340.91,287.72 L 350.62,271.36 L 360.04,273.60 L 357.43,270.35 L 366.49,271.44 L 368.45,265.48 L 361.33,265.48 L 366.20,262.23 L 362.44,261.15 L 339.30,264.89 L 337.27,259.94 L 334.55,264.27 L 337.36,252.43 L 325.36,259.08 L 320.84,257.31 L 325.71,249.73 L 307.88,250.27 L 315.65,244.81 L 307.70,238.94 L 330.55,235.55 L 320.55,231.76 L 320.55,222.56 L 336.71,219.85 L 334.10,218.18 L 337.01,214.39 L 318.88,213.26 L 320.55,210.01 L 320.20,207.35 L 326.26,210.35 L 321.00,201.68 L 324.07,194.80 L 317.61,197.46 L 320.55,194.31 L 315.71,186.38 L 310.67,196.09 L 313.39,186.08 L 310.78,185.05 L 316.33,179.59 L 321.84,182.83 L 317.29,184.46 L 320.48,187.48 L 327.33,183.43 L 323.50,178.20 L 326.36,176.88 L 350.80,179.59 L 356.81,192.14 L 361.06,180.73 L 386.59,187.22 L 381.40,183.43 L 388.52,181.76 L 383.68,178.80 L 386.21,177.78 L 379.37,175.20 L 388.69,166.02 L 400.81,163.89 L 397.94,162.16 L 405.04,152.42 L 389.17,158.91 L 392.42,154.54 L 373.04,148.82 L 391.46,143.21 L 384.36,138.83 L 387.56,136.13 L 395.36,137.75 L 389.17,124.16 L 395.62,121.67 L 397.59,111.66 L 403.35,114.52 L 411.84,106.79 L 410.55,110.58 L 417.53,113.37 L 420.26,104.08 L 419.46,108.95 L 424.81,116.53 L 425.16,107.94 L 420.76,107.06 L 427.58,102.76 L 433.16,115.18 L 425.81,128.01 L 436.45,119.94 L 433.23,101.37 L 445.88,101.87 L 439.84,93.75 L 460.87,105.43 L 438.86,124.11 Z M 332.37,264.54 L 329.91,264.07 L 329.91,261.15 L 332.37,264.54 Z M 318.21,213.16 L 303.65,205.13 L 317.36,202.01 L 318.21,213.16 Z M 387.28,124.34 L 387.87,126.33 L 384.01,126.33 L 387.28,124.34 Z M 325.71,391.10 L 320.10,392.48 L 321.81,390.76 L 325.71,391.10 Z M 300.97,369.96 L 295.94,371.03 L 299.60,367.75 L 300.97,369.96 Z M 332.27,275.80 L 325.13,272.08 L 330.56,272.16 L 332.27,275.80 Z" fill="#4A90D9" stroke="#1a5fa8" stroke-width="1.2"/>
<path d="M 493.62,146.92 L 490.32,155.16 L 492.66,157.45 L 487.07,165.24 L 476.77,161.93 L 480.58,146.92 L 493.62,146.92 Z" fill="#A8C8E8" stroke="none"/>
<path d="M 396.94,290.97 L 389.52,297.53 L 387.23,290.97 L 402.80,277.03 L 396.94,290.97 Z" fill="#A8C8E8" stroke="none"/>
<path d="M 410.86,214.17 L 410.46,213.21 L 413.78,215.48 L 410.86,214.17 Z" fill="#A8C8E8" stroke="none"/>
<path d="M 415.72,246.43 L 411.81,246.41 L 407.95,232.31 L 417.05,238.52 L 415.72,246.43 Z" fill="#A8C8E8" stroke="none"/>
<path d="M 406.03,191.53 L 409.26,190.45 L 409.62,195.94 L 406.03,191.53 Z" fill="#A8C8E8" stroke="none"/>
<path d="M 434.85,191.55 L 429.03,183.43 L 431.97,181.75 L 434.85,191.55 Z" fill="#A8C8E8" stroke="none"/>
</svg>