<svg xmlns="http://www.w3.org/2000/svg" width="800" height="500" viewBox="0 0 800 500">
<rect width="800" height="500" fill="#A8C8E8"/>
<path d="M 784.67,198.04 L 800.00,185.68 L 800.00,198.91 L 784.67,198.04 Z" fill="#E8E0D0" stroke="#B8B0A0" stroke-width="0.5"/>
<path d="M 531.35,120.53 L 541.55,108.95 L 637.97,107.55 L 650.82,125.84 L 683.98,140.80 L 659.64,155.67 L 696.87,149.76 L 712.64,167.13 L 703.47,176.88 L 698.74,163.10 L 682.63,157.88 L 691.17,168.71 L 681.86,175.80 L 696.31,173.26 L 699.29,180.02 L 664.71,185.41 L 661.16,195.39 L 640.37,200.95 L 609.57,194.92 L 578.70,200.38 L 577.61,190.37 L 561.11,187.59 L 535.37,170.93 L 515.82,177.15 L 520.20,185.91 L 506.02,193.69 L 469.21,192.60 L 441.52,186.93 L 406.00,167.07 L 458.14,155.78 L 433.32,148.44 L 476.59,144.88 L 492.01,124.11 L 531.35,120.53 Z M 767.79,394.29 L 747.79,387.80 L 778.55,384.99 L 780.85,378.49 L 740.72,386.93 L 733.27,383.41 L 748.85,379.86 L 747.10,373.71 L 726.39,373.08 L 753.33,360.20 L 778.93,361.12 L 800.00,355.40 L 800.00,386.66 L 767.79,394.29 Z M 787.73,299.69 L 800.00,294.55 L 800.00,297.95 L 787.73,299.69 Z M 776.95,134.99 L 766.24,139.87 L 776.95,153.50 L 743.60,133.98 L 742.07,123.70 L 761.68,130.71 L 760.31,113.19 L 800.00,87.64 L 800.00,141.37 L 776.95,134.99 Z M 770.08,68.20 L 776.74,64.38 L 773.89,51.46 L 800.00,51.07 L 800.00,83.11 L 770.08,68.20 Z M 780.85,38.86 L 785.93,45.72 L 777.80,46.04 L 776.25,39.80 L 788.55,28.71 L 777.79,36.16 L 770.08,31.77 L 773.20,45.90 L 766.26,45.36 L 763.07,55.32 L 747.35,44.30 L 751.50,52.92 L 740.97,47.52 L 734.10,53.58 L 738.68,58.45 L 727.98,56.77 L 723.33,45.36 L 770.08,23.06 L 711.45,42.90 L 725.62,62.30 L 706.34,73.27 L 710.27,77.45 L 695.76,90.49 L 702.43,95.95 L 673.57,99.53 L 684.99,70.90 L 710.27,57.32 L 687.28,61.16 L 697.28,50.28 L 683.25,51.75 L 697.28,42.11 L 682.01,49.64 L 701.69,38.24 L 704.15,30.15 L 693.39,33.99 L 706.03,24.44 L 694.92,25.28 L 697.11,19.07 L 711.04,16.57 L 701.03,16.57 L 710.04,10.13 L 737.83,9.65 L 747.92,4.82 L 753.96,0.27 L 738.68,8.44 L 708.74,7.36 L 734.10,0.27 L 714.86,1.90 L 717.07,0.00 L 800.00,0.00 L 800.00,44.81 L 780.85,38.86 Z M 685.75,5.68 L 667.31,0.00 L 699.58,0.00 L 685.75,5.68 Z M 795.40,493.66 L 781.57,500.00 L 727.63,500.00 L 755.56,486.90 L 759.44,478.23 L 778.55,480.13 L 770.08,474.17 L 784.41,473.70 L 800.00,464.48 L 800.00,493.80 L 795.40,493.66 Z M 795.44,258.44 L 800.00,257.90 L 800.00,260.12 L 795.44,258.44 Z M 629.77,100.29 L 630.04,101.14 L 617.54,100.83 L 629.77,100.29 Z M 748.01,89.52 L 727.09,87.74 L 717.22,73.12 L 738.99,68.54 L 753.27,84.00 L 748.01,89.52 Z M 748.25,62.19 L 738.86,52.14 L 752.13,54.64 L 757.86,64.95 L 748.25,62.19 Z M 617.12,78.52 L 613.55,74.57 L 622.05,72.04 L 612.88,67.66 L 621.30,62.79 L 592.92,70.36 L 599.45,57.08 L 612.19,53.82 L 614.48,59.49 L 633.59,49.74 L 645.87,66.57 L 617.12,78.52 Z M 634.35,36.16 L 629.77,41.62 L 619.07,42.11 L 634.35,36.16 Z M 684.19,35.25 L 653.52,60.57 L 642.29,60.20 L 640.86,51.75 L 661.99,46.98 L 649.77,46.20 L 684.19,35.25 Z M 685.80,30.90 L 677.35,32.32 L 678.56,31.02 L 685.80,30.90 Z M 692.86,25.31 L 689.85,30.08 L 686.58,27.45 L 692.86,25.31 Z M 691.72,19.38 L 695.76,19.27 L 691.61,23.20 L 691.72,19.38 Z M 702.26,12.29 L 704.92,11.69 L 695.76,14.40 L 702.26,12.29 Z M 622.70,7.81 L 619.77,6.77 L 625.18,5.15 L 631.37,7.85 L 622.70,7.81 Z M 567.66,3.03 L 550.61,9.86 L 538.49,5.15 L 567.66,3.03 Z M 670.68,19.80 L 619.41,24.19 L 608.30,19.54 L 621.61,20.37 L 646.94,14.79 L 626.53,14.93 L 647.41,5.15 L 611.43,1.31 L 614.89,0.00 L 652.22,0.00 L 684.16,10.61 L 670.68,19.80 Z M 798.85,428.52 L 798.06,428.90 L 797.40,426.28 L 798.85,428.52 Z" fill="#C8D8E8" stroke="#8BAABB" stroke-width="0.8"/>
<path d="M 492.01,124.11 L 476.59,144.88 L 433.32,148.44 L 458.14,155.78 L 406.00,167.07 L 441.52,186.93 L 500.77,194.68 L 520.20,185.91 L 515.82,177.15 L 535.37,170.93 L 561.11,187.59 L 577.61,190.37 L 578.70,200.38 L 609.57,194.92 L 637.27,202.61 L 609.00,202.42 L 606.94,208.86 L 622.05,214.39 L 623.55,230.93 L 640.62,239.01 L 627.47,246.43 L 642.34,253.86 L 624.86,255.46 L 638.42,260.35 L 650.00,286.37 L 608.30,334.98 L 593.71,333.40 L 607.54,336.70 L 610.44,346.65 L 559.12,345.42 L 563.77,341.57 L 544.96,352.41 L 548.14,348.64 L 537.65,339.36 L 542.38,348.07 L 535.44,351.32 L 470.22,354.28 L 476.35,357.93 L 471.34,363.00 L 442.25,363.87 L 423.15,376.26 L 397.90,377.94 L 404.51,370.77 L 379.69,370.87 L 392.17,380.85 L 362.96,385.58 L 369.77,386.66 L 365.94,393.16 L 340.66,390.45 L 347.54,395.87 L 300.02,396.95 L 288.49,402.95 L 270.85,404.04 L 277.73,399.16 L 263.93,397.22 L 221.74,406.25 L 252.45,393.16 L 218.69,398.03 L 262.21,387.35 L 250.84,381.20 L 243.39,387.27 L 215.71,389.56 L 184.16,395.38 L 203.78,383.56 L 248.55,371.99 L 186.45,382.82 L 175.37,374.11 L 163.46,379.08 L 157.35,371.45 L 173.18,369.54 L 171.83,363.21 L 228.69,350.24 L 152.76,354.57 L 150.00,348.02 L 182.39,339.55 L 190.34,343.20 L 194.93,337.74 L 207.50,343.45 L 230.98,342.61 L 216.24,340.63 L 220.15,332.54 L 207.23,329.61 L 242.51,324.74 L 240.98,317.06 L 283.08,316.52 L 341.38,308.93 L 317.92,307.28 L 319.96,300.82 L 281.55,315.44 L 248.55,309.48 L 208.75,318.15 L 257.73,302.62 L 273.91,288.27 L 260.08,287.72 L 283.07,271.36 L 305.38,273.60 L 299.19,270.35 L 320.66,271.44 L 325.31,265.48 L 308.43,265.48 L 319.96,262.23 L 311.07,261.15 L 256.27,264.89 L 251.48,259.94 L 245.01,264.27 L 251.67,252.43 L 223.26,259.08 L 212.56,257.31 L 224.10,249.73 L 181.87,250.27 L 200.27,244.81 L 181.45,238.94 L 235.56,235.55 L 211.87,231.76 L 211.87,222.56 L 250.15,219.85 L 243.97,218.18 L 250.84,214.39 L 207.92,213.26 L 211.87,210.01 L 211.04,207.35 L 225.41,210.35 L 212.94,201.68 L 220.21,194.80 L 204.90,197.46 L 211.87,194.31 L 200.41,186.38 L 188.48,196.09 L 194.93,186.08 L 188.74,185.05 L 201.87,179.59 L 214.93,182.83 L 204.17,184.46 L 211.71,187.48 L 227.92,183.43 L 218.86,178.20 L 225.63,176.88 L 283.50,179.59 L 297.73,192.14 L 307.80,180.73 L 368.24,187.22 L 355.95,183.43 L 372.82,181.76 L 361.36,178.80 L 367.35,177.78 L 351.15,175.20 L 373.22,166.02 L 401.93,163.89 L 395.12,162.16 L 411.93,152.42 L 374.35,158.91 L 382.06,154.54 L 336.17,148.82 L 379.77,143.21 L 362.96,138.83 L 370.53,136.13 L 389.00,137.75 L 374.35,124.16 L 389.64,121.67 L 394.29,111.66 L 407.94,114.52 L 428.05,106.79 L 424.99,110.58 L 441.52,113.37 L 447.98,104.08 L 446.07,108.95 L 458.74,116.53 L 459.58,107.94 L 449.16,107.06 L 465.30,102.76 L 478.52,115.18 L 461.11,128.01 L 486.31,119.94 L 478.68,101.37 L 508.63,101.87 L 494.34,93.75 L 544.13,105.43 L 492.01,124.11 Z M 239.86,264.54 L 234.04,264.07 L 234.04,261.15 L 239.86,264.54 Z M 206.33,213.16 L 171.86,205.13 L 204.32,202.01 L 206.33,213.16 Z M 369.88,124.34 L 371.29,126.33 L 362.13,126.33 L 369.88,124.34 Z M 224.08,391.10 L 210.82,392.48 L 214.87,390.76 L 224.08,391.10 Z M 165.51,369.96 L 153.61,371.03 L 162.27,367.75 L 165.51,369.96 Z M 239.62,275.80 L 222.73,272.08 L 235.57,272.16 L 239.62,275.80 Z" fill="#4A90D9" stroke="#1a5fa8" stroke-width="1.2"/>
<path d="M 621.68,146.92 L 613.88,155.16 L 619.39,157.45 L 606.17,165.24 L 581.79,161.93 L 590.80,146.92 L 621.68,146.92 Z" fill="#A8C8E8" stroke="none"/>
<path d="M 392.76,290.97 L 375.19,297.53 L 369.77,290.97 L 406.63,277.03 L 392.76,290.97 Z" fill="#A8C8E8" stroke="none"/>
<path d="M 425.70,214.17 L 424.77,213.21 L 432.62,215.48 L 425.70,214.17 Z" fill="#A8C8E8" stroke="none"/>
<path d="M 437.22,246.43 L 427.96,246.41 L 418.82,232.31 L 440.38,238.52 L 437.22,246.43 Z" fill="#A8C8E8" stroke="none"/>
<path d="M 414.27,191.53 L 421.93,190.45 L 422.77,195.94 L 414.27,191.53 Z" fill="#A8C8E8" stroke="none"/>
<path d="M 482.51,191.55 L 468.74,183.43 L 475.70,181.75 L 482.51,191.55 Z" fill="#A8C8E8" stroke="none"/>
</svg>