<svg xmlns="http://www.w3.org/2000/svg" width="800" height="500" viewBox="0 0 800 500">
<rect width="800" height="500" fill="#A8C8E8"/>
<path d="M 333.89,483.07 L 370.29,417.28 L 650.31,429.38 L 752.22,405.88 L 800.00,384.13 L 800.00,500.00 L 304.31,500.00 L 333.89,483.07 Z" fill="#E8E0D0" stroke="#B8B0A0" stroke-width="0.5"/>
<path d="M 354.63,406.24 L 317.09,420.51 L 289.08,466.40 L 235.49,499.59 L 235.58,500.00 L 2.49,500.00 L 0.00,499.19 L 0.00,274.82 L 7.83,275.55 L 44.94,276.41 L 183.01,260.70 L 354.63,406.24 Z M 1.93,274.46 L 0.00,274.24 L 0.00,274.21 L 1.93,274.46 Z" fill="#C8D8E8" stroke="#8BAABB" stroke-width="0.8"/>
<path d="M 606.88,149.08 L 649.51,164.71 L 800.00,177.96 L 800.00,384.13 L 752.22,405.88 L 637.06,430.18 L 370.29,417.28 L 419.27,355.71 L 417.95,331.23 L 492.57,277.49 L 481.87,265.21 L 522.80,224.71 L 513.65,201.37 L 535.89,151.58 L 606.88,149.08 Z" fill="#C8D8E8" stroke="#8BAABB" stroke-width="0.8"/>
<path d="M 500.56,54.23 L 543.17,46.46 L 549.25,21.57 L 628.74,3.44 L 627.45,0.00 L 730.57,0.00 L 712.92,5.40 L 764.23,12.67 L 783.97,30.53 L 705.09,50.68 L 725.35,59.42 L 645.56,61.06 L 613.34,75.11 L 641.76,80.90 L 533.91,107.04 L 520.32,103.78 L 502.98,119.23 L 409.26,119.10 L 500.56,54.23 Z" fill="#C8D8E8" stroke="#8BAABB" stroke-width="0.8"/>
<path d="M 271.95,242.70 L 195.03,268.90 L 183.01,260.70 L 253.25,239.24 L 271.95,242.70 Z M 372.50,191.11 L 399.03,169.03 L 435.10,162.69 L 523.19,175.29 L 522.80,224.71 L 497.63,246.55 L 424.18,256.87 L 352.66,256.82 L 376.35,235.48 L 448.65,226.04 L 438.45,215.62 L 429.49,221.24 L 377.31,219.28 L 392.70,213.27 L 372.50,191.11 Z" fill="#C8D8E8" stroke="#8BAABB" stroke-width="0.8"/>
<path d="M 604.97,130.59 L 573.91,99.52 L 641.76,80.90 L 613.34,75.11 L 620.05,69.62 L 667.52,58.33 L 722.32,60.48 L 705.09,50.68 L 783.97,30.53 L 764.23,12.67 L 712.92,5.40 L 730.57,0.00 L 800.00,0.00 L 800.00,178.96 L 729.92,175.72 L 572.34,146.60 L 604.97,130.59 Z" fill="#C8D8E8" stroke="#8BAABB" stroke-width="0.8"/>
<path d="M 271.95,242.70 L 253.25,239.24 L 310.93,209.85 L 369.83,141.03 L 398.64,137.50 L 407.85,119.21 L 502.98,119.23 L 520.32,103.78 L 533.91,107.04 L 588.22,93.75 L 575.10,104.44 L 604.97,130.59 L 572.34,146.60 L 523.08,154.85 L 523.19,175.29 L 430.63,162.76 L 394.13,171.35 L 373.30,189.90 L 392.70,213.27 L 377.31,219.28 L 429.49,221.24 L 438.45,215.62 L 448.65,226.04 L 376.35,235.48 L 352.66,256.82 L 424.18,256.87 L 497.58,246.55 L 481.87,265.21 L 492.57,277.49 L 417.95,331.23 L 419.27,355.71 L 360.65,406.25 L 195.03,268.90 L 271.95,242.70 Z" fill="#4A90D9" stroke="#1a5fa8" stroke-width="1.2"/>
<path d="M 541.47,145.97 L 527.20,148.53 L 513.88,138.01 L 542.87,138.17 L 541.47,145.97 Z" fill="#A8C8E8" stroke="none"/>
<path d="M 525.95,248.41 L 511.15,261.45 L 510.57,256.44 L 486.65,259.71 L 481.13,244.75 L 522.71,224.69 L 525.95,248.41 Z" fill="#A8C8E8" stroke="none"/>
<path d="M 497.76,278.80 L 472.59,268.99 L 488.27,265.70 L 510.71,269.85 L 497.76,278.80 Z" fill="#A8C8E8" stroke="none"/>
</svg>