<svg xmlns="http://www.w3.org/2000/svg" width="800" height="500" viewBox="0 0 800 500">
<rect width="800" height="500" fill="#A8C8E8"/>
<path d="M 382.00,483.07 L 391.91,417.28 L 468.15,429.38 L 495.90,405.88 L 508.90,384.13 L 508.90,500.00 L 373.95,500.00 L 382.00,483.07 Z" fill="#E8E0D0" stroke="#B8B0A0" stroke-width="0.5"/>
<path d="M 387.65,406.24 L 377.43,420.51 L 369.80,466.40 L 355.21,499.59 L 355.23,500.00 L 291.77,500.00 L 291.10,499.19 L 291.10,274.82 L 293.23,275.55 L 303.33,276.41 L 340.92,260.70 L 387.65,406.24 Z M 291.62,274.46 L 291.10,274.24 L 291.10,274.21 L 291.62,274.46 Z" fill="#C8D8E8" stroke="#8BAABB" stroke-width="0.8"/>
<path d="M 456.32,149.08 L 467.93,164.71 L 508.90,177.96 L 508.90,384.13 L 495.90,405.88 L 464.54,430.18 L 391.91,417.28 L 405.25,355.71 L 404.89,331.23 L 425.20,277.49 L 422.29,265.21 L 433.43,224.71 L 430.94,201.37 L 437.00,151.58 L 456.32,149.08 Z" fill="#C8D8E8" stroke="#8BAABB" stroke-width="0.8"/>
<path d="M 427.38,54.23 L 438.98,46.46 L 440.63,21.57 L 462.28,3.44 L 461.93,0.00 L 490.00,0.00 L 485.20,5.40 L 499.17,12.67 L 504.54,30.53 L 483.06,50.68 L 488.58,59.42 L 466.86,61.06 L 458.08,75.11 L 465.82,80.90 L 436.46,107.04 L 432.76,103.78 L 428.04,119.23 L 402.52,119.10 L 427.38,54.23 Z" fill="#C8D8E8" stroke="#8BAABB" stroke-width="0.8"/>
<path d="M 365.14,242.70 L 344.20,268.90 L 340.92,260.70 L 360.05,239.24 L 365.14,242.70 Z M 392.51,191.11 L 399.74,169.03 L 409.56,162.69 L 433.54,175.29 L 433.43,224.71 L 426.58,246.55 L 406.58,256.87 L 387.11,256.82 L 393.56,235.48 L 413.25,226.04 L 410.47,215.62 L 408.03,221.24 L 393.82,219.28 L 398.01,213.27 L 392.51,191.11 Z" fill="#C8D8E8" stroke="#8BAABB" stroke-width="0.8"/>
<path d="M 455.80,130.59 L 447.35,99.52 L 465.82,80.90 L 458.08,75.11 L 459.91,69.62 L 472.84,58.33 L 487.76,60.48 L 483.06,50.68 L 504.54,30.53 L 499.17,12.67 L 485.20,5.40 L 490.00,0.00 L 508.90,0.00 L 508.90,178.96 L 489.82,175.72 L 446.92,146.60 L 455.80,130.59 Z" fill="#C8D8E8" stroke="#8BAABB" stroke-width="0.8"/>
<path d="M 365.14,242.70 L 360.05,239.24 L 375.75,209.85 L 391.79,141.03 L 399.63,137.50 L 402.14,119.21 L 428.04,119.23 L 432.76,103.78 L 436.46,107.04 L 451.25,93.75 L 447.67,104.44 L 455.80,130.59 L 446.92,146.60 L 433.51,154.85 L 433.54,175.29 L 408.34,162.76 L 398.40,171.35 L 392.73,189.90 L 398.01,213.27 L 393.82,219.28 L 408.03,221.24 L 410.47,215.62 L 413.25,226.04 L 393.56,235.48 L 387.11,256.82 L 406.58,256.87 L 426.57,246.55 L 422.29,265.21 L 425.20,277.49 L 404.89,331.23 L 405.25,355.71 L 389.29,406.25 L 344.20,268.90 L 365.14,242.70 Z" fill="#4A90D9" stroke="#1a5fa8" stroke-width="1.2"/>
<path d="M 438.52,145.97 L 434.63,148.53 L 431.00,138.01 L 438.90,138.17 L 438.52,145.97 Z" fill="#A8C8E8" stroke="none"/>
<path d="M 434.29,248.41 L 430.26,261.45 L 430.10,256.44 L 423.59,259.71 L 422.09,244.75 L 433.41,224.69 L 434.29,248.41 Z" fill="#A8C8E8" stroke="none"/>
<path d="M 426.62,278.80 L 419.76,268.99 L 424.03,265.70 L 430.14,269.85 L 426.62,278.80 Z" fill="#A8C8E8" stroke="none"/>
</svg>