<svg xmlns="http://www.w3.org/2000/svg" width="800" height="500" viewBox="0 0 800 500">
<rect width="800" height="500" fill="#A8C8E8"/>
<path d="M 257.88,284.65 L 253.89,284.59 L 253.89,281.97 L 257.88,284.65 Z M 260.62,356.37 L 253.89,365.54 L 253.89,348.67 L 260.62,356.37 Z M 262.02,385.63 L 253.89,387.43 L 253.89,375.81 L 262.02,385.63 Z M 258.82,398.41 L 268.27,449.68 L 253.89,490.17 L 253.89,394.12 L 258.82,398.41 Z" fill="#E8E0D0" stroke="#B8B0A0" stroke-width="0.5"/>
<path d="M 258.46,97.34 L 268.94,133.38 L 296.00,162.85 L 276.14,192.15 L 306.52,180.52 L 319.38,214.75 L 311.90,233.95 L 308.04,206.79 L 294.89,196.51 L 301.87,217.85 L 294.27,231.82 L 306.06,226.83 L 308.49,240.13 L 280.28,250.76 L 277.38,270.42 L 260.41,281.38 L 253.89,278.29 L 253.89,97.50 L 258.46,97.34 Z M 451.39,484.55 L 436.71,472.39 L 443.23,454.49 L 380.66,475.92 L 417.61,438.58 L 434.07,409.03 L 465.73,397.85 L 461.43,390.28 L 486.65,397.89 L 511.48,388.06 L 533.63,406.36 L 524.62,381.66 L 536.32,375.10 L 546.11,388.97 L 546.11,500.00 L 441.89,500.00 L 451.39,484.55 Z M 532.34,355.83 L 546.11,335.22 L 546.11,383.55 L 532.34,355.83 Z M 537.15,322.79 L 536.47,301.44 L 546.11,296.34 L 546.11,326.27 L 537.15,322.79 Z M 537.15,252.08 L 528.37,276.81 L 519.64,269.26 L 522.70,245.68 L 513.63,256.80 L 483.73,206.64 L 506.22,148.75 L 539.65,134.35 L 489.54,131.24 L 488.52,148.71 L 467.04,148.31 L 449.25,166.74 L 413.53,145.01 L 415.40,180.52 L 371.87,151.42 L 363.13,161.03 L 371.87,187.88 L 344.65,149.42 L 343.40,129.17 L 359.40,142.98 L 358.29,108.47 L 393.90,53.09 L 366.26,19.81 L 371.69,12.29 L 370.57,0.00 L 546.11,0.00 L 546.11,261.42 L 537.15,252.08 Z M 340.64,0.61 L 339.03,0.00 L 340.40,0.00 L 340.64,0.61 Z M 329.98,8.18 L 314.24,29.81 L 317.45,38.04 L 305.61,63.74 L 311.05,74.49 L 287.51,81.54 L 296.82,25.14 L 316.20,0.00 L 327.50,0.00 L 329.98,8.18 Z M 298.69,5.94 L 300.95,0.00 L 313.42,0.00 L 298.69,5.94 Z M 398.85,405.23 L 386.95,394.65 L 393.13,392.89 L 398.85,405.23 Z M 446.41,395.71 L 413.19,422.62 L 415.15,414.52 L 405.09,414.92 L 398.17,399.99 L 398.17,381.66 L 420.67,377.48 L 431.76,396.39 L 446.41,395.71 Z M 348.24,61.81 L 331.18,58.32 L 323.12,29.50 L 340.89,20.48 L 352.54,50.94 L 348.24,61.81 Z M 348.44,7.97 L 345.36,0.00 L 353.20,0.00 L 356.28,13.42 L 348.44,7.97 Z M 253.89,27.66 L 253.89,0.00 L 259.89,0.00 L 264.90,16.61 L 253.89,27.66 Z M 271.14,4.78 L 261.98,4.05 L 261.70,0.00 L 273.54,0.00 L 271.14,4.78 Z" fill="#E8E0D0" stroke="#B8B0A0" stroke-width="0.5"/>
<path d="M 378.16,275.65 L 401.83,229.57 L 418.24,222.12 L 421.84,241.91 L 394.42,277.88 L 378.16,275.65 Z" fill="#4A90D9" stroke="#1a5fa8" stroke-width="1.2"/>
</svg>