<svg xmlns="http://www.w3.org/2000/svg" width="800" height="500" viewBox="0 0 800 500">
<rect width="800" height="500" fill="#A8C8E8"/>
<path d="M 10.94,284.65 L 0.00,284.59 L 0.00,281.97 L 10.94,284.65 Z M 18.43,356.37 L 0.00,365.54 L 0.00,348.67 L 18.43,356.37 Z M 22.26,385.63 L 0.00,387.43 L 0.00,375.81 L 22.26,385.63 Z M 13.51,398.41 L 39.38,449.68 L 0.00,490.17 L 0.00,394.12 L 13.51,398.41 Z" fill="#E8E0D0" stroke="#B8B0A0" stroke-width="0.5"/>
<path d="M 12.51,97.34 L 41.20,133.38 L 115.30,162.85 L 60.91,192.15 L 144.08,180.52 L 179.30,214.75 L 158.81,233.95 L 148.26,206.79 L 112.27,196.51 L 131.36,217.85 L 110.55,231.82 L 142.83,226.83 L 149.50,240.13 L 72.25,250.76 L 64.31,270.42 L 17.86,281.38 L 0.00,278.29 L 0.00,97.50 L 12.51,97.34 Z M 540.69,484.55 L 500.50,472.39 L 518.35,454.49 L 347.05,475.92 L 448.20,438.58 L 493.27,409.03 L 579.94,397.85 L 568.16,390.28 L 637.21,397.89 L 705.18,388.06 L 765.82,406.36 L 741.17,381.66 L 773.19,375.10 L 800.00,388.97 L 800.00,500.00 L 514.67,500.00 L 540.69,484.55 Z M 762.28,355.83 L 800.00,335.22 L 800.00,383.55 L 762.28,355.83 Z M 775.46,322.79 L 773.60,301.44 L 800.00,296.34 L 800.00,326.27 L 775.46,322.79 Z M 775.46,252.08 L 751.42,276.81 L 727.52,269.26 L 735.91,245.68 L 711.06,256.80 L 629.21,206.64 L 690.78,148.75 L 782.30,134.35 L 645.12,131.24 L 642.34,148.71 L 583.52,148.31 L 534.83,166.74 L 437.03,145.01 L 442.16,180.52 L 322.98,151.42 L 299.05,161.03 L 322.98,187.88 L 248.48,149.42 L 245.06,129.17 L 288.86,142.98 L 285.81,108.47 L 383.31,53.09 L 307.63,19.81 L 322.49,12.29 L 319.43,0.00 L 800.00,0.00 L 800.00,261.42 L 775.46,252.08 Z M 237.49,0.61 L 233.10,0.00 L 236.84,0.00 L 237.49,0.61 Z M 208.31,8.18 L 165.23,29.81 L 174.01,38.04 L 141.60,63.74 L 156.50,74.49 L 92.04,81.54 L 117.53,25.14 L 170.59,0.00 L 201.54,0.00 L 208.31,8.18 Z M 122.66,5.94 L 128.85,0.00 L 162.99,0.00 L 122.66,5.94 Z M 396.85,405.23 L 364.27,394.65 L 381.19,392.89 L 396.85,405.23 Z M 527.04,395.71 L 436.11,422.62 L 441.48,414.52 L 413.92,414.92 L 395.00,399.99 L 395.00,381.66 L 456.58,377.48 L 486.95,396.39 L 527.04,395.71 Z M 258.31,61.81 L 211.59,58.32 L 189.54,29.50 L 238.18,20.48 L 270.06,50.94 L 258.31,61.81 Z M 258.86,7.97 L 250.41,0.00 L 271.87,0.00 L 280.32,13.42 L 258.86,7.97 Z M 0.00,27.66 L 0.00,0.00 L 16.42,0.00 L 30.16,16.61 L 0.00,27.66 Z M 47.24,4.78 L 22.16,4.05 L 21.38,0.00 L 53.81,0.00 L 47.24,4.78 Z" fill="#E8E0D0" stroke="#B8B0A0" stroke-width="0.5"/>
<path d="M 340.22,275.65 L 405.01,229.57 L 449.93,222.12 L 459.78,241.91 L 384.73,277.88 L 340.22,275.65 Z" fill="#4A90D9" stroke="#1a5fa8" stroke-width="1.2"/>
</svg>