<svg xmlns="http://www.w3.org/2000/svg" width="800" height="500" viewBox="0 0 800 500">
<rect width="800" height="500" fill="#A8C8E8"/>
<path d="M 772.01,482.93 L 770.54,482.96 L 770.52,482.65 L 772.01,482.93 Z M 744.50,476.14 L 745.23,476.19 L 744.34,476.48 L 744.50,476.14 Z M 747.79,473.32 L 747.10,472.42 L 747.42,472.41 L 747.79,473.32 Z M 755.34,472.31 L 754.55,472.80 L 754.58,472.47 L 755.34,472.31 Z M 748.46,471.34 L 748.05,471.72 L 747.79,471.30 L 748.46,471.34 Z M 774.20,471.13 L 772.34,471.42 L 772.54,471.00 L 774.20,471.13 Z M 758.76,470.90 L 758.88,471.24 L 758.47,471.25 L 757.90,470.44 L 758.76,470.90 Z M 754.50,470.12 L 753.44,469.66 L 754.23,469.57 L 754.50,470.12 Z M 708.83,455.56 L 710.30,454.59 L 713.11,454.66 L 717.68,457.56 L 719.56,460.99 L 725.07,461.51 L 731.38,464.50 L 732.93,468.44 L 736.64,470.83 L 745.68,472.23 L 747.75,474.76 L 739.32,477.60 L 737.96,477.00 L 736.73,476.89 L 738.70,477.73 L 744.81,476.66 L 752.67,473.74 L 759.20,476.56 L 760.19,479.65 L 756.35,479.72 L 756.33,480.71 L 751.10,482.37 L 754.85,481.87 L 752.39,483.56 L 756.71,484.32 L 753.63,485.20 L 752.86,484.46 L 753.60,485.83 L 752.39,487.14 L 760.66,491.24 L 762.83,490.19 L 767.22,491.24 L 770.04,490.79 L 772.79,498.71 L 772.32,500.00 L 709.66,500.00 L 706.34,497.15 L 704.88,494.04 L 702.09,493.32 L 702.26,490.96 L 700.30,488.44 L 692.13,482.98 L 690.81,479.90 L 683.86,476.98 L 680.39,476.71 L 679.74,473.03 L 673.06,462.57 L 674.99,461.85 L 674.16,460.56 L 672.73,460.70 L 670.07,458.52 L 660.16,454.88 L 656.54,454.78 L 655.06,453.36 L 654.11,448.42 L 650.73,447.58 L 641.81,439.54 L 634.89,438.50 L 630.07,434.77 L 619.25,429.16 L 612.98,422.04 L 613.22,418.99 L 616.97,418.11 L 620.04,418.41 L 624.76,419.66 L 628.20,422.01 L 633.65,422.86 L 643.35,422.25 L 647.68,423.63 L 652.81,422.59 L 659.36,426.42 L 660.86,430.15 L 665.63,431.47 L 665.47,433.79 L 663.98,434.92 L 665.41,434.17 L 666.14,435.22 L 672.49,437.02 L 674.54,439.08 L 690.87,445.00 L 694.79,447.52 L 694.34,450.26 L 695.27,451.28 L 694.69,450.19 L 696.08,449.93 L 697.29,452.07 L 697.21,450.62 L 698.74,450.16 L 702.57,454.86 L 709.05,457.40 L 711.35,459.73 L 708.83,455.56 Z M 773.25,499.76 L 773.67,500.00 L 772.93,500.00 L 773.25,499.76 Z M 682.72,498.46 L 682.37,497.56 L 681.45,497.27 L 682.39,498.83 L 680.05,499.16 L 676.05,497.83 L 671.07,492.60 L 672.18,490.04 L 676.28,489.52 L 682.72,497.34 L 682.72,498.46 Z M 669.48,485.72 L 665.62,485.28 L 668.26,482.22 L 669.48,485.72 Z M 670.31,483.71 L 665.97,479.65 L 667.86,479.65 L 670.31,483.71 Z M 751.28,473.72 L 748.88,473.71 L 749.54,472.01 L 751.50,472.77 L 751.28,473.72 Z M 755.43,471.12 L 753.68,470.08 L 754.83,470.38 L 755.43,471.12 Z M 761.84,470.30 L 762.58,471.14 L 762.07,471.09 L 760.48,469.94 L 761.84,470.30 Z M 753.91,472.54 L 752.59,470.09 L 753.33,470.01 L 754.84,471.13 L 753.91,472.54 Z M 760.70,470.70 L 760.72,471.25 L 758.90,470.08 L 760.70,470.70 Z M 762.25,469.41 L 760.83,468.67 L 761.53,468.36 L 762.25,469.41 Z M 778.02,468.50 L 777.84,469.19 L 777.13,468.44 L 778.02,468.50 Z M 752.31,468.49 L 752.19,467.49 L 753.15,467.29 L 754.06,468.56 L 752.31,468.49 Z M 746.60,472.03 L 744.67,470.98 L 738.20,470.97 L 736.32,470.08 L 737.93,469.21 L 737.36,467.55 L 738.88,467.34 L 739.72,468.58 L 740.72,468.74 L 742.43,468.58 L 747.31,470.91 L 746.60,472.03 Z M 748.65,470.50 L 742.89,468.36 L 740.05,468.46 L 743.08,466.93 L 748.64,469.49 L 748.65,470.50 Z M 765.17,468.81 L 761.99,467.92 L 764.12,466.66 L 766.09,466.96 L 765.17,468.81 Z M 774.86,469.49 L 773.29,470.55 L 770.79,469.17 L 771.89,468.34 L 768.22,468.66 L 767.56,467.69 L 773.44,466.25 L 774.86,469.49 Z M 736.99,467.87 L 737.37,469.00 L 735.68,469.41 L 733.35,467.62 L 732.97,464.37 L 737.46,466.07 L 736.99,467.87 Z M 737.56,465.76 L 735.01,464.21 L 731.00,463.54 L 729.50,462.01 L 737.28,463.10 L 737.56,465.76 Z M 671.17,461.83 L 668.30,461.51 L 668.83,460.99 L 671.17,461.83 Z M 645.55,457.66 L 644.98,456.89 L 645.86,456.60 L 645.55,457.66 Z M 725.52,458.40 L 724.49,460.24 L 720.65,460.69 L 719.05,458.82 L 719.41,457.35 L 723.36,456.44 L 725.52,458.40 Z M 638.18,456.72 L 637.35,457.06 L 637.18,456.54 L 638.18,456.72 Z M 649.31,457.49 L 645.56,455.52 L 648.61,455.34 L 649.31,457.49 Z M 632.42,453.97 L 627.81,451.53 L 623.10,450.72 L 621.55,448.79 L 622.92,448.63 L 623.12,447.59 L 625.18,447.98 L 624.69,448.63 L 628.85,449.86 L 628.45,450.72 L 629.39,450.44 L 634.89,453.32 L 632.42,453.97 Z M 794.59,448.00 L 792.89,448.67 L 792.48,446.31 L 794.59,448.00 Z M 612.25,418.76 L 611.44,418.46 L 612.00,418.00 L 612.25,418.76 Z M 611.75,417.59 L 611.86,417.71 L 611.67,417.95 L 610.62,418.09 L 609.83,417.13 L 611.75,417.59 Z M 615.37,416.75 L 613.23,415.41 L 614.43,415.90 L 615.43,415.48 L 615.37,416.75 Z M 787.58,498.96 L 786.69,497.49 L 790.38,496.22 L 792.73,497.57 L 792.05,498.48 L 794.61,499.06 L 792.60,496.22 L 796.34,495.81 L 798.52,496.78 L 800.00,498.86 L 800.00,500.00 L 785.18,500.00 L 787.58,498.96 Z M 773.84,484.61 L 772.34,486.24 L 770.78,485.82 L 769.68,486.76 L 768.45,483.93 L 771.62,483.18 L 773.84,484.61 Z M 759.42,483.34 L 754.37,483.56 L 756.02,482.00 L 759.42,483.34 Z M 780.90,482.63 L 779.59,483.18 L 776.17,481.90 L 772.85,482.52 L 771.04,481.66 L 773.25,479.24 L 776.70,481.62 L 778.11,481.09 L 780.90,482.63 Z M 771.74,479.32 L 770.63,478.57 L 770.67,477.66 L 771.74,479.32 Z M 775.61,479.22 L 771.98,476.93 L 772.97,477.13 L 775.61,479.22 Z M 770.52,476.40 L 769.39,475.60 L 769.72,475.56 L 770.52,476.40 Z M 768.22,472.23 L 768.33,472.77 L 768.15,472.69 L 767.28,471.87 L 768.22,472.23 Z M 767.10,471.68 L 766.94,471.09 L 768.26,470.91 L 768.45,471.87 L 767.10,471.68 Z M 766.61,470.89 L 765.28,469.26 L 766.53,469.97 L 767.46,470.01 L 766.61,470.89 Z M 658.76,472.81 L 655.85,473.35 L 654.30,470.62 L 650.57,469.30 L 648.03,465.80 L 644.89,464.19 L 650.93,463.06 L 659.69,468.74 L 658.76,472.81 Z M 674.70,477.82 L 675.49,478.38 L 670.13,478.59 L 670.28,477.84 L 674.70,477.82 Z M 776.49,471.56 L 776.24,471.79 L 775.92,471.55 L 776.49,471.56 Z M 774.90,470.66 L 774.37,470.80 L 774.52,470.35 L 774.90,470.66 Z" fill="#E8E0D0" stroke="#B8B0A0" stroke-width="0.5"/>
<path d="M 735.15,412.43 L 738.27,415.75 L 746.95,419.95 L 754.14,427.33 L 754.97,432.76 L 752.27,438.72 L 754.73,441.40 L 754.02,447.81 L 757.40,450.53 L 759.57,450.78 L 762.71,454.14 L 767.95,461.77 L 768.33,464.71 L 765.40,464.62 L 764.60,463.43 L 766.11,462.77 L 764.50,463.20 L 763.00,461.66 L 763.75,463.83 L 758.41,463.80 L 755.85,464.55 L 755.31,465.76 L 752.76,462.85 L 741.33,459.36 L 738.68,457.21 L 732.00,455.27 L 729.17,453.54 L 727.06,453.54 L 725.50,451.46 L 717.15,448.60 L 718.63,446.94 L 717.34,443.98 L 712.94,440.20 L 709.04,438.41 L 709.60,437.71 L 707.28,437.36 L 707.22,436.27 L 710.05,435.89 L 705.96,434.40 L 704.81,432.62 L 706.18,430.01 L 705.31,429.45 L 706.54,428.81 L 705.48,428.86 L 705.70,427.47 L 701.38,424.31 L 702.55,422.93 L 701.57,416.41 L 701.11,414.22 L 697.49,410.22 L 697.99,406.80 L 699.83,406.79 L 701.77,408.68 L 705.93,409.52 L 707.63,408.99 L 709.39,411.78 L 713.65,411.67 L 713.60,415.03 L 711.66,416.61 L 714.34,418.38 L 716.51,416.67 L 721.80,415.32 L 723.65,416.90 L 725.95,417.18 L 730.39,413.32 L 730.61,411.55 L 735.15,412.43 Z M 767.19,450.06 L 765.82,449.73 L 766.51,448.15 L 767.19,450.06 Z M 700.08,422.37 L 698.29,422.30 L 698.21,420.24 L 700.44,420.32 L 700.08,422.37 Z M 691.72,411.39 L 692.35,411.16 L 691.81,412.49 L 691.72,411.39 Z M 690.50,411.51 L 689.07,409.62 L 692.43,409.25 L 693.44,410.39 L 690.50,411.51 Z M 716.69,446.63 L 716.31,446.58 L 716.75,446.35 L 716.69,446.63 Z M 717.99,446.86 L 716.84,447.34 L 717.48,446.27 L 717.99,446.86 Z" fill="#E8E0D0" stroke="#B8B0A0" stroke-width="0.5"/>
<path d="M 2.36,234.34 L 7.65,234.91 L 7.43,237.86 L 0.00,245.86 L 0.00,232.38 L 2.36,234.34 Z" fill="#E8E0D0" stroke="#B8B0A0" stroke-width="0.5"/>
<path d="M 211.84,45.84 L 210.27,45.44 L 210.55,45.28 L 212.32,44.90 L 211.84,45.84 Z M 192.42,42.62 L 190.74,41.05 L 188.13,40.82 L 188.10,39.62 L 194.90,36.77 L 192.68,36.41 L 193.84,36.01 L 189.40,33.64 L 187.99,33.56 L 186.57,35.25 L 176.48,37.94 L 173.37,36.37 L 170.73,36.30 L 169.95,38.31 L 168.05,38.63 L 170.01,41.06 L 168.22,41.54 L 169.54,42.67 L 157.49,43.00 L 164.44,43.79 L 160.80,43.92 L 162.62,46.11 L 160.53,45.00 L 161.02,46.07 L 160.24,46.75 L 158.26,46.42 L 156.40,49.70 L 142.71,48.88 L 137.75,50.48 L 136.42,53.27 L 141.86,54.22 L 142.25,55.77 L 149.27,55.88 L 150.50,57.34 L 148.69,57.96 L 148.49,60.70 L 153.64,64.22 L 151.80,67.08 L 149.64,67.52 L 144.62,71.66 L 143.79,75.34 L 139.04,74.33 L 134.87,75.38 L 130.54,73.22 L 122.21,73.44 L 122.20,68.89 L 124.01,66.59 L 111.21,63.56 L 106.55,63.95 L 84.87,55.97 L 81.67,56.21 L 74.12,53.58 L 70.16,51.28 L 52.62,44.69 L 50.92,40.11 L 47.17,38.51 L 42.78,32.56 L 35.17,30.65 L 32.57,32.21 L 25.37,31.17 L 18.83,31.61 L 12.26,29.68 L 11.88,28.33 L 13.47,27.56 L 11.49,25.73 L 14.97,25.44 L 9.05,23.41 L 10.60,22.93 L 11.13,20.88 L 8.36,19.74 L 0.00,19.36 L 0.00,0.00 L 31.55,0.00 L 45.32,6.95 L 65.54,5.36 L 86.40,6.23 L 94.89,4.36 L 105.05,8.95 L 109.82,13.51 L 115.05,12.28 L 113.47,23.02 L 121.95,23.12 L 125.86,32.20 L 146.48,31.74 L 148.13,33.45 L 149.79,33.59 L 147.39,35.97 L 155.45,38.43 L 158.06,38.17 L 157.32,34.86 L 165.19,31.65 L 165.28,29.85 L 171.54,28.76 L 171.40,27.99 L 175.35,26.65 L 180.27,26.17 L 187.90,22.37 L 189.82,22.05 L 191.68,22.87 L 194.34,20.90 L 199.67,19.88 L 202.96,21.31 L 196.24,22.72 L 195.70,23.92 L 192.88,24.27 L 184.62,28.26 L 189.53,29.51 L 193.20,28.79 L 194.95,31.32 L 201.97,32.74 L 202.41,31.87 L 203.61,32.69 L 206.00,32.53 L 206.05,30.14 L 208.90,30.40 L 209.07,28.55 L 210.37,27.97 L 210.38,29.29 L 211.64,29.00 L 213.38,30.20 L 213.80,31.80 L 218.71,31.88 L 218.82,33.92 L 221.68,33.13 L 227.26,35.36 L 235.56,35.72 L 229.41,37.51 L 226.70,39.24 L 222.02,38.24 L 222.74,40.55 L 218.83,39.85 L 215.25,41.36 L 216.32,42.18 L 213.20,42.08 L 210.98,43.22 L 209.63,41.97 L 207.80,42.57 L 203.23,41.26 L 192.42,42.62 Z M 191.38,33.98 L 192.81,34.62 L 192.32,33.99 L 191.38,33.98 Z M 203.06,44.28 L 201.87,44.85 L 202.45,46.00 L 199.26,46.08 L 199.67,44.87 L 198.10,43.75 L 199.03,43.07 L 203.06,44.28 Z" fill="#E8E0D0" stroke="#B8B0A0" stroke-width="0.5"/>
<path d="M 365.09,7.19 L 363.89,8.63 L 366.47,10.55 L 359.19,11.87 L 362.28,13.50 L 356.79,14.45 L 355.29,16.28 L 357.16,20.82 L 351.49,18.43 L 343.06,17.94 L 338.32,14.45 L 307.17,13.29 L 300.82,12.30 L 291.53,13.42 L 280.97,12.87 L 277.95,14.29 L 270.39,13.81 L 253.28,9.33 L 253.88,9.98 L 249.63,9.82 L 248.54,10.75 L 242.88,11.83 L 240.17,16.23 L 241.75,18.67 L 213.39,13.98 L 203.08,14.93 L 201.33,16.50 L 198.94,16.92 L 199.98,17.94 L 198.23,17.96 L 196.36,19.72 L 197.99,20.35 L 194.34,20.90 L 192.21,22.75 L 187.90,22.37 L 180.27,26.17 L 175.35,26.65 L 171.40,27.99 L 171.54,28.76 L 165.28,29.85 L 165.19,31.65 L 157.32,34.86 L 158.06,38.17 L 155.45,38.43 L 147.39,35.97 L 149.79,33.59 L 148.13,33.45 L 146.48,31.74 L 125.86,32.20 L 121.95,23.12 L 113.47,23.02 L 115.05,12.28 L 109.82,13.51 L 105.05,8.95 L 94.89,4.36 L 86.40,6.23 L 65.54,5.36 L 45.32,6.95 L 31.55,0.00 L 358.70,0.00 L 365.09,7.19 Z" fill="#E8E0D0" stroke="#B8B0A0" stroke-width="0.5"/>
<path d="M 192.32,33.99 L 192.81,34.62 L 191.38,33.98 L 192.32,33.99 Z M 193.17,43.65 L 189.94,45.86 L 190.76,44.42 L 181.85,42.52 L 173.52,43.43 L 173.24,45.63 L 171.59,45.92 L 170.03,44.93 L 168.78,46.65 L 169.56,49.79 L 181.41,49.85 L 185.20,48.92 L 185.59,50.01 L 189.94,49.12 L 192.42,49.53 L 194.95,51.50 L 198.49,51.36 L 200.52,50.09 L 206.75,49.00 L 207.66,50.67 L 211.55,50.78 L 211.74,52.68 L 216.85,51.65 L 219.91,53.60 L 221.41,52.08 L 224.88,51.57 L 235.98,51.79 L 243.45,50.66 L 243.51,53.40 L 247.24,55.91 L 244.76,57.04 L 247.08,60.15 L 250.71,60.80 L 252.33,59.25 L 255.94,59.28 L 264.47,61.49 L 263.75,65.64 L 266.74,69.05 L 265.48,70.88 L 270.14,73.04 L 265.49,74.88 L 261.52,73.11 L 255.62,72.76 L 245.24,75.04 L 243.33,74.55 L 245.75,73.72 L 246.00,72.74 L 238.18,72.34 L 229.53,75.00 L 227.25,77.08 L 220.44,77.75 L 213.20,80.67 L 210.06,80.80 L 206.26,76.67 L 209.11,67.63 L 203.30,67.33 L 205.01,63.79 L 198.04,61.38 L 193.15,62.12 L 189.82,65.22 L 186.25,67.19 L 184.72,67.11 L 186.61,69.73 L 184.47,71.51 L 180.38,70.69 L 173.36,71.10 L 171.13,72.64 L 172.22,74.96 L 170.20,76.08 L 168.86,76.27 L 162.74,73.72 L 163.22,74.36 L 161.85,73.82 L 161.58,74.67 L 158.99,74.37 L 148.11,78.21 L 143.87,76.35 L 144.62,71.66 L 149.64,67.52 L 151.80,67.08 L 153.64,64.22 L 148.49,60.70 L 148.69,57.96 L 150.50,57.34 L 149.27,55.88 L 142.25,55.77 L 141.86,54.22 L 136.42,53.27 L 138.78,49.81 L 142.71,48.88 L 156.40,49.70 L 158.26,46.42 L 160.24,46.75 L 161.02,46.07 L 160.53,45.00 L 162.62,46.11 L 160.80,43.92 L 164.44,43.79 L 157.49,43.00 L 169.54,42.67 L 168.22,41.54 L 170.01,41.06 L 168.05,38.63 L 169.95,38.31 L 170.73,36.30 L 173.37,36.37 L 176.94,37.87 L 186.57,35.25 L 187.99,33.56 L 194.90,36.77 L 188.10,39.62 L 188.13,40.82 L 190.74,41.05 L 192.42,42.62 L 198.18,42.20 L 193.17,43.65 Z M 193.73,46.33 L 193.83,46.72 L 191.72,47.32 L 190.30,46.07 L 193.73,46.33 Z" fill="#E8E0D0" stroke="#B8B0A0" stroke-width="0.5"/>
<path d="M 784.14,25.84 L 780.25,27.55 L 772.23,26.78 L 772.16,24.45 L 758.31,25.66 L 747.73,23.00 L 729.95,21.04 L 724.83,18.03 L 721.23,17.21 L 695.43,15.69 L 686.14,16.91 L 647.11,14.49 L 632.81,15.17 L 632.14,13.16 L 624.54,9.49 L 618.74,1.77 L 615.03,1.12 L 615.56,0.00 L 800.00,0.00 L 800.00,22.34 L 784.14,25.84 Z" fill="#E8E0D0" stroke="#B8B0A0" stroke-width="0.5"/>
<path d="M 793.07,287.47 L 788.69,281.95 L 786.95,282.28 L 783.54,280.58 L 782.07,278.98 L 783.60,277.24 L 782.63,276.33 L 775.74,275.27 L 766.11,271.06 L 760.99,269.79 L 765.13,267.79 L 763.60,265.65 L 767.50,265.37 L 774.10,266.45 L 777.36,264.45 L 776.95,263.18 L 779.83,262.23 L 779.12,260.27 L 774.83,259.87 L 775.24,258.47 L 769.74,257.40 L 774.11,255.15 L 765.17,251.73 L 759.91,252.98 L 758.05,255.04 L 754.01,253.31 L 748.45,252.74 L 743.07,248.54 L 746.03,245.06 L 745.58,243.30 L 743.86,243.65 L 743.17,242.22 L 742.23,243.91 L 740.50,244.16 L 739.48,241.51 L 731.39,236.12 L 733.09,235.98 L 736.94,232.12 L 746.97,235.76 L 751.77,231.88 L 755.09,234.12 L 757.54,231.75 L 762.89,234.93 L 765.07,231.84 L 767.71,231.48 L 767.64,232.37 L 769.41,232.98 L 773.06,231.35 L 775.58,231.55 L 777.68,230.39 L 777.24,228.64 L 778.48,227.79 L 784.14,226.81 L 786.04,225.59 L 790.14,228.92 L 795.31,230.61 L 800.00,229.85 L 800.00,262.47 L 799.64,262.56 L 799.64,261.82 L 797.05,262.99 L 794.23,266.49 L 794.54,270.00 L 791.19,273.21 L 793.55,276.71 L 793.78,275.67 L 799.41,281.11 L 800.00,281.22 L 800.00,291.43 L 793.07,287.47 Z M 799.75,368.33 L 800.00,368.50 L 800.00,373.52 L 794.71,370.79 L 800.00,374.93 L 800.00,377.99 L 789.92,380.34 L 782.44,385.72 L 776.05,386.10 L 780.07,384.80 L 778.19,384.87 L 779.36,383.82 L 776.84,383.72 L 778.24,373.72 L 778.86,372.49 L 781.64,371.60 L 782.64,372.43 L 782.53,371.39 L 776.80,368.41 L 774.08,369.30 L 772.57,366.32 L 771.62,366.76 L 771.31,366.31 L 773.29,365.14 L 778.21,365.10 L 781.84,363.12 L 780.89,361.27 L 782.03,360.58 L 786.14,361.76 L 787.72,360.41 L 793.58,359.84 L 795.74,361.87 L 796.64,361.13 L 800.00,362.26 L 800.00,368.36 L 799.75,368.33 Z M 795.15,356.85 L 794.47,353.21 L 796.68,353.02 L 798.08,351.63 L 800.00,351.95 L 800.00,359.16 L 795.15,356.85 Z M 800.00,373.90 L 800.00,374.47 L 799.97,374.44 L 799.41,373.47 L 800.00,373.90 Z M 764.16,369.83 L 764.46,370.79 L 760.95,366.84 L 763.67,365.97 L 764.99,366.84 L 764.16,369.83 Z" fill="#E8E0D0" stroke="#B8B0A0" stroke-width="0.5"/>
<path d="M 798.08,351.63 L 796.68,353.02 L 794.47,353.21 L 795.15,356.85 L 800.00,359.16 L 800.00,362.26 L 796.64,361.13 L 795.74,361.87 L 793.58,359.84 L 787.72,360.41 L 786.14,361.76 L 782.03,360.58 L 780.89,361.27 L 781.43,363.37 L 778.21,365.10 L 773.29,365.14 L 771.62,366.36 L 767.86,364.68 L 762.66,364.48 L 761.30,363.27 L 760.52,364.96 L 757.15,365.43 L 755.06,364.17 L 756.18,362.98 L 758.26,362.82 L 758.84,361.15 L 758.02,359.31 L 755.59,358.24 L 754.49,358.36 L 753.36,361.26 L 748.64,361.30 L 747.46,357.61 L 749.08,356.55 L 747.58,355.14 L 749.46,355.37 L 747.11,353.43 L 746.99,354.10 L 745.70,353.95 L 747.22,353.21 L 745.94,353.07 L 746.24,352.37 L 747.62,352.31 L 747.93,352.09 L 746.17,352.24 L 744.64,350.98 L 745.94,352.24 L 745.70,353.81 L 741.34,347.63 L 742.40,344.40 L 737.69,341.95 L 737.75,338.31 L 734.98,335.28 L 734.73,332.39 L 739.59,331.69 L 738.64,330.99 L 741.32,329.99 L 745.35,325.21 L 757.38,322.58 L 761.62,323.70 L 766.62,323.00 L 772.88,323.48 L 776.79,322.62 L 780.25,323.26 L 781.51,325.07 L 783.85,323.64 L 786.48,326.20 L 789.82,325.61 L 793.43,326.45 L 796.09,328.24 L 798.99,328.30 L 800.00,327.21 L 800.00,351.95 L 798.08,351.63 Z M 797.37,323.42 L 800.00,323.39 L 800.00,326.40 L 797.37,323.42 Z M 760.27,365.61 L 760.07,365.95 L 759.20,365.65 L 760.27,365.61 Z M 751.22,363.56 L 749.87,362.59 L 750.67,362.42 L 751.22,363.56 Z M 747.22,357.03 L 746.60,357.23 L 746.29,355.37 L 747.22,357.03 Z M 747.34,354.92 L 746.99,355.37 L 746.40,354.42 L 747.34,354.92 Z M 752.01,364.95 L 751.42,364.22 L 751.94,364.17 L 752.01,364.95 Z" fill="#E8E0D0" stroke="#B8B0A0" stroke-width="0.5"/>
<path d="M 739.48,241.51 L 740.50,244.16 L 742.23,243.91 L 743.17,242.22 L 743.86,243.65 L 745.58,243.30 L 746.03,245.06 L 743.07,248.54 L 748.70,252.89 L 754.01,253.31 L 758.05,255.04 L 759.91,252.98 L 765.17,251.73 L 774.11,255.15 L 769.74,257.40 L 775.24,258.47 L 774.83,259.87 L 779.12,260.27 L 779.83,262.23 L 776.95,263.18 L 777.36,264.45 L 774.10,266.45 L 767.50,265.37 L 763.60,265.65 L 765.13,267.79 L 760.99,269.79 L 766.11,271.06 L 775.74,275.27 L 782.63,276.33 L 783.60,277.24 L 782.07,278.98 L 783.54,280.58 L 786.95,282.28 L 788.69,281.95 L 793.07,287.47 L 800.00,291.43 L 800.00,323.41 L 797.29,323.54 L 800.00,326.42 L 800.00,327.21 L 798.99,328.30 L 796.09,328.24 L 793.43,326.45 L 789.82,325.61 L 786.93,326.27 L 785.10,325.41 L 783.85,323.64 L 787.82,322.74 L 789.38,321.27 L 789.07,318.85 L 790.85,316.63 L 788.29,315.07 L 790.35,313.56 L 788.87,312.69 L 791.04,311.75 L 791.67,309.11 L 787.75,307.83 L 786.87,306.53 L 787.92,305.55 L 781.69,304.34 L 780.96,302.65 L 776.68,300.10 L 776.26,294.76 L 777.56,290.74 L 771.32,287.55 L 763.17,280.32 L 761.43,280.84 L 751.73,279.29 L 750.48,280.05 L 751.53,280.79 L 749.35,281.20 L 747.12,284.02 L 743.95,284.22 L 741.05,285.98 L 739.55,285.65 L 739.62,284.41 L 730.71,281.59 L 727.72,283.51 L 725.78,283.12 L 724.73,284.87 L 718.89,286.86 L 714.51,289.77 L 710.30,288.55 L 712.26,285.17 L 715.08,283.34 L 714.91,280.41 L 712.77,279.27 L 716.27,276.76 L 716.10,274.41 L 717.84,272.83 L 715.20,268.96 L 716.61,267.10 L 710.19,266.38 L 708.02,267.80 L 703.25,267.34 L 701.63,264.94 L 704.49,260.35 L 701.03,257.94 L 699.25,258.13 L 697.75,259.58 L 696.85,258.24 L 699.84,253.90 L 706.30,252.65 L 704.00,252.33 L 707.55,247.92 L 709.71,247.89 L 714.97,245.30 L 716.69,249.36 L 721.11,248.67 L 725.37,249.67 L 726.35,248.76 L 724.50,247.63 L 726.01,244.51 L 721.08,237.77 L 724.45,235.10 L 726.67,236.27 L 729.28,235.58 L 739.48,241.51 Z" fill="#E8E0D0" stroke="#B8B0A0" stroke-width="0.5"/>
<path d="M 356.85,22.68 L 350.20,23.03 L 348.57,24.35 L 340.61,25.40 L 324.83,29.81 L 324.65,30.98 L 319.95,33.49 L 299.18,33.77 L 295.53,36.47 L 295.07,38.14 L 290.09,41.00 L 288.62,39.99 L 279.00,41.62 L 276.91,37.91 L 270.65,39.99 L 264.51,39.23 L 263.69,40.21 L 264.97,41.24 L 262.30,41.19 L 255.93,43.77 L 249.64,44.43 L 247.19,46.90 L 248.97,49.21 L 247.15,50.57 L 241.27,50.60 L 235.98,51.79 L 224.88,51.57 L 221.41,52.08 L 219.91,53.60 L 216.85,51.65 L 211.74,52.68 L 211.55,50.78 L 207.66,50.67 L 206.75,49.00 L 200.52,50.09 L 198.49,51.36 L 194.95,51.50 L 192.42,49.53 L 189.94,49.12 L 185.59,50.01 L 185.20,48.92 L 184.04,49.68 L 169.80,50.05 L 168.53,47.49 L 169.97,44.95 L 171.59,45.92 L 173.24,45.63 L 173.52,43.43 L 181.85,42.52 L 190.76,44.42 L 189.94,45.86 L 193.17,43.65 L 197.67,42.93 L 198.80,41.89 L 203.23,41.26 L 207.80,42.57 L 209.63,41.97 L 210.98,43.22 L 213.20,42.08 L 216.32,42.18 L 215.25,41.36 L 218.83,39.85 L 222.74,40.55 L 222.02,38.24 L 226.70,39.24 L 229.41,37.51 L 235.65,35.94 L 227.26,35.36 L 221.68,33.13 L 218.82,33.92 L 218.71,31.88 L 213.80,31.80 L 213.38,30.20 L 211.64,29.00 L 210.38,29.29 L 210.37,27.97 L 209.07,28.55 L 208.90,30.40 L 206.05,30.14 L 206.00,32.53 L 203.61,32.69 L 202.41,31.87 L 201.97,32.74 L 194.95,31.32 L 193.20,28.79 L 189.53,29.51 L 184.62,28.26 L 192.88,24.27 L 195.70,23.92 L 196.24,22.72 L 202.96,21.31 L 200.21,19.99 L 196.36,19.72 L 198.23,17.96 L 199.98,17.94 L 198.94,16.92 L 205.81,14.41 L 208.57,14.82 L 213.39,13.98 L 221.00,14.78 L 241.75,18.67 L 240.17,16.23 L 242.88,11.83 L 248.54,10.75 L 249.63,9.82 L 253.88,9.98 L 253.28,9.33 L 270.39,13.81 L 277.95,14.29 L 280.97,12.87 L 291.53,13.42 L 300.82,12.30 L 307.17,13.29 L 338.32,14.45 L 343.06,17.94 L 351.49,18.43 L 356.49,20.99 L 356.85,22.68 Z M 210.55,45.28 L 210.27,45.44 L 211.84,45.84 L 212.32,44.90 L 210.55,45.28 Z M 199.03,43.07 L 198.10,43.75 L 199.67,44.87 L 199.26,46.08 L 202.45,46.00 L 201.87,44.85 L 203.06,44.28 L 199.03,43.07 Z M 191.72,47.32 L 193.83,46.72 L 193.73,46.33 L 190.30,46.07 L 191.72,47.32 Z" fill="#E8E0D0" stroke="#B8B0A0" stroke-width="0.5"/>
<path d="M 1.44,75.14 L 10.98,77.12 L 16.51,81.34 L 30.60,81.35 L 30.27,84.38 L 31.61,86.92 L 29.98,88.59 L 31.89,89.42 L 32.72,93.18 L 30.96,95.87 L 29.61,96.11 L 30.28,98.03 L 28.88,101.15 L 26.86,103.07 L 22.62,104.39 L 25.89,106.54 L 21.66,106.67 L 19.08,108.49 L 19.41,113.94 L 26.41,115.29 L 20.36,119.23 L 20.28,120.24 L 24.86,129.04 L 23.91,131.45 L 24.71,137.24 L 39.51,138.56 L 41.90,142.45 L 41.49,144.28 L 25.10,155.02 L 33.53,160.28 L 37.45,165.76 L 43.04,169.32 L 51.08,170.67 L 54.72,172.73 L 57.90,172.54 L 58.81,180.71 L 57.58,183.19 L 60.14,183.77 L 65.02,183.28 L 67.45,184.82 L 65.94,185.38 L 66.52,187.29 L 65.10,187.94 L 64.79,189.95 L 52.03,190.85 L 49.87,191.51 L 49.41,193.04 L 46.99,192.90 L 42.01,194.51 L 40.67,198.92 L 39.06,199.47 L 38.37,204.73 L 34.81,207.19 L 21.49,204.84 L 20.05,202.97 L 17.41,203.72 L 18.64,204.68 L 15.60,203.73 L 9.00,204.25 L 1.30,202.81 L 0.00,202.94 L 0.00,73.17 L 1.44,75.14 Z" fill="#E8E0D0" stroke="#B8B0A0" stroke-width="0.5"/>
<path d="M 739.73,346.73 L 739.33,348.60 L 734.43,347.07 L 733.87,345.99 L 735.12,345.79 L 735.39,345.14 L 734.35,345.68 L 734.57,344.49 L 732.88,344.40 L 733.27,345.62 L 730.47,342.93 L 729.52,343.00 L 730.34,344.05 L 725.36,341.46 L 719.41,342.66 L 713.75,341.74 L 711.81,342.64 L 709.82,342.04 L 711.11,338.24 L 710.17,337.20 L 712.18,332.87 L 706.77,332.73 L 705.37,331.61 L 704.99,332.62 L 699.84,332.65 L 694.50,334.90 L 696.92,337.64 L 694.46,341.88 L 695.48,347.04 L 689.01,354.32 L 688.06,357.88 L 686.52,358.56 L 686.78,361.46 L 685.61,361.42 L 682.14,365.20 L 682.90,366.91 L 680.62,366.99 L 682.38,368.33 L 680.62,369.75 L 680.50,373.18 L 683.56,377.49 L 682.06,378.09 L 682.39,379.22 L 686.15,379.56 L 687.19,378.68 L 691.77,378.24 L 693.19,379.21 L 694.58,386.03 L 697.61,388.39 L 697.38,387.02 L 698.91,387.74 L 702.67,398.30 L 704.97,401.21 L 702.42,400.58 L 702.09,397.75 L 699.80,397.71 L 700.62,395.79 L 698.74,395.00 L 697.62,395.66 L 698.20,397.71 L 702.40,401.62 L 704.65,401.91 L 705.16,401.05 L 708.23,403.67 L 712.21,405.04 L 718.26,404.83 L 717.24,403.98 L 721.79,405.20 L 725.45,408.91 L 730.61,411.55 L 730.39,413.32 L 725.95,417.18 L 723.65,416.90 L 721.80,415.32 L 716.51,416.67 L 714.34,418.38 L 711.66,416.61 L 713.60,415.03 L 713.65,411.67 L 709.39,411.78 L 707.63,408.99 L 705.93,409.52 L 701.77,408.68 L 699.64,406.75 L 697.99,406.80 L 697.32,409.55 L 689.76,404.82 L 690.83,402.11 L 687.57,401.34 L 688.35,399.40 L 687.43,400.20 L 686.72,399.30 L 686.08,400.44 L 684.50,400.00 L 683.03,396.74 L 680.26,395.14 L 679.59,395.96 L 678.59,395.63 L 679.22,393.43 L 676.62,392.06 L 674.09,392.36 L 672.95,389.37 L 671.59,389.56 L 672.13,388.49 L 668.24,389.17 L 668.19,391.00 L 665.82,390.22 L 664.33,386.81 L 665.24,386.80 L 665.39,383.37 L 667.61,381.36 L 666.61,381.46 L 667.45,380.96 L 666.43,379.47 L 668.74,375.78 L 670.00,375.59 L 668.84,375.17 L 670.89,372.58 L 669.69,372.65 L 671.71,371.39 L 673.24,368.40 L 673.86,363.64 L 681.67,358.83 L 685.72,353.33 L 687.31,353.04 L 688.81,351.14 L 686.90,348.85 L 687.29,347.61 L 685.76,347.73 L 684.93,342.88 L 681.87,341.34 L 679.62,337.85 L 679.77,336.40 L 681.28,335.77 L 679.57,328.81 L 676.92,326.47 L 670.29,323.29 L 665.08,318.65 L 663.66,315.37 L 665.76,313.38 L 667.51,313.74 L 667.82,312.61 L 670.49,312.67 L 670.27,305.14 L 674.73,304.46 L 676.36,301.51 L 675.28,300.52 L 672.26,302.54 L 668.73,297.80 L 669.63,295.95 L 656.79,287.27 L 655.37,285.76 L 656.70,284.26 L 654.71,280.59 L 652.13,280.74 L 649.81,277.93 L 652.52,278.58 L 656.56,277.71 L 655.06,273.86 L 657.68,271.83 L 656.93,268.73 L 658.32,266.88 L 661.06,266.10 L 661.33,264.32 L 664.98,265.82 L 670.03,265.70 L 674.74,264.28 L 676.30,264.91 L 678.04,264.12 L 679.28,261.08 L 683.09,261.50 L 686.76,260.51 L 685.22,258.10 L 689.18,258.84 L 694.06,257.34 L 697.75,259.58 L 699.25,258.13 L 701.03,257.94 L 704.53,260.46 L 701.63,264.94 L 703.25,267.34 L 708.02,267.80 L 710.19,266.38 L 716.61,267.10 L 715.20,268.96 L 717.84,272.83 L 716.10,274.41 L 716.27,276.76 L 712.77,279.27 L 714.91,280.41 L 715.08,283.34 L 712.26,285.17 L 710.57,288.68 L 714.51,289.77 L 718.89,286.86 L 724.73,284.87 L 725.78,283.12 L 727.72,283.51 L 730.71,281.59 L 739.62,284.41 L 739.55,285.65 L 741.05,285.98 L 743.95,284.22 L 747.12,284.02 L 749.35,281.20 L 751.53,280.79 L 750.65,279.79 L 753.26,279.12 L 761.15,280.80 L 763.59,280.46 L 771.32,287.55 L 777.15,290.18 L 776.50,299.91 L 780.96,302.65 L 781.69,304.34 L 787.92,305.55 L 786.87,306.53 L 787.75,307.83 L 791.67,309.11 L 791.04,311.75 L 788.87,312.69 L 790.35,313.56 L 788.29,315.07 L 790.85,316.63 L 789.07,318.85 L 789.38,321.27 L 787.82,322.74 L 781.51,325.07 L 780.25,323.26 L 776.79,322.62 L 772.88,323.48 L 766.62,323.00 L 761.62,323.70 L 757.38,322.58 L 748.84,323.92 L 745.08,325.38 L 741.32,329.99 L 738.64,330.99 L 739.59,331.69 L 735.05,332.13 L 734.98,335.28 L 737.75,338.31 L 737.56,341.78 L 742.40,344.40 L 741.21,347.20 L 745.00,352.99 L 739.73,346.73 Z M 658.18,377.35 L 658.24,377.13 L 658.66,377.18 L 658.18,377.35 Z M 690.06,376.08 L 689.46,376.10 L 689.98,375.85 L 690.06,376.08 Z M 689.67,375.09 L 689.63,375.11 L 689.58,374.96 L 689.67,375.09 Z M 681.74,408.52 L 680.74,408.33 L 681.56,408.11 L 681.74,408.52 Z M 688.30,408.01 L 689.27,406.49 L 690.08,408.29 L 688.30,408.01 Z M 685.79,400.89 L 684.58,401.37 L 684.49,400.74 L 685.79,400.89 Z M 679.32,396.87 L 679.74,398.41 L 678.56,397.38 L 678.62,396.48 L 679.32,396.87 Z M 679.89,397.03 L 678.79,396.27 L 679.17,396.15 L 679.89,397.03 Z M 671.22,391.92 L 671.24,393.66 L 669.96,391.27 L 671.22,391.92 Z M 665.91,395.03 L 665.73,390.53 L 668.43,391.72 L 668.08,393.66 L 665.91,395.03 Z M 671.54,391.64 L 670.83,391.46 L 671.59,390.53 L 671.54,391.64 Z M 666.44,380.92 L 665.26,381.34 L 665.16,380.11 L 666.44,380.92 Z M 696.18,376.70 L 694.22,377.20 L 693.88,375.59 L 696.34,375.37 L 696.18,376.70 Z M 668.04,373.77 L 667.73,374.07 L 667.50,373.83 L 668.04,373.77 Z M 696.29,373.31 L 696.68,374.51 L 694.93,373.92 L 696.29,373.31 Z M 739.73,352.57 L 739.60,353.88 L 738.43,353.43 L 738.86,351.75 L 739.73,352.57 Z M 736.91,349.49 L 734.33,349.41 L 733.63,347.47 L 736.91,349.49 Z M 658.40,376.73 L 659.12,376.67 L 659.11,376.98 L 658.40,376.73 Z M 666.17,382.20 L 665.39,383.06 L 665.23,381.78 L 666.17,382.20 Z" fill="#E8E0D0" stroke="#B8B0A0" stroke-width="0.5"/>
<path d="M 259.42,77.81 L 256.96,77.46 L 250.82,79.40 L 246.33,78.57 L 236.39,78.73 L 219.65,80.37 L 212.11,83.05 L 212.28,83.96 L 209.33,83.29 L 208.44,84.70 L 202.70,86.90 L 201.81,87.97 L 204.98,88.99 L 207.70,91.51 L 207.31,92.51 L 209.04,93.16 L 209.51,94.68 L 207.95,95.86 L 209.80,97.07 L 206.92,99.68 L 200.26,102.69 L 200.01,103.93 L 198.15,104.22 L 200.97,106.13 L 199.95,109.41 L 190.70,110.67 L 179.59,109.82 L 179.16,110.80 L 181.04,112.69 L 183.79,113.09 L 184.42,115.37 L 186.81,117.41 L 181.68,119.49 L 173.00,120.57 L 172.83,122.43 L 171.10,123.35 L 171.95,124.62 L 168.64,126.71 L 169.77,132.42 L 165.34,135.30 L 161.30,136.06 L 159.11,134.19 L 154.71,134.10 L 156.95,134.42 L 156.07,134.73 L 149.92,133.65 L 146.97,135.68 L 140.17,136.85 L 140.90,138.15 L 143.62,138.32 L 143.52,138.98 L 136.36,140.36 L 131.04,140.05 L 129.46,139.19 L 125.25,140.48 L 122.73,142.86 L 119.59,143.45 L 117.91,146.95 L 118.55,150.82 L 117.07,152.85 L 119.15,153.96 L 116.67,155.27 L 96.83,158.48 L 87.27,158.15 L 82.05,159.09 L 80.57,160.15 L 71.71,158.95 L 53.04,159.92 L 25.10,155.02 L 41.49,144.28 L 41.90,142.45 L 39.51,138.56 L 24.71,137.24 L 23.91,131.45 L 24.86,129.04 L 20.28,120.24 L 20.36,119.23 L 26.41,115.29 L 19.41,113.94 L 19.08,108.49 L 21.66,106.67 L 25.89,106.54 L 22.62,104.39 L 26.86,103.07 L 28.88,101.15 L 30.28,98.03 L 29.51,96.35 L 30.96,95.87 L 32.38,92.41 L 38.11,94.45 L 45.00,94.36 L 48.87,95.94 L 49.77,97.61 L 52.26,96.08 L 56.74,96.43 L 63.36,94.38 L 63.30,92.34 L 65.65,91.53 L 63.77,89.83 L 69.35,89.67 L 77.21,87.94 L 79.87,88.28 L 80.08,87.12 L 87.27,85.31 L 92.42,78.06 L 92.42,76.11 L 97.29,74.86 L 105.40,74.60 L 109.24,71.11 L 118.36,73.80 L 130.54,73.22 L 134.87,75.38 L 139.04,74.33 L 143.21,74.90 L 143.66,76.20 L 147.89,78.20 L 158.99,74.37 L 161.58,74.67 L 161.85,73.82 L 163.22,74.36 L 162.74,73.72 L 170.00,76.12 L 172.22,74.96 L 171.13,72.64 L 173.36,71.10 L 180.38,70.69 L 184.47,71.51 L 186.61,69.73 L 184.72,67.11 L 186.25,67.19 L 189.82,65.22 L 193.15,62.12 L 198.04,61.38 L 205.01,63.79 L 203.30,67.33 L 209.11,67.63 L 206.26,76.67 L 210.06,80.80 L 213.20,80.67 L 220.44,77.75 L 227.25,77.08 L 229.53,75.00 L 238.18,72.34 L 246.00,72.74 L 245.75,73.72 L 243.33,74.55 L 245.24,75.04 L 255.62,72.76 L 261.52,73.11 L 265.49,74.88 L 263.81,75.07 L 262.57,74.16 L 256.52,75.58 L 259.42,77.81 Z" fill="#E8E0D0" stroke="#B8B0A0" stroke-width="0.5"/>
<path d="M 31.89,89.42 L 29.98,88.59 L 31.61,86.92 L 30.27,84.38 L 30.60,81.35 L 16.51,81.34 L 10.98,77.12 L 1.44,75.14 L 0.00,73.17 L 0.00,19.36 L 8.36,19.74 L 11.13,20.88 L 10.60,22.93 L 9.05,23.41 L 14.97,25.44 L 11.49,25.73 L 13.47,27.56 L 11.88,28.33 L 12.26,29.68 L 18.83,31.61 L 25.37,31.17 L 32.57,32.21 L 35.17,30.65 L 42.78,32.56 L 47.17,38.51 L 50.92,40.11 L 52.62,44.69 L 70.16,51.28 L 74.12,53.58 L 81.67,56.21 L 84.87,55.97 L 106.55,63.95 L 111.21,63.56 L 124.37,67.11 L 122.20,68.89 L 122.68,72.50 L 121.36,73.81 L 116.11,73.30 L 109.24,71.11 L 105.40,74.60 L 97.29,74.86 L 92.92,75.92 L 89.23,81.51 L 89.27,83.65 L 87.27,85.31 L 80.08,87.12 L 79.87,88.28 L 77.21,87.94 L 69.35,89.67 L 63.77,89.83 L 65.65,91.53 L 63.30,92.34 L 63.36,94.38 L 56.74,96.43 L 52.26,96.08 L 49.77,97.61 L 48.87,95.94 L 45.00,94.36 L 38.11,94.45 L 32.38,92.41 L 31.89,89.42 Z" fill="#E8E0D0" stroke="#B8B0A0" stroke-width="0.5"/>
<path d="M 297.75,92.11 L 308.12,94.00 L 315.25,93.75 L 302.39,97.93 L 297.75,92.11 Z" fill="#E8E0D0" stroke="#B8B0A0" stroke-width="0.5"/>
<path d="M 383.28,407.72 L 375.57,412.12 L 363.00,415.18 L 356.38,414.07 L 354.50,412.88 L 350.55,405.58 L 347.70,390.23 L 349.10,388.81 L 348.31,392.47 L 349.65,392.76 L 349.58,390.00 L 351.89,385.63 L 351.45,382.41 L 353.71,381.46 L 354.70,379.65 L 353.80,377.49 L 356.26,376.60 L 353.80,375.26 L 357.80,376.82 L 360.19,376.31 L 363.41,376.90 L 352.17,374.29 L 351.35,373.39 L 352.39,372.88 L 354.99,372.84 L 355.12,373.30 L 360.49,375.49 L 355.27,373.06 L 357.12,372.77 L 366.99,378.80 L 367.17,380.20 L 369.29,381.55 L 367.87,381.29 L 368.55,382.35 L 369.64,381.96 L 373.97,385.54 L 374.28,386.68 L 373.64,386.39 L 372.30,387.17 L 376.26,387.37 L 377.68,391.22 L 376.91,390.53 L 376.79,391.13 L 379.60,392.62 L 382.21,395.75 L 380.73,395.22 L 380.20,395.59 L 382.82,396.72 L 383.20,398.52 L 384.65,399.00 L 385.00,402.48 L 383.28,407.72 Z M 382.41,395.44 L 383.80,396.98 L 383.83,398.28 L 382.41,395.44 Z M 350.18,380.91 L 351.35,382.04 L 349.47,381.21 L 348.00,380.92 L 350.18,380.91 Z M 347.18,376.40 L 347.05,375.71 L 348.09,376.05 L 347.18,376.40 Z M 350.17,374.14 L 350.88,373.47 L 352.51,374.96 L 350.17,374.14 Z" fill="#E8E0D0" stroke="#B8B0A0" stroke-width="0.5"/>
<path d="M 760.83,465.81 L 757.43,465.20 L 758.60,464.03 L 762.92,464.45 L 760.83,465.81 Z" fill="#E8E0D0" stroke="#B8B0A0" stroke-width="0.5"/>
<path d="M 236.06,487.06 L 235.95,487.05 L 235.90,486.98 L 236.06,487.06 Z M 236.47,486.98 L 236.38,486.99 L 236.45,486.90 L 236.47,486.98 Z M 235.28,486.81 L 235.23,486.80 L 235.23,486.70 L 235.28,486.81 Z M 237.00,486.56 L 237.04,486.35 L 237.21,486.37 L 237.00,486.56 Z M 237.29,486.17 L 237.34,485.85 L 237.33,485.97 L 237.29,486.17 Z M 240.69,482.75 L 240.71,482.88 L 240.56,482.76 L 240.69,482.75 Z M 234.89,477.18 L 234.87,477.25 L 234.80,477.22 L 234.89,477.18 Z M 236.83,476.99 L 236.72,477.05 L 236.68,476.96 L 236.83,476.99 Z M 233.74,476.64 L 233.80,476.75 L 233.73,476.74 L 233.74,476.64 Z M 239.59,476.47 L 239.43,476.53 L 239.46,476.46 L 239.59,476.47 Z M 232.90,476.29 L 232.87,476.32 L 232.79,476.29 L 232.90,476.29 Z M 241.89,475.36 L 241.81,475.44 L 241.78,475.36 L 241.89,475.36 Z M 232.40,475.19 L 232.44,475.29 L 232.38,475.26 L 232.40,475.19 Z M 232.09,474.27 L 232.03,474.21 L 232.10,474.18 L 232.09,474.27 Z M 241.53,474.05 L 241.57,474.15 L 241.49,474.11 L 241.53,474.05 Z M 239.73,472.66 L 239.69,472.66 L 239.67,472.63 L 239.73,472.66 Z M 239.47,471.35 L 239.44,471.34 L 239.42,471.31 L 239.47,471.35 Z M 239.15,470.42 L 239.12,470.43 L 239.09,470.40 L 239.15,470.42 Z M 230.29,441.47 L 230.22,441.49 L 230.16,441.47 L 230.29,441.47 Z M 229.60,441.37 L 229.66,441.40 L 229.53,441.41 L 229.60,441.37 Z M 231.60,441.07 L 231.60,441.08 L 231.74,440.96 L 231.60,441.07 Z M 232.18,440.29 L 232.11,440.31 L 232.05,440.29 L 232.18,440.29 Z M 227.93,439.15 L 227.88,439.19 L 227.80,439.16 L 227.93,439.15 Z M 241.15,436.80 L 241.11,436.81 L 241.14,436.78 L 241.15,436.80 Z M 228.09,436.12 L 228.05,436.13 L 227.96,436.10 L 228.09,436.12 Z M 241.81,435.08 L 241.81,435.08 L 241.70,435.00 L 241.81,435.08 Z M 232.69,433.24 L 232.69,433.26 L 232.64,433.26 L 232.69,433.24 Z M 245.10,431.39 L 245.04,431.40 L 245.13,431.37 L 245.10,431.39 Z M 245.13,431.17 L 245.08,431.21 L 245.09,431.18 L 245.13,431.17 Z M 239.56,431.04 L 239.51,431.02 L 239.55,430.94 L 239.56,431.04 Z M 240.04,429.26 L 240.00,429.27 L 239.97,429.25 L 240.04,429.26 Z M 241.50,428.30 L 241.47,428.31 L 241.44,428.29 L 241.50,428.30 Z M 232.75,426.36 L 232.59,426.52 L 232.64,426.37 L 232.75,426.36 Z M 231.79,426.32 L 231.75,426.33 L 231.70,426.33 L 231.79,426.32 Z M 240.58,425.55 L 240.66,425.50 L 240.76,425.53 L 240.58,425.55 Z M 231.56,424.89 L 231.55,424.89 L 231.57,424.87 L 231.56,424.89 Z M 231.86,424.85 L 231.81,424.86 L 231.87,424.83 L 231.86,424.85 Z M 233.85,423.93 L 233.81,423.94 L 233.87,423.90 L 233.85,423.93 Z M 233.99,423.85 L 233.92,423.85 L 233.88,423.82 L 233.99,423.85 Z M 234.66,423.50 L 234.61,423.51 L 234.67,423.47 L 234.66,423.50 Z M 234.89,423.34 L 235.00,423.37 L 234.94,423.37 L 234.89,423.34 Z M 230.70,422.66 L 230.65,422.68 L 230.71,422.64 L 230.70,422.66 Z M 235.36,422.59 L 235.30,422.60 L 235.36,422.57 L 235.36,422.59 Z M 241.62,422.56 L 241.56,422.55 L 241.66,422.54 L 241.62,422.56 Z M 243.08,422.23 L 242.86,422.22 L 243.07,422.16 L 243.08,422.23 Z M 235.03,421.98 L 234.98,422.02 L 234.98,422.00 L 235.03,421.98 Z M 241.15,421.88 L 241.05,421.89 L 241.10,421.87 L 241.15,421.88 Z M 243.84,421.62 L 243.77,421.62 L 243.88,421.61 L 243.84,421.62 Z M 244.06,421.50 L 244.06,421.50 L 244.12,421.48 L 244.06,421.50 Z M 232.29,421.42 L 232.24,421.43 L 232.31,421.39 L 232.29,421.42 Z M 239.93,421.31 L 239.97,421.35 L 239.89,421.34 L 239.93,421.31 Z M 238.67,421.24 L 238.76,421.24 L 238.57,421.28 L 238.67,421.24 Z M 239.01,420.58 L 239.00,420.58 L 239.05,420.56 L 239.01,420.58 Z M 242.26,420.33 L 242.20,420.33 L 242.30,420.32 L 242.26,420.33 Z M 239.32,420.23 L 239.28,420.25 L 239.32,420.19 L 239.32,420.23 Z M 232.09,420.20 L 232.05,420.21 L 232.03,420.16 L 232.09,420.20 Z M 233.33,419.93 L 233.30,419.93 L 233.27,419.89 L 233.33,419.93 Z M 240.97,419.34 L 240.92,419.32 L 241.02,419.31 L 240.97,419.34 Z M 233.15,417.54 L 233.10,417.54 L 233.09,417.48 L 233.15,417.54 Z M 232.32,410.60 L 232.31,410.62 L 232.23,410.61 L 232.32,410.60 Z M 231.35,409.49 L 231.33,409.51 L 231.24,409.48 L 231.35,409.49 Z M 235.14,486.54 L 235.02,486.28 L 234.90,485.87 L 235.14,486.54 Z M 239.36,460.10 L 239.54,460.13 L 239.41,460.19 L 239.36,460.10 Z M 239.99,460.05 L 239.86,460.06 L 239.86,460.02 L 239.99,460.05 Z M 241.04,459.72 L 240.92,459.78 L 240.85,459.71 L 241.04,459.72 Z M 241.65,459.71 L 241.63,459.69 L 241.70,459.63 L 241.65,459.71 Z M 242.23,459.34 L 242.22,459.35 L 242.20,459.32 L 242.23,459.34 Z M 237.28,459.04 L 237.28,458.98 L 237.41,459.00 L 237.28,459.04 Z M 242.50,458.80 L 242.36,459.00 L 242.52,458.65 L 242.50,458.80 Z M 242.52,458.21 L 242.52,458.21 L 242.48,458.18 L 242.52,458.21 Z M 238.64,457.98 L 238.56,458.02 L 238.51,457.99 L 238.64,457.98 Z M 242.40,457.59 L 242.35,457.59 L 242.39,457.57 L 242.40,457.59 Z M 239.73,457.52 L 239.72,457.50 L 239.73,457.47 L 239.73,457.52 Z M 242.54,457.04 L 242.54,457.05 L 242.54,456.98 L 242.54,457.04 Z M 243.12,456.64 L 243.13,456.64 L 242.72,456.80 L 243.12,456.64 Z M 233.81,456.04 L 233.76,456.04 L 233.76,456.04 L 233.81,456.04 Z M 234.86,455.87 L 234.81,455.85 L 234.80,455.83 L 234.86,455.87 Z M 235.11,455.68 L 235.18,455.75 L 235.08,455.75 L 235.11,455.68 Z M 232.19,454.87 L 232.13,454.86 L 232.22,454.84 L 232.19,454.87 Z M 231.86,454.40 L 231.78,454.36 L 231.84,454.27 L 231.86,454.40 Z M 238.99,454.09 L 238.96,454.11 L 238.99,454.05 L 238.99,454.09 Z M 239.37,453.36 L 239.31,453.65 L 239.16,453.17 L 239.37,453.36 Z M 238.50,452.46 L 238.50,452.46 L 238.44,452.41 L 238.50,452.46 Z M 235.57,451.85 L 235.52,451.85 L 235.60,451.82 L 235.57,451.85 Z M 231.51,450.44 L 231.47,450.49 L 231.42,450.48 L 231.51,450.44 Z M 230.95,450.40 L 230.95,450.40 L 230.83,450.34 L 230.95,450.40 Z M 233.66,449.73 L 233.59,449.81 L 233.49,449.77 L 233.66,449.73 Z M 239.16,449.44 L 239.12,449.46 L 239.07,449.40 L 239.16,449.44 Z M 239.79,449.40 L 239.81,449.34 L 239.94,449.29 L 239.79,449.40 Z M 242.54,448.15 L 242.50,448.18 L 242.50,448.17 L 242.54,448.15 Z M 239.32,448.07 L 239.28,448.08 L 239.22,448.05 L 239.32,448.07 Z M 233.36,447.53 L 233.26,447.54 L 233.25,447.47 L 233.36,447.53 Z M 242.76,447.46 L 242.72,447.55 L 242.71,447.52 L 242.76,447.46 Z M 243.13,447.38 L 242.99,447.49 L 243.01,447.43 L 243.13,447.38 Z M 230.84,447.39 L 230.80,447.42 L 230.80,447.39 L 230.84,447.39 Z M 231.50,446.09 L 231.39,446.13 L 231.39,446.11 L 231.50,446.09 Z M 243.59,445.84 L 243.52,445.87 L 243.60,445.80 L 243.59,445.84 Z M 232.80,445.82 L 232.73,445.85 L 232.68,445.83 L 232.80,445.82 Z M 233.91,444.77 L 233.80,444.81 L 233.80,444.79 L 233.91,444.77 Z M 233.72,444.27 L 233.65,444.29 L 233.60,444.28 L 233.72,444.27 Z M 230.33,443.60 L 230.22,443.64 L 230.22,443.63 L 230.33,443.60 Z M 241.99,443.06 L 241.99,443.09 L 241.94,443.04 L 241.99,443.06 Z M 245.90,442.06 L 246.00,442.11 L 245.92,442.09 L 245.90,442.06 Z M 241.81,441.57 L 241.81,441.57 L 241.77,441.55 L 241.81,441.57 Z M 232.35,439.04 L 232.29,439.06 L 232.23,439.04 L 232.35,439.04 Z M 232.24,438.63 L 232.17,438.65 L 232.12,438.63 L 232.24,438.63 Z M 232.22,437.92 L 232.15,437.94 L 232.10,437.92 L 232.22,437.92 Z M 240.56,437.78 L 240.50,437.81 L 240.51,437.76 L 240.56,437.78 Z M 240.69,436.98 L 240.61,437.00 L 240.70,436.96 L 240.69,436.98 Z M 239.01,436.70 L 238.95,436.72 L 238.95,436.71 L 239.01,436.70 Z M 240.32,434.83 L 240.28,434.84 L 240.34,434.81 L 240.32,434.83 Z M 241.85,434.33 L 240.49,434.09 L 241.87,434.07 L 242.45,433.45 L 241.85,434.33 Z M 232.40,433.24 L 232.33,433.25 L 232.17,433.20 L 232.40,433.24 Z M 243.25,432.40 L 243.19,432.39 L 243.30,432.37 L 243.25,432.40 Z M 243.58,432.22 L 243.54,432.23 L 243.51,432.20 L 243.58,432.22 Z M 244.01,432.14 L 243.95,432.13 L 243.92,432.09 L 244.01,432.14 Z M 244.54,431.89 L 244.51,431.90 L 244.48,431.87 L 244.54,431.89 Z M 232.36,431.50 L 232.20,431.49 L 232.14,431.40 L 232.36,431.50 Z M 242.59,429.42 L 242.55,429.43 L 242.52,429.40 L 242.59,429.42 Z M 244.00,420.84 L 243.93,421.03 L 243.85,420.73 L 244.00,420.84 Z M 233.15,420.25 L 233.12,420.26 L 233.09,420.21 L 233.15,420.25 Z M 231.07,419.91 L 231.04,419.92 L 231.01,419.87 L 231.07,419.91 Z M 233.38,418.57 L 233.35,418.58 L 233.33,418.53 L 233.38,418.57 Z M 233.31,417.92 L 233.27,417.93 L 233.25,417.89 L 233.31,417.92 Z M 239.62,417.46 L 239.60,417.45 L 239.65,417.37 L 239.62,417.46 Z M 232.87,416.90 L 232.81,416.94 L 232.88,416.85 L 232.87,416.90 Z M 239.69,416.67 L 239.62,416.70 L 239.56,416.67 L 239.69,416.67 Z M 232.68,416.48 L 232.68,416.48 L 232.61,416.41 L 232.68,416.48 Z M 240.53,416.19 L 240.52,416.19 L 240.69,416.08 L 240.53,416.19 Z M 232.49,415.83 L 232.53,415.98 L 232.46,415.91 L 232.49,415.83 Z M 240.44,415.39 L 240.40,415.41 L 240.35,415.37 L 240.44,415.39 Z M 231.91,414.82 L 231.84,414.75 L 231.94,414.69 L 231.91,414.82 Z M 239.87,414.81 L 239.69,414.74 L 239.78,414.68 L 239.87,414.81 Z M 231.62,414.61 L 231.56,414.59 L 231.56,414.55 L 231.62,414.61 Z M 237.37,413.49 L 237.31,413.49 L 237.40,413.45 L 237.37,413.49 Z M 237.42,413.15 L 237.33,413.18 L 237.37,413.16 L 237.42,413.15 Z M 236.85,412.95 L 236.79,412.96 L 236.88,412.92 L 236.85,412.95 Z M 237.68,412.71 L 237.64,412.72 L 237.65,412.68 L 237.68,412.71 Z M 236.85,412.48 L 236.77,412.52 L 236.80,412.49 L 236.85,412.48 Z M 237.74,412.30 L 237.69,412.41 L 237.66,412.34 L 237.74,412.30 Z M 233.61,411.97 L 233.60,411.98 L 233.63,411.95 L 233.61,411.97 Z M 237.28,411.84 L 237.22,411.87 L 237.15,411.83 L 237.28,411.84 Z M 235.27,411.27 L 235.21,411.27 L 235.30,411.24 L 235.27,411.27 Z M 236.75,411.21 L 236.68,411.24 L 236.69,411.24 L 236.75,411.21 Z M 234.50,411.03 L 234.44,411.04 L 234.53,411.00 L 234.50,411.03 Z M 236.56,410.85 L 236.55,410.89 L 236.43,410.86 L 236.56,410.85 Z M 235.23,410.74 L 235.15,410.78 L 235.18,410.76 L 235.23,410.74 Z M 236.22,410.59 L 236.19,410.58 L 236.20,410.55 L 236.22,410.59 Z M 233.53,410.39 L 233.52,410.41 L 233.44,410.40 L 233.53,410.39 Z M 227.75,409.93 L 227.73,409.94 L 227.73,409.88 L 227.75,409.93 Z M 231.52,409.62 L 231.51,409.64 L 231.43,409.63 L 231.52,409.62 Z M 233.90,409.61 L 233.85,409.64 L 233.94,409.56 L 233.90,409.61 Z M 232.39,408.33 L 232.35,408.32 L 232.37,408.27 L 232.39,408.33 Z M 231.89,408.25 L 231.87,408.28 L 231.79,408.27 L 231.89,408.25 Z M 233.63,408.09 L 233.59,408.10 L 233.54,408.06 L 233.63,408.09 Z M 233.80,407.65 L 233.76,407.63 L 233.78,407.58 L 233.80,407.65 Z M 234.16,407.17 L 234.17,407.10 L 234.30,407.09 L 234.16,407.17 Z M 234.83,406.75 L 234.75,406.76 L 234.76,406.68 L 234.83,406.75 Z M 233.74,406.16 L 233.70,406.17 L 233.65,406.13 L 233.74,406.16 Z M 231.64,406.10 L 231.61,406.09 L 231.62,406.04 L 231.64,406.10 Z M 235.72,406.21 L 235.36,406.47 L 235.43,406.30 L 235.72,406.21 Z M 236.48,405.35 L 236.25,405.43 L 236.22,405.33 L 236.48,405.35 Z M 232.96,405.26 L 232.93,405.25 L 232.94,405.20 L 232.96,405.26 Z M 235.51,405.24 L 235.47,405.23 L 235.49,405.18 L 235.51,405.24 Z M 232.70,405.15 L 232.66,405.16 L 232.62,405.12 L 232.70,405.15 Z M 234.72,405.14 L 234.68,405.13 L 234.70,405.08 L 234.72,405.14 Z M 232.43,405.05 L 232.39,405.04 L 232.41,404.99 L 232.43,405.05 Z M 234.93,404.68 L 234.89,404.68 L 234.85,404.64 L 234.93,404.68 Z M 236.75,404.52 L 236.60,404.73 L 236.56,404.55 L 236.75,404.52 Z M 231.85,403.99 L 231.82,404.01 L 231.84,403.95 L 231.85,403.99 Z M 236.44,404.01 L 236.41,404.02 L 236.39,403.84 L 236.44,404.01 Z M 231.26,403.62 L 231.23,403.64 L 231.26,403.58 L 231.26,403.62 Z M 232.76,403.18 L 232.79,403.33 L 232.72,403.28 L 232.76,403.18 Z M 232.25,402.87 L 232.23,402.93 L 232.21,402.90 L 232.25,402.87 Z M 231.62,402.48 L 231.60,402.58 L 231.51,402.49 L 231.62,402.48 Z M 231.13,402.36 L 231.10,402.38 L 231.12,402.32 L 231.13,402.36 Z" fill="#E8E0D0" stroke="#B8B0A0" stroke-width="0.5"/>
<path d="M 569.08,248.24 L 568.00,248.62 L 567.22,247.38 L 563.76,246.29 L 561.29,248.05 L 563.81,254.15 L 557.44,246.51 L 558.74,243.65 L 557.96,244.24 L 558.07,242.67 L 556.52,242.73 L 557.38,241.70 L 555.04,238.48 L 556.67,235.82 L 554.60,237.85 L 552.70,234.63 L 549.04,232.16 L 549.52,230.61 L 546.56,232.86 L 544.24,232.54 L 545.65,233.47 L 544.60,234.54 L 542.65,234.52 L 541.44,233.01 L 541.78,234.04 L 540.13,234.07 L 534.79,228.87 L 535.43,226.66 L 534.29,224.68 L 536.25,224.15 L 536.26,223.75 L 534.42,224.23 L 534.49,222.98 L 532.17,223.23 L 533.89,223.71 L 533.46,225.39 L 528.28,224.62 L 534.47,227.06 L 533.80,228.68 L 533.58,228.37 L 531.78,228.78 L 531.70,228.96 L 532.03,229.61 L 532.75,230.46 L 533.26,230.69 L 532.17,230.83 L 530.39,232.16 L 532.45,232.72 L 531.58,235.07 L 532.98,234.10 L 534.40,235.38 L 534.05,235.30 L 534.51,237.02 L 533.56,238.23 L 531.00,239.51 L 531.23,238.28 L 530.76,237.31 L 528.68,241.99 L 525.61,242.28 L 526.18,241.18 L 524.43,241.94 L 528.11,238.57 L 524.67,240.59 L 524.92,238.75 L 522.89,240.46 L 521.91,237.45 L 524.19,235.11 L 521.84,235.89 L 521.81,239.44 L 520.55,239.61 L 521.97,241.70 L 519.04,242.29 L 517.97,241.25 L 518.89,242.78 L 516.95,243.69 L 515.93,242.47 L 517.62,236.79 L 516.02,240.61 L 516.09,239.47 L 515.04,237.23 L 515.83,240.85 L 514.87,242.82 L 513.23,243.23 L 513.53,241.51 L 512.93,240.74 L 511.99,243.94 L 510.50,244.20 L 510.11,242.49 L 508.69,242.44 L 508.21,238.54 L 505.67,234.48 L 505.95,231.22 L 504.14,229.83 L 506.22,227.37 L 501.71,226.83 L 502.97,224.26 L 499.06,222.63 L 499.68,220.28 L 502.01,219.51 L 501.39,217.02 L 502.41,215.58 L 497.93,215.27 L 491.67,213.26 L 490.16,211.68 L 491.76,208.74 L 495.31,209.19 L 497.34,205.77 L 505.61,206.01 L 506.65,204.73 L 504.20,204.21 L 503.01,202.37 L 498.87,202.39 L 494.24,199.25 L 491.29,198.80 L 492.59,195.43 L 498.31,193.13 L 497.68,192.03 L 495.18,191.91 L 496.38,190.18 L 501.02,192.45 L 501.98,193.39 L 501.14,194.09 L 507.24,194.41 L 505.04,192.77 L 505.89,192.19 L 507.65,192.82 L 508.94,195.37 L 512.64,196.98 L 516.17,197.40 L 517.36,196.18 L 516.53,195.41 L 518.08,194.54 L 521.08,197.19 L 520.92,204.73 L 530.26,206.20 L 545.16,205.64 L 552.06,206.48 L 558.82,205.86 L 566.52,208.61 L 564.76,209.61 L 562.06,209.01 L 560.08,214.29 L 556.53,215.03 L 556.14,216.98 L 553.67,216.15 L 553.17,217.15 L 551.89,216.36 L 551.08,217.66 L 547.34,217.62 L 543.39,221.74 L 546.49,228.47 L 547.47,228.89 L 547.88,226.72 L 551.16,230.17 L 554.74,228.60 L 553.85,226.61 L 557.23,224.19 L 556.92,221.71 L 558.57,222.61 L 560.82,221.62 L 561.56,222.53 L 562.68,221.89 L 564.40,230.37 L 566.73,232.88 L 569.08,248.24 Z M 557.73,245.62 L 556.14,246.08 L 555.73,243.42 L 556.32,243.86 L 557.14,243.05 L 557.73,245.62 Z M 509.17,243.47 L 507.78,242.69 L 507.68,241.34 L 509.17,243.47 Z M 555.89,242.72 L 555.37,243.42 L 555.97,241.18 L 555.89,242.72 Z M 534.40,241.11 L 533.27,241.79 L 532.63,241.94 L 534.40,241.11 Z M 530.76,240.44 L 529.54,242.14 L 529.47,241.61 L 530.76,240.44 Z M 530.54,240.19 L 529.83,240.74 L 530.15,240.19 L 530.54,240.19 Z M 532.33,240.69 L 531.13,241.52 L 530.76,241.11 L 531.46,239.99 L 532.33,240.69 Z M 532.29,240.06 L 534.51,238.66 L 532.73,240.45 L 533.33,239.77 L 532.29,240.06 Z M 540.39,238.87 L 539.92,239.17 L 539.76,238.70 L 540.39,238.87 Z M 540.74,237.84 L 540.84,237.62 L 541.09,237.88 L 540.72,238.42 L 540.74,237.84 Z M 540.05,237.91 L 540.72,236.49 L 541.03,237.16 L 540.05,237.91 Z M 544.32,237.96 L 541.51,239.41 L 542.41,236.22 L 544.32,237.96 Z M 535.29,236.31 L 534.97,237.08 L 534.97,236.64 L 534.62,235.82 L 535.29,236.31 Z M 535.20,235.18 L 535.43,235.67 L 535.10,235.82 L 535.20,235.18 Z M 544.74,235.05 L 543.07,235.42 L 543.24,235.12 L 544.74,235.05 Z M 550.65,235.24 L 550.63,236.07 L 548.77,235.51 L 549.13,234.07 L 550.65,235.24 Z M 538.65,235.72 L 538.32,238.50 L 535.10,240.50 L 535.79,236.34 L 535.10,234.48 L 533.58,233.89 L 534.03,232.09 L 535.15,231.88 L 538.65,235.72 Z M 535.62,231.65 L 534.13,231.59 L 532.93,232.70 L 531.81,232.10 L 532.12,231.04 L 535.62,231.65 Z M 534.90,230.43 L 532.71,229.83 L 534.05,229.19 L 534.90,230.43 Z M 532.84,229.01 L 532.05,229.49 L 531.81,228.89 L 532.84,229.01 Z M 532.35,226.10 L 531.37,225.38 L 533.25,225.77 L 534.05,226.29 L 532.35,226.10 Z" fill="#C8D8E8" stroke="#8BAABB" stroke-width="0.8"/>
<path d="M 535.44,174.24 L 542.02,175.63 L 546.09,174.23 L 552.04,175.88 L 550.78,176.84 L 552.01,177.59 L 551.31,180.15 L 553.57,181.09 L 558.64,181.24 L 559.76,182.91 L 558.03,184.96 L 559.48,187.31 L 556.41,187.38 L 556.16,188.23 L 555.25,187.63 L 550.04,188.29 L 548.32,187.49 L 546.20,188.54 L 536.29,188.62 L 529.98,187.22 L 526.19,188.79 L 520.83,189.39 L 512.75,187.68 L 508.55,188.03 L 505.31,186.30 L 504.37,186.68 L 502.70,183.78 L 506.85,182.50 L 506.53,180.33 L 516.51,173.76 L 522.58,171.79 L 527.88,171.33 L 529.00,172.38 L 534.07,172.69 L 532.15,174.44 L 535.44,174.24 Z" fill="#C8D8E8" stroke="#8BAABB" stroke-width="0.8"/>
<path d="M 569.94,238.76 L 573.26,240.91 L 574.81,240.58 L 575.77,238.25 L 577.78,238.40 L 578.32,237.62 L 576.71,232.04 L 578.36,230.86 L 577.96,229.03 L 580.02,229.51 L 581.77,228.16 L 582.75,222.53 L 580.87,217.83 L 583.17,219.14 L 587.52,218.64 L 594.72,220.26 L 597.52,215.09 L 604.59,207.55 L 604.26,206.33 L 601.93,205.61 L 602.87,203.54 L 609.73,199.82 L 609.59,197.81 L 612.16,196.42 L 610.29,193.84 L 611.68,190.31 L 616.60,189.34 L 629.13,183.29 L 638.76,182.17 L 641.50,184.23 L 645.84,185.14 L 641.77,181.26 L 641.58,179.36 L 647.62,176.31 L 649.51,176.37 L 649.34,172.86 L 651.46,171.99 L 652.83,169.47 L 655.27,169.66 L 656.90,171.39 L 659.16,171.36 L 663.09,173.87 L 662.75,175.51 L 665.96,180.26 L 667.47,180.05 L 667.93,178.65 L 672.54,179.82 L 673.84,190.17 L 671.90,194.19 L 672.99,195.06 L 670.25,195.81 L 672.76,198.28 L 671.35,199.13 L 669.44,198.80 L 666.61,201.67 L 663.31,201.18 L 661.68,204.44 L 659.37,205.57 L 657.51,205.25 L 655.77,207.12 L 656.90,209.63 L 652.92,210.84 L 652.58,213.93 L 654.88,214.00 L 656.12,217.10 L 652.64,219.32 L 654.49,220.37 L 662.71,217.60 L 670.93,217.88 L 675.73,217.12 L 672.19,219.12 L 672.27,220.91 L 674.49,221.33 L 675.56,222.94 L 674.28,223.78 L 676.14,225.15 L 675.61,227.62 L 681.73,228.95 L 683.74,228.16 L 686.46,228.95 L 687.23,230.37 L 685.10,230.32 L 683.30,232.34 L 684.15,235.05 L 680.50,238.77 L 694.15,239.95 L 694.29,243.47 L 697.58,244.19 L 696.68,245.56 L 698.34,246.66 L 700.99,245.54 L 705.78,246.21 L 713.67,242.98 L 715.23,244.66 L 712.31,246.90 L 707.55,247.92 L 704.00,252.33 L 706.30,252.65 L 701.38,253.18 L 698.75,254.60 L 696.84,258.72 L 694.06,257.34 L 689.18,258.84 L 685.22,258.10 L 686.76,260.51 L 683.09,261.50 L 679.28,261.08 L 678.04,264.12 L 676.30,264.91 L 674.74,264.28 L 670.03,265.70 L 664.98,265.82 L 661.33,264.32 L 661.06,266.10 L 658.32,266.88 L 656.93,268.73 L 657.68,271.83 L 655.06,273.86 L 656.56,277.71 L 652.52,278.58 L 649.81,277.93 L 652.13,280.74 L 654.71,280.59 L 656.70,284.26 L 655.37,285.76 L 656.79,287.27 L 669.63,295.95 L 668.73,297.80 L 672.26,302.54 L 675.28,300.52 L 676.36,301.51 L 674.73,304.46 L 670.27,305.14 L 670.49,312.67 L 667.82,312.61 L 667.51,313.74 L 665.76,313.38 L 663.66,315.37 L 665.08,318.65 L 670.29,323.29 L 676.92,326.47 L 679.57,328.81 L 681.28,335.77 L 679.77,336.40 L 679.62,337.85 L 681.87,341.34 L 684.93,342.88 L 685.76,347.73 L 687.29,347.61 L 686.90,348.85 L 688.81,351.14 L 687.31,353.04 L 685.72,353.33 L 681.67,358.83 L 674.03,363.39 L 673.70,367.07 L 670.21,371.01 L 668.77,363.10 L 669.96,363.34 L 671.71,361.63 L 670.86,361.29 L 673.10,360.83 L 672.18,358.57 L 673.91,357.08 L 672.86,355.79 L 674.17,355.08 L 673.50,353.03 L 676.17,352.47 L 674.31,351.80 L 675.04,351.03 L 674.76,350.75 L 672.45,352.56 L 671.24,351.27 L 673.00,350.46 L 670.31,350.46 L 672.28,350.00 L 673.26,349.16 L 671.69,347.70 L 672.95,346.55 L 670.14,346.51 L 673.00,345.35 L 671.27,344.47 L 673.06,343.57 L 671.58,343.07 L 672.77,341.25 L 671.49,340.81 L 670.81,336.24 L 665.10,330.50 L 664.20,326.69 L 664.11,332.36 L 663.38,332.43 L 661.97,327.29 L 662.80,325.57 L 658.95,319.96 L 661.39,320.36 L 660.06,318.71 L 658.35,319.53 L 657.40,317.83 L 657.88,314.25 L 656.23,312.84 L 657.40,312.09 L 656.24,307.36 L 653.54,304.98 L 654.71,300.47 L 656.47,299.58 L 650.14,300.40 L 646.94,295.64 L 646.49,293.84 L 648.27,293.62 L 646.51,293.38 L 646.04,293.92 L 641.80,289.82 L 640.75,290.50 L 642.27,291.34 L 641.22,292.47 L 642.28,294.52 L 638.32,299.41 L 634.15,300.46 L 631.24,299.17 L 630.55,297.38 L 631.60,296.82 L 629.62,297.27 L 632.19,301.14 L 628.72,302.16 L 626.80,301.45 L 627.84,302.29 L 623.23,304.08 L 621.98,303.24 L 620.95,306.21 L 616.69,308.67 L 614.50,308.48 L 615.81,305.83 L 615.76,304.04 L 613.22,307.98 L 611.73,307.64 L 611.25,305.38 L 613.44,304.35 L 611.90,304.04 L 610.78,304.84 L 610.16,307.77 L 606.96,307.93 L 607.80,307.32 L 606.75,306.21 L 608.28,305.24 L 607.23,304.27 L 607.87,303.66 L 608.88,303.47 L 609.45,302.93 L 607.09,303.92 L 607.34,305.21 L 604.81,307.22 L 602.75,306.51 L 605.00,305.47 L 606.05,303.90 L 602.16,306.36 L 604.08,304.34 L 605.00,299.96 L 604.05,299.88 L 603.21,302.83 L 603.24,301.92 L 601.38,302.45 L 599.79,304.85 L 596.56,305.92 L 597.06,299.92 L 598.31,299.70 L 599.01,295.86 L 600.42,295.34 L 600.24,292.83 L 601.67,292.75 L 601.81,291.31 L 602.64,291.61 L 602.05,288.46 L 602.99,288.86 L 600.07,284.05 L 600.86,283.13 L 599.70,281.28 L 598.07,281.11 L 599.60,280.51 L 595.01,275.97 L 596.09,276.03 L 597.24,275.89 L 595.01,274.48 L 593.12,274.58 L 593.61,268.82 L 593.04,270.83 L 592.01,271.46 L 590.93,270.97 L 592.20,273.40 L 591.27,274.59 L 586.97,272.84 L 583.69,269.42 L 584.81,268.37 L 589.63,270.46 L 591.27,269.79 L 592.25,268.85 L 592.20,268.00 L 587.86,266.17 L 589.04,265.91 L 589.16,264.94 L 588.38,265.71 L 588.21,264.73 L 585.64,265.24 L 588.02,262.99 L 585.29,263.47 L 584.35,262.19 L 582.59,262.56 L 581.89,261.22 L 581.54,261.89 L 581.18,261.07 L 580.01,261.66 L 577.55,261.15 L 579.39,263.84 L 577.22,262.25 L 578.24,264.27 L 574.84,260.77 L 576.96,260.55 L 577.42,259.88 L 575.19,260.50 L 576.91,258.04 L 575.88,257.73 L 576.82,256.39 L 576.61,256.15 L 573.09,260.85 L 571.56,259.66 L 574.37,258.69 L 572.39,256.80 L 571.40,257.23 L 570.57,255.74 L 569.11,254.59 L 570.75,259.36 L 564.76,254.57 L 561.29,248.05 L 563.76,246.29 L 567.22,247.38 L 568.00,248.62 L 569.08,248.24 L 568.09,240.68 L 569.94,238.76 Z M 661.23,373.10 L 661.18,372.76 L 661.70,372.75 L 661.23,373.10 Z M 664.71,365.46 L 664.21,365.63 L 664.16,365.27 L 664.71,365.46 Z M 668.32,360.08 L 668.64,359.98 L 668.45,360.38 L 668.32,360.08 Z M 651.66,351.46 L 651.40,351.31 L 652.01,351.55 L 651.66,351.46 Z M 658.09,340.52 L 658.39,340.37 L 658.65,340.71 L 658.09,340.52 Z M 665.85,370.79 L 663.20,372.55 L 663.09,371.31 L 665.85,370.79 Z M 663.98,368.78 L 665.03,369.00 L 664.09,370.42 L 663.98,368.78 Z M 659.95,366.05 L 659.38,366.51 L 659.02,366.31 L 659.40,365.50 L 659.95,366.05 Z M 670.38,361.82 L 669.93,362.32 L 669.44,362.25 L 669.36,361.19 L 670.38,361.82 Z M 659.41,360.83 L 660.09,360.89 L 658.92,361.70 L 659.41,360.83 Z M 665.20,363.34 L 664.31,361.29 L 662.24,361.22 L 663.85,360.24 L 665.50,361.78 L 665.20,363.34 Z M 669.08,360.29 L 669.89,359.06 L 670.18,360.51 L 669.08,360.29 Z M 665.15,357.67 L 664.68,357.08 L 665.73,357.01 L 665.15,357.67 Z M 665.77,354.47 L 663.93,355.12 L 663.74,354.85 L 665.68,351.31 L 665.77,354.47 Z M 670.43,351.76 L 670.07,354.25 L 668.31,353.85 L 667.26,351.43 L 670.43,351.76 Z M 662.45,353.13 L 661.11,352.35 L 661.40,352.21 L 661.03,351.72 L 661.15,350.60 L 662.45,353.13 Z M 655.41,350.35 L 655.30,350.90 L 654.80,350.57 L 655.41,350.35 Z M 665.30,350.20 L 665.45,350.13 L 665.86,350.41 L 665.30,350.20 Z M 665.12,349.95 L 664.95,349.48 L 665.38,349.45 L 665.12,349.95 Z M 672.19,349.69 L 672.18,349.85 L 669.09,350.32 L 668.43,347.92 L 672.19,349.69 Z M 663.17,346.98 L 663.27,347.63 L 661.59,346.88 L 662.15,345.99 L 663.17,346.98 Z M 660.92,346.21 L 659.98,345.77 L 662.21,344.49 L 660.92,346.21 Z M 669.71,344.53 L 669.39,344.72 L 669.03,344.52 L 669.71,343.75 L 669.71,344.53 Z M 665.87,343.42 L 665.37,343.75 L 664.85,343.52 L 665.87,343.42 Z M 658.35,342.67 L 658.35,343.30 L 657.99,343.08 L 658.35,342.67 Z M 668.71,344.16 L 666.08,345.46 L 666.31,341.66 L 668.19,343.38 L 668.89,342.79 L 668.71,344.16 Z M 666.67,337.46 L 666.08,339.21 L 665.15,335.93 L 666.67,337.46 Z M 659.86,329.01 L 659.51,329.75 L 659.52,328.99 L 659.86,329.01 Z M 582.11,326.57 L 581.77,326.69 L 582.03,325.73 L 582.11,326.57 Z M 587.40,317.57 L 587.75,317.46 L 587.41,317.93 L 587.40,317.57 Z M 655.31,310.73 L 655.17,311.05 L 654.94,310.09 L 655.31,310.73 Z M 606.22,307.87 L 604.87,307.70 L 606.27,306.41 L 606.22,307.87 Z M 603.24,304.84 L 599.36,307.40 L 599.13,305.65 L 603.79,303.25 L 603.24,304.84 Z M 653.58,303.24 L 653.17,303.48 L 651.66,302.38 L 651.67,300.47 L 654.18,300.40 L 653.58,303.24 Z M 587.88,276.42 L 586.39,276.53 L 583.64,274.41 L 585.99,274.02 L 588.06,274.44 L 587.88,276.42 Z M 589.09,270.04 L 586.33,267.70 L 587.74,267.00 L 591.96,268.52 L 589.09,270.04 Z M 584.11,264.94 L 582.25,262.69 L 583.89,263.41 L 584.11,264.94 Z M 575.60,263.21 L 575.78,264.05 L 573.85,261.26 L 575.60,263.21 Z" fill="#C8D8E8" stroke="#8BAABB" stroke-width="0.8"/>
<path d="M 332.04,114.87 L 331.01,110.07 L 331.16,109.14 L 335.37,107.64 L 335.37,106.64 L 330.04,104.28 L 323.73,103.21 L 318.69,96.21 L 319.43,93.79 L 316.67,94.45 L 315.25,93.75 L 308.12,94.00 L 300.10,92.80 L 294.21,90.97 L 293.64,89.32 L 287.29,90.37 L 285.98,88.50 L 282.73,87.58 L 284.69,85.76 L 284.04,83.24 L 281.87,81.26 L 278.45,80.07 L 274.72,80.41 L 272.70,78.17 L 269.05,77.46 L 265.15,78.41 L 263.78,77.23 L 259.50,77.16 L 256.77,76.02 L 262.57,74.16 L 263.81,75.07 L 265.49,74.88 L 270.14,73.04 L 265.48,70.88 L 266.74,69.05 L 263.75,65.64 L 264.52,61.58 L 255.94,59.28 L 252.33,59.25 L 250.71,60.80 L 247.08,60.15 L 244.76,57.04 L 247.24,55.91 L 243.51,53.40 L 243.93,50.78 L 247.45,50.49 L 248.88,49.33 L 247.11,47.11 L 249.82,44.31 L 255.93,43.77 L 262.30,41.19 L 264.97,41.24 L 263.69,40.21 L 264.51,39.23 L 270.65,39.99 L 276.91,37.91 L 279.00,41.62 L 288.62,39.99 L 289.81,41.05 L 294.87,38.30 L 295.53,36.47 L 299.18,33.77 L 319.95,33.49 L 324.65,30.98 L 324.83,29.81 L 329.93,28.13 L 348.57,24.35 L 350.20,23.03 L 356.85,22.68 L 357.49,20.46 L 355.35,16.04 L 357.14,14.18 L 362.28,13.50 L 359.19,11.87 L 366.47,10.55 L 363.89,8.63 L 365.09,7.19 L 358.70,0.00 L 615.56,0.00 L 615.03,1.12 L 618.74,1.77 L 624.54,9.49 L 632.14,13.16 L 632.81,15.17 L 647.11,14.49 L 686.14,16.91 L 695.43,15.69 L 721.23,17.21 L 724.83,18.03 L 729.95,21.04 L 747.73,23.00 L 758.31,25.66 L 772.16,24.45 L 772.23,26.78 L 780.25,27.55 L 784.14,25.84 L 800.00,22.34 L 800.00,229.85 L 795.31,230.61 L 790.14,228.92 L 786.04,225.59 L 784.14,226.81 L 778.48,227.79 L 777.24,228.64 L 777.68,230.39 L 775.58,231.55 L 773.06,231.35 L 769.41,232.98 L 767.64,232.37 L 767.71,231.48 L 765.07,231.84 L 762.89,234.93 L 757.54,231.75 L 755.09,234.12 L 751.77,231.88 L 746.97,235.76 L 737.37,232.09 L 733.09,235.98 L 729.28,235.58 L 727.10,236.32 L 724.04,235.23 L 721.08,237.77 L 726.01,244.51 L 724.85,245.10 L 724.49,247.82 L 726.35,248.76 L 725.19,249.75 L 721.11,248.67 L 716.43,249.21 L 713.67,242.98 L 705.78,246.21 L 700.99,245.54 L 697.92,246.57 L 696.61,245.32 L 697.58,244.19 L 694.29,243.47 L 694.15,239.95 L 680.50,238.77 L 684.15,235.05 L 683.30,232.34 L 685.10,230.32 L 687.23,230.37 L 686.46,228.95 L 683.74,228.16 L 681.73,228.95 L 675.61,227.62 L 676.14,225.15 L 674.28,223.78 L 675.56,222.94 L 674.49,221.33 L 672.27,220.91 L 672.19,219.12 L 675.73,217.12 L 670.93,217.88 L 662.71,217.60 L 654.49,220.37 L 652.64,219.32 L 656.12,217.10 L 654.88,214.00 L 652.58,213.93 L 652.92,210.84 L 656.90,209.63 L 655.77,207.12 L 657.51,205.25 L 659.37,205.57 L 661.68,204.44 L 663.31,201.18 L 666.25,201.77 L 669.44,198.80 L 672.72,198.42 L 670.25,195.81 L 672.99,195.06 L 671.90,194.19 L 673.84,190.17 L 672.54,179.82 L 667.93,178.65 L 667.47,180.05 L 665.96,180.26 L 662.75,175.51 L 662.94,173.69 L 659.16,171.36 L 656.90,171.39 L 655.27,169.66 L 652.83,169.47 L 651.46,171.99 L 649.34,172.86 L 645.14,171.14 L 643.22,171.63 L 638.96,170.48 L 631.85,170.65 L 636.83,166.98 L 634.52,164.41 L 632.96,163.96 L 630.03,164.99 L 629.68,163.17 L 632.96,161.56 L 630.72,161.73 L 629.12,160.35 L 622.32,160.65 L 621.85,161.98 L 619.24,161.68 L 617.92,163.60 L 615.86,163.96 L 605.75,162.54 L 602.73,160.91 L 597.38,162.74 L 598.41,164.09 L 592.33,166.04 L 591.23,167.80 L 582.99,167.92 L 580.78,168.66 L 578.54,170.53 L 578.91,171.52 L 569.85,173.78 L 569.17,174.60 L 570.84,175.38 L 569.94,176.20 L 563.44,177.55 L 562.34,176.69 L 557.42,178.21 L 546.09,174.23 L 542.02,175.63 L 535.44,174.24 L 532.15,174.44 L 534.07,172.69 L 529.00,172.38 L 527.88,171.33 L 522.58,171.79 L 516.51,173.76 L 506.53,180.33 L 506.42,182.70 L 502.79,181.36 L 504.40,176.92 L 503.78,175.28 L 500.24,174.07 L 491.77,175.80 L 491.81,176.73 L 487.00,176.22 L 485.12,177.31 L 479.00,177.35 L 478.90,176.80 L 475.34,177.12 L 467.20,174.07 L 465.04,174.09 L 462.84,176.20 L 459.04,175.19 L 458.24,173.52 L 456.74,174.39 L 457.50,176.02 L 455.23,176.47 L 450.31,171.58 L 448.92,172.49 L 439.95,171.92 L 441.21,168.75 L 439.39,168.28 L 435.24,169.33 L 429.06,167.25 L 424.88,165.00 L 425.30,164.07 L 422.88,161.56 L 419.88,161.21 L 415.17,162.67 L 413.19,162.36 L 407.20,157.60 L 405.34,158.06 L 403.82,157.13 L 401.43,157.18 L 396.39,154.32 L 389.75,152.85 L 388.64,149.90 L 380.51,148.95 L 378.72,149.91 L 376.64,149.42 L 376.00,151.77 L 373.72,153.39 L 371.68,153.30 L 369.59,150.71 L 363.10,148.49 L 355.97,147.40 L 356.85,145.60 L 355.58,144.86 L 353.96,144.95 L 350.04,143.03 L 345.67,143.28 L 342.65,142.36 L 338.03,137.85 L 336.98,137.60 L 334.43,139.68 L 331.42,139.26 L 330.64,137.07 L 332.68,136.01 L 330.15,134.24 L 331.41,132.13 L 326.51,129.25 L 325.25,125.79 L 331.28,124.90 L 331.87,126.73 L 334.81,127.98 L 337.07,127.71 L 337.71,126.61 L 341.26,125.31 L 343.37,125.93 L 346.40,123.82 L 341.49,120.94 L 343.59,118.15 L 337.46,117.75 L 332.04,114.87 Z" fill="#C8D8E8" stroke="#8BAABB" stroke-width="0.8"/>
<path d="M 492.52,177.68 L 490.19,180.71 L 489.26,184.89 L 492.66,188.67 L 490.55,192.55 L 489.37,192.98 L 487.56,191.91 L 482.72,192.85 L 479.81,192.32 L 477.82,193.20 L 474.50,192.56 L 473.39,190.66 L 467.78,192.46 L 460.43,190.31 L 455.76,189.85 L 452.63,190.81 L 448.70,187.67 L 441.79,188.71 L 441.23,187.71 L 438.77,187.77 L 435.33,185.98 L 432.08,185.70 L 431.72,182.72 L 426.29,182.00 L 423.35,180.51 L 418.50,181.37 L 418.85,182.34 L 410.85,180.98 L 409.06,182.49 L 406.50,181.26 L 399.99,180.71 L 398.75,178.54 L 394.00,178.73 L 387.58,176.17 L 384.65,176.84 L 376.78,173.48 L 375.07,173.83 L 372.91,171.29 L 368.38,170.43 L 362.40,167.84 L 361.25,169.11 L 358.53,168.40 L 353.43,165.46 L 357.31,162.15 L 356.55,159.82 L 359.48,157.78 L 359.21,156.11 L 368.02,151.20 L 370.12,151.43 L 371.68,153.30 L 373.72,153.39 L 376.00,151.77 L 376.64,149.42 L 378.72,149.91 L 380.51,148.95 L 388.64,149.90 L 389.75,152.85 L 396.39,154.32 L 401.43,157.18 L 403.82,157.13 L 405.34,158.06 L 407.20,157.60 L 413.19,162.36 L 415.17,162.67 L 419.88,161.21 L 422.88,161.56 L 425.30,164.07 L 424.88,165.00 L 429.06,167.25 L 435.24,169.33 L 439.39,168.28 L 441.21,168.75 L 439.78,170.49 L 440.33,172.05 L 448.92,172.49 L 450.31,171.58 L 454.93,176.40 L 457.50,176.02 L 456.74,174.39 L 458.24,173.52 L 459.04,175.19 L 462.84,176.20 L 465.04,174.09 L 466.89,174.06 L 475.34,177.12 L 485.12,177.31 L 487.00,176.22 L 491.81,176.73 L 492.52,177.68 Z" fill="#C8D8E8" stroke="#8BAABB" stroke-width="0.8"/>
<path d="M 284.69,85.76 L 282.76,87.03 L 283.11,87.92 L 285.98,88.50 L 287.29,90.37 L 293.95,89.38 L 294.21,90.97 L 297.75,92.11 L 302.39,97.93 L 301.78,99.28 L 297.41,100.06 L 295.39,101.95 L 284.84,102.64 L 280.63,104.53 L 255.11,101.65 L 248.84,103.02 L 246.45,105.70 L 250.06,107.63 L 248.39,108.76 L 248.79,109.70 L 254.88,110.42 L 249.64,112.89 L 252.92,115.50 L 250.26,118.94 L 255.55,120.94 L 256.14,123.41 L 260.04,123.56 L 261.95,122.71 L 260.99,125.35 L 262.02,126.62 L 267.74,126.68 L 273.48,128.90 L 272.37,130.13 L 264.40,131.47 L 259.47,133.80 L 258.59,134.88 L 260.78,137.63 L 258.88,140.71 L 261.49,141.70 L 255.68,143.77 L 247.68,149.43 L 249.27,151.44 L 239.44,154.27 L 237.09,158.52 L 231.92,163.83 L 222.06,166.88 L 218.56,171.38 L 214.43,173.75 L 213.85,175.66 L 196.00,178.47 L 193.93,178.04 L 190.92,175.05 L 187.62,175.10 L 173.80,184.73 L 173.29,188.97 L 178.61,190.65 L 184.48,191.20 L 182.88,197.18 L 186.04,200.14 L 192.96,200.50 L 192.97,203.52 L 196.29,206.06 L 199.98,211.28 L 198.11,212.35 L 200.13,214.33 L 194.70,216.19 L 191.78,215.90 L 190.69,214.08 L 183.65,215.39 L 181.29,216.90 L 176.89,216.87 L 174.29,215.69 L 164.02,215.90 L 163.02,215.22 L 161.90,216.13 L 160.33,215.10 L 159.94,219.08 L 153.20,219.06 L 150.68,220.42 L 150.24,219.73 L 150.10,222.02 L 148.62,221.71 L 149.30,220.70 L 147.78,219.36 L 147.78,221.22 L 145.07,219.66 L 144.67,220.77 L 141.35,220.86 L 141.56,219.43 L 140.95,220.33 L 138.62,219.88 L 139.68,219.36 L 138.15,218.83 L 139.56,217.94 L 136.49,217.93 L 135.57,216.68 L 135.33,215.12 L 136.64,214.96 L 135.08,214.69 L 133.58,212.28 L 134.76,212.28 L 132.99,211.80 L 134.81,210.57 L 129.84,209.53 L 124.52,209.58 L 125.94,205.86 L 122.70,203.86 L 122.41,202.20 L 119.75,201.03 L 116.81,201.38 L 114.94,202.67 L 119.08,201.82 L 121.74,202.60 L 121.85,203.50 L 117.63,202.69 L 107.37,204.09 L 102.97,203.57 L 98.87,204.61 L 91.84,204.31 L 90.31,206.03 L 88.77,204.89 L 86.61,205.28 L 80.71,204.18 L 80.53,203.19 L 81.75,202.97 L 79.87,202.94 L 78.70,203.34 L 80.12,204.09 L 71.78,203.86 L 70.02,204.69 L 70.55,205.73 L 53.90,204.96 L 50.74,206.14 L 51.39,206.88 L 49.25,206.76 L 49.96,205.82 L 47.36,205.46 L 45.88,206.07 L 46.54,206.67 L 40.24,207.59 L 41.16,205.79 L 37.83,205.63 L 39.06,199.47 L 40.67,198.92 L 42.01,194.51 L 46.99,192.90 L 49.41,193.04 L 49.87,191.51 L 52.03,190.85 L 57.77,189.96 L 64.40,190.16 L 65.23,187.77 L 66.46,187.49 L 65.94,185.38 L 67.45,184.82 L 65.02,183.28 L 60.14,183.77 L 57.58,183.19 L 58.81,180.71 L 57.90,172.54 L 54.72,172.73 L 51.08,170.67 L 43.04,169.32 L 37.45,165.76 L 33.53,160.28 L 25.10,155.02 L 53.04,159.92 L 71.71,158.95 L 80.57,160.15 L 82.05,159.09 L 87.27,158.15 L 96.83,158.48 L 116.67,155.27 L 119.15,153.96 L 117.07,152.85 L 118.55,150.82 L 117.91,146.95 L 119.59,143.45 L 122.73,142.86 L 125.25,140.48 L 129.46,139.19 L 131.04,140.05 L 136.36,140.36 L 143.52,138.98 L 143.62,138.32 L 140.90,138.15 L 140.17,136.85 L 146.97,135.68 L 149.92,133.65 L 156.07,134.73 L 156.95,134.42 L 154.71,134.10 L 159.11,134.19 L 161.30,136.06 L 165.34,135.30 L 169.77,132.42 L 168.64,126.71 L 171.95,124.62 L 171.10,123.35 L 172.83,122.43 L 173.00,120.57 L 181.68,119.49 L 186.81,117.41 L 184.42,115.37 L 183.79,113.09 L 181.04,112.69 L 179.16,110.80 L 179.59,109.82 L 190.70,110.67 L 199.95,109.41 L 200.97,106.13 L 198.15,104.22 L 200.01,103.93 L 200.26,102.69 L 206.92,99.68 L 209.80,97.07 L 207.95,95.86 L 209.53,94.47 L 206.83,90.50 L 201.72,87.77 L 208.44,84.70 L 209.33,83.29 L 212.28,83.96 L 212.11,83.05 L 218.93,81.16 L 218.90,80.53 L 225.67,79.35 L 244.06,78.52 L 250.82,79.40 L 261.56,76.80 L 265.15,78.41 L 269.05,77.46 L 273.34,78.31 L 274.72,80.41 L 279.80,80.40 L 284.12,83.42 L 284.69,85.76 Z M 137.11,218.17 L 138.74,218.17 L 137.74,218.62 L 137.11,218.17 Z" fill="#C8D8E8" stroke="#8BAABB" stroke-width="0.8"/>
<path d="M 316.67,94.45 L 319.43,93.79 L 318.69,96.21 L 323.73,103.21 L 330.04,104.28 L 334.95,106.21 L 335.37,107.64 L 331.16,109.14 L 332.37,115.50 L 337.06,117.66 L 343.59,118.15 L 341.49,120.94 L 346.29,123.43 L 343.37,125.93 L 341.26,125.31 L 337.71,126.61 L 337.07,127.71 L 334.81,127.98 L 331.87,126.73 L 331.28,124.90 L 325.25,125.79 L 326.51,129.25 L 331.41,132.13 L 330.15,134.24 L 332.68,136.01 L 330.64,137.07 L 331.42,139.26 L 334.43,139.68 L 336.98,137.60 L 338.03,137.85 L 342.65,142.36 L 345.67,143.28 L 350.33,143.11 L 356.74,145.50 L 355.97,147.40 L 363.10,148.49 L 370.06,151.17 L 367.74,151.31 L 359.21,156.11 L 359.48,157.78 L 356.55,159.82 L 357.31,162.15 L 355.16,163.15 L 353.52,166.12 L 358.53,168.40 L 361.25,169.11 L 362.40,167.84 L 368.38,170.43 L 372.91,171.29 L 375.07,173.83 L 376.78,173.48 L 384.65,176.84 L 387.58,176.17 L 394.00,178.73 L 398.75,178.54 L 399.99,180.71 L 406.50,181.26 L 409.06,182.49 L 410.85,180.98 L 418.85,182.34 L 418.50,181.37 L 423.35,180.51 L 426.29,182.00 L 431.72,182.72 L 432.30,185.78 L 435.33,185.98 L 443.37,188.95 L 448.88,187.71 L 452.63,190.81 L 455.76,189.85 L 460.43,190.31 L 467.78,192.46 L 473.39,190.66 L 474.50,192.56 L 477.82,193.20 L 479.81,192.32 L 482.72,192.85 L 487.56,191.91 L 489.37,192.98 L 492.68,188.87 L 489.26,184.89 L 490.19,180.71 L 492.52,177.68 L 491.50,176.00 L 500.24,174.07 L 503.53,175.10 L 504.42,176.75 L 502.48,180.31 L 505.06,182.66 L 502.28,184.45 L 503.95,185.03 L 504.37,186.68 L 505.31,186.30 L 508.55,188.03 L 512.75,187.68 L 520.83,189.39 L 526.19,188.79 L 529.98,187.22 L 536.29,188.62 L 546.20,188.54 L 548.32,187.49 L 550.04,188.29 L 555.25,187.63 L 556.16,188.23 L 556.41,187.38 L 559.48,187.31 L 558.03,184.76 L 559.76,182.91 L 557.81,180.96 L 553.57,181.09 L 551.47,180.31 L 552.01,177.59 L 550.78,176.84 L 557.42,178.21 L 562.34,176.69 L 563.44,177.55 L 568.08,176.88 L 570.84,175.38 L 569.17,174.60 L 569.85,173.78 L 578.91,171.52 L 578.54,170.53 L 580.78,168.66 L 582.99,167.92 L 591.23,167.80 L 592.33,166.04 L 598.41,164.09 L 597.38,162.74 L 602.73,160.91 L 605.75,162.54 L 615.86,163.96 L 617.92,163.60 L 619.24,161.68 L 621.85,161.98 L 622.32,160.65 L 627.96,160.34 L 630.72,161.73 L 632.96,161.56 L 629.68,163.17 L 630.03,164.99 L 632.96,163.96 L 634.52,164.41 L 636.83,166.98 L 631.85,170.65 L 645.78,171.24 L 649.34,172.86 L 648.81,174.19 L 650.00,175.28 L 649.51,176.37 L 647.62,176.31 L 641.44,179.58 L 641.77,181.26 L 645.84,185.14 L 641.50,184.23 L 638.76,182.17 L 629.13,183.29 L 616.60,189.34 L 611.68,190.31 L 610.29,193.84 L 612.16,196.42 L 609.59,197.81 L 609.73,199.82 L 602.87,203.54 L 601.93,205.61 L 604.26,206.33 L 604.59,207.55 L 597.52,215.09 L 594.72,220.26 L 587.52,218.64 L 583.17,219.14 L 580.65,218.01 L 582.72,222.18 L 581.77,228.16 L 580.02,229.51 L 577.75,229.22 L 578.36,230.86 L 576.56,232.91 L 578.32,237.62 L 577.78,238.40 L 575.77,238.25 L 574.99,240.49 L 573.26,240.91 L 569.94,238.76 L 568.09,240.68 L 566.73,232.88 L 564.40,230.37 L 562.68,221.89 L 561.56,222.53 L 560.82,221.62 L 558.57,222.61 L 556.92,221.71 L 557.23,224.19 L 553.85,226.61 L 554.74,228.60 L 551.16,230.17 L 547.88,226.72 L 547.47,228.89 L 546.49,228.47 L 546.04,225.71 L 543.46,222.73 L 547.34,217.62 L 551.08,217.66 L 551.89,216.36 L 553.17,217.15 L 553.67,216.15 L 556.14,216.98 L 556.53,215.03 L 560.08,214.29 L 562.06,209.01 L 564.76,209.61 L 566.52,208.61 L 558.82,205.86 L 552.06,206.48 L 545.16,205.64 L 530.26,206.20 L 520.92,204.73 L 521.08,197.19 L 518.08,194.54 L 516.53,195.41 L 517.36,196.18 L 516.17,197.40 L 512.64,196.98 L 508.94,195.37 L 507.65,192.82 L 505.89,192.19 L 505.04,192.77 L 507.24,194.41 L 501.14,194.09 L 501.98,193.39 L 501.02,192.45 L 496.17,190.31 L 495.18,191.91 L 497.68,192.03 L 498.31,193.13 L 492.59,195.43 L 491.29,198.80 L 494.24,199.25 L 498.87,202.39 L 503.01,202.37 L 504.20,204.21 L 506.65,204.73 L 505.61,206.01 L 497.34,205.77 L 495.31,209.19 L 491.76,208.74 L 490.16,211.68 L 491.67,213.26 L 497.93,215.27 L 502.41,215.58 L 501.39,217.02 L 502.01,219.51 L 499.68,220.28 L 499.03,222.51 L 502.97,224.26 L 501.71,226.83 L 506.22,227.37 L 504.14,229.83 L 505.95,231.22 L 505.67,234.48 L 508.24,238.80 L 507.94,241.11 L 505.28,240.77 L 508.32,244.60 L 505.05,244.21 L 504.48,242.97 L 504.48,244.39 L 503.67,243.79 L 503.32,245.13 L 501.90,245.02 L 502.85,239.02 L 500.59,241.03 L 501.48,238.43 L 501.09,238.21 L 499.49,242.06 L 499.45,242.97 L 500.62,243.16 L 499.58,245.25 L 498.14,245.26 L 498.91,242.66 L 498.27,240.96 L 497.60,244.53 L 496.52,244.79 L 495.46,243.49 L 495.09,244.68 L 494.89,243.00 L 494.27,242.63 L 495.02,245.10 L 494.14,245.28 L 492.30,240.88 L 493.18,238.62 L 489.95,237.83 L 488.77,235.95 L 488.19,235.82 L 489.20,237.78 L 492.06,238.49 L 492.60,239.46 L 486.95,243.38 L 476.12,245.31 L 471.27,247.75 L 470.01,250.42 L 472.09,253.42 L 470.60,253.69 L 473.42,254.59 L 468.43,256.86 L 467.90,258.17 L 469.42,257.67 L 467.44,258.98 L 468.48,258.76 L 464.04,260.18 L 462.86,262.19 L 458.18,260.62 L 461.94,262.56 L 446.68,265.81 L 445.76,265.40 L 448.32,264.94 L 448.21,263.53 L 445.99,263.31 L 443.04,264.57 L 440.58,267.85 L 442.69,265.91 L 445.15,265.54 L 444.11,266.78 L 448.32,265.54 L 441.54,267.89 L 434.88,271.74 L 433.98,271.44 L 434.02,272.74 L 423.28,280.68 L 411.96,284.76 L 410.07,286.99 L 408.45,287.00 L 409.35,287.57 L 408.32,288.34 L 393.75,293.41 L 391.44,295.56 L 392.49,296.46 L 393.09,295.26 L 393.39,295.78 L 392.38,299.36 L 383.06,302.15 L 377.04,301.50 L 374.45,302.04 L 370.22,308.07 L 368.47,307.26 L 368.23,305.32 L 366.70,308.74 L 366.17,306.92 L 364.36,306.66 L 357.68,308.91 L 353.80,315.52 L 355.32,321.19 L 356.26,321.26 L 355.89,323.65 L 353.69,325.15 L 355.21,324.91 L 358.26,333.47 L 355.32,330.34 L 355.21,331.54 L 354.50,330.71 L 353.80,331.54 L 354.94,332.82 L 358.49,333.59 L 358.59,336.11 L 355.97,343.35 L 351.93,346.77 L 352.98,346.51 L 349.23,351.64 L 348.65,353.73 L 349.80,355.86 L 348.61,355.94 L 347.35,356.78 L 350.04,356.29 L 350.44,367.69 L 345.31,367.63 L 345.82,367.14 L 340.68,368.13 L 340.56,370.49 L 334.30,376.59 L 337.06,378.49 L 341.62,378.31 L 343.54,380.02 L 335.59,378.72 L 325.72,380.66 L 321.80,383.08 L 321.45,384.42 L 322.35,384.29 L 320.63,385.46 L 319.63,388.66 L 310.30,391.79 L 306.84,391.19 L 301.49,388.61 L 293.75,382.70 L 295.88,381.66 L 293.48,382.32 L 290.66,378.21 L 289.78,376.39 L 288.49,371.39 L 288.75,371.28 L 291.19,374.37 L 290.56,376.09 L 293.06,375.93 L 291.41,375.56 L 291.19,372.58 L 287.56,369.73 L 288.56,368.28 L 287.07,368.48 L 279.92,355.97 L 272.89,350.23 L 274.06,349.41 L 270.65,348.89 L 264.38,340.17 L 266.32,339.59 L 264.21,339.77 L 262.02,334.12 L 261.63,331.39 L 262.81,331.16 L 261.99,330.53 L 261.52,331.09 L 258.70,327.06 L 257.56,324.78 L 258.93,324.68 L 257.33,324.12 L 256.24,321.63 L 257.54,322.22 L 256.36,321.19 L 255.36,321.66 L 256.02,320.74 L 254.94,320.76 L 254.55,319.58 L 251.87,318.77 L 254.24,317.87 L 252.13,318.20 L 248.73,315.67 L 249.57,314.87 L 248.36,312.80 L 246.50,312.09 L 249.67,312.46 L 246.74,311.65 L 247.93,310.68 L 246.22,311.12 L 245.72,310.31 L 247.45,309.34 L 245.40,309.71 L 240.76,304.91 L 241.46,303.60 L 240.76,304.42 L 238.29,299.86 L 239.59,300.02 L 238.49,299.14 L 239.46,299.03 L 236.31,291.46 L 237.37,291.69 L 235.26,288.74 L 236.54,288.41 L 235.18,287.98 L 233.85,283.19 L 231.86,281.48 L 232.08,280.81 L 234.09,281.90 L 234.33,280.95 L 231.25,279.25 L 231.82,278.10 L 233.36,278.81 L 230.57,276.10 L 231.86,274.93 L 233.02,275.97 L 232.79,274.45 L 231.34,274.20 L 234.08,272.88 L 232.91,273.06 L 232.68,271.28 L 230.05,274.10 L 229.18,273.61 L 229.44,269.64 L 233.96,270.68 L 229.06,268.92 L 228.90,267.81 L 231.04,267.26 L 228.36,267.22 L 228.53,264.57 L 227.60,264.93 L 227.10,263.79 L 232.20,253.92 L 231.40,252.74 L 230.32,253.09 L 231.20,251.50 L 229.21,251.05 L 230.54,250.79 L 229.85,249.90 L 226.52,250.16 L 228.56,249.15 L 225.66,247.12 L 228.78,246.39 L 225.98,246.77 L 230.08,244.31 L 231.22,244.35 L 235.37,243.07 L 225.41,244.06 L 225.70,242.08 L 228.56,240.50 L 225.28,241.41 L 224.58,240.70 L 225.84,238.33 L 228.80,238.66 L 231.70,237.49 L 223.97,237.91 L 222.70,237.68 L 222.79,236.45 L 221.61,237.61 L 220.11,237.16 L 218.54,237.42 L 221.24,237.94 L 221.26,239.58 L 218.96,240.70 L 217.66,240.36 L 216.49,241.11 L 218.67,241.25 L 218.89,242.16 L 216.99,241.54 L 217.78,242.23 L 216.07,241.99 L 215.93,242.62 L 218.84,242.68 L 221.11,244.50 L 217.79,249.08 L 201.29,253.86 L 194.44,254.37 L 182.70,249.64 L 163.71,237.23 L 165.92,235.20 L 165.89,236.10 L 168.12,235.93 L 168.29,237.46 L 172.87,236.72 L 173.49,235.57 L 175.20,236.57 L 177.21,235.22 L 178.26,235.89 L 181.31,234.55 L 184.82,234.33 L 188.19,230.63 L 190.41,229.79 L 190.38,228.44 L 188.59,228.82 L 188.49,230.21 L 184.01,229.64 L 184.09,230.33 L 178.92,231.11 L 176.91,232.32 L 174.68,232.17 L 162.37,229.35 L 157.00,226.75 L 157.93,226.03 L 156.72,224.99 L 154.80,224.72 L 155.86,223.98 L 154.59,224.19 L 154.54,222.82 L 161.61,220.02 L 154.87,221.81 L 153.15,223.19 L 150.00,222.91 L 152.27,222.33 L 150.35,221.33 L 152.06,219.40 L 159.94,219.08 L 160.33,215.10 L 161.90,216.13 L 163.02,215.22 L 164.02,215.90 L 174.29,215.69 L 176.89,216.87 L 181.29,216.90 L 183.45,215.45 L 188.90,214.33 L 191.40,214.09 L 191.48,215.74 L 194.70,216.19 L 200.30,214.23 L 198.49,213.65 L 198.11,212.35 L 199.98,211.28 L 196.29,206.06 L 192.97,203.52 L 192.96,200.50 L 186.04,200.14 L 182.88,197.18 L 184.48,191.20 L 178.61,190.65 L 173.29,188.97 L 173.80,184.73 L 187.62,175.10 L 190.92,175.05 L 193.93,178.04 L 196.00,178.47 L 213.85,175.66 L 214.43,173.75 L 218.56,171.38 L 222.06,166.88 L 231.92,163.83 L 237.09,158.52 L 239.44,154.27 L 249.27,151.44 L 247.68,149.43 L 255.68,143.77 L 261.49,141.70 L 258.88,140.71 L 260.78,137.63 L 258.59,134.88 L 259.64,133.62 L 264.40,131.47 L 272.37,130.13 L 273.48,128.90 L 267.74,126.68 L 262.02,126.62 L 260.99,125.35 L 261.95,122.71 L 260.04,123.56 L 256.14,123.41 L 255.55,120.94 L 250.26,118.94 L 252.92,115.50 L 249.64,112.89 L 254.88,110.42 L 248.40,109.41 L 250.06,107.63 L 246.37,105.97 L 248.84,103.02 L 256.19,101.60 L 280.95,104.48 L 284.84,102.64 L 295.61,101.89 L 297.41,100.06 L 301.78,99.28 L 302.28,97.97 L 315.25,93.75 L 316.67,94.45 Z M 369.02,308.47 L 367.75,307.70 L 368.09,307.32 L 369.02,308.47 Z M 244.08,370.12 L 243.93,370.25 L 244.13,369.85 L 244.08,370.12 Z M 244.37,369.36 L 244.31,369.34 L 244.33,369.30 L 244.37,369.36 Z M 226.92,364.79 L 226.73,364.85 L 227.09,364.64 L 226.92,364.79 Z M 225.39,362.40 L 225.26,362.47 L 225.25,362.43 L 225.39,362.40 Z M 244.76,361.87 L 244.82,361.88 L 244.62,361.91 L 244.76,361.87 Z M 228.74,358.82 L 228.65,358.82 L 228.65,358.77 L 228.74,358.82 Z M 233.29,354.68 L 233.20,354.79 L 233.18,354.61 L 233.29,354.68 Z M 228.06,352.53 L 227.99,352.54 L 228.06,352.48 L 228.06,352.53 Z M 589.96,346.30 L 589.93,346.18 L 590.08,346.08 L 589.96,346.30 Z M 597.44,333.67 L 597.17,333.70 L 596.95,333.60 L 597.44,333.67 Z M 590.81,405.57 L 589.63,406.25 L 586.46,403.34 L 586.93,401.51 L 589.57,400.92 L 591.10,403.22 L 590.81,405.57 Z M 587.82,399.82 L 585.93,400.66 L 587.28,398.65 L 587.82,399.82 Z M 583.13,394.04 L 580.57,393.16 L 581.69,392.43 L 583.13,394.04 Z M 585.18,392.95 L 585.17,393.43 L 584.09,392.83 L 585.18,392.95 Z M 583.64,392.70 L 582.99,390.94 L 583.99,390.15 L 583.64,392.70 Z M 234.54,389.26 L 234.24,389.67 L 233.52,389.84 L 234.54,389.26 Z M 576.48,389.70 L 576.79,388.75 L 577.13,389.62 L 576.48,389.70 Z M 586.10,387.33 L 585.64,387.85 L 585.75,386.43 L 586.10,387.33 Z M 572.48,380.17 L 570.75,380.32 L 571.09,378.91 L 572.48,380.17 Z M 567.40,365.17 L 564.81,365.12 L 565.58,361.63 L 567.27,361.14 L 568.25,362.49 L 567.40,365.17 Z M 568.40,355.89 L 569.12,354.48 L 570.16,355.07 L 568.40,355.89 Z M 563.12,354.09 L 562.55,354.25 L 561.96,353.50 L 563.12,354.09 Z M 576.49,350.23 L 574.45,349.25 L 575.60,348.73 L 576.49,350.23 Z M 577.12,348.03 L 576.96,348.15 L 576.37,347.47 L 577.12,347.07 L 577.12,348.03 Z M 570.64,339.65 L 569.92,340.47 L 569.92,338.68 L 570.78,338.57 L 570.64,339.65 Z M 575.98,337.59 L 574.27,337.54 L 574.54,338.58 L 573.24,339.17 L 574.74,339.73 L 575.19,343.49 L 574.26,344.57 L 572.73,344.42 L 573.90,345.46 L 573.54,346.91 L 571.20,348.29 L 570.86,350.46 L 571.28,349.79 L 571.92,350.23 L 569.94,352.94 L 571.27,352.79 L 570.51,354.63 L 567.22,350.69 L 568.00,349.87 L 568.81,350.59 L 569.91,346.75 L 571.80,346.88 L 570.52,345.20 L 571.64,341.91 L 570.86,340.36 L 572.52,338.24 L 572.74,334.52 L 575.55,331.98 L 576.69,333.95 L 574.96,334.51 L 576.25,335.18 L 575.98,337.59 Z M 576.25,331.31 L 575.19,331.01 L 575.92,330.87 L 576.25,331.31 Z M 505.39,245.15 L 505.33,245.54 L 504.14,245.53 L 505.39,245.15 Z M 491.83,241.97 L 492.30,241.85 L 492.18,244.46 L 490.66,243.64 L 491.83,241.97 Z M 501.27,241.45 L 500.85,242.75 L 499.80,242.32 L 501.27,241.45 Z M 491.11,241.48 L 491.83,241.04 L 491.93,241.65 L 491.18,242.08 L 491.11,241.48 Z M 219.06,361.65 L 219.42,361.33 L 219.42,361.48 L 219.06,361.65 Z M 229.61,357.21 L 229.26,357.98 L 229.18,357.79 L 229.61,357.21 Z" fill="#4A90D9" stroke="#1a5fa8" stroke-width="1.2"/>
<path d="M 774.20,345.02 L 772.08,343.58 L 767.22,342.82 L 765.17,340.17 L 763.99,340.62 L 761.07,339.73 L 758.53,335.43 L 763.78,336.31 L 767.68,341.03 L 771.39,341.21 L 771.24,343.25 L 772.57,343.00 L 774.20,345.02 Z" fill="#A8C8E8" stroke="none"/>
<path d="M 529.59,147.93 L 528.76,146.66 L 529.40,143.84 L 533.99,144.65 L 536.09,143.57 L 541.56,143.85 L 541.04,144.92 L 538.50,144.95 L 537.69,146.33 L 529.59,147.93 Z" fill="#A8C8E8" stroke="none"/>
<path d="M 474.97,23.90 L 467.20,24.73 L 470.01,23.02 L 469.54,21.60 L 478.45,22.79 L 480.10,24.69 L 474.97,23.90 Z" fill="#A8C8E8" stroke="none"/>
<path d="M 511.15,133.89 L 509.06,136.53 L 505.90,135.84 L 505.84,134.62 L 500.98,134.81 L 499.33,133.48 L 502.29,133.02 L 503.60,133.77 L 507.07,132.43 L 512.70,133.72 L 511.15,133.89 Z" fill="#A8C8E8" stroke="none"/>
<path d="M 514.43,72.22 L 508.13,71.01 L 516.22,70.59 L 518.44,71.83 L 514.43,72.22 Z" fill="#A8C8E8" stroke="none"/>
<path d="M 659.23,101.07 L 655.75,100.85 L 655.02,101.52 L 653.13,100.34 L 656.95,98.18 L 659.23,101.07 Z" fill="#A8C8E8" stroke="none"/>
<path d="M 679.34,454.02 L 675.07,454.17 L 672.48,451.30 L 675.93,453.15 L 677.44,452.28 L 674.03,449.70 L 671.66,450.74 L 669.71,448.18 L 674.31,449.00 L 678.86,453.52 L 680.17,453.20 L 679.34,454.02 Z" fill="#A8C8E8" stroke="none"/>
<path d="M 652.12,99.49 L 649.01,100.99 L 644.76,99.16 L 652.12,99.49 Z" fill="#A8C8E8" stroke="none"/>
<path d="M 374.04,146.96 L 371.86,146.13 L 373.15,145.95 L 373.25,144.28 L 375.07,144.55 L 374.13,145.38 L 375.36,146.15 L 374.04,146.96 Z" fill="#A8C8E8" stroke="none"/>
<path d="M 380.33,145.98 L 377.73,147.33 L 376.20,146.81 L 376.96,144.91 L 380.33,145.98 Z" fill="#A8C8E8" stroke="none"/>
<path d="M 406.70,137.73 L 404.96,136.78 L 403.20,137.18 L 401.21,136.38 L 406.21,135.49 L 405.75,136.03 L 410.19,137.87 L 406.70,137.73 Z" fill="#A8C8E8" stroke="none"/>
<path d="M 469.19,141.07 L 466.08,141.76 L 464.55,144.52 L 462.92,145.11 L 462.00,144.01 L 465.34,141.64 L 466.65,138.61 L 468.13,138.84 L 469.19,141.07 Z" fill="#A8C8E8" stroke="none"/>
<path d="M 536.50,164.63 L 537.13,165.74 L 535.25,165.38 L 534.16,166.68 L 532.70,166.72 L 531.50,165.51 L 533.46,166.42 L 533.46,165.53 L 534.99,165.23 L 534.29,164.80 L 535.90,164.55 L 535.25,162.83 L 533.81,162.33 L 530.80,163.50 L 530.19,163.14 L 533.40,162.18 L 535.33,162.40 L 536.70,162.81 L 537.01,164.36 L 540.19,164.09 L 541.43,165.76 L 536.50,164.63 Z" fill="#A8C8E8" stroke="none"/>
<path d="M 546.93,92.83 L 545.83,93.43 L 539.97,92.27 L 546.93,92.83 Z" fill="#A8C8E8" stroke="none"/>
<path d="M 452.41,145.36 L 451.01,143.98 L 448.28,144.57 L 444.12,143.08 L 445.50,141.73 L 453.76,143.10 L 452.41,145.36 Z" fill="#A8C8E8" stroke="none"/>
<path d="M 523.95,116.49 L 523.93,115.71 L 527.12,116.56 L 529.05,115.90 L 529.12,112.99 L 530.98,115.52 L 529.33,117.40 L 523.95,116.49 Z" fill="#A8C8E8" stroke="none"/>
<path d="M 523.11,116.68 L 520.61,118.09 L 520.91,116.27 L 518.22,115.52 L 523.27,115.30 L 523.11,116.68 Z" fill="#A8C8E8" stroke="none"/>
<path d="M 283.37,129.81 L 285.17,129.93 L 287.83,133.12 L 283.33,132.13 L 283.37,129.81 Z" fill="#A8C8E8" stroke="none"/>
<path d="M 550.00,132.28 L 549.05,132.51 L 548.35,130.95 L 550.15,130.45 L 550.00,132.28 Z" fill="#A8C8E8" stroke="none"/>
<path d="M 482.18,133.36 L 479.82,133.44 L 481.23,132.15 L 483.05,132.25 L 482.18,133.36 Z" fill="#A8C8E8" stroke="none"/>
<path d="M 331.12,113.50 L 326.12,110.23 L 331.66,112.95 L 335.14,112.83 L 331.12,113.50 Z" fill="#A8C8E8" stroke="none"/>
<path d="M 422.99,148.56 L 422.58,149.87 L 421.46,147.96 L 422.99,148.56 Z" fill="#A8C8E8" stroke="none"/>
<path d="M 545.22,215.04 L 542.73,216.45 L 541.19,216.90 L 542.12,217.81 L 540.72,219.13 L 541.76,217.69 L 540.13,217.06 L 545.22,215.04 Z" fill="#A8C8E8" stroke="none"/>
<path d="M 478.23,103.81 L 475.77,103.60 L 475.96,103.31 L 478.64,103.19 L 478.23,103.81 Z" fill="#A8C8E8" stroke="none"/>
<path d="M 557.14,96.78 L 560.31,96.11 L 563.35,96.71 L 561.01,97.38 L 557.14,96.78 Z" fill="#A8C8E8" stroke="none"/>
<path d="M 371.28,394.13 L 369.87,394.77 L 369.92,394.45 L 372.44,392.62 L 371.28,394.13 Z" fill="#A8C8E8" stroke="none"/>
<path d="M 259.99,105.85 L 259.21,106.68 L 259.48,105.51 L 261.33,105.67 L 259.99,105.85 Z" fill="#A8C8E8" stroke="none"/>
<path d="M 245.16,118.59 L 244.23,119.44 L 243.01,118.39 L 243.34,117.39 L 244.38,118.47 L 245.92,117.39 L 245.10,118.36 L 247.62,119.11 L 245.16,118.59 Z" fill="#A8C8E8" stroke="none"/>
<path d="M 277.58,208.63 L 277.72,210.67 L 273.83,210.49 L 276.93,209.80 L 277.58,208.63 Z" fill="#A8C8E8" stroke="none"/>
<path d="M 494.52,76.74 L 495.65,75.84 L 499.21,75.78 L 499.03,76.97 L 497.85,76.66 L 496.72,77.57 L 494.52,76.74 Z" fill="#A8C8E8" stroke="none"/>
<path d="M 614.63,77.80 L 614.01,78.73 L 609.10,77.10 L 614.63,77.80 Z" fill="#A8C8E8" stroke="none"/>
<path d="M 540.88,65.44 L 541.47,65.98 L 539.66,66.56 L 536.15,65.50 L 537.74,64.67 L 540.88,65.44 Z" fill="#A8C8E8" stroke="none"/>
<path d="M 575.80,91.73 L 573.89,91.90 L 568.63,89.97 L 571.69,89.81 L 575.80,91.73 Z" fill="#A8C8E8" stroke="none"/>
<path d="M 559.95,93.09 L 556.67,93.62 L 554.55,92.94 L 556.20,92.12 L 559.95,93.09 Z" fill="#A8C8E8" stroke="none"/>
<path d="M 525.44,91.13 L 525.05,90.57 L 529.94,90.30 L 527.70,91.49 L 525.44,91.13 Z" fill="#A8C8E8" stroke="none"/>
<path d="M 527.47,97.58 L 525.59,96.75 L 528.49,97.20 L 529.83,96.01 L 530.87,96.90 L 530.68,96.09 L 535.12,96.91 L 527.47,97.58 Z" fill="#A8C8E8" stroke="none"/>
<path d="M 531.90,100.80 L 530.29,101.37 L 532.56,101.77 L 531.58,102.57 L 528.41,100.92 L 530.67,100.12 L 536.66,100.87 L 531.90,100.80 Z" fill="#A8C8E8" stroke="none"/>
<path d="M 530.65,100.11 L 530.76,100.11 L 530.67,100.12 L 530.65,100.11 Z" fill="#A8C8E8" stroke="none"/>
<path d="M 513.27,96.80 L 509.21,95.83 L 511.70,94.96 L 513.27,96.80 Z" fill="#A8C8E8" stroke="none"/>
<path d="M 510.70,104.20 L 508.38,103.69 L 506.72,104.63 L 504.14,103.16 L 510.83,103.57 L 510.70,104.20 Z" fill="#A8C8E8" stroke="none"/>
<path d="M 516.39,85.76 L 512.00,84.49 L 511.74,83.29 L 516.79,85.10 L 516.39,85.76 Z" fill="#A8C8E8" stroke="none"/>
<path d="M 534.75,140.40 L 533.52,141.11 L 533.53,138.89 L 534.85,138.99 L 534.75,140.40 Z" fill="#A8C8E8" stroke="none"/>
<path d="M 495.82,134.00 L 492.10,134.06 L 494.64,133.32 L 495.82,134.00 Z" fill="#A8C8E8" stroke="none"/>
<path d="M 488.40,135.72 L 486.74,135.87 L 488.76,134.25 L 491.30,133.98 L 492.75,134.70 L 488.40,135.72 Z" fill="#A8C8E8" stroke="none"/>
<path d="M 392.37,108.07 L 390.39,106.52 L 392.17,107.00 L 394.63,108.43 L 392.37,108.07 Z" fill="#A8C8E8" stroke="none"/>
<path d="M 381.25,110.98 L 379.60,109.72 L 377.02,110.35 L 379.12,108.70 L 383.65,109.64 L 381.25,110.98 Z" fill="#A8C8E8" stroke="none"/>
<path d="M 373.85,98.97 L 368.68,98.99 L 369.44,98.28 L 373.18,98.15 L 373.85,98.97 Z" fill="#A8C8E8" stroke="none"/>
<path d="M 545.10,111.37 L 543.66,111.80 L 543.94,110.71 L 545.10,111.37 Z" fill="#A8C8E8" stroke="none"/>
<path d="M 524.23,127.38 L 521.84,127.26 L 524.00,126.07 L 524.23,127.38 Z" fill="#A8C8E8" stroke="none"/>
<path d="M 540.13,131.49 L 536.50,131.02 L 538.61,130.06 L 540.13,131.49 Z" fill="#A8C8E8" stroke="none"/>
<path d="M 504.01,136.12 L 502.02,138.92 L 500.04,136.53 L 502.28,136.87 L 500.14,136.15 L 501.62,135.26 L 503.79,135.41 L 504.01,136.12 Z" fill="#A8C8E8" stroke="none"/>
<path d="M 497.89,142.67 L 490.33,139.22 L 491.66,139.26 L 499.49,141.87 L 497.89,142.67 Z" fill="#A8C8E8" stroke="none"/>
<path d="M 477.95,142.50 L 472.03,143.49 L 472.20,142.34 L 475.08,141.05 L 477.95,142.50 Z" fill="#A8C8E8" stroke="none"/>
<path d="M 458.98,146.66 L 458.69,145.58 L 461.20,146.36 L 461.27,147.16 L 458.98,146.66 Z" fill="#A8C8E8" stroke="none"/>
<path d="M 462.98,151.43 L 462.53,151.66 L 461.04,150.05 L 463.48,149.44 L 462.98,151.43 Z" fill="#A8C8E8" stroke="none"/>
<path d="M 420.94,138.53 L 422.90,138.38 L 421.22,137.76 L 422.18,137.02 L 423.51,138.89 L 420.51,139.48 L 420.94,138.53 Z" fill="#A8C8E8" stroke="none"/>
<path d="M 424.35,141.90 L 420.76,141.96 L 420.07,141.07 L 421.57,140.36 L 426.76,140.54 L 424.35,141.90 Z" fill="#A8C8E8" stroke="none"/>
<path d="M 415.25,143.94 L 413.53,144.71 L 413.43,143.46 L 415.21,143.31 L 415.25,143.94 Z" fill="#A8C8E8" stroke="none"/>
<path d="M 411.79,140.26 L 409.78,139.66 L 412.23,138.80 L 413.26,139.74 L 411.79,140.26 Z" fill="#A8C8E8" stroke="none"/>
<path d="M 435.51,152.31 L 433.66,149.48 L 434.37,150.02 L 435.51,152.31 Z" fill="#A8C8E8" stroke="none"/>
<path d="M 435.42,152.32 L 435.51,152.31 L 435.54,152.32 L 435.42,152.32 Z" fill="#A8C8E8" stroke="none"/>
<path d="M 451.14,155.71 L 449.85,156.19 L 449.72,153.88 L 451.14,155.71 Z" fill="#A8C8E8" stroke="none"/>
<path d="M 350.63,97.46 L 348.60,96.32 L 350.07,95.87 L 350.63,97.46 Z" fill="#A8C8E8" stroke="none"/>
<path d="M 531.85,168.49 L 533.16,169.45 L 529.35,169.43 L 528.56,168.43 L 531.85,168.49 Z" fill="#A8C8E8" stroke="none"/>
<path d="M 739.73,298.13 L 738.78,299.43 L 739.25,297.64 L 735.85,296.90 L 739.68,296.36 L 739.73,298.13 Z" fill="#A8C8E8" stroke="none"/>
<path d="M 292.24,344.42 L 291.89,343.46 L 292.89,344.13 L 293.94,344.27 L 292.24,344.42 Z" fill="#A8C8E8" stroke="none"/>
<path d="M 366.71,400.95 L 366.12,400.73 L 366.46,401.18 L 365.99,401.55 L 364.12,400.14 L 366.76,400.47 L 366.71,400.95 Z" fill="#A8C8E8" stroke="none"/>
<path d="M 278.36,331.24 L 276.87,331.01 L 277.33,332.12 L 276.41,332.87 L 277.11,332.06 L 275.82,331.46 L 278.06,330.48 L 278.36,331.24 Z" fill="#A8C8E8" stroke="none"/>
<path d="M 289.43,314.46 L 282.39,315.37 L 285.56,314.51 L 286.04,313.44 L 289.80,313.48 L 289.43,314.46 Z" fill="#A8C8E8" stroke="none"/>
<path d="M 745.80,278.06 L 739.74,278.87 L 737.65,275.59 L 739.47,276.82 L 740.26,276.35 L 740.28,277.27 L 742.73,276.16 L 741.69,277.27 L 745.80,278.06 Z" fill="#A8C8E8" stroke="none"/>
<path d="M 229.29,25.71 L 227.04,26.69 L 226.10,26.29 L 228.69,25.39 L 226.10,23.91 L 238.12,25.43 L 229.29,25.71 Z" fill="#A8C8E8" stroke="none"/>
<path d="M 152.23,33.74 L 148.13,33.45 L 146.04,31.29 L 155.05,32.55 L 152.23,33.74 Z" fill="#A8C8E8" stroke="none"/>
<path d="M 231.64,109.88 L 230.27,108.95 L 227.92,108.96 L 230.27,106.82 L 229.37,103.24 L 230.86,108.30 L 233.17,109.10 L 231.64,109.88 Z" fill="#A8C8E8" stroke="none"/>
<path d="M 187.34,41.36 L 184.91,41.90 L 178.73,41.90 L 188.16,40.31 L 187.34,41.36 Z" fill="#A8C8E8" stroke="none"/>
<path d="M 294.82,139.61 L 291.89,138.02 L 290.48,136.09 L 295.33,139.55 L 294.35,138.39 L 296.77,139.21 L 296.68,138.51 L 297.53,138.17 L 297.55,139.78 L 294.82,139.61 Z" fill="#A8C8E8" stroke="none"/>
<path d="M 421.93,244.61 L 418.36,246.08 L 415.61,243.75 L 414.08,243.42 L 412.32,244.69 L 409.29,243.72 L 412.38,244.16 L 412.43,243.11 L 415.25,242.82 L 417.65,244.26 L 419.60,243.82 L 420.34,244.81 L 419.94,242.86 L 421.93,244.61 Z" fill="#A8C8E8" stroke="none"/>
<path d="M 339.62,300.33 L 340.21,301.96 L 339.43,303.18 L 338.62,303.38 L 335.73,303.16 L 338.99,303.20 L 339.65,302.43 L 337.61,301.07 L 339.03,301.59 L 339.19,299.99 L 336.33,298.91 L 339.21,299.56 L 339.97,298.46 L 341.15,299.18 L 339.62,300.33 Z" fill="#A8C8E8" stroke="none"/>
<path d="M 303.98,3.42 L 303.50,2.71 L 307.60,1.86 L 321.68,2.75 L 318.86,3.67 L 303.98,3.42 Z" fill="#A8C8E8" stroke="none"/>
<path d="M 680.16,323.12 L 677.91,321.40 L 677.64,318.93 L 679.58,317.35 L 678.70,316.05 L 680.70,317.12 L 678.87,318.47 L 679.23,320.54 L 681.35,321.02 L 680.16,323.12 Z" fill="#A8C8E8" stroke="none"/>
<path d="M 564.88,233.21 L 562.41,232.91 L 563.35,233.66 L 562.31,233.29 L 561.96,234.41 L 564.41,234.93 L 562.09,235.31 L 561.34,232.90 L 559.84,232.10 L 560.20,231.87 L 559.37,231.35 L 559.59,231.13 L 558.90,230.43 L 558.78,229.27 L 561.96,233.21 L 562.78,232.25 L 561.01,229.57 L 562.55,229.27 L 564.88,233.21 Z" fill="#A8C8E8" stroke="none"/>
<path d="M 315.33,351.13 L 315.48,350.29 L 312.77,349.71 L 316.82,349.91 L 315.33,351.13 Z" fill="#A8C8E8" stroke="none"/>
<path d="M 277.80,214.29 L 276.81,213.75 L 273.25,216.38 L 272.43,215.27 L 277.77,211.67 L 277.80,214.29 Z" fill="#A8C8E8" stroke="none"/>
<path d="M 676.09,290.46 L 677.46,292.41 L 677.22,292.73 L 675.30,291.07 L 676.09,290.46 Z" fill="#A8C8E8" stroke="none"/>
<path d="M 705.01,286.29 L 701.27,285.86 L 704.07,283.60 L 705.73,283.50 L 703.75,284.67 L 705.01,286.29 Z" fill="#A8C8E8" stroke="none"/>
<path d="M 379.36,401.15 L 378.84,402.04 L 378.53,401.51 L 378.01,402.18 L 377.26,402.22 L 378.03,401.52 L 376.53,401.37 L 379.36,401.15 Z" fill="#A8C8E8" stroke="none"/>
<path d="M 324.27,16.58 L 315.75,18.32 L 317.21,18.98 L 309.79,21.29 L 300.45,21.23 L 291.23,19.29 L 289.07,19.59 L 287.80,18.27 L 314.98,15.19 L 323.91,14.97 L 320.07,16.28 L 324.27,16.58 Z" fill="#A8C8E8" stroke="none"/>
<path d="M 708.25,79.52 L 706.42,82.38 L 701.73,81.03 L 697.43,81.49 L 691.90,80.51 L 688.60,78.28 L 692.07,77.92 L 691.06,75.60 L 694.87,74.92 L 699.84,75.26 L 705.03,78.81 L 708.25,79.52 Z" fill="#A8C8E8" stroke="none"/>
<path d="M 145.91,35.93 L 138.74,36.86 L 140.82,39.38 L 136.02,37.52 L 135.95,36.46 L 115.28,33.88 L 130.17,33.90 L 135.01,34.50 L 137.42,35.29 L 136.81,35.87 L 139.67,35.87 L 148.13,33.45 L 145.91,35.93 Z" fill="#A8C8E8" stroke="none"/>
</svg>