<svg xmlns="http://www.w3.org/2000/svg" width="800" height="500" viewBox="0 0 800 500">
<rect width="800" height="500" fill="#A8C8E8"/>
<path d="M 538.76,406.25 L 519.96,383.02 L 538.76,405.28 L 547.43,399.40 L 538.76,406.25 Z M 554.21,386.97 L 550.30,396.29 L 540.47,377.13 L 554.21,386.97 Z M 271.06,295.82 L 269.35,296.30 L 268.13,295.76 L 271.06,295.82 Z M 245.79,256.86 L 247.38,255.73 L 247.44,257.53 L 245.79,256.86 Z M 267.30,229.12 L 270.68,228.42 L 268.32,231.68 L 267.30,229.12 Z M 371.71,123.06 L 371.14,122.77 L 373.48,123.00 L 371.71,123.06 Z M 488.29,106.83 L 487.62,107.61 L 485.91,108.04 L 488.29,106.83 Z M 367.32,99.84 L 366.91,101.08 L 364.81,102.01 L 367.32,99.84 Z M 372.69,94.76 L 372.16,95.48 L 370.61,95.11 L 372.69,94.76 Z M 420.97,94.19 L 421.23,93.75 L 422.17,93.82 L 420.97,94.19 Z" fill="#4A90D9" stroke="#1a5fa8" stroke-width="1.2"/>
</svg>