<svg xmlns="http://www.w3.org/2000/svg" width="800" height="500" viewBox="0 0 800 500">
<rect width="800" height="500" fill="#A8C8E8"/>
<path d="M 478.18,406.25 L 467.59,383.02 L 478.18,405.28 L 483.06,399.40 L 478.18,406.25 Z M 486.88,386.97 L 484.67,396.29 L 479.14,377.13 L 486.88,386.97 Z M 327.36,295.82 L 326.40,296.30 L 325.71,295.76 L 327.36,295.82 Z M 313.12,256.86 L 314.02,255.73 L 314.05,257.53 L 313.12,256.86 Z M 325.24,229.12 L 327.14,228.42 L 325.81,231.68 L 325.24,229.12 Z M 384.06,123.06 L 383.74,122.77 L 385.06,123.00 L 384.06,123.06 Z M 449.74,106.83 L 449.36,107.61 L 448.40,108.04 L 449.74,106.83 Z M 381.59,99.84 L 381.36,101.08 L 380.18,102.01 L 381.59,99.84 Z M 384.61,94.76 L 384.31,95.48 L 383.44,95.11 L 384.61,94.76 Z M 411.81,94.19 L 411.96,93.75 L 412.49,93.82 L 411.81,94.19 Z" fill="#4A90D9" stroke="#1a5fa8" stroke-width="1.2"/>
</svg>