<svg xmlns="http://www.w3.org/2000/svg" width="800" height="500" viewBox="0 0 800 500">
<rect width="800" height="500" fill="#A8C8E8"/>
<path d="M 154.30,260.89 L 152.75,263.74 L 152.75,255.82 L 154.30,260.89 Z" fill="#E8E0D0" stroke="#B8B0A0" stroke-width="0.5"/>
<path d="M 157.30,200.71 L 156.88,196.51 L 166.09,197.37 L 167.59,195.09 L 171.74,197.29 L 167.94,201.64 L 174.42,205.08 L 176.91,213.53 L 166.95,223.07 L 169.51,227.21 L 159.42,227.98 L 155.35,234.64 L 158.94,237.37 L 152.75,243.00 L 152.75,204.60 L 157.30,200.71 Z" fill="#E8E0D0" stroke="#B8B0A0" stroke-width="0.5"/>
<path d="M 581.83,5.45 L 577.45,12.52 L 581.31,21.31 L 577.08,19.53 L 574.87,30.95 L 570.96,33.62 L 573.12,29.09 L 567.43,25.30 L 565.98,34.68 L 563.14,37.10 L 564.48,53.61 L 556.07,55.05 L 549.98,46.66 L 546.67,47.34 L 536.65,37.90 L 538.72,34.19 L 546.14,32.07 L 540.22,22.07 L 547.57,17.93 L 535.96,5.63 L 508.51,20.59 L 489.93,36.69 L 489.23,29.15 L 486.18,24.87 L 492.73,24.10 L 485.09,16.75 L 490.25,11.30 L 479.51,9.84 L 469.05,0.00 L 582.54,0.00 L 581.83,5.45 Z M 455.96,32.08 L 451.94,24.67 L 446.93,24.18 L 434.99,5.70 L 443.17,3.15 L 446.79,10.52 L 450.32,9.59 L 455.84,13.78 L 467.00,11.51 L 466.07,18.29 L 473.25,22.82 L 472.37,26.52 L 477.99,37.39 L 455.96,32.08 Z" fill="#E8E0D0" stroke="#B8B0A0" stroke-width="0.5"/>
<path d="M 479.51,9.84 L 490.25,11.30 L 485.09,16.75 L 492.73,24.10 L 486.18,24.87 L 489.23,29.15 L 489.93,36.69 L 477.99,37.39 L 472.37,26.52 L 473.25,22.82 L 466.07,18.29 L 466.29,11.03 L 455.84,13.78 L 450.32,9.59 L 446.79,10.52 L 443.17,3.15 L 434.99,5.70 L 428.54,0.00 L 469.05,0.00 L 479.51,9.84 Z" fill="#E8E0D0" stroke="#B8B0A0" stroke-width="0.5"/>
<path d="M 446.93,24.18 L 451.94,24.67 L 455.96,32.08 L 477.68,37.43 L 491.18,36.40 L 508.51,20.59 L 535.96,5.63 L 547.57,17.93 L 540.22,22.07 L 546.14,32.07 L 538.72,34.19 L 536.65,37.90 L 546.67,47.34 L 549.98,46.66 L 556.07,55.05 L 564.48,53.61 L 566.70,73.65 L 572.64,84.23 L 582.41,89.08 L 606.22,93.06 L 610.22,101.98 L 631.78,116.54 L 647.25,120.32 L 647.25,451.48 L 644.26,450.21 L 634.18,427.47 L 633.48,419.84 L 625.46,412.37 L 626.04,409.99 L 628.44,411.77 L 629.41,407.80 L 626.58,404.56 L 620.38,404.45 L 620.74,392.91 L 604.62,374.44 L 602.36,364.71 L 597.34,364.40 L 585.26,371.24 L 583.61,366.21 L 576.20,366.19 L 575.44,362.11 L 573.55,363.65 L 565.96,357.72 L 574.86,359.01 L 576.79,355.12 L 575.12,352.98 L 567.87,352.63 L 569.63,355.77 L 566.39,356.29 L 564.10,359.05 L 565.78,370.51 L 551.53,372.51 L 549.41,363.76 L 537.30,354.59 L 537.25,334.75 L 526.54,334.54 L 526.73,318.94 L 531.64,303.91 L 520.80,290.97 L 518.26,281.65 L 513.66,278.27 L 508.14,278.66 L 488.83,262.90 L 476.76,260.54 L 477.50,256.49 L 474.65,254.82 L 478.98,252.46 L 478.60,248.99 L 472.89,240.28 L 469.04,240.15 L 471.42,238.01 L 470.09,234.99 L 465.31,236.80 L 457.45,223.37 L 454.12,222.05 L 459.31,215.78 L 459.72,209.27 L 455.28,204.27 L 458.01,202.39 L 457.92,198.71 L 464.27,200.23 L 461.92,193.83 L 463.17,190.58 L 468.96,186.81 L 470.95,179.99 L 478.47,179.08 L 477.49,171.26 L 472.56,164.63 L 473.81,157.83 L 484.03,152.95 L 475.60,150.92 L 465.77,152.66 L 459.16,145.75 L 452.23,145.75 L 449.65,130.31 L 444.39,129.54 L 441.84,125.37 L 443.22,119.49 L 436.53,114.97 L 438.55,107.16 L 434.30,103.86 L 435.84,96.71 L 428.59,91.50 L 429.35,80.71 L 416.91,73.89 L 425.01,57.23 L 419.67,55.57 L 419.21,38.15 L 415.32,33.58 L 416.42,26.76 L 412.98,24.68 L 410.99,18.11 L 422.78,16.59 L 425.04,5.86 L 428.39,3.32 L 436.01,8.08 L 446.93,24.18 Z M 610.61,400.10 L 610.35,401.98 L 608.99,399.71 L 610.61,400.10 Z" fill="#C8D8E8" stroke="#8BAABB" stroke-width="0.8"/>
<path d="M 154.54,269.64 L 159.92,277.04 L 183.31,284.76 L 245.47,244.78 L 254.40,277.83 L 251.90,278.64 L 253.50,284.18 L 260.04,283.25 L 261.81,287.34 L 251.44,296.79 L 188.14,315.80 L 220.42,353.27 L 209.87,359.61 L 204.27,372.31 L 180.85,377.63 L 172.90,391.19 L 158.35,402.69 L 152.75,401.68 L 152.75,269.88 L 154.54,269.64 Z" fill="#C8D8E8" stroke="#8BAABB" stroke-width="0.8"/>
<path d="M 542.45,389.40 L 535.78,388.10 L 527.54,396.13 L 540.03,396.65 L 541.87,409.21 L 549.30,419.56 L 547.98,423.44 L 550.54,427.22 L 526.38,427.48 L 518.99,410.07 L 490.51,406.25 L 500.65,393.08 L 509.85,371.98 L 526.58,368.39 L 535.22,372.33 L 542.45,389.40 Z M 549.15,393.82 L 549.42,395.23 L 545.37,393.64 L 549.15,393.82 Z M 544.10,387.21 L 541.97,386.09 L 538.32,379.64 L 543.10,374.92 L 540.68,372.81 L 542.83,372.72 L 548.01,383.06 L 544.10,387.21 Z M 537.85,373.20 L 537.21,372.84 L 540.32,371.05 L 537.85,373.20 Z" fill="#C8D8E8" stroke="#8BAABB" stroke-width="0.8"/>
<path d="M 158.84,488.91 L 152.75,479.66 L 152.75,401.13 L 160.03,402.31 L 172.90,391.19 L 180.85,377.63 L 204.27,372.31 L 209.87,359.61 L 220.42,353.27 L 188.14,315.80 L 251.44,296.79 L 257.57,292.00 L 295.87,298.90 L 349.73,331.32 L 432.37,402.24 L 518.97,410.07 L 526.38,427.48 L 552.49,428.74 L 551.67,433.01 L 553.78,432.24 L 557.46,445.89 L 561.88,447.36 L 560.36,449.09 L 564.75,454.17 L 564.49,456.32 L 563.37,457.88 L 562.53,454.10 L 561.47,458.22 L 564.67,459.43 L 563.14,462.26 L 576.03,464.81 L 578.33,468.45 L 572.24,468.73 L 576.79,469.76 L 575.51,472.88 L 578.33,472.36 L 578.64,477.62 L 581.48,477.69 L 580.29,479.76 L 586.52,478.06 L 590.55,486.97 L 605.04,498.05 L 599.68,495.80 L 600.32,500.00 L 164.45,500.00 L 158.84,488.91 Z M 586.94,472.39 L 590.21,473.39 L 582.86,474.43 L 586.94,472.39 Z" fill="#C8D8E8" stroke="#8BAABB" stroke-width="0.8"/>
<path d="M 154.30,260.89 L 152.75,255.10 L 152.75,243.74 L 158.94,237.37 L 155.35,234.64 L 156.20,232.03 L 162.20,226.69 L 169.12,227.71 L 166.95,223.07 L 176.91,213.53 L 174.42,205.08 L 167.94,201.64 L 171.74,197.29 L 167.59,195.09 L 166.09,197.37 L 156.88,196.51 L 153.63,186.15 L 156.64,175.82 L 155.27,167.52 L 152.75,164.98 L 152.75,155.13 L 152.79,155.06 L 152.75,154.95 L 152.75,150.55 L 157.21,148.29 L 162.81,152.23 L 164.05,147.35 L 169.14,145.75 L 169.61,136.93 L 178.81,136.88 L 174.61,127.44 L 178.04,114.26 L 188.30,117.06 L 191.09,122.12 L 203.51,121.58 L 228.09,111.22 L 236.16,113.21 L 243.90,119.32 L 260.16,120.56 L 276.76,117.50 L 306.57,103.97 L 330.92,104.91 L 347.64,101.13 L 354.02,95.50 L 358.30,98.71 L 359.26,105.41 L 342.41,122.20 L 327.94,126.03 L 324.51,132.13 L 323.24,143.25 L 327.24,158.55 L 322.12,174.11 L 322.21,191.10 L 314.67,205.88 L 305.99,208.53 L 245.47,244.78 L 183.71,284.62 L 170.08,282.25 L 152.75,270.25 L 152.75,263.74 L 154.30,260.89 Z" fill="#C8D8E8" stroke="#8BAABB" stroke-width="0.8"/>
<path d="M 436.01,8.08 L 428.39,3.32 L 425.04,5.86 L 422.78,16.59 L 410.99,18.11 L 412.98,24.68 L 416.42,26.76 L 415.32,33.58 L 419.21,38.15 L 419.67,55.57 L 425.01,57.23 L 416.91,73.89 L 429.35,80.71 L 428.40,90.88 L 435.84,96.71 L 434.72,102.41 L 429.80,101.03 L 419.52,108.93 L 416.21,104.46 L 417.94,98.82 L 413.30,96.01 L 404.50,100.22 L 382.56,93.75 L 376.95,95.68 L 372.00,93.59 L 364.57,102.44 L 358.63,103.61 L 358.30,98.71 L 354.02,95.50 L 347.64,101.13 L 330.92,104.91 L 306.57,103.97 L 276.76,117.50 L 260.16,120.56 L 243.90,119.32 L 236.16,113.21 L 228.09,111.22 L 203.51,121.58 L 191.09,122.12 L 188.30,117.06 L 178.04,114.26 L 174.61,127.44 L 179.00,136.57 L 169.61,136.93 L 169.14,145.75 L 164.05,147.35 L 162.21,152.33 L 155.03,148.63 L 157.06,144.83 L 152.75,137.01 L 152.75,132.48 L 164.50,121.27 L 163.80,115.25 L 158.47,110.55 L 152.75,113.62 L 152.75,0.00 L 427.78,0.00 L 436.01,8.08 Z" fill="#C8D8E8" stroke="#8BAABB" stroke-width="0.8"/>
<path d="M 438.55,107.16 L 436.78,115.62 L 443.56,120.30 L 441.84,125.37 L 444.75,129.94 L 449.65,130.31 L 452.23,145.75 L 459.16,145.75 L 465.77,152.66 L 475.60,150.92 L 484.03,152.95 L 473.81,157.83 L 472.56,164.63 L 477.49,171.26 L 478.47,179.08 L 470.95,179.99 L 468.96,186.81 L 463.17,190.58 L 461.92,193.83 L 464.27,200.23 L 457.92,198.71 L 458.01,202.39 L 455.28,204.27 L 459.72,209.27 L 459.31,215.78 L 454.12,222.05 L 457.45,223.37 L 465.31,236.80 L 470.09,234.99 L 471.42,238.01 L 469.04,240.15 L 472.89,240.28 L 478.60,248.99 L 478.98,252.46 L 474.65,254.82 L 477.50,256.49 L 476.76,260.54 L 488.83,262.90 L 508.14,278.66 L 513.66,278.27 L 518.26,281.65 L 520.80,290.97 L 531.64,303.91 L 526.73,318.94 L 526.54,334.54 L 537.25,334.75 L 537.30,354.59 L 546.52,360.29 L 551.18,372.05 L 554.53,374.12 L 540.63,370.40 L 535.89,371.95 L 535.34,368.77 L 534.81,368.06 L 535.22,372.33 L 526.58,368.39 L 511.51,370.81 L 500.65,393.08 L 490.51,406.25 L 432.37,402.24 L 349.73,331.32 L 297.57,299.58 L 257.21,292.12 L 261.81,287.34 L 260.04,283.25 L 253.50,284.18 L 251.90,278.64 L 254.40,277.83 L 245.47,244.78 L 305.99,208.53 L 314.67,205.88 L 322.21,191.10 L 322.12,174.11 L 327.24,158.55 L 323.24,143.25 L 324.51,132.13 L 327.94,126.03 L 342.41,122.20 L 358.63,103.61 L 365.08,102.23 L 369.95,94.35 L 382.56,93.75 L 404.50,100.22 L 413.30,96.01 L 417.94,98.82 L 416.21,104.46 L 419.52,108.93 L 429.80,101.03 L 438.55,107.16 Z" fill="#4A90D9" stroke="#1a5fa8" stroke-width="1.2"/>
<path d="M 388.01,246.67 L 390.65,242.03 L 397.79,247.75 L 394.30,251.68 L 388.01,246.67 Z" fill="#A8C8E8" stroke="none"/>
<path d="M 381.41,223.06 L 381.67,207.88 L 394.83,223.91 L 393.67,232.21 L 388.41,231.52 L 381.41,223.06 Z" fill="#A8C8E8" stroke="none"/>
<path d="M 231.62,47.42 L 235.90,42.03 L 232.90,49.08 L 254.91,56.86 L 249.47,59.10 L 246.45,53.94 L 233.03,50.73 L 231.62,47.42 Z" fill="#A8C8E8" stroke="none"/>
<path d="M 238.06,91.99 L 231.62,89.52 L 228.83,85.26 L 231.77,86.16 L 231.74,82.10 L 234.88,83.07 L 233.24,89.06 L 244.32,82.87 L 242.06,79.53 L 242.08,77.68 L 246.53,82.86 L 252.60,74.50 L 251.05,81.78 L 240.39,87.03 L 238.06,91.99 Z" fill="#A8C8E8" stroke="none"/>
<path d="M 230.80,153.63 L 231.05,150.84 L 223.34,145.76 L 221.79,140.02 L 227.22,132.82 L 228.13,136.00 L 224.96,138.15 L 224.74,142.82 L 238.62,149.71 L 230.80,153.63 Z" fill="#A8C8E8" stroke="none"/>
<path d="M 279.35,45.80 L 277.38,46.96 L 271.14,45.35 L 264.32,47.61 L 267.69,43.57 L 266.57,40.54 L 264.67,41.21 L 260.33,37.59 L 255.59,38.94 L 254.61,36.78 L 245.64,39.50 L 242.06,36.05 L 241.28,32.70 L 243.95,35.08 L 244.66,29.29 L 247.77,34.50 L 245.85,35.27 L 248.65,35.27 L 249.95,31.12 L 250.09,34.89 L 260.86,36.34 L 267.15,40.72 L 270.75,38.42 L 271.38,33.97 L 271.61,37.88 L 277.88,37.59 L 269.33,39.57 L 268.43,43.51 L 279.35,45.80 Z" fill="#A8C8E8" stroke="none"/>
<path d="M 407.30,269.99 L 407.11,273.23 L 403.22,277.50 L 392.99,270.93 L 391.73,263.50 L 393.87,263.50 L 395.83,254.48 L 407.30,269.99 Z" fill="#A8C8E8" stroke="none"/>
<path d="M 465.75,97.01 L 462.94,96.07 L 460.01,103.09 L 453.36,99.81 L 450.10,79.06 L 444.00,75.38 L 444.00,70.46 L 448.41,65.72 L 442.23,64.79 L 443.60,60.55 L 453.53,59.96 L 457.42,63.74 L 455.43,77.62 L 457.72,80.30 L 465.97,80.30 L 467.05,83.55 L 462.95,83.58 L 470.60,92.63 L 465.75,97.01 Z M 459.20,91.98 L 457.80,91.28 L 457.39,92.65 L 459.25,94.78 L 459.20,91.98 Z M 460.72,87.81 L 459.92,89.37 L 461.43,90.40 L 460.72,87.81 Z" fill="#A8C8E8" stroke="none"/>
<path d="M 376.89,57.01 L 375.03,50.90 L 369.20,53.43 L 356.82,50.83 L 362.95,46.41 L 362.12,42.18 L 381.85,39.64 L 385.47,36.33 L 382.00,37.59 L 381.21,34.85 L 391.62,32.18 L 399.75,34.25 L 388.69,38.45 L 381.56,46.90 L 388.92,49.52 L 388.61,53.40 L 383.08,58.04 L 376.89,57.01 Z" fill="#A8C8E8" stroke="none"/>
<path d="M 497.34,343.47 L 498.01,344.02 L 497.77,344.76 L 497.34,343.47 Z M 518.79,347.63 L 508.30,343.24 L 504.81,344.93 L 502.38,341.99 L 499.86,345.10 L 500.60,342.47 L 495.62,341.16 L 495.19,338.55 L 499.95,336.90 L 515.14,344.00 L 521.18,341.41 L 517.27,343.47 L 524.34,345.22 L 518.79,347.63 Z" fill="#A8C8E8" stroke="none"/>
</svg>