<svg xmlns="http://www.w3.org/2000/svg" width="800" height="500" viewBox="0 0 800 500">
<rect width="800" height="500" fill="#A8C8E8"/>
<path d="M 2.50,260.89 L 0.00,263.74 L 0.00,255.82 L 2.50,260.89 Z" fill="#E8E0D0" stroke="#B8B0A0" stroke-width="0.5"/>
<path d="M 7.36,200.71 L 6.68,196.51 L 21.59,197.37 L 24.01,195.09 L 30.72,197.29 L 24.57,201.64 L 35.06,205.08 L 39.09,213.53 L 22.97,223.07 L 27.11,227.21 L 10.80,227.98 L 4.21,234.64 L 10.02,237.37 L 0.00,243.00 L 0.00,204.60 L 7.36,200.71 Z" fill="#E8E0D0" stroke="#B8B0A0" stroke-width="0.5"/>
<path d="M 694.17,5.45 L 687.08,12.52 L 693.32,21.31 L 686.48,19.53 L 682.91,30.95 L 676.57,33.62 L 680.07,29.09 L 670.87,25.30 L 668.52,34.68 L 663.93,37.10 L 666.10,53.61 L 652.48,55.05 L 642.64,46.66 L 637.28,47.34 L 621.07,37.90 L 624.41,34.19 L 636.43,32.07 L 626.85,22.07 L 638.74,17.93 L 619.96,5.63 L 575.55,20.59 L 545.49,36.69 L 544.36,29.15 L 539.42,24.87 L 550.02,24.10 L 537.66,16.75 L 546.01,11.30 L 528.64,9.84 L 511.71,0.00 L 695.31,0.00 L 694.17,5.45 Z M 490.53,32.08 L 484.02,24.67 L 475.93,24.18 L 456.60,5.70 L 469.83,3.15 L 475.70,10.52 L 481.41,9.59 L 490.34,13.78 L 508.39,11.51 L 506.89,18.29 L 518.50,22.82 L 517.08,26.52 L 526.17,37.39 L 490.53,32.08 Z" fill="#E8E0D0" stroke="#B8B0A0" stroke-width="0.5"/>
<path d="M 528.64,9.84 L 546.01,11.30 L 537.66,16.75 L 550.02,24.10 L 539.42,24.87 L 544.36,29.15 L 545.49,36.69 L 526.17,37.39 L 517.08,26.52 L 518.50,22.82 L 506.89,18.29 L 507.24,11.03 L 490.34,13.78 L 481.41,9.59 L 475.70,10.52 L 469.83,3.15 L 456.60,5.70 L 446.17,0.00 L 511.71,0.00 L 528.64,9.84 Z" fill="#E8E0D0" stroke="#B8B0A0" stroke-width="0.5"/>
<path d="M 475.93,24.18 L 484.02,24.67 L 490.53,32.08 L 525.66,37.43 L 547.52,36.40 L 575.55,20.59 L 619.96,5.63 L 638.74,17.93 L 626.85,22.07 L 636.43,32.07 L 624.41,34.19 L 621.07,37.90 L 637.28,47.34 L 642.64,46.66 L 652.48,55.05 L 666.10,53.61 L 669.69,73.65 L 679.29,84.23 L 695.10,89.08 L 733.62,93.06 L 740.09,101.98 L 774.96,116.54 L 800.00,120.32 L 800.00,451.48 L 795.16,450.21 L 778.85,427.47 L 777.73,419.84 L 764.75,412.37 L 765.69,409.99 L 769.57,411.77 L 771.14,407.80 L 766.56,404.56 L 756.52,404.45 L 757.11,392.91 L 731.02,374.44 L 727.37,364.71 L 719.26,364.40 L 699.72,371.24 L 697.04,366.21 L 685.05,366.19 L 683.83,362.11 L 680.77,363.65 L 668.49,357.72 L 682.89,359.01 L 686.00,355.12 L 683.31,352.98 L 671.57,352.63 L 674.43,355.77 L 669.19,356.29 L 665.49,359.05 L 668.19,370.51 L 645.15,372.51 L 641.71,363.76 L 622.12,354.59 L 622.05,334.75 L 604.71,334.54 L 605.02,318.94 L 612.96,303.91 L 595.43,290.97 L 591.32,281.65 L 583.88,278.27 L 574.95,278.66 L 543.72,262.90 L 524.18,260.54 L 525.38,256.49 L 520.77,254.82 L 527.77,252.46 L 527.16,248.99 L 517.92,240.28 L 511.69,240.15 L 515.54,238.01 L 513.39,234.99 L 505.66,236.80 L 492.95,223.37 L 487.56,222.05 L 495.95,215.78 L 496.61,209.27 L 489.43,204.27 L 493.85,202.39 L 493.71,198.71 L 503.97,200.23 L 500.18,193.83 L 502.19,190.58 L 511.57,186.81 L 514.79,179.99 L 526.94,179.08 L 525.36,171.26 L 517.38,164.63 L 519.42,157.83 L 535.94,152.95 L 522.31,150.92 L 506.40,152.66 L 495.72,145.75 L 484.49,145.75 L 480.33,130.31 L 471.82,129.54 L 467.68,125.37 L 469.92,119.49 L 459.10,114.97 L 462.37,107.16 L 455.49,103.86 L 457.98,96.71 L 446.26,91.50 L 447.48,80.71 L 427.35,73.89 L 440.47,57.23 L 431.82,55.57 L 431.07,38.15 L 424.79,33.58 L 426.56,26.76 L 420.99,24.68 L 417.78,18.11 L 436.85,16.59 L 440.50,5.86 L 445.93,3.32 L 458.26,8.08 L 475.93,24.18 Z M 740.72,400.10 L 740.30,401.98 L 738.10,399.71 L 740.72,400.10 Z" fill="#C8D8E8" stroke="#8BAABB" stroke-width="0.8"/>
<path d="M 2.89,269.64 L 11.61,277.04 L 49.44,284.76 L 150.00,244.78 L 164.44,277.83 L 160.41,278.64 L 162.99,284.18 L 173.57,283.25 L 176.44,287.34 L 159.65,296.79 L 57.25,315.80 L 109.47,353.27 L 92.41,359.61 L 83.35,372.31 L 45.46,377.63 L 32.60,391.19 L 9.06,402.69 L 0.00,401.68 L 0.00,269.88 L 2.89,269.64 Z" fill="#C8D8E8" stroke="#8BAABB" stroke-width="0.8"/>
<path d="M 630.45,389.40 L 619.66,388.10 L 606.33,396.13 L 626.55,396.65 L 629.52,409.21 L 641.53,419.56 L 639.40,423.44 L 643.54,427.22 L 604.46,427.48 L 592.50,410.07 L 546.43,406.25 L 562.83,393.08 L 577.72,371.98 L 604.77,368.39 L 618.77,372.33 L 630.45,389.40 Z M 641.30,393.82 L 641.73,395.23 L 635.18,393.64 L 641.30,393.82 Z M 633.12,387.21 L 629.68,386.09 L 623.78,379.64 L 631.51,374.92 L 627.60,372.81 L 631.07,372.72 L 639.45,383.06 L 633.12,387.21 Z M 623.01,373.20 L 621.97,372.84 L 627.00,371.05 L 623.01,373.20 Z" fill="#C8D8E8" stroke="#8BAABB" stroke-width="0.8"/>
<path d="M 9.86,488.91 L 0.00,479.66 L 0.00,401.13 L 11.77,402.31 L 32.60,391.19 L 45.46,377.63 L 83.35,372.31 L 92.41,359.61 L 109.47,353.27 L 57.25,315.80 L 159.65,296.79 L 169.58,292.00 L 231.54,298.90 L 318.68,331.32 L 452.37,402.24 L 592.47,410.07 L 604.46,427.48 L 646.70,428.74 L 645.38,433.01 L 648.79,432.24 L 654.74,445.89 L 661.89,447.36 L 659.42,449.09 L 666.53,454.17 L 666.11,456.32 L 664.31,457.88 L 662.94,454.10 L 661.22,458.22 L 666.40,459.43 L 663.93,462.26 L 684.77,464.81 L 688.50,468.45 L 678.64,468.73 L 686.00,469.76 L 683.94,472.88 L 688.50,472.36 L 689.01,477.62 L 693.59,477.69 L 691.68,479.76 L 701.76,478.06 L 708.27,486.97 L 731.72,498.05 L 723.03,495.80 L 724.08,500.00 L 18.92,500.00 L 9.86,488.91 Z M 702.42,472.39 L 707.72,473.39 L 695.84,474.43 L 702.42,472.39 Z" fill="#C8D8E8" stroke="#8BAABB" stroke-width="0.8"/>
<path d="M 2.50,260.89 L 0.00,255.10 L 0.00,243.74 L 10.02,237.37 L 4.21,234.64 L 5.59,232.03 L 15.29,226.69 L 26.49,227.71 L 22.97,223.07 L 39.09,213.53 L 35.06,205.08 L 24.57,201.64 L 30.72,197.29 L 24.01,195.09 L 21.59,197.37 L 6.68,196.51 L 1.42,186.15 L 6.30,175.82 L 4.08,167.52 L 0.00,164.98 L 0.00,155.13 L 0.06,155.06 L 0.00,154.95 L 0.00,150.55 L 7.21,148.29 L 16.28,152.23 L 18.28,147.35 L 26.52,145.75 L 27.28,136.93 L 42.17,136.88 L 35.37,127.44 L 40.92,114.26 L 57.52,117.06 L 62.03,122.12 L 82.12,121.58 L 121.88,111.22 L 134.95,113.21 L 147.47,119.32 L 173.77,120.56 L 200.63,117.50 L 248.85,103.97 L 288.24,104.91 L 315.29,101.13 L 325.61,95.50 L 332.54,98.71 L 334.10,105.41 L 306.84,122.20 L 283.42,126.03 L 277.88,132.13 L 275.82,143.25 L 282.30,158.55 L 274.01,174.11 L 274.16,191.10 L 261.95,205.88 L 247.91,208.53 L 150.00,244.78 L 50.09,284.62 L 28.04,282.25 L 0.00,270.25 L 0.00,263.74 L 2.50,260.89 Z" fill="#C8D8E8" stroke="#8BAABB" stroke-width="0.8"/>
<path d="M 458.26,8.08 L 445.93,3.32 L 440.50,5.86 L 436.85,16.59 L 417.78,18.11 L 420.99,24.68 L 426.56,26.76 L 424.79,33.58 L 431.07,38.15 L 431.82,55.57 L 440.47,57.23 L 427.35,73.89 L 447.48,80.71 L 445.94,90.88 L 457.98,96.71 L 456.17,102.41 L 448.21,101.03 L 431.58,108.93 L 426.22,104.46 L 429.03,98.82 L 421.52,96.01 L 407.28,100.22 L 371.79,93.75 L 362.71,95.68 L 354.70,93.59 L 342.68,102.44 L 333.08,103.61 L 332.54,98.71 L 325.61,95.50 L 315.29,101.13 L 288.24,104.91 L 248.85,103.97 L 200.63,117.50 L 173.77,120.56 L 147.47,119.32 L 134.95,113.21 L 121.88,111.22 L 82.12,121.58 L 62.03,122.12 L 57.52,117.06 L 40.92,114.26 L 35.37,127.44 L 42.46,136.57 L 27.28,136.93 L 26.52,145.75 L 18.28,147.35 L 15.30,152.33 L 3.69,148.63 L 6.97,144.83 L 0.00,137.01 L 0.00,132.48 L 19.01,121.27 L 17.88,115.25 L 9.26,110.55 L 0.00,113.62 L 0.00,0.00 L 444.94,0.00 L 458.26,8.08 Z" fill="#C8D8E8" stroke="#8BAABB" stroke-width="0.8"/>
<path d="M 462.37,107.16 L 459.50,115.62 L 470.47,120.30 L 467.68,125.37 L 472.40,129.94 L 480.33,130.31 L 484.49,145.75 L 495.72,145.75 L 506.40,152.66 L 522.31,150.92 L 535.94,152.95 L 519.42,157.83 L 517.38,164.63 L 525.36,171.26 L 526.94,179.08 L 514.79,179.99 L 511.57,186.81 L 502.19,190.58 L 500.18,193.83 L 503.97,200.23 L 493.71,198.71 L 493.85,202.39 L 489.43,204.27 L 496.61,209.27 L 495.95,215.78 L 487.56,222.05 L 492.95,223.37 L 505.66,236.80 L 513.39,234.99 L 515.54,238.01 L 511.69,240.15 L 517.92,240.28 L 527.16,248.99 L 527.77,252.46 L 520.77,254.82 L 525.38,256.49 L 524.18,260.54 L 543.72,262.90 L 574.95,278.66 L 583.88,278.27 L 591.32,281.65 L 595.43,290.97 L 612.96,303.91 L 605.02,318.94 L 604.71,334.54 L 622.05,334.75 L 622.12,354.59 L 637.04,360.29 L 644.58,372.05 L 650.00,374.12 L 627.51,370.40 L 619.84,371.95 L 618.95,368.77 L 618.09,368.06 L 618.77,372.33 L 604.77,368.39 L 580.39,370.81 L 562.83,393.08 L 546.43,406.25 L 452.37,402.24 L 318.68,331.32 L 234.30,299.58 L 169.00,292.12 L 176.44,287.34 L 173.57,283.25 L 162.99,284.18 L 160.41,278.64 L 164.44,277.83 L 150.00,244.78 L 247.91,208.53 L 261.95,205.88 L 274.16,191.10 L 274.01,174.11 L 282.30,158.55 L 275.82,143.25 L 277.88,132.13 L 283.42,126.03 L 306.84,122.20 L 333.08,103.61 L 343.50,102.23 L 351.39,94.35 L 371.79,93.75 L 407.28,100.22 L 421.52,96.01 L 429.03,98.82 L 426.22,104.46 L 431.58,108.93 L 448.21,101.03 L 462.37,107.16 Z" fill="#4A90D9" stroke="#1a5fa8" stroke-width="1.2"/>
<path d="M 380.60,246.67 L 384.87,242.03 L 396.43,247.75 L 390.79,251.68 L 380.60,246.67 Z" fill="#A8C8E8" stroke="none"/>
<path d="M 369.92,223.06 L 370.34,207.88 L 391.64,223.91 L 389.76,232.21 L 381.25,231.52 L 369.92,223.06 Z" fill="#A8C8E8" stroke="none"/>
<path d="M 127.60,47.42 L 134.52,42.03 L 129.67,49.08 L 165.28,56.86 L 156.48,59.10 L 151.59,53.94 L 129.88,50.73 L 127.60,47.42 Z" fill="#A8C8E8" stroke="none"/>
<path d="M 138.02,91.99 L 127.60,89.52 L 123.08,85.26 L 127.84,86.16 L 127.79,82.10 L 132.88,83.07 L 130.21,89.06 L 148.14,82.87 L 144.49,79.53 L 144.52,77.68 L 151.72,82.86 L 161.53,74.50 L 159.03,81.78 L 141.78,87.03 L 138.02,91.99 Z" fill="#A8C8E8" stroke="none"/>
<path d="M 126.27,153.63 L 126.68,150.84 L 114.21,145.76 L 111.70,140.02 L 120.48,132.82 L 121.96,136.00 L 116.83,138.15 L 116.46,142.82 L 138.92,149.71 L 126.27,153.63 Z" fill="#A8C8E8" stroke="none"/>
<path d="M 204.82,45.80 L 201.63,46.96 L 191.52,45.35 L 180.50,47.61 L 185.94,43.57 L 184.14,40.54 L 181.07,41.21 L 174.05,37.59 L 166.37,38.94 L 164.79,36.78 L 150.28,39.50 L 144.49,36.05 L 143.22,32.70 L 147.54,35.08 L 148.70,29.29 L 153.72,34.50 L 150.61,35.27 L 155.15,35.27 L 157.24,31.12 L 157.48,34.89 L 174.90,36.34 L 185.07,40.72 L 190.91,38.42 L 191.92,33.97 L 192.29,37.88 L 202.43,37.59 L 188.61,39.57 L 187.15,43.51 L 204.82,45.80 Z" fill="#A8C8E8" stroke="none"/>
<path d="M 411.81,269.99 L 411.50,273.23 L 405.21,277.50 L 388.66,270.93 L 386.62,263.50 L 390.08,263.50 L 393.25,254.48 L 411.81,269.99 Z" fill="#A8C8E8" stroke="none"/>
<path d="M 506.37,97.01 L 501.83,96.07 L 497.09,103.09 L 486.33,99.81 L 481.05,79.06 L 471.19,75.38 L 471.19,70.46 L 478.32,65.72 L 468.31,64.79 L 470.54,60.55 L 486.60,59.96 L 492.89,63.74 L 489.67,77.62 L 493.37,80.30 L 506.73,80.30 L 508.47,83.55 L 501.84,83.58 L 514.22,92.63 L 506.37,97.01 Z M 495.78,91.98 L 493.51,91.28 L 492.85,92.65 L 495.85,94.78 L 495.78,91.98 Z M 498.23,87.81 L 496.94,89.37 L 499.37,90.40 L 498.23,87.81 Z" fill="#A8C8E8" stroke="none"/>
<path d="M 362.61,57.01 L 359.60,50.90 L 350.17,53.43 L 330.14,50.83 L 340.06,46.41 L 338.73,42.18 L 370.64,39.64 L 376.50,36.33 L 370.89,37.59 L 369.61,34.85 L 386.44,32.18 L 399.60,34.25 L 381.70,38.45 L 370.16,46.90 L 382.08,49.52 L 381.58,53.40 L 372.63,58.04 L 362.61,57.01 Z" fill="#A8C8E8" stroke="none"/>
<path d="M 557.48,343.47 L 558.56,344.02 L 558.17,344.76 L 557.48,343.47 Z M 592.18,347.63 L 575.20,343.24 L 569.56,344.93 L 565.63,341.99 L 561.56,345.10 L 562.75,342.47 L 554.70,341.16 L 553.99,338.55 L 561.69,336.90 L 586.27,344.00 L 596.05,341.41 L 589.72,343.47 L 601.15,345.22 L 592.18,347.63 Z" fill="#A8C8E8" stroke="none"/>
</svg>