<svg xmlns="http://www.w3.org/2000/svg" width="800" height="500" viewBox="0 0 800 500">
<rect width="800" height="500" fill="#A8C8E8"/>
<path d="M 674.06,464.99 L 676.37,461.02 L 676.34,462.77 L 677.04,462.67 L 677.04,468.63 L 674.06,464.99 Z M 672.65,449.59 L 667.02,444.49 L 668.00,443.09 L 666.73,441.06 L 664.71,440.54 L 665.83,439.09 L 664.50,439.50 L 664.45,436.81 L 671.85,431.35 L 664.78,434.83 L 662.98,437.54 L 659.68,436.99 L 662.06,435.86 L 660.05,433.91 L 661.85,430.12 L 670.11,429.50 L 670.52,421.72 L 672.16,423.74 L 673.33,421.95 L 674.38,423.30 L 677.04,423.19 L 677.04,451.46 L 672.65,449.59 Z" fill="#E8E0D0" stroke="#B8B0A0" stroke-width="0.5"/>
<path d="M 122.97,154.47 L 127.56,155.59 L 131.96,159.03 L 141.19,159.72 L 150.62,158.00 L 167.55,150.39 L 181.37,150.92 L 190.87,148.79 L 194.49,145.62 L 196.92,147.43 L 197.47,151.20 L 187.90,160.64 L 179.68,162.80 L 177.73,166.23 L 177.01,172.49 L 179.29,181.10 L 176.38,189.86 L 176.43,199.42 L 172.14,207.73 L 167.21,209.23 L 132.84,229.62 L 122.96,235.94 L 122.96,154.48 L 122.97,154.47 Z" fill="#E8E0D0" stroke="#B8B0A0" stroke-width="0.5"/>
<path d="M 448.02,401.85 L 445.79,402.94 L 445.58,402.09 L 446.52,400.48 L 448.02,401.85 Z M 446.92,402.08 L 447.02,401.73 L 446.60,401.54 L 446.92,402.08 Z M 445.58,380.67 L 445.66,381.85 L 449.10,381.70 L 447.38,381.56 L 448.37,378.06 L 450.83,378.64 L 449.00,380.55 L 450.59,381.27 L 449.60,381.56 L 450.45,383.16 L 447.74,382.59 L 447.87,383.89 L 450.33,384.17 L 448.67,385.45 L 449.98,387.39 L 448.73,387.83 L 446.85,394.18 L 444.45,393.26 L 445.14,385.95 L 443.24,384.97 L 445.58,380.67 Z M 452.81,418.22 L 462.50,429.75 L 483.41,436.82 L 488.20,436.26 L 491.39,438.49 L 504.92,459.33 L 510.46,460.45 L 510.23,466.22 L 501.84,483.06 L 496.64,486.62 L 489.93,496.16 L 490.78,497.46 L 488.41,500.00 L 427.41,500.00 L 435.35,471.71 L 427.26,456.31 L 427.96,447.43 L 433.57,433.65 L 432.10,429.54 L 441.81,427.03 L 440.65,424.07 L 437.46,423.87 L 438.79,409.19 L 441.95,408.44 L 442.37,410.46 L 441.09,410.30 L 443.63,413.24 L 448.72,407.98 L 452.81,418.22 Z M 494.19,500.00 L 493.27,500.00 L 493.98,498.93 L 494.19,500.00 Z" fill="#E8E0D0" stroke="#B8B0A0" stroke-width="0.5"/>
<path d="M 667.54,85.29 L 674.82,86.83 L 671.01,87.08 L 672.91,91.36 L 670.72,89.19 L 671.24,91.29 L 670.41,92.61 L 668.34,91.97 L 666.39,98.37 L 652.05,96.78 L 646.84,99.90 L 645.45,105.35 L 651.15,107.22 L 651.56,110.25 L 658.92,110.46 L 660.21,113.31 L 658.31,114.53 L 658.10,119.88 L 663.50,126.76 L 661.57,132.36 L 659.30,133.22 L 654.05,141.30 L 653.17,148.51 L 648.20,146.53 L 643.82,148.59 L 639.28,144.35 L 630.55,144.78 L 630.54,135.89 L 632.43,131.40 L 619.02,125.47 L 614.13,126.23 L 591.41,110.64 L 588.06,111.10 L 580.14,105.97 L 575.98,101.46 L 557.60,88.58 L 555.82,79.63 L 551.89,76.50 L 547.29,64.87 L 539.31,61.14 L 536.59,64.18 L 529.03,62.15 L 522.18,63.02 L 515.29,59.25 L 514.89,56.60 L 516.56,55.10 L 514.48,51.52 L 518.13,50.95 L 511.92,46.99 L 513.55,46.05 L 514.11,42.04 L 511.20,39.81 L 500.30,38.89 L 498.28,35.08 L 493.77,34.64 L 488.27,29.47 L 487.31,32.37 L 482.36,31.63 L 479.90,33.01 L 483.22,35.04 L 486.53,39.95 L 484.86,40.16 L 483.56,37.10 L 478.01,35.66 L 476.09,37.13 L 475.04,42.21 L 466.64,42.80 L 459.40,48.51 L 460.14,57.63 L 462.68,59.71 L 460.31,61.95 L 441.46,60.69 L 441.42,0.00 L 534.34,0.00 L 534.44,0.21 L 549.95,14.82 L 571.15,11.69 L 593.01,13.40 L 601.91,9.75 L 612.57,18.71 L 617.56,27.64 L 623.05,25.23 L 621.39,46.22 L 630.28,46.42 L 634.38,64.17 L 655.99,63.27 L 657.73,66.62 L 659.47,66.90 L 656.95,71.54 L 665.39,76.35 L 668.13,75.83 L 667.35,69.36 L 675.61,63.09 L 675.70,59.58 L 677.04,59.14 L 677.04,84.79 L 667.54,85.29 Z" fill="#E8E0D0" stroke="#B8B0A0" stroke-width="0.5"/>
<path d="M 675.70,59.58 L 675.61,63.09 L 667.35,69.36 L 668.13,75.83 L 665.39,76.35 L 656.95,71.54 L 659.47,66.90 L 657.73,66.62 L 655.99,63.27 L 634.38,64.17 L 630.28,46.42 L 621.39,46.22 L 623.05,25.23 L 617.56,27.64 L 612.57,18.71 L 601.91,9.75 L 593.01,13.40 L 571.15,11.69 L 549.95,14.82 L 534.44,0.21 L 534.34,0.00 L 677.04,0.00 L 677.04,59.14 L 675.70,59.58 Z M 441.46,60.69 L 431.99,61.60 L 423.02,50.62 L 422.24,47.72 L 408.17,39.10 L 395.43,40.79 L 387.65,43.59 L 377.94,51.61 L 378.90,48.36 L 377.30,44.31 L 382.22,34.83 L 380.21,30.50 L 382.84,33.84 L 383.30,31.37 L 378.54,28.72 L 374.99,29.30 L 373.13,27.43 L 368.52,28.38 L 363.83,20.96 L 357.10,21.75 L 357.80,15.20 L 349.66,3.24 L 349.43,0.00 L 441.43,0.00 L 441.46,60.69 Z" fill="#E8E0D0" stroke="#B8B0A0" stroke-width="0.5"/>
<path d="M 673.04,145.34 L 673.54,146.59 L 672.10,145.53 L 671.83,147.19 L 669.11,146.61 L 657.70,154.11 L 653.26,150.47 L 654.05,141.30 L 659.30,133.22 L 661.57,132.36 L 663.50,126.76 L 658.10,119.88 L 658.31,114.53 L 660.21,113.31 L 658.92,110.46 L 651.56,110.25 L 651.15,107.22 L 645.45,105.35 L 647.92,98.59 L 652.05,96.78 L 666.39,98.37 L 668.34,91.97 L 670.41,92.61 L 671.24,91.29 L 670.72,89.19 L 672.91,91.36 L 671.01,87.08 L 674.82,86.83 L 667.54,85.29 L 677.04,84.79 L 677.04,148.44 L 673.04,145.34 Z" fill="#E8E0D0" stroke="#B8B0A0" stroke-width="0.5"/>
<path d="M 289.42,8.43 L 286.96,11.84 L 287.65,14.16 L 290.16,6.64 L 292.98,6.45 L 289.20,15.19 L 289.25,18.73 L 290.90,18.66 L 289.11,20.51 L 288.68,24.59 L 292.92,27.85 L 293.45,32.19 L 300.06,38.84 L 305.27,47.61 L 308.72,49.56 L 304.98,55.20 L 299.30,57.72 L 296.02,63.10 L 290.22,63.16 L 285.21,61.09 L 282.93,55.79 L 280.88,55.69 L 275.75,49.44 L 272.64,50.81 L 271.89,48.78 L 261.28,45.67 L 255.85,42.00 L 257.05,35.49 L 250.31,35.01 L 246.73,31.35 L 242.00,30.14 L 240.46,33.32 L 238.77,30.90 L 235.70,30.33 L 225.50,34.54 L 221.61,33.00 L 223.01,30.42 L 211.43,26.25 L 205.59,21.44 L 183.13,20.45 L 166.52,13.58 L 159.01,12.79 L 156.13,13.32 L 154.16,16.68 L 134.90,0.00 L 285.18,0.00 L 289.42,8.43 Z M 294.08,5.30 L 291.67,4.57 L 292.34,3.86 L 295.67,3.80 L 294.08,5.30 Z" fill="#E8E0D0" stroke="#B8B0A0" stroke-width="0.5"/>
<path d="M 448.48,396.34 L 448.72,407.98 L 443.63,413.24 L 441.21,410.62 L 442.37,410.46 L 441.46,408.11 L 438.24,409.93 L 437.46,423.87 L 440.65,424.07 L 441.81,427.03 L 432.10,429.54 L 433.57,433.65 L 427.96,447.43 L 426.07,458.01 L 380.11,451.32 L 362.53,426.60 L 362.80,420.58 L 363.53,423.94 L 366.14,423.19 L 366.67,428.75 L 368.81,429.51 L 376.21,428.60 L 380.86,424.31 L 382.31,425.77 L 391.00,425.14 L 398.61,427.76 L 403.80,427.38 L 413.63,422.55 L 414.68,419.26 L 416.27,419.26 L 413.46,417.39 L 416.41,417.96 L 417.51,412.85 L 425.38,407.15 L 428.97,401.97 L 429.81,403.23 L 429.36,401.50 L 433.79,395.22 L 435.14,396.12 L 441.12,390.01 L 440.72,391.01 L 440.99,391.11 L 443.24,384.97 L 445.14,385.95 L 444.45,393.26 L 448.48,396.34 Z M 445.58,402.09 L 445.79,402.94 L 448.02,401.85 L 446.52,400.48 L 445.58,402.09 Z M 446.60,401.54 L 447.02,401.73 L 446.92,402.08 L 446.60,401.54 Z M 403.25,422.92 L 405.34,425.09 L 401.93,426.00 L 399.82,425.40 L 403.25,422.92 Z M 407.99,422.99 L 408.04,421.99 L 409.35,422.87 L 409.39,423.93 L 407.99,422.99 Z M 381.77,421.86 L 380.71,423.38 L 380.07,422.24 L 381.77,421.86 Z M 391.34,422.66 L 394.61,421.98 L 395.51,419.99 L 395.93,421.51 L 393.82,423.18 L 391.34,422.66 Z M 411.98,418.80 L 413.08,417.65 L 414.41,419.73 L 411.98,418.80 Z M 409.95,422.72 L 409.28,421.60 L 410.14,421.16 L 409.95,422.72 Z M 412.00,421.32 L 411.51,422.09 L 410.98,421.02 L 412.00,421.32 Z M 376.18,418.10 L 375.73,418.65 L 375.17,418.20 L 376.18,418.10 Z" fill="#E8E0D0" stroke="#B8B0A0" stroke-width="0.5"/>
<path d="M 180.38,30.56 L 175.46,29.37 L 173.18,25.24 L 170.18,23.69 L 160.84,22.04 L 158.76,18.25 L 154.58,16.76 L 155.89,13.66 L 166.52,13.58 L 183.13,20.45 L 205.59,21.44 L 211.43,26.25 L 223.01,30.42 L 221.61,33.00 L 225.50,34.54 L 235.70,30.33 L 238.77,30.90 L 240.46,33.32 L 242.00,30.14 L 247.31,31.55 L 250.31,35.01 L 257.79,36.26 L 255.85,42.00 L 261.52,45.79 L 269.75,48.08 L 268.35,51.24 L 265.85,51.80 L 265.92,54.56 L 274.92,61.79 L 273.25,65.53 L 270.98,66.59 L 266.56,63.37 L 261.91,63.95 L 257.25,61.84 L 257.87,60.40 L 249.57,57.90 L 243.72,61.94 L 241.30,61.72 L 241.79,63.09 L 229.82,62.64 L 216.72,65.30 L 215.52,63.55 L 210.49,62.24 L 211.94,61.17 L 204.45,56.81 L 205.07,55.22 L 201.20,55.23 L 199.01,58.35 L 189.77,56.78 L 187.35,58.56 L 182.11,56.60 L 186.65,50.07 L 180.38,30.56 Z" fill="#E8E0D0" stroke="#B8B0A0" stroke-width="0.5"/>
<path d="M 349.63,411.86 L 347.69,397.00 L 349.41,397.58 L 348.30,394.67 L 349.59,393.68 L 350.34,396.20 L 351.75,393.78 L 350.14,393.04 L 351.87,386.66 L 356.66,382.86 L 359.12,386.96 L 362.51,388.80 L 362.74,392.39 L 361.21,392.91 L 362.01,394.10 L 360.62,396.43 L 361.46,401.20 L 363.05,402.09 L 363.11,407.04 L 358.26,416.65 L 357.14,414.67 L 351.77,416.70 L 348.71,412.90 L 349.63,411.86 Z" fill="#E8E0D0" stroke="#B8B0A0" stroke-width="0.5"/>
<path d="M 351.77,416.70 L 356.98,415.49 L 357.58,417.77 L 359.24,415.35 L 361.09,416.36 L 357.15,422.22 L 362.37,423.32 L 362.80,427.10 L 380.11,451.32 L 425.80,458.07 L 427.26,456.31 L 435.35,471.71 L 427.41,500.00 L 146.41,500.00 L 140.02,490.20 L 138.34,485.82 L 139.96,483.92 L 138.84,476.62 L 135.66,471.13 L 136.99,471.22 L 139.45,462.69 L 138.15,463.49 L 137.12,454.97 L 133.29,450.04 L 133.27,446.83 L 127.07,433.35 L 122.96,430.01 L 122.96,262.84 L 136.23,258.89 L 139.72,256.19 L 161.47,260.08 L 192.06,278.32 L 238.99,318.23 L 288.17,322.63 L 292.38,332.43 L 307.21,333.14 L 306.75,335.54 L 307.94,335.10 L 310.03,342.79 L 312.54,343.62 L 311.68,344.59 L 314.17,347.45 L 314.02,348.65 L 313.39,349.53 L 312.91,347.41 L 312.31,349.72 L 314.13,350.40 L 313.26,352.00 L 320.58,353.43 L 321.89,355.48 L 318.42,355.64 L 321.01,356.22 L 320.28,357.97 L 321.89,357.68 L 322.06,360.64 L 323.67,360.68 L 323.00,361.85 L 326.54,360.89 L 328.82,365.90 L 337.06,372.14 L 334.01,370.87 L 334.76,375.75 L 338.10,379.38 L 336.75,385.50 L 334.80,381.99 L 334.03,386.23 L 336.03,386.49 L 338.83,394.08 L 336.81,391.93 L 336.88,392.64 L 342.67,398.22 L 344.30,406.35 L 351.77,416.70 Z M 326.77,357.70 L 328.63,358.26 L 324.46,358.84 L 326.77,357.70 Z" fill="#E8E0D0" stroke="#B8B0A0" stroke-width="0.5"/>
<path d="M 301.51,311.00 L 297.72,310.27 L 293.04,314.79 L 300.14,315.08 L 301.18,322.15 L 305.40,327.97 L 304.65,330.15 L 306.10,332.28 L 292.38,332.43 L 288.19,322.63 L 272.01,320.48 L 277.77,313.07 L 282.99,301.20 L 292.49,299.18 L 297.40,301.39 L 301.51,311.00 Z M 305.32,313.49 L 305.46,314.28 L 303.17,313.39 L 305.32,313.49 Z M 302.45,309.77 L 301.24,309.14 L 299.16,305.51 L 301.88,302.85 L 300.50,301.66 L 301.72,301.62 L 304.66,307.43 L 302.45,309.77 Z M 298.89,301.88 L 298.53,301.68 L 300.30,300.67 L 298.89,301.88 Z" fill="#E8E0D0" stroke="#B8B0A0" stroke-width="0.5"/>
<path d="M 132.84,229.62 L 137.91,248.22 L 136.50,248.68 L 137.40,251.79 L 141.12,251.27 L 142.13,253.57 L 136.23,258.89 L 122.96,262.84 L 122.96,235.92 L 132.84,229.62 Z" fill="#E8E0D0" stroke="#B8B0A0" stroke-width="0.5"/>
<path d="M 345.80,383.17 L 344.35,390.74 L 342.27,382.83 L 342.85,381.11 L 344.86,381.19 L 344.11,382.14 L 345.80,383.17 Z M 341.73,382.73 L 341.81,383.71 L 341.14,383.65 L 341.73,382.73 Z M 345.97,380.38 L 346.39,381.84 L 345.20,381.14 L 345.97,380.38 Z M 348.58,391.98 L 347.79,395.19 L 347.51,393.19 L 348.58,391.98 Z M 348.39,391.47 L 348.41,391.60 L 348.22,391.68 L 348.39,391.47 Z M 348.92,393.09 L 348.87,393.29 L 348.72,393.40 L 348.92,393.09 Z M 348.87,393.82 L 348.77,394.09 L 348.40,394.11 L 348.87,393.82 Z" fill="#E8E0D0" stroke="#B8B0A0" stroke-width="0.5"/>
<path d="M 675.77,265.71 L 671.53,267.21 L 669.23,263.56 L 664.62,263.38 L 666.97,264.01 L 666.05,264.61 L 659.60,262.49 L 656.50,266.46 L 649.38,268.76 L 650.14,271.29 L 652.99,271.63 L 652.89,272.92 L 645.38,275.60 L 639.81,275.00 L 638.16,273.33 L 633.74,275.86 L 631.10,280.51 L 627.80,281.66 L 626.04,288.49 L 626.71,296.07 L 625.17,300.04 L 627.34,302.19 L 624.74,304.77 L 603.95,311.04 L 593.93,310.40 L 588.45,312.22 L 586.90,314.30 L 577.62,311.94 L 558.04,313.85 L 528.75,304.28 L 545.93,283.27 L 546.37,279.70 L 543.86,272.09 L 528.34,269.51 L 527.50,258.19 L 528.50,253.48 L 523.70,236.28 L 523.78,234.30 L 530.12,226.60 L 522.78,223.95 L 522.44,213.32 L 525.15,209.75 L 529.58,209.49 L 526.15,205.30 L 530.60,202.71 L 532.71,198.96 L 534.18,192.85 L 533.38,189.57 L 534.90,188.64 L 536.38,181.88 L 542.39,185.87 L 549.61,185.69 L 553.67,188.78 L 554.61,192.03 L 557.23,189.06 L 561.92,189.74 L 568.86,185.73 L 568.79,181.75 L 571.26,180.16 L 569.28,176.82 L 575.14,176.51 L 583.38,173.14 L 586.17,173.80 L 586.38,171.54 L 593.93,168.00 L 599.33,153.83 L 599.33,150.01 L 604.43,147.57 L 612.93,147.06 L 616.95,140.23 L 626.52,145.48 L 639.28,144.35 L 643.82,148.59 L 648.20,146.53 L 652.57,147.65 L 653.04,150.19 L 657.47,154.10 L 669.11,146.61 L 671.83,147.19 L 672.10,145.53 L 673.54,146.59 L 673.04,145.34 L 677.04,147.80 L 677.04,264.17 L 675.77,265.71 Z" fill="#C8D8E8" stroke="#8BAABB" stroke-width="0.8"/>
<path d="M 245.15,63.33 L 248.10,64.49 L 245.78,66.21 L 252.04,67.16 L 255.27,70.44 L 251.22,74.43 L 253.96,79.40 L 262.09,84.02 L 260.20,88.57 L 254.91,89.41 L 257.85,90.04 L 265.76,97.42 L 271.86,98.24 L 268.93,101.31 L 273.27,105.45 L 269.55,105.88 L 271.28,108.28 L 271.68,112.53 L 264.90,112.92 L 261.71,106.81 L 262.20,104.72 L 258.13,102.17 L 258.25,98.09 L 252.32,99.64 L 249.18,97.28 L 247.18,97.80 L 245.12,93.65 L 240.48,95.09 L 232.42,88.04 L 227.16,88.59 L 220.58,86.43 L 221.58,85.18 L 218.68,78.62 L 221.33,75.77 L 221.57,72.56 L 216.54,65.26 L 229.82,62.64 L 241.79,63.09 L 241.30,61.72 L 244.56,61.35 L 245.15,63.33 Z M 243.93,66.57 L 244.80,67.03 L 244.86,65.93 L 243.93,66.57 Z M 248.48,67.97 L 247.70,67.66 L 247.87,68.15 L 248.48,67.97 Z M 253.12,74.96 L 254.58,75.01 L 254.34,75.57 L 253.12,74.96 Z" fill="#C8D8E8" stroke="#8BAABB" stroke-width="0.8"/>
<path d="M 244.86,65.93 L 244.80,67.03 L 243.93,66.57 L 244.86,65.93 Z M 249.00,58.08 L 252.86,58.39 L 257.87,60.40 L 256.82,61.23 L 259.24,63.09 L 266.24,63.27 L 271.37,66.57 L 273.60,65.09 L 274.81,61.48 L 268.09,57.03 L 265.69,53.60 L 265.85,51.80 L 268.09,51.45 L 270.19,48.61 L 272.21,48.95 L 272.64,50.81 L 275.75,49.44 L 280.88,55.69 L 282.93,55.79 L 285.21,61.09 L 295.26,63.31 L 299.30,57.72 L 305.39,54.80 L 308.72,49.56 L 317.04,58.72 L 319.78,66.31 L 325.94,72.03 L 325.94,74.88 L 338.48,78.23 L 341.23,83.78 L 338.34,81.49 L 332.30,80.93 L 325.11,85.50 L 323.87,94.95 L 321.39,98.93 L 323.58,103.87 L 321.18,102.87 L 319.92,109.30 L 317.70,110.80 L 318.93,108.25 L 315.69,106.12 L 314.87,111.40 L 313.26,112.76 L 314.02,122.05 L 309.24,122.86 L 305.79,118.14 L 303.90,118.52 L 298.21,113.21 L 299.39,111.12 L 303.60,109.93 L 300.24,104.30 L 304.42,101.97 L 297.82,95.05 L 282.23,103.47 L 271.68,112.53 L 271.28,108.28 L 269.55,105.88 L 273.27,105.45 L 268.93,101.31 L 271.86,98.24 L 265.76,97.42 L 257.85,90.04 L 254.91,89.41 L 260.20,88.57 L 262.09,84.02 L 253.96,79.40 L 251.22,74.43 L 255.27,70.44 L 252.04,67.16 L 245.78,66.21 L 248.10,64.49 L 245.15,63.33 L 244.56,61.35 L 249.00,58.08 Z M 254.34,75.57 L 254.58,75.01 L 253.12,74.96 L 254.34,75.57 Z M 252.39,109.93 L 250.10,105.76 L 247.26,105.49 L 240.48,95.09 L 245.12,93.65 L 247.18,97.80 L 249.18,97.28 L 252.32,99.64 L 258.66,98.36 L 258.13,102.17 L 262.20,104.72 L 261.71,106.81 L 264.90,112.92 L 252.39,109.93 Z M 247.87,68.15 L 247.70,67.66 L 248.48,67.97 L 247.87,68.15 Z M 344.49,82.19 L 344.35,81.60 L 345.10,81.60 L 344.49,82.19 Z M 340.56,80.28 L 340.07,78.54 L 340.68,78.69 L 340.56,80.28 Z" fill="#C8D8E8" stroke="#8BAABB" stroke-width="0.8"/>
<path d="M 242.50,152.18 L 241.49,156.94 L 245.34,159.58 L 244.37,162.43 L 246.02,165.00 L 248.81,165.21 L 250.27,173.90 L 254.21,173.90 L 257.96,177.79 L 263.54,176.81 L 268.33,177.95 L 262.53,180.69 L 261.81,184.52 L 264.61,188.25 L 265.17,192.65 L 260.90,193.17 L 259.77,197.00 L 256.48,199.12 L 255.78,200.95 L 257.11,204.56 L 253.50,203.70 L 253.55,205.77 L 252.00,206.83 L 254.52,209.64 L 254.29,213.31 L 251.34,216.83 L 253.24,217.57 L 257.70,225.13 L 260.41,224.11 L 261.17,225.81 L 259.81,227.01 L 262.00,227.09 L 265.25,231.99 L 265.46,233.94 L 263.00,235.27 L 264.62,236.21 L 264.20,238.49 L 271.06,239.82 L 282.02,248.68 L 285.16,248.47 L 287.77,250.37 L 289.21,255.61 L 295.37,262.90 L 292.58,271.35 L 292.47,280.13 L 298.56,280.25 L 298.58,291.41 L 303.82,294.62 L 306.47,301.24 L 308.37,302.40 L 300.47,300.31 L 297.78,301.18 L 297.47,299.39 L 297.17,298.99 L 297.40,301.39 L 292.49,299.18 L 283.93,300.54 L 277.77,313.07 L 272.01,320.48 L 238.99,318.23 L 192.06,278.32 L 162.44,260.46 L 139.51,256.26 L 142.13,253.57 L 141.12,251.27 L 137.40,251.79 L 136.50,248.68 L 137.91,248.22 L 132.84,229.62 L 167.21,209.23 L 172.14,207.73 L 176.43,199.42 L 176.38,189.86 L 179.29,181.10 L 177.01,172.49 L 177.73,166.23 L 179.68,162.80 L 187.90,160.64 L 197.11,150.19 L 200.77,149.41 L 203.54,144.97 L 210.70,144.64 L 223.16,148.28 L 228.16,145.91 L 230.80,147.49 L 229.81,150.66 L 231.69,153.18 L 237.53,148.73 L 242.50,152.18 Z" fill="#C8D8E8" stroke="#8BAABB" stroke-width="0.8"/>
<path d="M 674.38,423.30 L 673.33,421.95 L 672.16,423.74 L 670.52,421.72 L 670.11,429.50 L 663.04,429.47 L 660.39,432.12 L 659.94,430.78 L 659.79,435.25 L 658.24,434.64 L 658.95,432.68 L 657.35,430.05 L 657.35,433.68 L 654.51,430.63 L 654.09,432.81 L 650.61,432.97 L 650.84,430.18 L 650.20,431.95 L 647.76,431.07 L 648.87,430.05 L 647.27,429.02 L 648.73,427.27 L 645.52,427.26 L 644.56,424.80 L 644.30,421.76 L 645.67,421.45 L 644.05,420.92 L 642.47,416.22 L 643.70,416.22 L 641.86,415.27 L 643.76,412.87 L 638.55,410.84 L 632.97,410.93 L 634.46,403.66 L 631.06,399.74 L 630.76,396.50 L 627.97,394.22 L 624.89,394.91 L 622.93,397.42 L 627.27,395.75 L 630.06,397.29 L 630.17,399.04 L 625.75,397.46 L 614.99,400.19 L 610.39,399.18 L 606.08,401.22 L 598.71,400.63 L 597.11,403.99 L 595.50,401.77 L 593.24,402.53 L 587.05,400.38 L 586.86,398.44 L 588.14,398.02 L 586.17,397.94 L 584.94,398.74 L 586.43,400.19 L 577.69,399.76 L 575.84,401.37 L 576.40,403.40 L 558.94,401.90 L 555.63,404.21 L 556.31,405.65 L 554.07,405.42 L 554.82,403.58 L 552.08,402.87 L 550.54,404.08 L 551.22,405.24 L 544.63,407.05 L 545.59,403.52 L 542.09,403.22 L 543.39,391.17 L 545.08,390.09 L 546.48,381.47 L 551.70,378.32 L 554.23,378.59 L 554.72,375.61 L 556.99,374.31 L 563.00,372.58 L 569.95,372.97 L 570.82,368.29 L 572.11,367.74 L 571.57,363.62 L 573.15,362.52 L 570.59,359.52 L 565.49,360.48 L 562.80,359.34 L 564.09,354.50 L 563.14,338.53 L 559.81,338.90 L 555.99,334.86 L 547.56,332.24 L 541.70,325.26 L 537.59,314.56 L 528.75,304.28 L 558.04,313.85 L 577.62,311.94 L 586.90,314.30 L 588.45,312.22 L 593.93,310.40 L 603.95,311.04 L 624.74,304.77 L 627.34,302.19 L 625.17,300.04 L 626.71,296.07 L 626.04,288.49 L 627.80,281.66 L 631.10,280.51 L 633.74,275.86 L 638.16,273.33 L 639.81,275.00 L 645.38,275.60 L 652.89,272.92 L 652.99,271.63 L 650.14,271.29 L 649.38,268.76 L 656.50,266.46 L 659.60,262.49 L 666.05,264.61 L 666.97,264.01 L 664.62,263.38 L 669.23,263.56 L 671.53,267.21 L 675.77,265.71 L 677.04,264.17 L 677.04,423.19 L 674.38,423.30 Z M 646.18,427.71 L 647.88,427.73 L 646.83,428.60 L 646.18,427.71 Z" fill="#C8D8E8" stroke="#8BAABB" stroke-width="0.8"/>
<path d="M 221.57,72.56 L 221.33,75.77 L 218.68,78.62 L 221.58,85.18 L 220.58,86.43 L 227.16,88.59 L 232.42,88.04 L 241.06,96.43 L 236.73,93.75 L 234.82,95.18 L 233.54,101.22 L 226.85,102.08 L 227.98,105.77 L 229.93,106.94 L 229.31,110.78 L 231.52,113.35 L 231.78,123.15 L 234.81,124.08 L 230.21,133.46 L 237.28,137.30 L 236.73,143.02 L 240.96,146.30 L 240.33,149.51 L 237.53,148.73 L 231.69,153.18 L 229.81,150.66 L 230.80,147.49 L 228.16,145.91 L 223.16,148.28 L 210.70,144.64 L 207.51,145.72 L 204.71,144.54 L 200.49,149.53 L 197.11,150.19 L 196.92,147.43 L 194.49,145.62 L 190.87,148.79 L 181.37,150.92 L 167.55,150.39 L 150.62,158.00 L 141.19,159.72 L 131.96,159.03 L 127.56,155.59 L 122.97,154.47 L 122.96,154.48 L 122.96,68.93 L 124.89,69.27 L 144.61,65.14 L 157.39,69.17 L 179.77,59.47 L 182.11,56.60 L 187.35,58.56 L 189.77,56.78 L 199.01,58.35 L 202.56,55.03 L 205.41,55.36 L 204.45,56.81 L 211.94,61.17 L 210.49,62.24 L 215.52,63.55 L 221.57,72.56 Z" fill="#C8D8E8" stroke="#8BAABB" stroke-width="0.8"/>
<path d="M 535.86,176.03 L 533.87,174.40 L 535.57,171.14 L 534.17,166.18 L 534.51,160.25 L 519.74,160.23 L 513.95,151.97 L 503.95,148.11 L 501.26,141.25 L 492.09,137.76 L 484.14,139.07 L 481.43,138.10 L 480.53,135.77 L 466.11,131.96 L 463.12,125.40 L 460.47,127.29 L 449.68,125.85 L 445.69,129.81 L 431.93,129.50 L 421.34,136.35 L 420.11,141.37 L 417.70,143.20 L 409.67,145.63 L 404.42,145.24 L 402.83,136.70 L 402.87,120.11 L 405.66,111.81 L 400.61,108.36 L 401.03,104.89 L 399.87,105.77 L 400.30,108.25 L 398.95,105.01 L 398.21,105.92 L 398.11,102.52 L 390.72,102.71 L 390.93,106.21 L 389.56,101.52 L 392.98,95.90 L 391.92,98.87 L 398.22,100.09 L 398.32,98.82 L 401.18,98.81 L 397.60,95.56 L 395.51,96.21 L 394.88,93.68 L 398.34,89.46 L 395.24,88.63 L 393.10,90.05 L 386.48,88.31 L 388.18,93.74 L 383.34,87.64 L 383.31,78.48 L 385.58,74.79 L 386.53,65.72 L 390.22,70.24 L 389.19,70.84 L 390.16,72.42 L 394.67,71.03 L 396.70,73.11 L 399.24,69.93 L 400.96,75.48 L 409.04,73.27 L 413.21,74.46 L 410.45,69.85 L 412.44,69.29 L 414.49,71.57 L 417.45,70.95 L 419.60,68.27 L 418.13,66.02 L 419.74,66.74 L 407.30,57.16 L 404.15,48.29 L 404.30,44.94 L 402.72,43.63 L 390.97,44.07 L 387.32,46.61 L 383.89,53.17 L 386.53,53.20 L 384.68,59.47 L 385.92,66.45 L 383.74,59.50 L 380.18,56.49 L 380.72,53.80 L 377.94,51.61 L 387.65,43.59 L 395.43,40.79 L 408.17,39.10 L 422.24,47.72 L 423.02,50.62 L 432.49,61.86 L 440.23,60.59 L 459.97,62.13 L 462.68,59.71 L 460.14,57.63 L 459.40,48.51 L 466.64,42.80 L 475.04,42.21 L 476.09,37.13 L 478.01,35.66 L 483.56,37.10 L 484.86,40.16 L 486.53,39.95 L 483.22,35.04 L 479.90,33.01 L 482.36,31.63 L 487.31,32.37 L 488.27,29.47 L 493.77,34.64 L 498.28,35.08 L 500.30,38.89 L 511.20,39.81 L 514.11,42.04 L 513.55,46.05 L 511.92,46.99 L 518.13,50.95 L 514.48,51.52 L 516.56,55.10 L 514.89,56.60 L 515.29,59.25 L 522.18,63.02 L 529.03,62.15 L 536.59,64.18 L 539.31,61.14 L 547.29,64.87 L 551.89,76.50 L 555.82,79.63 L 557.60,88.58 L 575.98,101.46 L 580.14,105.97 L 588.06,111.10 L 591.41,110.64 L 614.13,126.23 L 619.02,125.47 L 632.82,132.42 L 630.54,135.89 L 631.04,142.94 L 629.66,145.52 L 624.16,144.51 L 616.95,140.23 L 612.93,147.06 L 604.43,147.57 L 599.85,149.64 L 595.98,160.57 L 596.02,164.76 L 593.93,168.00 L 586.38,171.54 L 586.17,173.80 L 583.38,173.14 L 575.14,176.51 L 569.28,176.82 L 571.26,180.16 L 568.79,181.75 L 568.86,185.73 L 561.92,189.74 L 557.23,189.06 L 554.61,192.03 L 553.67,188.78 L 549.61,185.69 L 542.39,185.87 L 536.38,181.88 L 535.86,176.03 Z M 389.58,108.08 L 389.86,115.23 L 388.75,112.01 L 389.58,108.08 Z M 397.23,97.46 L 397.62,98.81 L 396.85,99.22 L 397.23,97.46 Z" fill="#C8D8E8" stroke="#8BAABB" stroke-width="0.8"/>
<path d="M 247.26,105.49 L 250.10,105.76 L 252.39,109.93 L 264.72,112.94 L 272.39,112.37 L 282.23,103.47 L 297.82,95.05 L 304.42,101.97 L 300.24,104.30 L 303.60,109.93 L 299.39,111.12 L 298.21,113.21 L 303.90,118.52 L 305.79,118.14 L 309.24,122.86 L 314.02,122.05 L 315.28,133.33 L 318.65,139.28 L 324.20,142.01 L 337.72,144.25 L 340.00,149.27 L 352.24,157.46 L 368.46,161.39 L 406.09,153.53 L 398.96,155.14 L 406.23,156.32 L 406.33,151.93 L 404.42,145.24 L 409.67,145.63 L 417.70,143.20 L 420.11,141.37 L 420.80,136.90 L 426.25,132.29 L 436.62,128.75 L 447.22,129.57 L 447.29,127.46 L 449.68,125.85 L 460.47,127.29 L 462.92,125.38 L 466.11,131.96 L 480.53,135.77 L 481.43,138.10 L 484.14,139.07 L 492.09,137.76 L 501.26,141.25 L 503.95,148.11 L 513.95,151.97 L 519.74,160.23 L 534.51,160.25 L 534.17,166.18 L 535.57,171.14 L 533.87,174.40 L 535.86,176.03 L 536.74,183.38 L 534.90,188.64 L 533.48,189.11 L 534.18,192.85 L 532.71,198.96 L 530.60,202.71 L 526.15,205.30 L 529.58,209.49 L 525.15,209.75 L 522.44,213.32 L 522.78,223.95 L 530.12,226.60 L 523.78,234.30 L 523.70,236.28 L 528.50,253.48 L 527.50,258.19 L 528.34,269.51 L 543.86,272.09 L 546.37,279.70 L 545.93,283.27 L 528.75,304.28 L 537.59,314.56 L 541.70,325.26 L 547.56,332.24 L 555.99,334.86 L 559.81,338.90 L 563.14,338.53 L 564.09,354.50 L 562.80,359.34 L 565.49,360.48 L 570.59,359.52 L 573.15,362.52 L 571.57,363.62 L 572.17,367.35 L 570.69,368.62 L 570.36,372.56 L 556.99,374.31 L 554.72,375.61 L 554.23,378.59 L 551.70,378.32 L 546.48,381.47 L 545.08,390.09 L 543.39,391.17 L 542.66,401.45 L 538.93,406.25 L 524.97,401.67 L 523.46,398.02 L 520.69,399.48 L 521.98,401.34 L 518.79,399.50 L 511.88,400.50 L 503.81,397.70 L 496.45,399.02 L 492.53,395.60 L 485.24,394.51 L 479.04,395.54 L 477.06,392.78 L 473.63,394.01 L 473.34,391.73 L 465.37,390.85 L 462.78,384.50 L 463.60,382.73 L 461.23,377.44 L 460.23,368.18 L 458.45,365.97 L 459.31,364.95 L 457.37,364.76 L 456.36,362.05 L 444.07,361.60 L 440.76,364.45 L 435.85,365.11 L 433.27,369.59 L 428.77,369.42 L 420.16,375.73 L 412.95,373.40 L 411.50,371.07 L 400.88,371.21 L 396.85,368.11 L 396.00,365.53 L 388.54,362.80 L 380.88,357.51 L 382.11,355.48 L 378.34,351.57 L 370.29,347.32 L 364.41,347.36 L 359.33,345.22 L 353.60,332.42 L 353.21,328.13 L 348.65,323.93 L 348.98,322.59 L 350.35,323.59 L 350.90,321.35 L 349.29,319.53 L 345.76,319.47 L 345.97,312.97 L 336.81,302.58 L 335.53,297.11 L 332.68,296.93 L 325.82,300.78 L 324.88,297.95 L 320.67,297.94 L 320.24,295.65 L 319.17,296.51 L 314.86,293.18 L 319.92,293.90 L 321.01,291.71 L 320.06,290.51 L 315.94,290.31 L 316.94,292.08 L 315.11,292.37 L 313.81,293.92 L 314.76,300.37 L 306.67,301.50 L 305.46,296.57 L 298.58,291.41 L 298.56,280.25 L 292.47,280.13 L 292.58,271.35 L 295.37,262.90 L 289.21,255.61 L 287.77,250.37 L 285.16,248.47 L 282.02,248.68 L 271.06,239.82 L 264.20,238.49 L 264.62,236.21 L 263.00,235.27 L 265.46,233.94 L 265.25,231.99 L 262.00,227.09 L 259.81,227.01 L 261.17,225.81 L 260.41,224.11 L 257.70,225.13 L 253.24,217.57 L 251.34,216.83 L 254.29,213.31 L 254.52,209.64 L 252.00,206.83 L 253.55,205.77 L 253.50,203.70 L 257.11,204.56 L 255.78,200.95 L 256.48,199.12 L 259.77,197.00 L 260.90,193.17 L 265.17,192.65 L 264.61,188.25 L 261.81,184.52 L 262.53,180.69 L 268.33,177.95 L 263.54,176.81 L 257.96,177.79 L 254.21,173.90 L 250.27,173.90 L 248.81,165.21 L 245.82,164.77 L 244.37,162.43 L 245.15,159.12 L 241.35,156.57 L 242.50,152.18 L 240.08,150.33 L 240.96,146.30 L 236.85,143.37 L 237.28,137.30 L 230.21,133.46 L 234.81,124.08 L 231.78,123.15 L 231.52,113.35 L 229.31,110.78 L 229.93,106.94 L 227.98,105.77 L 226.85,102.08 L 233.54,101.22 L 234.82,95.18 L 236.73,93.75 L 241.06,96.43 L 247.26,105.49 Z M 415.79,380.09 L 415.32,380.93 L 414.73,379.93 L 415.79,380.09 Z M 405.17,375.80 L 404.23,374.87 L 406.31,374.46 L 406.63,375.88 L 405.17,375.80 Z M 392.03,369.27 L 390.71,368.25 L 394.88,369.20 L 392.03,369.27 Z M 447.97,367.58 L 449.10,367.29 L 448.65,368.44 L 447.97,367.58 Z M 447.00,365.97 L 440.90,371.47 L 439.63,370.48 L 429.12,374.61 L 429.01,372.23 L 437.80,369.33 L 437.51,365.99 L 440.01,366.99 L 445.66,364.95 L 447.00,365.97 Z M 450.90,363.70 L 449.64,363.85 L 449.68,363.31 L 450.90,363.70 Z M 340.22,317.02 L 340.07,318.08 L 339.30,316.80 L 340.22,317.02 Z M 415.89,388.39 L 415.18,388.33 L 415.11,388.10 L 415.89,388.39 Z M 439.87,373.01 L 439.21,373.07 L 439.48,372.10 L 439.87,373.01 Z M 399.62,372.30 L 398.82,371.82 L 398.96,371.59 L 399.62,372.30 Z M 424.88,389.14 L 424.24,389.25 L 424.12,388.78 L 424.88,389.14 Z" fill="#4A90D9" stroke="#1a5fa8" stroke-width="1.2"/>
<path d="M 243.81,77.73 L 244.13,75.52 L 251.81,78.83 L 256.39,84.50 L 249.65,85.64 L 248.24,80.28 L 243.81,77.73 Z" fill="#A8C8E8" stroke="none"/>
<path d="M 273.54,69.51 L 268.52,69.66 L 271.85,68.05 L 270.37,66.46 L 273.63,66.14 L 283.26,72.35 L 273.54,69.51 Z" fill="#A8C8E8" stroke="none"/>
<path d="M 213.80,230.69 L 215.30,228.07 L 219.35,231.29 L 217.37,233.50 L 213.80,230.69 Z" fill="#A8C8E8" stroke="none"/>
<path d="M 210.05,217.40 L 210.20,208.86 L 217.67,217.88 L 217.01,222.55 L 214.02,222.16 L 210.05,217.40 Z" fill="#A8C8E8" stroke="none"/>
<path d="M 124.98,118.57 L 127.41,115.53 L 125.71,119.50 L 138.21,123.88 L 135.12,125.14 L 133.40,122.24 L 125.78,120.43 L 124.98,118.57 Z" fill="#A8C8E8" stroke="none"/>
<path d="M 128.64,143.65 L 124.98,142.25 L 123.39,139.86 L 125.06,140.36 L 125.05,138.08 L 126.83,138.63 L 125.90,142.00 L 132.19,138.51 L 130.91,136.64 L 130.92,135.59 L 133.45,138.51 L 136.89,133.80 L 136.01,137.90 L 129.96,140.85 L 128.64,143.65 Z" fill="#A8C8E8" stroke="none"/>
<path d="M 662.02,67.18 L 657.72,66.61 L 655.53,62.38 L 664.97,64.86 L 662.02,67.18 Z" fill="#A8C8E8" stroke="none"/>
<path d="M 124.51,178.33 L 124.66,176.76 L 122.96,175.65 L 122.96,173.17 L 128.95,176.12 L 124.51,178.33 Z M 123.00,168.41 L 122.96,168.44 L 122.96,168.27 L 123.00,168.41 Z" fill="#A8C8E8" stroke="none"/>
<path d="M 152.09,117.65 L 150.97,118.31 L 147.42,117.40 L 143.55,118.67 L 145.46,116.40 L 144.83,114.69 L 143.75,115.07 L 141.28,113.04 L 138.59,113.79 L 138.04,112.58 L 132.94,114.11 L 130.91,112.17 L 130.46,110.28 L 131.98,111.62 L 132.39,108.36 L 134.15,111.30 L 133.06,111.73 L 134.65,111.73 L 135.39,109.40 L 135.47,111.52 L 141.59,112.33 L 145.16,114.79 L 147.20,113.50 L 147.56,111.00 L 147.69,113.20 L 151.25,113.04 L 146.40,114.15 L 145.88,116.36 L 152.09,117.65 Z" fill="#A8C8E8" stroke="none"/>
<path d="M 224.75,243.81 L 224.64,245.63 L 222.44,248.03 L 216.63,244.34 L 215.91,240.16 L 217.12,240.16 L 218.24,235.08 L 224.75,243.81 Z" fill="#A8C8E8" stroke="none"/>
<path d="M 257.95,146.47 L 256.35,145.94 L 254.69,149.89 L 250.91,148.05 L 249.06,136.37 L 245.60,134.30 L 245.60,131.53 L 248.10,128.86 L 244.59,128.34 L 245.37,125.95 L 251.01,125.62 L 253.22,127.75 L 252.09,135.56 L 253.38,137.07 L 258.07,137.07 L 258.69,138.89 L 256.36,138.91 L 260.70,144.01 L 257.95,146.47 Z M 254.23,143.64 L 253.43,143.25 L 253.20,144.02 L 254.26,145.22 L 254.23,143.64 Z M 255.09,141.30 L 254.64,142.17 L 255.49,142.75 L 255.09,141.30 Z" fill="#A8C8E8" stroke="none"/>
<path d="M 475.10,53.02 L 466.11,56.04 L 462.24,50.60 L 461.13,53.35 L 460.39,51.81 L 463.32,41.17 L 466.33,38.94 L 470.80,41.18 L 470.51,44.80 L 472.82,46.09 L 471.99,48.34 L 475.31,49.95 L 475.10,53.02 Z" fill="#A8C8E8" stroke="none"/>
<path d="M 207.48,123.96 L 206.43,120.52 L 203.11,121.95 L 196.08,120.49 L 199.57,118.00 L 199.10,115.62 L 210.30,114.19 L 212.36,112.32 L 210.39,113.04 L 209.94,111.49 L 215.85,109.99 L 220.47,111.15 L 214.18,113.52 L 210.13,118.27 L 214.31,119.75 L 214.14,121.93 L 211.00,124.54 L 207.48,123.96 Z" fill="#A8C8E8" stroke="none"/>
<path d="M 275.89,285.16 L 276.27,285.46 L 276.13,285.88 L 275.89,285.16 Z M 288.07,287.49 L 282.11,285.02 L 280.13,285.97 L 278.75,284.32 L 277.32,286.07 L 277.74,284.59 L 274.91,283.85 L 274.67,282.38 L 277.37,281.46 L 286.00,285.46 L 289.43,284.00 L 287.21,285.16 L 291.22,286.14 L 288.07,287.49 Z" fill="#A8C8E8" stroke="none"/>
<path d="M 655.40,71.47 L 647.88,73.29 L 650.06,78.21 L 645.02,74.57 L 644.95,72.50 L 623.29,67.45 L 638.90,67.49 L 643.97,68.66 L 646.50,70.21 L 645.86,71.34 L 648.86,71.33 L 657.72,66.61 L 655.40,71.47 Z" fill="#A8C8E8" stroke="none"/>
</svg>