<svg xmlns="http://www.w3.org/2000/svg" width="800" height="500" viewBox="0 0 800 500">
<rect width="800" height="500" fill="#A8C8E8"/>
<path d="M 795.69,464.99 L 799.03,461.02 L 798.98,462.77 L 800.00,462.67 L 800.00,468.63 L 795.69,464.99 Z M 793.66,449.59 L 785.53,444.49 L 786.94,443.09 L 785.12,441.06 L 782.20,440.54 L 783.81,439.09 L 781.88,439.50 L 781.81,436.81 L 792.50,431.35 L 782.30,434.83 L 779.70,437.54 L 774.94,436.99 L 778.37,435.86 L 775.46,433.91 L 778.06,430.12 L 789.99,429.50 L 790.58,421.72 L 792.95,423.74 L 794.64,421.95 L 796.16,423.30 L 800.00,423.19 L 800.00,451.46 L 793.66,449.59 Z" fill="#E8E0D0" stroke="#B8B0A0" stroke-width="0.5"/>
<path d="M 0.02,154.47 L 6.64,155.59 L 12.99,159.03 L 26.32,159.72 L 39.93,158.00 L 64.38,150.39 L 84.34,150.92 L 98.05,148.79 L 103.28,145.62 L 106.79,147.43 L 107.58,151.20 L 93.77,160.64 L 81.90,162.80 L 79.09,166.23 L 78.04,172.49 L 81.33,181.10 L 77.13,189.86 L 77.20,199.42 L 71.01,207.73 L 63.90,209.23 L 14.27,229.62 L 0.00,235.94 L 0.00,154.48 L 0.02,154.47 Z" fill="#E8E0D0" stroke="#B8B0A0" stroke-width="0.5"/>
<path d="M 469.34,401.85 L 466.12,402.94 L 465.82,402.09 L 467.17,400.48 L 469.34,401.85 Z M 467.75,402.08 L 467.89,401.73 L 467.28,401.54 L 467.75,402.08 Z M 465.81,380.67 L 465.92,381.85 L 470.89,381.70 L 468.41,381.56 L 469.84,378.06 L 473.39,378.64 L 470.74,380.55 L 473.04,381.27 L 471.61,381.56 L 472.85,383.16 L 468.93,382.59 L 469.12,383.89 L 472.67,384.17 L 470.26,385.45 L 472.16,387.39 L 470.36,387.83 L 467.65,394.18 L 464.18,393.26 L 465.17,385.95 L 462.42,384.97 L 465.81,380.67 Z M 476.25,418.22 L 490.24,429.75 L 520.44,436.82 L 527.35,436.26 L 531.96,438.49 L 551.48,459.33 L 559.48,460.45 L 559.15,466.22 L 547.04,483.06 L 539.53,486.62 L 529.84,496.16 L 531.08,497.46 L 527.65,500.00 L 439.57,500.00 L 451.03,471.71 L 439.36,456.31 L 440.37,447.43 L 448.46,433.65 L 446.35,429.54 L 460.36,427.03 L 458.69,424.07 L 454.09,423.87 L 456.00,409.19 L 460.56,408.44 L 461.18,410.46 L 459.32,410.30 L 462.99,413.24 L 470.35,407.98 L 476.25,418.22 Z M 536.00,500.00 L 534.67,500.00 L 535.69,498.93 L 536.00,500.00 Z" fill="#E8E0D0" stroke="#B8B0A0" stroke-width="0.5"/>
<path d="M 786.27,85.29 L 796.79,86.83 L 791.29,87.08 L 794.04,91.36 L 790.88,89.19 L 791.62,91.29 L 790.43,92.61 L 787.44,91.97 L 784.63,98.37 L 763.91,96.78 L 756.39,99.90 L 754.39,105.35 L 762.61,107.22 L 763.21,110.25 L 773.84,110.46 L 775.69,113.31 L 772.95,114.53 L 772.65,119.88 L 780.45,126.76 L 777.67,132.36 L 774.39,133.22 L 766.80,141.30 L 765.54,148.51 L 758.35,146.53 L 752.03,148.59 L 745.48,144.35 L 732.88,144.78 L 732.86,135.89 L 735.59,131.40 L 716.23,125.47 L 709.17,126.23 L 676.36,110.64 L 671.52,111.10 L 660.09,105.97 L 654.09,101.46 L 627.55,88.58 L 624.97,79.63 L 619.30,76.50 L 612.66,64.87 L 601.14,61.14 L 597.21,64.18 L 586.30,62.15 L 576.40,63.02 L 566.46,59.25 L 565.88,56.60 L 568.29,55.10 L 565.29,51.52 L 570.57,50.95 L 561.60,46.99 L 563.95,46.05 L 564.75,42.04 L 560.56,39.81 L 544.81,38.89 L 541.90,35.08 L 535.39,34.64 L 527.45,29.47 L 526.06,32.37 L 518.91,31.63 L 515.36,33.01 L 520.15,35.04 L 524.93,39.95 L 522.52,40.16 L 520.64,37.10 L 512.63,35.66 L 509.85,37.13 L 508.35,42.21 L 496.22,42.80 L 485.76,48.51 L 486.83,57.63 L 490.50,59.71 L 487.08,61.95 L 459.86,60.69 L 459.81,0.00 L 593.96,0.00 L 594.11,0.21 L 616.50,14.82 L 647.11,11.69 L 678.67,13.40 L 691.53,9.75 L 706.91,18.71 L 714.12,27.64 L 722.05,25.23 L 719.65,46.22 L 732.48,46.42 L 738.41,64.17 L 769.60,63.27 L 772.11,66.62 L 774.62,66.90 L 770.99,71.54 L 783.18,76.35 L 787.13,75.83 L 786.01,69.36 L 797.93,63.09 L 798.06,59.58 L 800.00,59.14 L 800.00,84.79 L 786.27,85.29 Z" fill="#E8E0D0" stroke="#B8B0A0" stroke-width="0.5"/>
<path d="M 798.06,59.58 L 797.93,63.09 L 786.01,69.36 L 787.13,75.83 L 783.18,76.35 L 770.99,71.54 L 774.62,66.90 L 772.11,66.62 L 769.60,63.27 L 738.41,64.17 L 732.48,46.42 L 719.65,46.22 L 722.05,25.23 L 714.12,27.64 L 706.91,18.71 L 691.53,9.75 L 678.67,13.40 L 647.11,11.69 L 616.50,14.82 L 594.11,0.21 L 593.96,0.00 L 800.00,0.00 L 800.00,59.14 L 798.06,59.58 Z M 459.86,60.69 L 446.18,61.60 L 433.24,50.62 L 432.11,47.72 L 411.79,39.10 L 393.40,40.79 L 382.17,43.59 L 368.15,51.61 L 369.53,48.36 L 367.23,44.31 L 374.33,34.83 L 371.42,30.50 L 375.22,33.84 L 375.89,31.37 L 369.01,28.72 L 363.89,29.30 L 361.20,27.43 L 354.55,28.38 L 347.78,20.96 L 338.06,21.75 L 339.07,15.20 L 327.31,3.24 L 326.98,0.00 L 459.81,0.00 L 459.86,60.69 Z" fill="#E8E0D0" stroke="#B8B0A0" stroke-width="0.5"/>
<path d="M 794.22,145.34 L 794.94,146.59 L 792.87,145.53 L 792.47,147.19 L 788.55,146.61 L 772.07,154.11 L 765.66,150.47 L 766.80,141.30 L 774.39,133.22 L 777.67,132.36 L 780.45,126.76 L 772.65,119.88 L 772.95,114.53 L 775.69,113.31 L 773.84,110.46 L 763.21,110.25 L 762.61,107.22 L 754.39,105.35 L 757.95,98.59 L 763.91,96.78 L 784.63,98.37 L 787.44,91.97 L 790.43,92.61 L 791.62,91.29 L 790.88,89.19 L 794.04,91.36 L 791.29,87.08 L 796.79,86.83 L 786.27,85.29 L 800.00,84.79 L 800.00,148.44 L 794.22,145.34 Z" fill="#E8E0D0" stroke="#B8B0A0" stroke-width="0.5"/>
<path d="M 240.34,8.43 L 236.79,11.84 L 237.79,14.16 L 241.42,6.64 L 245.49,6.45 L 240.03,15.19 L 240.10,18.73 L 242.49,18.66 L 239.90,20.51 L 239.28,24.59 L 245.40,27.85 L 246.15,32.19 L 255.70,38.84 L 263.23,47.61 L 268.21,49.56 L 262.80,55.20 L 254.60,57.72 L 249.88,63.10 L 241.49,63.16 L 234.27,61.09 L 230.98,55.79 L 228.02,55.69 L 220.60,49.44 L 216.12,50.81 L 215.03,48.78 L 199.71,45.67 L 191.87,42.00 L 193.61,35.49 L 183.87,35.01 L 178.70,31.35 L 171.87,30.14 L 169.65,33.32 L 167.21,30.90 L 162.78,30.33 L 148.05,34.54 L 142.43,33.00 L 144.45,30.42 L 127.74,26.25 L 119.31,21.44 L 86.87,20.45 L 62.90,13.58 L 52.05,12.79 L 47.90,13.32 L 45.04,16.68 L 17.24,0.00 L 234.21,0.00 L 240.34,8.43 Z M 247.08,5.30 L 243.59,4.57 L 244.56,3.86 L 249.36,3.80 L 247.08,5.30 Z" fill="#E8E0D0" stroke="#B8B0A0" stroke-width="0.5"/>
<path d="M 470.00,396.34 L 470.35,407.98 L 462.99,413.24 L 459.51,410.62 L 461.18,410.46 L 459.86,408.11 L 455.22,409.93 L 454.09,423.87 L 458.69,424.07 L 460.36,427.03 L 446.35,429.54 L 448.46,433.65 L 440.37,447.43 L 437.64,458.01 L 371.28,451.32 L 345.90,426.60 L 346.30,420.58 L 347.35,423.94 L 351.11,423.19 L 351.88,428.75 L 354.97,429.51 L 365.65,428.60 L 372.36,424.31 L 374.46,425.77 L 387.00,425.14 L 397.99,427.76 L 405.48,427.38 L 419.68,422.55 L 421.20,419.26 L 423.50,419.26 L 419.43,417.39 L 423.69,417.96 L 425.28,412.85 L 436.65,407.15 L 441.83,401.97 L 443.04,403.23 L 442.39,401.50 L 448.79,395.22 L 450.74,396.12 L 459.38,390.01 L 458.79,391.01 L 459.18,391.11 L 462.42,384.97 L 465.17,385.95 L 464.18,393.26 L 470.00,396.34 Z M 465.82,402.09 L 466.12,402.94 L 469.34,401.85 L 467.17,400.48 L 465.82,402.09 Z M 467.28,401.54 L 467.89,401.73 L 467.75,402.08 L 467.28,401.54 Z M 404.69,422.92 L 407.71,425.09 L 402.78,426.00 L 399.73,425.40 L 404.69,422.92 Z M 411.53,422.99 L 411.60,421.99 L 413.50,422.87 L 413.56,423.93 L 411.53,422.99 Z M 373.68,421.86 L 372.15,423.38 L 371.22,422.24 L 373.68,421.86 Z M 387.50,422.66 L 392.22,421.98 L 393.51,419.99 L 394.13,421.51 L 391.08,423.18 L 387.50,422.66 Z M 417.29,418.80 L 418.88,417.65 L 420.81,419.73 L 417.29,418.80 Z M 414.37,422.72 L 413.40,421.60 L 414.64,421.16 L 414.37,422.72 Z M 417.32,421.32 L 416.62,422.09 L 415.85,421.02 L 417.32,421.32 Z M 365.60,418.10 L 364.96,418.65 L 364.15,418.20 L 365.60,418.10 Z" fill="#E8E0D0" stroke="#B8B0A0" stroke-width="0.5"/>
<path d="M 82.90,30.56 L 75.81,29.37 L 72.51,25.24 L 68.18,23.69 L 54.69,22.04 L 51.69,18.25 L 45.65,16.76 L 47.55,13.66 L 62.90,13.58 L 86.87,20.45 L 119.31,21.44 L 127.74,26.25 L 144.45,30.42 L 142.43,33.00 L 148.05,34.54 L 162.78,30.33 L 167.21,30.90 L 169.65,33.32 L 171.87,30.14 L 179.54,31.55 L 183.87,35.01 L 194.67,36.26 L 191.87,42.00 L 200.06,45.79 L 211.95,48.08 L 209.92,51.24 L 206.31,51.80 L 206.41,54.56 L 219.41,61.79 L 217.00,65.53 L 213.72,66.59 L 207.34,63.37 L 200.62,63.95 L 193.90,61.84 L 194.79,60.40 L 182.81,57.90 L 174.35,61.94 L 170.87,61.72 L 171.57,63.09 L 154.29,62.64 L 135.38,65.30 L 133.64,63.55 L 126.39,62.24 L 128.48,61.17 L 117.67,56.81 L 118.56,55.22 L 112.97,55.23 L 109.81,58.35 L 96.47,56.78 L 92.97,58.56 L 85.40,56.60 L 91.96,50.07 L 82.90,30.56 Z" fill="#E8E0D0" stroke="#B8B0A0" stroke-width="0.5"/>
<path d="M 327.28,411.86 L 324.47,397.00 L 326.96,397.58 L 325.35,394.67 L 327.22,393.68 L 328.29,396.20 L 330.34,393.78 L 328.00,393.04 L 330.51,386.66 L 337.42,382.86 L 340.98,386.96 L 345.87,388.80 L 346.20,392.39 L 344.00,392.91 L 345.15,394.10 L 343.14,396.43 L 344.35,401.20 L 346.65,402.09 L 346.74,407.04 L 339.74,416.65 L 338.12,414.67 L 330.37,416.70 L 325.94,412.90 L 327.28,411.86 Z" fill="#E8E0D0" stroke="#B8B0A0" stroke-width="0.5"/>
<path d="M 330.37,416.70 L 337.88,415.49 L 338.75,417.77 L 341.16,415.35 L 343.82,416.36 L 338.14,422.22 L 345.66,423.32 L 346.29,427.10 L 371.28,451.32 L 437.25,458.07 L 439.36,456.31 L 451.03,471.71 L 439.57,500.00 L 33.86,500.00 L 24.63,490.20 L 22.20,485.82 L 24.54,483.92 L 22.94,476.62 L 18.33,471.13 L 20.26,471.22 L 23.81,462.69 L 21.93,463.49 L 20.45,454.97 L 14.92,450.04 L 14.89,446.83 L 5.94,433.35 L 0.00,430.01 L 0.00,262.84 L 19.17,258.89 L 24.20,256.19 L 55.60,260.08 L 99.77,278.32 L 167.53,318.23 L 238.54,322.63 L 244.62,332.43 L 266.03,333.14 L 265.36,335.54 L 267.09,335.10 L 270.11,342.79 L 273.73,343.62 L 272.48,344.59 L 276.08,347.45 L 275.87,348.65 L 274.95,349.53 L 274.26,347.41 L 273.39,349.72 L 276.01,350.40 L 274.76,352.00 L 285.33,353.43 L 287.22,355.48 L 282.22,355.64 L 285.95,356.22 L 284.90,357.97 L 287.22,357.68 L 287.47,360.64 L 289.80,360.68 L 288.83,361.85 L 293.93,360.89 L 297.23,365.90 L 309.12,372.14 L 304.72,370.87 L 305.81,375.75 L 310.63,379.38 L 308.68,385.50 L 305.86,381.99 L 304.76,386.23 L 307.64,386.49 L 311.69,394.08 L 308.76,391.93 L 308.87,392.64 L 317.23,398.22 L 319.58,406.35 L 330.37,416.70 Z M 294.27,357.70 L 296.96,358.26 L 290.93,358.84 L 294.27,357.70 Z" fill="#E8E0D0" stroke="#B8B0A0" stroke-width="0.5"/>
<path d="M 257.79,311.00 L 252.32,310.27 L 245.57,314.79 L 255.81,315.08 L 257.32,322.15 L 263.41,327.97 L 262.33,330.15 L 264.43,332.28 L 244.62,332.43 L 238.56,322.63 L 215.21,320.48 L 223.52,313.07 L 231.06,301.20 L 244.78,299.18 L 251.87,301.39 L 257.79,311.00 Z M 263.29,313.49 L 263.51,314.28 L 260.19,313.39 L 263.29,313.49 Z M 259.15,309.77 L 257.40,309.14 L 254.41,305.51 L 258.33,302.85 L 256.35,301.66 L 258.10,301.62 L 262.35,307.43 L 259.15,309.77 Z M 254.02,301.88 L 253.49,301.68 L 256.05,300.67 L 254.02,301.88 Z" fill="#E8E0D0" stroke="#B8B0A0" stroke-width="0.5"/>
<path d="M 14.27,229.62 L 21.59,248.22 L 19.55,248.68 L 20.86,251.79 L 26.22,251.27 L 27.68,253.57 L 19.17,258.89 L 0.00,262.84 L 0.00,235.92 L 14.27,229.62 Z" fill="#E8E0D0" stroke="#B8B0A0" stroke-width="0.5"/>
<path d="M 321.74,383.17 L 319.66,390.74 L 316.64,382.83 L 317.49,381.11 L 320.38,381.19 L 319.30,382.14 L 321.74,383.17 Z M 315.87,382.73 L 315.99,383.71 L 315.01,383.65 L 315.87,382.73 Z M 321.99,380.38 L 322.60,381.84 L 320.88,381.14 L 321.99,380.38 Z M 325.76,391.98 L 324.61,395.19 L 324.22,393.19 L 325.76,391.98 Z M 325.48,391.47 L 325.51,391.60 L 325.24,391.68 L 325.48,391.47 Z M 326.25,393.09 L 326.17,393.29 L 325.96,393.40 L 326.25,393.09 Z M 326.17,393.82 L 326.04,394.09 L 325.50,394.11 L 326.17,393.82 Z" fill="#E8E0D0" stroke="#B8B0A0" stroke-width="0.5"/>
<path d="M 798.16,265.71 L 792.04,267.21 L 788.73,263.56 L 782.07,263.38 L 785.46,264.01 L 784.12,264.61 L 774.81,262.49 L 770.34,266.46 L 760.06,268.76 L 761.16,271.29 L 765.28,271.63 L 765.13,272.92 L 754.29,275.60 L 746.24,275.00 L 743.85,273.33 L 737.47,275.86 L 733.67,280.51 L 728.91,281.66 L 726.36,288.49 L 727.33,296.07 L 725.10,300.04 L 728.24,302.19 L 724.49,304.77 L 694.46,311.04 L 679.99,310.40 L 672.09,312.22 L 669.85,314.30 L 656.45,311.94 L 628.19,313.85 L 585.89,304.28 L 610.70,283.27 L 611.33,279.70 L 607.71,272.09 L 585.30,269.51 L 584.09,258.19 L 585.53,253.48 L 578.60,236.28 L 578.72,234.30 L 587.87,226.60 L 577.28,223.95 L 576.78,213.32 L 580.69,209.75 L 587.08,209.49 L 582.14,205.30 L 588.56,202.71 L 591.62,198.96 L 593.74,192.85 L 592.57,189.57 L 594.77,188.64 L 596.91,181.88 L 605.58,185.87 L 616.01,185.69 L 621.87,188.78 L 623.23,192.03 L 627.01,189.06 L 633.79,189.74 L 643.80,185.73 L 643.71,181.75 L 647.27,180.16 L 644.42,176.82 L 652.86,176.51 L 664.77,173.14 L 668.79,173.80 L 669.10,171.54 L 679.99,168.00 L 687.79,153.83 L 687.79,150.01 L 695.16,147.57 L 707.43,147.06 L 713.24,140.23 L 727.05,145.48 L 745.48,144.35 L 752.03,148.59 L 758.35,146.53 L 764.66,147.65 L 765.35,150.19 L 771.75,154.10 L 788.55,146.61 L 792.47,147.19 L 792.87,145.53 L 794.94,146.59 L 794.22,145.34 L 800.00,147.80 L 800.00,264.17 L 798.16,265.71 Z" fill="#C8D8E8" stroke="#8BAABB" stroke-width="0.8"/>
<path d="M 176.42,63.33 L 180.69,64.49 L 177.33,66.21 L 186.37,67.16 L 191.03,70.44 L 185.19,74.43 L 189.14,79.40 L 200.88,84.02 L 198.15,88.57 L 190.52,89.41 L 194.75,90.04 L 206.19,97.42 L 214.99,98.24 L 210.76,101.31 L 217.02,105.45 L 211.65,105.88 L 214.16,108.28 L 214.73,112.53 L 204.93,112.92 L 200.33,106.81 L 201.05,104.72 L 195.16,102.17 L 195.34,98.09 L 186.78,99.64 L 182.25,97.28 L 179.36,97.80 L 176.38,93.65 L 169.68,95.09 L 158.05,88.04 L 150.46,88.59 L 140.95,86.43 L 142.40,85.18 L 138.21,78.62 L 142.03,75.77 L 142.38,72.56 L 135.12,65.26 L 154.29,62.64 L 171.57,63.09 L 170.87,61.72 L 175.58,61.35 L 176.42,63.33 Z M 174.66,66.57 L 175.92,67.03 L 176.00,65.93 L 174.66,66.57 Z M 181.23,67.97 L 180.10,67.66 L 180.35,68.15 L 181.23,67.97 Z M 187.93,74.96 L 190.04,75.01 L 189.69,75.57 L 187.93,74.96 Z" fill="#C8D8E8" stroke="#8BAABB" stroke-width="0.8"/>
<path d="M 176.00,65.93 L 175.92,67.03 L 174.66,66.57 L 176.00,65.93 Z M 181.98,58.08 L 187.55,58.39 L 194.79,60.40 L 193.28,61.23 L 196.77,63.09 L 206.87,63.27 L 214.28,66.57 L 217.50,65.09 L 219.25,61.48 L 209.55,57.03 L 206.08,53.60 L 206.31,51.80 L 209.54,51.45 L 212.58,48.61 L 215.49,48.95 L 216.12,50.81 L 220.60,49.44 L 228.02,55.69 L 230.98,55.79 L 234.27,61.09 L 248.78,63.31 L 254.60,57.72 L 263.40,54.80 L 268.21,49.56 L 280.22,58.72 L 284.18,66.31 L 293.07,72.03 L 293.07,74.88 L 311.17,78.23 L 315.15,83.78 L 310.97,81.49 L 302.26,80.93 L 291.87,85.50 L 290.09,94.95 L 286.50,98.93 L 289.66,103.87 L 286.19,102.87 L 284.38,109.30 L 281.17,110.80 L 282.94,108.25 L 278.28,106.12 L 277.09,111.40 L 274.76,112.76 L 275.86,122.05 L 268.96,122.86 L 263.97,118.14 L 261.25,118.52 L 253.04,113.21 L 254.73,111.12 L 260.82,109.93 L 255.97,104.30 L 262.00,101.97 L 252.48,95.05 L 229.96,103.47 L 214.73,112.53 L 214.16,108.28 L 211.65,105.88 L 217.02,105.45 L 210.76,101.31 L 214.99,98.24 L 206.19,97.42 L 194.75,90.04 L 190.52,89.41 L 198.15,88.57 L 200.88,84.02 L 189.14,79.40 L 185.19,74.43 L 191.03,70.44 L 186.37,67.16 L 177.33,66.21 L 180.69,64.49 L 176.42,63.33 L 175.58,61.35 L 181.98,58.08 Z M 189.69,75.57 L 190.04,75.01 L 187.93,74.96 L 189.69,75.57 Z M 186.88,109.93 L 183.57,105.76 L 179.47,105.49 L 169.68,95.09 L 176.38,93.65 L 179.36,97.80 L 182.25,97.28 L 186.78,99.64 L 195.93,98.36 L 195.16,102.17 L 201.05,104.72 L 200.33,106.81 L 204.93,112.92 L 186.88,109.93 Z M 180.35,68.15 L 180.10,67.66 L 181.23,67.97 L 180.35,68.15 Z M 319.85,82.19 L 319.66,81.60 L 320.74,81.60 L 319.85,82.19 Z M 314.18,80.28 L 313.47,78.54 L 314.35,78.69 L 314.18,80.28 Z" fill="#C8D8E8" stroke="#8BAABB" stroke-width="0.8"/>
<path d="M 172.60,152.18 L 171.14,156.94 L 176.70,159.58 L 175.29,162.43 L 177.68,165.00 L 181.70,165.21 L 183.81,173.90 L 189.50,173.90 L 194.92,177.79 L 202.98,176.81 L 209.89,177.95 L 201.51,180.69 L 200.48,184.52 L 204.53,188.25 L 205.33,192.65 L 199.17,193.17 L 197.54,197.00 L 192.78,199.12 L 191.76,200.95 L 193.69,204.56 L 188.48,203.70 L 188.56,205.77 L 186.32,206.83 L 189.96,209.64 L 189.62,213.31 L 185.37,216.83 L 188.10,217.57 L 194.54,225.13 L 198.46,224.11 L 199.55,225.81 L 197.60,227.01 L 200.75,227.09 L 205.44,231.99 L 205.75,233.94 L 202.20,235.27 L 204.53,236.21 L 203.93,238.49 L 213.83,239.82 L 229.66,248.68 L 234.19,248.47 L 237.96,250.37 L 240.04,255.61 L 248.93,262.90 L 244.90,271.35 L 244.75,280.13 L 253.53,280.25 L 253.57,291.41 L 261.13,294.62 L 264.95,301.24 L 267.70,302.40 L 256.30,300.31 L 252.41,301.18 L 251.96,299.39 L 251.53,298.99 L 251.87,301.39 L 244.78,299.18 L 232.42,300.54 L 223.52,313.07 L 215.21,320.48 L 167.53,318.23 L 99.77,278.32 L 57.00,260.46 L 23.90,256.26 L 27.68,253.57 L 26.22,251.27 L 20.86,251.79 L 19.55,248.68 L 21.59,248.22 L 14.27,229.62 L 63.90,209.23 L 71.01,207.73 L 77.20,199.42 L 77.13,189.86 L 81.33,181.10 L 78.04,172.49 L 79.09,166.23 L 81.90,162.80 L 93.77,160.64 L 107.07,150.19 L 112.35,149.41 L 116.35,144.97 L 126.69,144.64 L 144.68,148.28 L 151.90,145.91 L 155.70,147.49 L 154.28,150.66 L 156.99,153.18 L 165.42,148.73 L 172.60,152.18 Z" fill="#C8D8E8" stroke="#8BAABB" stroke-width="0.8"/>
<path d="M 796.16,423.30 L 794.64,421.95 L 792.95,423.74 L 790.58,421.72 L 789.99,429.50 L 779.78,429.47 L 775.96,432.12 L 775.30,430.78 L 775.08,435.25 L 772.85,434.64 L 773.87,432.68 L 771.57,430.05 L 771.57,433.68 L 767.47,430.63 L 766.86,432.81 L 761.84,432.97 L 762.17,430.18 L 761.24,431.95 L 757.72,431.07 L 759.32,430.05 L 757.01,429.02 L 759.13,427.27 L 754.49,427.26 L 753.10,424.80 L 752.73,421.76 L 754.71,421.45 L 752.36,420.92 L 750.08,416.22 L 751.87,416.22 L 749.20,415.27 L 751.94,412.87 L 744.42,410.84 L 736.37,410.93 L 738.52,403.66 L 733.61,399.74 L 733.18,396.50 L 729.15,394.22 L 724.70,394.91 L 721.87,397.42 L 728.14,395.75 L 732.17,397.29 L 732.33,399.04 L 725.94,397.46 L 710.41,400.19 L 703.76,399.18 L 697.54,401.22 L 686.90,400.63 L 684.59,403.99 L 682.27,401.77 L 679.00,402.53 L 670.07,400.38 L 669.79,398.44 L 671.64,398.02 L 668.80,397.94 L 667.02,398.74 L 669.17,400.19 L 656.55,399.76 L 653.88,401.37 L 654.68,403.40 L 629.48,401.90 L 624.71,404.21 L 625.69,405.65 L 622.45,405.42 L 623.53,403.58 L 619.58,402.87 L 617.35,404.08 L 618.34,405.24 L 608.82,407.05 L 610.20,403.52 L 605.16,403.22 L 607.02,391.17 L 609.46,390.09 L 611.49,381.47 L 619.03,378.32 L 622.69,378.59 L 623.38,375.61 L 626.66,374.31 L 635.34,372.58 L 645.38,372.97 L 646.63,368.29 L 648.50,367.74 L 647.71,363.62 L 650.00,362.52 L 646.31,359.52 L 638.94,360.48 L 635.05,359.34 L 636.92,354.50 L 635.54,338.53 L 630.73,338.90 L 625.22,334.86 L 613.04,332.24 L 604.59,325.26 L 598.66,314.56 L 585.89,304.28 L 628.19,313.85 L 656.45,311.94 L 669.85,314.30 L 672.09,312.22 L 679.99,310.40 L 694.46,311.04 L 724.49,304.77 L 728.24,302.19 L 725.10,300.04 L 727.33,296.07 L 726.36,288.49 L 728.91,281.66 L 733.67,280.51 L 737.47,275.86 L 743.85,273.33 L 746.24,275.00 L 754.29,275.60 L 765.13,272.92 L 765.28,271.63 L 761.16,271.29 L 760.06,268.76 L 770.34,266.46 L 774.81,262.49 L 784.12,264.61 L 785.46,264.01 L 782.07,263.38 L 788.73,263.56 L 792.04,267.21 L 798.16,265.71 L 800.00,264.17 L 800.00,423.19 L 796.16,423.30 Z M 755.43,427.71 L 757.89,427.73 L 756.38,428.60 L 755.43,427.71 Z" fill="#C8D8E8" stroke="#8BAABB" stroke-width="0.8"/>
<path d="M 142.38,72.56 L 142.03,75.77 L 138.21,78.62 L 142.40,85.18 L 140.95,86.43 L 150.46,88.59 L 158.05,88.04 L 170.52,96.43 L 164.27,93.75 L 161.52,95.18 L 159.66,101.22 L 150.00,102.08 L 151.63,105.77 L 154.45,106.94 L 153.55,110.78 L 156.74,113.35 L 157.11,123.15 L 161.50,124.08 L 154.85,133.46 L 165.05,137.30 L 164.27,143.02 L 170.38,146.30 L 169.46,149.51 L 165.42,148.73 L 156.99,153.18 L 154.28,150.66 L 155.70,147.49 L 151.90,145.91 L 144.68,148.28 L 126.69,144.64 L 122.08,145.72 L 118.03,144.54 L 111.94,149.53 L 107.07,150.19 L 106.79,147.43 L 103.28,145.62 L 98.05,148.79 L 84.34,150.92 L 64.38,150.39 L 39.93,158.00 L 26.32,159.72 L 12.99,159.03 L 6.64,155.59 L 0.02,154.47 L 0.00,154.48 L 0.00,68.93 L 2.78,69.27 L 31.26,65.14 L 49.71,69.17 L 82.03,59.47 L 85.40,56.60 L 92.97,58.56 L 96.47,56.78 L 109.81,58.35 L 114.93,55.03 L 119.05,55.36 L 117.67,56.81 L 128.48,61.17 L 126.39,62.24 L 133.64,63.55 L 142.38,72.56 Z" fill="#C8D8E8" stroke="#8BAABB" stroke-width="0.8"/>
<path d="M 596.16,176.03 L 593.28,174.40 L 595.74,171.14 L 593.72,166.18 L 594.22,160.25 L 572.89,160.23 L 564.52,151.97 L 550.08,148.11 L 546.21,141.25 L 532.97,137.76 L 521.49,139.07 L 517.58,138.10 L 516.28,135.77 L 495.45,131.96 L 491.13,125.40 L 487.31,127.29 L 471.72,125.85 L 465.96,129.81 L 446.11,129.50 L 430.81,136.35 L 429.04,141.37 L 425.56,143.20 L 413.97,145.63 L 406.38,145.24 L 404.08,136.70 L 404.14,120.11 L 408.17,111.81 L 400.89,108.36 L 401.49,104.89 L 399.81,105.77 L 400.43,108.25 L 398.48,105.01 L 397.42,105.92 L 397.27,102.52 L 386.60,102.71 L 386.90,106.21 L 384.93,101.52 L 389.86,95.90 L 388.34,98.87 L 397.43,100.09 L 397.58,98.82 L 401.71,98.81 L 396.53,95.56 L 393.51,96.21 L 392.61,93.68 L 397.60,89.46 L 393.13,88.63 L 390.04,90.05 L 380.48,88.31 L 382.93,93.74 L 375.94,87.64 L 375.90,78.48 L 379.17,74.79 L 380.56,65.72 L 385.88,70.24 L 384.39,70.84 L 385.80,72.42 L 392.30,71.03 L 395.23,73.11 L 398.90,69.93 L 401.39,75.48 L 413.05,73.27 L 419.07,74.46 L 415.09,69.85 L 417.96,69.29 L 420.92,71.57 L 425.19,70.95 L 428.30,68.27 L 426.18,66.02 L 428.50,66.74 L 410.53,57.16 L 406.00,48.29 L 406.21,44.94 L 403.92,43.63 L 386.96,44.07 L 381.69,46.61 L 376.74,53.17 L 380.56,53.20 L 377.89,59.47 L 379.67,66.45 L 376.53,59.50 L 371.38,56.49 L 372.16,53.80 L 368.15,51.61 L 382.17,43.59 L 393.40,40.79 L 411.79,39.10 L 432.11,47.72 L 433.24,50.62 L 446.91,61.86 L 458.09,60.59 L 486.58,62.13 L 490.50,59.71 L 486.83,57.63 L 485.76,48.51 L 496.22,42.80 L 508.35,42.21 L 509.85,37.13 L 512.63,35.66 L 520.64,37.10 L 522.52,40.16 L 524.93,39.95 L 520.15,35.04 L 515.36,33.01 L 518.91,31.63 L 526.06,32.37 L 527.45,29.47 L 535.39,34.64 L 541.90,35.08 L 544.81,38.89 L 560.56,39.81 L 564.75,42.04 L 563.95,46.05 L 561.60,46.99 L 570.57,50.95 L 565.29,51.52 L 568.29,55.10 L 565.88,56.60 L 566.46,59.25 L 576.40,63.02 L 586.30,62.15 L 597.21,64.18 L 601.14,61.14 L 612.66,64.87 L 619.30,76.50 L 624.97,79.63 L 627.55,88.58 L 654.09,101.46 L 660.09,105.97 L 671.52,111.10 L 676.36,110.64 L 709.17,126.23 L 716.23,125.47 L 736.15,132.42 L 732.86,135.89 L 733.58,142.94 L 731.59,145.52 L 723.65,144.51 L 713.24,140.23 L 707.43,147.06 L 695.16,147.57 L 688.55,149.64 L 682.95,160.57 L 683.02,164.76 L 679.99,168.00 L 669.10,171.54 L 668.79,173.80 L 664.77,173.14 L 652.86,176.51 L 644.42,176.82 L 647.27,180.16 L 643.71,181.75 L 643.80,185.73 L 633.79,189.74 L 627.01,189.06 L 623.23,192.03 L 621.87,188.78 L 616.01,185.69 L 605.58,185.87 L 596.91,181.88 L 596.16,176.03 Z M 384.96,108.08 L 385.36,115.23 L 383.76,112.01 L 384.96,108.08 Z M 396.00,97.46 L 396.56,98.81 L 395.46,99.22 L 396.00,97.46 Z" fill="#C8D8E8" stroke="#8BAABB" stroke-width="0.8"/>
<path d="M 179.47,105.49 L 183.57,105.76 L 186.88,109.93 L 204.68,112.94 L 215.76,112.37 L 229.96,103.47 L 252.48,95.05 L 262.00,101.97 L 255.97,104.30 L 260.82,109.93 L 254.73,111.12 L 253.04,113.21 L 261.25,118.52 L 263.97,118.14 L 268.96,122.86 L 275.86,122.05 L 277.68,133.33 L 282.55,139.28 L 290.56,142.01 L 310.08,144.25 L 313.36,149.27 L 331.04,157.46 L 354.46,161.39 L 408.79,153.53 L 398.50,155.14 L 408.99,156.32 L 409.14,151.93 L 406.38,145.24 L 413.97,145.63 L 425.56,143.20 L 429.04,141.37 L 430.03,136.90 L 437.89,132.29 L 452.87,128.75 L 468.18,129.57 L 468.28,127.46 L 471.72,125.85 L 487.31,127.29 L 490.85,125.38 L 495.45,131.96 L 516.28,135.77 L 517.58,138.10 L 521.49,139.07 L 532.97,137.76 L 546.21,141.25 L 550.08,148.11 L 564.52,151.97 L 572.89,160.23 L 594.22,160.25 L 593.72,166.18 L 595.74,171.14 L 593.28,174.40 L 596.16,176.03 L 597.43,183.38 L 594.77,188.64 L 592.73,189.11 L 593.74,192.85 L 591.62,198.96 L 588.56,202.71 L 582.14,205.30 L 587.08,209.49 L 580.69,209.75 L 576.78,213.32 L 577.28,223.95 L 587.87,226.60 L 578.72,234.30 L 578.60,236.28 L 585.53,253.48 L 584.09,258.19 L 585.30,269.51 L 607.71,272.09 L 611.33,279.70 L 610.70,283.27 L 585.89,304.28 L 598.66,314.56 L 604.59,325.26 L 613.04,332.24 L 625.22,334.86 L 630.73,338.90 L 635.54,338.53 L 636.92,354.50 L 635.05,359.34 L 638.94,360.48 L 646.31,359.52 L 650.00,362.52 L 647.71,363.62 L 648.58,367.35 L 646.44,368.62 L 645.96,372.56 L 626.66,374.31 L 623.38,375.61 L 622.69,378.59 L 619.03,378.32 L 611.49,381.47 L 609.46,390.09 L 607.02,391.17 L 605.98,401.45 L 600.58,406.25 L 580.43,401.67 L 578.26,398.02 L 574.26,399.48 L 576.12,401.34 L 571.52,399.50 L 561.53,400.50 L 549.88,397.70 L 539.26,399.02 L 533.59,395.60 L 523.07,394.51 L 514.11,395.54 L 511.27,392.78 L 506.31,394.01 L 505.89,391.73 L 494.39,390.85 L 490.64,384.50 L 491.83,382.73 L 488.40,377.44 L 486.96,368.18 L 484.39,365.97 L 485.63,364.95 L 482.84,364.76 L 481.37,362.05 L 463.62,361.60 L 458.85,364.45 L 451.76,365.11 L 448.03,369.59 L 441.53,369.42 L 429.11,375.73 L 418.70,373.40 L 416.60,371.07 L 401.26,371.21 L 395.45,368.11 L 394.22,365.53 L 383.46,362.80 L 372.39,357.51 L 374.17,355.48 L 368.72,351.57 L 357.11,347.32 L 348.62,347.36 L 341.27,345.22 L 333.01,332.42 L 332.44,328.13 L 325.86,323.93 L 326.34,322.59 L 328.31,323.59 L 329.10,321.35 L 326.78,319.53 L 321.69,319.47 L 321.99,312.97 L 308.77,302.58 L 306.92,297.11 L 302.80,296.93 L 292.90,300.78 L 291.54,297.95 L 285.47,297.94 L 284.85,295.65 L 283.30,296.51 L 277.07,293.18 L 284.37,293.90 L 285.95,291.71 L 284.59,290.51 L 278.64,290.31 L 280.08,292.08 L 277.43,292.37 L 275.55,293.92 L 276.92,300.37 L 265.24,301.50 L 263.50,296.57 L 253.57,291.41 L 253.53,280.25 L 244.75,280.13 L 244.90,271.35 L 248.93,262.90 L 240.04,255.61 L 237.96,250.37 L 234.19,248.47 L 229.66,248.68 L 213.83,239.82 L 203.93,238.49 L 204.53,236.21 L 202.20,235.27 L 205.75,233.94 L 205.44,231.99 L 200.75,227.09 L 197.60,227.01 L 199.55,225.81 L 198.46,224.11 L 194.54,225.13 L 188.10,217.57 L 185.37,216.83 L 189.62,213.31 L 189.96,209.64 L 186.32,206.83 L 188.56,205.77 L 188.48,203.70 L 193.69,204.56 L 191.76,200.95 L 192.78,199.12 L 197.54,197.00 L 199.17,193.17 L 205.33,192.65 L 204.53,188.25 L 200.48,184.52 L 201.51,180.69 L 209.89,177.95 L 202.98,176.81 L 194.92,177.79 L 189.50,173.90 L 183.81,173.90 L 181.70,165.21 L 177.39,164.77 L 175.29,162.43 L 176.43,159.12 L 170.94,156.57 L 172.60,152.18 L 169.11,150.33 L 170.38,146.30 L 164.43,143.37 L 165.05,137.30 L 154.85,133.46 L 161.50,124.08 L 157.11,123.15 L 156.74,113.35 L 153.55,110.78 L 154.45,106.94 L 151.63,105.77 L 150.00,102.08 L 159.66,101.22 L 161.52,95.18 L 164.27,93.75 L 170.52,96.43 L 179.47,105.49 Z M 422.80,380.09 L 422.11,380.93 L 421.26,379.93 L 422.80,380.09 Z M 407.46,375.80 L 406.10,374.87 L 409.11,374.46 L 409.57,375.88 L 407.46,375.80 Z M 388.49,369.27 L 386.59,368.25 L 392.61,369.20 L 388.49,369.27 Z M 469.26,367.58 L 470.89,367.29 L 470.24,368.44 L 469.26,367.58 Z M 467.86,365.97 L 459.05,371.47 L 457.22,370.48 L 442.04,374.61 L 441.89,372.23 L 454.57,369.33 L 454.15,365.99 L 457.77,366.99 L 465.92,364.95 L 467.86,365.97 Z M 473.49,363.70 L 471.67,363.85 L 471.73,363.31 L 473.49,363.70 Z M 313.68,317.02 L 313.47,318.08 L 312.35,316.80 L 313.68,317.02 Z M 422.95,388.39 L 421.92,388.33 L 421.82,388.10 L 422.95,388.39 Z M 457.56,373.01 L 456.62,373.07 L 457.01,372.10 L 457.56,373.01 Z M 399.46,372.30 L 398.29,371.82 L 398.50,371.59 L 399.46,372.30 Z M 435.93,389.14 L 435.00,389.25 L 434.83,388.78 L 435.93,389.14 Z" fill="#4A90D9" stroke="#1a5fa8" stroke-width="1.2"/>
<path d="M 174.49,77.73 L 174.95,75.52 L 186.03,78.83 L 192.65,84.50 L 182.92,85.64 L 180.88,80.28 L 174.49,77.73 Z" fill="#A8C8E8" stroke="none"/>
<path d="M 217.41,69.51 L 210.16,69.66 L 214.98,68.05 L 212.83,66.46 L 217.54,66.14 L 231.45,72.35 L 217.41,69.51 Z" fill="#A8C8E8" stroke="none"/>
<path d="M 131.16,230.69 L 133.32,228.07 L 139.18,231.29 L 136.32,233.50 L 131.16,230.69 Z" fill="#A8C8E8" stroke="none"/>
<path d="M 125.74,217.40 L 125.96,208.86 L 136.75,217.88 L 135.80,222.55 L 131.48,222.16 L 125.74,217.40 Z" fill="#A8C8E8" stroke="none"/>
<path d="M 2.92,118.57 L 6.42,115.53 L 3.97,119.50 L 22.02,123.88 L 17.56,125.14 L 15.08,122.24 L 4.08,120.43 L 2.92,118.57 Z" fill="#A8C8E8" stroke="none"/>
<path d="M 8.20,143.65 L 2.92,142.25 L 0.63,139.86 L 3.04,140.36 L 3.02,138.08 L 5.59,138.63 L 4.24,142.00 L 13.33,138.51 L 11.48,136.64 L 11.49,135.59 L 15.15,138.51 L 20.12,133.80 L 18.85,137.90 L 10.11,140.85 L 8.20,143.65 Z" fill="#A8C8E8" stroke="none"/>
<path d="M 778.31,67.18 L 772.10,66.61 L 768.94,62.38 L 782.58,64.86 L 778.31,67.18 Z" fill="#A8C8E8" stroke="none"/>
<path d="M 2.25,178.33 L 2.45,176.76 L 0.00,175.65 L 0.00,173.17 L 8.66,176.12 L 2.25,178.33 Z M 0.06,168.41 L 0.00,168.44 L 0.00,168.27 L 0.06,168.41 Z" fill="#A8C8E8" stroke="none"/>
<path d="M 42.06,117.65 L 40.44,118.31 L 35.32,117.40 L 29.73,118.67 L 32.49,116.40 L 31.58,114.69 L 30.02,115.07 L 26.46,113.04 L 22.57,113.79 L 21.77,112.58 L 14.41,114.11 L 11.48,112.17 L 10.84,110.28 L 13.03,111.62 L 13.61,108.36 L 16.16,111.30 L 14.58,111.73 L 16.88,111.73 L 17.94,109.40 L 18.07,111.52 L 26.90,112.33 L 32.05,114.79 L 35.01,113.50 L 35.52,111.00 L 35.71,113.20 L 40.85,113.04 L 33.84,114.15 L 33.10,116.36 L 42.06,117.65 Z" fill="#A8C8E8" stroke="none"/>
<path d="M 146.98,243.81 L 146.82,245.63 L 143.63,248.03 L 135.24,244.34 L 134.20,240.16 L 135.96,240.16 L 137.57,235.08 L 146.98,243.81 Z" fill="#A8C8E8" stroke="none"/>
<path d="M 194.90,146.47 L 192.60,145.94 L 190.20,149.89 L 184.75,148.05 L 182.07,136.37 L 177.07,134.30 L 177.07,131.53 L 180.68,128.86 L 175.61,128.34 L 176.74,125.95 L 184.88,125.62 L 188.07,127.75 L 186.44,135.56 L 188.31,137.07 L 195.08,137.07 L 195.97,138.89 L 192.61,138.91 L 198.88,144.01 L 194.90,146.47 Z M 189.53,143.64 L 188.38,143.25 L 188.05,144.02 L 189.57,145.22 L 189.53,143.64 Z M 190.78,141.30 L 190.12,142.17 L 191.36,142.75 L 190.78,141.30 Z" fill="#A8C8E8" stroke="none"/>
<path d="M 508.44,53.02 L 495.44,56.04 L 489.87,50.60 L 488.25,53.35 L 487.19,51.81 L 491.43,41.17 L 495.76,38.94 L 502.22,41.18 L 501.80,44.80 L 505.14,46.09 L 503.94,48.34 L 508.73,49.95 L 508.44,53.02 Z" fill="#A8C8E8" stroke="none"/>
<path d="M 122.04,123.96 L 120.51,120.52 L 115.73,121.95 L 105.58,120.49 L 110.61,118.00 L 109.93,115.62 L 126.11,114.19 L 129.07,112.32 L 126.23,113.04 L 125.58,111.49 L 134.11,109.99 L 140.78,111.15 L 131.71,113.52 L 125.86,118.27 L 131.90,119.75 L 131.65,121.93 L 127.11,124.54 L 122.04,123.96 Z" fill="#A8C8E8" stroke="none"/>
<path d="M 220.81,285.16 L 221.36,285.46 L 221.16,285.88 L 220.81,285.16 Z M 238.40,287.49 L 229.79,285.02 L 226.93,285.97 L 224.94,284.32 L 222.87,286.07 L 223.48,284.59 L 219.40,283.85 L 219.04,282.38 L 222.94,281.46 L 235.40,285.46 L 240.36,284.00 L 237.15,285.16 L 242.94,286.14 L 238.40,287.49 Z" fill="#A8C8E8" stroke="none"/>
<path d="M 768.75,71.47 L 757.89,73.29 L 761.04,78.21 L 753.77,74.57 L 753.67,72.50 L 722.39,67.45 L 744.93,67.49 L 752.25,68.66 L 755.90,70.21 L 754.98,71.34 L 759.31,71.33 L 772.10,66.61 L 768.75,71.47 Z" fill="#A8C8E8" stroke="none"/>
</svg>