<svg xmlns="http://www.w3.org/2000/svg" width="800" height="500" viewBox="0 0 800 500">
<rect width="800" height="500" fill="#A8C8E8"/>
<path d="M 583.28,119.77 L 585.03,128.95 L 574.72,137.08 L 579.41,143.20 L 595.59,141.14 L 600.24,148.34 L 598.72,159.20 L 587.79,171.79 L 592.47,168.34 L 589.93,174.38 L 613.28,169.70 L 610.30,175.73 L 615.78,180.59 L 611.99,182.22 L 604.17,193.19 L 602.71,197.58 L 613.70,182.58 L 619.50,184.65 L 616.99,181.33 L 645.94,196.28 L 643.16,209.83 L 635.69,211.18 L 640.49,214.84 L 627.92,219.31 L 647.83,221.40 L 626.68,227.43 L 645.17,227.43 L 639.72,232.90 L 645.17,236.97 L 650.00,230.20 L 647.04,246.51 L 638.14,248.33 L 626.68,239.06 L 617.64,243.80 L 641.92,254.69 L 625.75,253.96 L 637.86,259.43 L 629.75,263.55 L 635.52,267.25 L 615.95,277.09 L 609.15,268.13 L 604.91,266.88 L 615.78,281.84 L 605.84,281.16 L 609.66,285.92 L 601.71,287.90 L 612.52,286.38 L 603.50,306.26 L 594.35,308.36 L 602.43,304.97 L 595.87,303.62 L 585.17,314.46 L 588.41,318.52 L 586.06,320.17 L 572.58,319.87 L 573.48,316.54 L 568.19,316.30 L 566.23,309.81 L 564.32,307.99 L 561.37,307.00 L 566.36,313.03 L 564.81,319.25 L 537.84,332.10 L 516.15,355.87 L 501.98,360.00 L 501.36,366.09 L 495.28,359.68 L 495.46,366.26 L 493.61,367.50 L 494.82,356.57 L 493.52,354.33 L 491.83,366.48 L 467.17,367.50 L 465.31,371.56 L 459.39,375.63 L 463.76,371.56 L 459.68,368.12 L 448.22,378.51 L 455.96,379.02 L 448.16,383.81 L 453.17,385.11 L 448.33,393.77 L 437.87,398.71 L 441.34,392.61 L 432.36,391.20 L 438.40,399.59 L 413.52,406.25 L 347.56,391.60 L 331.00,374.95 L 341.87,372.92 L 335.93,367.50 L 337.34,362.67 L 329.79,374.77 L 321.03,368.80 L 328.50,369.48 L 323.51,368.12 L 324.88,359.97 L 318.86,368.12 L 302.05,357.23 L 308.58,351.81 L 299.89,351.06 L 297.06,354.52 L 301.12,357.96 L 293.97,361.35 L 233.88,365.05 L 232.09,357.23 L 236.43,351.47 L 232.12,348.94 L 233.39,337.91 L 241.72,348.47 L 263.40,341.36 L 266.91,338.88 L 263.66,335.25 L 269.10,334.14 L 263.19,330.76 L 274.33,332.82 L 278.73,327.44 L 268.48,323.25 L 276.38,312.20 L 290.56,310.33 L 281.98,306.50 L 260.71,315.19 L 271.61,307.68 L 263.19,306.26 L 266.37,296.48 L 278.73,285.89 L 284.30,289.73 L 288.08,289.96 L 279.66,285.29 L 287.44,281.84 L 263.48,290.25 L 257.77,300.85 L 245.16,280.42 L 248.68,282.71 L 256.68,273.03 L 247.00,279.37 L 250.74,271.68 L 245.44,270.32 L 246.71,264.85 L 235.38,270.41 L 194.68,265.14 L 182.05,274.45 L 171.77,258.08 L 207.93,254.59 L 212.22,245.28 L 215.93,245.83 L 212.49,251.92 L 215.00,255.37 L 218.90,245.98 L 232.69,239.74 L 231.16,244.54 L 238.94,249.22 L 236.74,245.83 L 240.50,242.10 L 273.13,243.80 L 277.31,228.06 L 263.71,235.88 L 239.94,230.52 L 244.51,229.58 L 240.18,228.84 L 245.78,220.72 L 279.07,202.32 L 266.31,203.67 L 260.06,194.87 L 253.73,204.27 L 247.68,198.52 L 257.77,193.58 L 260.40,188.10 L 243.53,196.90 L 240.47,184.41 L 240.45,191.67 L 235.47,194.91 L 234.29,185.39 L 230.79,184.82 L 232.05,197.52 L 224.97,193.58 L 228.85,187.68 L 221.98,186.75 L 220.54,192.62 L 211.57,190.12 L 209.37,198.93 L 179.15,207.15 L 175.12,200.25 L 150.00,196.90 L 160.73,183.97 L 179.36,195.50 L 183.26,194.19 L 170.56,182.69 L 183.26,186.75 L 170.84,177.27 L 170.28,167.48 L 191.37,177.27 L 194.38,186.42 L 206.92,179.91 L 195.41,175.61 L 208.77,173.86 L 211.26,169.70 L 186.79,170.49 L 180.55,160.46 L 183.53,155.43 L 192.61,160.22 L 210.35,163.66 L 182.98,146.99 L 185.78,140.52 L 202.86,149.33 L 189.49,136.47 L 201.93,138.43 L 192.61,133.75 L 198.93,127.87 L 218.61,137.34 L 220.92,144.78 L 217.20,151.42 L 223.08,143.23 L 227.11,145.94 L 222.46,153.39 L 227.90,147.66 L 228.07,156.83 L 230.58,143.23 L 234.27,142.58 L 239.05,150.78 L 235.83,164.61 L 240.80,150.68 L 246.09,155.48 L 243.92,164.28 L 248.88,156.83 L 243.27,145.20 L 247.95,138.43 L 220.89,124.89 L 248.57,120.83 L 233.03,118.80 L 237.67,111.29 L 222.61,118.22 L 211.26,112.89 L 217.75,112.35 L 215.12,104.21 L 226.02,105.34 L 222.13,101.81 L 245.69,102.03 L 256.06,114.68 L 255.41,121.50 L 276.59,129.70 L 280.31,145.94 L 285.72,138.43 L 286.35,145.57 L 295.61,147.22 L 283.10,152.03 L 296.93,154.46 L 295.74,167.05 L 288.98,171.05 L 295.55,173.82 L 284.34,178.56 L 279.49,170.98 L 275.32,171.05 L 282.14,182.99 L 292.42,185.39 L 288.70,191.48 L 296.06,187.59 L 296.11,195.48 L 288.98,203.00 L 300.99,203.82 L 306.54,230.80 L 306.13,203.10 L 314.47,213.21 L 311.19,197.02 L 314.33,187.64 L 325.35,178.47 L 326.66,192.18 L 334.41,198.20 L 336.58,192.84 L 331.90,190.07 L 337.35,188.10 L 338.41,194.87 L 343.73,181.33 L 335.62,145.20 L 337.49,139.12 L 351.81,135.11 L 361.44,157.51 L 380.67,174.99 L 383.25,164.32 L 378.18,152.07 L 382.59,147.36 L 381.50,141.51 L 398.73,141.14 L 398.25,131.79 L 409.21,127.94 L 422.03,139.91 L 422.23,150.68 L 436.84,161.23 L 443.85,183.30 L 443.67,164.92 L 433.26,146.62 L 433.26,130.30 L 450.69,133.02 L 467.17,156.83 L 465.90,150.68 L 469.64,149.33 L 464.38,148.71 L 471.60,148.59 L 473.36,152.03 L 476.13,138.49 L 485.50,126.19 L 495.61,137.11 L 510.40,138.43 L 506.34,131.66 L 513.37,128.37 L 509.16,131.66 L 518.14,133.75 L 512.83,97.85 L 536.44,94.91 L 542.42,99.04 L 540.31,106.09 L 550.79,108.86 L 552.02,114.00 L 547.69,119.41 L 551.12,124.89 L 565.60,133.25 L 567.82,122.19 L 586.24,109.91 L 602.66,109.99 L 583.28,119.77 Z M 458.39,375.86 L 457.40,377.97 L 454.75,377.03 L 458.39,375.86 Z M 447.81,93.75 L 447.62,94.67 L 445.96,94.08 L 447.81,93.75 Z M 344.53,403.00 L 342.98,405.28 L 342.26,401.37 L 344.53,403.00 Z M 430.55,148.79 L 430.55,149.94 L 427.93,145.77 L 430.55,148.79 Z" fill="#4A90D9" stroke="#1a5fa8" stroke-width="1.2"/>
</svg>