<svg xmlns="http://www.w3.org/2000/svg" width="800" height="500" viewBox="0 0 800 500">
<rect width="800" height="500" fill="#A8C8E8"/>
<path d="M 569.45,119.77 L 571.06,128.95 L 561.53,137.08 L 565.87,143.20 L 580.83,141.14 L 585.12,148.34 L 583.72,159.20 L 573.62,171.79 L 577.94,168.34 L 575.59,174.38 L 597.18,169.70 L 594.43,175.73 L 599.50,180.59 L 595.99,182.22 L 588.76,193.19 L 587.41,197.58 L 597.57,182.58 L 602.93,184.65 L 600.62,181.33 L 627.38,196.28 L 624.81,209.83 L 617.90,211.18 L 622.34,214.84 L 610.72,219.31 L 629.13,221.40 L 609.57,227.43 L 626.67,227.43 L 621.63,232.90 L 626.67,236.97 L 631.13,230.20 L 628.40,246.51 L 620.16,248.33 L 609.57,239.06 L 601.21,243.80 L 623.66,254.69 L 608.71,253.96 L 619.91,259.43 L 612.41,263.55 L 617.75,267.25 L 599.65,277.09 L 593.36,268.13 L 589.45,266.88 L 599.50,281.84 L 590.30,281.16 L 593.84,285.92 L 586.49,287.90 L 596.48,286.38 L 588.15,306.26 L 579.68,308.36 L 587.16,304.97 L 581.09,303.62 L 571.19,314.46 L 574.19,318.52 L 572.01,320.17 L 559.55,319.87 L 560.39,316.54 L 555.50,316.30 L 553.68,309.81 L 551.92,307.99 L 549.19,307.00 L 553.80,313.03 L 552.37,319.25 L 527.44,332.10 L 507.38,355.87 L 494.28,360.00 L 493.71,366.09 L 488.09,359.68 L 488.26,366.26 L 486.55,367.50 L 487.66,356.57 L 486.46,354.33 L 484.90,366.48 L 462.10,367.50 L 460.38,371.56 L 454.91,375.63 L 458.95,371.56 L 455.17,368.12 L 444.58,378.51 L 451.74,379.02 L 444.53,383.81 L 449.16,385.11 L 444.68,393.77 L 435.01,398.71 L 438.22,392.61 L 429.92,391.20 L 435.50,399.59 L 412.50,406.25 L 351.52,391.60 L 336.21,374.95 L 346.26,372.92 L 340.76,367.50 L 342.07,362.67 L 335.09,374.77 L 326.99,368.80 L 333.89,369.48 L 329.28,368.12 L 330.55,359.97 L 324.99,368.12 L 309.44,357.23 L 315.48,351.81 L 307.44,351.06 L 304.83,354.52 L 308.58,357.96 L 301.97,361.35 L 246.42,365.05 L 244.77,357.23 L 248.78,351.47 L 244.79,348.94 L 245.96,337.91 L 253.67,348.47 L 273.71,341.36 L 276.95,338.88 L 273.95,335.25 L 278.98,334.14 L 273.51,330.76 L 283.82,332.82 L 287.88,327.44 L 278.41,323.25 L 285.71,312.20 L 298.82,310.33 L 290.89,306.50 L 271.22,315.19 L 281.30,307.68 L 273.51,306.26 L 276.46,296.48 L 287.88,285.89 L 293.04,289.73 L 296.53,289.96 L 288.74,285.29 L 295.93,281.84 L 273.79,290.25 L 268.50,300.85 L 256.85,280.42 L 260.10,282.71 L 267.50,273.03 L 258.55,279.37 L 262.01,271.68 L 257.11,270.32 L 258.28,264.85 L 247.80,270.41 L 210.17,265.14 L 198.50,274.45 L 189.00,258.08 L 222.43,254.59 L 226.39,245.28 L 229.82,245.83 L 226.65,251.92 L 228.96,255.37 L 232.57,245.98 L 245.32,239.74 L 243.91,244.54 L 251.09,249.22 L 249.06,245.83 L 252.54,242.10 L 282.70,243.80 L 286.57,228.06 L 273.99,235.88 L 252.02,230.52 L 256.25,229.58 L 252.24,228.84 L 257.42,220.72 L 288.20,202.32 L 276.40,203.67 L 270.62,194.87 L 264.77,204.27 L 259.17,198.52 L 268.50,193.58 L 270.93,188.10 L 255.34,196.90 L 252.51,184.41 L 252.49,191.67 L 247.89,194.91 L 246.80,185.39 L 243.56,184.82 L 244.73,197.52 L 238.18,193.58 L 241.77,187.68 L 235.42,186.75 L 234.09,192.62 L 225.79,190.12 L 223.76,198.93 L 195.82,207.15 L 192.10,200.25 L 168.87,196.90 L 178.79,183.97 L 196.01,195.50 L 199.62,194.19 L 187.88,182.69 L 199.62,186.75 L 188.14,177.27 L 187.62,167.48 L 207.12,177.27 L 209.90,186.42 L 221.49,179.91 L 210.85,175.61 L 223.21,173.86 L 225.50,169.70 L 202.88,170.49 L 197.11,160.46 L 199.87,155.43 L 208.26,160.22 L 224.67,163.66 L 199.36,146.99 L 201.95,140.52 L 217.74,149.33 L 205.37,136.47 L 216.88,138.43 L 208.26,133.75 L 214.11,127.87 L 232.30,137.34 L 234.44,144.78 L 230.99,151.42 L 236.44,143.23 L 240.16,145.94 L 235.86,153.39 L 240.89,147.66 L 241.04,156.83 L 243.36,143.23 L 246.77,142.58 L 251.19,150.78 L 248.22,164.61 L 252.82,150.68 L 257.71,155.48 L 255.70,164.28 L 260.28,156.83 L 255.10,145.20 L 259.42,138.43 L 234.40,124.89 L 260.00,120.83 L 245.63,118.80 L 249.92,111.29 L 236.00,118.22 L 225.51,112.89 L 231.50,112.35 L 229.07,104.21 L 239.15,105.34 L 235.55,101.81 L 257.33,102.03 L 266.93,114.68 L 266.33,121.50 L 285.91,129.70 L 289.34,145.94 L 294.34,138.43 L 294.93,145.57 L 303.49,147.22 L 291.92,152.03 L 304.70,154.46 L 303.61,167.05 L 297.36,171.05 L 303.43,173.82 L 293.07,178.56 L 288.59,170.98 L 284.73,171.05 L 291.03,182.99 L 300.54,185.39 L 297.10,191.48 L 303.90,187.59 L 303.95,195.48 L 297.36,203.00 L 308.46,203.82 L 313.59,230.80 L 313.22,203.10 L 320.92,213.21 L 317.90,197.02 L 320.80,187.64 L 330.98,178.47 L 332.19,192.18 L 339.36,198.20 L 341.36,192.84 L 337.04,190.07 L 342.08,188.10 L 343.06,194.87 L 347.98,181.33 L 340.48,145.20 L 342.21,139.12 L 355.45,135.11 L 364.35,157.51 L 382.12,174.99 L 384.51,164.32 L 379.83,152.07 L 383.91,147.36 L 382.89,141.51 L 398.83,141.14 L 398.38,131.79 L 408.52,127.94 L 420.37,139.91 L 420.56,150.68 L 434.06,161.23 L 440.54,183.30 L 440.37,164.92 L 430.75,146.62 L 430.75,130.30 L 446.87,133.02 L 462.10,156.83 L 460.93,150.68 L 464.39,149.33 L 459.52,148.71 L 466.20,148.59 L 467.82,152.03 L 470.38,138.49 L 479.05,126.19 L 488.40,137.11 L 502.07,138.43 L 498.32,131.66 L 504.82,128.37 L 500.92,131.66 L 509.23,133.75 L 504.31,97.85 L 526.14,94.91 L 531.67,99.04 L 529.72,106.09 L 539.41,108.86 L 540.55,114.00 L 536.54,119.41 L 539.71,124.89 L 553.10,133.25 L 555.16,122.19 L 572.18,109.91 L 587.36,109.99 L 569.45,119.77 Z M 453.98,375.86 L 453.07,377.97 L 450.62,377.03 L 453.98,375.86 Z M 444.20,93.75 L 444.03,94.67 L 442.49,94.08 L 444.20,93.75 Z M 348.72,403.00 L 347.28,405.28 L 346.62,401.37 L 348.72,403.00 Z M 428.24,148.79 L 428.24,149.94 L 425.82,145.77 L 428.24,148.79 Z" fill="#4A90D9" stroke="#1a5fa8" stroke-width="1.2"/>
</svg>