<svg xmlns="http://www.w3.org/2000/svg" width="800" height="500" viewBox="0 0 800 500">
<rect width="800" height="500" fill="#A8C8E8"/>
<path d="M 211.91,1.00 L 218.74,2.36 L 220.53,7.16 L 226.74,5.93 L 230.67,8.23 L 229.22,11.75 L 230.93,13.58 L 229.34,15.87 L 239.75,15.62 L 243.19,10.85 L 244.33,11.43 L 242.55,16.32 L 244.09,17.53 L 243.87,20.75 L 252.17,23.52 L 256.16,28.70 L 262.04,27.34 L 266.38,30.26 L 275.33,29.60 L 281.63,37.87 L 285.69,36.58 L 288.28,39.25 L 292.98,39.32 L 295.73,37.60 L 300.28,41.13 L 311.73,43.27 L 303.83,52.52 L 302.62,59.90 L 299.28,65.60 L 300.00,69.87 L 297.79,76.98 L 299.29,80.29 L 295.09,84.44 L 286.88,82.87 L 284.72,86.50 L 288.16,87.17 L 280.65,95.47 L 276.14,97.55 L 275.86,102.49 L 269.57,107.27 L 268.27,111.69 L 269.91,113.01 L 269.08,116.18 L 266.26,117.61 L 266.34,119.48 L 270.01,118.95 L 272.87,116.53 L 271.51,114.49 L 272.62,112.89 L 276.95,110.91 L 283.11,111.83 L 282.37,113.68 L 283.93,115.73 L 282.68,118.91 L 287.87,125.01 L 283.39,127.67 L 283.29,130.59 L 290.68,138.87 L 288.55,144.19 L 279.38,147.16 L 282.27,152.43 L 287.57,154.74 L 288.54,158.44 L 286.61,158.48 L 284.10,162.50 L 285.76,165.14 L 284.71,166.87 L 287.07,170.38 L 294.13,173.52 L 300.70,172.15 L 301.39,175.08 L 297.10,180.52 L 297.07,183.24 L 290.49,186.20 L 290.24,188.91 L 286.66,189.29 L 285.28,192.32 L 281.98,192.85 L 279.14,196.60 L 281.21,196.49 L 280.94,198.41 L 274.77,201.39 L 271.09,200.91 L 270.82,202.87 L 265.98,200.23 L 264.27,202.63 L 260.57,198.99 L 253.95,198.02 L 252.88,194.26 L 247.61,194.80 L 247.45,192.81 L 251.51,190.90 L 247.51,188.79 L 247.96,192.27 L 244.25,192.48 L 244.00,194.63 L 242.02,192.46 L 241.71,189.71 L 240.74,188.24 L 241.71,192.46 L 243.28,194.51 L 225.72,189.29 L 208.73,200.98 L 207.27,213.84 L 210.09,219.16 L 207.00,218.52 L 207.00,0.00 L 211.49,0.00 L 211.91,1.00 Z M 337.68,214.08 L 337.58,214.11 L 337.17,213.34 L 337.68,214.08 Z M 321.60,223.44 L 318.79,220.63 L 321.03,219.21 L 322.03,215.18 L 330.31,211.06 L 333.84,212.61 L 334.94,203.74 L 337.32,204.11 L 336.89,213.53 L 338.62,215.60 L 339.25,226.84 L 336.09,232.06 L 336.06,238.70 L 333.84,240.86 L 335.02,242.08 L 332.19,245.66 L 332.44,247.70 L 323.71,242.62 L 326.36,239.02 L 320.94,237.53 L 323.98,233.30 L 320.11,233.47 L 319.54,231.63 L 322.76,229.27 L 319.13,225.17 L 321.60,223.44 Z M 272.28,203.77 L 270.54,203.85 L 270.72,203.60 L 272.28,203.77 Z" fill="#E8E0D0" stroke="#B8B0A0" stroke-width="0.5"/>
<path d="M 473.71,4.25 L 476.63,5.23 L 483.05,12.69 L 490.22,9.31 L 487.75,3.53 L 498.51,8.72 L 504.26,6.82 L 505.06,9.34 L 501.86,10.80 L 502.73,12.33 L 506.92,15.91 L 510.83,15.12 L 510.22,13.94 L 516.09,17.68 L 521.49,17.70 L 522.68,22.91 L 526.14,24.13 L 527.04,28.40 L 521.02,29.17 L 513.42,35.18 L 511.70,40.88 L 504.65,45.84 L 493.31,45.93 L 488.81,52.82 L 487.35,49.72 L 480.19,47.39 L 476.93,49.50 L 471.40,49.08 L 466.00,45.59 L 449.50,41.89 L 448.20,48.54 L 445.38,48.17 L 442.85,53.57 L 438.45,51.76 L 435.57,54.06 L 430.00,52.90 L 421.25,43.60 L 417.57,43.23 L 408.92,34.20 L 401.70,30.57 L 396.44,22.13 L 399.28,17.76 L 393.67,13.99 L 390.28,8.66 L 390.21,6.71 L 391.70,6.80 L 394.76,10.87 L 399.00,4.72 L 407.96,4.31 L 409.12,1.92 L 415.17,0.00 L 478.19,0.00 L 473.71,4.25 Z" fill="#E8E0D0" stroke="#B8B0A0" stroke-width="0.5"/>
<path d="M 423.43,55.04 L 418.13,53.64 L 417.13,58.95 L 403.64,66.04 L 408.74,73.22 L 406.73,76.55 L 410.38,78.27 L 408.96,83.49 L 404.45,81.09 L 404.10,78.08 L 398.73,79.10 L 393.51,77.75 L 393.58,76.32 L 392.19,79.74 L 380.99,80.16 L 373.22,85.43 L 368.01,85.52 L 365.56,81.75 L 356.86,80.50 L 356.84,85.37 L 351.41,88.74 L 352.41,86.01 L 349.85,86.37 L 347.08,81.47 L 343.76,80.19 L 340.33,81.98 L 331.64,77.98 L 325.53,78.36 L 318.98,74.46 L 315.60,78.11 L 319.97,78.36 L 319.30,80.08 L 312.39,79.29 L 308.53,80.94 L 299.77,80.83 L 300.78,79.97 L 299.29,80.29 L 297.79,76.98 L 300.00,69.87 L 299.15,66.01 L 302.62,59.90 L 303.83,52.52 L 311.73,43.27 L 300.28,41.13 L 295.73,37.60 L 292.98,39.32 L 288.28,39.25 L 285.69,36.58 L 281.87,37.96 L 277.53,30.70 L 274.17,29.88 L 277.35,20.71 L 273.30,19.65 L 269.13,13.89 L 270.15,9.43 L 274.76,6.70 L 274.00,2.24 L 270.63,1.24 L 271.39,0.00 L 415.17,0.00 L 409.12,1.92 L 407.96,4.31 L 399.00,4.72 L 394.76,10.87 L 393.52,8.29 L 390.21,6.71 L 393.67,13.99 L 399.28,17.76 L 396.44,22.13 L 401.70,30.57 L 408.92,34.20 L 412.54,38.96 L 418.21,43.63 L 421.25,43.60 L 425.44,48.44 L 423.43,55.04 Z" fill="#E8E0D0" stroke="#B8B0A0" stroke-width="0.5"/>
<path d="M 271.68,18.24 L 273.30,19.65 L 273.95,19.51 L 275.21,20.36 L 276.54,20.44 L 277.24,20.60 L 277.35,20.71 L 274.17,29.88 L 266.38,30.26 L 262.93,27.66 L 264.85,24.81 L 261.48,18.13 L 266.40,10.74 L 269.55,11.95 L 271.68,18.24 Z" fill="#E8E0D0" stroke="#B8B0A0" stroke-width="0.5"/>
<path d="M 270.63,1.24 L 274.00,2.24 L 274.76,6.70 L 270.36,9.20 L 269.55,11.95 L 266.40,10.74 L 261.48,18.13 L 264.85,24.81 L 263.88,27.03 L 256.16,28.70 L 252.17,23.52 L 243.87,20.75 L 244.09,17.53 L 242.55,16.32 L 244.14,11.22 L 236.08,16.93 L 229.34,15.87 L 230.93,13.58 L 229.22,11.75 L 230.67,8.23 L 226.74,5.93 L 220.53,7.16 L 218.74,2.36 L 211.91,1.00 L 211.49,0.00 L 271.39,0.00 L 270.63,1.24 Z" fill="#E8E0D0" stroke="#B8B0A0" stroke-width="0.5"/>
<path d="M 564.90,234.84 L 566.56,228.58 L 572.91,225.51 L 576.77,228.37 L 579.76,224.14 L 593.00,221.53 L 593.00,253.67 L 592.15,253.65 L 582.70,261.34 L 570.22,261.80 L 565.19,260.08 L 560.80,251.39 L 561.61,246.94 L 559.66,242.93 L 561.50,241.97 L 560.80,237.96 L 562.15,234.21 L 564.90,234.84 Z" fill="#E8E0D0" stroke="#B8B0A0" stroke-width="0.5"/>
<path d="M 560.80,237.96 L 561.50,241.97 L 559.66,242.93 L 561.61,246.94 L 560.80,251.39 L 565.19,260.08 L 570.04,260.58 L 569.78,264.07 L 571.66,267.45 L 569.64,271.96 L 566.28,273.32 L 563.78,282.16 L 556.70,285.04 L 558.71,289.59 L 556.34,289.97 L 556.67,292.31 L 554.40,294.47 L 550.45,293.13 L 550.87,288.31 L 548.78,287.21 L 547.91,283.47 L 540.06,278.93 L 536.28,273.36 L 540.04,275.30 L 538.24,270.05 L 539.63,269.76 L 536.58,267.09 L 538.14,260.21 L 541.02,259.88 L 540.45,257.67 L 540.13,258.98 L 539.49,259.51 L 540.88,250.83 L 538.38,246.60 L 540.88,243.90 L 539.35,241.96 L 542.83,241.43 L 542.40,235.67 L 537.81,234.77 L 537.96,227.98 L 535.93,225.92 L 544.58,213.14 L 546.31,218.00 L 551.46,215.76 L 555.48,222.17 L 560.42,224.57 L 562.81,231.85 L 560.80,237.96 Z" fill="#E8E0D0" stroke="#B8B0A0" stroke-width="0.5"/>
<path d="M 552.77,213.19 L 551.37,210.54 L 560.32,207.74 L 559.97,205.19 L 564.13,201.54 L 562.90,198.51 L 566.76,196.75 L 567.65,199.25 L 572.79,201.40 L 576.20,206.90 L 579.19,207.97 L 578.59,210.74 L 586.57,213.34 L 581.37,221.58 L 582.34,224.15 L 578.35,224.76 L 576.98,228.33 L 572.91,225.51 L 566.56,228.58 L 564.47,235.00 L 562.15,234.21 L 560.81,225.10 L 555.48,222.17 L 551.99,216.06 L 552.77,213.19 Z" fill="#E8E0D0" stroke="#B8B0A0" stroke-width="0.5"/>
<path d="M 210.09,219.16 L 210.22,221.37 L 212.86,222.09 L 208.83,224.91 L 211.13,232.25 L 207.00,236.53 L 207.00,218.52 L 210.09,219.16 Z M 216.03,291.43 L 215.61,293.86 L 211.54,301.23 L 207.65,304.39 L 207.00,303.59 L 207.00,286.60 L 210.06,285.53 L 208.39,287.02 L 210.61,287.57 L 209.19,290.38 L 216.03,291.43 Z M 233.50,288.27 L 231.70,289.64 L 223.24,286.41 L 222.69,284.20 L 228.80,282.55 L 233.50,288.27 Z" fill="#E8E0D0" stroke="#B8B0A0" stroke-width="0.5"/>
<path d="M 395.73,477.84 L 405.37,478.61 L 416.04,475.91 L 420.49,478.65 L 432.92,481.03 L 438.68,486.29 L 453.11,489.62 L 456.80,495.57 L 456.75,500.00 L 363.91,500.00 L 365.85,496.60 L 379.49,488.58 L 377.53,483.09 L 378.65,468.45 L 395.73,477.84 Z M 552.12,495.53 L 562.06,485.25 L 571.95,479.47 L 579.32,478.90 L 583.54,475.04 L 593.00,474.77 L 593.00,500.00 L 550.88,500.00 L 552.12,495.53 Z" fill="#E8E0D0" stroke="#B8B0A0" stroke-width="0.5"/>
<path d="M 377.53,483.09 L 379.49,488.58 L 365.85,496.60 L 363.91,500.00 L 329.15,500.00 L 328.83,498.35 L 314.38,486.06 L 313.40,477.74 L 309.43,470.79 L 302.10,467.10 L 301.46,461.09 L 297.24,450.29 L 297.90,443.82 L 302.92,439.79 L 304.26,435.22 L 312.46,428.93 L 313.76,417.61 L 316.41,412.92 L 313.63,410.67 L 314.50,404.94 L 312.56,397.13 L 314.92,380.89 L 311.11,378.31 L 316.39,374.63 L 316.04,371.36 L 320.67,369.95 L 319.87,367.17 L 324.37,366.09 L 332.19,359.24 L 343.00,356.23 L 345.31,356.68 L 343.55,359.79 L 344.44,361.44 L 346.44,360.73 L 344.52,359.40 L 345.79,358.43 L 353.68,360.73 L 350.77,361.26 L 352.77,362.37 L 351.87,364.81 L 355.20,368.76 L 351.99,370.99 L 355.37,372.78 L 358.68,372.12 L 360.02,368.87 L 369.46,363.37 L 371.07,369.47 L 364.37,380.31 L 359.33,382.32 L 357.78,389.45 L 360.77,396.73 L 369.25,402.25 L 369.28,410.42 L 371.64,413.54 L 360.26,431.70 L 350.74,437.61 L 348.28,441.79 L 349.62,447.83 L 354.86,454.39 L 358.08,455.89 L 362.68,454.28 L 361.82,458.63 L 363.12,460.45 L 366.59,458.79 L 367.13,456.19 L 369.29,456.68 L 370.49,463.52 L 374.37,465.60 L 371.13,464.94 L 372.06,467.64 L 377.19,468.12 L 375.55,466.36 L 378.65,468.45 L 377.53,483.09 Z M 369.64,451.75 L 366.15,456.08 L 364.90,453.67 L 363.16,454.05 L 363.08,449.49 L 369.64,451.75 Z M 368.16,428.28 L 370.67,428.61 L 369.55,429.65 L 368.16,428.28 Z M 374.44,426.75 L 371.07,428.51 L 373.57,424.13 L 374.44,426.75 Z" fill="#E8E0D0" stroke="#B8B0A0" stroke-width="0.5"/>
<path d="M 591.06,159.15 L 578.94,155.60 L 578.12,153.81 L 581.78,152.93 L 578.04,149.99 L 580.91,146.03 L 566.20,137.03 L 566.58,129.66 L 564.60,129.92 L 555.59,120.08 L 560.16,118.30 L 564.12,119.28 L 566.84,115.78 L 573.85,115.35 L 576.60,111.77 L 577.01,106.72 L 581.08,104.04 L 583.73,95.44 L 591.20,85.43 L 591.33,82.10 L 593.00,80.38 L 593.00,162.19 L 591.06,159.15 Z" fill="#E8E0D0" stroke="#B8B0A0" stroke-width="0.5"/>
<path d="M 591.33,82.10 L 591.20,85.43 L 583.73,95.44 L 581.08,104.04 L 577.01,106.72 L 576.60,111.77 L 571.96,116.63 L 567.27,115.67 L 564.12,119.28 L 560.16,118.30 L 555.59,120.08 L 541.56,118.57 L 535.76,123.50 L 532.21,122.49 L 530.05,125.10 L 523.45,125.49 L 518.36,129.95 L 507.30,129.15 L 501.89,124.71 L 496.91,124.19 L 486.63,112.70 L 480.11,109.47 L 477.13,105.67 L 476.26,100.37 L 471.58,99.74 L 475.24,95.93 L 479.52,96.09 L 478.27,95.40 L 479.99,92.34 L 478.03,91.00 L 479.25,88.59 L 478.46,85.35 L 482.65,83.84 L 483.63,81.55 L 482.43,79.28 L 477.93,78.22 L 481.17,75.72 L 485.82,77.84 L 491.45,76.95 L 490.00,72.78 L 493.66,68.55 L 506.64,75.83 L 524.20,75.08 L 526.70,73.61 L 525.22,69.88 L 527.15,68.02 L 539.09,66.78 L 543.04,62.98 L 549.22,65.59 L 557.24,61.55 L 560.42,54.92 L 566.88,53.76 L 573.13,55.92 L 579.52,53.97 L 586.29,60.10 L 593.00,58.89 L 593.00,80.38 L 591.33,82.10 Z" fill="#E8E0D0" stroke="#B8B0A0" stroke-width="0.5"/>
<path d="M 585.66,59.91 L 579.52,53.97 L 573.13,55.92 L 566.88,53.76 L 561.01,54.71 L 557.24,61.55 L 549.22,65.59 L 543.04,62.98 L 539.09,66.78 L 527.15,68.02 L 525.22,69.88 L 526.70,73.61 L 524.20,75.08 L 504.95,75.42 L 496.76,69.13 L 491.33,68.14 L 486.77,59.24 L 490.43,48.98 L 493.31,45.93 L 504.65,45.84 L 511.70,40.88 L 513.42,35.18 L 521.02,29.17 L 529.05,28.56 L 529.66,31.66 L 533.29,31.53 L 539.40,25.93 L 543.12,31.32 L 546.00,31.55 L 546.33,37.08 L 551.69,37.48 L 553.42,33.82 L 557.10,31.59 L 564.63,31.36 L 569.28,34.32 L 572.39,32.52 L 572.00,30.98 L 576.20,30.04 L 587.52,31.98 L 591.99,36.83 L 593.00,37.16 L 593.00,58.89 L 585.66,59.91 Z" fill="#E8E0D0" stroke="#B8B0A0" stroke-width="0.5"/>
<path d="M 526.14,24.13 L 522.68,22.91 L 521.49,17.70 L 516.09,17.68 L 510.22,13.94 L 510.83,15.12 L 506.92,15.91 L 502.73,12.33 L 501.86,10.80 L 505.06,9.34 L 504.26,6.82 L 498.51,8.72 L 487.75,3.53 L 490.22,9.31 L 483.05,12.69 L 476.63,5.23 L 473.71,4.25 L 478.19,0.00 L 593.00,0.00 L 593.00,37.16 L 591.99,36.83 L 589.72,33.23 L 583.09,30.65 L 572.31,30.85 L 569.28,34.32 L 564.63,31.36 L 557.10,31.59 L 553.42,33.82 L 551.69,37.48 L 545.82,36.91 L 546.00,31.55 L 543.12,31.32 L 539.68,26.03 L 533.29,31.53 L 529.66,31.66 L 529.63,28.87 L 527.04,28.40 L 526.14,24.13 Z" fill="#E8E0D0" stroke="#B8B0A0" stroke-width="0.5"/>
<path d="M 582.70,261.34 L 592.15,253.65 L 593.00,253.67 L 593.00,328.86 L 590.32,327.49 L 581.40,330.62 L 577.45,325.21 L 577.74,327.92 L 574.07,330.40 L 570.68,320.69 L 568.08,316.93 L 565.44,316.77 L 566.97,315.20 L 566.26,312.74 L 572.65,315.29 L 574.51,314.98 L 574.16,311.70 L 572.65,309.94 L 572.10,311.40 L 567.78,310.64 L 567.32,308.55 L 565.72,310.84 L 567.51,312.62 L 566.19,312.24 L 565.56,312.98 L 560.44,304.02 L 555.45,300.88 L 556.01,297.93 L 553.37,297.36 L 554.35,294.81 L 550.67,292.95 L 555.65,293.77 L 556.34,289.97 L 558.71,289.59 L 556.70,285.04 L 563.78,282.16 L 566.28,273.32 L 571.30,269.63 L 570.22,261.80 L 582.70,261.34 Z M 590.02,365.72 L 590.57,371.06 L 588.79,372.91 L 585.24,370.44 L 585.30,367.08 L 582.46,362.41 L 584.58,354.87 L 573.07,341.87 L 577.52,338.01 L 578.50,332.64 L 583.52,334.42 L 588.12,329.39 L 593.00,331.95 L 593.00,365.19 L 590.02,365.72 Z M 586.72,372.34 L 586.67,373.64 L 586.12,373.29 L 586.72,372.34 Z M 585.11,371.17 L 585.69,371.06 L 585.43,371.43 L 585.11,371.17 Z M 570.65,345.87 L 570.85,346.69 L 568.77,345.77 L 567.18,347.98 L 563.21,342.24 L 565.03,340.60 L 570.65,345.87 Z M 560.99,335.60 L 559.69,331.14 L 559.28,333.86 L 557.66,333.68 L 558.77,328.78 L 561.40,329.49 L 561.56,325.82 L 563.44,331.64 L 564.47,330.98 L 566.82,335.05 L 565.52,336.91 L 560.99,335.60 Z M 566.01,328.58 L 566.13,329.88 L 564.60,329.51 L 563.21,325.61 L 566.01,328.58 Z M 569.05,323.79 L 568.77,323.79 L 569.55,322.34 L 569.05,323.79 Z M 561.70,323.24 L 564.57,315.68 L 565.17,321.69 L 561.70,323.24 Z M 554.52,306.18 L 554.76,306.80 L 553.47,306.00 L 554.52,306.18 Z M 552.81,301.81 L 548.88,300.04 L 543.11,291.47 L 549.62,290.34 L 547.53,294.05 L 549.20,294.79 L 549.38,298.89 L 552.53,299.96 L 552.81,301.81 Z M 569.74,321.68 L 568.30,322.89 L 568.66,321.64 L 569.74,321.68 Z M 566.05,321.68 L 566.87,322.54 L 565.89,321.72 L 565.59,321.01 L 566.89,320.66 L 566.05,321.68 Z" fill="#E8E0D0" stroke="#B8B0A0" stroke-width="0.5"/>
<path d="M 340.39,93.17 L 339.69,94.51 L 337.58,94.32 L 338.48,88.96 L 340.39,93.17 Z" fill="#E8E0D0" stroke="#B8B0A0" stroke-width="0.5"/>
<path d="M 564.60,129.92 L 566.58,129.66 L 566.20,137.03 L 580.91,146.03 L 578.04,149.99 L 581.78,152.93 L 578.12,153.81 L 578.94,155.60 L 591.06,159.15 L 593.00,162.19 L 593.00,221.70 L 582.56,224.27 L 581.37,221.58 L 583.42,220.37 L 586.40,212.75 L 578.59,210.74 L 579.19,207.97 L 576.20,206.90 L 572.79,201.40 L 567.65,199.25 L 567.26,196.91 L 562.90,198.51 L 563.71,202.43 L 559.97,205.19 L 560.32,207.74 L 557.66,208.49 L 557.50,206.35 L 549.24,200.77 L 542.53,199.09 L 533.98,190.88 L 535.54,187.98 L 540.33,188.63 L 540.69,186.40 L 535.35,176.84 L 541.12,177.51 L 542.95,175.93 L 532.78,167.63 L 533.05,162.93 L 538.05,153.64 L 534.20,151.90 L 530.74,153.57 L 530.25,152.24 L 533.09,151.21 L 531.33,146.25 L 538.68,144.47 L 529.96,139.94 L 530.62,136.51 L 532.57,136.16 L 528.47,134.50 L 529.78,131.92 L 527.49,126.84 L 531.75,122.67 L 535.76,123.50 L 541.56,118.57 L 555.59,120.08 L 564.60,129.92 Z" fill="#E8E0D0" stroke="#B8B0A0" stroke-width="0.5"/>
<path d="M 486.63,112.70 L 495.80,123.41 L 501.89,124.71 L 507.30,129.15 L 518.36,129.95 L 523.45,125.49 L 528.42,124.85 L 527.28,127.96 L 529.78,131.92 L 528.47,134.50 L 532.57,136.16 L 530.62,136.51 L 529.96,139.94 L 538.68,144.47 L 532.89,144.67 L 531.33,146.25 L 533.09,151.21 L 528.19,153.69 L 524.02,147.66 L 520.64,148.44 L 514.99,145.70 L 506.84,148.21 L 503.79,145.53 L 493.71,145.94 L 488.39,142.28 L 486.11,145.06 L 480.38,143.95 L 476.07,149.91 L 470.08,144.18 L 465.47,144.83 L 464.17,156.17 L 470.24,160.06 L 469.79,162.31 L 472.03,162.84 L 476.29,174.67 L 490.54,189.06 L 495.40,191.36 L 495.79,195.67 L 502.65,202.59 L 502.77,205.18 L 500.36,204.95 L 500.09,203.01 L 487.50,192.90 L 477.60,190.08 L 478.46,189.03 L 468.85,190.26 L 468.67,185.29 L 463.72,183.27 L 452.35,171.63 L 452.27,169.28 L 455.40,170.14 L 454.71,167.93 L 458.02,169.67 L 460.13,169.57 L 449.57,161.54 L 447.07,157.39 L 447.83,151.05 L 446.44,147.42 L 440.73,142.03 L 435.48,140.67 L 432.24,150.55 L 430.57,151.30 L 430.87,150.31 L 429.99,148.89 L 429.17,154.98 L 426.95,154.43 L 427.51,155.92 L 427.21,156.08 L 421.54,147.98 L 423.63,146.32 L 420.99,146.03 L 421.26,141.32 L 419.19,136.15 L 426.92,138.53 L 428.60,136.09 L 436.72,137.07 L 440.94,131.95 L 445.31,137.41 L 447.85,136.07 L 452.24,138.36 L 456.01,137.74 L 454.86,133.73 L 456.99,132.69 L 454.59,130.45 L 463.11,127.26 L 463.56,122.02 L 461.37,119.94 L 462.38,117.40 L 470.06,114.94 L 470.84,112.82 L 475.25,112.94 L 474.43,109.70 L 476.64,108.25 L 486.63,112.70 Z M 520.22,219.57 L 508.00,209.48 L 504.52,208.53 L 505.35,209.81 L 505.08,209.99 L 494.25,204.31 L 490.86,203.98 L 489.95,202.45 L 504.94,208.17 L 503.15,206.78 L 506.36,206.27 L 507.30,208.77 L 519.03,215.72 L 520.22,219.57 Z M 488.32,209.85 L 488.63,210.43 L 486.29,210.96 L 488.32,209.85 Z M 505.09,212.07 L 496.48,209.48 L 497.87,209.19 L 505.09,212.07 Z M 493.97,205.95 L 486.91,206.52 L 482.46,204.31 L 493.97,205.95 Z M 471.44,203.53 L 470.66,202.09 L 472.31,201.46 L 474.56,201.90 L 471.44,203.53 Z M 477.20,198.57 L 493.84,200.41 L 488.77,200.41 L 477.20,198.57 Z M 478.21,195.28 L 477.89,194.88 L 478.30,193.22 L 487.74,195.43 L 478.21,195.28 Z M 476.73,194.72 L 473.73,192.87 L 475.28,192.74 L 476.73,194.72 Z M 464.41,186.93 L 463.03,186.66 L 461.65,185.66 L 464.41,186.93 Z M 454.82,180.75 L 457.43,183.03 L 454.03,180.28 L 454.82,180.75 Z M 454.71,176.60 L 458.45,179.92 L 456.68,179.07 L 454.71,176.60 Z M 451.89,174.41 L 450.69,172.53 L 453.99,175.11 L 454.57,176.41 L 451.89,174.41 Z M 445.83,172.35 L 446.77,173.11 L 445.93,172.64 L 445.83,172.35 Z M 453.36,180.33 L 446.38,172.16 L 449.57,174.39 L 453.36,180.33 Z M 444.03,157.94 L 454.57,167.73 L 452.03,168.49 L 444.03,157.94 Z M 439.99,163.85 L 436.52,161.44 L 435.97,157.58 L 439.99,163.85 Z M 442.49,155.37 L 443.89,155.37 L 443.06,154.06 L 446.57,157.56 L 442.49,155.37 Z M 437.84,159.20 L 435.13,152.41 L 437.50,151.12 L 434.81,146.89 L 435.52,145.30 L 438.76,150.71 L 439.58,159.05 L 437.84,159.20 Z M 437.78,147.59 L 439.91,146.31 L 440.29,143.24 L 445.67,150.55 L 443.82,151.47 L 437.78,147.59 Z M 477.27,190.63 L 473.95,190.64 L 475.03,190.02 L 477.27,190.63 Z M 445.20,169.55 L 445.16,169.70 L 444.33,169.84 L 445.20,169.55 Z M 442.20,168.11 L 442.56,168.58 L 441.22,167.54 L 442.20,168.11 Z M 444.48,167.08 L 444.63,165.70 L 445.44,165.97 L 444.48,167.08 Z M 434.85,158.63 L 434.66,160.39 L 433.88,160.02 L 434.85,158.63 Z" fill="#E8E0D0" stroke="#B8B0A0" stroke-width="0.5"/>
<path d="M 295.61,184.49 L 294.83,184.37 L 295.66,183.27 L 295.61,184.49 Z" fill="#E8E0D0" stroke="#B8B0A0" stroke-width="0.5"/>
<path d="M 209.26,372.50 L 211.03,370.59 L 216.15,371.54 L 224.12,367.77 L 242.61,368.36 L 253.09,375.16 L 261.78,370.05 L 271.16,368.17 L 275.59,363.03 L 286.38,368.50 L 292.14,366.43 L 291.93,363.12 L 303.59,365.71 L 303.08,368.50 L 305.82,369.59 L 312.39,366.67 L 319.87,367.17 L 320.67,369.95 L 316.04,371.36 L 316.39,374.63 L 311.11,378.31 L 314.92,380.89 L 312.56,397.13 L 314.50,404.94 L 313.63,410.67 L 316.41,412.92 L 313.76,417.61 L 312.46,428.93 L 304.26,435.22 L 302.92,439.79 L 297.90,443.82 L 297.14,449.24 L 302.10,467.10 L 309.43,470.79 L 313.40,477.74 L 314.38,486.06 L 328.83,498.35 L 329.15,500.00 L 207.00,500.00 L 207.00,371.53 L 209.26,372.50 Z" fill="#E8E0D0" stroke="#B8B0A0" stroke-width="0.5"/>
<path d="M 519.03,215.72 L 521.31,212.79 L 518.95,205.08 L 523.11,203.30 L 523.62,197.56 L 526.80,194.64 L 530.27,196.64 L 531.83,195.52 L 528.51,190.62 L 529.96,189.12 L 534.38,189.48 L 534.31,191.59 L 542.53,199.09 L 549.24,200.77 L 557.83,206.78 L 554.38,210.78 L 551.21,210.76 L 552.77,213.19 L 550.30,217.03 L 546.65,218.18 L 545.04,213.38 L 543.01,214.49 L 535.99,225.64 L 537.96,227.98 L 537.81,234.77 L 533.87,232.46 L 528.11,223.13 L 525.94,223.48 L 521.21,219.38 L 524.35,220.20 L 524.09,217.78 L 520.22,219.57 L 519.03,215.72 Z" fill="#E8E0D0" stroke="#B8B0A0" stroke-width="0.5"/>
<path d="M 501.19,205.60 L 503.34,204.77 L 502.65,202.59 L 495.79,195.67 L 495.40,191.36 L 490.54,189.06 L 476.29,174.67 L 472.03,162.84 L 469.79,162.31 L 470.24,160.06 L 464.17,156.17 L 465.47,144.83 L 470.08,144.18 L 476.07,149.91 L 480.38,143.95 L 486.11,145.06 L 488.39,142.28 L 493.71,145.94 L 503.79,145.53 L 506.84,148.21 L 514.99,145.70 L 520.64,148.44 L 523.90,147.59 L 528.19,153.69 L 534.20,151.90 L 537.89,152.99 L 532.59,166.58 L 542.80,175.42 L 541.12,177.51 L 535.94,176.56 L 535.06,178.03 L 539.77,183.30 L 540.33,188.63 L 537.44,187.43 L 528.62,190.17 L 531.83,195.52 L 530.27,196.64 L 526.80,194.64 L 523.62,197.56 L 523.11,203.30 L 519.34,204.02 L 519.17,208.77 L 521.31,212.79 L 520.14,215.57 L 510.08,210.84 L 506.36,206.27 L 501.19,205.60 Z" fill="#E8E0D0" stroke="#B8B0A0" stroke-width="0.5"/>
<path d="M 439.85,397.84 L 437.77,397.24 L 435.69,393.21 L 440.27,395.45 L 439.85,397.84 Z M 435.55,391.11 L 435.94,391.56 L 432.92,391.55 L 435.55,391.11 Z" fill="#E8E0D0" stroke="#B8B0A0" stroke-width="0.5"/>
<path d="M 486.77,59.24 L 492.92,68.95 L 490.00,72.78 L 491.45,76.95 L 485.82,77.84 L 481.17,75.72 L 477.93,78.22 L 482.43,79.28 L 483.63,81.55 L 482.65,83.84 L 478.46,85.35 L 479.25,88.59 L 478.03,91.00 L 479.99,92.34 L 478.27,95.40 L 479.52,96.09 L 475.24,95.93 L 469.30,100.69 L 470.01,104.92 L 466.65,103.47 L 462.30,103.66 L 458.79,106.43 L 450.68,105.49 L 446.39,106.80 L 440.11,112.79 L 396.87,104.40 L 394.07,99.60 L 391.24,98.50 L 392.33,93.75 L 383.30,96.84 L 371.96,97.02 L 368.36,102.27 L 358.02,100.19 L 355.73,96.15 L 350.43,100.17 L 345.64,98.00 L 345.30,95.63 L 339.69,94.51 L 338.48,88.96 L 341.07,85.00 L 339.01,81.64 L 343.76,80.19 L 348.63,82.90 L 349.85,86.37 L 352.41,86.01 L 351.41,88.74 L 356.84,85.37 L 356.86,80.50 L 365.56,81.75 L 368.01,85.52 L 373.22,85.43 L 380.99,80.16 L 392.19,79.74 L 392.25,77.03 L 393.58,76.32 L 393.51,77.75 L 398.73,79.10 L 404.10,78.08 L 404.45,81.09 L 408.96,83.49 L 410.38,78.27 L 406.73,76.55 L 408.74,73.22 L 403.76,65.85 L 417.13,58.95 L 418.13,53.64 L 423.43,55.04 L 425.44,48.44 L 430.69,53.15 L 435.76,54.04 L 438.45,51.76 L 442.85,53.57 L 445.38,48.17 L 448.20,48.54 L 449.06,41.94 L 466.00,45.59 L 471.40,49.08 L 476.93,49.50 L 480.19,47.39 L 487.35,49.72 L 488.81,52.82 L 486.77,59.24 Z" fill="#C8D8E8" stroke="#8BAABB" stroke-width="0.8"/>
<path d="M 396.68,178.28 L 398.44,177.36 L 398.36,179.13 L 396.68,178.28 Z" fill="#C8D8E8" stroke="#8BAABB" stroke-width="0.8"/>
<path d="M 420.44,135.41 L 427.04,132.92 L 420.69,128.14 L 421.19,123.39 L 418.27,122.82 L 421.83,118.13 L 417.23,117.39 L 416.32,115.17 L 423.12,108.99 L 440.11,112.79 L 446.39,106.80 L 450.68,105.49 L 458.79,106.43 L 462.30,103.66 L 466.65,103.47 L 470.01,104.92 L 469.10,100.88 L 471.58,99.74 L 476.26,100.37 L 477.29,106.04 L 479.81,108.31 L 475.02,109.09 L 475.25,112.94 L 470.84,112.82 L 470.06,114.94 L 462.38,117.40 L 461.37,119.94 L 463.56,122.02 L 463.11,127.26 L 454.59,130.45 L 456.99,132.69 L 454.86,133.73 L 456.01,137.74 L 452.24,138.36 L 447.85,136.07 L 445.31,137.41 L 440.94,131.95 L 436.72,137.07 L 421.94,137.56 L 420.44,135.41 Z" fill="#C8D8E8" stroke="#8BAABB" stroke-width="0.8"/>
<path d="M 355.65,104.88 L 357.47,106.19 L 357.16,108.50 L 352.06,106.10 L 348.84,108.63 L 348.71,110.97 L 351.02,112.14 L 350.56,116.77 L 349.04,117.05 L 346.52,112.99 L 338.79,114.95 L 336.72,109.57 L 333.25,109.92 L 332.48,116.77 L 327.97,121.94 L 329.20,125.72 L 327.97,127.83 L 325.90,127.67 L 325.31,124.42 L 323.22,123.45 L 324.05,120.58 L 316.54,116.65 L 315.76,110.81 L 309.44,115.67 L 309.91,119.57 L 304.26,125.30 L 298.38,123.42 L 288.78,125.95 L 282.85,119.36 L 283.11,111.83 L 279.60,110.71 L 273.28,112.36 L 271.51,114.49 L 272.87,116.53 L 266.34,119.48 L 266.33,117.28 L 268.99,116.36 L 269.94,113.31 L 268.27,111.69 L 269.57,107.27 L 275.86,102.49 L 276.14,97.55 L 280.65,95.47 L 288.16,87.17 L 284.72,86.50 L 286.88,82.87 L 291.08,82.89 L 292.24,84.81 L 300.32,80.01 L 301.26,81.38 L 319.03,80.16 L 319.97,78.36 L 315.60,78.11 L 318.98,74.46 L 325.53,78.36 L 333.45,78.53 L 341.09,83.86 L 337.79,90.39 L 337.58,94.32 L 345.30,95.63 L 345.64,98.00 L 350.43,100.17 L 355.85,96.17 L 357.36,99.70 L 355.65,104.88 Z" fill="#C8D8E8" stroke="#8BAABB" stroke-width="0.8"/>
<path d="M 397.85,233.38 L 397.86,233.38 L 397.87,233.41 L 397.85,233.38 Z" fill="#C8D8E8" stroke="#8BAABB" stroke-width="0.8"/>
<path d="M 290.53,126.32 L 298.38,123.42 L 304.51,125.17 L 309.91,119.57 L 309.44,115.67 L 315.76,110.81 L 316.54,116.65 L 324.05,120.58 L 323.22,123.45 L 325.31,124.42 L 325.90,127.67 L 327.97,127.83 L 329.20,125.72 L 327.97,121.94 L 332.48,116.77 L 333.64,109.59 L 336.72,109.57 L 338.79,114.95 L 346.52,112.99 L 349.71,117.07 L 351.39,115.92 L 350.03,114.13 L 351.02,112.14 L 348.71,110.97 L 348.84,108.63 L 352.06,106.10 L 357.16,108.50 L 357.47,106.19 L 355.65,104.88 L 357.36,99.70 L 368.36,102.27 L 371.96,97.02 L 383.30,96.84 L 392.33,93.75 L 391.24,98.50 L 394.07,99.60 L 396.87,104.40 L 423.12,108.99 L 416.32,115.17 L 417.23,117.39 L 421.83,118.13 L 418.27,122.82 L 421.19,123.39 L 420.38,127.57 L 424.69,129.91 L 427.04,132.92 L 426.09,134.19 L 423.33,133.96 L 425.29,133.39 L 420.55,128.67 L 417.06,131.74 L 416.40,129.88 L 411.34,129.14 L 410.64,132.65 L 397.25,138.14 L 400.45,135.04 L 396.71,135.41 L 391.80,141.50 L 393.34,144.44 L 394.89,143.73 L 396.14,149.65 L 396.14,148.18 L 399.48,150.75 L 397.67,154.78 L 396.91,152.87 L 397.10,155.25 L 394.07,154.62 L 396.14,170.14 L 402.68,177.15 L 421.39,188.74 L 430.70,214.65 L 443.53,226.06 L 444.17,228.51 L 452.77,232.74 L 472.52,232.95 L 473.40,236.73 L 467.65,241.18 L 468.88,245.36 L 491.08,255.53 L 499.56,262.32 L 510.31,267.15 L 520.62,280.94 L 518.05,289.62 L 511.62,287.07 L 507.40,276.99 L 500.29,276.51 L 493.97,273.36 L 496.47,271.26 L 489.44,271.41 L 481.92,282.41 L 482.46,285.60 L 479.59,290.75 L 480.73,293.83 L 493.13,300.69 L 493.41,312.70 L 481.53,317.09 L 481.21,327.01 L 473.10,334.73 L 471.23,340.21 L 463.28,339.84 L 462.24,332.65 L 465.88,330.49 L 468.01,324.66 L 466.36,321.10 L 472.76,318.89 L 474.16,315.50 L 465.10,287.62 L 462.06,282.59 L 457.73,284.85 L 454.71,283.90 L 452.00,280.12 L 447.62,278.18 L 449.39,273.98 L 445.01,266.64 L 436.11,269.31 L 438.77,265.03 L 435.13,262.09 L 430.14,263.41 L 429.60,259.85 L 423.54,250.94 L 419.94,252.17 L 414.71,249.77 L 409.82,251.61 L 406.77,246.98 L 401.54,245.68 L 393.51,237.90 L 389.08,230.98 L 385.18,229.87 L 381.75,223.26 L 376.05,219.83 L 370.58,220.25 L 372.24,217.85 L 371.63,215.59 L 367.28,210.77 L 362.98,209.11 L 363.63,206.04 L 358.29,205.45 L 358.87,197.19 L 354.60,190.57 L 353.27,181.03 L 350.01,176.21 L 345.03,173.97 L 344.78,175.75 L 332.59,167.36 L 332.19,168.67 L 323.11,165.25 L 317.11,168.69 L 309.04,179.68 L 297.59,182.49 L 297.10,180.52 L 301.39,175.08 L 300.70,172.15 L 294.32,173.56 L 286.88,170.17 L 284.10,162.50 L 286.61,158.48 L 288.54,158.44 L 287.52,154.58 L 282.27,152.43 L 279.38,147.16 L 289.62,142.96 L 290.68,138.87 L 287.07,136.17 L 286.68,132.68 L 283.01,128.99 L 287.87,125.01 L 290.53,126.32 Z M 398.36,179.13 L 398.44,177.36 L 396.68,178.28 L 398.36,179.13 Z M 397.87,233.41 L 397.86,233.38 L 397.85,233.38 L 397.87,233.41 Z M 389.72,371.19 L 389.29,372.51 L 387.15,370.60 L 389.72,371.19 Z M 395.03,340.03 L 396.14,340.60 L 394.74,340.76 L 395.03,340.03 Z M 462.62,331.17 L 453.74,345.02 L 451.28,352.67 L 451.52,356.65 L 454.52,358.59 L 453.14,359.95 L 456.15,365.22 L 452.63,367.58 L 451.32,374.84 L 439.04,371.11 L 434.82,364.35 L 423.42,360.92 L 412.45,352.41 L 402.02,350.31 L 397.32,344.06 L 398.65,338.01 L 402.94,335.60 L 403.49,333.39 L 406.92,337.83 L 410.16,336.34 L 410.97,333.46 L 415.36,332.64 L 416.85,335.81 L 424.93,339.30 L 429.59,337.26 L 439.53,337.39 L 447.54,333.53 L 451.20,335.13 L 454.22,331.45 L 455.33,333.01 L 462.62,331.17 Z M 449.57,328.41 L 449.15,328.78 L 448.37,327.90 L 449.57,328.41 Z M 447.90,324.51 L 449.00,325.45 L 448.74,326.37 L 447.90,324.51 Z M 446.62,324.05 L 445.25,323.18 L 446.73,322.93 L 446.62,324.05 Z M 317.47,309.76 L 315.97,312.67 L 314.68,309.01 L 317.47,309.76 Z M 313.87,308.82 L 312.83,308.75 L 312.33,306.98 L 313.87,306.43 L 313.87,308.82 Z M 426.12,265.41 L 426.39,264.14 L 428.48,264.88 L 426.12,265.41 Z M 312.66,257.91 L 311.92,257.85 L 314.28,254.34 L 312.66,257.91 Z M 344.13,272.41 L 340.60,277.60 L 342.75,282.43 L 339.39,307.62 L 338.42,308.82 L 328.20,304.53 L 329.54,305.59 L 328.44,311.77 L 324.95,314.93 L 322.18,313.45 L 320.65,315.29 L 319.00,310.11 L 315.22,305.65 L 316.66,291.24 L 318.14,292.72 L 319.13,292.75 L 317.89,292.19 L 318.91,288.66 L 315.66,287.04 L 315.31,283.78 L 317.59,281.87 L 315.37,272.06 L 313.58,268.65 L 310.66,268.70 L 311.58,258.72 L 313.95,261.77 L 318.21,262.40 L 324.33,259.16 L 332.59,250.66 L 336.48,252.87 L 336.89,255.26 L 339.25,254.34 L 338.29,257.30 L 341.34,257.67 L 338.13,259.71 L 342.58,261.92 L 341.24,263.13 L 344.13,272.41 Z M 367.20,221.88 L 366.87,222.20 L 365.62,220.92 L 367.20,221.88 Z M 356.59,211.69 L 350.33,210.38 L 350.87,208.91 L 357.15,208.01 L 356.59,211.69 Z M 344.98,203.17 L 344.15,203.63 L 344.26,202.05 L 344.98,203.17 Z M 396.55,138.26 L 397.40,138.74 L 395.18,140.57 L 396.55,138.26 Z M 406.37,396.08 L 406.34,396.47 L 405.80,396.19 L 406.37,396.08 Z M 436.11,323.84 L 436.40,323.73 L 436.48,324.06 L 436.11,323.84 Z M 440.34,323.45 L 440.16,322.77 L 440.59,322.83 L 440.34,323.45 Z M 412.68,319.25 L 412.92,319.50 L 412.03,319.86 L 412.68,319.25 Z M 453.82,317.76 L 453.21,317.32 L 453.72,316.75 L 453.82,317.76 Z M 417.51,263.12 L 417.67,263.09 L 417.32,263.51 L 417.51,263.12 Z M 401.05,406.25 L 399.33,405.51 L 399.92,405.39 L 401.05,406.25 Z M 390.28,339.93 L 389.29,339.01 L 389.76,338.79 L 390.28,339.93 Z M 337.54,252.91 L 337.33,253.09 L 336.77,252.73 L 337.54,251.38 L 337.54,252.91 Z M 335.93,252.07 L 335.48,251.55 L 336.31,250.67 L 335.93,252.07 Z M 354.57,221.61 L 354.52,222.06 L 354.13,221.95 L 354.57,221.61 Z M 349.91,215.36 L 349.19,215.11 L 349.78,214.25 L 349.91,215.36 Z M 396.04,137.83 L 396.00,138.14 L 395.16,138.36 L 396.04,137.83 Z" fill="#4A90D9" stroke="#1a5fa8" stroke-width="1.2"/>
<path d="M 286.11,111.59 L 273.14,112.92 L 269.87,117.48 L 273.95,110.56 L 279.28,108.92 L 286.11,111.59 Z" fill="#A8C8E8" stroke="none"/>
<path d="M 337.94,82.89 L 328.57,73.93 L 334.45,77.67 L 342.47,81.31 L 337.94,82.89 Z" fill="#A8C8E8" stroke="none"/>
<path d="M 499.53,103.67 L 494.94,103.28 L 508.00,98.86 L 507.44,97.56 L 511.12,94.42 L 513.58,95.68 L 507.53,99.72 L 499.53,103.67 Z" fill="#A8C8E8" stroke="none"/>
<path d="M 535.44,226.91 L 532.00,222.55 L 537.25,223.91 L 539.22,221.66 L 537.83,224.56 L 540.15,227.75 L 535.44,226.91 Z" fill="#A8C8E8" stroke="none"/>
<path d="M 330.50,77.97 L 328.25,77.74 L 326.80,78.41 L 325.52,78.35 L 328.02,77.07 L 326.90,75.94 L 330.50,77.97 Z" fill="#A8C8E8" stroke="none"/>
<path d="M 529.23,16.85 L 526.16,17.41 L 526.73,16.85 L 529.23,16.85 Z" fill="#A8C8E8" stroke="none"/>
<path d="M 566.70,259.51 L 564.02,260.16 L 563.92,253.04 L 567.25,254.71 L 566.70,259.51 Z" fill="#A8C8E8" stroke="none"/>
<path d="M 319.98,125.46 L 319.70,130.28 L 317.65,124.67 L 320.14,124.21 L 324.81,118.44 L 319.98,125.46 Z" fill="#A8C8E8" stroke="none"/>
<path d="M 362.57,132.37 L 362.36,137.84 L 358.53,136.52 L 359.79,135.15 L 358.81,133.56 L 365.49,125.81 L 362.57,132.37 Z" fill="#A8C8E8" stroke="none"/>
<path d="M 388.37,216.12 L 385.83,214.82 L 386.52,213.47 L 388.20,213.55 L 388.37,216.12 Z" fill="#A8C8E8" stroke="none"/>
<path d="M 571.54,261.92 L 571.53,262.00 L 571.53,261.99 L 571.54,261.92 Z" fill="#A8C8E8" stroke="none"/>
<path d="M 571.55,262.06 L 571.55,262.06 L 571.55,262.06 L 571.55,262.06 Z" fill="#A8C8E8" stroke="none"/>
<path d="M 571.62,262.06 L 571.65,262.06 L 571.68,262.09 L 571.62,262.06 Z" fill="#A8C8E8" stroke="none"/>
<path d="M 569.05,263.78 L 570.21,257.31 L 573.35,261.46 L 569.05,263.78 Z" fill="#A8C8E8" stroke="none"/>
<path d="M 572.93,265.15 L 570.84,266.35 L 572.02,263.56 L 573.28,263.17 L 572.93,265.15 Z" fill="#A8C8E8" stroke="none"/>
</svg>