<svg xmlns="http://www.w3.org/2000/svg" width="800" height="500" viewBox="0 0 800 500">
<rect width="800" height="500" fill="#A8C8E8"/>
<path d="M 10.17,1.00 L 24.32,2.36 L 28.04,7.16 L 40.90,5.93 L 49.06,8.23 L 46.04,11.75 L 49.58,13.58 L 46.29,15.87 L 67.87,15.62 L 74.99,10.85 L 77.36,11.43 L 73.67,16.32 L 76.87,17.53 L 76.40,20.75 L 93.61,23.52 L 101.88,28.70 L 114.06,27.34 L 123.05,30.26 L 141.61,29.60 L 154.66,37.87 L 163.08,36.58 L 168.46,39.25 L 178.19,39.32 L 183.90,37.60 L 193.32,41.13 L 217.05,43.27 L 200.68,52.52 L 198.18,59.90 L 191.25,65.60 L 192.74,69.87 L 188.16,76.98 L 191.27,80.29 L 182.56,84.44 L 165.55,82.87 L 161.08,86.50 L 168.21,87.17 L 152.63,95.47 L 143.28,97.55 L 142.72,102.49 L 129.67,107.27 L 126.98,111.69 L 130.37,113.01 L 128.65,116.18 L 122.81,117.61 L 122.98,119.48 L 130.59,118.95 L 136.51,116.53 L 133.69,114.49 L 136.00,112.89 L 144.97,110.91 L 157.74,111.83 L 156.20,113.68 L 159.44,115.73 L 156.84,118.91 L 167.60,125.01 L 158.31,127.67 L 158.11,130.59 L 173.42,138.87 L 169.00,144.19 L 150.00,147.16 L 155.99,152.43 L 166.97,154.74 L 168.99,158.44 L 164.99,158.48 L 159.78,162.50 L 163.22,165.14 L 161.05,166.87 L 165.95,170.38 L 180.57,173.52 L 194.19,172.15 L 195.63,175.08 L 186.73,180.52 L 186.67,183.24 L 173.04,186.20 L 172.50,188.91 L 165.08,189.29 L 162.23,192.32 L 155.39,192.85 L 149.50,196.60 L 153.80,196.49 L 153.23,198.41 L 140.46,201.39 L 132.81,200.91 L 132.26,202.87 L 122.22,200.23 L 118.69,202.63 L 111.02,198.99 L 97.30,198.02 L 95.08,194.26 L 84.16,194.80 L 83.83,192.81 L 92.23,190.90 L 83.96,188.79 L 84.88,192.27 L 77.20,192.48 L 76.68,194.63 L 72.57,192.46 L 71.92,189.71 L 69.92,188.24 L 71.93,192.46 L 75.19,194.51 L 38.79,189.29 L 3.58,200.98 L 0.55,213.84 L 6.39,219.16 L 0.00,218.52 L 0.00,0.00 L 9.30,0.00 L 10.17,1.00 Z M 270.85,214.08 L 270.62,214.11 L 269.77,213.34 L 270.85,214.08 Z M 237.51,223.44 L 231.69,220.63 L 236.32,219.21 L 238.41,215.18 L 255.56,211.06 L 262.87,212.61 L 265.16,203.74 L 270.09,204.11 L 269.20,213.53 L 272.78,215.60 L 274.10,226.84 L 267.53,232.06 L 267.47,238.70 L 262.87,240.86 L 265.33,242.08 L 259.46,245.66 L 259.98,247.70 L 241.87,242.62 L 247.37,239.02 L 236.14,237.53 L 242.45,233.30 L 234.42,233.47 L 233.25,231.63 L 239.91,229.27 L 232.39,225.17 L 237.51,223.44 Z M 135.29,203.77 L 131.68,203.85 L 132.05,203.60 L 135.29,203.77 Z" fill="#E8E0D0" stroke="#B8B0A0" stroke-width="0.5"/>
<path d="M 552.77,4.25 L 558.83,5.23 L 572.13,12.69 L 586.99,9.31 L 581.88,3.53 L 604.17,8.72 L 616.08,6.82 L 617.74,9.34 L 611.11,10.80 L 612.93,12.33 L 621.60,15.91 L 629.70,15.12 L 628.44,13.94 L 640.61,17.68 L 651.81,17.70 L 654.26,22.91 L 661.43,24.13 L 663.31,28.40 L 650.82,29.17 L 635.08,35.18 L 631.51,40.88 L 616.89,45.84 L 593.40,45.93 L 584.06,52.82 L 581.04,49.72 L 566.20,47.39 L 559.44,49.50 L 547.98,49.08 L 536.78,45.59 L 502.60,41.89 L 499.89,48.54 L 494.05,48.17 L 488.82,53.57 L 479.69,51.76 L 473.71,54.06 L 462.17,52.90 L 444.04,43.60 L 436.42,43.23 L 418.48,34.20 L 403.53,30.57 L 392.62,22.13 L 398.52,17.76 L 386.88,13.99 L 379.86,8.66 L 379.72,6.71 L 382.79,6.80 L 389.13,10.87 L 397.93,4.72 L 416.50,4.31 L 418.89,1.92 L 431.44,0.00 L 562.06,0.00 L 552.77,4.25 Z" fill="#E8E0D0" stroke="#B8B0A0" stroke-width="0.5"/>
<path d="M 448.56,55.04 L 437.57,53.64 L 435.51,58.95 L 407.53,66.04 L 418.12,73.22 L 413.96,76.55 L 421.51,78.27 L 418.57,83.49 L 409.21,81.09 L 408.50,78.08 L 397.36,79.10 L 386.54,77.75 L 386.69,76.32 L 383.81,79.74 L 360.59,80.16 L 344.50,85.43 L 333.69,85.52 L 328.62,81.75 L 310.60,80.50 L 310.56,85.37 L 299.29,88.74 L 301.37,86.01 L 296.06,86.37 L 290.31,81.47 L 283.44,80.19 L 276.32,81.98 L 258.31,77.98 L 245.65,78.36 L 232.07,74.46 L 225.07,78.11 L 234.13,78.36 L 232.74,80.08 L 218.42,79.29 L 210.42,80.94 L 192.26,80.83 L 194.36,79.97 L 191.27,80.29 L 188.16,76.98 L 192.74,69.87 L 190.97,66.01 L 198.18,59.90 L 200.68,52.52 L 217.05,43.27 L 193.32,41.13 L 183.90,37.60 L 178.19,39.32 L 168.46,39.25 L 163.08,36.58 L 155.16,37.96 L 146.18,30.70 L 139.20,29.88 L 145.80,20.71 L 137.40,19.65 L 128.75,13.89 L 130.87,9.43 L 140.42,6.70 L 138.84,2.24 L 131.87,1.24 L 133.44,0.00 L 431.44,0.00 L 418.89,1.92 L 416.50,4.31 L 397.93,4.72 L 389.13,10.87 L 386.58,8.29 L 379.72,6.71 L 386.88,13.99 L 398.52,17.76 L 392.62,22.13 L 403.53,30.57 L 418.48,34.20 L 425.98,38.96 L 437.75,43.63 L 444.04,43.60 L 452.73,48.44 L 448.56,55.04 Z" fill="#E8E0D0" stroke="#B8B0A0" stroke-width="0.5"/>
<path d="M 134.05,18.24 L 137.40,19.65 L 138.74,19.51 L 141.37,20.36 L 144.11,20.44 L 145.57,20.60 L 145.80,20.71 L 139.20,29.88 L 123.05,30.26 L 115.92,27.66 L 119.90,24.81 L 112.91,18.13 L 123.09,10.74 L 129.63,11.95 L 134.05,18.24 Z" fill="#E8E0D0" stroke="#B8B0A0" stroke-width="0.5"/>
<path d="M 131.87,1.24 L 138.84,2.24 L 140.42,6.70 L 131.30,9.20 L 129.63,11.95 L 123.09,10.74 L 112.91,18.13 L 119.90,24.81 L 117.88,27.03 L 101.88,28.70 L 93.61,23.52 L 76.40,20.75 L 76.87,17.53 L 73.67,16.32 L 76.97,11.22 L 60.27,16.93 L 46.29,15.87 L 49.58,13.58 L 46.04,11.75 L 49.06,8.23 L 40.90,5.93 L 28.04,7.16 L 24.32,2.36 L 10.17,1.00 L 9.30,0.00 L 133.44,0.00 L 131.87,1.24 Z" fill="#E8E0D0" stroke="#B8B0A0" stroke-width="0.5"/>
<path d="M 741.78,234.84 L 745.22,228.58 L 758.38,225.51 L 766.37,228.37 L 772.56,224.14 L 800.00,221.53 L 800.00,253.67 L 798.24,253.65 L 778.65,261.34 L 752.79,261.80 L 742.38,260.08 L 733.27,251.39 L 734.95,246.94 L 730.92,242.93 L 734.72,241.97 L 733.28,237.96 L 736.08,234.21 L 741.78,234.84 Z" fill="#E8E0D0" stroke="#B8B0A0" stroke-width="0.5"/>
<path d="M 733.28,237.96 L 734.72,241.97 L 730.92,242.93 L 734.95,246.94 L 733.27,251.39 L 742.38,260.08 L 752.43,260.58 L 751.88,264.07 L 755.79,267.45 L 751.60,271.96 L 744.62,273.32 L 739.46,282.16 L 724.78,285.04 L 728.94,289.59 L 724.03,289.97 L 724.72,292.31 L 720.01,294.47 L 711.82,293.13 L 712.69,288.31 L 708.35,287.21 L 706.55,283.47 L 690.30,278.93 L 682.46,273.36 L 690.24,275.30 L 686.53,270.05 L 689.39,269.76 L 683.08,267.09 L 686.31,260.21 L 692.28,259.88 L 691.10,257.67 L 690.44,258.98 L 689.10,259.51 L 691.99,250.83 L 686.81,246.60 L 691.99,243.90 L 688.81,241.96 L 696.03,241.43 L 695.14,235.67 L 685.63,234.77 L 685.94,227.98 L 681.73,225.92 L 699.66,213.14 L 703.23,218.00 L 713.92,215.76 L 722.26,222.17 L 732.49,224.57 L 737.43,231.85 L 733.28,237.96 Z" fill="#E8E0D0" stroke="#B8B0A0" stroke-width="0.5"/>
<path d="M 716.64,213.19 L 713.73,210.54 L 732.27,207.74 L 731.56,205.19 L 740.18,201.54 L 737.63,198.51 L 745.62,196.75 L 747.47,199.25 L 758.13,201.40 L 765.18,206.90 L 771.39,207.97 L 770.14,210.74 L 786.68,213.34 L 775.90,221.58 L 777.92,224.15 L 769.64,224.76 L 766.81,228.33 L 758.38,225.51 L 745.22,228.58 L 740.88,235.00 L 736.08,234.21 L 733.30,225.10 L 722.26,222.17 L 715.00,216.06 L 716.64,213.19 Z" fill="#E8E0D0" stroke="#B8B0A0" stroke-width="0.5"/>
<path d="M 6.39,219.16 L 6.66,221.37 L 12.13,222.09 L 3.78,224.91 L 8.54,232.25 L 0.00,236.53 L 0.00,218.52 L 6.39,219.16 Z M 18.70,291.43 L 17.84,293.86 L 9.40,301.23 L 1.35,304.39 L 0.00,303.59 L 0.00,286.60 L 6.33,285.53 L 2.86,287.02 L 7.47,287.57 L 4.52,290.38 L 18.70,291.43 Z M 54.91,288.27 L 51.18,289.64 L 33.66,286.41 L 32.50,284.20 L 45.17,282.55 L 54.91,288.27 Z" fill="#E8E0D0" stroke="#B8B0A0" stroke-width="0.5"/>
<path d="M 391.14,477.84 L 411.12,478.61 L 433.25,475.91 L 442.47,478.65 L 468.24,481.03 L 480.16,486.29 L 510.07,489.62 L 517.73,495.57 L 517.62,500.00 L 325.21,500.00 L 329.23,496.60 L 357.48,488.58 L 353.43,483.09 L 355.75,468.45 L 391.14,477.84 Z M 715.28,495.53 L 735.89,485.25 L 756.39,479.47 L 771.66,478.90 L 780.40,475.04 L 800.00,474.77 L 800.00,500.00 L 712.70,500.00 L 715.28,495.53 Z" fill="#E8E0D0" stroke="#B8B0A0" stroke-width="0.5"/>
<path d="M 353.43,483.09 L 357.48,488.58 L 329.23,496.60 L 325.21,500.00 L 253.17,500.00 L 252.50,498.35 L 222.55,486.06 L 220.52,477.74 L 212.29,470.79 L 197.10,467.10 L 195.76,461.09 L 187.02,450.29 L 188.39,443.82 L 198.79,439.79 L 201.57,435.22 L 218.57,428.93 L 221.25,417.61 L 226.74,412.92 L 221.00,410.67 L 222.79,404.94 L 218.78,397.13 L 223.66,380.89 L 215.77,378.31 L 226.71,374.63 L 225.98,371.36 L 235.58,369.95 L 233.93,367.17 L 243.24,366.09 L 259.46,359.24 L 281.86,356.23 L 286.66,356.68 L 283.01,359.79 L 284.86,361.44 L 288.99,360.73 L 285.01,359.40 L 287.65,358.43 L 304.00,360.73 L 297.96,361.26 L 302.11,362.37 L 300.24,364.81 L 307.15,368.76 L 300.49,370.99 L 307.49,372.78 L 314.35,372.12 L 317.13,368.87 L 336.69,363.37 L 340.03,369.47 L 326.15,380.31 L 315.70,382.32 L 312.50,389.45 L 318.69,396.73 L 336.27,402.25 L 336.32,410.42 L 341.23,413.54 L 317.64,431.70 L 297.90,437.61 L 292.80,441.79 L 295.57,447.83 L 306.44,454.39 L 313.12,455.89 L 322.66,454.28 L 320.87,458.63 L 323.56,460.45 L 330.75,458.79 L 331.87,456.19 L 336.35,456.68 L 338.84,463.52 L 346.88,465.60 L 340.16,464.94 L 342.09,467.64 L 352.73,468.12 L 349.32,466.36 L 355.75,468.45 L 353.43,483.09 Z M 337.08,451.75 L 329.84,456.08 L 327.26,453.67 L 323.65,454.05 L 323.47,449.49 L 337.08,451.75 Z M 334.01,428.28 L 339.20,428.61 L 336.89,429.65 L 334.01,428.28 Z M 347.02,426.75 L 340.04,428.51 L 345.22,424.13 L 347.02,426.75 Z" fill="#E8E0D0" stroke="#B8B0A0" stroke-width="0.5"/>
<path d="M 795.98,159.15 L 770.86,155.60 L 769.17,153.81 L 776.75,152.93 L 768.99,149.99 L 774.95,146.03 L 744.47,137.03 L 745.25,129.66 L 741.16,129.92 L 722.47,120.08 L 731.94,118.30 L 740.14,119.28 L 745.80,115.78 L 760.31,115.35 L 766.03,111.77 L 766.88,106.72 L 775.31,104.04 L 780.81,95.44 L 796.28,85.43 L 796.55,82.10 L 800.00,80.38 L 800.00,162.19 L 795.98,159.15 Z" fill="#E8E0D0" stroke="#B8B0A0" stroke-width="0.5"/>
<path d="M 796.55,82.10 L 796.28,85.43 L 780.81,95.44 L 775.31,104.04 L 766.88,106.72 L 766.03,111.77 L 756.41,116.63 L 746.68,115.67 L 740.14,119.28 L 731.94,118.30 L 722.47,120.08 L 693.39,118.57 L 681.37,123.50 L 674.02,122.49 L 669.54,125.10 L 655.86,125.49 L 645.31,129.95 L 622.38,129.15 L 611.18,124.71 L 600.86,124.19 L 579.56,112.70 L 566.03,109.47 L 559.86,105.67 L 558.05,100.37 L 548.35,99.74 L 555.94,95.93 L 564.81,96.09 L 562.22,95.40 L 565.78,92.34 L 561.72,91.00 L 564.26,88.59 L 562.61,85.35 L 571.30,83.84 L 573.32,81.55 L 570.85,79.28 L 561.52,78.22 L 568.23,75.72 L 577.87,77.84 L 589.53,76.95 L 586.54,72.78 L 594.13,68.55 L 621.02,75.83 L 657.42,75.08 L 662.60,73.61 L 659.53,69.88 L 663.53,68.02 L 688.28,66.78 L 696.46,62.98 L 709.28,65.59 L 725.89,61.55 L 732.49,54.92 L 745.87,53.76 L 758.84,55.92 L 772.07,53.97 L 786.10,60.10 L 800.00,58.89 L 800.00,80.38 L 796.55,82.10 Z" fill="#E8E0D0" stroke="#B8B0A0" stroke-width="0.5"/>
<path d="M 784.79,59.91 L 772.07,53.97 L 758.84,55.92 L 745.87,53.76 L 733.70,54.71 L 725.89,61.55 L 709.28,65.59 L 696.46,62.98 L 688.28,66.78 L 663.53,68.02 L 659.53,69.88 L 662.60,73.61 L 657.42,75.08 L 617.51,75.42 L 600.55,69.13 L 589.29,68.14 L 579.84,59.24 L 587.43,48.98 L 593.40,45.93 L 616.89,45.84 L 631.51,40.88 L 635.08,35.18 L 650.82,29.17 L 667.46,28.56 L 668.73,31.66 L 676.26,31.53 L 688.92,25.93 L 696.62,31.32 L 702.59,31.55 L 703.29,37.08 L 714.40,37.48 L 717.98,33.82 L 725.61,31.59 L 741.22,31.36 L 750.85,34.32 L 757.29,32.52 L 756.49,30.98 L 765.18,30.04 L 788.64,31.98 L 797.93,36.83 L 800.00,37.16 L 800.00,58.89 L 784.79,59.91 Z" fill="#E8E0D0" stroke="#B8B0A0" stroke-width="0.5"/>
<path d="M 661.43,24.13 L 654.26,22.91 L 651.81,17.70 L 640.61,17.68 L 628.44,13.94 L 629.70,15.12 L 621.60,15.91 L 612.93,12.33 L 611.11,10.80 L 617.74,9.34 L 616.08,6.82 L 604.17,8.72 L 581.88,3.53 L 586.99,9.31 L 572.13,12.69 L 558.83,5.23 L 552.77,4.25 L 562.06,0.00 L 800.00,0.00 L 800.00,37.16 L 797.93,36.83 L 793.21,33.23 L 779.48,30.65 L 757.14,30.85 L 750.85,34.32 L 741.22,31.36 L 725.61,31.59 L 717.98,33.82 L 714.40,37.48 L 702.23,36.91 L 702.59,31.55 L 696.62,31.32 L 689.50,26.03 L 676.26,31.53 L 668.73,31.66 L 668.68,28.87 L 663.31,28.40 L 661.43,24.13 Z" fill="#E8E0D0" stroke="#B8B0A0" stroke-width="0.5"/>
<path d="M 778.65,261.34 L 798.24,253.65 L 800.00,253.67 L 800.00,328.86 L 794.45,327.49 L 775.98,330.62 L 767.78,325.21 L 768.37,327.92 L 760.78,330.40 L 753.75,320.69 L 748.37,316.93 L 742.89,316.77 L 746.07,315.20 L 744.59,312.74 L 757.82,315.29 L 761.69,314.98 L 760.96,311.70 L 757.82,309.94 L 756.70,311.40 L 747.74,310.64 L 746.80,308.55 L 743.47,310.84 L 747.19,312.62 L 744.44,312.24 L 743.13,312.98 L 732.53,304.02 L 722.18,300.88 L 723.35,297.93 L 717.88,297.36 L 719.91,294.81 L 712.27,292.95 L 722.60,293.77 L 724.03,289.97 L 728.94,289.59 L 724.78,285.04 L 739.46,282.16 L 744.62,273.32 L 755.04,269.63 L 752.79,261.80 L 778.65,261.34 Z M 793.83,365.72 L 794.97,371.06 L 791.29,372.91 L 783.94,370.44 L 784.04,367.08 L 778.16,362.41 L 782.57,354.87 L 758.70,341.87 L 767.93,338.01 L 769.96,332.64 L 780.37,334.42 L 789.90,329.39 L 800.00,331.95 L 800.00,365.19 L 793.83,365.72 Z M 786.99,372.34 L 786.89,373.64 L 785.75,373.29 L 786.99,372.34 Z M 783.66,371.17 L 784.86,371.06 L 784.31,371.43 L 783.66,371.17 Z M 753.69,345.87 L 754.09,346.69 L 749.79,345.77 L 746.49,347.98 L 738.28,342.24 L 742.03,340.60 L 753.69,345.87 Z M 733.67,335.60 L 730.97,331.14 L 730.13,333.86 L 726.77,333.68 L 729.06,328.78 L 734.51,329.49 L 734.85,325.82 L 738.74,331.64 L 740.89,330.98 L 745.76,335.05 L 743.07,336.91 L 733.67,335.60 Z M 744.07,328.58 L 744.33,329.88 L 741.15,329.51 L 738.28,325.61 L 744.07,328.58 Z M 750.37,323.79 L 749.79,323.79 L 751.40,322.34 L 750.37,323.79 Z M 735.13,323.24 L 741.08,315.68 L 742.33,321.69 L 735.13,323.24 Z M 720.26,306.18 L 720.75,306.80 L 718.09,306.00 L 720.26,306.18 Z M 716.71,301.81 L 708.58,300.04 L 696.60,291.47 L 710.10,290.34 L 705.77,294.05 L 709.23,294.79 L 709.61,298.89 L 716.14,299.96 L 716.71,301.81 Z M 751.80,321.68 L 748.82,322.89 L 749.56,321.64 L 751.80,321.68 Z M 744.16,321.68 L 745.86,322.54 L 743.83,321.72 L 743.21,321.01 L 745.89,320.66 L 744.16,321.68 Z" fill="#E8E0D0" stroke="#B8B0A0" stroke-width="0.5"/>
<path d="M 276.45,93.17 L 275.01,94.51 L 270.63,94.32 L 272.49,88.96 L 276.45,93.17 Z" fill="#E8E0D0" stroke="#B8B0A0" stroke-width="0.5"/>
<path d="M 741.16,129.92 L 745.25,129.66 L 744.47,137.03 L 774.95,146.03 L 768.99,149.99 L 776.75,152.93 L 769.17,153.81 L 770.86,155.60 L 795.98,159.15 L 800.00,162.19 L 800.00,221.70 L 778.38,224.27 L 775.90,221.58 L 780.16,220.37 L 786.33,212.75 L 770.14,210.74 L 771.39,207.97 L 765.18,206.90 L 758.13,201.40 L 747.47,199.25 L 746.67,196.91 L 737.63,198.51 L 739.30,202.43 L 731.56,205.19 L 732.27,207.74 L 726.77,208.49 L 726.42,206.35 L 709.30,200.77 L 695.41,199.09 L 677.69,190.88 L 680.91,187.98 L 690.86,188.63 L 691.60,186.40 L 680.53,176.84 L 692.49,177.51 L 696.28,175.93 L 675.21,167.63 L 675.76,162.93 L 686.11,153.64 L 678.15,151.90 L 670.97,153.57 L 669.95,152.24 L 675.83,151.21 L 672.19,146.25 L 687.42,144.47 L 669.36,139.94 L 670.71,136.51 L 674.77,136.16 L 666.26,134.50 L 668.99,131.92 L 664.24,126.84 L 673.05,122.67 L 681.37,123.50 L 693.39,118.57 L 722.47,120.08 L 741.16,129.92 Z" fill="#E8E0D0" stroke="#B8B0A0" stroke-width="0.5"/>
<path d="M 579.56,112.70 L 598.55,123.41 L 611.18,124.71 L 622.38,129.15 L 645.31,129.95 L 655.86,125.49 L 666.17,124.85 L 663.80,127.96 L 668.99,131.92 L 666.26,134.50 L 674.77,136.16 L 670.71,136.51 L 669.36,139.94 L 687.42,144.47 L 675.42,144.67 L 672.19,146.25 L 675.83,151.21 L 665.68,153.69 L 657.05,147.66 L 650.04,148.44 L 638.32,145.70 L 621.44,148.21 L 615.11,145.53 L 594.22,145.94 L 583.19,142.28 L 578.47,145.06 L 566.60,143.95 L 557.67,149.91 L 545.26,144.18 L 535.68,144.83 L 533.00,156.17 L 545.59,160.06 L 544.65,162.31 L 549.29,162.84 L 558.12,174.67 L 587.65,189.06 L 597.72,191.36 L 598.54,195.67 L 612.74,202.59 L 613.00,205.18 L 608.01,204.95 L 607.44,203.01 L 581.36,192.90 L 560.83,190.08 L 562.61,189.03 L 542.70,190.26 L 542.32,185.29 L 532.07,183.27 L 508.50,171.63 L 508.33,169.28 L 514.82,170.14 L 513.39,167.93 L 520.25,169.67 L 524.62,169.57 L 502.74,161.54 L 497.55,157.39 L 499.14,151.05 L 496.25,147.42 L 484.42,142.03 L 473.54,140.67 L 466.81,150.55 L 463.35,151.30 L 463.98,150.31 L 462.15,148.89 L 460.46,154.98 L 455.85,154.43 L 457.02,155.92 L 456.40,156.08 L 444.65,147.98 L 448.97,146.32 L 443.50,146.03 L 444.07,141.32 L 439.77,136.15 L 455.80,138.53 L 459.28,136.09 L 476.11,137.07 L 484.84,131.95 L 493.92,137.41 L 499.18,136.07 L 508.27,138.36 L 516.08,137.74 L 513.70,133.73 L 518.12,132.69 L 513.13,130.45 L 530.80,127.26 L 531.72,122.02 L 527.19,119.94 L 529.28,117.40 L 545.21,114.94 L 546.83,112.82 L 555.97,112.94 L 554.26,109.70 L 558.84,108.25 L 579.56,112.70 Z M 649.17,219.57 L 623.84,209.48 L 616.63,208.53 L 618.35,209.81 L 617.79,209.99 L 595.35,204.31 L 588.31,203.98 L 586.44,202.45 L 617.49,208.17 L 613.79,206.78 L 620.44,206.27 L 622.40,208.77 L 646.69,215.72 L 649.17,219.57 Z M 583.06,209.85 L 583.70,210.43 L 578.85,210.96 L 583.06,209.85 Z M 617.80,212.07 L 599.96,209.48 L 602.84,209.19 L 617.80,212.07 Z M 594.77,205.95 L 580.13,206.52 L 570.91,204.31 L 594.77,205.95 Z M 548.06,203.53 L 546.45,202.09 L 549.86,201.46 L 554.52,201.90 L 548.06,203.53 Z M 559.99,198.57 L 594.48,200.41 L 583.99,200.41 L 559.99,198.57 Z M 562.11,195.28 L 561.43,194.88 L 562.29,193.22 L 581.85,195.43 L 562.11,195.28 Z M 559.03,194.72 L 552.81,192.87 L 556.03,192.74 L 559.03,194.72 Z M 533.50,186.93 L 530.64,186.66 L 527.77,185.66 L 533.50,186.93 Z M 513.61,180.75 L 519.04,183.03 L 511.99,180.28 L 513.61,180.75 Z M 513.39,176.60 L 521.15,179.92 L 517.48,179.07 L 513.39,176.60 Z M 507.54,174.41 L 505.05,172.53 L 511.90,175.11 L 513.11,176.41 L 507.54,174.41 Z M 494.98,172.35 L 496.94,173.11 L 495.19,172.64 L 494.98,172.35 Z M 510.59,180.33 L 496.12,172.16 L 502.74,174.39 L 510.59,180.33 Z M 491.25,157.94 L 513.11,167.73 L 507.83,168.49 L 491.25,157.94 Z M 482.89,163.85 L 475.70,161.44 L 474.55,157.58 L 482.89,163.85 Z M 488.07,155.37 L 490.96,155.37 L 489.24,154.06 L 496.51,157.56 L 488.07,155.37 Z M 478.42,159.20 L 472.81,152.41 L 477.73,151.12 L 472.15,146.89 L 473.62,145.30 L 480.33,150.71 L 482.03,159.05 L 478.42,159.20 Z M 478.30,147.59 L 482.71,146.31 L 483.49,143.24 L 494.66,150.55 L 490.82,151.47 L 478.30,147.59 Z M 560.15,190.63 L 553.27,190.64 L 555.50,190.02 L 560.15,190.63 Z M 493.69,169.55 L 493.60,169.70 L 491.88,169.84 L 493.69,169.55 Z M 487.47,168.11 L 488.22,168.58 L 485.43,167.54 L 487.47,168.11 Z M 492.20,167.08 L 492.50,165.70 L 494.17,165.97 L 492.20,167.08 Z M 472.23,158.63 L 471.84,160.39 L 470.22,160.02 L 472.23,158.63 Z" fill="#E8E0D0" stroke="#B8B0A0" stroke-width="0.5"/>
<path d="M 183.64,184.49 L 182.02,184.37 L 183.75,183.27 L 183.64,184.49 Z" fill="#E8E0D0" stroke="#B8B0A0" stroke-width="0.5"/>
<path d="M 4.68,372.50 L 8.34,370.59 L 18.96,371.54 L 35.47,367.77 L 73.80,368.36 L 95.51,375.16 L 113.53,370.05 L 132.97,368.17 L 142.15,363.03 L 164.52,368.50 L 176.45,366.43 L 176.02,363.12 L 200.19,365.71 L 199.13,368.50 L 204.80,369.59 L 218.43,366.67 L 233.93,367.17 L 235.58,369.95 L 225.98,371.36 L 226.71,374.63 L 215.77,378.31 L 223.66,380.89 L 218.78,397.13 L 222.79,404.94 L 221.00,410.67 L 226.74,412.92 L 221.25,417.61 L 218.57,428.93 L 201.57,435.22 L 198.79,439.79 L 188.39,443.82 L 186.81,449.24 L 197.10,467.10 L 212.29,470.79 L 220.52,477.74 L 222.55,486.06 L 252.50,498.35 L 253.17,500.00 L 0.00,500.00 L 0.00,371.53 L 4.68,372.50 Z" fill="#E8E0D0" stroke="#B8B0A0" stroke-width="0.5"/>
<path d="M 646.69,215.72 L 651.42,212.79 L 646.53,205.08 L 655.16,203.30 L 656.22,197.56 L 662.80,194.64 L 669.99,196.64 L 673.23,195.52 L 666.35,190.62 L 669.36,189.12 L 678.51,189.48 L 678.38,191.59 L 695.41,199.09 L 709.30,200.77 L 727.12,206.78 L 719.97,210.78 L 713.39,210.76 L 716.64,213.19 L 711.51,217.03 L 703.94,218.18 L 700.62,213.38 L 696.40,214.49 L 681.85,225.64 L 685.94,227.98 L 685.63,234.77 L 677.45,232.46 L 665.52,223.13 L 661.01,223.48 L 651.22,219.38 L 657.74,220.20 L 657.19,217.78 L 649.17,219.57 L 646.69,215.72 Z" fill="#E8E0D0" stroke="#B8B0A0" stroke-width="0.5"/>
<path d="M 609.72,205.60 L 614.18,204.77 L 612.74,202.59 L 598.54,195.67 L 597.72,191.36 L 587.65,189.06 L 558.12,174.67 L 549.29,162.84 L 544.65,162.31 L 545.59,160.06 L 533.00,156.17 L 535.68,144.83 L 545.26,144.18 L 557.67,149.91 L 566.60,143.95 L 578.47,145.06 L 583.19,142.28 L 594.22,145.94 L 615.11,145.53 L 621.44,148.21 L 638.32,145.70 L 650.04,148.44 L 656.80,147.59 L 665.68,153.69 L 678.15,151.90 L 685.78,152.99 L 674.81,166.58 L 695.97,175.42 L 692.49,177.51 L 681.76,176.56 L 679.93,178.03 L 689.68,183.30 L 690.86,188.63 L 684.85,187.43 L 666.57,190.17 L 673.23,195.52 L 669.99,196.64 L 662.80,194.64 L 656.22,197.56 L 655.16,203.30 L 647.34,204.02 L 647.00,208.77 L 651.42,212.79 L 648.99,215.57 L 628.14,210.84 L 620.44,206.27 L 609.72,205.60 Z" fill="#E8E0D0" stroke="#B8B0A0" stroke-width="0.5"/>
<path d="M 482.60,397.84 L 478.28,397.24 L 473.98,393.21 L 483.46,395.45 L 482.60,397.84 Z M 473.67,391.11 L 474.49,391.56 L 468.22,391.55 L 473.67,391.11 Z" fill="#E8E0D0" stroke="#B8B0A0" stroke-width="0.5"/>
<path d="M 579.84,59.24 L 592.59,68.95 L 586.54,72.78 L 589.53,76.95 L 577.87,77.84 L 568.23,75.72 L 561.52,78.22 L 570.85,79.28 L 573.32,81.55 L 571.30,83.84 L 562.61,85.35 L 564.26,88.59 L 561.72,91.00 L 565.78,92.34 L 562.22,95.40 L 564.81,96.09 L 555.94,95.93 L 543.63,100.69 L 545.10,104.92 L 538.14,103.47 L 529.12,103.66 L 521.85,106.43 L 505.03,105.49 L 496.15,106.80 L 483.14,112.79 L 393.52,104.40 L 387.71,99.60 L 381.85,98.50 L 384.10,93.75 L 365.39,96.84 L 341.87,97.02 L 334.42,102.27 L 312.99,100.19 L 308.25,96.15 L 297.25,100.17 L 287.34,98.00 L 286.62,95.63 L 275.01,94.51 L 272.49,88.96 L 277.87,85.00 L 273.59,81.64 L 283.44,80.19 L 293.53,82.90 L 296.06,86.37 L 301.37,86.01 L 299.29,88.74 L 310.56,85.37 L 310.60,80.50 L 328.62,81.75 L 333.69,85.52 L 344.50,85.43 L 360.59,80.16 L 383.81,79.74 L 383.93,77.03 L 386.69,76.32 L 386.54,77.75 L 397.36,79.10 L 408.50,78.08 L 409.21,81.09 L 418.57,83.49 L 421.51,78.27 L 413.96,76.55 L 418.12,73.22 L 407.79,65.85 L 435.51,58.95 L 437.57,53.64 L 448.56,55.04 L 452.73,48.44 L 463.60,53.15 L 474.12,54.04 L 479.69,51.76 L 488.82,53.57 L 494.05,48.17 L 499.89,48.54 L 501.68,41.94 L 536.78,45.59 L 547.98,49.08 L 559.44,49.50 L 566.20,47.39 L 581.04,49.72 L 584.06,52.82 L 579.84,59.24 Z" fill="#C8D8E8" stroke="#8BAABB" stroke-width="0.8"/>
<path d="M 393.13,178.28 L 396.76,177.36 L 396.59,179.13 L 393.13,178.28 Z" fill="#C8D8E8" stroke="#8BAABB" stroke-width="0.8"/>
<path d="M 442.36,135.41 L 456.04,132.92 L 442.89,128.14 L 443.92,123.39 L 437.87,122.82 L 445.24,118.13 L 435.70,117.39 L 433.82,115.17 L 447.91,108.99 L 483.14,112.79 L 496.15,106.80 L 505.03,105.49 L 521.85,106.43 L 529.12,103.66 L 538.14,103.47 L 545.10,104.92 L 543.22,100.88 L 548.35,99.74 L 558.05,100.37 L 560.20,106.04 L 565.42,108.31 L 555.48,109.09 L 555.97,112.94 L 546.83,112.82 L 545.21,114.94 L 529.28,117.40 L 527.19,119.94 L 531.72,122.02 L 530.80,127.26 L 513.13,130.45 L 518.12,132.69 L 513.70,133.73 L 516.08,137.74 L 508.27,138.36 L 499.18,136.07 L 493.92,137.41 L 484.84,131.95 L 476.11,137.07 L 445.47,137.56 L 442.36,135.41 Z" fill="#C8D8E8" stroke="#8BAABB" stroke-width="0.8"/>
<path d="M 308.08,104.88 L 311.85,106.19 L 311.22,108.50 L 300.65,106.10 L 293.96,108.63 L 293.69,110.97 L 298.49,112.14 L 297.53,116.77 L 294.37,117.05 L 289.16,112.99 L 273.13,114.95 L 268.85,109.57 L 261.66,109.92 L 260.05,116.77 L 250.70,121.94 L 253.26,125.72 L 250.71,127.83 L 246.42,127.67 L 245.20,124.42 L 240.87,123.45 L 242.59,120.58 L 227.03,116.65 L 225.40,110.81 L 212.31,115.67 L 213.28,119.57 L 201.56,125.30 L 189.38,123.42 L 169.48,125.95 L 157.20,119.36 L 157.74,111.83 L 150.46,110.71 L 137.36,112.36 L 133.69,114.49 L 136.51,116.53 L 122.98,119.48 L 122.96,117.28 L 128.47,116.36 L 130.43,113.31 L 126.98,111.69 L 129.67,107.27 L 142.72,102.49 L 143.28,97.55 L 152.63,95.47 L 168.21,87.17 L 161.08,86.50 L 165.55,82.87 L 174.26,82.89 L 176.67,84.81 L 193.41,80.01 L 195.36,81.38 L 232.18,80.16 L 234.13,78.36 L 225.07,78.11 L 232.07,74.46 L 245.65,78.36 L 262.08,78.53 L 277.91,83.86 L 271.07,90.39 L 270.63,94.32 L 286.62,95.63 L 287.34,98.00 L 297.25,100.17 L 308.49,96.17 L 311.63,99.70 L 308.08,104.88 Z" fill="#C8D8E8" stroke="#8BAABB" stroke-width="0.8"/>
<path d="M 395.53,233.38 L 395.57,233.38 L 395.58,233.41 L 395.53,233.38 Z" fill="#C8D8E8" stroke="#8BAABB" stroke-width="0.8"/>
<path d="M 173.12,126.32 L 189.38,123.42 L 202.08,125.17 L 213.28,119.57 L 212.31,115.67 L 225.40,110.81 L 227.03,116.65 L 242.59,120.58 L 240.87,123.45 L 245.20,124.42 L 246.42,127.67 L 250.71,127.83 L 253.26,125.72 L 250.70,121.94 L 260.05,116.77 L 262.46,109.59 L 268.85,109.57 L 273.13,114.95 L 289.16,112.99 L 295.76,117.07 L 299.25,115.92 L 296.43,114.13 L 298.49,112.14 L 293.69,110.97 L 293.96,108.63 L 300.65,106.10 L 311.22,108.50 L 311.85,106.19 L 308.08,104.88 L 311.63,99.70 L 334.42,102.27 L 341.87,97.02 L 365.39,96.84 L 384.10,93.75 L 381.85,98.50 L 387.71,99.60 L 393.52,104.40 L 447.91,108.99 L 433.82,115.17 L 435.70,117.39 L 445.24,118.13 L 437.87,122.82 L 443.92,123.39 L 442.24,127.57 L 451.17,129.91 L 456.04,132.92 L 454.07,134.19 L 448.36,133.96 L 452.41,133.39 L 442.59,128.67 L 435.35,131.74 L 433.99,129.88 L 423.50,129.14 L 422.06,132.65 L 394.30,138.14 L 400.94,135.04 L 393.17,135.41 L 383.00,141.50 L 386.19,144.44 L 389.42,143.73 L 392.00,149.65 L 392.00,148.18 L 398.93,150.75 L 395.18,154.78 L 393.60,152.87 L 393.99,155.25 L 387.70,154.62 L 392.00,170.14 L 405.55,177.15 L 444.33,188.74 L 463.62,214.65 L 490.23,226.06 L 491.55,228.51 L 509.37,232.74 L 550.29,232.95 L 552.14,236.73 L 540.21,241.18 L 542.77,245.36 L 588.77,255.53 L 606.35,262.32 L 628.63,267.15 L 650.00,280.94 L 644.67,289.62 L 631.34,287.07 L 622.59,276.99 L 607.86,276.51 L 594.77,273.36 L 599.94,271.26 L 585.37,271.41 L 569.78,282.41 L 570.91,285.60 L 564.95,290.75 L 567.31,293.83 L 593.03,300.69 L 593.60,312.70 L 568.98,317.09 L 568.30,327.01 L 551.51,334.73 L 547.64,340.21 L 531.15,339.84 L 528.99,332.65 L 536.54,330.49 L 540.95,324.66 L 537.54,321.10 L 550.80,318.89 L 553.70,315.50 L 534.93,287.62 L 528.63,282.59 L 519.64,284.85 L 513.39,283.90 L 507.77,280.12 L 498.70,278.18 L 502.36,273.98 L 493.28,266.64 L 474.84,269.31 L 480.36,265.03 L 472.81,262.09 L 462.46,263.41 L 461.36,259.85 L 448.79,250.94 L 441.32,252.17 L 430.49,249.77 L 420.36,251.61 L 414.02,246.98 L 403.18,245.68 L 386.55,237.90 L 377.38,230.98 L 369.28,229.87 L 362.18,223.26 L 350.36,219.83 L 339.03,220.25 L 342.46,217.85 L 341.20,215.59 L 332.19,210.77 L 323.27,209.11 L 324.63,206.04 L 313.55,205.45 L 314.75,197.19 L 305.90,190.57 L 303.14,181.03 L 296.38,176.21 L 286.07,173.97 L 285.54,175.75 L 260.29,167.36 L 259.46,168.67 L 240.64,165.25 L 228.20,168.69 L 211.49,179.68 L 187.75,182.49 L 186.73,180.52 L 195.63,175.08 L 194.19,172.15 L 180.97,173.56 L 165.56,170.17 L 159.78,162.50 L 164.99,158.48 L 168.99,158.44 L 166.88,154.58 L 155.99,152.43 L 150.00,147.16 L 171.22,142.96 L 173.42,138.87 L 165.95,136.17 L 165.14,132.68 L 157.52,128.99 L 167.60,125.01 L 173.12,126.32 Z M 396.59,179.13 L 396.76,177.36 L 393.13,178.28 L 396.59,179.13 Z M 395.58,233.41 L 395.57,233.38 L 395.53,233.38 L 395.58,233.41 Z M 378.68,371.19 L 377.81,372.51 L 373.37,370.60 L 378.68,371.19 Z M 389.71,340.03 L 392.00,340.60 L 389.10,340.76 L 389.71,340.03 Z M 529.78,331.17 L 511.37,345.02 L 506.27,352.67 L 506.77,356.65 L 513.00,358.59 L 510.13,359.95 L 516.38,365.22 L 509.08,367.58 L 506.37,374.84 L 480.91,371.11 L 472.16,364.35 L 448.53,360.92 L 425.80,352.41 L 404.19,350.31 L 394.44,344.06 L 397.21,338.01 L 406.09,335.60 L 407.23,333.39 L 414.34,337.83 L 421.07,336.34 L 422.73,333.46 L 431.84,332.64 L 434.92,335.81 L 451.68,339.30 L 461.32,337.26 L 481.94,337.39 L 498.53,333.53 L 506.12,335.13 L 512.38,331.45 L 514.68,333.01 L 529.78,331.17 Z M 502.74,328.41 L 501.88,328.78 L 500.26,327.90 L 502.74,328.41 Z M 499.27,324.51 L 501.56,325.45 L 501.02,326.37 L 499.27,324.51 Z M 496.62,324.05 L 493.78,323.18 L 496.85,322.93 L 496.62,324.05 Z M 228.95,309.76 L 225.84,312.67 L 223.17,309.01 L 228.95,309.76 Z M 221.48,308.82 L 219.33,308.75 L 218.30,306.98 L 221.48,306.43 L 221.48,308.82 Z M 454.13,265.41 L 454.70,264.14 L 459.03,264.88 L 454.13,265.41 Z M 218.99,257.91 L 217.44,257.85 L 222.33,254.34 L 218.99,257.91 Z M 284.20,272.41 L 276.89,277.60 L 281.35,282.43 L 274.38,307.62 L 272.38,308.82 L 251.20,304.53 L 253.96,305.59 L 251.69,311.77 L 244.45,314.93 L 238.72,313.45 L 235.54,315.29 L 232.13,310.11 L 224.29,305.65 L 227.28,291.24 L 230.34,292.72 L 232.39,292.75 L 229.81,292.19 L 231.94,288.66 L 225.20,287.04 L 224.47,283.78 L 229.21,281.87 L 224.59,272.06 L 220.88,268.65 L 214.83,268.70 L 216.74,258.72 L 221.66,261.77 L 230.49,262.40 L 243.16,259.16 L 260.29,250.66 L 268.34,252.87 L 269.20,255.26 L 274.10,254.34 L 272.10,257.30 L 278.42,257.67 L 271.78,259.71 L 281.00,261.92 L 278.22,263.13 L 284.20,272.41 Z M 332.02,221.88 L 331.33,222.20 L 328.75,220.92 L 332.02,221.88 Z M 310.02,211.69 L 297.06,210.38 L 298.16,208.91 L 311.19,208.01 L 310.02,211.69 Z M 285.96,203.17 L 284.25,203.63 L 284.48,202.05 L 285.96,203.17 Z M 392.85,138.26 L 394.61,138.74 L 390.01,140.57 L 392.85,138.26 Z M 413.20,396.08 L 413.14,396.47 L 412.02,396.19 L 413.20,396.08 Z M 474.85,323.84 L 475.45,323.73 L 475.60,324.06 L 474.85,323.84 Z M 483.61,323.45 L 483.23,322.77 L 484.13,322.83 L 483.61,323.45 Z M 426.29,319.25 L 426.78,319.50 L 424.93,319.86 L 426.29,319.25 Z M 511.56,317.76 L 510.28,317.32 L 511.33,316.75 L 511.56,317.76 Z M 436.29,263.12 L 436.62,263.09 L 435.90,263.51 L 436.29,263.12 Z M 402.17,406.25 L 398.60,405.51 L 399.84,405.39 L 402.17,406.25 Z M 379.85,339.93 L 377.80,339.01 L 378.77,338.79 L 379.85,339.93 Z M 270.54,252.91 L 270.10,253.09 L 268.95,252.73 L 270.54,251.38 L 270.54,252.91 Z M 267.20,252.07 L 266.27,251.55 L 268.00,250.67 L 267.20,252.07 Z M 305.84,221.61 L 305.73,222.06 L 304.94,221.95 L 305.84,221.61 Z M 296.18,215.36 L 294.69,215.11 L 295.92,214.25 L 296.18,215.36 Z M 391.79,137.83 L 391.72,138.14 L 389.98,138.36 L 391.79,137.83 Z" fill="#4A90D9" stroke="#1a5fa8" stroke-width="1.2"/>
<path d="M 163.96,111.59 L 137.08,112.92 L 130.30,117.48 L 138.75,110.56 L 149.79,108.92 L 163.96,111.59 Z" fill="#A8C8E8" stroke="none"/>
<path d="M 271.37,82.89 L 251.96,73.93 L 264.14,77.67 L 280.77,81.31 L 271.37,82.89 Z" fill="#A8C8E8" stroke="none"/>
<path d="M 606.28,103.67 L 596.77,103.28 L 623.84,98.86 L 622.68,97.56 L 630.30,94.42 L 635.41,95.68 L 622.87,99.72 L 606.28,103.67 Z" fill="#A8C8E8" stroke="none"/>
<path d="M 680.71,226.91 L 673.58,222.55 L 684.46,223.91 L 688.55,221.66 L 685.66,224.56 L 690.48,227.75 L 680.71,226.91 Z" fill="#A8C8E8" stroke="none"/>
<path d="M 255.96,77.97 L 251.28,77.74 L 248.29,78.41 L 245.62,78.35 L 250.81,77.07 L 248.49,75.94 L 255.96,77.97 Z" fill="#A8C8E8" stroke="none"/>
<path d="M 667.84,16.85 L 661.48,17.41 L 662.66,16.85 L 667.84,16.85 Z" fill="#A8C8E8" stroke="none"/>
<path d="M 745.49,259.51 L 739.96,260.16 L 739.75,253.04 L 746.64,254.71 L 745.49,259.51 Z" fill="#A8C8E8" stroke="none"/>
<path d="M 234.16,125.46 L 233.58,130.28 L 229.33,124.67 L 234.48,124.21 L 244.15,118.44 L 234.16,125.46 Z" fill="#A8C8E8" stroke="none"/>
<path d="M 322.42,132.37 L 322.00,137.84 L 314.05,136.52 L 316.66,135.15 L 314.63,133.56 L 328.47,125.81 L 322.42,132.37 Z" fill="#A8C8E8" stroke="none"/>
<path d="M 375.90,216.12 L 370.62,214.82 L 372.07,213.47 L 375.55,213.55 L 375.90,216.12 Z" fill="#A8C8E8" stroke="none"/>
<path d="M 755.52,261.92 L 755.51,262.00 L 755.51,261.99 L 755.52,261.92 Z" fill="#A8C8E8" stroke="none"/>
<path d="M 755.55,262.06 L 755.56,262.06 L 755.55,262.06 L 755.55,262.06 Z" fill="#A8C8E8" stroke="none"/>
<path d="M 755.70,262.06 L 755.76,262.06 L 755.82,262.09 L 755.70,262.06 Z" fill="#A8C8E8" stroke="none"/>
<path d="M 750.37,263.78 L 752.77,257.31 L 759.28,261.46 L 750.37,263.78 Z" fill="#A8C8E8" stroke="none"/>
<path d="M 758.41,265.15 L 754.09,266.35 L 756.52,263.56 L 759.13,263.17 L 758.41,265.15 Z" fill="#A8C8E8" stroke="none"/>
</svg>