<svg xmlns="http://www.w3.org/2000/svg" width="800" height="500" viewBox="0 0 800 500">
<rect width="800" height="500" fill="#A8C8E8"/>
<path d="M 343.75,498.87 L 341.44,495.79 L 329.04,500.00 L 318.04,500.00 L 314.08,492.50 L 315.73,500.00 L 292.06,500.00 L 291.02,496.28 L 299.45,481.82 L 291.77,479.59 L 288.61,493.65 L 274.93,487.26 L 282.65,488.22 L 274.93,485.12 L 282.65,473.19 L 265.93,486.13 L 236.70,471.82 L 236.70,328.10 L 251.81,333.28 L 258.90,308.41 L 288.05,303.68 L 288.98,315.88 L 302.16,303.83 L 298.69,321.22 L 310.66,311.62 L 343.91,360.43 L 381.30,330.82 L 379.84,341.59 L 391.75,349.05 L 408.21,338.39 L 415.57,359.72 L 410.63,339.46 L 419.11,330.82 L 429.51,328.69 L 434.38,343.73 L 479.23,339.46 L 459.12,323.23 L 454.08,307.26 L 463.78,278.45 L 455.04,279.19 L 453.32,249.98 L 459.65,248.48 L 432.29,223.76 L 425.33,200.76 L 429.94,186.88 L 420.17,170.57 L 453.70,182.15 L 488.77,175.04 L 492.37,186.20 L 484.36,196.51 L 503.08,229.74 L 521.70,222.42 L 563.30,232.33 L 563.30,500.00 L 343.56,500.00 L 343.75,498.87 Z" fill="#E8E0D0" stroke="#B8B0A0" stroke-width="0.5"/>
<path d="M 537.06,13.40 L 525.52,0.00 L 563.30,0.00 L 563.30,5.58 L 537.06,13.40 Z M 507.17,5.44 L 507.95,0.00 L 510.69,0.00 L 507.17,5.44 Z M 500.20,5.37 L 492.11,0.00 L 499.43,0.00 L 500.20,5.37 Z M 483.24,2.43 L 458.34,15.13 L 409.58,11.85 L 405.12,18.25 L 418.38,21.75 L 417.11,33.37 L 372.90,26.60 L 367.28,45.02 L 325.29,12.81 L 273.92,31.05 L 264.09,21.45 L 261.74,55.68 L 254.72,59.95 L 261.74,64.22 L 244.06,92.93 L 236.70,90.66 L 236.70,0.00 L 481.23,0.00 L 483.24,2.43 Z M 487.12,36.45 L 457.50,24.65 L 483.11,6.82 L 507.17,16.01 L 487.12,36.45 Z M 521.86,5.44 L 513.50,4.28 L 516.76,0.00 L 519.41,0.00 L 521.86,5.44 Z" fill="#E8E0D0" stroke="#B8B0A0" stroke-width="0.5"/>
<path d="M 362.35,204.55 L 358.24,216.39 L 344.82,215.98 L 362.35,204.55 Z M 377.38,216.87 L 374.97,219.23 L 375.23,215.68 L 377.38,216.87 Z M 394.38,172.68 L 390.47,173.12 L 391.26,171.42 L 394.38,172.68 Z M 368.12,209.56 L 367.28,211.51 L 367.11,209.49 L 368.12,209.56 Z" fill="#E8E0D0" stroke="#B8B0A0" stroke-width="0.5"/>
<path d="M 411.05,256.95 L 389.71,254.89 L 388.95,243.05 L 405.12,243.05 L 411.05,256.95 Z" fill="#4A90D9" stroke="#1a5fa8" stroke-width="1.2"/>
</svg>