<svg xmlns="http://www.w3.org/2000/svg" width="800" height="500" viewBox="0 0 800 500">
<rect width="800" height="500" fill="#A8C8E8"/>
<path d="M 262.21,498.87 L 256.57,495.79 L 226.19,500.00 L 199.25,500.00 L 189.54,492.50 L 193.58,500.00 L 135.60,500.00 L 133.06,496.28 L 153.70,481.82 L 134.91,479.59 L 127.16,493.65 L 93.64,487.26 L 112.55,488.22 L 93.64,485.12 L 112.55,473.19 L 71.60,486.13 L 0.00,471.82 L 0.00,328.10 L 37.01,333.28 L 54.38,308.41 L 125.77,303.68 L 128.07,315.88 L 160.34,303.83 L 151.84,321.22 L 181.16,311.62 L 262.62,360.43 L 354.19,330.82 L 350.63,341.59 L 379.78,349.05 L 420.12,338.39 L 438.13,359.72 L 426.03,339.46 L 446.80,330.82 L 472.27,328.69 L 484.20,343.73 L 594.07,339.46 L 544.80,323.23 L 532.47,307.26 L 556.21,278.45 L 534.81,279.19 L 530.60,249.98 L 546.10,248.48 L 479.09,223.76 L 462.04,200.76 L 473.33,186.88 L 449.40,170.57 L 531.54,182.15 L 617.44,175.04 L 626.26,186.20 L 606.64,196.51 L 652.49,229.74 L 698.10,222.42 L 800.00,232.33 L 800.00,500.00 L 261.76,500.00 L 262.21,498.87 Z" fill="#E8E0D0" stroke="#B8B0A0" stroke-width="0.5"/>
<path d="M 735.72,13.40 L 707.46,0.00 L 800.00,0.00 L 800.00,5.58 L 735.72,13.40 Z M 662.52,5.44 L 664.40,0.00 L 671.13,0.00 L 662.52,5.44 Z M 645.43,5.37 L 625.61,0.00 L 643.55,0.00 L 645.43,5.37 Z M 603.88,2.43 L 542.91,15.13 L 423.46,11.85 L 412.54,18.25 L 445.01,21.75 L 441.91,33.37 L 333.62,26.60 L 319.87,45.02 L 217.00,12.81 L 91.17,31.05 L 67.10,21.45 L 61.34,55.68 L 44.14,59.95 L 61.34,64.22 L 18.05,92.93 L 0.00,90.66 L 0.00,0.00 L 598.97,0.00 L 603.88,2.43 Z M 613.40,36.45 L 540.83,24.65 L 603.58,6.82 L 662.52,16.01 L 613.40,36.45 Z M 698.50,5.44 L 678.02,4.28 L 685.99,0.00 L 692.48,0.00 L 698.50,5.44 Z" fill="#E8E0D0" stroke="#B8B0A0" stroke-width="0.5"/>
<path d="M 307.78,204.55 L 297.71,216.39 L 264.84,215.98 L 307.78,204.55 Z M 344.61,216.87 L 338.69,219.23 L 339.34,215.68 L 344.61,216.87 Z M 386.23,172.68 L 376.65,173.12 L 378.58,171.42 L 386.23,172.68 Z M 321.90,209.56 L 319.87,211.51 L 319.44,209.49 L 321.90,209.56 Z" fill="#E8E0D0" stroke="#B8B0A0" stroke-width="0.5"/>
<path d="M 427.07,256.95 L 374.80,254.89 L 372.93,243.05 L 412.54,243.05 L 427.07,256.95 Z" fill="#4A90D9" stroke="#1a5fa8" stroke-width="1.2"/>
</svg>