<svg xmlns="http://www.w3.org/2000/svg" width="800" height="500" viewBox="0 0 800 500">
<rect width="800" height="500" fill="#A8C8E8"/>
<path d="M 294.61,54.11 L 305.49,46.84 L 307.04,23.53 L 327.35,6.54 L 326.68,-0.00 L 356.33,-0.00 L 348.86,8.38 L 361.96,15.19 L 367.01,31.92 L 346.85,50.79 L 352.03,58.98 L 331.65,60.51 L 323.42,73.68 L 330.68,79.09 L 303.12,103.58 L 299.65,100.53 L 295.22,115.00 L 271.28,114.87 L 294.61,54.11 Z" fill="#E8E0D0" stroke="#B8B0A0" stroke-width="0.5"/>
<path d="M 257.32,383.82 L 247.74,397.18 L 240.58,440.17 L 226.89,471.26 L 228.47,497.00 L 225.39,500.00 L 195.04,500.00 L 185.58,493.38 L 178.12,484.48 L 178.12,262.22 L 178.21,262.22 L 213.48,247.50 L 257.32,383.82 Z M 244.23,498.26 L 247.44,498.38 L 246.66,500.00 L 244.91,500.00 L 244.23,498.26 Z M 231.96,495.47 L 234.85,494.56 L 239.38,500.00 L 233.64,500.00 L 231.96,495.47 Z" fill="#E8E0D0" stroke="#B8B0A0" stroke-width="0.5"/>
<path d="M 610.98,202.19 L 529.37,187.43 L 538.67,177.98 L 535.08,169.89 L 521.86,171.72 L 518.63,160.76 L 523.68,159.15 L 505.62,93.75 L 621.88,25.61 L 621.88,208.69 L 610.98,202.19 Z" fill="#C8D8E8" stroke="#8BAABB" stroke-width="0.8"/>
<path d="M 236.20,230.64 L 231.43,227.41 L 246.16,199.87 L 261.21,135.41 L 268.57,132.11 L 270.92,114.98 L 295.22,115.00 L 299.65,100.53 L 303.12,103.58 L 317.00,91.13 L 313.65,101.15 L 321.28,125.64 L 312.94,140.63 L 300.36,148.36 L 300.39,167.51 L 276.74,155.77 L 267.41,163.81 L 262.09,181.19 L 267.05,203.08 L 263.12,208.71 L 276.45,210.55 L 278.74,205.28 L 281.34,215.04 L 262.87,223.88 L 256.82,243.87 L 275.09,243.91 L 293.84,234.25 L 289.83,251.73 L 292.56,263.23 L 273.50,313.57 L 273.84,336.49 L 258.86,383.83 L 216.55,255.18 L 236.20,230.64 Z" fill="#C8D8E8" stroke="#8BAABB" stroke-width="0.8"/>
<path d="M 236.20,230.64 L 216.55,255.18 L 213.48,247.50 L 231.43,227.41 L 236.20,230.64 Z M 261.89,182.32 L 268.67,161.65 L 277.88,155.70 L 300.39,167.51 L 300.29,213.79 L 293.86,234.25 L 275.09,243.91 L 256.82,243.87 L 262.87,223.88 L 281.34,215.04 L 278.74,205.28 L 276.45,210.55 L 263.12,208.71 L 267.05,203.08 L 261.89,182.32 Z" fill="#C8D8E8" stroke="#8BAABB" stroke-width="0.8"/>
<path d="M 275.01,494.48 L 278.37,491.11 L 267.88,486.24 L 252.10,489.85 L 245.99,484.71 L 242.02,487.77 L 243.37,489.85 L 239.85,492.92 L 237.27,486.75 L 252.03,455.78 L 261.33,394.16 L 332.86,405.50 L 358.89,383.48 L 374.97,356.66 L 422.32,346.12 L 433.65,320.99 L 454.97,308.44 L 389.71,234.29 L 517.69,196.68 L 530.10,187.19 L 607.54,200.85 L 621.88,209.30 L 621.88,500.00 L 278.72,500.00 L 275.01,494.48 Z" fill="#C8D8E8" stroke="#8BAABB" stroke-width="0.8"/>
<path d="M 321.28,125.64 L 313.34,96.54 L 330.68,79.09 L 323.42,73.68 L 325.13,68.53 L 337.26,57.96 L 351.26,59.97 L 346.85,50.79 L 367.01,31.92 L 361.96,15.19 L 348.86,8.38 L 356.33,-0.00 L 621.88,-0.00 L 621.88,25.61 L 505.62,93.75 L 380.76,172.58 L 353.20,167.91 L 312.94,140.63 L 321.28,125.64 Z" fill="#C8D8E8" stroke="#8BAABB" stroke-width="0.8"/>
<path d="M 321.77,142.95 L 332.66,157.60 L 379.94,172.86 L 505.62,93.75 L 523.68,159.15 L 518.63,160.76 L 521.86,171.72 L 535.08,169.89 L 538.67,177.98 L 517.69,196.68 L 389.71,234.29 L 454.97,308.44 L 433.65,320.99 L 422.32,346.12 L 374.97,356.66 L 358.89,383.48 L 329.48,406.25 L 261.33,394.16 L 273.84,336.49 L 273.50,313.57 L 292.56,263.23 L 289.83,251.73 L 300.29,213.79 L 297.95,191.93 L 303.63,145.30 L 321.77,142.95 Z" fill="#4A90D9" stroke="#1a5fa8" stroke-width="1.2"/>
<path d="M 305.06,140.04 L 301.41,142.44 L 298.01,132.58 L 305.41,132.74 L 305.06,140.04 Z" fill="#A8C8E8" stroke="none"/>
<path d="M 301.09,235.99 L 297.31,248.20 L 297.16,243.52 L 291.05,246.58 L 289.64,232.56 L 300.26,213.78 L 301.09,235.99 Z" fill="#A8C8E8" stroke="none"/>
<path d="M 293.89,264.46 L 287.46,255.26 L 291.46,252.19 L 297.20,256.08 L 293.89,264.46 Z" fill="#A8C8E8" stroke="none"/>
</svg>