<svg xmlns="http://www.w3.org/2000/svg" width="800" height="500" viewBox="0 0 800 500">
<rect width="800" height="500" fill="#A8C8E8"/>
<path d="M 106.65,101.88 L 110.62,98.36 L 112.00,95.66 L 125.64,94.65 L 131.69,90.92 L 132.68,89.53 L 132.21,88.00 L 136.49,82.38 L 139.45,80.98 L 145.75,81.41 L 146.42,78.27 L 148.52,77.80 L 151.28,79.02 L 156.96,76.04 L 162.39,76.72 L 163.91,75.42 L 169.57,77.68 L 173.94,77.97 L 176.04,76.97 L 176.55,73.47 L 174.18,69.64 L 169.15,65.89 L 169.49,65.00 L 167.37,64.24 L 166.76,62.28 L 162.96,60.89 L 160.25,57.81 L 150.91,57.41 L 146.03,62.43 L 139.54,59.13 L 132.58,59.32 L 128.62,61.95 L 124.54,58.63 L 123.80,55.38 L 127.24,53.76 L 127.25,49.53 L 129.99,46.05 L 137.88,30.57 L 151.76,35.18 L 161.48,28.64 L 166.86,28.17 L 169.56,26.61 L 170.05,22.97 L 167.41,22.22 L 171.73,17.16 L 171.99,14.70 L 174.67,12.25 L 174.93,10.15 L 176.78,8.45 L 179.00,3.62 L 185.48,0.00 L 256.38,0.00 L 258.74,2.91 L 258.15,4.85 L 260.95,7.57 L 259.74,9.06 L 261.71,8.55 L 261.22,12.37 L 265.50,16.96 L 266.46,19.50 L 265.52,21.14 L 266.36,21.88 L 266.02,23.16 L 269.15,24.91 L 267.90,27.60 L 268.53,31.05 L 272.33,34.06 L 276.47,34.74 L 282.17,33.67 L 283.73,34.35 L 283.23,35.73 L 287.50,37.53 L 290.22,37.64 L 290.67,36.41 L 291.90,36.46 L 292.76,38.38 L 294.67,38.62 L 297.27,42.26 L 300.58,44.36 L 306.27,44.54 L 304.53,48.27 L 305.69,50.24 L 307.29,50.19 L 308.08,52.65 L 306.27,56.37 L 309.07,59.01 L 309.49,61.45 L 310.47,61.97 L 315.22,61.09 L 317.45,62.28 L 328.54,61.60 L 330.34,58.04 L 331.92,58.25 L 335.37,55.74 L 340.57,55.91 L 343.14,53.63 L 350.94,51.72 L 354.94,53.45 L 353.03,57.17 L 355.59,61.55 L 353.00,65.07 L 348.50,67.18 L 349.03,70.25 L 347.13,72.25 L 346.47,76.89 L 344.44,79.74 L 345.50,80.92 L 344.65,81.67 L 345.12,82.85 L 342.53,84.57 L 342.18,87.61 L 340.00,89.29 L 340.00,92.11 L 336.42,94.07 L 335.45,99.74 L 333.31,100.91 L 321.85,97.88 L 320.45,96.36 L 315.41,101.88 L 309.39,103.64 L 310.98,105.98 L 313.37,115.19 L 312.12,122.84 L 313.57,125.08 L 311.13,130.19 L 311.43,131.97 L 303.05,134.54 L 305.03,136.20 L 304.54,137.54 L 304.19,136.36 L 303.60,137.27 L 301.31,134.93 L 301.03,132.09 L 296.70,130.71 L 294.58,138.83 L 292.56,139.90 L 290.21,138.79 L 288.45,140.66 L 288.66,142.10 L 285.39,144.80 L 274.50,145.42 L 274.65,147.32 L 277.73,151.43 L 275.84,154.47 L 274.10,153.09 L 269.73,153.69 L 263.66,152.33 L 264.21,151.41 L 261.20,148.24 L 259.50,149.78 L 258.19,149.20 L 258.77,149.71 L 256.83,150.98 L 256.29,154.83 L 251.50,158.88 L 250.10,161.47 L 247.13,161.67 L 242.95,165.39 L 238.27,166.82 L 238.47,167.90 L 236.71,167.57 L 227.59,176.97 L 223.20,177.33 L 221.80,175.84 L 221.02,177.82 L 219.05,178.67 L 218.92,177.23 L 216.93,177.34 L 216.59,179.36 L 214.01,179.35 L 205.35,184.18 L 202.37,188.45 L 199.78,188.80 L 200.32,190.05 L 198.55,188.89 L 196.90,190.21 L 198.21,191.34 L 192.68,192.29 L 191.99,193.42 L 191.21,192.73 L 191.25,190.16 L 197.94,188.04 L 196.93,185.46 L 201.18,183.47 L 196.16,183.98 L 195.08,181.87 L 192.52,181.58 L 196.25,180.20 L 195.49,177.44 L 200.34,174.79 L 199.78,174.33 L 205.50,167.29 L 203.67,165.80 L 203.78,164.37 L 200.07,162.45 L 200.27,160.05 L 198.73,162.21 L 194.18,160.88 L 189.61,162.53 L 189.10,163.80 L 190.08,164.11 L 187.73,164.77 L 184.36,168.76 L 184.91,169.27 L 183.47,171.52 L 172.20,176.26 L 172.14,177.38 L 168.27,180.97 L 169.14,180.89 L 169.12,183.70 L 164.87,187.41 L 165.39,186.49 L 164.24,186.19 L 157.64,188.88 L 154.06,186.11 L 150.29,187.70 L 151.01,189.61 L 150.13,189.40 L 148.23,194.88 L 150.30,198.45 L 154.50,201.90 L 165.15,202.57 L 168.88,208.17 L 166.59,207.80 L 165.39,209.96 L 165.29,214.33 L 167.51,216.04 L 175.03,216.44 L 176.56,215.01 L 176.09,213.38 L 181.67,209.39 L 180.39,208.63 L 186.67,206.43 L 191.49,208.38 L 191.89,210.20 L 194.56,209.54 L 196.69,212.38 L 197.97,212.22 L 196.90,212.01 L 197.47,211.61 L 201.72,212.42 L 203.33,210.41 L 204.07,212.53 L 210.15,212.66 L 208.48,213.98 L 209.43,215.84 L 207.33,216.40 L 206.71,218.35 L 208.36,218.26 L 207.97,220.16 L 206.75,219.81 L 207.12,220.56 L 205.71,221.26 L 204.09,220.87 L 205.06,220.16 L 203.86,218.46 L 202.26,220.16 L 202.46,218.96 L 200.98,218.76 L 201.26,219.56 L 197.50,221.14 L 197.35,222.48 L 195.80,221.98 L 197.14,220.94 L 195.36,221.18 L 194.66,222.89 L 190.11,224.77 L 186.83,224.29 L 186.82,225.40 L 188.03,224.47 L 189.39,225.30 L 189.23,226.60 L 188.23,227.80 L 187.50,226.53 L 186.39,227.05 L 186.48,228.49 L 185.54,228.61 L 186.28,231.04 L 185.35,231.63 L 182.05,232.74 L 181.31,232.43 L 182.14,230.52 L 181.48,229.31 L 181.22,230.75 L 178.96,230.02 L 179.90,233.43 L 181.39,233.73 L 178.96,234.79 L 177.83,237.33 L 176.69,237.08 L 176.64,238.84 L 173.55,239.44 L 172.39,242.43 L 170.86,243.41 L 170.06,246.58 L 168.08,248.00 L 168.07,252.14 L 171.08,251.73 L 173.55,254.84 L 180.89,258.10 L 183.61,267.81 L 188.57,277.14 L 187.79,281.78 L 194.51,286.36 L 194.87,288.34 L 194.17,288.61 L 195.16,290.33 L 199.44,292.44 L 200.93,295.61 L 199.66,296.54 L 193.27,293.62 L 191.21,295.00 L 189.56,294.73 L 187.55,291.68 L 185.43,290.88 L 179.37,292.84 L 177.70,291.78 L 175.89,287.62 L 173.13,286.81 L 174.01,287.72 L 173.05,289.12 L 175.25,289.10 L 175.05,290.15 L 177.87,292.74 L 180.56,293.35 L 183.44,291.64 L 186.82,292.33 L 187.72,294.52 L 186.60,294.74 L 191.57,296.64 L 198.56,302.55 L 201.27,306.94 L 201.38,308.52 L 196.36,309.37 L 189.81,313.16 L 187.80,316.87 L 186.19,315.57 L 183.56,315.43 L 182.97,315.63 L 182.35,317.34 L 180.90,316.98 L 179.56,318.43 L 181.09,317.28 L 182.42,317.69 L 183.21,315.94 L 185.27,315.88 L 186.63,317.94 L 185.40,319.55 L 186.01,320.10 L 187.33,320.38 L 185.57,319.49 L 186.84,318.04 L 188.54,318.86 L 192.89,316.24 L 195.00,317.05 L 198.52,321.93 L 201.09,323.00 L 203.42,322.76 L 198.10,327.76 L 195.16,328.33 L 195.66,330.29 L 198.38,328.12 L 199.60,328.83 L 200.00,328.15 L 198.79,328.03 L 199.41,327.21 L 201.52,327.31 L 200.79,328.32 L 201.51,329.43 L 200.67,331.64 L 201.76,332.24 L 201.18,333.14 L 199.28,333.55 L 199.94,331.34 L 199.30,330.52 L 198.55,333.35 L 197.68,333.33 L 197.54,331.52 L 197.40,333.25 L 196.74,331.54 L 194.74,333.65 L 195.32,334.06 L 194.66,334.45 L 197.31,334.36 L 197.23,335.17 L 196.29,335.12 L 196.23,335.72 L 198.13,335.77 L 198.06,337.27 L 196.90,336.56 L 196.70,337.04 L 196.05,336.66 L 195.75,337.07 L 197.89,338.58 L 197.31,339.89 L 194.05,340.24 L 191.54,338.28 L 193.43,340.08 L 192.94,340.78 L 195.97,341.05 L 196.83,343.28 L 195.98,343.51 L 197.14,343.69 L 197.73,345.71 L 196.88,346.92 L 196.34,345.97 L 194.75,346.21 L 193.99,348.56 L 192.98,347.37 L 192.54,347.18 L 193.01,345.32 L 191.86,345.04 L 191.40,346.20 L 190.13,346.22 L 191.33,347.23 L 189.41,350.87 L 185.09,350.07 L 184.74,348.99 L 184.53,349.03 L 184.88,350.29 L 187.85,351.33 L 188.24,352.41 L 186.49,354.85 L 185.44,354.16 L 185.92,355.68 L 184.97,356.99 L 186.00,358.29 L 185.44,359.79 L 183.87,360.29 L 184.02,362.40 L 182.96,362.81 L 182.32,361.89 L 181.97,361.70 L 181.44,361.80 L 181.55,360.69 L 180.15,360.99 L 179.99,362.17 L 181.97,361.80 L 182.87,363.20 L 180.72,363.41 L 180.86,365.40 L 179.58,365.62 L 180.43,366.60 L 178.18,366.82 L 179.33,368.33 L 179.41,370.55 L 175.95,372.34 L 178.75,368.33 L 176.89,368.40 L 176.34,370.41 L 175.29,369.94 L 175.94,367.52 L 174.86,369.20 L 174.01,368.11 L 174.48,369.79 L 173.05,368.33 L 172.40,369.04 L 172.98,371.66 L 175.20,371.55 L 175.29,373.96 L 173.62,372.72 L 172.57,373.35 L 173.56,373.61 L 173.96,375.37 L 175.69,373.76 L 177.19,374.67 L 173.63,376.03 L 171.27,380.28 L 171.00,380.30 L 170.75,379.89 L 169.09,379.25 L 168.35,378.56 L 166.88,377.88 L 168.73,380.50 L 169.73,380.84 L 171.06,380.55 L 172.00,379.37 L 174.13,379.99 L 172.57,381.90 L 172.86,384.61 L 171.16,384.61 L 171.68,386.41 L 172.73,386.12 L 173.63,389.44 L 172.73,389.64 L 172.69,387.84 L 171.57,389.25 L 171.86,387.73 L 171.14,388.26 L 170.34,386.02 L 169.43,385.82 L 166.99,388.53 L 168.20,389.44 L 168.18,390.88 L 169.10,389.85 L 169.90,391.14 L 168.83,392.11 L 167.15,391.56 L 166.95,393.06 L 166.11,392.63 L 166.58,391.51 L 165.39,391.37 L 166.08,390.61 L 164.26,391.12 L 165.45,392.01 L 163.94,393.61 L 165.20,394.65 L 165.81,393.96 L 165.97,395.28 L 164.69,395.38 L 165.18,396.59 L 162.34,396.99 L 161.76,395.38 L 161.80,396.53 L 160.60,396.38 L 161.40,398.04 L 162.90,398.17 L 161.45,399.41 L 161.19,401.36 L 160.39,401.76 L 158.91,399.10 L 158.59,400.46 L 156.36,401.42 L 155.65,399.19 L 155.05,400.79 L 153.42,401.25 L 154.42,401.79 L 153.98,402.82 L 151.21,402.50 L 152.60,403.72 L 154.24,403.40 L 153.91,404.57 L 154.81,404.35 L 155.24,405.52 L 152.60,406.63 L 152.44,408.95 L 150.69,410.72 L 151.29,409.04 L 149.71,408.44 L 150.05,410.04 L 148.81,413.22 L 148.56,410.78 L 146.70,410.14 L 147.58,411.82 L 145.02,412.56 L 144.78,415.00 L 144.45,413.87 L 142.70,415.95 L 142.51,414.48 L 140.68,414.31 L 138.95,418.90 L 135.95,417.89 L 136.54,419.28 L 138.66,419.24 L 139.33,420.57 L 137.68,419.90 L 138.25,420.45 L 137.43,421.64 L 137.01,420.53 L 135.77,420.60 L 136.92,420.96 L 135.60,424.92 L 132.22,424.28 L 133.04,424.65 L 131.39,426.26 L 130.15,425.01 L 130.56,425.97 L 127.36,427.75 L 125.85,425.82 L 126.40,424.99 L 124.36,426.24 L 124.20,425.56 L 122.50,425.13 L 123.25,426.24 L 124.35,426.43 L 124.98,426.03 L 123.96,427.45 L 124.54,428.90 L 122.11,428.52 L 122.56,427.14 L 120.42,427.14 L 121.27,425.45 L 117.44,428.59 L 115.96,427.50 L 117.21,428.78 L 116.36,430.67 L 114.53,429.76 L 114.91,426.73 L 111.86,428.34 L 111.67,429.22 L 112.68,429.25 L 111.54,430.46 L 113.01,431.16 L 111.78,432.06 L 110.34,429.70 L 105.14,430.81 L 104.26,432.06 L 102.66,427.65 L 101.63,427.74 L 101.06,426.69 L 101.06,424.67 L 101.22,423.52 L 101.06,424.08 L 101.06,422.54 L 103.53,422.31 L 101.06,422.46 L 101.06,105.00 L 106.65,101.88 Z M 143.23,418.17 L 141.00,417.72 L 141.47,417.29 L 143.23,418.17 Z M 148.02,413.17 L 146.88,415.48 L 145.54,415.61 L 146.17,412.78 L 148.02,413.17 Z M 170.58,380.08 L 170.63,380.35 L 168.86,380.00 L 168.27,378.58 L 168.86,379.33 L 170.58,380.08 Z M 193.19,349.43 L 191.65,350.08 L 191.28,348.70 L 192.60,347.46 L 193.19,349.43 Z M 204.30,317.80 L 202.75,317.07 L 204.41,316.26 L 204.30,317.80 Z M 206.96,315.26 L 205.15,314.95 L 205.23,314.27 L 206.96,315.26 Z M 200.44,301.74 L 199.87,302.39 L 199.39,301.27 L 200.44,301.74 Z M 176.61,290.93 L 175.29,290.22 L 175.62,289.02 L 174.38,288.01 L 175.56,287.97 L 176.61,290.93 Z M 206.13,186.46 L 206.71,186.19 L 206.71,187.00 L 206.13,186.46 Z M 210.51,185.78 L 210.79,185.87 L 210.18,186.49 L 209.52,185.89 L 210.51,185.78 Z M 208.92,185.55 L 207.94,184.97 L 209.61,185.24 L 208.92,185.55 Z M 194.90,183.85 L 193.88,183.79 L 194.21,182.80 L 192.95,183.59 L 193.93,182.27 L 194.91,182.37 L 194.90,183.85 Z M 213.78,181.27 L 214.38,181.56 L 213.97,182.03 L 213.78,181.27 Z M 155.90,401.51 L 155.36,403.06 L 154.56,402.61 L 154.83,401.20 L 155.90,401.51 Z M 174.87,388.75 L 173.80,387.54 L 175.12,387.03 L 174.09,385.98 L 174.95,385.02 L 175.94,386.83 L 174.87,388.75 Z M 200.52,334.96 L 200.28,333.86 L 200.98,333.57 L 200.52,334.96 Z M 204.11,326.14 L 203.82,326.42 L 202.26,325.30 L 203.16,324.43 L 204.11,326.14 Z M 206.62,323.79 L 205.78,322.02 L 206.76,322.04 L 206.62,323.79 Z M 200.79,320.99 L 200.18,321.67 L 199.87,320.69 L 200.79,320.99 Z M 205.40,322.32 L 202.09,321.39 L 201.42,319.26 L 205.81,320.99 L 205.40,322.32 Z M 201.60,299.67 L 200.07,300.24 L 196.71,298.91 L 191.95,295.17 L 193.71,294.51 L 199.99,297.76 L 201.60,299.67 Z M 186.91,205.13 L 186.87,205.51 L 186.49,205.19 L 186.91,205.13 Z M 185.32,204.40 L 185.29,204.75 L 185.04,204.45 L 185.32,204.40 Z M 186.46,204.53 L 186.08,204.21 L 186.27,204.15 L 186.46,204.53 Z M 186.73,201.25 L 187.10,201.66 L 186.94,201.50 L 186.73,201.25 Z M 187.51,199.53 L 187.83,199.41 L 187.86,199.54 L 187.51,199.53 Z M 188.71,198.24 L 188.84,198.20 L 188.92,198.32 L 188.71,198.24 Z M 216.25,188.57 L 215.83,188.90 L 215.63,188.14 L 216.25,188.57 Z M 102.74,439.19 L 102.55,439.10 L 102.40,438.74 L 102.74,439.19 Z M 109.22,438.04 L 108.06,438.32 L 109.24,437.68 L 109.22,438.04 Z M 101.46,432.48 L 101.06,432.91 L 101.06,432.59 L 101.46,432.48 Z M 101.19,429.07 L 101.27,429.87 L 101.06,429.69 L 101.06,429.00 L 101.19,429.07 Z M 141.54,416.34 L 140.93,416.31 L 140.91,416.17 L 141.54,416.34 Z M 172.12,392.27 L 171.11,391.33 L 171.42,390.99 L 172.12,392.27 Z M 169.79,388.27 L 169.33,388.49 L 169.14,387.61 L 169.93,386.38 L 169.79,388.27 Z M 173.22,379.08 L 172.42,378.62 L 172.97,378.14 L 173.22,379.08 Z M 181.94,365.77 L 182.43,366.31 L 182.03,366.47 L 181.94,365.77 Z M 191.07,358.73 L 190.64,358.95 L 190.38,358.53 L 191.07,358.73 Z M 191.89,353.34 L 191.01,353.36 L 191.20,352.97 L 191.89,353.34 Z M 190.67,350.94 L 191.51,351.19 L 191.07,351.48 L 190.67,350.94 Z M 199.96,334.62 L 199.25,334.19 L 199.33,333.82 L 199.96,334.62 Z M 205.57,324.63 L 204.65,323.75 L 205.13,323.60 L 205.57,324.63 Z M 201.77,322.69 L 201.22,322.76 L 201.15,322.26 L 201.77,322.69 Z M 205.54,317.83 L 205.20,317.89 L 205.76,317.36 L 206.77,317.45 L 205.54,317.83 Z M 208.18,311.05 L 207.01,311.02 L 207.04,310.45 L 208.18,311.05 Z M 199.05,301.98 L 196.86,300.21 L 198.15,300.53 L 199.05,301.98 Z M 161.53,188.67 L 160.87,189.74 L 159.50,190.29 L 159.48,188.70 L 160.46,189.28 L 161.53,188.67 Z" fill="#E8E0D0" stroke="#B8B0A0" stroke-width="0.5"/>
<path d="M 281.68,201.87 L 286.89,208.71 L 291.29,217.60 L 291.82,222.62 L 290.70,232.73 L 291.57,233.43 L 292.79,232.13 L 293.18,233.09 L 291.59,240.48 L 290.61,240.19 L 290.45,242.82 L 286.12,247.33 L 285.61,246.00 L 282.51,246.59 L 281.33,244.87 L 281.93,247.10 L 279.83,246.55 L 278.55,247.81 L 279.95,247.25 L 279.32,250.31 L 278.11,248.78 L 274.75,249.01 L 274.91,246.80 L 272.77,248.79 L 270.70,248.15 L 268.97,249.27 L 269.94,250.76 L 271.38,250.22 L 270.97,252.03 L 269.56,252.43 L 269.75,253.61 L 268.79,252.96 L 268.32,249.62 L 266.44,250.59 L 268.10,254.00 L 266.25,254.08 L 267.33,254.74 L 266.18,256.15 L 263.54,254.74 L 264.61,253.33 L 264.36,254.24 L 265.01,254.11 L 265.35,252.33 L 266.35,252.43 L 265.03,251.43 L 262.17,253.69 L 260.81,256.55 L 259.75,256.05 L 259.37,254.07 L 258.76,256.32 L 257.63,256.87 L 257.27,258.27 L 256.28,258.36 L 255.61,255.74 L 256.50,254.42 L 253.56,254.03 L 253.50,251.67 L 254.46,253.74 L 255.60,254.10 L 254.56,252.24 L 256.45,253.53 L 257.51,253.43 L 254.39,251.68 L 258.01,250.82 L 256.94,250.62 L 256.84,249.45 L 256.18,251.20 L 254.50,251.07 L 255.26,248.28 L 253.80,248.92 L 254.51,247.76 L 253.07,246.19 L 254.14,245.70 L 255.12,247.71 L 255.45,246.53 L 253.73,244.58 L 255.53,242.94 L 255.94,240.30 L 258.34,240.17 L 255.63,238.62 L 257.98,236.37 L 259.42,236.85 L 258.47,235.56 L 260.09,234.90 L 257.38,234.95 L 256.28,233.77 L 258.97,233.49 L 260.49,232.43 L 258.34,233.34 L 257.10,231.42 L 255.95,231.42 L 257.27,230.82 L 256.19,228.60 L 257.02,228.16 L 256.01,227.17 L 257.44,226.39 L 256.00,226.76 L 255.78,222.38 L 255.11,224.44 L 254.14,222.48 L 253.56,224.79 L 253.31,222.78 L 252.15,223.46 L 252.58,222.68 L 251.61,223.01 L 251.55,222.17 L 252.58,221.88 L 252.32,220.34 L 253.32,220.50 L 253.73,219.15 L 253.41,221.55 L 254.30,221.77 L 253.96,220.91 L 255.05,219.81 L 254.26,218.67 L 255.37,218.62 L 255.83,220.99 L 256.26,219.43 L 257.02,220.16 L 256.03,217.86 L 257.54,218.72 L 257.60,219.96 L 258.21,218.74 L 259.59,219.32 L 260.25,222.28 L 260.36,220.58 L 261.92,219.86 L 262.55,218.76 L 260.99,219.70 L 259.93,218.63 L 260.97,218.46 L 260.72,217.26 L 259.10,217.95 L 260.41,216.04 L 258.26,216.76 L 258.66,215.54 L 257.93,214.94 L 260.49,214.74 L 257.41,213.10 L 257.76,211.27 L 256.45,207.40 L 257.97,207.55 L 257.97,208.80 L 259.10,209.31 L 258.18,208.60 L 258.02,204.91 L 263.13,199.81 L 274.56,199.54 L 276.79,198.13 L 277.46,195.43 L 278.47,194.84 L 281.68,201.87 Z M 255.21,227.35 L 253.96,226.43 L 254.11,224.47 L 255.21,227.35 Z M 254.05,207.31 L 252.71,207.51 L 252.97,206.76 L 254.05,207.31 Z M 260.12,272.79 L 257.31,273.81 L 253.26,274.44 L 251.95,272.93 L 253.75,270.53 L 255.84,269.70 L 259.54,269.07 L 261.39,270.33 L 260.12,272.79 Z M 264.86,255.63 L 264.95,256.14 L 263.46,256.25 L 264.86,255.63 Z M 252.53,257.41 L 251.25,256.77 L 252.99,254.24 L 254.58,255.36 L 252.53,257.41 Z M 271.88,253.42 L 271.65,254.17 L 270.90,253.50 L 271.46,252.63 L 271.88,253.42 Z M 249.73,253.04 L 249.00,252.59 L 249.73,251.99 L 249.73,253.04 Z M 249.16,252.07 L 248.71,251.87 L 248.96,251.28 L 250.09,251.22 L 249.16,252.07 Z M 250.98,249.90 L 249.84,250.02 L 250.34,249.33 L 250.98,249.90 Z M 274.75,252.43 L 273.33,251.42 L 272.78,252.22 L 272.03,249.93 L 272.90,248.88 L 273.12,250.42 L 274.92,250.72 L 274.75,252.43 Z M 282.43,251.88 L 281.11,252.33 L 281.35,250.42 L 279.96,249.93 L 281.85,249.61 L 281.43,248.67 L 282.54,247.52 L 283.09,249.93 L 282.43,251.88 Z M 250.84,246.50 L 252.00,245.90 L 251.54,246.24 L 251.34,247.25 L 250.84,246.50 Z M 255.34,212.50 L 254.29,211.83 L 256.20,210.83 L 256.79,211.12 L 255.34,212.50 Z M 308.94,211.87 L 307.91,211.52 L 307.95,211.00 L 309.03,210.66 L 308.94,211.87 Z M 254.46,209.01 L 253.40,208.41 L 253.86,207.71 L 254.46,209.01 Z M 254.46,209.41 L 254.91,206.63 L 256.22,207.41 L 256.12,209.91 L 254.46,209.41 Z M 234.18,205.17 L 233.32,204.80 L 233.45,204.29 L 234.75,204.29 L 234.18,205.17 Z M 265.94,262.59 L 265.60,262.47 L 265.41,261.83 L 265.94,262.59 Z M 268.00,256.60 L 267.50,255.77 L 268.18,255.78 L 268.00,256.60 Z M 271.32,255.51 L 270.56,254.84 L 271.05,254.59 L 271.32,255.51 Z M 251.20,254.48 L 250.43,254.84 L 250.99,254.15 L 250.73,253.57 L 251.20,254.48 Z M 250.25,254.29 L 250.35,253.37 L 250.73,254.10 L 250.25,254.29 Z M 243.50,252.60 L 242.77,253.40 L 242.94,252.52 L 243.50,252.60 Z M 251.35,252.15 L 250.84,251.38 L 251.98,251.60 L 251.35,252.15 Z M 251.77,251.50 L 251.12,251.12 L 251.81,250.82 L 251.77,251.50 Z M 250.82,250.20 L 251.84,249.89 L 251.40,250.89 L 250.82,250.20 Z M 273.93,250.38 L 273.64,250.06 L 274.29,249.23 L 274.95,250.28 L 273.93,250.38 Z M 252.72,249.28 L 252.68,249.00 L 253.05,248.98 L 252.72,249.28 Z M 252.08,247.66 L 251.54,247.30 L 251.74,247.16 L 252.08,247.66 Z M 284.03,248.12 L 283.76,247.18 L 284.15,247.13 L 284.03,248.12 Z M 253.12,239.23 L 253.71,238.96 L 253.69,239.16 L 253.12,239.23 Z M 251.27,214.74 L 251.92,215.27 L 251.47,215.57 L 251.27,214.74 Z M 255.66,215.24 L 255.25,215.17 L 255.35,214.66 L 255.66,215.24 Z M 257.39,215.25 L 256.50,215.76 L 256.54,214.49 L 257.39,215.25 Z M 246.47,208.81 L 246.25,209.11 L 246.15,208.84 L 246.47,208.81 Z M 234.53,206.79 L 234.17,206.93 L 234.08,206.57 L 234.53,206.79 Z M 239.08,261.62 L 239.20,261.27 L 239.61,261.80 L 239.08,261.62 Z M 257.39,260.44 L 256.11,260.64 L 256.42,260.05 L 257.39,260.44 Z M 257.69,260.79 L 257.77,259.78 L 258.08,259.89 L 257.69,260.79 Z M 261.00,260.36 L 260.28,260.34 L 260.45,259.63 L 261.00,260.36 Z M 257.03,260.10 L 256.62,259.87 L 256.74,259.23 L 257.03,260.10 Z M 250.84,258.58 L 250.27,258.34 L 250.41,258.05 L 250.84,258.58 Z M 260.12,258.22 L 259.13,257.74 L 260.76,257.67 L 260.12,258.22 Z M 262.51,258.08 L 261.94,257.45 L 262.35,257.08 L 263.15,257.61 L 262.51,258.08 Z M 258.30,258.26 L 257.78,257.02 L 258.55,256.91 L 259.20,258.14 L 258.30,258.26 Z M 259.91,256.22 L 260.37,256.91 L 259.34,257.47 L 259.91,256.22 Z M 276.92,253.72 L 276.79,253.39 L 276.96,253.10 L 277.62,253.29 L 276.92,253.72 Z M 279.35,250.65 L 279.17,251.48 L 278.08,250.56 L 279.35,250.65 Z M 276.95,250.98 L 276.56,250.71 L 276.81,250.37 L 276.95,250.98 Z M 254.12,250.61 L 252.78,250.14 L 253.59,249.21 L 254.12,250.61 Z M 252.11,247.00 L 251.92,246.62 L 252.85,246.56 L 252.11,247.00 Z M 320.57,215.10 L 320.56,215.12 L 320.54,215.11 L 320.57,215.10 Z" fill="#E8E0D0" stroke="#B8B0A0" stroke-width="0.5"/>
<path d="M 277.46,195.43 L 276.79,198.13 L 274.56,199.54 L 263.13,199.81 L 258.02,204.91 L 257.15,207.31 L 254.79,205.59 L 252.16,206.34 L 251.34,207.80 L 250.68,205.90 L 249.52,205.29 L 249.84,206.60 L 249.06,206.27 L 247.59,204.10 L 245.16,203.53 L 246.87,205.10 L 245.56,205.10 L 245.43,207.44 L 244.32,206.99 L 242.15,208.76 L 243.33,207.31 L 242.66,206.99 L 244.28,206.67 L 244.11,205.55 L 241.68,206.80 L 240.85,206.60 L 241.68,205.79 L 241.10,204.99 L 240.10,205.94 L 237.72,205.10 L 240.08,204.44 L 239.26,203.49 L 240.94,203.70 L 241.16,202.86 L 233.97,202.15 L 237.89,200.67 L 236.43,200.22 L 236.52,198.93 L 238.17,196.69 L 237.78,195.32 L 239.51,195.49 L 239.46,194.22 L 243.54,193.62 L 245.89,194.74 L 243.36,192.60 L 241.31,193.68 L 240.87,192.36 L 240.24,193.16 L 239.62,192.21 L 240.36,189.53 L 242.00,188.11 L 241.43,187.10 L 242.92,186.19 L 243.50,183.68 L 242.09,182.97 L 243.41,180.95 L 239.38,181.03 L 234.92,177.84 L 234.89,179.88 L 233.61,180.67 L 232.72,177.39 L 229.81,175.94 L 230.82,174.25 L 231.95,174.33 L 230.39,173.22 L 236.71,167.57 L 238.47,167.90 L 238.27,166.82 L 242.95,165.39 L 247.13,161.67 L 250.10,161.47 L 251.50,158.88 L 256.29,154.83 L 256.83,150.98 L 258.77,149.71 L 258.19,149.20 L 259.50,149.78 L 261.20,148.24 L 264.21,151.41 L 263.66,152.33 L 269.73,153.69 L 274.10,153.09 L 275.84,154.47 L 277.73,151.43 L 274.65,147.32 L 274.50,145.42 L 285.39,144.80 L 288.66,142.10 L 288.45,140.66 L 290.21,138.79 L 292.56,139.90 L 294.58,138.83 L 296.70,130.71 L 299.61,130.92 L 299.34,131.81 L 301.03,132.09 L 301.31,134.93 L 303.60,137.27 L 304.37,136.53 L 306.58,140.99 L 303.05,140.56 L 302.98,141.77 L 299.03,144.17 L 294.43,150.46 L 294.05,153.18 L 295.82,154.48 L 294.68,158.19 L 295.32,160.81 L 294.74,162.42 L 288.92,164.31 L 287.05,167.73 L 281.74,170.07 L 281.65,172.02 L 278.02,174.25 L 274.16,174.00 L 272.57,176.23 L 269.55,177.14 L 268.11,178.83 L 268.96,180.60 L 268.31,181.84 L 268.81,184.69 L 268.00,182.97 L 266.60,183.77 L 267.74,184.23 L 266.76,184.31 L 266.78,186.37 L 271.18,187.61 L 278.47,194.84 L 277.46,195.43 Z M 237.17,181.25 L 235.79,182.06 L 236.53,180.35 L 237.17,181.25 Z M 236.82,196.75 L 235.45,196.41 L 236.10,195.85 L 236.82,196.75 Z M 241.53,207.99 L 240.63,208.34 L 241.33,207.67 L 241.53,207.99 Z M 239.67,206.94 L 240.28,206.70 L 240.26,206.80 L 239.67,206.94 Z M 238.47,206.68 L 237.94,206.81 L 238.31,206.66 L 238.47,206.68 Z M 234.45,181.55 L 234.33,181.96 L 234.12,181.88 L 234.45,181.55 Z M 233.70,181.30 L 233.11,181.44 L 234.05,180.96 L 233.70,181.30 Z M 233.07,182.78 L 233.31,182.62 L 233.39,182.98 L 233.07,182.78 Z M 228.70,177.28 L 228.86,177.53 L 228.62,177.72 L 228.70,177.28 Z" fill="#E8E0D0" stroke="#B8B0A0" stroke-width="0.5"/>
<path d="M 129.99,46.05 L 127.25,49.53 L 127.24,53.76 L 123.80,55.38 L 124.54,58.63 L 128.62,61.95 L 132.58,59.32 L 139.54,59.13 L 146.03,62.43 L 150.91,57.41 L 159.41,57.47 L 162.96,60.89 L 166.76,62.28 L 167.37,64.24 L 169.49,65.00 L 169.15,65.89 L 174.18,69.64 L 176.55,73.47 L 176.26,76.77 L 173.94,77.97 L 169.57,77.68 L 163.91,75.42 L 162.39,76.72 L 156.96,76.04 L 151.28,79.02 L 148.52,77.80 L 146.42,78.27 L 145.75,81.41 L 139.45,80.98 L 136.49,82.38 L 132.21,88.00 L 132.68,89.53 L 131.69,90.92 L 125.64,94.65 L 112.00,95.66 L 110.62,98.36 L 106.65,101.88 L 101.06,105.00 L 101.06,27.44 L 109.02,23.91 L 114.65,24.51 L 122.28,29.57 L 126.23,29.77 L 132.27,27.77 L 136.57,29.12 L 137.88,30.57 L 129.99,46.05 Z" fill="#E8E0D0" stroke="#B8B0A0" stroke-width="0.5"/>
<path d="M 634.11,4.04 L 629.58,6.17 L 628.85,8.00 L 619.15,15.30 L 620.25,12.16 L 619.77,10.44 L 617.39,8.73 L 616.72,0.00 L 637.80,0.00 L 634.11,4.04 Z M 432.96,1.22 L 431.86,3.35 L 429.53,4.15 L 429.36,6.06 L 428.14,6.64 L 429.29,7.01 L 429.03,7.85 L 426.77,8.72 L 427.02,12.84 L 424.89,15.32 L 423.83,20.20 L 425.07,22.93 L 424.80,25.76 L 426.83,26.80 L 423.51,29.81 L 424.95,31.24 L 425.26,34.20 L 423.75,38.32 L 422.55,38.42 L 423.21,38.61 L 422.80,41.24 L 422.06,41.35 L 422.65,41.95 L 421.15,42.44 L 423.30,42.75 L 421.07,46.05 L 420.64,50.54 L 409.62,60.42 L 406.11,67.32 L 401.21,71.54 L 398.59,78.60 L 396.87,79.98 L 394.85,84.36 L 384.14,95.82 L 380.12,98.48 L 375.71,104.47 L 374.63,104.41 L 372.36,108.70 L 368.42,110.67 L 365.84,115.42 L 363.91,116.72 L 364.57,117.73 L 363.45,119.46 L 360.52,120.23 L 361.02,121.20 L 360.01,123.20 L 348.63,129.48 L 345.41,132.37 L 341.40,132.81 L 336.16,135.22 L 334.55,135.06 L 335.21,134.32 L 334.14,133.19 L 332.04,134.23 L 331.41,132.00 L 329.18,133.00 L 327.09,131.50 L 325.97,132.92 L 326.38,126.28 L 321.38,129.63 L 320.42,129.18 L 322.85,126.04 L 321.84,126.69 L 320.14,125.70 L 316.99,130.71 L 314.93,131.46 L 315.86,132.51 L 313.47,133.92 L 312.83,137.19 L 311.64,135.54 L 308.86,136.53 L 307.97,136.02 L 309.58,135.74 L 306.05,135.58 L 308.66,137.58 L 306.62,140.99 L 304.54,137.54 L 305.03,136.20 L 302.72,135.10 L 305.21,133.34 L 311.43,131.97 L 311.13,130.19 L 313.57,125.08 L 312.12,122.84 L 313.37,115.19 L 310.98,105.98 L 309.39,103.64 L 315.41,101.88 L 320.45,96.36 L 321.85,97.88 L 333.31,100.91 L 335.45,99.74 L 336.42,94.07 L 340.00,92.11 L 340.00,89.29 L 342.18,87.61 L 342.53,84.57 L 345.12,82.85 L 344.65,81.67 L 345.50,80.92 L 344.44,79.74 L 346.47,76.89 L 347.13,72.25 L 349.03,70.25 L 348.50,67.18 L 353.00,65.07 L 355.59,61.55 L 353.03,57.17 L 354.94,53.45 L 350.94,51.72 L 343.14,53.63 L 340.57,55.91 L 335.37,55.74 L 331.92,58.25 L 330.34,58.04 L 328.54,61.60 L 309.77,61.65 L 309.07,59.01 L 306.27,56.37 L 308.07,53.00 L 307.29,50.19 L 305.69,50.24 L 304.53,48.27 L 306.27,44.54 L 300.58,44.36 L 297.27,42.26 L 294.67,38.62 L 292.76,38.38 L 291.90,36.46 L 290.67,36.41 L 290.22,37.64 L 287.50,37.53 L 283.23,35.73 L 283.73,34.35 L 282.17,33.67 L 276.47,34.74 L 272.33,34.06 L 268.53,31.05 L 267.90,27.60 L 269.15,24.91 L 266.02,23.16 L 266.36,21.88 L 265.52,21.14 L 266.46,19.50 L 265.50,16.96 L 261.22,12.37 L 261.71,8.55 L 259.74,9.06 L 260.95,7.57 L 258.15,4.85 L 258.74,2.91 L 256.38,0.00 L 435.17,0.00 L 432.96,1.22 Z M 179.00,3.62 L 176.78,8.45 L 174.93,10.15 L 174.67,12.25 L 171.99,14.70 L 171.73,17.16 L 167.41,22.22 L 170.05,22.97 L 169.56,26.61 L 166.86,28.17 L 161.48,28.64 L 152.20,35.11 L 142.38,32.77 L 132.27,27.77 L 126.23,29.77 L 122.28,29.57 L 114.65,24.51 L 109.02,23.91 L 101.06,27.44 L 101.06,0.00 L 184.63,0.00 L 179.00,3.62 Z M 320.82,131.23 L 319.30,130.80 L 320.13,129.70 L 321.26,130.37 L 320.82,131.23 Z M 458.44,2.94 L 457.32,5.64 L 458.68,5.85 L 459.01,3.84 L 460.01,5.85 L 460.33,8.27 L 459.18,8.17 L 460.43,10.17 L 460.90,9.12 L 464.13,23.44 L 466.69,27.78 L 471.29,41.58 L 474.89,44.50 L 475.76,47.87 L 474.80,47.68 L 472.72,43.39 L 467.35,38.92 L 457.73,36.87 L 458.60,38.04 L 462.64,38.02 L 456.71,39.03 L 454.72,40.84 L 454.48,43.86 L 449.05,57.16 L 449.14,60.73 L 451.18,65.57 L 454.81,68.26 L 455.79,73.80 L 456.71,73.99 L 455.63,74.72 L 456.70,76.27 L 459.31,76.26 L 456.95,75.21 L 456.99,74.31 L 460.37,74.50 L 461.33,80.83 L 462.15,81.15 L 459.80,86.28 L 459.05,78.50 L 452.17,77.93 L 451.30,75.78 L 450.02,76.11 L 447.47,78.53 L 443.61,88.10 L 441.77,86.12 L 440.35,78.75 L 443.26,71.19 L 442.17,62.99 L 444.88,57.80 L 444.18,52.42 L 440.87,45.95 L 442.19,44.66 L 444.09,35.86 L 444.67,26.71 L 443.08,19.89 L 443.75,15.92 L 445.82,11.66 L 443.53,6.39 L 438.81,2.34 L 440.45,2.39 L 438.24,0.33 L 438.30,0.00 L 456.66,0.00 L 458.44,2.94 Z M 493.49,122.86 L 492.55,123.87 L 491.68,123.06 L 493.49,122.86 Z M 501.73,118.88 L 497.97,119.86 L 498.00,118.79 L 501.34,118.05 L 501.73,118.88 Z M 497.61,109.39 L 496.91,110.65 L 492.13,112.25 L 485.77,118.22 L 485.38,121.08 L 485.33,120.15 L 484.02,120.03 L 483.63,118.39 L 487.46,115.34 L 492.16,108.56 L 497.61,109.39 Z M 524.63,96.43 L 518.14,98.05 L 513.75,101.86 L 510.63,101.39 L 510.53,102.67 L 505.48,107.46 L 503.42,108.11 L 502.26,109.81 L 501.10,109.45 L 502.00,106.82 L 502.77,107.68 L 502.74,106.27 L 505.13,105.52 L 504.08,103.85 L 505.37,104.27 L 508.38,101.80 L 508.92,100.04 L 510.22,100.36 L 513.53,98.03 L 513.12,96.12 L 514.07,95.06 L 515.63,97.63 L 518.55,97.28 L 523.54,93.61 L 525.04,94.25 L 524.63,96.43 Z M 545.72,83.25 L 539.14,89.23 L 534.51,92.36 L 532.09,92.71 L 534.86,88.80 L 542.89,83.56 L 545.72,83.25 Z M 566.49,69.89 L 561.14,75.05 L 559.48,74.82 L 565.65,69.39 L 565.41,70.09 L 566.49,69.89 Z M 569.25,67.60 L 567.91,66.98 L 568.07,66.35 L 569.00,66.36 L 569.25,67.60 Z M 575.80,61.08 L 574.71,61.94 L 574.62,60.95 L 575.23,60.25 L 575.80,61.08 Z M 577.78,56.73 L 576.96,55.53 L 577.56,55.47 L 578.45,56.17 L 577.78,56.73 Z M 587.69,46.49 L 586.69,46.46 L 588.45,44.11 L 589.57,43.85 L 587.69,46.49 Z M 586.54,43.72 L 585.83,43.28 L 585.99,42.90 L 586.54,43.72 Z M 594.25,41.01 L 593.17,41.47 L 592.30,40.34 L 594.25,41.01 Z M 592.93,31.15 L 591.97,31.89 L 591.51,31.22 L 592.93,31.15 Z M 612.92,20.36 L 609.70,24.25 L 605.08,25.96 L 603.81,28.03 L 601.65,26.99 L 601.48,23.67 L 607.35,22.05 L 609.75,17.84 L 611.58,16.64 L 612.49,16.98 L 612.92,20.36 Z M 617.23,16.74 L 615.97,18.73 L 613.25,17.87 L 613.48,16.52 L 616.63,15.16 L 617.23,16.74 Z M 604.68,15.47 L 604.75,14.45 L 607.15,15.21 L 605.83,16.12 L 604.68,15.47 Z M 548.89,80.18 L 548.26,79.94 L 548.60,79.51 L 548.89,80.18 Z M 597.91,33.39 L 596.67,35.62 L 596.82,38.09 L 594.31,38.35 L 597.08,33.11 L 597.91,33.39 Z M 327.06,133.12 L 327.37,132.18 L 327.68,132.69 L 327.06,133.12 Z" fill="#E8E0D0" stroke="#B8B0A0" stroke-width="0.5"/>
<path d="M 109.61,431.27 L 107.59,432.13 L 108.10,432.85 L 109.47,431.66 L 110.39,432.30 L 109.88,433.82 L 108.69,433.39 L 109.15,434.91 L 104.34,432.70 L 108.34,430.55 L 109.61,431.27 Z M 106.91,436.10 L 106.86,435.24 L 107.44,435.71 L 106.91,436.10 Z M 108.66,435.71 L 108.08,435.92 L 106.93,434.72 L 108.17,434.51 L 108.66,435.71 Z M 104.28,434.41 L 106.24,433.77 L 105.58,435.53 L 103.73,435.81 L 104.28,434.41 Z" fill="#E8E0D0" stroke="#B8B0A0" stroke-width="0.5"/>
<path d="M 205.56,493.69 L 203.91,495.90 L 203.59,500.00 L 182.83,500.00 L 184.76,492.60 L 184.65,490.01 L 187.07,489.14 L 187.58,487.92 L 188.95,489.07 L 191.11,487.95 L 197.65,492.77 L 197.59,491.95 L 201.70,493.11 L 203.70,489.76 L 205.44,491.45 L 205.56,493.69 Z M 195.58,484.44 L 193.19,484.73 L 193.20,484.46 L 195.58,484.44 Z M 201.73,483.45 L 199.87,485.14 L 200.57,482.76 L 201.73,483.45 Z M 192.86,481.51 L 192.78,482.43 L 192.12,481.42 L 192.37,480.11 L 192.86,481.51 Z M 195.83,478.90 L 194.05,477.19 L 196.05,476.93 L 195.83,478.90 Z M 201.60,475.39 L 200.64,474.83 L 200.66,474.50 L 201.59,474.24 L 201.60,475.39 Z M 200.58,463.44 L 200.29,463.99 L 200.07,464.03 L 199.96,462.96 L 200.58,463.44 Z M 201.52,462.63 L 200.93,462.84 L 201.45,461.28 L 201.98,460.87 L 201.52,462.63 Z M 199.82,457.78 L 199.29,457.72 L 200.13,455.74 L 199.82,457.78 Z M 201.02,452.42 L 201.08,452.29 L 201.10,452.41 L 201.02,452.42 Z M 201.31,451.63 L 201.25,451.80 L 201.23,451.66 L 201.31,451.63 Z" fill="#E8E0D0" stroke="#B8B0A0" stroke-width="0.5"/>
<path d="M 199.54,397.94 L 200.44,400.59 L 197.14,408.23 L 194.64,421.90 L 189.20,430.97 L 187.91,440.10 L 186.39,439.62 L 185.27,434.37 L 183.95,432.47 L 182.38,431.60 L 181.78,431.08 L 181.22,430.19 L 181.81,430.98 L 179.79,423.56 L 178.46,423.39 L 179.77,418.72 L 180.01,412.82 L 190.54,393.96 L 195.16,392.69 L 195.08,391.15 L 196.82,390.54 L 201.93,394.66 L 199.54,397.94 Z M 196.90,438.50 L 195.75,437.49 L 196.65,437.49 L 196.90,438.50 Z M 159.30,403.03 L 157.14,403.48 L 157.11,402.36 L 158.46,401.69 L 159.30,403.03 Z M 173.80,415.98 L 172.54,416.45 L 172.10,416.11 L 173.55,415.18 L 173.80,415.98 Z M 171.79,414.49 L 171.67,415.65 L 171.08,415.78 L 171.79,414.49 Z M 172.32,414.28 L 172.57,414.07 L 172.93,414.45 L 172.32,414.28 Z M 195.33,428.78 L 195.88,428.88 L 195.80,429.39 L 195.33,428.78 Z M 179.18,415.99 L 179.29,415.96 L 177.88,417.68 L 179.18,415.99 Z" fill="#E8E0D0" stroke="#B8B0A0" stroke-width="0.5"/>
<path d="M 488.75,495.49 L 487.35,496.58 L 487.27,496.24 L 487.97,494.80 L 488.75,495.49 Z M 486.30,485.83 L 486.97,485.53 L 487.23,486.40 L 486.30,485.83 Z M 483.29,472.84 L 483.29,472.67 L 483.62,472.66 L 483.29,472.84 Z M 481.42,467.60 L 481.56,467.30 L 481.97,467.56 L 481.42,467.60 Z M 477.51,460.11 L 477.72,459.89 L 477.88,460.15 L 477.51,460.11 Z" fill="#E8E0D0" stroke="#B8B0A0" stroke-width="0.5"/>
<path d="M 295.74,295.75 L 294.89,297.23 L 294.05,297.26 L 295.54,294.95 L 295.74,295.75 Z M 314.26,301.21 L 311.05,300.08 L 310.35,301.35 L 311.78,302.58 L 306.07,306.63 L 307.72,301.63 L 306.52,298.67 L 305.26,298.08 L 307.28,298.41 L 307.50,296.26 L 305.91,296.20 L 304.52,299.15 L 304.92,301.77 L 306.10,302.70 L 305.21,304.40 L 303.58,303.02 L 300.83,303.07 L 299.58,300.69 L 300.90,301.09 L 302.18,298.43 L 300.21,295.09 L 300.98,294.66 L 300.32,290.64 L 302.00,290.28 L 304.32,287.05 L 306.19,282.49 L 303.54,282.90 L 305.68,281.68 L 305.51,280.49 L 303.46,278.46 L 303.21,276.06 L 301.06,274.58 L 299.69,275.57 L 300.83,277.71 L 299.42,279.16 L 302.24,279.45 L 302.49,281.92 L 300.15,283.31 L 299.69,281.98 L 300.65,280.98 L 299.28,280.35 L 295.03,283.67 L 296.45,281.38 L 293.80,278.42 L 294.32,275.96 L 296.02,277.64 L 295.68,279.18 L 298.19,279.61 L 297.50,277.11 L 295.10,276.38 L 294.66,274.96 L 294.14,275.86 L 292.76,274.03 L 293.10,271.90 L 294.22,271.50 L 296.36,273.23 L 296.57,271.51 L 295.59,270.68 L 296.60,270.84 L 296.38,269.24 L 298.35,270.80 L 300.17,269.51 L 299.27,268.93 L 300.65,267.59 L 301.64,268.92 L 302.86,268.47 L 302.95,267.53 L 302.35,267.94 L 301.63,267.34 L 303.50,266.81 L 304.04,264.80 L 307.25,263.50 L 309.15,264.27 L 310.27,263.17 L 309.73,265.37 L 311.43,268.19 L 314.61,268.91 L 316.46,267.42 L 318.22,267.56 L 319.06,270.23 L 317.36,272.22 L 316.28,272.02 L 316.33,273.33 L 321.05,273.44 L 319.93,275.47 L 322.18,276.00 L 321.06,277.59 L 323.20,278.18 L 318.13,285.02 L 314.26,301.21 Z M 355.34,265.10 L 350.05,268.94 L 348.42,273.88 L 345.39,270.10 L 343.16,269.46 L 337.78,271.99 L 336.97,275.01 L 334.28,277.53 L 334.28,281.57 L 333.24,280.60 L 329.78,280.98 L 330.76,278.67 L 328.29,278.93 L 327.90,276.75 L 326.83,277.05 L 328.12,275.39 L 326.97,274.35 L 328.82,274.01 L 328.55,272.73 L 326.78,272.66 L 327.29,270.82 L 322.35,272.22 L 330.37,266.84 L 330.80,264.07 L 333.28,261.67 L 333.02,260.87 L 335.79,263.65 L 340.41,263.18 L 341.98,261.51 L 340.98,258.87 L 342.70,259.28 L 345.54,257.17 L 348.02,256.93 L 351.59,259.62 L 354.08,259.16 L 353.45,262.24 L 354.67,263.38 L 354.60,265.20 L 355.34,265.10 Z M 335.74,232.41 L 335.21,233.03 L 335.24,232.16 L 335.74,232.41 Z M 335.38,231.53 L 335.63,231.67 L 335.38,231.73 L 335.38,231.53 Z M 334.80,232.53 L 333.65,232.43 L 334.72,231.42 L 334.80,232.53 Z M 337.65,257.96 L 337.24,256.42 L 336.49,258.56 L 335.18,258.87 L 336.29,257.47 L 335.38,256.96 L 330.12,259.75 L 328.90,259.85 L 328.45,257.50 L 326.39,257.56 L 324.90,259.17 L 324.17,265.00 L 322.90,265.94 L 323.42,264.55 L 319.57,263.12 L 320.09,262.28 L 319.11,261.85 L 315.50,262.98 L 314.88,262.09 L 313.29,263.78 L 310.61,261.97 L 309.17,263.94 L 308.74,263.58 L 308.90,257.63 L 310.59,257.07 L 309.69,256.40 L 312.27,257.28 L 312.25,256.37 L 313.23,256.26 L 313.57,256.69 L 312.95,256.55 L 312.70,257.26 L 315.17,256.45 L 317.37,253.00 L 320.52,252.19 L 329.91,243.68 L 329.87,241.54 L 335.36,239.18 L 337.97,239.54 L 337.44,240.73 L 339.07,241.34 L 341.24,240.18 L 349.16,239.99 L 352.76,238.14 L 357.45,238.60 L 361.06,236.68 L 362.02,238.15 L 360.60,240.01 L 361.32,239.33 L 362.17,241.45 L 363.91,239.15 L 364.70,240.78 L 368.37,240.17 L 368.10,238.57 L 370.13,238.76 L 369.84,237.32 L 370.60,236.78 L 371.20,238.30 L 371.56,236.63 L 369.92,233.34 L 371.86,229.62 L 374.97,227.60 L 378.67,222.62 L 379.60,218.95 L 378.43,216.47 L 379.80,213.18 L 386.63,211.24 L 385.17,214.38 L 382.57,215.96 L 381.81,215.23 L 380.73,217.54 L 382.97,217.22 L 382.47,221.07 L 386.00,222.23 L 387.79,219.64 L 397.39,215.97 L 401.07,213.12 L 404.76,206.52 L 411.59,201.78 L 412.40,197.34 L 415.79,192.01 L 418.45,184.53 L 418.84,177.23 L 417.56,176.15 L 415.62,176.74 L 414.87,174.83 L 416.91,174.89 L 418.64,171.21 L 418.80,169.45 L 416.83,165.73 L 419.06,163.40 L 421.77,162.74 L 422.38,159.59 L 423.42,159.62 L 421.50,158.18 L 422.63,156.09 L 424.07,157.29 L 426.12,157.14 L 426.97,162.14 L 428.77,161.70 L 429.21,159.83 L 432.07,161.86 L 433.89,157.71 L 433.02,156.11 L 427.73,157.86 L 429.43,152.09 L 433.87,154.81 L 436.09,153.68 L 435.20,159.55 L 435.81,164.83 L 440.54,170.98 L 440.69,173.63 L 441.97,174.71 L 442.64,178.00 L 442.11,180.36 L 443.02,179.96 L 443.43,181.26 L 442.02,182.57 L 443.28,182.49 L 441.44,184.48 L 442.35,184.18 L 440.70,187.10 L 441.54,187.90 L 440.38,188.00 L 440.75,189.01 L 439.30,188.80 L 439.33,190.05 L 438.23,189.54 L 438.65,191.50 L 437.63,191.06 L 436.82,192.73 L 437.36,193.68 L 436.12,194.30 L 436.99,194.73 L 436.17,195.64 L 437.14,196.39 L 436.21,197.70 L 437.15,198.35 L 436.87,200.07 L 434.21,198.01 L 432.59,199.26 L 431.50,198.70 L 430.15,201.50 L 429.58,204.51 L 430.81,208.00 L 430.64,216.70 L 430.07,219.16 L 427.44,222.06 L 425.30,229.18 L 426.29,233.14 L 429.09,237.44 L 424.33,239.70 L 423.05,245.42 L 420.13,246.21 L 417.62,249.36 L 415.58,248.65 L 416.94,248.01 L 416.90,244.39 L 415.87,243.34 L 419.74,239.69 L 418.31,238.20 L 415.97,239.16 L 415.68,238.42 L 415.96,240.48 L 414.20,241.34 L 414.28,243.64 L 415.45,244.35 L 414.72,245.94 L 413.89,246.04 L 413.02,243.49 L 408.68,244.14 L 407.40,246.90 L 408.17,249.90 L 406.40,253.14 L 404.49,253.93 L 403.42,252.53 L 403.61,248.30 L 405.36,247.55 L 404.11,246.22 L 401.11,246.60 L 397.04,252.23 L 397.25,253.95 L 388.99,252.74 L 382.60,254.18 L 383.28,252.92 L 386.50,252.02 L 385.77,250.82 L 382.62,251.18 L 382.15,249.12 L 381.39,251.29 L 382.06,252.46 L 380.67,251.82 L 380.28,248.67 L 381.03,246.70 L 380.36,246.85 L 378.30,248.24 L 376.62,252.69 L 377.00,253.84 L 381.39,256.31 L 381.15,258.76 L 378.87,257.77 L 374.42,259.97 L 373.00,261.57 L 373.65,263.09 L 371.63,264.27 L 369.88,268.64 L 367.48,270.99 L 363.68,269.26 L 362.27,267.50 L 363.04,266.88 L 359.04,264.43 L 360.28,262.31 L 359.81,260.66 L 360.62,260.48 L 359.06,258.75 L 362.81,255.57 L 363.30,252.52 L 358.88,253.51 L 355.25,251.43 L 352.21,251.13 L 350.56,252.33 L 348.81,251.99 L 349.65,252.43 L 348.08,253.92 L 346.23,253.74 L 345.53,254.06 L 346.85,254.14 L 345.53,256.05 L 343.82,256.18 L 342.97,254.93 L 339.34,256.15 L 337.65,257.96 Z M 466.36,113.81 L 464.41,113.52 L 464.68,113.41 L 466.36,113.81 Z M 488.62,125.17 L 486.26,126.11 L 485.08,128.18 L 480.36,128.77 L 480.71,129.49 L 478.73,130.00 L 478.86,130.81 L 476.27,129.97 L 475.58,131.77 L 470.54,130.62 L 465.29,132.94 L 458.82,140.64 L 457.52,146.38 L 440.38,136.53 L 435.69,137.04 L 430.27,140.93 L 427.34,137.05 L 424.54,136.83 L 422.43,138.97 L 422.02,141.52 L 425.12,143.78 L 427.10,143.37 L 432.95,148.26 L 430.62,149.55 L 427.03,149.06 L 426.46,147.86 L 423.96,150.00 L 423.71,152.21 L 421.03,154.11 L 418.97,153.50 L 418.27,151.46 L 420.26,145.58 L 415.71,140.76 L 417.03,135.59 L 420.92,133.38 L 421.90,134.22 L 424.78,130.71 L 422.58,127.57 L 422.84,125.88 L 424.37,125.19 L 428.09,127.79 L 430.68,127.30 L 432.58,128.59 L 435.64,125.99 L 434.61,120.20 L 438.26,116.90 L 438.43,111.92 L 440.13,106.57 L 437.57,97.63 L 438.34,94.90 L 440.45,95.12 L 441.61,93.75 L 454.39,107.38 L 459.50,111.33 L 463.96,113.21 L 462.81,113.31 L 463.38,114.32 L 468.09,114.09 L 468.49,115.69 L 469.58,114.24 L 471.22,116.62 L 471.83,116.83 L 473.52,117.09 L 475.57,117.24 L 482.80,110.92 L 483.16,112.34 L 479.55,119.29 L 483.43,126.18 L 481.80,125.86 L 484.91,127.30 L 485.70,125.73 L 488.62,125.17 Z M 225.15,403.97 L 224.41,405.57 L 221.94,405.01 L 223.71,403.61 L 225.15,403.97 Z M 213.88,402.91 L 213.16,402.84 L 213.36,402.42 L 213.88,402.91 Z M 228.85,404.03 L 227.62,404.34 L 226.88,402.97 L 228.49,402.80 L 229.90,400.80 L 228.85,404.03 Z M 434.94,397.95 L 434.03,398.70 L 434.15,397.83 L 434.94,397.95 Z M 243.42,398.43 L 241.09,398.60 L 241.10,396.38 L 243.42,398.43 Z M 313.23,382.68 L 312.74,382.53 L 313.03,381.90 L 313.23,382.68 Z M 259.50,375.57 L 258.41,374.61 L 259.27,374.33 L 259.50,375.57 Z M 444.51,370.75 L 443.92,369.44 L 444.58,369.74 L 444.51,370.75 Z M 275.74,371.90 L 272.29,373.55 L 273.12,375.48 L 272.01,375.39 L 271.63,377.97 L 269.89,378.79 L 270.74,373.72 L 273.60,371.75 L 272.61,369.84 L 274.77,370.57 L 277.15,367.02 L 278.14,368.33 L 275.74,371.90 Z M 445.39,363.97 L 445.41,364.62 L 444.97,364.61 L 445.39,363.97 Z M 281.46,360.01 L 280.42,359.90 L 280.56,359.23 L 282.51,358.68 L 281.46,360.01 Z M 286.41,354.26 L 285.27,355.28 L 284.85,352.28 L 285.48,351.95 L 286.41,354.26 Z M 290.33,349.42 L 288.78,349.23 L 288.29,347.90 L 290.33,349.42 Z M 298.10,346.42 L 297.11,346.33 L 297.86,345.65 L 298.52,345.21 L 298.10,346.42 Z M 291.50,346.42 L 290.64,348.93 L 287.87,347.02 L 289.37,346.94 L 289.29,345.86 L 293.87,344.24 L 294.22,343.21 L 294.63,343.91 L 291.50,346.42 Z M 295.19,326.55 L 294.79,327.13 L 294.70,326.79 L 295.19,326.55 Z M 297.28,323.90 L 297.19,323.99 L 296.14,323.21 L 297.28,323.90 Z M 305.42,317.65 L 304.00,318.04 L 302.68,315.56 L 304.16,314.48 L 306.27,315.85 L 305.42,317.65 Z M 310.88,312.38 L 309.73,315.88 L 308.63,316.30 L 308.40,314.45 L 310.81,309.02 L 310.88,312.38 Z M 300.49,289.42 L 299.95,290.39 L 299.49,289.18 L 300.49,289.42 Z M 303.79,284.51 L 302.51,286.51 L 300.72,285.61 L 303.79,284.51 Z M 300.60,287.04 L 298.10,289.21 L 297.68,288.31 L 298.92,287.51 L 297.91,287.13 L 298.19,284.19 L 300.08,284.00 L 300.60,287.04 Z M 283.38,283.63 L 281.31,283.00 L 282.03,280.53 L 283.81,280.28 L 284.65,282.13 L 283.38,283.63 Z M 417.03,276.06 L 416.53,276.76 L 415.38,275.39 L 417.03,276.06 Z M 288.32,277.57 L 286.67,279.95 L 286.69,278.66 L 285.89,277.92 L 287.13,277.00 L 287.42,274.90 L 287.29,277.51 L 288.32,277.57 Z M 292.05,273.75 L 291.08,274.73 L 290.24,274.71 L 292.80,271.32 L 292.05,273.75 Z M 325.51,266.07 L 324.49,265.91 L 324.73,265.61 L 325.51,266.07 Z M 294.79,267.11 L 294.02,266.45 L 294.40,264.56 L 295.46,266.00 L 294.79,267.11 Z M 324.65,263.48 L 327.87,263.58 L 326.72,265.00 L 324.65,263.48 Z M 412.77,261.03 L 413.39,261.35 L 412.91,262.12 L 412.77,261.03 Z M 327.70,261.38 L 328.47,260.12 L 329.17,260.93 L 327.70,261.38 Z M 333.71,259.77 L 334.62,258.34 L 334.88,259.41 L 333.71,259.77 Z M 289.44,260.78 L 288.18,261.11 L 288.61,257.84 L 289.88,258.57 L 289.44,260.78 Z M 410.10,256.54 L 409.70,257.94 L 409.53,257.67 L 410.10,256.54 Z M 357.08,257.21 L 357.83,258.71 L 355.06,259.87 L 354.52,257.86 L 358.36,253.75 L 357.08,257.21 Z M 290.47,256.73 L 290.94,257.72 L 288.87,257.46 L 290.01,253.17 L 291.71,252.39 L 290.47,256.73 Z M 411.89,251.57 L 411.94,252.71 L 410.70,252.11 L 410.76,250.98 L 411.89,251.57 Z M 334.80,233.04 L 335.21,233.43 L 334.59,233.43 L 334.80,233.04 Z M 338.18,231.02 L 336.52,230.17 L 337.77,228.31 L 338.68,229.31 L 338.18,231.02 Z M 401.36,202.91 L 400.46,205.37 L 397.12,206.90 L 398.56,204.48 L 397.42,204.31 L 397.35,202.95 L 400.63,199.26 L 399.97,202.97 L 401.36,202.91 Z M 412.60,143.84 L 411.84,144.52 L 411.58,142.51 L 413.08,141.75 L 412.60,143.84 Z M 483.06,122.52 L 482.10,123.06 L 482.69,122.36 L 481.13,121.65 L 483.06,122.52 Z M 472.13,116.83 L 472.06,116.84 L 472.05,116.83 L 472.13,116.83 Z M 433.57,99.86 L 432.13,98.23 L 432.98,97.66 L 434.48,98.79 L 433.57,99.86 Z M 431.43,95.09 L 430.97,97.43 L 430.15,94.52 L 431.43,95.09 Z M 428.96,361.92 L 429.03,361.86 L 429.08,361.94 L 428.96,361.92 Z M 271.81,369.65 L 271.17,369.57 L 271.13,369.34 L 271.81,369.65 Z M 273.79,364.77 L 273.19,365.21 L 273.31,364.99 L 274.02,364.01 L 273.79,364.77 Z M 301.31,314.97 L 299.86,314.17 L 300.59,314.28 L 301.31,314.97 Z M 350.47,256.35 L 348.24,255.64 L 348.40,255.04 L 350.72,254.54 L 350.47,256.35 Z M 436.20,406.04 L 436.21,406.15 L 436.12,406.25 L 436.20,406.04 Z M 586.79,405.03 L 586.84,405.09 L 586.82,405.21 L 586.79,405.03 Z M 433.85,388.43 L 433.85,388.08 L 434.13,388.16 L 433.85,388.43 Z M 314.05,380.79 L 314.13,380.95 L 313.91,381.16 L 314.05,380.79 Z M 264.96,371.27 L 264.98,371.42 L 264.63,371.55 L 264.96,371.27 Z M 279.48,365.05 L 278.85,364.76 L 279.24,364.38 L 279.48,365.05 Z M 444.80,363.03 L 444.88,362.64 L 445.04,362.80 L 444.80,363.03 Z M 444.74,356.37 L 444.79,356.27 L 444.90,356.32 L 444.74,356.37 Z M 443.53,354.69 L 443.57,354.65 L 443.61,354.70 L 443.53,354.69 Z M 277.01,352.78 L 276.99,352.95 L 276.87,352.84 L 277.01,352.78 Z M 293.23,329.15 L 293.43,329.13 L 293.48,329.51 L 293.23,329.15 Z M 292.56,322.67 L 292.79,322.85 L 292.61,322.96 L 292.56,322.67 Z M 296.95,321.75 L 297.06,321.36 L 297.21,321.28 L 296.95,321.75 Z M 422.33,314.14 L 422.43,314.23 L 422.20,314.40 L 422.33,314.14 Z M 291.30,308.91 L 291.34,308.96 L 291.28,309.01 L 291.30,308.91 Z M 297.42,309.42 L 297.00,309.11 L 297.33,308.85 L 297.42,309.42 Z M 419.04,300.15 L 419.06,300.18 L 419.03,300.18 L 419.04,300.15 Z M 419.01,300.13 L 419.03,300.16 L 419.01,300.16 L 419.01,300.13 Z M 415.59,285.11 L 415.79,285.54 L 415.58,285.38 L 415.59,285.11 Z M 410.04,267.79 L 410.07,267.80 L 410.07,267.81 L 410.04,267.79 Z M 413.97,264.77 L 413.47,264.69 L 413.60,264.20 L 413.97,264.77 Z M 410.98,152.59 L 410.58,152.69 L 410.57,152.31 L 410.98,152.59 Z M 586.45,405.07 L 586.30,404.79 L 586.46,404.73 L 586.45,405.07 Z M 240.44,397.55 L 239.66,397.39 L 239.94,396.82 L 240.44,397.55 Z M 266.39,377.62 L 266.30,377.76 L 266.21,377.00 L 266.39,377.62 Z M 443.93,354.71 L 443.87,354.84 L 443.85,354.69 L 443.93,354.71 Z M 296.83,294.79 L 295.99,294.28 L 296.28,293.76 L 297.35,293.95 L 296.83,294.79 Z M 301.32,287.88 L 300.69,288.27 L 300.76,287.80 L 301.32,287.88 Z M 303.58,283.75 L 303.30,284.13 L 302.95,283.31 L 303.58,283.75 Z M 329.09,281.49 L 328.84,281.68 L 328.72,281.25 L 329.09,281.49 Z M 284.70,280.79 L 284.19,280.61 L 284.16,279.78 L 284.70,280.79 Z M 285.45,280.21 L 284.68,279.36 L 285.27,279.55 L 285.45,280.21 Z M 286.40,279.57 L 285.73,279.20 L 285.93,278.38 L 286.40,279.57 Z M 287.65,273.71 L 287.02,273.53 L 287.19,273.19 L 287.65,273.71 Z M 293.05,270.18 L 292.17,270.39 L 292.64,269.90 L 293.05,270.18 Z M 329.86,263.19 L 329.31,263.31 L 329.40,262.95 L 329.86,263.19 Z M 334.80,260.94 L 334.46,260.93 L 334.66,259.90 L 335.38,260.12 L 334.80,260.94 Z M 331.13,260.33 L 330.51,259.89 L 330.76,259.69 L 331.13,260.33 Z M 333.26,259.42 L 332.45,259.52 L 332.41,259.15 L 333.31,258.61 L 333.26,259.42 Z M 326.14,258.79 L 325.45,259.09 L 325.82,258.39 L 326.14,258.79 Z M 342.99,257.23 L 342.72,257.51 L 342.59,257.12 L 342.99,257.23 Z M 361.23,256.00 L 361.42,256.28 L 361.03,256.57 L 361.23,256.00 Z M 347.16,255.36 L 347.55,255.48 L 347.31,255.93 L 347.16,255.36 Z M 381.31,255.30 L 381.00,255.70 L 380.87,255.47 L 381.31,255.30 Z M 380.59,255.12 L 381.32,254.75 L 380.79,255.03 L 380.59,255.12 Z M 380.28,250.03 L 380.18,250.35 L 380.09,250.36 L 380.28,250.03 Z M 381.77,217.24 L 381.26,216.56 L 382.39,216.62 L 382.98,216.43 L 381.77,217.24 Z M 221.13,383.85 L 221.15,383.76 L 221.20,383.85 L 221.13,383.85 Z M 220.27,383.52 L 220.06,383.57 L 220.30,383.35 L 220.27,383.52 Z M 221.99,381.09 L 221.98,381.05 L 222.00,381.07 L 221.99,381.09 Z" fill="#4A90D9" stroke="#1a5fa8" stroke-width="1.2"/>
<path d="M 160.68,274.65 L 159.51,277.56 L 155.82,279.37 L 156.48,277.96 L 155.34,276.91 L 153.42,278.87 L 155.24,276.66 L 157.23,277.77 L 156.50,276.96 L 156.11,275.07 L 152.61,275.35 L 152.61,276.60 L 151.84,277.03 L 150.80,276.46 L 152.24,276.60 L 152.76,274.51 L 155.80,274.02 L 156.85,277.07 L 158.72,277.34 L 159.21,276.46 L 157.80,276.87 L 159.53,274.91 L 156.52,274.29 L 156.10,271.40 L 157.39,273.84 L 159.46,270.82 L 159.62,271.87 L 161.17,272.15 L 159.38,269.22 L 159.37,267.96 L 160.52,267.69 L 161.02,270.72 L 163.13,270.80 L 164.32,272.08 L 162.00,276.46 L 161.77,274.69 L 160.68,274.65 Z" fill="#A8C8E8" stroke="none"/>
<path d="M 329.82,105.56 L 326.68,108.18 L 323.01,105.28 L 323.60,101.44 L 322.37,100.65 L 322.02,98.21 L 323.53,96.79 L 329.11,96.80 L 332.10,99.14 L 329.82,105.56 Z" fill="#A8C8E8" stroke="none"/>
<path d="M 142.52,49.34 L 143.74,47.67 L 142.63,47.37 L 143.00,46.58 L 141.41,44.76 L 145.40,42.08 L 148.55,37.87 L 150.12,37.10 L 149.71,39.39 L 151.20,40.97 L 154.30,40.79 L 153.52,42.30 L 150.95,41.30 L 150.64,43.05 L 145.35,46.66 L 145.45,48.22 L 142.52,49.34 Z" fill="#A8C8E8" stroke="none"/>
<path d="M 184.89,305.55 L 180.36,307.85 L 177.10,305.41 L 176.57,303.04 L 177.97,299.92 L 180.24,298.67 L 181.14,299.07 L 180.40,299.07 L 180.49,300.78 L 182.63,300.17 L 181.31,302.19 L 183.45,303.50 L 181.79,306.12 L 182.63,306.61 L 184.57,304.14 L 184.89,305.55 Z" fill="#A8C8E8" stroke="none"/>
<path d="M 110.82,320.37 L 110.83,320.37 L 110.82,320.37 L 110.82,320.37 Z" fill="#A8C8E8" stroke="none"/>
<path d="M 110.83,320.37 L 110.88,320.34 L 110.87,320.36 L 110.83,320.37 Z" fill="#A8C8E8" stroke="none"/>
<path d="M 138.26,334.59 L 137.27,334.96 L 135.38,333.79 L 136.11,334.86 L 135.18,335.48 L 136.36,337.68 L 135.99,339.21 L 134.74,338.22 L 135.12,337.57 L 134.05,338.58 L 134.71,336.51 L 133.77,338.35 L 133.97,336.37 L 130.89,334.87 L 130.08,333.36 L 131.56,333.04 L 129.42,331.91 L 129.35,333.15 L 128.53,332.84 L 131.00,327.52 L 130.38,325.87 L 131.91,325.00 L 132.89,325.81 L 130.39,330.39 L 132.15,329.93 L 131.14,332.39 L 134.13,332.52 L 133.56,333.95 L 134.38,333.95 L 134.79,331.94 L 135.53,333.05 L 136.36,332.04 L 137.10,333.05 L 137.19,332.14 L 137.93,332.84 L 137.15,333.81 L 138.26,334.59 Z" fill="#A8C8E8" stroke="none"/>
<path d="M 136.04,321.59 L 135.40,322.07 L 133.63,322.10 L 132.47,320.29 L 132.62,319.31 L 133.10,320.47 L 133.39,319.49 L 134.31,320.76 L 135.20,319.98 L 136.04,321.59 Z" fill="#A8C8E8" stroke="none"/>
<path d="M 132.82,322.41 L 130.13,323.30 L 128.85,320.69 L 131.43,321.65 L 131.35,320.10 L 132.82,322.41 Z" fill="#A8C8E8" stroke="none"/>
<path d="M 109.56,318.58 L 110.54,318.07 L 110.05,317.07 L 112.15,317.03 L 110.65,316.32 L 111.87,315.86 L 113.18,316.97 L 113.43,320.18 L 112.53,318.78 L 112.05,319.38 L 112.20,317.98 L 111.27,317.94 L 110.88,320.34 L 110.75,318.81 L 109.97,319.78 L 109.56,318.58 Z" fill="#A8C8E8" stroke="none"/>
<path d="M 170.47,281.15 L 168.49,280.87 L 167.89,282.22 L 166.30,279.07 L 167.12,279.57 L 167.50,278.66 L 168.48,279.52 L 169.18,279.16 L 168.45,277.36 L 169.69,277.00 L 169.35,275.70 L 168.11,274.85 L 168.11,276.06 L 166.67,277.06 L 164.81,276.76 L 163.83,275.86 L 166.39,276.66 L 168.70,274.00 L 169.93,276.46 L 169.87,277.06 L 169.43,277.47 L 170.43,277.31 L 170.47,281.15 Z" fill="#A8C8E8" stroke="none"/>
<path d="M 134.38,319.98 L 133.22,318.07 L 134.13,317.37 L 134.88,318.78 L 136.19,317.88 L 136.28,319.94 L 134.38,319.98 Z" fill="#A8C8E8" stroke="none"/>
<path d="M 147.85,60.45 L 151.30,57.74 L 152.14,60.10 L 148.57,62.35 L 147.85,60.45 Z" fill="#A8C8E8" stroke="none"/>
<path d="M 162.00,298.78 L 165.02,298.38 L 165.35,299.94 L 163.62,300.78 L 162.00,298.78 Z" fill="#A8C8E8" stroke="none"/>
<path d="M 153.18,299.38 L 150.93,298.01 L 148.28,300.25 L 145.35,298.27 L 145.16,296.98 L 146.02,296.11 L 147.40,298.04 L 149.85,296.95 L 153.18,299.38 Z" fill="#A8C8E8" stroke="none"/>
<path d="M 114.98,317.56 L 114.25,316.76 L 114.91,318.28 L 113.40,317.81 L 114.59,316.06 L 115.85,316.75 L 114.98,317.56 Z" fill="#A8C8E8" stroke="none"/>
<path d="M 113.68,312.14 L 113.14,310.83 L 114.25,309.84 L 115.25,311.73 L 113.71,312.41 L 112.44,311.54 L 113.68,312.14 Z" fill="#A8C8E8" stroke="none"/>
<path d="M 144.11,255.74 L 143.10,251.85 L 143.31,251.58 L 145.63,253.47 L 144.11,255.74 Z" fill="#A8C8E8" stroke="none"/>
<path d="M 112.63,316.23 L 111.20,315.15 L 112.36,314.95 L 112.68,316.06 L 113.51,314.95 L 112.85,313.85 L 114.53,313.87 L 114.68,315.25 L 114.09,314.75 L 112.63,316.23 Z" fill="#A8C8E8" stroke="none"/>
<path d="M 108.00,322.05 L 108.66,322.90 L 107.54,322.51 L 107.40,319.68 L 108.73,319.29 L 108.32,320.18 L 109.12,320.85 L 108.00,322.05 Z" fill="#A8C8E8" stroke="none"/>
<path d="M 107.51,323.53 L 106.25,321.69 L 105.19,323.30 L 105.76,322.39 L 104.69,321.39 L 106.76,320.82 L 107.51,323.53 Z" fill="#A8C8E8" stroke="none"/>
<path d="M 373.41,243.84 L 369.94,246.20 L 368.98,248.15 L 369.61,245.27 L 371.26,243.29 L 371.22,241.34 L 372.50,240.74 L 373.41,243.84 Z" fill="#A8C8E8" stroke="none"/>
<path d="M 427.76,4.15 L 426.27,3.75 L 423.49,5.13 L 421.73,4.47 L 420.46,5.56 L 419.68,4.96 L 420.39,3.69 L 416.77,4.79 L 419.47,2.11 L 418.93,3.44 L 420.38,3.49 L 420.75,2.35 L 422.71,1.68 L 422.75,0.00 L 423.42,0.00 L 423.65,0.62 L 426.36,0.82 L 423.50,0.99 L 422.73,2.13 L 421.00,2.47 L 421.29,3.24 L 423.61,4.21 L 427.43,3.54 L 427.76,4.15 Z" fill="#A8C8E8" stroke="none"/>
<path d="M 388.09,22.70 L 387.01,23.33 L 387.27,25.31 L 386.71,24.01 L 384.09,23.35 L 384.01,25.09 L 381.23,26.36 L 379.58,30.08 L 380.20,31.49 L 378.74,29.81 L 376.74,29.97 L 372.95,33.45 L 372.13,33.86 L 371.34,33.70 L 373.65,32.30 L 372.66,31.23 L 373.41,30.57 L 372.50,30.28 L 374.34,30.09 L 375.37,28.62 L 379.22,29.61 L 380.74,25.45 L 383.34,23.39 L 382.57,23.25 L 383.24,21.34 L 384.16,23.10 L 388.09,22.70 Z M 383.37,23.79 L 381.27,25.66 L 382.48,25.43 L 383.37,23.79 Z" fill="#A8C8E8" stroke="none"/>
<path d="M 163.83,326.77 L 163.76,326.80 L 163.66,326.82 L 163.83,326.77 Z" fill="#A8C8E8" stroke="none"/>
<path d="M 172.99,297.57 L 171.78,299.17 L 171.74,297.41 L 172.99,297.57 Z" fill="#A8C8E8" stroke="none"/>
<path d="M 175.93,298.72 L 174.49,299.67 L 175.37,296.61 L 176.08,296.73 L 175.93,298.72 Z" fill="#A8C8E8" stroke="none"/>
<path d="M 120.27,319.78 L 119.26,320.37 L 116.32,319.78 L 120.27,319.78 Z" fill="#A8C8E8" stroke="none"/>
<path d="M 376.62,0.33 L 376.20,0.00 L 377.26,0.00 L 376.62,0.33 Z" fill="#A8C8E8" stroke="none"/>
<path d="M 231.15,97.91 L 230.68,98.60 L 228.96,98.57 L 228.04,96.72 L 226.92,96.62 L 228.21,96.33 L 231.15,97.91 Z" fill="#A8C8E8" stroke="none"/>
<path d="M 165.30,305.72 L 163.76,304.92 L 164.81,305.11 L 165.61,304.22 L 165.30,305.72 Z" fill="#A8C8E8" stroke="none"/>
<path d="M 188.18,300.93 L 185.51,301.49 L 187.15,299.59 L 188.18,300.93 Z" fill="#A8C8E8" stroke="none"/>
<path d="M 133.01,341.58 L 133.57,341.57 L 133.72,342.50 L 134.38,342.10 L 135.20,343.81 L 133.89,342.91 L 133.63,344.72 L 133.01,341.58 Z" fill="#A8C8E8" stroke="none"/>
<path d="M 130.92,342.63 L 132.57,342.30 L 131.58,343.16 L 132.64,344.81 L 130.94,344.06 L 130.92,342.63 Z" fill="#A8C8E8" stroke="none"/>
<path d="M 110.88,313.66 L 110.23,313.18 L 109.88,314.46 L 109.42,313.23 L 110.44,312.60 L 110.88,313.66 Z" fill="#A8C8E8" stroke="none"/>
<path d="M 106.97,318.04 L 108.22,316.61 L 108.73,318.18 L 106.97,318.04 Z" fill="#A8C8E8" stroke="none"/>
<path d="M 131.40,233.03 L 131.91,231.63 L 132.59,234.50 L 130.97,234.15 L 131.40,233.03 Z" fill="#A8C8E8" stroke="none"/>
<path d="M 376.50,7.72 L 375.46,5.46 L 376.59,4.77 L 377.56,6.04 L 376.50,7.72 Z" fill="#A8C8E8" stroke="none"/>
<path d="M 156.38,262.41 L 155.24,261.38 L 155.66,260.67 L 156.73,261.08 L 156.38,262.41 Z" fill="#A8C8E8" stroke="none"/>
<path d="M 141.30,286.41 L 139.62,288.92 L 140.36,284.95 L 139.00,285.20 L 140.10,284.18 L 141.30,286.41 Z" fill="#A8C8E8" stroke="none"/>
<path d="M 133.56,287.61 L 134.83,286.56 L 133.72,289.42 L 133.56,287.61 Z" fill="#A8C8E8" stroke="none"/>
<path d="M 139.59,317.55 L 137.43,317.98 L 136.22,316.94 L 139.53,316.76 L 139.59,317.55 Z" fill="#A8C8E8" stroke="none"/>
<path d="M 143.61,315.66 L 141.53,316.76 L 141.56,315.60 L 143.29,314.65 L 143.61,315.66 Z" fill="#A8C8E8" stroke="none"/>
<path d="M 116.98,317.57 L 117.01,317.58 L 117.06,317.67 L 116.98,317.57 Z" fill="#A8C8E8" stroke="none"/>
<path d="M 117.67,317.22 L 117.56,315.76 L 118.02,317.58 L 116.94,317.50 L 117.67,317.22 Z" fill="#A8C8E8" stroke="none"/>
<path d="M 113.40,317.81 L 113.43,317.88 L 113.34,317.77 L 113.40,317.81 Z" fill="#A8C8E8" stroke="none"/>
<path d="M 110.46,315.66 L 109.23,315.76 L 109.38,314.35 L 110.46,314.56 L 110.46,315.66 Z" fill="#A8C8E8" stroke="none"/>
<path d="M 109.35,313.98 L 109.31,314.05 L 109.31,313.94 L 109.35,313.98 Z" fill="#A8C8E8" stroke="none"/>
<path d="M 112.68,311.94 L 112.74,312.01 L 112.77,312.05 L 112.68,311.94 Z" fill="#A8C8E8" stroke="none"/>
<path d="M 111.11,308.93 L 112.68,309.22 L 111.81,309.66 L 112.68,310.14 L 111.46,310.66 L 111.11,308.93 Z" fill="#A8C8E8" stroke="none"/>
<path d="M 108.04,276.79 L 108.53,276.31 L 108.81,277.98 L 108.04,276.79 Z" fill="#A8C8E8" stroke="none"/>
<path d="M 136.55,127.37 L 135.29,127.30 L 137.68,124.97 L 138.82,126.26 L 136.55,127.37 Z" fill="#A8C8E8" stroke="none"/>
<path d="M 106.92,318.29 L 106.91,318.34 L 106.91,318.28 L 106.92,318.29 Z" fill="#A8C8E8" stroke="none"/>
<path d="M 133.47,20.95 L 133.47,21.03 L 133.47,20.94 L 133.47,20.95 Z" fill="#A8C8E8" stroke="none"/>
<path d="M 133.48,20.79 L 134.30,20.94 L 134.10,21.09 L 133.48,20.79 Z" fill="#A8C8E8" stroke="none"/>
<path d="M 124.72,35.76 L 123.74,34.80 L 124.80,34.13 L 124.72,35.76 Z" fill="#A8C8E8" stroke="none"/>
<path d="M 127.73,35.08 L 127.85,35.27 L 127.27,35.28 L 127.73,35.08 Z" fill="#A8C8E8" stroke="none"/>
<path d="M 130.80,37.24 L 130.59,37.01 L 131.58,37.01 L 130.80,37.24 Z" fill="#A8C8E8" stroke="none"/>
<path d="M 144.52,65.61 L 144.76,64.88 L 145.04,65.40 L 144.52,65.61 Z" fill="#A8C8E8" stroke="none"/>
<path d="M 148.67,66.94 L 148.95,67.34 L 148.68,67.52 L 148.67,66.94 Z" fill="#A8C8E8" stroke="none"/>
<path d="M 230.38,83.67 L 231.05,84.06 L 230.88,84.63 L 230.02,84.46 L 230.38,83.67 Z" fill="#A8C8E8" stroke="none"/>
<path d="M 228.78,96.32 L 229.19,95.65 L 229.48,96.12 L 228.78,96.32 Z" fill="#A8C8E8" stroke="none"/>
<path d="M 149.18,94.16 L 147.82,95.42 L 145.53,94.62 L 149.10,92.98 L 149.18,94.16 Z" fill="#A8C8E8" stroke="none"/>
<path d="M 260.90,123.16 L 260.75,121.59 L 258.65,121.85 L 259.10,120.55 L 258.45,121.19 L 258.18,120.18 L 260.25,119.44 L 259.46,120.70 L 261.31,121.60 L 260.90,123.16 Z" fill="#A8C8E8" stroke="none"/>
<path d="M 226.43,90.90 L 223.71,90.99 L 224.52,90.45 L 226.43,90.90 Z" fill="#A8C8E8" stroke="none"/>
<path d="M 114.33,410.85 L 112.60,412.56 L 113.14,413.30 L 110.27,413.10 L 112.00,412.21 L 111.37,411.05 L 111.11,411.86 L 109.88,411.76 L 111.92,410.39 L 111.86,408.05 L 112.91,409.16 L 111.70,411.03 L 112.40,411.81 L 114.33,410.85 Z" fill="#A8C8E8" stroke="none"/>
<path d="M 168.11,328.72 L 165.63,328.22 L 161.93,330.10 L 161.26,329.84 L 164.85,327.47 L 162.34,325.30 L 165.28,326.89 L 166.54,326.12 L 166.22,325.40 L 166.79,325.71 L 166.70,324.58 L 167.39,324.13 L 166.91,325.07 L 167.94,325.30 L 166.22,326.92 L 168.11,328.72 Z" fill="#A8C8E8" stroke="none"/>
<path d="M 127.20,168.49 L 126.73,169.52 L 125.07,170.24 L 124.57,171.32 L 124.61,170.21 L 127.20,168.49 Z" fill="#A8C8E8" stroke="none"/>
<path d="M 146.38,193.62 L 145.60,193.93 L 145.68,192.92 L 146.52,192.82 L 146.38,193.62 Z" fill="#A8C8E8" stroke="none"/>
<path d="M 242.34,164.78 L 241.60,165.58 L 238.30,166.99 L 238.75,168.04 L 237.48,168.00 L 238.30,167.79 L 236.91,166.58 L 237.89,167.10 L 242.34,164.78 Z" fill="#A8C8E8" stroke="none"/>
</svg>