<svg xmlns="http://www.w3.org/2000/svg" width="800" height="500" viewBox="0 0 800 500">
<rect width="800" height="500" fill="#A8C8E8"/>
<path d="M 780.39,96.21 L 752.83,99.83 L 727.22,106.07 L 709.23,117.19 L 663.63,120.74 L 646.93,128.55 L 604.83,128.76 L 579.85,117.75 L 522.58,131.19 L 501.05,146.13 L 438.77,138.16 L 413.30,139.39 L 345.34,114.99 L 284.38,112.64 L 278.07,110.56 L 266.25,99.42 L 269.54,84.49 L 248.59,80.86 L 237.21,82.69 L 235.62,78.25 L 225.40,74.69 L 217.63,66.94 L 200.68,40.49 L 189.49,38.30 L 188.17,33.89 L 174.22,30.99 L 168.01,24.96 L 158.76,22.29 L 157.07,17.15 L 138.89,9.19 L 97.74,4.66 L 93.45,0.82 L 94.85,0.00 L 800.00,0.00 L 800.00,96.65 L 780.39,96.21 Z" fill="#C8D8E8" stroke="#8BAABB" stroke-width="0.8"/>
<path d="M 760.99,229.77 L 655.44,287.86 L 654.24,284.47 L 650.03,294.62 L 646.50,293.31 L 646.97,296.31 L 628.11,310.28 L 627.34,306.31 L 593.36,283.71 L 593.36,164.20 L 616.07,152.63 L 652.41,124.65 L 661.47,121.30 L 709.23,117.19 L 727.22,106.07 L 778.09,96.49 L 800.00,96.87 L 800.00,212.78 L 760.99,229.77 Z" fill="#C8D8E8" stroke="#8BAABB" stroke-width="0.8"/>
<path d="M 265.49,104.99 L 263.05,107.95 L 257.43,106.96 L 251.90,101.79 L 254.94,97.81 L 244.01,97.10 L 244.98,93.75 L 234.60,95.32 L 180.51,106.96 L 124.79,134.97 L 104.38,134.55 L 93.92,130.60 L 78.85,134.35 L 54.79,135.58 L 43.27,139.18 L 42.04,142.62 L 27.15,139.85 L 17.63,132.83 L 1.73,137.99 L 0.00,137.69 L 0.00,0.00 L 94.85,0.00 L 93.45,0.82 L 97.74,4.66 L 138.89,9.19 L 157.07,17.15 L 158.76,22.29 L 168.01,24.96 L 174.22,30.99 L 188.17,33.89 L 189.49,38.30 L 200.68,40.49 L 217.63,66.94 L 225.40,74.69 L 235.62,78.25 L 237.21,82.69 L 248.59,80.86 L 269.54,84.49 L 266.25,99.42 L 276.84,106.98 L 265.49,104.99 Z" fill="#C8D8E8" stroke="#8BAABB" stroke-width="0.8"/>
<path d="M 156.66,287.95 L 384.71,353.73 L 388.16,362.37 L 380.98,365.54 L 381.84,368.78 L 388.68,369.22 L 392.60,373.35 L 482.95,406.61 L 482.85,412.01 L 476.29,413.95 L 474.78,418.17 L 478.42,419.72 L 455.67,450.59 L 464.18,462.88 L 472.05,463.96 L 487.01,472.23 L 487.03,475.56 L 498.56,476.43 L 504.14,481.04 L 503.75,484.82 L 490.00,490.97 L 487.44,500.00 L 0.00,500.00 L 0.00,287.53 L 156.66,287.95 Z M 501.31,463.72 L 495.55,458.52 L 494.74,460.85 L 481.92,455.93 L 481.41,446.06 L 487.01,443.73 L 489.11,439.76 L 495.55,455.00 L 500.84,455.14 L 500.69,452.81 L 503.50,459.16 L 501.31,463.72 Z M 511.01,425.88 L 518.35,424.34 L 515.56,424.36 L 510.16,422.77 L 516.17,423.24 L 512.29,413.10 L 520.89,416.43 L 523.05,413.32 L 519.30,429.73 L 509.73,429.96 L 511.01,425.88 Z M 484.38,444.19 L 482.91,444.25 L 482.91,441.66 L 484.38,444.19 Z M 510.30,431.15 L 510.78,431.95 L 507.99,431.56 L 505.50,429.33 L 510.30,431.15 Z" fill="#C8D8E8" stroke="#8BAABB" stroke-width="0.8"/>
<path d="M 1.73,137.99 L 17.63,132.83 L 27.15,139.85 L 42.04,142.62 L 43.27,139.18 L 54.79,135.58 L 78.85,134.35 L 93.92,130.60 L 104.38,134.55 L 124.79,134.97 L 157.04,120.30 L 161.96,130.87 L 169.48,130.96 L 166.20,134.14 L 184.17,137.61 L 180.52,143.76 L 183.81,153.25 L 211.44,172.27 L 214.44,175.93 L 210.82,180.11 L 219.63,193.98 L 217.52,202.43 L 205.40,210.98 L 206.58,216.02 L 187.13,220.83 L 180.94,229.42 L 166.02,236.25 L 161.99,244.51 L 150.00,252.14 L 153.75,260.65 L 150.67,287.95 L 0.00,287.54 L 0.00,137.60 L 1.73,137.99 Z" fill="#C8D8E8" stroke="#8BAABB" stroke-width="0.8"/>
<path d="M 265.49,104.99 L 276.84,106.98 L 284.38,112.64 L 345.34,114.99 L 413.30,139.39 L 438.77,138.16 L 501.05,146.13 L 522.58,131.19 L 579.85,117.75 L 604.83,128.76 L 650.00,127.65 L 616.07,152.63 L 592.46,165.09 L 593.36,283.71 L 627.34,306.31 L 628.11,310.28 L 612.32,319.05 L 608.33,317.56 L 595.44,321.43 L 595.01,316.90 L 591.21,322.42 L 585.93,318.88 L 593.33,327.85 L 591.18,330.02 L 586.06,327.51 L 580.48,329.05 L 583.17,332.87 L 572.76,337.42 L 562.77,337.07 L 546.58,341.60 L 542.23,350.13 L 546.63,351.67 L 539.75,360.86 L 531.38,364.26 L 529.94,362.59 L 523.67,372.09 L 518.35,370.49 L 523.74,374.62 L 518.70,381.77 L 512.27,381.77 L 516.12,383.43 L 513.26,386.00 L 510.82,383.50 L 504.57,385.72 L 511.15,388.05 L 494.28,404.69 L 488.29,403.59 L 481.42,406.25 L 392.60,373.35 L 388.68,369.22 L 381.84,368.78 L 380.98,365.54 L 388.16,362.37 L 384.71,353.73 L 150.67,287.95 L 153.75,260.65 L 150.00,252.14 L 161.99,244.51 L 166.02,236.25 L 180.94,229.42 L 187.13,220.83 L 206.58,216.02 L 205.40,210.98 L 217.52,202.43 L 219.63,193.98 L 210.82,180.11 L 214.44,175.93 L 211.44,172.27 L 183.81,153.25 L 180.52,143.76 L 184.17,137.61 L 166.20,134.14 L 169.48,130.96 L 161.96,130.87 L 155.22,119.85 L 180.51,106.96 L 244.98,93.75 L 244.01,97.10 L 254.94,97.81 L 251.90,101.79 L 257.43,106.96 L 265.49,104.99 Z M 604.34,323.67 L 594.23,326.41 L 592.70,323.92 L 598.00,321.66 L 604.34,323.67 Z" fill="#4A90D9" stroke="#1a5fa8" stroke-width="1.2"/>
<path d="M 135.01,303.02 L 136.72,305.09 L 132.41,306.10 L 138.43,309.12 L 128.08,309.61 L 134.21,312.82 L 116.94,313.76 L 111.80,317.56 L 122.98,316.24 L 128.54,320.99 L 111.71,320.07 L 107.09,323.76 L 131.99,325.95 L 140.97,322.82 L 146.55,327.16 L 119.59,335.10 L 120.84,337.86 L 107.09,336.57 L 99.13,332.58 L 86.25,335.42 L 86.55,342.74 L 95.56,348.47 L 87.78,345.81 L 78.80,352.64 L 81.37,349.35 L 76.60,348.05 L 84.54,346.60 L 86.14,343.52 L 81.37,340.50 L 83.93,336.54 L 73.66,336.74 L 72.79,332.31 L 62.94,337.64 L 65.98,334.09 L 54.76,333.97 L 54.12,330.65 L 45.22,328.14 L 41.50,332.56 L 35.68,332.48 L 41.33,337.79 L 33.38,335.21 L 27.41,339.19 L 32.49,344.53 L 25.24,340.50 L 17.94,346.29 L 17.36,341.12 L 22.66,339.40 L 16.18,340.02 L 13.98,337.41 L 18.79,334.96 L 16.21,330.57 L 8.61,331.53 L 13.19,320.21 L 7.28,320.18 L 23.64,288.66 L 20.52,287.35 L 17.04,289.40 L 17.08,283.49 L 12.70,281.41 L 21.94,270.86 L 33.86,266.17 L 26.51,260.00 L 35.90,258.88 L 32.53,257.12 L 43.31,257.88 L 44.43,257.03 L 43.64,255.24 L 44.54,254.48 L 49.66,256.24 L 47.52,254.03 L 55.24,256.46 L 54.39,252.93 L 59.53,251.85 L 58.90,254.60 L 66.40,254.26 L 71.91,246.31 L 72.90,250.15 L 77.93,250.09 L 73.23,252.73 L 87.40,249.38 L 87.91,253.20 L 93.24,252.43 L 99.85,249.69 L 98.54,247.21 L 102.00,248.69 L 110.97,243.67 L 105.81,241.90 L 116.99,239.68 L 113.97,244.35 L 123.44,244.35 L 125.06,246.98 L 119.13,246.10 L 124.27,249.63 L 129.54,249.76 L 134.27,245.27 L 140.95,245.40 L 138.43,249.19 L 143.51,248.07 L 145.26,250.73 L 155.52,247.13 L 156.41,256.98 L 160.72,259.12 L 165.10,257.77 L 162.54,261.11 L 172.25,263.80 L 174.68,268.44 L 180.87,264.85 L 178.27,261.76 L 202.75,258.44 L 209.08,265.63 L 184.73,266.83 L 188.29,270.74 L 183.19,272.58 L 180.81,269.99 L 168.49,269.27 L 160.26,273.66 L 159.00,279.19 L 168.12,283.72 L 148.73,296.11 L 152.52,296.82 L 155.76,299.78 L 143.68,298.63 L 151.25,305.00 L 135.01,303.02 Z M 164.14,269.45 L 166.74,269.71 L 169.43,268.79 L 170.59,267.27 L 164.14,269.45 Z M 157.73,271.93 L 160.53,270.95 L 158.56,269.60 L 153.31,270.62 L 157.73,271.93 Z M 19.68,314.25 L 22.09,312.98 L 21.85,312.11 L 19.68,314.25 Z M 20.56,324.26 L 17.50,322.63 L 16.77,323.96 L 20.56,324.26 Z M 25.75,330.42 L 19.68,325.95 L 17.93,330.39 L 22.03,334.69 L 25.75,330.42 Z M 27.78,309.19 L 24.80,307.54 L 22.66,307.87 L 22.66,311.85 L 27.78,309.19 Z M 33.14,327.58 L 28.68,331.24 L 33.88,331.36 L 33.14,327.58 Z M 49.66,265.29 L 41.92,266.17 L 42.31,263.40 L 34.67,263.97 L 47.04,268.45 L 42.20,269.70 L 40.17,273.01 L 49.24,270.81 L 49.66,265.29 Z M 54.67,264.37 L 52.05,262.25 L 50.08,262.21 L 54.67,264.37 Z M 57.39,267.27 L 54.63,266.44 L 53.84,267.75 L 57.39,267.27 Z M 58.67,328.61 L 59.13,333.46 L 63.23,332.83 L 64.76,330.57 L 58.67,328.61 Z M 63.07,268.04 L 59.94,269.47 L 59.59,271.84 L 63.07,268.04 Z M 79.26,257.36 L 82.26,255.06 L 80.91,254.48 L 79.26,257.36 Z M 77.49,256.90 L 78.80,258.44 L 72.79,258.88 L 81.82,259.11 L 77.49,256.90 Z M 95.56,316.46 L 99.77,315.20 L 99.83,313.61 L 94.45,313.79 L 95.56,316.46 Z M 100.68,318.99 L 83.14,317.78 L 87.78,319.33 L 84.91,322.38 L 105.78,324.31 L 100.68,318.99 Z M 104.47,250.95 L 104.95,252.26 L 105.41,251.90 L 104.47,250.95 Z M 112.26,253.63 L 109.76,254.08 L 110.12,255.34 L 112.26,253.63 Z M 109.02,246.10 L 110.49,249.52 L 107.09,249.63 L 115.32,253.11 L 114.01,248.89 L 118.30,247.59 L 109.02,246.10 Z M 139.08,258.88 L 135.01,260.20 L 138.86,261.10 L 139.08,258.88 Z M 149.11,253.63 L 149.32,253.15 L 143.28,251.95 L 149.11,253.63 Z" fill="#A8C8E8" stroke="none"/>
<path d="M 104.14,203.10 L 103.84,203.20 L 103.77,203.16 L 104.14,203.10 Z" fill="#A8C8E8" stroke="none"/>
<path d="M 100.05,207.17 L 111.38,207.85 L 103.68,210.17 L 106.79,211.22 L 114.89,209.85 L 110.97,216.54 L 87.80,209.28 L 83.93,210.17 L 86.55,213.91 L 83.53,210.57 L 76.84,210.64 L 80.10,213.66 L 65.15,208.98 L 65.54,206.63 L 74.12,207.71 L 82.24,204.18 L 82.24,206.17 L 93.00,206.17 L 100.82,202.57 L 109.83,201.21 L 111.21,203.10 L 121.49,198.58 L 124.62,202.28 L 100.05,207.17 Z M 78.54,209.10 L 76.25,208.61 L 78.52,209.61 L 85.67,209.26 L 78.54,209.10 Z" fill="#A8C8E8" stroke="none"/>
<path d="M 26.31,499.26 L 26.66,499.26 L 26.62,499.27 L 26.31,499.26 Z M 30.30,500.00 L 25.88,500.00 L 28.96,499.34 L 30.30,500.00 Z" fill="#A8C8E8" stroke="none"/>
<path d="M 265.46,371.38 L 273.17,365.26 L 273.36,374.14 L 265.46,376.76 L 265.46,371.38 Z" fill="#A8C8E8" stroke="none"/>
<path d="M 374.23,371.42 L 371.98,377.46 L 365.02,372.81 L 374.23,371.42 Z" fill="#A8C8E8" stroke="none"/>
<path d="M 51.80,202.86 L 61.26,205.73 L 46.23,201.98 L 67.25,201.72 L 79.75,195.80 L 88.26,196.92 L 95.54,193.66 L 91.25,196.22 L 94.95,196.97 L 93.42,200.45 L 82.66,196.68 L 81.36,199.93 L 65.33,203.36 L 51.80,202.86 Z" fill="#A8C8E8" stroke="none"/>
<path d="M 692.91,257.15 L 675.32,253.89 L 676.92,251.18 L 691.99,254.66 L 692.91,257.15 Z" fill="#A8C8E8" stroke="none"/>
<path d="M 394.38,280.90 L 395.21,281.39 L 391.82,282.03 L 390.51,280.96 L 394.38,280.90 Z" fill="#A8C8E8" stroke="none"/>
<path d="M 385.56,282.76 L 371.34,286.02 L 362.66,281.16 L 375.94,284.04 L 384.05,282.20 L 383.24,279.62 L 385.56,282.76 Z" fill="#A8C8E8" stroke="none"/>
<path d="M 325.74,175.64 L 316.71,178.60 L 305.61,164.06 L 297.26,159.73 L 289.71,159.51 L 291.06,152.25 L 278.53,148.18 L 278.04,141.70 L 276.67,143.62 L 271.37,135.94 L 281.06,106.47 L 283.80,110.01 L 284.50,106.42 L 293.47,106.81 L 297.10,122.25 L 293.16,128.14 L 298.42,134.85 L 295.72,148.74 L 306.86,158.77 L 324.91,162.94 L 325.74,175.64 Z" fill="#A8C8E8" stroke="none"/>
<path d="M 415.61,43.40 L 414.58,48.05 L 397.55,60.93 L 387.23,62.21 L 388.61,58.77 L 399.15,56.15 L 398.93,46.08 L 406.92,42.69 L 415.61,43.40 Z" fill="#A8C8E8" stroke="none"/>
<path d="M 342.39,106.33 L 327.62,111.59 L 331.85,100.17 L 336.92,101.80 L 343.34,98.37 L 342.39,106.33 Z" fill="#A8C8E8" stroke="none"/>
<path d="M 388.47,69.49 L 379.11,72.02 L 382.59,65.22 L 388.15,63.96 L 388.47,69.49 Z" fill="#A8C8E8" stroke="none"/>
<path d="M 207.05,375.15 L 202.54,374.61 L 207.75,372.10 L 219.89,371.08 L 238.16,363.60 L 240.43,366.68 L 231.40,372.99 L 203.92,377.29 L 207.05,375.15 Z" fill="#A8C8E8" stroke="none"/>
<path d="M 279.58,326.42 L 283.19,323.55 L 289.18,328.66 L 284.15,337.38 L 278.33,338.83 L 281.79,335.97 L 279.58,326.42 Z" fill="#A8C8E8" stroke="none"/>
</svg>