<svg xmlns="http://www.w3.org/2000/svg" width="800" height="500" viewBox="0 0 800 500">
<rect width="800" height="500" fill="#A8C8E8"/>
<path d="M 206.52,437.56 L 215.36,420.35 L 228.35,416.27 L 246.86,429.67 L 242.89,446.81 L 198.51,446.81 L 206.52,437.56 Z" fill="#E8E0D0" stroke="#B8B0A0" stroke-width="0.5"/>
<path d="M 30.45,446.81 L 0.00,446.81 L 0.00,429.59 L 30.45,446.81 Z" fill="#E8E0D0" stroke="#B8B0A0" stroke-width="0.5"/>
<path d="M 402.82,439.92 L 404.86,417.35 L 382.07,404.55 L 372.49,404.40 L 368.20,413.00 L 358.55,409.41 L 352.39,392.11 L 358.99,385.83 L 349.07,371.91 L 350.20,357.35 L 359.54,355.70 L 363.33,349.27 L 358.65,336.95 L 365.83,321.39 L 382.06,318.37 L 398.96,304.02 L 406.06,304.32 L 402.66,298.61 L 404.84,293.12 L 421.13,297.37 L 437.76,285.80 L 443.30,306.41 L 468.85,297.38 L 472.00,303.29 L 485.45,287.96 L 487.19,277.83 L 496.88,262.82 L 552.03,261.23 L 564.50,247.29 L 564.98,240.81 L 578.54,231.46 L 628.02,210.48 L 632.36,203.10 L 650.00,201.18 L 651.69,188.84 L 646.03,164.26 L 650.77,153.91 L 664.42,150.15 L 656.22,141.08 L 675.54,133.78 L 668.70,123.10 L 671.88,115.08 L 654.89,75.06 L 655.42,53.19 L 800.00,53.19 L 800.00,446.81 L 405.69,446.81 L 402.82,439.92 Z" fill="#C8D8E8" stroke="#8BAABB" stroke-width="0.8"/>
<path d="M 654.89,75.06 L 671.88,115.08 L 668.70,123.10 L 675.54,133.78 L 656.22,141.08 L 664.42,150.15 L 649.83,155.43 L 645.86,165.58 L 650.81,190.83 L 635.77,177.57 L 613.40,174.84 L 600.80,155.43 L 518.10,148.99 L 501.23,143.50 L 476.57,149.72 L 448.54,146.66 L 440.51,154.57 L 420.44,151.89 L 375.01,127.00 L 376.61,130.56 L 365.31,129.70 L 362.42,134.89 L 347.40,140.88 L 340.21,165.32 L 344.40,178.87 L 269.10,152.83 L 241.74,158.08 L 237.07,166.81 L 230.73,169.17 L 233.50,174.80 L 228.86,174.93 L 223.89,184.72 L 228.21,188.22 L 218.51,191.29 L 212.88,201.56 L 201.41,199.45 L 181.17,220.56 L 168.10,223.25 L 157.61,230.70 L 158.00,234.94 L 141.36,241.03 L 141.14,251.01 L 120.22,268.84 L 122.19,287.23 L 115.26,288.71 L 93.87,275.03 L 100.25,261.83 L 95.85,261.04 L 91.44,251.52 L 36.72,254.07 L 26.32,203.61 L 3.81,203.05 L 8.02,143.39 L 0.00,147.33 L 0.00,53.19 L 655.42,53.19 L 654.89,75.06 Z" fill="#C8D8E8" stroke="#8BAABB" stroke-width="0.8"/>
<path d="M 213.17,264.01 L 214.46,267.54 L 210.66,263.95 L 213.17,264.01 Z M 215.41,317.74 L 206.84,330.01 L 209.03,321.99 L 185.36,311.42 L 163.25,316.47 L 162.51,328.71 L 158.14,330.30 L 153.98,324.82 L 150.66,334.36 L 152.72,351.83 L 184.19,352.15 L 194.27,347.01 L 195.30,353.08 L 206.84,348.12 L 213.42,350.39 L 220.14,361.35 L 229.55,360.58 L 234.94,353.49 L 251.47,347.46 L 253.89,356.72 L 264.22,357.35 L 264.72,367.87 L 278.28,362.15 L 286.42,373.00 L 290.39,364.57 L 299.60,361.74 L 329.08,362.97 L 348.91,356.67 L 349.07,371.91 L 358.99,385.83 L 352.39,392.11 L 358.55,409.41 L 368.20,413.00 L 372.49,404.40 L 382.07,404.55 L 404.73,416.84 L 402.82,439.92 L 405.69,446.81 L 242.89,446.81 L 246.86,429.67 L 228.35,416.27 L 215.36,420.35 L 206.52,437.56 L 198.51,446.81 L 105.93,446.81 L 110.47,432.00 L 96.79,412.45 L 97.32,397.24 L 102.12,393.78 L 98.87,385.69 L 80.22,385.06 L 79.18,376.48 L 64.76,371.16 L 71.01,351.94 L 81.45,346.78 L 117.79,351.31 L 122.73,333.11 L 127.98,334.92 L 130.06,331.17 L 128.76,325.20 L 134.30,331.38 L 129.48,319.20 L 139.13,318.49 L 120.69,314.11 L 152.68,312.25 L 149.19,306.01 L 153.93,303.32 L 148.73,289.81 L 153.77,288.04 L 155.85,276.89 L 162.85,277.23 L 172.33,285.59 L 197.89,271.01 L 201.67,261.66 L 220.01,279.47 L 201.95,295.30 L 202.03,301.98 L 208.96,303.26 L 213.42,311.97 L 228.72,309.63 L 215.41,317.74 Z M 216.91,332.58 L 217.18,334.78 L 211.58,338.13 L 207.81,331.16 L 216.91,332.58 Z" fill="#C8D8E8" stroke="#8BAABB" stroke-width="0.8"/>
<path d="M 264.99,329.88 L 260.82,327.64 L 261.56,326.74 L 266.28,324.65 L 264.99,329.88 Z M 213.42,311.97 L 208.96,303.26 L 202.03,301.98 L 201.95,295.30 L 220.01,279.47 L 214.11,277.48 L 217.19,275.25 L 205.40,262.05 L 201.67,261.66 L 197.89,271.01 L 171.11,285.97 L 162.85,277.23 L 155.85,276.89 L 153.77,288.04 L 148.73,289.81 L 153.93,303.32 L 149.19,306.01 L 152.68,312.25 L 120.69,314.11 L 139.13,318.49 L 129.48,319.20 L 134.30,331.38 L 128.76,325.20 L 130.06,331.17 L 127.98,334.92 L 122.73,333.11 L 117.79,351.31 L 81.45,346.78 L 68.26,355.65 L 64.76,371.16 L 79.18,376.48 L 80.22,385.06 L 98.87,385.69 L 102.12,393.78 L 97.32,397.24 L 96.79,412.45 L 110.47,432.00 L 105.93,446.81 L 31.18,446.81 L 31.78,445.22 L 0.00,429.44 L 0.00,147.33 L 8.02,143.39 L 3.81,203.05 L 26.32,203.61 L 36.72,254.07 L 91.44,251.52 L 95.85,261.04 L 100.25,261.83 L 93.87,275.03 L 115.26,288.71 L 122.19,287.23 L 120.22,268.84 L 141.14,251.01 L 141.36,241.03 L 158.00,234.94 L 157.61,230.70 L 168.10,223.25 L 181.17,220.56 L 201.41,199.45 L 206.52,197.68 L 211.46,202.23 L 218.51,191.29 L 232.67,185.64 L 241.41,193.53 L 223.57,201.38 L 222.14,208.07 L 214.64,210.01 L 192.72,232.20 L 205.74,239.13 L 215.49,235.15 L 220.16,249.21 L 238.77,257.09 L 239.96,252.22 L 243.13,256.78 L 249.49,255.93 L 249.61,242.63 L 257.19,244.08 L 257.64,233.79 L 261.09,230.55 L 261.12,237.92 L 264.45,236.27 L 269.07,242.97 L 270.19,251.87 L 283.22,252.27 L 283.52,263.66 L 291.12,259.22 L 305.93,271.64 L 327.97,273.66 L 311.64,283.58 L 304.44,293.19 L 292.01,287.66 L 293.93,300.50 L 283.56,296.58 L 274.05,304.96 L 276.88,309.53 L 268.59,308.98 L 262.72,315.31 L 259.13,308.39 L 254.27,311.72 L 242.12,304.43 L 213.42,311.97 Z M 210.66,263.95 L 214.46,267.54 L 213.17,264.01 L 210.66,263.95 Z M 241.67,321.20 L 238.52,324.39 L 240.06,330.75 L 231.58,331.23 L 232.67,324.51 L 228.50,318.24 L 230.98,314.50 L 241.67,321.20 Z" fill="#C8D8E8" stroke="#8BAABB" stroke-width="0.8"/>
<path d="M 650.00,201.18 L 632.36,203.10 L 628.02,210.48 L 606.89,216.29 L 564.98,240.81 L 564.50,247.29 L 552.03,261.23 L 496.88,262.82 L 487.19,277.83 L 485.96,287.10 L 472.76,303.00 L 468.85,297.38 L 443.30,306.41 L 437.76,285.80 L 421.13,297.37 L 404.84,293.12 L 402.66,298.61 L 406.06,304.32 L 398.96,304.02 L 382.06,318.37 L 365.36,322.02 L 358.85,335.77 L 363.56,348.62 L 358.75,356.15 L 343.12,356.36 L 329.08,362.97 L 299.60,361.74 L 290.39,364.57 L 286.42,373.00 L 278.28,362.15 L 264.72,367.87 L 264.22,357.35 L 253.89,356.72 L 251.47,347.46 L 234.94,353.49 L 229.55,360.58 L 220.14,361.35 L 213.42,350.39 L 206.84,348.12 L 195.30,353.08 L 194.27,347.01 L 191.17,351.21 L 153.36,353.29 L 150.00,339.07 L 153.82,324.95 L 158.14,330.30 L 162.51,328.71 L 163.25,316.47 L 185.36,311.42 L 209.03,321.99 L 206.84,330.01 L 215.41,317.74 L 227.37,313.72 L 230.37,307.92 L 242.12,304.43 L 254.27,311.72 L 259.13,308.39 L 262.72,315.31 L 268.59,308.98 L 276.88,309.53 L 274.05,304.96 L 283.56,296.58 L 293.93,300.50 L 292.01,287.66 L 304.44,293.19 L 311.64,283.58 L 328.21,274.88 L 305.93,271.64 L 291.12,259.22 L 283.52,263.66 L 283.22,252.27 L 270.19,251.87 L 269.07,242.97 L 264.45,236.27 L 261.12,237.92 L 261.09,230.55 L 257.64,233.79 L 257.19,244.08 L 249.61,242.63 L 249.49,255.93 L 243.13,256.78 L 239.96,252.22 L 238.77,257.09 L 220.16,249.21 L 215.49,235.15 L 205.74,239.13 L 192.72,232.20 L 214.64,210.01 L 222.14,208.07 L 223.57,201.38 L 241.41,193.53 L 234.11,186.23 L 223.89,184.72 L 228.86,174.93 L 233.50,174.80 L 230.73,169.17 L 248.97,155.19 L 256.32,157.47 L 269.10,152.83 L 289.30,157.24 L 344.40,178.87 L 340.21,165.32 L 347.40,140.88 L 362.42,134.89 L 365.31,129.70 L 376.61,130.56 L 375.01,127.00 L 420.44,151.89 L 440.51,154.57 L 448.54,146.66 L 476.57,149.72 L 501.23,143.50 L 518.10,148.99 L 600.80,155.43 L 613.40,174.84 L 635.77,177.57 L 649.05,191.76 L 650.00,201.18 Z M 261.56,326.74 L 260.82,327.64 L 264.99,329.88 L 266.28,324.65 L 261.56,326.74 Z M 230.98,314.50 L 228.50,318.24 L 232.67,324.51 L 231.58,331.23 L 240.06,330.75 L 238.52,324.39 L 241.67,321.20 L 230.98,314.50 Z M 211.58,338.13 L 217.18,334.78 L 216.91,332.58 L 207.81,331.16 L 211.58,338.13 Z" fill="#4A90D9" stroke="#1a5fa8" stroke-width="1.2"/>
<path d="M 311.32,218.01 L 305.34,223.45 L 302.86,221.24 L 309.73,216.25 L 302.86,207.98 L 334.77,216.46 L 311.32,218.01 Z" fill="#A8C8E8" stroke="none"/>
<path d="M 106.71,262.64 L 95.82,261.02 L 90.29,249.00 L 114.20,256.04 L 106.71,262.64 Z" fill="#A8C8E8" stroke="none"/>
<path d="M 199.94,305.00 L 193.48,307.98 L 177.07,308.00 L 202.11,299.13 L 199.94,305.00 Z" fill="#A8C8E8" stroke="none"/>
<path d="M 509.62,94.14 L 508.35,90.21 L 519.24,85.44 L 556.62,90.42 L 549.13,95.54 L 509.62,94.14 Z" fill="#A8C8E8" stroke="none"/>
<path d="M 563.51,167.26 L 540.88,176.95 L 544.76,180.63 L 525.06,193.43 L 500.26,193.11 L 475.79,182.34 L 470.05,183.97 L 466.66,176.65 L 538.83,159.56 L 562.54,158.33 L 552.34,165.59 L 563.51,167.26 Z" fill="#A8C8E8" stroke="none"/>
<path d="M 89.95,274.82 L 70.89,280.00 L 76.42,293.99 L 63.67,283.64 L 63.48,277.75 L 8.62,263.40 L 48.16,263.53 L 61.00,266.84 L 67.40,271.25 L 65.79,274.47 L 73.38,274.45 L 95.82,261.02 L 89.95,274.82 Z" fill="#A8C8E8" stroke="none"/>
</svg>