<svg xmlns="http://www.w3.org/2000/svg" width="800" height="500" viewBox="0 0 800 500">
<rect width="800" height="500" fill="#A8C8E8"/>
<path d="M 206.52,488.26 L 215.36,466.40 L 228.35,461.21 L 246.86,478.23 L 242.89,500.00 L 198.51,500.00 L 206.52,488.26 Z" fill="#E8E0D0" stroke="#B8B0A0" stroke-width="0.5"/>
<path d="M 30.45,500.00 L 0.00,500.00 L 0.00,478.13 L 30.45,500.00 Z" fill="#E8E0D0" stroke="#B8B0A0" stroke-width="0.5"/>
<path d="M 402.82,491.26 L 404.86,462.58 L 382.07,446.32 L 372.49,446.13 L 368.20,457.05 L 358.55,452.49 L 352.39,430.52 L 358.99,422.54 L 349.07,404.86 L 350.20,386.37 L 359.54,384.27 L 363.33,376.10 L 358.65,360.45 L 365.83,340.69 L 382.06,336.84 L 398.96,318.62 L 406.06,319.01 L 402.66,311.75 L 404.84,304.78 L 421.13,310.18 L 437.76,295.47 L 443.30,321.65 L 468.85,310.18 L 472.00,317.69 L 485.45,298.22 L 487.19,285.35 L 496.88,266.29 L 552.03,264.27 L 564.50,246.55 L 564.98,238.33 L 578.54,226.44 L 628.02,199.79 L 632.36,190.43 L 650.00,187.98 L 651.69,172.31 L 646.03,141.09 L 650.77,127.94 L 664.42,123.16 L 656.22,111.65 L 675.54,102.36 L 668.70,88.80 L 671.88,78.62 L 654.89,27.77 L 655.42,0.00 L 800.00,0.00 L 800.00,500.00 L 405.69,500.00 L 402.82,491.26 Z" fill="#C8D8E8" stroke="#8BAABB" stroke-width="0.8"/>
<path d="M 654.89,27.77 L 671.88,78.62 L 668.70,88.80 L 675.54,102.36 L 656.22,111.65 L 664.42,123.16 L 649.83,129.87 L 645.86,142.76 L 650.81,174.84 L 635.77,158.00 L 613.40,154.53 L 600.80,129.87 L 518.10,121.69 L 501.23,114.71 L 476.57,122.62 L 448.54,118.73 L 440.51,128.77 L 420.44,125.37 L 375.01,93.75 L 376.61,98.28 L 365.31,97.19 L 362.42,103.78 L 347.40,111.38 L 340.21,142.43 L 344.40,159.65 L 269.10,126.57 L 241.74,133.24 L 237.07,144.33 L 230.73,147.32 L 233.50,154.48 L 228.86,154.65 L 223.89,167.08 L 228.21,171.53 L 218.51,175.43 L 212.88,188.46 L 201.41,185.79 L 181.17,212.60 L 168.10,216.02 L 157.61,225.48 L 158.00,230.87 L 141.36,238.60 L 141.14,251.28 L 120.22,273.94 L 122.19,297.30 L 115.26,299.17 L 93.87,281.80 L 100.25,265.03 L 95.85,264.02 L 91.44,251.93 L 36.72,255.17 L 26.32,191.07 L 3.81,190.36 L 8.02,114.57 L 0.00,119.58 L 0.00,0.00 L 655.42,0.00 L 654.89,27.77 Z" fill="#C8D8E8" stroke="#8BAABB" stroke-width="0.8"/>
<path d="M 213.17,267.80 L 214.46,272.28 L 210.66,267.72 L 213.17,267.80 Z M 215.41,336.04 L 206.84,351.64 L 209.03,341.45 L 185.36,328.02 L 163.25,334.44 L 162.51,349.99 L 158.14,352.01 L 153.98,345.04 L 150.66,357.16 L 152.72,379.36 L 184.19,379.76 L 194.27,373.23 L 195.30,380.94 L 206.84,374.64 L 213.42,377.53 L 220.14,391.45 L 229.55,390.47 L 234.94,381.45 L 251.47,373.80 L 253.89,385.56 L 264.22,386.37 L 264.72,399.73 L 278.28,392.47 L 286.42,406.25 L 290.39,395.54 L 299.60,391.94 L 329.08,393.50 L 348.91,385.50 L 349.07,404.86 L 358.99,422.54 L 352.39,430.52 L 358.55,452.49 L 368.20,457.05 L 372.49,446.13 L 382.07,446.32 L 404.73,461.93 L 402.82,491.26 L 405.69,500.00 L 242.89,500.00 L 246.86,478.23 L 228.35,461.21 L 215.36,466.40 L 206.52,488.26 L 198.51,500.00 L 105.93,500.00 L 110.47,481.19 L 96.79,456.35 L 97.32,437.04 L 102.12,432.64 L 98.87,422.36 L 80.22,421.57 L 79.18,410.66 L 64.76,403.90 L 71.01,379.49 L 81.45,372.94 L 117.79,378.69 L 122.73,355.58 L 127.98,357.88 L 130.06,353.11 L 128.76,345.53 L 134.30,353.37 L 129.48,337.91 L 139.13,337.00 L 120.69,331.44 L 152.68,329.08 L 149.19,321.14 L 153.93,317.73 L 148.73,300.56 L 153.77,298.32 L 155.85,284.16 L 162.85,284.59 L 172.33,295.21 L 197.89,276.69 L 201.67,264.81 L 220.01,287.44 L 201.95,307.55 L 202.03,316.03 L 208.96,317.66 L 213.42,328.72 L 228.72,325.74 L 215.41,336.04 Z M 216.91,354.90 L 217.18,357.69 L 211.58,361.95 L 207.81,353.10 L 216.91,354.90 Z" fill="#C8D8E8" stroke="#8BAABB" stroke-width="0.8"/>
<path d="M 264.99,351.47 L 260.82,348.63 L 261.56,347.48 L 266.28,344.83 L 264.99,351.47 Z M 213.42,328.72 L 208.96,317.66 L 202.03,316.03 L 201.95,307.55 L 220.01,287.44 L 214.11,284.91 L 217.19,282.08 L 205.40,265.31 L 201.67,264.81 L 197.89,276.69 L 171.11,295.69 L 162.85,284.59 L 155.85,284.16 L 153.77,298.32 L 148.73,300.56 L 153.93,317.73 L 149.19,321.14 L 152.68,329.08 L 120.69,331.44 L 139.13,337.00 L 129.48,337.91 L 134.30,353.37 L 128.76,345.53 L 130.06,353.11 L 127.98,357.88 L 122.73,355.58 L 117.79,378.69 L 81.45,372.94 L 68.26,384.20 L 64.76,403.90 L 79.18,410.66 L 80.22,421.57 L 98.87,422.36 L 102.12,432.64 L 97.32,437.04 L 96.79,456.35 L 110.47,481.19 L 105.93,500.00 L 31.18,500.00 L 31.78,497.98 L 0.00,477.94 L 0.00,119.58 L 8.02,114.57 L 3.81,190.36 L 26.32,191.07 L 36.72,255.17 L 91.44,251.93 L 95.85,264.02 L 100.25,265.03 L 93.87,281.80 L 115.26,299.17 L 122.19,297.30 L 120.22,273.94 L 141.14,251.28 L 141.36,238.60 L 158.00,230.87 L 157.61,225.48 L 168.10,216.02 L 181.17,212.60 L 201.41,185.79 L 206.52,183.54 L 211.46,189.32 L 218.51,175.43 L 232.67,168.24 L 241.41,178.27 L 223.57,188.24 L 222.14,196.74 L 214.64,199.21 L 192.72,227.38 L 205.74,236.19 L 215.49,231.13 L 220.16,249.00 L 238.77,259.00 L 239.96,252.82 L 243.13,258.62 L 249.49,257.53 L 249.61,240.64 L 257.19,242.48 L 257.64,229.41 L 261.09,225.30 L 261.12,234.65 L 264.45,232.55 L 269.07,241.07 L 270.19,252.38 L 283.22,252.88 L 283.52,267.35 L 291.12,261.71 L 305.93,277.49 L 327.97,280.05 L 311.64,292.65 L 304.44,304.86 L 292.01,297.84 L 293.93,314.15 L 283.56,309.17 L 274.05,319.81 L 276.88,325.62 L 268.59,324.92 L 262.72,332.97 L 259.13,324.17 L 254.27,328.40 L 242.12,319.14 L 213.42,328.72 Z M 210.66,267.72 L 214.46,272.28 L 213.17,267.80 L 210.66,267.72 Z M 241.67,340.45 L 238.52,344.50 L 240.06,352.57 L 231.58,353.18 L 232.67,344.65 L 228.50,336.69 L 230.98,331.93 L 241.67,340.45 Z" fill="#C8D8E8" stroke="#8BAABB" stroke-width="0.8"/>
<path d="M 650.00,187.98 L 632.36,190.43 L 628.02,199.79 L 606.89,207.18 L 564.98,238.33 L 564.50,246.55 L 552.03,264.27 L 496.88,266.29 L 487.19,285.35 L 485.96,297.13 L 472.76,317.33 L 468.85,310.18 L 443.30,321.65 L 437.76,295.47 L 421.13,310.18 L 404.84,304.78 L 402.66,311.75 L 406.06,319.01 L 398.96,318.62 L 382.06,336.84 L 365.36,341.48 L 358.85,358.95 L 363.56,375.28 L 358.75,384.84 L 343.12,385.11 L 329.08,393.50 L 299.60,391.94 L 290.39,395.54 L 286.42,406.25 L 278.28,392.47 L 264.72,399.73 L 264.22,386.37 L 253.89,385.56 L 251.47,373.80 L 234.94,381.45 L 229.55,390.47 L 220.14,391.45 L 213.42,377.53 L 206.84,374.64 L 195.30,380.94 L 194.27,373.23 L 191.17,378.56 L 153.36,381.20 L 150.00,363.14 L 153.82,345.20 L 158.14,352.01 L 162.51,349.99 L 163.25,334.44 L 185.36,328.02 L 209.03,341.45 L 206.84,351.64 L 215.41,336.04 L 227.37,330.94 L 230.37,323.58 L 242.12,319.14 L 254.27,328.40 L 259.13,324.17 L 262.72,332.97 L 268.59,324.92 L 276.88,325.62 L 274.05,319.81 L 283.56,309.17 L 293.93,314.15 L 292.01,297.84 L 304.44,304.86 L 311.64,292.65 L 328.21,281.60 L 305.93,277.49 L 291.12,261.71 L 283.52,267.35 L 283.22,252.88 L 270.19,252.38 L 269.07,241.07 L 264.45,232.55 L 261.12,234.65 L 261.09,225.30 L 257.64,229.41 L 257.19,242.48 L 249.61,240.64 L 249.49,257.53 L 243.13,258.62 L 239.96,252.82 L 238.77,259.00 L 220.16,249.00 L 215.49,231.13 L 205.74,236.19 L 192.72,227.38 L 214.64,199.21 L 222.14,196.74 L 223.57,188.24 L 241.41,178.27 L 234.11,168.99 L 223.89,167.08 L 228.86,154.65 L 233.50,154.48 L 230.73,147.32 L 248.97,129.57 L 256.32,132.46 L 269.10,126.57 L 289.30,132.17 L 344.40,159.65 L 340.21,142.43 L 347.40,111.38 L 362.42,103.78 L 365.31,97.19 L 376.61,98.28 L 375.01,93.75 L 420.44,125.37 L 440.51,128.77 L 448.54,118.73 L 476.57,122.62 L 501.23,114.71 L 518.10,121.69 L 600.80,129.87 L 613.40,154.53 L 635.77,158.00 L 649.05,176.02 L 650.00,187.98 Z M 261.56,347.48 L 260.82,348.63 L 264.99,351.47 L 266.28,344.83 L 261.56,347.48 Z M 230.98,331.93 L 228.50,336.69 L 232.67,344.65 L 231.58,353.18 L 240.06,352.57 L 238.52,344.50 L 241.67,340.45 L 230.98,331.93 Z M 211.58,361.95 L 217.18,357.69 L 216.91,354.90 L 207.81,353.10 L 211.58,361.95 Z" fill="#4A90D9" stroke="#1a5fa8" stroke-width="1.2"/>
<path d="M 311.32,209.36 L 305.34,216.27 L 302.86,213.47 L 309.73,207.12 L 302.86,196.62 L 334.77,207.40 L 311.32,209.36 Z" fill="#A8C8E8" stroke="none"/>
<path d="M 106.71,266.06 L 95.82,264.00 L 90.29,248.73 L 114.20,257.68 L 106.71,266.06 Z" fill="#A8C8E8" stroke="none"/>
<path d="M 199.94,319.86 L 193.48,323.66 L 177.07,323.68 L 202.11,312.41 L 199.94,319.86 Z" fill="#A8C8E8" stroke="none"/>
<path d="M 509.62,52.01 L 508.35,47.02 L 519.24,40.97 L 556.62,47.29 L 549.13,53.80 L 509.62,52.01 Z" fill="#A8C8E8" stroke="none"/>
<path d="M 563.51,144.89 L 540.88,157.21 L 544.76,161.88 L 525.06,178.14 L 500.26,177.74 L 475.79,164.05 L 470.05,166.13 L 466.66,156.82 L 538.83,135.11 L 562.54,133.56 L 552.34,142.77 L 563.51,144.89 Z" fill="#A8C8E8" stroke="none"/>
<path d="M 89.95,281.53 L 70.89,288.10 L 76.42,305.88 L 63.67,292.73 L 63.48,285.26 L 8.62,267.03 L 48.16,267.19 L 61.00,271.39 L 67.40,276.99 L 65.79,281.08 L 73.38,281.05 L 95.82,264.00 L 89.95,281.53 Z" fill="#A8C8E8" stroke="none"/>
</svg>