<svg xmlns="http://www.w3.org/2000/svg" width="800" height="500" viewBox="0 0 800 500">
<rect width="800" height="500" fill="#A8C8E8"/>
<path d="M 571.87,5.26 L 558.41,9.61 L 555.75,15.87 L 592.40,52.66 L 587.06,67.99 L 576.85,70.37 L 584.86,80.48 L 574.68,105.49 L 565.60,101.48 L 552.33,115.39 L 547.10,113.37 L 533.49,122.71 L 510.49,102.07 L 502.05,111.85 L 490.41,109.35 L 486.37,118.15 L 471.87,119.23 L 484.68,141.19 L 478.96,151.17 L 466.91,150.73 L 455.84,138.75 L 440.84,133.11 L 428.82,137.51 L 421.20,131.80 L 416.03,119.90 L 432.51,113.89 L 439.02,103.99 L 437.71,87.79 L 445.10,72.90 L 434.49,62.47 L 443.04,52.37 L 436.88,46.52 L 445.90,40.22 L 448.51,22.53 L 432.23,13.95 L 428.57,5.23 L 432.04,0.00 L 573.93,0.00 L 571.87,5.26 Z" fill="#C8D8E8" stroke="#8BAABB" stroke-width="0.8"/>
<path d="M 232.64,274.70 L 230.98,287.23 L 210.61,276.97 L 208.28,269.72 L 213.48,268.42 L 214.60,264.06 L 210.31,267.64 L 211.19,259.68 L 204.20,259.06 L 205.80,267.23 L 194.15,249.23 L 190.22,249.68 L 193.62,256.69 L 172.93,239.38 L 148.18,247.42 L 124.68,241.22 L 116.63,247.24 L 108.34,243.26 L 113.72,217.75 L 109.79,210.79 L 118.14,181.80 L 98.97,180.99 L 98.97,0.00 L 432.04,0.00 L 428.57,5.23 L 432.23,13.95 L 448.51,22.53 L 445.90,40.22 L 436.88,46.52 L 443.04,52.37 L 434.49,62.47 L 445.10,72.90 L 437.71,87.79 L 439.02,103.99 L 432.51,113.89 L 406.29,129.49 L 401.06,117.35 L 386.69,113.04 L 370.41,118.83 L 344.40,115.64 L 323.64,120.28 L 305.99,112.79 L 270.52,121.79 L 254.90,131.57 L 239.25,162.45 L 228.14,169.16 L 232.08,173.84 L 213.19,176.81 L 212.91,197.90 L 224.42,218.24 L 223.65,241.48 L 243.76,259.04 L 238.79,277.81 L 254.54,316.62 L 232.64,274.70 Z M 232.66,313.80 L 232.12,322.63 L 227.26,319.60 L 229.05,308.32 L 232.66,313.80 Z M 220.94,293.19 L 210.22,292.65 L 207.31,279.67 L 220.94,293.19 Z" fill="#C8D8E8" stroke="#8BAABB" stroke-width="0.8"/>
<path d="M 584.86,80.48 L 576.85,70.37 L 587.06,67.99 L 592.40,52.66 L 555.75,15.87 L 558.41,9.61 L 571.87,5.26 L 573.93,0.00 L 636.41,0.00 L 664.89,34.50 L 661.01,39.02 L 665.86,36.49 L 671.26,48.52 L 675.14,40.96 L 683.97,53.99 L 677.63,61.11 L 693.53,92.97 L 691.75,104.01 L 701.03,130.55 L 701.03,260.58 L 698.05,258.73 L 701.03,263.19 L 701.03,275.66 L 700.52,276.68 L 701.03,278.23 L 701.03,284.32 L 699.98,281.38 L 701.03,286.64 L 701.03,294.18 L 696.36,300.76 L 701.03,300.48 L 701.03,315.87 L 697.08,322.13 L 688.85,317.57 L 687.81,338.64 L 675.89,339.58 L 668.16,350.45 L 654.07,352.51 L 637.63,370.03 L 623.86,369.64 L 616.17,385.59 L 603.76,386.10 L 564.51,408.97 L 557.68,401.76 L 544.56,401.51 L 547.49,398.22 L 547.44,392.28 L 546.85,388.72 L 544.04,385.59 L 547.08,396.89 L 544.56,391.01 L 542.58,402.55 L 541.12,392.78 L 536.75,389.03 L 527.21,387.46 L 526.21,398.48 L 515.43,403.55 L 526.75,402.44 L 530.29,415.79 L 504.08,413.45 L 530.77,425.09 L 520.20,438.41 L 507.40,432.25 L 499.64,420.46 L 494.81,417.48 L 506.88,433.94 L 523.57,444.08 L 521.60,448.00 L 515.78,449.45 L 484.35,419.89 L 482.10,419.47 L 514.94,455.56 L 512.71,466.78 L 501.43,469.46 L 461.17,435.96 L 488.06,469.98 L 487.80,482.50 L 441.24,499.98 L 441.23,500.00 L 388.87,500.00 L 392.72,455.63 L 395.30,447.39 L 406.83,441.40 L 410.98,446.96 L 410.54,439.99 L 386.71,420.03 L 375.41,426.02 L 369.14,405.98 L 365.20,408.97 L 363.90,405.97 L 372.12,398.07 L 392.57,397.83 L 407.67,384.52 L 403.74,372.15 L 408.47,367.55 L 425.53,375.42 L 432.12,366.38 L 456.47,362.54 L 465.42,376.21 L 469.16,371.23 L 486.66,380.67 L 485.45,359.78 L 462.98,342.56 L 460.17,318.15 L 469.36,316.84 L 475.14,307.54 L 504.33,315.44 L 502.07,293.02 L 523.94,292.94 L 560.24,268.54 L 574.74,272.30 L 581.74,265.76 L 585.36,246.63 L 577.91,216.38 L 588.14,181.63 L 567.92,136.36 L 584.86,80.48 Z M 494.27,469.79 L 488.03,467.75 L 483.01,460.41 L 480.69,453.97 L 494.27,469.79 Z M 527.56,419.34 L 525.55,420.04 L 510.44,414.99 L 527.56,419.34 Z M 560.19,405.53 L 551.37,413.00 L 550.81,408.05 L 560.19,405.53 Z M 543.55,407.02 L 537.20,409.51 L 540.01,398.57 L 543.55,407.02 Z M 534.77,395.54 L 536.01,392.27 L 534.77,390.56 L 540.15,393.00 L 538.69,397.75 L 534.77,395.54 Z M 512.14,448.99 L 504.08,440.99 L 505.54,441.44 L 512.14,448.99 Z M 334.18,429.55 L 335.45,435.96 L 320.86,409.49 L 332.14,403.68 L 337.64,409.51 L 334.18,429.55 Z M 533.79,407.02 L 528.86,402.71 L 527.53,388.03 L 534.34,391.82 L 533.79,400.51 L 533.79,407.02 Z M 684.49,397.38 L 684.62,399.90 L 682.44,399.05 L 684.49,397.38 Z" fill="#C8D8E8" stroke="#8BAABB" stroke-width="0.8"/>
<path d="M 567.92,136.36 L 588.14,181.63 L 577.91,216.38 L 585.36,246.63 L 582.31,264.11 L 574.74,272.30 L 560.24,268.54 L 523.94,292.94 L 502.07,293.02 L 504.33,315.44 L 475.14,307.54 L 469.36,316.84 L 460.17,318.15 L 462.98,342.56 L 485.45,359.78 L 486.66,380.67 L 469.16,371.23 L 465.42,376.21 L 456.47,362.54 L 432.12,366.38 L 425.53,375.42 L 408.47,367.55 L 403.74,372.15 L 405.94,386.21 L 392.57,397.83 L 372.12,398.07 L 365.20,406.25 L 349.57,394.99 L 327.93,393.69 L 322.30,385.59 L 319.04,396.91 L 305.05,400.05 L 296.38,391.58 L 301.04,383.61 L 309.67,382.56 L 312.06,371.34 L 308.66,359.04 L 298.59,351.82 L 294.01,352.62 L 289.28,372.11 L 269.70,372.33 L 264.78,347.59 L 271.50,340.50 L 265.27,331.09 L 273.08,332.63 L 263.32,319.60 L 262.84,324.12 L 257.46,323.09 L 263.76,318.15 L 258.46,317.16 L 259.71,312.47 L 265.43,312.08 L 266.73,310.65 L 259.44,311.64 L 253.08,303.18 L 258.46,311.64 L 257.46,322.13 L 239.35,280.71 L 243.76,259.04 L 224.16,242.64 L 224.42,218.24 L 212.91,197.90 L 211.86,178.53 L 232.08,173.84 L 228.14,169.16 L 239.25,162.45 L 255.99,130.45 L 305.99,112.79 L 323.64,120.28 L 344.40,115.64 L 370.41,118.83 L 386.69,113.04 L 401.06,117.35 L 406.29,129.49 L 416.03,119.90 L 426.95,137.07 L 440.84,133.11 L 455.84,138.75 L 466.91,150.73 L 478.96,151.17 L 484.68,141.19 L 472.19,118.43 L 486.37,118.15 L 490.41,109.35 L 503.86,111.10 L 510.49,102.07 L 531.43,122.29 L 540.44,121.76 L 565.60,101.48 L 574.68,105.49 L 582.18,93.75 L 567.92,136.36 Z M 318.00,401.26 L 317.20,403.50 L 313.56,401.51 L 318.00,401.26 Z M 280.41,387.53 L 274.80,381.00 L 278.12,379.86 L 280.41,387.53 Z M 263.76,343.76 L 261.22,345.10 L 259.92,332.63 L 263.76,343.76 Z M 264.30,329.60 L 262.84,332.63 L 260.39,326.25 L 264.30,329.60 Z M 283.69,396.82 L 281.24,391.90 L 283.41,391.56 L 283.69,396.82 Z" fill="#4A90D9" stroke="#1a5fa8" stroke-width="1.2"/>
<path d="M 375.93,263.20 L 367.09,253.59 L 346.91,248.51 L 338.37,230.73 L 333.47,233.75 L 321.33,227.79 L 310.80,198.94 L 332.61,204.86 L 348.84,236.50 L 364.23,237.70 L 363.60,251.36 L 369.14,249.69 L 375.93,263.20 Z" fill="#A8C8E8" stroke="none"/>
</svg>