<svg xmlns="http://www.w3.org/2000/svg" width="800" height="500" viewBox="0 0 800 500">
<rect width="800" height="500" fill="#A8C8E8"/>
<path d="M 612.63,464.95 L 604.11,455.86 L 613.61,443.78 L 624.70,455.84 L 612.63,464.95 Z M 569.19,439.99 L 549.95,453.17 L 534.67,396.44 L 543.55,388.15 L 571.33,400.61 L 569.19,439.99 Z M 584.63,365.05 L 599.08,390.72 L 629.24,405.69 L 584.69,413.61 L 572.45,400.63 L 584.63,365.05 Z M 561.72,467.09 L 560.01,469.13 L 558.40,468.16 L 561.72,467.09 Z M 566.78,466.82 L 564.76,466.65 L 567.11,463.85 L 566.78,466.82 Z" fill="#E8E0D0" stroke="#B8B0A0" stroke-width="0.5"/>
<path d="M 339.24,122.26 L 333.29,121.74 L 352.57,113.64 L 352.58,127.51 L 339.24,122.26 Z" fill="#E8E0D0" stroke="#B8B0A0" stroke-width="0.5"/>
<path d="M 342.39,123.58 L 352.58,127.51 L 340.64,127.11 L 342.39,123.58 Z" fill="#E8E0D0" stroke="#B8B0A0" stroke-width="0.5"/>
<path d="M 363.40,213.13 L 361.37,216.39 L 358.03,215.89 L 355.63,206.85 L 363.40,213.13 Z M 321.82,190.66 L 319.63,192.93 L 317.70,191.51 L 321.82,190.66 Z" fill="#E8E0D0" stroke="#B8B0A0" stroke-width="0.5"/>
<path d="M 259.16,492.01 L 260.51,492.01 L 260.38,493.03 L 259.16,492.01 Z" fill="#E8E0D0" stroke="#B8B0A0" stroke-width="0.5"/>
<path d="M 471.77,337.61 L 474.28,317.21 L 478.36,318.17 L 471.77,337.61 Z" fill="#E8E0D0" stroke="#B8B0A0" stroke-width="0.5"/>
<path d="M 530.50,262.60 L 554.03,276.57 L 543.65,290.66 L 521.80,281.32 L 530.50,262.60 Z M 523.25,180.98 L 529.58,193.06 L 528.63,175.27 L 545.05,197.03 L 528.46,196.27 L 523.25,180.98 Z M 453.24,299.12 L 452.64,299.60 L 452.46,299.34 L 453.24,299.12 Z" fill="#E8E0D0" stroke="#B8B0A0" stroke-width="0.5"/>
<path d="M 375.18,143.80 L 386.30,145.93 L 383.54,149.56 L 375.18,143.80 Z" fill="#E8E0D0" stroke="#B8B0A0" stroke-width="0.5"/>
<path d="M 355.12,97.20 L 330.16,106.27 L 349.51,90.89 L 355.12,97.20 Z M 291.22,38.78 L 292.00,38.97 L 291.34,40.09 L 291.22,38.78 Z M 363.02,86.28 L 366.30,87.46 L 361.67,89.86 L 363.02,86.28 Z M 316.02,88.66 L 319.98,88.51 L 317.60,90.07 L 316.02,88.66 Z M 328.42,91.08 L 326.52,90.72 L 326.84,90.66 L 328.42,91.08 Z M 329.97,91.26 L 330.09,91.81 L 329.23,91.78 L 329.97,91.26 Z" fill="#E8E0D0" stroke="#B8B0A0" stroke-width="0.5"/>
<path d="M 161.24,22.19 L 161.24,19.07 L 165.58,23.24 L 161.24,22.19 Z" fill="#E8E0D0" stroke="#B8B0A0" stroke-width="0.5"/>
<path d="M 422.88,260.26 L 422.71,272.62 L 413.08,272.70 L 415.01,257.26 L 422.88,260.26 Z M 407.88,255.04 L 377.12,227.30 L 396.99,232.95 L 407.88,255.04 Z" fill="#4A90D9" stroke="#1a5fa8" stroke-width="1.2"/>
</svg>