<svg xmlns="http://www.w3.org/2000/svg" width="800" height="500" viewBox="0 0 800 500">
<rect width="800" height="500" fill="#A8C8E8"/>
<path d="M 756.23,464.95 L 741.95,455.86 L 757.88,443.78 L 776.45,455.84 L 756.23,464.95 Z M 683.46,439.99 L 651.22,453.17 L 625.62,396.44 L 640.49,388.15 L 687.04,400.61 L 683.46,439.99 Z M 709.33,365.05 L 733.53,390.72 L 784.06,405.69 L 709.42,413.61 L 688.91,400.63 L 709.33,365.05 Z M 670.94,467.09 L 668.07,469.13 L 665.37,468.16 L 670.94,467.09 Z M 679.41,466.82 L 676.03,466.65 L 679.97,463.85 L 679.41,466.82 Z" fill="#E8E0D0" stroke="#B8B0A0" stroke-width="0.5"/>
<path d="M 298.20,122.26 L 288.24,121.74 L 320.54,113.64 L 320.56,127.51 L 298.20,122.26 Z" fill="#E8E0D0" stroke="#B8B0A0" stroke-width="0.5"/>
<path d="M 303.48,123.58 L 320.56,127.51 L 300.54,127.11 L 303.48,123.58 Z" fill="#E8E0D0" stroke="#B8B0A0" stroke-width="0.5"/>
<path d="M 338.69,213.13 L 335.27,216.39 L 329.68,215.89 L 325.67,206.85 L 338.69,213.13 Z M 269.03,190.66 L 265.36,192.93 L 262.12,191.51 L 269.03,190.66 Z" fill="#E8E0D0" stroke="#B8B0A0" stroke-width="0.5"/>
<path d="M 164.05,492.01 L 166.31,492.01 L 166.08,493.03 L 164.05,492.01 Z" fill="#E8E0D0" stroke="#B8B0A0" stroke-width="0.5"/>
<path d="M 520.24,337.61 L 524.45,317.21 L 531.29,318.17 L 520.24,337.61 Z" fill="#E8E0D0" stroke="#B8B0A0" stroke-width="0.5"/>
<path d="M 618.64,262.60 L 658.06,276.57 L 640.67,290.66 L 604.05,281.32 L 618.64,262.60 Z M 606.49,180.98 L 617.09,193.06 L 615.50,175.27 L 643.01,197.03 L 615.22,196.27 L 606.49,180.98 Z M 489.19,299.12 L 488.19,299.60 L 487.89,299.34 L 489.19,299.12 Z" fill="#E8E0D0" stroke="#B8B0A0" stroke-width="0.5"/>
<path d="M 358.42,143.80 L 377.04,145.93 L 372.42,149.56 L 358.42,143.80 Z" fill="#E8E0D0" stroke="#B8B0A0" stroke-width="0.5"/>
<path d="M 324.81,97.20 L 283.00,106.27 L 315.41,90.89 L 324.81,97.20 Z M 217.75,38.78 L 219.06,38.97 L 217.96,40.09 L 217.75,38.78 Z M 338.04,86.28 L 343.53,87.46 L 335.78,89.86 L 338.04,86.28 Z M 259.30,88.66 L 265.95,88.51 L 261.95,90.07 L 259.30,88.66 Z M 280.08,91.08 L 276.90,90.72 L 277.43,90.66 L 280.08,91.08 Z M 282.68,91.26 L 282.88,91.81 L 281.43,91.78 L 282.68,91.26 Z" fill="#E8E0D0" stroke="#B8B0A0" stroke-width="0.5"/>
<path d="M 0.00,22.19 L 0.00,19.07 L 7.27,23.24 L 0.00,22.19 Z" fill="#E8E0D0" stroke="#B8B0A0" stroke-width="0.5"/>
<path d="M 438.33,260.26 L 438.06,272.62 L 421.91,272.70 L 425.15,257.26 L 438.33,260.26 Z M 413.19,255.04 L 361.67,227.30 L 394.96,232.95 L 413.19,255.04 Z" fill="#4A90D9" stroke="#1a5fa8" stroke-width="1.2"/>
</svg>