<svg xmlns="http://www.w3.org/2000/svg" width="800" height="500" viewBox="0 0 800 500">
<rect width="800" height="500" fill="#A8C8E8"/>
<path d="M 693.58,31.60 L 685.57,62.22 L 694.85,71.18 L 679.21,91.65 L 681.12,98.78 L 627.40,109.06 L 640.11,115.73 L 636.94,121.09 L 634.67,116.38 L 630.90,119.99 L 616.24,110.63 L 614.41,99.26 L 586.68,93.75 L 573.06,126.27 L 560.08,130.55 L 545.02,126.09 L 533.73,133.56 L 535.07,139.33 L 514.14,150.18 L 444.24,152.62 L 445.26,160.24 L 464.96,176.72 L 452.85,188.88 L 441.68,183.33 L 413.65,185.74 L 374.76,180.33 L 378.24,176.62 L 358.95,163.94 L 348.05,170.11 L 339.62,167.76 L 343.37,169.80 L 330.94,174.92 L 327.48,190.32 L 296.72,206.55 L 287.77,216.90 L 268.71,217.70 L 241.87,232.62 L 211.91,238.34 L 213.16,242.64 L 201.90,241.32 L 143.36,278.98 L 115.25,280.39 L 106.27,274.45 L 101.23,282.39 L 88.59,285.78 L 87.77,280.03 L 75.03,280.47 L 72.80,288.53 L 56.28,288.49 L 0.76,307.85 L 0.00,308.53 L 0.00,241.51 L 1.67,240.22 L 0.00,239.36 L 0.00,0.00 L 680.44,0.00 L 693.58,31.60 Z M 31.50,421.86 L 20.80,427.15 L 26.92,434.61 L 13.42,436.87 L 9.43,444.67 L 20.06,444.30 L 17.54,451.92 L 9.70,450.50 L 12.06,453.53 L 3.06,456.33 L 0.00,455.86 L 0.00,421.47 L 31.50,421.86 Z M 5.76,316.97 L 9.45,315.90 L 9.45,319.11 L 5.76,316.97 Z M 33.85,314.25 L 35.65,314.59 L 31.69,317.11 L 27.47,314.70 L 33.85,314.25 Z M 23.63,313.31 L 17.36,311.02 L 28.08,312.10 L 23.63,313.31 Z M 54.78,296.18 L 58.66,297.35 L 56.01,299.25 L 54.78,296.18 Z M 70.67,325.40 L 67.97,326.74 L 66.65,323.71 L 70.67,325.40 Z" fill="#C8D8E8" stroke="#8BAABB" stroke-width="0.8"/>
<path d="M 490.32,378.68 L 523.72,406.06 L 551.97,441.64 L 555.35,461.75 L 548.56,500.00 L 335.79,500.00 L 332.67,496.99 L 325.26,496.99 L 333.74,494.58 L 326.83,485.72 L 332.14,483.93 L 325.67,479.99 L 334.83,476.86 L 325.59,478.33 L 324.19,460.78 L 319.92,469.04 L 313.65,461.18 L 309.96,470.44 L 308.33,462.39 L 300.89,465.12 L 303.64,461.98 L 297.42,463.33 L 297.06,459.95 L 303.64,458.78 L 302.01,452.63 L 308.42,453.29 L 311.02,447.88 L 308.99,457.46 L 314.70,458.34 L 312.54,454.92 L 319.53,450.50 L 314.42,445.93 L 321.55,445.73 L 324.52,455.24 L 327.24,448.99 L 332.14,451.92 L 325.82,442.70 L 335.50,446.16 L 335.89,451.12 L 339.78,446.24 L 348.64,448.53 L 352.85,460.38 L 353.57,453.59 L 363.56,450.71 L 367.61,446.31 L 357.63,450.07 L 350.81,445.78 L 357.49,445.10 L 355.91,440.30 L 345.47,443.07 L 353.91,435.41 L 340.10,438.29 L 342.67,433.43 L 338.00,431.00 L 354.38,430.20 L 334.65,423.63 L 336.90,416.31 L 328.46,400.81 L 338.26,401.41 L 338.23,406.44 L 345.47,408.47 L 339.57,405.62 L 338.57,390.86 L 371.35,370.41 L 444.64,369.32 L 458.98,363.72 L 463.27,352.87 L 469.74,350.53 L 490.32,378.68 Z M 561.59,499.82 L 561.71,500.00 L 561.33,500.00 L 561.59,499.82 Z M 320.53,480.71 L 312.50,477.00 L 313.51,469.18 L 320.53,480.71 Z M 313.10,400.45 L 304.50,401.27 L 306.19,398.25 L 313.10,400.45 Z M 321.40,421.23 L 314.61,418.55 L 326.91,414.55 L 330.65,415.72 L 321.40,421.23 Z M 665.19,418.73 L 658.58,417.33 L 658.83,415.24 L 665.72,413.87 L 665.19,418.73 Z M 315.74,407.26 L 308.94,404.86 L 311.87,402.04 L 315.74,407.26 Z M 315.74,408.87 L 318.59,397.73 L 327.03,400.87 L 326.37,410.87 L 315.74,408.87 Z M 185.64,391.90 L 180.14,390.42 L 180.94,388.34 L 189.33,388.34 L 185.64,391.90 Z M 295.25,430.22 L 299.46,432.31 L 296.55,433.54 L 295.25,430.22 Z M 323.41,432.22 L 320.81,431.93 L 321.41,429.89 L 323.41,432.22 Z M 334.53,432.26 L 328.80,434.30 L 329.09,429.19 L 334.53,432.26 Z M 264.49,406.44 L 263.07,407.65 L 262.40,406.60 L 264.49,406.44 Z M 187.91,398.38 L 185.62,398.94 L 185.00,397.48 L 187.91,398.38 Z M 739.75,431.65 L 739.69,431.74 L 739.57,431.69 L 739.75,431.65 Z" fill="#C8D8E8" stroke="#8BAABB" stroke-width="0.8"/>
<path d="M 794.97,102.89 L 781.58,96.91 L 774.41,102.59 L 777.06,76.02 L 744.95,89.43 L 738.77,87.61 L 754.38,75.03 L 747.92,77.62 L 736.98,73.67 L 716.78,93.74 L 703.57,96.75 L 709.58,100.96 L 694.25,106.60 L 690.11,119.67 L 682.45,113.06 L 664.64,117.04 L 658.92,115.00 L 669.28,113.89 L 646.66,113.25 L 663.35,121.26 L 650.28,134.91 L 636.94,121.09 L 640.11,115.73 L 625.27,111.33 L 641.24,104.25 L 681.12,98.78 L 679.21,91.65 L 694.85,71.18 L 685.57,62.22 L 693.58,31.60 L 680.44,0.00 L 800.00,0.00 L 800.00,101.50 L 794.97,102.89 Z M 741.35,95.82 L 731.60,94.10 L 736.97,89.69 L 744.19,92.37 L 741.35,95.82 Z M 781.36,103.39 L 783.36,99.63 L 785.38,101.69 L 781.36,103.39 Z" fill="#C8D8E8" stroke="#8BAABB" stroke-width="0.8"/>
<path d="M 463.27,352.87 L 458.98,363.72 L 444.64,369.32 L 371.35,370.41 L 338.57,390.86 L 332.97,400.45 L 317.87,393.55 L 300.95,396.56 L 295.69,402.41 L 291.47,394.80 L 284.04,392.35 L 286.10,397.60 L 281.12,396.31 L 271.68,387.61 L 256.05,385.30 L 267.08,391.59 L 258.65,391.59 L 257.84,400.98 L 250.70,399.17 L 236.80,406.25 L 244.32,400.45 L 240.07,399.17 L 250.44,397.90 L 249.35,393.41 L 233.77,398.41 L 228.46,397.60 L 233.77,394.36 L 230.04,391.15 L 223.60,394.97 L 208.39,391.59 L 223.51,388.96 L 218.21,385.16 L 228.99,386.02 L 230.42,382.62 L 184.28,379.81 L 209.43,373.87 L 200.11,372.06 L 200.68,366.92 L 211.23,357.95 L 208.73,352.43 L 219.85,353.11 L 219.49,348.06 L 245.69,345.65 L 260.75,350.13 L 244.54,341.54 L 231.41,345.89 L 228.57,340.61 L 224.49,343.81 L 220.56,340.00 L 225.30,329.28 L 235.83,323.56 L 232.15,319.51 L 241.69,315.90 L 245.42,305.84 L 236.41,303.00 L 244.84,294.91 L 219.00,295.22 L 190.37,282.47 L 190.20,290.61 L 181.98,293.78 L 176.31,280.63 L 157.59,274.85 L 164.10,268.09 L 171.34,268.40 L 161.33,263.95 L 201.90,241.32 L 213.16,242.64 L 211.91,238.34 L 241.87,232.62 L 268.71,217.70 L 287.77,216.90 L 296.72,206.55 L 327.48,190.32 L 330.94,174.92 L 343.37,169.80 L 339.62,167.76 L 348.05,170.11 L 358.95,163.94 L 378.24,176.62 L 374.76,180.33 L 413.65,185.74 L 441.68,183.33 L 452.85,188.88 L 464.96,176.72 L 445.26,160.24 L 444.24,152.62 L 514.14,150.18 L 535.07,139.33 L 533.73,133.56 L 545.02,126.09 L 560.08,130.55 L 573.06,126.27 L 586.68,93.75 L 605.34,94.58 L 603.59,98.13 L 614.41,99.26 L 616.24,110.63 L 630.90,119.99 L 635.84,117.05 L 650.00,134.92 L 627.42,133.19 L 626.91,138.01 L 601.60,147.64 L 572.10,172.83 L 569.67,183.70 L 581.00,188.90 L 573.72,203.79 L 577.81,214.25 L 574.08,220.70 L 536.79,228.27 L 524.75,241.97 L 490.70,251.33 L 490.11,259.14 L 466.87,268.07 L 442.09,267.07 L 431.89,276.02 L 412.52,279.65 L 403.26,286.43 L 408.72,293.51 L 404.54,298.48 L 407.76,309.89 L 402.59,303.00 L 393.58,306.21 L 400.91,308.05 L 394.62,308.38 L 394.74,316.61 L 422.98,321.59 L 469.74,350.53 L 463.27,352.87 Z M 204.84,296.12 L 195.96,299.36 L 200.74,292.49 L 204.84,296.12 Z M 202.56,358.16 L 193.78,356.81 L 197.95,354.59 L 202.56,358.16 Z M 232.80,403.20 L 227.00,404.60 L 231.54,401.91 L 232.80,403.20 Z M 220.88,398.97 L 224.75,398.03 L 224.66,398.41 L 220.88,398.97 Z M 213.19,397.93 L 209.79,398.45 L 212.17,397.84 L 213.19,397.93 Z M 187.41,297.31 L 186.64,298.94 L 185.28,298.64 L 187.41,297.31 Z M 182.55,296.29 L 178.77,296.87 L 184.79,294.94 L 182.55,296.29 Z M 178.54,302.22 L 180.06,301.61 L 180.56,303.03 L 178.54,302.22 Z M 150.53,280.23 L 151.51,281.20 L 150.00,281.97 L 150.53,280.23 Z" fill="#4A90D9" stroke="#1a5fa8" stroke-width="1.2"/>
<path d="M 778.98,3.53 L 771.82,0.00 L 785.75,0.00 L 778.98,3.53 Z" fill="#A8C8E8" stroke="none"/>
<path d="M 357.03,63.52 L 356.07,57.23 L 342.60,58.25 L 345.48,53.05 L 341.33,55.60 L 339.60,51.58 L 352.87,48.60 L 347.80,53.67 L 359.66,57.28 L 357.03,63.52 Z" fill="#A8C8E8" stroke="none"/>
<path d="M 238.02,230.16 L 233.22,233.36 L 212.09,239.01 L 214.95,243.20 L 206.82,243.06 L 212.09,242.23 L 203.14,237.37 L 209.45,239.46 L 238.02,230.16 Z" fill="#A8C8E8" stroke="none"/>
</svg>