<svg xmlns="http://www.w3.org/2000/svg" width="800" height="500" viewBox="0 0 800 500">
<rect width="800" height="500" fill="#A8C8E8"/>
<path d="M 570.26,31.60 L 565.62,62.22 L 571.00,71.18 L 561.93,91.65 L 563.04,98.78 L 531.88,109.06 L 539.26,115.73 L 537.41,121.09 L 536.10,116.38 L 533.91,119.99 L 525.41,110.63 L 524.35,99.26 L 508.27,93.75 L 500.37,126.27 L 492.84,130.55 L 484.11,126.09 L 477.56,133.56 L 478.33,139.33 L 466.20,150.18 L 425.66,152.62 L 426.25,160.24 L 437.67,176.72 L 430.65,188.88 L 424.17,183.33 L 407.91,185.74 L 385.36,180.33 L 387.38,176.62 L 376.19,163.94 L 369.87,170.11 L 364.98,167.76 L 367.15,169.80 L 359.95,174.92 L 357.94,190.32 L 340.10,206.55 L 334.91,216.90 L 323.86,217.70 L 308.29,232.62 L 290.91,238.34 L 291.64,242.64 L 285.11,241.32 L 251.16,278.98 L 234.86,280.39 L 229.65,274.45 L 226.72,282.39 L 219.40,285.78 L 218.92,280.03 L 211.53,280.47 L 210.24,288.53 L 200.65,288.49 L 168.46,307.85 L 168.02,308.53 L 168.02,241.51 L 168.99,240.22 L 168.02,239.36 L 168.02,0.00 L 562.64,0.00 L 570.26,31.60 Z M 186.29,421.86 L 180.08,427.15 L 183.63,434.61 L 175.80,436.87 L 173.49,444.67 L 179.65,444.30 L 178.19,451.92 L 173.64,450.50 L 175.01,453.53 L 169.79,456.33 L 168.02,455.86 L 168.02,421.47 L 186.29,421.86 Z M 171.36,316.97 L 173.50,315.90 L 173.50,319.11 L 171.36,316.97 Z M 187.65,314.25 L 188.69,314.59 L 186.40,317.11 L 183.95,314.70 L 187.65,314.25 Z M 181.72,313.31 L 178.09,311.02 L 184.30,312.10 L 181.72,313.31 Z M 199.79,296.18 L 202.04,297.35 L 200.50,299.25 L 199.79,296.18 Z M 209.00,325.40 L 207.44,326.74 L 206.67,323.71 L 209.00,325.40 Z" fill="#C8D8E8" stroke="#8BAABB" stroke-width="0.8"/>
<path d="M 452.38,378.68 L 471.75,406.06 L 488.14,441.64 L 490.10,461.75 L 486.16,500.00 L 362.76,500.00 L 360.95,496.99 L 356.65,496.99 L 361.57,494.58 L 357.56,485.72 L 360.65,483.93 L 356.89,479.99 L 362.21,476.86 L 356.84,478.33 L 356.03,460.78 L 353.56,469.04 L 349.92,461.18 L 347.78,470.44 L 346.84,462.39 L 342.52,465.12 L 344.12,461.98 L 340.51,463.33 L 340.30,459.95 L 344.12,458.78 L 343.17,452.63 L 346.89,453.29 L 348.39,447.88 L 347.22,457.46 L 350.53,458.34 L 349.28,454.92 L 353.33,450.50 L 350.37,445.93 L 354.50,445.73 L 356.23,455.24 L 357.80,448.99 L 360.65,451.92 L 356.98,442.70 L 362.59,446.16 L 362.82,451.12 L 365.08,446.24 L 370.21,448.53 L 372.66,460.38 L 373.08,453.59 L 378.86,450.71 L 381.21,446.31 L 375.43,450.07 L 371.47,445.78 L 375.35,445.10 L 374.43,440.30 L 368.37,443.07 L 373.27,435.41 L 365.26,438.29 L 366.75,433.43 L 364.04,431.00 L 373.55,430.20 L 362.10,423.63 L 363.40,416.31 L 358.51,400.81 L 364.20,401.41 L 364.18,406.44 L 368.37,408.47 L 364.95,405.62 L 364.37,390.86 L 383.38,370.41 L 425.89,369.32 L 434.21,363.72 L 436.69,352.87 L 440.44,350.53 L 452.38,378.68 Z M 493.72,499.82 L 493.78,500.00 L 493.57,500.00 L 493.72,499.82 Z M 353.91,480.71 L 349.25,477.00 L 349.84,469.18 L 353.91,480.71 Z M 349.60,400.45 L 344.61,401.27 L 345.60,398.25 L 349.60,400.45 Z M 354.41,421.23 L 350.48,418.55 L 357.61,414.55 L 359.78,415.72 L 354.41,421.23 Z M 553.80,418.73 L 549.96,417.33 L 550.11,415.24 L 554.11,413.87 L 553.80,418.73 Z M 351.13,407.26 L 347.19,404.86 L 348.89,402.04 L 351.13,407.26 Z M 351.13,408.87 L 352.79,397.73 L 357.68,400.87 L 357.30,410.87 L 351.13,408.87 Z M 275.68,391.90 L 272.49,390.42 L 272.96,388.34 L 277.82,388.34 L 275.68,391.90 Z M 339.25,430.22 L 341.69,432.31 L 340.01,433.54 L 339.25,430.22 Z M 355.58,432.22 L 354.07,431.93 L 354.42,429.89 L 355.58,432.22 Z M 362.03,432.26 L 358.71,434.30 L 358.87,429.19 L 362.03,432.26 Z M 321.41,406.44 L 320.59,407.65 L 320.20,406.60 L 321.41,406.44 Z M 276.99,398.38 L 275.67,398.94 L 275.31,397.48 L 276.99,398.38 Z M 597.04,431.65 L 597.00,431.74 L 596.93,431.69 L 597.04,431.65 Z" fill="#C8D8E8" stroke="#8BAABB" stroke-width="0.8"/>
<path d="M 629.07,102.89 L 621.30,96.91 L 617.14,102.59 L 618.68,76.02 L 600.06,89.43 L 596.47,87.61 L 605.52,75.03 L 601.78,77.62 L 595.44,73.67 L 583.72,93.74 L 576.06,96.75 L 579.54,100.96 L 570.65,106.60 L 568.25,119.67 L 563.81,113.06 L 553.48,117.04 L 550.16,115.00 L 556.17,113.89 L 543.05,113.25 L 552.73,121.26 L 545.15,134.91 L 537.41,121.09 L 539.26,115.73 L 530.65,111.33 L 539.91,104.25 L 563.04,98.78 L 561.93,91.65 L 571.00,71.18 L 565.62,62.22 L 570.26,31.60 L 562.64,0.00 L 631.98,0.00 L 631.98,101.50 L 629.07,102.89 Z M 597.97,95.82 L 592.32,94.10 L 595.43,89.69 L 599.62,92.37 L 597.97,95.82 Z M 621.17,103.39 L 622.34,99.63 L 623.51,101.69 L 621.17,103.39 Z" fill="#C8D8E8" stroke="#8BAABB" stroke-width="0.8"/>
<path d="M 436.69,352.87 L 434.21,363.72 L 425.89,369.32 L 383.38,370.41 L 364.37,390.86 L 361.12,400.45 L 352.37,393.55 L 342.55,396.56 L 339.50,402.41 L 337.06,394.80 L 332.75,392.35 L 333.94,397.60 L 331.05,396.31 L 325.58,387.61 L 316.52,385.30 L 322.91,391.59 L 318.02,391.59 L 317.55,400.98 L 313.41,399.17 L 305.35,406.25 L 309.71,400.45 L 307.25,399.17 L 313.26,397.90 L 312.63,393.41 L 303.60,398.41 L 300.51,397.60 L 303.60,394.36 L 301.43,391.15 L 297.70,394.97 L 288.87,391.59 L 297.64,388.96 L 294.57,385.16 L 300.82,386.02 L 301.65,382.62 L 274.89,379.81 L 289.48,373.87 L 284.07,372.06 L 284.41,366.92 L 290.52,357.95 L 289.07,352.43 L 295.52,353.11 L 295.31,348.06 L 310.50,345.65 L 319.24,350.13 L 309.84,341.54 L 302.22,345.89 L 300.58,340.61 L 298.21,343.81 L 295.93,340.00 L 298.68,329.28 L 304.79,323.56 L 302.66,319.51 L 308.19,315.90 L 310.35,305.84 L 305.13,303.00 L 310.02,294.91 L 295.03,295.22 L 278.42,282.47 L 278.32,290.61 L 273.56,293.78 L 270.27,280.63 L 259.41,274.85 L 263.18,268.09 L 267.39,268.40 L 261.58,263.95 L 285.11,241.32 L 291.64,242.64 L 290.91,238.34 L 308.29,232.62 L 323.86,217.70 L 334.91,216.90 L 340.10,206.55 L 357.94,190.32 L 359.95,174.92 L 367.15,169.80 L 364.98,167.76 L 369.87,170.11 L 376.19,163.94 L 387.38,176.62 L 385.36,180.33 L 407.91,185.74 L 424.17,183.33 L 430.65,188.88 L 437.67,176.72 L 426.25,160.24 L 425.66,152.62 L 466.20,150.18 L 478.33,139.33 L 477.56,133.56 L 484.11,126.09 L 492.84,130.55 L 500.37,126.27 L 508.27,93.75 L 519.09,94.58 L 518.07,98.13 L 524.35,99.26 L 525.41,110.63 L 533.91,119.99 L 536.78,117.05 L 544.99,134.92 L 531.89,133.19 L 531.60,138.01 L 516.92,147.64 L 499.81,172.83 L 498.40,183.70 L 504.97,188.90 L 500.75,203.79 L 503.12,214.25 L 500.96,220.70 L 479.33,228.27 L 472.35,241.97 L 452.60,251.33 L 452.26,259.14 L 438.78,268.07 L 424.41,267.07 L 418.49,276.02 L 407.26,279.65 L 401.89,286.43 L 405.06,293.51 L 402.64,298.48 L 404.50,309.89 L 401.50,303.00 L 396.28,306.21 L 400.53,308.05 L 396.88,308.38 L 396.95,316.61 L 413.33,321.59 L 440.44,350.53 L 436.69,352.87 Z M 286.82,296.12 L 281.67,299.36 L 284.44,292.49 L 286.82,296.12 Z M 285.49,358.16 L 280.40,356.81 L 282.82,354.59 L 285.49,358.16 Z M 303.03,403.20 L 299.66,404.60 L 302.30,401.91 L 303.03,403.20 Z M 296.12,398.97 L 298.36,398.03 L 298.31,398.41 L 296.12,398.97 Z M 291.66,397.93 L 289.69,398.45 L 291.07,397.84 L 291.66,397.93 Z M 276.71,297.31 L 276.26,298.94 L 275.47,298.64 L 276.71,297.31 Z M 273.89,296.29 L 271.70,296.87 L 275.19,294.94 L 273.89,296.29 Z M 271.56,302.22 L 272.44,301.61 L 272.73,303.03 L 271.56,302.22 Z M 255.32,280.23 L 255.89,281.20 L 255.01,281.97 L 255.32,280.23 Z" fill="#4A90D9" stroke="#1a5fa8" stroke-width="1.2"/>
<path d="M 619.79,3.53 L 615.64,0.00 L 623.72,0.00 L 619.79,3.53 Z" fill="#A8C8E8" stroke="none"/>
<path d="M 375.08,63.52 L 374.52,57.23 L 366.71,58.25 L 368.38,53.05 L 365.97,55.60 L 364.97,51.58 L 372.67,48.60 L 369.73,53.67 L 376.61,57.28 L 375.08,63.52 Z" fill="#A8C8E8" stroke="none"/>
<path d="M 306.06,230.16 L 303.28,233.36 L 291.02,239.01 L 292.68,243.20 L 287.96,243.06 L 291.02,242.23 L 285.83,237.37 L 289.49,239.46 L 306.06,230.16 Z" fill="#A8C8E8" stroke="none"/>
</svg>