<svg xmlns="http://www.w3.org/2000/svg" width="800" height="500" viewBox="0 0 800 500">
<rect width="800" height="500" fill="#A8C8E8"/>
<path d="M 117.14,23.61 L 92.02,24.99 L 84.00,19.17 L 79.49,26.95 L 68.20,30.27 L 67.47,24.64 L 56.08,25.07 L 54.09,32.97 L 39.33,32.93 L 0.00,47.98 L 0.00,0.00 L 150.58,0.00 L 117.14,23.61 Z M 17.20,163.69 L 7.64,168.87 L 13.10,176.18 L 1.03,178.40 L 0.00,180.63 L 0.00,163.45 L 17.20,163.69 Z M 6.97,185.69 L 4.72,193.16 L 0.00,192.22 L 0.00,185.96 L 6.97,185.69 Z M 19.29,58.19 L 20.90,58.52 L 17.36,60.99 L 13.59,58.63 L 19.29,58.19 Z M 10.16,57.26 L 4.56,55.02 L 14.14,56.08 L 10.16,57.26 Z M 37.99,40.47 L 41.46,41.61 L 39.09,43.48 L 37.99,40.47 Z M 52.19,69.12 L 49.78,70.43 L 48.60,67.46 L 52.19,69.12 Z" fill="#E8E0D0" stroke="#B8B0A0" stroke-width="0.5"/>
<path d="M 507.71,489.87 L 502.86,495.70 L 498.04,495.83 L 506.58,486.75 L 507.71,489.87 Z M 617.79,500.00 L 573.91,500.00 L 575.08,491.90 L 566.01,491.64 L 560.26,500.00 L 544.25,500.00 L 533.36,487.30 L 537.75,485.61 L 533.94,469.83 L 543.57,468.40 L 556.88,455.74 L 567.63,437.85 L 552.43,439.43 L 564.71,434.67 L 563.70,429.98 L 551.97,422.02 L 550.55,412.58 L 538.18,406.79 L 530.33,410.66 L 536.86,419.06 L 528.80,424.77 L 544.94,425.89 L 546.42,435.60 L 532.98,441.07 L 530.37,435.83 L 535.85,431.90 L 528.00,429.44 L 503.62,442.48 L 511.81,433.49 L 496.59,421.86 L 499.57,412.21 L 509.34,418.81 L 507.35,424.83 L 521.75,426.53 L 517.78,416.72 L 504.04,413.85 L 501.51,408.27 L 498.53,411.80 L 490.64,404.62 L 492.59,396.26 L 498.99,394.68 L 511.29,401.50 L 512.47,394.74 L 506.86,391.45 L 512.66,392.12 L 511.40,385.81 L 522.69,391.96 L 533.12,386.87 L 527.95,384.61 L 535.88,379.33 L 541.55,384.56 L 548.49,382.80 L 549.03,379.10 L 545.60,380.71 L 541.48,378.38 L 552.20,376.27 L 555.26,368.37 L 573.68,363.29 L 584.55,366.31 L 591.00,362.00 L 587.86,370.62 L 597.61,381.68 L 615.86,384.53 L 626.45,378.68 L 636.54,379.21 L 641.36,389.72 L 631.63,397.51 L 625.41,396.72 L 625.71,401.88 L 652.77,402.31 L 646.35,410.28 L 659.21,412.35 L 652.80,418.60 L 665.08,420.90 L 636.02,447.75 L 617.79,500.00 Z M 562.29,499.05 L 570.86,500.00 L 565.24,500.00 L 562.29,499.05 Z M 792.28,389.20 L 779.46,386.68 L 748.62,396.63 L 744.01,408.47 L 728.58,418.38 L 728.61,434.23 L 722.60,430.41 L 702.78,431.90 L 708.40,422.84 L 694.26,423.87 L 692.00,415.28 L 685.86,416.49 L 693.29,409.98 L 686.71,405.89 L 697.31,404.56 L 695.74,399.51 L 685.60,399.23 L 688.53,392.03 L 660.21,397.53 L 706.15,376.42 L 708.62,365.54 L 722.88,356.10 L 721.39,352.98 L 737.22,363.88 L 763.71,362.04 L 772.69,355.48 L 766.97,345.10 L 776.84,346.72 L 793.09,338.44 L 800.00,337.98 L 800.00,395.81 L 792.28,389.20 Z M 736.96,241.25 L 733.92,243.67 L 734.07,240.26 L 736.96,241.25 Z M 734.89,237.77 L 736.30,238.34 L 734.89,238.55 L 734.89,237.77 Z M 731.56,241.70 L 724.97,241.30 L 731.13,237.34 L 731.56,241.70 Z M 747.89,341.53 L 745.52,335.48 L 741.26,343.89 L 733.73,345.09 L 740.08,339.60 L 734.89,337.60 L 704.75,348.57 L 697.73,348.96 L 695.18,339.71 L 683.35,339.96 L 674.83,346.28 L 670.63,369.16 L 663.34,372.87 L 666.34,367.40 L 644.28,361.79 L 647.26,358.51 L 641.65,356.81 L 620.94,361.26 L 617.40,357.75 L 608.30,364.37 L 592.96,357.28 L 584.70,365.00 L 582.19,363.62 L 583.13,340.26 L 592.82,338.06 L 587.66,335.43 L 602.42,338.87 L 602.32,335.31 L 607.93,334.86 L 609.90,336.55 L 606.34,335.99 L 604.92,338.77 L 619.08,335.63 L 631.68,322.06 L 649.72,318.90 L 703.54,285.49 L 703.31,277.07 L 734.75,267.82 L 749.76,269.22 L 746.71,273.89 L 756.06,276.30 L 768.48,271.73 L 800.00,271.21 L 800.00,325.18 L 797.05,324.99 L 793.07,326.23 L 800.00,326.53 L 800.00,327.17 L 793.04,334.06 L 783.26,334.54 L 778.36,329.66 L 757.58,334.42 L 747.89,341.53 Z M 534.92,465.05 L 531.83,468.85 L 529.19,464.08 L 534.92,465.05 Z M 553.85,445.75 L 546.52,453.62 L 536.23,450.08 L 553.85,445.75 Z M 535.56,455.70 L 521.22,464.23 L 518.86,460.69 L 525.97,457.55 L 520.13,456.04 L 521.73,444.50 L 532.60,443.75 L 535.56,455.70 Z M 436.90,442.29 L 424.99,439.85 L 429.16,430.14 L 439.35,429.15 L 444.17,436.40 L 436.90,442.29 Z M 465.16,418.51 L 455.71,427.87 L 455.85,422.81 L 451.28,419.91 L 458.35,416.28 L 460.02,408.03 L 459.31,418.30 L 465.16,418.51 Z M 486.57,403.51 L 481.01,407.36 L 476.18,407.28 L 490.88,393.97 L 486.57,403.51 Z M 678.31,373.37 L 672.47,372.73 L 673.88,371.55 L 678.31,373.37 Z M 502.29,377.45 L 497.88,374.87 L 500.06,367.46 L 506.11,373.09 L 502.29,377.45 Z M 673.41,363.22 L 691.87,363.62 L 685.28,369.16 L 673.41,363.22 Z M 690.89,354.97 L 695.30,350.00 L 699.33,353.20 L 690.89,354.97 Z M 725.34,348.63 L 730.53,343.04 L 732.03,347.24 L 725.34,348.63 Z M 471.63,352.61 L 464.39,353.89 L 466.86,341.08 L 474.11,343.93 L 471.63,352.61 Z M 477.51,336.69 L 480.20,340.58 L 468.34,339.57 L 474.85,322.72 L 484.60,319.69 L 477.51,336.69 Z M 731.57,243.72 L 733.92,245.24 L 730.38,245.24 L 731.57,243.72 Z M 750.95,235.77 L 741.41,232.43 L 748.60,225.15 L 753.78,229.08 L 750.95,235.77 Z M 513.94,486.11 L 509.15,484.11 L 510.84,482.09 L 516.93,482.82 L 513.94,486.11 Z M 539.67,459.01 L 536.06,460.51 L 536.50,458.69 L 539.67,459.01 Z M 552.63,442.77 L 551.02,444.27 L 549.04,441.06 L 552.63,442.77 Z M 698.85,433.91 L 697.40,434.66 L 696.72,432.96 L 698.85,433.91 Z M 444.44,431.14 L 441.53,430.44 L 441.33,427.20 L 444.44,431.14 Z M 448.77,428.89 L 444.33,425.54 L 447.69,426.28 L 448.77,428.89 Z M 454.22,426.38 L 450.35,424.90 L 451.49,421.71 L 454.22,426.38 Z M 461.33,403.37 L 457.73,402.66 L 458.70,401.32 L 461.33,403.37 Z M 492.31,389.51 L 487.26,390.35 L 489.92,388.41 L 492.31,389.51 Z M 703.24,362.07 L 700.12,362.55 L 700.62,361.14 L 703.24,362.07 Z M 731.57,353.22 L 729.64,353.20 L 730.74,349.14 L 734.91,350.01 L 731.57,353.22 Z M 710.52,350.83 L 707.01,349.11 L 708.39,348.33 L 710.52,350.83 Z M 722.72,347.27 L 718.11,347.65 L 717.87,346.21 L 723.02,344.07 L 722.72,347.27 Z M 681.94,344.80 L 677.96,345.97 L 680.10,343.21 L 681.94,344.80 Z M 778.52,338.66 L 776.96,339.79 L 776.18,338.25 L 778.52,338.66 Z" fill="#E8E0D0" stroke="#B8B0A0" stroke-width="0.5"/>
<path d="M 402.97,96.05 L 399.14,106.68 L 386.33,112.18 L 320.84,113.24 L 291.55,133.29 L 286.55,142.69 L 273.06,135.94 L 257.94,138.89 L 253.24,144.62 L 249.47,137.15 L 242.83,134.76 L 244.67,139.91 L 240.22,138.64 L 231.79,130.11 L 217.83,127.85 L 227.68,134.01 L 220.15,134.01 L 219.43,143.22 L 213.04,141.44 L 200.62,148.38 L 207.34,142.69 L 203.55,141.44 L 212.81,140.19 L 211.84,135.79 L 197.92,140.69 L 193.17,139.91 L 197.92,136.72 L 194.59,133.58 L 188.83,137.33 L 175.24,134.01 L 188.75,131.43 L 184.01,127.71 L 193.64,128.55 L 194.92,125.21 L 153.70,122.46 L 176.17,116.63 L 167.84,114.87 L 168.36,109.82 L 177.78,101.03 L 175.54,95.62 L 185.48,96.29 L 185.16,91.33 L 208.56,88.97 L 222.02,93.37 L 207.54,84.94 L 195.80,89.20 L 193.27,84.03 L 189.63,87.17 L 186.12,83.43 L 190.35,72.92 L 199.76,67.31 L 196.47,63.35 L 204.99,59.80 L 208.33,49.94 L 200.28,47.15 L 207.81,39.22 L 184.72,39.53 L 159.14,27.03 L 158.99,35.01 L 151.64,38.11 L 146.58,25.23 L 129.85,19.56 L 135.66,12.93 L 142.14,13.24 L 133.19,8.87 L 147.69,0.00 L 427.24,0.00 L 426.96,4.15 L 406.19,12.91 L 384.05,11.93 L 374.93,20.70 L 357.63,24.27 L 349.35,30.91 L 354.23,37.85 L 350.50,42.72 L 353.37,53.91 L 348.75,47.16 L 340.71,50.30 L 347.26,52.10 L 341.64,52.43 L 341.74,60.50 L 366.98,65.38 L 408.75,93.75 L 402.97,96.05 Z M 172.07,40.41 L 164.14,43.59 L 168.41,36.85 L 172.07,40.41 Z M 170.03,101.23 L 162.19,99.91 L 165.91,97.73 L 170.03,101.23 Z M 197.05,145.39 L 191.86,146.76 L 195.93,144.13 L 197.05,145.39 Z M 186.40,141.25 L 189.85,140.33 L 189.78,140.70 L 186.40,141.25 Z M 179.53,140.22 L 176.49,140.73 L 178.62,140.13 L 179.53,140.22 Z M 156.49,41.57 L 155.80,43.18 L 154.59,42.88 L 156.49,41.57 Z M 152.15,40.58 L 148.78,41.14 L 154.15,39.26 L 152.15,40.58 Z M 148.57,46.39 L 149.93,45.79 L 150.38,47.18 L 148.57,46.39 Z M 123.54,24.83 L 124.42,25.78 L 123.07,26.54 L 123.54,24.83 Z" fill="#C8D8E8" stroke="#8BAABB" stroke-width="0.8"/>
<path d="M 427.14,121.35 L 456.98,148.20 L 482.23,183.08 L 485.24,202.80 L 478.82,242.48 L 483.82,245.26 L 490.82,240.12 L 493.06,243.90 L 483.91,272.90 L 478.32,271.78 L 477.42,282.10 L 452.58,299.81 L 449.66,294.57 L 431.89,296.92 L 425.11,290.14 L 428.56,298.92 L 416.56,296.75 L 409.20,301.68 L 417.25,299.51 L 413.61,311.49 L 406.69,305.49 L 387.42,306.39 L 388.36,297.71 L 376.07,305.53 L 364.21,303.03 L 354.28,307.43 L 359.89,313.29 L 368.10,311.15 L 365.75,318.26 L 357.66,319.83 L 358.80,324.46 L 353.28,321.91 L 350.56,308.80 L 339.80,312.59 L 349.34,325.99 L 338.70,326.31 L 344.90,328.91 L 338.30,334.42 L 323.19,328.91 L 329.32,323.37 L 327.91,326.94 L 331.62,326.43 L 333.55,319.44 L 339.29,319.83 L 331.71,315.90 L 315.31,324.77 L 307.56,335.99 L 301.49,334.06 L 299.28,326.27 L 295.77,335.11 L 289.33,337.26 L 287.24,342.74 L 281.58,343.10 L 277.76,332.84 L 282.85,327.62 L 265.99,326.12 L 265.65,316.84 L 271.14,324.98 L 277.67,326.37 L 271.74,319.09 L 282.58,324.16 L 288.64,323.77 L 270.74,316.90 L 291.52,313.51 L 285.34,312.72 L 284.78,308.13 L 281.03,314.99 L 271.39,314.51 L 275.73,303.53 L 267.37,306.03 L 271.43,301.49 L 263.16,295.35 L 269.29,293.42 L 274.95,301.32 L 276.83,296.68 L 266.94,289.02 L 277.25,282.56 L 279.61,272.21 L 293.39,271.69 L 277.88,265.62 L 291.30,256.79 L 299.57,258.68 L 294.14,253.60 L 303.39,251.02 L 287.86,251.19 L 281.59,246.57 L 296.98,245.47 L 305.68,241.30 L 293.39,244.88 L 286.28,237.34 L 279.66,237.34 L 287.24,234.98 L 281.06,226.29 L 285.81,224.54 L 280.03,220.68 L 288.22,217.61 L 279.95,219.05 L 278.71,201.85 L 274.89,209.94 L 269.29,202.24 L 265.99,211.32 L 264.54,203.42 L 257.89,206.10 L 260.35,203.02 L 254.79,204.34 L 254.47,201.03 L 260.35,199.88 L 258.89,193.86 L 264.61,194.50 L 266.94,189.20 L 265.13,198.59 L 270.23,199.45 L 268.30,196.10 L 274.54,191.76 L 269.98,187.29 L 276.35,187.09 L 279.00,196.41 L 281.43,190.29 L 285.81,193.16 L 280.17,184.12 L 288.81,187.51 L 289.16,192.38 L 292.64,187.59 L 300.55,189.84 L 304.31,201.45 L 304.96,194.80 L 313.88,191.97 L 317.50,187.66 L 308.58,191.34 L 302.49,187.14 L 308.46,186.48 L 307.05,181.76 L 297.72,184.48 L 305.26,176.97 L 292.92,179.79 L 295.22,175.03 L 291.04,172.64 L 305.68,171.86 L 288.05,165.42 L 290.06,158.24 L 282.52,143.05 L 291.28,143.64 L 291.25,148.57 L 297.72,150.55 L 292.45,147.77 L 291.55,133.29 L 320.84,113.24 L 386.33,112.18 L 399.14,106.68 L 402.97,96.05 L 408.75,93.75 L 427.14,121.35 Z M 275.43,221.38 L 268.26,217.74 L 269.16,210.08 L 275.43,221.38 Z M 268.80,142.69 L 261.11,143.50 L 262.62,140.54 L 268.80,142.69 Z M 303.61,399.76 L 287.49,403.77 L 264.25,406.25 L 256.74,400.31 L 267.05,390.88 L 279.08,387.64 L 300.28,385.16 L 310.88,390.10 L 303.61,399.76 Z M 330.76,332.38 L 331.29,334.39 L 322.70,334.85 L 330.76,332.38 Z M 260.11,339.38 L 252.75,336.85 L 262.71,326.94 L 271.84,331.34 L 260.11,339.38 Z M 370.97,323.72 L 369.64,326.66 L 365.36,324.04 L 368.55,320.62 L 370.97,323.72 Z M 244.03,322.24 L 239.83,320.44 L 244.02,318.11 L 244.03,322.24 Z M 240.80,318.43 L 238.22,317.62 L 239.62,315.30 L 246.12,315.07 L 240.80,318.43 Z M 251.20,309.89 L 244.70,310.36 L 247.56,307.65 L 251.20,309.89 Z M 387.44,319.83 L 379.28,315.87 L 376.14,319.00 L 371.81,310.00 L 376.83,305.91 L 378.06,311.93 L 388.38,313.11 L 387.44,319.83 Z M 431.44,317.65 L 423.86,319.44 L 425.28,311.93 L 417.27,310.00 L 428.10,308.75 L 425.70,305.05 L 432.06,300.56 L 435.21,310.00 L 431.44,317.65 Z M 250.39,296.56 L 257.02,294.19 L 254.44,295.52 L 253.26,299.51 L 250.39,296.56 Z M 276.21,163.07 L 270.15,160.44 L 281.14,156.52 L 284.48,157.66 L 276.21,163.07 Z M 583.38,160.62 L 577.47,159.24 L 577.70,157.19 L 583.86,155.85 L 583.38,160.62 Z M 271.16,149.38 L 265.08,147.02 L 267.70,144.26 L 271.16,149.38 Z M 271.16,150.95 L 273.71,140.03 L 281.24,143.11 L 280.65,152.92 L 271.16,150.95 Z M 154.92,134.31 L 150.00,132.87 L 150.72,130.83 L 158.21,130.83 L 154.92,134.31 Z M 336.92,359.71 L 335.00,359.23 L 333.92,356.73 L 336.92,359.71 Z M 348.72,336.19 L 345.88,332.94 L 349.78,332.98 L 348.72,336.19 Z M 367.80,331.93 L 363.41,329.30 L 366.20,328.31 L 367.80,331.93 Z M 252.48,327.87 L 248.05,329.30 L 251.24,326.60 L 249.77,324.29 L 252.48,327.87 Z M 247.04,327.14 L 247.60,323.52 L 249.79,326.40 L 247.04,327.14 Z M 208.33,320.49 L 204.16,323.65 L 205.13,320.20 L 208.33,320.49 Z M 253.31,318.71 L 250.43,315.72 L 256.91,316.57 L 253.31,318.71 Z M 255.71,316.17 L 252.01,314.69 L 255.93,313.51 L 255.71,316.17 Z M 250.26,311.06 L 256.11,309.88 L 253.62,313.79 L 250.26,311.06 Z M 382.70,311.78 L 381.07,310.53 L 384.81,307.26 L 388.60,311.38 L 382.70,311.78 Z M 261.17,307.44 L 260.97,306.38 L 263.09,306.29 L 261.17,307.44 Z M 257.52,301.10 L 254.44,299.68 L 255.55,299.14 L 257.52,301.10 Z M 440.60,302.90 L 439.06,299.21 L 441.27,299.01 L 440.60,302.90 Z M 263.49,268.00 L 266.82,266.95 L 266.71,267.72 L 263.49,268.00 Z M 252.85,171.88 L 256.61,173.93 L 254.01,175.14 L 252.85,171.88 Z M 278.01,173.84 L 275.68,173.56 L 276.22,171.56 L 278.01,173.84 Z M 287.95,173.88 L 282.83,175.88 L 283.08,170.88 L 287.95,173.88 Z M 225.36,148.57 L 224.10,149.76 L 223.50,148.72 L 225.36,148.57 Z M 156.94,140.67 L 154.89,141.22 L 154.34,139.79 L 156.94,140.67 Z M 183.01,355.91 L 183.70,354.52 L 186.06,356.63 L 183.01,355.91 Z M 287.95,351.26 L 280.60,352.05 L 282.38,349.73 L 287.95,351.26 Z M 289.68,352.66 L 290.14,348.69 L 291.89,349.11 L 289.68,352.66 Z M 308.64,350.96 L 304.48,350.89 L 305.49,348.10 L 308.64,350.96 Z M 285.90,349.93 L 283.55,349.03 L 284.24,346.54 L 285.90,349.93 Z M 250.41,343.98 L 247.12,343.02 L 247.92,341.91 L 250.41,343.98 Z M 303.61,342.57 L 297.88,340.69 L 307.24,340.39 L 303.61,342.57 Z M 317.28,342.02 L 314.01,339.53 L 316.36,338.08 L 320.92,340.18 L 317.28,342.02 Z M 293.15,342.70 L 290.17,337.84 L 294.60,337.42 L 298.32,342.24 L 293.15,342.70 Z M 302.39,334.71 L 305.02,337.42 L 299.13,339.62 L 302.39,334.71 Z M 399.87,324.89 L 399.12,323.60 L 400.10,322.47 L 403.90,323.21 L 399.87,324.89 Z M 413.79,312.85 L 412.76,316.09 L 406.48,312.49 L 413.79,312.85 Z M 400.03,314.15 L 397.78,313.08 L 399.26,311.75 L 400.03,314.15 Z M 269.22,312.68 L 261.54,310.83 L 266.14,307.21 L 269.22,312.68 Z M 257.69,298.53 L 256.57,297.03 L 261.91,296.79 L 257.69,298.53 Z M 650.00,173.29 L 649.94,173.37 L 649.84,173.33 L 650.00,173.29 Z" fill="#4A90D9" stroke="#1a5fa8" stroke-width="1.2"/>
</svg>