<svg xmlns="http://www.w3.org/2000/svg" width="800" height="500" viewBox="0 0 800 500">
<rect width="800" height="500" fill="#A8C8E8"/>
<path d="M 208.74,23.61 L 191.75,24.99 L 186.33,19.17 L 183.28,26.95 L 175.65,30.27 L 175.15,24.64 L 167.45,25.07 L 166.11,32.97 L 156.12,32.93 L 129.53,47.98 L 129.53,0.00 L 231.35,0.00 L 208.74,23.61 Z M 141.16,163.69 L 134.69,168.87 L 138.39,176.18 L 130.23,178.40 L 129.53,180.63 L 129.53,163.45 L 141.16,163.69 Z M 134.25,185.69 L 132.72,193.16 L 129.53,192.22 L 129.53,185.96 L 134.25,185.69 Z M 142.57,58.19 L 143.66,58.52 L 141.27,60.99 L 138.72,58.63 L 142.57,58.19 Z M 136.40,57.26 L 132.61,55.02 L 139.09,56.08 L 136.40,57.26 Z M 155.22,40.47 L 157.57,41.61 L 155.96,43.48 L 155.22,40.47 Z M 164.82,69.12 L 163.19,70.43 L 162.39,67.46 L 164.82,69.12 Z" fill="#E8E0D0" stroke="#B8B0A0" stroke-width="0.5"/>
<path d="M 472.83,489.87 L 469.55,495.70 L 466.29,495.83 L 472.07,486.75 L 472.83,489.87 Z M 547.27,500.00 L 517.59,500.00 L 518.39,491.90 L 512.25,491.64 L 508.36,500.00 L 497.54,500.00 L 490.17,487.30 L 493.14,485.61 L 490.56,469.83 L 497.08,468.40 L 506.08,455.74 L 513.35,437.85 L 503.07,439.43 L 511.37,434.67 L 510.69,429.98 L 502.76,422.02 L 501.80,412.58 L 493.43,406.79 L 488.13,410.66 L 492.54,419.06 L 487.09,424.77 L 498.01,425.89 L 499.01,435.60 L 489.92,441.07 L 488.15,435.83 L 491.86,431.90 L 486.55,429.44 L 470.07,442.48 L 475.60,433.49 L 465.31,421.86 L 467.33,412.21 L 473.93,418.81 L 472.59,424.83 L 482.32,426.53 L 479.64,416.72 L 470.35,413.85 L 468.64,408.27 L 466.62,411.80 L 461.29,404.62 L 462.61,396.26 L 466.93,394.68 L 475.25,401.50 L 476.05,394.74 L 472.25,391.45 L 476.18,392.12 L 475.33,385.81 L 482.96,391.96 L 490.01,386.87 L 486.51,384.61 L 491.88,379.33 L 495.72,384.56 L 500.41,382.80 L 500.77,379.10 L 498.45,380.71 L 495.67,378.38 L 502.91,376.27 L 504.98,368.37 L 517.44,363.29 L 524.79,366.31 L 529.15,362.00 L 527.03,370.62 L 533.62,381.68 L 545.96,384.53 L 553.12,378.68 L 559.94,379.21 L 563.20,389.72 L 556.62,397.51 L 552.42,396.72 L 552.62,401.88 L 570.91,402.31 L 566.57,410.28 L 575.27,412.35 L 570.94,418.60 L 579.24,420.90 L 559.59,447.75 L 547.27,500.00 Z M 509.74,499.05 L 515.53,500.00 L 511.73,500.00 L 509.74,499.05 Z M 665.25,389.20 L 656.58,386.68 L 635.73,396.63 L 632.61,408.47 L 622.17,418.38 L 622.20,434.23 L 618.13,430.41 L 604.73,431.90 L 608.53,422.84 L 598.97,423.87 L 597.45,415.28 L 593.29,416.49 L 598.31,409.98 L 593.86,405.89 L 601.03,404.56 L 599.97,399.51 L 593.12,399.23 L 595.10,392.03 L 575.95,397.53 L 607.01,376.42 L 608.68,365.54 L 618.32,356.10 L 617.31,352.98 L 628.02,363.88 L 645.93,362.04 L 652.01,355.48 L 648.14,345.10 L 654.81,346.72 L 665.80,338.44 L 670.47,337.98 L 670.47,395.81 L 665.25,389.20 Z M 627.84,241.25 L 625.79,243.67 L 625.89,240.26 L 627.84,241.25 Z M 626.45,237.77 L 627.39,238.34 L 626.45,238.55 L 626.45,237.77 Z M 624.19,241.70 L 619.74,241.30 L 623.90,237.34 L 624.19,241.70 Z M 635.24,341.53 L 633.63,335.48 L 630.75,343.89 L 625.66,345.09 L 629.95,339.60 L 626.45,337.60 L 606.06,348.57 L 601.32,348.96 L 599.60,339.71 L 591.59,339.96 L 585.83,346.28 L 582.99,369.16 L 578.06,372.87 L 580.09,367.40 L 565.17,361.79 L 567.19,358.51 L 563.40,356.81 L 549.39,361.26 L 547.00,357.75 L 540.85,364.37 L 530.48,357.28 L 524.89,365.00 L 523.19,363.62 L 523.83,340.26 L 530.38,338.06 L 526.89,335.43 L 536.87,338.87 L 536.81,335.31 L 540.60,334.86 L 541.93,336.55 L 539.52,335.99 L 538.56,338.77 L 548.14,335.63 L 556.65,322.06 L 568.85,318.90 L 605.24,285.49 L 605.09,277.07 L 626.35,267.82 L 636.50,269.22 L 634.44,273.89 L 640.76,276.30 L 649.16,271.73 L 670.47,271.21 L 670.47,325.18 L 668.47,324.99 L 665.78,326.23 L 670.47,326.53 L 670.47,327.17 L 665.76,334.06 L 659.15,334.54 L 655.83,329.66 L 641.79,334.42 L 635.24,341.53 Z M 491.23,465.05 L 489.14,468.85 L 487.36,464.08 L 491.23,465.05 Z M 504.03,445.75 L 499.07,453.62 L 492.11,450.08 L 504.03,445.75 Z M 491.66,455.70 L 481.96,464.23 L 480.37,460.69 L 485.18,457.55 L 481.23,456.04 L 482.31,444.50 L 489.66,443.75 L 491.66,455.70 Z M 424.95,442.29 L 416.90,439.85 L 419.72,430.14 L 426.60,429.15 L 429.87,436.40 L 424.95,442.29 Z M 444.06,418.51 L 437.67,427.87 L 437.77,422.81 L 434.67,419.91 L 439.45,416.28 L 440.58,408.03 L 440.11,418.30 L 444.06,418.51 Z M 458.53,403.51 L 454.78,407.36 L 451.51,407.28 L 461.45,393.97 L 458.53,403.51 Z M 588.19,373.37 L 584.24,372.73 L 585.19,371.55 L 588.19,373.37 Z M 469.17,377.45 L 466.18,374.87 L 467.65,367.46 L 471.75,373.09 L 469.17,377.45 Z M 584.87,363.22 L 597.35,363.62 L 592.90,369.16 L 584.87,363.22 Z M 596.69,354.97 L 599.68,350.00 L 602.40,353.20 L 596.69,354.97 Z M 619.99,348.63 L 623.50,343.04 L 624.51,347.24 L 619.99,348.63 Z M 448.44,352.61 L 443.54,353.89 L 445.21,341.08 L 450.11,343.93 L 448.44,352.61 Z M 452.41,336.69 L 454.23,340.58 L 446.21,339.57 L 450.61,322.72 L 457.20,319.69 L 452.41,336.69 Z M 624.20,243.72 L 625.79,245.24 L 623.39,245.24 L 624.20,243.72 Z M 637.30,235.77 L 630.85,232.43 L 635.71,225.15 L 639.21,229.08 L 637.30,235.77 Z M 477.04,486.11 L 473.81,484.11 L 474.95,482.09 L 479.07,482.82 L 477.04,486.11 Z M 494.44,459.01 L 492.00,460.51 L 492.30,458.69 L 494.44,459.01 Z M 503.21,442.77 L 502.12,444.27 L 500.77,441.06 L 503.21,442.77 Z M 602.08,433.91 L 601.09,434.66 L 600.64,432.96 L 602.08,433.91 Z M 430.05,431.14 L 428.08,430.44 L 427.95,427.20 L 430.05,431.14 Z M 432.97,428.89 L 429.97,425.54 L 432.25,426.28 L 432.97,428.89 Z M 436.66,426.38 L 434.05,424.90 L 434.82,421.71 L 436.66,426.38 Z M 441.47,403.37 L 439.04,402.66 L 439.69,401.32 L 441.47,403.37 Z M 462.42,389.51 L 459.00,390.35 L 460.80,388.41 L 462.42,389.51 Z M 605.05,362.07 L 602.93,362.55 L 603.27,361.14 L 605.05,362.07 Z M 624.20,353.22 L 622.89,353.20 L 623.64,349.14 L 626.46,350.01 L 624.20,353.22 Z M 609.97,350.83 L 607.59,349.11 L 608.52,348.33 L 609.97,350.83 Z M 618.21,347.27 L 615.10,347.65 L 614.93,346.21 L 618.42,344.07 L 618.21,347.27 Z M 590.64,344.80 L 587.95,345.97 L 589.39,343.21 L 590.64,344.80 Z M 655.95,338.66 L 654.89,339.79 L 654.37,338.25 L 655.95,338.66 Z" fill="#E8E0D0" stroke="#B8B0A0" stroke-width="0.5"/>
<path d="M 402.01,96.05 L 399.42,106.68 L 390.76,112.18 L 346.48,113.24 L 326.67,133.29 L 323.29,142.69 L 314.17,135.94 L 303.94,138.89 L 300.76,144.62 L 298.22,137.15 L 293.73,134.76 L 294.97,139.91 L 291.96,138.64 L 286.26,130.11 L 276.82,127.85 L 283.48,134.01 L 278.39,134.01 L 277.90,143.22 L 273.58,141.44 L 265.18,148.38 L 269.73,142.69 L 267.16,141.44 L 273.42,140.19 L 272.77,135.79 L 263.36,140.69 L 260.15,139.91 L 263.36,136.72 L 261.10,133.58 L 257.21,137.33 L 248.02,134.01 L 257.16,131.43 L 253.95,127.71 L 260.47,128.55 L 261.33,125.21 L 233.46,122.46 L 248.65,116.63 L 243.02,114.87 L 243.37,109.82 L 249.74,101.03 L 248.23,95.62 L 254.95,96.29 L 254.73,91.33 L 270.56,88.97 L 279.66,93.37 L 269.86,84.94 L 261.93,89.20 L 260.22,84.03 L 257.75,87.17 L 255.38,83.43 L 258.24,72.92 L 264.60,67.31 L 262.38,63.35 L 268.14,59.80 L 270.40,49.94 L 264.95,47.15 L 270.05,39.22 L 254.43,39.53 L 237.14,27.03 L 237.03,35.01 L 232.07,38.11 L 228.64,25.23 L 217.33,19.56 L 221.26,12.93 L 225.64,13.24 L 219.59,8.87 L 229.39,0.00 L 418.42,0.00 L 418.23,4.15 L 404.18,12.91 L 389.22,11.93 L 383.05,20.70 L 371.35,24.27 L 365.75,30.91 L 369.05,37.85 L 366.53,42.72 L 368.47,53.91 L 365.35,47.16 L 359.91,50.30 L 364.34,52.10 L 360.54,52.43 L 360.60,60.50 L 377.67,65.38 L 405.92,93.75 L 402.01,96.05 Z M 245.88,40.41 L 240.51,43.59 L 243.40,36.85 L 245.88,40.41 Z M 244.50,101.23 L 239.20,99.91 L 241.71,97.73 L 244.50,101.23 Z M 262.77,145.39 L 259.26,146.76 L 262.01,144.13 L 262.77,145.39 Z M 255.57,141.25 L 257.90,140.33 L 257.85,140.70 L 255.57,141.25 Z M 250.92,140.22 L 248.87,140.73 L 250.31,140.13 L 250.92,140.22 Z M 235.35,41.57 L 234.88,43.18 L 234.06,42.88 L 235.35,41.57 Z M 232.41,40.58 L 230.13,41.14 L 233.76,39.26 L 232.41,40.58 Z M 229.99,46.39 L 230.91,45.79 L 231.21,47.18 L 229.99,46.39 Z M 213.07,24.83 L 213.66,25.78 L 212.75,26.54 L 213.07,24.83 Z" fill="#C8D8E8" stroke="#8BAABB" stroke-width="0.8"/>
<path d="M 418.35,121.35 L 438.53,148.20 L 455.60,183.08 L 457.64,202.80 L 453.30,242.48 L 456.68,245.26 L 461.41,240.12 L 462.93,243.90 L 456.74,272.90 L 452.96,271.78 L 452.35,282.10 L 435.56,299.81 L 433.58,294.57 L 421.57,296.92 L 416.98,290.14 L 419.31,298.92 L 411.20,296.75 L 406.22,301.68 L 411.66,299.51 L 409.20,311.49 L 404.52,305.49 L 391.49,306.39 L 392.13,297.71 L 383.82,305.53 L 375.80,303.03 L 369.09,307.43 L 372.88,313.29 L 378.43,311.15 L 376.84,318.26 L 371.37,319.83 L 372.14,324.46 L 368.41,321.91 L 366.57,308.80 L 359.30,312.59 L 365.74,325.99 L 358.55,326.31 L 362.74,328.91 L 358.28,334.42 L 348.06,328.91 L 352.21,323.37 L 351.25,326.94 L 353.76,326.43 L 355.07,319.44 L 358.95,319.83 L 353.83,315.90 L 342.74,324.77 L 337.50,335.99 L 333.39,334.06 L 331.90,326.27 L 329.52,335.11 L 325.17,337.26 L 323.75,342.74 L 319.93,343.10 L 317.35,332.84 L 320.79,327.62 L 309.39,326.12 L 309.16,316.84 L 312.87,324.98 L 317.29,326.37 L 313.28,319.09 L 320.60,324.16 L 324.70,323.77 L 312.59,316.90 L 326.65,313.51 L 322.47,312.72 L 322.09,308.13 L 319.56,314.99 L 313.04,314.51 L 315.97,303.53 L 310.32,306.03 L 313.07,301.49 L 307.47,295.35 L 311.62,293.42 L 315.44,301.32 L 316.72,296.68 L 310.03,289.02 L 317.00,282.56 L 318.59,272.21 L 327.91,271.69 L 317.42,265.62 L 326.50,256.79 L 332.09,258.68 L 328.42,253.60 L 334.68,251.02 L 324.17,251.19 L 319.94,246.57 L 330.34,245.47 L 336.23,241.30 L 327.91,244.88 L 323.11,237.34 L 318.63,237.34 L 323.75,234.98 L 319.58,226.29 L 322.79,224.54 L 318.88,220.68 L 324.41,217.61 L 318.83,219.05 L 317.98,201.85 L 315.40,209.94 L 311.62,202.24 L 309.39,211.32 L 308.40,203.42 L 303.91,206.10 L 305.57,203.02 L 301.81,204.34 L 301.60,201.03 L 305.57,199.88 L 304.58,193.86 L 308.45,194.50 L 310.03,189.20 L 308.80,198.59 L 312.25,199.45 L 310.95,196.10 L 315.17,191.76 L 312.08,187.29 L 316.39,187.09 L 318.19,196.41 L 319.83,190.29 L 322.79,193.16 L 318.97,184.12 L 324.82,187.51 L 325.05,192.38 L 327.40,187.59 L 332.75,189.84 L 335.30,201.45 L 335.74,194.80 L 341.77,191.97 L 344.22,187.66 L 338.18,191.34 L 334.07,187.14 L 338.10,186.48 L 337.15,181.76 L 330.84,184.48 L 335.94,176.97 L 327.59,179.79 L 329.15,175.03 L 326.33,172.64 L 336.23,171.86 L 324.30,165.42 L 325.66,158.24 L 320.57,143.05 L 326.49,143.64 L 326.47,148.57 L 330.84,150.55 L 327.28,147.77 L 326.67,133.29 L 346.48,113.24 L 390.76,112.18 L 399.42,106.68 L 402.01,96.05 L 405.92,93.75 L 418.35,121.35 Z M 315.77,221.38 L 310.92,217.74 L 311.53,210.08 L 315.77,221.38 Z M 311.29,142.69 L 306.09,143.50 L 307.11,140.54 L 311.29,142.69 Z M 334.82,399.76 L 323.92,403.77 L 308.21,406.25 L 303.13,400.31 L 310.10,390.88 L 318.23,387.64 L 332.57,385.16 L 339.74,390.10 L 334.82,399.76 Z M 353.18,332.38 L 353.54,334.39 L 347.73,334.85 L 353.18,332.38 Z M 305.41,339.38 L 300.43,336.85 L 307.17,326.94 L 313.34,331.34 L 305.41,339.38 Z M 380.37,323.72 L 379.47,326.66 L 376.58,324.04 L 378.73,320.62 L 380.37,323.72 Z M 294.54,322.24 L 291.70,320.44 L 294.53,318.11 L 294.54,322.24 Z M 292.35,318.43 L 290.61,317.62 L 291.55,315.30 L 295.95,315.07 L 292.35,318.43 Z M 299.38,309.89 L 294.99,310.36 L 296.92,307.65 L 299.38,309.89 Z M 391.50,319.83 L 385.99,315.87 L 383.86,319.00 L 380.94,310.00 L 384.33,305.91 L 385.16,311.93 L 392.14,313.11 L 391.50,319.83 Z M 421.26,317.65 L 416.13,319.44 L 417.09,311.93 L 411.68,310.00 L 419.00,308.75 L 417.38,305.05 L 421.68,300.56 L 423.81,310.00 L 421.26,317.65 Z M 298.84,296.56 L 303.32,294.19 L 301.58,295.52 L 300.78,299.51 L 298.84,296.56 Z M 316.30,163.07 L 312.20,160.44 L 319.63,156.52 L 321.89,157.66 L 316.30,163.07 Z M 524.00,160.62 L 520.00,159.24 L 520.15,157.19 L 524.32,155.85 L 524.00,160.62 Z M 312.88,149.38 L 308.77,147.02 L 310.54,144.26 L 312.88,149.38 Z M 312.88,150.95 L 314.60,140.03 L 319.70,143.11 L 319.30,152.92 L 312.88,150.95 Z M 234.28,134.31 L 230.96,132.87 L 231.44,130.83 L 236.51,130.83 L 234.28,134.31 Z M 357.34,359.71 L 356.05,359.23 L 355.32,356.73 L 357.34,359.71 Z M 365.33,336.19 L 363.40,332.94 L 366.04,332.98 L 365.33,336.19 Z M 378.22,331.93 L 375.26,329.30 L 377.15,328.31 L 378.22,331.93 Z M 300.25,327.87 L 297.26,329.30 L 299.41,326.60 L 298.42,324.29 L 300.25,327.87 Z M 296.57,327.14 L 296.95,323.52 L 298.43,326.40 L 296.57,327.14 Z M 270.40,320.49 L 267.58,323.65 L 268.23,320.20 L 270.40,320.49 Z M 300.81,318.71 L 298.86,315.72 L 303.25,316.57 L 300.81,318.71 Z M 302.44,316.17 L 299.93,314.69 L 302.59,313.51 L 302.44,316.17 Z M 298.75,311.06 L 302.71,309.88 L 301.02,313.79 L 298.75,311.06 Z M 388.30,311.78 L 387.20,310.53 L 389.73,307.26 L 392.29,311.38 L 388.30,311.78 Z M 306.13,307.44 L 305.99,306.38 L 307.43,306.29 L 306.13,307.44 Z M 303.66,301.10 L 301.58,299.68 L 302.32,299.14 L 303.66,301.10 Z M 427.45,302.90 L 426.41,299.21 L 427.91,299.01 L 427.45,302.90 Z M 307.69,268.00 L 309.95,266.95 L 309.87,267.72 L 307.69,268.00 Z M 300.50,171.88 L 303.04,173.93 L 301.29,175.14 L 300.50,171.88 Z M 317.51,173.84 L 315.94,173.56 L 316.30,171.56 L 317.51,173.84 Z M 324.23,173.88 L 320.77,175.88 L 320.94,170.88 L 324.23,173.88 Z M 281.92,148.57 L 281.06,149.76 L 280.66,148.72 L 281.92,148.57 Z M 235.65,140.67 L 234.27,141.22 L 233.89,139.79 L 235.65,140.67 Z M 253.27,355.91 L 253.74,354.52 L 255.34,356.63 L 253.27,355.91 Z M 324.23,351.26 L 319.27,352.05 L 320.47,349.73 L 324.23,351.26 Z M 325.40,352.66 L 325.71,348.69 L 326.90,349.11 L 325.40,352.66 Z M 338.23,350.96 L 335.41,350.89 L 336.10,348.10 L 338.23,350.96 Z M 322.85,349.93 L 321.26,349.03 L 321.72,346.54 L 322.85,349.93 Z M 298.85,343.98 L 296.63,343.02 L 297.17,341.91 L 298.85,343.98 Z M 334.82,342.57 L 330.95,340.69 L 337.28,340.39 L 334.82,342.57 Z M 344.07,342.02 L 341.86,339.53 L 343.44,338.08 L 346.53,340.18 L 344.07,342.02 Z M 327.75,342.70 L 325.74,337.84 L 328.73,337.42 L 331.25,342.24 L 327.75,342.70 Z M 334.00,334.71 L 335.78,337.42 L 331.80,339.62 L 334.00,334.71 Z M 399.92,324.89 L 399.40,323.60 L 400.07,322.47 L 402.64,323.21 L 399.92,324.89 Z M 409.32,312.85 L 408.63,316.09 L 404.38,312.49 L 409.32,312.85 Z M 400.02,314.15 L 398.50,313.08 L 399.50,311.75 L 400.02,314.15 Z M 311.57,312.68 L 306.38,310.83 L 309.49,307.21 L 311.57,312.68 Z M 303.77,298.53 L 303.02,297.03 L 306.62,296.79 L 303.77,298.53 Z M 569.04,173.29 L 569.01,173.37 L 568.93,173.33 L 569.04,173.29 Z" fill="#4A90D9" stroke="#1a5fa8" stroke-width="1.2"/>
</svg>