<svg xmlns="http://www.w3.org/2000/svg" width="800" height="500" viewBox="0 0 800 500">
<rect width="800" height="500" fill="#A8C8E8"/>
<path d="M 595.99,83.61 L 617.98,86.67 L 617.98,100.09 L 595.99,83.61 Z M 604.20,62.54 L 611.81,75.52 L 597.85,77.69 L 587.97,89.10 L 595.19,136.51 L 533.75,144.80 L 524.58,108.57 L 472.34,70.62 L 472.18,0.00 L 617.98,0.00 L 617.98,63.18 L 604.20,62.54 Z" fill="#E8E0D0" stroke="#B8B0A0" stroke-width="0.5"/>
<path d="M 472.34,70.62 L 512.14,94.22 L 532.23,142.88 L 546.68,151.45 L 486.72,136.07 L 466.27,142.47 L 463.90,129.30 L 461.61,126.37 L 463.41,144.03 L 426.10,127.76 L 361.10,137.75 L 314.28,229.89 L 270.55,284.39 L 182.02,278.54 L 182.02,0.00 L 472.18,0.00 L 472.34,70.62 Z" fill="#C8D8E8" stroke="#8BAABB" stroke-width="0.8"/>
<path d="M 393.30,300.18 L 425.28,372.24 L 537.88,377.45 L 534.35,395.12 L 543.44,391.91 L 559.33,448.40 L 578.39,454.51 L 571.81,461.65 L 590.74,482.68 L 589.63,491.55 L 584.82,498.01 L 581.19,482.38 L 576.60,499.42 L 578.19,500.00 L 182.02,500.00 L 182.02,281.87 L 393.30,300.18 Z" fill="#C8D8E8" stroke="#8BAABB" stroke-width="0.8"/>
<path d="M 494.57,214.68 L 465.79,209.31 L 430.26,242.54 L 484.15,244.67 L 492.08,296.65 L 524.11,339.45 L 518.42,355.52 L 529.45,371.15 L 425.28,372.24 L 393.39,300.20 L 270.55,284.39 L 314.28,229.89 L 353.96,142.58 L 426.10,127.76 L 463.41,144.03 L 494.57,214.68 Z M 523.49,232.97 L 524.62,238.81 L 507.17,232.21 L 523.49,232.97 Z M 501.69,205.62 L 492.51,200.96 L 476.77,174.28 L 497.39,154.77 L 486.96,146.01 L 496.20,145.67 L 518.54,188.45 L 501.69,205.62 Z M 474.73,147.63 L 471.95,146.16 L 485.37,138.73 L 474.73,147.63 Z" fill="#4A90D9" stroke="#1a5fa8" stroke-width="1.2"/>
<path d="M 300.01,24.63 L 302.90,26.88 L 301.86,29.97 L 300.01,24.63 Z M 392.53,41.83 L 347.26,23.67 L 332.22,30.66 L 321.75,18.51 L 310.88,31.39 L 314.05,20.49 L 292.59,15.06 L 290.71,4.26 L 303.55,0.00 L 316.93,0.00 L 376.77,26.84 L 402.84,16.12 L 385.96,24.63 L 416.44,31.85 L 392.53,41.83 Z" fill="#A8C8E8" stroke="none"/>
</svg>