<svg xmlns="http://www.w3.org/2000/svg" width="800" height="500" viewBox="0 0 800 500">
<rect width="800" height="500" fill="#A8C8E8"/>
<path d="M 26.30,497.94 L 29.86,497.91 L 28.24,492.65 L 29.57,485.30 L 33.54,486.87 L 34.62,489.68 L 39.44,489.38 L 48.96,483.61 L 52.09,484.72 L 55.09,488.13 L 61.39,488.81 L 67.82,487.11 L 79.38,479.57 L 88.81,480.09 L 95.29,477.99 L 97.77,474.85 L 99.42,476.64 L 99.80,480.38 L 93.27,489.73 L 87.66,491.86 L 86.33,495.26 L 85.95,500.00 L 26.22,500.00 L 26.30,497.94 Z" fill="#E8E0D0" stroke="#B8B0A0" stroke-width="0.5"/>
<path d="M 2.30,170.70 L 1.86,172.16 L 0.00,172.63 L 0.00,168.53 L 2.30,170.70 Z M 1.03,180.03 L 0.00,181.26 L 0.00,179.17 L 1.03,180.03 Z M 4.70,182.15 L 5.51,183.54 L 10.46,182.70 L 11.25,185.84 L 13.84,186.53 L 12.98,188.24 L 15.23,194.05 L 14.12,195.03 L 16.98,200.71 L 23.03,199.25 L 25.03,202.19 L 26.75,201.70 L 29.01,203.81 L 39.06,199.03 L 41.31,201.99 L 41.28,203.97 L 46.22,210.22 L 48.25,209.36 L 48.34,206.85 L 49.89,206.84 L 50.57,208.52 L 54.35,208.85 L 57.69,212.25 L 60.36,210.77 L 61.65,213.49 L 65.28,213.92 L 68.27,217.75 L 72.11,216.73 L 71.13,218.91 L 72.65,222.14 L 72.43,223.99 L 69.70,228.15 L 66.71,229.79 L 71.34,232.32 L 68.00,233.20 L 66.19,237.85 L 68.92,238.50 L 69.77,242.29 L 68.44,243.72 L 70.58,244.86 L 67.76,249.89 L 67.44,254.07 L 56.95,253.12 L 55.21,257.00 L 50.12,258.80 L 48.53,264.91 L 49.87,265.86 L 47.96,270.45 L 47.09,269.15 L 40.66,269.53 L 38.08,273.72 L 36.75,272.57 L 32.18,275.44 L 32.29,275.94 L 31.15,278.88 L 31.56,277.04 L 30.25,275.88 L 26.63,277.06 L 25.14,279.51 L 24.05,278.21 L 20.53,278.55 L 15.51,282.86 L 11.47,289.59 L 9.27,290.65 L 13.68,285.22 L 11.80,281.51 L 12.06,283.95 L 10.82,286.02 L 7.19,288.57 L 9.19,298.24 L 6.91,296.42 L 5.68,292.84 L 2.94,293.23 L 1.34,290.82 L 0.00,290.23 L 0.00,181.86 L 4.70,182.15 Z" fill="#E8E0D0" stroke="#B8B0A0" stroke-width="0.5"/>
<path d="M 445.48,397.65 L 445.83,398.87 L 444.81,397.62 L 445.48,397.65 Z M 446.09,416.36 L 443.78,420.64 L 444.37,417.84 L 437.99,414.16 L 432.03,415.92 L 431.83,420.18 L 430.66,420.74 L 429.54,418.83 L 428.64,422.15 L 429.20,428.24 L 437.68,428.35 L 440.39,426.56 L 440.67,428.67 L 443.78,426.95 L 445.55,427.74 L 447.36,431.56 L 449.90,431.29 L 451.35,428.82 L 455.80,426.72 L 456.45,429.94 L 459.24,430.16 L 459.37,433.83 L 463.03,431.84 L 465.22,435.62 L 466.29,432.68 L 468.77,431.69 L 476.71,432.12 L 482.06,429.93 L 482.10,435.23 L 484.77,440.08 L 482.99,442.27 L 484.65,448.30 L 487.25,449.55 L 488.41,446.55 L 490.99,446.61 L 497.10,450.88 L 496.58,458.93 L 498.72,465.53 L 497.82,469.08 L 501.15,473.25 L 497.82,476.82 L 494.98,473.39 L 490.76,472.70 L 483.34,477.12 L 481.97,476.18 L 483.71,474.57 L 483.88,472.67 L 478.29,471.90 L 472.10,477.05 L 470.47,481.08 L 465.60,482.37 L 460.42,488.02 L 458.17,488.27 L 455.45,480.28 L 457.49,462.78 L 453.34,462.19 L 454.56,455.35 L 449.57,450.69 L 446.07,452.11 L 443.69,458.11 L 441.14,461.92 L 440.04,461.78 L 441.40,466.85 L 439.87,470.29 L 436.94,468.70 L 431.92,469.50 L 430.33,472.48 L 431.11,476.98 L 429.66,479.14 L 428.70,479.50 L 424.32,474.57 L 424.66,475.81 L 423.68,474.76 L 423.50,476.41 L 421.64,475.83 L 413.85,483.26 L 410.83,479.65 L 411.36,470.58 L 414.95,462.57 L 416.50,461.72 L 417.81,456.17 L 414.13,449.36 L 414.27,444.06 L 415.57,442.85 L 414.69,440.03 L 409.66,439.82 L 409.38,436.82 L 405.50,434.97 L 407.18,428.28 L 410.00,426.48 L 419.79,428.06 L 421.12,421.72 L 422.53,422.35 L 423.09,421.04 L 422.74,418.96 L 424.23,421.11 L 422.94,416.87 L 425.53,416.62 L 420.57,415.10 L 429.19,414.45 L 428.24,412.28 L 429.52,411.34 L 428.12,406.63 L 429.48,406.02 L 430.04,402.13 L 431.93,402.25 L 434.48,405.16 L 441.37,400.08 L 442.39,396.83 L 447.33,403.03 L 442.46,408.55 L 442.48,410.87 L 444.35,411.32 L 445.55,414.35 L 449.67,413.54 L 446.09,416.36 Z M 446.49,421.53 L 446.56,422.30 L 445.05,423.47 L 444.04,421.04 L 446.49,421.53 Z" fill="#E8E0D0" stroke="#B8B0A0" stroke-width="0.5"/>
<path d="M 798.74,364.59 L 770.81,359.90 L 760.59,361.22 L 760.11,357.31 L 754.67,350.22 L 750.52,335.27 L 747.87,334.02 L 748.83,328.47 L 744.42,329.01 L 740.27,327.15 L 733.95,320.47 L 730.84,320.22 L 725.91,314.36 L 717.62,312.51 L 709.92,313.12 L 701.54,311.84 L 695.70,308.76 L 693.45,309.42 L 690.73,302.96 L 691.46,297.50 L 695.03,291.83 L 693.73,285.93 L 695.58,280.37 L 693.60,272.41 L 691.48,270.94 L 688.50,264.75 L 686.98,257.39 L 683.77,255.33 L 683.31,252.73 L 679.72,253.90 L 677.15,249.55 L 671.43,250.53 L 666.06,246.50 L 664.43,241.94 L 657.69,238.10 L 659.00,235.30 L 655.04,231.54 L 656.72,229.83 L 656.03,225.67 L 660.04,223.46 L 660.42,219.82 L 665.82,218.78 L 668.94,219.98 L 669.16,217.76 L 670.22,219.57 L 672.49,218.58 L 673.17,215.81 L 675.07,216.92 L 679.12,214.01 L 678.05,211.44 L 678.69,209.64 L 682.39,208.81 L 683.01,206.63 L 688.58,203.60 L 691.13,203.56 L 695.15,199.16 L 700.09,198.41 L 704.18,193.72 L 709.19,193.61 L 711.66,189.84 L 715.20,193.93 L 716.99,191.53 L 719.01,191.74 L 719.62,195.00 L 720.77,195.51 L 734.89,196.38 L 736.06,203.41 L 739.11,207.70 L 743.01,207.15 L 744.90,209.26 L 750.10,210.50 L 754.10,207.69 L 755.55,209.41 L 756.89,208.14 L 763.37,211.11 L 768.07,210.50 L 770.32,213.37 L 772.65,213.71 L 775.47,211.32 L 775.38,209.87 L 778.61,209.73 L 781.28,207.63 L 783.90,202.14 L 784.28,197.20 L 781.16,195.00 L 780.00,191.82 L 780.50,190.29 L 778.32,187.05 L 781.18,177.45 L 783.39,177.07 L 784.76,171.95 L 789.05,169.83 L 791.54,163.32 L 796.90,167.41 L 800.00,168.15 L 800.00,364.14 L 798.74,364.59 Z" fill="#E8E0D0" stroke="#B8B0A0" stroke-width="0.5"/>
<path d="M 88.13,360.90 L 84.78,359.72 L 83.22,355.63 L 81.18,354.09 L 74.80,352.46 L 73.38,348.71 L 70.53,347.24 L 71.42,344.16 L 78.68,344.08 L 90.01,350.89 L 105.34,351.87 L 109.33,356.63 L 117.22,360.76 L 116.27,363.32 L 118.92,364.84 L 125.88,360.68 L 127.98,361.24 L 129.13,363.64 L 130.18,360.48 L 133.81,361.88 L 135.85,365.31 L 140.96,366.54 L 139.63,372.23 L 143.50,375.98 L 149.12,378.25 L 148.16,381.38 L 146.46,381.93 L 146.50,384.67 L 152.65,391.83 L 151.51,395.53 L 149.96,396.58 L 146.94,393.40 L 143.77,393.97 L 140.59,391.88 L 141.01,390.45 L 135.35,387.98 L 131.36,391.98 L 129.71,391.76 L 130.04,393.11 L 121.87,392.67 L 112.94,395.31 L 112.11,393.57 L 108.68,392.27 L 109.67,391.22 L 104.56,386.90 L 104.98,385.32 L 102.34,385.33 L 100.85,388.42 L 94.54,386.87 L 92.89,388.63 L 89.31,386.69 L 92.41,380.22 L 88.13,360.90 Z" fill="#E8E0D0" stroke="#B8B0A0" stroke-width="0.5"/>
<path d="M 132.14,395.93 L 132.10,397.02 L 131.50,396.57 L 132.14,395.93 Z M 134.96,388.16 L 137.59,388.46 L 141.01,390.45 L 140.30,391.28 L 141.95,393.12 L 146.72,393.30 L 150.23,396.57 L 151.75,395.10 L 152.57,391.53 L 147.99,387.12 L 146.35,383.72 L 146.46,381.93 L 147.99,381.59 L 149.42,378.77 L 150.80,379.11 L 151.09,380.95 L 153.21,379.60 L 156.72,385.79 L 158.12,385.88 L 159.67,391.14 L 166.53,393.33 L 169.28,387.80 L 173.44,384.91 L 175.71,379.72 L 181.39,388.79 L 183.26,396.30 L 187.46,401.97 L 187.47,404.79 L 196.02,408.11 L 197.90,413.61 L 195.93,411.34 L 191.81,410.79 L 186.90,415.31 L 186.05,424.67 L 184.36,428.61 L 185.85,433.51 L 184.21,432.51 L 183.36,438.88 L 181.84,440.37 L 182.68,437.84 L 180.47,435.73 L 179.91,440.96 L 178.81,442.31 L 179.33,451.51 L 176.07,452.31 L 173.71,447.63 L 172.43,448.01 L 168.54,442.75 L 169.34,440.68 L 172.22,439.50 L 169.93,433.93 L 172.78,431.62 L 168.28,424.77 L 157.64,433.11 L 150.44,442.08 L 150.17,437.87 L 148.98,435.49 L 151.52,435.06 L 148.56,430.96 L 150.56,427.93 L 146.40,427.11 L 141.00,419.81 L 139.00,419.18 L 142.60,418.35 L 143.89,413.85 L 138.35,409.27 L 136.48,404.34 L 139.24,400.40 L 137.03,397.14 L 132.76,396.20 L 134.35,394.51 L 132.33,393.35 L 131.93,391.40 L 134.96,388.16 Z M 138.60,405.47 L 138.77,404.92 L 137.77,404.87 L 138.60,405.47 Z M 137.27,439.51 L 135.71,435.38 L 133.77,435.10 L 129.14,424.81 L 132.31,423.39 L 133.72,427.49 L 135.09,426.98 L 137.23,429.31 L 141.55,428.05 L 141.19,431.82 L 143.97,434.35 L 143.63,436.41 L 145.81,442.47 L 137.27,439.51 Z M 134.19,398.12 L 134.07,397.64 L 134.60,397.95 L 134.19,398.12 Z M 200.12,412.03 L 200.03,411.44 L 200.54,411.44 L 200.12,412.03 Z M 197.44,410.14 L 197.11,408.41 L 197.52,408.57 L 197.44,410.14 Z" fill="#E8E0D0" stroke="#B8B0A0" stroke-width="0.5"/>
<path d="M 116.24,402.50 L 116.08,405.68 L 114.27,408.50 L 116.25,414.99 L 115.57,416.24 L 120.06,418.37 L 123.65,417.82 L 129.54,426.13 L 126.59,423.48 L 125.29,424.90 L 124.41,430.87 L 119.84,431.73 L 120.61,435.39 L 121.95,436.54 L 121.52,440.34 L 123.03,442.89 L 123.21,452.60 L 125.28,453.52 L 122.14,462.81 L 126.96,466.61 L 126.59,472.27 L 129.48,475.53 L 129.04,478.70 L 127.13,477.93 L 123.15,482.33 L 121.87,479.84 L 122.54,476.70 L 120.74,475.14 L 117.33,477.48 L 108.83,473.88 L 106.65,474.95 L 104.73,473.78 L 101.85,478.72 L 99.55,479.37 L 99.42,476.64 L 97.77,474.85 L 95.29,477.99 L 88.81,480.09 L 79.38,479.57 L 67.82,487.11 L 61.39,488.81 L 55.09,488.13 L 52.09,484.72 L 48.96,483.61 L 39.44,489.38 L 34.62,489.68 L 33.54,486.87 L 29.57,485.30 L 28.24,492.65 L 29.93,497.73 L 26.30,497.94 L 26.22,500.00 L 20.54,500.00 L 19.13,496.33 L 24.32,489.21 L 24.05,485.86 L 21.98,483.24 L 16.92,487.15 L 16.58,488.31 L 18.17,487.58 L 17.12,490.05 L 13.73,491.34 L 5.73,485.60 L 0.63,490.38 L 0.00,491.65 L 0.00,377.08 L 5.75,377.60 L 9.78,374.52 L 12.14,375.97 L 10.62,377.98 L 13.14,382.46 L 16.55,384.26 L 22.28,382.75 L 23.38,387.79 L 26.57,392.11 L 31.01,389.80 L 33.79,391.31 L 35.63,394.42 L 40.40,396.73 L 43.57,394.93 L 44.94,397.89 L 50.27,399.24 L 63.72,395.14 L 72.45,399.13 L 87.72,389.53 L 89.31,386.69 L 92.89,388.63 L 94.54,386.87 L 100.85,388.42 L 103.27,385.13 L 105.22,385.47 L 104.56,386.90 L 109.67,391.22 L 108.68,392.27 L 112.11,393.57 L 116.24,402.50 Z" fill="#E8E0D0" stroke="#B8B0A0" stroke-width="0.5"/>
<path d="M 132.33,393.35 L 134.35,394.51 L 132.76,396.20 L 137.03,397.14 L 139.24,400.40 L 136.48,404.34 L 138.35,409.27 L 143.89,413.85 L 142.60,418.35 L 139.00,419.18 L 141.00,419.81 L 146.40,427.11 L 150.56,427.93 L 148.56,430.96 L 151.52,435.06 L 148.98,435.49 L 150.17,437.87 L 150.44,442.08 L 145.81,442.47 L 143.63,436.41 L 143.97,434.35 L 141.19,431.82 L 141.27,427.78 L 137.23,429.31 L 135.09,426.98 L 133.72,427.49 L 132.31,423.39 L 129.14,424.81 L 123.65,417.82 L 120.06,418.37 L 115.57,416.24 L 116.25,414.99 L 114.27,408.50 L 116.08,405.68 L 116.24,402.50 L 112.81,395.27 L 121.87,392.67 L 130.04,393.11 L 129.71,391.76 L 131.93,391.40 L 132.33,393.35 Z M 131.50,396.57 L 132.10,397.02 L 132.14,395.93 L 131.50,396.57 Z M 134.60,397.95 L 134.07,397.64 L 134.19,398.12 L 134.60,397.95 Z M 137.77,404.87 L 138.77,404.92 L 138.60,405.47 L 137.77,404.87 Z" fill="#E8E0D0" stroke="#B8B0A0" stroke-width="0.5"/>
<path d="M 130.53,481.35 L 129.84,486.06 L 132.47,488.67 L 131.80,491.50 L 132.93,494.04 L 134.83,494.25 L 135.49,500.00 L 85.95,500.00 L 86.33,495.26 L 87.66,491.86 L 93.27,489.73 L 99.55,479.37 L 102.05,478.60 L 103.94,474.21 L 108.83,473.88 L 117.33,477.48 L 120.74,475.14 L 122.54,476.70 L 121.87,479.84 L 123.15,482.33 L 127.13,477.93 L 130.53,481.35 Z" fill="#E8E0D0" stroke="#B8B0A0" stroke-width="0.5"/>
<path d="M 133.77,435.10 L 135.71,435.38 L 137.27,439.51 L 145.69,442.49 L 150.92,441.92 L 157.64,433.11 L 168.28,424.77 L 172.78,431.62 L 169.93,433.93 L 172.22,439.50 L 169.34,440.68 L 168.54,442.75 L 172.43,448.01 L 173.71,447.63 L 176.07,452.31 L 179.33,451.51 L 180.19,462.67 L 182.49,468.57 L 186.28,471.27 L 195.51,473.49 L 197.06,478.46 L 205.41,486.57 L 216.48,490.47 L 242.16,482.68 L 237.29,484.28 L 242.25,485.45 L 242.32,481.10 L 241.02,474.47 L 244.60,474.85 L 250.08,472.45 L 251.73,470.64 L 252.19,466.21 L 255.91,461.64 L 262.99,458.14 L 270.23,458.95 L 270.27,456.87 L 271.90,455.27 L 279.27,456.70 L 280.94,454.80 L 283.11,461.32 L 292.96,465.10 L 293.57,467.40 L 295.42,468.36 L 300.85,467.07 L 307.10,470.52 L 308.93,477.32 L 315.76,481.14 L 319.71,489.32 L 329.79,489.34 L 329.56,495.21 L 330.49,500.00 L 135.49,500.00 L 134.83,494.25 L 132.79,493.82 L 131.80,491.50 L 132.34,488.22 L 129.74,485.70 L 130.53,481.35 L 128.88,479.51 L 129.48,475.53 L 126.67,472.62 L 126.96,466.61 L 122.14,462.81 L 125.28,453.52 L 123.21,452.60 L 123.03,442.89 L 121.52,440.34 L 121.95,436.54 L 120.61,435.39 L 119.84,431.73 L 124.41,430.87 L 125.29,424.90 L 126.59,423.48 L 129.54,426.13 L 133.77,435.10 Z" fill="#E8E0D0" stroke="#B8B0A0" stroke-width="0.5"/>
<path d="M 511.56,497.88 L 510.37,500.00 L 453.64,500.00 L 457.01,495.83 L 457.65,493.09 L 459.76,494.38 L 459.64,492.63 L 464.52,488.97 L 464.49,487.76 L 469.34,485.46 L 482.49,483.86 L 487.33,485.57 L 495.01,480.54 L 497.58,483.64 L 500.37,481.81 L 503.44,483.46 L 504.43,487.52 L 508.06,487.51 L 511.15,493.36 L 511.56,497.88 Z" fill="#E8E0D0" stroke="#B8B0A0" stroke-width="0.5"/>
<path d="M 493.48,482.48 L 491.72,481.81 L 487.33,485.57 L 484.12,483.96 L 477.01,484.27 L 465.03,487.44 L 459.64,492.63 L 459.76,494.38 L 457.65,493.09 L 457.01,495.83 L 452.99,500.00 L 365.94,500.00 L 370.34,497.01 L 374.02,482.98 L 374.02,479.20 L 377.50,476.78 L 383.30,476.27 L 386.05,469.51 L 392.57,474.72 L 401.28,473.60 L 404.38,477.79 L 407.37,475.75 L 410.35,476.86 L 410.67,479.37 L 413.70,483.25 L 421.64,475.83 L 423.50,476.41 L 423.68,474.76 L 424.66,475.81 L 424.32,474.57 L 429.51,479.21 L 431.11,476.98 L 430.33,472.48 L 431.92,469.50 L 436.94,468.70 L 439.87,470.29 L 441.40,466.85 L 440.04,461.78 L 441.14,461.92 L 443.69,458.11 L 446.07,452.11 L 449.57,450.69 L 454.56,455.35 L 453.34,462.19 L 457.49,462.78 L 455.45,480.28 L 458.17,488.27 L 460.42,488.02 L 465.60,482.37 L 470.47,481.08 L 472.10,477.05 L 478.29,471.90 L 483.88,472.67 L 483.71,474.57 L 481.97,476.18 L 483.34,477.12 L 490.76,472.70 L 494.98,473.39 L 497.82,476.82 L 496.62,477.18 L 495.73,475.42 L 491.41,478.17 L 493.48,482.48 Z" fill="#E8E0D0" stroke="#B8B0A0" stroke-width="0.5"/>
<path d="M 352.40,299.44 L 349.84,293.63 L 351.03,287.89 L 355.51,284.24 L 360.94,285.55 L 364.05,291.86 L 362.46,298.27 L 356.95,301.43 L 352.40,299.44 Z" fill="#E8E0D0" stroke="#B8B0A0" stroke-width="0.5"/>
<path d="M 511.56,497.88 L 511.10,492.99 L 509.54,489.16 L 507.10,486.86 L 504.43,487.52 L 502.98,483.18 L 500.37,481.81 L 497.58,483.64 L 496.60,481.37 L 493.54,481.23 L 491.58,479.02 L 495.73,475.42 L 496.62,477.18 L 497.82,476.82 L 501.15,473.25 L 497.82,469.08 L 498.72,465.53 L 496.58,458.93 L 497.13,451.06 L 490.99,446.61 L 488.41,446.55 L 487.25,449.55 L 484.65,448.30 L 482.99,442.27 L 484.77,440.08 L 482.10,435.23 L 482.40,430.16 L 484.92,429.59 L 485.94,427.35 L 484.68,423.06 L 486.61,417.64 L 490.99,416.58 L 495.54,411.58 L 497.45,411.69 L 496.54,409.70 L 497.13,407.79 L 501.51,409.27 L 505.99,405.24 L 507.49,412.41 L 514.37,409.27 L 515.22,411.33 L 518.84,405.99 L 519.31,402.46 L 521.92,397.23 L 536.78,396.68 L 540.14,391.82 L 540.27,389.56 L 543.92,386.30 L 557.26,379.00 L 558.42,376.43 L 563.18,375.76 L 563.63,371.46 L 562.11,362.90 L 563.39,359.29 L 567.06,357.98 L 564.85,354.82 L 570.06,352.28 L 568.22,348.56 L 569.07,345.77 L 564.50,331.82 L 564.70,320.64 L 566.37,319.06 L 563.34,317.21 L 560.25,317.68 L 558.61,315.36 L 561.61,312.66 L 570.80,310.67 L 580.73,306.01 L 584.22,310.29 L 587.83,308.46 L 591.44,310.73 L 592.57,304.58 L 588.40,302.11 L 596.89,272.46 L 597.33,266.91 L 608.15,271.79 L 617.44,271.59 L 618.51,272.97 L 618.37,275.14 L 624.32,270.37 L 627.66,270.16 L 629.87,265.46 L 627.86,251.88 L 630.35,242.65 L 640.71,239.11 L 643.00,235.15 L 643.46,232.54 L 642.48,230.12 L 644.32,226.94 L 650.94,227.66 L 656.03,225.67 L 656.72,229.83 L 655.07,231.91 L 659.00,235.30 L 657.58,237.59 L 658.07,238.58 L 664.43,241.94 L 665.58,246.04 L 671.08,250.35 L 677.15,249.55 L 679.72,253.90 L 683.31,252.73 L 683.77,255.33 L 686.98,257.39 L 688.50,264.75 L 691.48,270.94 L 693.60,272.41 L 695.58,280.37 L 693.73,285.93 L 695.03,291.83 L 691.46,297.50 L 690.73,302.96 L 693.45,309.42 L 695.70,308.76 L 701.54,311.84 L 709.92,313.12 L 717.62,312.51 L 725.91,314.36 L 730.84,320.22 L 733.95,320.47 L 740.27,327.15 L 744.42,329.01 L 748.83,328.47 L 747.87,334.02 L 750.52,335.27 L 754.67,350.22 L 760.11,357.31 L 760.59,361.22 L 770.81,359.90 L 798.74,364.59 L 800.00,364.14 L 800.00,500.00 L 510.71,500.00 L 511.56,497.88 Z" fill="#C8D8E8" stroke="#8BAABB" stroke-width="0.8"/>
<path d="M 563.18,375.76 L 558.42,376.43 L 557.26,379.00 L 551.56,381.02 L 540.27,389.56 L 540.14,391.82 L 536.78,396.68 L 521.92,397.23 L 519.31,402.46 L 518.98,405.69 L 515.42,411.23 L 514.37,409.27 L 507.49,412.41 L 505.99,405.24 L 501.51,409.27 L 497.13,407.79 L 496.54,409.70 L 497.45,411.69 L 495.54,411.58 L 490.99,416.58 L 486.49,417.85 L 484.73,422.64 L 486.00,427.12 L 484.71,429.74 L 480.50,429.82 L 476.71,432.12 L 468.77,431.69 L 466.29,432.68 L 465.22,435.62 L 463.03,431.84 L 459.37,433.83 L 459.24,430.16 L 456.45,429.94 L 455.80,426.72 L 451.35,428.82 L 449.90,431.29 L 447.36,431.56 L 445.55,427.74 L 443.78,426.95 L 440.67,428.67 L 440.39,426.56 L 439.56,428.02 L 429.37,428.75 L 428.46,423.79 L 429.49,418.87 L 430.66,420.74 L 431.83,420.18 L 432.03,415.92 L 437.99,414.16 L 444.37,417.84 L 443.78,420.64 L 446.09,416.36 L 449.31,414.96 L 450.12,412.94 L 453.28,411.73 L 456.56,414.27 L 457.87,413.11 L 458.83,415.52 L 460.42,413.31 L 462.65,413.50 L 461.89,411.91 L 464.45,408.99 L 467.24,410.36 L 466.73,405.89 L 470.07,407.81 L 472.01,404.46 L 476.48,401.43 L 470.48,400.30 L 466.49,395.98 L 464.44,397.52 L 464.36,393.56 L 460.85,393.42 L 460.54,390.32 L 459.30,387.98 L 458.40,388.56 L 458.40,385.99 L 457.47,387.12 L 457.34,390.70 L 455.30,390.20 L 455.27,394.83 L 453.56,395.13 L 452.70,393.54 L 452.38,395.23 L 447.37,392.49 L 446.11,387.59 L 443.48,388.98 L 439.97,386.56 L 445.88,378.84 L 447.90,378.16 L 448.28,375.83 L 453.09,373.09 L 451.13,370.55 L 448.37,370.02 L 449.71,366.61 L 450.96,366.57 L 450.22,364.61 L 455.13,359.74 L 457.11,360.53 L 460.55,358.91 L 466.00,360.45 L 480.84,367.99 L 479.71,363.26 L 481.65,354.75 L 485.70,352.67 L 486.48,350.86 L 489.52,351.16 L 489.09,349.91 L 501.33,358.59 L 506.74,359.52 L 508.90,356.76 L 516.45,357.83 L 523.10,355.66 L 527.64,357.58 L 549.92,359.82 L 553.32,366.58 L 559.34,367.53 L 562.92,372.48 L 563.18,375.76 Z M 458.52,419.50 L 458.32,419.81 L 459.45,420.59 L 459.79,418.77 L 458.52,419.50 Z M 450.28,415.23 L 449.61,416.54 L 450.74,418.72 L 450.44,421.06 L 452.73,420.89 L 452.32,418.68 L 453.16,417.57 L 450.28,415.23 Z M 445.05,423.47 L 446.56,422.30 L 446.49,421.53 L 444.04,421.04 L 445.05,423.47 Z" fill="#C8D8E8" stroke="#8BAABB" stroke-width="0.8"/>
<path d="M 650.94,227.66 L 649.36,224.84 L 646.34,223.92 L 643.89,218.44 L 641.04,216.80 L 643.29,214.53 L 642.96,212.68 L 641.26,212.42 L 635.96,219.41 L 629.08,216.17 L 624.29,216.62 L 622.24,210.78 L 621.00,210.07 L 621.87,208.03 L 621.39,206.70 L 612.37,202.64 L 611.71,197.35 L 608.71,191.69 L 602.38,187.22 L 598.39,187.22 L 596.78,189.56 L 593.72,189.16 L 593.07,191.49 L 590.65,193.09 L 581.70,191.60 L 578.22,192.75 L 577.50,187.93 L 573.22,188.00 L 574.45,183.14 L 568.71,180.71 L 567.68,182.68 L 565.51,183.12 L 565.72,187.95 L 562.09,190.92 L 560.54,190.45 L 561.40,192.29 L 560.61,191.98 L 548.63,166.18 L 534.23,139.25 L 517.44,124.10 L 515.99,120.69 L 519.52,121.12 L 521.64,117.69 L 520.60,116.01 L 522.35,114.18 L 517.22,117.14 L 514.25,116.63 L 513.63,118.64 L 504.40,122.04 L 503.56,122.69 L 504.45,124.22 L 499.48,127.98 L 496.35,127.50 L 494.45,130.66 L 492.27,130.81 L 491.65,135.26 L 489.63,132.47 L 485.73,131.53 L 482.65,132.16 L 479.69,135.93 L 478.91,135.32 L 479.45,134.03 L 477.48,132.94 L 477.47,131.04 L 479.94,126.77 L 483.02,126.59 L 483.73,122.72 L 482.02,122.44 L 481.00,124.86 L 479.07,125.23 L 475.43,124.38 L 473.95,121.38 L 470.06,121.10 L 468.58,122.87 L 470.45,123.04 L 470.99,124.83 L 467.22,125.87 L 466.80,121.98 L 468.33,121.08 L 466.07,120.18 L 466.39,118.60 L 462.95,115.98 L 463.23,119.26 L 464.59,121.08 L 459.51,118.73 L 458.10,121.65 L 454.10,119.71 L 452.15,121.79 L 449.82,117.52 L 452.51,117.24 L 451.91,112.08 L 453.42,110.01 L 450.25,107.65 L 449.90,101.25 L 447.64,97.99 L 447.98,96.70 L 443.34,96.93 L 440.55,100.12 L 433.94,95.87 L 429.79,94.79 L 427.97,96.04 L 424.80,93.77 L 425.33,97.03 L 422.03,95.31 L 420.86,98.78 L 415.62,99.31 L 417.22,101.36 L 415.49,103.82 L 412.01,103.52 L 409.76,105.67 L 388.69,111.07 L 388.15,109.15 L 385.84,111.29 L 382.23,110.73 L 382.23,112.23 L 379.15,113.08 L 378.98,117.41 L 375.64,115.46 L 373.30,116.91 L 371.57,115.82 L 364.54,117.21 L 364.58,119.13 L 363.23,119.85 L 360.92,118.67 L 354.17,120.15 L 353.28,122.14 L 347.12,122.81 L 346.44,126.64 L 344.78,125.17 L 345.06,123.38 L 340.04,123.57 L 340.05,125.37 L 337.45,123.92 L 334.89,125.04 L 331.90,122.61 L 330.13,123.55 L 330.34,125.88 L 327.72,125.17 L 327.49,126.41 L 330.20,128.21 L 327.86,131.60 L 326.30,131.67 L 331.20,133.57 L 333.92,132.59 L 334.56,134.34 L 332.81,135.81 L 330.64,134.40 L 329.76,138.69 L 340.63,142.36 L 341.16,145.14 L 339.51,146.35 L 333.25,144.53 L 327.45,145.59 L 328.48,146.62 L 323.76,151.88 L 325.35,152.82 L 325.50,155.04 L 326.99,155.74 L 328.25,158.98 L 323.75,162.99 L 320.74,163.30 L 315.35,167.03 L 316.27,169.00 L 321.06,170.12 L 320.12,173.13 L 327.00,174.21 L 328.12,176.91 L 333.56,178.11 L 335.89,181.63 L 334.30,182.73 L 332.32,191.65 L 324.32,194.38 L 319.20,193.71 L 317.19,190.34 L 315.78,190.14 L 313.27,196.27 L 309.68,198.13 L 308.81,196.81 L 310.18,195.91 L 308.64,194.83 L 302.37,193.84 L 299.17,191.49 L 297.77,189.32 L 298.32,186.58 L 294.82,183.91 L 293.09,185.91 L 288.21,184.55 L 287.64,188.99 L 284.52,190.05 L 282.89,189.23 L 280.69,184.97 L 275.32,185.55 L 274.98,187.72 L 272.41,185.53 L 270.42,189.52 L 268.50,189.06 L 267.52,192.86 L 262.40,196.96 L 260.04,194.29 L 258.05,194.12 L 254.90,189.51 L 249.89,186.49 L 248.23,188.58 L 249.89,189.47 L 250.35,195.43 L 248.19,197.10 L 246.72,195.08 L 247.93,190.15 L 245.45,189.08 L 241.29,183.16 L 238.08,182.44 L 237.11,180.98 L 237.30,178.90 L 234.82,176.88 L 224.27,177.40 L 221.36,170.77 L 218.72,173.21 L 215.99,172.91 L 213.84,177.51 L 212.50,175.81 L 209.08,177.15 L 208.25,175.79 L 209.90,173.82 L 202.50,171.09 L 202.79,174.50 L 201.32,175.13 L 200.23,173.70 L 199.56,177.18 L 197.51,178.37 L 197.09,180.68 L 190.41,184.92 L 186.21,184.71 L 185.12,187.82 L 186.06,189.55 L 185.39,190.72 L 178.79,195.57 L 175.58,194.72 L 176.87,195.92 L 178.21,205.77 L 179.33,206.65 L 178.23,209.52 L 173.89,212.12 L 171.56,210.96 L 166.28,201.38 L 163.72,198.59 L 162.14,199.45 L 159.99,202.32 L 160.17,207.17 L 155.16,211.90 L 153.63,222.16 L 156.88,225.99 L 153.37,230.97 L 150.00,241.56 L 157.60,244.62 L 157.65,248.07 L 158.74,248.69 L 156.93,250.49 L 158.33,252.91 L 157.90,254.24 L 160.79,256.87 L 161.43,253.66 L 170.76,256.24 L 175.06,262.61 L 180.95,276.10 L 177.98,277.92 L 175.44,276.26 L 174.20,278.38 L 175.23,280.34 L 179.86,282.31 L 184.61,286.75 L 182.71,285.22 L 181.59,286.99 L 182.27,289.11 L 181.39,288.16 L 180.03,290.50 L 178.90,289.15 L 178.64,291.11 L 177.37,289.56 L 176.30,290.45 L 177.55,291.87 L 176.64,293.20 L 177.84,293.01 L 178.31,295.64 L 177.40,296.21 L 175.42,292.97 L 173.00,295.04 L 173.52,295.75 L 172.16,295.71 L 171.60,298.39 L 166.90,298.09 L 166.40,300.54 L 163.24,297.10 L 164.39,301.57 L 163.01,299.32 L 161.68,298.72 L 162.55,298.24 L 161.10,297.55 L 161.62,299.10 L 163.13,300.12 L 163.39,301.40 L 162.44,301.02 L 162.47,304.28 L 161.05,304.68 L 162.02,305.11 L 160.92,309.43 L 160.02,309.39 L 158.85,313.96 L 157.60,314.25 L 157.34,317.86 L 156.25,315.11 L 155.92,318.27 L 152.98,320.59 L 152.47,323.26 L 153.44,325.95 L 156.70,326.81 L 157.88,329.69 L 159.40,329.92 L 162.54,338.99 L 160.86,342.36 L 161.34,344.66 L 163.05,337.21 L 164.97,337.02 L 162.40,345.68 L 162.43,349.19 L 163.56,349.12 L 162.33,350.94 L 162.04,354.98 L 164.93,358.22 L 165.29,362.52 L 169.80,369.10 L 173.36,377.79 L 175.71,379.72 L 173.16,385.30 L 169.28,387.80 L 167.05,393.13 L 163.09,393.18 L 159.67,391.14 L 158.12,385.88 L 156.72,385.79 L 153.21,379.60 L 151.09,380.95 L 150.58,378.94 L 143.34,375.87 L 139.63,372.23 L 140.46,365.78 L 135.85,365.31 L 133.41,361.69 L 130.18,360.48 L 129.13,363.64 L 127.98,361.24 L 125.88,360.68 L 118.92,364.84 L 116.27,363.32 L 117.22,360.76 L 109.33,356.63 L 105.34,351.87 L 90.01,350.89 L 78.68,344.08 L 73.55,343.31 L 71.59,343.83 L 70.24,347.16 L 55.50,328.62 L 48.88,326.23 L 43.50,319.02 L 43.77,321.01 L 40.08,320.31 L 36.32,313.52 L 28.80,309.25 L 33.50,307.38 L 31.39,307.19 L 31.01,305.88 L 32.11,305.60 L 31.30,305.18 L 29.91,306.47 L 31.93,304.01 L 35.68,306.27 L 34.93,308.31 L 37.88,307.62 L 35.92,306.47 L 40.33,305.56 L 41.21,307.24 L 42.90,306.99 L 43.09,303.86 L 41.75,300.54 L 41.15,304.23 L 41.26,299.96 L 42.58,300.25 L 42.14,299.26 L 44.13,297.48 L 45.48,291.86 L 47.41,291.07 L 46.61,291.76 L 46.70,296.16 L 48.27,289.75 L 53.07,291.60 L 53.20,290.09 L 47.72,284.35 L 45.05,283.64 L 42.92,278.19 L 46.00,279.30 L 49.54,276.88 L 53.26,278.53 L 52.50,276.88 L 50.84,277.39 L 51.29,274.75 L 56.05,273.49 L 59.38,270.56 L 61.88,270.98 L 63.21,268.82 L 61.88,269.40 L 61.69,265.76 L 59.54,265.22 L 56.59,267.80 L 52.07,268.25 L 53.07,266.65 L 55.71,266.08 L 56.14,265.19 L 52.99,266.41 L 51.45,268.44 L 48.87,269.07 L 48.71,267.20 L 49.90,265.44 L 48.55,264.58 L 50.12,258.80 L 55.21,257.00 L 56.39,253.40 L 67.75,253.72 L 67.76,249.89 L 70.62,244.45 L 68.44,243.72 L 69.77,242.29 L 68.68,238.13 L 66.19,237.85 L 68.00,233.20 L 70.40,233.58 L 71.36,231.91 L 67.74,231.36 L 66.79,228.73 L 69.70,228.15 L 72.43,223.99 L 72.65,222.14 L 71.13,218.91 L 72.30,216.96 L 68.27,217.75 L 65.28,213.92 L 61.65,213.49 L 60.36,210.77 L 57.69,212.25 L 54.35,208.85 L 50.57,208.52 L 49.89,206.84 L 48.34,206.85 L 48.25,209.36 L 46.22,210.22 L 41.28,203.97 L 41.31,201.99 L 39.06,199.03 L 29.01,203.81 L 26.75,201.70 L 25.03,202.19 L 23.03,199.25 L 16.98,200.71 L 14.12,195.03 L 15.23,194.05 L 12.98,188.24 L 13.84,186.53 L 11.25,185.84 L 10.46,182.70 L 5.51,183.54 L 4.70,182.15 L 0.00,181.86 L 0.00,181.26 L 1.03,180.03 L 0.00,179.17 L 0.00,172.63 L 1.86,172.16 L 2.30,170.70 L 0.00,168.53 L 0.00,0.00 L 800.00,0.00 L 800.00,168.55 L 792.05,163.30 L 789.05,169.83 L 784.76,171.95 L 783.39,177.07 L 781.18,177.45 L 778.32,187.05 L 780.50,190.29 L 780.00,191.82 L 781.16,195.00 L 784.28,197.20 L 783.90,202.14 L 781.28,207.63 L 778.61,209.73 L 775.38,209.87 L 775.47,211.32 L 772.65,213.71 L 770.32,213.37 L 768.07,210.50 L 763.37,211.11 L 756.89,208.14 L 755.55,209.41 L 754.10,207.69 L 750.10,210.50 L 744.90,209.26 L 743.01,207.15 L 739.11,207.70 L 736.06,203.41 L 734.89,196.38 L 720.77,195.51 L 719.62,195.00 L 719.01,191.74 L 716.99,191.53 L 715.20,193.93 L 711.66,189.84 L 709.19,193.61 L 704.18,193.72 L 700.09,198.41 L 695.15,199.16 L 691.13,203.56 L 688.58,203.60 L 683.01,206.63 L 682.39,208.81 L 678.69,209.64 L 678.05,211.44 L 679.12,214.01 L 675.07,216.92 L 673.17,215.81 L 672.91,218.18 L 670.22,219.57 L 668.91,217.83 L 668.94,219.98 L 660.73,219.60 L 659.69,221.65 L 660.04,223.46 L 650.94,227.66 Z M 1.34,290.82 L 2.94,293.23 L 5.68,292.84 L 7.17,296.81 L 9.51,297.99 L 15.38,307.07 L 18.26,306.17 L 19.69,303.42 L 21.56,305.70 L 25.21,303.30 L 28.87,304.34 L 29.55,305.94 L 27.09,307.61 L 27.12,311.91 L 19.87,313.49 L 15.69,310.95 L 13.99,314.53 L 12.63,314.20 L 10.48,317.67 L 6.08,317.31 L 2.99,319.02 L 1.31,322.90 L 0.00,324.08 L 0.00,290.25 L 1.34,290.82 Z M 165.73,335.88 L 164.08,335.16 L 164.54,334.46 L 166.80,334.39 L 165.73,335.88 Z M 167.62,301.34 L 168.10,299.65 L 168.59,302.38 L 168.59,303.49 L 167.62,301.34 Z" fill="#C8D8E8" stroke="#8BAABB" stroke-width="0.8"/>
<path d="M 329.56,495.21 L 329.79,489.34 L 319.71,489.32 L 315.76,481.14 L 308.93,477.32 L 307.10,470.52 L 300.85,467.07 L 295.42,468.36 L 293.57,467.40 L 292.96,465.10 L 283.11,461.32 L 281.07,454.82 L 279.27,456.70 L 271.90,455.27 L 269.18,459.19 L 259.79,458.88 L 252.56,465.67 L 251.73,470.64 L 250.08,472.45 L 244.60,474.85 L 241.02,474.47 L 239.93,466.01 L 239.96,449.58 L 241.86,441.37 L 238.42,437.95 L 238.70,434.51 L 237.91,435.38 L 238.20,437.84 L 237.28,434.64 L 236.78,435.53 L 236.71,432.16 L 231.67,432.36 L 231.81,435.82 L 230.88,431.17 L 233.21,425.61 L 232.49,428.55 L 236.79,429.75 L 236.86,428.50 L 238.81,428.49 L 236.36,425.28 L 234.94,425.92 L 234.51,423.41 L 236.87,419.23 L 234.76,418.41 L 233.29,419.82 L 228.78,418.10 L 229.93,423.47 L 226.63,417.43 L 226.61,408.36 L 228.16,404.70 L 228.81,395.72 L 231.33,400.20 L 230.63,400.79 L 231.29,402.35 L 234.36,400.98 L 235.75,403.04 L 237.48,399.89 L 238.66,405.39 L 244.17,403.20 L 247.02,404.38 L 245.14,399.81 L 246.49,399.25 L 247.89,401.51 L 249.91,400.90 L 251.38,398.25 L 250.37,396.02 L 251.47,396.74 L 242.98,387.24 L 240.84,378.46 L 240.94,375.14 L 239.86,373.85 L 231.84,374.28 L 229.35,376.79 L 227.01,383.29 L 228.81,383.32 L 227.55,389.53 L 228.39,396.45 L 226.91,389.56 L 224.47,386.58 L 224.85,383.92 L 222.95,381.75 L 229.57,373.80 L 234.88,371.03 L 243.58,369.36 L 253.18,377.89 L 253.71,380.77 L 260.17,391.90 L 265.46,390.64 L 278.92,392.16 L 280.77,389.77 L 279.04,387.70 L 278.53,378.67 L 283.48,373.02 L 289.21,372.44 L 289.92,367.41 L 291.24,365.95 L 295.02,367.38 L 295.91,370.41 L 297.05,370.20 L 294.79,365.34 L 292.53,363.33 L 294.20,361.96 L 297.58,362.69 L 298.24,359.82 L 301.99,364.94 L 305.07,365.38 L 306.44,369.15 L 313.89,370.06 L 315.87,372.27 L 315.49,376.24 L 314.38,377.17 L 318.62,381.09 L 316.12,381.65 L 317.54,385.20 L 316.40,386.69 L 316.68,389.31 L 321.38,393.05 L 326.05,392.19 L 331.21,394.20 L 333.07,391.19 L 338.51,394.88 L 341.65,406.39 L 344.33,409.50 L 345.55,418.36 L 358.09,431.12 L 360.93,435.58 L 366.33,440.66 L 368.62,440.21 L 384.12,455.65 L 387.46,454.90 L 396.88,461.78 L 395.32,465.21 L 395.66,472.20 L 394.72,474.75 L 390.97,473.75 L 386.05,469.51 L 383.30,476.27 L 377.50,476.78 L 374.38,478.83 L 371.73,489.66 L 371.76,493.80 L 370.34,497.01 L 365.94,500.00 L 330.49,500.00 L 329.56,495.21 Z M 230.89,437.68 L 231.08,444.75 L 230.33,441.56 L 230.89,437.68 Z M 236.11,427.16 L 236.38,428.49 L 235.86,428.89 L 236.11,427.16 Z" fill="#C8D8E8" stroke="#8BAABB" stroke-width="0.8"/>
<path d="M 459.45,420.59 L 458.32,419.81 L 458.52,419.50 L 459.79,418.77 L 459.45,420.59 Z M 445.55,414.35 L 444.35,411.32 L 442.48,410.87 L 442.46,408.55 L 447.33,403.03 L 445.74,402.34 L 446.57,401.56 L 443.39,396.96 L 442.39,396.83 L 441.37,400.08 L 434.15,405.30 L 431.93,402.25 L 430.04,402.13 L 429.48,406.02 L 428.12,406.63 L 429.52,411.34 L 428.24,412.28 L 429.19,414.45 L 420.57,415.10 L 425.53,416.62 L 422.94,416.87 L 424.23,421.11 L 422.74,418.96 L 423.09,421.04 L 422.53,422.35 L 421.12,421.72 L 419.79,428.06 L 410.00,426.48 L 406.44,429.57 L 405.50,434.97 L 409.38,436.82 L 409.66,439.82 L 414.69,440.03 L 415.57,442.85 L 414.27,444.06 L 414.13,449.36 L 417.81,456.17 L 416.50,461.72 L 414.95,462.57 L 411.36,470.58 L 410.77,477.71 L 407.37,475.75 L 404.38,477.79 L 401.28,473.60 L 395.33,474.02 L 395.32,465.21 L 396.61,460.77 L 387.46,454.90 L 384.12,455.65 L 368.62,440.21 L 366.33,440.66 L 360.93,435.58 L 358.09,431.12 L 345.55,418.36 L 344.33,409.50 L 341.65,406.39 L 338.51,394.88 L 333.07,391.19 L 331.21,394.20 L 326.05,392.19 L 321.38,393.05 L 316.68,389.31 L 316.40,386.69 L 317.54,385.20 L 316.12,381.65 L 318.62,381.09 L 314.38,377.17 L 315.49,376.24 L 315.87,372.27 L 313.89,370.06 L 306.44,369.15 L 305.07,365.38 L 301.99,364.94 L 298.24,359.82 L 297.58,362.69 L 294.20,361.96 L 292.53,363.33 L 294.79,365.34 L 297.05,370.20 L 295.91,370.41 L 295.02,367.38 L 291.24,365.95 L 289.92,367.41 L 289.21,372.44 L 283.48,373.02 L 278.53,378.67 L 279.04,387.70 L 280.77,389.77 L 279.16,391.98 L 266.29,390.74 L 266.26,313.45 L 297.83,301.61 L 328.21,326.32 L 329.74,330.84 L 340.32,345.31 L 354.79,342.22 L 369.71,343.91 L 375.79,340.29 L 383.06,349.17 L 386.46,358.01 L 390.21,355.63 L 389.08,376.41 L 395.14,376.60 L 397.94,394.18 L 412.69,393.29 L 413.87,396.61 L 415.06,396.89 L 413.34,401.48 L 419.10,406.25 L 420.97,405.74 L 420.44,399.33 L 426.08,393.12 L 426.14,389.64 L 430.62,387.52 L 430.51,386.04 L 433.34,383.45 L 436.86,382.51 L 442.32,375.16 L 443.69,374.54 L 445.02,376.12 L 446.92,372.31 L 450.74,370.34 L 453.09,373.09 L 448.28,375.83 L 447.90,378.16 L 445.88,378.84 L 439.97,386.56 L 443.48,388.98 L 446.11,387.59 L 447.37,392.49 L 452.38,395.23 L 452.70,393.54 L 453.56,395.13 L 455.27,394.83 L 455.30,390.20 L 457.34,390.70 L 457.47,387.12 L 458.40,385.99 L 458.40,388.56 L 459.30,387.98 L 460.54,390.32 L 460.85,393.42 L 464.36,393.56 L 464.44,397.52 L 466.49,395.98 L 470.48,400.30 L 476.41,401.01 L 472.01,404.46 L 470.07,407.81 L 466.73,405.89 L 467.24,410.36 L 464.45,408.99 L 461.89,411.91 L 462.65,413.50 L 460.42,413.31 L 458.83,415.52 L 457.87,413.11 L 456.56,414.27 L 453.28,411.73 L 445.55,414.35 Z M 444.81,397.62 L 445.83,398.87 L 445.48,397.65 L 444.81,397.62 Z M 453.16,417.57 L 452.32,418.68 L 452.73,420.89 L 450.44,421.06 L 450.74,418.72 L 449.61,416.54 L 450.28,415.23 L 453.16,417.57 Z" fill="#C8D8E8" stroke="#8BAABB" stroke-width="0.8"/>
<path d="M 644.32,226.94 L 642.48,230.12 L 643.46,232.54 L 643.00,235.15 L 640.71,239.11 L 630.35,242.65 L 627.86,251.88 L 629.87,265.46 L 627.66,270.16 L 624.32,270.37 L 618.37,275.14 L 618.51,272.97 L 617.44,271.59 L 608.15,271.79 L 597.33,266.91 L 596.89,272.46 L 588.40,302.11 L 592.57,304.58 L 591.44,310.73 L 587.83,308.46 L 584.22,310.29 L 580.73,306.01 L 570.80,310.67 L 561.61,312.66 L 558.61,315.36 L 560.25,317.68 L 563.34,317.21 L 566.37,319.06 L 564.70,320.64 L 564.50,331.82 L 569.07,345.77 L 568.22,348.56 L 570.06,352.28 L 564.85,354.82 L 567.06,357.98 L 563.13,359.82 L 562.06,363.36 L 563.40,372.15 L 559.34,367.53 L 553.32,366.58 L 549.92,359.82 L 527.64,357.58 L 523.10,355.66 L 516.45,357.83 L 508.90,356.76 L 506.74,359.52 L 501.33,358.59 L 489.09,349.91 L 489.52,351.16 L 486.48,350.86 L 485.70,352.67 L 481.65,354.75 L 479.71,363.26 L 480.84,367.99 L 460.55,358.91 L 453.18,360.74 L 451.92,363.79 L 450.22,364.61 L 450.96,366.57 L 449.71,366.61 L 448.37,370.02 L 449.54,371.24 L 446.92,372.31 L 445.41,375.89 L 442.32,375.16 L 436.86,382.51 L 433.34,383.45 L 430.51,386.04 L 430.62,387.52 L 426.14,389.64 L 426.08,393.12 L 420.44,399.33 L 420.97,405.74 L 419.10,406.25 L 413.34,401.48 L 415.06,396.89 L 413.87,396.61 L 412.69,393.29 L 397.94,394.18 L 395.14,376.60 L 389.08,376.41 L 390.21,355.63 L 386.46,358.01 L 383.06,349.17 L 375.79,340.29 L 369.71,343.91 L 354.79,342.22 L 340.32,345.31 L 329.74,330.84 L 328.21,326.32 L 297.83,301.61 L 266.27,313.44 L 266.29,390.74 L 259.83,391.64 L 253.71,380.77 L 253.18,377.89 L 243.58,369.36 L 234.88,371.03 L 229.57,373.80 L 222.95,381.75 L 223.60,378.53 L 222.51,374.52 L 225.87,365.13 L 224.49,360.85 L 226.29,364.15 L 226.61,361.71 L 223.36,359.08 L 220.93,359.66 L 219.66,357.80 L 216.52,358.74 L 213.32,351.39 L 208.73,352.17 L 209.20,345.69 L 203.65,333.84 L 203.48,330.39 L 196.51,327.30 L 195.86,322.43 L 196.92,320.44 L 203.80,321.14 L 207.11,324.18 L 209.83,322.59 L 212.21,323.62 L 204.89,316.20 L 204.85,313.78 L 207.76,311.95 L 208.69,312.82 L 208.34,309.93 L 210.44,305.13 L 212.01,306.29 L 214.63,303.71 L 216.86,305.60 L 223.95,304.73 L 228.73,306.75 L 233.03,306.12 L 226.55,301.67 L 231.28,289.88 L 231.75,285.10 L 230.23,282.38 L 231.08,282.96 L 230.83,281.51 L 229.79,281.67 L 232.38,277.66 L 231.13,276.78 L 230.57,273.51 L 223.17,271.22 L 221.97,273.48 L 219.90,273.69 L 220.59,275.24 L 218.97,275.19 L 217.82,272.57 L 216.88,273.77 L 214.46,272.79 L 213.68,270.05 L 212.60,271.51 L 207.95,268.70 L 203.47,270.47 L 202.18,273.22 L 202.32,271.78 L 200.65,272.60 L 200.08,274.84 L 198.38,273.42 L 190.87,280.92 L 188.49,280.02 L 187.96,281.79 L 186.61,279.78 L 186.90,281.78 L 184.61,279.92 L 185.42,283.89 L 183.60,282.38 L 184.44,283.95 L 182.93,283.67 L 183.65,285.39 L 175.23,280.34 L 174.20,278.38 L 175.44,276.26 L 177.98,277.92 L 180.95,276.10 L 175.06,262.61 L 170.76,256.24 L 161.43,253.66 L 160.79,256.87 L 157.90,254.24 L 158.33,252.91 L 156.93,250.49 L 158.74,248.69 L 157.65,248.07 L 157.60,244.62 L 150.00,241.56 L 153.37,230.97 L 156.64,227.12 L 156.74,224.92 L 153.63,222.16 L 155.44,211.03 L 160.41,206.58 L 159.63,204.19 L 160.13,201.91 L 163.72,198.59 L 168.54,204.29 L 171.56,210.96 L 173.89,212.12 L 178.23,209.52 L 179.33,206.65 L 178.21,205.77 L 176.87,195.92 L 175.58,194.72 L 178.79,195.57 L 185.39,190.72 L 186.06,189.55 L 185.12,187.82 L 186.21,184.71 L 190.41,184.92 L 197.09,180.68 L 197.51,178.37 L 199.56,177.18 L 200.23,173.70 L 201.32,175.13 L 202.79,174.50 L 202.50,171.09 L 209.90,173.82 L 208.25,175.79 L 209.08,177.15 L 212.50,175.81 L 213.84,177.51 L 215.99,172.91 L 218.72,173.21 L 221.36,170.77 L 224.27,177.40 L 234.82,176.88 L 237.30,178.90 L 237.11,180.98 L 238.08,182.44 L 241.29,183.16 L 245.45,189.08 L 247.93,190.15 L 246.72,195.08 L 248.19,197.10 L 250.35,195.43 L 249.89,189.47 L 248.23,188.58 L 249.89,186.49 L 254.90,189.51 L 258.05,194.12 L 260.04,194.29 L 262.40,196.96 L 267.52,192.86 L 268.50,189.06 L 270.42,189.52 L 272.41,185.53 L 274.98,187.72 L 275.32,185.55 L 280.69,184.97 L 282.89,189.23 L 284.52,190.05 L 287.64,188.99 L 288.21,184.55 L 293.09,185.91 L 294.82,183.91 L 298.32,186.58 L 297.77,189.32 L 299.17,191.49 L 302.37,193.84 L 308.64,194.83 L 310.18,195.91 L 308.81,196.81 L 309.68,198.13 L 313.27,196.27 L 315.78,190.14 L 317.19,190.34 L 319.20,193.71 L 324.32,194.38 L 332.32,191.65 L 334.30,182.73 L 335.89,181.63 L 333.56,178.11 L 328.12,176.91 L 327.00,174.21 L 320.12,173.13 L 321.06,170.12 L 316.27,169.00 L 315.35,167.03 L 320.74,163.30 L 323.75,162.99 L 328.25,158.98 L 326.99,155.74 L 325.50,155.04 L 325.35,152.82 L 323.76,151.88 L 328.48,146.62 L 327.45,145.59 L 333.25,144.53 L 339.51,146.35 L 341.16,145.14 L 340.63,142.36 L 329.76,138.69 L 330.64,134.40 L 332.81,135.81 L 334.56,134.34 L 333.92,132.59 L 331.20,133.57 L 326.30,131.67 L 327.86,131.60 L 330.20,128.21 L 327.49,126.41 L 327.72,125.17 L 330.34,125.88 L 330.13,123.55 L 331.90,122.61 L 334.89,125.04 L 337.45,123.92 L 340.05,125.37 L 340.04,123.57 L 345.06,123.38 L 344.78,125.17 L 346.44,126.64 L 347.12,122.81 L 353.28,122.14 L 354.17,120.15 L 360.92,118.67 L 363.23,119.85 L 364.58,119.13 L 364.54,117.21 L 371.57,115.82 L 373.30,116.91 L 375.64,115.46 L 378.98,117.41 L 379.15,113.08 L 382.23,112.23 L 382.23,110.73 L 385.84,111.29 L 388.15,109.15 L 388.69,111.07 L 409.76,105.67 L 412.01,103.52 L 415.49,103.82 L 417.22,101.36 L 415.62,99.31 L 420.86,98.78 L 422.03,95.31 L 425.33,97.03 L 425.00,93.75 L 427.97,96.04 L 429.79,94.79 L 433.94,95.87 L 440.55,100.12 L 443.34,96.93 L 447.98,96.70 L 447.64,97.99 L 449.90,101.25 L 450.25,107.65 L 453.42,110.01 L 451.91,112.08 L 452.51,117.24 L 449.82,117.52 L 452.15,121.79 L 454.10,119.71 L 458.10,121.65 L 459.51,118.73 L 464.59,121.08 L 463.23,119.26 L 462.95,115.98 L 466.39,118.60 L 466.07,120.18 L 468.33,121.08 L 466.80,121.98 L 467.22,125.87 L 470.99,124.83 L 470.45,123.04 L 468.58,122.87 L 470.06,121.10 L 473.95,121.38 L 475.43,124.38 L 479.07,125.23 L 481.00,124.86 L 482.02,122.44 L 483.73,122.72 L 483.02,126.59 L 479.94,126.77 L 477.47,131.04 L 477.48,132.94 L 479.45,134.03 L 478.91,135.32 L 479.69,135.93 L 482.65,132.16 L 485.73,131.53 L 489.63,132.47 L 491.65,135.26 L 492.27,130.81 L 494.45,130.66 L 496.35,127.50 L 499.48,127.98 L 504.45,124.22 L 503.56,122.69 L 504.40,122.04 L 513.63,118.64 L 514.25,116.63 L 517.22,117.14 L 522.35,114.18 L 520.60,116.01 L 521.64,117.69 L 519.52,121.12 L 515.99,120.69 L 517.44,124.10 L 534.23,139.25 L 548.63,166.18 L 560.61,191.98 L 561.40,192.29 L 560.54,190.45 L 562.09,190.92 L 565.72,187.95 L 565.51,183.12 L 567.68,182.68 L 568.71,180.71 L 574.45,183.14 L 573.22,188.00 L 577.50,187.93 L 578.22,192.75 L 581.70,191.60 L 590.65,193.09 L 593.07,191.49 L 593.72,189.16 L 596.78,189.56 L 598.39,187.22 L 602.38,187.22 L 608.71,191.69 L 611.71,197.35 L 612.37,202.64 L 621.39,206.70 L 621.87,208.03 L 621.00,210.07 L 622.24,210.78 L 624.29,216.62 L 629.08,216.17 L 635.96,219.41 L 641.26,212.42 L 642.96,212.68 L 643.29,214.53 L 641.13,217.09 L 643.89,218.44 L 644.97,222.03 L 649.36,224.84 L 650.00,227.36 L 644.32,226.94 Z M 362.46,298.27 L 364.05,291.86 L 360.94,285.55 L 355.51,284.24 L 351.03,287.89 L 349.84,293.63 L 352.40,299.44 L 356.95,301.43 L 362.46,298.27 Z M 196.50,311.83 L 197.38,311.55 L 197.08,313.90 L 196.50,311.83 Z M 194.08,316.84 L 192.94,314.45 L 193.75,311.95 L 194.50,311.65 L 193.37,314.51 L 195.19,316.91 L 194.08,316.84 Z M 201.65,316.33 L 200.80,314.03 L 201.85,314.31 L 201.65,316.33 Z M 225.88,304.98 L 224.35,303.27 L 225.37,302.27 L 225.88,304.98 Z M 190.72,287.86 L 189.68,284.78 L 190.05,284.77 L 190.94,285.68 L 190.72,287.86 Z" fill="#4A90D9" stroke="#1a5fa8" stroke-width="1.2"/>
<path d="M 546.69,284.61 L 541.45,283.82 L 541.26,286.24 L 539.62,284.67 L 536.39,285.46 L 533.56,283.06 L 532.36,284.39 L 528.66,281.64 L 522.55,282.66 L 514.82,280.10 L 505.72,282.38 L 506.31,281.43 L 504.90,279.10 L 506.31,278.49 L 505.16,278.07 L 504.06,279.11 L 504.46,282.22 L 502.55,281.16 L 501.92,283.48 L 500.18,283.08 L 500.77,281.80 L 499.34,284.10 L 498.04,283.55 L 496.24,290.30 L 493.28,292.52 L 489.73,292.53 L 490.87,296.73 L 489.72,297.94 L 491.05,299.10 L 489.96,298.96 L 490.04,300.54 L 487.78,302.37 L 487.79,305.97 L 488.95,306.63 L 489.03,311.50 L 487.75,312.43 L 488.57,314.09 L 486.92,313.37 L 486.94,308.79 L 485.63,308.69 L 482.44,302.78 L 479.86,300.55 L 481.51,297.55 L 479.96,296.22 L 481.69,296.29 L 482.66,292.68 L 483.91,292.75 L 482.50,290.75 L 482.84,288.52 L 486.92,288.29 L 487.29,287.91 L 487.52,287.43 L 486.17,285.99 L 487.76,283.55 L 493.44,279.73 L 494.39,276.03 L 497.75,275.01 L 498.94,274.72 L 499.13,276.04 L 500.18,274.40 L 502.64,277.11 L 510.46,274.71 L 510.76,276.18 L 515.83,276.74 L 516.16,278.69 L 517.63,279.34 L 520.22,277.90 L 522.83,280.50 L 521.67,277.75 L 525.44,280.77 L 531.40,278.19 L 534.56,278.45 L 537.69,279.52 L 539.65,282.67 L 540.36,277.90 L 540.79,279.58 L 541.49,278.06 L 541.45,279.64 L 543.10,276.54 L 544.97,276.74 L 545.57,279.20 L 547.16,279.03 L 545.41,275.77 L 548.50,276.61 L 548.33,275.20 L 549.56,275.12 L 551.27,278.34 L 549.03,279.79 L 548.75,282.53 L 546.69,284.61 Z" fill="#A8C8E8" stroke="none"/>
<path d="M 521.30,105.23 L 525.34,104.28 L 526.85,107.16 L 527.46,103.47 L 531.21,101.48 L 536.71,103.36 L 536.13,104.97 L 532.73,105.45 L 530.40,107.93 L 531.64,107.31 L 532.35,110.11 L 533.40,110.33 L 531.01,111.35 L 530.13,110.76 L 530.68,109.87 L 527.11,109.18 L 528.54,108.56 L 520.80,109.47 L 521.30,105.23 Z" fill="#A8C8E8" stroke="none"/>
<path d="M 577.20,290.39 L 577.19,290.45 L 577.10,290.15 L 577.20,290.39 Z" fill="#A8C8E8" stroke="none"/>
<path d="M 647.68,378.11 L 642.12,379.72 L 644.13,376.41 L 643.79,373.65 L 650.17,375.97 L 651.34,379.64 L 647.68,378.11 Z" fill="#A8C8E8" stroke="none"/>
<path d="M 611.92,255.84 L 612.01,255.90 L 612.09,255.99 L 611.92,255.84 Z" fill="#A8C8E8" stroke="none"/>
<path d="M 715.76,248.35 L 713.76,248.20 L 711.54,250.51 L 710.03,255.17 L 708.14,255.26 L 706.78,250.62 L 710.33,247.90 L 710.91,245.16 L 709.65,243.15 L 710.33,242.44 L 713.92,243.22 L 712.06,245.07 L 711.91,247.26 L 712.91,248.06 L 715.35,245.31 L 716.11,246.03 L 714.60,243.01 L 717.24,244.96 L 715.76,248.35 Z" fill="#A8C8E8" stroke="none"/>
<path d="M 675.91,471.66 L 671.39,469.32 L 677.18,468.52 L 678.77,470.91 L 675.91,471.66 Z" fill="#A8C8E8" stroke="none"/>
<path d="M 556.80,145.82 L 557.10,148.70 L 554.09,147.84 L 552.72,145.25 L 554.08,142.38 L 556.22,142.78 L 555.41,141.89 L 557.57,143.41 L 556.80,145.82 Z" fill="#A8C8E8" stroke="none"/>
<path d="M 479.27,143.81 L 475.39,137.91 L 474.35,139.89 L 473.59,138.90 L 475.20,136.65 L 479.62,137.26 L 479.27,143.81 Z" fill="#A8C8E8" stroke="none"/>
<path d="M 564.52,91.74 L 562.47,94.06 L 558.15,94.48 L 558.02,92.88 L 563.54,90.70 L 564.52,91.74 Z" fill="#A8C8E8" stroke="none"/>
<path d="M 462.66,78.22 L 461.51,80.34 L 459.99,78.97 L 458.66,80.89 L 457.66,78.25 L 462.66,78.22 Z" fill="#A8C8E8" stroke="none"/>
<path d="M 407.09,88.21 L 404.52,86.76 L 405.56,84.51 L 407.33,86.49 L 409.33,85.59 L 407.09,88.21 Z" fill="#A8C8E8" stroke="none"/>
<path d="M 131.42,407.62 L 131.64,405.43 L 136.88,408.70 L 140.00,414.32 L 135.41,415.45 L 134.44,410.14 L 131.42,407.62 Z" fill="#A8C8E8" stroke="none"/>
<path d="M 693.40,205.53 L 694.26,203.47 L 696.68,204.68 L 696.38,206.15 L 693.40,205.53 Z" fill="#A8C8E8" stroke="none"/>
<path d="M 797.39,178.56 L 798.27,179.22 L 797.29,181.05 L 796.72,178.43 L 799.16,176.75 L 797.39,178.56 Z" fill="#A8C8E8" stroke="none"/>
<path d="M 300.37,169.60 L 300.25,165.22 L 301.14,161.81 L 300.99,170.25 L 305.73,169.90 L 305.73,170.76 L 298.83,172.45 L 300.04,170.76 L 298.49,168.58 L 300.37,169.60 Z" fill="#A8C8E8" stroke="none"/>
<path d="M 338.88,288.71 L 335.66,289.19 L 337.50,290.78 L 336.12,293.29 L 334.63,290.15 L 335.62,288.11 L 339.41,286.83 L 338.88,288.71 Z" fill="#A8C8E8" stroke="none"/>
<path d="M 656.27,179.78 L 654.38,176.70 L 653.86,171.95 L 650.83,171.04 L 654.92,170.21 L 654.57,174.83 L 656.27,179.78 Z" fill="#A8C8E8" stroke="none"/>
<path d="M 568.12,279.20 L 568.17,279.12 L 568.21,279.20 L 568.12,279.20 Z" fill="#A8C8E8" stroke="none"/>
<path d="M 570.72,281.92 L 567.89,277.55 L 574.50,278.06 L 575.50,279.41 L 575.03,281.42 L 574.09,281.18 L 574.52,282.66 L 570.72,281.92 Z" fill="#A8C8E8" stroke="none"/>
<path d="M 598.89,317.49 L 597.41,318.56 L 593.21,315.69 L 595.05,313.49 L 598.56,315.28 L 598.89,317.49 Z" fill="#A8C8E8" stroke="none"/>
<path d="M 634.07,233.12 L 631.42,236.25 L 628.11,235.25 L 628.98,233.27 L 634.07,233.12 Z" fill="#A8C8E8" stroke="none"/>
<path d="M 677.99,91.74 L 676.43,89.00 L 676.99,89.10 L 677.99,91.74 Z" fill="#A8C8E8" stroke="none"/>
<path d="M 664.77,239.11 L 663.77,237.84 L 666.95,238.28 L 664.77,239.11 Z" fill="#A8C8E8" stroke="none"/>
<path d="M 690.27,218.57 L 690.99,220.20 L 690.66,221.38 L 687.83,218.50 L 690.11,216.57 L 691.34,217.03 L 690.27,218.57 Z" fill="#A8C8E8" stroke="none"/>
<path d="M 679.53,197.69 L 679.96,198.15 L 678.69,198.15 L 679.53,197.69 Z" fill="#A8C8E8" stroke="none"/>
<path d="M 774.70,233.25 L 770.88,233.78 L 770.37,232.26 L 773.64,231.83 L 774.70,233.25 Z" fill="#A8C8E8" stroke="none"/>
<path d="M 796.05,224.13 L 794.85,224.28 L 794.52,226.11 L 790.59,222.81 L 796.05,224.13 Z" fill="#A8C8E8" stroke="none"/>
<path d="M 661.66,480.42 L 662.47,478.66 L 665.01,478.55 L 664.89,480.86 L 664.04,480.26 L 663.23,482.02 L 661.66,480.42 Z" fill="#A8C8E8" stroke="none"/>
<path d="M 747.58,482.47 L 747.14,484.28 L 743.62,481.10 L 747.58,482.47 Z" fill="#A8C8E8" stroke="none"/>
<path d="M 694.83,458.53 L 695.25,459.58 L 693.95,460.71 L 691.44,458.66 L 692.57,457.06 L 694.83,458.53 Z" fill="#A8C8E8" stroke="none"/>
<path d="M 677.30,497.87 L 674.16,495.41 L 673.98,493.10 L 677.59,496.60 L 677.30,497.87 Z" fill="#A8C8E8" stroke="none"/>
<path d="M 541.95,111.42 L 543.38,112.43 L 543.06,113.21 L 541.20,112.66 L 541.95,111.42 Z" fill="#A8C8E8" stroke="none"/>
<path d="M 536.63,139.26 L 535.24,139.33 L 535.35,137.13 L 536.62,137.58 L 536.63,139.26 Z" fill="#A8C8E8" stroke="none"/>
<path d="M 556.80,149.92 L 558.48,149.91 L 558.87,151.96 L 557.37,152.83 L 556.80,149.92 Z" fill="#A8C8E8" stroke="none"/>
<path d="M 556.85,152.05 L 556.89,152.15 L 556.80,152.01 L 556.85,152.05 Z" fill="#A8C8E8" stroke="none"/>
<path d="M 533.69,160.02 L 532.40,159.64 L 532.94,158.57 L 533.69,160.02 Z" fill="#A8C8E8" stroke="none"/>
<path d="M 574.37,158.94 L 573.92,159.08 L 575.93,155.91 L 578.87,154.02 L 574.37,158.94 Z" fill="#A8C8E8" stroke="none"/>
<path d="M 535.85,98.97 L 537.18,99.95 L 536.76,101.10 L 535.30,100.45 L 535.85,98.97 Z" fill="#A8C8E8" stroke="none"/>
<path d="M 459.57,111.13 L 458.17,110.11 L 458.70,108.99 L 459.82,109.63 L 459.57,111.13 Z" fill="#A8C8E8" stroke="none"/>
<path d="M 457.78,81.06 L 455.88,81.10 L 456.11,80.13 L 457.78,81.06 Z" fill="#A8C8E8" stroke="none"/>
<path d="M 464.50,52.37 L 463.28,51.20 L 463.80,50.89 L 464.50,52.37 Z" fill="#A8C8E8" stroke="none"/>
<path d="M 443.98,50.46 L 441.40,49.78 L 445.93,48.31 L 443.98,50.46 Z" fill="#A8C8E8" stroke="none"/>
<path d="M 420.47,44.41 L 419.42,43.28 L 419.89,42.36 L 420.75,42.70 L 420.47,44.41 Z" fill="#A8C8E8" stroke="none"/>
<path d="M 401.21,20.78 L 398.38,20.39 L 400.82,19.20 L 401.21,20.78 Z" fill="#A8C8E8" stroke="none"/>
<path d="M 392.45,6.38 L 391.64,5.34 L 393.45,4.61 L 392.45,6.38 Z" fill="#A8C8E8" stroke="none"/>
<path d="M 404.97,2.75 L 403.13,2.90 L 403.37,1.50 L 404.97,2.75 Z" fill="#A8C8E8" stroke="none"/>
<path d="M 385.81,5.39 L 376.87,2.33 L 377.75,1.85 L 385.58,3.68 L 385.81,5.39 Z" fill="#A8C8E8" stroke="none"/>
<path d="M 474.43,128.94 L 472.48,126.82 L 473.91,125.33 L 475.40,127.38 L 474.43,128.94 Z" fill="#A8C8E8" stroke="none"/>
<path d="M 485.23,137.15 L 482.48,136.43 L 483.80,134.59 L 485.46,134.98 L 485.23,137.15 Z" fill="#A8C8E8" stroke="none"/>
<path d="M 488.68,147.55 L 489.37,148.84 L 487.64,148.02 L 488.68,147.55 Z" fill="#A8C8E8" stroke="none"/>
<path d="M 509.45,161.89 L 508.01,161.18 L 509.22,157.79 L 509.45,161.89 Z" fill="#A8C8E8" stroke="none"/>
<path d="M 506.47,211.43 L 504.84,210.17 L 502.69,212.39 L 501.31,211.65 L 505.13,209.70 L 506.47,211.43 Z" fill="#A8C8E8" stroke="none"/>
<path d="M 542.58,101.74 L 544.81,102.69 L 542.72,104.85 L 541.12,103.95 L 542.58,101.74 Z" fill="#A8C8E8" stroke="none"/>
<path d="M 536.19,113.42 L 533.40,112.06 L 534.10,110.98 L 537.51,110.20 L 536.19,113.42 Z" fill="#A8C8E8" stroke="none"/>
<path d="M 533.53,111.76 L 533.48,111.78 L 533.65,111.62 L 533.53,111.76 Z" fill="#A8C8E8" stroke="none"/>
<path d="M 529.54,140.20 L 527.44,139.89 L 528.68,138.45 L 529.54,140.20 Z" fill="#A8C8E8" stroke="none"/>
<path d="M 532.31,105.00 L 532.27,104.62 L 532.64,104.25 L 533.48,103.85 L 533.99,104.85 L 532.31,105.00 Z" fill="#A8C8E8" stroke="none"/>
<path d="M 428.62,208.57 L 427.59,207.06 L 428.42,207.32 L 429.25,207.12 L 428.62,208.57 Z" fill="#A8C8E8" stroke="none"/>
<path d="M 422.33,205.94 L 421.17,205.49 L 421.38,204.81 L 422.50,204.35 L 422.33,205.94 Z" fill="#A8C8E8" stroke="none"/>
<path d="M 426.87,187.77 L 429.13,188.50 L 428.68,189.21 L 426.87,187.77 Z" fill="#A8C8E8" stroke="none"/>
<path d="M 335.51,187.05 L 335.47,188.10 L 333.88,188.34 L 333.77,186.68 L 335.51,187.05 Z" fill="#A8C8E8" stroke="none"/>
<path d="M 366.37,203.19 L 365.71,203.49 L 366.56,201.48 L 365.46,202.98 L 365.29,199.46 L 366.95,198.78 L 367.33,200.74 L 366.37,203.19 Z" fill="#A8C8E8" stroke="none"/>
<path d="M 365.80,206.09 L 366.63,205.64 L 366.39,207.39 L 364.96,207.67 L 366.22,206.38 L 365.35,206.19 L 365.15,205.43 L 366.72,203.64 L 365.80,206.09 Z" fill="#A8C8E8" stroke="none"/>
<path d="M 438.42,123.15 L 437.71,121.74 L 435.91,123.70 L 434.77,122.44 L 436.06,119.91 L 438.69,121.45 L 438.42,123.15 Z" fill="#A8C8E8" stroke="none"/>
<path d="M 371.46,122.78 L 370.38,121.99 L 370.89,119.35 L 371.46,122.78 Z" fill="#A8C8E8" stroke="none"/>
<path d="M 369.22,174.95 L 370.37,171.63 L 371.08,171.92 L 370.66,174.41 L 369.22,174.95 Z" fill="#A8C8E8" stroke="none"/>
<path d="M 370.59,179.98 L 369.24,177.89 L 370.66,176.28 L 370.59,179.98 Z" fill="#A8C8E8" stroke="none"/>
<path d="M 384.46,154.21 L 383.38,153.49 L 384.31,151.09 L 384.46,154.21 Z" fill="#A8C8E8" stroke="none"/>
<path d="M 415.89,144.39 L 415.96,143.64 L 417.62,144.47 L 415.89,144.39 Z" fill="#A8C8E8" stroke="none"/>
<path d="M 446.20,127.28 L 444.99,127.46 L 445.51,125.05 L 446.50,124.91 L 446.20,127.28 Z" fill="#A8C8E8" stroke="none"/>
<path d="M 455.12,123.81 L 453.37,123.46 L 453.68,122.23 L 455.26,122.29 L 455.12,123.81 Z" fill="#A8C8E8" stroke="none"/>
<path d="M 153.36,227.15 L 151.15,226.49 L 151.85,224.83 L 153.83,225.61 L 153.36,227.15 Z" fill="#A8C8E8" stroke="none"/>
<path d="M 155.01,246.53 L 154.60,244.65 L 155.45,244.98 L 155.01,246.53 Z" fill="#A8C8E8" stroke="none"/>
<path d="M 171.51,229.88 L 170.01,227.22 L 172.55,227.22 L 173.03,228.29 L 171.77,228.16 L 172.29,229.33 L 174.64,228.89 L 171.51,229.88 Z" fill="#A8C8E8" stroke="none"/>
<path d="M 196.22,235.07 L 191.25,232.26 L 193.27,232.19 L 191.57,230.60 L 194.92,231.48 L 196.26,232.33 L 194.25,233.13 L 196.35,233.91 L 196.22,235.07 Z" fill="#A8C8E8" stroke="none"/>
<path d="M 214.46,198.15 L 212.49,196.86 L 213.50,194.98 L 214.62,195.27 L 214.46,198.15 Z" fill="#A8C8E8" stroke="none"/>
<path d="M 223.30,220.93 L 221.03,219.15 L 221.47,218.06 L 223.66,219.50 L 223.30,220.93 Z" fill="#A8C8E8" stroke="none"/>
<path d="M 319.58,96.34 L 319.16,94.76 L 319.70,93.02 L 320.98,94.54 L 319.58,96.34 Z" fill="#A8C8E8" stroke="none"/>
<path d="M 322.39,92.04 L 320.47,91.91 L 320.76,90.35 L 322.39,92.04 Z" fill="#A8C8E8" stroke="none"/>
<path d="M 327.38,191.60 L 325.79,193.10 L 325.61,191.67 L 327.38,191.60 Z" fill="#A8C8E8" stroke="none"/>
<path d="M 151.70,399.47 L 148.28,399.62 L 150.55,398.03 L 149.54,396.45 L 151.77,396.13 L 158.34,402.28 L 151.70,399.47 Z" fill="#A8C8E8" stroke="none"/>
<path d="M 585.58,116.54 L 582.12,117.89 L 580.08,121.47 L 576.86,123.29 L 576.68,126.35 L 576.26,123.89 L 575.49,126.31 L 576.01,123.20 L 580.03,120.62 L 581.67,117.32 L 586.17,115.39 L 594.40,107.18 L 597.61,106.17 L 600.05,107.96 L 600.48,109.23 L 597.77,107.17 L 585.58,116.54 Z" fill="#A8C8E8" stroke="none"/>
<path d="M 616.19,251.66 L 614.10,254.98 L 612.18,254.98 L 613.77,255.84 L 612.45,256.14 L 605.02,249.79 L 600.83,249.07 L 597.22,245.79 L 597.36,244.59 L 602.94,244.45 L 604.36,242.44 L 601.77,239.56 L 602.57,231.99 L 604.08,229.82 L 611.53,225.76 L 609.56,221.94 L 607.30,219.97 L 605.12,220.37 L 601.52,215.61 L 606.09,216.61 L 607.75,214.11 L 609.40,213.44 L 605.30,218.42 L 608.15,219.50 L 612.87,224.90 L 615.19,225.27 L 604.20,230.75 L 602.60,234.75 L 604.43,241.15 L 608.89,241.85 L 605.54,242.28 L 603.32,244.62 L 616.19,251.66 Z" fill="#A8C8E8" stroke="none"/>
<path d="M 50.33,448.06 L 51.99,445.05 L 50.83,448.98 L 59.36,453.32 L 57.25,454.57 L 56.08,451.69 L 50.88,449.90 L 50.33,448.06 Z" fill="#A8C8E8" stroke="none"/>
<path d="M 4.23,238.37 L 3.26,239.01 L 0.00,234.94 L 0.00,232.18 L 4.23,238.37 Z" fill="#A8C8E8" stroke="none"/>
<path d="M 136.46,79.58 L 142.00,76.69 L 144.99,77.78 L 144.20,76.46 L 148.48,75.11 L 146.81,72.73 L 147.51,72.29 L 153.59,73.56 L 154.52,76.76 L 162.06,78.55 L 155.33,79.08 L 151.20,74.64 L 144.10,79.09 L 145.42,80.64 L 142.46,77.86 L 137.24,80.34 L 134.51,78.23 L 136.46,79.58 Z" fill="#A8C8E8" stroke="none"/>
<path d="M 174.91,141.26 L 176.73,142.07 L 175.28,143.28 L 176.16,147.46 L 173.45,152.16 L 175.07,151.70 L 172.03,153.61 L 170.13,160.28 L 174.26,161.74 L 169.39,161.17 L 167.64,164.40 L 166.06,164.84 L 169.96,157.23 L 170.09,154.09 L 174.73,145.96 L 173.98,142.68 L 174.91,141.26 Z" fill="#A8C8E8" stroke="none"/>
<path d="M 236.43,83.12 L 238.34,84.29 L 231.60,85.18 L 227.88,83.61 L 233.13,86.29 L 234.71,88.68 L 226.44,85.05 L 222.03,85.44 L 222.42,87.15 L 220.96,88.50 L 221.44,84.27 L 223.82,84.17 L 228.38,80.74 L 227.25,82.09 L 233.92,84.46 L 236.43,83.12 Z" fill="#A8C8E8" stroke="none"/>
<path d="M 52.83,472.90 L 50.33,471.52 L 49.25,469.14 L 50.39,469.64 L 50.38,467.38 L 51.59,467.92 L 50.96,471.26 L 55.25,467.81 L 54.38,465.95 L 54.38,464.92 L 56.11,467.80 L 58.46,463.15 L 57.86,467.20 L 53.73,470.13 L 52.83,472.90 Z" fill="#A8C8E8" stroke="none"/>
<path d="M 50.97,36.71 L 50.26,37.96 L 51.57,39.31 L 49.30,38.95 L 49.20,34.61 L 45.11,34.12 L 40.08,27.56 L 35.03,25.25 L 36.54,24.82 L 35.45,21.21 L 38.22,24.38 L 39.82,24.10 L 38.39,25.39 L 41.00,26.84 L 40.90,28.27 L 42.47,27.66 L 41.62,26.03 L 47.25,28.62 L 46.78,27.13 L 47.68,26.53 L 45.19,24.69 L 46.78,24.82 L 46.19,21.21 L 45.19,22.14 L 42.89,19.89 L 40.57,20.61 L 40.48,22.41 L 39.32,21.51 L 39.80,19.74 L 42.83,18.55 L 42.55,16.29 L 40.57,14.73 L 44.44,15.92 L 46.03,14.43 L 46.95,14.30 L 45.61,15.72 L 48.21,16.97 L 47.56,14.17 L 50.26,15.78 L 52.07,14.16 L 49.96,17.36 L 43.43,16.89 L 47.12,18.61 L 54.67,27.86 L 59.37,29.14 L 57.91,30.16 L 59.45,32.76 L 56.98,32.16 L 56.09,33.99 L 56.55,37.59 L 53.17,34.77 L 54.83,37.38 L 50.97,36.71 Z" fill="#A8C8E8" stroke="none"/>
<path d="M 12.95,262.09 L 9.11,262.91 L 4.79,259.85 L 0.00,261.67 L 0.00,259.61 L 0.14,258.43 L 2.01,259.88 L 4.48,258.38 L 9.32,259.52 L 10.95,256.73 L 10.88,253.40 L 13.44,259.65 L 12.95,262.09 Z" fill="#A8C8E8" stroke="none"/>
<path d="M 173.02,119.69 L 173.67,111.68 L 178.77,110.13 L 179.15,102.55 L 184.49,99.30 L 181.13,94.23 L 181.59,92.74 L 184.36,97.51 L 185.79,96.92 L 184.61,92.59 L 185.85,91.01 L 185.12,92.88 L 186.17,94.92 L 189.26,94.03 L 191.61,95.48 L 194.58,92.88 L 197.35,94.42 L 199.12,92.59 L 200.88,94.19 L 203.31,92.02 L 205.76,92.98 L 208.47,91.80 L 210.49,92.88 L 211.30,91.40 L 210.09,86.31 L 211.20,84.66 L 211.49,86.04 L 210.52,86.69 L 211.51,90.10 L 214.46,87.84 L 217.57,87.68 L 214.43,88.52 L 214.04,91.32 L 211.90,90.80 L 210.84,93.38 L 206.83,93.04 L 208.26,94.19 L 207.58,95.91 L 207.58,93.75 L 203.23,92.74 L 200.78,95.14 L 191.81,96.20 L 189.39,99.28 L 188.37,98.93 L 188.22,100.68 L 186.36,100.25 L 185.58,103.07 L 180.20,103.23 L 180.38,107.32 L 182.08,106.87 L 182.84,107.89 L 181.37,107.31 L 179.74,109.47 L 182.76,110.48 L 179.65,110.33 L 179.81,112.87 L 178.82,113.32 L 179.37,115.36 L 178.31,114.08 L 174.29,116.19 L 175.31,119.33 L 178.48,120.72 L 178.98,122.02 L 178.10,122.40 L 180.84,125.11 L 189.98,118.99 L 189.47,120.00 L 190.90,120.72 L 188.11,120.32 L 185.36,123.60 L 186.11,124.17 L 183.36,125.36 L 184.19,128.47 L 185.63,129.49 L 185.40,130.67 L 182.36,127.48 L 181.37,132.62 L 182.52,134.38 L 192.40,135.73 L 186.45,135.57 L 184.32,136.44 L 183.26,139.19 L 178.52,139.19 L 176.64,137.16 L 179.89,139.16 L 183.38,138.43 L 183.70,136.54 L 179.99,135.43 L 181.42,134.92 L 179.13,131.64 L 180.07,127.28 L 179.38,125.12 L 173.02,119.69 Z" fill="#A8C8E8" stroke="none"/>
<path d="M 66.25,5.90 L 68.51,5.21 L 66.70,6.43 L 68.35,7.81 L 66.81,8.84 L 59.11,0.44 L 66.25,5.90 Z" fill="#A8C8E8" stroke="none"/>
<path d="M 471.93,381.62 L 470.32,383.52 L 469.65,382.75 L 471.50,381.01 L 469.65,378.13 L 478.25,381.08 L 471.93,381.62 Z" fill="#A8C8E8" stroke="none"/>
<path d="M 416.80,397.17 L 413.87,396.60 L 412.38,392.42 L 418.82,394.87 L 416.80,397.17 Z" fill="#A8C8E8" stroke="none"/>
<path d="M 702.86,101.77 L 696.63,102.11 L 694.93,104.51 L 694.84,110.51 L 698.22,112.71 L 699.58,116.11 L 701.13,115.68 L 704.11,116.25 L 699.75,116.39 L 701.54,119.64 L 702.20,123.37 L 701.72,124.75 L 705.03,124.46 L 701.34,125.39 L 700.67,126.35 L 701.26,129.51 L 699.66,126.48 L 701.66,122.54 L 697.64,117.11 L 697.81,113.22 L 693.34,109.36 L 693.96,105.00 L 696.28,101.38 L 707.83,98.44 L 707.72,97.07 L 709.06,96.92 L 712.24,92.31 L 711.66,94.76 L 714.83,96.58 L 714.09,97.51 L 711.33,95.46 L 709.69,98.58 L 702.86,101.77 Z" fill="#A8C8E8" stroke="none"/>
<path d="M 87.13,50.64 L 84.04,50.27 L 83.35,49.35 L 84.69,49.78 L 83.58,47.32 L 80.05,44.26 L 80.76,44.00 L 75.57,45.43 L 72.67,48.78 L 72.03,49.09 L 70.69,48.89 L 75.43,44.93 L 78.83,43.71 L 76.31,41.12 L 81.01,40.53 L 80.60,39.56 L 81.48,39.00 L 81.77,41.69 L 78.57,42.70 L 81.77,44.13 L 83.78,46.75 L 84.86,46.51 L 84.16,47.53 L 87.13,50.64 Z" fill="#A8C8E8" stroke="none"/>
<path d="M 44.46,55.63 L 43.25,54.68 L 45.88,54.31 L 49.96,48.89 L 46.82,53.53 L 44.46,55.63 Z" fill="#A8C8E8" stroke="none"/>
<path d="M 31.83,65.15 L 31.12,67.06 L 28.69,69.13 L 23.12,71.11 L 27.86,68.65 L 26.32,66.98 L 28.93,68.66 L 30.92,66.38 L 30.00,65.49 L 33.02,63.90 L 35.84,65.98 L 34.58,67.07 L 31.83,65.15 Z" fill="#A8C8E8" stroke="none"/>
<path d="M 261.48,56.04 L 260.09,54.34 L 255.58,54.37 L 254.69,58.71 L 244.90,61.88 L 244.34,64.98 L 243.16,65.62 L 243.16,61.89 L 244.22,60.74 L 246.64,60.41 L 247.93,58.36 L 251.14,59.48 L 253.72,58.08 L 253.81,53.23 L 260.48,53.15 L 259.09,51.65 L 260.54,48.81 L 258.39,47.90 L 257.93,46.16 L 258.99,45.32 L 256.66,43.71 L 256.74,42.53 L 259.66,45.30 L 259.17,47.99 L 261.19,48.89 L 261.48,56.04 Z" fill="#A8C8E8" stroke="none"/>
<path d="M 276.49,36.69 L 276.18,34.05 L 275.70,35.78 L 274.19,36.65 L 276.34,38.84 L 276.12,40.40 L 274.70,40.67 L 276.16,41.34 L 275.70,42.28 L 276.74,42.86 L 276.04,43.64 L 277.02,43.76 L 277.22,46.45 L 276.29,45.01 L 276.82,44.16 L 275.53,44.13 L 276.29,42.99 L 274.38,40.79 L 276.08,39.38 L 271.51,36.14 L 270.33,38.53 L 270.69,34.43 L 269.07,32.89 L 271.55,31.08 L 268.80,29.94 L 269.17,28.47 L 266.14,29.28 L 266.74,25.99 L 260.22,28.19 L 258.76,27.86 L 268.32,23.75 L 266.39,22.79 L 269.02,23.10 L 267.85,20.20 L 261.44,19.06 L 268.93,19.53 L 268.04,16.54 L 269.29,13.38 L 272.52,10.97 L 271.60,10.41 L 271.35,9.96 L 274.76,10.43 L 273.76,8.76 L 274.78,5.93 L 271.41,0.00 L 271.68,0.00 L 274.70,3.19 L 275.47,9.73 L 274.53,11.20 L 275.36,12.55 L 269.50,13.72 L 270.80,15.91 L 268.94,17.44 L 271.18,17.61 L 270.34,20.62 L 274.73,20.23 L 275.20,22.09 L 271.65,21.25 L 270.67,23.24 L 271.68,24.24 L 270.37,23.68 L 270.33,25.25 L 267.92,27.17 L 272.00,30.92 L 271.39,32.96 L 269.76,32.83 L 271.21,34.46 L 270.84,36.22 L 271.98,35.93 L 273.78,36.79 L 273.22,36.20 L 274.60,36.22 L 274.19,34.92 L 275.28,35.34 L 276.88,32.82 L 276.97,35.89 L 279.54,35.47 L 280.15,36.22 L 276.49,36.69 Z" fill="#A8C8E8" stroke="none"/>
<path d="M 46.52,499.66 L 48.62,495.65 L 48.98,497.42 L 47.75,498.62 L 47.70,500.00 L 46.58,500.00 L 46.52,499.66 Z" fill="#A8C8E8" stroke="none"/>
<path d="M 68.83,447.15 L 68.07,447.80 L 65.64,446.90 L 63.00,448.16 L 64.31,445.91 L 63.87,444.22 L 63.14,444.59 L 61.46,442.58 L 59.62,443.33 L 59.24,442.13 L 55.76,443.65 L 54.38,441.72 L 54.07,439.85 L 55.11,441.18 L 55.38,437.95 L 56.59,440.86 L 55.84,441.29 L 56.93,441.29 L 57.43,438.98 L 57.49,441.08 L 61.66,441.88 L 64.10,444.32 L 65.50,443.04 L 65.74,440.56 L 65.83,442.74 L 68.26,442.58 L 64.94,443.68 L 64.60,445.88 L 68.83,447.15 Z" fill="#A8C8E8" stroke="none"/>
<path d="M 147.25,202.84 L 146.52,203.79 L 145.97,202.06 L 140.20,203.72 L 140.40,201.61 L 142.40,199.22 L 139.98,195.42 L 139.79,192.82 L 144.67,189.50 L 144.06,186.29 L 141.63,184.11 L 141.82,179.70 L 143.74,176.67 L 146.22,174.89 L 147.20,170.90 L 149.95,170.29 L 150.97,168.01 L 151.38,170.03 L 150.50,170.57 L 153.65,171.47 L 148.00,172.00 L 147.27,173.66 L 148.02,173.78 L 143.96,177.17 L 144.08,179.58 L 142.41,183.45 L 144.64,186.37 L 144.93,190.23 L 144.26,191.82 L 141.08,192.54 L 140.66,194.49 L 143.18,199.68 L 142.41,201.91 L 144.79,200.91 L 147.77,202.39 L 149.58,200.24 L 148.35,204.26 L 147.25,202.84 Z" fill="#A8C8E8" stroke="none"/>
<path d="M 102.23,52.06 L 105.33,49.78 L 105.63,52.51 L 109.16,51.98 L 109.47,48.41 L 109.95,47.47 L 109.79,51.87 L 110.65,51.88 L 111.24,49.93 L 116.07,45.45 L 114.90,48.18 L 111.94,50.15 L 111.96,52.37 L 110.69,52.90 L 109.17,57.66 L 109.37,59.52 L 109.71,58.60 L 110.44,58.00 L 109.80,59.74 L 112.20,61.89 L 111.10,62.65 L 112.13,63.61 L 112.56,67.79 L 109.48,67.65 L 108.08,69.17 L 108.94,67.65 L 110.44,67.29 L 108.27,66.35 L 110.64,65.51 L 109.91,62.75 L 107.73,61.78 L 109.67,62.02 L 109.53,60.86 L 108.23,60.23 L 107.34,57.13 L 106.23,57.14 L 108.77,53.59 L 105.83,52.94 L 103.48,55.24 L 105.16,52.72 L 102.23,52.06 Z" fill="#A8C8E8" stroke="none"/>
<path d="M 441.92,411.92 L 440.18,412.96 L 435.76,412.97 L 442.50,409.88 L 441.92,411.92 Z" fill="#A8C8E8" stroke="none"/>
<path d="M 525.36,338.47 L 525.01,337.10 L 527.95,335.44 L 538.02,337.17 L 536.00,338.96 L 525.36,338.47 Z" fill="#A8C8E8" stroke="none"/>
<path d="M 118.53,230.16 L 115.40,230.89 L 115.02,232.49 L 113.21,234.57 L 114.46,236.69 L 117.08,235.94 L 113.47,239.26 L 114.94,239.44 L 111.85,241.00 L 111.12,242.87 L 111.71,244.16 L 109.37,244.56 L 108.51,248.36 L 110.44,249.78 L 108.01,251.38 L 108.50,256.64 L 107.39,253.40 L 103.52,255.53 L 101.73,258.43 L 100.24,257.88 L 99.89,259.36 L 97.32,260.02 L 96.52,258.58 L 98.05,255.88 L 97.32,254.67 L 98.71,254.39 L 97.71,253.40 L 99.25,253.61 L 99.72,251.66 L 98.67,251.08 L 97.78,249.94 L 99.18,251.20 L 100.15,250.23 L 101.77,254.18 L 104.87,252.76 L 105.76,247.62 L 104.49,246.76 L 107.85,245.53 L 108.61,243.15 L 108.27,240.56 L 106.51,238.69 L 111.62,240.41 L 113.80,236.59 L 112.89,235.22 L 112.98,233.71 L 115.31,230.47 L 118.32,229.74 L 119.53,225.26 L 116.77,225.40 L 115.94,224.72 L 115.74,221.08 L 114.14,218.50 L 116.00,221.16 L 116.62,225.05 L 119.76,225.03 L 118.53,230.16 Z" fill="#A8C8E8" stroke="none"/>
<path d="M 15.07,307.46 L 10.13,305.45 L 9.62,304.29 L 10.66,303.35 L 9.21,299.38 L 6.01,298.09 L 6.43,296.37 L 5.17,296.80 L 6.43,294.34 L 2.90,297.09 L 4.92,293.40 L 3.91,292.91 L 4.22,294.01 L 3.23,294.91 L 2.70,293.71 L 2.29,295.14 L 1.53,291.74 L 0.00,291.36 L 0.00,287.68 L 1.02,290.15 L 1.06,287.78 L 3.91,288.35 L 4.01,290.50 L 3.16,289.59 L 2.16,292.05 L 3.16,292.99 L 4.96,290.79 L 4.84,288.87 L 6.34,288.87 L 6.90,290.30 L 5.34,290.45 L 6.98,291.67 L 7.18,296.12 L 8.20,295.52 L 15.07,307.46 Z" fill="#A8C8E8" stroke="none"/>
<path d="M 539.87,363.94 L 533.78,367.32 L 534.82,368.60 L 529.51,373.06 L 522.83,372.95 L 516.24,369.19 L 514.69,369.76 L 513.78,367.21 L 533.23,361.26 L 539.61,360.83 L 536.87,363.36 L 539.87,363.94 Z" fill="#A8C8E8" stroke="none"/>
<path d="M 710.24,198.74 L 716.43,196.05 L 718.27,193.53 L 719.42,194.36 L 719.46,198.07 L 724.43,202.10 L 720.78,203.13 L 718.64,206.99 L 715.69,208.26 L 712.56,206.61 L 710.24,198.74 Z" fill="#A8C8E8" stroke="none"/>
<path d="M 141.07,475.69 L 139.98,475.17 L 138.84,479.08 L 136.27,477.25 L 135.00,465.69 L 132.64,463.64 L 132.64,460.90 L 134.35,458.25 L 131.95,457.74 L 132.48,455.37 L 136.33,455.04 L 137.84,457.15 L 137.07,464.89 L 137.95,466.38 L 141.15,466.38 L 141.57,468.19 L 139.98,468.21 L 142.95,473.25 L 141.07,475.69 Z M 138.53,472.89 L 137.99,472.50 L 137.83,473.26 L 138.55,474.45 L 138.53,472.89 Z M 139.12,470.57 L 138.81,471.43 L 139.39,472.01 L 139.12,470.57 Z" fill="#A8C8E8" stroke="none"/>
<path d="M 289.25,383.14 L 283.11,386.14 L 280.48,380.75 L 279.71,383.47 L 279.21,381.95 L 281.21,371.40 L 283.26,369.20 L 286.31,371.42 L 286.12,375.00 L 287.69,376.28 L 287.13,378.50 L 289.39,380.10 L 289.25,383.14 Z" fill="#A8C8E8" stroke="none"/>
<path d="M 581.76,296.07 L 577.41,291.50 L 577.62,284.19 L 579.48,282.13 L 584.32,285.42 L 586.39,296.75 L 581.76,296.07 Z" fill="#A8C8E8" stroke="none"/>
<path d="M 106.63,453.40 L 105.91,450.00 L 103.65,451.41 L 98.85,449.96 L 101.23,447.49 L 100.91,445.14 L 108.55,443.72 L 109.95,441.87 L 108.61,442.58 L 108.30,441.05 L 112.34,439.56 L 115.49,440.72 L 111.20,443.06 L 108.44,447.77 L 111.29,449.23 L 111.17,451.39 L 109.03,453.97 L 106.63,453.40 Z" fill="#A8C8E8" stroke="none"/>
<path d="M 718.45,222.23 L 718.46,222.23 L 718.46,222.23 L 718.45,222.23 Z M 729.11,227.01 L 723.99,230.17 L 722.93,226.85 L 717.11,223.54 L 721.15,222.01 L 724.91,225.27 L 729.12,225.56 L 729.11,227.01 Z" fill="#A8C8E8" stroke="none"/>
<path d="M 432.30,195.94 L 429.05,195.84 L 431.47,194.39 L 429.93,193.97 L 427.29,198.45 L 425.83,199.21 L 426.95,201.61 L 428.93,200.68 L 429.05,202.77 L 427.24,202.42 L 425.31,204.35 L 421.42,202.85 L 423.45,196.23 L 427.35,196.32 L 426.78,198.15 L 429.47,193.04 L 433.20,193.90 L 431.79,195.71 L 433.24,194.85 L 432.30,195.94 Z" fill="#A8C8E8" stroke="none"/>
<path d="M 375.61,151.83 L 373.18,152.87 L 373.51,154.18 L 370.16,154.89 L 376.21,146.25 L 375.61,151.83 Z" fill="#A8C8E8" stroke="none"/>
<path d="M 726.11,258.74 L 724.23,258.58 L 722.31,252.89 L 722.74,251.50 L 721.81,251.50 L 722.57,250.94 L 719.96,249.95 L 719.82,247.33 L 721.16,247.27 L 721.73,245.52 L 724.65,246.01 L 722.55,249.87 L 723.38,250.57 L 722.95,253.18 L 726.56,256.77 L 726.11,258.74 Z" fill="#A8C8E8" stroke="none"/>
<path d="M 412.29,401.41 L 407.15,403.21 L 408.64,408.09 L 405.20,404.48 L 405.15,402.43 L 390.37,397.43 L 401.02,397.48 L 404.48,398.63 L 406.21,400.17 L 405.77,401.29 L 407.82,401.28 L 413.87,396.60 L 412.29,401.41 Z" fill="#A8C8E8" stroke="none"/>
<path d="M 725.17,232.58 L 723.66,231.28 L 725.59,229.89 L 725.17,232.58 Z" fill="#A8C8E8" stroke="none"/>
<path d="M 418.77,206.41 L 417.38,205.37 L 417.88,204.06 L 418.77,206.41 Z" fill="#A8C8E8" stroke="none"/>
<path d="M 438.19,198.73 L 437.37,199.54 L 435.21,195.92 L 437.58,198.82 L 437.27,196.87 L 438.19,198.73 Z" fill="#A8C8E8" stroke="none"/>
<path d="M 297.77,304.75 L 299.75,295.76 L 306.99,292.24 L 306.27,294.56 L 302.23,296.61 L 301.68,300.79 L 299.27,303.66 L 299.39,310.60 L 297.73,313.17 L 298.68,317.16 L 296.95,323.76 L 295.50,325.44 L 293.92,324.68 L 294.97,321.69 L 293.75,316.56 L 297.77,304.75 Z" fill="#A8C8E8" stroke="none"/>
<path d="M 310.52,287.89 L 309.45,285.58 L 312.89,286.31 L 313.24,289.69 L 312.20,290.55 L 310.52,287.89 Z" fill="#A8C8E8" stroke="none"/>
<path d="M 325.62,288.06 L 324.37,284.42 L 322.62,286.12 L 319.79,283.81 L 317.16,284.79 L 315.38,283.08 L 315.54,280.26 L 319.03,277.56 L 320.55,282.14 L 321.15,279.08 L 322.62,280.44 L 324.89,278.77 L 321.96,276.49 L 322.62,275.79 L 325.45,276.57 L 325.02,280.05 L 326.45,282.33 L 329.40,282.83 L 331.03,281.77 L 330.29,280.09 L 331.62,278.66 L 334.23,278.04 L 331.19,282.19 L 330.42,287.31 L 325.11,290.48 L 325.62,288.06 Z" fill="#A8C8E8" stroke="none"/>
<path d="M 315.30,291.02 L 315.85,291.93 L 315.03,293.48 L 314.64,291.85 L 313.19,291.93 L 315.30,291.02 Z" fill="#A8C8E8" stroke="none"/>
</svg>