<svg xmlns="http://www.w3.org/2000/svg" width="800" height="500" viewBox="0 0 800 500">
<rect width="800" height="500" fill="#A8C8E8"/>
<path d="M 26.30,465.58 L 29.86,465.56 L 28.24,460.98 L 29.57,454.60 L 33.54,455.95 L 34.62,458.40 L 39.44,458.14 L 48.96,453.13 L 52.09,454.09 L 55.09,457.05 L 61.39,457.65 L 67.82,456.17 L 79.38,449.61 L 88.81,450.07 L 95.29,448.24 L 97.77,445.50 L 99.42,447.06 L 99.80,450.31 L 93.27,458.44 L 87.66,460.30 L 86.33,463.26 L 85.95,467.37 L 26.22,467.37 L 26.30,465.58 Z" fill="#E8E0D0" stroke="#B8B0A0" stroke-width="0.5"/>
<path d="M 2.30,181.05 L 1.86,182.32 L 0.00,182.72 L 0.00,179.16 L 2.30,181.05 Z M 1.03,189.16 L 0.00,190.23 L 0.00,188.41 L 1.03,189.16 Z M 4.70,191.00 L 5.51,192.21 L 10.46,191.48 L 11.25,194.21 L 13.84,194.81 L 12.98,196.30 L 15.23,201.35 L 14.12,202.20 L 16.98,207.14 L 23.03,205.88 L 25.03,208.43 L 26.75,208.01 L 29.01,209.84 L 39.06,205.68 L 41.31,208.26 L 41.28,209.98 L 46.22,215.41 L 48.25,214.67 L 48.34,212.48 L 49.89,212.47 L 50.57,213.94 L 54.35,214.22 L 57.69,217.18 L 60.36,215.89 L 61.65,218.26 L 65.28,218.63 L 68.27,221.96 L 72.11,221.07 L 71.13,222.97 L 72.65,225.77 L 72.43,227.38 L 69.70,231.00 L 66.71,232.42 L 71.34,234.63 L 68.00,235.40 L 66.19,239.44 L 68.92,240.00 L 69.77,243.29 L 68.44,244.54 L 70.58,245.53 L 67.76,249.90 L 67.44,253.54 L 56.95,252.71 L 55.21,256.08 L 50.12,257.65 L 48.53,262.97 L 49.87,263.79 L 47.96,267.78 L 47.09,266.65 L 40.66,266.98 L 38.08,270.62 L 36.75,269.63 L 32.18,272.12 L 32.29,272.56 L 31.15,275.11 L 31.56,273.51 L 30.25,272.50 L 26.63,273.52 L 25.14,275.66 L 24.05,274.53 L 20.53,274.83 L 15.51,278.57 L 11.47,284.42 L 9.27,285.35 L 13.68,280.63 L 11.80,277.39 L 12.06,279.52 L 10.82,281.32 L 7.19,283.54 L 9.19,291.94 L 6.91,290.36 L 5.68,287.25 L 2.94,287.59 L 1.34,285.50 L 0.00,284.98 L 0.00,190.75 L 4.70,191.00 Z" fill="#E8E0D0" stroke="#B8B0A0" stroke-width="0.5"/>
<path d="M 445.48,378.38 L 445.83,379.45 L 444.81,378.36 L 445.48,378.38 Z M 446.09,394.65 L 443.78,398.37 L 444.37,395.94 L 437.99,392.74 L 432.03,394.27 L 431.83,397.98 L 430.66,398.46 L 429.54,396.80 L 428.64,399.69 L 429.20,404.98 L 437.68,405.08 L 440.39,403.52 L 440.67,405.36 L 443.78,403.85 L 445.55,404.54 L 447.36,407.86 L 449.90,407.63 L 451.35,405.48 L 455.80,403.65 L 456.45,406.46 L 459.24,406.65 L 459.37,409.84 L 463.03,408.11 L 465.22,411.39 L 466.29,408.84 L 468.77,407.98 L 476.71,408.35 L 482.06,406.44 L 482.10,411.06 L 484.77,415.28 L 482.99,417.18 L 484.65,422.42 L 487.25,423.51 L 488.41,420.90 L 490.99,420.95 L 497.10,424.67 L 496.58,431.66 L 498.72,437.41 L 497.82,440.49 L 501.15,444.12 L 497.82,447.22 L 494.98,444.24 L 490.76,443.64 L 483.34,447.48 L 481.97,446.66 L 483.71,445.26 L 483.88,443.61 L 478.29,442.94 L 472.10,447.42 L 470.47,450.92 L 465.60,452.05 L 460.42,456.95 L 458.17,457.18 L 455.45,450.22 L 457.49,435.01 L 453.34,434.50 L 454.56,428.55 L 449.57,424.50 L 446.07,425.73 L 443.69,430.95 L 441.14,434.26 L 440.04,434.14 L 441.40,438.55 L 439.87,441.54 L 436.94,440.16 L 431.92,440.86 L 430.33,443.45 L 431.11,447.36 L 429.66,449.24 L 428.70,449.55 L 424.32,445.26 L 424.66,446.34 L 423.68,445.43 L 423.50,446.86 L 421.64,446.36 L 413.85,452.82 L 410.83,449.68 L 411.36,441.79 L 414.95,434.83 L 416.50,434.09 L 417.81,429.26 L 414.13,423.34 L 414.27,418.73 L 415.57,417.69 L 414.69,415.23 L 409.66,415.04 L 409.38,412.44 L 405.50,410.83 L 407.18,405.01 L 410.00,403.45 L 419.79,404.82 L 421.12,399.31 L 422.53,399.86 L 423.09,398.72 L 422.74,396.91 L 424.23,398.78 L 422.94,395.10 L 425.53,394.88 L 420.57,393.55 L 429.19,392.99 L 428.24,391.10 L 429.52,390.28 L 428.12,386.19 L 429.48,385.65 L 430.04,382.28 L 431.93,382.38 L 434.48,384.91 L 441.37,380.50 L 442.39,377.67 L 447.33,383.06 L 442.46,387.86 L 442.48,389.88 L 444.35,390.27 L 445.55,392.91 L 449.67,392.20 L 446.09,394.65 Z M 446.49,399.15 L 446.56,399.81 L 445.05,400.83 L 444.04,398.72 L 446.49,399.15 Z" fill="#E8E0D0" stroke="#B8B0A0" stroke-width="0.5"/>
<path d="M 798.74,349.64 L 770.81,345.56 L 760.59,346.71 L 760.11,343.31 L 754.67,337.14 L 750.52,324.14 L 747.87,323.05 L 748.83,318.23 L 744.42,318.70 L 740.27,317.08 L 733.95,311.27 L 730.84,311.05 L 725.91,305.96 L 717.62,304.35 L 709.92,304.88 L 701.54,303.77 L 695.70,301.09 L 693.45,301.66 L 690.73,296.05 L 691.46,291.31 L 695.03,286.37 L 693.73,281.24 L 695.58,276.41 L 693.60,269.48 L 691.48,268.20 L 688.50,262.82 L 686.98,256.42 L 683.77,254.64 L 683.31,252.38 L 679.72,253.39 L 677.15,249.61 L 671.43,250.46 L 666.06,246.96 L 664.43,242.99 L 657.69,239.65 L 659.00,237.22 L 655.04,233.95 L 656.72,232.46 L 656.03,228.84 L 660.04,226.92 L 660.42,223.76 L 665.82,222.86 L 668.94,223.90 L 669.16,221.97 L 670.22,223.54 L 672.49,222.68 L 673.17,220.27 L 675.07,221.23 L 679.12,218.70 L 678.05,216.47 L 678.69,214.91 L 682.39,214.18 L 683.01,212.29 L 688.58,209.65 L 691.13,209.62 L 695.15,205.80 L 700.09,205.14 L 704.18,201.06 L 709.19,200.97 L 711.66,197.69 L 715.20,201.25 L 716.99,199.16 L 719.01,199.35 L 719.62,202.18 L 720.77,202.62 L 734.89,203.38 L 736.06,209.49 L 739.11,213.22 L 743.01,212.74 L 744.90,214.58 L 750.10,215.65 L 754.10,213.21 L 755.55,214.71 L 756.89,213.60 L 763.37,216.19 L 768.07,215.65 L 770.32,218.15 L 772.65,218.44 L 775.47,216.37 L 775.38,215.10 L 778.61,214.98 L 781.28,213.16 L 783.90,208.39 L 784.28,204.09 L 781.16,202.18 L 780.00,199.41 L 780.50,198.08 L 778.32,195.26 L 781.18,186.92 L 783.39,186.59 L 784.76,182.14 L 789.05,180.29 L 791.54,174.63 L 796.90,178.19 L 800.00,178.83 L 800.00,349.25 L 798.74,349.64 Z" fill="#E8E0D0" stroke="#B8B0A0" stroke-width="0.5"/>
<path d="M 88.13,346.42 L 84.78,345.40 L 83.22,341.85 L 81.18,340.51 L 74.80,339.09 L 73.38,335.83 L 70.53,334.55 L 71.42,331.87 L 78.68,331.80 L 90.01,337.72 L 105.34,338.58 L 109.33,342.72 L 117.22,346.30 L 116.27,348.53 L 118.92,349.86 L 125.88,346.23 L 127.98,346.72 L 129.13,348.81 L 130.18,346.06 L 133.81,347.28 L 135.85,350.26 L 140.96,351.33 L 139.63,356.28 L 143.50,359.54 L 149.12,361.52 L 148.16,364.24 L 146.46,364.72 L 146.50,367.09 L 152.65,373.32 L 151.51,376.54 L 149.96,377.45 L 146.94,374.68 L 143.77,375.18 L 140.59,373.36 L 141.01,372.12 L 135.35,369.97 L 131.36,373.45 L 129.71,373.26 L 130.04,374.44 L 121.87,374.05 L 112.94,376.34 L 112.11,374.83 L 108.68,373.71 L 109.67,372.79 L 104.56,369.03 L 104.98,367.66 L 102.34,367.67 L 100.85,370.36 L 94.54,369.01 L 92.89,370.54 L 89.31,368.85 L 92.41,363.23 L 88.13,346.42 Z" fill="#E8E0D0" stroke="#B8B0A0" stroke-width="0.5"/>
<path d="M 132.14,376.89 L 132.10,377.83 L 131.50,377.44 L 132.14,376.89 Z M 134.96,370.13 L 137.59,370.39 L 141.01,372.12 L 140.30,372.84 L 141.95,374.44 L 146.72,374.60 L 150.23,377.44 L 151.75,376.16 L 152.57,373.06 L 147.99,369.22 L 146.35,366.27 L 146.46,364.72 L 147.99,364.41 L 149.42,361.97 L 150.80,362.26 L 151.09,363.87 L 153.21,362.68 L 156.72,368.07 L 158.12,368.15 L 159.67,372.72 L 166.53,374.63 L 169.28,369.82 L 173.44,367.30 L 175.71,362.79 L 181.39,370.68 L 183.26,377.21 L 187.46,382.14 L 187.47,384.59 L 196.02,387.48 L 197.90,392.26 L 195.93,390.29 L 191.81,389.80 L 186.90,393.74 L 186.05,401.87 L 184.36,405.30 L 185.85,409.56 L 184.21,408.70 L 183.36,414.23 L 181.84,415.53 L 182.68,413.33 L 180.47,411.49 L 179.91,416.04 L 178.81,417.21 L 179.33,425.21 L 176.07,425.91 L 173.71,421.84 L 172.43,422.17 L 168.54,417.60 L 169.34,415.80 L 172.22,414.77 L 169.93,409.93 L 172.78,407.92 L 168.28,401.96 L 157.64,409.21 L 150.44,417.01 L 150.17,413.36 L 148.98,411.28 L 151.52,410.91 L 148.56,407.35 L 150.56,404.71 L 146.40,404.00 L 141.00,397.65 L 139.00,397.10 L 142.60,396.38 L 143.89,392.47 L 138.35,388.49 L 136.48,384.20 L 139.24,380.77 L 137.03,377.94 L 132.76,377.12 L 134.35,375.65 L 132.33,374.64 L 131.93,372.94 L 134.96,370.13 Z M 138.60,385.18 L 138.77,384.71 L 137.77,384.66 L 138.60,385.18 Z M 137.27,414.78 L 135.71,411.19 L 133.77,410.95 L 129.14,402.00 L 132.31,400.76 L 133.72,404.33 L 135.09,403.88 L 137.23,405.91 L 141.55,404.81 L 141.19,408.09 L 143.97,410.29 L 143.63,412.08 L 145.81,417.35 L 137.27,414.78 Z M 134.19,378.79 L 134.07,378.37 L 134.60,378.64 L 134.19,378.79 Z M 200.12,390.88 L 200.03,390.38 L 200.54,390.38 L 200.12,390.88 Z M 197.44,389.24 L 197.11,387.74 L 197.52,387.88 L 197.44,389.24 Z" fill="#E8E0D0" stroke="#B8B0A0" stroke-width="0.5"/>
<path d="M 116.24,382.60 L 116.08,385.36 L 114.27,387.81 L 116.25,393.46 L 115.57,394.54 L 120.06,396.40 L 123.65,395.92 L 129.54,403.15 L 126.59,400.84 L 125.29,402.07 L 124.41,407.27 L 119.84,408.01 L 120.61,411.19 L 121.95,412.20 L 121.52,415.50 L 123.03,417.72 L 123.21,426.16 L 125.28,426.96 L 122.14,435.03 L 126.96,438.34 L 126.59,443.27 L 129.48,446.09 L 129.04,448.85 L 127.13,448.19 L 123.15,452.01 L 121.87,449.85 L 122.54,447.12 L 120.74,445.76 L 117.33,447.80 L 108.83,444.66 L 106.65,445.59 L 104.73,444.58 L 101.85,448.87 L 99.55,449.44 L 99.42,447.06 L 97.77,445.50 L 95.29,448.24 L 88.81,450.07 L 79.38,449.61 L 67.82,456.17 L 61.39,457.65 L 55.09,457.05 L 52.09,454.09 L 48.96,453.13 L 39.44,458.14 L 34.62,458.40 L 33.54,455.95 L 29.57,454.60 L 28.24,460.98 L 29.93,465.41 L 26.30,465.58 L 26.22,467.37 L 20.54,467.37 L 19.13,464.18 L 24.32,457.99 L 24.05,455.08 L 21.98,452.80 L 16.92,456.20 L 16.58,457.21 L 18.17,456.58 L 17.12,458.72 L 13.73,459.85 L 5.73,454.86 L 0.63,459.01 L 0.00,460.12 L 0.00,360.49 L 5.75,360.95 L 9.78,358.27 L 12.14,359.53 L 10.62,361.28 L 13.14,365.17 L 16.55,366.74 L 22.28,365.42 L 23.38,369.81 L 26.57,373.57 L 31.01,371.56 L 33.79,372.87 L 35.63,375.58 L 40.40,377.58 L 43.57,376.02 L 44.94,378.59 L 50.27,379.76 L 63.72,376.20 L 72.45,379.67 L 87.72,371.32 L 89.31,368.85 L 92.89,370.54 L 94.54,369.01 L 100.85,370.36 L 103.27,367.50 L 105.22,367.79 L 104.56,369.03 L 109.67,372.79 L 108.68,373.71 L 112.11,374.83 L 116.24,382.60 Z" fill="#E8E0D0" stroke="#B8B0A0" stroke-width="0.5"/>
<path d="M 132.33,374.64 L 134.35,375.65 L 132.76,377.12 L 137.03,377.94 L 139.24,380.77 L 136.48,384.20 L 138.35,388.49 L 143.89,392.47 L 142.60,396.38 L 139.00,397.10 L 141.00,397.65 L 146.40,404.00 L 150.56,404.71 L 148.56,407.35 L 151.52,410.91 L 148.98,411.28 L 150.17,413.36 L 150.44,417.01 L 145.81,417.35 L 143.63,412.08 L 143.97,410.29 L 141.19,408.09 L 141.27,404.58 L 137.23,405.91 L 135.09,403.88 L 133.72,404.33 L 132.31,400.76 L 129.14,402.00 L 123.65,395.92 L 120.06,396.40 L 115.57,394.54 L 116.25,393.46 L 114.27,387.81 L 116.08,385.36 L 116.24,382.60 L 112.81,376.31 L 121.87,374.05 L 130.04,374.44 L 129.71,373.26 L 131.93,372.94 L 132.33,374.64 Z M 131.50,377.44 L 132.10,377.83 L 132.14,376.89 L 131.50,377.44 Z M 134.60,378.64 L 134.07,378.37 L 134.19,378.79 L 134.60,378.64 Z M 137.77,384.66 L 138.77,384.71 L 138.60,385.18 L 137.77,384.66 Z" fill="#E8E0D0" stroke="#B8B0A0" stroke-width="0.5"/>
<path d="M 130.53,451.16 L 129.84,455.26 L 132.47,457.52 L 131.80,459.98 L 132.93,462.19 L 134.83,462.37 L 135.49,467.37 L 85.95,467.37 L 86.33,463.26 L 87.66,460.30 L 93.27,458.44 L 99.55,449.44 L 102.05,448.77 L 103.94,444.95 L 108.83,444.66 L 117.33,447.80 L 120.74,445.76 L 122.54,447.12 L 121.87,449.85 L 123.15,452.01 L 127.13,448.19 L 130.53,451.16 Z" fill="#E8E0D0" stroke="#B8B0A0" stroke-width="0.5"/>
<path d="M 133.77,410.95 L 135.71,411.19 L 137.27,414.78 L 145.69,417.37 L 150.92,416.87 L 157.64,409.21 L 168.28,401.96 L 172.78,407.92 L 169.93,409.93 L 172.22,414.77 L 169.34,415.80 L 168.54,417.60 L 172.43,422.17 L 173.71,421.84 L 176.07,425.91 L 179.33,425.21 L 180.19,434.92 L 182.49,440.04 L 186.28,442.40 L 195.51,444.33 L 197.06,448.65 L 205.41,455.70 L 216.48,459.09 L 242.16,452.32 L 237.29,453.70 L 242.25,454.72 L 242.32,450.94 L 241.02,445.18 L 244.60,445.51 L 250.08,443.42 L 251.73,441.85 L 252.19,438.00 L 255.91,434.02 L 262.99,430.98 L 270.23,431.68 L 270.27,429.87 L 271.90,428.48 L 279.27,429.73 L 280.94,428.07 L 283.11,433.75 L 292.96,437.03 L 293.57,439.03 L 295.42,439.86 L 300.85,438.74 L 307.10,441.75 L 308.93,447.65 L 315.76,450.98 L 319.71,458.09 L 329.79,458.10 L 329.56,463.21 L 330.49,467.37 L 135.49,467.37 L 134.83,462.37 L 132.79,462.00 L 131.80,459.98 L 132.34,457.13 L 129.74,454.94 L 130.53,451.16 L 128.88,449.56 L 129.48,446.09 L 126.67,443.57 L 126.96,438.34 L 122.14,435.03 L 125.28,426.96 L 123.21,426.16 L 123.03,417.72 L 121.52,415.50 L 121.95,412.20 L 120.61,411.19 L 119.84,408.01 L 124.41,407.27 L 125.29,402.07 L 126.59,400.84 L 129.54,403.15 L 133.77,410.95 Z" fill="#E8E0D0" stroke="#B8B0A0" stroke-width="0.5"/>
<path d="M 511.56,465.53 L 510.37,467.37 L 453.64,467.37 L 457.01,463.75 L 457.65,461.37 L 459.76,462.49 L 459.64,460.96 L 464.52,457.79 L 464.49,456.73 L 469.34,454.73 L 482.49,453.34 L 487.33,454.82 L 495.01,450.45 L 497.58,453.15 L 500.37,451.56 L 503.44,452.99 L 504.43,456.52 L 508.06,456.52 L 511.15,461.60 L 511.56,465.53 Z" fill="#E8E0D0" stroke="#B8B0A0" stroke-width="0.5"/>
<path d="M 493.48,452.14 L 491.72,451.56 L 487.33,454.82 L 484.12,453.43 L 477.01,453.70 L 465.03,456.46 L 459.64,460.96 L 459.76,462.49 L 457.65,461.37 L 457.01,463.75 L 452.99,467.37 L 365.94,467.37 L 370.34,464.78 L 374.02,452.58 L 374.02,449.29 L 377.50,447.18 L 383.30,446.75 L 386.05,440.87 L 392.57,445.39 L 401.28,444.42 L 404.38,448.06 L 407.37,446.29 L 410.35,447.25 L 410.67,449.44 L 413.70,452.81 L 421.64,446.36 L 423.50,446.86 L 423.68,445.43 L 424.66,446.34 L 424.32,445.26 L 429.51,449.30 L 431.11,447.36 L 430.33,443.45 L 431.92,440.86 L 436.94,440.16 L 439.87,441.54 L 441.40,438.55 L 440.04,434.14 L 441.14,434.26 L 443.69,430.95 L 446.07,425.73 L 449.57,424.50 L 454.56,428.55 L 453.34,434.50 L 457.49,435.01 L 455.45,450.22 L 458.17,457.18 L 460.42,456.95 L 465.60,452.05 L 470.47,450.92 L 472.10,447.42 L 478.29,442.94 L 483.88,443.61 L 483.71,445.26 L 481.97,446.66 L 483.34,447.48 L 490.76,443.64 L 494.98,444.24 L 497.82,447.22 L 496.62,447.54 L 495.73,446.00 L 491.41,448.39 L 493.48,452.14 Z" fill="#E8E0D0" stroke="#B8B0A0" stroke-width="0.5"/>
<path d="M 352.40,292.99 L 349.84,287.94 L 351.03,282.95 L 355.51,279.77 L 360.94,280.91 L 364.05,286.40 L 362.46,291.97 L 356.95,294.72 L 352.40,292.99 Z" fill="#E8E0D0" stroke="#B8B0A0" stroke-width="0.5"/>
<path d="M 511.56,465.53 L 511.10,461.28 L 509.54,457.95 L 507.10,455.95 L 504.43,456.52 L 502.98,452.75 L 500.37,451.56 L 497.58,453.15 L 496.60,451.17 L 493.54,451.05 L 491.58,449.13 L 495.73,446.00 L 496.62,447.54 L 497.82,447.22 L 501.15,444.12 L 497.82,440.49 L 498.72,437.41 L 496.58,431.66 L 497.13,424.82 L 490.99,420.95 L 488.41,420.90 L 487.25,423.51 L 484.65,422.42 L 482.99,417.18 L 484.77,415.28 L 482.10,411.06 L 482.40,406.65 L 484.92,406.15 L 485.94,404.20 L 484.68,400.47 L 486.61,395.76 L 490.99,394.84 L 495.54,390.50 L 497.45,390.59 L 496.54,388.86 L 497.13,387.20 L 501.51,388.48 L 505.99,384.98 L 507.49,391.22 L 514.37,388.48 L 515.22,390.27 L 518.84,385.63 L 519.31,382.56 L 521.92,378.02 L 536.78,377.54 L 540.14,373.31 L 540.27,371.35 L 543.92,368.52 L 557.26,362.16 L 558.42,359.93 L 563.18,359.35 L 563.63,355.61 L 562.11,348.16 L 563.39,345.03 L 567.06,343.89 L 564.85,341.14 L 570.06,338.93 L 568.22,335.69 L 569.07,333.27 L 564.50,321.14 L 564.70,311.42 L 566.37,310.05 L 563.34,308.44 L 560.25,308.84 L 558.61,306.83 L 561.61,304.48 L 570.80,302.75 L 580.73,298.70 L 584.22,302.43 L 587.83,300.83 L 591.44,302.81 L 592.57,297.46 L 588.40,295.31 L 596.89,269.53 L 597.33,264.71 L 608.15,268.95 L 617.44,268.77 L 618.51,269.97 L 618.37,271.86 L 624.32,267.71 L 627.66,267.52 L 629.87,263.44 L 627.86,251.63 L 630.35,243.61 L 640.71,240.53 L 643.00,237.09 L 643.46,234.82 L 642.48,232.72 L 644.32,229.95 L 650.94,230.58 L 656.03,228.84 L 656.72,232.46 L 655.07,234.27 L 659.00,237.22 L 657.58,239.21 L 658.07,240.07 L 664.43,242.99 L 665.58,246.56 L 671.08,250.30 L 677.15,249.61 L 679.72,253.39 L 683.31,252.38 L 683.77,254.64 L 686.98,256.42 L 688.50,262.82 L 691.48,268.20 L 693.60,269.48 L 695.58,276.41 L 693.73,281.24 L 695.03,286.37 L 691.46,291.31 L 690.73,296.05 L 693.45,301.66 L 695.70,301.09 L 701.54,303.77 L 709.92,304.88 L 717.62,304.35 L 725.91,305.96 L 730.84,311.05 L 733.95,311.27 L 740.27,317.08 L 744.42,318.70 L 748.83,318.23 L 747.87,323.05 L 750.52,324.14 L 754.67,337.14 L 760.11,343.31 L 760.59,346.71 L 770.81,345.56 L 798.74,349.64 L 800.00,349.25 L 800.00,467.37 L 510.71,467.37 L 511.56,465.53 Z" fill="#C8D8E8" stroke="#8BAABB" stroke-width="0.8"/>
<path d="M 563.18,359.35 L 558.42,359.93 L 557.26,362.16 L 551.56,363.92 L 540.27,371.35 L 540.14,373.31 L 536.78,377.54 L 521.92,378.02 L 519.31,382.56 L 518.98,385.37 L 515.42,390.19 L 514.37,388.48 L 507.49,391.22 L 505.99,384.98 L 501.51,388.48 L 497.13,387.20 L 496.54,388.86 L 497.45,390.59 L 495.54,390.50 L 490.99,394.84 L 486.49,395.95 L 484.73,400.11 L 486.00,404.01 L 484.71,406.29 L 480.50,406.35 L 476.71,408.35 L 468.77,407.98 L 466.29,408.84 L 465.22,411.39 L 463.03,408.11 L 459.37,409.84 L 459.24,406.65 L 456.45,406.46 L 455.80,403.65 L 451.35,405.48 L 449.90,407.63 L 447.36,407.86 L 445.55,404.54 L 443.78,403.85 L 440.67,405.36 L 440.39,403.52 L 439.56,404.79 L 429.37,405.42 L 428.46,401.11 L 429.49,396.84 L 430.66,398.46 L 431.83,397.98 L 432.03,394.27 L 437.99,392.74 L 444.37,395.94 L 443.78,398.37 L 446.09,394.65 L 449.31,393.43 L 450.12,391.68 L 453.28,390.62 L 456.56,392.83 L 457.87,391.82 L 458.83,393.92 L 460.42,392.00 L 462.65,392.17 L 461.89,390.78 L 464.45,388.24 L 467.24,389.43 L 466.73,385.54 L 470.07,387.22 L 472.01,384.30 L 476.48,381.67 L 470.48,380.69 L 466.49,376.93 L 464.44,378.27 L 464.36,374.82 L 460.85,374.70 L 460.54,372.00 L 459.30,369.97 L 458.40,370.47 L 458.40,368.24 L 457.47,369.22 L 457.34,372.34 L 455.30,371.90 L 455.27,375.93 L 453.56,376.19 L 452.70,374.81 L 452.38,376.28 L 447.37,373.90 L 446.11,369.63 L 443.48,370.84 L 439.97,368.74 L 445.88,362.02 L 447.90,361.43 L 448.28,359.41 L 453.09,357.03 L 451.13,354.82 L 448.37,354.36 L 449.71,351.40 L 450.96,351.36 L 450.22,349.65 L 455.13,345.42 L 457.11,346.11 L 460.55,344.70 L 466.00,346.04 L 480.84,352.59 L 479.71,348.48 L 481.65,341.08 L 485.70,339.27 L 486.48,337.69 L 489.52,337.96 L 489.09,336.88 L 501.33,344.41 L 506.74,345.23 L 508.90,342.83 L 516.45,343.76 L 523.10,341.87 L 527.64,343.54 L 549.92,345.49 L 553.32,351.37 L 559.34,352.20 L 562.92,356.49 L 563.18,359.35 Z M 458.52,397.38 L 458.32,397.65 L 459.45,398.33 L 459.79,396.75 L 458.52,397.38 Z M 450.28,393.67 L 449.61,394.80 L 450.74,396.70 L 450.44,398.74 L 452.73,398.59 L 452.32,396.67 L 453.16,395.70 L 450.28,393.67 Z M 445.05,400.83 L 446.56,399.81 L 446.49,399.15 L 444.04,398.72 L 445.05,400.83 Z" fill="#C8D8E8" stroke="#8BAABB" stroke-width="0.8"/>
<path d="M 650.94,230.58 L 649.36,228.13 L 646.34,227.32 L 643.89,222.56 L 641.04,221.13 L 643.29,219.16 L 642.96,217.55 L 641.26,217.32 L 635.96,223.40 L 629.08,220.59 L 624.29,220.98 L 622.24,215.90 L 621.00,215.28 L 621.87,213.51 L 621.39,212.35 L 612.37,208.82 L 611.71,204.22 L 608.71,199.30 L 602.38,195.42 L 598.39,195.42 L 596.78,197.44 L 593.72,197.10 L 593.07,199.13 L 590.65,200.52 L 581.70,199.22 L 578.22,200.22 L 577.50,196.03 L 573.22,196.09 L 574.45,191.87 L 568.71,189.76 L 567.68,191.47 L 565.51,191.85 L 565.72,196.05 L 562.09,198.63 L 560.54,198.22 L 561.40,199.82 L 560.61,199.55 L 548.63,177.12 L 534.23,153.70 L 517.44,140.53 L 515.99,137.57 L 519.52,137.94 L 521.64,134.96 L 520.60,133.50 L 522.35,131.90 L 517.22,134.48 L 514.25,134.03 L 513.63,135.79 L 504.40,138.74 L 503.56,139.30 L 504.45,140.64 L 499.48,143.90 L 496.35,143.48 L 494.45,146.23 L 492.27,146.37 L 491.65,150.23 L 489.63,147.81 L 485.73,146.99 L 482.65,147.54 L 479.69,150.82 L 478.91,150.28 L 479.45,149.17 L 477.48,148.21 L 477.47,146.57 L 479.94,142.85 L 483.02,142.69 L 483.73,139.33 L 482.02,139.09 L 481.00,141.19 L 479.07,141.52 L 475.43,140.77 L 473.95,138.16 L 470.06,137.92 L 468.58,139.46 L 470.45,139.61 L 470.99,141.16 L 467.22,142.07 L 466.80,138.69 L 468.33,137.91 L 466.07,137.13 L 466.39,135.75 L 462.95,133.47 L 463.23,136.32 L 464.59,137.90 L 459.51,135.86 L 458.10,138.40 L 454.10,136.71 L 452.15,138.52 L 449.82,134.81 L 452.51,134.57 L 451.91,130.07 L 453.42,128.28 L 450.25,126.22 L 449.90,120.67 L 447.64,117.83 L 447.98,116.71 L 443.34,116.91 L 440.55,119.68 L 433.94,115.98 L 429.79,115.04 L 427.97,116.13 L 424.80,114.16 L 425.33,116.99 L 422.03,115.50 L 420.86,118.51 L 415.62,118.97 L 417.22,120.76 L 415.49,122.89 L 412.01,122.63 L 409.76,124.51 L 388.69,129.20 L 388.15,127.53 L 385.84,129.40 L 382.23,128.91 L 382.23,130.20 L 379.15,130.95 L 378.98,134.71 L 375.64,133.02 L 373.30,134.28 L 371.57,133.33 L 364.54,134.54 L 364.58,136.21 L 363.23,136.84 L 360.92,135.81 L 354.17,137.10 L 353.28,138.82 L 347.12,139.41 L 346.44,142.73 L 344.78,141.46 L 345.06,139.90 L 340.04,140.07 L 340.05,141.63 L 337.45,140.38 L 334.89,141.35 L 331.90,139.23 L 330.13,140.06 L 330.34,142.08 L 327.72,141.46 L 327.49,142.54 L 330.20,144.10 L 327.86,147.05 L 326.30,147.11 L 331.20,148.76 L 333.92,147.91 L 334.56,149.43 L 332.81,150.71 L 330.64,149.48 L 329.76,153.21 L 340.63,156.40 L 341.16,158.83 L 339.51,159.88 L 333.25,158.30 L 327.45,159.21 L 328.48,160.11 L 323.76,164.69 L 325.35,165.50 L 325.50,167.44 L 326.99,168.05 L 328.25,170.86 L 323.75,174.34 L 320.74,174.61 L 315.35,177.86 L 316.27,179.57 L 321.06,180.54 L 320.12,183.16 L 327.00,184.10 L 328.12,186.45 L 333.56,187.49 L 335.89,190.55 L 334.30,191.51 L 332.32,199.26 L 324.32,201.64 L 319.20,201.05 L 317.19,198.13 L 315.78,197.95 L 313.27,203.28 L 309.68,204.90 L 308.81,203.75 L 310.18,202.97 L 308.64,202.03 L 302.37,201.17 L 299.17,199.13 L 297.77,197.24 L 298.32,194.86 L 294.82,192.54 L 293.09,194.27 L 288.21,193.09 L 287.64,196.95 L 284.52,197.87 L 282.89,197.16 L 280.69,193.45 L 275.32,193.96 L 274.98,195.85 L 272.41,193.95 L 270.42,197.41 L 268.50,197.01 L 267.52,200.32 L 262.40,203.88 L 260.04,201.56 L 258.05,201.41 L 254.90,197.40 L 249.89,194.78 L 248.23,196.60 L 249.89,197.37 L 250.35,202.56 L 248.19,204.01 L 246.72,202.25 L 247.93,197.96 L 245.45,197.03 L 241.29,191.89 L 238.08,191.26 L 237.11,189.99 L 237.30,188.18 L 234.82,186.42 L 224.27,186.87 L 221.36,181.11 L 218.72,183.23 L 215.99,182.97 L 213.84,186.97 L 212.50,185.49 L 209.08,186.65 L 208.25,185.48 L 209.90,183.76 L 202.50,181.39 L 202.79,184.35 L 201.32,184.90 L 200.23,183.66 L 199.56,186.68 L 197.51,187.72 L 197.09,189.73 L 190.41,193.41 L 186.21,193.23 L 185.12,195.94 L 186.06,197.44 L 185.39,198.45 L 178.79,202.67 L 175.58,201.93 L 176.87,202.98 L 178.21,211.54 L 179.33,212.30 L 178.23,214.80 L 173.89,217.06 L 171.56,216.05 L 166.28,207.73 L 163.72,205.30 L 162.14,206.05 L 159.99,208.54 L 160.17,212.76 L 155.16,216.87 L 153.63,225.79 L 156.88,229.13 L 153.37,233.45 L 150.00,242.66 L 157.60,245.32 L 157.65,248.32 L 158.74,248.86 L 156.93,250.43 L 158.33,252.53 L 157.90,253.69 L 160.79,255.97 L 161.43,253.18 L 170.76,255.43 L 175.06,260.97 L 180.95,272.70 L 177.98,274.28 L 175.44,272.83 L 174.20,274.68 L 175.23,276.38 L 179.86,278.09 L 184.61,281.96 L 182.71,280.63 L 181.59,282.16 L 182.27,284.00 L 181.39,283.18 L 180.03,285.21 L 178.90,284.04 L 178.64,285.74 L 177.37,284.40 L 176.30,285.17 L 177.55,286.41 L 176.64,287.56 L 177.84,287.40 L 178.31,289.68 L 177.40,290.18 L 175.42,287.37 L 173.00,289.16 L 173.52,289.78 L 172.16,289.75 L 171.60,292.08 L 166.90,291.82 L 166.40,293.94 L 163.24,290.95 L 164.39,294.84 L 163.01,292.89 L 161.68,292.36 L 162.55,291.94 L 161.10,291.34 L 161.62,292.69 L 163.13,293.58 L 163.39,294.69 L 162.44,294.36 L 162.47,297.20 L 161.05,297.55 L 162.02,297.92 L 160.92,301.67 L 160.02,301.64 L 158.85,305.62 L 157.60,305.87 L 157.34,309.00 L 156.25,306.62 L 155.92,309.36 L 152.98,311.38 L 152.47,313.70 L 153.44,316.04 L 156.70,316.79 L 157.88,319.29 L 159.40,319.49 L 162.54,327.37 L 160.86,330.31 L 161.34,332.31 L 163.05,325.83 L 164.97,325.66 L 162.40,333.20 L 162.43,336.24 L 163.56,336.18 L 162.33,337.77 L 162.04,341.28 L 164.93,344.10 L 165.29,347.83 L 169.80,353.56 L 173.36,361.11 L 175.71,362.79 L 173.16,367.64 L 169.28,369.82 L 167.05,374.45 L 163.09,374.50 L 159.67,372.72 L 158.12,368.15 L 156.72,368.07 L 153.21,362.68 L 151.09,363.87 L 150.58,362.12 L 143.34,359.44 L 139.63,356.28 L 140.46,350.67 L 135.85,350.26 L 133.41,347.11 L 130.18,346.06 L 129.13,348.81 L 127.98,346.72 L 125.88,346.23 L 118.92,349.86 L 116.27,348.53 L 117.22,346.30 L 109.33,342.72 L 105.34,338.58 L 90.01,337.72 L 78.68,331.80 L 73.55,331.13 L 71.59,331.58 L 70.24,334.48 L 55.50,318.36 L 48.88,316.28 L 43.50,310.01 L 43.77,311.74 L 40.08,311.14 L 36.32,305.23 L 28.80,301.52 L 33.50,299.89 L 31.39,299.72 L 31.01,298.59 L 32.11,298.35 L 31.30,297.98 L 29.91,299.10 L 31.93,296.96 L 35.68,298.93 L 34.93,300.70 L 37.88,300.10 L 35.92,299.10 L 40.33,298.31 L 41.21,299.77 L 42.90,299.55 L 43.09,296.83 L 41.75,293.94 L 41.15,297.16 L 41.26,293.44 L 42.58,293.69 L 42.14,292.83 L 44.13,291.29 L 45.48,286.40 L 47.41,285.71 L 46.61,286.31 L 46.70,290.14 L 48.27,284.57 L 53.07,286.17 L 53.20,284.86 L 47.72,279.86 L 45.05,279.25 L 42.92,274.51 L 46.00,275.47 L 49.54,273.37 L 53.26,274.81 L 52.50,273.37 L 50.84,273.81 L 51.29,271.52 L 56.05,270.42 L 59.38,267.88 L 61.88,268.24 L 63.21,266.37 L 61.88,266.87 L 61.69,263.70 L 59.54,263.23 L 56.59,265.48 L 52.07,265.87 L 53.07,264.48 L 55.71,263.98 L 56.14,263.21 L 52.99,264.27 L 51.45,266.03 L 48.87,266.58 L 48.71,264.95 L 49.90,263.42 L 48.55,262.67 L 50.12,257.65 L 55.21,256.08 L 56.39,252.95 L 67.75,253.23 L 67.76,249.90 L 70.62,245.18 L 68.44,244.54 L 69.77,243.29 L 68.68,239.68 L 66.19,239.44 L 68.00,235.40 L 70.40,235.73 L 71.36,234.27 L 67.74,233.79 L 66.79,231.51 L 69.70,231.00 L 72.43,227.38 L 72.65,225.77 L 71.13,222.97 L 72.30,221.27 L 68.27,221.96 L 65.28,218.63 L 61.65,218.26 L 60.36,215.89 L 57.69,217.18 L 54.35,214.22 L 50.57,213.94 L 49.89,212.47 L 48.34,212.48 L 48.25,214.67 L 46.22,215.41 L 41.28,209.98 L 41.31,208.26 L 39.06,205.68 L 29.01,209.84 L 26.75,208.01 L 25.03,208.43 L 23.03,205.88 L 16.98,207.14 L 14.12,202.20 L 15.23,201.35 L 12.98,196.30 L 13.84,194.81 L 11.25,194.21 L 10.46,191.48 L 5.51,192.21 L 4.70,191.00 L 0.00,190.75 L 0.00,190.23 L 1.03,189.16 L 0.00,188.41 L 0.00,182.72 L 1.86,182.32 L 2.30,181.05 L 0.00,179.16 L 0.00,32.63 L 800.00,32.63 L 800.00,179.18 L 792.05,174.61 L 789.05,180.29 L 784.76,182.14 L 783.39,186.59 L 781.18,186.92 L 778.32,195.26 L 780.50,198.08 L 780.00,199.41 L 781.16,202.18 L 784.28,204.09 L 783.90,208.39 L 781.28,213.16 L 778.61,214.98 L 775.38,215.10 L 775.47,216.37 L 772.65,218.44 L 770.32,218.15 L 768.07,215.65 L 763.37,216.19 L 756.89,213.60 L 755.55,214.71 L 754.10,213.21 L 750.10,215.65 L 744.90,214.58 L 743.01,212.74 L 739.11,213.22 L 736.06,209.49 L 734.89,203.38 L 720.77,202.62 L 719.62,202.18 L 719.01,199.35 L 716.99,199.16 L 715.20,201.25 L 711.66,197.69 L 709.19,200.97 L 704.18,201.06 L 700.09,205.14 L 695.15,205.80 L 691.13,209.62 L 688.58,209.65 L 683.01,212.29 L 682.39,214.18 L 678.69,214.91 L 678.05,216.47 L 679.12,218.70 L 675.07,221.23 L 673.17,220.27 L 672.91,222.34 L 670.22,223.54 L 668.91,222.03 L 668.94,223.90 L 660.73,223.56 L 659.69,225.35 L 660.04,226.92 L 650.94,230.58 Z M 1.34,285.50 L 2.94,287.59 L 5.68,287.25 L 7.17,290.71 L 9.51,291.73 L 15.38,299.62 L 18.26,298.84 L 19.69,296.45 L 21.56,298.43 L 25.21,296.35 L 28.87,297.25 L 29.55,298.64 L 27.09,300.09 L 27.12,303.83 L 19.87,305.21 L 15.69,302.99 L 13.99,306.11 L 12.63,305.82 L 10.48,308.84 L 6.08,308.53 L 2.99,310.01 L 1.31,313.39 L 0.00,314.41 L 0.00,285.00 L 1.34,285.50 Z M 165.73,324.68 L 164.08,324.05 L 164.54,323.43 L 166.80,323.38 L 165.73,324.68 Z M 167.62,294.64 L 168.10,293.17 L 168.59,295.54 L 168.59,296.51 L 167.62,294.64 Z" fill="#C8D8E8" stroke="#8BAABB" stroke-width="0.8"/>
<path d="M 329.56,463.21 L 329.79,458.10 L 319.71,458.09 L 315.76,450.98 L 308.93,447.65 L 307.10,441.75 L 300.85,438.74 L 295.42,439.86 L 293.57,439.03 L 292.96,437.03 L 283.11,433.75 L 281.07,428.09 L 279.27,429.73 L 271.90,428.48 L 269.18,431.89 L 259.79,431.62 L 252.56,437.52 L 251.73,441.85 L 250.08,443.42 L 244.60,445.51 L 241.02,445.18 L 239.93,437.82 L 239.96,423.54 L 241.86,416.39 L 238.42,413.42 L 238.70,410.43 L 237.91,411.19 L 238.20,413.33 L 237.28,410.54 L 236.78,411.32 L 236.71,408.39 L 231.67,408.56 L 231.81,411.57 L 230.88,407.53 L 233.21,402.69 L 232.49,405.25 L 236.79,406.30 L 236.86,405.21 L 238.81,405.19 L 236.36,402.40 L 234.94,402.96 L 234.51,400.78 L 236.87,397.14 L 234.76,396.43 L 233.29,397.65 L 228.78,396.16 L 229.93,400.83 L 226.63,395.58 L 226.61,387.69 L 228.16,384.52 L 228.81,376.70 L 231.33,380.60 L 230.63,381.11 L 231.29,382.47 L 234.36,381.27 L 235.75,383.07 L 237.48,380.33 L 238.66,385.11 L 244.17,383.21 L 247.02,384.23 L 245.14,380.26 L 246.49,379.78 L 247.89,381.74 L 249.91,381.21 L 251.38,378.90 L 250.37,376.96 L 251.47,377.59 L 242.98,369.33 L 240.84,361.69 L 240.94,358.81 L 239.86,357.69 L 231.84,358.06 L 229.35,360.25 L 227.01,365.90 L 228.81,365.92 L 227.55,371.32 L 228.39,377.34 L 226.91,371.35 L 224.47,368.75 L 224.85,366.44 L 222.95,364.56 L 229.57,357.64 L 234.88,355.24 L 243.58,353.78 L 253.18,361.20 L 253.71,363.70 L 260.17,373.38 L 265.46,372.28 L 278.92,373.61 L 280.77,371.53 L 279.04,369.73 L 278.53,361.88 L 283.48,356.97 L 289.21,356.46 L 289.92,352.09 L 291.24,350.82 L 295.02,352.06 L 295.91,354.69 L 297.05,354.52 L 294.79,350.29 L 292.53,348.54 L 294.20,347.35 L 297.58,347.99 L 298.24,345.48 L 301.99,349.94 L 305.07,350.32 L 306.44,353.60 L 313.89,354.40 L 315.87,356.31 L 315.49,359.77 L 314.38,360.57 L 318.62,363.99 L 316.12,364.47 L 317.54,367.56 L 316.40,368.85 L 316.68,371.13 L 321.38,374.38 L 326.05,373.63 L 331.21,375.38 L 333.07,372.76 L 338.51,375.97 L 341.65,385.98 L 344.33,388.68 L 345.55,396.39 L 358.09,407.48 L 360.93,411.36 L 366.33,415.78 L 368.62,415.39 L 384.12,428.81 L 387.46,428.16 L 396.88,434.14 L 395.32,437.13 L 395.66,443.20 L 394.72,445.42 L 390.97,444.55 L 386.05,440.87 L 383.30,446.75 L 377.50,447.18 L 374.38,448.97 L 371.73,458.38 L 371.76,461.99 L 370.34,464.78 L 365.94,467.37 L 330.49,467.37 L 329.56,463.21 Z M 230.89,413.18 L 231.08,419.34 L 230.33,416.56 L 230.89,413.18 Z M 236.11,404.04 L 236.38,405.20 L 235.86,405.55 L 236.11,404.04 Z" fill="#C8D8E8" stroke="#8BAABB" stroke-width="0.8"/>
<path d="M 459.45,398.33 L 458.32,397.65 L 458.52,397.38 L 459.79,396.75 L 459.45,398.33 Z M 445.55,392.91 L 444.35,390.27 L 442.48,389.88 L 442.46,387.86 L 447.33,383.06 L 445.74,382.46 L 446.57,381.78 L 443.39,377.79 L 442.39,377.67 L 441.37,380.50 L 434.15,385.03 L 431.93,382.38 L 430.04,382.28 L 429.48,385.65 L 428.12,386.19 L 429.52,390.28 L 428.24,391.10 L 429.19,392.99 L 420.57,393.55 L 425.53,394.88 L 422.94,395.10 L 424.23,398.78 L 422.74,396.91 L 423.09,398.72 L 422.53,399.86 L 421.12,399.31 L 419.79,404.82 L 410.00,403.45 L 406.44,406.13 L 405.50,410.83 L 409.38,412.44 L 409.66,415.04 L 414.69,415.23 L 415.57,417.69 L 414.27,418.73 L 414.13,423.34 L 417.81,429.26 L 416.50,434.09 L 414.95,434.83 L 411.36,441.79 L 410.77,447.99 L 407.37,446.29 L 404.38,448.06 L 401.28,444.42 L 395.33,444.79 L 395.32,437.13 L 396.61,433.27 L 387.46,428.16 L 384.12,428.81 L 368.62,415.39 L 366.33,415.78 L 360.93,411.36 L 358.09,407.48 L 345.55,396.39 L 344.33,388.68 L 341.65,385.98 L 338.51,375.97 L 333.07,372.76 L 331.21,375.38 L 326.05,373.63 L 321.38,374.38 L 316.68,371.13 L 316.40,368.85 L 317.54,367.56 L 316.12,364.47 L 318.62,363.99 L 314.38,360.57 L 315.49,359.77 L 315.87,356.31 L 313.89,354.40 L 306.44,353.60 L 305.07,350.32 L 301.99,349.94 L 298.24,345.48 L 297.58,347.99 L 294.20,347.35 L 292.53,348.54 L 294.79,350.29 L 297.05,354.52 L 295.91,354.69 L 295.02,352.06 L 291.24,350.82 L 289.92,352.09 L 289.21,356.46 L 283.48,356.97 L 278.53,361.88 L 279.04,369.73 L 280.77,371.53 L 279.16,373.45 L 266.29,372.37 L 266.26,305.17 L 297.83,294.87 L 328.21,316.36 L 329.74,320.29 L 340.32,332.87 L 354.79,330.18 L 369.71,331.65 L 375.79,328.51 L 383.06,336.23 L 386.46,343.91 L 390.21,341.84 L 389.08,359.91 L 395.14,360.08 L 397.94,375.37 L 412.69,374.59 L 413.87,377.48 L 415.06,377.72 L 413.34,381.72 L 419.10,385.86 L 420.97,385.41 L 420.44,379.84 L 426.08,374.44 L 426.14,371.42 L 430.62,369.57 L 430.51,368.29 L 433.34,366.03 L 436.86,365.22 L 442.32,358.82 L 443.69,358.29 L 445.02,359.66 L 446.92,356.35 L 450.74,354.64 L 453.09,357.03 L 448.28,359.41 L 447.90,361.43 L 445.88,362.02 L 439.97,368.74 L 443.48,370.84 L 446.11,369.63 L 447.37,373.90 L 452.38,376.28 L 452.70,374.81 L 453.56,376.19 L 455.27,375.93 L 455.30,371.90 L 457.34,372.34 L 457.47,369.22 L 458.40,368.24 L 458.40,370.47 L 459.30,369.97 L 460.54,372.00 L 460.85,374.70 L 464.36,374.82 L 464.44,378.27 L 466.49,376.93 L 470.48,380.69 L 476.41,381.30 L 472.01,384.30 L 470.07,387.22 L 466.73,385.54 L 467.24,389.43 L 464.45,388.24 L 461.89,390.78 L 462.65,392.17 L 460.42,392.00 L 458.83,393.92 L 457.87,391.82 L 456.56,392.83 L 453.28,390.62 L 445.55,392.91 Z M 444.81,378.36 L 445.83,379.45 L 445.48,378.38 L 444.81,378.36 Z M 453.16,395.70 L 452.32,396.67 L 452.73,398.59 L 450.44,398.74 L 450.74,396.70 L 449.61,394.80 L 450.28,393.67 L 453.16,395.70 Z" fill="#C8D8E8" stroke="#8BAABB" stroke-width="0.8"/>
<path d="M 644.32,229.95 L 642.48,232.72 L 643.46,234.82 L 643.00,237.09 L 640.71,240.53 L 630.35,243.61 L 627.86,251.63 L 629.87,263.44 L 627.66,267.52 L 624.32,267.71 L 618.37,271.86 L 618.51,269.97 L 617.44,268.77 L 608.15,268.95 L 597.33,264.71 L 596.89,269.53 L 588.40,295.31 L 592.57,297.46 L 591.44,302.81 L 587.83,300.83 L 584.22,302.43 L 580.73,298.70 L 570.80,302.75 L 561.61,304.48 L 558.61,306.83 L 560.25,308.84 L 563.34,308.44 L 566.37,310.05 L 564.70,311.42 L 564.50,321.14 L 569.07,333.27 L 568.22,335.69 L 570.06,338.93 L 564.85,341.14 L 567.06,343.89 L 563.13,345.49 L 562.06,348.56 L 563.40,356.21 L 559.34,352.20 L 553.32,351.37 L 549.92,345.49 L 527.64,343.54 L 523.10,341.87 L 516.45,343.76 L 508.90,342.83 L 506.74,345.23 L 501.33,344.41 L 489.09,336.88 L 489.52,337.96 L 486.48,337.69 L 485.70,339.27 L 481.65,341.08 L 479.71,348.48 L 480.84,352.59 L 460.55,344.70 L 453.18,346.29 L 451.92,348.94 L 450.22,349.65 L 450.96,351.36 L 449.71,351.40 L 448.37,354.36 L 449.54,355.42 L 446.92,356.35 L 445.41,359.46 L 442.32,358.82 L 436.86,365.22 L 433.34,366.03 L 430.51,368.29 L 430.62,369.57 L 426.14,371.42 L 426.08,374.44 L 420.44,379.84 L 420.97,385.41 L 419.10,385.86 L 413.34,381.72 L 415.06,377.72 L 413.87,377.48 L 412.69,374.59 L 397.94,375.37 L 395.14,360.08 L 389.08,359.91 L 390.21,341.84 L 386.46,343.91 L 383.06,336.23 L 375.79,328.51 L 369.71,331.65 L 354.79,330.18 L 340.32,332.87 L 329.74,320.29 L 328.21,316.36 L 297.83,294.87 L 266.27,305.16 L 266.29,372.37 L 259.83,373.16 L 253.71,363.70 L 253.18,361.20 L 243.58,353.78 L 234.88,355.24 L 229.57,357.64 L 222.95,364.56 L 223.60,361.75 L 222.51,358.27 L 225.87,350.11 L 224.49,346.38 L 226.29,349.25 L 226.61,347.13 L 223.36,344.84 L 220.93,345.35 L 219.66,343.73 L 216.52,344.55 L 213.32,338.16 L 208.73,338.84 L 209.20,333.20 L 203.65,322.90 L 203.48,319.90 L 196.51,317.21 L 195.86,312.98 L 196.92,311.25 L 203.80,311.86 L 207.11,314.50 L 209.83,313.12 L 212.21,314.01 L 204.89,307.56 L 204.85,305.46 L 207.76,303.87 L 208.69,304.62 L 208.34,302.11 L 210.44,297.93 L 212.01,298.94 L 214.63,296.70 L 216.86,298.35 L 223.95,297.59 L 228.73,299.35 L 233.03,298.80 L 226.55,294.93 L 231.28,284.68 L 231.75,280.52 L 230.23,278.15 L 231.08,278.66 L 230.83,277.39 L 229.79,277.53 L 232.38,274.05 L 231.13,273.28 L 230.57,270.44 L 223.17,268.45 L 221.97,270.42 L 219.90,270.60 L 220.59,271.95 L 218.97,271.90 L 217.82,269.63 L 216.88,270.67 L 214.46,269.81 L 213.68,267.43 L 212.60,268.71 L 207.95,266.26 L 203.47,267.80 L 202.18,270.19 L 202.32,268.94 L 200.65,269.65 L 200.08,271.60 L 198.38,270.36 L 190.87,276.88 L 188.49,276.11 L 187.96,277.64 L 186.61,275.90 L 186.90,277.63 L 184.61,276.02 L 185.42,279.46 L 183.60,278.15 L 184.44,279.52 L 182.93,279.28 L 183.65,280.77 L 175.23,276.38 L 174.20,274.68 L 175.44,272.83 L 177.98,274.28 L 180.95,272.70 L 175.06,260.97 L 170.76,255.43 L 161.43,253.18 L 160.79,255.97 L 157.90,253.69 L 158.33,252.53 L 156.93,250.43 L 158.74,248.86 L 157.65,248.32 L 157.60,245.32 L 150.00,242.66 L 153.37,233.45 L 156.64,230.11 L 156.74,228.19 L 153.63,225.79 L 155.44,216.12 L 160.41,212.25 L 159.63,210.17 L 160.13,208.19 L 163.72,205.30 L 168.54,210.25 L 171.56,216.05 L 173.89,217.06 L 178.23,214.80 L 179.33,212.30 L 178.21,211.54 L 176.87,202.98 L 175.58,201.93 L 178.79,202.67 L 185.39,198.45 L 186.06,197.44 L 185.12,195.94 L 186.21,193.23 L 190.41,193.41 L 197.09,189.73 L 197.51,187.72 L 199.56,186.68 L 200.23,183.66 L 201.32,184.90 L 202.79,184.35 L 202.50,181.39 L 209.90,183.76 L 208.25,185.48 L 209.08,186.65 L 212.50,185.49 L 213.84,186.97 L 215.99,182.97 L 218.72,183.23 L 221.36,181.11 L 224.27,186.87 L 234.82,186.42 L 237.30,188.18 L 237.11,189.99 L 238.08,191.26 L 241.29,191.89 L 245.45,197.03 L 247.93,197.96 L 246.72,202.25 L 248.19,204.01 L 250.35,202.56 L 249.89,197.37 L 248.23,196.60 L 249.89,194.78 L 254.90,197.40 L 258.05,201.41 L 260.04,201.56 L 262.40,203.88 L 267.52,200.32 L 268.50,197.01 L 270.42,197.41 L 272.41,193.95 L 274.98,195.85 L 275.32,193.96 L 280.69,193.45 L 282.89,197.16 L 284.52,197.87 L 287.64,196.95 L 288.21,193.09 L 293.09,194.27 L 294.82,192.54 L 298.32,194.86 L 297.77,197.24 L 299.17,199.13 L 302.37,201.17 L 308.64,202.03 L 310.18,202.97 L 308.81,203.75 L 309.68,204.90 L 313.27,203.28 L 315.78,197.95 L 317.19,198.13 L 319.20,201.05 L 324.32,201.64 L 332.32,199.26 L 334.30,191.51 L 335.89,190.55 L 333.56,187.49 L 328.12,186.45 L 327.00,184.10 L 320.12,183.16 L 321.06,180.54 L 316.27,179.57 L 315.35,177.86 L 320.74,174.61 L 323.75,174.34 L 328.25,170.86 L 326.99,168.05 L 325.50,167.44 L 325.35,165.50 L 323.76,164.69 L 328.48,160.11 L 327.45,159.21 L 333.25,158.30 L 339.51,159.88 L 341.16,158.83 L 340.63,156.40 L 329.76,153.21 L 330.64,149.48 L 332.81,150.71 L 334.56,149.43 L 333.92,147.91 L 331.20,148.76 L 326.30,147.11 L 327.86,147.05 L 330.20,144.10 L 327.49,142.54 L 327.72,141.46 L 330.34,142.08 L 330.13,140.06 L 331.90,139.23 L 334.89,141.35 L 337.45,140.38 L 340.05,141.63 L 340.04,140.07 L 345.06,139.90 L 344.78,141.46 L 346.44,142.73 L 347.12,139.41 L 353.28,138.82 L 354.17,137.10 L 360.92,135.81 L 363.23,136.84 L 364.58,136.21 L 364.54,134.54 L 371.57,133.33 L 373.30,134.28 L 375.64,133.02 L 378.98,134.71 L 379.15,130.95 L 382.23,130.20 L 382.23,128.91 L 385.84,129.40 L 388.15,127.53 L 388.69,129.20 L 409.76,124.51 L 412.01,122.63 L 415.49,122.89 L 417.22,120.76 L 415.62,118.97 L 420.86,118.51 L 422.03,115.50 L 425.33,116.99 L 425.00,114.14 L 427.97,116.13 L 429.79,115.04 L 433.94,115.98 L 440.55,119.68 L 443.34,116.91 L 447.98,116.71 L 447.64,117.83 L 449.90,120.67 L 450.25,126.22 L 453.42,128.28 L 451.91,130.07 L 452.51,134.57 L 449.82,134.81 L 452.15,138.52 L 454.10,136.71 L 458.10,138.40 L 459.51,135.86 L 464.59,137.90 L 463.23,136.32 L 462.95,133.47 L 466.39,135.75 L 466.07,137.13 L 468.33,137.91 L 466.80,138.69 L 467.22,142.07 L 470.99,141.16 L 470.45,139.61 L 468.58,139.46 L 470.06,137.92 L 473.95,138.16 L 475.43,140.77 L 479.07,141.52 L 481.00,141.19 L 482.02,139.09 L 483.73,139.33 L 483.02,142.69 L 479.94,142.85 L 477.47,146.57 L 477.48,148.21 L 479.45,149.17 L 478.91,150.28 L 479.69,150.82 L 482.65,147.54 L 485.73,146.99 L 489.63,147.81 L 491.65,150.23 L 492.27,146.37 L 494.45,146.23 L 496.35,143.48 L 499.48,143.90 L 504.45,140.64 L 503.56,139.30 L 504.40,138.74 L 513.63,135.79 L 514.25,134.03 L 517.22,134.48 L 522.35,131.90 L 520.60,133.50 L 521.64,134.96 L 519.52,137.94 L 515.99,137.57 L 517.44,140.53 L 534.23,153.70 L 548.63,177.12 L 560.61,199.55 L 561.40,199.82 L 560.54,198.22 L 562.09,198.63 L 565.72,196.05 L 565.51,191.85 L 567.68,191.47 L 568.71,189.76 L 574.45,191.87 L 573.22,196.09 L 577.50,196.03 L 578.22,200.22 L 581.70,199.22 L 590.65,200.52 L 593.07,199.13 L 593.72,197.10 L 596.78,197.44 L 598.39,195.42 L 602.38,195.42 L 608.71,199.30 L 611.71,204.22 L 612.37,208.82 L 621.39,212.35 L 621.87,213.51 L 621.00,215.28 L 622.24,215.90 L 624.29,220.98 L 629.08,220.59 L 635.96,223.40 L 641.26,217.32 L 642.96,217.55 L 643.29,219.16 L 641.13,221.38 L 643.89,222.56 L 644.97,225.68 L 649.36,228.13 L 650.00,230.32 L 644.32,229.95 Z M 362.46,291.97 L 364.05,286.40 L 360.94,280.91 L 355.51,279.77 L 351.03,282.95 L 349.84,287.94 L 352.40,292.99 L 356.95,294.72 L 362.46,291.97 Z M 196.50,303.76 L 197.38,303.52 L 197.08,305.56 L 196.50,303.76 Z M 194.08,308.12 L 192.94,306.04 L 193.75,303.87 L 194.50,303.61 L 193.37,306.09 L 195.19,308.18 L 194.08,308.12 Z M 201.65,307.67 L 200.80,305.67 L 201.85,305.91 L 201.65,307.67 Z M 225.88,297.81 L 224.35,296.32 L 225.37,295.45 L 225.88,297.81 Z M 190.72,282.92 L 189.68,280.24 L 190.05,280.23 L 190.94,281.03 L 190.72,282.92 Z" fill="#4A90D9" stroke="#1a5fa8" stroke-width="1.2"/>
<path d="M 546.69,280.09 L 541.45,279.41 L 541.26,281.51 L 539.62,280.14 L 536.39,280.83 L 533.56,278.74 L 532.36,279.90 L 528.66,277.51 L 522.55,278.39 L 514.82,276.17 L 505.72,278.16 L 506.31,277.33 L 504.90,275.30 L 506.31,274.77 L 505.16,274.41 L 504.06,275.31 L 504.46,278.02 L 502.55,277.09 L 501.92,279.11 L 500.18,278.77 L 500.77,277.65 L 499.34,279.65 L 498.04,279.17 L 496.24,285.04 L 493.28,286.97 L 489.73,286.98 L 490.87,290.63 L 489.72,291.68 L 491.05,292.69 L 489.96,292.57 L 490.04,293.94 L 487.78,295.54 L 487.79,298.67 L 488.95,299.24 L 489.03,303.47 L 487.75,304.29 L 488.57,305.73 L 486.92,305.10 L 486.94,301.12 L 485.63,301.03 L 482.44,295.89 L 479.86,293.95 L 481.51,291.34 L 479.96,290.18 L 481.69,290.25 L 482.66,287.11 L 483.91,287.17 L 482.50,285.43 L 482.84,283.49 L 486.92,283.29 L 487.29,282.97 L 487.52,282.54 L 486.17,281.29 L 487.76,279.17 L 493.44,275.85 L 494.39,272.64 L 497.75,271.75 L 498.94,271.49 L 499.13,272.64 L 500.18,271.22 L 502.64,273.57 L 510.46,271.49 L 510.76,272.76 L 515.83,273.25 L 516.16,274.95 L 517.63,275.51 L 520.22,274.26 L 522.83,276.52 L 521.67,274.13 L 525.44,276.76 L 531.40,274.51 L 534.56,274.74 L 537.69,275.67 L 539.65,278.40 L 540.36,274.26 L 540.79,275.72 L 541.49,274.40 L 541.45,275.77 L 543.10,273.08 L 544.97,273.25 L 545.57,275.39 L 547.16,275.24 L 545.41,272.40 L 548.50,273.14 L 548.33,271.91 L 549.56,271.84 L 551.27,274.64 L 549.03,275.91 L 548.75,278.28 L 546.69,280.09 Z" fill="#A8C8E8" stroke="none"/>
<path d="M 521.30,124.12 L 525.34,123.29 L 526.85,125.80 L 527.46,122.59 L 531.21,120.86 L 536.71,122.50 L 536.13,123.90 L 532.73,124.31 L 530.40,126.47 L 531.64,125.93 L 532.35,128.37 L 533.40,128.56 L 531.01,129.44 L 530.13,128.93 L 530.68,128.16 L 527.11,127.56 L 528.54,127.02 L 520.80,127.81 L 521.30,124.12 Z" fill="#A8C8E8" stroke="none"/>
<path d="M 577.20,285.12 L 577.19,285.17 L 577.10,284.91 L 577.20,285.12 Z" fill="#A8C8E8" stroke="none"/>
<path d="M 647.68,361.39 L 642.12,362.79 L 644.13,359.91 L 643.79,357.52 L 650.17,359.53 L 651.34,362.73 L 647.68,361.39 Z" fill="#A8C8E8" stroke="none"/>
<path d="M 611.92,255.08 L 612.01,255.13 L 612.09,255.21 L 611.92,255.08 Z" fill="#A8C8E8" stroke="none"/>
<path d="M 715.76,248.57 L 713.76,248.44 L 711.54,250.44 L 710.03,254.50 L 708.14,254.58 L 706.78,250.54 L 710.33,248.18 L 710.91,245.79 L 709.65,244.04 L 710.33,243.43 L 713.92,244.11 L 712.06,245.72 L 711.91,247.62 L 712.91,248.31 L 715.35,245.93 L 716.11,246.55 L 714.60,243.92 L 717.24,245.61 L 715.76,248.57 Z" fill="#A8C8E8" stroke="none"/>
<path d="M 675.91,442.74 L 671.39,440.70 L 677.18,440.00 L 678.77,442.08 L 675.91,442.74 Z" fill="#A8C8E8" stroke="none"/>
<path d="M 556.80,159.42 L 557.10,161.92 L 554.09,161.17 L 552.72,158.92 L 554.08,156.42 L 556.22,156.77 L 555.41,156.00 L 557.57,157.32 L 556.80,159.42 Z" fill="#A8C8E8" stroke="none"/>
<path d="M 479.27,157.67 L 475.39,152.53 L 474.35,154.26 L 473.59,153.40 L 475.20,151.44 L 479.62,151.97 L 479.27,157.67 Z" fill="#A8C8E8" stroke="none"/>
<path d="M 564.52,112.40 L 562.47,114.41 L 558.15,114.77 L 558.02,113.39 L 563.54,111.49 L 564.52,112.40 Z" fill="#A8C8E8" stroke="none"/>
<path d="M 462.66,100.63 L 461.51,102.48 L 459.99,101.29 L 458.66,102.96 L 457.66,100.66 L 462.66,100.63 Z" fill="#A8C8E8" stroke="none"/>
<path d="M 407.09,109.32 L 404.52,108.06 L 405.56,106.11 L 407.33,107.83 L 409.33,107.05 L 407.09,109.32 Z" fill="#A8C8E8" stroke="none"/>
<path d="M 131.42,387.05 L 131.64,385.14 L 136.88,387.99 L 140.00,392.88 L 135.41,393.86 L 134.44,389.24 L 131.42,387.05 Z" fill="#A8C8E8" stroke="none"/>
<path d="M 693.40,211.33 L 694.26,209.54 L 696.68,210.60 L 696.38,211.87 L 693.40,211.33 Z" fill="#A8C8E8" stroke="none"/>
<path d="M 797.39,187.88 L 798.27,188.46 L 797.29,190.05 L 796.72,187.77 L 799.16,186.31 L 797.39,187.88 Z" fill="#A8C8E8" stroke="none"/>
<path d="M 300.37,180.10 L 300.25,176.28 L 301.14,173.32 L 300.99,180.66 L 305.73,180.35 L 305.73,181.10 L 298.83,182.57 L 300.04,181.10 L 298.49,179.20 L 300.37,180.10 Z" fill="#A8C8E8" stroke="none"/>
<path d="M 338.88,283.66 L 335.66,284.08 L 337.50,285.46 L 336.12,287.64 L 334.63,284.91 L 335.62,283.13 L 339.41,282.02 L 338.88,283.66 Z" fill="#A8C8E8" stroke="none"/>
<path d="M 656.27,188.94 L 654.38,186.26 L 653.86,182.13 L 650.83,181.35 L 654.92,180.62 L 654.57,184.64 L 656.27,188.94 Z" fill="#A8C8E8" stroke="none"/>
<path d="M 568.12,275.39 L 568.17,275.32 L 568.21,275.39 L 568.12,275.39 Z" fill="#A8C8E8" stroke="none"/>
<path d="M 570.72,277.76 L 567.89,273.96 L 574.50,274.40 L 575.50,275.57 L 575.03,277.32 L 574.09,277.11 L 574.52,278.39 L 570.72,277.76 Z" fill="#A8C8E8" stroke="none"/>
<path d="M 598.89,308.69 L 597.41,309.61 L 593.21,307.12 L 595.05,305.20 L 598.56,306.76 L 598.89,308.69 Z" fill="#A8C8E8" stroke="none"/>
<path d="M 634.07,235.32 L 631.42,238.05 L 628.11,237.18 L 628.98,235.46 L 634.07,235.32 Z" fill="#A8C8E8" stroke="none"/>
<path d="M 677.99,112.40 L 676.43,110.01 L 676.99,110.10 L 677.99,112.40 Z" fill="#A8C8E8" stroke="none"/>
<path d="M 664.77,240.53 L 663.77,239.42 L 666.95,239.81 L 664.77,240.53 Z" fill="#A8C8E8" stroke="none"/>
<path d="M 690.27,222.67 L 690.99,224.08 L 690.66,225.12 L 687.83,222.61 L 690.11,220.93 L 691.34,221.33 L 690.27,222.67 Z" fill="#A8C8E8" stroke="none"/>
<path d="M 679.53,204.52 L 679.96,204.92 L 678.69,204.92 L 679.53,204.52 Z" fill="#A8C8E8" stroke="none"/>
<path d="M 774.70,235.44 L 770.88,235.90 L 770.37,234.57 L 773.64,234.20 L 774.70,235.44 Z" fill="#A8C8E8" stroke="none"/>
<path d="M 796.05,227.51 L 794.85,227.64 L 794.52,229.23 L 790.59,226.36 L 796.05,227.51 Z" fill="#A8C8E8" stroke="none"/>
<path d="M 661.66,450.35 L 662.47,448.82 L 665.01,448.73 L 664.89,450.74 L 664.04,450.21 L 663.23,451.74 L 661.66,450.35 Z" fill="#A8C8E8" stroke="none"/>
<path d="M 747.58,452.13 L 747.14,453.70 L 743.62,450.95 L 747.58,452.13 Z" fill="#A8C8E8" stroke="none"/>
<path d="M 694.83,431.32 L 695.25,432.23 L 693.95,433.21 L 691.44,431.43 L 692.57,430.04 L 694.83,431.32 Z" fill="#A8C8E8" stroke="none"/>
<path d="M 677.30,465.53 L 674.16,463.39 L 673.98,461.38 L 677.59,464.42 L 677.30,465.53 Z" fill="#A8C8E8" stroke="none"/>
<path d="M 541.95,129.51 L 543.38,130.39 L 543.06,131.07 L 541.20,130.58 L 541.95,129.51 Z" fill="#A8C8E8" stroke="none"/>
<path d="M 536.63,153.71 L 535.24,153.77 L 535.35,151.86 L 536.62,152.25 L 536.63,153.71 Z" fill="#A8C8E8" stroke="none"/>
<path d="M 556.80,162.98 L 558.48,162.97 L 558.87,164.75 L 557.37,165.51 L 556.80,162.98 Z" fill="#A8C8E8" stroke="none"/>
<path d="M 556.85,164.83 L 556.89,164.92 L 556.80,164.80 L 556.85,164.83 Z" fill="#A8C8E8" stroke="none"/>
<path d="M 533.69,171.76 L 532.40,171.44 L 532.94,170.50 L 533.69,171.76 Z" fill="#A8C8E8" stroke="none"/>
<path d="M 574.37,170.82 L 573.92,170.94 L 575.93,168.19 L 578.87,166.55 L 574.37,170.82 Z" fill="#A8C8E8" stroke="none"/>
<path d="M 535.85,118.68 L 537.18,119.53 L 536.76,120.53 L 535.30,119.96 L 535.85,118.68 Z" fill="#A8C8E8" stroke="none"/>
<path d="M 459.57,129.26 L 458.17,128.36 L 458.70,127.39 L 459.82,127.95 L 459.57,129.26 Z" fill="#A8C8E8" stroke="none"/>
<path d="M 457.78,103.11 L 455.88,103.14 L 456.11,102.30 L 457.78,103.11 Z" fill="#A8C8E8" stroke="none"/>
<path d="M 464.50,78.16 L 463.28,77.14 L 463.80,76.87 L 464.50,78.16 Z" fill="#A8C8E8" stroke="none"/>
<path d="M 443.98,76.50 L 441.40,75.91 L 445.93,74.63 L 443.98,76.50 Z" fill="#A8C8E8" stroke="none"/>
<path d="M 420.47,71.24 L 419.42,70.26 L 419.89,69.46 L 420.75,69.75 L 420.47,71.24 Z" fill="#A8C8E8" stroke="none"/>
<path d="M 401.21,50.69 L 398.38,50.35 L 400.82,49.32 L 401.21,50.69 Z" fill="#A8C8E8" stroke="none"/>
<path d="M 392.45,38.17 L 391.64,37.27 L 393.45,36.64 L 392.45,38.17 Z" fill="#A8C8E8" stroke="none"/>
<path d="M 404.97,35.02 L 403.13,35.14 L 403.37,33.93 L 404.97,35.02 Z" fill="#A8C8E8" stroke="none"/>
<path d="M 385.81,37.31 L 376.87,34.65 L 377.75,34.23 L 385.58,35.82 L 385.81,37.31 Z" fill="#A8C8E8" stroke="none"/>
<path d="M 474.43,144.74 L 472.48,142.89 L 473.91,141.60 L 475.40,143.38 L 474.43,144.74 Z" fill="#A8C8E8" stroke="none"/>
<path d="M 485.23,151.88 L 482.48,151.25 L 483.80,149.65 L 485.46,149.99 L 485.23,151.88 Z" fill="#A8C8E8" stroke="none"/>
<path d="M 488.68,160.92 L 489.37,162.04 L 487.64,161.33 L 488.68,160.92 Z" fill="#A8C8E8" stroke="none"/>
<path d="M 509.45,173.38 L 508.01,172.77 L 509.22,169.82 L 509.45,173.38 Z" fill="#A8C8E8" stroke="none"/>
<path d="M 506.47,216.46 L 504.84,215.37 L 502.69,217.30 L 501.31,216.65 L 505.13,214.96 L 506.47,216.46 Z" fill="#A8C8E8" stroke="none"/>
<path d="M 542.58,121.09 L 544.81,121.91 L 542.72,123.79 L 541.12,123.01 L 542.58,121.09 Z" fill="#A8C8E8" stroke="none"/>
<path d="M 536.19,131.24 L 533.40,130.06 L 534.10,129.12 L 537.51,128.45 L 536.19,131.24 Z" fill="#A8C8E8" stroke="none"/>
<path d="M 533.53,129.80 L 533.48,129.82 L 533.65,129.68 L 533.53,129.80 Z" fill="#A8C8E8" stroke="none"/>
<path d="M 529.54,154.53 L 527.44,154.26 L 528.68,153.01 L 529.54,154.53 Z" fill="#A8C8E8" stroke="none"/>
<path d="M 532.31,123.92 L 532.27,123.60 L 532.64,123.27 L 533.48,122.93 L 533.99,123.79 L 532.31,123.92 Z" fill="#A8C8E8" stroke="none"/>
<path d="M 428.62,213.98 L 427.59,212.67 L 428.42,212.89 L 429.25,212.72 L 428.62,213.98 Z" fill="#A8C8E8" stroke="none"/>
<path d="M 422.33,211.69 L 421.17,211.30 L 421.38,210.71 L 422.50,210.31 L 422.33,211.69 Z" fill="#A8C8E8" stroke="none"/>
<path d="M 426.87,195.89 L 429.13,196.53 L 428.68,197.14 L 426.87,195.89 Z" fill="#A8C8E8" stroke="none"/>
<path d="M 335.51,195.27 L 335.47,196.18 L 333.88,196.39 L 333.77,194.94 L 335.51,195.27 Z" fill="#A8C8E8" stroke="none"/>
<path d="M 366.37,209.29 L 365.71,209.56 L 366.56,207.81 L 365.46,209.12 L 365.29,206.05 L 366.95,205.46 L 367.33,207.17 L 366.37,209.29 Z" fill="#A8C8E8" stroke="none"/>
<path d="M 365.80,211.82 L 366.63,211.43 L 366.39,212.95 L 364.96,213.19 L 366.22,212.07 L 365.35,211.91 L 365.15,211.25 L 366.72,209.69 L 365.80,211.82 Z" fill="#A8C8E8" stroke="none"/>
<path d="M 438.42,139.71 L 437.71,138.48 L 435.91,140.18 L 434.77,139.09 L 436.06,136.89 L 438.69,138.22 L 438.42,139.71 Z" fill="#A8C8E8" stroke="none"/>
<path d="M 371.46,139.38 L 370.38,138.69 L 370.89,136.40 L 371.46,139.38 Z" fill="#A8C8E8" stroke="none"/>
<path d="M 369.22,184.74 L 370.37,181.86 L 371.08,182.11 L 370.66,184.28 L 369.22,184.74 Z" fill="#A8C8E8" stroke="none"/>
<path d="M 370.59,189.12 L 369.24,187.30 L 370.66,185.90 L 370.59,189.12 Z" fill="#A8C8E8" stroke="none"/>
<path d="M 384.46,166.71 L 383.38,166.08 L 384.31,164.00 L 384.46,166.71 Z" fill="#A8C8E8" stroke="none"/>
<path d="M 415.89,158.17 L 415.96,157.52 L 417.62,158.24 L 415.89,158.17 Z" fill="#A8C8E8" stroke="none"/>
<path d="M 446.20,143.29 L 444.99,143.45 L 445.51,141.35 L 446.50,141.23 L 446.20,143.29 Z" fill="#A8C8E8" stroke="none"/>
<path d="M 455.12,140.28 L 453.37,139.97 L 453.68,138.90 L 455.26,138.96 L 455.12,140.28 Z" fill="#A8C8E8" stroke="none"/>
<path d="M 153.36,230.13 L 151.15,229.56 L 151.85,228.11 L 153.83,228.79 L 153.36,230.13 Z" fill="#A8C8E8" stroke="none"/>
<path d="M 155.01,246.99 L 154.60,245.34 L 155.45,245.63 L 155.01,246.99 Z" fill="#A8C8E8" stroke="none"/>
<path d="M 171.51,232.51 L 170.01,230.19 L 172.55,230.19 L 173.03,231.12 L 171.77,231.01 L 172.29,232.03 L 174.64,231.65 L 171.51,232.51 Z" fill="#A8C8E8" stroke="none"/>
<path d="M 196.22,237.02 L 191.25,234.57 L 193.27,234.52 L 191.57,233.13 L 194.92,233.89 L 196.26,234.64 L 194.25,235.33 L 196.35,236.01 L 196.22,237.02 Z" fill="#A8C8E8" stroke="none"/>
<path d="M 214.46,204.92 L 212.49,203.80 L 213.50,202.16 L 214.62,202.42 L 214.46,204.92 Z" fill="#A8C8E8" stroke="none"/>
<path d="M 223.30,224.72 L 221.03,223.17 L 221.47,222.23 L 223.66,223.48 L 223.30,224.72 Z" fill="#A8C8E8" stroke="none"/>
<path d="M 319.58,116.39 L 319.16,115.02 L 319.70,113.51 L 320.98,114.83 L 319.58,116.39 Z" fill="#A8C8E8" stroke="none"/>
<path d="M 322.39,112.65 L 320.47,112.54 L 320.76,111.19 L 322.39,112.65 Z" fill="#A8C8E8" stroke="none"/>
<path d="M 327.38,199.22 L 325.79,200.53 L 325.61,199.28 L 327.38,199.22 Z" fill="#A8C8E8" stroke="none"/>
<path d="M 151.70,379.97 L 148.28,380.10 L 150.55,378.71 L 149.54,377.34 L 151.77,377.06 L 158.34,382.41 L 151.70,379.97 Z" fill="#A8C8E8" stroke="none"/>
<path d="M 585.58,133.95 L 582.12,135.13 L 580.08,138.25 L 576.86,139.83 L 576.68,142.48 L 576.26,140.35 L 575.49,142.45 L 576.01,139.75 L 580.03,137.51 L 581.67,134.64 L 586.17,132.96 L 594.40,125.81 L 597.61,124.94 L 600.05,126.49 L 600.48,127.60 L 597.77,125.81 L 585.58,133.95 Z" fill="#A8C8E8" stroke="none"/>
<path d="M 616.19,251.44 L 614.10,254.33 L 612.18,254.33 L 613.77,255.08 L 612.45,255.34 L 605.02,249.82 L 600.83,249.19 L 597.22,246.34 L 597.36,245.30 L 602.94,245.17 L 604.36,243.43 L 601.77,240.92 L 602.57,234.34 L 604.08,232.45 L 611.53,228.92 L 609.56,225.60 L 607.30,223.89 L 605.12,224.24 L 601.52,220.10 L 606.09,220.97 L 607.75,218.79 L 609.40,218.21 L 605.30,222.54 L 608.15,223.48 L 612.87,228.18 L 615.19,228.50 L 604.20,233.26 L 602.60,236.74 L 604.43,242.30 L 608.89,242.91 L 605.54,243.29 L 603.32,245.32 L 616.19,251.44 Z" fill="#A8C8E8" stroke="none"/>
<path d="M 50.33,422.21 L 51.99,419.60 L 50.83,423.01 L 59.36,426.78 L 57.25,427.87 L 56.08,425.37 L 50.88,423.82 L 50.33,422.21 Z" fill="#A8C8E8" stroke="none"/>
<path d="M 4.23,239.89 L 3.26,240.44 L 0.00,236.90 L 0.00,234.50 L 4.23,239.89 Z" fill="#A8C8E8" stroke="none"/>
<path d="M 136.46,101.82 L 142.00,99.30 L 144.99,100.26 L 144.20,99.10 L 148.48,97.93 L 146.81,95.87 L 147.51,95.48 L 153.59,96.58 L 154.52,99.37 L 162.06,100.92 L 155.33,101.39 L 151.20,97.52 L 144.10,101.39 L 145.42,102.75 L 142.46,100.33 L 137.24,102.48 L 134.51,100.65 L 136.46,101.82 Z" fill="#A8C8E8" stroke="none"/>
<path d="M 174.91,155.45 L 176.73,156.15 L 175.28,157.20 L 176.16,160.85 L 173.45,164.93 L 175.07,164.52 L 172.03,166.19 L 170.13,171.98 L 174.26,173.26 L 169.39,172.76 L 167.64,175.57 L 166.06,175.95 L 169.96,169.34 L 170.09,166.60 L 174.73,159.54 L 173.98,156.68 L 174.91,155.45 Z" fill="#A8C8E8" stroke="none"/>
<path d="M 236.43,104.90 L 238.34,105.91 L 231.60,106.69 L 227.88,105.33 L 233.13,107.66 L 234.71,109.74 L 226.44,106.57 L 222.03,106.92 L 222.42,108.41 L 220.96,109.57 L 221.44,105.90 L 223.82,105.82 L 228.38,102.83 L 227.25,104.01 L 233.92,106.06 L 236.43,104.90 Z" fill="#A8C8E8" stroke="none"/>
<path d="M 52.83,443.81 L 50.33,442.61 L 49.25,440.54 L 50.39,440.98 L 50.38,439.01 L 51.59,439.48 L 50.96,442.39 L 55.25,439.39 L 54.38,437.77 L 54.38,436.87 L 56.11,439.38 L 58.46,435.33 L 57.86,438.86 L 53.73,441.40 L 52.83,443.81 Z" fill="#A8C8E8" stroke="none"/>
<path d="M 50.97,64.55 L 50.26,65.63 L 51.57,66.81 L 49.30,66.49 L 49.20,62.72 L 45.11,62.29 L 40.08,56.59 L 35.03,54.58 L 36.54,54.20 L 35.45,51.07 L 38.22,53.83 L 39.82,53.58 L 38.39,54.71 L 41.00,55.97 L 40.90,57.21 L 42.47,56.67 L 41.62,55.26 L 47.25,57.51 L 46.78,56.21 L 47.68,55.69 L 45.19,54.09 L 46.78,54.20 L 46.19,51.07 L 45.19,51.87 L 42.89,49.92 L 40.57,50.54 L 40.48,52.11 L 39.32,51.33 L 39.80,49.79 L 42.83,48.75 L 42.55,46.79 L 40.57,45.44 L 44.44,46.47 L 46.03,45.17 L 46.95,45.06 L 45.61,46.30 L 48.21,47.38 L 47.56,44.95 L 50.26,46.35 L 52.07,44.94 L 49.96,47.72 L 43.43,47.31 L 47.12,48.81 L 54.67,56.85 L 59.37,57.96 L 57.91,58.85 L 59.45,61.11 L 56.98,60.59 L 56.09,62.18 L 56.55,65.31 L 53.17,62.86 L 54.83,65.13 L 50.97,64.55 Z" fill="#A8C8E8" stroke="none"/>
<path d="M 12.95,260.51 L 9.11,261.22 L 4.79,258.57 L 0.00,260.15 L 0.00,258.36 L 0.14,257.33 L 2.01,258.59 L 4.48,257.29 L 9.32,258.28 L 10.95,255.85 L 10.88,252.95 L 13.44,258.39 L 12.95,260.51 Z" fill="#A8C8E8" stroke="none"/>
<path d="M 173.02,136.69 L 173.67,129.74 L 178.77,128.38 L 179.15,121.79 L 184.49,118.97 L 181.13,114.56 L 181.59,113.26 L 184.36,117.41 L 185.79,116.90 L 184.61,113.14 L 185.85,111.76 L 185.12,113.39 L 186.17,115.15 L 189.26,114.38 L 191.61,115.65 L 194.58,113.39 L 197.35,114.72 L 199.12,113.14 L 200.88,114.52 L 203.31,112.63 L 205.76,113.47 L 208.47,112.45 L 210.49,113.39 L 211.30,112.10 L 210.09,107.67 L 211.20,106.24 L 211.49,107.44 L 210.52,108.00 L 211.51,110.96 L 214.46,109.00 L 217.57,108.86 L 214.43,109.59 L 214.04,112.03 L 211.90,111.58 L 210.84,113.82 L 206.83,113.52 L 208.26,114.52 L 207.58,116.02 L 207.58,114.14 L 203.23,113.26 L 200.78,115.35 L 191.81,116.27 L 189.39,118.95 L 188.37,118.65 L 188.22,120.16 L 186.36,119.79 L 185.58,122.24 L 180.20,122.38 L 180.38,125.94 L 182.08,125.55 L 182.84,126.43 L 181.37,125.93 L 179.74,127.81 L 182.76,128.68 L 179.65,128.56 L 179.81,130.76 L 178.82,131.16 L 179.37,132.93 L 178.31,131.82 L 174.29,133.65 L 175.31,136.38 L 178.48,137.59 L 178.98,138.72 L 178.10,139.05 L 180.84,141.41 L 189.98,136.09 L 189.47,136.96 L 190.90,137.59 L 188.11,137.24 L 185.36,140.10 L 186.11,140.59 L 183.36,141.62 L 184.19,144.33 L 185.63,145.22 L 185.40,146.24 L 182.36,143.47 L 181.37,147.94 L 182.52,149.47 L 192.40,150.64 L 186.45,150.50 L 184.32,151.26 L 183.26,153.65 L 178.52,153.65 L 176.64,151.89 L 179.89,153.63 L 183.38,152.99 L 183.70,151.34 L 179.99,150.39 L 181.42,149.94 L 179.13,147.08 L 180.07,143.29 L 179.38,141.42 L 173.02,136.69 Z" fill="#A8C8E8" stroke="none"/>
<path d="M 66.25,37.76 L 68.51,37.16 L 66.70,38.22 L 68.35,39.41 L 66.81,40.31 L 59.11,33.01 L 66.25,37.76 Z" fill="#A8C8E8" stroke="none"/>
<path d="M 471.93,364.44 L 470.32,366.09 L 469.65,365.42 L 471.50,363.91 L 469.65,361.41 L 478.25,363.97 L 471.93,364.44 Z" fill="#A8C8E8" stroke="none"/>
<path d="M 416.80,377.96 L 413.87,377.47 L 412.38,373.83 L 418.82,375.96 L 416.80,377.96 Z" fill="#A8C8E8" stroke="none"/>
<path d="M 702.86,121.11 L 696.63,121.41 L 694.93,123.50 L 694.84,128.72 L 698.22,130.63 L 699.58,133.58 L 701.13,133.21 L 704.11,133.70 L 699.75,133.83 L 701.54,136.66 L 702.20,139.89 L 701.72,141.09 L 705.03,140.85 L 701.34,141.65 L 700.67,142.48 L 701.26,145.23 L 699.66,142.60 L 701.66,139.18 L 697.64,134.45 L 697.81,131.07 L 693.34,127.72 L 693.96,123.92 L 696.28,120.78 L 707.83,118.22 L 707.72,117.03 L 709.06,116.89 L 712.24,112.89 L 711.66,115.02 L 714.83,116.60 L 714.09,117.41 L 711.33,115.63 L 709.69,118.34 L 702.86,121.11 Z" fill="#A8C8E8" stroke="none"/>
<path d="M 87.13,76.66 L 84.04,76.33 L 83.35,75.53 L 84.69,75.91 L 83.58,73.77 L 80.05,71.11 L 80.76,70.89 L 75.57,72.12 L 72.67,75.04 L 72.03,75.31 L 70.69,75.14 L 75.43,71.69 L 78.83,70.63 L 76.31,68.38 L 81.01,67.86 L 80.60,67.02 L 81.48,66.54 L 81.77,68.88 L 78.57,69.75 L 81.77,71.00 L 83.78,73.27 L 84.86,73.07 L 84.16,73.96 L 87.13,76.66 Z" fill="#A8C8E8" stroke="none"/>
<path d="M 44.46,81.00 L 43.25,80.17 L 45.88,79.85 L 49.96,75.14 L 46.82,79.17 L 44.46,81.00 Z" fill="#A8C8E8" stroke="none"/>
<path d="M 31.83,89.27 L 31.12,90.93 L 28.69,92.74 L 23.12,94.46 L 27.86,92.32 L 26.32,90.87 L 28.93,92.33 L 30.92,90.35 L 30.00,89.57 L 33.02,88.19 L 35.84,90.00 L 34.58,90.94 L 31.83,89.27 Z" fill="#A8C8E8" stroke="none"/>
<path d="M 261.48,81.35 L 260.09,79.88 L 255.58,79.90 L 254.69,83.67 L 244.90,86.43 L 244.34,89.13 L 243.16,89.68 L 243.16,86.44 L 244.22,85.44 L 246.64,85.15 L 247.93,83.37 L 251.14,84.35 L 253.72,83.12 L 253.81,78.91 L 260.48,78.84 L 259.09,77.53 L 260.54,75.07 L 258.39,74.27 L 257.93,72.76 L 258.99,72.03 L 256.66,70.63 L 256.74,69.61 L 259.66,72.01 L 259.17,74.35 L 261.19,75.14 L 261.48,81.35 Z" fill="#A8C8E8" stroke="none"/>
<path d="M 276.49,64.53 L 276.18,62.24 L 275.70,63.73 L 274.19,64.49 L 276.34,66.39 L 276.12,67.75 L 274.70,67.99 L 276.16,68.57 L 275.70,69.39 L 276.74,69.89 L 276.04,70.57 L 277.02,70.67 L 277.22,73.01 L 276.29,71.76 L 276.82,71.03 L 275.53,71.00 L 276.29,70.00 L 274.38,68.10 L 276.08,66.86 L 271.51,64.05 L 270.33,66.13 L 270.69,62.56 L 269.07,61.22 L 271.55,59.65 L 268.80,58.66 L 269.17,57.38 L 266.14,58.09 L 266.74,55.22 L 260.22,57.14 L 258.76,56.85 L 268.32,53.27 L 266.39,52.44 L 269.02,52.71 L 267.85,50.19 L 261.44,49.20 L 268.93,49.61 L 268.04,47.01 L 269.29,44.26 L 272.52,42.17 L 271.60,41.68 L 271.35,41.29 L 274.76,41.70 L 273.76,40.24 L 274.78,37.78 L 271.41,32.63 L 271.68,32.63 L 274.70,35.40 L 275.47,41.08 L 274.53,42.36 L 275.36,43.54 L 269.50,44.56 L 270.80,46.46 L 268.94,47.79 L 271.18,47.94 L 270.34,50.56 L 274.73,50.21 L 275.20,51.83 L 271.65,51.10 L 270.67,52.83 L 271.68,53.70 L 270.37,53.21 L 270.33,54.58 L 267.92,56.25 L 272.00,59.51 L 271.39,61.28 L 269.76,61.17 L 271.21,62.59 L 270.84,64.12 L 271.98,63.86 L 273.78,64.62 L 273.22,64.10 L 274.60,64.12 L 274.19,62.98 L 275.28,63.36 L 276.88,61.16 L 276.97,63.84 L 279.54,63.47 L 280.15,64.12 L 276.49,64.53 Z" fill="#A8C8E8" stroke="none"/>
<path d="M 46.52,467.08 L 48.62,463.59 L 48.98,465.13 L 47.75,466.17 L 47.70,467.37 L 46.58,467.37 L 46.52,467.08 Z" fill="#A8C8E8" stroke="none"/>
<path d="M 68.83,421.42 L 68.07,421.99 L 65.64,421.21 L 63.00,422.30 L 64.31,420.35 L 63.87,418.88 L 63.14,419.20 L 61.46,417.45 L 59.62,418.10 L 59.24,417.06 L 55.76,418.37 L 54.38,416.70 L 54.07,415.08 L 55.11,416.23 L 55.38,413.43 L 56.59,415.95 L 55.84,416.32 L 56.93,416.32 L 57.43,414.31 L 57.49,416.14 L 61.66,416.84 L 64.10,418.96 L 65.50,417.85 L 65.74,415.69 L 65.83,417.59 L 68.26,417.45 L 64.94,418.41 L 64.60,420.31 L 68.83,421.42 Z" fill="#A8C8E8" stroke="none"/>
<path d="M 147.25,209.00 L 146.52,209.82 L 145.97,208.32 L 140.20,209.76 L 140.40,207.92 L 142.40,205.85 L 139.98,202.54 L 139.79,200.28 L 144.67,197.40 L 144.06,194.61 L 141.63,192.71 L 141.82,188.88 L 143.74,186.24 L 146.22,184.70 L 147.20,181.22 L 149.95,180.69 L 150.97,178.71 L 151.38,180.46 L 150.50,180.94 L 153.65,181.72 L 148.00,182.18 L 147.27,183.62 L 148.02,183.73 L 143.96,186.67 L 144.08,188.77 L 142.41,192.13 L 144.64,194.67 L 144.93,198.03 L 144.26,199.42 L 141.08,200.04 L 140.66,201.73 L 143.18,206.25 L 142.41,208.18 L 144.79,207.32 L 147.77,208.60 L 149.58,206.74 L 148.35,210.23 L 147.25,209.00 Z" fill="#A8C8E8" stroke="none"/>
<path d="M 102.23,77.89 L 105.33,75.91 L 105.63,78.28 L 109.16,77.82 L 109.47,74.72 L 109.95,73.90 L 109.79,77.73 L 110.65,77.73 L 111.24,76.04 L 116.07,72.15 L 114.90,74.52 L 111.94,76.23 L 111.96,78.16 L 110.69,78.62 L 109.17,82.76 L 109.37,84.38 L 109.71,83.58 L 110.44,83.05 L 109.80,84.57 L 112.20,86.44 L 111.10,87.10 L 112.13,87.93 L 112.56,91.57 L 109.48,91.45 L 108.08,92.77 L 108.94,91.44 L 110.44,91.13 L 108.27,90.32 L 110.64,89.59 L 109.91,87.18 L 107.73,86.34 L 109.67,86.55 L 109.53,85.55 L 108.23,84.99 L 107.34,82.30 L 106.23,82.31 L 108.77,79.22 L 105.83,78.65 L 103.48,80.66 L 105.16,78.47 L 102.23,77.89 Z" fill="#A8C8E8" stroke="none"/>
<path d="M 441.92,390.79 L 440.18,391.70 L 435.76,391.70 L 442.50,389.01 L 441.92,390.79 Z" fill="#A8C8E8" stroke="none"/>
<path d="M 525.36,326.92 L 525.01,325.73 L 527.95,324.29 L 538.02,325.80 L 536.00,327.35 L 525.36,326.92 Z" fill="#A8C8E8" stroke="none"/>
<path d="M 118.53,232.75 L 115.40,233.39 L 115.02,234.77 L 113.21,236.58 L 114.46,238.42 L 117.08,237.77 L 113.47,240.66 L 114.94,240.81 L 111.85,242.17 L 111.12,243.80 L 111.71,244.92 L 109.37,245.27 L 108.51,248.57 L 110.44,249.81 L 108.01,251.20 L 108.50,255.78 L 107.39,252.95 L 103.52,254.81 L 101.73,257.33 L 100.24,256.85 L 99.89,258.14 L 97.32,258.71 L 96.52,257.46 L 98.05,255.11 L 97.32,254.06 L 98.71,253.82 L 97.71,252.95 L 99.25,253.14 L 99.72,251.44 L 98.67,250.94 L 97.78,249.94 L 99.18,251.04 L 100.15,250.20 L 101.77,253.64 L 104.87,252.40 L 105.76,247.93 L 104.49,247.19 L 107.85,246.11 L 108.61,244.04 L 108.27,241.79 L 106.51,240.17 L 111.62,241.67 L 113.80,238.34 L 112.89,237.15 L 112.98,235.83 L 115.31,233.02 L 118.32,232.38 L 119.53,228.49 L 116.77,228.61 L 115.94,228.02 L 115.74,224.86 L 114.14,222.61 L 116.00,224.92 L 116.62,228.31 L 119.76,228.29 L 118.53,232.75 Z" fill="#A8C8E8" stroke="none"/>
<path d="M 15.07,299.96 L 10.13,298.21 L 9.62,297.20 L 10.66,296.39 L 9.21,292.94 L 6.01,291.82 L 6.43,290.32 L 5.17,290.70 L 6.43,288.56 L 2.90,290.94 L 4.92,287.73 L 3.91,287.31 L 4.22,288.27 L 3.23,289.05 L 2.70,288.01 L 2.29,289.25 L 1.53,286.30 L 0.00,285.96 L 0.00,282.77 L 1.02,284.91 L 1.06,282.85 L 3.91,283.34 L 4.01,285.21 L 3.16,284.43 L 2.16,286.56 L 3.16,287.38 L 4.96,285.47 L 4.84,283.80 L 6.34,283.80 L 6.90,285.04 L 5.34,285.17 L 6.98,286.24 L 7.18,290.10 L 8.20,289.58 L 15.07,299.96 Z" fill="#A8C8E8" stroke="none"/>
<path d="M 539.87,349.07 L 533.78,352.01 L 534.82,353.12 L 529.51,357.00 L 522.83,356.90 L 516.24,353.64 L 514.69,354.13 L 513.78,351.91 L 533.23,346.74 L 539.61,346.37 L 536.87,348.56 L 539.87,349.07 Z" fill="#A8C8E8" stroke="none"/>
<path d="M 710.24,205.43 L 716.43,203.09 L 718.27,200.90 L 719.42,201.62 L 719.46,204.85 L 724.43,208.35 L 720.78,209.25 L 718.64,212.61 L 715.69,213.71 L 712.56,212.27 L 710.24,205.43 Z" fill="#A8C8E8" stroke="none"/>
<path d="M 141.07,446.24 L 139.98,445.79 L 138.84,449.18 L 136.27,447.59 L 135.00,437.54 L 132.64,435.76 L 132.64,433.38 L 134.35,431.08 L 131.95,430.63 L 132.48,428.57 L 136.33,428.29 L 137.84,430.12 L 137.07,436.84 L 137.95,438.14 L 141.15,438.14 L 141.57,439.71 L 139.98,439.73 L 142.95,444.12 L 141.07,446.24 Z M 138.53,443.80 L 137.99,443.46 L 137.83,444.13 L 138.55,445.16 L 138.53,443.80 Z M 139.12,441.78 L 138.81,442.54 L 139.39,443.04 L 139.12,441.78 Z" fill="#A8C8E8" stroke="none"/>
<path d="M 289.25,365.77 L 283.11,368.37 L 280.48,363.68 L 279.71,366.05 L 279.21,364.73 L 281.21,355.56 L 283.26,353.64 L 286.31,355.57 L 286.12,358.69 L 287.69,359.80 L 287.13,361.73 L 289.39,363.12 L 289.25,365.77 Z" fill="#A8C8E8" stroke="none"/>
<path d="M 581.76,290.06 L 577.41,286.09 L 577.62,279.72 L 579.48,277.94 L 584.32,280.80 L 586.39,290.65 L 581.76,290.06 Z" fill="#A8C8E8" stroke="none"/>
<path d="M 106.63,426.86 L 105.91,423.90 L 103.65,425.12 L 98.85,423.86 L 101.23,421.72 L 100.91,419.67 L 108.55,418.44 L 109.95,416.83 L 108.61,417.45 L 108.30,416.12 L 112.34,414.83 L 115.49,415.83 L 111.20,417.86 L 108.44,421.96 L 111.29,423.23 L 111.17,425.11 L 109.03,427.35 L 106.63,426.86 Z" fill="#A8C8E8" stroke="none"/>
<path d="M 718.45,225.86 L 718.46,225.86 L 718.46,225.86 L 718.45,225.86 Z M 729.11,230.01 L 723.99,232.76 L 722.93,229.88 L 717.11,226.99 L 721.15,225.66 L 724.91,228.50 L 729.12,228.75 L 729.11,230.01 Z" fill="#A8C8E8" stroke="none"/>
<path d="M 432.30,203.00 L 429.05,202.91 L 431.47,201.65 L 429.93,201.28 L 427.29,205.17 L 425.83,205.84 L 426.95,207.92 L 428.93,207.12 L 429.05,208.93 L 427.24,208.63 L 425.31,210.31 L 421.42,209.00 L 423.45,203.25 L 427.35,203.33 L 426.78,204.92 L 429.47,200.48 L 433.20,201.22 L 431.79,202.79 L 433.24,202.05 L 432.30,203.00 Z" fill="#A8C8E8" stroke="none"/>
<path d="M 375.61,164.64 L 373.18,165.55 L 373.51,166.68 L 370.16,167.30 L 376.21,159.79 L 375.61,164.64 Z" fill="#A8C8E8" stroke="none"/>
<path d="M 726.11,257.60 L 724.23,257.46 L 722.31,252.51 L 722.74,251.31 L 721.81,251.31 L 722.57,250.82 L 719.96,249.95 L 719.82,247.68 L 721.16,247.63 L 721.73,246.10 L 724.65,246.53 L 722.55,249.88 L 723.38,250.50 L 722.95,252.77 L 726.56,255.89 L 726.11,257.60 Z" fill="#A8C8E8" stroke="none"/>
<path d="M 412.29,381.65 L 407.15,383.22 L 408.64,387.46 L 405.20,384.32 L 405.15,382.54 L 390.37,378.19 L 401.02,378.23 L 404.48,379.23 L 406.21,380.57 L 405.77,381.54 L 407.82,381.54 L 413.87,377.47 L 412.29,381.65 Z" fill="#A8C8E8" stroke="none"/>
<path d="M 725.17,234.85 L 723.66,233.73 L 725.59,232.51 L 725.17,234.85 Z" fill="#A8C8E8" stroke="none"/>
<path d="M 418.77,212.10 L 417.38,211.20 L 417.88,210.06 L 418.77,212.10 Z" fill="#A8C8E8" stroke="none"/>
<path d="M 438.19,205.42 L 437.37,206.13 L 435.21,202.98 L 437.58,205.50 L 437.27,203.80 L 438.19,205.42 Z" fill="#A8C8E8" stroke="none"/>
<path d="M 297.77,297.61 L 299.75,289.79 L 306.99,286.73 L 306.27,288.74 L 302.23,290.53 L 301.68,294.16 L 299.27,296.66 L 299.39,302.69 L 297.73,304.93 L 298.68,308.40 L 296.95,314.14 L 295.50,315.59 L 293.92,314.93 L 294.97,312.33 L 293.75,307.87 L 297.77,297.61 Z" fill="#A8C8E8" stroke="none"/>
<path d="M 310.52,282.95 L 309.45,280.94 L 312.89,281.57 L 313.24,284.51 L 312.20,285.26 L 310.52,282.95 Z" fill="#A8C8E8" stroke="none"/>
<path d="M 325.62,283.09 L 324.37,279.92 L 322.62,281.41 L 319.79,279.40 L 317.16,280.25 L 315.38,278.76 L 315.54,276.31 L 319.03,273.96 L 320.55,277.94 L 321.15,275.29 L 322.62,276.47 L 324.89,275.01 L 321.96,273.03 L 322.62,272.43 L 325.45,273.10 L 325.02,276.13 L 326.45,278.11 L 329.40,278.54 L 331.03,277.63 L 330.29,276.16 L 331.62,274.92 L 334.23,274.38 L 331.19,277.99 L 330.42,282.44 L 325.11,285.20 L 325.62,283.09 Z" fill="#A8C8E8" stroke="none"/>
<path d="M 315.30,285.67 L 315.85,286.46 L 315.03,287.81 L 314.64,286.39 L 313.19,286.45 L 315.30,285.67 Z" fill="#A8C8E8" stroke="none"/>
</svg>