<svg xmlns="http://www.w3.org/2000/svg" width="800" height="500" viewBox="0 0 800 500">
<rect width="800" height="500" fill="#A8C8E8"/>
<path d="M 200.01,35.08 L 216.63,36.02 L 226.34,33.47 L 219.18,40.19 L 219.35,46.18 L 223.83,47.58 L 226.01,52.99 L 223.40,55.80 L 227.17,60.40 L 226.11,68.68 L 238.49,73.13 L 242.55,70.50 L 248.06,73.13 L 249.62,77.90 L 245.30,77.74 L 241.65,84.51 L 243.38,93.61 L 235.99,106.07 L 263.62,110.00 L 263.89,121.83 L 270.55,124.24 L 268.73,128.83 L 272.09,132.51 L 277.45,128.78 L 287.13,131.01 L 303.10,120.16 L 306.25,125.81 L 300.35,133.31 L 290.72,136.75 L 283.54,151.52 L 288.19,152.60 L 278.24,154.37 L 272.93,159.13 L 269.05,172.97 L 263.43,168.33 L 253.56,173.37 L 245.55,170.86 L 248.66,178.94 L 241.23,182.27 L 233.53,180.86 L 231.02,191.07 L 227.51,193.71 L 224.34,191.60 L 214.81,196.36 L 204.60,196.77 L 197.22,191.73 L 196.66,197.70 L 191.13,200.31 L 190.50,201.68 L 190.50,40.38 L 200.01,35.08 Z M 214.01,297.79 L 212.18,303.97 L 219.33,319.88 L 225.44,313.11 L 227.62,316.41 L 224.32,326.29 L 215.31,328.59 L 215.76,353.82 L 210.34,353.64 L 209.71,357.43 L 206.17,356.20 L 201.93,362.89 L 204.80,373.87 L 215.33,389.44 L 228.75,400.10 L 234.11,407.94 L 237.57,431.29 L 234.53,433.41 L 234.22,438.25 L 238.76,449.95 L 244.95,455.11 L 246.65,471.38 L 249.74,470.97 L 248.94,475.15 L 252.80,482.81 L 249.77,489.20 L 246.56,490.17 L 242.19,500.00 L 221.32,500.00 L 220.54,498.40 L 223.20,496.01 L 221.84,489.14 L 227.24,487.26 L 223.48,485.02 L 224.96,482.44 L 224.38,481.51 L 219.71,487.57 L 217.27,483.25 L 220.83,480.52 L 215.38,480.52 L 219.36,479.00 L 221.35,476.18 L 218.17,471.28 L 220.72,467.43 L 215.03,467.28 L 220.83,463.42 L 217.32,460.46 L 220.94,457.42 L 217.94,455.75 L 220.36,449.66 L 217.76,448.17 L 216.40,432.85 L 204.85,413.63 L 203.02,400.85 L 202.84,419.83 L 201.37,420.08 L 198.51,402.84 L 200.18,397.09 L 192.41,378.28 L 197.33,379.61 L 194.64,374.09 L 191.19,376.84 L 190.50,374.80 L 190.50,271.44 L 214.01,297.79 Z M 190.67,447.20 L 191.28,446.70 L 191.80,447.86 L 190.67,447.20 Z M 206.19,493.97 L 202.48,496.17 L 202.09,495.27 L 206.01,483.39 L 206.19,493.97 Z M 215.63,484.89 L 214.90,493.25 L 211.34,491.88 L 209.21,483.78 L 215.63,484.89 Z M 199.47,489.50 L 196.78,486.86 L 197.35,486.40 L 196.62,484.77 L 196.85,481.02 L 199.47,489.50 Z M 205.25,479.65 L 205.56,479.43 L 206.38,480.38 L 205.25,479.65 Z M 204.89,478.81 L 204.54,477.25 L 205.40,477.15 L 204.89,478.81 Z M 219.19,477.97 L 219.16,478.50 L 212.92,480.07 L 211.57,472.01 L 219.19,477.97 Z M 200.94,468.86 L 201.13,471.04 L 197.74,468.54 L 198.88,465.54 L 200.94,468.86 Z M 196.38,466.29 L 194.49,464.80 L 199.00,460.52 L 196.38,466.29 Z M 214.17,460.66 L 213.53,461.31 L 212.79,460.61 L 214.17,458.03 L 214.17,460.66 Z M 206.41,456.91 L 205.39,458.05 L 204.34,457.25 L 206.41,456.91 Z M 191.18,454.42 L 191.18,456.52 L 190.50,455.83 L 190.50,455.72 L 191.18,454.42 Z M 212.15,459.41 L 206.83,463.78 L 207.30,451.04 L 211.10,456.79 L 212.52,454.82 L 212.15,459.41 Z M 208.02,436.96 L 206.83,442.81 L 204.93,431.82 L 208.02,436.96 Z M 194.23,408.61 L 193.52,411.09 L 193.56,408.56 L 194.23,408.61 Z" fill="#C8D8E8" stroke="#8BAABB" stroke-width="0.8"/>
<path d="M 519.02,398.84 L 528.86,421.48 L 523.88,438.86 L 527.51,454.00 L 526.02,462.74 L 522.34,466.84 L 515.28,464.95 L 497.61,477.16 L 486.96,477.19 L 488.07,488.41 L 473.86,484.46 L 471.04,489.11 L 466.57,489.76 L 467.72,500.00 L 374.12,500.00 L 371.70,496.24 L 375.50,497.01 L 370.75,490.49 L 370.52,492.75 L 367.90,492.23 L 370.97,489.77 L 368.39,489.27 L 368.99,486.92 L 371.78,486.73 L 372.41,486.01 L 368.86,486.51 L 365.77,482.28 L 368.39,486.51 L 367.90,491.76 L 359.08,471.04 L 361.23,460.20 L 351.69,452.00 L 351.82,439.79 L 346.21,429.62 L 345.70,419.94 L 355.54,417.59 L 353.62,415.25 L 359.03,411.89 L 367.18,395.88 L 391.52,387.05 L 400.11,390.80 L 410.22,388.48 L 422.88,390.07 L 430.80,387.18 L 437.80,389.34 L 440.34,395.41 L 445.09,390.61 L 450.40,399.20 L 457.16,397.22 L 464.46,400.04 L 469.85,406.03 L 475.72,406.25 L 478.50,401.26 L 472.42,389.88 L 479.32,389.74 L 481.29,385.33 L 487.84,386.21 L 491.07,381.69 L 501.26,391.80 L 505.65,391.54 L 517.89,381.40 L 522.31,383.40 L 525.96,377.53 L 519.02,398.84 Z M 370.10,500.00 L 369.40,500.00 L 369.10,497.01 L 370.10,500.00 Z M 371.23,495.49 L 370.52,497.01 L 369.32,493.82 L 371.23,495.49 Z" fill="#C8D8E8" stroke="#8BAABB" stroke-width="0.8"/>
<path d="M 608.94,175.83 L 607.05,169.74 L 609.50,170.92 L 609.50,175.52 L 608.94,175.83 Z M 605.64,165.73 L 606.55,162.84 L 603.20,160.00 L 606.97,158.48 L 604.42,159.36 L 603.48,153.39 L 602.03,155.11 L 600.07,150.75 L 603.69,135.13 L 609.17,134.89 L 609.50,132.71 L 609.50,167.50 L 605.64,165.73 Z M 605.37,131.40 L 603.95,126.90 L 603.95,130.41 L 599.67,129.14 L 600.62,125.39 L 598.23,127.15 L 597.76,120.91 L 593.27,123.89 L 597.01,126.91 L 595.56,130.19 L 585.66,132.38 L 585.45,130.41 L 581.98,133.47 L 578.56,131.70 L 582.12,129.51 L 581.88,126.13 L 574.69,125.69 L 572.17,123.14 L 574.55,120.16 L 570.31,118.28 L 571.76,120.96 L 569.55,121.66 L 572.38,124.64 L 568.37,126.13 L 567.66,120.91 L 566.21,122.40 L 565.04,121.38 L 566.00,118.40 L 563.14,121.13 L 564.56,115.66 L 562.41,113.42 L 559.58,116.90 L 558.42,114.66 L 559.10,122.65 L 562.14,123.38 L 558.87,127.63 L 556.05,127.15 L 558.87,123.64 L 554.38,121.66 L 552.39,128.25 L 549.87,129.86 L 551.31,126.66 L 549.70,124.69 L 542.26,128.12 L 545.35,130.41 L 541.55,132.38 L 536.04,124.50 L 520.00,126.26 L 517.38,121.93 L 508.04,118.57 L 508.27,114.31 L 495.93,112.80 L 496.27,103.53 L 491.57,95.69 L 493.30,89.97 L 496.87,90.55 L 500.67,82.61 L 490.21,77.94 L 482.17,80.52 L 477.90,76.13 L 468.27,78.70 L 457.80,73.05 L 449.51,61.89 L 445.66,65.96 L 434.21,69.26 L 431.71,72.10 L 432.60,77.99 L 428.35,81.84 L 423.25,81.20 L 415.86,86.65 L 412.29,84.62 L 412.44,81.62 L 407.09,82.82 L 402.69,93.18 L 391.86,82.54 L 386.90,90.48 L 380.19,82.95 L 370.47,95.99 L 351.04,83.65 L 342.40,96.70 L 334.67,95.36 L 330.28,97.86 L 324.09,94.21 L 318.08,102.72 L 328.06,125.30 L 325.72,127.30 L 324.99,136.40 L 328.75,139.56 L 326.40,142.89 L 318.15,139.26 L 308.69,141.08 L 303.10,120.16 L 287.13,131.01 L 277.45,128.78 L 271.24,132.20 L 268.59,128.03 L 270.55,124.24 L 263.89,121.83 L 263.62,110.00 L 235.99,106.07 L 243.38,93.61 L 241.65,84.51 L 245.30,77.74 L 249.62,77.90 L 248.06,73.13 L 242.55,70.50 L 238.49,73.13 L 226.11,68.68 L 227.17,60.40 L 223.40,55.80 L 226.01,52.99 L 223.83,47.58 L 219.35,46.18 L 219.18,40.19 L 226.34,33.47 L 216.63,36.02 L 200.01,35.08 L 190.50,40.38 L 190.50,-0.00 L 609.50,-0.00 L 609.50,130.24 L 605.37,131.40 Z M 603.01,243.01 L 602.52,247.49 L 600.39,247.49 L 602.78,248.01 L 601.72,249.88 L 596.61,251.26 L 596.61,248.01 L 593.75,250.41 L 592.41,246.91 L 582.81,246.95 L 581.89,244.27 L 566.27,238.66 L 564.27,210.97 L 577.48,199.23 L 587.82,195.08 L 586.64,192.07 L 582.84,194.58 L 586.01,188.25 L 597.32,189.81 L 595.43,186.32 L 602.07,184.16 L 606.11,187.07 L 609.50,185.07 L 609.50,241.65 L 603.01,243.01 Z M 580.32,146.58 L 581.43,145.72 L 581.60,146.93 L 580.32,146.58 Z" fill="#C8D8E8" stroke="#8BAABB" stroke-width="0.8"/>
<path d="M 355.82,468.03 L 355.01,474.30 L 345.09,469.17 L 343.96,465.54 L 346.49,464.89 L 347.04,462.71 L 344.95,464.50 L 345.37,460.52 L 341.97,460.21 L 342.75,464.30 L 337.08,455.30 L 335.17,455.52 L 336.82,459.03 L 326.75,450.37 L 314.70,454.39 L 303.27,451.29 L 299.34,454.30 L 295.31,452.31 L 297.93,439.55 L 296.01,436.07 L 300.08,421.57 L 289.15,421.09 L 286.31,417.34 L 285.55,420.72 L 275.13,420.82 L 264.32,428.36 L 269.22,437.56 L 264.24,451.75 L 266.30,469.07 L 253.21,493.47 L 252.16,500.00 L 242.19,500.00 L 246.56,490.17 L 249.77,489.20 L 252.80,482.81 L 248.94,475.15 L 249.74,470.97 L 246.65,471.38 L 244.95,455.11 L 238.76,449.95 L 234.22,438.25 L 234.53,433.41 L 237.57,431.29 L 234.11,407.94 L 228.75,400.10 L 215.33,389.44 L 204.80,373.87 L 201.93,362.89 L 206.17,356.20 L 209.71,357.43 L 210.34,353.64 L 215.76,353.82 L 215.31,328.59 L 224.32,326.29 L 227.62,316.41 L 225.44,313.11 L 219.33,319.88 L 212.18,303.97 L 214.01,297.79 L 190.50,271.44 L 190.50,201.68 L 191.13,200.31 L 196.66,197.70 L 197.22,191.73 L 204.60,196.77 L 214.81,196.36 L 224.34,191.60 L 227.51,193.71 L 231.02,191.07 L 233.53,180.86 L 241.23,182.27 L 248.66,178.94 L 245.55,170.86 L 253.56,173.37 L 263.43,168.33 L 270.89,175.83 L 273.93,170.96 L 277.53,170.34 L 284.60,178.79 L 278.74,193.82 L 282.03,201.86 L 291.68,203.41 L 296.07,198.63 L 309.05,201.05 L 306.20,207.28 L 311.53,220.24 L 308.02,225.56 L 308.36,233.44 L 301.28,241.85 L 305.61,245.67 L 305.95,255.49 L 300.26,261.63 L 296.83,273.40 L 304.81,277.05 L 313.66,267.30 L 325.47,260.64 L 327.59,254.75 L 331.54,256.08 L 337.57,249.64 L 355.61,259.07 L 355.46,263.24 L 358.49,264.36 L 364.37,258.46 L 370.78,257.78 L 375.29,248.33 L 379.69,246.95 L 377.92,243.59 L 383.20,241.35 L 399.16,247.00 L 404.09,245.83 L 419.73,269.61 L 431.53,278.45 L 430.21,311.05 L 439.24,320.24 L 440.72,325.91 L 453.32,329.96 L 451.19,333.26 L 452.97,337.62 L 460.89,341.91 L 459.63,350.76 L 455.24,353.91 L 458.23,356.83 L 454.07,361.89 L 459.24,367.10 L 455.64,374.55 L 456.28,382.65 L 453.11,387.60 L 440.34,395.41 L 437.80,389.34 L 430.80,387.18 L 422.88,390.07 L 410.22,388.48 L 400.11,390.80 L 391.52,387.05 L 374.25,391.56 L 366.65,396.45 L 359.03,411.89 L 353.62,415.25 L 355.54,417.59 L 346.35,419.08 L 346.21,429.62 L 351.82,439.79 L 351.44,451.42 L 361.23,460.20 L 358.81,469.59 L 366.48,489.00 L 355.82,468.03 Z M 355.83,487.59 L 355.56,492.01 L 353.20,490.49 L 354.07,484.85 L 355.83,487.59 Z M 350.12,477.28 L 344.90,477.01 L 343.49,470.52 L 350.12,477.28 Z" fill="#C8D8E8" stroke="#8BAABB" stroke-width="0.8"/>
<path d="M 527.27,370.89 L 523.37,365.84 L 528.34,364.65 L 530.93,356.98 L 513.09,338.58 L 514.39,335.45 L 520.94,333.27 L 523.03,327.81 L 518.29,327.98 L 511.69,320.57 L 506.44,319.13 L 502.64,311.01 L 499.03,314.96 L 496.54,314.13 L 492.04,306.30 L 491.48,294.27 L 487.57,294.04 L 483.18,283.50 L 479.74,284.50 L 463.74,269.33 L 454.86,250.84 L 451.36,251.93 L 444.46,246.26 L 441.47,240.88 L 444.57,235.03 L 442.61,231.99 L 428.68,228.42 L 409.20,214.33 L 398.84,210.06 L 407.20,203.37 L 404.12,196.18 L 412.01,195.26 L 425.35,198.86 L 431.96,192.17 L 431.11,187.90 L 436.96,184.71 L 435.52,178.16 L 426.83,176.80 L 427.66,172.12 L 416.54,168.52 L 425.38,160.99 L 407.28,149.52 L 396.65,153.72 L 392.88,160.62 L 384.71,154.82 L 373.46,152.90 L 362.59,138.82 L 368.57,127.14 L 367.66,121.24 L 364.18,122.43 L 362.78,117.64 L 360.89,123.29 L 357.37,124.13 L 355.31,115.26 L 338.96,97.18 L 342.40,96.70 L 350.17,83.78 L 370.47,95.99 L 380.19,82.95 L 386.90,90.48 L 391.86,82.54 L 402.69,93.18 L 407.09,82.82 L 412.44,81.62 L 412.29,84.62 L 415.86,86.65 L 423.25,81.20 L 428.35,81.84 L 432.60,77.99 L 431.71,72.10 L 434.21,69.26 L 445.66,65.96 L 449.51,61.89 L 457.80,73.05 L 468.27,78.70 L 477.90,76.13 L 482.17,80.52 L 490.21,77.94 L 500.67,82.61 L 496.87,90.55 L 493.30,89.97 L 491.57,95.69 L 496.27,103.53 L 495.93,112.80 L 508.27,114.31 L 508.04,118.57 L 517.38,121.93 L 520.00,126.26 L 534.87,124.20 L 542.26,130.41 L 540.13,131.98 L 539.44,128.92 L 534.49,129.15 L 535.17,131.40 L 528.39,137.40 L 522.32,136.13 L 520.43,139.39 L 520.90,147.10 L 514.77,150.38 L 510.23,149.61 L 513.11,146.63 L 508.83,146.87 L 507.98,149.89 L 502.88,148.39 L 505.98,151.38 L 503.37,152.38 L 500.07,149.66 L 500.95,147.20 L 495.55,147.37 L 499.47,150.35 L 497.56,152.38 L 501.23,159.86 L 493.64,160.38 L 494.95,162.88 L 491.28,164.84 L 493.40,164.61 L 491.28,168.61 L 493.90,168.22 L 493.84,174.51 L 493.46,174.92 L 491.91,173.28 L 490.57,173.32 L 493.04,176.10 L 486.50,176.82 L 479.42,184.83 L 477.03,185.83 L 477.03,183.34 L 471.79,187.27 L 466.08,199.00 L 466.70,210.78 L 459.94,221.52 L 464.70,233.28 L 465.17,229.78 L 476.56,248.01 L 482.70,250.00 L 485.33,255.27 L 488.38,252.93 L 491.49,259.27 L 488.42,261.74 L 490.57,267.98 L 486.29,265.99 L 483.20,265.74 L 490.79,269.00 L 499.77,281.65 L 511.82,290.66 L 515.00,296.82 L 512.85,298.70 L 515.44,297.23 L 529.94,308.92 L 523.29,306.71 L 530.90,310.21 L 537.06,316.48 L 536.06,318.91 L 544.05,317.70 L 544.43,321.72 L 549.64,322.42 L 547.49,324.91 L 550.47,327.05 L 549.40,330.19 L 551.53,329.94 L 551.06,324.42 L 554.04,324.66 L 552.23,330.48 L 566.22,347.90 L 564.34,350.16 L 566.70,348.89 L 569.32,354.91 L 571.21,351.13 L 575.51,357.65 L 572.42,361.21 L 580.16,377.14 L 579.30,382.67 L 587.82,407.71 L 587.71,411.98 L 585.89,407.18 L 584.82,410.27 L 587.37,420.32 L 584.75,416.07 L 584.46,416.66 L 588.94,422.69 L 587.82,424.83 L 585.67,421.97 L 585.22,425.32 L 587.82,426.80 L 587.82,434.80 L 593.28,442.81 L 589.95,446.04 L 592.81,455.30 L 591.15,451.04 L 589.02,452.04 L 589.61,447.04 L 584.28,452.54 L 589.16,461.65 L 587.48,463.30 L 582.36,460.05 L 585.56,464.96 L 583.56,469.02 L 587.37,480.79 L 584.96,480.52 L 584.75,475.52 L 583.30,471.38 L 584.39,476.95 L 581.54,481.07 L 584.28,480.90 L 585.59,485.73 L 581.89,491.76 L 577.88,489.48 L 577.38,500.00 L 467.72,500.00 L 466.57,489.76 L 471.04,489.11 L 473.86,484.46 L 488.07,488.41 L 486.96,477.19 L 497.61,477.16 L 515.28,464.95 L 522.34,466.84 L 525.75,463.56 L 527.51,454.00 L 523.88,438.86 L 528.86,421.48 L 519.02,398.84 L 527.27,370.89 Z M 587.82,469.27 L 585.67,467.78 L 586.64,467.51 L 587.82,469.27 Z M 509.54,158.88 L 504.93,154.05 L 506.47,152.60 L 510.72,155.38 L 509.54,158.88 Z M 503.85,154.61 L 503.57,155.78 L 500.01,153.26 L 500.52,150.63 L 503.85,154.61 Z M 527.10,149.11 L 526.82,151.05 L 524.00,154.88 L 527.10,149.11 Z M 535.39,148.62 L 533.50,150.38 L 534.21,148.74 L 535.39,148.62 Z M 525.66,150.88 L 521.62,151.85 L 526.39,146.63 L 525.66,150.88 Z M 528.01,148.72 L 527.31,148.62 L 528.52,144.86 L 528.01,148.72 Z M 524.24,144.61 L 520.85,145.94 L 523.71,138.06 L 528.04,140.38 L 524.24,144.61 Z M 536.23,135.40 L 532.57,136.90 L 535.08,135.12 L 536.23,135.40 Z M 542.50,133.39 L 537.06,135.40 L 538.02,133.89 L 542.50,133.39 Z M 591.04,455.76 L 587.98,453.71 L 589.95,453.22 L 591.04,455.76 Z M 521.11,155.48 L 519.75,153.84 L 520.31,154.33 L 521.11,155.48 Z M 520.67,153.27 L 519.46,152.36 L 519.69,152.10 L 520.67,153.27 Z M 537.59,146.89 L 536.25,148.53 L 536.21,147.89 L 537.59,146.89 Z" fill="#C8D8E8" stroke="#8BAABB" stroke-width="0.8"/>
<path d="M 355.31,115.26 L 357.37,124.13 L 360.89,123.29 L 362.78,117.64 L 364.18,122.43 L 367.66,121.24 L 368.57,127.14 L 362.59,138.82 L 373.97,153.39 L 384.71,154.82 L 392.88,160.62 L 396.65,153.72 L 407.28,149.52 L 425.38,160.99 L 416.54,168.52 L 427.66,172.12 L 426.83,176.80 L 435.52,178.16 L 436.96,184.71 L 431.11,187.90 L 431.96,192.17 L 425.35,198.86 L 412.01,195.26 L 404.12,196.18 L 407.20,203.37 L 398.84,210.06 L 409.20,214.33 L 428.68,228.42 L 442.61,231.99 L 444.57,235.03 L 441.47,240.88 L 444.46,246.26 L 451.36,251.93 L 454.86,250.84 L 463.74,269.33 L 479.74,284.50 L 483.18,283.50 L 487.57,294.04 L 491.48,294.27 L 492.04,306.30 L 496.54,314.13 L 499.03,314.96 L 502.64,311.01 L 506.44,319.13 L 511.69,320.57 L 518.29,327.98 L 523.03,327.81 L 520.94,333.27 L 514.39,335.45 L 513.09,338.58 L 530.93,356.98 L 528.34,364.65 L 523.37,365.84 L 527.27,370.89 L 522.31,383.40 L 517.89,381.40 L 511.43,388.35 L 508.89,387.35 L 502.26,392.02 L 491.07,381.69 L 486.96,386.58 L 481.29,385.33 L 479.32,389.74 L 472.27,390.28 L 478.50,401.26 L 475.72,406.25 L 469.85,406.03 L 464.46,400.04 L 457.16,397.22 L 451.31,399.42 L 447.60,396.56 L 445.09,390.61 L 453.11,387.60 L 456.28,382.65 L 455.64,374.55 L 459.24,367.10 L 454.07,361.89 L 458.23,356.83 L 455.24,353.91 L 459.63,350.76 L 460.89,341.91 L 452.97,337.62 L 451.19,333.26 L 453.32,329.96 L 440.72,325.91 L 439.24,320.24 L 430.58,311.69 L 429.72,293.79 L 432.35,280.29 L 419.73,269.61 L 403.24,245.39 L 399.72,247.11 L 380.09,241.92 L 377.57,244.47 L 379.69,246.95 L 375.29,248.33 L 370.78,257.78 L 364.37,258.46 L 358.49,264.36 L 355.46,263.24 L 355.61,259.07 L 337.57,249.64 L 331.54,256.08 L 327.59,254.75 L 325.47,260.64 L 313.66,267.30 L 304.81,277.05 L 296.28,272.97 L 300.26,261.63 L 305.95,255.49 L 305.61,245.67 L 301.28,241.85 L 308.36,233.44 L 308.02,225.56 L 311.53,220.24 L 306.20,207.28 L 309.05,201.05 L 296.07,198.63 L 291.68,203.41 L 282.03,201.86 L 278.74,193.82 L 284.53,178.43 L 277.53,170.34 L 273.93,170.96 L 270.89,175.83 L 269.07,171.35 L 275.11,156.78 L 288.19,152.60 L 283.54,151.52 L 290.72,136.75 L 295.08,136.64 L 305.73,127.96 L 309.22,141.57 L 318.15,139.26 L 326.77,142.62 L 328.75,139.56 L 325.00,135.78 L 328.06,125.30 L 318.08,102.72 L 324.92,93.75 L 329.40,97.69 L 334.67,95.36 L 355.31,115.26 Z" fill="#4A90D9" stroke="#1a5fa8" stroke-width="1.2"/>
<path d="M 425.56,462.28 L 421.26,457.48 L 411.44,454.93 L 407.28,446.04 L 404.90,447.55 L 398.99,444.57 L 393.86,430.14 L 404.48,433.10 L 412.38,448.93 L 419.87,449.53 L 419.56,456.36 L 422.26,455.52 L 425.56,462.28 Z" fill="#A8C8E8" stroke="none"/>
<path d="M 355.82,305.08 L 353.90,309.45 L 354.85,303.45 L 347.97,300.96 L 355.73,299.15 L 355.82,305.08 Z" fill="#A8C8E8" stroke="none"/>
<path d="M 368.11,237.81 L 355.85,240.50 L 351.61,229.53 L 355.30,233.65 L 356.90,232.07 L 356.93,235.16 L 361.88,231.44 L 359.78,235.16 L 368.11,237.81 Z" fill="#A8C8E8" stroke="none"/>
<path d="M 235.31,388.87 L 230.76,383.10 L 230.22,374.83 L 234.13,369.52 L 232.35,365.18 L 236.40,368.76 L 232.71,373.27 L 233.43,380.22 L 237.71,381.83 L 235.31,388.87 Z" fill="#A8C8E8" stroke="none"/>
<path d="M 227.07,279.36 L 229.85,285.90 L 229.36,286.98 L 225.47,281.42 L 227.07,279.36 Z" fill="#A8C8E8" stroke="none"/>
<path d="M 285.58,265.40 L 278.02,263.96 L 283.69,256.38 L 287.04,256.02 L 283.04,259.96 L 285.58,265.40 Z" fill="#A8C8E8" stroke="none"/>
</svg>