<svg xmlns="http://www.w3.org/2000/svg" width="800" height="500" viewBox="0 0 800 500">
<rect width="800" height="500" fill="#A8C8E8"/>
<path d="M 297.49,472.55 L 316.20,460.13 L 361.90,484.80 L 361.87,500.00 L 288.75,500.00 L 297.49,472.55 Z" fill="#E8E0D0" stroke="#B8B0A0" stroke-width="0.5"/>
<path d="M 405.32,433.47 L 427.44,464.09 L 523.47,496.00 L 607.53,441.53 L 607.53,500.00 L 361.20,500.00 L 368.49,438.37 L 405.32,433.47 Z" fill="#E8E0D0" stroke="#B8B0A0" stroke-width="0.5"/>
<path d="M 282.34,417.71 L 297.28,410.80 L 302.06,374.98 L 351.42,375.01 L 360.42,344.76 L 367.47,351.15 L 395.65,325.12 L 388.84,346.06 L 404.33,397.27 L 387.41,428.61 L 361.85,444.78 L 361.90,484.80 L 313.88,460.27 L 294.94,477.09 L 288.13,500.00 L 263.68,500.00 L 282.34,417.71 Z" fill="#C8D8E8" stroke="#8BAABB" stroke-width="0.8"/>
<path d="M 404.33,397.27 L 388.22,336.42 L 423.42,299.95 L 408.68,288.62 L 412.16,277.85 L 436.79,255.76 L 465.22,259.95 L 456.28,240.77 L 497.21,201.31 L 486.97,166.33 L 460.34,152.09 L 475.95,134.08 L 458.92,124.99 L 452.78,134.41 L 414.95,130.88 L 401.58,88.01 L 413.98,45.24 L 408.34,10.91 L 397.57,0.00 L 607.53,0.00 L 607.53,441.86 L 525.13,495.42 L 469.16,485.65 L 387.41,428.61 L 404.33,397.27 Z" fill="#C8D8E8" stroke="#8BAABB" stroke-width="0.8"/>
<path d="M 350.17,247.72 L 372.27,232.51 L 375.43,183.77 L 416.67,148.25 L 414.95,130.88 L 452.78,134.41 L 458.92,124.99 L 475.95,134.08 L 460.34,152.09 L 486.97,166.33 L 497.21,201.31 L 456.28,240.77 L 466.79,257.88 L 425.39,261.10 L 408.68,288.62 L 423.42,299.95 L 367.47,351.15 L 360.42,344.76 L 351.42,375.01 L 302.79,374.76 L 350.17,247.72 Z" fill="#4A90D9" stroke="#1a5fa8" stroke-width="1.2"/>
<path d="M 371.39,427.38 L 363.98,432.39 L 357.07,411.79 L 372.12,412.11 L 371.39,427.38 Z" fill="#A8C8E8" stroke="none"/>
</svg>