<svg xmlns="http://www.w3.org/2000/svg" width="800" height="500" viewBox="0 0 800 500">
<rect width="800" height="500" fill="#A8C8E8"/>
<path d="M 202.42,472.55 L 238.49,460.13 L 326.57,484.80 L 326.51,500.00 L 185.58,500.00 L 202.42,472.55 Z" fill="#E8E0D0" stroke="#B8B0A0" stroke-width="0.5"/>
<path d="M 410.26,433.47 L 452.90,464.09 L 637.98,496.00 L 800.00,441.53 L 800.00,500.00 L 325.22,500.00 L 339.27,438.37 L 410.26,433.47 Z" fill="#E8E0D0" stroke="#B8B0A0" stroke-width="0.5"/>
<path d="M 173.21,417.71 L 202.02,410.80 L 211.24,374.98 L 306.37,375.01 L 323.71,344.76 L 337.30,351.15 L 391.61,325.12 L 378.48,346.06 L 408.35,397.27 L 375.73,428.61 L 326.47,444.78 L 326.57,484.80 L 234.02,460.27 L 197.51,477.09 L 184.38,500.00 L 137.25,500.00 L 173.21,417.71 Z" fill="#C8D8E8" stroke="#8BAABB" stroke-width="0.8"/>
<path d="M 408.35,397.27 L 377.29,336.42 L 445.14,299.95 L 416.72,288.62 L 423.44,277.85 L 470.91,255.76 L 525.71,259.95 L 508.47,240.77 L 587.36,201.31 L 567.62,166.33 L 516.30,152.09 L 546.38,134.08 L 513.56,124.99 L 501.73,134.41 L 428.81,130.88 L 403.05,88.01 L 426.94,45.24 L 416.07,10.91 L 395.32,0.00 L 800.00,0.00 L 800.00,441.86 L 641.18,495.42 L 533.30,485.65 L 375.73,428.61 L 408.35,397.27 Z" fill="#C8D8E8" stroke="#8BAABB" stroke-width="0.8"/>
<path d="M 303.95,247.72 L 346.55,232.51 L 352.64,183.77 L 432.12,148.25 L 428.81,130.88 L 501.73,134.41 L 513.56,124.99 L 546.38,134.08 L 516.30,152.09 L 567.62,166.33 L 587.36,201.31 L 508.47,240.77 L 528.73,257.88 L 448.94,261.10 L 416.72,288.62 L 445.14,299.95 L 337.30,351.15 L 323.71,344.76 L 306.37,375.01 L 212.64,374.76 L 303.95,247.72 Z" fill="#4A90D9" stroke="#1a5fa8" stroke-width="1.2"/>
<path d="M 344.86,427.38 L 330.58,432.39 L 317.26,411.79 L 346.26,412.11 L 344.86,427.38 Z" fill="#A8C8E8" stroke="none"/>
</svg>