<svg xmlns="http://www.w3.org/2000/svg" width="800" height="500" viewBox="0 0 800 500">
<rect width="800" height="500" fill="#A8C8E8"/>
<path d="M 428.69,172.68 L 429.21,162.08 L 378.95,163.53 L 369.87,155.73 L 397.34,148.17 L 356.45,132.24 L 341.47,104.18 L 426.51,115.00 L 411.97,132.32 L 443.74,164.26 L 428.69,172.68 Z" fill="#E8E0D0" stroke="#B8B0A0" stroke-width="0.5"/>
<path d="M 272.28,480.14 L 289.33,466.18 L 290.94,468.73 L 272.28,480.14 Z" fill="#E8E0D0" stroke="#B8B0A0" stroke-width="0.5"/>
<path d="M 335.73,396.64 L 327.04,394.50 L 345.97,384.70 L 335.73,396.64 Z M 326.50,358.97 L 349.56,333.26 L 365.36,344.53 L 354.50,369.88 L 326.50,358.97 Z M 289.68,456.47 L 282.36,457.37 L 282.45,454.09 L 289.68,456.47 Z M 314.25,439.66 L 308.07,440.12 L 312.50,435.32 L 314.25,439.66 Z M 350.55,410.90 L 352.60,411.17 L 349.44,415.14 L 350.55,410.90 Z" fill="#E8E0D0" stroke="#B8B0A0" stroke-width="0.5"/>
<path d="M 769.13,383.74 L 740.95,378.01 L 735.06,342.12 L 789.61,367.64 L 769.13,383.74 Z" fill="#E8E0D0" stroke="#B8B0A0" stroke-width="0.5"/>
<path d="M 276.23,0.00 L 327.15,0.00 L 331.92,6.36 L 332.17,35.61 L 305.62,48.67 L 276.23,0.00 Z" fill="#E8E0D0" stroke="#B8B0A0" stroke-width="0.5"/>
<path d="M 423.29,262.51 L 407.57,281.03 L 376.71,255.23 L 412.97,218.97 L 423.29,262.51 Z" fill="#4A90D9" stroke="#1a5fa8" stroke-width="1.2"/>
</svg>