<svg xmlns="http://www.w3.org/2000/svg" width="800" height="500" viewBox="0 0 800 500">
<rect width="800" height="500" fill="#A8C8E8"/>
<path d="M 417.41,172.68 L 417.72,162.08 L 387.23,163.53 L 381.72,155.73 L 398.39,148.17 L 373.58,132.24 L 364.49,104.18 L 416.09,115.00 L 407.26,132.32 L 426.53,164.26 L 417.41,172.68 Z" fill="#E8E0D0" stroke="#B8B0A0" stroke-width="0.5"/>
<path d="M 322.52,480.14 L 332.86,466.18 L 333.83,468.73 L 322.52,480.14 Z" fill="#E8E0D0" stroke="#B8B0A0" stroke-width="0.5"/>
<path d="M 361.01,396.64 L 355.74,394.50 L 367.22,384.70 L 361.01,396.64 Z M 355.41,358.97 L 369.40,333.26 L 378.98,344.53 L 372.40,369.88 L 355.41,358.97 Z M 333.08,456.47 L 328.63,457.37 L 328.69,454.09 L 333.08,456.47 Z M 347.98,439.66 L 344.23,440.12 L 346.92,435.32 L 347.98,439.66 Z M 370.00,410.90 L 371.24,411.17 L 369.33,415.14 L 370.00,410.90 Z" fill="#E8E0D0" stroke="#B8B0A0" stroke-width="0.5"/>
<path d="M 623.93,383.74 L 606.84,378.01 L 603.27,342.12 L 636.36,367.64 L 623.93,383.74 Z" fill="#E8E0D0" stroke="#B8B0A0" stroke-width="0.5"/>
<path d="M 324.91,0.00 L 355.81,0.00 L 358.70,6.36 L 358.85,35.61 L 342.75,48.67 L 324.91,0.00 Z" fill="#E8E0D0" stroke="#B8B0A0" stroke-width="0.5"/>
<path d="M 414.13,262.51 L 404.59,281.03 L 385.87,255.23 L 407.87,218.97 L 414.13,262.51 Z" fill="#4A90D9" stroke="#1a5fa8" stroke-width="1.2"/>
</svg>