<svg xmlns="http://www.w3.org/2000/svg" width="800" height="500" viewBox="0 0 800 500">
<rect width="800" height="500" fill="#A8C8E8"/>
<path d="M 230.01,3.89 L 230.01,0.00 L 233.02,0.00 L 230.01,3.89 Z" fill="#E8E0D0" stroke="#B8B0A0" stroke-width="0.5"/>
<path d="M 552.26,213.95 L 539.42,192.06 L 493.80,184.81 L 493.70,213.09 L 465.18,232.61 L 470.43,216.77 L 457.00,218.87 L 442.45,190.48 L 425.05,183.03 L 407.04,193.43 L 361.44,170.22 L 329.38,172.45 L 295.02,149.79 L 277.28,171.00 L 300.23,172.43 L 296.71,182.40 L 260.46,177.79 L 240.20,187.39 L 230.01,187.24 L 230.01,3.89 L 233.02,0.00 L 569.99,0.00 L 569.99,213.61 L 552.26,213.95 Z" fill="#E8E0D0" stroke="#B8B0A0" stroke-width="0.5"/>
<path d="M 247.46,411.39 L 244.99,388.76 L 278.12,360.57 L 282.26,394.45 L 321.65,417.20 L 317.29,433.87 L 328.24,439.50 L 331.33,458.35 L 342.21,459.24 L 348.66,447.01 L 342.18,425.08 L 365.84,395.10 L 371.94,353.51 L 388.13,353.36 L 398.95,384.56 L 439.53,373.23 L 456.24,396.85 L 465.08,390.22 L 457.94,379.82 L 463.15,368.27 L 450.99,361.50 L 451.67,347.95 L 468.61,333.28 L 495.37,347.20 L 496.97,333.79 L 487.42,326.16 L 496.41,296.16 L 554.11,311.05 L 569.99,285.44 L 569.99,500.00 L 230.01,500.00 L 230.01,431.36 L 247.46,411.39 Z" fill="#E8E0D0" stroke="#B8B0A0" stroke-width="0.5"/>
<path d="M 554.11,311.05 L 499.86,298.98 L 487.87,275.56 L 460.02,298.86 L 434.93,286.31 L 433.11,272.56 L 403.70,266.09 L 397.32,233.91 L 410.96,210.96 L 400.12,191.45 L 425.05,183.03 L 450.60,198.73 L 457.00,218.87 L 470.43,216.77 L 465.18,232.61 L 493.70,213.09 L 493.80,184.81 L 539.42,192.06 L 552.26,213.95 L 569.99,213.61 L 569.99,285.44 L 554.11,311.05 Z" fill="#C8D8E8" stroke="#8BAABB" stroke-width="0.8"/>
<path d="M 487.42,326.16 L 496.97,333.79 L 495.37,347.20 L 468.61,333.28 L 451.67,347.95 L 450.99,361.50 L 463.15,368.27 L 460.72,395.11 L 452.73,396.77 L 439.53,373.23 L 398.95,384.56 L 388.13,353.36 L 369.91,355.42 L 365.84,395.10 L 342.18,425.08 L 348.66,447.01 L 342.21,459.24 L 331.33,458.35 L 328.24,439.50 L 317.29,433.87 L 321.65,417.20 L 282.26,394.45 L 278.12,360.57 L 244.99,388.76 L 247.46,411.39 L 230.01,430.91 L 230.01,187.82 L 295.28,182.88 L 300.23,172.43 L 277.28,171.00 L 295.02,149.79 L 329.38,172.45 L 370.98,173.40 L 411.05,204.33 L 393.73,242.16 L 392.63,264.99 L 433.11,272.56 L 434.93,286.31 L 460.02,298.86 L 488.46,275.68 L 496.41,296.16 L 487.42,326.16 Z" fill="#C8D8E8" stroke="#8BAABB" stroke-width="0.8"/>
<path d="M 407.37,258.29 L 403.70,266.09 L 392.63,264.99 L 397.32,233.91 L 407.37,258.29 Z" fill="#4A90D9" stroke="#1a5fa8" stroke-width="1.2"/>
<path d="M 394.50,198.71 L 345.36,146.73 L 376.20,168.44 L 418.30,189.55 L 394.50,198.71 Z" fill="#A8C8E8" stroke="none"/>
<path d="M 355.50,170.19 L 343.64,168.86 L 336.08,172.72 L 329.32,172.40 L 342.46,164.95 L 336.58,158.37 L 355.50,170.19 Z" fill="#A8C8E8" stroke="none"/>
<path d="M 300.30,445.51 L 298.83,473.43 L 288.07,440.96 L 301.11,438.25 L 325.60,404.81 L 300.30,445.51 Z" fill="#A8C8E8" stroke="none"/>
<path d="M 523.72,485.57 L 523.24,500.00 L 508.22,500.00 L 504.02,492.47 L 539.05,447.54 L 523.72,485.57 Z" fill="#A8C8E8" stroke="none"/>
</svg>