<svg xmlns="http://www.w3.org/2000/svg" width="800" height="500" viewBox="0 0 800 500">
<rect width="800" height="500" fill="#A8C8E8"/>
<path d="M 0.00,3.89 L 0.00,0.00 L 7.08,0.00 L 0.00,3.89 Z" fill="#E8E0D0" stroke="#B8B0A0" stroke-width="0.5"/>
<path d="M 758.27,213.95 L 728.07,192.06 L 620.71,184.81 L 620.48,213.09 L 553.38,232.61 L 565.73,216.77 L 534.13,218.87 L 499.89,190.48 L 458.94,183.03 L 416.56,193.43 L 309.26,170.22 L 233.83,172.45 L 152.96,149.79 L 111.23,171.00 L 165.23,172.43 L 156.94,182.40 L 71.65,177.79 L 23.98,187.39 L 0.00,187.24 L 0.00,3.89 L 7.08,0.00 L 800.00,0.00 L 800.00,213.61 L 758.27,213.95 Z" fill="#E8E0D0" stroke="#B8B0A0" stroke-width="0.5"/>
<path d="M 41.06,411.39 L 35.24,388.76 L 113.20,360.57 L 122.94,394.45 L 215.64,417.20 L 205.39,433.87 L 231.15,439.50 L 238.41,458.35 L 264.01,459.24 L 279.18,447.01 L 263.94,425.08 L 319.62,395.10 L 333.98,353.51 L 372.07,353.36 L 397.52,384.56 L 493.02,373.23 L 532.34,396.85 L 553.14,390.22 L 536.35,379.82 L 548.60,368.27 L 519.99,361.50 L 521.59,347.95 L 561.44,333.28 L 624.41,347.20 L 628.18,333.79 L 605.70,326.16 L 626.86,296.16 L 762.64,311.05 L 800.00,285.44 L 800.00,500.00 L 0.00,500.00 L 0.00,431.36 L 41.06,411.39 Z" fill="#E8E0D0" stroke="#B8B0A0" stroke-width="0.5"/>
<path d="M 762.64,311.05 L 634.97,298.98 L 606.76,275.56 L 541.23,298.86 L 482.19,286.31 L 477.90,272.56 L 408.71,266.09 L 393.70,233.91 L 425.79,210.96 L 400.28,191.45 L 458.94,183.03 L 519.06,198.73 L 534.13,218.87 L 565.73,216.77 L 553.38,232.61 L 620.48,213.09 L 620.71,184.81 L 728.07,192.06 L 758.27,213.95 L 800.00,213.61 L 800.00,285.44 L 762.64,311.05 Z" fill="#C8D8E8" stroke="#8BAABB" stroke-width="0.8"/>
<path d="M 605.70,326.16 L 628.18,333.79 L 624.41,347.20 L 561.44,333.28 L 521.59,347.95 L 519.99,361.50 L 548.60,368.27 L 542.89,395.11 L 524.08,396.77 L 493.02,373.23 L 397.52,384.56 L 372.07,353.36 L 329.20,355.42 L 319.62,395.10 L 263.94,425.08 L 279.18,447.01 L 264.01,459.24 L 238.41,458.35 L 231.15,439.50 L 205.39,433.87 L 215.64,417.20 L 122.94,394.45 L 113.20,360.57 L 35.24,388.76 L 41.06,411.39 L 0.00,430.91 L 0.00,187.82 L 153.58,182.88 L 165.23,172.43 L 111.23,171.00 L 152.96,149.79 L 233.83,172.45 L 331.71,173.40 L 425.99,204.33 L 385.25,242.16 L 382.66,264.99 L 477.90,272.56 L 482.19,286.31 L 541.23,298.86 L 608.15,275.68 L 626.86,296.16 L 605.70,326.16 Z" fill="#C8D8E8" stroke="#8BAABB" stroke-width="0.8"/>
<path d="M 417.34,258.29 L 408.71,266.09 L 382.66,264.99 L 393.70,233.91 L 417.34,258.29 Z" fill="#4A90D9" stroke="#1a5fa8" stroke-width="1.2"/>
<path d="M 387.05,198.71 L 271.44,146.73 L 344.00,168.44 L 443.05,189.55 L 387.05,198.71 Z" fill="#A8C8E8" stroke="none"/>
<path d="M 295.28,170.19 L 267.39,168.86 L 249.58,172.72 L 233.69,172.40 L 264.59,164.95 L 250.76,158.37 L 295.28,170.19 Z" fill="#A8C8E8" stroke="none"/>
<path d="M 165.39,445.51 L 161.93,473.43 L 136.62,440.96 L 167.31,438.25 L 224.93,404.81 L 165.39,445.51 Z" fill="#A8C8E8" stroke="none"/>
<path d="M 691.13,485.57 L 689.99,500.00 L 654.64,500.00 L 644.77,492.47 L 727.19,447.54 L 691.13,485.57 Z" fill="#A8C8E8" stroke="none"/>
</svg>