<svg xmlns="http://www.w3.org/2000/svg" width="800" height="500" viewBox="0 0 800 500">
<rect width="800" height="500" fill="#A8C8E8"/>
<path d="M 194.65,56.32 L 126.99,55.89 L 133.81,52.28 L 65.99,59.56 L 64.39,76.94 L 0.00,112.04 L 0.00,0.00 L 191.07,0.00 L 194.65,56.32 Z M 18.31,135.87 L 78.37,134.59 L 103.75,147.16 L 0.00,137.70 L 0.00,128.85 L 18.31,135.87 Z" fill="#E8E0D0" stroke="#B8B0A0" stroke-width="0.5"/>
<path d="M 627.37,351.26 L 525.74,383.69 L 360.20,406.25 L 272.94,398.04 L 248.16,389.25 L 196.08,335.50 L 158.59,222.43 L 177.03,211.94 L 166.52,238.92 L 184.17,241.05 L 183.36,220.74 L 213.81,188.52 L 207.92,164.81 L 237.79,157.79 L 250.79,144.44 L 238.91,128.53 L 271.39,121.97 L 238.91,112.13 L 291.65,123.63 L 323.16,119.83 L 365.59,124.16 L 217.50,104.97 L 206.60,98.36 L 220.36,94.61 L 254.55,94.31 L 256.31,97.64 L 327.09,113.77 L 258.24,95.92 L 282.61,93.75 L 412.75,138.23 L 415.14,148.54 L 443.07,158.46 L 424.35,156.57 L 433.27,164.38 L 447.62,161.49 L 504.71,187.83 L 508.79,196.26 L 500.33,194.11 L 482.67,199.83 L 534.94,201.36 L 553.60,229.72 L 543.47,224.61 L 541.82,229.04 L 578.91,240.03 L 613.28,263.05 L 593.77,259.18 L 586.74,261.90 L 621.37,270.20 L 626.33,283.46 L 645.43,287.05 L 650.00,312.69 L 627.37,351.26 Z M 615.98,260.80 L 634.29,272.12 L 634.62,281.68 L 615.98,260.80 Z M 191.25,153.71 L 206.60,162.03 L 181.82,155.97 L 162.50,153.83 L 191.25,153.71 Z M 151.65,120.55 L 150.00,115.41 L 163.65,117.90 L 151.65,120.55 Z M 191.03,103.88 L 200.43,98.95 L 221.97,109.89 L 191.03,103.88 Z" fill="#4A90D9" stroke="#1a5fa8" stroke-width="1.2"/>
<path d="M 469.27,251.17 L 450.68,255.88 L 451.34,253.48 L 484.53,240.02 L 469.27,251.17 Z" fill="#A8C8E8" stroke="none"/>
<path d="M 408.99,301.40 L 401.29,299.78 L 405.74,303.10 L 399.57,305.84 L 374.94,295.39 L 409.66,297.82 L 408.99,301.40 Z" fill="#A8C8E8" stroke="none"/>
<path d="M 575.74,302.84 L 568.90,309.42 L 564.79,305.53 L 558.01,310.48 L 548.12,310.76 L 558.15,305.60 L 538.50,304.44 L 575.74,302.84 Z" fill="#A8C8E8" stroke="none"/>
</svg>