<svg xmlns="http://www.w3.org/2000/svg" width="800" height="500" viewBox="0 0 800 500">
<rect width="800" height="500" fill="#A8C8E8"/>
<path d="M 327.76,56.32 L 303.96,55.89 L 306.36,52.28 L 282.50,59.56 L 281.94,76.94 L 259.28,112.04 L 259.28,0.00 L 326.50,0.00 L 327.76,56.32 Z M 265.73,135.87 L 286.86,134.59 L 295.78,147.16 L 259.28,137.70 L 259.28,128.85 L 265.73,135.87 Z" fill="#E8E0D0" stroke="#B8B0A0" stroke-width="0.5"/>
<path d="M 479.99,351.26 L 444.24,383.69 L 386.00,406.25 L 355.30,398.04 L 346.58,389.25 L 328.26,335.50 L 315.07,222.43 L 321.56,211.94 L 317.86,238.92 L 324.07,241.05 L 323.79,220.74 L 334.50,188.52 L 332.43,164.81 L 342.94,157.79 L 347.51,144.44 L 343.33,128.53 L 354.76,121.97 L 343.33,112.13 L 361.88,123.63 L 372.97,119.83 L 387.90,124.16 L 335.80,104.97 L 331.96,98.36 L 336.80,94.61 L 348.83,94.31 L 349.45,97.64 L 374.35,113.77 L 350.13,95.92 L 358.70,93.75 L 404.49,138.23 L 405.33,148.54 L 415.15,158.46 L 408.57,156.57 L 411.70,164.38 L 416.75,161.49 L 436.84,187.83 L 438.27,196.26 L 435.29,194.11 L 429.08,199.83 L 447.47,201.36 L 454.04,229.72 L 450.47,224.61 L 449.89,229.04 L 462.94,240.03 L 475.03,263.05 L 468.17,259.18 L 465.69,261.90 L 477.88,270.20 L 479.62,283.46 L 486.34,287.05 L 487.95,312.69 L 479.99,351.26 Z M 475.98,260.80 L 482.42,272.12 L 482.54,281.68 L 475.98,260.80 Z M 326.57,153.71 L 331.96,162.03 L 323.25,155.97 L 316.45,153.83 L 326.57,153.71 Z M 312.63,120.55 L 312.05,115.41 L 316.86,117.90 L 312.63,120.55 Z M 326.49,103.88 L 329.79,98.95 L 337.37,109.89 L 326.49,103.88 Z" fill="#4A90D9" stroke="#1a5fa8" stroke-width="1.2"/>
<path d="M 424.37,251.17 L 417.83,255.88 L 418.06,253.48 L 429.74,240.02 L 424.37,251.17 Z" fill="#A8C8E8" stroke="none"/>
<path d="M 403.16,301.40 L 400.45,299.78 L 402.02,303.10 L 399.85,305.84 L 391.18,295.39 L 403.40,297.82 L 403.16,301.40 Z" fill="#A8C8E8" stroke="none"/>
<path d="M 461.82,302.84 L 459.42,309.42 L 457.97,305.53 L 455.59,310.48 L 452.11,310.76 L 455.63,305.60 L 448.72,304.44 L 461.82,302.84 Z" fill="#A8C8E8" stroke="none"/>
</svg>