<svg xmlns="http://www.w3.org/2000/svg" width="800" height="500" viewBox="0 0 800 500">
<rect width="800" height="500" fill="#A8C8E8"/>
<path d="M 556.05,21.91 L 568.72,32.43 L 591.80,30.89 L 583.95,47.67 L 606.31,55.64 L 583.67,61.57 L 579.13,75.21 L 612.43,89.16 L 616.63,107.72 L 596.89,100.07 L 591.78,104.30 L 578.94,98.65 L 544.88,101.87 L 542.79,117.28 L 574.93,121.88 L 579.90,134.41 L 566.88,133.37 L 550.83,166.99 L 524.58,164.27 L 515.94,168.35 L 505.91,158.68 L 491.33,158.23 L 470.37,189.50 L 437.63,195.65 L 424.30,181.46 L 392.94,181.85 L 409.48,154.70 L 388.11,121.77 L 391.90,110.05 L 370.11,106.48 L 373.38,101.04 L 364.62,103.20 L 358.32,93.75 L 323.07,104.20 L 312.51,96.62 L 284.77,98.81 L 262.79,112.39 L 240.65,114.22 L 271.66,85.63 L 257.25,75.02 L 257.93,57.30 L 239.30,55.09 L 248.01,38.57 L 228.85,32.21 L 195.75,0.00 L 554.62,0.00 L 556.05,21.91 Z M 0.00,27.09 L 0.00,0.00 L 24.42,0.00 L 0.00,27.09 Z" fill="#C8D8E8" stroke="#8BAABB" stroke-width="0.8"/>
<path d="M 709.54,383.30 L 641.80,406.90 L 627.48,404.58 L 627.24,352.87 L 650.00,334.67 L 643.05,295.42 L 637.20,298.38 L 601.44,287.10 L 585.81,263.82 L 524.95,258.75 L 524.15,250.50 L 499.63,247.41 L 532.29,227.92 L 540.26,210.23 L 515.94,168.35 L 524.58,164.27 L 547.32,169.36 L 566.88,133.37 L 579.90,134.41 L 574.93,121.88 L 542.79,117.28 L 544.20,102.40 L 578.94,98.65 L 616.63,107.72 L 612.43,89.16 L 579.13,75.21 L 583.67,61.57 L 606.31,55.64 L 583.95,47.67 L 591.80,30.89 L 568.72,32.43 L 556.05,21.91 L 554.62,0.00 L 800.00,0.00 L 800.00,364.10 L 709.54,383.30 Z" fill="#C8D8E8" stroke="#8BAABB" stroke-width="0.8"/>
<path d="M 291.35,121.95 L 255.72,133.18 L 255.35,152.68 L 169.45,193.91 L 150.00,215.75 L 105.54,198.71 L 23.92,180.83 L 40.70,180.83 L 26.05,176.73 L 33.50,170.16 L 63.42,165.03 L 29.17,168.05 L 19.35,161.26 L 30.61,152.31 L 12.26,159.01 L 0.00,154.52 L 0.00,27.09 L 24.42,0.00 L 195.40,0.00 L 222.17,19.12 L 228.85,32.21 L 248.01,38.57 L 239.30,55.09 L 257.93,57.30 L 257.25,75.02 L 271.66,85.63 L 240.65,114.22 L 296.09,99.57 L 291.35,121.95 Z M 18.65,180.84 L 11.82,174.24 L 0.00,172.23 L 0.00,163.45 L 9.88,162.28 L 25.59,167.60 L 18.65,180.84 Z" fill="#C8D8E8" stroke="#8BAABB" stroke-width="0.8"/>
<path d="M 169.45,193.91 L 255.35,152.68 L 255.72,133.18 L 291.35,121.95 L 296.09,99.57 L 319.48,97.68 L 323.07,104.20 L 358.32,93.75 L 364.62,103.20 L 373.38,101.04 L 370.11,106.48 L 391.90,110.05 L 388.11,121.77 L 409.48,154.70 L 392.94,181.85 L 424.30,181.46 L 437.63,195.65 L 463.72,191.20 L 491.33,158.23 L 505.91,158.68 L 523.26,172.51 L 540.57,208.44 L 534.04,226.30 L 499.63,247.41 L 524.15,250.50 L 524.95,258.75 L 585.81,263.82 L 601.44,287.10 L 637.20,298.38 L 643.05,295.42 L 650.00,334.67 L 627.24,352.87 L 630.45,364.61 L 623.60,365.83 L 631.53,406.25 L 543.85,389.39 L 440.13,355.87 L 289.81,273.89 L 234.16,262.25 L 237.70,253.99 L 165.05,231.95 L 150.00,215.75 L 169.45,193.91 Z" fill="#4A90D9" stroke="#1a5fa8" stroke-width="1.2"/>
<path d="M 692.23,265.23 L 671.11,266.39 L 673.47,261.65 L 643.72,251.71 L 636.88,241.31 L 679.02,260.89 L 688.02,249.70 L 692.99,255.60 L 695.49,245.85 L 682.22,241.07 L 698.25,235.98 L 687.98,219.22 L 692.99,206.72 L 706.34,245.61 L 692.23,265.23 Z" fill="#A8C8E8" stroke="none"/>
</svg>