<svg xmlns="http://www.w3.org/2000/svg" width="800" height="500" viewBox="0 0 800 500">
<rect width="800" height="500" fill="#A8C8E8"/>
<path d="M 778.78,493.04 L 764.60,500.00 L 0.00,500.00 L 0.00,0.00 L 800.00,0.00 L 800.00,472.19 L 778.78,493.04 Z M 485.32,93.75 L 386.84,113.44 L 357.79,139.80 L 303.11,144.31 L 221.51,229.87 L 150.00,257.74 L 227.90,329.00 L 224.78,354.20 L 242.44,354.06 L 302.33,397.50 L 371.19,406.25 L 380.76,376.09 L 403.99,360.37 L 396.22,349.93 L 433.87,329.23 L 518.46,321.04 L 590.08,295.64 L 583.82,270.26 L 650.00,209.23 L 624.50,171.43 L 556.51,144.38 L 485.32,93.75 Z" fill="#C8D8E8" stroke="#8BAABB" stroke-width="0.8"/>
<path d="M 624.50,171.43 L 650.00,209.23 L 583.82,270.26 L 590.08,295.64 L 518.46,321.04 L 433.87,329.23 L 396.22,349.93 L 403.99,360.37 L 380.76,376.09 L 371.19,406.25 L 302.33,397.50 L 242.44,354.06 L 224.78,354.20 L 227.90,329.00 L 150.00,257.74 L 221.51,229.87 L 303.11,144.31 L 357.79,139.80 L 386.84,113.44 L 485.32,93.75 L 556.51,144.38 L 624.50,171.43 Z" fill="#4A90D9" stroke="#1a5fa8" stroke-width="1.2"/>
</svg>