<svg xmlns="http://www.w3.org/2000/svg" width="800" height="500" viewBox="0 0 800 500">
<rect width="800" height="500" fill="#A8C8E8"/>
<path d="M 639.89,493.04 L 630.91,500.00 L 146.67,500.00 L 146.67,0.00 L 653.33,0.00 L 653.33,472.19 L 639.89,493.04 Z M 454.03,93.75 L 391.66,113.44 L 373.27,139.80 L 338.64,144.31 L 286.96,229.87 L 241.67,257.74 L 291.01,329.00 L 289.03,354.20 L 300.21,354.06 L 338.14,397.50 L 381.75,406.25 L 387.82,376.09 L 402.53,360.37 L 397.61,349.93 L 421.45,329.23 L 475.02,321.04 L 520.38,295.64 L 516.41,270.26 L 558.33,209.23 L 542.18,171.43 L 499.12,144.38 L 454.03,93.75 Z" fill="#C8D8E8" stroke="#8BAABB" stroke-width="0.8"/>
<path d="M 542.18,171.43 L 558.33,209.23 L 516.41,270.26 L 520.38,295.64 L 475.02,321.04 L 421.45,329.23 L 397.61,349.93 L 402.53,360.37 L 387.82,376.09 L 381.75,406.25 L 338.14,397.50 L 300.21,354.06 L 289.03,354.20 L 291.01,329.00 L 241.67,257.74 L 286.96,229.87 L 338.64,144.31 L 373.27,139.80 L 391.66,113.44 L 454.03,93.75 L 499.12,144.38 L 542.18,171.43 Z" fill="#4A90D9" stroke="#1a5fa8" stroke-width="1.2"/>
</svg>