<svg xmlns="http://www.w3.org/2000/svg" width="800" height="500" viewBox="0 0 800 500">
<rect width="800" height="500" fill="#A8C8E8"/>
<path d="M 402.64,496.11 L 376.88,439.95 L 367.92,399.84 L 426.12,397.44 L 443.84,406.25 L 480.30,395.43 L 481.59,375.96 L 502.90,376.25 L 514.33,361.01 L 535.86,355.87 L 543.91,364.14 L 540.69,374.71 L 561.71,373.29 L 563.93,363.53 L 556.00,353.17 L 541.76,353.17 L 559.78,322.90 L 563.38,286.08 L 593.66,273.94 L 604.37,253.01 L 633.00,255.37 L 650.00,236.72 L 620.16,230.15 L 634.25,186.02 L 651.88,183.80 L 665.35,169.04 L 717.39,173.03 L 721.84,157.30 L 761.49,128.70 L 778.50,142.65 L 800.00,137.94 L 800.00,500.00 L 402.83,500.00 L 402.64,496.11 Z" fill="#C8D8E8" stroke="#8BAABB" stroke-width="0.8"/>
<path d="M 737.10,6.15 L 725.01,12.92 L 730.84,20.42 L 720.42,44.65 L 744.69,47.59 L 740.60,57.06 L 762.78,80.89 L 770.53,114.77 L 764.72,130.45 L 745.84,134.50 L 721.84,157.30 L 717.39,173.03 L 665.35,169.04 L 651.88,183.80 L 622.80,187.20 L 553.10,130.65 L 503.00,123.68 L 485.80,93.75 L 452.64,115.00 L 423.51,116.39 L 386.73,104.53 L 351.14,102.25 L 331.90,110.68 L 320.18,97.48 L 298.21,105.18 L 249.51,96.83 L 184.30,120.43 L 172.62,137.54 L 160.96,138.99 L 154.15,119.50 L 156.96,84.29 L 163.21,98.58 L 155.75,80.75 L 160.91,46.51 L 188.97,24.50 L 191.89,0.00 L 344.28,0.00 L 348.80,13.50 L 385.75,29.60 L 407.68,23.98 L 438.19,0.00 L 737.62,0.00 L 737.10,6.15 Z" fill="#C8D8E8" stroke="#8BAABB" stroke-width="0.8"/>
<path d="M 38.11,336.57 L 300.93,350.48 L 312.78,343.39 L 364.81,373.47 L 376.88,439.95 L 402.64,496.11 L 402.83,500.00 L 0.00,500.00 L 0.00,344.63 L 38.11,336.57 Z" fill="#C8D8E8" stroke="#8BAABB" stroke-width="0.8"/>
<path d="M 797.81,135.92 L 776.71,142.17 L 764.72,130.45 L 770.53,114.77 L 763.30,82.33 L 740.60,57.06 L 744.69,47.59 L 720.42,44.65 L 730.84,20.42 L 725.01,12.92 L 737.10,6.15 L 737.62,0.00 L 800.00,0.00 L 800.00,138.37 L 797.81,135.92 Z M 44.12,339.02 L 38.11,336.57 L 62.83,310.85 L 69.35,274.47 L 112.38,273.13 L 150.00,235.58 L 155.53,237.08 L 116.51,274.46 L 164.13,282.18 L 177.13,274.88 L 172.03,245.48 L 188.31,234.69 L 245.76,266.04 L 290.92,263.10 L 313.35,290.65 L 299.52,322.73 L 306.79,348.85 L 44.12,339.02 Z" fill="#C8D8E8" stroke="#8BAABB" stroke-width="0.8"/>
<path d="M 620.16,230.15 L 650.00,236.72 L 633.00,255.37 L 604.37,253.01 L 593.66,273.94 L 563.38,286.08 L 559.78,322.90 L 541.76,353.17 L 556.00,353.17 L 563.93,363.53 L 561.71,373.29 L 540.69,374.71 L 543.91,364.14 L 535.86,355.87 L 514.33,361.01 L 502.90,376.25 L 481.59,375.96 L 478.80,396.12 L 443.84,406.25 L 426.12,397.44 L 379.96,404.86 L 367.92,399.84 L 366.93,378.65 L 356.76,365.87 L 301.66,341.21 L 301.14,309.32 L 313.69,292.91 L 289.62,261.85 L 248.04,266.65 L 188.31,234.69 L 179.19,239.73 L 178.29,224.98 L 172.02,227.81 L 175.39,206.53 L 168.95,187.22 L 161.57,173.64 L 160.96,138.99 L 172.62,137.54 L 184.30,120.43 L 249.51,96.83 L 298.21,105.18 L 320.18,97.48 L 331.90,110.68 L 351.14,102.25 L 386.73,104.53 L 423.51,116.39 L 452.64,115.00 L 485.80,93.75 L 503.00,123.68 L 553.10,130.65 L 605.67,179.26 L 632.46,188.59 L 620.16,230.15 Z M 150.00,235.58 L 163.43,209.29 L 163.67,181.76 L 165.46,218.64 L 150.00,235.58 Z" fill="#4A90D9" stroke="#1a5fa8" stroke-width="1.2"/>
<path d="M 210.63,376.21 L 216.79,376.21 L 211.66,366.54 L 225.46,370.45 L 217.37,373.69 L 222.32,378.32 L 218.19,388.70 L 205.89,381.36 L 210.63,376.21 Z" fill="#A8C8E8" stroke="none"/>
<path d="M 44.19,422.36 L 40.38,430.85 L 32.47,439.09 L 39.23,428.91 L 33.02,417.82 L 44.19,422.36 Z" fill="#A8C8E8" stroke="none"/>
<path d="M 204.53,416.65 L 197.28,403.96 L 202.16,400.94 L 204.53,416.65 Z" fill="#A8C8E8" stroke="none"/>
<path d="M 218.47,424.01 L 223.25,431.53 L 208.60,429.01 L 208.75,421.60 L 203.92,431.53 L 204.53,416.65 L 226.71,420.56 L 218.47,424.01 Z" fill="#A8C8E8" stroke="none"/>
<path d="M 238.98,433.19 L 225.44,435.15 L 229.26,430.53 L 238.98,433.19 Z" fill="#A8C8E8" stroke="none"/>
<path d="M 226.13,393.74 L 213.26,405.68 L 221.46,396.00 L 219.61,390.09 L 226.13,393.74 Z" fill="#A8C8E8" stroke="none"/>
<path d="M 338.04,390.47 L 333.74,391.37 L 327.60,390.47 L 338.04,390.47 Z" fill="#A8C8E8" stroke="none"/>
<path d="M 666.39,51.13 L 647.70,60.34 L 653.14,49.76 L 666.39,51.13 Z" fill="#A8C8E8" stroke="none"/>
<path d="M 649.98,292.82 L 640.67,284.47 L 643.60,281.48 L 651.81,284.36 L 649.98,292.82 Z" fill="#A8C8E8" stroke="none"/>
<path d="M 707.59,112.31 L 697.22,107.24 L 702.76,101.70 L 710.50,106.77 L 707.59,112.31 Z" fill="#A8C8E8" stroke="none"/>
<path d="M 431.57,292.85 L 430.22,294.91 L 422.80,296.67 L 430.22,291.56 L 411.08,285.58 L 428.99,288.28 L 431.57,292.85 Z" fill="#A8C8E8" stroke="none"/>
<path d="M 69.79,304.62 L 77.53,312.04 L 105.93,308.33 L 57.71,334.86 L 53.73,325.97 L 69.79,304.62 Z" fill="#A8C8E8" stroke="none"/>
<path d="M 17.31,364.51 L 19.12,358.58 L 5.74,351.85 L 53.73,325.97 L 57.71,334.86 L 17.31,364.51 Z" fill="#A8C8E8" stroke="none"/>
</svg>