<svg xmlns="http://www.w3.org/2000/svg" width="800" height="500" viewBox="0 0 800 500">
<rect width="800" height="500" fill="#A8C8E8"/>
<path d="M 402.17,496.11 L 381.02,439.95 L 373.67,399.84 L 421.44,397.44 L 435.99,406.25 L 465.91,395.43 L 466.98,375.96 L 484.47,376.25 L 493.84,361.01 L 511.52,355.87 L 518.13,364.14 L 515.48,374.71 L 532.73,373.29 L 534.56,363.53 L 528.05,353.17 L 516.36,353.17 L 531.15,322.90 L 534.11,286.08 L 558.97,273.94 L 567.75,253.01 L 591.25,255.37 L 605.21,236.72 L 580.72,230.15 L 592.28,186.02 L 606.75,183.80 L 617.81,169.04 L 660.52,173.03 L 664.18,157.30 L 696.72,128.70 L 710.69,142.65 L 728.33,137.94 L 728.33,500.00 L 402.32,500.00 L 402.17,496.11 Z" fill="#C8D8E8" stroke="#8BAABB" stroke-width="0.8"/>
<path d="M 676.70,6.15 L 666.78,12.92 L 671.56,20.42 L 663.02,44.65 L 682.93,47.59 L 679.57,57.06 L 697.78,80.89 L 704.15,114.77 L 699.37,130.45 L 683.88,134.50 L 664.18,157.30 L 660.52,173.03 L 617.81,169.04 L 606.75,183.80 L 582.88,187.20 L 525.67,130.65 L 484.55,123.68 L 470.43,93.75 L 443.21,115.00 L 419.30,116.39 L 389.11,104.53 L 359.89,102.25 L 344.10,110.68 L 334.48,97.48 L 316.45,105.18 L 276.48,96.83 L 222.94,120.43 L 213.36,137.54 L 203.79,138.99 L 198.20,119.50 L 200.50,84.29 L 205.63,98.58 L 199.51,80.75 L 203.74,46.51 L 226.78,24.50 L 229.18,0.00 L 354.27,0.00 L 357.97,13.50 L 388.30,29.60 L 406.30,23.98 L 431.34,0.00 L 677.13,0.00 L 676.70,6.15 Z" fill="#C8D8E8" stroke="#8BAABB" stroke-width="0.8"/>
<path d="M 102.94,336.57 L 318.68,350.48 L 328.41,343.39 L 371.11,373.47 L 381.02,439.95 L 402.17,496.11 L 402.32,500.00 L 71.67,500.00 L 71.67,344.63 L 102.94,336.57 Z" fill="#C8D8E8" stroke="#8BAABB" stroke-width="0.8"/>
<path d="M 726.54,135.92 L 709.21,142.17 L 699.37,130.45 L 704.15,114.77 L 698.21,82.33 L 679.57,57.06 L 682.93,47.59 L 663.02,44.65 L 671.56,20.42 L 666.78,12.92 L 676.70,6.15 L 677.13,0.00 L 728.33,0.00 L 728.33,138.37 L 726.54,135.92 Z M 107.88,339.02 L 102.94,336.57 L 123.24,310.85 L 128.59,274.47 L 163.91,273.13 L 194.79,235.58 L 199.33,237.08 L 167.30,274.46 L 206.39,282.18 L 217.06,274.88 L 212.87,245.48 L 226.24,234.69 L 273.39,266.04 L 310.46,263.10 L 328.88,290.65 L 317.52,322.73 L 323.49,348.85 L 107.88,339.02 Z" fill="#C8D8E8" stroke="#8BAABB" stroke-width="0.8"/>
<path d="M 580.72,230.15 L 605.21,236.72 L 591.25,255.37 L 567.75,253.01 L 558.97,273.94 L 534.11,286.08 L 531.15,322.90 L 516.36,353.17 L 528.05,353.17 L 534.56,363.53 L 532.73,373.29 L 515.48,374.71 L 518.13,364.14 L 511.52,355.87 L 493.84,361.01 L 484.47,376.25 L 466.98,375.96 L 464.68,396.12 L 435.99,406.25 L 421.44,397.44 L 383.55,404.86 L 373.67,399.84 L 372.85,378.65 L 364.51,365.87 L 319.28,341.21 L 318.86,309.32 L 329.16,292.91 L 309.40,261.85 L 275.27,266.65 L 226.24,234.69 L 218.75,239.73 L 218.02,224.98 L 212.87,227.81 L 215.63,206.53 L 210.34,187.22 L 204.29,173.64 L 203.79,138.99 L 213.36,137.54 L 222.94,120.43 L 276.48,96.83 L 316.45,105.18 L 334.48,97.48 L 344.10,110.68 L 359.89,102.25 L 389.11,104.53 L 419.30,116.39 L 443.21,115.00 L 470.43,93.75 L 484.55,123.68 L 525.67,130.65 L 568.82,179.26 L 590.81,188.59 L 580.72,230.15 Z M 194.79,235.58 L 205.81,209.29 L 206.01,181.76 L 207.48,218.64 L 194.79,235.58 Z" fill="#4A90D9" stroke="#1a5fa8" stroke-width="1.2"/>
<path d="M 244.56,376.21 L 249.62,376.21 L 245.40,366.54 L 256.73,370.45 L 250.09,373.69 L 254.15,378.32 L 250.77,388.70 L 240.67,381.36 L 244.56,376.21 Z" fill="#A8C8E8" stroke="none"/>
<path d="M 107.94,422.36 L 104.81,430.85 L 98.32,439.09 L 103.87,428.91 L 98.77,417.82 L 107.94,422.36 Z" fill="#A8C8E8" stroke="none"/>
<path d="M 239.55,416.65 L 233.60,403.96 L 237.61,400.94 L 239.55,416.65 Z" fill="#A8C8E8" stroke="none"/>
<path d="M 250.99,424.01 L 254.92,431.53 L 242.89,429.01 L 243.02,421.60 L 239.05,431.53 L 239.55,416.65 L 257.76,420.56 L 250.99,424.01 Z" fill="#A8C8E8" stroke="none"/>
<path d="M 267.83,433.19 L 256.72,435.15 L 259.85,430.53 L 267.83,433.19 Z" fill="#A8C8E8" stroke="none"/>
<path d="M 257.28,393.74 L 246.72,405.68 L 253.44,396.00 L 251.93,390.09 L 257.28,393.74 Z" fill="#A8C8E8" stroke="none"/>
<path d="M 349.14,390.47 L 345.61,391.37 L 340.57,390.47 L 349.14,390.47 Z" fill="#A8C8E8" stroke="none"/>
<path d="M 618.66,51.13 L 603.32,60.34 L 607.79,49.76 L 618.66,51.13 Z" fill="#A8C8E8" stroke="none"/>
<path d="M 605.20,292.82 L 597.55,284.47 L 599.95,281.48 L 606.70,284.36 L 605.20,292.82 Z" fill="#A8C8E8" stroke="none"/>
<path d="M 652.48,112.31 L 643.97,107.24 L 648.51,101.70 L 654.87,106.77 L 652.48,112.31 Z" fill="#A8C8E8" stroke="none"/>
<path d="M 425.91,292.85 L 424.80,294.91 L 418.72,296.67 L 424.80,291.56 L 409.10,285.58 L 423.80,288.28 L 425.91,292.85 Z" fill="#A8C8E8" stroke="none"/>
<path d="M 128.95,304.62 L 135.30,312.04 L 158.62,308.33 L 119.04,334.86 L 115.77,325.97 L 128.95,304.62 Z" fill="#A8C8E8" stroke="none"/>
<path d="M 85.88,364.51 L 87.36,358.58 L 76.38,351.85 L 115.77,325.97 L 119.04,334.86 L 85.88,364.51 Z" fill="#A8C8E8" stroke="none"/>
</svg>