<svg xmlns="http://www.w3.org/2000/svg" width="800" height="500" viewBox="0 0 800 500">
<rect width="800" height="500" fill="#A8C8E8"/>
<path d="M 252.27,221.72 L 269.38,194.08 L 275.06,197.45 L 266.19,225.81 L 273.89,232.83 L 272.76,251.45 L 314.13,267.52 L 333.98,297.58 L 363.25,289.69 L 384.87,306.59 L 429.44,302.81 L 460.81,350.72 L 481.04,343.25 L 493.97,358.73 L 517.34,359.13 L 531.07,349.15 L 553.71,369.64 L 561.35,371.30 L 561.35,486.46 L 554.54,500.00 L 238.65,500.00 L 238.65,222.11 L 252.27,221.72 Z" fill="#E8E0D0" stroke="#B8B0A0" stroke-width="0.5"/>
<path d="M 394.54,29.96 L 403.68,39.25 L 373.95,56.36 L 376.18,68.45 L 395.26,77.49 L 388.32,102.12 L 359.24,101.45 L 350.96,89.56 L 371.60,38.59 L 337.72,18.27 L 309.71,22.62 L 297.13,0.00 L 406.20,0.00 L 394.54,29.96 Z M 278.94,1.81 L 270.89,0.00 L 280.55,0.00 L 278.94,1.81 Z" fill="#E8E0D0" stroke="#B8B0A0" stroke-width="0.5"/>
<path d="M 278.94,1.81 L 280.55,0.00 L 297.13,0.00 L 309.71,22.62 L 337.72,18.27 L 371.60,38.59 L 350.96,89.56 L 413.95,123.29 L 406.06,138.36 L 422.80,144.14 L 426.60,170.00 L 404.68,184.49 L 400.68,200.47 L 384.96,193.41 L 360.49,236.27 L 377.28,274.99 L 372.43,287.87 L 333.98,297.58 L 314.13,267.52 L 272.76,251.45 L 273.89,232.83 L 266.19,225.81 L 274.14,196.23 L 238.65,225.52 L 238.65,0.00 L 270.89,0.00 L 278.94,1.81 Z" fill="#C8D8E8" stroke="#8BAABB" stroke-width="0.8"/>
<path d="M 561.35,486.70 L 561.35,500.00 L 554.85,500.00 L 561.35,486.70 Z M 553.71,369.64 L 531.07,349.15 L 517.34,359.13 L 493.97,358.73 L 481.04,343.25 L 462.00,351.24 L 440.43,309.18 L 423.65,304.39 L 439.51,251.22 L 419.34,245.08 L 398.55,211.69 L 403.64,185.85 L 426.60,170.00 L 422.80,144.14 L 406.06,138.36 L 413.95,123.29 L 386.11,97.13 L 395.26,77.49 L 374.53,60.02 L 403.68,39.25 L 394.54,29.96 L 409.79,2.47 L 409.60,0.00 L 561.35,0.00 L 561.35,371.30 L 553.71,369.64 Z" fill="#C8D8E8" stroke="#8BAABB" stroke-width="0.8"/>
<path d="M 411.29,236.93 L 419.34,245.08 L 422.55,244.26 L 428.87,249.20 L 435.47,249.69 L 438.97,250.63 L 439.51,251.22 L 423.65,304.39 L 384.87,306.59 L 367.72,291.52 L 377.28,274.99 L 360.49,236.27 L 384.96,193.41 L 400.68,200.47 L 411.29,236.93 Z" fill="#4A90D9" stroke="#1a5fa8" stroke-width="1.2"/>
</svg>