<svg xmlns="http://www.w3.org/2000/svg" width="800" height="500" viewBox="0 0 800 500">
<rect width="800" height="500" fill="#A8C8E8"/>
<path d="M 33.77,221.72 L 76.20,194.08 L 90.28,197.45 L 68.29,225.81 L 87.36,232.83 L 84.57,251.45 L 187.12,267.52 L 236.34,297.58 L 308.89,289.69 L 362.48,306.59 L 472.99,302.81 L 550.75,350.72 L 600.91,343.25 L 632.94,358.73 L 690.90,359.13 L 724.93,349.15 L 781.05,369.64 L 800.00,371.30 L 800.00,486.46 L 783.10,500.00 L 0.00,500.00 L 0.00,222.11 L 33.77,221.72 Z" fill="#E8E0D0" stroke="#B8B0A0" stroke-width="0.5"/>
<path d="M 386.46,29.96 L 409.12,39.25 L 335.43,56.36 L 340.96,68.45 L 388.24,77.49 L 371.04,102.12 L 298.95,101.45 L 278.43,89.56 L 329.59,38.59 L 245.62,18.27 L 176.16,22.62 L 144.99,0.00 L 415.36,0.00 L 386.46,29.96 Z M 99.89,1.81 L 79.92,0.00 L 103.88,0.00 L 99.89,1.81 Z" fill="#E8E0D0" stroke="#B8B0A0" stroke-width="0.5"/>
<path d="M 99.89,1.81 L 103.88,0.00 L 144.99,0.00 L 176.16,22.62 L 245.62,18.27 L 329.59,38.59 L 278.43,89.56 L 434.57,123.29 L 415.01,138.36 L 456.53,144.14 L 465.94,170.00 L 411.60,184.49 L 401.68,200.47 L 362.72,193.41 L 302.05,236.27 L 343.67,274.99 L 331.66,287.87 L 236.34,297.58 L 187.12,267.52 L 84.57,251.45 L 87.36,232.83 L 68.29,225.81 L 87.98,196.23 L 0.00,225.52 L 0.00,0.00 L 79.92,0.00 L 99.89,1.81 Z" fill="#C8D8E8" stroke="#8BAABB" stroke-width="0.8"/>
<path d="M 800.00,486.70 L 800.00,500.00 L 783.89,500.00 L 800.00,486.70 Z M 781.05,369.64 L 724.93,349.15 L 690.90,359.13 L 632.94,358.73 L 600.91,343.25 L 553.70,351.24 L 500.23,309.18 L 458.63,304.39 L 497.95,251.22 L 447.96,245.08 L 396.41,211.69 L 409.02,185.85 L 465.94,170.00 L 456.53,144.14 L 415.01,138.36 L 434.57,123.29 L 365.56,97.13 L 388.24,77.49 L 336.85,60.02 L 409.12,39.25 L 386.46,29.96 L 424.26,2.47 L 423.79,0.00 L 800.00,0.00 L 800.00,371.30 L 781.05,369.64 Z" fill="#C8D8E8" stroke="#8BAABB" stroke-width="0.8"/>
<path d="M 427.98,236.93 L 447.96,245.08 L 455.91,244.26 L 471.57,249.20 L 487.93,249.69 L 496.61,250.63 L 497.95,251.22 L 458.63,304.39 L 362.48,306.59 L 319.98,291.52 L 343.67,274.99 L 302.05,236.27 L 362.72,193.41 L 401.68,200.47 L 427.98,236.93 Z" fill="#4A90D9" stroke="#1a5fa8" stroke-width="1.2"/>
</svg>