<svg xmlns="http://www.w3.org/2000/svg" width="800" height="500" viewBox="0 0 800 500">
<rect width="800" height="500" fill="#A8C8E8"/>
<path d="M 19.67,130.02 L 0.48,141.55 L 0.00,143.76 L 0.00,129.73 L 0.22,130.02 L 3.53,118.73 L 19.67,130.02 Z M 8.70,184.72 L 0.00,192.37 L 0.00,176.45 L 8.70,184.72 Z M 37.16,112.61 L 24.97,117.36 L 22.74,127.35 L 16.33,119.98 L 20.57,110.97 L 37.16,112.61 Z M 31.07,64.70 L 26.75,58.12 L 29.14,58.12 L 36.68,61.57 L 31.07,64.70 Z" fill="#E8E0D0" stroke="#B8B0A0" stroke-width="0.5"/>
<path d="M 506.52,490.87 L 515.21,469.25 L 538.43,471.68 L 552.22,452.42 L 528.02,445.63 L 539.45,400.04 L 553.75,397.75 L 564.67,382.50 L 606.89,386.62 L 610.50,370.38 L 642.66,340.82 L 656.46,355.24 L 677.21,349.46 L 685.52,367.35 L 706.15,357.58 L 731.33,367.23 L 734.70,372.39 L 727.74,387.54 L 737.22,400.91 L 766.69,380.44 L 786.87,378.57 L 800.00,384.34 L 800.00,492.02 L 504.26,492.02 L 506.52,490.87 Z" fill="#C8D8E8" stroke="#8BAABB" stroke-width="0.8"/>
<path d="M 396.94,65.85 L 383.88,57.83 L 366.62,77.56 L 341.03,64.67 L 336.75,41.80 L 324.50,36.96 L 324.24,20.02 L 350.24,10.54 L 319.53,11.40 L 322.82,7.98 L 595.75,7.98 L 594.32,12.66 L 604.28,58.08 L 600.17,80.03 L 609.49,96.86 L 611.88,118.31 L 621.15,125.56 L 602.19,132.35 L 588.62,160.66 L 590.34,167.68 L 557.19,155.10 L 531.44,169.17 L 498.66,136.51 L 497.96,127.86 L 469.45,119.10 L 447.37,98.74 L 443.98,109.85 L 434.43,99.51 L 380.04,124.66 L 396.94,65.85 Z M 355.82,88.83 L 359.83,88.62 L 359.08,94.30 L 355.82,88.83 Z M 312.89,50.36 L 300.69,47.69 L 270.77,79.54 L 241.23,83.65 L 234.87,108.77 L 224.20,118.73 L 218.33,110.02 L 234.87,89.33 L 210.08,70.92 L 221.64,63.30 L 209.29,43.47 L 220.56,43.27 L 227.03,54.68 L 233.82,39.44 L 239.72,44.60 L 240.76,36.10 L 258.84,28.48 L 284.50,30.02 L 312.89,50.36 Z M 306.10,40.47 L 293.98,31.78 L 303.53,22.04 L 316.22,34.76 L 306.10,40.47 Z M 279.21,9.92 L 277.70,7.98 L 282.44,7.98 L 279.21,9.92 Z M 259.21,21.23 L 252.82,17.51 L 251.55,7.98 L 270.92,7.98 L 259.21,21.23 Z M 308.53,135.08 L 304.92,133.15 L 305.37,130.27 L 308.53,135.08 Z" fill="#C8D8E8" stroke="#8BAABB" stroke-width="0.8"/>
<path d="M 528.02,445.63 L 552.22,452.42 L 538.43,471.68 L 515.21,469.25 L 506.52,490.87 L 504.26,492.02 L 268.20,492.02 L 259.89,478.38 L 226.16,483.33 L 177.71,450.32 L 170.31,455.53 L 169.58,440.29 L 164.49,443.22 L 167.22,421.23 L 162.00,401.28 L 156.02,387.25 L 155.52,351.46 L 164.98,349.96 L 174.45,332.29 L 227.35,307.91 L 266.85,316.54 L 284.67,308.58 L 294.18,322.21 L 309.79,313.51 L 338.66,315.86 L 368.50,328.11 L 392.13,326.67 L 419.03,304.73 L 432.98,335.65 L 473.62,342.85 L 516.26,393.06 L 537.99,402.69 L 528.02,445.63 Z M 146.63,451.24 L 157.52,424.09 L 157.72,395.64 L 159.17,433.74 L 146.63,451.24 Z" fill="#C8D8E8" stroke="#8BAABB" stroke-width="0.8"/>
<path d="M 788.08,378.93 L 766.69,380.44 L 737.22,400.91 L 728.24,390.18 L 734.70,372.39 L 730.08,366.44 L 706.15,357.58 L 685.52,367.35 L 672.13,348.29 L 655.01,354.74 L 645.28,342.64 L 650.00,326.44 L 644.13,292.93 L 625.72,266.82 L 629.03,257.04 L 609.35,254.00 L 617.80,228.97 L 613.07,221.22 L 622.88,214.23 L 623.98,197.61 L 601.27,179.95 L 602.44,167.57 L 588.62,160.66 L 602.19,132.35 L 621.15,125.56 L 611.88,118.31 L 609.49,96.86 L 600.17,80.03 L 604.28,58.08 L 594.32,12.66 L 595.75,7.98 L 800.00,7.98 L 800.00,387.83 L 788.08,378.93 Z M 81.21,491.42 L 116.11,490.03 L 146.63,451.24 L 151.11,452.79 L 119.46,491.41 L 122.45,492.02 L 81.12,492.02 L 81.21,491.42 Z M 168.64,491.84 L 164.50,461.46 L 177.71,450.32 L 224.31,482.71 L 260.94,479.66 L 268.84,492.02 L 168.38,492.02 L 168.64,491.84 Z" fill="#C8D8E8" stroke="#8BAABB" stroke-width="0.8"/>
<path d="M 602.44,167.57 L 601.27,179.95 L 623.98,197.61 L 622.88,214.23 L 613.07,221.22 L 617.80,228.97 L 609.35,254.00 L 629.03,257.04 L 625.72,266.82 L 643.71,291.44 L 650.00,326.44 L 645.28,342.64 L 629.97,346.82 L 610.50,370.38 L 606.89,386.62 L 564.67,382.50 L 553.75,397.75 L 530.16,401.26 L 473.62,342.85 L 432.98,335.65 L 419.03,304.73 L 392.13,326.67 L 368.50,328.11 L 338.66,315.86 L 309.79,313.51 L 294.18,322.21 L 284.67,308.58 L 266.85,316.54 L 227.35,307.91 L 174.45,332.29 L 164.98,349.96 L 155.52,351.46 L 150.00,331.33 L 152.27,294.95 L 157.34,309.72 L 151.30,291.30 L 155.48,255.93 L 178.24,233.19 L 181.77,195.61 L 202.20,161.84 L 254.25,140.53 L 262.99,139.00 L 266.15,160.33 L 298.87,187.48 L 307.89,221.82 L 337.87,238.45 L 355.66,232.65 L 386.56,201.72 L 380.04,124.66 L 434.43,99.51 L 442.89,109.85 L 447.37,98.74 L 469.45,119.10 L 497.96,127.86 L 498.66,136.51 L 531.44,169.17 L 557.19,155.10 L 602.44,167.57 Z" fill="#4A90D9" stroke="#1a5fa8" stroke-width="1.2"/>
<path d="M 606.87,79.36 L 608.07,90.96 L 631.25,85.79 L 645.43,106.17 L 646.20,121.15 L 632.28,126.32 L 615.03,103.08 L 608.49,112.60 L 600.95,78.06 L 606.87,79.36 Z" fill="#A8C8E8" stroke="none"/>
<path d="M 594.35,60.32 L 582.34,54.45 L 577.10,24.26 L 563.31,7.98 L 619.29,7.98 L 623.49,48.39 L 598.21,80.10 L 594.35,60.32 Z M 600.24,61.03 L 602.42,60.80 L 599.88,58.31 L 600.24,61.03 Z" fill="#A8C8E8" stroke="none"/>
<path d="M 506.74,77.24 L 501.90,95.12 L 490.77,66.34 L 495.38,56.38 L 505.38,58.98 L 506.74,77.24 Z" fill="#A8C8E8" stroke="none"/>
<path d="M 796.41,209.83 L 796.31,210.05 L 796.31,209.94 L 796.41,209.83 Z" fill="#A8C8E8" stroke="none"/>
<path d="M 799.58,213.99 L 796.41,209.83 L 800.00,205.46 L 800.00,207.40 L 799.58,213.99 Z" fill="#A8C8E8" stroke="none"/>
<path d="M 565.52,260.69 L 550.36,270.21 L 554.77,259.28 L 565.52,260.69 Z" fill="#A8C8E8" stroke="none"/>
<path d="M 598.94,323.90 L 590.53,318.66 L 595.02,312.93 L 601.30,318.18 L 598.94,323.90 Z" fill="#A8C8E8" stroke="none"/>
<path d="M 449.75,146.14 L 438.71,134.24 L 445.83,136.99 L 449.75,146.14 Z" fill="#A8C8E8" stroke="none"/>
</svg>