<svg xmlns="http://www.w3.org/2000/svg" width="800" height="500" viewBox="0 0 800 500">
<rect width="800" height="500" fill="#A8C8E8"/>
<path d="M 19.67,126.06 L 0.48,137.98 L 0.00,140.26 L 0.00,125.77 L 0.22,126.06 L 3.53,114.40 L 19.67,126.06 Z M 8.70,182.57 L 0.00,190.47 L 0.00,174.02 L 8.70,182.57 Z M 37.16,108.08 L 24.97,112.99 L 22.74,123.31 L 16.33,115.69 L 20.57,106.39 L 37.16,108.08 Z M 31.07,58.60 L 26.75,51.79 L 29.14,51.79 L 36.68,55.36 L 31.07,58.60 Z" fill="#E8E0D0" stroke="#B8B0A0" stroke-width="0.5"/>
<path d="M 506.52,498.80 L 515.21,476.47 L 538.43,478.99 L 552.22,459.09 L 528.02,452.08 L 539.45,404.99 L 553.75,402.62 L 564.67,386.87 L 606.89,391.12 L 610.50,374.34 L 642.66,343.82 L 656.46,358.71 L 677.21,352.73 L 685.52,371.22 L 706.15,361.12 L 731.33,371.10 L 734.70,376.42 L 727.74,392.07 L 737.22,405.89 L 766.69,384.73 L 786.87,382.81 L 800.00,388.76 L 800.00,500.00 L 504.26,500.00 L 506.52,498.80 Z" fill="#C8D8E8" stroke="#8BAABB" stroke-width="0.8"/>
<path d="M 396.94,59.78 L 383.88,51.49 L 366.62,71.88 L 341.03,58.56 L 336.75,34.94 L 324.50,29.94 L 324.24,12.44 L 350.24,2.64 L 319.53,3.54 L 322.82,0.00 L 595.75,0.00 L 594.32,4.84 L 604.28,51.76 L 600.17,74.43 L 609.49,91.81 L 611.88,113.97 L 621.15,121.45 L 602.19,128.47 L 588.62,157.72 L 590.34,164.96 L 557.19,151.97 L 531.44,166.50 L 498.66,132.77 L 497.96,123.83 L 469.45,114.78 L 447.37,93.75 L 443.98,105.24 L 434.43,94.55 L 380.04,120.53 L 396.94,59.78 Z M 355.82,83.52 L 359.83,83.30 L 359.08,89.17 L 355.82,83.52 Z M 312.89,43.78 L 300.69,41.02 L 270.77,73.92 L 241.23,78.16 L 234.87,104.12 L 224.20,114.40 L 218.33,105.41 L 234.87,84.03 L 210.08,65.02 L 221.64,57.15 L 209.29,36.66 L 220.56,36.46 L 227.03,48.24 L 233.82,32.50 L 239.72,37.83 L 240.76,29.05 L 258.84,21.18 L 284.50,22.77 L 312.89,43.78 Z M 306.10,33.57 L 293.98,24.59 L 303.53,14.53 L 316.22,27.67 L 306.10,33.57 Z M 279.21,2.01 L 277.70,0.00 L 282.44,0.00 L 279.21,2.01 Z M 259.21,13.69 L 252.82,9.85 L 251.55,0.00 L 270.92,0.00 L 259.21,13.69 Z M 308.53,131.30 L 304.92,129.30 L 305.37,126.33 L 308.53,131.30 Z" fill="#C8D8E8" stroke="#8BAABB" stroke-width="0.8"/>
<path d="M 528.02,452.08 L 552.22,459.09 L 538.43,478.99 L 515.21,476.47 L 506.52,498.80 L 504.26,500.00 L 268.20,500.00 L 259.89,485.91 L 226.16,491.02 L 177.71,456.92 L 170.31,462.31 L 169.58,446.56 L 164.49,449.58 L 167.22,426.88 L 162.00,406.27 L 156.02,391.77 L 155.52,354.80 L 164.98,353.26 L 174.45,335.00 L 227.35,309.82 L 266.85,318.73 L 284.67,310.51 L 294.18,324.59 L 309.79,315.60 L 338.66,318.03 L 368.50,330.69 L 392.13,329.20 L 419.03,306.53 L 432.98,338.47 L 473.62,345.90 L 516.26,397.78 L 537.99,407.73 L 528.02,452.08 Z M 146.63,457.87 L 157.52,429.82 L 157.72,400.44 L 159.17,439.79 L 146.63,457.87 Z" fill="#C8D8E8" stroke="#8BAABB" stroke-width="0.8"/>
<path d="M 788.08,383.18 L 766.69,384.73 L 737.22,405.89 L 728.24,394.80 L 734.70,376.42 L 730.08,370.28 L 706.15,361.12 L 685.52,371.22 L 672.13,351.53 L 655.01,358.20 L 645.28,345.70 L 650.00,328.95 L 644.13,294.35 L 625.72,267.38 L 629.03,257.27 L 609.35,254.14 L 617.80,228.28 L 613.07,220.27 L 622.88,213.05 L 623.98,195.88 L 601.27,177.65 L 602.44,164.85 L 588.62,157.72 L 602.19,128.47 L 621.15,121.45 L 611.88,113.97 L 609.49,91.81 L 600.17,74.43 L 604.28,51.76 L 594.32,4.84 L 595.75,0.00 L 800.00,0.00 L 800.00,392.37 L 788.08,383.18 Z M 81.21,499.37 L 116.11,497.94 L 146.63,457.87 L 151.11,459.47 L 119.46,499.36 L 122.45,500.00 L 81.12,500.00 L 81.21,499.37 Z M 168.64,499.81 L 164.50,468.43 L 177.71,456.92 L 224.31,490.38 L 260.94,487.23 L 268.84,500.00 L 168.38,500.00 L 168.64,499.81 Z" fill="#C8D8E8" stroke="#8BAABB" stroke-width="0.8"/>
<path d="M 602.44,164.85 L 601.27,177.65 L 623.98,195.88 L 622.88,213.05 L 613.07,220.27 L 617.80,228.28 L 609.35,254.14 L 629.03,257.27 L 625.72,267.38 L 643.71,292.81 L 650.00,328.95 L 645.28,345.70 L 629.97,350.01 L 610.50,374.34 L 606.89,391.12 L 564.67,386.87 L 553.75,402.62 L 530.16,406.25 L 473.62,345.90 L 432.98,338.47 L 419.03,306.53 L 392.13,329.20 L 368.50,330.69 L 338.66,318.03 L 309.79,315.60 L 294.18,324.59 L 284.67,310.51 L 266.85,318.73 L 227.35,309.82 L 174.45,335.00 L 164.98,353.26 L 155.52,354.80 L 150.00,334.01 L 152.27,296.43 L 157.34,311.69 L 151.30,292.66 L 155.48,256.12 L 178.24,232.64 L 181.77,193.82 L 202.20,158.94 L 254.25,136.93 L 262.99,135.34 L 266.15,157.38 L 298.87,185.42 L 307.89,220.89 L 337.87,238.07 L 355.66,232.07 L 386.56,200.12 L 380.04,120.53 L 434.43,94.55 L 442.89,105.24 L 447.37,93.75 L 469.45,114.78 L 497.96,123.83 L 498.66,132.77 L 531.44,166.50 L 557.19,151.97 L 602.44,164.85 Z" fill="#4A90D9" stroke="#1a5fa8" stroke-width="1.2"/>
<path d="M 606.87,73.73 L 608.07,85.72 L 631.25,80.38 L 645.43,101.43 L 646.20,116.90 L 632.28,122.24 L 615.03,98.24 L 608.49,108.07 L 600.95,72.39 L 606.87,73.73 Z" fill="#A8C8E8" stroke="none"/>
<path d="M 594.35,54.07 L 582.34,48.00 L 577.10,16.82 L 563.31,0.00 L 619.29,0.00 L 623.49,41.74 L 598.21,74.50 L 594.35,54.07 Z M 600.24,54.80 L 602.42,54.57 L 599.88,52.00 L 600.24,54.80 Z" fill="#A8C8E8" stroke="none"/>
<path d="M 506.74,71.55 L 501.90,90.02 L 490.77,60.29 L 495.38,50.00 L 505.38,52.69 L 506.74,71.55 Z" fill="#A8C8E8" stroke="none"/>
<path d="M 796.41,208.51 L 796.31,208.74 L 796.31,208.62 L 796.41,208.51 Z" fill="#A8C8E8" stroke="none"/>
<path d="M 799.58,212.81 L 796.41,208.51 L 800.00,203.99 L 800.00,206.00 L 799.58,212.81 Z" fill="#A8C8E8" stroke="none"/>
<path d="M 565.52,261.05 L 550.36,270.88 L 554.77,259.59 L 565.52,261.05 Z" fill="#A8C8E8" stroke="none"/>
<path d="M 598.94,326.34 L 590.53,320.92 L 595.02,315.01 L 601.30,320.42 L 598.94,326.34 Z" fill="#A8C8E8" stroke="none"/>
<path d="M 449.75,142.71 L 438.71,130.42 L 445.83,133.27 L 449.75,142.71 Z" fill="#A8C8E8" stroke="none"/>
</svg>