<svg xmlns="http://www.w3.org/2000/svg" width="800" height="500" viewBox="0 0 800 500">
<rect width="800" height="500" fill="#A8C8E8"/>
<path d="M 654.80,26.57 L 643.01,20.46 L 643.39,16.76 L 641.34,16.87 L 643.01,14.19 L 639.79,12.23 L 637.54,15.62 L 629.83,9.21 L 628.68,11.35 L 625.84,10.06 L 626.62,12.94 L 621.31,16.49 L 619.74,15.62 L 622.41,14.67 L 619.88,13.65 L 622.96,12.97 L 623.00,11.10 L 618.89,12.48 L 614.84,12.11 L 613.85,14.36 L 608.39,14.19 L 607.40,13.12 L 613.32,10.97 L 621.14,11.54 L 621.43,7.94 L 623.96,8.57 L 627.32,5.71 L 611.62,7.16 L 607.82,5.91 L 605.50,7.38 L 605.29,3.72 L 611.68,3.68 L 610.92,2.15 L 612.59,1.99 L 612.72,0.27 L 609.60,0.79 L 609.86,0.00 L 659.81,0.00 L 659.81,24.55 L 654.80,26.57 Z" fill="#E8E0D0" stroke="#B8B0A0" stroke-width="0.5"/>
<path d="M 520.59,11.54 L 518.99,14.56 L 522.27,19.51 L 517.69,17.50 L 513.89,11.26 L 511.82,10.90 L 509.61,11.50 L 507.70,15.53 L 507.84,20.46 L 505.05,17.69 L 505.73,13.26 L 500.61,8.44 L 500.93,6.06 L 496.63,6.70 L 497.18,11.23 L 495.39,12.79 L 491.80,10.70 L 491.86,7.86 L 488.99,3.89 L 490.30,0.00 L 515.48,0.00 L 520.59,11.54 Z M 541.49,56.44 L 539.67,55.66 L 540.37,55.21 L 541.49,56.44 Z M 600.26,43.14 L 597.01,43.71 L 598.07,42.52 L 600.26,43.14 Z M 585.33,49.93 L 582.66,52.17 L 559.57,53.78 L 553.83,53.78 L 553.92,50.45 L 546.95,47.85 L 528.86,45.50 L 530.13,39.07 L 532.96,40.51 L 533.43,36.53 L 534.98,40.01 L 542.46,38.85 L 542.46,40.50 L 540.19,40.84 L 543.89,41.28 L 545.68,44.26 L 553.47,42.46 L 568.47,45.50 L 574.87,44.55 L 573.77,48.04 L 575.46,49.59 L 580.89,46.89 L 583.32,47.49 L 586.22,45.02 L 585.33,49.93 Z M 602.90,42.99 L 601.50,38.77 L 604.64,33.28 L 603.32,37.74 L 604.45,40.33 L 602.90,42.99 Z M 525.02,32.47 L 525.08,33.28 L 524.31,32.59 L 525.02,32.47 Z M 520.38,23.97 L 518.07,26.25 L 516.24,21.66 L 517.12,20.49 L 520.38,23.97 Z M 574.90,20.21 L 576.69,21.08 L 574.46,21.21 L 574.90,20.21 Z M 622.41,28.12 L 615.11,31.32 L 615.61,27.46 L 614.12,25.77 L 618.53,21.62 L 625.48,19.51 L 622.41,28.12 Z M 568.99,19.69 L 568.70,21.56 L 566.59,21.24 L 568.12,20.46 L 567.00,18.43 L 568.99,19.69 Z M 608.88,20.59 L 606.19,18.76 L 607.40,18.43 L 608.88,20.59 Z M 589.19,16.08 L 585.81,17.66 L 585.00,15.96 L 587.91,15.92 L 587.06,14.82 L 589.19,16.08 Z M 617.37,17.33 L 615.67,16.23 L 617.34,14.66 L 617.37,17.33 Z M 558.12,15.13 L 558.44,15.77 L 555.93,14.19 L 558.12,15.13 Z M 562.94,13.26 L 560.56,14.82 L 561.33,13.41 L 562.94,13.26 Z M 493.29,12.31 L 493.25,13.41 L 492.69,13.12 L 493.29,12.31 Z M 549.64,11.85 L 549.90,13.65 L 545.41,14.52 L 545.97,12.17 L 547.45,13.41 L 547.09,12.01 L 549.64,11.85 Z M 552.35,11.69 L 552.21,12.24 L 551.17,11.54 L 552.35,11.69 Z M 565.47,11.23 L 567.56,13.12 L 566.82,14.46 L 564.77,12.94 L 565.47,11.23 Z M 491.67,11.32 L 492.25,11.23 L 491.99,11.54 L 491.67,11.32 Z M 550.44,11.53 L 549.39,10.72 L 550.22,10.07 L 550.44,11.53 Z M 568.33,9.80 L 568.97,9.50 L 568.96,10.31 L 568.33,9.80 Z M 607.40,9.67 L 599.95,12.17 L 599.56,13.88 L 598.43,13.03 L 605.86,8.65 L 607.40,9.67 Z M 572.48,8.57 L 573.19,9.03 L 572.98,9.30 L 572.48,8.57 Z M 581.18,8.98 L 577.19,11.23 L 574.65,11.80 L 574.31,11.23 L 579.77,7.94 L 581.18,8.98 Z M 560.15,7.25 L 559.71,6.37 L 560.67,5.58 L 560.15,7.25 Z M 554.39,7.71 L 553.26,8.74 L 551.86,5.43 L 554.39,7.71 Z M 599.17,5.91 L 598.42,5.60 L 597.86,4.50 L 601.02,6.63 L 598.31,7.79 L 599.17,5.91 Z M 575.16,3.72 L 576.27,3.41 L 576.31,4.21 L 575.16,3.72 Z M 563.04,6.88 L 561.30,6.25 L 564.07,3.08 L 565.19,3.08 L 563.04,6.88 Z M 571.07,6.14 L 568.39,8.41 L 566.18,4.65 L 569.95,2.07 L 571.07,6.14 Z M 549.37,1.89 L 549.62,3.58 L 547.37,3.72 L 549.37,1.89 Z M 521.50,0.35 L 521.58,0.97 L 520.19,0.27 L 521.50,0.35 Z M 536.45,10.33 L 536.35,10.38 L 536.20,10.12 L 536.45,10.33 Z M 527.82,8.69 L 527.75,8.74 L 527.46,8.17 L 527.82,8.69 Z M 612.73,23.84 L 612.77,24.17 L 610.73,24.43 L 612.73,23.84 Z M 604.17,16.41 L 602.77,16.38 L 602.92,15.68 L 604.17,16.41 Z M 597.04,4.30 L 595.46,2.38 L 597.04,2.27 L 597.04,4.30 Z M 591.27,0.28 L 590.83,0.22 L 590.81,0.00 L 591.18,0.00 L 591.27,0.28 Z" fill="#E8E0D0" stroke="#B8B0A0" stroke-width="0.5"/>
<path d="M 294.20,11.34 L 293.77,12.45 L 291.61,10.84 L 294.20,11.34 Z M 359.70,0.66 L 358.29,1.81 L 361.34,6.28 L 357.78,8.28 L 356.46,14.43 L 344.05,11.27 L 339.78,5.54 L 328.26,2.63 L 324.21,0.00 L 358.47,0.00 L 359.70,0.66 Z M 311.03,32.43 L 311.00,32.76 L 310.46,32.52 L 311.03,32.43 Z M 305.65,41.05 L 303.91,40.42 L 304.52,40.32 L 305.65,41.05 Z" fill="#E8E0D0" stroke="#B8B0A0" stroke-width="0.5"/>
<path d="M 344.87,33.92 L 342.76,33.41 L 340.67,30.00 L 345.29,31.89 L 344.87,33.92 Z M 340.52,28.22 L 340.92,28.60 L 337.86,28.59 L 340.52,28.22 Z" fill="#E8E0D0" stroke="#B8B0A0" stroke-width="0.5"/>
<path d="M 145.54,8.94 L 156.12,14.70 L 164.91,10.38 L 174.39,8.78 L 178.87,4.43 L 189.77,9.06 L 195.59,7.30 L 195.38,4.50 L 207.17,6.69 L 206.65,9.06 L 209.42,9.98 L 216.06,7.51 L 223.62,7.93 L 224.42,10.28 L 219.74,11.48 L 220.10,14.25 L 214.77,17.38 L 218.61,19.56 L 216.23,33.32 L 218.19,39.93 L 217.31,44.79 L 220.12,46.70 L 217.44,50.67 L 216.13,60.26 L 207.84,65.59 L 206.49,69.47 L 201.41,72.88 L 200.64,77.48 L 205.66,92.60 L 213.07,95.74 L 217.08,101.62 L 218.07,108.67 L 232.67,119.08 L 242.39,161.17 L 237.62,163.72 L 245.42,175.34 L 248.66,186.29 L 247.65,205.95 L 250.87,216.00 L 246.52,228.23 L 250.31,238.15 L 250.10,242.83 L 248.86,246.22 L 241.63,249.68 L 239.48,253.88 L 252.38,273.00 L 252.87,283.85 L 256.17,286.28 L 257.18,289.81 L 260.62,292.60 L 266.52,290.70 L 283.76,296.61 L 292.51,314.43 L 200.70,374.82 L 166.15,407.31 L 140.19,412.89 L 140.19,8.79 L 145.54,8.94 Z" fill="#C8D8E8" stroke="#8BAABB" stroke-width="0.8"/>
<path d="M 341.63,491.80 L 364.07,465.65 L 369.60,396.95 L 374.40,387.06 L 366.21,377.57 L 365.68,374.41 L 367.01,373.04 L 358.32,360.69 L 358.06,349.22 L 354.13,326.34 L 374.70,316.08 L 538.34,406.25 L 538.40,492.45 L 520.19,492.84 L 516.35,496.56 L 516.81,500.00 L 336.24,500.00 L 341.63,491.80 Z" fill="#C8D8E8" stroke="#8BAABB" stroke-width="0.8"/>
<path d="M 558.80,349.18 L 558.80,185.09 L 552.81,162.22 L 557.30,155.01 L 559.08,148.47 L 556.09,135.60 L 560.99,129.55 L 562.27,128.57 L 563.09,131.42 L 567.41,132.07 L 578.97,129.48 L 606.68,134.86 L 609.25,138.46 L 613.63,139.44 L 617.57,138.07 L 619.08,141.30 L 629.26,141.65 L 641.62,147.51 L 651.34,144.55 L 659.81,138.26 L 659.81,349.20 L 558.80,349.18 Z" fill="#C8D8E8" stroke="#8BAABB" stroke-width="0.8"/>
<path d="M 166.15,407.31 L 200.70,374.82 L 292.51,314.43 L 323.48,322.14 L 338.50,335.00 L 354.13,326.34 L 358.06,349.22 L 358.32,360.69 L 367.01,373.04 L 365.68,374.41 L 366.21,377.57 L 374.40,387.06 L 369.60,396.95 L 364.20,465.15 L 341.63,491.80 L 336.24,500.00 L 140.19,500.00 L 140.19,413.00 L 166.15,407.31 Z" fill="#C8D8E8" stroke="#8BAABB" stroke-width="0.8"/>
<path d="M 516.35,496.56 L 520.19,492.84 L 538.40,492.45 L 538.34,394.85 L 558.79,394.70 L 558.80,349.18 L 659.81,349.20 L 659.81,500.00 L 516.81,500.00 L 516.35,496.56 Z" fill="#C8D8E8" stroke="#8BAABB" stroke-width="0.8"/>
<path d="M 281.89,106.16 L 283.86,110.81 L 270.09,117.60 L 268.03,120.62 L 264.62,121.78 L 262.43,126.56 L 257.62,128.02 L 254.39,133.76 L 257.41,147.17 L 249.58,158.28 L 242.39,161.17 L 232.67,119.08 L 218.07,108.67 L 217.08,101.62 L 213.07,95.74 L 205.66,92.60 L 205.01,87.52 L 200.75,78.36 L 201.41,72.88 L 206.49,69.47 L 207.84,65.59 L 216.13,60.26 L 217.44,50.67 L 220.12,46.70 L 217.31,44.79 L 218.19,39.93 L 216.23,33.32 L 218.61,19.56 L 214.77,17.38 L 220.10,14.25 L 219.74,11.48 L 224.42,10.28 L 223.62,7.93 L 228.16,7.02 L 236.07,1.21 L 241.26,0.00 L 248.68,0.00 L 247.55,1.68 L 248.45,3.08 L 250.46,2.48 L 248.53,1.35 L 249.81,0.53 L 257.79,2.47 L 254.84,2.92 L 256.86,3.86 L 255.95,5.93 L 259.32,9.28 L 256.08,11.17 L 259.49,12.69 L 262.83,12.12 L 264.19,9.38 L 273.73,4.71 L 275.35,9.88 L 268.59,19.06 L 263.49,20.77 L 261.93,26.81 L 264.95,32.98 L 273.52,37.66 L 273.55,44.58 L 275.94,47.22 L 264.44,62.61 L 254.81,67.62 L 252.32,71.16 L 253.68,76.28 L 258.98,81.84 L 262.23,83.11 L 266.88,81.75 L 266.01,85.43 L 267.32,86.97 L 270.83,85.57 L 271.38,83.36 L 273.56,83.78 L 274.77,89.57 L 278.69,91.34 L 275.42,90.78 L 276.36,93.07 L 281.55,93.47 L 279.88,91.98 L 283.02,93.75 L 281.89,106.16 Z M 273.92,79.60 L 270.39,83.27 L 269.13,81.22 L 267.36,81.55 L 267.28,77.68 L 273.92,79.60 Z M 272.42,59.71 L 274.95,59.99 L 273.82,60.87 L 272.42,59.71 Z M 278.76,58.41 L 275.36,59.91 L 277.89,56.20 L 278.76,58.41 Z" fill="#C8D8E8" stroke="#8BAABB" stroke-width="0.8"/>
<path d="M 300.27,101.71 L 310.02,102.36 L 320.81,100.07 L 325.31,102.39 L 337.87,104.41 L 343.68,108.87 L 358.26,111.69 L 362.00,116.73 L 361.93,121.52 L 364.58,128.38 L 370.12,134.70 L 375.92,137.27 L 394.28,139.37 L 412.84,145.30 L 420.20,148.83 L 429.30,156.75 L 437.56,160.32 L 449.01,156.77 L 458.91,145.04 L 459.86,138.61 L 455.17,126.22 L 458.33,116.69 L 468.38,107.98 L 478.37,103.09 L 485.82,102.61 L 490.08,99.33 L 500.85,99.08 L 520.43,106.11 L 521.30,109.81 L 519.90,113.10 L 524.64,117.01 L 524.38,115.60 L 531.96,116.54 L 540.58,120.59 L 553.74,119.97 L 559.55,121.89 L 562.38,128.42 L 556.09,135.60 L 559.08,148.47 L 552.81,163.10 L 558.80,185.09 L 558.71,394.84 L 538.34,394.85 L 538.34,406.25 L 374.70,316.08 L 338.50,335.00 L 323.48,322.14 L 292.51,314.43 L 283.09,296.24 L 266.97,290.79 L 260.62,292.60 L 257.55,290.24 L 256.17,286.28 L 252.87,283.85 L 252.38,273.00 L 239.48,253.88 L 241.63,249.68 L 249.24,245.76 L 250.39,238.48 L 246.53,227.85 L 250.91,215.11 L 247.65,205.95 L 248.66,186.29 L 245.42,175.34 L 237.62,163.72 L 249.58,158.28 L 256.15,149.70 L 257.75,145.48 L 254.39,133.76 L 257.62,128.02 L 262.43,126.56 L 264.62,121.78 L 268.03,120.62 L 270.09,117.60 L 283.86,110.81 L 281.89,106.16 L 283.02,93.75 L 300.27,101.71 Z" fill="#4A90D9" stroke="#1a5fa8" stroke-width="1.2"/>
</svg>