<svg xmlns="http://www.w3.org/2000/svg" width="800" height="500" viewBox="0 0 800 500">
<rect width="800" height="500" fill="#A8C8E8"/>
<path d="M 792.29,26.57 L 774.14,20.46 L 774.72,16.76 L 771.56,16.87 L 774.14,14.19 L 769.18,12.23 L 765.71,15.62 L 753.84,9.21 L 752.07,11.35 L 747.70,10.06 L 748.89,12.94 L 740.73,16.49 L 738.31,15.62 L 742.42,14.67 L 738.53,13.65 L 743.26,12.97 L 743.33,11.10 L 737.00,12.48 L 730.76,12.11 L 729.24,14.36 L 720.83,14.19 L 719.30,13.12 L 728.42,10.97 L 740.46,11.54 L 740.91,7.94 L 744.80,8.57 L 749.97,5.71 L 725.80,7.16 L 719.95,5.91 L 716.38,7.38 L 716.06,3.72 L 725.89,3.68 L 724.72,2.15 L 727.30,1.99 L 727.50,0.27 L 722.70,0.79 L 723.10,0.00 L 800.00,0.00 L 800.00,24.55 L 792.29,26.57 Z" fill="#E8E0D0" stroke="#B8B0A0" stroke-width="0.5"/>
<path d="M 585.66,11.54 L 583.19,14.56 L 588.24,19.51 L 581.19,17.50 L 575.35,11.26 L 572.16,10.90 L 568.75,11.50 L 565.81,15.53 L 566.03,20.46 L 561.73,17.69 L 562.78,13.26 L 554.90,8.44 L 555.38,6.06 L 548.77,6.70 L 549.62,11.23 L 546.86,12.79 L 541.34,10.70 L 541.42,7.86 L 537.00,3.89 L 539.02,0.00 L 577.79,0.00 L 585.66,11.54 Z M 617.83,56.44 L 615.03,55.66 L 616.11,55.21 L 617.83,56.44 Z M 708.31,43.14 L 703.31,43.71 L 704.95,42.52 L 708.31,43.14 Z M 685.33,49.93 L 681.22,52.17 L 645.68,53.78 L 636.84,53.78 L 636.97,50.45 L 626.24,47.85 L 598.39,45.50 L 600.35,39.07 L 604.70,40.51 L 605.43,36.53 L 607.81,40.01 L 619.33,38.85 L 619.33,40.50 L 615.84,40.84 L 621.52,41.28 L 624.29,44.26 L 636.29,42.46 L 659.37,45.50 L 669.22,44.55 L 667.53,48.04 L 670.13,49.59 L 678.49,46.89 L 682.24,47.49 L 686.70,45.02 L 685.33,49.93 Z M 712.38,42.99 L 710.23,38.77 L 715.05,33.28 L 713.03,37.74 L 714.77,40.33 L 712.38,42.99 Z M 592.48,32.47 L 592.56,33.28 L 591.38,32.59 L 592.48,32.47 Z M 585.34,23.97 L 581.77,26.25 L 578.96,21.66 L 580.32,20.49 L 585.34,23.97 Z M 669.27,20.21 L 672.02,21.08 L 668.59,21.21 L 669.27,20.21 Z M 742.42,28.12 L 731.17,31.32 L 731.94,27.46 L 729.65,25.77 L 736.44,21.62 L 747.15,19.51 L 742.42,28.12 Z M 660.17,19.69 L 659.73,21.56 L 656.47,21.24 L 658.84,20.46 L 657.12,18.43 L 660.17,19.69 Z M 721.58,20.59 L 717.45,18.76 L 719.30,18.43 L 721.58,20.59 Z M 691.27,16.08 L 686.07,17.66 L 684.82,15.96 L 689.31,15.92 L 687.99,14.82 L 691.27,16.08 Z M 734.65,17.33 L 732.04,16.23 L 734.62,14.66 L 734.65,17.33 Z M 643.44,15.13 L 643.93,15.77 L 640.06,14.19 L 643.44,15.13 Z M 650.86,13.26 L 647.20,14.82 L 648.37,13.41 L 650.86,13.26 Z M 543.63,12.31 L 543.56,13.41 L 542.70,13.12 L 543.63,12.31 Z M 630.38,11.85 L 630.78,13.65 L 623.87,14.52 L 624.73,12.17 L 627.01,13.41 L 626.45,12.01 L 630.38,11.85 Z M 634.55,11.69 L 634.34,12.24 L 632.73,11.54 L 634.55,11.69 Z M 654.75,11.23 L 657.98,13.12 L 656.84,14.46 L 653.68,12.94 L 654.75,11.23 Z M 541.13,11.32 L 542.03,11.23 L 541.62,11.54 L 541.13,11.32 Z M 631.62,11.53 L 629.99,10.72 L 631.27,10.07 L 631.62,11.53 Z M 659.16,9.80 L 660.15,9.50 L 660.13,10.31 L 659.16,9.80 Z M 719.30,9.67 L 707.84,12.17 L 707.24,13.88 L 705.50,13.03 L 716.94,8.65 L 719.30,9.67 Z M 665.55,8.57 L 666.64,9.03 L 666.31,9.30 L 665.55,8.57 Z M 678.94,8.98 L 672.79,11.23 L 668.88,11.80 L 668.36,11.23 L 676.77,7.94 L 678.94,8.98 Z M 646.56,7.25 L 645.89,6.37 L 647.37,5.58 L 646.56,7.25 Z M 637.70,7.71 L 635.96,8.74 L 633.81,5.43 L 637.70,7.71 Z M 706.64,5.91 L 705.48,5.60 L 704.62,4.50 L 709.48,6.63 L 705.31,7.79 L 706.64,5.91 Z M 669.67,3.72 L 671.37,3.41 L 671.44,4.21 L 669.67,3.72 Z M 651.02,6.88 L 648.33,6.25 L 652.60,3.08 L 654.32,3.08 L 651.02,6.88 Z M 663.38,6.14 L 659.25,8.41 L 655.85,4.65 L 661.65,2.07 L 663.38,6.14 Z M 629.97,1.89 L 630.34,3.58 L 626.88,3.72 L 629.97,1.89 Z M 587.06,0.35 L 587.18,0.97 L 585.04,0.27 L 587.06,0.35 Z M 610.07,10.33 L 609.92,10.38 L 609.69,10.12 L 610.07,10.33 Z M 596.79,8.69 L 596.68,8.74 L 596.23,8.17 L 596.79,8.69 Z M 727.51,23.84 L 727.58,24.17 L 724.44,24.43 L 727.51,23.84 Z M 714.33,16.41 L 712.18,16.38 L 712.41,15.68 L 714.33,16.41 Z M 703.36,4.30 L 700.93,2.38 L 703.36,2.27 L 703.36,4.30 Z M 694.47,0.28 L 693.80,0.22 L 693.77,0.00 L 694.33,0.00 L 694.47,0.28 Z" fill="#E8E0D0" stroke="#B8B0A0" stroke-width="0.5"/>
<path d="M 237.11,11.34 L 236.46,12.45 L 233.13,10.84 L 237.11,11.34 Z M 337.95,0.66 L 335.79,1.81 L 340.48,6.28 L 335.00,8.28 L 332.97,14.43 L 313.86,11.27 L 307.29,5.54 L 289.55,2.63 L 283.31,0.00 L 336.07,0.00 L 337.95,0.66 Z M 263.03,32.43 L 262.98,32.76 L 262.14,32.52 L 263.03,32.43 Z M 254.75,41.05 L 252.07,40.42 L 253.00,40.32 L 254.75,41.05 Z" fill="#E8E0D0" stroke="#B8B0A0" stroke-width="0.5"/>
<path d="M 315.12,33.92 L 311.88,33.41 L 308.65,30.00 L 315.77,31.89 L 315.12,33.92 Z M 308.42,28.22 L 309.04,28.60 L 304.33,28.59 L 308.42,28.22 Z" fill="#E8E0D0" stroke="#B8B0A0" stroke-width="0.5"/>
<path d="M 8.24,8.94 L 24.54,14.70 L 38.06,10.38 L 52.66,8.78 L 59.55,4.43 L 76.34,9.06 L 85.30,7.30 L 84.97,4.50 L 103.12,6.69 L 102.33,9.06 L 106.58,9.98 L 116.81,7.51 L 128.45,7.93 L 129.68,10.28 L 122.48,11.48 L 123.02,14.25 L 114.82,17.38 L 120.74,19.56 L 117.07,33.32 L 120.08,39.93 L 118.74,44.79 L 123.05,46.70 L 118.93,50.67 L 116.92,60.26 L 104.16,65.59 L 102.07,69.47 L 94.26,72.88 L 93.08,77.48 L 100.80,92.60 L 112.20,95.74 L 118.38,101.62 L 119.90,108.67 L 142.39,119.08 L 157.35,161.17 L 150.00,163.72 L 162.01,175.34 L 167.00,186.29 L 165.45,205.95 L 170.41,216.00 L 163.70,228.23 L 169.54,238.15 L 169.21,242.83 L 167.30,246.22 L 156.18,249.68 L 152.88,253.88 L 172.73,273.00 L 173.49,283.85 L 178.57,286.28 L 180.11,289.81 L 185.41,292.60 L 194.50,290.70 L 221.04,296.61 L 234.51,314.43 L 93.17,374.82 L 39.97,407.31 L 0.00,412.89 L 0.00,8.79 L 8.24,8.94 Z" fill="#C8D8E8" stroke="#8BAABB" stroke-width="0.8"/>
<path d="M 310.13,491.80 L 344.68,465.65 L 353.20,396.95 L 360.58,387.06 L 347.98,377.57 L 347.16,374.41 L 349.21,373.04 L 335.83,360.69 L 335.43,349.22 L 329.38,326.34 L 361.05,316.08 L 612.98,406.25 L 613.08,492.45 L 585.05,492.84 L 579.13,496.56 L 579.84,500.00 L 301.84,500.00 L 310.13,491.80 Z" fill="#C8D8E8" stroke="#8BAABB" stroke-width="0.8"/>
<path d="M 644.49,349.18 L 644.49,185.09 L 635.27,162.22 L 642.17,155.01 L 644.92,148.47 L 640.32,135.60 L 647.86,129.55 L 649.83,128.57 L 651.09,131.42 L 657.74,132.07 L 675.54,129.48 L 718.19,134.86 L 722.15,138.46 L 728.89,139.44 L 734.96,138.07 L 737.29,141.30 L 752.97,141.65 L 771.99,147.51 L 786.96,144.55 L 800.00,138.26 L 800.00,349.20 L 644.49,349.18 Z" fill="#C8D8E8" stroke="#8BAABB" stroke-width="0.8"/>
<path d="M 39.97,407.31 L 93.17,374.82 L 234.51,314.43 L 282.19,322.14 L 305.32,335.00 L 329.38,326.34 L 335.43,349.22 L 335.83,360.69 L 349.21,373.04 L 347.16,374.41 L 347.98,377.57 L 360.58,387.06 L 353.20,396.95 L 344.88,465.15 L 310.13,491.80 L 301.84,500.00 L 0.00,500.00 L 0.00,413.00 L 39.97,407.31 Z" fill="#C8D8E8" stroke="#8BAABB" stroke-width="0.8"/>
<path d="M 579.13,496.56 L 585.05,492.84 L 613.08,492.45 L 612.98,394.85 L 644.46,394.70 L 644.49,349.18 L 800.00,349.20 L 800.00,500.00 L 579.84,500.00 L 579.13,496.56 Z" fill="#C8D8E8" stroke="#8BAABB" stroke-width="0.8"/>
<path d="M 218.16,106.16 L 221.20,110.81 L 199.99,117.60 L 196.83,120.62 L 191.57,121.78 L 188.20,126.56 L 180.79,128.02 L 175.83,133.76 L 180.48,147.17 L 168.42,158.28 L 157.35,161.17 L 142.39,119.08 L 119.90,108.67 L 118.38,101.62 L 112.20,95.74 L 100.80,92.60 L 99.80,87.52 L 93.24,78.36 L 94.26,72.88 L 102.07,69.47 L 104.16,65.59 L 116.92,60.26 L 118.93,50.67 L 123.05,46.70 L 118.74,44.79 L 120.08,39.93 L 117.07,33.32 L 120.74,19.56 L 114.82,17.38 L 123.02,14.25 L 122.48,11.48 L 129.68,10.28 L 128.45,7.93 L 135.44,7.02 L 147.61,1.21 L 155.60,0.00 L 167.03,0.00 L 165.29,1.68 L 166.68,3.08 L 169.78,2.48 L 166.79,1.35 L 168.78,0.53 L 181.05,2.47 L 176.51,2.92 L 179.63,3.86 L 178.22,5.93 L 183.42,9.28 L 178.42,11.17 L 183.67,12.69 L 188.82,12.12 L 190.91,9.38 L 205.59,4.71 L 208.10,9.88 L 197.68,19.06 L 189.84,20.77 L 187.43,26.81 L 192.08,32.98 L 205.28,37.66 L 205.32,44.58 L 209.00,47.22 L 191.29,62.61 L 176.47,67.62 L 172.64,71.16 L 174.72,76.28 L 182.88,81.84 L 187.89,83.11 L 195.06,81.75 L 193.72,85.43 L 195.73,86.97 L 201.13,85.57 L 201.98,83.36 L 205.33,83.78 L 207.20,89.57 L 213.24,91.34 L 208.20,90.78 L 209.64,93.07 L 217.63,93.47 L 215.07,91.98 L 219.90,93.75 L 218.16,106.16 Z M 205.89,79.60 L 200.45,83.27 L 198.51,81.22 L 195.80,81.55 L 195.67,77.68 L 205.89,79.60 Z M 203.58,59.71 L 207.48,59.99 L 205.74,60.87 L 203.58,59.71 Z M 213.34,58.41 L 208.10,59.91 L 212.00,56.20 L 213.34,58.41 Z" fill="#C8D8E8" stroke="#8BAABB" stroke-width="0.8"/>
<path d="M 246.47,101.71 L 261.47,102.36 L 278.08,100.07 L 285.00,102.39 L 304.34,104.41 L 313.30,108.87 L 335.74,111.69 L 341.50,116.73 L 341.39,121.52 L 345.46,128.38 L 354.00,134.70 L 362.92,137.27 L 391.19,139.37 L 419.76,145.30 L 431.10,148.83 L 445.11,156.75 L 457.83,160.32 L 475.46,156.77 L 490.69,145.04 L 492.16,138.61 L 484.94,126.22 L 489.80,116.69 L 505.27,107.98 L 520.66,103.09 L 532.12,102.61 L 538.69,99.33 L 555.27,99.08 L 585.41,106.11 L 586.76,109.81 L 584.60,113.10 L 591.90,117.01 L 591.49,115.60 L 603.16,116.54 L 616.43,120.59 L 636.69,119.97 L 645.64,121.89 L 650.00,128.42 L 640.32,135.60 L 644.92,148.47 L 635.26,163.10 L 644.49,185.09 L 644.35,394.84 L 612.98,394.85 L 612.98,406.25 L 361.05,316.08 L 305.32,335.00 L 282.19,322.14 L 234.51,314.43 L 220.01,296.24 L 195.18,290.79 L 185.41,292.60 L 180.68,290.24 L 178.57,286.28 L 173.49,283.85 L 172.73,273.00 L 152.88,253.88 L 156.18,249.68 L 167.90,245.76 L 169.66,238.48 L 163.72,227.85 L 170.46,215.11 L 165.45,205.95 L 167.00,186.29 L 162.01,175.34 L 150.00,163.72 L 168.42,158.28 L 178.53,149.70 L 180.99,145.48 L 175.83,133.76 L 180.79,128.02 L 188.20,126.56 L 191.57,121.78 L 196.83,120.62 L 199.99,117.60 L 221.20,110.81 L 218.16,106.16 L 219.90,93.75 L 246.47,101.71 Z" fill="#4A90D9" stroke="#1a5fa8" stroke-width="1.2"/>
</svg>