<svg xmlns="http://www.w3.org/2000/svg" width="800" height="500" viewBox="0 0 800 500">
<rect width="800" height="500" fill="#A8C8E8"/>
<path d="M 445.93,329.24 L 479.42,329.22 L 592.23,413.11 L 592.39,420.93 L 600.04,423.97 L 604.17,430.29 L 609.71,432.25 L 612.16,430.94 L 615.94,435.62 L 631.03,440.71 L 632.20,450.02 L 629.24,455.47 L 632.66,458.48 L 641.68,456.88 L 641.68,500.00 L 463.09,500.00 L 445.93,329.24 Z" fill="#E8E0D0" stroke="#B8B0A0" stroke-width="0.5"/>
<path d="M 433.13,33.14 L 431.45,39.42 L 436.28,45.29 L 439.23,44.80 L 437.79,48.55 L 433.08,49.53 L 428.23,58.36 L 430.53,67.03 L 422.75,70.61 L 408.37,67.91 L 400.47,70.12 L 405.12,54.83 L 404.05,55.00 L 404.12,51.15 L 402.42,50.06 L 404.70,45.01 L 404.31,41.29 L 401.52,38.66 L 404.24,39.85 L 407.87,40.01 L 405.42,39.30 L 404.72,36.85 L 404.43,38.66 L 402.21,37.99 L 396.07,40.01 L 396.96,37.15 L 395.66,34.70 L 398.40,34.84 L 401.52,32.32 L 400.21,29.35 L 404.87,25.38 L 401.64,26.61 L 398.54,31.15 L 398.31,33.65 L 391.52,33.90 L 391.03,31.59 L 393.80,23.24 L 392.70,19.41 L 396.32,18.74 L 398.72,15.01 L 402.92,3.25 L 404.50,3.39 L 402.16,1.62 L 402.67,0.00 L 439.96,0.00 L 437.42,2.04 L 440.51,5.75 L 437.84,12.54 L 427.70,12.84 L 432.31,17.63 L 433.62,23.27 L 438.51,26.05 L 436.26,31.21 L 433.13,33.14 Z M 257.96,166.28 L 257.86,165.80 L 258.53,166.58 L 258.90,167.71 L 257.96,166.28 Z M 249.65,164.36 L 244.44,160.75 L 245.71,159.47 L 255.39,161.96 L 249.65,164.36 Z M 260.58,155.90 L 262.65,154.42 L 262.90,155.46 L 260.58,155.90 Z M 421.98,70.57 L 422.11,70.86 L 421.15,71.31 L 420.17,71.00 L 421.98,70.57 Z M 267.67,220.70 L 267.68,220.76 L 267.60,220.76 L 267.67,220.70 Z M 270.84,218.23 L 270.76,218.52 L 270.48,218.42 L 270.84,218.23 Z M 399.65,30.74 L 398.93,31.36 L 399.27,30.67 L 399.65,30.74 Z" fill="#E8E0D0" stroke="#B8B0A0" stroke-width="0.5"/>
<path d="M 469.64,89.08 L 469.58,89.74 L 469.42,89.55 L 469.64,89.08 Z" fill="#E8E0D0" stroke="#B8B0A0" stroke-width="0.5"/>
<path d="M 479.42,329.22 L 445.93,329.24 L 463.09,500.00 L 263.27,500.00 L 266.62,489.74 L 267.44,476.89 L 264.24,458.76 L 257.99,450.18 L 261.32,449.43 L 262.73,446.98 L 260.71,448.39 L 261.22,446.77 L 259.32,449.50 L 263.69,441.29 L 263.42,438.94 L 262.19,439.22 L 263.90,436.77 L 263.17,433.92 L 264.29,431.82 L 259.28,422.85 L 260.39,422.30 L 258.11,420.92 L 257.86,424.76 L 255.39,422.25 L 250.77,411.87 L 248.13,420.32 L 249.81,408.30 L 324.53,408.11 L 321.94,376.09 L 324.53,371.82 L 332.01,366.37 L 343.36,362.28 L 343.43,307.68 L 406.34,307.57 L 406.44,279.88 L 479.42,329.22 Z M 261.57,439.68 L 259.94,445.43 L 259.34,443.64 L 261.57,439.68 Z M 262.41,442.82 L 260.59,445.46 L 261.33,443.79 L 262.41,442.82 Z M 259.20,443.31 L 258.96,443.79 L 258.72,443.19 L 259.20,443.31 Z M 259.67,423.76 L 259.53,424.54 L 259.15,424.04 L 259.67,423.76 Z" fill="#E8E0D0" stroke="#B8B0A0" stroke-width="0.5"/>
<path d="M 406.44,279.88 L 406.50,249.56 L 426.53,234.55 L 431.63,234.68 L 435.46,231.97 L 442.33,233.32 L 449.33,230.76 L 461.75,229.71 L 462.41,231.67 L 465.85,231.67 L 472.72,221.88 L 487.91,210.43 L 501.65,206.07 L 501.38,203.36 L 503.37,200.80 L 500.02,196.05 L 497.92,196.18 L 498.44,192.58 L 501.12,191.46 L 501.38,185.89 L 517.11,182.73 L 515.01,177.26 L 516.10,176.66 L 523.00,175.46 L 547.68,176.37 L 547.96,175.16 L 545.81,174.70 L 547.04,170.61 L 551.05,167.65 L 543.65,162.31 L 541.09,158.19 L 542.21,155.46 L 538.91,151.63 L 539.99,144.81 L 537.54,141.63 L 539.00,133.51 L 536.35,127.19 L 538.37,124.88 L 535.19,122.36 L 537.11,119.24 L 529.09,113.59 L 528.55,111.74 L 537.27,110.88 L 546.08,105.81 L 551.03,98.96 L 555.41,96.99 L 558.72,98.09 L 561.50,94.49 L 568.99,96.55 L 577.03,87.69 L 596.02,80.38 L 615.01,78.37 L 619.72,79.28 L 626.01,74.70 L 629.92,76.14 L 631.57,74.62 L 636.35,75.38 L 641.68,73.22 L 641.68,457.13 L 633.57,458.91 L 629.24,455.47 L 632.20,450.02 L 631.03,440.71 L 615.94,435.62 L 612.16,430.94 L 609.71,432.25 L 604.17,430.29 L 600.04,423.97 L 592.39,420.93 L 592.23,413.11 L 479.42,329.22 L 406.44,279.88 Z" fill="#C8D8E8" stroke="#8BAABB" stroke-width="0.8"/>
<path d="M 406.44,271.78 L 406.34,307.57 L 343.43,307.68 L 343.36,362.28 L 332.01,366.37 L 324.53,371.82 L 321.94,376.09 L 324.53,408.11 L 249.99,408.13 L 248.13,420.32 L 247.23,418.26 L 248.95,406.25 L 267.35,404.52 L 287.58,405.81 L 291.74,404.52 L 294.39,399.14 L 294.01,396.76 L 301.75,387.08 L 304.03,370.06 L 307.99,357.33 L 318.96,351.08 L 325.01,340.54 L 335.59,332.78 L 342.59,307.78 L 349.07,305.34 L 356.26,293.94 L 355.22,288.55 L 367.22,285.61 L 376.79,289.04 L 380.93,287.96 L 384.99,289.27 L 392.64,284.13 L 404.33,283.44 L 403.89,271.78 L 406.44,271.78 Z" fill="#C8D8E8" stroke="#8BAABB" stroke-width="0.8"/>
<path d="M 468.89,94.67 L 468.51,93.75 L 470.69,94.03 L 468.89,94.67 Z M 515.32,107.46 L 515.50,107.70 L 514.54,107.50 L 515.32,107.46 Z M 564.45,16.37 L 567.57,27.44 L 574.99,33.04 L 560.92,41.74 L 561.03,44.57 L 558.77,45.53 L 556.18,53.43 L 554.38,54.58 L 557.23,57.23 L 545.54,58.47 L 538.98,62.75 L 536.29,66.12 L 534.64,71.85 L 530.36,76.26 L 525.92,74.10 L 522.15,74.48 L 519.18,77.43 L 515.11,75.93 L 487.33,76.53 L 482.49,81.19 L 472.52,83.26 L 469.64,89.08 L 468.00,88.25 L 467.75,90.77 L 464.48,91.98 L 456.45,88.04 L 451.28,80.62 L 452.77,81.94 L 453.75,81.06 L 449.68,78.40 L 448.95,75.94 L 450.61,75.00 L 450.75,73.08 L 452.92,72.68 L 453.46,72.04 L 450.63,72.71 L 449.81,74.71 L 447.70,71.45 L 440.26,66.99 L 441.02,64.22 L 438.95,65.54 L 439.59,66.87 L 430.40,66.42 L 428.52,57.62 L 433.08,49.53 L 437.79,48.55 L 439.23,44.80 L 436.28,45.29 L 431.45,39.42 L 433.13,33.14 L 437.18,30.61 L 438.74,27.19 L 433.36,22.94 L 432.31,17.63 L 427.70,12.84 L 437.84,12.54 L 440.51,5.75 L 437.42,2.04 L 439.96,0.00 L 576.31,0.00 L 564.45,16.37 Z M 232.59,268.48 L 230.69,272.19 L 227.27,270.47 L 231.55,267.67 L 232.59,268.48 Z M 279.87,267.67 L 276.09,270.21 L 271.49,266.17 L 273.66,260.88 L 279.28,260.61 L 279.87,267.67 Z M 245.19,260.06 L 247.35,262.31 L 244.33,263.95 L 242.72,262.38 L 243.35,260.02 L 245.19,260.06 Z M 257.79,263.97 L 255.02,264.49 L 250.79,256.84 L 258.52,255.35 L 262.13,252.16 L 265.88,252.16 L 261.39,256.27 L 257.79,263.97 Z M 309.24,249.79 L 307.17,259.22 L 299.43,263.39 L 296.33,262.95 L 301.67,259.77 L 306.43,248.63 L 309.24,249.79 Z M 235.58,248.74 L 233.38,254.67 L 230.36,247.68 L 231.98,246.05 L 234.92,246.85 L 235.58,248.74 Z M 316.92,238.44 L 315.71,242.95 L 310.18,246.39 L 308.43,245.85 L 309.73,241.90 L 314.66,239.96 L 315.69,237.77 L 316.92,238.44 Z M 315.52,237.71 L 314.59,238.00 L 315.21,236.70 L 315.52,237.71 Z M 556.57,55.44 L 556.83,56.25 L 556.44,55.85 L 556.30,53.89 L 556.57,55.44 Z M 600.45,34.96 L 596.70,35.20 L 597.62,32.77 L 600.45,34.96 Z M 601.24,26.86 L 597.08,31.10 L 593.56,29.96 L 596.21,25.82 L 600.92,25.52 L 601.24,26.86 Z M 636.24,11.34 L 635.85,13.28 L 632.04,19.17 L 628.42,21.69 L 626.49,19.66 L 623.24,19.39 L 621.25,15.45 L 617.68,17.36 L 615.00,15.07 L 623.74,8.69 L 630.66,6.62 L 629.10,7.81 L 631.18,8.25 L 629.85,10.49 L 636.24,11.34 Z M 626.55,24.99 L 625.64,24.21 L 626.90,23.49 L 626.55,24.99 Z M 489.30,109.95 L 489.34,109.96 L 489.24,109.95 L 489.30,109.95 Z M 496.79,109.02 L 496.80,109.03 L 496.79,109.04 L 496.79,109.02 Z M 496.84,108.97 L 496.84,108.99 L 496.81,108.99 L 496.84,108.97 Z M 524.64,109.66 L 524.69,109.74 L 524.60,109.82 L 524.64,109.66 Z M 468.18,93.99 L 468.15,94.04 L 468.09,93.97 L 468.18,93.99 Z" fill="#C8D8E8" stroke="#8BAABB" stroke-width="0.8"/>
<path d="M 404.33,283.44 L 392.64,284.13 L 384.99,289.27 L 380.93,287.96 L 376.79,289.04 L 367.22,285.61 L 355.22,288.55 L 356.26,293.94 L 349.07,305.34 L 342.59,307.78 L 335.59,332.78 L 325.01,340.54 L 318.96,351.08 L 307.99,357.33 L 304.03,370.06 L 301.75,387.08 L 294.01,396.76 L 294.39,399.14 L 291.74,404.52 L 287.58,405.81 L 267.35,404.52 L 248.95,406.25 L 250.70,395.23 L 254.75,387.82 L 259.29,385.62 L 262.64,374.37 L 265.02,372.35 L 264.08,370.17 L 272.41,355.23 L 272.36,352.56 L 268.21,358.31 L 269.25,355.52 L 288.99,335.46 L 290.43,322.00 L 296.20,308.93 L 297.11,303.39 L 314.21,291.43 L 321.58,271.27 L 325.72,266.02 L 342.56,262.57 L 353.45,257.47 L 361.43,248.27 L 370.68,243.14 L 376.83,236.49 L 388.05,218.66 L 388.87,212.68 L 383.64,207.43 L 385.07,203.57 L 384.41,191.18 L 395.18,174.07 L 395.52,165.87 L 409.33,150.97 L 428.24,143.13 L 441.60,134.36 L 451.62,116.24 L 458.52,96.85 L 468.51,93.75 L 471.33,101.07 L 474.79,104.67 L 480.38,108.48 L 487.84,110.40 L 496.47,107.92 L 498.97,109.16 L 500.63,107.40 L 507.82,109.32 L 512.39,107.47 L 514.45,104.05 L 516.57,110.84 L 518.61,111.17 L 516.15,108.36 L 520.15,111.34 L 527.55,111.31 L 537.11,119.24 L 535.19,122.36 L 538.37,124.88 L 536.35,127.19 L 539.00,133.51 L 537.54,141.63 L 539.99,144.81 L 538.91,151.63 L 542.21,155.46 L 541.09,158.19 L 543.65,162.31 L 551.05,167.65 L 547.04,170.61 L 545.81,174.70 L 547.96,175.16 L 547.68,176.37 L 523.00,175.46 L 516.10,176.66 L 515.01,177.26 L 517.11,182.73 L 501.38,185.89 L 501.12,191.46 L 498.44,192.58 L 497.92,196.18 L 500.02,196.05 L 503.37,200.80 L 501.38,203.36 L 501.65,206.07 L 487.91,210.43 L 472.72,221.88 L 465.85,231.67 L 462.41,231.67 L 461.75,229.71 L 451.97,230.46 L 442.33,233.32 L 435.46,231.97 L 431.63,234.68 L 425.88,234.83 L 406.72,249.15 L 406.44,271.78 L 403.89,271.78 L 404.33,283.44 Z" fill="#4A90D9" stroke="#1a5fa8" stroke-width="1.2"/>
<path d="M 470.81,10.62 L 460.91,10.77 L 457.22,9.14 L 463.90,10.29 L 468.88,7.96 L 470.41,10.19 L 471.86,9.89 L 470.81,10.62 Z" fill="#A8C8E8" stroke="none"/>
<path d="M 475.60,19.73 L 476.00,19.79 L 474.82,21.61 L 475.60,19.73 Z" fill="#A8C8E8" stroke="none"/>
<path d="M 472.95,22.84 L 472.63,24.06 L 473.02,21.40 L 474.82,21.61 L 472.95,22.84 Z" fill="#A8C8E8" stroke="none"/>
<path d="M 475.09,18.44 L 476.87,18.33 L 478.98,19.03 L 476.81,18.83 L 480.40,22.13 L 475.09,18.44 Z" fill="#A8C8E8" stroke="none"/>
</svg>