<svg xmlns="http://www.w3.org/2000/svg" width="800" height="500" viewBox="0 0 800 500">
<rect width="800" height="500" fill="#A8C8E8"/>
<path d="M 476.02,329.24 L 531.44,329.22 L 718.16,413.11 L 718.41,420.93 L 731.08,423.97 L 737.92,430.29 L 747.09,432.25 L 751.14,430.94 L 757.39,435.62 L 782.36,440.71 L 784.30,450.02 L 779.40,455.47 L 785.06,458.48 L 800.00,456.88 L 800.00,500.00 L 504.42,500.00 L 476.02,329.24 Z" fill="#E8E0D0" stroke="#B8B0A0" stroke-width="0.5"/>
<path d="M 454.83,33.14 L 452.05,39.42 L 460.05,45.29 L 464.93,44.80 L 462.54,48.55 L 454.76,49.53 L 446.72,58.36 L 450.53,67.03 L 437.65,70.61 L 413.85,67.91 L 400.78,70.12 L 408.47,54.83 L 406.70,55.00 L 406.82,51.15 L 404.01,50.06 L 407.77,45.01 L 407.13,41.29 L 402.51,38.66 L 407.02,39.85 L 413.02,40.01 L 408.97,39.30 L 407.81,36.85 L 407.34,38.66 L 403.66,37.99 L 393.50,40.01 L 394.97,37.15 L 392.81,34.70 L 397.34,34.84 L 402.51,32.32 L 400.35,29.35 L 408.06,25.38 L 402.72,26.61 L 397.58,31.15 L 397.20,33.65 L 385.96,33.90 L 385.15,31.59 L 389.74,23.24 L 387.91,19.41 L 393.91,18.74 L 397.89,15.01 L 404.84,3.25 L 407.44,3.39 L 403.58,1.62 L 404.41,0.00 L 466.14,0.00 L 461.94,2.04 L 467.05,5.75 L 462.63,12.54 L 445.85,12.84 L 453.48,17.63 L 455.65,23.27 L 463.73,26.05 L 460.01,31.21 L 454.83,33.14 Z M 164.92,166.28 L 164.75,165.80 L 165.86,166.58 L 166.48,167.71 L 164.92,166.28 Z M 151.16,164.36 L 142.54,160.75 L 144.65,159.47 L 160.67,161.96 L 151.16,164.36 Z M 169.25,155.90 L 172.67,154.42 L 173.10,155.46 L 169.25,155.90 Z M 436.38,70.57 L 436.59,70.86 L 435.01,71.31 L 433.39,71.00 L 436.38,70.57 Z M 180.99,220.70 L 181.00,220.76 L 180.86,220.76 L 180.99,220.70 Z M 186.24,218.23 L 186.10,218.52 L 185.63,218.42 L 186.24,218.23 Z M 399.42,30.74 L 398.22,31.36 L 398.79,30.67 L 399.42,30.74 Z" fill="#E8E0D0" stroke="#B8B0A0" stroke-width="0.5"/>
<path d="M 515.26,89.08 L 515.16,89.74 L 514.90,89.55 L 515.26,89.08 Z" fill="#E8E0D0" stroke="#B8B0A0" stroke-width="0.5"/>
<path d="M 531.44,329.22 L 476.02,329.24 L 504.42,500.00 L 173.71,500.00 L 179.25,489.74 L 180.61,476.89 L 175.32,458.76 L 164.96,450.18 L 170.48,449.43 L 172.80,446.98 L 169.47,448.39 L 170.31,446.77 L 167.17,449.50 L 174.40,441.29 L 173.96,438.94 L 171.91,439.22 L 174.76,436.77 L 173.55,433.92 L 175.39,431.82 L 167.10,422.85 L 168.93,422.30 L 165.16,420.92 L 164.75,424.76 L 160.67,422.25 L 153.01,411.87 L 148.65,420.32 L 151.42,408.30 L 275.10,408.11 L 270.81,376.09 L 275.10,371.82 L 287.48,366.37 L 306.25,362.28 L 306.38,307.68 L 410.49,307.57 L 410.65,279.88 L 531.44,329.22 Z M 170.89,439.68 L 168.19,445.43 L 167.20,443.64 L 170.89,439.68 Z M 172.28,442.82 L 169.27,445.46 L 170.50,443.79 L 172.28,442.82 Z M 166.96,443.31 L 166.57,443.79 L 166.17,443.19 L 166.96,443.31 Z M 167.75,423.76 L 167.51,424.54 L 166.88,424.04 L 167.75,423.76 Z" fill="#E8E0D0" stroke="#B8B0A0" stroke-width="0.5"/>
<path d="M 410.65,279.88 L 410.77,249.56 L 443.91,234.55 L 452.35,234.68 L 458.69,231.97 L 470.06,233.32 L 481.65,230.76 L 502.20,229.71 L 503.29,231.67 L 508.98,231.67 L 520.35,221.88 L 545.49,210.43 L 568.23,206.07 L 567.80,203.36 L 571.08,200.80 L 565.55,196.05 L 562.06,196.18 L 562.93,192.58 L 567.36,191.46 L 567.80,185.89 L 593.82,182.73 L 590.35,177.26 L 592.15,176.66 L 603.57,175.46 L 644.42,176.37 L 644.88,175.16 L 641.32,174.70 L 643.36,170.61 L 650.00,167.65 L 637.76,162.31 L 633.52,158.19 L 635.37,155.46 L 629.91,151.63 L 631.69,144.81 L 627.64,141.63 L 630.05,133.51 L 625.67,127.19 L 629.01,124.88 L 623.75,122.36 L 626.93,119.24 L 613.65,113.59 L 612.75,111.74 L 627.19,110.88 L 641.78,105.81 L 649.97,98.96 L 657.21,96.99 L 662.69,98.09 L 667.29,94.49 L 679.69,96.55 L 693.00,87.69 L 724.42,80.38 L 755.86,78.37 L 763.65,79.28 L 774.05,74.70 L 780.53,76.14 L 783.26,74.62 L 791.18,75.38 L 800.00,73.22 L 800.00,457.13 L 786.56,458.91 L 779.40,455.47 L 784.30,450.02 L 782.36,440.71 L 757.39,435.62 L 751.14,430.94 L 747.09,432.25 L 737.92,430.29 L 731.08,423.97 L 718.41,420.93 L 718.16,413.11 L 531.44,329.22 L 410.65,279.88 Z" fill="#C8D8E8" stroke="#8BAABB" stroke-width="0.8"/>
<path d="M 410.65,271.78 L 410.49,307.57 L 306.38,307.68 L 306.25,362.28 L 287.48,366.37 L 275.10,371.82 L 270.81,376.09 L 275.10,408.11 L 151.72,408.13 L 148.65,420.32 L 147.16,418.26 L 150.00,406.25 L 180.46,404.52 L 213.93,405.81 L 220.82,404.52 L 225.21,399.14 L 224.58,396.76 L 237.40,387.08 L 241.16,370.06 L 247.72,357.33 L 265.87,351.08 L 275.88,340.54 L 293.40,332.78 L 304.98,307.78 L 315.70,305.34 L 327.60,293.94 L 325.89,288.55 L 345.75,285.61 L 361.59,289.04 L 368.44,287.96 L 375.16,289.27 L 387.82,284.13 L 407.16,283.44 L 406.44,271.78 L 410.65,271.78 Z" fill="#C8D8E8" stroke="#8BAABB" stroke-width="0.8"/>
<path d="M 514.02,94.67 L 513.38,93.75 L 517.00,94.03 L 514.02,94.67 Z M 590.87,107.46 L 591.15,107.70 L 589.56,107.50 L 590.87,107.46 Z M 672.17,16.37 L 677.34,27.44 L 689.62,33.04 L 666.34,41.74 L 666.52,44.57 L 662.77,45.53 L 658.49,53.43 L 655.50,54.58 L 660.22,57.23 L 640.87,58.47 L 630.01,62.75 L 625.57,66.12 L 622.83,71.85 L 615.75,76.26 L 608.40,74.10 L 602.17,74.48 L 597.24,77.43 L 590.52,75.93 L 544.53,76.53 L 536.52,81.19 L 520.02,83.26 L 515.26,89.08 L 512.55,88.25 L 512.14,90.77 L 506.72,91.98 L 493.42,88.04 L 484.87,80.62 L 487.33,81.94 L 488.96,81.06 L 482.22,78.40 L 481.02,75.94 L 483.76,75.00 L 483.99,73.08 L 487.59,72.68 L 488.48,72.04 L 483.79,72.71 L 482.43,74.71 L 478.94,71.45 L 466.64,66.99 L 467.90,64.22 L 464.46,65.54 L 465.53,66.87 L 450.32,66.42 L 447.20,57.62 L 454.76,49.53 L 462.54,48.55 L 464.93,44.80 L 460.05,45.29 L 452.05,39.42 L 454.83,33.14 L 461.53,30.61 L 464.12,27.19 L 455.21,22.94 L 453.48,17.63 L 445.85,12.84 L 462.63,12.54 L 467.05,5.75 L 461.94,2.04 L 466.14,0.00 L 691.80,0.00 L 672.17,16.37 Z M 122.92,268.48 L 119.79,272.19 L 114.13,270.47 L 121.21,267.67 L 122.92,268.48 Z M 201.18,267.67 L 194.92,270.21 L 187.31,266.17 L 190.91,260.88 L 200.20,260.61 L 201.18,267.67 Z M 143.77,260.06 L 147.35,262.31 L 142.36,263.95 L 139.69,262.38 L 140.74,260.02 L 143.77,260.06 Z M 164.64,263.97 L 160.04,264.49 L 153.06,256.84 L 165.85,255.35 L 171.82,252.16 L 178.03,252.16 L 170.59,256.27 L 164.64,263.97 Z M 249.78,249.79 L 246.36,259.22 L 233.55,263.39 L 228.42,262.95 L 237.27,259.77 L 245.14,248.63 L 249.78,249.79 Z M 127.87,248.74 L 124.24,254.67 L 119.24,247.68 L 121.92,246.05 L 126.79,246.85 L 127.87,248.74 Z M 262.50,238.44 L 260.49,242.95 L 251.34,246.39 L 248.44,245.85 L 250.59,241.90 L 258.77,239.96 L 260.46,237.77 L 262.50,238.44 Z M 260.18,237.71 L 258.64,238.00 L 259.67,236.70 L 260.18,237.71 Z M 659.13,55.44 L 659.56,56.25 L 658.92,55.85 L 658.68,53.89 L 659.13,55.44 Z M 731.76,34.96 L 725.55,35.20 L 727.07,32.77 L 731.76,34.96 Z M 733.07,26.86 L 726.18,31.10 L 720.35,29.96 L 724.73,25.82 L 732.53,25.52 L 733.07,26.86 Z M 790.99,11.34 L 790.34,13.28 L 784.05,19.17 L 778.05,21.69 L 774.86,19.66 L 769.47,19.39 L 766.18,15.45 L 760.27,17.36 L 755.83,15.07 L 770.30,8.69 L 781.76,6.62 L 779.18,7.81 L 782.61,8.25 L 780.41,10.49 L 790.99,11.34 Z M 774.96,24.99 L 773.44,24.21 L 775.54,23.49 L 774.96,24.99 Z M 547.80,109.95 L 547.86,109.96 L 547.70,109.95 L 547.80,109.95 Z M 560.20,109.02 L 560.21,109.03 L 560.19,109.04 L 560.20,109.02 Z M 560.27,108.97 L 560.28,108.99 L 560.23,108.99 L 560.27,108.97 Z M 606.28,109.66 L 606.37,109.74 L 606.22,109.82 L 606.28,109.66 Z M 512.84,93.99 L 512.78,94.04 L 512.69,93.97 L 512.84,93.99 Z" fill="#C8D8E8" stroke="#8BAABB" stroke-width="0.8"/>
<path d="M 407.16,283.44 L 387.82,284.13 L 375.16,289.27 L 368.44,287.96 L 361.59,289.04 L 345.75,285.61 L 325.89,288.55 L 327.60,293.94 L 315.70,305.34 L 304.98,307.78 L 293.40,332.78 L 275.88,340.54 L 265.87,351.08 L 247.72,357.33 L 241.16,370.06 L 237.40,387.08 L 224.58,396.76 L 225.21,399.14 L 220.82,404.52 L 213.93,405.81 L 180.46,404.52 L 150.00,406.25 L 152.90,395.23 L 159.60,387.82 L 167.12,385.62 L 172.65,374.37 L 176.61,372.35 L 175.05,370.17 L 188.83,355.23 L 188.75,352.56 L 181.88,358.31 L 183.61,355.52 L 216.27,335.46 L 218.66,322.00 L 228.21,308.93 L 229.70,303.39 L 258.02,291.43 L 270.21,271.27 L 277.06,266.02 L 304.94,262.57 L 322.95,257.47 L 336.17,248.27 L 351.48,243.14 L 361.66,236.49 L 380.22,218.66 L 381.58,212.68 L 372.92,207.43 L 375.28,203.57 L 374.20,191.18 L 392.03,174.07 L 392.58,165.87 L 415.45,150.97 L 446.73,143.13 L 468.85,134.36 L 485.43,116.24 L 496.85,96.85 L 513.38,93.75 L 518.06,101.07 L 523.78,104.67 L 533.04,108.48 L 545.38,110.40 L 559.67,107.92 L 563.79,109.16 L 566.54,107.40 L 578.44,109.32 L 586.02,107.47 L 589.41,104.05 L 592.93,110.84 L 596.31,111.17 L 592.23,108.36 L 598.86,111.34 L 611.10,111.31 L 626.93,119.24 L 623.75,122.36 L 629.01,124.88 L 625.67,127.19 L 630.05,133.51 L 627.64,141.63 L 631.69,144.81 L 629.91,151.63 L 635.37,155.46 L 633.52,158.19 L 637.76,162.31 L 650.00,167.65 L 643.36,170.61 L 641.32,174.70 L 644.88,175.16 L 644.42,176.37 L 603.57,175.46 L 592.15,176.66 L 590.35,177.26 L 593.82,182.73 L 567.80,185.89 L 567.36,191.46 L 562.93,192.58 L 562.06,196.18 L 565.55,196.05 L 571.08,200.80 L 567.80,203.36 L 568.23,206.07 L 545.49,210.43 L 520.35,221.88 L 508.98,231.67 L 503.29,231.67 L 502.20,229.71 L 486.02,230.46 L 470.06,233.32 L 458.69,231.97 L 452.35,234.68 L 442.84,234.83 L 411.11,249.15 L 410.65,271.78 L 406.44,271.78 L 407.16,283.44 Z" fill="#4A90D9" stroke="#1a5fa8" stroke-width="1.2"/>
<path d="M 517.20,10.62 L 500.81,10.77 L 494.71,9.14 L 505.77,10.29 L 513.99,7.96 L 516.53,10.19 L 518.93,9.89 L 517.20,10.62 Z" fill="#A8C8E8" stroke="none"/>
<path d="M 525.12,19.73 L 525.78,19.79 L 523.83,21.61 L 525.12,19.73 Z" fill="#A8C8E8" stroke="none"/>
<path d="M 520.74,22.84 L 520.21,24.06 L 520.85,21.40 L 523.83,21.61 L 520.74,22.84 Z" fill="#A8C8E8" stroke="none"/>
<path d="M 524.29,18.44 L 527.22,18.33 L 530.71,19.03 L 527.12,18.83 L 533.06,22.13 L 524.29,18.44 Z" fill="#A8C8E8" stroke="none"/>
</svg>