<svg xmlns="http://www.w3.org/2000/svg" width="800" height="500" viewBox="0 0 800 500">
<rect width="800" height="500" fill="#A8C8E8"/>
<path d="M 362.65,19.85 L 311.54,37.08 L 327.64,67.65 L 357.19,81.04 L 362.61,102.48 L 351.85,102.75 L 337.84,126.05 L 347.11,141.32 L 341.27,151.35 L 354.44,171.72 L 393.75,189.92 L 430.40,181.98 L 434.27,198.97 L 410.33,230.50 L 410.17,246.27 L 373.50,263.43 L 372.07,279.17 L 352.11,281.35 L 344.42,298.92 L 326.04,302.01 L 310.20,323.72 L 321.77,323.09 L 320.24,334.25 L 285.87,351.55 L 265.31,348.74 L 263.83,360.13 L 236.83,344.80 L 227.31,358.74 L 219.38,350.62 L 219.38,0.00 L 370.30,0.00 L 362.65,19.85 Z M 546.91,479.34 L 531.26,463.07 L 543.72,454.82 L 549.33,431.50 L 580.62,415.30 L 580.62,500.00 L 542.17,500.00 L 533.14,489.40 L 546.91,479.34 Z M 271.97,365.33 L 262.26,365.79 L 263.27,364.34 L 271.97,365.33 Z" fill="#E8E0D0" stroke="#B8B0A0" stroke-width="0.5"/>
<path d="M 555.33,141.97 L 521.89,161.95 L 476.92,225.63 L 413.09,241.96 L 410.33,230.50 L 434.27,198.97 L 430.40,181.98 L 394.84,190.17 L 353.38,170.51 L 337.84,126.05 L 351.85,102.75 L 362.61,102.48 L 356.94,80.12 L 327.64,67.65 L 311.54,37.08 L 368.62,12.74 L 371.79,0.00 L 580.62,0.00 L 580.62,151.87 L 555.33,141.97 Z" fill="#E8E0D0" stroke="#B8B0A0" stroke-width="0.5"/>
<path d="M 402.03,253.56 L 397.67,252.81 L 402.33,246.44 L 402.03,253.56 Z" fill="#4A90D9" stroke="#1a5fa8" stroke-width="1.2"/>
</svg>