<svg xmlns="http://www.w3.org/2000/svg" width="800" height="500" viewBox="0 0 800 500">
<rect width="800" height="500" fill="#A8C8E8"/>
<path d="M 86.70,144.52 L 105.26,121.88 L 160.05,115.39 L 195.57,122.63 L 228.39,145.56 L 244.38,175.55 L 286.32,199.60 L 285.82,208.41 L 356.50,248.39 L 379.99,282.11 L 381.69,306.36 L 362.18,326.39 L 358.44,349.08 L 370.58,388.60 L 355.52,392.62 L 393.67,420.61 L 447.72,430.53 L 460.90,428.75 L 459.06,420.76 L 479.00,425.14 L 534.81,408.10 L 570.04,413.16 L 588.52,437.27 L 576.90,468.32 L 511.19,476.29 L 489.08,486.16 L 485.41,480.37 L 508.71,474.26 L 495.25,467.90 L 504.72,457.09 L 486.59,452.73 L 470.39,459.85 L 481.31,478.27 L 458.24,490.26 L 474.42,483.28 L 484.35,484.91 L 487.21,487.57 L 454.51,492.59 L 454.56,500.00 L 0.00,500.00 L 0.00,151.05 L 86.70,144.52 Z M 478.30,493.23 L 469.42,500.00 L 468.31,500.00 L 478.30,493.23 Z" fill="#C8D8E8" stroke="#8BAABB" stroke-width="0.8"/>
<path d="M 743.79,293.43 L 741.20,309.61 L 724.04,314.97 L 701.59,342.28 L 650.98,369.23 L 649.41,361.83 L 644.73,369.74 L 620.79,369.85 L 621.65,379.12 L 603.16,377.74 L 611.37,384.83 L 593.39,390.48 L 579.79,368.56 L 572.89,396.19 L 589.59,394.72 L 575.17,404.55 L 596.54,409.75 L 584.96,431.91 L 581.51,418.21 L 550.26,409.49 L 521.44,410.18 L 479.00,425.14 L 459.06,420.76 L 460.90,428.75 L 447.72,430.53 L 393.67,420.61 L 375.06,406.25 L 418.11,401.39 L 414.13,385.97 L 451.73,367.39 L 452.01,355.44 L 482.84,350.46 L 491.16,331.72 L 479.51,323.82 L 481.26,303.58 L 515.19,294.97 L 517.53,313.67 L 532.62,301.80 L 542.30,307.57 L 554.09,300.48 L 576.58,313.19 L 590.60,301.88 L 606.82,315.51 L 650.00,306.88 L 617.32,295.71 L 621.06,266.87 L 568.48,252.81 L 574.66,240.90 L 556.98,235.67 L 566.51,233.19 L 568.18,213.70 L 547.26,218.28 L 511.12,200.67 L 505.69,192.06 L 522.56,157.17 L 506.62,146.29 L 481.91,150.55 L 460.41,132.25 L 428.30,127.78 L 414.92,137.09 L 405.24,126.16 L 391.84,129.81 L 397.58,119.14 L 359.94,119.26 L 357.55,111.24 L 287.34,93.55 L 234.05,106.52 L 180.46,103.34 L 172.27,114.11 L 158.81,109.67 L 105.26,121.88 L 86.70,144.52 L 0.00,151.05 L 0.00,0.00 L 800.00,0.00 L 800.00,288.45 L 743.79,293.43 Z M 642.05,372.06 L 649.20,370.09 L 618.19,385.09 L 603.88,390.48 L 592.99,392.85 L 642.05,372.06 Z" fill="#C8D8E8" stroke="#8BAABB" stroke-width="0.8"/>
<path d="M 158.81,109.67 L 173.88,113.40 L 180.46,103.34 L 234.05,106.52 L 290.44,93.75 L 357.55,111.24 L 359.94,119.26 L 397.58,119.14 L 391.84,129.81 L 405.24,126.16 L 414.92,137.09 L 428.30,127.78 L 460.41,132.25 L 481.91,150.55 L 506.62,146.29 L 522.56,157.17 L 505.69,192.06 L 511.12,200.67 L 547.26,218.28 L 568.18,213.70 L 566.51,233.19 L 556.98,235.67 L 574.66,240.90 L 568.48,252.81 L 621.06,266.87 L 617.32,295.71 L 650.00,306.88 L 606.82,315.51 L 590.60,301.88 L 576.58,313.19 L 554.09,300.48 L 542.30,307.57 L 532.62,301.80 L 517.53,313.67 L 515.19,294.97 L 481.26,303.58 L 479.51,323.82 L 491.16,331.72 L 482.84,350.46 L 452.01,355.44 L 451.73,367.39 L 414.13,385.97 L 418.11,401.39 L 375.06,406.25 L 355.52,392.62 L 370.58,388.60 L 358.44,349.08 L 381.87,286.41 L 358.44,250.15 L 319.15,232.25 L 285.82,208.41 L 286.32,199.60 L 247.64,178.28 L 210.46,130.64 L 176.61,117.10 L 150.00,117.03 L 158.81,109.67 Z" fill="#4A90D9" stroke="#1a5fa8" stroke-width="1.2"/>
<path d="M 692.64,341.94 L 647.99,313.61 L 662.31,309.62 L 673.20,318.51 L 675.30,311.84 L 699.63,334.46 L 692.64,341.94 Z" fill="#A8C8E8" stroke="none"/>
<path d="M 291.60,0.09 L 291.00,0.00 L 291.73,0.00 L 291.60,0.09 Z" fill="#A8C8E8" stroke="none"/>
</svg>