<svg xmlns="http://www.w3.org/2000/svg" width="800" height="500" viewBox="0 0 800 500">
<rect width="800" height="500" fill="#A8C8E8"/>
<path d="M 244.67,144.52 L 253.87,121.88 L 281.04,115.39 L 298.64,122.63 L 314.92,145.56 L 322.84,175.55 L 343.64,199.60 L 343.39,208.41 L 378.43,248.39 L 390.08,282.11 L 390.92,306.36 L 381.25,326.39 L 379.40,349.08 L 385.41,388.60 L 377.95,392.62 L 396.86,420.61 L 423.66,430.53 L 430.19,428.75 L 429.28,420.76 L 439.17,425.14 L 466.84,408.10 L 484.31,413.16 L 493.47,437.27 L 487.70,468.32 L 455.13,476.29 L 444.17,486.16 L 442.35,480.37 L 453.90,474.26 L 447.23,467.90 L 451.92,457.09 L 442.93,452.73 L 434.90,459.85 L 440.31,478.27 L 428.88,490.26 L 436.90,483.28 L 441.82,484.91 L 443.24,487.57 L 427.03,492.59 L 427.05,500.00 L 201.68,500.00 L 201.68,151.05 L 244.67,144.52 Z M 438.82,493.23 L 434.42,500.00 L 433.87,500.00 L 438.82,493.23 Z" fill="#C8D8E8" stroke="#8BAABB" stroke-width="0.8"/>
<path d="M 570.45,293.43 L 569.17,309.61 L 560.66,314.97 L 549.53,342.28 L 524.43,369.23 L 523.66,361.83 L 521.34,369.74 L 509.46,369.85 L 509.90,379.12 L 500.73,377.74 L 504.80,384.83 L 495.88,390.48 L 489.14,368.56 L 485.72,396.19 L 494.00,394.72 L 486.85,404.55 L 497.44,409.75 L 491.70,431.91 L 489.99,418.21 L 474.50,409.49 L 460.21,410.18 L 439.17,425.14 L 429.28,420.76 L 430.19,428.75 L 423.66,430.53 L 396.86,420.61 L 387.64,406.25 L 408.98,401.39 L 407.00,385.97 L 425.65,367.39 L 425.79,355.44 L 441.07,350.46 L 445.20,331.72 L 439.42,323.82 L 440.29,303.58 L 457.11,294.97 L 458.27,313.67 L 465.75,301.80 L 470.55,307.57 L 476.40,300.48 L 487.55,313.19 L 494.50,301.88 L 502.54,315.51 L 523.95,306.88 L 507.75,295.71 L 509.60,266.87 L 483.53,252.81 L 486.59,240.90 L 477.83,235.67 L 482.55,233.19 L 483.38,213.70 L 473.01,218.28 L 455.09,200.67 L 452.40,192.06 L 460.77,157.17 L 452.86,146.29 L 440.61,150.55 L 429.95,132.25 L 414.03,127.78 L 407.40,137.09 L 402.60,126.16 L 395.96,129.81 L 398.80,119.14 L 380.14,119.26 L 378.95,111.24 L 344.14,93.55 L 317.72,106.52 L 291.15,103.34 L 287.09,114.11 L 280.42,109.67 L 253.87,121.88 L 244.67,144.52 L 201.68,151.05 L 201.68,0.00 L 598.32,0.00 L 598.32,288.45 L 570.45,293.43 Z M 520.01,372.06 L 523.55,370.09 L 508.18,385.09 L 501.08,390.48 L 495.68,392.85 L 520.01,372.06 Z" fill="#C8D8E8" stroke="#8BAABB" stroke-width="0.8"/>
<path d="M 280.42,109.67 L 287.89,113.40 L 291.15,103.34 L 317.72,106.52 L 345.68,93.75 L 378.95,111.24 L 380.14,119.26 L 398.80,119.14 L 395.96,129.81 L 402.60,126.16 L 407.40,137.09 L 414.03,127.78 L 429.95,132.25 L 440.61,150.55 L 452.86,146.29 L 460.77,157.17 L 452.40,192.06 L 455.09,200.67 L 473.01,218.28 L 483.38,213.70 L 482.55,233.19 L 477.83,235.67 L 486.59,240.90 L 483.53,252.81 L 509.60,266.87 L 507.75,295.71 L 523.95,306.88 L 502.54,315.51 L 494.50,301.88 L 487.55,313.19 L 476.40,300.48 L 470.55,307.57 L 465.75,301.80 L 458.27,313.67 L 457.11,294.97 L 440.29,303.58 L 439.42,323.82 L 445.20,331.72 L 441.07,350.46 L 425.79,355.44 L 425.65,367.39 L 407.00,385.97 L 408.98,401.39 L 387.64,406.25 L 377.95,392.62 L 385.41,388.60 L 379.40,349.08 L 391.01,286.41 L 379.40,250.15 L 359.91,232.25 L 343.39,208.41 L 343.64,199.60 L 324.46,178.28 L 306.03,130.64 L 289.25,117.10 L 276.05,117.03 L 280.42,109.67 Z" fill="#4A90D9" stroke="#1a5fa8" stroke-width="1.2"/>
<path d="M 545.09,341.94 L 522.95,313.61 L 530.05,309.62 L 535.45,318.51 L 536.49,311.84 L 548.56,334.46 L 545.09,341.94 Z" fill="#A8C8E8" stroke="none"/>
<path d="M 346.26,0.09 L 345.96,0.00 L 346.32,0.00 L 346.26,0.09 Z" fill="#A8C8E8" stroke="none"/>
</svg>