<svg xmlns="http://www.w3.org/2000/svg" width="800" height="500" viewBox="0 0 800 500">
<rect width="800" height="500" fill="#A8C8E8"/>
<path d="M 727.34,382.77 L 747.83,346.45 L 800.00,334.60 L 800.00,500.00 L 699.57,500.00 L 676.62,478.72 L 686.65,452.91 L 662.65,429.63 L 685.28,424.07 L 676.70,400.81 L 693.39,379.08 L 727.34,382.77 Z" fill="#E8E0D0" stroke="#B8B0A0" stroke-width="0.5"/>
<path d="M 577.59,257.22 L 560.27,241.86 L 670.68,225.59 L 666.47,210.83 L 717.84,189.67 L 702.62,172.08 L 750.21,161.91 L 761.24,176.38 L 800.00,183.99 L 800.00,334.60 L 747.83,346.45 L 721.97,383.64 L 693.39,379.08 L 676.80,326.26 L 611.05,309.28 L 567.85,273.83 L 577.59,257.22 Z" fill="#E8E0D0" stroke="#B8B0A0" stroke-width="0.5"/>
<path d="M 676.70,400.81 L 685.28,424.07 L 662.65,429.63 L 686.65,452.91 L 676.62,478.72 L 699.57,500.00 L 422.36,500.00 L 430.76,475.45 L 399.92,450.90 L 430.76,435.29 L 411.84,424.05 L 454.85,420.94 L 449.52,387.58 L 392.88,382.33 L 394.73,342.98 L 369.61,331.03 L 476.43,256.95 L 497.72,285.11 L 561.41,272.11 L 611.05,309.28 L 672.02,323.22 L 701.43,365.43 L 676.70,400.81 Z" fill="#C8D8E8" stroke="#8BAABB" stroke-width="0.8"/>
<path d="M 0.00,216.82 L 0.00,0.00 L 360.45,0.00 L 454.47,38.25 L 433.74,50.33 L 369.80,44.83 L 358.94,53.38 L 417.03,83.93 L 424.00,114.82 L 388.24,107.88 L 279.36,123.75 L 319.02,154.76 L 299.72,161.28 L 256.91,149.67 L 217.69,166.58 L 211.36,199.85 L 164.79,204.05 L 162.75,231.60 L 189.11,254.88 L 174.64,271.02 L 50.43,243.57 L 4.55,217.10 L 0.00,216.82 Z" fill="#C8D8E8" stroke="#8BAABB" stroke-width="0.8"/>
<path d="M 175.71,294.21 L 24.81,235.70 L 0.00,232.50 L 0.00,217.44 L 4.55,217.10 L 16.22,231.61 L 160.94,271.89 L 175.71,294.21 Z" fill="#C8D8E8" stroke="#8BAABB" stroke-width="0.8"/>
<path d="M 761.24,176.38 L 756.46,162.79 L 702.62,172.08 L 712.56,194.85 L 666.47,210.83 L 670.68,225.59 L 637.94,229.98 L 635.88,217.55 L 533.89,185.22 L 451.13,175.48 L 345.58,127.88 L 364.78,111.04 L 424.00,114.82 L 428.45,101.89 L 362.48,46.45 L 433.74,50.33 L 456.33,41.19 L 348.88,0.00 L 800.00,0.00 L 800.00,183.99 L 761.24,176.38 Z" fill="#C8D8E8" stroke="#8BAABB" stroke-width="0.8"/>
<path d="M 160.94,271.89 L 189.11,254.88 L 159.99,210.17 L 211.36,199.85 L 217.69,166.58 L 256.91,149.67 L 299.72,161.28 L 319.02,154.76 L 278.02,126.35 L 295.98,117.67 L 350.44,119.77 L 349.67,131.99 L 451.13,175.48 L 533.89,185.22 L 640.01,220.05 L 597.46,243.25 L 558.23,243.14 L 577.59,257.22 L 547.05,279.46 L 501.96,286.12 L 482.14,258.32 L 457.05,264.73 L 370.34,329.38 L 394.73,342.98 L 392.88,382.33 L 344.17,368.96 L 273.11,314.83 L 246.25,316.85 L 187.90,293.08 L 226.72,297.86 L 223.44,283.81 L 175.71,294.21 L 160.94,271.89 Z" fill="#4A90D9" stroke="#1a5fa8" stroke-width="1.2"/>
<path d="M 363.54,336.78 L 321.08,311.48 L 385.91,319.39 L 410.27,306.33 L 393.05,323.16 L 421.75,341.61 L 363.54,336.78 Z" fill="#A8C8E8" stroke="none"/>
<path d="M 755.79,500.00 L 715.59,500.00 L 715.23,488.24 L 756.30,497.94 L 755.79,500.00 Z" fill="#A8C8E8" stroke="none"/>
</svg>