<svg xmlns="http://www.w3.org/2000/svg" width="800" height="500" viewBox="0 0 800 500">
<rect width="800" height="500" fill="#A8C8E8"/>
<path d="M 550.36,382.77 L 559.77,346.45 L 583.73,334.60 L 583.73,500.00 L 537.60,500.00 L 527.06,478.72 L 531.67,452.91 L 520.64,429.63 L 531.04,424.07 L 527.10,400.81 L 534.76,379.08 L 550.36,382.77 Z" fill="#E8E0D0" stroke="#B8B0A0" stroke-width="0.5"/>
<path d="M 481.57,257.22 L 473.62,241.86 L 524.33,225.59 L 522.40,210.83 L 545.99,189.67 L 539.00,172.08 L 560.86,161.91 L 565.93,176.38 L 583.73,183.99 L 583.73,334.60 L 559.77,346.45 L 547.89,383.64 L 534.76,379.08 L 527.14,326.26 L 496.94,309.28 L 477.10,273.83 L 481.57,257.22 Z" fill="#E8E0D0" stroke="#B8B0A0" stroke-width="0.5"/>
<path d="M 527.10,400.81 L 531.04,424.07 L 520.64,429.63 L 531.67,452.91 L 527.06,478.72 L 537.60,500.00 L 410.27,500.00 L 414.13,475.45 L 399.96,450.90 L 414.13,435.29 L 405.44,424.05 L 425.19,420.94 L 422.74,387.58 L 396.73,382.33 L 397.58,342.98 L 386.04,331.03 L 435.11,256.95 L 444.89,285.11 L 474.14,272.11 L 496.94,309.28 L 524.95,323.22 L 538.45,365.43 L 527.10,400.81 Z" fill="#C8D8E8" stroke="#8BAABB" stroke-width="0.8"/>
<path d="M 216.27,216.82 L 216.27,0.00 L 381.83,0.00 L 425.02,38.25 L 415.50,50.33 L 386.13,44.83 L 381.14,53.38 L 407.82,83.93 L 411.03,114.82 L 394.60,107.88 L 344.59,123.75 L 362.81,154.76 L 353.94,161.28 L 334.27,149.67 L 316.26,166.58 L 313.35,199.85 L 291.96,204.05 L 291.03,231.60 L 303.13,254.88 L 296.49,271.02 L 239.44,243.57 L 218.36,217.10 L 216.27,216.82 Z" fill="#C8D8E8" stroke="#8BAABB" stroke-width="0.8"/>
<path d="M 296.98,294.21 L 227.67,235.70 L 216.27,232.50 L 216.27,217.44 L 218.36,217.10 L 223.72,231.61 L 290.20,271.89 L 296.98,294.21 Z" fill="#C8D8E8" stroke="#8BAABB" stroke-width="0.8"/>
<path d="M 565.93,176.38 L 563.73,162.79 L 539.00,172.08 L 543.57,194.85 L 522.40,210.83 L 524.33,225.59 L 509.29,229.98 L 508.34,217.55 L 461.50,185.22 L 423.49,175.48 L 375.01,127.88 L 383.82,111.04 L 411.03,114.82 L 413.07,101.89 L 382.77,46.45 L 415.50,50.33 L 425.87,41.19 L 376.52,0.00 L 583.73,0.00 L 583.73,183.99 L 565.93,176.38 Z" fill="#C8D8E8" stroke="#8BAABB" stroke-width="0.8"/>
<path d="M 290.20,271.89 L 303.13,254.88 L 289.76,210.17 L 313.35,199.85 L 316.26,166.58 L 334.27,149.67 L 353.94,161.28 L 362.81,154.76 L 343.97,126.35 L 352.22,117.67 L 377.24,119.77 L 376.88,131.99 L 423.49,175.48 L 461.50,185.22 L 510.24,220.05 L 490.70,243.25 L 472.68,243.14 L 481.57,257.22 L 467.54,279.46 L 446.83,286.12 L 437.73,258.32 L 426.20,264.73 L 386.38,329.38 L 397.58,342.98 L 396.73,382.33 L 374.36,368.96 L 341.71,314.83 L 329.38,316.85 L 302.58,293.08 L 320.41,297.86 L 318.90,283.81 L 296.98,294.21 L 290.20,271.89 Z" fill="#4A90D9" stroke="#1a5fa8" stroke-width="1.2"/>
<path d="M 383.25,336.78 L 363.75,311.48 L 393.53,319.39 L 404.72,306.33 L 396.81,323.16 L 409.99,341.61 L 383.25,336.78 Z" fill="#A8C8E8" stroke="none"/>
<path d="M 563.42,500.00 L 544.96,500.00 L 544.79,488.24 L 563.66,497.94 L 563.42,500.00 Z" fill="#A8C8E8" stroke="none"/>
</svg>