<svg xmlns="http://www.w3.org/2000/svg" width="800" height="500" viewBox="0 0 800 500">
<rect width="800" height="500" fill="#A8C8E8"/>
<path d="M 434.28,342.56 L 430.87,345.81 L 425.28,345.32 L 421.27,336.27 L 434.28,342.56 Z M 364.63,320.09 L 360.95,322.36 L 357.72,320.94 L 364.63,320.09 Z" fill="#E8E0D0" stroke="#B8B0A0" stroke-width="0.5"/>
<path d="M 615.84,467.04 L 620.05,446.63 L 626.88,447.60 L 615.84,467.04 Z" fill="#E8E0D0" stroke="#B8B0A0" stroke-width="0.5"/>
<path d="M 714.23,392.03 L 753.65,405.99 L 736.27,420.08 L 699.65,410.74 L 714.23,392.03 Z M 702.09,310.41 L 712.69,322.49 L 711.10,304.70 L 738.61,326.46 L 710.82,325.69 L 702.09,310.41 Z M 584.79,428.55 L 583.78,429.03 L 583.49,428.77 L 584.79,428.55 Z" fill="#E8E0D0" stroke="#B8B0A0" stroke-width="0.5"/>
<path d="M 533.93,389.68 L 533.65,402.05 L 517.51,402.13 L 520.74,386.69 L 533.93,389.68 Z M 508.79,384.46 L 457.27,356.73 L 490.56,362.38 L 508.79,384.46 Z" fill="#E8E0D0" stroke="#B8B0A0" stroke-width="0.5"/>
<path d="M 2.92,306.33 L 0.00,306.61 L 0.00,299.49 L 30.70,300.96 L 2.92,306.33 Z M 0.00,212.15 L 0.00,208.09 L 5.45,209.54 L 0.00,212.15 Z" fill="#E8E0D0" stroke="#B8B0A0" stroke-width="0.5"/>
<path d="M 454.02,273.22 L 472.64,275.36 L 468.02,278.98 L 454.02,273.22 Z" fill="#E8E0D0" stroke="#B8B0A0" stroke-width="0.5"/>
<path d="M 420.41,226.63 L 378.59,235.69 L 411.00,220.32 L 420.41,226.63 Z M 313.35,168.20 L 314.66,168.39 L 313.56,169.52 L 313.35,168.20 Z M 433.63,215.71 L 439.13,216.88 L 431.38,219.28 L 433.63,215.71 Z M 354.89,218.08 L 361.54,217.93 L 357.54,219.50 L 354.89,218.08 Z M 375.68,220.51 L 372.50,220.15 L 373.03,220.09 L 375.68,220.51 Z M 378.28,220.69 L 378.47,221.23 L 377.03,221.20 L 378.28,220.69 Z" fill="#E8E0D0" stroke="#B8B0A0" stroke-width="0.5"/>
<path d="M 0.00,200.46 L 0.00,197.33 L 10.12,191.66 L 41.34,193.51 L 0.00,200.46 Z M 68.50,190.79 L 59.71,192.92 L 66.70,182.16 L 89.04,182.16 L 68.50,190.79 Z M 75.42,148.69 L 68.41,145.79 L 90.48,145.55 L 102.87,152.67 L 75.42,148.69 Z M 27.82,209.86 L 19.80,206.59 L 25.96,205.81 L 27.82,209.86 Z M 38.26,187.72 L 36.42,189.90 L 35.69,186.70 L 38.26,187.72 Z" fill="#E8E0D0" stroke="#B8B0A0" stroke-width="0.5"/>
<path d="M 399.08,253.01 L 416.16,256.93 L 396.14,256.53 L 399.08,253.01 Z" fill="#C8D8E8" stroke="#8BAABB" stroke-width="0.8"/>
<path d="M 393.80,251.69 L 383.84,251.17 L 416.14,243.07 L 416.16,256.93 L 393.80,251.69 Z" fill="#4A90D9" stroke="#1a5fa8" stroke-width="1.2"/>
</svg>