<svg xmlns="http://www.w3.org/2000/svg" width="800" height="500" viewBox="0 0 800 500">
<rect width="800" height="500" fill="#A8C8E8"/>
<path d="M 420.37,342.56 L 418.34,345.81 L 415.02,345.32 L 412.64,336.27 L 420.37,342.56 Z M 378.98,320.09 L 376.80,322.36 L 374.88,320.94 L 378.98,320.09 Z" fill="#E8E0D0" stroke="#B8B0A0" stroke-width="0.5"/>
<path d="M 528.24,467.04 L 530.74,446.63 L 534.80,447.60 L 528.24,467.04 Z" fill="#E8E0D0" stroke="#B8B0A0" stroke-width="0.5"/>
<path d="M 586.70,392.03 L 610.12,405.99 L 599.79,420.08 L 578.03,410.74 L 586.70,392.03 Z M 579.49,310.41 L 585.78,322.49 L 584.84,304.70 L 601.18,326.46 L 584.67,325.69 L 579.49,310.41 Z M 509.79,428.55 L 509.20,429.03 L 509.02,428.77 L 509.79,428.55 Z" fill="#E8E0D0" stroke="#B8B0A0" stroke-width="0.5"/>
<path d="M 479.57,389.68 L 479.41,402.05 L 469.82,402.13 L 471.74,386.69 L 479.57,389.68 Z M 464.64,384.46 L 434.02,356.73 L 453.81,362.38 L 464.64,384.46 Z" fill="#E8E0D0" stroke="#B8B0A0" stroke-width="0.5"/>
<path d="M 164.08,306.33 L 162.34,306.61 L 162.34,299.49 L 180.58,300.96 L 164.08,306.33 Z M 162.34,212.15 L 162.34,208.09 L 165.58,209.54 L 162.34,212.15 Z" fill="#E8E0D0" stroke="#B8B0A0" stroke-width="0.5"/>
<path d="M 432.10,273.22 L 443.16,275.36 L 440.41,278.98 L 432.10,273.22 Z" fill="#E8E0D0" stroke="#B8B0A0" stroke-width="0.5"/>
<path d="M 412.13,226.63 L 387.28,235.69 L 406.54,220.32 L 412.13,226.63 Z M 348.51,168.20 L 349.29,168.39 L 348.64,169.52 L 348.51,168.20 Z M 419.98,215.71 L 423.25,216.88 L 418.64,219.28 L 419.98,215.71 Z M 373.20,218.08 L 377.15,217.93 L 374.77,219.50 L 373.20,218.08 Z M 385.55,220.51 L 383.66,220.15 L 383.97,220.09 L 385.55,220.51 Z M 387.09,220.69 L 387.21,221.23 L 386.35,221.20 L 387.09,220.69 Z" fill="#E8E0D0" stroke="#B8B0A0" stroke-width="0.5"/>
<path d="M 162.34,200.46 L 162.34,197.33 L 168.36,191.66 L 186.90,193.51 L 162.34,200.46 Z M 203.04,190.79 L 197.82,192.92 L 201.97,182.16 L 215.24,182.16 L 203.04,190.79 Z M 207.15,148.69 L 202.99,145.79 L 216.10,145.55 L 223.46,152.67 L 207.15,148.69 Z M 178.87,209.86 L 174.10,206.59 L 177.77,205.81 L 178.87,209.86 Z M 185.07,187.72 L 183.98,189.90 L 183.54,186.70 L 185.07,187.72 Z" fill="#E8E0D0" stroke="#B8B0A0" stroke-width="0.5"/>
<path d="M 399.45,253.01 L 409.60,256.93 L 397.71,256.53 L 399.45,253.01 Z" fill="#C8D8E8" stroke="#8BAABB" stroke-width="0.8"/>
<path d="M 396.32,251.69 L 390.40,251.17 L 409.59,243.07 L 409.60,256.93 L 396.32,251.69 Z" fill="#4A90D9" stroke="#1a5fa8" stroke-width="1.2"/>
</svg>