<svg xmlns="http://www.w3.org/2000/svg" width="800" height="500" viewBox="0 0 800 500">
<rect width="800" height="500" fill="#A8C8E8"/>
<path d="M 365.89,111.97 L 365.89,113.37 L 365.74,113.37 L 365.89,111.97 Z M 363.80,117.13 L 361.87,117.44 L 361.12,115.52 L 362.72,115.64 L 360.68,110.94 L 361.73,109.76 L 364.11,111.50 L 363.80,117.13 Z" fill="#E8E0D0" stroke="#B8B0A0" stroke-width="0.5"/>
<path d="M 310.44,210.86 L 311.19,210.80 L 311.03,211.15 L 310.44,210.86 Z M 409.60,84.66 L 409.75,85.10 L 409.35,85.00 L 409.60,84.66 Z" fill="#E8E0D0" stroke="#B8B0A0" stroke-width="0.5"/>
<path d="M 392.29,43.36 L 391.83,43.46 L 391.99,42.99 L 392.29,43.36 Z M 414.11,42.25 L 414.23,42.17 L 414.29,42.30 L 414.11,42.25 Z M 391.29,36.03 L 387.94,36.56 L 386.52,36.63 L 385.93,35.10 L 392.18,34.46 L 391.29,36.03 Z M 388.27,33.74 L 390.69,34.00 L 389.66,34.44 L 388.27,33.74 Z" fill="#E8E0D0" stroke="#B8B0A0" stroke-width="0.5"/>
<path d="M 335.01,103.45 L 330.83,103.02 L 330.19,100.37 L 335.01,103.45 Z M 349.17,103.65 L 342.56,98.62 L 346.18,99.08 L 348.21,96.42 L 349.17,103.65 Z M 325.90,93.38 L 321.13,89.23 L 322.41,80.74 L 324.97,81.22 L 324.59,85.91 L 325.90,93.38 Z" fill="#E8E0D0" stroke="#B8B0A0" stroke-width="0.5"/>
<path d="M 348.36,277.77 L 346.13,272.91 L 348.49,266.27 L 343.17,257.23 L 343.67,250.70 L 338.99,241.39 L 338.86,227.02 L 336.44,221.92 L 347.42,202.55 L 347.73,191.00 L 356.91,191.57 L 365.54,184.78 L 366.22,189.08 L 368.57,187.77 L 367.99,185.92 L 372.12,185.21 L 372.87,187.70 L 374.09,182.03 L 380.32,181.35 L 382.87,183.36 L 382.98,181.45 L 381.78,181.76 L 384.56,179.73 L 386.54,180.05 L 385.93,182.39 L 388.61,186.00 L 389.79,184.28 L 391.60,185.53 L 387.92,182.30 L 388.65,178.05 L 402.02,168.17 L 404.73,171.04 L 402.21,176.21 L 408.14,173.54 L 404.32,168.06 L 411.17,161.12 L 409.26,160.12 L 412.75,156.11 L 414.32,159.49 L 412.38,166.09 L 420.39,153.70 L 423.07,156.98 L 424.11,154.97 L 424.79,158.18 L 425.07,155.16 L 420.53,153.22 L 419.43,154.48 L 418.32,150.95 L 420.25,145.84 L 423.56,146.06 L 423.05,142.70 L 425.08,143.95 L 424.41,148.18 L 425.52,146.74 L 425.83,142.66 L 423.51,140.83 L 425.16,139.65 L 422.09,135.79 L 422.71,131.65 L 426.27,129.68 L 428.96,135.40 L 431.26,136.11 L 432.01,130.35 L 436.36,129.76 L 435.24,126.09 L 437.90,128.04 L 441.69,126.63 L 445.49,113.53 L 444.01,107.87 L 440.61,104.91 L 445.29,105.93 L 446.13,102.58 L 450.83,98.30 L 448.48,97.20 L 449.96,96.11 L 451.30,97.38 L 450.40,95.95 L 452.49,93.75 L 454.55,99.48 L 452.18,98.16 L 451.44,100.03 L 454.03,101.78 L 454.73,100.05 L 456.35,103.50 L 458.15,103.61 L 457.09,104.26 L 459.17,105.98 L 458.65,109.32 L 460.65,113.37 L 462.59,111.97 L 466.88,118.62 L 471.23,135.77 L 472.68,157.92 L 478.76,168.65 L 478.61,173.78 L 475.43,182.20 L 471.78,186.16 L 467.49,180.06 L 465.99,173.29 L 462.02,173.85 L 460.30,176.09 L 462.36,184.36 L 461.41,188.50 L 464.88,192.03 L 464.97,198.87 L 462.17,203.78 L 464.67,205.46 L 459.65,207.04 L 455.81,215.91 L 457.51,226.07 L 454.25,242.01 L 441.05,277.30 L 441.73,278.94 L 429.16,319.20 L 422.63,334.88 L 419.11,352.61 L 415.57,360.47 L 415.44,366.28 L 410.15,375.83 L 405.85,391.04 L 405.40,389.78 L 402.35,394.05 L 395.60,396.76 L 386.59,397.08 L 371.93,405.37 L 363.29,406.25 L 356.18,400.42 L 346.10,398.43 L 344.51,396.06 L 346.41,397.60 L 346.87,396.86 L 338.71,392.52 L 336.32,383.83 L 331.00,377.32 L 329.95,364.20 L 332.91,357.38 L 330.09,354.66 L 329.05,348.50 L 324.24,343.17 L 321.24,329.70 L 322.95,328.88 L 321.76,324.67 L 323.70,318.58 L 326.66,316.36 L 327.41,308.06 L 334.03,306.11 L 335.95,298.30 L 348.36,277.77 Z M 468.66,202.32 L 464.37,211.57 L 465.04,207.57 L 468.66,202.32 Z M 432.58,127.18 L 429.65,127.01 L 428.88,123.89 L 431.69,122.43 L 432.58,127.18 Z" fill="#4A90D9" stroke="#1a5fa8" stroke-width="1.2"/>
<path d="M 437.71,218.61 L 435.22,224.20 L 434.83,221.41 L 437.33,216.90 L 437.71,218.61 Z" fill="#A8C8E8" stroke="none"/>
</svg>