<svg xmlns="http://www.w3.org/2000/svg" width="800" height="500" viewBox="0 0 800 500">
<rect width="800" height="500" fill="#A8C8E8"/>
<path d="M 719.48,500.00 L 719.21,500.00 L 718.11,497.99 L 719.14,498.20 L 719.48,500.00 Z M 724.73,494.41 L 724.06,495.22 L 721.39,495.35 L 724.73,494.41 Z M 723.63,491.95 L 717.33,488.78 L 717.06,488.17 L 723.63,491.95 Z M 704.96,454.51 L 709.23,453.25 L 713.52,452.98 L 704.87,454.89 L 704.96,454.51 Z M 719.63,451.26 L 713.52,452.13 L 717.76,451.29 L 719.63,451.26 Z M 741.00,486.48 L 742.49,484.56 L 745.48,487.10 L 744.45,487.58 L 741.00,486.48 Z" fill="#E8E0D0" stroke="#B8B0A0" stroke-width="0.5"/>
<path d="M 360.36,374.38 L 360.62,373.33 L 360.87,374.25 L 360.00,374.57 L 360.36,374.38 Z M 628.76,359.25 L 628.91,359.38 L 627.25,359.25 L 628.76,359.25 Z M 641.52,326.81 L 642.52,327.02 L 641.04,327.84 L 639.80,327.88 L 641.52,326.81 Z M 405.86,405.73 L 408.30,404.53 L 406.33,405.88 L 402.18,406.25 L 405.86,405.73 Z M 474.06,363.62 L 479.92,361.44 L 471.08,368.11 L 474.06,363.62 Z M 645.01,360.23 L 643.97,359.73 L 645.31,359.91 L 650.00,360.16 L 645.01,360.23 Z M 619.18,330.52 L 617.60,330.23 L 616.47,329.24 L 629.76,331.58 L 619.18,330.52 Z M 591.12,328.60 L 588.67,328.45 L 578.20,326.49 L 576.33,325.88 L 590.47,328.35 L 602.85,327.29 L 591.12,328.60 Z M 412.90,321.12 L 410.04,321.57 L 401.41,320.72 L 412.90,321.12 Z M 392.53,317.31 L 393.07,316.25 L 393.81,317.70 L 392.53,317.31 Z M 268.04,201.65 L 265.12,201.21 L 267.79,201.11 L 268.04,201.65 Z M 434.12,372.77 L 434.43,372.82 L 433.97,373.11 L 434.12,372.77 Z M 633.04,328.76 L 630.32,330.10 L 630.76,329.81 L 633.04,328.76 Z M 422.68,312.29 L 420.93,312.14 L 422.94,312.17 L 422.68,312.29 Z M 307.50,290.01 L 306.90,289.90 L 307.05,289.68 L 307.50,290.01 Z M 331.40,276.68 L 332.14,276.41 L 332.12,276.74 L 331.40,276.68 Z M 562.19,271.97 L 561.64,271.89 L 562.17,271.53 L 562.19,271.97 Z M 517.28,253.91 L 517.66,253.92 L 517.90,254.18 L 517.28,253.91 Z M 564.39,228.38 L 564.69,228.36 L 564.71,228.74 L 564.39,228.38 Z M 169.61,186.52 L 170.12,186.87 L 169.12,186.43 L 169.61,186.52 Z M 150.00,184.11 L 150.34,184.03 L 150.49,184.18 L 150.00,184.11 Z M 426.50,93.75 L 424.55,94.49 L 425.36,94.11 L 426.50,93.75 Z" fill="#4A90D9" stroke="#1a5fa8" stroke-width="1.2"/>
</svg>