<svg xmlns="http://www.w3.org/2000/svg" width="800" height="500" viewBox="0 0 800 500">
<rect width="800" height="500" fill="#A8C8E8"/>
<path d="M 532.36,500.00 L 532.25,500.00 L 531.80,497.99 L 532.22,498.20 L 532.36,500.00 Z M 534.54,494.41 L 534.26,495.22 L 533.15,495.35 L 534.54,494.41 Z M 534.08,491.95 L 531.47,488.78 L 531.36,488.17 L 534.08,491.95 Z M 526.35,454.51 L 528.12,453.25 L 529.89,452.98 L 526.31,454.89 L 526.35,454.51 Z M 532.42,451.26 L 529.89,452.13 L 531.65,451.29 L 532.42,451.26 Z M 541.28,486.48 L 541.90,484.56 L 543.14,487.10 L 542.71,487.58 L 541.28,486.48 Z" fill="#E8E0D0" stroke="#B8B0A0" stroke-width="0.5"/>
<path d="M 383.58,374.38 L 383.68,373.33 L 383.79,374.25 L 383.43,374.57 L 383.58,374.38 Z M 494.78,359.25 L 494.84,359.38 L 494.15,359.25 L 494.78,359.25 Z M 500.06,326.81 L 500.48,327.02 L 499.87,327.84 L 499.35,327.88 L 500.06,326.81 Z M 402.43,405.73 L 403.44,404.53 L 402.62,405.88 L 400.90,406.25 L 402.43,405.73 Z M 430.69,363.62 L 433.11,361.44 L 429.45,368.11 L 430.69,363.62 Z M 501.51,360.23 L 501.08,359.73 L 501.63,359.91 L 503.58,360.16 L 501.51,360.23 Z M 490.81,330.52 L 490.15,330.23 L 489.69,329.24 L 495.19,331.58 L 490.81,330.52 Z M 479.18,328.60 L 478.17,328.45 L 473.83,326.49 L 473.06,325.88 L 478.91,328.35 L 484.04,327.29 L 479.18,328.60 Z M 405.34,321.12 L 404.16,321.57 L 400.58,320.72 L 405.34,321.12 Z M 396.90,317.31 L 397.13,316.25 L 397.44,317.70 L 396.90,317.31 Z M 345.33,201.65 L 344.12,201.21 L 345.22,201.11 L 345.33,201.65 Z M 414.14,372.77 L 414.26,372.82 L 414.08,373.11 L 414.14,372.77 Z M 496.55,328.76 L 495.42,330.10 L 495.61,329.81 L 496.55,328.76 Z M 409.40,312.29 L 408.67,312.14 L 409.50,312.17 L 409.40,312.29 Z M 361.68,290.01 L 361.43,289.90 L 361.49,289.68 L 361.68,290.01 Z M 371.58,276.68 L 371.89,276.41 L 371.88,276.74 L 371.58,276.68 Z M 467.19,271.97 L 466.97,271.89 L 467.19,271.53 L 467.19,271.97 Z M 448.59,253.91 L 448.75,253.92 L 448.85,254.18 L 448.59,253.91 Z M 468.11,228.38 L 468.23,228.36 L 468.24,228.74 L 468.11,228.38 Z M 304.55,186.52 L 304.76,186.87 L 304.34,186.43 L 304.55,186.52 Z M 296.42,184.11 L 296.56,184.03 L 296.63,184.18 L 296.42,184.11 Z M 410.98,93.75 L 410.17,94.49 L 410.51,94.11 L 410.98,93.75 Z" fill="#4A90D9" stroke="#1a5fa8" stroke-width="1.2"/>
</svg>