<svg xmlns="http://www.w3.org/2000/svg" width="800" height="500" viewBox="0 0 800 500">
<rect width="800" height="500" fill="#A8C8E8"/>
<path d="M 83.69,86.99 L 70.19,71.63 L 156.26,55.37 L 152.98,40.60 L 193.03,19.45 L 181.16,1.86 L 187.95,0.00 L 223.21,0.00 L 226.87,6.16 L 276.38,18.62 L 309.11,50.52 L 337.94,56.70 L 332.14,72.77 L 408.94,87.87 L 358.91,135.61 L 368.27,150.56 L 329.82,154.06 L 316.67,174.76 L 277.53,158.42 L 216.41,176.22 L 196.25,213.41 L 173.97,208.86 L 161.04,156.04 L 109.77,139.05 L 76.09,103.61 L 83.69,86.99 Z" fill="#E8E0D0" stroke="#B8B0A0" stroke-width="0.5"/>
<path d="M 49.63,14.99 L 132.35,49.83 L 99.18,73.02 L 68.60,72.92 L 83.69,86.99 L 59.88,109.23 L 24.73,115.90 L 9.28,88.09 L 0.00,91.14 L 0.00,7.51 L 49.63,14.99 Z" fill="#E8E0D0" stroke="#B8B0A0" stroke-width="0.5"/>
<path d="M 160.96,230.59 L 167.65,253.84 L 150.00,259.41 L 168.71,282.69 L 160.90,308.49 L 203.22,358.85 L 249.89,361.73 L 247.35,381.97 L 265.48,401.58 L 246.02,427.71 L 213.63,435.61 L 189.64,486.85 L 136.10,500.00 L 38.96,500.00 L 36.82,494.45 L 0.00,481.62 L 0.00,91.02 L 4.83,86.73 L 21.42,114.89 L 71.08,101.89 L 109.77,139.05 L 157.31,152.99 L 180.24,195.20 L 160.96,230.59 Z" fill="#C8D8E8" stroke="#8BAABB" stroke-width="0.8"/>
<path d="M 767.50,287.32 L 631.95,292.83 L 649.86,229.68 L 616.60,186.00 L 556.74,168.87 L 520.48,140.07 L 557.14,117.54 L 536.13,99.53 L 547.35,74.39 L 536.53,61.91 L 594.93,50.46 L 644.50,1.70 L 640.94,0.00 L 800.00,0.00 L 800.00,282.36 L 767.50,287.32 Z" fill="#C8D8E8" stroke="#8BAABB" stroke-width="0.8"/>
<path d="M 371.68,366.18 L 462.63,321.56 L 590.62,323.47 L 605.44,292.96 L 767.50,287.32 L 800.00,279.31 L 800.00,384.53 L 790.74,384.06 L 784.60,396.28 L 800.00,404.03 L 800.00,445.22 L 790.50,445.45 L 787.74,461.65 L 800.00,466.53 L 800.00,489.90 L 779.78,467.49 L 733.59,457.92 L 714.42,465.92 L 719.00,478.03 L 766.87,500.00 L 716.28,500.00 L 706.42,464.76 L 626.34,441.18 L 613.37,423.08 L 644.85,415.19 L 630.69,400.82 L 566.10,428.38 L 582.09,443.88 L 564.58,493.06 L 572.22,500.00 L 136.10,500.00 L 189.64,486.85 L 213.63,435.61 L 262.00,414.20 L 251.56,368.82 L 371.68,366.18 Z" fill="#C8D8E8" stroke="#8BAABB" stroke-width="0.8"/>
<path d="M 645.13,5.51 L 594.93,50.46 L 536.53,61.91 L 547.35,74.39 L 536.13,99.53 L 557.80,114.29 L 535.87,138.12 L 505.63,131.18 L 370.41,151.23 L 358.91,135.61 L 378.67,128.63 L 407.31,84.41 L 332.14,72.77 L 337.94,56.70 L 309.11,50.52 L 276.38,18.62 L 226.87,6.16 L 225.18,0.00 L 634.45,0.00 L 645.13,5.51 Z M 181.16,1.86 L 188.92,24.63 L 152.98,40.60 L 156.26,55.37 L 130.74,59.75 L 129.13,47.33 L 49.63,14.99 L 0.00,7.51 L 0.00,0.00 L 189.57,0.00 L 181.16,1.86 Z" fill="#C8D8E8" stroke="#8BAABB" stroke-width="0.8"/>
<path d="M 200.44,212.54 L 216.41,176.22 L 277.53,158.42 L 314.63,175.02 L 343.38,150.47 L 505.63,131.18 L 556.74,168.87 L 616.60,186.00 L 650.00,233.36 L 635.07,249.61 L 636.60,290.63 L 599.66,296.04 L 590.62,323.47 L 462.63,321.56 L 371.68,366.18 L 251.56,368.82 L 203.22,358.85 L 160.90,308.49 L 168.71,282.69 L 150.00,259.41 L 167.65,253.84 L 160.96,230.59 L 173.97,208.86 L 200.44,212.54 Z" fill="#4A90D9" stroke="#1a5fa8" stroke-width="1.2"/>
<path d="M 217.67,355.54 L 191.97,359.31 L 191.00,318.01 L 223.01,327.72 L 217.67,355.54 Z" fill="#A8C8E8" stroke="none"/>
<path d="M 264.26,369.53 L 264.20,369.99 L 264.20,369.94 L 264.26,369.53 Z" fill="#A8C8E8" stroke="none"/>
<path d="M 264.37,370.31 L 264.43,370.35 L 264.37,370.35 L 264.37,370.31 Z" fill="#A8C8E8" stroke="none"/>
<path d="M 265.06,370.31 L 265.35,370.35 L 265.64,370.49 L 265.06,370.31 Z" fill="#A8C8E8" stroke="none"/>
<path d="M 240.34,380.29 L 251.47,342.80 L 281.70,366.86 L 240.34,380.29 Z" fill="#A8C8E8" stroke="none"/>
<path d="M 277.68,388.25 L 257.60,395.24 L 268.91,379.05 L 281.01,376.75 L 277.68,388.25 Z" fill="#A8C8E8" stroke="none"/>
</svg>