<svg xmlns="http://www.w3.org/2000/svg" width="800" height="500" viewBox="0 0 800 500">
<rect width="800" height="500" fill="#A8C8E8"/>
<path d="M 210.40,86.99 L 202.31,71.63 L 253.90,55.37 L 251.93,40.60 L 275.94,19.45 L 268.83,1.86 L 272.89,0.00 L 294.03,0.00 L 296.22,6.16 L 325.90,18.62 L 345.52,50.52 L 362.80,56.70 L 359.32,72.77 L 405.36,87.87 L 375.37,135.61 L 380.98,150.56 L 357.93,154.06 L 350.05,174.76 L 326.59,158.42 L 289.96,176.22 L 277.87,213.41 L 264.51,208.86 L 256.76,156.04 L 226.03,139.05 L 205.85,103.61 L 210.40,86.99 Z" fill="#E8E0D0" stroke="#B8B0A0" stroke-width="0.5"/>
<path d="M 189.98,14.99 L 239.57,49.83 L 219.68,73.02 L 201.35,72.92 L 210.40,86.99 L 196.13,109.23 L 175.06,115.90 L 165.80,88.09 L 160.23,91.14 L 160.23,7.51 L 189.98,14.99 Z" fill="#E8E0D0" stroke="#B8B0A0" stroke-width="0.5"/>
<path d="M 256.71,230.59 L 260.72,253.84 L 250.15,259.41 L 261.36,282.69 L 256.68,308.49 L 282.05,358.85 L 310.02,361.73 L 308.50,381.97 L 319.37,401.58 L 307.70,427.71 L 288.29,435.61 L 273.91,486.85 L 241.81,500.00 L 183.59,500.00 L 182.31,494.45 L 160.23,481.62 L 160.23,91.02 L 163.13,86.73 L 173.08,114.89 L 202.84,101.89 L 226.03,139.05 L 254.53,152.99 L 268.27,195.20 L 256.71,230.59 Z" fill="#C8D8E8" stroke="#8BAABB" stroke-width="0.8"/>
<path d="M 620.28,287.32 L 539.04,292.83 L 549.77,229.68 L 529.83,186.00 L 493.95,168.87 L 472.22,140.07 L 494.19,117.54 L 481.60,99.53 L 488.32,74.39 L 481.84,61.91 L 516.84,50.46 L 546.56,1.70 L 544.42,0.00 L 639.77,0.00 L 639.77,282.36 L 620.28,287.32 Z" fill="#C8D8E8" stroke="#8BAABB" stroke-width="0.8"/>
<path d="M 383.02,366.18 L 437.54,321.56 L 514.26,323.47 L 523.15,292.96 L 620.28,287.32 L 639.77,279.31 L 639.77,384.53 L 634.22,384.06 L 630.54,396.28 L 639.77,404.03 L 639.77,445.22 L 634.07,445.45 L 632.42,461.65 L 639.77,466.53 L 639.77,489.90 L 627.65,467.49 L 599.96,457.92 L 588.47,465.92 L 591.21,478.03 L 619.91,500.00 L 589.58,500.00 L 583.67,464.76 L 535.67,441.18 L 527.90,423.08 L 546.77,415.19 L 538.28,400.82 L 499.56,428.38 L 509.15,443.88 L 498.65,493.06 L 503.23,500.00 L 241.81,500.00 L 273.91,486.85 L 288.29,435.61 L 317.28,414.20 L 311.02,368.82 L 383.02,366.18 Z" fill="#C8D8E8" stroke="#8BAABB" stroke-width="0.8"/>
<path d="M 546.93,5.51 L 516.84,50.46 L 481.84,61.91 L 488.32,74.39 L 481.60,99.53 L 494.59,114.29 L 481.44,138.12 L 463.32,131.18 L 382.26,151.23 L 375.37,135.61 L 387.21,128.63 L 404.38,84.41 L 359.32,72.77 L 362.80,56.70 L 345.52,50.52 L 325.90,18.62 L 296.22,6.16 L 295.21,0.00 L 540.53,0.00 L 546.93,5.51 Z M 268.83,1.86 L 273.47,24.63 L 251.93,40.60 L 253.90,55.37 L 238.60,59.75 L 237.64,47.33 L 189.98,14.99 L 160.23,7.51 L 160.23,0.00 L 273.86,0.00 L 268.83,1.86 Z" fill="#C8D8E8" stroke="#8BAABB" stroke-width="0.8"/>
<path d="M 280.38,212.54 L 289.96,176.22 L 326.59,158.42 L 348.83,175.02 L 366.06,150.47 L 463.32,131.18 L 493.95,168.87 L 529.83,186.00 L 549.85,233.36 L 540.91,249.61 L 541.82,290.63 L 519.68,296.04 L 514.26,323.47 L 437.54,321.56 L 383.02,366.18 L 311.02,368.82 L 282.05,358.85 L 256.68,308.49 L 261.36,282.69 L 250.15,259.41 L 260.72,253.84 L 256.71,230.59 L 264.51,208.86 L 280.38,212.54 Z" fill="#4A90D9" stroke="#1a5fa8" stroke-width="1.2"/>
<path d="M 290.71,355.54 L 275.30,359.31 L 274.72,318.01 L 293.91,327.72 L 290.71,355.54 Z" fill="#A8C8E8" stroke="none"/>
<path d="M 318.64,369.53 L 318.60,369.99 L 318.60,369.94 L 318.64,369.53 Z" fill="#A8C8E8" stroke="none"/>
<path d="M 318.70,370.31 L 318.74,370.35 L 318.70,370.35 L 318.70,370.31 Z" fill="#A8C8E8" stroke="none"/>
<path d="M 319.12,370.31 L 319.29,370.35 L 319.46,370.49 L 319.12,370.31 Z" fill="#A8C8E8" stroke="none"/>
<path d="M 304.30,380.29 L 310.97,342.80 L 329.09,366.86 L 304.30,380.29 Z" fill="#A8C8E8" stroke="none"/>
<path d="M 326.68,388.25 L 314.65,395.24 L 321.42,379.05 L 328.68,376.75 L 326.68,388.25 Z" fill="#A8C8E8" stroke="none"/>
</svg>