<svg xmlns="http://www.w3.org/2000/svg" width="800" height="500" viewBox="0 0 800 500">
<rect width="800" height="500" fill="#A8C8E8"/>
<path d="M 255.20,49.04 L 236.46,49.72 L 224.19,54.73 L 217.68,53.46 L 211.05,54.51 L 195.70,51.16 L 176.45,54.03 L 178.11,59.29 L 166.58,70.43 L 156.19,72.81 L 144.97,97.22 L 127.99,104.80 L 118.29,115.09 L 100.71,121.20 L 94.34,133.62 L 90.70,150.25 L 78.28,159.70 L 78.89,162.02 L 74.64,167.28 L 67.96,168.53 L 35.53,167.28 L 6.01,168.96 L 8.82,158.20 L 15.32,150.96 L 22.60,148.82 L 27.96,137.83 L 31.79,135.86 L 30.28,133.74 L 43.64,119.15 L 43.56,116.54 L 36.90,122.15 L 38.57,119.42 L 70.22,99.84 L 72.54,86.70 L 81.79,73.93 L 83.24,68.52 L 110.68,56.85 L 122.50,37.16 L 129.13,32.03 L 156.15,28.66 L 173.60,23.68 L 186.41,14.70 L 201.24,9.70 L 211.11,3.20 L 214.41,0.00 L 302.31,0.00 L 298.99,1.43 L 289.77,1.58 L 259.03,15.56 L 258.59,37.66 L 254.50,37.65 L 255.20,49.04 Z M 316.15,0.10 L 315.28,0.00 L 316.73,0.00 L 316.15,0.10 Z" fill="#E8E0D0" stroke="#B8B0A0" stroke-width="0.5"/>
<path d="M 258.59,37.66 L 258.43,72.61 L 157.54,72.72 L 157.42,126.02 L 139.23,130.02 L 127.23,135.34 L 123.07,139.51 L 127.23,170.78 L 7.67,170.79 L 4.70,182.70 L 3.25,180.69 L 6.01,168.96 L 35.53,167.28 L 67.96,168.53 L 74.64,167.28 L 78.89,162.02 L 78.28,159.70 L 90.70,150.25 L 94.34,133.62 L 100.71,121.20 L 118.29,115.09 L 127.99,104.80 L 144.97,97.22 L 156.19,72.81 L 166.58,70.43 L 178.11,59.29 L 176.45,54.03 L 195.70,51.16 L 211.05,54.51 L 217.68,53.46 L 224.19,54.73 L 236.46,49.72 L 255.20,49.04 L 254.50,37.65 L 258.59,37.66 Z" fill="#E8E0D0" stroke="#B8B0A0" stroke-width="0.5"/>
<path d="M 55.60,33.64 L 49.54,36.12 L 42.16,32.18 L 45.65,27.01 L 54.65,26.75 L 55.60,33.64 Z M 3.44,28.41 L 0.00,29.55 L 0.00,26.23 L 3.44,28.41 Z M 20.20,30.03 L 15.74,30.54 L 8.97,23.06 L 21.37,21.61 L 27.15,18.50 L 33.17,18.50 L 25.96,22.51 L 20.20,30.03 Z M 102.70,16.19 L 99.38,25.40 L 86.97,29.47 L 82.00,29.03 L 90.57,25.93 L 98.20,15.05 L 102.70,16.19 Z M 115.03,5.10 L 113.08,9.51 L 104.21,12.87 L 101.40,12.34 L 103.48,8.48 L 111.40,6.59 L 113.05,4.45 L 115.03,5.10 Z M 112.78,4.39 L 111.28,4.67 L 112.29,3.41 L 112.78,4.39 Z" fill="#E8E0D0" stroke="#B8B0A0" stroke-width="0.5"/>
<path d="M 208.91,447.44 L 200.08,450.62 L 199.99,456.15 L 178.71,467.83 L 173.89,474.02 L 162.87,469.19 L 142.65,464.13 L 146.81,464.13 L 143.18,462.96 L 145.02,461.10 L 152.43,459.65 L 143.95,460.50 L 141.52,458.58 L 144.31,456.04 L 139.76,457.94 L 129.58,453.68 L 133.11,453.03 L 130.37,450.64 L 131.45,449.12 L 128.54,445.95 L 122.72,447.69 L 119.00,440.77 L 126.67,443.36 L 124.17,441.34 L 131.64,439.32 L 129.78,439.03 L 131.45,436.87 L 125.82,439.02 L 126.88,437.59 L 122.91,437.17 L 124.43,439.07 L 122.77,440.40 L 120.41,433.92 L 128.12,433.26 L 123.74,433.11 L 125.41,431.53 L 119.60,431.26 L 118.56,429.38 L 124.18,429.33 L 128.93,426.51 L 128.97,424.52 L 134.84,422.94 L 143.69,411.71 L 149.62,410.70 L 153.72,411.85 L 160.38,410.85 L 160.73,409.37 L 180.83,409.35 L 191.77,418.29 L 193.42,422.00 L 198.17,423.80 L 196.01,428.49 L 200.63,429.11 L 200.46,434.14 L 204.03,437.14 L 196.35,445.25 L 210.08,441.09 L 208.91,447.44 Z M 141.34,464.13 L 139.65,462.26 L 129.16,460.22 L 139.17,458.87 L 143.06,460.38 L 141.34,464.13 Z" fill="#E8E0D0" stroke="#B8B0A0" stroke-width="0.5"/>
<path d="M 178.71,467.83 L 199.99,456.15 L 200.08,450.62 L 208.91,447.44 L 210.08,441.09 L 215.88,440.56 L 216.77,442.41 L 225.50,439.44 L 227.06,442.12 L 229.23,441.51 L 228.42,443.05 L 233.82,444.06 L 232.88,447.39 L 238.18,456.72 L 234.08,464.42 L 241.85,464.31 L 245.15,468.33 L 251.62,467.06 L 258.46,457.72 L 262.07,457.85 L 266.37,461.77 L 270.66,471.95 L 269.04,477.01 L 260.52,483.00 L 266.59,483.87 L 266.79,486.21 L 281.87,487.65 L 285.74,494.25 L 294.60,497.44 L 296.05,496.61 L 296.58,500.00 L 223.75,500.00 L 208.53,490.50 L 194.74,487.20 L 195.62,484.86 L 177.62,478.61 L 173.89,474.02 L 178.71,467.83 Z" fill="#E8E0D0" stroke="#B8B0A0" stroke-width="0.5"/>
<path d="M 632.97,372.19 L 631.06,369.12 L 632.20,356.24 L 640.92,351.35 L 645.76,346.18 L 646.88,336.15 L 658.43,331.49 L 669.05,329.81 L 680.29,330.50 L 689.20,327.58 L 708.02,332.62 L 714.89,332.92 L 732.11,346.20 L 736.10,346.18 L 740.03,343.63 L 745.90,343.73 L 759.00,338.84 L 767.52,339.80 L 784.93,347.71 L 800.00,349.11 L 800.00,490.80 L 794.13,495.56 L 790.28,496.57 L 789.17,499.60 L 789.62,500.00 L 683.50,500.00 L 683.62,499.16 L 682.97,500.00 L 677.03,500.00 L 676.50,497.72 L 682.19,495.26 L 674.74,498.26 L 665.74,490.44 L 655.36,485.82 L 626.20,484.73 L 624.42,484.01 L 638.34,480.51 L 628.38,482.28 L 627.34,480.70 L 624.95,481.75 L 623.96,483.90 L 624.41,485.00 L 603.77,485.62 L 606.46,462.28 L 602.78,453.44 L 605.75,429.05 L 615.06,428.25 L 616.77,420.63 L 622.81,416.53 L 622.63,413.39 L 628.31,412.44 L 630.62,410.29 L 632.99,406.13 L 630.11,403.20 L 632.52,400.05 L 636.17,400.64 L 638.14,396.59 L 634.89,392.22 L 634.64,385.81 L 626.95,379.35 L 632.97,372.19 Z" fill="#E8E0D0" stroke="#B8B0A0" stroke-width="0.5"/>
<path d="M 626.95,379.35 L 634.64,385.81 L 634.89,392.22 L 638.14,396.59 L 636.17,400.64 L 632.52,400.05 L 630.11,403.20 L 632.99,406.13 L 630.62,410.29 L 628.31,412.44 L 622.63,413.39 L 622.81,416.53 L 616.77,420.63 L 615.06,428.25 L 605.75,429.05 L 602.78,453.44 L 606.46,462.28 L 603.77,485.62 L 570.91,488.87 L 575.84,487.53 L 569.28,479.10 L 568.25,472.50 L 571.09,472.40 L 570.35,429.21 L 562.01,419.27 L 562.16,409.29 L 545.11,401.49 L 545.49,394.63 L 549.13,388.33 L 551.01,388.72 L 551.56,386.49 L 555.58,387.59 L 554.01,385.19 L 556.92,384.69 L 556.23,382.70 L 562.14,382.10 L 565.45,378.21 L 570.36,380.00 L 581.93,379.47 L 590.73,374.46 L 593.98,368.23 L 596.28,367.58 L 593.39,362.53 L 597.45,361.18 L 608.03,358.74 L 630.83,373.54 L 626.95,379.35 Z" fill="#E8E0D0" stroke="#B8B0A0" stroke-width="0.5"/>
<path d="M 789.17,499.60 L 789.96,496.92 L 800.00,490.13 L 800.00,500.00 L 789.62,500.00 L 789.17,499.60 Z" fill="#E8E0D0" stroke="#B8B0A0" stroke-width="0.5"/>
<path d="M 536.56,388.11 L 536.59,389.58 L 549.13,388.33 L 544.87,401.17 L 562.54,410.00 L 562.01,419.27 L 570.18,428.64 L 571.65,440.91 L 571.09,472.40 L 568.25,472.50 L 569.28,479.10 L 575.84,487.53 L 570.91,488.87 L 557.74,491.25 L 551.62,486.54 L 544.41,484.09 L 537.55,475.86 L 536.80,472.89 L 539.93,471.67 L 541.38,465.52 L 536.83,461.72 L 540.37,457.61 L 539.20,447.00 L 543.41,445.02 L 532.90,435.00 L 537.13,433.06 L 534.88,429.67 L 537.91,421.81 L 534.28,419.90 L 528.68,421.16 L 530.96,419.58 L 528.78,418.14 L 533.26,417.85 L 529.72,416.43 L 532.33,416.30 L 533.83,403.26 L 519.13,395.89 L 522.30,386.86 L 516.77,385.34 L 536.56,388.11 Z" fill="#E8E0D0" stroke="#B8B0A0" stroke-width="0.5"/>
<path d="M 522.30,386.86 L 519.13,395.89 L 533.83,403.26 L 532.33,416.30 L 529.72,416.43 L 533.26,417.85 L 528.78,418.14 L 530.96,419.58 L 528.68,421.16 L 534.28,419.90 L 537.91,421.81 L 534.88,429.67 L 537.13,433.06 L 532.90,435.00 L 543.41,445.02 L 539.20,447.00 L 540.37,457.61 L 536.83,461.72 L 541.38,465.52 L 539.93,471.67 L 536.80,472.89 L 537.45,475.66 L 544.41,484.09 L 551.62,486.54 L 557.74,491.25 L 550.75,497.76 L 529.18,498.49 L 525.00,500.00 L 432.06,500.00 L 431.92,499.47 L 429.95,499.59 L 422.90,480.38 L 423.53,476.31 L 431.68,467.81 L 432.63,460.19 L 437.20,452.48 L 442.66,450.45 L 442.66,447.82 L 445.82,446.89 L 442.39,431.86 L 437.68,429.10 L 441.17,424.51 L 437.06,415.10 L 438.92,412.94 L 438.28,403.73 L 435.67,401.99 L 437.90,400.35 L 432.90,395.87 L 435.79,388.22 L 496.71,388.05 L 502.56,390.11 L 512.66,384.75 L 522.30,386.86 Z" fill="#E8E0D0" stroke="#B8B0A0" stroke-width="0.5"/>
<path d="M 106.62,360.98 L 102.23,361.31 L 98.21,363.95 L 105.74,367.08 L 105.56,373.24 L 101.31,372.53 L 96.92,374.77 L 88.59,374.10 L 81.58,377.39 L 75.82,377.71 L 64.48,389.70 L 67.03,383.62 L 60.08,388.29 L 60.79,383.26 L 59.98,385.60 L 56.20,385.14 L 54.14,382.15 L 58.93,379.07 L 56.66,380.22 L 56.35,378.43 L 51.69,380.65 L 52.70,377.77 L 59.78,376.04 L 58.54,375.03 L 63.55,375.18 L 63.32,376.70 L 66.84,375.31 L 61.85,374.30 L 63.09,373.28 L 60.15,374.32 L 60.19,372.29 L 53.76,376.46 L 54.13,373.58 L 52.62,374.41 L 50.34,372.75 L 53.76,369.55 L 61.32,369.85 L 64.33,368.40 L 64.95,371.27 L 69.00,372.33 L 64.93,370.07 L 66.84,367.59 L 60.54,369.04 L 54.13,367.96 L 41.88,372.43 L 44.80,370.12 L 42.94,369.55 L 37.99,372.72 L 40.82,367.72 L 45.21,367.82 L 45.42,366.81 L 40.87,366.52 L 32.97,369.55 L 25.98,365.30 L 34.83,359.75 L 22.87,363.52 L 14.66,360.14 L 30.00,357.56 L 46.53,357.90 L 61.14,352.84 L 105.61,352.97 L 106.62,360.98 Z M 40.45,386.63 L 37.40,387.16 L 38.99,386.27 L 38.37,383.96 L 40.45,386.63 Z M 37.52,385.73 L 36.22,386.73 L 35.01,384.74 L 37.52,385.73 Z M 32.74,387.57 L 29.22,385.97 L 33.71,383.80 L 35.26,385.69 L 32.74,387.57 Z M 42.02,382.02 L 40.64,383.96 L 39.88,382.94 L 42.02,382.02 Z M 47.10,383.26 L 43.61,384.53 L 44.20,382.37 L 47.10,381.81 L 47.10,383.26 Z M 29.12,383.60 L 28.20,383.07 L 30.48,381.65 L 31.50,383.53 L 29.12,383.60 Z M 46.46,378.91 L 44.77,378.71 L 46.04,377.62 L 46.46,378.91 Z M 27.58,378.63 L 31.72,377.33 L 30.25,378.91 L 27.58,378.63 Z M 24.03,377.90 L 23.82,377.04 L 29.22,375.89 L 28.39,377.75 L 24.03,377.90 Z M 38.57,375.45 L 39.83,378.63 L 35.67,379.34 L 34.21,378.34 L 38.57,375.45 Z M 52.76,376.27 L 47.95,377.05 L 51.03,375.03 L 52.76,376.27 Z M 35.62,369.26 L 37.18,369.51 L 35.49,372.29 L 31.72,369.85 L 35.62,369.26 Z" fill="#E8E0D0" stroke="#B8B0A0" stroke-width="0.5"/>
<path d="M 11.59,338.98 L 16.16,335.66 L 24.03,341.72 L 23.40,340.28 L 28.92,339.27 L 29.84,340.71 L 30.38,340.82 L 32.16,340.28 L 29.86,339.08 L 31.85,337.08 L 48.24,336.53 L 50.58,335.38 L 56.73,336.83 L 57.82,336.52 L 58.12,335.66 L 50.20,334.99 L 32.45,336.54 L 24.90,339.01 L 20.92,338.55 L 19.72,333.75 L 51.35,333.83 L 55.11,329.87 L 64.10,328.85 L 70.72,329.68 L 74.91,333.15 L 80.93,332.62 L 86.29,336.53 L 97.72,333.92 L 102.87,337.07 L 100.39,339.48 L 86.19,341.14 L 62.89,333.69 L 58.66,338.10 L 42.24,339.08 L 41.80,342.80 L 16.32,342.64 L 13.89,344.73 L 11.59,338.98 Z" fill="#E8E0D0" stroke="#B8B0A0" stroke-width="0.5"/>
<path d="M 258.59,45.57 L 258.70,15.96 L 290.81,1.30 L 298.99,1.43 L 302.31,0.00 L 315.28,0.00 L 316.15,0.10 L 316.62,0.00 L 800.00,0.00 L 800.00,159.47 L 748.65,180.48 L 697.47,210.41 L 622.85,220.39 L 615.91,217.02 L 620.66,211.70 L 618.78,202.61 L 594.58,197.65 L 588.52,193.07 L 584.60,194.35 L 575.71,192.43 L 569.09,186.27 L 556.81,183.29 L 556.56,175.66 L 375.63,93.75 L 258.59,45.57 Z" fill="#C8D8E8" stroke="#8BAABB" stroke-width="0.8"/>
<path d="M 591.15,374.18 L 582.76,379.19 L 570.36,380.00 L 565.45,378.21 L 562.14,382.10 L 556.86,382.17 L 556.92,384.69 L 554.01,385.19 L 555.68,387.50 L 551.56,386.49 L 551.01,388.72 L 536.59,389.58 L 536.56,388.11 L 512.66,384.75 L 502.56,390.11 L 496.71,388.05 L 435.79,388.22 L 432.90,395.87 L 437.90,400.35 L 435.67,401.99 L 438.28,403.73 L 438.92,412.94 L 437.06,415.10 L 440.28,419.97 L 438.02,422.01 L 424.34,410.99 L 421.71,412.56 L 421.24,411.29 L 407.96,410.56 L 395.98,413.04 L 389.29,417.99 L 385.33,416.47 L 385.08,414.58 L 379.89,415.90 L 376.39,414.38 L 376.33,412.53 L 371.25,411.30 L 371.33,408.37 L 368.10,406.90 L 366.61,403.04 L 358.02,402.89 L 354.38,400.26 L 357.14,391.44 L 354.94,386.65 L 360.14,385.62 L 363.60,379.29 L 361.52,372.21 L 357.72,370.75 L 367.51,367.57 L 377.46,367.00 L 383.55,363.99 L 385.74,360.39 L 388.23,360.67 L 386.85,357.98 L 388.80,355.90 L 385.83,352.10 L 392.73,351.97 L 394.11,349.90 L 390.62,342.55 L 393.42,342.41 L 401.21,335.58 L 403.03,336.61 L 401.40,337.96 L 417.23,342.55 L 417.26,340.51 L 423.32,339.94 L 422.16,331.42 L 428.81,333.34 L 434.03,332.39 L 434.88,325.05 L 443.06,320.39 L 447.17,319.15 L 456.57,321.78 L 460.08,321.25 L 461.26,315.16 L 470.36,314.63 L 489.11,308.31 L 499.98,302.37 L 507.62,302.34 L 508.90,303.97 L 514.63,302.64 L 528.43,305.90 L 526.62,314.63 L 533.59,319.77 L 533.00,324.24 L 539.82,331.61 L 549.00,333.16 L 552.58,336.30 L 560.27,338.82 L 551.62,338.35 L 551.62,345.42 L 569.21,353.84 L 577.70,354.39 L 581.58,351.90 L 585.74,352.29 L 589.86,358.21 L 584.01,359.94 L 594.27,369.31 L 591.15,374.18 Z" fill="#C8D8E8" stroke="#8BAABB" stroke-width="0.8"/>
<path d="M 122.91,426.35 L 119.82,426.12 L 120.63,424.63 L 118.13,426.42 L 118.56,422.74 L 115.33,424.21 L 115.67,421.01 L 112.11,420.79 L 112.94,418.28 L 111.09,419.73 L 109.85,418.28 L 105.67,419.50 L 110.68,413.67 L 107.95,412.52 L 105.59,414.60 L 106.92,410.34 L 102.14,412.14 L 95.61,408.68 L 97.38,405.01 L 92.73,408.04 L 93.20,405.44 L 90.63,406.98 L 89.98,405.38 L 83.66,404.70 L 81.15,398.52 L 77.43,399.12 L 82.21,390.47 L 76.16,395.68 L 77.63,392.17 L 74.32,394.50 L 74.93,390.87 L 72.86,391.89 L 72.52,390.03 L 77.22,387.42 L 76.60,386.84 L 71.80,388.86 L 69.53,387.57 L 68.28,393.05 L 64.65,391.15 L 75.82,377.71 L 81.58,377.39 L 88.59,374.10 L 96.92,374.77 L 101.31,372.53 L 105.56,373.24 L 105.74,367.08 L 98.21,363.95 L 102.23,361.31 L 106.62,360.98 L 105.61,352.97 L 125.37,353.76 L 126.11,357.20 L 130.32,355.85 L 147.07,360.71 L 154.86,358.57 L 173.72,358.13 L 176.54,359.05 L 172.93,363.11 L 178.18,366.59 L 182.53,366.83 L 186.74,362.88 L 189.78,362.52 L 197.07,369.44 L 203.13,364.65 L 210.55,362.56 L 227.04,366.60 L 229.91,363.56 L 238.75,361.46 L 239.58,359.61 L 236.45,357.56 L 240.90,356.72 L 249.69,359.38 L 249.13,362.41 L 255.09,368.71 L 253.59,374.33 L 257.25,374.51 L 259.36,377.73 L 267.89,380.44 L 258.03,388.63 L 262.31,388.77 L 263.94,387.07 L 269.37,387.67 L 270.65,398.46 L 280.15,403.29 L 274.00,410.44 L 274.49,419.08 L 277.63,422.07 L 283.35,421.63 L 281.41,426.38 L 286.95,428.64 L 281.34,430.32 L 280.21,434.19 L 288.46,438.14 L 289.51,443.40 L 284.61,441.24 L 283.35,442.44 L 280.17,440.83 L 271.73,441.75 L 271.21,446.11 L 279.17,447.42 L 280.41,450.97 L 277.18,450.67 L 273.20,460.20 L 266.70,459.43 L 264.56,460.59 L 262.07,457.85 L 258.46,457.72 L 253.27,466.58 L 245.15,468.33 L 241.85,464.31 L 234.08,464.42 L 238.18,456.72 L 232.88,447.39 L 233.82,444.06 L 228.42,443.05 L 229.23,441.51 L 227.06,442.12 L 225.50,439.44 L 216.77,442.41 L 214.15,440.26 L 207.28,440.88 L 201.83,444.73 L 196.35,445.25 L 204.03,437.14 L 200.46,434.14 L 200.63,429.11 L 196.01,428.49 L 198.17,423.80 L 193.42,422.00 L 182.27,409.59 L 160.73,409.37 L 160.38,410.85 L 153.72,411.85 L 149.62,410.70 L 143.69,411.71 L 134.84,422.94 L 128.97,424.52 L 128.93,426.51 L 124.18,429.33 L 118.56,429.38 L 122.91,426.35 Z" fill="#C8D8E8" stroke="#8BAABB" stroke-width="0.8"/>
<path d="M 284.46,404.76 L 289.45,400.02 L 294.39,399.57 L 298.57,403.91 L 309.11,406.25 L 310.76,401.96 L 319.63,401.62 L 319.62,395.45 L 326.39,397.60 L 326.96,394.78 L 332.15,393.93 L 333.71,395.97 L 331.98,398.40 L 334.43,400.37 L 332.63,403.91 L 339.42,405.22 L 343.60,401.30 L 352.21,399.66 L 358.02,402.89 L 366.11,402.81 L 368.10,406.90 L 371.33,408.37 L 371.25,411.30 L 376.33,412.53 L 376.39,414.38 L 379.89,415.90 L 385.08,414.58 L 385.33,416.47 L 389.29,417.99 L 395.98,413.04 L 407.96,410.56 L 421.24,411.29 L 421.71,412.56 L 424.34,410.99 L 436.60,421.60 L 440.28,419.97 L 441.13,424.91 L 437.68,429.10 L 442.39,431.86 L 445.82,446.89 L 442.66,447.82 L 442.66,450.45 L 437.20,452.48 L 432.63,460.19 L 431.68,467.81 L 424.04,475.50 L 422.90,480.38 L 429.95,499.59 L 431.92,499.47 L 432.06,500.00 L 296.58,500.00 L 296.05,496.61 L 294.60,497.44 L 285.74,494.25 L 281.87,487.65 L 266.79,486.21 L 266.59,483.87 L 260.52,483.00 L 268.61,477.47 L 270.58,472.46 L 264.56,460.59 L 266.70,459.43 L 272.33,460.88 L 277.18,450.67 L 280.41,450.97 L 279.17,447.42 L 271.21,446.11 L 271.56,441.90 L 280.17,440.83 L 289.51,443.40 L 288.46,438.14 L 280.21,434.19 L 281.34,430.32 L 286.95,428.64 L 281.41,426.38 L 283.35,421.63 L 277.63,422.07 L 274.49,419.08 L 274.00,410.44 L 279.59,405.81 L 284.46,404.76 Z" fill="#C8D8E8" stroke="#8BAABB" stroke-width="0.8"/>
<path d="M 375.63,93.75 L 321.92,93.77 L 351.32,271.88 L 359.51,276.42 L 354.73,293.63 L 238.37,293.60 L 238.15,289.34 L 235.26,291.65 L 236.11,294.76 L 216.59,296.35 L 196.65,294.91 L 190.90,301.86 L 172.43,290.49 L 169.68,292.64 L 166.28,292.64 L 162.69,300.26 L 163.45,306.13 L 155.87,309.61 L 146.41,307.26 L 143.31,303.66 L 131.08,298.75 L 132.90,298.05 L 128.77,293.31 L 125.15,293.66 L 124.37,291.48 L 120.48,290.91 L 118.11,284.45 L 112.99,279.73 L 107.41,280.76 L 105.58,279.00 L 102.35,280.45 L 98.05,275.88 L 85.05,269.09 L 67.84,268.44 L 63.80,268.99 L 63.27,270.73 L 52.99,270.75 L 46.68,272.86 L 28.44,271.98 L 22.83,278.90 L 20.30,287.01 L 20.70,275.99 L 34.35,250.49 L 35.67,237.94 L 30.54,220.24 L 20.51,211.86 L 25.85,211.12 L 28.10,208.74 L 24.87,210.11 L 25.69,208.53 L 22.64,211.19 L 29.65,203.18 L 29.22,200.88 L 27.24,201.16 L 30.00,198.76 L 28.83,195.98 L 30.61,193.93 L 22.58,185.17 L 24.35,184.63 L 20.70,183.29 L 20.30,187.04 L 16.35,184.58 L 8.92,174.45 L 4.70,182.70 L 7.39,170.97 L 127.23,170.78 L 123.07,139.51 L 127.23,135.34 L 139.23,130.02 L 157.42,126.02 L 157.54,72.72 L 258.43,72.61 L 258.59,45.57 L 375.63,93.75 Z M 26.25,201.60 L 23.63,207.22 L 22.68,205.47 L 26.25,201.60 Z M 27.60,204.67 L 24.69,207.25 L 25.87,205.62 L 27.60,204.67 Z M 22.45,205.15 L 22.06,205.62 L 21.68,205.03 L 22.45,205.15 Z M 23.21,186.06 L 22.97,186.82 L 22.36,186.34 L 23.21,186.06 Z" fill="#C8D8E8" stroke="#8BAABB" stroke-width="0.8"/>
<path d="M 608.03,358.74 L 593.65,362.17 L 596.30,367.22 L 594.27,369.31 L 584.01,359.94 L 589.86,358.21 L 585.74,352.29 L 581.58,351.90 L 577.70,354.39 L 569.21,353.84 L 551.62,345.42 L 551.62,338.35 L 560.27,338.82 L 552.58,336.30 L 549.00,333.16 L 539.82,331.61 L 533.00,324.24 L 533.59,319.77 L 526.44,313.56 L 528.51,304.11 L 550.58,304.45 L 562.17,298.06 L 612.76,296.89 L 613.77,295.05 L 628.13,296.58 L 628.72,293.59 L 638.40,289.61 L 644.91,276.71 L 648.65,274.23 L 650.00,216.88 L 697.47,210.41 L 748.65,180.48 L 800.00,159.47 L 800.00,349.11 L 784.93,347.71 L 767.52,339.80 L 759.00,338.84 L 745.90,343.73 L 740.03,343.63 L 736.10,346.18 L 732.11,346.20 L 712.86,332.13 L 708.02,332.62 L 689.20,327.58 L 680.29,330.50 L 668.08,329.89 L 656.79,331.93 L 646.88,336.15 L 645.76,346.18 L 640.92,351.35 L 632.20,356.24 L 631.06,369.12 L 632.97,372.19 L 630.83,373.54 L 608.03,358.74 Z" fill="#C8D8E8" stroke="#8BAABB" stroke-width="0.8"/>
<path d="M 153.00,311.56 L 151.29,316.83 L 158.08,321.57 L 159.13,328.65 L 155.05,331.28 L 163.22,339.64 L 165.85,337.52 L 169.74,338.51 L 172.16,343.75 L 176.40,346.50 L 174.14,355.70 L 176.55,358.64 L 154.86,358.57 L 147.07,360.71 L 130.32,355.85 L 126.11,357.20 L 124.91,353.71 L 61.14,352.84 L 46.53,357.90 L 30.00,357.56 L 14.66,360.14 L 12.47,356.74 L 19.17,353.83 L 20.57,355.24 L 25.50,355.56 L 35.84,353.82 L 41.59,355.42 L 44.94,354.69 L 47.51,355.84 L 51.60,353.76 L 50.84,350.66 L 54.73,350.31 L 55.19,349.50 L 50.40,350.43 L 50.61,353.48 L 47.62,355.37 L 43.78,353.98 L 39.37,354.49 L 36.07,351.80 L 34.41,353.70 L 25.50,355.26 L 21.54,352.25 L 21.34,353.98 L 17.50,353.06 L 18.83,351.11 L 18.65,350.36 L 17.12,353.84 L 13.86,355.10 L 13.18,352.87 L 15.55,351.65 L 12.60,352.09 L 12.40,350.01 L 15.27,342.80 L 41.80,342.80 L 42.24,339.08 L 58.66,338.10 L 62.89,333.69 L 86.19,341.14 L 100.39,339.48 L 102.87,337.07 L 97.72,333.92 L 86.29,336.53 L 80.93,332.62 L 74.91,333.15 L 70.72,329.68 L 64.74,328.87 L 55.11,329.87 L 51.35,333.83 L 19.72,333.75 L 21.31,330.53 L 18.59,332.34 L 17.65,330.10 L 19.87,328.31 L 21.98,329.17 L 21.98,325.01 L 15.52,329.92 L 14.10,326.09 L 19.27,325.29 L 18.83,324.15 L 25.68,321.53 L 22.53,320.98 L 16.91,325.00 L 14.88,324.72 L 16.97,322.97 L 14.67,323.70 L 13.25,328.45 L 12.91,323.81 L 7.74,316.86 L 0.00,310.82 L 0.00,306.44 L 1.18,306.11 L 10.12,299.12 L 20.54,287.52 L 22.61,279.33 L 27.80,272.24 L 32.73,271.32 L 46.68,272.86 L 52.99,270.75 L 63.27,270.73 L 63.80,268.99 L 67.84,268.44 L 85.05,269.09 L 98.05,275.88 L 102.35,280.45 L 105.58,279.00 L 107.41,280.76 L 112.99,279.73 L 118.11,284.45 L 120.48,290.91 L 124.37,291.48 L 125.15,293.66 L 128.77,293.31 L 132.90,298.05 L 131.08,298.75 L 143.31,303.66 L 153.00,311.56 Z" fill="#C8D8E8" stroke="#8BAABB" stroke-width="0.8"/>
<path d="M 155.87,309.61 L 163.45,306.13 L 162.69,300.26 L 166.28,292.64 L 169.68,292.64 L 172.43,290.49 L 190.90,301.86 L 196.65,294.91 L 216.59,296.35 L 236.11,294.76 L 235.26,291.65 L 238.15,289.34 L 238.37,293.60 L 354.73,293.63 L 359.51,276.42 L 351.32,271.88 L 321.92,93.77 L 375.63,93.75 L 556.56,175.66 L 556.81,183.29 L 569.09,186.27 L 575.71,192.43 L 584.60,194.35 L 588.52,193.07 L 594.58,197.65 L 618.78,202.61 L 620.66,211.70 L 615.91,217.02 L 621.39,219.96 L 650.00,216.88 L 648.65,274.23 L 644.91,276.71 L 639.17,288.99 L 628.72,293.59 L 628.13,296.58 L 613.77,295.05 L 612.76,296.89 L 562.17,298.06 L 551.32,304.21 L 542.12,305.29 L 528.51,304.11 L 528.43,305.90 L 514.63,302.64 L 508.90,303.97 L 507.62,302.34 L 499.98,302.37 L 489.11,308.31 L 470.36,314.63 L 461.26,315.16 L 460.08,321.25 L 456.57,321.78 L 447.17,319.15 L 443.06,320.39 L 434.88,325.05 L 434.03,332.39 L 428.81,333.34 L 422.16,331.42 L 423.32,339.94 L 417.26,340.51 L 417.23,342.55 L 401.40,337.96 L 403.03,336.61 L 401.11,335.60 L 389.90,343.61 L 394.11,349.90 L 392.73,351.97 L 385.83,352.10 L 388.80,355.90 L 386.85,357.98 L 388.23,360.67 L 385.74,360.39 L 383.55,363.99 L 377.46,367.00 L 367.51,367.57 L 357.72,370.75 L 361.52,372.21 L 363.60,379.29 L 360.14,385.62 L 354.94,386.65 L 357.14,391.44 L 355.62,397.95 L 354.38,400.26 L 343.60,401.30 L 339.42,405.22 L 332.63,403.91 L 334.43,400.37 L 331.98,398.40 L 333.71,395.97 L 332.15,393.93 L 326.96,394.78 L 326.39,397.60 L 319.62,395.45 L 319.63,401.62 L 310.76,401.96 L 309.11,406.25 L 298.57,403.91 L 294.39,399.57 L 289.45,400.02 L 284.46,404.76 L 279.59,405.81 L 279.39,402.31 L 272.33,400.31 L 270.31,397.91 L 269.37,387.67 L 263.94,387.07 L 262.31,388.77 L 258.17,388.96 L 267.89,380.44 L 259.36,377.73 L 257.25,374.51 L 253.59,374.33 L 254.42,366.87 L 251.32,366.18 L 249.69,359.38 L 244.49,357.35 L 236.89,357.18 L 239.58,359.61 L 238.75,361.46 L 229.91,363.56 L 227.04,366.60 L 210.55,362.56 L 203.13,364.65 L 197.07,369.44 L 189.78,362.52 L 186.74,362.88 L 182.53,366.83 L 178.18,366.59 L 172.93,363.11 L 176.54,359.05 L 176.87,357.04 L 174.14,355.70 L 176.54,346.72 L 172.16,343.75 L 169.74,338.51 L 165.85,337.52 L 163.22,339.64 L 155.05,331.28 L 159.13,328.65 L 158.08,321.57 L 151.29,316.83 L 153.00,311.56 L 150.00,308.76 L 155.87,309.61 Z" fill="#4A90D9" stroke="#1a5fa8" stroke-width="1.2"/>
<path d="M 393.80,299.34 L 395.27,297.13 L 392.33,296.59 L 391.33,293.36 L 400.68,297.30 L 393.80,299.34 Z" fill="#A8C8E8" stroke="none"/>
<path d="M 368.08,487.11 L 367.34,489.16 L 364.31,487.05 L 363.71,485.60 L 366.82,488.33 L 368.08,487.11 Z" fill="#A8C8E8" stroke="none"/>
<path d="M 596.99,485.25 L 593.89,485.05 L 595.96,483.23 L 599.01,484.14 L 596.99,485.25 Z" fill="#A8C8E8" stroke="none"/>
<path d="M 662.28,404.87 L 659.53,406.17 L 661.93,406.74 L 662.58,411.30 L 660.38,412.52 L 659.34,407.74 L 657.24,408.33 L 658.09,406.89 L 656.20,406.74 L 658.92,406.17 L 656.63,405.01 L 658.38,404.90 L 657.68,402.77 L 653.10,401.12 L 657.05,400.84 L 657.24,395.21 L 660.88,397.26 L 662.92,396.31 L 662.28,404.87 Z" fill="#A8C8E8" stroke="none"/>
<path d="M 529.70,468.73 L 531.14,470.90 L 528.47,475.71 L 529.08,479.56 L 531.56,476.82 L 531.38,479.40 L 526.16,480.70 L 525.12,486.18 L 524.66,483.32 L 521.48,486.23 L 518.27,482.57 L 503.73,478.54 L 499.98,475.50 L 503.94,477.09 L 505.59,475.08 L 506.42,477.97 L 509.65,478.38 L 510.14,475.37 L 510.99,478.83 L 515.57,477.38 L 519.29,480.41 L 521.38,478.26 L 519.10,475.94 L 525.33,474.78 L 521.80,474.35 L 523.26,472.48 L 525.55,473.23 L 523.66,471.91 L 525.76,471.18 L 521.76,468.21 L 524.94,468.59 L 527.76,466.56 L 523.47,461.95 L 519.10,461.53 L 520.71,463.19 L 520.14,463.40 L 514.12,461.38 L 523.26,461.09 L 520.01,458.56 L 501.43,460.96 L 519.03,456.81 L 516.41,456.04 L 518.04,455.13 L 516.41,451.58 L 511.82,449.12 L 511.10,451.71 L 507.93,452.07 L 510.94,450.43 L 508.51,449.23 L 504.99,451.43 L 506.23,449.62 L 504.99,447.68 L 501.85,449.85 L 502.17,448.69 L 498.74,449.39 L 503.94,447.40 L 496.09,444.56 L 498.76,444.23 L 490.62,437.11 L 487.04,437.53 L 486.70,440.05 L 485.64,437.18 L 482.95,437.35 L 479.92,435.43 L 474.64,437.59 L 469.88,438.02 L 480.04,435.00 L 480.04,433.55 L 483.99,436.87 L 491.07,436.72 L 490.72,435.00 L 486.01,434.37 L 488.54,434.28 L 485.99,431.78 L 486.89,427.80 L 488.54,429.81 L 487.13,431.99 L 490.11,434.13 L 490.86,432.83 L 495.63,439.67 L 497.90,438.36 L 496.26,436.95 L 497.69,435.00 L 496.88,436.87 L 499.59,438.46 L 500.42,437.31 L 500.60,438.46 L 496.82,441.06 L 505.41,445.37 L 506.42,447.54 L 515.15,446.11 L 516.23,447.59 L 511.82,447.10 L 511.62,448.42 L 517.73,450.71 L 520.14,456.19 L 524.32,456.04 L 523.04,452.58 L 525.12,451.15 L 522.99,449.73 L 527.61,449.39 L 524.35,446.33 L 528.73,443.81 L 524.50,443.28 L 524.00,439.83 L 525.33,438.61 L 526.80,438.90 L 525.95,437.18 L 528.46,435.57 L 525.78,441.58 L 524.71,441.85 L 530.94,444.07 L 527.61,444.50 L 526.16,446.81 L 530.32,448.85 L 524.09,452.45 L 527.17,453.23 L 526.37,455.47 L 529.91,452.58 L 528.04,454.89 L 530.32,455.74 L 530.73,459.79 L 528.04,460.81 L 529.13,462.70 L 531.79,460.38 L 529.70,468.73 Z M 524.94,476.23 L 521.71,477.91 L 524.50,479.69 L 526.98,478.67 L 524.94,476.23 Z" fill="#A8C8E8" stroke="none"/>
<path d="M 356.58,466.24 L 359.32,466.06 L 358.31,467.30 L 355.79,467.65 L 359.55,471.62 L 358.50,473.63 L 348.73,470.31 L 349.24,468.62 L 346.87,467.72 L 348.34,467.30 L 344.78,465.42 L 347.24,465.35 L 346.86,460.51 L 348.92,459.44 L 348.11,453.16 L 350.20,454.61 L 354.26,448.99 L 355.83,449.28 L 352.68,452.58 L 354.59,452.87 L 351.15,456.06 L 355.19,454.89 L 351.44,459.00 L 352.88,461.78 L 349.42,461.69 L 348.94,463.40 L 351.44,463.69 L 350.20,465.58 L 352.98,468.16 L 353.30,463.97 L 354.98,463.82 L 353.53,462.53 L 355.95,462.89 L 356.56,460.23 L 358.73,462.68 L 357.26,464.56 L 359.77,463.27 L 356.58,466.24 Z" fill="#A8C8E8" stroke="none"/>
<path d="M 308.24,488.05 L 303.00,488.38 L 303.59,487.03 L 296.22,484.22 L 294.52,481.27 L 304.96,486.82 L 307.19,483.65 L 308.43,485.32 L 309.05,482.56 L 305.76,481.20 L 309.73,479.76 L 307.19,475.01 L 308.43,471.46 L 311.73,482.49 L 308.24,488.05 Z" fill="#A8C8E8" stroke="none"/>
</svg>