<svg xmlns="http://www.w3.org/2000/svg" width="800" height="500" viewBox="0 0 800 500">
<rect width="800" height="500" fill="#A8C8E8"/>
<path d="M 304.21,49.04 L 291.81,49.72 L 283.69,54.73 L 279.38,53.46 L 274.99,54.51 L 264.84,51.16 L 252.11,54.03 L 253.20,59.29 L 245.57,70.43 L 238.70,72.81 L 231.28,97.22 L 220.04,104.80 L 213.63,115.09 L 201.99,121.20 L 197.78,133.62 L 195.37,150.25 L 187.16,159.70 L 187.56,162.02 L 184.75,167.28 L 180.33,168.53 L 158.87,167.28 L 139.34,168.96 L 141.20,158.20 L 145.50,150.96 L 150.32,148.82 L 153.87,137.83 L 156.40,135.86 L 155.40,133.74 L 164.24,119.15 L 164.19,116.54 L 159.78,122.15 L 160.89,119.42 L 181.83,99.84 L 183.36,86.70 L 189.48,73.93 L 190.44,68.52 L 208.59,56.85 L 216.41,37.16 L 220.80,32.03 L 238.67,28.66 L 250.22,23.68 L 258.69,14.70 L 268.51,9.70 L 275.03,3.20 L 277.22,0.00 L 335.37,0.00 L 333.17,1.43 L 327.08,1.58 L 306.74,15.56 L 306.44,37.66 L 303.74,37.65 L 304.21,49.04 Z M 344.53,0.10 L 343.95,0.00 L 344.91,0.00 L 344.53,0.10 Z" fill="#E8E0D0" stroke="#B8B0A0" stroke-width="0.5"/>
<path d="M 306.44,37.66 L 306.34,72.61 L 239.60,72.72 L 239.52,126.02 L 227.48,130.02 L 219.54,135.34 L 216.79,139.51 L 219.54,170.78 L 140.45,170.79 L 138.48,182.70 L 137.52,180.69 L 139.34,168.96 L 158.87,167.28 L 180.33,168.53 L 184.75,167.28 L 187.56,162.02 L 187.16,159.70 L 195.37,150.25 L 197.78,133.62 L 201.99,121.20 L 213.63,115.09 L 220.04,104.80 L 231.28,97.22 L 238.70,72.81 L 245.57,70.43 L 253.20,59.29 L 252.11,54.03 L 264.84,51.16 L 274.99,54.51 L 279.38,53.46 L 283.69,54.73 L 291.81,49.72 L 304.21,49.04 L 303.74,37.65 L 306.44,37.66 Z" fill="#E8E0D0" stroke="#B8B0A0" stroke-width="0.5"/>
<path d="M 172.16,33.64 L 168.14,36.12 L 163.26,32.18 L 165.57,27.01 L 171.52,26.75 L 172.16,33.64 Z M 137.65,28.41 L 135.37,29.55 L 135.37,26.23 L 137.65,28.41 Z M 148.73,30.03 L 145.78,30.54 L 141.30,23.06 L 149.51,21.61 L 153.33,18.50 L 157.32,18.50 L 152.55,22.51 L 148.73,30.03 Z M 203.31,16.19 L 201.12,25.40 L 192.91,29.47 L 189.62,29.03 L 195.29,25.93 L 200.34,15.05 L 203.31,16.19 Z M 211.47,5.10 L 210.18,9.51 L 204.31,12.87 L 202.45,12.34 L 203.83,8.48 L 209.07,6.59 L 210.16,4.45 L 211.47,5.10 Z M 209.98,4.39 L 208.99,4.67 L 209.65,3.41 L 209.98,4.39 Z" fill="#E8E0D0" stroke="#B8B0A0" stroke-width="0.5"/>
<path d="M 273.58,447.44 L 267.74,450.62 L 267.68,456.15 L 253.60,467.83 L 250.41,474.02 L 243.12,469.19 L 229.74,464.13 L 232.49,464.13 L 230.09,462.96 L 231.31,461.10 L 236.22,459.65 L 230.60,460.50 L 228.99,458.58 L 230.84,456.04 L 227.83,457.94 L 221.09,453.68 L 223.43,453.03 L 221.62,450.64 L 222.34,449.12 L 220.41,445.95 L 216.56,447.69 L 214.09,440.77 L 219.17,443.36 L 217.52,441.34 L 222.46,439.32 L 221.23,439.03 L 222.34,436.87 L 218.61,439.02 L 219.31,437.59 L 216.68,437.17 L 217.69,439.07 L 216.59,440.40 L 215.03,433.92 L 220.13,433.26 L 217.23,433.11 L 218.34,431.53 L 214.49,431.26 L 213.81,429.38 L 217.52,429.33 L 220.67,426.51 L 220.69,424.52 L 224.58,422.94 L 230.43,411.71 L 234.35,410.70 L 237.07,411.85 L 241.47,410.85 L 241.71,409.37 L 255.00,409.35 L 262.24,418.29 L 263.33,422.00 L 266.48,423.80 L 265.05,428.49 L 268.10,429.11 L 267.99,434.14 L 270.35,437.14 L 265.27,445.25 L 274.36,441.09 L 273.58,447.44 Z M 228.88,464.13 L 227.76,462.26 L 220.82,460.22 L 227.44,458.87 L 230.02,460.38 L 228.88,464.13 Z" fill="#E8E0D0" stroke="#B8B0A0" stroke-width="0.5"/>
<path d="M 253.60,467.83 L 267.68,456.15 L 267.74,450.62 L 273.58,447.44 L 274.36,441.09 L 278.19,440.56 L 278.78,442.41 L 284.56,439.44 L 285.59,442.12 L 287.03,441.51 L 286.49,443.05 L 290.06,444.06 L 289.44,447.39 L 292.94,456.72 L 290.23,464.42 L 295.37,464.31 L 297.56,468.33 L 301.83,467.06 L 306.36,457.72 L 308.75,457.85 L 311.59,461.77 L 314.43,471.95 L 313.36,477.01 L 307.72,483.00 L 311.74,483.87 L 311.87,486.21 L 321.85,487.65 L 324.41,494.25 L 330.27,497.44 L 331.23,496.61 L 331.58,500.00 L 283.40,500.00 L 273.33,490.50 L 264.21,487.20 L 264.79,484.86 L 252.88,478.61 L 250.41,474.02 L 253.60,467.83 Z" fill="#E8E0D0" stroke="#B8B0A0" stroke-width="0.5"/>
<path d="M 554.13,372.19 L 552.87,369.12 L 553.62,356.24 L 559.39,351.35 L 562.59,346.18 L 563.33,336.15 L 570.97,331.49 L 578.00,329.81 L 585.43,330.50 L 591.33,327.58 L 603.78,332.62 L 608.32,332.92 L 619.72,346.20 L 622.36,346.18 L 624.95,343.63 L 628.84,343.73 L 637.51,338.84 L 643.14,339.80 L 654.66,347.71 L 664.63,349.11 L 664.63,490.80 L 660.75,495.56 L 658.20,496.57 L 657.47,499.60 L 657.76,500.00 L 587.56,500.00 L 587.64,499.16 L 587.21,500.00 L 583.27,500.00 L 582.93,497.72 L 586.69,495.26 L 581.76,498.26 L 575.81,490.44 L 568.94,485.82 L 549.65,484.73 L 548.47,484.01 L 557.68,480.51 L 551.09,482.28 L 550.40,480.70 L 548.82,481.75 L 548.17,483.90 L 548.47,485.00 L 534.81,485.62 L 536.59,462.28 L 534.16,453.44 L 536.12,429.05 L 542.28,428.25 L 543.41,420.63 L 547.40,416.53 L 547.29,413.39 L 551.04,412.44 L 552.58,410.29 L 554.14,406.13 L 552.23,403.20 L 553.83,400.05 L 556.25,400.64 L 557.55,396.59 L 555.39,392.22 L 555.24,385.81 L 550.15,379.35 L 554.13,372.19 Z" fill="#E8E0D0" stroke="#B8B0A0" stroke-width="0.5"/>
<path d="M 550.15,379.35 L 555.24,385.81 L 555.39,392.22 L 557.55,396.59 L 556.25,400.64 L 553.83,400.05 L 552.23,403.20 L 554.14,406.13 L 552.58,410.29 L 551.04,412.44 L 547.29,413.39 L 547.40,416.53 L 543.41,420.63 L 542.28,428.25 L 536.12,429.05 L 534.16,453.44 L 536.59,462.28 L 534.81,485.62 L 513.07,488.87 L 516.33,487.53 L 511.99,479.10 L 511.31,472.50 L 513.19,472.40 L 512.70,429.21 L 507.18,419.27 L 507.28,409.29 L 496.00,401.49 L 496.25,394.63 L 498.66,388.33 L 499.90,388.72 L 500.27,386.49 L 502.93,387.59 L 501.89,385.19 L 503.82,384.69 L 503.36,382.70 L 507.27,382.10 L 509.46,378.21 L 512.71,380.00 L 520.36,379.47 L 526.18,374.46 L 528.33,368.23 L 529.86,367.58 L 527.94,362.53 L 530.63,361.18 L 537.63,358.74 L 552.71,373.54 L 550.15,379.35 Z" fill="#E8E0D0" stroke="#B8B0A0" stroke-width="0.5"/>
<path d="M 657.47,499.60 L 657.99,496.92 L 664.63,490.13 L 664.63,500.00 L 657.76,500.00 L 657.47,499.60 Z" fill="#E8E0D0" stroke="#B8B0A0" stroke-width="0.5"/>
<path d="M 490.34,388.11 L 490.36,389.58 L 498.66,388.33 L 495.84,401.17 L 507.54,410.00 L 507.18,419.27 L 512.59,428.64 L 513.56,440.91 L 513.19,472.40 L 511.31,472.50 L 511.99,479.10 L 516.33,487.53 L 513.07,488.87 L 504.36,491.25 L 500.31,486.54 L 495.54,484.09 L 491.00,475.86 L 490.50,472.89 L 492.58,471.67 L 493.53,465.52 L 490.52,461.72 L 492.86,457.61 L 492.09,447.00 L 494.88,445.02 L 487.92,435.00 L 490.72,433.06 L 489.23,429.67 L 491.24,421.81 L 488.84,419.90 L 485.13,421.16 L 486.64,419.58 L 485.20,418.14 L 488.16,417.85 L 485.82,416.43 L 487.54,416.30 L 488.54,403.26 L 478.82,395.89 L 480.91,386.86 L 477.25,385.34 L 490.34,388.11 Z" fill="#E8E0D0" stroke="#B8B0A0" stroke-width="0.5"/>
<path d="M 480.91,386.86 L 478.82,395.89 L 488.54,403.26 L 487.54,416.30 L 485.82,416.43 L 488.16,417.85 L 485.20,418.14 L 486.64,419.58 L 485.13,421.16 L 488.84,419.90 L 491.24,421.81 L 489.23,429.67 L 490.72,433.06 L 487.92,435.00 L 494.88,445.02 L 492.09,447.00 L 492.86,457.61 L 490.52,461.72 L 493.53,465.52 L 492.58,471.67 L 490.50,472.89 L 490.93,475.66 L 495.54,484.09 L 500.31,486.54 L 504.36,491.25 L 499.73,497.76 L 485.46,498.49 L 482.70,500.00 L 421.21,500.00 L 421.12,499.47 L 419.82,499.59 L 415.15,480.38 L 415.57,476.31 L 420.96,467.81 L 421.59,460.19 L 424.61,452.48 L 428.22,450.45 L 428.22,447.82 L 430.31,446.89 L 428.05,431.86 L 424.93,429.10 L 427.24,424.51 L 424.52,415.10 L 425.75,412.94 L 425.33,403.73 L 423.60,401.99 L 425.07,400.35 L 421.77,395.87 L 423.68,388.22 L 463.98,388.05 L 467.85,390.11 L 474.53,384.75 L 480.91,386.86 Z" fill="#E8E0D0" stroke="#B8B0A0" stroke-width="0.5"/>
<path d="M 205.91,360.98 L 203.00,361.31 L 200.34,363.95 L 205.33,367.08 L 205.21,373.24 L 202.40,372.53 L 199.49,374.77 L 193.98,374.10 L 189.34,377.39 L 185.53,377.71 L 178.02,389.70 L 179.72,383.62 L 175.12,388.29 L 175.59,383.26 L 175.05,385.60 L 172.55,385.14 L 171.19,382.15 L 174.36,379.07 L 172.85,380.22 L 172.65,378.43 L 169.56,380.65 L 170.24,377.77 L 174.92,376.04 L 174.10,375.03 L 177.41,375.18 L 177.26,376.70 L 179.59,375.31 L 176.29,374.30 L 177.11,373.28 L 175.16,374.32 L 175.19,372.29 L 170.93,376.46 L 171.18,373.58 L 170.18,374.41 L 168.67,372.75 L 170.93,369.55 L 175.94,369.85 L 177.93,368.40 L 178.34,371.27 L 181.02,372.33 L 178.32,370.07 L 179.59,367.59 L 175.42,369.04 L 171.18,367.96 L 163.08,372.43 L 165.01,370.12 L 163.78,369.55 L 160.50,372.72 L 162.38,367.72 L 165.28,367.82 L 165.42,366.81 L 162.41,366.52 L 157.18,369.55 L 152.55,365.30 L 158.41,359.75 L 150.50,363.52 L 145.07,360.14 L 155.22,357.56 L 166.15,357.90 L 175.82,352.84 L 205.24,352.97 L 205.91,360.98 Z M 162.13,386.63 L 160.11,387.16 L 161.16,386.27 L 160.75,383.96 L 162.13,386.63 Z M 160.19,385.73 L 159.33,386.73 L 158.53,384.74 L 160.19,385.73 Z M 157.03,387.57 L 154.70,385.97 L 157.67,383.80 L 158.70,385.69 L 157.03,387.57 Z M 163.17,382.02 L 162.26,383.96 L 161.75,382.94 L 163.17,382.02 Z M 166.53,383.26 L 164.22,384.53 L 164.61,382.37 L 166.53,381.81 L 166.53,383.26 Z M 154.63,383.60 L 154.03,383.07 L 155.53,381.65 L 156.21,383.53 L 154.63,383.60 Z M 166.10,378.91 L 164.99,378.71 L 165.83,377.62 L 166.10,378.91 Z M 153.62,378.63 L 156.36,377.33 L 155.38,378.91 L 153.62,378.63 Z M 151.26,377.90 L 151.13,377.04 L 154.70,375.89 L 154.15,377.75 L 151.26,377.90 Z M 160.89,375.45 L 161.72,378.63 L 158.97,379.34 L 158.00,378.34 L 160.89,375.45 Z M 170.27,376.27 L 167.09,377.05 L 169.13,375.03 L 170.27,376.27 Z M 158.94,369.26 L 159.97,369.51 L 158.85,372.29 L 156.36,369.85 L 158.94,369.26 Z" fill="#E8E0D0" stroke="#B8B0A0" stroke-width="0.5"/>
<path d="M 143.04,338.98 L 146.06,335.66 L 151.26,341.72 L 150.85,340.28 L 154.50,339.27 L 155.11,340.71 L 155.47,340.82 L 156.64,340.28 L 155.12,339.08 L 156.44,337.08 L 167.28,336.53 L 168.83,335.38 L 172.90,336.83 L 173.62,336.52 L 173.82,335.66 L 168.58,334.99 L 156.84,336.54 L 151.84,339.01 L 149.21,338.55 L 148.42,333.75 L 169.34,333.83 L 171.83,329.87 L 177.77,328.85 L 182.15,329.68 L 184.93,333.15 L 188.91,332.62 L 192.46,336.53 L 200.02,333.92 L 203.43,337.07 L 201.78,339.48 L 192.39,341.14 L 176.97,333.69 L 174.18,338.10 L 163.31,339.08 L 163.02,342.80 L 146.17,342.64 L 144.56,344.73 L 143.04,338.98 Z" fill="#E8E0D0" stroke="#B8B0A0" stroke-width="0.5"/>
<path d="M 306.44,45.57 L 306.52,15.96 L 327.76,1.30 L 333.17,1.43 L 335.37,0.00 L 343.95,0.00 L 344.53,0.10 L 344.84,0.00 L 664.63,0.00 L 664.63,159.47 L 630.66,180.48 L 596.80,210.41 L 547.43,220.39 L 542.84,217.02 L 545.98,211.70 L 544.74,202.61 L 528.73,197.65 L 524.72,193.07 L 522.12,194.35 L 516.25,192.43 L 511.87,186.27 L 503.74,183.29 L 503.58,175.66 L 383.88,93.75 L 306.44,45.57 Z" fill="#C8D8E8" stroke="#8BAABB" stroke-width="0.8"/>
<path d="M 526.46,374.18 L 520.91,379.19 L 512.71,380.00 L 509.46,378.21 L 507.27,382.10 L 503.78,382.17 L 503.82,384.69 L 501.89,385.19 L 503.00,387.50 L 500.27,386.49 L 499.90,388.72 L 490.36,389.58 L 490.34,388.11 L 474.53,384.75 L 467.85,390.11 L 463.98,388.05 L 423.68,388.22 L 421.77,395.87 L 425.07,400.35 L 423.60,401.99 L 425.33,403.73 L 425.75,412.94 L 424.52,415.10 L 426.65,419.97 L 425.15,422.01 L 416.11,410.99 L 414.36,412.56 L 414.05,411.29 L 405.27,410.56 L 397.34,413.04 L 392.91,417.99 L 390.29,416.47 L 390.13,414.58 L 386.70,415.90 L 384.38,414.38 L 384.34,412.53 L 380.98,411.30 L 381.03,408.37 L 378.89,406.90 L 377.91,403.04 L 372.23,402.89 L 369.82,400.26 L 371.65,391.44 L 370.19,386.65 L 373.63,385.62 L 375.92,379.29 L 374.54,372.21 L 372.03,370.75 L 378.51,367.57 L 385.09,367.00 L 389.12,363.99 L 390.57,360.39 L 392.21,360.67 L 391.30,357.98 L 392.59,355.90 L 390.62,352.10 L 395.19,351.97 L 396.11,349.90 L 393.80,342.55 L 395.65,342.41 L 400.80,335.58 L 402.00,336.61 L 400.93,337.96 L 411.40,342.55 L 411.42,340.51 L 415.43,339.94 L 414.66,331.42 L 419.06,333.34 L 422.51,332.39 L 423.07,325.05 L 428.49,320.39 L 431.21,319.15 L 437.42,321.78 L 439.75,321.25 L 440.53,315.16 L 446.55,314.63 L 458.95,308.31 L 466.15,302.37 L 471.20,302.34 L 472.04,303.97 L 475.84,302.64 L 484.96,305.90 L 483.77,314.63 L 488.38,319.77 L 487.99,324.24 L 492.50,331.61 L 498.57,333.16 L 500.95,336.30 L 506.03,338.82 L 500.31,338.35 L 500.31,345.42 L 511.95,353.84 L 517.56,354.39 L 520.13,351.90 L 522.88,352.29 L 525.61,358.21 L 521.73,359.94 L 528.52,369.31 L 526.46,374.18 Z" fill="#C8D8E8" stroke="#8BAABB" stroke-width="0.8"/>
<path d="M 216.68,426.35 L 214.64,426.12 L 215.18,424.63 L 213.52,426.42 L 213.81,422.74 L 211.67,424.21 L 211.89,421.01 L 209.54,420.79 L 210.09,418.28 L 208.87,419.73 L 208.04,418.28 L 205.28,419.50 L 208.59,413.67 L 206.79,412.52 L 205.23,414.60 L 206.10,410.34 L 202.94,412.14 L 198.62,408.68 L 199.79,405.01 L 196.72,408.04 L 197.03,405.44 L 195.33,406.98 L 194.90,405.38 L 190.71,404.70 L 189.06,398.52 L 186.60,399.12 L 189.76,390.47 L 185.75,395.68 L 186.73,392.17 L 184.54,394.50 L 184.94,390.87 L 183.57,391.89 L 183.35,390.03 L 186.46,387.42 L 186.05,386.84 L 182.87,388.86 L 181.37,387.57 L 180.54,393.05 L 178.14,391.15 L 185.53,377.71 L 189.34,377.39 L 193.98,374.10 L 199.49,374.77 L 202.40,372.53 L 205.21,373.24 L 205.33,367.08 L 200.34,363.95 L 203.00,361.31 L 205.91,360.98 L 205.24,352.97 L 218.31,353.76 L 218.80,357.20 L 221.59,355.85 L 232.66,360.71 L 237.82,358.57 L 250.30,358.13 L 252.17,359.05 L 249.78,363.11 L 253.25,366.59 L 256.13,366.83 L 258.91,362.88 L 260.92,362.52 L 265.75,369.44 L 269.75,364.65 L 274.66,362.56 L 285.57,366.60 L 287.47,363.56 L 293.32,361.46 L 293.87,359.61 L 291.80,357.56 L 294.74,356.72 L 300.56,359.38 L 300.19,362.41 L 304.13,368.71 L 303.14,374.33 L 305.56,374.51 L 306.96,377.73 L 312.60,380.44 L 306.08,388.63 L 308.91,388.77 L 309.99,387.07 L 313.58,387.67 L 314.43,398.46 L 320.71,403.29 L 316.64,410.44 L 316.97,419.08 L 319.05,422.07 L 322.83,421.63 L 321.54,426.38 L 325.21,428.64 L 321.50,430.32 L 320.75,434.19 L 326.21,438.14 L 326.90,443.40 L 323.66,441.24 L 322.83,442.44 L 320.72,440.83 L 315.14,441.75 L 314.80,446.11 L 320.06,447.42 L 320.88,450.97 L 318.74,450.67 L 316.11,460.20 L 311.81,459.43 L 310.39,460.59 L 308.75,457.85 L 306.36,457.72 L 302.92,466.58 L 297.56,468.33 L 295.37,464.31 L 290.23,464.42 L 292.94,456.72 L 289.44,447.39 L 290.06,444.06 L 286.49,443.05 L 287.03,441.51 L 285.59,442.12 L 284.56,439.44 L 278.78,442.41 L 277.05,440.26 L 272.50,440.88 L 268.90,444.73 L 265.27,445.25 L 270.35,437.14 L 267.99,434.14 L 268.10,429.11 L 265.05,428.49 L 266.48,423.80 L 263.33,422.00 L 255.96,409.59 L 241.71,409.37 L 241.47,410.85 L 237.07,411.85 L 234.35,410.70 L 230.43,411.71 L 224.58,422.94 L 220.69,424.52 L 220.67,426.51 L 217.52,429.33 L 213.81,429.38 L 216.68,426.35 Z" fill="#C8D8E8" stroke="#8BAABB" stroke-width="0.8"/>
<path d="M 323.56,404.76 L 326.86,400.02 L 330.13,399.57 L 332.90,403.91 L 339.87,406.25 L 340.96,401.96 L 346.83,401.62 L 346.82,395.45 L 351.30,397.60 L 351.68,394.78 L 355.11,393.93 L 356.14,395.97 L 355.00,398.40 L 356.62,400.37 L 355.43,403.91 L 359.92,405.22 L 362.69,401.30 L 368.38,399.66 L 372.23,402.89 L 377.58,402.81 L 378.89,406.90 L 381.03,408.37 L 380.98,411.30 L 384.34,412.53 L 384.38,414.38 L 386.70,415.90 L 390.13,414.58 L 390.29,416.47 L 392.91,417.99 L 397.34,413.04 L 405.27,410.56 L 414.05,411.29 L 414.36,412.56 L 416.11,410.99 L 424.22,421.60 L 426.65,419.97 L 427.21,424.91 L 424.93,429.10 L 428.05,431.86 L 430.31,446.89 L 428.22,447.82 L 428.22,450.45 L 424.61,452.48 L 421.59,460.19 L 420.96,467.81 L 415.90,475.50 L 415.15,480.38 L 419.82,499.59 L 421.12,499.47 L 421.21,500.00 L 331.58,500.00 L 331.23,496.61 L 330.27,497.44 L 324.41,494.25 L 321.85,487.65 L 311.87,486.21 L 311.74,483.87 L 307.72,483.00 L 313.07,477.47 L 314.38,472.46 L 310.39,460.59 L 311.81,459.43 L 315.54,460.88 L 318.74,450.67 L 320.88,450.97 L 320.06,447.42 L 314.80,446.11 L 315.03,441.90 L 320.72,440.83 L 326.90,443.40 L 326.21,438.14 L 320.75,434.19 L 321.50,430.32 L 325.21,428.64 L 321.54,426.38 L 322.83,421.63 L 319.05,422.07 L 316.97,419.08 L 316.64,410.44 L 320.34,405.81 L 323.56,404.76 Z" fill="#C8D8E8" stroke="#8BAABB" stroke-width="0.8"/>
<path d="M 383.88,93.75 L 348.35,93.77 L 367.80,271.88 L 373.21,276.42 L 370.05,293.63 L 293.07,293.60 L 292.92,289.34 L 291.01,291.65 L 291.57,294.76 L 278.66,296.35 L 265.47,294.91 L 261.66,301.86 L 249.44,290.49 L 247.63,292.64 L 245.38,292.64 L 243.00,300.26 L 243.51,306.13 L 238.49,309.61 L 232.23,307.26 L 230.18,303.66 L 222.09,298.75 L 223.30,298.05 L 220.56,293.31 L 218.16,293.66 L 217.65,291.48 L 215.08,290.91 L 213.51,284.45 L 210.12,279.73 L 206.43,280.76 L 205.22,279.00 L 203.08,280.45 L 200.23,275.88 L 191.63,269.09 L 180.25,268.44 L 177.58,268.99 L 177.22,270.73 L 170.43,270.75 L 166.25,272.86 L 154.18,271.98 L 150.48,278.90 L 148.80,287.01 L 149.06,275.99 L 158.09,250.49 L 158.97,237.94 L 155.57,220.24 L 148.94,211.86 L 152.47,211.12 L 153.96,208.74 L 151.83,210.11 L 152.36,208.53 L 150.35,211.19 L 154.99,203.18 L 154.70,200.88 L 153.39,201.16 L 155.21,198.76 L 154.44,195.98 L 155.62,193.93 L 150.31,185.17 L 151.48,184.63 L 149.06,183.29 L 148.80,187.04 L 146.19,184.58 L 141.27,174.45 L 138.48,182.70 L 140.26,170.97 L 219.54,170.78 L 216.79,139.51 L 219.54,135.34 L 227.48,130.02 L 239.52,126.02 L 239.60,72.72 L 306.34,72.61 L 306.44,45.57 L 383.88,93.75 Z M 152.74,201.60 L 151.00,207.22 L 150.37,205.47 L 152.74,201.60 Z M 153.63,204.67 L 151.70,207.25 L 152.49,205.62 L 153.63,204.67 Z M 150.22,205.15 L 149.96,205.62 L 149.71,205.03 L 150.22,205.15 Z M 150.72,186.06 L 150.57,186.82 L 150.17,186.34 L 150.72,186.06 Z" fill="#C8D8E8" stroke="#8BAABB" stroke-width="0.8"/>
<path d="M 537.63,358.74 L 528.12,362.17 L 529.87,367.22 L 528.52,369.31 L 521.73,359.94 L 525.61,358.21 L 522.88,352.29 L 520.13,351.90 L 517.56,354.39 L 511.95,353.84 L 500.31,345.42 L 500.31,338.35 L 506.03,338.82 L 500.95,336.30 L 498.57,333.16 L 492.50,331.61 L 487.99,324.24 L 488.38,319.77 L 483.65,313.56 L 485.02,304.11 L 499.62,304.45 L 507.29,298.06 L 540.76,296.89 L 541.43,295.05 L 550.92,296.58 L 551.31,293.59 L 557.72,289.61 L 562.02,276.71 L 564.50,274.23 L 565.39,216.88 L 596.80,210.41 L 630.66,180.48 L 664.63,159.47 L 664.63,349.11 L 654.66,347.71 L 643.14,339.80 L 637.51,338.84 L 628.84,343.73 L 624.95,343.63 L 622.36,346.18 L 619.72,346.20 L 606.98,332.13 L 603.78,332.62 L 591.33,327.58 L 585.43,330.50 L 577.35,329.89 L 569.89,331.93 L 563.33,336.15 L 562.59,346.18 L 559.39,351.35 L 553.62,356.24 L 552.87,369.12 L 554.13,372.19 L 552.71,373.54 L 537.63,358.74 Z" fill="#C8D8E8" stroke="#8BAABB" stroke-width="0.8"/>
<path d="M 236.59,311.56 L 235.46,316.83 L 239.95,321.57 L 240.65,328.65 L 237.95,331.28 L 243.35,339.64 L 245.09,337.52 L 247.66,338.51 L 249.27,343.75 L 252.07,346.50 L 250.58,355.70 L 252.17,358.64 L 237.82,358.57 L 232.66,360.71 L 221.59,355.85 L 218.80,357.20 L 218.01,353.71 L 175.82,352.84 L 166.15,357.90 L 155.22,357.56 L 145.07,360.14 L 143.62,356.74 L 148.05,353.83 L 148.98,355.24 L 152.24,355.56 L 159.08,353.82 L 162.89,355.42 L 165.10,354.69 L 166.80,355.84 L 169.51,353.76 L 169.00,350.66 L 171.57,350.31 L 171.88,349.50 L 168.71,350.43 L 168.85,353.48 L 166.88,355.37 L 164.34,353.98 L 161.42,354.49 L 159.23,351.80 L 158.14,353.70 L 152.24,355.26 L 149.62,352.25 L 149.48,353.98 L 146.95,353.06 L 147.83,351.11 L 147.70,350.36 L 146.70,353.84 L 144.54,355.10 L 144.09,352.87 L 145.66,351.65 L 143.71,352.09 L 143.57,350.01 L 145.47,342.80 L 163.02,342.80 L 163.31,339.08 L 174.18,338.10 L 176.97,333.69 L 192.39,341.14 L 201.78,339.48 L 203.43,337.07 L 200.02,333.92 L 192.46,336.53 L 188.91,332.62 L 184.93,333.15 L 182.15,329.68 L 178.20,328.87 L 171.83,329.87 L 169.34,333.83 L 148.42,333.75 L 149.47,330.53 L 147.67,332.34 L 147.05,330.10 L 148.51,328.31 L 149.91,329.17 L 149.91,325.01 L 145.64,329.92 L 144.70,326.09 L 148.12,325.29 L 147.83,324.15 L 152.36,321.53 L 150.28,320.98 L 146.56,325.00 L 145.21,324.72 L 146.59,322.97 L 145.08,323.70 L 144.13,328.45 L 143.91,323.81 L 140.49,316.86 L 135.37,310.82 L 135.37,306.44 L 136.15,306.11 L 142.06,299.12 L 148.96,287.52 L 150.33,279.33 L 153.76,272.24 L 157.02,271.32 L 166.25,272.86 L 170.43,270.75 L 177.22,270.73 L 177.58,268.99 L 180.25,268.44 L 191.63,269.09 L 200.23,275.88 L 203.08,280.45 L 205.22,279.00 L 206.43,280.76 L 210.12,279.73 L 213.51,284.45 L 215.08,290.91 L 217.65,291.48 L 218.16,293.66 L 220.56,293.31 L 223.30,298.05 L 222.09,298.75 L 230.18,303.66 L 236.59,311.56 Z" fill="#C8D8E8" stroke="#8BAABB" stroke-width="0.8"/>
<path d="M 238.49,309.61 L 243.51,306.13 L 243.00,300.26 L 245.38,292.64 L 247.63,292.64 L 249.44,290.49 L 261.66,301.86 L 265.47,294.91 L 278.66,296.35 L 291.57,294.76 L 291.01,291.65 L 292.92,289.34 L 293.07,293.60 L 370.05,293.63 L 373.21,276.42 L 367.80,271.88 L 348.35,93.77 L 383.88,93.75 L 503.58,175.66 L 503.74,183.29 L 511.87,186.27 L 516.25,192.43 L 522.12,194.35 L 524.72,193.07 L 528.73,197.65 L 544.74,202.61 L 545.98,211.70 L 542.84,217.02 L 546.47,219.96 L 565.39,216.88 L 564.50,274.23 L 562.02,276.71 L 558.23,288.99 L 551.31,293.59 L 550.92,296.58 L 541.43,295.05 L 540.76,296.89 L 507.29,298.06 L 500.11,304.21 L 494.02,305.29 L 485.02,304.11 L 484.96,305.90 L 475.84,302.64 L 472.04,303.97 L 471.20,302.34 L 466.15,302.37 L 458.95,308.31 L 446.55,314.63 L 440.53,315.16 L 439.75,321.25 L 437.42,321.78 L 431.21,319.15 L 428.49,320.39 L 423.07,325.05 L 422.51,332.39 L 419.06,333.34 L 414.66,331.42 L 415.43,339.94 L 411.42,340.51 L 411.40,342.55 L 400.93,337.96 L 402.00,336.61 L 400.73,335.60 L 393.31,343.61 L 396.11,349.90 L 395.19,351.97 L 390.62,352.10 L 392.59,355.90 L 391.30,357.98 L 392.21,360.67 L 390.57,360.39 L 389.12,363.99 L 385.09,367.00 L 378.51,367.57 L 372.03,370.75 L 374.54,372.21 L 375.92,379.29 L 373.63,385.62 L 370.19,386.65 L 371.65,391.44 L 370.64,397.95 L 369.82,400.26 L 362.69,401.30 L 359.92,405.22 L 355.43,403.91 L 356.62,400.37 L 355.00,398.40 L 356.14,395.97 L 355.11,393.93 L 351.68,394.78 L 351.30,397.60 L 346.82,395.45 L 346.83,401.62 L 340.96,401.96 L 339.87,406.25 L 332.90,403.91 L 330.13,399.57 L 326.86,400.02 L 323.56,404.76 L 320.34,405.81 L 320.20,402.31 L 315.54,400.31 L 314.20,397.91 L 313.58,387.67 L 309.99,387.07 L 308.91,388.77 L 306.17,388.96 L 312.60,380.44 L 306.96,377.73 L 305.56,374.51 L 303.14,374.33 L 303.69,366.87 L 301.64,366.18 L 300.56,359.38 L 297.12,357.35 L 292.09,357.18 L 293.87,359.61 L 293.32,361.46 L 287.47,363.56 L 285.57,366.60 L 274.66,362.56 L 269.75,364.65 L 265.75,369.44 L 260.92,362.52 L 258.91,362.88 L 256.13,366.83 L 253.25,366.59 L 249.78,363.11 L 252.17,359.05 L 252.38,357.04 L 250.58,355.70 L 252.16,346.72 L 249.27,343.75 L 247.66,338.51 L 245.09,337.52 L 243.35,339.64 L 237.95,331.28 L 240.65,328.65 L 239.95,321.57 L 235.46,316.83 L 236.59,311.56 L 234.61,308.76 L 238.49,309.61 Z" fill="#4A90D9" stroke="#1a5fa8" stroke-width="1.2"/>
<path d="M 395.90,299.34 L 396.87,297.13 L 394.93,296.59 L 394.26,293.36 L 400.45,297.30 L 395.90,299.34 Z" fill="#A8C8E8" stroke="none"/>
<path d="M 378.88,487.11 L 378.39,489.16 L 376.39,487.05 L 375.99,485.60 L 378.05,488.33 L 378.88,487.11 Z" fill="#A8C8E8" stroke="none"/>
<path d="M 530.33,485.25 L 528.27,485.05 L 529.64,483.23 L 531.66,484.14 L 530.33,485.25 Z" fill="#A8C8E8" stroke="none"/>
<path d="M 573.52,404.87 L 571.70,406.17 L 573.29,406.74 L 573.71,411.30 L 572.26,412.52 L 571.57,407.74 L 570.18,408.33 L 570.75,406.89 L 569.50,406.74 L 571.29,406.17 L 569.78,405.01 L 570.94,404.90 L 570.47,402.77 L 567.44,401.12 L 570.06,400.84 L 570.18,395.21 L 572.59,397.26 L 573.94,396.31 L 573.52,404.87 Z" fill="#A8C8E8" stroke="none"/>
<path d="M 485.80,468.73 L 486.76,470.90 L 485.00,475.71 L 485.40,479.56 L 487.04,476.82 L 486.91,479.40 L 483.47,480.70 L 482.78,486.18 L 482.47,483.32 L 480.37,486.23 L 478.25,482.57 L 468.62,478.54 L 466.15,475.50 L 468.76,477.09 L 469.86,475.08 L 470.40,477.97 L 472.54,478.38 L 472.87,475.37 L 473.43,478.83 L 476.46,477.38 L 478.92,480.41 L 480.30,478.26 L 478.80,475.94 L 482.92,474.78 L 480.58,474.35 L 481.55,472.48 L 483.06,473.23 L 481.81,471.91 L 483.20,471.18 L 480.56,468.21 L 482.66,468.59 L 484.52,466.56 L 481.68,461.95 L 478.80,461.53 L 479.86,463.19 L 479.48,463.40 L 475.50,461.38 L 481.55,461.09 L 479.39,458.56 L 467.11,460.96 L 478.75,456.81 L 477.01,456.04 L 478.09,455.13 L 477.01,451.58 L 473.98,449.12 L 473.50,451.71 L 471.41,452.07 L 473.40,450.43 L 471.79,449.23 L 469.46,451.43 L 470.28,449.62 L 469.46,447.68 L 467.38,449.85 L 467.59,448.69 L 465.32,449.39 L 468.76,447.40 L 463.57,444.56 L 465.34,444.23 L 459.95,437.11 L 457.58,437.53 L 457.36,440.05 L 456.66,437.18 L 454.88,437.35 L 452.88,435.43 L 449.38,437.59 L 446.23,438.02 L 452.95,435.00 L 452.95,433.55 L 455.56,436.87 L 460.25,436.72 L 460.02,435.00 L 456.90,434.37 L 458.58,434.28 L 456.89,431.78 L 457.48,427.80 L 458.58,429.81 L 457.64,431.99 L 459.62,434.13 L 460.11,432.83 L 463.27,439.67 L 464.77,438.36 L 463.68,436.95 L 464.63,435.00 L 464.09,436.87 L 465.88,438.46 L 466.43,437.31 L 466.56,438.46 L 464.05,441.06 L 469.73,445.37 L 470.40,447.54 L 476.18,446.11 L 476.90,447.59 L 473.98,447.10 L 473.84,448.42 L 477.89,450.71 L 479.48,456.19 L 482.24,456.04 L 481.40,452.58 L 482.78,451.15 L 481.37,449.73 L 484.43,449.39 L 482.27,446.33 L 485.17,443.81 L 482.37,443.28 L 482.04,439.83 L 482.92,438.61 L 483.89,438.90 L 483.33,437.18 L 484.98,435.57 L 483.21,441.58 L 482.50,441.85 L 486.63,444.07 L 484.43,444.50 L 483.47,446.81 L 486.22,448.85 L 482.09,452.45 L 484.13,453.23 L 483.60,455.47 L 485.94,452.58 L 484.71,454.89 L 486.22,455.74 L 486.49,459.79 L 484.71,460.81 L 485.43,462.70 L 487.19,460.38 L 485.80,468.73 Z M 482.66,476.23 L 480.52,477.91 L 482.37,479.69 L 484.01,478.67 L 482.66,476.23 Z" fill="#A8C8E8" stroke="none"/>
<path d="M 371.28,466.24 L 373.09,466.06 L 372.42,467.30 L 370.75,467.65 L 373.24,471.62 L 372.55,473.63 L 366.08,470.31 L 366.42,468.62 L 364.85,467.72 L 365.82,467.30 L 363.47,465.42 L 365.09,465.35 L 364.84,460.51 L 366.21,459.44 L 365.67,453.16 L 367.05,454.61 L 369.74,448.99 L 370.78,449.28 L 368.70,452.58 L 369.95,452.87 L 367.68,456.06 L 370.35,454.89 L 367.88,459.00 L 368.83,461.78 L 366.54,461.69 L 366.22,463.40 L 367.88,463.69 L 367.05,465.58 L 368.89,468.16 L 369.11,463.97 L 370.22,463.82 L 369.26,462.53 L 370.86,462.89 L 371.26,460.23 L 372.69,462.68 L 371.72,464.56 L 373.38,463.27 L 371.28,466.24 Z" fill="#A8C8E8" stroke="none"/>
<path d="M 339.29,488.05 L 335.83,488.38 L 336.22,487.03 L 331.34,484.22 L 330.22,481.27 L 337.13,486.82 L 338.60,483.65 L 339.42,485.32 L 339.83,482.56 L 337.65,481.20 L 340.28,479.76 L 338.60,475.01 L 339.42,471.46 L 341.60,482.49 L 339.29,488.05 Z" fill="#A8C8E8" stroke="none"/>
</svg>