<svg xmlns="http://www.w3.org/2000/svg" width="800" height="500" viewBox="0 0 800 500">
<rect width="800" height="500" fill="#A8C8E8"/>
<path d="M 382.50,492.28 L 376.73,481.35 L 376.94,476.67 L 380.40,475.31 L 383.23,475.78 L 387.58,477.69 L 390.74,481.30 L 395.75,482.61 L 404.68,481.67 L 408.67,483.79 L 413.40,482.19 L 419.43,488.07 L 420.81,493.80 L 425.20,495.82 L 425.06,499.38 L 424.56,500.00 L 391.44,500.00 L 382.50,492.28 Z M 425.00,499.95 L 425.02,500.00 L 424.95,500.00 L 425.00,499.95 Z M 376.05,476.31 L 375.31,475.86 L 375.83,475.15 L 376.05,476.31 Z M 375.59,474.52 L 375.69,474.70 L 375.52,475.07 L 374.55,475.28 L 373.82,473.81 L 375.59,474.52 Z M 378.92,473.23 L 376.96,471.18 L 378.06,471.93 L 378.98,471.28 L 378.92,473.23 Z" fill="#E8E0D0" stroke="#B8B0A0" stroke-width="0.5"/>
<path d="M 489.21,466.60 L 492.09,471.69 L 500.08,478.13 L 506.70,489.46 L 507.46,497.80 L 506.87,500.00 L 462.22,500.00 L 461.28,497.59 L 462.54,493.57 L 461.74,492.72 L 462.87,491.74 L 461.89,491.80 L 462.10,489.69 L 458.12,484.82 L 459.20,482.71 L 458.29,472.70 L 457.87,469.34 L 454.54,463.20 L 455.00,457.96 L 456.69,457.94 L 458.48,460.84 L 462.31,462.13 L 463.87,461.32 L 465.50,465.60 L 469.42,465.44 L 469.37,470.58 L 467.58,473.01 L 470.05,475.72 L 472.05,473.10 L 476.92,471.03 L 478.62,473.46 L 480.74,473.89 L 484.83,467.97 L 485.04,465.25 L 489.21,466.60 Z M 456.92,481.85 L 455.28,481.75 L 455.20,478.59 L 457.25,478.71 L 456.92,481.85 Z M 449.23,465.00 L 449.80,464.64 L 449.31,466.68 L 449.23,465.00 Z M 448.10,465.19 L 446.78,462.28 L 449.88,461.72 L 450.81,463.47 L 448.10,465.19 Z" fill="#E8E0D0" stroke="#B8B0A0" stroke-width="0.5"/>
<path d="M 305.33,101.08 L 311.39,103.20 L 315.14,101.06 L 320.62,103.59 L 319.46,105.06 L 320.58,106.21 L 319.94,110.15 L 322.02,111.59 L 326.70,111.81 L 327.72,114.39 L 326.13,117.53 L 327.47,121.14 L 324.64,121.24 L 324.41,122.55 L 323.57,121.62 L 318.77,122.64 L 317.19,121.41 L 315.24,123.02 L 306.11,123.15 L 300.31,120.99 L 296.81,123.41 L 291.88,124.33 L 286.61,122.46 L 286.61,101.75 L 287.90,100.34 L 293.49,97.32 L 298.37,96.60 L 299.40,98.22 L 304.07,98.69 L 302.30,101.38 L 305.33,101.08 Z" fill="#E8E0D0" stroke="#B8B0A0" stroke-width="0.5"/>
<path d="M 513.01,247.70 L 513.39,247.40 L 513.39,247.86 L 513.01,247.70 Z M 512.01,221.91 L 510.30,225.07 L 506.58,222.42 L 501.46,221.54 L 496.51,215.09 L 499.23,209.75 L 498.82,207.05 L 497.23,207.59 L 496.60,205.40 L 495.74,207.99 L 494.14,208.37 L 493.20,204.31 L 485.75,196.03 L 487.32,195.81 L 490.86,189.90 L 500.10,195.49 L 504.52,189.52 L 507.58,192.97 L 509.83,189.34 L 513.39,192.85 L 513.39,221.37 L 512.01,221.91 Z M 512.97,396.64 L 513.39,396.41 L 513.39,397.42 L 512.97,396.64 Z" fill="#E8E0D0" stroke="#B8B0A0" stroke-width="0.5"/>
<path d="M 513.29,391.16 L 512.57,393.75 L 509.47,394.47 L 507.55,392.53 L 508.58,390.71 L 510.49,390.47 L 511.02,387.90 L 510.27,385.09 L 508.04,383.43 L 507.02,383.62 L 505.98,388.08 L 501.64,388.13 L 500.55,382.47 L 502.04,380.84 L 500.66,378.69 L 502.39,379.04 L 500.23,376.06 L 500.12,377.09 L 498.93,376.86 L 500.32,375.73 L 499.15,375.50 L 499.43,374.42 L 500.69,374.34 L 500.98,374.01 L 499.36,374.24 L 497.96,372.30 L 499.15,374.24 L 498.93,376.64 L 494.91,367.15 L 495.89,362.19 L 491.55,358.44 L 491.61,352.85 L 489.06,348.20 L 488.82,343.76 L 493.30,342.69 L 492.43,341.62 L 494.89,340.08 L 498.60,332.76 L 509.68,328.71 L 513.39,330.34 L 513.39,391.31 L 513.29,391.16 Z M 512.34,394.75 L 512.16,395.26 L 511.35,394.81 L 512.34,394.75 Z M 504.01,391.61 L 502.77,390.11 L 503.50,389.85 L 504.01,391.61 Z M 500.32,381.59 L 499.76,381.89 L 499.47,379.04 L 500.32,381.59 Z M 500.44,378.35 L 500.12,379.04 L 499.58,377.58 L 500.44,378.35 Z M 504.74,393.74 L 504.20,392.61 L 504.68,392.53 L 504.74,393.74 Z" fill="#E8E0D0" stroke="#B8B0A0" stroke-width="0.5"/>
<path d="M 336.31,214.64 L 335.31,215.22 L 334.59,213.32 L 331.41,211.64 L 329.13,214.35 L 331.45,223.70 L 325.58,211.98 L 326.78,207.59 L 326.07,208.50 L 326.17,206.09 L 324.74,206.18 L 325.53,204.60 L 323.38,199.66 L 324.87,195.58 L 322.97,198.70 L 321.22,193.75 L 317.85,189.96 L 318.30,187.58 L 315.57,191.04 L 313.43,190.55 L 314.73,191.98 L 313.76,193.60 L 311.97,193.58 L 310.86,191.27 L 311.16,192.85 L 309.65,192.89 L 304.73,184.91 L 305.33,181.52 L 304.27,178.48 L 306.08,177.67 L 306.09,177.06 L 304.39,177.79 L 304.45,175.87 L 302.32,176.26 L 303.90,176.99 L 303.51,179.56 L 298.74,178.39 L 304.44,182.13 L 303.82,184.62 L 303.61,184.14 L 301.96,184.78 L 301.88,185.05 L 302.19,186.05 L 302.85,187.35 L 303.32,187.71 L 302.32,187.92 L 300.68,189.96 L 302.58,190.82 L 301.78,194.43 L 303.07,192.94 L 304.37,194.90 L 304.05,194.77 L 304.48,197.41 L 303.60,199.27 L 301.25,201.23 L 301.45,199.35 L 301.02,197.86 L 299.11,205.04 L 296.28,205.50 L 296.80,203.80 L 295.20,204.96 L 298.58,199.79 L 295.41,202.89 L 295.64,200.07 L 293.78,202.70 L 292.87,198.08 L 294.97,194.49 L 292.81,195.68 L 292.78,201.13 L 291.62,201.40 L 292.93,204.60 L 290.23,205.50 L 289.25,203.91 L 290.10,206.25 L 288.30,207.66 L 287.36,205.79 L 288.93,197.06 L 287.45,202.92 L 287.52,201.18 L 286.61,197.96 L 286.61,136.42 L 287.59,136.62 L 288.69,134.74 L 287.92,133.56 L 289.34,132.23 L 292.11,136.29 L 291.96,147.87 L 300.56,150.12 L 314.28,149.26 L 320.63,150.55 L 326.86,149.59 L 333.95,153.82 L 332.32,155.35 L 329.84,154.44 L 328.02,162.53 L 324.75,163.67 L 324.39,166.67 L 322.12,165.40 L 321.65,166.92 L 320.48,165.71 L 319.73,167.70 L 316.29,167.64 L 312.65,173.96 L 315.51,184.30 L 316.41,184.94 L 316.78,181.60 L 319.80,186.91 L 323.10,184.49 L 322.28,181.44 L 325.39,177.72 L 325.11,173.93 L 326.62,175.31 L 328.70,173.78 L 329.38,175.17 L 330.41,174.20 L 331.99,187.21 L 334.14,191.06 L 336.31,214.64 Z M 287.28,203.29 L 286.61,205.57 L 286.61,198.21 L 287.28,203.29 Z M 325.85,210.61 L 324.39,211.32 L 324.02,207.24 L 324.55,207.92 L 325.31,206.67 L 325.85,210.61 Z M 324.16,206.17 L 323.68,207.24 L 324.23,203.80 L 324.16,206.17 Z M 304.37,203.69 L 303.33,204.73 L 302.75,204.96 L 304.37,203.69 Z M 301.02,202.66 L 299.90,205.27 L 299.83,204.45 L 301.02,202.66 Z M 300.82,202.28 L 300.16,203.13 L 300.46,202.29 L 300.82,202.28 Z M 302.47,203.05 L 301.36,204.32 L 301.02,203.69 L 301.67,201.98 L 302.47,203.05 Z M 302.43,202.08 L 304.48,199.93 L 302.83,202.67 L 303.39,201.64 L 302.43,202.08 Z M 309.89,200.25 L 309.45,200.72 L 309.31,199.99 L 309.89,200.25 Z M 310.21,198.67 L 310.30,198.34 L 310.53,198.74 L 310.20,199.57 L 310.21,198.67 Z M 309.58,198.78 L 310.20,196.60 L 310.48,197.63 L 309.58,198.78 Z M 313.51,198.87 L 310.92,201.08 L 311.75,196.18 L 313.51,198.87 Z M 305.19,196.33 L 304.90,197.51 L 304.90,196.83 L 304.57,195.58 L 305.19,196.33 Z M 305.11,194.60 L 305.33,195.34 L 305.01,195.58 L 305.11,194.60 Z M 313.89,194.40 L 312.36,194.97 L 312.51,194.51 L 313.89,194.40 Z M 319.33,194.69 L 319.31,195.96 L 317.60,195.10 L 317.93,192.88 L 319.33,194.69 Z M 308.28,195.41 L 307.99,199.69 L 305.01,202.76 L 305.65,196.37 L 305.01,193.52 L 303.61,192.61 L 304.04,189.85 L 305.06,189.53 L 308.28,195.41 Z M 305.50,189.18 L 304.12,189.09 L 303.02,190.79 L 301.99,189.86 L 302.27,188.23 L 305.50,189.18 Z M 304.84,187.30 L 302.82,186.39 L 304.05,185.40 L 304.84,187.30 Z M 302.94,185.12 L 302.21,185.86 L 301.99,184.94 L 302.94,185.12 Z M 302.49,180.66 L 301.58,179.56 L 303.31,180.15 L 304.05,180.95 L 302.49,180.66 Z" fill="#C8D8E8" stroke="#8BAABB" stroke-width="0.8"/>
<path d="M 509.83,189.34 L 507.58,192.97 L 504.52,189.52 L 500.10,195.49 L 491.26,189.84 L 487.32,195.81 L 483.81,195.20 L 481.80,196.35 L 478.99,194.68 L 476.25,198.57 L 480.79,208.90 L 479.73,209.82 L 479.40,213.99 L 481.11,215.43 L 480.04,216.96 L 476.28,215.30 L 471.98,216.13 L 469.43,206.56 L 462.17,211.52 L 457.76,210.50 L 454.93,212.07 L 453.73,210.16 L 454.62,208.42 L 451.59,207.32 L 451.46,201.91 L 438.89,200.10 L 442.25,194.40 L 441.47,190.23 L 443.13,187.14 L 445.09,187.21 L 444.39,185.03 L 441.88,183.82 L 440.03,185.03 L 434.39,182.99 L 434.88,179.20 L 433.16,177.10 L 434.35,175.81 L 433.36,173.33 L 431.32,172.69 L 431.24,169.95 L 434.50,166.87 L 430.08,168.04 L 422.52,167.61 L 414.95,171.86 L 413.24,170.26 L 416.45,166.84 L 415.30,162.09 L 413.19,161.99 L 413.50,157.24 L 417.16,155.38 L 416.13,151.54 L 417.72,148.66 L 419.44,149.16 L 421.57,147.42 L 423.07,142.42 L 425.78,143.33 L 428.71,138.77 L 431.74,138.19 L 429.46,134.18 L 431.98,133.03 L 430.98,131.70 L 432.76,125.52 L 431.56,109.63 L 427.32,107.85 L 426.90,109.99 L 425.50,110.31 L 422.55,103.03 L 422.73,100.23 L 419.25,96.66 L 417.16,96.70 L 415.67,94.05 L 413.42,93.75 L 412.16,97.62 L 410.20,98.96 L 406.34,96.33 L 404.56,97.07 L 400.64,95.30 L 394.10,95.57 L 398.68,89.94 L 396.56,85.99 L 395.12,85.29 L 392.43,86.88 L 392.10,84.09 L 395.12,81.61 L 393.06,81.88 L 391.58,79.76 L 385.33,80.22 L 384.89,82.26 L 382.48,81.81 L 381.27,84.75 L 379.38,85.29 L 370.07,83.12 L 367.29,80.62 L 362.37,83.43 L 363.31,85.50 L 357.71,88.49 L 356.70,91.19 L 349.11,91.38 L 347.08,92.52 L 345.01,95.38 L 345.35,96.90 L 337.02,100.36 L 336.39,101.62 L 337.93,102.82 L 337.10,104.08 L 331.11,106.15 L 330.10,104.83 L 325.57,107.17 L 315.14,101.06 L 311.39,103.20 L 305.33,101.08 L 302.30,101.38 L 304.07,98.69 L 299.40,98.22 L 298.37,96.60 L 293.49,97.32 L 287.90,100.34 L 286.61,101.75 L 286.61,-0.00 L 513.39,-0.00 L 513.39,192.85 L 509.83,189.34 Z" fill="#C8D8E8" stroke="#8BAABB" stroke-width="0.8"/>
<path d="M 291.88,124.33 L 296.81,123.41 L 300.31,120.99 L 306.11,123.15 L 315.24,123.02 L 317.19,121.41 L 318.77,122.64 L 323.57,121.62 L 324.41,122.55 L 324.64,121.24 L 327.47,121.14 L 326.13,117.22 L 327.72,114.39 L 325.93,111.38 L 322.02,111.59 L 320.09,110.39 L 320.58,106.21 L 319.46,105.06 L 325.57,107.17 L 330.10,104.83 L 331.11,106.15 L 335.38,105.12 L 337.93,102.82 L 336.39,101.62 L 337.02,100.36 L 345.35,96.90 L 345.01,95.38 L 347.08,92.52 L 349.11,91.38 L 356.70,91.19 L 357.71,88.49 L 363.31,85.50 L 362.37,83.43 L 367.29,80.62 L 370.07,83.12 L 379.38,85.29 L 381.27,84.75 L 382.48,81.81 L 384.89,82.26 L 385.33,80.22 L 390.52,79.74 L 393.06,81.88 L 395.12,81.61 L 392.10,84.09 L 392.43,86.88 L 395.12,85.29 L 396.56,85.99 L 398.68,89.94 L 394.10,95.57 L 406.92,96.47 L 410.20,98.96 L 409.72,101.00 L 410.81,102.67 L 410.36,104.35 L 408.62,104.26 L 402.93,109.27 L 403.23,111.86 L 406.98,117.81 L 402.98,116.40 L 400.46,113.25 L 391.59,114.97 L 380.06,124.24 L 375.53,125.74 L 374.25,131.15 L 375.97,135.11 L 373.60,137.24 L 373.73,140.33 L 367.42,146.04 L 366.55,149.22 L 368.69,150.31 L 369.00,152.19 L 362.49,163.76 L 359.91,171.69 L 353.28,169.21 L 349.27,169.97 L 346.96,168.24 L 348.86,174.64 L 347.99,183.82 L 346.38,185.89 L 344.29,185.45 L 344.85,187.96 L 343.20,191.11 L 344.82,198.34 L 344.31,199.54 L 342.47,199.30 L 341.75,202.74 L 340.15,203.38 L 337.10,200.09 L 335.40,203.04 L 334.14,191.06 L 331.99,187.21 L 330.41,174.20 L 329.38,175.17 L 328.70,173.78 L 326.62,175.31 L 325.11,173.93 L 325.39,177.72 L 322.28,181.44 L 323.10,184.49 L 319.80,186.91 L 316.78,181.60 L 316.41,184.94 L 315.51,184.30 L 315.09,180.05 L 312.71,175.48 L 316.29,167.64 L 319.73,167.70 L 320.48,165.71 L 321.65,166.92 L 322.12,165.40 L 324.39,166.67 L 324.75,163.67 L 328.02,162.53 L 329.84,154.44 L 332.32,155.35 L 333.95,153.82 L 326.86,149.59 L 320.63,150.55 L 314.28,149.26 L 300.56,150.12 L 291.96,147.87 L 292.11,136.29 L 289.34,132.23 L 287.92,133.56 L 288.69,134.74 L 287.59,136.62 L 286.61,136.42 L 286.61,122.46 L 291.88,124.33 Z M 355.53,365.12 L 355.50,364.94 L 355.64,364.78 L 355.53,365.12 Z M 362.42,345.73 L 362.17,345.78 L 361.96,345.63 L 362.42,345.73 Z M 356.31,456.07 L 355.22,457.11 L 352.31,452.65 L 352.74,449.84 L 355.17,448.94 L 356.58,452.46 L 356.31,456.07 Z M 353.56,447.25 L 351.82,448.53 L 353.06,445.45 L 353.56,447.25 Z M 349.24,438.37 L 346.89,437.02 L 347.91,435.90 L 349.24,438.37 Z M 351.13,436.71 L 351.12,437.44 L 350.13,436.52 L 351.13,436.71 Z M 349.71,436.32 L 349.12,433.61 L 350.03,432.40 L 349.71,436.32 Z M 343.12,431.72 L 343.40,430.25 L 343.72,431.59 L 343.12,431.72 Z M 351.98,428.07 L 351.56,428.88 L 351.65,426.70 L 351.98,428.07 Z M 339.43,417.09 L 337.84,417.33 L 338.16,415.15 L 339.43,417.09 Z M 334.76,394.07 L 332.38,394.00 L 333.08,388.64 L 334.64,387.89 L 335.54,389.96 L 334.76,394.07 Z M 335.67,379.84 L 336.34,377.67 L 337.29,378.57 L 335.67,379.84 Z M 330.81,377.07 L 330.30,377.32 L 329.75,376.17 L 330.81,377.07 Z M 343.13,371.15 L 341.24,369.64 L 342.31,368.85 L 343.13,371.15 Z M 343.71,367.77 L 343.56,367.95 L 343.01,366.91 L 343.71,366.29 L 343.71,367.77 Z M 337.74,354.92 L 337.08,356.17 L 337.08,353.43 L 337.87,353.25 L 337.74,354.92 Z M 342.66,351.75 L 341.09,351.67 L 341.33,353.28 L 340.13,354.18 L 341.51,355.04 L 341.93,360.81 L 341.07,362.46 L 339.66,362.24 L 340.74,363.82 L 340.41,366.05 L 338.26,368.18 L 337.94,371.49 L 338.33,370.47 L 338.92,371.15 L 337.10,375.31 L 338.32,375.08 L 337.62,377.90 L 334.59,371.85 L 335.31,370.59 L 336.06,371.70 L 337.07,365.80 L 338.81,366.00 L 337.63,363.42 L 338.66,358.38 L 337.94,356.00 L 339.48,352.75 L 339.68,347.03 L 342.26,343.14 L 343.31,346.16 L 341.72,347.03 L 342.91,348.05 L 342.66,351.75 Z M 342.91,342.11 L 341.93,341.65 L 342.60,341.44 L 342.91,342.11 Z" fill="#C8D8E8" stroke="#8BAABB" stroke-width="0.8"/>
<path d="M 493.20,204.31 L 494.14,208.37 L 495.74,207.99 L 496.60,205.40 L 497.23,207.59 L 498.82,207.05 L 499.23,209.75 L 496.51,215.09 L 501.69,221.77 L 506.58,222.42 L 510.30,225.07 L 512.01,221.91 L 513.39,221.37 L 513.39,247.40 L 513.01,247.70 L 513.39,247.86 L 513.39,264.66 L 504.48,262.29 L 503.33,263.45 L 504.29,264.59 L 502.29,265.22 L 500.24,269.54 L 497.32,269.85 L 494.64,272.55 L 493.26,272.04 L 493.33,270.13 L 485.12,265.82 L 482.38,268.77 L 480.58,268.16 L 479.62,270.85 L 474.24,273.90 L 470.21,278.37 L 466.33,276.50 L 468.14,271.31 L 470.73,268.50 L 470.58,264.00 L 468.61,262.25 L 471.83,258.40 L 471.67,254.79 L 473.27,252.36 L 470.84,246.43 L 472.14,243.58 L 466.23,242.47 L 464.24,244.66 L 459.84,243.95 L 458.35,240.27 L 460.98,233.22 L 457.80,229.52 L 456.16,229.81 L 454.78,232.04 L 453.95,229.98 L 456.70,223.32 L 462.65,221.40 L 460.53,220.91 L 463.80,214.15 L 465.79,214.09 L 470.63,210.13 L 472.22,216.35 L 476.28,215.30 L 480.21,216.83 L 481.11,215.43 L 479.40,213.70 L 480.79,208.90 L 476.25,198.57 L 479.36,194.47 L 481.40,196.27 L 483.81,195.20 L 493.20,204.31 Z" fill="#C8D8E8" stroke="#8BAABB" stroke-width="0.8"/>
<path d="M 493.43,365.78 L 493.06,368.65 L 488.55,366.30 L 488.03,364.64 L 489.18,364.34 L 489.43,363.34 L 488.48,364.16 L 488.68,362.34 L 487.13,362.20 L 487.48,364.07 L 484.90,359.95 L 484.03,360.05 L 484.78,361.66 L 480.20,357.69 L 474.72,359.53 L 469.51,358.12 L 467.73,359.49 L 465.89,358.58 L 467.08,352.74 L 466.21,351.15 L 468.06,344.51 L 463.08,344.29 L 461.79,342.58 L 461.45,344.12 L 456.71,344.17 L 451.79,347.62 L 454.02,351.83 L 451.75,358.33 L 452.69,366.25 L 446.73,377.42 L 445.85,382.89 L 444.44,383.93 L 444.68,388.38 L 443.60,388.31 L 440.40,394.12 L 441.11,396.75 L 439.01,396.87 L 440.63,398.92 L 439.01,401.10 L 438.90,406.36 L 441.71,412.98 L 440.33,413.90 L 440.63,415.63 L 444.10,416.16 L 445.06,414.81 L 449.27,414.13 L 450.58,415.62 L 451.85,426.09 L 454.64,429.70 L 454.44,427.61 L 455.85,428.70 L 459.31,444.91 L 461.43,449.38 L 459.08,448.41 L 458.77,444.07 L 456.67,444.01 L 457.42,441.06 L 455.69,439.84 L 454.65,440.87 L 455.20,444.01 L 459.06,450.01 L 461.13,450.46 L 461.60,449.13 L 464.43,453.15 L 468.09,455.26 L 473.66,454.94 L 472.73,453.63 L 476.91,455.51 L 480.29,461.20 L 485.04,465.25 L 484.83,467.97 L 480.74,473.89 L 478.62,473.46 L 476.92,471.03 L 472.05,473.10 L 470.05,475.72 L 467.58,473.01 L 469.37,470.58 L 469.42,465.44 L 465.50,465.60 L 463.87,461.32 L 462.31,462.13 L 458.48,460.84 L 456.52,457.87 L 455.00,457.96 L 454.38,462.17 L 447.42,454.92 L 448.40,450.77 L 445.41,449.58 L 446.13,446.60 L 445.28,447.84 L 444.62,446.45 L 444.03,448.20 L 442.57,447.52 L 441.23,442.52 L 438.67,440.07 L 438.06,441.33 L 437.14,440.81 L 437.71,437.44 L 435.32,435.33 L 433.00,435.79 L 431.94,431.21 L 430.69,431.50 L 431.19,429.86 L 427.61,430.90 L 427.56,433.71 L 425.38,432.52 L 424.00,427.28 L 424.85,427.27 L 424.98,422.00 L 427.03,418.92 L 426.10,419.07 L 426.88,418.31 L 425.94,416.02 L 428.06,410.36 L 429.23,410.07 L 428.16,409.43 L 430.05,405.45 L 428.94,405.55 L 430.80,403.62 L 432.21,399.03 L 432.78,391.72 L 439.97,384.34 L 443.70,375.91 L 445.17,375.47 L 446.54,372.54 L 444.78,369.04 L 445.15,367.12 L 443.74,367.31 L 442.97,359.86 L 440.15,357.50 L 438.08,352.15 L 438.22,349.93 L 439.61,348.96 L 438.03,338.27 L 435.60,334.68 L 429.49,329.81 L 424.69,322.68 L 423.39,317.65 L 425.32,314.59 L 426.93,315.15 L 427.22,313.42 L 429.68,313.50 L 429.48,301.95 L 433.58,300.90 L 435.08,296.38 L 434.09,294.87 L 431.31,297.97 L 428.06,290.68 L 428.89,287.86 L 417.07,274.53 L 415.76,272.22 L 416.99,269.90 L 415.15,264.28 L 412.77,264.51 L 410.64,260.19 L 413.13,261.19 L 416.85,259.86 L 415.47,253.94 L 417.88,250.83 L 417.19,246.07 L 418.48,243.24 L 420.99,242.05 L 421.25,239.31 L 424.60,241.62 L 429.25,241.43 L 433.59,239.25 L 435.03,240.22 L 436.63,239.01 L 437.77,234.34 L 441.27,234.98 L 444.66,233.46 L 443.24,229.76 L 446.89,230.91 L 451.38,228.60 L 454.78,232.04 L 456.16,229.81 L 457.80,229.52 L 461.02,233.39 L 458.35,240.27 L 459.84,243.95 L 464.24,244.66 L 466.23,242.47 L 472.14,243.58 L 470.84,246.43 L 473.27,252.36 L 471.67,254.79 L 471.83,258.40 L 468.61,262.25 L 470.58,264.00 L 470.73,268.50 L 468.14,271.31 L 466.58,276.69 L 470.21,278.37 L 474.24,273.90 L 479.62,270.85 L 480.58,268.16 L 482.38,268.77 L 485.12,265.82 L 493.33,270.13 L 493.26,272.04 L 494.64,272.55 L 497.32,269.85 L 500.24,269.54 L 502.29,265.22 L 504.29,264.59 L 503.49,263.05 L 505.89,262.02 L 513.16,264.61 L 513.39,264.55 L 513.39,330.34 L 509.68,328.71 L 501.82,330.77 L 498.36,333.01 L 494.89,340.08 L 492.43,341.62 L 493.30,342.69 L 489.12,343.37 L 489.06,348.20 L 491.61,352.85 L 491.44,358.17 L 495.89,362.19 L 494.79,366.49 L 498.28,375.37 L 493.43,365.78 Z M 418.34,412.77 L 418.40,412.42 L 418.79,412.50 L 418.34,412.77 Z M 447.70,410.81 L 447.14,410.85 L 447.63,410.46 L 447.70,410.81 Z M 447.34,409.30 L 447.30,409.33 L 447.26,409.09 L 447.34,409.30 Z M 440.04,460.59 L 439.11,460.30 L 439.87,459.96 L 440.04,460.59 Z M 446.07,459.82 L 446.97,457.48 L 447.72,460.24 L 446.07,459.82 Z M 443.77,448.88 L 442.66,449.63 L 442.57,448.66 L 443.77,448.88 Z M 437.81,442.71 L 438.19,445.08 L 437.11,443.50 L 437.17,442.12 L 437.81,442.71 Z M 438.33,442.96 L 437.32,441.80 L 437.67,441.61 L 438.33,442.96 Z M 430.35,435.13 L 430.37,437.80 L 429.19,434.13 L 430.35,435.13 Z M 425.46,439.90 L 425.29,432.99 L 427.78,434.81 L 427.46,437.80 L 425.46,439.90 Z M 430.64,434.69 L 429.99,434.42 L 430.69,432.99 L 430.64,434.69 Z M 425.95,418.24 L 424.87,418.90 L 424.77,417.01 L 425.95,418.24 Z M 453.33,411.77 L 451.53,412.53 L 451.21,410.07 L 453.48,409.73 L 453.33,411.77 Z M 427.43,407.27 L 427.13,407.73 L 426.93,407.37 L 427.43,407.27 Z M 453.43,406.57 L 453.79,408.41 L 452.18,407.50 L 453.43,406.57 Z M 493.43,374.73 L 493.31,376.75 L 492.24,376.06 L 492.63,373.47 L 493.43,374.73 Z M 490.84,370.01 L 488.46,369.89 L 487.82,366.92 L 490.84,370.01 Z M 418.55,411.81 L 419.21,411.71 L 419.20,412.19 L 418.55,411.81 Z M 425.70,420.21 L 424.98,421.53 L 424.83,419.56 L 425.70,420.21 Z" fill="#C8D8E8" stroke="#8BAABB" stroke-width="0.8"/>
<path d="M 337.10,200.09 L 340.15,203.38 L 341.58,202.88 L 342.47,199.30 L 344.31,199.54 L 344.82,198.34 L 343.33,189.78 L 344.85,187.96 L 344.48,185.15 L 346.38,185.89 L 347.99,183.82 L 348.89,175.19 L 347.16,167.97 L 349.27,169.97 L 353.28,169.21 L 359.91,171.69 L 362.49,163.76 L 369.00,152.19 L 368.69,150.31 L 366.55,149.22 L 367.42,146.04 L 373.73,140.33 L 373.60,137.24 L 375.97,135.11 L 374.25,131.15 L 375.53,125.74 L 380.06,124.24 L 391.59,114.97 L 400.46,113.25 L 402.98,116.40 L 406.98,117.81 L 403.23,111.86 L 403.06,108.94 L 408.62,104.26 L 410.36,104.35 L 410.20,98.96 L 412.16,97.62 L 413.42,93.75 L 415.67,94.05 L 417.16,96.70 L 419.25,96.66 L 422.86,100.51 L 422.55,103.03 L 425.50,110.31 L 426.90,109.99 L 427.32,107.85 L 431.56,109.63 L 432.76,125.52 L 430.98,131.70 L 431.98,133.03 L 429.46,134.18 L 431.77,137.96 L 430.47,139.27 L 428.71,138.77 L 426.10,143.17 L 423.07,142.42 L 421.57,147.42 L 419.44,149.16 L 417.72,148.66 L 416.13,151.54 L 417.16,155.38 L 413.50,157.24 L 413.19,161.99 L 415.30,162.09 L 416.45,166.84 L 413.24,170.26 L 414.95,171.86 L 422.52,167.61 L 430.08,168.04 L 434.50,166.87 L 431.24,169.95 L 431.32,172.69 L 433.36,173.33 L 434.35,175.81 L 433.16,177.10 L 434.88,179.20 L 434.39,182.99 L 440.03,185.03 L 441.88,183.82 L 444.39,185.03 L 445.09,187.21 L 443.13,187.14 L 441.47,190.23 L 442.25,194.40 L 438.89,200.10 L 451.46,201.91 L 451.59,207.32 L 454.62,208.42 L 453.79,210.52 L 455.32,212.21 L 457.76,210.50 L 462.17,211.52 L 469.43,206.56 L 470.87,209.14 L 468.18,212.57 L 463.80,214.15 L 460.53,220.91 L 462.65,221.40 L 458.12,222.21 L 455.70,224.39 L 453.94,230.72 L 451.38,228.60 L 446.89,230.91 L 443.24,229.76 L 444.66,233.46 L 441.27,234.98 L 437.77,234.34 L 436.63,239.01 L 435.03,240.22 L 433.59,239.25 L 429.25,241.43 L 424.60,241.62 L 421.25,239.31 L 420.99,242.05 L 418.48,243.24 L 417.19,246.07 L 417.88,250.83 L 415.47,253.94 L 416.85,259.86 L 413.13,261.19 L 410.64,260.19 L 412.77,264.51 L 415.15,264.28 L 416.99,269.90 L 415.76,272.22 L 417.07,274.53 L 428.89,287.86 L 428.06,290.68 L 431.31,297.97 L 434.09,294.87 L 435.08,296.38 L 433.58,300.90 L 429.48,301.95 L 429.68,313.50 L 427.22,313.42 L 426.93,315.15 L 425.32,314.59 L 423.39,317.65 L 424.69,322.68 L 429.49,329.81 L 435.60,334.68 L 438.03,338.27 L 439.61,348.96 L 438.22,349.93 L 438.08,352.15 L 440.15,357.50 L 442.97,359.86 L 443.74,367.31 L 445.15,367.12 L 444.78,369.04 L 446.54,372.54 L 445.17,375.47 L 443.70,375.91 L 439.97,384.34 L 432.94,391.34 L 432.64,396.98 L 429.42,403.04 L 428.10,390.90 L 429.19,391.27 L 430.80,388.64 L 430.02,388.12 L 432.08,387.41 L 431.23,383.95 L 432.82,381.66 L 431.86,379.68 L 433.07,378.58 L 432.45,375.44 L 434.91,374.58 L 433.20,373.55 L 433.87,372.37 L 433.61,371.95 L 431.48,374.72 L 430.37,372.74 L 431.99,371.49 L 429.51,371.49 L 431.32,370.80 L 432.23,369.51 L 430.78,367.27 L 431.94,365.50 L 429.35,365.44 L 431.99,363.67 L 430.39,362.31 L 432.04,360.92 L 430.68,360.16 L 431.78,357.37 L 430.59,356.69 L 429.97,349.67 L 424.72,340.88 L 423.89,335.03 L 423.80,343.72 L 423.13,343.83 L 421.83,335.94 L 422.60,333.31 L 419.06,324.70 L 421.29,325.31 L 420.07,322.78 L 418.50,324.04 L 417.63,321.42 L 418.07,315.94 L 416.55,313.76 L 417.63,312.62 L 416.56,305.36 L 414.07,301.71 L 415.14,294.78 L 416.77,293.42 L 410.94,294.68 L 407.99,287.38 L 407.58,284.62 L 409.22,284.28 L 407.59,283.91 L 407.16,284.74 L 403.26,278.44 L 402.29,279.48 L 403.70,280.78 L 402.73,282.51 L 403.70,285.65 L 400.05,293.16 L 396.22,294.78 L 393.54,292.79 L 392.90,290.05 L 393.87,289.18 L 392.04,289.88 L 394.41,295.82 L 391.22,297.38 L 389.45,296.29 L 390.41,297.57 L 386.16,300.33 L 385.01,299.03 L 384.07,303.59 L 380.14,307.37 L 378.13,307.08 L 379.33,303.00 L 379.29,300.27 L 376.94,306.31 L 375.57,305.79 L 375.13,302.33 L 377.15,300.75 L 375.73,300.27 L 374.70,301.50 L 374.13,305.99 L 371.18,306.24 L 371.96,305.29 L 370.99,303.59 L 372.40,302.10 L 371.44,300.62 L 372.02,299.68 L 372.95,299.40 L 373.47,298.56 L 371.30,300.07 L 371.53,302.06 L 369.20,305.14 L 367.31,304.06 L 369.37,302.46 L 370.34,300.04 L 366.76,303.82 L 368.53,300.72 L 369.37,294.00 L 368.50,293.87 L 367.73,298.41 L 367.76,297.01 L 366.05,297.82 L 364.58,301.51 L 361.61,303.14 L 362.06,293.95 L 363.21,293.60 L 363.86,287.71 L 365.16,286.91 L 364.99,283.06 L 366.31,282.94 L 366.44,280.73 L 367.20,281.19 L 366.66,276.36 L 367.53,276.97 L 364.84,269.58 L 365.57,268.18 L 364.50,265.34 L 363.00,265.07 L 364.41,264.15 L 360.18,257.19 L 361.17,257.28 L 362.24,257.07 L 360.18,254.90 L 358.44,255.06 L 358.89,246.22 L 358.36,249.29 L 357.42,250.27 L 356.42,249.52 L 357.59,253.24 L 356.74,255.06 L 352.78,252.38 L 349.75,247.14 L 350.79,245.52 L 355.22,248.73 L 356.73,247.71 L 357.64,246.26 L 357.59,244.97 L 353.60,242.15 L 354.69,241.76 L 354.79,240.27 L 354.07,241.45 L 353.92,239.93 L 351.56,240.72 L 353.74,237.27 L 351.23,238.00 L 350.36,236.04 L 348.75,236.60 L 348.10,234.55 L 347.78,235.58 L 347.45,234.32 L 346.37,235.23 L 344.10,234.45 L 345.80,238.57 L 343.80,236.13 L 344.74,239.24 L 341.61,233.87 L 343.56,233.52 L 343.98,232.49 L 341.93,233.44 L 343.52,229.67 L 342.57,229.19 L 343.43,227.14 L 343.23,226.77 L 339.99,233.99 L 338.58,232.16 L 341.18,230.67 L 339.35,227.77 L 338.44,228.43 L 337.68,226.15 L 336.33,224.38 L 337.84,231.70 L 332.33,224.35 L 329.13,214.35 L 331.41,211.64 L 334.59,213.32 L 335.31,215.22 L 336.31,214.64 L 335.40,203.04 L 337.10,200.09 Z M 421.15,406.25 L 421.10,405.72 L 421.59,405.70 L 421.15,406.25 Z M 424.36,394.52 L 423.90,394.78 L 423.85,394.23 L 424.36,394.52 Z M 427.68,386.26 L 427.97,386.12 L 427.80,386.72 L 427.68,386.26 Z M 412.34,373.03 L 412.11,372.80 L 412.66,373.17 L 412.34,373.03 Z M 418.26,356.24 L 418.54,356.01 L 418.78,356.54 L 418.26,356.24 Z M 425.40,402.70 L 422.96,405.40 L 422.87,403.49 L 425.40,402.70 Z M 423.68,399.61 L 424.65,399.95 L 423.79,402.13 L 423.68,399.61 Z M 419.97,395.43 L 419.44,396.12 L 419.12,395.82 L 419.47,394.58 L 419.97,395.43 Z M 429.58,388.94 L 429.17,389.70 L 428.71,389.59 L 428.64,387.97 L 429.58,388.94 Z M 419.47,387.41 L 420.10,387.50 L 419.03,388.74 L 419.47,387.41 Z M 424.81,391.27 L 423.99,388.12 L 422.08,388.02 L 423.57,386.50 L 425.08,388.87 L 424.81,391.27 Z M 428.38,386.59 L 429.13,384.70 L 429.39,386.92 L 428.38,386.59 Z M 424.76,382.57 L 424.33,381.66 L 425.29,381.55 L 424.76,382.57 Z M 425.33,377.65 L 423.64,378.66 L 423.46,378.24 L 425.25,372.81 L 425.33,377.65 Z M 429.63,373.49 L 429.29,377.32 L 427.67,376.70 L 426.70,372.98 L 429.63,373.49 Z M 422.27,375.60 L 421.04,374.39 L 421.31,374.19 L 420.97,373.44 L 421.08,371.72 L 422.27,375.60 Z M 415.79,371.34 L 415.69,372.18 L 415.23,371.68 L 415.79,371.34 Z M 424.90,371.09 L 425.04,370.99 L 425.41,371.43 L 424.90,371.09 Z M 424.74,370.71 L 424.58,370.00 L 424.97,369.95 L 424.74,370.71 Z M 431.25,370.32 L 431.23,370.57 L 428.39,371.29 L 427.78,367.60 L 431.25,370.32 Z M 422.94,366.16 L 423.03,367.15 L 421.48,366.01 L 422.00,364.64 L 422.94,366.16 Z M 420.86,364.98 L 420.00,364.30 L 422.06,362.34 L 420.86,364.98 Z M 428.96,362.40 L 428.67,362.70 L 428.33,362.38 L 428.96,361.20 L 428.96,362.40 Z M 425.43,360.69 L 424.96,361.21 L 424.49,360.84 L 425.43,360.69 Z M 418.50,359.55 L 418.50,360.51 L 418.17,360.18 L 418.50,359.55 Z M 428.04,361.83 L 425.62,363.83 L 425.83,358.00 L 427.56,360.63 L 428.21,359.73 L 428.04,361.83 Z M 426.16,351.56 L 425.62,354.23 L 424.76,349.20 L 426.16,351.56 Z M 419.89,338.58 L 419.56,339.72 L 419.58,338.56 L 419.89,338.58 Z M 348.30,334.83 L 347.99,335.03 L 348.23,333.54 L 348.30,334.83 Z M 353.17,321.02 L 353.49,320.87 L 353.18,321.58 L 353.17,321.02 Z M 415.70,310.53 L 415.57,311.02 L 415.36,309.55 L 415.70,310.53 Z M 370.50,306.14 L 369.26,305.88 L 370.55,303.90 L 370.50,306.14 Z M 367.76,301.49 L 364.18,305.43 L 363.98,302.73 L 368.27,299.05 L 367.76,301.49 Z M 414.11,299.03 L 413.73,299.41 L 412.34,297.72 L 412.35,294.78 L 414.66,294.68 L 414.11,299.03 Z M 353.61,257.88 L 352.25,258.05 L 349.71,254.79 L 351.88,254.20 L 353.78,254.84 L 353.61,257.88 Z M 354.73,248.09 L 352.19,244.50 L 353.48,243.43 L 357.37,245.75 L 354.73,248.09 Z M 350.15,240.27 L 348.43,236.81 L 349.94,237.91 L 350.15,240.27 Z M 342.31,237.60 L 342.47,238.90 L 340.69,234.61 L 342.31,237.60 Z" fill="#4A90D9" stroke="#1a5fa8" stroke-width="1.2"/>
<path d="M 513.08,355.04 L 510.74,348.44 L 513.39,349.18 L 513.39,355.20 L 513.08,355.04 Z" fill="#A8C8E8" stroke="none"/>
<path d="M 299.94,60.69 L 299.18,58.75 L 299.77,54.42 L 303.99,55.67 L 305.93,54.01 L 310.97,54.44 L 310.49,56.08 L 308.14,56.13 L 307.40,58.25 L 299.94,60.69 Z" fill="#A8C8E8" stroke="none"/>
<path d="M 306.30,86.33 L 306.88,88.03 L 305.16,87.47 L 304.16,89.48 L 302.81,89.54 L 301.70,87.68 L 303.51,89.08 L 303.51,87.70 L 304.92,87.24 L 304.27,86.59 L 305.76,86.20 L 305.16,83.57 L 303.83,82.79 L 301.06,84.59 L 300.50,84.04 L 303.45,82.57 L 305.23,82.91 L 306.49,83.53 L 306.77,85.91 L 309.71,85.50 L 310.84,88.06 L 306.30,86.33 Z" fill="#A8C8E8" stroke="none"/>
<path d="M 294.75,12.45 L 294.73,11.25 L 297.67,12.57 L 299.45,11.55 L 299.51,7.09 L 301.22,10.96 L 299.71,13.86 L 294.75,12.45 Z" fill="#A8C8E8" stroke="none"/>
<path d="M 293.97,12.74 L 291.67,14.91 L 291.95,12.12 L 289.48,10.97 L 294.12,10.63 L 293.97,12.74 Z" fill="#A8C8E8" stroke="none"/>
<path d="M 318.73,36.69 L 317.87,37.04 L 317.22,34.64 L 318.87,33.88 L 318.73,36.69 Z" fill="#A8C8E8" stroke="none"/>
<path d="M 314.33,163.68 L 312.04,165.85 L 310.63,166.54 L 311.48,167.94 L 310.19,169.96 L 311.15,167.75 L 309.65,166.79 L 314.33,163.68 Z" fill="#A8C8E8" stroke="none"/>
<path d="M 304.69,49.15 L 303.56,50.24 L 303.58,46.83 L 304.79,46.98 L 304.69,49.15 Z" fill="#A8C8E8" stroke="none"/>
<path d="M 314.22,4.60 L 312.90,5.25 L 313.16,3.58 L 314.22,4.60 Z" fill="#A8C8E8" stroke="none"/>
<path d="M 295.01,29.17 L 292.81,28.97 L 294.80,27.15 L 295.01,29.17 Z" fill="#A8C8E8" stroke="none"/>
<path d="M 309.65,35.47 L 306.30,34.75 L 308.25,33.27 L 309.65,35.47 Z" fill="#A8C8E8" stroke="none"/>
<path d="M 302.02,92.25 L 303.23,93.72 L 299.72,93.70 L 299.00,92.16 L 302.02,92.25 Z" fill="#A8C8E8" stroke="none"/>
<path d="M 493.43,291.19 L 492.56,293.19 L 492.99,290.45 L 489.86,289.31 L 493.39,288.48 L 493.43,291.19 Z" fill="#A8C8E8" stroke="none"/>
<path d="M 499.02,260.40 L 493.44,261.63 L 491.51,256.61 L 493.19,258.50 L 493.92,257.78 L 493.93,259.19 L 496.19,257.49 L 495.23,259.19 L 499.02,260.40 Z" fill="#A8C8E8" stroke="none"/>
<path d="M 438.58,329.55 L 436.51,326.90 L 436.27,323.12 L 438.05,320.69 L 437.23,318.70 L 439.08,320.34 L 437.40,322.40 L 437.73,325.58 L 439.67,326.32 L 438.58,329.55 Z" fill="#A8C8E8" stroke="none"/>
<path d="M 332.43,191.57 L 330.17,191.12 L 331.03,192.27 L 330.07,191.70 L 329.75,193.40 L 332.01,194.21 L 329.86,194.79 L 329.18,191.10 L 327.80,189.86 L 328.12,189.52 L 327.36,188.72 L 327.56,188.38 L 326.93,187.31 L 326.82,185.52 L 329.75,191.57 L 330.50,190.09 L 328.88,185.98 L 330.30,185.52 L 332.43,191.57 Z" fill="#A8C8E8" stroke="none"/>
<path d="M 434.83,279.42 L 436.10,282.41 L 435.88,282.91 L 434.10,280.36 L 434.83,279.42 Z" fill="#A8C8E8" stroke="none"/>
<path d="M 461.46,273.03 L 458.02,272.37 L 460.60,268.90 L 462.13,268.74 L 460.30,270.54 L 461.46,273.03 Z" fill="#A8C8E8" stroke="none"/>
</svg>