<svg xmlns="http://www.w3.org/2000/svg" width="800" height="500" viewBox="0 0 800 500">
<rect width="800" height="500" fill="#A8C8E8"/>
<path d="M 783.40,441.75 L 779.60,441.75 L 780.36,438.09 L 781.66,437.18 L 783.40,441.75 Z" fill="#E8E0D0" stroke="#B8B0A0" stroke-width="0.5"/>
<path d="M 780.36,438.09 L 779.60,441.75 L 728.56,441.75 L 729.60,440.05 L 729.10,437.92 L 731.33,438.18 L 731.26,436.23 L 736.54,435.30 L 739.57,437.03 L 736.31,433.70 L 733.66,435.39 L 733.09,433.34 L 732.27,434.58 L 731.48,433.11 L 732.43,428.96 L 734.55,426.74 L 733.81,425.18 L 735.73,423.78 L 736.48,419.89 L 734.67,418.78 L 736.37,415.65 L 731.16,415.78 L 725.40,410.84 L 725.36,413.99 L 723.71,415.22 L 722.57,410.13 L 718.80,407.89 L 720.11,405.27 L 721.57,405.39 L 719.55,403.67 L 727.72,394.91 L 729.99,395.42 L 729.74,393.76 L 735.77,391.54 L 741.17,385.77 L 745.01,385.46 L 746.82,381.45 L 753.01,375.17 L 753.71,369.21 L 756.21,367.23 L 755.46,366.44 L 757.15,367.35 L 759.35,364.96 L 763.23,369.87 L 762.53,371.30 L 770.36,373.40 L 776.01,372.46 L 778.26,374.61 L 780.70,369.91 L 776.73,363.53 L 776.52,360.58 L 790.60,359.63 L 794.82,355.43 L 794.55,353.20 L 796.82,350.31 L 799.85,352.03 L 800.00,351.94 L 800.00,387.97 L 795.16,389.86 L 792.74,395.16 L 785.88,398.78 L 785.76,401.81 L 781.08,405.26 L 776.09,404.88 L 774.04,408.34 L 770.14,409.75 L 768.27,412.37 L 769.37,415.11 L 768.53,417.03 L 769.18,421.45 L 768.14,418.79 L 766.32,420.03 L 767.80,420.74 L 766.53,420.87 L 766.55,424.05 L 772.24,425.98 L 781.66,437.18 L 780.36,438.09 Z M 728.31,416.12 L 726.52,417.38 L 727.49,414.72 L 728.31,416.12 Z M 727.85,440.14 L 726.08,439.61 L 726.92,438.75 L 727.85,440.14 Z M 724.80,416.58 L 724.65,417.21 L 724.37,417.10 L 724.80,416.58 Z M 723.82,416.19 L 723.06,416.41 L 724.27,415.67 L 723.82,416.19 Z M 723.02,418.48 L 723.32,418.25 L 723.42,418.80 L 723.02,418.48 Z M 717.37,409.97 L 717.57,410.35 L 717.27,410.64 L 717.37,409.97 Z" fill="#E8E0D0" stroke="#B8B0A0" stroke-width="0.5"/>
<path d="M 136.38,198.89 L 134.04,202.33 L 135.29,204.94 L 134.71,207.76 L 131.80,212.03 L 118.64,215.86 L 115.48,225.83 L 118.02,240.51 L 115.22,245.58 L 110.98,245.81 L 103.42,250.97 L 103.61,248.62 L 102.24,247.12 L 90.45,247.35 L 76.71,242.08 L 76.15,248.06 L 65.36,280.11 L 70.65,282.77 L 69.22,289.42 L 64.64,286.96 L 60.05,288.94 L 55.62,284.32 L 43.01,289.35 L 31.34,291.50 L 27.53,294.42 L 29.61,296.92 L 33.54,296.41 L 37.39,298.41 L 35.27,300.12 L 35.00,312.20 L 40.81,327.27 L 39.73,330.28 L 42.07,334.30 L 35.46,337.05 L 38.26,340.46 L 33.27,342.45 L 31.91,346.27 L 33.61,355.78 L 28.46,350.78 L 20.80,349.76 L 16.49,342.45 L 0.00,341.04 L 0.00,109.61 L 14.85,133.25 L 30.06,161.11 L 31.07,161.45 L 29.97,159.46 L 31.95,159.97 L 36.56,156.77 L 36.29,151.55 L 39.05,151.07 L 40.35,148.95 L 47.64,151.57 L 46.08,156.82 L 51.51,156.74 L 52.44,161.95 L 56.85,160.70 L 68.23,162.32 L 71.29,160.59 L 72.12,158.07 L 76.00,158.50 L 78.05,155.98 L 83.12,155.98 L 91.15,160.81 L 94.96,166.92 L 95.81,172.64 L 107.26,177.03 L 107.86,178.46 L 106.76,180.67 L 108.34,181.43 L 110.94,187.74 L 117.03,187.26 L 125.77,190.75 L 132.50,183.20 L 134.65,183.48 L 135.08,185.48 L 132.33,188.25 L 135.83,189.71 L 137.21,193.59 L 142.79,196.62 L 143.60,199.35 L 136.38,198.89 Z" fill="#E8E0D0" stroke="#B8B0A0" stroke-width="0.5"/>
<path d="M 33.33,359.67 L 27.29,360.39 L 25.81,363.17 L 18.58,365.36 L 4.24,374.59 L 4.07,377.02 L 0.00,382.03 L 0.00,341.04 L 16.49,342.45 L 20.80,349.76 L 28.46,350.78 L 33.00,356.13 L 33.33,359.67 Z" fill="#E8E0D0" stroke="#B8B0A0" stroke-width="0.5"/>
<path d="M 4.07,377.02 L 4.24,374.59 L 8.87,371.06 L 25.81,363.17 L 27.29,360.39 L 33.33,359.67 L 33.91,355.02 L 31.97,345.78 L 33.59,341.88 L 38.26,340.46 L 35.46,337.05 L 42.07,334.30 L 39.73,330.28 L 40.81,327.27 L 35.00,312.20 L 35.27,300.12 L 37.39,298.41 L 33.54,296.41 L 29.61,296.92 L 27.53,294.42 L 31.34,291.50 L 43.01,289.35 L 55.62,284.32 L 60.05,288.94 L 64.64,286.96 L 69.22,289.42 L 70.65,282.77 L 65.36,280.11 L 76.15,248.06 L 76.71,242.08 L 90.45,247.35 L 102.24,247.12 L 103.61,248.62 L 103.42,250.97 L 110.98,245.81 L 115.22,245.58 L 118.02,240.51 L 115.48,225.83 L 118.64,215.86 L 131.80,212.03 L 134.71,207.76 L 135.29,204.94 L 134.04,202.33 L 136.38,198.89 L 144.79,199.67 L 151.25,197.52 L 152.13,202.01 L 150.03,204.26 L 155.03,207.92 L 153.22,210.39 L 153.85,211.46 L 161.92,215.10 L 163.38,219.53 L 170.36,224.18 L 178.08,223.32 L 181.34,228.02 L 185.90,226.75 L 186.49,229.57 L 190.56,231.78 L 192.49,239.73 L 196.27,246.42 L 198.96,248.01 L 201.49,256.61 L 199.14,262.63 L 200.79,269.00 L 196.25,275.13 L 195.33,281.02 L 198.78,287.99 L 201.63,287.28 L 209.05,290.61 L 219.70,292.00 L 229.47,291.34 L 240.01,293.34 L 246.26,299.66 L 250.22,299.94 L 258.25,307.15 L 263.51,309.17 L 269.12,308.59 L 267.90,314.57 L 271.26,315.93 L 276.53,332.08 L 283.44,339.74 L 284.05,343.96 L 297.04,342.54 L 332.50,347.61 L 340.94,345.05 L 364.38,348.21 L 367.65,349.95 L 372.30,356.24 L 388.46,360.33 L 398.06,365.91 L 410.65,363.38 L 410.71,368.24 L 418.00,369.84 L 421.53,366.27 L 445.89,353.92 L 467.80,350.11 L 477.44,351.38 L 488.14,350.22 L 502.46,342.96 L 511.27,330.52 L 526.20,321.86 L 524.73,316.35 L 520.14,311.40 L 517.86,306.16 L 523.17,292.99 L 526.59,290.31 L 533.65,290.73 L 538.87,295.29 L 552.18,298.15 L 559.72,293.10 L 564.84,287.65 L 566.63,283.46 L 584.25,281.90 L 592.06,276.11 L 593.33,273.97 L 592.74,271.58 L 598.26,262.88 L 602.09,260.70 L 610.22,261.37 L 611.09,256.50 L 613.80,255.77 L 617.37,257.66 L 624.70,253.06 L 631.71,254.11 L 633.68,252.09 L 640.99,255.59 L 646.64,256.04 L 649.35,254.49 L 650.00,249.06 L 646.95,243.13 L 640.45,237.32 L 640.88,235.93 L 638.14,234.76 L 637.36,231.72 L 632.45,229.57 L 628.95,224.79 L 616.89,224.18 L 610.58,231.96 L 602.20,226.83 L 593.21,227.14 L 588.09,231.21 L 582.83,226.07 L 581.87,221.03 L 586.31,218.51 L 586.32,211.96 L 589.86,206.57 L 600.06,182.57 L 617.98,189.71 L 630.53,179.58 L 637.49,178.86 L 640.98,176.44 L 641.61,170.80 L 638.20,169.63 L 643.78,161.79 L 644.12,157.98 L 647.58,154.19 L 647.91,150.93 L 650.30,148.30 L 653.17,140.81 L 661.68,135.10 L 663.72,130.41 L 661.34,125.19 L 662.87,120.75 L 658.67,118.55 L 652.84,119.67 L 652.12,115.79 L 665.20,103.97 L 670.32,104.05 L 687.63,99.07 L 696.07,99.57 L 707.80,97.54 L 727.33,107.89 L 727.75,106.13 L 730.49,105.52 L 739.00,108.93 L 740.75,110.76 L 739.40,112.96 L 742.36,112.46 L 744.53,115.69 L 746.26,115.45 L 744.75,119.75 L 748.19,120.96 L 748.01,122.46 L 750.34,124.51 L 749.80,125.89 L 751.72,126.82 L 749.82,128.54 L 753.54,130.11 L 751.72,133.13 L 756.17,139.70 L 755.42,142.71 L 759.03,146.92 L 757.47,149.24 L 760.01,148.45 L 759.38,154.36 L 764.91,161.48 L 766.15,165.41 L 764.93,167.96 L 766.01,169.11 L 765.58,171.09 L 769.62,173.80 L 768.00,177.97 L 768.81,183.33 L 773.73,187.99 L 779.07,189.03 L 786.43,187.38 L 788.45,188.44 L 787.80,190.58 L 793.33,193.36 L 796.83,193.53 L 797.42,191.62 L 799.00,191.71 L 800.00,194.38 L 800.00,351.94 L 799.85,352.03 L 796.82,350.31 L 794.55,353.20 L 794.82,355.43 L 790.60,359.63 L 776.52,360.58 L 776.73,363.53 L 780.70,369.91 L 778.26,374.61 L 776.01,372.46 L 770.36,373.40 L 762.53,371.30 L 763.23,369.87 L 759.35,364.96 L 757.15,367.35 L 755.46,366.44 L 756.21,367.23 L 753.71,369.21 L 753.01,375.17 L 746.82,381.45 L 745.01,385.46 L 741.17,385.77 L 735.77,391.54 L 729.74,393.76 L 729.99,395.42 L 727.72,394.91 L 715.93,409.49 L 710.27,410.04 L 708.46,407.74 L 707.45,410.81 L 704.90,412.12 L 704.74,409.89 L 702.17,410.06 L 701.72,413.19 L 698.39,413.17 L 687.21,420.66 L 683.36,427.28 L 680.01,427.82 L 680.70,429.76 L 678.42,427.95 L 676.29,430.00 L 677.98,431.76 L 670.84,433.22 L 669.95,434.99 L 668.94,433.91 L 668.99,429.93 L 677.64,426.64 L 676.33,422.64 L 681.82,419.56 L 675.33,420.35 L 673.94,417.08 L 670.63,416.62 L 675.45,414.49 L 674.48,410.22 L 680.74,406.10 L 680.01,405.39 L 687.40,394.48 L 685.04,392.18 L 685.18,389.95 L 680.39,386.98 L 680.65,383.27 L 678.65,386.60 L 672.77,384.54 L 666.88,387.11 L 666.22,389.07 L 667.48,389.55 L 664.44,390.58 L 660.09,396.76 L 660.80,397.55 L 658.95,401.03 L 644.39,408.39 L 644.31,410.12 L 639.31,415.69 L 640.44,415.57 L 640.41,419.91 L 634.91,425.67 L 635.60,424.25 L 634.10,423.78 L 625.59,427.94 L 620.95,423.64 L 616.09,426.11 L 617.02,429.07 L 615.88,428.75 L 613.42,437.25 L 615.61,441.75 L 0.00,441.75 L 0.00,382.03 L 4.07,377.02 Z M 688.22,424.19 L 688.96,423.78 L 688.96,425.02 L 688.22,424.19 Z M 693.88,423.14 L 694.24,423.27 L 693.44,424.25 L 692.59,423.31 L 693.88,423.14 Z M 691.82,422.77 L 690.56,421.89 L 692.71,422.31 L 691.82,422.77 Z M 673.71,420.14 L 672.40,420.06 L 672.82,418.51 L 671.19,419.74 L 672.45,417.70 L 673.73,417.85 L 673.71,420.14 Z M 698.09,416.15 L 698.87,416.60 L 698.34,417.33 L 698.09,416.15 Z M 701.29,427.46 L 700.75,427.98 L 700.48,426.80 L 701.29,427.46 Z M 630.60,427.63 L 629.76,429.27 L 627.98,430.12 L 627.96,427.67 L 629.22,428.57 L 630.60,427.63 Z" fill="#C8D8E8" stroke="#8BAABB" stroke-width="0.8"/>
<path d="M 144.79,199.67 L 142.79,196.62 L 138.94,195.63 L 135.83,189.71 L 132.22,187.94 L 135.08,185.48 L 134.65,183.48 L 132.50,183.20 L 125.77,190.75 L 117.03,187.26 L 110.94,187.74 L 108.34,181.43 L 106.76,180.67 L 107.86,178.46 L 107.26,177.03 L 95.81,172.64 L 94.96,166.92 L 91.15,160.81 L 83.12,155.98 L 78.05,155.98 L 76.00,158.50 L 72.12,158.07 L 71.29,160.59 L 68.23,162.32 L 56.85,160.70 L 52.44,161.95 L 51.51,156.74 L 46.08,156.82 L 47.64,151.57 L 40.35,148.95 L 39.05,151.07 L 36.29,151.55 L 36.56,156.77 L 31.95,159.97 L 29.97,159.46 L 31.07,161.45 L 30.06,161.11 L 14.85,133.25 L 0.00,109.61 L 0.00,58.25 L 800.00,58.25 L 800.00,194.38 L 799.00,191.71 L 797.42,191.62 L 796.83,193.53 L 793.33,193.36 L 787.80,190.58 L 788.45,188.44 L 786.43,187.38 L 779.07,189.03 L 773.73,187.99 L 768.81,183.33 L 768.00,177.97 L 769.62,173.80 L 765.58,171.09 L 766.01,169.11 L 764.93,167.96 L 766.15,165.41 L 764.91,161.48 L 759.38,154.36 L 760.01,148.45 L 757.47,149.24 L 759.03,146.92 L 755.42,142.71 L 756.17,139.70 L 751.72,133.13 L 753.54,130.11 L 749.82,128.54 L 751.72,126.82 L 749.80,125.89 L 750.34,124.51 L 748.01,122.46 L 748.19,120.96 L 744.75,119.75 L 746.26,115.45 L 744.53,115.69 L 742.36,112.46 L 739.40,112.96 L 740.75,110.76 L 739.00,108.93 L 730.49,105.52 L 727.75,106.13 L 727.33,107.89 L 707.80,97.54 L 696.07,99.57 L 687.63,99.07 L 670.32,104.05 L 665.20,103.97 L 652.12,115.79 L 652.84,119.67 L 658.67,118.55 L 662.87,120.75 L 661.34,125.19 L 663.80,129.49 L 662.58,133.54 L 653.17,140.81 L 650.30,148.30 L 647.91,150.93 L 647.58,154.19 L 644.12,157.98 L 643.78,161.79 L 638.20,169.63 L 641.61,170.80 L 640.98,176.44 L 637.49,178.86 L 630.53,179.58 L 618.55,189.62 L 605.86,185.99 L 592.81,178.24 L 585.01,181.33 L 579.90,181.03 L 570.05,173.18 L 562.78,172.26 L 551.79,178.10 L 545.62,183.05 L 543.73,187.74 L 539.32,189.89 L 534.59,189.14 L 527.70,191.92 L 516.95,192.99 L 507.51,198.16 L 501.91,195.79 L 498.96,197.60 L 485.05,193.59 L 473.41,193.84 L 463.92,186.05 L 464.22,180.06 L 452.49,178.41 L 449.09,174.09 L 444.16,171.12 L 437.41,171.90 L 433.72,169.46 L 423.52,167.72 L 409.17,171.72 L 404.75,175.18 L 391.62,174.06 L 390.45,171.80 L 386.18,171.66 L 376.48,165.73 L 376.89,162.21 L 375.14,160.39 L 375.34,156.29 L 374.04,153.60 L 374.77,148.83 L 372.93,147.29 L 361.66,145.57 L 348.61,139.29 L 339.40,138.78 L 324.00,130.13 L 320.19,137.18 L 314.74,139.48 L 313.00,145.01 L 310.20,145.42 L 306.57,155.79 L 309.34,159.30 L 308.71,160.94 L 310.18,164.39 L 314.14,166.76 L 313.66,172.10 L 310.32,178.03 L 306.93,180.29 L 302.84,180.44 L 302.95,182.02 L 299.37,184.59 L 296.41,184.23 L 293.55,181.13 L 287.58,181.79 L 279.35,178.58 L 277.65,179.95 L 275.81,178.09 L 270.72,181.13 L 264.13,179.79 L 261.72,177.51 L 256.77,178.10 L 252.90,173.47 L 251.41,165.87 L 233.48,164.94 L 232.02,164.38 L 231.25,160.86 L 228.67,160.63 L 226.40,163.23 L 221.91,158.81 L 218.77,162.88 L 212.41,163.00 L 207.21,168.06 L 200.94,168.88 L 195.84,173.63 L 192.59,173.67 L 185.52,176.94 L 184.73,179.30 L 180.04,180.20 L 179.22,182.14 L 180.58,184.92 L 175.44,188.06 L 173.02,186.86 L 172.69,189.43 L 169.27,190.92 L 167.61,189.05 L 167.64,191.37 L 157.22,190.96 L 155.91,193.18 L 156.35,195.13 L 144.79,199.67 Z" fill="#C8D8E8" stroke="#8BAABB" stroke-width="0.8"/>
<path d="M 589.86,206.57 L 586.32,211.96 L 586.31,218.51 L 581.87,221.03 L 582.83,226.07 L 588.09,231.21 L 593.21,227.14 L 602.20,226.83 L 610.58,231.96 L 616.89,224.18 L 627.87,224.26 L 632.45,229.57 L 637.36,231.72 L 638.14,234.76 L 640.88,235.93 L 640.45,237.32 L 646.95,243.13 L 650.00,249.06 L 649.63,254.19 L 646.64,256.04 L 640.99,255.59 L 633.68,252.09 L 631.71,254.11 L 624.70,253.06 L 617.37,257.66 L 613.80,255.77 L 611.09,256.50 L 610.22,261.37 L 602.09,260.70 L 598.26,262.88 L 592.74,271.58 L 593.33,273.97 L 592.06,276.11 L 584.25,281.90 L 566.63,283.46 L 564.84,287.65 L 559.72,293.10 L 552.18,298.15 L 538.87,295.29 L 533.65,290.73 L 526.59,290.31 L 523.17,292.99 L 517.86,306.16 L 520.14,311.40 L 524.73,316.35 L 526.20,321.86 L 511.27,330.52 L 502.46,342.96 L 488.14,350.22 L 477.44,351.38 L 467.80,350.11 L 445.89,353.92 L 421.53,366.27 L 418.00,369.84 L 410.71,368.24 L 410.65,363.38 L 398.06,365.91 L 388.46,360.33 L 372.30,356.24 L 367.65,349.95 L 364.38,348.21 L 340.94,345.05 L 332.50,347.61 L 297.04,342.54 L 284.05,343.96 L 283.44,339.74 L 276.53,332.08 L 271.26,315.93 L 267.90,314.57 L 269.12,308.59 L 263.51,309.17 L 258.25,307.15 L 250.22,299.94 L 246.26,299.66 L 240.01,293.34 L 229.47,291.34 L 219.70,292.00 L 209.05,290.61 L 201.63,287.28 L 198.78,287.99 L 195.33,281.02 L 196.25,275.13 L 200.79,269.00 L 199.14,262.63 L 201.49,256.61 L 198.96,248.01 L 196.27,246.42 L 192.49,239.73 L 190.56,231.78 L 186.49,229.57 L 185.90,226.75 L 181.34,228.02 L 178.08,223.32 L 170.82,224.38 L 163.99,220.02 L 161.92,215.10 L 153.36,210.94 L 155.03,207.92 L 150.00,203.86 L 152.13,202.01 L 151.25,197.52 L 156.35,195.13 L 156.83,191.19 L 163.68,190.08 L 167.64,191.37 L 167.93,188.97 L 169.27,190.92 L 172.15,189.86 L 173.02,186.86 L 175.44,188.06 L 180.58,184.92 L 179.22,182.14 L 180.04,180.20 L 184.73,179.30 L 185.52,176.94 L 192.59,173.67 L 195.84,173.63 L 200.94,168.88 L 207.21,168.06 L 212.41,163.00 L 218.77,162.88 L 221.91,158.81 L 226.40,163.23 L 228.67,160.63 L 231.25,160.86 L 232.02,164.38 L 233.48,164.94 L 251.41,165.87 L 252.90,173.47 L 256.77,178.10 L 261.72,177.51 L 264.13,179.79 L 270.72,181.13 L 275.81,178.09 L 277.65,179.95 L 279.35,178.58 L 287.58,181.79 L 293.55,181.13 L 296.41,184.23 L 299.37,184.59 L 302.95,182.02 L 302.84,180.44 L 306.93,180.29 L 310.32,178.03 L 313.66,172.10 L 314.14,166.76 L 310.18,164.39 L 308.71,160.94 L 309.34,159.30 L 306.57,155.79 L 310.20,145.42 L 313.00,145.01 L 314.74,139.48 L 320.19,137.18 L 323.36,130.16 L 330.16,134.57 L 336.16,135.79 L 339.40,138.78 L 348.61,139.29 L 361.66,145.57 L 372.93,147.29 L 374.77,148.83 L 374.04,153.60 L 375.34,156.29 L 375.14,160.39 L 376.89,162.21 L 376.48,165.73 L 386.18,171.66 L 390.45,171.80 L 391.62,174.06 L 404.75,175.18 L 409.17,171.72 L 423.52,167.72 L 433.72,169.46 L 437.41,171.90 L 444.16,171.12 L 449.09,174.09 L 452.49,178.41 L 464.22,180.06 L 463.92,186.05 L 473.41,193.84 L 485.05,193.59 L 498.96,197.60 L 501.91,195.79 L 507.51,198.16 L 516.95,192.99 L 527.70,191.92 L 534.59,189.14 L 539.32,189.89 L 543.73,187.74 L 545.62,183.05 L 551.79,178.10 L 562.78,172.26 L 570.05,173.18 L 579.90,181.03 L 585.01,181.33 L 592.81,178.24 L 598.37,180.33 L 600.06,182.57 L 589.86,206.57 Z" fill="#4A90D9" stroke="#1a5fa8" stroke-width="1.2"/>
<path d="M 12.39,261.19 L 5.73,260.34 L 5.49,262.96 L 3.41,261.26 L 0.00,261.96 L 0.00,255.42 L 0.96,255.70 L 3.45,259.10 L 4.35,253.94 L 4.90,255.76 L 5.79,254.12 L 5.73,255.82 L 7.83,252.48 L 10.21,252.69 L 10.96,255.36 L 12.99,255.17 L 10.76,251.64 L 14.68,252.55 L 14.48,251.03 L 16.03,250.94 L 18.21,254.43 L 15.36,255.99 L 15.00,258.94 L 12.39,261.19 Z" fill="#A8C8E8" stroke="none"/>
<path d="M 491.97,61.06 L 492.73,63.63 L 490.52,71.71 L 488.57,73.84 L 488.01,81.06 L 489.25,84.34 L 483.61,91.99 L 483.19,96.10 L 480.36,95.72 L 481.75,91.76 L 479.33,90.81 L 473.23,98.60 L 478.99,96.83 L 480.47,99.46 L 480.27,102.05 L 474.50,103.91 L 469.61,107.82 L 469.94,110.10 L 464.56,115.11 L 448.80,121.97 L 446.83,125.55 L 439.18,125.27 L 437.79,127.13 L 438.49,129.93 L 436.96,134.37 L 432.69,139.22 L 415.11,145.05 L 406.86,144.26 L 398.33,140.22 L 421.84,134.95 L 427.85,130.10 L 433.08,122.35 L 442.97,116.47 L 448.09,110.59 L 445.53,109.99 L 447.76,107.34 L 457.72,100.52 L 459.65,95.73 L 468.14,89.47 L 470.03,83.90 L 477.76,71.51 L 479.94,66.69 L 479.09,65.76 L 482.19,63.74 L 483.56,59.88 L 483.59,58.25 L 493.07,58.25 L 491.97,61.06 Z M 461.67,101.01 L 449.36,107.77 L 448.51,109.84 L 455.59,108.58 L 461.20,104.77 L 461.67,101.01 Z" fill="#A8C8E8" stroke="none"/>
<path d="M 352.21,154.24 L 347.51,161.87 L 348.05,165.76 L 344.22,166.38 L 343.67,168.26 L 343.14,166.40 L 344.75,163.13 L 345.89,152.73 L 344.82,148.35 L 347.39,147.48 L 347.80,145.75 L 346.27,145.44 L 349.22,141.72 L 352.59,145.64 L 352.21,154.24 Z" fill="#A8C8E8" stroke="none"/>
<path d="M 606.05,211.66 L 607.62,209.08 L 606.19,208.61 L 606.67,207.38 L 604.62,204.57 L 609.77,200.42 L 613.84,193.88 L 615.87,192.70 L 615.34,196.24 L 617.26,198.69 L 621.26,198.41 L 620.26,200.75 L 616.94,199.21 L 616.53,201.92 L 609.70,207.52 L 609.83,209.93 L 606.05,211.66 Z" fill="#A8C8E8" stroke="none"/>
<path d="M 51.14,267.44 L 51.12,267.51 L 51.02,267.18 L 51.14,267.44 Z" fill="#A8C8E8" stroke="none"/>
<path d="M 140.65,362.21 L 133.59,363.95 L 136.14,360.37 L 135.71,357.40 L 143.81,359.90 L 145.30,363.87 L 140.65,362.21 Z" fill="#A8C8E8" stroke="none"/>
<path d="M 95.23,230.11 L 95.35,230.18 L 95.44,230.28 L 95.23,230.11 Z" fill="#A8C8E8" stroke="none"/>
<path d="M 227.11,222.02 L 224.57,221.86 L 221.76,224.36 L 219.84,229.39 L 217.43,229.49 L 215.71,224.48 L 220.21,221.54 L 220.95,218.57 L 219.36,216.40 L 220.22,215.64 L 224.78,216.48 L 222.41,218.48 L 222.22,220.84 L 223.50,221.71 L 226.59,218.74 L 227.56,219.52 L 225.64,216.25 L 229.00,218.35 L 227.11,222.02 Z" fill="#A8C8E8" stroke="none"/>
<path d="M 612.94,228.89 L 617.39,224.68 L 618.48,228.35 L 613.86,231.83 L 612.94,228.89 Z" fill="#A8C8E8" stroke="none"/>
<path d="M 25.23,111.25 L 25.61,114.36 L 21.79,113.43 L 20.05,110.64 L 21.77,107.53 L 24.49,107.96 L 23.47,107.00 L 26.20,108.64 L 25.23,111.25 Z" fill="#A8C8E8" stroke="none"/>
<path d="M 198.71,175.75 L 199.81,173.53 L 202.88,174.84 L 202.51,176.43 L 198.71,175.75 Z" fill="#A8C8E8" stroke="none"/>
<path d="M 330.79,146.62 L 331.91,147.33 L 330.65,149.31 L 329.94,146.48 L 333.03,144.67 L 330.79,146.62 Z" fill="#A8C8E8" stroke="none"/>
<path d="M 479.45,384.24 L 476.15,387.69 L 476.20,384.98 L 478.44,384.72 L 477.94,382.55 L 479.74,382.63 L 479.45,384.24 Z" fill="#A8C8E8" stroke="none"/>
<path d="M 151.56,147.93 L 149.15,144.61 L 148.50,139.47 L 144.65,138.50 L 149.85,137.60 L 149.40,142.59 L 151.56,147.93 Z" fill="#A8C8E8" stroke="none"/>
<path d="M 39.61,255.36 L 39.67,255.27 L 39.73,255.36 L 39.61,255.36 Z" fill="#A8C8E8" stroke="none"/>
<path d="M 42.91,258.29 L 39.31,253.57 L 47.71,254.12 L 48.97,255.58 L 48.38,257.74 L 47.18,257.49 L 47.73,259.08 L 42.91,258.29 Z" fill="#A8C8E8" stroke="none"/>
<path d="M 720.54,286.95 L 719.93,288.02 L 717.70,287.97 L 716.51,285.10 L 715.06,284.95 L 716.73,284.50 L 720.54,286.95 Z" fill="#A8C8E8" stroke="none"/>
<path d="M 78.68,296.72 L 76.80,297.87 L 71.47,294.77 L 73.81,292.39 L 78.26,294.33 L 78.68,296.72 Z" fill="#A8C8E8" stroke="none"/>
<path d="M 123.36,205.56 L 120.00,208.95 L 115.80,207.87 L 116.89,205.73 L 123.36,205.56 Z" fill="#A8C8E8" stroke="none"/>
<path d="M 162.35,212.03 L 161.08,210.66 L 165.12,211.14 L 162.35,212.03 Z" fill="#A8C8E8" stroke="none"/>
<path d="M 194.74,189.84 L 195.66,191.60 L 195.23,192.89 L 191.64,189.77 L 194.54,187.69 L 196.10,188.18 L 194.74,189.84 Z" fill="#A8C8E8" stroke="none"/>
<path d="M 181.11,167.29 L 181.65,167.78 L 180.03,167.78 L 181.11,167.29 Z" fill="#A8C8E8" stroke="none"/>
<path d="M 598.33,332.61 L 596.71,332.49 L 599.80,328.89 L 601.27,330.88 L 598.33,332.61 Z" fill="#A8C8E8" stroke="none"/>
<path d="M 441.32,151.43 L 438.53,152.95 L 440.22,149.82 L 441.63,149.35 L 441.32,151.43 Z" fill="#A8C8E8" stroke="none"/>
<path d="M 543.33,61.38 L 540.67,60.76 L 544.29,58.58 L 543.33,61.38 Z" fill="#A8C8E8" stroke="none"/>
<path d="M 533.55,68.85 L 532.99,68.60 L 533.75,67.60 L 533.55,68.85 Z" fill="#A8C8E8" stroke="none"/>
<path d="M 532.17,69.32 L 530.01,68.70 L 530.34,68.15 L 532.28,67.79 L 532.17,69.32 Z" fill="#A8C8E8" stroke="none"/>
<path d="M 526.85,112.58 L 525.78,112.14 L 526.53,111.43 L 526.85,112.58 Z" fill="#A8C8E8" stroke="none"/>
<path d="M 525.59,113.76 L 524.30,113.84 L 524.57,113.39 L 525.59,113.76 Z" fill="#A8C8E8" stroke="none"/>
<path d="M 518.76,120.28 L 518.09,119.03 L 520.36,117.99 L 520.09,120.01 L 518.76,120.28 Z" fill="#A8C8E8" stroke="none"/>
<path d="M 522.12,119.00 L 520.96,118.69 L 521.23,117.62 L 522.50,117.50 L 522.12,119.00 Z" fill="#A8C8E8" stroke="none"/>
<path d="M 520.59,120.28 L 520.74,120.37 L 519.15,120.75 L 520.59,120.28 Z" fill="#A8C8E8" stroke="none"/>
<path d="M 545.04,125.39 L 543.89,126.08 L 543.86,125.87 L 545.04,125.39 Z" fill="#A8C8E8" stroke="none"/>
<path d="M 543.03,126.49 L 543.11,126.93 L 542.26,127.27 L 543.03,126.49 Z" fill="#A8C8E8" stroke="none"/>
<path d="M 541.52,128.11 L 537.90,129.89 L 538.54,128.03 L 541.08,126.95 L 541.52,128.11 Z" fill="#A8C8E8" stroke="none"/>
<path d="M 535.05,132.75 L 536.19,132.39 L 536.06,132.84 L 535.05,132.75 Z" fill="#A8C8E8" stroke="none"/>
<path d="M 594.36,167.66 L 594.35,167.78 L 594.35,167.65 L 594.36,167.66 Z" fill="#A8C8E8" stroke="none"/>
<path d="M 594.38,167.42 L 595.43,167.65 L 595.18,167.88 L 594.38,167.42 Z" fill="#A8C8E8" stroke="none"/>
<path d="M 301.97,205.71 L 297.12,206.28 L 296.47,204.63 L 300.62,204.17 L 301.97,205.71 Z" fill="#A8C8E8" stroke="none"/>
<path d="M 329.09,195.85 L 327.57,196.02 L 327.14,197.99 L 322.16,194.43 L 329.09,195.85 Z" fill="#A8C8E8" stroke="none"/>
<path d="M 583.05,190.61 L 581.79,189.13 L 583.16,188.10 L 583.05,190.61 Z" fill="#A8C8E8" stroke="none"/>
<path d="M 586.95,189.56 L 587.11,189.86 L 586.35,189.87 L 586.95,189.56 Z" fill="#A8C8E8" stroke="none"/>
<path d="M 590.90,192.91 L 590.63,192.56 L 591.92,192.56 L 590.90,192.91 Z" fill="#A8C8E8" stroke="none"/>
<path d="M 608.64,236.89 L 608.94,235.75 L 609.30,236.56 L 608.64,236.89 Z" fill="#A8C8E8" stroke="none"/>
<path d="M 613.99,238.95 L 614.35,239.56 L 614.00,239.84 L 613.99,238.95 Z" fill="#A8C8E8" stroke="none"/>
<path d="M 719.53,264.88 L 720.40,265.47 L 720.18,266.36 L 719.07,266.10 L 719.53,264.88 Z" fill="#A8C8E8" stroke="none"/>
<path d="M 717.47,284.49 L 718.00,283.45 L 718.38,284.17 L 717.47,284.49 Z" fill="#A8C8E8" stroke="none"/>
<path d="M 614.65,281.13 L 612.89,283.09 L 609.94,281.85 L 614.55,279.31 L 614.65,281.13 Z" fill="#A8C8E8" stroke="none"/>
<path d="M 6.37,74.09 L 8.19,75.18 L 7.78,76.02 L 5.42,75.42 L 6.37,74.09 Z" fill="#A8C8E8" stroke="none"/>
<path d="M 25.23,115.68 L 27.36,115.66 L 27.85,117.88 L 25.95,118.82 L 25.23,115.68 Z" fill="#A8C8E8" stroke="none"/>
<path d="M 25.30,117.98 L 25.35,118.09 L 25.23,117.94 L 25.30,117.98 Z" fill="#A8C8E8" stroke="none"/>
<path d="M 47.54,125.42 L 46.97,125.57 L 49.52,122.15 L 53.25,120.11 L 47.54,125.42 Z" fill="#A8C8E8" stroke="none"/>
<path d="M 0.31,61.69 L 0.00,62.40 L 0.00,61.50 L 0.31,61.69 Z" fill="#A8C8E8" stroke="none"/>
<path d="M 7.16,63.62 L 10.01,64.65 L 7.34,66.98 L 5.32,66.01 L 7.16,63.62 Z" fill="#A8C8E8" stroke="none"/>
<path d="M 0.00,74.28 L 0.00,72.91 L 0.73,72.77 L 0.00,74.28 Z" fill="#A8C8E8" stroke="none"/>
<path d="M 758.96,326.09 L 758.77,323.65 L 756.05,324.05 L 756.64,322.03 L 755.80,323.02 L 755.45,321.46 L 758.12,320.31 L 757.10,322.27 L 759.49,323.67 L 758.96,326.09 Z" fill="#A8C8E8" stroke="none"/>
<path d="M 714.44,276.09 L 710.92,276.23 L 711.97,275.39 L 714.44,276.09 Z" fill="#A8C8E8" stroke="none"/>
<path d="M 61.77,79.61 L 57.39,81.07 L 54.79,84.94 L 50.70,86.91 L 50.48,90.21 L 49.94,87.55 L 48.96,90.17 L 49.62,86.81 L 54.74,84.03 L 56.81,80.46 L 62.53,78.37 L 72.98,69.50 L 77.06,68.41 L 80.16,70.34 L 80.71,71.72 L 77.26,69.49 L 61.77,79.61 Z" fill="#A8C8E8" stroke="none"/>
<path d="M 100.66,225.59 L 98.00,229.18 L 95.56,229.18 L 97.58,230.11 L 95.91,230.43 L 86.47,223.58 L 81.14,222.80 L 76.56,219.26 L 76.74,217.96 L 83.82,217.80 L 85.64,215.64 L 82.35,212.52 L 83.35,204.35 L 85.27,202.00 L 94.74,197.61 L 92.24,193.49 L 89.37,191.35 L 86.60,191.80 L 82.03,186.65 L 87.83,187.73 L 89.94,185.02 L 92.03,184.31 L 86.83,189.68 L 90.45,190.85 L 96.44,196.69 L 99.39,197.09 L 85.43,203.01 L 83.40,207.32 L 85.72,214.24 L 91.39,215.00 L 87.12,215.46 L 84.31,217.99 L 100.66,225.59 Z" fill="#A8C8E8" stroke="none"/>
<path d="M 397.62,97.77 L 394.12,96.98 L 393.13,107.91 L 392.54,94.65 L 384.48,92.69 L 391.31,93.02 L 386.83,84.44 L 387.65,81.76 L 389.70,79.15 L 387.98,77.75 L 391.00,77.54 L 390.67,72.65 L 388.45,70.62 L 388.10,68.86 L 388.57,66.90 L 392.29,62.06 L 392.21,58.68 L 392.01,58.25 L 392.21,58.25 L 392.90,60.13 L 392.26,63.55 L 389.11,66.96 L 388.54,70.27 L 392.05,73.06 L 391.52,77.75 L 392.48,77.58 L 392.71,80.87 L 395.34,84.60 L 391.28,78.89 L 387.44,84.43 L 391.84,89.74 L 394.28,95.81 L 397.56,97.21 L 399.23,95.70 L 398.72,99.67 L 397.62,97.77 Z M 378.63,58.41 L 378.30,58.96 L 376.07,59.36 L 377.09,60.48 L 376.73,61.47 L 373.01,64.09 L 376.40,60.76 L 375.96,59.05 L 378.24,58.36 L 375.78,58.41 L 375.78,58.25 L 378.53,58.25 L 378.63,58.41 Z" fill="#A8C8E8" stroke="none"/>
<path d="M 210.72,63.66 L 202.82,64.02 L 200.66,66.62 L 200.54,73.10 L 204.83,75.48 L 206.57,79.15 L 208.53,78.69 L 212.31,79.30 L 206.77,79.46 L 209.05,82.97 L 209.89,86.99 L 209.28,88.48 L 213.49,88.18 L 208.80,89.18 L 207.95,90.21 L 208.69,93.62 L 206.67,90.35 L 209.20,86.10 L 204.11,80.23 L 204.32,76.03 L 198.64,71.86 L 199.43,67.15 L 202.38,63.24 L 217.04,60.06 L 216.90,58.58 L 218.61,58.41 L 218.74,58.25 L 220.62,58.25 L 219.41,60.22 L 210.72,63.66 Z M 224.99,59.05 L 223.72,58.25 L 225.74,58.25 L 224.99,59.05 Z" fill="#A8C8E8" stroke="none"/>
<path d="M 1.37,317.98 L 0.00,319.02 L 0.00,317.78 L 1.37,317.98 Z" fill="#A8C8E8" stroke="none"/>
<path d="M 794.94,73.78 L 792.16,72.54 L 787.62,73.06 L 787.03,74.63 L 784.81,73.76 L 788.95,78.99 L 783.47,75.27 L 781.66,76.03 L 782.45,77.58 L 779.27,74.59 L 782.30,78.37 L 775.37,75.27 L 778.15,78.37 L 775.43,76.57 L 773.88,78.69 L 776.01,80.10 L 773.88,79.30 L 773.35,80.70 L 778.24,82.09 L 775.53,82.11 L 776.33,83.20 L 774.74,83.81 L 776.44,84.92 L 773.28,84.95 L 768.33,88.95 L 767.44,91.52 L 769.40,92.51 L 764.71,93.02 L 763.76,90.67 L 766.71,90.68 L 766.83,88.12 L 759.81,82.56 L 763.80,83.72 L 767.80,87.41 L 773.27,83.99 L 767.32,79.07 L 768.33,77.90 L 767.60,76.69 L 763.09,76.84 L 761.65,75.57 L 765.05,75.96 L 763.32,72.02 L 766.07,75.55 L 766.15,71.97 L 768.28,75.55 L 770.42,71.83 L 770.89,75.41 L 774.84,74.03 L 775.96,67.91 L 777.11,73.40 L 779.41,70.74 L 779.52,73.04 L 782.09,71.67 L 782.54,73.50 L 786.93,71.51 L 794.65,72.61 L 794.94,73.78 Z" fill="#A8C8E8" stroke="none"/>
<path d="M 586.26,396.35 L 585.66,397.94 L 583.50,399.05 L 582.86,400.72 L 582.91,399.00 L 586.26,396.35 Z" fill="#A8C8E8" stroke="none"/>
<path d="M 611.03,435.30 L 610.03,435.77 L 610.13,434.21 L 611.22,434.05 L 611.03,435.30 Z" fill="#A8C8E8" stroke="none"/>
<path d="M 734.99,390.59 L 734.03,391.83 L 729.77,394.02 L 730.35,395.64 L 728.71,395.58 L 729.77,395.26 L 727.97,393.38 L 729.24,394.19 L 734.99,390.59 Z" fill="#A8C8E8" stroke="none"/>
<path d="M 3.73,346.90 L 0.00,348.66 L 0.00,346.29 L 3.73,346.90 Z M 3.40,343.54 L 0.00,346.20 L 0.00,343.74 L 3.40,343.54 Z" fill="#A8C8E8" stroke="none"/>
<path d="M 220.10,168.42 L 227.97,165.52 L 230.30,162.80 L 231.76,163.69 L 231.82,167.70 L 238.12,172.05 L 233.49,173.16 L 230.77,177.34 L 227.02,178.71 L 223.05,176.93 L 220.10,168.42 Z" fill="#A8C8E8" stroke="none"/>
<path d="M 56.93,273.58 L 51.40,268.64 L 51.67,260.74 L 54.03,258.52 L 60.18,262.07 L 62.81,274.32 L 56.93,273.58 Z" fill="#A8C8E8" stroke="none"/>
<path d="M 230.53,193.80 L 230.55,193.80 L 230.55,193.80 L 230.53,193.80 Z M 244.07,198.96 L 237.57,202.38 L 236.22,198.80 L 228.83,195.22 L 233.95,193.56 L 238.73,197.09 L 244.09,197.40 L 244.07,198.96 Z" fill="#A8C8E8" stroke="none"/>
<path d="M 240.26,233.24 L 237.88,233.08 L 235.43,226.93 L 235.97,225.43 L 234.80,225.43 L 235.76,224.82 L 232.44,223.75 L 232.27,220.92 L 233.98,220.86 L 234.70,218.96 L 238.41,219.50 L 235.74,223.66 L 236.79,224.42 L 236.24,227.24 L 240.83,231.12 L 240.26,233.24 Z" fill="#A8C8E8" stroke="none"/>
<path d="M 239.07,204.98 L 237.15,203.58 L 239.60,202.08 L 239.07,204.98 Z" fill="#A8C8E8" stroke="none"/>
</svg>