<svg xmlns="http://www.w3.org/2000/svg" width="800" height="500" viewBox="0 0 800 500">
<rect width="800" height="500" fill="#A8C8E8"/>
<path d="M 594.80,195.71 L 552.89,204.83 L 563.35,212.55 L 591.96,199.83 L 610.96,206.69 L 600.42,222.90 L 575.62,218.26 L 585.20,234.48 L 485.27,210.97 L 568.48,187.99 L 594.80,195.71 Z M 538.73,247.17 L 537.70,238.00 L 549.68,243.03 L 538.73,247.17 Z M 575.05,243.03 L 562.94,245.22 L 539.16,232.41 L 564.92,230.21 L 575.05,243.03 Z M 484.15,229.10 L 524.74,222.29 L 511.06,241.07 L 472.63,244.04 L 484.15,229.10 Z" fill="#E8E0D0" stroke="#B8B0A0" stroke-width="0.5"/>
<path d="M 757.36,167.13 L 726.65,155.59 L 752.68,169.14 L 735.01,189.29 L 696.96,179.62 L 704.83,147.37 L 641.54,164.53 L 637.67,173.82 L 658.61,174.23 L 634.86,187.03 L 665.44,194.50 L 639.97,204.11 L 609.96,178.98 L 501.97,190.76 L 483.61,204.10 L 450.54,157.12 L 429.11,158.14 L 412.41,142.46 L 420.57,113.14 L 410.19,131.37 L 415.32,113.14 L 405.07,128.16 L 406.77,115.27 L 393.23,116.90 L 406.55,103.20 L 468.54,100.23 L 365.39,103.43 L 386.60,115.40 L 382.02,130.42 L 314.27,133.51 L 384.58,153.77 L 355.40,154.93 L 410.81,184.97 L 407.93,237.67 L 381.96,250.60 L 302.34,184.90 L 361.51,246.78 L 336.71,246.20 L 300.39,270.98 L 282.28,242.40 L 267.43,282.74 L 238.92,297.29 L 217.53,280.13 L 148.74,310.33 L 117.53,299.03 L 134.44,280.13 L 108.68,281.79 L 110.39,264.13 L 100.15,278.01 L 111.55,305.87 L 82.58,320.34 L 56.62,313.43 L 59.18,299.34 L 18.06,306.50 L 21.34,292.93 L 3.33,302.33 L 0.00,299.66 L 0.00,0.00 L 800.00,0.00 L 800.00,149.25 L 757.36,167.13 Z M 11.08,310.10 L 0.00,315.21 L 0.00,307.15 L 11.08,310.10 Z M 10.98,334.03 L 0.00,336.04 L 0.00,333.08 L 10.98,334.03 Z M 173.62,331.02 L 142.37,337.52 L 150.00,325.13 L 172.36,319.71 L 173.62,331.02 Z M 213.66,339.01 L 202.25,340.17 L 204.63,323.01 L 188.94,321.32 L 222.02,310.10 L 213.66,339.01 Z M 362.46,273.74 L 338.37,271.07 L 356.69,260.84 L 362.46,273.74 Z M 339.43,262.90 L 330.81,263.17 L 328.96,256.08 L 352.21,250.17 L 339.43,262.90 Z M 400.59,156.42 L 360.06,134.51 L 379.92,134.10 L 400.59,156.42 Z M 325.64,293.52 L 317.48,290.33 L 322.95,283.72 L 325.64,293.52 Z M 452.14,280.02 L 448.07,279.09 L 445.09,275.28 L 452.14,280.02 Z M 586.65,267.83 L 562.70,270.81 L 587.07,264.01 L 586.65,267.83 Z M 390.74,254.95 L 397.92,260.37 L 382.20,263.69 L 390.74,254.95 Z M 425.48,208.63 L 416.32,213.68 L 413.63,210.25 L 425.48,208.63 Z M 419.94,172.26 L 421.48,180.83 L 380.15,162.41 L 419.94,172.26 Z M 399.42,132.45 L 397.27,137.34 L 388.51,130.90 L 399.42,132.45 Z" fill="#C8D8E8" stroke="#8BAABB" stroke-width="0.8"/>
<path d="M 407.89,255.33 L 397.72,258.37 L 394.08,250.99 L 407.89,255.33 Z M 400.31,243.20 L 392.21,247.69 L 392.11,241.63 L 400.31,243.20 Z" fill="#4A90D9" stroke="#1a5fa8" stroke-width="1.2"/>
<path d="M 668.07,4.25 L 608.46,2.14 L 616.57,0.00 L 662.06,0.00 L 668.07,4.25 Z" fill="#A8C8E8" stroke="none"/>
</svg>