<svg xmlns="http://www.w3.org/2000/svg" width="800" height="500" viewBox="0 0 800 500">
<rect width="800" height="500" fill="#A8C8E8"/>
<path d="M 379.90,432.64 L 367.30,449.18 L 364.68,440.21 L 376.85,430.05 L 379.90,432.64 Z" fill="#E8E0D0" stroke="#B8B0A0" stroke-width="0.5"/>
<path d="M 395.61,403.73 L 387.66,406.25 L 389.42,404.59 L 395.61,403.73 Z M 413.12,364.76 L 411.17,368.04 L 408.97,363.07 L 412.17,360.41 L 413.12,364.76 Z M 417.06,359.25 L 413.95,358.94 L 414.53,354.04 L 418.69,350.92 L 417.06,359.25 Z M 413.18,298.79 L 411.28,297.58 L 412.49,296.75 L 413.18,298.79 Z M 420.91,211.78 L 415.52,215.39 L 415.22,214.26 L 417.92,209.50 L 420.91,211.78 Z M 411.49,179.76 L 414.07,178.76 L 415.06,181.63 L 411.49,179.76 Z M 417.82,281.50 L 419.47,281.58 L 418.76,282.44 L 417.82,281.50 Z M 420.93,251.82 L 422.42,251.98 L 421.81,252.76 L 420.93,251.82 Z M 420.75,238.57 L 420.85,237.20 L 422.18,237.55 L 420.75,238.57 Z M 399.86,136.67 L 399.86,136.12 L 401.15,136.11 L 399.86,136.67 Z M 392.65,119.31 L 393.21,118.31 L 394.78,119.19 L 392.65,119.31 Z M 377.58,94.50 L 378.39,93.75 L 378.99,94.62 L 377.58,94.50 Z" fill="#4A90D9" stroke="#1a5fa8" stroke-width="1.2"/>
</svg>