<svg xmlns="http://www.w3.org/2000/svg" width="800" height="500" viewBox="0 0 800 500">
<rect width="800" height="500" fill="#A8C8E8"/>
<path d="M 291.75,432.64 L 223.88,449.18 L 209.76,440.21 L 275.32,430.05 L 291.75,432.64 Z" fill="#E8E0D0" stroke="#B8B0A0" stroke-width="0.5"/>
<path d="M 376.35,403.73 L 333.54,406.25 L 343.02,404.59 L 376.35,403.73 Z M 470.67,364.76 L 460.17,368.04 L 448.33,363.07 L 465.54,360.41 L 470.67,364.76 Z M 491.87,359.25 L 475.10,358.94 L 478.28,354.04 L 500.68,350.92 L 491.87,359.25 Z M 470.99,298.79 L 460.76,297.58 L 467.25,296.75 L 470.99,298.79 Z M 512.62,211.78 L 483.59,215.39 L 481.98,214.26 L 496.49,209.50 L 512.62,211.78 Z M 461.85,179.76 L 475.80,178.76 L 481.09,181.63 L 461.85,179.76 Z M 495.98,281.50 L 504.85,281.58 L 501.02,282.44 L 495.98,281.50 Z M 512.70,251.82 L 520.76,251.98 L 517.46,252.76 L 512.70,251.82 Z M 511.77,238.57 L 512.27,237.20 L 519.46,237.55 L 511.77,238.57 Z M 399.24,136.67 L 399.24,136.12 L 406.20,136.11 L 399.24,136.67 Z M 360.40,119.31 L 363.41,118.31 L 371.91,119.19 L 360.40,119.31 Z M 279.24,94.50 L 283.64,93.75 L 286.83,94.62 L 279.24,94.50 Z" fill="#4A90D9" stroke="#1a5fa8" stroke-width="1.2"/>
</svg>