<svg xmlns="http://www.w3.org/2000/svg" width="800" height="500" viewBox="0 0 800 500">
<rect width="800" height="500" fill="#A8C8E8"/>
<path d="M 487.67,97.86 L 462.41,98.67 L 445.87,104.60 L 437.09,103.09 L 428.15,104.33 L 407.46,100.37 L 381.52,103.77 L 383.75,110.00 L 368.21,123.18 L 354.20,126.00 L 339.07,154.88 L 316.19,163.85 L 303.12,176.04 L 279.41,183.26 L 270.83,197.97 L 265.92,217.64 L 249.18,228.82 L 250.00,231.57 L 244.27,237.80 L 235.27,239.28 L 191.55,237.80 L 151.76,239.79 L 155.55,227.06 L 164.31,218.49 L 174.12,215.95 L 181.35,202.94 L 186.52,200.62 L 184.48,198.10 L 202.48,180.83 L 202.38,177.74 L 193.40,184.39 L 195.66,181.16 L 238.32,157.98 L 241.44,142.43 L 253.92,127.32 L 255.87,120.92 L 292.86,107.10 L 308.79,83.80 L 317.73,77.74 L 354.14,73.74 L 377.67,67.85 L 394.94,57.22 L 414.93,51.30 L 428.23,43.61 L 452.48,23.00 L 454.25,16.09 L 442.94,10.02 L 446.03,5.57 L 445.48,0.00 L 698.67,0.00 L 701.77,2.36 L 697.49,5.32 L 698.06,8.45 L 668.36,13.50 L 635.51,26.72 L 620.66,38.03 L 613.24,38.03 L 611.81,35.77 L 590.67,36.64 L 569.83,39.95 L 554.97,38.38 L 546.69,41.51 L 534.27,41.69 L 492.83,58.24 L 492.23,84.39 L 486.73,84.39 L 487.67,97.86 Z" fill="#E8E0D0" stroke="#B8B0A0" stroke-width="0.5"/>
<path d="M 116.39,80.58 L 112.30,84.86 L 104.90,82.87 L 114.16,79.64 L 116.39,80.58 Z M 218.61,79.64 L 210.44,82.57 L 200.50,77.91 L 205.20,71.79 L 217.33,71.48 L 218.61,79.64 Z M 143.63,70.84 L 148.30,73.45 L 141.79,75.35 L 138.30,73.53 L 139.67,70.80 L 143.63,70.84 Z M 170.89,75.36 L 164.88,75.96 L 155.75,67.12 L 172.47,65.40 L 180.26,61.71 L 188.38,61.71 L 178.66,66.47 L 170.89,75.36 Z M 282.10,58.98 L 277.63,69.88 L 260.90,74.70 L 254.20,74.19 L 265.75,70.52 L 276.04,57.64 L 282.10,58.98 Z M 122.86,57.77 L 118.12,64.62 L 111.59,56.53 L 115.09,54.65 L 121.44,55.58 L 122.86,57.77 Z M 298.71,45.86 L 296.09,51.07 L 284.13,55.05 L 280.34,54.42 L 283.16,49.86 L 293.83,47.62 L 296.05,45.09 L 298.71,45.86 Z M 295.68,45.02 L 293.67,45.35 L 295.02,43.85 L 295.68,45.02 Z" fill="#E8E0D0" stroke="#B8B0A0" stroke-width="0.5"/>
<path d="M 247.76,498.34 L 246.92,497.65 L 240.56,500.00 L 240.37,500.00 L 237.38,498.51 L 237.00,500.00 L 233.41,500.00 L 245.86,486.84 L 253.63,486.46 L 263.08,482.58 L 274.30,483.37 L 280.23,480.71 L 285.96,481.56 L 286.20,474.26 L 276.04,470.56 L 281.46,467.43 L 287.38,467.04 L 286.02,457.57 L 312.66,458.50 L 313.66,462.57 L 319.34,460.98 L 341.90,466.72 L 352.40,464.19 L 377.83,463.67 L 381.64,464.76 L 376.77,469.56 L 383.84,473.68 L 389.70,473.97 L 395.38,469.29 L 399.47,468.87 L 409.31,477.06 L 417.47,471.39 L 427.47,468.91 L 449.70,473.70 L 453.58,470.10 L 465.48,467.61 L 466.61,465.42 L 462.39,462.99 L 468.38,462.00 L 480.23,465.15 L 479.48,468.73 L 487.51,476.20 L 485.49,482.85 L 490.42,483.06 L 493.28,486.87 L 504.78,490.08 L 491.48,499.77 L 497.25,499.94 L 499.45,497.92 L 506.77,498.64 L 506.95,500.00 L 244.34,500.00 L 247.76,498.34 Z" fill="#E8E0D0" stroke="#B8B0A0" stroke-width="0.5"/>
<path d="M 192.25,25.36 L 192.25,25.43 L 192.08,25.42 L 192.25,25.36 Z M 199.10,22.50 L 198.92,22.84 L 198.31,22.73 L 199.10,22.50 Z" fill="#E8E0D0" stroke="#B8B0A0" stroke-width="0.5"/>
<path d="M 731.09,499.28 L 730.78,500.00 L 623.46,500.00 L 622.10,497.42 L 629.12,496.20 L 633.79,488.72 L 630.98,480.33 L 625.86,478.60 L 639.06,474.85 L 652.47,474.17 L 660.67,470.61 L 663.63,466.35 L 666.98,466.68 L 665.12,463.49 L 667.75,461.04 L 663.75,456.54 L 673.05,456.38 L 674.92,453.94 L 670.21,445.24 L 673.98,445.06 L 684.49,436.99 L 686.93,438.20 L 684.74,439.80 L 706.07,445.23 L 706.11,442.82 L 714.28,442.14 L 712.71,432.06 L 721.68,434.33 L 728.72,433.21 L 729.86,424.52 L 740.89,419.00 L 746.44,417.54 L 759.10,420.65 L 763.84,420.02 L 765.43,412.82 L 777.69,412.18 L 800.00,405.58 L 800.00,499.12 L 731.09,499.28 Z" fill="#E8E0D0" stroke="#B8B0A0" stroke-width="0.5"/>
<path d="M 731.09,499.28 L 800.00,499.12 L 800.00,500.00 L 730.78,500.00 L 731.09,499.28 Z" fill="#E8E0D0" stroke="#B8B0A0" stroke-width="0.5"/>
<path d="M 287.38,467.04 L 281.46,467.43 L 276.04,470.56 L 286.20,474.26 L 285.96,481.56 L 280.23,480.71 L 274.30,483.37 L 263.08,482.58 L 253.63,486.46 L 245.86,486.84 L 231.69,500.00 L 231.07,500.00 L 234.02,493.83 L 224.65,499.36 L 225.61,493.41 L 224.51,496.18 L 219.42,495.64 L 216.64,492.10 L 223.10,488.45 L 220.03,489.81 L 219.61,487.69 L 213.33,490.32 L 214.71,486.92 L 224.24,484.86 L 222.57,483.67 L 229.32,483.85 L 229.02,485.65 L 233.76,484.00 L 227.03,482.81 L 228.71,481.60 L 224.74,482.83 L 224.80,480.43 L 216.13,485.36 L 216.63,481.96 L 214.60,482.94 L 211.52,480.98 L 216.13,477.18 L 226.32,477.54 L 230.38,475.82 L 231.22,479.22 L 236.67,480.48 L 231.19,477.80 L 233.76,474.87 L 225.27,476.58 L 216.63,475.30 L 200.12,480.60 L 204.05,477.86 L 201.54,477.18 L 194.87,480.93 L 198.69,475.02 L 204.61,475.14 L 204.89,473.94 L 198.75,473.60 L 188.10,477.18 L 178.68,472.16 L 190.61,465.59 L 174.49,470.05 L 163.42,466.05 L 184.10,463.00 L 206.39,463.39 L 226.08,457.42 L 286.02,457.57 L 287.38,467.04 Z M 198.19,497.40 L 194.08,498.03 L 196.22,496.98 L 195.38,494.24 L 198.19,497.40 Z M 194.23,496.34 L 192.49,497.52 L 190.86,495.16 L 194.23,496.34 Z M 187.80,498.51 L 183.05,496.62 L 189.10,494.05 L 191.19,496.28 L 187.80,498.51 Z M 200.31,491.94 L 198.45,494.24 L 197.42,493.04 L 200.31,491.94 Z M 207.15,493.41 L 202.45,494.92 L 203.24,492.36 L 207.15,491.69 L 207.15,493.41 Z M 182.91,493.81 L 181.68,493.19 L 184.75,491.51 L 186.12,493.73 L 182.91,493.81 Z M 206.28,488.26 L 204.02,488.03 L 205.73,486.73 L 206.28,488.26 Z M 180.84,487.94 L 186.43,486.39 L 184.45,488.26 L 180.84,487.94 Z M 176.05,487.07 L 175.77,486.05 L 183.05,484.69 L 181.93,486.89 L 176.05,487.07 Z M 195.66,484.17 L 197.36,487.94 L 191.75,488.77 L 189.77,487.58 L 195.66,484.17 Z M 214.78,485.13 L 208.30,486.06 L 212.45,483.67 L 214.78,485.13 Z M 191.68,476.84 L 193.78,477.13 L 191.50,480.43 L 186.43,477.54 L 191.68,476.84 Z" fill="#E8E0D0" stroke="#B8B0A0" stroke-width="0.5"/>
<path d="M 159.28,441.00 L 165.45,437.08 L 176.05,444.25 L 175.21,442.55 L 182.65,441.34 L 183.89,443.06 L 184.62,443.18 L 187.01,442.55 L 183.91,441.13 L 186.60,438.76 L 208.68,438.11 L 211.85,436.74 L 220.14,438.46 L 221.60,438.10 L 222.01,437.08 L 211.33,436.28 L 187.40,438.12 L 177.23,441.05 L 171.86,440.49 L 170.25,434.82 L 212.88,434.92 L 217.95,430.22 L 230.06,429.02 L 238.99,430.00 L 244.64,434.11 L 252.75,433.48 L 259.98,438.11 L 275.39,435.01 L 282.33,438.74 L 278.98,441.60 L 259.85,443.57 L 228.43,434.74 L 222.73,439.96 L 200.60,441.13 L 200.00,445.53 L 165.67,445.34 L 162.39,447.82 L 159.28,441.00 Z" fill="#E8E0D0" stroke="#B8B0A0" stroke-width="0.5"/>
<path d="M 492.23,93.75 L 492.38,58.71 L 535.66,41.36 L 546.69,41.51 L 554.97,38.38 L 569.83,39.95 L 584.96,36.99 L 611.81,35.77 L 613.24,38.03 L 620.66,38.03 L 635.51,26.72 L 668.36,13.50 L 698.06,8.45 L 697.49,5.32 L 701.77,2.36 L 698.67,0.00 L 800.00,0.00 L 800.00,210.40 L 650.00,150.78 L 492.23,93.75 Z" fill="#C8D8E8" stroke="#8BAABB" stroke-width="0.8"/>
<path d="M 353.77,406.25 L 363.99,402.13 L 362.96,395.18 L 367.81,386.16 L 372.39,386.16 L 376.09,383.62 L 400.98,397.07 L 408.74,388.85 L 435.62,390.56 L 461.93,388.67 L 460.79,384.99 L 464.68,382.26 L 464.98,387.30 L 621.83,387.33 L 628.27,366.97 L 617.24,361.60 L 577.61,150.80 L 650.00,150.78 L 800.00,210.40 L 800.00,405.58 L 777.69,412.18 L 765.43,412.82 L 763.84,420.02 L 759.10,420.65 L 746.44,417.54 L 740.89,419.00 L 729.86,424.52 L 728.72,433.21 L 721.68,434.33 L 712.71,432.06 L 714.28,442.14 L 706.11,442.82 L 706.07,445.23 L 684.74,439.80 L 686.93,438.20 L 684.34,437.01 L 669.23,446.49 L 674.92,453.94 L 673.05,456.38 L 663.75,456.54 L 667.75,461.04 L 665.12,463.49 L 666.98,466.68 L 663.63,466.35 L 660.67,470.61 L 652.47,474.17 L 639.06,474.85 L 625.86,478.60 L 630.98,480.33 L 633.79,488.72 L 629.12,496.20 L 622.10,497.42 L 623.46,500.00 L 506.91,500.00 L 506.77,498.64 L 499.45,497.92 L 497.25,499.94 L 495.66,500.00 L 491.87,500.00 L 504.78,490.08 L 493.28,486.87 L 490.42,483.06 L 485.49,482.85 L 486.61,474.02 L 482.43,473.20 L 480.23,465.15 L 473.23,462.74 L 462.98,462.55 L 466.61,465.42 L 465.48,467.61 L 453.58,470.10 L 449.70,473.70 L 427.47,468.91 L 417.47,471.39 L 409.31,477.06 L 399.47,468.87 L 395.38,469.29 L 389.70,473.97 L 383.84,473.68 L 376.77,469.56 L 381.64,464.76 L 382.08,462.38 L 378.40,460.80 L 381.63,450.17 L 375.73,446.65 L 372.46,440.45 L 367.23,439.28 L 363.67,441.78 L 352.66,431.90 L 358.17,428.78 L 356.75,420.40 L 347.59,414.79 L 349.91,408.55 L 345.86,405.24 L 353.77,406.25 Z" fill="#C8D8E8" stroke="#8BAABB" stroke-width="0.8"/>
<path d="M 349.91,408.55 L 347.59,414.79 L 356.75,420.40 L 358.17,428.78 L 352.66,431.90 L 363.67,441.78 L 367.23,439.28 L 372.46,440.45 L 375.73,446.65 L 381.44,449.91 L 378.40,460.80 L 381.64,464.28 L 352.40,464.19 L 341.90,466.72 L 319.34,460.98 L 313.66,462.57 L 312.04,458.44 L 226.08,457.42 L 206.39,463.39 L 184.10,463.00 L 163.42,466.05 L 160.47,462.02 L 169.50,458.58 L 171.40,460.26 L 178.03,460.63 L 191.97,458.57 L 199.73,460.46 L 204.24,459.60 L 207.71,460.96 L 213.22,458.50 L 212.20,454.84 L 217.43,454.42 L 218.05,453.46 L 211.60,454.55 L 211.89,458.16 L 207.86,460.40 L 202.68,458.76 L 196.73,459.36 L 192.29,456.18 L 190.05,458.42 L 178.03,460.28 L 172.70,456.71 L 172.42,458.76 L 167.25,457.67 L 169.05,455.36 L 168.80,454.48 L 166.74,458.59 L 162.35,460.08 L 161.43,457.45 L 164.63,456.00 L 160.65,456.52 L 160.38,454.06 L 164.24,445.53 L 200.00,445.53 L 200.60,441.13 L 222.73,439.96 L 228.43,434.74 L 259.85,443.57 L 278.98,441.60 L 282.33,438.74 L 275.39,435.01 L 259.98,438.11 L 252.75,433.48 L 244.64,434.11 L 238.99,430.00 L 230.94,429.04 L 217.95,430.22 L 212.88,434.92 L 170.25,434.82 L 172.39,431.00 L 168.72,433.15 L 167.45,430.50 L 170.45,428.38 L 173.29,429.40 L 173.29,424.47 L 164.58,430.29 L 162.67,425.75 L 169.63,424.81 L 169.05,423.45 L 178.28,420.36 L 174.03,419.71 L 166.46,424.47 L 163.72,424.13 L 166.54,422.06 L 163.44,422.92 L 161.52,428.55 L 161.07,423.05 L 154.10,414.82 L 143.17,407.35 L 135.27,406.17 L 134.35,408.26 L 130.42,405.68 L 145.26,402.11 L 157.30,393.83 L 171.36,380.11 L 174.15,370.40 L 181.13,362.02 L 187.78,360.93 L 206.59,362.75 L 215.09,360.26 L 228.94,360.23 L 229.66,358.17 L 235.11,357.52 L 258.30,358.29 L 275.83,366.32 L 281.63,371.74 L 285.98,370.02 L 288.45,372.11 L 295.97,370.88 L 302.88,376.47 L 306.07,384.11 L 311.30,384.79 L 312.36,387.37 L 317.24,386.96 L 322.81,392.57 L 320.35,393.39 L 336.84,399.21 L 349.91,408.55 Z" fill="#C8D8E8" stroke="#8BAABB" stroke-width="0.8"/>
<path d="M 492.23,84.39 L 492.01,125.75 L 356.03,125.88 L 355.86,188.97 L 331.34,193.71 L 315.16,200.00 L 309.56,204.93 L 315.16,241.94 L 154.01,241.96 L 150.00,256.05 L 148.05,253.67 L 151.76,239.79 L 191.55,237.80 L 235.27,239.28 L 244.27,237.80 L 250.00,231.57 L 249.18,228.82 L 265.92,217.64 L 270.83,197.97 L 279.41,183.26 L 303.12,176.04 L 316.19,163.85 L 339.07,154.88 L 354.20,126.00 L 368.21,123.18 L 383.75,110.00 L 381.52,103.77 L 407.46,100.37 L 428.15,104.33 L 437.09,103.09 L 445.87,104.60 L 462.41,98.67 L 487.67,97.86 L 486.73,84.39 L 492.23,84.39 Z" fill="#C8D8E8" stroke="#8BAABB" stroke-width="0.8"/>
<path d="M 650.00,150.78 L 577.61,150.80 L 617.24,361.60 L 628.27,366.97 L 621.83,387.33 L 464.98,387.30 L 464.68,382.26 L 460.79,384.99 L 461.93,388.67 L 435.62,390.56 L 408.74,388.85 L 400.98,397.07 L 376.09,383.62 L 372.39,386.16 L 367.81,386.16 L 362.96,395.18 L 363.99,402.13 L 353.77,406.25 L 341.02,403.47 L 336.84,399.21 L 320.35,393.39 L 322.81,392.57 L 317.24,386.96 L 312.36,387.37 L 311.30,384.79 L 306.07,384.11 L 302.88,376.47 L 295.97,370.88 L 288.45,372.11 L 285.98,370.02 L 281.63,371.74 L 275.83,366.32 L 258.30,358.29 L 235.11,357.52 L 229.66,358.17 L 228.94,360.23 L 215.09,360.26 L 206.59,362.75 L 182.00,361.71 L 174.44,369.90 L 171.03,379.50 L 171.56,366.45 L 189.96,336.27 L 191.75,321.42 L 184.83,300.47 L 171.31,290.56 L 178.51,289.69 L 181.55,286.87 L 177.19,288.49 L 178.29,286.62 L 174.18,289.77 L 183.64,280.28 L 183.05,277.56 L 180.39,277.89 L 184.10,275.06 L 182.52,271.77 L 184.92,269.34 L 174.10,258.97 L 176.49,258.34 L 171.56,256.75 L 171.03,261.18 L 165.70,258.27 L 155.69,246.28 L 150.00,256.05 L 153.62,242.16 L 315.16,241.94 L 309.56,204.93 L 315.16,200.00 L 331.34,193.71 L 355.86,188.97 L 356.03,125.88 L 492.01,125.75 L 492.23,93.75 L 650.00,150.78 Z M 179.05,278.42 L 175.52,285.07 L 174.23,283.00 L 179.05,278.42 Z M 180.86,282.05 L 176.94,285.11 L 178.54,283.18 L 180.86,282.05 Z M 173.92,282.62 L 173.40,283.17 L 172.88,282.48 L 173.92,282.62 Z M 174.95,260.02 L 174.63,260.93 L 173.81,260.35 L 174.95,260.02 Z" fill="#4A90D9" stroke="#1a5fa8" stroke-width="1.2"/>
<path d="M 674.49,394.10 L 676.48,391.48 L 672.51,390.84 L 671.16,387.02 L 683.76,391.68 L 674.49,394.10 Z" fill="#A8C8E8" stroke="none"/>
</svg>