<svg xmlns="http://www.w3.org/2000/svg" width="800" height="500" viewBox="0 0 800 500">
<rect width="800" height="500" fill="#A8C8E8"/>
<path d="M 449.86,97.86 L 435.50,98.67 L 426.09,104.60 L 421.09,103.09 L 416.01,104.33 L 404.24,100.37 L 389.49,103.77 L 390.76,110.00 L 381.92,123.18 L 373.95,126.00 L 365.35,154.88 L 352.33,163.85 L 344.90,176.04 L 331.41,183.26 L 326.53,197.97 L 323.74,217.64 L 314.22,228.82 L 314.68,231.57 L 311.43,237.80 L 306.31,239.28 L 281.44,237.80 L 258.81,239.79 L 260.97,227.06 L 265.94,218.49 L 271.53,215.95 L 275.64,202.94 L 278.58,200.62 L 277.42,198.10 L 287.66,180.83 L 287.60,177.74 L 282.49,184.39 L 283.78,181.16 L 308.04,157.98 L 309.82,142.43 L 316.91,127.32 L 318.02,120.92 L 339.06,107.10 L 348.12,83.80 L 353.21,77.74 L 373.92,73.74 L 387.30,67.85 L 397.12,57.22 L 408.49,51.30 L 416.06,43.61 L 429.85,23.00 L 430.86,16.09 L 424.42,10.02 L 426.18,5.57 L 425.87,0.00 L 569.87,0.00 L 571.64,2.36 L 569.20,5.32 L 569.53,8.45 L 552.63,13.50 L 533.95,26.72 L 525.51,38.03 L 521.28,38.03 L 520.47,35.77 L 508.45,36.64 L 496.59,39.95 L 488.15,38.38 L 483.43,41.51 L 476.37,41.69 L 452.80,58.24 L 452.46,84.39 L 449.33,84.39 L 449.86,97.86 Z" fill="#E8E0D0" stroke="#B8B0A0" stroke-width="0.5"/>
<path d="M 238.69,80.58 L 236.36,84.86 L 232.16,82.87 L 237.42,79.64 L 238.69,80.58 Z M 296.83,79.64 L 292.18,82.57 L 286.53,77.91 L 289.20,71.79 L 296.10,71.48 L 296.83,79.64 Z M 254.18,70.84 L 256.84,73.45 L 253.14,75.35 L 251.15,73.53 L 251.93,70.80 L 254.18,70.84 Z M 269.69,75.36 L 266.27,75.96 L 261.08,67.12 L 270.58,65.40 L 275.02,61.71 L 279.64,61.71 L 274.11,66.47 L 269.69,75.36 Z M 332.94,58.98 L 330.40,69.88 L 320.88,74.70 L 317.07,74.19 L 323.64,70.52 L 329.49,57.64 L 332.94,58.98 Z M 242.37,57.77 L 239.67,64.62 L 235.96,56.53 L 237.95,54.65 L 241.56,55.58 L 242.37,57.77 Z M 342.39,45.86 L 340.90,51.07 L 334.10,55.05 L 331.94,54.42 L 333.54,49.86 L 339.61,47.62 L 340.88,45.09 L 342.39,45.86 Z M 340.67,45.02 L 339.52,45.35 L 340.29,43.85 L 340.67,45.02 Z" fill="#E8E0D0" stroke="#B8B0A0" stroke-width="0.5"/>
<path d="M 313.41,498.34 L 312.93,497.65 L 309.32,500.00 L 309.21,500.00 L 307.51,498.51 L 307.29,500.00 L 305.25,500.00 L 312.33,486.84 L 316.75,486.46 L 322.13,482.58 L 328.51,483.37 L 331.88,480.71 L 335.14,481.56 L 335.28,474.26 L 329.50,470.56 L 332.58,467.43 L 335.95,467.04 L 335.17,457.57 L 350.32,458.50 L 350.89,462.57 L 354.12,460.98 L 366.96,466.72 L 372.93,464.19 L 387.39,463.67 L 389.55,464.76 L 386.79,469.56 L 390.81,473.68 L 394.14,473.97 L 397.37,469.29 L 399.70,468.87 L 405.30,477.06 L 409.94,471.39 L 415.63,468.91 L 428.27,473.70 L 430.47,470.10 L 437.25,467.61 L 437.89,465.42 L 435.48,462.99 L 438.89,462.00 L 445.63,465.15 L 445.21,468.73 L 449.77,476.20 L 448.62,482.85 L 451.43,483.06 L 453.05,486.87 L 459.59,490.08 L 452.03,499.77 L 455.31,499.94 L 456.56,497.92 L 460.73,498.64 L 460.83,500.00 L 311.47,500.00 L 313.41,498.34 Z" fill="#E8E0D0" stroke="#B8B0A0" stroke-width="0.5"/>
<path d="M 281.84,25.36 L 281.84,25.43 L 281.74,25.42 L 281.84,25.36 Z M 285.73,22.50 L 285.63,22.84 L 285.28,22.73 L 285.73,22.50 Z" fill="#E8E0D0" stroke="#B8B0A0" stroke-width="0.5"/>
<path d="M 588.31,499.28 L 588.14,500.00 L 527.10,500.00 L 526.33,497.42 L 530.32,496.20 L 532.97,488.72 L 531.37,480.33 L 528.46,478.60 L 535.97,474.85 L 543.59,474.17 L 548.26,470.61 L 549.94,466.35 L 551.85,466.68 L 550.79,463.49 L 552.29,461.04 L 550.01,456.54 L 555.30,456.38 L 556.36,453.94 L 553.69,445.24 L 555.83,445.06 L 561.81,436.99 L 563.20,438.20 L 561.95,439.80 L 574.09,445.23 L 574.11,442.82 L 578.75,442.14 L 577.86,432.06 L 582.96,434.33 L 586.97,433.21 L 587.62,424.52 L 593.89,419.00 L 597.04,417.54 L 604.25,420.65 L 606.94,420.02 L 607.84,412.82 L 614.82,412.18 L 627.51,405.58 L 627.51,499.12 L 588.31,499.28 Z" fill="#E8E0D0" stroke="#B8B0A0" stroke-width="0.5"/>
<path d="M 588.31,499.28 L 627.51,499.12 L 627.51,500.00 L 588.14,500.00 L 588.31,499.28 Z" fill="#E8E0D0" stroke="#B8B0A0" stroke-width="0.5"/>
<path d="M 335.95,467.04 L 332.58,467.43 L 329.50,470.56 L 335.28,474.26 L 335.14,481.56 L 331.88,480.71 L 328.51,483.37 L 322.13,482.58 L 316.75,486.46 L 312.33,486.84 L 304.27,500.00 L 303.92,500.00 L 305.59,493.83 L 300.27,499.36 L 300.81,493.41 L 300.19,496.18 L 297.29,495.64 L 295.71,492.10 L 299.38,488.45 L 297.64,489.81 L 297.40,487.69 L 293.83,490.32 L 294.61,486.92 L 300.03,484.86 L 299.08,483.67 L 302.92,483.85 L 302.75,485.65 L 305.45,484.00 L 301.62,482.81 L 302.57,481.60 L 300.32,482.83 L 300.35,480.43 L 295.42,485.36 L 295.71,481.96 L 294.55,482.94 L 292.80,480.98 L 295.42,477.18 L 301.22,477.54 L 303.53,475.82 L 304.00,479.22 L 307.11,480.48 L 303.98,477.80 L 305.45,474.87 L 300.62,476.58 L 295.71,475.30 L 286.31,480.60 L 288.55,477.86 L 287.12,477.18 L 283.33,480.93 L 285.50,475.02 L 288.87,475.14 L 289.03,473.94 L 285.54,473.60 L 279.48,477.18 L 274.12,472.16 L 280.90,465.59 L 271.74,470.05 L 265.44,466.05 L 277.20,463.00 L 289.88,463.39 L 301.08,457.42 L 335.17,457.57 L 335.95,467.04 Z M 285.22,497.40 L 282.88,498.03 L 284.09,496.98 L 283.62,494.24 L 285.22,497.40 Z M 282.97,496.34 L 281.98,497.52 L 281.05,495.16 L 282.97,496.34 Z M 279.30,498.51 L 276.61,496.62 L 280.05,494.05 L 281.24,496.28 L 279.30,498.51 Z M 286.42,491.94 L 285.36,494.24 L 284.78,493.04 L 286.42,491.94 Z M 290.31,493.41 L 287.64,494.92 L 288.09,492.36 L 290.31,491.69 L 290.31,493.41 Z M 276.53,493.81 L 275.83,493.19 L 277.57,491.51 L 278.35,493.73 L 276.53,493.81 Z M 289.82,488.26 L 288.53,488.03 L 289.50,486.73 L 289.82,488.26 Z M 275.35,487.94 L 278.53,486.39 L 277.40,488.26 L 275.35,487.94 Z M 272.62,487.07 L 272.46,486.05 L 276.61,484.69 L 275.97,486.89 L 272.62,487.07 Z M 283.78,484.17 L 284.74,487.94 L 281.55,488.77 L 280.43,487.58 L 283.78,484.17 Z M 294.65,485.13 L 290.97,486.06 L 293.33,483.67 L 294.65,485.13 Z M 281.51,476.84 L 282.71,477.13 L 281.41,480.43 L 278.53,477.54 L 281.51,476.84 Z" fill="#E8E0D0" stroke="#B8B0A0" stroke-width="0.5"/>
<path d="M 263.09,441.00 L 266.59,437.08 L 272.62,444.25 L 272.15,442.55 L 276.38,441.34 L 277.08,443.06 L 277.50,443.18 L 278.86,442.55 L 277.09,441.13 L 278.63,438.76 L 291.19,438.11 L 292.98,436.74 L 297.70,438.46 L 298.53,438.10 L 298.76,437.08 L 292.69,436.28 L 279.08,438.12 L 273.30,441.05 L 270.24,440.49 L 269.32,434.82 L 293.57,434.92 L 296.46,430.22 L 303.34,429.02 L 308.42,430.00 L 311.64,434.11 L 316.25,433.48 L 320.36,438.11 L 329.13,435.01 L 333.07,438.74 L 331.17,441.60 L 320.29,443.57 L 302.42,434.74 L 299.18,439.96 L 286.59,441.13 L 286.25,445.53 L 266.72,445.34 L 264.86,447.82 L 263.09,441.00 Z" fill="#E8E0D0" stroke="#B8B0A0" stroke-width="0.5"/>
<path d="M 452.46,93.75 L 452.54,58.71 L 477.16,41.36 L 483.43,41.51 L 488.15,38.38 L 496.59,39.95 L 505.20,36.99 L 520.47,35.77 L 521.28,38.03 L 525.51,38.03 L 533.95,26.72 L 552.63,13.50 L 569.53,8.45 L 569.20,5.32 L 571.64,2.36 L 569.87,0.00 L 627.51,0.00 L 627.51,210.40 L 542.19,150.78 L 452.46,93.75 Z" fill="#C8D8E8" stroke="#8BAABB" stroke-width="0.8"/>
<path d="M 373.71,406.25 L 379.52,402.13 L 378.93,395.18 L 381.69,386.16 L 384.30,386.16 L 386.40,383.62 L 400.56,397.07 L 404.97,388.85 L 420.26,390.56 L 435.22,388.67 L 434.58,384.99 L 436.79,382.26 L 436.96,387.30 L 526.17,387.33 L 529.83,366.97 L 523.56,361.60 L 501.02,150.80 L 542.19,150.78 L 627.51,210.40 L 627.51,405.58 L 614.82,412.18 L 607.84,412.82 L 606.94,420.02 L 604.25,420.65 L 597.04,417.54 L 593.89,419.00 L 587.62,424.52 L 586.97,433.21 L 582.96,434.33 L 577.86,432.06 L 578.75,442.14 L 574.11,442.82 L 574.09,445.23 L 561.95,439.80 L 563.20,438.20 L 561.73,437.01 L 553.13,446.49 L 556.36,453.94 L 555.30,456.38 L 550.01,456.54 L 552.29,461.04 L 550.79,463.49 L 551.85,466.68 L 549.94,466.35 L 548.26,470.61 L 543.59,474.17 L 535.97,474.85 L 528.46,478.60 L 531.37,480.33 L 532.97,488.72 L 530.32,496.20 L 526.33,497.42 L 527.10,500.00 L 460.81,500.00 L 460.73,498.64 L 456.56,497.92 L 455.31,499.94 L 454.41,500.00 L 452.25,500.00 L 459.59,490.08 L 453.05,486.87 L 451.43,483.06 L 448.62,482.85 L 449.26,474.02 L 446.88,473.20 L 445.63,465.15 L 441.65,462.74 L 435.82,462.55 L 437.89,465.42 L 437.25,467.61 L 430.47,470.10 L 428.27,473.70 L 415.63,468.91 L 409.94,471.39 L 405.30,477.06 L 399.70,468.87 L 397.37,469.29 L 394.14,473.97 L 390.81,473.68 L 386.79,469.56 L 389.55,464.76 L 389.81,462.38 L 387.71,460.80 L 389.55,450.17 L 386.20,446.65 L 384.34,440.45 L 381.36,439.28 L 379.34,441.78 L 373.08,431.90 L 376.21,428.78 L 375.40,420.40 L 370.19,414.79 L 371.51,408.55 L 369.21,405.24 L 373.71,406.25 Z" fill="#C8D8E8" stroke="#8BAABB" stroke-width="0.8"/>
<path d="M 371.51,408.55 L 370.19,414.79 L 375.40,420.40 L 376.21,428.78 L 373.08,431.90 L 379.34,441.78 L 381.36,439.28 L 384.34,440.45 L 386.20,446.65 L 389.44,449.91 L 387.71,460.80 L 389.56,464.28 L 372.93,464.19 L 366.96,466.72 L 354.12,460.98 L 350.89,462.57 L 349.97,458.44 L 301.08,457.42 L 289.88,463.39 L 277.20,463.00 L 265.44,466.05 L 263.76,462.02 L 268.90,458.58 L 269.98,460.26 L 273.75,460.63 L 281.68,458.57 L 286.09,460.46 L 288.66,459.60 L 290.63,460.96 L 293.77,458.50 L 293.18,454.84 L 296.16,454.42 L 296.51,453.46 L 292.84,454.55 L 293.01,458.16 L 290.72,460.40 L 287.77,458.76 L 284.39,459.36 L 281.86,456.18 L 280.59,458.42 L 273.75,460.28 L 270.72,456.71 L 270.56,458.76 L 267.62,457.67 L 268.64,455.36 L 268.50,454.48 L 267.33,458.59 L 264.83,460.08 L 264.31,457.45 L 266.13,456.00 L 263.87,456.52 L 263.71,454.06 L 265.91,445.53 L 286.25,445.53 L 286.59,441.13 L 299.18,439.96 L 302.42,434.74 L 320.29,443.57 L 331.17,441.60 L 333.07,438.74 L 329.13,435.01 L 320.36,438.11 L 316.25,433.48 L 311.64,434.11 L 308.42,430.00 L 303.84,429.04 L 296.46,430.22 L 293.57,434.92 L 269.32,434.82 L 270.54,431.00 L 268.45,433.15 L 267.74,430.50 L 269.44,428.38 L 271.05,429.40 L 271.05,424.47 L 266.10,430.29 L 265.01,425.75 L 268.97,424.81 L 268.64,423.45 L 273.89,420.36 L 271.48,419.71 L 267.17,424.47 L 265.61,424.13 L 267.21,422.06 L 265.45,422.92 L 264.36,428.55 L 264.10,423.05 L 260.14,414.82 L 253.92,407.35 L 249.43,406.17 L 248.91,408.26 L 246.67,405.68 L 255.11,402.11 L 261.96,393.83 L 269.95,380.11 L 271.54,370.40 L 275.51,362.02 L 279.30,360.93 L 289.99,362.75 L 294.83,360.26 L 302.71,360.23 L 303.12,358.17 L 306.21,357.52 L 319.41,358.29 L 329.37,366.32 L 332.68,371.74 L 335.15,370.02 L 336.55,372.11 L 340.83,370.88 L 344.76,376.47 L 346.57,384.11 L 349.55,384.79 L 350.15,387.37 L 352.93,386.96 L 356.10,392.57 L 354.70,393.39 L 364.07,399.21 L 371.51,408.55 Z" fill="#C8D8E8" stroke="#8BAABB" stroke-width="0.8"/>
<path d="M 452.46,84.39 L 452.33,125.75 L 374.99,125.88 L 374.90,188.97 L 360.95,193.71 L 351.75,200.00 L 348.56,204.93 L 351.75,241.94 L 260.09,241.96 L 257.81,256.05 L 256.70,253.67 L 258.81,239.79 L 281.44,237.80 L 306.31,239.28 L 311.43,237.80 L 314.68,231.57 L 314.22,228.82 L 323.74,217.64 L 326.53,197.97 L 331.41,183.26 L 344.90,176.04 L 352.33,163.85 L 365.35,154.88 L 373.95,126.00 L 381.92,123.18 L 390.76,110.00 L 389.49,103.77 L 404.24,100.37 L 416.01,104.33 L 421.09,103.09 L 426.09,104.60 L 435.50,98.67 L 449.86,97.86 L 449.33,84.39 L 452.46,84.39 Z" fill="#C8D8E8" stroke="#8BAABB" stroke-width="0.8"/>
<path d="M 542.19,150.78 L 501.02,150.80 L 523.56,361.60 L 529.83,366.97 L 526.17,387.33 L 436.96,387.30 L 436.79,382.26 L 434.58,384.99 L 435.22,388.67 L 420.26,390.56 L 404.97,388.85 L 400.56,397.07 L 386.40,383.62 L 384.30,386.16 L 381.69,386.16 L 378.93,395.18 L 379.52,402.13 L 373.71,406.25 L 366.45,403.47 L 364.07,399.21 L 354.70,393.39 L 356.10,392.57 L 352.93,386.96 L 350.15,387.37 L 349.55,384.79 L 346.57,384.11 L 344.76,376.47 L 340.83,370.88 L 336.55,372.11 L 335.15,370.02 L 332.68,371.74 L 329.37,366.32 L 319.41,358.29 L 306.21,357.52 L 303.12,358.17 L 302.71,360.23 L 294.83,360.26 L 289.99,362.75 L 276.01,361.71 L 271.71,369.90 L 269.77,379.50 L 270.07,366.45 L 280.54,336.27 L 281.55,321.42 L 277.62,300.47 L 269.93,290.56 L 274.02,289.69 L 275.75,286.87 L 273.27,288.49 L 273.90,286.62 L 271.56,289.77 L 276.94,280.28 L 276.61,277.56 L 275.09,277.89 L 277.20,275.06 L 276.30,271.77 L 277.67,269.34 L 271.51,258.97 L 272.87,258.34 L 270.07,256.75 L 269.77,261.18 L 266.74,258.27 L 261.04,246.28 L 257.81,256.05 L 259.87,242.16 L 351.75,241.94 L 348.56,204.93 L 351.75,200.00 L 360.95,193.71 L 374.90,188.97 L 374.99,125.88 L 452.33,125.75 L 452.46,93.75 L 542.19,150.78 Z M 274.33,278.42 L 272.32,285.07 L 271.59,283.00 L 274.33,278.42 Z M 275.36,282.05 L 273.13,285.11 L 274.04,283.18 L 275.36,282.05 Z M 271.41,282.62 L 271.12,283.17 L 270.82,282.48 L 271.41,282.62 Z M 272.00,260.02 L 271.82,260.93 L 271.35,260.35 L 272.00,260.02 Z" fill="#4A90D9" stroke="#1a5fa8" stroke-width="1.2"/>
<path d="M 556.12,394.10 L 557.25,391.48 L 555.00,390.84 L 554.23,387.02 L 561.40,391.68 L 556.12,394.10 Z" fill="#A8C8E8" stroke="none"/>
</svg>