<svg xmlns="http://www.w3.org/2000/svg" width="800" height="500" viewBox="0 0 800 500">
<rect width="800" height="500" fill="#A8C8E8"/>
<path d="M 630.47,387.54 L 616.19,378.45 L 632.12,366.37 L 650.69,378.43 L 630.47,387.54 Z M 682.04,320.59 L 676.29,320.10 L 689.41,313.99 L 682.04,320.59 Z M 557.69,362.58 L 525.46,375.76 L 499.85,319.03 L 514.73,310.74 L 561.28,323.20 L 557.69,362.58 Z M 583.56,287.64 L 607.76,313.31 L 658.30,328.28 L 583.65,336.20 L 563.15,323.22 L 583.56,287.64 Z M 545.17,389.68 L 542.30,391.72 L 539.61,390.75 L 545.17,389.68 Z M 553.65,389.41 L 550.27,389.24 L 554.21,386.44 L 553.65,389.41 Z" fill="#E8E0D0" stroke="#B8B0A0" stroke-width="0.5"/>
<path d="M 172.44,44.85 L 162.48,44.33 L 194.78,36.23 L 194.80,50.10 L 172.44,44.85 Z" fill="#E8E0D0" stroke="#B8B0A0" stroke-width="0.5"/>
<path d="M 177.72,46.17 L 194.80,50.10 L 174.78,49.70 L 177.72,46.17 Z" fill="#E8E0D0" stroke="#B8B0A0" stroke-width="0.5"/>
<path d="M 212.93,135.72 L 209.51,138.98 L 203.92,138.48 L 199.91,129.44 L 212.93,135.72 Z M 143.27,113.25 L 139.59,115.52 L 136.36,114.10 L 143.27,113.25 Z" fill="#E8E0D0" stroke="#B8B0A0" stroke-width="0.5"/>
<path d="M 38.29,414.60 L 40.54,414.60 L 40.32,415.62 L 38.29,414.60 Z" fill="#E8E0D0" stroke="#B8B0A0" stroke-width="0.5"/>
<path d="M 576.96,440.36 L 581.95,425.02 L 622.27,433.56 L 634.77,450.22 L 635.03,479.48 L 608.48,492.53 L 576.96,440.36 Z" fill="#E8E0D0" stroke="#B8B0A0" stroke-width="0.5"/>
<path d="M 492.88,185.19 L 532.29,199.16 L 514.91,213.25 L 478.29,203.91 L 492.88,185.19 Z M 480.73,103.57 L 491.33,115.65 L 489.74,97.86 L 517.25,119.62 L 489.46,118.86 L 480.73,103.57 Z M 363.43,221.71 L 362.43,222.19 L 362.13,221.93 L 363.43,221.71 Z" fill="#E8E0D0" stroke="#B8B0A0" stroke-width="0.5"/>
<path d="M 312.57,182.85 L 312.29,195.21 L 296.15,195.29 L 299.38,179.85 L 312.57,182.85 Z M 287.43,177.63 L 235.91,149.89 L 269.20,155.54 L 287.43,177.63 Z" fill="#E8E0D0" stroke="#B8B0A0" stroke-width="0.5"/>
<path d="M 232.66,66.39 L 251.28,68.52 L 246.66,72.15 L 232.66,66.39 Z" fill="#E8E0D0" stroke="#B8B0A0" stroke-width="0.5"/>
<path d="M 199.05,19.79 L 157.23,28.86 L 189.64,13.48 L 199.05,19.79 Z M 212.28,8.87 L 217.77,10.05 L 210.02,12.45 L 212.28,8.87 Z M 133.53,11.25 L 140.18,11.10 L 136.18,12.66 L 133.53,11.25 Z M 154.32,13.67 L 151.14,13.31 L 151.67,13.25 L 154.32,13.67 Z M 156.92,13.85 L 157.11,14.40 L 155.67,14.37 L 156.92,13.85 Z" fill="#E8E0D0" stroke="#B8B0A0" stroke-width="0.5"/>
<path d="M 394.48,260.20 L 398.69,239.80 L 405.52,240.76 L 394.48,260.20 Z" fill="#4A90D9" stroke="#1a5fa8" stroke-width="1.2"/>
</svg>