<svg xmlns="http://www.w3.org/2000/svg" width="800" height="500" viewBox="0 0 800 500">
<rect width="800" height="500" fill="#A8C8E8"/>
<path d="M 537.93,387.54 L 529.38,378.45 L 538.91,366.37 L 550.03,378.43 L 537.93,387.54 Z M 568.79,320.59 L 565.35,320.10 L 573.20,313.99 L 568.79,320.59 Z M 494.38,362.58 L 475.08,375.76 L 459.76,319.03 L 468.66,310.74 L 496.52,323.20 L 494.38,362.58 Z M 509.86,287.64 L 524.34,313.31 L 554.59,328.28 L 509.91,336.20 L 497.64,323.22 L 509.86,287.64 Z M 486.88,389.68 L 485.16,391.72 L 483.55,390.75 L 486.88,389.68 Z M 491.95,389.41 L 489.93,389.24 L 492.29,386.44 L 491.95,389.41 Z" fill="#E8E0D0" stroke="#B8B0A0" stroke-width="0.5"/>
<path d="M 263.81,44.85 L 257.85,44.33 L 277.18,36.23 L 277.19,50.10 L 263.81,44.85 Z" fill="#E8E0D0" stroke="#B8B0A0" stroke-width="0.5"/>
<path d="M 266.97,46.17 L 277.19,50.10 L 265.21,49.70 L 266.97,46.17 Z" fill="#E8E0D0" stroke="#B8B0A0" stroke-width="0.5"/>
<path d="M 288.04,135.72 L 286.00,138.98 L 282.65,138.48 L 280.25,129.44 L 288.04,135.72 Z M 246.35,113.25 L 244.15,115.52 L 242.22,114.10 L 246.35,113.25 Z" fill="#E8E0D0" stroke="#B8B0A0" stroke-width="0.5"/>
<path d="M 183.52,414.60 L 184.88,414.60 L 184.74,415.62 L 183.52,414.60 Z" fill="#E8E0D0" stroke="#B8B0A0" stroke-width="0.5"/>
<path d="M 505.91,440.36 L 508.89,425.02 L 533.02,433.56 L 540.50,450.22 L 540.66,479.48 L 524.77,492.53 L 505.91,440.36 Z" fill="#E8E0D0" stroke="#B8B0A0" stroke-width="0.5"/>
<path d="M 455.58,185.19 L 479.17,199.16 L 468.77,213.25 L 446.85,203.91 L 455.58,185.19 Z M 448.31,103.57 L 454.66,115.65 L 453.71,97.86 L 470.17,119.62 L 453.54,118.86 L 448.31,103.57 Z M 378.11,221.71 L 377.51,222.19 L 377.33,221.93 L 378.11,221.71 Z" fill="#E8E0D0" stroke="#B8B0A0" stroke-width="0.5"/>
<path d="M 347.67,182.85 L 347.51,195.21 L 337.85,195.29 L 339.78,179.85 L 347.67,182.85 Z M 332.63,177.63 L 301.80,149.89 L 321.72,155.54 L 332.63,177.63 Z" fill="#E8E0D0" stroke="#B8B0A0" stroke-width="0.5"/>
<path d="M 299.85,66.39 L 310.99,68.52 L 308.23,72.15 L 299.85,66.39 Z" fill="#E8E0D0" stroke="#B8B0A0" stroke-width="0.5"/>
<path d="M 279.74,19.79 L 254.71,28.86 L 274.11,13.48 L 279.74,19.79 Z M 287.65,8.87 L 290.94,10.05 L 286.30,12.45 L 287.65,8.87 Z M 240.53,11.25 L 244.51,11.10 L 242.11,12.66 L 240.53,11.25 Z M 252.97,13.67 L 251.06,13.31 L 251.38,13.25 L 252.97,13.67 Z M 254.52,13.85 L 254.64,14.40 L 253.77,14.37 L 254.52,13.85 Z" fill="#E8E0D0" stroke="#B8B0A0" stroke-width="0.5"/>
<path d="M 396.69,260.20 L 399.21,239.80 L 403.31,240.76 L 396.69,260.20 Z" fill="#4A90D9" stroke="#1a5fa8" stroke-width="1.2"/>
</svg>