<svg xmlns="http://www.w3.org/2000/svg" width="800" height="500" viewBox="0 0 800 500">
<rect width="800" height="500" fill="#A8C8E8"/>
<path d="M 277.27,426.20 L 276.01,431.89 L 269.00,432.67 L 262.33,429.71 L 258.66,422.29 L 260.49,418.67 L 269.10,417.54 L 277.27,426.20 Z" fill="#E8E0D0" stroke="#B8B0A0" stroke-width="0.5"/>
<path d="M 237.82,264.41 L 237.83,264.69 L 237.63,264.55 L 237.82,264.41 Z" fill="#E8E0D0" stroke="#B8B0A0" stroke-width="0.5"/>
<path d="M 331.05,405.41 L 322.34,406.25 L 320.27,404.32 L 323.00,396.85 L 328.81,390.16 L 331.27,390.69 L 334.70,397.53 L 331.05,405.41 Z M 297.42,93.75 L 298.42,96.28 L 297.25,94.64 L 297.42,93.75 Z M 499.50,383.55 L 498.49,382.60 L 500.18,381.02 L 502.75,380.80 L 499.50,383.55 Z" fill="#4A90D9" stroke="#1a5fa8" stroke-width="1.2"/>
</svg>