<svg xmlns="http://www.w3.org/2000/svg" width="800" height="500" viewBox="0 0 800 500">
<rect width="800" height="500" fill="#A8C8E8"/>
<path d="M 101.39,426.20 L 98.34,431.89 L 81.28,432.67 L 65.05,429.71 L 56.11,422.29 L 60.58,418.67 L 81.52,417.54 L 101.39,426.20 Z" fill="#E8E0D0" stroke="#B8B0A0" stroke-width="0.5"/>
<path d="M 5.40,264.41 L 5.43,264.69 L 4.94,264.55 L 5.40,264.41 Z" fill="#E8E0D0" stroke="#B8B0A0" stroke-width="0.5"/>
<path d="M 232.23,405.41 L 211.06,406.25 L 206.01,404.32 L 212.65,396.85 L 226.78,390.16 L 232.77,390.69 L 241.12,397.53 L 232.23,405.41 Z M 150.42,93.75 L 152.85,96.28 L 150.00,94.64 L 150.42,93.75 Z M 642.09,383.55 L 639.64,382.60 L 643.73,381.02 L 650.00,380.80 L 642.09,383.55 Z" fill="#4A90D9" stroke="#1a5fa8" stroke-width="1.2"/>
</svg>