<svg xmlns="http://www.w3.org/2000/svg" width="800" height="500" viewBox="0 0 800 500">
<rect width="800" height="500" fill="#A8C8E8"/>
<path d="M 366.12,45.60 L 361.64,47.12 L 351.14,47.72 L 366.12,45.60 Z" fill="#E8E0D0" stroke="#B8B0A0" stroke-width="0.5"/>
<path d="M 388.25,406.25 L 386.58,406.24 L 385.89,405.98 L 388.25,406.25 Z M 394.23,405.96 L 392.97,406.02 L 393.91,405.69 L 394.23,405.96 Z M 376.86,405.36 L 376.08,405.29 L 376.19,404.95 L 376.86,405.36 Z M 401.94,404.42 L 402.61,403.63 L 405.12,403.73 L 401.94,404.42 Z M 406.28,402.99 L 406.95,401.81 L 406.81,402.24 L 406.28,402.99 Z M 455.88,390.38 L 456.24,390.85 L 453.92,390.42 L 455.88,390.38 Z M 371.20,369.84 L 370.84,370.09 L 369.84,369.97 L 371.20,369.84 Z M 399.48,369.12 L 397.85,369.34 L 397.37,369.03 L 399.48,369.12 Z M 354.32,367.84 L 355.21,368.25 L 354.15,368.19 L 354.32,367.84 Z M 439.89,367.22 L 437.53,367.42 L 437.89,367.19 L 439.89,367.22 Z M 342.15,366.55 L 341.62,366.64 L 340.42,366.54 L 342.15,366.55 Z M 473.46,363.11 L 472.26,363.39 L 471.77,363.10 L 473.46,363.11 Z M 334.72,362.49 L 335.41,362.85 L 334.56,362.74 L 334.72,362.49 Z M 330.27,359.11 L 329.37,358.86 L 330.35,358.75 L 330.27,359.11 Z M 468.13,358.29 L 468.78,358.65 L 467.56,358.50 L 468.13,358.29 Z M 441.80,353.18 L 441.31,353.17 L 441.01,353.04 L 441.80,353.18 Z M 438.08,348.32 L 437.61,348.30 L 437.32,348.17 L 438.08,348.32 Z M 433.34,344.91 L 432.89,344.95 L 432.56,344.81 L 433.34,344.91 Z M 303.90,238.13 L 302.88,238.21 L 302.11,238.13 L 303.90,238.13 Z M 293.91,237.76 L 294.83,237.87 L 292.91,237.91 L 293.91,237.76 Z M 323.07,236.68 L 323.02,236.68 L 325.10,236.26 L 323.07,236.68 Z M 331.51,233.79 L 330.51,233.86 L 329.74,233.79 L 331.51,233.79 Z M 269.48,229.58 L 268.76,229.73 L 267.54,229.61 L 269.48,229.58 Z M 462.61,220.91 L 462.00,220.97 L 462.43,220.83 L 462.61,220.91 Z M 271.80,218.39 L 271.27,218.45 L 269.88,218.33 L 271.80,218.39 Z M 472.19,214.56 L 472.19,214.56 L 470.69,214.27 L 472.19,214.56 Z M 339.02,207.79 L 339.06,207.87 L 338.24,207.87 L 339.02,207.79 Z M 520.33,200.98 L 519.48,201.01 L 520.82,200.88 L 520.33,200.98 Z M 520.78,200.15 L 520.09,200.30 L 520.11,200.20 L 520.78,200.15 Z M 439.44,199.65 L 438.58,199.59 L 439.30,199.29 L 439.44,199.65 Z M 446.44,193.12 L 445.87,193.15 L 445.42,193.06 L 446.44,193.12 Z M 467.80,189.57 L 467.23,189.61 L 466.78,189.52 L 467.80,189.57 Z M 339.95,182.41 L 337.49,183.01 L 338.28,182.46 L 339.95,182.41 Z M 325.83,182.27 L 325.34,182.31 L 324.49,182.29 L 325.83,182.27 Z M 454.25,179.43 L 455.41,179.23 L 456.94,179.37 L 454.25,179.43 Z M 322.48,176.99 L 322.41,176.99 L 322.66,176.91 L 322.48,176.99 Z M 326.89,176.86 L 326.20,176.90 L 327.05,176.76 L 326.89,176.86 Z M 355.98,173.46 L 355.43,173.47 L 356.31,173.34 L 355.98,173.46 Z M 357.98,173.14 L 357.02,173.15 L 356.43,173.05 L 357.98,173.14 Z M 367.87,171.87 L 367.05,171.89 L 367.95,171.75 L 367.87,171.87 Z M 371.16,171.29 L 372.75,171.39 L 371.89,171.37 L 371.16,171.29 Z M 309.92,168.78 L 309.27,168.82 L 310.15,168.68 L 309.92,168.78 Z M 378.08,168.50 L 377.22,168.55 L 378.08,168.42 L 378.08,168.50 Z M 469.43,168.40 L 468.57,168.36 L 470.06,168.32 L 469.43,168.40 Z M 490.83,167.17 L 487.62,167.13 L 490.63,166.92 L 490.83,167.17 Z M 373.28,166.26 L 372.42,166.39 L 372.42,166.33 L 373.28,166.26 Z M 462.65,165.88 L 461.17,165.92 L 461.88,165.86 L 462.65,165.88 Z M 501.92,164.95 L 500.94,164.92 L 502.51,164.88 L 501.92,164.95 Z M 505.13,164.50 L 505.09,164.50 L 505.97,164.43 L 505.13,164.50 Z M 333.22,164.19 L 332.51,164.22 L 333.40,164.08 L 333.22,164.19 Z M 444.79,163.81 L 445.42,163.94 L 444.16,163.90 L 444.79,163.81 Z M 426.34,163.52 L 427.64,163.51 L 424.91,163.67 L 426.34,163.52 Z M 431.34,161.11 L 431.26,161.11 L 431.99,161.03 L 431.34,161.11 Z M 478.85,160.19 L 477.93,160.16 L 479.48,160.13 L 478.85,160.19 Z M 435.90,159.81 L 435.29,159.87 L 435.86,159.66 L 435.90,159.81 Z M 330.19,159.69 L 329.68,159.72 L 329.37,159.56 L 330.19,159.69 Z M 348.37,158.68 L 347.87,158.71 L 347.56,158.54 L 348.37,158.68 Z M 459.95,156.50 L 459.19,156.47 L 460.72,156.43 L 459.95,156.50 Z M 345.69,149.88 L 345.06,149.88 L 344.81,149.68 L 345.69,149.88 Z M 333.60,124.28 L 333.40,124.37 L 332.24,124.33 L 333.60,124.28 Z M 319.42,120.18 L 319.20,120.26 L 317.84,120.17 L 319.42,120.18 Z M 374.78,404.35 L 373.01,403.39 L 371.36,401.87 L 374.78,404.35 Z M 436.41,306.85 L 439.07,306.95 L 437.16,307.18 L 436.41,306.85 Z M 445.64,306.67 L 443.71,306.70 L 443.81,306.54 L 445.64,306.67 Z M 461.03,305.44 L 459.30,305.68 L 458.28,305.42 L 461.03,305.44 Z M 469.92,305.38 L 469.63,305.34 L 470.69,305.09 L 469.92,305.38 Z M 478.36,304.02 L 478.22,304.09 L 477.99,303.95 L 478.36,304.02 Z M 406.03,302.94 L 406.11,302.72 L 408.05,302.79 L 406.03,302.94 Z M 482.33,302.03 L 480.33,302.79 L 482.57,301.48 L 482.33,302.03 Z M 482.57,299.85 L 482.57,299.86 L 482.04,299.75 L 482.57,299.85 Z M 425.93,299.02 L 424.71,299.15 L 423.98,299.08 L 425.93,299.02 Z M 480.86,297.59 L 480.19,297.57 L 480.68,297.49 L 480.86,297.59 Z M 441.86,297.33 L 441.68,297.26 L 441.86,297.15 L 441.86,297.33 Z M 482.98,295.57 L 482.98,295.57 L 482.94,295.35 L 482.98,295.57 Z M 491.46,294.08 L 491.48,294.08 L 485.56,294.68 L 491.46,294.08 Z M 355.45,291.87 L 354.68,291.88 L 354.72,291.88 L 355.45,291.87 Z M 370.69,291.22 L 369.98,291.18 L 369.84,291.08 L 370.69,291.22 Z M 374.33,290.55 L 375.33,290.79 L 373.87,290.79 L 374.33,290.55 Z M 331.69,287.56 L 330.90,287.53 L 332.22,287.46 L 331.69,287.56 Z M 326.87,285.81 L 325.75,285.67 L 326.65,285.35 L 326.87,285.81 Z M 431.02,284.68 L 430.63,284.76 L 431.12,284.53 L 431.02,284.68 Z M 436.67,281.98 L 435.76,283.05 L 433.58,281.28 L 436.67,281.98 Z M 423.92,278.67 L 423.92,278.67 L 423.00,278.46 L 423.92,278.67 Z M 381.07,276.42 L 380.36,276.42 L 381.50,276.30 L 381.07,276.42 Z M 321.72,271.23 L 321.23,271.39 L 320.40,271.37 L 321.72,271.23 Z M 313.54,271.07 L 313.54,271.08 L 311.86,270.86 L 313.54,271.07 Z M 353.18,268.61 L 352.12,268.88 L 350.69,268.75 L 353.18,268.61 Z M 433.50,267.53 L 432.97,267.58 L 432.24,267.40 L 433.50,267.53 Z M 442.78,267.40 L 443.08,267.15 L 444.93,266.98 L 442.78,267.40 Z M 482.88,262.78 L 482.39,262.88 L 482.39,262.85 L 482.88,262.78 Z M 435.82,262.46 L 435.29,262.50 L 434.43,262.41 L 435.82,262.46 Z M 348.84,260.50 L 347.38,260.54 L 347.24,260.26 L 348.84,260.50 Z M 486.17,260.21 L 485.62,260.55 L 485.44,260.46 L 486.17,260.21 Z M 491.58,259.93 L 489.49,260.35 L 489.73,260.10 L 491.58,259.93 Z M 312.04,259.96 L 311.39,260.07 L 311.35,259.96 L 312.04,259.96 Z M 321.62,255.17 L 320.09,255.31 L 319.97,255.26 L 321.62,255.17 Z M 498.26,254.26 L 497.22,254.37 L 498.38,254.11 L 498.26,254.26 Z M 340.56,254.18 L 339.67,254.27 L 338.89,254.21 L 340.56,254.18 Z M 356.84,250.29 L 355.29,250.44 L 355.17,250.38 L 356.84,250.29 Z M 354.03,248.46 L 353.11,248.55 L 352.36,248.49 L 354.03,248.46 Z M 304.53,246.00 L 302.96,246.14 L 302.92,246.09 L 304.53,246.00 Z M 474.82,244.00 L 474.92,244.11 L 474.21,243.91 L 474.82,244.00 Z M 532.05,240.31 L 533.41,240.50 L 532.25,240.43 L 532.05,240.31 Z M 472.24,238.49 L 472.26,238.49 L 471.65,238.44 L 472.24,238.49 Z M 334.07,229.18 L 333.12,229.25 L 332.36,229.19 L 334.07,229.18 Z M 332.46,227.65 L 331.45,227.72 L 330.71,227.65 L 332.46,227.65 Z M 332.14,225.05 L 331.14,225.12 L 330.41,225.05 L 332.14,225.05 Z M 453.92,224.52 L 453.19,224.65 L 453.23,224.45 L 453.92,224.52 Z M 455.88,221.56 L 454.66,221.65 L 456.00,221.49 L 455.88,221.56 Z M 431.34,220.53 L 430.49,220.63 L 430.49,220.59 L 431.34,220.53 Z M 450.47,213.64 L 449.86,213.67 L 450.77,213.56 L 450.47,213.64 Z M 472.84,211.81 L 452.92,210.90 L 473.12,210.84 L 481.67,208.56 L 472.84,211.81 Z M 334.78,207.78 L 333.71,207.82 L 331.41,207.63 L 334.78,207.78 Z M 493.23,204.67 L 492.40,204.65 L 494.09,204.59 L 493.23,204.67 Z M 498.07,204.01 L 497.50,204.05 L 497.04,203.95 L 498.07,204.01 Z M 504.38,203.71 L 503.53,203.69 L 503.04,203.54 L 504.38,203.71 Z M 512.19,202.80 L 511.66,202.84 L 511.20,202.74 L 512.19,202.80 Z M 334.13,201.39 L 331.89,201.35 L 330.96,201.01 L 334.13,201.39 Z M 483.59,193.70 L 483.02,193.73 L 482.57,193.64 L 483.59,193.70 Z M 504.30,162.07 L 503.24,162.74 L 502.06,161.65 L 504.30,162.07 Z M 345.77,159.88 L 345.36,159.93 L 344.88,159.74 L 345.77,159.88 Z M 315.40,158.64 L 314.91,158.66 L 314.54,158.49 L 315.40,158.64 Z M 349.15,153.68 L 348.62,153.71 L 348.33,153.54 L 349.15,153.68 Z M 348.09,151.30 L 347.56,151.33 L 347.26,151.16 L 348.09,151.30 Z M 440.29,149.58 L 440.01,149.55 L 440.76,149.27 L 440.29,149.58 Z M 341.58,147.53 L 340.81,147.65 L 341.82,147.32 L 341.58,147.53 Z M 441.25,146.68 L 440.29,146.79 L 439.32,146.66 L 441.25,146.68 Z M 338.89,145.97 L 338.89,145.97 L 337.88,145.73 L 338.89,145.97 Z M 453.56,144.91 L 453.48,144.92 L 455.90,144.50 L 453.56,144.91 Z M 336.05,143.58 L 336.74,144.14 L 335.60,143.88 L 336.05,143.58 Z M 452.24,141.96 L 451.69,142.01 L 450.91,141.87 L 452.24,141.96 Z M 327.66,139.86 L 326.56,139.61 L 328.03,139.37 L 327.66,139.86 Z M 443.95,139.83 L 441.25,139.55 L 442.57,139.33 L 443.95,139.83 Z M 323.33,139.08 L 322.58,139.02 L 322.54,138.85 L 323.33,139.08 Z M 407.38,134.95 L 406.48,134.94 L 407.80,134.79 L 407.38,134.95 Z M 408.11,133.68 L 406.83,133.82 L 407.33,133.72 L 408.11,133.68 Z M 399.87,132.95 L 398.91,132.98 L 400.23,132.84 L 399.87,132.95 Z M 411.93,132.08 L 411.40,132.10 L 411.46,131.98 L 411.93,132.08 Z M 399.85,131.23 L 398.63,131.37 L 399.07,131.27 L 399.85,131.23 Z M 412.83,130.54 L 412.14,130.97 L 411.61,130.72 L 412.83,130.54 Z M 352.40,129.36 L 352.36,129.36 L 352.73,129.28 L 352.40,129.36 Z M 406.09,128.85 L 405.18,128.96 L 404.20,128.83 L 406.09,128.85 Z M 376.65,126.75 L 375.84,126.78 L 377.22,126.64 L 376.65,126.75 Z M 398.38,126.54 L 397.30,126.65 L 397.45,126.64 L 398.38,126.54 Z M 365.46,125.88 L 364.65,125.91 L 365.95,125.76 L 365.46,125.88 Z M 395.60,125.22 L 395.37,125.38 L 393.66,125.24 L 395.60,125.22 Z M 376.17,124.82 L 374.95,124.95 L 375.35,124.86 L 376.17,124.82 Z M 390.65,124.25 L 390.16,124.22 L 390.37,124.11 L 390.65,124.25 Z M 351.34,123.51 L 351.16,123.60 L 349.94,123.56 L 351.34,123.51 Z M 266.91,121.80 L 266.59,121.84 L 266.59,121.64 L 266.91,121.80 Z M 321.99,120.66 L 321.76,120.74 L 320.62,120.71 L 321.99,120.66 Z M 356.68,120.65 L 355.90,120.75 L 357.32,120.44 L 356.68,120.65 Z M 334.62,115.91 L 334.07,115.87 L 334.32,115.69 L 334.62,115.91 Z M 327.30,115.64 L 327.05,115.73 L 325.89,115.69 L 327.30,115.64 Z M 352.73,115.04 L 352.16,115.08 L 351.51,114.91 L 352.73,115.04 Z M 355.29,113.39 L 354.72,113.36 L 354.97,113.17 L 355.29,113.39 Z M 360.56,111.64 L 360.68,111.40 L 362.49,111.36 L 360.56,111.64 Z M 370.23,110.08 L 369.09,110.14 L 369.29,109.83 L 370.23,110.08 Z M 354.34,107.93 L 353.79,107.97 L 353.11,107.81 L 354.34,107.93 Z M 323.70,107.70 L 323.19,107.66 L 323.43,107.47 L 323.70,107.70 Z M 383.33,108.10 L 378.04,109.07 L 379.12,108.42 L 383.33,108.10 Z M 394.44,104.94 L 391.06,105.22 L 390.53,104.84 L 394.44,104.94 Z M 343.00,104.59 L 342.47,104.56 L 342.68,104.37 L 343.00,104.59 Z M 380.19,104.52 L 379.62,104.48 L 379.87,104.29 L 380.19,104.52 Z M 339.20,104.20 L 338.65,104.23 L 338.00,104.07 L 339.20,104.20 Z M 368.62,104.16 L 368.07,104.13 L 368.35,103.94 L 368.62,104.16 Z M 335.27,103.82 L 334.70,103.78 L 334.93,103.60 L 335.27,103.82 Z M 371.77,102.44 L 371.20,102.48 L 370.55,102.32 L 371.77,102.44 Z M 398.38,101.87 L 396.10,102.66 L 395.60,101.97 L 398.38,101.87 Z M 326.69,99.90 L 326.26,99.98 L 326.61,99.76 L 326.69,99.90 Z M 393.78,100.00 L 393.42,100.01 L 393.09,99.35 L 393.78,100.00 Z M 318.10,98.54 L 317.73,98.63 L 318.10,98.41 L 318.10,98.54 Z M 340.05,96.95 L 340.48,97.49 L 339.44,97.29 L 340.05,96.95 Z M 332.61,95.79 L 332.24,96.01 L 332.06,95.89 L 332.61,95.79 Z M 323.33,94.34 L 323.09,94.71 L 321.76,94.40 L 323.33,94.34 Z M 316.25,93.89 L 315.74,93.98 L 316.07,93.75 L 316.25,93.89 Z" fill="#4A90D9" stroke="#1a5fa8" stroke-width="1.2"/>
</svg>