<svg xmlns="http://www.w3.org/2000/svg" width="800" height="500" viewBox="0 0 800 500">
<rect width="800" height="500" fill="#A8C8E8"/>
<path d="M 394.58,45.60 L 393.86,47.12 L 392.18,47.72 L 394.58,45.60 Z" fill="#E8E0D0" stroke="#B8B0A0" stroke-width="0.5"/>
<path d="M 398.12,406.25 L 397.85,406.24 L 397.74,405.98 L 398.12,406.25 Z M 399.08,405.96 L 398.87,406.02 L 399.02,405.69 L 399.08,405.96 Z M 396.30,405.36 L 396.17,405.29 L 396.19,404.95 L 396.30,405.36 Z M 400.31,404.42 L 400.42,403.63 L 400.82,403.73 L 400.31,404.42 Z M 401.00,402.99 L 401.11,401.81 L 401.09,402.24 L 401.00,402.99 Z M 408.95,390.38 L 409.00,390.85 L 408.63,390.42 L 408.95,390.38 Z M 395.39,369.84 L 395.33,370.09 L 395.17,369.97 L 395.39,369.84 Z M 399.92,369.12 L 399.66,369.34 L 399.58,369.03 L 399.92,369.12 Z M 392.69,367.84 L 392.83,368.25 L 392.66,368.19 L 392.69,367.84 Z M 406.39,367.22 L 406.01,367.42 L 406.07,367.19 L 406.39,367.22 Z M 390.74,366.55 L 390.65,366.64 L 390.46,366.54 L 390.74,366.55 Z M 411.76,363.11 L 411.57,363.39 L 411.49,363.10 L 411.76,363.11 Z M 389.55,362.49 L 389.66,362.85 L 389.52,362.74 L 389.55,362.49 Z M 388.84,359.11 L 388.69,358.86 L 388.85,358.75 L 388.84,359.11 Z M 410.91,358.29 L 411.01,358.65 L 410.82,358.50 L 410.91,358.29 Z M 406.69,353.18 L 406.61,353.17 L 406.56,353.04 L 406.69,353.18 Z M 406.10,348.32 L 406.02,348.30 L 405.98,348.17 L 406.10,348.32 Z M 405.34,344.91 L 405.27,344.95 L 405.21,344.81 L 405.34,344.91 Z M 384.62,238.13 L 384.45,238.21 L 384.33,238.13 L 384.62,238.13 Z M 383.02,237.76 L 383.16,237.87 L 382.86,237.91 L 383.02,237.76 Z M 387.68,236.68 L 387.68,236.68 L 388.01,236.26 L 387.68,236.68 Z M 389.04,233.79 L 388.88,233.86 L 388.75,233.79 L 389.04,233.79 Z M 379.10,229.58 L 378.99,229.73 L 378.79,229.61 L 379.10,229.58 Z M 410.02,220.91 L 409.93,220.97 L 409.99,220.83 L 410.02,220.91 Z M 379.48,218.39 L 379.39,218.45 L 379.17,218.33 L 379.48,218.39 Z M 411.56,214.56 L 411.56,214.56 L 411.32,214.27 L 411.56,214.56 Z M 390.24,207.79 L 390.24,207.87 L 390.11,207.87 L 390.24,207.79 Z M 419.26,200.98 L 419.13,201.01 L 419.34,200.88 L 419.26,200.98 Z M 419.34,200.15 L 419.22,200.30 L 419.23,200.20 L 419.34,200.15 Z M 406.31,199.65 L 406.18,199.59 L 406.29,199.29 L 406.31,199.65 Z M 407.43,193.12 L 407.34,193.15 L 407.27,193.06 L 407.43,193.12 Z M 410.85,189.57 L 410.76,189.61 L 410.69,189.52 L 410.85,189.57 Z M 390.39,182.41 L 389.99,183.01 L 390.12,182.46 L 390.39,182.41 Z M 388.13,182.27 L 388.05,182.31 L 387.91,182.29 L 388.13,182.27 Z M 408.68,179.43 L 408.87,179.23 L 409.11,179.37 L 408.68,179.43 Z M 387.59,176.99 L 387.58,176.99 L 387.62,176.91 L 387.59,176.99 Z M 388.30,176.86 L 388.19,176.90 L 388.32,176.76 L 388.30,176.86 Z M 392.95,173.46 L 392.87,173.47 L 393.01,173.34 L 392.95,173.46 Z M 393.27,173.14 L 393.12,173.15 L 393.03,173.05 L 393.27,173.14 Z M 394.86,171.87 L 394.73,171.89 L 394.87,171.75 L 394.86,171.87 Z M 395.38,171.29 L 395.64,171.39 L 395.50,171.37 L 395.38,171.29 Z M 385.58,168.78 L 385.48,168.82 L 385.62,168.68 L 385.58,168.78 Z M 396.49,168.50 L 396.35,168.55 L 396.49,168.42 L 396.49,168.50 Z M 411.11,168.40 L 410.98,168.36 L 411.22,168.32 L 411.11,168.40 Z M 414.54,167.17 L 414.03,167.13 L 414.51,166.92 L 414.54,167.17 Z M 395.72,166.26 L 395.59,166.39 L 395.59,166.33 L 395.72,166.26 Z M 410.03,165.88 L 409.79,165.92 L 409.91,165.86 L 410.03,165.88 Z M 416.32,164.95 L 416.16,164.92 L 416.41,164.88 L 416.32,164.95 Z M 416.83,164.50 L 416.82,164.50 L 416.96,164.43 L 416.83,164.50 Z M 389.31,164.19 L 389.19,164.22 L 389.34,164.08 L 389.31,164.19 Z M 407.17,163.81 L 407.27,163.94 L 407.07,163.90 L 407.17,163.81 Z M 404.22,163.52 L 404.42,163.51 L 403.99,163.67 L 404.22,163.52 Z M 405.02,161.11 L 405.00,161.11 L 405.12,161.03 L 405.02,161.11 Z M 412.62,160.19 L 412.48,160.16 L 412.72,160.13 L 412.62,160.19 Z M 405.75,159.81 L 405.65,159.87 L 405.74,159.66 L 405.75,159.81 Z M 388.82,159.69 L 388.74,159.72 L 388.69,159.56 L 388.82,159.69 Z M 391.74,158.68 L 391.65,158.71 L 391.60,158.54 L 391.74,158.68 Z M 409.60,156.50 L 409.48,156.47 L 409.72,156.43 L 409.60,156.50 Z M 391.31,149.88 L 391.20,149.88 L 391.17,149.68 L 391.31,149.88 Z M 389.37,124.28 L 389.34,124.37 L 389.15,124.33 L 389.37,124.28 Z M 387.10,120.18 L 387.06,120.26 L 386.85,120.17 L 387.10,120.18 Z M 395.96,404.35 L 395.68,403.39 L 395.42,401.87 L 395.96,404.35 Z M 405.83,306.85 L 406.26,306.95 L 405.95,307.18 L 405.83,306.85 Z M 407.31,306.67 L 407.00,306.70 L 407.01,306.54 L 407.31,306.67 Z M 409.77,305.44 L 409.49,305.68 L 409.33,305.42 L 409.77,305.44 Z M 411.19,305.38 L 411.15,305.34 L 411.32,305.09 L 411.19,305.38 Z M 412.54,304.02 L 412.52,304.09 L 412.49,303.95 L 412.54,304.02 Z M 400.97,302.94 L 400.98,302.72 L 401.29,302.79 L 400.97,302.94 Z M 413.18,302.03 L 412.86,302.79 L 413.22,301.48 L 413.18,302.03 Z M 413.22,299.85 L 413.22,299.86 L 413.13,299.75 L 413.22,299.85 Z M 404.15,299.02 L 403.96,299.15 L 403.84,299.08 L 404.15,299.02 Z M 412.95,297.59 L 412.84,297.57 L 412.92,297.49 L 412.95,297.59 Z M 406.70,297.33 L 406.67,297.26 L 406.70,297.15 L 406.70,297.33 Z M 413.28,295.57 L 413.28,295.57 L 413.28,295.35 L 413.28,295.57 Z M 414.64,294.08 L 414.65,294.08 L 413.70,294.68 L 414.64,294.08 Z M 392.87,291.87 L 392.74,291.88 L 392.75,291.88 L 392.87,291.87 Z M 395.31,291.22 L 395.19,291.18 L 395.17,291.08 L 395.31,291.22 Z M 395.89,290.55 L 396.05,290.79 L 395.82,290.79 L 395.89,290.55 Z M 389.06,287.56 L 388.94,287.53 L 389.15,287.46 L 389.06,287.56 Z M 388.29,285.81 L 388.11,285.67 L 388.26,285.35 L 388.29,285.81 Z M 404.97,284.68 L 404.90,284.76 L 404.98,284.53 L 404.97,284.68 Z M 405.87,281.98 L 405.72,283.05 L 405.38,281.28 L 405.87,281.98 Z M 403.83,278.67 L 403.83,278.67 L 403.68,278.46 L 403.83,278.67 Z M 396.97,276.42 L 396.86,276.42 L 397.04,276.30 L 396.97,276.42 Z M 387.47,271.23 L 387.39,271.39 L 387.26,271.37 L 387.47,271.23 Z M 386.16,271.07 L 386.16,271.08 L 385.89,270.86 L 386.16,271.07 Z M 392.50,268.61 L 392.33,268.88 L 392.11,268.75 L 392.50,268.61 Z M 405.36,267.53 L 405.28,267.58 L 405.16,267.40 L 405.36,267.53 Z M 406.85,267.40 L 406.90,267.15 L 407.19,266.98 L 406.85,267.40 Z M 413.27,262.78 L 413.19,262.88 L 413.19,262.85 L 413.27,262.78 Z M 405.73,262.46 L 405.65,262.50 L 405.51,262.41 L 405.73,262.46 Z M 391.81,260.50 L 391.58,260.54 L 391.55,260.26 L 391.81,260.50 Z M 413.80,260.21 L 413.71,260.55 L 413.68,260.46 L 413.80,260.21 Z M 414.66,259.93 L 414.33,260.35 L 414.37,260.10 L 414.66,259.93 Z M 385.92,259.96 L 385.81,260.07 L 385.81,259.96 L 385.92,259.96 Z M 387.45,255.17 L 387.21,255.31 L 387.19,255.26 L 387.45,255.17 Z M 415.73,254.26 L 415.56,254.37 L 415.75,254.11 L 415.73,254.26 Z M 390.48,254.18 L 390.34,254.27 L 390.22,254.21 L 390.48,254.18 Z M 393.09,250.29 L 392.84,250.44 L 392.82,250.38 L 393.09,250.29 Z M 392.64,248.46 L 392.49,248.55 L 392.37,248.49 L 392.64,248.46 Z M 384.72,246.00 L 384.47,246.14 L 384.46,246.09 L 384.72,246.00 Z M 411.98,244.00 L 411.99,244.11 L 411.88,243.91 L 411.98,244.00 Z M 421.14,240.31 L 421.36,240.50 L 421.17,240.43 L 421.14,240.31 Z M 411.56,238.49 L 411.57,238.49 L 411.47,238.44 L 411.56,238.49 Z M 389.45,229.18 L 389.29,229.25 L 389.17,229.19 L 389.45,229.18 Z M 389.19,227.65 L 389.03,227.72 L 388.91,227.65 L 389.19,227.65 Z M 389.14,225.05 L 388.98,225.12 L 388.86,225.05 L 389.14,225.05 Z M 408.63,224.52 L 408.52,224.65 L 408.52,224.45 L 408.63,224.52 Z M 408.95,221.56 L 408.75,221.65 L 408.97,221.49 L 408.95,221.56 Z M 405.02,220.53 L 404.88,220.63 L 404.88,220.59 L 405.02,220.53 Z M 408.08,213.64 L 407.98,213.67 L 408.13,213.56 L 408.08,213.64 Z M 411.66,211.81 L 408.47,210.90 L 411.71,210.84 L 413.07,208.56 L 411.66,211.81 Z M 389.56,207.78 L 389.39,207.82 L 389.02,207.63 L 389.56,207.78 Z M 414.93,204.67 L 414.79,204.65 L 415.06,204.59 L 414.93,204.67 Z M 415.70,204.01 L 415.61,204.05 L 415.53,203.95 L 415.70,204.01 Z M 416.71,203.71 L 416.57,203.69 L 416.50,203.54 L 416.71,203.71 Z M 417.96,202.80 L 417.88,202.84 L 417.80,202.74 L 417.96,202.80 Z M 389.46,201.39 L 389.10,201.35 L 388.95,201.01 L 389.46,201.39 Z M 413.38,193.70 L 413.29,193.73 L 413.22,193.64 L 413.38,193.70 Z M 416.70,162.07 L 416.53,162.74 L 416.34,161.65 L 416.70,162.07 Z M 391.32,159.88 L 391.25,159.93 L 391.18,159.74 L 391.32,159.88 Z M 386.46,158.64 L 386.38,158.66 L 386.32,158.49 L 386.46,158.64 Z M 391.86,153.68 L 391.77,153.71 L 391.73,153.54 L 391.86,153.68 Z M 391.69,151.30 L 391.60,151.33 L 391.56,151.16 L 391.69,151.30 Z M 406.45,149.58 L 406.41,149.55 L 406.53,149.27 L 406.45,149.58 Z M 390.65,147.53 L 390.52,147.65 L 390.69,147.32 L 390.65,147.53 Z M 406.60,146.68 L 406.45,146.79 L 406.29,146.66 L 406.60,146.68 Z M 390.22,145.97 L 390.22,145.97 L 390.05,145.73 L 390.22,145.97 Z M 408.57,144.91 L 408.56,144.92 L 408.95,144.50 L 408.57,144.91 Z M 389.76,143.58 L 389.87,144.14 L 389.69,143.88 L 389.76,143.58 Z M 408.36,141.96 L 408.27,142.01 L 408.15,141.87 L 408.36,141.96 Z M 388.42,139.86 L 388.24,139.61 L 388.48,139.37 L 388.42,139.86 Z M 407.04,139.83 L 406.60,139.55 L 406.82,139.33 L 407.04,139.83 Z M 387.73,139.08 L 387.61,139.02 L 387.60,138.85 L 387.73,139.08 Z M 401.18,134.95 L 401.04,134.94 L 401.25,134.79 L 401.18,134.95 Z M 401.30,133.68 L 401.09,133.82 L 401.17,133.72 L 401.30,133.68 Z M 399.98,132.95 L 399.83,132.98 L 400.04,132.84 L 399.98,132.95 Z M 401.91,132.08 L 401.83,132.10 L 401.84,131.98 L 401.91,132.08 Z M 399.98,131.23 L 399.78,131.37 L 399.85,131.27 L 399.98,131.23 Z M 402.05,130.54 L 401.94,130.97 L 401.86,130.72 L 402.05,130.54 Z M 392.38,129.36 L 392.37,129.36 L 392.43,129.28 L 392.38,129.36 Z M 400.98,128.85 L 400.83,128.96 L 400.67,128.83 L 400.98,128.85 Z M 396.26,126.75 L 396.13,126.78 L 396.35,126.64 L 396.26,126.75 Z M 399.74,126.54 L 399.57,126.65 L 399.59,126.64 L 399.74,126.54 Z M 394.47,125.88 L 394.34,125.91 L 394.55,125.76 L 394.47,125.88 Z M 399.29,125.22 L 399.26,125.38 L 398.99,125.24 L 399.29,125.22 Z M 396.18,124.82 L 395.99,124.95 L 396.05,124.86 L 396.18,124.82 Z M 398.50,124.25 L 398.43,124.22 L 398.46,124.11 L 398.50,124.25 Z M 392.21,123.51 L 392.18,123.60 L 391.99,123.56 L 392.21,123.51 Z M 378.69,121.80 L 378.64,121.84 L 378.64,121.64 L 378.69,121.80 Z M 387.51,120.66 L 387.47,120.74 L 387.29,120.71 L 387.51,120.66 Z M 393.06,120.65 L 392.94,120.75 L 393.17,120.44 L 393.06,120.65 Z M 389.53,115.91 L 389.45,115.87 L 389.48,115.69 L 389.53,115.91 Z M 388.36,115.64 L 388.32,115.73 L 388.14,115.69 L 388.36,115.64 Z M 392.43,115.04 L 392.34,115.08 L 392.24,114.91 L 392.43,115.04 Z M 392.84,113.39 L 392.75,113.36 L 392.79,113.17 L 392.84,113.39 Z M 393.69,111.64 L 393.71,111.40 L 394.00,111.36 L 393.69,111.64 Z M 395.23,110.08 L 395.05,110.14 L 395.08,109.83 L 395.23,110.08 Z M 392.69,107.93 L 392.60,107.97 L 392.49,107.81 L 392.69,107.93 Z M 387.78,107.70 L 387.70,107.66 L 387.74,107.47 L 387.78,107.70 Z M 397.33,108.10 L 396.48,109.07 L 396.66,108.42 L 397.33,108.10 Z M 399.11,104.94 L 398.57,105.22 L 398.48,104.84 L 399.11,104.94 Z M 390.88,104.59 L 390.79,104.56 L 390.82,104.37 L 390.88,104.59 Z M 396.83,104.52 L 396.74,104.48 L 396.78,104.29 L 396.83,104.52 Z M 390.27,104.20 L 390.18,104.23 L 390.07,104.07 L 390.27,104.20 Z M 394.98,104.16 L 394.89,104.13 L 394.93,103.94 L 394.98,104.16 Z M 389.64,103.82 L 389.55,103.78 L 389.58,103.60 L 389.64,103.82 Z M 395.48,102.44 L 395.39,102.48 L 395.29,102.32 L 395.48,102.44 Z M 399.74,101.87 L 399.38,102.66 L 399.29,101.97 L 399.74,101.87 Z M 388.26,99.90 L 388.20,99.98 L 388.25,99.76 L 388.26,99.90 Z M 399.00,100.00 L 398.95,100.01 L 398.89,99.35 L 399.00,100.00 Z M 386.89,98.54 L 386.83,98.63 L 386.89,98.41 L 386.89,98.54 Z M 390.40,96.95 L 390.47,97.49 L 390.31,97.29 L 390.40,96.95 Z M 389.21,95.79 L 389.15,96.01 L 389.12,95.89 L 389.21,95.79 Z M 387.73,94.34 L 387.69,94.71 L 387.47,94.40 L 387.73,94.34 Z M 386.59,93.89 L 386.51,93.98 L 386.56,93.75 L 386.59,93.89 Z" fill="#4A90D9" stroke="#1a5fa8" stroke-width="1.2"/>
</svg>