<svg xmlns="http://www.w3.org/2000/svg" width="800" height="500" viewBox="0 0 800 500">
<rect width="800" height="500" fill="#A8C8E8"/>
<path d="M 3.04,369.23 L 33.83,377.74 L 92.48,378.66 L 151.31,384.64 L 160.49,389.04 L 197.08,387.94 L 175.53,398.17 L 205.28,414.73 L 192.16,420.90 L 205.73,425.78 L 190.74,440.05 L 195.00,451.49 L 208.54,455.35 L 182.00,462.77 L 186.90,472.40 L 154.34,474.81 L 152.74,479.68 L 179.71,484.88 L 165.64,500.00 L 0.00,500.00 L 0.00,369.08 L 3.04,369.23 Z" fill="#E8E0D0" stroke="#B8B0A0" stroke-width="0.5"/>
<path d="M 179.71,484.88 L 152.74,479.68 L 154.34,474.81 L 186.90,472.40 L 182.00,462.77 L 208.54,455.35 L 195.00,451.49 L 190.74,440.05 L 205.73,425.78 L 192.16,420.90 L 205.28,414.73 L 175.53,398.17 L 197.08,387.94 L 160.49,389.04 L 151.31,384.64 L 92.48,378.66 L 33.83,377.74 L 3.04,369.23 L 0.00,369.08 L 0.00,300.04 L 233.22,280.28 L 301.43,304.01 L 313.08,299.48 L 364.05,299.71 L 409.30,295.36 L 436.15,304.23 L 444.01,331.02 L 392.19,355.99 L 418.63,362.84 L 422.01,371.49 L 495.91,390.33 L 528.74,394.07 L 520.67,405.22 L 555.53,406.01 L 553.41,388.71 L 530.85,382.13 L 568.28,366.12 L 589.87,367.35 L 631.62,362.14 L 640.16,336.91 L 631.47,327.01 L 650.00,315.51 L 641.20,305.97 L 523.46,267.79 L 489.37,260.18 L 455.04,259.24 L 440.34,252.51 L 432.50,226.75 L 410.83,207.06 L 451.36,181.99 L 592.49,183.38 L 637.98,175.34 L 690.69,182.01 L 695.57,186.96 L 761.29,187.77 L 791.29,181.80 L 800.00,181.71 L 800.00,436.31 L 793.24,436.21 L 800.00,438.27 L 800.00,447.13 L 737.72,463.60 L 727.63,472.82 L 701.50,469.16 L 705.95,477.10 L 687.40,477.48 L 683.86,473.46 L 642.44,479.54 L 566.82,500.00 L 165.64,500.00 L 179.71,484.88 Z M 457.40,202.09 L 462.51,204.04 L 473.83,200.64 L 463.30,199.03 L 457.40,202.09 Z M 440.15,199.47 L 450.50,201.94 L 453.02,198.50 L 440.15,199.47 Z" fill="#C8D8E8" stroke="#8BAABB" stroke-width="0.8"/>
<path d="M 127.59,88.37 L 112.99,83.75 L 38.12,80.44 L 37.89,75.22 L 0.00,74.49 L 0.00,0.00 L 800.00,0.00 L 800.00,181.71 L 791.29,181.80 L 761.29,187.77 L 695.57,186.96 L 690.69,182.01 L 637.98,175.34 L 599.39,183.08 L 505.03,181.80 L 492.99,173.81 L 474.32,172.58 L 450.87,162.78 L 460.35,148.66 L 445.86,140.08 L 438.97,120.03 L 405.27,106.97 L 358.18,97.21 L 342.62,106.92 L 315.27,101.52 L 269.66,103.03 L 248.27,97.81 L 127.59,88.37 Z" fill="#C8D8E8" stroke="#8BAABB" stroke-width="0.8"/>
<path d="M 199.92,103.31 L 229.01,102.25 L 254.93,111.50 L 248.86,120.87 L 284.21,127.63 L 305.95,141.59 L 279.23,149.34 L 237.82,153.94 L 262.25,165.31 L 237.47,175.47 L 234.75,181.41 L 247.72,182.61 L 250.39,189.82 L 240.93,204.64 L 255.86,212.24 L 283.27,213.36 L 256.00,220.51 L 205.77,223.74 L 192.86,230.08 L 204.04,236.03 L 201.66,247.54 L 173.10,260.68 L 150.00,263.43 L 166.44,265.47 L 165.39,270.73 L 182.53,272.48 L 201.92,281.76 L 223.58,276.69 L 233.22,280.28 L 0.00,300.04 L 0.00,74.49 L 37.89,75.22 L 38.12,80.44 L 112.99,83.75 L 127.59,88.37 L 189.73,94.40 L 199.92,103.31 Z" fill="#C8D8E8" stroke="#8BAABB" stroke-width="0.8"/>
<path d="M 451.36,181.99 L 443.20,192.19 L 411.56,205.24 L 432.50,226.75 L 440.34,252.51 L 455.04,259.24 L 489.37,260.18 L 523.46,267.79 L 641.20,305.97 L 650.00,315.51 L 631.47,327.01 L 640.16,336.91 L 631.62,362.14 L 589.87,367.35 L 568.28,366.12 L 530.85,382.13 L 558.35,394.76 L 557.54,404.99 L 546.71,406.25 L 520.67,405.22 L 528.74,394.07 L 495.91,390.33 L 422.01,371.49 L 418.63,362.84 L 392.19,355.99 L 443.41,332.08 L 433.63,302.95 L 409.30,295.36 L 364.05,299.71 L 313.08,299.48 L 301.43,304.01 L 245.17,282.18 L 223.58,276.69 L 201.92,281.76 L 182.53,272.48 L 165.39,270.73 L 166.44,265.47 L 150.00,263.43 L 173.10,260.68 L 201.66,247.54 L 204.04,236.03 L 192.86,230.08 L 205.77,223.74 L 256.00,220.51 L 283.27,213.36 L 255.86,212.24 L 240.93,204.64 L 250.39,189.82 L 247.72,182.61 L 234.75,181.41 L 237.47,175.47 L 262.25,165.31 L 237.82,153.94 L 279.23,149.34 L 305.95,141.59 L 284.21,127.63 L 248.86,120.87 L 254.93,111.50 L 229.01,102.25 L 199.92,103.31 L 192.11,93.75 L 228.62,98.57 L 248.27,97.81 L 269.66,103.03 L 315.27,101.52 L 342.62,106.92 L 358.18,97.21 L 405.27,106.97 L 438.97,120.03 L 445.86,140.08 L 460.35,148.66 L 450.87,162.78 L 474.32,172.58 L 492.99,173.81 L 505.03,181.80 L 451.36,181.99 Z M 473.83,200.64 L 462.51,204.04 L 457.40,202.09 L 463.30,199.03 L 473.83,200.64 Z M 453.02,198.50 L 450.50,201.94 L 440.15,199.47 L 453.02,198.50 Z" fill="#4A90D9" stroke="#1a5fa8" stroke-width="1.2"/>
<path d="M 494.06,280.17 L 484.11,288.04 L 465.63,290.81 L 441.24,282.91 L 454.14,267.75 L 406.37,255.34 L 407.32,235.37 L 384.98,224.10 L 382.62,215.03 L 362.32,209.92 L 366.86,199.09 L 406.37,184.48 L 384.48,141.62 L 398.01,136.08 L 341.93,111.33 L 358.18,97.21 L 405.27,106.97 L 437.17,118.65 L 460.35,148.66 L 450.87,162.78 L 504.43,178.77 L 503.69,191.49 L 490.33,200.73 L 463.40,206.60 L 462.45,216.26 L 483.57,227.86 L 472.67,236.21 L 488.47,267.34 L 521.12,269.61 L 554.91,293.29 L 545.15,295.24 L 494.06,280.17 Z M 470.35,202.60 L 472.99,200.78 L 468.67,200.23 L 470.35,202.60 Z" fill="#A8C8E8" stroke="none"/>
<path d="M 560.81,305.07 L 553.37,310.29 L 539.92,307.38 L 540.33,302.24 L 550.19,300.08 L 560.81,305.07 Z" fill="#A8C8E8" stroke="none"/>
<path d="M 34.80,20.11 L 35.66,20.11 L 35.57,20.12 L 34.80,20.11 Z M 130.80,42.52 L 65.18,34.96 L 42.52,37.70 L 16.27,22.93 L 41.34,20.21 L 130.80,42.52 Z" fill="#A8C8E8" stroke="none"/>
<path d="M 153.69,344.66 L 116.72,343.48 L 67.50,349.84 L 0.00,348.35 L 0.00,345.01 L 56.46,345.41 L 101.97,340.98 L 153.69,344.66 Z" fill="#A8C8E8" stroke="none"/>
</svg>