<svg xmlns="http://www.w3.org/2000/svg" width="800" height="500" viewBox="0 0 800 500">
<rect width="800" height="500" fill="#A8C8E8"/>
<path d="M 298.93,369.23 L 306.77,377.74 L 321.70,378.66 L 336.68,384.64 L 339.02,389.04 L 348.34,387.94 L 342.85,398.17 L 350.42,414.73 L 347.08,420.90 L 350.54,425.78 L 346.72,440.05 L 347.80,451.49 L 351.25,455.35 L 344.50,462.77 L 345.74,472.40 L 337.45,474.81 L 337.05,479.68 L 343.91,484.88 L 340.33,500.00 L 298.16,500.00 L 298.16,369.08 L 298.93,369.23 Z" fill="#E8E0D0" stroke="#B8B0A0" stroke-width="0.5"/>
<path d="M 343.91,484.88 L 337.05,479.68 L 337.45,474.81 L 345.74,472.40 L 344.50,462.77 L 351.25,455.35 L 347.80,451.49 L 346.72,440.05 L 350.54,425.78 L 347.08,420.90 L 350.42,414.73 L 342.85,398.17 L 348.34,387.94 L 339.02,389.04 L 336.68,384.64 L 321.70,378.66 L 306.77,377.74 L 298.93,369.23 L 298.16,369.08 L 298.16,300.04 L 357.54,280.28 L 374.90,304.01 L 377.87,299.48 L 390.85,299.71 L 402.37,295.36 L 409.20,304.23 L 411.21,331.02 L 398.01,355.99 L 404.74,362.84 L 405.60,371.49 L 424.42,390.33 L 432.78,394.07 L 430.72,405.22 L 439.60,406.01 L 439.06,388.71 L 433.31,382.13 L 442.85,366.12 L 448.34,367.35 L 458.97,362.14 L 461.15,336.91 L 458.93,327.01 L 463.65,315.51 L 461.41,305.97 L 431.43,267.79 L 422.76,260.18 L 414.01,259.24 L 410.27,252.51 L 408.27,226.75 L 402.76,207.06 L 413.08,181.99 L 449.01,183.38 L 460.59,175.34 L 474.01,182.01 L 475.25,186.96 L 491.99,187.77 L 499.62,181.80 L 501.84,181.71 L 501.84,436.31 L 500.12,436.21 L 501.84,438.27 L 501.84,447.13 L 485.99,463.60 L 483.42,472.82 L 476.76,469.16 L 477.90,477.10 L 473.17,477.48 L 472.27,473.46 L 461.73,479.54 L 442.47,500.00 L 340.33,500.00 L 343.91,484.88 Z M 414.62,202.09 L 415.91,204.04 L 418.80,200.64 L 416.12,199.03 L 414.62,202.09 Z M 410.22,199.47 L 412.86,201.94 L 413.50,198.50 L 410.22,199.47 Z" fill="#C8D8E8" stroke="#8BAABB" stroke-width="0.8"/>
<path d="M 330.64,88.37 L 326.93,83.75 L 307.86,80.44 L 307.81,75.22 L 298.16,74.49 L 298.16,0.00 L 501.84,0.00 L 501.84,181.71 L 499.62,181.80 L 491.99,187.77 L 475.25,186.96 L 474.01,182.01 L 460.59,175.34 L 450.77,183.08 L 426.74,181.80 L 423.68,173.81 L 418.92,172.58 L 412.95,162.78 L 415.37,148.66 L 411.68,140.08 L 409.92,120.03 L 401.34,106.97 L 389.35,97.21 L 385.39,106.92 L 378.43,101.52 L 366.82,103.03 L 361.37,97.81 L 330.64,88.37 Z" fill="#C8D8E8" stroke="#8BAABB" stroke-width="0.8"/>
<path d="M 349.06,103.31 L 356.46,102.25 L 363.06,111.50 L 361.52,120.87 L 370.52,127.63 L 376.06,141.59 L 369.25,149.34 L 358.71,153.94 L 364.93,165.31 L 358.62,175.47 L 357.93,181.41 L 361.23,182.61 L 361.91,189.82 L 359.50,204.64 L 363.30,212.24 L 370.28,213.36 L 363.34,220.51 L 350.55,223.74 L 347.26,230.08 L 350.11,236.03 L 349.50,247.54 L 342.23,260.68 L 336.35,263.43 L 340.53,265.47 L 340.27,270.73 L 344.63,272.48 L 349.57,281.76 L 355.08,276.69 L 357.54,280.28 L 298.16,300.04 L 298.16,74.49 L 307.81,75.22 L 307.86,80.44 L 326.93,83.75 L 330.64,88.37 L 346.46,94.40 L 349.06,103.31 Z" fill="#C8D8E8" stroke="#8BAABB" stroke-width="0.8"/>
<path d="M 413.08,181.99 L 411.00,192.19 L 402.94,205.24 L 408.27,226.75 L 410.27,252.51 L 414.01,259.24 L 422.76,260.18 L 431.43,267.79 L 461.41,305.97 L 463.65,315.51 L 458.93,327.01 L 461.15,336.91 L 458.97,362.14 L 448.34,367.35 L 442.85,366.12 L 433.31,382.13 L 440.32,394.76 L 440.11,404.99 L 437.35,406.25 L 430.72,405.22 L 432.78,394.07 L 424.42,390.33 L 405.60,371.49 L 404.74,362.84 L 398.01,355.99 L 411.05,332.08 L 408.56,302.95 L 402.37,295.36 L 390.85,299.71 L 377.87,299.48 L 374.90,304.01 L 360.58,282.18 L 355.08,276.69 L 349.57,281.76 L 344.63,272.48 L 340.27,270.73 L 340.53,265.47 L 336.35,263.43 L 342.23,260.68 L 349.50,247.54 L 350.11,236.03 L 347.26,230.08 L 350.55,223.74 L 363.34,220.51 L 370.28,213.36 L 363.30,212.24 L 359.50,204.64 L 361.91,189.82 L 361.23,182.61 L 357.93,181.41 L 358.62,175.47 L 364.93,165.31 L 358.71,153.94 L 369.25,149.34 L 376.06,141.59 L 370.52,127.63 L 361.52,120.87 L 363.06,111.50 L 356.46,102.25 L 349.06,103.31 L 347.07,93.75 L 356.37,98.57 L 361.37,97.81 L 366.82,103.03 L 378.43,101.52 L 385.39,106.92 L 389.35,97.21 L 401.34,106.97 L 409.92,120.03 L 411.68,140.08 L 415.37,148.66 L 412.95,162.78 L 418.92,172.58 L 423.68,173.81 L 426.74,181.80 L 413.08,181.99 Z M 418.80,200.64 L 415.91,204.04 L 414.62,202.09 L 416.12,199.03 L 418.80,200.64 Z M 413.50,198.50 L 412.86,201.94 L 410.22,199.47 L 413.50,198.50 Z" fill="#4A90D9" stroke="#1a5fa8" stroke-width="1.2"/>
<path d="M 423.95,280.17 L 421.42,288.04 L 416.71,290.81 L 410.50,282.91 L 413.78,267.75 L 401.62,255.34 L 401.86,235.37 L 396.17,224.10 L 395.57,215.03 L 390.41,209.92 L 391.56,199.09 L 401.62,184.48 L 396.05,141.62 L 399.49,136.08 L 385.21,111.33 L 389.35,97.21 L 401.34,106.97 L 409.46,118.65 L 415.37,148.66 L 412.95,162.78 L 426.59,178.77 L 426.40,191.49 L 423.00,200.73 L 416.14,206.60 L 415.90,216.26 L 421.28,227.86 L 418.50,236.21 L 422.53,267.34 L 430.84,269.61 L 439.44,293.29 L 436.96,295.24 L 423.95,280.17 Z M 417.91,202.60 L 418.58,200.78 L 417.48,200.23 L 417.91,202.60 Z" fill="#A8C8E8" stroke="none"/>
<path d="M 440.94,305.07 L 439.05,310.29 L 435.63,307.38 L 435.73,302.24 L 438.24,300.08 L 440.94,305.07 Z" fill="#A8C8E8" stroke="none"/>
<path d="M 307.02,20.11 L 307.24,20.11 L 307.21,20.12 L 307.02,20.11 Z M 331.46,42.52 L 314.75,34.96 L 308.98,37.70 L 302.30,22.93 L 308.68,20.21 L 331.46,42.52 Z" fill="#A8C8E8" stroke="none"/>
<path d="M 337.29,344.66 L 327.88,343.48 L 315.34,349.84 L 298.16,348.35 L 298.16,345.01 L 312.53,345.41 L 324.12,340.98 L 337.29,344.66 Z" fill="#A8C8E8" stroke="none"/>
</svg>