<svg xmlns="http://www.w3.org/2000/svg" width="800" height="500" viewBox="0 0 800 500">
<rect width="800" height="500" fill="#A8C8E8"/>
<path d="M 698.26,468.59 L 699.27,470.63 L 698.58,469.77 L 698.37,472.11 L 699.35,471.30 L 705.22,482.30 L 711.79,490.15 L 715.34,492.46 L 713.95,493.33 L 710.84,491.39 L 710.86,493.25 L 709.35,493.87 L 709.39,500.00 L 697.20,500.00 L 689.35,493.73 L 682.91,491.78 L 681.06,485.09 L 679.21,485.09 L 680.20,484.74 L 672.29,479.66 L 673.91,483.90 L 678.99,487.46 L 674.99,492.17 L 672.13,487.82 L 666.37,486.24 L 663.53,480.55 L 664.07,475.66 L 666.88,473.83 L 665.80,474.00 L 666.11,470.82 L 661.91,469.06 L 665.63,468.55 L 665.07,466.92 L 666.31,466.63 L 667.41,463.70 L 677.94,468.32 L 681.96,466.10 L 685.72,468.14 L 687.03,467.41 L 689.62,471.07 L 692.50,470.94 L 693.95,472.25 L 697.96,470.64 L 697.44,468.41 L 698.26,468.59 Z M 675.32,483.08 L 673.71,482.50 L 675.11,482.62 L 675.32,483.08 Z" fill="#E8E0D0" stroke="#B8B0A0" stroke-width="0.5"/>
<path d="M 653.22,454.25 L 648.86,446.71 L 634.68,434.74 L 634.74,433.21 L 636.15,431.45 L 639.07,434.40 L 640.70,434.29 L 639.29,433.98 L 640.31,433.22 L 644.72,433.25 L 646.49,431.42 L 646.68,428.78 L 649.95,427.76 L 648.96,420.08 L 655.69,419.89 L 659.54,414.94 L 665.13,418.73 L 665.37,416.30 L 674.17,410.17 L 674.56,405.99 L 676.39,405.57 L 676.00,404.29 L 678.37,401.65 L 680.14,401.58 L 681.60,404.09 L 685.02,405.04 L 686.91,403.39 L 688.42,404.04 L 688.51,402.65 L 689.99,403.40 L 690.88,402.05 L 693.83,402.57 L 698.71,400.69 L 700.40,398.30 L 706.37,398.55 L 703.79,401.86 L 703.35,399.98 L 702.59,400.51 L 701.73,401.87 L 703.71,402.43 L 705.49,409.72 L 701.62,416.45 L 699.60,425.75 L 700.83,442.94 L 698.37,443.47 L 698.37,440.40 L 699.66,439.17 L 699.53,436.13 L 698.23,436.57 L 699.13,439.24 L 696.20,440.93 L 697.75,445.30 L 698.69,444.12 L 697.84,450.32 L 697.41,447.79 L 696.93,447.16 L 696.15,447.06 L 697.17,447.95 L 695.74,449.07 L 696.44,451.03 L 695.23,452.33 L 696.31,453.47 L 697.38,452.69 L 698.14,456.66 L 696.42,457.73 L 694.73,462.61 L 697.96,470.64 L 693.80,472.22 L 692.50,470.94 L 689.62,471.07 L 687.03,467.41 L 685.72,468.14 L 681.96,466.10 L 677.94,468.32 L 667.41,463.70 L 665.77,465.92 L 653.22,454.25 Z M 697.77,468.59 L 697.59,468.38 L 697.66,468.37 L 697.77,468.59 Z M 696.81,451.11 L 697.27,450.33 L 697.07,452.34 L 696.81,451.11 Z M 707.55,447.25 L 707.92,446.83 L 708.10,446.98 L 707.55,447.25 Z M 712.66,409.34 L 712.37,409.48 L 711.46,409.40 L 712.66,409.34 Z" fill="#E8E0D0" stroke="#B8B0A0" stroke-width="0.5"/>
<path d="M 597.54,416.79 L 600.49,414.68 L 601.89,415.05 L 602.80,412.78 L 605.41,411.71 L 604.47,408.79 L 607.40,408.04 L 611.26,409.66 L 611.99,408.89 L 616.24,413.97 L 621.52,415.98 L 621.64,418.26 L 627.50,415.85 L 629.24,418.00 L 632.36,417.15 L 634.16,418.88 L 632.80,423.74 L 633.88,424.98 L 632.04,425.32 L 631.48,426.62 L 632.80,427.97 L 630.62,430.18 L 624.35,430.04 L 623.92,429.91 L 624.30,429.52 L 623.82,428.97 L 622.93,429.95 L 622.38,428.53 L 620.03,428.02 L 618.07,428.27 L 620.36,428.38 L 622.19,430.01 L 617.08,428.69 L 609.72,424.78 L 600.93,423.84 L 596.35,420.32 L 597.54,416.79 Z M 634.12,429.26 L 634.33,430.02 L 633.85,430.08 L 634.12,429.26 Z M 633.41,428.97 L 633.21,429.22 L 632.95,428.75 L 633.41,428.97 Z" fill="#E8E0D0" stroke="#B8B0A0" stroke-width="0.5"/>
<path d="M 792.03,315.40 L 793.92,310.95 L 800.00,307.03 L 800.00,314.46 L 792.03,315.40 Z M 799.39,302.79 L 800.00,301.68 L 800.00,303.20 L 799.39,302.79 Z M 797.76,300.11 L 786.35,300.23 L 779.68,294.60 L 779.52,290.62 L 775.63,284.32 L 768.30,285.83 L 761.30,283.37 L 758.16,283.57 L 757.46,282.19 L 755.75,282.86 L 748.73,277.20 L 749.67,276.65 L 748.16,274.76 L 747.31,275.23 L 748.37,277.35 L 738.62,276.59 L 736.95,273.22 L 736.78,277.03 L 736.24,275.46 L 734.68,276.53 L 731.75,274.54 L 727.00,274.81 L 721.64,271.23 L 729.73,269.67 L 729.86,268.21 L 726.16,266.37 L 712.23,265.92 L 701.87,274.86 L 699.35,273.82 L 697.84,275.11 L 693.82,275.11 L 692.18,279.44 L 688.85,279.60 L 684.62,282.07 L 684.81,279.20 L 679.38,281.11 L 677.65,280.18 L 684.41,277.24 L 688.09,277.71 L 685.61,274.54 L 689.28,268.03 L 690.36,268.27 L 691.89,265.71 L 702.22,262.98 L 704.86,260.83 L 705.76,262.06 L 707.47,260.52 L 709.00,261.32 L 720.76,257.52 L 730.84,258.14 L 731.66,260.05 L 737.66,257.20 L 735.49,258.61 L 737.66,260.26 L 738.78,259.07 L 745.33,259.32 L 746.37,258.17 L 747.01,260.73 L 748.99,261.72 L 755.08,261.56 L 757.12,263.45 L 757.97,262.86 L 759.07,262.62 L 758.06,263.94 L 761.30,265.01 L 766.20,270.95 L 775.04,271.34 L 775.79,272.62 L 776.21,271.41 L 786.36,276.57 L 789.15,280.30 L 789.60,278.65 L 790.45,278.65 L 789.78,279.60 L 791.31,281.42 L 795.98,281.90 L 796.38,283.95 L 797.69,284.28 L 796.09,281.47 L 793.48,280.06 L 794.40,279.29 L 800.00,283.11 L 800.00,285.51 L 797.42,284.74 L 799.15,285.50 L 799.10,287.07 L 800.00,287.03 L 800.00,301.47 L 797.76,300.11 Z M 782.03,303.56 L 780.07,302.11 L 780.54,301.99 L 782.03,303.56 Z M 779.30,300.58 L 778.77,300.36 L 779.74,299.88 L 779.30,300.58 Z M 774.64,299.44 L 775.53,299.98 L 774.87,300.09 L 774.64,299.44 Z M 773.54,298.55 L 774.01,299.17 L 772.16,298.47 L 773.54,298.55 Z M 772.05,297.44 L 771.77,298.04 L 770.34,297.03 L 772.05,297.44 Z M 769.77,296.80 L 768.05,295.17 L 769.42,295.57 L 769.77,296.80 Z M 765.95,293.07 L 766.97,293.98 L 766.22,294.01 L 765.95,293.07 Z M 732.17,284.63 L 731.16,284.89 L 731.31,284.47 L 734.14,283.13 L 732.17,284.63 Z M 714.83,285.95 L 709.91,287.74 L 707.19,287.19 L 705.41,284.42 L 709.08,285.60 L 707.08,281.50 L 708.60,278.95 L 713.11,279.91 L 715.25,284.32 L 714.83,285.95 Z M 792.07,279.60 L 788.18,276.30 L 789.41,276.76 L 790.41,276.35 L 793.16,277.13 L 792.07,279.60 Z M 789.27,272.75 L 791.21,274.99 L 790.83,275.00 L 789.27,272.75 Z M 786.66,274.64 L 787.26,274.04 L 787.33,273.14 L 787.10,272.65 L 790.13,275.35 L 789.54,276.36 L 786.66,274.64 Z M 782.45,271.11 L 785.11,270.68 L 787.21,273.22 L 782.45,271.11 Z M 778.85,270.17 L 776.43,269.33 L 776.39,268.75 L 781.13,268.43 L 782.99,270.34 L 778.85,270.17 Z M 771.52,266.76 L 770.22,266.50 L 772.21,266.71 L 771.52,266.76 Z M 763.38,265.66 L 762.57,264.50 L 761.56,264.26 L 762.60,264.23 L 765.72,266.42 L 766.44,267.46 L 763.38,265.66 Z M 757.41,261.95 L 756.60,262.09 L 756.48,261.67 L 757.41,261.95 Z M 751.86,260.67 L 752.14,261.56 L 750.31,261.09 L 751.86,260.67 Z M 753.18,259.27 L 753.73,259.36 L 752.25,259.32 L 753.18,259.27 Z M 743.10,258.23 L 742.69,258.52 L 740.46,258.95 L 743.10,258.23 Z M 747.99,257.96 L 746.64,257.78 L 746.97,257.33 L 747.99,257.96 Z M 778.25,301.32 L 778.14,301.40 L 777.70,301.15 L 778.25,301.32 Z M 777.44,301.14 L 777.42,301.24 L 777.18,301.25 L 777.44,301.14 Z M 724.39,284.79 L 722.42,285.46 L 724.28,284.49 L 724.39,284.79 Z M 725.78,284.68 L 725.29,284.45 L 725.24,284.22 L 726.55,283.85 L 725.78,284.68 Z M 714.63,279.12 L 714.89,279.32 L 713.84,279.23 L 714.63,279.12 Z M 699.82,278.73 L 699.08,278.75 L 698.84,278.64 L 699.82,278.73 Z M 731.38,277.30 L 730.72,276.81 L 730.82,276.74 L 731.38,277.30 Z M 775.72,269.04 L 775.29,269.14 L 775.26,268.74 L 775.72,269.04 Z M 716.21,267.91 L 715.97,268.44 L 715.88,267.05 L 716.21,267.91 Z M 768.19,267.00 L 768.80,266.97 L 768.34,267.32 L 768.19,267.00 Z M 760.05,263.16 L 760.11,262.51 L 760.25,262.92 L 760.05,263.16 Z M 758.53,262.25 L 758.23,262.40 L 757.84,261.76 L 758.53,262.25 Z M 754.92,260.40 L 754.31,260.03 L 754.59,259.66 L 754.92,260.40 Z M 751.85,259.40 L 750.98,258.54 L 751.50,258.45 L 751.85,259.40 Z M 749.86,258.24 L 748.54,258.65 L 748.76,258.27 L 749.86,258.24 Z M 745.15,257.64 L 744.68,257.76 L 744.83,257.35 L 745.15,257.64 Z M 744.56,257.57 L 742.20,257.07 L 742.57,257.01 L 744.56,257.57 Z M 741.93,256.86 L 740.92,256.43 L 741.39,256.29 L 741.93,256.86 Z" fill="#E8E0D0" stroke="#B8B0A0" stroke-width="0.5"/>
<path d="M 611.16,405.70 L 610.02,401.10 L 611.15,397.46 L 624.48,386.89 L 627.60,386.52 L 630.26,383.58 L 635.94,382.40 L 637.70,384.97 L 639.82,383.87 L 646.59,385.41 L 655.15,385.23 L 662.12,382.38 L 662.34,381.23 L 660.94,380.76 L 665.75,381.70 L 669.14,383.54 L 676.85,381.50 L 681.96,383.42 L 682.22,385.17 L 685.49,384.81 L 682.51,383.65 L 687.99,384.54 L 696.91,391.59 L 692.58,389.25 L 691.01,389.01 L 691.23,390.19 L 690.59,389.01 L 689.28,389.01 L 693.62,394.04 L 695.46,393.84 L 692.22,391.47 L 695.58,392.96 L 696.44,395.02 L 698.59,393.40 L 700.10,393.60 L 700.02,394.86 L 699.08,394.42 L 698.62,395.47 L 700.83,394.79 L 700.07,393.32 L 698.80,393.25 L 697.33,391.58 L 701.99,393.91 L 703.94,397.32 L 706.37,398.55 L 700.40,398.30 L 698.71,400.69 L 693.83,402.57 L 690.88,402.05 L 689.99,403.40 L 688.51,402.65 L 688.42,404.04 L 686.91,403.39 L 685.02,405.04 L 681.60,404.09 L 680.14,401.58 L 678.37,401.65 L 676.00,404.29 L 676.39,405.57 L 674.56,405.99 L 674.17,410.17 L 665.37,416.30 L 665.13,418.73 L 662.18,417.21 L 660.74,414.75 L 655.69,419.89 L 648.96,420.08 L 649.95,427.76 L 646.68,428.78 L 646.49,431.42 L 644.72,433.25 L 640.31,433.22 L 640.47,431.21 L 638.65,430.99 L 637.18,427.97 L 638.95,425.83 L 635.50,426.51 L 635.42,424.88 L 634.33,426.60 L 632.37,425.91 L 633.88,424.98 L 632.80,423.74 L 634.16,418.88 L 632.36,417.15 L 629.24,418.00 L 627.92,415.88 L 625.77,415.82 L 624.97,417.32 L 621.64,418.26 L 621.52,415.98 L 616.24,413.97 L 611.99,408.89 L 607.98,408.55 L 611.16,405.70 Z M 635.41,428.55 L 634.74,428.50 L 634.63,428.02 L 635.41,428.55 Z M 636.26,426.51 L 635.94,427.67 L 634.87,427.20 L 636.26,426.51 Z M 647.19,379.69 L 645.31,379.85 L 646.15,379.29 L 647.19,379.69 Z M 654.11,374.47 L 655.82,373.90 L 658.19,373.92 L 651.49,376.39 L 654.11,374.47 Z M 663.41,372.39 L 663.95,372.72 L 661.90,374.35 L 663.41,372.39 Z M 693.81,356.92 L 694.03,357.01 L 693.74,357.04 L 693.81,356.92 Z" fill="#E8E0D0" stroke="#B8B0A0" stroke-width="0.5"/>
<path d="M 728.69,440.42 L 729.10,439.94 L 728.69,441.47 L 728.69,440.42 Z M 733.92,427.03 L 734.25,426.47 L 734.55,426.91 L 733.92,427.03 Z M 754.39,422.98 L 754.38,422.99 L 754.37,422.96 L 754.39,422.98 Z" fill="#E8E0D0" stroke="#B8B0A0" stroke-width="0.5"/>
<path d="M 718.81,494.28 L 718.69,498.16 L 721.53,498.29 L 720.11,498.90 L 720.22,500.00 L 709.39,500.00 L 709.35,493.87 L 710.86,493.25 L 710.84,491.39 L 714.24,493.39 L 715.17,491.81 L 718.81,494.28 Z M 725.28,499.50 L 726.07,498.64 L 727.25,500.00 L 725.66,500.00 L 725.28,499.50 Z M 753.76,498.18 L 756.54,495.30 L 756.92,496.49 L 757.84,494.77 L 759.07,495.72 L 761.64,491.26 L 772.06,491.86 L 770.68,493.85 L 780.24,494.69 L 786.80,497.66 L 788.94,500.00 L 770.55,500.00 L 770.77,499.59 L 771.16,499.82 L 771.95,499.23 L 770.77,499.47 L 770.09,500.00 L 747.77,500.00 L 753.76,498.18 Z M 789.60,499.83 L 789.72,500.00 L 789.61,500.00 L 789.60,499.83 Z M 723.05,496.76 L 722.03,497.51 L 720.88,495.72 L 723.05,496.76 Z M 720.02,494.17 L 720.34,496.05 L 719.79,495.28 L 719.04,494.64 L 720.02,494.17 Z M 731.37,499.96 L 731.40,500.00 L 731.30,500.00 L 731.37,499.96 Z M 723.41,498.59 L 724.06,499.29 L 723.43,499.21 L 723.41,498.59 Z" fill="#E8E0D0" stroke="#B8B0A0" stroke-width="0.5"/>
<path d="M 787.76,240.44 L 789.75,239.33 L 790.56,239.27 L 787.76,240.44 Z M 788.40,239.74 L 787.12,239.38 L 788.46,238.91 L 788.40,239.74 Z M 794.24,248.11 L 790.89,248.01 L 792.52,247.76 L 794.08,246.28 L 791.80,247.36 L 791.10,246.70 L 792.67,246.00 L 792.74,245.64 L 790.56,246.12 L 790.02,243.28 L 788.30,241.99 L 792.52,238.44 L 793.21,239.37 L 791.21,240.68 L 791.43,243.04 L 793.58,239.90 L 794.89,244.16 L 793.69,245.29 L 794.89,244.80 L 794.24,248.11 Z M 790.47,238.02 L 791.82,237.26 L 792.40,237.58 L 790.47,238.02 Z M 794.30,226.12 L 799.01,225.45 L 797.18,226.42 L 794.30,226.12 Z M 782.47,231.44 L 782.23,233.58 L 784.28,233.26 L 782.58,231.12 L 784.90,226.44 L 784.00,223.27 L 786.67,223.30 L 791.54,231.61 L 791.83,235.05 L 786.95,238.96 L 785.26,235.02 L 783.81,235.64 L 780.59,233.30 L 782.47,231.44 Z M 789.27,213.22 L 789.27,212.86 L 789.62,213.07 L 790.24,214.27 L 789.27,213.22 Z M 794.13,204.62 L 794.02,203.44 L 794.17,203.52 L 794.13,204.62 Z M 775.28,200.50 L 771.63,197.18 L 776.11,199.43 L 778.33,197.47 L 777.25,196.94 L 778.01,195.30 L 782.33,197.43 L 788.72,195.88 L 788.51,198.25 L 775.28,200.50 Z M 787.98,193.88 L 789.47,193.27 L 793.59,193.41 L 800.00,198.47 L 800.00,199.37 L 797.97,198.84 L 794.74,194.39 L 787.98,193.88 Z M 799.60,211.22 L 796.73,208.73 L 799.65,206.73 L 799.22,203.86 L 800.00,201.49 L 800.00,208.66 L 799.60,211.22 Z M 763.42,252.36 L 763.09,252.08 L 763.48,252.33 L 763.42,252.36 Z M 762.87,251.67 L 762.21,250.97 L 762.30,251.03 L 762.87,251.67 Z M 767.39,217.19 L 767.46,217.36 L 767.42,217.35 L 767.39,217.19 Z M 767.04,216.76 L 767.18,217.02 L 767.03,216.83 L 767.04,216.76 Z M 789.92,237.63 L 790.03,237.64 L 789.48,238.16 L 789.92,237.63 Z M 789.29,219.43 L 788.86,219.41 L 789.96,218.97 L 789.29,219.43 Z M 767.52,214.42 L 766.85,214.44 L 767.17,213.42 L 767.52,214.42 Z M 799.37,201.62 L 799.16,201.71 L 798.78,201.23 L 799.37,201.62 Z M 790.00,198.74 L 789.46,199.54 L 789.07,198.88 L 790.00,198.74 Z" fill="#E8E0D0" stroke="#B8B0A0" stroke-width="0.5"/>
<path d="M 799.76,350.80 L 800.00,350.83 L 800.00,351.72 L 796.58,349.26 L 791.64,349.38 L 786.59,343.70 L 781.47,342.31 L 783.74,339.24 L 787.86,339.26 L 788.93,337.96 L 798.87,338.98 L 800.00,339.14 L 800.00,350.42 L 799.76,350.80 Z" fill="#E8E0D0" stroke="#B8B0A0" stroke-width="0.5"/>
<path d="M 738.65,324.34 L 733.90,325.14 L 733.44,323.31 L 734.49,324.48 L 738.65,324.34 Z M 756.37,317.55 L 754.02,318.35 L 754.82,317.62 L 756.37,317.55 Z M 759.82,316.64 L 760.12,317.00 L 757.48,317.98 L 759.82,316.64 Z" fill="#E8E0D0" stroke="#B8B0A0" stroke-width="0.5"/>
<path d="M 294.43,479.68 L 294.18,479.22 L 294.32,479.17 L 294.43,479.68 Z" fill="#E8E0D0" stroke="#B8B0A0" stroke-width="0.5"/>
<path d="M 756.00,384.80 L 756.02,384.83 L 755.99,384.83 L 756.00,384.80 Z" fill="#E8E0D0" stroke="#B8B0A0" stroke-width="0.5"/>
<path d="M 777.27,383.63 L 777.33,383.57 L 777.33,383.66 L 777.27,383.63 Z" fill="#E8E0D0" stroke="#B8B0A0" stroke-width="0.5"/>
<path d="M 611.26,347.90 L 612.91,346.90 L 615.72,348.76 L 621.15,339.07 L 624.68,338.60 L 623.31,340.51 L 624.47,340.43 L 623.83,341.66 L 627.95,340.42 L 627.17,341.56 L 627.98,341.14 L 628.16,343.27 L 624.94,353.69 L 626.84,355.28 L 624.96,358.24 L 626.09,364.65 L 624.04,372.27 L 624.57,369.90 L 621.01,376.62 L 617.80,377.33 L 614.45,383.36 L 609.96,383.12 L 611.26,347.90 Z M 632.42,357.53 L 632.58,359.06 L 632.25,359.06 L 632.42,357.53 Z M 632.81,354.93 L 632.84,355.54 L 630.64,359.29 L 632.81,354.93 Z M 628.64,353.66 L 628.79,354.57 L 628.60,354.41 L 628.64,353.66 Z M 627.28,352.18 L 628.36,351.45 L 627.84,352.36 L 627.28,352.18 Z M 630.82,347.18 L 630.52,347.86 L 630.02,348.37 L 629.34,348.56 L 631.74,343.96 L 630.82,347.18 Z M 628.41,355.65 L 628.27,356.15 L 627.63,355.26 L 628.41,355.65 Z M 630.07,345.51 L 629.77,345.66 L 629.73,345.55 L 630.07,345.51 Z M 630.49,345.09 L 630.21,345.36 L 630.16,345.21 L 630.49,345.09 Z M 631.46,343.49 L 631.25,343.86 L 631.21,343.48 L 631.46,343.49 Z" fill="#C8D8E8" stroke="#8BAABB" stroke-width="0.8"/>
<path d="M 604.47,408.79 L 605.41,411.71 L 602.80,412.78 L 601.89,415.05 L 600.49,414.68 L 597.54,416.79 L 596.35,420.32 L 588.74,417.19 L 577.11,416.46 L 562.43,406.30 L 563.78,403.94 L 563.89,398.57 L 565.15,397.23 L 562.98,393.82 L 570.43,380.24 L 590.99,379.59 L 591.67,374.08 L 587.90,372.98 L 585.32,367.43 L 581.24,365.67 L 577.70,360.99 L 575.12,359.99 L 582.24,359.75 L 582.38,350.14 L 611.16,350.08 L 609.96,383.12 L 617.05,383.72 L 619.86,386.42 L 620.68,383.82 L 621.76,383.93 L 619.92,381.81 L 625.99,386.01 L 611.15,397.46 L 610.02,401.10 L 611.16,405.70 L 607.98,408.55 L 604.47,408.79 Z" fill="#C8D8E8" stroke="#8BAABB" stroke-width="0.8"/>
<path d="M 798.84,14.55 L 800.00,14.65 L 800.00,60.54 L 797.86,61.95 L 796.84,61.47 L 797.92,60.42 L 796.30,58.64 L 797.14,60.73 L 796.07,61.13 L 797.19,62.53 L 794.71,63.54 L 791.64,66.17 L 790.03,68.04 L 789.37,69.50 L 788.79,72.32 L 788.30,72.80 L 788.62,69.74 L 787.98,68.32 L 787.10,73.39 L 781.47,72.45 L 775.33,75.41 L 769.49,81.63 L 768.70,85.06 L 767.30,83.35 L 768.60,81.29 L 767.22,82.63 L 766.99,84.03 L 768.70,85.65 L 766.22,86.13 L 766.97,86.94 L 765.73,87.71 L 765.48,88.51 L 762.36,88.57 L 762.30,90.29 L 758.51,92.89 L 756.69,91.36 L 757.58,94.17 L 753.01,96.26 L 751.61,95.32 L 752.58,96.37 L 750.70,97.61 L 747.28,96.37 L 745.23,97.05 L 748.25,97.79 L 746.53,98.15 L 748.57,98.73 L 747.17,100.04 L 749.02,98.96 L 747.07,101.22 L 745.75,101.42 L 745.43,98.05 L 745.27,100.76 L 743.81,99.81 L 743.40,97.47 L 742.30,96.73 L 743.19,100.51 L 745.10,102.32 L 742.84,104.15 L 743.53,102.45 L 743.36,101.96 L 741.68,105.00 L 742.61,105.96 L 741.00,106.42 L 740.68,108.09 L 738.15,107.60 L 737.76,108.51 L 739.38,108.99 L 738.35,110.44 L 735.70,110.05 L 736.92,110.87 L 734.79,113.71 L 734.87,117.22 L 732.24,116.89 L 735.79,118.77 L 733.92,120.78 L 732.83,119.67 L 732.24,121.26 L 733.61,121.59 L 733.32,122.79 L 731.91,121.61 L 732.90,122.84 L 731.81,123.62 L 732.90,123.85 L 731.59,125.74 L 732.13,128.31 L 733.25,128.70 L 733.10,131.41 L 732.29,129.74 L 732.11,130.94 L 733.54,132.57 L 735.38,142.25 L 741.24,156.45 L 745.90,163.64 L 747.46,166.70 L 746.45,171.26 L 748.68,177.13 L 746.02,171.27 L 746.32,164.51 L 743.71,164.30 L 743.93,162.07 L 742.41,161.23 L 744.15,168.41 L 749.79,180.58 L 750.35,183.18 L 752.68,188.67 L 752.69,188.93 L 752.38,188.44 L 750.84,187.86 L 753.46,189.66 L 755.20,195.29 L 753.77,213.11 L 753.58,210.95 L 750.96,215.81 L 749.45,223.24 L 746.88,222.22 L 744.58,223.95 L 738.40,224.30 L 737.22,222.53 L 737.41,221.32 L 737.96,220.52 L 738.79,221.75 L 740.25,222.41 L 739.92,222.76 L 741.32,222.22 L 737.78,219.83 L 734.51,212.39 L 730.18,210.15 L 728.46,210.61 L 729.52,209.56 L 727.37,207.55 L 726.50,201.52 L 724.09,200.91 L 727.69,196.94 L 723.61,200.16 L 722.69,193.60 L 724.57,192.10 L 721.77,193.28 L 719.90,191.76 L 721.85,195.42 L 719.27,194.63 L 715.17,185.24 L 713.20,184.21 L 712.71,183.18 L 714.92,183.38 L 714.17,183.03 L 718.07,178.08 L 717.56,176.26 L 715.90,177.85 L 715.68,175.82 L 713.31,174.19 L 714.05,175.37 L 712.87,176.08 L 715.35,176.79 L 713.90,180.08 L 711.35,177.72 L 712.55,179.50 L 712.87,180.69 L 710.92,177.78 L 713.74,167.13 L 714.22,159.56 L 711.58,154.62 L 707.79,154.53 L 697.69,141.78 L 692.26,138.59 L 689.34,138.58 L 686.59,139.87 L 687.18,140.94 L 685.48,140.33 L 685.28,140.60 L 687.23,141.34 L 687.13,142.11 L 686.68,142.36 L 684.62,141.76 L 678.82,145.01 L 678.85,143.79 L 676.79,145.31 L 671.39,145.96 L 670.67,145.31 L 670.32,142.98 L 671.79,145.70 L 671.22,142.34 L 666.12,138.11 L 669.87,140.08 L 670.62,139.47 L 665.48,137.06 L 668.08,135.52 L 667.59,134.81 L 663.36,135.87 L 665.48,138.11 L 653.00,133.41 L 659.36,133.77 L 657.79,131.74 L 654.61,132.49 L 653.35,131.41 L 651.55,133.23 L 648.71,133.16 L 642.21,134.23 L 646.95,132.87 L 644.80,129.97 L 644.05,132.69 L 642.42,130.36 L 642.80,132.26 L 640.08,134.92 L 636.92,135.65 L 639.81,133.07 L 638.53,132.11 L 637.79,134.24 L 635.61,134.23 L 635.95,135.69 L 634.94,136.09 L 629.01,136.57 L 633.20,135.61 L 632.30,133.46 L 630.88,133.31 L 630.86,130.38 L 629.01,127.73 L 627.31,134.92 L 624.19,133.48 L 622.05,134.85 L 620.15,133.63 L 617.76,134.33 L 614.83,132.82 L 613.97,133.16 L 615.91,133.40 L 609.69,134.93 L 608.45,133.94 L 606.70,137.16 L 604.28,137.74 L 594.91,133.70 L 591.51,136.64 L 591.36,138.59 L 595.24,140.00 L 603.15,137.60 L 602.36,139.85 L 600.42,140.23 L 603.20,142.57 L 606.01,139.11 L 607.91,139.59 L 606.51,140.83 L 607.85,141.27 L 606.83,141.65 L 608.45,142.49 L 608.24,144.01 L 606.07,143.29 L 604.19,144.99 L 606.07,146.72 L 602.60,145.42 L 603.91,146.84 L 601.74,146.72 L 605.43,149.55 L 605.17,150.79 L 610.58,151.55 L 613.53,154.62 L 612.16,154.88 L 613.33,155.09 L 611.58,157.69 L 609.78,155.81 L 607.16,158.86 L 609.33,154.87 L 607.63,156.12 L 606.50,153.32 L 600.77,152.19 L 601.95,151.27 L 600.80,149.47 L 595.03,147.66 L 594.58,148.77 L 597.53,150.25 L 597.62,152.50 L 594.28,156.14 L 593.78,152.99 L 592.55,152.27 L 591.68,153.45 L 591.04,151.48 L 588.38,152.34 L 587.78,155.21 L 583.94,155.33 L 576.93,152.56 L 578.59,151.09 L 579.68,153.32 L 580.32,152.97 L 577.96,149.56 L 578.50,147.17 L 577.39,149.30 L 575.34,147.89 L 573.28,148.36 L 572.04,144.86 L 568.56,145.26 L 568.73,143.33 L 563.12,144.48 L 564.74,145.42 L 564.62,146.95 L 565.93,146.84 L 561.36,148.44 L 547.38,144.33 L 537.41,145.58 L 536.42,144.02 L 538.53,141.10 L 537.04,140.66 L 535.72,143.76 L 536.70,146.01 L 533.13,146.09 L 522.69,151.32 L 523.67,149.67 L 526.77,148.58 L 527.07,147.89 L 522.44,148.51 L 523.80,145.65 L 523.15,144.17 L 520.22,146.35 L 518.12,144.73 L 519.17,146.02 L 518.57,148.30 L 521.77,151.19 L 517.12,154.62 L 516.26,154.03 L 516.44,156.84 L 509.44,161.69 L 503.92,162.98 L 504.10,164.07 L 507.59,162.52 L 499.70,166.41 L 503.35,163.74 L 499.58,164.73 L 501.00,164.05 L 499.76,164.01 L 500.19,162.95 L 497.70,163.90 L 497.11,162.27 L 496.13,161.69 L 497.32,164.05 L 496.41,164.59 L 495.37,164.87 L 496.10,163.90 L 492.88,162.28 L 493.55,164.87 L 495.37,166.05 L 494.51,166.76 L 496.78,167.35 L 492.84,169.34 L 490.63,166.58 L 491.05,167.77 L 489.82,167.68 L 490.81,170.68 L 489.26,172.24 L 488.24,172.66 L 488.78,170.30 L 487.79,172.53 L 487.15,171.24 L 484.63,172.10 L 483.93,173.55 L 485.01,174.74 L 487.04,173.11 L 484.46,177.64 L 479.14,177.02 L 481.20,177.48 L 483.27,180.08 L 480.88,186.27 L 478.82,187.04 L 479.68,185.15 L 477.42,186.87 L 475.14,183.98 L 476.83,186.69 L 475.36,187.24 L 480.64,187.50 L 479.78,191.66 L 478.48,192.15 L 479.77,194.14 L 478.49,194.83 L 482.46,207.12 L 484.02,207.67 L 483.33,209.26 L 484.97,207.95 L 485.20,209.68 L 482.18,210.39 L 481.59,211.93 L 476.95,208.72 L 468.06,207.95 L 458.92,202.84 L 454.11,201.96 L 451.87,195.01 L 448.50,191.06 L 447.66,181.91 L 442.64,178.67 L 439.10,172.46 L 435.65,170.06 L 434.90,166.05 L 430.14,158.92 L 429.43,155.63 L 420.85,148.48 L 420.51,146.92 L 419.28,147.34 L 417.81,144.24 L 406.69,143.83 L 403.35,142.25 L 402.00,144.26 L 397.50,144.95 L 394.47,151.71 L 394.86,153.69 L 390.69,157.69 L 386.52,157.13 L 380.25,152.90 L 375.93,151.80 L 368.68,146.37 L 366.09,141.42 L 366.07,137.10 L 362.08,129.92 L 355.30,125.79 L 345.87,116.84 L 341.95,115.01 L 339.07,110.39 L 310.28,109.84 L 310.28,117.59 L 265.24,117.48 L 205.95,97.41 L 207.49,93.75 L 169.58,96.87 L 167.99,94.02 L 169.74,95.69 L 169.46,94.15 L 168.80,93.51 L 167.53,94.12 L 166.47,86.94 L 163.53,83.04 L 153.92,76.02 L 152.72,76.22 L 152.27,75.55 L 151.75,75.64 L 151.40,75.79 L 151.17,76.71 L 149.26,76.05 L 149.59,74.43 L 147.65,71.22 L 143.03,71.61 L 137.95,69.87 L 131.09,64.47 L 117.02,63.99 L 114.14,61.92 L 114.01,52.00 L 110.35,50.55 L 111.06,48.62 L 110.18,46.95 L 103.85,42.96 L 100.40,37.14 L 94.19,31.96 L 92.91,27.15 L 96.34,24.77 L 95.70,22.81 L 94.10,20.52 L 90.48,20.58 L 87.25,17.95 L 84.39,10.85 L 84.47,6.55 L 86.16,6.05 L 86.70,9.60 L 91.03,12.16 L 92.10,12.02 L 89.18,6.94 L 87.37,6.53 L 87.65,4.75 L 85.82,3.40 L 86.82,2.57 L 97.50,2.63 L 98.82,1.08 L 98.72,2.42 L 101.37,2.72 L 98.86,0.97 L 96.10,2.17 L 97.62,0.25 L 94.22,1.87 L 91.74,0.48 L 90.55,2.06 L 86.35,0.15 L 84.68,0.83 L 85.58,3.04 L 84.66,4.08 L 85.68,4.81 L 84.26,5.94 L 78.08,1.66 L 77.41,2.92 L 76.38,2.88 L 77.61,0.31 L 77.48,0.00 L 78.15,0.00 L 79.57,1.54 L 79.47,1.14 L 78.59,0.00 L 800.00,0.00 L 800.00,14.52 L 798.84,14.55 Z M 728.46,234.08 L 727.15,234.32 L 727.22,234.05 L 728.46,234.08 Z M 729.64,233.37 L 729.75,233.74 L 728.55,234.08 L 729.64,233.37 Z M 731.63,233.07 L 729.96,233.61 L 731.69,232.91 L 731.16,231.72 L 732.02,232.66 L 731.63,233.07 Z M 737.87,231.49 L 739.38,231.02 L 738.81,231.45 L 737.87,231.49 Z M 734.40,231.85 L 734.29,232.79 L 734.26,232.28 L 733.22,230.67 L 734.40,231.85 Z M 740.66,230.76 L 739.49,231.25 L 740.72,230.43 L 740.66,230.76 Z M 743.14,229.72 L 742.30,229.83 L 742.46,229.64 L 743.14,229.72 Z M 750.10,223.70 L 746.67,227.30 L 746.36,227.31 L 750.16,222.54 L 749.98,221.53 L 751.83,220.52 L 750.10,223.70 Z M 752.38,219.30 L 752.05,219.46 L 752.83,217.87 L 752.38,219.30 Z M 752.91,214.17 L 753.34,213.80 L 753.31,214.76 L 752.91,214.17 Z M 723.80,201.54 L 721.64,201.43 L 720.99,199.77 L 723.80,201.54 Z M 720.34,197.29 L 720.66,198.73 L 720.31,197.99 L 720.34,197.29 Z M 722.13,198.75 L 721.42,197.18 L 722.43,197.99 L 722.93,200.79 L 722.13,198.75 Z M 720.15,196.19 L 720.02,196.94 L 719.68,195.43 L 720.15,196.19 Z M 484.74,207.47 L 481.09,194.95 L 480.97,189.88 L 481.18,188.72 L 481.41,188.46 L 481.95,196.22 L 484.74,207.47 Z M 713.47,184.57 L 714.92,186.46 L 713.98,185.48 L 713.47,184.57 Z M 486.67,177.67 L 481.09,188.10 L 483.36,180.69 L 484.12,181.15 L 486.67,177.67 Z M 748.79,177.29 L 753.23,189.05 L 751.18,184.86 L 748.79,177.29 Z M 489.74,173.61 L 486.82,177.38 L 487.80,174.66 L 489.26,172.60 L 489.74,173.61 Z M 745.69,171.32 L 745.56,171.00 L 745.87,171.72 L 745.69,171.32 Z M 496.58,169.18 L 489.96,173.61 L 490.40,171.61 L 496.40,168.07 L 496.58,169.18 Z M 498.22,166.94 L 499.49,166.41 L 498.68,167.13 L 497.32,167.83 L 498.22,166.94 Z M 746.14,165.05 L 745.54,170.96 L 744.16,166.49 L 746.14,165.05 Z M 583.64,156.64 L 584.01,156.75 L 583.45,156.75 L 583.64,156.64 Z M 592.99,156.21 L 593.42,156.15 L 593.42,156.28 L 592.99,156.21 Z M 598.60,153.20 L 597.42,153.91 L 597.52,153.53 L 598.60,153.20 Z M 523.30,151.90 L 517.11,156.10 L 521.57,151.44 L 523.30,151.90 Z M 611.07,149.33 L 610.19,149.55 L 610.96,149.21 L 611.07,149.33 Z M 568.84,149.30 L 565.76,147.37 L 567.63,146.48 L 570.74,147.62 L 568.84,149.30 Z M 674.14,146.12 L 673.49,145.78 L 675.49,145.83 L 674.14,146.12 Z M 681.71,144.48 L 680.20,145.66 L 677.34,147.10 L 676.08,147.21 L 675.32,146.84 L 681.71,144.48 Z M 606.94,144.83 L 605.95,144.96 L 605.94,143.97 L 606.94,144.83 Z M 609.31,143.66 L 609.10,144.36 L 608.37,143.75 L 609.31,143.66 Z M 683.54,143.52 L 682.15,144.23 L 682.27,144.09 L 683.54,143.52 Z M 609.97,141.60 L 609.05,141.80 L 609.29,141.50 L 609.97,141.60 Z M 609.02,141.42 L 608.51,141.87 L 609.30,140.73 L 609.02,141.42 Z M 616.05,139.62 L 616.57,140.71 L 616.68,141.88 L 616.52,143.30 L 615.99,144.39 L 616.05,139.62 Z M 606.98,137.97 L 606.88,138.13 L 606.75,138.07 L 606.98,137.97 Z M 610.18,139.84 L 608.24,139.29 L 610.84,137.52 L 609.75,138.67 L 610.18,139.84 Z M 614.83,136.68 L 614.18,136.80 L 614.21,136.74 L 614.83,136.68 Z M 621.54,136.57 L 622.73,136.70 L 622.63,136.82 L 621.54,136.57 Z M 612.36,137.06 L 611.27,136.47 L 612.48,136.28 L 612.36,137.06 Z M 620.99,136.56 L 617.54,136.12 L 618.46,135.99 L 620.99,136.56 Z M 628.05,136.21 L 624.57,136.35 L 627.76,135.67 L 628.05,136.21 Z M 652.82,133.52 L 641.46,134.81 L 640.59,134.71 L 652.82,133.52 Z M 732.40,124.86 L 733.43,123.73 L 732.72,127.94 L 732.40,124.86 Z M 147.89,91.38 L 146.18,88.28 L 146.86,88.40 L 150.10,91.77 L 147.89,91.38 Z M 765.90,88.71 L 765.78,88.71 L 765.86,88.07 L 765.90,88.71 Z M 133.12,84.96 L 130.84,84.06 L 131.58,83.88 L 133.12,84.96 Z M 146.23,80.61 L 149.94,81.78 L 150.96,83.49 L 148.45,83.24 L 146.23,80.61 Z M 787.86,74.22 L 787.10,73.74 L 787.46,73.34 L 787.86,74.22 Z M 124.68,72.62 L 122.45,73.44 L 120.26,71.59 L 123.49,70.96 L 124.68,72.62 Z M 119.32,71.29 L 117.10,70.99 L 118.36,70.29 L 119.32,71.29 Z M 127.08,72.30 L 125.25,70.57 L 131.06,70.65 L 127.08,72.30 Z M 789.85,68.74 L 790.24,68.55 L 789.59,69.88 L 789.85,68.74 Z M 797.60,62.53 L 793.16,65.37 L 794.04,64.29 L 797.60,62.53 Z M 722.43,234.06 L 722.19,234.18 L 722.20,234.13 L 722.43,234.06 Z M 721.92,233.46 L 722.10,233.45 L 722.48,233.92 L 721.92,233.46 Z M 733.42,232.31 L 733.53,232.38 L 733.47,232.51 L 733.42,232.31 Z M 735.93,232.17 L 735.66,232.37 L 735.63,232.34 L 735.93,232.17 Z M 733.08,232.29 L 733.04,232.46 L 732.74,232.22 L 733.08,232.29 Z M 732.41,232.47 L 731.80,232.06 L 731.88,231.65 L 732.41,232.47 Z M 734.95,231.70 L 735.00,232.04 L 734.63,231.61 L 734.95,231.70 Z M 744.58,228.78 L 744.15,229.02 L 744.28,228.81 L 744.58,228.78 Z M 746.04,227.45 L 745.43,228.15 L 745.93,227.55 L 746.04,227.45 Z M 739.39,221.34 L 738.96,221.69 L 738.78,221.26 L 739.39,221.34 Z M 738.58,221.07 L 738.08,220.66 L 738.17,220.57 L 738.58,221.07 Z M 733.07,212.62 L 733.06,211.95 L 733.23,211.81 L 734.01,212.32 L 733.07,212.62 Z M 731.93,212.06 L 731.85,211.66 L 732.52,211.44 L 731.93,212.06 Z M 729.59,211.20 L 729.02,211.55 L 728.83,210.99 L 729.59,211.20 Z M 731.59,211.33 L 731.40,211.76 L 731.20,210.91 L 731.59,211.33 Z M 713.59,162.54 L 713.23,162.35 L 713.44,162.14 L 713.59,162.54 Z M 713.25,161.28 L 713.49,161.33 L 713.58,161.64 L 713.25,161.28 Z M 587.76,156.37 L 587.54,156.54 L 587.28,156.64 L 586.07,156.92 L 585.79,156.82 L 587.76,156.37 Z M 591.37,156.79 L 589.81,156.34 L 590.76,156.43 L 591.37,156.79 Z M 707.97,155.22 L 707.52,155.29 L 707.64,154.95 L 707.97,155.22 Z M 590.76,153.77 L 590.85,153.15 L 591.04,153.08 L 590.76,153.77 Z M 599.27,152.64 L 598.86,152.86 L 598.95,152.73 L 599.27,152.64 Z M 597.65,149.99 L 596.45,149.48 L 596.01,148.93 L 597.65,149.99 Z M 612.90,147.91 L 612.14,148.67 L 612.79,147.96 L 612.90,147.91 Z M 614.16,146.62 L 614.25,146.57 L 614.03,146.76 L 614.16,146.62 Z M 614.66,146.04 L 615.68,144.77 L 615.44,145.15 L 614.66,146.04 Z M 737.26,114.25 L 735.60,116.59 L 735.27,116.14 L 737.26,114.25 Z M 737.86,111.20 L 737.47,113.46 L 737.18,112.28 L 737.86,111.20 Z M 152.04,76.28 L 151.70,76.48 L 151.55,75.96 L 152.04,76.28 Z" fill="#C8D8E8" stroke="#8BAABB" stroke-width="0.8"/>
<path d="M 484.76,214.00 L 480.12,223.36 L 477.08,234.78 L 475.92,247.00 L 474.39,247.29 L 475.36,249.64 L 475.96,248.14 L 475.65,261.34 L 473.30,267.81 L 474.19,266.54 L 475.36,276.41 L 477.73,280.89 L 482.37,285.62 L 480.76,290.56 L 479.91,287.74 L 481.52,286.02 L 477.50,281.60 L 475.03,276.41 L 476.98,284.32 L 479.64,287.00 L 479.52,288.37 L 484.99,301.34 L 495.96,314.73 L 498.57,323.96 L 507.06,333.12 L 503.81,332.15 L 506.20,333.94 L 505.49,334.55 L 509.97,335.13 L 507.45,333.85 L 507.38,333.12 L 509.73,334.47 L 515.95,334.75 L 518.57,337.18 L 522.31,338.07 L 525.57,343.62 L 527.37,344.40 L 538.20,342.19 L 541.43,339.80 L 537.27,341.40 L 541.81,339.49 L 548.07,339.26 L 548.50,341.02 L 548.36,339.50 L 552.81,338.86 L 555.00,336.69 L 555.75,339.49 L 555.33,336.29 L 559.92,335.34 L 567.14,334.99 L 568.43,336.59 L 567.11,336.05 L 565.49,337.48 L 568.08,338.18 L 566.79,336.66 L 567.87,336.89 L 569.25,340.20 L 569.50,338.43 L 574.43,339.37 L 574.15,338.07 L 579.24,335.59 L 577.39,336.07 L 577.92,334.23 L 575.56,332.88 L 578.36,330.41 L 574.13,332.83 L 585.75,324.36 L 587.11,316.72 L 590.36,313.81 L 590.17,303.28 L 592.65,294.71 L 601.28,290.37 L 611.91,289.03 L 622.41,285.37 L 624.74,285.73 L 628.14,285.13 L 625.77,285.40 L 627.44,284.67 L 641.21,287.69 L 643.09,285.58 L 638.75,286.08 L 643.51,284.54 L 647.99,287.81 L 648.19,291.74 L 649.35,292.44 L 647.24,297.76 L 638.47,308.67 L 638.42,314.38 L 637.70,316.18 L 638.26,313.96 L 637.72,313.08 L 638.09,314.38 L 634.73,318.77 L 633.57,318.12 L 634.63,320.98 L 638.30,320.15 L 636.92,319.57 L 638.32,318.74 L 638.75,319.74 L 638.03,321.85 L 634.60,324.32 L 635.18,325.88 L 637.99,324.16 L 631.94,343.50 L 630.51,339.26 L 628.25,338.30 L 629.45,335.01 L 628.91,331.83 L 627.47,334.32 L 627.36,333.64 L 626.34,334.15 L 625.57,334.90 L 627.10,334.86 L 625.01,338.43 L 621.15,339.07 L 615.72,348.76 L 612.91,346.90 L 611.26,347.90 L 611.16,350.08 L 582.38,350.14 L 582.24,359.75 L 575.12,359.99 L 577.70,360.99 L 581.24,365.67 L 585.32,367.43 L 587.90,372.98 L 591.67,374.08 L 590.99,379.59 L 570.43,380.24 L 562.98,393.82 L 565.15,397.23 L 563.89,398.57 L 562.75,406.25 L 553.05,395.72 L 554.68,396.90 L 554.19,395.55 L 550.80,393.93 L 532.49,377.39 L 528.43,376.15 L 527.85,377.07 L 535.31,381.33 L 528.55,378.23 L 523.33,377.86 L 525.57,375.67 L 524.16,375.03 L 522.22,376.86 L 520.87,373.99 L 517.94,376.68 L 521.57,376.38 L 520.05,377.09 L 522.02,377.21 L 522.63,377.87 L 516.59,378.08 L 512.09,381.72 L 499.42,386.74 L 495.19,387.17 L 483.17,382.39 L 475.17,381.65 L 468.86,377.69 L 470.28,378.04 L 470.50,377.81 L 462.85,375.88 L 459.31,371.74 L 445.31,369.28 L 440.13,365.64 L 423.27,359.54 L 408.58,347.32 L 405.41,348.33 L 386.92,342.29 L 377.15,331.83 L 371.60,329.29 L 371.24,327.75 L 369.89,328.27 L 361.15,323.79 L 359.66,320.02 L 352.75,311.92 L 350.01,305.47 L 357.20,302.43 L 355.65,299.49 L 352.44,299.26 L 357.34,294.22 L 358.12,287.65 L 353.96,284.41 L 351.06,278.82 L 349.73,269.22 L 348.41,267.08 L 338.47,257.67 L 337.00,253.85 L 332.73,249.98 L 328.90,243.98 L 317.23,235.44 L 316.84,234.84 L 321.60,237.74 L 321.10,234.67 L 319.61,235.76 L 314.67,232.66 L 316.73,234.55 L 315.12,233.71 L 312.72,230.12 L 314.01,230.63 L 313.91,227.25 L 312.90,226.42 L 312.29,229.49 L 308.50,224.54 L 310.78,226.77 L 311.51,225.42 L 313.62,225.91 L 310.23,223.47 L 308.12,223.53 L 307.97,221.81 L 307.37,223.95 L 306.80,221.96 L 302.12,220.29 L 304.29,220.40 L 301.58,219.89 L 301.53,217.15 L 299.52,216.81 L 298.99,218.42 L 296.05,217.22 L 298.19,217.08 L 300.44,212.60 L 296.90,216.29 L 293.93,214.64 L 295.41,216.87 L 291.40,215.33 L 293.35,214.22 L 291.91,213.34 L 291.40,214.52 L 291.04,208.87 L 293.74,204.01 L 293.58,206.35 L 294.46,203.33 L 296.16,205.52 L 296.49,204.25 L 296.05,204.27 L 295.41,202.98 L 294.97,202.73 L 293.94,203.49 L 293.85,200.68 L 290.25,196.47 L 289.15,196.91 L 290.08,197.73 L 285.49,196.87 L 282.63,190.17 L 277.55,189.49 L 273.85,187.04 L 275.37,186.84 L 273.39,185.55 L 272.19,181.01 L 273.44,179.26 L 272.63,179.09 L 272.47,177.85 L 273.99,177.02 L 268.69,176.44 L 268.85,175.02 L 268.10,177.61 L 266.31,175.45 L 264.64,175.95 L 259.38,168.17 L 255.12,166.92 L 251.31,161.82 L 252.59,161.02 L 247.88,158.20 L 246.73,152.20 L 244.02,151.70 L 244.55,149.27 L 238.73,141.96 L 238.44,136.78 L 233.46,128.89 L 233.27,119.74 L 231.04,118.26 L 224.90,117.62 L 224.31,114.66 L 219.28,111.81 L 219.70,113.45 L 218.47,114.76 L 215.63,114.41 L 202.68,106.51 L 206.60,111.94 L 204.97,121.14 L 207.71,124.62 L 208.97,131.91 L 208.42,136.99 L 210.51,140.98 L 212.91,144.30 L 215.64,144.82 L 224.67,152.77 L 226.43,159.49 L 227.86,158.32 L 229.12,161.07 L 231.24,160.64 L 233.10,166.15 L 237.15,167.24 L 238.30,177.18 L 241.07,180.78 L 244.91,182.62 L 247.15,188.42 L 251.30,190.43 L 250.24,192.41 L 252.55,195.00 L 252.09,196.95 L 253.92,199.41 L 255.62,199.23 L 253.44,196.95 L 252.86,194.10 L 257.46,197.27 L 257.38,199.64 L 259.32,200.34 L 258.90,202.03 L 261.22,207.55 L 261.45,213.04 L 264.35,217.32 L 266.00,217.58 L 267.81,223.99 L 271.29,228.46 L 270.43,234.11 L 272.46,239.29 L 276.96,240.63 L 275.26,240.67 L 276.39,241.74 L 277.34,239.92 L 276.84,238.00 L 278.42,237.75 L 281.98,240.92 L 282.29,242.86 L 284.80,242.57 L 286.89,249.41 L 290.49,251.31 L 291.35,254.12 L 290.08,258.25 L 283.74,263.02 L 282.10,262.67 L 277.24,251.55 L 259.28,238.07 L 260.62,238.66 L 255.58,233.57 L 253.47,234.95 L 250.38,228.61 L 251.04,230.85 L 249.95,229.19 L 249.12,230.35 L 248.98,226.45 L 248.22,228.61 L 247.89,227.24 L 250.03,218.30 L 249.18,218.17 L 249.23,214.05 L 248.87,217.77 L 247.69,210.01 L 244.15,205.11 L 239.63,203.69 L 233.76,198.94 L 232.84,195.58 L 231.31,196.44 L 232.42,192.55 L 230.45,196.30 L 227.28,195.40 L 224.66,196.76 L 221.83,192.92 L 218.85,192.43 L 216.06,189.64 L 212.06,189.00 L 210.93,185.05 L 202.78,179.30 L 201.82,177.40 L 211.05,178.72 L 213.94,176.99 L 214.47,179.38 L 217.31,181.68 L 217.75,180.16 L 219.67,180.76 L 220.22,179.66 L 218.00,178.25 L 218.11,179.65 L 216.71,179.46 L 216.51,175.78 L 214.57,176.53 L 216.81,173.39 L 216.55,174.76 L 217.25,176.07 L 217.02,174.44 L 218.30,174.36 L 216.96,170.43 L 217.85,165.92 L 203.58,151.13 L 200.19,150.25 L 192.13,144.62 L 192.09,142.18 L 190.33,140.97 L 189.92,134.46 L 187.74,133.52 L 188.40,132.69 L 187.52,131.87 L 187.28,134.24 L 186.57,132.17 L 186.44,126.62 L 182.05,123.97 L 181.96,119.44 L 176.68,113.71 L 177.12,111.88 L 175.50,110.27 L 177.19,110.59 L 177.69,108.72 L 173.69,105.79 L 169.58,96.87 L 207.49,93.75 L 205.95,97.41 L 266.20,117.59 L 310.28,117.59 L 310.28,109.84 L 338.48,110.17 L 341.95,115.01 L 345.87,116.84 L 355.30,125.79 L 362.08,129.92 L 366.07,137.10 L 366.09,141.42 L 368.68,146.37 L 375.93,151.80 L 380.25,152.90 L 386.52,157.13 L 390.69,157.69 L 394.86,153.69 L 394.47,151.71 L 397.50,144.95 L 402.00,144.26 L 403.35,142.25 L 406.69,143.83 L 417.81,144.24 L 419.28,147.34 L 420.51,146.92 L 420.85,148.48 L 429.43,155.63 L 430.14,158.92 L 434.90,166.05 L 435.65,170.06 L 439.10,172.46 L 442.64,178.67 L 447.66,181.91 L 448.50,191.06 L 451.87,195.01 L 454.11,201.96 L 458.92,202.84 L 468.06,207.95 L 476.95,208.72 L 480.65,211.74 L 485.17,209.83 L 484.76,214.00 Z M 207.50,340.78 L 207.55,340.93 L 206.32,341.19 L 207.50,340.78 Z M 267.50,334.37 L 265.24,333.66 L 266.29,331.94 L 267.50,334.37 Z M 269.66,324.28 L 268.98,324.97 L 268.89,324.63 L 269.66,324.28 Z M 341.66,290.26 L 340.84,289.85 L 341.15,289.52 L 341.66,290.26 Z M 339.14,288.03 L 337.48,287.20 L 338.00,286.75 L 339.14,288.03 Z M 336.85,285.95 L 335.29,284.93 L 334.82,283.34 L 337.16,285.00 L 336.85,285.95 Z M 334.87,282.54 L 334.53,282.76 L 334.38,282.42 L 334.87,282.54 Z M 285.21,241.29 L 283.67,240.23 L 283.15,237.21 L 285.21,241.29 Z M 258.99,237.98 L 255.67,237.49 L 255.92,237.20 L 258.99,237.98 Z M 255.12,238.49 L 250.40,234.80 L 252.65,234.70 L 255.12,238.49 Z M 277.55,235.57 L 276.60,236.73 L 275.53,233.85 L 277.55,235.57 Z M 273.01,226.18 L 273.80,228.51 L 271.95,227.92 L 270.87,224.81 L 273.01,226.18 Z M 249.57,234.35 L 247.73,232.41 L 248.05,230.86 L 245.70,230.02 L 248.53,221.87 L 247.14,229.07 L 248.69,231.79 L 248.36,232.76 L 249.57,234.35 Z M 301.25,219.82 L 297.68,218.76 L 299.45,218.77 L 301.25,219.82 Z M 269.37,215.36 L 269.88,214.18 L 270.20,216.16 L 269.37,215.36 Z M 263.45,210.92 L 263.07,212.62 L 263.52,208.50 L 265.41,208.01 L 263.45,210.92 Z M 282.33,190.84 L 283.07,191.67 L 282.23,190.93 L 281.39,190.54 L 282.33,190.84 Z M 272.55,185.46 L 272.73,184.86 L 273.66,187.15 L 272.55,185.46 Z M 200.68,172.41 L 199.54,174.35 L 197.49,173.41 L 199.35,170.81 L 199.21,168.65 L 200.68,172.41 Z M 236.92,163.27 L 238.63,164.66 L 238.29,164.93 L 236.92,163.27 Z M 241.86,162.30 L 241.77,163.27 L 240.97,163.32 L 241.86,162.30 Z M 241.31,159.77 L 242.84,158.12 L 243.17,154.50 L 246.34,153.38 L 247.42,157.26 L 246.18,161.61 L 241.31,159.77 Z M 232.91,157.90 L 226.89,152.72 L 225.42,150.58 L 225.70,148.34 L 228.48,149.73 L 228.87,152.30 L 232.06,152.88 L 232.91,157.90 Z M 207.72,110.08 L 208.62,111.35 L 206.89,110.91 L 206.52,109.40 L 207.72,110.08 Z M 640.38,337.12 L 639.99,339.06 L 639.28,339.96 L 640.38,337.12 Z M 641.35,335.25 L 641.12,336.07 L 641.19,335.58 L 641.02,334.18 L 641.35,335.25 Z M 573.60,333.24 L 573.83,333.94 L 568.80,335.68 L 573.60,333.24 Z M 648.48,304.26 L 645.35,307.99 L 645.78,303.76 L 649.24,302.28 L 648.48,304.26 Z M 649.38,291.09 L 649.35,290.32 L 649.57,291.09 L 650.00,291.85 L 649.38,291.09 Z M 477.73,282.53 L 476.89,281.87 L 476.55,280.43 L 477.73,282.53 Z M 474.76,264.94 L 474.92,264.73 L 474.80,265.61 L 474.05,266.28 L 474.76,264.94 Z M 152.20,159.09 L 151.21,159.90 L 150.00,155.36 L 151.45,154.37 L 152.20,159.09 Z M 231.97,196.85 L 232.54,197.80 L 230.54,197.05 L 231.97,196.85 Z M 603.35,269.94 L 601.92,268.13 L 604.06,270.13 L 603.20,271.68 L 603.35,269.94 Z M 273.10,229.13 L 273.23,229.63 L 272.93,229.52 L 273.10,229.13 Z M 191.26,227.25 L 191.25,227.26 L 191.24,227.23 L 191.26,227.25 Z M 271.20,221.14 L 270.58,221.98 L 270.52,221.49 L 271.20,221.14 Z M 248.96,218.09 L 248.86,220.56 L 248.57,221.59 L 248.96,218.09 Z M 266.00,214.51 L 265.85,215.23 L 265.55,214.91 L 266.00,214.51 Z M 262.39,212.70 L 262.42,213.27 L 262.22,213.00 L 262.39,212.70 Z M 262.14,206.92 L 262.13,207.44 L 261.78,207.47 L 262.14,206.92 Z M 249.80,188.31 L 249.47,188.96 L 249.13,188.89 L 249.80,188.31 Z M 252.07,184.31 L 252.78,184.50 L 252.73,184.64 L 252.07,184.31 Z M 200.58,177.10 L 200.54,177.39 L 199.66,176.75 L 200.58,177.10 Z M 260.18,175.04 L 260.53,175.64 L 260.27,175.57 L 260.18,175.04 Z M 193.85,169.50 L 194.22,169.55 L 193.79,169.72 L 193.85,169.50 Z M 226.75,156.04 L 226.95,157.01 L 226.60,156.71 L 226.75,156.04 Z M 212.59,140.66 L 212.70,141.11 L 212.27,141.00 L 212.59,140.66 Z M 185.62,131.90 L 185.71,132.12 L 185.41,132.08 L 185.62,131.90 Z M 167.69,98.88 L 167.78,99.32 L 167.72,99.33 L 167.69,98.88 Z" fill="#4A90D9" stroke="#1a5fa8" stroke-width="1.2"/>
<path d="M 744.09,197.41 L 738.42,192.66 L 743.35,188.66 L 745.88,191.84 L 744.09,197.41 Z" fill="#A8C8E8" stroke="none"/>
<path d="M 680.52,465.76 L 678.46,466.82 L 666.94,462.92 L 662.34,454.97 L 663.09,448.43 L 667.46,449.21 L 670.02,452.43 L 673.91,454.32 L 678.46,459.98 L 680.52,465.76 Z M 664.51,455.08 L 664.35,454.21 L 663.52,454.08 L 662.99,455.14 L 664.51,455.08 Z M 667.42,457.14 L 665.58,458.56 L 668.87,460.43 L 669.71,459.96 L 667.42,457.14 Z" fill="#A8C8E8" stroke="none"/>
<path d="M 590.39,137.17 L 588.54,136.70 L 590.01,134.45 L 591.23,135.10 L 590.39,137.17 Z" fill="#A8C8E8" stroke="none"/>
<path d="M 360.74,281.52 L 360.72,281.89 L 359.25,281.24 L 360.74,281.52 Z" fill="#A8C8E8" stroke="none"/>
<path d="M 614.08,387.00 L 613.86,389.76 L 612.29,391.11 L 608.69,392.21 L 607.26,390.31 L 616.35,385.35 L 614.08,387.00 Z" fill="#A8C8E8" stroke="none"/>
<path d="M 397.59,309.09 L 395.59,310.66 L 385.87,308.06 L 394.20,306.83 L 396.75,307.60 L 396.48,309.06 L 397.59,309.09 Z" fill="#A8C8E8" stroke="none"/>
<path d="M 659.20,447.01 L 656.32,447.28 L 656.26,445.26 L 654.34,445.87 L 651.64,443.13 L 656.49,441.48 L 657.90,445.35 L 659.10,444.19 L 659.20,447.01 Z" fill="#A8C8E8" stroke="none"/>
<path d="M 729.87,153.45 L 729.32,152.21 L 729.62,151.56 L 729.20,150.04 L 729.32,148.84 L 731.69,153.20 L 729.87,153.45 Z" fill="#A8C8E8" stroke="none"/>
<path d="M 212.77,63.57 L 212.95,62.30 L 213.39,63.48 L 217.28,66.01 L 212.77,63.57 Z" fill="#A8C8E8" stroke="none"/>
<path d="M 555.94,143.66 L 552.83,142.71 L 553.91,141.71 L 552.72,141.31 L 555.04,141.17 L 555.94,143.66 Z" fill="#A8C8E8" stroke="none"/>
<path d="M 558.70,145.97 L 556.51,144.29 L 557.49,143.29 L 559.77,143.95 L 558.70,145.97 Z" fill="#A8C8E8" stroke="none"/>
<path d="M 737.10,178.67 L 735.16,177.02 L 735.16,175.02 L 737.10,178.67 Z" fill="#A8C8E8" stroke="none"/>
<path d="M 383.28,295.63 L 382.46,296.75 L 381.34,296.67 L 383.28,295.63 Z" fill="#A8C8E8" stroke="none"/>
<path d="M 354.58,280.47 L 353.50,281.82 L 353.42,280.92 L 353.70,279.01 L 354.58,280.47 Z" fill="#A8C8E8" stroke="none"/>
<path d="M 546.06,143.02 L 543.41,142.60 L 544.95,141.86 L 545.26,138.81 L 546.06,143.02 Z" fill="#A8C8E8" stroke="none"/>
<path d="M 594.29,145.92 L 592.42,145.71 L 594.08,144.11 L 593.30,143.07 L 594.98,143.75 L 594.29,145.92 Z" fill="#A8C8E8" stroke="none"/>
<path d="M 432.33,311.81 L 428.94,311.66 L 431.30,310.26 L 432.33,311.81 Z" fill="#A8C8E8" stroke="none"/>
<path d="M 437.05,311.37 L 436.18,312.02 L 435.75,310.84 L 437.05,311.37 Z" fill="#A8C8E8" stroke="none"/>
<path d="M 613.86,417.07 L 610.94,414.35 L 613.18,414.41 L 613.86,417.07 Z" fill="#A8C8E8" stroke="none"/>
<path d="M 617.54,415.65 L 617.42,416.01 L 616.03,416.36 L 617.54,415.65 Z" fill="#A8C8E8" stroke="none"/>
<path d="M 704.54,411.35 L 704.21,411.85 L 703.13,409.52 L 704.54,411.35 Z" fill="#A8C8E8" stroke="none"/>
<path d="M 292.15,131.80 L 292.05,130.68 L 292.49,131.68 L 291.87,132.73 L 292.15,131.80 Z" fill="#A8C8E8" stroke="none"/>
<path d="M 305.37,199.89 L 304.61,200.38 L 304.11,199.90 L 305.53,197.09 L 305.37,199.89 Z" fill="#A8C8E8" stroke="none"/>
<path d="M 729.77,165.15 L 729.12,163.79 L 729.64,163.10 L 730.98,163.78 L 729.77,165.15 Z" fill="#A8C8E8" stroke="none"/>
<path d="M 736.43,185.68 L 735.20,186.80 L 734.63,185.04 L 736.43,185.68 Z" fill="#A8C8E8" stroke="none"/>
<path d="M 528.38,345.67 L 527.19,347.86 L 527.93,345.40 L 526.50,345.10 L 527.95,344.78 L 528.38,345.67 Z" fill="#A8C8E8" stroke="none"/>
<path d="M 473.71,276.67 L 472.74,275.12 L 474.18,274.80 L 473.71,276.67 Z" fill="#A8C8E8" stroke="none"/>
<path d="M 471.07,274.90 L 469.29,274.16 L 469.60,273.65 L 470.92,273.59 L 471.07,274.90 Z" fill="#A8C8E8" stroke="none"/>
<path d="M 291.59,155.73 L 287.50,155.94 L 288.06,159.20 L 285.89,151.44 L 287.56,154.34 L 290.11,155.45 L 291.98,154.43 L 291.59,155.73 Z" fill="#A8C8E8" stroke="none"/>
<path d="M 209.60,48.33 L 208.34,46.89 L 208.74,43.55 L 209.60,48.33 Z" fill="#A8C8E8" stroke="none"/>
<path d="M 224.69,40.11 L 223.51,39.12 L 222.27,36.57 L 219.34,35.07 L 219.01,33.81 L 217.10,36.74 L 215.50,36.96 L 213.28,34.84 L 211.88,36.25 L 210.55,34.55 L 207.22,36.96 L 205.37,34.84 L 211.71,34.24 L 213.60,27.05 L 212.80,33.47 L 214.39,35.82 L 216.54,36.42 L 218.91,32.59 L 219.58,34.44 L 222.60,36.42 L 224.69,40.11 Z" fill="#A8C8E8" stroke="none"/>
<path d="M 276.36,4.42 L 275.06,8.55 L 271.04,11.83 L 271.82,12.44 L 268.47,16.44 L 271.70,16.91 L 267.94,17.03 L 266.76,18.00 L 263.67,18.48 L 264.03,19.75 L 262.25,19.28 L 258.83,21.16 L 257.53,19.15 L 259.33,19.38 L 259.05,18.09 L 260.76,19.60 L 262.12,17.75 L 261.43,17.02 L 262.95,18.45 L 263.38,16.80 L 264.52,17.86 L 267.11,17.39 L 268.47,15.38 L 267.92,14.32 L 270.19,14.08 L 270.96,12.62 L 270.07,10.27 L 271.49,11.34 L 274.10,8.68 L 276.36,4.42 Z" fill="#A8C8E8" stroke="none"/>
<path d="M 423.26,149.90 L 420.01,149.25 L 420.61,147.31 L 419.10,147.25 L 420.82,146.72 L 421.04,148.26 L 423.38,149.18 L 424.61,148.61 L 424.58,147.42 L 425.48,146.50 L 425.24,148.93 L 423.26,149.90 Z" fill="#A8C8E8" stroke="none"/>
<path d="M 130.49,18.91 L 130.37,19.50 L 128.96,19.98 L 130.49,18.91 Z" fill="#A8C8E8" stroke="none"/>
<path d="M 453.50,199.54 L 451.95,199.27 L 451.77,195.30 L 450.00,196.14 L 449.28,195.53 L 450.09,195.82 L 450.28,193.76 L 448.48,191.05 L 451.37,193.88 L 452.85,193.06 L 452.07,194.71 L 452.85,197.18 L 453.74,196.06 L 454.30,196.25 L 453.50,199.54 Z" fill="#A8C8E8" stroke="none"/>
<path d="M 629.64,38.37 L 628.91,36.43 L 630.42,35.13 L 630.26,33.35 L 628.80,30.44 L 628.04,32.95 L 627.23,32.02 L 628.70,27.85 L 625.01,19.62 L 629.05,26.52 L 628.88,29.57 L 630.93,34.20 L 629.64,38.37 Z" fill="#A8C8E8" stroke="none"/>
<path d="M 721.28,77.30 L 719.13,77.01 L 716.64,77.89 L 715.04,77.75 L 720.21,76.58 L 716.17,72.94 L 714.93,74.45 L 716.00,72.56 L 714.81,72.80 L 714.81,71.26 L 718.61,74.11 L 717.21,71.72 L 718.07,72.33 L 721.28,77.30 Z" fill="#A8C8E8" stroke="none"/>
<path d="M 639.15,57.87 L 634.21,58.30 L 636.64,57.01 L 640.15,57.36 L 646.58,61.49 L 639.15,57.87 Z" fill="#A8C8E8" stroke="none"/>
<path d="M 325.27,87.48 L 324.83,90.35 L 324.52,89.59 L 325.27,87.48 Z" fill="#A8C8E8" stroke="none"/>
<path d="M 327.14,84.32 L 326.62,85.88 L 326.46,82.57 L 327.14,84.32 Z" fill="#A8C8E8" stroke="none"/>
<path d="M 378.22,107.54 L 377.62,106.81 L 377.10,105.21 L 378.22,107.54 Z" fill="#A8C8E8" stroke="none"/>
<path d="M 372.19,95.11 L 371.49,95.56 L 372.01,92.96 L 372.19,95.11 Z" fill="#A8C8E8" stroke="none"/>
<path d="M 781.59,29.76 L 781.91,27.32 L 778.33,27.53 L 779.38,26.80 L 775.42,25.05 L 776.62,25.09 L 776.72,23.40 L 779.43,26.33 L 782.72,26.70 L 781.59,29.76 Z" fill="#A8C8E8" stroke="none"/>
<path d="M 490.73,75.50 L 487.47,72.15 L 491.81,73.99 L 491.96,72.67 L 493.78,72.47 L 492.58,70.82 L 494.84,70.09 L 494.62,74.56 L 492.56,74.16 L 490.73,75.50 Z" fill="#A8C8E8" stroke="none"/>
<path d="M 355.02,181.97 L 353.69,183.44 L 350.16,182.80 L 355.02,181.97 Z" fill="#A8C8E8" stroke="none"/>
<path d="M 419.52,337.61 L 417.47,339.49 L 414.11,336.79 L 410.93,337.33 L 410.68,341.29 L 411.74,341.73 L 409.90,342.31 L 410.10,340.02 L 408.49,338.55 L 410.10,339.26 L 410.27,335.19 L 406.21,332.18 L 407.82,331.17 L 407.96,332.65 L 409.13,331.11 L 408.43,333.12 L 410.53,334.88 L 411.40,334.07 L 410.75,336.07 L 414.27,335.25 L 416.06,338.24 L 419.52,337.61 Z" fill="#A8C8E8" stroke="none"/>
<path d="M 565.16,383.82 L 564.13,383.14 L 563.13,384.28 L 563.65,382.76 L 559.29,380.22 L 556.40,382.17 L 557.95,380.46 L 557.27,379.69 L 553.70,381.23 L 554.34,378.63 L 556.83,379.02 L 553.65,376.57 L 552.68,378.20 L 551.24,377.36 L 554.34,374.03 L 553.25,376.16 L 556.89,378.04 L 558.46,376.86 L 558.02,378.94 L 564.77,382.92 L 565.16,383.82 Z" fill="#A8C8E8" stroke="none"/>
<path d="M 678.68,128.21 L 677.38,124.55 L 678.35,127.15 L 680.94,124.79 L 680.52,126.56 L 681.97,126.58 L 678.68,128.21 Z" fill="#A8C8E8" stroke="none"/>
<path d="M 631.34,26.06 L 631.06,26.93 L 628.38,19.71 L 627.33,20.45 L 626.19,19.85 L 629.39,19.33 L 631.27,22.15 L 630.21,23.99 L 631.34,26.06 Z" fill="#A8C8E8" stroke="none"/>
<path d="M 457.43,205.98 L 455.21,208.47 L 455.59,206.42 L 454.15,206.45 L 454.30,205.37 L 457.02,204.48 L 457.43,205.98 Z" fill="#A8C8E8" stroke="none"/>
<path d="M 753.73,83.21 L 755.83,82.23 L 755.95,84.58 L 754.53,84.83 L 753.73,83.21 Z" fill="#A8C8E8" stroke="none"/>
<path d="M 753.29,81.99 L 750.66,81.52 L 749.35,80.88 L 747.39,78.45 L 749.66,80.42 L 752.91,80.05 L 753.29,81.99 Z" fill="#A8C8E8" stroke="none"/>
<path d="M 411.18,46.03 L 414.22,42.02 L 415.94,41.91 L 411.18,46.03 Z" fill="#A8C8E8" stroke="none"/>
<path d="M 384.57,48.39 L 383.28,48.17 L 385.00,47.21 L 386.09,47.92 L 384.57,48.39 Z" fill="#A8C8E8" stroke="none"/>
<path d="M 373.81,47.94 L 371.69,47.45 L 373.81,47.16 L 372.99,46.03 L 374.07,44.97 L 373.81,47.94 Z" fill="#A8C8E8" stroke="none"/>
<path d="M 536.46,109.37 L 533.67,106.04 L 536.97,108.14 L 538.60,113.53 L 539.73,112.41 L 539.31,113.77 L 540.60,113.83 L 539.51,114.77 L 541.15,115.59 L 541.46,120.10 L 537.90,119.12 L 539.63,118.43 L 538.22,118.08 L 539.28,117.95 L 539.24,116.24 L 537.20,116.60 L 538.39,115.36 L 536.46,109.37 Z" fill="#A8C8E8" stroke="none"/>
<path d="M 545.16,363.66 L 539.85,361.05 L 537.35,362.18 L 538.55,360.71 L 540.72,360.70 L 545.16,363.66 Z" fill="#A8C8E8" stroke="none"/>
<path d="M 468.54,331.23 L 467.15,330.01 L 469.53,330.25 L 468.54,331.23 Z" fill="#A8C8E8" stroke="none"/>
<path d="M 460.28,246.48 L 457.81,245.08 L 459.67,243.73 L 459.01,242.40 L 460.76,243.58 L 460.28,246.48 Z" fill="#A8C8E8" stroke="none"/>
<path d="M 284.64,177.65 L 283.44,177.52 L 283.41,175.50 L 284.15,176.44 L 285.28,175.28 L 283.94,172.53 L 285.71,174.87 L 284.64,177.65 Z" fill="#A8C8E8" stroke="none"/>
<path d="M 710.92,65.53 L 709.20,64.89 L 710.41,63.75 L 707.03,63.14 L 705.69,61.28 L 711.03,63.61 L 711.03,61.95 L 709.63,61.25 L 710.69,61.09 L 711.58,62.31 L 710.92,65.53 Z" fill="#A8C8E8" stroke="none"/>
<path d="M 693.50,68.20 L 691.45,68.73 L 691.01,67.78 L 693.38,66.52 L 692.75,65.39 L 693.17,63.48 L 693.30,65.32 L 695.03,65.25 L 694.48,63.70 L 695.35,64.91 L 693.50,68.20 Z" fill="#A8C8E8" stroke="none"/>
<path d="M 792.74,28.81 L 788.40,28.92 L 784.83,27.17 L 786.58,26.68 L 788.55,28.03 L 789.37,27.17 L 792.74,28.81 Z" fill="#A8C8E8" stroke="none"/>
<path d="M 761.36,19.85 L 760.15,19.27 L 762.00,18.91 L 759.40,15.97 L 763.32,18.63 L 761.36,19.85 Z" fill="#A8C8E8" stroke="none"/>
<path d="M 674.35,105.33 L 675.46,106.27 L 675.76,105.11 L 675.97,106.04 L 674.67,109.12 L 676.40,109.82 L 675.61,112.34 L 674.24,111.00 L 674.35,105.33 Z" fill="#A8C8E8" stroke="none"/>
<path d="M 657.64,78.58 L 658.51,79.04 L 656.39,80.64 L 657.03,81.16 L 655.85,81.16 L 657.64,78.58 Z" fill="#A8C8E8" stroke="none"/>
<path d="M 653.14,89.67 L 654.22,91.34 L 653.97,92.11 L 653.35,91.89 L 652.82,88.25 L 653.14,89.67 Z" fill="#A8C8E8" stroke="none"/>
<path d="M 734.32,71.42 L 731.26,70.09 L 736.04,69.51 L 736.41,70.56 L 734.32,71.42 Z" fill="#A8C8E8" stroke="none"/>
<path d="M 480.71,221.46 L 476.87,234.08 L 475.56,246.93 L 474.99,242.33 L 476.12,236.15 L 474.48,236.37 L 473.95,234.66 L 475.03,233.98 L 476.00,235.32 L 476.76,231.61 L 475.83,228.97 L 477.54,227.82 L 475.36,227.00 L 476.52,223.32 L 474.82,222.02 L 476.12,221.88 L 476.60,220.06 L 478.90,221.58 L 478.90,218.63 L 480.44,219.11 L 480.71,221.46 Z" fill="#A8C8E8" stroke="none"/>
<path d="M 193.56,85.07 L 191.63,86.87 L 186.39,80.17 L 188.19,79.85 L 193.20,83.33 L 193.56,85.07 Z" fill="#A8C8E8" stroke="none"/>
<path d="M 496.45,346.67 L 497.66,345.53 L 493.86,342.90 L 494.77,342.94 L 494.60,340.79 L 497.34,343.40 L 496.48,343.01 L 498.48,346.37 L 496.45,346.67 Z M 495.93,342.48 L 495.22,342.03 L 495.28,342.52 L 495.93,342.48 Z" fill="#A8C8E8" stroke="none"/>
<path d="M 761.38,499.04 L 760.66,499.94 L 759.07,499.94 L 759.04,500.00 L 758.98,500.00 L 758.99,499.99 L 757.01,498.95 L 756.83,500.00 L 755.40,500.00 L 758.54,496.05 L 759.40,497.48 L 758.10,498.53 L 761.38,499.04 Z" fill="#A8C8E8" stroke="none"/>
</svg>