<svg xmlns="http://www.w3.org/2000/svg" width="800" height="500" viewBox="0 0 800 500">
<rect width="800" height="500" fill="#A8C8E8"/>
<path d="M 697.73,468.59 L 698.73,470.63 L 698.05,469.77 L 697.83,472.11 L 698.81,471.30 L 704.67,482.30 L 711.23,490.15 L 714.77,492.46 L 713.39,493.33 L 710.29,491.39 L 710.30,493.25 L 708.80,493.87 L 708.83,500.00 L 696.67,500.00 L 688.84,493.73 L 682.40,491.78 L 680.56,485.09 L 678.71,485.09 L 679.70,484.74 L 671.80,479.66 L 673.42,483.90 L 678.49,487.46 L 674.50,492.17 L 671.64,487.82 L 665.89,486.24 L 663.05,480.55 L 663.60,475.66 L 666.40,473.83 L 665.32,474.00 L 665.63,470.82 L 661.44,469.06 L 665.16,468.55 L 664.60,466.92 L 665.84,466.63 L 666.93,463.70 L 677.44,468.32 L 681.46,466.10 L 685.21,468.14 L 686.52,467.41 L 689.10,471.07 L 691.97,470.94 L 693.42,472.25 L 697.43,470.64 L 696.90,468.41 L 697.73,468.59 Z M 674.82,483.08 L 673.22,482.50 L 674.62,482.62 L 674.82,483.08 Z" fill="#E8E0D0" stroke="#B8B0A0" stroke-width="0.5"/>
<path d="M 652.77,454.25 L 648.42,446.71 L 634.26,434.74 L 634.32,433.21 L 635.73,431.45 L 638.65,434.40 L 640.27,434.29 L 638.86,433.98 L 639.88,433.22 L 644.28,433.25 L 646.05,431.42 L 646.24,428.78 L 649.50,427.76 L 648.52,420.08 L 655.23,419.89 L 659.07,414.94 L 664.65,418.73 L 664.89,416.30 L 673.68,410.17 L 674.06,405.99 L 675.89,405.57 L 675.51,404.29 L 677.87,401.65 L 679.63,401.58 L 681.10,404.09 L 684.51,405.04 L 686.40,403.39 L 687.91,404.04 L 687.99,402.65 L 689.47,403.40 L 690.36,402.05 L 693.31,402.57 L 698.18,400.69 L 699.86,398.30 L 705.83,398.55 L 703.25,401.86 L 702.80,399.98 L 702.05,400.51 L 701.19,401.87 L 703.17,402.43 L 704.94,409.72 L 701.08,416.45 L 699.07,425.75 L 700.29,442.94 L 697.83,443.47 L 697.83,440.40 L 699.13,439.17 L 698.99,436.13 L 697.70,436.57 L 698.60,439.24 L 695.67,440.93 L 697.22,445.30 L 698.16,444.12 L 697.31,450.32 L 696.88,447.79 L 696.40,447.16 L 695.62,447.06 L 696.64,447.95 L 695.21,449.07 L 695.90,451.03 L 694.70,452.33 L 695.78,453.47 L 696.85,452.69 L 697.61,456.66 L 695.89,457.73 L 694.20,462.61 L 697.43,470.64 L 693.28,472.22 L 691.97,470.94 L 689.10,471.07 L 686.52,467.41 L 685.21,468.14 L 681.46,466.10 L 677.44,468.32 L 666.93,463.70 L 665.30,465.92 L 652.77,454.25 Z M 697.23,468.59 L 697.06,468.38 L 697.13,468.37 L 697.23,468.59 Z M 696.28,451.11 L 696.74,450.33 L 696.54,452.34 L 696.28,451.11 Z M 707.00,447.25 L 707.37,446.83 L 707.55,446.98 L 707.00,447.25 Z M 712.10,409.34 L 711.81,409.48 L 710.90,409.40 L 712.10,409.34 Z" fill="#E8E0D0" stroke="#B8B0A0" stroke-width="0.5"/>
<path d="M 597.18,416.79 L 600.13,414.68 L 601.52,415.05 L 602.44,412.78 L 605.04,411.71 L 604.10,408.79 L 607.03,408.04 L 610.88,409.66 L 611.61,408.89 L 615.85,413.97 L 621.12,415.98 L 621.24,418.26 L 627.09,415.85 L 628.83,418.00 L 631.94,417.15 L 633.74,418.88 L 632.38,423.74 L 633.47,424.98 L 631.62,425.32 L 631.06,426.62 L 632.38,427.97 L 630.20,430.18 L 623.95,430.04 L 623.52,429.91 L 623.90,429.52 L 623.42,428.97 L 622.53,429.95 L 621.98,428.53 L 619.63,428.02 L 617.68,428.27 L 619.97,428.38 L 621.79,430.01 L 616.69,428.69 L 609.35,424.78 L 600.57,423.84 L 596.00,420.32 L 597.18,416.79 Z M 633.70,429.26 L 633.91,430.02 L 633.44,430.08 L 633.70,429.26 Z M 632.99,428.97 L 632.79,429.22 L 632.54,428.75 L 632.99,428.97 Z" fill="#E8E0D0" stroke="#B8B0A0" stroke-width="0.5"/>
<path d="M 791.33,315.40 L 793.21,310.95 L 799.28,307.03 L 799.28,314.46 L 791.33,315.40 Z M 798.67,302.79 L 799.28,301.68 L 799.28,303.20 L 798.67,302.79 Z M 797.05,300.11 L 785.66,300.23 L 779.00,294.60 L 778.84,290.62 L 774.96,284.32 L 767.64,285.83 L 760.65,283.37 L 757.52,283.57 L 756.82,282.19 L 755.12,282.86 L 748.10,277.20 L 749.04,276.65 L 747.53,274.76 L 746.68,275.23 L 747.75,277.35 L 738.01,276.59 L 736.35,273.22 L 736.18,277.03 L 735.64,275.46 L 734.08,276.53 L 731.15,274.54 L 726.41,274.81 L 721.06,271.23 L 729.14,269.67 L 729.27,268.21 L 725.57,266.37 L 711.67,265.92 L 701.33,274.86 L 698.81,273.82 L 697.31,275.11 L 693.29,275.11 L 691.66,279.44 L 688.33,279.60 L 684.11,282.07 L 684.30,279.20 L 678.88,281.11 L 677.15,280.18 L 683.90,277.24 L 687.57,277.71 L 685.09,274.54 L 688.76,268.03 L 689.84,268.27 L 691.36,265.71 L 701.68,262.98 L 704.32,260.83 L 705.21,262.06 L 706.92,260.52 L 708.45,261.32 L 720.19,257.52 L 730.25,258.14 L 731.07,260.05 L 737.05,257.20 L 734.89,258.61 L 737.05,260.26 L 738.17,259.07 L 744.72,259.32 L 745.75,258.17 L 746.39,260.73 L 748.37,261.72 L 754.44,261.56 L 756.48,263.45 L 757.33,262.86 L 758.43,262.62 L 757.42,263.94 L 760.66,265.01 L 765.54,270.95 L 774.37,271.34 L 775.11,272.62 L 775.53,271.41 L 785.67,276.57 L 788.46,280.30 L 788.90,278.65 L 789.75,278.65 L 789.08,279.60 L 790.61,281.42 L 795.27,281.90 L 795.67,283.95 L 796.98,284.28 L 795.38,281.47 L 792.77,280.06 L 793.69,279.29 L 799.28,283.11 L 799.28,285.51 L 796.71,284.74 L 798.43,285.50 L 798.39,287.07 L 799.28,287.03 L 799.28,301.47 L 797.05,300.11 Z M 781.35,303.56 L 779.39,302.11 L 779.86,301.99 L 781.35,303.56 Z M 778.62,300.58 L 778.10,300.36 L 779.06,299.88 L 778.62,300.58 Z M 773.97,299.44 L 774.86,299.98 L 774.20,300.09 L 773.97,299.44 Z M 772.87,298.55 L 773.34,299.17 L 771.49,298.47 L 772.87,298.55 Z M 771.38,297.44 L 771.11,298.04 L 769.67,297.03 L 771.38,297.44 Z M 769.11,296.80 L 767.39,295.17 L 768.76,295.57 L 769.11,296.80 Z M 765.30,293.07 L 766.32,293.98 L 765.56,294.01 L 765.30,293.07 Z M 731.58,284.63 L 730.57,284.89 L 730.71,284.47 L 733.54,283.13 L 731.58,284.63 Z M 714.27,285.95 L 709.36,287.74 L 706.64,287.19 L 704.86,284.42 L 708.53,285.60 L 706.53,281.50 L 708.05,278.95 L 712.55,279.91 L 714.69,284.32 L 714.27,285.95 Z M 791.37,279.60 L 787.49,276.30 L 788.71,276.76 L 789.71,276.35 L 792.46,277.13 L 791.37,279.60 Z M 788.57,272.75 L 790.51,274.99 L 790.13,275.00 L 788.57,272.75 Z M 785.97,274.64 L 786.57,274.04 L 786.64,273.14 L 786.41,272.65 L 789.43,275.35 L 788.84,276.36 L 785.97,274.64 Z M 781.76,271.11 L 784.42,270.68 L 786.52,273.22 L 781.76,271.11 Z M 778.17,270.17 L 775.76,269.33 L 775.72,268.75 L 780.44,268.43 L 782.30,270.34 L 778.17,270.17 Z M 770.86,266.76 L 769.56,266.50 L 771.55,266.71 L 770.86,266.76 Z M 762.73,265.66 L 761.92,264.50 L 760.92,264.26 L 761.95,264.23 L 765.07,266.42 L 765.78,267.46 L 762.73,265.66 Z M 756.77,261.95 L 755.96,262.09 L 755.84,261.67 L 756.77,261.95 Z M 751.23,260.67 L 751.51,261.56 L 749.69,261.09 L 751.23,260.67 Z M 752.54,259.27 L 753.10,259.36 L 751.62,259.32 L 752.54,259.27 Z M 742.48,258.23 L 742.08,258.52 L 739.85,258.95 L 742.48,258.23 Z M 747.36,257.96 L 746.02,257.78 L 746.35,257.33 L 747.36,257.96 Z M 777.58,301.32 L 777.46,301.40 L 777.02,301.15 L 777.58,301.32 Z M 776.77,301.14 L 776.74,301.24 L 776.50,301.25 L 776.77,301.14 Z M 723.80,284.79 L 721.84,285.46 L 723.70,284.49 L 723.80,284.79 Z M 725.20,284.68 L 724.71,284.45 L 724.66,284.22 L 725.97,283.85 L 725.20,284.68 Z M 714.06,279.12 L 714.33,279.32 L 713.27,279.23 L 714.06,279.12 Z M 699.29,278.73 L 698.54,278.75 L 698.30,278.64 L 699.29,278.73 Z M 730.78,277.30 L 730.12,276.81 L 730.22,276.74 L 730.78,277.30 Z M 775.05,269.04 L 774.62,269.14 L 774.58,268.74 L 775.05,269.04 Z M 715.64,267.91 L 715.40,268.44 L 715.32,267.05 L 715.64,267.91 Z M 767.53,267.00 L 768.14,266.97 L 767.68,267.32 L 767.53,267.00 Z M 759.41,263.16 L 759.46,262.51 L 759.61,262.92 L 759.41,263.16 Z M 757.89,262.25 L 757.59,262.40 L 757.20,261.76 L 757.89,262.25 Z M 754.28,260.40 L 753.67,260.03 L 753.96,259.66 L 754.28,260.40 Z M 751.22,259.40 L 750.35,258.54 L 750.87,258.45 L 751.22,259.40 Z M 749.24,258.24 L 747.92,258.65 L 748.14,258.27 L 749.24,258.24 Z M 744.53,257.64 L 744.07,257.76 L 744.22,257.35 L 744.53,257.64 Z M 743.95,257.57 L 741.59,257.07 L 741.96,257.01 L 743.95,257.57 Z M 741.32,256.86 L 740.31,256.43 L 740.78,256.29 L 741.32,256.86 Z" fill="#E8E0D0" stroke="#B8B0A0" stroke-width="0.5"/>
<path d="M 610.78,405.70 L 609.65,401.10 L 610.77,397.46 L 624.08,386.89 L 627.20,386.52 L 629.84,383.58 L 635.51,382.40 L 637.28,384.97 L 639.39,383.87 L 646.14,385.41 L 654.69,385.23 L 661.65,382.38 L 661.87,381.23 L 660.47,380.76 L 665.27,381.70 L 668.66,383.54 L 676.36,381.50 L 681.46,383.42 L 681.72,385.17 L 684.98,384.81 L 682.00,383.65 L 687.48,384.54 L 696.38,391.59 L 692.06,389.25 L 690.49,389.01 L 690.71,390.19 L 690.06,389.01 L 688.76,389.01 L 693.09,394.04 L 694.93,393.84 L 691.70,391.47 L 695.05,392.96 L 695.90,395.02 L 698.06,393.40 L 699.56,393.60 L 699.48,394.86 L 698.54,394.42 L 698.09,395.47 L 700.29,394.79 L 699.53,393.32 L 698.26,393.25 L 696.80,391.58 L 701.45,393.91 L 703.40,397.32 L 705.83,398.55 L 699.86,398.30 L 698.18,400.69 L 693.31,402.57 L 690.36,402.05 L 689.47,403.40 L 687.99,402.65 L 687.91,404.04 L 686.40,403.39 L 684.51,405.04 L 681.10,404.09 L 679.63,401.58 L 677.87,401.65 L 675.51,404.29 L 675.89,405.57 L 674.06,405.99 L 673.68,410.17 L 664.89,416.30 L 664.65,418.73 L 661.71,417.21 L 660.28,414.75 L 655.23,419.89 L 648.52,420.08 L 649.50,427.76 L 646.24,428.78 L 646.05,431.42 L 644.28,433.25 L 639.88,433.22 L 640.04,431.21 L 638.22,430.99 L 636.76,427.97 L 638.52,425.83 L 635.08,426.51 L 635.00,424.88 L 633.91,426.60 L 631.95,425.91 L 633.47,424.98 L 632.38,423.74 L 633.74,418.88 L 631.94,417.15 L 628.83,418.00 L 627.51,415.88 L 625.37,415.82 L 624.57,417.32 L 621.24,418.26 L 621.12,415.98 L 615.85,413.97 L 611.61,408.89 L 607.61,408.55 L 610.78,405.70 Z M 634.99,428.55 L 634.32,428.50 L 634.21,428.02 L 634.99,428.55 Z M 635.84,426.51 L 635.51,427.67 L 634.45,427.20 L 635.84,426.51 Z M 646.74,379.69 L 644.87,379.85 L 645.71,379.29 L 646.74,379.69 Z M 653.65,374.47 L 655.36,373.90 L 657.73,373.92 L 651.03,376.39 L 653.65,374.47 Z M 662.94,372.39 L 663.48,372.72 L 661.43,374.35 L 662.94,372.39 Z M 693.28,356.92 L 693.50,357.01 L 693.22,357.04 L 693.28,356.92 Z" fill="#E8E0D0" stroke="#B8B0A0" stroke-width="0.5"/>
<path d="M 728.11,440.42 L 728.51,439.94 L 728.10,441.47 L 728.11,440.42 Z M 733.32,427.03 L 733.65,426.47 L 733.95,426.91 L 733.32,427.03 Z M 753.76,422.98 L 753.74,422.99 L 753.74,422.96 L 753.76,422.98 Z" fill="#E8E0D0" stroke="#B8B0A0" stroke-width="0.5"/>
<path d="M 718.24,494.28 L 718.12,498.16 L 720.95,498.29 L 719.53,498.90 L 719.65,500.00 L 708.83,500.00 L 708.80,493.87 L 710.30,493.25 L 710.29,491.39 L 713.68,493.39 L 714.60,491.81 L 718.24,494.28 Z M 724.69,499.50 L 725.49,498.64 L 726.66,500.00 L 725.07,500.00 L 724.69,499.50 Z M 753.12,498.18 L 755.90,495.30 L 756.28,496.49 L 757.20,494.77 L 758.43,495.72 L 760.99,491.26 L 771.39,491.86 L 770.02,493.85 L 779.56,494.69 L 786.11,497.66 L 788.24,500.00 L 769.89,500.00 L 770.10,499.59 L 770.49,499.82 L 771.29,499.23 L 770.10,499.47 L 769.43,500.00 L 747.14,500.00 L 753.12,498.18 Z M 788.90,499.83 L 789.02,500.00 L 788.91,500.00 L 788.90,499.83 Z M 722.47,496.76 L 721.46,497.51 L 720.31,495.72 L 722.47,496.76 Z M 719.44,494.17 L 719.77,496.05 L 719.22,495.28 L 718.47,494.64 L 719.44,494.17 Z M 730.78,499.96 L 730.81,500.00 L 730.71,500.00 L 730.78,499.96 Z M 722.83,498.59 L 723.48,499.29 L 722.85,499.21 L 722.83,498.59 Z" fill="#E8E0D0" stroke="#B8B0A0" stroke-width="0.5"/>
<path d="M 787.07,240.44 L 789.06,239.33 L 789.87,239.27 L 787.07,240.44 Z M 787.70,239.74 L 786.43,239.38 L 787.76,238.91 L 787.70,239.74 Z M 793.53,248.11 L 790.19,248.01 L 791.81,247.76 L 793.37,246.28 L 791.10,247.36 L 790.40,246.70 L 791.96,246.00 L 792.04,245.64 L 789.87,246.12 L 789.32,243.28 L 787.61,241.99 L 791.81,238.44 L 792.51,239.37 L 790.51,240.68 L 790.73,243.04 L 792.88,239.90 L 794.18,244.16 L 792.99,245.29 L 794.18,244.80 L 793.53,248.11 Z M 789.77,238.02 L 791.12,237.26 L 791.70,237.58 L 789.77,238.02 Z M 793.60,226.12 L 798.30,225.45 L 796.47,226.42 L 793.60,226.12 Z M 781.78,231.44 L 781.55,233.58 L 783.59,233.26 L 781.90,231.12 L 784.21,226.44 L 783.31,223.27 L 785.98,223.30 L 790.83,231.61 L 791.13,235.05 L 786.26,238.96 L 784.57,235.02 L 783.12,235.64 L 779.91,233.30 L 781.78,231.44 Z M 788.58,213.22 L 788.57,212.86 L 788.93,213.07 L 789.54,214.27 L 788.58,213.22 Z M 793.43,204.62 L 793.32,203.44 L 793.46,203.52 L 793.43,204.62 Z M 774.61,200.50 L 770.96,197.18 L 775.43,199.43 L 777.65,197.47 L 776.58,196.94 L 777.33,195.30 L 781.65,197.43 L 788.03,195.88 L 787.81,198.25 L 774.61,200.50 Z M 787.28,193.88 L 788.77,193.27 L 792.89,193.41 L 799.28,198.47 L 799.28,199.37 L 797.26,198.84 L 794.03,194.39 L 787.28,193.88 Z M 798.88,211.22 L 796.02,208.73 L 798.93,206.73 L 798.51,203.86 L 799.28,201.49 L 799.28,208.66 L 798.88,211.22 Z M 762.77,252.36 L 762.44,252.08 L 762.83,252.33 L 762.77,252.36 Z M 762.22,251.67 L 761.56,250.97 L 761.65,251.03 L 762.22,251.67 Z M 766.73,217.19 L 766.80,217.36 L 766.76,217.35 L 766.73,217.19 Z M 766.38,216.76 L 766.52,217.02 L 766.38,216.83 L 766.38,216.76 Z M 789.22,237.63 L 789.33,237.64 L 788.78,238.16 L 789.22,237.63 Z M 788.59,219.43 L 788.16,219.41 L 789.26,218.97 L 788.59,219.43 Z M 766.86,214.42 L 766.19,214.44 L 766.51,213.42 L 766.86,214.42 Z M 798.66,201.62 L 798.44,201.71 L 798.07,201.23 L 798.66,201.62 Z M 789.30,198.74 L 788.77,199.54 L 788.38,198.88 L 789.30,198.74 Z" fill="#E8E0D0" stroke="#B8B0A0" stroke-width="0.5"/>
<path d="M 799.04,350.80 L 799.28,350.83 L 799.28,351.72 L 795.87,349.26 L 790.94,349.38 L 785.90,343.70 L 780.79,342.31 L 783.06,339.24 L 787.17,339.26 L 788.23,337.96 L 798.16,338.98 L 799.28,339.14 L 799.28,350.42 L 799.04,350.80 Z" fill="#E8E0D0" stroke="#B8B0A0" stroke-width="0.5"/>
<path d="M 738.04,324.34 L 733.30,325.14 L 732.84,323.31 L 733.89,324.48 L 738.04,324.34 Z M 755.73,317.55 L 753.38,318.35 L 754.19,317.62 L 755.73,317.55 Z M 759.17,316.64 L 759.48,317.00 L 756.84,317.98 L 759.17,316.64 Z" fill="#E8E0D0" stroke="#B8B0A0" stroke-width="0.5"/>
<path d="M 294.62,479.68 L 294.37,479.22 L 294.50,479.17 L 294.62,479.68 Z" fill="#E8E0D0" stroke="#B8B0A0" stroke-width="0.5"/>
<path d="M 755.36,384.80 L 755.38,384.83 L 755.35,384.83 L 755.36,384.80 Z" fill="#E8E0D0" stroke="#B8B0A0" stroke-width="0.5"/>
<path d="M 776.60,383.63 L 776.65,383.57 L 776.65,383.66 L 776.60,383.63 Z" fill="#E8E0D0" stroke="#B8B0A0" stroke-width="0.5"/>
<path d="M 610.88,347.90 L 612.53,346.90 L 615.34,348.76 L 620.75,339.07 L 624.28,338.60 L 622.91,340.51 L 624.07,340.43 L 623.43,341.66 L 627.55,340.42 L 626.76,341.56 L 627.57,341.14 L 627.75,343.27 L 624.54,353.69 L 626.43,355.28 L 624.56,358.24 L 625.68,364.65 L 623.64,372.27 L 624.16,369.90 L 620.61,376.62 L 617.41,377.33 L 614.07,383.36 L 609.58,383.12 L 610.88,347.90 Z M 632.00,357.53 L 632.17,359.06 L 631.84,359.06 L 632.00,357.53 Z M 632.39,354.93 L 632.43,355.54 L 630.23,359.29 L 632.39,354.93 Z M 628.23,353.66 L 628.38,354.57 L 628.19,354.41 L 628.23,353.66 Z M 626.87,352.18 L 627.95,351.45 L 627.44,352.36 L 626.87,352.18 Z M 630.41,347.18 L 630.10,347.86 L 629.61,348.37 L 628.93,348.56 L 631.32,343.96 L 630.41,347.18 Z M 628.00,355.65 L 627.86,356.15 L 627.22,355.26 L 628.00,355.65 Z M 629.66,345.51 L 629.36,345.66 L 629.32,345.55 L 629.66,345.51 Z M 630.07,345.09 L 629.80,345.36 L 629.75,345.21 L 630.07,345.09 Z M 631.05,343.49 L 630.84,343.86 L 630.79,343.48 L 631.05,343.49 Z" fill="#C8D8E8" stroke="#8BAABB" stroke-width="0.8"/>
<path d="M 604.10,408.79 L 605.04,411.71 L 602.44,412.78 L 601.52,415.05 L 600.13,414.68 L 597.18,416.79 L 596.00,420.32 L 588.40,417.19 L 576.80,416.46 L 562.14,406.30 L 563.49,403.94 L 563.59,398.57 L 564.86,397.23 L 562.69,393.82 L 570.12,380.24 L 590.65,379.59 L 591.32,374.08 L 587.57,372.98 L 584.98,367.43 L 580.92,365.67 L 577.38,360.99 L 574.81,359.99 L 581.91,359.75 L 582.06,350.14 L 610.78,350.08 L 609.58,383.12 L 616.66,383.72 L 619.47,386.42 L 620.28,383.82 L 621.37,383.93 L 619.53,381.81 L 625.59,386.01 L 610.77,397.46 L 609.65,401.10 L 610.78,405.70 L 607.61,408.55 L 604.10,408.79 Z" fill="#C8D8E8" stroke="#8BAABB" stroke-width="0.8"/>
<path d="M 798.13,14.55 L 799.28,14.65 L 799.28,60.54 L 797.15,61.95 L 796.13,61.47 L 797.20,60.42 L 795.59,58.64 L 796.43,60.73 L 795.36,61.13 L 796.48,62.53 L 794.01,63.54 L 790.94,66.17 L 789.33,68.04 L 788.67,69.50 L 788.09,72.32 L 787.61,72.80 L 787.93,69.74 L 787.28,68.32 L 786.41,73.39 L 780.79,72.45 L 774.66,75.41 L 768.83,81.63 L 768.04,85.06 L 766.64,83.35 L 767.94,81.29 L 766.56,82.63 L 766.34,84.03 L 768.04,85.65 L 765.56,86.13 L 766.32,86.94 L 765.07,87.71 L 764.83,88.51 L 761.71,88.57 L 761.65,90.29 L 757.87,92.89 L 756.05,91.36 L 756.94,94.17 L 752.38,96.26 L 750.98,95.32 L 751.95,96.37 L 750.07,97.61 L 746.66,96.37 L 744.61,97.05 L 747.63,97.79 L 745.91,98.15 L 747.94,98.73 L 746.54,100.04 L 748.39,98.96 L 746.45,101.22 L 745.13,101.42 L 744.81,98.05 L 744.65,100.76 L 743.20,99.81 L 742.79,97.47 L 741.69,96.73 L 742.58,100.51 L 744.48,102.32 L 742.23,104.15 L 742.92,102.45 L 742.75,101.96 L 741.07,105.00 L 742.00,105.96 L 740.39,106.42 L 740.07,108.09 L 737.54,107.60 L 737.15,108.51 L 738.78,108.99 L 737.74,110.44 L 735.10,110.05 L 736.31,110.87 L 734.19,113.71 L 734.27,117.22 L 731.64,116.89 L 735.19,118.77 L 733.32,120.78 L 732.24,119.67 L 731.64,121.26 L 733.02,121.59 L 732.72,122.79 L 731.31,121.61 L 732.30,122.84 L 731.21,123.62 L 732.30,123.85 L 731.00,125.74 L 731.54,128.31 L 732.65,128.70 L 732.51,131.41 L 731.70,129.74 L 731.52,130.94 L 732.95,132.57 L 734.77,142.25 L 740.63,156.45 L 745.28,163.64 L 746.84,166.70 L 745.83,171.26 L 748.06,177.13 L 745.40,171.27 L 745.70,164.51 L 743.10,164.30 L 743.31,162.07 L 741.80,161.23 L 743.53,168.41 L 749.16,180.58 L 749.72,183.18 L 752.05,188.67 L 752.06,188.93 L 751.75,188.44 L 750.21,187.86 L 752.82,189.66 L 754.57,195.29 L 753.14,213.11 L 752.95,210.95 L 750.33,215.81 L 748.82,223.24 L 746.25,222.22 L 743.96,223.95 L 737.80,224.30 L 736.61,222.53 L 736.81,221.32 L 737.36,220.52 L 738.18,221.75 L 739.64,222.41 L 739.32,222.76 L 740.71,222.22 L 737.18,219.83 L 733.91,212.39 L 729.59,210.15 L 727.87,210.61 L 728.93,209.56 L 726.78,207.55 L 725.91,201.52 L 723.51,200.91 L 727.11,196.94 L 723.03,200.16 L 722.11,193.60 L 723.98,192.10 L 721.20,193.28 L 719.33,191.76 L 721.28,195.42 L 718.70,194.63 L 714.60,185.24 L 712.64,184.21 L 712.15,183.18 L 714.36,183.38 L 713.60,183.03 L 717.50,178.08 L 717.00,176.26 L 715.34,177.85 L 715.11,175.82 L 712.75,174.19 L 713.49,175.37 L 712.31,176.08 L 714.79,176.79 L 713.33,180.08 L 710.80,177.72 L 711.99,179.50 L 712.31,180.69 L 710.37,177.78 L 713.17,167.13 L 713.66,159.56 L 711.02,154.62 L 707.24,154.53 L 697.15,141.78 L 691.74,138.59 L 688.82,138.58 L 686.07,139.87 L 686.66,140.94 L 684.97,140.33 L 684.77,140.60 L 686.71,141.34 L 686.62,142.11 L 686.17,142.36 L 684.11,141.76 L 678.32,145.01 L 678.35,143.79 L 676.29,145.31 L 670.90,145.96 L 670.19,145.31 L 669.84,142.98 L 671.30,145.70 L 670.74,142.34 L 665.65,138.11 L 669.38,140.08 L 670.13,139.47 L 665.00,137.06 L 667.60,135.52 L 667.11,134.81 L 662.89,135.87 L 665.00,138.11 L 652.54,133.41 L 658.90,133.77 L 657.33,131.74 L 654.16,132.49 L 652.90,131.41 L 651.10,133.23 L 648.26,133.16 L 641.77,134.23 L 646.51,132.87 L 644.37,129.97 L 643.61,132.69 L 641.99,130.36 L 642.36,132.26 L 639.65,134.92 L 636.49,135.65 L 639.39,133.07 L 638.11,132.11 L 637.37,134.24 L 635.19,134.23 L 635.53,135.69 L 634.52,136.09 L 628.60,136.57 L 632.79,135.61 L 631.89,133.46 L 630.47,133.31 L 630.45,130.38 L 628.60,127.73 L 626.90,134.92 L 623.78,133.48 L 621.65,134.85 L 619.75,133.63 L 617.37,134.33 L 614.45,132.82 L 613.59,133.16 L 615.53,133.40 L 609.31,134.93 L 608.08,133.94 L 606.33,137.16 L 603.92,137.74 L 594.56,133.70 L 591.16,136.64 L 591.02,138.59 L 594.89,140.00 L 602.79,137.60 L 601.99,139.85 L 600.06,140.23 L 602.83,142.57 L 605.64,139.11 L 607.54,139.59 L 606.14,140.83 L 607.47,141.27 L 606.46,141.65 L 608.08,142.49 L 607.87,144.01 L 605.70,143.29 L 603.83,144.99 L 605.70,146.72 L 602.24,145.42 L 603.54,146.84 L 601.38,146.72 L 605.06,149.55 L 604.80,150.79 L 610.20,151.55 L 613.15,154.62 L 611.78,154.88 L 612.94,155.09 L 611.20,157.69 L 609.40,155.81 L 606.79,158.86 L 608.96,154.87 L 607.26,156.12 L 606.13,153.32 L 600.41,152.19 L 601.58,151.27 L 600.44,149.47 L 594.68,147.66 L 594.23,148.77 L 597.17,150.25 L 597.27,152.50 L 593.93,156.14 L 593.44,152.99 L 592.20,152.27 L 591.34,153.45 L 590.70,151.48 L 588.05,152.34 L 587.45,155.21 L 583.61,155.33 L 576.61,152.56 L 578.27,151.09 L 579.36,153.32 L 580.00,152.97 L 577.65,149.56 L 578.18,147.17 L 577.08,149.30 L 575.02,147.89 L 572.97,148.36 L 571.73,144.86 L 568.25,145.26 L 568.43,143.33 L 562.83,144.48 L 564.45,145.42 L 564.33,146.95 L 565.63,146.84 L 561.07,148.44 L 547.11,144.33 L 537.16,145.58 L 536.17,144.02 L 538.28,141.10 L 536.80,140.66 L 535.47,143.76 L 536.46,146.01 L 532.89,146.09 L 522.48,151.32 L 523.45,149.67 L 526.55,148.58 L 526.84,147.89 L 522.22,148.51 L 523.58,145.65 L 522.93,144.17 L 520.00,146.35 L 517.91,144.73 L 518.96,146.02 L 518.36,148.30 L 521.56,151.19 L 516.91,154.62 L 516.05,154.03 L 516.23,156.84 L 509.25,161.69 L 503.73,162.98 L 503.92,164.07 L 507.40,162.52 L 499.52,166.41 L 503.17,163.74 L 499.40,164.73 L 500.82,164.05 L 499.58,164.01 L 500.01,162.95 L 497.52,163.90 L 496.93,162.27 L 495.96,161.69 L 497.15,164.05 L 496.23,164.59 L 495.20,164.87 L 495.93,163.90 L 492.71,162.28 L 493.38,164.87 L 495.20,166.05 L 494.34,166.76 L 496.61,167.35 L 492.67,169.34 L 490.47,166.58 L 490.88,167.77 L 489.66,167.68 L 490.64,170.68 L 489.10,172.24 L 488.08,172.66 L 488.63,170.30 L 487.64,172.53 L 486.99,171.24 L 484.48,172.10 L 483.78,173.55 L 484.86,174.74 L 486.88,173.11 L 484.31,177.64 L 479.00,177.02 L 481.05,177.48 L 483.12,180.08 L 480.73,186.27 L 478.68,187.04 L 479.54,185.15 L 477.28,186.87 L 475.01,183.98 L 476.69,186.69 L 475.22,187.24 L 480.50,187.50 L 479.63,191.66 L 478.34,192.15 L 479.63,194.14 L 478.35,194.83 L 482.32,207.12 L 483.87,207.67 L 483.18,209.26 L 484.82,207.95 L 485.04,209.68 L 482.03,210.39 L 481.44,211.93 L 476.81,208.72 L 467.94,207.95 L 458.82,202.84 L 454.01,201.96 L 451.77,195.01 L 448.41,191.06 L 447.57,181.91 L 442.56,178.67 L 439.03,172.46 L 435.59,170.06 L 434.84,166.05 L 430.08,158.92 L 429.38,155.63 L 420.81,148.48 L 420.48,146.92 L 419.24,147.34 L 417.78,144.24 L 406.68,143.83 L 403.34,142.25 L 402.00,144.26 L 397.51,144.95 L 394.48,151.71 L 394.86,153.69 L 390.70,157.69 L 386.54,157.13 L 380.29,152.90 L 375.97,151.80 L 368.73,146.37 L 366.15,141.42 L 366.13,137.10 L 362.15,129.92 L 355.38,125.79 L 345.96,116.84 L 342.05,115.01 L 339.18,110.39 L 310.44,109.84 L 310.44,117.59 L 265.48,117.48 L 206.30,97.41 L 207.84,93.75 L 170.00,96.87 L 168.40,94.02 L 170.15,95.69 L 169.87,94.15 L 169.22,93.51 L 167.95,94.12 L 166.89,86.94 L 163.95,83.04 L 154.36,76.02 L 153.17,76.22 L 152.72,75.55 L 152.19,75.64 L 151.84,75.79 L 151.62,76.71 L 149.71,76.05 L 150.04,74.43 L 148.10,71.22 L 143.49,71.61 L 138.42,69.87 L 131.57,64.47 L 117.52,63.99 L 114.65,61.92 L 114.52,52.00 L 110.86,50.55 L 111.58,48.62 L 110.70,46.95 L 104.38,42.96 L 100.93,37.14 L 94.74,31.96 L 93.46,27.15 L 96.88,24.77 L 96.24,22.81 L 94.65,20.52 L 91.03,20.58 L 87.81,17.95 L 84.95,10.85 L 85.04,6.55 L 86.72,6.05 L 87.26,9.60 L 91.58,12.16 L 92.65,12.02 L 89.73,6.94 L 87.93,6.53 L 88.21,4.75 L 86.39,3.40 L 87.38,2.57 L 98.04,2.63 L 99.36,1.08 L 99.26,2.42 L 101.90,2.72 L 99.40,0.97 L 96.65,2.17 L 98.16,0.25 L 94.76,1.87 L 92.29,0.48 L 91.10,2.06 L 86.91,0.15 L 85.24,0.83 L 86.14,3.04 L 85.22,4.08 L 86.24,4.81 L 84.83,5.94 L 78.65,1.66 L 77.99,2.92 L 76.96,2.88 L 78.19,0.31 L 78.06,0.00 L 78.73,0.00 L 80.14,1.54 L 80.04,1.14 L 79.17,0.00 L 799.28,0.00 L 799.28,14.52 L 798.13,14.55 Z M 727.87,234.08 L 726.57,234.32 L 726.63,234.05 L 727.87,234.08 Z M 729.05,233.37 L 729.16,233.74 L 727.97,234.08 L 729.05,233.37 Z M 731.04,233.07 L 729.37,233.61 L 731.10,232.91 L 730.57,231.72 L 731.43,232.66 L 731.04,233.07 Z M 737.26,231.49 L 738.78,231.02 L 738.21,231.45 L 737.26,231.49 Z M 733.80,231.85 L 733.69,232.79 L 733.66,232.28 L 732.62,230.67 L 733.80,231.85 Z M 740.05,230.76 L 738.88,231.25 L 740.11,230.43 L 740.05,230.76 Z M 742.52,229.72 L 741.69,229.83 L 741.85,229.64 L 742.52,229.72 Z M 749.47,223.70 L 746.05,227.30 L 745.74,227.31 L 749.54,222.54 L 749.35,221.53 L 751.20,220.52 L 749.47,223.70 Z M 751.75,219.30 L 751.42,219.46 L 752.20,217.87 L 751.75,219.30 Z M 752.28,214.17 L 752.71,213.80 L 752.67,214.76 L 752.28,214.17 Z M 723.22,201.54 L 721.06,201.43 L 720.41,199.77 L 723.22,201.54 Z M 719.77,197.29 L 720.09,198.73 L 719.74,197.99 L 719.77,197.29 Z M 721.56,198.75 L 720.84,197.18 L 721.85,197.99 L 722.35,200.79 L 721.56,198.75 Z M 719.58,196.19 L 719.44,196.94 L 719.11,195.43 L 719.58,196.19 Z M 484.59,207.47 L 480.95,194.95 L 480.83,189.88 L 481.04,188.72 L 481.27,188.46 L 481.81,196.22 L 484.59,207.47 Z M 712.91,184.57 L 714.36,186.46 L 713.41,185.48 L 712.91,184.57 Z M 486.52,177.67 L 480.95,188.10 L 483.21,180.69 L 483.97,181.15 L 486.52,177.67 Z M 748.16,177.29 L 752.60,189.05 L 750.56,184.86 L 748.16,177.29 Z M 489.57,173.61 L 486.67,177.38 L 487.64,174.66 L 489.10,172.60 L 489.57,173.61 Z M 745.07,171.32 L 744.94,171.00 L 745.25,171.72 L 745.07,171.32 Z M 496.40,169.18 L 489.80,173.61 L 490.24,171.61 L 496.23,168.07 L 496.40,169.18 Z M 498.04,166.94 L 499.31,166.41 L 498.50,167.13 L 497.15,167.83 L 498.04,166.94 Z M 745.52,165.05 L 744.93,170.96 L 743.54,166.49 L 745.52,165.05 Z M 583.31,156.64 L 583.68,156.75 L 583.12,156.75 L 583.31,156.64 Z M 592.65,156.21 L 593.07,156.15 L 593.07,156.28 L 592.65,156.21 Z M 598.25,153.20 L 597.06,153.91 L 597.16,153.53 L 598.25,153.20 Z M 523.08,151.90 L 516.90,156.10 L 521.35,151.44 L 523.08,151.90 Z M 610.69,149.33 L 609.81,149.55 L 610.58,149.21 L 610.69,149.33 Z M 568.54,149.30 L 565.46,147.37 L 567.33,146.48 L 570.43,147.62 L 568.54,149.30 Z M 673.65,146.12 L 673.00,145.78 L 675.00,145.83 L 673.65,146.12 Z M 681.20,144.48 L 679.70,145.66 L 676.84,147.10 L 675.58,147.21 L 674.82,146.84 L 681.20,144.48 Z M 606.57,144.83 L 605.59,144.96 L 605.58,143.97 L 606.57,144.83 Z M 608.94,143.66 L 608.73,144.36 L 608.00,143.75 L 608.94,143.66 Z M 683.03,143.52 L 681.64,144.23 L 681.77,144.09 L 683.03,143.52 Z M 609.60,141.60 L 608.68,141.80 L 608.91,141.50 L 609.60,141.60 Z M 608.65,141.42 L 608.14,141.87 L 608.93,140.73 L 608.65,141.42 Z M 615.67,139.62 L 616.18,140.71 L 616.29,141.88 L 616.13,143.30 L 615.60,144.39 L 615.67,139.62 Z M 606.61,137.97 L 606.51,138.13 L 606.38,138.07 L 606.61,137.97 Z M 609.81,139.84 L 607.87,139.29 L 610.46,137.52 L 609.37,138.67 L 609.81,139.84 Z M 614.45,136.68 L 613.79,136.80 L 613.82,136.74 L 614.45,136.68 Z M 621.14,136.57 L 622.33,136.70 L 622.23,136.82 L 621.14,136.57 Z M 611.97,137.06 L 610.89,136.47 L 612.09,136.28 L 611.97,137.06 Z M 620.59,136.56 L 617.15,136.12 L 618.07,135.99 L 620.59,136.56 Z M 627.64,136.21 L 624.16,136.35 L 627.35,135.67 L 627.64,136.21 Z M 652.37,133.52 L 641.03,134.81 L 640.16,134.71 L 652.37,133.52 Z M 731.81,124.86 L 732.83,123.73 L 732.13,127.94 L 731.81,124.86 Z M 148.34,91.38 L 146.64,88.28 L 147.31,88.40 L 150.55,91.77 L 148.34,91.38 Z M 765.24,88.71 L 765.12,88.71 L 765.21,88.07 L 765.24,88.71 Z M 133.60,84.96 L 131.32,84.06 L 132.06,83.88 L 133.60,84.96 Z M 146.69,80.61 L 150.39,81.78 L 151.41,83.49 L 148.90,83.24 L 146.69,80.61 Z M 787.17,74.22 L 786.41,73.74 L 786.77,73.34 L 787.17,74.22 Z M 125.17,72.62 L 122.95,73.44 L 120.77,71.59 L 123.99,70.96 L 125.17,72.62 Z M 119.82,71.29 L 117.60,70.99 L 118.87,70.29 L 119.82,71.29 Z M 127.56,72.30 L 125.74,70.57 L 131.54,70.65 L 127.56,72.30 Z M 789.15,68.74 L 789.54,68.55 L 788.90,69.88 L 789.15,68.74 Z M 796.89,62.53 L 792.46,65.37 L 793.33,64.29 L 796.89,62.53 Z M 721.85,234.06 L 721.61,234.18 L 721.62,234.13 L 721.85,234.06 Z M 721.35,233.46 L 721.52,233.45 L 721.90,233.92 L 721.35,233.46 Z M 732.82,232.31 L 732.93,232.38 L 732.87,232.51 L 732.82,232.31 Z M 735.33,232.17 L 735.06,232.37 L 735.03,232.34 L 735.33,232.17 Z M 732.48,232.29 L 732.45,232.46 L 732.14,232.22 L 732.48,232.29 Z M 731.82,232.47 L 731.21,232.06 L 731.29,231.65 L 731.82,232.47 Z M 734.35,231.70 L 734.40,232.04 L 734.03,231.61 L 734.35,231.70 Z M 743.96,228.78 L 743.53,229.02 L 743.67,228.81 L 743.96,228.78 Z M 745.42,227.45 L 744.81,228.15 L 745.31,227.55 L 745.42,227.45 Z M 738.78,221.34 L 738.35,221.69 L 738.17,221.26 L 738.78,221.34 Z M 737.98,221.07 L 737.48,220.66 L 737.57,220.57 L 737.98,221.07 Z M 732.48,212.62 L 732.46,211.95 L 732.64,211.81 L 733.41,212.32 L 732.48,212.62 Z M 731.34,212.06 L 731.26,211.66 L 731.93,211.44 L 731.34,212.06 Z M 729.00,211.20 L 728.43,211.55 L 728.24,210.99 L 729.00,211.20 Z M 731.00,211.33 L 730.80,211.76 L 730.61,210.91 L 731.00,211.33 Z M 713.02,162.54 L 712.67,162.35 L 712.87,162.14 L 713.02,162.54 Z M 712.69,161.28 L 712.93,161.33 L 713.02,161.64 L 712.69,161.28 Z M 587.42,156.37 L 587.20,156.54 L 586.94,156.64 L 585.73,156.92 L 585.45,156.82 L 587.42,156.37 Z M 591.03,156.79 L 589.47,156.34 L 590.42,156.43 L 591.03,156.79 Z M 707.41,155.22 L 706.96,155.29 L 707.09,154.95 L 707.41,155.22 Z M 590.41,153.77 L 590.51,153.15 L 590.70,153.08 L 590.41,153.77 Z M 598.92,152.64 L 598.51,152.86 L 598.59,152.73 L 598.92,152.64 Z M 597.30,149.99 L 596.10,149.48 L 595.66,148.93 L 597.30,149.99 Z M 612.52,147.91 L 611.76,148.67 L 612.41,147.96 L 612.52,147.91 Z M 613.78,146.62 L 613.87,146.57 L 613.65,146.76 L 613.78,146.62 Z M 614.27,146.04 L 615.29,144.77 L 615.05,145.15 L 614.27,146.04 Z M 736.65,114.25 L 735.00,116.59 L 734.67,116.14 L 736.65,114.25 Z M 737.26,111.20 L 736.87,113.46 L 736.58,112.28 L 737.26,111.20 Z M 152.48,76.28 L 152.15,76.48 L 151.99,75.96 L 152.48,76.28 Z" fill="#C8D8E8" stroke="#8BAABB" stroke-width="0.8"/>
<path d="M 484.61,214.00 L 479.98,223.36 L 476.94,234.78 L 475.78,247.00 L 474.25,247.29 L 475.22,249.64 L 475.83,248.14 L 475.51,261.34 L 473.17,267.81 L 474.06,266.54 L 475.22,276.41 L 477.59,280.89 L 482.23,285.62 L 480.61,290.56 L 479.77,287.74 L 481.38,286.02 L 477.36,281.60 L 474.90,276.41 L 476.85,284.32 L 479.50,287.00 L 479.38,288.37 L 484.84,301.34 L 495.78,314.73 L 498.40,323.96 L 506.87,333.12 L 503.62,332.15 L 506.01,333.94 L 505.31,334.55 L 509.78,335.13 L 507.26,333.85 L 507.19,333.12 L 509.54,334.47 L 515.74,334.75 L 518.35,337.18 L 522.09,338.07 L 525.34,343.62 L 527.14,344.40 L 537.95,342.19 L 541.17,339.80 L 537.03,341.40 L 541.55,339.49 L 547.81,339.26 L 548.23,341.02 L 548.09,339.50 L 552.53,338.86 L 554.72,336.69 L 555.48,339.49 L 555.05,336.29 L 559.64,335.34 L 566.84,334.99 L 568.13,336.59 L 566.81,336.05 L 565.19,337.48 L 567.78,338.18 L 566.49,336.66 L 567.57,336.89 L 568.95,340.20 L 569.20,338.43 L 574.12,339.37 L 573.84,338.07 L 578.92,335.59 L 577.08,336.07 L 577.60,334.23 L 575.25,332.88 L 578.05,330.41 L 573.82,332.83 L 585.42,324.36 L 586.77,316.72 L 590.02,313.81 L 589.82,303.28 L 592.31,294.71 L 600.92,290.37 L 611.53,289.03 L 622.01,285.37 L 624.34,285.73 L 627.73,285.13 L 625.37,285.40 L 627.03,284.67 L 640.78,287.69 L 642.65,285.58 L 638.32,286.08 L 643.08,284.54 L 647.54,287.81 L 647.75,291.74 L 648.91,292.44 L 646.80,297.76 L 638.05,308.67 L 637.99,314.38 L 637.27,316.18 L 637.84,313.96 L 637.30,313.08 L 637.67,314.38 L 634.31,318.77 L 633.15,318.12 L 634.21,320.98 L 637.88,320.15 L 636.49,319.57 L 637.89,318.74 L 638.33,319.74 L 637.61,321.85 L 634.18,324.32 L 634.76,325.88 L 637.57,324.16 L 631.52,343.50 L 630.09,339.26 L 627.84,338.30 L 629.04,335.01 L 628.50,331.83 L 627.06,334.32 L 626.95,333.64 L 625.94,334.15 L 625.17,334.90 L 626.69,334.86 L 624.61,338.43 L 620.75,339.07 L 615.34,348.76 L 612.53,346.90 L 610.88,347.90 L 610.78,350.08 L 582.06,350.14 L 581.91,359.75 L 574.81,359.99 L 577.38,360.99 L 580.92,365.67 L 584.98,367.43 L 587.57,372.98 L 591.32,374.08 L 590.65,379.59 L 570.12,380.24 L 562.69,393.82 L 564.86,397.23 L 563.59,398.57 L 562.46,406.25 L 552.77,395.72 L 554.40,396.90 L 553.91,395.55 L 550.53,393.93 L 532.25,377.39 L 528.20,376.15 L 527.62,377.07 L 535.07,381.33 L 528.32,378.23 L 523.11,377.86 L 525.34,375.67 L 523.94,375.03 L 522.00,376.86 L 520.65,373.99 L 517.73,376.68 L 521.35,376.38 L 519.83,377.09 L 521.80,377.21 L 522.41,377.87 L 516.38,378.08 L 511.89,381.72 L 499.24,386.74 L 495.02,387.17 L 483.02,382.39 L 475.03,381.65 L 468.74,377.69 L 470.15,378.04 L 470.37,377.81 L 462.74,375.88 L 459.20,371.74 L 445.23,369.28 L 440.06,365.64 L 423.23,359.54 L 408.56,347.32 L 405.40,348.33 L 386.94,342.29 L 377.19,331.83 L 371.65,329.29 L 371.29,327.75 L 369.95,328.27 L 361.21,323.79 L 359.73,320.02 L 352.83,311.92 L 350.10,305.47 L 357.27,302.43 L 355.73,299.49 L 352.53,299.26 L 357.42,294.22 L 358.20,287.65 L 354.05,284.41 L 351.15,278.82 L 349.82,269.22 L 348.50,267.08 L 338.58,257.67 L 337.11,253.85 L 332.85,249.98 L 329.02,243.98 L 317.37,235.44 L 316.99,234.84 L 321.74,237.74 L 321.24,234.67 L 319.75,235.76 L 314.82,232.66 L 316.88,234.55 L 315.27,233.71 L 312.88,230.12 L 314.16,230.63 L 314.06,227.25 L 313.06,226.42 L 312.45,229.49 L 308.66,224.54 L 310.94,226.77 L 311.67,225.42 L 313.77,225.91 L 310.39,223.47 L 308.28,223.53 L 308.13,221.81 L 307.54,223.95 L 306.97,221.96 L 302.29,220.29 L 304.46,220.40 L 301.76,219.89 L 301.71,217.15 L 299.70,216.81 L 299.17,218.42 L 296.24,217.22 L 298.37,217.08 L 300.62,212.60 L 297.09,216.29 L 294.12,214.64 L 295.60,216.87 L 291.60,215.33 L 293.54,214.22 L 292.11,213.34 L 291.60,214.52 L 291.24,208.87 L 293.93,204.01 L 293.77,206.35 L 294.65,203.33 L 296.34,205.52 L 296.68,204.25 L 296.24,204.27 L 295.60,202.98 L 295.16,202.73 L 294.13,203.49 L 294.04,200.68 L 290.45,196.47 L 289.35,196.91 L 290.27,197.73 L 285.70,196.87 L 282.84,190.17 L 277.77,189.49 L 274.07,187.04 L 275.60,186.84 L 273.62,185.55 L 272.42,181.01 L 273.66,179.26 L 272.85,179.09 L 272.70,177.85 L 274.21,177.02 L 268.92,176.44 L 269.08,175.02 L 268.33,177.61 L 266.55,175.45 L 264.89,175.95 L 259.64,168.17 L 255.38,166.92 L 251.58,161.82 L 252.86,161.02 L 248.16,158.20 L 247.01,152.20 L 244.30,151.70 L 244.83,149.27 L 239.02,141.96 L 238.73,136.78 L 233.76,128.89 L 233.57,119.74 L 231.35,118.26 L 225.21,117.62 L 224.62,114.66 L 219.61,111.81 L 220.03,113.45 L 218.80,114.76 L 215.96,114.41 L 203.03,106.51 L 206.95,111.94 L 205.32,121.14 L 208.06,124.62 L 209.32,131.91 L 208.76,136.99 L 210.85,140.98 L 213.25,144.30 L 215.97,144.82 L 224.99,152.77 L 226.74,159.49 L 228.17,158.32 L 229.43,161.07 L 231.55,160.64 L 233.39,166.15 L 237.44,167.24 L 238.59,177.18 L 241.35,180.78 L 245.19,182.62 L 247.43,188.42 L 251.56,190.43 L 250.51,192.41 L 252.82,195.00 L 252.35,196.95 L 254.18,199.41 L 255.87,199.23 L 253.70,196.95 L 253.12,194.10 L 257.71,197.27 L 257.64,199.64 L 259.57,200.34 L 259.15,202.03 L 261.47,207.55 L 261.70,213.04 L 264.59,217.32 L 266.24,217.58 L 268.05,223.99 L 271.52,228.46 L 270.66,234.11 L 272.69,239.29 L 277.18,240.63 L 275.49,240.67 L 276.62,241.74 L 277.56,239.92 L 277.06,238.00 L 278.64,237.75 L 282.19,240.92 L 282.50,242.86 L 285.01,242.57 L 287.09,249.41 L 290.69,251.31 L 291.55,254.12 L 290.28,258.25 L 283.95,263.02 L 282.31,262.67 L 277.46,251.55 L 259.54,238.07 L 260.87,238.66 L 255.84,233.57 L 253.73,234.95 L 250.65,228.61 L 251.30,230.85 L 250.22,229.19 L 249.39,230.35 L 249.25,226.45 L 248.50,228.61 L 248.17,227.24 L 250.29,218.30 L 249.45,218.17 L 249.50,214.05 L 249.14,217.77 L 247.96,210.01 L 244.43,205.11 L 239.92,203.69 L 234.06,198.94 L 233.14,195.58 L 231.62,196.44 L 232.72,192.55 L 230.75,196.30 L 227.59,195.40 L 224.97,196.76 L 222.15,192.92 L 219.17,192.43 L 216.39,189.64 L 212.40,189.00 L 211.27,185.05 L 203.14,179.30 L 202.17,177.40 L 211.39,178.72 L 214.27,176.99 L 214.80,179.38 L 217.63,181.68 L 218.08,180.16 L 219.99,180.76 L 220.54,179.66 L 218.32,178.25 L 218.44,179.65 L 217.03,179.46 L 216.84,175.78 L 214.90,176.53 L 217.14,173.39 L 216.88,174.76 L 217.58,176.07 L 217.34,174.44 L 218.63,174.36 L 217.29,170.43 L 218.18,165.92 L 203.93,151.13 L 200.54,150.25 L 192.50,144.62 L 192.46,142.18 L 190.71,140.97 L 190.30,134.46 L 188.12,133.52 L 188.77,132.69 L 187.90,131.87 L 187.66,134.24 L 186.95,132.17 L 186.82,126.62 L 182.44,123.97 L 182.35,119.44 L 177.08,113.71 L 177.52,111.88 L 175.90,110.27 L 177.59,110.59 L 178.09,108.72 L 174.09,105.79 L 170.00,96.87 L 207.84,93.75 L 206.30,97.41 L 266.44,117.59 L 310.44,117.59 L 310.44,109.84 L 338.59,110.17 L 342.05,115.01 L 345.96,116.84 L 355.38,125.79 L 362.15,129.92 L 366.13,137.10 L 366.15,141.42 L 368.73,146.37 L 375.97,151.80 L 380.29,152.90 L 386.54,157.13 L 390.70,157.69 L 394.86,153.69 L 394.48,151.71 L 397.51,144.95 L 402.00,144.26 L 403.34,142.25 L 406.68,143.83 L 417.78,144.24 L 419.24,147.34 L 420.48,146.92 L 420.81,148.48 L 429.38,155.63 L 430.08,158.92 L 434.84,166.05 L 435.59,170.06 L 439.03,172.46 L 442.56,178.67 L 447.57,181.91 L 448.41,191.06 L 451.77,195.01 L 454.01,201.96 L 458.82,202.84 L 467.94,207.95 L 476.81,208.72 L 480.51,211.74 L 485.02,209.83 L 484.61,214.00 Z M 207.84,340.78 L 207.89,340.93 L 206.67,341.19 L 207.84,340.78 Z M 267.73,334.37 L 265.48,333.66 L 266.53,331.94 L 267.73,334.37 Z M 269.89,324.28 L 269.22,324.97 L 269.13,324.63 L 269.89,324.28 Z M 341.77,290.26 L 340.95,289.85 L 341.25,289.52 L 341.77,290.26 Z M 339.25,288.03 L 337.59,287.20 L 338.11,286.75 L 339.25,288.03 Z M 336.96,285.95 L 335.40,284.93 L 334.94,283.34 L 337.28,285.00 L 336.96,285.95 Z M 334.98,282.54 L 334.65,282.76 L 334.49,282.42 L 334.98,282.54 Z M 285.41,241.29 L 283.87,240.23 L 283.36,237.21 L 285.41,241.29 Z M 259.24,237.98 L 255.93,237.49 L 256.17,237.20 L 259.24,237.98 Z M 255.38,238.49 L 250.67,234.80 L 252.92,234.70 L 255.38,238.49 Z M 277.77,235.57 L 276.82,236.73 L 275.75,233.85 L 277.77,235.57 Z M 273.24,226.18 L 274.03,228.51 L 272.18,227.92 L 271.10,224.81 L 273.24,226.18 Z M 249.84,234.35 L 248.00,232.41 L 248.32,230.86 L 245.98,230.02 L 248.80,221.87 L 247.41,229.07 L 248.96,231.79 L 248.63,232.76 L 249.84,234.35 Z M 301.43,219.82 L 297.86,218.76 L 299.63,218.77 L 301.43,219.82 Z M 269.61,215.36 L 270.11,214.18 L 270.43,216.16 L 269.61,215.36 Z M 263.69,210.92 L 263.31,212.62 L 263.77,208.50 L 265.65,208.01 L 263.69,210.92 Z M 282.54,190.84 L 283.28,191.67 L 282.44,190.93 L 281.60,190.54 L 282.54,190.84 Z M 272.77,185.46 L 272.96,184.86 L 273.88,187.15 L 272.77,185.46 Z M 201.04,172.41 L 199.90,174.35 L 197.85,173.41 L 199.71,170.81 L 199.57,168.65 L 201.04,172.41 Z M 237.21,163.27 L 238.92,164.66 L 238.58,164.93 L 237.21,163.27 Z M 242.14,162.30 L 242.05,163.27 L 241.25,163.32 L 242.14,162.30 Z M 241.59,159.77 L 243.12,158.12 L 243.45,154.50 L 246.61,153.38 L 247.70,157.26 L 246.45,161.61 L 241.59,159.77 Z M 233.21,157.90 L 227.20,152.72 L 225.73,150.58 L 226.02,148.34 L 228.79,149.73 L 229.18,152.30 L 232.36,152.88 L 233.21,157.90 Z M 208.06,110.08 L 208.97,111.35 L 207.24,110.91 L 206.86,109.40 L 208.06,110.08 Z M 639.94,337.12 L 639.56,339.06 L 638.85,339.96 L 639.94,337.12 Z M 640.92,335.25 L 640.69,336.07 L 640.76,335.58 L 640.59,334.18 L 640.92,335.25 Z M 573.29,333.24 L 573.52,333.94 L 568.50,335.68 L 573.29,333.24 Z M 648.03,304.26 L 644.91,307.99 L 645.34,303.76 L 648.79,302.28 L 648.03,304.26 Z M 648.94,291.09 L 648.91,290.32 L 649.13,291.09 L 649.55,291.85 L 648.94,291.09 Z M 477.59,282.53 L 476.75,281.87 L 476.42,280.43 L 477.59,282.53 Z M 474.63,264.94 L 474.78,264.73 L 474.66,265.61 L 473.92,266.28 L 474.63,264.94 Z M 152.65,159.09 L 151.66,159.90 L 150.45,155.36 L 151.89,154.37 L 152.65,159.09 Z M 232.27,196.85 L 232.84,197.80 L 230.85,197.05 L 232.27,196.85 Z M 602.98,269.94 L 601.55,268.13 L 603.69,270.13 L 602.84,271.68 L 602.98,269.94 Z M 273.33,229.13 L 273.45,229.63 L 273.16,229.52 L 273.33,229.13 Z M 191.64,227.25 L 191.62,227.26 L 191.61,227.23 L 191.64,227.25 Z M 271.44,221.14 L 270.82,221.98 L 270.75,221.49 L 271.44,221.14 Z M 249.23,218.09 L 249.13,220.56 L 248.84,221.59 L 249.23,218.09 Z M 266.24,214.51 L 266.09,215.23 L 265.79,214.91 L 266.24,214.51 Z M 262.64,212.70 L 262.67,213.27 L 262.47,213.00 L 262.64,212.70 Z M 262.38,206.92 L 262.38,207.44 L 262.03,207.47 L 262.38,206.92 Z M 250.07,188.31 L 249.73,188.96 L 249.40,188.89 L 250.07,188.31 Z M 252.34,184.31 L 253.04,184.50 L 252.99,184.64 L 252.34,184.31 Z M 200.93,177.10 L 200.90,177.39 L 200.02,176.75 L 200.93,177.10 Z M 260.43,175.04 L 260.78,175.64 L 260.52,175.57 L 260.43,175.04 Z M 194.22,169.50 L 194.59,169.55 L 194.16,169.72 L 194.22,169.50 Z M 227.06,156.04 L 227.26,157.01 L 226.91,156.71 L 227.06,156.04 Z M 212.92,140.66 L 213.03,141.11 L 212.60,141.00 L 212.92,140.66 Z M 186.00,131.90 L 186.09,132.12 L 185.80,132.08 L 186.00,131.90 Z M 168.11,98.88 L 168.20,99.32 L 168.14,99.33 L 168.11,98.88 Z" fill="#4A90D9" stroke="#1a5fa8" stroke-width="1.2"/>
<path d="M 743.48,197.41 L 737.81,192.66 L 742.74,188.66 L 745.26,191.84 L 743.48,197.41 Z" fill="#A8C8E8" stroke="none"/>
<path d="M 680.02,465.76 L 677.96,466.82 L 666.46,462.92 L 661.87,454.97 L 662.62,448.43 L 666.98,449.21 L 669.54,452.43 L 673.42,454.32 L 677.96,459.98 L 680.02,465.76 Z M 664.03,455.08 L 663.87,454.21 L 663.05,454.08 L 662.51,455.14 L 664.03,455.08 Z M 666.94,457.14 L 665.11,458.56 L 668.39,460.43 L 669.22,459.96 L 666.94,457.14 Z" fill="#A8C8E8" stroke="none"/>
<path d="M 590.05,137.17 L 588.20,136.70 L 589.67,134.45 L 590.89,135.10 L 590.05,137.17 Z" fill="#A8C8E8" stroke="none"/>
<path d="M 360.81,281.52 L 360.79,281.89 L 359.32,281.24 L 360.81,281.52 Z" fill="#A8C8E8" stroke="none"/>
<path d="M 613.70,387.00 L 613.48,389.76 L 611.91,391.11 L 608.31,392.21 L 606.89,390.31 L 615.97,385.35 L 613.70,387.00 Z" fill="#A8C8E8" stroke="none"/>
<path d="M 397.59,309.09 L 395.59,310.66 L 385.89,308.06 L 394.21,306.83 L 396.76,307.60 L 396.48,309.06 L 397.59,309.09 Z" fill="#A8C8E8" stroke="none"/>
<path d="M 658.74,447.01 L 655.86,447.28 L 655.81,445.26 L 653.89,445.87 L 651.19,443.13 L 656.03,441.48 L 657.44,445.35 L 658.64,444.19 L 658.74,447.01 Z" fill="#A8C8E8" stroke="none"/>
<path d="M 729.28,153.45 L 728.73,152.21 L 729.03,151.56 L 728.61,150.04 L 728.73,148.84 L 731.10,153.20 L 729.28,153.45 Z" fill="#A8C8E8" stroke="none"/>
<path d="M 213.11,63.57 L 213.28,62.30 L 213.72,63.48 L 217.61,66.01 L 213.11,63.57 Z" fill="#A8C8E8" stroke="none"/>
<path d="M 555.66,143.66 L 552.56,142.71 L 553.64,141.71 L 552.45,141.31 L 554.76,141.17 L 555.66,143.66 Z" fill="#A8C8E8" stroke="none"/>
<path d="M 558.42,145.97 L 556.23,144.29 L 557.21,143.29 L 559.49,143.95 L 558.42,145.97 Z" fill="#A8C8E8" stroke="none"/>
<path d="M 736.50,178.67 L 734.56,177.02 L 734.56,175.02 L 736.50,178.67 Z" fill="#A8C8E8" stroke="none"/>
<path d="M 383.31,295.63 L 382.49,296.75 L 381.38,296.67 L 383.31,295.63 Z" fill="#A8C8E8" stroke="none"/>
<path d="M 354.66,280.47 L 353.59,281.82 L 353.50,280.92 L 353.78,279.01 L 354.66,280.47 Z" fill="#A8C8E8" stroke="none"/>
<path d="M 545.80,143.02 L 543.16,142.60 L 544.69,141.86 L 545.00,138.81 L 545.80,143.02 Z" fill="#A8C8E8" stroke="none"/>
<path d="M 593.94,145.92 L 592.08,145.71 L 593.73,144.11 L 592.96,143.07 L 594.63,143.75 L 593.94,145.92 Z" fill="#A8C8E8" stroke="none"/>
<path d="M 432.27,311.81 L 428.89,311.66 L 431.24,310.26 L 432.27,311.81 Z" fill="#A8C8E8" stroke="none"/>
<path d="M 436.99,311.37 L 436.12,312.02 L 435.69,310.84 L 436.99,311.37 Z" fill="#A8C8E8" stroke="none"/>
<path d="M 613.48,417.07 L 610.56,414.35 L 612.79,414.41 L 613.48,417.07 Z" fill="#A8C8E8" stroke="none"/>
<path d="M 617.15,415.65 L 617.03,416.01 L 615.64,416.36 L 617.15,415.65 Z" fill="#A8C8E8" stroke="none"/>
<path d="M 703.99,411.35 L 703.66,411.85 L 702.59,409.52 L 703.99,411.35 Z" fill="#A8C8E8" stroke="none"/>
<path d="M 292.34,131.80 L 292.24,130.68 L 292.68,131.68 L 292.07,132.73 L 292.34,131.80 Z" fill="#A8C8E8" stroke="none"/>
<path d="M 305.54,199.89 L 304.78,200.38 L 304.28,199.90 L 305.69,197.09 L 305.54,199.89 Z" fill="#A8C8E8" stroke="none"/>
<path d="M 729.18,165.15 L 728.53,163.79 L 729.05,163.10 L 730.39,163.78 L 729.18,165.15 Z" fill="#A8C8E8" stroke="none"/>
<path d="M 735.82,185.68 L 734.60,186.80 L 734.03,185.04 L 735.82,185.68 Z" fill="#A8C8E8" stroke="none"/>
<path d="M 528.15,345.67 L 526.97,347.86 L 527.70,345.40 L 526.27,345.10 L 527.72,344.78 L 528.15,345.67 Z" fill="#A8C8E8" stroke="none"/>
<path d="M 473.57,276.67 L 472.61,275.12 L 474.05,274.80 L 473.57,276.67 Z" fill="#A8C8E8" stroke="none"/>
<path d="M 470.94,274.90 L 469.17,274.16 L 469.48,273.65 L 470.79,273.59 L 470.94,274.90 Z" fill="#A8C8E8" stroke="none"/>
<path d="M 291.78,155.73 L 287.70,155.94 L 288.26,159.20 L 286.09,151.44 L 287.76,154.34 L 290.31,155.45 L 292.18,154.43 L 291.78,155.73 Z" fill="#A8C8E8" stroke="none"/>
<path d="M 209.94,48.33 L 208.68,46.89 L 209.09,43.55 L 209.94,48.33 Z" fill="#A8C8E8" stroke="none"/>
<path d="M 225.00,40.11 L 223.83,39.12 L 222.59,36.57 L 219.66,35.07 L 219.33,33.81 L 217.42,36.74 L 215.83,36.96 L 213.62,34.84 L 212.22,36.25 L 210.89,34.55 L 207.57,36.96 L 205.72,34.84 L 212.05,34.24 L 213.94,27.05 L 213.13,33.47 L 214.72,35.82 L 216.87,36.42 L 219.23,32.59 L 219.90,34.44 L 222.92,36.42 L 225.00,40.11 Z" fill="#A8C8E8" stroke="none"/>
<path d="M 276.58,4.42 L 275.28,8.55 L 271.27,11.83 L 272.05,12.44 L 268.71,16.44 L 271.93,16.91 L 268.18,17.03 L 267.00,18.00 L 263.91,18.48 L 264.28,19.75 L 262.50,19.28 L 259.08,21.16 L 257.79,19.15 L 259.58,19.38 L 259.30,18.09 L 261.01,19.60 L 262.36,17.75 L 261.68,17.02 L 263.20,18.45 L 263.63,16.80 L 264.76,17.86 L 267.34,17.39 L 268.71,15.38 L 268.16,14.32 L 270.42,14.08 L 271.19,12.62 L 270.30,10.27 L 271.72,11.34 L 274.32,8.68 L 276.58,4.42 Z" fill="#A8C8E8" stroke="none"/>
<path d="M 423.21,149.90 L 419.97,149.25 L 420.57,147.31 L 419.06,147.25 L 420.79,146.72 L 421.00,148.26 L 423.34,149.18 L 424.56,148.61 L 424.54,147.42 L 425.43,146.50 L 425.19,148.93 L 423.21,149.90 Z" fill="#A8C8E8" stroke="none"/>
<path d="M 130.97,18.91 L 130.86,19.50 L 129.44,19.98 L 130.97,18.91 Z" fill="#A8C8E8" stroke="none"/>
<path d="M 453.41,199.54 L 451.86,199.27 L 451.67,195.30 L 449.91,196.14 L 449.19,195.53 L 450.00,195.82 L 450.19,193.76 L 448.40,191.05 L 451.27,193.88 L 452.76,193.06 L 451.98,194.71 L 452.76,197.18 L 453.64,196.06 L 454.21,196.25 L 453.41,199.54 Z" fill="#A8C8E8" stroke="none"/>
<path d="M 629.23,38.37 L 628.50,36.43 L 630.01,35.13 L 629.85,33.35 L 628.39,30.44 L 627.63,32.95 L 626.83,32.02 L 628.29,27.85 L 624.61,19.62 L 628.64,26.52 L 628.47,29.57 L 630.51,34.20 L 629.23,38.37 Z" fill="#A8C8E8" stroke="none"/>
<path d="M 720.70,77.30 L 718.55,77.01 L 716.07,77.89 L 714.48,77.75 L 719.64,76.58 L 715.61,72.94 L 714.37,74.45 L 715.43,72.56 L 714.25,72.80 L 714.25,71.26 L 718.04,74.11 L 716.64,71.72 L 717.50,72.33 L 720.70,77.30 Z" fill="#A8C8E8" stroke="none"/>
<path d="M 638.72,57.87 L 633.79,58.30 L 636.21,57.01 L 639.72,57.36 L 646.14,61.49 L 638.72,57.87 Z" fill="#A8C8E8" stroke="none"/>
<path d="M 325.40,87.48 L 324.96,90.35 L 324.65,89.59 L 325.40,87.48 Z" fill="#A8C8E8" stroke="none"/>
<path d="M 327.27,84.32 L 326.75,85.88 L 326.59,82.57 L 327.27,84.32 Z" fill="#A8C8E8" stroke="none"/>
<path d="M 378.25,107.54 L 377.66,106.81 L 377.14,105.21 L 378.25,107.54 Z" fill="#A8C8E8" stroke="none"/>
<path d="M 372.24,95.11 L 371.54,95.56 L 372.06,92.96 L 372.24,95.11 Z" fill="#A8C8E8" stroke="none"/>
<path d="M 780.90,29.76 L 781.23,27.32 L 777.66,27.53 L 778.70,26.80 L 774.75,25.05 L 775.95,25.09 L 776.04,23.40 L 778.75,26.33 L 782.03,26.70 L 780.90,29.76 Z" fill="#A8C8E8" stroke="none"/>
<path d="M 490.56,75.50 L 487.32,72.15 L 491.65,73.99 L 491.80,72.67 L 493.61,72.47 L 492.42,70.82 L 494.67,70.09 L 494.45,74.56 L 492.39,74.16 L 490.56,75.50 Z" fill="#A8C8E8" stroke="none"/>
<path d="M 355.10,181.97 L 353.77,183.44 L 350.25,182.80 L 355.10,181.97 Z" fill="#A8C8E8" stroke="none"/>
<path d="M 419.49,337.61 L 417.44,339.49 L 414.09,336.79 L 410.91,337.33 L 410.67,341.29 L 411.72,341.73 L 409.88,342.31 L 410.09,340.02 L 408.47,338.55 L 410.09,339.26 L 410.25,335.19 L 406.20,332.18 L 407.81,331.17 L 407.94,332.65 L 409.12,331.11 L 408.42,333.12 L 410.52,334.88 L 411.38,334.07 L 410.73,336.07 L 414.25,335.25 L 416.03,338.24 L 419.49,337.61 Z" fill="#A8C8E8" stroke="none"/>
<path d="M 564.87,383.82 L 563.84,383.14 L 562.83,384.28 L 563.36,382.76 L 559.01,380.22 L 556.12,382.17 L 557.67,380.46 L 556.99,379.69 L 553.42,381.23 L 554.07,378.63 L 556.55,379.02 L 553.37,376.57 L 552.41,378.20 L 550.97,377.36 L 554.07,374.03 L 552.98,376.16 L 556.61,378.04 L 558.17,376.86 L 557.74,378.94 L 564.47,382.92 L 564.87,383.82 Z" fill="#A8C8E8" stroke="none"/>
<path d="M 678.18,128.21 L 676.89,124.55 L 677.86,127.15 L 680.44,124.79 L 680.02,126.56 L 681.46,126.58 L 678.18,128.21 Z" fill="#A8C8E8" stroke="none"/>
<path d="M 630.93,26.06 L 630.65,26.93 L 627.97,19.71 L 626.92,20.45 L 625.79,19.85 L 628.98,19.33 L 630.86,22.15 L 629.80,23.99 L 630.93,26.06 Z" fill="#A8C8E8" stroke="none"/>
<path d="M 457.33,205.98 L 455.11,208.47 L 455.49,206.42 L 454.05,206.45 L 454.21,205.37 L 456.92,204.48 L 457.33,205.98 Z" fill="#A8C8E8" stroke="none"/>
<path d="M 753.10,83.21 L 755.19,82.23 L 755.31,84.58 L 753.89,84.83 L 753.10,83.21 Z" fill="#A8C8E8" stroke="none"/>
<path d="M 752.65,81.99 L 750.03,81.52 L 748.72,80.88 L 746.77,78.45 L 749.03,80.42 L 752.28,80.05 L 752.65,81.99 Z" fill="#A8C8E8" stroke="none"/>
<path d="M 411.16,46.03 L 414.19,42.02 L 415.92,41.91 L 411.16,46.03 Z" fill="#A8C8E8" stroke="none"/>
<path d="M 384.60,48.39 L 383.31,48.17 L 385.03,47.21 L 386.12,47.92 L 384.60,48.39 Z" fill="#A8C8E8" stroke="none"/>
<path d="M 373.86,47.94 L 371.74,47.45 L 373.86,47.16 L 373.03,46.03 L 374.12,44.97 L 373.86,47.94 Z" fill="#A8C8E8" stroke="none"/>
<path d="M 536.21,109.37 L 533.43,106.04 L 536.72,108.14 L 538.35,113.53 L 539.48,112.41 L 539.06,113.77 L 540.35,113.83 L 539.27,114.77 L 540.90,115.59 L 541.21,120.10 L 537.65,119.12 L 539.38,118.43 L 537.97,118.08 L 539.04,117.95 L 538.99,116.24 L 536.95,116.60 L 538.14,115.36 L 536.21,109.37 Z" fill="#A8C8E8" stroke="none"/>
<path d="M 544.90,363.66 L 539.60,361.05 L 537.10,362.18 L 538.30,360.71 L 540.47,360.70 L 544.90,363.66 Z" fill="#A8C8E8" stroke="none"/>
<path d="M 468.42,331.23 L 467.03,330.01 L 469.41,330.25 L 468.42,331.23 Z" fill="#A8C8E8" stroke="none"/>
<path d="M 460.17,246.48 L 457.70,245.08 L 459.56,243.73 L 458.91,242.40 L 460.66,243.58 L 460.17,246.48 Z" fill="#A8C8E8" stroke="none"/>
<path d="M 284.85,177.65 L 283.65,177.52 L 283.61,175.50 L 284.36,176.44 L 285.49,175.28 L 284.14,172.53 L 285.92,174.87 L 284.85,177.65 Z" fill="#A8C8E8" stroke="none"/>
<path d="M 710.37,65.53 L 708.65,64.89 L 709.86,63.75 L 706.48,63.14 L 705.15,61.28 L 710.47,63.61 L 710.47,61.95 L 709.08,61.25 L 710.14,61.09 L 711.03,62.31 L 710.37,65.53 Z" fill="#A8C8E8" stroke="none"/>
<path d="M 692.97,68.20 L 690.93,68.73 L 690.49,67.78 L 692.86,66.52 L 692.23,65.39 L 692.65,63.48 L 692.78,65.32 L 694.50,65.25 L 693.95,63.70 L 694.82,64.91 L 692.97,68.20 Z" fill="#A8C8E8" stroke="none"/>
<path d="M 792.04,28.81 L 787.70,28.92 L 784.14,27.17 L 785.89,26.68 L 787.86,28.03 L 788.67,27.17 L 792.04,28.81 Z" fill="#A8C8E8" stroke="none"/>
<path d="M 760.71,19.85 L 759.51,19.27 L 761.36,18.91 L 758.75,15.97 L 762.67,18.63 L 760.71,19.85 Z" fill="#A8C8E8" stroke="none"/>
<path d="M 673.86,105.33 L 674.97,106.27 L 675.26,105.11 L 675.48,106.04 L 674.18,109.12 L 675.91,109.82 L 675.12,112.34 L 673.75,111.00 L 673.86,105.33 Z" fill="#A8C8E8" stroke="none"/>
<path d="M 657.18,78.58 L 658.05,79.04 L 655.94,80.64 L 656.57,81.16 L 655.39,81.16 L 657.18,78.58 Z" fill="#A8C8E8" stroke="none"/>
<path d="M 652.69,89.67 L 653.76,91.34 L 653.51,92.11 L 652.90,91.89 L 652.37,88.25 L 652.69,89.67 Z" fill="#A8C8E8" stroke="none"/>
<path d="M 733.72,71.42 L 730.67,70.09 L 735.43,69.51 L 735.80,70.56 L 733.72,71.42 Z" fill="#A8C8E8" stroke="none"/>
<path d="M 480.57,221.46 L 476.73,234.08 L 475.43,246.93 L 474.85,242.33 L 475.99,236.15 L 474.34,236.37 L 473.81,234.66 L 474.90,233.98 L 475.87,235.32 L 476.62,231.61 L 475.70,228.97 L 477.40,227.82 L 475.22,227.00 L 476.39,223.32 L 474.68,222.02 L 475.99,221.88 L 476.47,220.06 L 478.76,221.58 L 478.76,218.63 L 480.30,219.11 L 480.57,221.46 Z" fill="#A8C8E8" stroke="none"/>
<path d="M 193.93,85.07 L 192.00,86.87 L 186.77,80.17 L 188.57,79.85 L 193.57,83.33 L 193.93,85.07 Z" fill="#A8C8E8" stroke="none"/>
<path d="M 496.28,346.67 L 497.48,345.53 L 493.69,342.90 L 494.60,342.94 L 494.44,340.79 L 497.16,343.40 L 496.30,343.01 L 498.31,346.37 L 496.28,346.67 Z M 495.76,342.48 L 495.05,342.03 L 495.11,342.52 L 495.76,342.48 Z" fill="#A8C8E8" stroke="none"/>
<path d="M 760.73,499.04 L 760.02,499.94 L 758.43,499.94 L 758.39,500.00 L 758.34,500.00 L 758.35,499.99 L 756.38,498.95 L 756.19,500.00 L 754.76,500.00 L 757.90,496.05 L 758.75,497.48 L 757.46,498.53 L 760.73,499.04 Z" fill="#A8C8E8" stroke="none"/>
</svg>