<svg xmlns="http://www.w3.org/2000/svg" width="800" height="500" viewBox="0 0 800 500">
<rect width="800" height="500" fill="#A8C8E8"/>
<path d="M 3.76,120.05 L 2.01,123.06 L 0.00,117.59 L 0.00,100.77 L 1.92,99.51 L 4.20,109.67 L 3.76,120.05 Z" fill="#E8E0D0" stroke="#B8B0A0" stroke-width="0.5"/>
<path d="M 300.09,8.54 L 288.96,32.32 L 279.46,33.99 L 285.43,28.23 L 282.64,28.56 L 284.38,23.91 L 280.63,23.50 L 281.74,0.00 L 312.43,0.00 L 300.09,8.54 Z M 328.54,29.22 L 326.57,31.30 L 326.38,28.88 L 328.54,29.22 Z" fill="#E8E0D0" stroke="#B8B0A0" stroke-width="0.5"/>
<path d="M 691.42,181.08 L 691.25,182.98 L 689.36,181.29 L 691.42,181.08 Z M 715.70,158.78 L 713.63,155.17 L 716.03,157.29 L 715.70,158.78 Z M 740.77,96.70 L 739.71,95.42 L 740.42,90.14 L 744.07,92.41 L 740.77,96.70 Z M 799.74,153.66 L 797.98,164.42 L 794.80,165.68 L 775.39,148.23 L 771.65,137.86 L 771.19,120.46 L 769.37,118.89 L 771.01,105.31 L 774.94,99.96 L 776.54,91.42 L 771.92,81.88 L 762.72,71.95 L 756.11,72.34 L 757.16,78.96 L 753.79,83.35 L 755.76,93.12 L 751.93,85.85 L 748.37,86.19 L 749.54,80.75 L 747.79,75.22 L 744.96,88.15 L 742.68,84.53 L 740.26,88.77 L 740.07,75.13 L 735.08,73.65 L 728.18,89.10 L 728.81,92.93 L 723.25,114.29 L 720.29,114.81 L 716.75,108.09 L 723.04,82.55 L 721.99,73.81 L 725.73,63.75 L 736.62,54.91 L 743.40,55.02 L 745.86,39.25 L 752.89,37.16 L 755.90,31.59 L 754.90,28.05 L 757.85,29.22 L 759.59,34.79 L 760.49,30.57 L 764.11,33.61 L 766.30,41.07 L 767.28,54.89 L 762.02,64.55 L 769.46,54.73 L 776.17,52.57 L 780.59,33.59 L 787.00,38.07 L 786.47,42.04 L 789.44,38.76 L 790.87,14.29 L 798.42,22.93 L 800.00,21.24 L 800.00,153.74 L 799.74,153.66 Z M 673.90,201.41 L 671.47,196.46 L 663.78,204.06 L 663.85,200.66 L 673.17,190.35 L 674.80,194.13 L 673.90,201.41 Z M 683.09,146.80 L 680.98,146.91 L 680.92,146.04 L 683.36,140.59 L 683.09,146.80 Z M 724.12,137.21 L 718.36,139.43 L 714.40,129.13 L 721.02,123.30 L 726.88,128.46 L 724.12,137.21 Z M 630.26,112.21 L 628.33,109.96 L 630.45,108.57 L 630.26,112.21 Z M 594.19,68.94 L 592.24,72.39 L 591.01,59.82 L 594.15,60.02 L 594.19,68.94 Z M 591.88,57.85 L 593.14,56.27 L 593.72,58.65 L 591.88,57.85 Z M 596.81,54.30 L 597.22,55.32 L 596.10,55.26 L 596.81,54.30 Z M 601.14,52.27 L 599.36,53.94 L 599.10,47.85 L 601.14,52.27 Z M 598.70,48.33 L 596.82,50.21 L 598.17,46.31 L 598.70,48.33 Z M 789.87,11.03 L 786.47,5.99 L 788.30,2.73 L 790.23,5.15 L 789.87,11.03 Z M 760.89,10.03 L 756.79,5.84 L 761.14,0.64 L 762.56,6.82 L 760.89,10.03 Z M 752.88,2.41 L 750.65,9.58 L 745.63,13.05 L 741.45,0.00 L 752.09,0.00 L 752.88,2.41 Z M 626.75,5.47 L 620.94,8.46 L 617.80,20.15 L 611.22,29.64 L 606.39,31.03 L 605.04,38.45 L 596.84,46.54 L 598.70,33.48 L 608.68,11.97 L 619.31,0.00 L 629.14,0.00 L 626.75,5.47 Z M 655.74,218.26 L 654.55,223.47 L 654.01,211.60 L 655.74,218.26 Z M 699.74,168.45 L 697.29,168.15 L 698.00,166.18 L 699.74,168.45 Z M 704.54,161.38 L 701.30,165.67 L 699.65,161.67 L 692.17,164.38 L 690.59,160.76 L 694.93,154.22 L 704.54,161.38 Z M 709.87,130.61 L 709.55,131.91 L 708.69,128.54 L 709.87,127.30 L 709.87,130.61 Z M 667.38,20.65 L 667.32,20.65 L 667.36,20.49 L 667.38,20.65 Z M 667.58,20.32 L 667.67,20.40 L 667.60,20.47 L 667.58,20.32 Z M 667.52,20.24 L 667.49,20.28 L 667.45,20.18 L 667.52,20.24 Z M 667.58,20.03 L 667.55,20.07 L 667.51,19.97 L 667.58,20.03 Z M 664.66,216.14 L 664.76,216.61 L 663.78,216.35 L 664.66,216.14 Z M 663.26,212.70 L 663.12,210.68 L 664.38,211.50 L 663.26,212.70 Z M 661.91,204.81 L 663.25,201.11 L 663.61,203.57 L 661.91,204.81 Z M 690.86,174.00 L 688.74,174.85 L 688.95,173.50 L 690.86,174.00 Z M 692.05,171.70 L 691.56,173.30 L 691.07,172.83 L 692.05,171.70 Z" fill="#E8E0D0" stroke="#B8B0A0" stroke-width="0.5"/>
<path d="M 256.80,386.32 L 251.75,383.63 L 253.48,378.48 L 259.91,380.32 L 256.80,386.32 Z" fill="#E8E0D0" stroke="#B8B0A0" stroke-width="0.5"/>
<path d="M 547.99,224.38 L 549.87,239.90 L 543.39,235.50 L 541.81,215.55 L 544.77,211.32 L 547.99,224.38 Z M 534.48,219.93 L 537.12,235.99 L 535.11,248.64 L 531.57,254.17 L 526.27,242.48 L 522.78,242.25 L 521.83,231.84 L 515.55,226.09 L 523.90,225.82 L 543.64,204.53 L 534.48,219.93 Z" fill="#C8D8E8" stroke="#8BAABB" stroke-width="0.8"/>
<path d="M 615.08,247.45 L 615.79,252.10 L 613.34,253.04 L 609.90,247.12 L 615.08,247.45 Z M 601.48,246.82 L 609.52,259.35 L 608.56,260.01 L 606.50,258.19 L 605.31,258.36 L 610.30,261.67 L 611.92,265.59 L 609.87,265.61 L 613.02,269.21 L 607.99,272.65 L 603.92,264.95 L 604.97,273.84 L 594.29,271.99 L 592.76,274.46 L 597.06,273.41 L 597.08,276.35 L 598.17,279.45 L 603.36,282.13 L 601.14,291.28 L 598.86,291.76 L 607.70,298.89 L 606.37,303.81 L 609.43,304.79 L 605.83,306.76 L 610.74,307.75 L 607.76,311.40 L 611.95,314.63 L 613.02,321.88 L 619.54,334.85 L 618.92,340.50 L 615.28,346.57 L 613.02,345.95 L 614.91,348.66 L 611.08,349.55 L 614.23,351.52 L 615.52,359.75 L 628.28,375.77 L 629.07,380.15 L 633.07,382.23 L 643.22,400.25 L 637.78,408.48 L 627.23,408.48 L 619.91,403.50 L 614.75,393.66 L 618.29,408.71 L 614.97,406.92 L 610.91,411.57 L 603.95,441.93 L 605.49,448.71 L 603.06,458.67 L 604.64,463.98 L 603.22,472.39 L 608.03,467.27 L 606.02,480.29 L 604.28,480.77 L 607.95,484.19 L 600.62,490.46 L 599.15,486.03 L 593.59,500.00 L 586.06,500.00 L 585.44,496.39 L 585.55,500.00 L 411.61,500.00 L 407.10,493.64 L 407.69,488.99 L 405.49,494.42 L 401.63,488.59 L 398.20,490.97 L 395.20,488.17 L 394.93,479.22 L 400.18,482.57 L 401.14,481.57 L 397.29,478.29 L 398.45,475.85 L 391.79,472.55 L 389.42,458.97 L 393.97,458.55 L 392.23,446.19 L 395.89,446.65 L 386.23,430.81 L 384.56,407.17 L 387.75,401.22 L 386.32,391.23 L 391.88,387.07 L 395.03,380.15 L 387.88,388.74 L 390.10,373.46 L 395.18,365.78 L 396.93,354.16 L 404.68,347.06 L 401.70,356.35 L 404.59,361.59 L 405.00,370.42 L 418.05,390.73 L 420.42,399.38 L 427.82,406.25 L 444.21,395.49 L 451.99,401.11 L 455.04,397.65 L 460.14,398.70 L 462.36,393.63 L 467.01,392.23 L 468.76,378.23 L 476.63,371.84 L 489.43,371.73 L 490.73,374.40 L 489.05,379.14 L 503.47,384.04 L 506.03,388.18 L 513.28,377.85 L 520.00,378.91 L 525.13,374.75 L 529.48,378.21 L 532.89,358.72 L 536.77,355.75 L 535.41,339.19 L 546.30,326.57 L 542.49,321.82 L 542.81,311.06 L 547.21,301.02 L 548.94,303.70 L 552.87,301.54 L 554.23,285.86 L 556.36,282.35 L 554.77,258.79 L 562.55,236.27 L 567.04,241.96 L 569.72,236.77 L 574.43,236.55 L 576.99,241.11 L 579.81,235.91 L 581.55,239.07 L 597.14,237.87 L 606.43,247.30 L 601.48,246.82 Z M 273.45,461.99 L 271.26,462.13 L 271.22,460.77 L 273.45,461.99 Z M 232.50,432.01 L 233.59,432.22 L 232.26,433.51 L 232.50,432.01 Z M 237.40,419.54 L 236.37,415.56 L 236.85,415.51 L 237.40,419.54 Z M 248.63,415.08 L 247.46,417.22 L 247.51,415.76 L 248.63,415.08 Z M 238.40,410.75 L 237.79,412.45 L 237.40,410.60 L 238.40,410.75 Z M 276.71,409.82 L 273.93,411.11 L 274.24,409.28 L 276.71,409.82 Z M 253.73,408.81 L 253.90,410.33 L 253.29,410.37 L 252.44,406.81 L 253.73,408.81 Z M 247.38,405.37 L 245.80,403.36 L 246.99,402.93 L 247.38,405.37 Z M 685.42,396.18 L 685.79,396.97 L 683.86,395.63 L 685.42,396.18 Z M 678.74,396.18 L 678.01,397.95 L 677.75,396.74 L 678.74,396.18 Z M 662.22,469.73 L 663.29,453.10 L 660.12,451.93 L 659.08,446.65 L 664.12,451.21 L 665.54,443.73 L 662.91,435.65 L 665.06,433.36 L 666.14,424.40 L 669.21,422.35 L 669.55,411.87 L 674.17,408.00 L 675.48,399.39 L 677.09,399.93 L 677.21,406.05 L 682.85,409.58 L 685.25,400.61 L 688.80,396.58 L 689.61,383.46 L 695.90,383.16 L 700.60,388.08 L 705.35,384.81 L 705.32,391.07 L 707.78,395.63 L 730.89,398.12 L 740.94,407.85 L 743.97,400.91 L 749.26,402.83 L 749.54,400.38 L 768.45,407.20 L 777.65,398.28 L 780.17,390.17 L 785.38,389.70 L 784.22,381.82 L 791.54,376.57 L 791.29,371.58 L 795.31,363.96 L 800.00,366.43 L 800.00,378.73 L 798.66,380.60 L 793.14,400.40 L 787.16,408.45 L 783.35,422.97 L 778.45,427.99 L 760.73,434.35 L 750.87,431.56 L 746.68,422.35 L 714.24,426.66 L 709.18,420.65 L 696.60,427.59 L 681.19,421.74 L 672.41,436.21 L 668.27,457.21 L 670.25,476.65 L 674.90,490.36 L 681.13,494.01 L 682.46,500.00 L 654.38,500.00 L 654.46,499.83 L 656.29,488.49 L 661.60,477.61 L 664.48,489.17 L 662.22,469.73 Z M 709.65,485.61 L 712.04,492.10 L 722.00,491.65 L 724.61,483.90 L 742.98,483.61 L 738.03,478.30 L 746.72,473.89 L 755.06,478.03 L 756.36,483.58 L 752.71,497.67 L 747.24,487.27 L 740.68,490.36 L 736.63,500.00 L 701.58,500.00 L 709.65,485.61 Z M 179.41,341.03 L 181.60,336.73 L 185.78,337.06 L 192.58,349.88 L 195.38,365.03 L 203.58,367.33 L 212.98,380.54 L 215.28,397.95 L 220.80,408.51 L 234.26,414.68 L 237.34,425.90 L 224.79,438.45 L 222.77,435.80 L 220.93,435.32 L 223.87,439.03 L 232.96,434.29 L 244.66,421.39 L 254.37,433.83 L 255.86,447.50 L 250.13,447.83 L 250.10,452.17 L 242.33,459.53 L 247.90,457.32 L 244.24,464.78 L 250.68,468.14 L 246.08,472.03 L 244.93,468.75 L 246.04,474.80 L 244.24,480.59 L 256.55,498.73 L 259.78,494.09 L 266.31,498.72 L 270.51,496.72 L 270.89,500.00 L 169.58,500.00 L 169.64,497.49 L 166.71,486.37 L 154.55,462.21 L 152.60,448.59 L 142.25,435.68 L 137.08,434.51 L 136.12,418.24 L 126.17,372.01 L 129.05,368.82 L 127.81,363.14 L 125.69,363.73 L 121.73,354.12 L 106.98,338.01 L 101.59,337.56 L 99.40,331.29 L 97.98,309.45 L 92.95,305.74 L 79.67,270.23 L 69.38,265.61 L 62.20,249.15 L 46.10,224.34 L 36.77,192.86 L 37.12,179.39 L 42.70,175.47 L 47.27,176.82 L 54.30,182.32 L 59.41,192.73 L 67.52,196.49 L 81.96,193.79 L 88.40,199.90 L 96.03,195.29 L 105.79,212.23 L 108.02,228.72 L 115.12,234.54 L 114.88,244.81 L 112.66,249.77 L 114.80,246.46 L 115.88,251.12 L 125.33,259.08 L 128.39,268.17 L 152.69,294.35 L 158.51,305.49 L 157.85,317.61 L 159.24,322.11 L 158.37,317.29 L 160.43,316.12 L 162.24,325.60 L 162.12,319.18 L 164.40,317.13 L 170.10,337.93 L 179.73,349.15 L 183.16,359.45 L 179.41,341.03 Z M 400.35,494.09 L 406.67,494.58 L 407.56,500.00 L 399.69,500.00 L 400.35,494.09 Z M 124.86,493.44 L 130.98,491.15 L 133.43,500.00 L 123.91,500.00 L 124.86,493.44 Z M 120.85,474.33 L 115.11,472.39 L 119.03,458.87 L 120.85,474.33 Z M 122.08,465.46 L 115.63,447.50 L 118.44,447.51 L 122.08,465.46 Z M 242.59,421.30 L 239.02,421.24 L 240.00,413.74 L 242.92,417.11 L 242.59,421.30 Z M 248.77,409.78 L 246.17,405.20 L 247.88,406.53 L 248.77,409.78 Z M 258.31,406.16 L 259.41,409.89 L 258.65,409.64 L 256.29,404.58 L 258.31,406.16 Z M 246.50,416.06 L 244.54,405.24 L 245.65,404.87 L 247.89,409.82 L 246.50,416.06 Z M 256.60,407.93 L 256.63,410.38 L 253.93,405.20 L 256.60,407.93 Z M 258.91,402.25 L 256.80,398.97 L 257.85,397.60 L 258.91,402.25 Z M 282.39,398.23 L 282.11,401.26 L 281.05,397.95 L 282.39,398.23 Z M 352.63,398.64 L 351.56,400.54 L 350.79,398.24 L 352.63,398.64 Z M 244.12,398.17 L 243.94,393.76 L 245.37,392.85 L 246.72,398.50 L 244.12,398.17 Z M 235.62,413.82 L 232.76,409.20 L 223.12,409.13 L 220.32,405.20 L 222.72,401.35 L 221.88,394.00 L 224.14,393.07 L 225.39,398.57 L 226.87,399.30 L 229.42,398.57 L 236.68,408.86 L 235.62,413.82 Z M 238.68,407.06 L 230.11,397.60 L 225.88,398.05 L 230.39,391.26 L 238.66,402.57 L 238.68,407.06 Z M 263.26,399.59 L 258.53,395.67 L 261.69,390.08 L 264.63,391.40 L 263.26,399.59 Z M 277.68,402.57 L 275.35,407.30 L 271.63,401.19 L 273.26,397.49 L 267.81,398.94 L 266.81,394.63 L 275.57,388.28 L 277.68,402.57 Z M 221.32,395.45 L 221.89,400.43 L 219.38,402.22 L 215.90,394.33 L 215.33,379.97 L 222.03,387.48 L 221.32,395.45 Z M 222.16,386.10 L 218.38,379.25 L 212.40,376.28 L 210.17,369.54 L 221.75,374.34 L 222.16,386.10 Z M 123.36,368.75 L 119.09,367.33 L 119.88,365.03 L 123.36,368.75 Z M 85.24,350.29 L 84.39,346.88 L 85.69,345.62 L 85.24,350.29 Z M 204.25,353.56 L 202.71,361.72 L 197.00,363.71 L 194.62,355.42 L 195.15,348.93 L 201.04,344.89 L 204.25,353.56 Z M 74.27,346.16 L 73.03,347.67 L 72.78,345.34 L 74.27,346.16 Z M 90.83,349.55 L 85.25,340.84 L 89.80,340.06 L 90.83,349.55 Z M 634.11,341.95 L 634.11,342.31 L 632.18,339.68 L 631.62,336.06 L 634.11,341.95 Z M 388.92,327.72 L 387.43,324.94 L 388.15,324.07 L 391.01,325.52 L 388.92,327.72 Z M 317.90,315.85 L 317.02,311.71 L 317.60,311.81 L 317.90,315.85 Z M 65.70,333.99 L 58.84,323.23 L 51.83,319.61 L 49.51,311.10 L 51.56,310.40 L 51.86,305.78 L 54.92,307.52 L 54.19,310.40 L 60.38,315.81 L 59.78,319.61 L 61.19,318.37 L 69.38,331.13 L 65.70,333.99 Z M 385.66,303.84 L 384.23,310.40 L 382.52,308.06 L 385.66,303.84 Z M 357.97,303.65 L 356.28,303.81 L 356.99,301.80 L 357.97,303.65 Z M 307.05,307.61 L 304.52,310.55 L 303.91,300.14 L 307.05,307.61 Z M 319.10,298.83 L 318.95,298.83 L 317.13,292.19 L 319.10,298.83 Z M 605.42,289.05 L 602.60,289.15 L 603.02,286.86 L 605.42,289.05 Z M 319.41,285.80 L 318.95,291.94 L 317.71,290.63 L 319.41,285.80 Z M 609.40,283.82 L 608.50,291.20 L 605.51,283.65 L 609.40,283.82 Z M 613.02,279.28 L 611.97,275.06 L 613.58,275.37 L 614.75,279.12 L 613.02,279.28 Z M 598.88,278.99 L 597.54,276.10 L 602.01,275.81 L 605.16,280.10 L 598.88,278.99 Z M 611.95,263.64 L 610.56,261.31 L 612.54,261.89 L 613.53,264.62 L 611.95,263.64 Z M 611.16,252.48 L 608.93,255.79 L 607.12,251.91 L 608.82,247.80 L 611.16,252.48 Z M 370.86,270.17 L 367.46,271.87 L 365.18,269.57 L 367.54,264.95 L 369.91,267.87 L 369.46,264.95 L 364.36,261.90 L 362.38,254.40 L 368.50,243.21 L 372.86,260.99 L 370.86,270.17 Z M 362.61,221.76 L 361.18,221.76 L 361.26,220.93 L 362.91,217.87 L 362.61,221.76 Z M 35.68,178.35 L 34.48,177.04 L 35.31,175.02 L 35.68,178.35 Z M 34.93,173.20 L 35.09,173.72 L 34.81,174.77 L 33.24,175.40 L 32.07,171.15 L 34.93,173.20 Z M 40.32,169.49 L 37.14,163.57 L 38.93,165.74 L 40.40,163.86 L 40.32,169.49 Z M 716.64,471.56 L 712.58,470.21 L 710.21,473.37 L 713.01,466.42 L 715.60,466.42 L 716.64,471.56 Z M 276.17,469.44 L 273.93,476.65 L 271.61,474.78 L 269.98,478.95 L 268.14,466.42 L 272.86,463.11 L 276.17,469.44 Z M 720.00,466.70 L 715.78,465.31 L 717.45,462.16 L 720.07,463.11 L 720.00,466.70 Z M 254.70,463.80 L 247.20,464.78 L 249.65,457.89 L 254.70,463.80 Z M 725.34,460.29 L 723.00,458.35 L 723.83,456.59 L 725.34,460.29 Z M 728.90,463.80 L 725.07,456.73 L 727.67,458.23 L 728.90,463.80 Z M 709.07,453.14 L 710.40,454.24 L 709.76,456.69 L 709.07,453.14 Z M 286.67,460.68 L 284.72,463.11 L 279.64,457.46 L 274.69,460.19 L 272.00,456.39 L 275.28,445.70 L 280.42,456.20 L 282.52,453.86 L 286.67,460.68 Z M 273.04,446.02 L 271.38,442.75 L 271.45,438.71 L 273.04,446.02 Z M 278.81,445.58 L 273.39,435.50 L 274.86,436.38 L 278.81,445.58 Z M 271.22,433.12 L 269.55,429.60 L 270.03,429.43 L 271.22,433.12 Z M 267.79,414.72 L 267.97,417.07 L 267.69,416.74 L 266.40,413.13 L 267.79,414.72 Z M 266.14,412.27 L 265.89,409.68 L 267.86,408.88 L 268.14,413.13 L 266.14,412.27 Z M 265.40,408.79 L 263.43,401.56 L 265.29,404.71 L 266.66,404.87 L 265.40,408.79 Z M 104.90,417.27 L 100.56,419.64 L 98.26,407.59 L 92.70,401.76 L 88.93,386.28 L 84.25,379.16 L 93.25,374.16 L 106.28,399.30 L 104.90,417.27 Z M 721.12,466.28 L 721.27,460.08 L 721.73,459.83 L 722.87,465.61 L 721.12,466.28 Z M 128.62,439.42 L 129.79,441.89 L 121.82,442.81 L 122.05,439.50 L 128.62,439.42 Z M 280.11,411.73 L 279.73,412.74 L 279.26,411.70 L 280.11,411.73 Z M 277.75,407.75 L 276.96,408.40 L 277.18,406.41 L 277.75,407.75 Z M 800.00,361.24 L 800.00,362.19 L 799.41,363.47 L 799.02,359.31 L 800.00,361.24 Z" fill="#C8D8E8" stroke="#8BAABB" stroke-width="0.8"/>
<path d="M 140.06,3.58 L 145.66,5.09 L 147.21,1.22 L 151.42,0.00 L 154.40,0.00 L 156.13,3.54 L 158.20,33.70 L 162.71,44.11 L 162.37,38.07 L 164.65,41.24 L 170.25,87.92 L 173.67,100.79 L 169.87,97.98 L 169.38,85.49 L 165.98,85.32 L 167.20,76.83 L 164.40,73.32 L 162.72,76.27 L 163.60,85.32 L 169.84,102.61 L 173.19,103.89 L 173.94,100.06 L 178.52,111.65 L 184.44,117.73 L 193.45,116.80 L 191.93,113.02 L 198.70,118.44 L 204.15,134.83 L 211.83,146.51 L 211.50,154.33 L 204.89,171.38 L 201.46,170.15 L 198.71,163.14 L 190.84,169.12 L 187.61,176.67 L 183.62,168.86 L 186.51,161.86 L 186.58,147.04 L 180.25,147.51 L 177.63,135.19 L 175.10,137.52 L 168.90,133.80 L 165.74,125.25 L 163.28,125.49 L 162.28,137.63 L 151.03,116.73 L 152.62,104.78 L 147.78,101.35 L 148.94,92.77 L 147.56,96.34 L 146.51,92.34 L 145.56,97.39 L 143.20,95.42 L 141.02,81.02 L 136.89,73.98 L 135.90,77.60 L 134.41,76.11 L 135.34,66.40 L 131.48,60.33 L 127.72,61.66 L 126.01,48.45 L 123.99,49.29 L 124.79,44.56 L 119.01,47.57 L 118.92,55.66 L 115.41,52.23 L 113.18,37.12 L 114.55,37.11 L 114.76,21.93 L 118.07,13.05 L 116.57,13.50 L 117.83,11.29 L 116.31,4.69 L 117.30,0.00 L 139.71,0.00 L 140.06,3.58 Z M 139.10,133.09 L 137.60,132.25 L 138.82,131.27 L 139.10,133.09 Z M 148.86,130.85 L 150.30,124.11 L 151.51,132.06 L 148.86,130.85 Z M 145.13,99.36 L 143.33,101.52 L 143.19,98.72 L 145.13,99.36 Z M 135.50,81.58 L 136.11,88.39 L 134.36,83.84 L 134.46,79.89 L 135.50,81.58 Z M 136.34,82.29 L 134.70,78.97 L 135.28,78.40 L 136.34,82.29 Z M 123.44,59.75 L 123.47,67.42 L 121.56,56.86 L 123.44,59.75 Z M 115.53,73.48 L 115.27,53.58 L 119.28,58.83 L 118.76,67.42 L 115.53,73.48 Z M 123.91,58.47 L 122.86,57.69 L 123.99,53.58 L 123.91,58.47 Z M 116.33,11.09 L 114.58,12.98 L 114.42,7.54 L 116.33,11.09 Z M 115.92,16.77 L 114.76,20.58 L 114.52,14.89 L 115.92,16.77 Z" fill="#C8D8E8" stroke="#8BAABB" stroke-width="0.8"/>
<path d="M 608.29,244.05 L 609.85,242.12 L 615.08,247.45 L 608.29,244.05 Z M 218.58,150.38 L 223.23,165.05 L 236.14,183.60 L 246.85,216.22 L 248.08,240.26 L 244.06,266.59 L 247.72,278.43 L 246.67,306.76 L 251.70,318.77 L 254.92,319.89 L 259.61,334.73 L 267.40,368.47 L 267.97,381.46 L 263.61,381.08 L 262.42,375.79 L 264.67,372.91 L 262.27,374.78 L 260.04,367.98 L 261.15,377.55 L 253.20,377.46 L 249.39,380.75 L 248.59,386.12 L 244.79,373.24 L 227.78,357.82 L 223.84,348.29 L 213.90,339.74 L 209.68,332.11 L 206.54,332.11 L 204.23,322.88 L 191.80,310.24 L 194.00,302.91 L 192.08,289.83 L 185.54,273.14 L 179.72,265.23 L 180.57,262.12 L 177.10,260.59 L 177.02,255.76 L 181.23,254.07 L 175.15,247.51 L 173.44,239.64 L 175.47,228.07 L 174.17,225.62 L 176.00,222.79 L 174.42,222.98 L 174.76,216.88 L 168.32,202.88 L 170.07,196.78 L 168.60,167.97 L 167.93,158.28 L 162.54,140.60 L 163.28,125.49 L 166.01,125.43 L 168.90,133.80 L 175.10,137.52 L 177.63,135.19 L 180.25,147.51 L 186.58,147.04 L 186.51,161.86 L 183.62,168.86 L 187.61,176.67 L 190.84,169.12 L 198.71,163.14 L 201.46,170.15 L 204.89,171.38 L 211.50,154.33 L 211.83,146.51 L 218.58,150.38 Z M 546.41,208.87 L 550.18,211.60 L 555.23,203.70 L 556.46,196.74 L 550.35,192.16 L 551.05,187.07 L 556.45,176.38 L 556.45,181.96 L 562.66,180.02 L 564.75,170.27 L 567.81,166.46 L 569.21,152.81 L 579.33,135.09 L 586.31,109.55 L 588.38,119.59 L 586.48,130.46 L 591.32,124.87 L 592.76,114.15 L 595.81,110.69 L 598.52,113.82 L 599.52,128.31 L 603.66,132.58 L 605.57,129.05 L 610.50,137.21 L 610.40,146.65 L 607.27,149.38 L 609.02,160.20 L 603.92,165.20 L 611.70,163.30 L 617.88,155.95 L 620.64,165.42 L 615.44,168.06 L 616.44,173.91 L 626.75,167.83 L 632.58,174.16 L 631.85,181.66 L 634.03,176.35 L 641.20,187.99 L 647.74,185.27 L 650.00,190.37 L 649.72,197.27 L 646.89,201.83 L 634.81,209.60 L 630.17,210.22 L 626.55,205.07 L 620.93,212.58 L 624.52,221.58 L 629.59,226.09 L 630.10,230.55 L 632.72,230.03 L 633.90,233.99 L 631.63,237.51 L 617.01,243.87 L 608.69,234.59 L 607.95,246.49 L 606.43,247.30 L 597.14,237.87 L 581.55,239.07 L 579.81,235.91 L 576.99,241.11 L 574.43,236.55 L 569.72,236.77 L 567.04,241.96 L 562.55,236.27 L 554.77,258.79 L 556.36,282.35 L 554.23,285.86 L 552.87,301.54 L 548.94,303.70 L 547.21,301.02 L 542.81,311.06 L 542.49,321.82 L 546.30,326.57 L 535.41,339.19 L 536.77,355.75 L 532.89,358.72 L 529.48,378.21 L 525.13,374.75 L 520.00,378.91 L 513.28,377.85 L 506.03,388.18 L 503.47,384.04 L 489.05,379.14 L 490.73,374.40 L 489.43,371.73 L 476.63,371.84 L 468.76,378.23 L 467.01,392.23 L 462.36,393.63 L 460.14,398.70 L 455.04,397.65 L 451.99,401.11 L 444.21,395.49 L 427.82,406.25 L 420.42,399.38 L 418.05,390.73 L 405.00,370.42 L 404.59,361.59 L 401.70,356.35 L 404.68,347.06 L 405.89,357.16 L 411.87,365.85 L 421.12,366.73 L 422.10,360.55 L 423.65,365.52 L 426.65,363.51 L 425.57,369.29 L 432.22,372.81 L 430.97,377.55 L 433.91,371.61 L 442.79,381.26 L 445.10,380.15 L 447.85,383.09 L 448.95,382.12 L 440.83,376.88 L 439.32,371.03 L 441.61,366.06 L 443.75,368.98 L 445.99,368.97 L 441.62,361.90 L 444.42,347.75 L 446.00,347.82 L 445.64,345.00 L 447.75,345.68 L 448.80,343.29 L 443.88,344.09 L 444.81,331.07 L 448.49,334.69 L 451.74,334.43 L 449.48,327.81 L 452.45,327.49 L 449.80,324.39 L 450.84,317.16 L 456.23,310.56 L 490.31,295.25 L 501.17,266.83 L 514.23,241.82 L 514.97,226.40 L 521.83,231.84 L 522.78,242.25 L 526.27,242.48 L 531.57,254.17 L 535.11,248.64 L 537.12,235.99 L 534.48,219.93 L 541.45,210.95 L 543.39,235.50 L 549.87,239.90 L 544.77,211.32 L 546.41,208.87 Z M 623.33,166.96 L 621.67,167.17 L 622.06,166.03 L 623.33,166.96 Z M 447.14,330.34 L 447.21,313.37 L 448.88,317.53 L 449.65,332.27 L 447.14,330.34 Z M 266.27,316.71 L 264.23,315.23 L 265.25,308.25 L 266.27,316.71 Z M 634.64,234.00 L 633.85,231.18 L 634.64,231.03 L 635.95,231.34 L 634.64,234.00 Z M 632.72,224.46 L 631.08,226.08 L 626.27,222.49 L 632.72,224.46 Z M 547.65,192.94 L 545.10,194.81 L 545.86,190.36 L 547.38,189.37 L 547.65,192.94 Z M 166.39,194.31 L 163.73,194.03 L 163.61,184.92 L 166.93,185.27 L 166.39,194.31 Z M 153.95,145.78 L 154.88,144.75 L 154.08,150.63 L 153.95,145.78 Z M 152.13,146.32 L 150.00,137.94 L 155.01,136.32 L 156.50,141.38 L 152.13,146.32 Z M 604.88,126.53 L 600.82,127.42 L 603.29,125.32 L 602.17,123.36 L 603.92,122.05 L 604.88,126.53 Z M 592.24,97.39 L 588.21,101.32 L 589.44,97.03 L 592.05,93.75 L 592.24,97.39 Z M 599.16,94.87 L 598.66,101.14 L 593.80,105.92 L 593.71,97.39 L 599.16,94.87 Z M 191.11,301.57 L 190.54,301.33 L 191.20,300.31 L 191.11,301.57 Z M 193.04,302.59 L 191.33,304.69 L 192.29,299.95 L 193.04,302.59 Z" fill="#4A90D9" stroke="#1a5fa8" stroke-width="1.2"/>
<path d="M 135.52,334.20 L 129.16,334.90 L 125.32,322.20 L 130.45,330.36 L 132.70,326.54 L 127.62,315.11 L 124.09,319.74 L 121.19,308.39 L 128.04,312.04 L 134.81,332.00 L 136.76,330.60 L 135.52,334.20 Z" fill="#A8C8E8" stroke="none"/>
<path d="M 576.18,463.41 L 573.36,461.93 L 575.37,458.89 L 576.35,461.50 L 577.65,455.56 L 579.70,457.95 L 576.18,463.41 Z" fill="#A8C8E8" stroke="none"/>
<path d="M 570.30,471.33 L 569.33,466.58 L 569.73,465.76 L 573.10,467.09 L 570.30,471.33 Z" fill="#A8C8E8" stroke="none"/>
</svg>