<svg xmlns="http://www.w3.org/2000/svg" width="800" height="500" viewBox="0 0 800 500">
<rect width="800" height="500" fill="#A8C8E8"/>
<path d="M 3.76,180.94 L 2.01,182.54 L 0.00,179.63 L 0.00,170.70 L 1.92,170.02 L 4.20,175.42 L 3.76,180.94 Z" fill="#E8E0D0" stroke="#B8B0A0" stroke-width="0.5"/>
<path d="M 300.09,121.68 L 288.96,134.32 L 279.46,135.20 L 285.43,132.14 L 282.64,132.32 L 284.38,129.85 L 280.63,129.63 L 281.74,117.14 L 312.43,117.14 L 300.09,121.68 Z M 328.54,132.67 L 326.57,133.78 L 326.38,132.49 L 328.54,132.67 Z" fill="#E8E0D0" stroke="#B8B0A0" stroke-width="0.5"/>
<path d="M 691.42,213.37 L 691.25,214.38 L 689.36,213.49 L 691.42,213.37 Z M 715.70,201.52 L 713.63,199.60 L 716.03,200.73 L 715.70,201.52 Z M 740.77,168.53 L 739.71,167.85 L 740.42,165.04 L 744.07,166.25 L 740.77,168.53 Z M 799.74,198.80 L 797.98,204.52 L 794.80,205.19 L 775.39,195.92 L 771.65,190.40 L 771.19,181.16 L 769.37,180.33 L 771.01,173.10 L 774.94,170.26 L 776.54,165.73 L 771.92,160.66 L 762.72,155.38 L 756.11,155.58 L 757.16,159.10 L 753.79,161.44 L 755.76,166.63 L 751.93,162.76 L 748.37,162.94 L 749.54,160.06 L 747.79,157.12 L 744.96,163.98 L 742.68,162.07 L 740.26,164.31 L 740.07,157.06 L 735.08,156.28 L 728.18,164.49 L 728.81,166.53 L 723.25,177.88 L 720.29,178.15 L 716.75,174.58 L 723.04,161.01 L 721.99,156.36 L 725.73,151.02 L 736.62,146.32 L 743.40,146.38 L 745.86,138.00 L 752.89,136.89 L 755.90,133.93 L 754.90,132.05 L 757.85,132.67 L 759.59,135.63 L 760.49,133.39 L 764.11,135.00 L 766.30,138.97 L 767.28,146.31 L 762.02,151.45 L 769.46,146.23 L 776.17,145.08 L 780.59,134.99 L 787.00,137.37 L 786.47,139.48 L 789.44,137.74 L 790.87,124.74 L 798.42,129.32 L 800.00,128.43 L 800.00,198.84 L 799.74,198.80 Z M 673.90,224.17 L 671.47,221.54 L 663.78,225.58 L 663.85,223.78 L 673.17,218.30 L 674.80,220.31 L 673.90,224.17 Z M 683.09,195.16 L 680.98,195.21 L 680.92,194.75 L 683.36,191.86 L 683.09,195.16 Z M 724.12,190.06 L 718.36,191.24 L 714.40,185.77 L 721.02,182.67 L 726.88,185.41 L 724.12,190.06 Z M 630.26,176.77 L 628.33,175.58 L 630.45,174.84 L 630.26,176.77 Z M 594.19,153.78 L 592.24,155.61 L 591.01,148.93 L 594.15,149.03 L 594.19,153.78 Z M 591.88,147.88 L 593.14,147.04 L 593.72,148.31 L 591.88,147.88 Z M 596.81,146.00 L 597.22,146.54 L 596.10,146.51 L 596.81,146.00 Z M 601.14,144.92 L 599.36,145.81 L 599.10,142.57 L 601.14,144.92 Z M 598.70,142.83 L 596.82,143.82 L 598.17,141.75 L 598.70,142.83 Z M 789.87,123.00 L 786.47,120.32 L 788.30,118.59 L 790.23,119.88 L 789.87,123.00 Z M 760.89,122.47 L 756.79,120.24 L 761.14,117.48 L 762.56,120.77 L 760.89,122.47 Z M 752.88,118.42 L 750.65,122.23 L 745.63,124.08 L 741.45,117.14 L 752.09,117.14 L 752.88,118.42 Z M 626.75,120.05 L 620.94,121.64 L 617.80,127.85 L 611.22,132.89 L 606.39,133.63 L 605.04,137.57 L 596.84,141.87 L 598.70,134.93 L 608.68,123.50 L 619.31,117.14 L 629.14,117.14 L 626.75,120.05 Z M 655.74,233.13 L 654.55,235.90 L 654.01,229.59 L 655.74,233.13 Z M 699.74,206.66 L 697.29,206.50 L 698.00,205.46 L 699.74,206.66 Z M 704.54,202.91 L 701.30,205.18 L 699.65,203.06 L 692.17,204.50 L 690.59,202.57 L 694.93,199.10 L 704.54,202.91 Z M 709.87,186.55 L 709.55,187.24 L 708.69,185.45 L 709.87,184.79 L 709.87,186.55 Z M 667.38,128.12 L 667.32,128.11 L 667.36,128.03 L 667.38,128.12 Z M 667.58,127.94 L 667.67,127.98 L 667.60,128.02 L 667.58,127.94 Z M 667.52,127.90 L 667.49,127.92 L 667.45,127.86 L 667.52,127.90 Z M 667.58,127.79 L 667.55,127.80 L 667.51,127.75 L 667.58,127.79 Z M 664.66,232.01 L 664.76,232.25 L 663.78,232.12 L 664.66,232.01 Z M 663.26,230.18 L 663.12,229.11 L 664.38,229.54 L 663.26,230.18 Z M 661.91,225.99 L 663.25,224.02 L 663.61,225.33 L 661.91,225.99 Z M 690.86,209.61 L 688.74,210.06 L 688.95,209.35 L 690.86,209.61 Z M 692.05,208.39 L 691.56,209.24 L 691.07,208.99 L 692.05,208.39 Z" fill="#E8E0D0" stroke="#B8B0A0" stroke-width="0.5"/>
<path d="M 256.80,322.44 L 251.75,321.01 L 253.48,318.28 L 259.91,319.26 L 256.80,322.44 Z" fill="#E8E0D0" stroke="#B8B0A0" stroke-width="0.5"/>
<path d="M 547.99,236.38 L 549.87,244.63 L 543.39,242.29 L 541.81,231.69 L 544.77,229.45 L 547.99,236.38 Z M 534.48,234.02 L 537.12,242.56 L 535.11,249.28 L 531.57,252.22 L 526.27,246.00 L 522.78,245.88 L 521.83,240.35 L 515.55,237.29 L 523.90,237.15 L 543.64,225.84 L 534.48,234.02 Z" fill="#C8D8E8" stroke="#8BAABB" stroke-width="0.8"/>
<path d="M 615.08,248.64 L 615.79,251.11 L 613.34,251.62 L 609.90,248.47 L 615.08,248.64 Z M 601.48,248.31 L 609.52,254.97 L 608.56,255.32 L 606.50,254.35 L 605.31,254.44 L 610.30,256.20 L 611.92,258.29 L 609.87,258.29 L 613.02,260.21 L 607.99,262.04 L 603.92,257.95 L 604.97,262.67 L 594.29,261.69 L 592.76,263.00 L 597.06,262.44 L 597.08,264.01 L 598.17,265.65 L 603.36,267.08 L 601.14,271.94 L 598.86,272.19 L 607.70,275.98 L 606.37,278.60 L 609.43,279.12 L 605.83,280.17 L 610.74,280.69 L 607.76,282.63 L 611.95,284.35 L 613.02,288.20 L 619.54,295.09 L 618.92,298.09 L 615.28,301.32 L 613.02,300.99 L 614.91,302.43 L 611.08,302.91 L 614.23,303.95 L 615.52,308.33 L 628.28,316.84 L 629.07,319.17 L 633.07,320.27 L 643.22,329.85 L 637.78,334.22 L 627.23,334.22 L 619.91,331.58 L 614.75,326.35 L 618.29,334.34 L 614.97,333.39 L 610.91,335.87 L 603.95,352.00 L 605.49,355.60 L 603.06,360.90 L 604.64,363.72 L 603.22,368.18 L 608.03,365.47 L 606.02,372.38 L 604.28,372.64 L 607.95,374.46 L 600.62,377.79 L 599.15,375.44 L 593.59,382.86 L 586.06,382.86 L 585.44,380.94 L 585.55,382.86 L 411.61,382.86 L 407.10,379.48 L 407.69,377.01 L 405.49,379.90 L 401.63,376.80 L 398.20,378.06 L 395.20,376.57 L 394.93,371.82 L 400.18,373.60 L 401.14,373.07 L 397.29,371.32 L 398.45,370.03 L 391.79,368.27 L 389.42,361.05 L 393.97,360.83 L 392.23,354.26 L 395.89,354.51 L 386.23,346.09 L 384.56,333.53 L 387.75,330.36 L 386.32,325.05 L 391.88,322.84 L 395.03,319.17 L 387.88,323.73 L 390.10,315.61 L 395.18,311.53 L 396.93,305.36 L 404.68,301.58 L 401.70,306.52 L 404.59,309.30 L 405.00,313.99 L 418.05,324.79 L 420.42,329.39 L 427.82,333.04 L 444.21,327.32 L 451.99,330.30 L 455.04,328.47 L 460.14,329.03 L 462.36,326.33 L 467.01,325.59 L 468.76,318.15 L 476.63,314.75 L 489.43,314.69 L 490.73,316.11 L 489.05,318.63 L 503.47,321.24 L 506.03,323.43 L 513.28,317.94 L 520.00,318.51 L 525.13,316.30 L 529.48,318.14 L 532.89,307.78 L 536.77,306.20 L 535.41,297.40 L 546.30,290.69 L 542.49,288.17 L 542.81,282.45 L 547.21,277.11 L 548.94,278.54 L 552.87,277.39 L 554.23,269.06 L 556.36,267.19 L 554.77,254.67 L 562.55,242.71 L 567.04,245.73 L 569.72,242.97 L 574.43,242.85 L 576.99,245.27 L 579.81,242.51 L 581.55,244.19 L 597.14,243.55 L 606.43,248.57 L 601.48,248.31 Z M 273.45,362.66 L 271.26,362.74 L 271.22,362.01 L 273.45,362.66 Z M 232.50,346.73 L 233.59,346.84 L 232.26,347.52 L 232.50,346.73 Z M 237.40,340.10 L 236.37,337.99 L 236.85,337.96 L 237.40,340.10 Z M 248.63,337.73 L 247.46,338.87 L 247.51,338.09 L 248.63,337.73 Z M 238.40,335.43 L 237.79,336.33 L 237.40,335.35 L 238.40,335.43 Z M 276.71,334.94 L 273.93,335.62 L 274.24,334.65 L 276.71,334.94 Z M 253.73,334.40 L 253.90,335.20 L 253.29,335.23 L 252.44,333.34 L 253.73,334.40 Z M 247.38,332.57 L 245.80,331.50 L 246.99,331.27 L 247.38,332.57 Z M 685.42,327.68 L 685.79,328.10 L 683.86,327.39 L 685.42,327.68 Z M 678.74,327.69 L 678.01,328.63 L 677.75,327.99 L 678.74,327.69 Z M 662.22,366.77 L 663.29,357.94 L 660.12,357.31 L 659.08,354.51 L 664.12,356.93 L 665.54,352.96 L 662.91,348.66 L 665.06,347.44 L 666.14,342.68 L 669.21,341.59 L 669.55,336.02 L 674.17,333.97 L 675.48,329.39 L 677.09,329.68 L 677.21,332.93 L 682.85,334.81 L 685.25,330.04 L 688.80,327.90 L 689.61,320.93 L 695.90,320.77 L 700.60,323.38 L 705.35,321.65 L 705.32,324.97 L 707.78,327.39 L 730.89,328.72 L 740.94,333.89 L 743.97,330.20 L 749.26,331.22 L 749.54,329.92 L 768.45,333.54 L 777.65,328.80 L 780.17,324.49 L 785.38,324.24 L 784.22,320.05 L 791.54,317.26 L 791.29,314.61 L 795.31,310.56 L 800.00,311.87 L 800.00,318.41 L 798.66,319.41 L 793.14,329.93 L 787.16,334.21 L 783.35,341.92 L 778.45,344.59 L 760.73,347.97 L 750.87,346.49 L 746.68,341.59 L 714.24,343.89 L 709.18,340.69 L 696.60,344.38 L 681.19,341.27 L 672.41,348.96 L 668.27,360.12 L 670.25,370.45 L 674.90,377.74 L 681.13,379.68 L 682.46,382.86 L 654.38,382.86 L 654.46,382.77 L 656.29,376.75 L 661.60,370.96 L 664.48,377.11 L 662.22,366.77 Z M 709.65,375.21 L 712.04,378.66 L 722.00,378.42 L 724.61,374.30 L 742.98,374.15 L 738.03,371.33 L 746.72,368.98 L 755.06,371.18 L 756.36,374.14 L 752.71,381.62 L 747.24,376.10 L 740.68,377.73 L 736.63,382.86 L 701.58,382.86 L 709.65,375.21 Z M 179.41,298.37 L 181.60,296.09 L 185.78,296.27 L 192.58,303.08 L 195.38,311.13 L 203.58,312.35 L 212.98,319.37 L 215.28,328.63 L 220.80,334.24 L 234.26,337.52 L 237.34,343.48 L 224.79,350.15 L 222.77,348.74 L 220.93,348.49 L 223.87,350.46 L 232.96,347.94 L 244.66,341.08 L 254.37,347.69 L 255.86,354.96 L 250.13,355.13 L 250.10,357.44 L 242.33,361.35 L 247.90,360.18 L 244.24,364.14 L 250.68,365.93 L 246.08,368.00 L 244.93,366.25 L 246.04,369.47 L 244.24,372.54 L 256.55,382.18 L 259.78,379.72 L 266.31,382.18 L 270.51,381.12 L 270.89,382.86 L 169.58,382.86 L 169.64,381.53 L 166.71,375.62 L 154.55,362.78 L 152.60,355.54 L 142.25,348.68 L 137.08,348.06 L 136.12,339.41 L 126.17,314.84 L 129.05,313.15 L 127.81,310.13 L 125.69,310.44 L 121.73,305.33 L 106.98,296.77 L 101.59,296.53 L 99.40,293.20 L 97.98,281.59 L 92.95,279.62 L 79.67,260.75 L 69.38,258.29 L 62.20,249.55 L 46.10,236.37 L 36.77,219.63 L 37.12,212.48 L 42.70,210.39 L 47.27,211.11 L 54.30,214.03 L 59.41,219.57 L 67.52,221.56 L 81.96,220.13 L 88.40,223.38 L 96.03,220.93 L 105.79,229.93 L 108.02,238.69 L 115.12,241.78 L 114.88,247.24 L 112.66,249.88 L 114.80,248.12 L 115.88,250.59 L 125.33,254.83 L 128.39,259.65 L 152.69,273.57 L 158.51,279.49 L 157.85,285.93 L 159.24,288.32 L 158.37,285.76 L 160.43,285.14 L 162.24,290.17 L 162.12,286.77 L 164.40,285.68 L 170.10,296.73 L 179.73,302.69 L 183.16,308.17 L 179.41,298.37 Z M 400.35,379.72 L 406.67,379.98 L 407.56,382.86 L 399.69,382.86 L 400.35,379.72 Z M 124.86,379.38 L 130.98,378.16 L 133.43,382.86 L 123.91,382.86 L 124.86,379.38 Z M 120.85,369.22 L 115.11,368.18 L 119.03,361.00 L 120.85,369.22 Z M 122.08,364.51 L 115.63,354.96 L 118.44,354.96 L 122.08,364.51 Z M 242.59,341.04 L 239.02,341.00 L 240.00,337.02 L 242.92,338.81 L 242.59,341.04 Z M 248.77,334.92 L 246.17,332.48 L 247.88,333.19 L 248.77,334.92 Z M 258.31,332.99 L 259.41,334.97 L 258.65,334.84 L 256.29,332.15 L 258.31,332.99 Z M 246.50,338.25 L 244.54,332.50 L 245.65,332.30 L 247.89,334.94 L 246.50,338.25 Z M 256.60,333.93 L 256.63,335.23 L 253.93,332.48 L 256.60,333.93 Z M 258.91,330.91 L 256.80,329.17 L 257.85,328.44 L 258.91,330.91 Z M 282.39,328.78 L 282.11,330.39 L 281.05,328.63 L 282.39,328.78 Z M 352.63,328.99 L 351.56,330.00 L 350.79,328.78 L 352.63,328.99 Z M 244.12,328.74 L 243.94,326.40 L 245.37,325.92 L 246.72,328.92 L 244.12,328.74 Z M 235.62,337.06 L 232.76,334.60 L 223.12,334.57 L 220.32,332.48 L 222.72,330.44 L 221.88,326.52 L 224.14,326.03 L 225.39,328.96 L 226.87,329.34 L 229.42,328.96 L 236.68,334.43 L 235.62,337.06 Z M 238.68,333.47 L 230.11,328.44 L 225.88,328.68 L 230.39,325.07 L 238.66,331.08 L 238.68,333.47 Z M 263.26,329.50 L 258.53,327.41 L 261.69,324.44 L 264.63,325.15 L 263.26,329.50 Z M 277.68,331.08 L 275.35,333.59 L 271.63,330.35 L 273.26,328.38 L 267.81,329.15 L 266.81,326.86 L 275.57,323.49 L 277.68,331.08 Z M 221.32,327.30 L 221.89,329.94 L 219.38,330.90 L 215.90,326.70 L 215.33,319.07 L 222.03,323.06 L 221.32,327.30 Z M 222.16,322.33 L 218.38,318.69 L 212.40,317.11 L 210.17,313.53 L 221.75,316.08 L 222.16,322.33 Z M 123.36,313.11 L 119.09,312.35 L 119.88,311.13 L 123.36,313.11 Z M 85.24,303.30 L 84.39,301.48 L 85.69,300.82 L 85.24,303.30 Z M 204.25,305.04 L 202.71,309.37 L 197.00,310.43 L 194.62,306.02 L 195.15,302.58 L 201.04,300.43 L 204.25,305.04 Z M 74.27,301.11 L 73.03,301.91 L 72.78,300.67 L 74.27,301.11 Z M 90.83,302.91 L 85.25,298.28 L 89.80,297.86 L 90.83,302.91 Z M 634.11,298.87 L 634.11,299.06 L 632.18,297.66 L 631.62,295.74 L 634.11,298.87 Z M 388.92,291.30 L 387.43,289.83 L 388.15,289.37 L 391.01,290.13 L 388.92,291.30 Z M 317.90,285.00 L 317.02,282.80 L 317.60,282.85 L 317.90,285.00 Z M 65.70,294.63 L 58.84,288.92 L 51.83,287.00 L 49.51,282.47 L 51.56,282.10 L 51.86,279.64 L 54.92,280.57 L 54.19,282.10 L 60.38,284.98 L 59.78,287.00 L 61.19,286.34 L 69.38,293.11 L 65.70,294.63 Z M 385.66,278.61 L 384.23,282.10 L 382.52,280.86 L 385.66,278.61 Z M 357.97,278.51 L 356.28,278.60 L 356.99,277.53 L 357.97,278.51 Z M 307.05,280.62 L 304.52,282.18 L 303.91,276.65 L 307.05,280.62 Z M 319.10,275.95 L 318.95,275.95 L 317.13,272.42 L 319.10,275.95 Z M 605.42,270.75 L 602.60,270.80 L 603.02,269.59 L 605.42,270.75 Z M 319.41,269.03 L 318.95,272.29 L 317.71,271.59 L 319.41,269.03 Z M 609.40,267.97 L 608.50,271.89 L 605.51,267.88 L 609.40,267.97 Z M 613.02,265.56 L 611.97,263.32 L 613.58,263.48 L 614.75,265.47 L 613.02,265.56 Z M 598.88,265.41 L 597.54,263.87 L 602.01,263.71 L 605.16,266.00 L 598.88,265.41 Z M 611.95,257.25 L 610.56,256.01 L 612.54,256.32 L 613.53,257.77 L 611.95,257.25 Z M 611.16,251.32 L 608.93,253.08 L 607.12,251.01 L 608.82,248.83 L 611.16,251.32 Z M 370.86,260.72 L 367.46,261.62 L 365.18,260.40 L 367.54,257.95 L 369.91,259.50 L 369.46,257.95 L 364.36,256.32 L 362.38,252.34 L 368.50,246.39 L 372.86,255.84 L 370.86,260.72 Z M 362.61,234.99 L 361.18,234.99 L 361.26,234.55 L 362.91,232.92 L 362.61,234.99 Z M 35.68,211.92 L 34.48,211.23 L 35.31,210.15 L 35.68,211.92 Z M 34.93,209.19 L 35.09,209.46 L 34.81,210.02 L 33.24,210.35 L 32.07,208.10 L 34.93,209.19 Z M 40.32,207.22 L 37.14,204.07 L 38.93,205.22 L 40.40,204.22 L 40.32,207.22 Z M 716.64,367.74 L 712.58,367.03 L 710.21,368.71 L 713.01,365.02 L 715.60,365.02 L 716.64,367.74 Z M 276.17,366.62 L 273.93,370.45 L 271.61,369.46 L 269.98,371.67 L 268.14,365.02 L 272.86,363.26 L 276.17,366.62 Z M 720.00,365.17 L 715.78,364.42 L 717.45,362.75 L 720.07,363.26 L 720.00,365.17 Z M 254.70,363.62 L 247.20,364.14 L 249.65,360.48 L 254.70,363.62 Z M 725.34,361.76 L 723.00,360.72 L 723.83,359.79 L 725.34,361.76 Z M 728.90,363.62 L 725.07,359.87 L 727.67,360.66 L 728.90,363.62 Z M 709.07,357.96 L 710.40,358.54 L 709.76,359.84 L 709.07,357.96 Z M 286.67,361.96 L 284.72,363.26 L 279.64,360.25 L 274.69,361.70 L 272.00,359.68 L 275.28,354.00 L 280.42,359.58 L 282.52,358.34 L 286.67,361.96 Z M 273.04,354.18 L 271.38,352.43 L 271.45,350.29 L 273.04,354.18 Z M 278.81,353.94 L 273.39,348.58 L 274.86,349.05 L 278.81,353.94 Z M 271.22,347.32 L 269.55,345.44 L 270.03,345.36 L 271.22,347.32 Z M 267.79,337.54 L 267.97,338.79 L 267.69,338.61 L 266.40,336.69 L 267.79,337.54 Z M 266.14,336.24 L 265.89,334.86 L 267.86,334.44 L 268.14,336.69 L 266.14,336.24 Z M 265.40,334.39 L 263.43,330.55 L 265.29,332.22 L 266.66,332.30 L 265.40,334.39 Z M 104.90,338.89 L 100.56,340.15 L 98.26,333.75 L 92.70,330.65 L 88.93,322.42 L 84.25,318.64 L 93.25,315.98 L 106.28,329.34 L 104.90,338.89 Z M 721.12,364.94 L 721.27,361.65 L 721.73,361.51 L 722.87,364.59 L 721.12,364.94 Z M 128.62,350.67 L 129.79,351.98 L 121.82,352.47 L 122.05,350.71 L 128.62,350.67 Z M 280.11,335.95 L 279.73,336.49 L 279.26,335.94 L 280.11,335.95 Z M 277.75,333.83 L 276.96,334.18 L 277.18,333.12 L 277.75,333.83 Z M 800.00,309.12 L 800.00,309.62 L 799.41,310.30 L 799.02,308.09 L 800.00,309.12 Z" fill="#C8D8E8" stroke="#8BAABB" stroke-width="0.8"/>
<path d="M 140.06,119.04 L 145.66,119.85 L 147.21,117.79 L 151.42,117.14 L 154.40,117.14 L 156.13,119.02 L 158.20,135.05 L 162.71,140.58 L 162.37,137.37 L 164.65,139.05 L 170.25,163.87 L 173.67,170.70 L 169.87,169.21 L 169.38,162.57 L 165.98,162.48 L 167.20,157.97 L 164.40,156.11 L 162.72,157.68 L 163.60,162.48 L 169.84,171.67 L 173.19,172.35 L 173.94,170.31 L 178.52,176.48 L 184.44,179.70 L 193.45,179.21 L 191.93,177.20 L 198.70,180.08 L 204.15,188.79 L 211.83,195.00 L 211.50,199.16 L 204.89,208.22 L 201.46,207.56 L 198.71,203.84 L 190.84,207.02 L 187.61,211.03 L 183.62,206.88 L 186.51,203.16 L 186.58,195.28 L 180.25,195.53 L 177.63,188.98 L 175.10,190.22 L 168.90,188.25 L 165.74,183.70 L 163.28,183.83 L 162.28,190.28 L 151.03,179.18 L 152.62,172.83 L 147.78,171.00 L 148.94,166.44 L 147.56,168.34 L 146.51,166.22 L 145.56,168.90 L 143.20,167.85 L 141.02,160.20 L 136.89,156.45 L 135.90,158.38 L 134.41,157.59 L 135.34,152.43 L 131.48,149.20 L 127.72,149.91 L 126.01,142.89 L 123.99,143.33 L 124.79,140.82 L 119.01,142.42 L 118.92,146.72 L 115.41,144.90 L 113.18,136.87 L 114.55,136.86 L 114.76,128.79 L 118.07,124.08 L 116.57,124.31 L 117.83,123.14 L 116.31,119.63 L 117.30,117.14 L 139.71,117.14 L 140.06,119.04 Z M 139.10,187.87 L 137.60,187.42 L 138.82,186.90 L 139.10,187.87 Z M 148.86,186.68 L 150.30,183.10 L 151.51,187.32 L 148.86,186.68 Z M 145.13,169.94 L 143.33,171.09 L 143.19,169.60 L 145.13,169.94 Z M 135.50,160.50 L 136.11,164.11 L 134.36,161.70 L 134.46,159.59 L 135.50,160.50 Z M 136.34,160.87 L 134.70,159.11 L 135.28,158.80 L 136.34,160.87 Z M 123.44,148.89 L 123.47,152.97 L 121.56,147.36 L 123.44,148.89 Z M 115.53,156.19 L 115.27,145.61 L 119.28,148.41 L 118.76,152.97 L 115.53,156.19 Z M 123.91,148.21 L 122.86,147.80 L 123.99,145.61 L 123.91,148.21 Z M 116.33,123.03 L 114.58,124.04 L 114.42,121.15 L 116.33,123.03 Z M 115.92,126.05 L 114.76,128.08 L 114.52,125.05 L 115.92,126.05 Z" fill="#C8D8E8" stroke="#8BAABB" stroke-width="0.8"/>
<path d="M 608.29,246.84 L 609.85,245.81 L 615.08,248.64 L 608.29,246.84 Z M 218.58,197.06 L 223.23,204.85 L 236.14,214.71 L 246.85,232.05 L 248.08,244.82 L 244.06,258.82 L 247.72,265.11 L 246.67,280.17 L 251.70,286.55 L 254.92,287.14 L 259.61,295.03 L 267.40,312.96 L 267.97,319.86 L 263.61,319.66 L 262.42,316.85 L 264.67,315.32 L 262.27,316.32 L 260.04,312.70 L 261.15,317.79 L 253.20,317.74 L 249.39,319.49 L 248.59,322.34 L 244.79,315.50 L 227.78,307.30 L 223.84,302.24 L 213.90,297.69 L 209.68,293.64 L 206.54,293.64 L 204.23,288.73 L 191.80,282.01 L 194.00,278.12 L 192.08,271.17 L 185.54,262.30 L 179.72,258.09 L 180.57,256.44 L 177.10,255.63 L 177.02,253.06 L 181.23,252.16 L 175.15,248.67 L 173.44,244.49 L 175.47,238.34 L 174.17,237.05 L 176.00,235.54 L 174.42,235.64 L 174.76,232.40 L 168.32,224.96 L 170.07,221.72 L 168.60,206.40 L 167.93,201.25 L 162.54,191.86 L 163.28,183.83 L 166.01,183.80 L 168.90,188.25 L 175.10,190.22 L 177.63,188.98 L 180.25,195.53 L 186.58,195.28 L 186.51,203.16 L 183.62,206.88 L 187.61,211.03 L 190.84,207.02 L 198.71,203.84 L 201.46,207.56 L 204.89,208.22 L 211.50,199.16 L 211.83,195.00 L 218.58,197.06 Z M 546.41,228.14 L 550.18,229.59 L 555.23,225.39 L 556.46,221.69 L 550.35,219.26 L 551.05,216.56 L 556.45,210.88 L 556.45,213.84 L 562.66,212.81 L 564.75,207.63 L 567.81,205.60 L 569.21,198.35 L 579.33,188.93 L 586.31,175.36 L 588.38,180.70 L 586.48,186.47 L 591.32,183.50 L 592.76,177.80 L 595.81,175.97 L 598.52,177.63 L 599.52,185.33 L 603.66,187.60 L 605.57,185.72 L 610.50,190.06 L 610.40,195.08 L 607.27,196.53 L 609.02,202.28 L 603.92,204.93 L 611.70,203.93 L 617.88,200.02 L 620.64,205.05 L 615.44,206.45 L 616.44,209.57 L 626.75,206.33 L 632.58,209.70 L 631.85,213.68 L 634.03,210.86 L 641.20,217.05 L 647.74,215.60 L 650.00,218.31 L 649.72,221.98 L 646.89,224.40 L 634.81,228.53 L 630.17,228.86 L 626.55,226.12 L 620.93,230.12 L 624.52,234.89 L 629.59,237.29 L 630.10,239.67 L 632.72,239.39 L 633.90,241.49 L 631.63,243.36 L 617.01,246.74 L 608.69,241.81 L 607.95,248.14 L 606.43,248.57 L 597.14,243.55 L 581.55,244.19 L 579.81,242.51 L 576.99,245.27 L 574.43,242.85 L 569.72,242.97 L 567.04,245.73 L 562.55,242.71 L 554.77,254.67 L 556.36,267.19 L 554.23,269.06 L 552.87,277.39 L 548.94,278.54 L 547.21,277.11 L 542.81,282.45 L 542.49,288.17 L 546.30,290.69 L 535.41,297.40 L 536.77,306.20 L 532.89,307.78 L 529.48,318.14 L 525.13,316.30 L 520.00,318.51 L 513.28,317.94 L 506.03,323.43 L 503.47,321.24 L 489.05,318.63 L 490.73,316.11 L 489.43,314.69 L 476.63,314.75 L 468.76,318.15 L 467.01,325.59 L 462.36,326.33 L 460.14,329.03 L 455.04,328.47 L 451.99,330.30 L 444.21,327.32 L 427.82,333.04 L 420.42,329.39 L 418.05,324.79 L 405.00,313.99 L 404.59,309.30 L 401.70,306.52 L 404.68,301.58 L 405.89,306.95 L 411.87,311.57 L 421.12,312.03 L 422.10,308.75 L 423.65,311.39 L 426.65,310.32 L 425.57,313.40 L 432.22,315.26 L 430.97,317.79 L 433.91,314.63 L 442.79,319.76 L 445.10,319.17 L 447.85,320.73 L 448.95,320.21 L 440.83,317.43 L 439.32,314.32 L 441.61,311.68 L 443.75,313.23 L 445.99,313.22 L 441.62,309.47 L 444.42,301.95 L 446.00,301.99 L 445.64,300.49 L 447.75,300.85 L 448.80,299.58 L 443.88,300.00 L 444.81,293.09 L 448.49,295.01 L 451.74,294.87 L 449.48,291.35 L 452.45,291.18 L 449.80,289.54 L 450.84,285.69 L 456.23,282.18 L 490.31,274.05 L 501.17,258.95 L 514.23,245.65 L 514.97,237.46 L 521.83,240.35 L 522.78,245.88 L 526.27,246.00 L 531.57,252.22 L 535.11,249.28 L 537.12,242.56 L 534.48,234.02 L 541.45,229.24 L 543.39,242.29 L 549.87,244.63 L 544.77,229.45 L 546.41,228.14 Z M 623.33,205.87 L 621.67,205.98 L 622.06,205.38 L 623.33,205.87 Z M 447.14,292.70 L 447.21,283.68 L 448.88,285.89 L 449.65,293.72 L 447.14,292.70 Z M 266.27,285.45 L 264.23,284.67 L 265.25,280.96 L 266.27,285.45 Z M 634.64,241.50 L 633.85,240.00 L 634.64,239.92 L 635.95,240.08 L 634.64,241.50 Z M 632.72,236.43 L 631.08,237.29 L 626.27,235.38 L 632.72,236.43 Z M 547.65,219.68 L 545.10,220.67 L 545.86,218.31 L 547.38,217.78 L 547.65,219.68 Z M 166.39,220.40 L 163.73,220.25 L 163.61,215.41 L 166.93,215.60 L 166.39,220.40 Z M 153.95,194.61 L 154.88,194.07 L 154.08,197.19 L 153.95,194.61 Z M 152.13,194.90 L 150.00,190.45 L 155.01,189.59 L 156.50,192.28 L 152.13,194.90 Z M 604.88,184.38 L 600.82,184.85 L 603.29,183.74 L 602.17,182.70 L 603.92,182.00 L 604.88,184.38 Z M 592.24,168.90 L 588.21,170.99 L 589.44,168.71 L 592.05,166.96 L 592.24,168.90 Z M 599.16,167.56 L 598.66,170.89 L 593.80,173.43 L 593.71,168.90 L 599.16,167.56 Z M 191.11,277.40 L 190.54,277.28 L 191.20,276.74 L 191.11,277.40 Z M 193.04,277.95 L 191.33,279.07 L 192.29,276.54 L 193.04,277.95 Z" fill="#4A90D9" stroke="#1a5fa8" stroke-width="1.2"/>
<path d="M 135.52,294.75 L 129.16,295.12 L 125.32,288.37 L 130.45,292.71 L 132.70,290.68 L 127.62,284.60 L 124.09,287.06 L 121.19,281.03 L 128.04,282.97 L 134.81,293.58 L 136.76,292.83 L 135.52,294.75 Z" fill="#A8C8E8" stroke="none"/>
<path d="M 576.18,363.42 L 573.36,362.63 L 575.37,361.01 L 576.35,362.40 L 577.65,359.24 L 579.70,360.51 L 576.18,363.42 Z" fill="#A8C8E8" stroke="none"/>
<path d="M 570.30,367.62 L 569.33,365.10 L 569.73,364.66 L 573.10,365.37 L 570.30,367.62 Z" fill="#A8C8E8" stroke="none"/>
</svg>