<svg xmlns="http://www.w3.org/2000/svg" width="800" height="500" viewBox="0 0 800 500">
<rect width="800" height="500" fill="#A8C8E8"/>
<path d="M 121.69,2.62 L 115.28,8.30 L 118.18,14.23 L 126.14,20.09 L 144.19,25.25 L 153.76,30.21 L 175.28,50.15 L 87.68,55.67 L 87.87,61.07 L 62.45,70.73 L 70.13,72.76 L 78.72,80.66 L 72.67,88.82 L 78.77,96.91 L 71.94,100.57 L 62.82,113.91 L 69.75,120.38 L 81.19,122.66 L 94.55,130.05 L 116.39,131.46 L 115.19,127.45 L 130.48,125.75 L 129.68,150.60 L 121.93,149.95 L 124.36,147.27 L 119.90,146.21 L 101.55,150.24 L 92.61,149.46 L 79.16,139.80 L 71.40,139.72 L 65.75,132.77 L 43.93,129.84 L 39.13,127.82 L 28.86,128.42 L 18.64,121.32 L 9.86,119.17 L 7.32,114.60 L 0.00,115.09 L 0.00,0.00 L 119.32,0.00 L 121.69,2.62 Z" fill="#E8E0D0" stroke="#B8B0A0" stroke-width="0.5"/>
<path d="M 8.34,277.32 L 11.47,285.01 L 31.68,285.27 L 30.20,296.00 L 45.42,305.17 L 74.82,306.99 L 94.72,309.87 L 94.80,314.13 L 109.36,317.29 L 94.72,318.00 L 89.62,322.15 L 84.28,323.14 L 60.07,325.26 L 34.29,337.04 L 27.44,336.96 L 24.66,339.71 L 4.84,342.84 L 0.00,345.22 L 0.00,276.17 L 8.34,277.32 Z" fill="#E8E0D0" stroke="#B8B0A0" stroke-width="0.5"/>
<path d="M 107.55,449.09 L 113.39,453.91 L 98.24,461.69 L 99.68,464.93 L 83.29,468.17 L 63.92,469.22 L 55.31,471.86 L 57.09,473.19 L 51.77,475.19 L 49.58,479.04 L 33.82,477.92 L 20.11,472.38 L 16.07,472.40 L 16.78,469.19 L 0.00,460.63 L 0.00,459.87 L 15.32,456.54 L 34.00,445.63 L 46.51,445.05 L 53.16,441.69 L 75.70,439.18 L 91.99,445.63 L 107.55,449.09 Z" fill="#E8E0D0" stroke="#B8B0A0" stroke-width="0.5"/>
<path d="M 800.00,288.32 L 800.00,371.07 L 799.57,370.98 L 794.37,363.73 L 782.83,358.31 L 780.57,347.37 L 786.98,341.68 L 780.86,339.40 L 778.61,334.27 L 768.17,329.83 L 761.67,318.59 L 765.38,317.91 L 762.80,314.40 L 767.00,309.32 L 773.42,307.47 L 775.05,300.55 L 789.41,298.92 L 793.58,292.40 L 800.00,288.32 Z M 799.89,232.96 L 794.64,228.70 L 800.00,225.07 L 800.00,237.66 L 799.89,232.96 Z" fill="#E8E0D0" stroke="#B8B0A0" stroke-width="0.5"/>
<path d="M 738.23,219.48 L 739.85,219.43 L 739.52,219.72 L 738.23,219.48 Z M 628.28,320.21 L 627.46,320.65 L 626.07,320.60 L 628.28,320.21 Z M 597.39,303.07 L 597.48,303.12 L 597.35,303.13 L 597.39,303.07 Z" fill="#E8E0D0" stroke="#B8B0A0" stroke-width="0.5"/>
<path d="M 791.54,129.90 L 782.47,129.54 L 781.08,127.34 L 791.54,129.90 Z M 771.77,121.51 L 761.43,118.04 L 764.19,110.97 L 769.76,111.36 L 768.92,115.27 L 771.77,121.51 Z" fill="#E8E0D0" stroke="#B8B0A0" stroke-width="0.5"/>
<path d="M 357.00,114.76 L 354.51,119.58 L 344.87,125.76 L 351.25,135.94 L 353.64,148.12 L 358.12,151.30 L 368.58,151.75 L 378.98,155.35 L 414.86,173.41 L 417.54,177.93 L 411.90,183.37 L 414.54,188.05 L 411.94,199.99 L 399.22,202.45 L 392.64,201.87 L 381.23,209.44 L 389.61,215.42 L 389.36,220.26 L 386.06,220.85 L 378.12,220.37 L 380.58,215.09 L 370.58,213.32 L 348.05,204.41 L 347.02,200.32 L 338.96,197.08 L 354.57,185.76 L 351.60,171.99 L 344.18,168.39 L 330.39,170.45 L 314.85,170.35 L 311.30,172.48 L 294.16,162.16 L 287.58,159.56 L 280.97,161.96 L 275.06,157.57 L 269.84,156.74 L 270.16,154.25 L 265.15,153.29 L 272.19,151.99 L 280.89,145.77 L 281.62,140.32 L 278.21,137.51 L 282.15,134.51 L 297.45,132.98 L 305.77,129.60 L 297.41,129.07 L 292.86,125.48 L 295.74,118.46 L 294.93,115.05 L 290.98,114.49 L 291.81,111.67 L 299.36,106.87 L 291.91,101.49 L 304.54,99.31 L 312.68,95.65 L 306.05,89.04 L 295.28,85.85 L 297.13,81.41 L 289.23,77.04 L 280.36,77.54 L 277.98,73.02 L 289.11,75.29 L 295.10,74.94 L 301.62,77.40 L 315.52,76.69 L 323.86,79.24 L 328.60,74.65 L 342.95,79.27 L 353.22,85.45 L 355.32,94.93 L 359.74,98.99 L 356.85,105.67 L 364.00,110.31 L 369.69,110.89 L 373.36,114.67 L 357.00,114.76 Z M 363.85,123.58 L 360.40,125.19 L 358.84,124.27 L 360.64,122.82 L 363.85,123.58 Z M 357.50,122.57 L 356.74,124.20 L 353.58,123.03 L 357.50,122.57 Z" fill="#C8D8E8" stroke="#8BAABB" stroke-width="0.8"/>
<path d="M 4.84,342.84 L 24.66,339.71 L 27.44,336.96 L 34.29,337.04 L 60.07,325.26 L 88.78,322.39 L 94.72,318.00 L 124.00,316.14 L 155.67,320.31 L 194.11,319.77 L 200.52,321.32 L 212.16,335.82 L 211.75,341.54 L 226.93,350.59 L 233.33,359.99 L 233.76,383.16 L 228.87,389.79 L 205.81,385.06 L 192.57,388.38 L 177.75,397.68 L 177.65,405.54 L 181.30,404.84 L 184.76,409.19 L 193.61,412.94 L 211.69,415.12 L 232.47,415.23 L 233.49,405.53 L 275.95,406.25 L 274.64,409.52 L 252.39,438.50 L 234.75,443.26 L 237.25,443.66 L 234.52,444.82 L 223.10,445.89 L 204.10,453.72 L 186.99,464.60 L 189.68,464.48 L 142.87,490.11 L 112.25,498.49 L 108.62,500.00 L 0.00,500.00 L 0.00,460.63 L 16.78,469.19 L 16.07,472.40 L 20.11,472.38 L 33.82,477.92 L 49.58,479.04 L 51.77,475.19 L 57.09,473.19 L 55.31,471.86 L 63.92,469.22 L 83.29,468.17 L 99.68,464.93 L 98.24,461.69 L 113.39,453.91 L 107.55,449.09 L 91.99,445.63 L 75.70,439.18 L 53.16,441.69 L 46.51,445.05 L 34.00,445.63 L 15.32,456.54 L 0.00,459.87 L 0.00,345.22 L 4.84,342.84 Z" fill="#C8D8E8" stroke="#8BAABB" stroke-width="0.8"/>
<path d="M 237.28,390.28 L 235.83,395.51 L 239.48,401.21 L 239.31,406.13 L 233.49,405.53 L 232.47,415.23 L 211.69,415.12 L 193.61,412.94 L 176.86,403.78 L 177.75,397.68 L 192.57,388.38 L 205.81,385.06 L 226.18,389.75 L 237.28,390.28 Z" fill="#C8D8E8" stroke="#8BAABB" stroke-width="0.8"/>
<path d="M 258.32,70.47 L 253.87,68.28 L 231.05,66.72 L 230.98,64.25 L 218.57,63.88 L 212.28,59.88 L 203.55,57.66 L 190.60,58.21 L 185.03,56.96 L 160.68,38.74 L 153.76,30.21 L 144.19,25.25 L 126.14,20.09 L 117.60,13.48 L 115.28,8.30 L 121.69,2.62 L 119.32,0.00 L 561.41,0.00 L 552.72,9.31 L 559.11,16.60 L 565.03,17.24 L 576.27,22.15 L 576.28,24.12 L 584.95,24.64 L 589.14,27.37 L 588.85,29.61 L 578.52,33.26 L 574.98,43.07 L 578.52,41.22 L 583.96,43.25 L 584.47,46.65 L 576.27,52.35 L 579.77,60.08 L 589.14,64.05 L 584.24,62.84 L 581.38,63.61 L 586.23,64.36 L 586.55,67.91 L 589.87,67.31 L 593.38,69.15 L 589.78,74.08 L 593.70,74.03 L 597.94,78.27 L 595.88,79.76 L 600.75,81.27 L 595.59,85.46 L 601.99,84.44 L 609.43,88.85 L 611.06,87.17 L 616.36,87.87 L 615.80,89.81 L 621.04,90.29 L 621.04,88.46 L 626.53,91.47 L 630.21,90.36 L 630.67,93.69 L 610.51,100.12 L 586.55,103.54 L 575.48,106.90 L 558.23,106.92 L 539.23,111.61 L 528.15,109.01 L 513.17,109.14 L 507.48,113.91 L 491.15,117.46 L 475.72,116.60 L 470.59,114.51 L 460.60,114.67 L 451.46,117.49 L 431.43,117.11 L 429.94,114.77 L 413.88,111.61 L 402.12,115.28 L 373.36,114.67 L 369.69,110.89 L 364.00,110.31 L 356.85,105.67 L 359.74,98.99 L 355.32,94.93 L 353.22,85.45 L 342.95,79.27 L 328.60,74.65 L 323.86,79.24 L 315.52,76.69 L 301.62,77.40 L 295.10,74.94 L 258.32,70.47 Z M 605.11,41.75 L 601.82,44.80 L 592.72,46.17 L 590.71,45.41 L 605.22,39.53 L 605.11,41.75 Z M 587.01,17.10 L 582.69,14.02 L 582.08,15.40 L 572.44,12.48 L 572.06,6.63 L 576.27,5.25 L 577.85,2.89 L 582.69,11.93 L 586.66,12.01 L 586.55,10.63 L 588.66,14.40 L 587.01,17.10 Z M 600.79,46.57 L 596.15,48.19 L 596.15,47.38 L 600.79,46.57 Z M 574.29,5.51 L 573.19,5.55 L 573.19,4.01 L 574.29,5.51 Z" fill="#C8D8E8" stroke="#8BAABB" stroke-width="0.8"/>
<path d="M 280.36,77.54 L 289.23,77.04 L 297.13,81.41 L 295.28,85.85 L 306.05,89.04 L 312.68,95.65 L 304.54,99.31 L 291.91,101.49 L 299.36,106.87 L 291.81,111.67 L 290.98,114.49 L 294.93,115.05 L 295.74,118.46 L 292.86,125.48 L 297.41,129.07 L 305.77,129.60 L 297.45,132.98 L 282.15,134.51 L 278.21,137.51 L 281.62,140.32 L 280.89,145.77 L 272.19,151.99 L 265.15,153.29 L 270.16,154.25 L 269.84,156.74 L 275.06,157.57 L 280.97,161.96 L 287.58,159.56 L 290.51,161.26 L 150.00,179.73 L 159.21,192.12 L 120.51,192.61 L 89.71,198.49 L 86.18,200.33 L 86.18,206.59 L 81.66,209.34 L 37.26,217.50 L 26.00,225.20 L 4.28,235.11 L 0.00,235.90 L 0.00,115.09 L 7.32,114.60 L 9.86,119.17 L 18.64,121.32 L 28.86,128.42 L 39.13,127.82 L 43.93,129.84 L 65.75,132.77 L 71.40,139.72 L 79.16,139.80 L 92.61,149.46 L 101.55,150.24 L 119.90,146.21 L 124.36,147.27 L 121.93,149.95 L 128.97,150.66 L 130.48,125.75 L 115.19,127.45 L 116.39,131.46 L 94.55,130.05 L 81.19,122.66 L 69.75,120.38 L 62.60,113.61 L 71.94,100.57 L 78.77,96.91 L 72.67,88.82 L 78.72,80.66 L 70.13,72.76 L 62.45,70.73 L 87.87,61.07 L 87.68,55.67 L 175.28,50.15 L 188.52,57.91 L 203.55,57.66 L 212.28,59.88 L 218.57,63.88 L 230.98,64.25 L 231.05,66.72 L 253.87,68.28 L 258.32,70.47 L 277.26,73.33 L 280.36,77.54 Z" fill="#C8D8E8" stroke="#8BAABB" stroke-width="0.8"/>
<path d="M 26.00,225.20 L 37.26,217.50 L 83.91,208.46 L 86.18,200.33 L 89.71,198.49 L 120.51,192.61 L 158.55,192.23 L 158.84,199.20 L 199.16,199.63 L 205.96,202.28 L 220.35,203.34 L 229.74,207.37 L 247.62,207.80 L 265.55,210.63 L 268.34,212.71 L 279.50,212.19 L 272.93,217.03 L 282.00,224.87 L 278.00,227.78 L 282.13,230.09 L 277.56,236.85 L 278.86,242.26 L 282.99,244.08 L 274.90,247.59 L 276.40,252.15 L 266.47,253.29 L 265.98,255.59 L 274.20,258.05 L 269.85,265.31 L 273.09,266.02 L 272.50,269.33 L 278.31,268.85 L 282.52,271.43 L 281.32,276.16 L 275.59,277.51 L 265.55,285.70 L 256.60,287.06 L 257.05,293.42 L 249.94,297.20 L 254.99,300.63 L 200.52,321.32 L 179.31,319.12 L 155.67,320.31 L 128.58,316.23 L 109.68,317.37 L 94.80,314.13 L 94.72,309.87 L 74.82,306.99 L 45.42,305.17 L 30.20,296.00 L 31.68,285.27 L 11.47,285.01 L 8.34,277.32 L 0.00,276.17 L 0.00,236.51 L 26.00,225.20 Z" fill="#C8D8E8" stroke="#8BAABB" stroke-width="0.8"/>
<path d="M 237.28,390.28 L 231.57,389.30 L 229.53,386.53 L 233.76,383.16 L 233.33,359.99 L 226.93,350.59 L 211.75,341.54 L 212.16,335.82 L 200.06,321.66 L 254.99,300.63 L 249.94,297.20 L 257.05,293.42 L 256.60,287.06 L 265.55,285.70 L 275.59,277.51 L 281.32,276.16 L 282.52,271.43 L 278.31,268.85 L 272.50,269.33 L 273.09,266.02 L 269.85,265.31 L 274.20,258.05 L 265.98,255.59 L 266.47,253.29 L 276.40,252.15 L 274.90,247.59 L 282.99,244.08 L 278.86,242.26 L 277.56,236.85 L 282.13,230.09 L 278.00,227.78 L 282.00,224.87 L 272.93,217.03 L 279.50,212.19 L 268.34,212.71 L 265.55,210.63 L 247.62,207.80 L 229.74,207.37 L 220.35,203.34 L 205.96,202.28 L 199.16,199.63 L 158.84,199.20 L 158.39,189.27 L 150.00,179.73 L 290.51,161.26 L 311.30,172.48 L 314.85,170.35 L 330.39,170.45 L 344.18,168.39 L 352.36,172.59 L 354.76,185.26 L 338.96,197.08 L 347.02,200.32 L 348.05,204.41 L 370.58,213.32 L 380.58,215.09 L 378.12,220.37 L 388.75,220.74 L 388.10,212.56 L 381.23,209.44 L 392.64,201.87 L 399.22,202.45 L 411.94,199.99 L 414.54,188.05 L 411.90,183.37 L 417.54,177.93 L 414.86,173.41 L 378.98,155.35 L 368.58,151.75 L 358.12,151.30 L 353.64,148.12 L 351.25,135.94 L 344.65,126.62 L 357.00,114.76 L 400.01,115.42 L 413.88,111.61 L 429.94,114.77 L 431.43,117.11 L 451.46,117.49 L 460.60,114.67 L 470.59,114.51 L 475.72,116.60 L 491.15,117.46 L 507.48,113.91 L 513.17,109.14 L 528.15,109.01 L 539.23,111.61 L 558.23,106.92 L 574.30,107.05 L 586.55,103.54 L 600.06,102.43 L 634.13,93.75 L 633.95,95.44 L 640.92,97.74 L 632.95,99.18 L 639.29,100.68 L 633.45,102.88 L 633.94,104.43 L 636.74,103.99 L 633.94,107.30 L 626.53,109.77 L 632.03,111.08 L 630.23,116.13 L 634.59,119.74 L 634.81,126.72 L 631.34,127.85 L 636.51,130.20 L 632.61,132.38 L 636.55,132.93 L 640.54,137.44 L 629.45,140.80 L 632.86,142.32 L 633.65,140.91 L 638.11,141.44 L 634.91,151.65 L 638.11,152.70 L 635.49,154.05 L 640.72,161.61 L 635.45,164.14 L 637.94,166.02 L 642.87,164.48 L 645.21,166.17 L 644.57,167.49 L 640.04,167.49 L 639.72,171.81 L 643.07,169.24 L 647.81,168.84 L 649.74,169.86 L 645.91,171.21 L 649.09,171.02 L 650.00,174.46 L 644.28,177.93 L 640.36,177.30 L 646.52,180.04 L 641.67,179.64 L 643.60,181.48 L 634.95,182.59 L 634.23,183.56 L 640.00,183.23 L 642.18,184.54 L 637.48,189.48 L 613.18,198.97 L 616.46,198.92 L 609.77,203.43 L 599.94,204.94 L 601.10,206.60 L 603.35,207.38 L 569.18,215.75 L 567.36,217.96 L 547.26,218.76 L 524.21,223.76 L 519.88,221.91 L 522.10,223.74 L 477.97,232.37 L 468.31,237.60 L 463.79,235.09 L 461.20,235.03 L 467.99,238.25 L 444.28,247.99 L 441.20,252.35 L 433.24,250.61 L 434.59,254.37 L 428.94,254.55 L 427.86,252.65 L 415.24,255.53 L 380.98,269.91 L 369.38,272.94 L 357.47,267.83 L 354.01,267.57 L 364.56,272.01 L 361.35,273.33 L 364.44,278.45 L 358.81,278.44 L 362.95,279.87 L 358.11,282.73 L 361.68,284.46 L 359.42,285.88 L 362.79,285.56 L 369.02,289.16 L 374.71,289.49 L 376.79,293.46 L 380.67,294.00 L 375.79,296.76 L 378.42,300.78 L 380.99,298.05 L 380.67,301.84 L 387.76,306.94 L 389.39,321.15 L 393.55,323.04 L 395.78,316.01 L 398.57,315.75 L 399.35,319.65 L 400.95,317.15 L 398.03,326.90 L 400.31,331.81 L 403.52,331.19 L 397.52,336.20 L 393.38,347.10 L 392.96,345.76 L 391.02,345.73 L 390.65,351.24 L 392.90,348.94 L 396.94,349.62 L 397.40,347.76 L 399.82,348.15 L 398.38,353.85 L 380.03,363.33 L 294.01,376.67 L 295.99,375.82 L 274.99,381.39 L 266.26,387.92 L 261.77,389.50 L 258.25,389.14 L 256.38,389.80 L 273.57,395.61 L 278.84,391.60 L 275.95,406.25 L 239.31,406.13 L 237.28,390.28 Z M 358.84,124.27 L 360.40,125.19 L 363.85,123.58 L 360.64,122.82 L 358.84,124.27 Z M 353.58,123.03 L 356.74,124.20 L 357.50,122.57 L 353.58,123.03 Z M 277.14,390.12 L 280.16,389.50 L 279.16,390.94 L 277.14,390.12 Z M 398.10,306.89 L 395.47,309.58 L 395.59,307.49 L 397.10,305.12 L 398.10,306.89 Z M 607.60,204.95 L 604.41,207.14 L 601.73,205.24 L 607.60,204.95 Z" fill="#4A90D9" stroke="#1a5fa8" stroke-width="1.2"/>
<path d="M 370.01,161.21 L 366.98,164.93 L 361.35,166.24 L 353.92,162.51 L 357.85,155.33 L 343.29,149.46 L 343.58,140.01 L 336.77,134.68 L 336.05,130.39 L 329.86,127.98 L 331.24,122.85 L 343.29,115.94 L 336.61,95.66 L 340.74,93.04 L 323.64,81.33 L 328.60,74.65 L 342.95,79.27 L 352.67,84.80 L 359.74,98.99 L 356.85,105.67 L 373.17,113.24 L 372.95,119.25 L 368.88,123.63 L 360.67,126.40 L 360.38,130.97 L 366.82,136.46 L 363.49,140.41 L 368.31,155.14 L 378.26,156.21 L 388.56,167.42 L 385.58,168.34 L 370.01,161.21 Z M 362.79,124.51 L 363.59,123.65 L 362.28,123.39 L 362.79,124.51 Z" fill="#A8C8E8" stroke="none"/>
<path d="M 171.71,55.63 L 165.69,57.55 L 166.57,56.04 L 162.03,56.15 L 161.16,54.01 L 166.71,52.23 L 167.39,49.12 L 152.55,43.32 L 145.94,32.10 L 130.02,28.26 L 118.71,22.99 L 115.80,18.07 L 102.20,9.76 L 101.31,6.69 L 107.97,4.75 L 110.42,0.81 L 109.40,0.00 L 131.04,0.00 L 137.70,5.24 L 137.38,6.69 L 127.43,9.12 L 126.36,12.97 L 137.70,17.95 L 147.38,17.21 L 166.46,26.52 L 166.24,29.30 L 163.15,29.45 L 168.33,33.69 L 167.35,37.05 L 184.82,48.57 L 185.58,51.45 L 193.77,54.58 L 196.07,60.26 L 188.12,61.70 L 171.71,55.63 Z" fill="#A8C8E8" stroke="none"/>
<path d="M 390.36,172.99 L 388.09,175.46 L 383.99,174.08 L 384.12,171.65 L 387.12,170.63 L 390.36,172.99 Z" fill="#A8C8E8" stroke="none"/>
<path d="M 93.26,65.31 L 79.65,71.33 L 79.75,74.04 L 70.38,73.68 L 69.41,72.50 L 67.46,74.46 L 70.69,75.26 L 60.69,75.50 L 61.35,67.52 L 86.74,55.90 L 98.88,58.31 L 93.26,65.31 Z" fill="#A8C8E8" stroke="none"/>
<path d="M 139.36,106.07 L 138.82,105.08 L 135.13,106.13 L 137.46,109.00 L 131.62,111.73 L 119.48,111.05 L 125.78,104.55 L 119.17,108.59 L 116.54,108.36 L 115.46,107.18 L 117.06,108.22 L 126.82,102.40 L 127.40,103.64 L 130.31,101.93 L 126.43,104.69 L 136.41,100.76 L 141.64,103.27 L 139.36,106.07 Z" fill="#A8C8E8" stroke="none"/>
<path d="M 230.04,38.18 L 230.30,38.18 L 230.27,38.18 L 230.04,38.18 Z M 259.30,48.78 L 239.30,45.20 L 232.39,46.50 L 224.39,39.51 L 232.03,38.23 L 259.30,48.78 Z" fill="#A8C8E8" stroke="none"/>
<path d="M 234.02,418.32 L 229.04,415.78 L 232.00,415.51 L 234.02,418.32 Z" fill="#A8C8E8" stroke="none"/>
<path d="M 0.00,103.89 L 0.00,101.19 L 1.40,100.89 L 0.00,100.48 L 0.00,100.01 L 4.32,100.89 L 8.26,99.81 L 0.93,104.43 L 0.00,103.89 Z" fill="#A8C8E8" stroke="none"/>
<path d="M 128.51,61.17 L 125.01,61.93 L 121.63,60.73 L 133.85,57.32 L 128.51,61.17 Z" fill="#A8C8E8" stroke="none"/>
<path d="M 82.60,214.72 L 77.78,212.10 L 66.65,214.72 L 68.12,216.27 L 63.72,213.47 L 51.36,215.33 L 48.23,218.02 L 51.69,217.84 L 50.73,218.90 L 48.13,219.82 L 43.91,218.70 L 38.79,221.39 L 31.48,222.10 L 25.92,227.40 L 15.34,229.74 L 0.06,237.05 L 5.13,234.21 L 3.01,233.17 L 16.30,228.31 L 13.64,226.67 L 18.48,223.55 L 28.78,219.02 L 32.34,219.41 L 29.77,218.76 L 32.98,216.66 L 39.76,216.21 L 35.38,215.33 L 36.20,214.55 L 42.10,213.77 L 44.92,215.37 L 49.20,215.05 L 49.74,213.39 L 55.32,212.34 L 53.64,211.32 L 61.34,210.52 L 59.68,209.41 L 64.56,210.66 L 76.98,208.31 L 91.71,210.59 L 82.60,214.72 Z" fill="#A8C8E8" stroke="none"/>
<path d="M 266.27,191.72 L 255.01,191.16 L 240.00,194.17 L 202.78,192.89 L 194.41,196.53 L 196.98,193.91 L 191.11,193.95 L 177.37,192.35 L 193.58,193.66 L 202.49,191.69 L 236.64,192.07 L 250.51,189.98 L 266.27,191.72 Z" fill="#A8C8E8" stroke="none"/>
<path d="M 66.04,409.21 L 55.86,407.55 L 58.18,408.77 L 55.52,409.38 L 61.78,409.12 L 65.14,410.90 L 63.59,412.78 L 61.01,410.11 L 60.04,411.21 L 53.78,410.37 L 54.02,407.29 L 50.25,407.54 L 52.66,405.60 L 69.64,408.67 L 66.04,409.21 Z" fill="#A8C8E8" stroke="none"/>
</svg>