<svg xmlns="http://www.w3.org/2000/svg" width="800" height="500" viewBox="0 0 800 500">
<rect width="800" height="500" fill="#A8C8E8"/>
<path d="M 292.94,2.62 L 290.48,8.30 L 291.59,14.23 L 294.65,20.09 L 301.60,25.25 L 305.28,30.21 L 313.56,50.15 L 279.86,55.67 L 279.93,61.07 L 270.15,70.73 L 273.11,72.76 L 276.41,80.66 L 274.08,88.82 L 276.43,96.91 L 273.80,100.57 L 270.29,113.91 L 272.96,120.38 L 277.36,122.66 L 282.50,130.05 L 290.90,131.46 L 290.44,127.45 L 296.32,125.75 L 296.01,150.60 L 293.03,149.95 L 293.97,147.27 L 292.25,146.21 L 285.19,150.24 L 281.75,149.46 L 276.58,139.80 L 273.59,139.72 L 271.42,132.77 L 263.03,129.84 L 261.18,127.82 L 257.23,128.42 L 253.30,121.32 L 249.92,119.17 L 248.95,114.60 L 246.13,115.09 L 246.13,0.00 L 292.03,0.00 L 292.94,2.62 Z" fill="#E8E0D0" stroke="#B8B0A0" stroke-width="0.5"/>
<path d="M 249.34,277.32 L 250.54,285.01 L 258.32,285.27 L 257.75,296.00 L 263.60,305.17 L 274.91,306.99 L 282.56,309.87 L 282.60,314.13 L 288.20,317.29 L 282.56,318.00 L 280.61,322.15 L 278.55,323.14 L 269.24,325.26 L 259.32,337.04 L 256.69,336.96 L 255.62,339.71 L 247.99,342.84 L 246.13,345.22 L 246.13,276.17 L 249.34,277.32 Z" fill="#E8E0D0" stroke="#B8B0A0" stroke-width="0.5"/>
<path d="M 287.50,449.09 L 289.75,453.91 L 283.92,461.69 L 284.47,464.93 L 278.17,468.17 L 270.72,469.22 L 267.41,471.86 L 268.09,473.19 L 266.04,475.19 L 265.20,479.04 L 259.14,477.92 L 253.87,472.38 L 252.31,472.40 L 252.59,469.19 L 246.13,460.63 L 246.13,459.87 L 252.02,456.54 L 259.21,445.63 L 264.02,445.05 L 266.58,441.69 L 275.25,439.18 L 281.52,445.63 L 287.50,449.09 Z" fill="#E8E0D0" stroke="#B8B0A0" stroke-width="0.5"/>
<path d="M 553.87,288.32 L 553.87,371.07 L 553.70,370.98 L 551.70,363.73 L 547.26,358.31 L 546.39,347.37 L 548.86,341.68 L 546.51,339.40 L 545.64,334.27 L 541.63,329.83 L 539.13,318.59 L 540.55,317.91 L 539.56,314.40 L 541.18,309.32 L 543.64,307.47 L 544.27,300.55 L 549.80,298.92 L 551.40,292.40 L 553.87,288.32 Z M 553.83,232.96 L 551.81,228.70 L 553.87,225.07 L 553.87,237.66 L 553.83,232.96 Z" fill="#E8E0D0" stroke="#B8B0A0" stroke-width="0.5"/>
<path d="M 530.11,219.48 L 530.73,219.43 L 530.60,219.72 L 530.11,219.48 Z M 487.81,320.21 L 487.50,320.65 L 486.96,320.60 L 487.81,320.21 Z M 475.93,303.07 L 475.97,303.12 L 475.92,303.13 L 475.93,303.07 Z" fill="#E8E0D0" stroke="#B8B0A0" stroke-width="0.5"/>
<path d="M 550.62,129.90 L 547.13,129.54 L 546.59,127.34 L 550.62,129.90 Z M 543.01,121.51 L 539.03,118.04 L 540.10,110.97 L 542.24,111.36 L 541.92,115.27 L 543.01,121.51 Z" fill="#E8E0D0" stroke="#B8B0A0" stroke-width="0.5"/>
<path d="M 383.46,114.76 L 382.50,119.58 L 378.79,125.76 L 381.25,135.94 L 382.17,148.12 L 383.89,151.30 L 387.92,151.75 L 391.91,155.35 L 405.72,173.41 L 406.75,177.93 L 404.58,183.37 L 405.59,188.05 L 404.59,199.99 L 399.70,202.45 L 397.17,201.87 L 392.78,209.44 L 396.00,215.42 L 395.91,220.26 L 394.64,220.85 L 391.59,220.37 L 392.53,215.09 L 388.68,213.32 L 380.02,204.41 L 379.62,200.32 L 376.52,197.08 L 382.53,185.76 L 381.38,171.99 L 378.53,168.39 L 373.22,170.45 L 367.25,170.35 L 365.88,172.48 L 359.28,162.16 L 356.75,159.56 L 354.21,161.96 L 351.94,157.57 L 349.93,156.74 L 350.05,154.25 L 348.13,153.29 L 350.83,151.99 L 354.18,145.77 L 354.46,140.32 L 353.15,137.51 L 354.66,134.51 L 360.55,132.98 L 363.75,129.60 L 360.54,129.07 L 358.79,125.48 L 359.90,118.46 L 359.58,115.05 L 358.06,114.49 L 358.38,111.67 L 361.29,106.87 L 358.42,101.49 L 363.28,99.31 L 366.41,95.65 L 363.86,89.04 L 359.72,85.85 L 360.43,81.41 L 357.39,77.04 L 353.98,77.54 L 353.06,73.02 L 357.34,75.29 L 359.65,74.94 L 362.16,77.40 L 367.50,76.69 L 370.71,79.24 L 372.53,74.65 L 378.05,79.27 L 382.01,85.45 L 382.81,94.93 L 384.51,98.99 L 383.40,105.67 L 386.15,110.31 L 388.34,110.89 L 389.75,114.67 L 383.46,114.76 Z M 386.09,123.58 L 384.77,125.19 L 384.17,124.27 L 384.86,122.82 L 386.09,123.58 Z M 383.65,122.57 L 383.36,124.20 L 382.14,123.03 L 383.65,122.57 Z" fill="#C8D8E8" stroke="#8BAABB" stroke-width="0.8"/>
<path d="M 247.99,342.84 L 255.62,339.71 L 256.69,336.96 L 259.32,337.04 L 269.24,325.26 L 280.28,322.39 L 282.56,318.00 L 293.83,316.14 L 306.01,320.31 L 320.80,319.77 L 323.27,321.32 L 327.74,335.82 L 327.58,341.54 L 333.42,350.59 L 335.88,359.99 L 336.05,383.16 L 334.17,389.79 L 325.30,385.06 L 320.21,388.38 L 314.50,397.68 L 314.47,405.54 L 315.87,404.84 L 317.20,409.19 L 320.61,412.94 L 327.56,415.12 L 335.55,415.23 L 335.95,405.53 L 352.28,406.25 L 351.78,409.52 L 343.22,438.50 L 336.43,443.26 L 337.40,443.66 L 336.35,444.82 L 331.95,445.89 L 324.64,453.72 L 318.06,464.60 L 319.09,464.48 L 301.09,490.11 L 289.31,498.49 L 287.91,500.00 L 246.13,500.00 L 246.13,460.63 L 252.59,469.19 L 252.31,472.40 L 253.87,472.38 L 259.14,477.92 L 265.20,479.04 L 266.04,475.19 L 268.09,473.19 L 267.41,471.86 L 270.72,469.22 L 278.17,468.17 L 284.47,464.93 L 283.92,461.69 L 289.75,453.91 L 287.50,449.09 L 281.52,445.63 L 275.25,439.18 L 266.58,441.69 L 264.02,445.05 L 259.21,445.63 L 252.02,456.54 L 246.13,459.87 L 246.13,345.22 L 247.99,342.84 Z" fill="#C8D8E8" stroke="#8BAABB" stroke-width="0.8"/>
<path d="M 337.40,390.28 L 336.85,395.51 L 338.25,401.21 L 338.19,406.13 L 335.95,405.53 L 335.55,415.23 L 327.56,415.12 L 320.61,412.94 L 314.16,403.78 L 314.50,397.68 L 320.21,388.38 L 325.30,385.06 L 333.14,389.75 L 337.40,390.28 Z" fill="#C8D8E8" stroke="#8BAABB" stroke-width="0.8"/>
<path d="M 345.50,70.47 L 343.79,68.28 L 335.01,66.72 L 334.98,64.25 L 330.21,63.88 L 327.79,59.88 L 324.43,57.66 L 319.45,58.21 L 317.31,56.96 L 307.94,38.74 L 305.28,30.21 L 301.60,25.25 L 294.65,20.09 L 291.37,13.48 L 290.48,8.30 L 292.94,2.62 L 292.03,0.00 L 462.09,0.00 L 458.75,9.31 L 461.21,16.60 L 463.48,17.24 L 467.81,22.15 L 467.81,24.12 L 471.15,24.64 L 472.76,27.37 L 472.65,29.61 L 468.67,33.26 L 467.31,43.07 L 468.67,41.22 L 470.77,43.25 L 470.96,46.65 L 467.81,52.35 L 469.15,60.08 L 472.76,64.05 L 470.87,62.84 L 469.77,63.61 L 471.64,64.36 L 471.76,67.91 L 473.04,67.31 L 474.39,69.15 L 473.01,74.08 L 474.51,74.03 L 476.14,78.27 L 475.35,79.76 L 477.22,81.27 L 475.24,85.46 L 477.70,84.44 L 480.56,88.85 L 481.19,87.17 L 483.23,87.87 L 483.01,89.81 L 485.03,90.29 L 485.03,88.46 L 487.14,91.47 L 488.55,90.36 L 488.73,93.69 L 480.98,100.12 L 471.76,103.54 L 467.50,106.90 L 460.87,106.92 L 453.56,111.61 L 449.30,109.01 L 443.53,109.14 L 441.34,113.91 L 435.06,117.46 L 429.13,116.60 L 427.15,114.51 L 423.31,114.67 L 419.80,117.49 L 412.09,117.11 L 411.52,114.77 L 405.34,111.61 L 400.81,115.28 L 389.75,114.67 L 388.34,110.89 L 386.15,110.31 L 383.40,105.67 L 384.51,98.99 L 382.81,94.93 L 382.01,85.45 L 378.05,79.27 L 372.53,74.65 L 370.71,79.24 L 367.50,76.69 L 362.16,77.40 L 359.65,74.94 L 345.50,70.47 Z M 478.90,41.75 L 477.63,44.80 L 474.13,46.17 L 473.36,45.41 L 478.94,39.53 L 478.90,41.75 Z M 471.94,17.10 L 470.28,14.02 L 470.04,15.40 L 466.33,12.48 L 466.19,6.63 L 467.81,5.25 L 468.41,2.89 L 470.28,11.93 L 471.80,12.01 L 471.76,10.63 L 472.57,14.40 L 471.94,17.10 Z M 477.24,46.57 L 475.45,48.19 L 475.45,47.38 L 477.24,46.57 Z M 467.05,5.51 L 466.62,5.55 L 466.62,4.01 L 467.05,5.51 Z" fill="#C8D8E8" stroke="#8BAABB" stroke-width="0.8"/>
<path d="M 353.98,77.54 L 357.39,77.04 L 360.43,81.41 L 359.72,85.85 L 363.86,89.04 L 366.41,95.65 L 363.28,99.31 L 358.42,101.49 L 361.29,106.87 L 358.38,111.67 L 358.06,114.49 L 359.58,115.05 L 359.90,118.46 L 358.79,125.48 L 360.54,129.07 L 363.75,129.60 L 360.55,132.98 L 354.66,134.51 L 353.15,137.51 L 354.46,140.32 L 354.18,145.77 L 350.83,151.99 L 348.13,153.29 L 350.05,154.25 L 349.93,156.74 L 351.94,157.57 L 354.21,161.96 L 356.75,159.56 L 357.88,161.26 L 303.83,179.73 L 307.37,192.12 L 292.49,192.61 L 280.64,198.49 L 279.28,200.33 L 279.28,206.59 L 277.54,209.34 L 260.46,217.50 L 256.13,225.20 L 247.78,235.11 L 246.13,235.90 L 246.13,115.09 L 248.95,114.60 L 249.92,119.17 L 253.30,121.32 L 257.23,128.42 L 261.18,127.82 L 263.03,129.84 L 271.42,132.77 L 273.59,139.72 L 276.58,139.80 L 281.75,149.46 L 285.19,150.24 L 292.25,146.21 L 293.97,147.27 L 293.03,149.95 L 295.74,150.66 L 296.32,125.75 L 290.44,127.45 L 290.90,131.46 L 282.50,130.05 L 277.36,122.66 L 272.96,120.38 L 270.21,113.61 L 273.80,100.57 L 276.43,96.91 L 274.08,88.82 L 276.41,80.66 L 273.11,72.76 L 270.15,70.73 L 279.93,61.07 L 279.86,55.67 L 313.56,50.15 L 318.65,57.91 L 324.43,57.66 L 327.79,59.88 L 330.21,63.88 L 334.98,64.25 L 335.01,66.72 L 343.79,68.28 L 345.50,70.47 L 352.78,73.33 L 353.98,77.54 Z" fill="#C8D8E8" stroke="#8BAABB" stroke-width="0.8"/>
<path d="M 256.13,225.20 L 260.46,217.50 L 278.41,208.46 L 279.28,200.33 L 280.64,198.49 L 292.49,192.61 L 307.12,192.23 L 307.23,199.20 L 322.74,199.63 L 325.36,202.28 L 330.89,203.34 L 334.50,207.37 L 341.38,207.80 L 348.28,210.63 L 349.36,212.71 L 353.65,212.19 L 351.12,217.03 L 354.61,224.87 L 353.07,227.78 L 354.66,230.09 L 352.90,236.85 L 353.40,242.26 L 354.99,244.08 L 351.88,247.59 L 352.45,252.15 L 348.63,253.29 L 348.45,255.59 L 351.61,258.05 L 349.94,265.31 L 351.18,266.02 L 350.95,269.33 L 353.19,268.85 L 354.81,271.43 L 354.35,276.16 L 352.14,277.51 L 348.28,285.70 L 344.84,287.06 L 345.01,293.42 L 342.27,297.20 L 344.22,300.63 L 323.27,321.32 L 315.11,319.12 L 306.01,320.31 L 295.59,316.23 L 288.32,317.37 L 282.60,314.13 L 282.56,309.87 L 274.91,306.99 L 263.60,305.17 L 257.75,296.00 L 258.32,285.27 L 250.54,285.01 L 249.34,277.32 L 246.13,276.17 L 246.13,236.51 L 256.13,225.20 Z" fill="#C8D8E8" stroke="#8BAABB" stroke-width="0.8"/>
<path d="M 337.40,390.28 L 335.21,389.30 L 334.42,386.53 L 336.05,383.16 L 335.88,359.99 L 333.42,350.59 L 327.58,341.54 L 327.74,335.82 L 323.09,321.66 L 344.22,300.63 L 342.27,297.20 L 345.01,293.42 L 344.84,287.06 L 348.28,285.70 L 352.14,277.51 L 354.35,276.16 L 354.81,271.43 L 353.19,268.85 L 350.95,269.33 L 351.18,266.02 L 349.94,265.31 L 351.61,258.05 L 348.45,255.59 L 348.63,253.29 L 352.45,252.15 L 351.88,247.59 L 354.99,244.08 L 353.40,242.26 L 352.90,236.85 L 354.66,230.09 L 353.07,227.78 L 354.61,224.87 L 351.12,217.03 L 353.65,212.19 L 349.36,212.71 L 348.28,210.63 L 341.38,207.80 L 334.50,207.37 L 330.89,203.34 L 325.36,202.28 L 322.74,199.63 L 307.23,199.20 L 307.06,189.27 L 303.83,179.73 L 357.88,161.26 L 365.88,172.48 L 367.25,170.35 L 373.22,170.45 L 378.53,168.39 L 381.68,172.59 L 382.60,185.26 L 376.52,197.08 L 379.62,200.32 L 380.02,204.41 L 388.68,213.32 L 392.53,215.09 L 391.59,220.37 L 395.67,220.74 L 395.42,212.56 L 392.78,209.44 L 397.17,201.87 L 399.70,202.45 L 404.59,199.99 L 405.59,188.05 L 404.58,183.37 L 406.75,177.93 L 405.72,173.41 L 391.91,155.35 L 387.92,151.75 L 383.89,151.30 L 382.17,148.12 L 381.25,135.94 L 378.71,126.62 L 383.46,114.76 L 400.01,115.42 L 405.34,111.61 L 411.52,114.77 L 412.09,117.11 L 419.80,117.49 L 423.31,114.67 L 427.15,114.51 L 429.13,116.60 L 435.06,117.46 L 441.34,113.91 L 443.53,109.14 L 449.30,109.01 L 453.56,111.61 L 460.87,106.92 L 467.05,107.05 L 471.76,103.54 L 476.96,102.43 L 490.06,93.75 L 489.99,95.44 L 492.68,97.74 L 489.61,99.18 L 492.05,100.68 L 489.80,102.88 L 489.99,104.43 L 491.07,103.99 L 489.99,107.30 L 487.14,109.77 L 489.26,111.08 L 488.56,116.13 L 490.24,119.74 L 490.33,126.72 L 488.99,127.85 L 490.98,130.20 L 489.48,132.38 L 491.00,132.93 L 492.53,137.44 L 488.26,140.80 L 489.57,142.32 L 489.88,140.91 L 491.60,141.44 L 490.36,151.65 L 491.60,152.70 L 490.59,154.05 L 492.60,161.61 L 490.57,164.14 L 491.53,166.02 L 493.43,164.48 L 494.33,166.17 L 494.08,167.49 L 492.34,167.49 L 492.22,171.81 L 493.50,169.24 L 495.33,168.84 L 496.07,169.86 L 494.60,171.21 L 495.82,171.02 L 496.17,174.46 L 493.97,177.93 L 492.46,177.30 L 494.83,180.04 L 492.97,179.64 L 493.71,181.48 L 490.38,182.59 L 490.10,183.56 L 492.32,183.23 L 493.16,184.54 L 491.35,189.48 L 482.01,198.97 L 483.27,198.92 L 480.69,203.43 L 476.91,204.94 L 477.36,206.60 L 478.23,207.38 L 465.08,215.75 L 464.38,217.96 L 456.65,218.76 L 447.78,223.76 L 446.12,221.91 L 446.97,223.74 L 429.99,232.37 L 426.28,237.60 L 424.54,235.09 L 423.54,235.03 L 426.15,238.25 L 417.03,247.99 L 415.85,252.35 L 412.79,250.61 L 413.31,254.37 L 411.13,254.55 L 410.72,252.65 L 405.86,255.53 L 392.68,269.91 L 388.22,272.94 L 383.64,267.83 L 382.31,267.57 L 386.37,272.01 L 385.13,273.33 L 386.32,278.45 L 384.16,278.44 L 385.75,279.87 L 383.89,282.73 L 385.26,284.46 L 384.39,285.88 L 385.69,285.56 L 388.08,289.16 L 390.27,289.49 L 391.07,293.46 L 392.56,294.00 L 390.69,296.76 L 391.70,300.78 L 392.69,298.05 L 392.56,301.84 L 395.29,306.94 L 395.92,321.15 L 397.52,323.04 L 398.38,316.01 L 399.45,315.75 L 399.75,319.65 L 400.37,317.15 L 399.24,326.90 L 400.12,331.81 L 401.35,331.19 L 399.05,336.20 L 397.45,347.10 L 397.29,345.76 L 396.55,345.73 L 396.40,351.24 L 397.27,348.94 L 398.82,349.62 L 399.00,347.76 L 399.93,348.15 L 399.38,353.85 L 392.32,363.33 L 359.23,376.67 L 359.99,375.82 L 351.91,381.39 L 348.55,387.92 L 346.83,389.50 L 345.47,389.14 L 344.75,389.80 L 351.37,395.61 L 353.39,391.60 L 352.28,406.25 L 338.19,406.13 L 337.40,390.28 Z M 384.17,124.27 L 384.77,125.19 L 386.09,123.58 L 384.86,122.82 L 384.17,124.27 Z M 382.14,123.03 L 383.36,124.20 L 383.65,122.57 L 382.14,123.03 Z M 352.74,390.12 L 353.90,389.50 L 353.51,390.94 L 352.74,390.12 Z M 399.27,306.89 L 398.26,309.58 L 398.30,307.49 L 398.88,305.12 L 399.27,306.89 Z M 479.86,204.95 L 478.63,207.14 L 477.60,205.24 L 479.86,204.95 Z" fill="#4A90D9" stroke="#1a5fa8" stroke-width="1.2"/>
<path d="M 388.46,161.21 L 387.30,164.93 L 385.13,166.24 L 382.27,162.51 L 383.78,155.33 L 378.18,149.46 L 378.29,140.01 L 375.68,134.68 L 375.40,130.39 L 373.02,127.98 L 373.55,122.85 L 378.18,115.94 L 375.62,95.66 L 377.20,93.04 L 370.63,81.33 L 372.53,74.65 L 378.05,79.27 L 381.79,84.80 L 384.51,98.99 L 383.40,105.67 L 389.68,113.24 L 389.59,119.25 L 388.03,123.63 L 384.87,126.40 L 384.76,130.97 L 387.23,136.46 L 385.96,140.41 L 387.81,155.14 L 391.64,156.21 L 395.60,167.42 L 394.45,168.34 L 388.46,161.21 Z M 385.69,124.51 L 385.99,123.65 L 385.49,123.39 L 385.69,124.51 Z" fill="#A8C8E8" stroke="none"/>
<path d="M 312.18,55.63 L 309.87,57.55 L 310.21,56.04 L 308.46,56.15 L 308.12,54.01 L 310.26,52.23 L 310.52,49.12 L 304.81,43.32 L 302.27,32.10 L 296.14,28.26 L 291.79,22.99 L 290.68,18.07 L 285.44,9.76 L 285.10,6.69 L 287.66,4.75 L 288.61,0.81 L 288.21,0.00 L 296.54,0.00 L 299.10,5.24 L 298.98,6.69 L 295.15,9.12 L 294.74,12.97 L 299.10,17.95 L 302.82,17.21 L 310.16,26.52 L 310.08,29.30 L 308.89,29.45 L 310.88,33.69 L 310.50,37.05 L 317.22,48.57 L 317.52,51.45 L 320.67,54.58 L 321.55,60.26 L 318.50,61.70 L 312.18,55.63 Z" fill="#A8C8E8" stroke="none"/>
<path d="M 396.29,172.99 L 395.42,175.46 L 393.84,174.08 L 393.89,171.65 L 395.05,170.63 L 396.29,172.99 Z" fill="#A8C8E8" stroke="none"/>
<path d="M 282.00,65.31 L 276.77,71.33 L 276.81,74.04 L 273.20,73.68 L 272.83,72.50 L 272.08,74.46 L 273.32,75.26 L 269.47,75.50 L 269.73,67.52 L 279.49,55.90 L 284.16,58.31 L 282.00,65.31 Z" fill="#A8C8E8" stroke="none"/>
<path d="M 299.74,106.07 L 299.53,105.08 L 298.11,106.13 L 299.01,109.00 L 296.76,111.73 L 292.09,111.05 L 294.52,104.55 L 291.97,108.59 L 290.96,108.36 L 290.54,107.18 L 291.16,108.22 L 294.91,102.40 L 295.14,103.64 L 296.26,101.93 L 294.77,104.69 L 298.60,100.76 L 300.62,103.27 L 299.74,106.07 Z" fill="#A8C8E8" stroke="none"/>
<path d="M 334.62,38.18 L 334.72,38.18 L 334.71,38.18 L 334.62,38.18 Z M 345.87,48.78 L 338.18,45.20 L 335.52,46.50 L 332.45,39.51 L 335.39,38.23 L 345.87,48.78 Z" fill="#A8C8E8" stroke="none"/>
<path d="M 336.15,418.32 L 334.24,415.78 L 335.37,415.51 L 336.15,418.32 Z" fill="#A8C8E8" stroke="none"/>
<path d="M 246.13,103.89 L 246.13,101.19 L 246.67,100.89 L 246.13,100.48 L 246.13,100.01 L 247.79,100.89 L 249.31,99.81 L 246.49,104.43 L 246.13,103.89 Z" fill="#A8C8E8" stroke="none"/>
<path d="M 295.56,61.17 L 294.22,61.93 L 292.92,60.73 L 297.62,57.32 L 295.56,61.17 Z" fill="#A8C8E8" stroke="none"/>
<path d="M 277.90,214.72 L 276.05,212.10 L 271.77,214.72 L 272.33,216.27 L 270.64,213.47 L 265.89,215.33 L 264.68,218.02 L 266.01,217.84 L 265.65,218.90 L 264.65,219.82 L 263.02,218.70 L 261.05,221.39 L 258.24,222.10 L 256.10,227.40 L 252.03,229.74 L 246.15,237.05 L 248.10,234.21 L 247.29,233.17 L 252.40,228.31 L 251.38,226.67 L 253.24,223.55 L 257.20,219.02 L 258.57,219.41 L 257.58,218.76 L 258.81,216.66 L 261.42,216.21 L 259.74,215.33 L 260.06,214.55 L 262.32,213.77 L 263.41,215.37 L 265.06,215.05 L 265.26,213.39 L 267.41,212.34 L 266.76,211.32 L 269.72,210.52 L 269.09,209.41 L 270.97,210.66 L 275.74,208.31 L 281.41,210.59 L 277.90,214.72 Z" fill="#A8C8E8" stroke="none"/>
<path d="M 348.56,191.72 L 344.22,191.16 L 338.45,194.17 L 324.13,192.89 L 320.91,196.53 L 321.90,193.91 L 319.65,193.95 L 314.36,192.35 L 320.59,193.66 L 324.02,191.69 L 337.16,192.07 L 342.49,189.98 L 348.56,191.72 Z" fill="#A8C8E8" stroke="none"/>
<path d="M 271.53,409.21 L 267.62,407.55 L 268.51,408.77 L 267.49,409.38 L 269.90,409.12 L 271.19,410.90 L 270.59,412.78 L 269.60,410.11 L 269.22,411.21 L 266.82,410.37 L 266.91,407.29 L 265.46,407.54 L 266.39,405.60 L 272.92,408.67 L 271.53,409.21 Z" fill="#A8C8E8" stroke="none"/>
</svg>