<svg xmlns="http://www.w3.org/2000/svg" width="800" height="500" viewBox="0 0 800 500">
<rect width="800" height="500" fill="#A8C8E8"/>
<path d="M 794.89,2.28 L 787.87,1.22 L 786.90,0.00 L 800.00,0.00 L 800.00,0.33 L 794.89,2.28 Z" fill="#E8E0D0" stroke="#B8B0A0" stroke-width="0.5"/>
<path d="M 659.48,117.47 L 665.57,116.14 L 674.54,121.02 L 685.15,118.00 L 703.18,122.85 L 715.04,119.97 L 735.57,104.48 L 744.41,93.97 L 781.04,81.65 L 782.82,70.57 L 785.60,68.05 L 800.00,63.28 L 800.00,229.65 L 789.59,225.71 L 789.53,219.90 L 773.91,215.98 L 750.82,213.50 L 738.86,200.99 L 740.03,186.36 L 724.16,186.01 L 721.70,175.53 L 703.69,171.22 L 688.86,164.03 L 688.54,162.10 L 683.07,161.06 L 675.43,149.77 L 675.14,145.03 L 649.82,121.08 L 650.00,115.69 L 659.48,117.47 Z" fill="#E8E0D0" stroke="#B8B0A0" stroke-width="0.5"/>
<path d="M 799.61,409.69 L 800.00,410.26 L 800.00,420.01 L 792.30,426.88 L 793.42,431.29 L 780.55,435.71 L 765.35,437.14 L 758.58,440.74 L 759.98,442.55 L 755.80,445.29 L 754.08,450.53 L 741.71,449.01 L 730.94,441.45 L 727.77,441.48 L 728.33,437.10 L 714.33,424.70 L 727.18,419.86 L 741.85,404.98 L 751.67,404.19 L 756.89,399.61 L 774.59,396.18 L 787.39,404.99 L 799.61,409.69 Z" fill="#E8E0D0" stroke="#B8B0A0" stroke-width="0.5"/>
<path d="M 529.05,73.31 L 535.24,84.55 L 541.96,86.53 L 557.89,99.44 L 580.66,111.71 L 507.00,121.43 L 498.68,119.25 L 485.57,121.87 L 468.21,117.27 L 447.35,118.20 L 414.82,115.83 L 405.69,111.63 L 398.70,105.17 L 233.55,106.05 L 216.60,98.20 L 215.06,95.29 L 203.49,93.75 L 181.37,101.13 L 169.38,100.88 L 163.68,98.65 L 151.49,101.25 L 153.85,81.47 L 150.66,65.28 L 160.13,59.03 L 162.51,49.04 L 165.79,47.36 L 172.66,28.22 L 172.57,19.34 L 175.77,13.78 L 178.98,13.17 L 179.45,2.00 L 182.20,0.00 L 528.92,0.00 L 529.05,73.31 Z M 150.77,87.37 L 149.42,82.02 L 150.08,82.17 L 150.77,87.37 Z" fill="#C8D8E8" stroke="#8BAABB" stroke-width="0.8"/>
<path d="M 649.82,121.08 L 675.14,145.03 L 675.43,149.77 L 683.07,161.06 L 688.54,162.10 L 688.86,164.03 L 703.69,171.22 L 721.70,175.53 L 724.16,186.01 L 740.03,186.36 L 738.86,200.99 L 750.82,213.50 L 773.91,215.98 L 789.53,219.90 L 789.59,225.71 L 800.00,229.64 L 800.00,230.11 L 789.53,230.99 L 785.53,236.64 L 781.33,237.99 L 762.32,240.88 L 742.08,256.94 L 736.70,256.83 L 734.52,260.58 L 718.96,264.86 L 713.04,269.90 L 708.31,284.13 L 696.94,289.16 L 692.26,293.69 L 672.47,296.69 L 671.25,303.67 L 662.09,319.37 L 657.33,321.76 L 628.04,324.67 L 616.00,322.81 L 610.26,319.54 L 600.71,319.62 L 583.52,310.59 L 567.70,311.04 L 560.83,315.77 L 555.88,329.19 L 549.77,334.67 L 538.81,338.30 L 531.77,345.35 L 521.54,346.92 L 520.87,350.21 L 517.26,351.74 L 489.31,350.10 L 481.30,352.48 L 478.15,342.11 L 486.87,332.69 L 479.35,319.39 L 480.04,315.42 L 469.27,304.11 L 455.11,296.80 L 455.00,225.18 L 492.16,224.22 L 491.80,129.36 L 577.37,121.02 L 589.08,133.48 L 616.43,119.91 L 624.33,122.43 L 638.69,115.54 L 650.00,115.69 L 649.82,121.08 Z" fill="#C8D8E8" stroke="#8BAABB" stroke-width="0.8"/>
<path d="M 469.27,304.11 L 480.04,315.42 L 479.35,319.39 L 486.87,332.69 L 478.15,342.11 L 481.30,352.48 L 489.31,350.10 L 517.26,351.74 L 520.87,350.21 L 521.54,346.92 L 531.77,345.35 L 538.81,338.30 L 549.77,334.67 L 556.20,328.86 L 560.83,315.77 L 567.70,311.04 L 583.52,310.59 L 600.71,319.62 L 610.26,319.54 L 616.00,322.81 L 628.04,324.67 L 657.33,321.76 L 662.09,319.37 L 671.25,303.67 L 672.47,296.69 L 692.26,293.69 L 696.94,289.16 L 708.31,284.13 L 713.04,269.90 L 718.96,264.86 L 734.52,260.58 L 736.70,256.83 L 742.08,256.94 L 762.32,240.88 L 784.87,236.97 L 789.53,230.99 L 800.00,229.83 L 800.00,410.26 L 799.61,409.69 L 787.39,404.99 L 774.59,396.18 L 756.89,399.61 L 751.67,404.19 L 741.85,404.98 L 727.18,419.86 L 714.33,424.70 L 728.33,437.10 L 727.77,441.48 L 730.94,441.45 L 741.71,449.01 L 754.08,450.53 L 755.80,445.29 L 759.98,442.55 L 758.58,440.74 L 765.35,437.14 L 780.55,435.71 L 793.42,431.29 L 792.30,426.88 L 800.00,420.01 L 800.00,479.43 L 771.54,500.00 L 393.18,500.00 L 394.86,492.22 L 392.18,482.65 L 355.45,442.43 L 338.54,409.98 L 325.47,397.47 L 335.45,393.85 L 336.50,388.23 L 341.08,383.48 L 347.86,382.03 L 352.90,387.37 L 357.80,387.25 L 359.79,391.62 L 357.01,393.57 L 360.56,396.77 L 359.94,399.66 L 366.56,399.03 L 368.25,401.22 L 378.75,401.66 L 388.10,404.80 L 409.49,403.19 L 423.32,406.25 L 429.52,404.31 L 428.70,400.66 L 435.68,399.68 L 439.88,395.15 L 455.12,392.32 L 455.11,296.80 L 469.27,304.11 Z" fill="#C8D8E8" stroke="#8BAABB" stroke-width="0.8"/>
<path d="M 785.60,68.05 L 782.82,70.57 L 782.82,79.10 L 779.28,82.85 L 744.41,93.97 L 735.57,104.48 L 718.51,117.98 L 703.18,122.85 L 685.15,118.00 L 674.54,121.02 L 665.57,116.14 L 652.80,116.92 L 641.77,110.15 L 628.76,107.84 L 611.63,107.50 L 580.66,111.71 L 533.64,83.15 L 528.96,72.75 L 528.91,0.00 L 786.90,0.00 L 787.87,1.22 L 794.89,2.28 L 800.00,0.33 L 800.00,63.28 L 785.60,68.05 Z" fill="#C8D8E8" stroke="#8BAABB" stroke-width="0.8"/>
<path d="M 320.92,395.80 L 298.80,381.97 L 282.09,363.69 L 279.63,353.88 L 274.26,347.37 L 277.42,344.69 L 275.09,340.22 L 269.95,338.00 L 270.42,330.80 L 265.30,322.81 L 265.77,304.92 L 251.23,279.78 L 253.24,274.41 L 250.31,262.00 L 252.43,259.24 L 249.41,250.43 L 250.33,248.06 L 251.23,251.07 L 253.81,248.59 L 253.05,239.43 L 212.03,195.21 L 203.91,178.03 L 198.73,174.65 L 177.04,144.60 L 161.60,134.20 L 152.93,119.91 L 150.00,109.24 L 151.39,101.97 L 163.68,98.65 L 169.38,100.88 L 181.37,101.13 L 203.49,93.75 L 215.06,95.29 L 216.60,98.20 L 233.55,106.05 L 398.70,105.17 L 405.69,111.63 L 414.82,115.83 L 447.35,118.20 L 468.21,117.27 L 485.57,121.87 L 498.68,119.25 L 507.00,121.43 L 611.63,107.50 L 641.77,110.15 L 650.00,115.69 L 638.69,115.54 L 624.33,122.43 L 616.43,119.91 L 589.08,133.48 L 577.37,121.02 L 491.80,129.36 L 492.16,224.22 L 455.00,225.18 L 455.12,392.32 L 439.88,395.15 L 435.68,399.68 L 428.70,400.66 L 429.52,404.31 L 423.32,406.25 L 409.49,403.19 L 388.10,404.80 L 378.75,401.66 L 368.25,401.22 L 366.56,399.03 L 359.94,399.66 L 360.56,396.77 L 357.01,393.57 L 359.79,391.62 L 357.80,387.25 L 352.90,387.37 L 347.86,382.03 L 341.08,383.48 L 336.50,388.23 L 335.45,393.85 L 320.92,395.80 Z" fill="#4A90D9" stroke="#1a5fa8" stroke-width="1.2"/>
<path d="M 629.91,207.89 L 628.75,207.44 L 633.03,205.35 L 629.91,207.89 Z" fill="#A8C8E8" stroke="none"/>
<path d="M 780.01,90.18 L 776.23,86.61 L 767.49,90.18 L 768.64,92.30 L 765.19,88.48 L 755.48,91.02 L 753.02,94.68 L 755.74,94.44 L 754.99,95.88 L 752.95,97.13 L 749.63,95.61 L 745.61,99.28 L 739.87,100.25 L 735.50,107.47 L 727.20,110.66 L 715.20,120.63 L 719.18,116.76 L 717.52,115.33 L 727.95,108.71 L 725.86,106.48 L 729.67,102.23 L 737.75,96.04 L 740.55,96.57 L 738.53,95.69 L 741.05,92.83 L 746.37,92.21 L 742.94,91.02 L 743.58,89.94 L 748.21,88.89 L 750.43,91.07 L 753.78,90.63 L 754.21,88.37 L 758.59,86.93 L 757.27,85.55 L 763.32,84.46 L 762.01,82.95 L 765.85,84.64 L 775.60,81.44 L 787.16,84.56 L 780.01,90.18 Z" fill="#A8C8E8" stroke="none"/>
<path d="M 679.18,374.47 L 670.78,370.85 L 666.41,372.34 L 671.98,376.26 L 669.62,377.39 L 663.23,373.88 L 669.72,369.92 L 678.55,372.88 L 680.78,371.10 L 679.18,374.47 Z" fill="#A8C8E8" stroke="none"/>
<path d="M 767.01,355.33 L 759.01,353.07 L 760.84,354.73 L 758.75,355.56 L 763.66,355.21 L 766.30,357.64 L 765.09,360.20 L 763.06,356.56 L 762.29,358.06 L 757.38,356.91 L 757.57,352.71 L 754.61,353.05 L 756.50,350.41 L 769.84,354.60 L 767.01,355.33 Z" fill="#A8C8E8" stroke="none"/>
<path d="M 636.16,439.38 L 630.25,432.79 L 634.16,433.61 L 639.23,439.15 L 636.16,439.38 Z" fill="#A8C8E8" stroke="none"/>
<path d="M 669.37,452.13 L 662.89,452.15 L 664.77,451.18 L 659.10,449.38 L 664.57,447.94 L 663.58,449.40 L 668.24,450.57 L 669.23,448.32 L 670.22,449.74 L 675.34,447.66 L 669.37,452.13 Z" fill="#A8C8E8" stroke="none"/>
</svg>