<svg xmlns="http://www.w3.org/2000/svg" width="800" height="500" viewBox="0 0 800 500">
<rect width="800" height="500" fill="#A8C8E8"/>
<path d="M 554.68,187.86 L 546.02,185.75 L 547.16,181.23 L 552.65,181.02 L 554.68,187.86 Z M 530.73,138.44 L 526.48,147.45 L 512.39,135.85 L 514.00,125.56 L 520.03,123.66 L 530.73,138.44 Z M 516.05,101.77 L 497.42,93.25 L 498.37,82.19 L 511.34,82.19 L 520.03,97.30 L 516.05,101.77 Z" fill="#E8E0D0" stroke="#B8B0A0" stroke-width="0.5"/>
<path d="M 171.06,175.83 L 171.23,171.40 L 172.36,171.80 L 171.06,175.83 Z M 404.69,354.40 L 395.85,354.88 L 396.73,347.73 L 404.69,354.40 Z M 358.60,339.55 L 355.90,342.23 L 353.90,341.37 L 358.60,339.55 Z M 441.70,283.86 L 433.03,286.13 L 424.50,282.36 L 421.09,267.32 L 432.70,263.96 L 433.98,272.10 L 442.39,270.64 L 441.70,283.86 Z M 333.68,221.22 L 329.30,221.69 L 330.30,221.20 L 333.68,221.22 Z M 394.04,253.06 L 376.52,244.27 L 370.09,234.53 L 381.10,227.47 L 371.62,224.57 L 372.55,220.95 L 388.25,220.74 L 386.97,233.33 L 396.73,242.59 L 394.04,253.06 Z M 341.50,209.39 L 344.76,212.64 L 335.97,220.74 L 343.08,203.08 L 340.49,199.15 L 345.25,200.75 L 341.50,209.39 Z M 363.28,337.55 L 358.40,330.77 L 354.34,337.30 L 339.31,326.58 L 332.26,331.47 L 331.95,322.04 L 326.26,325.87 L 325.23,320.15 L 311.04,316.36 L 314.56,311.79 L 307.95,302.53 L 304.19,307.58 L 291.74,300.27 L 286.69,290.63 L 283.12,293.52 L 258.07,280.70 L 238.30,261.63 L 236.09,265.22 L 225.71,245.13 L 220.57,246.90 L 217.00,236.91 L 198.80,224.98 L 200.67,221.60 L 182.48,199.76 L 185.27,194.30 L 174.15,189.59 L 178.14,187.05 L 173.97,177.01 L 194.99,193.40 L 194.33,187.56 L 206.58,192.08 L 235.87,218.71 L 253.32,224.31 L 279.58,259.27 L 327.97,286.41 L 348.35,308.73 L 364.78,315.63 L 370.97,326.57 L 363.28,337.55 Z M 185.44,179.80 L 185.09,175.54 L 185.53,175.54 L 189.03,180.80 L 185.44,179.80 Z M 153.10,156.50 L 150.00,145.12 L 151.80,146.69 L 153.10,156.50 Z M 650.00,334.13 L 649.88,334.33 L 649.69,334.22 L 650.00,334.13 Z" fill="#4A90D9" stroke="#1a5fa8" stroke-width="1.2"/>
</svg>