<svg xmlns="http://www.w3.org/2000/svg" width="800" height="500" viewBox="0 0 800 500">
<rect width="800" height="500" fill="#A8C8E8"/>
<path d="M 554.68,157.43 L 546.02,154.27 L 547.16,147.54 L 552.65,147.23 L 554.68,157.43 Z M 530.73,83.80 L 526.48,97.23 L 512.39,79.94 L 514.00,64.61 L 520.03,61.78 L 530.73,83.80 Z M 516.05,29.17 L 497.42,16.48 L 498.37,0.00 L 511.34,0.00 L 520.03,22.50 L 516.05,29.17 Z" fill="#E8E0D0" stroke="#B8B0A0" stroke-width="0.5"/>
<path d="M 171.06,139.49 L 171.23,132.90 L 172.36,133.50 L 171.06,139.49 Z M 404.69,405.54 L 395.85,406.25 L 396.73,395.59 L 404.69,405.54 Z M 358.60,383.41 L 355.90,387.41 L 353.90,386.12 L 358.60,383.41 Z M 441.70,300.44 L 433.03,303.83 L 424.50,298.21 L 421.09,275.80 L 432.70,270.80 L 433.98,282.93 L 442.39,280.75 L 441.70,300.44 Z M 333.68,207.12 L 329.30,207.83 L 330.30,207.10 L 333.68,207.12 Z M 394.04,254.57 L 376.52,241.46 L 370.09,226.96 L 381.10,216.44 L 371.62,212.12 L 372.55,206.72 L 388.25,206.41 L 386.97,225.16 L 396.73,238.96 L 394.04,254.57 Z M 341.50,189.51 L 344.76,194.35 L 335.97,206.41 L 343.08,180.10 L 340.49,174.24 L 345.25,176.63 L 341.50,189.51 Z M 363.28,380.43 L 358.40,370.33 L 354.34,380.06 L 339.31,364.08 L 332.26,371.37 L 331.95,357.33 L 326.26,363.04 L 325.23,354.50 L 311.04,348.87 L 314.56,342.06 L 307.95,328.26 L 304.19,335.79 L 291.74,324.89 L 286.69,310.54 L 283.12,314.84 L 258.07,295.74 L 238.30,267.33 L 236.09,272.68 L 225.71,242.75 L 220.57,245.38 L 217.00,230.49 L 198.80,212.72 L 200.67,207.69 L 182.48,175.16 L 185.27,167.02 L 174.15,160.00 L 178.14,156.21 L 173.97,141.26 L 194.99,165.67 L 194.33,156.98 L 206.58,163.72 L 235.87,203.38 L 253.32,211.73 L 279.58,263.81 L 327.97,304.24 L 348.35,337.50 L 364.78,347.77 L 370.97,364.07 L 363.28,380.43 Z M 185.44,145.42 L 185.09,139.07 L 185.53,139.07 L 189.03,146.90 L 185.44,145.42 Z M 153.10,110.71 L 150.00,93.75 L 151.80,96.08 L 153.10,110.71 Z M 650.00,375.33 L 649.88,375.63 L 649.69,375.47 L 650.00,375.33 Z" fill="#4A90D9" stroke="#1a5fa8" stroke-width="1.2"/>
</svg>