<svg xmlns="http://www.w3.org/2000/svg" width="800" height="500" viewBox="0 0 800 500">
<rect width="800" height="500" fill="#A8C8E8"/>
<path d="M 678.74,486.10 L 672.33,481.49 L 676.16,477.90 L 711.77,473.86 L 714.46,469.01 L 717.63,469.53 L 718.83,468.60 L 718.83,500.00 L 667.44,500.00 L 678.74,486.10 Z" fill="#E8E0D0" stroke="#B8B0A0" stroke-width="0.5"/>
<path d="M 83.24,457.82 L 83.45,460.20 L 86.74,462.10 L 92.30,455.88 L 102.26,452.77 L 113.29,453.69 L 113.68,455.28 L 115.88,453.31 L 126.06,466.64 L 129.12,464.59 L 129.82,470.80 L 126.96,476.06 L 130.88,479.53 L 133.73,498.41 L 131.10,499.59 L 131.10,500.00 L 81.17,500.00 L 81.17,458.62 L 83.24,457.82 Z" fill="#E8E0D0" stroke="#B8B0A0" stroke-width="0.5"/>
<path d="M 504.95,493.73 L 509.41,490.82 L 508.53,487.83 L 513.29,487.94 L 519.25,483.10 L 521.87,470.57 L 520.79,467.52 L 529.35,463.18 L 530.23,449.88 L 535.39,447.02 L 538.00,434.65 L 543.45,424.20 L 549.18,417.34 L 553.79,418.34 L 565.15,410.40 L 563.28,405.88 L 566.46,393.50 L 561.90,389.28 L 554.39,388.42 L 551.26,369.71 L 560.16,369.63 L 563.60,377.94 L 570.27,381.32 L 572.25,394.17 L 576.07,395.97 L 578.24,410.61 L 575.36,419.82 L 578.30,437.29 L 591.99,451.31 L 569.09,453.15 L 554.20,451.65 L 548.26,460.26 L 558.43,473.06 L 576.13,486.93 L 582.15,500.00 L 504.46,500.00 L 504.95,493.73 Z" fill="#E8E0D0" stroke="#B8B0A0" stroke-width="0.5"/>
<path d="M 209.14,424.56 L 209.16,426.41 L 219.59,424.83 L 216.04,440.98 L 230.74,452.07 L 230.30,463.71 L 237.08,475.48 L 238.30,490.90 L 238.20,500.00 L 211.44,500.00 L 211.33,498.56 L 214.83,496.07 L 206.09,483.48 L 209.62,481.05 L 207.74,476.78 L 210.26,466.91 L 207.25,464.50 L 202.59,466.08 L 204.48,464.10 L 202.68,462.29 L 206.39,461.93 L 203.45,460.14 L 205.62,459.98 L 206.87,443.59 L 194.66,434.33 L 197.28,422.99 L 192.69,421.07 L 209.14,424.56 Z" fill="#E8E0D0" stroke="#B8B0A0" stroke-width="0.5"/>
<path d="M 197.28,422.99 L 194.66,434.33 L 206.87,443.59 L 205.62,459.98 L 203.45,460.14 L 206.39,461.93 L 202.68,462.29 L 204.48,464.10 L 202.59,466.08 L 207.25,464.50 L 210.26,466.91 L 207.74,476.78 L 209.62,481.05 L 206.09,483.48 L 214.83,496.07 L 211.33,498.56 L 211.44,500.00 L 131.10,500.00 L 131.10,499.59 L 133.73,498.41 L 130.88,479.53 L 126.96,476.06 L 129.86,470.30 L 126.44,458.48 L 127.99,455.76 L 127.46,444.18 L 125.29,442.00 L 127.14,439.94 L 122.99,434.31 L 125.39,424.70 L 176.02,424.49 L 180.88,427.08 L 189.27,420.34 L 197.28,422.99 Z" fill="#E8E0D0" stroke="#B8B0A0" stroke-width="0.5"/>
<path d="M 446.49,5.45 L 446.23,10.87 L 444.70,14.79 L 435.80,18.80 L 433.16,23.66 L 449.04,45.80 L 449.65,58.35 L 453.71,61.17 L 454.94,65.26 L 459.18,68.48 L 466.45,66.29 L 487.68,73.13 L 498.45,93.75 L 385.41,163.66 L 342.87,201.27 L 280.86,213.81 L 275.09,209.58 L 279.04,202.90 L 277.47,191.47 L 257.36,185.24 L 252.33,179.49 L 249.06,181.09 L 241.68,178.69 L 236.18,170.94 L 225.97,167.20 L 225.76,157.61 L 81.17,58.64 L 81.17,0.00 L 444.27,0.00 L 446.49,5.45 Z" fill="#C8D8E8" stroke="#8BAABB" stroke-width="0.8"/>
<path d="M 284.27,413.55 L 290.66,421.67 L 290.86,429.73 L 293.57,435.22 L 291.93,440.30 L 288.90,439.56 L 286.89,443.52 L 289.28,447.20 L 287.32,452.43 L 285.39,455.13 L 280.68,456.32 L 280.82,460.28 L 275.80,465.42 L 274.38,475.00 L 266.65,476.00 L 264.71,500.00 L 237.49,500.00 L 237.22,476.20 L 230.30,463.71 L 230.41,451.17 L 216.25,441.37 L 216.56,432.76 L 219.59,424.83 L 221.15,425.33 L 221.60,422.52 L 224.95,423.91 L 223.64,420.89 L 226.06,420.26 L 225.49,417.77 L 230.40,417.01 L 233.15,412.12 L 237.23,414.37 L 246.85,413.70 L 254.16,407.41 L 256.87,399.59 L 258.78,398.76 L 256.37,392.42 L 259.74,390.72 L 268.54,387.65 L 287.49,406.25 L 284.27,413.55 Z" fill="#C8D8E8" stroke="#8BAABB" stroke-width="0.8"/>
<path d="M 254.51,407.06 L 247.54,413.36 L 237.23,414.37 L 233.15,412.12 L 230.40,417.01 L 226.01,417.09 L 226.06,420.26 L 223.64,420.89 L 225.03,423.79 L 221.60,422.52 L 221.15,425.33 L 209.16,426.41 L 209.14,424.56 L 189.27,420.34 L 180.88,427.08 L 176.02,424.49 L 125.39,424.70 L 122.99,434.31 L 127.14,439.94 L 125.29,442.00 L 127.46,444.18 L 127.99,455.76 L 126.44,458.48 L 129.12,464.59 L 127.24,467.15 L 115.88,453.31 L 113.68,455.28 L 113.29,453.69 L 102.26,452.77 L 92.30,455.88 L 86.74,462.10 L 83.45,460.20 L 83.24,457.82 L 81.17,458.62 L 81.17,394.85 L 81.97,394.26 L 83.79,389.73 L 85.86,390.08 L 84.71,386.70 L 86.33,384.09 L 83.86,379.32 L 89.60,379.15 L 90.75,376.55 L 87.85,367.32 L 90.17,367.13 L 96.65,358.56 L 98.16,359.85 L 96.81,361.55 L 109.96,367.31 L 109.98,364.75 L 115.02,364.03 L 114.06,353.33 L 119.59,355.73 L 123.93,354.55 L 124.63,345.32 L 131.43,339.46 L 134.85,337.91 L 142.66,341.21 L 145.58,340.55 L 146.56,332.90 L 154.12,332.22 L 169.70,324.29 L 178.74,316.83 L 185.09,316.79 L 186.15,318.83 L 190.91,317.17 L 202.38,321.26 L 200.88,332.22 L 206.67,338.69 L 206.18,344.31 L 211.85,353.56 L 219.48,355.52 L 222.46,359.46 L 228.84,362.63 L 221.66,362.03 L 221.66,370.92 L 236.28,381.50 L 243.33,382.19 L 246.56,379.06 L 250.02,379.55 L 253.44,387.00 L 248.57,389.17 L 257.10,400.94 L 254.51,407.06 Z" fill="#C8D8E8" stroke="#8BAABB" stroke-width="0.8"/>
<path d="M 539.73,353.16 L 535.75,333.73 L 541.00,330.83 L 545.44,318.39 L 558.92,299.09 L 586.55,268.82 L 593.37,189.28 L 599.27,177.84 L 589.19,166.85 L 588.54,163.20 L 590.17,161.60 L 579.47,147.31 L 579.16,134.04 L 574.32,107.54 L 599.64,95.67 L 718.83,157.42 L 718.83,468.60 L 717.63,469.53 L 714.46,469.01 L 711.77,473.86 L 676.16,477.90 L 672.33,481.49 L 678.74,486.10 L 667.44,500.00 L 582.79,500.00 L 579.45,491.28 L 558.43,473.06 L 548.31,460.65 L 554.20,451.65 L 569.09,453.15 L 591.99,451.31 L 578.14,436.78 L 575.36,419.82 L 578.24,410.61 L 576.50,406.65 L 577.62,403.95 L 576.07,395.97 L 572.25,394.17 L 570.56,381.86 L 563.60,377.94 L 560.16,369.63 L 551.26,369.71 L 539.73,353.16 Z" fill="#C8D8E8" stroke="#8BAABB" stroke-width="0.8"/>
<path d="M 599.64,95.67 L 555.07,117.57 L 536.58,102.68 L 498.45,93.75 L 486.85,72.70 L 467.00,66.39 L 459.18,68.48 L 455.40,65.75 L 453.71,61.17 L 449.65,58.35 L 449.04,45.80 L 433.16,23.66 L 435.80,18.80 L 445.18,14.26 L 446.59,5.83 L 444.33,0.00 L 718.83,0.00 L 718.83,157.42 L 599.64,95.67 Z" fill="#C8D8E8" stroke="#8BAABB" stroke-width="0.8"/>
<path d="M 225.76,157.61 L 225.97,167.20 L 236.18,170.94 L 241.68,178.69 L 249.06,181.09 L 252.33,179.49 L 257.36,185.24 L 277.47,191.47 L 279.04,202.90 L 275.09,209.58 L 279.64,213.28 L 303.42,209.40 L 302.30,281.47 L 299.19,284.58 L 294.42,300.01 L 285.73,305.79 L 285.24,309.55 L 273.31,307.63 L 272.47,309.94 L 230.43,311.41 L 221.41,319.13 L 213.76,320.50 L 202.45,319.01 L 202.38,321.26 L 190.91,317.17 L 186.15,318.83 L 185.09,316.79 L 178.74,316.83 L 169.70,324.29 L 154.12,332.22 L 146.56,332.90 L 145.58,340.55 L 142.66,341.21 L 134.85,337.91 L 131.43,339.46 L 124.63,345.32 L 123.93,354.55 L 119.59,355.73 L 114.06,353.33 L 115.02,364.03 L 109.98,364.75 L 109.96,367.31 L 96.81,361.55 L 98.16,359.85 L 96.56,358.58 L 87.24,368.65 L 90.75,376.55 L 89.60,379.15 L 83.86,379.32 L 86.33,384.09 L 84.71,386.70 L 85.86,390.08 L 83.79,389.73 L 81.97,394.26 L 81.17,394.85 L 81.17,58.64 L 225.76,157.61 Z" fill="#C8D8E8" stroke="#8BAABB" stroke-width="0.8"/>
<path d="M 289.27,404.56 L 287.68,400.70 L 288.63,384.51 L 295.87,378.37 L 299.90,371.87 L 300.83,359.27 L 310.43,353.41 L 319.25,351.31 L 328.59,352.18 L 336.00,348.50 L 351.64,354.83 L 357.35,355.22 L 371.67,371.89 L 374.98,371.88 L 378.24,368.67 L 383.13,368.80 L 394.01,362.65 L 401.10,363.85 L 415.56,373.79 L 438.52,377.02 L 451.86,365.16 L 465.85,361.86 L 485.12,362.14 L 500.69,368.69 L 511.14,370.08 L 513.37,365.36 L 519.52,361.91 L 520.46,358.84 L 530.18,357.29 L 532.74,353.02 L 539.73,353.16 L 551.26,369.71 L 554.39,388.42 L 561.90,389.28 L 566.51,393.78 L 563.28,405.88 L 565.28,407.99 L 564.89,411.04 L 553.79,418.34 L 549.18,417.34 L 543.45,424.20 L 538.00,434.65 L 535.39,447.02 L 530.23,449.88 L 529.35,463.18 L 520.79,467.52 L 521.87,470.57 L 518.71,483.88 L 513.29,487.94 L 508.53,487.83 L 509.41,490.82 L 504.95,493.73 L 504.46,500.00 L 264.71,500.00 L 266.65,476.00 L 274.38,475.00 L 275.80,465.42 L 280.82,460.28 L 280.68,456.32 L 285.39,455.13 L 287.32,452.43 L 289.28,447.20 L 286.89,443.52 L 288.90,439.56 L 291.93,440.30 L 293.57,435.22 L 290.86,429.73 L 290.66,421.67 L 284.27,413.55 L 289.27,404.56 Z" fill="#C8D8E8" stroke="#8BAABB" stroke-width="0.8"/>
<path d="M 268.54,387.65 L 256.59,391.96 L 258.79,398.31 L 257.10,400.94 L 248.57,389.17 L 253.44,387.00 L 250.02,379.55 L 246.56,379.06 L 243.33,382.19 L 236.28,381.50 L 221.66,370.92 L 221.66,362.03 L 228.84,362.63 L 222.46,359.46 L 219.48,355.52 L 211.85,353.56 L 206.18,344.31 L 206.67,338.69 L 200.73,330.89 L 202.45,319.01 L 220.80,319.44 L 230.43,311.41 L 272.47,309.94 L 273.31,307.63 L 285.24,309.55 L 285.73,305.79 L 293.78,300.79 L 299.19,284.58 L 302.30,281.47 L 303.42,209.40 L 342.87,201.27 L 385.41,163.66 L 498.45,93.75 L 536.58,102.68 L 555.07,117.57 L 574.32,107.54 L 579.16,134.04 L 579.47,147.31 L 590.17,161.60 L 588.54,163.20 L 589.19,166.85 L 599.27,177.84 L 593.37,189.28 L 586.71,268.24 L 558.92,299.09 L 545.44,318.39 L 541.00,330.83 L 535.75,333.73 L 539.73,353.16 L 532.74,353.02 L 530.18,357.29 L 520.46,358.84 L 519.52,361.91 L 513.37,365.36 L 511.14,370.08 L 500.69,368.69 L 485.12,362.14 L 465.85,361.86 L 451.86,365.16 L 438.52,377.02 L 415.56,373.79 L 401.10,363.85 L 394.01,362.65 L 383.13,368.80 L 378.24,368.67 L 374.98,371.88 L 371.67,371.89 L 355.67,354.22 L 351.64,354.83 L 336.00,348.50 L 328.59,352.18 L 318.44,351.40 L 309.06,353.96 L 300.83,359.27 L 299.90,371.87 L 295.87,378.37 L 288.63,384.51 L 287.68,400.70 L 289.27,404.56 L 287.49,406.25 L 268.54,387.65 Z" fill="#4A90D9" stroke="#1a5fa8" stroke-width="1.2"/>
<path d="M 566.79,372.36 L 556.40,374.73 L 556.65,368.18 L 559.22,370.09 L 557.19,367.21 L 563.15,365.07 L 566.44,366.34 L 568.11,369.64 L 566.79,372.36 Z" fill="#A8C8E8" stroke="none"/>
<path d="M 90.49,313.02 L 91.72,310.24 L 89.27,309.57 L 88.43,305.50 L 96.21,310.46 L 90.49,313.02 Z" fill="#A8C8E8" stroke="none"/>
<path d="M 313.63,445.62 L 311.34,447.26 L 313.34,447.97 L 313.87,453.70 L 312.05,455.23 L 311.18,449.23 L 309.44,449.97 L 310.14,448.16 L 308.58,447.97 L 310.83,447.26 L 308.93,445.79 L 310.39,445.66 L 309.80,442.99 L 306.00,440.91 L 309.28,440.55 L 309.44,433.48 L 312.46,436.05 L 314.16,434.86 L 313.63,445.62 Z" fill="#A8C8E8" stroke="none"/>
<path d="M 182.90,499.42 L 182.34,500.00 L 180.40,500.00 L 182.03,499.06 L 175.50,495.49 L 177.72,495.08 L 170.96,486.13 L 167.98,486.66 L 167.70,489.82 L 166.82,486.21 L 164.58,486.43 L 162.07,484.02 L 157.67,486.73 L 153.72,487.28 L 162.16,483.47 L 162.16,481.65 L 165.45,485.83 L 171.33,485.64 L 171.04,483.47 L 167.13,482.69 L 169.23,482.57 L 167.11,479.43 L 167.86,474.43 L 169.23,476.96 L 168.06,479.69 L 170.54,482.38 L 171.16,480.75 L 175.13,489.35 L 177.01,487.70 L 175.65,485.92 L 176.83,483.47 L 176.16,485.83 L 178.41,487.82 L 179.10,486.37 L 179.26,487.82 L 176.11,491.10 L 183.25,496.51 L 184.09,499.24 L 191.35,497.43 L 192.24,499.30 L 188.58,498.68 L 188.44,500.00 L 183.15,500.00 L 182.90,499.42 Z M 198.99,497.71 L 202.64,494.55 L 199.12,493.88 L 198.70,489.54 L 199.81,488.02 L 201.03,488.37 L 200.32,486.21 L 202.41,484.19 L 200.18,491.75 L 199.29,492.09 L 204.47,494.87 L 201.70,495.42 L 200.50,498.32 L 202.77,500.00 L 200.60,500.00 L 198.99,497.71 Z" fill="#A8C8E8" stroke="none"/>
</svg>