<svg xmlns="http://www.w3.org/2000/svg" width="800" height="500" viewBox="0 0 800 500">
<rect width="800" height="500" fill="#A8C8E8"/>
<path d="M 749.69,486.10 L 741.65,481.49 L 746.46,477.90 L 791.14,473.86 L 794.51,469.01 L 798.49,469.53 L 800.00,468.60 L 800.00,500.00 L 735.52,500.00 L 749.69,486.10 Z" fill="#E8E0D0" stroke="#B8B0A0" stroke-width="0.5"/>
<path d="M 2.60,457.82 L 2.86,460.20 L 6.99,462.10 L 13.97,455.88 L 26.47,452.77 L 40.31,453.69 L 40.80,455.28 L 43.54,453.31 L 56.33,466.64 L 60.16,464.59 L 61.04,470.80 L 57.45,476.06 L 62.36,479.53 L 65.94,498.41 L 62.64,499.59 L 62.64,500.00 L 0.00,500.00 L 0.00,458.62 L 2.60,457.82 Z" fill="#E8E0D0" stroke="#B8B0A0" stroke-width="0.5"/>
<path d="M 531.67,493.73 L 537.26,490.82 L 536.15,487.83 L 542.13,487.94 L 549.61,483.10 L 552.89,470.57 L 551.54,467.52 L 562.28,463.18 L 563.38,449.88 L 569.85,447.02 L 573.14,434.65 L 579.97,424.20 L 587.16,417.34 L 592.95,418.34 L 607.19,410.40 L 604.85,405.88 L 608.84,393.50 L 603.11,389.28 L 593.69,388.42 L 589.77,369.71 L 600.94,369.63 L 605.25,377.94 L 613.61,381.32 L 616.10,394.17 L 620.89,395.97 L 623.62,410.61 L 620.00,419.82 L 623.70,437.29 L 640.86,451.31 L 612.14,453.15 L 593.46,451.65 L 586.01,460.26 L 598.77,473.06 L 620.97,486.93 L 628.52,500.00 L 531.06,500.00 L 531.67,493.73 Z" fill="#E8E0D0" stroke="#B8B0A0" stroke-width="0.5"/>
<path d="M 160.55,424.56 L 160.58,426.41 L 173.66,424.83 L 169.21,440.98 L 187.64,452.07 L 187.09,463.71 L 195.61,475.48 L 197.14,490.90 L 197.00,500.00 L 163.44,500.00 L 163.31,498.56 L 167.70,496.07 L 156.73,483.48 L 161.15,481.05 L 158.80,476.78 L 161.96,466.91 L 158.18,464.50 L 152.34,466.08 L 154.71,464.10 L 152.44,462.29 L 157.11,461.93 L 153.41,460.14 L 156.14,459.98 L 157.70,443.59 L 142.38,434.33 L 145.68,422.99 L 139.91,421.07 L 160.55,424.56 Z" fill="#E8E0D0" stroke="#B8B0A0" stroke-width="0.5"/>
<path d="M 145.68,422.99 L 142.38,434.33 L 157.70,443.59 L 156.14,459.98 L 153.41,460.14 L 157.11,461.93 L 152.44,462.29 L 154.71,464.10 L 152.34,466.08 L 158.18,464.50 L 161.96,466.91 L 158.80,476.78 L 161.15,481.05 L 156.73,483.48 L 167.70,496.07 L 163.31,498.56 L 163.44,500.00 L 62.64,500.00 L 62.64,499.59 L 65.94,498.41 L 62.36,479.53 L 57.45,476.06 L 61.09,470.30 L 56.80,458.48 L 58.74,455.76 L 58.08,444.18 L 55.35,442.00 L 57.68,439.94 L 52.47,434.31 L 55.47,424.70 L 119.00,424.49 L 125.10,427.08 L 135.63,420.34 L 145.68,422.99 Z" fill="#E8E0D0" stroke="#B8B0A0" stroke-width="0.5"/>
<path d="M 458.32,5.45 L 458.00,10.87 L 456.08,14.79 L 444.92,18.80 L 441.61,23.66 L 461.52,45.80 L 462.29,58.35 L 467.39,61.17 L 468.93,65.26 L 474.25,68.48 L 483.37,66.29 L 510.00,73.13 L 523.51,93.75 L 381.70,163.66 L 328.33,201.27 L 250.53,213.81 L 243.29,209.58 L 248.24,202.90 L 246.28,191.47 L 221.04,185.24 L 214.74,179.49 L 210.64,181.09 L 201.37,178.69 L 194.47,170.94 L 181.66,167.20 L 181.41,157.61 L 0.00,58.64 L 0.00,0.00 L 455.54,0.00 L 458.32,5.45 Z" fill="#C8D8E8" stroke="#8BAABB" stroke-width="0.8"/>
<path d="M 254.81,413.55 L 262.82,421.67 L 263.07,429.73 L 266.47,435.22 L 264.42,440.30 L 260.61,439.56 L 258.09,443.52 L 261.10,447.20 L 258.63,452.43 L 256.22,455.13 L 250.30,456.32 L 250.48,460.28 L 244.19,465.42 L 242.40,475.00 L 232.70,476.00 L 230.27,500.00 L 196.12,500.00 L 195.78,476.20 L 187.09,463.71 L 187.24,451.17 L 169.47,441.37 L 169.86,432.76 L 173.66,424.83 L 175.62,425.33 L 176.19,422.52 L 180.39,423.91 L 178.75,420.89 L 181.78,420.26 L 181.06,417.77 L 187.22,417.01 L 190.67,412.12 L 195.79,414.37 L 207.86,413.70 L 217.04,407.41 L 220.43,399.59 L 222.82,398.76 L 219.81,392.42 L 224.04,390.72 L 235.08,387.65 L 258.85,406.25 L 254.81,413.55 Z" fill="#C8D8E8" stroke="#8BAABB" stroke-width="0.8"/>
<path d="M 217.47,407.06 L 208.73,413.36 L 195.79,414.37 L 190.67,412.12 L 187.22,417.01 L 181.72,417.09 L 181.78,420.26 L 178.75,420.89 L 180.49,423.79 L 176.19,422.52 L 175.62,425.33 L 160.58,426.41 L 160.55,424.56 L 135.63,420.34 L 125.10,427.08 L 119.00,424.49 L 55.47,424.70 L 52.47,434.31 L 57.68,439.94 L 55.35,442.00 L 58.08,444.18 L 58.74,455.76 L 56.80,458.48 L 60.16,464.59 L 57.80,467.15 L 43.54,453.31 L 40.80,455.28 L 40.31,453.69 L 26.47,452.77 L 13.97,455.88 L 6.99,462.10 L 2.86,460.20 L 2.60,457.82 L 0.00,458.62 L 0.00,394.85 L 1.01,394.26 L 3.29,389.73 L 5.88,390.08 L 4.45,386.70 L 6.48,384.09 L 3.38,379.32 L 10.58,379.15 L 12.02,376.55 L 8.38,367.32 L 11.30,367.13 L 19.43,358.56 L 21.32,359.85 L 19.62,361.55 L 36.12,367.31 L 36.15,364.75 L 42.47,364.03 L 41.26,353.33 L 48.20,355.73 L 53.64,354.55 L 54.53,345.32 L 63.06,339.46 L 67.35,337.91 L 77.14,341.21 L 80.81,340.55 L 82.04,332.90 L 91.52,332.22 L 111.07,324.29 L 122.41,316.83 L 130.37,316.79 L 131.71,318.83 L 137.68,317.17 L 152.07,321.26 L 150.19,332.22 L 157.46,338.69 L 156.83,344.31 L 163.95,353.56 L 173.52,355.52 L 177.26,359.46 L 185.27,362.63 L 176.26,362.03 L 176.26,370.92 L 194.60,381.50 L 203.45,382.19 L 207.49,379.06 L 211.83,379.55 L 216.13,387.00 L 210.02,389.17 L 220.72,400.94 L 217.47,407.06 Z" fill="#C8D8E8" stroke="#8BAABB" stroke-width="0.8"/>
<path d="M 575.30,353.16 L 570.31,333.73 L 576.90,330.83 L 582.47,318.39 L 599.38,299.09 L 634.04,268.82 L 642.59,189.28 L 650.00,177.84 L 637.35,166.85 L 636.53,163.20 L 638.59,161.60 L 625.16,147.31 L 624.77,134.04 L 618.69,107.54 L 650.47,95.67 L 800.00,157.42 L 800.00,468.60 L 798.49,469.53 L 794.51,469.01 L 791.14,473.86 L 746.46,477.90 L 741.65,481.49 L 749.69,486.10 L 735.52,500.00 L 629.32,500.00 L 625.13,491.28 L 598.77,473.06 L 586.06,460.65 L 593.46,451.65 L 612.14,453.15 L 640.86,451.31 L 623.49,436.78 L 620.00,419.82 L 623.62,410.61 L 621.43,406.65 L 622.83,403.95 L 620.89,395.97 L 616.10,394.17 L 613.98,381.86 L 605.25,377.94 L 600.94,369.63 L 589.77,369.71 L 575.30,353.16 Z" fill="#C8D8E8" stroke="#8BAABB" stroke-width="0.8"/>
<path d="M 650.47,95.67 L 594.55,117.57 L 571.35,102.68 L 523.51,93.75 L 508.96,72.70 L 484.05,66.39 L 474.25,68.48 L 469.50,65.75 L 467.39,61.17 L 462.29,58.35 L 461.52,45.80 L 441.61,23.66 L 444.92,18.80 L 456.68,14.26 L 458.45,5.83 L 455.62,0.00 L 800.00,0.00 L 800.00,157.42 L 650.47,95.67 Z" fill="#C8D8E8" stroke="#8BAABB" stroke-width="0.8"/>
<path d="M 181.41,157.61 L 181.66,167.20 L 194.47,170.94 L 201.37,178.69 L 210.64,181.09 L 214.74,179.49 L 221.04,185.24 L 246.28,191.47 L 248.24,202.90 L 243.29,209.58 L 249.00,213.28 L 278.84,209.40 L 277.42,281.47 L 273.52,284.58 L 267.54,300.01 L 256.64,305.79 L 256.03,309.55 L 241.06,307.63 L 240.00,309.94 L 187.26,311.41 L 175.95,319.13 L 166.35,320.50 L 152.16,319.01 L 152.07,321.26 L 137.68,317.17 L 131.71,318.83 L 130.37,316.79 L 122.41,316.83 L 111.07,324.29 L 91.52,332.22 L 82.04,332.90 L 80.81,340.55 L 77.14,341.21 L 67.35,337.91 L 63.06,339.46 L 54.53,345.32 L 53.64,354.55 L 48.20,355.73 L 41.26,353.33 L 42.47,364.03 L 36.15,364.75 L 36.12,367.31 L 19.62,361.55 L 21.32,359.85 L 19.31,358.58 L 7.62,368.65 L 12.02,376.55 L 10.58,379.15 L 3.38,379.32 L 6.48,384.09 L 4.45,386.70 L 5.88,390.08 L 3.29,389.73 L 1.01,394.26 L 0.00,394.85 L 0.00,58.64 L 181.41,157.61 Z" fill="#C8D8E8" stroke="#8BAABB" stroke-width="0.8"/>
<path d="M 261.08,404.56 L 259.09,400.70 L 260.28,384.51 L 269.37,378.37 L 274.41,371.87 L 275.58,359.27 L 287.63,353.41 L 298.70,351.31 L 310.41,352.18 L 319.71,348.50 L 339.33,354.83 L 346.49,355.22 L 364.45,371.89 L 368.61,371.88 L 372.71,368.67 L 378.83,368.80 L 392.49,362.65 L 401.37,363.85 L 419.53,373.79 L 448.32,377.02 L 465.06,365.16 L 482.61,361.86 L 506.79,362.14 L 526.32,368.69 L 539.44,370.08 L 542.23,365.36 L 549.95,361.91 L 551.12,358.84 L 563.32,357.29 L 566.53,353.02 L 575.30,353.16 L 589.77,369.71 L 593.69,388.42 L 603.11,389.28 L 608.89,393.78 L 604.85,405.88 L 607.36,407.99 L 606.86,411.04 L 592.95,418.34 L 587.16,417.34 L 579.97,424.20 L 573.14,434.65 L 569.85,447.02 L 563.38,449.88 L 562.28,463.18 L 551.54,467.52 L 552.89,470.57 L 548.93,483.88 L 542.13,487.94 L 536.15,487.83 L 537.26,490.82 L 531.67,493.73 L 531.06,500.00 L 230.27,500.00 L 232.70,476.00 L 242.40,475.00 L 244.19,465.42 L 250.48,460.28 L 250.30,456.32 L 256.22,455.13 L 258.63,452.43 L 261.10,447.20 L 258.09,443.52 L 260.61,439.56 L 264.42,440.30 L 266.47,435.22 L 263.07,429.73 L 262.82,421.67 L 254.81,413.55 L 261.08,404.56 Z" fill="#C8D8E8" stroke="#8BAABB" stroke-width="0.8"/>
<path d="M 235.08,387.65 L 220.08,391.96 L 222.84,398.31 L 220.72,400.94 L 210.02,389.17 L 216.13,387.00 L 211.83,379.55 L 207.49,379.06 L 203.45,382.19 L 194.60,381.50 L 176.26,370.92 L 176.26,362.03 L 185.27,362.63 L 177.26,359.46 L 173.52,355.52 L 163.95,353.56 L 156.83,344.31 L 157.46,338.69 L 150.00,330.89 L 152.16,319.01 L 175.17,319.44 L 187.26,311.41 L 240.00,309.94 L 241.06,307.63 L 256.03,309.55 L 256.64,305.79 L 266.74,300.79 L 273.52,284.58 L 277.42,281.47 L 278.84,209.40 L 328.33,201.27 L 381.70,163.66 L 523.51,93.75 L 571.35,102.68 L 594.55,117.57 L 618.69,107.54 L 624.77,134.04 L 625.16,147.31 L 638.59,161.60 L 636.53,163.20 L 637.35,166.85 L 650.00,177.84 L 642.59,189.28 L 634.25,268.24 L 599.38,299.09 L 582.47,318.39 L 576.90,330.83 L 570.31,333.73 L 575.30,353.16 L 566.53,353.02 L 563.32,357.29 L 551.12,358.84 L 549.95,361.91 L 542.23,365.36 L 539.44,370.08 L 526.32,368.69 L 506.79,362.14 L 482.61,361.86 L 465.06,365.16 L 448.32,377.02 L 419.53,373.79 L 401.37,363.85 L 392.49,362.65 L 378.83,368.80 L 372.71,368.67 L 368.61,371.88 L 364.45,371.89 L 344.38,354.22 L 339.33,354.83 L 319.71,348.50 L 310.41,352.18 L 297.68,351.40 L 285.91,353.96 L 275.58,359.27 L 274.41,371.87 L 269.37,378.37 L 260.28,384.51 L 259.09,400.70 L 261.08,404.56 L 258.85,406.25 L 235.08,387.65 Z" fill="#4A90D9" stroke="#1a5fa8" stroke-width="1.2"/>
<path d="M 609.25,372.36 L 596.22,374.73 L 596.53,368.18 L 599.75,370.09 L 597.21,367.21 L 604.68,365.07 L 608.81,366.34 L 610.91,369.64 L 609.25,372.36 Z" fill="#A8C8E8" stroke="none"/>
<path d="M 11.70,313.02 L 13.23,310.24 L 10.16,309.57 L 9.12,305.50 L 18.87,310.46 L 11.70,313.02 Z" fill="#A8C8E8" stroke="none"/>
<path d="M 291.64,445.62 L 288.78,447.26 L 291.28,447.97 L 291.95,453.70 L 289.66,455.23 L 288.57,449.23 L 286.38,449.97 L 287.27,448.16 L 285.30,447.97 L 288.13,447.26 L 285.75,445.79 L 287.58,445.66 L 286.84,442.99 L 282.07,440.91 L 286.19,440.55 L 286.38,433.48 L 290.18,436.05 L 292.30,434.86 L 291.64,445.62 Z" fill="#A8C8E8" stroke="none"/>
<path d="M 127.63,499.42 L 126.93,500.00 L 124.50,500.00 L 126.54,499.06 L 118.35,495.49 L 121.14,495.08 L 112.65,486.13 L 108.91,486.66 L 108.56,489.82 L 107.46,486.21 L 104.65,486.43 L 101.50,484.02 L 95.98,486.73 L 91.02,487.28 L 101.62,483.47 L 101.62,481.65 L 105.74,485.83 L 113.11,485.64 L 112.75,483.47 L 107.84,482.69 L 110.49,482.57 L 107.82,479.43 L 108.76,474.43 L 110.49,476.96 L 109.01,479.69 L 112.12,482.38 L 112.90,480.75 L 117.88,489.35 L 120.24,487.70 L 118.53,485.92 L 120.02,483.47 L 119.18,485.83 L 122.00,487.82 L 122.87,486.37 L 123.06,487.82 L 119.11,491.10 L 128.07,496.51 L 129.12,499.24 L 138.23,497.43 L 139.35,499.30 L 134.75,498.68 L 134.59,500.00 L 127.94,500.00 L 127.63,499.42 Z M 147.82,497.71 L 152.39,494.55 L 147.98,493.88 L 147.45,489.54 L 148.85,488.02 L 150.38,488.37 L 149.49,486.21 L 152.10,484.19 L 149.31,491.75 L 148.19,492.09 L 154.69,494.87 L 151.22,495.42 L 149.71,498.32 L 152.56,500.00 L 149.84,500.00 L 147.82,497.71 Z" fill="#A8C8E8" stroke="none"/>
</svg>