<svg xmlns="http://www.w3.org/2000/svg" width="800" height="500" viewBox="0 0 800 500">
<rect width="800" height="500" fill="#A8C8E8"/>
<path d="M 791.78,474.95 L 791.74,494.74 L 789.16,500.00 L 628.24,500.00 L 628.10,499.94 L 613.53,498.55 L 610.43,500.00 L 589.85,500.00 L 585.81,493.41 L 587.17,483.41 L 592.69,474.91 L 640.12,475.85 L 645.51,473.36 L 653.95,478.02 L 657.80,476.38 L 659.27,479.94 L 672.61,478.86 L 677.81,482.71 L 683.88,480.94 L 693.21,482.36 L 706.00,487.59 L 708.34,491.39 L 712.05,488.78 L 708.13,480.84 L 709.00,475.30 L 714.08,472.90 L 725.39,452.95 L 724.82,442.54 L 730.36,431.31 L 755.31,428.71 L 766.22,424.59 L 780.15,427.54 L 782.19,430.06 L 792.18,429.30 L 796.33,432.10 L 799.12,428.93 L 800.00,428.75 L 800.00,463.46 L 791.78,474.95 Z" fill="#E8E0D0" stroke="#B8B0A0" stroke-width="0.5"/>
<path d="M 791.74,494.74 L 791.78,474.95 L 800.00,463.46 L 800.00,500.00 L 789.16,500.00 L 791.74,494.74 Z" fill="#E8E0D0" stroke="#B8B0A0" stroke-width="0.5"/>
<path d="M 799.12,428.93 L 796.33,432.10 L 792.18,429.30 L 782.19,430.06 L 780.15,427.54 L 766.22,424.59 L 747.48,430.12 L 732.07,430.43 L 724.82,442.54 L 725.39,452.95 L 712.91,472.12 L 707.73,449.59 L 701.84,444.44 L 696.49,444.11 L 667.29,418.82 L 664.84,414.25 L 671.66,413.05 L 667.55,411.14 L 663.50,401.66 L 651.97,394.87 L 649.54,377.23 L 643.75,373.13 L 647.81,366.47 L 647.81,354.44 L 638.22,348.78 L 654.26,339.70 L 673.08,309.48 L 681.79,304.85 L 683.80,300.51 L 702.31,301.65 L 720.88,295.66 L 721.77,292.04 L 728.29,289.23 L 731.02,295.43 L 738.03,299.93 L 773.76,285.49 L 800.00,284.13 L 800.00,428.75 L 799.12,428.93 Z" fill="#E8E0D0" stroke="#B8B0A0" stroke-width="0.5"/>
<path d="M 213.04,11.28 L 207.90,15.10 L 200.01,34.08 L 185.65,41.20 L 184.84,45.82 L 165.10,43.46 L 163.71,46.30 L 94.18,48.11 L 79.27,57.62 L 66.62,59.29 L 47.91,57.46 L 47.80,60.23 L 28.83,55.20 L 20.95,57.25 L 19.20,54.73 L 8.70,54.78 L 0.00,60.12 L 0.00,0.00 L 213.28,0.00 L 213.04,11.28 Z" fill="#E8E0D0" stroke="#B8B0A0" stroke-width="0.5"/>
<path d="M 587.17,483.41 L 585.81,493.41 L 589.85,500.00 L 511.28,500.00 L 511.72,470.37 L 552.14,469.94 L 569.99,472.45 L 587.24,470.94 L 592.27,472.27 L 587.17,483.41 Z M 613.53,498.55 L 628.10,499.94 L 628.24,500.00 L 610.43,500.00 L 613.53,498.55 Z" fill="#E8E0D0" stroke="#B8B0A0" stroke-width="0.5"/>
<path d="M 134.01,165.79 L 122.48,173.55 L 105.43,174.79 L 98.68,172.02 L 94.13,178.04 L 86.88,178.14 L 86.97,182.03 L 82.96,182.81 L 85.26,186.38 L 79.59,184.82 L 78.83,188.27 L 59.01,189.60 L 58.97,187.33 L 26.12,182.13 L 12.24,190.42 L 4.20,187.24 L 0.00,187.25 L 0.00,60.12 L 8.70,54.78 L 19.20,54.73 L 20.95,57.25 L 28.83,55.20 L 47.80,60.23 L 45.31,73.72 L 54.90,81.67 L 54.08,88.59 L 63.46,99.98 L 76.07,102.38 L 81.00,107.24 L 91.56,111.13 L 79.68,110.40 L 79.68,121.33 L 103.86,134.35 L 115.52,135.19 L 120.86,131.35 L 126.58,131.96 L 132.24,141.11 L 124.19,143.78 L 138.29,158.27 L 134.01,165.79 Z" fill="#E8E0D0" stroke="#B8B0A0" stroke-width="0.5"/>
<path d="M 58.97,187.33 L 59.01,189.60 L 76.26,187.67 L 70.39,207.53 L 94.69,221.18 L 93.96,235.50 L 105.19,249.98 L 107.21,268.95 L 106.44,317.63 L 102.53,317.79 L 103.95,328.00 L 112.97,341.03 L 106.19,343.10 L 88.09,346.78 L 79.68,339.50 L 69.77,335.71 L 60.33,322.98 L 59.30,318.40 L 63.61,316.51 L 65.60,307.00 L 59.35,301.13 L 64.21,294.78 L 62.61,278.37 L 68.40,275.31 L 53.94,259.82 L 59.76,256.83 L 56.67,251.58 L 60.84,239.43 L 55.85,236.47 L 48.15,238.42 L 51.28,235.97 L 48.29,233.75 L 54.43,233.31 L 49.57,231.11 L 53.16,230.91 L 55.22,210.74 L 35.02,199.35 L 39.37,185.39 L 31.77,183.04 L 58.97,187.33 Z" fill="#E8E0D0" stroke="#B8B0A0" stroke-width="0.5"/>
<path d="M 39.37,185.39 L 35.02,199.35 L 55.22,210.74 L 53.16,230.91 L 49.57,231.11 L 54.43,233.31 L 48.29,233.75 L 51.28,235.97 L 48.15,238.42 L 55.85,236.47 L 60.84,239.43 L 56.67,251.58 L 59.76,256.83 L 53.94,259.82 L 68.40,275.31 L 62.61,278.37 L 64.21,294.78 L 59.35,301.13 L 65.60,307.00 L 63.61,316.51 L 59.30,318.40 L 60.20,322.67 L 69.77,335.71 L 79.68,339.50 L 88.09,346.78 L 78.48,356.85 L 48.83,357.98 L 5.38,375.59 L 0.00,376.58 L 0.00,187.25 L 4.20,187.24 L 12.24,190.42 L 26.12,182.13 L 39.37,185.39 Z" fill="#E8E0D0" stroke="#B8B0A0" stroke-width="0.5"/>
<path d="M 448.05,472.05 L 455.03,474.76 L 510.49,474.76 L 510.89,500.00 L 432.59,500.00 L 433.12,499.19 L 439.35,493.55 L 441.20,494.29 L 442.31,494.17 L 444.75,493.16 L 439.04,491.72 L 447.47,482.27 L 447.05,469.04 L 448.05,472.05 Z M 411.70,427.22 L 400.65,441.21 L 390.82,438.75 L 390.48,433.92 L 396.21,432.56 L 399.86,424.01 L 410.51,423.21 L 411.70,427.22 Z" fill="#E8E0D0" stroke="#B8B0A0" stroke-width="0.5"/>
<path d="M 347.11,495.40 L 344.25,494.29 L 346.44,490.16 L 349.67,490.74 L 347.11,495.40 Z" fill="#E8E0D0" stroke="#B8B0A0" stroke-width="0.5"/>
<path d="M 183.23,173.79 L 193.80,183.78 L 194.13,193.68 L 198.60,200.44 L 195.90,206.70 L 190.88,205.78 L 187.56,210.66 L 191.52,215.19 L 188.27,221.62 L 185.09,224.94 L 177.29,226.40 L 177.52,231.27 L 169.23,237.61 L 166.87,249.38 L 154.09,250.62 L 150.00,288.32 L 155.05,301.99 L 151.37,338.07 L 106.19,343.10 L 112.97,341.03 L 103.95,328.00 L 102.53,317.79 L 106.44,317.63 L 105.42,250.87 L 93.96,235.50 L 94.16,220.07 L 70.73,208.02 L 71.25,197.41 L 76.26,187.67 L 78.83,188.27 L 79.59,184.82 L 85.12,186.53 L 82.96,182.81 L 86.97,182.03 L 86.01,178.97 L 94.13,178.04 L 98.68,172.02 L 105.43,174.79 L 121.34,173.96 L 133.44,166.22 L 137.91,156.60 L 141.07,155.59 L 137.09,147.79 L 142.67,145.69 L 157.22,141.92 L 188.56,164.80 L 183.23,173.79 Z" fill="#C8D8E8" stroke="#8BAABB" stroke-width="0.8"/>
<path d="M 455.03,474.76 L 447.52,471.54 L 453.56,445.98 L 452.46,438.79 L 440.49,430.09 L 447.88,427.21 L 439.83,428.11 L 436.48,420.97 L 439.74,423.23 L 439.61,419.17 L 444.75,420.97 L 441.91,418.06 L 445.58,416.49 L 439.52,416.39 L 445.17,410.69 L 437.87,414.68 L 433.67,411.48 L 435.92,415.45 L 431.98,414.11 L 433.60,417.84 L 428.04,417.84 L 427.32,414.06 L 422.51,416.26 L 412.53,411.82 L 411.05,397.11 L 407.36,394.30 L 408.22,397.39 L 405.34,395.55 L 404.91,397.49 L 399.36,391.09 L 402.17,398.41 L 393.32,397.96 L 397.16,386.44 L 405.35,377.39 L 409.73,363.22 L 406.20,359.70 L 407.28,355.55 L 427.94,339.84 L 442.61,332.77 L 446.59,324.20 L 450.18,324.43 L 461.36,317.28 L 464.19,321.46 L 476.07,321.60 L 479.51,313.27 L 498.60,325.97 L 501.12,335.45 L 507.72,336.07 L 519.30,329.07 L 520.48,321.56 L 533.42,314.95 L 527.77,308.97 L 539.62,298.79 L 539.53,294.15 L 546.75,286.28 L 548.20,272.44 L 555.57,268.85 L 554.11,265.18 L 561.99,265.30 L 571.85,259.35 L 576.18,243.94 L 574.39,240.18 L 588.56,234.84 L 590.00,218.48 L 598.54,214.97 L 602.86,199.74 L 611.87,186.89 L 621.35,178.44 L 628.98,179.68 L 647.76,169.91 L 644.66,164.34 L 649.93,149.11 L 642.38,143.92 L 629.96,142.86 L 624.79,119.84 L 639.51,119.74 L 645.20,129.96 L 656.22,134.13 L 659.51,149.94 L 665.81,152.15 L 669.41,170.17 L 664.64,181.49 L 669.51,202.99 L 692.14,220.24 L 654.28,222.50 L 629.65,220.66 L 619.83,231.25 L 636.65,247.00 L 665.92,264.06 L 682.12,290.23 L 687.21,291.75 L 681.79,304.85 L 673.08,309.48 L 654.26,339.70 L 638.22,348.78 L 647.81,354.44 L 647.81,366.47 L 643.75,373.13 L 649.54,377.23 L 651.97,394.87 L 663.50,401.66 L 667.55,411.14 L 671.66,413.05 L 664.84,414.25 L 667.29,418.82 L 709.27,452.07 L 709.19,463.55 L 714.08,472.90 L 709.77,473.86 L 708.08,479.63 L 711.92,489.29 L 708.34,491.39 L 706.00,487.59 L 693.21,482.36 L 683.88,480.94 L 677.81,482.71 L 672.61,478.86 L 659.27,479.94 L 657.80,476.38 L 653.95,478.02 L 645.51,473.36 L 640.12,475.85 L 592.69,474.91 L 592.27,472.27 L 587.24,470.94 L 569.99,472.45 L 524.46,469.66 L 511.72,470.37 L 510.49,474.76 L 455.03,474.76 Z" fill="#C8D8E8" stroke="#8BAABB" stroke-width="0.8"/>
<path d="M 605.72,99.48 L 599.14,75.58 L 607.83,72.01 L 615.16,56.69 L 637.46,32.95 L 677.89,0.00 L 800.00,0.00 L 800.00,284.13 L 773.76,285.49 L 738.99,299.85 L 731.02,295.43 L 728.29,289.23 L 721.77,292.04 L 720.88,295.66 L 702.31,301.65 L 683.80,300.51 L 687.21,291.75 L 682.12,290.23 L 671.41,269.42 L 636.65,247.00 L 619.90,231.74 L 629.65,220.66 L 654.28,222.50 L 692.14,220.24 L 669.24,202.37 L 664.64,181.49 L 669.41,170.17 L 666.53,165.29 L 668.38,161.97 L 665.81,152.15 L 659.51,149.94 L 656.70,134.80 L 645.20,129.96 L 639.51,119.74 L 624.79,119.84 L 605.72,99.48 Z" fill="#C8D8E8" stroke="#8BAABB" stroke-width="0.8"/>
<path d="M 157.22,141.92 L 137.45,147.22 L 141.09,155.03 L 138.29,158.27 L 124.19,143.78 L 132.24,141.11 L 126.58,131.96 L 120.86,131.35 L 115.52,135.19 L 103.86,134.35 L 79.68,121.33 L 79.68,110.40 L 91.56,111.13 L 81.00,107.24 L 76.07,102.38 L 63.46,99.98 L 54.08,88.59 L 54.90,81.67 L 45.07,72.08 L 47.91,57.46 L 78.25,58.00 L 94.18,48.11 L 163.71,46.30 L 165.10,43.46 L 184.84,45.82 L 185.65,41.20 L 198.96,35.04 L 207.90,15.10 L 213.04,11.28 L 213.28,0.00 L 677.36,0.00 L 637.46,32.95 L 615.16,56.69 L 607.83,72.01 L 599.14,75.58 L 605.72,99.48 L 594.16,99.31 L 589.92,104.56 L 573.84,106.47 L 572.29,110.25 L 562.12,114.49 L 558.44,120.29 L 541.14,118.58 L 515.41,110.53 L 483.53,110.18 L 460.39,114.25 L 438.33,128.84 L 400.37,124.87 L 376.44,112.63 L 364.73,111.15 L 346.72,118.72 L 338.65,118.56 L 333.25,122.51 L 327.77,122.53 L 301.31,100.79 L 294.65,101.54 L 268.79,93.75 L 256.53,98.27 L 239.75,97.31 L 224.24,100.47 L 210.62,107.00 L 209.08,122.50 L 202.42,130.50 L 190.44,138.06 L 188.87,157.98 L 191.50,162.72 L 188.56,164.80 L 157.22,141.92 Z" fill="#C8D8E8" stroke="#8BAABB" stroke-width="0.8"/>
<path d="M 191.50,162.72 L 188.87,157.98 L 190.44,138.06 L 202.42,130.50 L 209.08,122.50 L 210.62,107.00 L 226.49,99.79 L 241.08,97.20 L 256.53,98.27 L 268.79,93.75 L 294.65,101.54 L 304.09,102.01 L 327.77,122.53 L 333.25,122.51 L 338.65,118.56 L 346.72,118.72 L 364.73,111.15 L 376.44,112.63 L 400.37,124.87 L 438.33,128.84 L 460.39,114.25 L 483.53,110.18 L 515.41,110.53 L 541.14,118.58 L 558.44,120.29 L 562.12,114.49 L 572.29,110.25 L 573.84,106.47 L 589.92,104.56 L 594.16,99.31 L 605.72,99.48 L 624.79,119.84 L 629.96,142.86 L 642.38,143.92 L 650.00,149.46 L 644.66,164.34 L 647.98,166.95 L 647.33,170.69 L 628.98,179.68 L 621.35,178.44 L 611.87,186.89 L 602.86,199.74 L 598.54,214.97 L 590.00,218.48 L 588.56,234.84 L 574.39,240.18 L 576.18,243.94 L 570.95,260.32 L 561.99,265.30 L 554.11,265.18 L 555.57,268.85 L 548.20,272.44 L 546.75,286.28 L 539.53,294.15 L 539.62,298.79 L 527.77,308.97 L 533.42,314.95 L 520.48,321.56 L 519.30,329.07 L 512.48,335.23 L 501.80,335.94 L 498.60,325.97 L 479.51,313.27 L 476.07,321.60 L 464.19,321.46 L 461.36,317.28 L 450.18,324.43 L 446.59,324.20 L 442.61,332.77 L 427.94,339.84 L 413.01,353.44 L 407.72,355.01 L 406.20,359.70 L 409.73,363.22 L 405.35,377.39 L 394.14,392.05 L 379.63,382.86 L 386.79,394.00 L 384.08,397.26 L 353.66,398.02 L 353.09,391.98 L 351.31,396.48 L 342.10,395.55 L 344.28,397.88 L 342.10,398.68 L 333.38,390.44 L 338.08,398.22 L 332.22,400.90 L 332.22,394.20 L 328.83,391.33 L 329.94,395.33 L 326.25,392.87 L 331.38,402.15 L 329.12,402.92 L 324.92,402.10 L 321.44,388.53 L 318.54,387.96 L 325.00,403.37 L 318.54,403.57 L 319.39,395.33 L 317.68,401.35 L 315.97,398.46 L 317.37,404.15 L 314.25,404.15 L 313.55,399.42 L 311.66,398.68 L 312.45,404.21 L 299.99,405.58 L 302.57,400.90 L 299.68,402.23 L 298.57,398.90 L 298.00,405.34 L 293.42,406.25 L 292.41,401.73 L 291.29,405.50 L 288.24,401.57 L 287.11,404.25 L 284.13,403.11 L 266.86,387.54 L 263.13,378.49 L 267.71,377.95 L 262.28,377.26 L 261.22,371.39 L 271.13,370.15 L 269.30,367.08 L 272.63,366.15 L 273.71,365.01 L 264.70,368.38 L 265.13,369.71 L 255.30,366.27 L 256.33,363.67 L 268.28,363.37 L 265.69,361.23 L 260.63,362.89 L 261.11,359.01 L 258.73,362.49 L 252.43,362.15 L 251.33,356.78 L 259.15,352.98 L 248.91,357.62 L 236.54,345.54 L 222.28,338.38 L 182.19,336.71 L 179.75,335.59 L 198.88,330.19 L 185.18,332.91 L 183.76,330.47 L 180.47,332.09 L 179.12,335.42 L 179.73,337.12 L 151.37,338.07 L 155.05,301.99 L 150.00,288.32 L 154.09,250.62 L 166.87,249.38 L 169.23,237.61 L 177.52,231.27 L 177.29,226.40 L 185.09,224.94 L 188.27,221.62 L 191.52,215.19 L 187.56,210.66 L 190.88,205.78 L 195.90,206.70 L 198.60,200.44 L 194.13,193.68 L 193.80,183.78 L 183.23,173.79 L 191.50,162.72 Z M 354.74,399.34 L 348.38,400.96 L 344.43,400.14 L 354.74,399.34 Z M 344.25,399.10 L 342.82,401.61 L 336.14,402.19 L 339.95,397.77 L 341.81,399.10 L 344.25,399.10 Z" fill="#4A90D9" stroke="#1a5fa8" stroke-width="1.2"/>
<path d="M 650.47,123.10 L 633.29,126.02 L 633.70,117.95 L 637.95,120.31 L 634.60,116.77 L 644.45,114.13 L 649.90,115.69 L 652.66,119.75 L 650.47,123.10 Z" fill="#A8C8E8" stroke="none"/>
<path d="M 142.04,337.51 L 137.78,337.19 L 140.62,334.39 L 144.82,335.79 L 142.04,337.51 Z" fill="#A8C8E8" stroke="none"/>
<path d="M 575.08,334.34 L 571.15,336.14 L 577.40,339.57 L 578.10,336.14 L 581.11,335.77 L 580.47,339.71 L 573.46,340.47 L 564.67,335.24 L 568.84,333.06 L 575.08,334.34 Z" fill="#A8C8E8" stroke="none"/>
<path d="M 231.79,213.24 L 228.01,215.26 L 231.31,216.14 L 232.19,223.18 L 229.17,225.07 L 227.74,217.68 L 224.85,218.59 L 226.02,216.37 L 223.43,216.13 L 227.16,215.26 L 224.02,213.46 L 226.42,213.29 L 225.46,210.00 L 219.16,207.44 L 224.60,207.00 L 224.85,198.30 L 229.86,201.47 L 232.66,200.00 L 231.79,213.24 Z" fill="#A8C8E8" stroke="none"/>
<path d="M 49.54,311.97 L 51.53,315.32 L 47.86,322.75 L 48.70,328.72 L 52.10,324.47 L 51.85,328.47 L 44.69,330.47 L 43.26,338.94 L 42.62,334.52 L 38.25,339.03 L 33.84,333.37 L 13.85,327.14 L 8.70,322.44 L 14.14,324.90 L 16.41,321.79 L 17.55,326.25 L 21.98,326.89 L 22.67,322.24 L 23.83,327.58 L 30.12,325.34 L 35.24,330.02 L 38.11,326.70 L 34.98,323.12 L 43.55,321.32 L 38.68,320.66 L 40.70,317.76 L 43.84,318.92 L 41.25,316.88 L 44.13,315.75 L 38.64,311.17 L 43.00,311.75 L 46.88,308.61 L 40.98,301.48 L 34.98,300.83 L 37.19,303.40 L 36.41,303.72 L 28.13,300.61 L 40.70,300.15 L 36.22,296.24 L 10.70,299.95 L 34.89,293.53 L 31.28,292.36 L 33.52,290.94 L 31.28,285.45 L 24.97,281.65 L 23.99,285.65 L 19.63,286.21 L 23.77,283.67 L 20.42,281.82 L 15.58,285.22 L 17.29,282.43 L 15.58,279.43 L 11.26,282.78 L 11.70,280.99 L 6.99,282.07 L 14.14,278.99 L 3.35,274.60 L 7.02,274.10 L 0.00,267.19 L 0.00,262.65 L 2.72,267.04 L 5.83,265.01 L 3.58,262.83 L 5.54,259.81 L 4.43,262.71 L 8.16,265.16 L 9.30,263.38 L 9.56,265.16 L 4.35,269.20 L 16.16,275.86 L 17.55,279.21 L 29.55,276.99 L 31.03,279.29 L 24.97,278.52 L 24.69,280.56 L 33.10,284.11 L 36.41,292.58 L 42.15,292.36 L 40.39,287.00 L 43.26,284.78 L 40.33,282.60 L 46.68,282.07 L 42.20,277.33 L 48.22,273.45 L 42.40,272.62 L 41.71,267.28 L 43.55,265.40 L 45.56,265.84 L 44.40,263.18 L 47.84,260.69 L 44.16,270.00 L 42.69,270.41 L 51.26,273.84 L 46.68,274.51 L 44.69,278.08 L 50.40,281.23 L 41.83,286.80 L 46.07,288.01 L 44.97,291.46 L 49.83,287.00 L 47.27,290.57 L 50.40,291.89 L 50.97,298.15 L 47.27,299.72 L 48.77,302.64 L 52.41,299.06 L 49.54,311.97 Z M 43.00,323.57 L 38.57,326.15 L 42.41,328.91 L 45.82,327.34 L 43.00,323.57 Z" fill="#A8C8E8" stroke="none"/>
</svg>