<svg xmlns="http://www.w3.org/2000/svg" width="800" height="500" viewBox="0 0 800 500">
<rect width="800" height="500" fill="#A8C8E8"/>
<path d="M 701.96,474.95 L 701.93,494.74 L 699.94,500.00 L 575.92,500.00 L 575.81,499.94 L 564.58,498.55 L 562.19,500.00 L 546.32,500.00 L 543.21,493.41 L 544.26,483.41 L 548.51,474.91 L 585.07,475.85 L 589.22,473.36 L 595.73,478.02 L 598.69,476.38 L 599.83,479.94 L 610.12,478.86 L 614.12,482.71 L 618.80,480.94 L 625.99,482.36 L 635.85,487.59 L 637.65,491.39 L 640.51,488.78 L 637.49,480.84 L 638.16,475.30 L 642.08,472.90 L 650.79,452.95 L 650.35,442.54 L 654.63,431.31 L 673.86,428.71 L 682.26,424.59 L 692.99,427.54 L 694.57,430.06 L 702.27,429.30 L 705.47,432.10 L 707.62,428.93 L 708.30,428.75 L 708.30,463.46 L 701.96,474.95 Z" fill="#E8E0D0" stroke="#B8B0A0" stroke-width="0.5"/>
<path d="M 701.93,494.74 L 701.96,474.95 L 708.30,463.46 L 708.30,500.00 L 699.94,500.00 L 701.93,494.74 Z" fill="#E8E0D0" stroke="#B8B0A0" stroke-width="0.5"/>
<path d="M 707.62,428.93 L 705.47,432.10 L 702.27,429.30 L 694.57,430.06 L 692.99,427.54 L 682.26,424.59 L 667.82,430.12 L 655.94,430.43 L 650.35,442.54 L 650.79,452.95 L 641.18,472.12 L 637.18,449.59 L 632.64,444.44 L 628.52,444.11 L 606.01,418.82 L 604.12,414.25 L 609.38,413.05 L 606.22,411.14 L 603.09,401.66 L 594.21,394.87 L 592.33,377.23 L 587.87,373.13 L 591.00,366.47 L 591.00,354.44 L 583.61,348.78 L 595.97,339.70 L 610.48,309.48 L 617.19,304.85 L 618.74,300.51 L 633.00,301.65 L 647.31,295.66 L 648.00,292.04 L 653.03,289.23 L 655.13,295.43 L 660.53,299.93 L 688.07,285.49 L 708.30,284.13 L 708.30,428.75 L 707.62,428.93 Z" fill="#E8E0D0" stroke="#B8B0A0" stroke-width="0.5"/>
<path d="M 255.90,11.28 L 251.94,15.10 L 245.86,34.08 L 234.79,41.20 L 234.17,45.82 L 218.96,43.46 L 217.88,46.30 L 164.29,48.11 L 152.80,57.62 L 143.05,59.29 L 128.63,57.46 L 128.54,60.23 L 113.92,55.20 L 107.85,57.25 L 106.50,54.73 L 98.41,54.78 L 91.70,60.12 L 91.70,0.00 L 256.09,0.00 L 255.90,11.28 Z" fill="#E8E0D0" stroke="#B8B0A0" stroke-width="0.5"/>
<path d="M 544.26,483.41 L 543.21,493.41 L 546.32,500.00 L 485.77,500.00 L 486.11,470.37 L 517.26,469.94 L 531.02,472.45 L 544.31,470.94 L 548.19,472.27 L 544.26,483.41 Z M 564.58,498.55 L 575.81,499.94 L 575.92,500.00 L 562.19,500.00 L 564.58,498.55 Z" fill="#E8E0D0" stroke="#B8B0A0" stroke-width="0.5"/>
<path d="M 194.99,165.79 L 186.11,173.55 L 172.97,174.79 L 167.76,172.02 L 164.26,178.04 L 158.67,178.14 L 158.73,182.03 L 155.64,182.81 L 157.42,186.38 L 153.05,184.82 L 152.46,188.27 L 137.19,189.60 L 137.16,187.33 L 111.84,182.13 L 101.14,190.42 L 94.94,187.24 L 91.70,187.25 L 91.70,60.12 L 98.41,54.78 L 106.50,54.73 L 107.85,57.25 L 113.92,55.20 L 128.54,60.23 L 126.63,73.72 L 134.01,81.67 L 133.38,88.59 L 140.61,99.98 L 150.33,102.38 L 154.13,107.24 L 162.27,111.13 L 153.12,110.40 L 153.12,121.33 L 171.75,134.35 L 180.74,135.19 L 184.85,131.35 L 189.26,131.96 L 193.63,141.11 L 187.42,143.78 L 198.29,158.27 L 194.99,165.79 Z" fill="#E8E0D0" stroke="#B8B0A0" stroke-width="0.5"/>
<path d="M 137.16,187.33 L 137.19,189.60 L 150.48,187.67 L 145.96,207.53 L 164.69,221.18 L 164.13,235.50 L 172.78,249.98 L 174.33,268.95 L 173.74,317.63 L 170.73,317.79 L 171.82,328.00 L 178.77,341.03 L 173.55,343.10 L 159.60,346.78 L 153.12,339.50 L 145.48,335.71 L 138.20,322.98 L 137.41,318.40 L 140.73,316.51 L 142.26,307.00 L 137.44,301.13 L 141.19,294.78 L 139.96,278.37 L 144.42,275.31 L 133.28,259.82 L 137.77,256.83 L 135.38,251.58 L 138.59,239.43 L 134.75,236.47 L 128.81,238.42 L 131.22,235.97 L 128.92,233.75 L 133.66,233.31 L 129.91,231.11 L 132.67,230.91 L 134.26,210.74 L 118.70,199.35 L 122.05,185.39 L 116.19,183.04 L 137.16,187.33 Z" fill="#E8E0D0" stroke="#B8B0A0" stroke-width="0.5"/>
<path d="M 122.05,185.39 L 118.70,199.35 L 134.26,210.74 L 132.67,230.91 L 129.91,231.11 L 133.66,233.31 L 128.92,233.75 L 131.22,235.97 L 128.81,238.42 L 134.75,236.47 L 138.59,239.43 L 135.38,251.58 L 137.77,256.83 L 133.28,259.82 L 144.42,275.31 L 139.96,278.37 L 141.19,294.78 L 137.44,301.13 L 142.26,307.00 L 140.73,316.51 L 137.41,318.40 L 138.10,322.67 L 145.48,335.71 L 153.12,339.50 L 159.60,346.78 L 152.19,356.85 L 129.34,357.98 L 95.85,375.59 L 91.70,376.58 L 91.70,187.25 L 94.94,187.24 L 101.14,190.42 L 111.84,182.13 L 122.05,185.39 Z" fill="#E8E0D0" stroke="#B8B0A0" stroke-width="0.5"/>
<path d="M 437.04,472.05 L 442.41,474.76 L 485.16,474.76 L 485.47,500.00 L 425.12,500.00 L 425.53,499.19 L 430.33,493.55 L 431.75,494.29 L 432.61,494.17 L 434.49,493.16 L 430.09,491.72 L 436.59,482.27 L 436.26,469.04 L 437.04,472.05 Z M 409.01,427.22 L 400.50,441.21 L 392.92,438.75 L 392.67,433.92 L 397.08,432.56 L 399.89,424.01 L 408.10,423.21 L 409.01,427.22 Z" fill="#E8E0D0" stroke="#B8B0A0" stroke-width="0.5"/>
<path d="M 359.24,495.40 L 357.03,494.29 L 358.72,490.16 L 361.21,490.74 L 359.24,495.40 Z" fill="#E8E0D0" stroke="#B8B0A0" stroke-width="0.5"/>
<path d="M 232.92,173.79 L 241.07,183.78 L 241.33,193.68 L 244.77,200.44 L 242.69,206.70 L 238.82,205.78 L 236.26,210.66 L 239.32,215.19 L 236.81,221.62 L 234.36,224.94 L 228.35,226.40 L 228.53,231.27 L 222.14,237.61 L 220.32,249.38 L 210.46,250.62 L 207.31,288.32 L 211.21,301.99 L 208.37,338.07 L 173.55,343.10 L 178.77,341.03 L 171.82,328.00 L 170.73,317.79 L 173.74,317.63 L 172.95,250.87 L 164.13,235.50 L 164.27,220.07 L 146.22,208.02 L 146.62,197.41 L 150.48,187.67 L 152.46,188.27 L 153.05,184.82 L 157.31,186.53 L 155.64,182.81 L 158.73,182.03 L 158.00,178.97 L 164.26,178.04 L 167.76,172.02 L 172.97,174.79 L 185.23,173.96 L 194.55,166.22 L 197.99,156.60 L 200.43,155.59 L 197.36,147.79 L 201.66,145.69 L 212.88,141.92 L 237.03,164.80 L 232.92,173.79 Z" fill="#C8D8E8" stroke="#8BAABB" stroke-width="0.8"/>
<path d="M 442.41,474.76 L 436.62,471.54 L 441.28,445.98 L 440.43,438.79 L 431.20,430.09 L 436.91,427.21 L 430.70,428.11 L 428.12,420.97 L 430.63,423.23 L 430.53,419.17 L 434.49,420.97 L 432.30,418.06 L 435.13,416.49 L 430.46,416.39 L 434.82,410.69 L 429.19,414.68 L 425.95,411.48 L 427.68,415.45 L 424.65,414.11 L 425.90,417.84 L 421.62,417.84 L 421.06,414.06 L 417.35,416.26 L 409.66,411.82 L 408.52,397.11 L 405.67,394.30 L 406.34,397.39 L 404.11,395.55 L 403.79,397.49 L 399.51,391.09 L 401.68,398.41 L 394.85,397.96 L 397.81,386.44 L 404.12,377.39 L 407.50,363.22 L 404.78,359.70 L 405.61,355.55 L 421.53,339.84 L 432.84,332.77 L 435.91,324.20 L 438.67,324.43 L 447.29,317.28 L 449.47,321.46 L 458.63,321.60 L 461.28,313.27 L 476.00,325.97 L 477.93,335.45 L 483.02,336.07 L 491.95,329.07 L 492.86,321.56 L 502.83,314.95 L 498.48,308.97 L 507.61,298.79 L 507.54,294.15 L 513.10,286.28 L 514.23,272.44 L 519.91,268.85 L 518.78,265.18 L 524.85,265.30 L 532.45,259.35 L 535.79,243.94 L 534.41,240.18 L 545.33,234.84 L 546.44,218.48 L 553.02,214.97 L 556.36,199.74 L 563.30,186.89 L 570.60,178.44 L 576.48,179.68 L 590.96,169.91 L 588.57,164.34 L 592.63,149.11 L 586.81,143.92 L 577.24,142.86 L 573.25,119.84 L 584.60,119.74 L 588.99,129.96 L 597.48,134.13 L 600.01,149.94 L 604.87,152.15 L 607.64,170.17 L 603.97,181.49 L 607.73,202.99 L 625.17,220.24 L 595.98,222.50 L 577.00,220.66 L 569.43,231.25 L 582.40,247.00 L 604.95,264.06 L 617.44,290.23 L 621.37,291.75 L 617.19,304.85 L 610.48,309.48 L 595.97,339.70 L 583.61,348.78 L 591.00,354.44 L 591.00,366.47 L 587.87,373.13 L 592.33,377.23 L 594.21,394.87 L 603.09,401.66 L 606.22,411.14 L 609.38,413.05 L 604.12,414.25 L 606.01,418.82 L 638.37,452.07 L 638.30,463.55 L 642.08,472.90 L 638.76,473.86 L 637.45,479.63 L 640.41,489.29 L 637.65,491.39 L 635.85,487.59 L 625.99,482.36 L 618.80,480.94 L 614.12,482.71 L 610.12,478.86 L 599.83,479.94 L 598.69,476.38 L 595.73,478.02 L 589.22,473.36 L 585.07,475.85 L 548.51,474.91 L 548.19,472.27 L 544.31,470.94 L 531.02,472.45 L 495.93,469.66 L 486.11,470.37 L 485.16,474.76 L 442.41,474.76 Z" fill="#C8D8E8" stroke="#8BAABB" stroke-width="0.8"/>
<path d="M 558.56,99.48 L 553.49,75.58 L 560.18,72.01 L 565.83,56.69 L 583.02,32.95 L 614.18,0.00 L 708.30,0.00 L 708.30,284.13 L 688.07,285.49 L 661.27,299.85 L 655.13,295.43 L 653.03,289.23 L 648.00,292.04 L 647.31,295.66 L 633.00,301.65 L 618.74,300.51 L 621.37,291.75 L 617.44,290.23 L 609.19,269.42 L 582.40,247.00 L 569.49,231.74 L 577.00,220.66 L 595.98,222.50 L 625.17,220.24 L 607.52,202.37 L 603.97,181.49 L 607.64,170.17 L 605.42,165.29 L 606.85,161.97 L 604.87,152.15 L 600.01,149.94 L 597.85,134.80 L 588.99,129.96 L 584.60,119.74 L 573.25,119.84 L 558.56,99.48 Z" fill="#C8D8E8" stroke="#8BAABB" stroke-width="0.8"/>
<path d="M 212.88,141.92 L 197.65,147.22 L 200.45,155.03 L 198.29,158.27 L 187.42,143.78 L 193.63,141.11 L 189.26,131.96 L 184.85,131.35 L 180.74,135.19 L 171.75,134.35 L 153.12,121.33 L 153.12,110.40 L 162.27,111.13 L 154.13,107.24 L 150.33,102.38 L 140.61,99.98 L 133.38,88.59 L 134.01,81.67 L 126.44,72.08 L 128.63,57.46 L 152.02,58.00 L 164.29,48.11 L 217.88,46.30 L 218.96,43.46 L 234.17,45.82 L 234.79,41.20 L 245.05,35.04 L 251.94,15.10 L 255.90,11.28 L 256.09,0.00 L 613.77,0.00 L 583.02,32.95 L 565.83,56.69 L 560.18,72.01 L 553.49,75.58 L 558.56,99.48 L 549.65,99.31 L 546.38,104.56 L 533.99,106.47 L 532.79,110.25 L 524.95,114.49 L 522.12,120.29 L 508.79,118.58 L 488.95,110.53 L 464.38,110.18 L 446.55,114.25 L 429.54,128.84 L 400.28,124.87 L 381.84,112.63 L 372.81,111.15 L 358.94,118.72 L 352.71,118.56 L 348.55,122.51 L 344.33,122.53 L 323.94,100.79 L 318.80,101.54 L 298.87,93.75 L 289.42,98.27 L 276.49,97.31 L 264.53,100.47 L 254.04,107.00 L 252.85,122.50 L 247.72,130.50 L 238.48,138.06 L 237.28,157.98 L 239.30,162.72 L 237.03,164.80 L 212.88,141.92 Z" fill="#C8D8E8" stroke="#8BAABB" stroke-width="0.8"/>
<path d="M 239.30,162.72 L 237.28,157.98 L 238.48,138.06 L 247.72,130.50 L 252.85,122.50 L 254.04,107.00 L 266.27,99.79 L 277.52,97.20 L 289.42,98.27 L 298.87,93.75 L 318.80,101.54 L 326.08,102.01 L 344.33,122.53 L 348.55,122.51 L 352.71,118.56 L 358.94,118.72 L 372.81,111.15 L 381.84,112.63 L 400.28,124.87 L 429.54,128.84 L 446.55,114.25 L 464.38,110.18 L 488.95,110.53 L 508.79,118.58 L 522.12,120.29 L 524.95,114.49 L 532.79,110.25 L 533.99,106.47 L 546.38,104.56 L 549.65,99.31 L 558.56,99.48 L 573.25,119.84 L 577.24,142.86 L 586.81,143.92 L 592.69,149.46 L 588.57,164.34 L 591.13,166.95 L 590.62,170.69 L 576.48,179.68 L 570.60,178.44 L 563.30,186.89 L 556.36,199.74 L 553.02,214.97 L 546.44,218.48 L 545.33,234.84 L 534.41,240.18 L 535.79,243.94 L 531.76,260.32 L 524.85,265.30 L 518.78,265.18 L 519.91,268.85 L 514.23,272.44 L 513.10,286.28 L 507.54,294.15 L 507.61,298.79 L 498.48,308.97 L 502.83,314.95 L 492.86,321.56 L 491.95,329.07 L 486.69,335.23 L 478.46,335.94 L 476.00,325.97 L 461.28,313.27 L 458.63,321.60 L 449.47,321.46 L 447.29,317.28 L 438.67,324.43 L 435.91,324.20 L 432.84,332.77 L 421.53,339.84 L 410.03,353.44 L 405.95,355.01 L 404.78,359.70 L 407.50,363.22 L 404.12,377.39 L 395.48,392.05 L 384.30,382.86 L 389.82,394.00 L 387.73,397.26 L 364.28,398.02 L 363.84,391.98 L 362.47,396.48 L 355.37,395.55 L 357.05,397.88 L 355.37,398.68 L 348.65,390.44 L 352.28,398.22 L 347.76,400.90 L 347.76,394.20 L 345.15,391.33 L 346.00,395.33 L 343.15,392.87 L 347.11,402.15 L 345.37,402.92 L 342.13,402.10 L 339.45,388.53 L 337.21,387.96 L 342.20,403.37 L 337.21,403.57 L 337.87,395.33 L 336.55,401.35 L 335.24,398.46 L 336.32,404.15 L 333.91,404.15 L 333.37,399.42 L 331.91,398.68 L 332.52,404.21 L 322.92,405.58 L 324.91,400.90 L 322.68,402.23 L 321.82,398.90 L 321.38,405.34 L 317.85,406.25 L 317.08,401.73 L 316.21,405.50 L 313.86,401.57 L 312.99,404.25 L 310.69,403.11 L 297.38,387.54 L 294.51,378.49 L 298.04,377.95 L 293.85,377.26 L 293.04,371.39 L 300.67,370.15 L 299.26,367.08 L 301.83,366.15 L 302.67,365.01 L 295.72,368.38 L 296.05,369.71 L 288.47,366.27 L 289.27,363.67 L 298.48,363.37 L 296.48,361.23 L 292.58,362.89 L 292.96,359.01 L 291.12,362.49 L 286.26,362.15 L 285.41,356.78 L 291.44,352.98 L 283.55,357.62 L 274.01,345.54 L 263.02,338.38 L 232.13,336.71 L 230.24,335.59 L 244.99,330.19 L 234.43,332.91 L 233.33,330.47 L 230.80,332.09 L 229.76,335.42 L 230.23,337.12 L 208.37,338.07 L 211.21,301.99 L 207.31,288.32 L 210.46,250.62 L 220.32,249.38 L 222.14,237.61 L 228.53,231.27 L 228.35,226.40 L 234.36,224.94 L 236.81,221.62 L 239.32,215.19 L 236.26,210.66 L 238.82,205.78 L 242.69,206.70 L 244.77,200.44 L 241.33,193.68 L 241.07,183.78 L 232.92,173.79 L 239.30,162.72 Z M 365.12,399.34 L 360.22,400.96 L 357.17,400.14 L 365.12,399.34 Z M 357.03,399.10 L 355.93,401.61 L 350.78,402.19 L 353.72,397.77 L 355.15,399.10 L 357.03,399.10 Z" fill="#4A90D9" stroke="#1a5fa8" stroke-width="1.2"/>
<path d="M 593.05,123.10 L 579.80,126.02 L 580.13,117.95 L 583.40,120.31 L 580.82,116.77 L 588.41,114.13 L 592.61,115.69 L 594.73,119.75 L 593.05,123.10 Z" fill="#A8C8E8" stroke="none"/>
<path d="M 201.18,337.51 L 197.89,337.19 L 200.09,334.39 L 203.32,335.79 L 201.18,337.51 Z" fill="#A8C8E8" stroke="none"/>
<path d="M 534.94,334.34 L 531.91,336.14 L 536.73,339.57 L 537.27,336.14 L 539.59,335.77 L 539.09,339.71 L 533.70,340.47 L 526.92,335.24 L 530.13,333.06 L 534.94,334.34 Z" fill="#A8C8E8" stroke="none"/>
<path d="M 270.35,213.24 L 267.44,215.26 L 269.98,216.14 L 270.66,223.18 L 268.34,225.07 L 267.23,217.68 L 265.01,218.59 L 265.91,216.37 L 263.91,216.13 L 266.79,215.26 L 264.37,213.46 L 266.22,213.29 L 265.47,210.00 L 260.62,207.44 L 264.81,207.00 L 265.01,198.30 L 268.87,201.47 L 271.02,200.00 L 270.35,213.24 Z" fill="#A8C8E8" stroke="none"/>
<path d="M 129.89,311.97 L 131.42,315.32 L 128.59,322.75 L 129.24,328.72 L 131.86,324.47 L 131.67,328.47 L 126.15,330.47 L 125.04,338.94 L 124.55,334.52 L 121.19,339.03 L 117.79,333.37 L 102.38,327.14 L 98.41,322.44 L 102.60,324.90 L 104.35,321.79 L 105.23,326.25 L 108.65,326.89 L 109.17,322.24 L 110.07,327.58 L 114.92,325.34 L 118.87,330.02 L 121.08,326.70 L 118.67,323.12 L 125.27,321.32 L 121.52,320.66 L 123.07,317.76 L 125.49,318.92 L 123.49,316.88 L 125.72,315.75 L 121.48,311.17 L 124.85,311.75 L 127.84,308.61 L 123.29,301.48 L 118.67,300.83 L 120.37,303.40 L 119.76,303.72 L 113.38,300.61 L 123.07,300.15 L 119.62,296.24 L 99.95,299.95 L 118.59,293.53 L 115.81,292.36 L 117.54,290.94 L 115.81,285.45 L 110.95,281.65 L 110.19,285.65 L 106.83,286.21 L 110.02,283.67 L 107.44,281.82 L 103.71,285.22 L 105.03,282.43 L 103.71,279.43 L 100.38,282.78 L 100.72,280.99 L 97.09,282.07 L 102.60,278.99 L 94.28,274.60 L 97.11,274.10 L 91.70,267.19 L 91.70,262.65 L 93.80,267.04 L 96.20,265.01 L 94.46,262.83 L 95.98,259.81 L 95.12,262.71 L 97.99,265.16 L 98.87,263.38 L 99.07,265.16 L 95.05,269.20 L 104.15,275.86 L 105.23,279.21 L 114.48,276.99 L 115.62,279.29 L 110.95,278.52 L 110.73,280.56 L 117.22,284.11 L 119.76,292.58 L 124.19,292.36 L 122.83,287.00 L 125.04,284.78 L 122.78,282.60 L 127.68,282.07 L 124.23,277.33 L 128.87,273.45 L 124.38,272.62 L 123.85,267.28 L 125.27,265.40 L 126.82,265.84 L 125.92,263.18 L 128.57,260.69 L 125.74,270.00 L 124.60,270.41 L 131.21,273.84 L 127.68,274.51 L 126.15,278.08 L 130.55,281.23 L 123.95,286.80 L 127.21,288.01 L 126.36,291.46 L 130.11,287.00 L 128.14,290.57 L 130.55,291.89 L 130.99,298.15 L 128.14,299.72 L 129.29,302.64 L 132.10,299.06 L 129.89,311.97 Z M 124.85,323.57 L 121.43,326.15 L 124.39,328.91 L 127.01,327.34 L 124.85,323.57 Z" fill="#A8C8E8" stroke="none"/>
</svg>