<svg xmlns="http://www.w3.org/2000/svg" width="800" height="500" viewBox="0 0 800 500">
<rect width="800" height="500" fill="#A8C8E8"/>
<path d="M 4.55,138.52 L 31.76,160.02 L 65.62,168.51 L 66.38,178.14 L 103.99,167.96 L 115.13,177.04 L 135.12,173.44 L 146.69,180.78 L 137.95,201.30 L 144.91,206.53 L 133.06,207.98 L 129.46,213.49 L 137.95,219.18 L 123.95,228.51 L 83.78,227.94 L 81.01,227.40 L 83.46,225.72 L 80.39,223.42 L 74.68,227.57 L 71.16,221.54 L 56.07,219.40 L 43.50,220.44 L 58.22,220.93 L 69.94,227.81 L 37.13,222.21 L 0.00,209.21 L 0.00,141.66 L 4.55,138.52 Z M 146.44,224.65 L 147.75,227.84 L 144.72,228.12 L 146.44,224.65 Z M 141.85,223.40 L 140.60,224.47 L 138.94,222.48 L 141.85,223.40 Z" fill="#E8E0D0" stroke="#B8B0A0" stroke-width="0.5"/>
<path d="M 36.97,32.11 L 55.00,43.53 L 60.22,32.55 L 67.19,33.00 L 55.38,24.07 L 94.31,41.81 L 0.00,89.78 L 0.00,30.05 L 36.97,32.11 Z" fill="#E8E0D0" stroke="#B8B0A0" stroke-width="0.5"/>
<path d="M 752.83,271.82 L 755.45,269.78 L 752.78,276.24 L 752.83,271.82 Z M 786.32,215.22 L 788.42,212.85 L 790.35,214.69 L 786.32,215.22 Z" fill="#E8E0D0" stroke="#B8B0A0" stroke-width="0.5"/>
<path d="M 62.35,2.13 L 41.75,5.12 L 20.31,30.61 L 0.00,29.88 L 0.00,0.00 L 64.06,0.00 L 62.35,2.13 Z" fill="#E8E0D0" stroke="#B8B0A0" stroke-width="0.5"/>
<path d="M 689.46,499.52 L 689.44,500.00 L 628.84,500.00 L 628.82,497.79 L 638.47,495.15 L 638.36,487.29 L 660.17,495.73 L 666.09,489.07 L 689.46,499.52 Z M 697.19,499.02 L 697.45,500.00 L 694.10,500.00 L 697.19,499.02 Z" fill="#E8E0D0" stroke="#B8B0A0" stroke-width="0.5"/>
<path d="M 557.68,390.90 L 564.14,399.53 L 559.76,395.87 L 558.37,405.80 L 564.66,402.37 L 602.29,448.84 L 644.41,482.05 L 667.18,491.80 L 658.28,495.50 L 638.36,487.29 L 638.47,495.15 L 628.82,497.79 L 628.84,500.00 L 505.97,500.00 L 500.58,497.16 L 459.25,488.93 L 447.39,460.65 L 435.52,460.65 L 441.87,459.16 L 391.15,437.72 L 401.58,455.64 L 434.13,470.67 L 408.49,490.58 L 390.12,472.21 L 353.22,465.51 L 334.97,441.44 L 338.49,420.79 L 356.46,413.07 L 349.55,413.79 L 351.55,400.33 L 324.60,392.89 L 348.48,390.73 L 344.89,383.84 L 352.84,382.62 L 359.90,370.25 L 427.37,389.74 L 453.18,380.39 L 477.31,388.99 L 485.68,385.91 L 502.27,401.39 L 520.74,400.83 L 530.05,406.35 L 555.79,399.55 L 552.40,390.13 L 557.68,390.90 Z M 410.57,452.16 L 400.26,449.68 L 409.24,450.22 L 410.57,452.16 Z" fill="#C8D8E8" stroke="#8BAABB" stroke-width="0.8"/>
<path d="M 84.62,45.52 L 104.65,43.98 L 121.64,31.52 L 158.06,26.55 L 169.39,37.42 L 182.99,32.74 L 226.35,39.28 L 281.24,38.52 L 325.93,26.46 L 327.36,21.59 L 318.38,19.60 L 349.23,23.57 L 370.96,31.34 L 420.43,22.74 L 453.17,30.86 L 454.84,38.26 L 475.83,36.72 L 456.69,31.83 L 491.84,35.60 L 549.01,65.38 L 521.27,55.49 L 511.18,54.50 L 512.63,59.46 L 508.47,54.50 L 500.12,54.50 L 527.91,75.74 L 539.71,74.90 L 518.99,64.87 L 540.50,71.19 L 545.99,79.89 L 559.81,73.05 L 569.50,73.91 L 568.97,79.22 L 562.93,77.34 L 560.00,81.78 L 574.14,78.91 L 569.30,72.70 L 561.14,72.42 L 551.74,65.35 L 581.61,75.21 L 594.14,89.62 L 609.71,94.81 L 571.38,93.75 L 560.59,103.85 L 529.29,111.79 L 510.36,109.61 L 504.64,115.32 L 495.17,112.15 L 494.61,118.03 L 484.93,115.27 L 472.80,122.27 L 450.87,118.25 L 441.47,107.60 L 430.12,107.90 L 414.96,119.10 L 417.42,124.49 L 405.70,126.28 L 403.25,143.92 L 346.78,169.87 L 345.25,180.14 L 326.33,173.71 L 317.13,163.31 L 284.74,185.02 L 241.60,185.85 L 247.90,218.32 L 226.96,222.63 L 225.73,233.77 L 214.38,241.52 L 186.13,241.39 L 187.16,232.90 L 175.47,231.95 L 166.07,219.20 L 177.37,210.15 L 155.30,212.99 L 154.75,206.14 L 147.79,213.40 L 135.19,210.48 L 144.91,206.53 L 137.95,201.30 L 146.69,180.78 L 135.12,173.44 L 115.13,177.04 L 106.66,168.06 L 92.88,167.84 L 87.78,174.16 L 66.38,178.14 L 65.62,168.51 L 31.76,160.02 L 4.55,138.52 L 0.00,138.27 L 0.00,89.77 L 84.62,45.52 Z M 154.72,221.66 L 150.39,221.43 L 149.71,219.40 L 154.72,221.66 Z M 160.14,212.99 L 158.06,217.91 L 151.21,215.93 L 160.14,212.99 Z M 230.21,15.08 L 218.19,15.75 L 223.57,13.38 L 230.21,15.08 Z M 260.10,0.00 L 262.42,0.00 L 257.77,1.13 L 260.10,0.00 Z" fill="#C8D8E8" stroke="#8BAABB" stroke-width="0.8"/>
<path d="M 268.92,330.28 L 240.96,298.43 L 150.00,247.80 L 150.40,241.34 L 159.45,233.89 L 178.19,246.35 L 188.61,245.90 L 179.56,244.59 L 186.13,241.39 L 214.38,241.52 L 225.73,233.77 L 226.96,222.63 L 247.90,218.32 L 241.60,185.85 L 284.74,185.02 L 309.38,164.11 L 345.25,180.14 L 346.78,169.87 L 403.25,143.92 L 405.70,126.28 L 417.42,124.49 L 414.96,119.10 L 430.12,107.90 L 441.47,107.60 L 450.87,118.25 L 472.80,122.27 L 484.93,115.27 L 494.61,118.03 L 495.17,112.15 L 504.64,115.32 L 510.36,109.61 L 529.29,111.79 L 560.59,103.85 L 571.38,93.75 L 609.71,94.81 L 593.15,108.83 L 590.30,100.85 L 585.47,103.10 L 579.93,108.85 L 592.62,111.23 L 604.03,142.04 L 579.26,170.47 L 566.31,209.81 L 574.14,282.48 L 558.37,284.73 L 558.37,271.72 L 566.69,266.53 L 565.81,253.68 L 557.52,255.55 L 563.27,266.81 L 544.49,273.98 L 554.44,292.43 L 560.45,287.47 L 554.98,313.66 L 552.26,302.95 L 549.15,300.30 L 544.18,299.90 L 550.71,303.64 L 541.52,308.40 L 545.99,316.65 L 538.27,322.15 L 545.19,326.98 L 552.05,323.70 L 556.93,340.47 L 545.86,344.99 L 535.05,365.61 L 555.79,399.55 L 529.11,406.25 L 520.74,400.83 L 502.27,401.39 L 485.68,385.91 L 477.31,388.99 L 453.18,380.39 L 427.37,389.74 L 359.90,370.25 L 349.38,379.63 L 268.92,330.28 Z M 554.52,390.90 L 553.38,390.03 L 553.87,389.98 L 554.52,390.90 Z M 548.39,317.02 L 551.35,313.73 L 550.04,322.22 L 548.39,317.02 Z M 617.25,300.69 L 619.62,298.90 L 620.78,299.56 L 617.25,300.69 Z M 650.00,140.44 L 648.15,141.03 L 642.33,140.67 L 650.00,140.44 Z" fill="#4A90D9" stroke="#1a5fa8" stroke-width="1.2"/>
<path d="M 443.94,378.95 L 430.74,383.40 L 356.84,366.94 L 327.36,333.30 L 332.21,305.66 L 360.18,308.98 L 376.63,322.60 L 401.57,330.58 L 430.74,354.52 L 443.94,378.95 Z M 341.25,333.80 L 340.22,330.11 L 334.96,329.56 L 331.51,334.03 L 341.25,333.80 Z M 359.91,342.51 L 348.17,348.50 L 369.25,356.43 L 374.60,354.43 L 359.91,342.51 Z" fill="#A8C8E8" stroke="none"/>
<path d="M 17.93,46.01 L 16.54,57.68 L 6.42,63.35 L 0.00,64.65 L 0.00,50.69 L 32.50,39.01 L 17.93,46.01 Z" fill="#A8C8E8" stroke="none"/>
<path d="M 307.25,299.67 L 288.74,300.80 L 288.41,292.28 L 276.10,294.85 L 258.76,283.27 L 289.86,276.31 L 298.90,292.67 L 306.62,287.74 L 307.25,299.67 Z" fill="#A8C8E8" stroke="none"/>
<path d="M 16.54,173.10 L 0.00,162.96 L 0.00,161.66 L 12.13,161.88 L 16.54,173.10 Z" fill="#A8C8E8" stroke="none"/>
<path d="M 40.10,167.12 L 39.36,168.62 L 30.43,170.10 L 40.10,167.12 Z" fill="#A8C8E8" stroke="none"/>
<path d="M 597.92,148.92 L 595.80,151.02 L 588.92,141.17 L 597.92,148.92 Z" fill="#A8C8E8" stroke="none"/>
</svg>