<svg xmlns="http://www.w3.org/2000/svg" width="800" height="500" viewBox="0 0 800 500">
<rect width="800" height="500" fill="#A8C8E8"/>
<path d="M 123.06,138.52 L 142.11,160.02 L 165.82,168.51 L 166.36,178.14 L 192.69,167.96 L 200.50,177.04 L 214.50,173.44 L 222.60,180.78 L 216.48,201.30 L 221.36,206.53 L 213.05,207.98 L 210.54,213.49 L 216.48,219.18 L 206.68,228.51 L 178.55,227.94 L 176.61,227.40 L 178.32,225.72 L 176.17,223.42 L 172.17,227.57 L 169.71,221.54 L 159.14,219.40 L 150.34,220.44 L 160.65,220.93 L 168.85,227.81 L 145.88,222.21 L 119.87,209.21 L 119.87,141.66 L 123.06,138.52 Z M 222.43,224.65 L 223.34,227.84 L 221.22,228.12 L 222.43,224.65 Z M 219.21,223.40 L 218.33,224.47 L 217.17,222.48 L 219.21,223.40 Z" fill="#E8E0D0" stroke="#B8B0A0" stroke-width="0.5"/>
<path d="M 145.76,32.11 L 158.39,43.53 L 162.04,32.55 L 166.92,33.00 L 158.66,24.07 L 185.92,41.81 L 119.87,89.78 L 119.87,30.05 L 145.76,32.11 Z" fill="#E8E0D0" stroke="#B8B0A0" stroke-width="0.5"/>
<path d="M 647.09,271.82 L 648.93,269.78 L 647.06,276.24 L 647.09,271.82 Z M 670.55,215.22 L 672.02,212.85 L 673.37,214.69 L 670.55,215.22 Z" fill="#E8E0D0" stroke="#B8B0A0" stroke-width="0.5"/>
<path d="M 163.54,2.13 L 149.11,5.12 L 134.09,30.61 L 119.87,29.88 L 119.87,0.00 L 164.73,0.00 L 163.54,2.13 Z" fill="#E8E0D0" stroke="#B8B0A0" stroke-width="0.5"/>
<path d="M 602.72,499.52 L 602.70,500.00 L 560.26,500.00 L 560.25,497.79 L 567.01,495.15 L 566.93,487.29 L 582.20,495.73 L 586.35,489.07 L 602.72,499.52 Z M 608.13,499.02 L 608.31,500.00 L 605.96,500.00 L 608.13,499.02 Z" fill="#E8E0D0" stroke="#B8B0A0" stroke-width="0.5"/>
<path d="M 510.43,390.90 L 514.95,399.53 L 511.88,395.87 L 510.91,405.80 L 515.31,402.37 L 541.67,448.84 L 571.17,482.05 L 587.11,491.80 L 580.88,495.50 L 566.93,487.29 L 567.01,495.15 L 560.25,497.79 L 560.26,500.00 L 474.21,500.00 L 470.44,497.16 L 441.49,488.93 L 433.19,460.65 L 424.87,460.65 L 429.32,459.16 L 393.80,437.72 L 401.11,455.64 L 423.90,470.67 L 405.95,490.58 L 393.08,472.21 L 367.24,465.51 L 354.46,441.44 L 356.92,420.79 L 369.51,413.07 L 364.67,413.79 L 366.07,400.33 L 347.20,392.89 L 363.92,390.73 L 361.41,383.84 L 366.97,382.62 L 371.92,370.25 L 419.17,389.74 L 437.25,380.39 L 454.14,388.99 L 460.01,385.91 L 471.62,401.39 L 484.56,400.83 L 491.08,406.35 L 509.10,399.55 L 506.73,390.13 L 510.43,390.90 Z M 407.40,452.16 L 400.18,449.68 L 406.47,450.22 L 407.40,452.16 Z" fill="#C8D8E8" stroke="#8BAABB" stroke-width="0.8"/>
<path d="M 179.13,45.52 L 193.16,43.98 L 205.06,31.52 L 230.57,26.55 L 238.50,37.42 L 248.02,32.74 L 278.39,39.28 L 316.83,38.52 L 348.13,26.46 L 349.13,21.59 L 342.84,19.60 L 364.44,23.57 L 379.66,31.34 L 414.31,22.74 L 437.24,30.86 L 438.41,38.26 L 453.10,36.72 L 439.70,31.83 L 464.32,35.60 L 504.36,65.38 L 484.93,55.49 L 477.86,54.50 L 478.87,59.46 L 475.97,54.50 L 470.12,54.50 L 489.58,75.74 L 497.84,74.90 L 483.33,64.87 L 498.39,71.19 L 502.24,79.89 L 511.92,73.05 L 518.70,73.91 L 518.33,79.22 L 514.10,77.34 L 512.05,81.78 L 521.95,78.91 L 518.56,72.70 L 512.85,72.42 L 506.27,65.35 L 527.18,75.21 L 535.96,89.62 L 546.87,94.81 L 520.02,93.75 L 512.47,103.85 L 490.55,111.79 L 477.29,109.61 L 473.28,115.32 L 466.65,112.15 L 466.26,118.03 L 459.48,115.27 L 450.98,122.27 L 435.62,118.25 L 429.04,107.60 L 421.10,107.90 L 410.48,119.10 L 412.20,124.49 L 403.99,126.28 L 402.28,143.92 L 362.73,169.87 L 361.66,180.14 L 348.40,173.71 L 341.97,163.31 L 319.28,185.02 L 289.07,185.85 L 293.48,218.32 L 278.82,222.63 L 277.96,233.77 L 270.01,241.52 L 250.22,241.39 L 250.94,232.90 L 242.76,231.95 L 236.17,219.20 L 244.09,210.15 L 228.63,212.99 L 228.25,206.14 L 223.37,213.40 L 214.55,210.48 L 221.36,206.53 L 216.48,201.30 L 222.60,180.78 L 214.50,173.44 L 200.50,177.04 L 194.56,168.06 L 184.92,167.84 L 181.35,174.16 L 166.36,178.14 L 165.82,168.51 L 142.11,160.02 L 123.06,138.52 L 119.87,138.27 L 119.87,89.77 L 179.13,45.52 Z M 228.22,221.66 L 225.19,221.43 L 224.71,219.40 L 228.22,221.66 Z M 232.02,212.99 L 230.57,217.91 L 225.76,215.93 L 232.02,212.99 Z M 281.09,15.08 L 272.68,15.75 L 276.44,13.38 L 281.09,15.08 Z M 302.03,0.00 L 303.65,0.00 L 300.39,1.13 L 302.03,0.00 Z" fill="#C8D8E8" stroke="#8BAABB" stroke-width="0.8"/>
<path d="M 308.20,330.28 L 288.62,298.43 L 224.92,247.80 L 225.20,241.34 L 231.53,233.89 L 244.66,246.35 L 251.96,245.90 L 245.62,244.59 L 250.22,241.39 L 270.01,241.52 L 277.96,233.77 L 278.82,222.63 L 293.48,218.32 L 289.07,185.85 L 319.28,185.02 L 336.54,164.11 L 361.66,180.14 L 362.73,169.87 L 402.28,143.92 L 403.99,126.28 L 412.20,124.49 L 410.48,119.10 L 421.10,107.90 L 429.04,107.60 L 435.62,118.25 L 450.98,122.27 L 459.48,115.27 L 466.26,118.03 L 466.65,112.15 L 473.28,115.32 L 477.29,109.61 L 490.55,111.79 L 512.47,103.85 L 520.02,93.75 L 546.87,94.81 L 535.27,108.83 L 533.27,100.85 L 529.89,103.10 L 526.01,108.85 L 534.90,111.23 L 542.89,142.04 L 525.54,170.47 L 516.47,209.81 L 521.95,282.48 L 510.91,284.73 L 510.91,271.72 L 516.73,266.53 L 516.12,253.68 L 510.32,255.55 L 514.35,266.81 L 501.19,273.98 L 508.16,292.43 L 512.37,287.47 L 508.54,313.66 L 506.63,302.95 L 504.45,300.30 L 500.97,299.90 L 505.54,303.64 L 499.11,308.40 L 502.24,316.65 L 496.83,322.15 L 501.68,326.98 L 506.49,323.70 L 509.90,340.47 L 502.15,344.99 L 494.58,365.61 L 509.10,399.55 L 490.42,406.25 L 484.56,400.83 L 471.62,401.39 L 460.01,385.91 L 454.14,388.99 L 437.25,380.39 L 419.17,389.74 L 371.92,370.25 L 364.55,379.63 L 308.20,330.28 Z M 508.21,390.90 L 507.41,390.03 L 507.76,389.98 L 508.21,390.90 Z M 503.92,317.02 L 506.00,313.73 L 505.08,322.22 L 503.92,317.02 Z M 552.15,300.69 L 553.81,298.90 L 554.62,299.56 L 552.15,300.69 Z M 575.08,140.44 L 573.78,141.03 L 569.71,140.67 L 575.08,140.44 Z" fill="#4A90D9" stroke="#1a5fa8" stroke-width="1.2"/>
<path d="M 430.77,378.95 L 421.53,383.40 L 369.77,366.94 L 349.13,333.30 L 352.52,305.66 L 372.11,308.98 L 383.63,322.60 L 401.10,330.58 L 421.53,354.52 L 430.77,378.95 Z M 358.86,333.80 L 358.14,330.11 L 354.45,329.56 L 352.03,334.03 L 358.86,333.80 Z M 371.92,342.51 L 363.70,348.50 L 378.47,356.43 L 382.21,354.43 L 371.92,342.51 Z" fill="#A8C8E8" stroke="none"/>
<path d="M 132.43,46.01 L 131.45,57.68 L 124.37,63.35 L 119.87,64.65 L 119.87,50.69 L 142.63,39.01 L 132.43,46.01 Z" fill="#A8C8E8" stroke="none"/>
<path d="M 335.04,299.67 L 322.08,300.80 L 321.85,292.28 L 313.23,294.85 L 301.08,283.27 L 322.86,276.31 L 329.20,292.67 L 334.60,287.74 L 335.04,299.67 Z" fill="#A8C8E8" stroke="none"/>
<path d="M 131.45,173.10 L 119.87,162.96 L 119.87,161.66 L 128.37,161.88 L 131.45,173.10 Z" fill="#A8C8E8" stroke="none"/>
<path d="M 147.95,167.12 L 147.43,168.62 L 141.18,170.10 L 147.95,167.12 Z" fill="#A8C8E8" stroke="none"/>
<path d="M 538.61,148.92 L 537.13,151.02 L 532.31,141.17 L 538.61,148.92 Z" fill="#A8C8E8" stroke="none"/>
</svg>