<svg xmlns="http://www.w3.org/2000/svg" width="800" height="500" viewBox="0 0 800 500">
<rect width="800" height="500" fill="#A8C8E8"/>
<path d="M 800.00,270.72 L 800.00,360.10 L 784.02,353.71 L 770.40,363.85 L 751.14,367.71 L 722.13,356.66 L 707.07,358.96 L 695.40,347.81 L 692.02,350.30 L 686.04,331.64 L 700.95,323.38 L 699.81,309.45 L 735.64,267.24 L 757.43,254.60 L 776.45,251.61 L 780.50,258.39 L 798.70,260.35 L 791.79,271.59 L 800.00,270.72 Z" fill="#E8E0D0" stroke="#B8B0A0" stroke-width="0.5"/>
<path d="M 666.80,472.93 L 696.48,474.45 L 700.21,466.27 L 691.43,462.93 L 687.15,451.12 L 672.27,451.24 L 655.66,431.07 L 645.07,428.14 L 649.75,406.52 L 670.27,391.70 L 668.02,384.63 L 659.05,383.85 L 663.36,372.78 L 680.01,387.34 L 683.45,393.40 L 680.45,397.86 L 702.33,399.96 L 694.45,389.39 L 697.51,385.64 L 703.82,389.72 L 708.46,406.09 L 721.74,416.43 L 734.42,419.15 L 738.70,411.29 L 735.72,406.37 L 741.26,400.78 L 752.06,417.77 L 751.47,466.27 L 784.99,475.70 L 800.00,474.68 L 800.00,477.47 L 665.30,477.47 L 666.80,472.93 Z" fill="#E8E0D0" stroke="#B8B0A0" stroke-width="0.5"/>
<path d="M 791.79,271.59 L 798.70,260.35 L 780.50,258.39 L 776.45,251.61 L 757.43,254.60 L 735.64,267.24 L 699.81,309.45 L 699.41,324.67 L 686.38,316.10 L 692.16,287.56 L 689.94,277.00 L 677.20,269.25 L 646.80,280.33 L 646.95,286.36 L 629.65,283.05 L 622.90,290.07 L 600.92,290.34 L 600.60,286.75 L 587.81,288.81 L 558.58,269.26 L 550.80,269.37 L 542.92,282.93 L 529.26,276.46 L 526.37,265.71 L 521.01,271.28 L 523.72,281.75 L 515.57,284.66 L 497.92,253.23 L 492.93,259.10 L 460.71,255.40 L 465.23,235.08 L 458.71,232.03 L 443.78,238.79 L 421.59,225.38 L 406.59,210.94 L 408.11,204.98 L 399.40,188.87 L 388.63,186.58 L 371.72,195.99 L 364.62,193.97 L 343.10,163.40 L 336.43,166.37 L 330.96,160.42 L 322.40,160.71 L 304.28,142.31 L 280.44,132.89 L 276.44,113.90 L 247.27,107.83 L 240.84,114.02 L 233.35,110.84 L 231.05,125.97 L 222.86,136.38 L 215.55,135.77 L 208.06,119.13 L 184.73,104.84 L 159.14,97.88 L 162.31,86.32 L 157.74,81.55 L 151.93,82.14 L 137.86,69.79 L 122.14,71.41 L 111.32,65.46 L 94.71,36.48 L 90.95,34.88 L 81.78,48.27 L 70.97,45.59 L 68.17,31.48 L 75.51,24.68 L 73.79,22.53 L 800.00,22.53 L 800.00,270.72 L 791.79,271.59 Z" fill="#C8D8E8" stroke="#8BAABB" stroke-width="0.8"/>
<path d="M 75.51,24.68 L 68.17,31.48 L 70.97,45.59 L 81.78,48.27 L 90.95,34.88 L 94.71,36.48 L 111.32,65.46 L 122.14,71.41 L 138.89,70.29 L 161.89,85.68 L 159.14,97.88 L 184.73,104.84 L 209.74,122.09 L 201.42,122.97 L 170.76,153.86 L 171.76,164.55 L 161.22,177.68 L 163.95,192.66 L 156.24,199.10 L 150.32,218.18 L 168.35,232.82 L 178.10,237.36 L 182.24,229.22 L 203.72,245.85 L 219.97,251.41 L 227.74,267.68 L 233.87,265.42 L 262.12,287.05 L 272.66,282.76 L 295.69,299.19 L 312.75,297.99 L 317.21,311.92 L 340.60,315.46 L 349.79,323.37 L 356.22,313.63 L 384.95,322.39 L 383.69,316.17 L 401.09,310.64 L 411.67,320.22 L 431.16,324.80 L 433.23,344.51 L 444.12,345.75 L 472.99,364.86 L 492.78,356.89 L 506.25,376.79 L 517.49,370.62 L 534.27,373.59 L 560.64,387.38 L 580.78,375.81 L 584.77,388.06 L 596.70,392.17 L 603.83,386.51 L 614.31,389.93 L 631.69,383.88 L 638.18,390.73 L 650.08,364.37 L 637.79,338.75 L 641.12,311.92 L 649.50,292.42 L 645.83,281.65 L 677.20,269.25 L 689.03,275.87 L 692.23,286.48 L 685.26,309.35 L 694.52,324.45 L 684.55,335.94 L 690.54,339.65 L 692.02,350.30 L 695.40,347.81 L 707.07,358.96 L 722.13,356.66 L 751.14,367.71 L 770.40,363.85 L 784.02,353.71 L 800.00,360.10 L 800.00,474.68 L 784.99,475.70 L 751.47,466.27 L 752.06,417.77 L 741.26,400.78 L 735.72,406.37 L 738.70,411.29 L 734.42,419.15 L 721.74,416.43 L 708.46,406.09 L 703.82,389.72 L 697.51,385.64 L 694.45,389.39 L 702.33,399.96 L 680.45,397.86 L 683.45,393.40 L 680.01,387.34 L 662.58,373.61 L 659.05,383.85 L 668.02,384.63 L 670.27,391.70 L 649.75,406.52 L 645.07,428.14 L 655.66,431.07 L 672.27,451.24 L 687.15,451.12 L 691.43,462.93 L 700.21,466.27 L 696.48,474.45 L 666.80,472.93 L 665.30,477.47 L 0.00,477.47 L 0.00,22.53 L 73.79,22.53 L 75.51,24.68 Z" fill="#C8D8E8" stroke="#8BAABB" stroke-width="0.8"/>
<path d="M 649.50,292.42 L 641.12,311.92 L 637.79,338.75 L 650.00,363.05 L 642.41,388.00 L 638.18,390.73 L 631.69,383.88 L 614.31,389.93 L 603.83,386.51 L 596.70,392.17 L 584.77,388.06 L 580.78,375.81 L 560.64,387.38 L 534.27,373.59 L 517.49,370.62 L 506.25,376.79 L 492.12,356.66 L 467.32,363.33 L 465.29,356.89 L 456.48,357.26 L 444.12,345.75 L 432.43,343.94 L 431.16,324.80 L 411.67,320.22 L 401.09,310.64 L 383.69,316.17 L 384.95,322.39 L 356.22,313.63 L 349.79,323.37 L 340.60,315.46 L 317.21,311.92 L 312.75,297.99 L 295.69,299.19 L 272.66,282.76 L 262.12,287.05 L 233.87,265.42 L 227.74,267.68 L 219.97,251.41 L 203.72,245.85 L 182.24,229.22 L 178.10,237.36 L 168.35,232.82 L 150.00,213.94 L 163.95,192.66 L 161.22,177.68 L 171.76,164.55 L 170.76,153.86 L 202.40,122.26 L 209.94,123.76 L 215.55,135.77 L 222.86,136.38 L 231.05,125.97 L 233.35,110.84 L 240.84,114.02 L 247.27,107.83 L 276.44,113.90 L 280.44,132.89 L 304.28,142.31 L 322.40,160.71 L 330.96,160.42 L 336.43,166.37 L 343.10,163.40 L 364.62,193.97 L 371.72,195.99 L 388.63,186.58 L 399.40,188.87 L 408.11,204.98 L 406.59,210.94 L 421.59,225.38 L 443.78,238.79 L 458.71,232.03 L 465.23,235.08 L 460.10,246.21 L 462.06,256.23 L 492.93,259.10 L 497.92,253.23 L 514.49,284.23 L 523.72,281.75 L 521.01,271.28 L 526.37,265.71 L 529.26,276.46 L 542.92,282.93 L 550.80,269.37 L 557.47,269.18 L 587.81,288.81 L 622.90,290.07 L 629.65,283.05 L 646.95,286.36 L 649.50,292.42 Z" fill="#4A90D9" stroke="#1a5fa8" stroke-width="1.2"/>
<path d="M 782.59,101.24 L 779.64,93.10 L 781.92,74.97 L 798.40,80.19 L 800.00,78.71 L 800.00,95.11 L 782.59,101.24 Z" fill="#A8C8E8" stroke="none"/>
<path d="M 708.89,28.03 L 697.52,23.61 L 697.49,22.53 L 711.32,22.53 L 708.89,28.03 Z" fill="#A8C8E8" stroke="none"/>
<path d="M 224.01,95.06 L 216.21,89.73 L 220.83,88.58 L 221.21,77.81 L 227.74,79.57 L 224.34,84.86 L 228.77,89.85 L 224.01,95.06 Z" fill="#A8C8E8" stroke="none"/>
<path d="M 246.62,88.74 L 237.27,97.40 L 231.79,94.05 L 234.52,81.88 L 246.62,88.74 Z" fill="#A8C8E8" stroke="none"/>
<path d="M 341.30,35.70 L 335.08,29.63 L 328.73,32.20 L 321.58,27.04 L 335.72,22.53 L 338.98,22.53 L 337.92,24.80 L 353.83,36.64 L 341.30,35.70 Z" fill="#A8C8E8" stroke="none"/>
<path d="M 565.71,57.20 L 554.53,61.60 L 549.05,79.39 L 543.20,83.13 L 539.89,76.10 L 551.87,60.82 L 556.59,41.35 L 561.91,42.87 L 565.71,57.20 Z" fill="#A8C8E8" stroke="none"/>
<path d="M 799.03,221.77 L 793.77,222.01 L 789.46,214.22 L 796.50,220.10 L 796.50,214.34 L 800.00,213.11 L 800.00,219.68 L 799.03,221.77 Z M 799.48,209.66 L 800.00,209.51 L 800.00,210.22 L 799.48,209.66 Z M 797.76,193.78 L 786.97,201.29 L 784.78,199.01 L 796.28,192.84 L 800.00,193.61 L 800.00,195.19 L 797.76,193.78 Z" fill="#A8C8E8" stroke="none"/>
<path d="M 505.45,84.73 L 500.44,75.89 L 490.64,79.70 L 475.70,70.10 L 480.65,61.44 L 510.32,70.22 L 505.45,84.73 Z" fill="#A8C8E8" stroke="none"/>
<path d="M 399.80,105.31 L 398.33,113.74 L 394.32,101.47 L 399.80,105.31 Z" fill="#A8C8E8" stroke="none"/>
<path d="M 796.72,57.45 L 796.77,43.20 L 800.00,43.62 L 800.00,54.07 L 796.72,57.45 Z" fill="#A8C8E8" stroke="none"/>
<path d="M 634.70,22.79 L 628.73,23.79 L 629.61,22.53 L 635.30,22.53 L 634.70,22.79 Z" fill="#A8C8E8" stroke="none"/>
<path d="M 690.73,25.38 L 683.61,43.37 L 676.48,28.03 L 684.53,30.23 L 676.86,25.60 L 679.71,22.53 L 690.26,22.53 L 690.73,25.38 Z" fill="#A8C8E8" stroke="none"/>
<path d="M 668.76,67.48 L 641.62,45.32 L 646.42,45.55 L 674.51,62.32 L 668.76,67.48 Z" fill="#A8C8E8" stroke="none"/>
<path d="M 597.18,66.39 L 575.93,72.73 L 576.50,65.33 L 586.85,57.06 L 597.18,66.39 Z" fill="#A8C8E8" stroke="none"/>
<path d="M 529.06,93.10 L 528.01,86.17 L 537.03,91.21 L 537.27,96.33 L 529.06,93.10 Z" fill="#A8C8E8" stroke="none"/>
<path d="M 543.40,123.76 L 541.79,125.24 L 536.46,114.87 L 545.21,110.97 L 543.40,123.76 Z" fill="#A8C8E8" stroke="none"/>
<path d="M 392.43,40.90 L 399.47,39.89 L 393.47,35.92 L 396.88,31.20 L 401.66,43.20 L 390.90,46.99 L 392.43,40.90 Z" fill="#A8C8E8" stroke="none"/>
<path d="M 404.68,62.53 L 391.78,62.94 L 389.30,57.20 L 394.70,52.60 L 413.33,53.81 L 404.68,62.53 Z" fill="#A8C8E8" stroke="none"/>
<path d="M 371.99,75.63 L 365.84,80.60 L 365.48,72.52 L 371.89,71.58 L 371.99,75.63 Z" fill="#A8C8E8" stroke="none"/>
<path d="M 359.59,52.00 L 352.39,48.14 L 361.16,42.59 L 364.87,48.67 L 359.59,52.00 Z" fill="#A8C8E8" stroke="none"/>
<path d="M 444.76,129.39 L 438.13,111.26 L 440.68,114.69 L 444.76,129.39 Z" fill="#A8C8E8" stroke="none"/>
<path d="M 444.46,129.47 L 444.76,129.39 L 444.87,129.47 L 444.46,129.47 Z" fill="#A8C8E8" stroke="none"/>
<path d="M 500.89,151.29 L 496.26,154.35 L 495.79,139.53 L 500.89,151.29 Z" fill="#A8C8E8" stroke="none"/>
<path d="M 790.71,233.36 L 795.41,239.55 L 781.74,239.45 L 778.92,233.01 L 790.71,233.36 Z" fill="#A8C8E8" stroke="none"/>
</svg>