<svg xmlns="http://www.w3.org/2000/svg" width="800" height="500" viewBox="0 0 800 500">
<rect width="800" height="500" fill="#A8C8E8"/>
<path d="M 800.00,272.77 L 800.00,371.00 L 784.02,363.98 L 770.40,375.13 L 751.14,379.37 L 722.13,367.23 L 707.07,369.75 L 695.40,357.50 L 692.02,360.23 L 686.04,339.73 L 700.95,330.65 L 699.81,315.34 L 735.64,268.95 L 757.43,255.05 L 776.45,251.77 L 780.50,259.22 L 798.70,261.37 L 791.79,273.73 L 800.00,272.77 Z" fill="#E8E0D0" stroke="#B8B0A0" stroke-width="0.5"/>
<path d="M 666.80,495.01 L 696.48,496.69 L 700.21,487.70 L 691.43,484.02 L 687.15,471.04 L 672.27,471.18 L 655.66,449.01 L 645.07,445.78 L 649.75,422.03 L 670.27,405.73 L 668.02,397.97 L 659.05,397.11 L 663.36,384.94 L 680.01,400.94 L 683.45,407.61 L 680.45,412.51 L 702.33,414.81 L 694.45,403.20 L 697.51,399.08 L 703.82,403.56 L 708.46,421.55 L 721.74,432.92 L 734.42,435.90 L 738.70,427.27 L 735.72,421.86 L 741.26,415.72 L 752.06,434.39 L 751.47,487.70 L 784.99,498.06 L 800.00,496.94 L 800.00,500.00 L 665.30,500.00 L 666.80,495.01 Z" fill="#E8E0D0" stroke="#B8B0A0" stroke-width="0.5"/>
<path d="M 791.79,273.73 L 798.70,261.37 L 780.50,259.22 L 776.45,251.77 L 757.43,255.05 L 735.64,268.95 L 699.81,315.34 L 699.41,332.07 L 686.38,322.65 L 692.16,291.28 L 689.94,279.67 L 677.20,271.16 L 646.80,283.33 L 646.95,289.96 L 629.65,286.32 L 622.90,294.04 L 600.92,294.33 L 600.60,290.39 L 587.81,292.65 L 558.58,271.17 L 550.80,271.29 L 542.92,286.20 L 529.26,279.08 L 526.37,267.27 L 521.01,273.39 L 523.72,284.90 L 515.57,288.10 L 497.92,253.55 L 492.93,260.00 L 460.71,255.94 L 465.23,233.61 L 458.71,230.25 L 443.78,237.68 L 421.59,222.95 L 406.59,207.07 L 408.11,200.52 L 399.40,182.82 L 388.63,180.30 L 371.72,190.64 L 364.62,188.42 L 343.10,154.83 L 336.43,158.09 L 330.96,151.54 L 322.40,151.87 L 304.28,131.65 L 280.44,121.29 L 276.44,100.41 L 247.27,93.75 L 240.84,100.55 L 233.35,97.05 L 231.05,113.68 L 222.86,125.12 L 215.55,124.45 L 208.06,106.16 L 184.73,90.46 L 159.14,82.81 L 162.31,70.10 L 157.74,64.87 L 151.93,65.51 L 137.86,51.94 L 122.14,53.72 L 111.32,47.17 L 94.71,15.33 L 90.95,13.57 L 81.78,28.29 L 70.97,25.34 L 68.17,9.84 L 75.51,2.36 L 73.79,0.00 L 800.00,0.00 L 800.00,272.77 L 791.79,273.73 Z" fill="#C8D8E8" stroke="#8BAABB" stroke-width="0.8"/>
<path d="M 75.51,2.36 L 68.17,9.84 L 70.97,25.34 L 81.78,28.29 L 90.95,13.57 L 94.71,15.33 L 111.32,47.17 L 122.14,53.72 L 138.89,52.48 L 161.89,69.40 L 159.14,82.81 L 184.73,90.46 L 209.74,109.42 L 201.42,110.39 L 170.76,144.34 L 171.76,156.09 L 161.22,170.52 L 163.95,186.98 L 156.24,194.06 L 150.32,215.03 L 168.35,231.11 L 178.10,236.11 L 182.24,227.16 L 203.72,245.44 L 219.97,251.55 L 227.74,269.43 L 233.87,266.95 L 262.12,290.72 L 272.66,286.01 L 295.69,304.06 L 312.75,302.74 L 317.21,318.05 L 340.60,321.95 L 349.79,330.64 L 356.22,319.93 L 384.95,329.56 L 383.69,322.73 L 401.09,316.64 L 411.67,327.17 L 431.16,332.21 L 433.23,353.87 L 444.12,355.23 L 472.99,376.24 L 492.78,367.48 L 506.25,389.35 L 517.49,382.57 L 534.27,385.83 L 560.64,400.99 L 580.78,388.27 L 584.77,401.74 L 596.70,406.25 L 603.83,400.03 L 614.31,403.79 L 631.69,397.14 L 638.18,404.67 L 650.08,375.70 L 637.79,347.54 L 641.12,318.05 L 649.50,296.62 L 645.83,284.78 L 677.20,271.16 L 689.03,278.44 L 692.23,290.09 L 685.26,315.23 L 694.52,331.82 L 684.55,344.46 L 690.54,348.53 L 692.02,360.23 L 695.40,357.50 L 707.07,369.75 L 722.13,367.23 L 751.14,379.37 L 770.40,375.13 L 784.02,363.98 L 800.00,371.00 L 800.00,496.94 L 784.99,498.06 L 751.47,487.70 L 752.06,434.39 L 741.26,415.72 L 735.72,421.86 L 738.70,427.27 L 734.42,435.90 L 721.74,432.92 L 708.46,421.55 L 703.82,403.56 L 697.51,399.08 L 694.45,403.20 L 702.33,414.81 L 680.45,412.51 L 683.45,407.61 L 680.01,400.94 L 662.58,385.86 L 659.05,397.11 L 668.02,397.97 L 670.27,405.73 L 649.75,422.03 L 645.07,445.78 L 655.66,449.01 L 672.27,471.18 L 687.15,471.04 L 691.43,484.02 L 700.21,487.70 L 696.48,496.69 L 666.80,495.01 L 665.30,500.00 L 0.00,500.00 L 0.00,0.00 L 73.79,0.00 L 75.51,2.36 Z" fill="#C8D8E8" stroke="#8BAABB" stroke-width="0.8"/>
<path d="M 649.50,296.62 L 641.12,318.05 L 637.79,347.54 L 650.00,374.25 L 642.41,401.67 L 638.18,404.67 L 631.69,397.14 L 614.31,403.79 L 603.83,400.03 L 596.70,406.25 L 584.77,401.74 L 580.78,388.27 L 560.64,400.99 L 534.27,385.83 L 517.49,382.57 L 506.25,389.35 L 492.12,367.22 L 467.32,374.55 L 465.29,367.48 L 456.48,367.88 L 444.12,355.23 L 432.43,353.24 L 431.16,332.21 L 411.67,327.17 L 401.09,316.64 L 383.69,322.73 L 384.95,329.56 L 356.22,319.93 L 349.79,330.64 L 340.60,321.95 L 317.21,318.05 L 312.75,302.74 L 295.69,304.06 L 272.66,286.01 L 262.12,290.72 L 233.87,266.95 L 227.74,269.43 L 219.97,251.55 L 203.72,245.44 L 182.24,227.16 L 178.10,236.11 L 168.35,231.11 L 150.00,210.36 L 163.95,186.98 L 161.22,170.52 L 171.76,156.09 L 170.76,144.34 L 202.40,109.60 L 209.94,111.25 L 215.55,124.45 L 222.86,125.12 L 231.05,113.68 L 233.35,97.05 L 240.84,100.55 L 247.27,93.75 L 276.44,100.41 L 280.44,121.29 L 304.28,131.65 L 322.40,151.87 L 330.96,151.54 L 336.43,158.09 L 343.10,154.83 L 364.62,188.42 L 371.72,190.64 L 388.63,180.30 L 399.40,182.82 L 408.11,200.52 L 406.59,207.07 L 421.59,222.95 L 443.78,237.68 L 458.71,230.25 L 465.23,233.61 L 460.10,245.84 L 462.06,256.85 L 492.93,260.00 L 497.92,253.55 L 514.49,287.62 L 523.72,284.90 L 521.01,273.39 L 526.37,267.27 L 529.26,279.08 L 542.92,286.20 L 550.80,271.29 L 557.47,271.08 L 587.81,292.65 L 622.90,294.04 L 629.65,286.32 L 646.95,289.96 L 649.50,296.62 Z" fill="#4A90D9" stroke="#1a5fa8" stroke-width="1.2"/>
<path d="M 782.59,86.51 L 779.64,77.56 L 781.92,57.63 L 798.40,63.37 L 800.00,61.75 L 800.00,79.77 L 782.59,86.51 Z" fill="#A8C8E8" stroke="none"/>
<path d="M 708.89,6.04 L 697.52,1.18 L 697.49,0.00 L 711.32,0.00 L 708.89,6.04 Z" fill="#A8C8E8" stroke="none"/>
<path d="M 224.01,79.71 L 216.21,73.85 L 220.83,72.59 L 221.21,60.75 L 227.74,62.69 L 224.34,68.50 L 228.77,73.99 L 224.01,79.71 Z" fill="#A8C8E8" stroke="none"/>
<path d="M 246.62,72.77 L 237.27,82.28 L 231.79,78.60 L 234.52,65.22 L 246.62,72.77 Z" fill="#A8C8E8" stroke="none"/>
<path d="M 341.30,14.47 L 335.08,7.80 L 328.73,10.63 L 321.58,4.96 L 335.72,0.00 L 338.98,0.00 L 337.92,2.49 L 353.83,15.51 L 341.30,14.47 Z" fill="#A8C8E8" stroke="none"/>
<path d="M 565.71,38.11 L 554.53,42.94 L 549.05,62.49 L 543.20,66.60 L 539.89,58.87 L 551.87,42.08 L 556.59,20.68 L 561.91,22.36 L 565.71,38.11 Z" fill="#A8C8E8" stroke="none"/>
<path d="M 799.03,218.97 L 793.77,219.24 L 789.46,210.68 L 796.50,217.14 L 796.50,210.81 L 800.00,209.46 L 800.00,216.68 L 799.03,218.97 Z M 799.48,205.66 L 800.00,205.50 L 800.00,206.28 L 799.48,205.66 Z M 797.76,188.21 L 786.97,196.46 L 784.78,193.95 L 796.28,187.18 L 800.00,188.02 L 800.00,189.76 L 797.76,188.21 Z" fill="#A8C8E8" stroke="none"/>
<path d="M 505.45,68.36 L 500.44,58.65 L 490.64,62.83 L 475.70,52.27 L 480.65,42.76 L 510.32,52.41 L 505.45,68.36 Z" fill="#A8C8E8" stroke="none"/>
<path d="M 399.80,90.98 L 398.33,100.25 L 394.32,86.76 L 399.80,90.98 Z" fill="#A8C8E8" stroke="none"/>
<path d="M 796.72,38.38 L 796.77,22.72 L 800.00,23.18 L 800.00,34.66 L 796.72,38.38 Z" fill="#A8C8E8" stroke="none"/>
<path d="M 634.70,0.28 L 628.73,1.39 L 629.61,0.00 L 635.30,0.00 L 634.70,0.28 Z" fill="#A8C8E8" stroke="none"/>
<path d="M 690.73,3.13 L 683.61,22.90 L 676.48,6.04 L 684.53,8.46 L 676.86,3.37 L 679.71,0.00 L 690.26,0.00 L 690.73,3.13 Z" fill="#A8C8E8" stroke="none"/>
<path d="M 668.76,49.40 L 641.62,25.04 L 646.42,25.29 L 674.51,43.73 L 668.76,49.40 Z" fill="#A8C8E8" stroke="none"/>
<path d="M 597.18,48.21 L 575.93,55.17 L 576.50,47.03 L 586.85,37.95 L 597.18,48.21 Z" fill="#A8C8E8" stroke="none"/>
<path d="M 529.06,77.56 L 528.01,69.94 L 537.03,75.48 L 537.27,81.11 L 529.06,77.56 Z" fill="#A8C8E8" stroke="none"/>
<path d="M 543.40,111.25 L 541.79,112.88 L 536.46,101.49 L 545.21,97.20 L 543.40,111.25 Z" fill="#A8C8E8" stroke="none"/>
<path d="M 392.43,20.19 L 399.47,19.08 L 393.47,14.72 L 396.88,9.52 L 401.66,22.72 L 390.90,26.88 L 392.43,20.19 Z" fill="#A8C8E8" stroke="none"/>
<path d="M 404.68,43.96 L 391.78,44.41 L 389.30,38.11 L 394.70,33.04 L 413.33,34.38 L 404.68,43.96 Z" fill="#A8C8E8" stroke="none"/>
<path d="M 371.99,58.35 L 365.84,63.82 L 365.48,54.94 L 371.89,53.90 L 371.99,58.35 Z" fill="#A8C8E8" stroke="none"/>
<path d="M 359.59,32.39 L 352.39,28.14 L 361.16,22.04 L 364.87,28.73 L 359.59,32.39 Z" fill="#A8C8E8" stroke="none"/>
<path d="M 444.76,117.44 L 438.13,97.51 L 440.68,101.29 L 444.76,117.44 Z" fill="#A8C8E8" stroke="none"/>
<path d="M 444.46,117.53 L 444.76,117.44 L 444.87,117.53 L 444.46,117.53 Z" fill="#A8C8E8" stroke="none"/>
<path d="M 500.89,141.51 L 496.26,144.87 L 495.79,128.58 L 500.89,141.51 Z" fill="#A8C8E8" stroke="none"/>
<path d="M 790.71,231.71 L 795.41,238.51 L 781.74,238.40 L 778.92,231.33 L 790.71,231.71 Z" fill="#A8C8E8" stroke="none"/>
</svg>