<svg xmlns="http://www.w3.org/2000/svg" width="800" height="500" viewBox="0 0 800 500">
<rect width="800" height="500" fill="#A8C8E8"/>
<path d="M 760.98,14.05 L 781.78,24.58 L 800.00,27.00 L 800.00,94.30 L 796.50,94.13 L 777.96,98.90 L 772.96,111.90 L 766.96,113.53 L 764.40,129.05 L 751.12,136.30 L 701.53,129.38 L 696.19,123.87 L 686.35,126.08 L 690.93,128.89 L 679.60,126.10 L 655.03,127.62 L 626.36,123.40 L 600.24,125.39 L 586.30,120.23 L 560.41,118.57 L 538.37,120.12 L 531.37,115.97 L 519.16,117.82 L 518.14,114.38 L 489.84,113.05 L 480.61,103.47 L 483.55,100.80 L 475.10,92.81 L 471.57,78.84 L 465.24,75.50 L 468.29,73.96 L 461.41,73.68 L 457.80,69.58 L 414.14,68.90 L 402.39,73.20 L 384.97,74.20 L 375.78,80.97 L 359.80,80.71 L 329.22,90.23 L 303.63,86.72 L 298.45,83.20 L 260.72,83.40 L 246.41,78.73 L 243.39,74.84 L 216.91,70.72 L 189.68,62.74 L 194.06,59.67 L 180.65,53.77 L 152.08,47.35 L 131.19,47.42 L 113.12,44.17 L 92.78,24.86 L 91.39,18.38 L 75.20,12.04 L 76.38,10.02 L 81.22,11.53 L 83.17,8.16 L 77.46,5.40 L 64.94,5.31 L 65.34,0.00 L 748.28,0.00 L 760.98,14.05 Z M 313.69,96.81 L 312.01,98.08 L 309.92,96.57 L 313.69,96.81 Z M 275.97,90.33 L 272.62,88.93 L 280.01,88.31 L 281.16,90.46 L 275.97,90.33 Z M 229.29,80.49 L 224.61,78.94 L 239.43,80.37 L 229.29,80.49 Z M 428.00,77.93 L 432.02,77.49 L 430.42,79.23 L 428.00,77.93 Z M 424.58,75.50 L 402.89,83.80 L 398.40,82.30 L 361.05,88.54 L 360.68,84.95 L 391.87,80.57 L 390.84,75.53 L 399.74,77.05 L 419.80,73.96 L 424.58,75.50 Z M 438.42,72.08 L 433.95,72.30 L 434.10,71.49 L 438.42,72.08 Z M 45.24,1.62 L 44.72,3.21 L 41.96,1.29 L 45.24,1.62 Z M 314.07,109.34 L 311.55,109.25 L 311.30,108.89 L 314.07,109.34 Z M 399.23,86.12 L 396.91,86.21 L 397.87,84.75 L 399.23,86.12 Z M 256.27,85.05 L 253.40,84.33 L 253.91,83.98 L 256.27,85.05 Z M 346.00,110.47 L 343.71,110.63 L 343.30,109.93 L 346.00,110.47 Z" fill="#E8E0D0" stroke="#B8B0A0" stroke-width="0.5"/>
<path d="M 78.69,144.76 L 71.77,122.34 L 77.90,123.21 L 73.94,118.81 L 78.54,117.33 L 81.18,121.13 L 86.21,117.48 L 80.47,116.36 L 86.63,106.73 L 103.65,100.99 L 112.39,107.19 L 124.44,109.95 L 125.24,115.37 L 119.83,116.16 L 122.65,117.96 L 117.71,121.48 L 120.70,128.67 L 126.36,130.02 L 126.57,137.48 L 109.34,152.00 L 105.36,149.01 L 86.29,152.07 L 75.39,146.33 L 78.69,144.76 Z" fill="#E8E0D0" stroke="#B8B0A0" stroke-width="0.5"/>
<path d="M 797.86,131.20 L 792.37,133.02 L 794.80,134.77 L 771.37,137.50 L 774.78,132.17 L 762.37,131.72 L 766.96,113.53 L 772.96,111.90 L 777.96,98.90 L 796.50,94.13 L 800.00,94.30 L 800.00,131.43 L 797.86,131.20 Z M 781.78,24.58 L 760.98,14.05 L 748.28,0.00 L 800.00,0.00 L 800.00,27.00 L 781.78,24.58 Z" fill="#E8E0D0" stroke="#B8B0A0" stroke-width="0.5"/>
<path d="M 65.06,101.45 L 59.94,112.88 L 52.52,100.95 L 54.59,98.35 L 61.72,98.48 L 59.06,99.90 L 65.06,101.45 Z M 50.63,100.80 L 50.90,102.28 L 48.50,102.18 L 50.63,100.80 Z M 65.67,97.25 L 67.18,99.46 L 62.94,98.39 L 65.67,97.25 Z M 74.95,114.75 L 72.13,119.60 L 71.16,116.58 L 74.95,114.75 Z M 74.26,113.98 L 74.35,114.18 L 73.66,114.31 L 74.26,113.98 Z M 76.16,116.44 L 75.96,116.74 L 75.43,116.90 L 76.16,116.44 Z M 75.96,117.53 L 75.64,117.94 L 74.30,117.98 L 75.96,117.53 Z" fill="#E8E0D0" stroke="#B8B0A0" stroke-width="0.5"/>
<path d="M 86.29,152.07 L 104.77,150.24 L 106.91,153.69 L 112.83,150.03 L 119.39,151.56 L 105.41,160.40 L 123.92,162.06 L 125.46,167.76 L 186.95,204.32 L 349.25,214.50 L 354.44,211.85 L 383.17,235.09 L 341.16,298.71 L 150.00,330.78 L 0.00,341.45 L 0.00,70.96 L 4.76,75.40 L 34.01,84.81 L 23.18,82.89 L 25.86,90.27 L 37.71,95.74 L 32.92,104.98 L 25.98,99.68 L 23.28,106.07 L 30.37,106.47 L 40.32,117.93 L 33.13,114.68 L 33.39,115.76 L 53.96,124.18 L 59.74,136.44 L 86.29,152.07 Z M 4.08,63.87 L 0.00,64.11 L 0.00,63.34 L 4.08,63.87 Z" fill="#C8D8E8" stroke="#8BAABB" stroke-width="0.8"/>
<path d="M 429.84,121.34 L 430.69,138.90 L 412.58,146.84 L 404.02,142.89 L 408.13,142.65 L 404.89,139.11 L 393.46,141.85 L 390.69,162.89 L 402.00,163.19 L 406.12,167.67 L 371.65,171.46 L 376.84,177.65 L 356.93,198.46 L 350.21,214.42 L 186.95,204.32 L 124.51,167.01 L 125.48,157.93 L 128.07,163.00 L 137.31,161.87 L 139.22,170.25 L 146.82,171.40 L 173.10,170.03 L 189.61,163.55 L 194.78,165.76 L 225.62,164.81 L 252.66,168.76 L 271.10,168.19 L 306.04,160.90 L 309.76,155.94 L 315.41,155.94 L 305.41,153.11 L 315.89,153.97 L 319.81,146.26 L 347.78,137.66 L 360.53,129.84 L 363.49,131.74 L 361.89,129.12 L 377.65,119.64 L 382.45,121.00 L 403.69,111.78 L 402.26,113.29 L 403.22,113.44 L 411.19,104.17 L 417.95,105.66 L 415.51,116.69 L 429.84,121.34 Z M 419.54,130.01 L 420.28,131.30 L 428.21,129.65 L 422.87,127.58 L 419.54,130.01 Z M 423.15,129.18 L 424.63,129.48 L 424.29,130.01 L 423.15,129.18 Z M 269.14,161.45 L 276.57,164.74 L 264.45,166.10 L 256.95,165.19 L 269.14,161.45 Z M 285.98,161.56 L 286.16,160.06 L 290.81,161.37 L 290.97,162.99 L 285.98,161.56 Z M 192.84,159.85 L 189.10,162.15 L 186.80,160.43 L 192.84,159.85 Z M 226.85,161.07 L 238.46,160.04 L 241.65,157.03 L 243.15,159.33 L 235.66,161.85 L 226.85,161.07 Z M 300.15,155.23 L 304.06,153.51 L 308.80,156.64 L 300.15,155.23 Z M 292.97,161.15 L 290.57,159.46 L 293.62,158.81 L 292.97,161.15 Z M 300.23,159.04 L 298.50,160.21 L 296.60,158.59 L 300.23,159.04 Z M 172.98,154.19 L 171.39,155.02 L 169.41,154.33 L 172.98,154.19 Z" fill="#C8D8E8" stroke="#8BAABB" stroke-width="0.8"/>
<path d="M 197.34,385.22 L 202.44,386.20 L 220.84,406.25 L 185.30,412.51 L 170.02,418.39 L 161.27,427.37 L 165.92,439.17 L 111.08,451.56 L 59.22,457.37 L 35.35,463.95 L 20.23,464.10 L 0.00,467.47 L 0.00,341.45 L 150.00,330.78 L 197.34,385.22 Z" fill="#C8D8E8" stroke="#8BAABB" stroke-width="0.8"/>
<path d="M 428.21,129.65 L 420.28,131.30 L 419.54,130.01 L 422.87,127.58 L 428.21,129.65 Z M 424.29,130.01 L 424.63,129.48 L 423.15,129.18 L 424.29,130.01 Z M 419.53,97.69 L 419.80,99.46 L 432.02,99.24 L 425.92,99.02 L 429.44,93.75 L 438.19,94.62 L 431.66,97.51 L 437.32,98.59 L 433.79,99.02 L 436.84,101.45 L 427.21,100.59 L 427.67,102.55 L 436.40,102.97 L 430.49,104.90 L 435.15,107.82 L 430.71,108.50 L 424.04,118.08 L 415.51,116.69 L 417.95,105.66 L 411.19,104.17 L 419.53,97.69 Z M 445.21,154.36 L 479.64,171.76 L 553.93,182.43 L 570.94,181.60 L 582.27,184.96 L 630.30,216.41 L 650.00,218.10 L 649.17,226.81 L 619.37,252.23 L 600.90,257.60 L 577.07,272.00 L 580.10,273.97 L 571.42,277.91 L 566.76,285.20 L 562.12,287.06 L 546.64,285.58 L 550.54,279.72 L 546.82,278.89 L 524.54,290.20 L 513.91,307.28 L 521.96,330.90 L 483.21,333.52 L 457.74,338.80 L 447.12,344.77 L 442.03,357.92 L 428.97,364.63 L 370.90,367.81 L 357.08,377.50 L 361.70,381.41 L 359.12,387.27 L 344.25,394.42 L 329.27,396.34 L 316.54,393.55 L 284.23,394.42 L 254.30,402.55 L 220.84,406.25 L 202.44,386.20 L 197.34,385.22 L 150.00,330.78 L 341.16,298.71 L 383.17,235.09 L 354.44,211.85 L 356.93,198.46 L 376.84,177.65 L 371.65,171.46 L 406.12,167.67 L 402.00,163.19 L 390.69,162.89 L 395.39,140.73 L 406.62,139.61 L 408.13,142.65 L 403.56,142.41 L 412.58,146.84 L 430.69,138.90 L 445.21,154.36 Z M 397.53,378.14 L 399.31,378.60 L 398.35,378.88 L 397.53,378.14 Z M 412.35,378.14 L 404.53,378.80 L 403.98,378.11 L 412.35,378.14 Z M 594.25,282.24 L 575.27,293.10 L 575.02,286.73 L 591.46,276.18 L 594.25,282.24 Z" fill="#4A90D9" stroke="#1a5fa8" stroke-width="1.2"/>
</svg>