<svg xmlns="http://www.w3.org/2000/svg" width="800" height="500" viewBox="0 0 800 500">
<rect width="800" height="500" fill="#A8C8E8"/>
<path d="M 569.02,14.05 L 578.76,24.58 L 587.29,27.00 L 587.29,94.30 L 585.65,94.13 L 576.97,98.90 L 574.63,111.90 L 571.82,113.53 L 570.62,129.05 L 564.41,136.30 L 541.18,129.38 L 538.68,123.87 L 534.08,126.08 L 536.22,128.89 L 530.92,126.10 L 519.41,127.62 L 505.99,123.40 L 493.76,125.39 L 487.23,120.23 L 475.11,118.57 L 464.79,120.12 L 461.51,115.97 L 455.80,117.82 L 455.32,114.38 L 442.06,113.05 L 437.75,103.47 L 439.12,100.80 L 435.17,92.81 L 433.51,78.84 L 430.55,75.50 L 431.97,73.96 L 428.76,73.68 L 427.07,69.58 L 406.62,68.90 L 401.12,73.20 L 392.96,74.20 L 388.66,80.97 L 381.18,80.71 L 366.86,90.23 L 354.88,86.72 L 352.45,83.20 L 334.78,83.40 L 328.08,78.73 L 326.67,74.84 L 314.27,70.72 L 301.52,62.74 L 303.57,59.67 L 297.30,53.77 L 283.92,47.35 L 274.13,47.42 L 265.67,44.17 L 256.15,24.86 L 255.50,18.38 L 247.92,12.04 L 248.47,10.02 L 250.74,11.53 L 251.65,8.16 L 248.98,5.40 L 243.11,5.31 L 243.30,-0.00 L 563.07,-0.00 L 569.02,14.05 Z M 359.59,96.81 L 358.80,98.08 L 357.82,96.57 L 359.59,96.81 Z M 341.93,90.33 L 340.36,88.93 L 343.82,88.31 L 344.36,90.46 L 341.93,90.33 Z M 320.07,80.49 L 317.88,78.94 L 324.82,80.37 L 320.07,80.49 Z M 413.11,77.93 L 414.99,77.49 L 414.24,79.23 L 413.11,77.93 Z M 411.51,75.50 L 401.35,83.80 L 399.25,82.30 L 381.76,88.54 L 381.59,84.95 L 396.19,80.57 L 395.71,75.53 L 399.88,77.05 L 409.27,73.96 L 411.51,75.50 Z M 417.99,72.08 L 415.90,72.30 L 415.97,71.49 L 417.99,72.08 Z M 233.89,1.62 L 233.64,3.21 L 232.36,1.29 L 233.89,1.62 Z M 359.76,109.34 L 358.58,109.25 L 358.47,108.89 L 359.76,109.34 Z M 399.64,86.12 L 398.55,86.21 L 399.00,84.75 L 399.64,86.12 Z M 332.70,85.05 L 331.36,84.33 L 331.60,83.98 L 332.70,85.05 Z M 374.72,110.47 L 373.64,110.63 L 373.45,109.93 L 374.72,110.47 Z" fill="#E8E0D0" stroke="#B8B0A0" stroke-width="0.5"/>
<path d="M 249.55,144.76 L 246.31,122.34 L 249.18,123.21 L 247.33,118.81 L 249.48,117.33 L 250.72,121.13 L 253.07,117.48 L 250.39,116.36 L 253.27,106.73 L 261.24,100.99 L 265.33,107.19 L 270.97,109.95 L 271.35,115.37 L 268.81,116.16 L 270.14,117.96 L 267.82,121.48 L 269.22,128.67 L 271.87,130.02 L 271.97,137.48 L 263.90,152.00 L 262.04,149.01 L 253.11,152.07 L 248.01,146.33 L 249.55,144.76 Z" fill="#E8E0D0" stroke="#B8B0A0" stroke-width="0.5"/>
<path d="M 586.29,131.20 L 583.72,133.02 L 584.86,134.77 L 573.89,137.50 L 575.49,132.17 L 569.67,131.72 L 571.82,113.53 L 574.63,111.90 L 576.97,98.90 L 585.65,94.13 L 587.29,94.30 L 587.29,131.43 L 586.29,131.20 Z M 578.76,24.58 L 569.02,14.05 L 563.07,-0.00 L 587.29,-0.00 L 587.29,27.00 L 578.76,24.58 Z" fill="#E8E0D0" stroke="#B8B0A0" stroke-width="0.5"/>
<path d="M 243.17,101.45 L 240.77,112.88 L 237.30,100.95 L 238.27,98.35 L 241.61,98.48 L 240.36,99.90 L 243.17,101.45 Z M 236.41,100.80 L 236.54,102.28 L 235.42,102.18 L 236.41,100.80 Z M 243.46,97.25 L 244.16,99.46 L 242.18,98.39 L 243.46,97.25 Z M 247.80,114.75 L 246.48,119.60 L 246.03,116.58 L 247.80,114.75 Z M 247.48,113.98 L 247.52,114.18 L 247.20,114.31 L 247.48,113.98 Z M 248.37,116.44 L 248.27,116.74 L 248.03,116.90 L 248.37,116.44 Z M 248.27,117.53 L 248.12,117.94 L 247.50,117.98 L 248.27,117.53 Z" fill="#E8E0D0" stroke="#B8B0A0" stroke-width="0.5"/>
<path d="M 253.11,152.07 L 261.76,150.24 L 262.77,153.69 L 265.54,150.03 L 268.61,151.56 L 262.06,160.40 L 270.73,162.06 L 271.45,167.76 L 300.24,204.32 L 376.24,214.50 L 378.67,211.85 L 392.12,235.09 L 372.45,298.71 L 282.94,330.78 L 212.71,341.45 L 212.71,70.96 L 214.94,75.40 L 228.63,84.81 L 223.56,82.89 L 224.82,90.27 L 230.37,95.74 L 228.12,104.98 L 224.87,99.68 L 223.61,106.07 L 226.93,106.47 L 231.59,117.93 L 228.22,114.68 L 228.34,115.76 L 237.97,124.18 L 240.68,136.44 L 253.11,152.07 Z M 214.62,63.87 L 212.71,64.11 L 212.71,63.34 L 214.62,63.87 Z" fill="#C8D8E8" stroke="#8BAABB" stroke-width="0.8"/>
<path d="M 413.97,121.34 L 414.37,138.90 L 405.89,146.84 L 401.88,142.89 L 403.81,142.65 L 402.29,139.11 L 396.94,141.85 L 395.64,162.89 L 400.94,163.19 L 402.87,167.67 L 386.72,171.46 L 389.16,177.65 L 379.83,198.46 L 376.69,214.42 L 300.24,204.32 L 271.00,167.01 L 271.46,157.93 L 272.67,163.00 L 277.00,161.87 L 277.89,170.25 L 281.45,171.40 L 293.76,170.03 L 301.49,163.55 L 303.91,165.76 L 318.35,164.81 L 331.01,168.76 L 339.64,168.19 L 356.00,160.90 L 357.75,155.94 L 360.39,155.94 L 355.71,153.11 L 360.62,153.97 L 362.45,146.26 L 375.55,137.66 L 381.52,129.84 L 382.91,131.74 L 382.16,129.12 L 389.54,119.64 L 391.78,121.00 L 401.73,111.78 L 401.06,113.29 L 401.51,113.44 L 405.24,104.17 L 408.41,105.66 L 407.26,116.69 L 413.97,121.34 Z M 409.15,130.01 L 409.49,131.30 L 413.21,129.65 L 410.71,127.58 L 409.15,130.01 Z M 410.84,129.18 L 411.53,129.48 L 411.38,130.01 L 410.84,129.18 Z M 338.73,161.45 L 342.21,164.74 L 336.53,166.10 L 333.02,165.19 L 338.73,161.45 Z M 346.61,161.56 L 346.69,160.06 L 348.88,161.37 L 348.95,162.99 L 346.61,161.56 Z M 303.00,159.85 L 301.25,162.15 L 300.17,160.43 L 303.00,159.85 Z M 318.93,161.07 L 324.36,160.04 L 325.85,157.03 L 326.56,159.33 L 323.05,161.85 L 318.93,161.07 Z M 353.25,155.23 L 355.08,153.51 L 357.30,156.64 L 353.25,155.23 Z M 349.89,161.15 L 348.76,159.46 L 350.19,158.81 L 349.89,161.15 Z M 353.28,159.04 L 352.47,160.21 L 351.58,158.59 L 353.28,159.04 Z M 293.70,154.19 L 292.96,155.02 L 292.03,154.33 L 293.70,154.19 Z" fill="#C8D8E8" stroke="#8BAABB" stroke-width="0.8"/>
<path d="M 305.11,385.22 L 307.50,386.20 L 316.11,406.25 L 299.47,412.51 L 292.31,418.39 L 288.22,427.37 L 290.39,439.17 L 264.72,451.56 L 240.44,457.37 L 229.26,463.95 L 222.18,464.10 L 212.71,467.47 L 212.71,341.45 L 282.94,330.78 L 305.11,385.22 Z" fill="#C8D8E8" stroke="#8BAABB" stroke-width="0.8"/>
<path d="M 413.21,129.65 L 409.49,131.30 L 409.15,130.01 L 410.71,127.58 L 413.21,129.65 Z M 411.38,130.01 L 411.53,129.48 L 410.84,129.18 L 411.38,130.01 Z M 409.15,97.69 L 409.27,99.46 L 414.99,99.24 L 412.13,99.02 L 413.79,93.75 L 417.88,94.62 L 414.83,97.51 L 417.47,98.59 L 415.82,99.02 L 417.25,101.45 L 412.74,100.59 L 412.96,102.55 L 417.04,102.97 L 414.27,104.90 L 416.46,107.82 L 414.38,108.50 L 411.26,118.08 L 407.26,116.69 L 408.41,105.66 L 405.24,104.17 L 409.15,97.69 Z M 421.17,154.36 L 437.29,171.76 L 472.07,182.43 L 480.04,181.60 L 485.35,184.96 L 507.84,216.41 L 517.06,218.10 L 516.67,226.81 L 502.72,252.23 L 494.07,257.60 L 482.91,272.00 L 484.33,273.97 L 480.27,277.91 L 478.08,285.20 L 475.91,287.06 L 468.66,285.58 L 470.49,279.72 L 468.75,278.89 L 458.31,290.20 L 453.33,307.28 L 457.11,330.90 L 438.96,333.52 L 427.03,338.80 L 422.06,344.77 L 419.68,357.92 L 413.56,364.63 L 386.38,367.81 L 379.90,377.50 L 382.07,381.41 L 380.86,387.27 L 373.90,394.42 L 366.88,396.34 L 360.92,393.55 L 345.79,394.42 L 331.78,402.55 L 316.11,406.25 L 307.50,386.20 L 305.11,385.22 L 282.94,330.78 L 372.45,298.71 L 392.12,235.09 L 378.67,211.85 L 379.83,198.46 L 389.16,177.65 L 386.72,171.46 L 402.87,167.67 L 400.94,163.19 L 395.64,162.89 L 397.84,140.73 L 403.10,139.61 L 403.81,142.65 L 401.67,142.41 L 405.89,146.84 L 414.37,138.90 L 421.17,154.36 Z M 398.84,378.14 L 399.68,378.60 L 399.23,378.88 L 398.84,378.14 Z M 405.78,378.14 L 402.12,378.80 L 401.86,378.11 L 405.78,378.14 Z M 490.95,282.24 L 482.07,293.10 L 481.95,286.73 L 489.65,276.18 L 490.95,282.24 Z" fill="#4A90D9" stroke="#1a5fa8" stroke-width="1.2"/>
</svg>