<svg xmlns="http://www.w3.org/2000/svg" width="800" height="500" viewBox="0 0 800 500">
<rect width="800" height="500" fill="#A8C8E8"/>
<path d="M 634.54,489.44 L 628.95,472.83 L 618.18,476.75 L 613.49,455.36 L 604.74,452.62 L 607.40,430.98 L 587.80,402.43 L 594.22,371.03 L 601.78,364.03 L 598.98,341.22 L 614.62,364.28 L 635.02,341.02 L 631.61,332.29 L 638.36,315.68 L 650.00,310.85 L 622.37,241.34 L 627.01,221.24 L 634.00,215.89 L 640.54,238.46 L 667.09,268.28 L 668.74,286.19 L 678.10,285.19 L 671.75,312.11 L 684.48,312.89 L 682.98,248.75 L 668.35,232.00 L 721.98,179.68 L 734.49,140.77 L 753.54,115.57 L 764.74,121.96 L 780.98,113.99 L 784.74,92.11 L 773.80,81.76 L 788.62,11.53 L 773.94,25.35 L 789.89,1.34 L 789.79,0.00 L 800.00,0.00 L 800.00,500.00 L 633.61,500.00 L 634.54,489.44 Z M 783.74,0.00 L 785.05,0.00 L 783.52,1.33 L 783.74,0.00 Z" fill="#C8D8E8" stroke="#8BAABB" stroke-width="0.8"/>
<path d="M 137.13,26.01 L 172.45,85.39 L 191.54,102.83 L 184.08,109.44 L 167.38,94.77 L 167.47,108.83 L 159.37,113.54 L 159.57,165.14 L 178.25,183.09 L 160.96,204.60 L 167.30,242.45 L 150.00,260.33 L 159.21,270.62 L 164.07,289.65 L 163.12,298.43 L 157.10,274.17 L 141.61,254.92 L 146.56,244.85 L 139.87,220.04 L 113.52,210.27 L 130.02,232.48 L 130.02,253.95 L 105.55,245.07 L 91.86,225.86 L 105.57,200.42 L 99.87,201.25 L 105.57,188.80 L 100.53,167.15 L 51.83,112.41 L 17.17,97.70 L 7.23,47.13 L 0.00,47.13 L 0.00,45.76 L 2.59,44.46 L 0.00,42.12 L 0.00,0.00 L 127.25,0.00 L 137.13,26.01 Z M 79.41,210.22 L 80.63,210.14 L 79.87,212.06 L 79.41,210.22 Z" fill="#C8D8E8" stroke="#8BAABB" stroke-width="0.8"/>
<path d="M 210.23,116.63 L 209.56,145.93 L 224.83,146.91 L 217.19,151.55 L 218.70,172.31 L 231.03,181.91 L 258.39,180.66 L 244.98,156.08 L 249.28,149.54 L 278.47,197.22 L 298.39,201.26 L 339.31,187.10 L 359.95,162.39 L 398.13,146.07 L 413.07,124.32 L 415.14,133.33 L 420.08,120.32 L 426.72,127.45 L 440.53,93.75 L 496.55,98.32 L 489.12,113.33 L 540.53,119.72 L 575.82,142.14 L 591.20,165.83 L 590.83,158.53 L 617.61,210.01 L 632.15,216.49 L 622.37,241.34 L 650.00,310.85 L 638.36,315.68 L 631.61,332.29 L 635.02,341.02 L 614.62,364.28 L 598.98,341.22 L 601.78,364.03 L 585.85,401.58 L 554.15,343.07 L 541.92,295.36 L 557.54,287.66 L 552.99,269.93 L 562.00,267.26 L 567.71,250.23 L 578.74,272.12 L 588.64,272.42 L 597.79,287.89 L 601.27,286.00 L 589.09,271.30 L 576.99,265.17 L 571.47,236.26 L 567.54,229.89 L 570.96,249.51 L 565.64,242.31 L 558.53,253.06 L 561.74,247.74 L 560.00,232.48 L 560.00,245.96 L 557.10,237.89 L 547.77,247.74 L 544.30,231.67 L 548.31,251.69 L 543.67,256.61 L 526.80,202.20 L 523.64,210.87 L 487.00,174.34 L 487.18,164.72 L 484.90,162.08 L 488.12,160.75 L 489.59,156.76 L 491.70,158.45 L 495.97,154.01 L 489.59,155.87 L 483.94,162.07 L 484.19,173.65 L 457.75,171.15 L 450.59,186.14 L 445.96,178.15 L 446.17,186.83 L 430.20,196.87 L 430.64,212.17 L 423.89,219.90 L 434.88,218.55 L 428.30,227.57 L 369.22,274.25 L 368.01,292.21 L 404.69,350.14 L 407.63,373.59 L 397.64,377.78 L 387.15,376.01 L 383.09,377.78 L 372.02,400.95 L 335.97,406.25 L 316.93,331.67 L 322.43,326.01 L 319.69,314.50 L 316.79,323.45 L 307.90,320.72 L 307.26,316.78 L 305.72,316.27 L 310.25,330.39 L 303.35,334.92 L 305.72,353.81 L 288.23,345.73 L 275.42,334.11 L 272.52,304.72 L 264.09,298.87 L 260.88,278.00 L 257.98,286.89 L 245.17,272.60 L 229.52,272.60 L 226.04,282.44 L 220.72,274.46 L 223.67,258.31 L 170.67,264.49 L 163.12,298.43 L 159.21,270.62 L 150.00,260.33 L 167.30,242.45 L 160.96,204.60 L 178.25,183.09 L 159.57,165.14 L 159.37,113.54 L 167.47,108.83 L 167.38,94.77 L 185.66,109.85 L 190.63,97.95 L 210.23,116.63 Z M 259.14,395.62 L 256.87,403.61 L 254.93,397.72 L 259.14,395.62 Z M 321.43,358.17 L 302.85,369.22 L 309.43,363.89 L 321.43,358.17 Z M 274.31,389.41 L 260.88,387.63 L 249.93,369.22 L 259.72,349.21 L 274.31,389.41 Z M 218.45,280.67 L 212.53,275.00 L 216.08,272.60 L 218.45,280.67 Z M 206.52,275.26 L 202.74,269.13 L 209.61,264.75 L 206.52,275.26 Z M 488.47,269.03 L 483.63,275.77 L 483.06,265.59 L 488.47,269.03 Z M 210.20,286.90 L 212.10,286.00 L 212.31,289.95 L 210.20,286.90 Z M 483.00,250.29 L 484.01,247.14 L 487.05,248.84 L 483.00,250.29 Z M 233.00,135.36 L 227.54,140.98 L 221.35,127.45 L 233.00,135.36 Z M 216.71,115.75 L 218.45,129.96 L 215.49,124.15 L 211.44,119.30 L 216.71,115.75 Z M 508.10,258.36 L 502.20,274.43 L 496.20,245.15 L 503.20,243.37 L 508.10,258.36 Z M 447.03,198.45 L 447.91,202.08 L 445.73,201.09 L 447.03,198.45 Z M 277.77,159.53 L 278.86,161.71 L 275.70,161.23 L 277.77,159.53 Z M 234.93,149.19 L 238.44,154.49 L 235.08,153.91 L 234.93,149.19 Z" fill="#4A90D9" stroke="#1a5fa8" stroke-width="1.2"/>
<path d="M 439.13,152.58 L 435.27,159.37 L 426.72,159.41 L 422.61,168.29 L 426.26,159.79 L 415.65,151.91 L 413.12,172.55 L 408.70,163.85 L 401.69,169.17 L 423.83,129.97 L 428.46,140.77 L 421.51,148.77 L 439.13,152.58 Z" fill="#A8C8E8" stroke="none"/>
</svg>