<svg xmlns="http://www.w3.org/2000/svg" width="800" height="500" viewBox="0 0 800 500">
<rect width="800" height="500" fill="#A8C8E8"/>
<path d="M 634.54,408.01 L 628.95,397.05 L 618.18,399.64 L 613.49,385.52 L 604.74,383.71 L 607.40,369.43 L 587.80,350.59 L 594.22,329.87 L 601.78,325.25 L 598.98,310.20 L 614.62,325.42 L 635.02,310.07 L 631.61,304.30 L 638.36,293.34 L 650.00,290.15 L 622.37,244.29 L 627.01,231.02 L 634.00,227.49 L 640.54,242.39 L 667.09,262.06 L 668.74,273.88 L 678.10,273.22 L 671.75,290.99 L 684.48,291.50 L 682.98,249.18 L 668.35,238.12 L 721.98,203.60 L 734.49,177.91 L 753.54,161.28 L 764.74,165.51 L 780.98,160.24 L 784.74,145.80 L 773.80,138.97 L 788.62,92.63 L 773.94,101.75 L 789.89,85.90 L 789.79,85.02 L 800.00,85.02 L 800.00,414.98 L 633.61,414.98 L 634.54,408.01 Z M 783.74,85.02 L 785.05,85.02 L 783.52,85.90 L 783.74,85.02 Z" fill="#C8D8E8" stroke="#8BAABB" stroke-width="0.8"/>
<path d="M 137.13,102.18 L 172.45,141.37 L 191.54,152.88 L 184.08,157.24 L 167.38,147.56 L 167.47,156.84 L 159.37,159.94 L 159.57,194.00 L 178.25,205.85 L 160.96,220.04 L 167.30,245.02 L 150.00,256.82 L 159.21,263.61 L 164.07,276.17 L 163.12,281.96 L 157.10,265.95 L 141.61,253.24 L 146.56,246.60 L 139.87,230.23 L 113.52,223.78 L 130.02,238.44 L 130.02,252.61 L 105.55,246.75 L 91.86,234.07 L 105.57,217.28 L 99.87,217.83 L 105.57,209.61 L 100.53,195.33 L 51.83,159.20 L 17.17,149.50 L 7.23,116.12 L 0.00,116.12 L 0.00,115.22 L 2.59,114.36 L 0.00,112.82 L 0.00,85.02 L 127.25,85.02 L 137.13,102.18 Z M 79.41,223.75 L 80.63,223.69 L 79.87,224.96 L 79.41,223.75 Z" fill="#C8D8E8" stroke="#8BAABB" stroke-width="0.8"/>
<path d="M 210.23,161.99 L 209.56,181.32 L 224.83,181.97 L 217.19,185.03 L 218.70,198.73 L 231.03,205.07 L 258.39,204.24 L 244.98,188.02 L 249.28,183.70 L 278.47,215.17 L 298.39,217.83 L 339.31,208.49 L 359.95,192.19 L 398.13,181.41 L 413.07,167.06 L 415.14,173.01 L 420.08,164.42 L 426.72,169.13 L 440.53,146.89 L 496.55,149.91 L 489.12,159.81 L 540.53,164.02 L 575.82,178.82 L 591.20,194.45 L 590.83,189.63 L 617.61,223.61 L 632.15,227.89 L 622.37,244.29 L 650.00,290.15 L 638.36,293.34 L 631.61,304.30 L 635.02,310.07 L 614.62,325.42 L 598.98,310.20 L 601.78,325.25 L 585.85,350.03 L 554.15,311.42 L 541.92,279.94 L 557.54,274.86 L 552.99,263.15 L 562.00,261.39 L 567.71,250.15 L 578.74,264.60 L 588.64,264.80 L 597.79,275.00 L 601.27,273.76 L 589.09,264.06 L 576.99,260.01 L 571.47,240.93 L 567.54,236.73 L 570.96,249.68 L 565.64,244.93 L 558.53,252.02 L 561.74,248.51 L 560.00,238.44 L 560.00,247.33 L 557.10,242.01 L 547.77,248.51 L 544.30,237.90 L 548.31,251.11 L 543.67,254.36 L 526.80,218.46 L 523.64,224.18 L 487.00,200.07 L 487.18,193.72 L 484.90,191.98 L 488.12,191.10 L 489.59,188.47 L 491.70,189.58 L 495.97,186.65 L 489.59,187.88 L 483.94,191.97 L 484.19,199.62 L 457.75,197.96 L 450.59,207.85 L 445.96,202.58 L 446.17,208.32 L 430.20,214.94 L 430.64,225.04 L 423.89,230.14 L 434.88,229.25 L 428.30,235.20 L 369.22,266.00 L 368.01,277.86 L 404.69,316.09 L 407.63,331.56 L 397.64,334.32 L 387.15,333.15 L 383.09,334.32 L 372.02,349.61 L 335.97,353.11 L 316.93,303.90 L 322.43,300.16 L 319.69,292.56 L 316.79,298.47 L 307.90,296.67 L 307.26,294.07 L 305.72,293.74 L 310.25,303.05 L 303.35,306.04 L 305.72,318.50 L 288.23,313.17 L 275.42,305.50 L 272.52,286.11 L 264.09,282.25 L 260.88,268.48 L 257.98,274.34 L 245.17,264.91 L 229.52,264.91 L 226.04,271.41 L 220.72,266.14 L 223.67,255.48 L 170.67,259.56 L 163.12,281.96 L 159.21,263.61 L 150.00,256.82 L 167.30,245.02 L 160.96,220.04 L 178.25,205.85 L 159.57,194.00 L 159.37,159.94 L 167.47,156.84 L 167.38,147.56 L 185.66,157.51 L 190.63,149.66 L 210.23,161.99 Z M 259.14,346.10 L 256.87,351.37 L 254.93,347.48 L 259.14,346.10 Z M 321.43,321.38 L 302.85,328.68 L 309.43,325.16 L 321.43,321.38 Z M 274.31,342.00 L 260.88,340.83 L 249.93,328.68 L 259.72,315.47 L 274.31,342.00 Z M 218.45,270.24 L 212.53,266.49 L 216.08,264.91 L 218.45,270.24 Z M 206.52,266.67 L 202.74,262.63 L 209.61,259.74 L 206.52,266.67 Z M 488.47,262.56 L 483.63,267.00 L 483.06,260.29 L 488.47,262.56 Z M 210.20,274.35 L 212.10,273.76 L 212.31,276.36 L 210.20,274.35 Z M 483.00,250.19 L 484.01,248.11 L 487.05,249.24 L 483.00,250.19 Z M 233.00,174.35 L 227.54,178.06 L 221.35,169.13 L 233.00,174.35 Z M 216.71,161.40 L 218.45,170.78 L 215.49,166.95 L 211.44,163.75 L 216.71,161.40 Z M 508.10,255.52 L 502.20,266.12 L 496.20,246.80 L 503.20,245.63 L 508.10,255.52 Z M 447.03,215.98 L 447.91,218.38 L 445.73,217.73 L 447.03,215.98 Z M 277.77,190.29 L 278.86,191.74 L 275.70,191.42 L 277.77,190.29 Z M 234.93,183.47 L 238.44,186.97 L 235.08,186.59 L 234.93,183.47 Z" fill="#4A90D9" stroke="#1a5fa8" stroke-width="1.2"/>
<path d="M 439.13,185.71 L 435.27,190.19 L 426.72,190.22 L 422.61,196.08 L 426.26,190.47 L 415.65,185.27 L 413.12,198.89 L 408.70,193.15 L 401.69,196.66 L 423.83,170.79 L 428.46,177.91 L 421.51,183.19 L 439.13,185.71 Z" fill="#A8C8E8" stroke="none"/>
</svg>