<svg xmlns="http://www.w3.org/2000/svg" width="800" height="500" viewBox="0 0 800 500">
<rect width="800" height="500" fill="#A8C8E8"/>
<path d="M 534.53,479.67 L 534.43,477.71 L 538.60,476.06 L 539.43,472.60 L 546.65,470.07 L 548.08,465.12 L 556.13,470.71 L 568.34,470.41 L 570.56,470.99 L 570.56,500.00 L 530.19,500.00 L 534.75,485.84 L 531.71,482.79 L 534.53,479.67 Z" fill="#E8E0D0" stroke="#B8B0A0" stroke-width="0.5"/>
<path d="M 566.38,74.02 L 565.26,77.49 L 563.17,77.72 L 559.54,82.17 L 558.78,80.64 L 559.94,78.12 L 558.64,76.46 L 556.12,76.63 L 549.57,80.77 L 547.03,80.52 L 537.09,72.39 L 531.32,54.58 L 531.78,52.39 L 525.28,47.32 L 524.42,45.23 L 520.56,45.64 L 520.85,43.99 L 529.77,35.50 L 526.56,29.79 L 524.34,29.04 L 520.24,15.89 L 521.62,6.83 L 520.92,2.12 L 523.17,0.00 L 570.56,0.00 L 570.56,71.97 L 566.38,74.02 Z" fill="#E8E0D0" stroke="#B8B0A0" stroke-width="0.5"/>
<path d="M 492.48,389.72 L 490.05,388.34 L 490.79,386.58 L 494.08,384.90 L 498.21,378.79 L 500.66,377.79 L 500.81,374.10 L 504.09,371.96 L 501.58,369.93 L 498.17,369.68 L 494.04,359.97 L 498.79,353.26 L 494.81,348.97 L 495.04,345.89 L 496.77,345.02 L 497.33,342.01 L 501.45,338.68 L 501.11,336.41 L 503.57,335.48 L 499.57,326.52 L 501.77,323.70 L 501.60,312.89 L 505.22,310.20 L 504.76,308.66 L 506.60,306.65 L 491.55,280.19 L 504.57,280.92 L 505.06,283.41 L 507.76,282.93 L 513.19,280.65 L 517.39,275.32 L 522.82,275.98 L 525.13,272.50 L 529.53,269.38 L 533.90,268.32 L 541.00,262.37 L 555.39,259.38 L 558.84,261.16 L 561.67,258.48 L 563.64,261.23 L 563.88,267.47 L 561.10,271.93 L 561.86,277.58 L 563.63,280.49 L 562.15,285.74 L 563.30,289.14 L 565.86,291.51 L 565.37,293.67 L 566.13,294.20 L 566.77,292.79 L 567.58,293.86 L 568.52,297.81 L 570.56,298.27 L 570.56,470.99 L 568.34,470.41 L 556.13,470.71 L 548.08,465.12 L 546.65,470.07 L 539.43,472.60 L 538.60,476.06 L 534.43,477.71 L 534.53,479.67 L 531.71,482.79 L 521.98,483.93 L 520.03,482.73 L 520.50,478.10 L 518.79,470.52 L 516.51,467.97 L 514.63,456.54 L 511.12,451.00 L 508.78,450.22 L 508.48,447.30 L 510.03,445.29 L 505.23,441.81 L 506.70,440.23 L 504.78,436.44 L 508.22,435.57 L 509.01,433.26 L 506.28,429.77 L 510.59,424.97 L 501.46,416.64 L 502.10,415.29 L 498.66,402.88 L 499.90,401.17 L 496.19,400.08 L 492.48,389.72 Z" fill="#C8D8E8" stroke="#8BAABB" stroke-width="0.8"/>
<path d="M 568.72,298.01 L 567.58,293.86 L 566.77,292.79 L 566.13,294.20 L 565.37,293.67 L 565.86,291.51 L 563.30,289.14 L 562.15,285.74 L 563.63,280.49 L 561.86,277.58 L 561.10,271.93 L 563.88,267.47 L 563.64,261.23 L 561.97,258.59 L 558.84,261.16 L 555.39,259.38 L 541.00,262.37 L 533.90,268.32 L 529.53,269.38 L 525.13,272.50 L 522.82,275.98 L 517.39,275.32 L 513.19,280.65 L 507.76,282.93 L 505.06,283.41 L 504.57,280.92 L 494.61,279.90 L 485.17,279.63 L 479.56,282.11 L 475.43,279.95 L 473.63,281.19 L 473.67,261.41 L 475.30,258.96 L 473.91,256.53 L 475.59,254.22 L 462.53,263.82 L 447.44,264.03 L 447.99,261.84 L 445.46,255.96 L 437.03,253.88 L 430.26,253.85 L 434.35,249.16 L 434.29,246.62 L 427.98,240.01 L 427.88,237.99 L 424.77,235.93 L 422.63,230.04 L 420.66,228.78 L 421.88,226.19 L 416.72,222.01 L 417.97,220.39 L 417.32,218.82 L 421.87,217.93 L 420.20,214.49 L 421.09,210.81 L 431.39,203.79 L 429.93,196.99 L 434.27,189.72 L 435.27,180.85 L 439.87,179.63 L 444.23,175.08 L 452.30,170.38 L 461.46,169.37 L 463.12,167.94 L 468.11,168.10 L 470.41,164.59 L 473.53,163.50 L 474.57,164.85 L 478.86,163.97 L 480.97,167.38 L 482.09,165.97 L 483.81,167.35 L 484.91,166.49 L 494.55,113.44 L 490.69,105.77 L 490.84,102.21 L 483.29,95.99 L 483.52,83.21 L 493.23,80.75 L 496.28,82.70 L 498.97,82.16 L 498.71,78.44 L 496.42,75.53 L 486.92,75.17 L 486.86,64.11 L 492.15,63.00 L 515.38,63.87 L 513.41,62.03 L 514.89,58.86 L 519.33,63.53 L 527.83,56.76 L 533.01,64.07 L 533.53,73.18 L 537.09,72.39 L 547.03,80.52 L 549.57,80.77 L 556.12,76.63 L 558.64,76.46 L 559.97,78.53 L 558.82,81.45 L 560.29,82.01 L 563.17,77.72 L 565.26,77.49 L 566.38,74.02 L 570.56,71.97 L 570.56,298.34 L 568.72,298.01 Z" fill="#C8D8E8" stroke="#8BAABB" stroke-width="0.8"/>
<path d="M 496.19,400.08 L 499.90,401.17 L 498.66,402.88 L 502.10,415.29 L 501.46,416.64 L 510.59,424.97 L 506.28,429.77 L 509.01,433.26 L 508.22,435.57 L 504.78,436.44 L 506.70,440.23 L 505.23,441.81 L 510.03,445.29 L 508.48,447.30 L 508.78,450.22 L 511.12,451.00 L 514.63,456.54 L 516.51,467.97 L 518.79,470.52 L 520.50,478.10 L 520.03,482.73 L 524.59,484.07 L 531.71,482.79 L 534.75,485.84 L 530.02,500.00 L 475.94,500.00 L 476.03,499.22 L 477.85,495.67 L 476.06,493.84 L 473.79,494.65 L 474.32,490.00 L 474.96,486.85 L 475.90,486.00 L 477.26,487.34 L 479.52,484.15 L 481.19,466.79 L 483.44,459.09 L 481.55,451.94 L 482.28,450.59 L 480.83,448.47 L 482.13,432.05 L 480.35,427.76 L 481.07,426.67 L 478.42,413.69 L 479.32,408.09 L 477.78,406.25 L 484.93,404.76 L 488.09,400.17 L 486.96,395.22 L 492.69,392.06 L 496.19,400.08 Z" fill="#C8D8E8" stroke="#8BAABB" stroke-width="0.8"/>
<path d="M 335.13,66.65 L 332.42,65.29 L 335.38,62.16 L 340.01,62.83 L 340.44,60.57 L 339.39,58.64 L 338.42,59.41 L 337.79,55.88 L 339.96,51.72 L 340.22,52.60 L 343.80,48.06 L 345.34,49.87 L 345.47,47.79 L 346.13,49.95 L 347.40,50.71 L 348.20,50.31 L 348.02,48.00 L 350.48,47.60 L 351.25,49.22 L 352.34,49.46 L 353.67,49.02 L 353.82,48.41 L 352.80,46.07 L 354.88,45.60 L 354.29,44.78 L 355.77,44.27 L 354.52,43.45 L 356.04,43.22 L 355.80,42.14 L 354.32,42.36 L 358.40,38.17 L 357.36,37.85 L 358.78,35.97 L 361.11,36.59 L 360.87,33.31 L 362.03,34.01 L 361.06,32.70 L 364.49,30.47 L 363.10,29.36 L 364.37,29.53 L 363.95,28.16 L 365.95,26.42 L 362.22,27.70 L 361.43,25.51 L 362.95,25.37 L 363.30,23.83 L 362.03,23.13 L 360.65,26.18 L 359.15,24.48 L 359.30,21.90 L 361.45,21.51 L 362.50,20.45 L 359.96,19.05 L 361.21,16.93 L 361.00,12.14 L 362.14,12.96 L 360.61,10.40 L 360.07,1.03 L 358.25,0.00 L 523.17,0.00 L 520.92,2.12 L 521.62,6.83 L 520.24,15.89 L 524.34,29.04 L 526.56,29.79 L 529.77,35.50 L 520.85,43.99 L 520.56,45.64 L 524.42,45.23 L 525.28,47.32 L 531.78,52.39 L 531.32,54.58 L 536.94,70.21 L 537.09,72.39 L 533.53,73.18 L 533.01,64.07 L 527.83,56.76 L 519.33,63.53 L 514.89,58.86 L 513.41,62.03 L 515.38,63.87 L 492.15,63.00 L 486.86,64.11 L 486.92,75.17 L 496.42,75.53 L 498.71,78.44 L 498.97,82.16 L 496.28,82.70 L 493.23,80.75 L 483.52,83.21 L 483.29,95.99 L 490.84,102.21 L 490.69,105.77 L 494.55,113.44 L 485.02,165.56 L 479.19,158.61 L 476.16,159.45 L 472.06,157.81 L 483.58,139.60 L 482.65,138.06 L 481.90,138.81 L 474.68,134.31 L 473.52,135.08 L 469.19,130.99 L 460.49,133.81 L 459.89,131.74 L 459.19,132.77 L 458.51,131.20 L 455.01,129.65 L 451.60,132.92 L 447.76,134.39 L 444.36,135.08 L 439.88,133.09 L 438.73,134.60 L 438.37,133.66 L 434.97,134.65 L 430.55,131.04 L 432.01,128.64 L 430.63,123.78 L 427.98,123.82 L 424.94,121.82 L 425.51,118.48 L 423.16,114.68 L 419.44,113.92 L 415.74,110.17 L 412.54,109.85 L 409.99,102.52 L 406.21,99.05 L 403.71,98.59 L 403.14,96.16 L 401.30,96.83 L 397.80,94.00 L 395.41,95.08 L 389.62,91.91 L 386.88,91.81 L 382.43,87.05 L 378.27,85.37 L 376.32,86.39 L 376.46,88.91 L 373.81,89.57 L 359.79,86.64 L 358.60,82.14 L 355.61,81.03 L 354.64,78.86 L 352.20,79.44 L 347.61,77.53 L 335.67,68.77 L 335.13,66.65 Z M 348.01,49.90 L 347.37,50.51 L 346.01,47.48 L 348.01,49.90 Z M 352.15,48.22 L 353.26,48.98 L 351.52,48.98 L 351.28,47.23 L 352.15,48.22 Z M 353.69,48.82 L 351.61,46.75 L 352.21,46.76 L 353.69,48.82 Z M 361.91,20.57 L 357.22,21.48 L 359.27,19.16 L 361.91,20.57 Z M 288.95,25.18 L 289.27,25.12 L 289.31,25.39 L 288.95,25.18 Z M 346.82,42.74 L 345.92,43.18 L 346.19,42.97 L 346.82,42.74 Z" fill="#C8D8E8" stroke="#8BAABB" stroke-width="0.8"/>
<path d="M 347.61,77.53 L 352.20,79.44 L 354.64,78.86 L 355.61,81.03 L 358.60,82.14 L 359.79,86.64 L 373.81,89.57 L 376.46,88.91 L 376.32,86.39 L 378.27,85.37 L 382.43,87.05 L 386.40,91.54 L 395.41,95.08 L 389.35,95.45 L 395.79,102.53 L 395.18,106.00 L 396.35,109.81 L 393.34,108.87 L 390.53,119.49 L 381.80,129.59 L 371.80,137.18 L 351.86,144.29 L 346.33,150.67 L 346.88,152.60 L 345.82,153.11 L 343.72,151.11 L 342.56,157.96 L 338.14,167.11 L 338.30,170.93 L 334.49,173.38 L 334.47,175.93 L 331.71,178.79 L 327.68,177.93 L 325.19,175.36 L 324.24,170.60 L 321.70,169.02 L 318.75,169.70 L 313.57,166.36 L 309.48,169.66 L 307.64,168.58 L 310.12,164.91 L 308.02,165.17 L 307.65,161.78 L 310.45,161.79 L 313.15,159.65 L 311.46,151.74 L 310.19,150.75 L 316.72,147.83 L 320.55,137.53 L 318.15,130.14 L 319.88,127.48 L 317.76,129.37 L 317.69,136.67 L 314.86,137.24 L 317.12,135.65 L 315.36,135.48 L 316.78,132.63 L 315.72,132.96 L 312.98,137.40 L 311.22,137.85 L 311.63,139.85 L 304.87,134.49 L 300.54,132.83 L 298.87,130.24 L 301.27,130.86 L 303.51,128.13 L 301.52,120.36 L 303.40,116.19 L 300.61,111.09 L 302.18,109.41 L 306.33,108.82 L 308.37,103.60 L 309.55,104.48 L 310.90,104.56 L 309.33,103.93 L 307.57,99.76 L 315.07,91.72 L 316.09,87.02 L 314.11,81.39 L 314.66,79.32 L 321.74,76.12 L 321.49,77.52 L 322.42,78.83 L 322.12,76.42 L 329.99,74.48 L 331.82,72.47 L 332.93,74.14 L 333.98,72.03 L 334.44,72.15 L 334.95,71.25 L 335.94,71.45 L 334.77,70.74 L 335.67,68.77 L 347.61,77.53 Z M 317.50,139.89 L 313.73,144.82 L 311.45,144.77 L 312.39,139.76 L 314.93,138.70 L 317.50,139.89 Z M 334.48,71.55 L 333.51,72.15 L 332.86,71.29 L 334.44,69.80 L 334.48,71.55 Z M 319.77,136.64 L 318.00,138.48 L 317.93,138.09 L 318.97,135.68 L 319.77,136.64 Z" fill="#C8D8E8" stroke="#8BAABB" stroke-width="0.8"/>
<path d="M 486.96,395.22 L 488.09,400.17 L 484.93,404.76 L 477.78,406.25 L 461.10,395.33 L 460.84,390.25 L 458.91,388.27 L 448.74,383.75 L 443.32,378.54 L 437.57,377.09 L 426.80,371.35 L 422.08,370.52 L 416.25,365.67 L 399.36,357.14 L 391.65,347.88 L 384.50,343.29 L 380.82,336.03 L 378.44,335.07 L 378.40,330.51 L 376.70,330.64 L 377.23,328.83 L 379.05,329.67 L 380.28,324.35 L 379.61,321.25 L 369.87,306.77 L 370.01,304.58 L 363.54,299.30 L 362.93,292.04 L 355.58,286.00 L 356.46,283.82 L 355.19,279.77 L 346.56,265.83 L 345.77,260.42 L 343.40,257.37 L 342.65,253.05 L 340.76,251.47 L 341.25,250.10 L 340.32,251.04 L 339.34,249.88 L 340.21,249.06 L 336.76,243.03 L 336.84,240.18 L 333.79,237.23 L 333.03,233.51 L 324.93,224.95 L 322.46,217.28 L 315.86,208.31 L 296.88,196.25 L 296.55,193.67 L 297.82,192.02 L 300.10,193.12 L 301.51,189.70 L 300.23,186.51 L 295.74,182.15 L 296.34,179.83 L 298.02,178.97 L 293.40,173.10 L 293.54,169.66 L 294.64,165.83 L 302.33,157.08 L 306.90,153.08 L 311.22,151.55 L 313.15,159.65 L 310.45,161.79 L 307.65,161.78 L 308.02,165.17 L 310.12,164.91 L 307.79,168.93 L 309.48,169.66 L 313.57,166.36 L 318.75,169.70 L 321.70,169.02 L 324.24,170.60 L 325.19,175.36 L 327.68,177.93 L 331.71,178.79 L 334.47,175.93 L 334.49,173.38 L 338.30,170.93 L 338.14,167.11 L 342.56,157.96 L 343.72,151.11 L 345.82,153.11 L 346.88,152.60 L 346.33,150.67 L 351.86,144.29 L 372.80,136.57 L 381.80,129.59 L 390.53,119.49 L 393.23,109.02 L 396.35,109.69 L 395.18,106.00 L 395.79,102.53 L 389.44,95.16 L 394.39,95.80 L 396.70,93.75 L 401.30,96.83 L 403.14,96.16 L 403.71,98.59 L 406.21,99.05 L 409.99,102.52 L 412.54,109.85 L 415.74,110.17 L 419.44,113.92 L 423.16,114.68 L 425.51,118.48 L 424.94,121.82 L 427.98,123.82 L 430.63,123.78 L 432.01,128.64 L 430.55,131.04 L 434.97,134.65 L 438.37,133.66 L 438.73,134.60 L 439.88,133.09 L 444.36,135.08 L 447.76,134.39 L 451.60,132.92 L 455.01,129.65 L 458.51,131.20 L 459.19,132.77 L 459.89,131.74 L 460.49,133.81 L 467.71,130.76 L 472.53,132.99 L 473.52,135.08 L 474.68,134.31 L 478.41,135.70 L 478.29,136.91 L 479.82,136.71 L 481.90,138.81 L 482.65,138.06 L 483.58,139.58 L 472.06,157.81 L 476.16,159.45 L 479.19,158.61 L 484.55,164.61 L 484.61,166.90 L 482.09,165.97 L 480.97,167.38 L 478.86,163.97 L 474.57,164.85 L 473.53,163.50 L 470.41,164.59 L 468.11,168.10 L 463.12,167.94 L 461.46,169.37 L 452.30,170.38 L 444.23,175.08 L 439.87,179.63 L 435.27,180.85 L 434.27,189.72 L 429.93,196.99 L 431.39,203.79 L 421.09,210.81 L 420.20,214.49 L 421.87,217.93 L 417.32,218.82 L 417.97,220.39 L 416.72,222.01 L 421.88,226.19 L 420.66,228.78 L 422.63,230.04 L 424.77,235.93 L 427.88,237.99 L 427.98,240.01 L 434.29,246.62 L 434.35,249.16 L 430.26,253.85 L 437.03,253.88 L 445.46,255.96 L 447.99,261.84 L 447.44,264.03 L 462.53,263.82 L 475.59,254.22 L 473.91,256.53 L 475.30,258.96 L 473.67,261.41 L 473.63,281.19 L 475.43,279.95 L 479.56,282.11 L 485.17,279.63 L 491.55,280.19 L 506.60,306.65 L 504.76,308.66 L 505.22,310.20 L 501.60,312.89 L 501.77,323.70 L 499.57,326.52 L 503.57,335.48 L 501.11,336.41 L 501.45,338.68 L 497.33,342.01 L 496.77,345.02 L 495.04,345.89 L 494.81,348.97 L 498.79,353.26 L 494.04,359.97 L 498.17,369.68 L 501.58,369.93 L 504.09,371.96 L 500.81,374.10 L 500.66,377.79 L 498.21,378.79 L 494.08,384.90 L 490.79,386.58 L 490.05,388.34 L 492.48,389.72 L 492.69,392.06 L 486.96,395.22 Z M 380.37,337.13 L 380.31,337.25 L 379.62,336.90 L 380.37,337.13 Z M 375.90,329.72 L 375.41,329.72 L 375.64,329.19 L 375.90,329.72 Z M 363.22,299.78 L 363.43,300.05 L 362.50,299.67 L 363.22,299.78 Z M 301.79,203.78 L 301.38,203.79 L 301.19,203.06 L 301.73,202.18 L 301.79,203.78 Z" fill="#4A90D9" stroke="#1a5fa8" stroke-width="1.2"/>
<path d="M 494.82,369.48 L 492.80,369.77 L 493.95,366.56 L 489.74,365.82 L 487.43,362.69 L 486.51,363.98 L 487.73,364.94 L 483.97,363.63 L 485.36,358.96 L 488.54,361.61 L 485.28,356.29 L 487.67,355.13 L 486.36,354.43 L 489.17,354.34 L 489.13,353.38 L 493.88,357.75 L 495.05,357.41 L 496.73,360.71 L 498.63,360.80 L 500.97,363.18 L 500.94,365.03 L 505.16,365.95 L 502.78,367.48 L 503.82,369.94 L 508.41,370.67 L 508.32,371.92 L 502.01,373.92 L 503.53,374.38 L 503.59,376.61 L 499.67,374.79 L 500.76,372.18 L 499.89,370.88 L 503.93,370.58 L 501.01,368.25 L 498.93,367.39 L 499.37,370.35 L 496.32,370.88 L 494.82,369.48 Z" fill="#A8C8E8" stroke="none"/>
<path d="M 553.08,317.24 L 551.74,317.21 L 551.43,314.46 L 553.65,314.21 L 553.08,317.24 Z" fill="#A8C8E8" stroke="none"/>
<path d="M 560.10,315.91 L 558.65,314.80 L 558.37,311.03 L 559.83,311.51 L 560.10,315.91 Z" fill="#A8C8E8" stroke="none"/>
<path d="M 536.89,419.12 L 535.00,420.84 L 533.62,415.64 L 531.47,414.10 L 532.66,412.54 L 530.73,411.35 L 533.99,406.68 L 533.73,404.45 L 531.19,402.69 L 532.94,400.98 L 534.36,401.46 L 533.44,403.68 L 534.53,404.86 L 533.15,411.58 L 536.85,416.76 L 536.89,419.12 Z" fill="#A8C8E8" stroke="none"/>
</svg>