<svg xmlns="http://www.w3.org/2000/svg" width="800" height="500" viewBox="0 0 800 500">
<rect width="800" height="500" fill="#A8C8E8"/>
<path d="M 715.50,479.67 L 715.26,477.71 L 725.05,476.06 L 726.99,472.60 L 743.91,470.07 L 747.28,465.12 L 766.16,470.71 L 794.78,470.41 L 800.00,470.99 L 800.00,500.00 L 705.32,500.00 L 716.00,485.84 L 708.89,482.79 L 715.50,479.67 Z" fill="#E8E0D0" stroke="#B8B0A0" stroke-width="0.5"/>
<path d="M 790.18,74.02 L 787.56,77.49 L 782.66,77.72 L 774.14,82.17 L 772.38,80.64 L 775.10,78.12 L 772.03,76.46 L 766.13,76.63 L 750.76,80.77 L 744.80,80.52 L 721.49,72.39 L 707.97,54.58 L 709.06,52.39 L 693.81,47.32 L 691.79,45.23 L 682.73,45.64 L 683.42,43.99 L 704.33,35.50 L 696.80,29.79 L 691.59,29.04 L 681.98,15.89 L 685.21,6.83 L 683.57,2.12 L 688.85,0.00 L 800.00,0.00 L 800.00,71.97 L 790.18,74.02 Z" fill="#E8E0D0" stroke="#B8B0A0" stroke-width="0.5"/>
<path d="M 616.87,389.72 L 611.19,388.34 L 612.91,386.58 L 620.63,384.90 L 630.32,378.79 L 636.06,377.79 L 636.42,374.10 L 644.10,371.96 L 638.23,369.93 L 630.22,369.68 L 620.53,359.97 L 631.67,353.26 L 622.34,348.97 L 622.88,345.89 L 626.95,345.02 L 628.25,342.01 L 637.91,338.68 L 637.12,336.41 L 642.88,335.48 L 633.51,326.52 L 638.68,323.70 L 638.28,312.89 L 646.76,310.20 L 645.69,308.66 L 650.00,306.65 L 614.70,280.19 L 645.24,280.92 L 646.38,283.41 L 652.71,282.93 L 665.45,280.65 L 675.31,275.32 L 688.03,275.98 L 693.45,272.50 L 703.77,269.38 L 714.01,268.32 L 730.68,262.37 L 764.42,259.38 L 772.51,261.16 L 779.14,258.48 L 783.77,261.23 L 784.33,267.47 L 777.80,271.93 L 779.59,277.58 L 783.75,280.49 L 780.28,285.74 L 782.96,289.14 L 788.97,291.51 L 787.83,293.67 L 789.60,294.20 L 791.10,292.79 L 792.99,293.86 L 795.21,297.81 L 800.00,298.27 L 800.00,470.99 L 794.78,470.41 L 766.16,470.71 L 747.28,465.12 L 743.91,470.07 L 726.99,472.60 L 725.05,476.06 L 715.26,477.71 L 715.50,479.67 L 708.89,482.79 L 686.07,483.93 L 681.50,482.73 L 682.60,478.10 L 678.59,470.52 L 673.24,467.97 L 668.84,456.54 L 660.59,451.00 L 655.10,450.22 L 654.40,447.30 L 658.03,445.29 L 646.79,441.81 L 650.23,440.23 L 645.72,436.44 L 653.79,435.57 L 655.64,433.26 L 649.25,429.77 L 659.35,424.97 L 637.93,416.64 L 639.44,415.29 L 631.38,402.88 L 634.29,401.17 L 625.57,400.08 L 616.87,389.72 Z" fill="#C8D8E8" stroke="#8BAABB" stroke-width="0.8"/>
<path d="M 795.69,298.01 L 792.99,293.86 L 791.10,292.79 L 789.60,294.20 L 787.83,293.67 L 788.97,291.51 L 782.96,289.14 L 780.28,285.74 L 783.75,280.49 L 779.59,277.58 L 777.80,271.93 L 784.33,267.47 L 783.77,261.23 L 779.86,258.59 L 772.51,261.16 L 764.42,259.38 L 730.68,262.37 L 714.01,268.32 L 703.77,269.38 L 693.45,272.50 L 688.03,275.98 L 675.31,275.32 L 665.45,280.65 L 652.71,282.93 L 646.38,283.41 L 645.24,280.92 L 621.88,279.90 L 599.74,279.63 L 586.57,282.11 L 576.90,279.95 L 572.66,281.19 L 572.78,261.41 L 576.60,258.96 L 573.33,256.53 L 577.26,254.22 L 546.65,263.82 L 511.25,264.03 L 512.54,261.84 L 506.62,255.96 L 486.84,253.88 L 470.97,253.85 L 480.57,249.16 L 480.41,246.62 L 465.61,240.01 L 465.38,237.99 L 458.09,235.93 L 453.06,230.04 L 448.44,228.78 L 451.32,226.19 L 439.22,222.01 L 442.15,220.39 L 440.62,218.82 L 451.28,217.93 L 447.36,214.49 L 449.45,210.81 L 473.62,203.79 L 470.18,196.99 L 480.37,189.72 L 482.70,180.85 L 493.50,179.63 L 503.72,175.08 L 522.64,170.38 L 544.14,169.37 L 548.03,167.94 L 559.73,168.10 L 565.12,164.59 L 572.45,163.50 L 574.88,164.85 L 584.94,163.97 L 589.88,167.38 L 592.52,165.97 L 596.54,167.35 L 599.12,166.49 L 621.74,113.44 L 612.69,105.77 L 613.03,102.21 L 595.32,95.99 L 595.86,83.21 L 618.63,80.75 L 625.78,82.70 L 632.09,82.16 L 631.50,78.44 L 626.11,75.53 L 603.85,75.17 L 603.69,64.11 L 616.11,63.00 L 670.59,63.87 L 665.96,62.03 L 669.44,58.86 L 679.85,63.53 L 699.77,56.76 L 711.92,64.07 L 713.15,73.18 L 721.49,72.39 L 744.80,80.52 L 750.76,80.77 L 766.13,76.63 L 772.03,76.46 L 775.15,78.53 L 772.46,81.45 L 775.91,82.01 L 782.66,77.72 L 787.56,77.49 L 790.18,74.02 L 800.00,71.97 L 800.00,298.34 L 795.69,298.01 Z" fill="#C8D8E8" stroke="#8BAABB" stroke-width="0.8"/>
<path d="M 625.57,400.08 L 634.29,401.17 L 631.38,402.88 L 639.44,415.29 L 637.93,416.64 L 659.35,424.97 L 649.25,429.77 L 655.64,433.26 L 653.79,435.57 L 645.72,436.44 L 650.23,440.23 L 646.79,441.81 L 658.03,445.29 L 654.40,447.30 L 655.10,450.22 L 660.59,451.00 L 668.84,456.54 L 673.24,467.97 L 678.59,470.52 L 682.60,478.10 L 681.50,482.73 L 692.18,484.07 L 708.89,482.79 L 716.00,485.84 L 704.91,500.00 L 578.10,500.00 L 578.31,499.22 L 582.57,495.67 L 578.37,493.84 L 573.05,494.65 L 574.29,490.00 L 575.79,486.85 L 578.01,486.00 L 581.20,487.34 L 586.49,484.15 L 590.42,466.79 L 595.69,459.09 L 591.24,451.94 L 592.97,450.59 L 589.56,448.47 L 592.60,432.05 L 588.42,427.76 L 590.12,426.67 L 583.92,413.69 L 586.01,408.09 L 582.41,406.25 L 599.18,404.76 L 606.58,400.17 L 603.94,395.22 L 617.37,392.06 L 625.57,400.08 Z" fill="#C8D8E8" stroke="#8BAABB" stroke-width="0.8"/>
<path d="M 247.87,66.65 L 241.52,65.29 L 248.45,62.16 L 259.31,62.83 L 260.33,60.57 L 257.86,58.64 L 255.58,59.41 L 254.10,55.88 L 259.20,51.72 L 259.80,52.60 L 268.21,48.06 L 271.82,49.87 L 272.13,47.79 L 273.68,49.95 L 276.65,50.71 L 278.52,50.31 L 278.09,48.00 L 283.87,47.60 L 285.67,49.22 L 288.22,49.46 L 291.35,49.02 L 291.70,48.41 L 289.30,46.07 L 294.18,45.60 L 292.81,44.78 L 296.27,44.27 L 293.34,43.45 L 296.91,43.22 L 296.35,42.14 L 292.88,42.36 L 302.45,38.17 L 299.99,37.85 L 303.33,35.97 L 308.80,36.59 L 308.24,33.31 L 310.96,34.01 L 308.69,32.70 L 316.73,30.47 L 313.47,29.36 L 316.44,29.53 L 315.46,28.16 L 320.15,26.42 L 311.40,27.70 L 309.54,25.51 L 313.12,25.37 L 313.92,23.83 L 310.96,23.13 L 307.72,26.18 L 304.20,24.48 L 304.54,21.90 L 309.59,21.51 L 312.06,20.45 L 306.10,19.05 L 309.04,16.93 L 308.53,12.14 L 311.20,12.96 L 307.62,10.40 L 306.35,1.03 L 302.09,0.00 L 688.85,0.00 L 683.57,2.12 L 685.21,6.83 L 681.98,15.89 L 691.59,29.04 L 696.80,29.79 L 704.33,35.50 L 683.42,43.99 L 682.73,45.64 L 691.79,45.23 L 693.81,47.32 L 709.06,52.39 L 707.97,54.58 L 721.16,70.21 L 721.49,72.39 L 713.15,73.18 L 711.92,64.07 L 699.77,56.76 L 679.85,63.53 L 669.44,58.86 L 665.96,62.03 L 670.59,63.87 L 616.11,63.00 L 603.69,64.11 L 603.85,75.17 L 626.11,75.53 L 631.50,78.44 L 632.09,82.16 L 625.78,82.70 L 618.63,80.75 L 595.86,83.21 L 595.32,95.99 L 613.03,102.21 L 612.69,105.77 L 621.74,113.44 L 599.39,165.56 L 585.71,158.61 L 578.61,159.45 L 569.00,157.81 L 596.01,139.60 L 593.83,138.06 L 592.06,138.81 L 575.14,134.31 L 572.42,135.08 L 562.26,130.99 L 541.86,133.81 L 540.45,131.74 L 538.81,132.77 L 537.22,131.20 L 529.01,129.65 L 521.01,132.92 L 512.01,134.39 L 504.04,135.08 L 493.52,133.09 L 490.83,134.60 L 489.98,133.66 L 482.01,134.65 L 471.65,131.04 L 475.07,128.64 L 471.83,123.78 L 465.61,123.82 L 458.48,121.82 L 459.82,118.48 L 454.31,114.68 L 445.59,113.92 L 436.91,110.17 L 429.41,109.85 L 423.43,102.52 L 414.57,99.05 L 408.70,98.59 L 407.36,96.16 L 403.06,96.83 L 394.83,94.00 L 389.23,95.08 L 375.66,91.91 L 369.23,91.81 L 358.80,87.05 L 349.04,85.37 L 344.46,86.39 L 344.79,88.91 L 338.57,89.57 L 305.69,86.64 L 302.90,82.14 L 295.89,81.03 L 293.61,78.86 L 287.89,79.44 L 277.14,77.53 L 249.14,68.77 L 247.87,66.65 Z M 278.08,49.90 L 276.57,50.51 L 273.39,47.48 L 278.08,49.90 Z M 287.79,48.22 L 290.38,48.98 L 286.31,48.98 L 285.74,47.23 L 287.79,48.22 Z M 291.40,48.82 L 286.53,46.75 L 287.93,46.76 L 291.40,48.82 Z M 310.66,20.57 L 299.68,21.48 L 304.48,19.16 L 310.66,20.57 Z M 139.57,25.18 L 140.33,25.12 L 140.41,25.39 L 139.57,25.18 Z M 275.28,42.74 L 273.18,43.18 L 273.81,42.97 L 275.28,42.74 Z" fill="#C8D8E8" stroke="#8BAABB" stroke-width="0.8"/>
<path d="M 277.14,77.53 L 287.89,79.44 L 293.61,78.86 L 295.89,81.03 L 302.90,82.14 L 305.69,86.64 L 338.57,89.57 L 344.79,88.91 L 344.46,86.39 L 349.04,85.37 L 358.80,87.05 L 368.11,91.54 L 389.23,95.08 L 375.01,95.45 L 390.13,102.53 L 388.69,106.00 L 391.45,109.81 L 384.37,108.87 L 377.79,119.49 L 357.31,129.59 L 333.86,137.18 L 287.11,144.29 L 274.12,150.67 L 275.42,152.60 L 272.94,153.11 L 268.02,151.11 L 265.30,157.96 L 254.92,167.11 L 255.30,170.93 L 246.37,173.38 L 246.31,175.93 L 239.84,178.79 L 230.39,177.93 L 224.56,175.36 L 222.33,170.60 L 216.37,169.02 L 209.46,169.70 L 197.31,166.36 L 187.72,169.66 L 183.40,168.58 L 189.21,164.91 L 184.30,165.17 L 183.41,161.78 L 189.99,161.79 L 196.32,159.65 L 192.36,151.74 L 189.38,150.75 L 204.70,147.83 L 213.66,137.53 L 208.04,130.14 L 212.12,127.48 L 207.12,129.37 L 206.96,136.67 L 200.34,137.24 L 205.63,135.65 L 201.50,135.48 L 204.83,132.63 L 202.35,132.96 L 195.93,137.40 L 191.81,137.85 L 192.76,139.85 L 176.91,134.49 L 166.75,132.83 L 162.82,130.24 L 168.45,130.86 L 173.71,128.13 L 169.05,120.36 L 173.44,116.19 L 166.91,111.09 L 170.60,109.41 L 180.33,108.82 L 185.11,103.60 L 187.89,104.48 L 191.04,104.56 L 187.37,103.93 L 183.24,99.76 L 200.83,91.72 L 203.21,87.02 L 198.58,81.39 L 199.86,79.32 L 216.46,76.12 L 215.89,77.52 L 218.07,78.83 L 217.37,76.42 L 235.82,74.48 L 240.11,72.47 L 242.70,74.14 L 245.18,72.03 L 246.25,72.15 L 247.44,71.25 L 249.76,71.45 L 247.03,70.74 L 249.14,68.77 L 277.14,77.53 Z M 206.52,139.89 L 197.68,144.82 L 192.35,144.77 L 194.53,139.76 L 200.49,138.70 L 206.52,139.89 Z M 246.35,71.55 L 244.07,72.15 L 242.55,71.29 L 246.25,69.80 L 246.35,71.55 Z M 211.84,136.64 L 207.71,138.48 L 207.52,138.09 L 209.98,135.68 L 211.84,136.64 Z" fill="#C8D8E8" stroke="#8BAABB" stroke-width="0.8"/>
<path d="M 603.94,395.22 L 606.58,400.17 L 599.18,404.76 L 582.41,406.25 L 543.30,395.33 L 542.68,390.25 L 538.16,388.27 L 514.31,383.75 L 501.59,378.54 L 488.10,377.09 L 462.85,371.35 L 451.77,370.52 L 438.10,365.67 L 398.51,357.14 L 380.41,347.88 L 363.66,343.29 L 355.02,336.03 L 349.44,335.07 L 349.35,330.51 L 345.35,330.64 L 346.61,328.83 L 350.88,329.67 L 353.75,324.35 L 352.18,321.25 L 329.34,306.77 L 329.66,304.58 L 314.49,299.30 L 313.07,292.04 L 295.82,286.00 L 297.90,283.82 L 294.90,279.77 L 274.68,265.83 L 272.82,260.42 L 267.27,257.37 L 265.50,253.05 L 261.07,251.47 L 262.23,250.10 L 260.03,251.04 L 257.73,249.88 L 259.78,249.06 L 251.68,243.03 L 251.88,240.18 L 244.73,237.23 L 242.93,233.51 L 223.96,224.95 L 218.16,217.28 L 202.67,208.31 L 158.17,196.25 L 157.40,193.67 L 160.37,192.02 L 165.71,193.12 L 169.02,189.70 L 166.03,186.51 L 155.50,182.15 L 156.91,179.83 L 160.84,178.97 L 150.00,173.10 L 150.34,169.66 L 152.91,165.83 L 170.94,157.08 L 181.66,153.08 L 191.80,151.55 L 196.32,159.65 L 189.99,161.79 L 183.41,161.78 L 184.30,165.17 L 189.21,164.91 L 183.75,168.93 L 187.72,169.66 L 197.31,166.36 L 209.46,169.70 L 216.37,169.02 L 222.33,170.60 L 224.56,175.36 L 230.39,177.93 L 239.84,178.79 L 246.31,175.93 L 246.37,173.38 L 255.30,170.93 L 254.92,167.11 L 265.30,157.96 L 268.02,151.11 L 272.94,153.11 L 275.42,152.60 L 274.12,150.67 L 287.11,144.29 L 336.21,136.57 L 357.31,129.59 L 377.79,119.49 L 384.13,109.02 L 391.44,109.69 L 388.69,106.00 L 390.13,102.53 L 375.24,95.16 L 386.84,95.80 L 392.26,93.75 L 403.06,96.83 L 407.36,96.16 L 408.70,98.59 L 414.57,99.05 L 423.43,102.52 L 429.41,109.85 L 436.91,110.17 L 445.59,113.92 L 454.31,114.68 L 459.82,118.48 L 458.48,121.82 L 465.61,123.82 L 471.83,123.78 L 475.07,128.64 L 471.65,131.04 L 482.01,134.65 L 489.98,133.66 L 490.83,134.60 L 493.52,133.09 L 504.04,135.08 L 512.01,134.39 L 521.01,132.92 L 529.01,129.65 L 537.22,131.20 L 538.81,132.77 L 540.45,131.74 L 541.86,133.81 L 558.78,130.76 L 570.09,132.99 L 572.42,135.08 L 575.14,134.31 L 583.88,135.70 L 583.60,136.91 L 587.18,136.71 L 592.06,138.81 L 593.83,138.06 L 596.01,139.58 L 569.00,157.81 L 578.61,159.45 L 585.71,158.61 L 598.29,164.61 L 598.43,166.90 L 592.52,165.97 L 589.88,167.38 L 584.94,163.97 L 574.88,164.85 L 572.45,163.50 L 565.12,164.59 L 559.73,168.10 L 548.03,167.94 L 544.14,169.37 L 522.64,170.38 L 503.72,175.08 L 493.50,179.63 L 482.70,180.85 L 480.37,189.72 L 470.18,196.99 L 473.62,203.79 L 449.45,210.81 L 447.36,214.49 L 451.28,217.93 L 440.62,218.82 L 442.15,220.39 L 439.22,222.01 L 451.32,226.19 L 448.44,228.78 L 453.06,230.04 L 458.09,235.93 L 465.38,237.99 L 465.61,240.01 L 480.41,246.62 L 480.57,249.16 L 470.97,253.85 L 486.84,253.88 L 506.62,255.96 L 512.54,261.84 L 511.25,264.03 L 546.65,263.82 L 577.26,254.22 L 573.33,256.53 L 576.60,258.96 L 572.78,261.41 L 572.66,281.19 L 576.90,279.95 L 586.57,282.11 L 599.74,279.63 L 614.70,280.19 L 650.00,306.65 L 645.69,308.66 L 646.76,310.20 L 638.28,312.89 L 638.68,323.70 L 633.51,326.52 L 642.88,335.48 L 637.12,336.41 L 637.91,338.68 L 628.25,342.01 L 626.95,345.02 L 622.88,345.89 L 622.34,348.97 L 631.67,353.26 L 620.53,359.97 L 630.22,369.68 L 638.23,369.93 L 644.10,371.96 L 636.42,374.10 L 636.06,377.79 L 630.32,378.79 L 620.63,384.90 L 612.91,386.58 L 611.19,388.34 L 616.87,389.72 L 617.37,392.06 L 603.94,395.22 Z M 353.97,337.13 L 353.82,337.25 L 352.21,336.90 L 353.97,337.13 Z M 343.47,329.72 L 342.33,329.72 L 342.86,329.19 L 343.47,329.72 Z M 313.74,299.78 L 314.23,300.05 L 312.05,299.67 L 313.74,299.78 Z M 169.68,203.78 L 168.72,203.79 L 168.26,203.06 L 169.54,202.18 L 169.68,203.78 Z" fill="#4A90D9" stroke="#1a5fa8" stroke-width="1.2"/>
<path d="M 622.37,369.48 L 617.63,369.77 L 620.33,366.56 L 610.46,365.82 L 605.04,362.69 L 602.87,363.98 L 605.75,364.94 L 596.92,363.63 L 600.17,358.96 L 607.64,361.61 L 599.99,356.29 L 605.60,355.13 L 602.54,354.43 L 609.12,354.34 L 609.03,353.38 L 620.17,357.75 L 622.91,357.41 L 626.84,360.71 L 631.30,360.80 L 636.80,363.18 L 636.72,365.03 L 646.61,365.95 L 641.04,367.48 L 643.47,369.94 L 654.25,370.67 L 654.04,371.92 L 639.23,373.92 L 642.79,374.38 L 642.93,376.61 L 633.73,374.79 L 636.30,372.18 L 634.27,370.88 L 643.72,370.58 L 636.88,368.25 L 632.01,367.39 L 633.05,370.35 L 625.88,370.88 L 622.37,369.48 Z" fill="#A8C8E8" stroke="none"/>
<path d="M 759.01,317.24 L 755.86,317.21 L 755.13,314.46 L 760.33,314.21 L 759.01,317.24 Z" fill="#A8C8E8" stroke="none"/>
<path d="M 775.46,315.91 L 772.07,314.80 L 771.40,311.03 L 774.82,311.51 L 775.46,315.91 Z" fill="#A8C8E8" stroke="none"/>
<path d="M 721.02,419.12 L 716.60,420.84 L 713.36,415.64 L 708.32,414.10 L 711.10,412.54 L 706.58,411.35 L 714.22,406.68 L 713.61,404.45 L 707.65,402.69 L 711.77,400.98 L 715.10,401.46 L 712.95,403.68 L 715.50,404.86 L 712.26,411.58 L 720.95,416.76 L 721.02,419.12 Z" fill="#A8C8E8" stroke="none"/>
</svg>