<svg xmlns="http://www.w3.org/2000/svg" width="800" height="500" viewBox="0 0 800 500">
<rect width="800" height="500" fill="#A8C8E8"/>
<path d="M 773.55,365.44 L 773.93,365.61 L 773.45,365.64 L 773.55,365.44 Z M 757.20,347.39 L 756.98,347.49 L 756.92,347.41 L 757.20,347.39 Z" fill="#E8E0D0" stroke="#B8B0A0" stroke-width="0.5"/>
<path d="M 220.33,149.26 L 219.82,149.37 L 219.34,148.73 L 220.33,149.26 Z M 115.74,56.42 L 116.24,56.67 L 115.05,56.83 L 114.36,56.41 L 115.74,56.42 Z M 139.71,31.36 L 139.37,32.36 L 137.91,31.82 L 139.71,31.36 Z" fill="#E8E0D0" stroke="#B8B0A0" stroke-width="0.5"/>
<path d="M 63.92,315.04 L 64.51,315.59 L 62.62,315.56 L 63.92,315.04 Z M 69.08,282.47 L 68.73,282.71 L 68.21,281.89 L 69.08,281.30 L 69.08,282.47 Z M 62.18,109.89 L 61.42,109.53 L 61.56,109.43 L 62.18,109.89 Z M 17.16,304.08 L 17.15,304.92 L 14.52,304.59 L 17.16,304.08 Z M 78.46,287.79 L 78.24,287.27 L 78.87,287.25 L 78.46,287.79 Z M 58.69,285.25 L 58.18,284.62 L 58.56,284.57 L 58.69,285.25 Z M 54.46,282.17 L 54.58,282.19 L 54.78,282.34 L 54.46,282.17 Z M 54.13,282.08 L 54.04,282.09 L 54.08,282.05 L 54.13,282.08 Z M 37.38,273.15 L 37.25,273.01 L 38.20,273.26 L 37.38,273.15 Z M 16.40,266.40 L 16.67,266.53 L 16.68,266.66 L 15.86,267.33 L 16.40,266.40 Z" fill="#E8E0D0" stroke="#B8B0A0" stroke-width="0.5"/>
<path d="M 618.54,317.24 L 618.28,317.31 L 618.85,316.98 L 618.54,317.24 Z M 612.93,308.23 L 612.48,308.37 L 613.04,308.13 L 612.93,308.23 Z M 609.45,306.14 L 609.52,306.44 L 609.17,306.60 L 609.45,306.14 Z M 606.52,306.08 L 606.40,306.01 L 606.70,306.07 L 606.52,306.08 Z M 604.00,305.70 L 603.83,305.78 L 603.99,305.64 L 604.18,305.64 L 604.00,305.70 Z M 511.18,279.05 L 511.07,279.55 L 510.43,279.66 L 511.18,279.05 Z M 541.17,274.47 L 540.99,274.43 L 541.47,274.53 L 541.17,274.47 Z M 551.42,273.70 L 551.27,273.62 L 551.71,273.59 L 551.42,273.70 Z M 489.00,272.13 L 489.38,272.19 L 489.56,272.72 L 489.00,272.13 Z M 503.19,271.01 L 503.85,271.21 L 504.09,271.53 L 503.19,271.01 Z M 551.75,265.60 L 550.82,265.30 L 551.17,265.32 L 551.75,265.60 Z M 442.56,250.69 L 442.86,251.13 L 442.54,250.76 L 442.56,250.69 Z M 249.36,247.76 L 249.32,248.11 L 249.05,247.97 L 249.36,247.76 Z M 483.14,242.88 L 483.86,242.94 L 484.34,243.53 L 483.14,242.88 Z M 560.16,243.01 L 561.12,242.51 L 560.28,243.01 L 560.16,243.01 Z M 441.82,237.19 L 442.82,237.49 L 442.53,237.49 L 441.82,237.19 Z M 276.60,237.09 L 276.79,237.06 L 276.32,237.35 L 276.60,237.09 Z M 165.67,234.50 L 165.74,234.67 L 164.96,233.75 L 165.67,234.50 Z M 414.08,231.72 L 414.56,232.06 L 414.14,231.93 L 414.08,231.72 Z M 208.20,228.63 L 208.01,228.56 L 208.07,228.47 L 208.20,228.63 Z M 369.11,218.91 L 370.03,219.29 L 370.43,219.68 L 369.11,218.91 Z M 498.97,218.53 L 499.20,218.53 L 498.51,218.89 L 498.97,218.53 Z M 309.68,218.77 L 310.12,218.32 L 310.94,219.05 L 309.68,218.77 Z M 355.53,218.52 L 355.55,218.71 L 355.01,218.15 L 355.53,218.52 Z M 150.38,218.29 L 150.00,218.16 L 150.46,218.21 L 150.38,218.29 Z M 402.73,217.15 L 403.05,217.44 L 402.50,217.57 L 402.73,217.15 Z M 382.32,213.34 L 380.00,213.05 L 379.34,212.76 L 382.32,213.34 Z M 362.67,211.75 L 362.30,210.72 L 362.83,210.91 L 362.67,211.75 Z M 352.59,209.89 L 351.54,209.27 L 352.28,209.65 L 352.59,209.89 Z M 336.15,209.27 L 336.27,209.46 L 336.16,209.37 L 336.15,209.27 Z M 322.58,208.97 L 323.52,209.31 L 322.45,209.01 L 322.58,208.97 Z M 329.26,206.85 L 328.78,206.67 L 329.76,207.02 L 329.26,206.85 Z M 318.40,206.70 L 318.43,206.63 L 318.55,206.86 L 318.40,206.70 Z M 369.28,196.71 L 368.71,196.73 L 369.55,196.64 L 369.28,196.71 Z M 490.61,192.71 L 490.01,192.31 L 490.26,192.40 L 490.61,192.71 Z M 324.32,346.29 L 325.80,346.18 L 325.26,346.50 L 324.32,346.29 Z M 279.47,338.93 L 278.06,338.92 L 277.99,338.41 L 279.47,338.93 Z M 648.60,334.50 L 650.00,333.98 L 648.94,334.85 L 648.60,334.50 Z M 231.17,324.02 L 230.77,324.94 L 230.12,323.79 L 231.17,324.02 Z M 504.29,311.16 L 505.55,312.11 L 504.16,312.20 L 504.29,311.16 Z M 500.92,250.98 L 499.60,250.92 L 505.01,248.26 L 500.92,250.98 Z M 286.44,251.15 L 282.41,248.75 L 276.59,249.06 L 275.15,246.14 L 281.40,245.57 L 283.54,248.66 L 286.61,248.96 L 286.44,251.15 Z M 269.79,246.36 L 267.19,245.17 L 270.00,245.05 L 269.79,246.36 Z M 240.78,234.17 L 239.92,234.50 L 239.24,234.01 L 240.78,234.17 Z M 229.26,233.34 L 231.26,235.10 L 228.06,235.59 L 229.26,233.34 Z M 240.06,233.22 L 239.05,233.63 L 239.36,232.49 L 240.06,233.22 Z M 228.44,232.17 L 226.58,230.91 L 228.20,230.68 L 228.44,232.17 Z M 221.03,229.15 L 221.20,229.82 L 220.43,229.59 L 221.03,229.15 Z M 359.23,223.26 L 359.20,224.05 L 357.85,223.80 L 359.23,223.26 Z M 555.74,133.16 L 555.74,134.77 L 554.50,134.77 L 554.16,132.93 L 555.74,133.16 Z M 545.25,124.93 L 543.14,126.39 L 542.79,125.21 L 545.25,124.93 Z M 549.23,122.99 L 545.20,123.04 L 544.89,123.84 L 542.05,122.57 L 546.08,121.30 L 550.64,122.05 L 549.23,122.99 Z M 520.25,115.74 L 518.59,117.38 L 516.91,116.18 L 520.25,115.74 Z M 533.50,108.88 L 530.73,109.55 L 531.24,108.02 L 533.50,108.88 Z M 520.47,108.63 L 516.28,109.54 L 514.29,107.46 L 519.69,107.46 L 520.47,108.63 Z M 502.93,93.80 L 504.66,93.75 L 503.71,94.02 L 502.93,93.80 Z M 411.11,406.23 L 410.25,406.25 L 410.22,405.07 L 411.11,406.23 Z M 548.20,314.72 L 548.72,314.60 L 550.31,314.72 L 548.20,314.72 Z M 635.13,308.62 L 636.17,308.77 L 636.87,309.27 L 635.13,308.62 Z M 558.79,298.49 L 557.98,297.39 L 558.90,298.62 L 558.79,298.49 Z M 614.57,261.69 L 610.81,260.72 L 614.59,261.61 L 614.57,261.69 Z M 503.22,259.43 L 501.76,259.01 L 501.00,258.55 L 503.42,259.43 L 503.22,259.43 Z M 595.78,257.46 L 597.25,258.06 L 598.24,258.98 L 595.78,257.46 Z M 497.53,254.95 L 496.11,254.19 L 497.35,254.57 L 499.96,256.69 L 497.53,254.95 Z M 455.50,246.90 L 453.60,245.81 L 455.68,246.86 L 455.50,246.90 Z M 433.23,244.32 L 432.28,244.18 L 433.23,244.23 L 433.23,244.32 Z M 382.26,243.97 L 383.01,244.38 L 383.66,245.05 L 382.26,243.97 Z M 378.27,243.03 L 378.24,242.50 L 378.60,243.43 L 378.27,243.03 Z M 432.82,231.38 L 430.35,231.34 L 433.16,231.32 L 434.55,232.10 L 432.82,231.38 Z M 428.57,231.50 L 426.50,230.68 L 428.85,231.47 L 428.57,231.50 Z M 422.74,229.29 L 420.56,228.61 L 422.41,228.88 L 423.54,230.03 L 422.74,229.29 Z M 412.23,228.62 L 411.45,228.07 L 412.25,228.49 L 412.23,228.62 Z M 408.01,226.75 L 407.79,226.54 L 408.77,226.61 L 408.01,226.75 Z M 380.55,226.81 L 379.25,225.47 L 377.89,223.52 L 377.70,222.74 L 380.55,226.81 Z M 375.28,222.42 L 377.26,222.07 L 377.70,222.30 L 375.28,222.42 Z M 456.91,222.40 L 457.64,221.76 L 456.40,223.18 L 456.91,222.40 Z M 517.30,220.83 L 516.56,221.10 L 517.08,220.79 L 517.75,220.72 L 517.30,220.83 Z M 387.34,219.69 L 387.75,219.85 L 389.09,220.67 L 387.34,219.69 Z M 390.05,217.93 L 389.26,217.62 L 390.37,217.98 L 391.89,219.91 L 390.05,217.93 Z M 314.66,204.86 L 312.32,204.34 L 314.54,204.57 L 315.64,205.54 L 314.66,204.86 Z M 300.28,203.54 L 299.19,203.25 L 300.46,203.43 L 300.28,203.54 Z M 387.68,200.63 L 386.72,200.85 L 386.63,200.65 L 387.50,199.55 L 386.86,200.71 L 387.68,200.63 Z M 361.74,196.93 L 360.93,196.61 L 361.93,196.95 L 361.74,196.93 Z M 394.52,197.05 L 396.22,196.33 L 393.29,196.73 L 396.44,196.23 L 393.29,197.81 L 394.52,197.05 Z M 371.86,195.20 L 370.03,195.20 L 372.05,195.14 L 371.86,195.20 Z M 604.08,305.96 L 603.97,305.90 L 604.02,305.90 L 604.08,305.96 Z M 542.86,297.75 L 542.70,297.78 L 543.01,297.70 L 542.86,297.75 Z M 416.84,232.85 L 417.58,233.52 L 416.06,233.21 L 416.84,232.85 Z" fill="#4A90D9" stroke="#1a5fa8" stroke-width="1.2"/>
</svg>