<svg xmlns="http://www.w3.org/2000/svg" width="800" height="500" viewBox="0 0 800 500">
<rect width="800" height="500" fill="#A8C8E8"/>
<path d="M 621.40,365.44 L 621.62,365.61 L 621.33,365.64 L 621.40,365.44 Z M 611.70,347.39 L 611.57,347.49 L 611.54,347.41 L 611.70,347.39 Z" fill="#E8E0D0" stroke="#B8B0A0" stroke-width="0.5"/>
<path d="M 293.51,149.26 L 293.21,149.37 L 292.93,148.73 L 293.51,149.26 Z M 231.53,56.42 L 231.83,56.67 L 231.12,56.83 L 230.71,56.41 L 231.53,56.42 Z M 245.73,31.36 L 245.53,32.36 L 244.67,31.82 L 245.73,31.36 Z" fill="#E8E0D0" stroke="#B8B0A0" stroke-width="0.5"/>
<path d="M 200.81,315.04 L 201.17,315.59 L 200.05,315.56 L 200.81,315.04 Z M 203.87,282.47 L 203.67,282.71 L 203.36,281.89 L 203.87,281.30 L 203.87,282.47 Z M 199.78,109.89 L 199.33,109.53 L 199.41,109.43 L 199.78,109.89 Z M 173.10,304.08 L 173.09,304.92 L 171.54,304.59 L 173.10,304.08 Z M 209.43,287.79 L 209.30,287.27 L 209.68,287.25 L 209.43,287.79 Z M 197.72,285.25 L 197.41,284.62 L 197.64,284.57 L 197.72,285.25 Z M 195.21,282.17 L 195.28,282.19 L 195.40,282.34 L 195.21,282.17 Z M 195.01,282.08 L 194.96,282.09 L 194.98,282.05 L 195.01,282.08 Z M 185.09,273.15 L 185.01,273.01 L 185.57,273.26 L 185.09,273.15 Z M 172.65,266.40 L 172.81,266.53 L 172.82,266.66 L 172.33,267.33 L 172.65,266.40 Z" fill="#E8E0D0" stroke="#B8B0A0" stroke-width="0.5"/>
<path d="M 529.52,317.24 L 529.37,317.31 L 529.71,316.98 L 529.52,317.24 Z M 526.20,308.23 L 525.93,308.37 L 526.26,308.13 L 526.20,308.23 Z M 524.13,306.14 L 524.17,306.44 L 523.97,306.60 L 524.13,306.14 Z M 522.40,306.08 L 522.33,306.01 L 522.50,306.07 L 522.40,306.08 Z M 520.90,305.70 L 520.81,305.78 L 520.90,305.64 L 521.01,305.64 L 520.90,305.70 Z M 465.89,279.05 L 465.83,279.55 L 465.45,279.66 L 465.89,279.05 Z M 483.67,274.47 L 483.56,274.43 L 483.85,274.53 L 483.67,274.47 Z M 489.74,273.70 L 489.65,273.62 L 489.92,273.59 L 489.74,273.70 Z M 452.75,272.13 L 452.98,272.19 L 453.08,272.72 L 452.75,272.13 Z M 461.16,271.01 L 461.55,271.21 L 461.69,271.53 L 461.16,271.01 Z M 489.94,265.60 L 489.39,265.30 L 489.60,265.32 L 489.94,265.60 Z M 425.22,250.69 L 425.40,251.13 L 425.21,250.76 L 425.22,250.69 Z M 310.72,247.76 L 310.69,248.11 L 310.54,247.97 L 310.72,247.76 Z M 449.28,242.88 L 449.70,242.94 L 449.98,243.53 L 449.28,242.88 Z M 494.92,243.01 L 495.49,242.51 L 495.00,243.01 L 494.92,243.01 Z M 424.78,237.19 L 425.38,237.49 L 425.21,237.49 L 424.78,237.19 Z M 326.86,237.09 L 326.98,237.06 L 326.70,237.35 L 326.86,237.09 Z M 261.12,234.50 L 261.16,234.67 L 260.70,233.75 L 261.12,234.50 Z M 408.35,231.72 L 408.63,232.06 L 408.38,231.93 L 408.35,231.72 Z M 286.32,228.63 L 286.21,228.56 L 286.25,228.47 L 286.32,228.63 Z M 381.69,218.91 L 382.24,219.29 L 382.47,219.68 L 381.69,218.91 Z M 458.66,218.53 L 458.80,218.53 L 458.38,218.89 L 458.66,218.53 Z M 346.47,218.77 L 346.73,218.32 L 347.22,219.05 L 346.47,218.77 Z M 373.64,218.52 L 373.66,218.71 L 373.34,218.15 L 373.64,218.52 Z M 252.06,218.29 L 251.83,218.16 L 252.10,218.21 L 252.06,218.29 Z M 401.62,217.15 L 401.81,217.44 L 401.48,217.57 L 401.62,217.15 Z M 389.52,213.34 L 388.14,213.05 L 387.75,212.76 L 389.52,213.34 Z M 377.87,211.75 L 377.66,210.72 L 377.97,210.91 L 377.87,211.75 Z M 371.90,209.89 L 371.28,209.27 L 371.72,209.65 L 371.90,209.89 Z M 362.16,209.27 L 362.23,209.46 L 362.16,209.37 L 362.16,209.27 Z M 354.11,208.97 L 354.67,209.31 L 354.04,209.01 L 354.11,208.97 Z M 358.08,206.85 L 357.79,206.67 L 358.37,207.02 L 358.08,206.85 Z M 351.64,206.70 L 351.65,206.63 L 351.73,206.86 L 351.64,206.70 Z M 381.79,196.71 L 381.46,196.73 L 381.95,196.64 L 381.79,196.71 Z M 453.70,192.71 L 453.34,192.31 L 453.50,192.40 L 453.70,192.71 Z M 355.14,346.29 L 356.02,346.18 L 355.70,346.50 L 355.14,346.29 Z M 328.57,338.93 L 327.73,338.92 L 327.69,338.41 L 328.57,338.93 Z M 547.34,334.50 L 548.17,333.98 L 547.54,334.85 L 547.34,334.50 Z M 299.94,324.02 L 299.70,324.94 L 299.32,323.79 L 299.94,324.02 Z M 461.81,311.16 L 462.56,312.11 L 461.73,312.20 L 461.81,311.16 Z M 459.81,250.98 L 459.03,250.92 L 462.24,248.26 L 459.81,250.98 Z M 332.69,251.15 L 330.31,248.75 L 326.86,249.06 L 326.00,246.14 L 329.71,245.57 L 330.98,248.66 L 332.80,248.96 L 332.69,251.15 Z M 322.83,246.36 L 321.29,245.17 L 322.95,245.05 L 322.83,246.36 Z M 305.63,234.17 L 305.12,234.50 L 304.72,234.01 L 305.63,234.17 Z M 298.81,233.34 L 299.99,235.10 L 298.10,235.59 L 298.81,233.34 Z M 305.21,233.22 L 304.61,233.63 L 304.79,232.49 L 305.21,233.22 Z M 298.32,232.17 L 297.22,230.91 L 298.18,230.68 L 298.32,232.17 Z M 293.93,229.15 L 294.03,229.82 L 293.58,229.59 L 293.93,229.15 Z M 375.84,223.26 L 375.82,224.05 L 375.02,223.80 L 375.84,223.26 Z M 492.30,133.16 L 492.30,134.77 L 491.57,134.77 L 491.37,132.93 L 492.30,133.16 Z M 486.09,124.93 L 484.83,126.39 L 484.63,125.21 L 486.09,124.93 Z M 488.44,122.99 L 486.06,123.04 L 485.87,123.84 L 484.19,122.57 L 486.58,121.30 L 489.28,122.05 L 488.44,122.99 Z M 471.27,115.74 L 470.28,117.38 L 469.29,116.18 L 471.27,115.74 Z M 479.12,108.88 L 477.48,109.55 L 477.78,108.02 L 479.12,108.88 Z M 471.40,108.63 L 468.92,109.54 L 467.74,107.46 L 470.94,107.46 L 471.40,108.63 Z M 461.00,93.80 L 462.03,93.75 L 461.47,94.02 L 461.00,93.80 Z M 406.59,406.23 L 406.07,406.25 L 406.06,405.07 L 406.59,406.23 Z M 487.84,314.72 L 488.14,314.60 L 489.09,314.72 L 487.84,314.72 Z M 539.35,308.62 L 539.97,308.77 L 540.39,309.27 L 539.35,308.62 Z M 494.11,298.49 L 493.63,297.39 L 494.18,298.62 L 494.11,298.49 Z M 527.17,261.69 L 524.94,260.72 L 527.18,261.61 L 527.17,261.69 Z M 461.17,259.43 L 460.31,259.01 L 459.86,258.55 L 461.30,259.43 L 461.17,259.43 Z M 516.04,257.46 L 516.90,258.06 L 517.49,258.98 L 516.04,257.46 Z M 457.80,254.95 L 456.96,254.19 L 457.69,254.57 L 459.24,256.69 L 457.80,254.95 Z M 432.89,246.90 L 431.77,245.81 L 433.00,246.86 L 432.89,246.90 Z M 419.69,244.32 L 419.13,244.18 L 419.70,244.23 L 419.69,244.32 Z M 389.49,243.97 L 389.93,244.38 L 390.31,245.05 L 389.49,243.97 Z M 387.12,243.03 L 387.10,242.50 L 387.32,243.43 L 387.12,243.03 Z M 419.45,231.38 L 417.99,231.34 L 419.65,231.32 L 420.47,232.10 L 419.45,231.38 Z M 416.93,231.50 L 415.71,230.68 L 417.10,231.47 L 416.93,231.50 Z M 413.48,229.29 L 412.19,228.61 L 413.28,228.88 L 413.95,230.03 L 413.48,229.29 Z M 407.25,228.62 L 406.79,228.07 L 407.26,228.49 L 407.25,228.62 Z M 404.75,226.75 L 404.62,226.54 L 405.20,226.61 L 404.75,226.75 Z M 388.47,226.81 L 387.70,225.47 L 386.89,223.52 L 386.78,222.74 L 388.47,226.81 Z M 385.35,222.42 L 386.52,222.07 L 386.78,222.30 L 385.35,222.42 Z M 433.73,222.40 L 434.16,221.76 L 433.43,223.18 L 433.73,222.40 Z M 469.52,220.83 L 469.08,221.10 L 469.39,220.79 L 469.79,220.72 L 469.52,220.83 Z M 392.50,219.69 L 392.74,219.85 L 393.53,220.67 L 392.50,219.69 Z M 394.10,217.93 L 393.64,217.62 L 394.29,217.98 L 395.19,219.91 L 394.10,217.93 Z M 349.42,204.86 L 348.03,204.34 L 349.35,204.57 L 350.00,205.54 L 349.42,204.86 Z M 340.90,203.54 L 340.25,203.25 L 341.01,203.43 L 340.90,203.54 Z M 392.70,200.63 L 392.13,200.85 L 392.08,200.65 L 392.59,199.55 L 392.21,200.71 L 392.70,200.63 Z M 377.32,196.93 L 376.84,196.61 L 377.44,196.95 L 377.32,196.93 Z M 396.75,197.05 L 397.76,196.33 L 396.02,196.73 L 397.89,196.23 L 396.02,197.81 L 396.75,197.05 Z M 383.32,195.20 L 382.24,195.20 L 383.43,195.14 L 383.32,195.20 Z M 520.95,305.96 L 520.89,305.90 L 520.92,305.90 L 520.95,305.96 Z M 484.67,297.75 L 484.57,297.78 L 484.76,297.70 L 484.67,297.75 Z M 409.98,232.85 L 410.42,233.52 L 409.52,233.21 L 409.98,232.85 Z" fill="#4A90D9" stroke="#1a5fa8" stroke-width="1.2"/>
</svg>