<svg xmlns="http://www.w3.org/2000/svg" width="800" height="500" viewBox="0 0 800 500">
<rect width="800" height="500" fill="#A8C8E8"/>
<path d="M 36.77,424.10 L 35.59,423.77 L 35.59,418.79 L 39.42,415.57 L 43.08,414.18 L 40.01,416.91 L 45.84,425.33 L 48.31,425.40 L 46.32,423.54 L 48.78,422.32 L 55.51,427.82 L 49.09,433.78 L 50.13,431.20 L 48.16,431.78 L 48.79,434.78 L 46.65,439.00 L 44.18,439.05 L 44.25,442.56 L 42.69,439.97 L 40.05,440.84 L 45.66,447.59 L 40.81,446.96 L 42.93,449.49 L 40.07,455.08 L 35.59,457.05 L 35.59,457.00 L 37.53,454.58 L 35.86,449.14 L 35.59,450.42 L 35.59,427.02 L 36.77,424.10 Z M 192.55,492.81 L 194.87,481.59 L 190.92,474.02 L 197.74,455.33 L 194.42,447.28 L 201.25,437.62 L 205.14,444.93 L 204.13,440.33 L 207.24,439.05 L 201.66,437.20 L 206.21,435.11 L 200.88,434.95 L 197.74,432.62 L 199.29,431.14 L 196.69,430.94 L 197.93,433.87 L 194.63,433.76 L 198.45,424.40 L 201.25,424.50 L 199.55,423.65 L 201.90,417.50 L 204.38,415.94 L 204.57,420.55 L 207.99,418.57 L 205.41,414.17 L 210.98,397.21 L 211.56,385.43 L 216.76,383.94 L 223.49,377.44 L 225.59,379.40 L 222.14,385.34 L 224.84,382.82 L 227.11,387.02 L 229.40,386.17 L 233.33,398.56 L 233.03,412.36 L 236.96,415.32 L 244.71,416.36 L 239.80,421.85 L 239.52,427.32 L 244.83,429.14 L 246.10,433.58 L 250.30,435.96 L 248.03,444.09 L 253.61,442.63 L 252.38,450.00 L 255.25,463.65 L 253.20,470.52 L 257.95,478.55 L 260.83,490.34 L 265.61,493.65 L 272.27,489.45 L 273.47,485.72 L 276.56,487.61 L 282.08,483.03 L 284.92,489.18 L 286.51,488.44 L 287.85,495.00 L 294.59,496.78 L 296.76,500.00 L 194.50,500.00 L 192.55,492.81 Z M 50.27,472.28 L 50.51,472.07 L 50.32,472.30 L 50.27,472.28 Z M 53.08,487.19 L 35.59,485.09 L 39.01,481.77 L 38.18,472.59 L 43.76,472.40 L 43.09,468.57 L 47.50,467.40 L 47.90,473.23 L 50.39,473.54 L 53.08,470.74 L 47.08,481.97 L 48.04,483.86 L 54.54,483.63 L 53.08,487.19 Z M 50.85,421.34 L 50.60,421.52 L 49.87,420.62 L 50.85,421.34 Z M 40.23,411.68 L 40.86,411.19 L 40.40,413.96 L 40.23,411.68 Z M 43.37,411.19 L 41.49,410.96 L 41.78,410.53 L 44.08,409.60 L 43.37,411.19 Z M 40.24,400.94 L 37.15,404.92 L 35.59,405.69 L 35.59,404.48 L 40.24,400.94 Z M 47.44,393.20 L 41.97,400.40 L 40.24,400.54 L 48.87,388.15 L 47.44,393.20 Z M 212.64,379.93 L 210.39,377.34 L 212.83,374.51 L 214.71,376.80 L 212.64,379.93 Z M 215.88,373.96 L 216.81,375.15 L 215.28,376.01 L 215.88,373.96 Z M 217.09,362.63 L 213.67,363.90 L 213.47,361.19 L 217.09,362.63 Z M 212.73,360.91 L 211.31,362.18 L 209.92,360.14 L 212.73,359.00 L 212.73,360.91 Z M 228.55,339.17 L 225.15,338.29 L 226.24,337.51 L 229.78,337.38 L 228.55,339.17 Z M 215.45,334.10 L 215.42,334.87 L 211.55,334.39 L 215.45,334.10 Z" fill="#E8E0D0" stroke="#B8B0A0" stroke-width="0.5"/>
<path d="M 764.41,408.81 L 764.41,411.87 L 758.74,406.17 L 751.28,405.19 L 749.63,402.22 L 753.19,401.97 L 764.41,408.81 Z M 745.71,395.98 L 746.13,396.79 L 743.84,395.55 L 745.71,395.98 Z M 760.23,350.92 L 745.60,350.27 L 738.54,342.01 L 738.77,335.56 L 742.82,334.03 L 748.74,339.30 L 761.62,338.69 L 764.41,340.50 L 764.41,352.50 L 760.23,350.92 Z M 744.66,330.10 L 745.51,329.29 L 745.87,330.56 L 744.66,330.10 Z M 760.07,328.02 L 763.07,330.14 L 761.62,331.80 L 758.23,330.97 L 760.07,328.02 Z M 727.49,326.84 L 725.62,330.35 L 725.75,328.96 L 727.49,326.84 Z M 755.02,325.83 L 759.66,328.02 L 758.55,330.14 L 753.48,327.86 L 755.02,325.83 Z M 724.81,329.29 L 721.55,328.23 L 723.14,325.97 L 725.41,326.69 L 724.81,329.29 Z M 752.81,324.66 L 753.36,324.34 L 753.98,325.97 L 752.81,324.66 Z M 678.76,319.94 L 673.63,317.69 L 676.56,316.79 L 678.76,319.94 Z M 694.80,319.96 L 696.45,316.39 L 697.12,318.18 L 694.80,319.96 Z M 694.17,312.33 L 692.13,314.32 L 693.36,316.75 L 688.87,318.73 L 686.52,316.50 L 687.14,312.84 L 694.17,312.33 Z M 669.91,315.48 L 672.46,317.85 L 666.03,312.95 L 670.46,308.29 L 672.46,310.89 L 669.91,315.48 Z M 736.97,310.06 L 737.22,307.59 L 739.57,307.43 L 741.16,311.19 L 736.97,310.06 Z M 664.57,306.00 L 660.65,301.61 L 663.01,301.94 L 664.57,306.00 Z M 665.19,303.92 L 662.92,300.58 L 665.62,301.39 L 665.19,303.92 Z M 654.67,297.87 L 655.17,299.18 L 653.49,298.37 L 654.67,297.87 Z M 684.66,314.53 L 677.41,309.01 L 677.02,305.58 L 679.06,307.55 L 676.56,303.70 L 666.86,305.37 L 666.76,302.37 L 673.29,295.13 L 678.26,295.98 L 679.28,303.07 L 682.49,302.70 L 685.28,306.00 L 687.35,310.67 L 686.72,313.47 L 684.05,312.84 L 684.66,314.53 Z M 647.51,301.81 L 646.37,293.90 L 647.20,294.73 L 647.51,301.81 Z M 658.37,295.13 L 662.72,291.21 L 666.03,295.77 L 665.02,299.87 L 658.37,295.13 Z M 649.69,293.90 L 644.99,284.51 L 648.22,282.66 L 654.14,287.24 L 649.69,293.90 Z M 617.61,276.99 L 614.91,276.78 L 615.95,275.17 L 617.61,276.99 Z M 625.27,268.37 L 619.89,268.08 L 621.76,264.33 L 625.27,268.37 Z M 634.38,263.27 L 631.06,264.76 L 632.40,262.37 L 631.18,260.85 L 632.09,259.74 L 634.38,263.27 Z M 705.98,285.36 L 699.73,282.97 L 701.60,282.46 L 705.98,285.36 Z M 747.15,312.84 L 739.30,306.62 L 718.79,297.24 L 707.83,288.28 L 703.81,281.53 L 712.86,283.39 L 722.95,292.82 L 732.52,295.21 L 745.79,305.65 L 743.22,307.66 L 747.15,312.84 Z M 698.19,280.20 L 698.27,279.55 L 703.30,281.40 L 698.19,280.20 Z M 678.66,279.10 L 674.33,277.87 L 675.34,277.23 L 678.66,279.10 Z M 697.68,279.74 L 696.03,278.68 L 697.72,277.36 L 697.68,279.74 Z M 684.05,279.74 L 680.46,278.98 L 681.76,277.02 L 684.05,279.74 Z M 673.49,278.49 L 660.41,273.95 L 643.69,257.25 L 643.49,254.14 L 646.32,253.52 L 661.25,262.23 L 665.62,270.79 L 675.96,275.48 L 673.49,278.49 Z M 646.54,290.20 L 645.38,290.22 L 645.65,289.65 L 646.54,290.20 Z" fill="#E8E0D0" stroke="#B8B0A0" stroke-width="0.5"/>
<path d="M 594.06,24.58 L 593.58,24.70 L 593.49,24.51 L 594.06,24.58 Z M 591.17,23.15 L 591.50,23.21 L 591.32,23.41 L 591.17,23.15 Z M 593.30,23.34 L 592.87,23.16 L 593.06,22.96 L 593.30,23.34 Z" fill="#E8E0D0" stroke="#B8B0A0" stroke-width="0.5"/>
<path d="M 176.10,245.15 L 172.24,256.33 L 176.11,262.22 L 176.10,329.37 L 146.24,301.60 L 148.36,298.24 L 148.43,294.18 L 150.48,293.81 L 151.18,292.25 L 148.44,293.45 L 145.80,298.70 L 128.33,301.86 L 124.09,300.19 L 123.80,296.21 L 123.01,295.13 L 125.09,294.94 L 122.96,294.27 L 123.18,298.01 L 113.81,304.63 L 111.65,299.32 L 114.14,297.89 L 113.84,292.81 L 116.22,291.66 L 119.21,282.38 L 106.36,271.37 L 121.14,272.75 L 123.65,269.95 L 118.23,271.82 L 111.64,269.78 L 103.16,262.88 L 114.33,260.57 L 118.60,263.80 L 122.20,264.53 L 106.84,256.68 L 106.81,254.57 L 111.24,256.42 L 100.28,247.19 L 94.13,232.37 L 98.40,229.97 L 90.96,228.09 L 97.16,225.20 L 88.35,226.72 L 88.05,216.84 L 86.18,219.13 L 83.93,214.56 L 80.58,215.46 L 80.41,212.26 L 67.41,207.08 L 64.10,204.99 L 64.42,202.64 L 62.62,204.98 L 58.72,203.36 L 59.08,201.20 L 50.63,202.39 L 35.59,195.06 L 35.59,125.43 L 37.31,120.50 L 41.89,119.16 L 48.43,121.05 L 61.39,116.62 L 63.06,115.24 L 59.08,110.00 L 59.73,107.24 L 81.34,97.32 L 106.29,106.98 L 111.65,111.86 L 139.98,124.17 L 151.37,123.14 L 156.63,127.24 L 157.99,125.40 L 169.08,128.56 L 168.46,132.66 L 176.02,131.64 L 176.10,245.15 Z M 109.98,260.18 L 107.83,261.24 L 104.88,257.12 L 109.98,260.18 Z M 113.20,308.07 L 102.75,306.30 L 109.92,300.58 L 113.20,308.07 Z M 118.68,282.87 L 113.11,292.65 L 113.50,298.06 L 106.16,300.89 L 97.56,308.20 L 75.28,308.69 L 78.92,297.98 L 88.88,282.37 L 98.13,277.66 L 107.85,276.28 L 118.68,282.87 Z M 52.97,107.30 L 35.59,110.33 L 35.59,105.06 L 52.97,107.30 Z M 35.59,86.77 L 35.59,85.61 L 37.15,85.84 L 35.59,86.77 Z" fill="#C8D8E8" stroke="#8BAABB" stroke-width="0.8"/>
<path d="M 185.13,132.91 L 203.53,142.68 L 207.31,142.58 L 208.89,145.61 L 252.98,157.03 L 268.04,168.19 L 274.60,170.19 L 276.75,168.05 L 282.89,168.63 L 284.23,173.55 L 293.60,177.19 L 299.94,185.02 L 308.03,186.04 L 321.79,199.78 L 320.53,219.07 L 341.71,222.79 L 361.50,234.02 L 368.36,232.86 L 373.43,234.97 L 382.95,245.16 L 383.77,255.97 L 356.86,257.67 L 356.66,263.98 L 360.17,265.80 L 363.68,279.42 L 372.70,284.09 L 379.93,293.69 L 392.60,297.14 L 395.11,312.61 L 401.63,316.26 L 405.87,328.09 L 411.08,329.29 L 422.66,325.37 L 427.72,326.66 L 428.47,330.56 L 423.90,337.33 L 425.22,340.94 L 431.71,344.09 L 450.05,346.95 L 440.45,350.74 L 444.19,356.99 L 466.75,362.82 L 467.52,364.98 L 474.97,363.37 L 468.30,366.82 L 459.65,366.47 L 459.50,368.68 L 468.13,371.03 L 469.34,373.79 L 454.96,377.85 L 444.19,373.27 L 451.04,370.55 L 447.21,369.50 L 446.26,371.38 L 440.98,366.82 L 433.75,367.63 L 429.51,364.93 L 410.77,363.67 L 409.00,359.73 L 407.47,362.25 L 400.32,362.63 L 392.86,358.69 L 387.50,361.59 L 384.18,357.86 L 379.63,359.52 L 367.35,342.52 L 361.68,339.25 L 360.10,340.53 L 354.81,334.30 L 354.61,330.14 L 357.28,328.46 L 357.24,327.16 L 354.14,329.38 L 345.96,326.33 L 344.35,322.86 L 346.10,320.13 L 338.75,312.80 L 330.80,298.28 L 321.69,295.96 L 321.48,293.07 L 310.93,294.05 L 303.15,289.84 L 293.95,289.11 L 293.13,282.66 L 292.30,286.10 L 287.13,282.42 L 285.63,285.32 L 283.16,280.44 L 282.91,285.78 L 279.69,280.98 L 282.73,289.61 L 278.48,287.96 L 276.78,283.91 L 277.47,286.29 L 274.29,285.36 L 275.73,288.70 L 273.88,289.55 L 262.90,285.17 L 260.32,280.74 L 256.71,278.68 L 266.09,294.91 L 261.47,293.70 L 264.79,295.98 L 260.36,296.97 L 248.18,292.60 L 254.10,297.11 L 255.69,303.02 L 235.92,306.00 L 228.14,303.70 L 221.93,305.88 L 217.87,300.83 L 213.78,301.02 L 211.41,302.36 L 217.68,301.49 L 220.65,307.10 L 228.99,305.37 L 240.27,309.95 L 249.13,319.11 L 248.44,326.14 L 226.70,336.18 L 213.36,330.97 L 195.56,333.26 L 187.24,330.45 L 181.40,333.20 L 176.10,329.37 L 176.11,262.22 L 172.24,256.33 L 176.10,245.15 L 176.02,131.64 L 185.13,132.91 Z M 555.94,406.25 L 550.43,403.92 L 550.76,401.98 L 547.87,402.83 L 548.91,401.17 L 545.38,396.57 L 562.17,404.74 L 555.94,406.25 Z M 577.47,399.72 L 569.60,398.66 L 573.70,398.12 L 572.09,396.38 L 577.88,397.51 L 577.47,399.72 Z M 545.19,394.93 L 542.33,392.57 L 546.84,394.30 L 545.19,394.93 Z M 535.28,377.03 L 531.73,378.06 L 525.31,375.55 L 535.28,377.03 Z M 480.18,376.89 L 476.50,377.21 L 476.79,374.77 L 481.03,374.95 L 480.18,376.89 Z M 475.51,376.21 L 472.54,375.99 L 474.72,375.49 L 472.45,372.95 L 475.02,372.84 L 475.51,376.21 Z M 487.86,355.56 L 485.79,362.63 L 477.51,359.73 L 478.55,356.35 L 475.98,356.46 L 471.65,347.50 L 481.49,357.39 L 487.86,355.56 Z M 461.67,345.33 L 464.09,342.77 L 461.63,337.25 L 472.69,339.08 L 476.69,345.97 L 473.99,347.84 L 472.77,345.97 L 461.67,345.33 Z M 458.01,341.93 L 451.99,335.24 L 455.06,332.40 L 459.72,337.44 L 458.01,341.93 Z M 537.04,331.98 L 538.19,333.94 L 531.45,331.65 L 531.20,334.06 L 528.43,331.69 L 530.25,330.54 L 523.22,327.52 L 522.61,325.09 L 521.70,328.69 L 520.71,325.87 L 522.63,324.47 L 532.96,326.25 L 539.04,330.44 L 537.04,331.98 Z M 483.09,321.00 L 480.09,317.85 L 482.47,313.47 L 478.75,311.50 L 482.68,308.49 L 482.96,313.70 L 483.09,321.00 Z M 256.18,317.95 L 242.59,308.49 L 251.53,311.72 L 256.18,317.95 Z M 246.75,307.06 L 254.52,307.11 L 255.63,310.19 L 246.75,307.06 Z M 387.91,230.59 L 381.21,223.16 L 381.28,219.98 L 389.67,222.99 L 387.91,230.59 Z M 627.66,259.08 L 627.22,257.06 L 620.62,261.61 L 609.54,256.84 L 604.80,251.01 L 606.06,244.60 L 599.29,241.31 L 592.20,233.38 L 590.52,227.88 L 592.63,221.55 L 590.52,217.67 L 596.31,221.43 L 601.53,221.22 L 606.01,231.01 L 610.75,233.67 L 614.75,240.71 L 618.85,240.39 L 624.13,246.05 L 627.76,254.44 L 627.66,259.08 Z M 392.61,217.32 L 391.83,218.71 L 390.49,217.60 L 392.61,217.32 Z M 377.55,214.33 L 376.11,215.60 L 374.96,213.93 L 377.55,214.33 Z M 365.35,215.37 L 362.87,218.09 L 358.14,214.28 L 361.38,210.40 L 365.35,215.37 Z M 590.17,217.56 L 588.45,218.52 L 585.55,208.75 L 588.23,204.98 L 591.34,210.99 L 590.17,217.56 Z M 423.49,200.39 L 423.83,200.90 L 423.09,202.26 L 423.49,200.39 Z M 335.13,198.11 L 335.75,199.56 L 334.80,200.11 L 335.13,198.11 Z M 435.35,194.63 L 435.30,196.00 L 432.11,195.22 L 435.35,194.63 Z M 329.45,194.23 L 325.95,197.30 L 324.18,193.92 L 327.69,190.42 L 329.45,194.23 Z M 519.87,189.57 L 521.41,194.96 L 517.79,202.61 L 508.20,204.09 L 508.30,209.09 L 513.43,215.08 L 511.96,218.42 L 503.97,222.59 L 492.79,220.81 L 494.86,224.77 L 484.30,233.88 L 473.39,235.39 L 472.62,238.62 L 462.62,243.29 L 437.57,244.33 L 433.12,238.61 L 428.06,236.63 L 419.98,239.88 L 419.98,235.16 L 414.40,234.75 L 411.27,230.79 L 399.85,228.13 L 398.12,225.35 L 401.17,218.09 L 404.99,220.98 L 407.87,219.19 L 413.78,221.01 L 417.72,218.71 L 425.16,222.79 L 433.44,222.47 L 438.62,219.13 L 440.08,221.86 L 445.91,220.23 L 448.14,217.36 L 446.06,215.18 L 449.38,211.41 L 448.98,207.17 L 451.98,204.81 L 454.69,206.46 L 449.55,213.54 L 453.45,221.18 L 457.85,221.63 L 462.90,218.18 L 467.72,221.49 L 473.03,218.04 L 476.27,219.35 L 479.16,217.05 L 481.28,209.55 L 489.92,201.64 L 497.27,203.52 L 499.28,201.54 L 495.09,179.55 L 503.45,180.68 L 507.91,184.24 L 509.24,180.00 L 514.56,178.51 L 516.40,181.32 L 514.34,180.59 L 514.58,183.55 L 521.60,184.67 L 519.87,189.57 Z M 300.61,177.71 L 298.75,177.91 L 298.41,175.95 L 300.61,177.71 Z M 546.22,157.29 L 547.03,158.95 L 546.63,158.95 L 546.22,157.29 Z M 549.52,155.29 L 549.54,156.44 L 547.25,156.04 L 549.52,155.29 Z M 591.01,155.74 L 591.47,157.79 L 586.08,150.05 L 591.01,155.74 Z M 528.42,150.61 L 525.03,146.07 L 528.62,145.20 L 528.42,150.61 Z M 479.57,142.89 L 471.83,143.16 L 475.22,140.84 L 479.57,142.89 Z M 509.74,143.66 L 508.13,139.16 L 509.69,140.65 L 509.74,143.66 Z M 508.58,138.65 L 506.43,139.05 L 506.35,134.83 L 508.58,138.65 Z M 507.78,132.44 L 508.96,131.46 L 510.10,132.91 L 507.78,132.44 Z M 540.41,188.94 L 541.44,192.47 L 536.08,199.96 L 529.81,190.83 L 529.75,179.16 L 517.69,161.10 L 503.21,154.76 L 481.51,138.70 L 471.52,136.76 L 471.53,135.00 L 475.53,134.59 L 473.12,130.28 L 485.31,139.81 L 491.98,141.01 L 503.35,149.48 L 510.56,151.28 L 521.80,163.74 L 524.26,163.76 L 526.34,168.74 L 533.84,170.27 L 535.28,173.90 L 537.54,173.74 L 543.32,182.37 L 540.41,188.94 Z M 462.21,133.40 L 454.22,134.04 L 447.33,127.46 L 454.86,124.78 L 462.62,129.57 L 462.21,133.40 Z M 383.90,123.25 L 380.04,123.31 L 381.75,122.86 L 382.95,120.61 L 383.90,123.25 Z M 371.00,115.24 L 366.80,115.34 L 364.20,119.05 L 349.00,116.87 L 349.76,118.76 L 345.05,120.32 L 343.50,117.94 L 346.42,116.64 L 345.32,113.25 L 347.65,112.28 L 370.54,114.78 L 369.49,112.22 L 371.00,115.24 Z M 442.33,100.64 L 438.52,100.50 L 434.68,95.93 L 437.06,93.75 L 442.33,100.64 Z M 577.04,190.18 L 576.39,191.83 L 574.97,190.77 L 576.68,190.22 L 575.17,188.30 L 577.04,190.18 Z M 573.43,185.64 L 573.74,185.39 L 574.07,186.26 L 573.43,185.64 Z M 524.26,179.40 L 523.85,180.59 L 522.00,179.13 L 524.26,179.40 Z M 559.42,176.92 L 558.19,178.13 L 556.99,176.85 L 559.42,176.92 Z M 561.31,175.41 L 559.67,174.98 L 559.91,174.67 L 561.31,175.41 Z M 511.97,368.42 L 512.30,368.43 L 512.23,368.71 L 511.97,368.42 Z M 505.00,366.80 L 505.27,366.69 L 505.04,367.02 L 505.00,366.80 Z M 504.82,364.14 L 504.65,364.59 L 504.53,364.42 L 504.82,364.14 Z M 286.07,159.25 L 286.11,159.48 L 285.38,159.51 L 286.07,159.25 Z M 270.28,149.51 L 271.45,150.78 L 270.87,151.32 L 270.28,149.51 Z M 232.16,104.18 L 233.13,104.37 L 232.51,104.66 L 232.16,104.18 Z M 479.32,346.47 L 477.56,344.15 L 479.45,344.12 L 479.32,346.47 Z M 261.76,311.88 L 261.23,312.11 L 260.76,311.35 L 261.76,311.88 Z M 256.77,308.69 L 253.52,306.39 L 256.46,306.10 L 256.77,308.69 Z M 257.32,300.84 L 255.29,299.12 L 255.71,298.63 L 257.32,300.84 Z M 258.04,298.80 L 254.23,296.66 L 255.69,296.36 L 258.04,298.80 Z M 485.02,202.98 L 482.39,202.31 L 483.12,201.41 L 485.02,202.98 Z M 252.99,154.76 L 252.77,153.52 L 255.13,154.38 L 252.99,154.76 Z M 446.38,103.82 L 445.93,102.87 L 447.50,102.15 L 448.71,103.44 L 446.38,103.82 Z" fill="#4A90D9" stroke="#1a5fa8" stroke-width="1.2"/>
<path d="M 191.76,270.50 L 189.23,268.49 L 191.93,267.77 L 191.97,262.96 L 187.17,260.13 L 191.93,259.56 L 193.60,265.40 L 195.68,263.78 L 191.76,270.50 Z" fill="#A8C8E8" stroke="none"/>
</svg>