<svg xmlns="http://www.w3.org/2000/svg" width="800" height="500" viewBox="0 0 800 500">
<rect width="800" height="500" fill="#A8C8E8"/>
<path d="M 1.30,424.10 L 0.00,423.77 L 0.00,418.79 L 4.20,415.57 L 8.23,414.18 L 4.85,416.91 L 11.26,425.33 L 13.97,425.40 L 11.78,423.54 L 14.48,422.32 L 21.87,427.82 L 14.82,433.78 L 15.96,431.20 L 13.80,431.78 L 14.50,434.78 L 12.14,439.00 L 9.43,439.05 L 9.50,442.56 L 7.80,439.97 L 4.90,440.84 L 11.06,447.59 L 5.73,446.96 L 8.06,449.49 L 4.92,455.08 L 0.00,457.05 L 0.00,457.00 L 2.13,454.58 L 0.30,449.14 L 0.00,450.42 L 0.00,427.02 L 1.30,424.10 Z M 172.29,492.81 L 174.84,481.59 L 170.50,474.02 L 177.99,455.33 L 174.35,447.28 L 181.84,437.62 L 186.11,444.93 L 185.01,440.33 L 188.42,439.05 L 182.29,437.20 L 187.29,435.11 L 181.44,434.95 L 177.99,432.62 L 179.69,431.14 L 176.84,430.94 L 178.20,433.87 L 174.57,433.76 L 178.77,424.40 L 181.84,424.50 L 179.97,423.65 L 182.55,417.50 L 185.27,415.94 L 185.48,420.55 L 189.24,418.57 L 186.41,414.17 L 192.52,397.21 L 193.15,385.43 L 198.87,383.94 L 206.25,377.44 L 208.56,379.40 L 204.78,385.34 L 207.73,382.82 L 210.23,387.02 L 212.74,386.17 L 217.06,398.56 L 216.73,412.36 L 221.03,415.32 L 229.55,416.36 L 224.15,421.85 L 223.85,427.32 L 229.68,429.14 L 231.07,433.58 L 235.68,435.96 L 233.19,444.09 L 239.32,442.63 L 237.96,450.00 L 241.11,463.65 L 238.86,470.52 L 244.07,478.55 L 247.24,490.34 L 252.49,493.65 L 259.80,489.45 L 261.11,485.72 L 264.50,487.61 L 270.56,483.03 L 273.68,489.18 L 275.43,488.44 L 276.90,495.00 L 284.30,496.78 L 286.68,500.00 L 174.43,500.00 L 172.29,492.81 Z M 16.12,472.28 L 16.38,472.07 L 16.17,472.30 L 16.12,472.28 Z M 19.20,487.19 L 0.00,485.09 L 3.76,481.77 L 2.84,472.59 L 8.98,472.40 L 8.23,468.57 L 13.07,467.40 L 13.52,473.23 L 16.25,473.54 L 19.20,470.74 L 12.62,481.97 L 13.67,483.86 L 20.80,483.63 L 19.20,487.19 Z M 16.75,421.34 L 16.48,421.52 L 15.68,420.62 L 16.75,421.34 Z M 5.10,411.68 L 5.79,411.19 L 5.28,413.96 L 5.10,411.68 Z M 8.54,411.19 L 6.48,410.96 L 6.80,410.53 L 9.32,409.60 L 8.54,411.19 Z M 5.11,400.94 L 1.71,404.92 L 0.00,405.69 L 0.00,404.48 L 5.11,400.94 Z M 13.01,393.20 L 7.01,400.40 L 5.11,400.54 L 14.58,388.15 L 13.01,393.20 Z M 194.34,379.93 L 191.87,377.34 L 194.55,374.51 L 196.61,376.80 L 194.34,379.93 Z M 197.90,373.96 L 198.93,375.15 L 197.24,376.01 L 197.90,373.96 Z M 199.22,362.63 L 195.48,363.90 L 195.25,361.19 L 199.22,362.63 Z M 194.45,360.91 L 192.88,362.18 L 191.36,360.14 L 194.45,359.00 L 194.45,360.91 Z M 211.81,339.17 L 208.08,338.29 L 209.28,337.51 L 213.16,337.38 L 211.81,339.17 Z M 197.43,334.10 L 197.40,334.87 L 193.15,334.39 L 197.43,334.10 Z" fill="#E8E0D0" stroke="#B8B0A0" stroke-width="0.5"/>
<path d="M 800.00,408.81 L 800.00,411.87 L 793.77,406.17 L 785.58,405.19 L 783.78,402.22 L 787.68,401.97 L 800.00,408.81 Z M 779.47,395.98 L 779.93,396.79 L 777.41,395.55 L 779.47,395.98 Z M 795.41,350.92 L 779.35,350.27 L 771.60,342.01 L 771.85,335.56 L 776.30,334.03 L 782.80,339.30 L 796.94,338.69 L 800.00,340.50 L 800.00,352.50 L 795.41,350.92 Z M 778.31,330.10 L 779.25,329.29 L 779.65,330.56 L 778.31,330.10 Z M 795.23,328.02 L 798.53,330.14 L 796.94,331.80 L 793.22,330.97 L 795.23,328.02 Z M 759.47,326.84 L 757.42,330.35 L 757.56,328.96 L 759.47,326.84 Z M 789.69,325.83 L 794.79,328.02 L 793.56,330.14 L 788.00,327.86 L 789.69,325.83 Z M 756.53,329.29 L 752.95,328.23 L 754.70,325.97 L 757.19,326.69 L 756.53,329.29 Z M 787.26,324.66 L 787.87,324.34 L 788.54,325.97 L 787.26,324.66 Z M 705.98,319.94 L 700.35,317.69 L 703.57,316.79 L 705.98,319.94 Z M 723.59,319.96 L 725.40,316.39 L 726.13,318.18 L 723.59,319.96 Z M 722.89,312.33 L 720.65,314.32 L 722.01,316.75 L 717.08,318.73 L 714.50,316.50 L 715.18,312.84 L 722.89,312.33 Z M 696.27,315.48 L 699.07,317.85 L 692.01,312.95 L 696.87,308.29 L 699.07,310.89 L 696.27,315.48 Z M 769.87,310.06 L 770.15,307.59 L 772.73,307.43 L 774.47,311.19 L 769.87,310.06 Z M 690.41,306.00 L 686.10,301.61 L 688.70,301.94 L 690.41,306.00 Z M 691.09,303.92 L 688.60,300.58 L 691.56,301.39 L 691.09,303.92 Z M 679.54,297.87 L 680.09,299.18 L 678.25,298.37 L 679.54,297.87 Z M 712.46,314.53 L 704.50,309.01 L 704.07,305.58 L 706.31,307.55 L 703.57,303.70 L 692.92,305.37 L 692.81,302.37 L 699.97,295.13 L 705.43,295.98 L 706.56,303.07 L 710.08,302.70 L 713.14,306.00 L 715.42,310.67 L 714.72,313.47 L 711.78,312.84 L 712.46,314.53 Z M 671.68,301.81 L 670.43,293.90 L 671.34,294.73 L 671.68,301.81 Z M 683.60,295.13 L 688.37,291.21 L 692.01,295.77 L 690.90,299.87 L 683.60,295.13 Z M 674.07,293.90 L 668.92,284.51 L 672.46,282.66 L 678.96,287.24 L 674.07,293.90 Z M 638.86,276.99 L 635.90,276.78 L 637.04,275.17 L 638.86,276.99 Z M 647.26,268.37 L 641.36,268.08 L 643.42,264.33 L 647.26,268.37 Z M 657.26,263.27 L 653.62,264.76 L 655.10,262.37 L 653.76,260.85 L 654.75,259.74 L 657.26,263.27 Z M 735.86,285.36 L 729.01,282.97 L 731.06,282.46 L 735.86,285.36 Z M 781.06,312.84 L 772.44,306.62 L 749.93,297.24 L 737.89,288.28 L 733.48,281.53 L 743.42,283.39 L 754.49,292.82 L 764.99,295.21 L 779.56,305.65 L 776.74,307.66 L 781.06,312.84 Z M 727.31,280.20 L 727.40,279.55 L 732.91,281.40 L 727.31,280.20 Z M 705.87,279.10 L 701.12,277.87 L 702.23,277.23 L 705.87,279.10 Z M 726.76,279.74 L 724.94,278.68 L 726.80,277.36 L 726.76,279.74 Z M 711.78,279.74 L 707.85,278.98 L 709.28,277.02 L 711.78,279.74 Z M 700.20,278.49 L 685.84,273.95 L 667.49,257.25 L 667.27,254.14 L 670.37,253.52 L 686.77,262.23 L 691.56,270.79 L 702.91,275.48 L 700.20,278.49 Z M 670.62,290.20 L 669.34,290.22 L 669.64,289.65 L 670.62,290.20 Z" fill="#E8E0D0" stroke="#B8B0A0" stroke-width="0.5"/>
<path d="M 613.01,24.58 L 612.49,24.70 L 612.38,24.51 L 613.01,24.58 Z M 609.84,23.15 L 610.21,23.21 L 610.00,23.41 L 609.84,23.15 Z M 612.18,23.34 L 611.71,23.16 L 611.91,22.96 L 612.18,23.34 Z" fill="#E8E0D0" stroke="#B8B0A0" stroke-width="0.5"/>
<path d="M 154.23,245.15 L 150.00,256.33 L 154.24,262.22 L 154.24,329.37 L 121.46,301.60 L 123.79,298.24 L 123.86,294.18 L 126.12,293.81 L 126.88,292.25 L 123.87,293.45 L 120.98,298.70 L 101.80,301.86 L 97.14,300.19 L 96.83,296.21 L 95.96,295.13 L 98.25,294.94 L 95.90,294.27 L 96.14,298.01 L 85.87,304.63 L 83.49,299.32 L 86.23,297.89 L 85.90,292.81 L 88.50,291.66 L 91.79,282.38 L 77.68,271.37 L 93.91,272.75 L 96.66,269.95 L 90.71,271.82 L 83.48,269.78 L 74.17,262.88 L 86.43,260.57 L 91.12,263.80 L 95.08,264.53 L 78.21,256.68 L 78.18,254.57 L 83.04,256.42 L 71.01,247.19 L 64.26,232.37 L 68.95,229.97 L 60.78,228.09 L 67.59,225.20 L 57.91,226.72 L 57.59,216.84 L 55.53,219.13 L 53.06,214.56 L 49.39,215.46 L 49.20,212.26 L 34.93,207.08 L 31.30,204.99 L 31.65,202.64 L 29.67,204.98 L 25.40,203.36 L 25.78,201.20 L 16.51,202.39 L 0.00,195.06 L 0.00,125.43 L 1.89,120.50 L 6.92,119.16 L 14.10,121.05 L 28.33,116.62 L 30.15,115.24 L 25.78,110.00 L 26.50,107.24 L 50.22,97.32 L 77.61,106.98 L 83.49,111.86 L 114.58,124.17 L 127.09,123.14 L 132.87,127.24 L 134.35,125.40 L 146.53,128.56 L 145.84,132.66 L 154.15,131.64 L 154.23,245.15 Z M 81.66,260.18 L 79.30,261.24 L 76.06,257.12 L 81.66,260.18 Z M 85.19,308.07 L 73.72,306.30 L 81.59,300.58 L 85.19,308.07 Z M 91.21,282.87 L 85.09,292.65 L 85.53,298.06 L 77.46,300.89 L 68.02,308.20 L 43.56,308.69 L 47.57,297.98 L 58.49,282.37 L 68.65,277.66 L 79.32,276.28 L 91.21,282.87 Z M 19.08,107.30 L 0.00,110.33 L 0.00,105.06 L 19.08,107.30 Z M 0.00,86.77 L 0.00,85.61 L 1.71,85.84 L 0.00,86.77 Z" fill="#C8D8E8" stroke="#8BAABB" stroke-width="0.8"/>
<path d="M 164.14,132.91 L 184.35,142.68 L 188.49,142.58 L 190.23,145.61 L 238.63,157.03 L 255.15,168.19 L 262.35,170.19 L 264.71,168.05 L 271.46,168.63 L 272.93,173.55 L 283.21,177.19 L 290.17,185.02 L 299.05,186.04 L 314.15,199.78 L 312.77,219.07 L 336.01,222.79 L 357.74,234.02 L 365.27,232.86 L 370.83,234.97 L 381.28,245.16 L 382.19,255.97 L 352.64,257.67 L 352.43,263.98 L 356.29,265.80 L 360.13,279.42 L 370.03,284.09 L 377.97,293.69 L 391.88,297.14 L 394.64,312.61 L 401.79,316.26 L 406.44,328.09 L 412.16,329.29 L 424.88,325.37 L 430.43,326.66 L 431.25,330.56 L 426.24,337.33 L 427.69,340.94 L 434.81,344.09 L 454.94,346.95 L 444.41,350.74 L 448.50,356.99 L 473.27,362.82 L 474.11,364.98 L 482.29,363.37 L 474.97,366.82 L 465.47,366.47 L 465.31,368.68 L 474.78,371.03 L 476.11,373.79 L 460.33,377.85 L 448.50,373.27 L 456.03,370.55 L 451.82,369.50 L 450.78,371.38 L 444.98,366.82 L 437.04,367.63 L 432.39,364.93 L 411.82,363.67 L 409.88,359.73 L 408.20,362.25 L 400.35,362.63 L 392.17,358.69 L 386.28,361.59 L 382.64,357.86 L 377.64,359.52 L 364.16,342.52 L 357.93,339.25 L 356.20,340.53 L 350.40,334.30 L 350.18,330.14 L 353.11,328.46 L 353.06,327.16 L 349.67,329.38 L 340.68,326.33 L 338.91,322.86 L 340.84,320.13 L 332.77,312.80 L 324.04,298.28 L 314.04,295.96 L 313.82,293.07 L 302.23,294.05 L 293.69,289.84 L 283.60,289.11 L 282.69,282.66 L 281.79,286.10 L 276.10,282.42 L 274.46,285.32 L 271.75,280.44 L 271.48,285.78 L 267.94,280.98 L 271.27,289.61 L 266.61,287.96 L 264.75,283.91 L 265.51,286.29 L 262.01,285.36 L 263.60,288.70 L 261.56,289.55 L 249.51,285.17 L 246.68,280.74 L 242.71,278.68 L 253.01,294.91 L 247.94,293.70 L 251.58,295.98 L 246.73,296.97 L 233.36,292.60 L 239.85,297.11 L 241.59,303.02 L 219.90,306.00 L 211.36,303.70 L 204.54,305.88 L 200.08,300.83 L 195.60,301.02 L 192.99,302.36 L 199.88,301.49 L 203.13,307.10 L 212.29,305.37 L 224.68,309.95 L 234.39,319.11 L 233.64,326.14 L 209.78,336.18 L 195.13,330.97 L 175.59,333.26 L 166.46,330.45 L 160.06,333.20 L 154.24,329.37 L 154.24,262.22 L 150.00,256.33 L 154.23,245.15 L 154.15,131.64 L 164.14,132.91 Z M 571.17,406.25 L 565.12,403.92 L 565.48,401.98 L 562.31,402.83 L 563.45,401.17 L 559.58,396.57 L 578.01,404.74 L 571.17,406.25 Z M 594.80,399.72 L 586.16,398.66 L 590.66,398.12 L 588.90,396.38 L 595.25,397.51 L 594.80,399.72 Z M 559.37,394.93 L 556.23,392.57 L 561.18,394.30 L 559.37,394.93 Z M 548.49,377.03 L 544.60,378.06 L 537.54,375.55 L 548.49,377.03 Z M 488.01,376.89 L 483.97,377.21 L 484.29,374.77 L 488.95,374.95 L 488.01,376.89 Z M 482.89,376.21 L 479.62,375.99 L 482.02,375.49 L 479.52,372.95 L 482.34,372.84 L 482.89,376.21 Z M 496.44,355.56 L 494.17,362.63 L 485.08,359.73 L 486.22,356.35 L 483.40,356.46 L 478.65,347.50 L 489.44,357.39 L 496.44,355.56 Z M 467.70,345.33 L 470.35,342.77 L 467.65,337.25 L 479.79,339.08 L 484.18,345.97 L 481.21,347.84 L 479.87,345.97 L 467.70,345.33 Z M 463.67,341.93 L 457.06,335.24 L 460.43,332.40 L 465.55,337.44 L 463.67,341.93 Z M 550.43,331.98 L 551.68,333.94 L 544.29,331.65 L 544.01,334.06 L 540.97,331.69 L 542.97,330.54 L 535.25,327.52 L 534.59,325.09 L 533.59,328.69 L 532.50,325.87 L 534.61,324.47 L 545.94,326.25 L 552.61,330.44 L 550.43,331.98 Z M 491.21,321.00 L 487.92,317.85 L 490.53,313.47 L 486.44,311.50 L 490.75,308.49 L 491.06,313.70 L 491.21,321.00 Z M 242.14,317.95 L 227.22,308.49 L 237.03,311.72 L 242.14,317.95 Z M 231.79,307.06 L 240.31,307.11 L 241.53,310.19 L 231.79,307.06 Z M 386.73,230.59 L 379.37,223.16 L 379.45,219.98 L 388.66,222.99 L 386.73,230.59 Z M 649.89,259.08 L 649.41,257.06 L 642.16,261.61 L 630.00,256.84 L 624.80,251.01 L 626.18,244.60 L 618.76,241.31 L 610.97,233.38 L 609.12,227.88 L 611.45,221.55 L 609.12,217.67 L 615.48,221.43 L 621.21,221.22 L 626.13,231.01 L 631.34,233.67 L 635.72,240.71 L 640.22,240.39 L 646.02,246.05 L 650.00,254.44 L 649.89,259.08 Z M 391.88,217.32 L 391.03,218.71 L 389.56,217.60 L 391.88,217.32 Z M 375.35,214.33 L 373.77,215.60 L 372.51,213.93 L 375.35,214.33 Z M 361.96,215.37 L 359.25,218.09 L 354.05,214.28 L 357.61,210.40 L 361.96,215.37 Z M 608.74,217.56 L 606.86,218.52 L 603.67,208.75 L 606.61,204.98 L 610.02,210.99 L 608.74,217.56 Z M 425.78,200.39 L 426.16,200.90 L 425.35,202.26 L 425.78,200.39 Z M 328.80,198.11 L 329.48,199.56 L 328.43,200.11 L 328.80,198.11 Z M 438.80,194.63 L 438.75,196.00 L 435.24,195.22 L 438.80,194.63 Z M 322.56,194.23 L 318.72,197.30 L 316.78,193.92 L 320.63,190.42 L 322.56,194.23 Z M 531.58,189.57 L 533.26,194.96 L 529.29,202.61 L 518.77,204.09 L 518.87,209.09 L 524.51,215.08 L 522.90,218.42 L 514.12,222.59 L 501.85,220.81 L 504.12,224.77 L 492.53,233.88 L 480.55,235.39 L 479.71,238.62 L 468.74,243.29 L 441.24,244.33 L 436.36,238.61 L 430.80,236.63 L 421.93,239.88 L 421.93,235.16 L 415.81,234.75 L 412.37,230.79 L 399.83,228.13 L 397.93,225.35 L 401.28,218.09 L 405.47,220.98 L 408.64,219.19 L 415.13,221.01 L 419.45,218.71 L 427.61,222.79 L 436.71,222.47 L 442.39,219.13 L 443.99,221.86 L 450.39,220.23 L 452.84,217.36 L 450.56,215.18 L 454.20,211.41 L 453.76,207.17 L 457.05,204.81 L 460.03,206.46 L 454.39,213.54 L 458.67,221.18 L 463.50,221.63 L 469.04,218.18 L 474.34,221.49 L 480.16,218.04 L 483.72,219.35 L 486.89,217.05 L 489.22,209.55 L 498.70,201.64 L 506.77,203.52 L 508.98,201.54 L 504.38,179.55 L 513.56,180.68 L 518.45,184.24 L 519.90,180.00 L 525.75,178.51 L 527.76,181.32 L 525.50,180.59 L 525.77,183.55 L 533.47,184.67 L 531.58,189.57 Z M 290.91,177.71 L 288.86,177.91 L 288.49,175.95 L 290.91,177.71 Z M 560.50,157.29 L 561.39,158.95 L 560.95,158.95 L 560.50,157.29 Z M 564.13,155.29 L 564.14,156.44 L 561.63,156.04 L 564.13,155.29 Z M 609.66,155.74 L 610.17,157.79 L 604.25,150.05 L 609.66,155.74 Z M 540.96,150.61 L 537.24,146.07 L 541.18,145.20 L 540.96,150.61 Z M 487.34,142.89 L 478.84,143.16 L 482.57,140.84 L 487.34,142.89 Z M 520.46,143.66 L 518.69,139.16 L 520.41,140.65 L 520.46,143.66 Z M 519.19,138.65 L 516.83,139.05 L 516.73,134.83 L 519.19,138.65 Z M 518.30,132.44 L 519.60,131.46 L 520.86,132.91 L 518.30,132.44 Z M 554.12,188.94 L 555.26,192.47 L 549.37,199.96 L 542.48,190.83 L 542.42,179.16 L 529.18,161.10 L 513.29,154.76 L 489.47,138.70 L 478.51,136.76 L 478.52,135.00 L 482.90,134.59 L 480.26,130.28 L 493.64,139.81 L 500.97,141.01 L 513.45,149.48 L 521.36,151.28 L 533.69,163.74 L 536.40,163.76 L 538.68,168.74 L 546.91,170.27 L 548.49,173.90 L 550.98,173.74 L 557.31,182.37 L 554.12,188.94 Z M 468.28,133.40 L 459.51,134.04 L 451.96,127.46 L 460.21,124.78 L 468.74,129.57 L 468.28,133.40 Z M 382.33,123.25 L 378.09,123.31 L 379.97,122.86 L 381.28,120.61 L 382.33,123.25 Z M 368.17,115.24 L 363.55,115.34 L 360.70,119.05 L 344.02,116.87 L 344.86,118.76 L 339.68,120.32 L 337.98,117.94 L 341.19,116.64 L 339.98,113.25 L 342.54,112.28 L 367.66,114.78 L 366.51,112.22 L 368.17,115.24 Z M 446.46,100.64 L 442.29,100.50 L 438.07,95.93 L 440.68,93.75 L 446.46,100.64 Z M 594.33,190.18 L 593.61,191.83 L 592.05,190.77 L 593.93,190.22 L 592.28,188.30 L 594.33,190.18 Z M 590.37,185.64 L 590.71,185.39 L 591.07,186.26 L 590.37,185.64 Z M 536.40,179.40 L 535.95,180.59 L 533.91,179.13 L 536.40,179.40 Z M 574.99,176.92 L 573.64,178.13 L 572.32,176.85 L 574.99,176.92 Z M 577.06,175.41 L 575.27,174.98 L 575.52,174.67 L 577.06,175.41 Z M 522.90,368.42 L 523.27,368.43 L 523.19,368.71 L 522.90,368.42 Z M 515.26,366.80 L 515.56,366.69 L 515.30,367.02 L 515.26,366.80 Z M 515.05,364.14 L 514.86,364.59 L 514.74,364.42 L 515.05,364.14 Z M 274.95,159.25 L 274.98,159.48 L 274.19,159.51 L 274.95,159.25 Z M 257.62,149.51 L 258.90,150.78 L 258.26,151.32 L 257.62,149.51 Z M 215.77,104.18 L 216.83,104.37 L 216.15,104.66 L 215.77,104.18 Z M 487.06,346.47 L 485.14,344.15 L 487.21,344.12 L 487.06,346.47 Z M 248.26,311.88 L 247.68,312.11 L 247.16,311.35 L 248.26,311.88 Z M 242.78,308.69 L 239.22,306.39 L 242.44,306.10 L 242.78,308.69 Z M 243.39,300.84 L 241.16,299.12 L 241.62,298.63 L 243.39,300.84 Z M 244.18,298.80 L 239.99,296.66 L 241.60,296.36 L 244.18,298.80 Z M 493.32,202.98 L 490.43,202.31 L 491.24,201.41 L 493.32,202.98 Z M 238.63,154.76 L 238.39,153.52 L 240.98,154.38 L 238.63,154.76 Z M 450.91,103.82 L 450.41,102.87 L 452.13,102.15 L 453.46,103.44 L 450.91,103.82 Z" fill="#4A90D9" stroke="#1a5fa8" stroke-width="1.2"/>
<path d="M 171.42,270.50 L 168.65,268.49 L 171.61,267.77 L 171.65,262.96 L 166.38,260.13 L 171.61,259.56 L 173.44,265.40 L 175.72,263.78 L 171.42,270.50 Z" fill="#A8C8E8" stroke="none"/>
</svg>