<svg xmlns="http://www.w3.org/2000/svg" width="800" height="500" viewBox="0 0 800 500">
<rect width="800" height="500" fill="#A8C8E8"/>
<path d="M 198.98,415.72 L 200.42,417.56 L 195.43,417.93 L 188.44,415.59 L 198.98,415.72 Z M 171.31,415.47 L 187.66,420.42 L 185.71,420.69 L 181.52,419.97 L 179.11,420.03 L 189.24,421.34 L 192.55,422.89 L 188.36,422.90 L 194.79,424.32 L 184.56,425.68 L 176.27,422.64 L 178.40,426.15 L 156.67,425.42 L 153.57,426.40 L 162.31,425.98 L 162.35,427.14 L 164.57,428.37 L 175.12,429.43 L 170.61,433.04 L 165.98,433.23 L 183.96,436.05 L 181.26,437.99 L 187.48,438.38 L 180.16,439.16 L 190.14,439.55 L 184.09,440.99 L 192.61,442.27 L 194.79,445.13 L 208.05,450.26 L 206.79,452.49 L 199.38,454.89 L 194.79,454.64 L 198.64,455.71 L 190.84,456.06 L 197.24,456.84 L 199.86,460.09 L 225.82,466.42 L 227.44,468.15 L 235.57,468.98 L 256.21,476.09 L 245.15,479.35 L 223.69,479.35 L 208.80,477.38 L 198.30,473.49 L 205.50,479.44 L 198.74,478.73 L 190.49,480.57 L 176.34,492.56 L 179.46,495.24 L 174.53,499.18 L 175.79,500.00 L 0.00,500.00 L 0.00,467.49 L 5.54,467.66 L 15.98,466.02 L 24.82,467.39 L 31.76,459.68 L 39.66,458.51 L 36.90,451.97 L 59.04,446.98 L 51.29,445.11 L 51.94,440.86 L 60.91,436.89 L 64.43,437.95 L 72.41,437.09 L 75.18,430.90 L 79.52,429.51 L 76.28,420.20 L 92.10,411.31 L 101.25,413.56 L 106.69,411.50 L 116.27,411.42 L 121.49,413.22 L 127.23,411.16 L 130.75,412.41 L 162.49,411.94 L 181.37,415.67 L 171.31,415.47 Z M 342.06,474.49 L 342.82,474.80 L 338.90,474.27 L 342.06,474.49 Z M 328.48,474.49 L 327.00,475.19 L 326.47,474.71 L 328.48,474.49 Z M 297.05,496.98 L 290.59,496.51 L 288.48,494.43 L 298.75,496.23 L 301.62,493.27 L 296.29,490.08 L 300.65,489.17 L 302.85,485.63 L 309.09,484.83 L 309.79,480.69 L 319.18,479.16 L 321.84,475.75 L 325.12,475.97 L 325.36,478.38 L 336.85,479.78 L 341.73,476.24 L 348.96,474.64 L 350.60,469.46 L 363.39,469.34 L 372.95,471.29 L 382.61,470.00 L 382.56,472.47 L 387.55,474.27 L 434.56,475.25 L 455.02,479.10 L 461.19,476.35 L 471.95,477.11 L 472.52,476.14 L 510.99,478.84 L 529.70,475.32 L 534.83,472.11 L 545.42,471.93 L 543.07,468.81 L 557.95,466.74 L 557.45,464.77 L 565.63,461.76 L 575.55,462.77 L 579.38,466.44 L 572.45,468.33 L 561.22,476.16 L 549.05,479.33 L 541.30,485.07 L 531.33,487.05 L 495.28,489.57 L 475.22,488.47 L 466.69,484.83 L 400.70,486.53 L 390.41,484.15 L 364.82,486.90 L 333.46,484.59 L 315.61,490.30 L 307.19,498.60 L 307.92,500.00 L 296.05,500.00 L 297.05,496.98 Z M 712.37,452.22 L 710.56,452.70 L 708.85,451.97 L 712.37,452.22 Z M 730.70,451.02 L 729.91,451.23 L 728.56,449.86 L 731.93,449.69 L 730.70,451.02 Z M 237.70,453.06 L 237.70,453.20 L 233.77,452.16 L 232.62,450.74 L 237.70,453.06 Z M 179.32,432.16 L 173.59,432.20 L 174.44,431.29 L 179.32,432.16 Z M 187.42,430.09 L 185.58,433.01 L 179.51,430.03 L 187.42,430.09 Z M 194.79,428.30 L 192.65,426.63 L 195.92,426.76 L 198.30,428.24 L 194.79,428.30 Z M 166.01,428.18 L 163.28,427.04 L 172.38,426.93 L 178.78,428.62 L 166.01,428.18 Z M 192.61,422.12 L 189.78,421.20 L 193.82,421.43 L 195.83,422.51 L 192.61,422.12 Z M 191.01,417.71 L 186.45,419.02 L 182.79,417.48 L 186.24,415.86 L 191.01,417.71 Z M 679.14,499.48 L 685.48,499.98 L 685.46,500.00 L 676.28,500.00 L 679.14,499.48 Z M 423.29,499.82 L 418.52,499.05 L 420.21,498.35 L 423.29,499.82 Z M 429.15,500.00 L 427.16,500.00 L 422.74,498.41 L 428.02,499.00 L 429.15,500.00 Z M 390.18,496.99 L 392.88,497.42 L 391.58,498.39 L 390.18,496.99 Z M 788.91,493.72 L 789.73,493.71 L 800.00,496.73 L 800.00,498.07 L 788.91,493.72 Z M 690.74,494.57 L 691.27,491.83 L 693.53,491.96 L 693.92,494.70 L 690.74,494.57 Z M 691.70,488.69 L 688.64,489.24 L 687.55,488.01 L 690.74,487.42 L 691.70,488.69 Z M 690.03,480.25 L 691.77,480.25 L 693.21,481.96 L 689.71,482.80 L 690.03,480.25 Z M 686.29,480.25 L 685.05,478.74 L 688.92,478.66 L 686.29,480.25 Z M 580.30,467.79 L 576.07,468.23 L 575.51,467.76 L 579.42,467.13 L 581.75,465.17 L 580.30,467.79 Z M 707.16,488.69 L 697.38,483.98 L 702.44,478.83 L 695.71,477.45 L 695.57,474.60 L 691.02,474.83 L 690.74,471.68 L 702.71,459.79 L 718.52,453.10 L 724.35,452.79 L 713.94,459.48 L 722.67,461.99 L 722.67,469.85 L 702.60,476.83 L 714.21,479.22 L 721.58,474.07 L 731.19,472.71 L 726.67,470.76 L 732.50,468.24 L 744.55,465.41 L 759.17,464.81 L 758.22,474.30 L 737.46,477.66 L 732.96,479.94 L 740.79,482.41 L 757.17,484.10 L 757.65,488.04 L 764.60,488.73 L 768.50,490.68 L 745.79,487.13 L 717.26,486.32 L 715.98,494.18 L 720.90,499.63 L 721.45,500.00 L 708.86,500.00 L 704.59,498.60 L 707.16,488.69 Z M 589.92,450.34 L 586.79,450.48 L 585.61,449.56 L 589.92,450.34 Z M 751.25,454.57 L 735.84,456.75 L 732.11,451.61 L 738.53,447.96 L 751.24,444.63 L 757.46,447.47 L 751.25,454.57 Z M 588.28,444.63 L 586.81,444.72 L 585.12,442.36 L 589.45,441.61 L 588.28,444.63 Z M 598.44,430.18 L 592.75,428.88 L 589.37,423.70 L 600.27,428.76 L 598.44,430.18 Z M 660.32,422.04 L 662.63,423.29 L 660.32,423.79 L 656.82,421.48 L 660.32,422.04 Z M 655.20,420.20 L 654.34,422.26 L 650.14,417.86 L 655.20,420.20 Z M 666.05,413.34 L 659.64,418.36 L 653.32,418.61 L 659.89,414.46 L 655.10,413.68 L 656.84,408.34 L 663.61,409.31 L 666.05,413.34 Z M 415.01,499.73 L 415.94,499.63 L 416.31,500.00 L 414.97,500.00 L 415.01,499.73 Z M 639.08,469.34 L 638.01,470.26 L 636.26,469.51 L 639.08,469.34 Z M 587.35,454.71 L 583.78,455.11 L 584.82,454.20 L 587.35,454.71 Z M 649.29,388.98 L 649.51,389.01 L 649.13,389.30 L 649.29,388.98 Z M 575.64,460.86 L 573.96,461.56 L 573.17,459.92 L 575.64,460.86 Z M 677.64,404.42 L 677.13,404.64 L 676.46,404.41 L 677.64,404.42 Z" fill="#E8E0D0" stroke="#B8B0A0" stroke-width="0.5"/>
<path d="M 185.15,414.38 L 188.34,413.62 L 198.98,415.72 L 185.15,414.38 Z M 59.28,400.48 L 66.93,401.56 L 77.22,398.44 L 79.72,395.69 L 67.29,393.88 L 68.71,391.87 L 79.70,387.65 L 79.70,389.85 L 92.33,389.08 L 96.58,385.23 L 102.81,383.73 L 105.67,378.33 L 126.25,371.33 L 140.45,361.24 L 144.66,365.21 L 140.79,369.50 L 150.63,367.29 L 153.57,363.06 L 159.77,361.69 L 165.28,362.93 L 167.32,368.65 L 175.74,370.34 L 179.64,368.94 L 189.65,372.17 L 189.44,375.90 L 183.09,376.98 L 186.64,381.25 L 176.27,383.23 L 192.10,382.48 L 204.67,379.57 L 210.28,383.32 L 199.71,384.36 L 201.74,386.67 L 222.72,384.27 L 234.57,386.77 L 233.09,389.73 L 237.53,387.63 L 252.11,392.23 L 265.41,391.16 L 270.01,393.17 L 269.44,395.90 L 263.68,397.70 L 239.10,400.77 L 229.67,401.02 L 222.30,398.98 L 210.87,401.95 L 218.18,405.50 L 228.50,407.29 L 229.52,409.05 L 234.86,408.84 L 237.25,410.41 L 232.65,411.80 L 202.90,414.31 L 185.97,410.64 L 184.48,415.35 L 181.37,415.67 L 162.49,411.94 L 130.75,412.41 L 127.23,411.16 L 121.49,413.22 L 116.27,411.42 L 106.69,411.50 L 101.25,413.56 L 92.10,411.31 L 76.28,420.20 L 79.52,429.51 L 75.18,430.90 L 72.41,437.09 L 64.43,437.95 L 60.91,436.89 L 51.94,440.86 L 51.29,445.11 L 59.04,446.98 L 36.90,451.97 L 39.66,458.51 L 31.76,459.68 L 24.82,467.39 L 15.98,466.02 L 5.54,467.66 L 0.00,467.49 L 0.00,408.13 L 9.28,409.56 L 11.20,413.67 L 18.31,413.76 L 29.08,418.38 L 36.29,416.19 L 40.37,411.20 L 35.00,404.85 L 49.18,401.30 L 53.12,411.00 L 66.31,412.74 L 55.94,401.45 L 59.28,400.48 Z M 215.75,383.92 L 212.37,384.01 L 213.17,383.56 L 215.75,383.92 Z M 238.76,410.41 L 237.16,409.29 L 238.77,409.24 L 241.42,409.36 L 238.76,410.41 Z M 234.86,406.64 L 231.52,407.28 L 221.74,405.86 L 234.86,406.64 Z M 61.80,394.19 L 56.61,394.93 L 58.16,393.17 L 61.24,392.78 L 61.80,394.19 Z M 178.23,367.95 L 169.96,368.30 L 174.98,367.47 L 172.70,366.70 L 176.27,366.18 L 178.23,367.95 Z M 152.50,356.44 L 144.31,357.99 L 146.81,356.29 L 152.12,355.00 L 152.50,356.44 Z M 166.59,355.44 L 165.58,357.92 L 155.69,359.80 L 155.49,356.43 L 166.59,355.44 Z" fill="#E8E0D0" stroke="#B8B0A0" stroke-width="0.5"/>
<path d="M 279.36,1.42 L 278.17,1.44 L 277.11,0.91 L 269.96,0.08 L 269.67,0.00 L 281.97,0.00 L 279.36,1.42 Z M 268.39,1.71 L 272.69,2.14 L 278.45,1.77 L 282.50,0.24 L 291.63,1.04 L 284.95,3.51 L 286.17,7.02 L 278.87,7.02 L 281.12,9.35 L 285.63,8.97 L 289.52,13.27 L 285.63,13.53 L 285.45,11.20 L 280.64,13.02 L 281.89,11.06 L 278.77,11.74 L 275.34,8.85 L 271.42,8.59 L 260.92,12.09 L 266.14,13.27 L 266.03,15.14 L 270.00,13.80 L 273.44,15.47 L 268.85,16.73 L 261.62,16.01 L 260.74,17.96 L 257.11,17.40 L 259.17,15.95 L 254.02,15.77 L 257.02,14.79 L 249.16,15.44 L 254.29,16.60 L 247.79,18.67 L 253.21,20.01 L 255.82,19.11 L 256.52,20.82 L 251.03,20.95 L 253.12,22.52 L 240.90,23.04 L 238.39,20.95 L 238.57,22.45 L 233.43,22.25 L 236.85,24.39 L 243.32,24.57 L 237.06,26.17 L 235.94,28.70 L 232.50,29.22 L 226.14,25.77 L 224.77,27.54 L 215.14,28.77 L 212.11,25.89 L 209.51,27.96 L 202.49,28.56 L 206.81,29.26 L 204.92,30.59 L 192.98,30.18 L 198.99,31.74 L 206.02,31.33 L 204.62,32.85 L 208.49,32.57 L 210.35,34.08 L 198.99,35.51 L 198.29,38.52 L 190.74,40.81 L 193.34,38.64 L 186.55,37.86 L 188.00,39.93 L 182.64,44.04 L 181.57,40.89 L 173.57,40.06 L 177.38,42.23 L 166.36,43.18 L 165.31,46.35 L 163.88,44.88 L 156.35,47.58 L 155.53,45.67 L 147.66,45.45 L 140.24,51.40 L 127.28,50.09 L 129.86,51.89 L 138.96,51.84 L 141.87,53.55 L 134.75,52.69 L 137.22,53.40 L 133.68,54.94 L 131.86,53.50 L 126.54,53.59 L 131.49,54.05 L 125.81,59.18 L 111.24,58.36 L 114.76,58.83 L 107.68,60.92 L 102.36,59.31 L 104.12,60.54 L 90.33,62.85 L 83.82,60.35 L 86.20,59.28 L 77.41,60.89 L 76.74,60.02 L 69.40,59.46 L 72.61,60.89 L 77.35,61.14 L 80.08,60.62 L 75.67,62.45 L 78.17,64.33 L 67.72,63.84 L 69.67,62.05 L 60.46,62.05 L 64.11,59.87 L 47.61,63.93 L 41.24,62.53 L 46.64,64.17 L 42.98,66.62 L 35.09,65.45 L 36.72,61.53 L 23.60,63.61 L 22.80,64.74 L 27.14,64.79 L 22.22,66.35 L 28.56,67.26 L 23.28,68.42 L 17.06,65.37 L 0.00,66.46 L 0.00,0.00 L 264.39,0.00 L 268.39,1.71 Z M 158.66,50.45 L 149.03,49.87 L 151.06,49.31 L 158.66,50.45 Z M 179.27,43.98 L 174.34,46.97 L 168.59,47.14 L 171.30,43.48 L 179.27,43.98 Z M 276.39,1.16 L 276.59,1.50 L 268.95,1.06 L 267.51,0.00 L 268.48,0.00 L 268.95,0.18 L 276.39,1.16 Z M 213.19,28.89 L 210.87,30.90 L 207.42,30.31 L 208.59,28.49 L 213.19,28.89 Z M 294.84,12.38 L 290.24,10.81 L 295.93,10.16 L 291.50,8.79 L 295.16,7.55 L 299.46,9.89 L 294.84,12.38 Z M 12.23,76.16 L 7.27,76.53 L 12.32,75.70 L 12.23,76.16 Z M 151.35,48.08 L 148.74,48.04 L 148.67,47.87 L 151.35,48.08 Z M 283.01,16.93 L 278.64,15.72 L 279.98,15.28 L 283.01,16.93 Z M 272.96,11.75 L 270.99,12.04 L 270.19,10.90 L 273.56,9.31 L 272.96,11.75 Z" fill="#E8E0D0" stroke="#B8B0A0" stroke-width="0.5"/>
<path d="M 62.49,406.61 L 66.31,412.74 L 53.12,411.00 L 49.91,403.12 L 55.94,401.45 L 62.49,406.61 Z M 35.00,404.85 L 40.37,411.20 L 36.29,416.19 L 29.08,418.38 L 18.31,413.76 L 11.20,413.67 L 9.28,409.56 L 0.00,407.91 L 0.00,407.26 L 13.48,407.18 L 53.64,398.77 L 35.00,404.85 Z" fill="#E8E0D0" stroke="#B8B0A0" stroke-width="0.5"/>
<path d="M 13.92,67.40 L 5.23,68.51 L 7.40,69.45 L 13.33,67.90 L 17.27,68.74 L 15.08,70.70 L 9.94,70.14 L 11.93,72.11 L 0.00,70.47 L 0.00,67.83 L 8.46,66.46 L 13.92,67.40 Z M 2.30,73.65 L 2.08,72.54 L 4.57,73.15 L 2.30,73.65 Z M 9.82,73.15 L 7.32,73.42 L 2.39,71.86 L 7.72,71.59 L 9.82,73.15 Z" fill="#E8E0D0" stroke="#B8B0A0" stroke-width="0.5"/>
<path d="M 401.03,24.27 L 404.91,27.70 L 390.70,37.59 L 379.95,55.27 L 356.54,67.02 L 350.95,78.83 L 344.43,78.20 L 339.60,71.41 L 333.94,68.95 L 327.15,67.83 L 324.58,67.15 L 322.19,66.00 L 324.70,67.03 L 316.03,57.43 L 310.27,57.20 L 315.94,51.17 L 316.97,43.52 L 362.30,19.11 L 382.19,17.48 L 381.83,15.49 L 389.32,14.70 L 411.31,20.03 L 401.03,24.27 Z M 389.67,76.75 L 384.72,75.46 L 388.58,75.46 L 389.67,76.75 Z M 227.80,30.86 L 218.51,31.43 L 218.41,29.99 L 224.22,29.13 L 227.80,30.86 Z M 290.24,47.61 L 284.83,48.23 L 282.92,47.78 L 289.18,46.58 L 290.24,47.61 Z M 281.58,45.69 L 281.08,47.19 L 278.53,47.36 L 281.58,45.69 Z M 283.86,45.41 L 284.95,45.14 L 286.49,45.63 L 283.86,45.41 Z M 382.93,64.18 L 385.27,64.31 L 384.93,64.97 L 382.93,64.18 Z M 313.39,47.63 L 313.88,47.58 L 307.81,49.82 L 313.39,47.63 Z" fill="#E8E0D0" stroke="#B8B0A0" stroke-width="0.5"/>
<path d="M 511.26,32.07 L 508.08,34.15 L 497.47,33.42 L 505.06,31.61 L 511.26,32.07 Z M 462.76,30.71 L 459.67,30.62 L 460.54,30.07 L 462.76,30.71 Z M 527.19,32.15 L 521.93,32.56 L 518.72,30.78 L 525.64,30.57 L 531.71,27.97 L 527.19,32.15 Z M 589.92,24.91 L 579.87,25.13 L 579.95,22.25 L 589.92,24.91 Z M 577.10,23.77 L 573.73,23.55 L 574.94,22.83 L 577.10,23.77 Z M 493.95,6.03 L 494.08,5.92 L 494.26,6.04 L 493.95,6.03 Z M 490.25,5.61 L 489.35,5.68 L 490.38,5.39 L 490.25,5.61 Z M 497.66,2.46 L 497.65,2.42 L 497.72,2.44 L 497.66,2.46 Z" fill="#E8E0D0" stroke="#B8B0A0" stroke-width="0.5"/>
<path d="M 67.33,300.26 L 67.43,300.26 L 67.39,300.29 L 67.33,300.26 Z M 16.17,310.64 L 16.30,310.65 L 16.06,310.87 L 16.17,310.64 Z M 15.14,301.40 L 15.36,301.25 L 15.79,301.38 L 15.14,301.40 Z M 20.47,297.74 L 20.75,297.62 L 20.96,297.74 L 20.47,297.74 Z M 15.15,297.73 L 15.23,297.62 L 15.61,297.76 L 15.15,297.73 Z M 19.87,297.32 L 20.12,297.26 L 20.38,297.35 L 19.87,297.32 Z M 91.51,290.99 L 90.57,291.07 L 90.57,290.86 L 91.51,290.99 Z M 91.56,289.16 L 91.35,289.01 L 92.16,289.02 L 91.56,289.16 Z M 10.66,284.95 L 11.20,284.86 L 11.42,284.94 L 10.66,284.95 Z M 49.08,283.78 L 48.89,283.62 L 49.44,283.58 L 49.08,283.78 Z M 15.20,309.17 L 15.35,309.19 L 15.28,309.22 L 15.20,309.17 Z" fill="#E8E0D0" stroke="#B8B0A0" stroke-width="0.5"/>
<path d="M 191.14,207.01 L 191.04,207.04 L 190.94,207.01 L 191.14,207.01 Z" fill="#E8E0D0" stroke="#B8B0A0" stroke-width="0.5"/>
<path d="M 354.28,389.50 L 353.93,390.25 L 350.09,389.58 L 354.28,389.50 Z M 403.66,380.69 L 399.46,379.26 L 404.35,380.10 L 403.66,380.69 Z M 606.72,363.76 L 601.39,360.42 L 603.55,358.03 L 606.72,363.76 Z M 454.66,356.16 L 452.51,355.66 L 453.95,353.57 L 461.38,354.47 L 454.66,356.16 Z M 371.38,312.50 L 370.15,312.85 L 372.63,311.54 L 371.38,312.50 Z M 617.45,312.60 L 615.53,313.04 L 614.90,309.36 L 617.45,312.60 Z M 650.00,356.85 L 642.43,361.69 L 634.32,362.72 L 635.87,365.80 L 630.85,363.28 L 627.19,363.57 L 631.60,366.59 L 628.65,375.36 L 623.20,370.97 L 622.37,364.74 L 617.42,363.25 L 610.67,355.37 L 601.09,356.87 L 586.03,367.93 L 597.03,371.26 L 602.69,379.96 L 585.70,388.84 L 575.85,384.56 L 580.87,381.13 L 579.46,378.97 L 574.65,378.67 L 571.06,382.92 L 564.58,383.42 L 525.10,376.52 L 517.50,372.42 L 516.55,365.55 L 512.85,364.93 L 516.18,359.56 L 524.18,357.45 L 527.44,354.08 L 518.03,350.31 L 499.32,346.39 L 485.88,346.54 L 488.01,349.15 L 481.16,350.89 L 485.18,354.75 L 477.37,351.88 L 470.13,352.01 L 472.52,349.86 L 468.96,347.68 L 463.19,352.78 L 458.56,351.36 L 453.63,353.03 L 453.25,347.64 L 443.09,347.06 L 429.07,353.16 L 430.34,354.67 L 419.04,363.11 L 413.00,363.32 L 405.80,360.66 L 418.60,350.57 L 416.48,347.12 L 424.08,343.14 L 446.23,339.65 L 460.01,339.70 L 465.02,333.46 L 479.33,332.64 L 485.45,330.44 L 483.42,329.04 L 489.42,329.50 L 492.96,331.70 L 494.80,330.04 L 502.16,331.24 L 506.61,334.18 L 508.59,339.65 L 497.89,343.46 L 513.05,339.58 L 526.69,338.73 L 535.68,331.23 L 548.72,333.00 L 547.63,334.57 L 553.68,333.27 L 556.59,323.61 L 571.96,327.02 L 576.17,326.14 L 577.28,322.14 L 582.62,323.89 L 593.23,323.48 L 594.41,319.86 L 587.12,310.86 L 590.27,308.16 L 596.99,309.46 L 599.81,312.18 L 616.87,314.67 L 613.66,316.10 L 617.96,316.23 L 621.28,319.12 L 629.67,317.98 L 627.55,322.02 L 636.17,326.57 L 631.47,329.76 L 624.00,331.24 L 626.49,332.75 L 639.27,333.42 L 635.82,338.69 L 642.07,338.21 L 642.43,340.95 L 638.12,344.94 L 648.47,348.09 L 650.00,356.85 Z M 580.66,306.34 L 573.59,301.66 L 578.34,302.50 L 580.66,306.34 Z M 534.26,292.88 L 529.39,293.34 L 531.63,291.44 L 534.26,292.88 Z M 541.02,292.62 L 535.86,292.50 L 535.82,291.82 L 541.02,292.62 Z M 606.33,291.51 L 602.07,289.52 L 604.36,289.46 L 609.06,290.86 L 606.33,291.51 Z M 289.18,285.53 L 287.37,285.66 L 285.64,283.96 L 289.18,285.53 Z M 288.13,282.54 L 285.14,283.08 L 285.29,282.42 L 288.13,282.54 Z M 546.22,276.58 L 539.14,276.82 L 532.74,272.91 L 541.76,272.79 L 546.22,276.58 Z M 557.74,275.64 L 552.62,272.12 L 555.55,272.82 L 557.74,275.64 Z M 426.94,148.17 L 419.83,151.04 L 418.07,157.93 L 424.05,165.09 L 432.51,165.87 L 432.63,169.16 L 438.45,170.21 L 421.62,182.66 L 421.60,186.42 L 410.93,190.32 L 418.04,185.96 L 388.62,192.51 L 391.82,197.34 L 379.43,202.72 L 379.49,204.84 L 396.79,215.00 L 390.73,216.91 L 397.13,225.30 L 407.73,228.97 L 423.05,230.65 L 420.54,229.08 L 427.29,228.56 L 421.85,227.21 L 419.48,225.69 L 424.70,224.18 L 426.59,227.13 L 432.60,222.71 L 444.42,223.47 L 446.26,222.22 L 465.03,227.01 L 468.45,234.15 L 478.48,232.87 L 480.23,229.21 L 477.87,230.12 L 474.15,229.01 L 480.04,226.98 L 484.47,230.65 L 485.88,229.60 L 498.15,231.06 L 499.72,230.12 L 511.43,232.97 L 512.87,234.29 L 492.40,234.13 L 490.13,236.35 L 507.18,243.52 L 502.61,243.60 L 501.48,246.64 L 508.59,245.08 L 518.88,247.68 L 524.22,246.77 L 517.50,256.64 L 508.37,254.59 L 503.96,251.06 L 514.78,250.14 L 515.96,248.70 L 509.13,248.33 L 500.43,250.80 L 499.02,249.17 L 494.20,249.89 L 485.71,247.16 L 478.91,247.62 L 478.43,243.39 L 471.59,239.33 L 455.55,236.35 L 455.72,234.67 L 438.85,229.61 L 432.44,229.86 L 445.89,240.66 L 446.82,243.52 L 441.51,244.55 L 430.18,237.42 L 396.78,229.46 L 384.33,231.69 L 383.27,234.67 L 373.67,236.56 L 361.24,235.84 L 359.42,233.03 L 353.39,234.69 L 352.84,230.54 L 343.93,230.25 L 341.07,232.97 L 337.13,225.56 L 357.69,219.35 L 356.28,216.47 L 350.97,214.42 L 340.68,213.93 L 339.60,212.30 L 338.19,213.34 L 337.76,211.74 L 335.21,215.15 L 337.90,220.01 L 328.25,220.22 L 326.45,217.09 L 319.97,215.02 L 322.56,213.20 L 318.26,212.17 L 316.51,214.50 L 311.56,213.61 L 307.68,204.78 L 301.62,201.75 L 305.54,200.13 L 300.54,195.79 L 301.98,193.30 L 294.77,191.96 L 297.15,184.12 L 303.08,183.68 L 302.33,186.15 L 311.96,187.92 L 314.61,190.03 L 322.91,190.58 L 328.25,187.77 L 321.72,179.29 L 330.02,171.77 L 330.40,164.55 L 324.71,161.37 L 337.42,146.77 L 336.96,143.42 L 347.35,142.29 L 349.54,140.71 L 355.44,142.20 L 364.76,140.74 L 392.88,146.98 L 392.64,145.93 L 410.35,147.43 L 418.95,143.10 L 426.43,145.28 L 426.94,148.17 Z M 318.64,397.53 L 313.68,395.58 L 298.06,398.58 L 298.18,397.24 L 317.15,393.16 L 320.47,394.66 L 318.64,397.53 Z M 337.33,375.96 L 333.04,376.00 L 332.91,375.66 L 337.89,373.50 L 337.33,375.96 Z M 420.81,372.17 L 409.08,373.05 L 401.03,368.98 L 414.49,366.67 L 426.41,368.71 L 420.81,372.17 Z M 229.86,362.29 L 225.93,361.40 L 230.23,360.85 L 229.86,362.29 Z M 156.48,345.19 L 152.50,346.56 L 150.00,341.59 L 156.39,341.67 L 156.48,345.19 Z M 151.77,340.81 L 154.34,340.19 L 155.51,341.13 L 151.77,340.81 Z M 161.81,339.41 L 162.64,339.82 L 160.37,339.79 L 161.81,339.41 Z M 170.61,338.61 L 167.00,339.27 L 166.47,336.86 L 170.61,338.61 Z M 165.66,337.05 L 161.84,337.79 L 164.57,336.25 L 165.66,337.05 Z M 554.56,322.32 L 547.63,320.32 L 551.36,319.04 L 555.28,319.99 L 554.56,322.32 Z M 495.61,321.92 L 487.26,320.26 L 496.11,318.21 L 499.01,320.65 L 495.61,321.92 Z M 620.79,309.46 L 616.51,307.65 L 621.98,303.68 L 626.87,308.05 L 620.79,309.46 Z M 545.55,309.79 L 540.55,309.20 L 529.90,312.27 L 511.42,312.06 L 504.35,309.40 L 508.75,306.42 L 526.19,301.92 L 535.22,301.92 L 544.58,304.16 L 545.55,309.79 Z M 600.85,306.91 L 597.38,303.10 L 592.13,302.74 L 593.52,298.79 L 599.51,296.06 L 603.75,306.48 L 600.85,306.91 Z M 306.59,294.72 L 296.46,296.13 L 294.60,294.56 L 299.02,292.70 L 306.59,294.72 Z M 446.62,295.20 L 438.84,296.84 L 436.03,295.25 L 438.84,293.27 L 447.88,290.86 L 446.62,295.20 Z M 470.97,307.32 L 469.87,313.29 L 479.30,318.91 L 474.77,321.74 L 464.57,323.12 L 454.81,317.20 L 439.62,314.47 L 431.89,310.51 L 431.51,307.79 L 435.63,305.29 L 447.71,305.06 L 456.26,302.90 L 453.25,295.03 L 461.38,291.11 L 462.53,287.59 L 476.30,285.92 L 489.88,287.34 L 492.61,289.03 L 470.97,307.32 Z M 515.43,297.73 L 496.66,303.60 L 487.69,313.37 L 479.82,316.04 L 482.90,305.30 L 500.31,295.42 L 517.02,280.56 L 515.43,297.73 Z M 500.86,282.89 L 501.48,280.27 L 502.27,280.53 L 504.35,282.42 L 500.86,282.89 Z M 293.19,294.96 L 285.44,297.58 L 270.42,299.84 L 265.78,303.73 L 243.91,306.05 L 244.10,309.85 L 240.11,309.06 L 242.98,311.11 L 222.71,320.12 L 210.89,321.30 L 204.50,325.92 L 191.12,329.67 L 181.29,330.22 L 178.56,333.15 L 161.87,336.35 L 165.66,331.19 L 185.95,322.69 L 210.71,317.27 L 243.78,302.32 L 244.18,303.73 L 246.92,303.22 L 246.06,301.22 L 256.89,298.93 L 255.71,297.26 L 261.84,295.54 L 262.61,297.44 L 270.01,295.16 L 273.48,291.07 L 267.13,286.93 L 279.83,290.90 L 272.18,285.80 L 272.96,283.87 L 277.12,284.75 L 275.71,282.28 L 281.61,277.78 L 285.26,285.53 L 281.75,288.00 L 286.83,289.15 L 293.19,294.96 Z M 298.76,278.64 L 292.71,277.08 L 298.76,277.08 L 300.54,276.03 L 298.76,278.64 Z M 579.94,299.85 L 573.76,299.51 L 574.29,301.28 L 566.00,297.56 L 568.11,304.42 L 555.09,301.92 L 555.01,289.21 L 546.90,285.78 L 541.31,288.22 L 535.17,287.07 L 535.60,280.08 L 530.23,275.52 L 547.29,280.04 L 558.47,277.60 L 565.24,278.38 L 565.12,280.56 L 568.63,281.11 L 567.18,290.48 L 576.52,293.36 L 579.94,299.85 Z M 469.65,282.35 L 451.93,286.28 L 449.62,289.70 L 422.77,292.61 L 408.43,296.58 L 407.77,290.08 L 413.37,285.49 L 416.59,273.33 L 415.41,272.06 L 403.46,271.21 L 405.69,268.85 L 409.16,268.09 L 430.58,271.90 L 443.28,276.16 L 448.59,274.21 L 454.06,274.33 L 459.97,275.90 L 457.70,277.51 L 471.32,274.47 L 469.65,282.35 Z M 311.56,270.84 L 305.70,273.21 L 307.67,270.97 L 303.75,271.10 L 299.85,267.70 L 308.70,268.87 L 311.56,270.84 Z M 324.33,266.93 L 319.73,267.07 L 314.78,266.28 L 313.33,267.46 L 307.48,266.63 L 301.98,262.90 L 299.52,263.67 L 301.46,260.71 L 317.57,264.71 L 319.32,262.69 L 324.33,266.93 Z M 442.73,261.59 L 432.95,258.05 L 443.78,257.64 L 446.66,259.19 L 442.73,261.59 Z M 605.87,285.39 L 600.22,282.98 L 579.25,284.07 L 575.40,280.79 L 566.52,280.32 L 566.83,277.73 L 557.57,276.16 L 565.32,274.57 L 568.73,271.44 L 560.89,271.37 L 549.88,266.27 L 540.21,264.98 L 529.34,256.01 L 549.85,257.04 L 575.08,255.86 L 580.57,257.37 L 584.58,259.26 L 582.78,261.21 L 594.35,263.36 L 590.27,264.45 L 593.67,265.76 L 589.56,267.84 L 590.63,274.21 L 599.51,278.83 L 595.22,281.80 L 599.05,281.33 L 605.87,285.39 Z M 517.50,272.05 L 501.34,268.22 L 487.99,262.70 L 471.12,268.40 L 478.11,262.71 L 474.15,262.51 L 475.01,255.59 L 481.31,256.41 L 479.76,258.52 L 485.34,256.99 L 503.96,263.29 L 504.03,262.15 L 508.94,262.90 L 517.26,267.39 L 514.63,266.68 L 517.50,272.05 Z M 427.16,256.65 L 425.52,257.83 L 423.76,256.00 L 427.16,256.65 Z M 419.13,254.84 L 411.67,264.85 L 407.10,260.40 L 410.82,255.59 L 419.13,254.84 Z M 493.06,254.99 L 494.41,253.79 L 500.81,255.61 L 503.64,259.71 L 493.06,254.99 Z M 482.32,253.67 L 459.97,245.74 L 464.91,245.42 L 482.32,253.67 Z M 379.73,261.34 L 371.92,262.77 L 365.11,262.07 L 366.61,260.95 L 358.25,258.81 L 348.75,252.99 L 341.86,244.90 L 334.09,243.48 L 330.86,239.88 L 324.39,240.32 L 324.07,238.60 L 358.05,237.79 L 365.53,240.79 L 369.44,239.49 L 381.83,245.08 L 387.88,245.74 L 384.26,247.58 L 386.48,253.47 L 379.73,261.34 Z M 411.49,243.97 L 401.39,241.17 L 403.71,237.12 L 410.93,237.40 L 416.30,239.95 L 411.49,243.97 Z M 313.02,233.11 L 311.86,231.52 L 319.73,232.58 L 320.93,234.35 L 313.02,233.11 Z M 532.00,237.27 L 527.69,236.48 L 524.38,237.93 L 517.11,236.35 L 521.75,227.39 L 525.83,227.23 L 530.62,230.65 L 536.31,231.29 L 532.00,237.27 Z M 420.21,228.74 L 407.23,224.67 L 409.17,224.58 L 420.21,228.74 Z M 423.58,214.90 L 416.51,212.85 L 421.60,212.95 L 423.58,214.90 Z M 414.03,210.21 L 409.38,211.74 L 412.26,215.16 L 407.94,216.72 L 402.04,209.66 L 414.03,210.21 Z M 383.98,136.20 L 373.69,136.58 L 373.73,136.23 L 383.98,136.20 Z M 410.47,134.93 L 402.44,137.11 L 405.47,134.03 L 410.47,134.93 Z M 372.29,132.42 L 371.92,133.61 L 369.08,132.30 L 370.15,130.61 L 372.29,132.42 Z M 385.04,129.04 L 377.40,126.83 L 385.99,126.49 L 385.04,129.04 Z M 409.90,124.49 L 405.76,123.77 L 405.87,123.35 L 409.86,123.00 L 409.90,124.49 Z M 405.50,109.03 L 404.26,109.74 L 403.31,109.79 L 402.83,108.41 L 405.50,109.03 Z M 409.54,107.99 L 407.00,108.26 L 409.27,106.24 L 411.54,105.71 L 409.54,107.99 Z M 402.22,101.71 L 399.97,101.63 L 403.56,99.07 L 402.22,101.71 Z M 281.70,404.19 L 279.26,406.25 L 278.16,401.56 L 281.70,404.19 Z M 371.20,384.51 L 366.22,384.39 L 367.66,383.62 L 371.20,384.51 Z M 380.96,381.72 L 374.38,383.41 L 371.03,381.83 L 355.81,382.90 L 352.59,381.47 L 361.41,378.89 L 380.96,381.72 Z M 391.81,369.56 L 391.16,370.07 L 389.41,368.74 L 391.81,368.25 L 391.81,369.56 Z M 363.74,289.17 L 360.14,288.97 L 360.89,288.28 L 364.12,287.80 L 363.74,289.17 Z M 321.06,268.43 L 321.30,270.33 L 317.95,267.83 L 321.06,268.43 Z M 379.14,266.82 L 377.81,264.66 L 378.28,264.74 L 379.14,266.82 Z M 305.38,326.12 L 305.26,326.12 L 305.33,326.05 L 305.38,326.12 Z M 305.77,325.99 L 305.96,326.02 L 305.82,326.05 L 305.77,325.99 Z M 305.66,325.96 L 305.59,325.97 L 305.51,325.93 L 305.66,325.96 Z M 305.78,325.87 L 305.72,325.89 L 305.64,325.85 L 305.78,325.87 Z M 395.44,249.65 L 394.90,248.86 L 396.44,248.86 L 395.44,249.65 Z M 362.96,237.68 L 361.48,237.08 L 363.67,237.02 L 362.96,237.68 Z M 407.39,94.77 L 407.66,94.61 L 407.76,94.75 L 407.39,94.77 Z M 408.67,93.75 L 408.40,93.97 L 408.31,93.79 L 408.67,93.75 Z M 299.84,403.35 L 300.04,403.54 L 298.06,403.44 L 299.84,403.35 Z M 296.98,402.00 L 296.70,401.20 L 299.26,401.52 L 296.98,402.00 Z M 294.24,398.88 L 296.97,397.42 L 297.70,398.39 L 294.24,398.88 Z M 588.16,392.72 L 583.78,392.36 L 585.99,391.53 L 588.16,392.72 Z M 353.15,386.71 L 348.83,387.04 L 349.25,386.51 L 353.15,386.71 Z M 355.57,385.80 L 354.56,386.43 L 353.57,386.24 L 355.57,385.80 Z M 504.53,313.15 L 500.48,312.64 L 503.36,311.95 L 506.43,311.59 L 504.53,313.15 Z M 545.62,303.02 L 542.09,303.50 L 541.69,302.68 L 545.62,303.02 Z M 386.48,269.75 L 380.60,269.87 L 381.28,269.47 L 386.48,269.75 Z M 526.53,265.63 L 522.44,266.01 L 523.22,265.41 L 526.53,265.63 Z M 361.90,262.64 L 362.33,261.55 L 363.79,261.77 L 365.23,263.10 L 361.90,262.64 Z M 521.78,258.53 L 521.58,257.90 L 523.81,258.62 L 521.78,258.53 Z M 519.73,244.20 L 518.05,243.86 L 525.52,244.14 L 519.73,244.20 Z M 515.97,243.64 L 510.12,242.38 L 517.13,242.56 L 515.97,243.64 Z M 508.10,243.50 L 506.83,241.13 L 510.62,241.59 L 508.10,243.50 Z M 503.01,240.42 L 502.83,240.20 L 506.65,240.87 L 503.01,240.42 Z M 431.65,215.85 L 427.58,215.90 L 428.73,215.35 L 431.65,215.85 Z M 307.05,186.54 L 303.39,185.14 L 306.59,184.29 L 307.05,186.54 Z M 516.93,298.65 L 511.19,299.97 L 511.95,298.98 L 516.93,298.65 Z" fill="#4A90D9" stroke="#1a5fa8" stroke-width="1.2"/>
<path d="M 369.96,225.39 L 362.44,220.07 L 365.75,218.91 L 370.86,220.88 L 373.82,219.13 L 375.76,223.07 L 383.79,221.76 L 369.96,225.39 Z" fill="#A8C8E8" stroke="none"/>
<path d="M 123.33,500.00 L 120.51,500.00 L 122.82,497.95 L 127.00,498.89 L 123.33,500.00 Z M 118.20,499.26 L 119.61,500.00 L 115.68,500.00 L 118.20,499.26 Z" fill="#A8C8E8" stroke="none"/>
<path d="M 361.56,228.66 L 357.44,229.68 L 355.72,227.54 L 361.56,228.66 Z" fill="#A8C8E8" stroke="none"/>
<path d="M 34.26,40.98 L 26.80,43.19 L 29.10,44.14 L 16.75,43.89 L 24.21,42.73 L 21.51,41.24 L 20.38,42.29 L 15.10,42.16 L 23.87,40.39 L 23.61,37.35 L 28.13,38.80 L 22.89,41.21 L 25.94,42.22 L 34.26,40.98 Z" fill="#A8C8E8" stroke="none"/>
</svg>