<svg xmlns="http://www.w3.org/2000/svg" width="800" height="500" viewBox="0 0 800 500">
<rect width="800" height="500" fill="#A8C8E8"/>
<path d="M 328.20,415.72 L 328.72,417.56 L 326.94,417.93 L 324.44,415.59 L 328.20,415.72 Z M 318.32,415.47 L 324.16,420.42 L 323.46,420.69 L 321.97,419.97 L 321.11,420.03 L 324.73,421.34 L 325.91,422.89 L 324.41,422.90 L 326.71,424.32 L 323.05,425.68 L 320.09,422.64 L 320.85,426.15 L 313.10,425.42 L 311.99,426.40 L 315.11,425.98 L 315.12,427.14 L 315.91,428.37 L 319.68,429.43 L 318.07,433.04 L 316.42,433.23 L 322.84,436.05 L 321.87,437.99 L 324.10,438.38 L 321.48,439.16 L 325.05,439.55 L 322.89,440.99 L 325.93,442.27 L 326.71,445.13 L 331.45,450.26 L 330.99,452.49 L 328.35,454.89 L 326.71,454.64 L 328.08,455.71 L 325.30,456.06 L 327.58,456.84 L 328.52,460.09 L 337.79,466.42 L 338.37,468.15 L 341.27,468.98 L 348.65,476.09 L 344.69,479.35 L 337.03,479.35 L 331.71,477.38 L 327.96,473.49 L 330.53,479.44 L 328.12,478.73 L 325.17,480.57 L 320.12,492.56 L 321.23,495.24 L 319.47,499.18 L 319.92,500.00 L 257.14,500.00 L 257.14,467.49 L 259.12,467.66 L 262.84,466.02 L 266.00,467.39 L 268.48,459.68 L 271.30,458.51 L 270.32,451.97 L 278.23,446.98 L 275.46,445.11 L 275.69,440.86 L 278.89,436.89 L 280.15,437.95 L 283.00,437.09 L 283.99,430.90 L 285.54,429.51 L 284.38,420.20 L 290.03,411.31 L 293.30,413.56 L 295.24,411.50 L 298.66,411.42 L 300.53,413.22 L 302.58,411.16 L 303.84,412.41 L 315.17,411.94 L 321.92,415.67 L 318.32,415.47 Z M 379.31,474.49 L 379.58,474.80 L 378.18,474.27 L 379.31,474.49 Z M 374.46,474.49 L 373.93,475.19 L 373.74,474.71 L 374.46,474.49 Z M 363.23,496.98 L 360.92,496.51 L 360.17,494.43 L 363.84,496.23 L 364.86,493.27 L 362.96,490.08 L 364.52,489.17 L 365.30,485.63 L 367.53,484.83 L 367.78,480.69 L 371.13,479.16 L 372.09,475.75 L 373.25,475.97 L 373.34,478.38 L 377.45,479.78 L 379.19,476.24 L 381.77,474.64 L 382.36,469.46 L 386.93,469.34 L 390.34,471.29 L 393.79,470.00 L 393.77,472.47 L 395.55,474.27 L 412.34,475.25 L 419.65,479.10 L 421.85,476.35 L 425.70,477.11 L 425.90,476.14 L 439.64,478.84 L 446.32,475.32 L 448.16,472.11 L 451.94,471.93 L 451.10,468.81 L 456.41,466.74 L 456.23,464.77 L 459.16,461.76 L 462.70,462.77 L 464.07,466.44 L 461.59,468.33 L 457.58,476.16 L 453.23,479.33 L 450.46,485.07 L 446.90,487.05 L 434.03,489.57 L 426.86,488.47 L 423.82,484.83 L 400.25,486.53 L 396.57,484.15 L 387.43,486.90 L 376.24,484.59 L 369.86,490.30 L 366.85,498.60 L 367.11,500.00 L 362.87,500.00 L 363.23,496.98 Z M 511.56,452.22 L 510.92,452.70 L 510.31,451.97 L 511.56,452.22 Z M 518.11,451.02 L 517.83,451.23 L 517.35,449.86 L 518.55,449.69 L 518.11,451.02 Z M 342.03,453.06 L 342.03,453.20 L 340.63,452.16 L 340.22,450.74 L 342.03,453.06 Z M 321.18,432.16 L 319.14,432.20 L 319.44,431.29 L 321.18,432.16 Z M 324.08,430.09 L 323.42,433.01 L 321.25,430.03 L 324.08,430.09 Z M 326.71,428.30 L 325.94,426.63 L 327.11,426.76 L 327.96,428.24 L 326.71,428.30 Z M 316.43,428.18 L 315.45,427.04 L 318.71,426.93 L 320.99,428.62 L 316.43,428.18 Z M 325.93,422.12 L 324.92,421.20 L 326.36,421.43 L 327.08,422.51 L 325.93,422.12 Z M 325.36,417.71 L 323.73,419.02 L 322.42,417.48 L 323.65,415.86 L 325.36,417.71 Z M 499.70,499.48 L 501.96,499.98 L 501.95,500.00 L 498.67,500.00 L 499.70,499.48 Z M 408.32,499.82 L 406.61,499.05 L 407.22,498.35 L 408.32,499.82 Z M 410.41,500.00 L 409.70,500.00 L 408.12,498.41 L 410.01,499.00 L 410.41,500.00 Z M 396.49,496.99 L 397.46,497.42 L 396.99,498.39 L 396.49,496.99 Z M 538.90,493.72 L 539.19,493.71 L 542.86,496.73 L 542.86,498.07 L 538.90,493.72 Z M 503.84,494.57 L 504.03,491.83 L 504.84,491.96 L 504.97,494.70 L 503.84,494.57 Z M 504.18,488.69 L 503.09,489.24 L 502.70,488.01 L 503.84,487.42 L 504.18,488.69 Z M 503.59,480.25 L 504.21,480.25 L 504.72,481.96 L 503.47,482.80 L 503.59,480.25 Z M 502.25,480.25 L 501.81,478.74 L 503.19,478.66 L 502.25,480.25 Z M 464.40,467.79 L 462.88,468.23 L 462.69,467.76 L 464.08,467.13 L 464.91,465.17 L 464.40,467.79 Z M 509.70,488.69 L 506.21,483.98 L 508.02,478.83 L 505.62,477.45 L 505.57,474.60 L 503.94,474.83 L 503.84,471.68 L 508.12,459.79 L 513.76,453.10 L 515.84,452.79 L 512.13,459.48 L 515.24,461.99 L 515.24,469.85 L 508.08,476.83 L 512.22,479.22 L 514.85,474.07 L 518.29,472.71 L 516.67,470.76 L 518.75,468.24 L 523.06,465.41 L 528.28,464.81 L 527.94,474.30 L 520.53,477.66 L 518.92,479.94 L 521.71,482.41 L 527.56,484.10 L 527.74,488.04 L 530.22,488.73 L 531.61,490.68 L 523.50,487.13 L 513.31,486.32 L 512.85,494.18 L 514.61,499.63 L 514.81,500.00 L 510.31,500.00 L 508.79,498.60 L 509.70,488.69 Z M 467.83,450.34 L 466.71,450.48 L 466.29,449.56 L 467.83,450.34 Z M 525.45,454.57 L 519.95,456.75 L 518.61,451.61 L 520.91,447.96 L 525.45,444.63 L 527.67,447.47 L 525.45,454.57 Z M 467.25,444.63 L 466.72,444.72 L 466.12,442.36 L 467.66,441.61 L 467.25,444.63 Z M 470.87,430.18 L 468.84,428.88 L 467.63,423.70 L 471.53,428.76 L 470.87,430.18 Z M 492.98,422.04 L 493.80,423.29 L 492.97,423.79 L 491.73,421.48 L 492.98,422.04 Z M 491.14,420.20 L 490.84,422.26 L 489.34,417.86 L 491.14,420.20 Z M 495.02,413.34 L 492.73,418.36 L 490.47,418.61 L 492.82,414.46 L 491.11,413.68 L 491.73,408.34 L 494.15,409.31 L 495.02,413.34 Z M 405.36,499.73 L 405.69,499.63 L 405.83,500.00 L 405.35,500.00 L 405.36,499.73 Z M 485.39,469.34 L 485.01,470.26 L 484.38,469.51 L 485.39,469.34 Z M 466.91,454.71 L 465.64,455.11 L 466.01,454.20 L 466.91,454.71 Z M 489.04,388.98 L 489.11,389.01 L 488.98,389.30 L 489.04,388.98 Z M 462.73,460.86 L 462.13,461.56 L 461.85,459.92 L 462.73,460.86 Z M 499.16,404.42 L 498.98,404.64 L 498.74,404.41 L 499.16,404.42 Z" fill="#E8E0D0" stroke="#B8B0A0" stroke-width="0.5"/>
<path d="M 323.27,414.38 L 324.40,413.62 L 328.20,415.72 L 323.27,414.38 Z M 278.31,400.48 L 281.04,401.56 L 284.72,398.44 L 285.61,395.69 L 281.17,393.88 L 281.68,391.87 L 285.60,387.65 L 285.60,389.85 L 290.12,389.08 L 291.63,385.23 L 293.86,383.73 L 294.88,378.33 L 302.23,371.33 L 307.30,361.24 L 308.80,365.21 L 307.42,369.50 L 310.94,367.29 L 311.99,363.06 L 314.20,361.69 L 316.17,362.93 L 316.90,368.65 L 319.90,370.34 L 321.30,368.94 L 324.87,372.17 L 324.80,375.90 L 322.53,376.98 L 323.80,381.25 L 320.09,383.23 L 325.75,382.48 L 330.24,379.57 L 332.24,383.32 L 328.47,384.36 L 329.19,386.67 L 336.68,384.27 L 340.92,386.77 L 340.39,389.73 L 341.97,387.63 L 347.18,392.23 L 351.93,391.16 L 353.57,393.17 L 353.37,395.90 L 351.31,397.70 L 342.54,400.77 L 339.16,401.02 L 336.53,398.98 L 332.45,401.95 L 335.06,405.50 L 338.75,407.29 L 339.11,409.05 L 341.02,408.84 L 341.87,410.41 L 340.23,411.80 L 329.60,414.31 L 323.56,410.64 L 323.02,415.35 L 321.92,415.67 L 315.17,411.94 L 303.84,412.41 L 302.58,411.16 L 300.53,413.22 L 298.66,411.42 L 295.24,411.50 L 293.30,413.56 L 290.03,411.31 L 284.38,420.20 L 285.54,429.51 L 283.99,430.90 L 283.00,437.09 L 280.15,437.95 L 278.89,436.89 L 275.69,440.86 L 275.46,445.11 L 278.23,446.98 L 270.32,451.97 L 271.30,458.51 L 268.48,459.68 L 266.00,467.39 L 262.84,466.02 L 259.12,467.66 L 257.14,467.49 L 257.14,408.13 L 260.45,409.56 L 261.14,413.67 L 263.68,413.76 L 267.52,418.38 L 270.10,416.19 L 271.56,411.20 L 269.64,404.85 L 274.70,401.30 L 276.11,411.00 L 280.82,412.74 L 277.12,401.45 L 278.31,400.48 Z M 334.20,383.92 L 332.99,384.01 L 333.27,383.56 L 334.20,383.92 Z M 342.41,410.41 L 341.84,409.29 L 342.42,409.24 L 343.36,409.36 L 342.41,410.41 Z M 341.02,406.64 L 339.83,407.28 L 336.34,405.86 L 341.02,406.64 Z M 279.21,394.19 L 277.36,394.93 L 277.91,393.17 L 279.01,392.78 L 279.21,394.19 Z M 320.79,367.95 L 317.84,368.30 L 319.63,367.47 L 318.82,366.70 L 320.09,366.18 L 320.79,367.95 Z M 311.61,356.44 L 308.68,357.99 L 309.57,356.29 L 311.47,355.00 L 311.61,356.44 Z M 316.64,355.44 L 316.28,357.92 L 312.74,359.80 L 312.67,356.43 L 316.64,355.44 Z" fill="#E8E0D0" stroke="#B8B0A0" stroke-width="0.5"/>
<path d="M 356.91,1.42 L 356.49,1.44 L 356.11,0.91 L 353.56,0.08 L 353.45,0.00 L 357.85,0.00 L 356.91,1.42 Z M 353.00,1.71 L 354.53,2.14 L 356.59,1.77 L 358.03,0.24 L 361.30,1.04 L 358.91,3.51 L 359.35,7.02 L 356.74,7.02 L 357.54,9.35 L 359.15,8.97 L 360.54,13.27 L 359.15,13.53 L 359.09,11.20 L 357.37,13.02 L 357.82,11.06 L 356.70,11.74 L 355.48,8.85 L 354.08,8.59 L 350.33,12.09 L 352.19,13.27 L 352.15,15.14 L 353.57,13.80 L 354.80,15.47 L 353.16,16.73 L 350.58,16.01 L 350.26,17.96 L 348.97,17.40 L 349.70,15.95 L 347.86,15.77 L 348.93,14.79 L 346.13,15.44 L 347.96,16.60 L 345.64,18.67 L 347.57,20.01 L 348.51,19.11 L 348.76,20.82 L 346.79,20.95 L 347.54,22.52 L 343.18,23.04 L 342.28,20.95 L 342.34,22.45 L 340.51,22.25 L 341.73,24.39 L 344.04,24.57 L 341.81,26.17 L 341.41,28.70 L 340.18,29.22 L 337.90,25.77 L 337.42,27.54 L 333.98,28.77 L 332.89,25.89 L 331.97,27.96 L 329.46,28.56 L 331.00,29.26 L 330.33,30.59 L 326.06,30.18 L 328.21,31.74 L 330.72,31.33 L 330.22,32.85 L 331.60,32.57 L 332.26,34.08 L 328.21,35.51 L 327.96,38.52 L 325.26,40.81 L 326.19,38.64 L 323.76,37.86 L 324.28,39.93 L 322.37,44.04 L 321.99,40.89 L 319.13,40.06 L 320.49,42.23 L 316.55,43.18 L 316.18,46.35 L 315.67,44.88 L 312.98,47.58 L 312.69,45.67 L 309.88,45.45 L 307.22,51.40 L 302.60,50.09 L 303.52,51.89 L 306.77,51.84 L 307.81,53.55 L 305.26,52.69 L 306.15,53.40 L 304.88,54.94 L 304.23,53.50 L 302.33,53.59 L 304.10,54.05 L 302.07,59.18 L 296.87,58.36 L 298.12,58.83 L 295.60,60.92 L 293.70,59.31 L 294.33,60.54 L 289.40,62.85 L 287.07,60.35 L 287.93,59.28 L 284.78,60.89 L 284.55,60.02 L 281.93,59.46 L 283.07,60.89 L 284.76,61.14 L 285.74,60.62 L 284.16,62.45 L 285.06,64.33 L 281.32,63.84 L 282.02,62.05 L 278.73,62.05 L 280.03,59.87 L 274.14,63.93 L 271.87,62.53 L 273.79,64.17 L 272.49,66.62 L 269.67,65.45 L 270.25,61.53 L 265.57,63.61 L 265.28,64.74 L 266.83,64.79 L 265.07,66.35 L 267.34,67.26 L 265.45,68.42 L 263.23,65.37 L 257.14,66.46 L 257.14,0.00 L 351.57,0.00 L 353.00,1.71 Z M 313.80,50.45 L 310.37,49.87 L 311.09,49.31 L 313.80,50.45 Z M 321.17,43.98 L 319.41,46.97 L 317.35,47.14 L 318.32,43.48 L 321.17,43.98 Z M 355.85,1.16 L 355.92,1.50 L 353.20,1.06 L 352.68,0.00 L 353.03,0.00 L 353.20,0.18 L 355.85,1.16 Z M 333.28,28.89 L 332.45,30.90 L 331.22,30.31 L 331.64,28.49 L 333.28,28.89 Z M 362.44,12.38 L 360.80,10.81 L 362.83,10.16 L 361.25,8.79 L 362.56,7.55 L 364.09,9.89 L 362.44,12.38 Z M 261.51,76.16 L 259.73,76.53 L 261.54,75.70 L 261.51,76.16 Z M 311.19,48.08 L 310.26,48.04 L 310.24,47.87 L 311.19,48.08 Z M 358.22,16.93 L 356.66,15.72 L 357.13,15.28 L 358.22,16.93 Z M 354.63,11.75 L 353.92,12.04 L 353.64,10.90 L 354.84,9.31 L 354.63,11.75 Z" fill="#E8E0D0" stroke="#B8B0A0" stroke-width="0.5"/>
<path d="M 279.46,406.61 L 280.82,412.74 L 276.11,411.00 L 274.96,403.12 L 277.12,401.45 L 279.46,406.61 Z M 269.64,404.85 L 271.56,411.20 L 270.10,416.19 L 267.52,418.38 L 263.68,413.76 L 261.14,413.67 L 260.45,409.56 L 257.14,407.91 L 257.14,407.26 L 261.95,407.18 L 276.29,398.77 L 269.64,404.85 Z" fill="#E8E0D0" stroke="#B8B0A0" stroke-width="0.5"/>
<path d="M 262.11,67.40 L 259.01,68.51 L 259.78,69.45 L 261.90,67.90 L 263.30,68.74 L 262.52,70.70 L 260.69,70.14 L 261.40,72.11 L 257.14,70.47 L 257.14,67.83 L 260.16,66.46 L 262.11,67.40 Z M 257.96,73.65 L 257.88,72.54 L 258.77,73.15 L 257.96,73.65 Z M 260.65,73.15 L 259.75,73.42 L 257.99,71.86 L 259.90,71.59 L 260.65,73.15 Z" fill="#E8E0D0" stroke="#B8B0A0" stroke-width="0.5"/>
<path d="M 400.37,24.27 L 401.76,27.70 L 396.68,37.59 L 392.84,55.27 L 384.48,67.02 L 382.48,78.83 L 380.15,78.20 L 378.43,71.41 L 376.41,68.95 L 373.98,67.83 L 373.06,67.15 L 372.21,66.00 L 373.11,67.03 L 370.01,57.43 L 367.95,57.20 L 369.98,51.17 L 370.35,43.52 L 386.54,19.11 L 393.64,17.48 L 393.51,15.49 L 396.18,14.70 L 404.04,20.03 L 400.37,24.27 Z M 396.31,76.75 L 394.54,75.46 L 395.92,75.46 L 396.31,76.75 Z M 338.50,30.86 L 335.18,31.43 L 335.14,29.99 L 337.22,29.13 L 338.50,30.86 Z M 360.80,47.61 L 358.86,48.23 L 358.18,47.78 L 360.42,46.58 L 360.80,47.61 Z M 357.71,45.69 L 357.53,47.19 L 356.61,47.36 L 357.71,45.69 Z M 358.52,45.41 L 358.91,45.14 L 359.46,45.63 L 358.52,45.41 Z M 393.90,64.18 L 394.74,64.31 L 394.62,64.97 L 393.90,64.18 Z M 369.07,47.63 L 369.24,47.58 L 367.07,49.82 L 369.07,47.63 Z" fill="#E8E0D0" stroke="#B8B0A0" stroke-width="0.5"/>
<path d="M 439.74,32.07 L 438.60,34.15 L 434.81,33.42 L 437.52,31.61 L 439.74,32.07 Z M 422.42,30.71 L 421.31,30.62 L 421.62,30.07 L 422.42,30.71 Z M 445.43,32.15 L 443.55,32.56 L 442.40,30.78 L 444.87,30.57 L 447.04,27.97 L 445.43,32.15 Z M 467.83,24.91 L 464.24,25.13 L 464.27,22.25 L 467.83,24.91 Z M 463.25,23.77 L 462.05,23.55 L 462.48,22.83 L 463.25,23.77 Z M 433.56,6.03 L 433.60,5.92 L 433.66,6.04 L 433.56,6.03 Z M 432.23,5.61 L 431.91,5.68 L 432.28,5.39 L 432.23,5.61 Z M 434.88,2.46 L 434.88,2.42 L 434.90,2.44 L 434.88,2.46 Z" fill="#E8E0D0" stroke="#B8B0A0" stroke-width="0.5"/>
<path d="M 281.18,300.26 L 281.22,300.26 L 281.21,300.29 L 281.18,300.26 Z M 262.91,310.64 L 262.96,310.65 L 262.87,310.87 L 262.91,310.64 Z M 262.54,301.40 L 262.63,301.25 L 262.78,301.38 L 262.54,301.40 Z M 264.45,297.74 L 264.55,297.62 L 264.62,297.74 L 264.45,297.74 Z M 262.55,297.73 L 262.58,297.62 L 262.71,297.76 L 262.55,297.73 Z M 264.23,297.32 L 264.33,297.26 L 264.42,297.35 L 264.23,297.32 Z M 289.82,290.99 L 289.49,291.07 L 289.49,290.86 L 289.82,290.99 Z M 289.84,289.16 L 289.76,289.01 L 290.05,289.02 L 289.84,289.16 Z M 260.95,284.95 L 261.14,284.86 L 261.22,284.94 L 260.95,284.95 Z M 274.67,283.78 L 274.60,283.62 L 274.80,283.58 L 274.67,283.78 Z M 262.57,309.17 L 262.62,309.19 L 262.59,309.22 L 262.57,309.17 Z" fill="#E8E0D0" stroke="#B8B0A0" stroke-width="0.5"/>
<path d="M 325.40,207.01 L 325.37,207.04 L 325.33,207.01 L 325.40,207.01 Z" fill="#E8E0D0" stroke="#B8B0A0" stroke-width="0.5"/>
<path d="M 383.67,389.50 L 383.55,390.25 L 382.18,389.58 L 383.67,389.50 Z M 401.31,380.69 L 399.81,379.26 L 401.55,380.10 L 401.31,380.69 Z M 473.83,363.76 L 471.93,360.42 L 472.70,358.03 L 473.83,363.76 Z M 419.52,356.16 L 418.75,355.66 L 419.27,353.57 L 421.92,354.47 L 419.52,356.16 Z M 389.78,312.50 L 389.34,312.85 L 390.22,311.54 L 389.78,312.50 Z M 477.66,312.60 L 476.98,313.04 L 476.75,309.36 L 477.66,312.60 Z M 489.29,356.85 L 486.58,361.69 L 483.69,362.72 L 484.24,365.80 L 482.45,363.28 L 481.14,363.57 L 482.72,366.59 L 481.66,375.36 L 479.72,370.97 L 479.42,364.74 L 477.65,363.25 L 475.24,355.37 L 471.82,356.87 L 466.44,367.93 L 470.37,371.26 L 472.39,379.96 L 466.32,388.84 L 462.81,384.56 L 464.60,381.13 L 464.09,378.97 L 462.38,378.67 L 461.10,382.92 L 458.78,383.42 L 444.68,376.52 L 441.97,372.42 L 441.63,365.55 L 440.31,364.93 L 441.50,359.56 L 444.35,357.45 L 445.52,354.08 L 442.16,350.31 L 435.47,346.39 L 430.67,346.54 L 431.43,349.15 L 428.99,350.89 L 430.42,354.75 L 427.63,351.88 L 425.05,352.01 L 425.90,349.86 L 424.63,347.68 L 422.57,352.78 L 420.91,351.36 L 419.15,353.03 L 419.02,347.64 L 415.39,347.06 L 410.38,353.16 L 410.84,354.67 L 406.80,363.11 L 404.64,363.32 L 402.07,360.66 L 406.64,350.57 L 405.88,347.12 L 408.60,343.14 L 416.51,339.65 L 421.43,339.70 L 423.22,333.46 L 428.33,332.64 L 430.52,330.44 L 429.79,329.04 L 431.94,329.50 L 433.20,331.70 L 433.86,330.04 L 436.49,331.24 L 438.08,334.18 L 438.78,339.65 L 434.96,343.46 L 440.37,339.58 L 445.25,338.73 L 448.46,331.23 L 453.12,333.00 L 452.73,334.57 L 454.89,333.27 L 455.93,323.61 L 461.41,327.02 L 462.92,326.14 L 463.32,322.14 L 465.22,323.89 L 469.01,323.48 L 469.43,319.86 L 466.83,310.86 L 467.96,308.16 L 470.36,309.46 L 471.36,312.18 L 477.46,314.67 L 476.31,316.10 L 477.85,316.23 L 479.03,319.12 L 482.03,317.98 L 481.27,322.02 L 484.35,326.57 L 482.67,329.76 L 480.00,331.24 L 480.89,332.75 L 485.46,333.42 L 484.22,338.69 L 486.46,338.21 L 486.58,340.95 L 485.05,344.94 L 488.74,348.09 L 489.29,356.85 Z M 464.52,306.34 L 462.00,301.66 L 463.70,302.50 L 464.52,306.34 Z M 447.95,292.88 L 446.21,293.34 L 447.01,291.44 L 447.95,292.88 Z M 450.36,292.62 L 448.52,292.50 L 448.51,291.82 L 450.36,292.62 Z M 473.69,291.51 L 472.17,289.52 L 472.99,289.46 L 474.67,290.86 L 473.69,291.51 Z M 360.42,285.53 L 359.77,285.66 L 359.16,283.96 L 360.42,285.53 Z M 360.04,282.54 L 358.98,283.08 L 359.03,282.42 L 360.04,282.54 Z M 452.22,276.58 L 449.70,276.82 L 447.41,272.91 L 450.63,272.79 L 452.22,276.58 Z M 456.34,275.64 L 454.51,272.12 L 455.56,272.82 L 456.34,275.64 Z M 409.62,148.17 L 407.08,151.04 L 406.45,157.93 L 408.59,165.09 L 411.61,165.87 L 411.65,169.16 L 413.73,170.21 L 407.72,182.66 L 407.71,186.42 L 403.90,190.32 L 406.44,185.96 L 395.94,192.51 L 397.08,197.34 L 392.65,202.72 L 392.67,204.84 L 398.85,215.00 L 396.69,216.91 L 398.98,225.30 L 402.76,228.97 L 408.23,230.65 L 407.34,229.08 L 409.75,228.56 L 407.80,227.21 L 406.96,225.69 L 408.82,224.18 L 409.50,227.13 L 411.64,222.71 L 415.86,223.47 L 416.52,222.22 L 423.23,227.01 L 424.45,234.15 L 428.03,232.87 L 428.65,229.21 L 427.81,230.12 L 426.48,229.01 L 428.59,226.98 L 430.17,230.65 L 430.67,229.60 L 435.05,231.06 L 435.61,230.12 L 439.80,232.97 L 440.31,234.29 L 433.00,234.13 L 432.19,236.35 L 438.28,243.52 L 436.65,243.60 L 436.25,246.64 L 438.78,245.08 L 442.46,247.68 L 444.37,246.77 L 441.97,256.64 L 438.70,254.59 L 437.13,251.06 L 441.00,250.14 L 441.42,248.70 L 438.98,248.33 L 435.87,250.80 L 435.37,249.17 L 433.64,249.89 L 430.61,247.16 L 428.18,247.62 L 428.01,243.39 L 425.57,239.33 L 419.84,236.35 L 419.90,234.67 L 413.88,229.61 L 411.59,229.86 L 416.39,240.66 L 416.72,243.52 L 414.82,244.55 L 410.78,237.42 L 398.85,229.46 L 394.40,231.69 L 394.03,234.67 L 390.60,236.56 L 386.16,235.84 L 385.51,233.03 L 383.35,234.69 L 383.16,230.54 L 379.98,230.25 L 378.95,232.97 L 377.55,225.56 L 384.89,219.35 L 384.38,216.47 L 382.49,214.42 L 378.81,213.93 L 378.43,212.30 L 377.92,213.34 L 377.77,211.74 L 376.86,215.15 L 377.82,220.01 L 374.37,220.22 L 373.73,217.09 L 371.42,215.02 L 372.34,213.20 L 370.81,212.17 L 370.18,214.50 L 368.41,213.61 L 367.03,204.78 L 364.86,201.75 L 366.26,200.13 L 364.48,195.79 L 364.99,193.30 L 362.42,191.96 L 363.27,184.12 L 365.39,183.68 L 365.12,186.15 L 368.56,187.92 L 369.50,190.03 L 372.47,190.58 L 374.37,187.77 L 372.04,179.29 L 375.01,171.77 L 375.14,164.55 L 373.11,161.37 L 377.65,146.77 L 377.48,143.42 L 381.20,142.29 L 381.98,140.71 L 384.09,142.20 L 387.41,140.74 L 397.46,146.98 L 397.37,145.93 L 403.70,147.43 L 406.77,143.10 L 409.44,145.28 L 409.62,148.17 Z M 370.94,397.53 L 369.17,395.58 L 363.59,398.58 L 363.64,397.24 L 370.41,393.16 L 371.60,394.66 L 370.94,397.53 Z M 377.62,375.96 L 376.09,376.00 L 376.04,375.66 L 377.82,373.50 L 377.62,375.96 Z M 407.43,372.17 L 403.24,373.05 L 400.37,368.98 L 405.17,366.67 L 409.43,368.71 L 407.43,372.17 Z M 339.23,362.29 L 337.83,361.40 L 339.37,360.85 L 339.23,362.29 Z M 313.03,345.19 L 311.60,346.56 L 310.71,341.59 L 312.99,341.67 L 313.03,345.19 Z M 311.34,340.81 L 312.26,340.19 L 312.68,341.13 L 311.34,340.81 Z M 314.93,339.41 L 315.23,339.82 L 314.41,339.79 L 314.93,339.41 Z M 318.07,338.61 L 316.78,339.27 L 316.59,336.86 L 318.07,338.61 Z M 316.30,337.05 L 314.94,337.79 L 315.91,336.25 L 316.30,337.05 Z M 455.20,322.32 L 452.73,320.32 L 454.06,319.04 L 455.46,319.99 L 455.20,322.32 Z M 434.15,321.92 L 431.16,320.26 L 434.33,318.21 L 435.36,320.65 L 434.15,321.92 Z M 478.86,309.46 L 477.33,307.65 L 479.28,303.68 L 481.03,308.05 L 478.86,309.46 Z M 451.98,309.79 L 450.20,309.20 L 446.39,312.27 L 439.79,312.06 L 437.27,309.40 L 438.84,306.42 L 445.07,301.92 L 448.29,301.92 L 451.64,304.16 L 451.98,309.79 Z M 471.73,306.91 L 470.50,303.10 L 468.62,302.74 L 469.12,298.79 L 471.25,296.06 L 472.77,306.48 L 471.73,306.91 Z M 366.64,294.72 L 363.02,296.13 L 362.36,294.56 L 363.93,292.70 L 366.64,294.72 Z M 416.65,295.20 L 413.87,296.84 L 412.87,295.25 L 413.87,293.27 L 417.10,290.86 L 416.65,295.20 Z M 425.35,307.32 L 424.95,313.29 L 428.32,318.91 L 426.70,321.74 L 423.06,323.12 L 419.58,317.20 L 414.15,314.47 L 411.39,310.51 L 411.25,307.79 L 412.72,305.29 L 417.04,305.06 L 420.09,302.90 L 419.02,295.03 L 421.92,291.11 L 422.33,287.59 L 427.25,285.92 L 432.10,287.34 L 433.08,289.03 L 425.35,307.32 Z M 441.23,297.73 L 434.52,303.60 L 431.32,313.37 L 428.51,316.04 L 429.61,305.30 L 435.83,295.42 L 441.79,280.56 L 441.23,297.73 Z M 436.02,282.89 L 436.25,280.27 L 436.53,280.53 L 437.27,282.42 L 436.02,282.89 Z M 361.85,294.96 L 359.08,297.58 L 353.72,299.84 L 352.06,303.73 L 344.25,306.05 L 344.32,309.85 L 342.89,309.06 L 343.92,311.11 L 336.68,320.12 L 332.46,321.30 L 330.18,325.92 L 325.40,329.67 L 321.89,330.22 L 320.91,333.15 L 314.95,336.35 L 316.30,331.19 L 323.55,322.69 L 332.40,317.27 L 344.20,302.32 L 344.35,303.73 L 345.33,303.22 L 345.02,301.22 L 348.89,298.93 L 348.47,297.26 L 350.66,295.54 L 350.93,297.44 L 353.57,295.16 L 354.81,291.07 L 352.55,286.93 L 357.08,290.90 L 354.35,285.80 L 354.63,283.87 L 356.11,284.75 L 355.61,282.28 L 357.72,277.78 L 359.02,285.53 L 357.77,288.00 L 359.58,289.15 L 361.85,294.96 Z M 363.84,278.64 L 361.68,277.08 L 363.84,277.08 L 364.48,276.03 L 363.84,278.64 Z M 464.27,299.85 L 462.06,299.51 L 462.25,301.28 L 459.29,297.56 L 460.04,304.42 L 455.39,301.92 L 455.36,289.21 L 452.47,285.78 L 450.47,288.22 L 448.28,287.07 L 448.43,280.08 L 446.51,275.52 L 452.61,280.04 L 456.60,277.60 L 459.02,278.38 L 458.97,280.56 L 460.23,281.11 L 459.71,290.48 L 463.05,293.36 L 464.27,299.85 Z M 424.88,282.35 L 418.55,286.28 L 417.72,289.70 L 408.13,292.61 L 403.01,296.58 L 402.78,290.08 L 404.78,285.49 L 405.92,273.33 L 405.50,272.06 L 401.24,271.21 L 402.03,268.85 L 403.27,268.09 L 410.92,271.90 L 415.46,276.16 L 417.35,274.21 L 419.31,274.33 L 421.42,275.90 L 420.61,277.51 L 425.47,274.47 L 424.88,282.35 Z M 368.41,270.84 L 366.32,273.21 L 367.02,270.97 L 365.62,271.10 L 364.23,267.70 L 367.39,268.87 L 368.41,270.84 Z M 372.97,266.93 L 371.33,267.07 L 369.56,266.28 L 369.04,267.46 L 366.95,266.63 L 364.99,262.90 L 364.11,263.67 L 364.81,260.71 L 370.56,264.71 L 371.18,262.69 L 372.97,266.93 Z M 415.26,261.59 L 411.77,258.05 L 415.64,257.64 L 416.66,259.19 L 415.26,261.59 Z M 473.53,285.39 L 471.51,282.98 L 464.02,284.07 L 462.64,280.79 L 459.47,280.32 L 459.58,277.73 L 456.28,276.16 L 459.04,274.57 L 460.26,271.44 L 457.46,271.37 L 453.53,266.27 L 450.08,264.98 L 446.19,256.01 L 453.52,257.04 L 462.53,255.86 L 464.49,257.37 L 465.92,259.26 L 465.28,261.21 L 469.41,263.36 L 467.96,264.45 L 469.17,265.76 L 467.70,267.84 L 468.08,274.21 L 471.25,278.83 L 469.72,281.80 L 471.09,281.33 L 473.53,285.39 Z M 441.96,272.05 L 436.19,268.22 L 431.43,262.70 L 425.40,268.40 L 427.90,262.71 L 426.48,262.51 L 426.79,255.59 L 429.04,256.41 L 428.49,258.52 L 430.48,256.99 L 437.13,263.29 L 437.16,262.15 L 438.91,262.90 L 441.88,267.39 L 440.94,266.68 L 441.96,272.05 Z M 409.70,256.65 L 409.12,257.83 L 408.49,256.00 L 409.70,256.65 Z M 406.83,254.84 L 404.17,264.85 L 402.54,260.40 L 403.86,255.59 L 406.83,254.84 Z M 433.24,254.99 L 433.72,253.79 L 436.00,255.61 L 437.02,259.71 L 433.24,254.99 Z M 429.40,253.67 L 421.42,245.74 L 423.18,245.42 L 429.40,253.67 Z M 392.76,261.34 L 389.97,262.77 L 387.54,262.07 L 388.08,260.95 L 385.09,258.81 L 381.70,252.99 L 379.24,244.90 L 376.46,243.48 L 375.31,239.88 L 373.00,240.32 L 372.88,238.60 L 385.02,237.79 L 387.69,240.79 L 389.08,239.49 L 393.51,245.08 L 395.67,245.74 L 394.38,247.58 L 395.17,253.47 L 392.76,261.34 Z M 404.10,243.97 L 400.49,241.17 L 401.33,237.12 L 403.90,237.40 L 405.82,239.95 L 404.10,243.97 Z M 368.94,233.11 L 368.52,231.52 L 371.33,232.58 L 371.76,234.35 L 368.94,233.11 Z M 447.14,237.27 L 445.61,236.48 L 444.42,237.93 L 441.83,236.35 L 443.48,227.39 L 444.94,227.23 L 446.65,230.65 L 448.68,231.29 L 447.14,237.27 Z M 407.22,228.74 L 402.58,224.67 L 403.28,224.58 L 407.22,228.74 Z M 408.42,214.90 L 405.90,212.85 L 407.71,212.95 L 408.42,214.90 Z M 405.01,210.21 L 403.35,211.74 L 404.38,215.16 L 402.83,216.72 L 400.73,209.66 L 405.01,210.21 Z M 394.28,136.20 L 390.60,136.58 L 390.62,136.23 L 394.28,136.20 Z M 403.74,134.93 L 400.87,137.11 L 401.95,134.03 L 403.74,134.93 Z M 390.10,132.42 L 389.97,133.61 L 388.96,132.30 L 389.34,130.61 L 390.10,132.42 Z M 394.66,129.04 L 391.93,126.83 L 395.00,126.49 L 394.66,129.04 Z M 403.54,124.49 L 402.06,123.77 L 402.10,123.35 L 403.52,123.00 L 403.54,124.49 Z M 401.97,109.03 L 401.52,109.74 L 401.18,109.79 L 401.01,108.41 L 401.97,109.03 Z M 403.41,107.99 L 402.50,108.26 L 403.31,106.24 L 404.12,105.71 L 403.41,107.99 Z M 400.79,101.71 L 399.99,101.63 L 401.27,99.07 L 400.79,101.71 Z M 357.75,404.19 L 356.88,406.25 L 356.49,401.56 L 357.75,404.19 Z M 389.71,384.51 L 387.94,384.39 L 388.45,383.62 L 389.71,384.51 Z M 393.20,381.72 L 390.85,383.41 L 389.65,381.83 L 384.22,382.90 L 383.07,381.47 L 386.22,378.89 L 393.20,381.72 Z M 397.07,369.56 L 396.84,370.07 L 396.22,368.74 L 397.07,368.25 L 397.07,369.56 Z M 387.05,289.17 L 385.76,288.97 L 386.03,288.28 L 387.19,287.80 L 387.05,289.17 Z M 371.81,268.43 L 371.89,270.33 L 370.69,267.83 L 371.81,268.43 Z M 392.55,266.82 L 392.07,264.66 L 392.24,264.74 L 392.55,266.82 Z M 366.20,326.12 L 366.16,326.12 L 366.19,326.05 L 366.20,326.12 Z M 366.35,325.99 L 366.41,326.02 L 366.36,326.05 L 366.35,325.99 Z M 366.31,325.96 L 366.28,325.97 L 366.25,325.93 L 366.31,325.96 Z M 366.35,325.87 L 366.33,325.89 L 366.30,325.85 L 366.35,325.87 Z M 398.37,249.65 L 398.18,248.86 L 398.73,248.86 L 398.37,249.65 Z M 386.77,237.68 L 386.24,237.08 L 387.02,237.02 L 386.77,237.68 Z M 402.64,94.77 L 402.74,94.61 L 402.77,94.75 L 402.64,94.77 Z M 403.10,93.75 L 403.00,93.97 L 402.97,93.79 L 403.10,93.75 Z M 364.23,403.35 L 364.30,403.54 L 363.59,403.44 L 364.23,403.35 Z M 363.21,402.00 L 363.11,401.20 L 364.02,401.52 L 363.21,402.00 Z M 362.23,398.88 L 363.20,397.42 L 363.46,398.39 L 362.23,398.88 Z M 467.20,392.72 L 465.64,392.36 L 466.43,391.53 L 467.20,392.72 Z M 383.27,386.71 L 381.72,387.04 L 381.87,386.51 L 383.27,386.71 Z M 384.13,385.80 L 383.77,386.43 L 383.42,386.24 L 384.13,385.80 Z M 437.33,313.15 L 435.89,312.64 L 436.91,311.95 L 438.01,311.59 L 437.33,313.15 Z M 452.01,303.02 L 450.75,303.50 L 450.61,302.68 L 452.01,303.02 Z M 395.17,269.75 L 393.07,269.87 L 393.31,269.47 L 395.17,269.75 Z M 445.19,265.63 L 443.73,266.01 L 444.01,265.41 L 445.19,265.63 Z M 386.39,262.64 L 386.55,261.55 L 387.07,261.77 L 387.58,263.10 L 386.39,262.64 Z M 443.49,258.53 L 443.42,257.90 L 444.22,258.62 L 443.49,258.53 Z M 442.76,244.20 L 442.16,243.86 L 444.83,244.14 L 442.76,244.20 Z M 441.42,243.64 L 439.33,242.38 L 441.83,242.56 L 441.42,243.64 Z M 438.61,243.50 L 438.15,241.13 L 439.51,241.59 L 438.61,243.50 Z M 436.79,240.42 L 436.72,240.20 L 438.09,240.87 L 436.79,240.42 Z M 411.30,215.85 L 409.85,215.90 L 410.26,215.35 L 411.30,215.85 Z M 366.80,186.54 L 365.50,185.14 L 366.64,184.29 L 366.80,186.54 Z M 441.76,298.65 L 439.71,299.97 L 439.98,298.98 L 441.76,298.65 Z" fill="#4A90D9" stroke="#1a5fa8" stroke-width="1.2"/>
<path d="M 389.27,225.39 L 386.59,220.07 L 387.77,218.91 L 389.59,220.88 L 390.65,219.13 L 391.34,223.07 L 394.21,221.76 L 389.27,225.39 Z" fill="#A8C8E8" stroke="none"/>
<path d="M 301.19,500.00 L 300.18,500.00 L 301.00,497.95 L 302.50,498.89 L 301.19,500.00 Z M 299.35,499.26 L 299.86,500.00 L 298.45,500.00 L 299.35,499.26 Z" fill="#A8C8E8" stroke="none"/>
<path d="M 386.27,228.66 L 384.80,229.68 L 384.18,227.54 L 386.27,228.66 Z" fill="#A8C8E8" stroke="none"/>
<path d="M 269.37,40.98 L 266.71,43.19 L 267.53,44.14 L 263.12,43.89 L 265.78,42.73 L 264.82,41.24 L 264.42,42.29 L 262.53,42.16 L 265.66,40.39 L 265.57,37.35 L 267.18,38.80 L 265.32,41.21 L 266.40,42.22 L 269.37,40.98 Z" fill="#A8C8E8" stroke="none"/>
</svg>