<svg xmlns="http://www.w3.org/2000/svg" width="800" height="500" viewBox="0 0 800 500">
<rect width="800" height="500" fill="#A8C8E8"/>
<path d="M 145.68,369.48 L 143.17,370.68 L 142.94,369.74 L 143.99,367.97 L 145.68,369.48 Z M 144.44,369.74 L 144.55,369.35 L 144.08,369.14 L 144.44,369.74 Z M 142.94,346.17 L 143.02,347.46 L 146.89,347.30 L 144.96,347.14 L 146.08,343.29 L 148.84,343.93 L 146.78,346.04 L 148.57,346.82 L 147.45,347.14 L 148.42,348.91 L 145.37,348.28 L 145.51,349.71 L 148.28,350.02 L 146.41,351.43 L 147.88,353.56 L 146.48,354.05 L 144.37,361.04 L 141.66,360.02 L 142.44,351.98 L 140.30,350.90 L 142.94,346.17 Z M 151.07,387.50 L 161.97,400.19 L 185.50,407.97 L 190.88,407.36 L 194.47,409.82 L 209.68,432.75 L 215.92,433.98 L 215.66,440.33 L 206.22,458.87 L 200.37,462.80 L 192.82,473.29 L 193.79,474.73 L 191.04,477.61 L 189.56,482.92 L 188.09,484.28 L 183.19,483.20 L 184.43,478.92 L 183.25,478.32 L 176.19,486.57 L 172.82,499.03 L 172.97,500.00 L 138.39,500.00 L 138.39,397.28 L 138.69,397.20 L 138.39,396.45 L 138.39,379.37 L 140.73,382.02 L 146.47,376.22 L 151.07,387.50 Z M 138.85,376.74 L 139.32,378.96 L 138.39,378.85 L 138.39,376.84 L 138.85,376.74 Z M 198.27,480.76 L 192.26,488.68 L 192.18,484.04 L 197.38,476.34 L 198.27,480.76 Z" fill="#E8E0D0" stroke="#B8B0A0" stroke-width="0.5"/>
<path d="M 456.72,27.12 L 454.87,26.25 L 455.19,25.90 L 457.29,25.09 L 456.72,27.12 Z M 433.81,20.18 L 431.83,16.81 L 428.75,16.32 L 428.72,13.73 L 436.74,7.60 L 434.12,6.83 L 435.49,5.97 L 430.25,0.85 L 428.59,0.70 L 426.91,4.32 L 415.02,10.12 L 411.35,6.73 L 408.24,6.60 L 407.32,10.92 L 405.08,11.60 L 407.39,16.83 L 405.28,17.87 L 406.83,20.29 L 392.62,21.01 L 400.81,22.71 L 396.53,22.98 L 398.67,27.70 L 396.21,25.31 L 396.78,27.62 L 395.86,29.07 L 393.53,28.37 L 391.34,35.41 L 375.20,33.66 L 369.34,37.09 L 367.78,43.10 L 374.19,45.16 L 374.65,48.49 L 382.93,48.73 L 384.38,51.86 L 382.24,53.20 L 382.01,59.09 L 388.08,66.66 L 385.92,72.83 L 383.36,73.78 L 377.45,82.68 L 376.47,90.61 L 370.87,88.43 L 365.95,90.69 L 360.84,86.03 L 351.02,86.51 L 351.01,76.72 L 353.13,71.78 L 338.05,65.25 L 332.55,66.08 L 306.98,48.92 L 303.21,49.43 L 294.31,43.78 L 289.63,38.82 L 268.95,24.64 L 266.94,14.78 L 262.52,11.34 L 257.94,0.00 L 381.34,0.00 L 381.59,0.46 L 383.55,0.77 L 380.71,5.88 L 390.21,11.18 L 393.29,10.60 L 392.42,3.48 L 397.10,0.00 L 464.90,0.00 L 464.95,1.48 L 467.85,0.00 L 468.66,0.00 L 474.90,4.57 L 484.69,5.35 L 477.44,9.19 L 474.24,12.91 L 468.72,10.77 L 469.57,15.74 L 464.96,14.22 L 460.74,17.47 L 462.00,19.24 L 458.32,19.02 L 455.71,21.48 L 454.12,18.80 L 451.96,20.09 L 446.56,17.26 L 433.81,20.18 Z M 432.59,1.59 L 434.27,2.98 L 433.70,1.61 L 432.59,1.59 Z M 446.36,23.76 L 444.96,24.99 L 445.64,27.45 L 441.88,27.64 L 442.36,25.04 L 440.51,22.61 L 441.61,21.16 L 446.36,23.76 Z" fill="#E8E0D0" stroke="#B8B0A0" stroke-width="0.5"/>
<path d="M 392.42,3.48 L 393.29,10.60 L 390.21,11.18 L 380.71,5.88 L 383.55,0.77 L 381.59,0.46 L 381.34,0.00 L 397.10,0.00 L 392.42,3.48 Z" fill="#E8E0D0" stroke="#B8B0A0" stroke-width="0.5"/>
<path d="M 433.70,1.61 L 434.27,2.98 L 432.59,1.59 L 433.70,1.61 Z M 434.70,22.42 L 430.89,27.17 L 431.86,24.06 L 421.35,19.97 L 411.53,21.93 L 411.20,26.67 L 409.26,27.28 L 407.41,25.16 L 405.93,28.85 L 406.85,35.62 L 420.83,35.74 L 425.31,33.75 L 425.76,36.10 L 430.89,34.18 L 433.81,35.06 L 436.80,39.31 L 440.98,39.01 L 443.37,36.26 L 450.71,33.93 L 451.79,37.51 L 456.37,37.76 L 456.60,41.83 L 462.62,39.61 L 466.24,43.82 L 468.00,40.55 L 472.09,39.46 L 485.18,39.93 L 493.99,37.49 L 494.06,43.39 L 498.47,48.78 L 495.54,51.21 L 498.27,57.91 L 502.56,59.30 L 504.47,55.97 L 508.72,56.03 L 518.78,60.79 L 517.93,69.73 L 521.45,77.07 L 519.98,81.01 L 525.47,85.65 L 519.98,89.62 L 515.30,85.81 L 508.35,85.04 L 496.11,89.95 L 493.85,88.90 L 496.71,87.11 L 497.00,85.00 L 487.78,84.15 L 477.57,89.87 L 474.89,94.35 L 466.86,95.79 L 458.32,102.06 L 454.61,102.35 L 450.14,93.46 L 453.50,74.01 L 446.65,73.35 L 448.66,65.76 L 440.44,60.57 L 434.67,62.15 L 430.75,68.81 L 426.53,73.05 L 424.73,72.89 L 426.97,78.54 L 424.44,82.36 L 419.62,80.59 L 411.34,81.48 L 408.71,84.79 L 410.00,89.79 L 407.61,92.19 L 406.03,92.59 L 398.81,87.12 L 399.38,88.50 L 397.76,87.33 L 397.45,89.16 L 394.39,88.51 L 381.56,96.77 L 376.56,92.77 L 377.45,82.68 L 383.36,73.78 L 385.92,72.83 L 388.08,66.66 L 382.01,59.09 L 382.24,53.20 L 384.38,51.86 L 382.93,48.73 L 374.65,48.49 L 374.19,45.16 L 367.78,43.10 L 370.56,35.66 L 375.20,33.66 L 391.34,35.41 L 393.53,28.37 L 395.86,29.07 L 396.78,27.62 L 396.21,25.31 L 398.67,27.70 L 396.53,22.98 L 400.81,22.71 L 392.62,21.01 L 406.83,20.29 L 405.28,17.87 L 407.39,16.83 L 405.08,11.60 L 407.32,10.92 L 408.24,6.60 L 411.35,6.73 L 415.56,9.97 L 426.91,4.32 L 428.59,0.70 L 436.74,7.60 L 428.72,13.73 L 428.75,16.32 L 431.83,16.81 L 433.81,20.18 L 440.61,19.28 L 434.70,22.42 Z M 435.36,28.16 L 435.48,29.01 L 432.99,30.31 L 431.32,27.61 L 435.36,28.16 Z" fill="#E8E0D0" stroke="#B8B0A0" stroke-width="0.5"/>
<path d="M 146.20,363.42 L 146.47,376.22 L 140.73,382.02 L 138.39,379.52 L 138.39,379.08 L 139.32,378.96 L 138.39,376.61 L 138.39,356.00 L 140.30,350.90 L 142.44,351.98 L 141.66,360.02 L 146.20,363.42 Z M 142.94,369.74 L 143.17,370.68 L 145.68,369.48 L 143.99,367.97 L 142.94,369.74 Z M 138.69,397.20 L 138.39,397.28 L 138.39,396.45 L 138.69,397.20 Z M 144.08,369.14 L 144.55,369.35 L 144.44,369.74 L 144.08,369.14 Z" fill="#E8E0D0" stroke="#B8B0A0" stroke-width="0.5"/>
<path d="M 584.21,0.54 L 559.71,1.15 L 555.41,6.96 L 554.86,10.55 L 549.00,16.71 L 547.26,14.53 L 535.92,18.03 L 533.46,10.05 L 526.07,14.53 L 518.83,12.88 L 517.87,15.01 L 519.37,17.22 L 516.22,17.10 L 508.71,22.66 L 501.30,24.07 L 498.41,29.40 L 500.50,34.37 L 498.36,37.29 L 491.42,37.37 L 485.18,39.93 L 472.09,39.46 L 468.00,40.55 L 466.24,43.82 L 462.62,39.61 L 456.60,41.83 L 456.37,37.76 L 451.79,37.51 L 450.71,33.93 L 443.37,36.26 L 440.98,39.01 L 436.80,39.31 L 433.81,35.06 L 430.89,34.18 L 425.76,36.10 L 425.31,33.75 L 423.93,35.38 L 407.14,36.18 L 405.64,30.68 L 407.34,25.21 L 409.26,27.28 L 411.20,26.67 L 411.53,21.93 L 421.35,19.97 L 431.86,24.06 L 430.89,27.17 L 434.70,22.42 L 440.01,20.86 L 441.34,18.62 L 446.56,17.26 L 451.96,20.09 L 454.12,18.80 L 455.71,21.48 L 458.32,19.02 L 462.00,19.24 L 460.74,17.47 L 464.96,14.22 L 469.57,15.74 L 468.72,10.77 L 474.24,12.91 L 477.44,9.19 L 484.80,5.82 L 474.90,4.57 L 468.66,0.00 L 584.76,0.00 L 584.21,0.54 Z M 455.19,25.90 L 454.87,26.25 L 456.72,27.12 L 457.29,25.09 L 455.19,25.90 Z M 441.61,21.16 L 440.51,22.61 L 442.36,25.04 L 441.88,27.64 L 445.64,27.45 L 444.96,24.99 L 446.36,23.76 L 441.61,21.16 Z M 432.99,30.31 L 435.48,29.01 L 435.36,28.16 L 431.32,27.61 L 432.99,30.31 Z M 464.95,1.48 L 464.90,0.00 L 467.85,0.00 L 464.95,1.48 Z" fill="#E8E0D0" stroke="#B8B0A0" stroke-width="0.5"/>
<path d="M 244.50,120.90 L 242.26,119.10 L 244.17,115.52 L 242.60,110.06 L 242.98,103.53 L 226.36,103.51 L 219.84,94.42 L 208.59,90.17 L 205.58,82.62 L 195.26,78.78 L 186.32,80.21 L 183.27,79.15 L 182.26,76.59 L 166.03,72.39 L 162.67,65.17 L 159.69,67.25 L 147.54,65.67 L 143.05,70.02 L 138.39,69.92 L 138.39,0.00 L 257.94,0.00 L 262.52,11.34 L 266.94,14.78 L 268.95,24.64 L 289.63,38.82 L 294.31,43.78 L 303.21,49.43 L 306.98,48.92 L 332.55,66.08 L 338.05,65.25 L 353.57,72.90 L 351.01,76.72 L 351.57,84.48 L 350.02,87.31 L 343.83,86.21 L 335.72,81.50 L 331.19,89.01 L 321.63,89.57 L 316.48,91.85 L 312.12,103.89 L 312.17,108.49 L 309.82,112.06 L 301.33,115.95 L 301.09,118.44 L 297.95,117.72 L 288.68,121.43 L 282.10,121.77 L 284.32,125.45 L 281.54,127.19 L 281.61,131.58 L 273.81,136.00 L 268.53,135.24 L 265.59,138.52 L 264.53,134.93 L 259.97,131.54 L 251.84,131.73 L 245.08,127.34 L 244.50,120.90 Z" fill="#E8E0D0" stroke="#B8B0A0" stroke-width="0.5"/>
<path d="M 660.51,309.03 L 651.23,301.78 L 649.22,302.54 L 646.66,297.09 L 641.33,295.23 L 634.27,289.66 L 632.91,292.39 L 629.71,290.86 L 623.69,284.54 L 628.27,277.42 L 627.37,272.40 L 630.83,268.00 L 630.50,264.42 L 640.89,253.84 L 643.37,254.34 L 645.21,258.36 L 647.61,258.57 L 650.30,255.08 L 651.06,250.01 L 653.52,251.08 L 655.63,249.01 L 661.61,250.28 L 661.61,308.57 L 660.51,309.03 Z" fill="#E8E0D0" stroke="#B8B0A0" stroke-width="0.5"/>
<path d="M 558.02,126.69 L 570.26,130.77 L 578.67,130.22 L 563.51,139.22 L 558.02,126.69 Z" fill="#E8E0D0" stroke="#B8B0A0" stroke-width="0.5"/>
<path d="M 512.82,95.91 L 509.93,95.16 L 502.69,99.34 L 497.39,97.55 L 485.67,97.90 L 465.93,101.42 L 457.04,107.19 L 457.23,109.14 L 453.76,107.70 L 452.70,110.75 L 445.94,115.48 L 444.89,117.78 L 448.63,119.98 L 451.84,125.40 L 451.38,127.55 L 453.41,128.96 L 453.97,132.21 L 452.13,134.77 L 454.31,137.37 L 450.91,142.98 L 443.06,149.46 L 442.76,152.13 L 440.57,152.75 L 443.90,156.85 L 442.70,163.93 L 431.79,166.63 L 418.69,164.79 L 418.17,166.91 L 420.40,170.98 L 423.64,171.83 L 424.38,176.74 L 427.20,181.13 L 421.15,185.61 L 410.92,187.92 L 410.71,191.94 L 408.67,193.92 L 409.67,196.66 L 405.78,201.16 L 407.11,213.44 L 401.89,219.62 L 397.12,221.27 L 394.53,217.25 L 389.35,217.05 L 391.99,217.74 L 390.95,218.41 L 383.69,216.08 L 380.21,220.44 L 372.20,222.98 L 373.06,225.76 L 376.26,226.14 L 376.15,227.56 L 367.70,230.51 L 361.43,229.85 L 359.57,228.01 L 354.60,230.79 L 351.64,235.91 L 347.93,237.17 L 345.94,244.69 L 346.70,253.03 L 344.96,257.41 L 347.41,259.78 L 344.48,262.61 L 321.09,269.52 L 309.82,268.81 L 303.66,270.82 L 301.91,273.11 L 291.47,270.51 L 269.45,272.61 L 236.49,262.08 L 255.82,238.95 L 256.31,235.02 L 253.50,226.64 L 236.04,223.80 L 235.09,211.34 L 236.21,206.16 L 230.82,187.22 L 230.91,185.05 L 238.04,176.56 L 229.78,173.66 L 229.40,161.94 L 232.44,158.02 L 237.42,157.74 L 233.57,153.12 L 238.58,150.27 L 240.96,146.14 L 242.61,139.42 L 241.70,135.80 L 243.41,134.78 L 245.08,127.34 L 251.84,131.73 L 259.97,131.54 L 264.53,134.93 L 265.59,138.52 L 268.53,135.24 L 273.81,136.00 L 281.61,131.58 L 281.54,127.19 L 284.32,125.45 L 282.10,121.77 L 288.68,121.43 L 297.95,117.72 L 301.09,118.44 L 301.33,115.95 L 309.82,112.06 L 315.89,96.46 L 315.89,92.26 L 321.63,89.57 L 331.19,89.01 L 335.72,81.50 L 346.48,87.28 L 360.84,86.03 L 365.95,90.69 L 370.87,88.43 L 375.78,89.66 L 376.32,92.45 L 381.30,96.76 L 394.39,88.51 L 397.45,89.16 L 397.76,87.33 L 399.38,88.50 L 398.81,87.12 L 407.37,92.28 L 410.00,89.79 L 408.71,84.79 L 411.34,81.48 L 419.62,80.59 L 424.44,82.36 L 426.97,78.54 L 424.73,72.89 L 426.53,73.05 L 430.75,68.81 L 434.67,62.15 L 440.44,60.57 L 448.66,65.76 L 446.65,73.35 L 453.50,74.01 L 450.14,93.46 L 454.61,102.35 L 458.32,102.06 L 466.86,95.79 L 474.89,94.35 L 477.57,89.87 L 487.78,84.15 L 497.00,85.00 L 496.71,87.11 L 493.85,88.90 L 496.11,89.95 L 508.35,85.04 L 515.30,85.81 L 519.98,89.62 L 518.00,90.02 L 516.54,88.06 L 509.41,91.12 L 512.82,95.91 Z" fill="#C8D8E8" stroke="#8BAABB" stroke-width="0.8"/>
<path d="M 598.47,175.66 L 597.25,165.33 L 597.43,163.34 L 602.40,160.12 L 602.40,157.96 L 596.11,152.88 L 588.67,150.59 L 582.72,135.52 L 583.59,130.31 L 580.34,131.72 L 578.67,130.22 L 570.26,130.77 L 560.80,128.17 L 553.86,124.23 L 553.18,120.70 L 545.69,122.95 L 544.15,118.93 L 540.32,116.93 L 542.63,113.03 L 541.86,107.59 L 539.31,103.33 L 535.27,100.78 L 530.87,101.51 L 528.48,96.69 L 524.18,95.16 L 519.58,97.20 L 517.97,94.67 L 512.92,94.52 L 509.70,92.06 L 516.54,88.06 L 518.00,90.02 L 519.98,89.62 L 525.47,85.65 L 519.98,81.01 L 521.45,77.07 L 517.93,69.73 L 518.84,60.99 L 508.72,56.03 L 504.47,55.97 L 502.56,59.30 L 498.27,57.91 L 495.54,51.21 L 498.47,48.78 L 494.06,43.39 L 494.56,37.76 L 498.71,37.12 L 500.40,34.63 L 498.32,29.86 L 501.51,23.83 L 508.71,22.66 L 516.22,17.10 L 519.37,17.22 L 517.87,15.01 L 518.83,12.88 L 526.07,14.53 L 533.46,10.05 L 535.92,18.03 L 547.26,14.53 L 548.66,16.82 L 554.64,10.89 L 555.41,6.96 L 559.71,1.15 L 584.21,0.54 L 584.76,0.00 L 661.61,0.00 L 661.61,250.28 L 655.63,249.01 L 653.52,251.08 L 651.06,250.01 L 650.30,255.08 L 647.61,258.57 L 645.21,258.36 L 642.75,252.79 L 635.09,248.00 L 626.69,245.67 L 627.73,241.80 L 626.23,240.21 L 624.32,240.40 L 619.70,236.27 L 614.54,236.81 L 610.98,234.82 L 605.53,225.11 L 604.29,224.58 L 601.28,229.06 L 597.73,228.16 L 596.81,223.44 L 599.22,221.16 L 596.24,217.35 L 597.72,212.82 L 591.94,206.61 L 590.46,199.17 L 597.57,197.25 L 598.27,201.18 L 601.74,203.88 L 604.40,203.31 L 605.16,200.93 L 609.34,198.12 L 611.83,199.47 L 615.40,194.93 L 609.61,188.72 L 612.08,182.73 L 604.86,181.86 L 598.47,175.66 Z" fill="#C8D8E8" stroke="#8BAABB" stroke-width="0.8"/>
<path d="M 580.34,131.72 L 583.59,130.31 L 582.72,135.52 L 588.67,150.59 L 596.11,152.88 L 601.89,157.03 L 602.40,160.12 L 597.43,163.34 L 598.86,177.03 L 604.39,181.67 L 612.08,182.73 L 609.61,188.72 L 615.27,194.08 L 611.83,199.47 L 609.34,198.12 L 605.16,200.93 L 604.40,203.31 L 601.74,203.88 L 598.27,201.18 L 597.57,197.25 L 590.46,199.17 L 591.94,206.61 L 597.72,212.82 L 596.24,217.35 L 599.22,221.16 L 596.81,223.44 L 597.73,228.16 L 601.28,229.06 L 604.29,224.58 L 605.53,225.11 L 610.98,234.82 L 614.54,236.81 L 620.04,236.43 L 627.59,241.59 L 626.69,245.67 L 635.09,248.00 L 643.30,253.78 L 640.57,254.08 L 630.50,264.42 L 630.83,268.00 L 627.37,272.40 L 628.27,277.42 L 625.73,279.57 L 623.79,285.96 L 629.71,290.86 L 632.91,292.39 L 634.27,289.66 L 641.33,295.23 L 646.66,297.09 L 649.22,302.54 L 651.23,301.78 L 660.51,309.03 L 661.61,308.57 L 661.61,500.00 L 476.32,500.00 L 476.40,497.82 L 475.30,498.60 L 474.72,496.13 L 480.72,474.90 L 479.79,472.36 L 478.51,473.12 L 479.55,469.68 L 477.20,468.72 L 478.77,468.15 L 477.95,466.24 L 474.03,466.80 L 476.44,464.62 L 473.01,460.25 L 476.69,458.68 L 473.40,459.51 L 478.23,454.21 L 479.57,454.29 L 484.46,451.55 L 472.72,453.68 L 473.06,449.41 L 476.44,446.03 L 472.57,447.97 L 471.74,446.45 L 473.23,441.34 L 476.72,442.05 L 480.13,439.54 L 471.02,440.45 L 469.52,439.96 L 469.63,437.31 L 468.24,439.79 L 466.47,438.82 L 464.62,439.39 L 467.80,440.52 L 467.82,444.04 L 465.11,446.46 L 463.57,445.72 L 462.19,447.32 L 464.77,447.62 L 465.04,449.60 L 462.79,448.25 L 463.73,449.73 L 461.70,449.21 L 461.54,450.58 L 464.97,450.71 L 467.65,454.63 L 463.73,464.48 L 444.27,474.76 L 436.19,475.86 L 422.35,465.69 L 399.96,438.98 L 402.56,434.61 L 402.52,436.54 L 405.16,436.18 L 405.36,439.48 L 410.76,437.88 L 411.49,435.40 L 413.51,437.56 L 415.88,434.66 L 417.12,436.09 L 420.71,433.22 L 424.86,432.74 L 428.83,424.77 L 431.44,422.97 L 431.41,420.05 L 429.30,420.88 L 429.18,423.88 L 423.89,422.64 L 423.99,424.13 L 417.89,425.81 L 415.52,428.42 L 412.90,428.08 L 398.38,422.03 L 392.04,416.42 L 393.14,414.88 L 391.72,412.64 L 389.45,412.07 L 390.70,410.47 L 389.20,410.92 L 389.15,407.96 L 397.48,401.95 L 389.53,405.79 L 387.50,408.77 L 383.79,408.16 L 386.46,406.92 L 384.20,404.77 L 386.22,400.60 L 395.52,399.92 L 395.98,391.36 L 397.82,393.57 L 399.14,391.61 L 400.32,393.09 L 412.44,392.63 L 415.50,395.16 L 420.69,395.24 L 423.23,392.11 L 429.66,389.70 L 432.62,389.18 L 432.71,392.72 L 436.50,393.69 L 443.11,389.48 L 440.98,388.23 L 440.52,385.43 L 442.73,383.14 L 438.38,371.89 L 434.46,366.44 L 434.45,359.94 L 426.29,359.16 L 422.56,352.78 L 424.45,339.92 L 417.53,338.75 L 411.25,335.13 L 411.86,325.99 L 428.16,305.27 L 432.05,305.17 L 435.59,311.60 L 438.04,312.52 L 459.08,306.48 L 459.77,302.37 L 464.64,297.27 L 468.77,287.60 L 480.39,281.04 L 486.50,269.60 L 489.27,260.46 L 500.85,254.36 L 498.99,250.04 L 508.42,237.86 L 515.27,233.41 L 512.20,231.27 L 514.43,224.63 L 511.85,218.73 L 513.08,216.03 L 518.70,211.38 L 528.10,208.50 L 529.40,205.86 L 522.63,201.07 L 515.89,200.95 L 514.68,198.22 L 515.81,192.54 L 513.56,194.38 L 508.96,194.04 L 508.26,188.72 L 502.02,184.43 L 505.16,177.03 L 501.29,171.41 L 507.47,166.08 L 499.83,163.93 L 501.79,160.09 L 497.43,156.52 L 500.35,150.17 L 509.02,147.11 L 538.22,153.32 L 542.81,149.36 L 555.51,147.72 L 557.63,143.79 L 562.78,142.12 L 563.37,139.30 L 578.67,130.22 L 580.34,131.72 Z" fill="#C8D8E8" stroke="#8BAABB" stroke-width="0.8"/>
<path d="M 144.78,69.76 L 144.86,67.44 L 147.54,65.67 L 159.69,67.25 L 162.44,65.14 L 166.03,72.39 L 182.26,76.59 L 183.27,79.15 L 186.32,80.21 L 195.26,78.78 L 205.58,82.62 L 208.59,90.17 L 219.84,94.42 L 226.36,103.51 L 242.98,103.53 L 242.60,110.06 L 244.17,115.52 L 242.26,119.10 L 244.50,120.90 L 245.49,128.99 L 243.41,134.78 L 241.82,135.30 L 242.61,139.42 L 240.96,146.14 L 238.58,150.27 L 233.57,153.12 L 237.42,157.74 L 232.44,158.02 L 229.40,161.94 L 229.78,173.66 L 238.04,176.56 L 230.91,185.05 L 230.82,187.22 L 236.21,206.16 L 235.09,211.34 L 236.04,223.80 L 253.50,226.64 L 256.31,235.02 L 255.82,238.95 L 236.49,262.08 L 246.44,273.39 L 251.07,285.17 L 257.65,292.85 L 267.14,295.74 L 271.43,300.18 L 275.18,299.78 L 276.26,317.35 L 274.80,322.69 L 277.82,323.94 L 283.57,322.89 L 286.45,326.19 L 284.66,327.39 L 285.34,331.50 L 283.67,332.90 L 283.30,337.23 L 268.26,339.17 L 265.71,340.60 L 265.17,343.88 L 262.31,343.57 L 256.44,347.05 L 254.86,356.53 L 252.96,357.72 L 252.15,369.04 L 247.94,374.32 L 232.24,369.28 L 230.55,365.26 L 227.43,366.88 L 228.88,368.92 L 225.29,366.89 L 217.51,368.00 L 208.43,364.92 L 200.16,366.37 L 195.75,362.61 L 187.55,361.40 L 180.57,362.53 L 178.35,359.50 L 174.49,360.85 L 174.16,358.34 L 165.20,357.37 L 162.28,350.38 L 163.21,348.43 L 160.54,342.61 L 159.42,332.42 L 157.41,329.98 L 158.38,328.86 L 156.20,328.65 L 155.06,325.67 L 141.23,325.18 L 138.39,327.57 L 138.39,69.28 L 144.78,69.76 Z M 145.62,331.75 L 146.89,331.43 L 146.39,332.71 L 145.62,331.75 Z M 144.53,329.98 L 138.39,335.40 L 138.39,330.50 L 143.02,328.86 L 144.53,329.98 Z M 148.92,327.49 L 147.50,327.65 L 147.55,327.06 L 148.92,327.49 Z" fill="#C8D8E8" stroke="#8BAABB" stroke-width="0.8"/>
<path d="M 542.63,113.03 L 540.35,115.76 L 540.77,117.67 L 544.15,118.93 L 545.69,122.95 L 553.55,120.80 L 553.86,124.23 L 558.02,126.69 L 563.51,139.22 L 562.78,142.12 L 557.63,143.79 L 555.24,147.86 L 542.81,149.36 L 537.84,153.41 L 507.74,147.21 L 500.35,150.17 L 497.53,155.93 L 501.79,160.09 L 499.82,162.51 L 500.29,164.54 L 507.47,166.08 L 501.29,171.41 L 505.16,177.03 L 502.02,184.43 L 508.26,188.72 L 508.96,194.04 L 513.56,194.38 L 515.81,192.54 L 514.68,198.22 L 515.89,200.95 L 522.63,201.07 L 529.40,205.86 L 528.10,208.50 L 518.70,211.38 L 512.89,216.40 L 511.85,218.73 L 514.43,224.63 L 512.20,231.27 L 515.27,233.41 L 508.42,237.86 L 498.99,250.04 L 500.85,254.36 L 489.27,260.46 L 486.50,269.60 L 480.39,281.04 L 468.77,287.60 L 464.64,297.27 L 459.77,302.37 L 459.08,306.48 L 438.04,312.52 L 435.59,311.60 L 432.05,305.17 L 428.16,305.27 L 411.86,325.99 L 411.25,335.13 L 417.53,338.75 L 424.45,339.92 L 422.56,352.78 L 426.29,359.16 L 434.45,359.94 L 434.46,366.44 L 438.38,371.89 L 442.73,383.14 L 440.52,385.43 L 442.91,389.70 L 436.50,393.69 L 433.06,393.07 L 431.77,389.17 L 423.47,391.97 L 420.69,395.24 L 415.50,395.16 L 412.44,392.63 L 400.32,393.09 L 399.14,391.61 L 397.82,393.57 L 395.98,391.36 L 395.52,399.92 L 387.56,399.89 L 384.59,402.80 L 384.07,401.32 L 383.90,406.25 L 382.16,405.58 L 382.96,403.41 L 381.17,400.53 L 381.17,404.52 L 377.97,401.16 L 377.50,403.56 L 373.58,403.74 L 373.84,400.67 L 373.12,402.61 L 370.37,401.64 L 371.62,400.53 L 369.82,399.39 L 371.47,397.46 L 367.86,397.45 L 366.78,394.75 L 366.49,391.40 L 368.03,391.06 L 366.20,390.47 L 364.42,385.30 L 365.81,385.30 L 363.73,384.25 L 365.87,381.61 L 360.01,379.37 L 353.74,379.48 L 355.41,371.48 L 351.59,367.16 L 351.25,363.59 L 348.11,361.08 L 344.65,361.84 L 342.44,364.61 L 347.33,362.77 L 350.47,364.46 L 350.59,366.39 L 345.62,364.65 L 333.52,367.66 L 328.33,366.54 L 323.49,368.79 L 315.20,368.13 L 313.39,371.84 L 311.59,369.39 L 309.04,370.23 L 302.08,367.86 L 301.87,365.73 L 303.31,365.26 L 301.09,365.18 L 299.70,366.06 L 301.38,367.65 L 291.55,367.18 L 289.47,368.95 L 290.10,371.18 L 270.46,369.53 L 266.74,372.08 L 267.50,373.67 L 264.98,373.41 L 265.82,371.38 L 262.75,370.61 L 261.01,371.93 L 261.78,373.21 L 254.36,375.20 L 255.44,371.32 L 251.51,370.99 L 252.96,357.72 L 254.86,356.53 L 256.44,347.05 L 262.31,343.57 L 265.17,343.88 L 265.71,340.60 L 268.26,339.17 L 275.02,337.26 L 282.85,337.69 L 283.82,332.53 L 285.28,331.93 L 284.66,327.39 L 286.45,326.19 L 283.57,322.89 L 277.82,323.94 L 274.80,322.69 L 276.26,317.35 L 275.18,299.78 L 271.43,300.18 L 267.14,295.74 L 257.65,292.85 L 251.07,285.17 L 246.44,273.39 L 236.49,262.08 L 269.45,272.61 L 291.47,270.51 L 301.91,273.11 L 303.66,270.82 L 309.82,268.81 L 321.09,269.52 L 344.48,262.61 L 347.41,259.78 L 344.96,257.41 L 346.70,253.03 L 345.94,244.69 L 347.93,237.17 L 351.64,235.91 L 354.60,230.79 L 359.57,228.01 L 361.43,229.85 L 367.70,230.51 L 376.15,227.56 L 376.26,226.14 L 373.06,225.76 L 372.20,222.98 L 380.21,220.44 L 383.69,216.08 L 390.95,218.41 L 391.99,217.74 L 389.35,217.05 L 394.53,217.25 L 397.12,221.27 L 401.89,219.62 L 407.11,213.44 L 405.78,201.16 L 409.67,196.66 L 408.67,193.92 L 410.71,191.94 L 410.92,187.92 L 421.15,185.61 L 427.20,181.13 L 424.38,176.74 L 423.64,171.83 L 420.40,170.98 L 418.17,166.91 L 418.69,164.79 L 431.79,166.63 L 442.70,163.93 L 443.90,156.85 L 440.57,152.75 L 442.76,152.13 L 443.06,149.46 L 450.91,142.98 L 454.31,137.37 L 452.13,134.77 L 454.00,131.76 L 450.81,123.22 L 444.78,117.35 L 452.70,110.75 L 453.76,107.70 L 457.23,109.14 L 457.04,107.19 L 465.08,103.13 L 465.04,101.78 L 473.02,99.22 L 494.71,97.44 L 502.69,99.34 L 515.35,93.75 L 519.58,97.20 L 524.18,95.16 L 529.25,96.99 L 530.87,101.51 L 536.86,101.50 L 541.96,108.00 L 542.63,113.03 Z M 368.59,397.95 L 370.51,397.97 L 369.33,398.93 L 368.59,397.95 Z" fill="#4A90D9" stroke="#1a5fa8" stroke-width="1.2"/>
<path d="M 647.99,244.73 L 645.43,242.95 L 646.95,242.56 L 647.07,238.95 L 649.21,239.54 L 648.10,241.31 L 649.55,242.99 L 647.99,244.73 Z" fill="#A8C8E8" stroke="none"/>
<path d="M 655.42,242.62 L 652.34,245.51 L 650.55,244.39 L 651.44,240.32 L 655.42,242.62 Z" fill="#A8C8E8" stroke="none"/>
<path d="M 541.07,207.82 L 543.19,208.07 L 546.33,214.94 L 541.02,212.81 L 541.07,207.82 Z" fill="#A8C8E8" stroke="none"/>
<path d="M 597.38,172.73 L 591.49,165.69 L 598.01,171.54 L 602.12,171.28 L 597.38,172.73 Z" fill="#A8C8E8" stroke="none"/>
<path d="M 513.50,156.25 L 512.58,158.05 L 512.90,155.52 L 515.08,155.88 L 513.50,156.25 Z" fill="#A8C8E8" stroke="none"/>
<path d="M 496.01,183.68 L 494.91,185.49 L 493.48,183.25 L 493.86,181.08 L 495.09,183.41 L 496.90,181.08 L 495.94,183.17 L 498.91,184.78 L 496.01,183.68 Z" fill="#A8C8E8" stroke="none"/>
<path d="M 534.25,377.44 L 534.41,381.82 L 529.82,381.45 L 533.47,379.94 L 534.25,377.44 Z" fill="#A8C8E8" stroke="none"/>
<path d="M 656.50,167.30 L 654.55,164.58 L 651.51,165.94 L 653.99,162.40 L 659.32,164.41 L 656.50,167.30 Z" fill="#A8C8E8" stroke="none"/>
<path d="M 647.78,141.46 L 641.68,141.50 L 642.57,139.97 L 646.99,139.68 L 647.78,141.46 Z" fill="#A8C8E8" stroke="none"/>
<path d="M 620.39,138.21 L 618.00,135.75 L 619.73,134.78 L 620.39,138.21 Z" fill="#A8C8E8" stroke="none"/>
<path d="M 386.42,1.08 L 381.58,0.46 L 381.34,0.00 L 387.82,0.00 L 386.42,1.08 Z" fill="#A8C8E8" stroke="none"/>
<path d="M 480.06,164.92 L 478.45,162.93 L 475.68,162.96 L 478.45,158.35 L 477.39,150.63 L 479.15,161.53 L 481.87,163.25 L 480.06,164.92 Z" fill="#A8C8E8" stroke="none"/>
<path d="M 427.83,17.48 L 424.96,18.64 L 417.67,18.65 L 428.79,15.21 L 427.83,17.48 Z" fill="#A8C8E8" stroke="none"/>
<path d="M 554.57,228.90 L 551.12,225.49 L 549.45,221.33 L 555.18,228.77 L 554.02,226.29 L 556.88,228.05 L 556.77,226.54 L 557.77,225.81 L 557.79,229.26 L 554.57,228.90 Z" fill="#A8C8E8" stroke="none"/>
<path d="M 534.51,389.61 L 533.34,388.45 L 529.13,394.11 L 528.17,391.71 L 534.47,383.97 L 534.51,389.61 Z" fill="#A8C8E8" stroke="none"/>
<path d="M 378.97,5.80 L 370.51,7.80 L 372.96,13.22 L 367.30,9.21 L 367.22,6.93 L 342.85,1.38 L 360.41,1.43 L 366.11,2.71 L 368.96,4.41 L 368.24,5.66 L 371.61,5.65 L 381.58,0.46 L 378.97,5.80 Z" fill="#A8C8E8" stroke="none"/>
</svg>