<svg xmlns="http://www.w3.org/2000/svg" width="800" height="500" viewBox="0 0 800 500">
<rect width="800" height="500" fill="#A8C8E8"/>
<path d="M 658.82,40.89 L 653.60,47.35 L 642.33,48.84 L 615.31,24.10 L 595.90,21.06 L 589.23,7.97 L 576.38,17.26 L 565.09,17.87 L 550.83,12.68 L 537.03,11.69 L 529.58,15.37 L 525.03,9.60 L 516.52,12.97 L 497.64,9.32 L 472.36,19.64 L 467.84,27.12 L 463.32,27.75 L 460.68,19.23 L 461.77,3.83 L 464.19,10.08 L 461.30,2.28 L 461.61,0.00 L 664.36,0.00 L 664.36,41.37 L 658.82,40.89 Z" fill="#E8E0D0" stroke="#B8B0A0" stroke-width="0.5"/>
<path d="M 297.91,18.00 L 291.76,27.02 L 289.68,25.94 L 290.93,23.11 L 283.01,20.46 L 275.73,24.09 L 254.60,22.67 L 253.19,25.37 L 256.01,29.99 L 247.09,29.47 L 238.43,38.98 L 237.15,46.30 L 242.81,55.94 L 236.66,64.21 L 192.19,64.65 L 197.23,61.16 L 194.99,55.85 L 199.52,47.99 L 195.15,45.03 L 195.27,40.51 L 179.61,15.36 L 191.59,19.01 L 185.23,9.21 L 194.08,7.29 L 195.54,2.38 L 194.64,0.00 L 303.88,0.00 L 297.91,18.00 Z M 314.50,15.26 L 310.78,19.98 L 310.48,0.32 L 310.62,0.00 L 319.10,0.00 L 314.50,15.26 Z M 286.65,27.66 L 284.86,26.04 L 285.74,25.01 L 286.65,27.66 Z" fill="#E8E0D0" stroke="#B8B0A0" stroke-width="0.5"/>
<path d="M 158.48,103.55 L 147.39,105.10 L 135.64,98.66 L 135.64,88.46 L 139.39,87.18 L 151.36,95.21 L 153.16,89.73 L 159.62,99.44 L 158.48,103.55 Z M 182.92,87.39 L 168.52,90.06 L 174.19,85.68 L 173.00,81.86 L 182.92,87.39 Z M 266.07,85.55 L 253.25,79.69 L 255.78,68.57 L 268.66,77.98 L 266.07,85.55 Z M 186.97,52.95 L 183.07,55.67 L 181.88,52.00 L 185.03,48.31 L 186.97,52.95 Z M 170.34,93.75 L 163.43,101.46 L 163.05,108.17 L 160.41,103.31 L 161.76,99.99 L 155.21,88.27 L 160.86,86.08 L 152.06,80.17 L 159.04,82.39 L 155.41,78.38 L 158.36,77.25 L 155.41,73.97 L 140.35,74.38 L 138.01,66.63 L 135.64,66.14 L 135.64,65.35 L 138.81,63.51 L 135.64,59.30 L 135.64,55.73 L 136.55,54.30 L 135.64,53.68 L 135.64,47.12 L 138.10,47.66 L 148.41,38.65 L 147.49,34.77 L 141.79,33.35 L 140.74,31.82 L 157.08,33.21 L 153.61,36.60 L 155.41,41.74 L 151.79,43.24 L 156.11,42.47 L 156.90,45.03 L 153.42,46.03 L 157.46,49.81 L 163.20,39.47 L 162.57,35.18 L 166.44,45.72 L 161.76,49.81 L 166.71,50.14 L 167.86,46.12 L 165.59,34.77 L 160.29,33.09 L 172.81,24.75 L 185.24,29.29 L 181.63,35.47 L 184.59,47.22 L 171.26,59.04 L 180.06,69.58 L 165.21,76.15 L 170.56,79.48 L 169.64,85.42 L 161.33,85.35 L 161.10,88.87 L 170.34,93.75 Z" fill="#E8E0D0" stroke="#B8B0A0" stroke-width="0.5"/>
<path d="M 532.11,454.15 L 542.72,460.93 L 568.12,464.91 L 578.38,462.40 L 590.07,474.90 L 596.12,473.15 L 602.12,464.82 L 632.17,459.77 L 636.48,448.06 L 649.18,444.71 L 657.41,448.45 L 664.36,459.29 L 664.36,500.00 L 489.58,500.00 L 494.59,491.81 L 494.80,485.21 L 503.55,474.17 L 515.57,471.62 L 532.11,454.15 Z" fill="#E8E0D0" stroke="#B8B0A0" stroke-width="0.5"/>
<path d="M 515.57,471.62 L 503.55,474.17 L 494.80,485.21 L 494.59,491.81 L 489.58,500.00 L 311.46,500.00 L 312.26,498.07 L 310.96,491.65 L 317.79,488.65 L 319.38,484.10 L 317.44,479.61 L 310.10,477.51 L 315.38,472.54 L 322.95,476.75 L 332.12,474.99 L 329.77,466.71 L 335.73,458.32 L 356.87,472.77 L 385.47,471.27 L 389.54,468.35 L 387.13,460.95 L 390.27,457.26 L 409.72,454.81 L 416.15,447.26 L 426.22,452.44 L 439.27,444.43 L 444.46,431.27 L 454.97,428.96 L 465.16,433.25 L 475.56,429.39 L 486.59,441.55 L 503.51,437.83 L 506.32,446.40 L 510.42,446.43 L 514.51,454.21 L 520.97,454.54 L 523.48,462.25 L 515.57,471.62 Z" fill="#E8E0D0" stroke="#B8B0A0" stroke-width="0.5"/>
<path d="M 324.50,439.85 L 334.53,459.11 L 329.77,466.71 L 332.12,474.99 L 322.95,476.75 L 315.38,472.54 L 310.10,477.51 L 317.44,479.61 L 319.38,484.10 L 317.79,488.65 L 310.96,491.65 L 312.26,498.07 L 311.46,500.00 L 135.64,500.00 L 135.64,491.89 L 139.56,491.81 L 152.21,481.34 L 170.45,480.52 L 170.55,475.13 L 172.71,473.73 L 172.60,476.57 L 181.10,479.24 L 189.86,477.21 L 190.42,483.20 L 197.77,487.95 L 200.08,477.61 L 194.14,474.18 L 197.42,467.58 L 189.30,452.95 L 211.08,439.26 L 212.70,428.74 L 221.34,431.51 L 224.61,418.42 L 233.16,427.76 L 241.42,429.53 L 245.80,425.01 L 252.97,428.59 L 257.09,417.88 L 261.68,418.61 L 263.08,405.51 L 290.66,412.76 L 299.47,419.68 L 308.47,420.51 L 313.79,416.32 L 325.44,420.96 L 327.82,427.10 L 324.50,439.85 Z" fill="#E8E0D0" stroke="#B8B0A0" stroke-width="0.5"/>
<path d="M 648.89,441.75 L 652.38,443.67 L 653.90,438.47 L 664.36,439.86 L 664.36,462.60 L 660.86,452.59 L 653.01,445.59 L 646.85,445.55 L 648.89,441.75 Z" fill="#E8E0D0" stroke="#B8B0A0" stroke-width="0.5"/>
<path d="M 545.08,263.75 L 549.83,245.83 L 548.55,241.00 L 532.99,230.04 L 540.46,218.27 L 557.95,205.81 L 557.00,183.92 L 547.01,159.36 L 543.54,141.82 L 566.10,140.77 L 572.97,144.63 L 587.10,139.90 L 587.60,131.38 L 595.86,131.51 L 600.29,124.84 L 608.64,122.59 L 611.76,126.21 L 610.50,130.84 L 618.65,130.21 L 619.51,125.94 L 616.44,121.41 L 610.92,121.41 L 617.91,108.18 L 619.30,92.07 L 631.04,86.77 L 635.19,77.61 L 646.29,78.64 L 652.88,70.49 L 641.31,67.62 L 646.77,48.32 L 653.60,47.35 L 658.82,40.89 L 664.36,41.37 L 664.36,258.51 L 618.81,249.34 L 573.39,251.93 L 559.89,267.65 L 548.27,265.35 L 547.52,271.32 L 545.08,263.75 Z" fill="#C8D8E8" stroke="#8BAABB" stroke-width="0.8"/>
<path d="M 263.08,306.52 L 262.38,299.38 L 268.43,298.37 L 272.57,301.52 L 275.41,310.99 L 289.80,312.75 L 295.71,316.17 L 296.06,320.18 L 307.59,318.02 L 310.70,322.11 L 303.23,330.74 L 307.99,332.68 L 318.44,347.49 L 330.12,340.78 L 326.10,329.31 L 343.62,339.60 L 352.98,335.83 L 354.29,340.83 L 349.07,343.73 L 350.50,346.77 L 357.32,353.87 L 363.68,352.31 L 362.69,349.96 L 372.26,357.39 L 381.06,357.42 L 382.99,367.76 L 388.62,370.18 L 390.09,378.65 L 380.28,380.17 L 367.91,392.10 L 365.10,403.41 L 353.62,413.26 L 335.16,413.43 L 327.82,427.10 L 325.44,420.96 L 313.79,416.32 L 308.47,420.51 L 299.47,419.68 L 290.66,412.76 L 263.80,405.41 L 261.68,418.61 L 257.09,417.88 L 252.97,428.59 L 245.80,425.01 L 241.10,429.57 L 232.03,427.26 L 217.78,408.81 L 211.80,408.07 L 197.70,390.16 L 185.95,382.96 L 177.38,366.21 L 182.01,357.54 L 172.87,350.06 L 167.35,339.48 L 167.24,335.61 L 169.65,335.79 L 174.63,343.86 L 181.55,331.67 L 196.14,330.85 L 198.02,326.12 L 212.48,320.52 L 216.06,314.67 L 242.12,305.39 L 243.28,303.22 L 238.55,299.93 L 240.17,297.02 L 246.59,297.00 L 249.63,300.30 L 248.84,303.69 L 251.44,303.23 L 250.91,307.25 L 263.08,306.52 Z" fill="#C8D8E8" stroke="#8BAABB" stroke-width="0.8"/>
<path d="M 221.34,431.51 L 212.70,428.74 L 211.08,439.26 L 189.10,453.33 L 197.42,467.58 L 194.14,474.18 L 200.08,477.61 L 197.77,487.95 L 190.42,483.20 L 189.86,477.21 L 181.10,479.24 L 172.60,476.57 L 172.71,473.73 L 170.45,480.52 L 152.21,481.34 L 139.56,491.81 L 135.64,491.89 L 135.64,138.24 L 137.52,137.61 L 146.84,143.59 L 154.49,130.28 L 167.63,128.20 L 167.75,132.48 L 168.52,133.34 L 168.32,128.79 L 182.33,112.47 L 195.11,115.40 L 185.31,115.96 L 182.11,118.67 L 179.19,117.85 L 176.89,124.18 L 187.18,116.61 L 192.91,119.44 L 198.00,115.15 L 201.50,123.60 L 213.66,133.69 L 221.19,129.29 L 224.36,132.98 L 222.31,136.63 L 227.59,141.62 L 224.70,145.10 L 224.65,146.44 L 239.41,151.86 L 237.70,154.19 L 245.25,178.58 L 242.01,189.45 L 235.45,194.19 L 234.78,200.03 L 251.96,214.67 L 248.68,225.08 L 254.18,232.90 L 253.33,239.05 L 255.80,241.42 L 250.01,256.00 L 254.85,263.79 L 254.11,270.64 L 262.20,275.71 L 264.40,286.33 L 262.20,295.56 L 255.73,309.14 L 250.91,307.25 L 251.44,303.23 L 248.84,303.69 L 249.63,300.30 L 246.59,297.00 L 240.17,297.02 L 238.55,299.93 L 243.28,303.22 L 242.12,305.39 L 216.06,314.67 L 212.48,320.52 L 198.02,326.12 L 196.14,330.85 L 181.55,331.67 L 174.63,343.86 L 172.63,338.74 L 167.24,335.61 L 172.87,350.06 L 182.01,357.54 L 177.38,366.21 L 185.95,382.96 L 197.70,390.16 L 203.59,399.60 L 212.84,408.87 L 217.78,408.81 L 224.61,418.42 L 221.34,431.51 Z M 136.21,117.94 L 135.64,118.31 L 135.64,118.12 L 136.21,117.94 Z M 237.31,145.09 L 225.41,146.58 L 228.43,143.96 L 227.54,138.82 L 232.28,141.74 L 232.38,138.30 L 228.91,135.01 L 223.24,137.36 L 224.58,133.16 L 222.54,130.39 L 224.58,129.29 L 237.62,141.87 L 237.31,145.09 Z M 145.81,137.35 L 148.16,137.36 L 146.84,140.64 L 144.13,139.55 L 145.81,137.35 Z M 149.35,134.04 L 152.06,132.58 L 149.54,135.53 L 149.35,134.04 Z M 142.11,116.45 L 135.64,114.59 L 135.64,110.02 L 135.74,109.92 L 142.11,116.45 Z M 201.63,107.22 L 199.73,113.53 L 201.08,106.70 L 201.63,107.22 Z M 222.99,120.13 L 221.56,123.69 L 218.05,121.59 L 220.49,119.77 L 214.19,120.13 L 209.57,123.85 L 211.14,126.37 L 201.52,120.50 L 206.51,117.94 L 202.88,115.75 L 206.71,112.80 L 202.44,109.55 L 207.53,110.79 L 209.89,107.29 L 209.21,110.57 L 214.43,112.47 L 214.88,108.06 L 212.27,108.78 L 209.88,105.84 L 206.06,108.38 L 207.39,104.23 L 205.32,103.64 L 210.60,101.78 L 211.71,107.29 L 219.83,108.30 L 216.69,113.34 L 222.99,120.13 Z" fill="#C8D8E8" stroke="#8BAABB" stroke-width="0.8"/>
<path d="M 641.31,67.62 L 652.88,70.49 L 646.29,78.64 L 635.19,77.61 L 631.04,86.77 L 619.30,92.07 L 617.91,108.18 L 610.92,121.41 L 616.44,121.41 L 619.51,125.94 L 618.65,130.21 L 610.50,130.84 L 611.76,126.21 L 608.64,122.59 L 600.29,124.84 L 595.86,131.51 L 587.60,131.38 L 586.52,140.20 L 572.97,144.63 L 566.10,140.77 L 548.21,144.02 L 543.54,141.82 L 543.15,132.56 L 539.21,126.97 L 517.86,116.19 L 517.66,102.24 L 522.52,95.06 L 513.19,81.48 L 497.07,83.58 L 473.92,69.60 L 470.38,71.81 L 470.04,65.35 L 467.61,66.59 L 468.91,57.29 L 466.41,48.84 L 463.56,42.90 L 463.32,27.75 L 467.84,27.12 L 472.36,19.64 L 497.64,9.32 L 516.52,12.97 L 525.03,9.60 L 529.58,15.37 L 537.03,11.69 L 550.83,12.68 L 565.09,17.87 L 576.38,17.26 L 589.23,7.97 L 595.90,21.06 L 615.31,24.10 L 635.69,45.36 L 646.07,49.44 L 641.31,67.62 Z M 459.07,69.99 L 464.28,58.50 L 464.37,46.45 L 465.06,62.58 L 459.07,69.99 Z" fill="#C8D8E8" stroke="#8BAABB" stroke-width="0.8"/>
<path d="M 418.03,115.23 L 415.70,114.15 L 425.28,102.91 L 427.81,87.00 L 444.49,86.41 L 459.07,69.99 L 461.21,70.65 L 446.09,86.99 L 464.55,90.37 L 469.59,87.18 L 467.61,74.32 L 473.92,69.60 L 496.19,83.31 L 513.69,82.02 L 522.39,94.07 L 517.03,108.10 L 519.84,119.53 L 418.03,115.23 Z" fill="#C8D8E8" stroke="#8BAABB" stroke-width="0.8"/>
<path d="M 504.77,422.95 L 499.12,428.94 L 497.72,439.11 L 485.56,441.17 L 475.56,429.39 L 465.16,433.25 L 454.97,428.96 L 445.41,430.86 L 439.27,444.43 L 426.22,452.44 L 416.15,447.26 L 409.72,454.81 L 390.27,457.26 L 387.13,460.95 L 389.54,468.35 L 385.47,471.27 L 354.10,471.95 L 340.78,459.47 L 331.93,457.49 L 324.50,439.85 L 330.47,419.49 L 335.16,413.43 L 353.62,413.26 L 365.10,403.41 L 367.91,392.10 L 380.28,380.17 L 393.36,378.96 L 394.35,385.12 L 400.27,384.85 L 410.22,373.75 L 416.28,384.44 L 420.97,384.91 L 421.52,395.87 L 430.24,396.67 L 433.06,389.41 L 439.05,384.99 L 451.32,384.51 L 458.89,390.41 L 463.95,386.83 L 463.32,383.77 L 470.15,381.90 L 488.59,385.76 L 495.88,395.37 L 512.34,402.07 L 504.77,422.95 Z" fill="#C8D8E8" stroke="#8BAABB" stroke-width="0.8"/>
<path d="M 653.90,438.47 L 652.01,444.04 L 648.89,441.75 L 636.48,448.06 L 632.17,459.77 L 602.12,464.82 L 596.12,473.15 L 590.07,474.90 L 578.38,462.40 L 568.12,464.91 L 542.72,460.93 L 532.11,454.15 L 523.48,462.25 L 520.97,454.54 L 514.51,454.21 L 510.42,446.43 L 506.32,446.40 L 503.51,437.83 L 498.92,437.76 L 499.12,428.94 L 504.77,422.95 L 512.34,402.07 L 523.13,405.40 L 517.03,397.31 L 518.87,391.20 L 516.50,375.59 L 550.02,332.77 L 559.89,330.82 L 564.06,323.54 L 563.18,314.34 L 559.11,309.25 L 565.22,306.66 L 548.47,282.70 L 550.53,277.36 L 547.86,265.58 L 559.89,267.65 L 573.39,251.93 L 618.81,249.34 L 664.36,258.51 L 664.36,439.86 L 653.90,438.47 Z" fill="#C8D8E8" stroke="#8BAABB" stroke-width="0.8"/>
<path d="M 388.62,370.18 L 382.99,367.76 L 381.06,357.42 L 372.26,357.39 L 362.69,349.96 L 363.68,352.31 L 357.32,353.87 L 350.50,346.77 L 349.07,343.73 L 354.29,340.83 L 352.98,335.83 L 343.62,339.60 L 326.10,329.31 L 330.12,340.78 L 318.44,347.49 L 307.99,332.68 L 303.23,330.74 L 310.70,322.11 L 307.59,318.02 L 296.06,320.18 L 295.71,316.17 L 289.80,312.75 L 275.41,310.99 L 272.57,301.52 L 268.43,298.37 L 262.38,299.38 L 263.08,306.52 L 257.42,306.56 L 264.31,284.46 L 261.86,274.97 L 254.11,270.64 L 254.85,263.79 L 250.01,256.00 L 255.80,241.42 L 253.33,239.05 L 254.18,232.90 L 248.68,225.08 L 251.96,214.67 L 234.78,200.03 L 235.45,194.19 L 242.01,189.45 L 245.25,178.58 L 239.39,154.62 L 240.39,151.99 L 250.17,160.05 L 251.26,157.14 L 248.66,154.40 L 251.49,146.52 L 244.93,143.59 L 241.20,148.30 L 236.47,143.58 L 302.56,124.51 L 315.44,108.78 L 340.76,98.53 L 367.64,93.75 L 373.81,94.01 L 387.41,101.68 L 390.16,106.33 L 377.66,96.46 L 376.24,98.66 L 382.01,115.39 L 391.83,119.85 L 415.70,114.15 L 517.57,120.24 L 522.17,117.14 L 542.33,130.29 L 547.01,159.36 L 557.00,183.92 L 557.95,205.81 L 540.46,218.27 L 532.99,230.04 L 548.55,241.00 L 549.83,245.83 L 545.44,267.29 L 550.53,277.36 L 548.47,282.70 L 565.22,306.66 L 559.11,309.25 L 563.18,314.34 L 564.06,323.54 L 559.89,330.82 L 550.02,332.77 L 516.50,375.59 L 518.87,391.20 L 517.03,397.31 L 522.69,401.40 L 522.75,406.25 L 495.88,395.37 L 492.18,388.24 L 481.39,383.12 L 463.83,383.51 L 458.89,390.41 L 451.32,384.51 L 439.05,384.99 L 433.06,389.41 L 430.24,396.67 L 420.68,395.55 L 420.97,384.91 L 416.28,384.44 L 410.68,373.95 L 400.27,384.85 L 394.35,385.12 L 394.31,379.58 L 390.09,378.65 L 388.62,370.18 Z" fill="#4A90D9" stroke="#1a5fa8" stroke-width="1.2"/>
<path d="M 393.66,355.74 L 388.66,356.84 L 389.58,355.74 L 393.66,355.74 Z" fill="#A8C8E8" stroke="none"/>
<path d="M 258.68,0.11 L 257.92,0.00 L 258.61,0.00 L 258.68,0.11 Z M 257.12,2.88 L 253.52,2.52 L 252.83,0.00 L 255.79,0.00 L 257.12,2.88 Z" fill="#A8C8E8" stroke="none"/>
<path d="M 188.05,174.40 L 183.91,169.22 L 186.68,164.51 L 190.02,168.68 L 188.05,174.40 Z" fill="#A8C8E8" stroke="none"/>
<path d="M 149.35,149.80 L 146.84,154.58 L 148.42,159.52 L 145.73,158.60 L 146.67,151.58 L 149.35,149.80 Z" fill="#A8C8E8" stroke="none"/>
<path d="M 244.46,264.15 L 243.13,267.09 L 243.47,264.43 L 244.46,264.15 Z" fill="#A8C8E8" stroke="none"/>
<path d="M 203.56,222.42 L 201.09,222.39 L 203.54,220.55 L 204.01,217.97 L 203.56,222.42 Z" fill="#A8C8E8" stroke="none"/>
<path d="M 191.11,180.96 L 190.90,180.05 L 191.36,179.47 L 191.11,180.96 Z" fill="#A8C8E8" stroke="none"/>
<path d="M 179.84,226.04 L 177.59,224.18 L 178.05,223.87 L 180.88,223.33 L 179.84,226.04 Z" fill="#A8C8E8" stroke="none"/>
<path d="M 195.19,223.66 L 194.08,222.39 L 196.11,223.82 L 195.19,223.66 Z" fill="#A8C8E8" stroke="none"/>
<path d="M 197.47,226.76 L 195.44,228.59 L 196.36,226.28 L 197.47,226.76 Z" fill="#A8C8E8" stroke="none"/>
<path d="M 219.19,222.40 L 218.26,222.03 L 218.99,221.24 L 219.19,222.40 Z" fill="#A8C8E8" stroke="none"/>
<path d="M 238.82,241.04 L 236.91,244.72 L 236.79,239.94 L 238.82,241.04 Z" fill="#A8C8E8" stroke="none"/>
<path d="M 252.56,170.21 L 250.73,168.35 L 252.22,163.46 L 252.56,170.21 Z" fill="#A8C8E8" stroke="none"/>
<path d="M 482.57,131.49 L 484.96,131.49 L 482.97,127.26 L 488.32,128.97 L 485.18,130.39 L 487.10,132.41 L 485.50,136.95 L 480.74,133.74 L 482.57,131.49 Z" fill="#A8C8E8" stroke="none"/>
<path d="M 418.06,151.67 L 416.58,155.38 L 413.51,158.99 L 416.14,154.53 L 413.73,149.69 L 418.06,151.67 Z" fill="#A8C8E8" stroke="none"/>
<path d="M 480.21,149.18 L 477.40,143.63 L 479.29,142.30 L 480.21,149.18 Z" fill="#A8C8E8" stroke="none"/>
<path d="M 485.61,152.39 L 487.46,155.68 L 481.78,154.58 L 481.84,151.34 L 479.97,155.68 L 480.21,149.18 L 488.80,150.88 L 485.61,152.39 Z" fill="#A8C8E8" stroke="none"/>
<path d="M 493.56,156.41 L 488.31,157.26 L 489.79,155.24 L 493.56,156.41 Z" fill="#A8C8E8" stroke="none"/>
<path d="M 488.58,139.16 L 483.59,144.38 L 486.77,140.14 L 486.05,137.56 L 488.58,139.16 Z" fill="#A8C8E8" stroke="none"/>
<path d="M 531.96,137.72 L 530.29,138.12 L 527.91,137.72 L 531.96,137.72 Z" fill="#A8C8E8" stroke="none"/>
<path d="M 652.87,95.02 L 649.26,91.37 L 650.39,90.06 L 653.58,91.32 L 652.87,95.02 Z" fill="#A8C8E8" stroke="none"/>
<path d="M 568.21,95.04 L 567.69,95.93 L 564.81,96.71 L 567.69,94.47 L 560.27,91.86 L 567.21,93.04 L 568.21,95.04 Z" fill="#A8C8E8" stroke="none"/>
<path d="M 427.98,100.18 L 430.98,103.43 L 441.99,101.81 L 423.30,113.41 L 421.76,109.52 L 427.98,100.18 Z" fill="#A8C8E8" stroke="none"/>
<path d="M 407.64,126.38 L 408.34,123.78 L 403.15,120.84 L 421.76,109.52 L 423.30,113.41 L 407.64,126.38 Z" fill="#A8C8E8" stroke="none"/>
</svg>