<svg xmlns="http://www.w3.org/2000/svg" width="800" height="500" viewBox="0 0 800 500">
<rect width="800" height="500" fill="#A8C8E8"/>
<path d="M 791.62,40.89 L 783.73,47.35 L 766.67,48.84 L 725.79,24.10 L 696.41,21.06 L 686.32,7.97 L 666.88,17.26 L 649.79,17.87 L 628.22,12.68 L 607.35,11.69 L 596.06,15.37 L 589.19,9.60 L 576.30,12.97 L 547.74,9.32 L 509.49,19.64 L 502.64,27.12 L 495.81,27.75 L 491.82,19.23 L 493.46,3.83 L 497.12,10.08 L 492.75,2.28 L 493.22,0.00 L 800.00,0.00 L 800.00,41.37 L 791.62,40.89 Z" fill="#E8E0D0" stroke="#B8B0A0" stroke-width="0.5"/>
<path d="M 245.53,18.00 L 236.22,27.02 L 233.08,25.94 L 234.97,23.11 L 222.99,20.46 L 211.96,24.09 L 179.99,22.67 L 177.87,25.37 L 182.13,29.99 L 168.64,29.47 L 155.53,38.98 L 153.59,46.30 L 162.16,55.94 L 152.86,64.21 L 85.57,64.65 L 93.20,61.16 L 89.79,55.85 L 96.65,47.99 L 90.05,45.03 L 90.22,40.51 L 66.54,15.36 L 84.65,19.01 L 75.03,9.21 L 88.43,7.29 L 90.64,2.38 L 89.28,0.00 L 254.56,0.00 L 245.53,18.00 Z M 270.63,15.26 L 265.01,19.98 L 264.56,0.32 L 264.77,0.00 L 277.59,0.00 L 270.63,15.26 Z M 228.49,27.66 L 225.78,26.04 L 227.11,25.01 L 228.49,27.66 Z" fill="#E8E0D0" stroke="#B8B0A0" stroke-width="0.5"/>
<path d="M 34.56,103.55 L 17.78,105.10 L 0.00,98.66 L 0.00,88.46 L 5.67,87.18 L 23.78,95.21 L 26.51,89.73 L 36.28,99.44 L 34.56,103.55 Z M 71.54,87.39 L 49.75,90.06 L 58.32,85.68 L 56.53,81.86 L 71.54,87.39 Z M 197.35,85.55 L 177.96,79.69 L 181.79,68.57 L 201.27,77.98 L 197.35,85.55 Z M 77.67,52.95 L 71.77,55.67 L 69.97,52.00 L 74.74,48.31 L 77.67,52.95 Z M 52.50,93.75 L 42.05,101.46 L 41.47,108.17 L 37.48,103.31 L 39.52,99.99 L 29.61,88.27 L 38.16,86.08 L 24.84,80.17 L 35.40,82.39 L 29.92,78.38 L 34.38,77.25 L 29.92,73.97 L 7.13,74.38 L 3.59,66.63 L 0.00,66.14 L 0.00,65.35 L 4.79,63.51 L 0.00,59.30 L 0.00,55.73 L 1.37,54.30 L 0.00,53.68 L 0.00,47.12 L 3.72,47.66 L 19.32,38.65 L 17.93,34.77 L 9.30,33.35 L 7.71,31.82 L 32.45,33.21 L 27.19,36.60 L 29.92,41.74 L 24.43,43.24 L 30.97,42.47 L 32.17,45.03 L 26.90,46.03 L 33.02,49.81 L 41.69,39.47 L 40.75,35.18 L 46.60,45.72 L 39.52,49.81 L 47.02,50.14 L 48.75,46.12 L 45.31,34.77 L 37.30,33.09 L 56.24,24.75 L 75.04,29.29 L 69.59,35.47 L 74.06,47.22 L 53.89,59.04 L 67.21,69.58 L 44.74,76.15 L 52.84,79.48 L 51.44,85.42 L 38.87,85.35 L 38.53,88.87 L 52.50,93.75 Z" fill="#E8E0D0" stroke="#B8B0A0" stroke-width="0.5"/>
<path d="M 599.89,454.15 L 615.95,460.93 L 654.38,464.91 L 669.91,462.40 L 687.60,474.90 L 696.75,473.15 L 705.82,464.82 L 751.30,459.77 L 757.81,448.06 L 777.02,444.71 L 789.48,448.45 L 800.00,459.29 L 800.00,500.00 L 535.54,500.00 L 543.13,491.81 L 543.44,485.21 L 556.68,474.17 L 574.87,471.62 L 599.89,454.15 Z" fill="#E8E0D0" stroke="#B8B0A0" stroke-width="0.5"/>
<path d="M 574.87,471.62 L 556.68,474.17 L 543.44,485.21 L 543.13,491.81 L 535.54,500.00 L 266.03,500.00 L 267.24,498.07 L 265.28,491.65 L 275.61,488.65 L 278.01,484.10 L 275.07,479.61 L 263.98,477.51 L 271.96,472.54 L 283.42,476.75 L 297.29,474.99 L 293.73,466.71 L 302.75,458.32 L 334.73,472.77 L 378.01,471.27 L 384.18,468.35 L 380.52,460.95 L 385.27,457.26 L 414.70,454.81 L 424.44,447.26 L 439.68,452.44 L 459.42,444.43 L 467.28,431.27 L 483.18,428.96 L 498.60,433.25 L 514.33,429.39 L 531.02,441.55 L 556.61,437.83 L 560.87,446.40 L 567.07,446.43 L 573.26,454.21 L 583.04,454.54 L 586.84,462.25 L 574.87,471.62 Z" fill="#E8E0D0" stroke="#B8B0A0" stroke-width="0.5"/>
<path d="M 285.77,439.85 L 300.93,459.11 L 293.73,466.71 L 297.29,474.99 L 283.42,476.75 L 271.96,472.54 L 263.98,477.51 L 275.07,479.61 L 278.01,484.10 L 275.61,488.65 L 265.28,491.65 L 267.24,498.07 L 266.03,500.00 L 0.00,500.00 L 0.00,491.89 L 5.93,491.81 L 25.07,481.34 L 52.67,480.52 L 52.82,475.13 L 56.10,473.73 L 55.92,476.57 L 68.79,479.24 L 82.03,477.21 L 82.88,483.20 L 94.01,487.95 L 97.51,477.61 L 88.52,474.18 L 93.47,467.58 L 81.19,452.95 L 114.15,439.26 L 116.60,428.74 L 129.67,431.51 L 134.62,418.42 L 147.55,427.76 L 160.05,429.53 L 166.68,425.01 L 177.53,428.59 L 183.76,417.88 L 190.70,418.61 L 192.82,405.51 L 234.57,412.76 L 247.88,419.68 L 261.50,420.51 L 269.55,416.32 L 287.19,420.96 L 290.79,427.10 L 285.77,439.85 Z" fill="#E8E0D0" stroke="#B8B0A0" stroke-width="0.5"/>
<path d="M 776.59,441.75 L 781.88,443.67 L 784.18,438.47 L 800.00,439.86 L 800.00,462.60 L 794.70,452.59 L 782.83,445.59 L 773.50,445.55 L 776.59,441.75 Z" fill="#E8E0D0" stroke="#B8B0A0" stroke-width="0.5"/>
<path d="M 619.52,263.75 L 626.71,245.83 L 624.76,241.00 L 601.22,230.04 L 612.53,218.27 L 638.99,205.81 L 637.55,183.92 L 622.44,159.36 L 617.19,141.82 L 651.32,140.77 L 661.71,144.63 L 683.10,139.90 L 683.86,131.38 L 696.35,131.51 L 703.05,124.84 L 715.68,122.59 L 720.41,126.21 L 718.51,130.84 L 730.84,130.21 L 732.14,125.94 L 727.49,121.41 L 719.14,121.41 L 729.71,108.18 L 731.82,92.07 L 749.58,86.77 L 755.86,77.61 L 772.65,78.64 L 782.62,70.49 L 765.12,67.62 L 773.39,48.32 L 783.73,47.35 L 791.62,40.89 L 800.00,41.37 L 800.00,258.51 L 731.08,249.34 L 662.36,251.93 L 641.92,267.65 L 624.34,265.35 L 623.21,271.32 L 619.52,263.75 Z" fill="#C8D8E8" stroke="#8BAABB" stroke-width="0.8"/>
<path d="M 192.82,306.52 L 191.77,299.38 L 200.93,298.37 L 207.18,301.52 L 211.49,310.99 L 233.26,312.75 L 242.20,316.17 L 242.73,320.18 L 260.17,318.02 L 264.88,322.11 L 253.58,330.74 L 260.78,332.68 L 276.59,347.49 L 294.27,340.78 L 288.19,329.31 L 314.70,339.60 L 328.86,335.83 L 330.83,340.83 L 322.94,343.73 L 325.10,346.77 L 335.41,353.87 L 345.05,352.31 L 343.55,349.96 L 358.03,357.39 L 371.34,357.42 L 374.26,367.76 L 382.78,370.18 L 385.01,378.65 L 370.16,380.17 L 351.45,392.10 L 347.20,403.41 L 329.82,413.26 L 301.88,413.43 L 290.79,427.10 L 287.19,420.96 L 269.55,416.32 L 261.50,420.51 L 247.88,419.68 L 234.57,412.76 L 193.92,405.41 L 190.70,418.61 L 183.76,417.88 L 177.53,428.59 L 166.68,425.01 L 159.57,429.57 L 145.85,427.26 L 124.29,408.81 L 115.23,408.07 L 93.90,390.16 L 76.12,382.96 L 63.15,366.21 L 70.16,357.54 L 56.33,350.06 L 47.98,339.48 L 47.81,335.61 L 51.46,335.79 L 59.00,343.86 L 69.47,331.67 L 91.54,330.85 L 94.39,326.12 L 116.27,320.52 L 121.69,314.67 L 161.11,305.39 L 162.87,303.22 L 155.71,299.93 L 158.16,297.02 L 167.88,297.00 L 172.48,300.30 L 171.28,303.69 L 175.22,303.23 L 174.42,307.25 L 192.82,306.52 Z" fill="#C8D8E8" stroke="#8BAABB" stroke-width="0.8"/>
<path d="M 129.67,431.51 L 116.60,428.74 L 114.15,439.26 L 80.88,453.33 L 93.47,467.58 L 88.52,474.18 L 97.51,477.61 L 94.01,487.95 L 82.88,483.20 L 82.03,477.21 L 68.79,479.24 L 55.92,476.57 L 56.10,473.73 L 52.67,480.52 L 25.07,481.34 L 5.93,491.81 L 0.00,491.89 L 0.00,138.24 L 2.84,137.61 L 16.94,143.59 L 28.52,130.28 L 48.41,128.20 L 48.58,132.48 L 49.75,133.34 L 49.44,128.79 L 70.65,112.47 L 89.98,115.40 L 75.16,115.96 L 70.31,118.67 L 65.89,117.85 L 62.41,124.18 L 77.98,116.61 L 86.66,119.44 L 94.35,115.15 L 99.65,123.60 L 118.04,133.69 L 129.44,129.29 L 134.24,132.98 L 131.15,136.63 L 139.13,141.62 L 134.76,145.10 L 134.69,146.44 L 157.02,151.86 L 154.43,154.19 L 165.85,178.58 L 160.95,189.45 L 151.03,194.19 L 150.00,200.03 L 175.99,214.67 L 171.03,225.08 L 179.37,232.90 L 178.07,239.05 L 181.81,241.42 L 173.05,256.00 L 180.37,263.79 L 179.25,270.64 L 191.49,275.71 L 194.82,286.33 L 191.49,295.56 L 181.70,309.14 L 174.42,307.25 L 175.22,303.23 L 171.28,303.69 L 172.48,300.30 L 167.88,297.00 L 158.16,297.02 L 155.71,299.93 L 162.87,303.22 L 161.11,305.39 L 121.69,314.67 L 116.27,320.52 L 94.39,326.12 L 91.54,330.85 L 69.47,331.67 L 59.00,343.86 L 55.97,338.74 L 47.81,335.61 L 56.33,350.06 L 70.16,357.54 L 63.15,366.21 L 76.12,382.96 L 93.90,390.16 L 102.82,399.60 L 116.81,408.87 L 124.29,408.81 L 134.62,418.42 L 129.67,431.51 Z M 0.87,117.94 L 0.00,118.31 L 0.00,118.12 L 0.87,117.94 Z M 153.84,145.09 L 135.84,146.58 L 140.40,143.96 L 139.05,138.82 L 146.23,141.74 L 146.37,138.30 L 141.12,135.01 L 132.54,137.36 L 134.58,133.16 L 131.49,130.39 L 134.58,129.29 L 154.30,141.87 L 153.84,145.09 Z M 15.39,137.35 L 18.95,137.36 L 16.94,140.64 L 12.85,139.55 L 15.39,137.35 Z M 20.75,134.04 L 24.84,132.58 L 21.03,135.53 L 20.75,134.04 Z M 9.78,116.45 L 0.00,114.59 L 0.00,110.02 L 0.16,109.92 L 9.78,116.45 Z M 99.85,107.22 L 96.97,113.53 L 99.02,106.70 L 99.85,107.22 Z M 132.16,120.13 L 130.00,123.69 L 124.70,121.59 L 128.39,119.77 L 118.85,120.13 L 111.86,123.85 L 114.23,126.37 L 99.68,120.50 L 107.23,117.94 L 101.75,115.75 L 107.54,112.80 L 101.07,109.55 L 108.78,110.79 L 112.35,107.29 L 111.32,110.57 L 119.22,112.47 L 119.90,108.06 L 115.94,108.78 L 112.33,105.84 L 106.55,108.38 L 108.56,104.23 L 105.44,103.64 L 113.41,101.78 L 115.10,107.29 L 127.38,108.30 L 122.63,113.34 L 132.16,120.13 Z" fill="#C8D8E8" stroke="#8BAABB" stroke-width="0.8"/>
<path d="M 765.12,67.62 L 782.62,70.49 L 772.65,78.64 L 755.86,77.61 L 749.58,86.77 L 731.82,92.07 L 729.71,108.18 L 719.14,121.41 L 727.49,121.41 L 732.14,125.94 L 730.84,130.21 L 718.51,130.84 L 720.41,126.21 L 715.68,122.59 L 703.05,124.84 L 696.35,131.51 L 683.86,131.38 L 682.22,140.20 L 661.71,144.63 L 651.32,140.77 L 624.25,144.02 L 617.19,141.82 L 616.60,132.56 L 610.64,126.97 L 578.33,116.19 L 578.02,102.24 L 585.38,95.06 L 571.27,81.48 L 546.88,83.58 L 511.85,69.60 L 506.50,71.81 L 505.97,65.35 L 502.29,66.59 L 504.27,57.29 L 500.49,48.84 L 496.17,42.90 L 495.81,27.75 L 502.64,27.12 L 509.49,19.64 L 547.74,9.32 L 576.30,12.97 L 589.19,9.60 L 596.06,15.37 L 607.35,11.69 L 628.22,12.68 L 649.79,17.87 L 666.88,17.26 L 686.32,7.97 L 696.41,21.06 L 725.79,24.10 L 756.62,45.36 L 772.33,49.44 L 765.12,67.62 Z M 489.38,69.99 L 497.25,58.50 L 497.40,46.45 L 498.44,62.58 L 489.38,69.99 Z" fill="#C8D8E8" stroke="#8BAABB" stroke-width="0.8"/>
<path d="M 427.28,115.23 L 423.75,114.15 L 438.26,102.91 L 442.08,87.00 L 467.32,86.41 L 489.38,69.99 L 492.62,70.65 L 469.74,86.99 L 497.67,90.37 L 505.29,87.18 L 502.30,74.32 L 511.85,69.60 L 545.54,83.31 L 572.03,82.02 L 585.18,94.07 L 577.07,108.10 L 581.34,119.53 L 427.28,115.23 Z" fill="#C8D8E8" stroke="#8BAABB" stroke-width="0.8"/>
<path d="M 558.53,422.95 L 549.97,428.94 L 547.86,439.11 L 529.46,441.17 L 514.33,429.39 L 498.60,433.25 L 483.18,428.96 L 468.72,430.86 L 459.42,444.43 L 439.68,452.44 L 424.44,447.26 L 414.70,454.81 L 385.27,457.26 L 380.52,460.95 L 384.18,468.35 L 378.01,471.27 L 330.56,471.95 L 310.39,459.47 L 297.01,457.49 L 285.77,439.85 L 294.79,419.49 L 301.88,413.43 L 329.82,413.26 L 347.20,403.41 L 351.45,392.10 L 370.16,380.17 L 389.95,378.96 L 391.45,385.12 L 400.41,384.85 L 415.46,373.75 L 424.63,384.44 L 431.73,384.91 L 432.56,395.87 L 445.76,396.67 L 450.02,389.41 L 459.09,384.99 L 477.65,384.51 L 489.10,390.41 L 496.76,386.83 L 495.82,383.77 L 506.15,381.90 L 534.04,385.76 L 545.08,395.37 L 569.98,402.07 L 558.53,422.95 Z" fill="#C8D8E8" stroke="#8BAABB" stroke-width="0.8"/>
<path d="M 784.18,438.47 L 781.31,444.04 L 776.59,441.75 L 757.81,448.06 L 751.30,459.77 L 705.82,464.82 L 696.75,473.15 L 687.60,474.90 L 669.91,462.40 L 654.38,464.91 L 615.95,460.93 L 599.89,454.15 L 586.84,462.25 L 583.04,454.54 L 573.26,454.21 L 567.07,446.43 L 560.87,446.40 L 556.61,437.83 L 549.68,437.76 L 549.97,428.94 L 558.53,422.95 L 569.98,402.07 L 586.31,405.40 L 577.07,397.31 L 579.87,391.20 L 576.28,375.59 L 627.00,332.77 L 641.92,330.82 L 648.23,323.54 L 646.90,314.34 L 640.74,309.25 L 650.00,306.66 L 624.65,282.70 L 627.77,277.36 L 623.73,265.58 L 641.92,267.65 L 662.36,251.93 L 731.08,249.34 L 800.00,258.51 L 800.00,439.86 L 784.18,438.47 Z" fill="#C8D8E8" stroke="#8BAABB" stroke-width="0.8"/>
<path d="M 382.78,370.18 L 374.26,367.76 L 371.34,357.42 L 358.03,357.39 L 343.55,349.96 L 345.05,352.31 L 335.41,353.87 L 325.10,346.77 L 322.94,343.73 L 330.83,340.83 L 328.86,335.83 L 314.70,339.60 L 288.19,329.31 L 294.27,340.78 L 276.59,347.49 L 260.78,332.68 L 253.58,330.74 L 264.88,322.11 L 260.17,318.02 L 242.73,320.18 L 242.20,316.17 L 233.26,312.75 L 211.49,310.99 L 207.18,301.52 L 200.93,298.37 L 191.77,299.38 L 192.82,306.52 L 184.26,306.56 L 194.69,284.46 L 190.98,274.97 L 179.25,270.64 L 180.37,263.79 L 173.05,256.00 L 181.81,241.42 L 178.07,239.05 L 179.37,232.90 L 171.03,225.08 L 175.99,214.67 L 150.00,200.03 L 151.03,194.19 L 160.95,189.45 L 165.85,178.58 L 156.99,154.62 L 158.50,151.99 L 173.29,160.05 L 174.95,157.14 L 171.01,154.40 L 175.29,146.52 L 165.37,143.59 L 159.73,148.30 L 152.56,143.58 L 252.57,124.51 L 272.05,108.78 L 310.37,98.53 L 351.03,93.75 L 360.38,94.01 L 380.95,101.68 L 385.12,106.33 L 366.20,96.46 L 364.05,98.66 L 372.78,115.39 L 387.64,119.85 L 423.75,114.15 L 577.90,120.24 L 584.85,117.14 L 615.36,130.29 L 622.44,159.36 L 637.55,183.92 L 638.99,205.81 L 612.53,218.27 L 601.22,230.04 L 624.76,241.00 L 626.71,245.83 L 620.07,267.29 L 627.77,277.36 L 624.65,282.70 L 650.00,306.66 L 640.74,309.25 L 646.90,314.34 L 648.23,323.54 L 641.92,330.82 L 627.00,332.77 L 576.28,375.59 L 579.87,391.20 L 577.07,397.31 L 585.64,401.40 L 585.73,406.25 L 545.08,395.37 L 539.48,388.24 L 523.15,383.12 L 496.58,383.51 L 489.10,390.41 L 477.65,384.51 L 459.09,384.99 L 450.02,389.41 L 445.76,396.67 L 431.30,395.55 L 431.73,384.91 L 424.63,384.44 L 416.16,373.95 L 400.41,384.85 L 391.45,385.12 L 391.40,379.58 L 385.01,378.65 L 382.78,370.18 Z" fill="#4A90D9" stroke="#1a5fa8" stroke-width="1.2"/>
<path d="M 390.41,355.74 L 382.84,356.84 L 384.24,355.74 L 390.41,355.74 Z" fill="#A8C8E8" stroke="none"/>
<path d="M 186.17,0.11 L 185.02,0.00 L 186.07,0.00 L 186.17,0.11 Z M 183.81,2.88 L 178.36,2.52 L 177.33,0.00 L 181.80,0.00 L 183.81,2.88 Z" fill="#A8C8E8" stroke="none"/>
<path d="M 79.30,174.40 L 73.03,169.22 L 77.23,164.51 L 82.28,168.68 L 79.30,174.40 Z" fill="#A8C8E8" stroke="none"/>
<path d="M 20.75,149.80 L 16.94,154.58 L 19.34,159.52 L 15.27,158.60 L 16.69,151.58 L 20.75,149.80 Z" fill="#A8C8E8" stroke="none"/>
<path d="M 164.65,264.15 L 162.64,267.09 L 163.15,264.43 L 164.65,264.15 Z" fill="#A8C8E8" stroke="none"/>
<path d="M 102.76,222.42 L 99.03,222.39 L 102.73,220.55 L 103.45,217.97 L 102.76,222.42 Z" fill="#A8C8E8" stroke="none"/>
<path d="M 83.93,180.96 L 83.61,180.05 L 84.31,179.47 L 83.93,180.96 Z" fill="#A8C8E8" stroke="none"/>
<path d="M 66.88,226.04 L 63.47,224.18 L 64.17,223.87 L 68.45,223.33 L 66.88,226.04 Z" fill="#A8C8E8" stroke="none"/>
<path d="M 90.10,223.66 L 88.43,222.39 L 91.50,223.82 L 90.10,223.66 Z" fill="#A8C8E8" stroke="none"/>
<path d="M 93.55,226.76 L 90.48,228.59 L 91.88,226.28 L 93.55,226.76 Z" fill="#A8C8E8" stroke="none"/>
<path d="M 126.41,222.40 L 125.02,222.03 L 126.12,221.24 L 126.41,222.40 Z" fill="#A8C8E8" stroke="none"/>
<path d="M 156.12,241.04 L 153.24,244.72 L 153.05,239.94 L 156.12,241.04 Z" fill="#A8C8E8" stroke="none"/>
<path d="M 176.90,170.21 L 174.14,168.35 L 176.39,163.46 L 176.90,170.21 Z" fill="#A8C8E8" stroke="none"/>
<path d="M 524.94,131.49 L 528.55,131.49 L 525.54,127.26 L 533.63,128.97 L 528.89,130.39 L 531.79,132.41 L 529.37,136.95 L 522.16,133.74 L 524.94,131.49 Z" fill="#A8C8E8" stroke="none"/>
<path d="M 427.32,151.67 L 425.09,155.38 L 420.45,158.99 L 424.41,154.53 L 420.77,149.69 L 427.32,151.67 Z" fill="#A8C8E8" stroke="none"/>
<path d="M 521.36,149.18 L 517.11,143.63 L 519.97,142.30 L 521.36,149.18 Z" fill="#A8C8E8" stroke="none"/>
<path d="M 529.54,152.39 L 532.34,155.68 L 523.75,154.58 L 523.84,151.34 L 521.00,155.68 L 521.36,149.18 L 534.37,150.88 L 529.54,152.39 Z" fill="#A8C8E8" stroke="none"/>
<path d="M 541.57,156.41 L 533.63,157.26 L 535.87,155.24 L 541.57,156.41 Z" fill="#A8C8E8" stroke="none"/>
<path d="M 534.03,139.16 L 526.48,144.38 L 531.29,140.14 L 530.20,137.56 L 534.03,139.16 Z" fill="#A8C8E8" stroke="none"/>
<path d="M 599.67,137.72 L 597.14,138.12 L 593.54,137.72 L 599.67,137.72 Z" fill="#A8C8E8" stroke="none"/>
<path d="M 782.61,95.02 L 777.15,91.37 L 778.87,90.06 L 783.69,91.32 L 782.61,95.02 Z" fill="#A8C8E8" stroke="none"/>
<path d="M 654.52,95.04 L 653.72,95.93 L 649.38,96.71 L 653.72,94.47 L 642.50,91.86 L 653.00,93.04 L 654.52,95.04 Z" fill="#A8C8E8" stroke="none"/>
<path d="M 442.34,100.18 L 446.87,103.43 L 463.53,101.81 L 435.26,113.41 L 432.92,109.52 L 442.34,100.18 Z" fill="#A8C8E8" stroke="none"/>
<path d="M 411.56,126.38 L 412.62,123.78 L 404.77,120.84 L 432.92,109.52 L 435.26,113.41 L 411.56,126.38 Z" fill="#A8C8E8" stroke="none"/>
</svg>