<svg xmlns="http://www.w3.org/2000/svg" width="800" height="500" viewBox="0 0 800 500">
<rect width="800" height="500" fill="#A8C8E8"/>
<path d="M 487.51,199.27 L 482.05,200.09 L 497.52,195.91 L 508.76,199.27 L 487.51,199.27 Z M 488.50,142.19 L 500.23,145.73 L 442.04,142.53 L 488.50,142.19 Z M 760.06,176.48 L 712.79,215.03 L 697.53,209.76 L 685.51,215.47 L 700.86,229.33 L 680.88,240.02 L 670.49,231.11 L 656.81,254.67 L 615.07,262.83 L 587.58,250.77 L 534.68,264.73 L 474.54,246.62 L 502.07,230.25 L 597.74,220.07 L 673.53,170.06 L 794.89,137.20 L 697.41,147.97 L 735.01,118.97 L 686.74,150.81 L 687.06,138.27 L 628.94,139.78 L 630.58,127.60 L 612.70,129.56 L 601.98,144.04 L 620.33,145.73 L 617.77,163.64 L 569.91,179.60 L 572.23,170.47 L 553.46,173.67 L 572.23,161.93 L 559.93,156.78 L 490.13,173.67 L 532.81,150.10 L 429.05,165.13 L 562.14,136.13 L 490.93,138.98 L 534.68,97.63 L 524.44,92.29 L 504.53,118.36 L 454.70,132.69 L 431.79,110.43 L 424.34,143.45 L 394.09,143.69 L 392.39,124.40 L 385.57,145.73 L 294.64,144.76 L 300.50,151.78 L 280.97,142.53 L 293.06,153.30 L 271.66,159.16 L 182.88,152.56 L 176.54,142.53 L 27.58,145.73 L 0.00,141.84 L 0.00,0.00 L 800.00,0.00 L 800.00,182.73 L 760.06,176.48 Z M 775.00,199.25 L 766.43,205.77 L 762.02,200.25 L 775.00,199.25 Z" fill="#E8E0D0" stroke="#B8B0A0" stroke-width="0.5"/>
<path d="M 427.51,279.92 L 409.46,278.60 L 421.56,272.20 L 427.51,279.92 Z M 407.22,266.64 L 376.86,275.40 L 387.46,255.28 L 372.49,233.89 L 377.96,220.08 L 406.20,233.60 L 381.98,242.83 L 407.22,266.64 Z" fill="#4A90D9" stroke="#1a5fa8" stroke-width="1.2"/>
<path d="M 331.15,46.60 L 275.85,59.02 L 340.83,24.93 L 352.27,34.22 L 331.15,46.60 Z" fill="#A8C8E8" stroke="none"/>
<path d="M 465.67,64.44 L 447.17,54.78 L 474.39,50.78 L 486.35,53.50 L 465.67,64.44 Z" fill="#A8C8E8" stroke="none"/>
</svg>