<svg xmlns="http://www.w3.org/2000/svg" width="800" height="500" viewBox="0 0 800 500">
<rect width="800" height="500" fill="#A8C8E8"/>
<path d="M 0.45,134.13 L 76.11,194.62 L 53.43,228.90 L 28.57,225.09 L 17.73,251.25 L 0.00,252.85 L 0.00,134.07 L 0.45,134.13 Z M 31.76,267.97 L 0.00,256.98 L 0.00,254.89 L 31.76,267.97 Z" fill="#E8E0D0" stroke="#B8B0A0" stroke-width="0.5"/>
<path d="M 759.31,329.00 L 717.41,334.39 L 720.90,319.84 L 780.03,323.63 L 759.31,329.00 Z M 753.06,237.43 L 734.92,233.53 L 745.05,226.45 L 761.20,232.21 L 753.06,237.43 Z M 720.46,237.25 L 690.13,229.56 L 707.18,224.41 L 720.46,237.25 Z" fill="#E8E0D0" stroke="#B8B0A0" stroke-width="0.5"/>
<path d="M 751.18,224.48 L 764.68,214.33 L 787.97,216.18 L 751.18,224.48 Z M 777.88,232.53 L 771.90,229.25 L 776.49,228.48 L 777.88,232.53 Z M 748.15,216.40 L 740.01,215.71 L 741.05,214.56 L 748.15,216.40 Z M 785.67,210.38 L 784.30,212.57 L 783.75,209.37 L 785.67,210.38 Z" fill="#E8E0D0" stroke="#B8B0A0" stroke-width="0.5"/>
<path d="M 162.06,276.47 L 150.00,270.10 L 153.37,266.93 L 165.28,266.90 L 162.06,276.47 Z M 607.56,271.17 L 589.62,265.74 L 646.44,263.39 L 607.56,271.17 Z M 643.30,237.95 L 635.57,231.59 L 650.00,234.21 L 643.30,237.95 Z M 585.31,251.18 L 560.32,256.28 L 522.73,289.43 L 473.29,296.86 L 367.03,284.48 L 290.54,294.96 L 296.57,253.04 L 274.38,228.28 L 305.92,203.14 L 440.07,208.03 L 581.98,224.03 L 585.31,251.18 Z" fill="#4A90D9" stroke="#1a5fa8" stroke-width="1.2"/>
</svg>