<svg xmlns="http://www.w3.org/2000/svg" width="800" height="500" viewBox="0 0 800 500">
<rect width="800" height="500" fill="#A8C8E8"/>
<path d="M 82.02,134.13 L 142.23,194.62 L 124.18,228.90 L 104.40,225.09 L 95.77,251.25 L 81.66,252.85 L 81.66,134.07 L 82.02,134.13 Z M 106.94,267.97 L 81.66,256.98 L 81.66,254.89 L 106.94,267.97 Z" fill="#E8E0D0" stroke="#B8B0A0" stroke-width="0.5"/>
<path d="M 685.95,329.00 L 652.61,334.39 L 655.39,319.84 L 702.44,323.63 L 685.95,329.00 Z M 680.98,237.43 L 666.54,233.53 L 674.61,226.45 L 687.45,232.21 L 680.98,237.43 Z M 655.03,237.25 L 630.89,229.56 L 644.47,224.41 L 655.03,237.25 Z" fill="#E8E0D0" stroke="#B8B0A0" stroke-width="0.5"/>
<path d="M 679.48,224.48 L 690.23,214.33 L 708.76,216.18 L 679.48,224.48 Z M 700.73,232.53 L 695.97,229.25 L 699.63,228.48 L 700.73,232.53 Z M 677.07,216.40 L 670.59,215.71 L 671.42,214.56 L 677.07,216.40 Z M 706.93,210.38 L 705.84,212.57 L 705.40,209.37 L 706.93,210.38 Z" fill="#E8E0D0" stroke="#B8B0A0" stroke-width="0.5"/>
<path d="M 210.64,276.47 L 201.04,270.10 L 203.72,266.93 L 213.20,266.90 L 210.64,276.47 Z M 565.18,271.17 L 550.91,265.74 L 596.13,263.39 L 565.18,271.17 Z M 593.63,237.95 L 587.47,231.59 L 598.96,234.21 L 593.63,237.95 Z M 547.48,251.18 L 527.59,256.28 L 497.67,289.43 L 458.33,296.86 L 373.76,284.48 L 312.89,294.96 L 317.69,253.04 L 300.03,228.28 L 325.13,203.14 L 431.89,208.03 L 544.83,224.03 L 547.48,251.18 Z" fill="#4A90D9" stroke="#1a5fa8" stroke-width="1.2"/>
</svg>