<svg xmlns="http://www.w3.org/2000/svg" width="800" height="500" viewBox="0 0 800 500">
<rect width="800" height="500" fill="#A8C8E8"/>
<path d="M 499.73,0.00 L 658.79,0.00 L 580.81,37.02 L 567.22,30.63 L 549.88,60.88 L 456.16,60.63 L 499.73,0.00 Z" fill="#E8E0D0" stroke="#B8B0A0" stroke-width="0.5"/>
<path d="M 651.86,83.14 L 620.81,22.29 L 662.28,0.00 L 800.00,0.00 L 800.00,173.62 L 776.82,171.52 L 619.24,114.48 L 651.86,83.14 Z" fill="#E8E0D0" stroke="#B8B0A0" stroke-width="0.5"/>
<path d="M 318.85,302.69 L 300.15,295.92 L 357.83,238.35 L 416.73,103.58 L 445.54,96.67 L 454.75,60.85 L 549.88,60.88 L 567.22,30.63 L 580.81,37.02 L 635.12,10.99 L 622.00,31.93 L 651.86,83.14 L 619.24,114.48 L 569.98,130.65 L 570.09,170.68 L 477.53,146.15 L 441.02,162.96 L 420.20,199.29 L 439.60,245.06 L 424.20,256.82 L 476.39,260.67 L 485.35,249.67 L 495.55,270.07 L 423.25,288.54 L 399.55,330.34 L 471.07,330.43 L 544.48,310.22 L 528.77,346.78 L 539.47,370.83 L 464.85,476.07 L 465.51,500.00 L 331.83,500.00 L 241.93,354.00 L 318.85,302.69 Z" fill="#C8D8E8" stroke="#8BAABB" stroke-width="0.8"/>
<path d="M 327.49,500.00 L 0.00,500.00 L 0.00,370.66 L 31.45,362.75 L 54.73,367.03 L 91.84,368.72 L 229.91,337.93 L 327.49,500.00 Z M 4.52,353.79 L 48.83,364.89 L 0.00,353.78 L 0.00,353.40 L 4.52,353.79 Z" fill="#C8D8E8" stroke="#8BAABB" stroke-width="0.8"/>
<path d="M 653.78,119.34 L 696.41,149.96 L 800.00,167.82 L 800.00,500.00 L 465.51,500.00 L 464.85,476.07 L 539.47,370.83 L 528.77,346.78 L 569.70,267.45 L 560.55,221.75 L 582.79,124.24 L 653.78,119.34 Z" fill="#C8D8E8" stroke="#8BAABB" stroke-width="0.8"/>
<path d="M 318.85,302.69 L 241.93,354.00 L 229.91,337.93 L 300.15,295.92 L 318.85,302.69 Z M 419.40,201.65 L 445.93,158.42 L 482.00,146.00 L 570.09,170.68 L 569.70,267.45 L 544.53,310.23 L 471.07,330.43 L 399.55,330.34 L 423.25,288.54 L 495.55,270.07 L 485.35,249.67 L 476.39,260.67 L 424.20,256.82 L 439.60,245.06 L 419.40,201.65 Z" fill="#4A90D9" stroke="#1a5fa8" stroke-width="1.2"/>
<path d="M 588.37,113.25 L 574.10,118.26 L 560.78,97.66 L 589.77,97.98 L 588.37,113.25 Z" fill="#A8C8E8" stroke="none"/>
<path d="M 572.85,313.88 L 558.05,339.40 L 557.46,329.61 L 533.55,336.00 L 528.03,306.70 L 569.61,267.42 L 572.85,313.88 Z" fill="#A8C8E8" stroke="none"/>
<path d="M 544.66,373.39 L 519.49,354.17 L 535.17,347.73 L 557.61,355.87 L 544.66,373.39 Z" fill="#A8C8E8" stroke="none"/>
</svg>