<svg xmlns="http://www.w3.org/2000/svg" width="800" height="500" viewBox="0 0 800 500">
<rect width="800" height="500" fill="#A8C8E8"/>
<path d="M 452.93,0.00 L 537.35,0.00 L 495.96,37.02 L 488.75,30.63 L 479.55,60.88 L 429.80,60.63 L 452.93,0.00 Z" fill="#E8E0D0" stroke="#B8B0A0" stroke-width="0.5"/>
<path d="M 533.67,83.14 L 517.19,22.29 L 539.20,0.00 L 612.30,0.00 L 612.30,173.62 L 599.99,171.52 L 516.36,114.48 L 533.67,83.14 Z" fill="#E8E0D0" stroke="#B8B0A0" stroke-width="0.5"/>
<path d="M 356.93,302.69 L 347.00,295.92 L 377.62,238.35 L 408.88,103.58 L 424.17,96.67 L 429.06,60.85 L 479.55,60.88 L 488.75,30.63 L 495.96,37.02 L 524.79,10.99 L 517.82,31.93 L 533.67,83.14 L 516.36,114.48 L 490.22,130.65 L 490.27,170.68 L 441.15,146.15 L 421.77,162.96 L 410.72,199.29 L 421.02,245.06 L 412.85,256.82 L 440.54,260.67 L 445.30,249.67 L 450.71,270.07 L 412.34,288.54 L 399.76,330.34 L 437.72,330.43 L 476.68,310.22 L 468.34,346.78 L 474.02,370.83 L 434.42,476.07 L 434.77,500.00 L 363.82,500.00 L 316.11,354.00 L 356.93,302.69 Z" fill="#C8D8E8" stroke="#8BAABB" stroke-width="0.8"/>
<path d="M 361.52,500.00 L 187.70,500.00 L 187.70,370.66 L 204.40,362.75 L 216.75,367.03 L 236.45,368.72 L 309.73,337.93 L 361.52,500.00 Z M 190.10,353.79 L 213.62,364.89 L 187.70,353.78 L 187.70,353.40 L 190.10,353.79 Z" fill="#C8D8E8" stroke="#8BAABB" stroke-width="0.8"/>
<path d="M 534.69,119.34 L 557.32,149.96 L 612.30,167.82 L 612.30,500.00 L 434.77,500.00 L 434.42,476.07 L 474.02,370.83 L 468.34,346.78 L 490.07,267.45 L 485.21,221.75 L 497.01,124.24 L 534.69,119.34 Z" fill="#C8D8E8" stroke="#8BAABB" stroke-width="0.8"/>
<path d="M 356.93,302.69 L 316.11,354.00 L 309.73,337.93 L 347.00,295.92 L 356.93,302.69 Z M 410.30,201.65 L 424.38,158.42 L 443.52,146.00 L 490.27,170.68 L 490.07,267.45 L 476.71,310.23 L 437.72,330.43 L 399.76,330.34 L 412.34,288.54 L 450.71,270.07 L 445.30,249.67 L 440.54,260.67 L 412.85,256.82 L 421.02,245.06 L 410.30,201.65 Z" fill="#4A90D9" stroke="#1a5fa8" stroke-width="1.2"/>
<path d="M 499.98,113.25 L 492.40,118.26 L 485.33,97.66 L 500.72,97.98 L 499.98,113.25 Z" fill="#A8C8E8" stroke="none"/>
<path d="M 491.74,313.88 L 483.89,339.40 L 483.57,329.61 L 470.88,336.00 L 467.95,306.70 L 490.02,267.42 L 491.74,313.88 Z" fill="#A8C8E8" stroke="none"/>
<path d="M 476.78,373.39 L 463.42,354.17 L 471.74,347.73 L 483.65,355.87 L 476.78,373.39 Z" fill="#A8C8E8" stroke="none"/>
</svg>