<svg xmlns="http://www.w3.org/2000/svg" width="800" height="500" viewBox="0 0 800 500">
<rect width="800" height="500" fill="#A8C8E8"/>
<path d="M 789.96,83.68 L 786.84,83.51 L 786.58,87.31 L 772.97,87.29 L 767.31,83.41 L 762.40,85.13 L 758.60,80.84 L 750.82,79.38 L 748.10,76.83 L 744.69,78.41 L 745.76,73.52 L 741.41,73.43 L 737.93,70.29 L 740.63,69.66 L 744.30,65.21 L 748.68,41.13 L 750.09,38.43 L 752.92,38.33 L 750.37,35.64 L 748.62,39.37 L 752.11,16.13 L 758.47,22.13 L 759.47,26.85 L 763.09,32.76 L 761.86,29.56 L 763.90,30.22 L 760.67,27.73 L 757.89,18.40 L 748.88,12.65 L 750.27,10.65 L 751.16,10.65 L 754.06,12.47 L 752.46,10.65 L 800.00,10.65 L 800.00,86.56 L 789.96,83.68 Z" fill="#E8E0D0" stroke="#B8B0A0" stroke-width="0.5"/>
<path d="M 598.40,471.38 L 586.07,472.17 L 578.00,478.05 L 573.71,476.56 L 569.35,477.79 L 559.26,473.86 L 546.60,477.23 L 547.69,483.40 L 544.24,489.35 L 491.72,489.35 L 503.34,480.53 L 511.11,457.44 L 515.47,451.43 L 533.24,447.47 L 544.72,441.63 L 553.15,431.10 L 562.90,425.23 L 569.39,417.60 L 581.22,397.18 L 582.09,390.33 L 576.57,384.32 L 578.08,379.90 L 577.39,365.71 L 588.75,346.11 L 589.10,336.73 L 603.67,319.65 L 623.62,310.67 L 637.71,300.63 L 648.28,279.87 L 655.56,257.67 L 666.09,254.12 L 669.07,262.51 L 672.73,266.63 L 678.62,270.98 L 686.49,273.19 L 695.60,270.35 L 698.23,271.77 L 699.98,269.76 L 707.56,271.95 L 712.39,269.83 L 714.55,265.92 L 716.80,273.69 L 718.95,274.07 L 716.35,270.85 L 720.57,274.26 L 728.38,274.23 L 738.46,283.32 L 736.44,286.89 L 739.79,289.77 L 737.66,292.42 L 740.45,299.65 L 738.92,308.95 L 741.50,312.60 L 740.36,320.41 L 743.85,324.80 L 742.67,327.92 L 745.37,332.64 L 753.17,338.76 L 748.94,342.15 L 747.64,346.83 L 749.91,347.36 L 749.61,348.75 L 723.58,347.70 L 716.30,349.08 L 715.15,349.76 L 717.36,356.03 L 700.78,359.65 L 700.50,366.03 L 697.67,367.32 L 697.12,371.44 L 699.34,371.29 L 702.87,376.72 L 700.78,379.66 L 701.06,382.76 L 686.56,387.76 L 670.54,400.87 L 663.29,412.08 L 659.67,412.08 L 658.97,409.84 L 648.66,410.70 L 638.48,413.98 L 631.24,412.42 L 627.20,415.53 L 621.13,415.71 L 600.91,432.10 L 600.62,458.02 L 597.93,458.02 L 598.40,471.38 Z" fill="#E8E0D0" stroke="#B8B0A0" stroke-width="0.5"/>
<path d="M 600.62,458.02 L 600.54,489.35 L 544.24,489.35 L 547.69,483.40 L 546.60,477.23 L 559.26,473.86 L 569.35,477.79 L 573.71,476.56 L 578.00,478.05 L 586.07,472.17 L 598.40,471.38 L 597.93,458.02 L 600.62,458.02 Z" fill="#E8E0D0" stroke="#B8B0A0" stroke-width="0.5"/>
<path d="M 600.62,467.30 L 600.69,432.57 L 621.81,415.38 L 627.20,415.53 L 631.24,412.42 L 638.48,413.98 L 645.87,411.04 L 658.97,409.84 L 659.67,412.08 L 663.29,412.08 L 670.54,400.87 L 686.56,387.76 L 701.06,382.76 L 700.78,379.66 L 702.87,376.72 L 699.34,371.29 L 697.12,371.44 L 697.67,367.32 L 700.50,366.03 L 700.78,359.65 L 717.36,356.03 L 715.15,349.76 L 716.30,349.08 L 723.58,347.70 L 749.61,348.75 L 749.91,347.36 L 747.64,346.83 L 748.94,342.15 L 753.17,338.76 L 745.37,332.64 L 742.67,327.92 L 743.85,324.80 L 740.36,320.41 L 741.50,312.60 L 738.92,308.95 L 740.45,299.65 L 737.66,292.42 L 739.79,289.77 L 736.44,286.89 L 738.46,283.32 L 730.00,276.84 L 729.43,274.73 L 738.63,273.73 L 747.93,267.94 L 753.15,260.09 L 757.76,257.84 L 761.26,259.09 L 764.19,254.97 L 772.09,257.33 L 780.57,247.17 L 800.00,239.06 L 800.00,489.35 L 630.65,489.35 L 600.62,467.30 Z" fill="#E8E0D0" stroke="#B8B0A0" stroke-width="0.5"/>
<path d="M 667.29,248.77 L 667.23,249.53 L 667.06,249.31 L 667.29,248.77 Z" fill="#E8E0D0" stroke="#B8B0A0" stroke-width="0.5"/>
<path d="M 630.65,489.35 L 600.55,489.35 L 600.62,467.30 L 630.65,489.35 Z" fill="#E8E0D0" stroke="#B8B0A0" stroke-width="0.5"/>
<path d="M 666.50,255.18 L 666.09,254.12 L 668.40,254.44 L 666.50,255.18 Z M 715.48,269.83 L 715.66,270.10 L 714.65,269.87 L 715.48,269.83 Z M 738.91,72.34 L 745.76,73.52 L 744.69,78.41 L 748.10,76.83 L 750.82,79.38 L 758.60,80.84 L 762.40,85.13 L 767.31,83.41 L 772.97,87.29 L 777.12,86.27 L 779.24,87.70 L 786.84,87.22 L 786.84,83.51 L 789.96,83.68 L 800.00,86.56 L 800.00,125.93 L 794.04,127.60 L 787.99,133.44 L 790.86,136.62 L 787.25,139.61 L 785.56,139.19 L 788.36,137.91 L 784.98,138.99 L 767.30,165.49 L 770.60,178.18 L 778.42,184.59 L 763.58,194.55 L 763.70,197.79 L 761.31,198.90 L 758.58,207.93 L 756.68,209.26 L 759.68,212.29 L 747.35,213.71 L 740.43,218.62 L 737.60,222.47 L 735.85,229.03 L 731.34,234.08 L 726.66,231.61 L 722.69,232.05 L 719.55,235.43 L 715.26,233.71 L 685.95,234.39 L 680.84,239.73 L 670.33,242.11 L 667.29,248.77 L 665.56,247.82 L 665.30,250.71 L 661.85,252.10 L 653.37,247.58 L 647.93,239.08 L 649.49,240.59 L 650.53,239.58 L 646.24,236.54 L 645.47,233.72 L 647.22,232.64 L 647.36,230.45 L 649.65,229.99 L 650.22,229.26 L 647.23,230.02 L 646.37,232.31 L 644.14,228.58 L 636.30,223.47 L 637.10,220.29 L 634.91,221.81 L 635.59,223.33 L 625.90,222.82 L 623.91,212.74 L 628.73,203.47 L 633.69,202.35 L 635.21,198.05 L 632.10,198.62 L 627.00,191.89 L 628.77,184.71 L 633.05,181.80 L 634.70,177.88 L 629.02,173.01 L 627.91,166.94 L 623.05,161.45 L 633.74,161.10 L 636.57,153.33 L 633.31,149.08 L 638.27,144.76 L 637.02,142.64 L 637.83,132.41 L 635.31,128.48 L 638.07,127.29 L 641.21,122.27 L 647.70,118.73 L 650.00,114.80 L 643.31,112.62 L 643.65,107.47 L 641.95,105.13 L 631.27,104.51 L 629.81,107.18 L 625.34,108.99 L 619.77,106.69 L 616.29,107.71 L 616.10,106.33 L 610.65,108.87 L 609.64,106.55 L 612.33,103.19 L 610.16,102.48 L 609.79,100.41 L 601.73,102.94 L 596.65,106.83 L 596.37,101.26 L 597.75,100.98 L 601.81,95.63 L 596.93,97.87 L 601.16,93.31 L 597.41,94.24 L 595.43,92.62 L 597.75,92.80 L 599.65,87.21 L 593.76,90.80 L 593.68,86.74 L 596.53,83.69 L 592.29,85.51 L 591.60,81.56 L 588.84,82.16 L 588.71,78.17 L 592.14,76.04 L 589.95,75.69 L 595.63,73.72 L 594.52,72.54 L 597.68,71.10 L 600.41,72.28 L 607.63,69.51 L 610.03,71.79 L 610.73,69.25 L 608.14,68.39 L 610.86,67.38 L 607.58,67.89 L 607.99,65.53 L 616.05,60.61 L 617.05,63.04 L 620.50,59.94 L 620.38,61.58 L 626.85,62.74 L 628.76,65.68 L 633.28,65.72 L 633.28,67.70 L 635.28,65.56 L 652.73,65.47 L 657.05,63.16 L 660.54,65.68 L 666.19,65.82 L 665.79,67.02 L 684.38,70.06 L 697.44,67.26 L 698.59,67.70 L 697.75,69.02 L 702.37,66.74 L 705.32,68.00 L 704.73,69.35 L 713.76,71.60 L 714.99,68.89 L 718.54,68.36 L 720.09,70.45 L 731.32,72.43 L 737.97,70.00 L 738.91,72.34 Z M 417.23,454.24 L 415.23,458.49 L 411.63,456.52 L 416.14,453.32 L 417.23,454.24 Z M 467.11,453.31 L 463.12,456.22 L 458.27,451.60 L 460.56,445.53 L 466.48,445.23 L 467.11,453.31 Z M 430.52,444.60 L 432.80,447.18 L 429.62,449.06 L 427.92,447.26 L 428.59,444.55 L 430.52,444.60 Z M 443.82,449.07 L 440.89,449.67 L 436.44,440.91 L 444.59,439.20 L 448.40,435.55 L 452.36,435.55 L 447.62,440.26 L 443.82,449.07 Z M 498.09,432.84 L 495.91,443.64 L 487.74,448.41 L 484.47,447.91 L 490.11,444.27 L 495.13,431.51 L 498.09,432.84 Z M 420.39,431.64 L 418.07,438.43 L 414.89,430.42 L 416.60,428.55 L 419.69,429.47 L 420.39,431.64 Z M 506.19,419.83 L 504.91,425.00 L 499.08,428.95 L 497.23,428.32 L 498.60,423.80 L 503.81,421.58 L 504.89,419.07 L 506.19,419.83 Z M 504.71,419.00 L 503.73,419.33 L 504.39,417.85 L 504.71,419.00 Z M 758.99,210.25 L 759.26,211.17 L 758.85,210.71 L 758.70,208.47 L 758.99,210.25 Z M 798.01,181.06 L 800.00,177.68 L 800.00,181.76 L 798.01,181.06 Z M 688.03,272.67 L 688.07,272.68 L 687.97,272.67 L 688.03,272.67 Z M 695.93,271.60 L 695.94,271.62 L 695.93,271.63 L 695.93,271.60 Z M 695.98,271.56 L 695.98,271.57 L 695.95,271.57 L 695.98,271.56 Z M 725.31,272.34 L 725.36,272.44 L 725.26,272.52 L 725.31,272.34 Z M 665.75,254.39 L 665.71,254.46 L 665.66,254.37 L 665.75,254.39 Z" fill="#C8D8E8" stroke="#8BAABB" stroke-width="0.8"/>
<path d="M 628.77,184.71 L 627.00,191.89 L 632.10,198.62 L 635.21,198.05 L 633.69,202.35 L 628.73,203.47 L 623.60,213.58 L 626.04,223.51 L 617.82,227.61 L 602.66,224.52 L 594.33,227.05 L 599.23,209.55 L 598.10,209.74 L 598.18,205.33 L 596.38,204.08 L 598.78,198.29 L 598.37,194.04 L 595.43,191.03 L 598.30,192.39 L 602.13,192.57 L 599.55,191.75 L 598.81,188.95 L 598.51,191.03 L 596.16,190.26 L 589.69,192.57 L 590.62,189.29 L 589.25,186.48 L 592.14,186.65 L 595.43,183.77 L 594.06,180.37 L 598.97,175.82 L 595.56,177.22 L 592.29,182.42 L 592.04,185.28 L 584.88,185.57 L 584.37,182.92 L 587.29,173.36 L 586.12,168.97 L 589.95,168.20 L 592.48,163.93 L 596.92,150.47 L 598.57,150.62 L 596.11,148.60 L 599.21,137.74 L 602.81,134.91 L 600.90,135.11 L 600.59,134.23 L 601.35,133.23 L 601.16,132.70 L 599.26,137.43 L 601.30,125.11 L 599.53,122.72 L 597.67,112.30 L 600.34,111.06 L 596.67,110.69 L 596.93,107.68 L 601.73,102.94 L 609.79,100.41 L 610.16,102.48 L 612.33,103.19 L 609.61,107.01 L 612.36,108.97 L 616.10,106.33 L 616.29,107.71 L 619.77,106.69 L 625.34,108.99 L 629.81,107.18 L 630.98,104.55 L 641.95,105.13 L 643.65,107.47 L 643.31,112.62 L 650.00,114.80 L 647.70,118.73 L 641.21,122.27 L 638.07,127.29 L 635.31,128.48 L 637.83,132.41 L 637.02,142.64 L 638.27,144.76 L 633.31,149.08 L 636.57,153.33 L 633.74,161.10 L 623.05,161.45 L 627.91,166.94 L 629.30,173.40 L 634.45,176.58 L 632.08,182.49 L 628.77,184.71 Z M 444.00,337.19 L 443.89,336.64 L 444.60,337.53 L 444.99,338.83 L 444.00,337.19 Z M 435.23,334.99 L 429.74,330.86 L 431.08,329.39 L 441.29,332.24 L 435.23,334.99 Z M 446.76,325.30 L 448.94,323.60 L 449.21,324.80 L 446.76,325.30 Z M 617.02,227.57 L 617.15,227.91 L 616.14,228.42 L 615.11,228.06 L 617.02,227.57 Z M 274.70,229.20 L 271.22,227.82 L 271.85,227.20 L 273.91,227.05 L 274.70,229.20 Z M 272.12,208.96 L 265.16,210.14 L 258.10,206.51 L 260.00,205.09 L 264.20,207.11 L 271.30,206.25 L 272.12,208.96 Z M 214.61,192.81 L 206.26,192.89 L 204.48,189.86 L 207.95,189.32 L 214.61,192.81 Z M 202.99,190.01 L 200.92,190.20 L 198.62,188.11 L 203.26,188.16 L 202.99,190.01 Z M 220.20,189.36 L 214.73,188.34 L 209.13,184.27 L 220.20,189.36 Z M 230.81,187.08 L 227.55,184.18 L 232.49,183.26 L 234.96,185.79 L 230.81,187.08 Z M 214.19,177.33 L 214.33,175.82 L 216.57,176.92 L 214.19,177.33 Z M 152.98,167.79 L 150.52,169.39 L 150.00,167.29 L 151.46,165.68 L 152.98,167.79 Z M 154.00,161.12 L 152.98,161.97 L 152.56,160.93 L 154.00,161.12 Z M 454.24,399.52 L 454.25,399.59 L 454.16,399.58 L 454.24,399.52 Z M 457.59,396.69 L 457.50,397.02 L 457.20,396.91 L 457.59,396.69 Z M 593.46,181.95 L 592.70,182.67 L 593.06,181.87 L 593.46,181.95 Z" fill="#4A90D9" stroke="#1a5fa8" stroke-width="1.2"/>
<path d="M 668.53,158.91 L 658.08,159.08 L 654.19,157.21 L 661.24,158.53 L 666.49,155.86 L 668.10,158.42 L 669.63,158.07 L 668.53,158.91 Z" fill="#A8C8E8" stroke="none"/>
<path d="M 722.36,135.68 L 719.43,141.16 L 719.61,138.46 L 722.36,135.68 Z" fill="#A8C8E8" stroke="none"/>
<path d="M 673.58,169.34 L 674.00,169.41 L 672.75,171.49 L 673.58,169.34 Z" fill="#A8C8E8" stroke="none"/>
<path d="M 670.78,172.91 L 670.44,174.30 L 670.85,171.25 L 672.75,171.49 L 670.78,172.91 Z" fill="#A8C8E8" stroke="none"/>
<path d="M 673.04,167.87 L 674.91,167.74 L 677.14,168.54 L 674.85,168.31 L 678.64,172.09 L 673.04,167.87 Z" fill="#A8C8E8" stroke="none"/>
<path d="M 720.52,142.64 L 720.45,145.55 L 718.41,143.53 L 720.87,141.92 L 723.95,142.76 L 720.52,142.64 Z" fill="#A8C8E8" stroke="none"/>
</svg>