<svg xmlns="http://www.w3.org/2000/svg" width="800" height="500" viewBox="0 0 800 500">
<rect width="800" height="500" fill="#A8C8E8"/>
<path d="M 789.96,76.28 L 786.84,76.10 L 786.58,80.07 L 772.97,80.05 L 767.31,75.99 L 762.40,77.80 L 758.60,73.31 L 750.82,71.79 L 748.10,69.12 L 744.69,70.77 L 745.76,65.66 L 741.41,65.57 L 737.93,62.29 L 740.63,61.63 L 744.30,56.98 L 748.68,31.83 L 750.09,29.01 L 752.92,28.91 L 750.37,26.10 L 748.62,29.99 L 752.11,5.72 L 758.47,11.98 L 759.47,16.92 L 763.09,23.09 L 761.86,19.75 L 763.90,20.44 L 760.67,17.83 L 757.89,8.09 L 748.88,2.09 L 750.27,0.00 L 751.16,0.00 L 754.06,1.90 L 752.46,0.00 L 800.00,0.00 L 800.00,79.29 L 789.96,76.28 Z" fill="#E8E0D0" stroke="#B8B0A0" stroke-width="0.5"/>
<path d="M 598.40,481.23 L 586.07,482.06 L 578.00,488.20 L 573.71,486.64 L 569.35,487.92 L 559.26,483.82 L 546.60,487.35 L 547.69,493.79 L 544.24,500.00 L 491.72,500.00 L 503.34,490.79 L 511.11,466.67 L 515.47,460.39 L 533.24,456.26 L 544.72,450.16 L 553.15,439.16 L 562.90,433.03 L 569.39,425.06 L 581.22,403.73 L 582.09,396.58 L 576.57,390.30 L 578.08,385.68 L 577.39,370.86 L 588.75,350.39 L 589.10,340.59 L 603.67,322.75 L 623.62,313.37 L 637.71,302.88 L 648.28,281.20 L 655.56,258.01 L 666.09,254.30 L 669.07,263.06 L 672.73,267.37 L 678.62,271.92 L 686.49,274.22 L 695.60,271.25 L 698.23,272.74 L 699.98,270.63 L 707.56,272.93 L 712.39,270.71 L 714.55,266.62 L 716.80,274.75 L 718.95,275.14 L 716.35,271.78 L 720.57,275.34 L 728.38,275.31 L 738.46,284.80 L 736.44,288.53 L 739.79,291.54 L 737.66,294.31 L 740.45,301.86 L 738.92,311.58 L 741.50,315.39 L 740.36,323.55 L 743.85,328.13 L 742.67,331.39 L 745.37,336.32 L 753.17,342.71 L 748.94,346.26 L 747.64,351.14 L 749.91,351.69 L 749.61,353.14 L 723.58,352.05 L 716.30,353.49 L 715.15,354.20 L 717.36,360.75 L 700.78,364.53 L 700.50,371.20 L 697.67,372.54 L 697.12,376.84 L 699.34,376.68 L 702.87,382.37 L 700.78,385.43 L 701.06,388.67 L 686.56,393.89 L 670.54,407.58 L 663.29,419.29 L 659.67,419.29 L 658.97,416.95 L 648.66,417.85 L 638.48,421.27 L 631.24,419.65 L 627.20,422.90 L 621.13,423.08 L 600.91,440.21 L 600.62,467.28 L 597.93,467.28 L 598.40,481.23 Z" fill="#E8E0D0" stroke="#B8B0A0" stroke-width="0.5"/>
<path d="M 600.62,467.28 L 600.54,500.00 L 544.24,500.00 L 547.69,493.79 L 546.60,487.35 L 559.26,483.82 L 569.35,487.92 L 573.71,486.64 L 578.00,488.20 L 586.07,482.06 L 598.40,481.23 L 597.93,467.28 L 600.62,467.28 Z" fill="#E8E0D0" stroke="#B8B0A0" stroke-width="0.5"/>
<path d="M 600.62,476.97 L 600.69,440.70 L 621.81,422.74 L 627.20,422.90 L 631.24,419.65 L 638.48,421.27 L 645.87,418.21 L 658.97,416.95 L 659.67,419.29 L 663.29,419.29 L 670.54,407.58 L 686.56,393.89 L 701.06,388.67 L 700.78,385.43 L 702.87,382.37 L 699.34,376.68 L 697.12,376.84 L 697.67,372.54 L 700.50,371.20 L 700.78,364.53 L 717.36,360.75 L 715.15,354.20 L 716.30,353.49 L 723.58,352.05 L 749.61,353.14 L 749.91,351.69 L 747.64,351.14 L 748.94,346.26 L 753.17,342.71 L 745.37,336.32 L 742.67,331.39 L 743.85,328.13 L 740.36,323.55 L 741.50,315.39 L 738.92,311.58 L 740.45,301.86 L 737.66,294.31 L 739.79,291.54 L 736.44,288.53 L 738.46,284.80 L 730.00,278.04 L 729.43,275.83 L 738.63,274.79 L 747.93,268.73 L 753.15,260.54 L 757.76,258.18 L 761.26,259.50 L 764.19,255.19 L 772.09,257.66 L 780.57,247.05 L 800.00,238.57 L 800.00,500.00 L 630.65,500.00 L 600.62,476.97 Z" fill="#E8E0D0" stroke="#B8B0A0" stroke-width="0.5"/>
<path d="M 667.29,248.72 L 667.23,249.51 L 667.06,249.28 L 667.29,248.72 Z" fill="#E8E0D0" stroke="#B8B0A0" stroke-width="0.5"/>
<path d="M 630.65,500.00 L 600.55,500.00 L 600.62,476.97 L 630.65,500.00 Z" fill="#E8E0D0" stroke="#B8B0A0" stroke-width="0.5"/>
<path d="M 666.50,255.41 L 666.09,254.30 L 668.40,254.63 L 666.50,255.41 Z M 715.48,270.71 L 715.66,270.99 L 714.65,270.75 L 715.48,270.71 Z M 738.91,64.43 L 745.76,65.66 L 744.69,70.77 L 748.10,69.12 L 750.82,71.79 L 758.60,73.31 L 762.40,77.80 L 767.31,75.99 L 772.97,80.05 L 777.12,78.99 L 779.24,80.47 L 786.84,79.98 L 786.84,76.10 L 789.96,76.28 L 800.00,79.29 L 800.00,120.41 L 794.04,122.15 L 787.99,128.25 L 790.86,131.57 L 787.25,134.69 L 785.56,134.26 L 788.36,132.92 L 784.98,134.05 L 767.30,161.73 L 770.60,174.98 L 778.42,181.68 L 763.58,192.09 L 763.70,195.47 L 761.31,196.62 L 758.58,206.06 L 756.68,207.44 L 759.68,210.61 L 747.35,212.10 L 740.43,217.22 L 737.60,221.25 L 735.85,228.10 L 731.34,233.38 L 726.66,230.79 L 722.69,231.25 L 719.55,234.78 L 715.26,232.98 L 685.95,233.70 L 680.84,239.27 L 670.33,241.76 L 667.29,248.72 L 665.56,247.72 L 665.30,250.74 L 661.85,252.19 L 653.37,247.47 L 647.93,238.59 L 649.49,240.17 L 650.53,239.12 L 646.24,235.94 L 645.47,232.99 L 647.22,231.87 L 647.36,229.58 L 649.65,229.10 L 650.22,228.33 L 647.23,229.13 L 646.37,231.53 L 644.14,227.62 L 636.30,222.29 L 637.10,218.97 L 634.91,220.56 L 635.59,222.14 L 625.90,221.61 L 623.91,211.08 L 628.73,201.40 L 633.69,200.23 L 635.21,195.74 L 632.10,196.33 L 627.00,189.30 L 628.77,181.80 L 633.05,178.77 L 634.70,174.67 L 629.02,169.59 L 627.91,163.24 L 623.05,157.51 L 633.74,157.15 L 636.57,149.02 L 633.31,144.58 L 638.27,140.07 L 637.02,137.86 L 637.83,127.17 L 635.31,123.07 L 638.07,121.82 L 641.21,116.59 L 647.70,112.89 L 650.00,108.79 L 643.31,106.50 L 643.65,101.13 L 641.95,98.68 L 631.27,98.03 L 629.81,100.83 L 625.34,102.71 L 619.77,100.31 L 616.29,101.37 L 616.10,99.93 L 610.65,102.59 L 609.64,100.17 L 612.33,96.65 L 610.16,95.92 L 609.79,93.75 L 601.73,96.39 L 596.65,100.46 L 596.37,94.64 L 597.75,94.35 L 601.81,88.75 L 596.93,91.10 L 601.16,86.33 L 597.41,87.30 L 595.43,85.61 L 597.75,85.81 L 599.65,79.97 L 593.76,83.71 L 593.68,79.47 L 596.53,76.29 L 592.29,78.19 L 591.60,74.06 L 588.84,74.68 L 588.71,70.52 L 592.14,68.30 L 589.95,67.93 L 595.63,65.87 L 594.52,64.64 L 597.68,63.14 L 600.41,64.37 L 607.63,61.48 L 610.03,63.86 L 610.73,61.20 L 608.14,60.31 L 610.86,59.25 L 607.58,59.78 L 607.99,57.32 L 616.05,52.18 L 617.05,54.71 L 620.50,51.48 L 620.38,53.19 L 626.85,54.41 L 628.76,57.47 L 633.28,57.52 L 633.28,59.58 L 635.28,57.35 L 652.73,57.25 L 657.05,54.85 L 660.54,57.47 L 666.19,57.62 L 665.79,58.88 L 684.38,62.05 L 697.44,59.12 L 698.59,59.58 L 697.75,60.97 L 702.37,58.58 L 705.32,59.90 L 704.73,61.30 L 713.76,63.66 L 714.99,60.83 L 718.54,60.27 L 720.09,62.46 L 731.32,64.53 L 737.97,61.99 L 738.91,64.43 Z M 417.23,463.33 L 415.23,467.77 L 411.63,465.71 L 416.14,462.37 L 417.23,463.33 Z M 467.11,462.36 L 463.12,465.40 L 458.27,460.57 L 460.56,454.24 L 466.48,453.92 L 467.11,462.36 Z M 430.52,453.26 L 432.80,455.96 L 429.62,457.92 L 427.92,456.04 L 428.59,453.21 L 430.52,453.26 Z M 443.82,457.93 L 440.89,458.56 L 436.44,449.40 L 444.59,447.62 L 448.40,443.81 L 452.36,443.81 L 447.62,448.73 L 443.82,457.93 Z M 498.09,440.98 L 495.91,452.26 L 487.74,457.25 L 484.47,456.72 L 490.11,452.92 L 495.13,439.59 L 498.09,440.98 Z M 420.39,439.72 L 418.07,446.82 L 414.89,438.45 L 416.60,436.50 L 419.69,437.46 L 420.39,439.72 Z M 506.19,427.39 L 504.91,432.79 L 499.08,436.91 L 497.23,436.26 L 498.60,431.54 L 503.81,429.21 L 504.89,426.59 L 506.19,427.39 Z M 504.71,426.52 L 503.73,426.87 L 504.39,425.32 L 504.71,426.52 Z M 758.99,208.48 L 759.26,209.44 L 758.85,208.96 L 758.70,206.62 L 758.99,208.48 Z M 798.01,178.00 L 800.00,174.46 L 800.00,178.72 L 798.01,178.00 Z M 688.03,273.68 L 688.07,273.69 L 687.97,273.68 L 688.03,273.68 Z M 695.93,272.57 L 695.94,272.58 L 695.93,272.60 L 695.93,272.57 Z M 695.98,272.52 L 695.98,272.53 L 695.95,272.53 L 695.98,272.52 Z M 725.31,273.34 L 725.36,273.44 L 725.26,273.52 L 725.31,273.34 Z M 665.75,254.59 L 665.71,254.65 L 665.66,254.57 L 665.75,254.59 Z" fill="#C8D8E8" stroke="#8BAABB" stroke-width="0.8"/>
<path d="M 628.77,181.80 L 627.00,189.30 L 632.10,196.33 L 635.21,195.74 L 633.69,200.23 L 628.73,201.40 L 623.60,211.96 L 626.04,222.33 L 617.82,226.62 L 602.66,223.39 L 594.33,226.03 L 599.23,207.75 L 598.10,207.95 L 598.18,203.34 L 596.38,202.03 L 598.78,195.99 L 598.37,191.55 L 595.43,188.40 L 598.30,189.83 L 602.13,190.02 L 599.55,189.16 L 598.81,186.24 L 598.51,188.40 L 596.16,187.60 L 589.69,190.02 L 590.62,186.59 L 589.25,183.66 L 592.14,183.83 L 595.43,180.82 L 594.06,177.27 L 598.97,172.51 L 595.56,173.98 L 592.29,179.41 L 592.04,182.40 L 584.88,182.70 L 584.37,179.94 L 587.29,169.95 L 586.12,165.36 L 589.95,164.56 L 592.48,160.10 L 596.92,146.04 L 598.57,146.20 L 596.11,144.09 L 599.21,132.74 L 602.81,129.78 L 600.90,129.99 L 600.59,129.07 L 601.35,128.03 L 601.16,127.48 L 599.26,132.42 L 601.30,119.55 L 599.53,117.05 L 597.67,106.17 L 600.34,104.88 L 596.67,104.49 L 596.93,101.34 L 601.73,96.39 L 609.79,93.75 L 610.16,95.92 L 612.33,96.65 L 609.61,100.65 L 612.36,102.69 L 616.10,99.93 L 616.29,101.37 L 619.77,100.31 L 625.34,102.71 L 629.81,100.83 L 630.98,98.08 L 641.95,98.68 L 643.65,101.13 L 643.31,106.50 L 650.00,108.79 L 647.70,112.89 L 641.21,116.59 L 638.07,121.82 L 635.31,123.07 L 637.83,127.17 L 637.02,137.86 L 638.27,140.07 L 633.31,144.58 L 636.57,149.02 L 633.74,157.15 L 623.05,157.51 L 627.91,163.24 L 629.30,169.99 L 634.45,173.31 L 632.08,179.49 L 628.77,181.80 Z M 444.00,341.07 L 443.89,340.49 L 444.60,341.43 L 444.99,342.78 L 444.00,341.07 Z M 435.23,338.77 L 429.74,334.46 L 431.08,332.92 L 441.29,335.90 L 435.23,338.77 Z M 446.76,328.65 L 448.94,326.88 L 449.21,328.13 L 446.76,328.65 Z M 617.02,226.57 L 617.15,226.92 L 616.14,227.46 L 615.11,227.08 L 617.02,226.57 Z M 274.70,228.28 L 271.22,226.83 L 271.85,226.18 L 273.91,226.03 L 274.70,228.28 Z M 272.12,207.13 L 265.16,208.37 L 258.10,204.57 L 260.00,203.09 L 264.20,205.20 L 271.30,204.30 L 272.12,207.13 Z M 214.61,190.26 L 206.26,190.35 L 204.48,187.18 L 207.95,186.62 L 214.61,190.26 Z M 202.99,187.34 L 200.92,187.54 L 198.62,185.36 L 203.26,185.41 L 202.99,187.34 Z M 220.20,186.66 L 214.73,185.60 L 209.13,181.35 L 220.20,186.66 Z M 230.81,184.28 L 227.55,181.25 L 232.49,180.29 L 234.96,182.93 L 230.81,184.28 Z M 214.19,174.10 L 214.33,172.51 L 216.57,173.67 L 214.19,174.10 Z M 152.98,164.13 L 150.52,165.80 L 150.00,163.61 L 151.46,161.92 L 152.98,164.13 Z M 154.00,157.16 L 152.98,158.05 L 152.56,156.96 L 154.00,157.16 Z M 454.24,406.17 L 454.25,406.25 L 454.16,406.24 L 454.24,406.17 Z M 457.59,403.22 L 457.50,403.57 L 457.20,403.45 L 457.59,403.22 Z M 593.46,178.92 L 592.70,179.67 L 593.06,178.84 L 593.46,178.92 Z" fill="#4A90D9" stroke="#1a5fa8" stroke-width="1.2"/>
<path d="M 668.53,154.86 L 658.08,155.03 L 654.19,153.08 L 661.24,154.46 L 666.49,151.67 L 668.10,154.34 L 669.63,153.98 L 668.53,154.86 Z" fill="#A8C8E8" stroke="none"/>
<path d="M 722.36,130.59 L 719.43,136.31 L 719.61,133.50 L 722.36,130.59 Z" fill="#A8C8E8" stroke="none"/>
<path d="M 673.58,165.75 L 674.00,165.83 L 672.75,168.00 L 673.58,165.75 Z" fill="#A8C8E8" stroke="none"/>
<path d="M 670.78,169.48 L 670.44,170.93 L 670.85,167.75 L 672.75,168.00 L 670.78,169.48 Z" fill="#A8C8E8" stroke="none"/>
<path d="M 673.04,164.21 L 674.91,164.08 L 677.14,164.92 L 674.85,164.67 L 678.64,168.63 L 673.04,164.21 Z" fill="#A8C8E8" stroke="none"/>
<path d="M 720.52,137.86 L 720.45,140.90 L 718.41,138.79 L 720.87,137.11 L 723.95,137.99 L 720.52,137.86 Z" fill="#A8C8E8" stroke="none"/>
</svg>