<svg xmlns="http://www.w3.org/2000/svg" width="800" height="500" viewBox="0 0 800 500">
<rect width="800" height="500" fill="#A8C8E8"/>
<path d="M 587.67,158.42 L 581.32,160.62 L 581.50,159.15 L 586.49,155.13 L 587.67,158.42 Z M 603.41,146.00 L 597.31,145.19 L 610.12,140.39 L 603.41,146.00 Z M 619.98,138.52 L 621.42,140.71 L 611.29,139.68 L 619.98,138.52 Z M 640.37,123.69 L 632.41,136.31 L 622.23,137.90 L 616.59,131.06 L 638.97,115.87 L 640.37,123.69 Z M 156.29,399.48 L 157.47,400.18 L 150.00,401.99 L 156.29,399.48 Z M 299.83,262.71 L 300.71,262.52 L 301.62,262.88 L 299.83,262.71 Z M 567.72,164.59 L 568.12,163.67 L 572.80,164.24 L 567.72,164.59 Z M 243.98,405.56 L 241.50,406.25 L 238.74,405.34 L 243.98,405.56 Z M 650.00,93.75 L 646.36,95.74 L 645.19,94.20 L 650.00,93.75 Z" fill="#4A90D9" stroke="#1a5fa8" stroke-width="1.2"/>
</svg>