<svg xmlns="http://www.w3.org/2000/svg" width="800" height="500" viewBox="0 0 800 500">
<rect width="800" height="500" fill="#A8C8E8"/>
<path d="M 172.83,199.42 L 187.49,203.57 L 196.86,228.63 L 199.43,216.15 L 209.91,196.07 L 249.42,195.94 L 255.61,207.28 L 268.89,216.07 L 278.73,234.75 L 294.47,248.82 L 307.99,256.32 L 311.57,263.80 L 334.69,271.75 L 345.19,271.39 L 387.51,300.39 L 399.12,303.20 L 403.87,308.49 L 407.73,306.58 L 423.98,315.61 L 430.75,325.51 L 430.16,330.06 L 423.27,335.23 L 419.88,346.86 L 410.25,353.31 L 409.30,370.98 L 403.73,376.93 L 404.56,379.40 L 399.04,381.81 L 392.90,390.03 L 394.60,396.06 L 414.72,393.93 L 443.82,402.50 L 453.35,399.92 L 457.95,403.23 L 465.72,401.29 L 470.79,406.25 L 480.30,395.40 L 488.31,396.76 L 493.08,400.86 L 498.73,396.51 L 498.49,390.45 L 504.86,383.38 L 514.39,382.40 L 521.94,371.87 L 526.32,370.77 L 531.67,353.89 L 532.99,330.46 L 538.27,334.76 L 540.06,330.69 L 547.15,330.68 L 546.31,328.82 L 549.71,327.43 L 550.31,331.30 L 556.84,332.50 L 559.49,345.05 L 565.43,356.26 L 561.53,373.38 L 563.67,380.55 L 559.61,390.05 L 554.97,389.94 L 550.56,394.88 L 547.61,393.31 L 543.81,400.28 L 525.91,403.97 L 522.17,411.90 L 516.36,413.46 L 518.14,416.19 L 508.31,418.61 L 503.93,424.79 L 492.47,430.55 L 496.23,434.12 L 495.17,436.89 L 487.87,436.05 L 487.99,439.34 L 474.71,451.20 L 469.81,462.12 L 463.27,465.55 L 460.80,471.90 L 446.79,487.81 L 439.97,490.19 L 438.80,496.44 L 433.83,500.00 L 167.60,500.00 L 167.60,199.56 L 172.83,199.42 Z" fill="#C8D8E8" stroke="#8BAABB" stroke-width="0.8"/>
<path d="M 401.68,16.37 L 415.13,26.14 L 422.37,27.52 L 424.81,39.30 L 433.91,54.12 L 430.45,54.75 L 423.00,79.39 L 425.30,84.45 L 422.77,85.00 L 411.17,110.27 L 420.33,119.69 L 409.99,126.66 L 409.42,113.71 L 377.82,93.57 L 346.13,94.00 L 285.76,107.10 L 279.15,124.36 L 267.93,141.28 L 267.70,160.62 L 254.75,204.62 L 248.93,195.82 L 210.41,195.85 L 199.43,216.15 L 196.86,228.63 L 187.49,203.57 L 172.83,199.42 L 167.60,199.56 L 167.60,0.00 L 399.48,0.00 L 401.68,16.37 Z" fill="#C8D8E8" stroke="#8BAABB" stroke-width="0.8"/>
<path d="M 438.80,496.44 L 439.97,490.19 L 446.14,488.34 L 456.30,477.38 L 463.27,465.55 L 469.81,462.12 L 474.71,451.20 L 487.99,439.34 L 487.87,436.05 L 495.17,436.89 L 496.23,434.12 L 492.47,430.55 L 503.93,424.79 L 508.31,418.61 L 518.14,416.19 L 516.36,413.46 L 522.17,411.90 L 525.91,403.97 L 543.81,400.28 L 547.61,393.31 L 550.56,394.88 L 554.97,389.94 L 559.61,390.05 L 563.67,380.55 L 561.53,373.38 L 565.43,356.26 L 559.49,345.05 L 556.84,332.50 L 550.31,331.30 L 549.71,327.43 L 546.31,328.82 L 547.15,330.68 L 540.06,330.69 L 538.27,334.76 L 532.99,330.46 L 533.06,323.77 L 538.99,314.43 L 537.75,310.20 L 544.67,284.63 L 542.16,276.74 L 545.25,273.03 L 531.64,263.76 L 513.45,271.76 L 504.63,269.41 L 497.12,233.48 L 497.61,219.84 L 489.41,206.69 L 477.20,206.16 L 470.52,198.64 L 466.93,199.23 L 462.18,205.71 L 459.88,203.90 L 455.02,206.83 L 415.95,198.59 L 421.78,156.36 L 418.42,154.56 L 420.33,151.77 L 417.54,150.34 L 420.31,147.95 L 416.15,146.54 L 415.84,136.76 L 409.99,126.66 L 420.33,119.69 L 411.17,110.27 L 422.77,85.00 L 425.30,84.45 L 423.00,79.39 L 430.45,54.75 L 433.95,53.30 L 424.81,39.30 L 422.37,27.52 L 415.13,26.14 L 401.68,16.37 L 399.48,0.00 L 632.40,0.00 L 632.40,500.00 L 434.48,500.00 L 438.80,496.44 Z" fill="#C8D8E8" stroke="#8BAABB" stroke-width="0.8"/>
<path d="M 267.70,160.62 L 267.93,141.28 L 279.15,124.36 L 285.76,107.10 L 346.13,94.00 L 378.51,93.75 L 409.79,114.15 L 409.86,129.60 L 415.84,136.76 L 416.15,146.54 L 420.40,148.31 L 417.54,150.34 L 420.33,151.77 L 418.42,154.56 L 421.78,156.36 L 415.95,198.59 L 455.02,206.83 L 459.88,203.90 L 462.18,205.71 L 466.93,199.23 L 470.52,198.64 L 477.20,206.16 L 489.41,206.69 L 497.61,219.84 L 497.12,233.48 L 504.63,269.41 L 513.45,271.76 L 531.64,263.76 L 545.25,273.03 L 542.16,276.74 L 544.67,284.63 L 537.75,310.20 L 538.99,314.43 L 532.65,325.10 L 531.67,353.89 L 526.32,370.77 L 521.94,371.87 L 514.39,382.40 L 504.86,383.38 L 498.49,390.45 L 498.73,396.51 L 493.08,400.86 L 488.31,396.76 L 480.30,395.40 L 470.79,406.25 L 465.72,401.29 L 457.95,403.23 L 453.35,399.92 L 443.82,402.50 L 414.72,393.93 L 394.60,396.06 L 392.90,390.03 L 399.04,381.81 L 404.56,379.40 L 403.73,376.93 L 409.30,370.98 L 410.25,353.31 L 419.88,346.86 L 423.27,335.23 L 430.16,330.06 L 430.75,325.51 L 423.98,315.61 L 407.73,306.58 L 403.87,308.49 L 399.12,303.20 L 387.51,300.39 L 345.19,271.39 L 334.69,271.75 L 311.57,263.80 L 307.99,256.32 L 294.47,248.82 L 278.73,234.75 L 267.30,214.02 L 254.75,204.62 L 267.70,160.62 Z" fill="#4A90D9" stroke="#1a5fa8" stroke-width="1.2"/>
<path d="M 422.76,30.90 L 419.67,25.80 L 424.92,24.15 L 422.76,30.90 Z" fill="#A8C8E8" stroke="none"/>
<path d="M 301.99,28.35 L 300.27,24.38 L 299.31,27.72 L 294.89,26.06 L 301.42,23.13 L 301.99,28.35 Z" fill="#A8C8E8" stroke="none"/>
<path d="M 443.84,441.75 L 441.71,440.66 L 444.45,434.98 L 450.91,435.47 L 443.84,441.75 Z" fill="#A8C8E8" stroke="none"/>
<path d="M 451.11,433.40 L 449.29,432.69 L 448.91,429.36 L 454.19,427.60 L 451.11,433.40 Z" fill="#A8C8E8" stroke="none"/>
<path d="M 520.16,323.38 L 515.87,322.64 L 516.74,320.34 L 512.95,322.58 L 509.61,317.93 L 506.47,321.03 L 500.99,321.27 L 497.86,317.91 L 498.41,315.68 L 500.96,320.27 L 504.46,320.52 L 507.47,317.60 L 505.65,318.48 L 503.59,317.25 L 510.08,316.57 L 501.78,309.14 L 519.21,321.73 L 520.16,323.38 Z" fill="#A8C8E8" stroke="none"/>
<path d="M 548.66,298.14 L 542.43,301.28 L 547.26,306.04 L 540.87,303.33 L 540.00,309.02 L 544.63,311.46 L 541.23,312.09 L 543.12,314.35 L 540.47,315.93 L 547.92,317.48 L 540.97,318.94 L 542.91,320.74 L 538.30,319.55 L 541.68,324.02 L 531.42,324.81 L 532.75,320.77 L 530.52,318.95 L 534.17,319.19 L 537.00,314.47 L 526.41,312.07 L 529.73,309.40 L 536.09,311.44 L 536.95,306.49 L 524.42,304.71 L 537.70,304.43 L 538.28,300.23 L 532.01,297.93 L 540.36,297.06 L 540.74,293.39 L 537.30,292.04 L 540.71,291.36 L 538.61,286.37 L 541.96,287.52 L 543.60,284.13 L 540.30,279.79 L 544.23,273.52 L 545.92,297.03 L 548.66,298.14 Z" fill="#A8C8E8" stroke="none"/>
<path d="M 625.05,174.04 L 624.21,177.00 L 621.22,177.98 L 621.92,182.34 L 612.35,192.96 L 610.09,199.51 L 589.65,212.92 L 590.69,208.35 L 605.90,201.88 L 616.08,185.65 L 614.20,181.91 L 616.93,185.50 L 620.67,181.46 L 620.17,176.41 L 625.05,174.04 Z" fill="#A8C8E8" stroke="none"/>
</svg>