<svg xmlns="http://www.w3.org/2000/svg" width="800" height="500" viewBox="0 0 800 500">
<rect width="800" height="500" fill="#A8C8E8"/>
<path d="M 9.01,199.42 L 34.25,203.57 L 50.36,228.63 L 54.79,216.15 L 72.83,196.07 L 140.84,195.94 L 151.49,207.28 L 174.34,216.07 L 191.28,234.75 L 218.37,248.82 L 241.64,256.32 L 247.80,263.80 L 287.59,271.75 L 305.66,271.39 L 378.50,300.39 L 398.48,303.20 L 406.65,308.49 L 413.31,306.58 L 441.27,315.61 L 452.93,325.51 L 451.90,330.06 L 440.05,335.23 L 434.21,346.86 L 417.64,353.31 L 416.01,370.98 L 406.41,376.93 L 407.85,379.40 L 398.36,381.81 L 387.78,390.03 L 390.70,396.06 L 425.33,393.93 L 475.41,402.50 L 491.82,399.92 L 499.74,403.23 L 513.11,401.29 L 521.84,406.25 L 538.21,395.40 L 551.99,396.76 L 560.21,400.86 L 569.93,396.51 L 569.51,390.45 L 580.48,383.38 L 596.87,382.40 L 609.87,371.87 L 617.41,370.77 L 626.62,353.89 L 628.89,330.46 L 637.98,334.76 L 641.07,330.69 L 653.27,330.68 L 651.81,328.82 L 657.67,327.43 L 658.71,331.30 L 669.95,332.50 L 674.50,345.05 L 684.73,356.26 L 678.02,373.38 L 681.69,380.55 L 674.70,390.05 L 666.73,389.94 L 659.13,394.88 L 654.06,393.31 L 647.53,400.28 L 616.70,403.97 L 610.27,411.90 L 600.28,413.46 L 603.34,416.19 L 586.42,418.61 L 578.88,424.79 L 559.15,430.55 L 565.63,434.12 L 563.80,436.89 L 551.23,436.05 L 551.44,439.34 L 528.59,451.20 L 520.16,462.12 L 508.89,465.55 L 504.65,471.90 L 480.53,487.81 L 468.79,490.19 L 466.79,496.44 L 458.22,500.00 L 0.00,500.00 L 0.00,199.56 L 9.01,199.42 Z" fill="#C8D8E8" stroke="#8BAABB" stroke-width="0.8"/>
<path d="M 402.90,16.37 L 426.03,26.14 L 438.49,27.52 L 442.70,39.30 L 458.36,54.12 L 452.41,54.75 L 439.59,79.39 L 443.54,84.45 L 439.19,85.00 L 419.23,110.27 L 434.98,119.69 L 417.19,126.66 L 416.21,113.71 L 361.83,93.57 L 307.28,94.00 L 203.37,107.10 L 192.00,124.36 L 172.70,141.28 L 172.29,160.62 L 150.00,204.62 L 139.99,195.82 L 73.69,195.85 L 54.79,216.15 L 50.36,228.63 L 34.25,203.57 L 9.01,199.42 L 0.00,199.56 L 0.00,0.00 L 399.11,0.00 L 402.90,16.37 Z" fill="#C8D8E8" stroke="#8BAABB" stroke-width="0.8"/>
<path d="M 466.79,496.44 L 468.79,490.19 L 479.41,488.34 L 496.89,477.38 L 508.89,465.55 L 520.16,462.12 L 528.59,451.20 L 551.44,439.34 L 551.23,436.05 L 563.80,436.89 L 565.63,434.12 L 559.15,430.55 L 578.88,424.79 L 586.42,418.61 L 603.34,416.19 L 600.28,413.46 L 610.27,411.90 L 616.70,403.97 L 647.53,400.28 L 654.06,393.31 L 659.13,394.88 L 666.73,389.94 L 674.70,390.05 L 681.69,380.55 L 678.02,373.38 L 684.73,356.26 L 674.50,345.05 L 669.95,332.50 L 658.71,331.30 L 657.67,327.43 L 651.81,328.82 L 653.27,330.68 L 641.07,330.69 L 637.98,334.76 L 628.89,330.46 L 629.02,323.77 L 639.21,314.43 L 637.09,310.20 L 648.99,284.63 L 644.68,276.74 L 650.00,273.03 L 626.57,263.76 L 595.26,271.76 L 580.08,269.41 L 567.16,233.48 L 568.00,219.84 L 553.88,206.69 L 532.87,206.16 L 521.37,198.64 L 515.20,199.23 L 507.02,205.71 L 503.06,203.90 L 494.69,206.83 L 427.46,198.59 L 437.49,156.36 L 431.71,154.56 L 434.99,151.77 L 430.18,150.34 L 434.96,147.95 L 427.79,146.54 L 427.27,136.76 L 417.19,126.66 L 434.98,119.69 L 419.23,110.27 L 439.19,85.00 L 443.54,84.45 L 439.59,79.39 L 452.41,54.75 L 458.43,53.30 L 442.70,39.30 L 438.49,27.52 L 426.03,26.14 L 402.90,16.37 L 399.11,0.00 L 800.00,0.00 L 800.00,500.00 L 459.34,500.00 L 466.79,496.44 Z" fill="#C8D8E8" stroke="#8BAABB" stroke-width="0.8"/>
<path d="M 172.29,160.62 L 172.70,141.28 L 192.00,124.36 L 203.37,107.10 L 307.28,94.00 L 363.01,93.75 L 416.86,114.15 L 416.96,129.60 L 427.27,136.76 L 427.79,146.54 L 435.11,148.31 L 430.18,150.34 L 434.99,151.77 L 431.71,154.56 L 437.49,156.36 L 427.46,198.59 L 494.69,206.83 L 503.06,203.90 L 507.02,205.71 L 515.20,199.23 L 521.37,198.64 L 532.87,206.16 L 553.88,206.69 L 568.00,219.84 L 567.16,233.48 L 580.08,269.41 L 595.26,271.76 L 626.57,263.76 L 650.00,273.03 L 644.68,276.74 L 648.99,284.63 L 637.09,310.20 L 639.21,314.43 L 628.32,325.10 L 626.62,353.89 L 617.41,370.77 L 609.87,371.87 L 596.87,382.40 L 580.48,383.38 L 569.51,390.45 L 569.93,396.51 L 560.21,400.86 L 551.99,396.76 L 538.21,395.40 L 521.84,406.25 L 513.11,401.29 L 499.74,403.23 L 491.82,399.92 L 475.41,402.50 L 425.33,393.93 L 390.70,396.06 L 387.78,390.03 L 398.36,381.81 L 407.85,379.40 L 406.41,376.93 L 416.01,370.98 L 417.64,353.31 L 434.21,346.86 L 440.05,335.23 L 451.90,330.06 L 452.93,325.51 L 441.27,315.61 L 413.31,306.58 L 406.65,308.49 L 398.48,303.20 L 378.50,300.39 L 305.66,271.39 L 287.59,271.75 L 247.80,263.80 L 241.64,256.32 L 218.37,248.82 L 191.28,234.75 L 171.60,214.02 L 150.00,204.62 L 172.29,160.62 Z" fill="#4A90D9" stroke="#1a5fa8" stroke-width="1.2"/>
<path d="M 439.17,30.90 L 433.85,25.80 L 442.89,24.15 L 439.17,30.90 Z" fill="#A8C8E8" stroke="none"/>
<path d="M 231.32,28.35 L 228.34,24.38 L 226.70,27.72 L 219.10,26.06 L 230.33,23.13 L 231.32,28.35 Z" fill="#A8C8E8" stroke="none"/>
<path d="M 475.46,441.75 L 471.78,440.66 L 476.51,434.98 L 487.63,435.47 L 475.46,441.75 Z" fill="#A8C8E8" stroke="none"/>
<path d="M 487.96,433.40 L 484.83,432.69 L 484.19,429.36 L 493.27,427.60 L 487.96,433.40 Z" fill="#A8C8E8" stroke="none"/>
<path d="M 606.82,323.38 L 599.42,322.64 L 600.92,320.34 L 594.39,322.58 L 588.66,317.93 L 583.26,321.03 L 573.82,321.27 L 568.43,317.91 L 569.37,315.68 L 573.76,320.27 L 579.78,320.52 L 584.96,317.60 L 581.83,318.48 L 578.28,317.25 L 589.46,316.57 L 575.18,309.14 L 605.17,321.73 L 606.82,323.38 Z" fill="#A8C8E8" stroke="none"/>
<path d="M 655.87,298.14 L 645.14,301.28 L 653.46,306.04 L 642.45,303.33 L 640.97,309.02 L 648.92,311.46 L 643.08,312.09 L 646.33,314.35 L 641.76,315.93 L 654.59,317.48 L 642.63,318.94 L 645.96,320.74 L 638.03,319.55 L 643.85,324.02 L 626.19,324.81 L 628.49,320.77 L 624.64,318.95 L 630.92,319.19 L 635.79,314.47 L 617.56,312.07 L 623.29,309.40 L 634.23,311.44 L 635.70,306.49 L 614.14,304.71 L 637.00,304.43 L 638.01,300.23 L 627.21,297.93 L 641.58,297.06 L 642.23,293.39 L 636.31,292.04 L 642.17,291.36 L 638.58,286.37 L 644.34,287.52 L 647.16,284.13 L 641.48,279.79 L 648.24,273.52 L 651.16,297.03 L 655.87,298.14 Z" fill="#A8C8E8" stroke="none"/>
<path d="M 787.35,174.04 L 785.90,177.00 L 780.76,177.98 L 781.95,182.34 L 765.49,192.96 L 761.59,199.51 L 726.41,212.92 L 728.20,208.35 L 754.38,201.88 L 771.90,185.65 L 768.67,181.91 L 773.37,185.50 L 779.81,181.46 L 778.94,176.41 L 787.35,174.04 Z" fill="#A8C8E8" stroke="none"/>
</svg>