<svg xmlns="http://www.w3.org/2000/svg" width="800" height="500" viewBox="0 0 800 500">
<rect width="800" height="500" fill="#A8C8E8"/>
<path d="M 797.09,287.40 L 800.00,285.38 L 800.00,290.40 L 797.09,287.40 Z" fill="#E8E0D0" stroke="#B8B0A0" stroke-width="0.5"/>
<path d="M 75.47,10.27 L 59.74,12.20 L 39.91,27.27 L 35.41,41.56 L 16.99,54.01 L 0.00,54.14 L 0.00,0.00 L 73.20,0.00 L 75.47,10.27 Z" fill="#E8E0D0" stroke="#B8B0A0" stroke-width="0.5"/>
<path d="M 257.12,492.72 L 263.31,500.00 L 218.71,500.00 L 257.12,492.72 Z" fill="#E8E0D0" stroke="#B8B0A0" stroke-width="0.5"/>
<path d="M 121.26,473.50 L 125.76,485.68 L 139.23,480.06 L 149.73,496.13 L 158.02,500.00 L 102.58,500.00 L 121.26,473.50 Z" fill="#E8E0D0" stroke="#B8B0A0" stroke-width="0.5"/>
<path d="M 142.66,473.61 L 138.99,466.97 L 162.34,459.94 L 161.45,453.55 L 172.32,444.40 L 169.10,436.80 L 179.16,432.40 L 181.50,438.66 L 194.93,444.05 L 203.81,457.84 L 211.63,460.51 L 210.06,467.46 L 230.89,473.99 L 217.32,494.64 L 219.42,500.00 L 157.06,500.00 L 149.73,496.13 L 140.60,480.80 L 142.66,473.61 Z" fill="#E8E0D0" stroke="#B8B0A0" stroke-width="0.5"/>
<path d="M 259.31,66.26 L 250.24,73.83 L 248.01,86.68 L 228.51,89.29 L 212.48,74.39 L 195.81,79.27 L 179.48,73.86 L 164.15,76.25 L 154.31,93.40 L 133.39,103.53 L 117.24,96.98 L 106.93,106.52 L 75.75,109.62 L 70.71,114.28 L 74.58,123.63 L 68.05,127.32 L 17.78,128.17 L 0.00,115.06 L 0.00,54.14 L 16.99,54.01 L 35.41,41.56 L 39.91,27.27 L 59.74,12.20 L 80.70,10.67 L 82.29,18.45 L 91.78,18.11 L 107.73,4.09 L 117.44,17.60 L 124.96,18.19 L 125.84,32.04 L 139.83,33.04 L 144.34,23.88 L 153.96,18.29 L 173.62,17.69 L 185.75,25.13 L 193.87,20.61 L 192.86,16.74 L 203.81,14.38 L 233.37,19.26 L 245.06,31.41 L 271.44,39.87 L 259.31,66.26 Z" fill="#E8E0D0" stroke="#B8B0A0" stroke-width="0.5"/>
<path d="M 73.20,0.00 L 284.48,0.00 L 278.11,6.41 L 281.91,26.14 L 278.95,33.85 L 288.03,39.02 L 288.13,45.15 L 245.06,31.41 L 239.12,22.40 L 221.82,15.93 L 193.67,16.42 L 185.75,25.13 L 173.62,17.69 L 153.96,18.29 L 144.34,23.88 L 139.83,33.04 L 124.51,31.63 L 124.96,18.19 L 117.44,17.60 L 108.47,4.34 L 91.78,18.11 L 82.29,18.45 L 82.23,11.45 L 75.47,10.27 L 73.20,0.00 Z" fill="#E8E0D0" stroke="#B8B0A0" stroke-width="0.5"/>
<path d="M 9.80,251.77 L 23.91,262.89 L 52.80,264.91 L 66.08,253.71 L 79.07,252.11 L 76.09,259.91 L 82.62,269.85 L 79.19,276.31 L 89.91,280.46 L 84.80,281.34 L 83.10,289.95 L 105.85,301.31 L 90.73,301.80 L 86.66,305.76 L 91.25,318.20 L 78.45,324.41 L 67.58,309.30 L 58.75,311.26 L 43.99,304.39 L 22.73,310.68 L 14.75,303.95 L 0.00,304.54 L 0.00,249.76 L 9.80,251.77 Z M 11.77,447.03 L 12.09,453.53 L 5.81,452.95 L 5.08,448.08 L 0.00,444.16 L 0.00,435.61 L 11.77,447.03 Z M 57.66,489.61 L 25.75,464.31 L 16.66,461.92 L 18.83,465.13 L 18.13,465.58 L 0.00,456.46 L 0.00,454.53 L 17.75,461.04 L 13.09,457.54 L 21.46,456.26 L 23.93,462.54 L 54.54,479.96 L 57.66,489.61 Z M 18.14,470.81 L 0.00,465.56 L 0.00,463.85 L 18.14,470.81 Z" fill="#E8E0D0" stroke="#B8B0A0" stroke-width="0.5"/>
<path d="M 54.54,479.96 L 60.50,472.60 L 54.34,453.27 L 65.20,448.81 L 66.54,434.42 L 74.84,427.11 L 83.89,432.13 L 87.97,429.31 L 79.30,417.02 L 83.10,413.27 L 94.62,414.17 L 94.45,419.46 L 115.91,438.27 L 133.42,442.48 L 155.86,457.54 L 146.86,467.57 L 138.56,467.53 L 142.66,473.61 L 136.20,483.23 L 126.66,486.11 L 122.47,474.09 L 117.16,476.87 L 101.99,500.00 L 79.21,500.00 L 78.26,498.53 L 72.58,499.40 L 60.24,489.12 L 68.45,491.19 L 67.76,485.12 L 57.66,489.61 L 54.54,479.96 Z" fill="#E8E0D0" stroke="#B8B0A0" stroke-width="0.5"/>
<path d="M 7.97,454.58 L 13.58,452.49 L 11.77,447.03 L 0.00,435.61 L 0.00,304.54 L 14.75,303.95 L 22.73,310.68 L 43.99,304.39 L 58.75,311.26 L 67.27,309.13 L 78.45,324.41 L 94.17,319.93 L 103.78,322.66 L 89.96,356.74 L 116.62,378.92 L 112.23,384.14 L 98.71,381.77 L 96.41,385.46 L 108.70,398.68 L 110.17,412.03 L 102.61,409.03 L 79.58,415.90 L 87.97,429.31 L 83.89,432.13 L 74.84,427.11 L 66.54,434.42 L 65.20,448.81 L 55.35,450.62 L 54.92,462.53 L 60.50,472.60 L 57.44,479.58 L 31.17,467.71 L 21.46,456.26 L 7.97,454.58 Z" fill="#E8E0D0" stroke="#B8B0A0" stroke-width="0.5"/>
<path d="M 261.15,496.57 L 271.09,486.83 L 265.39,479.04 L 268.44,468.16 L 265.50,462.77 L 281.35,457.82 L 294.79,436.73 L 270.34,418.13 L 261.38,395.58 L 264.03,383.05 L 274.26,378.28 L 279.47,367.17 L 297.42,376.31 L 289.74,382.97 L 289.90,393.45 L 321.41,390.67 L 422.84,406.25 L 442.82,400.71 L 462.37,381.77 L 508.72,370.64 L 527.56,381.58 L 540.76,380.59 L 545.43,386.07 L 555.49,383.05 L 559.14,392.78 L 571.84,398.69 L 590.72,400.09 L 589.77,419.51 L 585.16,425.39 L 577.15,421.23 L 566.42,423.72 L 561.07,434.45 L 555.06,436.50 L 554.44,469.73 L 546.01,469.47 L 540.49,475.24 L 541.64,480.04 L 531.21,485.30 L 545.28,489.72 L 547.18,500.00 L 263.86,500.00 L 261.15,496.57 Z" fill="#C8D8E8" stroke="#8BAABB" stroke-width="0.8"/>
<path d="M 276.62,127.76 L 257.34,130.99 L 243.32,144.93 L 242.99,153.28 L 223.49,178.36 L 216.56,199.93 L 205.95,206.65 L 204.87,219.33 L 192.75,231.51 L 180.50,229.10 L 172.27,238.15 L 161.93,235.70 L 150.00,240.16 L 113.37,236.37 L 98.22,248.72 L 88.97,246.19 L 83.33,252.74 L 66.08,253.71 L 52.80,264.91 L 23.91,262.89 L 9.80,251.77 L 0.00,250.78 L 0.00,117.25 L 22.20,129.21 L 68.05,127.32 L 74.58,123.63 L 70.71,114.28 L 75.75,109.62 L 106.93,106.52 L 117.24,96.98 L 133.39,103.53 L 154.31,93.40 L 162.63,76.77 L 179.48,73.86 L 195.81,79.27 L 212.48,74.39 L 230.16,89.77 L 257.28,85.06 L 261.79,95.89 L 268.36,95.93 L 274.92,105.76 L 285.28,106.17 L 289.31,115.92 L 276.62,127.76 Z" fill="#C8D8E8" stroke="#8BAABB" stroke-width="0.8"/>
<path d="M 490.34,90.01 L 495.94,92.45 L 498.38,85.88 L 518.29,87.95 L 539.25,79.61 L 564.18,91.04 L 565.07,96.28 L 579.05,96.20 L 576.92,103.17 L 581.90,100.79 L 585.50,107.93 L 590.47,101.85 L 602.40,104.77 L 610.39,116.73 L 619.57,113.94 L 625.49,121.06 L 619.22,143.85 L 621.24,149.48 L 634.67,160.99 L 642.44,158.00 L 641.82,170.73 L 638.28,172.35 L 644.85,175.77 L 642.55,183.56 L 662.09,192.75 L 660.70,211.59 L 672.84,218.89 L 656.80,224.53 L 650.77,215.62 L 645.56,223.01 L 637.21,214.71 L 632.83,219.34 L 629.23,215.57 L 623.62,223.33 L 622.75,211.11 L 610.15,216.73 L 609.50,229.96 L 613.83,235.12 L 610.73,247.37 L 599.28,250.62 L 599.17,258.44 L 585.20,270.58 L 586.68,280.66 L 570.69,283.83 L 563.43,274.92 L 569.02,272.30 L 564.51,246.47 L 573.22,205.51 L 564.51,181.82 L 549.91,170.12 L 537.53,154.54 L 537.72,148.78 L 523.34,134.85 L 509.53,103.72 L 496.95,94.87 L 487.06,94.82 L 490.34,90.01 Z" fill="#C8D8E8" stroke="#8BAABB" stroke-width="0.8"/>
<path d="M 173.54,264.82 L 178.71,264.18 L 177.72,282.64 L 216.12,305.23 L 208.61,315.15 L 218.39,322.51 L 208.83,324.72 L 210.97,329.21 L 242.61,338.10 L 249.60,348.64 L 265.43,333.03 L 283.36,343.22 L 268.50,348.83 L 279.47,367.17 L 274.26,378.28 L 264.03,383.05 L 261.38,395.58 L 270.34,418.13 L 294.96,438.37 L 281.35,457.82 L 265.50,462.77 L 268.44,468.16 L 265.39,479.04 L 271.27,485.42 L 265.32,495.72 L 257.12,492.72 L 226.32,500.00 L 219.79,500.00 L 217.32,494.64 L 222.68,491.62 L 230.45,472.50 L 210.06,467.46 L 211.63,460.51 L 203.81,457.84 L 194.93,444.05 L 181.50,438.66 L 180.49,432.78 L 169.10,436.80 L 171.20,446.64 L 161.45,453.55 L 162.34,459.94 L 155.42,461.83 L 154.98,456.46 L 133.42,442.48 L 115.91,438.27 L 93.59,417.68 L 97.65,410.40 L 110.17,412.03 L 111.11,406.44 L 97.16,382.47 L 112.23,384.14 L 117.01,380.19 L 90.46,359.38 L 91.16,347.58 L 104.20,324.29 L 94.17,319.93 L 85.13,324.11 L 83.84,320.78 L 91.25,318.20 L 86.66,305.76 L 105.85,301.31 L 83.10,289.95 L 84.80,281.34 L 89.91,280.46 L 79.19,276.31 L 82.62,269.85 L 76.64,257.10 L 87.75,246.65 L 98.22,248.72 L 113.37,236.37 L 150.00,240.16 L 173.54,264.82 Z" fill="#C8D8E8" stroke="#8BAABB" stroke-width="0.8"/>
<path d="M 798.25,242.32 L 765.59,225.84 L 761.11,228.20 L 761.05,224.34 L 774.90,220.85 L 758.34,213.68 L 755.06,218.41 L 745.63,207.76 L 788.42,216.09 L 800.00,207.73 L 800.00,242.10 L 798.25,242.32 Z M 789.38,209.48 L 772.84,204.95 L 768.47,196.19 L 772.03,185.62 L 771.42,183.92 L 768.24,182.94 L 770.41,179.26 L 764.51,178.11 L 766.17,173.63 L 762.67,167.27 L 758.82,165.28 L 757.97,162.38 L 757.19,164.99 L 764.98,173.55 L 763.03,179.32 L 769.95,184.15 L 764.48,192.96 L 766.31,203.57 L 744.82,204.98 L 751.44,192.50 L 745.63,197.11 L 742.06,193.37 L 745.50,198.78 L 740.76,204.95 L 707.69,210.10 L 706.73,220.68 L 700.35,224.18 L 692.01,242.02 L 673.20,259.64 L 672.62,254.80 L 670.89,259.97 L 661.99,260.04 L 662.31,266.10 L 655.44,265.20 L 658.49,269.83 L 651.81,273.52 L 646.76,259.20 L 644.19,277.26 L 650.40,276.29 L 645.04,282.72 L 652.98,286.12 L 648.67,300.60 L 647.39,291.65 L 635.78,285.95 L 625.08,286.40 L 609.31,296.17 L 601.90,293.31 L 602.58,298.53 L 597.68,299.70 L 577.60,293.21 L 570.69,283.83 L 586.68,280.66 L 585.20,270.58 L 599.17,258.44 L 599.28,250.62 L 610.73,247.37 L 613.83,235.12 L 609.50,229.96 L 610.15,216.73 L 622.75,211.11 L 623.62,223.33 L 629.23,215.57 L 632.83,219.34 L 637.21,214.71 L 645.56,223.01 L 650.77,215.62 L 656.80,224.53 L 672.84,218.89 L 660.70,211.59 L 662.09,192.75 L 642.55,183.56 L 644.85,175.77 L 638.28,172.35 L 641.82,170.73 L 642.44,158.00 L 634.67,160.99 L 621.24,149.48 L 619.22,143.85 L 625.49,121.06 L 619.57,113.94 L 610.39,116.73 L 602.40,104.77 L 590.47,101.85 L 585.50,107.93 L 581.90,100.79 L 576.92,103.17 L 579.05,96.20 L 565.07,96.28 L 564.18,91.04 L 538.09,79.48 L 518.29,87.95 L 498.38,85.88 L 495.34,92.92 L 490.34,90.01 L 470.44,97.99 L 463.55,112.78 L 415.36,119.17 L 405.75,129.69 L 396.06,131.91 L 377.31,116.12 L 360.86,119.28 L 320.14,114.26 L 303.13,105.69 L 289.31,115.92 L 285.28,106.17 L 274.92,105.76 L 268.36,95.93 L 261.79,95.89 L 257.28,85.06 L 249.93,84.97 L 250.24,73.83 L 259.31,66.26 L 271.44,39.87 L 288.74,44.08 L 278.95,33.85 L 281.91,26.14 L 278.11,6.41 L 284.48,0.00 L 800.00,0.00 L 800.00,205.65 L 789.38,209.48 Z M 669.89,261.49 L 672.55,260.20 L 661.02,270.00 L 655.71,273.52 L 651.66,275.07 L 669.89,261.49 Z M 775.37,235.13 L 780.42,237.37 L 749.44,229.71 L 746.36,226.30 L 745.43,222.23 L 751.44,229.95 L 775.37,235.13 Z" fill="#C8D8E8" stroke="#8BAABB" stroke-width="0.8"/>
<path d="M 303.13,105.69 L 320.14,114.26 L 360.86,119.28 L 377.31,116.12 L 396.06,131.91 L 405.75,129.69 L 415.36,119.17 L 463.55,112.78 L 470.44,97.99 L 490.80,93.75 L 504.00,98.48 L 516.19,113.46 L 522.13,133.06 L 537.72,148.78 L 537.53,154.54 L 563.79,180.67 L 572.52,202.70 L 573.15,218.55 L 565.90,231.64 L 564.51,246.47 L 569.02,272.30 L 563.43,274.92 L 577.60,293.21 L 597.68,299.70 L 602.58,298.53 L 601.90,293.31 L 609.31,296.17 L 630.04,285.04 L 643.13,288.35 L 650.00,304.10 L 645.68,324.39 L 621.27,329.60 L 613.05,336.05 L 611.69,332.27 L 620.35,328.28 L 615.35,324.12 L 618.86,317.06 L 612.13,314.20 L 606.11,318.86 L 610.16,330.90 L 601.59,338.73 L 607.60,334.17 L 611.29,335.24 L 612.36,336.97 L 600.21,340.25 L 600.24,351.16 L 609.05,340.67 L 593.72,361.22 L 595.66,382.78 L 590.72,400.09 L 571.84,398.69 L 559.14,392.78 L 555.49,383.05 L 545.43,386.07 L 540.76,380.59 L 527.56,381.58 L 508.72,370.64 L 462.37,381.77 L 442.82,400.71 L 422.84,406.25 L 321.41,390.67 L 289.90,393.45 L 289.74,382.97 L 297.42,376.31 L 279.43,367.14 L 268.13,351.25 L 273.60,344.39 L 283.36,343.22 L 265.43,333.03 L 249.60,348.64 L 242.61,338.10 L 210.97,329.21 L 208.83,324.72 L 218.39,322.51 L 208.61,315.15 L 216.12,305.23 L 177.72,282.64 L 178.71,264.18 L 173.54,264.82 L 150.00,240.16 L 161.93,235.70 L 172.27,238.15 L 179.39,229.38 L 197.67,228.29 L 204.87,219.33 L 205.95,206.65 L 216.56,199.93 L 223.49,178.36 L 242.99,153.28 L 243.32,144.93 L 257.34,130.99 L 276.62,127.76 L 303.13,105.69 Z" fill="#4A90D9" stroke="#1a5fa8" stroke-width="1.2"/>
<path d="M 3.63,199.00 L 0.00,198.71 L 0.00,195.31 L 25.75,186.95 L 24.28,183.69 L 33.89,175.81 L 40.33,178.97 L 24.53,189.10 L 3.63,199.00 Z" fill="#A8C8E8" stroke="none"/>
<path d="M 88.41,497.08 L 100.11,500.00 L 90.80,500.00 L 88.41,497.08 Z M 107.27,494.85 L 104.69,500.00 L 102.58,500.00 L 107.27,494.85 Z" fill="#A8C8E8" stroke="none"/>
<path d="M 688.68,241.81 L 672.09,223.29 L 677.42,220.68 L 681.46,226.49 L 682.24,222.13 L 691.28,236.91 L 688.68,241.81 Z" fill="#A8C8E8" stroke="none"/>
<path d="M 544.18,13.29 L 539.68,18.40 L 532.25,16.55 L 544.18,13.29 Z" fill="#A8C8E8" stroke="none"/>
<path d="M 765.59,7.24 L 770.52,4.06 L 800.00,17.28 L 800.00,30.47 L 765.59,7.24 Z" fill="#A8C8E8" stroke="none"/>
</svg>