<svg xmlns="http://www.w3.org/2000/svg" width="800" height="500" viewBox="0 0 800 500">
<rect width="800" height="500" fill="#A8C8E8"/>
<path d="M 752.77,287.40 L 755.35,285.38 L 755.35,290.40 L 752.77,287.40 Z" fill="#E8E0D0" stroke="#B8B0A0" stroke-width="0.5"/>
<path d="M 111.70,10.27 L 97.72,12.20 L 80.10,27.27 L 76.11,41.56 L 59.75,54.01 L 44.65,54.14 L 44.65,0.00 L 109.68,0.00 L 111.70,10.27 Z" fill="#E8E0D0" stroke="#B8B0A0" stroke-width="0.5"/>
<path d="M 273.07,492.72 L 278.57,500.00 L 238.95,500.00 L 273.07,492.72 Z" fill="#E8E0D0" stroke="#B8B0A0" stroke-width="0.5"/>
<path d="M 152.38,473.50 L 156.38,485.68 L 168.34,480.06 L 177.67,496.13 L 185.03,500.00 L 135.78,500.00 L 152.38,473.50 Z" fill="#E8E0D0" stroke="#B8B0A0" stroke-width="0.5"/>
<path d="M 171.38,473.61 L 168.13,466.97 L 188.87,459.94 L 188.08,453.55 L 197.73,444.40 L 194.87,436.80 L 203.82,432.40 L 205.89,438.66 L 217.82,444.05 L 225.71,457.84 L 232.66,460.51 L 231.26,467.46 L 249.77,473.99 L 237.71,494.64 L 239.58,500.00 L 184.18,500.00 L 177.67,496.13 L 169.55,480.80 L 171.38,473.61 Z" fill="#E8E0D0" stroke="#B8B0A0" stroke-width="0.5"/>
<path d="M 275.02,66.26 L 266.96,73.83 L 264.97,86.68 L 247.65,89.29 L 233.41,74.39 L 218.61,79.27 L 204.09,73.86 L 190.48,76.25 L 181.73,93.40 L 163.15,103.53 L 148.80,96.98 L 139.64,106.52 L 111.94,109.62 L 107.47,114.28 L 110.91,123.63 L 105.10,127.32 L 60.44,128.17 L 44.65,115.06 L 44.65,54.14 L 59.75,54.01 L 76.11,41.56 L 80.10,27.27 L 97.72,12.20 L 116.35,10.67 L 117.76,18.45 L 126.19,18.11 L 140.36,4.09 L 148.98,17.60 L 155.66,18.19 L 156.44,32.04 L 168.87,33.04 L 172.88,23.88 L 181.42,18.29 L 198.89,17.69 L 209.66,25.13 L 216.88,20.61 L 215.99,16.74 L 225.71,14.38 L 251.97,19.26 L 262.36,31.41 L 285.79,39.87 L 275.02,66.26 Z" fill="#E8E0D0" stroke="#B8B0A0" stroke-width="0.5"/>
<path d="M 109.68,0.00 L 297.37,0.00 L 291.72,6.41 L 295.09,26.14 L 292.46,33.85 L 300.53,39.02 L 300.61,45.15 L 262.36,31.41 L 257.08,22.40 L 241.71,15.93 L 216.70,16.42 L 209.66,25.13 L 198.89,17.69 L 181.42,18.29 L 172.88,23.88 L 168.87,33.04 L 155.26,31.63 L 155.66,18.19 L 148.98,17.60 L 141.01,4.34 L 126.19,18.11 L 117.76,18.45 L 117.71,11.45 L 111.70,10.27 L 109.68,0.00 Z" fill="#E8E0D0" stroke="#B8B0A0" stroke-width="0.5"/>
<path d="M 53.35,251.77 L 65.89,262.89 L 91.55,264.91 L 103.36,253.71 L 114.89,252.11 L 112.25,259.91 L 118.05,269.85 L 115.00,276.31 L 124.52,280.46 L 119.98,281.34 L 118.47,289.95 L 138.69,301.31 L 125.25,301.80 L 121.64,305.76 L 125.72,318.20 L 114.35,324.41 L 104.69,309.30 L 96.85,311.26 L 83.73,304.39 L 64.84,310.68 L 57.75,303.95 L 44.65,304.54 L 44.65,249.76 L 53.35,251.77 Z M 55.11,447.03 L 55.39,453.53 L 49.81,452.95 L 49.17,448.08 L 44.65,444.16 L 44.65,435.61 L 55.11,447.03 Z M 95.88,489.61 L 67.53,464.31 L 59.45,461.92 L 61.38,465.13 L 60.76,465.58 L 44.65,456.46 L 44.65,454.53 L 60.42,461.04 L 56.28,457.54 L 63.72,456.26 L 65.91,462.54 L 93.10,479.96 L 95.88,489.61 Z M 60.76,470.81 L 44.65,465.56 L 44.65,463.85 L 60.76,470.81 Z" fill="#E8E0D0" stroke="#B8B0A0" stroke-width="0.5"/>
<path d="M 93.10,479.96 L 98.39,472.60 L 92.92,453.27 L 102.57,448.81 L 103.76,434.42 L 111.13,427.11 L 119.18,432.13 L 122.80,429.31 L 115.10,417.02 L 118.47,413.27 L 128.71,414.17 L 128.56,419.46 L 147.62,438.27 L 163.17,442.48 L 183.11,457.54 L 175.12,467.57 L 167.75,467.53 L 171.38,473.61 L 165.64,483.23 L 157.17,486.11 L 153.45,474.09 L 148.74,476.87 L 135.25,500.00 L 115.01,500.00 L 114.18,498.53 L 109.13,499.40 L 98.17,489.12 L 105.46,491.19 L 104.85,485.12 L 95.88,489.61 L 93.10,479.96 Z" fill="#E8E0D0" stroke="#B8B0A0" stroke-width="0.5"/>
<path d="M 51.73,454.58 L 56.72,452.49 L 55.11,447.03 L 44.65,435.61 L 44.65,304.54 L 57.75,303.95 L 64.84,310.68 L 83.73,304.39 L 96.85,311.26 L 104.41,309.13 L 114.35,324.41 L 128.31,319.93 L 136.85,322.66 L 124.57,356.74 L 148.25,378.92 L 144.36,384.14 L 132.34,381.77 L 130.30,385.46 L 141.22,398.68 L 142.53,412.03 L 135.81,409.03 L 115.35,415.90 L 122.80,429.31 L 119.18,432.13 L 111.13,427.11 L 103.76,434.42 L 102.57,448.81 L 93.83,450.62 L 93.44,462.53 L 98.39,472.60 L 95.68,479.58 L 72.34,467.71 L 63.72,456.26 L 51.73,454.58 Z" fill="#E8E0D0" stroke="#B8B0A0" stroke-width="0.5"/>
<path d="M 276.65,496.57 L 285.48,486.83 L 280.42,479.04 L 283.12,468.16 L 280.52,462.77 L 294.59,457.82 L 306.54,436.73 L 284.81,418.13 L 276.86,395.58 L 279.21,383.05 L 288.29,378.28 L 292.93,367.17 L 308.87,376.31 L 302.05,382.97 L 302.19,393.45 L 330.18,390.67 L 420.29,406.25 L 438.04,400.71 L 455.40,381.77 L 496.58,370.64 L 513.32,381.58 L 525.05,380.59 L 529.19,386.07 L 538.13,383.05 L 541.37,392.78 L 552.66,398.69 L 569.43,400.09 L 568.58,419.51 L 564.49,425.39 L 557.37,421.23 L 547.85,423.72 L 543.09,434.45 L 537.75,436.50 L 537.20,469.73 L 529.71,469.47 L 524.81,475.24 L 525.83,480.04 L 516.57,485.30 L 529.07,489.72 L 530.75,500.00 L 279.06,500.00 L 276.65,496.57 Z" fill="#C8D8E8" stroke="#8BAABB" stroke-width="0.8"/>
<path d="M 290.40,127.76 L 273.27,130.99 L 260.81,144.93 L 260.52,153.28 L 243.20,178.36 L 237.04,199.93 L 227.61,206.65 L 226.66,219.33 L 215.89,231.51 L 205.00,229.10 L 197.69,238.15 L 188.51,235.70 L 177.91,240.16 L 145.36,236.37 L 131.91,248.72 L 123.69,246.19 L 118.68,252.74 L 103.36,253.71 L 91.55,264.91 L 65.89,262.89 L 53.35,251.77 L 44.65,250.78 L 44.65,117.25 L 64.37,129.21 L 105.10,127.32 L 110.91,123.63 L 107.47,114.28 L 111.94,109.62 L 139.64,106.52 L 148.80,96.98 L 163.15,103.53 L 181.73,93.40 L 189.13,76.77 L 204.09,73.86 L 218.61,79.27 L 233.41,74.39 L 249.12,89.77 L 273.21,85.06 L 277.22,95.89 L 283.06,95.93 L 288.88,105.76 L 298.09,106.17 L 301.66,115.92 L 290.40,127.76 Z" fill="#C8D8E8" stroke="#8BAABB" stroke-width="0.8"/>
<path d="M 480.25,90.01 L 485.23,92.45 L 487.40,85.88 L 505.09,87.95 L 523.70,79.61 L 545.85,91.04 L 546.64,96.28 L 559.07,96.20 L 557.17,103.17 L 561.60,100.79 L 564.79,107.93 L 569.21,101.85 L 579.81,104.77 L 586.90,116.73 L 595.06,113.94 L 600.32,121.06 L 594.75,143.85 L 596.54,149.48 L 608.47,160.99 L 615.38,158.00 L 614.83,170.73 L 611.68,172.35 L 617.52,175.77 L 615.48,183.56 L 632.83,192.75 L 631.60,211.59 L 642.39,218.89 L 628.13,224.53 L 622.78,215.62 L 618.15,223.01 L 610.73,214.71 L 606.84,219.34 L 603.64,215.57 L 598.66,223.33 L 597.89,211.11 L 586.69,216.73 L 586.11,229.96 L 589.96,235.12 L 587.21,247.37 L 577.03,250.62 L 576.94,258.44 L 564.53,270.58 L 565.84,280.66 L 551.64,283.83 L 545.18,274.92 L 550.15,272.30 L 546.15,246.47 L 553.88,205.51 L 546.15,181.82 L 533.18,170.12 L 522.18,154.54 L 522.34,148.78 L 509.58,134.85 L 497.30,103.72 L 486.13,94.87 L 477.35,94.82 L 480.25,90.01 Z" fill="#C8D8E8" stroke="#8BAABB" stroke-width="0.8"/>
<path d="M 198.82,264.82 L 203.41,264.18 L 202.53,282.64 L 236.64,305.23 L 229.98,315.15 L 238.66,322.51 L 230.17,324.72 L 232.07,329.21 L 260.18,338.10 L 266.39,348.64 L 280.45,333.03 L 296.38,343.22 L 283.18,348.83 L 292.93,367.17 L 288.29,378.28 L 279.21,383.05 L 276.86,395.58 L 284.81,418.13 L 306.69,438.37 L 294.59,457.82 L 280.52,462.77 L 283.12,468.16 L 280.42,479.04 L 285.64,485.42 L 280.36,495.72 L 273.07,492.72 L 245.71,500.00 L 239.91,500.00 L 237.71,494.64 L 242.47,491.62 L 249.38,472.50 L 231.26,467.46 L 232.66,460.51 L 225.71,457.84 L 217.82,444.05 L 205.89,438.66 L 204.99,432.78 L 194.87,436.80 L 196.74,446.64 L 188.08,453.55 L 188.87,459.94 L 182.72,461.83 L 182.33,456.46 L 163.17,442.48 L 147.62,438.27 L 127.79,417.68 L 131.40,410.40 L 142.53,412.03 L 143.36,406.44 L 130.97,382.47 L 144.36,384.14 L 148.60,380.19 L 125.01,359.38 L 125.63,347.58 L 137.22,324.29 L 128.31,319.93 L 120.27,324.11 L 119.13,320.78 L 125.72,318.20 L 121.64,305.76 L 138.69,301.31 L 118.47,289.95 L 119.98,281.34 L 124.52,280.46 L 115.00,276.31 L 118.05,269.85 L 112.73,257.10 L 122.60,246.65 L 131.91,248.72 L 145.36,236.37 L 177.91,240.16 L 198.82,264.82 Z" fill="#C8D8E8" stroke="#8BAABB" stroke-width="0.8"/>
<path d="M 753.79,242.32 L 724.78,225.84 L 720.80,228.20 L 720.74,224.34 L 733.05,220.85 L 718.34,213.68 L 715.42,218.41 L 707.05,207.76 L 745.06,216.09 L 755.35,207.73 L 755.35,242.10 L 753.79,242.32 Z M 745.92,209.48 L 731.22,204.95 L 727.34,196.19 L 730.50,185.62 L 729.96,183.92 L 727.13,182.94 L 729.06,179.26 L 723.82,178.11 L 725.30,173.63 L 722.19,167.27 L 718.76,165.28 L 718.01,162.38 L 717.31,164.99 L 724.24,173.55 L 722.51,179.32 L 728.66,184.15 L 723.79,192.96 L 725.42,203.57 L 706.33,204.98 L 712.21,192.50 L 707.05,197.11 L 703.87,193.37 L 706.94,198.78 L 702.72,204.95 L 673.34,210.10 L 672.49,220.68 L 666.82,224.18 L 659.42,242.02 L 642.71,259.64 L 642.19,254.80 L 640.65,259.97 L 632.74,260.04 L 633.03,266.10 L 626.92,265.20 L 629.64,269.83 L 623.70,273.52 L 619.21,259.20 L 616.93,277.26 L 622.45,276.29 L 617.69,282.72 L 624.74,286.12 L 620.92,300.60 L 619.78,291.65 L 609.46,285.95 L 599.95,286.40 L 585.94,296.17 L 579.36,293.31 L 579.97,298.53 L 575.62,299.70 L 557.78,293.21 L 551.64,283.83 L 565.84,280.66 L 564.53,270.58 L 576.94,258.44 L 577.03,250.62 L 587.21,247.37 L 589.96,235.12 L 586.11,229.96 L 586.69,216.73 L 597.89,211.11 L 598.66,223.33 L 603.64,215.57 L 606.84,219.34 L 610.73,214.71 L 618.15,223.01 L 622.78,215.62 L 628.13,224.53 L 642.39,218.89 L 631.60,211.59 L 632.83,192.75 L 615.48,183.56 L 617.52,175.77 L 611.68,172.35 L 614.83,170.73 L 615.38,158.00 L 608.47,160.99 L 596.54,149.48 L 594.75,143.85 L 600.32,121.06 L 595.06,113.94 L 586.90,116.73 L 579.81,104.77 L 569.21,101.85 L 564.79,107.93 L 561.60,100.79 L 557.17,103.17 L 559.07,96.20 L 546.64,96.28 L 545.85,91.04 L 522.68,79.48 L 505.09,87.95 L 487.40,85.88 L 484.70,92.92 L 480.25,90.01 L 462.58,97.99 L 456.45,112.78 L 413.65,119.17 L 405.11,129.69 L 396.50,131.91 L 379.85,116.12 L 365.23,119.28 L 329.06,114.26 L 313.95,105.69 L 301.66,115.92 L 298.09,106.17 L 288.88,105.76 L 283.06,95.93 L 277.22,95.89 L 273.21,85.06 L 266.68,84.97 L 266.96,73.83 L 275.02,66.26 L 285.79,39.87 L 301.16,44.08 L 292.46,33.85 L 295.09,26.14 L 291.72,6.41 L 297.37,0.00 L 755.35,0.00 L 755.35,205.65 L 745.92,209.48 Z M 639.76,261.49 L 642.12,260.20 L 631.89,270.00 L 627.16,273.52 L 623.57,275.07 L 639.76,261.49 Z M 733.47,235.13 L 737.96,237.37 L 710.43,229.71 L 707.69,226.30 L 706.87,222.23 L 712.21,229.95 L 733.47,235.13 Z" fill="#C8D8E8" stroke="#8BAABB" stroke-width="0.8"/>
<path d="M 313.95,105.69 L 329.06,114.26 L 365.23,119.28 L 379.85,116.12 L 396.50,131.91 L 405.11,129.69 L 413.65,119.17 L 456.45,112.78 L 462.58,97.99 L 480.66,93.75 L 492.39,98.48 L 503.22,113.46 L 508.50,133.06 L 522.34,148.78 L 522.18,154.54 L 545.51,180.67 L 553.26,202.70 L 553.82,218.55 L 547.38,231.64 L 546.15,246.47 L 550.15,272.30 L 545.18,274.92 L 557.78,293.21 L 575.62,299.70 L 579.97,298.53 L 579.36,293.31 L 585.94,296.17 L 604.36,285.04 L 615.99,288.35 L 622.09,304.10 L 618.26,324.39 L 596.57,329.60 L 589.27,336.05 L 588.06,332.27 L 595.75,328.28 L 591.31,324.12 L 594.43,317.06 L 588.45,314.20 L 583.10,318.86 L 586.70,330.90 L 579.09,338.73 L 584.43,334.17 L 587.71,335.24 L 588.65,336.97 L 577.86,340.25 L 577.89,351.16 L 585.71,340.67 L 572.10,361.22 L 573.82,382.78 L 569.43,400.09 L 552.66,398.69 L 541.37,392.78 L 538.13,383.05 L 529.19,386.07 L 525.05,380.59 L 513.32,381.58 L 496.58,370.64 L 455.40,381.77 L 438.04,400.71 L 420.29,406.25 L 330.18,390.67 L 302.19,393.45 L 302.05,382.97 L 308.87,376.31 L 292.89,367.14 L 282.85,351.25 L 287.71,344.39 L 296.38,343.22 L 280.45,333.03 L 266.39,348.64 L 260.18,338.10 L 232.07,329.21 L 230.17,324.72 L 238.66,322.51 L 229.98,315.15 L 236.64,305.23 L 202.53,282.64 L 203.41,264.18 L 198.82,264.82 L 177.91,240.16 L 188.51,235.70 L 197.69,238.15 L 204.01,229.38 L 220.26,228.29 L 226.66,219.33 L 227.61,206.65 L 237.04,199.93 L 243.20,178.36 L 260.52,153.28 L 260.81,144.93 L 273.27,130.99 L 290.40,127.76 L 313.95,105.69 Z" fill="#4A90D9" stroke="#1a5fa8" stroke-width="1.2"/>
<path d="M 47.88,199.00 L 44.65,198.71 L 44.65,195.31 L 67.52,186.95 L 66.22,183.69 L 74.76,175.81 L 80.48,178.97 L 66.45,189.10 L 47.88,199.00 Z" fill="#A8C8E8" stroke="none"/>
<path d="M 123.19,497.08 L 133.59,500.00 L 125.32,500.00 L 123.19,497.08 Z M 139.95,494.85 L 137.66,500.00 L 135.78,500.00 L 139.95,494.85 Z" fill="#A8C8E8" stroke="none"/>
<path d="M 656.46,241.81 L 641.72,223.29 L 646.45,220.68 L 650.04,226.49 L 650.74,222.13 L 658.77,236.91 L 656.46,241.81 Z" fill="#A8C8E8" stroke="none"/>
<path d="M 528.08,13.29 L 524.09,18.40 L 517.49,16.55 L 528.08,13.29 Z" fill="#A8C8E8" stroke="none"/>
<path d="M 724.78,7.24 L 729.16,4.06 L 755.35,17.28 L 755.35,30.47 L 724.78,7.24 Z" fill="#A8C8E8" stroke="none"/>
</svg>