<svg xmlns="http://www.w3.org/2000/svg" width="800" height="500" viewBox="0 0 800 500">
<rect width="800" height="500" fill="#A8C8E8"/>
<path d="M 349.20,446.72 L 353.35,458.58 L 342.39,461.41 L 354.01,473.28 L 349.16,486.44 L 363.04,500.00 L 225.13,500.00 L 230.07,484.78 L 215.14,472.26 L 230.07,464.30 L 220.91,458.57 L 241.74,456.98 L 239.16,439.97 L 211.73,437.30 L 212.62,417.23 L 200.46,411.14 L 252.20,373.36 L 262.51,387.72 L 293.36,381.09 L 317.40,400.04 L 346.93,407.15 L 361.17,428.68 L 349.20,446.72 Z" fill="#E8E0D0" stroke="#B8B0A0" stroke-width="0.5"/>
<path d="M 301.19,373.50 L 292.81,365.66 L 346.28,357.37 L 344.24,349.84 L 369.12,339.05 L 361.75,330.08 L 384.80,324.90 L 390.14,332.28 L 420.91,338.63 L 441.24,354.90 L 459.15,358.05 L 455.55,366.24 L 503.27,373.94 L 472.18,398.29 L 478.00,405.91 L 454.11,407.70 L 445.94,418.25 L 421.62,409.92 L 383.65,419.00 L 371.12,437.96 L 357.28,435.64 L 349.25,408.70 L 317.40,400.04 L 296.47,381.97 L 301.19,373.50 Z" fill="#E8E0D0" stroke="#B8B0A0" stroke-width="0.5"/>
<path d="M 536.62,493.11 L 616.14,494.08 L 625.35,478.53 L 726.03,475.65 L 800.00,460.69 L 800.00,500.00 L 519.51,500.00 L 536.62,493.11 Z" fill="#E8E0D0" stroke="#B8B0A0" stroke-width="0.5"/>
<path d="M 0.00,351.52 L 0.00,349.66 L 5.59,348.59 L 1.44,342.15 L 0.00,341.43 L 0.00,173.61 L 8.26,173.44 L 26.54,181.37 L 75.24,173.96 L 109.04,182.06 L 128.55,179.54 L 154.15,197.57 L 190.15,192.28 L 212.16,195.50 L 180.50,235.69 L 241.56,261.84 L 231.52,268.00 L 200.55,265.19 L 195.29,269.55 L 223.42,285.13 L 226.80,300.88 L 209.48,297.35 L 156.75,305.44 L 175.96,321.25 L 166.61,324.58 L 145.87,318.66 L 126.87,327.28 L 123.81,344.24 L 101.26,346.38 L 100.27,360.43 L 113.03,372.30 L 106.02,380.53 L 45.87,366.54 L 23.64,353.04 L 0.00,351.52 Z" fill="#C8D8E8" stroke="#8BAABB" stroke-width="0.8"/>
<path d="M 782.23,462.50 L 777.16,469.25 L 726.03,475.65 L 641.82,478.46 L 652.94,446.25 L 632.28,423.98 L 595.09,415.25 L 572.56,400.56 L 595.34,389.07 L 582.28,379.89 L 589.25,367.07 L 582.53,360.71 L 618.81,354.87 L 649.61,330.00 L 593.61,308.07 L 573.10,281.49 L 579.17,266.71 L 602.58,261.09 L 614.53,247.98 L 655.62,258.77 L 638.05,266.62 L 638.40,278.97 L 710.56,275.69 L 800.00,282.77 L 800.00,461.81 L 782.23,462.50 Z" fill="#C8D8E8" stroke="#8BAABB" stroke-width="0.8"/>
<path d="M 29.25,125.02 L 95.40,127.40 L 125.82,114.19 L 155.57,112.31 L 148.75,121.51 L 163.70,133.22 L 155.84,140.84 L 180.39,145.74 L 168.68,146.77 L 164.79,156.93 L 216.90,170.32 L 182.28,170.91 L 172.95,175.57 L 183.46,190.24 L 154.15,197.57 L 129.26,179.75 L 109.04,182.06 L 75.24,173.96 L 26.54,181.37 L 8.26,173.44 L 0.00,173.61 L 0.00,113.16 L 29.25,125.02 Z M 1.44,342.15 L 2.18,349.81 L 0.00,349.71 L 0.00,341.43 L 1.44,342.15 Z M 106.54,392.36 L 33.46,362.52 L 12.64,359.70 L 17.60,363.49 L 16.00,364.02 L 0.00,359.87 L 0.00,355.81 L 15.13,358.66 L 4.46,354.55 L 23.64,353.04 L 29.30,360.44 L 99.39,380.98 L 106.54,392.36 Z M 16.02,370.19 L 0.00,367.81 L 0.00,367.02 L 16.02,370.19 Z" fill="#C8D8E8" stroke="#8BAABB" stroke-width="0.8"/>
<path d="M 486.32,25.35 L 470.45,50.78 L 446.14,58.71 L 443.68,73.65 L 415.92,88.02 L 387.85,85.18 L 369.01,95.85 L 345.34,92.96 L 318.01,98.22 L 234.11,93.75 L 199.42,108.31 L 178.23,105.33 L 165.32,113.06 L 125.82,114.19 L 95.40,127.40 L 29.25,125.02 L 0.00,113.16 L 0.00,0.00 L 524.59,0.00 L 486.32,25.35 Z" fill="#C8D8E8" stroke="#8BAABB" stroke-width="0.8"/>
<path d="M 373.73,437.52 L 383.65,419.00 L 421.62,409.92 L 444.67,418.39 L 462.53,405.86 L 563.34,396.03 L 595.09,415.25 L 632.28,423.98 L 653.03,448.13 L 643.76,456.42 L 644.71,477.34 L 621.75,480.10 L 616.14,494.08 L 536.62,493.11 L 519.51,500.00 L 363.04,500.00 L 349.16,486.44 L 354.01,473.28 L 342.39,461.41 L 353.35,458.58 L 349.20,446.72 L 357.28,435.64 L 373.73,437.52 Z" fill="#C8D8E8" stroke="#8BAABB" stroke-width="0.8"/>
<path d="M 99.39,380.98 L 113.03,372.30 L 98.93,349.51 L 123.81,344.24 L 126.87,327.28 L 145.87,318.66 L 166.61,324.58 L 175.96,321.25 L 156.09,306.77 L 164.79,302.34 L 191.17,303.41 L 190.80,309.64 L 239.94,331.82 L 280.03,336.78 L 331.43,354.54 L 310.81,366.37 L 291.82,366.32 L 301.19,373.50 L 286.40,384.84 L 264.56,388.23 L 254.96,374.06 L 242.81,377.33 L 200.81,410.29 L 212.62,417.23 L 211.73,437.30 L 188.14,430.48 L 153.72,402.88 L 140.71,403.90 L 112.45,391.78 L 131.25,394.22 L 129.66,387.06 L 106.54,392.36 L 99.39,380.98 Z" fill="#C8D8E8" stroke="#8BAABB" stroke-width="0.8"/>
<path d="M 710.56,275.69 L 638.40,278.97 L 638.05,266.62 L 655.62,258.77 L 614.42,247.95 L 588.54,229.22 L 601.07,221.12 L 623.43,219.75 L 582.37,207.73 L 546.12,226.13 L 530.10,213.71 L 457.64,203.22 L 452.74,197.93 L 474.63,195.33 L 452.24,186.65 L 469.43,174.94 L 381.50,148.31 L 383.75,126.54 L 371.92,127.30 L 318.01,98.22 L 345.34,92.96 L 369.01,95.85 L 385.31,85.51 L 427.19,84.22 L 443.68,73.65 L 446.14,58.71 L 470.45,50.78 L 486.32,25.35 L 524.59,0.00 L 800.00,0.00 L 800.00,282.77 L 710.56,275.69 Z" fill="#C8D8E8" stroke="#8BAABB" stroke-width="0.8"/>
<path d="M 371.92,127.30 L 383.75,126.54 L 381.50,148.31 L 469.43,174.94 L 452.24,186.65 L 474.63,195.33 L 452.74,197.93 L 457.64,203.22 L 530.10,213.71 L 546.12,226.13 L 582.37,207.73 L 623.43,219.75 L 589.40,226.36 L 614.53,247.98 L 602.58,261.09 L 579.17,266.71 L 573.10,281.49 L 593.61,308.07 L 650.00,331.94 L 618.81,354.87 L 582.53,360.71 L 589.25,367.07 L 582.28,379.89 L 595.75,387.42 L 582.12,399.57 L 563.34,396.03 L 479.32,406.25 L 472.18,398.29 L 484.46,394.73 L 502.25,372.18 L 455.55,366.24 L 459.15,358.05 L 441.24,354.90 L 420.91,338.63 L 390.14,332.28 L 387.83,325.35 L 361.75,330.08 L 366.57,341.69 L 344.24,349.84 L 346.28,357.37 L 330.42,359.61 L 329.42,353.27 L 280.03,336.78 L 239.94,331.82 L 188.82,307.54 L 198.12,298.96 L 226.80,300.88 L 228.96,294.29 L 197.01,266.02 L 231.52,268.00 L 242.46,263.34 L 181.65,238.80 L 183.25,224.88 L 213.12,197.42 L 190.15,192.28 L 169.44,197.21 L 166.48,193.28 L 183.46,190.24 L 172.95,175.57 L 216.90,170.32 L 164.79,156.93 L 168.68,146.77 L 180.39,145.74 L 155.84,140.84 L 163.70,133.22 L 150.00,118.19 L 175.44,105.87 L 199.42,108.31 L 234.11,93.75 L 318.01,98.22 L 371.92,127.30 Z" fill="#4A90D9" stroke="#1a5fa8" stroke-width="1.2"/>
<path d="M 0.00,45.49 L 0.00,41.07 L 33.45,35.48 L 30.10,31.63 L 52.09,22.34 L 66.85,26.07 L 30.67,38.01 L 0.00,45.49 Z" fill="#A8C8E8" stroke="none"/>
<path d="M 197.52,414.07 L 176.95,401.17 L 208.35,405.20 L 220.15,398.54 L 211.81,407.12 L 225.71,416.53 L 197.52,414.07 Z" fill="#A8C8E8" stroke="none"/>
<path d="M 386.87,500.00 L 368.11,500.00 L 367.86,491.30 L 387.75,496.25 L 386.87,500.00 Z" fill="#A8C8E8" stroke="none"/>
</svg>