<svg xmlns="http://www.w3.org/2000/svg" width="800" height="500" viewBox="0 0 800 500">
<rect width="800" height="500" fill="#A8C8E8"/>
<path d="M 376.04,446.72 L 378.00,458.58 L 372.82,461.41 L 378.31,473.28 L 376.02,486.44 L 382.57,500.00 L 317.51,500.00 L 319.85,484.78 L 312.80,472.26 L 319.85,464.30 L 315.52,458.57 L 325.35,456.98 L 324.13,439.97 L 311.19,437.30 L 311.61,417.23 L 305.88,411.14 L 330.28,373.36 L 335.14,387.72 L 349.70,381.09 L 361.04,400.04 L 374.97,407.15 L 381.69,428.68 L 376.04,446.72 Z" fill="#E8E0D0" stroke="#B8B0A0" stroke-width="0.5"/>
<path d="M 353.39,373.50 L 349.44,365.66 L 374.66,357.37 L 373.70,349.84 L 385.43,339.05 L 381.96,330.08 L 392.83,324.90 L 395.35,332.28 L 409.86,338.63 L 419.45,354.90 L 427.90,358.05 L 426.20,366.24 L 448.71,373.94 L 434.05,398.29 L 436.79,405.91 L 425.52,407.70 L 421.67,418.25 L 410.20,409.92 L 392.29,419.00 L 386.38,437.96 L 379.85,435.64 L 376.06,408.70 L 361.04,400.04 L 351.17,381.97 L 353.39,373.50 Z" fill="#E8E0D0" stroke="#B8B0A0" stroke-width="0.5"/>
<path d="M 464.44,493.11 L 501.95,494.08 L 506.30,478.53 L 553.79,475.65 L 588.68,460.69 L 588.68,500.00 L 456.37,500.00 L 464.44,493.11 Z" fill="#E8E0D0" stroke="#B8B0A0" stroke-width="0.5"/>
<path d="M 211.32,351.52 L 211.32,349.66 L 213.96,348.59 L 212.00,342.15 L 211.32,341.43 L 211.32,173.61 L 215.21,173.44 L 223.84,181.37 L 246.81,173.96 L 262.75,182.06 L 271.96,179.54 L 284.03,197.57 L 301.01,192.28 L 311.39,195.50 L 296.46,235.69 L 325.26,261.84 L 320.53,268.00 L 305.92,265.19 L 303.44,269.55 L 316.71,285.13 L 318.30,300.88 L 310.13,297.35 L 285.26,305.44 L 294.32,321.25 L 289.91,324.58 L 280.13,318.66 L 271.16,327.28 L 269.72,344.24 L 259.08,346.38 L 258.61,360.43 L 264.64,372.30 L 261.33,380.53 L 232.95,366.54 L 222.47,353.04 L 211.32,351.52 Z" fill="#C8D8E8" stroke="#8BAABB" stroke-width="0.8"/>
<path d="M 580.30,462.50 L 577.91,469.25 L 553.79,475.65 L 514.07,478.46 L 519.31,446.25 L 509.57,423.98 L 492.02,415.25 L 481.40,400.56 L 492.14,389.07 L 485.98,379.89 L 489.27,367.07 L 486.10,360.71 L 503.22,354.87 L 517.74,330.00 L 491.33,308.07 L 481.65,281.49 L 484.51,266.71 L 495.56,261.09 L 501.19,247.98 L 520.58,258.77 L 512.29,266.62 L 512.45,278.97 L 546.49,275.69 L 588.68,282.77 L 588.68,461.81 L 580.30,462.50 Z" fill="#C8D8E8" stroke="#8BAABB" stroke-width="0.8"/>
<path d="M 225.11,125.02 L 256.32,127.40 L 270.67,114.19 L 284.70,112.31 L 281.48,121.51 L 288.54,133.22 L 284.83,140.84 L 296.41,145.74 L 290.89,146.77 L 289.05,156.93 L 313.63,170.32 L 297.30,170.91 L 292.90,175.57 L 297.86,190.24 L 284.03,197.57 L 272.29,179.75 L 262.75,182.06 L 246.81,173.96 L 223.84,181.37 L 215.21,173.44 L 211.32,173.61 L 211.32,113.16 L 225.11,125.02 Z M 212.00,342.15 L 212.34,349.81 L 211.32,349.71 L 211.32,341.43 L 212.00,342.15 Z M 261.57,392.36 L 227.10,362.52 L 217.28,359.70 L 219.62,363.49 L 218.87,364.02 L 211.32,359.87 L 211.32,355.81 L 218.45,358.66 L 213.42,354.55 L 222.47,353.04 L 225.14,360.44 L 258.20,380.98 L 261.57,392.36 Z M 218.88,370.19 L 211.32,367.81 L 211.32,367.02 L 218.88,370.19 Z" fill="#C8D8E8" stroke="#8BAABB" stroke-width="0.8"/>
<path d="M 440.72,25.35 L 433.23,50.78 L 421.76,58.71 L 420.61,73.65 L 407.51,88.02 L 394.27,85.18 L 385.38,95.85 L 374.22,92.96 L 361.32,98.22 L 321.75,93.75 L 305.39,108.31 L 295.39,105.33 L 289.30,113.06 L 270.67,114.19 L 256.32,127.40 L 225.11,125.02 L 211.32,113.16 L 211.32,0.00 L 458.77,0.00 L 440.72,25.35 Z" fill="#C8D8E8" stroke="#8BAABB" stroke-width="0.8"/>
<path d="M 387.61,437.52 L 392.29,419.00 L 410.20,409.92 L 421.07,418.39 L 429.50,405.86 L 477.05,396.03 L 492.02,415.25 L 509.57,423.98 L 519.36,448.13 L 514.98,456.42 L 515.43,477.34 L 504.60,480.10 L 501.95,494.08 L 464.44,493.11 L 456.37,500.00 L 382.57,500.00 L 376.02,486.44 L 378.31,473.28 L 372.82,461.41 L 378.00,458.58 L 376.04,446.72 L 379.85,435.64 L 387.61,437.52 Z" fill="#C8D8E8" stroke="#8BAABB" stroke-width="0.8"/>
<path d="M 258.20,380.98 L 264.64,372.30 L 257.98,349.51 L 269.72,344.24 L 271.16,327.28 L 280.13,318.66 L 289.91,324.58 L 294.32,321.25 L 284.95,306.77 L 289.05,302.34 L 301.50,303.41 L 301.32,309.64 L 324.50,331.82 L 343.41,336.78 L 367.65,354.54 L 357.93,366.37 L 348.97,366.32 L 353.39,373.50 L 346.41,384.84 L 336.11,388.23 L 331.58,374.06 L 325.85,377.33 L 306.04,410.29 L 311.61,417.23 L 311.19,437.30 L 300.06,430.48 L 283.83,402.88 L 277.69,403.90 L 264.36,391.78 L 273.23,394.22 L 272.48,387.06 L 261.57,392.36 L 258.20,380.98 Z" fill="#C8D8E8" stroke="#8BAABB" stroke-width="0.8"/>
<path d="M 546.49,275.69 L 512.45,278.97 L 512.29,266.62 L 520.58,258.77 L 501.14,247.95 L 488.94,229.22 L 494.84,221.12 L 505.39,219.75 L 486.03,207.73 L 468.92,226.13 L 461.37,213.71 L 427.19,203.22 L 424.88,197.93 L 435.20,195.33 L 424.64,186.65 L 432.75,174.94 L 391.27,148.31 L 392.33,126.54 L 386.76,127.30 L 361.32,98.22 L 374.22,92.96 L 385.38,95.85 L 393.07,85.51 L 412.82,84.22 L 420.61,73.65 L 421.76,58.71 L 433.23,50.78 L 440.72,25.35 L 458.77,0.00 L 588.68,0.00 L 588.68,282.77 L 546.49,275.69 Z" fill="#C8D8E8" stroke="#8BAABB" stroke-width="0.8"/>
<path d="M 386.76,127.30 L 392.33,126.54 L 391.27,148.31 L 432.75,174.94 L 424.64,186.65 L 435.20,195.33 L 424.88,197.93 L 427.19,203.22 L 461.37,213.71 L 468.92,226.13 L 486.03,207.73 L 505.39,219.75 L 489.34,226.36 L 501.19,247.98 L 495.56,261.09 L 484.51,266.71 L 481.65,281.49 L 491.33,308.07 L 517.93,331.94 L 503.22,354.87 L 486.10,360.71 L 489.27,367.07 L 485.98,379.89 L 492.34,387.42 L 485.91,399.57 L 477.05,396.03 L 437.42,406.25 L 434.05,398.29 L 439.84,394.73 L 448.23,372.18 L 426.20,366.24 L 427.90,358.05 L 419.45,354.90 L 409.86,338.63 L 395.35,332.28 L 394.26,325.35 L 381.96,330.08 L 384.23,341.69 L 373.70,349.84 L 374.66,357.37 L 367.18,359.61 L 366.71,353.27 L 343.41,336.78 L 324.50,331.82 L 300.39,307.54 L 304.77,298.96 L 318.30,300.88 L 319.32,294.29 L 304.25,266.02 L 320.53,268.00 L 325.69,263.34 L 297.00,238.80 L 297.76,224.88 L 311.85,197.42 L 301.01,192.28 L 291.24,197.21 L 289.85,193.28 L 297.86,190.24 L 292.90,175.57 L 313.63,170.32 L 289.05,156.93 L 290.89,146.77 L 296.41,145.74 L 284.83,140.84 L 288.54,133.22 L 282.07,118.19 L 294.07,105.87 L 305.39,108.31 L 321.75,93.75 L 361.32,98.22 L 386.76,127.30 Z" fill="#4A90D9" stroke="#1a5fa8" stroke-width="1.2"/>
<path d="M 211.32,45.49 L 211.32,41.07 L 227.10,35.48 L 225.52,31.63 L 235.89,22.34 L 242.85,26.07 L 225.78,38.01 L 211.32,45.49 Z" fill="#A8C8E8" stroke="none"/>
<path d="M 304.49,414.07 L 294.79,401.17 L 309.60,405.20 L 315.16,398.54 L 311.23,407.12 L 317.79,416.53 L 304.49,414.07 Z" fill="#A8C8E8" stroke="none"/>
<path d="M 393.81,500.00 L 384.96,500.00 L 384.84,491.30 L 394.22,496.25 L 393.81,500.00 Z" fill="#A8C8E8" stroke="none"/>
</svg>