<svg xmlns="http://www.w3.org/2000/svg" width="800" height="500" viewBox="0 0 800 500">
<rect width="800" height="500" fill="#A8C8E8"/>
<path d="M 484.74,359.26 L 501.38,359.85 L 484.71,391.46 L 496.06,405.81 L 548.69,411.29 L 547.03,453.34 L 488.37,500.00 L 298.47,500.00 L 300.26,421.91 L 261.57,382.88 L 268.71,355.36 L 309.60,360.11 L 316.67,387.52 L 376.04,384.24 L 403.84,363.24 L 409.11,307.90 L 438.02,325.81 L 478.90,305.74 L 506.39,320.98 L 484.74,359.26 Z" fill="#C8D8E8" stroke="#8BAABB" stroke-width="0.8"/>
<path d="M 350.24,90.97 L 353.87,162.82 L 300.06,205.05 L 284.00,233.91 L 284.68,289.28 L 242.75,319.63 L 241.33,339.38 L 246.65,360.37 L 268.09,374.77 L 262.83,385.51 L 300.26,421.91 L 298.47,500.00 L 146.52,500.00 L 146.52,0.00 L 363.72,0.00 L 350.24,90.97 Z" fill="#C8D8E8" stroke="#8BAABB" stroke-width="0.8"/>
<path d="M 544.67,457.54 L 549.74,441.63 L 548.69,411.29 L 496.06,405.81 L 484.71,391.46 L 501.38,359.85 L 484.14,363.10 L 499.13,330.80 L 550.08,312.34 L 558.42,271.28 L 544.24,247.34 L 549.55,194.97 L 534.95,165.68 L 506.50,151.89 L 494.90,111.37 L 519.51,113.60 L 541.14,99.92 L 653.48,100.50 L 653.48,500.00 L 488.43,500.00 L 544.67,457.54 Z" fill="#C8D8E8" stroke="#8BAABB" stroke-width="0.8"/>
<path d="M 472.48,112.48 L 442.77,156.05 L 410.17,176.03 L 392.47,152.74 L 353.87,162.82 L 350.24,90.97 L 363.72,0.00 L 653.48,0.00 L 653.48,100.52 L 541.14,99.92 L 472.48,112.48 Z" fill="#C8D8E8" stroke="#8BAABB" stroke-width="0.8"/>
<path d="M 246.65,360.37 L 241.58,323.73 L 284.68,289.28 L 284.00,233.91 L 317.15,182.84 L 391.07,152.53 L 413.60,174.75 L 442.77,156.05 L 472.48,112.48 L 493.46,112.58 L 506.50,151.89 L 534.95,165.68 L 550.69,198.28 L 544.24,247.34 L 558.42,271.28 L 550.08,312.34 L 501.26,320.79 L 478.90,305.74 L 438.02,325.81 L 409.11,307.90 L 403.84,363.24 L 376.04,384.24 L 316.67,387.52 L 311.50,361.53 L 281.34,351.29 L 266.02,371.00 L 246.65,360.37 Z" fill="#4A90D9" stroke="#1a5fa8" stroke-width="1.2"/>
<path d="M 284.63,481.33 L 295.80,466.89 L 315.02,471.21 L 317.44,500.00 L 283.94,500.00 L 284.63,481.33 Z" fill="#A8C8E8" stroke="none"/>
<path d="M 272.64,318.56 L 267.99,303.06 L 239.03,331.90 L 238.89,316.72 L 259.30,299.66 L 245.51,309.41 L 252.04,297.86 L 242.30,298.83 L 241.24,280.57 L 258.48,266.72 L 254.62,255.87 L 245.51,260.19 L 278.11,206.98 L 276.54,198.15 L 265.88,209.97 L 272.86,193.78 L 303.39,210.98 L 315.66,266.40 L 272.64,318.56 Z M 270.52,253.94 L 265.88,298.83 L 278.29,292.80 L 279.16,251.45 L 270.52,253.94 Z" fill="#A8C8E8" stroke="none"/>
<path d="M 321.41,53.63 L 311.89,23.60 L 325.64,0.00 L 393.96,0.00 L 393.25,2.16 L 321.41,53.63 Z" fill="#A8C8E8" stroke="none"/>
<path d="M 404.93,157.39 L 394.50,133.43 L 409.21,142.40 L 414.58,155.28 L 404.93,157.39 Z" fill="#A8C8E8" stroke="none"/>
</svg>