<svg xmlns="http://www.w3.org/2000/svg" width="800" height="500" viewBox="0 0 800 500">
<rect width="800" height="500" fill="#A8C8E8"/>
<path d="M 533.73,359.26 L 559.99,359.85 L 533.68,391.46 L 551.59,405.81 L 634.64,411.29 L 632.02,453.34 L 539.46,500.00 L 239.78,500.00 L 242.61,421.91 L 181.56,382.88 L 192.81,355.36 L 257.34,360.11 L 268.50,387.52 L 362.20,384.24 L 406.06,363.24 L 414.38,307.90 L 460.00,325.81 L 524.51,305.74 L 567.89,320.98 L 533.73,359.26 Z" fill="#C8D8E8" stroke="#8BAABB" stroke-width="0.8"/>
<path d="M 321.47,90.97 L 327.20,162.82 L 242.29,205.05 L 216.95,233.91 L 218.02,289.28 L 151.85,319.63 L 149.61,339.38 L 158.01,360.37 L 191.83,374.77 L 183.53,385.51 L 242.61,421.91 L 239.78,500.00 L 0.00,500.00 L 0.00,0.00 L 342.74,0.00 L 321.47,90.97 Z" fill="#C8D8E8" stroke="#8BAABB" stroke-width="0.8"/>
<path d="M 628.30,457.54 L 636.30,441.63 L 634.64,411.29 L 551.59,405.81 L 533.68,391.46 L 559.99,359.85 L 532.78,363.10 L 556.43,330.80 L 636.83,312.34 L 650.00,271.28 L 627.61,247.34 L 636.00,194.97 L 612.97,165.68 L 568.07,151.89 L 549.75,111.37 L 588.59,113.60 L 622.72,99.92 L 800.00,100.50 L 800.00,500.00 L 539.55,500.00 L 628.30,457.54 Z" fill="#C8D8E8" stroke="#8BAABB" stroke-width="0.8"/>
<path d="M 514.38,112.48 L 467.49,156.05 L 416.05,176.03 L 388.12,152.74 L 327.20,162.82 L 321.47,90.97 L 342.74,0.00 L 800.00,0.00 L 800.00,100.52 L 622.72,99.92 L 514.38,112.48 Z" fill="#C8D8E8" stroke="#8BAABB" stroke-width="0.8"/>
<path d="M 158.01,360.37 L 150.00,323.73 L 218.02,289.28 L 216.95,233.91 L 269.26,182.84 L 385.91,152.53 L 421.46,174.75 L 467.49,156.05 L 514.38,112.48 L 547.48,112.58 L 568.07,151.89 L 612.97,165.68 L 637.80,198.28 L 627.61,247.34 L 650.00,271.28 L 636.83,312.34 L 559.79,320.79 L 524.51,305.74 L 460.00,325.81 L 414.38,307.90 L 406.06,363.24 L 362.20,384.24 L 268.50,387.52 L 260.35,361.53 L 212.74,351.29 L 188.57,371.00 L 158.01,360.37 Z" fill="#4A90D9" stroke="#1a5fa8" stroke-width="1.2"/>
<path d="M 217.94,481.33 L 235.57,466.89 L 265.89,471.21 L 269.71,500.00 L 216.84,500.00 L 217.94,481.33 Z" fill="#A8C8E8" stroke="none"/>
<path d="M 199.01,318.56 L 191.68,303.06 L 145.98,331.90 L 145.77,316.72 L 177.97,299.66 L 156.21,309.41 L 166.51,297.86 L 151.13,298.83 L 149.46,280.57 L 176.67,266.72 L 170.57,255.87 L 156.21,260.19 L 207.64,206.98 L 205.18,198.15 L 188.35,209.97 L 199.37,193.78 L 247.54,210.98 L 266.91,266.40 L 199.01,318.56 Z M 195.67,253.94 L 188.35,298.83 L 207.93,292.80 L 209.31,251.45 L 195.67,253.94 Z" fill="#A8C8E8" stroke="none"/>
<path d="M 275.98,53.63 L 260.96,23.60 L 282.65,0.00 L 390.47,0.00 L 389.36,2.16 L 275.98,53.63 Z" fill="#A8C8E8" stroke="none"/>
<path d="M 407.78,157.39 L 391.31,133.43 L 414.53,142.40 L 423.01,155.28 L 407.78,157.39 Z" fill="#A8C8E8" stroke="none"/>
</svg>