<svg xmlns="http://www.w3.org/2000/svg" width="800" height="500" viewBox="0 0 800 500">
<rect width="800" height="500" fill="#A8C8E8"/>
<path d="M 129.32,37.17 L 128.78,35.53 L 133.78,34.27 L 134.37,35.19 L 131.63,35.87 L 133.84,37.47 L 129.32,37.17 Z M 130.52,36.55 L 130.52,36.35 L 130.26,36.36 L 130.52,36.55 Z" fill="#E8E0D0" stroke="#B8B0A0" stroke-width="0.5"/>
<path d="M 131.19,37.05 L 130.69,36.86 L 131.52,37.08 L 131.19,37.05 Z M 130.26,36.36 L 130.52,36.35 L 130.52,36.55 L 130.26,36.36 Z M 127.04,40.17 L 111.78,44.08 L 112.37,43.12 L 109.34,42.58 L 105.72,43.67 L 99.83,42.15 L 95.38,35.19 L 98.75,35.78 L 104.59,32.92 L 108.54,35.47 L 122.54,33.45 L 123.56,37.08 L 125.00,35.76 L 129.35,36.87 L 127.04,40.17 Z M 136.93,35.50 L 138.76,37.33 L 132.56,37.36 L 131.76,35.65 L 136.93,35.50 Z" fill="#E8E0D0" stroke="#B8B0A0" stroke-width="0.5"/>
<path d="M 149.60,105.29 L 147.83,104.43 L 153.30,97.12 L 158.90,80.00 L 161.63,79.13 L 162.51,74.58 L 171.54,74.58 L 173.18,70.74 L 174.47,71.55 L 179.63,68.25 L 178.38,70.91 L 181.22,77.41 L 178.12,81.39 L 173.45,83.44 L 173.46,88.52 L 164.67,85.41 L 161.20,87.54 L 159.23,92.16 L 161.07,97.97 L 159.61,99.46 L 164.56,99.95 L 165.41,98.55 L 166.38,101.15 L 159.51,103.49 L 157.26,108.80 L 164.06,108.81 L 171.02,106.24 L 169.53,110.89 L 170.55,113.94 L 163.46,127.30 L 163.59,133.39 L 158.02,145.96 L 142.30,111.80 L 149.60,105.29 Z" fill="#E8E0D0" stroke="#B8B0A0" stroke-width="0.5"/>
<path d="M 149.60,105.29 L 142.30,111.80 L 141.16,109.76 L 147.83,104.43 L 149.60,105.29 Z M 159.15,92.46 L 161.67,86.97 L 165.09,85.39 L 173.46,88.52 L 173.42,100.81 L 171.03,106.25 L 164.06,108.81 L 157.26,108.80 L 159.51,103.49 L 166.38,101.15 L 165.41,98.55 L 164.56,99.95 L 159.61,99.46 L 161.07,97.97 L 159.15,92.46 Z" fill="#E8E0D0" stroke="#B8B0A0" stroke-width="0.5"/>
<path d="M 171.31,58.42 L 175.35,56.49 L 175.93,50.30 L 183.48,45.79 L 183.16,43.58 L 190.09,44.03 L 191.21,42.83 L 194.33,43.99 L 191.47,46.28 L 196.34,48.08 L 198.22,52.53 L 190.73,57.54 L 192.65,59.71 L 185.07,60.12 L 182.02,63.61 L 184.71,65.05 L 174.47,71.55 L 173.18,70.74 L 171.54,74.58 L 162.64,74.55 L 171.31,58.42 Z" fill="#E8E0D0" stroke="#B8B0A0" stroke-width="0.5"/>
<path d="M 161.87,496.57 L 167.67,492.50 L 176.46,479.89 L 186.61,479.05 L 187.13,472.49 L 193.17,461.24 L 196.37,448.06 L 201.63,446.70 L 209.04,447.80 L 210.49,444.94 L 214.59,444.22 L 220.76,451.20 L 228.77,435.84 L 231.51,438.92 L 236.79,439.81 L 241.48,445.01 L 251.91,443.50 L 255.32,440.37 L 258.11,441.34 L 260.03,444.56 L 267.31,442.03 L 276.27,444.83 L 281.30,444.05 L 298.60,451.19 L 307.12,460.91 L 319.45,468.21 L 325.03,475.59 L 330.68,478.43 L 335.30,483.73 L 321.37,498.84 L 321.31,500.00 L 161.87,500.00 L 161.87,496.57 Z" fill="#E8E0D0" stroke="#B8B0A0" stroke-width="0.5"/>
<path d="M 97.20,498.86 L 90.88,492.98 L 106.66,492.92 L 106.30,488.68 L 117.63,488.80 L 114.87,500.00 L 97.20,500.00 L 97.20,498.86 Z" fill="#E8E0D0" stroke="#B8B0A0" stroke-width="0.5"/>
<path d="M 531.40,493.88 L 535.12,493.19 L 546.87,496.28 L 544.96,500.00 L 523.92,500.00 L 531.40,493.88 Z" fill="#E8E0D0" stroke="#B8B0A0" stroke-width="0.5"/>
<path d="M 181.22,77.41 L 178.27,69.68 L 184.71,65.05 L 182.02,63.61 L 182.65,62.25 L 187.16,59.44 L 192.36,59.97 L 190.73,57.54 L 198.22,52.53 L 196.34,48.08 L 191.47,46.28 L 194.33,43.99 L 191.21,42.83 L 190.09,44.03 L 183.16,43.58 L 180.72,38.14 L 182.99,32.71 L 181.95,28.35 L 177.31,25.09 L 180.09,21.81 L 179.10,19.78 L 183.41,18.25 L 187.62,20.31 L 188.55,17.75 L 192.38,16.91 L 192.73,12.28 L 199.64,12.25 L 196.49,7.29 L 199.07,0.36 L 206.78,1.84 L 208.87,4.49 L 218.20,4.21 L 232.50,0.00 L 243.08,0.00 L 248.56,3.03 L 260.77,3.67 L 273.25,2.07 L 279.77,0.00 L 329.10,0.00 L 322.59,4.54 L 311.71,6.55 L 309.13,9.76 L 308.18,15.60 L 311.19,23.63 L 307.34,31.81 L 307.41,40.74 L 301.73,48.50 L 295.21,49.90 L 249.73,68.94 L 203.33,89.87 L 193.08,88.63 L 178.12,81.39 L 181.22,77.41 Z" fill="#E8E0D0" stroke="#B8B0A0" stroke-width="0.5"/>
<path d="M 273.25,2.07 L 260.77,3.67 L 248.56,3.03 L 243.08,0.00 L 279.77,0.00 L 273.25,2.07 Z M 218.20,4.21 L 208.87,4.49 L 206.78,1.84 L 199.07,0.36 L 196.49,7.29 L 199.78,12.09 L 192.73,12.28 L 192.38,16.91 L 188.55,17.75 L 187.16,20.37 L 181.77,18.43 L 183.29,16.43 L 178.83,10.76 L 188.89,4.05 L 188.36,0.89 L 186.93,0.00 L 232.50,0.00 L 218.20,4.21 Z M 174.54,2.10 L 173.89,3.20 L 176.97,2.51 L 174.94,4.84 L 168.35,6.06 L 152.85,0.65 L 142.96,5.15 L 135.43,12.56 L 133.35,10.55 L 129.00,14.08 L 128.03,12.97 L 125.78,14.26 L 116.39,14.08 L 108.01,16.26 L 97.61,13.26 L 89.38,5.95 L 73.29,0.75 L 66.16,0.00 L 180.14,0.00 L 174.54,2.10 Z M 54.99,1.29 L 54.99,6.32 L 51.60,12.30 L 45.22,10.87 L 33.68,14.35 L 20.01,9.04 L 20.45,5.83 L 18.07,5.92 L 20.01,3.60 L 16.27,1.89 L 13.66,4.84 L 5.90,0.00 L 56.63,0.00 L 54.99,1.29 Z M 3.39,1.13 L 0.09,0.01 L 0.99,2.51 L 0.00,3.01 L 0.00,0.00 L 4.19,0.00 L 3.39,1.13 Z" fill="#E8E0D0" stroke="#B8B0A0" stroke-width="0.5"/>
<path d="M 71.09,294.68 L 75.24,290.06 L 76.87,291.13 L 75.53,294.66 L 116.97,294.66 L 125.98,300.34 L 136.38,299.18 L 138.40,294.66 L 204.85,294.65 L 204.95,301.51 L 215.04,313.26 L 213.59,314.29 L 213.07,311.87 L 210.11,310.29 L 213.03,323.04 L 211.77,327.32 L 213.40,342.66 L 217.92,356.83 L 220.43,359.72 L 223.63,359.23 L 225.61,361.46 L 229.58,362.32 L 234.24,365.73 L 233.16,367.02 L 234.95,368.98 L 238.62,367.85 L 236.51,369.61 L 240.64,369.48 L 245.68,373.65 L 236.89,383.34 L 234.19,382.94 L 233.16,384.25 L 232.27,382.89 L 219.39,387.58 L 217.19,393.18 L 206.98,392.53 L 207.61,396.90 L 204.68,403.42 L 206.53,408.09 L 199.80,419.10 L 198.78,424.61 L 193.97,430.80 L 196.37,448.06 L 193.17,461.24 L 187.13,472.49 L 186.81,478.66 L 176.46,479.89 L 167.67,492.50 L 161.87,496.57 L 161.87,500.00 L 114.87,500.00 L 117.63,488.80 L 106.30,488.68 L 106.66,492.92 L 90.88,492.98 L 97.20,498.86 L 97.20,500.00 L 0.00,500.00 L 0.00,294.67 L 71.09,294.68 Z M 214.34,317.72 L 213.65,319.37 L 213.39,318.29 L 214.34,317.72 Z" fill="#E8E0D0" stroke="#B8B0A0" stroke-width="0.5"/>
<path d="M 321.37,498.84 L 336.52,482.65 L 342.39,485.83 L 345.10,484.46 L 346.92,480.55 L 352.82,478.93 L 357.85,483.28 L 359.87,488.51 L 358.98,492.88 L 354.93,493.81 L 351.35,496.87 L 344.74,498.29 L 343.37,500.00 L 321.31,500.00 L 321.37,498.84 Z" fill="#E8E0D0" stroke="#B8B0A0" stroke-width="0.5"/>
<path d="M 346.92,480.55 L 345.10,484.46 L 342.39,485.83 L 337.59,482.73 L 335.30,483.73 L 330.68,478.43 L 325.03,475.59 L 319.45,468.21 L 307.12,460.91 L 298.60,451.19 L 281.30,444.05 L 276.27,444.83 L 267.31,442.03 L 260.03,444.56 L 258.11,441.34 L 255.32,440.37 L 251.91,443.50 L 241.48,445.01 L 236.79,439.81 L 231.51,438.92 L 228.77,435.84 L 220.76,451.20 L 214.59,444.22 L 210.49,444.94 L 209.04,447.80 L 201.63,446.70 L 196.37,448.06 L 193.97,430.80 L 198.78,424.61 L 199.80,419.10 L 206.53,408.09 L 204.68,403.42 L 207.61,396.90 L 206.98,392.53 L 217.19,393.18 L 219.39,387.58 L 232.27,382.89 L 233.16,384.25 L 234.19,382.94 L 236.89,383.34 L 245.63,373.83 L 255.38,390.49 L 262.07,415.02 L 265.46,417.34 L 265.95,423.04 L 269.60,423.53 L 272.07,431.58 L 274.34,431.88 L 275.37,430.01 L 273.44,425.70 L 275.86,423.45 L 280.72,426.69 L 279.45,428.74 L 282.61,433.80 L 285.63,435.17 L 290.99,433.10 L 295.31,435.51 L 297.02,439.50 L 306.53,440.65 L 318.62,454.48 L 325.58,456.35 L 328.83,460.36 L 331.61,462.14 L 330.68,459.89 L 333.14,461.73 L 335.30,468.72 L 338.97,468.52 L 343.62,472.47 L 344.84,476.07 L 348.32,477.30 L 350.05,475.11 L 352.82,478.93 L 346.92,480.55 Z M 288.17,422.10 L 278.32,421.42 L 277.34,419.52 L 280.75,420.33 L 277.17,418.78 L 279.71,416.82 L 277.66,415.71 L 282.06,417.45 L 282.71,420.67 L 285.16,419.49 L 288.17,422.10 Z M 281.54,413.89 L 278.59,413.26 L 280.02,411.48 L 281.54,413.89 Z" fill="#E8E0D0" stroke="#B8B0A0" stroke-width="0.5"/>
<path d="M 540.03,1.56 L 561.50,5.23 L 597.00,0.00 L 607.10,0.00 L 611.47,0.50 L 611.49,0.00 L 757.54,0.00 L 761.67,4.15 L 781.22,4.17 L 780.77,9.71 L 782.62,14.34 L 780.37,17.38 L 783.01,18.90 L 784.17,25.76 L 781.73,30.68 L 779.86,31.12 L 780.78,34.61 L 778.84,40.31 L 776.04,43.82 L 770.16,46.23 L 774.68,50.15 L 768.83,50.39 L 765.24,53.72 L 765.70,63.65 L 775.41,66.12 L 767.02,73.32 L 766.91,75.16 L 773.26,91.22 L 771.94,95.62 L 773.05,106.18 L 793.59,108.59 L 796.90,115.70 L 796.33,119.03 L 773.59,138.65 L 785.29,148.25 L 790.73,158.24 L 798.48,164.76 L 800.00,165.09 L 800.00,209.47 L 797.06,210.73 L 795.19,218.77 L 792.96,219.78 L 792.00,229.38 L 787.06,233.86 L 768.58,229.59 L 766.59,226.18 L 762.93,227.55 L 764.64,229.28 L 760.42,227.56 L 751.26,228.50 L 740.59,225.88 L 730.86,227.11 L 725.66,223.92 L 716.02,222.90 L 707.81,223.86 L 705.20,221.29 L 700.66,222.43 L 700.27,220.31 L 689.73,219.49 L 686.30,213.56 L 687.39,211.90 L 684.25,206.96 L 682.93,198.32 L 680.57,196.25 L 681.71,195.30 L 679.15,195.13 L 677.80,192.59 L 661.54,192.17 L 657.16,194.83 L 650.67,195.45 L 647.25,199.64 L 641.30,199.48 L 629.91,205.36 L 620.37,203.20 L 618.44,201.02 L 604.39,201.14 L 599.06,198.25 L 597.94,195.84 L 588.07,193.30 L 577.93,188.36 L 579.56,186.46 L 574.57,182.81 L 563.92,178.84 L 556.14,178.88 L 549.41,176.88 L 541.84,164.93 L 541.32,160.92 L 535.29,157.00 L 535.73,155.75 L 537.53,156.68 L 538.26,154.60 L 536.13,152.89 L 531.47,152.83 L 531.74,146.77 L 519.62,137.07 L 517.93,131.96 L 514.16,131.79 L 505.08,135.38 L 503.84,132.74 L 498.27,132.73 L 497.70,130.59 L 496.28,131.40 L 490.58,128.28 L 497.26,128.96 L 498.71,126.92 L 497.46,125.79 L 492.01,125.61 L 493.33,127.26 L 490.90,127.53 L 489.18,128.98 L 490.44,135.00 L 479.73,136.05 L 478.14,131.45 L 469.04,126.64 L 469.00,116.22 L 460.95,116.10 L 461.09,107.91 L 464.78,100.01 L 456.64,93.21 L 454.73,88.31 L 451.27,86.54 L 447.13,86.74 L 432.62,78.46 L 423.54,77.22 L 424.10,75.09 L 421.96,74.22 L 425.21,72.98 L 424.93,71.15 L 420.63,66.58 L 417.74,66.51 L 419.53,65.39 L 418.53,63.80 L 414.94,64.75 L 409.03,57.69 L 406.53,57.00 L 410.43,53.71 L 410.74,50.29 L 407.40,47.66 L 409.45,46.67 L 409.39,44.74 L 414.16,45.54 L 412.40,42.17 L 413.33,40.47 L 417.68,38.48 L 419.18,34.90 L 424.83,34.42 L 424.09,30.32 L 420.39,26.83 L 421.33,23.26 L 429.00,20.69 L 422.67,19.63 L 415.28,20.54 L 410.32,16.91 L 405.11,16.91 L 403.17,8.80 L 399.22,8.39 L 397.30,6.20 L 398.34,3.11 L 393.31,0.74 L 393.58,0.00 L 536.72,0.00 L 540.03,1.56 Z M 624.12,209.44 L 623.50,210.22 L 622.72,209.29 L 624.12,209.44 Z M 610.07,205.43 L 608.82,204.56 L 611.58,204.18 L 612.01,205.51 L 610.07,205.43 Z M 592.68,199.34 L 590.94,198.38 L 596.46,199.27 L 592.68,199.34 Z M 666.70,197.76 L 668.20,197.48 L 667.60,198.56 L 666.70,197.76 Z M 665.43,196.25 L 657.35,201.39 L 655.67,200.46 L 641.76,204.32 L 641.62,202.10 L 653.24,199.39 L 652.86,196.27 L 656.18,197.21 L 663.64,195.30 L 665.43,196.25 Z M 670.58,194.14 L 668.92,194.27 L 668.97,193.77 L 670.58,194.14 Z M 524.13,150.55 L 523.93,151.53 L 522.91,150.34 L 524.13,150.55 Z M 624.26,217.19 L 623.32,217.13 L 623.23,216.91 L 624.26,217.19 Z M 655.98,202.83 L 655.12,202.88 L 655.48,201.98 L 655.98,202.83 Z M 602.73,202.16 L 601.67,201.72 L 601.85,201.50 L 602.73,202.16 Z M 636.16,217.89 L 635.30,217.99 L 635.15,217.55 L 636.16,217.89 Z" fill="#E8E0D0" stroke="#B8B0A0" stroke-width="0.5"/>
<path d="M 794.60,234.61 L 795.87,231.31 L 791.25,231.03 L 792.96,219.78 L 795.19,218.77 L 797.06,210.73 L 800.00,209.47 L 800.00,233.56 L 794.60,234.61 Z M 798.48,164.76 L 790.73,158.24 L 785.29,148.25 L 773.59,138.65 L 800.00,144.74 L 800.00,165.09 L 798.48,164.76 Z" fill="#E8E0D0" stroke="#B8B0A0" stroke-width="0.5"/>
<path d="M 773.59,138.65 L 796.33,119.03 L 796.90,115.70 L 793.59,108.59 L 773.05,106.18 L 771.94,95.62 L 773.26,91.22 L 766.91,75.16 L 767.02,73.32 L 775.41,66.12 L 765.70,63.65 L 765.24,53.72 L 768.83,50.39 L 774.68,50.15 L 770.16,46.23 L 776.04,43.82 L 778.84,40.31 L 780.78,34.61 L 779.72,31.54 L 781.73,30.68 L 783.69,24.36 L 791.64,28.09 L 800.00,27.95 L 800.00,144.74 L 773.59,138.65 Z" fill="#E8E0D0" stroke="#B8B0A0" stroke-width="0.5"/>
<path d="M 783.01,18.90 L 780.37,17.38 L 782.62,14.34 L 780.77,9.71 L 781.22,4.17 L 761.67,4.15 L 757.54,0.00 L 800.00,0.00 L 800.00,27.95 L 791.64,28.09 L 783.69,24.36 L 783.01,18.90 Z" fill="#E8E0D0" stroke="#B8B0A0" stroke-width="0.5"/>
<path d="M 136.49,201.15 L 135.34,199.53 L 135.83,199.53 L 136.49,201.15 Z M 157.45,145.96 L 153.89,149.50 L 151.23,160.92 L 146.14,169.17 L 146.73,176.01 L 141.49,179.66 L 142.51,180.91 L 130.79,175.04 L 118.10,164.22 L 116.89,155.89 L 105.90,146.63 L 102.65,135.61 L 96.95,143.92 L 102.73,148.36 L 103.78,156.22 L 108.08,160.08 L 109.56,164.03 L 125.83,177.57 L 126.72,179.66 L 123.91,179.03 L 126.72,182.53 L 124.45,182.53 L 132.57,190.55 L 132.53,192.97 L 136.31,197.41 L 135.18,198.71 L 135.01,202.24 L 149.38,220.66 L 163.57,244.96 L 171.86,252.72 L 177.67,255.21 L 178.95,256.82 L 172.34,255.34 L 171.63,256.52 L 171.76,264.86 L 173.14,266.91 L 176.64,276.07 L 181.17,279.97 L 189.24,281.96 L 194.32,287.49 L 205.13,293.25 L 204.85,294.65 L 75.53,294.66 L 76.87,291.13 L 75.24,290.06 L 71.09,294.68 L 0.00,294.67 L 0.00,114.24 L 4.06,114.34 L 18.39,119.43 L 29.67,116.86 L 43.11,109.38 L 45.38,111.70 L 48.31,111.28 L 45.72,110.48 L 48.89,109.04 L 49.62,106.12 L 50.11,106.87 L 50.92,107.20 L 50.06,105.90 L 54.18,106.80 L 64.58,104.36 L 54.34,108.01 L 58.89,108.30 L 68.02,106.21 L 64.67,104.41 L 67.51,103.94 L 78.41,107.20 L 85.95,105.37 L 86.87,105.39 L 87.62,105.66 L 93.67,110.14 L 86.31,105.44 L 85.57,108.97 L 83.40,110.35 L 87.19,112.29 L 89.81,111.70 L 89.31,113.46 L 91.46,114.94 L 95.66,113.29 L 95.65,110.73 L 93.85,110.14 L 96.80,110.61 L 103.21,114.79 L 110.94,112.91 L 104.75,114.96 L 106.29,115.23 L 110.94,113.78 L 112.90,114.88 L 114.19,113.32 L 113.39,114.00 L 111.59,113.88 L 115.26,112.10 L 115.83,115.09 L 122.32,112.91 L 124.53,113.46 L 128.05,113.67 L 141.16,109.76 L 157.45,145.96 Z M 165.18,278.97 L 174.88,271.96 L 170.33,275.15 L 165.18,278.97 Z M 156.06,282.52 L 156.86,281.07 L 154.86,284.65 L 156.06,282.52 Z M 152.59,288.65 L 146.44,289.62 L 139.91,290.76 L 152.59,288.65 Z M 134.83,185.55 L 134.35,184.97 L 137.08,185.40 L 137.62,186.34 L 134.83,185.55 Z M 152.59,176.34 L 153.78,176.37 L 153.13,177.34 L 152.59,176.34 Z M 148.70,176.90 L 148.02,175.60 L 149.10,175.36 L 151.13,177.10 L 148.70,176.90 Z M 112.36,114.34 L 112.41,114.54 L 111.95,114.28 L 112.36,114.34 Z M 119.07,111.70 L 119.76,111.78 L 123.97,113.19 L 119.07,111.70 Z M 115.10,111.50 L 111.12,113.06 L 115.15,111.23 L 118.45,111.65 L 115.10,111.50 Z" fill="#E8E0D0" stroke="#B8B0A0" stroke-width="0.5"/>
<path d="M 133.47,34.27 L 130.85,36.01 L 125.50,35.19 L 123.99,36.58 L 122.48,32.68 L 109.22,35.06 L 105.80,33.16 L 110.12,33.16 L 110.78,28.74 L 128.34,29.51 L 150.47,22.91 L 135.26,30.45 L 134.03,33.37 L 136.70,35.37 L 133.47,34.27 Z M 103.80,33.36 L 103.24,33.18 L 103.63,32.97 L 103.80,33.36 Z" fill="#E8E0D0" stroke="#B8B0A0" stroke-width="0.5"/>
<path d="M 136.70,35.37 L 136.93,35.50 L 134.76,35.62 L 136.70,35.37 Z M 129.56,36.92 L 125.00,35.76 L 123.56,37.08 L 122.54,33.45 L 108.54,35.47 L 105.85,33.98 L 105.35,32.99 L 109.22,35.06 L 122.48,32.68 L 123.74,36.53 L 125.50,35.19 L 129.56,36.92 Z M 103.98,33.58 L 102.81,33.21 L 103.80,33.36 L 103.98,33.58 Z" fill="#E8E0D0" stroke="#B8B0A0" stroke-width="0.5"/>
<path d="M 113.39,45.20 L 111.27,45.20 L 110.62,43.45 L 106.97,43.20 L 109.34,42.58 L 113.39,45.20 Z" fill="#E8E0D0" stroke="#B8B0A0" stroke-width="0.5"/>
<path d="M 121.98,294.66 L 138.40,294.66 L 136.38,299.18 L 125.92,300.30 L 116.97,294.66 L 121.98,294.66 Z" fill="#E8E0D0" stroke="#B8B0A0" stroke-width="0.5"/>
<path d="M 531.51,212.31 L 529.60,219.38 L 526.84,212.00 L 527.61,210.39 L 530.27,210.47 L 529.28,211.35 L 531.51,212.31 Z M 526.13,211.91 L 526.24,212.82 L 525.34,212.76 L 526.13,211.91 Z M 531.74,209.71 L 532.30,211.08 L 530.72,210.42 L 531.74,209.71 Z M 535.20,220.54 L 534.14,223.54 L 533.78,221.67 L 535.20,220.54 Z M 534.94,220.06 L 534.97,220.19 L 534.71,220.26 L 534.94,220.06 Z M 535.65,221.58 L 535.57,221.77 L 535.38,221.87 L 535.65,221.58 Z M 535.57,222.26 L 535.45,222.51 L 534.95,222.53 L 535.57,222.26 Z" fill="#E8E0D0" stroke="#B8B0A0" stroke-width="0.5"/>
<path d="M 393.50,1.08 L 398.59,3.54 L 397.30,6.20 L 399.49,8.60 L 403.17,8.80 L 405.11,16.91 L 410.32,16.91 L 415.28,20.54 L 422.67,19.63 L 429.00,20.69 L 421.33,23.26 L 420.39,26.83 L 424.09,30.32 L 424.83,34.42 L 419.18,34.90 L 417.68,38.48 L 413.33,40.47 L 412.40,42.17 L 414.16,45.54 L 409.39,44.74 L 409.45,46.67 L 407.40,47.66 L 410.74,50.29 L 410.43,53.71 L 406.53,57.00 L 409.03,57.69 L 414.94,64.75 L 418.53,63.80 L 419.53,65.39 L 417.74,66.51 L 420.63,66.58 L 424.93,71.15 L 425.21,72.98 L 421.96,74.22 L 424.10,75.09 L 423.54,77.22 L 432.62,78.46 L 447.13,86.74 L 451.27,86.54 L 454.73,88.31 L 456.64,93.21 L 464.78,100.01 L 461.09,107.91 L 460.95,116.10 L 469.00,116.22 L 469.04,126.64 L 475.97,129.63 L 479.47,135.81 L 481.99,136.90 L 471.54,134.95 L 467.98,135.76 L 467.57,134.09 L 467.17,133.71 L 467.48,135.96 L 460.98,133.89 L 449.65,135.16 L 441.50,146.86 L 433.88,153.78 L 390.19,151.68 L 328.08,114.41 L 288.89,97.73 L 258.56,93.81 L 262.02,91.31 L 260.68,89.16 L 255.77,89.64 L 254.57,86.73 L 256.44,86.30 L 249.73,68.94 L 295.21,49.90 L 301.73,48.50 L 307.41,40.74 L 307.34,31.81 L 311.19,23.63 L 308.18,15.60 L 309.13,9.76 L 311.71,6.55 L 322.59,4.54 L 328.25,0.00 L 393.82,0.00 L 393.50,1.08 Z" fill="#C8D8E8" stroke="#8BAABB" stroke-width="0.8"/>
<path d="M 181.40,82.01 L 185.45,85.89 L 203.02,89.95 L 249.73,68.94 L 256.44,86.30 L 254.57,86.73 L 255.77,89.64 L 260.68,89.16 L 262.02,91.31 L 254.22,96.27 L 206.65,106.26 L 230.91,125.94 L 222.98,129.27 L 218.77,135.95 L 201.17,138.75 L 195.20,145.87 L 184.27,151.91 L 158.94,148.70 L 163.59,133.39 L 163.46,127.30 L 170.55,113.94 L 169.53,110.89 L 173.42,100.81 L 172.55,95.01 L 174.66,82.63 L 181.40,82.01 Z" fill="#C8D8E8" stroke="#8BAABB" stroke-width="0.8"/>
<path d="M 472.91,144.93 L 467.89,144.25 L 461.70,148.47 L 471.09,148.74 L 472.47,155.34 L 478.05,160.77 L 477.06,162.81 L 478.99,164.80 L 460.84,164.94 L 455.28,155.79 L 433.88,153.78 L 441.50,146.86 L 448.41,135.77 L 460.98,133.89 L 467.48,135.96 L 472.91,144.93 Z M 477.95,147.25 L 478.14,147.99 L 475.10,147.15 L 477.95,147.25 Z M 474.15,143.78 L 472.55,143.19 L 469.81,139.80 L 473.40,137.32 L 471.58,136.21 L 473.19,136.17 L 477.08,141.60 L 474.15,143.78 Z M 469.45,136.41 L 468.97,136.23 L 471.31,135.28 L 469.45,136.41 Z" fill="#C8D8E8" stroke="#8BAABB" stroke-width="0.8"/>
<path d="M 666.78,229.75 L 663.82,230.77 L 663.55,229.98 L 664.79,228.47 L 666.78,229.75 Z M 665.32,229.97 L 665.45,229.65 L 664.89,229.46 L 665.32,229.97 Z M 663.55,209.98 L 663.64,211.08 L 668.20,210.94 L 665.92,210.81 L 667.24,207.54 L 670.49,208.09 L 668.06,209.87 L 670.17,210.54 L 668.86,210.81 L 669.99,212.31 L 666.41,211.77 L 666.58,212.99 L 669.83,213.25 L 667.63,214.44 L 669.36,216.25 L 667.71,216.67 L 665.23,222.59 L 662.05,221.73 L 662.96,214.91 L 660.44,213.99 L 663.55,209.98 Z M 673.11,245.04 L 685.94,255.81 L 713.61,262.41 L 719.94,261.89 L 724.16,263.97 L 742.05,283.42 L 749.39,284.47 L 749.08,289.86 L 737.98,305.58 L 731.10,308.91 L 722.22,317.81 L 723.36,319.03 L 720.12,321.47 L 718.38,325.98 L 716.66,327.13 L 710.89,326.22 L 712.35,322.59 L 710.96,322.08 L 702.66,329.08 L 698.70,339.64 L 701.70,354.25 L 687.27,355.87 L 677.78,359.14 L 673.82,362.83 L 671.93,370.97 L 667.06,375.12 L 645.43,377.08 L 640.28,383.08 L 642.01,385.50 L 641.04,389.12 L 635.50,393.55 L 629.93,394.73 L 625.18,393.01 L 613.15,393.55 L 602.00,398.57 L 589.54,400.86 L 582.68,388.46 L 580.78,387.85 L 563.15,354.17 L 634.35,334.34 L 650.00,294.98 L 639.30,280.61 L 640.23,272.32 L 647.64,259.45 L 645.71,255.61 L 658.55,253.27 L 657.02,250.50 L 652.80,250.31 L 654.55,236.61 L 658.74,235.91 L 659.30,237.80 L 657.60,237.65 L 660.96,240.39 L 667.70,235.48 L 673.11,245.04 Z M 655.35,383.47 L 656.01,383.76 L 655.66,383.93 L 655.35,383.47 Z M 660.87,383.47 L 657.96,383.88 L 657.75,383.45 L 660.87,383.47 Z M 728.63,324.15 L 721.56,330.86 L 721.46,326.93 L 727.59,320.40 L 728.63,324.15 Z" fill="#C8D8E8" stroke="#8BAABB" stroke-width="0.8"/>
<path d="M 536.59,239.10 L 534.01,225.23 L 536.29,225.77 L 534.82,223.05 L 536.53,222.13 L 537.52,224.48 L 539.39,222.22 L 537.25,221.53 L 539.55,215.57 L 545.88,212.03 L 549.14,215.86 L 553.63,217.57 L 553.93,220.92 L 551.91,221.41 L 552.96,222.52 L 551.12,224.70 L 552.24,229.15 L 554.34,229.98 L 554.42,234.60 L 548.01,243.58 L 546.52,241.73 L 539.42,243.62 L 535.36,240.07 L 536.59,239.10 Z" fill="#C8D8E8" stroke="#8BAABB" stroke-width="0.8"/>
<path d="M 667.38,224.61 L 667.70,235.48 L 660.96,240.39 L 657.77,237.94 L 659.30,237.80 L 658.09,235.60 L 653.83,237.30 L 652.80,250.31 L 657.02,250.50 L 658.55,253.27 L 645.71,255.61 L 647.64,259.45 L 640.23,272.32 L 637.72,282.20 L 576.91,275.94 L 553.65,252.86 L 554.02,247.25 L 554.98,250.38 L 558.42,249.68 L 559.13,254.87 L 561.97,255.58 L 571.75,254.73 L 577.91,250.73 L 579.83,252.09 L 591.32,251.50 L 601.39,253.95 L 608.26,253.60 L 621.27,249.09 L 622.66,246.02 L 624.76,246.02 L 621.04,244.27 L 624.94,244.80 L 626.40,240.03 L 636.82,234.71 L 641.57,229.87 L 642.67,231.05 L 642.08,229.43 L 647.95,223.56 L 649.73,224.40 L 657.65,218.70 L 657.11,219.63 L 657.47,219.72 L 660.44,213.99 L 662.96,214.91 L 662.05,221.73 L 667.38,224.61 Z M 663.55,229.98 L 663.82,230.77 L 666.78,229.75 L 664.79,228.47 L 663.55,229.98 Z M 664.89,229.46 L 665.45,229.65 L 665.32,229.97 L 664.89,229.46 Z M 607.53,249.43 L 610.30,251.46 L 605.78,252.30 L 602.99,251.74 L 607.53,249.43 Z M 613.80,249.49 L 613.87,248.56 L 615.60,249.38 L 615.66,250.38 L 613.80,249.49 Z M 579.11,248.44 L 577.71,249.86 L 576.86,248.79 L 579.11,248.44 Z M 591.78,249.19 L 596.10,248.55 L 597.29,246.69 L 597.85,248.11 L 595.06,249.67 L 591.78,249.19 Z M 619.08,245.58 L 620.54,244.51 L 622.30,246.45 L 619.08,245.58 Z M 616.40,249.24 L 615.51,248.20 L 616.65,247.79 L 616.40,249.24 Z M 619.11,247.93 L 618.46,248.66 L 617.75,247.65 L 619.11,247.93 Z M 571.71,244.93 L 571.12,245.45 L 570.38,245.02 L 571.71,244.93 Z" fill="#C8D8E8" stroke="#8BAABB" stroke-width="0.8"/>
<path d="M 580.78,387.85 L 582.68,388.46 L 589.54,400.86 L 576.30,404.74 L 570.61,408.38 L 567.35,413.93 L 569.08,421.23 L 548.65,428.89 L 529.34,432.49 L 520.45,436.56 L 514.81,436.65 L 501.29,440.40 L 494.65,442.98 L 492.54,446.85 L 485.23,452.43 L 473.19,453.90 L 469.11,452.16 L 454.43,460.14 L 437.87,464.59 L 413.31,466.35 L 407.07,471.74 L 400.31,473.89 L 398.89,477.85 L 397.01,477.45 L 397.86,475.94 L 394.46,477.03 L 394.69,478.49 L 388.26,476.71 L 383.63,479.68 L 372.49,481.11 L 364.29,477.97 L 361.14,479.40 L 361.26,476.18 L 355.40,467.50 L 356.70,458.81 L 349.07,443.10 L 350.54,444.52 L 347.27,435.76 L 348.74,437.19 L 348.54,434.47 L 346.80,430.74 L 340.78,428.62 L 342.50,428.56 L 343.20,426.18 L 345.16,429.30 L 342.72,419.52 L 346.11,415.29 L 345.03,406.25 L 350.89,402.97 L 352.05,400.27 L 354.30,400.42 L 355.05,397.80 L 352.70,395.55 L 352.84,392.06 L 355.93,388.77 L 353.95,387.30 L 357.23,384.66 L 361.98,383.58 L 371.75,387.78 L 377.30,385.74 L 401.43,385.27 L 407.72,387.58 L 428.90,389.32 L 438.10,388.31 L 444.27,394.63 L 448.81,394.81 L 455.13,391.95 L 458.96,384.58 L 472.56,370.97 L 493.30,362.43 L 563.15,354.17 L 580.78,387.85 Z M 594.20,490.45 L 594.76,490.76 L 593.64,490.69 L 594.20,490.45 Z M 589.44,490.31 L 587.04,489.74 L 587.49,489.46 L 589.44,490.31 Z M 572.88,490.02 L 565.18,488.30 L 566.47,488.18 L 572.88,490.02 Z M 360.69,480.02 L 360.38,480.43 L 359.29,479.75 L 360.69,480.02 Z M 623.95,482.06 L 614.47,486.00 L 604.75,487.01 L 594.68,482.19 L 599.71,478.80 L 607.48,481.10 L 613.96,479.06 L 623.95,482.06 Z M 345.16,457.86 L 342.64,459.96 L 342.76,459.26 L 345.16,457.86 Z M 345.33,452.83 L 344.85,454.88 L 342.72,453.03 L 345.33,452.83 Z M 340.10,425.68 L 339.79,428.12 L 339.56,425.65 L 341.39,424.61 L 340.10,425.68 Z" fill="#C8D8E8" stroke="#8BAABB" stroke-width="0.8"/>
<path d="M 539.42,243.62 L 546.30,242.49 L 547.10,244.62 L 549.30,242.36 L 551.75,243.31 L 546.54,248.78 L 553.44,249.80 L 554.01,253.33 L 576.91,275.94 L 637.37,282.25 L 639.30,280.61 L 650.00,294.98 L 634.35,334.34 L 563.15,354.17 L 493.30,362.43 L 472.56,370.97 L 458.96,384.58 L 455.13,391.95 L 448.81,394.81 L 444.27,394.63 L 438.10,388.31 L 428.90,389.32 L 407.72,387.58 L 401.43,385.27 L 377.30,385.74 L 371.75,387.78 L 359.83,383.45 L 353.95,387.30 L 356.02,388.37 L 352.84,392.06 L 352.70,395.55 L 355.05,397.80 L 354.30,400.42 L 352.05,400.27 L 350.89,402.97 L 345.03,406.25 L 343.20,399.11 L 334.76,390.15 L 334.91,393.28 L 333.45,384.77 L 321.25,377.23 L 314.27,369.49 L 312.90,364.60 L 307.55,360.08 L 308.47,357.38 L 305.80,355.35 L 306.75,352.75 L 304.19,351.60 L 301.25,344.05 L 296.87,342.01 L 296.50,338.67 L 294.41,339.02 L 291.51,335.00 L 280.81,328.71 L 276.52,328.13 L 277.41,329.10 L 273.13,327.29 L 259.22,312.25 L 257.00,308.16 L 259.15,306.39 L 257.67,299.57 L 253.45,294.44 L 255.22,294.53 L 258.47,286.57 L 256.75,287.31 L 255.40,279.35 L 250.33,274.75 L 250.30,271.76 L 242.09,259.17 L 229.81,252.13 L 230.11,250.78 L 228.16,251.91 L 217.81,247.60 L 218.45,246.13 L 211.14,238.00 L 213.70,237.60 L 213.36,231.57 L 206.10,222.22 L 200.55,219.57 L 200.40,214.76 L 196.05,213.00 L 184.64,197.21 L 164.02,175.34 L 165.28,174.44 L 161.37,173.15 L 155.51,174.11 L 153.24,172.74 L 151.77,173.55 L 152.27,174.11 L 150.96,174.92 L 150.00,173.28 L 155.48,165.06 L 158.94,148.70 L 185.53,151.71 L 195.20,145.87 L 201.17,138.75 L 218.77,135.95 L 222.98,129.27 L 230.91,125.94 L 206.65,106.26 L 254.22,96.27 L 258.83,93.75 L 287.61,97.38 L 328.08,114.41 L 390.19,151.68 L 455.27,155.78 L 460.84,164.94 L 480.45,165.60 L 479.84,167.84 L 481.42,167.43 L 484.19,174.61 L 487.51,175.38 L 486.36,176.29 L 489.66,178.96 L 489.47,180.09 L 488.63,180.91 L 488.00,178.92 L 487.20,181.09 L 489.60,181.72 L 488.46,183.21 L 498.14,184.55 L 499.87,186.46 L 495.29,186.61 L 498.71,187.15 L 497.75,188.79 L 499.87,188.52 L 500.11,191.28 L 502.24,191.31 L 501.35,192.40 L 506.03,191.51 L 509.05,196.19 L 519.95,202.01 L 515.91,200.83 L 516.91,205.39 L 521.33,208.78 L 519.54,214.49 L 516.95,211.21 L 515.95,215.17 L 518.59,215.41 L 522.30,222.51 L 519.62,220.49 L 519.71,221.16 L 527.38,226.37 L 529.53,233.96 L 539.42,243.62 Z M 330.53,402.03 L 328.33,399.85 L 325.24,400.31 L 320.53,395.83 L 324.04,398.78 L 327.13,399.41 L 327.77,397.46 L 330.72,399.61 L 330.53,402.03 Z M 322.38,395.92 L 324.60,394.66 L 322.64,393.82 L 322.99,393.50 L 324.83,394.31 L 326.34,398.51 L 322.38,395.92 Z M 506.34,188.53 L 508.80,189.06 L 503.28,189.60 L 506.34,188.53 Z M 206.34,226.28 L 206.47,225.77 L 207.60,225.73 L 208.25,226.72 L 206.34,226.28 Z M 205.23,227.88 L 202.31,225.19 L 205.34,227.22 L 205.23,227.88 Z M 203.51,224.19 L 203.85,223.73 L 204.45,223.98 L 203.51,224.19 Z M 200.95,224.02 L 200.05,224.06 L 201.10,223.83 L 204.75,226.25 L 200.95,224.02 Z M 205.20,223.23 L 205.58,223.01 L 205.79,224.74 L 205.20,223.23 Z M 199.72,224.14 L 196.68,223.35 L 195.54,222.24 L 196.78,221.10 L 196.48,222.25 L 199.72,224.14 Z M 196.75,219.13 L 197.13,218.45 L 197.90,217.97 L 198.38,220.97 L 196.75,219.13 Z" fill="#4A90D9" stroke="#1a5fa8" stroke-width="1.2"/>
<path d="M 214.08,496.61 L 210.48,495.79 L 209.67,496.87 L 207.41,495.25 L 207.98,489.58 L 210.88,487.39 L 213.57,488.85 L 219.45,486.94 L 221.88,490.75 L 221.23,493.35 L 216.97,500.00 L 215.84,500.00 L 214.59,499.64 L 214.08,496.61 Z" fill="#A8C8E8" stroke="none"/>
<path d="M 175.19,81.23 L 173.84,81.87 L 172.57,79.25 L 175.33,79.29 L 175.19,81.23 Z" fill="#A8C8E8" stroke="none"/>
<path d="M 181.39,441.00 L 181.54,434.73 L 182.69,437.40 L 181.39,441.00 Z" fill="#A8C8E8" stroke="none"/>
<path d="M 356.85,69.94 L 358.83,67.50 L 364.20,70.50 L 361.58,72.57 L 356.85,69.94 Z" fill="#A8C8E8" stroke="none"/>
<path d="M 351.89,57.53 L 352.08,49.55 L 361.98,57.98 L 361.11,62.34 L 357.15,61.98 L 351.89,57.53 Z" fill="#A8C8E8" stroke="none"/>
<path d="M 92.46,279.99 L 88.58,281.98 L 88.33,284.77 L 75.64,292.05 L 73.05,298.09 L 70.66,299.16 L 69.51,301.39 L 67.35,302.32 L 73.19,295.34 L 73.70,291.72 L 81.66,286.55 L 81.17,285.45 L 84.45,285.19 L 81.08,282.81 L 81.01,281.64 L 85.25,283.42 L 86.05,281.63 L 92.88,278.53 L 97.27,282.11 L 101.89,279.37 L 102.00,276.07 L 103.83,275.71 L 105.57,270.91 L 110.52,268.65 L 108.51,267.09 L 109.81,264.80 L 102.16,264.64 L 106.48,263.58 L 103.47,262.92 L 105.58,261.25 L 108.41,263.48 L 109.81,258.68 L 107.52,256.90 L 109.81,255.13 L 112.73,260.57 L 110.21,263.01 L 113.55,264.52 L 110.18,264.36 L 113.06,269.95 L 110.78,269.55 L 111.97,271.86 L 108.98,272.00 L 114.19,276.35 L 110.96,276.21 L 107.36,273.35 L 105.90,276.07 L 103.25,276.58 L 102.82,279.47 L 96.80,282.60 L 97.10,284.08 L 95.00,284.23 L 96.48,282.33 L 92.46,279.99 Z" fill="#A8C8E8" stroke="none"/>
<path d="M 144.86,497.76 L 147.42,496.96 L 147.38,500.00 L 144.43,500.00 L 144.86,497.76 Z" fill="#A8C8E8" stroke="none"/>
<path d="M 238.71,21.05 L 238.90,19.59 L 233.11,16.92 L 231.94,13.90 L 236.02,10.12 L 236.71,11.79 L 234.32,12.92 L 234.16,15.37 L 244.59,18.99 L 238.71,21.05 Z" fill="#A8C8E8" stroke="none"/>
<path d="M 371.35,82.19 L 371.20,83.89 L 368.28,86.13 L 360.60,82.68 L 359.65,78.78 L 361.25,78.78 L 362.73,74.04 L 371.35,82.19 Z" fill="#A8C8E8" stroke="none"/>
<path d="M 173.72,106.71 L 172.31,109.95 L 172.26,108.71 L 169.99,109.52 L 169.46,105.80 L 173.41,100.81 L 173.72,106.71 Z" fill="#A8C8E8" stroke="none"/>
<path d="M 171.04,114.27 L 168.65,111.82 L 170.14,111.01 L 172.27,112.04 L 171.04,114.27 Z" fill="#A8C8E8" stroke="none"/>
<path d="M 439.01,120.80 L 439.51,121.08 L 439.33,121.47 L 439.01,120.80 Z M 455.13,122.98 L 447.24,120.67 L 444.62,121.56 L 442.80,120.02 L 440.91,121.65 L 441.46,120.27 L 437.72,119.58 L 437.39,118.21 L 440.97,117.34 L 452.38,121.08 L 456.93,119.72 L 453.98,120.80 L 459.30,121.71 L 455.13,122.98 Z" fill="#A8C8E8" stroke="none"/>
<path d="M 336.95,499.43 L 336.44,500.00 L 335.86,500.00 L 335.42,499.08 L 336.95,499.43 Z" fill="#A8C8E8" stroke="none"/>
<path d="M 96.80,129.69 L 96.19,127.91 L 98.10,127.46 L 102.23,132.28 L 96.80,129.69 Z" fill="#A8C8E8" stroke="none"/>
</svg>