<svg xmlns="http://www.w3.org/2000/svg" width="800" height="500" viewBox="0 0 800 500">
<rect width="800" height="500" fill="#A8C8E8"/>
<path d="M 193.70,37.17 L 193.29,35.53 L 197.10,34.27 L 197.55,35.19 L 195.46,35.87 L 197.14,37.47 L 193.70,37.17 Z M 194.62,36.55 L 194.62,36.35 L 194.42,36.36 L 194.62,36.55 Z" fill="#E8E0D0" stroke="#B8B0A0" stroke-width="0.5"/>
<path d="M 195.12,37.05 L 194.74,36.86 L 195.38,37.08 L 195.12,37.05 Z M 194.42,36.36 L 194.62,36.35 L 194.62,36.55 L 194.42,36.36 Z M 191.97,40.17 L 180.33,44.08 L 180.78,43.12 L 178.47,42.58 L 175.72,43.67 L 171.22,42.15 L 167.84,35.19 L 170.41,35.78 L 174.86,32.92 L 177.86,35.47 L 188.53,33.45 L 189.31,37.08 L 190.41,35.76 L 193.73,36.87 L 191.97,40.17 Z M 199.50,35.50 L 200.89,37.33 L 196.17,37.36 L 195.56,35.65 L 199.50,35.50 Z" fill="#E8E0D0" stroke="#B8B0A0" stroke-width="0.5"/>
<path d="M 209.16,105.29 L 207.81,104.43 L 211.98,97.12 L 216.24,80.00 L 218.33,79.13 L 218.99,74.58 L 225.88,74.58 L 227.13,70.74 L 228.12,71.55 L 232.05,68.25 L 231.10,70.91 L 233.26,77.41 L 230.90,81.39 L 227.33,83.44 L 227.34,88.52 L 220.64,85.41 L 218.00,87.54 L 216.49,92.16 L 217.90,97.97 L 216.78,99.46 L 220.56,99.95 L 221.21,98.55 L 221.95,101.15 L 216.71,103.49 L 215.00,108.80 L 220.17,108.81 L 225.49,106.24 L 224.35,110.89 L 225.12,113.94 L 219.72,127.30 L 219.82,133.39 L 215.58,145.96 L 203.59,111.80 L 209.16,105.29 Z" fill="#E8E0D0" stroke="#B8B0A0" stroke-width="0.5"/>
<path d="M 209.16,105.29 L 203.59,111.80 L 202.72,109.76 L 207.81,104.43 L 209.16,105.29 Z M 216.44,92.46 L 218.36,86.97 L 220.97,85.39 L 227.34,88.52 L 227.31,100.81 L 225.49,106.25 L 220.17,108.81 L 215.00,108.80 L 216.71,103.49 L 221.95,101.15 L 221.21,98.55 L 220.56,99.95 L 216.78,99.46 L 217.90,97.97 L 216.44,92.46 Z" fill="#E8E0D0" stroke="#B8B0A0" stroke-width="0.5"/>
<path d="M 225.70,58.42 L 228.79,56.49 L 229.23,50.30 L 234.98,45.79 L 234.74,43.58 L 240.01,44.03 L 240.87,42.83 L 243.25,43.99 L 241.07,46.28 L 244.78,48.08 L 246.21,52.53 L 240.50,57.54 L 241.97,59.71 L 236.19,60.12 L 233.86,63.61 L 235.92,65.05 L 228.12,71.55 L 227.13,70.74 L 225.88,74.58 L 219.10,74.55 L 225.70,58.42 Z" fill="#E8E0D0" stroke="#B8B0A0" stroke-width="0.5"/>
<path d="M 218.51,496.57 L 222.93,492.50 L 229.63,479.89 L 237.36,479.05 L 237.76,472.49 L 242.36,461.24 L 244.80,448.06 L 248.82,446.70 L 254.46,447.80 L 255.56,444.94 L 258.69,444.22 L 263.39,451.20 L 269.50,435.84 L 271.58,438.92 L 275.61,439.81 L 279.18,445.01 L 287.13,443.50 L 289.73,440.37 L 291.86,441.34 L 293.32,444.56 L 298.87,442.03 L 305.70,444.83 L 309.54,444.05 L 322.72,451.19 L 329.21,460.91 L 338.61,468.21 L 342.86,475.59 L 347.17,478.43 L 350.69,483.73 L 340.07,498.84 L 340.02,500.00 L 218.51,500.00 L 218.51,496.57 Z" fill="#E8E0D0" stroke="#B8B0A0" stroke-width="0.5"/>
<path d="M 169.22,498.86 L 164.41,492.98 L 176.43,492.92 L 176.16,488.68 L 184.79,488.80 L 182.69,500.00 L 169.22,500.00 L 169.22,498.86 Z" fill="#E8E0D0" stroke="#B8B0A0" stroke-width="0.5"/>
<path d="M 500.15,493.88 L 502.98,493.19 L 511.94,496.28 L 510.48,500.00 L 494.45,500.00 L 500.15,493.88 Z" fill="#E8E0D0" stroke="#B8B0A0" stroke-width="0.5"/>
<path d="M 233.26,77.41 L 231.01,69.68 L 235.92,65.05 L 233.86,63.61 L 234.35,62.25 L 237.78,59.44 L 241.75,59.97 L 240.50,57.54 L 246.21,52.53 L 244.78,48.08 L 241.07,46.28 L 243.25,43.99 L 240.87,42.83 L 240.01,44.03 L 234.74,43.58 L 232.87,38.14 L 234.60,32.71 L 233.82,28.35 L 230.28,25.09 L 232.39,21.81 L 231.64,19.78 L 234.92,18.25 L 238.13,20.31 L 238.84,17.75 L 241.76,16.91 L 242.03,12.28 L 247.30,12.25 L 244.89,7.29 L 246.86,0.36 L 252.73,1.84 L 254.33,4.49 L 261.44,4.21 L 272.34,-0.00 L 280.40,-0.00 L 284.58,3.03 L 293.89,3.67 L 303.40,2.07 L 308.37,-0.00 L 345.96,-0.00 L 341.00,4.54 L 332.71,6.55 L 330.75,9.76 L 330.02,15.60 L 332.31,23.63 L 329.38,31.81 L 329.43,40.74 L 325.11,48.50 L 320.14,49.90 L 285.47,68.94 L 250.11,89.87 L 242.30,88.63 L 230.90,81.39 L 233.26,77.41 Z" fill="#E8E0D0" stroke="#B8B0A0" stroke-width="0.5"/>
<path d="M 303.40,2.07 L 293.89,3.67 L 284.58,3.03 L 280.40,-0.00 L 308.37,-0.00 L 303.40,2.07 Z M 261.44,4.21 L 254.33,4.49 L 252.73,1.84 L 246.86,0.36 L 244.89,7.29 L 247.40,12.09 L 242.03,12.28 L 241.76,16.91 L 238.84,17.75 L 237.79,20.37 L 233.68,18.43 L 234.84,16.43 L 231.44,10.76 L 239.10,4.05 L 238.70,0.89 L 237.61,-0.00 L 272.34,-0.00 L 261.44,4.21 Z M 228.17,2.10 L 227.67,3.20 L 230.02,2.51 L 228.47,4.84 L 223.45,6.06 L 211.64,0.65 L 204.10,5.15 L 198.36,12.56 L 196.77,10.55 L 193.46,14.08 L 192.72,12.97 L 191.00,14.26 L 183.85,14.08 L 177.46,16.26 L 169.53,13.26 L 163.26,5.95 L 150.99,0.75 L 145.57,-0.00 L 232.44,-0.00 L 228.17,2.10 Z M 137.05,1.29 L 137.05,6.32 L 134.47,12.30 L 129.61,10.87 L 120.81,14.35 L 110.39,9.04 L 110.73,5.83 L 108.91,5.92 L 110.39,3.60 L 107.54,1.89 L 105.55,4.84 L 99.63,-0.00 L 138.30,-0.00 L 137.05,1.29 Z M 97.72,1.13 L 95.21,0.01 L 95.90,2.51 L 95.14,3.01 L 95.14,-0.00 L 98.33,-0.00 L 97.72,1.13 Z" fill="#E8E0D0" stroke="#B8B0A0" stroke-width="0.5"/>
<path d="M 149.32,294.68 L 152.49,290.06 L 153.73,291.13 L 152.71,294.66 L 184.29,294.66 L 191.16,300.34 L 199.08,299.18 L 200.62,294.66 L 251.27,294.65 L 251.34,301.51 L 259.03,313.26 L 257.93,314.29 L 257.53,311.87 L 255.27,310.29 L 257.50,323.04 L 256.54,327.32 L 257.78,342.66 L 261.23,356.83 L 263.14,359.72 L 265.58,359.23 L 267.09,361.46 L 270.12,362.32 L 273.67,365.73 L 272.84,367.02 L 274.21,368.98 L 277.00,367.85 L 275.39,369.61 L 278.54,369.48 L 282.39,373.65 L 275.68,383.34 L 273.62,382.94 L 272.85,384.25 L 272.17,382.89 L 262.35,387.58 L 260.67,393.18 L 252.89,392.53 L 253.37,396.90 L 251.14,403.42 L 252.55,408.09 L 247.42,419.10 L 246.64,424.61 L 242.97,430.80 L 244.80,448.06 L 242.36,461.24 L 237.76,472.49 L 237.52,478.66 L 229.63,479.89 L 222.93,492.50 L 218.51,496.57 L 218.51,500.00 L 182.69,500.00 L 184.79,488.80 L 176.16,488.68 L 176.43,492.92 L 164.41,492.98 L 169.22,498.86 L 169.22,500.00 L 95.14,500.00 L 95.14,294.67 L 149.32,294.68 Z M 258.50,317.72 L 257.97,319.37 L 257.78,318.29 L 258.50,317.72 Z" fill="#E8E0D0" stroke="#B8B0A0" stroke-width="0.5"/>
<path d="M 340.07,498.84 L 351.62,482.65 L 356.10,485.83 L 358.16,484.46 L 359.54,480.55 L 364.05,478.93 L 367.87,483.28 L 369.41,488.51 L 368.74,492.88 L 365.65,493.81 L 362.92,496.87 L 357.89,498.29 L 356.84,500.00 L 340.02,500.00 L 340.07,498.84 Z" fill="#E8E0D0" stroke="#B8B0A0" stroke-width="0.5"/>
<path d="M 359.54,480.55 L 358.16,484.46 L 356.10,485.83 L 352.43,482.73 L 350.69,483.73 L 347.17,478.43 L 342.86,475.59 L 338.61,468.21 L 329.21,460.91 L 322.72,451.19 L 309.54,444.05 L 305.70,444.83 L 298.87,442.03 L 293.32,444.56 L 291.86,441.34 L 289.73,440.37 L 287.13,443.50 L 279.18,445.01 L 275.61,439.81 L 271.58,438.92 L 269.50,435.84 L 263.39,451.20 L 258.69,444.22 L 255.56,444.94 L 254.46,447.80 L 248.82,446.70 L 244.80,448.06 L 242.97,430.80 L 246.64,424.61 L 247.42,419.10 L 252.55,408.09 L 251.14,403.42 L 253.37,396.90 L 252.89,392.53 L 260.67,393.18 L 262.35,387.58 L 272.17,382.89 L 272.85,384.25 L 273.62,382.94 L 275.68,383.34 L 282.35,373.83 L 289.78,390.49 L 294.87,415.02 L 297.46,417.34 L 297.83,423.04 L 300.61,423.53 L 302.50,431.58 L 304.23,431.88 L 305.02,430.01 L 303.55,425.70 L 305.39,423.45 L 309.09,426.69 L 308.13,428.74 L 310.53,433.80 L 312.83,435.17 L 316.92,433.10 L 320.21,435.51 L 321.51,439.50 L 328.77,440.65 L 337.97,454.48 L 343.28,456.35 L 345.75,460.36 L 347.88,462.14 L 347.17,459.89 L 349.04,461.73 L 350.69,468.72 L 353.49,468.52 L 357.03,472.47 L 357.96,476.07 L 360.61,477.30 L 361.93,475.11 L 364.05,478.93 L 359.54,480.55 Z M 314.77,422.10 L 307.26,421.42 L 306.51,419.52 L 309.12,420.33 L 306.39,418.78 L 308.32,416.82 L 306.76,415.71 L 310.11,417.45 L 310.61,420.67 L 312.47,419.49 L 314.77,422.10 Z M 309.72,413.89 L 307.46,413.26 L 308.56,411.48 L 309.72,413.89 Z" fill="#E8E0D0" stroke="#B8B0A0" stroke-width="0.5"/>
<path d="M 506.73,1.56 L 523.09,5.23 L 550.14,-0.00 L 557.84,-0.00 L 561.17,0.50 L 561.18,-0.00 L 672.50,-0.00 L 675.65,4.15 L 690.55,4.17 L 690.20,9.71 L 691.61,14.34 L 689.90,17.38 L 691.91,18.90 L 692.79,25.76 L 690.93,30.68 L 689.51,31.12 L 690.21,34.61 L 688.73,40.31 L 686.60,43.82 L 682.11,46.23 L 685.57,50.15 L 681.10,50.39 L 678.37,53.72 L 678.72,63.65 L 686.12,66.12 L 679.72,73.32 L 679.64,75.16 L 684.48,91.22 L 683.48,95.62 L 684.32,106.18 L 699.97,108.59 L 702.50,115.70 L 702.06,119.03 L 684.73,138.65 L 693.65,148.25 L 697.80,158.24 L 703.70,164.76 L 704.86,165.09 L 704.86,209.47 L 702.62,210.73 L 701.20,218.77 L 699.49,219.78 L 698.76,229.38 L 695.00,233.86 L 680.92,229.59 L 679.40,226.18 L 676.61,227.55 L 677.91,229.28 L 674.69,227.56 L 667.72,228.50 L 659.58,225.88 L 652.16,227.11 L 648.20,223.92 L 640.85,222.90 L 634.60,223.86 L 632.61,221.29 L 629.15,222.43 L 628.85,220.31 L 620.82,219.49 L 618.20,213.56 L 619.04,211.90 L 616.64,206.96 L 615.64,198.32 L 613.84,196.25 L 614.70,195.30 L 612.75,195.13 L 611.73,192.59 L 599.33,192.17 L 596.00,194.83 L 591.05,195.45 L 588.44,199.64 L 583.90,199.48 L 575.22,205.36 L 567.96,203.20 L 566.49,201.02 L 555.78,201.14 L 551.71,198.25 L 550.86,195.84 L 543.34,193.30 L 535.61,188.36 L 536.85,186.46 L 533.05,182.81 L 524.94,178.84 L 519.01,178.88 L 513.88,176.88 L 508.10,164.93 L 507.71,160.92 L 503.11,157.00 L 503.44,155.75 L 504.82,156.68 L 505.37,154.60 L 503.75,152.89 L 500.20,152.83 L 500.41,146.77 L 491.17,137.07 L 489.88,131.96 L 487.00,131.79 L 480.09,135.38 L 479.14,132.74 L 474.89,132.73 L 474.46,130.59 L 473.38,131.40 L 469.03,128.28 L 474.13,128.96 L 475.23,126.92 L 474.28,125.79 L 470.12,125.61 L 471.13,127.26 L 469.28,127.53 L 467.97,128.98 L 468.93,135.00 L 460.77,136.05 L 459.55,131.45 L 452.62,126.64 L 452.59,116.22 L 446.45,116.10 L 446.56,107.91 L 449.37,100.01 L 443.17,93.21 L 441.71,88.31 L 439.08,86.54 L 435.92,86.74 L 424.86,78.46 L 417.94,77.22 L 418.37,75.09 L 416.74,74.22 L 419.21,72.98 L 419.00,71.15 L 415.73,66.58 L 413.52,66.51 L 414.88,65.39 L 414.13,63.80 L 411.39,64.75 L 406.89,57.69 L 404.98,57.00 L 407.95,53.71 L 408.18,50.29 L 405.64,47.66 L 407.21,46.67 L 407.15,44.74 L 410.79,45.54 L 409.45,42.17 L 410.16,40.47 L 413.48,38.48 L 414.62,34.90 L 418.92,34.42 L 418.36,30.32 L 415.54,26.83 L 416.26,23.26 L 422.11,20.69 L 417.28,19.63 L 411.65,20.54 L 407.87,16.91 L 403.89,16.91 L 402.42,8.80 L 399.40,8.39 L 397.94,6.20 L 398.74,3.11 L 394.90,0.74 L 395.11,-0.00 L 504.20,-0.00 L 506.73,1.56 Z M 570.82,209.44 L 570.34,210.22 L 569.74,209.29 L 570.82,209.44 Z M 560.11,205.43 L 559.16,204.56 L 561.25,204.18 L 561.58,205.51 L 560.11,205.43 Z M 546.85,199.34 L 545.53,198.38 L 549.73,199.27 L 546.85,199.34 Z M 603.27,197.76 L 604.41,197.48 L 603.95,198.56 L 603.27,197.76 Z M 602.29,196.25 L 596.14,201.39 L 594.86,200.46 L 584.26,204.32 L 584.15,202.10 L 593.01,199.39 L 592.72,196.27 L 595.24,197.21 L 600.94,195.30 L 602.29,196.25 Z M 606.23,194.14 L 604.96,194.27 L 605.00,193.77 L 606.23,194.14 Z M 494.60,150.55 L 494.46,151.53 L 493.68,150.34 L 494.60,150.55 Z M 570.92,217.19 L 570.21,217.13 L 570.14,216.91 L 570.92,217.19 Z M 595.10,202.83 L 594.44,202.88 L 594.71,201.98 L 595.10,202.83 Z M 554.51,202.16 L 553.70,201.72 L 553.84,201.50 L 554.51,202.16 Z M 579.99,217.89 L 579.34,217.99 L 579.22,217.55 L 579.99,217.89 Z" fill="#E8E0D0" stroke="#B8B0A0" stroke-width="0.5"/>
<path d="M 700.75,234.61 L 701.71,231.31 L 698.19,231.03 L 699.49,219.78 L 701.20,218.77 L 702.62,210.73 L 704.86,209.47 L 704.86,233.56 L 700.75,234.61 Z M 703.70,164.76 L 697.80,158.24 L 693.65,148.25 L 684.73,138.65 L 704.86,144.74 L 704.86,165.09 L 703.70,164.76 Z" fill="#E8E0D0" stroke="#B8B0A0" stroke-width="0.5"/>
<path d="M 684.73,138.65 L 702.06,119.03 L 702.50,115.70 L 699.97,108.59 L 684.32,106.18 L 683.48,95.62 L 684.48,91.22 L 679.64,75.16 L 679.72,73.32 L 686.12,66.12 L 678.72,63.65 L 678.37,53.72 L 681.10,50.39 L 685.57,50.15 L 682.11,46.23 L 686.60,43.82 L 688.73,40.31 L 690.21,34.61 L 689.40,31.54 L 690.93,30.68 L 692.43,24.36 L 698.49,28.09 L 704.86,27.95 L 704.86,144.74 L 684.73,138.65 Z" fill="#E8E0D0" stroke="#B8B0A0" stroke-width="0.5"/>
<path d="M 691.91,18.90 L 689.90,17.38 L 691.61,14.34 L 690.20,9.71 L 690.55,4.17 L 675.65,4.15 L 672.50,-0.00 L 704.86,-0.00 L 704.86,27.95 L 698.49,28.09 L 692.43,24.36 L 691.91,18.90 Z" fill="#E8E0D0" stroke="#B8B0A0" stroke-width="0.5"/>
<path d="M 199.17,201.15 L 198.29,199.53 L 198.66,199.53 L 199.17,201.15 Z M 215.14,145.96 L 212.43,149.50 L 210.40,160.92 L 206.52,169.17 L 206.97,176.01 L 202.97,179.66 L 203.76,180.91 L 194.82,175.04 L 185.15,164.22 L 184.23,155.89 L 175.85,146.63 L 173.37,135.61 L 169.03,143.92 L 173.43,148.36 L 174.24,156.22 L 177.52,160.08 L 178.64,164.03 L 191.04,177.57 L 191.72,179.66 L 189.58,179.03 L 191.72,182.53 L 189.99,182.53 L 196.18,190.55 L 196.15,192.97 L 199.03,197.41 L 198.16,198.71 L 198.04,202.24 L 208.99,220.66 L 219.81,244.96 L 226.12,252.72 L 230.55,255.21 L 231.53,256.82 L 226.49,255.34 L 225.94,256.52 L 226.05,264.86 L 227.10,266.91 L 229.77,276.07 L 233.22,279.97 L 239.37,281.96 L 243.24,287.49 L 251.48,293.25 L 251.27,294.65 L 152.71,294.66 L 153.73,291.13 L 152.49,290.06 L 149.32,294.68 L 95.14,294.67 L 95.14,114.24 L 98.23,114.34 L 109.16,119.43 L 117.75,116.86 L 128.00,109.38 L 129.73,111.70 L 131.96,111.28 L 129.98,110.48 L 132.40,109.04 L 132.96,106.12 L 133.33,106.87 L 133.95,107.20 L 133.29,105.90 L 136.43,106.80 L 144.36,104.36 L 136.56,108.01 L 140.02,108.30 L 146.98,106.21 L 144.43,104.41 L 146.59,103.94 L 154.90,107.20 L 160.65,105.37 L 161.34,105.39 L 161.92,105.66 L 166.53,110.14 L 160.92,105.44 L 160.36,108.97 L 158.70,110.35 L 161.59,112.29 L 163.59,111.70 L 163.21,113.46 L 164.85,114.94 L 168.05,113.29 L 168.04,110.73 L 166.67,110.14 L 168.91,110.61 L 173.80,114.79 L 179.69,112.91 L 174.98,114.96 L 176.15,115.23 L 179.69,113.78 L 181.19,114.88 L 182.17,113.32 L 181.56,114.00 L 180.19,113.88 L 182.99,112.10 L 183.42,115.09 L 188.36,112.91 L 190.05,113.46 L 192.73,113.67 L 202.72,109.76 L 215.14,145.96 Z M 221.03,278.97 L 228.43,271.96 L 224.96,275.15 L 221.03,278.97 Z M 214.08,282.52 L 214.69,281.07 L 213.17,284.65 L 214.08,282.52 Z M 211.44,288.65 L 206.75,289.62 L 201.77,290.76 L 211.44,288.65 Z M 197.90,185.55 L 197.54,184.97 L 199.62,185.40 L 200.03,186.34 L 197.90,185.55 Z M 211.43,176.34 L 212.34,176.37 L 211.85,177.34 L 211.43,176.34 Z M 208.47,176.90 L 207.96,175.60 L 208.78,175.36 L 210.33,177.10 L 208.47,176.90 Z M 180.77,114.34 L 180.82,114.54 L 180.46,114.28 L 180.77,114.34 Z M 185.89,111.70 L 186.41,111.78 L 189.62,113.19 L 185.89,111.70 Z M 182.87,111.50 L 179.83,113.06 L 182.91,111.23 L 185.42,111.65 L 182.87,111.50 Z" fill="#E8E0D0" stroke="#B8B0A0" stroke-width="0.5"/>
<path d="M 196.86,34.27 L 194.87,36.01 L 190.79,35.19 L 189.64,36.58 L 188.49,32.68 L 178.39,35.06 L 175.77,33.16 L 179.07,33.16 L 179.57,28.74 L 192.96,29.51 L 209.82,22.91 L 198.23,30.45 L 197.29,33.37 L 199.32,35.37 L 196.86,34.27 Z M 174.25,33.36 L 173.82,33.18 L 174.12,32.97 L 174.25,33.36 Z" fill="#E8E0D0" stroke="#B8B0A0" stroke-width="0.5"/>
<path d="M 199.32,35.37 L 199.50,35.50 L 197.85,35.62 L 199.32,35.37 Z M 193.88,36.92 L 190.41,35.76 L 189.31,37.08 L 188.53,33.45 L 177.86,35.47 L 175.81,33.98 L 175.43,32.99 L 178.39,35.06 L 188.49,32.68 L 189.45,36.53 L 190.79,35.19 L 193.88,36.92 Z M 174.39,33.58 L 173.50,33.21 L 174.25,33.36 L 174.39,33.58 Z" fill="#E8E0D0" stroke="#B8B0A0" stroke-width="0.5"/>
<path d="M 181.56,45.20 L 179.94,45.20 L 179.45,43.45 L 176.67,43.20 L 178.47,42.58 L 181.56,45.20 Z" fill="#E8E0D0" stroke="#B8B0A0" stroke-width="0.5"/>
<path d="M 188.11,294.66 L 200.62,294.66 L 199.08,299.18 L 191.11,300.30 L 184.29,294.66 L 188.11,294.66 Z" fill="#E8E0D0" stroke="#B8B0A0" stroke-width="0.5"/>
<path d="M 500.23,212.31 L 498.78,219.38 L 496.67,212.00 L 497.26,210.39 L 499.28,210.47 L 498.53,211.35 L 500.23,212.31 Z M 496.13,211.91 L 496.21,212.82 L 495.53,212.76 L 496.13,211.91 Z M 500.41,209.71 L 500.83,211.08 L 499.63,210.42 L 500.41,209.71 Z M 503.04,220.54 L 502.24,223.54 L 501.96,221.67 L 503.04,220.54 Z M 502.84,220.06 L 502.87,220.19 L 502.67,220.26 L 502.84,220.06 Z M 503.38,221.58 L 503.33,221.77 L 503.18,221.87 L 503.38,221.58 Z M 503.33,222.26 L 503.23,222.51 L 502.86,222.53 L 503.33,222.26 Z" fill="#E8E0D0" stroke="#B8B0A0" stroke-width="0.5"/>
<path d="M 395.04,1.08 L 398.93,3.54 L 397.94,6.20 L 399.61,8.60 L 402.42,8.80 L 403.89,16.91 L 407.87,16.91 L 411.65,20.54 L 417.28,19.63 L 422.11,20.69 L 416.26,23.26 L 415.54,26.83 L 418.36,30.32 L 418.92,34.42 L 414.62,34.90 L 413.48,38.48 L 410.16,40.47 L 409.45,42.17 L 410.79,45.54 L 407.15,44.74 L 407.21,46.67 L 405.64,47.66 L 408.18,50.29 L 407.95,53.71 L 404.98,57.00 L 406.89,57.69 L 411.39,64.75 L 414.13,63.80 L 414.88,65.39 L 413.52,66.51 L 415.73,66.58 L 419.00,71.15 L 419.21,72.98 L 416.74,74.22 L 418.37,75.09 L 417.94,77.22 L 424.86,78.46 L 435.92,86.74 L 439.08,86.54 L 441.71,88.31 L 443.17,93.21 L 449.37,100.01 L 446.56,107.91 L 446.45,116.10 L 452.59,116.22 L 452.62,126.64 L 457.90,129.63 L 460.57,135.81 L 462.49,136.90 L 454.52,134.95 L 451.81,135.76 L 451.50,134.09 L 451.19,133.71 L 451.43,135.96 L 446.47,133.89 L 437.84,135.16 L 431.63,146.86 L 425.82,153.78 L 392.52,151.68 L 345.19,114.41 L 315.32,97.73 L 292.20,93.81 L 294.84,91.31 L 293.82,89.16 L 290.07,89.64 L 289.16,86.73 L 290.59,86.30 L 285.47,68.94 L 320.14,49.90 L 325.11,48.50 L 329.43,40.74 L 329.38,31.81 L 332.31,23.63 L 330.02,15.60 L 330.75,9.76 L 332.71,6.55 L 341.00,4.54 L 345.31,-0.00 L 395.29,-0.00 L 395.04,1.08 Z" fill="#C8D8E8" stroke="#8BAABB" stroke-width="0.8"/>
<path d="M 233.40,82.01 L 236.48,85.89 L 249.87,89.95 L 285.47,68.94 L 290.59,86.30 L 289.16,86.73 L 290.07,89.64 L 293.82,89.16 L 294.84,91.31 L 288.89,96.27 L 252.64,106.26 L 271.13,125.94 L 265.09,129.27 L 261.88,135.95 L 248.47,138.75 L 243.91,145.87 L 235.58,151.91 L 216.28,148.70 L 219.82,133.39 L 219.72,127.30 L 225.12,113.94 L 224.35,110.89 L 227.31,100.81 L 226.65,95.01 L 228.26,82.63 L 233.40,82.01 Z" fill="#C8D8E8" stroke="#8BAABB" stroke-width="0.8"/>
<path d="M 455.57,144.93 L 451.75,144.25 L 447.03,148.47 L 454.18,148.74 L 455.24,155.34 L 459.49,160.77 L 458.73,162.81 L 460.20,164.80 L 446.37,164.94 L 442.13,155.79 L 425.82,153.78 L 431.63,146.86 L 436.90,135.77 L 446.47,133.89 L 451.43,135.96 L 455.57,144.93 Z M 459.41,147.25 L 459.56,147.99 L 457.24,147.15 L 459.41,147.25 Z M 456.51,143.78 L 455.29,143.19 L 453.20,139.80 L 455.94,137.32 L 454.56,136.21 L 455.78,136.17 L 458.75,141.60 L 456.51,143.78 Z M 452.93,136.41 L 452.56,136.23 L 454.35,135.28 L 452.93,136.41 Z" fill="#C8D8E8" stroke="#8BAABB" stroke-width="0.8"/>
<path d="M 603.32,229.75 L 601.07,230.77 L 600.86,229.98 L 601.81,228.47 L 603.32,229.75 Z M 602.21,229.97 L 602.31,229.65 L 601.89,229.46 L 602.21,229.97 Z M 600.86,209.98 L 600.94,211.08 L 604.41,210.94 L 602.67,210.81 L 603.68,207.54 L 606.16,208.09 L 604.31,209.87 L 605.91,210.54 L 604.91,210.81 L 605.77,212.31 L 603.04,211.77 L 603.17,212.99 L 605.65,213.25 L 603.97,214.44 L 605.29,216.25 L 604.03,216.67 L 602.14,222.59 L 599.72,221.73 L 600.41,214.91 L 598.49,213.99 L 600.86,209.98 Z M 608.15,245.04 L 617.93,255.81 L 639.01,262.41 L 643.84,261.89 L 647.06,263.97 L 660.70,283.42 L 666.29,284.47 L 666.05,289.86 L 657.59,305.58 L 652.35,308.91 L 645.58,317.81 L 646.45,319.03 L 643.98,321.47 L 642.66,325.98 L 641.34,327.13 L 636.95,326.22 L 638.05,322.59 L 637.00,322.08 L 630.67,329.08 L 627.65,339.64 L 629.94,354.25 L 618.94,355.87 L 611.71,359.14 L 608.69,362.83 L 607.25,370.97 L 603.54,375.12 L 587.06,377.08 L 583.13,383.08 L 584.45,385.50 L 583.71,389.12 L 579.49,393.55 L 575.24,394.73 L 571.62,393.01 L 562.45,393.55 L 553.96,398.57 L 544.46,400.86 L 539.23,388.46 L 537.78,387.85 L 524.34,354.17 L 578.61,334.34 L 590.54,294.98 L 582.38,280.61 L 583.09,272.32 L 588.74,259.45 L 587.27,255.61 L 597.06,253.27 L 595.88,250.50 L 592.67,250.31 L 594.01,236.61 L 597.20,235.91 L 597.62,237.80 L 596.33,237.65 L 598.89,240.39 L 604.03,235.48 L 608.15,245.04 Z M 594.62,383.47 L 595.12,383.76 L 594.85,383.93 L 594.62,383.47 Z M 598.82,383.47 L 596.60,383.88 L 596.45,383.45 L 598.82,383.47 Z M 650.46,324.15 L 645.07,330.86 L 645.00,326.93 L 649.67,320.40 L 650.46,324.15 Z" fill="#C8D8E8" stroke="#8BAABB" stroke-width="0.8"/>
<path d="M 504.10,239.10 L 502.14,225.23 L 503.88,225.77 L 502.75,223.05 L 504.06,222.13 L 504.81,224.48 L 506.24,222.22 L 504.61,221.53 L 506.36,215.57 L 511.19,212.03 L 513.67,215.86 L 517.09,217.57 L 517.32,220.92 L 515.78,221.41 L 516.58,222.52 L 515.18,224.70 L 516.03,229.15 L 517.63,229.98 L 517.69,234.60 L 512.80,243.58 L 511.67,241.73 L 506.26,243.62 L 503.17,240.07 L 504.10,239.10 Z" fill="#C8D8E8" stroke="#8BAABB" stroke-width="0.8"/>
<path d="M 603.79,224.61 L 604.03,235.48 L 598.89,240.39 L 596.46,237.94 L 597.62,237.80 L 596.70,235.60 L 593.46,237.30 L 592.67,250.31 L 595.88,250.50 L 597.06,253.27 L 587.27,255.61 L 588.74,259.45 L 583.09,272.32 L 581.18,282.20 L 534.83,275.94 L 517.11,252.86 L 517.38,247.25 L 518.12,250.38 L 520.74,249.68 L 521.28,254.87 L 523.44,255.58 L 530.90,254.73 L 535.59,250.73 L 537.06,252.09 L 545.81,251.50 L 553.49,253.95 L 558.72,253.60 L 568.64,249.09 L 569.70,246.02 L 571.30,246.02 L 568.46,244.27 L 571.44,244.80 L 572.55,240.03 L 580.49,234.71 L 584.11,229.87 L 584.95,231.05 L 584.50,229.43 L 588.97,223.56 L 590.33,224.40 L 596.37,218.70 L 595.96,219.63 L 596.23,219.72 L 598.49,213.99 L 600.41,214.91 L 599.72,221.73 L 603.79,224.61 Z M 600.86,229.98 L 601.07,230.77 L 603.32,229.75 L 601.81,228.47 L 600.86,229.98 Z M 601.89,229.46 L 602.31,229.65 L 602.21,229.97 L 601.89,229.46 Z M 558.17,249.43 L 560.28,251.46 L 556.84,252.30 L 554.71,251.74 L 558.17,249.43 Z M 562.95,249.49 L 563.00,248.56 L 564.32,249.38 L 564.36,250.38 L 562.95,249.49 Z M 536.51,248.44 L 535.44,249.86 L 534.79,248.79 L 536.51,248.44 Z M 546.16,249.19 L 549.46,248.55 L 550.36,246.69 L 550.79,248.11 L 548.66,249.67 L 546.16,249.19 Z M 566.97,245.58 L 568.08,244.51 L 569.43,246.45 L 566.97,245.58 Z M 564.93,249.24 L 564.25,248.20 L 565.12,247.79 L 564.93,249.24 Z M 566.99,247.93 L 566.50,248.66 L 565.96,247.65 L 566.99,247.93 Z M 530.87,244.93 L 530.42,245.45 L 529.86,245.02 L 530.87,244.93 Z" fill="#C8D8E8" stroke="#8BAABB" stroke-width="0.8"/>
<path d="M 537.78,387.85 L 539.23,388.46 L 544.46,400.86 L 534.37,404.74 L 530.03,408.38 L 527.55,413.93 L 528.86,421.23 L 513.30,428.89 L 498.57,432.49 L 491.80,436.56 L 487.50,436.65 L 477.20,440.40 L 472.14,442.98 L 470.53,446.85 L 464.96,452.43 L 455.78,453.90 L 452.67,452.16 L 441.48,460.14 L 428.86,464.59 L 410.14,466.35 L 405.39,471.74 L 400.24,473.89 L 399.16,477.85 L 397.72,477.45 L 398.37,475.94 L 395.77,477.03 L 395.95,478.49 L 391.05,476.71 L 387.52,479.68 L 379.04,481.11 L 372.78,477.97 L 370.38,479.40 L 370.48,476.18 L 366.01,467.50 L 367.00,458.81 L 361.18,443.10 L 362.31,444.52 L 359.81,435.76 L 360.93,437.19 L 360.78,434.47 L 359.46,430.74 L 354.86,428.62 L 356.17,428.56 L 356.71,426.18 L 358.21,429.30 L 356.34,419.52 L 358.93,415.29 L 358.11,406.25 L 362.57,402.97 L 363.45,400.27 L 365.17,400.42 L 365.74,397.80 L 363.95,395.55 L 364.06,392.06 L 366.41,388.77 L 364.90,387.30 L 367.40,384.66 L 371.02,383.58 L 378.47,387.78 L 382.70,385.74 L 401.09,385.27 L 405.88,387.58 L 422.02,389.32 L 429.03,388.31 L 433.74,394.63 L 437.20,394.81 L 442.01,391.95 L 444.93,384.58 L 455.30,370.97 L 471.11,362.43 L 524.34,354.17 L 537.78,387.85 Z M 548.01,490.45 L 548.44,490.76 L 547.58,490.69 L 548.01,490.45 Z M 544.39,490.31 L 542.56,489.74 L 542.89,489.46 L 544.39,490.31 Z M 531.76,490.02 L 525.89,488.30 L 526.87,488.18 L 531.76,490.02 Z M 370.04,480.02 L 369.80,480.43 L 368.97,479.75 L 370.04,480.02 Z M 570.69,482.06 L 563.45,486.00 L 556.05,487.01 L 548.37,482.19 L 552.21,478.80 L 558.13,481.10 L 563.07,479.06 L 570.69,482.06 Z M 358.21,457.86 L 356.28,459.96 L 356.37,459.26 L 358.21,457.86 Z M 358.33,452.83 L 357.97,454.88 L 356.34,453.03 L 358.33,452.83 Z M 354.35,425.68 L 354.11,428.12 L 353.94,425.65 L 355.33,424.61 L 354.35,425.68 Z" fill="#C8D8E8" stroke="#8BAABB" stroke-width="0.8"/>
<path d="M 506.26,243.62 L 511.50,242.49 L 512.11,244.62 L 513.79,242.36 L 515.66,243.31 L 511.69,248.78 L 516.94,249.80 L 517.38,253.33 L 534.83,275.94 L 580.91,282.25 L 582.38,280.61 L 590.54,294.98 L 578.61,334.34 L 524.34,354.17 L 471.11,362.43 L 455.30,370.97 L 444.93,384.58 L 442.01,391.95 L 437.20,394.81 L 433.74,394.63 L 429.03,388.31 L 422.02,389.32 L 405.88,387.58 L 401.09,385.27 L 382.70,385.74 L 378.47,387.78 L 369.39,383.45 L 364.90,387.30 L 366.48,388.37 L 364.06,392.06 L 363.95,395.55 L 365.74,397.80 L 365.17,400.42 L 363.45,400.27 L 362.57,402.97 L 358.11,406.25 L 356.71,399.11 L 350.28,390.15 L 350.39,393.28 L 349.28,384.77 L 339.98,377.23 L 334.66,369.49 L 333.62,364.60 L 329.54,360.08 L 330.24,357.38 L 328.20,355.35 L 328.93,352.75 L 326.98,351.60 L 324.73,344.05 L 321.40,342.01 L 321.12,338.67 L 319.52,339.02 L 317.31,335.00 L 309.16,328.71 L 305.89,328.13 L 306.57,329.10 L 303.30,327.29 L 292.71,312.25 L 291.01,308.16 L 292.65,306.39 L 291.53,299.57 L 288.31,294.44 L 289.66,294.53 L 292.14,286.57 L 290.82,287.31 L 289.79,279.35 L 285.93,274.75 L 285.91,271.76 L 279.65,259.17 L 270.29,252.13 L 270.52,250.78 L 269.03,251.91 L 261.14,247.60 L 261.63,246.13 L 256.06,238.00 L 258.01,237.60 L 257.75,231.57 L 252.22,222.22 L 247.99,219.57 L 247.87,214.76 L 244.56,213.00 L 235.86,197.21 L 220.15,175.34 L 221.10,174.44 L 218.13,173.15 L 213.66,174.11 L 211.93,172.74 L 210.81,173.55 L 211.19,174.11 L 210.19,174.92 L 209.46,173.28 L 213.64,165.06 L 216.28,148.70 L 236.54,151.71 L 243.91,145.87 L 248.47,138.75 L 261.88,135.95 L 265.09,129.27 L 271.13,125.94 L 252.64,106.26 L 288.89,96.27 L 292.41,93.75 L 314.34,97.38 L 345.19,114.41 L 392.52,151.68 L 442.12,155.78 L 446.37,164.94 L 461.32,165.60 L 460.85,167.84 L 462.06,167.43 L 464.17,174.61 L 466.70,175.38 L 465.82,176.29 L 468.34,178.96 L 468.19,180.09 L 467.55,180.91 L 467.07,178.92 L 466.46,181.09 L 468.29,181.72 L 467.42,183.21 L 474.80,184.55 L 476.12,186.46 L 472.63,186.61 L 475.23,187.15 L 474.50,188.79 L 476.12,188.52 L 476.30,191.28 L 477.92,191.31 L 477.24,192.40 L 480.81,191.51 L 483.11,196.19 L 491.42,202.01 L 488.34,200.83 L 489.10,205.39 L 492.47,208.78 L 491.11,214.49 L 489.14,211.21 L 488.37,215.17 L 490.38,215.41 L 493.21,222.51 L 491.17,220.49 L 491.24,221.16 L 497.08,226.37 L 498.72,233.96 L 506.26,243.62 Z M 347.06,402.03 L 345.38,399.85 L 343.02,400.31 L 339.43,395.83 L 342.11,398.78 L 344.46,399.41 L 344.95,397.46 L 347.20,399.61 L 347.06,402.03 Z M 340.84,395.92 L 342.53,394.66 L 341.04,393.82 L 341.31,393.50 L 342.71,394.31 L 343.86,398.51 L 340.84,395.92 Z M 481.05,188.53 L 482.92,189.06 L 478.71,189.60 L 481.05,188.53 Z M 252.41,226.28 L 252.50,225.77 L 253.36,225.73 L 253.86,226.72 L 252.41,226.28 Z M 251.56,227.88 L 249.33,225.19 L 251.64,227.22 L 251.56,227.88 Z M 250.24,224.19 L 250.50,223.73 L 250.96,223.98 L 250.24,224.19 Z M 248.29,224.02 L 247.61,224.06 L 248.41,223.83 L 251.19,226.25 L 248.29,224.02 Z M 251.53,223.23 L 251.82,223.01 L 251.98,224.74 L 251.53,223.23 Z M 247.36,224.14 L 245.04,223.35 L 244.17,222.24 L 245.12,221.10 L 244.89,222.25 L 247.36,224.14 Z M 245.10,219.13 L 245.38,218.45 L 245.97,217.97 L 246.34,220.97 L 245.10,219.13 Z" fill="#4A90D9" stroke="#1a5fa8" stroke-width="1.2"/>
<path d="M 258.30,496.61 L 255.56,495.79 L 254.94,496.87 L 253.22,495.25 L 253.65,489.58 L 255.86,487.39 L 257.91,488.85 L 262.39,486.94 L 264.25,490.75 L 263.75,493.35 L 260.50,500.00 L 259.64,500.00 L 258.69,499.64 L 258.30,496.61 Z" fill="#A8C8E8" stroke="none"/>
<path d="M 228.66,81.23 L 227.63,81.87 L 226.67,79.25 L 228.76,79.29 L 228.66,81.23 Z" fill="#A8C8E8" stroke="none"/>
<path d="M 233.39,441.00 L 233.50,434.73 L 234.38,437.40 L 233.39,441.00 Z" fill="#A8C8E8" stroke="none"/>
<path d="M 367.11,69.94 L 368.63,67.50 L 372.72,70.50 L 370.72,72.57 L 367.11,69.94 Z" fill="#A8C8E8" stroke="none"/>
<path d="M 363.33,57.53 L 363.48,49.55 L 371.02,57.98 L 370.36,62.34 L 367.34,61.98 L 363.33,57.53 Z" fill="#A8C8E8" stroke="none"/>
<path d="M 165.61,279.99 L 162.65,281.98 L 162.46,284.77 L 152.79,292.05 L 150.81,298.09 L 148.99,299.16 L 148.12,301.39 L 146.47,302.32 L 150.93,295.34 L 151.31,291.72 L 157.38,286.55 L 157.00,285.45 L 159.50,285.19 L 156.94,282.81 L 156.88,281.64 L 160.11,283.42 L 160.72,281.63 L 165.93,278.53 L 169.27,282.11 L 172.80,279.37 L 172.88,276.07 L 174.28,275.71 L 175.60,270.91 L 179.37,268.65 L 177.84,267.09 L 178.83,264.80 L 173.00,264.64 L 176.29,263.58 L 174.00,262.92 L 175.61,261.25 L 177.76,263.48 L 178.83,258.68 L 177.09,256.90 L 178.83,255.13 L 181.06,260.57 L 179.13,263.01 L 181.68,264.52 L 179.12,264.36 L 181.31,269.95 L 179.57,269.55 L 180.47,271.86 L 178.20,272.00 L 182.17,276.35 L 179.71,276.21 L 176.97,273.35 L 175.85,276.07 L 173.83,276.58 L 173.50,279.47 L 168.91,282.60 L 169.15,284.08 L 167.55,284.23 L 168.67,282.33 L 165.61,279.99 Z" fill="#A8C8E8" stroke="none"/>
<path d="M 205.55,497.76 L 207.49,496.96 L 207.46,500.00 L 205.21,500.00 L 205.55,497.76 Z" fill="#A8C8E8" stroke="none"/>
<path d="M 277.07,21.05 L 277.22,19.59 L 272.80,16.92 L 271.91,13.90 L 275.02,10.12 L 275.55,11.79 L 273.73,12.92 L 273.60,15.37 L 281.55,18.99 L 277.07,21.05 Z" fill="#A8C8E8" stroke="none"/>
<path d="M 378.16,82.19 L 378.05,83.89 L 375.83,86.13 L 369.97,82.68 L 369.24,78.78 L 370.47,78.78 L 371.59,74.04 L 378.16,82.19 Z" fill="#A8C8E8" stroke="none"/>
<path d="M 227.54,106.71 L 226.47,109.95 L 226.43,108.71 L 224.70,109.52 L 224.30,105.80 L 227.30,100.81 L 227.54,106.71 Z" fill="#A8C8E8" stroke="none"/>
<path d="M 225.50,114.27 L 223.68,111.82 L 224.81,111.01 L 226.44,112.04 L 225.50,114.27 Z" fill="#A8C8E8" stroke="none"/>
<path d="M 429.73,120.80 L 430.12,121.08 L 429.98,121.47 L 429.73,120.80 Z M 442.02,122.98 L 436.01,120.67 L 434.01,121.56 L 432.62,120.02 L 431.18,121.65 L 431.60,120.27 L 428.75,119.58 L 428.50,118.21 L 431.22,117.34 L 439.93,121.08 L 443.39,119.72 L 441.14,120.80 L 445.19,121.71 L 442.02,122.98 Z" fill="#A8C8E8" stroke="none"/>
<path d="M 351.95,499.43 L 351.56,500.00 L 351.11,500.00 L 350.78,499.08 L 351.95,499.43 Z" fill="#A8C8E8" stroke="none"/>
<path d="M 168.91,129.69 L 168.45,127.91 L 169.90,127.46 L 173.05,132.28 L 168.91,129.69 Z" fill="#A8C8E8" stroke="none"/>
</svg>