<svg xmlns="http://www.w3.org/2000/svg" width="800" height="500" viewBox="0 0 800 500">
<rect width="800" height="500" fill="#A8C8E8"/>
<path d="M 76.69,370.22 L 69.84,366.00 L 70.24,362.49 L 66.66,364.02 L 67.94,361.02 L 63.56,352.69 L 84.43,367.48 L 76.69,370.22 Z M 103.45,358.39 L 93.67,356.48 L 98.77,355.51 L 96.76,352.34 L 103.96,354.40 L 103.45,358.39 Z M 63.32,349.72 L 59.76,345.45 L 65.37,348.59 L 63.32,349.72 Z M 51.00,317.33 L 46.59,319.19 L 38.60,314.65 L 51.00,317.33 Z M 53.19,235.77 L 54.62,239.33 L 46.24,235.18 L 45.93,239.54 L 42.48,235.25 L 44.75,233.16 L 36.00,227.69 L 35.25,223.30 L 34.12,229.82 L 32.89,224.72 L 35.28,222.18 L 48.11,225.40 L 55.67,232.98 L 53.19,235.77 Z M 165.85,103.82 L 165.31,100.17 L 157.10,108.39 L 143.32,99.75 L 137.43,89.21 L 138.99,77.60 L 130.59,71.65 L 121.76,57.29 L 119.67,47.33 L 122.31,35.89 L 119.67,28.86 L 126.87,35.66 L 133.37,35.28 L 138.94,53.00 L 144.83,57.81 L 149.80,70.57 L 154.90,69.98 L 161.46,80.23 L 165.97,95.42 L 165.85,103.82 Z M 119.24,28.65 L 117.11,30.40 L 113.50,12.71 L 116.83,5.88 L 120.69,16.77 L 119.24,28.65 Z M 29.25,1.59 L 17.34,4.27 L 17.45,13.32 L 23.83,24.17 L 22.01,30.22 L 12.07,37.77 L 0.00,34.96 L 0.00,1.85 L 3.75,3.25 L 6.00,0.00 L 29.77,0.00 L 29.25,1.59 Z M 0.75,41.72 L 0.00,42.65 L 0.00,39.62 L 0.75,41.72 Z M 22.02,301.73 L 22.43,301.75 L 22.34,302.27 L 22.02,301.73 Z M 13.36,298.81 L 13.70,298.61 L 13.40,299.20 L 13.36,298.81 Z M 13.13,294.00 L 12.91,294.80 L 12.77,294.51 L 13.13,294.00 Z" fill="#E8E0D0" stroke="#B8B0A0" stroke-width="0.5"/>
<path d="M 596.12,488.05 L 599.81,484.24 L 603.60,492.41 L 598.45,495.82 L 596.12,488.05 Z M 608.22,482.04 L 605.29,483.43 L 606.60,480.30 L 608.22,482.04 Z M 595.37,473.74 L 595.29,475.17 L 593.30,475.62 L 595.37,473.74 Z M 566.87,457.12 L 568.09,457.94 L 566.92,460.04 L 566.87,457.12 Z M 563.79,454.62 L 563.45,448.85 L 564.98,449.61 L 563.79,454.62 Z M 568.63,468.13 L 569.21,467.70 L 569.76,468.57 L 568.63,468.13 Z" fill="#E8E0D0" stroke="#B8B0A0" stroke-width="0.5"/>
<path d="M 340.50,378.97 L 336.79,381.73 L 328.81,370.07 L 319.54,368.29 L 317.49,362.93 L 321.92,362.47 L 340.50,378.97 Z M 312.62,351.62 L 313.13,353.10 L 310.29,350.85 L 312.62,351.62 Z M 383.12,292.96 L 383.62,291.60 L 385.05,294.10 L 383.12,292.96 Z M 397.89,325.54 L 385.93,320.66 L 375.89,311.27 L 375.37,300.30 L 366.89,298.05 L 367.45,291.62 L 387.56,304.82 L 398.00,305.34 L 404.54,318.30 L 403.94,325.03 L 407.81,325.54 L 397.89,325.54 Z M 587.67,272.98 L 587.84,272.48 L 588.81,273.95 L 587.67,272.98 Z M 585.37,269.33 L 585.51,269.48 L 585.36,269.59 L 585.37,269.33 Z M 391.05,264.83 L 392.90,262.99 L 392.36,264.86 L 392.90,272.03 L 391.05,264.83 Z M 369.49,243.84 L 376.66,258.48 L 377.16,268.62 L 371.23,262.07 L 371.01,247.92 L 369.49,243.84 Z M 342.85,276.77 L 330.67,270.06 L 312.47,268.89 L 303.70,253.92 L 303.99,242.26 L 309.02,239.49 L 316.38,249.03 L 332.40,247.92 L 342.24,257.25 L 349.67,271.28 L 342.85,276.77 Z M 311.30,232.37 L 312.36,230.92 L 312.82,233.21 L 311.30,232.37 Z M 330.47,228.61 L 334.20,232.45 L 332.40,235.46 L 328.19,233.96 L 330.47,228.61 Z M 289.97,226.48 L 287.64,232.83 L 287.80,230.31 L 289.97,226.48 Z M 324.19,224.64 L 329.96,228.60 L 328.58,232.45 L 322.28,228.32 L 324.19,224.64 Z M 286.63,230.92 L 282.58,228.98 L 284.56,224.90 L 287.38,226.20 L 286.63,230.92 Z M 321.44,222.53 L 322.12,221.94 L 322.89,224.90 L 321.44,222.53 Z M 229.38,213.98 L 223.00,209.91 L 226.65,208.27 L 229.38,213.98 Z M 249.33,214.02 L 251.38,207.56 L 252.20,210.79 L 249.33,214.02 Z M 248.53,200.21 L 246.00,203.81 L 247.53,208.22 L 241.95,211.78 L 239.03,207.75 L 239.80,201.14 L 248.53,200.21 Z M 218.38,205.91 L 221.55,210.19 L 213.56,201.33 L 219.06,192.89 L 221.55,197.59 L 218.38,205.91 Z M 301.74,196.10 L 302.06,191.62 L 304.98,191.33 L 306.96,198.14 L 301.74,196.10 Z M 421.32,190.76 L 422.18,191.02 L 421.89,191.39 L 421.32,190.76 Z M 351.23,233.58 L 341.22,188.10 L 347.14,187.62 L 356.07,203.41 L 354.19,214.96 L 361.86,222.44 L 366.89,235.46 L 365.03,240.68 L 370.50,253.22 L 369.73,259.19 L 351.23,233.58 Z M 211.74,188.74 L 206.87,180.80 L 209.80,181.39 L 211.74,188.74 Z M 212.51,184.98 L 209.69,178.94 L 213.05,180.41 L 212.51,184.98 Z M 199.43,174.02 L 200.06,176.41 L 197.97,174.94 L 199.43,174.02 Z M 236.72,204.18 L 227.70,194.19 L 227.21,187.99 L 229.76,191.56 L 226.65,184.58 L 214.58,187.62 L 214.46,182.17 L 222.58,169.08 L 228.75,170.61 L 230.03,183.45 L 234.02,182.78 L 237.49,188.74 L 240.06,197.20 L 239.28,202.27 L 235.95,201.14 L 236.72,204.18 Z M 190.53,181.16 L 189.11,166.85 L 190.14,168.35 L 190.53,181.16 Z M 204.03,169.08 L 209.43,161.97 L 213.56,170.24 L 212.29,177.65 L 204.03,169.08 Z M 193.24,166.85 L 187.40,149.84 L 191.42,146.51 L 198.77,154.80 L 193.24,166.85 Z M 153.36,136.24 L 150.00,135.85 L 151.29,132.94 L 153.36,136.24 Z M 162.88,120.64 L 156.19,120.10 L 158.52,113.31 L 162.88,120.64 Z M 174.20,111.40 L 170.08,114.10 L 171.74,109.77 L 170.23,107.02 L 171.36,105.01 L 174.20,111.40 Z M 580.86,374.30 L 575.56,374.49 L 572.71,369.20 L 580.86,374.30 Z M 563.01,352.26 L 561.92,348.86 L 564.20,347.05 L 563.01,352.26 Z M 538.73,328.01 L 534.76,324.91 L 539.33,316.37 L 549.46,318.41 L 538.73,328.01 Z M 263.22,151.39 L 255.46,147.05 L 257.78,146.13 L 263.22,151.39 Z M 314.41,201.14 L 304.65,189.87 L 279.15,172.89 L 265.52,156.68 L 260.53,144.45 L 271.78,147.83 L 284.32,164.89 L 296.22,169.22 L 312.72,188.11 L 309.52,191.75 L 314.41,201.14 Z M 253.54,142.04 L 253.64,140.87 L 259.88,144.21 L 253.54,142.04 Z M 229.25,140.05 L 223.87,137.83 L 225.13,136.66 L 229.25,140.05 Z M 252.91,141.21 L 250.86,139.30 L 252.95,136.91 L 252.91,141.21 Z M 235.95,141.21 L 231.49,139.83 L 233.11,136.30 L 235.95,141.21 Z M 222.83,138.96 L 206.57,130.73 L 185.78,100.51 L 185.53,94.86 L 189.05,93.75 L 207.62,109.52 L 213.05,125.02 L 225.91,133.51 L 222.83,138.96 Z M 650.00,405.75 L 649.12,406.25 L 648.95,405.77 L 650.00,405.75 Z M 533.50,302.94 L 533.85,301.68 L 534.71,302.61 L 533.50,302.94 Z M 342.97,166.17 L 341.46,164.08 L 342.51,164.20 L 342.97,166.17 Z M 580.69,370.38 L 579.41,371.18 L 579.36,369.65 L 580.69,370.38 Z M 552.82,297.34 L 552.86,292.06 L 553.01,295.03 L 552.82,297.34 Z M 189.32,160.14 L 187.88,160.19 L 188.22,159.16 L 189.32,160.14 Z" fill="#4A90D9" stroke="#1a5fa8" stroke-width="1.2"/>
</svg>