<svg xmlns="http://www.w3.org/2000/svg" width="800" height="500" viewBox="0 0 800 500">
<rect width="800" height="500" fill="#A8C8E8"/>
<path d="M 662.31,427.47 L 663.98,431.59 L 662.02,428.92 L 662.31,427.47 Z" fill="#E8E0D0" stroke="#B8B0A0" stroke-width="0.5"/>
<path d="M 4.62,480.20 L 10.49,481.23 L 9.90,488.17 L 3.37,488.17 L 4.62,480.20 Z" fill="#E8E0D0" stroke="#B8B0A0" stroke-width="0.5"/>
<path d="M 164.55,398.63 L 163.51,398.85 L 163.87,397.81 L 164.55,398.63 Z M 214.48,396.21 L 214.76,396.02 L 214.90,396.31 L 214.48,396.21 Z M 503.88,183.01 L 504.03,183.56 L 503.69,183.07 L 503.88,183.01 Z M 619.17,102.18 L 618.47,101.65 L 618.86,101.15 L 619.17,102.18 Z M 162.26,382.64 L 154.59,383.78 L 151.34,383.93 L 150.00,380.59 L 164.29,379.20 L 162.26,382.64 Z M 155.35,377.64 L 160.90,378.20 L 158.53,379.17 L 155.35,377.64 Z M 648.58,268.44 L 650.00,266.93 L 649.26,269.11 L 648.58,268.44 Z M 608.70,139.66 L 612.82,151.73 L 609.85,146.87 L 606.06,144.58 L 608.70,139.66 Z M 597.45,135.93 L 597.32,133.80 L 599.03,134.71 L 597.45,135.93 Z M 619.73,126.39 L 625.18,128.09 L 623.79,129.48 L 619.73,126.39 Z M 474.40,261.69 L 474.15,261.52 L 474.13,261.15 L 474.40,261.69 Z M 605.08,204.76 L 604.99,204.94 L 604.98,204.74 L 605.08,204.76 Z M 604.68,144.87 L 604.64,144.94 L 604.09,144.73 L 604.68,144.87 Z M 606.32,145.30 L 606.25,145.54 L 605.86,145.22 L 606.32,145.30 Z M 611.14,143.04 L 611.23,143.53 L 610.54,143.26 L 611.14,143.04 Z M 611.51,142.79 L 611.49,143.03 L 611.19,142.86 L 611.51,142.79 Z M 611.13,141.47 L 611.66,141.58 L 610.78,142.29 L 611.13,141.47 Z M 621.61,125.41 L 622.99,125.48 L 622.49,126.19 L 621.61,125.41 Z M 619.16,128.27 L 618.90,128.31 L 618.88,128.08 L 619.16,128.27 Z M 618.33,128.99 L 618.44,129.24 L 618.07,129.03 L 618.33,128.99 Z M 619.39,122.10 L 619.63,122.18 L 618.84,122.21 L 619.39,122.10 Z M 628.65,129.81 L 627.88,130.70 L 627.09,130.16 L 628.65,129.81 Z M 629.95,128.01 L 630.02,128.40 L 629.47,128.20 L 629.95,128.01 Z M 629.28,125.74 L 629.48,126.38 L 629.30,126.39 L 629.28,125.74 Z M 632.01,128.42 L 631.90,129.05 L 631.72,128.96 L 632.01,128.42 Z M 632.98,140.55 L 633.27,141.10 L 632.42,140.86 L 632.98,140.55 Z" fill="#4A90D9" stroke="#1a5fa8" stroke-width="1.2"/>
</svg>