<svg xmlns="http://www.w3.org/2000/svg" width="800" height="500" viewBox="0 0 800 500">
<rect width="800" height="500" fill="#A8C8E8"/>
<path d="M 662.31,436.29 L 663.98,440.62 L 662.02,437.81 L 662.31,436.29 Z" fill="#E8E0D0" stroke="#B8B0A0" stroke-width="0.5"/>
<path d="M 4.62,491.64 L 10.49,492.72 L 9.90,500.00 L 3.37,500.00 L 4.62,491.64 Z" fill="#E8E0D0" stroke="#B8B0A0" stroke-width="0.5"/>
<path d="M 164.55,406.01 L 163.51,406.25 L 163.87,405.15 L 164.55,406.01 Z M 214.48,403.48 L 214.76,403.28 L 214.90,403.58 L 214.48,403.48 Z M 503.88,179.68 L 504.03,180.26 L 503.69,179.75 L 503.88,179.68 Z M 619.17,94.83 L 618.47,94.28 L 618.86,93.75 L 619.17,94.83 Z M 162.26,389.23 L 154.59,390.43 L 151.34,390.59 L 150.00,387.08 L 164.29,385.62 L 162.26,389.23 Z M 155.35,383.98 L 160.90,384.57 L 158.53,385.59 L 155.35,383.98 Z M 648.58,269.36 L 650.00,267.77 L 649.26,270.06 L 648.58,269.36 Z M 608.70,134.18 L 612.82,146.85 L 609.85,141.74 L 606.06,139.34 L 608.70,134.18 Z M 597.45,130.26 L 597.32,128.03 L 599.03,128.98 L 597.45,130.26 Z M 619.73,120.24 L 625.18,122.04 L 623.79,123.50 L 619.73,120.24 Z M 474.40,262.27 L 474.15,262.09 L 474.13,261.70 L 474.40,262.27 Z M 605.08,202.52 L 604.99,202.70 L 604.98,202.49 L 605.08,202.52 Z M 604.68,139.65 L 604.64,139.72 L 604.09,139.50 L 604.68,139.65 Z M 606.32,140.10 L 606.25,140.35 L 605.86,140.01 L 606.32,140.10 Z M 611.14,137.72 L 611.23,138.24 L 610.54,137.96 L 611.14,137.72 Z M 611.51,137.46 L 611.49,137.71 L 611.19,137.54 L 611.51,137.46 Z M 611.13,136.08 L 611.66,136.19 L 610.78,136.93 L 611.13,136.08 Z M 621.61,119.22 L 622.99,119.30 L 622.49,120.04 L 621.61,119.22 Z M 619.16,122.22 L 618.90,122.26 L 618.88,122.03 L 619.16,122.22 Z M 618.33,122.98 L 618.44,123.23 L 618.07,123.02 L 618.33,122.98 Z M 619.39,115.75 L 619.63,115.83 L 618.84,115.86 L 619.39,115.75 Z M 628.65,123.84 L 627.88,124.78 L 627.09,124.21 L 628.65,123.84 Z M 629.95,121.95 L 630.02,122.36 L 629.47,122.14 L 629.95,121.95 Z M 629.28,119.57 L 629.48,120.23 L 629.30,120.25 L 629.28,119.57 Z M 632.01,122.38 L 631.90,123.04 L 631.72,122.94 L 632.01,122.38 Z M 632.98,135.11 L 633.27,135.69 L 632.42,135.44 L 632.98,135.11 Z" fill="#4A90D9" stroke="#1a5fa8" stroke-width="1.2"/>
</svg>