<svg xmlns="http://www.w3.org/2000/svg" width="800" height="500" viewBox="0 0 800 500">
<rect width="800" height="500" fill="#A8C8E8"/>
<path d="M 784.43,499.32 L 800.00,494.90 L 800.00,500.00 L 783.70,500.00 L 784.43,499.32 Z" fill="#E8E0D0" stroke="#B8B0A0" stroke-width="0.5"/>
<path d="M 564.72,498.54 L 570.12,499.97 L 570.15,500.00 L 524.22,500.00 L 524.28,499.95 L 554.96,490.49 L 554.50,492.89 L 559.70,493.40 L 558.25,496.25 L 560.89,499.95 L 564.72,498.54 Z" fill="#E8E0D0" stroke="#B8B0A0" stroke-width="0.5"/>
<path d="M 799.38,391.13 L 793.36,389.38 L 786.46,378.53 L 782.90,377.62 L 776.01,371.03 L 770.42,361.74 L 789.30,341.25 L 795.45,343.98 L 795.41,347.25 L 800.00,351.79 L 800.00,391.55 L 799.38,391.13 Z" fill="#E8E0D0" stroke="#B8B0A0" stroke-width="0.5"/>
<path d="M 68.84,493.28 L 78.53,488.18 L 90.91,488.95 L 106.22,496.45 L 109.32,500.00 L 63.21,500.00 L 68.84,493.28 Z M 182.42,495.26 L 195.99,500.00 L 178.57,500.00 L 182.42,495.26 Z M 202.95,497.33 L 222.93,492.81 L 227.09,490.36 L 227.02,488.37 L 236.97,493.09 L 254.15,490.44 L 255.82,484.02 L 261.18,482.53 L 272.11,487.26 L 280.66,485.69 L 289.72,490.09 L 296.77,489.01 L 300.57,490.32 L 306.73,486.50 L 313.52,488.14 L 326.69,496.08 L 327.43,500.00 L 198.77,500.00 L 202.95,497.33 Z M 377.70,498.81 L 382.49,499.46 L 383.95,500.00 L 376.60,500.00 L 377.70,498.81 Z" fill="#E8E0D0" stroke="#B8B0A0" stroke-width="0.5"/>
<path d="M 777.11,353.27 L 769.44,350.70 L 749.25,354.38 L 744.00,352.85 L 744.93,336.51 L 763.94,317.69 L 771.30,321.39 L 774.70,319.79 L 776.98,315.25 L 784.39,313.36 L 790.69,318.42 L 793.22,324.50 L 792.11,329.58 L 787.03,330.67 L 782.53,334.22 L 774.25,335.87 L 771.00,339.65 L 766.45,339.52 L 769.08,341.97 L 776.59,339.02 L 785.40,338.65 L 788.05,341.51 L 777.11,353.27 Z" fill="#E8E0D0" stroke="#B8B0A0" stroke-width="0.5"/>
<path d="M 793.17,202.34 L 785.80,206.82 L 788.39,208.07 L 784.41,212.35 L 784.23,216.42 L 787.18,219.03 L 786.24,222.08 L 783.41,221.89 L 781.96,225.04 L 774.61,228.85 L 772.32,220.55 L 761.73,210.13 L 761.92,213.77 L 760.09,203.87 L 744.79,195.11 L 736.03,186.10 L 734.31,180.43 L 727.60,175.17 L 728.75,172.02 L 725.40,169.66 L 726.59,166.64 L 723.38,165.31 L 719.69,156.53 L 714.21,154.15 L 713.74,150.27 L 711.11,150.68 L 707.48,146.01 L 694.06,138.69 L 688.68,138.02 L 689.80,139.15 L 684.42,137.03 L 666.98,119.55 L 664.20,114.79 L 666.89,112.73 L 665.04,104.80 L 659.75,98.85 L 661.96,98.94 L 666.04,89.68 L 663.89,90.55 L 662.18,81.30 L 655.83,75.95 L 655.79,72.46 L 645.50,57.83 L 630.10,49.64 L 630.47,48.07 L 628.02,49.39 L 615.03,44.37 L 615.85,42.66 L 606.67,33.21 L 609.89,32.74 L 609.46,25.73 L 600.35,14.87 L 593.39,11.78 L 593.20,6.19 L 587.74,4.14 L 584.51,0.00 L 800.00,0.00 L 800.00,204.64 L 793.17,202.34 Z M 756.43,223.95 L 753.66,221.41 L 749.78,221.95 L 743.88,216.73 L 748.29,220.16 L 752.15,220.90 L 752.96,218.63 L 756.66,221.13 L 756.43,223.95 Z M 746.20,216.84 L 748.98,215.38 L 746.53,214.40 L 746.97,214.03 L 749.27,214.97 L 751.16,219.85 L 746.20,216.84 Z M 600.66,19.58 L 600.82,18.99 L 602.23,18.94 L 603.05,20.09 L 600.66,19.58 Z M 599.27,21.44 L 595.60,18.32 L 599.40,20.68 L 599.27,21.44 Z M 597.10,17.15 L 597.53,16.62 L 598.28,16.91 L 597.10,17.15 Z M 593.89,16.95 L 592.77,17.01 L 594.08,16.74 L 598.65,19.55 L 593.89,16.95 Z M 599.22,16.04 L 599.70,15.78 L 599.96,17.79 L 599.22,16.04 Z M 592.36,17.09 L 588.54,16.18 L 587.11,14.89 L 588.66,13.56 L 588.29,14.90 L 592.36,17.09 Z M 588.63,11.27 L 589.10,10.48 L 590.07,9.92 L 590.67,13.41 L 588.63,11.27 Z" fill="#E8E0D0" stroke="#B8B0A0" stroke-width="0.5"/>
<path d="M 798.76,312.24 L 794.82,313.92 L 794.97,310.16 L 787.62,300.07 L 789.25,289.96 L 779.67,271.71 L 781.52,273.35 L 777.42,263.16 L 779.26,264.83 L 779.01,261.67 L 776.83,257.33 L 769.27,254.86 L 771.43,254.79 L 772.32,252.03 L 774.78,255.65 L 771.71,244.28 L 775.96,239.36 L 774.61,228.85 L 781.96,225.04 L 783.41,221.89 L 786.24,222.08 L 787.18,219.03 L 784.23,216.42 L 784.41,212.35 L 788.28,208.53 L 785.80,206.82 L 789.90,203.75 L 795.87,202.49 L 800.00,204.14 L 800.00,312.68 L 798.76,312.24 Z M 794.25,314.63 L 793.86,315.11 L 792.50,314.32 L 794.25,314.63 Z M 774.78,288.86 L 771.61,291.31 L 771.76,290.49 L 774.78,288.86 Z M 774.98,283.02 L 774.38,285.40 L 771.71,283.25 L 774.98,283.02 Z M 768.42,251.45 L 768.03,254.28 L 767.75,251.41 L 770.04,250.20 L 768.42,251.45 Z" fill="#E8E0D0" stroke="#B8B0A0" stroke-width="0.5"/>
<path d="M 494.84,99.09 L 515.44,99.09 L 512.91,104.35 L 499.79,105.65 L 488.56,99.09 L 494.84,99.09 Z" fill="#E8E0D0" stroke="#B8B0A0" stroke-width="0.5"/>
<path d="M 194.11,365.69 L 204.64,378.99 L 204.27,392.50 L 199.56,394.97 L 198.42,398.47 L 202.34,399.49 L 200.49,405.58 L 221.70,406.02 L 222.68,408.60 L 219.30,411.85 L 219.77,414.64 L 239.04,417.82 L 246.75,424.37 L 251.45,425.11 L 253.31,429.83 L 249.91,431.67 L 250.66,433.48 L 255.71,437.30 L 275.54,445.12 L 277.48,448.96 L 286.01,453.05 L 282.80,457.37 L 289.91,463.38 L 287.41,466.45 L 297.87,468.54 L 299.14,470.55 L 308.22,473.45 L 312.30,477.86 L 312.41,485.19 L 317.67,489.56 L 306.73,486.50 L 300.57,490.32 L 296.77,489.01 L 289.72,490.09 L 280.66,485.69 L 272.11,487.26 L 261.18,482.53 L 255.82,484.02 L 254.15,490.44 L 236.97,493.09 L 227.02,488.37 L 227.09,490.36 L 222.93,492.81 L 202.95,497.33 L 198.77,500.00 L 195.99,500.00 L 182.42,495.26 L 178.57,500.00 L 109.32,500.00 L 106.22,496.45 L 90.91,488.95 L 78.53,488.18 L 68.84,493.28 L 63.21,500.00 L 0.00,500.00 L 0.00,432.35 L 0.33,432.56 L 25.86,422.32 L 54.13,420.87 L 70.05,406.40 L 62.48,402.38 L 67.01,399.25 L 109.09,395.72 L 112.26,391.49 L 116.01,391.94 L 120.73,389.26 L 133.55,376.39 L 137.05,376.45 L 141.18,371.21 L 147.30,368.99 L 147.42,361.15 L 168.99,352.80 L 181.31,354.63 L 194.11,365.69 Z" fill="#C8D8E8" stroke="#8BAABB" stroke-width="0.8"/>
<path d="M 214.66,156.75 L 214.75,243.84 L 188.26,244.23 L 182.67,247.99 L 184.19,255.83 L 175.29,263.77 L 175.82,267.66 L 166.50,271.01 L 168.45,277.45 L 171.94,280.33 L 162.06,284.55 L 157.90,288.62 L 163.64,298.90 L 154.60,304.35 L 150.00,311.38 L 153.77,314.94 L 158.82,314.69 L 161.77,312.54 L 168.94,315.60 L 166.77,319.01 L 170.08,325.89 L 169.31,328.99 L 173.91,328.01 L 171.80,338.16 L 178.65,343.46 L 182.91,343.63 L 183.13,350.75 L 181.31,354.63 L 168.99,352.80 L 147.42,361.15 L 147.30,368.99 L 141.18,371.21 L 137.05,376.45 L 133.55,376.39 L 120.73,389.26 L 116.01,391.94 L 112.26,391.49 L 109.09,395.72 L 67.01,399.25 L 62.48,402.38 L 70.05,406.40 L 54.13,420.87 L 25.86,422.32 L 1.02,432.50 L 0.00,431.94 L 0.00,74.61 L 214.66,156.75 Z" fill="#C8D8E8" stroke="#8BAABB" stroke-width="0.8"/>
<path d="M 529.21,13.05 L 547.01,41.30 L 557.41,50.33 L 564.70,53.23 L 566.30,55.10 L 558.01,53.37 L 557.11,54.74 L 557.28,64.45 L 559.01,66.83 L 563.41,77.48 L 569.08,82.01 L 579.21,84.33 L 585.57,90.76 L 599.14,97.46 L 598.79,99.09 L 436.58,99.09 L 438.26,94.99 L 436.22,93.75 L 431.01,99.12 L 244.43,99.09 L 244.43,0.00 L 518.23,0.00 L 529.21,13.05 Z M 549.02,80.85 L 561.20,72.70 L 555.49,76.42 L 549.02,80.85 Z M 537.59,84.98 L 538.60,83.29 L 536.08,87.46 L 537.59,84.98 Z M 533.24,92.11 L 525.52,93.24 L 517.33,94.56 L 533.24,92.11 Z" fill="#C8D8E8" stroke="#8BAABB" stroke-width="0.8"/>
<path d="M 776.98,315.25 L 774.70,319.79 L 771.30,321.39 L 765.27,317.78 L 762.41,318.94 L 756.62,312.78 L 749.52,309.48 L 742.53,300.90 L 727.06,292.41 L 716.37,281.11 L 694.68,272.80 L 688.36,273.71 L 677.13,270.45 L 667.99,273.40 L 665.59,269.66 L 662.08,268.53 L 657.81,272.16 L 644.73,273.93 L 638.85,267.87 L 632.22,266.84 L 628.79,263.26 L 618.74,281.12 L 611.00,273.00 L 605.85,273.84 L 604.04,277.17 L 594.75,275.89 L 588.15,277.47 L 585.13,257.40 L 591.17,250.20 L 592.45,243.80 L 600.89,230.99 L 598.57,225.56 L 602.24,217.98 L 601.46,212.90 L 614.26,213.65 L 617.02,207.14 L 633.18,201.69 L 634.30,203.27 L 635.58,201.75 L 638.97,202.21 L 649.93,191.16 L 662.17,210.52 L 670.55,239.05 L 674.80,241.75 L 675.42,248.38 L 679.99,248.95 L 683.10,258.31 L 685.95,258.66 L 687.24,256.48 L 684.82,251.47 L 687.85,248.85 L 693.95,252.62 L 692.36,255.01 L 696.31,260.89 L 700.10,262.48 L 706.83,260.08 L 712.24,262.88 L 714.38,267.51 L 726.32,268.86 L 741.48,284.93 L 750.21,287.11 L 754.28,291.78 L 757.78,293.84 L 756.61,291.22 L 759.70,293.37 L 762.41,301.49 L 767.01,301.26 L 772.84,305.86 L 774.37,310.04 L 778.74,311.47 L 780.91,308.92 L 784.39,313.36 L 776.98,315.25 Z M 703.29,247.28 L 690.94,246.49 L 689.70,244.28 L 693.99,245.23 L 689.49,243.42 L 692.68,241.14 L 690.11,239.86 L 695.63,241.88 L 696.44,245.62 L 699.51,244.25 L 703.29,247.28 Z M 694.98,237.74 L 691.27,237.00 L 693.07,234.94 L 694.98,237.74 Z" fill="#C8D8E8" stroke="#8BAABB" stroke-width="0.8"/>
<path d="M 522.64,370.68 L 521.26,362.79 L 530.05,355.44 L 535.39,360.05 L 537.90,359.01 L 541.47,354.99 L 541.05,346.92 L 544.88,340.10 L 544.87,333.87 L 552.16,329.15 L 563.18,314.48 L 575.90,313.50 L 576.56,305.87 L 584.13,292.80 L 588.15,277.47 L 594.75,275.89 L 604.04,277.17 L 605.85,273.84 L 611.00,273.00 L 618.74,281.12 L 628.79,263.26 L 632.22,266.84 L 638.85,267.87 L 644.73,273.93 L 657.81,272.16 L 662.08,268.53 L 665.59,269.66 L 667.99,273.40 L 677.13,270.45 L 688.36,273.71 L 694.68,272.80 L 716.37,281.11 L 727.06,292.41 L 742.53,300.90 L 749.52,309.48 L 756.62,312.78 L 762.41,318.94 L 744.93,336.51 L 744.00,352.85 L 749.25,354.38 L 769.44,350.70 L 778.61,352.79 L 770.38,361.25 L 776.01,371.03 L 782.90,377.62 L 786.46,378.53 L 793.36,389.38 L 799.38,391.13 L 800.00,391.56 L 800.00,494.17 L 796.62,494.84 L 784.43,499.32 L 783.70,500.00 L 568.92,500.00 L 565.08,494.55 L 566.65,483.85 L 556.68,481.25 L 551.27,482.56 L 550.51,479.38 L 545.64,476.83 L 541.95,471.28 L 533.88,452.32 L 528.56,450.75 L 527.93,447.58 L 521.29,445.51 L 518.34,441.19 L 513.94,439.27 L 513.13,435.59 L 504.48,429.89 L 484.90,426.64 L 482.86,423.89 L 488.67,418.72 L 487.98,413.64 L 490.16,411.46 L 501.63,411.35 L 505.22,413.51 L 515.62,409.14 L 515.04,388.42 L 522.64,370.68 Z" fill="#C8D8E8" stroke="#8BAABB" stroke-width="0.8"/>
<path d="M 244.30,145.22 L 214.66,145.23 L 214.66,156.75 L 0.00,74.61 L 0.00,0.00 L 244.39,0.00 L 244.30,145.22 Z" fill="#C8D8E8" stroke="#8BAABB" stroke-width="0.8"/>
<path d="M 564.72,498.54 L 563.92,500.00 L 561.06,500.00 L 560.89,499.95 L 558.25,496.25 L 559.70,493.40 L 554.50,492.89 L 554.96,490.49 L 550.02,491.61 L 524.28,499.95 L 524.22,500.00 L 383.18,500.00 L 380.00,499.02 L 377.70,498.81 L 376.60,500.00 L 327.46,500.00 L 326.94,496.32 L 319.85,492.98 L 312.41,485.19 L 312.30,477.86 L 308.22,473.45 L 299.14,470.55 L 297.87,468.54 L 287.41,466.45 L 289.91,463.38 L 282.80,457.37 L 286.01,453.05 L 277.48,448.96 L 275.54,445.12 L 255.71,437.30 L 250.66,433.48 L 249.91,431.67 L 253.31,429.83 L 251.45,425.11 L 246.75,424.37 L 239.04,417.82 L 219.77,414.64 L 219.30,411.85 L 222.68,408.60 L 220.48,405.60 L 231.84,401.52 L 235.47,390.29 L 238.81,386.90 L 238.93,380.01 L 244.28,376.59 L 247.28,369.22 L 269.65,366.16 L 271.94,371.65 L 293.39,387.82 L 306.93,384.91 L 331.18,385.17 L 335.65,391.26 L 359.43,391.42 L 361.51,386.70 L 378.46,381.33 L 382.35,377.81 L 382.40,374.49 L 394.23,369.59 L 416.63,382.20 L 428.51,381.28 L 443.41,370.89 L 451.69,360.71 L 466.21,350.87 L 463.77,345.67 L 463.76,336.54 L 455.84,329.70 L 475.62,329.63 L 475.18,324.71 L 489.39,324.84 L 485.64,338.94 L 487.33,358.78 L 494.52,360.94 L 510.46,371.81 L 512.14,379.18 L 509.40,387.39 L 515.04,388.42 L 516.26,407.52 L 512.06,411.70 L 505.55,413.47 L 501.63,411.35 L 490.16,411.46 L 487.98,413.64 L 488.67,418.72 L 482.86,423.89 L 484.90,426.64 L 504.48,429.89 L 513.13,435.59 L 513.94,439.27 L 518.34,441.19 L 521.29,445.51 L 527.93,447.58 L 528.56,450.75 L 533.88,452.32 L 541.95,471.28 L 545.64,476.83 L 550.51,479.38 L 551.27,482.56 L 556.68,481.25 L 566.65,483.85 L 565.08,494.55 L 570.12,499.97 L 564.72,498.54 Z" fill="#C8D8E8" stroke="#8BAABB" stroke-width="0.8"/>
<path d="M 184.07,346.97 L 182.91,343.63 L 178.65,343.46 L 171.80,338.16 L 173.91,328.01 L 169.31,328.99 L 170.08,325.89 L 166.77,319.01 L 168.94,315.60 L 161.77,312.54 L 158.82,314.69 L 153.77,314.94 L 150.00,311.38 L 154.60,304.35 L 163.64,298.90 L 157.90,288.62 L 162.06,284.55 L 171.94,280.33 L 168.45,277.45 L 166.50,271.01 L 175.82,267.66 L 175.29,263.77 L 184.19,255.83 L 182.67,247.99 L 188.26,244.23 L 214.75,243.84 L 214.66,145.23 L 244.41,145.08 L 244.43,99.09 L 431.01,99.12 L 436.22,93.75 L 438.26,94.99 L 436.58,99.09 L 488.56,99.09 L 499.86,105.70 L 512.91,104.35 L 515.44,99.09 L 598.79,99.09 L 598.91,107.06 L 611.57,120.73 L 609.75,121.92 L 609.09,119.11 L 605.38,117.27 L 609.04,132.09 L 607.46,137.07 L 609.51,154.91 L 615.18,171.39 L 618.32,174.75 L 622.34,174.17 L 624.82,176.77 L 629.80,177.77 L 635.65,181.73 L 634.29,183.24 L 636.54,185.52 L 641.14,184.20 L 638.49,186.25 L 643.68,186.10 L 650.00,190.95 L 638.97,202.21 L 635.58,201.75 L 634.30,203.27 L 633.18,201.69 L 617.02,207.14 L 614.26,213.65 L 601.46,212.90 L 602.24,217.98 L 598.57,225.56 L 600.89,230.99 L 592.45,243.80 L 591.17,250.20 L 585.13,257.40 L 588.15,277.47 L 584.13,292.80 L 576.56,305.87 L 576.16,313.05 L 563.18,314.48 L 552.16,329.15 L 544.87,333.87 L 544.88,340.10 L 541.05,346.92 L 541.47,354.99 L 537.90,359.01 L 535.39,360.05 L 530.05,355.44 L 521.26,362.79 L 522.64,370.68 L 515.04,388.42 L 509.40,387.39 L 512.14,379.18 L 510.46,371.81 L 494.52,360.94 L 487.33,358.78 L 485.64,338.94 L 489.39,324.84 L 475.18,324.71 L 475.62,329.63 L 455.84,329.70 L 463.76,336.54 L 463.77,345.67 L 466.21,350.87 L 451.69,360.71 L 443.41,370.89 L 428.51,381.28 L 416.63,382.20 L 394.23,369.59 L 382.40,374.49 L 382.35,377.81 L 378.46,381.33 L 361.51,386.70 L 359.43,391.42 L 335.65,391.26 L 331.18,385.17 L 306.93,384.91 L 293.39,387.82 L 271.94,371.65 L 269.65,366.16 L 247.28,369.22 L 244.28,376.59 L 238.93,380.01 L 238.81,386.90 L 235.47,390.29 L 231.84,401.52 L 218.61,406.25 L 200.04,405.07 L 202.34,399.49 L 198.42,398.47 L 199.56,394.97 L 204.27,392.50 L 204.64,378.99 L 194.11,365.69 L 181.31,354.63 L 184.07,346.97 Z M 610.69,125.92 L 609.82,127.83 L 609.50,126.58 L 610.69,125.92 Z" fill="#4A90D9" stroke="#1a5fa8" stroke-width="1.2"/>
<path d="M 610.36,333.93 L 605.84,332.96 L 604.83,334.23 L 601.99,332.34 L 602.70,325.75 L 606.34,323.20 L 609.72,324.90 L 617.09,322.68 L 620.14,327.11 L 619.33,330.13 L 613.76,338.19 L 611.00,337.44 L 610.36,333.93 Z" fill="#A8C8E8" stroke="none"/>
<path d="M 739.73,344.01 L 738.42,344.30 L 738.21,343.89 L 739.73,344.01 Z" fill="#A8C8E8" stroke="none"/>
<path d="M 664.17,414.56 L 661.40,414.11 L 661.75,413.00 L 665.08,410.99 L 664.17,414.56 Z" fill="#A8C8E8" stroke="none"/>
<path d="M 740.51,340.55 L 740.11,338.75 L 741.42,339.23 L 742.27,340.69 L 740.51,340.55 Z" fill="#A8C8E8" stroke="none"/>
<path d="M 569.36,269.25 L 569.55,261.97 L 570.99,265.08 L 569.36,269.25 Z" fill="#A8C8E8" stroke="none"/>
<path d="M 457.82,82.04 L 452.95,84.35 L 452.63,87.60 L 436.72,96.07 L 433.47,103.09 L 430.47,104.32 L 429.03,106.92 L 426.32,108.00 L 433.65,99.89 L 434.28,95.67 L 444.27,89.66 L 443.65,88.39 L 447.77,88.08 L 443.55,85.32 L 443.45,83.96 L 448.77,86.02 L 449.78,83.94 L 458.34,80.34 L 463.84,84.50 L 469.64,81.32 L 469.78,77.49 L 472.08,77.06 L 474.25,71.48 L 480.47,68.85 L 477.95,67.03 L 479.57,64.37 L 469.99,64.19 L 475.40,62.96 L 471.63,62.18 L 474.27,60.25 L 477.82,62.84 L 479.57,57.25 L 476.71,55.19 L 479.57,53.13 L 483.25,59.46 L 480.07,62.29 L 484.27,64.05 L 480.05,63.87 L 483.66,70.37 L 480.79,69.90 L 482.28,72.58 L 478.54,72.75 L 485.08,77.80 L 481.02,77.65 L 476.51,74.32 L 474.68,77.49 L 471.34,78.07 L 470.81,81.44 L 463.26,85.08 L 463.64,86.80 L 461.00,86.97 L 462.85,84.76 L 457.82,82.04 Z" fill="#A8C8E8" stroke="none"/>
<path d="M 523.54,335.27 L 526.75,334.33 L 526.68,339.12 L 536.08,345.93 L 522.74,339.06 L 523.54,335.27 Z" fill="#A8C8E8" stroke="none"/>
<path d="M 572.13,499.60 L 572.33,500.00 L 572.04,500.00 L 572.13,499.60 Z M 573.77,499.57 L 578.03,499.85 L 578.06,500.00 L 573.71,500.00 L 573.77,499.57 Z" fill="#A8C8E8" stroke="none"/>
<path d="M 636.16,454.40 L 635.67,457.74 L 627.56,466.97 L 622.65,467.88 L 623.31,465.42 L 628.32,463.54 L 628.22,456.32 L 632.02,453.89 L 636.16,454.40 Z" fill="#A8C8E8" stroke="none"/>
<path d="M 764.47,337.20 L 763.35,338.36 L 762.56,336.79 L 764.47,337.20 Z" fill="#A8C8E8" stroke="none"/>
<path d="M 601.31,499.50 L 600.38,500.00 L 595.09,500.00 L 596.30,495.09 L 598.71,496.26 L 601.77,493.80 L 601.31,499.50 Z" fill="#A8C8E8" stroke="none"/>
<path d="M 623.24,473.10 L 618.79,474.91 L 620.44,470.04 L 623.09,469.14 L 623.24,473.10 Z" fill="#A8C8E8" stroke="none"/>
<path d="M 747.60,348.00 L 744.33,350.93 L 741.58,348.54 L 745.11,346.36 L 747.60,348.00 Z" fill="#A8C8E8" stroke="none"/>
</svg>