<svg xmlns="http://www.w3.org/2000/svg" width="800" height="500" viewBox="0 0 800 500">
<rect width="800" height="500" fill="#A8C8E8"/>
<path d="M 629.78,499.68 L 632.17,497.39 L 629.07,492.35 L 643.04,493.23 L 658.72,486.50 L 711.46,485.39 L 764.44,489.32 L 768.90,493.20 L 785.18,493.16 L 786.01,496.04 L 790.49,492.62 L 799.66,493.88 L 800.00,493.75 L 800.00,500.00 L 630.39,500.00 L 629.78,499.68 Z" fill="#E8E0D0" stroke="#B8B0A0" stroke-width="0.5"/>
<path d="M 625.85,491.56 L 631.36,483.88 L 629.87,481.81 L 611.80,477.12 L 620.48,472.07 L 640.79,466.73 L 639.68,457.36 L 628.09,446.83 L 624.05,439.32 L 650.25,438.87 L 658.23,440.52 L 674.64,438.49 L 675.22,434.84 L 684.81,434.90 L 689.95,432.04 L 699.65,431.08 L 703.27,432.63 L 701.82,434.61 L 711.28,434.34 L 712.28,432.51 L 708.71,430.57 L 702.30,430.57 L 710.41,424.90 L 712.03,418.00 L 725.66,415.73 L 730.48,411.80 L 743.37,412.25 L 751.02,408.75 L 737.59,407.52 L 743.93,399.25 L 751.87,398.84 L 757.93,396.07 L 781.35,396.82 L 783.36,393.87 L 800.00,388.87 L 800.00,493.75 L 799.66,493.88 L 790.49,492.62 L 786.01,496.04 L 785.18,493.16 L 768.90,493.20 L 764.44,489.32 L 711.46,485.39 L 658.72,486.50 L 643.04,493.23 L 629.54,492.25 L 628.67,494.81 L 625.85,491.56 Z" fill="#E8E0D0" stroke="#B8B0A0" stroke-width="0.5"/>
<path d="M 737.59,407.52 L 751.02,408.75 L 743.37,412.25 L 730.48,411.80 L 725.66,415.73 L 712.03,418.00 L 710.41,424.90 L 702.30,430.57 L 708.71,430.57 L 712.28,432.51 L 711.28,434.34 L 701.82,434.61 L 703.27,432.63 L 699.65,431.08 L 689.95,432.04 L 684.81,434.90 L 675.22,434.84 L 673.96,438.62 L 658.23,440.52 L 650.25,438.87 L 629.47,440.26 L 624.05,439.32 L 623.61,435.35 L 619.03,432.95 L 594.23,428.33 L 594.00,422.36 L 599.65,419.28 L 588.81,413.46 L 570.10,414.36 L 543.21,408.37 L 539.10,409.32 L 538.70,406.55 L 535.88,407.08 L 537.39,403.10 L 534.49,399.48 L 531.17,396.93 L 530.90,390.44 L 536.15,390.17 L 541.40,386.96 L 570.76,382.54 L 592.67,384.11 L 602.56,382.66 L 607.84,385.13 L 616.50,383.56 L 632.52,383.98 L 649.07,386.21 L 662.19,385.94 L 677.11,381.96 L 684.85,387.57 L 707.40,388.88 L 731.07,397.99 L 743.12,399.73 L 737.59,407.52 Z M 525.97,408.54 L 532.01,403.61 L 532.12,398.45 L 532.92,405.36 L 525.97,408.54 Z" fill="#E8E0D0" stroke="#B8B0A0" stroke-width="0.5"/>
<path d="M 791.80,375.09 L 793.64,373.31 L 782.72,372.76 L 787.41,368.22 L 784.78,366.82 L 790.22,365.55 L 790.84,362.53 L 778.24,359.33 L 778.88,357.08 L 771.22,355.83 L 778.74,350.70 L 789.27,349.46 L 784.12,348.15 L 782.80,344.26 L 777.62,341.21 L 779.90,337.23 L 774.38,328.99 L 776.95,326.22 L 785.97,323.56 L 792.44,317.05 L 800.00,315.84 L 800.00,378.89 L 791.80,375.09 Z M 797.68,312.33 L 799.73,310.13 L 797.22,306.00 L 800.00,305.51 L 800.00,313.40 L 797.68,312.33 Z M 789.07,288.24 L 800.00,284.57 L 800.00,288.02 L 789.07,288.24 Z M 478.31,427.92 L 475.60,427.46 L 486.73,422.64 L 489.66,415.83 L 509.03,415.58 L 525.97,408.54 L 528.45,408.82 L 510.89,415.82 L 532.33,417.27 L 538.18,415.90 L 535.88,410.39 L 543.21,408.37 L 569.07,414.25 L 589.39,413.69 L 599.49,418.86 L 593.26,424.87 L 596.54,429.76 L 478.31,427.92 Z M 790.08,300.85 L 789.39,300.47 L 790.06,299.75 L 792.55,300.21 L 790.08,300.85 Z M 758.07,300.05 L 756.74,298.18 L 757.28,298.18 L 758.07,300.05 Z" fill="#E8E0D0" stroke="#B8B0A0" stroke-width="0.5"/>
<path d="M 0.04,460.88 L 0.11,455.22 L 2.41,453.52 L 6.70,453.90 L 0.00,453.04 L 0.00,446.02 L 1.32,445.57 L 32.16,444.61 L 37.39,448.16 L 33.91,450.10 L 38.82,451.43 L 43.03,449.96 L 39.81,448.80 L 41.33,446.80 L 52.10,448.38 L 49.73,449.69 L 50.28,452.63 L 52.63,448.31 L 49.58,444.79 L 53.46,440.89 L 77.33,440.86 L 91.56,447.29 L 101.12,448.38 L 91.61,446.81 L 84.39,441.80 L 79.13,440.55 L 68.67,440.28 L 66.04,439.36 L 62.88,437.09 L 69.15,437.23 L 69.96,435.68 L 62.09,433.79 L 67.85,430.65 L 56.94,431.76 L 53.93,430.18 L 69.70,426.33 L 57.34,421.08 L 56.27,417.39 L 78.61,419.56 L 91.47,418.08 L 100.81,420.59 L 105.55,420.07 L 108.26,421.86 L 104.86,422.49 L 109.05,422.65 L 108.59,425.10 L 101.43,427.04 L 113.05,426.66 L 115.37,427.36 L 112.99,430.49 L 119.75,427.77 L 135.57,430.82 L 151.05,429.08 L 148.41,429.71 L 148.41,433.71 L 136.38,436.78 L 142.11,438.81 L 152.56,437.51 L 163.39,440.08 L 172.27,434.37 L 187.53,433.48 L 187.67,435.31 L 188.56,435.68 L 188.33,433.73 L 204.60,426.74 L 219.44,427.99 L 208.06,428.24 L 204.34,429.40 L 200.95,429.05 L 198.28,431.76 L 210.23,428.51 L 216.89,429.73 L 222.79,427.89 L 226.86,431.51 L 240.98,435.83 L 249.72,433.95 L 253.41,435.53 L 251.03,437.09 L 257.16,439.23 L 253.81,440.72 L 253.75,441.30 L 270.89,443.62 L 268.90,444.61 L 277.67,455.07 L 273.91,459.72 L 266.29,461.76 L 265.50,464.26 L 285.45,470.53 L 281.64,474.99 L 288.04,478.34 L 287.04,480.98 L 289.92,481.99 L 283.19,488.24 L 288.81,491.58 L 287.95,494.51 L 297.35,496.68 L 299.21,500.00 L 0.00,500.00 L 0.00,460.94 L 0.04,460.88 Z M 268.45,440.72 L 254.63,441.36 L 258.14,440.23 L 257.10,438.03 L 262.61,439.28 L 262.72,437.81 L 258.69,436.40 L 252.10,437.40 L 253.67,435.61 L 251.29,434.42 L 253.67,433.95 L 268.80,439.34 L 268.45,440.72 Z M 1.58,444.12 L 5.94,444.27 L 0.00,444.72 L 0.00,444.57 L 1.58,444.12 Z M 8.11,443.96 L 9.34,444.16 L 8.79,444.32 L 8.11,443.96 Z M 36.79,443.90 L 38.46,444.16 L 36.74,444.47 L 36.79,443.90 Z M 15.89,443.37 L 16.68,443.63 L 10.77,444.07 L 15.89,443.37 Z M 18.94,442.94 L 23.79,442.89 L 21.32,443.40 L 18.94,442.94 Z M 25.39,442.86 L 27.04,442.59 L 29.26,442.90 L 25.39,442.86 Z M 162.20,437.40 L 164.93,437.40 L 163.39,438.81 L 160.25,438.34 L 162.20,437.40 Z M 166.31,435.98 L 169.45,435.36 L 166.52,436.62 L 166.31,435.98 Z M 64.97,427.19 L 62.09,426.88 L 63.30,426.02 L 67.85,425.93 L 64.97,427.19 Z M 157.89,428.45 L 146.08,427.19 L 150.50,425.65 L 157.89,428.45 Z M 227.01,424.49 L 224.81,427.19 L 226.38,424.27 L 227.01,424.49 Z M 251.81,430.02 L 250.15,431.55 L 246.09,430.65 L 248.92,429.87 L 241.59,430.02 L 236.23,431.61 L 238.05,432.70 L 226.88,430.18 L 232.68,429.08 L 228.47,428.15 L 232.92,426.88 L 227.95,425.49 L 233.86,426.02 L 236.60,424.52 L 235.82,425.93 L 241.88,426.74 L 242.40,424.85 L 239.36,425.16 L 236.60,423.90 L 232.16,424.99 L 233.70,423.21 L 231.30,422.96 L 237.42,422.16 L 238.72,424.52 L 248.14,424.95 L 244.50,427.11 L 251.81,430.02 Z M 45.60,423.28 L 46.33,423.42 L 42.12,422.64 L 45.60,423.28 Z M 53.70,421.39 L 46.07,421.55 L 47.69,420.78 L 53.70,421.39 Z M 45.83,417.44 L 56.02,417.45 L 42.72,418.10 L 41.85,420.92 L 42.37,417.02 L 45.27,414.21 L 46.88,413.52 L 48.71,413.85 L 45.83,417.44 Z M 57.73,425.13 L 57.80,425.38 L 54.66,426.64 L 57.73,425.13 Z M 27.10,433.84 L 26.36,433.48 L 26.92,433.47 L 27.10,433.84 Z M 28.27,433.45 L 28.41,433.58 L 27.80,433.64 L 28.27,433.45 Z" fill="#E8E0D0" stroke="#B8B0A0" stroke-width="0.5"/>
<path d="M 664.86,338.63 L 657.61,337.18 L 648.03,340.76 L 633.83,338.42 L 631.46,334.27 L 624.66,333.39 L 624.52,330.32 L 638.94,328.60 L 621.90,328.76 L 625.60,327.50 L 621.62,325.00 L 629.49,323.85 L 629.26,323.02 L 626.89,322.16 L 628.99,323.11 L 626.63,324.04 L 621.09,322.78 L 625.30,321.69 L 623.49,318.51 L 646.84,317.15 L 645.09,314.47 L 652.25,315.23 L 650.00,314.15 L 656.54,312.59 L 673.35,313.06 L 674.53,310.30 L 697.73,312.12 L 702.88,311.11 L 700.62,308.02 L 707.97,310.40 L 708.66,308.00 L 713.70,310.19 L 719.91,308.84 L 756.27,313.06 L 792.10,314.03 L 797.68,312.33 L 800.00,313.22 L 800.00,315.58 L 792.44,317.05 L 785.97,323.56 L 776.95,326.22 L 774.38,328.99 L 779.90,337.23 L 777.62,341.21 L 782.80,344.26 L 784.12,348.15 L 789.27,349.46 L 778.74,350.70 L 771.22,355.83 L 772.17,357.10 L 753.78,354.82 L 739.49,357.37 L 721.30,351.45 L 720.91,349.88 L 705.09,348.29 L 692.84,344.60 L 690.96,346.62 L 685.66,344.74 L 655.48,349.30 L 664.86,338.63 Z M 642.04,342.80 L 644.27,342.76 L 643.85,343.79 L 642.04,342.80 Z M 618.22,335.83 L 611.45,335.34 L 594.85,341.12 L 578.46,341.86 L 574.93,346.42 L 569.01,348.23 L 565.75,346.65 L 574.93,342.89 L 561.17,339.55 L 567.58,338.17 L 560.73,334.57 L 566.99,334.54 L 570.58,336.61 L 574.34,333.84 L 577.62,334.78 L 578.20,333.24 L 588.23,331.86 L 602.47,332.14 L 618.22,335.83 Z M 614.45,334.03 L 607.73,332.46 L 613.03,330.69 L 620.07,332.99 L 614.45,334.03 Z M 616.91,324.04 L 609.82,322.87 L 611.97,322.32 L 619.40,322.71 L 616.91,324.04 Z M 568.87,324.83 L 584.89,324.04 L 592.69,321.42 L 602.93,323.74 L 607.01,327.02 L 599.53,328.49 L 596.94,327.39 L 588.44,330.54 L 584.89,329.87 L 583.62,326.75 L 568.87,324.83 Z M 664.82,310.59 L 664.54,310.82 L 662.49,310.55 L 664.82,310.59 Z M 615.80,351.19 L 613.79,350.84 L 614.04,350.32 L 615.80,351.19 Z" fill="#E8E0D0" stroke="#B8B0A0" stroke-width="0.5"/>
<path d="M 778.88,357.08 L 778.24,359.33 L 790.84,362.53 L 790.22,365.55 L 784.78,366.82 L 787.41,368.22 L 782.72,372.76 L 793.64,373.31 L 791.80,375.09 L 800.00,378.76 L 800.00,389.08 L 794.16,389.60 L 783.36,393.87 L 781.35,396.82 L 757.93,396.07 L 751.87,398.84 L 738.78,399.47 L 707.40,388.88 L 684.85,387.57 L 677.11,381.96 L 662.19,385.94 L 649.07,386.21 L 632.52,383.98 L 616.50,383.56 L 607.84,385.13 L 602.56,382.66 L 592.67,384.11 L 570.76,382.54 L 541.40,386.96 L 536.15,390.17 L 530.90,390.44 L 527.84,386.79 L 529.10,380.19 L 531.91,382.87 L 528.56,379.53 L 530.87,373.11 L 543.50,368.99 L 545.46,362.17 L 556.80,356.05 L 585.68,352.18 L 590.53,351.90 L 592.28,355.77 L 610.44,360.70 L 615.45,366.93 L 632.08,369.94 L 641.95,368.89 L 659.10,363.28 L 655.48,349.30 L 685.66,344.74 L 690.36,346.62 L 692.84,344.60 L 705.09,348.29 L 720.91,349.88 L 721.30,351.45 L 739.49,357.37 L 753.78,354.82 L 778.88,357.08 Z" fill="#E8E0D0" stroke="#B8B0A0" stroke-width="0.5"/>
<path d="M 494.47,93.75 L 503.62,96.32 L 504.21,98.73 L 499.62,102.07 L 489.11,104.77 L 499.97,106.23 L 489.45,109.12 L 430.66,104.02 L 420.14,105.02 L 421.18,112.62 L 410.93,117.79 L 387.97,114.76 L 367.34,119.53 L 359.85,125.74 L 342.22,130.39 L 354.13,135.49 L 353.27,138.87 L 315.38,151.74 L 317.51,156.69 L 301.10,159.48 L 281.46,160.12 L 285.61,167.52 L 282.23,169.84 L 280.45,178.61 L 247.07,195.43 L 264.47,198.15 L 266.42,204.94 L 259.39,208.60 L 221.78,207.47 L 210.27,209.81 L 190.68,218.02 L 192.58,220.86 L 183.87,225.11 L 192.69,231.69 L 187.73,233.85 L 190.14,237.83 L 187.65,241.20 L 196.19,248.08 L 190.35,260.94 L 218.17,269.54 L 211.11,276.49 L 193.86,277.51 L 207.34,290.86 L 202.99,293.30 L 202.67,298.60 L 189.66,302.79 L 178.40,303.38 L 180.22,307.01 L 171.71,309.46 L 176.94,317.65 L 171.30,325.20 L 163.17,325.75 L 160.77,321.52 L 152.84,320.71 L 152.62,318.86 L 147.10,320.44 L 135.83,318.40 L 137.40,316.20 L 133.37,316.14 L 130.22,313.50 L 134.00,312.36 L 129.01,306.73 L 132.66,303.74 L 135.05,306.46 L 136.38,303.00 L 133.94,302.48 L 125.77,303.89 L 131.10,309.45 L 128.34,311.10 L 124.28,311.49 L 122.79,307.61 L 116.15,306.79 L 122.08,308.29 L 122.15,311.10 L 116.65,310.54 L 125.85,313.53 L 124.58,315.38 L 127.25,316.43 L 121.38,317.15 L 119.31,322.00 L 116.15,320.75 L 115.49,322.99 L 101.67,324.39 L 99.20,322.20 L 89.90,320.61 L 96.99,323.74 L 80.70,326.08 L 79.63,327.19 L 86.51,327.19 L 81.00,329.36 L 71.98,329.30 L 77.54,330.18 L 65.94,332.38 L 65.79,334.80 L 35.67,343.94 L 31.90,343.05 L 34.02,342.57 L 32.09,341.13 L 29.28,344.14 L 14.83,345.88 L 2.23,344.94 L 0.00,345.30 L 0.00,275.34 L 9.34,275.23 L 5.92,274.28 L 19.28,272.23 L 7.54,273.01 L 4.61,270.96 L 14.57,266.43 L 2.76,268.48 L 4.35,269.57 L 1.84,270.74 L 6.44,273.17 L 4.35,273.81 L 0.00,274.19 L 0.00,248.80 L 8.55,249.15 L 0.00,248.19 L 0.00,240.48 L 13.44,243.10 L 22.46,241.47 L 12.01,241.66 L 8.68,240.13 L 12.58,241.24 L 12.70,239.19 L 24.68,237.86 L 36.61,238.78 L 33.75,236.76 L 6.44,238.64 L 18.75,236.44 L 4.63,237.59 L 0.00,237.74 L 0.00,235.97 L 0.92,235.97 L 0.00,235.81 L 0.00,231.69 L 1.76,231.39 L 11.85,233.77 L 19.08,232.16 L 22.55,232.35 L 19.25,233.74 L 33.85,232.85 L 36.87,235.97 L 51.84,239.58 L 51.79,238.13 L 38.01,235.21 L 36.61,232.84 L 26.26,231.49 L 34.28,229.21 L 43.60,232.33 L 43.57,234.46 L 57.88,235.80 L 46.88,232.67 L 56.57,232.20 L 45.28,232.34 L 43.20,231.73 L 48.97,231.26 L 40.09,231.14 L 37.30,229.08 L 55.51,229.21 L 52.63,228.03 L 67.08,226.87 L 54.85,227.11 L 49.20,224.99 L 60.24,223.72 L 56.71,222.07 L 64.70,222.61 L 69.96,221.04 L 74.95,223.11 L 72.84,224.99 L 85.90,223.01 L 75.74,222.07 L 87.72,220.88 L 87.67,220.57 L 74.95,220.59 L 91.21,219.33 L 88.05,218.22 L 96.03,216.96 L 106.05,221.93 L 101.17,224.19 L 108.07,223.43 L 117.48,225.60 L 117.74,224.12 L 109.12,222.41 L 142.34,221.27 L 136.62,219.87 L 142.89,217.92 L 132.70,219.01 L 142.24,216.04 L 163.39,213.63 L 149.55,211.34 L 164.93,208.34 L 155.59,207.95 L 159.72,206.13 L 157.35,206.36 L 129.53,213.19 L 148.00,211.99 L 142.41,214.98 L 106.80,220.42 L 99.86,215.87 L 107.55,215.14 L 111.44,214.14 L 90.10,216.48 L 90.43,215.09 L 99.06,214.14 L 90.17,213.98 L 115.10,210.23 L 105.12,209.74 L 108.08,206.09 L 114.91,206.49 L 111.68,206.13 L 114.06,204.26 L 121.90,204.57 L 116.96,203.46 L 126.37,202.05 L 125.59,200.64 L 128.98,201.27 L 126.89,200.33 L 132.41,200.64 L 126.06,199.11 L 139.54,200.36 L 132.70,198.45 L 144.20,197.66 L 142.65,195.47 L 144.75,195.01 L 152.09,198.60 L 158.94,198.92 L 155.33,201.35 L 161.55,198.45 L 170.99,197.81 L 162.62,198.14 L 165.24,196.25 L 175.72,195.14 L 165.65,195.69 L 161.03,192.62 L 178.10,190.60 L 170.49,189.96 L 176.01,189.66 L 170.73,189.49 L 174.41,188.56 L 192.77,187.29 L 180.77,187.06 L 155.85,191.99 L 162.31,190.12 L 155.54,189.62 L 165.92,189.05 L 172.56,187.91 L 155.25,189.17 L 156.09,188.88 L 183.33,184.33 L 191.59,186.02 L 191.55,184.75 L 208.52,182.89 L 219.81,178.74 L 203.41,182.58 L 198.28,182.43 L 203.28,181.32 L 197.76,180.70 L 211.43,180.08 L 193.55,180.55 L 203.28,177.41 L 210.64,178.35 L 202.49,175.67 L 211.43,177.41 L 208.26,176.00 L 214.04,175.37 L 207.46,175.37 L 209.32,174.89 L 205.78,174.13 L 206.15,172.38 L 203.83,174.17 L 204.60,172.54 L 200.94,173.79 L 197.76,172.06 L 203.13,169.10 L 207.46,170.98 L 214.30,171.28 L 205.52,168.63 L 211.64,167.82 L 207.58,166.78 L 210.29,164.67 L 216.65,163.75 L 229.20,166.30 L 227.16,164.29 L 219.56,163.13 L 224.00,161.08 L 209.83,161.55 L 242.65,157.49 L 244.54,157.97 L 241.33,158.73 L 244.76,158.73 L 242.98,160.46 L 253.92,159.62 L 245.80,158.73 L 266.27,155.34 L 224.00,158.88 L 242.93,155.90 L 234.36,154.41 L 235.39,155.48 L 231.13,156.18 L 223.88,155.66 L 222.46,154.81 L 227.86,154.14 L 226.38,152.59 L 228.73,152.29 L 221.38,151.03 L 226.38,150.56 L 231.09,152.59 L 236.32,152.55 L 232.40,151.03 L 248.16,151.18 L 240.03,150.07 L 250.27,149.13 L 231.61,150.43 L 232.03,148.93 L 237.91,148.67 L 228.99,148.05 L 229.78,147.72 L 243.42,148.37 L 231.09,146.63 L 249.00,147.15 L 256.55,146.15 L 244.50,146.63 L 251.29,145.54 L 241.88,145.07 L 260.49,144.90 L 243.28,141.87 L 259.71,140.20 L 256.55,141.14 L 258.25,141.86 L 259.19,141.75 L 263.05,138.69 L 266.56,140.73 L 269.44,140.46 L 271.18,138.71 L 282.52,139.66 L 271.00,138.16 L 274.66,136.42 L 289.49,137.24 L 280.44,135.95 L 283.88,135.40 L 298.26,135.17 L 294.87,136.58 L 298.82,137.81 L 296.44,136.58 L 302.68,135.19 L 318.26,138.47 L 313.48,135.48 L 327.41,136.11 L 301.45,134.40 L 305.38,132.97 L 286.56,135.11 L 284.39,135.17 L 287.55,133.76 L 273.33,134.54 L 284.62,130.44 L 292.34,131.41 L 300.93,129.84 L 292.26,129.84 L 288.59,128.88 L 301.31,126.85 L 305.14,127.80 L 299.37,127.17 L 299.46,128.92 L 292.52,129.20 L 299.70,129.34 L 306.44,128.26 L 304.33,130.45 L 315.49,129.01 L 324.27,133.76 L 319.30,129.37 L 333.45,127.32 L 308.22,127.95 L 309.61,126.48 L 316.91,126.85 L 305.89,125.91 L 310.59,123.58 L 319.81,124.65 L 324.27,124.49 L 314.55,123.24 L 321.92,122.92 L 329.68,124.52 L 331.10,124.18 L 323.21,122.61 L 325.58,121.83 L 314.81,121.83 L 315.63,120.36 L 306.03,123.71 L 292.78,125.36 L 288.59,124.97 L 294.34,124.04 L 291.13,123.38 L 303.54,123.08 L 290.36,121.38 L 303.00,120.58 L 293.30,120.72 L 299.01,119.56 L 307.99,120.10 L 306.68,121.04 L 317.56,119.05 L 319.45,120.55 L 327.87,118.27 L 332.00,119.47 L 339.77,116.80 L 332.66,115.54 L 329.28,116.38 L 322.13,116.29 L 319.95,115.46 L 314.31,117.28 L 309.85,116.33 L 323.71,113.30 L 327.30,114.81 L 322.70,115.08 L 323.12,115.95 L 331.40,114.96 L 336.58,111.44 L 341.34,113.50 L 338.96,116.48 L 344.74,117.59 L 346.43,119.84 L 355.92,121.80 L 347.64,119.70 L 345.29,117.11 L 355.23,119.47 L 350.13,117.11 L 354.65,118.02 L 358.12,118.06 L 352.26,115.81 L 363.74,115.54 L 348.43,115.08 L 346.59,114.14 L 359.96,113.34 L 343.95,112.50 L 350.98,111.69 L 341.31,110.68 L 348.15,110.12 L 368.11,114.14 L 359.09,110.84 L 345.78,109.12 L 380.53,108.63 L 388.32,111.31 L 388.45,113.34 L 391.74,111.76 L 384.20,109.39 L 385.15,107.87 L 409.05,108.16 L 393.57,106.91 L 396.59,105.02 L 377.44,107.22 L 379.18,106.15 L 375.19,105.49 L 357.84,107.13 L 355.15,105.48 L 361.14,104.95 L 360.22,102.75 L 374.15,101.03 L 381.35,102.68 L 379.51,101.35 L 385.24,100.58 L 401.68,102.04 L 384.63,99.85 L 393.31,98.49 L 405.64,100.02 L 393.57,98.12 L 407.29,96.69 L 391.98,96.56 L 400.89,91.58 L 419.79,90.73 L 413.52,88.87 L 419.27,86.18 L 420.02,83.73 L 425.48,83.11 L 427.93,85.29 L 432.61,85.50 L 433.20,88.87 L 435.59,85.90 L 440.45,88.22 L 442.11,86.83 L 452.75,87.68 L 431.37,83.85 L 432.12,82.43 L 446.61,81.60 L 452.81,85.16 L 466.79,86.88 L 459.05,88.45 L 470.53,89.20 L 468.71,86.43 L 456.83,85.41 L 451.97,83.19 L 462.32,82.27 L 461.04,81.25 L 452.88,82.01 L 450.12,80.16 L 461.79,76.45 L 482.29,75.83 L 478.08,78.64 L 480.11,79.54 L 477.16,83.73 L 472.56,85.09 L 478.62,84.07 L 480.72,80.22 L 492.86,80.99 L 494.87,80.85 L 485.11,79.89 L 483.83,77.95 L 490.79,74.95 L 490.82,76.65 L 496.98,72.67 L 498.49,74.58 L 501.76,72.01 L 506.84,74.16 L 502.76,78.64 L 505.21,80.54 L 487.37,88.09 L 501.16,85.27 L 509.03,81.02 L 523.23,82.90 L 509.41,79.89 L 511.30,78.10 L 509.03,76.77 L 520.63,75.89 L 520.87,74.11 L 532.40,72.53 L 524.79,74.72 L 529.64,76.20 L 535.38,74.20 L 533.71,75.67 L 535.72,75.48 L 536.87,73.47 L 541.34,73.47 L 536.87,72.84 L 539.96,70.86 L 550.23,71.59 L 552.17,73.36 L 570.91,77.08 L 563.92,75.04 L 567.85,74.89 L 563.84,72.60 L 569.16,72.76 L 571.51,70.65 L 559.43,70.49 L 570.96,68.59 L 556.41,69.96 L 536.87,66.57 L 545.68,65.17 L 547.61,66.57 L 550.03,63.99 L 562.33,67.98 L 559.71,65.45 L 566.65,63.94 L 571.17,64.38 L 571.64,66.00 L 578.87,64.76 L 577.67,68.24 L 588.58,68.45 L 579.64,67.51 L 582.50,65.43 L 604.19,66.59 L 599.20,68.59 L 583.80,69.31 L 578.07,70.34 L 600.37,68.92 L 606.16,67.98 L 606.22,70.47 L 610.37,70.57 L 609.07,72.37 L 618.09,72.53 L 626.11,70.79 L 612.18,69.23 L 619.98,68.52 L 616.91,67.51 L 621.62,66.87 L 614.80,66.40 L 625.83,65.76 L 617.44,65.46 L 628.99,64.37 L 623.21,64.05 L 625.11,62.97 L 640.61,59.67 L 657.17,60.89 L 647.69,58.94 L 657.25,55.51 L 671.46,57.12 L 668.88,55.09 L 653.14,53.37 L 658.91,51.48 L 668.09,53.48 L 667.24,51.66 L 671.52,51.34 L 665.74,49.92 L 669.26,48.95 L 675.18,50.54 L 683.33,49.09 L 678.84,51.34 L 687.94,50.28 L 691.46,53.22 L 697.08,51.08 L 696.03,48.98 L 702.58,50.20 L 698.97,52.07 L 717.51,51.56 L 684.87,59.81 L 691.47,59.25 L 684.35,60.13 L 693.05,60.90 L 691.88,62.49 L 685.16,63.11 L 689.76,64.31 L 681.28,66.09 L 679.88,69.00 L 682.22,69.88 L 682.52,68.28 L 685.68,67.82 L 686.41,69.46 L 691.73,69.03 L 702.75,64.52 L 698.95,63.51 L 743.85,49.60 L 748.13,50.09 L 746.82,54.48 L 733.44,56.50 L 745.52,56.67 L 739.73,63.03 L 751.46,60.35 L 762.56,60.58 L 757.62,58.39 L 768.86,57.94 L 762.48,56.66 L 764.66,55.73 L 762.89,54.65 L 771.27,54.32 L 771.06,52.48 L 782.77,52.90 L 763.78,49.58 L 772.02,49.76 L 768.35,47.83 L 779.88,49.46 L 778.74,46.73 L 783.55,45.52 L 786.29,47.07 L 800.00,46.61 L 800.00,53.16 L 787.76,53.22 L 800.00,54.31 L 800.00,54.80 L 783.55,57.45 L 800.00,56.00 L 800.00,57.72 L 791.18,60.28 L 792.49,61.54 L 800.00,60.42 L 800.00,60.80 L 798.52,61.16 L 800.00,61.19 L 800.00,69.08 L 797.48,69.71 L 800.00,69.32 L 800.00,72.10 L 791.85,69.62 L 762.50,73.60 L 740.80,73.06 L 727.95,77.87 L 720.55,78.46 L 710.29,89.26 L 712.53,94.41 L 706.10,97.14 L 689.76,98.55 L 687.13,102.33 L 678.42,104.41 L 641.03,98.47 L 613.02,103.01 L 582.83,100.83 L 581.38,98.32 L 553.32,88.04 L 532.62,88.77 L 530.14,90.11 L 534.84,92.25 L 531.59,93.42 L 519.06,91.87 L 514.42,93.42 L 494.47,93.75 Z M 291.23,111.53 L 296.76,110.25 L 297.26,110.81 L 291.23,111.53 Z M 271.03,110.69 L 262.30,110.01 L 265.25,109.44 L 271.03,110.69 Z M 266.84,111.32 L 252.10,113.51 L 254.86,114.41 L 249.23,115.56 L 239.95,115.54 L 245.02,113.51 L 240.81,114.14 L 240.81,112.89 L 246.05,111.98 L 241.61,111.62 L 246.84,110.42 L 260.11,109.44 L 266.84,111.32 Z M 283.90,104.37 L 299.06,104.46 L 294.92,105.83 L 283.90,104.37 Z M 26.62,229.44 L 27.69,229.85 L 18.75,230.46 L 26.62,229.44 Z M 19.71,231.57 L 12.82,232.96 L 6.70,231.80 L 8.03,230.32 L 14.31,231.26 L 15.07,229.06 L 19.71,231.57 Z M 38.18,228.12 L 28.22,227.65 L 33.94,226.20 L 38.18,228.12 Z M 52.63,227.65 L 41.08,226.40 L 47.38,225.13 L 52.63,227.65 Z M 30.86,223.88 L 22.46,222.30 L 33.66,220.88 L 37.92,222.78 L 34.28,224.19 L 27.69,223.88 L 30.86,223.88 Z M 50.25,221.78 L 41.60,221.04 L 61.15,217.06 L 67.92,216.69 L 68.81,218.14 L 74.57,218.72 L 50.25,221.78 Z M 41.37,216.03 L 61.81,213.04 L 62.58,214.91 L 41.37,216.03 Z M 163.15,197.02 L 152.76,197.19 L 150.79,196.08 L 153.20,195.17 L 147.29,194.74 L 149.14,193.87 L 163.15,197.02 Z M 146.08,188.23 L 139.23,189.34 L 149.74,186.98 L 156.06,188.34 L 147.62,189.34 L 149.35,188.16 L 146.08,188.23 Z M 134.79,189.02 L 150.26,186.52 L 141.99,188.00 L 134.79,189.02 Z M 196.00,183.37 L 190.15,184.63 L 183.35,184.00 L 190.56,181.07 L 194.56,182.13 L 192.77,183.07 L 196.00,183.37 Z M 203.56,176.78 L 186.21,180.86 L 192.25,177.25 L 190.32,176.83 L 196.74,175.20 L 191.72,175.05 L 194.06,172.74 L 203.56,176.78 Z M 180.97,172.38 L 174.94,171.75 L 177.43,170.02 L 184.35,170.10 L 180.97,172.38 Z M 218.77,162.65 L 198.28,165.47 L 202.97,163.21 L 218.77,162.65 Z M 204.59,161.60 L 195.42,162.65 L 206.15,159.36 L 200.66,159.19 L 205.28,157.94 L 207.59,159.40 L 205.11,159.99 L 209.32,160.61 L 204.59,161.60 Z M 268.12,140.00 L 264.59,138.67 L 260.49,138.30 L 271.24,136.28 L 268.12,140.00 Z M 228.47,115.22 L 224.38,116.61 L 227.20,118.45 L 221.57,117.87 L 222.98,119.94 L 214.30,121.52 L 224.55,114.92 L 228.47,115.22 Z M 239.22,114.28 L 236.48,116.88 L 229.07,116.96 L 231.62,115.06 L 235.03,115.72 L 233.20,114.21 L 239.22,114.28 Z M 288.93,111.33 L 290.42,109.89 L 288.28,109.43 L 284.31,112.02 L 268.36,113.67 L 274.40,111.62 L 270.45,111.45 L 273.33,111.15 L 272.38,110.02 L 279.74,110.16 L 275.45,108.63 L 289.90,107.23 L 292.26,107.78 L 290.77,109.05 L 305.66,106.76 L 288.93,111.33 Z M 352.62,107.70 L 340.99,108.06 L 345.85,105.17 L 353.55,105.90 L 352.62,107.70 Z M 381.24,99.52 L 368.63,100.32 L 375.69,97.50 L 381.24,99.52 Z M 387.90,96.13 L 392.52,97.33 L 384.22,99.00 L 378.85,96.23 L 386.47,97.50 L 383.56,96.70 L 387.90,96.13 Z M 359.45,100.96 L 356.41,104.48 L 341.41,104.83 L 335.09,108.46 L 332.62,108.71 L 332.41,105.82 L 322.97,110.28 L 311.41,109.12 L 322.47,106.29 L 320.26,105.46 L 315.88,107.58 L 302.34,110.95 L 298.55,110.99 L 306.43,107.20 L 312.72,106.60 L 308.28,106.29 L 311.96,105.97 L 305.89,105.18 L 307.38,104.41 L 323.21,103.14 L 315.86,100.96 L 326.39,101.10 L 316.50,99.55 L 323.49,98.27 L 320.07,97.64 L 323.75,95.29 L 333.81,95.19 L 332.41,99.06 L 328.22,100.32 L 336.96,99.68 L 328.72,102.68 L 327.41,105.02 L 331.94,102.64 L 340.54,102.53 L 338.63,100.87 L 345.52,100.32 L 341.08,98.12 L 348.23,97.92 L 347.11,96.47 L 358.65,98.27 L 356.29,99.06 L 359.45,100.96 Z M 359.84,96.61 L 355.60,96.87 L 347.38,94.98 L 359.04,94.98 L 359.84,96.61 Z M 281.51,100.32 L 277.54,99.85 L 279.46,98.95 L 281.75,98.75 L 282.67,100.07 L 284.65,100.32 L 284.83,98.15 L 287.05,99.81 L 295.50,99.75 L 297.24,97.33 L 299.29,98.98 L 300.96,97.63 L 305.14,98.44 L 299.41,95.10 L 302.29,94.00 L 308.28,96.23 L 306.16,96.87 L 310.36,96.39 L 308.28,98.27 L 313.76,97.64 L 309.59,98.91 L 314.15,100.42 L 313.43,101.82 L 301.46,103.91 L 291.64,103.06 L 305.38,101.10 L 304.85,99.85 L 286.76,100.96 L 280.70,103.21 L 275.97,102.04 L 281.51,100.32 Z M 315.58,96.91 L 315.34,95.12 L 320.87,91.84 L 343.10,87.59 L 340.27,90.73 L 331.53,93.59 L 319.30,94.04 L 319.30,96.23 L 315.58,96.91 Z M 417.44,86.05 L 411.01,86.64 L 412.71,88.23 L 409.31,88.54 L 413.51,89.96 L 393.74,89.67 L 380.61,93.99 L 377.26,93.87 L 379.86,92.32 L 366.97,92.24 L 382.26,89.65 L 371.77,89.79 L 371.01,89.17 L 378.98,89.01 L 381.24,88.38 L 372.06,87.43 L 380.71,87.13 L 371.01,86.02 L 372.84,85.24 L 390.95,85.87 L 386.47,84.77 L 394.64,84.44 L 384.96,83.84 L 382.80,82.74 L 390.67,83.21 L 388.80,81.94 L 400.37,83.68 L 393.57,80.52 L 400.85,82.61 L 400.89,80.52 L 404.50,81.87 L 408.56,80.81 L 407.48,83.99 L 411.81,82.27 L 415.89,82.90 L 411.68,84.44 L 416.67,84.22 L 417.44,86.05 Z M 454.45,76.77 L 444.37,78.78 L 445.99,80.41 L 443.42,81.16 L 421.39,82.10 L 413.78,80.69 L 429.28,79.58 L 422.17,77.89 L 438.19,78.17 L 427.43,77.53 L 428.60,75.98 L 433.20,77.08 L 438.97,75.83 L 439.36,77.92 L 443.16,78.50 L 444.20,76.30 L 439.96,73.96 L 454.45,76.77 Z M 555.74,72.38 L 557.05,72.53 L 555.50,73.00 L 555.74,72.38 Z M 488.56,70.73 L 490.40,70.96 L 488.64,71.12 L 488.56,70.73 Z M 532.66,71.11 L 524.72,72.77 L 519.68,71.35 L 532.66,71.11 Z M 530.64,70.45 L 527.14,70.79 L 528.54,70.17 L 530.64,70.45 Z M 478.42,71.67 L 472.94,72.45 L 466.61,75.39 L 456.91,76.21 L 441.87,72.54 L 460.23,69.09 L 467.29,71.53 L 478.42,71.67 Z M 513.63,70.34 L 513.24,68.92 L 505.49,68.99 L 507.32,67.07 L 518.66,65.92 L 522.13,66.54 L 520.08,68.70 L 513.63,70.34 Z M 496.46,68.76 L 481.98,69.80 L 472.83,65.62 L 478.21,64.69 L 483.49,67.46 L 486.39,66.45 L 496.46,68.76 Z M 606.08,65.52 L 581.47,63.74 L 592.99,62.21 L 594.51,63.63 L 596.12,62.30 L 606.08,65.52 Z M 628.15,61.83 L 613.74,64.87 L 608.60,64.43 L 610.61,61.85 L 606.94,63.53 L 599.86,62.01 L 614.01,59.49 L 612.18,58.80 L 615.49,59.06 L 616.12,60.43 L 617.24,58.73 L 626.11,58.86 L 620.43,57.19 L 627.42,57.30 L 630.58,59.81 L 628.15,61.83 Z M 647.64,57.86 L 636.25,59.59 L 630.03,57.61 L 631.89,56.05 L 629.79,55.49 L 636.69,54.14 L 647.64,57.86 Z M 573.07,60.52 L 579.92,57.30 L 565.25,56.50 L 583.06,57.00 L 581.88,55.09 L 587.88,54.91 L 594.92,57.52 L 598.80,56.50 L 594.84,54.20 L 604.27,56.20 L 612.44,54.48 L 607.99,52.73 L 618.05,53.49 L 618.57,51.50 L 624.00,53.05 L 611.53,55.44 L 608.86,57.91 L 573.07,60.52 Z M 653.14,49.45 L 645.41,50.40 L 640.28,49.45 L 645.24,48.98 L 639.38,48.52 L 652.36,48.51 L 646.55,49.29 L 653.14,49.45 Z M 728.71,47.71 L 723.13,49.00 L 703.25,50.09 L 698.00,48.82 L 703.53,48.04 L 693.26,47.79 L 700.12,46.08 L 709.57,47.24 L 703.25,45.21 L 707.61,44.65 L 712.98,44.90 L 712.91,46.24 L 721.49,45.77 L 716.13,47.24 L 718.68,48.39 L 728.71,47.71 Z M 215.75,158.04 L 210.97,157.42 L 214.56,155.86 L 217.68,156.45 L 215.75,158.04 Z M 218.59,154.86 L 214.83,154.18 L 215.46,152.85 L 220.19,152.45 L 218.59,154.86 Z M 308.77,119.08 L 305.30,119.21 L 297.57,118.51 L 303.11,117.15 L 304.41,118.12 L 310.38,118.42 L 308.77,119.08 Z M 332.91,117.53 L 317.53,117.11 L 321.04,116.58 L 334.68,116.98 L 332.91,117.53 Z M 307.88,116.33 L 310.03,117.70 L 306.13,117.93 L 307.88,116.33 Z M 297.46,97.11 L 292.93,96.74 L 295.21,95.84 L 297.46,97.11 Z M 517.62,75.53 L 510.73,75.44 L 512.11,73.73 L 517.48,73.89 L 517.62,75.53 Z M 485.06,71.96 L 479.85,74.45 L 468.89,75.00 L 485.06,71.96 Z M 441.58,68.69 L 451.32,69.66 L 440.83,71.70 L 441.58,68.69 Z M 522.17,69.67 L 520.93,68.62 L 523.38,68.03 L 524.80,69.52 L 522.17,69.67 Z M 465.99,68.75 L 465.08,68.42 L 467.88,67.63 L 472.89,69.20 L 465.99,68.75 Z M 458.93,68.71 L 452.10,67.86 L 458.70,65.51 L 461.54,66.74 L 458.93,68.71 Z M 559.25,63.94 L 555.78,65.35 L 555.07,63.01 L 559.25,63.94 Z M 149.01,321.82 L 147.63,322.76 L 145.53,322.60 L 149.01,321.82 Z M 141.41,321.72 L 139.31,321.09 L 140.32,320.73 L 141.41,321.72 Z M 38.99,228.03 L 37.29,226.83 L 39.96,226.63 L 43.01,227.57 L 38.99,228.03 Z M 72.18,217.68 L 69.79,217.37 L 71.47,216.58 L 75.39,216.88 L 72.18,217.68 Z M 103.43,208.88 L 101.57,208.05 L 103.29,207.69 L 103.43,208.88 Z M 162.44,196.39 L 159.05,195.67 L 159.89,194.28 L 163.69,195.35 L 162.44,196.39 Z M 157.82,195.07 L 152.29,193.70 L 157.50,192.96 L 157.82,195.07 Z M 171.50,184.87 L 165.73,184.65 L 168.08,183.39 L 175.03,183.17 L 171.50,184.87 Z M 391.70,94.34 L 388.83,94.18 L 391.73,92.44 L 396.61,92.15 L 391.70,94.34 Z M 673.25,47.83 L 667.28,47.14 L 671.04,45.97 L 675.81,46.26 L 673.25,47.83 Z M 274.79,131.12 L 269.44,131.43 L 274.99,129.97 L 274.79,131.12 Z" fill="#E8E0D0" stroke="#B8B0A0" stroke-width="0.5"/>
<path d="M 57.07,411.96 L 48.53,412.64 L 49.68,410.50 L 57.36,411.77 L 54.62,404.98 L 47.88,404.39 L 42.95,401.66 L 40.11,402.23 L 42.96,404.26 L 34.61,402.44 L 37.92,398.31 L 35.85,392.39 L 38.37,396.41 L 46.02,394.18 L 41.77,390.37 L 36.69,389.56 L 35.09,391.55 L 37.80,376.71 L 39.38,375.86 L 42.73,379.40 L 52.63,378.84 L 58.79,381.03 L 60.16,379.20 L 57.07,377.75 L 71.68,373.49 L 76.00,375.87 L 71.58,379.14 L 75.21,376.95 L 79.84,377.60 L 78.85,378.84 L 81.75,379.95 L 83.53,379.15 L 80.51,379.25 L 80.97,376.17 L 75.74,376.33 L 78.55,374.99 L 75.96,373.64 L 76.93,370.59 L 104.33,367.85 L 99.73,366.75 L 78.66,369.14 L 73.64,367.85 L 56.98,370.28 L 49.78,373.91 L 51.14,376.17 L 46.59,376.33 L 53.41,376.33 L 52.39,378.52 L 44.45,376.23 L 42.53,374.61 L 40.29,374.29 L 40.37,375.97 L 40.00,374.43 L 40.45,373.49 L 54.63,366.38 L 85.04,365.40 L 106.29,355.64 L 115.13,355.42 L 128.20,352.15 L 132.41,352.31 L 124.04,356.12 L 128.49,359.22 L 128.20,363.77 L 120.85,368.96 L 107.35,367.07 L 104.76,367.85 L 119.57,369.59 L 117.74,371.31 L 120.60,375.67 L 113.17,375.55 L 100.12,377.44 L 120.36,375.98 L 120.59,377.89 L 115.77,379.31 L 114.58,381.35 L 120.21,378.28 L 125.55,380.17 L 139.05,379.86 L 144.48,381.83 L 142.47,384.45 L 135.85,388.56 L 131.63,386.66 L 128.55,389.78 L 121.14,387.47 L 126.37,387.15 L 126.89,385.74 L 122.99,385.27 L 115.99,388.72 L 118.19,391.70 L 114.53,395.91 L 102.48,395.49 L 109.31,396.37 L 107.76,398.95 L 90.57,398.71 L 101.96,400.66 L 88.33,403.80 L 94.54,404.06 L 91.73,405.22 L 96.46,409.32 L 87.88,411.44 L 90.69,413.06 L 85.89,414.15 L 97.25,415.12 L 97.83,418.77 L 92.81,416.56 L 81.40,419.56 L 56.27,417.39 L 57.07,411.96 Z M 176.91,422.92 L 164.03,423.58 L 145.83,419.90 L 150.00,418.87 L 147.10,416.86 L 154.73,415.90 L 168.64,419.34 L 170.73,417.00 L 178.23,421.16 L 176.91,422.92 Z M 127.42,418.41 L 122.24,418.89 L 114.80,415.53 L 127.42,418.41 Z M 205.29,416.00 L 188.56,417.14 L 195.14,415.26 L 193.77,413.62 L 205.29,416.00 Z M 110.03,417.74 L 105.78,418.16 L 99.17,416.92 L 98.29,415.43 L 101.72,416.20 L 99.86,414.64 L 93.33,413.68 L 99.65,413.16 L 110.03,417.74 Z M 144.20,411.49 L 134.13,421.08 L 130.58,418.72 L 144.20,411.49 Z M 301.84,415.21 L 286.96,412.69 L 289.90,407.93 L 304.85,411.96 L 301.84,415.21 Z M 46.37,406.31 L 45.30,404.40 L 48.71,405.22 L 49.20,407.10 L 46.37,406.31 Z M 110.08,412.90 L 113.53,411.81 L 107.70,410.49 L 108.54,412.13 L 107.00,412.09 L 103.14,407.02 L 96.20,404.28 L 100.36,404.91 L 95.16,403.66 L 119.34,400.85 L 127.43,402.79 L 123.63,404.50 L 125.62,404.86 L 130.89,403.73 L 131.60,400.96 L 135.99,403.85 L 129.44,404.45 L 128.78,404.87 L 134.29,404.93 L 139.51,408.36 L 137.16,408.44 L 137.56,412.17 L 133.08,413.54 L 110.08,412.90 Z M 209.99,401.24 L 205.46,402.40 L 204.08,400.83 L 207.74,399.25 L 209.99,401.24 Z M 127.30,393.22 L 128.39,392.15 L 133.19,394.85 L 129.86,397.61 L 127.15,396.11 L 127.30,393.22 Z M 190.67,418.72 L 182.65,422.02 L 182.21,424.90 L 179.15,422.81 L 180.72,421.39 L 173.11,416.37 L 179.67,415.43 L 169.45,412.90 L 177.55,413.85 L 173.34,412.13 L 176.76,411.65 L 173.34,410.24 L 155.85,410.42 L 153.14,407.10 L 149.22,406.80 L 154.06,405.76 L 148.96,403.26 L 151.44,401.82 L 143.17,399.72 L 149.22,399.89 L 141.09,398.00 L 153.24,398.97 L 165.21,395.11 L 164.14,393.45 L 157.52,392.84 L 156.30,392.18 L 175.28,392.78 L 171.25,394.23 L 173.34,396.43 L 169.13,397.07 L 174.15,396.75 L 175.07,397.84 L 171.03,398.27 L 175.72,399.89 L 182.38,395.46 L 181.66,393.62 L 186.15,398.14 L 180.72,399.89 L 186.47,400.03 L 187.80,398.31 L 185.16,393.45 L 179.01,392.73 L 193.55,389.15 L 207.98,391.10 L 203.79,393.75 L 207.22,398.78 L 191.74,403.85 L 201.97,408.36 L 184.72,411.18 L 190.94,412.60 L 189.86,415.15 L 180.22,415.12 L 179.95,416.63 L 190.67,418.72 Z M 165.81,375.71 L 170.73,375.39 L 168.11,376.50 L 165.81,375.71 Z M 56.17,376.57 L 50.67,375.19 L 56.57,373.18 L 55.92,371.62 L 66.53,369.73 L 62.59,375.06 L 56.17,376.57 Z M 153.38,362.25 L 148.41,362.52 L 146.96,364.57 L 140.30,363.13 L 151.31,361.58 L 153.38,362.25 Z" fill="#E8E0D0" stroke="#B8B0A0" stroke-width="0.5"/>
<path d="M 296.95,496.37 L 287.95,494.51 L 288.81,491.58 L 283.19,488.24 L 289.92,481.99 L 287.04,480.98 L 288.04,478.34 L 281.64,474.99 L 285.45,470.53 L 265.50,464.26 L 266.29,461.76 L 273.91,459.72 L 277.67,455.07 L 270.86,444.80 L 272.02,443.67 L 283.38,447.13 L 284.65,445.88 L 281.63,444.71 L 284.91,441.33 L 277.30,440.08 L 272.97,442.09 L 267.47,440.07 L 344.22,431.90 L 359.17,425.16 L 388.58,420.77 L 419.79,418.72 L 426.96,418.83 L 442.75,422.12 L 445.95,424.11 L 431.43,419.88 L 429.78,420.82 L 436.48,427.99 L 447.89,429.90 L 475.60,427.46 L 593.90,430.07 L 599.23,428.74 L 622.65,434.38 L 628.09,446.83 L 639.68,457.36 L 640.79,466.73 L 620.48,472.07 L 611.80,477.12 L 629.87,481.81 L 631.36,483.88 L 626.27,493.08 L 632.17,497.39 L 629.78,499.68 L 630.39,500.00 L 299.50,500.00 L 296.95,496.37 Z" fill="#E8E0D0" stroke="#B8B0A0" stroke-width="0.5"/>
<path d="M 0.04,460.88 L 0.00,460.94 L 0.00,455.20 L 0.11,455.22 L 0.04,460.88 Z" fill="#E8E0D0" stroke="#B8B0A0" stroke-width="0.5"/>
<path d="M 501.19,298.94 L 498.29,298.45 L 499.07,297.03 L 501.19,298.94 Z M 477.96,296.84 L 472.44,297.05 L 474.00,294.61 L 477.96,296.84 Z M 505.60,295.95 L 503.78,295.01 L 504.30,294.37 L 506.94,294.37 L 505.60,295.95 Z M 520.83,294.99 L 520.71,293.90 L 523.23,294.37 L 520.83,294.99 Z M 492.77,296.09 L 492.90,293.36 L 491.46,293.28 L 491.18,296.25 L 487.28,295.46 L 490.94,296.89 L 492.25,296.42 L 492.49,298.22 L 488.58,299.37 L 481.48,298.76 L 477.03,294.37 L 482.76,293.59 L 483.44,296.09 L 488.04,293.99 L 482.03,292.32 L 486.05,291.17 L 501.19,294.07 L 492.77,296.09 Z M 524.93,301.83 L 525.80,302.54 L 525.50,302.65 L 524.93,301.83 Z M 528.19,302.26 L 525.53,301.64 L 528.70,301.61 L 528.19,302.26 Z M 513.04,300.27 L 509.74,300.17 L 511.43,299.17 L 513.04,300.27 Z M 508.27,298.93 L 505.50,299.81 L 506.01,299.53 L 508.27,298.93 Z M 508.61,299.51 L 508.55,299.14 L 511.31,298.83 L 508.61,299.51 Z M 516.28,297.96 L 514.89,297.16 L 515.83,297.03 L 516.28,297.96 Z M 517.59,295.46 L 517.99,295.66 L 516.24,295.89 L 517.59,295.46 Z M 518.90,293.30 L 518.62,293.26 L 519.55,292.07 L 518.90,293.30 Z M 503.56,300.00 L 507.68,300.57 L 502.30,301.52 L 503.56,300.00 Z M 496.81,298.45 L 499.18,300.33 L 497.26,301.11 L 491.84,299.00 L 496.81,298.45 Z M 532.23,290.10 L 531.34,290.04 L 531.32,289.59 L 532.23,290.10 Z" fill="#E8E0D0" stroke="#B8B0A0" stroke-width="0.5"/>
<path d="M 786.98,287.30 L 785.67,289.34 L 776.15,289.83 L 767.55,288.73 L 770.45,288.41 L 766.87,287.06 L 757.21,290.21 L 738.84,289.74 L 744.29,286.49 L 749.20,287.30 L 745.60,285.52 L 733.45,291.85 L 717.18,289.34 L 724.50,292.76 L 721.89,293.59 L 714.30,291.24 L 717.68,294.84 L 710.92,293.11 L 714.57,294.37 L 710.22,294.79 L 707.66,292.10 L 702.20,292.96 L 701.31,294.82 L 694.07,294.21 L 683.18,297.07 L 682.01,295.58 L 680.17,297.17 L 674.65,296.09 L 669.42,298.14 L 664.97,296.89 L 666.52,299.08 L 660.82,300.64 L 661.53,299.39 L 655.73,300.52 L 656.00,298.72 L 621.90,301.45 L 626.37,298.76 L 614.54,302.80 L 615.08,304.10 L 601.82,304.78 L 614.92,302.24 L 617.96,300.24 L 609.69,302.22 L 615.32,299.55 L 606.81,299.44 L 606.43,297.36 L 600.65,297.03 L 608.54,292.32 L 587.26,295.78 L 591.98,294.07 L 584.74,294.39 L 591.06,291.32 L 578.32,291.69 L 563.45,288.34 L 558.93,289.51 L 561.05,286.05 L 552.30,289.26 L 548.68,287.46 L 551.02,287.46 L 544.50,287.16 L 546.85,286.52 L 542.38,284.65 L 546.85,283.71 L 541.45,281.50 L 545.26,279.78 L 540.29,276.17 L 547.33,276.17 L 545.81,273.65 L 550.23,272.87 L 547.09,271.92 L 549.71,271.14 L 548.93,268.95 L 546.05,268.32 L 550.78,268.01 L 545.02,266.43 L 551.53,266.43 L 547.33,264.54 L 556.29,265.47 L 549.44,262.66 L 548.68,261.25 L 551.30,261.56 L 546.85,260.14 L 544.71,256.77 L 537.92,254.98 L 543.19,248.52 L 540.81,249.32 L 541.84,246.49 L 539.22,245.22 L 537.13,246.96 L 536.61,245.07 L 533.97,245.38 L 533.71,241.94 L 536.27,240.87 L 531.35,240.99 L 535.01,238.16 L 533.20,236.74 L 543.82,234.47 L 545.86,230.79 L 555.22,231.10 L 547.87,226.94 L 563.12,225.76 L 562.59,227.65 L 566.54,228.44 L 568.10,226.24 L 573.86,226.40 L 579.80,225.22 L 581.47,224.36 L 574.64,221.85 L 582.54,222.14 L 577.93,219.67 L 582.76,221.26 L 589.71,215.61 L 596.78,217.35 L 601.70,215.56 L 599.06,215.09 L 602.61,214.69 L 601.72,213.51 L 605.48,214.23 L 607.86,212.18 L 621.38,210.54 L 620.64,207.53 L 628.61,208.18 L 627.42,206.36 L 641.58,203.16 L 643.92,199.90 L 656.93,196.65 L 666.26,190.92 L 664.37,190.36 L 685.68,187.77 L 695.64,189.81 L 695.82,187.94 L 689.37,186.66 L 699.04,186.66 L 695.67,183.69 L 690.15,183.07 L 694.60,180.70 L 694.88,178.03 L 692.25,177.25 L 695.67,176.47 L 694.45,174.29 L 676.66,170.80 L 669.64,171.34 L 664.84,168.41 L 670.97,165.01 L 663.62,167.66 L 651.65,168.06 L 644.51,161.87 L 631.86,157.10 L 630.44,152.48 L 639.23,150.08 L 639.63,145.79 L 643.91,144.54 L 627.72,136.57 L 628.54,134.12 L 635.54,132.35 L 634.76,130.46 L 621.97,128.96 L 626.65,126.63 L 623.89,120.27 L 630.81,118.30 L 617.19,113.83 L 611.80,114.37 L 608.02,110.52 L 598.11,108.12 L 569.92,106.24 L 525.24,96.67 L 525.45,94.70 L 514.42,93.42 L 519.06,91.87 L 531.59,93.42 L 534.84,92.25 L 530.14,90.11 L 532.62,88.77 L 553.32,88.04 L 581.38,98.32 L 582.83,100.83 L 613.02,103.01 L 641.03,98.47 L 678.42,104.41 L 687.13,102.33 L 689.76,98.55 L 706.10,97.14 L 712.53,94.41 L 710.29,89.26 L 720.55,78.46 L 727.95,77.87 L 740.80,73.06 L 762.50,73.60 L 791.85,69.62 L 800.00,72.10 L 800.00,283.73 L 786.98,287.30 Z M 584.11,300.52 L 581.82,300.63 L 580.52,299.01 L 584.11,300.52 Z M 550.73,296.56 L 553.91,296.89 L 552.34,298.12 L 547.87,297.36 L 550.73,296.56 Z M 561.54,295.95 L 562.85,296.42 L 555.50,297.67 L 561.54,295.95 Z M 542.98,295.95 L 546.05,296.25 L 539.22,296.09 L 542.98,295.95 Z M 567.51,297.31 L 564.68,296.42 L 568.75,295.61 L 567.51,297.31 Z M 713.54,295.50 L 715.61,295.48 L 714.06,295.97 L 713.54,295.50 Z M 576.57,294.89 L 578.33,294.84 L 577.47,295.97 L 575.17,295.78 L 576.57,294.89 Z M 703.89,294.55 L 704.33,293.67 L 708.27,294.84 L 703.89,294.55 Z M 603.78,293.75 L 595.11,300.35 L 585.15,300.52 L 583.32,297.83 L 590.14,297.20 L 583.06,297.03 L 584.32,295.39 L 585.02,296.25 L 603.78,293.75 Z M 576.72,293.32 L 580.16,293.90 L 570.22,294.28 L 576.72,293.32 Z M 579.14,293.11 L 582.41,292.32 L 585.43,293.11 L 579.14,293.11 Z M 559.27,291.89 L 559.80,289.77 L 564.55,290.76 L 567.06,292.81 L 559.27,291.89 Z M 554.96,289.81 L 558.12,288.41 L 557.98,288.73 L 554.96,289.81 Z M 538.44,289.04 L 537.63,287.63 L 539.52,288.03 L 541.08,289.42 L 538.44,289.04 Z M 547.33,288.41 L 545.81,289.66 L 541.44,288.42 L 547.33,288.41 Z M 537.78,286.85 L 537.05,286.34 L 539.22,285.73 L 540.29,287.46 L 537.78,286.85 Z M 536.61,280.08 L 540.29,279.94 L 539.20,278.28 L 543.19,279.14 L 541.04,280.29 L 536.61,280.08 Z M 538.18,228.27 L 531.88,225.13 L 538.18,225.29 L 536.33,226.55 L 539.84,226.88 L 545.02,226.07 L 538.18,228.27 Z M 540.93,224.76 L 537.63,224.19 L 543.19,223.72 L 540.93,224.76 Z M 684.42,184.91 L 675.15,184.91 L 671.42,185.82 L 675.44,186.52 L 671.89,187.03 L 665.31,185.05 L 681.80,184.64 L 684.42,184.91 Z M 639.70,301.61 L 637.91,301.50 L 638.79,301.08 L 639.70,301.61 Z M 602.64,298.96 L 600.56,300.32 L 599.91,299.19 L 602.64,298.96 Z M 603.42,298.52 L 599.54,298.57 L 601.30,297.73 L 603.42,298.52 Z M 567.63,297.65 L 564.47,297.60 L 565.70,297.30 L 567.63,297.65 Z M 581.52,295.78 L 581.92,295.98 L 578.20,297.03 L 581.52,295.78 Z M 566.12,293.92 L 567.47,293.65 L 567.39,293.77 L 566.12,293.92 Z M 563.69,294.04 L 562.38,293.47 L 566.15,293.37 L 563.69,294.04 Z M 574.47,292.63 L 573.18,292.40 L 576.95,291.89 L 574.47,292.63 Z M 575.10,291.85 L 571.15,292.34 L 572.43,291.77 L 575.10,291.85 Z M 542.46,292.40 L 540.13,291.97 L 540.64,291.53 L 542.46,292.40 Z M 745.35,290.68 L 739.78,291.21 L 742.36,290.80 L 745.35,290.68 Z M 568.94,225.26 L 566.32,225.31 L 566.73,224.61 L 568.94,225.26 Z M 569.80,224.43 L 576.01,223.96 L 571.54,225.21 L 569.80,224.43 Z M 567.02,222.91 L 570.83,222.94 L 570.07,223.48 L 565.51,224.13 L 567.02,222.91 Z M 595.48,215.22 L 593.25,214.23 L 596.41,213.59 L 595.48,215.22 Z M 584.15,303.86 L 583.00,303.64 L 584.66,303.37 L 584.15,303.86 Z M 552.86,294.67 L 550.44,295.28 L 551.33,294.29 L 552.86,294.67 Z M 538.93,281.44 L 535.99,280.83 L 538.27,281.08 L 538.93,281.44 Z M 542.35,273.51 L 541.99,273.18 L 543.41,272.64 L 545.01,273.50 L 542.35,273.51 Z M 548.30,263.39 L 546.47,263.13 L 547.41,262.87 L 548.30,263.39 Z M 534.47,232.80 L 533.85,231.71 L 536.35,231.85 L 534.47,232.80 Z" fill="#C8D8E8" stroke="#8BAABB" stroke-width="0.8"/>
<path d="M 525.45,94.70 L 525.24,96.67 L 569.92,106.24 L 598.11,108.12 L 608.02,110.52 L 611.80,114.37 L 617.19,113.83 L 630.81,118.30 L 623.89,120.27 L 626.65,126.63 L 621.97,128.96 L 634.76,130.46 L 635.54,132.35 L 628.54,134.12 L 627.72,136.57 L 643.91,144.54 L 639.63,145.79 L 639.23,150.08 L 630.44,152.48 L 630.84,155.74 L 633.19,158.26 L 644.51,161.87 L 650.00,167.05 L 640.94,168.48 L 633.77,166.90 L 623.46,166.81 L 621.86,168.37 L 612.96,166.96 L 614.56,168.29 L 609.40,169.76 L 592.16,165.09 L 592.58,168.55 L 582.69,166.11 L 579.64,166.73 L 579.64,169.05 L 575.17,168.46 L 582.01,170.49 L 577.94,169.83 L 578.07,171.43 L 574.40,171.60 L 578.67,171.89 L 578.97,170.57 L 582.68,173.49 L 558.12,169.23 L 574.93,173.32 L 561.54,173.64 L 568.36,175.20 L 546.05,177.72 L 555.73,179.35 L 552.71,180.39 L 542.09,177.36 L 539.50,177.88 L 552.21,182.03 L 549.71,182.75 L 551.30,184.32 L 538.18,186.98 L 535.80,189.66 L 530.29,189.74 L 540.57,191.21 L 537.63,191.68 L 540.53,193.56 L 533.11,192.79 L 542.38,195.77 L 547.45,195.45 L 549.99,196.56 L 542.16,196.63 L 552.08,198.45 L 527.57,205.39 L 524.91,209.19 L 516.39,213.64 L 509.84,212.89 L 505.66,216.12 L 503.02,214.45 L 502.35,216.73 L 501.45,214.93 L 499.86,216.81 L 491.88,216.68 L 478.58,221.84 L 469.35,218.87 L 472.04,222.22 L 463.49,221.04 L 462.19,224.19 L 454.45,225.76 L 456.54,226.69 L 454.28,227.63 L 442.72,225.78 L 448.94,226.87 L 443.57,227.86 L 445.51,226.69 L 440.78,226.55 L 442.90,228.12 L 435.57,227.65 L 439.03,229.12 L 423.21,231.73 L 434.04,231.91 L 436.04,232.68 L 429.40,232.53 L 433.98,233.45 L 429.28,233.76 L 432.13,234.55 L 428.42,235.47 L 421.88,234.72 L 424.78,235.36 L 421.43,236.82 L 414.30,236.44 L 419.55,235.80 L 416.92,235.03 L 411.48,235.92 L 407.48,231.73 L 402.22,231.87 L 408.12,233.53 L 414.06,238.39 L 409.05,239.27 L 416.41,240.99 L 411.54,240.53 L 407.95,243.42 L 400.89,243.67 L 402.75,244.61 L 392.00,242.24 L 388.33,243.46 L 390.23,247.01 L 400.65,249.32 L 395.14,249.63 L 393.29,254.56 L 388.85,256.09 L 388.58,258.68 L 391.19,258.73 L 390.94,261.00 L 395.35,261.19 L 394.67,263.00 L 388.32,261.10 L 380.94,260.92 L 385.94,261.72 L 379.38,262.97 L 385.15,263.60 L 377.81,264.21 L 382.80,264.69 L 378.72,264.94 L 384.10,267.28 L 379.64,268.40 L 386.23,270.35 L 379.38,270.20 L 383.80,272.16 L 381.47,272.87 L 381.73,277.09 L 385.15,277.26 L 381.72,278.73 L 388.51,282.89 L 382.81,284.60 L 388.66,286.19 L 397.68,285.61 L 401.34,288.91 L 412.99,286.99 L 412.71,288.73 L 424.00,291.70 L 422.95,292.96 L 430.35,292.47 L 430.30,293.90 L 437.12,295.00 L 429.30,294.51 L 426.09,293.11 L 430.04,296.03 L 434.96,296.47 L 436.10,298.76 L 438.90,297.06 L 444.47,300.35 L 442.80,298.58 L 445.24,297.76 L 448.54,301.67 L 455.00,302.83 L 453.58,304.24 L 447.89,302.07 L 449.35,303.84 L 442.06,305.76 L 455.11,306.19 L 448.94,306.15 L 424.26,312.43 L 425.72,314.28 L 420.90,312.87 L 414.30,314.01 L 419.55,315.57 L 417.60,315.88 L 422.40,316.04 L 426.14,314.76 L 431.96,315.65 L 430.30,313.37 L 432.52,313.42 L 438.72,315.80 L 425.11,315.98 L 430.20,320.07 L 414.48,322.34 L 409.85,326.55 L 405.28,324.27 L 406.43,325.47 L 405.32,325.98 L 405.10,320.61 L 402.87,322.16 L 400.89,319.50 L 397.75,324.36 L 399.66,325.25 L 396.18,325.61 L 398.28,326.55 L 392.79,325.77 L 394.36,327.96 L 388.58,327.80 L 389.36,329.07 L 376.73,329.07 L 381.24,330.32 L 372.75,331.95 L 346.31,330.95 L 344.22,331.74 L 367.59,332.37 L 373.37,335.03 L 366.02,336.45 L 354.26,335.15 L 353.16,335.34 L 366.72,337.84 L 361.55,338.17 L 364.11,339.37 L 367.96,338.87 L 364.43,339.91 L 368.81,341.54 L 367.12,343.29 L 361.00,341.63 L 366.26,345.71 L 361.76,345.95 L 366.80,348.85 L 360.74,348.69 L 362.05,348.08 L 357.09,346.31 L 359.28,348.71 L 354.99,348.52 L 364.43,351.99 L 353.42,348.69 L 364.73,353.09 L 359.45,352.93 L 361.51,354.78 L 357.29,354.82 L 363.74,358.38 L 355.32,362.88 L 359.69,368.16 L 354.20,368.01 L 352.98,373.79 L 355.42,374.29 L 346.79,377.39 L 338.82,386.26 L 331.68,390.12 L 329.26,389.67 L 330.71,388.45 L 321.52,387.32 L 313.06,388.87 L 288.52,388.26 L 286.89,389.42 L 290.16,391.40 L 279.81,391.18 L 269.75,395.25 L 268.26,398.39 L 274.83,402.52 L 267.69,406.06 L 216.05,406.25 L 221.91,404.75 L 219.30,402.48 L 224.56,399.11 L 219.49,397.84 L 219.62,395.91 L 201.45,385.13 L 215.35,386.69 L 207.96,382.50 L 218.25,381.67 L 219.94,379.57 L 217.54,377.22 L 212.18,377.28 L 207.07,373.29 L 197.81,370.94 L 191.48,364.32 L 188.04,363.77 L 189.67,362.09 L 186.06,361.15 L 188.32,360.16 L 186.43,358.68 L 183.35,361.25 L 180.45,360.16 L 180.97,354.97 L 177.84,354.03 L 181.23,353.09 L 172.87,353.19 L 176.90,351.29 L 170.99,349.96 L 174.94,348.52 L 179.93,341.31 L 176.84,339.36 L 179.67,338.66 L 173.69,338.79 L 165.23,340.71 L 171.52,336.61 L 167.05,335.67 L 165.87,338.58 L 161.03,340.22 L 162.10,337.39 L 159.10,338.35 L 162.10,336.14 L 154.32,338.35 L 156.82,332.99 L 152.65,329.82 L 153.43,325.15 L 150.00,324.43 L 153.27,321.53 L 158.15,321.09 L 163.17,325.75 L 171.30,325.20 L 176.94,317.65 L 171.71,309.46 L 180.22,307.01 L 178.40,303.38 L 189.66,302.79 L 202.67,298.60 L 202.99,293.30 L 207.34,290.86 L 193.86,277.51 L 211.11,276.49 L 218.17,269.54 L 190.35,260.94 L 196.19,248.08 L 187.65,241.20 L 190.14,237.83 L 187.73,233.85 L 192.69,231.69 L 183.87,225.11 L 192.58,220.86 L 190.68,218.02 L 213.08,209.01 L 231.42,206.73 L 259.39,208.60 L 266.42,204.94 L 264.47,198.15 L 247.07,195.43 L 280.45,178.61 L 282.23,169.84 L 285.61,167.52 L 281.46,160.12 L 301.10,159.48 L 317.51,156.69 L 315.38,151.74 L 352.66,139.26 L 354.13,135.49 L 342.22,130.39 L 344.28,128.71 L 355.85,127.30 L 367.34,119.53 L 387.97,114.76 L 410.93,117.79 L 421.18,112.62 L 420.54,104.89 L 430.66,104.02 L 490.95,108.83 L 499.97,106.23 L 489.11,104.77 L 499.62,102.07 L 504.21,98.73 L 503.62,96.32 L 494.47,93.75 L 525.45,94.70 Z M 371.77,368.32 L 358.08,385.09 L 353.77,387.11 L 353.42,378.69 L 361.13,372.12 L 365.36,371.39 L 374.37,362.21 L 380.42,361.88 L 371.77,368.32 Z M 455.52,350.27 L 444.87,352.37 L 443.24,354.83 L 443.57,358.37 L 449.43,360.20 L 429.52,365.92 L 431.37,366.27 L 426.90,368.48 L 429.28,369.10 L 425.89,370.38 L 419.27,370.98 L 425.07,367.07 L 421.65,367.69 L 422.69,366.13 L 417.76,363.26 L 420.82,360.50 L 418.86,356.63 L 439.91,348.25 L 444.73,350.27 L 446.56,348.23 L 455.52,350.27 Z M 465.22,347.12 L 458.46,347.98 L 457.22,349.79 L 453.66,348.45 L 456.02,346.82 L 465.22,347.12 Z M 168.64,347.76 L 164.93,345.64 L 165.96,345.12 L 174.15,344.94 L 168.64,347.76 Z M 176.68,343.40 L 172.98,344.03 L 163.39,344.63 L 161.43,343.28 L 172.15,339.61 L 176.76,341.00 L 176.68,343.40 Z M 461.84,338.43 L 459.45,337.23 L 460.77,337.23 L 464.96,337.86 L 461.84,338.43 Z M 427.16,316.51 L 437.41,317.45 L 433.72,317.15 L 435.08,318.19 L 427.16,316.51 Z M 429.36,291.99 L 428.46,288.82 L 432.52,292.06 L 435.03,292.96 L 429.36,291.99 Z M 523.68,213.47 L 525.81,214.00 L 524.01,214.45 L 523.68,213.47 Z M 429.80,323.10 L 427.15,322.78 L 428.31,321.57 L 432.54,321.13 L 429.80,323.10 Z M 442.68,318.67 L 439.22,319.32 L 440.42,318.59 L 442.68,318.67 Z M 443.64,317.59 L 441.63,317.36 L 442.97,316.62 L 443.64,317.59 Z M 438.39,314.94 L 442.57,315.77 L 439.90,316.51 L 438.39,314.94 Z M 418.66,314.45 L 423.50,314.97 L 420.30,315.57 L 418.66,314.45 Z M 447.09,314.21 L 447.26,314.36 L 446.42,314.45 L 447.09,314.21 Z M 449.87,314.82 L 448.40,314.19 L 449.25,314.07 L 449.87,314.82 Z M 448.19,314.04 L 446.92,313.64 L 448.37,313.16 L 448.19,314.04 Z M 435.27,313.69 L 433.51,312.30 L 442.26,310.99 L 435.27,313.69 Z M 448.63,310.01 L 446.84,309.72 L 449.87,308.50 L 448.63,310.01 Z M 445.51,309.99 L 442.94,310.25 L 449.36,308.32 L 445.51,309.99 Z M 451.18,305.35 L 447.88,305.18 L 450.69,303.58 L 451.18,305.35 Z M 442.80,295.67 L 444.86,296.78 L 441.70,296.90 L 442.80,295.67 Z M 325.74,390.40 L 323.66,389.71 L 324.68,389.26 L 325.74,390.40 Z M 371.02,339.85 L 369.81,339.97 L 369.24,339.31 L 371.02,339.85 Z M 369.05,338.78 L 367.43,337.57 L 370.28,337.11 L 371.50,338.63 L 369.05,338.78 Z M 427.63,323.90 L 421.37,325.40 L 422.63,324.64 L 427.63,323.90 Z M 419.50,324.08 L 415.89,324.27 L 417.92,322.85 L 421.55,323.15 L 419.50,324.08 Z M 401.88,325.64 L 400.63,321.73 L 401.96,322.22 L 401.88,325.64 Z M 414.99,238.95 L 414.19,238.47 L 420.08,237.52 L 414.99,238.95 Z M 523.34,216.81 L 522.19,216.98 L 523.67,216.22 L 523.34,216.81 Z M 526.88,213.98 L 523.67,216.07 L 524.29,214.72 L 526.88,213.98 Z M 581.54,176.03 L 578.08,176.01 L 578.89,175.47 L 581.54,176.03 Z M 573.82,175.04 L 576.08,176.19 L 576.03,176.32 L 573.82,175.04 Z M 590.68,174.17 L 588.33,173.76 L 588.56,173.57 L 590.68,174.17 Z M 574.31,173.58 L 580.89,174.36 L 577.88,174.95 L 574.31,173.58 Z M 591.12,172.31 L 591.72,172.41 L 587.42,172.70 L 591.12,172.31 Z M 588.39,172.03 L 590.31,172.15 L 589.72,172.30 L 588.39,172.03 Z M 604.38,170.62 L 600.94,169.40 L 602.77,168.90 L 604.38,170.62 Z M 635.51,169.45 L 633.73,169.94 L 631.55,169.37 L 635.51,169.45 Z M 595.76,168.25 L 598.23,169.54 L 598.00,169.74 L 595.76,168.25 Z" fill="#4A90D9" stroke="#1a5fa8" stroke-width="1.2"/>
<path d="M 259.75,323.41 L 259.45,327.35 L 248.77,330.93 L 236.36,331.89 L 230.64,334.74 L 227.16,334.01 L 229.52,332.22 L 217.70,333.00 L 219.82,334.26 L 207.21,337.89 L 203.79,337.72 L 208.53,335.34 L 204.16,337.19 L 195.79,337.14 L 208.32,331.63 L 203.38,330.60 L 204.09,328.13 L 199.87,327.66 L 203.79,327.81 L 200.65,324.39 L 206.42,327.60 L 210.88,321.84 L 217.70,321.22 L 227.24,325.31 L 232.40,325.30 L 225.21,316.89 L 228.99,314.94 L 232.91,316.34 L 233.20,314.94 L 248.16,314.01 L 251.81,314.31 L 250.93,315.92 L 263.11,315.81 L 262.85,318.51 L 257.98,321.29 L 265.23,321.84 L 259.75,323.41 Z M 228.99,330.32 L 224.81,331.12 L 226.63,331.89 L 230.07,331.75 L 228.99,330.32 Z M 242.90,315.52 L 238.98,316.20 L 241.61,317.16 L 242.90,315.52 Z M 253.93,327.04 L 248.92,327.81 L 249.94,329.04 L 253.93,327.04 Z" fill="#A8C8E8" stroke="none"/>
<path d="M 794.28,276.13 L 789.59,273.98 L 800.00,273.98 L 800.00,276.03 L 794.28,276.13 Z M 798.50,271.23 L 783.83,271.61 L 784.06,273.03 L 773.34,271.92 L 777.54,271.29 L 771.24,269.41 L 770.98,270.20 L 767.81,270.20 L 768.54,268.50 L 772.55,267.54 L 768.16,266.19 L 777.28,266.90 L 769.28,265.25 L 769.14,262.44 L 773.34,263.28 L 769.93,265.32 L 778.87,265.79 L 774.93,264.85 L 776.49,262.66 L 780.48,264.58 L 789.34,261.56 L 781.46,259.83 L 784.62,259.20 L 793.64,261.93 L 798.27,266.43 L 800.00,265.96 L 800.00,271.72 L 798.50,271.23 Z M 787.30,265.08 L 788.83,267.21 L 777.80,266.57 L 789.34,267.68 L 785.93,268.32 L 791.18,268.15 L 795.09,266.45 L 787.30,265.08 Z M 786.19,271.29 L 782.26,268.63 L 770.17,268.48 L 786.19,271.29 Z M 792.52,251.35 L 796.44,250.73 L 790.13,247.12 L 794.59,247.27 L 789.98,246.73 L 791.97,246.00 L 788.29,243.82 L 786.98,245.86 L 780.82,244.03 L 782.59,245.30 L 780.03,245.63 L 773.08,242.72 L 774.67,243.82 L 768.39,243.98 L 763.28,240.14 L 771.25,243.34 L 771.62,241.30 L 775.70,242.90 L 779.77,241.94 L 779.89,243.05 L 786.98,245.23 L 781.46,242.48 L 786.83,242.84 L 778.07,240.76 L 783.29,241.47 L 781.07,239.32 L 784.70,237.31 L 781.76,236.50 L 785.40,235.85 L 783.03,234.86 L 785.39,233.61 L 779.75,235.59 L 773.59,234.25 L 773.85,232.20 L 768.08,231.11 L 770.17,230.63 L 765.21,230.32 L 768.86,229.53 L 763.63,227.49 L 768.08,226.86 L 764.94,224.66 L 768.86,224.82 L 764.78,221.86 L 765.46,220.10 L 757.86,220.42 L 753.96,218.18 L 764.27,218.85 L 769.64,222.78 L 765.46,222.00 L 769.15,223.88 L 772.65,223.27 L 773.81,224.79 L 770.45,226.24 L 773.08,227.80 L 767.03,227.80 L 773.98,231.43 L 782.77,232.20 L 780.70,230.96 L 788.22,233.30 L 789.92,232.19 L 785.67,230.17 L 790.52,229.06 L 792.75,231.73 L 800.00,231.30 L 800.00,234.46 L 798.27,234.39 L 799.07,232.20 L 790.92,233.44 L 792.15,235.90 L 800.00,237.06 L 800.00,238.80 L 795.12,237.01 L 786.19,239.73 L 791.71,240.22 L 790.43,240.74 L 785.93,240.36 L 792.83,244.72 L 798.94,244.84 L 794.63,248.72 L 800.00,248.43 L 800.00,251.99 L 792.52,251.35 Z M 788.91,242.52 L 783.83,241.78 L 787.94,242.77 L 789.87,243.68 L 788.91,242.52 Z M 799.55,244.51 L 800.00,244.25 L 800.00,244.54 L 799.55,244.51 Z M 798.00,239.42 L 800.00,239.42 L 800.00,240.73 L 798.00,239.42 Z M 798.79,236.76 L 800.00,236.36 L 800.00,236.98 L 798.79,236.76 Z M 798.79,234.86 L 800.00,234.74 L 800.00,235.25 L 798.79,234.86 Z" fill="#A8C8E8" stroke="none"/>
<path d="M 733.99,267.68 L 727.66,270.51 L 731.33,270.65 L 730.16,272.30 L 724.50,271.76 L 727.66,272.23 L 727.15,274.75 L 730.82,275.53 L 723.72,279.14 L 720.70,278.36 L 726.62,275.31 L 719.80,272.87 L 714.43,274.35 L 715.61,273.34 L 707.51,270.99 L 705.94,272.25 L 709.82,272.71 L 701.16,274.92 L 705.32,275.65 L 705.94,277.71 L 699.94,275.26 L 699.06,276.63 L 693.81,276.00 L 702.44,273.66 L 701.81,271.53 L 697.19,272.07 L 697.73,270.03 L 693.81,270.51 L 690.93,268.63 L 693.83,268.40 L 687.78,267.05 L 690.65,266.61 L 687.54,265.18 L 697.04,264.67 L 699.85,262.83 L 688.57,259.05 L 695.52,260.07 L 699.86,257.60 L 690.16,257.79 L 696.71,256.84 L 693.29,256.06 L 700.64,256.86 L 704.06,254.98 L 701.68,254.34 L 710.03,254.11 L 706.16,252.05 L 699.51,252.06 L 699.16,250.79 L 708.99,251.64 L 709.82,249.15 L 717.99,247.27 L 716.63,244.40 L 712.19,244.45 L 715.12,243.50 L 704.29,240.91 L 712.67,239.68 L 712.46,237.38 L 716.84,238.55 L 717.45,236.97 L 712.47,236.76 L 717.18,234.86 L 712.97,233.76 L 720.05,234.09 L 702.75,229.38 L 702.75,232.51 L 694.60,231.57 L 701.37,231.22 L 697.99,228.90 L 702.44,228.90 L 705.73,225.91 L 706.85,228.37 L 713.80,230.08 L 713.23,228.44 L 717.99,229.21 L 726.10,232.34 L 720.19,232.49 L 736.14,237.86 L 732.21,238.61 L 722.06,234.87 L 723.98,236.31 L 719.93,237.30 L 721.88,239.10 L 718.83,238.51 L 724.50,240.36 L 716.05,239.35 L 712.37,240.06 L 714.41,241.61 L 710.47,241.35 L 719.65,245.13 L 723.66,242.06 L 725.80,243.82 L 722.41,244.93 L 728.44,246.00 L 727.27,241.54 L 734.29,239.57 L 741.59,240.51 L 732.39,234.22 L 741.86,238.84 L 751.62,240.79 L 751.16,239.44 L 753.93,238.78 L 737.64,232.67 L 750.14,236.60 L 746.04,232.04 L 752.60,233.61 L 746.82,231.40 L 752.37,232.36 L 756.27,230.96 L 758.54,230.92 L 760.73,231.26 L 757.35,232.04 L 761.00,233.45 L 755.26,232.20 L 757.62,233.76 L 753.64,234.39 L 757.35,235.35 L 755.76,234.55 L 765.73,235.80 L 758.40,235.03 L 758.40,236.91 L 751.55,235.50 L 760.73,239.42 L 755.76,239.10 L 759.52,241.23 L 752.34,239.65 L 754.43,240.83 L 750.75,242.58 L 756.94,244.53 L 751.29,243.19 L 746.54,244.28 L 749.73,241.47 L 746.37,240.60 L 744.21,244.76 L 741.95,245.89 L 737.64,245.38 L 736.95,247.65 L 733.92,246.71 L 736.86,245.38 L 735.04,244.61 L 740.03,245.29 L 738.12,244.22 L 743.08,242.33 L 733.09,240.95 L 728.58,242.32 L 732.14,247.59 L 721.88,245.69 L 728.19,248.11 L 723.98,248.38 L 719.51,245.55 L 718.75,247.43 L 722.41,248.68 L 718.21,248.38 L 717.60,251.18 L 720.57,252.47 L 716.10,251.36 L 716.15,249.48 L 711.95,253.40 L 717.37,255.03 L 705.60,255.21 L 707.98,256.55 L 705.91,256.94 L 710.60,257.17 L 705.08,257.79 L 703.77,259.67 L 710.60,258.58 L 705.88,262.18 L 712.19,264.38 L 704.78,263.36 L 702.99,263.91 L 706.41,264.05 L 702.44,266.12 L 709.82,267.37 L 701.16,267.21 L 704.85,268.48 L 702.21,270.82 L 715.58,271.12 L 723.75,273.51 L 726.10,272.71 L 723.72,271.46 L 733.99,267.68 Z" fill="#A8C8E8" stroke="none"/>
<path d="M 781.34,341.08 L 782.01,343.19 L 794.87,342.25 L 800.00,344.66 L 800.00,349.05 L 795.44,349.60 L 785.87,345.39 L 782.24,347.11 L 778.06,340.85 L 781.34,341.08 Z" fill="#A8C8E8" stroke="none"/>
<path d="M 759.16,96.56 L 776.71,94.41 L 793.34,89.85 L 797.77,91.06 L 800.00,90.75 L 800.00,97.01 L 792.48,96.69 L 792.70,98.19 L 800.00,98.41 L 800.00,98.68 L 789.73,100.79 L 787.24,100.63 L 793.56,99.06 L 788.33,98.26 L 785.30,100.44 L 782.77,101.10 L 784.62,100.31 L 774.89,99.40 L 770.05,100.96 L 766.50,100.46 L 771.34,99.30 L 780.44,98.91 L 772.06,96.44 L 759.16,96.56 Z M 799.68,90.29 L 796.84,87.76 L 800.00,87.34 L 800.00,90.27 L 799.68,90.29 Z" fill="#A8C8E8" stroke="none"/>
<path d="M 774.40,337.63 L 767.73,336.57 L 764.82,331.09 L 756.94,328.05 L 760.36,324.65 L 786.76,323.52 L 790.56,335.47 L 776.54,341.22 L 774.40,337.63 Z M 777.66,337.76 L 778.87,337.72 L 777.46,337.27 L 777.66,337.76 Z" fill="#A8C8E8" stroke="none"/>
<path d="M 779.49,279.15 L 770.45,278.05 L 772.81,276.49 L 775.25,278.08 L 784.49,278.05 L 787.50,276.80 L 783.53,275.75 L 786.35,275.65 L 792.23,277.56 L 782.75,278.92 L 779.49,279.15 Z" fill="#A8C8E8" stroke="none"/>
<path d="M 295.94,331.89 L 293.04,332.84 L 298.27,334.26 L 286.43,337.32 L 280.81,343.71 L 270.43,350.76 L 266.71,351.04 L 264.08,347.57 L 271.43,339.34 L 281.97,331.56 L 295.94,326.09 L 298.81,327.19 L 296.07,327.63 L 295.94,331.89 Z" fill="#A8C8E8" stroke="none"/>
<path d="M 266.81,226.86 L 260.49,224.05 L 277.15,226.22 L 279.75,225.02 L 291.21,229.70 L 276.85,228.23 L 279.34,235.44 L 276.59,236.39 L 273.51,231.99 L 276.51,234.25 L 277.33,231.63 L 274.20,229.00 L 263.58,227.38 L 257.87,225.43 L 266.81,226.86 Z" fill="#A8C8E8" stroke="none"/>
<path d="M 746.30,261.10 L 753.84,262.53 L 755.26,264.38 L 750.86,264.87 L 740.79,259.39 L 730.54,257.47 L 735.88,254.93 L 738.19,255.75 L 733.99,257.79 L 738.69,258.00 L 741.51,255.76 L 745.65,257.88 L 751.55,257.47 L 746.30,256.23 L 742.55,253.52 L 754.12,256.94 L 754.44,260.46 L 760.73,262.04 L 746.30,261.10 Z" fill="#A8C8E8" stroke="none"/>
<path d="M 353.68,316.04 L 351.80,316.93 L 332.41,318.86 L 330.68,320.11 L 321.25,319.34 L 324.28,318.56 L 319.94,317.23 L 307.75,316.83 L 353.68,316.04 Z" fill="#A8C8E8" stroke="none"/>
<path d="M 659.94,264.21 L 666.76,265.79 L 655.03,265.63 L 649.97,267.40 L 647.65,270.31 L 651.82,269.73 L 656.28,271.46 L 650.94,270.49 L 643.41,272.40 L 657.25,273.57 L 658.63,274.59 L 656.25,274.95 L 662.05,277.10 L 655.52,274.73 L 653.41,276.04 L 634.73,272.54 L 634.47,269.73 L 637.37,272.66 L 642.89,273.03 L 641.33,271.92 L 645.87,270.13 L 642.64,267.84 L 657.00,264.65 L 656.19,262.70 L 673.63,260.77 L 669.21,261.64 L 670.73,262.66 L 659.94,264.21 Z" fill="#A8C8E8" stroke="none"/>
<path d="M 624.61,268.79 L 633.17,270.03 L 632.96,271.89 L 617.96,268.94 L 626.90,266.43 L 632.58,266.23 L 626.84,262.96 L 630.31,262.18 L 626.11,261.39 L 631.96,261.10 L 631.10,258.74 L 634.73,258.41 L 629.79,256.86 L 637.73,257.91 L 637.44,256.53 L 646.55,255.29 L 642.68,252.28 L 630.62,252.06 L 629.25,249.79 L 638.95,251.59 L 642.76,249.11 L 642.02,251.40 L 651.55,250.76 L 646.84,251.67 L 650.00,251.82 L 647.65,253.25 L 651.96,253.85 L 655.49,251.82 L 657.45,252.38 L 654.42,253.54 L 656.80,254.18 L 665.70,254.20 L 654.42,250.56 L 666.25,253.08 L 666.53,248.68 L 670.48,248.32 L 669.87,250.43 L 673.63,249.63 L 665.97,254.48 L 671.78,257.17 L 664.00,254.44 L 654.42,254.98 L 646.55,253.71 L 651.31,255.59 L 644.48,255.92 L 646.84,256.70 L 633.44,259.83 L 636.83,260.77 L 633.47,262.64 L 641.33,262.50 L 634.21,263.28 L 636.83,263.34 L 636.54,265.29 L 632.65,266.57 L 624.61,268.79 Z" fill="#A8C8E8" stroke="none"/>
<path d="M 615.58,268.32 L 606.64,268.27 L 603.93,269.73 L 593.68,271.13 L 591.95,272.94 L 589.33,272.71 L 595.44,270.16 L 603.45,269.34 L 606.39,267.47 L 620.31,266.90 L 614.01,267.34 L 615.58,268.32 Z" fill="#A8C8E8" stroke="none"/>
<path d="M 740.80,229.84 L 744.46,233.14 L 727.92,225.43 L 737.64,228.27 L 744.99,227.34 L 735.04,223.72 L 748.42,224.36 L 744.70,224.82 L 749.73,227.18 L 740.80,229.84 Z" fill="#A8C8E8" stroke="none"/>
<path d="M 735.53,263.44 L 728.18,260.14 L 726.74,261.36 L 723.06,260.85 L 722.93,262.50 L 727.92,263.14 L 726.62,265.47 L 714.56,262.04 L 718.46,261.56 L 717.89,258.91 L 725.95,260.54 L 728.44,257.94 L 731.86,261.43 L 738.84,260.46 L 741.63,263.13 L 735.53,263.44 Z" fill="#A8C8E8" stroke="none"/>
<path d="M 799.72,162.33 L 798.78,160.20 L 791.18,159.19 L 800.00,159.57 L 800.00,162.33 L 799.72,162.33 Z" fill="#A8C8E8" stroke="none"/>
<path d="M 725.78,340.70 L 723.10,343.94 L 716.92,338.72 L 719.48,336.92 L 725.03,337.39 L 725.78,340.70 Z" fill="#A8C8E8" stroke="none"/>
<path d="M 216.96,216.34 L 224.91,214.95 L 232.91,215.09 L 234.77,216.20 L 221.67,215.87 L 229.25,217.75 L 223.08,218.28 L 224.81,219.49 L 236.78,221.79 L 222.65,219.56 L 216.96,216.34 Z" fill="#A8C8E8" stroke="none"/>
<path d="M 418.63,168.16 L 426.60,168.08 L 434.25,170.81 L 421.10,170.18 L 422.55,170.98 L 418.88,171.20 L 420.93,172.03 L 417.38,171.65 L 418.25,169.56 L 411.97,165.25 L 418.63,168.16 Z" fill="#A8C8E8" stroke="none"/>
<path d="M 403.97,166.52 L 400.90,164.53 L 404.31,163.71 L 394.10,161.25 L 390.15,162.81 L 387.27,160.44 L 408.51,161.25 L 400.67,159.90 L 399.41,158.00 L 417.73,161.25 L 410.50,161.82 L 412.99,163.89 L 403.97,166.52 Z" fill="#A8C8E8" stroke="none"/>
<path d="M 319.54,211.80 L 308.35,210.20 L 316.91,209.67 L 311.98,208.53 L 312.20,206.48 L 302.88,202.53 L 273.67,199.98 L 249.62,193.93 L 266.15,196.10 L 274.97,199.61 L 298.63,201.08 L 305.16,202.55 L 307.47,204.21 L 306.14,201.61 L 300.63,201.01 L 309.06,201.27 L 311.00,205.67 L 315.46,206.84 L 313.28,208.36 L 317.30,208.95 L 320.47,212.03 L 327.88,212.79 L 330.84,214.76 L 324.80,212.74 L 318.95,214.25 L 319.54,211.80 Z" fill="#A8C8E8" stroke="none"/>
<path d="M 236.51,192.67 L 229.14,193.26 L 237.67,190.58 L 245.86,193.24 L 236.51,192.67 Z" fill="#A8C8E8" stroke="none"/>
<path d="M 176.31,256.22 L 175.16,256.41 L 173.66,254.48 L 175.64,253.36 L 176.31,256.22 Z" fill="#A8C8E8" stroke="none"/>
<path d="M 179.35,252.91 L 181.52,256.38 L 173.10,252.13 L 178.70,250.21 L 180.73,247.46 L 178.85,245.38 L 182.28,245.23 L 179.35,252.91 Z" fill="#A8C8E8" stroke="none"/>
<path d="M 753.00,274.97 L 750.11,273.34 L 750.95,275.32 L 747.61,275.39 L 742.35,271.92 L 750.30,271.22 L 742.61,268.15 L 747.45,264.50 L 743.92,262.83 L 743.92,261.56 L 748.14,263.28 L 745.51,263.44 L 748.25,264.39 L 746.54,267.54 L 758.12,268.32 L 744.21,268.01 L 752.11,270.65 L 750.25,272.87 L 756.90,274.35 L 753.00,274.97 Z" fill="#A8C8E8" stroke="none"/>
<path d="M 174.32,240.43 L 168.75,239.08 L 163.62,238.64 L 177.41,239.04 L 172.05,239.42 L 176.58,240.69 L 174.32,240.43 Z" fill="#A8C8E8" stroke="none"/>
<path d="M 148.67,316.08 L 146.30,315.82 L 151.38,314.22 L 154.28,312.44 L 148.67,316.08 Z" fill="#A8C8E8" stroke="none"/>
<path d="M 155.26,308.64 L 148.10,301.23 L 153.74,303.59 L 155.26,308.64 Z" fill="#A8C8E8" stroke="none"/>
<path d="M 353.97,296.88 L 349.50,297.67 L 349.97,297.04 L 353.97,296.88 Z" fill="#A8C8E8" stroke="none"/>
<path d="M 370.22,294.21 L 368.63,297.20 L 356.83,296.85 L 355.77,296.09 L 366.80,295.95 L 367.58,294.07 L 391.27,288.61 L 387.10,291.64 L 370.22,294.21 Z" fill="#A8C8E8" stroke="none"/>
<path d="M 794.90,316.99 L 790.90,319.67 L 793.25,316.71 L 800.00,316.10 L 800.00,317.07 L 794.90,316.99 Z M 798.17,315.53 L 800.00,315.59 L 800.00,315.91 L 798.17,315.53 Z" fill="#A8C8E8" stroke="none"/>
<path d="M 245.80,265.47 L 248.42,266.43 L 250.28,267.91 L 230.57,262.35 L 245.80,265.47 Z" fill="#A8C8E8" stroke="none"/>
<path d="M 297.83,283.84 L 294.39,283.20 L 295.70,281.61 L 288.43,282.77 L 279.06,279.06 L 282.40,277.49 L 294.89,280.84 L 301.63,280.02 L 297.83,283.84 Z" fill="#A8C8E8" stroke="none"/>
<path d="M 515.62,120.72 L 521.63,121.99 L 510.99,120.83 L 497.28,116.74 L 491.57,113.42 L 454.98,109.09 L 441.83,109.11 L 435.58,106.29 L 460.69,109.45 L 484.17,110.01 L 486.73,110.68 L 473.87,111.00 L 492.51,112.12 L 498.45,116.63 L 502.48,116.22 L 506.40,118.21 L 506.68,116.95 L 511.24,120.52 L 520.68,119.98 L 515.62,120.72 Z" fill="#A8C8E8" stroke="none"/>
<path d="M 356.53,130.78 L 351.33,128.88 L 372.06,127.95 L 361.81,127.01 L 382.54,127.01 L 355.77,129.84 L 367.32,131.39 L 361.81,131.56 L 363.84,132.94 L 350.81,131.32 L 356.53,130.78 Z" fill="#A8C8E8" stroke="none"/>
<path d="M 296.44,180.08 L 299.55,179.16 L 302.47,181.95 L 296.44,180.08 Z" fill="#A8C8E8" stroke="none"/>
<path d="M 301.17,184.94 L 291.45,184.48 L 305.15,185.10 L 305.71,183.82 L 311.45,186.24 L 317.16,186.21 L 315.07,186.85 L 301.17,184.94 Z" fill="#A8C8E8" stroke="none"/>
<path d="M 361.42,194.06 L 365.47,195.93 L 366.80,197.81 L 332.93,187.92 L 361.42,194.06 Z" fill="#A8C8E8" stroke="none"/>
<path d="M 322.05,336.03 L 318.78,335.08 L 322.97,333.76 L 335.56,334.40 L 322.05,336.03 Z" fill="#A8C8E8" stroke="none"/>
<path d="M 300.93,333.63 L 309.85,333.46 L 307.74,333.94 L 300.93,333.63 Z" fill="#A8C8E8" stroke="none"/>
<path d="M 349.36,148.68 L 353.86,151.75 L 368.91,152.76 L 351.46,151.82 L 349.36,148.68 Z" fill="#A8C8E8" stroke="none"/>
<path d="M 390.95,157.92 L 388.99,157.38 L 394.12,157.38 L 372.84,153.23 L 389.23,154.85 L 399.09,158.69 L 390.95,157.92 Z" fill="#A8C8E8" stroke="none"/>
<path d="M 202.25,277.10 L 206.94,276.94 L 205.48,278.79 L 202.25,277.10 Z" fill="#A8C8E8" stroke="none"/>
<path d="M 337.11,142.70 L 343.69,144.27 L 340.46,144.41 L 337.11,142.70 Z" fill="#A8C8E8" stroke="none"/>
<path d="M 752.11,197.65 L 751.96,197.66 L 751.81,197.65 L 752.11,197.65 Z" fill="#A8C8E8" stroke="none"/>
<path d="M 251.29,372.12 L 246.85,374.60 L 245.54,370.68 L 248.69,368.01 L 253.22,367.96 L 251.29,372.12 Z" fill="#A8C8E8" stroke="none"/>
<path d="M 293.26,378.60 L 289.73,378.41 L 291.45,379.78 L 287.27,379.63 L 283.58,374.60 L 285.82,377.44 L 287.78,375.39 L 293.26,378.60 Z" fill="#A8C8E8" stroke="none"/>
<path d="M 191.09,323.41 L 190.08,320.64 L 179.94,317.65 L 178.36,315.72 L 180.92,325.39 L 172.82,314.94 L 177.03,316.04 L 178.30,312.24 L 178.66,313.89 L 184.36,314.01 L 180.50,316.88 L 191.35,320.55 L 191.09,323.41 Z" fill="#A8C8E8" stroke="none"/>
<path d="M 211.24,453.28 L 206.43,451.06 L 209.66,449.04 L 213.53,450.83 L 211.24,453.28 Z" fill="#A8C8E8" stroke="none"/>
<path d="M 166.31,442.73 L 163.39,444.78 L 165.22,446.90 L 162.10,446.50 L 163.19,443.50 L 166.31,442.73 Z" fill="#A8C8E8" stroke="none"/>
<path d="M 475.63,121.54 L 453.75,120.86 L 482.77,121.61 L 488.43,123.02 L 475.63,121.54 Z" fill="#A8C8E8" stroke="none"/>
<path d="M 276.75,491.73 L 275.20,492.99 L 275.60,491.85 L 276.75,491.73 Z" fill="#A8C8E8" stroke="none"/>
<path d="M 229.25,473.85 L 226.39,473.84 L 229.23,473.05 L 229.78,471.94 L 229.25,473.85 Z" fill="#A8C8E8" stroke="none"/>
<path d="M 214.80,456.09 L 214.55,455.70 L 215.09,455.45 L 214.80,456.09 Z" fill="#A8C8E8" stroke="none"/>
<path d="M 201.71,475.40 L 199.09,474.61 L 199.63,474.47 L 202.91,474.24 L 201.71,475.40 Z" fill="#A8C8E8" stroke="none"/>
<path d="M 219.53,474.38 L 218.25,473.84 L 220.60,474.45 L 219.53,474.38 Z" fill="#A8C8E8" stroke="none"/>
<path d="M 222.18,475.71 L 219.82,476.50 L 220.90,475.50 L 222.18,475.71 Z" fill="#A8C8E8" stroke="none"/>
<path d="M 247.40,473.85 L 246.33,473.68 L 247.18,473.35 L 247.40,473.85 Z" fill="#A8C8E8" stroke="none"/>
<path d="M 270.20,481.83 L 267.99,483.41 L 267.84,481.36 L 270.20,481.83 Z" fill="#A8C8E8" stroke="none"/>
<path d="M 286.15,451.48 L 284.03,450.69 L 285.76,448.59 L 286.15,451.48 Z" fill="#A8C8E8" stroke="none"/>
<path d="M 681.96,269.49 L 674.15,266.28 L 684.35,265.96 L 686.47,266.73 L 676.74,266.73 L 686.80,268.51 L 681.96,269.49 Z" fill="#A8C8E8" stroke="none"/>
<path d="M 629.59,231.12 L 625.59,228.66 L 628.79,226.05 L 634.73,229.38 L 629.59,231.12 Z" fill="#A8C8E8" stroke="none"/>
<path d="M 578.99,280.04 L 572.82,275.69 L 579.88,277.01 L 582.06,278.97 L 578.99,280.04 Z" fill="#A8C8E8" stroke="none"/>
<path d="M 638.69,296.98 L 638.69,296.25 L 635.06,296.63 L 633.44,296.09 L 636.69,294.08 L 645.24,294.43 L 642.50,293.67 L 645.10,293.04 L 646.33,294.49 L 638.69,296.98 Z" fill="#A8C8E8" stroke="none"/>
<path d="M 789.06,222.14 L 800.00,224.86 L 800.00,227.03 L 798.53,227.17 L 789.06,222.14 Z" fill="#A8C8E8" stroke="none"/>
<path d="M 767.89,163.76 L 763.41,163.56 L 759.83,160.77 L 753.93,161.71 L 757.08,160.30 L 751.48,158.99 L 768.62,161.86 L 767.89,163.76 Z" fill="#A8C8E8" stroke="none"/>
<path d="M 651.31,80.52 L 647.36,78.50 L 654.56,78.24 L 656.29,79.16 L 651.31,80.52 Z" fill="#A8C8E8" stroke="none"/>
<path d="M 469.14,148.37 L 434.85,142.66 L 425.84,143.19 L 414.76,143.32 L 407.04,142.90 L 403.64,141.66 L 436.14,142.16 L 470.45,147.10 L 469.14,148.37 Z" fill="#A8C8E8" stroke="none"/>
<path d="M 384.91,184.48 L 380.71,184.63 L 377.81,184.00 L 371.26,181.30 L 356.53,179.77 L 357.00,178.19 L 347.12,176.14 L 373.79,180.80 L 384.91,184.48 Z" fill="#A8C8E8" stroke="none"/>
<path d="M 316.38,203.16 L 323.62,203.48 L 334.36,205.59 L 332.27,209.31 L 329.78,205.83 L 316.38,203.16 Z" fill="#A8C8E8" stroke="none"/>
<path d="M 302.99,245.86 L 305.65,249.63 L 296.72,244.61 L 312.17,244.61 L 308.71,243.05 L 315.20,244.49 L 302.99,245.86 Z" fill="#A8C8E8" stroke="none"/>
<path d="M 300.12,232.51 L 308.29,233.75 L 315.60,237.70 L 305.08,236.10 L 300.12,232.51 Z" fill="#A8C8E8" stroke="none"/>
<path d="M 284.12,234.31 L 280.72,233.29 L 283.73,231.82 L 288.33,239.27 L 283.94,237.03 L 284.12,234.31 Z" fill="#A8C8E8" stroke="none"/>
<path d="M 371.31,287.79 L 360.48,287.46 L 368.91,286.05 L 372.06,286.52 L 371.31,287.79 Z" fill="#A8C8E8" stroke="none"/>
<path d="M 117.12,300.17 L 118.91,302.74 L 111.97,300.00 L 107.23,300.97 L 113.17,297.75 L 115.03,299.46 L 120.23,297.77 L 117.12,300.17 Z" fill="#A8C8E8" stroke="none"/>
<path d="M 73.90,257.47 L 52.64,258.27 L 48.41,257.31 L 73.90,257.47 Z" fill="#A8C8E8" stroke="none"/>
<path d="M 143.90,226.59 L 126.89,225.60 L 142.54,225.64 L 147.50,225.06 L 143.90,226.59 Z" fill="#A8C8E8" stroke="none"/>
<path d="M 197.76,203.16 L 171.03,206.17 L 169.54,207.76 L 167.31,208.01 L 168.11,206.13 L 197.76,203.16 Z" fill="#A8C8E8" stroke="none"/>
<path d="M 269.43,208.65 L 253.67,204.88 L 271.23,208.49 L 282.03,212.57 L 288.07,213.19 L 282.03,213.36 L 271.76,209.72 L 264.15,209.61 L 269.43,208.65 Z" fill="#A8C8E8" stroke="none"/>
<path d="M 238.19,189.02 L 244.49,187.29 L 246.33,187.92 L 243.97,189.34 L 251.18,192.70 L 238.19,189.02 Z" fill="#A8C8E8" stroke="none"/>
<path d="M 240.82,184.63 L 253.93,185.57 L 243.33,187.07 L 240.82,184.63 Z" fill="#A8C8E8" stroke="none"/>
<path d="M 252.34,170.18 L 258.92,169.56 L 253.67,166.73 L 259.24,167.70 L 268.73,165.36 L 277.54,165.32 L 263.26,168.84 L 267.34,170.18 L 252.34,170.18 Z" fill="#A8C8E8" stroke="none"/>
<path d="M 488.56,108.64 L 452.62,102.68 L 482.03,105.82 L 478.86,106.43 L 488.56,108.64 Z" fill="#A8C8E8" stroke="none"/>
<path d="M 264.58,324.00 L 273.88,321.52 L 273.88,324.80 L 270.06,325.47 L 269.49,324.03 L 264.58,324.00 Z" fill="#A8C8E8" stroke="none"/>
<path d="M 276.75,334.58 L 272.79,331.52 L 270.20,332.84 L 267.63,332.22 L 272.82,330.64 L 278.68,333.36 L 276.75,334.58 Z" fill="#A8C8E8" stroke="none"/>
<path d="M 340.80,332.53 L 331.42,331.68 L 334.36,331.35 L 333.21,330.01 L 340.80,332.53 Z" fill="#A8C8E8" stroke="none"/>
<path d="M 337.39,346.19 L 330.58,346.33 L 334.75,347.75 L 331.43,348.17 L 328.09,346.26 L 337.39,346.19 Z" fill="#A8C8E8" stroke="none"/>
<path d="M 310.37,346.02 L 312.72,348.85 L 308.22,346.34 L 305.46,347.98 L 299.24,344.78 L 299.79,343.32 L 301.51,345.36 L 306.25,344.48 L 312.26,345.70 L 313.17,347.22 L 310.37,346.02 Z" fill="#A8C8E8" stroke="none"/>
<path d="M 353.97,296.88 L 349.50,297.67 L 349.97,297.04 L 353.97,296.88 Z" fill="#A8C8E8" stroke="none"/>
<path d="M 123.31,435.88 L 120.44,434.91 L 121.35,434.35 L 124.10,434.27 L 123.31,435.88 Z" fill="#A8C8E8" stroke="none"/>
<path d="M 553.25,434.89 L 556.03,434.89 L 553.72,433.08 L 559.93,433.81 L 556.29,434.42 L 558.52,435.29 L 556.66,437.23 L 551.12,435.85 L 553.25,434.89 Z" fill="#A8C8E8" stroke="none"/>
<path d="M 478.34,443.54 L 476.62,445.13 L 473.06,446.67 L 476.11,444.76 L 473.31,442.69 L 478.34,443.54 Z" fill="#A8C8E8" stroke="none"/>
<path d="M 550.51,442.47 L 547.25,440.09 L 549.44,439.52 L 550.51,442.47 Z" fill="#A8C8E8" stroke="none"/>
<path d="M 556.78,443.85 L 558.94,445.26 L 552.34,444.78 L 552.41,443.39 L 550.23,445.26 L 550.51,442.47 L 560.49,443.20 L 556.78,443.85 Z" fill="#A8C8E8" stroke="none"/>
<path d="M 566.02,445.57 L 559.92,445.93 L 561.64,445.07 L 566.02,445.57 Z" fill="#A8C8E8" stroke="none"/>
<path d="M 560.23,438.17 L 554.44,440.41 L 558.13,438.60 L 557.30,437.49 L 560.23,438.17 Z" fill="#A8C8E8" stroke="none"/>
<path d="M 610.61,437.56 L 608.67,437.73 L 605.90,437.56 L 610.61,437.56 Z" fill="#A8C8E8" stroke="none"/>
<path d="M 758.40,373.98 L 749.99,375.70 L 752.43,373.72 L 758.40,373.98 Z" fill="#A8C8E8" stroke="none"/>
<path d="M 751.01,419.26 L 746.82,417.70 L 748.14,417.14 L 751.84,417.68 L 751.01,419.26 Z" fill="#A8C8E8" stroke="none"/>
<path d="M 776.94,385.44 L 772.28,384.49 L 774.77,383.45 L 778.25,384.40 L 776.94,385.44 Z" fill="#A8C8E8" stroke="none"/>
<path d="M 694.16,353.20 L 688.04,351.04 L 691.98,351.54 L 694.16,353.20 Z" fill="#A8C8E8" stroke="none"/>
<path d="M 412.79,315.72 L 409.29,318.23 L 398.85,316.68 L 398.54,318.23 L 389.09,315.89 L 390.95,317.59 L 383.85,317.45 L 387.40,315.27 L 377.32,315.09 L 369.56,312.12 L 363.95,312.54 L 371.52,314.41 L 362.86,312.41 L 343.69,313.20 L 338.18,311.96 L 349.57,312.86 L 357.82,311.09 L 357.45,309.44 L 365.19,311.25 L 368.24,309.74 L 378.33,310.85 L 377.79,309.40 L 391.45,312.51 L 388.55,309.08 L 390.43,308.35 L 396.04,311.92 L 403.65,313.10 L 405.88,311.01 L 397.26,308.23 L 399.31,306.63 L 395.35,307.11 L 396.18,310.24 L 392.79,307.79 L 394.62,306.55 L 389.88,306.14 L 398.54,304.73 L 401.96,306.61 L 398.28,308.19 L 403.23,309.04 L 403.52,307.26 L 407.04,309.84 L 405.93,314.49 L 417.59,315.88 L 412.79,315.72 Z" fill="#A8C8E8" stroke="none"/>
<path d="M 748.61,199.21 L 755.26,199.39 L 751.29,198.77 L 753.10,197.51 L 751.04,195.93 L 764.91,196.39 L 768.36,198.52 L 764.94,199.23 L 773.22,201.86 L 781.26,199.39 L 796.12,200.02 L 790.66,200.80 L 795.58,202.12 L 783.03,202.53 L 800.00,205.18 L 800.00,205.67 L 786.98,204.88 L 790.90,204.26 L 779.81,202.23 L 767.55,204.57 L 769.15,206.44 L 764.94,205.21 L 766.24,203.93 L 759.68,204.72 L 748.61,199.21 Z" fill="#A8C8E8" stroke="none"/>
<path d="M 770.98,151.02 L 775.64,147.62 L 778.68,148.63 L 773.39,145.47 L 784.49,147.18 L 782.01,148.83 L 787.77,149.93 L 795.92,148.20 L 791.05,150.89 L 778.83,149.12 L 773.85,149.78 L 772.69,152.29 L 767.23,150.49 L 770.98,151.02 Z" fill="#A8C8E8" stroke="none"/>
<path d="M 752.34,115.86 L 757.06,117.86 L 736.54,114.75 L 725.03,115.54 L 733.44,114.45 L 727.66,113.67 L 728.80,113.23 L 736.91,112.99 L 752.31,115.44 L 758.94,113.37 L 765.15,115.14 L 752.34,115.86 Z" fill="#A8C8E8" stroke="none"/>
<path d="M 777.61,114.39 L 774.14,116.64 L 777.82,117.30 L 786.98,116.95 L 781.46,115.54 L 789.34,114.76 L 789.04,117.09 L 799.07,115.48 L 800.00,115.81 L 800.00,116.86 L 799.07,117.11 L 800.00,117.22 L 800.00,117.54 L 792.75,117.43 L 786.98,119.94 L 788.58,121.00 L 781.69,121.41 L 766.77,119.31 L 773.59,117.74 L 765.35,114.82 L 777.61,114.39 Z" fill="#A8C8E8" stroke="none"/>
<path d="M 385.67,124.86 L 382.54,124.03 L 389.93,124.60 L 377.81,121.83 L 419.93,127.21 L 429.84,130.29 L 385.67,124.86 Z" fill="#A8C8E8" stroke="none"/>
<path d="M 444.99,130.99 L 483.49,139.64 L 464.11,137.40 L 454.65,133.68 L 430.22,129.81 L 444.99,130.99 Z" fill="#A8C8E8" stroke="none"/>
<path d="M 156.44,286.69 L 154.53,291.26 L 152.73,287.68 L 134.67,282.63 L 131.10,278.81 L 123.49,276.56 L 124.00,274.75 L 135.51,280.20 L 135.40,282.03 L 143.93,282.95 L 142.00,280.18 L 156.44,286.69 Z" fill="#A8C8E8" stroke="none"/>
<path d="M 652.70,419.27 L 652.09,419.66 L 648.76,419.99 L 652.09,419.03 L 643.48,417.91 L 651.54,418.41 L 652.70,419.27 Z" fill="#A8C8E8" stroke="none"/>
<path d="M 489.86,421.48 L 493.34,422.87 L 506.13,422.17 L 484.43,427.14 L 482.63,425.48 L 489.86,421.48 Z" fill="#A8C8E8" stroke="none"/>
<path d="M 466.24,432.70 L 467.05,431.59 L 461.03,430.32 L 482.63,425.48 L 484.43,427.14 L 466.24,432.70 Z" fill="#A8C8E8" stroke="none"/>
</svg>