<svg xmlns="http://www.w3.org/2000/svg" width="800" height="500" viewBox="0 0 800 500">
<rect width="800" height="500" fill="#A8C8E8"/>
<path d="M 256.91,411.34 L 263.58,412.03 L 255.47,416.21 L 256.91,411.34 Z M 286.97,370.79 L 280.66,357.86 L 283.60,357.68 L 286.97,370.79 Z M 355.84,356.28 L 348.67,363.26 L 348.97,358.49 L 355.84,356.28 Z M 293.10,342.20 L 289.36,347.73 L 287.00,341.71 L 293.10,342.20 Z M 528.07,339.18 L 511.01,343.36 L 512.92,337.41 L 528.07,339.18 Z M 387.12,335.90 L 388.17,340.83 L 384.43,340.96 L 379.25,329.40 L 387.12,335.90 Z M 348.20,324.72 L 338.53,318.18 L 345.78,316.76 L 348.20,324.72 Z M 151.31,300.59 L 185.13,334.93 L 267.72,355.00 L 286.61,391.48 L 209.63,432.30 L 197.26,423.66 L 185.97,422.11 L 203.99,434.17 L 259.74,418.76 L 331.51,376.80 L 391.07,417.26 L 400.18,461.73 L 365.07,462.78 L 364.90,476.91 L 318.88,500.00 L 150.07,500.00 L 150.07,295.62 L 151.31,300.59 Z M 351.37,493.65 L 345.50,500.00 L 321.21,500.00 L 351.37,493.65 Z M 318.80,376.53 L 296.89,376.32 L 302.94,351.93 L 320.81,362.87 L 318.80,376.53 Z M 356.71,339.06 L 340.74,324.15 L 351.26,328.50 L 356.71,339.06 Z M 415.25,327.26 L 422.00,339.39 L 417.31,338.61 L 402.82,322.13 L 415.25,327.26 Z M 342.79,359.46 L 330.78,324.28 L 337.56,323.09 L 351.33,339.18 L 342.79,359.46 Z M 404.76,333.04 L 404.95,341.01 L 388.39,324.15 L 404.76,333.04 Z M 418.91,314.56 L 405.98,303.88 L 412.41,299.43 L 418.91,314.56 Z M 562.91,301.50 L 561.23,311.36 L 554.74,300.59 L 562.91,301.50 Z M 328.18,301.30 L 327.09,286.94 L 335.84,283.99 L 344.16,302.35 L 328.18,301.30 Z M 276.09,352.19 L 258.49,337.16 L 199.40,336.95 L 182.23,324.15 L 196.94,311.65 L 191.78,287.72 L 205.65,284.71 L 213.32,302.60 L 222.42,304.96 L 238.05,302.60 L 282.55,336.06 L 276.09,352.19 Z M 294.80,330.22 L 242.25,299.43 L 216.33,300.92 L 243.98,278.84 L 294.70,315.62 L 294.80,330.22 Z M 445.57,305.92 L 416.58,293.15 L 435.98,274.99 L 454.01,279.27 L 445.57,305.92 Z M 534.04,315.62 L 519.73,330.98 L 496.92,311.13 L 506.94,299.09 L 473.48,303.78 L 467.38,289.77 L 521.08,269.13 L 534.04,315.62 Z M 188.34,292.45 L 191.85,308.64 L 176.43,314.47 L 155.12,288.80 L 151.64,242.12 L 192.68,266.53 L 188.34,292.45 Z M 193.52,262.04 L 170.32,239.77 L 150.07,234.42 L 150.07,214.81 L 191.01,223.81 L 193.52,262.04 Z M 369.34,500.00 L 359.07,500.00 L 362.09,495.50 L 369.34,500.00 Z M 583.90,500.00 L 556.04,500.00 L 546.04,494.11 L 525.90,500.00 L 511.73,500.00 L 499.19,490.62 L 519.35,455.86 L 550.85,490.01 L 563.75,482.41 L 583.90,500.00 Z M 505.59,456.93 L 495.41,446.27 L 495.81,433.12 L 505.59,456.93 Z M 540.95,455.48 L 507.73,422.69 L 516.77,425.55 L 540.95,455.48 Z M 494.43,414.95 L 484.16,403.49 L 487.10,402.96 L 494.43,414.95 Z M 473.41,355.12 L 474.47,362.76 L 472.77,361.69 L 464.86,349.95 L 473.41,355.12 Z M 463.26,347.15 L 461.74,338.73 L 473.79,336.14 L 475.52,349.95 L 463.26,347.15 Z M 458.71,335.83 L 446.63,312.33 L 458.04,322.55 L 466.47,323.09 L 458.71,335.83 Z M 548.95,345.40 L 546.63,348.68 L 543.73,345.31 L 548.95,345.40 Z M 534.46,332.45 L 529.62,334.58 L 530.99,328.10 L 534.46,332.45 Z" fill="#E8E0D0" stroke="#B8B0A0" stroke-width="0.5"/>
<path d="M 343.86,4.02 L 374.67,43.08 L 394.46,46.71 L 423.18,94.99 L 471.02,204.70 L 474.47,246.95 L 447.74,245.72 L 440.43,228.51 L 454.21,219.13 L 439.49,225.24 L 425.84,203.12 L 432.68,234.25 L 383.91,233.94 L 360.52,244.65 L 355.60,262.09 L 332.33,220.22 L 227.99,170.06 L 203.82,139.08 L 150.07,114.57 L 150.07,0.00 L 344.14,0.00 L 343.86,4.02 Z M 464.08,36.37 L 451.55,31.57 L 457.81,8.86 L 464.08,36.37 Z" fill="#E8E0D0" stroke="#B8B0A0" stroke-width="0.5"/>
<path d="M 405.98,262.74 L 374.98,254.00 L 385.59,237.26 L 425.02,243.24 L 405.98,262.74 Z" fill="#4A90D9" stroke="#1a5fa8" stroke-width="1.2"/>
</svg>