<svg xmlns="http://www.w3.org/2000/svg" width="800" height="500" viewBox="0 0 800 500">
<rect width="800" height="500" fill="#A8C8E8"/>
<path d="M 170.99,411.34 L 181.67,412.03 L 168.69,416.21 L 170.99,411.34 Z M 219.10,370.79 L 209.01,357.86 L 213.71,357.68 L 219.10,370.79 Z M 329.33,356.28 L 317.86,363.26 L 318.32,358.49 L 329.33,356.28 Z M 228.91,342.20 L 222.93,347.73 L 219.14,341.71 L 228.91,342.20 Z M 604.97,339.18 L 577.66,343.36 L 580.71,337.41 L 604.97,339.18 Z M 379.38,335.90 L 381.07,340.83 L 375.09,340.96 L 366.79,329.40 L 379.38,335.90 Z M 317.10,324.72 L 301.62,318.18 L 313.22,316.76 L 317.10,324.72 Z M 1.98,300.59 L 56.12,334.93 L 188.30,355.00 L 218.53,391.48 L 95.32,432.30 L 75.53,423.66 L 57.46,422.11 L 86.29,434.17 L 175.52,418.76 L 290.39,376.80 L 385.71,417.26 L 400.29,461.73 L 344.10,462.78 L 343.82,476.91 L 270.18,500.00 L 0.00,500.00 L 0.00,295.62 L 1.98,300.59 Z M 322.17,493.65 L 312.77,500.00 L 273.90,500.00 L 322.17,493.65 Z M 270.05,376.53 L 234.97,376.32 L 244.66,351.93 L 273.26,362.87 L 270.05,376.53 Z M 330.71,339.06 L 305.16,324.15 L 321.99,328.50 L 330.71,339.06 Z M 424.40,327.26 L 435.21,339.39 L 427.70,338.61 L 404.51,322.13 L 424.40,327.26 Z M 308.44,359.46 L 289.21,324.28 L 300.08,323.09 L 322.11,339.18 L 308.44,359.46 Z M 407.62,333.04 L 407.92,341.01 L 381.41,324.15 L 407.62,333.04 Z M 430.26,314.56 L 409.57,303.88 L 419.87,299.43 L 430.26,314.56 Z M 660.73,301.50 L 658.05,311.36 L 647.65,300.59 L 660.73,301.50 Z M 285.06,301.30 L 283.31,286.94 L 297.31,283.99 L 310.63,302.35 L 285.06,301.30 Z M 201.69,352.19 L 173.53,337.16 L 78.94,336.95 L 51.48,324.15 L 75.02,311.65 L 66.76,287.72 L 88.95,284.71 L 101.22,302.60 L 115.79,304.96 L 140.81,302.60 L 212.02,336.06 L 201.69,352.19 Z M 231.63,330.22 L 147.53,299.43 L 106.04,300.92 L 150.29,278.84 L 231.47,315.62 L 231.63,330.22 Z M 472.93,305.92 L 426.54,293.15 L 457.59,274.99 L 486.44,279.27 L 472.93,305.92 Z M 614.53,315.62 L 591.62,330.98 L 555.12,311.13 L 571.15,299.09 L 517.60,303.78 L 507.84,289.77 L 593.78,269.13 L 614.53,315.62 Z M 61.24,292.45 L 66.86,308.64 L 42.18,314.47 L 8.08,288.80 L 2.51,242.12 L 68.20,266.53 L 61.24,292.45 Z M 69.55,262.04 L 32.42,239.77 L 0.00,234.42 L 0.00,214.81 L 65.52,223.81 L 69.55,262.04 Z M 350.93,500.00 L 334.50,500.00 L 339.32,495.50 L 350.93,500.00 Z M 694.32,500.00 L 649.74,500.00 L 633.73,494.11 L 601.50,500.00 L 578.81,500.00 L 558.74,490.62 L 591.01,455.86 L 641.42,490.01 L 662.08,482.41 L 694.32,500.00 Z M 569.00,456.93 L 552.70,446.27 L 553.33,433.12 L 569.00,456.93 Z M 625.58,455.48 L 572.41,422.69 L 586.88,425.55 L 625.58,455.48 Z M 551.13,414.95 L 534.69,403.49 L 539.39,402.96 L 551.13,414.95 Z M 517.48,355.12 L 519.19,362.76 L 516.47,361.69 L 503.81,349.95 L 517.48,355.12 Z M 501.25,347.15 L 498.81,338.73 L 518.09,336.14 L 520.86,349.95 L 501.25,347.15 Z M 493.96,335.83 L 474.64,312.33 L 492.89,322.55 L 506.37,323.09 L 493.96,335.83 Z M 638.39,345.40 L 634.67,348.68 L 630.03,345.31 L 638.39,345.40 Z M 615.20,332.45 L 607.45,334.58 L 609.65,328.10 L 615.20,332.45 Z" fill="#E8E0D0" stroke="#B8B0A0" stroke-width="0.5"/>
<path d="M 310.15,4.02 L 359.46,43.08 L 391.14,46.71 L 437.10,94.99 L 513.66,204.70 L 519.19,246.95 L 476.41,245.72 L 464.71,228.51 L 486.76,219.13 L 463.20,225.24 L 441.35,203.12 L 452.30,234.25 L 374.25,233.94 L 336.82,244.65 L 328.94,262.09 L 291.69,220.22 L 124.70,170.06 L 86.02,139.08 L 0.00,114.57 L 0.00,0.00 L 310.59,0.00 L 310.15,4.02 Z M 502.55,36.37 L 482.51,31.57 L 492.52,8.86 L 502.55,36.37 Z" fill="#E8E0D0" stroke="#B8B0A0" stroke-width="0.5"/>
<path d="M 409.57,262.74 L 359.95,254.00 L 376.94,237.26 L 440.05,243.24 L 409.57,262.74 Z" fill="#4A90D9" stroke="#1a5fa8" stroke-width="1.2"/>
</svg>