<svg xmlns="http://www.w3.org/2000/svg" width="800" height="500" viewBox="0 0 800 500">
<rect width="800" height="500" fill="#A8C8E8"/>
<path d="M 74.53,3.57 L 103.24,13.58 L 92.05,43.81 L 56.50,29.94 L 53.80,12.43 L 11.48,18.36 L 0.00,16.18 L 0.00,0.00 L 77.46,0.00 L 74.53,3.57 Z" fill="#E8E0D0" stroke="#B8B0A0" stroke-width="0.5"/>
<path d="M 574.65,487.76 L 526.84,465.20 L 537.02,399.47 L 573.40,395.70 L 620.57,428.93 L 654.48,394.40 L 699.57,400.81 L 717.54,384.67 L 759.43,405.91 L 800.00,404.68 L 800.00,500.00 L 571.34,500.00 L 574.65,487.76 Z" fill="#E8E0D0" stroke="#B8B0A0" stroke-width="0.5"/>
<path d="M 741.62,5.93 L 697.30,11.09 L 664.30,0.00 L 738.83,0.00 L 741.62,5.93 Z M 635.17,13.29 L 670.63,19.44 L 680.03,32.56 L 672.33,45.86 L 639.34,54.62 L 645.60,73.38 L 635.96,87.38 L 651.38,95.14 L 637.85,112.86 L 647.69,116.85 L 613.97,115.95 L 567.22,143.55 L 572.80,168.08 L 546.34,159.68 L 512.09,160.76 L 484.45,176.84 L 420.56,171.38 L 386.82,178.95 L 337.38,213.71 L 0.00,165.49 L 0.00,16.18 L 11.48,18.36 L 53.80,12.43 L 56.50,29.94 L 92.05,43.81 L 103.24,13.58 L 74.53,3.57 L 77.46,0.00 L 658.54,0.00 L 635.17,13.29 Z" fill="#C8D8E8" stroke="#8BAABB" stroke-width="0.8"/>
<path d="M 703.71,213.21 L 775.86,275.28 L 800.00,279.08 L 800.00,404.68 L 759.43,405.91 L 717.54,384.67 L 699.57,400.81 L 654.48,394.40 L 620.57,428.93 L 573.40,395.70 L 537.02,399.47 L 526.84,465.20 L 574.65,487.76 L 571.34,500.00 L 418.35,500.00 L 411.85,496.36 L 392.15,472.31 L 398.18,435.56 L 387.20,414.49 L 342.24,383.24 L 300.89,375.38 L 275.35,432.64 L 262.20,437.01 L 264.58,431.25 L 257.64,423.04 L 251.22,458.34 L 233.70,455.14 L 238.14,463.77 L 235.77,464.69 L 191.13,417.71 L 207.56,408.11 L 186.79,406.41 L 188.95,379.11 L 172.62,349.14 L 233.52,362.93 L 246.73,348.78 L 310.66,354.46 L 343.85,324.78 L 378.33,356.44 L 398.34,348.67 L 432.88,361.93 L 462.53,358.37 L 453.50,335.12 L 470.28,329.09 L 451.34,316.09 L 518.48,297.61 L 521.98,267.22 L 504.74,255.14 L 512.70,240.43 L 573.20,226.18 L 579.38,213.89 L 614.09,214.57 L 607.60,195.79 L 625.02,187.41 L 703.71,213.21 Z M 368.20,475.50 L 404.05,500.00 L 393.45,500.00 L 368.20,475.50 Z M 327.94,500.00 L 317.37,500.00 L 309.11,495.78 L 304.76,473.38 L 327.94,500.00 Z M 356.12,460.57 L 367.11,460.57 L 360.57,453.01 L 388.20,473.29 L 356.12,460.57 Z M 319.45,482.79 L 298.13,443.40 L 316.82,435.94 L 295.62,411.42 L 301.23,402.18 L 326.72,433.59 L 333.17,481.91 L 319.45,482.79 Z M 319.00,415.48 L 335.75,408.06 L 338.73,390.26 L 381.17,432.64 L 366.57,437.98 L 319.00,415.48 Z M 295.94,479.51 L 294.46,489.67 L 288.31,487.56 L 295.94,479.51 Z" fill="#C8D8E8" stroke="#8BAABB" stroke-width="0.8"/>
<path d="M 203.53,191.67 L 150.00,227.52 L 157.15,240.38 L 193.39,244.69 L 165.39,271.88 L 188.37,275.16 L 182.01,299.39 L 215.93,312.97 L 234.42,330.40 L 226.94,337.77 L 205.25,336.44 L 220.62,333.14 L 183.32,305.75 L 155.81,323.59 L 150.66,312.78 L 110.78,308.51 L 105.30,328.83 L 0.00,360.64 L 0.00,360.58 L 25.06,342.74 L 0.00,344.55 L 0.00,165.45 L 203.53,191.67 Z M 17.43,433.81 L 3.19,457.17 L 0.00,451.30 L 0.00,423.92 L 17.43,433.81 Z M 1.01,364.18 L 0.00,364.79 L 0.00,363.75 L 1.01,364.18 Z" fill="#C8D8E8" stroke="#8BAABB" stroke-width="0.8"/>
<path d="M 784.66,279.80 L 703.71,213.21 L 652.31,194.48 L 628.89,172.41 L 622.02,141.71 L 585.13,138.07 L 613.97,115.95 L 647.69,116.85 L 637.85,112.86 L 651.38,95.14 L 635.96,87.38 L 645.60,73.38 L 639.34,54.62 L 672.33,45.86 L 680.03,32.56 L 670.63,19.44 L 635.17,13.29 L 658.54,0.00 L 664.30,0.00 L 697.30,11.09 L 741.62,5.93 L 738.83,0.00 L 800.00,0.00 L 800.00,280.99 L 784.66,279.80 Z" fill="#C8D8E8" stroke="#8BAABB" stroke-width="0.8"/>
<path d="M 182.43,344.87 L 234.42,330.40 L 184.44,302.68 L 188.37,275.16 L 165.39,271.88 L 193.39,244.69 L 157.15,240.38 L 150.00,227.52 L 203.53,191.67 L 337.38,213.71 L 386.82,178.95 L 420.56,171.38 L 484.45,176.84 L 512.09,160.76 L 546.34,159.68 L 572.80,168.08 L 565.67,144.65 L 585.13,138.07 L 622.02,141.71 L 630.16,174.58 L 650.00,187.75 L 612.23,192.26 L 614.09,214.57 L 579.38,213.89 L 573.20,226.18 L 512.70,240.43 L 504.74,255.14 L 521.98,267.22 L 518.48,297.61 L 451.34,316.09 L 470.28,329.09 L 453.50,335.12 L 462.53,358.37 L 432.88,361.93 L 398.34,348.67 L 378.33,356.44 L 343.85,324.78 L 310.66,354.46 L 194.28,357.34 L 182.43,344.87 Z" fill="#4A90D9" stroke="#1a5fa8" stroke-width="1.2"/>
<path d="M 769.12,158.56 L 800.00,150.87 L 800.00,160.49 L 769.12,158.56 Z" fill="#A8C8E8" stroke="none"/>
</svg>