<svg xmlns="http://www.w3.org/2000/svg" width="800" height="500" viewBox="0 0 800 500">
<rect width="800" height="500" fill="#A8C8E8"/>
<path d="M 702.63,341.48 L 730.87,361.29 L 798.49,372.90 L 800.00,372.50 L 800.00,500.00 L 575.70,500.00 L 602.76,451.52 L 603.32,432.21 L 626.60,399.97 L 658.61,392.50 L 702.63,341.48 Z" fill="#E8E0D0" stroke="#B8B0A0" stroke-width="0.5"/>
<path d="M 150.00,299.68 L 176.68,355.96 L 164.01,378.17 L 170.27,402.36 L 145.87,407.52 L 125.71,395.22 L 111.66,409.73 L 131.19,415.87 L 136.36,428.99 L 132.12,442.29 L 113.96,451.05 L 117.41,469.81 L 112.10,483.81 L 120.59,491.57 L 117.05,500.00 L 0.00,500.00 L 0.00,203.22 L 59.92,220.51 L 83.35,240.74 L 107.32,243.18 L 121.47,230.93 L 152.50,244.47 L 158.83,262.41 L 150.00,299.68 Z" fill="#C8D8E8" stroke="#8BAABB" stroke-width="0.8"/>
<path d="M 133.86,29.78 L 164.95,10.17 L 161.71,0.00 L 190.46,0.00 L 200.89,6.72 L 216.10,0.00 L 226.83,0.00 L 229.29,10.32 L 215.40,18.80 L 219.21,27.69 L 237.34,48.43 L 254.29,43.87 L 251.66,37.00 L 277.12,58.71 L 300.54,58.81 L 305.68,89.02 L 320.67,96.09 L 324.60,120.83 L 298.47,125.30 L 265.55,160.14 L 258.08,193.19 L 227.50,221.98 L 178.36,222.47 L 158.83,262.41 L 152.50,244.47 L 121.47,230.93 L 107.32,243.18 L 83.35,240.74 L 59.92,220.51 L 0.00,202.51 L 0.00,0.00 L 114.71,0.00 L 133.86,29.78 Z" fill="#C8D8E8" stroke="#8BAABB" stroke-width="0.8"/>
<path d="M 658.61,392.50 L 626.60,399.97 L 603.32,432.21 L 602.76,451.52 L 575.70,500.00 L 117.05,500.00 L 120.59,491.57 L 112.10,483.81 L 117.41,469.81 L 113.96,451.05 L 132.12,442.29 L 136.36,428.99 L 131.19,415.87 L 111.66,409.73 L 125.71,395.22 L 145.87,407.52 L 170.27,402.36 L 164.01,378.17 L 179.88,353.64 L 236.15,395.87 L 312.27,391.50 L 323.13,382.97 L 316.69,361.33 L 325.06,350.56 L 376.83,343.39 L 393.96,321.34 L 420.77,336.48 L 455.50,313.07 L 469.32,274.61 L 497.30,267.87 L 524.43,280.39 L 552.10,269.11 L 581.47,304.66 L 626.49,293.77 L 633.98,318.82 L 644.89,318.91 L 655.78,341.65 L 672.98,342.60 L 679.67,365.13 L 658.61,392.50 Z" fill="#C8D8E8" stroke="#8BAABB" stroke-width="0.8"/>
<path d="M 320.67,96.09 L 305.68,89.02 L 300.54,58.81 L 277.12,58.71 L 251.66,37.00 L 254.29,43.87 L 237.34,48.43 L 219.21,27.69 L 215.40,18.80 L 229.29,10.32 L 226.83,0.00 L 740.88,0.00 L 661.08,111.91 L 667.39,157.53 L 662.48,175.37 L 677.55,187.32 L 677.71,201.49 L 606.20,169.71 L 596.34,148.87 L 567.61,133.92 L 520.87,135.06 L 507.71,155.20 L 487.57,137.98 L 454.92,139.37 L 438.96,152.30 L 431.47,173.49 L 406.02,170.21 L 406.78,139.14 L 394.29,137.77 L 379.39,107.11 L 351.68,138.97 L 335.93,139.75 L 335.83,123.56 L 324.60,120.83 L 320.67,96.09 Z M 200.89,6.72 L 190.46,0.00 L 216.10,0.00 L 200.89,6.72 Z M 164.95,10.17 L 133.86,29.78 L 114.71,0.00 L 161.71,0.00 L 164.95,10.17 Z" fill="#C8D8E8" stroke="#8BAABB" stroke-width="0.8"/>
<path d="M 798.49,372.90 L 730.87,361.29 L 702.63,341.48 L 679.67,365.13 L 672.98,342.60 L 655.78,341.65 L 644.89,318.91 L 633.98,318.82 L 626.49,293.77 L 614.29,293.56 L 614.80,267.81 L 629.87,250.30 L 650.00,189.28 L 678.74,199.00 L 662.48,175.37 L 667.39,157.53 L 661.08,111.91 L 740.88,0.00 L 800.00,0.00 L 800.00,372.50 L 798.49,372.90 Z" fill="#C8D8E8" stroke="#8BAABB" stroke-width="0.8"/>
<path d="M 629.87,250.30 L 614.80,267.81 L 611.09,297.52 L 578.72,303.54 L 552.10,269.11 L 524.43,280.39 L 497.30,267.87 L 471.86,273.41 L 455.50,313.07 L 420.77,336.48 L 393.96,321.34 L 376.83,343.39 L 325.06,350.56 L 316.69,361.33 L 323.13,382.97 L 312.27,391.50 L 228.80,393.47 L 193.32,357.01 L 169.77,351.24 L 150.00,299.68 L 165.88,240.20 L 178.36,222.47 L 227.50,221.98 L 258.08,193.19 L 265.55,160.14 L 298.47,125.30 L 333.29,121.76 L 335.93,139.75 L 351.68,138.97 L 378.17,106.53 L 394.29,137.77 L 406.78,139.14 L 408.24,171.16 L 431.47,173.49 L 438.96,152.30 L 454.92,139.37 L 487.57,137.98 L 507.71,155.20 L 521.20,144.75 L 519.53,135.80 L 537.70,130.33 L 586.78,141.61 L 606.20,169.71 L 650.00,189.28 L 629.87,250.30 Z" fill="#4A90D9" stroke="#1a5fa8" stroke-width="1.2"/>
<path d="M 334.09,53.89 L 320.78,57.11 L 323.23,53.89 L 334.09,53.89 Z" fill="#A8C8E8" stroke="none"/>
</svg>