<svg xmlns="http://www.w3.org/2000/svg" width="800" height="500" viewBox="0 0 800 500">
<rect width="800" height="500" fill="#A8C8E8"/>
<path d="M 702.63,327.85 L 730.87,344.71 L 798.49,354.59 L 800.00,354.25 L 800.00,462.76 L 575.70,462.76 L 602.76,421.51 L 603.32,405.07 L 626.60,377.63 L 658.61,371.28 L 702.63,327.85 Z" fill="#E8E0D0" stroke="#B8B0A0" stroke-width="0.5"/>
<path d="M 150.00,292.28 L 176.68,340.18 L 164.01,359.08 L 170.27,379.67 L 145.87,384.06 L 125.71,373.59 L 111.66,385.94 L 131.19,391.17 L 136.36,402.33 L 132.12,413.65 L 113.96,421.11 L 117.41,437.07 L 112.10,448.99 L 120.59,455.59 L 117.05,462.76 L 0.00,462.76 L 0.00,210.19 L 59.92,224.90 L 83.35,242.12 L 107.32,244.19 L 121.47,233.77 L 152.50,245.29 L 158.83,260.56 L 150.00,292.28 Z" fill="#C8D8E8" stroke="#8BAABB" stroke-width="0.8"/>
<path d="M 133.86,62.58 L 164.95,45.89 L 161.71,37.24 L 190.46,37.24 L 200.89,42.96 L 216.10,37.24 L 226.83,37.24 L 229.29,46.02 L 215.40,53.24 L 219.21,60.80 L 237.34,78.45 L 254.29,74.57 L 251.66,68.73 L 277.12,87.21 L 300.54,87.29 L 305.68,113.00 L 320.67,119.02 L 324.60,140.07 L 298.47,143.87 L 265.55,173.52 L 258.08,201.65 L 227.50,226.15 L 178.36,226.57 L 158.83,260.56 L 152.50,245.29 L 121.47,233.77 L 107.32,244.19 L 83.35,242.12 L 59.92,224.90 L 0.00,209.58 L 0.00,37.24 L 114.71,37.24 L 133.86,62.58 Z" fill="#C8D8E8" stroke="#8BAABB" stroke-width="0.8"/>
<path d="M 658.61,371.28 L 626.60,377.63 L 603.32,405.07 L 602.76,421.51 L 575.70,462.76 L 117.05,462.76 L 120.59,455.59 L 112.10,448.99 L 117.41,437.07 L 113.96,421.11 L 132.12,413.65 L 136.36,402.33 L 131.19,391.17 L 111.66,385.94 L 125.71,373.59 L 145.87,384.06 L 170.27,379.67 L 164.01,359.08 L 179.88,338.20 L 236.15,374.14 L 312.27,370.43 L 323.13,363.17 L 316.69,344.75 L 325.06,335.58 L 376.83,329.48 L 393.96,310.71 L 420.77,323.60 L 455.50,303.67 L 469.32,270.94 L 497.30,265.21 L 524.43,275.86 L 552.10,266.26 L 581.47,296.52 L 626.49,287.25 L 633.98,308.57 L 644.89,308.64 L 655.78,328.00 L 672.98,328.80 L 679.67,347.98 L 658.61,371.28 Z" fill="#C8D8E8" stroke="#8BAABB" stroke-width="0.8"/>
<path d="M 320.67,119.02 L 305.68,113.00 L 300.54,87.29 L 277.12,87.21 L 251.66,68.73 L 254.29,74.57 L 237.34,78.45 L 219.21,60.80 L 215.40,53.24 L 229.29,46.02 L 226.83,37.24 L 740.88,37.24 L 661.08,132.48 L 667.39,171.30 L 662.48,186.48 L 677.55,196.65 L 677.71,208.72 L 606.20,181.67 L 596.34,163.94 L 567.61,151.21 L 520.87,152.18 L 507.71,169.32 L 487.57,154.67 L 454.92,155.85 L 438.96,166.85 L 431.47,184.89 L 406.02,182.10 L 406.78,155.65 L 394.29,154.48 L 379.39,128.40 L 351.68,155.50 L 335.93,156.17 L 335.83,142.39 L 324.60,140.07 L 320.67,119.02 Z M 200.89,42.96 L 190.46,37.24 L 216.10,37.24 L 200.89,42.96 Z M 164.95,45.89 L 133.86,62.58 L 114.71,37.24 L 161.71,37.24 L 164.95,45.89 Z" fill="#C8D8E8" stroke="#8BAABB" stroke-width="0.8"/>
<path d="M 798.49,354.59 L 730.87,344.71 L 702.63,327.85 L 679.67,347.98 L 672.98,328.80 L 655.78,328.00 L 644.89,308.64 L 633.98,308.57 L 626.49,287.25 L 614.29,287.07 L 614.80,265.16 L 629.87,250.25 L 650.00,198.32 L 678.74,206.60 L 662.48,186.48 L 667.39,171.30 L 661.08,132.48 L 740.88,37.24 L 800.00,37.24 L 800.00,354.25 L 798.49,354.59 Z" fill="#C8D8E8" stroke="#8BAABB" stroke-width="0.8"/>
<path d="M 629.87,250.25 L 614.80,265.16 L 611.09,290.45 L 578.72,295.57 L 552.10,266.26 L 524.43,275.86 L 497.30,265.21 L 471.86,269.92 L 455.50,303.67 L 420.77,323.60 L 393.96,310.71 L 376.83,329.48 L 325.06,335.58 L 316.69,344.75 L 323.13,363.17 L 312.27,370.43 L 228.80,372.10 L 193.32,341.07 L 169.77,336.16 L 150.00,292.28 L 165.88,241.66 L 178.36,226.57 L 227.50,226.15 L 258.08,201.65 L 265.55,173.52 L 298.47,143.87 L 333.29,140.86 L 335.93,156.17 L 351.68,155.50 L 378.17,127.90 L 394.29,154.48 L 406.78,155.65 L 408.24,182.90 L 431.47,184.89 L 438.96,166.85 L 454.92,155.85 L 487.57,154.67 L 507.71,169.32 L 521.20,160.42 L 519.53,152.81 L 537.70,148.16 L 586.78,157.76 L 606.20,181.67 L 650.00,198.32 L 629.87,250.25 Z" fill="#4A90D9" stroke="#1a5fa8" stroke-width="1.2"/>
<path d="M 334.09,83.10 L 320.78,85.84 L 323.23,83.10 L 334.09,83.10 Z" fill="#A8C8E8" stroke="none"/>
</svg>