<svg xmlns="http://www.w3.org/2000/svg" width="800" height="500" viewBox="0 0 800 500">
<rect width="800" height="500" fill="#A8C8E8"/>
<path d="M 173.75,175.88 L 156.89,174.78 L 161.31,167.55 L 147.65,176.23 L 150.00,158.46 L 132.33,165.56 L 134.18,150.07 L 114.74,149.03 L 119.26,136.89 L 109.19,143.89 L 102.41,136.89 L 79.59,142.78 L 106.94,114.61 L 92.01,109.06 L 79.14,119.09 L 86.37,98.52 L 60.27,107.23 L 24.58,90.51 L 34.26,72.78 L 8.87,87.42 L 11.43,74.86 L 0.00,80.92 L 0.00,0.00 L 800.00,0.00 L 800.00,317.19 L 774.57,277.54 L 779.70,261.48 L 750.20,256.60 L 754.62,249.15 L 742.77,252.11 L 734.25,239.16 L 686.53,253.48 L 672.24,243.10 L 634.68,246.10 L 604.93,264.70 L 574.96,267.19 L 616.94,228.04 L 597.42,213.51 L 598.35,189.24 L 573.13,186.22 L 584.93,163.58 L 558.98,154.87 L 498.06,94.89 L 380.39,93.84 L 378.45,100.99 L 342.08,105.80 L 319.66,100.27 L 287.26,105.15 L 238.93,159.39 L 206.84,167.04 L 206.63,176.66 L 180.67,190.27 L 150.00,190.52 L 173.75,175.88 Z M 781.10,359.83 L 800.00,328.44 L 800.00,359.59 L 781.10,359.83 Z" fill="#C8D8E8" stroke="#8BAABB" stroke-width="0.8"/>
<path d="M 478.58,376.35 L 594.85,319.88 L 595.36,293.16 L 643.59,277.78 L 650.00,247.13 L 681.66,244.54 L 686.53,253.48 L 734.25,239.16 L 742.77,252.11 L 754.62,249.15 L 750.20,256.60 L 779.70,261.48 L 774.57,277.54 L 800.00,317.19 L 800.00,328.44 L 781.10,359.83 L 800.00,359.59 L 800.00,500.00 L 667.08,500.00 L 641.50,485.89 L 566.18,469.94 L 570.97,458.63 L 472.62,428.44 L 452.25,406.25 L 478.58,376.35 Z" fill="#C8D8E8" stroke="#8BAABB" stroke-width="0.8"/>
<path d="M 643.59,277.78 L 595.36,293.16 L 594.85,319.88 L 478.58,376.35 L 452.25,406.25 L 392.06,382.91 L 281.59,358.43 L 304.30,358.43 L 284.46,352.81 L 294.55,343.81 L 335.05,336.78 L 288.69,340.93 L 275.41,331.62 L 290.64,319.37 L 265.81,328.54 L 210.16,307.95 L 229.47,304.79 L 214.48,293.28 L 220.43,285.93 L 204.49,270.59 L 172.72,278.98 L 152.37,245.55 L 194.31,258.10 L 180.64,248.32 L 221.45,238.54 L 211.27,237.15 L 220.43,226.74 L 189.63,237.11 L 195.44,230.21 L 173.75,228.19 L 182.07,237.33 L 172.97,243.77 L 160.08,212.44 L 202.24,209.26 L 178.28,208.56 L 187.43,200.93 L 155.65,199.61 L 150.00,190.52 L 180.67,190.27 L 206.63,176.66 L 206.84,167.04 L 238.93,159.39 L 287.26,105.15 L 319.66,100.27 L 342.08,105.80 L 378.45,100.99 L 380.39,93.84 L 490.16,93.75 L 549.95,136.95 L 558.98,154.87 L 584.93,163.58 L 573.13,186.22 L 598.35,189.24 L 597.42,213.51 L 616.94,228.04 L 574.96,267.19 L 650.00,247.13 L 643.59,277.78 Z M 274.45,358.45 L 265.20,349.40 L 207.88,339.56 L 262.57,333.02 L 283.84,340.31 L 274.45,358.45 Z" fill="#4A90D9" stroke="#1a5fa8" stroke-width="1.2"/>
</svg>