<svg xmlns="http://www.w3.org/2000/svg" width="800" height="500" viewBox="0 0 800 500">
<rect width="800" height="500" fill="#A8C8E8"/>
<path d="M 262.64,175.88 L 252.40,174.78 L 255.09,167.55 L 246.79,176.23 L 248.22,158.46 L 237.49,165.56 L 238.61,150.07 L 226.81,149.03 L 229.56,136.89 L 223.45,143.89 L 219.33,136.89 L 205.47,142.78 L 222.07,114.61 L 213.02,109.06 L 205.20,119.09 L 209.59,98.52 L 193.74,107.23 L 172.08,90.51 L 177.95,72.78 L 162.54,87.42 L 164.09,74.86 L 157.15,80.92 L 157.15,0.00 L 642.85,0.00 L 642.85,317.19 L 627.41,277.54 L 630.53,261.48 L 612.61,256.60 L 615.30,249.15 L 608.10,252.11 L 602.93,239.16 L 573.96,253.48 L 565.28,243.10 L 542.48,246.10 L 524.42,264.70 L 506.22,267.19 L 531.71,228.04 L 519.86,213.51 L 520.42,189.24 L 505.11,186.22 L 512.27,163.58 L 496.52,154.87 L 459.54,94.89 L 388.09,93.84 L 386.92,100.99 L 364.84,105.80 L 351.22,100.27 L 331.56,105.15 L 302.21,159.39 L 282.73,167.04 L 282.60,176.66 L 266.84,190.27 L 248.22,190.52 L 262.64,175.88 Z M 631.37,359.83 L 642.85,328.44 L 642.85,359.59 L 631.37,359.83 Z" fill="#C8D8E8" stroke="#8BAABB" stroke-width="0.8"/>
<path d="M 447.71,376.35 L 518.30,319.88 L 518.61,293.16 L 547.89,277.78 L 551.78,247.13 L 571.00,244.54 L 573.96,253.48 L 602.93,239.16 L 608.10,252.11 L 615.30,249.15 L 612.61,256.60 L 630.53,261.48 L 627.41,277.54 L 642.85,317.19 L 642.85,328.44 L 631.37,359.83 L 642.85,359.59 L 642.85,500.00 L 562.15,500.00 L 546.62,485.89 L 500.89,469.94 L 503.80,458.63 L 444.09,428.44 L 431.72,406.25 L 447.71,376.35 Z" fill="#C8D8E8" stroke="#8BAABB" stroke-width="0.8"/>
<path d="M 547.89,277.78 L 518.61,293.16 L 518.30,319.88 L 447.71,376.35 L 431.72,406.25 L 395.18,382.91 L 328.11,358.43 L 341.90,358.43 L 329.86,352.81 L 335.98,343.81 L 360.57,336.78 L 332.42,340.93 L 324.36,331.62 L 333.60,319.37 L 318.53,328.54 L 284.75,307.95 L 296.47,304.79 L 287.37,293.28 L 290.98,285.93 L 281.30,270.59 L 262.01,278.98 L 249.66,245.55 L 275.12,258.10 L 266.82,248.32 L 291.60,238.54 L 285.42,237.15 L 290.98,226.74 L 272.28,237.11 L 275.81,230.21 L 262.64,228.19 L 267.69,237.33 L 262.16,243.77 L 254.34,212.44 L 279.93,209.26 L 265.39,208.56 L 270.94,200.93 L 251.65,199.61 L 248.22,190.52 L 266.84,190.27 L 282.60,176.66 L 282.73,167.04 L 302.21,159.39 L 331.56,105.15 L 351.22,100.27 L 364.84,105.80 L 386.92,100.99 L 388.09,93.84 L 454.74,93.75 L 491.04,136.95 L 496.52,154.87 L 512.27,163.58 L 505.11,186.22 L 520.42,189.24 L 519.86,213.51 L 531.71,228.04 L 506.22,267.19 L 551.78,247.13 L 547.89,277.78 Z M 323.78,358.45 L 318.16,349.40 L 283.36,339.56 L 316.57,333.02 L 329.48,340.31 L 323.78,358.45 Z" fill="#4A90D9" stroke="#1a5fa8" stroke-width="1.2"/>
</svg>