<svg xmlns="http://www.w3.org/2000/svg" width="800" height="500" viewBox="0 0 800 500">
<rect width="800" height="500" fill="#A8C8E8"/>
<path d="M 575.61,115.12 L 563.25,111.93 L 566.38,120.55 L 564.72,121.47 L 533.23,74.49 L 544.82,64.89 L 530.16,63.19 L 531.69,35.89 L 520.16,5.92 L 563.12,19.71 L 572.45,5.56 L 579.99,6.51 L 579.99,81.03 L 575.61,115.12 Z" fill="#E8E0D0" stroke="#B8B0A0" stroke-width="0.5"/>
<path d="M 527.08,1.65 L 531.26,0.00 L 579.99,0.00 L 579.99,12.56 L 535.44,14.12 L 527.08,1.65 Z" fill="#E8E0D0" stroke="#B8B0A0" stroke-width="0.5"/>
<path d="M 398.29,17.46 L 415.59,0.00 L 439.06,0.00 L 398.29,17.46 Z M 395.26,1.65 L 368.00,36.93 L 376.55,53.99 L 385.20,49.86 L 392.12,84.19 L 392.12,75.65 L 410.68,90.59 L 400.64,113.95 L 396.40,102.89 L 397.44,116.64 L 380.59,112.99 L 392.12,202.99 L 428.42,243.62 L 532.37,310.83 L 579.99,449.18 L 579.99,500.00 L 294.68,500.00 L 280.50,491.08 L 250.13,493.52 L 259.33,479.61 L 255.96,466.53 L 231.79,438.56 L 220.01,433.83 L 220.01,0.00 L 411.36,0.00 L 395.26,1.65 Z M 404.43,255.12 L 404.87,244.88 L 395.13,250.22 L 404.43,255.12 Z M 226.65,500.00 L 224.99,500.00 L 222.59,497.43 L 226.65,500.00 Z M 394.41,18.17 L 399.10,20.96 L 386.79,31.53 L 394.41,18.17 Z M 391.55,15.65 L 391.36,17.45 L 386.70,18.74 L 391.55,15.65 Z" fill="#C8D8E8" stroke="#8BAABB" stroke-width="0.8"/>
<path d="M 395.13,250.22 L 404.87,244.88 L 404.43,255.12 L 395.13,250.22 Z" fill="#4A90D9" stroke="#1a5fa8" stroke-width="1.2"/>
<path d="M 348.96,469.61 L 334.82,462.03 L 338.69,454.25 L 348.03,454.67 L 348.96,469.61 Z" fill="#A8C8E8" stroke="none"/>
</svg>