<svg xmlns="http://www.w3.org/2000/svg" width="800" height="500" viewBox="0 0 800 500">
<rect width="800" height="500" fill="#A8C8E8"/>
<path d="M 790.28,115.12 L 762.81,111.93 L 769.77,120.55 L 766.07,121.47 L 696.08,74.49 L 721.84,64.89 L 689.26,63.19 L 692.66,35.89 L 667.05,5.92 L 762.52,19.71 L 783.25,5.56 L 800.00,6.51 L 800.00,81.03 L 790.28,115.12 Z" fill="#E8E0D0" stroke="#B8B0A0" stroke-width="0.5"/>
<path d="M 682.43,1.65 L 691.72,0.00 L 800.00,0.00 L 800.00,12.56 L 701.00,14.12 L 682.43,1.65 Z" fill="#E8E0D0" stroke="#B8B0A0" stroke-width="0.5"/>
<path d="M 396.19,17.46 L 434.64,0.00 L 486.82,0.00 L 396.19,17.46 Z M 389.46,1.65 L 328.89,36.93 L 347.89,53.99 L 367.10,49.86 L 382.48,84.19 L 382.48,75.65 L 423.74,90.59 L 401.42,113.95 L 392.00,102.89 L 394.32,116.64 L 356.87,112.99 L 382.48,202.99 L 463.17,243.62 L 694.17,310.83 L 800.00,449.18 L 800.00,500.00 L 165.94,500.00 L 134.43,491.08 L 66.93,493.52 L 87.39,479.61 L 79.89,466.53 L 26.18,438.56 L 0.00,433.83 L 0.00,0.00 L 425.25,0.00 L 389.46,1.65 Z M 409.84,255.12 L 410.81,244.88 L 389.19,250.22 L 409.84,255.12 Z M 14.74,500.00 L 11.06,500.00 L 5.73,497.43 L 14.74,500.00 Z M 387.57,18.17 L 398.00,20.96 L 370.64,31.53 L 387.57,18.17 Z M 381.22,15.65 L 380.79,17.45 L 370.44,18.74 L 381.22,15.65 Z" fill="#C8D8E8" stroke="#8BAABB" stroke-width="0.8"/>
<path d="M 389.19,250.22 L 410.81,244.88 L 409.84,255.12 L 389.19,250.22 Z" fill="#4A90D9" stroke="#1a5fa8" stroke-width="1.2"/>
<path d="M 286.57,469.61 L 255.15,462.03 L 263.76,454.25 L 284.51,454.67 L 286.57,469.61 Z" fill="#A8C8E8" stroke="none"/>
</svg>