<svg xmlns="http://www.w3.org/2000/svg" width="800" height="500" viewBox="0 0 800 500">
<rect width="800" height="500" fill="#A8C8E8"/>
<path d="M 207.45,332.65 L 219.72,321.42 L 240.82,341.94 L 239.15,337.08 L 253.95,333.62 L 256.42,338.53 L 257.87,338.88 L 262.63,337.08 L 256.46,333.00 L 261.82,326.23 L 305.77,324.37 L 312.06,320.46 L 328.56,325.36 L 331.47,324.33 L 332.29,321.42 L 311.03,319.13 L 263.41,324.38 L 243.17,332.77 L 232.49,331.19 L 229.27,314.95 L 314.12,315.22 L 324.21,301.80 L 348.32,298.35 L 366.08,301.15 L 377.33,312.92 L 393.46,311.11 L 407.86,324.36 L 438.53,315.51 L 452.34,326.18 L 445.68,334.36 L 407.60,339.98 L 345.07,314.74 L 333.73,329.68 L 289.68,333.01 L 288.49,345.60 L 220.15,345.06 L 213.63,352.14 L 207.45,332.65 Z" fill="#C8D8E8" stroke="#8BAABB" stroke-width="0.8"/>
<path d="M 383.53,496.73 L 381.87,494.74 L 371.99,500.00 L 366.77,500.00 L 362.89,497.22 L 362.38,500.00 L 355.95,500.00 L 379.76,463.83 L 395.22,462.73 L 414.03,451.62 L 436.36,453.88 L 448.16,446.29 L 459.56,448.70 L 460.05,427.83 L 439.83,417.23 L 450.61,408.28 L 462.40,407.15 L 459.69,380.04 L 512.71,382.71 L 514.70,394.38 L 525.99,389.81 L 570.90,406.25 L 591.80,399.00 L 642.42,397.51 L 649.98,400.63 L 640.29,414.37 L 654.37,426.16 L 666.04,427.00 L 677.34,413.60 L 685.49,412.39 L 705.07,435.84 L 721.31,419.61 L 741.21,412.51 L 785.45,426.21 L 793.17,415.90 L 800.00,413.85 L 800.00,500.00 L 378.85,500.00 L 383.53,496.73 Z" fill="#C8D8E8" stroke="#8BAABB" stroke-width="0.8"/>
<path d="M 462.40,407.15 L 450.61,408.28 L 439.83,417.23 L 460.05,427.83 L 459.56,448.70 L 448.16,446.29 L 436.36,453.88 L 414.03,451.62 L 395.22,462.73 L 379.76,463.83 L 352.66,500.00 L 350.81,500.00 L 356.19,483.83 L 337.54,499.65 L 339.46,482.62 L 337.27,490.55 L 327.13,489.00 L 321.60,478.86 L 334.46,468.43 L 328.35,472.32 L 327.52,466.27 L 315.02,473.78 L 317.75,464.05 L 336.73,458.17 L 333.40,454.76 L 346.84,455.26 L 346.24,460.41 L 355.67,455.69 L 342.28,452.28 L 345.62,448.83 L 337.72,452.35 L 337.84,445.47 L 320.58,459.58 L 321.59,449.85 L 317.54,452.65 L 311.42,447.04 L 320.58,436.19 L 340.87,437.20 L 348.95,432.29 L 350.61,442.02 L 361.48,445.63 L 350.55,437.95 L 355.67,429.57 L 338.77,434.47 L 321.59,430.79 L 288.72,445.96 L 296.55,438.13 L 291.56,436.19 L 278.27,446.92 L 285.88,430.00 L 297.66,430.35 L 298.22,426.90 L 286.00,425.92 L 264.80,436.19 L 246.05,421.80 L 269.79,403.01 L 237.71,415.77 L 215.68,404.33 L 256.84,395.60 L 301.20,396.72 L 340.39,379.61 L 459.69,380.04 L 462.40,407.15 Z M 284.89,494.03 L 276.70,495.85 L 280.95,492.84 L 279.29,485.01 L 284.89,494.03 Z M 277.01,491.00 L 273.54,494.39 L 270.29,487.62 L 277.01,491.00 Z M 264.19,497.22 L 254.76,491.82 L 266.80,484.44 L 270.95,490.85 L 264.19,497.22 Z M 289.09,478.42 L 285.40,485.01 L 283.35,481.56 L 289.09,478.42 Z M 302.71,482.62 L 293.37,486.95 L 294.94,479.62 L 302.71,477.71 L 302.71,482.62 Z M 254.48,483.77 L 252.02,481.99 L 258.13,477.18 L 260.86,483.55 L 254.48,483.77 Z M 300.99,467.90 L 296.47,467.22 L 299.88,463.52 L 300.99,467.90 Z M 250.36,466.96 L 261.47,462.54 L 257.53,467.90 L 250.36,466.96 Z M 240.82,464.49 L 240.26,461.57 L 254.76,457.68 L 252.52,463.97 L 240.82,464.49 Z M 279.84,456.18 L 283.22,466.96 L 272.06,469.35 L 268.13,465.95 L 279.84,456.18 Z M 317.90,458.94 L 305.00,461.59 L 313.26,454.76 L 317.90,458.94 Z M 271.92,435.21 L 276.10,436.05 L 271.56,445.47 L 261.47,437.20 L 271.92,435.21 Z" fill="#C8D8E8" stroke="#8BAABB" stroke-width="0.8"/>
<path d="M 594.53,233.19 L 614.87,221.39 L 612.81,201.51 L 622.46,175.71 L 631.58,175.71 L 638.94,168.42 L 688.49,206.93 L 703.93,183.41 L 757.42,188.28 L 800.00,183.89 L 800.00,413.85 L 793.17,415.90 L 785.45,426.21 L 741.21,412.51 L 721.31,419.61 L 705.07,435.84 L 685.49,412.39 L 677.34,413.60 L 666.04,427.00 L 654.37,426.16 L 640.29,414.37 L 649.98,400.63 L 650.87,393.81 L 643.54,389.30 L 649.97,358.87 L 638.24,348.81 L 631.73,331.06 L 621.31,327.71 L 614.24,334.88 L 592.32,306.58 L 603.28,297.67 L 600.46,273.68 L 582.23,257.64 L 586.84,239.78 L 578.78,230.30 L 594.53,233.19 Z" fill="#C8D8E8" stroke="#8BAABB" stroke-width="0.8"/>
<path d="M 757.42,188.28 L 703.93,183.41 L 688.49,206.93 L 638.94,168.42 L 631.58,175.71 L 622.46,175.71 L 612.81,201.51 L 614.87,221.39 L 594.53,233.19 L 569.15,225.24 L 560.82,213.04 L 528.01,196.39 L 532.91,194.04 L 521.83,177.99 L 512.11,179.16 L 510.00,171.77 L 499.58,169.84 L 493.23,147.97 L 479.49,131.97 L 464.52,135.48 L 459.60,129.51 L 450.95,134.42 L 439.40,118.93 L 404.52,95.93 L 358.35,93.75 L 347.51,95.60 L 346.09,101.49 L 318.52,101.58 L 301.59,108.71 L 252.66,105.74 L 237.62,129.18 L 230.82,156.64 L 231.88,119.31 L 268.51,32.94 L 271.26,0.00 L 800.00,0.00 L 800.00,183.89 L 757.42,188.28 Z" fill="#C8D8E8" stroke="#8BAABB" stroke-width="0.8"/>
<path d="M 586.84,239.78 L 582.23,257.64 L 600.46,273.68 L 603.28,297.67 L 592.32,306.58 L 614.24,334.88 L 621.31,327.71 L 631.73,331.06 L 638.24,348.81 L 649.59,358.14 L 643.54,389.30 L 650.00,399.25 L 591.80,399.00 L 570.90,406.25 L 525.99,389.81 L 514.70,394.38 L 511.47,382.55 L 340.39,379.61 L 301.20,396.72 L 256.84,395.60 L 215.68,404.33 L 209.80,392.79 L 227.78,382.94 L 231.55,387.74 L 244.76,388.82 L 272.51,382.93 L 287.94,388.33 L 296.92,385.88 L 303.82,389.74 L 314.80,382.72 L 312.76,372.23 L 323.18,371.04 L 324.41,368.30 L 311.57,371.43 L 312.14,381.75 L 304.13,388.16 L 293.82,383.46 L 281.98,385.19 L 273.13,376.08 L 268.68,382.50 L 244.76,387.80 L 234.16,377.58 L 233.60,383.46 L 223.31,380.33 L 226.88,373.73 L 226.38,371.21 L 222.29,382.98 L 213.55,387.25 L 211.73,379.71 L 218.08,375.55 L 210.17,377.06 L 209.62,370.02 L 217.31,345.61 L 288.49,345.60 L 289.68,333.01 L 333.73,329.68 L 345.07,314.74 L 407.60,339.98 L 445.68,334.36 L 452.34,326.18 L 438.53,315.51 L 407.86,324.36 L 393.46,311.11 L 377.33,312.92 L 366.08,301.15 L 350.06,298.42 L 324.21,301.80 L 314.12,315.22 L 229.27,314.95 L 233.54,304.03 L 226.22,310.16 L 223.71,302.59 L 229.66,296.52 L 235.32,299.44 L 235.32,285.33 L 217.99,301.98 L 214.19,288.99 L 228.05,286.31 L 226.88,282.41 L 245.27,273.56 L 236.81,271.71 L 221.73,285.32 L 216.28,284.36 L 221.88,278.43 L 215.73,280.91 L 211.89,297.00 L 211.00,281.26 L 197.13,257.72 L 175.37,236.33 L 159.65,232.96 L 157.83,238.94 L 150.00,231.55 L 179.53,221.33 L 203.50,197.66 L 231.47,158.38 L 237.03,130.61 L 250.93,106.63 L 264.17,103.49 L 301.59,108.71 L 318.52,101.58 L 346.09,101.49 L 347.51,95.60 L 358.35,93.75 L 404.52,95.93 L 439.40,118.93 L 450.95,134.42 L 459.60,129.51 L 464.52,135.48 L 479.49,131.97 L 493.23,147.97 L 499.58,169.84 L 510.00,171.77 L 512.11,179.16 L 521.83,177.99 L 532.91,194.04 L 528.01,196.39 L 560.82,213.04 L 586.84,239.78 Z" fill="#4A90D9" stroke="#1a5fa8" stroke-width="1.2"/>
</svg>