<svg xmlns="http://www.w3.org/2000/svg" width="800" height="500" viewBox="0 0 800 500">
<rect width="800" height="500" fill="#A8C8E8"/>
<path d="M 236.68,332.65 L 247.09,321.42 L 264.99,341.94 L 263.57,337.08 L 276.12,333.62 L 278.22,338.53 L 279.45,338.88 L 283.48,337.08 L 278.25,333.00 L 282.80,326.23 L 320.07,324.37 L 325.41,320.46 L 339.41,325.36 L 341.88,324.33 L 342.57,321.42 L 324.54,319.13 L 284.15,324.38 L 266.98,332.77 L 257.92,331.19 L 255.19,314.95 L 327.16,315.22 L 335.72,301.80 L 356.16,298.35 L 371.23,301.15 L 380.77,312.92 L 394.46,311.11 L 406.67,324.36 L 432.68,315.51 L 444.39,326.18 L 438.75,334.36 L 406.44,339.98 L 353.41,314.74 L 343.79,329.68 L 306.43,333.01 L 305.42,345.60 L 247.46,345.06 L 241.93,352.14 L 236.68,332.65 Z" fill="#C8D8E8" stroke="#8BAABB" stroke-width="0.8"/>
<path d="M 386.03,496.73 L 384.62,494.74 L 376.24,500.00 L 371.81,500.00 L 368.52,497.22 L 368.10,500.00 L 362.64,500.00 L 382.83,463.83 L 395.95,462.73 L 411.90,451.62 L 430.84,453.88 L 440.85,446.29 L 450.52,448.70 L 450.93,427.83 L 433.78,417.23 L 442.92,408.28 L 452.92,407.15 L 450.63,380.04 L 495.60,382.71 L 497.28,394.38 L 506.86,389.81 L 544.96,406.25 L 562.68,399.00 L 605.61,397.51 L 612.03,400.63 L 603.81,414.37 L 615.75,426.16 L 625.65,427.00 L 635.23,413.60 L 642.14,412.39 L 658.75,435.84 L 672.53,419.61 L 689.41,412.51 L 726.93,426.21 L 733.47,415.90 L 739.27,413.85 L 739.27,500.00 L 382.07,500.00 L 386.03,496.73 Z" fill="#C8D8E8" stroke="#8BAABB" stroke-width="0.8"/>
<path d="M 452.92,407.15 L 442.92,408.28 L 433.78,417.23 L 450.93,427.83 L 450.52,448.70 L 440.85,446.29 L 430.84,453.88 L 411.90,451.62 L 395.95,462.73 L 382.83,463.83 L 359.84,500.00 L 358.28,500.00 L 362.84,483.83 L 347.03,499.65 L 348.65,482.62 L 346.79,490.55 L 338.19,489.00 L 333.51,478.86 L 344.41,468.43 L 339.23,472.32 L 338.52,466.27 L 327.92,473.78 L 330.24,464.05 L 346.34,458.17 L 343.51,454.76 L 354.91,455.26 L 354.40,460.41 L 362.40,455.69 L 351.05,452.28 L 353.88,448.83 L 347.17,452.35 L 347.28,445.47 L 332.64,459.58 L 333.49,449.85 L 330.06,452.65 L 324.87,447.04 L 332.64,436.19 L 349.85,437.20 L 356.70,432.29 L 358.11,442.02 L 367.32,445.63 L 358.06,437.95 L 362.40,429.57 L 348.07,434.47 L 333.49,430.79 L 305.62,445.96 L 312.25,438.13 L 308.02,436.19 L 296.75,446.92 L 303.21,430.00 L 313.20,430.35 L 313.67,426.90 L 303.31,425.92 L 285.32,436.19 L 269.42,421.80 L 289.56,403.01 L 262.35,415.77 L 243.67,404.33 L 278.58,395.60 L 316.20,396.72 L 349.44,379.61 L 450.63,380.04 L 452.92,407.15 Z M 302.37,494.03 L 295.42,495.85 L 299.03,492.84 L 297.62,485.01 L 302.37,494.03 Z M 295.68,491.00 L 292.74,494.39 L 289.99,487.62 L 295.68,491.00 Z M 284.81,497.22 L 276.81,491.82 L 287.02,484.44 L 290.55,490.85 L 284.81,497.22 Z M 305.93,478.42 L 302.80,485.01 L 301.06,481.56 L 305.93,478.42 Z M 317.48,482.62 L 309.56,486.95 L 310.89,479.62 L 317.48,477.71 L 317.48,482.62 Z M 276.57,483.77 L 274.49,481.99 L 279.67,477.18 L 281.99,483.55 L 276.57,483.77 Z M 316.02,467.90 L 312.19,467.22 L 315.08,463.52 L 316.02,467.90 Z M 273.08,466.96 L 282.50,462.54 L 279.16,467.90 L 273.08,466.96 Z M 264.99,464.49 L 264.51,461.57 L 276.81,457.68 L 274.91,463.97 L 264.99,464.49 Z M 298.08,456.18 L 300.95,466.96 L 291.49,469.35 L 288.15,465.95 L 298.08,456.18 Z M 330.37,458.94 L 319.42,461.59 L 326.43,454.76 L 330.37,458.94 Z M 291.37,435.21 L 294.91,436.05 L 291.06,445.47 L 282.50,437.20 L 291.37,435.21 Z" fill="#C8D8E8" stroke="#8BAABB" stroke-width="0.8"/>
<path d="M 565.00,233.19 L 582.24,221.39 L 580.50,201.51 L 588.68,175.71 L 596.42,175.71 L 602.66,168.42 L 644.69,206.93 L 657.78,183.41 L 703.16,188.28 L 739.27,183.89 L 739.27,413.85 L 733.47,415.90 L 726.93,426.21 L 689.41,412.51 L 672.53,419.61 L 658.75,435.84 L 642.14,412.39 L 635.23,413.60 L 625.65,427.00 L 615.75,426.16 L 603.81,414.37 L 612.03,400.63 L 612.78,393.81 L 606.57,389.30 L 612.01,358.87 L 602.07,348.81 L 596.54,331.06 L 587.71,327.71 L 581.71,334.88 L 563.12,306.58 L 572.41,297.67 L 570.02,273.68 L 554.56,257.64 L 558.47,239.78 L 551.63,230.30 L 565.00,233.19 Z" fill="#C8D8E8" stroke="#8BAABB" stroke-width="0.8"/>
<path d="M 703.16,188.28 L 657.78,183.41 L 644.69,206.93 L 602.66,168.42 L 596.42,175.71 L 588.68,175.71 L 580.50,201.51 L 582.24,221.39 L 565.00,233.19 L 543.47,225.24 L 536.40,213.04 L 508.57,196.39 L 512.73,194.04 L 503.33,177.99 L 495.09,179.16 L 493.30,171.77 L 484.46,169.84 L 479.08,147.97 L 467.42,131.97 L 454.72,135.48 L 450.55,129.51 L 443.22,134.42 L 433.41,118.93 L 403.84,95.93 L 364.68,93.75 L 355.48,95.60 L 354.27,101.49 L 330.89,101.58 L 316.53,108.71 L 275.03,105.74 L 262.27,129.18 L 256.51,156.64 L 257.41,119.31 L 288.47,32.94 L 290.81,0.00 L 739.27,0.00 L 739.27,183.89 L 703.16,188.28 Z" fill="#C8D8E8" stroke="#8BAABB" stroke-width="0.8"/>
<path d="M 558.47,239.78 L 554.56,257.64 L 570.02,273.68 L 572.41,297.67 L 563.12,306.58 L 581.71,334.88 L 587.71,327.71 L 596.54,331.06 L 602.07,348.81 L 611.70,358.14 L 606.57,389.30 L 612.04,399.25 L 562.68,399.00 L 544.96,406.25 L 506.86,389.81 L 497.28,394.38 L 494.54,382.55 L 349.44,379.61 L 316.20,396.72 L 278.58,395.60 L 243.67,404.33 L 238.68,392.79 L 253.93,382.94 L 257.13,387.74 L 268.33,388.82 L 291.86,382.93 L 304.96,388.33 L 312.57,385.88 L 318.42,389.74 L 327.73,382.72 L 326.00,372.23 L 334.84,371.04 L 335.89,368.30 L 325.00,371.43 L 325.48,381.75 L 318.68,388.16 L 309.94,383.46 L 299.90,385.19 L 292.39,376.08 L 288.62,382.50 L 268.33,387.80 L 259.33,377.58 L 258.86,383.46 L 250.14,380.33 L 253.17,373.73 L 252.74,371.21 L 249.27,382.98 L 241.86,387.25 L 240.31,379.71 L 245.70,375.55 L 238.99,377.06 L 238.53,370.02 L 245.05,345.61 L 305.42,345.60 L 306.43,333.01 L 343.79,329.68 L 353.41,314.74 L 406.44,339.98 L 438.75,334.36 L 444.39,326.18 L 432.68,315.51 L 406.67,324.36 L 394.46,311.11 L 380.77,312.92 L 371.23,301.15 L 357.64,298.42 L 335.72,301.80 L 327.16,315.22 L 255.19,314.95 L 258.81,304.03 L 252.61,310.16 L 250.48,302.59 L 255.53,296.52 L 260.32,299.44 L 260.32,285.33 L 245.63,301.98 L 242.40,288.99 L 254.16,286.31 L 253.17,282.41 L 268.76,273.56 L 261.58,271.71 L 248.79,285.32 L 244.18,284.36 L 248.92,278.43 L 243.71,280.91 L 240.45,297.00 L 239.70,281.26 L 227.93,257.72 L 209.47,236.33 L 196.14,232.96 L 194.60,238.94 L 187.96,231.55 L 213.00,221.33 L 233.33,197.66 L 257.06,158.38 L 261.77,130.61 L 273.56,106.63 L 284.79,103.49 L 316.53,108.71 L 330.89,101.58 L 354.27,101.49 L 355.48,95.60 L 364.68,93.75 L 403.84,95.93 L 433.41,118.93 L 443.22,134.42 L 450.55,129.51 L 454.72,135.48 L 467.42,131.97 L 479.08,147.97 L 484.46,169.84 L 493.30,171.77 L 495.09,179.16 L 503.33,177.99 L 512.73,194.04 L 508.57,196.39 L 536.40,213.04 L 558.47,239.78 Z" fill="#4A90D9" stroke="#1a5fa8" stroke-width="1.2"/>
</svg>