<svg xmlns="http://www.w3.org/2000/svg" width="800" height="500" viewBox="0 0 800 500">
<rect width="800" height="500" fill="#A8C8E8"/>
<path d="M 241.40,474.58 L 241.37,478.41 L 238.98,479.78 L 238.43,482.78 L 239.76,483.88 L 233.67,500.00 L 210.46,500.00 L 210.46,452.35 L 241.40,474.58 Z M 243.64,498.09 L 244.06,500.00 L 243.13,500.00 L 243.64,498.09 Z M 251.60,488.25 L 254.27,487.15 L 253.26,487.17 L 251.29,486.05 L 253.48,486.37 L 252.07,479.18 L 255.20,481.55 L 255.98,479.34 L 254.62,490.98 L 251.14,491.14 L 251.60,488.25 Z M 241.56,500.00 L 241.39,500.00 L 241.39,499.44 L 241.56,500.00 Z M 251.35,491.99 L 251.52,492.56 L 250.51,492.28 L 249.60,490.70 L 251.35,491.99 Z" fill="#E8E0D0" stroke="#B8B0A0" stroke-width="0.5"/>
<path d="M 462.55,151.70 L 440.72,184.92 L 417.98,184.92 L 350.77,162.34 L 341.62,154.31 L 337.01,152.57 L 331.74,141.83 L 329.02,140.94 L 323.76,134.42 L 319.49,125.22 L 333.91,104.94 L 338.61,107.64 L 338.58,110.88 L 346.35,120.84 L 358.13,129.71 L 363.56,130.41 L 372.10,129.68 L 390.46,119.12 L 405.89,123.34 L 427.68,112.12 L 434.61,114.02 L 444.16,113.22 L 453.07,109.05 L 462.55,110.65 L 462.55,151.70 Z" fill="#E8E0D0" stroke="#B8B0A0" stroke-width="0.5"/>
<path d="M 324.50,79.20 L 322.76,83.70 L 320.17,85.28 L 315.56,81.71 L 313.37,82.86 L 308.95,76.76 L 303.53,73.49 L 298.19,65.01 L 286.37,56.60 L 278.20,45.41 L 261.63,37.19 L 256.81,38.09 L 248.23,34.87 L 241.25,37.78 L 239.41,34.08 L 236.73,32.96 L 233.47,36.56 L 223.48,38.31 L 218.99,32.31 L 213.92,31.29 L 211.30,27.75 L 210.46,29.69 L 210.46,0.00 L 242.34,0.00 L 243.20,3.79 L 246.45,6.46 L 246.92,13.02 L 250.42,13.58 L 252.79,22.85 L 254.96,23.20 L 255.95,21.04 L 254.10,16.08 L 256.42,13.49 L 261.07,17.22 L 259.86,19.58 L 262.88,25.40 L 265.78,26.97 L 270.92,24.60 L 275.05,27.37 L 276.69,31.96 L 285.81,33.29 L 297.38,49.20 L 304.05,51.36 L 307.17,55.97 L 309.83,58.02 L 308.94,55.43 L 311.30,57.55 L 313.37,65.58 L 316.88,65.36 L 321.34,69.91 L 322.51,74.05 L 325.84,75.47 L 327.51,72.94 L 330.16,77.34 L 324.50,79.20 Z M 268.21,11.93 L 258.77,11.15 L 257.83,8.97 L 261.10,9.90 L 257.67,8.11 L 260.11,5.85 L 258.14,4.59 L 262.36,6.59 L 262.98,10.28 L 265.33,8.93 L 268.21,11.93 Z M 261.86,2.49 L 259.03,1.76 L 260.21,0.00 L 260.55,0.00 L 261.86,2.49 Z" fill="#E8E0D0" stroke="#B8B0A0" stroke-width="0.5"/>
<path d="M 535.70,2.53 L 537.36,10.93 L 517.79,19.75 L 499.28,23.89 L 490.76,28.58 L 485.36,28.68 L 472.41,32.99 L 466.05,35.97 L 464.02,40.42 L 457.02,46.84 L 445.49,48.54 L 441.58,46.52 L 427.51,55.71 L 411.65,60.84 L 388.11,62.86 L 382.13,69.07 L 375.66,71.54 L 374.30,76.10 L 372.50,75.64 L 373.31,73.89 L 370.05,75.15 L 370.27,76.83 L 364.11,74.79 L 359.68,78.20 L 349.00,79.85 L 341.14,76.23 L 338.13,77.88 L 338.24,74.17 L 332.63,64.18 L 333.87,54.18 L 326.56,36.11 L 327.97,37.74 L 324.84,27.65 L 326.25,29.30 L 326.06,26.17 L 324.39,21.88 L 318.62,19.44 L 320.26,19.37 L 320.94,16.63 L 322.82,20.22 L 320.48,8.97 L 323.73,4.10 L 323.32,0.00 L 536.94,0.00 L 535.70,2.53 Z M 561.43,90.59 L 561.96,90.96 L 560.89,90.88 L 561.43,90.59 Z M 556.87,90.43 L 554.57,89.79 L 555.00,89.46 L 556.87,90.43 Z M 541.00,90.10 L 533.62,88.12 L 534.86,87.99 L 541.00,90.10 Z M 337.69,78.59 L 337.39,79.07 L 336.36,78.29 L 337.69,78.59 Z M 589.54,80.79 L 589.54,81.14 L 580.85,85.48 L 571.54,86.64 L 561.89,81.09 L 566.71,77.19 L 574.15,79.83 L 580.37,77.49 L 589.54,80.79 Z M 322.82,53.09 L 320.40,55.51 L 320.51,54.70 L 322.82,53.09 Z M 322.97,47.30 L 322.52,49.66 L 320.48,47.53 L 322.97,47.30 Z M 317.97,16.06 L 317.67,18.86 L 317.45,16.02 L 319.20,14.82 L 317.97,16.06 Z" fill="#E8E0D0" stroke="#B8B0A0" stroke-width="0.5"/>
<path d="M 562.68,491.51 L 562.75,491.76 L 562.59,491.54 L 562.68,491.51 Z" fill="#E8E0D0" stroke="#B8B0A0" stroke-width="0.5"/>
<path d="M 324.60,116.83 L 318.74,114.29 L 303.32,117.94 L 299.31,116.42 L 300.02,100.25 L 314.54,81.62 L 320.17,85.28 L 322.76,83.70 L 324.50,79.20 L 330.16,77.34 L 334.97,82.34 L 336.91,88.37 L 336.06,93.39 L 332.18,94.46 L 328.75,97.99 L 322.42,99.62 L 319.93,103.35 L 316.46,103.23 L 318.47,105.65 L 324.20,102.73 L 330.94,102.37 L 332.96,105.20 L 324.60,116.83 Z" fill="#C8D8E8" stroke="#8BAABB" stroke-width="0.8"/>
<path d="M 211.30,27.75 L 213.92,31.29 L 218.99,32.31 L 223.48,38.31 L 233.47,36.56 L 236.73,32.96 L 239.41,34.08 L 241.25,37.78 L 248.23,34.87 L 256.81,38.09 L 261.63,37.19 L 278.20,45.41 L 286.37,56.60 L 298.19,65.01 L 303.53,73.49 L 308.95,76.76 L 313.37,82.86 L 300.02,100.25 L 299.31,116.42 L 303.32,117.94 L 318.74,114.29 L 325.75,116.36 L 319.46,124.73 L 323.76,134.42 L 329.02,140.94 L 331.74,141.83 L 337.01,152.57 L 341.62,154.31 L 349.88,161.82 L 417.98,184.92 L 440.72,184.92 L 405.35,219.17 L 371.64,255.36 L 349.52,254.39 L 339.50,256.96 L 330.19,261.39 L 323.65,269.27 L 307.08,271.80 L 301.01,277.33 L 285.70,277.49 L 276.62,269.67 L 255.81,279.21 L 247.98,289.80 L 225.35,284.15 L 216.09,285.02 L 210.46,281.08 L 210.46,29.69 L 211.30,27.75 Z" fill="#C8D8E8" stroke="#8BAABB" stroke-width="0.8"/>
<path d="M 216.09,285.02 L 225.35,284.15 L 247.98,289.80 L 255.81,279.21 L 276.62,269.67 L 285.70,277.49 L 302.13,276.70 L 289.79,294.42 L 281.21,303.26 L 281.54,387.40 L 293.89,403.43 L 294.17,406.25 L 288.43,412.47 L 286.98,411.41 L 282.29,414.15 L 282.14,410.94 L 280.75,414.86 L 278.84,412.35 L 281.53,418.71 L 280.74,420.25 L 278.88,418.47 L 276.86,419.56 L 277.83,422.27 L 274.05,425.50 L 270.42,425.25 L 264.53,428.46 L 262.95,434.52 L 264.55,435.61 L 262.05,442.12 L 259.01,444.54 L 258.48,443.35 L 256.21,450.10 L 254.27,448.96 L 256.23,451.89 L 254.40,456.96 L 252.06,456.96 L 253.46,458.14 L 252.42,459.96 L 251.53,458.19 L 249.26,459.76 L 251.66,461.41 L 245.52,473.22 L 243.35,472.44 L 240.85,474.32 L 210.46,452.36 L 210.46,281.08 L 216.09,285.02 Z M 285.53,415.74 L 281.85,417.69 L 281.30,415.92 L 283.23,414.32 L 285.53,415.74 Z" fill="#C8D8E8" stroke="#8BAABB" stroke-width="0.8"/>
<path d="M 440.72,184.92 L 462.55,151.70 L 462.55,110.65 L 492.78,102.88 L 501.26,94.54 L 504.83,93.75 L 516.08,97.31 L 511.27,108.54 L 511.38,112.04 L 513.73,113.18 L 512.04,116.49 L 513.08,125.51 L 509.65,129.26 L 514.43,129.08 L 513.43,126.32 L 518.41,128.23 L 518.46,130.13 L 511.47,129.87 L 507.77,131.68 L 505.56,152.42 L 496.68,164.56 L 488.75,181.16 L 482.68,186.35 L 480.86,194.22 L 469.56,212.00 L 464.76,227.22 L 440.02,265.74 L 396.79,311.46 L 362.73,331.92 L 342.47,349.14 L 304.10,390.35 L 303.67,387.94 L 302.13,395.14 L 300.85,394.21 L 301.02,396.34 L 294.17,406.25 L 293.89,403.43 L 281.54,387.40 L 281.54,302.62 L 289.79,294.42 L 303.00,274.57 L 306.30,272.19 L 323.65,269.27 L 330.19,261.39 L 348.69,254.59 L 371.64,255.36 L 406.33,218.22 L 440.72,184.92 Z" fill="#4A90D9" stroke="#1a5fa8" stroke-width="1.2"/>
<path d="M 296.04,107.67 L 295.05,107.96 L 294.89,107.55 L 296.04,107.67 Z" fill="#A8C8E8" stroke="none"/>
<path d="M 238.33,177.50 L 236.21,177.05 L 236.48,175.95 L 239.02,173.96 L 238.33,177.50 Z" fill="#A8C8E8" stroke="none"/>
<path d="M 296.64,104.25 L 296.34,102.46 L 297.34,102.94 L 297.99,104.39 L 296.64,104.25 Z" fill="#A8C8E8" stroke="none"/>
<path d="M 317.72,368.56 L 311.33,366.25 L 311.91,364.33 L 317.39,366.79 L 317.72,368.56 Z" fill="#A8C8E8" stroke="none"/>
<path d="M 216.93,216.93 L 216.55,220.23 L 210.46,229.22 L 210.46,226.21 L 210.94,225.98 L 210.86,218.84 L 213.77,216.43 L 216.93,216.93 Z" fill="#A8C8E8" stroke="none"/>
<path d="M 314.95,100.93 L 314.09,102.07 L 313.48,100.53 L 314.95,100.93 Z" fill="#A8C8E8" stroke="none"/>
<path d="M 302.06,111.62 L 299.56,114.52 L 297.46,112.16 L 300.16,110.00 L 302.06,111.62 Z" fill="#A8C8E8" stroke="none"/>
</svg>