<svg xmlns="http://www.w3.org/2000/svg" width="800" height="500" viewBox="0 0 800 500">
<rect width="800" height="500" fill="#A8C8E8"/>
<path d="M 505.78,370.70 L 523.75,358.87 L 539.15,331.12 L 536.07,310.50 L 551.68,285.85 L 552.30,273.21 L 533.84,254.21 L 521.43,230.53 L 515.42,177.06 L 528.57,152.80 L 547.33,136.97 L 556.85,113.80 L 634.64,139.28 L 644.69,149.40 L 644.69,370.91 L 628.31,382.20 L 606.75,380.51 L 609.32,376.36 L 601.08,368.95 L 587.01,376.66 L 569.54,367.52 L 543.55,386.64 L 505.78,370.70 Z" fill="#E8E0D0" stroke="#B8B0A0" stroke-width="0.5"/>
<path d="M 157.55,441.26 L 179.55,447.07 L 189.48,456.41 L 199.70,449.25 L 213.11,450.29 L 213.50,437.39 L 227.98,425.19 L 249.97,431.53 L 253.14,420.95 L 284.91,417.09 L 303.04,396.94 L 319.15,393.61 L 326.15,401.34 L 341.50,404.72 L 365.84,399.61 L 405.42,406.25 L 408.09,391.44 L 390.96,375.97 L 404.13,355.37 L 422.63,365.40 L 446.98,362.89 L 452.90,356.27 L 480.00,349.46 L 485.91,361.60 L 499.19,361.72 L 499.12,370.81 L 541.79,386.91 L 569.54,367.52 L 587.01,376.66 L 601.08,368.95 L 609.32,376.36 L 606.75,380.51 L 629.90,382.06 L 644.69,368.83 L 644.69,500.00 L 155.31,500.00 L 155.31,438.64 L 157.55,441.26 Z" fill="#C8D8E8" stroke="#8BAABB" stroke-width="0.8"/>
<path d="M 341.50,404.72 L 326.15,401.34 L 319.15,393.61 L 303.04,396.94 L 284.91,417.09 L 253.14,420.95 L 249.97,431.53 L 227.98,425.19 L 213.50,437.39 L 213.11,450.29 L 199.70,449.25 L 189.48,456.41 L 179.55,447.07 L 157.55,441.26 L 155.31,438.64 L 155.31,0.00 L 215.41,0.00 L 215.65,18.66 L 201.06,66.35 L 207.76,63.27 L 217.41,32.86 L 228.61,27.57 L 251.59,35.12 L 282.11,62.51 L 287.33,74.65 L 290.20,69.15 L 296.34,71.12 L 314.44,88.22 L 314.88,121.76 L 301.82,145.96 L 312.76,157.05 L 305.32,156.92 L 305.21,168.25 L 275.48,169.30 L 263.23,175.57 L 257.61,185.09 L 264.20,196.01 L 246.94,233.56 L 264.77,270.29 L 278.70,281.24 L 277.89,290.75 L 291.28,294.60 L 303.86,290.39 L 311.82,331.63 L 320.25,337.06 L 349.09,393.00 L 365.84,399.61 L 341.50,404.72 Z M 227.00,22.08 L 217.49,28.23 L 218.50,23.75 L 227.00,22.08 Z" fill="#C8D8E8" stroke="#8BAABB" stroke-width="0.8"/>
<path d="M 536.07,310.50 L 539.15,331.12 L 512.05,369.66 L 499.12,370.81 L 499.19,361.72 L 485.91,361.60 L 480.00,349.46 L 452.90,356.27 L 446.98,362.89 L 422.63,365.40 L 404.13,355.37 L 390.96,375.97 L 408.09,391.44 L 405.42,406.25 L 351.14,393.84 L 320.25,337.06 L 311.82,331.63 L 303.86,290.39 L 291.28,294.60 L 278.26,291.07 L 278.70,281.24 L 264.77,270.29 L 249.60,245.84 L 247.07,232.01 L 264.20,196.01 L 258.12,182.56 L 275.48,169.30 L 305.96,167.81 L 305.32,156.92 L 313.12,156.01 L 302.07,145.13 L 314.71,127.91 L 319.32,103.16 L 330.24,93.75 L 406.76,109.30 L 409.63,118.92 L 405.62,103.52 L 413.63,96.43 L 451.75,97.42 L 465.85,101.52 L 467.20,108.09 L 470.52,103.43 L 476.18,105.48 L 487.20,105.48 L 464.94,97.77 L 473.58,95.14 L 549.15,106.47 L 552.93,113.73 L 547.33,131.23 L 515.42,177.06 L 525.38,241.79 L 552.75,274.16 L 536.07,310.50 Z" fill="#4A90D9" stroke="#1a5fa8" stroke-width="1.2"/>
<path d="M 480.75,190.79 L 483.03,196.41 L 487.46,193.29 L 487.27,200.02 L 481.05,204.18 L 476.29,193.41 L 467.90,210.42 L 458.77,203.51 L 449.19,207.96 L 451.28,198.98 L 458.96,199.25 L 454.84,190.75 L 464.08,182.21 L 465.89,169.98 L 478.11,171.92 L 480.63,179.07 L 491.66,175.82 L 488.63,189.02 L 486.85,184.49 L 480.75,190.79 Z" fill="#A8C8E8" stroke="none"/>
</svg>