<svg xmlns="http://www.w3.org/2000/svg" width="800" height="500" viewBox="0 0 800 500">
<rect width="800" height="500" fill="#A8C8E8"/>
<path d="M 572.92,370.70 L 602.29,358.87 L 627.47,331.12 L 622.45,310.50 L 647.96,285.85 L 648.96,273.21 L 618.78,254.21 L 598.50,230.53 L 588.67,177.06 L 610.17,152.80 L 640.84,136.97 L 656.41,113.80 L 783.57,139.28 L 800.00,149.40 L 800.00,370.91 L 773.23,382.20 L 737.98,380.51 L 742.19,376.36 L 728.72,368.95 L 705.71,376.66 L 677.15,367.52 L 634.66,386.64 L 572.92,370.70 Z" fill="#E8E0D0" stroke="#B8B0A0" stroke-width="0.5"/>
<path d="M 3.66,441.26 L 39.63,447.07 L 55.86,456.41 L 72.57,449.25 L 94.48,450.29 L 95.13,437.39 L 118.80,425.19 L 154.74,431.53 L 159.92,420.95 L 211.87,417.09 L 241.49,396.94 L 267.84,393.61 L 279.27,401.34 L 304.36,404.72 L 344.15,399.61 L 408.86,406.25 L 413.22,391.44 L 385.22,375.97 L 406.76,355.37 L 437.00,365.40 L 476.79,362.89 L 486.48,356.27 L 530.78,349.46 L 540.44,361.60 L 562.14,361.72 L 562.03,370.81 L 631.79,386.91 L 677.15,367.52 L 705.71,376.66 L 728.72,368.95 L 742.19,376.36 L 737.98,380.51 L 775.83,382.06 L 800.00,368.83 L 800.00,500.00 L 0.00,500.00 L 0.00,438.64 L 3.66,441.26 Z" fill="#C8D8E8" stroke="#8BAABB" stroke-width="0.8"/>
<path d="M 304.36,404.72 L 279.27,401.34 L 267.84,393.61 L 241.49,396.94 L 211.87,417.09 L 159.92,420.95 L 154.74,431.53 L 118.80,425.19 L 95.13,437.39 L 94.48,450.29 L 72.57,449.25 L 55.86,456.41 L 39.63,447.07 L 3.66,441.26 L 0.00,438.64 L 0.00,0.00 L 98.24,0.00 L 98.64,18.66 L 74.79,66.35 L 85.74,63.27 L 101.51,32.86 L 119.82,27.57 L 157.39,35.12 L 207.28,62.51 L 215.82,74.65 L 220.51,69.15 L 230.54,71.12 L 260.14,88.22 L 260.85,121.76 L 239.50,145.96 L 257.38,157.05 L 245.22,156.92 L 245.04,168.25 L 196.45,169.30 L 176.42,175.57 L 167.23,185.09 L 178.01,196.01 L 149.78,233.56 L 178.94,270.29 L 201.71,281.24 L 200.38,290.75 L 222.27,294.60 L 242.84,290.39 L 255.85,331.63 L 269.63,337.06 L 316.78,393.00 L 344.15,399.61 L 304.36,404.72 Z M 117.19,22.08 L 101.64,28.23 L 103.29,23.75 L 117.19,22.08 Z" fill="#C8D8E8" stroke="#8BAABB" stroke-width="0.8"/>
<path d="M 622.45,310.50 L 627.47,331.12 L 583.18,369.66 L 562.03,370.81 L 562.14,361.72 L 540.44,361.60 L 530.78,349.46 L 486.48,356.27 L 476.79,362.89 L 437.00,365.40 L 406.76,355.37 L 385.22,375.97 L 413.22,391.44 L 408.86,406.25 L 320.13,393.84 L 269.63,337.06 L 255.85,331.63 L 242.84,290.39 L 222.27,294.60 L 200.99,291.07 L 201.71,281.24 L 178.94,270.29 L 154.14,245.84 L 150.00,232.01 L 178.01,196.01 L 168.07,182.56 L 196.45,169.30 L 246.27,167.81 L 245.22,156.92 L 257.98,156.01 L 239.92,145.13 L 260.58,127.91 L 268.11,103.16 L 285.97,93.75 L 411.05,109.30 L 415.74,118.92 L 409.19,103.52 L 422.28,96.43 L 484.59,97.42 L 507.65,101.52 L 509.85,108.09 L 515.28,103.43 L 524.53,105.48 L 542.55,105.48 L 506.16,97.77 L 520.28,95.14 L 643.83,106.47 L 650.00,113.73 L 640.84,131.23 L 588.67,177.06 L 604.96,241.79 L 649.70,274.16 L 622.45,310.50 Z" fill="#4A90D9" stroke="#1a5fa8" stroke-width="1.2"/>
<path d="M 532.01,190.79 L 535.74,196.41 L 542.97,193.29 L 542.67,200.02 L 532.49,204.18 L 524.72,193.41 L 510.99,210.42 L 496.07,203.51 L 480.41,207.96 L 483.82,198.98 L 496.38,199.25 L 489.65,190.75 L 504.75,182.21 L 507.71,169.98 L 527.69,171.92 L 531.81,179.07 L 549.85,175.82 L 544.88,189.02 L 541.98,184.49 L 532.01,190.79 Z" fill="#A8C8E8" stroke="none"/>
</svg>