<svg xmlns="http://www.w3.org/2000/svg" width="800" height="500" viewBox="0 0 800 500">
<rect width="800" height="500" fill="#A8C8E8"/>
<path d="M 789.49,14.10 L 786.06,8.30 L 781.07,6.54 L 774.97,12.19 L 756.33,14.93 L 747.95,5.52 L 738.51,3.92 L 735.05,0.00 L 800.00,0.00 L 800.00,10.41 L 789.49,14.10 Z M 719.29,26.09 L 708.26,13.48 L 700.93,14.79 L 698.34,19.95 L 685.10,17.97 L 675.69,20.43 L 672.88,0.00 L 732.77,0.00 L 719.29,26.09 Z" fill="#E8E0D0" stroke="#B8B0A0" stroke-width="0.5"/>
<path d="M 88.03,5.19 L 74.74,10.40 L 77.52,20.39 L 82.50,24.86 L 68.43,31.42 L 62.50,37.73 L 70.67,53.70 L 57.79,62.16 L 51.23,73.07 L 56.60,78.59 L 63.81,78.20 L 68.01,74.87 L 78.23,79.61 L 75.14,84.91 L 79.86,95.59 L 78.75,100.40 L 85.30,98.88 L 82.30,114.63 L 92.07,122.86 L 98.13,123.12 L 98.45,134.19 L 95.85,140.20 L 78.29,137.37 L 47.55,150.31 L 47.39,162.49 L 38.66,165.94 L 32.77,174.08 L 27.79,173.99 L 9.51,193.96 L 2.79,198.11 L 0.00,197.75 L 0.00,0.00 L 87.38,0.00 L 88.03,5.19 Z" fill="#E8E0D0" stroke="#B8B0A0" stroke-width="0.5"/>
<path d="M 114.11,157.37 L 129.11,178.02 L 128.57,198.99 L 121.87,202.82 L 120.24,208.25 L 125.83,209.83 L 123.19,219.29 L 153.42,219.98 L 154.81,223.98 L 150.00,229.02 L 150.67,233.36 L 178.13,238.29 L 189.12,248.46 L 195.81,249.61 L 198.47,256.94 L 193.62,259.79 L 194.69,262.61 L 201.89,268.54 L 230.15,280.67 L 232.91,286.63 L 245.08,292.97 L 240.51,299.69 L 250.64,309.01 L 247.07,313.77 L 261.98,317.02 L 263.79,320.14 L 276.73,324.65 L 282.55,331.49 L 282.70,342.86 L 290.20,349.65 L 274.60,344.90 L 265.83,350.84 L 260.42,348.80 L 250.37,350.48 L 237.46,343.64 L 225.26,346.09 L 209.68,338.74 L 202.04,341.06 L 199.66,351.02 L 175.18,355.13 L 161.00,347.80 L 161.10,350.89 L 155.18,354.69 L 126.70,361.71 L 119.34,366.83 L 97.44,358.50 L 88.57,370.38 L 84.46,371.03 L 80.98,381.14 L 72.19,383.38 L 48.17,377.49 L 25.84,377.55 L 11.43,371.76 L 0.00,373.03 L 0.00,197.75 L 2.79,198.11 L 9.51,193.96 L 27.79,173.99 L 32.77,174.08 L 38.66,165.94 L 47.39,162.49 L 47.55,150.31 L 78.29,137.37 L 95.85,140.20 L 114.11,157.37 Z" fill="#C8D8E8" stroke="#8BAABB" stroke-width="0.8"/>
<path d="M 11.43,371.76 L 25.84,377.55 L 48.17,377.49 L 72.19,383.38 L 80.98,381.14 L 84.46,371.03 L 88.57,370.38 L 97.44,358.50 L 119.34,366.83 L 126.70,361.71 L 155.18,354.69 L 161.10,350.89 L 161.00,347.80 L 175.18,355.13 L 199.66,351.02 L 202.04,341.06 L 209.68,338.74 L 225.26,346.09 L 237.46,343.64 L 250.37,350.48 L 260.42,348.80 L 265.83,350.84 L 274.60,344.90 L 284.28,347.45 L 303.05,359.78 L 304.25,366.65 L 314.50,368.29 L 316.02,372.98 L 330.09,378.13 L 345.96,368.15 L 365.73,375.79 L 375.76,364.01 L 382.58,365.02 L 390.14,368.08 L 389.77,374.78 L 395.81,376.94 L 406.80,389.57 L 421.06,392.74 L 421.81,401.86 L 430.46,399.64 L 434.39,406.25 L 436.80,405.18 L 437.38,409.72 L 430.33,421.82 L 434.98,429.06 L 428.92,443.68 L 435.76,447.73 L 439.84,445.10 L 443.55,449.22 L 448.74,448.77 L 452.72,455.93 L 419.06,486.88 L 408.90,490.56 L 405.34,498.70 L 401.54,500.00 L 0.00,500.00 L 0.00,373.03 L 11.43,371.76 Z" fill="#C8D8E8" stroke="#8BAABB" stroke-width="0.8"/>
<path d="M 582.32,165.11 L 580.36,152.86 L 592.88,141.45 L 600.51,148.62 L 604.08,147.00 L 609.16,140.76 L 608.56,128.23 L 614.03,117.64 L 614.01,107.98 L 624.39,100.64 L 640.11,77.88 L 658.24,76.36 L 659.17,64.52 L 669.96,44.21 L 675.69,20.43 L 685.10,17.97 L 698.34,19.95 L 700.93,14.79 L 708.26,13.48 L 719.29,26.09 L 732.77,0.00 L 735.05,0.00 L 738.51,3.92 L 747.95,5.52 L 756.33,14.93 L 774.97,12.19 L 781.07,6.54 L 786.06,8.30 L 789.49,14.10 L 800.00,10.41 L 800.00,408.93 L 759.82,400.50 L 742.55,401.86 L 696.45,374.72 L 655.11,372.10 L 650.83,369.80 L 642.82,357.40 L 645.05,340.79 L 630.84,336.75 L 623.13,338.78 L 622.04,333.85 L 615.11,329.89 L 609.84,321.27 L 598.35,291.84 L 590.76,289.40 L 589.87,284.49 L 580.41,281.27 L 576.19,274.57 L 569.92,271.59 L 568.77,265.87 L 556.45,257.02 L 528.54,251.98 L 525.63,247.71 L 533.92,239.69 L 532.93,231.80 L 536.04,228.42 L 552.39,228.24 L 557.51,231.60 L 572.33,224.81 L 571.50,192.65 L 582.32,165.11 Z" fill="#C8D8E8" stroke="#8BAABB" stroke-width="0.8"/>
<path d="M 642.30,363.60 L 650.00,365.81 L 655.11,372.10 L 696.45,374.72 L 742.55,401.86 L 759.82,400.50 L 800.00,408.93 L 800.00,500.00 L 585.85,500.00 L 589.16,492.48 L 602.35,487.13 L 601.55,481.52 L 609.77,472.00 L 611.20,462.60 L 605.22,447.17 L 607.69,442.52 L 605.65,438.45 L 586.91,417.29 L 584.67,406.73 L 587.15,399.89 L 574.97,396.03 L 577.19,392.49 L 572.09,392.39 L 567.52,380.12 L 584.67,365.78 L 628.39,351.09 L 627.74,354.81 L 635.15,355.61 L 633.08,360.04 L 636.84,365.79 L 642.30,363.60 Z" fill="#C8D8E8" stroke="#8BAABB" stroke-width="0.8"/>
<path d="M 99.78,128.32 L 98.13,123.12 L 92.07,122.86 L 82.30,114.63 L 85.30,98.88 L 78.75,100.40 L 79.86,95.59 L 75.14,84.91 L 78.23,79.61 L 68.01,74.87 L 63.81,78.20 L 56.60,78.59 L 51.23,73.07 L 57.79,62.16 L 70.67,53.70 L 62.50,37.73 L 68.43,31.42 L 82.50,24.86 L 77.52,20.39 L 74.74,10.40 L 88.03,5.19 L 87.38,0.00 L 672.88,0.00 L 675.69,20.43 L 669.96,44.21 L 659.17,64.52 L 658.60,75.65 L 640.11,77.88 L 624.39,100.64 L 614.01,107.98 L 614.03,117.64 L 608.56,128.23 L 609.16,140.76 L 604.08,147.00 L 600.51,148.62 L 592.88,141.45 L 580.36,152.86 L 582.32,165.11 L 571.50,192.65 L 563.46,191.05 L 567.36,178.31 L 564.97,166.87 L 542.24,149.99 L 532.01,146.65 L 529.60,115.85 L 534.94,93.96 L 514.68,93.75 L 515.31,101.39 L 487.12,101.50 L 498.41,112.12 L 498.43,126.29 L 501.91,134.36 L 481.21,149.64 L 469.41,165.44 L 448.18,181.57 L 431.24,182.99 L 399.32,163.43 L 382.45,171.03 L 382.39,176.18 L 376.84,181.65 L 352.68,189.98 L 349.71,197.31 L 315.82,197.06 L 309.45,187.61 L 274.89,187.20 L 255.59,191.72 L 225.03,166.62 L 221.77,158.09 L 189.88,162.84 L 185.61,174.29 L 177.97,179.60 L 177.81,190.29 L 173.04,195.56 L 167.87,212.99 L 149.02,220.33 L 122.54,218.51 L 125.83,209.83 L 120.24,208.25 L 121.87,202.82 L 128.57,198.99 L 129.11,178.02 L 114.11,157.37 L 95.85,140.20 L 99.78,128.32 Z" fill="#C8D8E8" stroke="#8BAABB" stroke-width="0.8"/>
<path d="M 405.34,498.70 L 408.90,490.56 L 419.06,486.88 L 452.72,455.93 L 448.74,448.77 L 443.55,449.22 L 439.84,445.10 L 435.76,447.73 L 428.92,443.68 L 434.98,429.06 L 430.33,421.82 L 437.38,409.72 L 436.80,405.18 L 434.39,406.25 L 438.84,399.48 L 450.32,395.43 L 463.42,400.31 L 474.21,394.57 L 480.66,402.38 L 490.76,405.46 L 491.60,401.63 L 499.41,397.62 L 515.73,396.26 L 525.95,392.09 L 533.04,396.48 L 546.88,396.96 L 568.75,380.63 L 572.09,392.39 L 577.19,392.49 L 574.97,396.03 L 587.15,399.89 L 584.67,406.73 L 586.91,417.29 L 605.65,438.45 L 607.69,442.52 L 605.22,447.17 L 611.20,462.60 L 609.77,472.00 L 601.55,481.52 L 602.35,487.13 L 589.16,492.48 L 585.85,500.00 L 401.54,500.00 L 405.34,498.70 Z" fill="#C8D8E8" stroke="#8BAABB" stroke-width="0.8"/>
<path d="M 642.30,363.60 L 640.65,366.90 L 636.84,365.79 L 633.08,360.04 L 635.15,355.61 L 627.74,354.81 L 628.39,351.09 L 621.35,352.83 L 584.67,365.78 L 546.88,396.96 L 533.04,396.48 L 525.95,392.09 L 515.73,396.26 L 499.41,397.62 L 491.60,401.63 L 490.76,405.46 L 480.66,402.38 L 474.21,394.57 L 463.42,400.31 L 447.20,395.69 L 438.84,399.48 L 434.39,406.25 L 430.46,399.64 L 422.25,402.16 L 421.06,392.74 L 406.80,389.57 L 395.81,376.94 L 389.77,374.78 L 390.14,368.08 L 379.04,364.33 L 375.76,364.01 L 365.73,375.79 L 345.96,368.15 L 329.07,377.86 L 316.02,372.98 L 314.50,368.29 L 304.25,366.65 L 303.41,360.14 L 293.31,354.96 L 282.70,342.86 L 282.55,331.49 L 276.73,324.65 L 263.79,320.14 L 261.98,317.02 L 247.07,313.77 L 250.64,309.01 L 240.51,299.69 L 245.08,292.97 L 232.91,286.63 L 230.15,280.67 L 201.89,268.54 L 194.69,262.61 L 193.62,259.79 L 198.47,256.94 L 195.81,249.61 L 189.12,248.46 L 178.13,238.29 L 150.67,233.36 L 150.00,229.02 L 154.81,223.98 L 151.69,219.32 L 167.87,212.99 L 173.04,195.56 L 177.81,190.29 L 177.97,179.60 L 185.61,174.29 L 189.88,162.84 L 221.77,158.09 L 225.03,166.62 L 255.59,191.72 L 274.89,187.20 L 309.45,187.61 L 315.82,197.06 L 349.71,197.31 L 352.68,189.98 L 376.84,181.65 L 382.39,176.18 L 382.45,171.03 L 399.32,163.43 L 431.24,182.99 L 448.18,181.57 L 469.41,165.44 L 481.21,149.64 L 501.91,134.36 L 498.43,126.29 L 498.41,112.12 L 487.12,101.50 L 515.31,101.39 L 514.68,93.75 L 534.94,93.96 L 529.60,115.85 L 532.01,146.65 L 542.24,149.99 L 564.97,166.87 L 567.36,178.31 L 563.46,191.05 L 571.50,192.65 L 573.24,222.30 L 567.26,228.79 L 557.97,231.53 L 552.39,228.24 L 536.04,228.42 L 532.93,231.80 L 533.92,239.69 L 525.63,247.71 L 528.54,251.98 L 556.45,257.02 L 568.77,265.87 L 569.92,271.59 L 576.19,274.57 L 580.41,281.27 L 589.87,284.49 L 590.76,289.40 L 598.35,291.84 L 609.84,321.27 L 615.11,329.89 L 622.04,333.85 L 623.13,338.78 L 630.84,336.75 L 645.05,340.79 L 642.82,357.40 L 650.00,365.81 L 642.30,363.60 Z" fill="#4A90D9" stroke="#1a5fa8" stroke-width="1.2"/>
<path d="M 458.43,462.67 L 453.75,469.94 L 438.94,476.90 L 424.40,494.30 L 419.89,494.20 L 420.31,487.70 L 415.14,484.32 L 419.93,477.20 L 451.25,455.43 L 461.35,445.00 L 456.74,449.90 L 458.43,462.67 Z" fill="#A8C8E8" stroke="none"/>
<path d="M 707.34,108.06 L 700.91,106.57 L 699.46,108.53 L 695.43,105.60 L 696.44,95.37 L 701.62,91.42 L 706.44,94.05 L 716.95,90.61 L 721.29,97.48 L 720.13,102.17 L 712.20,114.67 L 708.25,113.52 L 707.34,108.06 Z" fill="#A8C8E8" stroke="none"/>
<path d="M 532.88,472.74 L 532.68,472.86 L 532.63,472.82 L 532.88,472.74 Z" fill="#A8C8E8" stroke="none"/>
<path d="M 530.10,477.28 L 537.79,478.03 L 532.57,480.62 L 534.68,481.78 L 540.17,480.26 L 537.51,487.70 L 521.80,479.63 L 519.18,480.62 L 520.95,484.77 L 518.90,481.06 L 514.37,481.13 L 516.58,484.50 L 506.44,479.29 L 506.70,476.67 L 512.52,477.88 L 518.03,473.94 L 518.03,476.17 L 525.32,476.17 L 530.63,472.16 L 536.74,470.64 L 537.67,472.74 L 544.64,467.71 L 546.77,471.84 L 530.10,477.28 Z M 515.52,479.43 L 513.97,478.88 L 515.50,479.98 L 520.35,479.60 L 515.52,479.43 Z" fill="#A8C8E8" stroke="none"/>
<path d="M 497.38,472.48 L 503.80,475.67 L 493.61,471.50 L 507.86,471.21 L 516.34,464.62 L 522.11,465.87 L 527.04,462.24 L 524.13,465.09 L 526.64,465.93 L 525.61,469.80 L 518.31,465.61 L 517.43,469.22 L 506.56,473.04 L 497.38,472.48 Z" fill="#A8C8E8" stroke="none"/>
<path d="M 784.05,233.23 L 780.09,232.53 L 780.59,230.80 L 785.33,227.68 L 784.05,233.23 Z" fill="#A8C8E8" stroke="none"/>
<path d="M 648.91,7.67 L 649.10,0.00 L 650.73,0.00 L 651.24,1.19 L 648.91,7.67 Z" fill="#A8C8E8" stroke="none"/>
<path d="M 583.61,110.14 L 588.18,108.69 L 588.08,116.13 L 601.49,126.69 L 582.48,116.03 L 583.61,110.14 Z" fill="#A8C8E8" stroke="none"/>
<path d="M 683.16,442.20 L 677.04,445.49 L 669.51,429.31 L 663.85,424.50 L 658.73,424.25 L 659.64,416.17 L 651.15,411.65 L 650.81,404.44 L 649.89,406.57 L 646.29,398.03 L 652.86,365.25 L 654.72,369.18 L 655.20,365.19 L 661.28,365.63 L 663.74,382.80 L 661.07,389.36 L 664.64,396.82 L 662.80,412.27 L 670.36,423.43 L 682.60,428.07 L 683.16,442.20 Z" fill="#A8C8E8" stroke="none"/>
<path d="M 744.11,295.08 L 743.41,300.25 L 731.86,314.58 L 724.87,316.00 L 725.80,312.18 L 732.95,309.26 L 732.80,298.06 L 738.22,294.29 L 744.11,295.08 Z" fill="#A8C8E8" stroke="none"/>
<path d="M 694.45,365.09 L 684.44,370.94 L 687.31,358.24 L 690.74,360.05 L 695.10,356.23 L 694.45,365.09 Z" fill="#A8C8E8" stroke="none"/>
<path d="M 725.70,324.10 L 719.36,326.91 L 721.72,319.36 L 725.49,317.95 L 725.70,324.10 Z" fill="#A8C8E8" stroke="none"/>
</svg>