<svg xmlns="http://www.w3.org/2000/svg" width="800" height="500" viewBox="0 0 800 500">
<rect width="800" height="500" fill="#A8C8E8"/>
<path d="M 654.63,391.95 L 655.44,378.09 L 674.03,362.08 L 712.51,388.84 L 733.91,387.88 L 715.31,385.07 L 728.82,378.20 L 786.82,378.47 L 800.00,369.06 L 800.00,476.61 L 654.63,391.95 Z" fill="#E8E0D0" stroke="#B8B0A0" stroke-width="0.5"/>
<path d="M 256.91,156.28 L 269.29,182.85 L 234.92,192.50 L 222.90,213.18 L 204.56,209.83 L 165.66,228.91 L 150.00,261.03 L 49.77,232.62 L 0.00,230.46 L 0.00,0.00 L 445.25,0.00 L 344.90,53.40 L 330.01,86.49 L 344.98,128.24 L 303.15,154.14 L 256.91,156.28 Z" fill="#C8D8E8" stroke="#8BAABB" stroke-width="0.8"/>
<path d="M 344.98,128.24 L 330.01,86.49 L 344.90,53.40 L 442.52,0.00 L 800.00,0.00 L 800.00,369.06 L 786.82,378.47 L 728.82,378.20 L 730.92,359.95 L 706.93,357.91 L 687.62,330.52 L 710.82,311.07 L 665.52,317.19 L 664.38,302.46 L 650.09,318.05 L 624.23,311.79 L 644.19,303.31 L 629.89,292.06 L 647.84,247.97 L 624.08,232.21 L 583.03,239.94 L 565.63,220.65 L 537.35,220.18 L 526.88,233.75 L 482.93,242.31 L 481.37,221.61 L 411.85,203.37 L 355.98,157.19 L 303.15,154.14 L 344.98,128.24 Z M 664.31,335.80 L 655.43,335.31 L 654.03,330.96 L 664.31,335.80 Z M 675.45,317.19 L 671.18,327.75 L 657.11,323.49 L 675.45,317.19 Z" fill="#C8D8E8" stroke="#8BAABB" stroke-width="0.8"/>
<path d="M 165.66,228.91 L 204.56,209.83 L 222.90,213.18 L 234.92,192.50 L 269.29,182.85 L 256.91,156.28 L 295.55,149.47 L 346.32,164.17 L 355.98,157.19 L 411.85,203.37 L 481.37,221.61 L 482.93,242.31 L 560.15,220.43 L 583.03,239.94 L 624.08,232.21 L 647.84,247.97 L 629.89,292.06 L 644.19,303.31 L 619.84,306.42 L 612.46,318.24 L 629.89,330.47 L 601.14,350.53 L 518.67,349.29 L 512.98,348.12 L 518.01,344.52 L 511.70,339.58 L 499.98,348.50 L 492.76,335.53 L 461.76,330.96 L 435.96,333.19 L 466.19,334.24 L 490.23,349.02 L 422.88,336.99 L 326.05,301.51 L 210.34,292.99 L 150.00,261.03 L 165.66,228.91 Z M 647.32,342.23 L 650.00,349.08 L 643.78,349.68 L 647.32,342.23 Z M 637.90,339.54 L 635.32,341.83 L 631.92,337.56 L 637.90,339.54 Z" fill="#4A90D9" stroke="#1a5fa8" stroke-width="1.2"/>
<path d="M 312.43,5.73 L 306.19,0.00 L 339.51,0.00 L 312.43,5.73 Z" fill="#A8C8E8" stroke="none"/>
<path d="M 380.60,231.47 L 342.14,206.82 L 371.54,207.37 L 380.60,231.47 Z" fill="#A8C8E8" stroke="none"/>
<path d="M 428.98,218.64 L 427.45,221.86 L 409.12,225.03 L 428.98,218.64 Z" fill="#A8C8E8" stroke="none"/>
</svg>