<svg xmlns="http://www.w3.org/2000/svg" width="800" height="500" viewBox="0 0 800 500">
<rect width="800" height="500" fill="#A8C8E8"/>
<path d="M 585.85,391.95 L 586.45,378.09 L 600.01,362.08 L 628.10,388.84 L 643.72,387.88 L 630.15,385.07 L 640.01,378.20 L 682.34,378.47 L 691.96,369.06 L 691.96,476.61 L 585.85,391.95 Z" fill="#E8E0D0" stroke="#B8B0A0" stroke-width="0.5"/>
<path d="M 295.56,156.28 L 304.59,182.85 L 279.51,192.50 L 270.74,213.18 L 257.35,209.83 L 228.96,228.91 L 217.53,261.03 L 144.37,232.62 L 108.04,230.46 L 108.04,0.00 L 433.03,0.00 L 359.78,53.40 L 348.91,86.49 L 359.84,128.24 L 329.31,154.14 L 295.56,156.28 Z" fill="#C8D8E8" stroke="#8BAABB" stroke-width="0.8"/>
<path d="M 359.84,128.24 L 348.91,86.49 L 359.78,53.40 L 431.03,0.00 L 691.96,0.00 L 691.96,369.06 L 682.34,378.47 L 640.01,378.20 L 641.54,359.95 L 624.03,357.91 L 609.93,330.52 L 626.87,311.07 L 593.80,317.19 L 592.97,302.46 L 582.54,318.05 L 563.66,311.79 L 578.23,303.31 L 567.79,292.06 L 580.89,247.97 L 563.55,232.21 L 533.59,239.94 L 520.89,220.65 L 500.25,220.18 L 492.61,233.75 L 460.53,242.31 L 459.39,221.61 L 408.65,203.37 L 367.87,157.19 L 329.31,154.14 L 359.84,128.24 Z M 592.92,335.80 L 586.44,335.31 L 585.41,330.96 L 592.92,335.80 Z M 601.05,317.19 L 597.94,327.75 L 587.66,323.49 L 601.05,317.19 Z" fill="#C8D8E8" stroke="#8BAABB" stroke-width="0.8"/>
<path d="M 228.96,228.91 L 257.35,209.83 L 270.74,213.18 L 279.51,192.50 L 304.59,182.85 L 295.56,156.28 L 323.76,149.47 L 360.82,164.17 L 367.87,157.19 L 408.65,203.37 L 459.39,221.61 L 460.53,242.31 L 516.89,220.43 L 533.59,239.94 L 563.55,232.21 L 580.89,247.97 L 567.79,292.06 L 578.23,303.31 L 560.46,306.42 L 555.07,318.24 L 567.80,330.47 L 546.81,350.53 L 486.61,349.29 L 482.46,348.12 L 486.13,344.52 L 481.53,339.58 L 472.97,348.50 L 467.70,335.53 L 445.08,330.96 L 426.25,333.19 L 448.31,334.24 L 465.86,349.02 L 416.70,336.99 L 346.03,301.51 L 261.57,292.99 L 217.53,261.03 L 228.96,228.91 Z M 580.52,342.23 L 582.47,349.08 L 577.93,349.68 L 580.52,342.23 Z M 573.64,339.54 L 571.76,341.83 L 569.28,337.56 L 573.64,339.54 Z" fill="#4A90D9" stroke="#1a5fa8" stroke-width="1.2"/>
<path d="M 336.08,5.73 L 331.53,0.00 L 355.85,0.00 L 336.08,5.73 Z" fill="#A8C8E8" stroke="none"/>
<path d="M 385.84,231.47 L 357.77,206.82 L 379.23,207.37 L 385.84,231.47 Z" fill="#A8C8E8" stroke="none"/>
<path d="M 421.15,218.64 L 420.03,221.86 L 406.65,225.03 L 421.15,218.64 Z" fill="#A8C8E8" stroke="none"/>
</svg>