<svg xmlns="http://www.w3.org/2000/svg" width="800" height="500" viewBox="0 0 800 500">
<rect width="800" height="500" fill="#A8C8E8"/>
<path d="M 798.77,489.51 L 800.00,490.81 L 800.00,500.00 L 792.75,500.00 L 798.77,489.51 Z" fill="#E8E0D0" stroke="#B8B0A0" stroke-width="0.5"/>
<path d="M 428.14,337.59 L 424.72,340.84 L 419.13,340.35 L 415.12,331.30 L 428.14,337.59 Z M 358.48,315.11 L 354.80,317.38 L 351.57,315.97 L 358.48,315.11 Z" fill="#E8E0D0" stroke="#B8B0A0" stroke-width="0.5"/>
<path d="M 609.69,462.07 L 613.90,441.66 L 620.73,442.63 L 609.69,462.07 Z" fill="#E8E0D0" stroke="#B8B0A0" stroke-width="0.5"/>
<path d="M 708.09,387.06 L 747.50,401.02 L 730.12,415.11 L 693.50,405.77 L 708.09,387.06 Z M 695.94,305.44 L 706.54,317.52 L 704.95,299.73 L 732.46,321.49 L 704.67,320.72 L 695.94,305.44 Z M 578.64,423.58 L 577.64,424.06 L 577.34,423.80 L 578.64,423.58 Z" fill="#E8E0D0" stroke="#B8B0A0" stroke-width="0.5"/>
<path d="M 527.78,384.71 L 527.50,397.08 L 511.36,397.16 L 514.59,381.72 L 527.78,384.71 Z M 502.64,379.49 L 451.12,351.75 L 484.41,357.41 L 502.64,379.49 Z" fill="#E8E0D0" stroke="#B8B0A0" stroke-width="0.5"/>
<path d="M 0.00,300.74 L 0.00,294.82 L 24.55,295.99 L 0.00,300.74 Z" fill="#E8E0D0" stroke="#B8B0A0" stroke-width="0.5"/>
<path d="M 447.87,268.25 L 466.49,270.39 L 461.87,274.01 L 447.87,268.25 Z" fill="#E8E0D0" stroke="#B8B0A0" stroke-width="0.5"/>
<path d="M 414.26,221.65 L 372.44,230.72 L 404.85,215.35 L 414.26,221.65 Z M 307.20,163.23 L 308.51,163.42 L 307.41,164.55 L 307.20,163.23 Z M 427.49,210.73 L 432.98,211.91 L 425.23,214.31 L 427.49,210.73 Z M 348.74,213.11 L 355.39,212.96 L 351.39,214.53 L 348.74,213.11 Z M 369.53,215.54 L 366.35,215.18 L 366.88,215.12 L 369.53,215.54 Z M 372.13,215.72 L 372.32,216.26 L 370.88,216.23 L 372.13,215.72 Z" fill="#E8E0D0" stroke="#B8B0A0" stroke-width="0.5"/>
<path d="M 0.00,194.46 L 0.00,188.91 L 3.98,186.69 L 35.19,188.54 L 0.00,194.46 Z M 62.35,185.82 L 53.56,187.95 L 60.55,177.19 L 82.89,177.19 L 62.35,185.82 Z M 69.27,143.72 L 62.26,140.82 L 84.33,140.58 L 96.72,147.70 L 69.27,143.72 Z M 21.67,204.89 L 13.65,201.61 L 19.81,200.84 L 21.67,204.89 Z M 32.11,182.74 L 30.27,184.93 L 29.54,181.73 L 32.11,182.74 Z" fill="#E8E0D0" stroke="#B8B0A0" stroke-width="0.5"/>
<path d="M 387.65,246.72 L 377.69,246.20 L 409.99,238.10 L 410.01,251.96 L 387.65,246.72 Z" fill="#C8D8E8" stroke="#8BAABB" stroke-width="0.8"/>
<path d="M 392.93,248.04 L 410.01,251.96 L 389.99,251.56 L 392.93,248.04 Z" fill="#4A90D9" stroke="#1a5fa8" stroke-width="1.2"/>
</svg>