<svg xmlns="http://www.w3.org/2000/svg" width="800" height="500" viewBox="0 0 800 500">
<rect width="800" height="500" fill="#A8C8E8"/>
<path d="M 636.97,489.51 L 637.70,490.81 L 637.70,500.00 L 633.40,500.00 L 636.97,489.51 Z" fill="#E8E0D0" stroke="#B8B0A0" stroke-width="0.5"/>
<path d="M 416.72,337.59 L 414.69,340.84 L 411.37,340.35 L 408.98,331.30 L 416.72,337.59 Z M 375.32,315.11 L 373.14,317.38 L 371.22,315.97 L 375.32,315.11 Z" fill="#E8E0D0" stroke="#B8B0A0" stroke-width="0.5"/>
<path d="M 524.61,462.07 L 527.11,441.66 L 531.17,442.63 L 524.61,462.07 Z" fill="#E8E0D0" stroke="#B8B0A0" stroke-width="0.5"/>
<path d="M 583.08,387.06 L 606.51,401.02 L 596.18,415.11 L 574.41,405.77 L 583.08,387.06 Z M 575.86,305.44 L 582.16,317.52 L 581.22,299.73 L 597.57,321.49 L 581.05,320.72 L 575.86,305.44 Z M 506.16,423.58 L 505.56,424.06 L 505.38,423.80 L 506.16,423.58 Z" fill="#E8E0D0" stroke="#B8B0A0" stroke-width="0.5"/>
<path d="M 475.93,384.71 L 475.77,397.08 L 466.18,397.16 L 468.10,381.72 L 475.93,384.71 Z M 461.00,379.49 L 430.38,351.75 L 450.16,357.41 L 461.00,379.49 Z" fill="#E8E0D0" stroke="#B8B0A0" stroke-width="0.5"/>
<path d="M 162.30,300.74 L 162.30,294.82 L 176.89,295.99 L 162.30,300.74 Z" fill="#E8E0D0" stroke="#B8B0A0" stroke-width="0.5"/>
<path d="M 428.45,268.25 L 439.51,270.39 L 436.77,274.01 L 428.45,268.25 Z" fill="#E8E0D0" stroke="#B8B0A0" stroke-width="0.5"/>
<path d="M 408.48,221.65 L 383.62,230.72 L 402.88,215.35 L 408.48,221.65 Z M 344.85,163.23 L 345.63,163.42 L 344.98,164.55 L 344.85,163.23 Z M 416.33,210.73 L 419.60,211.91 L 414.99,214.31 L 416.33,210.73 Z M 369.54,213.11 L 373.49,212.96 L 371.12,214.53 L 369.54,213.11 Z M 381.89,215.54 L 380.00,215.18 L 380.32,215.12 L 381.89,215.54 Z M 383.44,215.72 L 383.55,216.26 L 382.69,216.23 L 383.44,215.72 Z" fill="#E8E0D0" stroke="#B8B0A0" stroke-width="0.5"/>
<path d="M 162.30,194.46 L 162.30,188.91 L 164.66,186.69 L 183.21,188.54 L 162.30,194.46 Z M 199.35,185.82 L 194.13,187.95 L 198.28,177.19 L 211.56,177.19 L 199.35,185.82 Z M 203.46,143.72 L 199.30,140.82 L 212.41,140.58 L 219.77,147.70 L 203.46,143.72 Z M 175.18,204.89 L 170.41,201.61 L 174.07,200.84 L 175.18,204.89 Z M 181.38,182.74 L 180.29,184.93 L 179.85,181.73 L 181.38,182.74 Z" fill="#E8E0D0" stroke="#B8B0A0" stroke-width="0.5"/>
<path d="M 392.66,246.72 L 386.74,246.20 L 405.94,238.10 L 405.95,251.96 L 392.66,246.72 Z" fill="#C8D8E8" stroke="#8BAABB" stroke-width="0.8"/>
<path d="M 395.80,248.04 L 405.95,251.96 L 394.05,251.56 L 395.80,248.04 Z" fill="#4A90D9" stroke="#1a5fa8" stroke-width="1.2"/>
</svg>