<svg xmlns="http://www.w3.org/2000/svg" width="800" height="500" viewBox="0 0 800 500">
<rect width="800" height="500" fill="#A8C8E8"/>
<path d="M 0.00,240.64 L 0.00,234.43 L 12.19,231.40 L 14.07,234.26 L 5.39,236.42 L 12.37,241.43 L 0.00,240.64 Z M 1.86,238.55 L 1.86,237.92 L 1.06,237.96 L 1.86,238.55 Z" fill="#E8E0D0" stroke="#B8B0A0" stroke-width="0.5"/>
<path d="M 3.98,240.11 L 2.40,239.53 L 5.04,240.21 L 3.98,240.11 Z M 1.06,237.96 L 1.86,237.92 L 1.86,238.55 L 1.06,237.96 Z M 22.15,235.26 L 27.94,241.00 L 8.33,241.09 L 5.79,235.73 L 22.15,235.26 Z" fill="#E8E0D0" stroke="#B8B0A0" stroke-width="0.5"/>
<path d="M 62.28,454.73 L 39.16,475.22 L 35.54,468.81 L 56.66,452.03 L 62.28,454.73 Z M 92.50,414.38 L 100.48,397.12 L 111.32,392.16 L 137.79,402.01 L 137.68,440.66 L 130.11,457.74 L 108.03,465.81 L 86.53,465.78 L 93.66,449.08 L 115.39,441.70 L 112.32,433.56 L 109.63,437.95 L 93.94,436.41 L 98.57,431.72 L 92.50,414.38 Z" fill="#E8E0D0" stroke="#B8B0A0" stroke-width="0.5"/>
<path d="M 787.13,58.04 L 800.00,39.68 L 800.00,62.94 L 787.13,58.04 Z M 793.70,27.77 L 792.65,0.00 L 800.00,0.00 L 800.00,29.13 L 793.70,27.77 Z" fill="#E8E0D0" stroke="#B8B0A0" stroke-width="0.5"/>
<path d="M 242.89,457.78 L 393.47,426.37 L 408.07,418.45 L 499.19,429.86 L 627.32,483.43 L 655.12,500.00 L 295.26,500.00 L 242.89,457.78 Z" fill="#E8E0D0" stroke="#B8B0A0" stroke-width="0.5"/>
<path d="M 49.68,500.00 L 0.00,500.00 L 0.00,479.33 L 35.54,468.81 L 49.68,500.00 Z" fill="#E8E0D0" stroke="#B8B0A0" stroke-width="0.5"/>
<path d="M 11.19,231.40 L 2.92,236.85 L 0.00,236.40 L 0.00,214.91 L 65.02,195.64 L 16.86,219.38 L 12.97,228.56 L 21.42,234.84 L 11.19,231.40 Z" fill="#E8E0D0" stroke="#B8B0A0" stroke-width="0.5"/>
<path d="M 21.42,234.84 L 22.15,235.26 L 15.29,235.63 L 21.42,234.84 Z" fill="#E8E0D0" stroke="#B8B0A0" stroke-width="0.5"/>
<path d="M 627.32,483.43 L 503.24,430.98 L 407.22,418.65 L 418.16,410.76 L 413.94,404.00 L 398.38,405.53 L 394.58,396.38 L 400.52,395.03 L 379.28,340.43 L 523.25,280.53 L 543.90,276.14 L 561.86,251.73 L 561.64,223.66 L 573.83,197.93 L 564.30,172.66 L 567.33,154.28 L 575.47,144.20 L 609.92,137.87 L 648.50,107.16 L 663.83,104.87 L 675.44,91.85 L 705.43,90.87 L 757.62,101.56 L 778.56,94.61 L 789.61,99.25 L 785.47,108.56 L 793.35,115.95 L 800.00,112.40 L 800.00,500.00 L 655.12,500.00 L 627.32,483.43 Z" fill="#C8D8E8" stroke="#8BAABB" stroke-width="0.8"/>
<path d="M 62.28,454.73 L 56.66,452.03 L 73.99,429.04 L 91.70,375.22 L 100.36,372.46 L 103.13,358.15 L 131.72,358.17 L 136.93,346.08 L 141.02,348.64 L 157.34,338.24 L 153.40,346.60 L 162.37,367.05 L 152.57,379.57 L 137.76,386.03 L 137.79,402.01 L 109.97,392.22 L 99.00,398.93 L 92.74,413.44 L 98.57,431.72 L 93.94,436.41 L 109.63,437.95 L 112.32,433.56 L 115.39,441.70 L 93.66,449.08 L 86.53,465.78 L 108.03,465.81 L 130.10,457.74 L 125.38,472.34 L 128.59,481.94 L 118.95,500.00 L 50.64,500.00 L 39.16,475.22 L 62.28,454.73 Z" fill="#C8D8E8" stroke="#8BAABB" stroke-width="0.8"/>
<path d="M 162.95,381.51 L 175.76,393.74 L 231.40,406.48 L 379.28,340.43 L 400.52,395.03 L 394.58,396.38 L 398.38,405.53 L 413.94,404.00 L 418.16,410.76 L 393.47,426.37 L 242.89,457.78 L 295.26,500.00 L 118.95,500.00 L 128.59,481.94 L 125.38,472.34 L 137.68,440.66 L 134.93,422.41 L 141.61,383.47 L 162.95,381.51 Z" fill="#C8D8E8" stroke="#8BAABB" stroke-width="0.8"/>
<path d="M 130.99,307.33 L 143.80,301.26 L 145.63,281.79 L 169.52,267.61 L 168.52,260.67 L 190.44,262.08 L 194.00,258.32 L 203.86,261.95 L 194.82,269.14 L 210.25,274.83 L 216.18,288.80 L 192.47,304.56 L 198.56,311.39 L 174.58,312.67 L 164.89,323.66 L 173.43,328.19 L 141.02,348.64 L 136.93,346.08 L 131.72,358.17 L 103.55,358.06 L 130.99,307.33 Z" fill="#C8D8E8" stroke="#8BAABB" stroke-width="0.8"/>
<path d="M 793.70,27.77 L 800.00,29.13 L 800.00,39.68 L 787.13,58.04 L 800.00,62.94 L 800.00,112.40 L 793.35,115.95 L 785.47,108.56 L 789.61,99.25 L 778.56,94.61 L 757.62,101.56 L 705.43,90.87 L 692.07,94.05 L 680.30,90.59 L 662.63,105.23 L 648.50,107.16 L 647.71,99.06 L 637.53,93.75 L 622.35,103.07 L 582.56,109.31 L 524.64,107.75 L 453.73,130.11 L 414.23,135.16 L 375.56,133.12 L 357.14,123.03 L 337.93,119.74 L 279.45,136.85 L 249.92,137.74 L 243.28,129.38 L 218.87,124.75 L 210.71,146.53 L 221.14,161.61 L 198.81,162.22 L 197.69,176.80 L 185.58,179.44 L 181.19,187.67 L 164.12,181.55 L 168.94,175.27 L 154.81,157.44 L 186.66,136.34 L 184.99,126.39 L 172.31,118.62 L 141.23,130.22 L 139.18,133.67 L 148.93,131.50 L 142.50,138.83 L 121.64,142.66 L 72.56,125.64 L 41.25,139.80 L 17.41,163.10 L 10.81,156.77 L 0.00,165.50 L 0.00,0.00 L 792.65,0.00 L 793.70,27.77 Z" fill="#C8D8E8" stroke="#8BAABB" stroke-width="0.8"/>
<path d="M 162.37,367.05 L 153.04,342.75 L 173.43,328.19 L 164.89,323.66 L 166.91,319.36 L 181.18,310.54 L 197.65,312.22 L 192.47,304.56 L 216.18,288.80 L 210.25,274.83 L 194.82,269.14 L 203.86,261.95 L 194.00,258.32 L 190.44,262.08 L 168.52,260.67 L 160.78,243.55 L 167.96,226.47 L 164.70,212.76 L 150.00,202.50 L 158.79,192.18 L 155.65,185.80 L 169.30,180.99 L 182.63,187.49 L 185.58,179.44 L 197.69,176.80 L 198.81,162.22 L 220.70,162.13 L 210.71,146.53 L 218.87,124.75 L 243.28,129.38 L 249.92,137.74 L 279.45,136.85 L 337.93,119.74 L 357.14,123.03 L 375.56,133.12 L 414.23,135.16 L 453.73,130.11 L 524.64,107.75 L 582.56,109.31 L 622.35,103.07 L 637.53,93.75 L 647.71,99.06 L 650.00,110.14 L 609.92,137.87 L 575.47,144.20 L 567.33,154.28 L 564.30,172.66 L 573.83,197.93 L 561.64,223.66 L 561.86,251.73 L 543.90,276.14 L 523.25,280.53 L 379.28,340.43 L 232.36,406.25 L 199.93,402.35 L 152.57,379.57 L 162.37,367.05 Z" fill="#4A90D9" stroke="#1a5fa8" stroke-width="1.2"/>
<path d="M 143.29,379.08 L 139.00,381.08 L 135.00,372.85 L 143.71,372.98 L 143.29,379.08 Z" fill="#A8C8E8" stroke="none"/>
<path d="M 718.39,343.55 L 724.67,335.88 L 741.66,345.34 L 733.36,351.82 L 718.39,343.55 Z" fill="#A8C8E8" stroke="none"/>
<path d="M 702.68,304.54 L 703.30,279.45 L 734.63,305.94 L 731.86,319.66 L 719.34,318.52 L 702.68,304.54 Z" fill="#A8C8E8" stroke="none"/>
<path d="M 346.33,14.31 L 356.51,5.40 L 349.38,17.05 L 401.74,29.90 L 388.80,33.61 L 381.61,25.09 L 349.69,19.78 L 346.33,14.31 Z" fill="#A8C8E8" stroke="none"/>
<path d="M 361.66,87.96 L 346.33,83.87 L 339.69,76.83 L 346.68,78.32 L 346.62,71.62 L 354.09,73.22 L 350.18,83.12 L 376.55,72.88 L 371.17,67.37 L 371.22,64.31 L 381.81,72.87 L 396.23,59.05 L 392.56,71.08 L 367.19,79.75 L 361.66,87.96 Z" fill="#A8C8E8" stroke="none"/>
<path d="M 344.38,189.81 L 344.98,185.20 L 326.64,176.81 L 322.95,167.31 L 335.87,155.43 L 338.03,160.68 L 330.49,164.23 L 329.96,171.94 L 362.99,183.33 L 344.38,189.81 Z" fill="#A8C8E8" stroke="none"/>
<path d="M 459.89,11.63 L 455.20,13.56 L 440.34,10.89 L 424.13,14.62 L 432.13,7.95 L 429.48,2.94 L 424.97,4.04 L 417.97,0.00 L 424.17,0.00 L 430.85,3.23 L 438.15,0.00 L 444.39,0.00 L 436.05,1.34 L 433.90,7.84 L 459.89,11.63 Z M 403.36,0.29 L 403.16,0.00 L 404.85,0.00 L 403.36,0.29 Z M 379.69,1.23 L 377.85,0.00 L 385.53,0.00 L 379.69,1.23 Z" fill="#A8C8E8" stroke="none"/>
<path d="M 764.29,382.09 L 763.82,387.44 L 754.58,394.49 L 730.25,383.63 L 727.24,371.36 L 732.32,371.36 L 736.99,356.45 L 764.29,382.09 Z" fill="#A8C8E8" stroke="none"/>
<path d="M 138.62,459.20 L 134.18,469.39 L 134.00,465.48 L 126.81,468.03 L 125.15,456.33 L 137.65,440.65 L 138.62,459.20 Z" fill="#A8C8E8" stroke="none"/>
<path d="M 1.17,11.79 L 0.00,12.07 L 0.00,10.30 L 1.17,11.79 Z" fill="#A8C8E8" stroke="none"/>
<path d="M 691.93,30.16 L 687.51,20.06 L 673.64,24.25 L 644.18,19.95 L 658.78,12.64 L 656.81,5.66 L 703.75,1.45 L 706.03,0.00 L 719.38,0.00 L 703.04,13.45 L 720.56,17.78 L 719.83,24.19 L 706.67,31.85 L 691.93,30.16 Z" fill="#A8C8E8" stroke="none"/>
<path d="M 130.15,482.97 L 122.59,475.29 L 127.30,472.72 L 134.04,475.97 L 130.15,482.97 Z" fill="#A8C8E8" stroke="none"/>
</svg>