<svg xmlns="http://www.w3.org/2000/svg" width="800" height="500" viewBox="0 0 800 500">
<rect width="800" height="500" fill="#A8C8E8"/>
<path d="M 127.32,240.64 L 127.32,234.43 L 135.63,231.40 L 136.91,234.26 L 131.00,236.42 L 135.75,241.43 L 127.32,240.64 Z M 128.59,238.55 L 128.59,237.92 L 128.04,237.96 L 128.59,238.55 Z" fill="#E8E0D0" stroke="#B8B0A0" stroke-width="0.5"/>
<path d="M 130.04,240.11 L 128.96,239.53 L 130.76,240.21 L 130.04,240.11 Z M 128.04,237.96 L 128.59,237.92 L 128.59,238.55 L 128.04,237.96 Z M 142.42,235.26 L 146.37,241.00 L 133.00,241.09 L 131.27,235.73 L 142.42,235.26 Z" fill="#E8E0D0" stroke="#B8B0A0" stroke-width="0.5"/>
<path d="M 169.78,454.73 L 154.02,475.22 L 151.55,468.81 L 165.95,452.03 L 169.78,454.73 Z M 190.38,414.38 L 195.82,397.12 L 203.21,392.16 L 221.26,402.01 L 221.18,440.66 L 216.02,457.74 L 200.97,465.81 L 186.31,465.78 L 191.17,449.08 L 205.98,441.70 L 203.89,433.56 L 202.06,437.95 L 191.37,436.41 L 194.52,431.72 L 190.38,414.38 Z" fill="#E8E0D0" stroke="#B8B0A0" stroke-width="0.5"/>
<path d="M 663.90,58.04 L 672.68,39.68 L 672.68,62.94 L 663.90,58.04 Z M 668.38,27.77 L 667.67,0.00 L 672.68,0.00 L 672.68,29.13 L 668.38,27.77 Z" fill="#E8E0D0" stroke="#B8B0A0" stroke-width="0.5"/>
<path d="M 292.90,457.78 L 395.55,426.37 L 405.50,418.45 L 467.62,429.86 L 554.96,483.43 L 573.91,500.00 L 328.60,500.00 L 292.90,457.78 Z" fill="#E8E0D0" stroke="#B8B0A0" stroke-width="0.5"/>
<path d="M 161.19,500.00 L 127.32,500.00 L 127.32,479.33 L 151.55,468.81 L 161.19,500.00 Z" fill="#E8E0D0" stroke="#B8B0A0" stroke-width="0.5"/>
<path d="M 134.95,231.40 L 129.32,236.85 L 127.32,236.40 L 127.32,214.91 L 171.65,195.64 L 138.82,219.38 L 136.17,228.56 L 141.92,234.84 L 134.95,231.40 Z" fill="#E8E0D0" stroke="#B8B0A0" stroke-width="0.5"/>
<path d="M 141.92,234.84 L 142.42,235.26 L 137.75,235.63 L 141.92,234.84 Z" fill="#E8E0D0" stroke="#B8B0A0" stroke-width="0.5"/>
<path d="M 554.96,483.43 L 470.38,430.98 L 404.92,418.65 L 412.38,410.76 L 409.50,404.00 L 398.90,405.53 L 396.31,396.38 L 400.35,395.03 L 385.87,340.43 L 484.02,280.53 L 498.10,276.14 L 510.34,251.73 L 510.19,223.66 L 518.50,197.93 L 512.00,172.66 L 514.06,154.28 L 519.62,144.20 L 543.10,137.87 L 569.40,107.16 L 579.85,104.87 L 587.76,91.85 L 608.21,90.87 L 643.79,101.56 L 658.06,94.61 L 665.59,99.25 L 662.77,108.56 L 668.14,115.95 L 672.68,112.40 L 672.68,500.00 L 573.91,500.00 L 554.96,483.43 Z" fill="#C8D8E8" stroke="#8BAABB" stroke-width="0.8"/>
<path d="M 169.78,454.73 L 165.95,452.03 L 177.76,429.04 L 189.83,375.22 L 195.74,372.46 L 197.62,358.15 L 217.12,358.17 L 220.67,346.08 L 223.45,348.64 L 234.58,338.24 L 231.89,346.60 L 238.01,367.05 L 231.33,379.57 L 221.24,386.03 L 221.26,402.01 L 202.29,392.22 L 194.81,398.93 L 190.54,413.44 L 194.52,431.72 L 191.37,436.41 L 202.06,437.95 L 203.89,433.56 L 205.98,441.70 L 191.17,449.08 L 186.31,465.78 L 200.97,465.81 L 216.01,457.74 L 212.79,472.34 L 214.98,481.94 L 208.41,500.00 L 161.85,500.00 L 154.02,475.22 L 169.78,454.73 Z" fill="#C8D8E8" stroke="#8BAABB" stroke-width="0.8"/>
<path d="M 238.40,381.51 L 247.14,393.74 L 285.06,406.48 L 385.87,340.43 L 400.35,395.03 L 396.31,396.38 L 398.90,405.53 L 409.50,404.00 L 412.38,410.76 L 395.55,426.37 L 292.90,457.78 L 328.60,500.00 L 208.41,500.00 L 214.98,481.94 L 212.79,472.34 L 221.18,440.66 L 219.30,422.41 L 223.86,383.47 L 238.40,381.51 Z" fill="#C8D8E8" stroke="#8BAABB" stroke-width="0.8"/>
<path d="M 216.62,307.33 L 225.35,301.26 L 226.60,281.79 L 242.88,267.61 L 242.20,260.67 L 257.15,262.08 L 259.57,258.32 L 266.30,261.95 L 260.13,269.14 L 270.65,274.83 L 274.69,288.80 L 258.53,304.56 L 262.68,311.39 L 246.33,312.67 L 239.73,323.66 L 245.55,328.19 L 223.45,348.64 L 220.67,346.08 L 217.12,358.17 L 197.91,358.06 L 216.62,307.33 Z" fill="#C8D8E8" stroke="#8BAABB" stroke-width="0.8"/>
<path d="M 668.38,27.77 L 672.68,29.13 L 672.68,39.68 L 663.90,58.04 L 672.68,62.94 L 672.68,112.40 L 668.14,115.95 L 662.77,108.56 L 665.59,99.25 L 658.06,94.61 L 643.79,101.56 L 608.21,90.87 L 599.10,94.05 L 591.08,90.59 L 579.03,105.23 L 569.40,107.16 L 568.86,99.06 L 561.92,93.75 L 551.57,103.07 L 524.45,109.31 L 484.97,107.75 L 436.62,130.11 L 409.70,135.16 L 383.34,133.12 L 370.78,123.03 L 357.69,119.74 L 317.83,136.85 L 297.69,137.74 L 293.16,129.38 L 276.52,124.75 L 270.96,146.53 L 278.07,161.61 L 262.85,162.22 L 262.09,176.80 L 253.83,179.44 L 250.84,187.67 L 239.20,181.55 L 242.49,175.27 L 232.85,157.44 L 254.57,136.34 L 253.43,126.39 L 244.79,118.62 L 223.60,130.22 L 222.20,133.67 L 228.85,131.50 L 224.46,138.83 L 210.25,142.66 L 176.79,125.64 L 155.44,139.80 L 139.19,163.10 L 134.69,156.77 L 127.32,165.50 L 127.32,0.00 L 667.67,0.00 L 668.38,27.77 Z" fill="#C8D8E8" stroke="#8BAABB" stroke-width="0.8"/>
<path d="M 238.01,367.05 L 231.65,342.75 L 245.55,328.19 L 239.73,323.66 L 241.11,319.36 L 250.83,310.54 L 262.06,312.22 L 258.53,304.56 L 274.69,288.80 L 270.65,274.83 L 260.13,269.14 L 266.30,261.95 L 259.57,258.32 L 257.15,262.08 L 242.20,260.67 L 236.93,243.55 L 241.82,226.47 L 239.60,212.76 L 229.58,202.50 L 235.57,192.18 L 233.43,185.80 L 242.74,180.99 L 251.82,187.49 L 253.83,179.44 L 262.09,176.80 L 262.85,162.22 L 277.77,162.13 L 270.96,146.53 L 276.52,124.75 L 293.16,129.38 L 297.69,137.74 L 317.83,136.85 L 357.69,119.74 L 370.78,123.03 L 383.34,133.12 L 409.70,135.16 L 436.62,130.11 L 484.97,107.75 L 524.45,109.31 L 551.57,103.07 L 561.92,93.75 L 568.86,99.06 L 570.42,110.14 L 543.10,137.87 L 519.62,144.20 L 514.06,154.28 L 512.00,172.66 L 518.50,197.93 L 510.19,223.66 L 510.34,251.73 L 498.10,276.14 L 484.02,280.53 L 385.87,340.43 L 285.72,406.25 L 263.62,402.35 L 231.33,379.57 L 238.01,367.05 Z" fill="#4A90D9" stroke="#1a5fa8" stroke-width="1.2"/>
<path d="M 225.00,379.08 L 222.08,381.08 L 219.35,372.85 L 225.29,372.98 L 225.00,379.08 Z" fill="#A8C8E8" stroke="none"/>
<path d="M 617.04,343.55 L 621.32,335.88 L 632.91,345.34 L 627.25,351.82 L 617.04,343.55 Z" fill="#A8C8E8" stroke="none"/>
<path d="M 606.34,304.54 L 606.76,279.45 L 628.11,305.94 L 626.23,319.66 L 617.69,318.52 L 606.34,304.54 Z" fill="#A8C8E8" stroke="none"/>
<path d="M 363.41,14.31 L 370.35,5.40 L 365.49,17.05 L 401.19,29.90 L 392.37,33.61 L 387.46,25.09 L 365.71,19.78 L 363.41,14.31 Z" fill="#A8C8E8" stroke="none"/>
<path d="M 373.86,87.96 L 363.41,83.87 L 358.89,76.83 L 363.65,78.32 L 363.61,71.62 L 368.71,73.22 L 366.04,83.12 L 384.01,72.88 L 380.35,67.37 L 380.38,64.31 L 387.60,72.87 L 397.43,59.05 L 394.93,71.08 L 377.63,79.75 L 373.86,87.96 Z" fill="#A8C8E8" stroke="none"/>
<path d="M 362.09,189.81 L 362.49,185.20 L 349.99,176.81 L 347.48,167.31 L 356.28,155.43 L 357.76,160.68 L 352.62,164.23 L 352.26,171.94 L 374.77,183.33 L 362.09,189.81 Z" fill="#A8C8E8" stroke="none"/>
<path d="M 440.83,11.63 L 437.63,13.56 L 427.50,10.89 L 416.45,14.62 L 421.91,7.95 L 420.10,2.94 L 417.02,4.04 L 412.25,0.00 L 416.48,0.00 L 421.03,3.23 L 426.01,0.00 L 430.26,0.00 L 424.57,1.34 L 423.11,7.84 L 440.83,11.63 Z M 402.29,0.29 L 402.16,0.00 L 403.31,0.00 L 402.29,0.29 Z M 386.15,1.23 L 384.90,0.00 L 390.13,0.00 L 386.15,1.23 Z" fill="#A8C8E8" stroke="none"/>
<path d="M 648.33,382.09 L 648.01,387.44 L 641.71,394.49 L 625.12,383.63 L 623.07,371.36 L 626.54,371.36 L 629.72,356.45 L 648.33,382.09 Z" fill="#A8C8E8" stroke="none"/>
<path d="M 221.82,459.20 L 218.79,469.39 L 218.67,465.48 L 213.77,468.03 L 212.64,456.33 L 221.16,440.65 L 221.82,459.20 Z" fill="#A8C8E8" stroke="none"/>
<path d="M 128.12,11.79 L 127.32,12.07 L 127.32,10.30 L 128.12,11.79 Z" fill="#A8C8E8" stroke="none"/>
<path d="M 599.01,30.16 L 595.99,20.06 L 586.54,24.25 L 566.45,19.95 L 576.40,12.64 L 575.06,5.66 L 607.06,1.45 L 608.62,0.00 L 617.72,0.00 L 606.58,13.45 L 618.52,17.78 L 618.02,24.19 L 609.05,31.85 L 599.01,30.16 Z" fill="#A8C8E8" stroke="none"/>
<path d="M 216.05,482.97 L 210.89,475.29 L 214.10,472.72 L 218.70,475.97 L 216.05,482.97 Z" fill="#A8C8E8" stroke="none"/>
</svg>