<svg xmlns="http://www.w3.org/2000/svg" width="800" height="500" viewBox="0 0 800 500">
<rect width="800" height="500" fill="#A8C8E8"/>
<path d="M 150.68,490.19 L 185.43,500.00 L 168.96,500.00 L 111.19,494.25 L 150.68,490.19 Z" fill="#E8E0D0" stroke="#B8B0A0" stroke-width="0.5"/>
<path d="M 88.01,281.18 L 82.22,268.38 L 103.39,259.76 L 123.67,268.69 L 88.01,281.18 Z M 68.35,119.52 L 164.73,139.55 L 156.41,146.28 L 66.49,134.55 L 68.35,119.52 Z M 3.81,311.11 L 37.49,326.47 L 61.04,321.03 L 100.12,298.44 L 68.82,348.56 L 44.89,355.00 L 0.00,357.54 L 0.00,312.13 L 3.81,311.11 Z" fill="#E8E0D0" stroke="#B8B0A0" stroke-width="0.5"/>
<path d="M 242.96,241.30 L 230.95,249.08 L 235.43,243.67 L 242.96,241.30 Z M 457.97,232.68 L 453.63,229.79 L 481.04,234.21 L 486.38,243.75 L 457.97,232.68 Z M 388.61,213.78 L 431.58,216.03 L 443.54,226.58 L 388.61,213.78 Z M 268.67,212.81 L 320.18,220.19 L 278.31,230.55 L 268.67,212.81 Z M 346.91,198.05 L 373.52,199.38 L 386.92,215.82 L 362.71,212.11 L 364.38,200.31 L 345.79,206.22 L 346.91,198.05 Z M 569.05,273.78 L 565.05,280.13 L 563.53,273.69 L 569.05,273.78 Z M 431.19,300.00 L 432.76,299.67 L 426.50,301.95 L 431.19,300.00 Z M 444.07,296.89 L 442.61,301.55 L 441.06,300.23 L 444.07,296.89 Z M 553.15,295.22 L 547.85,299.03 L 546.47,298.45 L 553.15,295.22 Z M 477.19,268.29 L 471.03,271.11 L 466.35,266.86 L 476.71,258.60 L 477.19,268.29 Z M 322.21,214.17 L 318.01,215.12 L 320.05,214.03 L 322.21,214.17 Z M 329.51,211.20 L 326.36,212.48 L 325.89,211.37 L 329.51,211.20 Z" fill="#4A90D9" stroke="#1a5fa8" stroke-width="1.2"/>
</svg>