<svg xmlns="http://www.w3.org/2000/svg" width="800" height="500" viewBox="0 0 800 500">
<rect width="800" height="500" fill="#A8C8E8"/>
<path d="M 558.68,439.92 L 552.93,437.46 L 552.12,435.75 L 545.49,433.98 L 547.08,431.37 L 542.57,426.28 L 544.60,422.60 L 539.19,419.13 L 537.96,415.88 L 525.39,409.24 L 522.19,405.99 L 521.71,404.45 L 523.87,402.90 L 522.69,398.89 L 519.71,398.26 L 514.82,392.70 L 502.60,390.00 L 502.31,387.63 L 504.45,384.87 L 503.06,382.32 L 510.26,378.86 L 512.56,369.33 L 514.68,366.45 L 514.75,360.60 L 518.15,357.70 L 520.05,351.44 L 534.23,348.84 L 535.68,353.51 L 549.28,367.23 L 557.86,364.76 L 559.08,364.78 L 559.08,440.50 L 558.68,439.92 Z" fill="#E8E0D0" stroke="#B8B0A0" stroke-width="0.5"/>
<path d="M 398.04,491.64 L 393.54,500.00 L 356.63,500.00 L 357.76,497.35 L 357.50,491.08 L 360.01,484.32 L 371.31,482.76 L 376.25,480.28 L 382.56,482.05 L 383.49,483.57 L 388.02,483.11 L 389.89,484.80 L 391.16,482.89 L 395.38,481.77 L 398.29,484.81 L 398.04,491.64 Z" fill="#E8E0D0" stroke="#B8B0A0" stroke-width="0.5"/>
<path d="M 398.67,473.66 L 396.70,468.14 L 400.69,466.72 L 406.92,456.76 L 413.06,452.43 L 420.91,453.08 L 430.62,459.45 L 435.17,466.44 L 440.67,465.68 L 447.07,468.85 L 457.01,468.82 L 467.69,472.04 L 471.60,470.82 L 473.15,465.29 L 474.98,464.93 L 478.93,458.43 L 488.67,462.99 L 491.94,460.19 L 504.61,456.35 L 507.24,454.27 L 507.20,452.58 L 513.51,456.60 L 524.40,454.35 L 525.46,448.90 L 528.86,447.63 L 535.79,451.65 L 541.21,450.31 L 546.95,454.05 L 551.43,453.13 L 553.84,454.24 L 557.74,451.00 L 559.08,451.43 L 559.08,500.00 L 393.54,500.00 L 398.04,491.64 L 398.67,473.66 Z" fill="#E8E0D0" stroke="#B8B0A0" stroke-width="0.5"/>
<path d="M 243.21,73.61 L 248.66,71.98 L 264.56,77.05 L 272.63,92.33 L 240.92,111.72 L 240.92,71.88 L 243.21,73.61 Z" fill="#E8E0D0" stroke="#B8B0A0" stroke-width="0.5"/>
<path d="M 518.24,122.14 L 518.24,-0.00 L 559.08,-0.00 L 559.08,122.14 L 518.24,122.14 Z" fill="#E8E0D0" stroke="#B8B0A0" stroke-width="0.5"/>
<path d="M 244.83,418.27 L 246.39,413.25 L 255.03,420.89 L 256.17,426.60 L 259.16,426.97 L 264.41,422.76 L 264.94,418.24 L 270.80,414.26 L 268.24,410.65 L 273.61,404.53 L 273.57,401.73 L 276.84,397.00 L 277.50,388.66 L 280.84,386.50 L 280.18,384.29 L 283.75,384.36 L 288.21,380.78 L 290.17,371.50 L 289.36,369.24 L 295.78,366.02 L 296.44,356.17 L 300.30,354.05 L 302.26,344.89 L 306.34,337.15 L 310.63,332.06 L 314.09,332.81 L 322.60,326.92 L 321.19,323.57 L 323.58,314.40 L 320.16,311.27 L 314.53,310.63 L 312.19,296.78 L 318.86,296.71 L 321.44,302.87 L 326.43,305.38 L 327.92,314.90 L 330.78,316.23 L 332.40,327.08 L 330.24,333.90 L 332.45,346.84 L 342.70,357.23 L 325.55,358.59 L 314.40,357.48 L 309.95,363.86 L 317.56,373.34 L 330.82,383.62 L 338.16,399.37 L 340.47,400.29 L 338.01,408.18 L 334.07,410.96 L 325.54,429.16 L 318.28,434.63 L 322.62,438.04 L 322.62,445.28 L 320.78,449.29 L 323.40,451.76 L 324.51,462.38 L 329.73,466.47 L 331.56,472.18 L 333.42,473.33 L 330.33,474.05 L 331.44,476.80 L 350.46,496.83 L 350.44,500.00 L 240.92,500.00 L 240.92,418.20 L 244.83,418.27 Z" fill="#C8D8E8" stroke="#8BAABB" stroke-width="0.8"/>
<path d="M 486.34,348.45 L 493.01,359.74 L 492.78,371.21 L 489.80,373.30 L 489.07,376.27 L 491.55,377.13 L 490.38,382.31 L 503.83,382.68 L 504.45,384.87 L 502.31,387.63 L 502.60,390.00 L 514.82,392.70 L 519.71,398.26 L 522.69,398.89 L 523.87,402.90 L 521.71,404.45 L 522.19,405.99 L 525.39,409.24 L 537.96,415.88 L 539.19,419.13 L 544.60,422.60 L 542.57,426.28 L 547.08,431.37 L 545.49,433.98 L 552.12,435.75 L 552.93,437.46 L 558.68,439.92 L 559.08,440.50 L 559.08,451.50 L 557.74,451.00 L 553.84,454.24 L 551.43,453.13 L 546.95,454.05 L 541.21,450.31 L 535.79,451.65 L 528.86,447.63 L 525.46,448.90 L 524.40,454.35 L 513.51,456.60 L 507.20,452.58 L 507.24,454.27 L 504.61,456.35 L 491.94,460.19 L 488.67,462.99 L 478.93,458.43 L 474.98,464.93 L 473.15,465.29 L 471.60,470.82 L 467.69,472.04 L 457.01,468.82 L 447.07,468.85 L 440.67,465.68 L 435.17,466.44 L 430.62,459.45 L 420.91,453.08 L 413.06,452.43 L 406.92,456.76 L 400.69,466.72 L 396.70,468.14 L 398.67,473.66 L 398.29,484.81 L 395.38,481.77 L 391.16,482.89 L 389.89,484.80 L 388.02,483.11 L 383.49,483.57 L 382.56,482.05 L 376.25,480.28 L 367.77,483.61 L 360.79,483.80 L 357.50,491.08 L 357.76,497.35 L 356.46,500.00 L 350.57,500.00 L 349.76,495.33 L 347.09,492.23 L 344.67,492.03 L 331.44,476.80 L 330.33,474.05 L 333.42,473.33 L 331.56,472.18 L 329.73,466.47 L 324.51,462.38 L 323.40,451.76 L 320.78,449.29 L 322.62,445.28 L 322.62,438.04 L 318.28,434.63 L 325.54,429.16 L 334.07,410.96 L 338.01,408.18 L 338.92,405.56 L 347.31,406.25 L 355.72,402.64 L 356.12,400.46 L 359.07,398.77 L 360.31,402.50 L 363.48,405.21 L 379.67,396.52 L 397.59,395.29 L 407.69,383.01 L 402.88,379.59 L 405.76,376.93 L 432.43,373.94 L 434.44,370.34 L 436.82,370.73 L 439.81,368.45 L 447.94,357.53 L 450.16,357.58 L 452.78,353.13 L 456.66,351.25 L 456.73,344.59 L 470.41,337.51 L 478.22,339.06 L 486.34,348.45 Z" fill="#C8D8E8" stroke="#8BAABB" stroke-width="0.8"/>
<path d="M 518.16,161.29 L 499.37,161.30 L 499.37,171.08 L 348.44,93.75 L 315.05,109.97 L 301.19,98.94 L 272.63,92.33 L 263.94,76.73 L 249.07,72.06 L 243.21,73.61 L 240.92,71.97 L 240.92,-0.00 L 518.23,-0.00 L 518.16,161.29 Z" fill="#C8D8E8" stroke="#8BAABB" stroke-width="0.8"/>
<path d="M 272.63,92.33 L 301.19,98.94 L 315.05,109.97 L 329.46,102.54 L 333.09,122.17 L 333.32,132.01 L 341.34,142.59 L 340.12,143.78 L 340.61,146.49 L 348.16,154.63 L 343.73,163.10 L 338.75,221.60 L 317.93,244.45 L 307.83,258.75 L 304.51,267.97 L 300.58,270.12 L 303.55,284.51 L 298.32,284.41 L 296.40,287.57 L 289.11,288.72 L 288.41,291.00 L 283.81,293.55 L 282.14,297.05 L 274.30,296.02 L 262.65,291.17 L 248.21,290.96 L 240.92,292.66 L 240.92,111.72 L 272.63,92.33 Z" fill="#C8D8E8" stroke="#8BAABB" stroke-width="0.8"/>
<path d="M 248.21,290.96 L 262.65,291.17 L 274.30,296.02 L 282.14,297.05 L 283.81,293.55 L 288.41,291.00 L 289.11,288.72 L 296.40,287.57 L 298.32,284.41 L 303.55,284.51 L 312.19,296.78 L 314.53,310.63 L 320.16,311.27 L 323.61,314.61 L 321.19,323.57 L 322.69,325.14 L 322.40,327.39 L 314.09,332.81 L 310.63,332.06 L 306.34,337.15 L 302.26,344.89 L 300.30,354.05 L 296.44,356.17 L 295.78,366.02 L 289.36,369.24 L 290.17,371.50 L 287.81,381.36 L 283.75,384.36 L 280.18,384.29 L 280.84,386.50 L 277.50,388.66 L 276.84,397.00 L 273.57,401.73 L 273.61,404.53 L 268.24,410.65 L 270.80,414.26 L 264.94,418.24 L 264.41,422.76 L 261.32,426.47 L 256.48,426.90 L 255.03,420.89 L 246.39,413.25 L 244.83,418.27 L 240.92,418.20 L 240.92,292.66 L 248.21,290.96 Z" fill="#C8D8E8" stroke="#8BAABB" stroke-width="0.8"/>
<path d="M 479.97,332.56 L 479.24,329.72 L 476.54,329.58 L 472.19,325.08 L 473.53,316.46 L 470.61,317.29 L 471.10,314.66 L 469.01,308.82 L 470.38,305.92 L 465.84,303.33 L 463.97,305.15 L 460.76,305.36 L 458.37,302.34 L 461.29,296.38 L 467.02,291.75 L 463.38,283.02 L 466.02,279.57 L 472.28,275.98 L 470.07,273.54 L 468.83,268.07 L 474.74,265.23 L 474.41,261.93 L 480.05,255.19 L 479.08,248.53 L 482.63,245.34 L 499.42,245.01 L 499.37,161.30 L 518.23,161.17 L 518.24,122.14 L 559.08,122.14 L 559.08,364.78 L 557.86,364.76 L 549.28,367.23 L 535.68,353.51 L 534.23,348.84 L 520.05,351.44 L 518.15,357.70 L 514.75,360.60 L 514.68,366.45 L 512.56,369.33 L 510.26,378.86 L 501.87,382.88 L 490.09,381.88 L 491.55,377.13 L 489.07,376.27 L 489.80,373.30 L 492.78,371.21 L 493.01,359.74 L 486.34,348.45 L 478.22,339.06 L 479.97,332.56 Z" fill="#C8D8E8" stroke="#8BAABB" stroke-width="0.8"/>
<path d="M 303.55,284.51 L 300.58,270.12 L 304.51,267.97 L 307.83,258.75 L 317.93,244.45 L 338.63,222.03 L 343.73,163.10 L 348.16,154.63 L 340.61,146.49 L 340.12,143.78 L 341.34,142.59 L 333.32,132.01 L 333.09,122.17 L 329.46,102.54 L 348.44,93.75 L 499.37,171.08 L 499.42,245.01 L 482.63,245.34 L 479.08,248.53 L 480.05,255.19 L 474.41,261.93 L 474.74,265.23 L 468.83,268.07 L 470.07,273.54 L 472.28,275.98 L 466.02,279.57 L 463.38,283.02 L 467.02,291.75 L 461.29,296.38 L 458.37,302.34 L 460.76,305.36 L 463.97,305.15 L 465.84,303.33 L 470.38,305.92 L 469.01,308.82 L 471.10,314.66 L 470.61,317.29 L 473.53,316.46 L 472.19,325.08 L 476.54,329.58 L 479.24,329.72 L 479.38,335.77 L 478.22,339.06 L 470.41,337.51 L 456.73,344.59 L 456.66,351.25 L 452.78,353.13 L 450.16,357.58 L 447.94,357.53 L 439.81,368.45 L 436.82,370.73 L 434.44,370.34 L 432.43,373.94 L 405.76,376.93 L 402.88,379.59 L 407.69,383.01 L 397.59,395.29 L 379.67,396.52 L 363.92,405.16 L 360.31,402.50 L 359.07,398.77 L 356.12,400.46 L 355.72,402.64 L 347.31,406.25 L 338.92,405.56 L 340.47,400.29 L 338.16,399.37 L 333.31,386.84 L 317.56,373.34 L 309.98,364.15 L 314.40,357.48 L 325.55,358.59 L 342.70,357.23 L 332.33,346.47 L 330.24,333.90 L 332.40,327.08 L 331.10,324.14 L 331.94,322.14 L 330.78,316.23 L 327.92,314.90 L 326.65,305.78 L 321.44,302.87 L 318.86,296.71 L 312.19,296.78 L 303.55,284.51 Z" fill="#4A90D9" stroke="#1a5fa8" stroke-width="1.2"/>
<path d="M 323.83,298.74 L 316.04,300.49 L 316.23,295.64 L 318.15,297.06 L 316.64,294.92 L 321.10,293.34 L 323.56,294.28 L 324.81,296.72 L 323.83,298.74 Z" fill="#A8C8E8" stroke="none"/>
<path d="M 289.68,425.93 L 287.89,427.02 L 290.73,429.09 L 291.04,427.02 L 292.41,426.80 L 292.12,429.17 L 288.94,429.63 L 284.96,426.47 L 286.85,425.17 L 289.68,425.93 Z" fill="#A8C8E8" stroke="none"/>
</svg>