<svg xmlns="http://www.w3.org/2000/svg" width="800" height="500" viewBox="0 0 800 500">
<rect width="800" height="500" fill="#A8C8E8"/>
<path d="M 799.00,439.92 L 784.53,437.46 L 782.51,435.75 L 765.83,433.98 L 769.82,431.37 L 758.49,426.28 L 763.60,422.60 L 749.99,419.13 L 746.90,415.88 L 715.29,409.24 L 707.24,405.99 L 706.04,404.45 L 711.46,402.90 L 708.50,398.89 L 701.01,398.26 L 688.72,392.70 L 658.00,390.00 L 657.25,387.63 L 662.63,384.87 L 659.14,382.32 L 677.24,378.86 L 683.02,369.33 L 688.35,366.45 L 688.54,360.60 L 697.08,357.70 L 701.85,351.44 L 737.52,348.84 L 741.17,353.51 L 775.36,367.23 L 796.94,364.76 L 800.00,364.78 L 800.00,440.50 L 799.00,439.92 Z" fill="#E8E0D0" stroke="#B8B0A0" stroke-width="0.5"/>
<path d="M 395.07,491.64 L 383.75,500.00 L 290.95,500.00 L 293.79,497.35 L 293.14,491.08 L 299.46,484.32 L 327.87,482.76 L 340.29,480.28 L 356.16,482.05 L 358.48,483.57 L 369.87,483.11 L 374.59,484.80 L 377.77,482.89 L 388.38,481.77 L 395.70,484.81 L 395.07,491.64 Z" fill="#E8E0D0" stroke="#B8B0A0" stroke-width="0.5"/>
<path d="M 396.66,473.66 L 391.69,468.14 L 401.73,466.72 L 417.39,456.76 L 432.84,452.43 L 452.57,453.08 L 476.98,459.45 L 488.44,466.44 L 502.26,465.68 L 518.37,468.85 L 543.35,468.82 L 570.21,472.04 L 580.05,470.82 L 583.94,465.29 L 588.54,464.93 L 598.46,458.43 L 622.95,462.99 L 631.19,460.19 L 663.04,456.35 L 669.66,454.27 L 669.55,452.58 L 685.42,456.60 L 712.80,454.35 L 715.46,448.90 L 724.01,447.63 L 741.43,451.65 L 755.07,450.31 L 769.51,454.05 L 780.76,453.13 L 786.81,454.24 L 796.62,451.00 L 800.00,451.43 L 800.00,500.00 L 383.75,500.00 L 395.07,491.64 L 396.66,473.66 Z" fill="#E8E0D0" stroke="#B8B0A0" stroke-width="0.5"/>
<path d="M 5.77,73.61 L 19.46,71.98 L 59.44,77.05 L 79.73,92.33 L 0.00,111.72 L 0.00,71.88 L 5.77,73.61 Z" fill="#E8E0D0" stroke="#B8B0A0" stroke-width="0.5"/>
<path d="M 697.31,122.14 L 697.31,0.00 L 800.00,0.00 L 800.00,122.14 L 697.31,122.14 Z" fill="#E8E0D0" stroke="#B8B0A0" stroke-width="0.5"/>
<path d="M 9.82,418.27 L 13.75,413.25 L 35.49,420.89 L 38.35,426.60 L 45.87,426.97 L 59.06,422.76 L 60.41,418.24 L 75.14,414.26 L 68.71,410.65 L 82.20,404.53 L 82.11,401.73 L 90.32,397.00 L 91.98,388.66 L 100.37,386.50 L 98.71,384.29 L 107.69,384.36 L 118.92,380.78 L 123.85,371.50 L 121.80,369.24 L 137.94,366.02 L 139.59,356.17 L 149.31,354.05 L 154.24,344.89 L 164.49,337.15 L 175.29,332.06 L 183.98,332.81 L 205.37,326.92 L 201.85,323.57 L 207.85,314.40 L 199.25,311.27 L 185.09,310.63 L 179.21,296.78 L 195.97,296.71 L 202.46,302.87 L 215.01,305.38 L 218.75,314.90 L 225.94,316.23 L 230.03,327.08 L 224.60,333.90 L 230.15,346.84 L 255.92,357.23 L 212.79,358.59 L 184.75,357.48 L 173.56,363.86 L 192.72,373.34 L 226.05,383.62 L 244.51,399.37 L 250.31,400.29 L 244.13,408.18 L 234.22,410.96 L 212.78,429.16 L 194.51,434.63 L 205.43,438.04 L 205.43,445.28 L 200.80,449.29 L 207.40,451.76 L 210.17,462.38 L 223.30,466.47 L 227.92,472.18 L 232.60,473.33 L 224.82,474.05 L 227.62,476.80 L 275.43,496.83 L 275.39,500.00 L 0.00,500.00 L 0.00,418.20 L 9.82,418.27 Z" fill="#C8D8E8" stroke="#8BAABB" stroke-width="0.8"/>
<path d="M 617.10,348.45 L 633.88,359.74 L 633.28,371.21 L 625.79,373.30 L 623.96,376.27 L 630.21,377.13 L 627.26,382.31 L 661.07,382.68 L 662.63,384.87 L 657.25,387.63 L 658.00,390.00 L 688.72,392.70 L 701.01,398.26 L 708.50,398.89 L 711.46,402.90 L 706.04,404.45 L 707.24,405.99 L 715.29,409.24 L 746.90,415.88 L 749.99,419.13 L 763.60,422.60 L 758.49,426.28 L 769.82,431.37 L 765.83,433.98 L 782.51,435.75 L 784.53,437.46 L 799.00,439.92 L 800.00,440.50 L 800.00,451.50 L 796.62,451.00 L 786.81,454.24 L 780.76,453.13 L 769.51,454.05 L 755.07,450.31 L 741.43,451.65 L 724.01,447.63 L 715.46,448.90 L 712.80,454.35 L 685.42,456.60 L 669.55,452.58 L 669.66,454.27 L 663.04,456.35 L 631.19,460.19 L 622.95,462.99 L 598.46,458.43 L 588.54,464.93 L 583.94,465.29 L 580.05,470.82 L 570.21,472.04 L 543.35,468.82 L 518.37,468.85 L 502.26,465.68 L 488.44,466.44 L 476.98,459.45 L 452.57,453.08 L 432.84,452.43 L 417.39,456.76 L 401.73,466.72 L 391.69,468.14 L 396.66,473.66 L 395.70,484.81 L 388.38,481.77 L 377.77,482.89 L 374.59,484.80 L 369.87,483.11 L 358.48,483.57 L 356.16,482.05 L 340.29,480.28 L 318.95,483.61 L 301.40,483.80 L 293.14,491.08 L 293.79,497.35 L 290.53,500.00 L 275.71,500.00 L 273.68,495.33 L 266.97,492.23 L 260.88,492.03 L 227.62,476.80 L 224.82,474.05 L 232.60,473.33 L 227.92,472.18 L 223.30,466.47 L 210.17,462.38 L 207.40,451.76 L 200.80,449.29 L 205.43,445.28 L 205.43,438.04 L 194.51,434.63 L 212.78,429.16 L 234.22,410.96 L 244.13,408.18 L 246.42,405.56 L 267.50,406.25 L 288.65,402.64 L 289.66,400.46 L 297.09,398.77 L 300.20,402.50 L 308.18,405.21 L 348.88,396.52 L 393.94,395.29 L 419.33,383.01 L 407.25,379.59 L 414.47,376.93 L 481.55,373.94 L 486.61,370.34 L 492.60,370.73 L 500.11,368.45 L 520.55,357.53 L 526.12,357.58 L 532.72,353.13 L 542.47,351.25 L 542.65,344.59 L 577.04,337.51 L 596.68,339.06 L 617.10,348.45 Z" fill="#C8D8E8" stroke="#8BAABB" stroke-width="0.8"/>
<path d="M 697.10,161.29 L 649.85,161.30 L 649.85,171.08 L 270.34,93.75 L 186.39,109.97 L 151.55,98.94 L 79.73,92.33 L 57.88,76.73 L 20.49,72.06 L 5.77,73.61 L 0.00,71.97 L 0.00,0.00 L 697.29,0.00 L 697.10,161.29 Z" fill="#C8D8E8" stroke="#8BAABB" stroke-width="0.8"/>
<path d="M 79.73,92.33 L 151.55,98.94 L 186.39,109.97 L 222.64,102.54 L 231.75,122.17 L 232.35,132.01 L 252.51,142.59 L 249.42,143.78 L 250.65,146.49 L 269.64,154.63 L 258.52,163.10 L 245.99,221.60 L 193.64,244.45 L 168.25,258.75 L 159.89,267.97 L 150.00,270.12 L 157.49,284.51 L 144.32,284.41 L 139.49,287.57 L 121.18,288.72 L 119.42,291.00 L 107.83,293.55 L 103.64,297.05 L 83.94,296.02 L 54.63,291.17 L 18.32,290.96 L 0.00,292.66 L 0.00,111.72 L 79.73,92.33 Z" fill="#C8D8E8" stroke="#8BAABB" stroke-width="0.8"/>
<path d="M 18.32,290.96 L 54.63,291.17 L 83.94,296.02 L 103.64,297.05 L 107.83,293.55 L 119.42,291.00 L 121.18,288.72 L 139.49,287.57 L 144.32,284.41 L 157.49,284.51 L 179.21,296.78 L 185.09,310.63 L 199.25,311.27 L 207.92,314.61 L 201.85,323.57 L 205.62,325.14 L 204.88,327.39 L 183.98,332.81 L 175.29,332.06 L 164.49,337.15 L 154.24,344.89 L 149.31,354.05 L 139.59,356.17 L 137.94,366.02 L 121.80,369.24 L 123.85,371.50 L 117.89,381.36 L 107.69,384.36 L 98.71,384.29 L 100.37,386.50 L 91.98,388.66 L 90.32,397.00 L 82.11,401.73 L 82.20,404.53 L 68.71,410.65 L 75.14,414.26 L 60.41,418.24 L 59.06,422.76 L 51.30,426.47 L 39.13,426.90 L 35.49,420.89 L 13.75,413.25 L 9.82,418.27 L 0.00,418.20 L 0.00,292.66 L 18.32,290.96 Z" fill="#C8D8E8" stroke="#8BAABB" stroke-width="0.8"/>
<path d="M 601.08,332.56 L 599.24,329.72 L 592.45,329.58 L 581.53,325.08 L 584.88,316.46 L 577.56,317.29 L 578.79,314.66 L 573.51,308.82 L 576.97,305.92 L 565.54,303.33 L 560.84,305.15 L 552.78,305.36 L 546.77,302.34 L 554.11,296.38 L 568.52,291.75 L 559.38,283.02 L 566.01,279.57 L 581.75,275.98 L 576.18,273.54 L 573.07,268.07 L 587.93,265.23 L 587.09,261.93 L 601.29,255.19 L 598.85,248.53 L 607.77,245.34 L 650.00,245.01 L 649.85,161.30 L 697.28,161.17 L 697.31,122.14 L 800.00,122.14 L 800.00,364.78 L 796.94,364.76 L 775.36,367.23 L 741.17,353.51 L 737.52,348.84 L 701.85,351.44 L 697.08,357.70 L 688.54,360.60 L 688.35,366.45 L 683.02,369.33 L 677.24,378.86 L 656.15,382.88 L 626.54,381.88 L 630.21,377.13 L 623.96,376.27 L 625.79,373.30 L 633.28,371.21 L 633.88,359.74 L 617.10,348.45 L 596.68,339.06 L 601.08,332.56 Z" fill="#C8D8E8" stroke="#8BAABB" stroke-width="0.8"/>
<path d="M 157.49,284.51 L 150.00,270.12 L 159.89,267.97 L 168.25,258.75 L 193.64,244.45 L 245.68,222.03 L 258.52,163.10 L 269.64,154.63 L 250.65,146.49 L 249.42,143.78 L 252.51,142.59 L 232.35,132.01 L 231.75,122.17 L 222.64,102.54 L 270.34,93.75 L 649.85,171.08 L 650.00,245.01 L 607.77,245.34 L 598.85,248.53 L 601.29,255.19 L 587.09,261.93 L 587.93,265.23 L 573.07,268.07 L 576.18,273.54 L 581.75,275.98 L 566.01,279.57 L 559.38,283.02 L 568.52,291.75 L 554.11,296.38 L 546.77,302.34 L 552.78,305.36 L 560.84,305.15 L 565.54,303.33 L 576.97,305.92 L 573.51,308.82 L 578.79,314.66 L 577.56,317.29 L 584.88,316.46 L 581.53,325.08 L 592.45,329.58 L 599.24,329.72 L 599.59,335.77 L 596.68,339.06 L 577.04,337.51 L 542.65,344.59 L 542.47,351.25 L 532.72,353.13 L 526.12,357.58 L 520.55,357.53 L 500.11,368.45 L 492.60,370.73 L 486.61,370.34 L 481.55,373.94 L 414.47,376.93 L 407.25,379.59 L 419.33,383.01 L 393.94,395.29 L 348.88,396.52 L 309.28,405.16 L 300.20,402.50 L 297.09,398.77 L 289.66,400.46 L 288.65,402.64 L 267.50,406.25 L 246.42,405.56 L 250.31,400.29 L 244.51,399.37 L 232.31,386.84 L 192.72,373.34 L 173.64,364.15 L 184.75,357.48 L 212.79,358.59 L 255.92,357.23 L 229.84,346.47 L 224.60,333.90 L 230.03,327.08 L 226.75,324.14 L 228.85,322.14 L 225.94,316.23 L 218.75,314.90 L 215.56,305.78 L 202.46,302.87 L 195.97,296.71 L 179.21,296.78 L 157.49,284.51 Z" fill="#4A90D9" stroke="#1a5fa8" stroke-width="1.2"/>
<path d="M 208.46,298.74 L 188.89,300.49 L 189.36,295.64 L 194.20,297.06 L 190.38,294.92 L 201.60,293.34 L 207.80,294.28 L 210.95,296.72 L 208.46,298.74 Z" fill="#A8C8E8" stroke="none"/>
<path d="M 122.60,425.93 L 118.11,427.02 L 125.24,429.09 L 126.03,427.02 L 129.46,426.80 L 128.73,429.17 L 120.75,429.63 L 110.74,426.47 L 115.49,425.17 L 122.60,425.93 Z" fill="#A8C8E8" stroke="none"/>
</svg>