<svg xmlns="http://www.w3.org/2000/svg" width="800" height="500" viewBox="0 0 800 500">
<rect width="800" height="500" fill="#A8C8E8"/>
<path d="M 179.63,7.35 L 179.38,6.48 L 178.49,9.06 L 177.75,8.73 L 177.85,9.50 L 173.86,13.05 L 173.70,12.04 L 166.53,6.29 L 166.53,0.00 L 190.71,0.00 L 179.63,7.35 Z" fill="#E8E0D0" stroke="#B8B0A0" stroke-width="0.5"/>
<path d="M 166.53,6.29 L 173.70,12.04 L 173.86,13.05 L 170.53,15.28 L 169.69,14.90 L 166.97,15.88 L 166.88,14.73 L 166.07,16.14 L 164.96,15.24 L 166.52,17.52 L 166.07,18.07 L 164.99,17.43 L 163.81,17.82 L 164.38,18.79 L 162.18,19.95 L 160.07,19.86 L 156.65,21.02 L 155.74,23.19 L 156.67,23.58 L 155.21,25.92 L 153.44,26.78 L 153.14,26.36 L 151.82,28.77 L 150.70,28.37 L 151.83,29.42 L 150.77,31.24 L 149.41,31.24 L 150.22,31.66 L 149.62,32.31 L 149.10,31.68 L 147.78,32.24 L 149.18,32.83 L 145.61,37.07 L 144.35,36.79 L 142.90,37.46 L 124.15,29.09 L 123.32,28.04 L 121.88,27.93 L 121.70,27.11 L 123.21,26.30 L 122.48,24.10 L 73.08,7.37 L 73.73,0.42 L 73.57,0.00 L 166.49,0.00 L 166.53,6.29 Z M 168.85,16.45 L 166.71,17.15 L 166.39,16.52 L 167.51,15.94 L 168.85,16.45 Z" fill="#E8E0D0" stroke="#B8B0A0" stroke-width="0.5"/>
<path d="M 82.49,93.98 L 81.79,96.05 L 79.08,98.69 L 80.87,103.06 L 81.55,108.29 L 82.80,109.65 L 85.74,109.84 L 88.66,111.39 L 98.74,119.14 L 99.49,121.07 L 97.91,123.41 L 98.65,125.41 L 97.92,130.53 L 94.35,131.59 L 92.50,131.34 L 89.29,134.59 L 91.65,137.15 L 91.58,139.23 L 90.65,139.49 L 88.42,139.28 L 89.11,137.01 L 86.30,136.25 L 79.98,132.43 L 79.69,130.68 L 77.42,129.29 L 81.81,124.43 L 80.97,118.52 L 78.89,116.98 L 75.01,117.86 L 70.65,117.82 L 69.65,118.74 L 64.84,114.31 L 62.99,113.19 L 61.13,114.22 L 59.47,112.34 L 58.01,111.98 L 58.10,110.92 L 56.69,110.50 L 58.67,109.95 L 61.11,107.28 L 61.31,104.94 L 60.36,103.73 L 61.46,102.45 L 65.76,101.79 L 68.10,100.34 L 65.75,100.12 L 64.47,98.57 L 65.28,95.56 L 65.05,94.10 L 63.94,93.86 L 64.18,92.65 L 66.30,90.59 L 64.21,88.28 L 67.75,87.35 L 70.04,85.78 L 68.18,82.94 L 65.15,81.57 L 65.67,79.67 L 63.45,77.79 L 60.96,78.01 L 60.29,76.07 L 63.42,77.05 L 65.10,76.89 L 66.93,77.95 L 70.84,77.65 L 73.18,78.74 L 74.51,76.77 L 78.54,78.75 L 81.43,81.40 L 82.02,85.47 L 83.26,87.21 L 82.45,90.08 L 84.45,92.07 L 86.05,92.32 L 87.08,93.94 L 82.49,93.98 Z M 84.41,97.76 L 83.44,98.45 L 83.01,98.05 L 83.51,97.43 L 84.41,97.76 Z M 82.63,97.33 L 82.41,98.02 L 81.53,97.52 L 82.63,97.33 Z" fill="#E8E0D0" stroke="#B8B0A0" stroke-width="0.5"/>
<path d="M 54.77,74.98 L 53.52,74.04 L 47.11,73.37 L 47.09,72.31 L 43.60,72.15 L 41.84,70.43 L 39.39,69.48 L 35.75,69.72 L 34.19,69.18 L 27.35,61.37 L 25.40,57.71 L 22.71,55.58 L 17.64,53.37 L 15.25,50.53 L 14.59,48.31 L 16.39,45.87 L 12.58,39.45 L 13.64,35.60 L 17.98,35.71 L 21.55,34.14 L 25.63,30.19 L 26.55,30.18 L 27.22,28.25 L 32.08,25.97 L 32.50,25.14 L 32.42,23.55 L 27.96,23.26 L 27.00,22.51 L 28.41,20.85 L 26.96,21.02 L 28.22,19.33 L 32.53,18.36 L 33.24,16.21 L 32.04,14.96 L 32.49,12.21 L 31.25,10.68 L 28.85,9.95 L 27.87,7.83 L 29.95,7.95 L 31.78,7.23 L 74.34,7.37 L 122.48,24.10 L 123.21,26.30 L 121.70,27.11 L 121.88,27.93 L 123.32,28.04 L 124.15,29.09 L 143.22,37.55 L 143.20,38.93 L 141.82,39.42 L 141.50,40.50 L 142.27,40.89 L 137.46,48.74 L 139.26,51.87 L 140.92,52.14 L 144.08,54.25 L 144.08,55.10 L 146.52,55.32 L 147.69,56.49 L 147.61,57.45 L 144.71,59.02 L 143.72,63.23 L 144.71,62.43 L 146.24,63.30 L 146.38,64.76 L 144.08,67.21 L 145.06,70.52 L 147.69,72.23 L 146.32,71.70 L 145.51,72.03 L 146.88,72.36 L 146.97,73.88 L 147.90,73.62 L 148.88,74.41 L 147.88,76.53 L 148.98,76.50 L 150.17,78.32 L 149.59,78.96 L 150.96,79.61 L 149.50,81.41 L 151.30,80.97 L 153.39,82.86 L 153.85,82.14 L 155.34,82.44 L 155.18,83.27 L 156.65,83.48 L 156.65,82.69 L 158.20,83.98 L 159.23,83.51 L 159.36,84.94 L 153.70,87.69 L 146.97,89.16 L 143.86,90.61 L 139.01,90.61 L 133.68,92.63 L 130.56,91.51 L 126.36,91.57 L 124.76,93.61 L 120.17,95.13 L 115.84,94.77 L 114.39,93.87 L 111.59,93.94 L 109.02,95.15 L 103.40,94.99 L 102.98,93.98 L 98.47,92.63 L 95.16,94.20 L 87.08,93.94 L 86.05,92.32 L 84.45,92.07 L 82.45,90.08 L 83.26,87.21 L 82.02,85.47 L 81.43,81.40 L 78.54,78.75 L 74.51,76.77 L 73.18,78.74 L 70.84,77.65 L 66.93,77.95 L 65.10,76.89 L 54.77,74.98 Z M 152.18,62.66 L 151.25,63.97 L 148.70,64.56 L 148.14,64.23 L 152.21,61.70 L 152.18,62.66 Z M 147.10,52.08 L 145.88,50.76 L 145.71,51.35 L 143.00,50.10 L 142.90,47.59 L 144.08,47.00 L 144.52,45.99 L 145.88,49.87 L 147.00,49.90 L 146.97,49.31 L 147.56,50.92 L 147.10,52.08 Z M 149.15,42.46 L 150.70,42.06 L 150.11,42.07 L 148.96,41.67 L 150.24,41.78 L 149.42,39.21 L 151.23,40.05 L 151.69,39.26 L 150.90,43.44 L 148.87,43.49 L 149.15,42.46 Z M 150.97,64.73 L 149.66,65.42 L 149.66,65.07 L 150.97,64.73 Z M 143.52,47.11 L 143.21,47.13 L 143.21,46.47 L 143.52,47.11 Z M 148.99,43.80 L 149.10,44.00 L 148.51,43.90 L 147.98,43.34 L 148.99,43.80 Z" fill="#E8E0D0" stroke="#B8B0A0" stroke-width="0.5"/>
<path d="M 362.99,172.42 L 362.43,173.94 L 359.30,174.15 L 356.32,173.36 L 354.68,171.38 L 355.50,170.41 L 359.34,170.11 L 362.99,172.42 Z M 223.36,103.52 L 223.36,104.02 L 223.27,104.02 L 223.36,103.52 Z M 222.09,105.36 L 220.91,105.47 L 220.45,104.79 L 221.43,104.83 L 220.19,103.15 L 220.83,102.73 L 222.28,103.35 L 222.09,105.36 Z" fill="#E8E0D0" stroke="#B8B0A0" stroke-width="0.5"/>
<path d="M 15.63,6.76 L 15.94,10.53 L 11.39,12.74 L 10.03,14.25 L 10.09,17.16 L 6.54,18.75 L 6.42,19.78 L 6.87,20.88 L 8.68,21.64 L 8.24,22.20 L 11.40,24.11 L 11.15,31.10 L 12.79,32.68 L 13.73,36.03 L 12.58,39.45 L 16.39,45.87 L 14.59,48.31 L 15.41,50.85 L 17.64,53.37 L 22.71,55.58 L 25.40,57.71 L 31.45,66.26 L 6.84,68.63 L 6.89,70.94 L 0.00,74.95 L 0.00,0.00 L 17.25,0.00 L 15.63,6.76 Z M 1.91,75.96 L 4.32,79.35 L 2.62,82.85 L 4.34,86.32 L 2.42,87.89 L 0.00,93.29 L 0.00,75.19 L 1.91,75.96 Z M 1.80,96.39 L 5.02,97.37 L 8.77,100.53 L 14.90,101.14 L 14.57,99.42 L 18.86,98.69 L 18.64,109.35 L 16.46,109.07 L 17.14,107.92 L 15.89,107.47 L 10.74,109.20 L 8.23,108.86 L 4.45,104.72 L 2.27,104.68 L 0.68,101.70 L 0.00,101.56 L 0.00,93.82 L 1.80,96.39 Z" fill="#E8E0D0" stroke="#B8B0A0" stroke-width="0.5"/>
<path d="M 7.15,183.04 L 8.82,181.16 L 17.04,180.36 L 25.94,182.15 L 36.74,181.91 L 38.54,182.58 L 41.80,188.80 L 41.69,191.25 L 45.95,195.13 L 47.75,199.17 L 47.87,209.11 L 46.50,211.95 L 40.02,209.92 L 36.30,211.34 L 32.14,215.34 L 32.11,218.71 L 33.14,218.41 L 34.11,220.27 L 36.60,221.88 L 41.67,222.82 L 47.51,222.86 L 47.80,218.70 L 59.72,219.01 L 59.36,220.41 L 53.11,232.84 L 48.15,234.89 L 48.85,235.06 L 48.09,235.56 L 44.88,236.01 L 39.54,239.37 L 34.74,244.04 L 35.49,243.99 L 22.34,254.98 L 13.74,258.58 L 2.34,265.82 L 0.00,266.79 L 0.00,246.10 L 0.17,246.02 L 5.61,245.57 L 10.21,244.18 L 9.81,242.79 L 14.06,239.45 L 12.42,237.38 L 8.05,235.90 L 3.47,233.13 L 0.00,233.73 L 0.00,184.13 L 7.15,183.04 Z M 124.81,382.78 L 125.80,383.16 L 124.62,383.78 L 121.92,383.64 L 122.72,382.65 L 124.81,382.78 Z M 125.86,380.78 L 126.88,380.91 L 126.36,381.23 L 125.34,381.08 L 125.86,380.78 Z" fill="#E8E0D0" stroke="#B8B0A0" stroke-width="0.5"/>
<path d="M 60.96,78.01 L 63.45,77.79 L 65.67,79.67 L 65.15,81.57 L 68.18,82.94 L 70.04,85.78 L 67.75,87.35 L 64.21,88.28 L 66.30,90.59 L 64.18,92.65 L 63.94,93.86 L 65.05,94.10 L 65.28,95.56 L 64.47,98.57 L 65.75,100.12 L 68.10,100.34 L 65.76,101.79 L 61.46,102.45 L 60.36,103.73 L 61.31,104.94 L 61.11,107.28 L 58.67,109.95 L 56.69,110.50 L 58.10,110.92 L 58.01,111.98 L 59.47,112.34 L 61.13,114.22 L 62.99,113.19 L 63.81,113.92 L 24.35,121.85 L 26.93,127.16 L 16.06,127.37 L 7.41,129.89 L 6.42,130.68 L 6.42,133.37 L 5.15,134.55 L 0.00,135.99 L 0.00,101.56 L 0.68,101.70 L 2.27,104.68 L 4.45,104.72 L 8.23,108.86 L 10.74,109.20 L 15.89,107.47 L 17.14,107.92 L 16.46,109.07 L 18.44,109.37 L 18.86,98.69 L 14.57,99.42 L 14.90,101.14 L 8.77,100.53 L 5.02,97.37 L 1.80,96.39 L 0.00,93.78 L 0.00,93.05 L 2.42,87.89 L 4.34,86.32 L 2.62,82.85 L 4.32,79.35 L 1.91,75.96 L 0.00,75.19 L 0.00,74.95 L 6.89,70.94 L 6.84,68.63 L 31.45,66.26 L 35.16,69.59 L 39.39,69.48 L 41.84,70.43 L 43.60,72.15 L 47.09,72.31 L 47.11,73.37 L 53.52,74.04 L 54.77,74.98 L 60.09,76.20 L 60.96,78.01 Z" fill="#E8E0D0" stroke="#B8B0A0" stroke-width="0.5"/>
<path d="M 3.23,176.43 L 8.82,177.67 L 8.84,179.50 L 12.93,180.85 L 8.82,181.16 L 7.39,182.93 L 5.89,183.36 L 0.00,184.15 L 0.00,176.13 L 3.23,176.43 Z" fill="#E8E0D0" stroke="#B8B0A0" stroke-width="0.5"/>
<path d="M 5.78,134.17 L 6.42,130.68 L 7.41,129.89 L 16.06,127.37 L 26.75,127.21 L 26.83,130.20 L 38.15,130.38 L 40.06,131.52 L 44.11,131.97 L 46.74,133.70 L 51.76,133.89 L 56.80,135.10 L 57.59,135.99 L 60.72,135.77 L 58.87,137.85 L 61.42,141.21 L 60.30,142.46 L 61.46,143.45 L 60.18,146.34 L 60.54,148.67 L 61.70,149.45 L 59.43,150.95 L 59.85,152.91 L 57.06,153.40 L 56.92,154.39 L 59.23,155.44 L 58.01,158.56 L 58.92,158.86 L 58.75,160.28 L 60.39,160.07 L 61.57,161.18 L 61.23,163.21 L 59.62,163.79 L 56.80,167.30 L 54.29,167.88 L 54.41,170.61 L 52.42,172.23 L 53.83,173.70 L 38.54,182.58 L 32.58,181.64 L 25.94,182.15 L 18.33,180.40 L 13.02,180.89 L 8.84,179.50 L 8.82,177.67 L 3.23,176.43 L 0.00,176.13 L 0.00,135.88 L 5.78,134.17 Z" fill="#E8E0D0" stroke="#B8B0A0" stroke-width="0.5"/>
<path d="M 48.86,212.16 L 47.26,211.74 L 46.68,210.55 L 47.87,209.11 L 47.75,199.17 L 45.95,195.13 L 41.69,191.25 L 41.80,188.80 L 38.41,182.72 L 53.83,173.70 L 52.42,172.23 L 54.41,170.61 L 54.29,167.88 L 56.80,167.30 L 59.62,163.79 L 61.23,163.21 L 61.57,161.18 L 60.39,160.07 L 58.75,160.28 L 58.92,158.86 L 58.01,158.56 L 59.23,155.44 L 56.92,154.39 L 57.06,153.40 L 59.85,152.91 L 59.43,150.95 L 61.70,149.45 L 60.54,148.67 L 60.18,146.34 L 61.46,143.45 L 60.30,142.46 L 61.42,141.21 L 58.87,137.85 L 60.72,135.77 L 57.59,135.99 L 56.80,135.10 L 51.76,133.89 L 46.74,133.70 L 44.11,131.97 L 40.06,131.52 L 38.15,130.38 L 26.83,130.20 L 26.70,125.94 L 24.35,121.85 L 63.81,113.92 L 69.65,118.74 L 70.65,117.82 L 75.01,117.86 L 78.89,116.98 L 81.19,118.78 L 81.86,124.22 L 77.42,129.29 L 79.69,130.68 L 79.98,132.43 L 86.30,136.25 L 89.11,137.01 L 88.42,139.28 L 91.41,139.44 L 91.22,135.93 L 89.29,134.59 L 92.50,131.34 L 94.35,131.59 L 97.92,130.53 L 98.65,125.41 L 97.91,123.41 L 99.49,121.07 L 98.74,119.14 L 88.66,111.39 L 85.74,109.84 L 82.80,109.65 L 81.55,108.29 L 80.87,103.06 L 79.02,99.06 L 82.49,93.98 L 94.57,94.26 L 98.47,92.63 L 102.98,93.98 L 103.40,94.99 L 109.02,95.15 L 111.59,93.94 L 114.39,93.87 L 115.84,94.77 L 120.17,95.13 L 124.76,93.61 L 126.36,91.57 L 130.56,91.51 L 133.68,92.63 L 139.01,90.61 L 143.53,90.67 L 146.97,89.16 L 150.76,88.69 L 160.33,84.96 L 160.28,85.69 L 162.24,86.68 L 160.00,87.29 L 161.78,87.94 L 160.14,88.88 L 160.28,89.55 L 161.07,89.35 L 160.28,90.78 L 158.20,91.84 L 159.74,92.40 L 159.24,94.56 L 160.46,96.11 L 160.52,99.10 L 159.55,99.59 L 161.00,100.60 L 159.90,101.53 L 161.01,101.77 L 162.13,103.71 L 159.02,105.14 L 159.97,105.80 L 160.19,105.19 L 161.45,105.42 L 160.55,109.80 L 161.45,110.25 L 160.71,110.83 L 162.18,114.07 L 160.70,115.16 L 161.40,115.96 L 162.79,115.30 L 163.44,116.03 L 163.26,116.59 L 161.99,116.59 L 161.90,118.45 L 162.84,117.35 L 164.17,117.17 L 164.72,117.61 L 163.64,118.19 L 164.53,118.11 L 164.79,119.58 L 163.18,121.07 L 162.08,120.80 L 163.81,121.98 L 162.45,121.81 L 162.99,122.60 L 160.56,123.07 L 160.36,123.49 L 161.98,123.35 L 162.59,123.91 L 161.27,126.03 L 154.45,130.10 L 155.37,130.08 L 153.49,132.01 L 150.73,132.66 L 151.05,133.37 L 151.69,133.71 L 142.09,137.29 L 141.58,138.24 L 135.93,138.59 L 129.46,140.73 L 128.24,139.94 L 128.86,140.72 L 116.47,144.43 L 113.76,146.67 L 112.49,145.59 L 111.76,145.56 L 113.67,146.95 L 107.00,151.12 L 106.14,152.99 L 103.90,152.25 L 104.28,153.86 L 102.70,153.94 L 102.39,153.12 L 98.85,154.36 L 89.23,160.53 L 85.97,161.83 L 82.62,159.64 L 81.65,159.52 L 84.61,161.43 L 83.71,161.99 L 84.58,164.19 L 83.00,164.19 L 84.16,164.80 L 82.80,166.02 L 83.80,166.77 L 83.17,167.38 L 84.12,167.24 L 85.87,168.78 L 87.46,168.92 L 88.05,170.63 L 89.14,170.86 L 87.77,172.04 L 88.51,173.77 L 89.23,172.60 L 89.14,174.22 L 91.13,176.41 L 91.59,182.51 L 92.76,183.32 L 93.38,180.30 L 94.17,180.19 L 94.38,181.86 L 94.83,180.79 L 94.01,184.97 L 94.65,187.08 L 95.56,186.81 L 93.87,188.96 L 92.71,193.64 L 92.59,193.06 L 92.05,193.05 L 91.94,195.41 L 92.57,194.43 L 93.71,194.72 L 93.84,193.92 L 94.52,194.09 L 94.11,196.53 L 88.96,200.60 L 64.80,206.32 L 65.35,205.96 L 59.45,208.35 L 57.00,211.15 L 55.74,211.83 L 54.75,211.67 L 54.23,211.95 L 59.05,214.45 L 60.53,212.73 L 59.72,219.01 L 49.43,218.96 L 48.86,212.16 Z M 83.01,98.05 L 83.44,98.45 L 84.41,97.76 L 83.51,97.43 L 83.01,98.05 Z M 81.53,97.52 L 82.41,98.02 L 82.63,97.33 L 81.53,97.52 Z M 60.06,212.09 L 60.91,211.83 L 60.62,212.44 L 60.06,212.09 Z M 94.03,176.39 L 93.29,177.55 L 93.33,176.65 L 93.75,175.63 L 94.03,176.39 Z M 152.88,132.66 L 151.98,133.60 L 151.23,132.79 L 152.88,132.66 Z" fill="#E8E0D0" stroke="#B8B0A0" stroke-width="0.5"/>
<path d="M 48.86,212.16 L 48.45,214.40 L 49.48,216.85 L 49.43,218.96 L 47.80,218.70 L 47.51,222.86 L 41.67,222.82 L 36.60,221.88 L 31.89,217.95 L 32.14,215.34 L 36.30,211.34 L 40.02,209.92 L 45.74,211.93 L 48.86,212.16 Z" fill="#E8E0D0" stroke="#B8B0A0" stroke-width="0.5"/>
<path d="M 27.01,20.82 L 28.41,20.85 L 27.00,22.51 L 27.96,23.26 L 32.42,23.55 L 32.27,25.75 L 27.22,28.25 L 26.55,30.18 L 25.63,30.19 L 21.55,34.14 L 17.98,35.71 L 13.64,35.60 L 12.79,32.68 L 11.15,31.10 L 11.40,24.11 L 8.13,22.06 L 8.74,20.62 L 12.19,20.87 L 12.79,22.30 L 17.81,22.13 L 20.16,21.03 L 20.61,18.13 L 23.06,19.07 L 26.51,18.02 L 28.84,18.82 L 27.01,20.82 Z" fill="#E8E0D0" stroke="#B8B0A0" stroke-width="0.5"/>
<path d="M 6.87,20.88 L 6.44,18.96 L 10.09,17.16 L 10.03,14.25 L 12.83,11.58 L 19.08,9.99 L 20.99,11.15 L 23.46,10.17 L 25.97,7.89 L 27.74,7.89 L 28.85,9.95 L 31.25,10.68 L 32.58,12.39 L 32.04,14.96 L 33.24,16.21 L 32.53,18.36 L 28.40,18.81 L 26.51,18.02 L 23.06,19.07 L 20.61,18.13 L 20.16,21.03 L 17.81,22.13 L 12.79,22.30 L 12.35,20.94 L 9.80,20.41 L 8.51,21.44 L 6.87,20.88 Z" fill="#E8E0D0" stroke="#B8B0A0" stroke-width="0.5"/>
<path d="M 25.97,7.89 L 23.46,10.17 L 20.70,11.22 L 19.20,10.00 L 15.94,10.53 L 15.63,6.76 L 17.25,0.00 L 73.57,0.00 L 73.73,0.42 L 73.08,7.37 L 31.78,7.23 L 25.97,7.89 Z" fill="#E8E0D0" stroke="#B8B0A0" stroke-width="0.5"/>
<path d="M 12.42,237.38 L 14.06,239.45 L 9.81,242.79 L 10.21,244.18 L 5.61,245.57 L 0.17,246.02 L 0.00,246.10 L 0.00,233.73 L 3.47,233.13 L 8.05,235.90 L 12.42,237.38 Z" fill="#E8E0D0" stroke="#B8B0A0" stroke-width="0.5"/>
<path d="M 212.68,162.83 L 211.32,161.09 L 212.76,158.72 L 209.51,155.48 L 209.82,153.15 L 206.97,149.82 L 206.89,144.68 L 205.42,142.85 L 212.11,135.92 L 212.29,131.79 L 217.89,132.00 L 223.14,129.56 L 223.56,131.10 L 224.99,130.64 L 224.64,129.97 L 227.16,129.72 L 227.61,130.61 L 228.36,128.58 L 232.16,128.34 L 233.71,129.06 L 233.77,128.37 L 233.04,128.49 L 234.74,127.76 L 235.95,127.87 L 235.57,128.71 L 237.21,130.00 L 237.93,129.39 L 239.03,129.83 L 236.78,128.68 L 237.23,127.16 L 245.37,123.62 L 247.03,124.65 L 245.49,126.50 L 249.11,125.55 L 246.78,123.58 L 250.95,121.10 L 249.79,120.74 L 251.92,119.31 L 252.87,120.52 L 251.69,122.88 L 256.57,118.45 L 258.20,119.62 L 258.83,118.90 L 259.25,120.05 L 259.42,118.97 L 256.66,118.28 L 255.99,118.73 L 255.31,117.46 L 256.49,115.64 L 258.50,115.71 L 258.19,114.51 L 259.43,114.96 L 259.02,116.47 L 259.70,115.96 L 259.89,114.50 L 258.47,113.84 L 259.48,113.42 L 257.61,112.04 L 257.99,110.56 L 260.15,109.86 L 261.79,111.90 L 263.19,112.16 L 263.65,110.09 L 266.31,109.88 L 265.62,108.57 L 267.24,109.27 L 269.55,108.76 L 271.87,104.08 L 270.96,102.05 L 268.89,100.99 L 271.74,101.36 L 272.25,100.16 L 275.12,98.63 L 273.69,98.24 L 274.59,97.85 L 275.41,98.30 L 274.86,97.79 L 276.13,97.00 L 277.38,99.05 L 275.94,98.58 L 275.49,99.25 L 277.07,99.87 L 277.49,99.25 L 278.48,100.49 L 279.58,100.53 L 278.93,100.76 L 280.20,101.38 L 279.89,102.57 L 281.11,104.02 L 282.29,103.52 L 284.90,105.90 L 287.55,112.03 L 288.43,119.96 L 292.14,123.80 L 292.05,125.63 L 290.11,128.64 L 287.89,130.06 L 285.27,127.88 L 284.36,125.46 L 281.94,125.66 L 280.89,126.46 L 282.15,129.42 L 281.57,130.90 L 283.68,132.16 L 283.74,134.61 L 282.03,136.36 L 283.56,136.96 L 280.49,137.53 L 278.15,140.70 L 279.19,144.34 L 277.20,150.04 L 269.16,162.66 L 269.57,163.25 L 261.92,177.65 L 257.94,183.26 L 255.79,189.61 L 253.64,192.42 L 253.55,194.50 L 250.33,197.91 L 247.71,203.35 L 247.44,202.90 L 245.58,204.43 L 241.47,205.40 L 235.97,205.51 L 227.04,208.48 L 221.77,208.79 L 217.44,206.71 L 211.30,205.99 L 210.33,205.15 L 211.49,205.70 L 211.77,205.43 L 206.80,203.88 L 205.34,200.77 L 202.10,198.44 L 201.46,193.75 L 203.27,191.31 L 201.55,190.34 L 200.91,188.13 L 197.98,186.23 L 196.16,181.41 L 197.20,181.12 L 196.47,179.61 L 197.65,177.43 L 199.45,176.64 L 199.91,173.67 L 203.95,172.97 L 205.12,170.18 L 212.68,162.83 Z M 285.98,135.84 L 283.37,139.15 L 283.78,137.72 L 285.98,135.84 Z M 264.00,108.96 L 262.22,108.90 L 261.74,107.78 L 263.45,107.26 L 264.00,108.96 Z" fill="#E8E0D0" stroke="#B8B0A0" stroke-width="0.5"/>
<path d="M 239.45,78.98 L 239.17,79.01 L 239.27,78.84 L 239.45,78.98 Z M 252.74,78.58 L 252.82,78.55 L 252.85,78.60 L 252.74,78.58 Z M 329.80,43.63 L 329.84,43.72 L 329.75,43.64 L 329.80,43.63 Z M 360.50,30.37 L 360.31,30.29 L 360.42,30.20 L 360.50,30.37 Z M 238.84,76.35 L 236.79,76.54 L 235.93,76.57 L 235.57,76.02 L 239.38,75.79 L 238.84,76.35 Z M 237.00,75.54 L 238.48,75.63 L 237.85,75.79 L 237.00,75.54 Z M 368.33,57.63 L 368.71,57.38 L 368.51,57.74 L 368.33,57.63 Z M 357.71,36.52 L 358.81,38.50 L 358.02,37.70 L 357.01,37.32 L 357.71,36.52 Z M 354.71,35.91 L 354.68,35.56 L 355.14,35.71 L 354.71,35.91 Z M 360.65,34.34 L 362.10,34.62 L 361.73,34.85 L 360.65,34.34 Z M 321.95,56.52 L 321.88,56.50 L 321.88,56.44 L 321.95,56.52 Z M 356.75,47.19 L 356.72,47.22 L 356.72,47.19 L 356.75,47.19 Z M 356.64,37.37 L 356.63,37.38 L 356.48,37.35 L 356.64,37.37 Z M 357.08,37.44 L 357.06,37.48 L 356.95,37.43 L 357.08,37.44 Z M 358.36,37.07 L 358.38,37.15 L 358.20,37.11 L 358.36,37.07 Z M 358.46,37.03 L 358.45,37.07 L 358.37,37.04 L 358.46,37.03 Z M 358.36,36.82 L 358.50,36.83 L 358.26,36.95 L 358.36,36.82 Z M 361.15,34.18 L 361.52,34.19 L 361.38,34.31 L 361.15,34.18 Z M 360.49,34.65 L 360.43,34.66 L 360.42,34.62 L 360.49,34.65 Z M 360.27,34.77 L 360.30,34.81 L 360.20,34.78 L 360.27,34.77 Z M 360.56,33.64 L 360.62,33.65 L 360.41,33.66 L 360.56,33.64 Z M 363.02,34.90 L 362.82,35.05 L 362.61,34.96 L 363.02,34.90 Z M 363.37,34.61 L 363.39,34.67 L 363.24,34.64 L 363.37,34.61 Z M 363.19,34.24 L 363.24,34.34 L 363.20,34.34 L 363.19,34.24 Z M 363.92,34.68 L 363.89,34.78 L 363.84,34.76 L 363.92,34.68 Z M 364.18,36.66 L 364.25,36.75 L 364.03,36.72 L 364.18,36.66 Z" fill="#E8E0D0" stroke="#B8B0A0" stroke-width="0.5"/>
<path d="M 600.17,434.16 L 595.69,434.74 L 592.56,433.05 L 600.17,434.16 Z" fill="#E8E0D0" stroke="#B8B0A0" stroke-width="0.5"/>
<path d="M 387.00,166.87 L 383.11,167.10 L 382.18,166.58 L 383.40,164.59 L 386.00,162.80 L 387.10,162.94 L 388.63,164.77 L 387.00,166.87 Z M 371.99,83.70 L 372.43,84.38 L 371.91,83.94 L 371.99,83.70 Z M 462.20,161.04 L 461.75,160.79 L 462.50,160.36 L 463.65,160.31 L 462.20,161.04 Z" fill="#E8E0D0" stroke="#B8B0A0" stroke-width="0.5"/>
<path d="M 204.55,100.47 L 202.00,100.32 L 201.61,99.37 L 204.55,100.47 Z M 213.17,100.54 L 209.15,98.75 L 211.35,98.91 L 212.59,97.96 L 213.17,100.54 Z M 198.99,96.87 L 196.09,95.38 L 196.86,92.35 L 198.43,92.52 L 198.19,94.20 L 198.99,96.87 Z" fill="#E8E0D0" stroke="#B8B0A0" stroke-width="0.5"/>
<path d="M 581.95,60.02 L 580.96,58.68 L 581.95,59.97 L 582.41,59.63 L 581.95,60.02 Z M 582.77,58.91 L 582.56,59.45 L 582.04,58.34 L 582.77,58.91 Z M 567.81,53.64 L 567.72,53.67 L 567.65,53.64 L 567.81,53.64 Z M 566.47,51.39 L 566.56,51.32 L 566.56,51.43 L 566.47,51.39 Z M 567.61,49.79 L 567.79,49.75 L 567.66,49.93 L 567.61,49.79 Z M 573.12,43.66 L 573.09,43.64 L 573.22,43.65 L 573.12,43.66 Z M 579.28,42.72 L 579.25,42.76 L 579.16,42.79 L 579.28,42.72 Z M 572.89,42.32 L 572.87,42.39 L 572.76,42.44 L 572.89,42.32 Z M 573.18,42.02 L 573.15,42.06 L 573.07,42.04 L 573.18,42.02 Z M 575.73,41.99 L 575.74,41.96 L 575.79,41.97 L 575.73,41.99 Z" fill="#E8E0D0" stroke="#B8B0A0" stroke-width="0.5"/>
<path d="M 591.72,4.80 L 591.63,4.80 L 591.59,4.74 L 591.72,4.80 Z M 592.04,4.74 L 591.97,4.75 L 592.02,4.68 L 592.04,4.74 Z M 591.12,4.61 L 591.08,4.60 L 591.08,4.53 L 591.12,4.61 Z M 592.44,4.42 L 592.48,4.26 L 592.61,4.28 L 592.44,4.42 Z M 592.67,4.13 L 592.71,3.89 L 592.70,3.98 L 592.67,4.13 Z M 595.29,1.56 L 595.31,1.65 L 595.19,1.56 L 595.29,1.56 Z M 591.01,4.41 L 590.91,4.21 L 590.83,3.90 L 591.01,4.41 Z" fill="#E8E0D0" stroke="#B8B0A0" stroke-width="0.5"/>
<path d="M 189.57,138.90 L 190.03,138.87 L 189.93,139.00 L 189.57,138.90 Z M 547.81,404.65 L 547.65,404.54 L 550.03,405.06 L 547.81,404.65 Z M 533.61,403.41 L 531.90,403.25 L 532.53,403.02 L 533.61,403.41 Z M 543.67,402.02 L 545.57,401.68 L 544.85,402.14 L 543.67,402.02 Z M 541.14,399.49 L 540.77,399.94 L 542.04,399.85 L 539.55,401.21 L 539.15,400.33 L 541.14,399.49 Z M 539.83,399.54 L 538.51,400.28 L 538.76,399.67 L 539.83,399.54 Z M 542.27,399.33 L 541.95,399.04 L 543.48,399.27 L 542.27,399.33 Z M 556.73,402.96 L 553.93,403.54 L 555.98,404.03 L 553.63,404.03 L 551.67,403.21 L 547.47,403.30 L 548.83,403.64 L 548.48,404.07 L 545.75,403.75 L 547.36,404.80 L 551.63,405.50 L 550.47,404.70 L 553.73,404.78 L 554.10,405.14 L 551.99,405.50 L 553.04,406.05 L 547.91,406.00 L 546.36,404.52 L 545.03,404.57 L 546.05,405.20 L 545.38,405.88 L 542.81,405.61 L 539.61,404.44 L 539.67,405.13 L 538.51,404.65 L 538.60,405.55 L 537.74,404.86 L 537.98,405.71 L 536.95,406.25 L 533.50,405.96 L 535.31,403.97 L 534.05,403.43 L 535.61,402.80 L 534.45,402.92 L 533.50,401.98 L 535.70,401.62 L 533.29,401.07 L 534.33,400.88 L 534.14,400.15 L 535.33,400.23 L 533.86,399.18 L 535.25,398.99 L 536.82,397.61 L 538.15,398.20 L 535.40,399.57 L 539.10,398.58 L 538.05,398.87 L 538.77,399.18 L 536.61,401.18 L 537.51,401.34 L 538.01,400.38 L 539.44,401.43 L 542.39,400.56 L 542.59,401.16 L 544.40,400.05 L 545.12,401.46 L 541.89,401.37 L 540.34,401.95 L 542.85,401.68 L 541.64,401.93 L 543.67,402.46 L 542.04,402.69 L 547.20,402.80 L 549.23,401.74 L 552.38,401.72 L 554.25,400.88 L 556.71,401.22 L 556.73,402.96 Z M 532.22,397.53 L 531.46,397.47 L 531.67,397.40 L 532.22,397.53 Z M 533.72,397.03 L 534.21,396.89 L 534.35,397.10 L 533.72,397.03 Z M 309.75,379.56 L 307.54,378.97 L 308.59,378.55 L 309.89,378.95 L 309.75,379.56 Z M 289.21,376.23 L 289.52,376.82 L 288.32,376.80 L 287.98,376.40 L 289.21,376.23 Z M 649.46,308.88 L 650.00,309.32 L 648.94,309.39 L 649.46,308.88 Z M 649.53,316.34 L 649.09,316.38 L 649.02,316.13 L 649.53,316.34 Z M 158.69,182.10 L 158.46,182.29 L 158.07,182.27 L 158.69,182.10 Z M 150.01,174.75 L 150.04,174.77 L 150.00,174.78 L 150.01,174.75 Z M 345.38,129.25 L 345.38,129.32 L 345.29,129.28 L 345.38,129.25 Z M 250.00,93.75 L 250.09,93.91 L 249.85,93.87 L 250.00,93.75 Z" fill="#4A90D9" stroke="#1a5fa8" stroke-width="1.2"/>
<path d="M 86.14,113.90 L 85.29,115.50 L 83.71,116.06 L 81.62,114.46 L 82.73,111.38 L 78.64,108.86 L 78.72,104.81 L 76.81,102.52 L 76.60,100.68 L 74.87,99.64 L 75.25,97.45 L 78.64,94.48 L 76.76,85.78 L 77.92,84.66 L 73.12,79.64 L 74.51,76.77 L 78.54,78.75 L 81.27,81.12 L 83.26,87.21 L 82.45,90.08 L 87.03,93.32 L 86.97,95.90 L 85.83,97.78 L 83.52,98.97 L 83.44,100.93 L 85.25,103.28 L 84.31,104.98 L 85.67,111.30 L 88.46,111.76 L 91.35,116.56 L 90.52,116.96 L 86.14,113.90 Z M 84.11,98.16 L 84.34,97.79 L 83.97,97.68 L 84.11,98.16 Z" fill="#A8C8E8" stroke="none"/>
<path d="M 30.44,68.61 L 28.75,69.44 L 29.00,68.79 L 27.73,68.84 L 27.48,67.92 L 29.04,67.15 L 29.23,65.82 L 25.06,63.33 L 23.20,58.52 L 18.73,56.87 L 15.56,54.61 L 14.74,52.50 L 10.92,48.93 L 10.67,47.62 L 12.54,46.79 L 13.23,45.10 L 9.58,40.66 L 9.79,36.95 L 10.96,36.14 L 11.73,32.89 L 11.40,32.30 L 10.13,34.77 L 8.86,34.43 L 9.69,33.75 L 10.08,27.22 L 11.03,26.46 L 12.65,26.69 L 13.24,30.99 L 16.95,35.18 L 16.14,39.32 L 18.63,40.16 L 19.18,41.28 L 18.09,43.64 L 20.89,47.00 L 20.80,47.62 L 18.01,48.66 L 17.71,50.31 L 20.89,52.45 L 23.61,52.13 L 28.97,56.13 L 28.91,57.32 L 28.04,57.38 L 29.49,59.20 L 29.22,60.64 L 34.12,65.58 L 34.34,66.82 L 36.64,68.16 L 37.29,70.60 L 35.05,71.22 L 30.44,68.61 Z" fill="#A8C8E8" stroke="none"/>
<path d="M 69.77,11.20 L 70.13,11.73 L 69.22,11.98 L 70.50,12.75 L 68.31,12.88 L 69.60,13.70 L 65.96,13.93 L 64.87,14.90 L 67.23,14.57 L 68.41,15.77 L 64.85,15.54 L 63.88,16.48 L 69.13,17.03 L 71.03,16.24 L 72.21,17.34 L 66.52,19.36 L 66.78,20.06 L 63.88,19.74 L 62.20,18.72 L 59.48,19.44 L 59.54,21.31 L 61.44,22.76 L 59.80,22.09 L 57.91,23.82 L 58.45,22.99 L 57.44,22.66 L 59.12,22.29 L 59.46,21.51 L 58.45,20.74 L 58.99,19.73 L 56.82,19.78 L 56.64,18.65 L 54.56,20.01 L 55.20,19.10 L 52.83,19.08 L 52.70,18.23 L 50.82,17.59 L 50.03,18.72 L 48.80,18.70 L 50.00,20.05 L 48.32,19.39 L 47.06,20.40 L 48.13,21.76 L 46.60,20.74 L 45.06,22.21 L 44.94,20.89 L 46.06,20.46 L 44.69,20.61 L 44.23,19.95 L 45.24,19.33 L 44.70,18.21 L 43.09,18.45 L 44.06,15.58 L 42.81,15.57 L 46.26,7.55 L 45.61,7.22 L 44.87,7.74 L 44.88,6.23 L 43.95,5.70 L 45.90,3.02 L 48.42,1.83 L 46.87,0.26 L 48.65,0.00 L 57.58,0.00 L 58.54,0.03 L 58.50,0.00 L 70.56,0.00 L 69.77,0.31 L 70.58,0.54 L 70.63,0.00 L 75.15,0.00 L 75.20,0.03 L 75.29,0.00 L 75.93,0.00 L 75.58,0.54 L 77.63,1.22 L 78.15,2.40 L 79.45,1.49 L 78.90,0.70 L 83.22,0.00 L 84.17,0.00 L 85.41,1.69 L 80.27,1.99 L 81.02,2.99 L 79.94,3.46 L 79.44,2.80 L 76.84,2.62 L 75.10,3.73 L 74.84,5.14 L 76.76,6.29 L 72.67,9.44 L 73.47,9.62 L 74.15,10.38 L 71.60,10.08 L 73.20,11.70 L 69.77,11.20 Z M 75.92,2.66 L 76.47,2.73 L 77.04,2.49 L 77.28,2.11 L 75.92,2.66 Z M 74.57,3.29 L 75.16,3.04 L 74.74,2.70 L 73.64,2.96 L 74.57,3.29 Z M 45.43,14.06 L 45.94,13.73 L 45.89,13.51 L 45.43,14.06 Z M 45.61,16.61 L 44.97,16.19 L 44.81,16.53 L 45.61,16.61 Z M 46.71,18.17 L 45.43,17.03 L 45.06,18.16 L 45.92,19.26 L 46.71,18.17 Z M 47.14,12.77 L 46.51,12.35 L 46.06,12.43 L 46.06,13.45 L 47.14,12.77 Z M 48.27,17.45 L 47.33,18.38 L 48.42,18.41 L 48.27,17.45 Z M 51.76,1.60 L 50.12,1.83 L 50.20,1.12 L 48.59,1.27 L 51.20,2.41 L 50.18,2.72 L 49.75,3.57 L 51.67,3.01 L 51.76,1.60 Z M 52.81,1.37 L 52.26,0.83 L 51.85,0.82 L 52.81,1.37 Z M 53.39,2.11 L 52.81,1.90 L 52.64,2.23 L 53.39,2.11 Z M 53.66,17.71 L 53.75,18.95 L 54.62,18.78 L 54.94,18.21 L 53.66,17.71 Z M 54.59,2.30 L 53.93,2.67 L 53.85,3.27 L 54.59,2.30 Z M 61.44,14.62 L 62.33,14.30 L 62.35,13.90 L 61.21,13.94 L 61.44,14.62 Z M 62.53,15.26 L 58.82,14.96 L 59.80,15.35 L 59.20,16.13 L 63.60,16.62 L 62.53,15.26 Z" fill="#A8C8E8" stroke="none"/>
<path d="M 91.86,118.95 L 91.22,120.01 L 90.07,119.42 L 90.11,118.38 L 90.95,117.94 L 91.86,118.95 Z" fill="#A8C8E8" stroke="none"/>
<path d="M 8.41,72.77 L 4.58,75.35 L 4.61,76.51 L 1.98,76.35 L 1.71,75.85 L 1.16,76.69 L 2.07,77.03 L 0.00,77.11 L 0.00,73.32 L 6.58,68.73 L 9.98,69.76 L 8.41,72.77 Z" fill="#A8C8E8" stroke="none"/>
<path d="M 21.36,90.25 L 21.21,89.82 L 20.17,90.27 L 20.82,91.50 L 19.18,92.68 L 15.77,92.39 L 17.54,89.59 L 15.68,91.33 L 14.95,91.23 L 14.64,90.72 L 15.09,91.17 L 17.83,88.67 L 18.00,89.20 L 18.81,88.47 L 17.73,89.66 L 20.53,87.97 L 22.00,89.05 L 21.36,90.25 Z" fill="#A8C8E8" stroke="none"/>
<path d="M 9.07,18.69 L 8.67,17.88 L 6.23,19.39 L 6.21,18.59 L 7.94,17.70 L 6.77,18.21 L 7.33,17.61 L 6.50,17.66 L 6.41,16.70 L 7.87,15.97 L 7.54,15.40 L 6.77,15.63 L 9.53,12.84 L 9.40,12.38 L 8.50,13.00 L 9.09,12.15 L 11.67,13.05 L 12.71,15.96 L 9.07,18.69 Z M 8.89,15.30 L 8.50,17.66 L 9.55,17.34 L 9.62,15.17 L 8.89,15.30 Z" fill="#A8C8E8" stroke="none"/>
<path d="M 13.19,4.80 L 12.39,3.23 L 14.82,0.64 L 17.03,0.00 L 18.41,0.00 L 19.18,0.49 L 20.21,0.31 L 19.27,2.11 L 13.19,4.80 Z" fill="#A8C8E8" stroke="none"/>
<path d="M 46.83,61.13 L 46.90,61.13 L 46.89,61.13 L 46.83,61.13 Z M 55.04,65.67 L 49.43,64.14 L 47.49,64.70 L 45.24,61.70 L 47.39,61.15 L 55.04,65.67 Z" fill="#A8C8E8" stroke="none"/>
<path d="M 97.31,28.59 L 98.94,27.04 L 98.98,29.29 L 97.31,29.96 L 97.31,28.59 Z" fill="#A8C8E8" stroke="none"/>
<path d="M 120.27,28.60 L 119.80,30.14 L 118.33,28.96 L 120.27,28.60 Z" fill="#A8C8E8" stroke="none"/>
<path d="M 47.95,224.19 L 46.55,223.10 L 47.38,222.98 L 47.95,224.19 Z" fill="#A8C8E8" stroke="none"/>
<path d="M 124.52,5.57 L 124.70,5.70 L 123.98,5.86 L 123.71,5.59 L 124.52,5.57 Z" fill="#A8C8E8" stroke="none"/>
<path d="M 122.66,6.05 L 119.66,6.88 L 117.83,5.64 L 120.63,6.37 L 122.34,5.90 L 122.17,5.25 L 122.66,6.05 Z" fill="#A8C8E8" stroke="none"/>
<path d="M 20.26,10.24 L 19.37,8.99 L 20.62,9.46 L 21.07,10.13 L 20.26,10.24 Z" fill="#A8C8E8" stroke="none"/>
<path d="M 267.12,141.67 L 265.61,143.67 L 265.37,142.67 L 266.89,141.06 L 267.12,141.67 Z" fill="#A8C8E8" stroke="none"/>
<path d="M 18.31,70.99 L 17.33,71.31 L 16.38,70.80 L 19.81,69.34 L 18.31,70.99 Z" fill="#A8C8E8" stroke="none"/>
<path d="M 556.55,401.76 L 555.39,401.75 L 555.44,401.51 L 556.55,401.76 Z" fill="#A8C8E8" stroke="none"/>
<path d="M 5.41,136.85 L 4.06,135.73 L 0.93,136.85 L 1.35,137.52 L 0.11,136.32 L 0.00,136.34 L 0.00,134.98 L 0.35,135.11 L 3.83,134.10 L 7.97,135.08 L 5.41,136.85 Z" fill="#A8C8E8" stroke="none"/>
<path d="M 57.00,126.99 L 53.84,126.75 L 49.63,128.04 L 39.17,127.49 L 36.82,129.05 L 37.54,127.93 L 35.89,127.94 L 32.03,127.26 L 36.59,127.82 L 39.09,126.98 L 48.68,127.14 L 52.58,126.24 L 57.00,126.99 Z" fill="#A8C8E8" stroke="none"/>
<path d="M 0.76,220.28 L 0.00,220.09 L 0.00,219.56 L 1.77,220.05 L 0.76,220.28 Z M 0.51,221.01 L 0.07,221.81 L 0.00,221.69 L 0.00,220.59 L 0.51,221.01 Z" fill="#A8C8E8" stroke="none"/>
<path d="M 84.98,29.55 L 84.03,29.41 L 85.13,28.78 L 87.69,28.52 L 91.55,26.61 L 92.03,27.40 L 90.12,29.00 L 84.32,30.10 L 84.98,29.55 Z" fill="#A8C8E8" stroke="none"/>
<path d="M 100.29,17.15 L 101.05,16.42 L 102.32,17.72 L 101.26,19.94 L 100.03,20.31 L 100.76,19.58 L 100.29,17.15 Z" fill="#A8C8E8" stroke="none"/>
</svg>