<svg xmlns="http://www.w3.org/2000/svg" width="800" height="500" viewBox="0 0 800 500">
<rect width="800" height="500" fill="#A8C8E8"/>
<path d="M 790.47,25.39 L 800.00,31.89 L 800.00,44.83 L 795.51,46.48 L 710.92,18.83 L 759.21,13.73 L 732.51,0.00 L 800.00,0.00 L 800.00,24.58 L 790.47,25.39 Z M 658.91,2.43 L 588.94,0.82 L 584.16,0.00 L 669.53,0.00 L 658.91,2.43 Z" fill="#E8E0D0" stroke="#B8B0A0" stroke-width="0.5"/>
<path d="M 602.88,399.21 L 643.56,395.28 L 589.48,370.39 L 580.95,350.92 L 604.39,350.62 L 598.26,223.20 L 529.56,193.87 L 530.72,164.42 L 390.16,141.41 L 393.29,121.18 L 423.34,102.58 L 438.79,103.73 L 443.31,97.15 L 476.51,100.41 L 463.54,93.31 L 487.57,91.83 L 481.86,85.98 L 530.57,84.20 L 557.88,72.72 L 598.37,78.00 L 693.81,76.43 L 766.37,61.65 L 793.19,43.29 L 800.00,42.60 L 800.00,392.24 L 602.88,399.21 Z M 788.28,26.47 L 800.00,25.07 L 800.00,33.78 L 788.28,26.47 Z" fill="#C8D8E8" stroke="#8BAABB" stroke-width="0.8"/>
<path d="M 769.83,60.83 L 700.66,75.63 L 598.37,78.00 L 557.88,72.72 L 530.57,84.20 L 487.06,84.40 L 487.57,91.83 L 463.54,93.31 L 477.34,100.13 L 443.31,97.15 L 438.79,103.73 L 319.88,106.27 L 319.62,101.93 L 122.55,92.01 L 39.28,107.84 L 0.00,102.90 L 0.00,0.00 L 584.16,0.00 L 588.94,0.82 L 658.91,2.43 L 669.53,0.00 L 732.51,0.00 L 759.21,13.73 L 710.92,18.83 L 795.51,46.48 L 769.83,60.83 Z" fill="#C8D8E8" stroke="#8BAABB" stroke-width="0.8"/>
<path d="M 202.02,98.24 L 175.94,124.88 L 297.12,146.62 L 284.74,185.11 L 263.21,185.48 L 292.40,189.69 L 255.52,190.53 L 273.45,194.77 L 254.67,199.44 L 300.88,195.72 L 330.81,201.37 L 305.79,224.56 L 324.38,234.57 L 289.44,240.28 L 376.16,269.85 L 341.43,275.68 L 351.04,307.00 L 321.87,319.11 L 359.39,330.33 L 347.48,348.48 L 321.61,352.08 L 326.99,360.24 L 384.40,385.12 L 443.85,392.34 L 494.32,406.25 L 436.68,425.46 L 258.80,427.62 L 0.00,460.98 L 0.00,102.90 L 39.28,107.84 L 122.55,92.01 L 202.02,98.24 Z" fill="#C8D8E8" stroke="#8BAABB" stroke-width="0.8"/>
<path d="M 319.62,101.93 L 319.88,106.27 L 423.34,102.58 L 388.15,140.48 L 533.93,166.53 L 529.56,193.87 L 596.92,221.50 L 609.01,257.71 L 604.39,350.62 L 580.95,350.92 L 589.48,370.39 L 643.56,395.28 L 602.88,399.21 L 494.32,406.25 L 443.85,392.34 L 384.40,385.12 L 327.79,360.83 L 321.61,352.08 L 347.48,348.48 L 359.39,330.33 L 321.87,319.11 L 351.04,307.00 L 341.43,275.68 L 376.16,269.85 L 289.44,240.28 L 324.38,234.57 L 305.79,224.56 L 330.81,201.37 L 300.88,195.72 L 254.67,199.44 L 273.45,194.77 L 255.52,190.53 L 292.40,189.69 L 263.21,185.48 L 284.74,185.11 L 297.12,146.62 L 175.94,124.88 L 202.02,98.24 L 156.44,93.75 L 319.62,101.93 Z" fill="#4A90D9" stroke="#1a5fa8" stroke-width="1.2"/>
<path d="M 792.40,387.94 L 800.00,385.56 L 800.00,388.12 L 792.40,387.94 Z" fill="#A8C8E8" stroke="none"/>
<path d="M 263.06,339.81 L 274.98,346.21 L 252.98,360.39 L 257.98,371.77 L 278.41,363.66 L 276.90,371.29 L 233.92,375.11 L 225.35,391.28 L 221.52,382.84 L 195.32,391.45 L 168.87,380.65 L 48.91,368.75 L 18.04,359.78 L 50.64,364.48 L 64.26,358.54 L 71.10,367.06 L 97.70,368.28 L 101.82,359.40 L 108.82,369.60 L 146.53,365.32 L 177.25,374.25 L 194.48,367.91 L 175.71,361.08 L 227.08,357.65 L 197.90,356.38 L 210.00,350.87 L 228.84,353.08 L 213.28,349.19 L 230.61,347.03 L 197.64,338.28 L 223.80,339.39 L 247.09,333.40 L 211.70,319.79 L 175.71,318.54 L 188.96,323.46 L 184.25,324.06 L 134.57,318.12 L 210.00,317.25 L 183.14,309.79 L 30.00,316.86 L 175.12,304.62 L 153.48,302.37 L 166.95,299.67 L 153.48,289.20 L 115.62,281.95 L 109.73,289.58 L 83.57,290.64 L 108.41,285.80 L 88.36,282.27 L 59.33,288.76 L 69.55,283.43 L 59.33,277.71 L 33.38,284.10 L 36.03,280.69 L 7.77,282.75 L 50.64,276.87 L 0.00,270.30 L 0.00,267.87 L 7.92,267.53 L 0.00,265.05 L 0.00,259.63 L 62.75,270.89 L 71.10,277.29 L 143.11,273.05 L 152.01,277.43 L 115.62,275.97 L 113.97,279.86 L 164.41,286.64 L 184.25,302.79 L 218.69,302.37 L 208.13,292.16 L 225.35,287.92 L 207.76,283.75 L 245.88,282.75 L 218.98,273.71 L 255.11,266.29 L 220.20,264.72 L 216.07,254.52 L 227.08,250.94 L 239.18,251.78 L 232.19,246.70 L 252.83,241.95 L 230.76,259.71 L 221.92,260.49 L 273.33,267.04 L 245.88,268.32 L 233.92,275.13 L 268.21,281.14 L 216.81,291.78 L 242.20,294.08 L 235.61,300.67 L 264.79,292.16 L 249.41,298.98 L 268.21,301.48 L 271.60,313.43 L 249.41,316.42 L 258.39,322.00 L 280.28,315.16 L 263.06,339.81 Z M 223.80,361.94 L 197.20,366.87 L 220.23,372.14 L 240.69,369.14 L 223.80,361.94 Z M 0.82,250.19 L 0.00,249.94 L 0.00,247.39 L 14.77,250.48 L 21.61,247.08 L 23.16,250.48 L 0.00,256.18 L 0.00,250.36 L 0.82,250.19 Z" fill="#A8C8E8" stroke="none"/>
</svg>