<svg xmlns="http://www.w3.org/2000/svg" width="800" height="500" viewBox="0 0 800 500">
<rect width="800" height="500" fill="#A8C8E8"/>
<path d="M 358.01,478.41 L 363.19,476.52 L 373.11,476.67 L 389.20,482.30 L 395.83,488.95 L 415.26,489.96 L 437.52,495.76 L 440.54,500.00 L 241.20,500.00 L 231.93,492.01 L 238.74,490.61 L 235.80,488.12 L 230.78,488.38 L 221.40,484.16 L 186.46,477.09 L 173.70,476.89 L 168.51,474.14 L 165.16,464.55 L 153.24,462.92 L 121.78,447.33 L 97.41,445.30 L 80.42,438.07 L 42.28,427.18 L 20.17,413.36 L 21.00,407.45 L 34.22,405.73 L 45.06,406.32 L 61.70,408.73 L 73.80,413.30 L 93.01,414.95 L 127.20,413.77 L 142.47,416.45 L 160.54,414.43 L 183.64,421.87 L 188.93,429.10 L 205.74,431.66 L 205.19,436.17 L 199.92,438.35 L 204.99,436.89 L 207.56,438.94 L 229.93,442.43 L 237.17,446.42 L 294.72,457.92 L 308.52,462.81 L 306.95,468.13 L 310.24,470.11 L 308.19,467.99 L 313.07,467.48 L 317.35,471.63 L 317.06,468.82 L 322.46,467.92 L 335.95,477.05 L 358.78,481.98 L 366.89,486.50 L 358.01,478.41 Z M 552.89,499.95 L 553.53,500.00 L 552.73,500.00 L 552.89,499.95 Z M 586.42,500.00 L 579.46,500.00 L 585.75,499.16 L 586.42,500.00 Z M 458.37,500.00 L 444.05,500.00 L 443.09,495.51 L 458.94,498.80 L 458.37,500.00 Z M 459.27,498.20 L 450.31,495.19 L 436.15,493.89 L 430.86,490.93 L 458.30,493.04 L 459.27,498.20 Z M 225.26,490.58 L 215.16,489.96 L 217.03,488.95 L 225.26,490.58 Z M 134.98,482.48 L 132.97,480.98 L 136.05,480.43 L 134.98,482.48 Z M 416.85,483.91 L 413.21,487.49 L 399.67,488.37 L 394.03,484.73 L 395.29,481.88 L 409.23,480.11 L 416.85,483.91 Z M 109.00,480.67 L 106.06,481.33 L 105.48,480.30 L 109.00,480.67 Z M 148.21,482.15 L 135.00,478.33 L 145.77,477.98 L 148.21,482.15 Z M 686.00,467.36 L 683.92,465.54 L 685.31,465.58 L 686.00,467.36 Z M 88.69,475.32 L 72.45,470.59 L 55.85,469.01 L 50.37,465.27 L 55.22,464.96 L 55.91,462.94 L 63.17,463.70 L 61.43,464.96 L 76.11,467.34 L 74.69,469.01 L 78.02,468.46 L 97.41,474.06 L 88.69,475.32 Z M 780.91,462.00 L 776.92,462.07 L 778.60,461.19 L 780.91,462.00 Z M 660.31,463.74 L 654.33,465.03 L 652.88,460.46 L 660.31,463.74 Z M 688.86,459.88 L 688.49,459.88 L 684.19,456.97 L 688.86,459.88 Z M 689.60,454.17 L 688.49,456.86 L 685.56,456.28 L 689.60,454.17 Z M 797.99,447.04 L 800.00,446.31 L 800.00,447.41 L 797.99,447.04 Z M 796.05,443.67 L 791.37,440.38 L 800.00,437.45 L 800.00,444.11 L 796.05,443.67 Z M 791.90,426.05 L 788.51,426.05 L 788.71,425.68 L 792.60,424.34 L 791.90,426.05 Z M 17.60,406.99 L 14.75,406.42 L 16.72,405.53 L 17.60,406.99 Z M 15.83,404.73 L 16.21,404.95 L 15.53,405.42 L 11.83,405.69 L 9.05,403.83 L 15.83,404.73 Z M 28.58,403.10 L 21.05,400.50 L 25.29,401.45 L 28.79,400.63 L 28.58,403.10 Z M 143.72,498.28 L 132.64,495.15 L 153.94,492.96 L 173.64,500.00 L 145.98,500.00 L 143.72,498.28 Z" fill="#E8E0D0" stroke="#B8B0A0" stroke-width="0.5"/>
<path d="M 791.76,70.48 L 797.15,71.80 L 790.53,72.94 L 780.93,68.38 L 752.98,69.40 L 748.42,66.89 L 732.15,64.95 L 732.54,62.48 L 711.05,61.61 L 711.64,56.24 L 703.44,51.71 L 706.47,48.39 L 712.69,48.73 L 719.30,44.13 L 701.08,41.43 L 687.06,42.92 L 679.63,40.38 L 662.85,41.87 L 644.61,38.60 L 630.17,32.14 L 623.46,34.50 L 603.50,36.41 L 599.15,38.05 L 600.70,41.46 L 593.29,43.69 L 584.41,43.31 L 571.54,46.47 L 565.31,45.30 L 565.57,43.56 L 556.26,44.25 L 548.58,50.25 L 529.73,44.10 L 521.09,48.69 L 509.38,44.33 L 492.46,51.88 L 458.61,44.74 L 443.54,52.29 L 430.09,51.51 L 422.42,52.96 L 411.64,50.85 L 401.18,55.77 L 418.56,68.84 L 414.48,70.00 L 413.21,75.27 L 419.76,77.10 L 415.67,79.02 L 401.29,76.93 L 384.81,77.98 L 375.07,65.87 L 347.26,72.15 L 330.38,70.86 L 319.56,72.84 L 314.95,70.42 L 318.37,68.23 L 306.76,66.83 L 306.28,59.99 L 258.15,57.71 L 271.02,50.50 L 268.01,45.23 L 274.37,41.32 L 281.89,41.41 L 279.18,38.65 L 269.57,37.12 L 262.50,38.65 L 240.93,36.07 L 242.78,31.28 L 236.22,28.62 L 240.75,26.99 L 236.96,23.86 L 229.15,23.05 L 228.86,19.58 L 241.34,15.69 L 224.42,17.17 L 195.46,16.62 L 166.48,22.00 L 159.96,19.97 L 172.24,15.65 L 167.85,9.64 L 159.76,9.51 L 160.94,3.51 L 174.96,1.16 L 174.02,0.00 L 800.00,0.00 L 800.00,69.21 L 791.76,70.48 Z" fill="#E8E0D0" stroke="#B8B0A0" stroke-width="0.5"/>
<path d="M 765.64,210.99 L 758.85,208.07 L 767.51,207.38 L 772.03,202.94 L 740.95,192.29 L 743.21,190.48 L 754.63,189.22 L 758.25,186.06 L 750.01,186.16 L 738.51,181.87 L 729.36,181.03 L 722.73,176.33 L 716.44,178.62 L 712.11,178.14 L 704.27,173.61 L 703.30,166.64 L 696.47,166.51 L 688.82,160.41 L 682.84,160.99 L 654.96,152.21 L 639.49,141.51 L 633.39,142.14 L 621.36,138.85 L 616.17,135.74 L 621.56,132.35 L 618.14,130.59 L 593.87,128.53 L 559.94,120.37 L 541.88,117.90 L 556.45,114.03 L 551.08,109.87 L 564.83,109.34 L 588.08,111.42 L 599.58,107.55 L 598.11,105.08 L 608.29,103.23 L 605.79,99.44 L 590.66,98.65 L 592.10,95.94 L 572.73,93.86 L 588.13,89.50 L 556.59,82.86 L 538.08,85.29 L 531.50,89.29 L 517.27,85.93 L 497.66,84.82 L 478.72,76.67 L 489.15,69.91 L 487.56,66.49 L 481.49,67.18 L 479.05,64.41 L 475.76,67.68 L 469.64,68.17 L 466.04,63.03 L 437.55,52.56 L 443.54,52.29 L 457.09,44.81 L 492.46,51.88 L 509.38,44.33 L 521.09,48.69 L 529.73,44.10 L 548.58,50.25 L 556.26,44.25 L 565.57,43.56 L 565.31,45.30 L 571.54,46.47 L 584.41,43.31 L 593.29,43.69 L 600.70,41.46 L 599.15,38.05 L 603.50,36.41 L 623.46,34.50 L 630.17,32.14 L 644.61,38.60 L 662.85,41.87 L 679.63,40.38 L 687.06,42.92 L 701.08,41.43 L 719.30,44.13 L 712.69,48.73 L 706.47,48.39 L 703.44,51.71 L 711.64,56.24 L 711.05,61.61 L 732.54,62.48 L 732.15,64.95 L 748.42,66.89 L 752.98,69.40 L 778.90,68.21 L 791.76,71.80 L 788.05,72.71 L 786.84,70.94 L 778.23,71.07 L 779.41,72.37 L 767.60,75.84 L 757.03,75.11 L 753.73,77.00 L 754.55,81.46 L 743.86,83.36 L 735.96,82.91 L 740.97,81.19 L 733.52,81.33 L 732.04,83.08 L 723.16,82.21 L 728.55,83.94 L 724.01,84.52 L 718.25,82.94 L 719.80,81.52 L 710.39,81.62 L 717.21,83.34 L 713.88,84.52 L 720.27,88.84 L 707.05,89.15 L 709.34,90.59 L 702.94,91.73 L 706.64,91.59 L 702.94,93.91 L 707.50,93.68 L 707.40,97.33 L 706.74,97.56 L 704.05,96.62 L 701.70,96.63 L 706.02,98.24 L 694.62,98.67 L 682.28,103.30 L 678.12,103.88 L 678.12,102.43 L 668.98,104.71 L 659.04,111.50 L 660.12,118.32 L 648.33,124.53 L 656.62,131.34 L 657.45,129.31 L 677.29,139.87 L 688.00,141.02 L 692.57,144.07 L 697.89,142.72 L 703.31,146.39 L 697.96,147.81 L 701.70,151.43 L 694.25,150.27 L 688.86,150.13 L 702.08,152.01 L 717.74,159.34 L 738.72,164.55 L 744.27,168.12 L 740.53,169.21 L 745.03,168.36 L 770.29,175.12 L 758.72,173.84 L 771.97,175.87 L 782.71,179.50 L 780.97,180.90 L 794.89,180.20 L 795.55,182.53 L 800.00,182.73 L 800.00,294.72 L 798.71,294.70 L 792.19,299.32 L 781.67,299.47 L 748.38,306.09 L 742.59,304.00 L 731.46,303.93 L 733.95,302.98 L 733.90,301.26 L 733.40,300.23 L 731.02,299.32 L 733.60,302.59 L 731.46,300.89 L 729.78,304.23 L 728.55,301.40 L 724.83,300.31 L 716.75,299.86 L 715.90,303.05 L 706.76,304.52 L 716.36,304.20 L 719.36,308.06 L 697.13,307.38 L 719.77,310.75 L 710.80,314.61 L 699.94,312.83 L 693.37,309.41 L 689.27,308.55 L 699.51,313.32 L 713.66,316.25 L 711.99,317.38 L 707.05,317.80 L 680.40,309.25 L 678.49,309.13 L 706.34,319.57 L 704.45,322.82 L 694.88,323.60 L 660.74,313.90 L 683.54,323.75 L 683.32,327.37 L 643.84,332.43 L 617.46,342.88 L 594.97,343.61 L 609.12,341.08 L 602.49,341.23 L 606.61,339.19 L 597.75,339.00 L 602.69,319.60 L 604.87,317.21 L 614.65,315.47 L 618.17,317.08 L 617.80,315.07 L 597.59,309.29 L 588.00,311.02 L 582.69,305.22 L 579.35,306.09 L 578.25,305.22 L 585.21,302.93 L 602.56,302.86 L 615.37,299.01 L 612.03,295.43 L 616.04,294.10 L 630.52,296.38 L 636.10,293.76 L 656.75,292.65 L 664.34,296.60 L 667.52,295.16 L 682.35,297.89 L 681.33,291.85 L 662.27,286.86 L 659.89,279.79 L 667.68,279.42 L 672.59,276.72 L 697.34,279.01 L 695.42,272.52 L 713.98,272.50 L 744.76,265.43 L 757.06,266.52 L 763.00,264.63 L 766.06,259.09 L 759.75,250.33 L 768.43,240.27 L 751.27,227.17 L 765.64,210.99 Z M 688.81,323.70 L 683.52,323.10 L 679.26,320.98 L 677.29,319.11 L 688.81,323.70 Z M 717.04,309.09 L 715.34,309.29 L 702.52,307.83 L 717.04,309.09 Z M 744.71,305.09 L 737.23,307.25 L 736.76,305.82 L 744.71,305.09 Z M 730.61,305.52 L 725.22,306.24 L 727.60,303.08 L 730.61,305.52 Z M 723.16,302.20 L 724.21,301.25 L 723.16,300.76 L 727.72,301.47 L 726.48,302.84 L 723.16,302.20 Z M 711.21,341.51 L 706.54,342.43 L 706.10,341.37 L 711.21,341.51 Z M 703.97,317.67 L 697.13,315.36 L 698.37,315.49 L 703.97,317.67 Z M 553.04,312.04 L 554.12,313.90 L 541.74,306.24 L 551.31,304.56 L 555.97,306.24 L 553.04,312.04 Z M 722.33,305.52 L 718.14,304.28 L 717.01,300.03 L 722.80,301.12 L 722.33,303.64 L 722.33,305.52 Z M 734.76,88.28 L 726.72,85.48 L 729.40,84.64 L 736.82,86.25 L 734.76,88.28 Z M 724.83,85.81 L 724.35,86.48 L 718.14,85.03 L 719.03,83.50 L 724.83,85.81 Z M 765.35,82.63 L 764.86,83.75 L 759.96,85.96 L 765.35,82.63 Z M 779.80,82.34 L 776.51,83.36 L 777.74,82.41 L 779.80,82.34 Z M 762.84,83.65 L 755.80,84.21 L 764.11,81.19 L 762.84,83.65 Z M 766.94,82.40 L 765.72,82.34 L 767.82,80.16 L 766.94,82.40 Z M 760.37,80.02 L 754.47,80.79 L 759.44,76.23 L 766.99,77.57 L 760.37,80.02 Z M 781.26,74.69 L 774.89,75.56 L 779.26,74.53 L 781.26,74.69 Z M 792.19,73.53 L 782.71,74.69 L 784.37,73.82 L 792.19,73.53 Z M 754.91,86.31 L 752.55,85.36 L 753.52,85.64 L 754.91,86.31 Z M 754.15,85.03 L 752.03,84.51 L 752.44,84.36 L 754.15,85.03 Z M 783.62,81.34 L 781.30,82.29 L 781.23,81.92 L 783.62,81.34 Z" fill="#E8E0D0" stroke="#B8B0A0" stroke-width="0.5"/>
<path d="M 541.31,498.29 L 529.33,497.11 L 533.43,494.85 L 548.66,495.66 L 541.31,498.29 Z" fill="#E8E0D0" stroke="#B8B0A0" stroke-width="0.5"/>
<path d="M 174.96,1.16 L 160.94,3.51 L 159.76,9.51 L 167.85,9.64 L 172.24,15.65 L 159.96,19.97 L 166.48,22.00 L 195.46,16.62 L 224.42,17.17 L 241.34,15.69 L 228.86,19.58 L 229.15,23.05 L 236.96,23.86 L 240.75,26.99 L 236.22,28.62 L 242.78,31.28 L 240.93,36.07 L 262.50,38.65 L 269.57,37.12 L 279.18,38.65 L 281.89,41.41 L 274.37,41.32 L 268.01,45.23 L 271.02,50.50 L 258.15,57.71 L 306.28,59.99 L 306.76,66.83 L 318.37,68.23 L 315.18,70.89 L 321.04,73.02 L 330.38,70.86 L 347.26,72.15 L 375.07,65.87 L 380.56,69.14 L 370.28,73.48 L 353.51,75.47 L 340.99,84.02 L 349.09,84.65 L 331.76,85.67 L 322.50,88.43 L 315.75,96.43 L 305.96,93.75 L 288.76,96.66 L 274.81,95.21 L 280.22,99.89 L 267.27,101.82 L 253.87,101.00 L 249.49,106.91 L 243.37,108.44 L 237.85,107.22 L 221.25,109.97 L 203.45,110.21 L 190.60,107.29 L 189.62,110.75 L 179.99,112.26 L 175.07,115.84 L 177.71,121.86 L 168.48,125.80 L 173.78,133.28 L 159.54,134.96 L 150.00,133.70 L 158.15,139.16 L 167.26,138.86 L 174.29,145.98 L 169.59,148.90 L 174.61,151.83 L 219.85,168.68 L 216.67,172.25 L 229.13,181.46 L 239.76,177.54 L 243.56,179.46 L 237.81,185.18 L 222.11,186.51 L 222.89,201.11 L 213.46,201.01 L 212.36,203.20 L 206.19,202.49 L 198.80,206.36 L 203.80,212.71 L 222.16,221.73 L 245.54,227.90 L 254.87,232.44 L 260.91,245.95 L 255.60,247.18 L 255.06,249.98 L 262.98,256.75 L 273.76,259.74 L 276.72,269.15 L 282.11,268.92 L 280.71,271.34 L 287.44,275.77 L 282.17,279.47 L 276.57,280.03 L 262.29,290.69 L 235.37,299.54 L 234.20,306.68 L 221.88,314.33 L 216.83,298.98 L 221.00,299.45 L 227.17,296.12 L 224.20,295.47 L 232.09,294.57 L 228.82,290.19 L 234.92,287.30 L 231.22,284.79 L 235.86,283.41 L 233.49,279.43 L 242.90,278.34 L 236.35,277.05 L 238.93,275.56 L 237.91,275.02 L 229.79,278.52 L 225.52,276.03 L 231.74,274.44 L 222.24,274.44 L 229.18,273.56 L 232.64,271.93 L 227.10,269.10 L 231.54,266.87 L 221.64,266.78 L 231.74,264.55 L 225.62,262.84 L 231.93,261.08 L 226.70,260.11 L 230.91,256.58 L 226.39,255.72 L 224.01,246.85 L 203.89,235.73 L 200.71,228.33 L 200.39,239.32 L 197.83,239.46 L 192.84,229.48 L 195.76,226.16 L 182.22,215.27 L 190.79,216.04 L 186.10,212.85 L 180.10,214.43 L 176.74,211.13 L 178.43,204.19 L 172.62,201.44 L 176.74,200.00 L 172.66,190.82 L 163.12,186.19 L 167.24,177.44 L 173.45,175.71 L 151.14,177.31 L 139.86,168.07 L 138.29,164.58 L 144.55,164.15 L 138.34,163.69 L 136.68,164.74 L 121.75,156.77 L 118.04,158.09 L 123.42,159.73 L 119.72,161.92 L 123.43,165.89 L 109.47,175.38 L 94.80,177.43 L 84.53,174.92 L 82.10,171.45 L 85.81,170.36 L 78.81,171.24 L 87.87,178.75 L 75.66,180.72 L 68.89,179.34 L 72.56,180.97 L 56.29,184.45 L 51.89,182.81 L 48.26,188.58 L 33.25,193.35 L 25.54,192.99 L 30.14,187.84 L 29.98,184.38 L 21.00,192.01 L 15.75,191.36 L 14.06,186.98 L 21.80,184.98 L 16.36,184.38 L 12.43,185.93 L 10.22,191.61 L 0.00,191.90 L 0.00,191.50 L 1.92,190.73 L 0.00,189.62 L 0.00,187.95 L 3.59,186.70 L 0.00,184.86 L 0.00,184.77 L 2.14,183.63 L 5.71,183.27 L 7.71,182.22 L 0.00,183.99 L 0.00,0.00 L 174.02,0.00 L 174.96,1.16 Z M 0.29,186.65 L 0.00,186.77 L 0.00,185.82 L 0.29,186.65 Z M 190.23,318.40 L 190.05,317.73 L 191.90,317.70 L 190.23,318.40 Z M 202.50,303.56 L 200.75,303.89 L 200.56,303.19 L 202.50,303.56 Z M 215.23,293.11 L 216.35,292.94 L 215.68,293.70 L 215.23,293.11 Z M 156.50,276.39 L 155.61,276.10 L 157.74,276.57 L 156.50,276.39 Z M 179.19,255.16 L 180.24,254.87 L 181.16,255.54 L 179.19,255.16 Z M 206.51,313.90 L 197.17,317.33 L 196.81,314.91 L 206.51,313.90 Z M 199.92,310.00 L 203.63,310.43 L 200.33,313.18 L 199.92,310.00 Z M 185.72,304.71 L 183.70,305.59 L 182.45,305.21 L 183.78,303.64 L 185.72,304.71 Z M 222.49,296.50 L 220.92,297.47 L 219.18,297.33 L 218.90,295.27 L 222.49,296.50 Z M 183.81,294.57 L 186.22,294.68 L 182.10,296.26 L 183.81,294.57 Z M 204.25,299.45 L 201.11,295.47 L 193.79,295.34 L 199.49,293.43 L 205.27,296.41 L 204.25,299.45 Z M 217.90,293.53 L 220.77,291.15 L 221.78,293.95 L 217.90,293.53 Z M 204.04,288.45 L 202.39,287.30 L 206.10,287.16 L 204.04,288.45 Z M 206.22,282.23 L 199.77,283.50 L 199.09,282.98 L 205.91,276.11 L 206.22,282.23 Z M 222.68,276.97 L 221.41,281.81 L 215.20,281.02 L 211.49,276.33 L 222.68,276.97 Z M 194.53,279.64 L 189.83,278.11 L 190.83,277.85 L 189.55,276.90 L 189.96,274.73 L 194.53,279.64 Z M 169.73,274.25 L 169.33,275.31 L 167.58,274.67 L 169.73,274.25 Z M 204.59,273.94 L 205.13,273.81 L 206.56,274.36 L 204.59,273.94 Z M 203.97,273.46 L 203.35,272.55 L 204.86,272.49 L 203.97,273.46 Z M 228.88,272.97 L 228.82,273.28 L 217.96,274.18 L 215.61,269.52 L 228.88,272.97 Z M 197.07,267.70 L 197.41,268.96 L 191.50,267.51 L 193.50,265.78 L 197.07,267.70 Z M 189.14,266.21 L 185.84,265.34 L 193.70,262.87 L 189.14,266.21 Z M 220.13,262.95 L 219.02,263.32 L 217.73,262.92 L 220.13,261.43 L 220.13,262.95 Z M 206.61,260.78 L 204.83,261.44 L 203.01,260.98 L 206.61,260.78 Z M 180.07,259.34 L 180.07,260.55 L 178.83,260.13 L 180.07,259.34 Z M 216.62,262.23 L 207.34,264.75 L 208.16,257.38 L 214.78,260.71 L 217.25,259.57 L 216.62,262.23 Z M 209.41,249.23 L 207.34,252.62 L 204.04,246.25 L 209.41,249.23 Z M 185.39,232.82 L 184.16,234.26 L 184.22,232.79 L 185.39,232.82 Z M 169.36,197.35 L 168.88,197.97 L 168.06,196.11 L 169.36,197.35 Z M 163.27,182.81 L 161.83,183.29 L 156.51,181.15 L 156.53,177.44 L 165.37,177.31 L 163.27,182.81 Z" fill="#C8D8E8" stroke="#8BAABB" stroke-width="0.8"/>
<path d="M 751.27,227.17 L 768.43,240.27 L 759.75,250.33 L 766.06,259.09 L 763.48,264.15 L 757.06,266.52 L 744.76,265.43 L 713.98,272.50 L 695.42,272.52 L 697.34,279.01 L 672.59,276.72 L 667.68,279.42 L 659.89,279.79 L 662.27,286.86 L 681.33,291.85 L 682.35,297.89 L 667.52,295.16 L 664.34,296.60 L 656.75,292.65 L 636.10,293.76 L 630.52,296.38 L 616.04,294.10 L 612.03,295.43 L 613.90,299.50 L 602.56,302.86 L 585.21,302.93 L 579.35,305.30 L 566.09,302.04 L 547.74,301.66 L 542.97,299.32 L 540.20,302.59 L 528.34,303.50 L 520.98,301.05 L 524.93,298.75 L 532.25,298.44 L 534.28,295.19 L 531.40,291.63 L 522.85,289.54 L 518.97,289.77 L 514.96,295.42 L 498.35,295.48 L 494.18,288.32 L 499.88,286.27 L 494.60,283.54 L 501.22,283.99 L 492.95,280.22 L 492.53,281.53 L 487.97,281.23 L 493.32,279.80 L 488.82,279.51 L 489.88,278.15 L 494.73,278.04 L 495.83,277.62 L 489.65,277.91 L 484.26,275.46 L 488.82,277.91 L 487.97,280.95 L 472.61,268.96 L 476.36,262.68 L 459.73,257.94 L 459.95,250.87 L 450.19,244.99 L 449.29,239.38 L 466.44,238.02 L 463.10,236.66 L 472.53,234.72 L 486.73,225.46 L 529.13,220.35 L 544.10,222.52 L 561.70,221.17 L 583.77,222.09 L 597.57,220.42 L 609.76,221.67 L 614.20,225.18 L 622.46,222.40 L 631.72,227.38 L 643.50,226.23 L 656.22,227.86 L 665.61,231.33 L 675.83,231.46 L 680.67,228.57 L 670.09,221.98 L 682.11,221.90 L 685.54,219.35 L 696.94,219.86 L 702.57,217.24 L 720.33,223.10 L 727.97,222.94 L 749.30,217.07 L 757.00,218.23 L 763.36,214.83 L 751.27,227.17 Z M 539.32,303.85 L 538.64,304.50 L 535.55,303.93 L 539.32,303.85 Z M 507.44,299.88 L 502.68,297.99 L 505.49,297.66 L 507.44,299.88 Z M 493.32,287.21 L 491.16,287.60 L 490.06,283.99 L 493.32,287.21 Z M 493.77,283.11 L 492.53,283.99 L 490.46,282.14 L 493.77,283.11 Z M 510.22,302.57 L 508.14,301.15 L 509.98,301.05 L 510.22,302.57 Z" fill="#C8D8E8" stroke="#8BAABB" stroke-width="0.8"/>
<path d="M 466.04,63.03 L 469.64,68.17 L 475.76,67.68 L 479.05,64.41 L 481.49,67.18 L 487.56,66.49 L 489.15,69.91 L 478.72,76.67 L 498.55,85.10 L 517.27,85.93 L 531.50,89.29 L 538.08,85.29 L 556.59,82.86 L 588.13,89.50 L 572.73,93.86 L 592.10,95.94 L 590.66,98.65 L 605.79,99.44 L 608.29,103.23 L 598.11,105.08 L 599.58,107.55 L 588.08,111.42 L 564.83,109.34 L 551.08,109.87 L 556.45,114.03 L 541.88,117.90 L 559.94,120.37 L 593.87,128.53 L 618.14,130.59 L 621.56,132.35 L 616.17,135.74 L 621.36,138.85 L 633.39,142.14 L 639.49,141.51 L 654.96,152.21 L 682.84,160.99 L 688.82,160.41 L 696.47,166.51 L 703.30,166.64 L 704.27,173.61 L 712.11,178.14 L 716.44,178.62 L 722.73,176.33 L 729.36,181.03 L 738.51,181.87 L 750.01,186.16 L 758.25,186.06 L 754.63,189.22 L 743.21,190.48 L 740.95,192.29 L 772.03,202.94 L 767.51,207.38 L 758.85,208.07 L 765.64,210.99 L 757.00,218.23 L 749.30,217.07 L 738.05,221.10 L 733.62,220.52 L 722.07,223.22 L 702.57,217.24 L 695.41,220.07 L 685.54,219.35 L 682.11,221.90 L 669.81,222.21 L 680.67,228.57 L 675.83,231.46 L 665.61,231.33 L 656.22,227.86 L 643.50,226.23 L 633.30,227.50 L 626.84,225.85 L 622.46,222.40 L 636.43,220.67 L 641.96,217.80 L 640.85,213.11 L 647.11,208.80 L 638.11,205.78 L 645.36,202.85 L 640.14,201.16 L 647.79,199.34 L 650.00,194.22 L 636.19,191.73 L 633.09,189.21 L 636.80,187.30 L 614.85,184.95 L 612.28,181.67 L 597.18,176.72 L 595.68,166.36 L 600.27,158.55 L 578.29,152.37 L 549.54,138.35 L 543.42,139.35 L 509.22,136.34 L 504.82,137.82 L 508.52,139.25 L 500.85,140.05 L 492.99,145.52 L 481.82,145.91 L 471.58,149.33 L 466.29,148.68 L 466.56,146.27 L 435.13,140.81 L 424.62,144.54 L 417.75,143.77 L 414.05,147.18 L 393.48,151.03 L 378.05,156.68 L 363.20,154.31 L 370.12,147.75 L 380.04,144.20 L 379.45,138.51 L 371.90,136.30 L 384.23,131.43 L 383.64,126.87 L 389.76,123.80 L 380.47,116.29 L 385.45,112.69 L 362.82,111.29 L 355.17,114.05 L 338.36,113.16 L 332.63,108.50 L 342.72,99.59 L 330.53,94.91 L 324.25,95.27 L 318.96,98.09 L 315.78,95.50 L 326.31,87.06 L 349.09,84.65 L 340.99,84.02 L 353.51,75.47 L 361.11,75.40 L 379.66,70.39 L 385.74,78.26 L 401.29,76.93 L 416.32,78.87 L 419.76,77.10 L 413.23,74.91 L 418.56,68.84 L 401.18,55.77 L 413.09,50.58 L 420.90,52.86 L 430.09,51.51 L 466.04,63.03 Z" fill="#C8D8E8" stroke="#8BAABB" stroke-width="0.8"/>
<path d="M 450.79,394.71 L 461.80,401.15 L 492.37,409.30 L 517.73,423.62 L 520.65,434.17 L 511.14,445.73 L 519.79,450.93 L 517.32,463.37 L 529.22,468.64 L 536.86,469.13 L 547.95,475.65 L 566.42,490.46 L 567.75,496.16 L 557.43,496.00 L 554.61,493.67 L 559.93,492.41 L 554.25,493.23 L 548.97,490.24 L 551.61,494.45 L 532.78,494.40 L 523.75,495.85 L 521.85,498.21 L 512.87,492.55 L 472.58,485.78 L 463.24,481.60 L 439.70,477.85 L 429.71,474.49 L 422.26,474.49 L 416.78,470.44 L 387.35,464.89 L 392.56,461.67 L 388.02,455.93 L 372.52,448.60 L 358.75,445.13 L 360.75,443.77 L 352.55,443.10 L 352.36,440.98 L 362.32,440.23 L 347.91,437.35 L 343.86,433.90 L 348.69,428.82 L 345.61,427.74 L 349.94,426.50 L 346.20,426.59 L 346.99,423.90 L 331.74,417.76 L 335.89,415.08 L 332.42,402.43 L 330.81,398.18 L 318.05,390.42 L 319.82,383.78 L 326.28,383.76 L 333.12,387.43 L 347.80,389.06 L 353.78,388.04 L 360.00,393.45 L 375.00,393.24 L 374.82,399.75 L 367.98,402.82 L 377.44,406.25 L 385.09,402.94 L 403.72,400.31 L 410.24,403.39 L 418.36,403.93 L 434.01,396.44 L 434.80,393.01 L 450.79,394.71 Z M 563.74,467.73 L 558.90,467.09 L 561.32,464.02 L 563.74,467.73 Z M 327.17,414.00 L 320.87,413.87 L 320.58,409.87 L 328.44,410.03 L 327.17,414.00 Z M 297.72,392.69 L 299.92,392.24 L 298.03,394.82 L 297.72,392.69 Z M 293.39,392.93 L 288.36,389.25 L 300.23,388.54 L 303.76,390.76 L 293.39,392.93 Z M 385.73,461.09 L 384.37,460.98 L 385.93,460.53 L 385.73,461.09 Z M 390.30,461.53 L 386.24,462.46 L 388.53,460.37 L 390.30,461.53 Z" fill="#C8D8E8" stroke="#8BAABB" stroke-width="0.8"/>
<path d="M 466.93,267.22 L 465.52,270.84 L 448.24,267.88 L 446.27,265.78 L 450.67,265.40 L 451.63,264.14 L 447.98,265.17 L 448.73,262.87 L 442.80,262.69 L 444.16,265.06 L 434.28,259.84 L 430.95,259.98 L 433.83,262.00 L 416.28,256.99 L 395.29,259.32 L 375.37,257.53 L 368.53,259.27 L 361.50,258.12 L 366.07,250.73 L 362.73,248.72 L 369.82,240.32 L 350.76,240.05 L 345.82,237.88 L 344.49,239.83 L 326.35,239.89 L 307.51,244.25 L 316.05,249.58 L 307.37,257.79 L 310.96,267.82 L 288.15,281.94 L 284.80,288.86 L 279.38,290.17 L 280.29,295.80 L 276.17,295.71 L 263.94,303.06 L 266.63,306.38 L 258.58,306.53 L 264.80,309.12 L 258.58,311.89 L 258.17,318.54 L 268.96,326.90 L 263.64,328.07 L 264.82,330.26 L 278.08,330.92 L 281.76,329.22 L 297.90,328.36 L 302.88,330.24 L 307.77,343.48 L 318.45,348.05 L 317.66,345.40 L 323.05,346.79 L 336.31,367.29 L 344.41,372.94 L 335.42,371.71 L 334.25,366.22 L 326.20,366.15 L 329.09,362.42 L 322.46,360.88 L 318.49,362.17 L 320.57,366.15 L 335.36,373.74 L 343.28,374.30 L 345.07,372.62 L 355.91,377.71 L 369.93,380.37 L 391.26,379.97 L 387.67,378.31 L 403.69,380.69 L 416.62,387.88 L 434.80,393.01 L 434.01,396.44 L 418.36,403.93 L 410.24,403.39 L 403.72,400.31 L 385.09,402.94 L 377.44,406.25 L 367.98,402.82 L 374.82,399.75 L 375.00,393.24 L 360.00,393.45 L 353.78,388.04 L 347.80,389.06 L 333.12,387.43 L 325.64,383.68 L 319.82,383.78 L 317.43,389.11 L 290.80,379.94 L 294.56,374.69 L 283.09,373.18 L 285.84,369.42 L 282.59,370.98 L 280.09,369.23 L 277.83,371.44 L 272.25,370.58 L 267.10,364.26 L 257.31,361.17 L 254.96,362.76 L 251.44,362.10 L 253.64,357.84 L 244.49,355.17 L 235.58,355.76 L 231.53,349.96 L 226.76,350.33 L 228.66,348.25 L 214.95,349.57 L 214.76,353.13 L 206.43,351.62 L 201.15,344.98 L 204.39,344.98 L 204.90,338.31 L 212.72,334.42 L 209.19,334.61 L 212.16,333.65 L 208.56,330.75 L 216.70,323.59 L 221.16,323.22 L 217.07,322.41 L 224.29,317.38 L 220.05,317.51 L 227.17,315.07 L 232.58,309.26 L 234.77,300.02 L 262.29,290.69 L 276.57,280.03 L 282.17,279.47 L 287.44,275.77 L 280.71,271.34 L 282.11,268.92 L 276.72,269.15 L 273.76,259.74 L 262.98,256.75 L 255.06,249.98 L 255.60,247.18 L 260.91,245.95 L 254.87,232.44 L 245.54,227.90 L 222.16,221.73 L 203.80,212.71 L 198.80,206.36 L 206.19,202.49 L 212.36,203.20 L 213.46,201.01 L 222.89,201.11 L 222.11,186.51 L 237.81,185.18 L 243.56,179.46 L 239.76,177.54 L 229.13,181.46 L 216.67,172.25 L 219.85,168.68 L 174.61,151.83 L 169.59,148.90 L 174.29,145.98 L 167.26,138.86 L 158.15,139.16 L 150.00,133.70 L 159.54,134.96 L 173.78,133.28 L 168.48,125.80 L 177.71,121.86 L 175.07,115.84 L 179.99,112.26 L 189.62,110.75 L 190.60,107.29 L 203.45,110.21 L 221.25,109.97 L 237.85,107.22 L 243.37,108.44 L 249.49,106.91 L 253.87,101.00 L 267.27,101.82 L 280.22,99.89 L 274.81,95.21 L 288.76,96.66 L 305.96,93.75 L 318.96,98.09 L 324.25,95.27 L 330.53,94.91 L 342.85,99.80 L 332.63,108.50 L 338.36,113.16 L 355.17,114.05 L 362.82,111.29 L 385.45,112.69 L 380.47,116.29 L 389.76,123.80 L 383.64,126.87 L 384.23,131.43 L 371.90,136.30 L 379.45,138.51 L 380.04,144.20 L 370.12,147.75 L 364.16,154.56 L 378.05,156.68 L 393.48,151.03 L 414.05,147.18 L 417.75,143.77 L 424.62,144.54 L 435.13,140.81 L 466.56,146.27 L 466.29,148.68 L 471.58,149.33 L 481.82,145.91 L 492.99,145.52 L 500.85,140.05 L 508.52,139.25 L 505.43,137.31 L 514.64,136.01 L 542.45,139.28 L 551.03,138.61 L 578.29,152.37 L 598.84,157.48 L 596.53,176.35 L 612.28,181.67 L 614.85,184.95 L 636.80,187.30 L 633.09,189.21 L 636.19,191.73 L 650.00,194.22 L 647.79,199.34 L 640.14,201.16 L 645.36,202.85 L 638.11,205.78 L 647.11,208.80 L 640.85,213.11 L 641.96,217.80 L 636.43,220.67 L 614.20,225.18 L 609.76,221.67 L 597.57,220.42 L 583.77,222.09 L 561.70,221.17 L 544.10,222.52 L 529.13,220.35 L 499.04,222.95 L 485.80,225.78 L 472.53,234.72 L 463.10,236.66 L 466.44,238.02 L 450.43,238.88 L 450.19,244.99 L 459.95,250.87 L 459.30,257.60 L 476.36,262.68 L 472.14,268.12 L 485.49,279.35 L 466.93,267.22 Z M 179.47,326.64 L 179.69,326.20 L 181.19,326.30 L 179.47,326.64 Z M 291.87,324.17 L 289.74,324.21 L 291.58,323.73 L 291.87,324.17 Z M 290.48,322.25 L 290.34,322.29 L 290.17,321.99 L 290.48,322.25 Z M 262.55,387.12 L 259.00,386.75 L 261.88,386.32 L 262.55,387.12 Z M 285.65,386.14 L 289.07,383.18 L 291.93,386.67 L 285.65,386.14 Z M 276.81,372.31 L 272.56,373.26 L 272.23,372.03 L 276.81,372.31 Z M 254.01,364.50 L 255.47,367.49 L 251.32,365.50 L 251.55,363.76 L 254.01,364.50 Z M 256.00,364.82 L 252.13,363.36 L 253.48,363.11 L 256.00,364.82 Z M 225.46,354.92 L 225.52,358.29 L 221.00,353.65 L 225.46,354.92 Z M 206.72,360.95 L 206.10,352.21 L 215.61,354.52 L 214.37,358.29 L 206.72,360.95 Z M 226.57,354.36 L 224.08,354.02 L 226.76,352.21 L 226.57,354.36 Z M 208.60,333.56 L 204.46,334.39 L 204.09,332.00 L 208.60,333.56 Z M 313.43,325.38 L 306.54,326.34 L 305.31,323.22 L 313.99,322.79 L 313.43,325.38 Z M 214.25,319.69 L 213.14,320.27 L 212.34,319.81 L 214.25,319.69 Z M 313.81,318.80 L 315.19,321.13 L 309.01,319.98 L 313.81,318.80 Z M 466.94,278.54 L 466.48,281.09 L 462.36,280.22 L 463.88,276.95 L 466.94,278.54 Z M 457.00,272.57 L 447.90,272.41 L 445.44,268.66 L 457.00,272.57 Z M 180.27,325.43 L 182.80,325.31 L 182.78,325.91 L 180.27,325.43 Z M 207.64,336.05 L 204.90,337.72 L 204.33,335.23 L 207.64,336.05 Z" fill="#4A90D9" stroke="#1a5fa8" stroke-width="1.2"/>
<path d="M 588.45,263.89 L 580.95,261.11 L 563.84,259.64 L 556.59,254.49 L 552.44,255.36 L 542.14,253.64 L 533.21,245.29 L 551.71,247.00 L 565.47,256.16 L 578.52,256.51 L 577.99,260.46 L 582.69,259.98 L 588.45,263.89 Z" fill="#A8C8E8" stroke="none"/>
<path d="M 254.06,475.41 L 239.01,475.72 L 229.90,470.14 L 242.06,473.73 L 247.39,472.05 L 235.35,467.03 L 226.98,469.06 L 220.13,464.08 L 236.34,465.68 L 252.39,474.45 L 256.99,473.83 L 254.06,475.41 Z" fill="#A8C8E8" stroke="none"/>
<path d="M 466.93,172.90 L 463.59,175.43 L 465.24,171.96 L 453.26,170.52 L 466.77,169.47 L 466.93,172.90 Z" fill="#A8C8E8" stroke="none"/>
<path d="M 488.34,133.96 L 466.98,135.52 L 459.60,129.17 L 466.02,131.55 L 468.81,130.64 L 468.86,132.43 L 477.49,130.27 L 473.84,132.43 L 488.34,133.96 Z" fill="#A8C8E8" stroke="none"/>
<path d="M 256.96,221.40 L 249.04,218.06 L 248.10,213.27 L 254.91,210.20 L 251.81,207.68 L 258.86,209.76 L 252.43,212.37 L 253.69,216.39 L 261.15,217.32 L 256.96,221.40 Z" fill="#A8C8E8" stroke="none"/>
<path d="M 242.61,158.01 L 247.46,161.80 L 246.60,162.43 L 239.82,159.20 L 242.61,158.01 Z" fill="#A8C8E8" stroke="none"/>
<path d="M 344.54,149.93 L 331.39,149.10 L 341.26,144.71 L 347.10,144.51 L 340.12,146.78 L 344.54,149.93 Z" fill="#A8C8E8" stroke="none"/>
</svg>