<svg xmlns="http://www.w3.org/2000/svg" width="800" height="500" viewBox="0 0 800 500">
<rect width="800" height="500" fill="#A8C8E8"/>
<path d="M 385.69,478.41 L 387.46,476.52 L 390.84,476.67 L 396.32,482.30 L 398.58,488.95 L 405.20,489.96 L 412.78,495.76 L 413.81,500.00 L 345.90,500.00 L 342.74,492.01 L 345.06,490.61 L 344.06,488.12 L 342.35,488.38 L 339.15,484.16 L 327.25,477.09 L 322.90,476.89 L 321.13,474.14 L 319.99,464.55 L 315.93,462.92 L 305.21,447.33 L 296.91,445.30 L 291.12,438.07 L 278.13,427.18 L 270.60,413.36 L 270.88,407.45 L 275.38,405.73 L 279.07,406.32 L 284.75,408.73 L 288.87,413.30 L 295.41,414.95 L 307.06,413.77 L 312.26,416.45 L 318.42,414.43 L 326.29,421.87 L 328.09,429.10 L 333.82,431.66 L 333.63,436.17 L 331.83,438.35 L 333.56,436.89 L 334.44,438.94 L 342.06,442.43 L 344.52,446.42 L 364.13,457.92 L 368.83,462.81 L 368.30,468.13 L 369.42,470.11 L 368.72,467.99 L 370.38,467.48 L 371.84,471.63 L 371.74,468.82 L 373.58,467.92 L 378.18,477.05 L 385.96,481.98 L 388.72,486.50 L 385.69,478.41 Z M 452.09,499.95 L 452.31,500.00 L 452.03,500.00 L 452.09,499.95 Z M 463.51,500.00 L 461.14,500.00 L 463.28,499.16 L 463.51,500.00 Z M 419.89,500.00 L 415.01,500.00 L 414.68,495.51 L 420.08,498.80 L 419.89,500.00 Z M 420.19,498.20 L 417.14,495.19 L 412.32,493.89 L 410.51,490.93 L 419.86,493.04 L 420.19,498.20 Z M 340.47,490.58 L 337.03,489.96 L 337.66,488.95 L 340.47,490.58 Z M 309.71,482.48 L 309.02,480.98 L 310.07,480.43 L 309.71,482.48 Z M 405.74,483.91 L 404.50,487.49 L 399.89,488.37 L 397.97,484.73 L 398.40,481.88 L 403.15,480.11 L 405.74,483.91 Z M 300.86,480.67 L 299.86,481.33 L 299.66,480.30 L 300.86,480.67 Z M 314.22,482.15 L 309.72,478.33 L 313.39,477.98 L 314.22,482.15 Z M 497.44,467.36 L 496.73,465.54 L 497.20,465.58 L 497.44,467.36 Z M 293.94,475.32 L 288.41,470.59 L 282.75,469.01 L 280.88,465.27 L 282.54,464.96 L 282.77,462.94 L 285.25,463.70 L 284.65,464.96 L 289.65,467.34 L 289.17,469.01 L 290.30,468.46 L 296.91,474.06 L 293.94,475.32 Z M 529.77,462.00 L 528.41,462.07 L 528.99,461.19 L 529.77,462.00 Z M 488.69,463.74 L 486.65,465.03 L 486.16,460.46 L 488.69,463.74 Z M 498.41,459.88 L 498.29,459.88 L 496.82,456.97 L 498.41,459.88 Z M 498.66,454.17 L 498.29,456.86 L 497.29,456.28 L 498.66,454.17 Z M 535.59,447.04 L 536.28,446.31 L 536.28,447.41 L 535.59,447.04 Z M 534.93,443.67 L 533.34,440.38 L 536.28,437.45 L 536.28,444.11 L 534.93,443.67 Z M 533.52,426.05 L 532.36,426.05 L 532.43,425.68 L 533.76,424.34 L 533.52,426.05 Z M 269.72,406.99 L 268.75,406.42 L 269.42,405.53 L 269.72,406.99 Z M 269.12,404.73 L 269.25,404.95 L 269.02,405.42 L 267.75,405.69 L 266.81,403.83 L 269.12,404.73 Z M 273.46,403.10 L 270.89,400.50 L 272.34,401.45 L 273.53,400.63 L 273.46,403.10 Z M 312.69,498.28 L 308.91,495.15 L 316.17,492.96 L 322.88,500.00 L 313.46,500.00 L 312.69,498.28 Z" fill="#E8E0D0" stroke="#B8B0A0" stroke-width="0.5"/>
<path d="M 533.47,70.48 L 535.31,71.80 L 533.05,72.94 L 529.78,68.38 L 520.26,69.40 L 518.70,66.89 L 513.16,64.95 L 513.29,62.48 L 505.97,61.61 L 506.17,56.24 L 503.38,51.71 L 504.41,48.39 L 506.53,48.73 L 508.78,44.13 L 502.58,41.43 L 497.80,42.92 L 495.27,40.38 L 489.55,41.87 L 483.34,38.60 L 478.42,32.14 L 476.13,34.50 L 469.33,36.41 L 467.85,38.05 L 468.38,41.46 L 465.85,43.69 L 462.83,43.31 L 458.44,46.47 L 456.32,45.30 L 456.41,43.56 L 453.24,44.25 L 450.62,50.25 L 444.20,44.10 L 441.25,48.69 L 437.27,44.33 L 431.50,51.88 L 419.97,44.74 L 414.83,52.29 L 410.25,51.51 L 407.64,52.96 L 403.97,50.85 L 400.40,55.77 L 406.32,68.84 L 404.93,70.00 L 404.50,75.27 L 406.73,77.10 L 405.34,79.02 L 400.44,76.93 L 394.83,77.98 L 391.51,65.87 L 382.03,72.15 L 376.28,70.86 L 372.59,72.84 L 371.02,70.42 L 372.19,68.23 L 368.23,66.83 L 368.07,59.99 L 351.67,57.71 L 356.06,50.50 L 355.03,45.23 L 357.20,41.32 L 359.76,41.41 L 358.84,38.65 L 355.56,37.12 L 353.16,38.65 L 345.81,36.07 L 346.44,31.28 L 344.20,28.62 L 345.75,26.99 L 344.45,23.86 L 341.79,23.05 L 341.69,19.58 L 345.95,15.69 L 340.18,17.17 L 330.31,16.62 L 320.44,22.00 L 318.22,19.97 L 322.40,15.65 L 320.91,9.64 L 318.15,9.51 L 318.55,3.51 L 323.33,1.16 L 323.01,0.00 L 536.28,0.00 L 536.28,69.21 L 533.47,70.48 Z" fill="#E8E0D0" stroke="#B8B0A0" stroke-width="0.5"/>
<path d="M 524.57,210.99 L 522.26,208.07 L 525.21,207.38 L 526.75,202.94 L 516.16,192.29 L 516.93,190.48 L 520.82,189.22 L 522.05,186.06 L 519.25,186.16 L 515.33,181.87 L 512.21,181.03 L 509.95,176.33 L 507.81,178.62 L 506.33,178.14 L 503.66,173.61 L 503.33,166.64 L 501.01,166.51 L 498.40,160.41 L 496.36,160.99 L 486.86,152.21 L 481.59,141.51 L 479.51,142.14 L 475.42,138.85 L 473.65,135.74 L 475.49,132.35 L 474.32,130.59 L 466.05,128.53 L 454.49,120.37 L 448.34,117.90 L 453.30,114.03 L 451.47,109.87 L 456.16,109.34 L 464.08,111.42 L 468.00,107.55 L 467.50,105.08 L 470.96,103.23 L 470.11,99.44 L 464.96,98.65 L 465.45,95.94 L 458.85,93.86 L 464.09,89.50 L 453.35,82.86 L 447.04,85.29 L 444.80,89.29 L 439.95,85.93 L 433.27,84.82 L 426.82,76.67 L 430.37,69.91 L 429.83,66.49 L 427.76,67.18 L 426.93,64.41 L 425.81,67.68 L 423.72,68.17 L 422.50,63.03 L 412.79,52.56 L 414.83,52.29 L 419.45,44.81 L 431.50,51.88 L 437.27,44.33 L 441.25,48.69 L 444.20,44.10 L 450.62,50.25 L 453.24,44.25 L 456.41,43.56 L 456.32,45.30 L 458.44,46.47 L 462.83,43.31 L 465.85,43.69 L 468.38,41.46 L 467.85,38.05 L 469.33,36.41 L 476.13,34.50 L 478.42,32.14 L 483.34,38.60 L 489.55,41.87 L 495.27,40.38 L 497.80,42.92 L 502.58,41.43 L 508.78,44.13 L 506.53,48.73 L 504.41,48.39 L 503.38,51.71 L 506.17,56.24 L 505.97,61.61 L 513.29,62.48 L 513.16,64.95 L 518.70,66.89 L 520.26,69.40 L 529.09,68.21 L 533.47,71.80 L 532.21,72.71 L 531.80,70.94 L 528.86,71.07 L 529.26,72.37 L 525.24,75.84 L 521.64,75.11 L 520.51,77.00 L 520.79,81.46 L 517.15,83.36 L 514.46,82.91 L 516.17,81.19 L 513.63,81.33 L 513.12,83.08 L 510.10,82.21 L 511.93,83.94 L 510.39,84.52 L 508.43,82.94 L 508.95,81.52 L 505.75,81.62 L 508.07,83.34 L 506.94,84.52 L 509.11,88.84 L 504.61,89.15 L 505.39,90.59 L 503.21,91.73 L 504.47,91.59 L 503.21,93.91 L 504.76,93.68 L 504.73,97.33 L 504.50,97.56 L 503.59,96.62 L 502.79,96.63 L 504.26,98.24 L 500.38,98.67 L 496.17,103.30 L 494.75,103.88 L 494.75,102.43 L 491.64,104.71 L 488.25,111.50 L 488.62,118.32 L 484.61,124.53 L 487.43,131.34 L 487.71,129.31 L 494.47,139.87 L 498.12,141.02 L 499.68,144.07 L 501.49,142.72 L 503.34,146.39 L 501.51,147.81 L 502.79,151.43 L 500.25,150.27 L 498.41,150.13 L 502.92,152.01 L 508.25,159.34 L 515.40,164.55 L 517.29,168.12 L 516.02,169.21 L 517.55,168.36 L 526.16,175.12 L 522.21,173.84 L 526.73,175.87 L 530.39,179.50 L 529.79,180.90 L 534.53,180.20 L 534.76,182.53 L 536.28,182.73 L 536.28,294.72 L 535.84,294.70 L 533.62,299.32 L 530.03,299.47 L 518.69,306.09 L 516.72,304.00 L 512.93,303.93 L 513.77,302.98 L 513.76,301.26 L 513.59,300.23 L 512.78,299.32 L 513.65,302.59 L 512.93,300.89 L 512.35,304.23 L 511.93,301.40 L 510.67,300.31 L 507.91,299.86 L 507.62,303.05 L 504.51,304.52 L 507.78,304.20 L 508.80,308.06 L 501.23,307.38 L 508.94,310.75 L 505.89,314.61 L 502.19,312.83 L 499.95,309.41 L 498.55,308.55 L 502.04,313.32 L 506.86,316.25 L 506.29,317.38 L 504.61,317.80 L 495.53,309.25 L 494.88,309.13 L 504.37,319.57 L 503.73,322.82 L 500.46,323.60 L 488.83,313.90 L 496.60,323.75 L 496.53,327.37 L 483.07,332.43 L 474.09,342.88 L 466.42,343.61 L 471.25,341.08 L 468.99,341.23 L 470.39,339.19 L 467.37,339.00 L 469.05,319.60 L 469.80,317.21 L 473.13,315.47 L 474.33,317.08 L 474.20,315.07 L 467.32,309.29 L 464.05,311.02 L 462.24,305.22 L 461.10,306.09 L 460.73,305.22 L 463.10,302.93 L 469.01,302.86 L 473.37,299.01 L 472.24,295.43 L 473.60,294.10 L 478.54,296.38 L 480.44,293.76 L 487.47,292.65 L 490.06,296.60 L 491.14,295.16 L 496.20,297.89 L 495.85,291.85 L 489.36,286.86 L 488.54,279.79 L 491.20,279.42 L 492.87,276.72 L 501.30,279.01 L 500.65,272.52 L 506.97,272.50 L 517.46,265.43 L 521.65,266.52 L 523.67,264.63 L 524.71,259.09 L 522.56,250.33 L 525.52,240.27 L 519.68,227.17 L 524.57,210.99 Z M 498.40,323.70 L 496.59,323.10 L 495.14,320.98 L 494.47,319.11 L 498.40,323.70 Z M 508.01,309.09 L 507.43,309.29 L 503.07,307.83 L 508.01,309.09 Z M 517.44,305.09 L 514.89,307.25 L 514.73,305.82 L 517.44,305.09 Z M 512.64,305.52 L 510.80,306.24 L 511.61,303.08 L 512.64,305.52 Z M 510.10,302.20 L 510.46,301.25 L 510.10,300.76 L 511.65,301.47 L 511.23,302.84 L 510.10,302.20 Z M 506.03,341.51 L 504.44,342.43 L 504.29,341.37 L 506.03,341.51 Z M 503.56,317.67 L 501.23,315.36 L 501.65,315.49 L 503.56,317.67 Z M 452.14,312.04 L 452.51,313.90 L 448.29,306.24 L 451.55,304.56 L 453.14,306.24 L 452.14,312.04 Z M 509.82,305.52 L 508.39,304.28 L 508.00,300.03 L 509.97,301.12 L 509.82,303.64 L 509.82,305.52 Z M 514.05,88.28 L 511.31,85.48 L 512.23,84.64 L 514.75,86.25 L 514.05,88.28 Z M 510.67,85.81 L 510.50,86.48 L 508.39,85.03 L 508.69,83.50 L 510.67,85.81 Z M 524.47,82.63 L 524.30,83.75 L 522.63,85.96 L 524.47,82.63 Z M 529.39,82.34 L 528.27,83.36 L 528.69,82.41 L 529.39,82.34 Z M 523.62,83.65 L 521.22,84.21 L 524.05,81.19 L 523.62,83.65 Z M 525.01,82.40 L 524.60,82.34 L 525.31,80.16 L 525.01,82.40 Z M 522.77,80.02 L 520.76,80.79 L 522.46,76.23 L 525.03,77.57 L 522.77,80.02 Z M 529.89,74.69 L 527.72,75.56 L 529.21,74.53 L 529.89,74.69 Z M 533.62,73.53 L 530.39,74.69 L 530.95,73.82 L 533.62,73.53 Z M 520.92,86.31 L 520.11,85.36 L 520.44,85.64 L 520.92,86.31 Z M 520.66,85.03 L 519.94,84.51 L 520.07,84.36 L 520.66,85.03 Z M 530.70,81.34 L 529.91,82.29 L 529.88,81.92 L 530.70,81.34 Z" fill="#E8E0D0" stroke="#B8B0A0" stroke-width="0.5"/>
<path d="M 448.14,498.29 L 444.06,497.11 L 445.46,494.85 L 450.65,495.66 L 448.14,498.29 Z" fill="#E8E0D0" stroke="#B8B0A0" stroke-width="0.5"/>
<path d="M 323.33,1.16 L 318.55,3.51 L 318.15,9.51 L 320.91,9.64 L 322.40,15.65 L 318.22,19.97 L 320.44,22.00 L 330.31,16.62 L 340.18,17.17 L 345.95,15.69 L 341.69,19.58 L 341.79,23.05 L 344.45,23.86 L 345.75,26.99 L 344.20,28.62 L 346.44,31.28 L 345.81,36.07 L 353.16,38.65 L 355.56,37.12 L 358.84,38.65 L 359.76,41.41 L 357.20,41.32 L 355.03,45.23 L 356.06,50.50 L 351.67,57.71 L 368.07,59.99 L 368.23,66.83 L 372.19,68.23 L 371.10,70.89 L 373.10,73.02 L 376.28,70.86 L 382.03,72.15 L 391.51,65.87 L 393.38,69.14 L 389.87,73.48 L 384.16,75.47 L 379.90,84.02 L 382.66,84.65 L 376.75,85.67 L 373.60,88.43 L 371.29,96.43 L 367.96,93.75 L 362.10,96.66 L 357.35,95.21 L 359.19,99.89 L 354.78,101.82 L 350.21,101.00 L 348.72,106.91 L 346.64,108.44 L 344.76,107.22 L 339.10,109.97 L 333.04,110.21 L 328.66,107.29 L 328.33,110.75 L 325.04,112.26 L 323.37,115.84 L 324.27,121.86 L 321.12,125.80 L 322.93,133.28 L 318.08,134.96 L 314.83,133.70 L 317.60,139.16 L 320.71,138.86 L 323.10,145.98 L 321.50,148.90 L 323.21,151.83 L 338.62,168.68 L 337.54,172.25 L 341.79,181.46 L 345.41,177.54 L 346.70,179.46 L 344.74,185.18 L 339.40,186.51 L 339.66,201.11 L 336.45,201.01 L 336.07,203.20 L 333.97,202.49 L 331.45,206.36 L 333.16,212.71 L 339.41,221.73 L 347.38,227.90 L 350.55,232.44 L 352.61,245.95 L 350.80,247.18 L 350.62,249.98 L 353.32,256.75 L 356.99,259.74 L 358.00,269.15 L 359.84,268.92 L 359.36,271.34 L 361.65,275.77 L 359.85,279.47 L 357.95,280.03 L 353.08,290.69 L 343.91,299.54 L 343.51,306.68 L 339.32,314.33 L 337.59,298.98 L 339.02,299.45 L 341.12,296.12 L 340.11,295.47 L 342.80,294.57 L 341.68,290.19 L 343.76,287.30 L 342.50,284.79 L 344.08,283.41 L 343.27,279.43 L 346.48,278.34 L 344.25,277.05 L 345.12,275.56 L 344.78,275.02 L 342.01,278.52 L 340.56,276.03 L 342.67,274.44 L 339.44,274.44 L 341.80,273.56 L 342.98,271.93 L 341.09,269.10 L 342.61,266.87 L 339.23,266.78 L 342.67,264.55 L 340.59,262.84 L 342.74,261.08 L 340.96,260.11 L 342.39,256.58 L 340.85,255.72 L 340.04,246.85 L 333.19,235.73 L 332.10,228.33 L 332.00,239.32 L 331.12,239.46 L 329.42,229.48 L 330.42,226.16 L 325.80,215.27 L 328.72,216.04 L 327.13,212.85 L 325.08,214.43 L 323.94,211.13 L 324.51,204.19 L 322.53,201.44 L 323.94,200.00 L 322.55,190.82 L 319.30,186.19 L 320.70,177.44 L 322.82,175.71 L 315.22,177.31 L 311.37,168.07 L 310.84,164.58 L 312.97,164.15 L 310.85,163.69 L 310.29,164.74 L 305.20,156.77 L 303.94,158.09 L 305.77,159.73 L 304.51,161.92 L 305.77,165.89 L 301.02,175.38 L 296.02,177.43 L 292.52,174.92 L 291.70,171.45 L 292.96,170.36 L 290.57,171.24 L 293.66,178.75 L 289.50,180.72 L 287.19,179.34 L 288.44,180.97 L 282.90,184.45 L 281.40,182.81 L 280.17,188.58 L 275.05,193.35 L 272.42,192.99 L 273.99,187.84 L 273.94,184.38 L 270.88,192.01 L 269.09,191.36 L 268.51,186.98 L 271.15,184.98 L 269.30,184.38 L 267.96,185.93 L 267.20,191.61 L 263.72,191.90 L 263.72,191.50 L 264.38,190.73 L 263.72,189.62 L 263.72,187.95 L 264.95,186.70 L 263.72,184.86 L 263.72,184.77 L 264.45,183.63 L 265.67,183.27 L 266.35,182.22 L 263.72,183.99 L 263.72,0.00 L 323.01,0.00 L 323.33,1.16 Z M 263.82,186.65 L 263.72,186.77 L 263.72,185.82 L 263.82,186.65 Z M 328.53,318.40 L 328.47,317.73 L 329.10,317.70 L 328.53,318.40 Z M 332.71,303.56 L 332.12,303.89 L 332.05,303.19 L 332.71,303.56 Z M 337.05,293.11 L 337.43,292.94 L 337.20,293.70 L 337.05,293.11 Z M 317.04,276.39 L 316.74,276.10 L 317.46,276.57 L 317.04,276.39 Z M 324.77,255.16 L 325.13,254.87 L 325.44,255.54 L 324.77,255.16 Z M 334.08,313.90 L 330.90,317.33 L 330.77,314.91 L 334.08,313.90 Z M 331.83,310.00 L 333.10,310.43 L 331.97,313.18 L 331.83,310.00 Z M 326.99,304.71 L 326.31,305.59 L 325.88,305.21 L 326.34,303.64 L 326.99,304.71 Z M 339.52,296.50 L 338.99,297.47 L 338.40,297.33 L 338.30,295.27 L 339.52,296.50 Z M 326.35,294.57 L 327.17,294.68 L 325.76,296.26 L 326.35,294.57 Z M 333.31,299.45 L 332.24,295.47 L 329.75,295.34 L 331.69,293.43 L 333.66,296.41 L 333.31,299.45 Z M 337.96,293.53 L 338.94,291.15 L 339.28,293.95 L 337.96,293.53 Z M 333.24,288.45 L 332.68,287.30 L 333.94,287.16 L 333.24,288.45 Z M 333.98,282.23 L 331.78,283.50 L 331.55,282.98 L 333.87,276.11 L 333.98,282.23 Z M 339.59,276.97 L 339.16,281.81 L 337.04,281.02 L 335.77,276.33 L 339.59,276.97 Z M 330.00,279.64 L 328.40,278.11 L 328.74,277.85 L 328.30,276.90 L 328.44,274.73 L 330.00,279.64 Z M 321.55,274.25 L 321.41,275.31 L 320.82,274.67 L 321.55,274.25 Z M 333.43,273.94 L 333.61,273.81 L 334.10,274.36 L 333.43,273.94 Z M 333.21,273.46 L 333.00,272.55 L 333.52,272.49 L 333.21,273.46 Z M 341.70,272.97 L 341.68,273.28 L 337.98,274.18 L 337.18,269.52 L 341.70,272.97 Z M 330.86,267.70 L 330.98,268.96 L 328.96,267.51 L 329.65,265.78 L 330.86,267.70 Z M 328.16,266.21 L 327.04,265.34 L 329.72,262.87 L 328.16,266.21 Z M 338.72,262.95 L 338.34,263.32 L 337.90,262.92 L 338.72,261.43 L 338.72,262.95 Z M 334.11,260.78 L 333.51,261.44 L 332.89,260.98 L 334.11,260.78 Z M 325.07,259.34 L 325.07,260.55 L 324.65,260.13 L 325.07,259.34 Z M 337.52,262.23 L 334.36,264.75 L 334.64,257.38 L 336.90,260.71 L 337.74,259.57 L 337.52,262.23 Z M 335.07,249.23 L 334.36,252.62 L 333.24,246.25 L 335.07,249.23 Z M 326.88,232.82 L 326.46,234.26 L 326.48,232.79 L 326.88,232.82 Z M 321.42,197.35 L 321.26,197.97 L 320.98,196.11 L 321.42,197.35 Z M 319.35,182.81 L 318.86,183.29 L 317.04,181.15 L 317.05,177.44 L 320.06,177.31 L 319.35,182.81 Z" fill="#C8D8E8" stroke="#8BAABB" stroke-width="0.8"/>
<path d="M 519.68,227.17 L 525.52,240.27 L 522.56,250.33 L 524.71,259.09 L 523.83,264.15 L 521.65,266.52 L 517.46,265.43 L 506.97,272.50 L 500.65,272.52 L 501.30,279.01 L 492.87,276.72 L 491.20,279.42 L 488.54,279.79 L 489.36,286.86 L 495.85,291.85 L 496.20,297.89 L 491.14,295.16 L 490.06,296.60 L 487.47,292.65 L 480.44,293.76 L 478.54,296.38 L 473.60,294.10 L 472.24,295.43 L 472.87,299.50 L 469.01,302.86 L 463.10,302.93 L 461.10,305.30 L 456.59,302.04 L 450.33,301.66 L 448.71,299.32 L 447.77,302.59 L 443.72,303.50 L 441.22,301.05 L 442.56,298.75 L 445.06,298.44 L 445.75,295.19 L 444.77,291.63 L 441.86,289.54 L 440.53,289.77 L 439.17,295.42 L 433.51,295.48 L 432.09,288.32 L 434.03,286.27 L 432.23,283.54 L 434.49,283.99 L 431.67,280.22 L 431.53,281.53 L 429.97,281.23 L 431.79,279.80 L 430.26,279.51 L 430.62,278.15 L 432.27,278.04 L 432.65,277.62 L 430.54,277.91 L 428.71,275.46 L 430.26,277.91 L 429.97,280.95 L 424.74,268.96 L 426.01,262.68 L 420.35,257.94 L 420.43,250.87 L 417.10,244.99 L 416.79,239.38 L 422.64,238.02 L 421.50,236.66 L 424.71,234.72 L 429.55,225.46 L 443.99,220.35 L 449.09,222.52 L 455.09,221.17 L 462.61,222.09 L 467.31,220.42 L 471.46,221.67 L 472.97,225.18 L 475.79,222.40 L 478.94,227.38 L 482.96,226.23 L 487.29,227.86 L 490.49,231.33 L 493.97,231.46 L 495.62,228.57 L 492.02,221.98 L 496.11,221.90 L 497.28,219.35 L 501.17,219.86 L 503.08,217.24 L 509.13,223.10 L 511.74,222.94 L 519.01,217.07 L 521.63,218.23 L 523.80,214.83 L 519.68,227.17 Z M 447.46,303.85 L 447.23,304.50 L 446.18,303.93 L 447.46,303.85 Z M 436.60,299.88 L 434.98,297.99 L 435.94,297.66 L 436.60,299.88 Z M 431.79,287.21 L 431.06,287.60 L 430.68,283.99 L 431.79,287.21 Z M 431.95,283.11 L 431.53,283.99 L 430.82,282.14 L 431.95,283.11 Z M 437.55,302.57 L 436.84,301.15 L 437.47,301.05 L 437.55,302.57 Z" fill="#C8D8E8" stroke="#8BAABB" stroke-width="0.8"/>
<path d="M 422.50,63.03 L 423.72,68.17 L 425.81,67.68 L 426.93,64.41 L 427.76,67.18 L 429.83,66.49 L 430.37,69.91 L 426.82,76.67 L 433.58,85.10 L 439.95,85.93 L 444.80,89.29 L 447.04,85.29 L 453.35,82.86 L 464.09,89.50 L 458.85,93.86 L 465.45,95.94 L 464.96,98.65 L 470.11,99.44 L 470.96,103.23 L 467.50,105.08 L 468.00,107.55 L 464.08,111.42 L 456.16,109.34 L 451.47,109.87 L 453.30,114.03 L 448.34,117.90 L 454.49,120.37 L 466.05,128.53 L 474.32,130.59 L 475.49,132.35 L 473.65,135.74 L 475.42,138.85 L 479.51,142.14 L 481.59,141.51 L 486.86,152.21 L 496.36,160.99 L 498.40,160.41 L 501.01,166.51 L 503.33,166.64 L 503.66,173.61 L 506.33,178.14 L 507.81,178.62 L 509.95,176.33 L 512.21,181.03 L 515.33,181.87 L 519.25,186.16 L 522.05,186.06 L 520.82,189.22 L 516.93,190.48 L 516.16,192.29 L 526.75,202.94 L 525.21,207.38 L 522.26,208.07 L 524.57,210.99 L 521.63,218.23 L 519.01,217.07 L 515.17,221.10 L 513.66,220.52 L 509.73,223.22 L 503.08,217.24 L 500.64,220.07 L 497.28,219.35 L 496.11,221.90 L 491.92,222.21 L 495.62,228.57 L 493.97,231.46 L 490.49,231.33 L 487.29,227.86 L 482.96,226.23 L 479.48,227.50 L 477.28,225.85 L 475.79,222.40 L 480.55,220.67 L 482.43,217.80 L 482.05,213.11 L 484.19,208.80 L 481.12,205.78 L 483.59,202.85 L 481.81,201.16 L 484.42,199.34 L 485.17,194.22 L 480.47,191.73 L 479.41,189.21 L 480.68,187.30 L 473.20,184.95 L 472.32,181.67 L 467.18,176.72 L 466.67,166.36 L 468.23,158.55 L 460.74,152.37 L 450.95,138.35 L 448.86,139.35 L 437.21,136.34 L 435.71,137.82 L 436.97,139.25 L 434.36,140.05 L 431.68,145.52 L 427.88,145.91 L 424.39,149.33 L 422.59,148.68 L 422.68,146.27 L 411.97,140.81 L 408.39,144.54 L 406.05,143.77 L 404.79,147.18 L 397.78,151.03 L 392.52,156.68 L 387.46,154.31 L 389.82,147.75 L 393.20,144.20 L 393.00,138.51 L 390.43,136.30 L 394.63,131.43 L 394.43,126.87 L 396.51,123.80 L 393.35,116.29 L 395.04,112.69 L 387.33,111.29 L 384.73,114.05 L 379.00,113.16 L 377.05,108.50 L 380.48,99.59 L 376.33,94.91 L 374.19,95.27 L 372.39,98.09 L 371.31,95.50 L 374.90,87.06 L 382.66,84.65 L 379.90,84.02 L 384.16,75.47 L 386.75,75.40 L 393.07,70.39 L 395.14,78.26 L 400.44,76.93 L 405.56,78.87 L 406.73,77.10 L 404.51,74.91 L 406.32,68.84 L 400.40,55.77 L 404.46,50.58 L 407.12,52.86 L 410.25,51.51 L 422.50,63.03 Z" fill="#C8D8E8" stroke="#8BAABB" stroke-width="0.8"/>
<path d="M 417.30,394.71 L 421.06,401.15 L 431.47,409.30 L 440.11,423.62 L 441.10,434.17 L 437.86,445.73 L 440.81,450.93 L 439.97,463.37 L 444.02,468.64 L 446.63,469.13 L 450.40,475.65 L 456.70,490.46 L 457.15,496.16 L 453.64,496.00 L 452.67,493.67 L 454.49,492.41 L 452.55,493.23 L 450.75,490.24 L 451.65,494.45 L 445.24,494.40 L 442.16,495.85 L 441.51,498.21 L 438.45,492.55 L 424.73,485.78 L 421.55,481.60 L 413.52,477.85 L 410.12,474.49 L 407.58,474.49 L 405.72,470.44 L 395.69,464.89 L 397.47,461.67 L 395.92,455.93 L 390.64,448.60 L 385.95,445.13 L 386.63,443.77 L 383.83,443.10 L 383.77,440.98 L 387.16,440.23 L 382.25,437.35 L 380.87,433.90 L 382.52,428.82 L 381.47,427.74 L 382.94,426.50 L 381.67,426.59 L 381.94,423.90 L 376.75,417.76 L 378.16,415.08 L 376.98,402.43 L 376.43,398.18 L 372.08,390.42 L 372.68,383.78 L 374.88,383.76 L 377.22,387.43 L 382.21,389.06 L 384.25,388.04 L 386.37,393.45 L 391.48,393.24 L 391.42,399.75 L 389.09,402.82 L 392.31,406.25 L 394.92,402.94 L 401.27,400.31 L 403.49,403.39 L 406.25,403.93 L 411.59,396.44 L 411.86,393.01 L 417.30,394.71 Z M 455.78,467.73 L 454.14,467.09 L 454.96,464.02 L 455.78,467.73 Z M 375.19,414.00 L 373.04,413.87 L 372.94,409.87 L 375.62,410.03 L 375.19,414.00 Z M 365.15,392.69 L 365.90,392.24 L 365.26,394.82 L 365.15,392.69 Z M 363.68,392.93 L 361.96,389.25 L 366.01,388.54 L 367.21,390.76 L 363.68,392.93 Z M 395.14,461.09 L 394.67,460.98 L 395.21,460.53 L 395.14,461.09 Z M 396.69,461.53 L 395.31,462.46 L 396.09,460.37 L 396.69,461.53 Z" fill="#C8D8E8" stroke="#8BAABB" stroke-width="0.8"/>
<path d="M 422.80,267.22 L 422.32,270.84 L 416.43,267.88 L 415.76,265.78 L 417.26,265.40 L 417.59,264.14 L 416.35,265.17 L 416.60,262.87 L 414.58,262.69 L 415.04,265.06 L 411.68,259.84 L 410.54,259.98 L 411.52,262.00 L 405.55,256.99 L 398.40,259.32 L 391.61,257.53 L 389.28,259.27 L 386.88,258.12 L 388.44,250.73 L 387.30,248.72 L 389.72,240.32 L 383.23,240.05 L 381.54,237.88 L 381.09,239.83 L 374.91,239.89 L 368.49,244.25 L 371.40,249.58 L 368.44,257.79 L 369.67,267.82 L 361.89,281.94 L 360.75,288.86 L 358.90,290.17 L 359.22,295.80 L 357.81,295.71 L 353.65,303.06 L 354.56,306.38 L 351.82,306.53 L 353.94,309.12 L 351.82,311.89 L 351.68,318.54 L 355.35,326.90 L 353.54,328.07 L 353.95,330.26 L 358.46,330.92 L 359.72,329.22 L 365.21,328.36 L 366.91,330.24 L 368.58,343.48 L 372.22,348.05 L 371.95,345.40 L 373.79,346.79 L 378.30,367.29 L 381.06,372.94 L 378.00,371.71 L 377.60,366.22 L 374.86,366.15 L 375.84,362.42 L 373.58,360.88 L 372.23,362.17 L 372.94,366.15 L 377.98,373.74 L 380.68,374.30 L 381.28,372.62 L 384.98,377.71 L 389.75,380.37 L 397.02,379.97 L 395.80,378.31 L 401.26,380.69 L 405.66,387.88 L 411.86,393.01 L 411.59,396.44 L 406.25,403.93 L 403.49,403.39 L 401.27,400.31 L 394.92,402.94 L 392.31,406.25 L 389.09,402.82 L 391.42,399.75 L 391.48,393.24 L 386.37,393.45 L 384.25,388.04 L 382.21,389.06 L 377.22,387.43 L 374.67,383.68 L 372.68,383.78 L 371.87,389.11 L 362.80,379.94 L 364.08,374.69 L 360.17,373.18 L 361.11,369.42 L 360.00,370.98 L 359.15,369.23 L 358.38,371.44 L 356.48,370.58 L 354.72,364.26 L 351.39,361.17 L 350.58,362.76 L 349.39,362.10 L 350.13,357.84 L 347.02,355.17 L 343.98,355.76 L 342.60,349.96 L 340.98,350.33 L 341.62,348.25 L 336.96,349.57 L 336.89,353.13 L 334.05,351.62 L 332.25,344.98 L 333.36,344.98 L 333.53,338.31 L 336.20,334.42 L 334.99,334.61 L 336.01,333.65 L 334.78,330.75 L 337.55,323.59 L 339.07,323.22 L 337.68,322.41 L 340.14,317.38 L 338.69,317.51 L 341.12,315.07 L 342.96,309.26 L 343.71,300.02 L 353.08,290.69 L 357.95,280.03 L 359.85,279.47 L 361.65,275.77 L 359.36,271.34 L 359.84,268.92 L 358.00,269.15 L 356.99,259.74 L 353.32,256.75 L 350.62,249.98 L 350.80,247.18 L 352.61,245.95 L 350.55,232.44 L 347.38,227.90 L 339.41,221.73 L 333.16,212.71 L 331.45,206.36 L 333.97,202.49 L 336.07,203.20 L 336.45,201.01 L 339.66,201.11 L 339.40,186.51 L 344.74,185.18 L 346.70,179.46 L 345.41,177.54 L 341.79,181.46 L 337.54,172.25 L 338.62,168.68 L 323.21,151.83 L 321.50,148.90 L 323.10,145.98 L 320.71,138.86 L 317.60,139.16 L 314.83,133.70 L 318.08,134.96 L 322.93,133.28 L 321.12,125.80 L 324.27,121.86 L 323.37,115.84 L 325.04,112.26 L 328.33,110.75 L 328.66,107.29 L 333.04,110.21 L 339.10,109.97 L 344.76,107.22 L 346.64,108.44 L 348.72,106.91 L 350.21,101.00 L 354.78,101.82 L 359.19,99.89 L 357.35,95.21 L 362.10,96.66 L 367.96,93.75 L 372.39,98.09 L 374.19,95.27 L 376.33,94.91 L 380.53,99.80 L 377.05,108.50 L 379.00,113.16 L 384.73,114.05 L 387.33,111.29 L 395.04,112.69 L 393.35,116.29 L 396.51,123.80 L 394.43,126.87 L 394.63,131.43 L 390.43,136.30 L 393.00,138.51 L 393.20,144.20 L 389.82,147.75 L 387.79,154.56 L 392.52,156.68 L 397.78,151.03 L 404.79,147.18 L 406.05,143.77 L 408.39,144.54 L 411.97,140.81 L 422.68,146.27 L 422.59,148.68 L 424.39,149.33 L 427.88,145.91 L 431.68,145.52 L 434.36,140.05 L 436.97,139.25 L 435.92,137.31 L 439.06,136.01 L 448.53,139.28 L 451.45,138.61 L 460.74,152.37 L 467.74,157.48 L 466.96,176.35 L 472.32,181.67 L 473.20,184.95 L 480.68,187.30 L 479.41,189.21 L 480.47,191.73 L 485.17,194.22 L 484.42,199.34 L 481.81,201.16 L 483.59,202.85 L 481.12,205.78 L 484.19,208.80 L 482.05,213.11 L 482.43,217.80 L 480.55,220.67 L 472.97,225.18 L 471.46,221.67 L 467.31,220.42 L 462.61,222.09 L 455.09,221.17 L 449.09,222.52 L 443.99,220.35 L 433.74,222.95 L 429.23,225.78 L 424.71,234.72 L 421.50,236.66 L 422.64,238.02 L 417.18,238.88 L 417.10,244.99 L 420.43,250.87 L 420.20,257.60 L 426.01,262.68 L 424.58,268.12 L 429.13,279.35 L 422.80,267.22 Z M 324.87,326.64 L 324.94,326.20 L 325.45,326.30 L 324.87,326.64 Z M 363.16,324.17 L 362.43,324.21 L 363.06,323.73 L 363.16,324.17 Z M 362.69,322.25 L 362.64,322.29 L 362.58,321.99 L 362.69,322.25 Z M 353.17,387.12 L 351.96,386.75 L 352.94,386.32 L 353.17,387.12 Z M 361.04,386.14 L 362.21,383.18 L 363.18,386.67 L 361.04,386.14 Z M 358.03,372.31 L 356.58,373.26 L 356.47,372.03 L 358.03,372.31 Z M 350.26,364.50 L 350.76,367.49 L 349.35,365.50 L 349.42,363.76 L 350.26,364.50 Z M 350.94,364.82 L 349.62,363.36 L 350.08,363.11 L 350.94,364.82 Z M 340.53,354.92 L 340.56,358.29 L 339.02,353.65 L 340.53,354.92 Z M 334.15,360.95 L 333.94,352.21 L 337.18,354.52 L 336.76,358.29 L 334.15,360.95 Z M 340.91,354.36 L 340.07,354.02 L 340.98,352.21 L 340.91,354.36 Z M 334.79,333.56 L 333.38,334.39 L 333.26,332.00 L 334.79,333.56 Z M 370.51,325.38 L 368.16,326.34 L 367.74,323.22 L 370.70,322.79 L 370.51,325.38 Z M 336.72,319.69 L 336.34,320.27 L 336.07,319.81 L 336.72,319.69 Z M 370.64,318.80 L 371.11,321.13 L 369.00,319.98 L 370.64,318.80 Z M 422.81,278.54 L 422.65,281.09 L 421.25,280.22 L 421.76,276.95 L 422.81,278.54 Z M 419.42,272.57 L 416.32,272.41 L 415.48,268.66 L 419.42,272.57 Z M 325.14,325.43 L 326.00,325.31 L 325.99,325.91 L 325.14,325.43 Z M 334.46,336.05 L 333.53,337.72 L 333.34,335.23 L 334.46,336.05 Z" fill="#4A90D9" stroke="#1a5fa8" stroke-width="1.2"/>
<path d="M 464.20,263.89 L 461.65,261.11 L 455.82,259.64 L 453.35,254.49 L 451.93,255.36 L 448.43,253.64 L 445.38,245.29 L 451.69,247.00 L 456.37,256.16 L 460.82,256.51 L 460.64,260.46 L 462.24,259.98 L 464.20,263.89 Z" fill="#A8C8E8" stroke="none"/>
<path d="M 350.28,475.41 L 345.15,475.72 L 342.05,470.14 L 346.19,473.73 L 348.01,472.05 L 343.90,467.03 L 341.06,469.06 L 338.72,464.08 L 344.24,465.68 L 349.71,474.45 L 351.28,473.83 L 350.28,475.41 Z" fill="#A8C8E8" stroke="none"/>
<path d="M 422.80,172.90 L 421.66,175.43 L 422.23,171.96 L 418.14,170.52 L 422.75,169.47 L 422.80,172.90 Z" fill="#A8C8E8" stroke="none"/>
<path d="M 430.10,133.96 L 422.82,135.52 L 420.30,129.17 L 422.49,131.55 L 423.44,130.64 L 423.46,132.43 L 426.40,130.27 L 425.16,132.43 L 430.10,133.96 Z" fill="#A8C8E8" stroke="none"/>
<path d="M 351.27,221.40 L 348.57,218.06 L 348.25,213.27 L 350.57,210.20 L 349.51,207.68 L 351.91,209.76 L 349.72,212.37 L 350.15,216.39 L 352.69,217.32 L 351.27,221.40 Z" fill="#A8C8E8" stroke="none"/>
<path d="M 346.38,158.01 L 348.03,161.80 L 347.74,162.43 L 345.43,159.20 L 346.38,158.01 Z" fill="#A8C8E8" stroke="none"/>
<path d="M 381.11,149.93 L 376.62,149.10 L 379.99,144.71 L 381.98,144.51 L 379.60,146.78 L 381.11,149.93 Z" fill="#A8C8E8" stroke="none"/>
</svg>