<svg xmlns="http://www.w3.org/2000/svg" width="800" height="500" viewBox="0 0 800 500">
<rect width="800" height="500" fill="#A8C8E8"/>
<path d="M 374.12,2.16 L 380.21,6.32 L 366.55,9.98 L 358.61,22.20 L 342.46,19.69 L 313.96,44.82 L 295.54,48.02 L 280.77,56.89 L 281.32,61.93 L 257.89,69.19 L 257.57,81.07 L 228.12,102.30 L 230.89,124.19 L 221.13,125.95 L 191.01,109.67 L 199.99,93.95 L 193.79,93.01 L 187.58,81.67 L 110.51,84.72 L 95.87,24.64 L 64.17,23.98 L 66.17,0.00 L 375.41,0.00 L 374.12,2.16 Z" fill="#E8E0D0" stroke="#B8B0A0" stroke-width="0.5"/>
<path d="M 704.41,439.09 L 697.18,447.49 L 698.51,453.38 L 709.24,457.23 L 714.11,469.59 L 739.03,463.00 L 740.01,473.54 L 753.23,481.11 L 761.75,500.00 L 421.25,500.00 L 423.38,496.68 L 413.26,470.42 L 394.17,452.37 L 419.28,432.08 L 422.61,422.72 L 433.63,427.14 L 433.03,421.13 L 458.52,408.65 L 458.39,404.50 L 483.70,396.64 L 552.48,391.17 L 577.77,397.00 L 617.90,379.82 L 631.33,390.42 L 645.91,384.16 L 661.98,389.80 L 667.13,403.67 L 686.13,403.65 L 702.27,423.62 L 704.41,439.09 Z" fill="#E8E0D0" stroke="#B8B0A0" stroke-width="0.5"/>
<path d="M 38.28,294.75 L 55.72,292.20 L 104.93,315.72 L 96.81,327.45 L 98.59,351.32 L 93.68,360.03 L 74.05,356.64 L 48.35,342.15 L 33.98,365.25 L 3.66,366.97 L 0.00,368.54 L 0.00,269.84 L 38.28,294.75 Z" fill="#E8E0D0" stroke="#B8B0A0" stroke-width="0.5"/>
<path d="M 753.23,481.11 L 792.03,493.63 L 800.00,493.12 L 800.00,500.00 L 761.75,500.00 L 753.23,481.11 Z" fill="#E8E0D0" stroke="#B8B0A0" stroke-width="0.5"/>
<path d="M 609.90,386.46 L 600.72,384.17 L 577.77,397.00 L 560.98,391.51 L 523.80,392.59 L 461.20,403.41 L 433.03,421.13 L 433.63,427.14 L 422.61,422.72 L 419.28,432.08 L 397.82,446.64 L 394.49,453.71 L 406.35,460.47 L 416.52,477.12 L 415.08,483.73 L 421.52,488.06 L 423.28,498.08 L 421.85,500.00 L 0.00,500.00 L 0.00,368.64 L 3.66,366.97 L 33.98,365.25 L 48.35,342.15 L 82.45,359.92 L 127.98,356.10 L 144.18,370.43 L 159.79,363.46 L 175.37,367.24 L 177.06,375.83 L 192.88,389.09 L 234.39,363.73 L 244.08,365.70 L 245.07,360.07 L 250.19,363.67 L 248.40,359.42 L 275.54,375.29 L 283.87,367.66 L 279.79,352.29 L 288.12,342.10 L 314.37,339.36 L 329.66,344.80 L 337.67,333.05 L 330.58,315.70 L 336.30,316.19 L 349.65,303.16 L 362.10,282.67 L 380.40,277.81 L 406.47,293.76 L 400.07,317.11 L 421.80,319.14 L 411.14,378.92 L 425.33,406.25 L 437.08,405.38 L 464.16,386.09 L 489.62,381.67 L 498.13,367.90 L 530.48,350.30 L 559.74,352.93 L 558.82,359.41 L 549.74,364.91 L 556.90,368.14 L 595.71,353.04 L 617.77,355.41 L 632.61,367.12 L 626.32,368.36 L 621.68,362.33 L 599.08,371.73 L 609.90,386.46 Z" fill="#C8D8E8" stroke="#8BAABB" stroke-width="0.8"/>
<path d="M 792.03,493.63 L 762.04,485.63 L 740.01,473.54 L 737.86,462.67 L 714.11,469.59 L 709.24,457.23 L 697.09,451.09 L 704.41,439.09 L 701.99,422.39 L 693.87,409.29 L 681.08,401.43 L 667.13,403.67 L 659.56,388.87 L 645.91,384.16 L 631.33,390.42 L 626.23,382.65 L 610.21,382.18 L 599.99,374.64 L 621.68,362.33 L 626.32,368.36 L 632.61,367.12 L 650.00,354.93 L 632.58,340.65 L 637.27,328.55 L 626.11,305.97 L 628.99,279.09 L 596.90,263.86 L 583.40,263.68 L 577.36,273.91 L 563.76,269.64 L 555.09,249.05 L 564.38,241.57 L 550.42,225.00 L 552.00,207.67 L 565.16,205.70 L 570.50,198.05 L 563.90,183.38 L 574.02,164.86 L 596.87,161.26 L 620.67,144.17 L 630.68,144.54 L 625.89,137.74 L 628.96,131.20 L 651.90,136.26 L 675.32,122.48 L 683.13,147.02 L 719.11,136.27 L 723.55,143.31 L 742.48,125.06 L 744.94,112.99 L 758.58,95.13 L 800.00,94.12 L 800.00,493.12 L 792.03,493.63 Z" fill="#C8D8E8" stroke="#8BAABB" stroke-width="0.8"/>
<path d="M 758.58,95.13 L 744.94,112.99 L 743.21,124.03 L 724.61,142.96 L 719.11,136.27 L 683.13,147.02 L 675.32,122.48 L 651.90,136.26 L 628.96,131.20 L 625.89,137.74 L 630.68,144.54 L 620.67,144.17 L 596.87,161.26 L 573.36,165.60 L 564.19,181.97 L 570.83,197.27 L 564.04,206.24 L 542.04,206.49 L 522.26,214.36 L 480.75,212.89 L 467.78,216.27 L 462.18,226.30 L 450.72,213.39 L 431.62,220.19 L 430.92,207.67 L 416.37,206.92 L 412.95,195.89 L 389.68,203.06 L 382.09,211.51 L 368.84,212.43 L 359.37,199.39 L 350.10,196.68 L 333.85,202.58 L 332.40,195.36 L 328.04,200.36 L 274.79,202.83 L 270.05,185.90 L 275.43,169.09 L 281.51,175.47 L 287.67,173.57 L 288.72,159.00 L 319.86,152.98 L 353.19,165.57 L 350.10,175.12 L 362.17,160.51 L 379.02,155.73 L 383.24,148.83 L 399.79,144.67 L 416.90,153.34 L 423.75,149.38 L 428.80,157.62 L 437.07,150.08 L 448.74,150.74 L 444.76,145.30 L 458.15,135.32 L 472.75,139.99 L 470.05,124.71 L 487.56,131.28 L 497.70,119.84 L 521.03,109.48 L 489.65,105.63 L 468.80,90.84 L 458.10,96.13 L 457.67,82.57 L 439.32,82.10 L 437.75,71.50 L 431.23,63.52 L 426.54,65.48 L 426.51,56.72 L 421.65,60.57 L 421.02,72.82 L 410.34,71.10 L 410.17,86.92 L 401.22,87.95 L 396.75,82.51 L 395.07,88.31 L 368.86,78.93 L 362.29,62.18 L 348.56,66.92 L 330.22,58.67 L 361.09,32.27 L 371.65,29.95 L 373.66,21.98 L 398.79,12.64 L 388.51,3.95 L 374.12,2.16 L 375.41,0.00 L 800.00,0.00 L 800.00,94.12 L 758.58,95.13 Z M 427.17,171.23 L 426.13,172.30 L 432.01,174.97 L 433.81,168.74 L 427.17,171.23 Z M 384.10,156.65 L 380.61,161.11 L 386.48,168.57 L 384.95,176.57 L 396.89,176.00 L 394.73,168.43 L 399.16,164.63 L 384.10,156.65 Z M 356.78,184.78 L 364.66,180.79 L 364.28,178.18 L 351.47,176.49 L 356.78,184.78 Z" fill="#C8D8E8" stroke="#8BAABB" stroke-width="0.8"/>
<path d="M 432.01,174.97 L 426.13,172.30 L 427.17,171.23 L 433.81,168.74 L 432.01,174.97 Z M 359.37,153.65 L 353.09,143.28 L 343.33,141.75 L 343.21,133.80 L 368.65,114.95 L 360.35,112.58 L 364.68,109.93 L 348.08,94.22 L 342.82,93.75 L 337.50,104.88 L 299.78,122.69 L 288.16,112.29 L 278.29,111.88 L 275.37,125.15 L 268.27,127.26 L 275.58,143.34 L 268.91,146.54 L 273.83,153.98 L 228.77,156.19 L 254.74,161.40 L 241.16,162.25 L 247.95,176.75 L 240.15,169.40 L 241.97,176.50 L 239.04,180.97 L 231.65,178.81 L 224.70,200.47 L 173.52,195.08 L 154.94,205.64 L 150.00,224.10 L 170.32,230.44 L 171.78,240.66 L 198.05,241.40 L 202.63,251.04 L 195.86,255.16 L 195.12,273.26 L 214.38,296.54 L 207.50,315.50 L 199.41,318.42 L 180.66,345.77 L 177.54,370.16 L 159.79,363.46 L 144.18,370.43 L 127.98,356.10 L 96.86,357.55 L 96.81,327.45 L 103.56,312.27 L 55.72,292.20 L 38.28,294.75 L 0.00,269.84 L 0.00,0.00 L 66.17,0.00 L 64.17,23.98 L 95.87,24.64 L 110.51,84.72 L 187.58,81.67 L 193.79,93.01 L 199.99,93.95 L 191.01,109.67 L 221.13,125.95 L 230.89,124.19 L 228.12,102.30 L 257.57,81.07 L 257.89,69.19 L 281.32,61.93 L 280.77,56.89 L 295.54,48.02 L 313.96,44.82 L 342.46,19.69 L 349.65,17.58 L 356.61,23.00 L 366.55,9.98 L 386.48,3.24 L 398.79,12.64 L 373.66,21.98 L 371.65,29.95 L 361.09,32.27 L 330.22,58.67 L 348.56,66.92 L 362.29,62.18 L 368.86,78.93 L 395.07,88.31 L 396.75,82.51 L 401.22,87.95 L 410.17,86.92 L 410.34,71.10 L 421.02,72.82 L 421.65,60.57 L 426.51,56.72 L 426.54,65.48 L 431.23,63.52 L 437.75,71.50 L 439.32,82.10 L 457.67,82.57 L 458.10,96.13 L 468.80,90.84 L 489.65,105.63 L 520.70,108.03 L 497.70,119.84 L 487.56,131.28 L 470.05,124.71 L 472.75,139.99 L 458.15,135.32 L 444.76,145.30 L 448.74,150.74 L 437.07,150.08 L 428.80,157.62 L 423.75,149.38 L 416.90,153.34 L 399.79,144.67 L 359.37,153.65 Z M 355.49,96.47 L 360.84,100.74 L 359.02,96.55 L 355.49,96.47 Z M 399.16,164.63 L 394.73,168.43 L 396.89,176.00 L 384.95,176.57 L 386.48,168.57 L 380.61,161.11 L 384.10,156.65 L 399.16,164.63 Z" fill="#C8D8E8" stroke="#8BAABB" stroke-width="0.8"/>
<path d="M 359.02,96.55 L 360.84,100.74 L 355.49,96.47 L 359.02,96.55 Z M 362.17,160.51 L 350.10,175.12 L 353.19,165.57 L 319.86,152.98 L 288.72,159.00 L 287.67,173.57 L 281.51,175.47 L 275.67,168.94 L 270.98,180.30 L 273.89,201.10 L 318.20,201.48 L 332.40,195.36 L 333.85,202.58 L 350.10,196.68 L 359.37,199.39 L 368.84,212.43 L 382.09,211.51 L 389.68,203.06 L 412.95,195.89 L 416.37,206.92 L 430.92,207.67 L 431.62,220.19 L 450.72,213.39 L 462.18,226.30 L 467.78,216.27 L 480.75,212.89 L 522.26,214.36 L 550.19,206.86 L 550.42,225.00 L 564.38,241.57 L 555.09,249.05 L 563.76,269.64 L 577.36,273.91 L 583.40,263.68 L 596.90,263.86 L 628.80,278.48 L 626.11,305.97 L 637.27,328.55 L 632.58,340.65 L 650.00,354.93 L 632.61,367.12 L 617.77,355.41 L 595.71,353.04 L 556.90,368.14 L 549.74,364.91 L 558.82,359.41 L 559.74,352.93 L 530.48,350.30 L 498.13,367.90 L 489.62,381.67 L 464.16,386.09 L 437.08,405.38 L 425.33,406.25 L 411.14,378.92 L 421.80,319.14 L 400.07,317.11 L 406.47,293.76 L 380.40,277.81 L 362.10,282.67 L 349.65,303.16 L 336.30,316.19 L 330.58,315.70 L 337.67,333.05 L 329.66,344.80 L 314.37,339.36 L 288.12,342.10 L 279.79,352.29 L 283.87,367.66 L 276.30,375.04 L 271.29,376.27 L 248.40,359.42 L 250.19,363.67 L 245.07,360.07 L 244.08,365.70 L 234.39,363.73 L 193.68,389.12 L 177.85,376.80 L 180.66,345.77 L 199.41,318.42 L 207.50,315.50 L 214.38,296.54 L 195.12,273.26 L 195.86,255.16 L 202.63,251.04 L 198.05,241.40 L 171.78,240.66 L 170.32,230.44 L 150.00,224.10 L 158.80,201.22 L 173.52,195.08 L 224.70,200.47 L 231.65,178.81 L 239.04,180.97 L 241.97,176.50 L 240.15,169.40 L 247.95,176.75 L 241.16,162.25 L 254.74,161.40 L 228.77,156.19 L 273.83,153.98 L 268.91,146.54 L 275.58,143.34 L 268.27,127.26 L 275.37,125.15 L 278.29,111.88 L 288.16,112.29 L 301.50,122.24 L 337.50,104.88 L 342.82,93.75 L 368.65,114.95 L 343.21,133.80 L 343.33,141.75 L 353.09,143.28 L 359.37,153.65 L 380.92,150.85 L 362.17,160.51 Z M 364.28,178.18 L 364.66,180.79 L 356.78,184.78 L 351.47,176.49 L 364.28,178.18 Z" fill="#4A90D9" stroke="#1a5fa8" stroke-width="1.2"/>
<path d="M 497.25,41.78 L 488.83,48.26 L 485.33,45.63 L 495.01,39.69 L 485.33,29.84 L 530.27,39.94 L 497.25,41.78 Z" fill="#A8C8E8" stroke="none"/>
<path d="M 209.09,94.92 L 193.75,92.99 L 185.96,78.68 L 219.63,87.06 L 209.09,94.92 Z" fill="#A8C8E8" stroke="none"/>
<path d="M 340.39,145.34 L 331.29,148.90 L 308.18,148.92 L 343.44,138.35 L 340.39,145.34 Z" fill="#A8C8E8" stroke="none"/>
<path d="M 798.26,12.53 L 763.34,12.14 L 730.71,0.00 L 800.00,0.00 L 800.00,11.57 L 798.26,12.53 Z M 720.79,1.26 L 720.10,0.00 L 726.04,0.00 L 720.79,1.26 Z" fill="#A8C8E8" stroke="none"/>
<path d="M 185.49,109.42 L 158.65,115.58 L 166.42,132.24 L 148.47,119.92 L 148.21,112.91 L 70.95,95.83 L 126.62,95.97 L 144.71,99.91 L 153.73,105.16 L 151.45,108.99 L 162.15,108.97 L 193.75,92.99 L 185.49,109.42 Z" fill="#A8C8E8" stroke="none"/>
</svg>