<svg xmlns="http://www.w3.org/2000/svg" width="800" height="500" viewBox="0 0 800 500">
<rect width="800" height="500" fill="#A8C8E8"/>
<path d="M 377.35,2.16 L 382.68,6.32 L 370.72,9.98 L 363.78,22.20 L 349.65,19.69 L 324.70,44.82 L 308.58,48.02 L 295.66,56.89 L 296.14,61.93 L 275.63,69.19 L 275.35,81.07 L 249.57,102.30 L 252.00,124.19 L 243.46,125.95 L 217.10,109.67 L 224.96,93.95 L 219.53,93.01 L 214.10,81.67 L 146.65,84.72 L 133.84,24.64 L 106.09,23.98 L 107.84,0.00 L 378.48,0.00 L 377.35,2.16 Z" fill="#E8E0D0" stroke="#B8B0A0" stroke-width="0.5"/>
<path d="M 666.40,439.09 L 660.08,447.49 L 661.25,453.38 L 670.63,457.23 L 674.89,469.59 L 696.70,463.00 L 697.56,473.54 L 709.13,481.11 L 716.59,500.00 L 418.60,500.00 L 420.46,496.68 L 411.61,470.42 L 394.89,452.37 L 416.87,432.08 L 419.79,422.72 L 429.43,427.14 L 428.90,421.13 L 451.21,408.65 L 451.10,404.50 L 473.25,396.64 L 533.44,391.17 L 555.58,397.00 L 590.70,379.82 L 602.45,390.42 L 615.21,384.16 L 629.27,389.80 L 633.78,403.67 L 650.41,403.65 L 664.54,423.62 L 666.40,439.09 Z" fill="#E8E0D0" stroke="#B8B0A0" stroke-width="0.5"/>
<path d="M 83.44,294.75 L 98.70,292.20 L 141.77,315.72 L 134.66,327.45 L 136.22,351.32 L 131.92,360.03 L 114.74,356.64 L 92.25,342.15 L 79.67,365.25 L 53.14,366.97 L 49.94,368.54 L 49.94,269.84 L 83.44,294.75 Z" fill="#E8E0D0" stroke="#B8B0A0" stroke-width="0.5"/>
<path d="M 709.13,481.11 L 743.08,493.63 L 750.06,493.12 L 750.06,500.00 L 716.59,500.00 L 709.13,481.11 Z" fill="#E8E0D0" stroke="#B8B0A0" stroke-width="0.5"/>
<path d="M 583.69,386.46 L 575.67,384.17 L 555.58,397.00 L 540.88,391.51 L 508.34,392.59 L 453.56,403.41 L 428.90,421.13 L 429.43,427.14 L 419.79,422.72 L 416.87,432.08 L 398.09,446.64 L 395.17,453.71 L 405.56,460.47 L 414.46,477.12 L 413.19,483.73 L 418.84,488.06 L 420.37,498.08 L 419.12,500.00 L 49.94,500.00 L 49.94,368.64 L 53.14,366.97 L 79.67,365.25 L 92.25,342.15 L 122.10,359.92 L 161.94,356.10 L 176.12,370.43 L 189.78,363.46 L 203.42,367.24 L 204.90,375.83 L 218.74,389.09 L 255.06,363.73 L 263.55,365.70 L 264.41,360.07 L 268.89,363.67 L 267.33,359.42 L 291.08,375.29 L 298.36,367.66 L 294.79,352.29 L 302.09,342.10 L 325.06,339.36 L 338.44,344.80 L 345.46,333.05 L 339.24,315.70 L 344.25,316.19 L 355.94,303.16 L 366.84,282.67 L 382.84,277.81 L 405.66,293.76 L 400.07,317.11 L 419.07,319.14 L 409.74,378.92 L 422.17,406.25 L 432.45,405.38 L 456.15,386.09 L 478.43,381.67 L 485.88,367.90 L 514.19,350.30 L 539.79,352.93 L 538.99,359.41 L 531.05,364.91 L 537.32,368.14 L 571.27,353.04 L 590.58,355.41 L 603.57,367.12 L 598.06,368.36 L 594.00,362.33 L 574.22,371.73 L 583.69,386.46 Z" fill="#C8D8E8" stroke="#8BAABB" stroke-width="0.8"/>
<path d="M 743.08,493.63 L 716.84,485.63 L 697.56,473.54 L 695.68,462.67 L 674.89,469.59 L 670.63,457.23 L 660.00,451.09 L 666.40,439.09 L 664.29,422.39 L 657.18,409.29 L 645.99,401.43 L 633.78,403.67 L 627.15,388.87 L 615.21,384.16 L 602.45,390.42 L 597.98,382.65 L 583.97,382.18 L 575.02,374.64 L 594.00,362.33 L 598.06,368.36 L 603.57,367.12 L 618.79,354.93 L 603.54,340.65 L 607.65,328.55 L 597.88,305.97 L 600.40,279.09 L 572.31,263.86 L 560.51,263.68 L 555.22,273.91 L 543.32,269.64 L 535.72,249.05 L 543.86,241.57 L 531.64,225.00 L 533.03,207.67 L 544.55,205.70 L 549.21,198.05 L 543.44,183.38 L 552.29,164.86 L 572.29,161.26 L 593.12,144.17 L 601.88,144.54 L 597.69,137.74 L 600.38,131.20 L 620.46,136.26 L 640.95,122.48 L 647.78,147.02 L 679.27,136.27 L 683.15,143.31 L 699.72,125.06 L 701.88,112.99 L 713.81,95.13 L 750.06,94.12 L 750.06,493.12 L 743.08,493.63 Z" fill="#C8D8E8" stroke="#8BAABB" stroke-width="0.8"/>
<path d="M 713.81,95.13 L 701.88,112.99 L 700.36,124.03 L 684.09,142.96 L 679.27,136.27 L 647.78,147.02 L 640.95,122.48 L 620.46,136.26 L 600.38,131.20 L 597.69,137.74 L 601.88,144.54 L 593.12,144.17 L 572.29,161.26 L 551.72,165.60 L 543.69,181.97 L 549.50,197.27 L 543.56,206.24 L 524.31,206.49 L 507.00,214.36 L 470.67,212.89 L 459.32,216.27 L 454.42,226.30 L 444.39,213.39 L 427.67,220.19 L 427.06,207.67 L 414.32,206.92 L 411.34,195.89 L 390.97,203.06 L 384.32,211.51 L 372.73,212.43 L 364.44,199.39 L 356.33,196.68 L 342.11,202.58 L 340.84,195.36 L 337.02,200.36 L 290.42,202.83 L 286.28,185.90 L 290.98,169.09 L 296.30,175.47 L 301.69,173.57 L 302.61,159.00 L 329.86,152.98 L 359.03,165.57 L 356.33,175.12 L 366.90,160.51 L 381.64,155.73 L 385.33,148.83 L 399.82,144.67 L 414.79,153.34 L 420.79,149.38 L 425.20,157.62 L 432.44,150.08 L 442.66,150.74 L 439.18,145.30 L 450.89,135.32 L 463.67,139.99 L 461.31,124.71 L 476.63,131.28 L 485.50,119.84 L 505.92,109.48 L 478.46,105.63 L 460.21,90.84 L 450.85,96.13 L 450.47,82.57 L 434.41,82.10 L 433.03,71.50 L 427.33,63.52 L 423.23,65.48 L 423.20,56.72 L 418.95,60.57 L 418.39,72.82 L 409.05,71.10 L 408.90,86.92 L 401.07,87.95 L 397.16,82.51 L 395.69,88.31 L 372.75,78.93 L 367.00,62.18 L 354.98,66.92 L 338.93,58.67 L 365.94,32.27 L 375.19,29.95 L 376.95,21.98 L 398.94,12.64 L 389.95,3.95 L 377.35,2.16 L 378.48,0.00 L 750.06,0.00 L 750.06,94.12 L 713.81,95.13 Z M 423.78,171.23 L 422.87,172.30 L 428.01,174.97 L 429.59,168.74 L 423.78,171.23 Z M 386.08,156.65 L 383.03,161.11 L 388.17,168.57 L 386.83,176.57 L 397.28,176.00 L 395.39,168.43 L 399.27,164.63 L 386.08,156.65 Z M 362.17,184.78 L 369.07,180.79 L 368.74,178.18 L 357.53,176.49 L 362.17,184.78 Z" fill="#C8D8E8" stroke="#8BAABB" stroke-width="0.8"/>
<path d="M 428.01,174.97 L 422.87,172.30 L 423.78,171.23 L 429.59,168.74 L 428.01,174.97 Z M 364.44,153.65 L 358.95,143.28 L 350.40,141.75 L 350.30,133.80 L 372.56,114.95 L 365.30,112.58 L 369.09,109.93 L 354.56,94.22 L 349.96,93.75 L 345.31,104.88 L 312.30,122.69 L 302.12,112.29 L 293.49,111.88 L 290.93,125.15 L 284.72,127.26 L 291.12,143.34 L 285.27,146.54 L 289.58,153.98 L 250.15,156.19 L 272.88,161.40 L 260.99,162.25 L 266.93,176.75 L 260.10,169.40 L 261.70,176.50 L 259.14,180.97 L 252.67,178.81 L 246.58,200.47 L 201.79,195.08 L 185.53,205.64 L 181.21,224.10 L 198.99,230.44 L 200.28,240.66 L 223.26,241.40 L 227.27,251.04 L 221.34,255.16 L 220.69,273.26 L 237.55,296.54 L 231.53,315.50 L 224.45,318.42 L 208.04,345.77 L 205.32,370.16 L 189.78,363.46 L 176.12,370.43 L 161.94,356.10 L 134.70,357.55 L 134.66,327.45 L 140.57,312.27 L 98.70,292.20 L 83.44,294.75 L 49.94,269.84 L 49.94,0.00 L 107.84,0.00 L 106.09,23.98 L 133.84,24.64 L 146.65,84.72 L 214.10,81.67 L 219.53,93.01 L 224.96,93.95 L 217.10,109.67 L 243.46,125.95 L 252.00,124.19 L 249.57,102.30 L 275.35,81.07 L 275.63,69.19 L 296.14,61.93 L 295.66,56.89 L 308.58,48.02 L 324.70,44.82 L 349.65,19.69 L 355.93,17.58 L 362.03,23.00 L 370.72,9.98 L 388.17,3.24 L 398.94,12.64 L 376.95,21.98 L 375.19,29.95 L 365.94,32.27 L 338.93,58.67 L 354.98,66.92 L 367.00,62.18 L 372.75,78.93 L 395.69,88.31 L 397.16,82.51 L 401.07,87.95 L 408.90,86.92 L 409.05,71.10 L 418.39,72.82 L 418.95,60.57 L 423.20,56.72 L 423.23,65.48 L 427.33,63.52 L 433.03,71.50 L 434.41,82.10 L 450.47,82.57 L 450.85,96.13 L 460.21,90.84 L 478.46,105.63 L 505.63,108.03 L 485.50,119.84 L 476.63,131.28 L 461.31,124.71 L 463.67,139.99 L 450.89,135.32 L 439.18,145.30 L 442.66,150.74 L 432.44,150.08 L 425.20,157.62 L 420.79,149.38 L 414.79,153.34 L 399.82,144.67 L 364.44,153.65 Z M 361.04,96.47 L 365.73,100.74 L 364.14,96.55 L 361.04,96.47 Z M 399.27,164.63 L 395.39,168.43 L 397.28,176.00 L 386.83,176.57 L 388.17,168.57 L 383.03,161.11 L 386.08,156.65 L 399.27,164.63 Z" fill="#C8D8E8" stroke="#8BAABB" stroke-width="0.8"/>
<path d="M 364.14,96.55 L 365.73,100.74 L 361.04,96.47 L 364.14,96.55 Z M 366.90,160.51 L 356.33,175.12 L 359.03,165.57 L 329.86,152.98 L 302.61,159.00 L 301.69,173.57 L 296.30,175.47 L 291.19,168.94 L 287.08,180.30 L 289.63,201.10 L 328.41,201.48 L 340.84,195.36 L 342.11,202.58 L 356.33,196.68 L 364.44,199.39 L 372.73,212.43 L 384.32,211.51 L 390.97,203.06 L 411.34,195.89 L 414.32,206.92 L 427.06,207.67 L 427.67,220.19 L 444.39,213.39 L 454.42,226.30 L 459.32,216.27 L 470.67,212.89 L 507.00,214.36 L 531.44,206.86 L 531.64,225.00 L 543.86,241.57 L 535.72,249.05 L 543.32,269.64 L 555.22,273.91 L 560.51,263.68 L 572.31,263.86 L 600.24,278.48 L 597.88,305.97 L 607.65,328.55 L 603.54,340.65 L 618.79,354.93 L 603.57,367.12 L 590.58,355.41 L 571.27,353.04 L 537.32,368.14 L 531.05,364.91 L 538.99,359.41 L 539.79,352.93 L 514.19,350.30 L 485.88,367.90 L 478.43,381.67 L 456.15,386.09 L 432.45,405.38 L 422.17,406.25 L 409.74,378.92 L 419.07,319.14 L 400.07,317.11 L 405.66,293.76 L 382.84,277.81 L 366.84,282.67 L 355.94,303.16 L 344.25,316.19 L 339.24,315.70 L 345.46,333.05 L 338.44,344.80 L 325.06,339.36 L 302.09,342.10 L 294.79,352.29 L 298.36,367.66 L 291.74,375.04 L 287.36,376.27 L 267.33,359.42 L 268.89,363.67 L 264.41,360.07 L 263.55,365.70 L 255.06,363.73 L 219.44,389.12 L 205.59,376.80 L 208.04,345.77 L 224.45,318.42 L 231.53,315.50 L 237.55,296.54 L 220.69,273.26 L 221.34,255.16 L 227.27,251.04 L 223.26,241.40 L 200.28,240.66 L 198.99,230.44 L 181.21,224.10 L 188.91,201.22 L 201.79,195.08 L 246.58,200.47 L 252.67,178.81 L 259.14,180.97 L 261.70,176.50 L 260.10,169.40 L 266.93,176.75 L 260.99,162.25 L 272.88,161.40 L 250.15,156.19 L 289.58,153.98 L 285.27,146.54 L 291.12,143.34 L 284.72,127.26 L 290.93,125.15 L 293.49,111.88 L 302.12,112.29 L 313.79,122.24 L 345.31,104.88 L 349.96,93.75 L 372.56,114.95 L 350.30,133.80 L 350.40,141.75 L 358.95,143.28 L 364.44,153.65 L 383.30,150.85 L 366.90,160.51 Z M 368.74,178.18 L 369.07,180.79 L 362.17,184.78 L 357.53,176.49 L 368.74,178.18 Z" fill="#4A90D9" stroke="#1a5fa8" stroke-width="1.2"/>
<path d="M 485.11,41.78 L 477.74,48.26 L 474.68,45.63 L 483.15,39.69 L 474.68,29.84 L 514.01,39.94 L 485.11,41.78 Z" fill="#A8C8E8" stroke="none"/>
<path d="M 232.92,94.92 L 219.50,92.99 L 212.68,78.68 L 242.15,87.06 L 232.92,94.92 Z" fill="#A8C8E8" stroke="none"/>
<path d="M 347.83,145.34 L 339.87,148.90 L 319.64,148.92 L 350.50,138.35 L 347.83,145.34 Z" fill="#A8C8E8" stroke="none"/>
<path d="M 748.54,12.53 L 717.98,12.14 L 689.42,0.00 L 750.06,0.00 L 750.06,11.57 L 748.54,12.53 Z M 680.74,1.26 L 680.14,0.00 L 685.33,0.00 L 680.74,1.26 Z" fill="#A8C8E8" stroke="none"/>
<path d="M 212.27,109.42 L 188.78,115.58 L 195.58,132.24 L 179.88,119.92 L 179.64,112.91 L 112.03,95.83 L 160.75,95.97 L 176.58,99.91 L 184.47,105.16 L 182.48,108.99 L 191.84,108.97 L 219.50,92.99 L 212.27,109.42 Z" fill="#A8C8E8" stroke="none"/>
</svg>