<svg xmlns="http://www.w3.org/2000/svg" width="800" height="500" viewBox="0 0 800 500">
<rect width="800" height="500" fill="#A8C8E8"/>
<path d="M 285.46,272.54 L 287.52,289.87 L 310.94,276.27 L 322.44,287.73 L 320.66,306.96 L 291.31,311.05 L 307.10,353.25 L 294.63,378.41 L 221.47,449.76 L 164.07,459.09 L 114.86,490.24 L 65.02,488.74 L 71.62,465.34 L 109.59,444.05 L 81.07,437.80 L 98.03,372.62 L 146.96,331.39 L 163.87,344.18 L 177.51,336.78 L 192.65,353.71 L 214.04,306.16 L 285.46,272.54 Z M 18.05,197.29 L -0.00,204.39 L -0.00,194.49 L 18.05,197.29 Z M 782.30,168.21 L 767.27,163.51 L 787.11,155.01 L 782.30,168.21 Z M 719.38,157.04 L 694.28,156.15 L 706.30,148.20 L 719.38,157.04 Z M 636.55,141.01 L 625.46,139.22 L 626.50,129.66 L 636.55,141.01 Z M 37.20,186.61 L -0.00,184.84 L -0.00,180.40 L 16.97,161.82 L 46.23,165.71 L 37.20,186.61 Z M 56.10,483.76 L 42.14,484.74 L 52.44,459.51 L 64.08,455.59 L 56.10,483.76 Z M 80.26,196.96 L 81.92,211.43 L 27.75,205.35 L 67.10,178.34 L 49.43,173.08 L 56.22,165.46 L 79.58,162.46 L 72.01,178.67 L 82.85,181.86 L 90.85,158.66 L 134.46,159.31 L 80.26,196.96 Z M 168.21,207.39 L 154.46,209.28 L 148.29,190.54 L 131.30,194.38 L 148.97,172.58 L 162.08,183.60 L 184.74,152.34 L 192.35,158.26 L 168.21,207.39 Z M 316.49,178.57 L 210.59,196.32 L 196.22,187.93 L 228.82,159.84 L 205.19,165.15 L 217.80,144.71 L 237.26,156.15 L 290.45,147.37 L 318.13,157.73 L 316.49,178.57 Z M 758.49,164.57 L 718.28,142.38 L 729.08,139.47 L 768.38,144.47 L 758.49,164.57 Z M 535.19,96.53 L 521.00,119.13 L 458.22,106.51 L 415.62,125.45 L 445.27,71.90 L 500.01,77.39 L 545.49,56.47 L 577.44,82.10 L 535.19,96.53 Z M 675.65,61.11 L 656.77,71.22 L 659.06,48.17 L 675.65,61.11 Z" fill="#C8D8E8" stroke="#8BAABB" stroke-width="0.8"/>
<path d="M 192.65,353.71 L 177.51,336.78 L 159.17,343.35 L 150.00,331.09 L 214.04,306.16 L 192.65,353.71 Z M 312.40,246.93 L 319.69,221.59 L 355.74,212.35 L 427.25,198.84 L 460.53,204.66 L 512.69,188.87 L 533.59,199.29 L 597.28,171.90 L 650.00,188.27 L 605.52,228.41 L 538.83,248.47 L 521.95,269.58 L 388.03,307.61 L 307.10,353.25 L 291.31,311.05 L 320.66,306.96 L 322.44,287.73 L 310.94,276.27 L 287.52,289.87 L 285.46,272.54 L 312.40,246.93 Z M 396.80,146.29 L 385.07,173.18 L 374.42,166.01 L 396.80,146.29 Z" fill="#4A90D9" stroke="#1a5fa8" stroke-width="1.2"/>
</svg>