<svg xmlns="http://www.w3.org/2000/svg" width="800" height="500" viewBox="0 0 800 500">
<rect width="800" height="500" fill="#A8C8E8"/>
<path d="M 285.46,272.85 L 287.52,290.42 L 310.94,276.63 L 322.44,288.26 L 320.66,307.75 L 291.31,311.90 L 307.10,354.69 L 294.63,380.19 L 221.47,452.53 L 164.07,461.99 L 114.86,493.58 L 65.02,492.05 L 71.62,468.33 L 109.59,446.75 L 81.07,440.40 L 98.03,374.32 L 146.96,332.52 L 163.87,345.49 L 177.51,337.98 L 192.65,355.15 L 214.04,306.94 L 285.46,272.85 Z M 18.05,196.55 L 0.00,203.76 L 0.00,193.72 L 18.05,196.55 Z M 782.30,167.08 L 767.27,162.31 L 787.11,153.69 L 782.30,167.08 Z M 719.38,155.75 L 694.28,154.85 L 706.30,146.79 L 719.38,155.75 Z M 636.55,139.50 L 625.46,137.68 L 626.50,127.99 L 636.55,139.50 Z M 37.20,185.73 L 0.00,183.94 L 0.00,179.43 L 16.97,160.59 L 46.23,164.54 L 37.20,185.73 Z M 56.10,487.01 L 42.14,488.00 L 52.44,462.41 L 64.08,458.45 L 56.10,487.01 Z M 80.26,196.22 L 81.92,210.90 L 27.75,204.73 L 67.10,177.34 L 49.43,172.01 L 56.22,164.28 L 79.58,161.24 L 72.01,177.68 L 82.85,180.91 L 90.85,157.39 L 134.46,158.05 L 80.26,196.22 Z M 168.21,206.80 L 154.46,208.71 L 148.29,189.71 L 131.30,193.60 L 148.97,171.50 L 162.08,182.68 L 184.74,150.98 L 192.35,156.98 L 168.21,206.80 Z M 316.49,177.58 L 210.59,195.58 L 196.22,187.07 L 228.82,158.59 L 205.19,163.98 L 217.80,143.25 L 237.26,154.85 L 290.45,145.95 L 318.13,156.45 L 316.49,177.58 Z M 758.49,163.38 L 718.28,140.89 L 729.08,137.94 L 768.38,143.01 L 758.49,163.38 Z M 535.19,94.40 L 521.00,117.31 L 458.22,104.52 L 415.62,123.72 L 445.27,69.42 L 500.01,74.99 L 545.49,53.78 L 577.44,79.77 L 535.19,94.40 Z M 675.65,58.49 L 656.77,68.74 L 659.06,45.37 L 675.65,58.49 Z" fill="#C8D8E8" stroke="#8BAABB" stroke-width="0.8"/>
<path d="M 192.65,355.15 L 177.51,337.98 L 159.17,344.65 L 150.00,332.22 L 214.04,306.94 L 192.65,355.15 Z M 312.40,246.88 L 319.69,221.20 L 355.74,211.83 L 427.25,198.13 L 460.53,204.03 L 512.69,188.02 L 533.59,198.59 L 597.28,170.82 L 650.00,187.41 L 605.52,228.11 L 538.83,248.45 L 521.95,269.85 L 388.03,308.41 L 307.10,354.69 L 291.31,311.90 L 320.66,307.75 L 322.44,288.26 L 310.94,276.63 L 287.52,290.42 L 285.46,272.85 L 312.40,246.88 Z M 396.80,144.85 L 385.07,172.12 L 374.42,164.84 L 396.80,144.85 Z" fill="#4A90D9" stroke="#1a5fa8" stroke-width="1.2"/>
</svg>