<svg xmlns="http://www.w3.org/2000/svg" width="800" height="500" viewBox="0 0 800 500">
<rect width="800" height="500" fill="#A8C8E8"/>
<path d="M 751.73,167.18 L 752.63,169.56 L 749.98,167.13 L 751.73,167.18 Z M 753.30,203.51 L 747.30,211.81 L 748.84,206.39 L 732.29,199.23 L 716.84,202.65 L 716.32,210.93 L 713.26,212.00 L 710.36,208.30 L 708.03,214.75 L 709.48,226.56 L 731.47,226.78 L 738.52,223.30 L 739.24,227.40 L 747.30,224.05 L 751.90,225.59 L 756.61,233.00 L 760.99,232.65 L 760.99,270.54 L 753.26,272.89 L 747.08,284.53 L 740.45,291.93 L 737.61,291.66 L 741.14,301.51 L 737.16,308.19 L 729.57,305.09 L 716.54,306.65 L 712.40,312.43 L 714.43,321.17 L 710.67,325.36 L 708.19,326.06 L 696.83,316.49 L 697.71,318.90 L 695.17,316.86 L 694.68,320.05 L 689.87,318.93 L 669.67,333.36 L 661.81,326.36 L 663.20,308.74 L 672.51,293.20 L 676.53,291.54 L 679.94,280.77 L 670.38,267.55 L 670.75,257.27 L 674.11,254.93 L 671.83,249.45 L 658.80,249.03 L 658.07,243.23 L 647.99,239.63 L 652.36,226.63 L 659.66,223.15 L 685.06,226.21 L 688.51,213.90 L 692.18,215.13 L 693.63,212.59 L 692.73,208.56 L 696.60,212.73 L 693.23,204.50 L 699.97,204.01 L 687.08,201.05 L 709.45,199.80 L 707.00,195.58 L 710.32,193.76 L 706.69,184.62 L 710.21,183.42 L 711.66,175.89 L 716.56,176.12 L 723.18,181.77 L 741.05,171.91 L 743.69,165.59 L 756.51,177.63 L 743.89,188.34 L 743.94,192.85 L 748.79,193.72 L 751.90,199.61 L 760.99,198.26 L 760.99,198.97 L 753.30,203.51 Z M 754.34,213.54 L 754.53,215.03 L 750.62,217.30 L 747.99,212.58 L 754.34,213.54 Z" fill="#E8E0D0" stroke="#B8B0A0" stroke-width="0.5"/>
<path d="M 45.73,128.63 L 51.83,132.39 L 45.20,143.22 L 39.01,146.21 L 39.01,116.37 L 45.73,128.63 Z" fill="#E8E0D0" stroke="#B8B0A0" stroke-width="0.5"/>
<path d="M 45.93,142.45 L 51.83,132.39 L 66.55,149.99 L 71.41,164.57 L 82.32,175.57 L 82.32,181.05 L 104.51,187.49 L 109.38,198.16 L 104.27,193.76 L 93.58,192.69 L 80.85,201.47 L 78.66,219.63 L 74.25,227.28 L 78.13,236.78 L 73.88,234.86 L 71.66,247.21 L 67.72,250.11 L 69.89,245.20 L 64.17,241.10 L 62.72,251.24 L 59.86,253.87 L 61.21,271.72 L 52.75,273.28 L 46.63,264.21 L 43.30,264.94 L 39.01,260.59 L 39.01,249.58 L 42.77,248.42 L 39.01,241.59 L 39.01,236.28 L 44.21,233.13 L 39.01,227.21 L 39.01,146.06 L 45.93,142.45 Z M 115.15,195.10 L 114.92,193.96 L 116.24,193.96 L 115.15,195.10 Z M 108.20,191.43 L 107.33,188.08 L 108.41,188.38 L 108.20,191.43 Z" fill="#E8E0D0" stroke="#B8B0A0" stroke-width="0.5"/>
<path d="M 756.61,233.00 L 751.90,225.59 L 747.30,224.05 L 739.24,227.40 L 738.52,223.30 L 736.35,226.14 L 709.93,227.55 L 707.57,217.93 L 710.24,208.38 L 713.26,212.00 L 716.32,210.93 L 716.84,202.65 L 732.29,199.23 L 748.84,206.39 L 747.30,211.81 L 753.30,203.51 L 760.99,201.01 L 760.99,232.65 L 756.61,233.00 Z M 750.62,217.30 L 754.53,215.03 L 754.34,213.54 L 747.99,212.58 L 750.62,217.30 Z M 756.61,157.17 L 753.36,147.66 L 746.54,150.35 L 737.44,145.67 L 752.76,130.67 L 758.00,129.35 L 759.00,124.83 L 760.99,123.98 L 760.99,158.96 L 756.61,157.17 Z M 759.23,113.57 L 760.99,110.20 L 760.99,113.82 L 759.23,113.57 Z" fill="#E8E0D0" stroke="#B8B0A0" stroke-width="0.5"/>
<path d="M 715.55,499.54 L 715.88,492.53 L 731.98,488.49 L 741.50,480.66 L 737.07,473.00 L 735.90,464.42 L 730.80,462.94 L 727.29,455.83 L 728.10,452.14 L 748.72,455.35 L 760.99,451.97 L 760.99,500.00 L 715.12,500.00 L 715.55,499.54 Z" fill="#E8E0D0" stroke="#B8B0A0" stroke-width="0.5"/>
<path d="M 748.72,455.35 L 728.10,452.14 L 727.29,455.83 L 730.80,462.94 L 735.90,464.42 L 737.07,473.00 L 741.50,480.66 L 731.98,488.49 L 715.88,492.53 L 715.55,499.54 L 715.12,500.00 L 434.67,500.00 L 432.43,491.31 L 432.58,487.51 L 443.80,472.69 L 430.81,467.61 L 430.20,447.16 L 435.00,440.32 L 442.84,439.82 L 436.78,431.75 L 444.65,426.78 L 448.39,419.56 L 450.99,407.82 L 449.57,401.51 L 452.26,399.73 L 454.88,386.73 L 465.52,394.41 L 478.31,394.07 L 485.49,400.00 L 487.16,406.25 L 491.79,400.53 L 500.10,401.85 L 512.38,394.14 L 512.27,386.48 L 516.64,383.43 L 513.14,377.01 L 523.50,376.42 L 538.09,369.94 L 543.02,371.20 L 543.41,366.85 L 556.76,360.05 L 566.32,332.81 L 566.32,325.48 L 575.35,320.77 L 590.40,319.80 L 597.53,306.68 L 614.46,316.77 L 637.06,314.60 L 645.10,322.74 L 652.85,318.78 L 660.58,320.93 L 661.42,325.81 L 669.27,333.34 L 689.87,318.93 L 694.68,320.05 L 695.17,316.86 L 697.71,318.90 L 696.83,316.49 L 710.30,325.50 L 714.43,321.17 L 712.40,312.43 L 716.54,306.65 L 729.57,305.09 L 737.16,308.19 L 741.14,301.51 L 737.61,291.66 L 740.45,291.93 L 747.08,284.53 L 753.26,272.89 L 760.99,270.54 L 760.99,451.97 L 748.72,455.35 Z" fill="#C8D8E8" stroke="#8BAABB" stroke-width="0.8"/>
<path d="M 44.21,233.13 L 39.01,236.28 L 39.01,227.21 L 44.21,233.13 Z M 42.77,248.42 L 39.01,249.58 L 39.01,241.59 L 42.77,248.42 Z M 43.30,264.94 L 46.63,264.21 L 52.75,273.28 L 61.21,271.72 L 63.44,293.40 L 69.41,304.84 L 79.23,310.09 L 103.18,314.40 L 107.20,324.04 L 128.87,339.79 L 157.59,347.35 L 224.21,332.24 L 211.59,335.33 L 224.45,337.61 L 224.64,329.17 L 221.26,316.30 L 230.56,317.04 L 244.77,312.37 L 249.04,308.87 L 250.25,300.27 L 259.90,291.40 L 278.27,284.61 L 297.04,286.18 L 297.15,282.13 L 301.38,279.04 L 320.50,281.80 L 324.83,278.12 L 330.47,290.78 L 356.01,298.11 L 357.60,302.58 L 362.40,304.43 L 376.48,301.93 L 392.71,308.64 L 397.46,321.82 L 415.16,329.25 L 425.43,345.12 L 451.58,345.16 L 450.97,356.56 L 453.45,366.10 L 450.44,372.35 L 453.97,375.48 L 455.52,389.61 L 452.26,399.73 L 449.75,400.64 L 450.99,407.82 L 448.39,419.56 L 444.65,426.78 L 436.78,431.75 L 442.84,439.82 L 435.00,440.32 L 430.20,447.16 L 430.81,467.61 L 443.80,472.69 L 432.58,487.51 L 432.43,491.31 L 434.67,500.00 L 39.01,500.00 L 39.01,260.59 L 43.30,264.94 Z" fill="#C8D8E8" stroke="#8BAABB" stroke-width="0.8"/>
<path d="M 759.23,113.57 L 760.99,114.95 L 760.99,116.32 L 755.47,118.01 L 751.53,124.95 L 743.51,123.53 L 729.36,137.80 L 720.22,139.62 L 712.89,144.65 L 713.17,147.52 L 701.54,151.64 L 701.38,158.39 L 686.76,170.45 L 688.14,182.88 L 683.29,183.88 L 668.34,174.63 L 672.80,165.70 L 669.72,165.17 L 666.64,158.73 L 628.39,160.46 L 621.12,126.33 L 605.38,125.96 L 608.33,85.62 L 598.61,90.24 L 589.77,73.08 L 570.90,55.85 L 555.14,62.88 L 516.44,59.59 L 478.90,65.59 L 451.45,37.51 L 447.47,28.74 L 400.25,0.00 L 760.99,0.00 L 760.99,110.20 L 759.23,113.57 Z M 286.76,3.73 L 286.83,153.77 L 270.06,155.52 L 254.19,134.42 L 252.81,128.84 L 227.89,112.28 L 205.33,115.52 L 191.56,120.90 L 174.38,136.33 L 176.07,130.07 L 173.25,122.29 L 181.96,104.07 L 178.39,95.75 L 183.04,102.16 L 183.87,97.42 L 175.44,92.32 L 169.15,93.44 L 165.85,89.84 L 157.70,91.66 L 149.40,77.40 L 137.48,78.91 L 138.72,66.33 L 124.30,43.34 L 123.87,36.64 L 105.78,30.63 L 104.10,21.19 L 106.85,17.32 L 124.68,18.69 L 133.27,24.57 L 140.35,21.49 L 146.52,23.49 L 127.53,9.10 L 127.43,4.39 L 134.96,0.85 L 137.39,2.52 L 136.98,0.00 L 300.06,0.00 L 286.76,3.73 Z M 105.76,0.61 L 108.03,0.06 L 107.27,4.62 L 105.76,0.61 Z M 99.48,10.33 L 96.52,5.70 L 98.61,0.85 L 100.57,0.26 L 97.63,5.81 L 102.37,10.47 L 99.48,10.33 Z M 119.12,9.33 L 116.91,4.87 L 119.63,5.41 L 119.12,9.33 Z" fill="#C8D8E8" stroke="#8BAABB" stroke-width="0.8"/>
<path d="M 751.90,199.61 L 748.79,193.72 L 743.94,192.85 L 743.89,188.34 L 756.51,177.63 L 752.39,176.29 L 754.54,174.78 L 746.30,165.86 L 743.69,165.59 L 741.05,171.91 L 722.33,182.03 L 716.56,176.12 L 711.66,175.89 L 710.21,183.42 L 706.69,184.62 L 710.32,193.76 L 707.00,195.58 L 709.45,199.80 L 687.08,201.05 L 699.97,204.01 L 693.23,204.50 L 696.60,212.73 L 692.73,208.56 L 693.63,212.59 L 692.18,215.13 L 688.51,213.90 L 685.06,226.21 L 659.66,223.15 L 650.44,229.14 L 647.99,239.63 L 658.07,243.23 L 658.80,249.03 L 671.83,249.45 L 674.11,254.93 L 670.75,257.27 L 670.38,267.55 L 679.94,280.77 L 676.53,291.54 L 672.51,293.20 L 663.20,308.74 L 661.66,322.59 L 652.85,318.78 L 645.10,322.74 L 637.06,314.60 L 621.61,315.43 L 621.59,298.33 L 624.94,289.71 L 601.19,278.31 L 592.54,279.76 L 552.30,249.79 L 546.37,250.67 L 532.36,240.81 L 525.00,232.15 L 492.45,207.38 L 489.29,190.18 L 482.33,184.16 L 474.20,161.81 L 460.07,154.65 L 455.25,160.49 L 441.88,156.58 L 429.74,158.25 L 417.55,151.00 L 416.83,145.90 L 419.79,143.02 L 416.12,136.14 L 422.58,135.05 L 411.58,127.43 L 414.47,125.63 L 415.45,117.92 L 410.31,113.64 L 391.00,111.87 L 387.43,104.55 L 379.44,103.69 L 369.71,93.75 L 368.01,99.33 L 359.24,97.90 L 354.89,100.57 L 360.76,104.47 L 366.62,113.91 L 363.66,114.31 L 361.36,108.43 L 351.54,105.66 L 348.13,108.49 L 346.29,118.25 L 331.42,119.38 L 318.59,130.35 L 319.90,147.88 L 324.40,151.88 L 320.21,156.19 L 286.83,153.77 L 286.75,3.76 L 300.13,0.00 L 400.25,0.00 L 447.47,28.74 L 451.45,37.51 L 478.90,65.59 L 516.44,59.59 L 555.14,62.88 L 570.90,55.85 L 589.77,73.08 L 598.61,90.24 L 608.33,85.62 L 605.38,125.96 L 621.12,126.33 L 628.39,160.46 L 666.64,158.73 L 669.72,165.17 L 672.80,165.70 L 668.34,174.63 L 683.29,183.88 L 688.14,182.88 L 686.76,170.45 L 701.38,158.39 L 701.54,151.64 L 713.17,147.52 L 712.89,144.65 L 720.22,139.62 L 729.36,137.80 L 743.51,123.53 L 747.08,122.33 L 750.54,125.40 L 755.47,118.01 L 760.99,115.87 L 760.99,123.98 L 759.00,124.83 L 758.00,129.35 L 752.76,130.67 L 737.44,145.67 L 746.54,150.35 L 753.36,147.66 L 756.61,157.17 L 760.99,158.96 L 760.99,197.30 L 751.90,199.61 Z M 749.98,167.13 L 752.63,169.56 L 751.73,167.18 L 749.98,167.13 Z" fill="#C8D8E8" stroke="#8BAABB" stroke-width="0.8"/>
<path d="M 453.97,375.48 L 450.44,372.35 L 453.45,366.10 L 450.97,356.56 L 451.58,345.16 L 425.43,345.12 L 415.16,329.25 L 397.46,321.82 L 392.71,308.64 L 376.48,301.93 L 362.40,304.43 L 357.60,302.58 L 356.01,298.11 L 330.47,290.78 L 325.18,278.16 L 320.50,281.80 L 301.38,279.04 L 294.32,286.64 L 269.97,286.04 L 251.21,299.21 L 249.04,308.87 L 244.77,312.37 L 230.56,317.04 L 221.26,316.30 L 218.44,299.88 L 218.50,267.99 L 223.45,252.04 L 214.52,245.40 L 215.25,238.74 L 213.20,240.42 L 213.96,245.20 L 211.57,238.98 L 210.27,240.71 L 210.09,234.18 L 197.00,234.55 L 197.37,241.27 L 194.95,232.25 L 201.00,221.45 L 199.13,227.16 L 210.28,229.50 L 210.46,227.07 L 215.52,227.04 L 209.18,220.81 L 205.48,222.06 L 204.37,217.19 L 210.48,209.07 L 205.01,207.48 L 201.22,210.21 L 189.50,206.88 L 192.50,217.31 L 183.93,205.57 L 183.87,187.97 L 187.89,180.88 L 189.59,163.44 L 196.11,172.13 L 194.30,173.29 L 196.02,176.32 L 203.99,173.65 L 207.58,177.66 L 212.08,171.53 L 215.14,182.20 L 229.43,177.96 L 236.82,180.24 L 231.94,171.38 L 235.45,170.30 L 239.08,174.68 L 244.32,173.50 L 248.14,168.34 L 245.53,164.02 L 248.37,165.41 L 226.35,146.98 L 220.78,129.93 L 221.04,123.50 L 218.24,120.99 L 197.44,121.83 L 190.98,126.71 L 184.91,139.32 L 189.59,139.37 L 186.32,151.42 L 188.50,164.85 L 184.65,151.49 L 178.34,145.70 L 179.30,140.54 L 174.38,136.33 L 191.56,120.90 L 205.33,115.52 L 227.89,112.28 L 252.81,128.84 L 254.19,134.42 L 270.95,156.02 L 284.66,153.57 L 319.60,156.53 L 324.40,151.88 L 319.90,147.88 L 318.59,130.35 L 331.42,119.38 L 346.29,118.25 L 348.13,108.49 L 351.54,105.66 L 361.36,108.43 L 363.66,114.31 L 366.62,113.91 L 360.76,104.47 L 354.89,100.57 L 359.24,97.90 L 368.01,99.33 L 369.71,93.75 L 379.44,103.69 L 387.43,104.55 L 391.00,111.87 L 410.31,113.64 L 415.45,117.92 L 414.47,125.63 L 411.58,127.43 L 422.58,135.05 L 416.12,136.14 L 419.79,143.02 L 416.83,145.90 L 417.55,151.00 L 429.74,158.25 L 441.88,156.58 L 455.25,160.49 L 460.07,154.65 L 474.20,161.81 L 482.33,184.16 L 489.29,190.18 L 492.45,207.38 L 525.00,232.15 L 532.36,240.81 L 546.37,250.67 L 552.30,249.79 L 592.54,279.76 L 601.19,278.31 L 625.62,291.66 L 621.59,298.33 L 622.47,311.89 L 620.03,316.83 L 610.29,314.91 L 597.53,306.68 L 590.40,319.80 L 575.35,320.77 L 567.25,324.77 L 560.39,345.78 L 560.47,353.82 L 556.76,360.05 L 543.41,366.85 L 543.02,371.20 L 538.09,369.94 L 523.50,376.42 L 513.14,377.01 L 516.64,383.43 L 512.27,386.48 L 512.38,394.14 L 500.10,401.85 L 491.79,400.53 L 487.16,406.25 L 485.49,400.00 L 478.31,394.07 L 465.52,394.41 L 454.88,386.73 L 453.97,375.48 Z M 194.99,244.88 L 195.48,258.61 L 193.52,252.42 L 194.99,244.88 Z M 208.53,224.46 L 209.21,227.05 L 207.86,227.83 L 208.53,224.46 Z" fill="#4A90D9" stroke="#1a5fa8" stroke-width="1.2"/>
<path d="M 677.31,166.25 L 669.70,165.16 L 665.83,157.03 L 682.55,161.79 L 677.31,166.25 Z" fill="#A8C8E8" stroke="none"/>
<path d="M 742.48,194.89 L 737.97,196.91 L 726.50,196.92 L 744.00,190.92 L 742.48,194.89 Z" fill="#A8C8E8" stroke="none"/>
<path d="M 346.40,139.03 L 330.47,144.84 L 323.63,134.38 L 321.65,139.65 L 320.34,136.71 L 325.54,116.24 L 330.86,111.96 L 338.78,116.27 L 338.26,123.22 L 342.36,125.71 L 340.88,130.02 L 346.76,133.13 L 346.40,139.03 Z" fill="#A8C8E8" stroke="none"/>
<path d="M 665.60,174.49 L 652.28,177.99 L 656.14,187.45 L 647.23,180.45 L 647.10,176.47 L 608.75,166.77 L 636.39,166.85 L 645.36,169.09 L 649.84,172.07 L 648.71,174.25 L 654.02,174.24 L 669.70,165.16 L 665.60,174.49 Z" fill="#A8C8E8" stroke="none"/>
<path d="M 362.51,0.00 L 371.17,0.00 L 368.40,3.22 L 370.87,10.96 L 366.38,23.77 L 362.61,27.03 L 358.50,25.55 L 361.24,19.74 L 358.06,9.79 L 362.51,0.00 Z" fill="#A8C8E8" stroke="none"/>
</svg>