<svg xmlns="http://www.w3.org/2000/svg" width="800" height="500" viewBox="0 0 800 500">
<rect width="800" height="500" fill="#A8C8E8"/>
<path d="M 789.74,167.18 L 790.74,169.56 L 787.80,167.13 L 789.74,167.18 Z M 791.47,203.51 L 784.83,211.81 L 786.53,206.39 L 768.20,199.23 L 751.08,202.65 L 750.50,210.93 L 747.11,212.00 L 743.90,208.30 L 741.32,214.75 L 742.92,226.56 L 767.29,226.78 L 775.10,223.30 L 775.90,227.40 L 784.83,224.05 L 789.93,225.59 L 795.14,233.00 L 800.00,232.65 L 800.00,270.54 L 791.44,272.89 L 784.59,284.53 L 777.24,291.93 L 774.10,291.66 L 778.00,301.51 L 773.59,308.19 L 765.18,305.09 L 750.75,306.65 L 746.16,312.43 L 748.41,321.17 L 744.25,325.36 L 741.49,326.06 L 728.90,316.49 L 729.89,318.90 L 727.07,316.86 L 726.53,320.05 L 721.19,318.93 L 698.81,333.36 L 690.10,326.36 L 691.65,308.74 L 701.96,293.20 L 706.41,291.54 L 710.19,280.77 L 699.60,267.55 L 700.00,257.27 L 703.73,254.93 L 701.21,249.45 L 686.77,249.03 L 685.96,243.23 L 674.79,239.63 L 679.63,226.63 L 687.72,223.15 L 715.87,226.21 L 719.69,213.90 L 723.76,215.13 L 725.36,212.59 L 724.36,208.56 L 728.65,212.73 L 724.92,204.50 L 732.39,204.01 L 718.11,201.05 L 742.89,199.80 L 740.18,195.58 L 743.85,193.76 L 739.83,184.62 L 743.73,183.42 L 745.34,175.89 L 750.77,176.12 L 758.10,181.77 L 777.91,171.91 L 780.83,165.59 L 795.04,177.63 L 781.05,188.34 L 781.11,192.85 L 786.48,193.72 L 789.93,199.61 L 800.00,198.26 L 800.00,198.97 L 791.47,203.51 Z M 792.63,213.54 L 792.84,215.03 L 788.51,217.30 L 785.59,212.58 L 792.63,213.54 Z" fill="#E8E0D0" stroke="#B8B0A0" stroke-width="0.5"/>
<path d="M 7.44,128.63 L 14.21,132.39 L 6.86,143.22 L 0.00,146.21 L 0.00,116.37 L 7.44,128.63 Z" fill="#E8E0D0" stroke="#B8B0A0" stroke-width="0.5"/>
<path d="M 7.66,142.45 L 14.21,132.39 L 30.52,149.99 L 35.90,164.57 L 47.99,175.57 L 47.99,181.05 L 72.58,187.49 L 77.98,198.16 L 72.31,193.76 L 60.46,192.69 L 46.36,201.47 L 43.93,219.63 L 39.05,227.28 L 43.35,236.78 L 38.64,234.86 L 36.18,247.21 L 31.81,250.11 L 34.22,245.20 L 27.88,241.10 L 26.27,251.24 L 23.11,253.87 L 24.60,271.72 L 15.22,273.28 L 8.45,264.21 L 4.75,264.94 L 0.00,260.59 L 0.00,249.58 L 4.17,248.42 L 0.00,241.59 L 0.00,236.28 L 5.76,233.13 L 0.00,227.21 L 0.00,146.06 L 7.66,142.45 Z M 84.37,195.10 L 84.11,193.96 L 85.57,193.96 L 84.37,195.10 Z M 76.66,191.43 L 75.70,188.08 L 76.90,188.38 L 76.66,191.43 Z" fill="#E8E0D0" stroke="#B8B0A0" stroke-width="0.5"/>
<path d="M 795.14,233.00 L 789.93,225.59 L 784.83,224.05 L 775.90,227.40 L 775.10,223.30 L 772.70,226.14 L 743.42,227.55 L 740.81,217.93 L 743.77,208.38 L 747.11,212.00 L 750.50,210.93 L 751.08,202.65 L 768.20,199.23 L 786.53,206.39 L 784.83,211.81 L 791.47,203.51 L 800.00,201.01 L 800.00,232.65 L 795.14,233.00 Z M 788.51,217.30 L 792.84,215.03 L 792.63,213.54 L 785.59,212.58 L 788.51,217.30 Z M 795.15,157.17 L 791.54,147.66 L 783.99,150.35 L 773.90,145.67 L 790.88,130.67 L 796.68,129.35 L 797.79,124.83 L 800.00,123.98 L 800.00,158.96 L 795.15,157.17 Z M 798.04,113.57 L 800.00,110.20 L 800.00,113.82 L 798.04,113.57 Z" fill="#E8E0D0" stroke="#B8B0A0" stroke-width="0.5"/>
<path d="M 749.64,499.54 L 750.01,492.53 L 767.85,488.49 L 778.40,480.66 L 773.49,473.00 L 772.20,464.42 L 766.54,462.94 L 762.66,455.83 L 763.56,452.14 L 786.41,455.35 L 800.00,451.97 L 800.00,500.00 L 749.17,500.00 L 749.64,499.54 Z" fill="#E8E0D0" stroke="#B8B0A0" stroke-width="0.5"/>
<path d="M 786.41,455.35 L 763.56,452.14 L 762.66,455.83 L 766.54,462.94 L 772.20,464.42 L 773.49,473.00 L 778.40,480.66 L 767.85,488.49 L 750.01,492.53 L 749.64,499.54 L 749.17,500.00 L 438.41,500.00 L 435.94,491.31 L 436.10,487.51 L 448.53,472.69 L 434.14,467.61 L 433.47,447.16 L 438.78,440.32 L 447.46,439.82 L 440.75,431.75 L 449.47,426.78 L 453.62,419.56 L 456.50,407.82 L 454.92,401.51 L 457.90,399.73 L 460.81,386.73 L 472.60,394.41 L 486.77,394.07 L 494.73,400.00 L 496.58,406.25 L 501.71,400.53 L 510.92,401.85 L 524.52,394.14 L 524.40,386.48 L 529.25,383.43 L 525.36,377.01 L 536.84,376.42 L 553.01,369.94 L 558.48,371.20 L 558.91,366.85 L 573.70,360.05 L 584.30,332.81 L 584.30,325.48 L 594.30,320.77 L 610.98,319.80 L 618.88,306.68 L 637.64,316.77 L 662.67,314.60 L 671.58,322.74 L 680.17,318.78 L 688.74,320.93 L 689.67,325.81 L 698.37,333.34 L 721.19,318.93 L 726.53,320.05 L 727.07,316.86 L 729.89,318.90 L 728.90,316.49 L 743.83,325.50 L 748.41,321.17 L 746.16,312.43 L 750.75,306.65 L 765.18,305.09 L 773.59,308.19 L 778.00,301.51 L 774.10,291.66 L 777.24,291.93 L 784.59,284.53 L 791.44,272.89 L 800.00,270.54 L 800.00,451.97 L 786.41,455.35 Z" fill="#C8D8E8" stroke="#8BAABB" stroke-width="0.8"/>
<path d="M 5.76,233.13 L 0.00,236.28 L 0.00,227.21 L 5.76,233.13 Z M 4.17,248.42 L 0.00,249.58 L 0.00,241.59 L 4.17,248.42 Z M 4.75,264.94 L 8.45,264.21 L 15.22,273.28 L 24.60,271.72 L 27.07,293.40 L 33.69,304.84 L 44.57,310.09 L 71.10,314.40 L 75.56,324.04 L 99.57,339.79 L 131.40,347.35 L 205.21,332.24 L 191.23,335.33 L 205.48,337.61 L 205.69,329.17 L 201.94,316.30 L 212.24,317.04 L 227.99,312.37 L 232.72,308.87 L 234.07,300.27 L 244.76,291.40 L 265.11,284.61 L 285.91,286.18 L 286.04,282.13 L 290.72,279.04 L 311.91,281.80 L 316.71,278.12 L 322.95,290.78 L 351.26,298.11 L 353.02,302.58 L 358.34,304.43 L 373.94,301.93 L 391.93,308.64 L 397.18,321.82 L 416.80,329.25 L 428.17,345.12 L 457.15,345.16 L 456.48,356.56 L 459.23,366.10 L 455.89,372.35 L 459.80,375.48 L 461.53,389.61 L 457.90,399.73 L 455.13,400.64 L 456.50,407.82 L 453.62,419.56 L 449.47,426.78 L 440.75,431.75 L 447.46,439.82 L 438.78,440.32 L 433.47,447.16 L 434.14,467.61 L 448.53,472.69 L 436.10,487.51 L 435.94,491.31 L 438.41,500.00 L 0.00,500.00 L 0.00,260.59 L 4.75,264.94 Z" fill="#C8D8E8" stroke="#8BAABB" stroke-width="0.8"/>
<path d="M 798.04,113.57 L 800.00,114.95 L 800.00,116.32 L 793.88,118.01 L 789.51,124.95 L 780.63,123.53 L 764.96,137.80 L 754.83,139.62 L 746.71,144.65 L 747.01,147.52 L 734.12,151.64 L 733.95,158.39 L 717.75,170.45 L 719.27,182.88 L 713.91,183.88 L 697.34,174.63 L 702.28,165.70 L 698.87,165.17 L 695.45,158.73 L 653.07,160.46 L 645.02,126.33 L 627.58,125.96 L 630.84,85.62 L 620.07,90.24 L 610.27,73.08 L 589.37,55.85 L 571.91,62.88 L 529.02,59.59 L 487.43,65.59 L 457.01,37.51 L 452.60,28.74 L 400.28,0.00 L 800.00,0.00 L 800.00,110.20 L 798.04,113.57 Z M 274.52,3.73 L 274.60,153.77 L 256.02,155.52 L 238.44,134.42 L 236.90,128.84 L 209.30,112.28 L 184.30,115.52 L 169.04,120.90 L 150.00,136.33 L 151.88,130.07 L 148.75,122.29 L 158.40,104.07 L 154.44,95.75 L 159.60,102.16 L 160.51,97.42 L 151.17,92.32 L 144.20,93.44 L 140.55,89.84 L 131.52,91.66 L 122.32,77.40 L 109.11,78.91 L 110.48,66.33 L 94.51,43.34 L 94.03,36.64 L 73.99,30.63 L 72.12,21.19 L 75.17,17.32 L 94.93,18.69 L 104.45,24.57 L 112.29,21.49 L 119.12,23.49 L 98.08,9.10 L 97.98,4.39 L 106.32,0.85 L 109.01,2.52 L 108.56,0.00 L 289.26,0.00 L 274.52,3.73 Z M 73.97,0.61 L 76.48,0.06 L 75.64,4.62 L 73.97,0.61 Z M 67.01,10.33 L 63.73,5.70 L 66.05,0.85 L 68.21,0.26 L 64.96,5.81 L 70.21,10.47 L 67.01,10.33 Z M 88.77,9.33 L 86.31,4.87 L 89.33,5.41 L 88.77,9.33 Z" fill="#C8D8E8" stroke="#8BAABB" stroke-width="0.8"/>
<path d="M 789.93,199.61 L 786.48,193.72 L 781.11,192.85 L 781.05,188.34 L 795.04,177.63 L 790.47,176.29 L 792.85,174.78 L 783.72,165.86 L 780.83,165.59 L 777.91,171.91 L 757.16,182.03 L 750.77,176.12 L 745.34,175.89 L 743.73,183.42 L 739.83,184.62 L 743.85,193.76 L 740.18,195.58 L 742.89,199.80 L 718.11,201.05 L 732.39,204.01 L 724.92,204.50 L 728.65,212.73 L 724.36,208.56 L 725.36,212.59 L 723.76,215.13 L 719.69,213.90 L 715.87,226.21 L 687.72,223.15 L 677.50,229.14 L 674.79,239.63 L 685.96,243.23 L 686.77,249.03 L 701.21,249.45 L 703.73,254.93 L 700.00,257.27 L 699.60,267.55 L 710.19,280.77 L 706.41,291.54 L 701.96,293.20 L 691.65,308.74 L 689.93,322.59 L 680.17,318.78 L 671.58,322.74 L 662.67,314.60 L 645.56,315.43 L 645.53,298.33 L 649.25,289.71 L 622.93,278.31 L 613.34,279.76 L 568.76,249.79 L 562.19,250.67 L 546.66,240.81 L 538.51,232.15 L 502.44,207.38 L 498.94,190.18 L 491.23,184.16 L 482.21,161.81 L 466.56,154.65 L 461.22,160.49 L 446.40,156.58 L 432.95,158.25 L 419.44,151.00 L 418.65,145.90 L 421.92,143.02 L 417.86,136.14 L 425.02,135.05 L 412.84,127.43 L 416.03,125.63 L 417.12,117.92 L 411.42,113.64 L 390.03,111.87 L 386.08,104.55 L 377.22,103.69 L 366.43,93.75 L 364.56,99.33 L 354.83,97.90 L 350.01,100.57 L 356.52,104.47 L 363.01,113.91 L 359.74,114.31 L 357.18,108.43 L 346.31,105.66 L 342.53,108.49 L 340.48,118.25 L 324.01,119.38 L 309.79,130.35 L 311.24,147.88 L 316.23,151.88 L 311.59,156.19 L 274.60,153.77 L 274.51,3.76 L 289.34,0.00 L 400.28,0.00 L 452.60,28.74 L 457.01,37.51 L 487.43,65.59 L 529.02,59.59 L 571.91,62.88 L 589.37,55.85 L 610.27,73.08 L 620.07,90.24 L 630.84,85.62 L 627.58,125.96 L 645.02,126.33 L 653.07,160.46 L 695.45,158.73 L 698.87,165.17 L 702.28,165.70 L 697.34,174.63 L 713.91,183.88 L 719.27,182.88 L 717.75,170.45 L 733.95,158.39 L 734.12,151.64 L 747.01,147.52 L 746.71,144.65 L 754.83,139.62 L 764.96,137.80 L 780.63,123.53 L 784.59,122.33 L 788.42,125.40 L 793.88,118.01 L 800.00,115.87 L 800.00,123.98 L 797.79,124.83 L 796.68,129.35 L 790.88,130.67 L 773.90,145.67 L 783.99,150.35 L 791.54,147.66 L 795.15,157.17 L 800.00,158.96 L 800.00,197.30 L 789.93,199.61 Z M 787.80,167.13 L 790.74,169.56 L 789.74,167.18 L 787.80,167.13 Z" fill="#C8D8E8" stroke="#8BAABB" stroke-width="0.8"/>
<path d="M 459.80,375.48 L 455.89,372.35 L 459.23,366.10 L 456.48,356.56 L 457.15,345.16 L 428.17,345.12 L 416.80,329.25 L 397.18,321.82 L 391.93,308.64 L 373.94,301.93 L 358.34,304.43 L 353.02,302.58 L 351.26,298.11 L 322.95,290.78 L 317.10,278.16 L 311.91,281.80 L 290.72,279.04 L 282.90,286.64 L 255.92,286.04 L 235.13,299.21 L 232.72,308.87 L 227.99,312.37 L 212.24,317.04 L 201.94,316.30 L 198.82,299.88 L 198.89,267.99 L 204.37,252.04 L 194.48,245.40 L 195.29,238.74 L 193.02,240.42 L 193.85,245.20 L 191.21,238.98 L 189.76,240.71 L 189.57,234.18 L 175.06,234.55 L 175.47,241.27 L 172.79,232.25 L 179.50,221.45 L 177.42,227.16 L 189.77,229.50 L 189.98,227.07 L 195.59,227.04 L 188.56,220.81 L 184.46,222.06 L 183.23,217.19 L 190.01,209.07 L 183.94,207.48 L 179.74,210.21 L 166.75,206.88 L 170.07,217.31 L 160.58,205.57 L 160.52,187.97 L 164.97,180.88 L 166.85,163.44 L 174.08,172.13 L 172.07,173.29 L 173.97,176.32 L 182.81,173.65 L 186.79,177.66 L 191.77,171.53 L 195.16,182.20 L 211.00,177.96 L 219.18,180.24 L 213.78,171.38 L 217.67,170.30 L 221.69,174.68 L 227.50,173.50 L 231.73,168.34 L 228.84,164.02 L 231.99,165.41 L 207.58,146.98 L 201.42,129.93 L 201.70,123.50 L 198.60,120.99 L 175.55,121.83 L 168.39,126.71 L 161.67,139.32 L 166.85,139.37 L 163.23,151.42 L 165.65,164.85 L 161.38,151.49 L 154.38,145.70 L 155.45,140.54 L 150.00,136.33 L 169.04,120.90 L 184.30,115.52 L 209.30,112.28 L 236.90,128.84 L 238.44,134.42 L 257.00,156.02 L 272.20,153.57 L 310.91,156.53 L 316.23,151.88 L 311.24,147.88 L 309.79,130.35 L 324.01,119.38 L 340.48,118.25 L 342.53,108.49 L 346.31,105.66 L 357.18,108.43 L 359.74,114.31 L 363.01,113.91 L 356.52,104.47 L 350.01,100.57 L 354.83,97.90 L 364.56,99.33 L 366.43,93.75 L 377.22,103.69 L 386.08,104.55 L 390.03,111.87 L 411.42,113.64 L 417.12,117.92 L 416.03,125.63 L 412.84,127.43 L 425.02,135.05 L 417.86,136.14 L 421.92,143.02 L 418.65,145.90 L 419.44,151.00 L 432.95,158.25 L 446.40,156.58 L 461.22,160.49 L 466.56,154.65 L 482.21,161.81 L 491.23,184.16 L 498.94,190.18 L 502.44,207.38 L 538.51,232.15 L 546.66,240.81 L 562.19,250.67 L 568.76,249.79 L 613.34,279.76 L 622.93,278.31 L 650.00,291.66 L 645.53,298.33 L 646.51,311.89 L 643.81,316.83 L 633.01,314.91 L 618.88,306.68 L 610.98,319.80 L 594.30,320.77 L 585.32,324.77 L 577.73,345.78 L 577.81,353.82 L 573.70,360.05 L 558.91,366.85 L 558.48,371.20 L 553.01,369.94 L 536.84,376.42 L 525.36,377.01 L 529.25,383.43 L 524.40,386.48 L 524.52,394.14 L 510.92,401.85 L 501.71,400.53 L 496.58,406.25 L 494.73,400.00 L 486.77,394.07 L 472.60,394.41 L 460.81,386.73 L 459.80,375.48 Z M 172.84,244.88 L 173.38,258.61 L 171.20,252.42 L 172.84,244.88 Z M 187.84,224.46 L 188.60,227.05 L 187.10,227.83 L 187.84,224.46 Z" fill="#4A90D9" stroke="#1a5fa8" stroke-width="1.2"/>
<path d="M 707.28,166.25 L 698.85,165.16 L 694.56,157.03 L 713.08,161.79 L 707.28,166.25 Z" fill="#A8C8E8" stroke="none"/>
<path d="M 779.49,194.89 L 774.49,196.91 L 761.78,196.92 L 781.17,190.92 L 779.49,194.89 Z" fill="#A8C8E8" stroke="none"/>
<path d="M 340.60,139.03 L 322.95,144.84 L 315.38,134.38 L 313.18,139.65 L 311.73,136.71 L 317.49,116.24 L 323.39,111.96 L 332.16,116.27 L 331.59,123.22 L 336.13,125.71 L 334.49,130.02 L 341.01,133.13 L 340.60,139.03 Z" fill="#A8C8E8" stroke="none"/>
<path d="M 694.30,174.49 L 679.54,177.99 L 683.82,187.45 L 673.95,180.45 L 673.80,176.47 L 631.31,166.77 L 661.93,166.85 L 671.87,169.09 L 676.84,172.07 L 675.58,174.25 L 681.47,174.24 L 698.85,165.16 L 694.30,174.49 Z" fill="#A8C8E8" stroke="none"/>
<path d="M 358.46,0.00 L 368.06,0.00 L 364.99,3.22 L 367.72,10.96 L 362.75,23.77 L 358.56,27.03 L 354.01,25.55 L 357.05,19.74 L 353.52,9.79 L 358.46,0.00 Z" fill="#A8C8E8" stroke="none"/>
</svg>