<svg xmlns="http://www.w3.org/2000/svg" width="800" height="500" viewBox="0 0 800 500">
<rect width="800" height="500" fill="#A8C8E8"/>
<path d="M 712.19,118.12 L 709.62,120.27 L 696.61,117.17 L 712.19,118.12 Z M 744.53,67.35 L 751.25,68.28 L 742.74,68.54 L 744.53,67.35 Z M 787.02,84.09 L 758.42,73.91 L 766.53,64.05 L 792.59,60.13 L 795.94,56.53 L 800.00,57.94 L 800.00,84.79 L 787.02,84.09 Z M 272.99,18.02 L 263.87,22.76 L 256.01,16.79 L 272.99,18.02 Z M 251.06,16.49 L 244.77,16.38 L 241.73,13.49 L 251.06,12.59 L 251.06,16.49 Z M 406.25,14.53 L 400.36,16.49 L 338.24,9.49 L 346.35,11.22 L 339.69,21.29 L 318.46,26.44 L 301.63,24.04 L 292.32,27.04 L 282.30,18.59 L 259.31,11.33 L 263.54,0.00 L 413.48,0.00 L 406.25,14.53 Z M 781.08,175.25 L 770.62,174.05 L 774.26,173.85 L 781.08,175.25 Z M 715.61,67.18 L 709.60,65.68 L 712.44,65.33 L 715.61,67.18 Z" fill="#E8E0D0" stroke="#B8B0A0" stroke-width="0.5"/>
<path d="M 18.38,104.83 L 83.97,113.74 L 118.98,110.36 L 117.72,104.97 L 188.62,109.19 L 185.52,113.74 L 202.14,115.52 L 242.12,110.75 L 287.59,111.57 L 292.42,116.10 L 264.27,118.40 L 266.40,123.72 L 234.33,129.73 L 257.45,133.92 L 243.14,160.39 L 254.91,173.11 L 249.65,182.46 L 266.51,186.12 L 250.40,193.76 L 242.53,212.21 L 192.67,222.45 L 184.52,229.90 L 154.01,236.48 L 149.38,245.31 L 179.56,274.40 L 224.10,280.42 L 248.24,291.75 L 254.19,305.31 L 342.06,325.32 L 400.50,406.25 L 371.80,411.16 L 418.72,433.50 L 438.23,454.57 L 432.17,492.38 L 439.81,500.00 L 0.00,500.00 L 0.00,110.54 L 18.38,104.83 Z" fill="#C8D8E8" stroke="#8BAABB" stroke-width="0.8"/>
<path d="M 748.73,291.91 L 800.00,293.00 L 800.00,500.00 L 440.64,500.00 L 432.17,492.38 L 438.23,454.57 L 418.72,433.50 L 371.80,411.16 L 443.79,400.71 L 483.30,384.19 L 492.89,376.09 L 472.71,353.54 L 492.13,342.51 L 521.05,339.70 L 534.23,330.51 L 554.78,328.28 L 567.13,322.47 L 650.00,309.40 L 638.13,300.46 L 644.92,276.60 L 748.73,291.91 Z" fill="#C8D8E8" stroke="#8BAABB" stroke-width="0.8"/>
<path d="M 638.13,300.46 L 650.00,309.40 L 567.13,322.47 L 554.78,328.28 L 534.23,330.51 L 521.05,339.70 L 492.13,342.51 L 472.71,353.54 L 490.89,379.34 L 443.79,400.71 L 400.50,406.25 L 342.06,325.32 L 254.19,305.31 L 248.24,291.75 L 224.10,280.42 L 179.56,274.40 L 175.64,264.62 L 150.00,247.02 L 154.01,236.48 L 184.52,229.90 L 192.67,222.45 L 242.53,212.21 L 250.40,193.76 L 266.51,186.12 L 249.65,182.46 L 254.91,173.11 L 243.14,160.39 L 257.45,133.92 L 234.33,129.73 L 266.40,123.72 L 264.27,118.40 L 292.42,116.10 L 287.59,111.57 L 314.90,109.81 L 362.46,98.64 L 428.19,93.75 L 442.26,94.47 L 431.54,99.54 L 436.97,102.24 L 449.08,101.08 L 437.42,98.91 L 445.17,97.33 L 493.13,101.07 L 475.40,101.94 L 487.58,103.74 L 482.08,107.72 L 502.37,114.17 L 482.83,117.80 L 503.37,120.71 L 523.49,119.63 L 531.65,114.35 L 589.02,105.38 L 598.81,115.32 L 558.11,132.98 L 527.45,136.26 L 518.07,147.88 L 536.21,159.73 L 587.79,168.73 L 587.94,182.05 L 602.33,187.13 L 533.13,216.73 L 475.23,226.35 L 460.27,233.16 L 468.41,243.01 L 500.29,253.70 L 519.86,256.14 L 547.86,253.52 L 542.62,260.60 L 550.50,263.57 L 571.59,260.87 L 574.89,256.62 L 588.01,257.43 L 595.31,268.57 L 618.90,271.97 L 599.19,270.89 L 604.84,275.29 L 636.06,276.06 L 626.06,273.19 L 644.92,276.60 L 638.13,300.46 Z M 590.16,249.40 L 568.92,256.45 L 561.34,252.51 L 550.75,253.14 L 550.24,245.71 L 590.16,249.40 Z M 581.16,211.15 L 596.38,211.69 L 589.60,213.38 L 581.16,211.15 Z M 619.31,208.65 L 598.84,211.52 L 614.04,204.38 L 619.31,208.65 Z" fill="#4A90D9" stroke="#1a5fa8" stroke-width="1.2"/>
</svg>