<svg xmlns="http://www.w3.org/2000/svg" width="800" height="500" viewBox="0 0 800 500">
<rect width="800" height="500" fill="#A8C8E8"/>
<path d="M 492.55,118.12 L 491.79,120.27 L 487.93,117.17 L 492.55,118.12 Z M 502.14,67.35 L 504.13,68.28 L 501.61,68.54 L 502.14,67.35 Z M 514.74,84.09 L 506.26,73.91 L 508.66,64.05 L 516.39,60.13 L 517.38,56.53 L 518.58,57.94 L 518.58,84.79 L 514.74,84.09 Z M 362.35,18.02 L 359.64,22.76 L 357.31,16.79 L 362.35,18.02 Z M 355.85,16.49 L 353.98,16.38 L 353.08,13.49 L 355.85,12.59 L 355.85,16.49 Z M 401.85,14.53 L 400.11,16.49 L 381.69,9.49 L 384.10,11.22 L 382.12,21.29 L 375.83,26.44 L 370.84,24.04 L 368.08,27.04 L 365.11,18.59 L 358.29,11.33 L 359.54,0.00 L 404.00,0.00 L 401.85,14.53 Z M 512.97,175.25 L 509.87,174.05 L 510.95,173.85 L 512.97,175.25 Z M 493.56,67.18 L 491.78,65.68 L 492.63,65.33 L 493.56,67.18 Z" fill="#E8E0D0" stroke="#B8B0A0" stroke-width="0.5"/>
<path d="M 286.87,104.83 L 306.31,113.74 L 316.69,110.36 L 316.31,104.97 L 337.33,109.19 L 336.42,113.74 L 341.34,115.52 L 353.19,110.75 L 366.67,111.57 L 368.11,116.10 L 359.76,118.40 L 360.39,123.72 L 350.89,129.73 L 357.74,133.92 L 353.50,160.39 L 356.99,173.11 L 355.43,182.46 L 360.43,186.12 L 355.65,193.76 L 353.32,212.21 L 338.54,222.45 L 336.12,229.90 L 327.07,236.48 L 325.70,245.31 L 334.65,274.40 L 347.85,280.42 L 355.01,291.75 L 356.77,305.31 L 382.82,325.32 L 400.15,406.25 L 391.64,411.16 L 405.55,433.50 L 411.33,454.57 L 409.54,492.38 L 411.80,500.00 L 281.42,500.00 L 281.42,110.54 L 286.87,104.83 Z" fill="#C8D8E8" stroke="#8BAABB" stroke-width="0.8"/>
<path d="M 503.38,291.91 L 518.58,293.00 L 518.58,500.00 L 412.05,500.00 L 409.54,492.38 L 411.33,454.57 L 405.55,433.50 L 391.64,411.16 L 412.98,400.71 L 424.69,384.19 L 427.54,376.09 L 421.56,353.54 L 427.31,342.51 L 435.89,339.70 L 439.79,330.51 L 445.89,328.28 L 449.55,322.47 L 474.12,309.40 L 470.60,300.46 L 472.61,276.60 L 503.38,291.91 Z" fill="#C8D8E8" stroke="#8BAABB" stroke-width="0.8"/>
<path d="M 470.60,300.46 L 474.12,309.40 L 449.55,322.47 L 445.89,328.28 L 439.79,330.51 L 435.89,339.70 L 427.31,342.51 L 421.56,353.54 L 426.95,379.34 L 412.98,400.71 L 400.15,406.25 L 382.82,325.32 L 356.77,305.31 L 355.01,291.75 L 347.85,280.42 L 334.65,274.40 L 333.49,264.62 L 325.88,247.02 L 327.07,236.48 L 336.12,229.90 L 338.54,222.45 L 353.32,212.21 L 355.65,193.76 L 360.43,186.12 L 355.43,182.46 L 356.99,173.11 L 353.50,160.39 L 357.74,133.92 L 350.89,129.73 L 360.39,123.72 L 359.76,118.40 L 368.11,116.10 L 366.67,111.57 L 374.77,109.81 L 388.87,98.64 L 408.36,93.75 L 412.53,94.47 L 409.35,99.54 L 410.96,102.24 L 414.55,101.08 L 411.09,98.91 L 413.39,97.33 L 427.61,101.07 L 422.35,101.94 L 425.97,103.74 L 424.33,107.72 L 430.35,114.17 L 424.56,117.80 L 430.65,120.71 L 436.61,119.63 L 439.03,114.35 L 456.04,105.38 L 458.94,115.32 L 446.87,132.98 L 437.79,136.26 L 435.00,147.88 L 440.38,159.73 L 455.67,168.73 L 455.72,182.05 L 459.98,187.13 L 439.47,216.73 L 422.30,226.35 L 417.87,233.16 L 420.28,243.01 L 429.73,253.70 L 435.53,256.14 L 443.83,253.52 L 442.28,260.60 L 444.62,263.57 L 450.87,260.87 L 451.85,256.62 L 455.74,257.43 L 457.90,268.57 L 464.89,271.97 L 459.05,270.89 L 460.73,275.29 L 469.98,276.06 L 467.02,273.19 L 472.61,276.60 L 470.60,300.46 Z M 456.38,249.40 L 450.08,256.45 L 447.83,252.51 L 444.69,253.14 L 444.54,245.71 L 456.38,249.40 Z M 453.71,211.15 L 458.22,211.69 L 456.21,213.38 L 453.71,211.15 Z M 465.02,208.65 L 458.95,211.52 L 463.45,204.38 L 465.02,208.65 Z" fill="#4A90D9" stroke="#1a5fa8" stroke-width="1.2"/>
</svg>