<svg xmlns="http://www.w3.org/2000/svg" width="800" height="500" viewBox="0 0 800 500">
<rect width="800" height="500" fill="#A8C8E8"/>
<path d="M 450.19,234.57 L 446.90,238.19 L 443.31,234.90 L 448.39,231.82 L 450.19,234.57 Z M 406.74,359.56 L 406.23,365.34 L 403.46,362.41 L 406.74,359.56 Z M 396.23,356.72 L 386.78,349.60 L 389.37,347.22 L 387.83,349.08 L 392.96,352.31 L 399.87,350.06 L 396.23,356.72 Z M 432.24,286.97 L 433.10,287.31 L 432.48,289.72 L 432.24,286.97 Z M 400.73,286.57 L 400.15,288.89 L 398.39,286.51 L 400.73,286.57 Z M 433.88,285.30 L 435.22,283.49 L 434.60,286.48 L 433.88,285.30 Z M 435.58,282.06 L 433.66,279.24 L 434.33,279.39 L 435.58,282.06 Z M 375.72,94.65 L 373.48,95.57 L 372.85,93.75 L 375.72,94.65 Z M 350.07,405.70 L 350.33,405.93 L 349.81,406.25 L 350.07,405.70 Z M 417.43,242.64 L 418.07,241.63 L 419.06,242.46 L 417.43,242.64 Z" fill="#4A90D9" stroke="#1a5fa8" stroke-width="1.2"/>
</svg>