<svg xmlns="http://www.w3.org/2000/svg" width="800" height="500" viewBox="0 0 800 500">
<rect width="800" height="500" fill="#A8C8E8"/>
<path d="M 650.00,234.57 L 633.57,238.19 L 615.72,234.90 L 641.02,231.82 L 650.00,234.57 Z M 433.58,359.56 L 431.02,365.34 L 417.22,362.41 L 433.58,359.56 Z M 381.25,356.72 L 334.17,349.60 L 347.04,347.22 L 339.40,349.08 L 364.94,352.31 L 399.38,350.06 L 381.25,356.72 Z M 560.56,286.97 L 564.88,287.31 L 561.76,289.72 L 560.56,286.97 Z M 403.63,286.57 L 400.73,288.89 L 391.98,286.51 L 403.63,286.57 Z M 568.73,285.30 L 575.43,283.49 L 572.33,286.48 L 568.73,285.30 Z M 577.21,282.06 L 567.67,279.24 L 570.97,279.39 L 577.21,282.06 Z M 279.06,94.65 L 267.93,95.57 L 264.78,93.75 L 279.06,94.65 Z M 151.30,405.70 L 152.63,405.93 L 150.00,406.25 L 151.30,405.70 Z M 486.83,242.64 L 489.99,241.63 L 494.96,242.46 L 486.83,242.64 Z" fill="#4A90D9" stroke="#1a5fa8" stroke-width="1.2"/>
</svg>