<svg xmlns="http://www.w3.org/2000/svg" width="800" height="500" viewBox="0 0 800 500">
<rect width="800" height="500" fill="#A8C8E8"/>
<path d="M 359.94,383.79 L 359.35,381.00 L 364.85,378.88 L 365.51,380.42 L 362.49,381.58 L 364.92,384.28 L 359.94,383.79 Z M 361.27,382.73 L 361.27,382.39 L 360.98,382.41 L 361.27,382.73 Z" fill="#E8E0D0" stroke="#B8B0A0" stroke-width="0.5"/>
<path d="M 362.00,383.57 L 361.45,383.26 L 362.37,383.62 L 362.00,383.57 Z M 360.98,382.41 L 361.27,382.39 L 361.27,382.73 L 360.98,382.41 Z M 357.44,388.86 L 340.64,395.47 L 341.30,393.85 L 337.96,392.93 L 333.98,394.78 L 327.49,392.22 L 322.60,380.43 L 326.31,381.43 L 332.74,376.59 L 337.08,380.90 L 352.49,377.49 L 353.61,383.62 L 355.19,381.39 L 359.98,383.28 L 357.44,388.86 Z M 368.31,380.96 L 370.33,384.05 L 363.51,384.09 L 362.63,381.21 L 368.31,380.96 Z" fill="#E8E0D0" stroke="#B8B0A0" stroke-width="0.5"/>
<path d="M 410.60,416.48 L 411.23,406.01 L 419.54,398.37 L 419.19,394.64 L 426.81,395.40 L 428.05,393.37 L 431.47,395.32 L 428.33,399.19 L 433.69,402.26 L 435.76,409.78 L 427.51,418.26 L 427.68,418.55 L 407.79,418.55 L 410.60,416.48 Z" fill="#E8E0D0" stroke="#B8B0A0" stroke-width="0.5"/>
<path d="M 720.41,87.95 L 716.83,93.33 L 717.84,97.00 L 721.50,85.12 L 725.60,84.81 L 720.10,98.63 L 720.16,104.23 L 722.57,104.12 L 719.97,107.03 L 719.34,113.48 L 725.51,118.64 L 726.27,125.50 L 735.90,136.02 L 743.50,149.88 L 748.52,152.96 L 743.06,161.87 L 734.79,165.86 L 730.03,174.36 L 721.57,174.45 L 714.29,171.18 L 710.97,162.80 L 707.98,162.65 L 700.51,152.76 L 695.98,154.93 L 694.88,151.72 L 679.44,146.81 L 671.53,141.01 L 673.29,130.72 L 663.47,129.96 L 658.25,124.18 L 651.37,122.26 L 649.12,127.29 L 646.67,123.46 L 642.19,122.57 L 627.35,129.22 L 621.68,126.78 L 623.72,122.69 L 606.87,116.11 L 598.36,108.51 L 565.65,106.95 L 541.48,96.08 L 530.54,94.84 L 526.35,95.67 L 523.47,100.99 L 502.70,81.45 L 717.40,81.45 L 720.41,87.95 Z M 727.20,83.00 L 723.68,81.85 L 724.03,81.45 L 728.70,81.45 L 727.20,83.00 Z" fill="#E8E0D0" stroke="#B8B0A0" stroke-width="0.5"/>
<path d="M 20.45,152.82 L 22.59,145.01 L 30.78,141.18 L 35.75,144.75 L 39.60,139.47 L 61.34,135.33 L 68.19,143.43 L 76.22,147.11 L 80.69,157.29 L 78.69,160.79 L 78.90,169.60 L 73.94,170.77 L 72.73,176.66 L 55.58,176.25 L 43.39,185.84 L 27.30,186.41 L 20.82,184.27 L 15.15,173.44 L 16.19,167.90 L 13.69,162.89 L 16.05,161.70 L 15.15,156.70 L 16.90,152.03 L 20.45,152.82 Z" fill="#E8E0D0" stroke="#B8B0A0" stroke-width="0.5"/>
<path d="M 15.15,156.70 L 16.05,161.70 L 13.69,162.89 L 16.19,167.90 L 15.15,173.44 L 20.82,184.27 L 27.07,184.89 L 26.73,189.24 L 29.16,193.45 L 26.55,199.07 L 22.21,200.77 L 19.00,211.78 L 9.87,215.38 L 12.46,221.05 L 9.40,221.52 L 9.83,224.43 L 6.89,227.13 L 1.80,225.46 L 2.34,219.45 L 0.00,218.26 L 0.00,130.34 L 3.11,129.03 L 8.30,137.02 L 14.67,140.02 L 17.74,149.09 L 15.15,156.70 Z" fill="#E8E0D0" stroke="#B8B0A0" stroke-width="0.5"/>
<path d="M 4.80,125.83 L 2.99,122.53 L 14.53,119.03 L 14.09,115.86 L 19.45,111.31 L 17.86,107.53 L 22.83,105.34 L 23.99,108.45 L 30.62,111.13 L 35.01,117.99 L 38.87,119.32 L 38.09,122.77 L 48.39,126.02 L 41.68,136.28 L 42.94,139.49 L 37.78,140.25 L 36.02,144.70 L 30.78,141.18 L 22.59,145.01 L 19.88,153.01 L 16.90,152.03 L 15.17,140.67 L 8.30,137.02 L 3.78,129.40 L 4.80,125.83 Z" fill="#E8E0D0" stroke="#B8B0A0" stroke-width="0.5"/>
<path d="M 226.14,89.28 L 216.81,88.59 L 210.54,85.65 L 208.97,81.45 L 228.36,81.45 L 226.14,89.28 Z M 203.76,82.31 L 203.03,81.45 L 206.62,81.45 L 203.76,82.31 Z M 153.08,89.59 L 143.21,92.35 L 93.10,84.60 L 77.54,85.98 L 77.47,81.45 L 161.42,81.45 L 153.08,89.59 Z" fill="#E8E0D0" stroke="#B8B0A0" stroke-width="0.5"/>
<path d="M 63.45,87.04 L 67.87,98.25 L 80.04,108.31 L 73.31,117.98 L 65.49,120.44 L 66.93,123.12 L 65.43,128.53 L 68.34,131.70 L 65.40,136.82 L 61.34,135.33 L 43.22,139.64 L 41.68,136.28 L 44.33,134.78 L 48.17,125.28 L 38.09,122.77 L 38.87,119.32 L 35.01,117.99 L 30.62,111.13 L 23.99,108.45 L 23.49,105.53 L 17.86,107.53 L 18.90,112.42 L 14.09,115.86 L 14.53,119.03 L 11.11,119.97 L 10.89,117.30 L 0.24,110.35 L 0.00,110.30 L 0.00,81.45 L 64.62,81.45 L 63.45,87.04 Z" fill="#E8E0D0" stroke="#B8B0A0" stroke-width="0.5"/>
<path d="M 0.24,110.35 L 11.32,117.84 L 6.88,122.83 L 2.78,122.80 L 4.80,125.83 L 1.61,130.61 L 0.00,131.10 L 0.00,110.30 L 0.24,110.35 Z" fill="#E8E0D0" stroke="#B8B0A0" stroke-width="0.5"/>
<path d="M 364.51,378.88 L 361.63,381.81 L 355.74,380.42 L 354.08,382.78 L 352.42,376.18 L 337.83,380.22 L 334.06,376.99 L 338.82,377.00 L 339.54,369.52 L 358.87,370.81 L 383.22,359.63 L 366.48,372.41 L 365.13,377.35 L 368.06,380.73 L 364.51,378.88 Z M 331.86,377.33 L 331.25,377.02 L 331.68,376.67 L 331.86,377.33 Z" fill="#E8E0D0" stroke="#B8B0A0" stroke-width="0.5"/>
<path d="M 368.06,380.73 L 368.31,380.96 L 365.93,381.16 L 368.06,380.73 Z M 360.20,383.36 L 355.19,381.39 L 353.61,383.62 L 352.49,377.49 L 337.08,380.90 L 334.12,378.38 L 333.57,376.71 L 337.83,380.22 L 352.42,376.18 L 353.81,382.70 L 355.74,380.42 L 360.20,383.36 Z M 332.06,377.70 L 330.78,377.08 L 331.86,377.33 L 332.06,377.70 Z" fill="#E8E0D0" stroke="#B8B0A0" stroke-width="0.5"/>
<path d="M 342.41,397.37 L 340.08,397.37 L 339.37,394.41 L 335.36,393.99 L 337.96,392.93 L 342.41,397.37 Z" fill="#E8E0D0" stroke="#B8B0A0" stroke-width="0.5"/>
<path d="M 655.95,174.71 L 660.26,176.56 L 656.87,179.27 L 665.99,180.77 L 670.69,185.97 L 664.80,192.26 L 668.78,200.13 L 680.62,207.43 L 677.86,214.61 L 670.17,215.94 L 674.44,216.94 L 685.97,228.60 L 694.85,229.90 L 690.58,234.75 L 696.90,241.29 L 691.48,241.97 L 694.01,245.78 L 694.58,252.48 L 684.71,253.10 L 680.06,243.44 L 680.79,240.15 L 674.86,236.12 L 675.03,229.67 L 666.40,232.11 L 661.83,228.38 L 658.92,229.21 L 655.92,222.65 L 649.15,224.92 L 637.43,213.78 L 629.77,214.65 L 620.18,211.24 L 621.65,209.25 L 617.42,198.89 L 621.27,194.39 L 621.63,189.32 L 614.31,177.77 L 633.63,173.63 L 651.07,174.34 L 650.36,172.17 L 655.10,171.60 L 655.95,174.71 Z M 654.18,179.85 L 655.45,180.57 L 655.53,178.84 L 654.18,179.85 Z M 660.80,182.06 L 659.67,181.56 L 659.92,182.33 L 660.80,182.06 Z M 667.56,193.10 L 669.69,193.19 L 669.33,194.06 L 667.56,193.10 Z" fill="#C8D8E8" stroke="#8BAABB" stroke-width="0.8"/>
<path d="M 655.53,178.84 L 655.45,180.57 L 654.18,179.85 L 655.53,178.84 Z M 661.56,166.42 L 667.18,166.90 L 674.47,170.09 L 672.95,171.40 L 676.48,174.34 L 686.66,174.63 L 694.13,179.85 L 697.38,177.50 L 699.14,171.80 L 689.36,164.77 L 685.86,159.35 L 686.10,156.49 L 689.35,155.94 L 692.41,151.45 L 695.36,151.99 L 695.98,154.93 L 700.51,152.76 L 707.98,162.65 L 710.97,162.80 L 714.29,171.18 L 728.92,174.69 L 734.79,165.86 L 743.66,161.24 L 748.52,152.96 L 760.62,167.44 L 764.62,179.43 L 773.59,188.47 L 773.59,192.97 L 791.84,198.28 L 795.85,207.05 L 791.64,203.43 L 782.85,202.54 L 772.38,209.77 L 770.58,224.70 L 766.96,230.99 L 770.15,238.80 L 766.65,237.22 L 764.82,247.38 L 761.58,249.76 L 763.37,245.72 L 758.67,242.35 L 757.47,250.70 L 755.12,252.85 L 756.23,267.54 L 749.27,268.81 L 744.24,261.35 L 741.50,261.96 L 733.22,253.56 L 734.92,250.26 L 741.07,248.37 L 736.17,239.49 L 742.25,235.80 L 732.65,224.86 L 709.95,238.17 L 694.58,252.48 L 694.01,245.78 L 691.48,241.97 L 696.90,241.29 L 690.58,234.75 L 694.85,229.90 L 685.97,228.60 L 674.44,216.94 L 670.17,215.94 L 677.86,214.61 L 680.62,207.43 L 668.78,200.13 L 664.80,192.26 L 670.69,185.97 L 665.99,180.77 L 656.87,179.27 L 660.26,176.56 L 655.95,174.71 L 655.10,171.60 L 661.56,166.42 Z M 669.33,194.06 L 669.69,193.19 L 667.56,193.10 L 669.33,194.06 Z M 666.50,248.38 L 663.17,241.79 L 659.03,241.36 L 649.15,224.92 L 655.92,222.65 L 658.92,229.21 L 661.83,228.38 L 666.40,232.11 L 675.62,230.09 L 674.86,236.12 L 680.79,240.15 L 680.06,243.44 L 684.71,253.10 L 666.50,248.38 Z M 659.92,182.33 L 659.67,181.56 L 660.80,182.06 L 659.92,182.33 Z M 794.87,201.51 L 794.16,198.76 L 795.05,199.01 L 794.87,201.51 Z" fill="#C8D8E8" stroke="#8BAABB" stroke-width="0.8"/>
<path d="M 160.20,157.79 L 163.38,166.85 L 155.71,171.14 L 138.92,173.26 L 129.71,167.90 L 126.79,169.66 L 121.72,166.56 L 119.88,162.49 L 108.56,163.35 L 107.47,166.19 L 96.44,168.89 L 78.27,170.08 L 80.67,156.50 L 76.22,147.11 L 68.19,143.43 L 63.33,137.24 L 68.25,132.40 L 65.43,128.53 L 66.93,123.12 L 65.49,120.44 L 73.31,117.98 L 79.95,107.50 L 67.87,98.25 L 63.45,87.04 L 64.62,81.45 L 77.47,81.45 L 77.54,85.98 L 93.10,84.60 L 143.21,92.35 L 153.08,89.59 L 161.42,81.45 L 203.03,81.45 L 203.76,82.31 L 206.62,81.45 L 208.97,81.45 L 210.54,85.65 L 216.81,88.59 L 226.14,89.28 L 225.67,98.94 L 223.39,101.86 L 219.43,99.79 L 214.14,101.03 L 211.49,106.36 L 208.52,107.38 L 208.22,123.90 L 204.05,123.77 L 201.33,126.64 L 201.89,129.02 L 196.74,131.64 L 203.69,133.84 L 204.66,139.08 L 211.47,148.69 L 206.12,147.94 L 199.18,151.09 L 192.05,144.68 L 186.13,144.98 L 183.32,147.89 L 174.61,148.86 L 172.54,153.67 L 167.52,154.83 L 167.50,157.40 L 160.20,157.79 Z" fill="#C8D8E8" stroke="#8BAABB" stroke-width="0.8"/>
<path d="M 561.65,122.92 L 554.49,121.04 L 551.17,114.52 L 546.81,112.06 L 533.20,109.45 L 530.17,103.46 L 524.08,101.11 L 526.00,96.20 L 541.48,96.08 L 565.65,106.95 L 598.36,108.51 L 606.87,116.11 L 623.72,122.69 L 621.68,126.78 L 627.35,129.22 L 642.19,122.57 L 646.67,123.46 L 649.12,127.29 L 651.37,122.26 L 659.10,124.48 L 663.47,129.96 L 674.36,131.93 L 671.53,141.01 L 679.79,147.00 L 691.78,150.62 L 689.73,155.61 L 686.10,156.49 L 686.19,160.86 L 699.31,172.29 L 696.88,178.19 L 693.56,179.87 L 687.13,174.79 L 680.35,175.70 L 673.58,172.36 L 674.47,170.09 L 662.40,166.14 L 653.87,172.53 L 650.36,172.17 L 651.07,174.34 L 633.63,173.63 L 614.57,177.84 L 612.82,175.07 L 605.50,173.00 L 607.61,171.31 L 596.71,164.41 L 597.61,161.90 L 591.97,161.91 L 588.78,166.85 L 575.33,164.37 L 571.80,167.19 L 564.17,164.08 L 570.78,153.76 L 561.65,122.92 Z" fill="#C8D8E8" stroke="#8BAABB" stroke-width="0.8"/>
<path d="M 43.39,185.84 L 55.58,176.25 L 72.73,176.66 L 74.72,170.10 L 96.44,168.89 L 112.65,162.48 L 119.88,162.49 L 121.72,166.56 L 126.79,169.66 L 129.71,167.90 L 140.14,173.31 L 161.95,169.34 L 163.06,163.58 L 160.05,158.21 L 164.70,156.17 L 174.35,160.78 L 175.42,167.93 L 174.72,170.25 L 167.17,173.08 L 168.17,182.54 L 160.93,190.24 L 158.95,187.94 L 160.20,187.03 L 146.72,185.70 L 136.29,181.01 L 127.51,186.27 L 122.98,186.10 L 119.75,182.64 L 109.43,190.49 L 99.55,189.69 L 98.73,192.31 L 104.34,196.84 L 101.94,197.91 L 103.12,201.05 L 106.62,201.96 L 106.86,199.85 L 116.84,209.82 L 114.39,210.64 L 110.97,205.69 L 104.90,202.67 L 99.52,202.88 L 99.15,206.36 L 106.33,210.95 L 106.33,216.50 L 102.03,214.64 L 98.08,207.62 L 91.89,205.56 L 89.32,207.28 L 89.94,209.89 L 99.97,217.27 L 89.86,216.25 L 88.25,207.03 L 77.52,201.97 L 75.78,198.07 L 80.00,196.38 L 78.10,193.29 L 69.45,199.21 L 71.59,202.54 L 69.24,213.12 L 89.42,242.49 L 85.76,245.02 L 81.80,245.24 L 86.11,242.49 L 83.96,238.55 L 78.77,236.42 L 75.90,241.10 L 80.39,246.18 L 79.50,248.23 L 82.35,247.31 L 75.01,252.62 L 70.56,251.40 L 68.04,253.29 L 81.54,257.03 L 83.17,260.67 L 88.43,260.19 L 87.89,263.42 L 90.41,264.13 L 89.19,265.20 L 95.26,265.28 L 95.42,266.88 L 98.01,270.14 L 105.28,272.34 L 108.66,276.54 L 106.27,278.00 L 108.84,289.33 L 107.41,293.82 L 95.09,283.03 L 95.45,280.54 L 80.31,286.07 L 85.20,288.52 L 83.60,290.82 L 84.84,295.07 L 89.23,297.72 L 88.59,294.97 L 90.85,294.28 L 90.76,298.41 L 94.17,300.95 L 87.30,302.23 L 84.84,305.64 L 82.35,303.77 L 83.89,300.63 L 73.29,296.68 L 83.42,323.05 L 81.37,327.49 L 85.56,334.76 L 79.72,331.82 L 74.87,322.64 L 72.23,322.10 L 69.40,322.99 L 66.97,328.91 L 67.15,336.16 L 63.58,332.09 L 64.45,325.57 L 57.92,318.48 L 58.32,314.99 L 52.84,315.93 L 53.54,322.59 L 51.26,324.89 L 46.68,321.81 L 46.75,317.63 L 43.08,311.80 L 45.83,302.40 L 30.98,286.21 L 36.72,281.39 L 37.98,274.70 L 44.46,276.92 L 50.39,270.65 L 76.97,284.15 L 79.80,282.82 L 77.19,280.46 L 84.96,279.44 L 86.28,276.77 L 75.37,274.49 L 71.21,269.02 L 69.01,272.26 L 64.81,266.88 L 64.31,270.60 L 59.26,271.26 L 53.22,268.29 L 41.73,272.18 L 36.63,265.45 L 37.00,268.82 L 32.27,271.91 L 27.89,259.81 L 24.54,255.13 L 21.13,254.92 L 23.12,252.97 L 22.19,249.91 L 30.43,253.08 L 32.84,252.69 L 32.38,248.60 L 30.43,246.41 L 29.73,248.23 L 24.15,247.29 L 23.57,244.68 L 21.50,247.54 L 23.81,249.75 L 22.10,249.28 L 21.29,250.20 L 14.69,239.03 L 8.25,235.11 L 8.98,231.44 L 5.57,230.74 L 6.83,227.55 L 2.08,225.23 L 8.51,226.26 L 9.40,221.52 L 12.46,221.05 L 9.87,215.38 L 19.00,211.78 L 22.21,200.77 L 28.70,196.17 L 27.30,186.41 L 43.39,185.84 Z M 110.09,389.09 L 107.77,387.94 L 108.66,387.28 L 110.09,389.09 Z M 185.10,369.52 L 180.95,370.37 L 182.31,368.62 L 185.10,369.52 Z M 166.04,379.52 L 162.64,382.80 L 133.17,385.17 L 125.85,385.17 L 125.96,380.28 L 117.06,376.46 L 93.98,373.00 L 95.60,363.53 L 99.20,365.65 L 99.81,359.80 L 101.78,364.91 L 111.34,363.21 L 111.34,365.64 L 108.44,366.14 L 113.15,366.78 L 115.44,371.18 L 125.39,368.53 L 144.52,373.00 L 152.69,371.60 L 151.29,376.73 L 153.45,379.01 L 160.38,375.04 L 163.48,375.92 L 167.18,372.29 L 166.04,379.52 Z M 188.47,369.31 L 186.69,363.09 L 190.68,355.02 L 189.01,361.58 L 190.45,365.39 L 188.47,369.31 Z M 89.08,353.82 L 89.14,355.03 L 88.16,354.01 L 89.08,353.82 Z M 83.15,341.32 L 80.20,344.69 L 77.87,337.92 L 78.99,336.21 L 83.15,341.32 Z M 152.73,335.80 L 155.01,337.08 L 152.17,337.26 L 152.73,335.80 Z M 213.37,347.44 L 204.05,352.14 L 204.69,346.45 L 202.78,343.98 L 208.41,337.86 L 217.29,334.76 L 213.37,347.44 Z M 145.19,335.03 L 144.82,337.79 L 142.12,337.31 L 144.08,336.16 L 142.66,333.18 L 145.19,335.03 Z M 196.10,336.35 L 192.67,333.67 L 194.21,333.18 L 196.10,336.35 Z M 170.97,329.72 L 166.66,332.05 L 165.62,329.55 L 169.34,329.49 L 168.25,327.86 L 170.97,329.72 Z M 206.93,331.56 L 204.76,329.95 L 206.90,327.63 L 206.93,331.56 Z M 131.32,328.32 L 131.73,329.26 L 128.52,326.95 L 131.32,328.32 Z M 137.47,325.57 L 134.44,327.86 L 135.41,325.80 L 137.47,325.57 Z M 48.58,324.18 L 48.52,325.80 L 47.81,325.36 L 48.58,324.18 Z M 120.49,323.49 L 120.82,326.15 L 115.10,327.42 L 115.81,323.96 L 117.70,325.80 L 117.24,323.73 L 120.49,323.49 Z M 123.95,323.27 L 123.78,324.08 L 122.44,323.05 L 123.95,323.27 Z M 140.69,322.59 L 143.37,325.36 L 142.42,327.33 L 139.81,325.11 L 140.69,322.59 Z M 46.51,322.72 L 47.25,322.59 L 46.91,323.05 L 46.51,322.72 Z M 121.52,323.03 L 120.17,321.84 L 121.23,320.89 L 121.52,323.03 Z M 144.35,320.49 L 145.17,320.04 L 145.16,321.24 L 144.35,320.49 Z M 194.21,320.29 L 184.71,323.98 L 184.21,326.49 L 182.76,325.24 L 192.25,318.79 L 194.21,320.29 Z M 149.65,318.67 L 150.55,319.36 L 150.28,319.75 L 149.65,318.67 Z M 160.75,319.29 L 155.65,322.59 L 152.41,323.43 L 151.98,322.59 L 158.95,317.75 L 160.75,319.29 Z M 133.91,316.73 L 133.35,315.44 L 134.58,314.28 L 133.91,316.73 Z M 126.56,317.41 L 125.12,318.92 L 123.33,314.06 L 126.56,317.41 Z M 183.71,314.76 L 182.75,314.30 L 182.04,312.69 L 186.07,315.83 L 182.61,317.52 L 183.71,314.76 Z M 153.06,311.54 L 154.48,311.08 L 154.53,312.26 L 153.06,311.54 Z M 137.60,316.20 L 135.38,315.27 L 138.91,310.60 L 140.34,310.60 L 137.60,316.20 Z M 147.85,315.10 L 144.43,318.44 L 141.60,312.92 L 146.42,309.11 L 147.85,315.10 Z M 120.15,308.85 L 120.46,311.33 L 117.59,311.54 L 120.15,308.85 Z M 84.58,306.59 L 84.68,307.50 L 82.91,306.47 L 84.58,306.59 Z M 93.42,304.95 L 90.22,305.54 L 92.55,303.70 L 95.78,303.24 L 93.42,304.95 Z M 117.95,299.34 L 119.17,301.85 L 116.17,305.31 L 117.95,299.34 Z M 140.69,301.87 L 140.84,299.30 L 144.77,299.91 L 140.69,301.87 Z M 131.74,302.21 L 129.59,303.49 L 129.94,298.56 L 131.74,302.21 Z M 93.52,297.81 L 94.17,298.18 L 91.84,298.18 L 93.52,297.81 Z M 132.28,292.90 L 139.45,295.88 L 138.32,297.80 L 132.28,292.90 Z M 116.90,294.72 L 113.75,297.84 L 114.12,294.03 L 116.35,292.65 L 116.90,294.72 Z M 164.82,296.51 L 158.18,298.37 L 160.73,294.28 L 168.25,292.65 L 164.82,296.51 Z M 93.09,292.90 L 91.53,290.12 L 91.56,289.90 L 94.70,289.69 L 93.09,292.90 Z M 179.62,294.05 L 177.29,291.73 L 174.42,292.96 L 173.95,290.82 L 179.86,288.34 L 186.69,289.69 L 179.62,294.05 Z M 27.86,291.19 L 28.11,292.21 L 25.43,291.07 L 23.38,293.82 L 18.27,286.67 L 20.60,284.63 L 27.86,291.19 Z M 131.57,292.65 L 124.67,283.26 L 126.91,282.11 L 131.47,285.27 L 131.57,292.65 Z M 93.44,283.23 L 91.66,282.52 L 95.42,283.71 L 91.11,285.52 L 93.44,283.23 Z M 15.40,278.39 L 13.72,272.84 L 13.19,276.23 L 11.11,276.00 L 12.53,269.89 L 15.92,270.78 L 16.13,266.20 L 18.55,273.45 L 19.89,272.64 L 22.92,277.70 L 21.25,280.02 L 15.40,278.39 Z M 21.87,269.64 L 22.03,271.26 L 20.05,270.80 L 18.27,265.95 L 21.87,269.64 Z M 25.79,263.67 L 25.43,263.67 L 26.43,261.86 L 25.79,263.67 Z M 161.72,274.64 L 159.05,276.85 L 155.92,274.70 L 158.51,269.37 L 154.85,262.62 L 163.07,263.88 L 161.72,274.64 Z M 148.94,262.66 L 147.32,264.13 L 146.34,262.05 L 148.94,262.66 Z M 16.31,262.99 L 20.01,253.56 L 20.79,261.05 L 16.31,262.99 Z M 121.36,256.50 L 121.11,253.71 L 117.95,252.62 L 118.60,249.61 L 124.23,254.92 L 121.36,256.50 Z M 121.36,282.52 L 116.27,283.06 L 111.89,279.08 L 107.66,268.63 L 97.40,268.49 L 96.48,263.37 L 85.72,254.24 L 76.10,253.72 L 88.25,247.10 L 95.95,256.25 L 110.62,260.19 L 113.15,274.46 L 121.91,276.77 L 121.36,282.52 Z M 92.73,241.35 L 93.84,242.53 L 92.47,244.10 L 92.73,241.35 Z M 95.78,241.55 L 101.14,244.35 L 99.16,245.93 L 95.78,241.55 Z M 7.05,241.72 L 7.36,242.49 L 5.70,241.50 L 7.05,241.72 Z M 103.84,243.09 L 102.21,243.62 L 105.44,238.80 L 103.84,243.09 Z M 172.88,247.88 L 171.57,244.71 L 170.21,245.05 L 173.09,248.93 L 163.12,247.77 L 161.09,245.72 L 166.11,241.93 L 160.47,245.47 L 154.67,240.87 L 163.07,235.80 L 168.25,235.80 L 174.79,246.87 L 172.88,247.88 Z M 133.91,230.21 L 132.28,232.84 L 132.06,230.47 L 133.91,230.21 Z M 4.85,236.28 L 0.00,234.17 L 0.00,227.44 L 0.19,227.52 L 0.43,232.64 L 4.49,233.97 L 4.85,236.28 Z M 0.73,221.98 L 0.00,223.23 L 0.00,222.10 L 0.73,221.98 Z M 141.79,222.07 L 139.22,217.68 L 138.28,221.54 L 133.91,220.39 L 133.55,215.10 L 140.12,216.51 L 144.43,213.72 L 141.79,222.07 Z M 147.49,201.51 L 144.26,198.76 L 147.72,197.65 L 150.72,199.90 L 147.49,201.51 Z M 126.93,194.38 L 123.33,195.77 L 120.06,193.47 L 123.33,187.94 L 127.10,190.25 L 126.93,194.38 Z M 103.66,321.27 L 103.54,321.33 L 103.34,320.95 L 103.66,321.27 Z M 92.65,318.84 L 92.56,318.93 L 92.19,318.08 L 92.65,318.84 Z M 201.01,341.14 L 201.07,341.63 L 198.47,342.00 L 201.01,341.14 Z M 190.08,330.20 L 188.30,330.16 L 188.50,329.13 L 190.08,330.20 Z M 180.99,312.39 L 178.98,309.57 L 180.99,309.41 L 180.99,312.39 Z M 173.13,304.73 L 173.62,306.48 L 173.07,306.39 L 172.80,303.18 L 174.43,303.76 L 173.13,304.73 Z M 125.31,295.76 L 123.79,295.32 L 125.26,294.51 L 125.31,295.76 Z M 26.68,261.04 L 24.82,262.55 L 25.29,260.99 L 26.68,261.04 Z M 21.93,261.04 L 22.98,262.11 L 21.72,261.09 L 21.33,260.21 L 23.01,259.77 L 21.93,261.04 Z M 109.01,237.44 L 108.21,238.55 L 107.73,237.06 L 109.01,237.44 Z" fill="#C8D8E8" stroke="#8BAABB" stroke-width="0.8"/>
<path d="M 659.03,241.36 L 663.17,241.79 L 666.50,248.38 L 684.45,253.14 L 695.62,252.23 L 709.95,238.17 L 732.65,224.86 L 742.25,235.80 L 736.17,239.49 L 741.07,248.37 L 734.92,250.26 L 733.22,253.56 L 741.50,261.96 L 744.24,261.35 L 749.27,268.81 L 756.23,267.54 L 758.06,285.36 L 762.97,294.76 L 771.05,299.08 L 790.74,302.62 L 794.05,310.55 L 800.00,314.88 L 800.00,418.55 L 667.74,418.55 L 667.73,418.52 L 664.98,417.35 L 669.26,411.78 L 669.60,405.98 L 665.93,401.54 L 668.19,399.86 L 668.12,396.59 L 673.36,397.95 L 671.43,392.25 L 672.46,389.36 L 677.25,386.01 L 678.89,379.94 L 685.10,379.13 L 684.30,372.18 L 680.22,366.28 L 681.26,360.23 L 689.70,355.89 L 682.74,354.08 L 674.60,355.64 L 669.14,349.49 L 663.41,349.49 L 661.28,335.75 L 656.93,335.07 L 654.82,331.36 L 655.96,326.13 L 650.43,322.11 L 652.10,315.17 L 648.58,312.23 L 649.86,305.87 L 643.87,301.23 L 644.49,291.64 L 634.20,285.57 L 640.90,270.75 L 636.48,269.28 L 636.11,253.78 L 632.89,249.72 L 633.80,243.65 L 630.95,241.81 L 629.31,235.96 L 639.06,234.61 L 640.92,225.07 L 643.70,222.80 L 650.00,227.03 L 659.03,241.36 Z" fill="#C8D8E8" stroke="#8BAABB" stroke-width="0.8"/>
<path d="M 652.10,315.17 L 650.63,322.69 L 656.24,326.85 L 654.82,331.36 L 657.23,335.42 L 661.28,335.75 L 663.41,349.49 L 669.14,349.49 L 674.60,355.64 L 682.74,354.08 L 689.70,355.89 L 681.26,360.23 L 680.22,366.28 L 684.30,372.18 L 685.10,379.13 L 678.89,379.94 L 677.25,386.01 L 672.46,389.36 L 671.43,392.25 L 673.36,397.95 L 668.12,396.59 L 668.19,399.86 L 665.93,401.54 L 669.60,405.98 L 669.26,411.78 L 664.98,417.35 L 667.73,418.52 L 667.74,418.55 L 521.97,418.55 L 542.48,405.33 L 549.66,402.97 L 555.90,389.82 L 555.83,374.71 L 560.06,360.87 L 556.75,347.26 L 557.80,337.37 L 560.63,331.94 L 572.61,328.54 L 586.02,312.01 L 591.35,310.78 L 595.38,303.77 L 605.80,303.24 L 623.94,308.99 L 631.22,305.25 L 635.06,307.75 L 633.62,312.76 L 636.36,316.74 L 644.86,309.71 L 652.10,315.17 Z" fill="#C8D8E8" stroke="#8BAABB" stroke-width="0.8"/>
<path d="M 427.51,418.26 L 435.76,409.78 L 433.69,402.26 L 428.33,399.19 L 431.47,395.32 L 428.05,393.37 L 426.81,395.40 L 419.19,394.64 L 416.50,385.42 L 419.00,376.23 L 417.86,368.85 L 412.75,363.32 L 415.81,357.77 L 414.72,354.34 L 419.46,351.75 L 424.09,355.25 L 425.12,350.91 L 429.33,349.49 L 429.72,341.64 L 437.33,341.60 L 433.85,333.20 L 436.69,321.48 L 445.17,323.97 L 447.48,328.47 L 457.75,327.99 L 478.07,318.78 L 484.75,320.55 L 491.15,325.98 L 504.59,327.08 L 518.32,324.36 L 542.97,312.33 L 563.10,313.16 L 576.93,309.80 L 582.20,304.79 L 585.74,307.65 L 586.54,313.61 L 572.61,328.54 L 560.63,331.94 L 557.80,337.37 L 556.75,347.26 L 560.06,360.87 L 555.83,374.71 L 555.90,389.82 L 549.66,402.97 L 542.48,405.33 L 521.97,418.55 L 427.64,418.55 L 427.51,418.26 Z" fill="#C8D8E8" stroke="#8BAABB" stroke-width="0.8"/>
<path d="M 621.63,189.32 L 621.27,194.39 L 617.42,198.89 L 621.65,209.25 L 620.18,211.24 L 629.77,214.65 L 637.43,213.78 L 650.00,227.03 L 643.70,222.80 L 640.92,225.07 L 639.06,234.61 L 629.31,235.96 L 630.95,241.81 L 633.80,243.65 L 632.89,249.72 L 636.11,253.78 L 636.48,269.28 L 640.90,270.75 L 634.20,285.57 L 644.49,291.64 L 643.70,300.68 L 649.86,305.87 L 648.93,310.93 L 644.86,309.71 L 636.36,316.74 L 633.62,312.76 L 635.06,307.75 L 631.22,305.25 L 623.94,308.99 L 605.80,303.24 L 601.16,304.95 L 597.07,303.09 L 590.93,310.97 L 586.02,312.01 L 585.74,307.65 L 582.20,304.79 L 576.93,309.80 L 563.10,313.16 L 542.97,312.33 L 518.32,324.36 L 504.59,327.08 L 491.15,325.98 L 484.75,320.55 L 478.07,318.78 L 457.75,327.99 L 447.48,328.47 L 445.17,323.97 L 436.69,321.48 L 433.85,333.20 L 437.48,341.32 L 429.72,341.64 L 429.33,349.49 L 425.12,350.91 L 423.59,355.34 L 417.66,352.05 L 419.34,348.67 L 414.42,339.07 L 425.49,327.71 L 424.91,322.36 L 420.51,318.18 L 409.70,324.42 L 408.99,326.28 L 412.38,325.11 L 410.14,329.05 L 402.90,331.11 L 385.84,321.95 L 374.95,329.57 L 366.67,342.12 L 364.37,338.71 L 359.60,344.69 L 358.53,342.82 L 356.05,345.01 L 345.72,344.69 L 336.50,348.38 L 325.05,343.31 L 316.00,330.93 L 298.29,322.13 L 281.20,319.36 L 278.15,323.05 L 278.15,331.55 L 274.43,341.68 L 267.41,339.26 L 254.71,345.15 L 239.67,336.16 L 240.15,330.73 L 237.53,330.89 L 239.67,326.95 L 235.56,324.05 L 232.68,329.05 L 222.84,319.61 L 221.37,322.77 L 217.75,320.87 L 218.74,325.11 L 211.97,330.32 L 209.97,329.05 L 213.37,327.65 L 210.15,326.15 L 214.07,325.15 L 214.12,322.40 L 208.88,324.42 L 203.70,323.89 L 202.44,327.20 L 195.47,326.95 L 194.21,325.36 L 201.77,322.20 L 211.75,323.05 L 212.12,317.75 L 215.35,318.67 L 219.63,314.47 L 199.59,316.61 L 194.75,314.77 L 191.79,316.93 L 191.52,311.54 L 199.67,311.48 L 198.70,309.23 L 200.84,309.00 L 201.00,306.47 L 197.02,307.24 L 197.75,304.71 L 195.28,304.85 L 195.55,301.84 L 189.90,303.70 L 190.36,295.65 L 185.21,293.34 L 191.43,290.70 L 191.16,282.52 L 181.60,280.94 L 178.65,274.83 L 175.40,275.28 L 174.33,278.62 L 168.99,273.33 L 164.88,272.70 L 172.19,267.57 L 168.93,266.86 L 167.91,260.77 L 169.61,259.30 L 175.26,264.67 L 174.16,268.05 L 176.38,271.80 L 177.14,267.67 L 179.56,270.07 L 189.20,267.11 L 183.23,267.51 L 180.07,263.88 L 182.04,265.05 L 180.97,262.05 L 177.58,260.19 L 177.58,257.90 L 182.39,257.44 L 182.23,254.69 L 186.55,252.33 L 179.86,250.20 L 181.66,245.47 L 177.57,239.70 L 174.71,239.28 L 183.08,232.15 L 183.29,229.22 L 160.62,231.86 L 162.89,226.72 L 163.17,215.83 L 178.01,201.39 L 192.41,199.21 L 196.73,204.12 L 204.83,204.35 L 207.99,201.97 L 202.78,198.28 L 204.76,196.90 L 211.93,199.01 L 208.52,201.51 L 209.59,202.65 L 238.50,202.60 L 241.11,200.36 L 231.73,196.36 L 249.96,190.51 L 261.68,190.25 L 243.80,187.71 L 244.04,185.73 L 237.35,180.33 L 238.78,178.79 L 239.52,176.62 L 238.95,176.22 L 241.58,173.52 L 266.84,176.52 L 270.65,174.11 L 285.03,178.67 L 295.42,178.26 L 299.64,175.02 L 299.93,170.72 L 319.73,160.80 L 322.38,157.16 L 350.10,147.13 L 385.87,149.58 L 394.48,144.66 L 399.51,146.97 L 396.27,150.18 L 401.65,157.33 L 408.92,160.20 L 421.15,157.79 L 423.49,165.84 L 430.29,172.74 L 439.78,169.05 L 445.70,171.46 L 449.63,176.43 L 459.80,180.10 L 466.57,177.23 L 469.49,181.95 L 480.86,184.11 L 509.57,177.57 L 528.18,183.95 L 560.76,168.61 L 564.17,164.08 L 571.80,167.19 L 575.33,164.37 L 588.78,166.85 L 593.95,161.59 L 598.10,162.13 L 596.71,164.41 L 607.61,171.31 L 605.50,173.00 L 612.82,175.07 L 621.63,189.32 Z M 212.21,151.45 L 210.30,153.74 L 217.11,163.92 L 240.00,173.45 L 236.95,181.08 L 227.36,182.41 L 225.45,178.65 L 225.17,181.70 L 215.35,178.49 L 209.50,182.32 L 198.60,181.72 L 192.43,191.31 L 176.64,199.64 L 167.82,208.23 L 168.61,209.78 L 162.91,213.08 L 165.90,207.20 L 164.52,203.81 L 180.45,194.72 L 179.44,192.75 L 172.00,194.84 L 160.20,192.75 L 159.66,190.25 L 168.17,182.54 L 167.17,173.08 L 175.29,169.34 L 174.35,160.78 L 167.50,157.40 L 167.52,154.83 L 172.54,153.67 L 174.61,148.86 L 183.32,147.89 L 186.13,144.98 L 192.05,144.68 L 199.18,151.09 L 206.12,147.94 L 211.47,148.69 L 212.21,151.45 Z M 160.75,222.16 L 158.22,220.51 L 158.91,220.14 L 160.75,222.16 Z M 158.54,210.34 L 152.68,211.68 L 150.00,210.70 L 156.86,206.78 L 158.54,210.34 Z M 204.05,193.94 L 200.71,195.57 L 198.66,193.47 L 204.05,193.94 Z M 202.06,199.84 L 200.06,198.93 L 200.77,197.96 L 202.06,199.84 Z" fill="#4A90D9" stroke="#1a5fa8" stroke-width="1.2"/>
<path d="M 286.59,272.88 L 285.63,277.07 L 288.52,282.44 L 286.16,287.07 L 283.43,283.48 L 285.52,279.53 L 282.99,276.36 L 286.59,272.88 Z" fill="#A8C8E8" stroke="none"/>
<path d="M 301.38,291.59 L 297.71,283.78 L 300.32,282.88 L 307.73,292.03 L 302.07,295.20 L 301.38,291.59 Z" fill="#A8C8E8" stroke="none"/>
<path d="M 654.01,197.49 L 654.47,193.99 L 665.65,199.22 L 672.32,208.18 L 662.51,209.98 L 660.45,201.51 L 654.01,197.49 Z" fill="#A8C8E8" stroke="none"/>
<path d="M 22.76,183.56 L 19.31,184.37 L 19.18,175.49 L 23.47,177.58 L 22.76,183.56 Z" fill="#A8C8E8" stroke="none"/>
<path d="M 29.00,186.56 L 28.99,186.66 L 28.99,186.65 L 29.00,186.56 Z" fill="#A8C8E8" stroke="none"/>
<path d="M 29.01,186.73 L 29.02,186.74 L 29.01,186.74 L 29.01,186.73 Z" fill="#A8C8E8" stroke="none"/>
<path d="M 29.11,186.73 L 29.14,186.74 L 29.18,186.77 L 29.11,186.73 Z" fill="#A8C8E8" stroke="none"/>
<path d="M 25.79,188.88 L 27.28,180.82 L 31.34,185.99 L 25.79,188.88 Z" fill="#A8C8E8" stroke="none"/>
<path d="M 30.80,190.59 L 28.11,192.09 L 29.62,188.61 L 31.24,188.11 L 30.80,190.59 Z" fill="#A8C8E8" stroke="none"/>
<path d="M 697.29,184.49 L 689.98,184.72 L 694.83,182.18 L 692.67,179.66 L 697.42,179.16 L 711.45,188.97 L 697.29,184.49 Z" fill="#A8C8E8" stroke="none"/>
<path d="M 604.85,418.25 L 605.06,404.74 L 615.60,418.55 L 605.08,418.55 L 604.85,418.25 Z" fill="#A8C8E8" stroke="none"/>
<path d="M 480.99,262.03 L 484.53,257.23 L 482.05,263.50 L 500.25,270.42 L 495.75,272.42 L 493.25,267.83 L 482.16,264.97 L 480.99,262.03 Z" fill="#A8C8E8" stroke="none"/>
<path d="M 486.32,301.67 L 480.99,299.47 L 478.68,295.68 L 481.11,296.48 L 481.09,292.88 L 483.69,293.74 L 482.33,299.06 L 491.49,293.56 L 489.63,290.59 L 489.64,288.94 L 493.32,293.55 L 498.34,286.11 L 497.06,292.59 L 488.24,297.26 L 486.32,301.67 Z" fill="#A8C8E8" stroke="none"/>
<path d="M 480.31,356.50 L 480.52,354.02 L 474.15,349.50 L 472.86,344.39 L 477.35,337.99 L 478.11,340.82 L 475.49,342.72 L 475.30,346.88 L 486.78,353.01 L 480.31,356.50 Z" fill="#A8C8E8" stroke="none"/>
<path d="M 520.46,260.58 L 518.83,261.62 L 513.67,260.19 L 508.03,262.20 L 510.81,258.61 L 509.89,255.91 L 508.32,256.50 L 504.73,253.29 L 500.81,254.48 L 500.00,252.57 L 492.59,254.99 L 489.63,251.91 L 488.98,248.94 L 491.19,251.05 L 491.78,245.90 L 494.35,250.54 L 492.75,251.22 L 495.08,251.22 L 496.14,247.53 L 496.27,250.89 L 505.17,252.17 L 510.37,256.07 L 513.35,254.02 L 513.87,250.07 L 514.06,253.55 L 519.24,253.29 L 512.17,255.05 L 511.43,258.55 L 520.46,260.58 Z" fill="#A8C8E8" stroke="none"/>
<path d="M 674.59,306.13 L 672.27,305.30 L 669.85,311.54 L 664.35,308.62 L 661.65,290.17 L 656.61,286.89 L 656.61,282.52 L 660.25,278.30 L 655.14,277.48 L 656.28,273.70 L 664.49,273.18 L 667.70,276.54 L 666.06,288.89 L 667.95,291.27 L 674.77,291.27 L 675.67,294.16 L 672.28,294.19 L 678.60,302.24 L 674.59,306.13 Z M 669.18,301.66 L 668.02,301.04 L 667.68,302.26 L 669.22,304.16 L 669.18,301.66 Z M 670.43,297.96 L 669.77,299.34 L 671.01,300.26 L 670.43,297.96 Z" fill="#A8C8E8" stroke="none"/>
<path d="M 352.75,253.55 L 355.90,256.83 L 356.73,252.16 L 361.02,260.67 L 357.26,262.05 L 355.76,265.84 L 345.24,257.32 L 346.90,251.73 L 350.31,249.96 L 349.01,244.10 L 353.17,247.02 L 352.75,253.55 Z" fill="#A8C8E8" stroke="none"/>
<path d="M 601.11,270.56 L 599.57,265.12 L 594.75,267.38 L 584.51,265.06 L 589.59,261.13 L 588.90,257.37 L 605.22,255.11 L 608.21,252.16 L 605.34,253.29 L 604.69,250.85 L 613.29,248.47 L 620.02,250.31 L 610.87,254.05 L 604.97,261.56 L 611.06,263.90 L 610.81,267.35 L 606.23,271.47 L 601.11,270.56 Z" fill="#A8C8E8" stroke="none"/>
</svg>