<svg xmlns="http://www.w3.org/2000/svg" width="800" height="500" viewBox="0 0 800 500">
<rect width="800" height="500" fill="#A8C8E8"/>
<path d="M 359.94,448.44 L 359.35,444.31 L 364.85,441.16 L 365.51,443.45 L 362.49,445.17 L 364.92,449.18 L 359.94,448.44 Z M 361.27,446.88 L 361.27,446.37 L 360.98,446.41 L 361.27,446.88 Z" fill="#E8E0D0" stroke="#B8B0A0" stroke-width="0.5"/>
<path d="M 362.00,448.12 L 361.45,447.66 L 362.37,448.20 L 362.00,448.12 Z M 360.98,446.41 L 361.27,446.37 L 361.27,446.88 L 360.98,446.41 Z M 357.44,455.97 L 340.64,465.77 L 341.30,463.36 L 337.96,462.01 L 333.98,464.76 L 327.49,460.95 L 322.60,443.46 L 326.31,444.95 L 332.74,437.77 L 337.08,444.15 L 352.49,439.10 L 353.61,448.20 L 355.19,444.89 L 359.98,447.69 L 357.44,455.97 Z M 368.31,444.25 L 370.33,448.83 L 363.51,448.90 L 362.63,444.62 L 368.31,444.25 Z" fill="#E8E0D0" stroke="#B8B0A0" stroke-width="0.5"/>
<path d="M 410.60,496.94 L 411.23,481.40 L 419.54,470.07 L 419.19,464.53 L 426.81,465.66 L 428.05,462.66 L 431.47,465.56 L 428.33,471.30 L 433.69,475.84 L 435.76,486.99 L 427.51,499.57 L 427.68,500.00 L 407.79,500.00 L 410.60,496.94 Z" fill="#E8E0D0" stroke="#B8B0A0" stroke-width="0.5"/>
<path d="M 720.41,9.63 L 716.83,17.62 L 717.84,23.06 L 721.50,5.44 L 725.60,4.97 L 720.10,25.48 L 720.16,33.78 L 722.57,33.62 L 719.97,37.94 L 719.34,47.50 L 725.51,55.16 L 726.27,65.34 L 735.90,80.93 L 743.50,101.49 L 748.52,106.07 L 743.06,119.28 L 734.79,125.20 L 730.03,137.81 L 721.57,137.93 L 714.29,133.09 L 710.97,120.66 L 707.98,120.43 L 700.51,105.77 L 695.98,108.99 L 694.88,104.22 L 679.44,96.94 L 671.53,88.34 L 673.29,73.07 L 663.47,71.95 L 658.25,63.37 L 651.37,60.52 L 649.12,67.99 L 646.67,62.31 L 642.19,60.98 L 627.35,70.85 L 621.68,67.23 L 623.72,61.17 L 606.87,51.41 L 598.36,40.13 L 565.65,37.81 L 541.48,21.69 L 530.54,19.86 L 526.35,21.09 L 523.47,28.98 L 502.70,0.00 L 717.40,0.00 L 720.41,9.63 Z M 727.20,2.29 L 723.68,0.59 L 724.03,0.00 L 728.70,0.00 L 727.20,2.29 Z" fill="#E8E0D0" stroke="#B8B0A0" stroke-width="0.5"/>
<path d="M 20.45,105.85 L 22.59,94.27 L 30.78,88.60 L 35.75,93.89 L 39.60,86.06 L 61.34,79.91 L 68.19,91.93 L 76.22,97.39 L 80.69,112.49 L 78.69,117.67 L 78.90,130.75 L 73.94,132.47 L 72.73,141.22 L 55.58,140.61 L 43.39,154.84 L 27.30,155.68 L 20.82,152.50 L 15.15,136.44 L 16.19,128.22 L 13.69,120.79 L 16.05,119.02 L 15.15,111.61 L 16.90,104.68 L 20.45,105.85 Z" fill="#E8E0D0" stroke="#B8B0A0" stroke-width="0.5"/>
<path d="M 15.15,111.61 L 16.05,119.02 L 13.69,120.79 L 16.19,128.22 L 15.15,136.44 L 20.82,152.50 L 27.07,153.42 L 26.73,159.87 L 29.16,166.13 L 26.55,174.46 L 22.21,176.97 L 19.00,193.31 L 9.87,198.65 L 12.46,207.06 L 9.40,207.76 L 9.83,212.08 L 6.89,216.08 L 1.80,213.60 L 2.34,204.69 L 0.00,202.93 L 0.00,72.51 L 3.11,70.57 L 8.30,82.42 L 14.67,86.87 L 17.74,100.32 L 15.15,111.61 Z" fill="#E8E0D0" stroke="#B8B0A0" stroke-width="0.5"/>
<path d="M 4.80,65.82 L 2.99,60.92 L 14.53,55.74 L 14.09,51.03 L 19.45,44.29 L 17.86,38.68 L 22.83,35.43 L 23.99,40.05 L 30.62,44.02 L 35.01,54.19 L 38.87,56.16 L 38.09,61.29 L 48.39,66.10 L 41.68,81.32 L 42.94,86.09 L 37.78,87.21 L 36.02,93.80 L 30.78,88.60 L 22.59,94.27 L 19.88,106.13 L 16.90,104.68 L 15.17,87.84 L 8.30,82.42 L 3.78,71.12 L 4.80,65.82 Z" fill="#E8E0D0" stroke="#B8B0A0" stroke-width="0.5"/>
<path d="M 226.14,11.61 L 216.81,10.58 L 210.54,6.23 L 208.97,0.00 L 228.36,0.00 L 226.14,11.61 Z M 203.76,1.28 L 203.03,0.00 L 206.62,0.00 L 203.76,1.28 Z M 153.08,12.07 L 143.21,16.16 L 93.10,4.67 L 77.54,6.72 L 77.47,0.00 L 161.42,0.00 L 153.08,12.07 Z" fill="#E8E0D0" stroke="#B8B0A0" stroke-width="0.5"/>
<path d="M 63.45,8.29 L 67.87,24.91 L 80.04,39.84 L 73.31,54.18 L 65.49,57.83 L 66.93,61.80 L 65.43,69.82 L 68.34,74.53 L 65.40,82.12 L 61.34,79.91 L 43.22,86.30 L 41.68,81.32 L 44.33,79.10 L 48.17,65.00 L 38.09,61.29 L 38.87,56.16 L 35.01,54.19 L 30.62,44.02 L 23.99,40.05 L 23.49,35.72 L 17.86,38.68 L 18.90,45.94 L 14.09,51.03 L 14.53,55.74 L 11.11,57.14 L 10.89,53.17 L 0.24,42.87 L 0.00,42.78 L 0.00,0.00 L 64.62,0.00 L 63.45,8.29 Z" fill="#E8E0D0" stroke="#B8B0A0" stroke-width="0.5"/>
<path d="M 0.24,42.87 L 11.32,53.97 L 6.88,61.37 L 2.78,61.33 L 4.80,65.82 L 1.61,72.91 L 0.00,73.64 L 0.00,42.78 L 0.24,42.87 Z" fill="#E8E0D0" stroke="#B8B0A0" stroke-width="0.5"/>
<path d="M 364.51,441.16 L 361.63,445.52 L 355.74,443.45 L 354.08,446.95 L 352.42,437.16 L 337.83,443.15 L 334.06,438.36 L 338.82,438.37 L 339.54,427.27 L 358.87,429.19 L 383.22,412.62 L 366.48,431.57 L 365.13,438.90 L 368.06,443.91 L 364.51,441.16 Z M 331.86,438.87 L 331.25,438.40 L 331.68,437.88 L 331.86,438.87 Z" fill="#E8E0D0" stroke="#B8B0A0" stroke-width="0.5"/>
<path d="M 368.06,443.91 L 368.31,444.25 L 365.93,444.55 L 368.06,443.91 Z M 360.20,447.81 L 355.19,444.89 L 353.61,448.20 L 352.49,439.10 L 337.08,444.15 L 334.12,440.43 L 333.57,437.94 L 337.83,443.15 L 352.42,437.16 L 353.81,446.84 L 355.74,443.45 L 360.20,447.81 Z M 332.06,439.41 L 330.78,438.50 L 331.86,438.87 L 332.06,439.41 Z" fill="#E8E0D0" stroke="#B8B0A0" stroke-width="0.5"/>
<path d="M 342.41,468.58 L 340.08,468.58 L 339.37,464.19 L 335.36,463.57 L 337.96,462.01 L 342.41,468.58 Z" fill="#E8E0D0" stroke="#B8B0A0" stroke-width="0.5"/>
<path d="M 655.95,138.33 L 660.26,141.07 L 656.87,145.08 L 665.99,147.31 L 670.69,155.02 L 664.80,164.35 L 668.78,176.02 L 680.62,186.86 L 677.86,197.51 L 670.17,199.48 L 674.44,200.96 L 685.97,218.26 L 694.85,220.18 L 690.58,227.38 L 696.90,237.08 L 691.48,238.09 L 694.01,243.73 L 694.58,253.69 L 684.71,254.61 L 680.06,240.27 L 680.79,235.39 L 674.86,229.41 L 675.03,219.84 L 666.40,223.46 L 661.83,217.94 L 658.92,219.16 L 655.92,209.44 L 649.15,212.80 L 637.43,196.27 L 629.77,197.57 L 620.18,192.51 L 621.65,189.56 L 617.42,174.19 L 621.27,167.51 L 621.63,159.99 L 614.31,142.87 L 633.63,136.72 L 651.07,137.77 L 650.36,134.56 L 655.10,133.71 L 655.95,138.33 Z M 654.18,145.94 L 655.45,147.02 L 655.53,144.45 L 654.18,145.94 Z M 660.80,149.22 L 659.67,148.49 L 659.92,149.63 L 660.80,149.22 Z M 667.56,165.60 L 669.69,165.73 L 669.33,167.03 L 667.56,165.60 Z" fill="#C8D8E8" stroke="#8BAABB" stroke-width="0.8"/>
<path d="M 655.53,144.45 L 655.45,147.02 L 654.18,145.94 L 655.53,144.45 Z M 661.56,126.03 L 667.18,126.75 L 674.47,131.47 L 672.95,133.42 L 676.48,137.78 L 686.66,138.21 L 694.13,145.94 L 697.38,142.47 L 699.14,134.01 L 689.36,123.58 L 685.86,115.54 L 686.10,111.30 L 689.35,110.48 L 692.41,103.82 L 695.36,104.62 L 695.98,108.99 L 700.51,105.77 L 707.98,120.43 L 710.97,120.66 L 714.29,133.09 L 728.92,138.29 L 734.79,125.20 L 743.66,118.34 L 748.52,106.07 L 760.62,127.53 L 764.62,145.32 L 773.59,158.74 L 773.59,165.42 L 791.84,173.28 L 795.85,186.29 L 791.64,180.92 L 782.85,179.61 L 772.38,190.32 L 770.58,212.47 L 766.96,221.80 L 770.15,233.39 L 766.65,231.05 L 764.82,246.12 L 761.58,249.64 L 763.37,243.66 L 758.67,238.66 L 757.47,251.03 L 755.12,254.23 L 756.23,276.01 L 749.27,277.91 L 744.24,266.84 L 741.50,267.74 L 733.22,255.28 L 734.92,250.39 L 741.07,247.59 L 736.17,234.41 L 742.25,228.94 L 732.65,212.72 L 709.95,232.45 L 694.58,253.69 L 694.01,243.73 L 691.48,238.09 L 696.90,237.08 L 690.58,227.38 L 694.85,220.18 L 685.97,218.26 L 674.44,200.96 L 670.17,199.48 L 677.86,197.51 L 680.62,186.86 L 668.78,176.02 L 664.80,164.35 L 670.69,155.02 L 665.99,147.31 L 656.87,145.08 L 660.26,141.07 L 655.95,138.33 L 655.10,133.71 L 661.56,126.03 Z M 669.33,167.03 L 669.69,165.73 L 667.56,165.60 L 669.33,167.03 Z M 666.50,247.60 L 663.17,237.83 L 659.03,237.18 L 649.15,212.80 L 655.92,209.44 L 658.92,219.16 L 661.83,217.94 L 666.40,223.46 L 675.62,220.47 L 674.86,229.41 L 680.79,235.39 L 680.06,240.27 L 684.71,254.61 L 666.50,247.60 Z M 659.92,149.63 L 659.67,148.49 L 660.80,149.22 L 659.92,149.63 Z M 794.87,178.07 L 794.16,173.99 L 795.05,174.36 L 794.87,178.07 Z" fill="#C8D8E8" stroke="#8BAABB" stroke-width="0.8"/>
<path d="M 160.20,113.23 L 163.38,126.66 L 155.71,133.03 L 138.92,136.18 L 129.71,128.22 L 126.79,130.84 L 121.72,126.23 L 119.88,120.20 L 108.56,121.47 L 107.47,125.69 L 96.44,129.69 L 78.27,131.45 L 80.67,111.32 L 76.22,97.39 L 68.19,91.93 L 63.33,82.74 L 68.25,75.56 L 65.43,69.82 L 66.93,61.80 L 65.49,57.83 L 73.31,54.18 L 79.95,38.63 L 67.87,24.91 L 63.45,8.29 L 64.62,0.00 L 77.47,0.00 L 77.54,6.72 L 93.10,4.67 L 143.21,16.16 L 153.08,12.07 L 161.42,0.00 L 203.03,0.00 L 203.76,1.28 L 206.62,0.00 L 208.97,0.00 L 210.54,6.23 L 216.81,10.58 L 226.14,11.61 L 225.67,25.93 L 223.39,30.26 L 219.43,27.20 L 214.14,29.03 L 211.49,36.95 L 208.52,38.46 L 208.22,62.96 L 204.05,62.76 L 201.33,67.02 L 201.89,70.56 L 196.74,74.44 L 203.69,77.70 L 204.66,85.48 L 211.47,99.73 L 206.12,98.62 L 199.18,103.28 L 192.05,93.79 L 186.13,94.23 L 183.32,98.55 L 174.61,99.98 L 172.54,107.11 L 167.52,108.84 L 167.50,112.66 L 160.20,113.23 Z" fill="#C8D8E8" stroke="#8BAABB" stroke-width="0.8"/>
<path d="M 561.65,61.50 L 554.49,58.72 L 551.17,49.04 L 546.81,45.40 L 533.20,41.52 L 530.17,32.65 L 524.08,29.16 L 526.00,21.88 L 541.48,21.69 L 565.65,37.81 L 598.36,40.13 L 606.87,51.41 L 623.72,61.17 L 621.68,67.23 L 627.35,70.85 L 642.19,60.98 L 646.67,62.31 L 649.12,67.99 L 651.37,60.52 L 659.10,63.82 L 663.47,71.95 L 674.36,74.87 L 671.53,88.34 L 679.79,97.22 L 691.78,102.59 L 689.73,110.00 L 686.10,111.30 L 686.19,117.78 L 699.31,134.74 L 696.88,143.49 L 693.56,145.98 L 687.13,138.44 L 680.35,139.79 L 673.58,134.84 L 674.47,131.47 L 662.40,125.61 L 653.87,135.09 L 650.36,134.56 L 651.07,137.77 L 633.63,136.72 L 614.57,142.96 L 612.82,138.85 L 605.50,135.78 L 607.61,133.28 L 596.71,123.05 L 597.61,119.32 L 591.97,119.34 L 588.78,126.66 L 575.33,122.99 L 571.80,127.16 L 564.17,122.56 L 570.78,107.25 L 561.65,61.50 Z" fill="#C8D8E8" stroke="#8BAABB" stroke-width="0.8"/>
<path d="M 43.39,154.84 L 55.58,140.61 L 72.73,141.22 L 74.72,131.49 L 96.44,129.69 L 112.65,120.19 L 119.88,120.20 L 121.72,126.23 L 126.79,130.84 L 129.71,128.22 L 140.14,136.25 L 161.95,130.35 L 163.06,121.82 L 160.05,113.85 L 164.70,110.83 L 174.35,117.67 L 175.42,128.27 L 174.72,131.70 L 167.17,135.91 L 168.17,149.94 L 160.93,161.35 L 158.95,157.95 L 160.20,156.60 L 146.72,154.63 L 136.29,147.68 L 127.51,155.48 L 122.98,155.22 L 119.75,150.09 L 109.43,161.74 L 99.55,160.54 L 98.73,164.44 L 104.34,171.15 L 101.94,172.74 L 103.12,177.40 L 106.62,178.75 L 106.86,175.62 L 116.84,190.40 L 114.39,191.62 L 110.97,184.28 L 104.90,179.80 L 99.52,180.11 L 99.15,185.28 L 106.33,192.08 L 106.33,200.31 L 102.03,197.56 L 98.08,187.14 L 91.89,184.09 L 89.32,186.64 L 89.94,190.50 L 99.97,201.46 L 89.86,199.94 L 88.25,186.27 L 77.52,178.75 L 75.78,172.98 L 80.00,170.46 L 78.10,165.88 L 69.45,174.67 L 71.59,179.61 L 69.24,195.29 L 89.42,238.87 L 85.76,242.61 L 81.80,242.95 L 86.11,238.87 L 83.96,233.02 L 78.77,229.85 L 75.90,236.79 L 80.39,244.34 L 79.50,247.37 L 82.35,246.01 L 75.01,253.89 L 70.56,252.08 L 68.04,254.88 L 81.54,260.43 L 83.17,265.83 L 88.43,265.12 L 87.89,269.91 L 90.41,270.96 L 89.19,272.54 L 95.26,272.67 L 95.42,275.04 L 98.01,279.88 L 105.28,283.14 L 108.66,289.36 L 106.27,291.52 L 108.84,308.33 L 107.41,315.00 L 95.09,298.99 L 95.45,295.30 L 80.31,303.51 L 85.20,307.14 L 83.60,310.54 L 84.84,316.86 L 89.23,320.78 L 88.59,316.70 L 90.85,315.67 L 90.76,321.80 L 94.17,325.57 L 87.30,327.47 L 84.84,332.53 L 82.35,329.76 L 83.89,325.10 L 73.29,319.24 L 83.42,358.35 L 81.37,364.94 L 85.56,375.72 L 79.72,371.36 L 74.87,357.74 L 72.23,356.94 L 69.40,358.26 L 66.97,367.05 L 67.15,377.80 L 63.58,371.77 L 64.45,362.09 L 57.92,351.58 L 58.32,346.40 L 52.84,347.79 L 53.54,357.67 L 51.26,361.08 L 46.68,356.52 L 46.75,350.31 L 43.08,341.66 L 45.83,327.73 L 30.98,303.71 L 36.72,296.57 L 37.98,286.64 L 44.46,289.92 L 50.39,280.63 L 76.97,300.65 L 79.80,298.68 L 77.19,295.18 L 84.96,293.67 L 86.28,289.70 L 75.37,286.33 L 71.21,278.21 L 69.01,283.01 L 64.81,275.04 L 64.31,280.56 L 59.26,281.54 L 53.22,277.12 L 41.73,282.90 L 36.63,272.91 L 37.00,277.92 L 32.27,282.49 L 27.89,264.55 L 24.54,257.60 L 21.13,257.29 L 23.12,254.40 L 22.19,249.86 L 30.43,254.57 L 32.84,253.99 L 32.38,247.93 L 30.43,244.68 L 29.73,247.37 L 24.15,245.98 L 23.57,242.11 L 21.50,246.35 L 23.81,249.62 L 22.10,248.93 L 21.29,250.30 L 14.69,233.73 L 8.25,227.92 L 8.98,222.48 L 5.57,221.42 L 6.83,216.71 L 2.08,213.27 L 8.51,214.79 L 9.40,207.76 L 12.46,207.06 L 9.87,198.65 L 19.00,193.31 L 22.21,176.97 L 28.70,170.15 L 27.30,155.68 L 43.39,154.84 Z M 110.09,456.31 L 107.77,454.61 L 108.66,453.62 L 110.09,456.31 Z M 185.10,427.27 L 180.95,428.54 L 182.31,425.94 L 185.10,427.27 Z M 166.04,442.11 L 162.64,446.98 L 133.17,450.50 L 125.85,450.50 L 125.96,443.24 L 117.06,437.57 L 93.98,432.44 L 95.60,418.40 L 99.20,421.54 L 99.81,412.87 L 101.78,420.45 L 111.34,417.92 L 111.34,421.52 L 108.44,422.26 L 113.15,423.22 L 115.44,429.74 L 125.39,425.81 L 144.52,432.44 L 152.69,430.37 L 151.29,437.98 L 153.45,441.35 L 160.38,435.47 L 163.48,436.77 L 167.18,431.38 L 166.04,442.11 Z M 188.47,426.96 L 186.69,417.75 L 190.68,405.78 L 189.01,415.51 L 190.45,421.15 L 188.47,426.96 Z M 89.08,404.00 L 89.14,405.78 L 88.16,404.27 L 89.08,404.00 Z M 83.15,385.45 L 80.20,390.44 L 77.87,380.42 L 78.99,377.87 L 83.15,385.45 Z M 152.73,377.26 L 155.01,379.16 L 152.17,379.44 L 152.73,377.26 Z M 213.37,394.53 L 204.05,401.50 L 204.69,393.07 L 202.78,389.39 L 208.41,380.33 L 217.29,375.72 L 213.37,394.53 Z M 145.19,376.13 L 144.82,380.21 L 142.12,379.50 L 144.08,377.80 L 142.66,373.38 L 145.19,376.13 Z M 196.10,378.08 L 192.67,374.10 L 194.21,373.38 L 196.10,378.08 Z M 170.97,368.24 L 166.66,371.70 L 165.62,368.00 L 169.34,367.90 L 168.25,365.49 L 170.97,368.24 Z M 206.93,370.97 L 204.76,368.58 L 206.90,365.15 L 206.93,370.97 Z M 131.32,366.17 L 131.73,367.56 L 128.52,364.13 L 131.32,366.17 Z M 137.47,362.09 L 134.44,365.49 L 135.41,362.43 L 137.47,362.09 Z M 48.58,360.03 L 48.52,362.43 L 47.81,361.78 L 48.58,360.03 Z M 120.49,359.01 L 120.82,362.96 L 115.10,364.84 L 115.81,359.71 L 117.70,362.43 L 117.24,359.37 L 120.49,359.01 Z M 123.95,358.68 L 123.78,359.88 L 122.44,358.35 L 123.95,358.68 Z M 140.69,357.67 L 143.37,361.78 L 142.42,364.70 L 139.81,361.41 L 140.69,357.67 Z M 46.51,357.86 L 47.25,357.67 L 46.91,358.35 L 46.51,357.86 Z M 121.52,358.32 L 120.17,356.55 L 121.23,355.14 L 121.52,358.32 Z M 144.35,354.56 L 145.17,353.90 L 145.16,355.67 L 144.35,354.56 Z M 194.21,354.27 L 184.71,359.73 L 184.21,363.45 L 182.76,361.59 L 192.25,352.04 L 194.21,354.27 Z M 149.65,351.86 L 150.55,352.87 L 150.28,353.46 L 149.65,351.86 Z M 160.75,352.77 L 155.65,357.67 L 152.41,358.91 L 151.98,357.67 L 158.95,350.50 L 160.75,352.77 Z M 133.91,348.99 L 133.35,347.06 L 134.58,345.35 L 133.91,348.99 Z M 126.56,349.98 L 125.12,352.23 L 123.33,345.02 L 126.56,349.98 Z M 183.71,346.06 L 182.75,345.38 L 182.04,342.98 L 186.07,347.64 L 182.61,350.15 L 183.71,346.06 Z M 153.06,341.28 L 154.48,340.60 L 154.53,342.35 L 153.06,341.28 Z M 137.60,348.19 L 135.38,346.81 L 138.91,339.89 L 140.34,339.89 L 137.60,348.19 Z M 147.85,346.57 L 144.43,351.52 L 141.60,343.32 L 146.42,337.68 L 147.85,346.57 Z M 120.15,337.29 L 120.46,340.97 L 117.59,341.28 L 120.15,337.29 Z M 84.58,333.93 L 84.68,335.29 L 82.91,333.77 L 84.58,333.93 Z M 93.42,331.51 L 90.22,332.37 L 92.55,329.65 L 95.78,328.97 L 93.42,331.51 Z M 117.95,323.19 L 119.17,326.91 L 116.17,332.03 L 117.95,323.19 Z M 140.69,326.93 L 140.84,323.13 L 144.77,324.04 L 140.69,326.93 Z M 131.74,327.44 L 129.59,329.34 L 129.94,322.02 L 131.74,327.44 Z M 93.52,320.92 L 94.17,321.46 L 91.84,321.46 L 93.52,320.92 Z M 132.28,313.63 L 139.45,318.06 L 138.32,320.90 L 132.28,313.63 Z M 116.90,316.33 L 113.75,320.96 L 114.12,315.30 L 116.35,313.26 L 116.90,316.33 Z M 164.82,318.99 L 158.18,321.75 L 160.73,315.67 L 168.25,313.26 L 164.82,318.99 Z M 93.09,313.63 L 91.53,309.50 L 91.56,309.18 L 94.70,308.87 L 93.09,313.63 Z M 179.62,315.34 L 177.29,311.90 L 174.42,313.72 L 173.95,310.55 L 179.86,306.87 L 186.69,308.87 L 179.62,315.34 Z M 27.86,311.09 L 28.11,312.62 L 25.43,310.91 L 23.38,315.00 L 18.27,304.39 L 20.60,301.36 L 27.86,311.09 Z M 131.57,313.26 L 124.67,299.34 L 126.91,297.62 L 131.47,302.32 L 131.57,313.26 Z M 93.44,299.28 L 91.66,298.23 L 95.42,300.00 L 91.11,302.69 L 93.44,299.28 Z M 15.40,292.11 L 13.72,283.87 L 13.19,288.90 L 11.11,288.56 L 12.53,279.50 L 15.92,280.82 L 16.13,274.02 L 18.55,284.78 L 19.89,283.58 L 22.92,291.09 L 21.25,294.53 L 15.40,292.11 Z M 21.87,279.13 L 22.03,281.54 L 20.05,280.86 L 18.27,273.65 L 21.87,279.13 Z M 25.79,270.28 L 25.43,270.28 L 26.43,267.59 L 25.79,270.28 Z M 161.72,286.54 L 159.05,289.83 L 155.92,286.64 L 158.51,278.74 L 154.85,268.72 L 163.07,270.59 L 161.72,286.54 Z M 148.94,268.78 L 147.32,270.96 L 146.34,267.87 L 148.94,268.78 Z M 16.31,269.26 L 20.01,255.28 L 20.79,266.40 L 16.31,269.26 Z M 121.36,259.65 L 121.11,255.50 L 117.95,253.89 L 118.60,249.43 L 124.23,257.29 L 121.36,259.65 Z M 121.36,298.23 L 116.27,299.03 L 111.89,293.13 L 107.66,277.63 L 97.40,277.42 L 96.48,269.84 L 85.72,256.29 L 76.10,255.52 L 88.25,245.70 L 95.95,259.26 L 110.62,265.12 L 113.15,286.28 L 121.91,289.70 L 121.36,298.23 Z M 92.73,237.16 L 93.84,238.92 L 92.47,241.25 L 92.73,237.16 Z M 95.78,237.47 L 101.14,241.62 L 99.16,243.97 L 95.78,237.47 Z M 7.05,237.72 L 7.36,238.87 L 5.70,237.39 L 7.05,237.72 Z M 103.84,239.76 L 102.21,240.53 L 105.44,233.39 L 103.84,239.76 Z M 172.88,246.85 L 171.57,242.15 L 170.21,242.66 L 173.09,248.42 L 163.12,246.70 L 161.09,243.66 L 166.11,238.03 L 160.47,243.29 L 154.67,236.46 L 163.07,228.94 L 168.25,228.94 L 174.79,245.36 L 172.88,246.85 Z M 133.91,220.65 L 132.28,224.55 L 132.06,221.03 L 133.91,220.65 Z M 4.85,229.65 L 0.00,226.52 L 0.00,216.54 L 0.19,216.66 L 0.43,224.25 L 4.49,226.22 L 4.85,229.65 Z M 0.73,208.44 L 0.00,210.30 L 0.00,208.62 L 0.73,208.44 Z M 141.79,208.57 L 139.22,202.06 L 138.28,207.79 L 133.91,206.09 L 133.55,198.23 L 140.12,200.32 L 144.43,196.19 L 141.79,208.57 Z M 147.49,178.07 L 144.26,173.99 L 147.72,172.35 L 150.72,175.69 L 147.49,178.07 Z M 126.93,167.50 L 123.33,169.57 L 120.06,166.16 L 123.33,157.95 L 127.10,161.38 L 126.93,167.50 Z M 103.66,355.71 L 103.54,355.81 L 103.34,355.24 L 103.66,355.71 Z M 92.65,352.12 L 92.56,352.24 L 92.19,350.98 L 92.65,352.12 Z M 201.01,385.18 L 201.07,385.91 L 198.47,386.47 L 201.01,385.18 Z M 190.08,368.96 L 188.30,368.90 L 188.50,367.38 L 190.08,368.96 Z M 180.99,342.55 L 178.98,338.35 L 180.99,338.12 L 180.99,342.55 Z M 173.13,331.18 L 173.62,333.77 L 173.07,333.64 L 172.80,328.89 L 174.43,329.75 L 173.13,331.18 Z M 125.31,317.88 L 123.79,317.22 L 125.26,316.01 L 125.31,317.88 Z M 26.68,266.38 L 24.82,268.61 L 25.29,266.30 L 26.68,266.38 Z M 21.93,266.38 L 22.98,267.97 L 21.72,266.45 L 21.33,265.14 L 23.01,264.49 L 21.93,266.38 Z M 109.01,231.37 L 108.21,233.02 L 107.73,230.80 L 109.01,231.37 Z" fill="#C8D8E8" stroke="#8BAABB" stroke-width="0.8"/>
<path d="M 659.03,237.18 L 663.17,237.83 L 666.50,247.60 L 684.45,254.66 L 695.62,253.30 L 709.95,232.45 L 732.65,212.72 L 742.25,228.94 L 736.17,234.41 L 741.07,247.59 L 734.92,250.39 L 733.22,255.28 L 741.50,267.74 L 744.24,266.84 L 749.27,277.91 L 756.23,276.01 L 758.06,302.45 L 762.97,316.40 L 771.05,322.80 L 790.74,328.06 L 794.05,339.82 L 800.00,346.23 L 800.00,500.00 L 667.74,500.00 L 667.73,499.97 L 664.98,498.23 L 669.26,489.96 L 669.60,481.37 L 665.93,474.77 L 668.19,472.29 L 668.12,467.43 L 673.36,469.45 L 671.43,461.00 L 672.46,456.71 L 677.25,451.73 L 678.89,442.74 L 685.10,441.53 L 684.30,431.22 L 680.22,422.47 L 681.26,413.50 L 689.70,407.06 L 682.74,404.38 L 674.60,406.69 L 669.14,397.57 L 663.41,397.57 L 661.28,377.19 L 656.93,376.18 L 654.82,370.68 L 655.96,362.92 L 650.43,356.95 L 652.10,346.66 L 648.58,342.31 L 649.86,332.87 L 643.87,325.99 L 644.49,311.76 L 634.20,302.76 L 640.90,280.78 L 636.48,278.59 L 636.11,255.61 L 632.89,249.58 L 633.80,240.59 L 630.95,237.85 L 629.31,229.18 L 639.06,227.17 L 640.92,213.02 L 643.70,209.66 L 650.00,215.94 L 659.03,237.18 Z" fill="#C8D8E8" stroke="#8BAABB" stroke-width="0.8"/>
<path d="M 652.10,346.66 L 650.63,357.82 L 656.24,363.99 L 654.82,370.68 L 657.23,376.71 L 661.28,377.19 L 663.41,397.57 L 669.14,397.57 L 674.60,406.69 L 682.74,404.38 L 689.70,407.06 L 681.26,413.50 L 680.22,422.47 L 684.30,431.22 L 685.10,441.53 L 678.89,442.74 L 677.25,451.73 L 672.46,456.71 L 671.43,461.00 L 673.36,469.45 L 668.12,467.43 L 668.19,472.29 L 665.93,474.77 L 669.60,481.37 L 669.26,489.96 L 664.98,498.23 L 667.73,499.97 L 667.74,500.00 L 521.97,500.00 L 542.48,480.39 L 549.66,476.89 L 555.90,457.40 L 555.83,434.98 L 560.06,414.45 L 556.75,394.27 L 557.80,379.60 L 560.63,371.55 L 572.61,366.49 L 586.02,341.97 L 591.35,340.15 L 595.38,329.75 L 605.80,328.96 L 623.94,337.50 L 631.22,331.95 L 635.06,335.66 L 633.62,343.09 L 636.36,348.99 L 644.86,338.57 L 652.10,346.66 Z" fill="#C8D8E8" stroke="#8BAABB" stroke-width="0.8"/>
<path d="M 427.51,499.57 L 435.76,486.99 L 433.69,475.84 L 428.33,471.30 L 431.47,465.56 L 428.05,462.66 L 426.81,465.66 L 419.19,464.53 L 416.50,450.87 L 419.00,437.23 L 417.86,426.28 L 412.75,418.09 L 415.81,409.85 L 414.72,404.76 L 419.46,400.92 L 424.09,406.11 L 425.12,399.68 L 429.33,397.57 L 429.72,385.93 L 437.33,385.86 L 433.85,373.41 L 436.69,356.02 L 445.17,359.72 L 447.48,366.39 L 457.75,365.68 L 478.07,352.02 L 484.75,354.64 L 491.15,362.70 L 504.59,364.33 L 518.32,360.30 L 542.97,342.45 L 563.10,343.69 L 576.93,338.70 L 582.20,331.27 L 585.74,335.51 L 586.54,344.35 L 572.61,366.49 L 560.63,371.55 L 557.80,379.60 L 556.75,394.27 L 560.06,414.45 L 555.83,434.98 L 555.90,457.40 L 549.66,476.89 L 542.48,480.39 L 521.97,500.00 L 427.64,500.00 L 427.51,499.57 Z" fill="#C8D8E8" stroke="#8BAABB" stroke-width="0.8"/>
<path d="M 621.63,159.99 L 621.27,167.51 L 617.42,174.19 L 621.65,189.56 L 620.18,192.51 L 629.77,197.57 L 637.43,196.27 L 650.00,215.94 L 643.70,209.66 L 640.92,213.02 L 639.06,227.17 L 629.31,229.18 L 630.95,237.85 L 633.80,240.59 L 632.89,249.58 L 636.11,255.61 L 636.48,278.59 L 640.90,280.78 L 634.20,302.76 L 644.49,311.76 L 643.70,325.18 L 649.86,332.87 L 648.93,340.38 L 644.86,338.57 L 636.36,348.99 L 633.62,343.09 L 635.06,335.66 L 631.22,331.95 L 623.94,337.50 L 605.80,328.96 L 601.16,331.50 L 597.07,328.75 L 590.93,340.43 L 586.02,341.97 L 585.74,335.51 L 582.20,331.27 L 576.93,338.70 L 563.10,343.69 L 542.97,342.45 L 518.32,360.30 L 504.59,364.33 L 491.15,362.70 L 484.75,354.64 L 478.07,352.02 L 457.75,365.68 L 447.48,366.39 L 445.17,359.72 L 436.69,356.02 L 433.85,373.41 L 437.48,385.45 L 429.72,385.93 L 429.33,397.57 L 425.12,399.68 L 423.59,406.25 L 417.66,401.37 L 419.34,396.35 L 414.42,382.11 L 425.49,365.27 L 424.91,357.33 L 420.51,351.12 L 409.70,360.39 L 408.99,363.14 L 412.38,361.41 L 410.14,367.25 L 402.90,370.32 L 385.84,356.73 L 374.95,368.03 L 366.67,386.63 L 364.37,381.58 L 359.60,390.44 L 358.53,387.68 L 356.05,390.92 L 345.72,390.44 L 336.50,395.92 L 325.05,388.41 L 316.00,370.04 L 298.29,356.99 L 281.20,352.87 L 278.15,358.35 L 278.15,370.97 L 274.43,385.99 L 267.41,382.39 L 254.71,391.13 L 239.67,377.80 L 240.15,369.74 L 237.53,369.97 L 239.67,364.13 L 235.56,359.84 L 232.68,367.25 L 222.84,353.25 L 221.37,357.94 L 217.75,355.12 L 218.74,361.41 L 211.97,369.14 L 209.97,367.25 L 213.37,365.18 L 210.15,362.96 L 214.07,361.46 L 214.12,357.39 L 208.88,360.39 L 203.70,359.60 L 202.44,364.50 L 195.47,364.13 L 194.21,361.78 L 201.77,357.09 L 211.75,358.35 L 212.12,350.50 L 215.35,351.86 L 219.63,345.62 L 199.59,348.79 L 194.75,346.07 L 191.79,349.28 L 191.52,341.28 L 199.67,341.19 L 198.70,337.85 L 200.84,337.51 L 201.00,333.77 L 197.02,334.90 L 197.75,331.15 L 195.28,331.35 L 195.55,326.89 L 189.90,329.65 L 190.36,317.72 L 185.21,314.29 L 191.43,310.37 L 191.16,298.23 L 181.60,295.89 L 178.65,286.84 L 175.40,287.49 L 174.33,292.46 L 168.99,284.60 L 164.88,283.67 L 172.19,276.07 L 168.93,275.00 L 167.91,265.98 L 169.61,263.79 L 175.26,271.77 L 174.16,276.78 L 176.38,282.33 L 177.14,276.20 L 179.56,279.77 L 189.20,275.38 L 183.23,275.97 L 180.07,270.59 L 182.04,272.32 L 180.97,267.87 L 177.58,265.12 L 177.58,261.72 L 182.39,261.04 L 182.23,256.95 L 186.55,253.45 L 179.86,250.30 L 181.66,243.29 L 177.57,234.72 L 174.71,234.10 L 183.08,223.52 L 183.29,219.18 L 160.62,223.09 L 162.89,215.47 L 163.17,199.31 L 178.01,177.89 L 192.41,174.67 L 196.73,181.95 L 204.83,182.28 L 207.99,178.75 L 202.78,173.28 L 204.76,171.24 L 211.93,174.36 L 208.52,178.07 L 209.59,179.76 L 238.50,179.70 L 241.11,176.37 L 231.73,170.43 L 249.96,161.77 L 261.68,161.38 L 243.80,157.60 L 244.04,154.67 L 237.35,146.66 L 238.78,144.38 L 239.52,141.16 L 238.95,140.57 L 241.58,136.56 L 266.84,141.01 L 270.65,137.44 L 285.03,144.20 L 295.42,143.60 L 299.64,138.79 L 299.93,132.41 L 319.73,117.69 L 322.38,112.30 L 350.10,97.41 L 385.87,101.05 L 394.48,93.75 L 399.51,97.18 L 396.27,101.94 L 401.65,112.55 L 408.92,116.81 L 421.15,113.23 L 423.49,125.17 L 430.29,135.40 L 439.78,129.93 L 445.70,133.51 L 449.63,140.87 L 459.80,146.33 L 466.57,142.07 L 469.49,149.07 L 480.86,152.27 L 509.57,142.57 L 528.18,152.02 L 560.76,129.28 L 564.17,122.56 L 571.80,127.16 L 575.33,122.99 L 588.78,126.66 L 593.95,118.87 L 598.10,119.66 L 596.71,123.05 L 607.61,133.28 L 605.50,135.78 L 612.82,138.85 L 621.63,159.99 Z M 212.21,103.83 L 210.30,107.21 L 217.11,122.32 L 240.00,136.46 L 236.95,147.77 L 227.36,149.75 L 225.45,144.17 L 225.17,148.70 L 215.35,143.94 L 209.50,149.62 L 198.60,148.72 L 192.43,162.95 L 176.64,175.31 L 167.82,188.04 L 168.61,190.35 L 162.91,195.24 L 165.90,186.52 L 164.52,181.48 L 180.45,168.01 L 179.44,165.09 L 172.00,168.18 L 160.20,165.09 L 159.66,161.38 L 168.17,149.94 L 167.17,135.91 L 175.29,130.37 L 174.35,117.67 L 167.50,112.66 L 167.52,108.84 L 172.54,107.11 L 174.61,99.98 L 183.32,98.55 L 186.13,94.23 L 192.05,93.79 L 199.18,103.28 L 206.12,98.62 L 211.47,99.73 L 212.21,103.83 Z M 160.75,208.71 L 158.22,206.26 L 158.91,205.71 L 160.75,208.71 Z M 158.54,191.18 L 152.68,193.16 L 150.00,191.71 L 156.86,185.90 L 158.54,191.18 Z M 204.05,166.85 L 200.71,169.26 L 198.66,166.16 L 204.05,166.85 Z M 202.06,175.61 L 200.06,174.26 L 200.77,172.82 L 202.06,175.61 Z" fill="#4A90D9" stroke="#1a5fa8" stroke-width="1.2"/>
<path d="M 286.59,283.94 L 285.63,290.15 L 288.52,298.12 L 286.16,304.99 L 283.43,299.66 L 285.52,293.80 L 282.99,289.11 L 286.59,283.94 Z" fill="#A8C8E8" stroke="none"/>
<path d="M 301.38,311.69 L 297.71,300.10 L 300.32,298.77 L 307.73,312.33 L 302.07,317.04 L 301.38,311.69 Z" fill="#A8C8E8" stroke="none"/>
<path d="M 654.01,172.11 L 654.47,166.92 L 665.65,174.68 L 672.32,187.98 L 662.51,190.65 L 660.45,178.08 L 654.01,172.11 Z" fill="#A8C8E8" stroke="none"/>
<path d="M 22.76,151.45 L 19.31,152.65 L 19.18,139.48 L 23.47,142.57 L 22.76,151.45 Z" fill="#A8C8E8" stroke="none"/>
<path d="M 29.00,155.90 L 28.99,156.05 L 28.99,156.04 L 29.00,155.90 Z" fill="#A8C8E8" stroke="none"/>
<path d="M 29.01,156.15 L 29.02,156.17 L 29.01,156.17 L 29.01,156.15 Z" fill="#A8C8E8" stroke="none"/>
<path d="M 29.11,156.15 L 29.14,156.17 L 29.18,156.21 L 29.11,156.15 Z" fill="#A8C8E8" stroke="none"/>
<path d="M 25.79,159.34 L 27.28,147.38 L 31.34,155.05 L 25.79,159.34 Z" fill="#A8C8E8" stroke="none"/>
<path d="M 30.80,161.87 L 28.11,164.10 L 29.62,158.94 L 31.24,158.21 L 30.80,161.87 Z" fill="#A8C8E8" stroke="none"/>
<path d="M 697.29,152.82 L 689.98,153.18 L 694.83,149.41 L 692.67,145.67 L 697.42,144.92 L 711.45,159.48 L 697.29,152.82 Z" fill="#A8C8E8" stroke="none"/>
<path d="M 604.85,499.56 L 605.06,479.53 L 615.60,500.00 L 605.08,500.00 L 604.85,499.56 Z" fill="#A8C8E8" stroke="none"/>
<path d="M 480.99,267.84 L 484.53,260.73 L 482.05,270.03 L 500.25,280.29 L 495.75,283.25 L 493.25,276.45 L 482.16,272.21 L 480.99,267.84 Z" fill="#A8C8E8" stroke="none"/>
<path d="M 486.32,326.65 L 480.99,323.38 L 478.68,317.76 L 481.11,318.95 L 481.09,313.60 L 483.69,314.87 L 482.33,322.78 L 491.49,314.61 L 489.63,310.21 L 489.64,307.76 L 493.32,314.59 L 498.34,303.56 L 497.06,313.17 L 488.24,320.09 L 486.32,326.65 Z" fill="#A8C8E8" stroke="none"/>
<path d="M 480.31,407.96 L 480.52,404.28 L 474.15,397.58 L 472.86,390.00 L 477.35,380.51 L 478.11,384.71 L 475.49,387.54 L 475.30,393.70 L 486.78,402.79 L 480.31,407.96 Z" fill="#A8C8E8" stroke="none"/>
<path d="M 520.46,265.70 L 518.83,267.24 L 513.67,265.11 L 508.03,268.09 L 510.81,262.77 L 509.89,258.76 L 508.32,259.64 L 504.73,254.88 L 500.81,256.65 L 500.00,253.81 L 492.59,257.40 L 489.63,252.84 L 488.98,248.43 L 491.19,251.56 L 491.78,243.92 L 494.35,250.80 L 492.75,251.81 L 495.08,251.81 L 496.14,246.34 L 496.27,251.31 L 505.17,253.22 L 510.37,259.00 L 513.35,255.96 L 513.87,250.10 L 514.06,255.26 L 519.24,254.88 L 512.17,257.49 L 511.43,262.68 L 520.46,265.70 Z" fill="#A8C8E8" stroke="none"/>
<path d="M 674.59,333.26 L 672.27,332.03 L 669.85,341.28 L 664.35,336.96 L 661.65,309.58 L 656.61,304.72 L 656.61,298.24 L 660.25,291.98 L 655.14,290.76 L 656.28,285.16 L 664.49,284.38 L 667.70,289.37 L 666.06,307.69 L 667.95,311.22 L 674.77,311.22 L 675.67,315.50 L 672.28,315.55 L 678.60,327.48 L 674.59,333.26 Z M 669.18,326.63 L 668.02,325.71 L 667.68,327.51 L 669.22,330.33 L 669.18,326.63 Z M 670.43,321.13 L 669.77,323.19 L 671.01,324.55 L 670.43,321.13 Z" fill="#A8C8E8" stroke="none"/>
<path d="M 352.75,255.26 L 355.90,260.13 L 356.73,253.21 L 361.02,265.83 L 357.26,267.87 L 355.76,273.50 L 345.24,260.86 L 346.90,252.56 L 350.31,249.94 L 349.01,241.25 L 353.17,245.58 L 352.75,255.26 Z" fill="#A8C8E8" stroke="none"/>
<path d="M 601.11,280.50 L 599.57,272.43 L 594.75,275.78 L 584.51,272.34 L 589.59,266.51 L 588.90,260.93 L 605.22,257.58 L 608.21,253.21 L 605.34,254.88 L 604.69,251.26 L 613.29,247.74 L 620.02,250.46 L 610.87,256.01 L 604.97,267.15 L 611.06,270.61 L 610.81,275.73 L 606.23,281.85 L 601.11,280.50 Z" fill="#A8C8E8" stroke="none"/>
</svg>