<svg xmlns="http://www.w3.org/2000/svg" width="800" height="500" viewBox="0 0 800 500">
<rect width="800" height="500" fill="#A8C8E8"/>
<path d="M 258.04,252.72 L 305.40,244.19 L 287.48,258.06 L 242.93,261.15 L 230.29,277.12 L 180.03,271.36 L 154.35,274.99 L 154.35,247.66 L 258.04,252.72 Z M 164.35,298.19 L 185.52,339.52 L 180.91,347.12 L 162.36,346.45 L 155.40,353.39 L 154.35,352.56 L 154.35,297.63 L 164.35,298.19 Z M 158.73,360.59 L 161.20,349.06 L 171.68,352.40 L 186.76,345.65 L 192.68,324.90 L 232.79,405.86 L 242.23,363.97 L 247.64,369.59 L 248.61,416.54 L 258.03,402.75 L 251.75,370.46 L 277.52,379.59 L 247.72,367.49 L 251.55,356.89 L 307.60,392.47 L 305.40,414.49 L 315.48,397.58 L 321.13,423.03 L 323.02,407.77 L 308.10,386.97 L 344.28,394.03 L 337.49,375.78 L 370.42,401.17 L 358.01,385.03 L 367.83,388.34 L 403.62,426.00 L 427.08,425.39 L 456.39,444.94 L 468.20,467.22 L 422.42,500.00 L 154.35,500.00 L 154.35,358.38 L 158.73,360.59 Z M 441.53,487.69 L 433.88,500.00 L 428.41,500.00 L 441.53,487.69 Z M 452.49,500.00 L 445.76,500.00 L 457.77,485.89 L 452.49,500.00 Z M 476.93,486.07 L 459.02,497.99 L 461.51,486.89 L 476.93,486.07 Z M 233.14,377.83 L 231.71,384.31 L 228.08,379.92 L 233.14,377.83 Z M 218.94,364.25 L 214.75,352.69 L 216.18,352.27 L 218.94,364.25 Z M 245.59,357.80 L 235.97,362.51 L 237.75,356.15 L 245.59,357.80 Z M 180.42,311.52 L 161.79,282.95 L 167.00,288.05 L 180.42,311.52 Z" fill="#E8E0D0" stroke="#B8B0A0" stroke-width="0.5"/>
<path d="M 338.28,40.57 L 313.88,46.16 L 332.16,10.58 L 341.15,13.96 L 338.28,40.57 Z" fill="#E8E0D0" stroke="#B8B0A0" stroke-width="0.5"/>
<path d="M 435.87,338.36 L 292.67,351.14 L 364.30,315.87 L 360.19,261.36 L 332.76,249.53 L 449.48,229.16 L 434.90,250.69 L 435.87,338.36 Z M 506.95,162.07 L 458.66,178.09 L 484.18,157.39 L 507.33,148.86 L 506.95,162.07 Z" fill="#4A90D9" stroke="#1a5fa8" stroke-width="1.2"/>
</svg>