<svg xmlns="http://www.w3.org/2000/svg" width="800" height="500" viewBox="0 0 800 500">
<rect width="800" height="500" fill="#A8C8E8"/>
<path d="M 541.47,330.94 L 541.08,326.07 L 542.58,331.07 L 541.47,330.94 Z M 472.86,292.28 L 474.12,289.81 L 473.28,293.44 L 472.86,292.28 Z M 371.40,219.79 L 371.59,220.36 L 371.61,220.80 L 371.40,219.79 Z M 302.60,144.71 L 302.91,144.67 L 302.87,145.20 L 302.60,144.71 Z M 387.11,130.11 L 386.89,129.58 L 388.50,130.11 L 387.11,130.11 Z M 286.55,93.75 L 288.47,96.05 L 287.38,94.89 L 286.55,93.75 Z M 599.59,406.08 L 599.52,406.25 L 598.97,403.42 L 599.59,406.08 Z M 596.88,400.09 L 597.18,401.43 L 596.39,399.87 L 596.88,400.09 Z M 497.08,242.80 L 496.85,241.99 L 498.99,243.77 L 497.08,242.80 Z" fill="#4A90D9" stroke="#1a5fa8" stroke-width="1.2"/>
</svg>