<svg xmlns="http://www.w3.org/2000/svg" width="800" height="500" viewBox="0 0 800 500">
<rect width="800" height="500" fill="#A8C8E8"/>
<path d="M 672.89,330.94 L 672.13,326.07 L 675.03,331.07 L 672.89,330.94 Z M 540.55,292.28 L 542.96,289.81 L 541.35,293.44 L 540.55,292.28 Z M 344.83,219.79 L 345.20,220.36 L 345.23,220.80 L 344.83,219.79 Z M 212.13,144.71 L 212.73,144.67 L 212.65,145.20 L 212.13,144.71 Z M 375.14,130.11 L 374.71,129.58 L 377.82,130.11 L 375.14,130.11 Z M 181.15,93.75 L 184.86,96.05 L 182.75,94.89 L 181.15,93.75 Z M 785.00,406.08 L 784.87,406.25 L 783.81,403.42 L 785.00,406.08 Z M 779.76,400.09 L 780.35,401.43 L 778.83,399.87 L 779.76,400.09 Z M 587.26,242.80 L 586.82,241.99 L 590.95,243.77 L 587.26,242.80 Z" fill="#4A90D9" stroke="#1a5fa8" stroke-width="1.2"/>
</svg>