<svg xmlns="http://www.w3.org/2000/svg" width="800" height="500" viewBox="0 0 800 500">
<rect width="800" height="500" fill="#A8C8E8"/>
<path d="M 358.51,2.23 L 341.92,29.05 L 339.97,29.16 L 338.23,26.57 L 326.54,22.54 L 321.35,18.17 L 310.98,13.94 L 323.97,30.46 L 331.01,32.58 L 340.43,30.78 L 347.05,23.31 L 362.00,27.19 L 351.06,39.27 L 353.06,56.37 L 341.12,56.37 L 344.79,67.69 L 352.17,65.85 L 358.53,86.80 L 352.17,88.07 L 351.88,76.70 L 344.01,85.60 L 346.06,76.05 L 340.94,79.34 L 335.34,65.27 L 328.92,64.01 L 311.74,81.05 L 320.29,86.80 L 320.11,95.91 L 326.60,89.38 L 332.23,97.51 L 324.72,103.66 L 312.89,100.15 L 311.45,109.65 L 305.51,106.93 L 308.89,99.88 L 300.45,98.99 L 305.36,94.19 L 292.50,97.37 L 300.90,103.04 L 290.26,113.10 L 299.13,119.65 L 303.40,115.28 L 304.55,123.60 L 295.56,124.24 L 298.98,131.88 L 278.98,134.40 L 274.89,124.24 L 275.17,131.52 L 266.77,130.55 L 272.36,141.01 L 282.96,141.88 L 272.71,149.65 L 270.88,161.97 L 265.24,164.51 L 254.84,147.71 L 252.60,156.32 L 236.85,162.35 L 231.89,148.29 L 227.64,158.40 L 216.15,161.30 L 223.21,164.71 L 220.13,171.20 L 200.59,169.19 L 210.43,176.82 L 221.93,174.81 L 219.63,182.20 L 225.96,180.84 L 229.00,188.19 L 210.43,195.20 L 209.27,209.84 L 196.93,220.98 L 201.17,210.41 L 190.06,206.63 L 192.44,216.72 L 183.67,236.75 L 181.92,221.38 L 168.83,217.35 L 175.06,227.91 L 157.03,232.57 L 155.31,247.98 L 152.97,240.84 L 147.51,246.68 L 147.51,0.00 L 365.05,0.00 L 358.51,2.23 Z M 178.16,236.47 L 170.10,251.03 L 160.68,251.83 L 165.11,234.00 L 178.16,236.47 Z M 337.06,27.80 L 337.38,29.47 L 324.88,27.30 L 320.79,18.31 L 324.88,23.03 L 337.06,27.80 Z M 233.66,162.93 L 229.85,172.72 L 224.22,169.85 L 226.13,160.98 L 233.66,162.93 Z M 367.25,82.47 L 359.71,74.80 L 369.03,71.64 L 361.77,64.96 L 367.77,58.93 L 374.81,70.32 L 367.25,82.47 Z M 347.89,104.63 L 340.74,98.74 L 342.92,96.60 L 347.89,104.63 Z M 331.44,79.42 L 328.22,80.81 L 326.91,75.26 L 332.42,67.51 L 331.44,79.42 Z M 355.64,21.49 L 350.01,18.58 L 353.86,15.58 L 355.64,21.49 Z" fill="#E8E0D0" stroke="#B8B0A0" stroke-width="0.5"/>
<path d="M 551.39,483.96 L 551.83,483.15 L 551.98,483.86 L 551.39,483.96 Z M 553.47,478.97 L 553.03,480.04 L 552.89,479.18 L 553.47,478.97 Z" fill="#E8E0D0" stroke="#B8B0A0" stroke-width="0.5"/>
<path d="M 641.98,171.77 L 636.92,171.34 L 638.35,168.66 L 641.98,171.77 Z" fill="#E8E0D0" stroke="#B8B0A0" stroke-width="0.5"/>
<path d="M 540.97,140.39 L 547.33,157.13 L 524.07,205.32 L 506.50,291.47 L 468.20,348.70 L 459.05,406.25 L 448.37,403.21 L 440.48,370.13 L 431.21,358.14 L 420.10,352.67 L 415.89,349.35 L 411.99,343.77 L 416.10,348.78 L 401.90,301.99 L 392.49,300.89 L 401.77,271.47 L 403.45,234.22 L 477.61,115.28 L 510.15,107.31 L 509.57,97.60 L 521.82,93.75 L 557.81,119.75 L 540.97,140.39 Z M 522.40,396.14 L 514.29,389.82 L 520.61,389.82 L 522.40,396.14 Z M 257.56,172.51 L 242.35,175.31 L 242.19,168.27 L 251.70,164.08 L 257.56,172.51 Z M 359.71,254.16 L 350.86,257.14 L 347.73,254.98 L 357.98,249.11 L 359.71,254.16 Z M 345.54,244.77 L 344.73,252.11 L 340.55,252.90 L 345.54,244.77 Z M 349.27,243.42 L 351.06,242.10 L 353.59,244.50 L 349.27,243.42 Z M 511.37,334.90 L 515.20,335.50 L 514.64,338.72 L 511.37,334.90 Z M 397.59,254.25 L 398.39,254.01 L 388.47,264.91 L 397.59,254.25 Z" fill="#4A90D9" stroke="#1a5fa8" stroke-width="1.2"/>
</svg>