<svg xmlns="http://www.w3.org/2000/svg" width="800" height="500" viewBox="0 0 800 500">
<rect width="800" height="500" fill="#A8C8E8"/>
<path d="M 334.28,2.23 L 307.98,29.05 L 304.90,29.16 L 302.15,26.57 L 283.62,22.54 L 275.39,18.17 L 258.97,13.94 L 279.56,30.46 L 290.70,32.58 L 305.62,30.78 L 316.11,23.31 L 339.79,27.19 L 322.47,39.27 L 325.63,56.37 L 306.71,56.37 L 312.54,67.69 L 324.22,65.85 L 334.31,86.80 L 324.22,88.07 L 323.76,76.70 L 311.30,85.60 L 314.54,76.05 L 306.44,79.34 L 297.56,65.27 L 287.39,64.01 L 260.18,81.05 L 273.72,86.80 L 273.44,95.91 L 283.72,89.38 L 292.64,97.51 L 280.74,103.66 L 262.00,100.15 L 259.72,109.65 L 250.31,106.93 L 255.66,99.88 L 242.29,98.99 L 250.08,94.19 L 229.70,97.37 L 243.00,103.04 L 226.15,113.10 L 240.19,119.65 L 246.97,115.28 L 248.78,123.60 L 234.54,124.24 L 239.96,131.88 L 208.28,134.40 L 201.79,124.24 L 202.25,131.52 L 188.94,130.55 L 197.79,141.01 L 214.58,141.88 L 198.35,149.65 L 195.44,161.97 L 186.51,164.51 L 170.03,147.71 L 166.48,156.32 L 141.53,162.35 L 133.67,148.29 L 126.94,158.40 L 108.75,161.30 L 119.92,164.71 L 115.04,171.20 L 84.09,169.19 L 99.67,176.82 L 117.89,174.81 L 114.25,182.20 L 124.29,180.84 L 129.10,188.19 L 99.67,195.20 L 97.84,209.84 L 78.29,220.98 L 85.01,210.41 L 67.41,206.63 L 71.17,216.72 L 57.29,236.75 L 54.52,221.38 L 33.78,217.35 L 43.64,227.91 L 15.08,232.57 L 12.36,247.98 L 8.65,240.84 L 0.00,246.68 L 0.00,0.00 L 344.64,0.00 L 334.28,2.23 Z M 48.56,236.47 L 35.79,251.03 L 20.87,251.83 L 27.89,234.00 L 48.56,236.47 Z M 300.29,27.80 L 300.79,29.47 L 281.00,27.30 L 274.51,18.31 L 281.00,23.03 L 300.29,27.80 Z M 136.48,162.93 L 130.45,172.72 L 121.52,169.85 L 124.55,160.98 L 136.48,162.93 Z M 348.11,82.47 L 336.18,74.80 L 350.93,71.64 L 339.43,64.96 L 348.94,58.93 L 360.09,70.32 L 348.11,82.47 Z M 317.45,104.63 L 306.12,98.74 L 309.58,96.60 L 317.45,104.63 Z M 291.39,79.42 L 286.28,80.81 L 284.21,75.26 L 292.94,67.51 L 291.39,79.42 Z M 329.72,21.49 L 320.80,18.58 L 326.90,15.58 L 329.72,21.49 Z" fill="#E8E0D0" stroke="#B8B0A0" stroke-width="0.5"/>
<path d="M 639.84,483.96 L 640.52,483.15 L 640.78,483.86 L 639.84,483.96 Z M 643.14,478.97 L 642.44,480.04 L 642.22,479.18 L 643.14,478.97 Z" fill="#E8E0D0" stroke="#B8B0A0" stroke-width="0.5"/>
<path d="M 783.35,171.77 L 775.33,171.34 L 777.60,168.66 L 783.35,171.77 Z" fill="#E8E0D0" stroke="#B8B0A0" stroke-width="0.5"/>
<path d="M 623.33,140.39 L 633.41,157.13 L 596.56,205.32 L 568.71,291.47 L 508.04,348.70 L 493.55,406.25 L 476.63,403.21 L 464.13,370.13 L 449.45,358.14 L 431.85,352.67 L 425.18,349.35 L 418.99,343.77 L 425.51,348.78 L 403.02,301.99 L 388.11,300.89 L 402.80,271.47 L 405.46,234.22 L 522.96,115.28 L 574.51,107.31 L 573.58,97.60 L 592.99,93.75 L 650.00,119.75 L 623.33,140.39 Z M 593.90,396.14 L 581.06,389.82 L 591.07,389.82 L 593.90,396.14 Z M 174.34,172.51 L 150.25,175.31 L 150.00,168.27 L 165.06,164.08 L 174.34,172.51 Z M 336.18,254.16 L 322.15,257.14 L 317.19,254.98 L 333.42,249.11 L 336.18,254.16 Z M 313.73,244.77 L 312.44,252.11 L 305.82,252.90 L 313.73,244.77 Z M 319.63,243.42 L 322.47,242.10 L 326.47,244.50 L 319.63,243.42 Z M 576.43,334.90 L 582.51,335.50 L 581.61,338.72 L 576.43,334.90 Z M 396.18,254.25 L 397.45,254.01 L 381.73,264.91 L 396.18,254.25 Z" fill="#4A90D9" stroke="#1a5fa8" stroke-width="1.2"/>
</svg>