<svg xmlns="http://www.w3.org/2000/svg" width="800" height="500" viewBox="0 0 800 500">
<rect width="800" height="500" fill="#A8C8E8"/>
<path d="M 794.97,41.62 L 719.07,94.16 L 718.21,91.09 L 715.17,100.27 L 712.64,99.08 L 712.98,101.80 L 699.41,114.43 L 698.86,110.84 L 674.43,90.40 L 674.43,0.00 L 800.00,0.00 L 800.00,38.87 L 794.97,41.62 Z" fill="#E8E0D0" stroke="#B8B0A0" stroke-width="0.5"/>
<path d="M 800.00,423.63 L 800.00,424.92 L 795.25,424.62 L 793.92,421.26 L 800.00,423.63 Z M 785.01,412.37 L 775.12,407.09 L 777.76,396.30 L 783.09,396.90 L 782.29,402.87 L 785.01,412.37 Z" fill="#E8E0D0" stroke="#B8B0A0" stroke-width="0.5"/>
<path d="M 199.14,142.06 L 203.94,142.17 L 199.13,148.06 L 202.40,150.74 L 217.57,151.76 L 217.09,159.59 L 199.87,168.44 L 197.59,175.33 L 194.45,175.37 L 180.56,189.41 L 168.40,194.98 L 153.62,194.58 L 150.71,184.20 L 145.11,178.57 L 145.99,153.74 L 134.84,146.46 L 136.90,141.34 L 148.68,142.22 L 150.72,147.33 L 167.82,146.72 L 175.83,142.81 L 177.35,132.50 L 185.68,135.83 L 197.46,132.09 L 205.38,134.93 L 199.14,142.06 Z" fill="#C8D8E8" stroke="#8BAABB" stroke-width="0.8"/>
<path d="M 237.63,3.84 L 201.94,29.00 L 191.17,31.99 L 187.39,38.60 L 178.05,41.05 L 177.75,50.55 L 167.07,62.94 L 160.39,92.08 L 161.43,105.47 L 145.93,113.34 L 141.30,118.71 L 141.50,129.03 L 129.42,134.68 L 129.01,138.36 L 130.54,142.27 L 136.72,144.95 L 135.20,146.96 L 145.99,153.74 L 145.11,178.57 L 150.71,184.20 L 153.92,196.11 L 150.00,208.27 L 162.99,231.10 L 156.85,239.77 L 159.63,248.80 L 167.24,257.74 L 184.51,265.61 L 193.67,273.17 L 214.26,303.58 L 130.45,311.99 L 130.62,320.22 L 106.30,334.95 L 113.66,338.05 L 121.87,350.09 L 116.08,362.54 L 121.92,374.87 L 115.39,380.45 L 106.65,400.78 L 113.29,410.66 L 124.23,414.14 L 137.01,425.39 L 157.91,427.55 L 156.77,421.42 L 171.39,418.85 L 170.63,456.73 L 163.21,455.73 L 165.54,451.66 L 161.28,450.03 L 143.72,456.19 L 135.16,455.00 L 122.30,440.26 L 114.86,440.14 L 109.46,429.54 L 88.58,425.07 L 83.99,422.00 L 74.16,422.91 L 64.38,412.09 L 55.99,408.80 L 53.55,401.83 L 46.52,402.59 L 43.10,411.72 L 32.74,414.74 L 19.11,411.79 L 0.00,411.54 L 0.00,0.00 L 234.84,0.00 L 237.63,3.84 Z" fill="#C8D8E8" stroke="#8BAABB" stroke-width="0.8"/>
<path d="M 674.43,90.40 L 698.86,110.84 L 699.41,114.43 L 688.06,122.36 L 685.19,121.01 L 675.92,124.51 L 675.61,120.41 L 672.88,125.40 L 669.08,122.21 L 674.40,130.32 L 672.85,132.28 L 669.18,130.01 L 665.17,131.40 L 667.10,134.85 L 659.61,138.97 L 652.43,138.66 L 640.79,142.75 L 637.66,150.47 L 640.82,151.85 L 635.87,160.16 L 629.85,163.24 L 628.82,161.73 L 624.31,170.33 L 620.49,168.87 L 624.36,172.61 L 620.73,179.08 L 616.12,179.08 L 618.88,180.58 L 616.82,182.90 L 615.07,180.64 L 610.57,182.65 L 615.31,184.75 L 603.18,199.80 L 598.87,198.81 L 593.93,201.21 L 530.06,171.46 L 527.24,167.73 L 522.32,167.33 L 521.70,164.40 L 526.87,161.53 L 524.38,153.72 L 356.08,94.24 L 358.30,69.55 L 355.60,61.86 L 364.23,54.95 L 367.12,47.48 L 377.85,41.31 L 382.30,33.54 L 396.29,29.19 L 395.44,24.63 L 404.16,16.90 L 405.68,9.26 L 401.00,0.00 L 673.88,0.00 L 674.43,90.40 Z M 682.32,126.53 L 675.05,129.01 L 673.95,126.76 L 677.76,124.71 L 682.32,126.53 Z" fill="#C8D8E8" stroke="#8BAABB" stroke-width="0.8"/>
<path d="M 388.14,402.09 L 385.76,409.44 L 376.53,418.86 L 382.64,434.37 L 384.93,452.95 L 389.21,457.80 L 399.23,458.49 L 409.17,463.97 L 443.50,491.51 L 446.07,498.40 L 445.03,500.00 L 384.42,500.00 L 382.97,489.34 L 375.87,483.86 L 362.68,486.99 L 347.81,486.83 L 344.41,490.10 L 328.01,474.35 L 321.71,470.40 L 315.39,474.05 L 309.74,467.36 L 304.74,466.09 L 305.05,462.30 L 300.25,460.83 L 306.99,458.85 L 315.32,449.36 L 316.01,441.06 L 312.75,436.77 L 316.52,432.20 L 331.17,429.87 L 339.12,424.71 L 331.12,423.91 L 326.77,418.42 L 329.53,407.73 L 328.75,402.53 L 324.97,401.67 L 325.76,397.38 L 332.99,390.05 L 325.86,381.85 L 337.94,378.53 L 345.73,372.94 L 339.39,362.87 L 329.08,358.00 L 330.85,351.24 L 323.29,344.57 L 314.81,345.33 L 312.53,338.44 L 323.18,341.91 L 328.91,341.36 L 335.15,345.13 L 348.45,344.04 L 356.43,347.93 L 360.97,340.93 L 374.70,347.97 L 384.53,357.40 L 386.54,371.85 L 390.76,378.05 L 388.00,388.23 L 394.84,395.30 L 400.28,396.18 L 403.79,401.95 L 388.14,402.09 Z M 394.69,415.53 L 391.39,417.99 L 389.90,416.58 L 391.62,414.37 L 394.69,415.53 Z M 388.62,413.99 L 387.89,416.47 L 384.87,414.69 L 388.62,413.99 Z" fill="#C8D8E8" stroke="#8BAABB" stroke-width="0.8"/>
<path d="M 324.52,472.98 L 344.41,490.10 L 347.81,486.83 L 362.68,486.99 L 375.87,483.86 L 383.70,490.26 L 384.86,500.00 L 195.56,500.00 L 324.52,472.98 Z M 446.07,498.40 L 443.50,491.51 L 409.17,463.97 L 399.23,458.49 L 389.21,457.80 L 384.93,452.95 L 382.64,434.37 L 376.32,420.17 L 388.14,402.09 L 429.30,403.09 L 442.56,397.29 L 457.94,402.10 L 459.36,405.67 L 478.53,406.25 L 487.28,401.95 L 496.83,401.70 L 501.74,404.89 L 516.50,406.20 L 532.12,400.78 L 537.57,393.52 L 551.91,393.32 L 562.51,397.29 L 580.69,390.13 L 596.07,390.32 L 607.78,384.98 L 620.71,383.29 L 653.31,370.05 L 653.14,372.63 L 659.81,376.14 L 652.18,378.33 L 658.25,380.62 L 652.67,383.96 L 653.13,386.34 L 655.81,385.66 L 653.13,390.71 L 646.04,394.48 L 651.30,396.46 L 649.58,404.18 L 653.75,409.68 L 653.96,420.31 L 650.64,422.03 L 655.59,425.63 L 651.86,428.95 L 655.63,429.79 L 659.45,436.67 L 648.83,441.78 L 652.09,444.11 L 652.85,441.96 L 657.13,442.76 L 654.06,458.33 L 657.13,459.92 L 654.61,462.00 L 659.61,473.51 L 654.58,477.37 L 656.96,480.24 L 661.67,477.89 L 663.91,480.47 L 663.30,482.47 L 658.97,482.47 L 658.66,489.06 L 661.86,485.16 L 666.40,484.54 L 668.25,486.10 L 664.58,488.15 L 667.63,487.86 L 668.50,493.10 L 663.02,498.40 L 659.28,497.43 L 662.89,500.00 L 445.03,500.00 L 446.07,498.40 Z M 389.90,416.58 L 391.39,417.99 L 394.69,415.53 L 391.62,414.37 L 389.90,416.58 Z M 384.87,414.69 L 387.89,416.47 L 388.62,413.99 L 384.87,414.69 Z" fill="#C8D8E8" stroke="#8BAABB" stroke-width="0.8"/>
<path d="M 130.54,142.27 L 129.08,135.44 L 141.50,129.03 L 141.30,118.71 L 150.86,109.20 L 172.15,103.55 L 178.64,107.69 L 187.05,104.21 L 195.61,96.09 L 201.65,96.11 L 205.41,103.43 L 213.61,106.00 L 218.14,112.07 L 216.28,121.21 L 220.37,125.67 L 217.97,133.32 L 203.90,134.90 L 197.46,132.09 L 185.68,135.83 L 177.35,132.50 L 175.83,142.81 L 167.82,146.72 L 150.72,147.33 L 149.23,142.49 L 140.54,140.58 L 136.12,144.25 L 130.54,142.27 Z" fill="#C8D8E8" stroke="#8BAABB" stroke-width="0.8"/>
<path d="M 195.61,96.09 L 187.05,104.21 L 177.66,107.93 L 172.56,103.59 L 161.43,105.47 L 160.39,92.08 L 167.07,62.94 L 177.75,50.55 L 178.05,41.05 L 187.39,38.60 L 191.17,31.99 L 201.94,29.00 L 237.63,3.84 L 234.84,0.00 L 401.00,0.00 L 405.68,9.26 L 404.16,16.90 L 395.44,24.63 L 396.29,29.19 L 382.30,33.54 L 377.85,41.31 L 367.12,47.48 L 364.23,54.95 L 355.60,61.86 L 358.30,69.55 L 356.08,94.24 L 215.39,93.75 L 195.61,96.09 Z" fill="#C8D8E8" stroke="#8BAABB" stroke-width="0.8"/>
<path d="M 314.81,345.33 L 323.29,344.57 L 330.85,351.24 L 329.08,358.00 L 339.39,362.87 L 345.73,372.94 L 337.94,378.53 L 325.86,381.85 L 332.99,390.05 L 325.76,397.38 L 324.97,401.67 L 328.75,402.53 L 329.53,407.73 L 326.77,418.42 L 331.12,423.91 L 339.12,424.71 L 331.17,429.87 L 316.52,432.20 L 312.75,436.77 L 316.01,441.06 L 315.32,449.36 L 306.99,458.85 L 300.25,460.83 L 305.05,462.30 L 304.74,466.09 L 309.74,467.36 L 315.39,474.05 L 321.71,470.40 L 324.52,472.98 L 195.56,500.00 L 0.00,500.00 L 0.00,411.54 L 19.11,411.79 L 32.74,414.74 L 43.10,411.72 L 46.52,402.59 L 53.55,401.83 L 55.99,408.80 L 64.38,412.09 L 74.16,422.91 L 83.99,422.00 L 88.58,425.07 L 109.46,429.54 L 114.86,440.14 L 122.30,440.26 L 135.16,455.00 L 143.72,456.19 L 161.28,450.03 L 165.54,451.66 L 163.21,455.73 L 169.95,456.81 L 171.39,418.85 L 156.77,421.42 L 157.91,427.55 L 137.01,425.39 L 124.23,414.14 L 113.29,410.66 L 106.44,400.34 L 115.39,380.45 L 121.92,374.87 L 116.08,362.54 L 121.87,350.09 L 113.66,338.05 L 106.30,334.95 L 130.62,320.22 L 130.45,311.99 L 214.26,303.58 L 226.93,315.40 L 241.31,315.02 L 249.67,318.40 L 255.68,324.50 L 267.56,325.07 L 267.62,328.83 L 289.46,331.22 L 293.72,334.55 L 311.84,338.91 L 314.81,345.33 Z" fill="#C8D8E8" stroke="#8BAABB" stroke-width="0.8"/>
<path d="M 293.72,334.55 L 289.46,331.22 L 267.62,328.83 L 267.56,325.07 L 255.68,324.50 L 249.67,318.40 L 241.31,315.02 L 228.92,315.87 L 223.60,313.95 L 200.29,286.17 L 193.67,273.17 L 184.51,265.61 L 167.24,257.74 L 159.08,247.66 L 156.85,239.77 L 162.99,231.10 L 150.00,208.27 L 153.62,194.58 L 168.40,194.98 L 180.56,189.41 L 194.45,175.37 L 197.59,175.33 L 199.87,168.44 L 216.41,160.37 L 217.87,157.41 L 217.57,151.76 L 202.40,150.74 L 199.13,148.06 L 203.94,142.17 L 198.97,142.78 L 203.28,136.76 L 217.97,133.32 L 220.37,125.67 L 216.28,121.21 L 217.81,111.46 L 213.61,106.00 L 205.41,103.43 L 202.07,95.88 L 209.16,96.30 L 215.39,93.75 L 360.39,94.24 L 524.38,153.72 L 526.87,161.53 L 521.70,164.40 L 522.32,167.33 L 527.24,167.73 L 530.06,171.46 L 595.03,201.54 L 594.96,206.42 L 590.24,208.17 L 589.15,211.99 L 591.78,213.39 L 575.41,241.30 L 581.53,252.42 L 587.19,253.39 L 597.95,260.87 L 597.96,263.88 L 606.25,264.67 L 610.27,268.84 L 609.99,272.26 L 600.10,277.82 L 596.72,292.78 L 600.10,289.96 L 605.31,293.05 L 605.80,298.23 L 597.95,306.93 L 601.30,318.71 L 610.27,324.77 L 605.57,322.92 L 602.84,324.09 L 607.48,325.24 L 607.78,330.65 L 610.96,329.74 L 614.32,332.54 L 610.88,340.06 L 614.63,339.98 L 618.69,346.44 L 616.71,348.72 L 621.37,351.01 L 616.43,357.41 L 622.56,355.86 L 629.68,362.58 L 631.24,360.01 L 636.31,361.08 L 635.77,364.04 L 640.79,364.78 L 640.79,361.98 L 646.04,366.57 L 649.56,364.88 L 650.00,369.96 L 630.71,379.75 L 607.78,384.98 L 597.20,390.11 L 580.69,390.13 L 562.51,397.29 L 551.91,393.32 L 537.57,393.52 L 532.12,400.78 L 516.50,406.20 L 501.74,404.89 L 496.83,401.70 L 487.28,401.95 L 478.53,406.25 L 459.36,405.67 L 457.94,402.10 L 442.56,397.29 L 431.31,402.87 L 403.79,401.95 L 400.28,396.18 L 394.84,395.30 L 388.00,388.23 L 390.76,378.05 L 386.54,371.85 L 384.53,357.40 L 374.70,347.97 L 360.97,340.93 L 356.43,347.93 L 348.45,344.04 L 335.15,345.13 L 328.91,341.36 L 293.72,334.55 Z M 625.55,290.77 L 622.39,295.42 L 613.69,297.51 L 611.77,296.34 L 625.65,287.38 L 625.55,290.77 Z M 608.23,253.18 L 604.09,248.48 L 603.51,250.59 L 594.29,246.13 L 593.92,237.21 L 597.95,235.11 L 599.46,231.51 L 604.09,245.30 L 607.89,245.42 L 607.78,243.31 L 609.80,249.06 L 608.23,253.18 Z M 615.21,218.96 L 620.49,217.57 L 618.48,217.58 L 614.59,216.15 L 618.92,216.57 L 616.13,207.41 L 622.32,210.42 L 623.86,207.61 L 621.17,222.44 L 614.29,222.65 L 615.21,218.96 Z M 621.41,298.12 L 616.97,300.59 L 616.97,299.35 L 621.41,298.12 Z M 596.05,235.52 L 595.00,235.58 L 595.00,233.23 L 596.05,235.52 Z M 614.70,223.72 L 615.04,224.45 L 613.04,224.10 L 611.24,222.08 L 614.70,223.72 Z" fill="#4A90D9" stroke="#1a5fa8" stroke-width="1.2"/>
<path d="M 243.69,9.32 L 238.72,15.22 L 223.02,20.88 L 207.60,35.03 L 202.82,34.94 L 203.27,29.66 L 197.79,26.91 L 202.86,21.13 L 236.08,3.43 L 240.41,0.00 L 242.07,0.00 L 243.69,9.32 Z" fill="#A8C8E8" stroke="none"/>
<path d="M 400.59,472.90 L 397.69,478.58 L 392.30,480.58 L 385.19,474.88 L 388.95,463.95 L 375.02,454.99 L 375.30,440.59 L 368.78,432.46 L 368.09,425.92 L 362.17,422.23 L 363.50,414.42 L 375.02,403.88 L 368.63,372.96 L 372.58,368.97 L 356.23,351.11 L 360.97,340.93 L 374.70,347.97 L 384.00,356.40 L 390.76,378.05 L 388.00,388.23 L 403.62,399.76 L 403.40,408.94 L 399.51,415.60 L 391.65,419.83 L 391.37,426.80 L 397.53,435.17 L 394.35,441.20 L 398.96,463.65 L 408.49,465.28 L 418.34,482.37 L 415.49,483.77 L 400.59,472.90 Z M 393.68,416.95 L 394.45,415.64 L 393.19,415.24 L 393.68,416.95 Z" fill="#A8C8E8" stroke="none"/>
<path d="M 210.85,311.93 L 205.08,314.86 L 205.93,312.55 L 201.59,312.73 L 200.75,309.45 L 206.06,306.75 L 206.71,302.01 L 192.52,293.16 L 186.19,276.05 L 170.95,270.19 L 160.13,262.15 L 157.35,254.66 L 144.33,241.98 L 143.49,237.31 L 149.86,234.35 L 152.20,228.34 L 139.76,212.58 L 140.51,199.38 L 144.49,196.51 L 147.10,184.96 L 145.96,182.86 L 141.65,191.63 L 137.31,190.43 L 140.15,188.01 L 141.49,164.81 L 144.70,162.12 L 150.24,162.92 L 152.23,178.21 L 164.88,193.11 L 162.12,207.81 L 170.60,210.79 L 172.46,214.78 L 168.78,223.15 L 178.30,235.10 L 178.00,237.31 L 168.48,241.02 L 167.46,246.89 L 178.30,254.48 L 187.56,253.35 L 205.83,267.54 L 205.61,271.78 L 202.66,272.02 L 207.61,278.48 L 206.67,283.60 L 223.39,301.17 L 224.12,305.55 L 231.96,310.33 L 234.15,318.99 L 226.55,321.18 L 210.85,311.93 Z" fill="#A8C8E8" stroke="none"/>
<path d="M 344.82,107.86 L 346.05,109.74 L 342.95,110.64 L 347.29,113.38 L 339.84,113.82 L 344.25,116.73 L 331.83,117.58 L 328.13,121.01 L 336.17,119.82 L 340.17,124.11 L 328.07,123.28 L 324.74,126.62 L 342.65,128.60 L 349.11,125.77 L 353.13,129.69 L 333.74,136.87 L 334.64,139.37 L 324.74,138.20 L 319.02,134.59 L 309.77,137.16 L 309.98,143.78 L 316.45,148.96 L 310.86,146.56 L 304.40,152.73 L 306.26,149.76 L 302.83,148.59 L 308.53,147.27 L 309.69,144.49 L 306.26,141.76 L 308.10,138.17 L 300.71,138.35 L 300.08,134.34 L 293.00,139.17 L 295.18,135.96 L 287.12,135.85 L 286.65,132.85 L 280.26,130.57 L 277.58,134.58 L 273.40,134.50 L 277.46,139.31 L 271.74,136.97 L 267.45,140.57 L 271.11,145.40 L 265.89,141.76 L 260.64,146.99 L 260.22,142.31 L 264.03,140.76 L 259.37,141.32 L 257.80,138.96 L 261.25,136.74 L 259.40,132.78 L 253.93,133.64 L 257.23,123.41 L 252.97,123.38 L 264.74,94.88 L 262.50,93.70 L 259.99,95.55 L 260.02,90.20 L 256.87,88.32 L 263.52,78.78 L 272.09,74.54 L 266.80,68.96 L 273.56,67.95 L 271.13,66.35 L 278.88,67.05 L 279.69,66.28 L 279.12,64.66 L 279.77,63.97 L 283.45,65.56 L 281.91,63.56 L 287.46,65.76 L 286.85,62.57 L 290.55,61.59 L 290.10,64.07 L 295.49,63.77 L 299.45,56.58 L 300.16,60.05 L 303.78,59.99 L 300.40,62.39 L 310.59,59.36 L 310.96,62.81 L 314.78,62.11 L 319.54,59.63 L 318.60,57.40 L 321.09,58.74 L 327.54,54.19 L 323.83,52.59 L 331.87,50.59 L 329.70,54.81 L 336.50,54.81 L 337.67,57.18 L 333.41,56.39 L 337.10,59.58 L 340.89,59.70 L 344.29,55.64 L 349.10,55.76 L 347.29,59.18 L 350.94,58.17 L 352.20,60.58 L 359.58,57.32 L 360.21,66.23 L 363.31,68.16 L 366.46,66.94 L 364.62,69.97 L 371.60,72.39 L 373.35,76.59 L 377.80,73.34 L 375.93,70.55 L 393.53,67.55 L 398.09,74.05 L 380.58,75.14 L 383.14,78.67 L 379.47,80.34 L 377.76,78.00 L 368.90,77.35 L 362.98,81.31 L 362.08,86.32 L 368.63,90.41 L 354.69,101.61 L 357.42,102.26 L 359.75,104.93 L 351.06,103.89 L 356.50,109.65 L 344.82,107.86 Z M 365.77,77.51 L 367.64,77.74 L 369.58,76.91 L 370.41,75.54 L 365.77,77.51 Z M 361.17,79.75 L 363.18,78.86 L 361.76,77.64 L 357.99,78.56 L 361.17,79.75 Z M 261.89,118.01 L 263.62,116.86 L 263.45,116.08 L 261.89,118.01 Z M 262.52,127.07 L 260.33,125.60 L 259.80,126.80 L 262.52,127.07 Z M 266.26,132.64 L 261.89,128.60 L 260.63,132.61 L 263.58,136.50 L 266.26,132.64 Z M 267.72,113.44 L 265.57,111.95 L 264.03,112.25 L 264.03,115.85 L 267.72,113.44 Z M 271.57,130.07 L 268.36,133.39 L 272.10,133.49 L 271.57,130.07 Z M 283.45,73.75 L 277.89,74.54 L 278.16,72.03 L 272.67,72.55 L 281.57,76.60 L 278.09,77.73 L 276.63,80.72 L 283.14,78.73 L 283.45,73.75 Z M 287.05,72.91 L 285.17,71.00 L 283.75,70.96 L 287.05,72.91 Z M 289.01,75.54 L 287.03,74.78 L 286.46,75.97 L 289.01,75.54 Z M 289.93,131.00 L 290.26,135.39 L 293.21,134.82 L 294.31,132.78 L 289.93,131.00 Z M 293.09,76.23 L 290.84,77.53 L 290.59,79.67 L 293.09,76.23 Z M 304.73,66.58 L 306.89,64.49 L 305.92,63.97 L 304.73,66.58 Z M 303.46,66.16 L 304.40,67.55 L 300.08,67.95 L 306.57,68.15 L 303.46,66.16 Z M 316.45,120.02 L 319.49,118.88 L 319.53,117.44 L 315.66,117.60 L 316.45,120.02 Z M 320.14,122.31 L 307.53,121.21 L 310.86,122.61 L 308.80,125.36 L 323.80,127.11 L 320.14,122.31 Z M 322.86,60.77 L 323.21,61.97 L 323.54,61.64 L 322.86,60.77 Z M 328.47,63.20 L 326.66,63.61 L 326.93,64.75 L 328.47,63.20 Z M 326.13,56.39 L 327.19,59.48 L 324.74,59.58 L 330.66,62.73 L 329.72,58.92 L 332.81,57.74 L 326.13,56.39 Z M 347.75,67.95 L 344.82,69.14 L 347.59,69.95 L 347.75,67.95 Z M 354.97,63.20 L 355.11,62.76 L 350.77,61.68 L 354.97,63.20 Z" fill="#A8C8E8" stroke="none"/>
<path d="M 420.06,490.86 L 417.89,494.63 L 413.97,492.53 L 414.09,488.82 L 416.96,487.26 L 420.06,490.86 Z" fill="#A8C8E8" stroke="none"/>
<path d="M 135.78,326.69 L 122.76,335.87 L 122.85,340.00 L 113.89,339.44 L 112.96,337.64 L 111.09,340.64 L 114.19,341.85 L 104.62,342.23 L 105.25,330.05 L 129.54,312.33 L 141.16,316.01 L 135.78,326.69 Z" fill="#A8C8E8" stroke="none"/>
<path d="M 179.89,388.83 L 179.38,387.33 L 175.84,388.92 L 178.08,393.30 L 172.49,397.46 L 160.88,396.43 L 166.90,386.51 L 160.57,392.67 L 158.05,392.32 L 157.02,390.52 L 158.56,392.12 L 167.90,383.24 L 168.45,385.12 L 171.23,382.52 L 167.52,386.73 L 177.07,380.74 L 182.08,384.56 L 179.89,388.83 Z" fill="#A8C8E8" stroke="none"/>
<path d="M 138.03,134.48 L 136.69,131.59 L 128.35,136.97 L 128.31,134.14 L 134.19,130.96 L 130.22,132.78 L 132.10,130.63 L 129.29,130.81 L 128.98,127.40 L 133.95,124.82 L 132.84,122.80 L 130.22,123.61 L 139.61,113.69 L 139.16,112.05 L 136.08,114.25 L 138.10,111.24 L 146.89,114.44 L 150.43,124.77 L 138.03,134.48 Z M 137.42,122.44 L 136.08,130.81 L 139.66,129.68 L 139.91,121.98 L 137.42,122.44 Z" fill="#A8C8E8" stroke="none"/>
<path d="M 152.08,85.13 L 149.34,79.53 L 157.63,70.33 L 168.39,67.07 L 172.46,69.77 L 176.00,69.14 L 172.78,75.54 L 152.08,85.13 Z" fill="#A8C8E8" stroke="none"/>
<path d="M 322.62,17.50 L 322.41,17.60 L 322.36,17.56 L 322.62,17.50 Z" fill="#A8C8E8" stroke="none"/>
<path d="M 319.68,21.19 L 327.83,21.80 L 322.29,23.90 L 324.53,24.85 L 330.36,23.61 L 327.54,29.66 L 310.88,23.10 L 308.10,23.90 L 309.98,27.28 L 307.80,24.26 L 303.00,24.32 L 305.34,27.06 L 294.59,22.82 L 294.87,20.70 L 301.04,21.68 L 306.88,18.48 L 306.88,20.29 L 314.61,20.29 L 320.24,17.03 L 326.72,15.80 L 327.71,17.50 L 335.10,13.42 L 337.35,16.77 L 319.68,21.19 Z M 304.22,22.94 L 302.57,22.49 L 304.20,23.39 L 309.34,23.08 L 304.22,22.94 Z" fill="#A8C8E8" stroke="none"/>
<path d="M 266.66,285.32 L 266.91,285.32 L 266.88,285.32 L 266.66,285.32 Z M 294.65,301.48 L 275.52,296.03 L 268.91,298.01 L 261.25,287.35 L 268.56,285.39 L 294.65,301.48 Z" fill="#A8C8E8" stroke="none"/>
<path d="M 438.63,169.68 L 444.18,164.15 L 444.31,172.18 L 438.63,174.54 L 438.63,169.68 Z" fill="#A8C8E8" stroke="none"/>
<path d="M 516.85,169.72 L 515.23,175.17 L 510.23,170.98 L 516.85,169.72 Z" fill="#A8C8E8" stroke="none"/>
<path d="M 284.99,17.29 L 291.79,19.88 L 280.99,16.49 L 296.10,16.26 L 305.09,10.90 L 311.21,11.92 L 316.44,8.97 L 313.35,11.28 L 316.02,11.97 L 314.92,15.11 L 307.18,11.70 L 306.24,14.64 L 294.72,17.74 L 284.99,17.29 Z" fill="#A8C8E8" stroke="none"/>
<path d="M 746.01,66.39 L 733.36,63.44 L 734.51,60.99 L 745.35,64.13 L 746.01,66.39 Z" fill="#A8C8E8" stroke="none"/>
<path d="M 43.28,382.52 L 47.89,380.93 L 44.65,379.43 L 44.51,378.95 L 50.69,380.93 L 54.45,379.29 L 47.44,386.33 L 43.28,382.52 Z" fill="#A8C8E8" stroke="none"/>
<path d="M 531.34,87.86 L 531.93,88.31 L 529.50,88.88 L 528.56,87.91 L 531.34,87.86 Z" fill="#A8C8E8" stroke="none"/>
<path d="M 524.99,89.54 L 514.77,92.49 L 508.53,88.09 L 518.08,90.70 L 523.91,89.03 L 523.32,86.70 L 524.99,89.54 Z" fill="#A8C8E8" stroke="none"/>
<path d="M 176.15,104.46 L 173.14,99.99 L 177.38,101.66 L 178.93,104.06 L 176.15,104.46 Z" fill="#A8C8E8" stroke="none"/>
<path d="M 169.51,320.37 L 166.16,321.54 L 162.93,319.70 L 174.62,314.50 L 169.51,320.37 Z" fill="#A8C8E8" stroke="none"/>
<path d="M 22.17,317.70 L 12.42,318.71 L 11.81,316.10 L 17.30,313.48 L 24.77,313.12 L 22.17,317.70 Z" fill="#A8C8E8" stroke="none"/>
<path d="M 396.63,173.08 L 393.39,172.60 L 397.14,170.33 L 405.86,169.41 L 419.00,162.65 L 420.63,165.43 L 414.14,171.14 L 394.38,175.02 L 396.63,173.08 Z" fill="#A8C8E8" stroke="none"/>
<path d="M 448.79,129.02 L 451.38,126.43 L 455.69,131.05 L 452.07,138.94 L 447.89,140.25 L 450.38,137.66 L 448.79,129.02 Z" fill="#A8C8E8" stroke="none"/>
</svg>