<svg xmlns="http://www.w3.org/2000/svg" width="800" height="500" viewBox="0 0 800 500">
<rect width="800" height="500" fill="#A8C8E8"/>
<path d="M 653.97,41.62 L 605.16,94.16 L 604.61,91.09 L 602.66,100.27 L 601.03,99.08 L 601.25,101.80 L 592.52,114.43 L 592.17,110.84 L 576.46,90.40 L 576.46,0.00 L 657.20,0.00 L 657.20,38.87 L 653.97,41.62 Z" fill="#E8E0D0" stroke="#B8B0A0" stroke-width="0.5"/>
<path d="M 657.20,423.63 L 657.20,424.92 L 654.15,424.62 L 653.30,421.26 L 657.20,423.63 Z M 647.57,412.37 L 641.20,407.09 L 642.90,396.30 L 646.33,396.90 L 645.81,402.87 L 647.57,412.37 Z" fill="#E8E0D0" stroke="#B8B0A0" stroke-width="0.5"/>
<path d="M 270.85,142.06 L 273.93,142.17 L 270.84,148.06 L 272.94,150.74 L 282.69,151.76 L 282.39,159.59 L 271.32,168.44 L 269.85,175.33 L 267.83,175.37 L 258.90,189.41 L 251.08,194.98 L 241.57,194.58 L 239.70,184.20 L 236.10,178.57 L 236.67,153.74 L 229.50,146.46 L 230.82,141.34 L 238.40,142.22 L 239.71,147.33 L 250.71,146.72 L 255.86,142.81 L 256.84,132.50 L 262.19,135.83 L 269.76,132.09 L 274.86,134.93 L 270.85,142.06 Z" fill="#C8D8E8" stroke="#8BAABB" stroke-width="0.8"/>
<path d="M 295.60,3.84 L 272.65,29.00 L 265.72,31.99 L 263.29,38.60 L 257.29,41.05 L 257.09,50.55 L 250.22,62.94 L 245.93,92.08 L 246.60,105.47 L 236.63,113.34 L 233.66,118.71 L 233.78,129.03 L 226.01,134.68 L 225.75,138.36 L 226.74,142.27 L 230.71,144.95 L 229.73,146.96 L 236.67,153.74 L 236.10,178.57 L 239.70,184.20 L 241.77,196.11 L 239.25,208.27 L 247.60,231.10 L 243.66,239.77 L 245.44,248.80 L 250.34,257.74 L 261.44,265.61 L 267.33,273.17 L 280.57,303.58 L 226.68,311.99 L 226.79,320.22 L 211.15,334.95 L 215.88,338.05 L 221.16,350.09 L 217.44,362.54 L 221.19,374.87 L 216.99,380.45 L 211.38,400.78 L 215.64,410.66 L 222.68,414.14 L 230.90,425.39 L 244.34,427.55 L 243.60,421.42 L 253.01,418.85 L 252.51,456.73 L 247.74,455.73 L 249.24,451.66 L 246.50,450.03 L 235.21,456.19 L 229.71,455.00 L 221.43,440.26 L 216.66,440.14 L 213.18,429.54 L 199.76,425.07 L 196.80,422.00 L 190.48,422.91 L 184.19,412.09 L 178.80,408.80 L 177.23,401.83 L 172.71,402.59 L 170.51,411.72 L 163.85,414.74 L 155.09,411.79 L 142.80,411.54 L 142.80,0.00 L 293.80,0.00 L 295.60,3.84 Z" fill="#C8D8E8" stroke="#8BAABB" stroke-width="0.8"/>
<path d="M 576.46,90.40 L 592.17,110.84 L 592.52,114.43 L 585.22,122.36 L 583.38,121.01 L 577.42,124.51 L 577.22,120.41 L 575.46,125.40 L 573.02,122.21 L 576.44,130.32 L 575.45,132.28 L 573.08,130.01 L 570.50,131.40 L 571.75,134.85 L 566.93,138.97 L 562.32,138.66 L 554.83,142.75 L 552.82,150.47 L 554.85,151.85 L 551.67,160.16 L 547.80,163.24 L 547.13,161.73 L 544.24,170.33 L 541.78,168.87 L 544.27,172.61 L 541.93,179.08 L 538.96,179.08 L 540.74,180.58 L 539.42,182.90 L 538.29,180.64 L 535.40,182.65 L 538.45,184.75 L 530.64,199.80 L 527.88,198.81 L 524.70,201.21 L 483.63,171.46 L 481.81,167.73 L 478.65,167.33 L 478.25,164.40 L 481.58,161.53 L 479.98,153.72 L 371.76,94.24 L 373.19,69.55 L 371.45,61.86 L 377.00,54.95 L 378.86,47.48 L 385.76,41.31 L 388.62,33.54 L 397.62,29.19 L 397.07,24.63 L 402.67,16.90 L 403.65,9.26 L 400.64,0.00 L 576.11,0.00 L 576.46,90.40 Z M 581.54,126.53 L 576.86,129.01 L 576.15,126.76 L 578.60,124.71 L 581.54,126.53 Z" fill="#C8D8E8" stroke="#8BAABB" stroke-width="0.8"/>
<path d="M 392.37,402.09 L 390.84,409.44 L 384.91,418.86 L 388.84,434.37 L 390.31,452.95 L 393.07,457.80 L 399.50,458.49 L 405.90,463.97 L 427.97,491.51 L 429.62,498.40 L 428.95,500.00 L 389.98,500.00 L 389.05,489.34 L 384.49,483.86 L 376.00,486.99 L 366.44,486.83 L 364.26,490.10 L 353.71,474.35 L 349.66,470.40 L 345.60,474.05 L 341.96,467.36 L 338.75,466.09 L 338.94,462.30 L 335.86,460.83 L 340.19,458.85 L 345.55,449.36 L 345.99,441.06 L 343.90,436.77 L 346.32,432.20 L 355.74,429.87 L 360.85,424.71 L 355.71,423.91 L 352.91,418.42 L 354.69,407.73 L 354.19,402.53 L 351.75,401.67 L 352.26,397.38 L 356.91,390.05 L 352.33,381.85 L 360.10,378.53 L 365.11,372.94 L 361.03,362.87 L 354.40,358.00 L 355.54,351.24 L 350.68,344.57 L 345.22,345.33 L 343.76,338.44 L 350.61,341.91 L 354.29,341.36 L 358.30,345.13 L 366.85,344.04 L 371.98,347.93 L 374.90,340.93 L 383.73,347.97 L 390.05,357.40 L 391.34,371.85 L 394.06,378.05 L 392.28,388.23 L 396.68,395.30 L 400.18,396.18 L 402.44,401.95 L 392.37,402.09 Z M 396.59,415.53 L 394.46,417.99 L 393.51,416.58 L 394.61,414.37 L 396.59,415.53 Z M 392.69,413.99 L 392.21,416.47 L 390.27,414.69 L 392.69,413.99 Z" fill="#C8D8E8" stroke="#8BAABB" stroke-width="0.8"/>
<path d="M 351.47,472.98 L 364.26,490.10 L 366.44,486.83 L 376.00,486.99 L 384.49,483.86 L 389.52,490.26 L 390.26,500.00 L 268.54,500.00 L 351.47,472.98 Z M 429.62,498.40 L 427.97,491.51 L 405.90,463.97 L 399.50,458.49 L 393.07,457.80 L 390.31,452.95 L 388.84,434.37 L 384.77,420.17 L 392.37,402.09 L 418.84,403.09 L 427.37,397.29 L 437.25,402.10 L 438.17,405.67 L 450.49,406.25 L 456.12,401.95 L 462.26,401.70 L 465.42,404.89 L 474.91,406.20 L 484.96,400.78 L 488.46,393.52 L 497.68,393.32 L 504.49,397.29 L 516.18,390.13 L 526.07,390.32 L 533.60,384.98 L 541.92,383.29 L 562.88,370.05 L 562.77,372.63 L 567.06,376.14 L 562.16,378.33 L 566.06,380.62 L 562.47,383.96 L 562.77,386.34 L 564.49,385.66 L 562.77,390.71 L 558.20,394.48 L 561.59,396.46 L 560.48,404.18 L 563.16,409.68 L 563.30,420.31 L 561.17,422.03 L 564.34,425.63 L 561.95,428.95 L 564.37,429.79 L 566.83,436.67 L 560.00,441.78 L 562.10,444.11 L 562.58,441.96 L 565.33,442.76 L 563.36,458.33 L 565.33,459.92 L 563.72,462.00 L 566.93,473.51 L 563.69,477.37 L 565.23,480.24 L 568.26,477.89 L 569.70,480.47 L 569.30,482.47 L 566.52,482.47 L 566.32,489.06 L 568.38,485.16 L 571.30,484.54 L 572.49,486.10 L 570.13,488.15 L 572.09,487.86 L 572.65,493.10 L 569.12,498.40 L 566.72,497.43 L 569.04,500.00 L 428.95,500.00 L 429.62,498.40 Z M 393.51,416.58 L 394.46,417.99 L 396.59,415.53 L 394.61,414.37 L 393.51,416.58 Z M 390.27,414.69 L 392.21,416.47 L 392.69,413.99 L 390.27,414.69 Z" fill="#C8D8E8" stroke="#8BAABB" stroke-width="0.8"/>
<path d="M 226.74,142.27 L 225.80,135.44 L 233.78,129.03 L 233.66,118.71 L 239.80,109.20 L 253.49,103.55 L 257.67,107.69 L 263.07,104.21 L 268.57,96.09 L 272.46,96.11 L 274.88,103.43 L 280.15,106.00 L 283.06,112.07 L 281.87,121.21 L 284.50,125.67 L 282.95,133.32 L 273.91,134.90 L 269.76,132.09 L 262.19,135.83 L 256.84,132.50 L 255.86,142.81 L 250.71,146.72 L 239.71,147.33 L 238.75,142.49 L 233.16,140.58 L 230.33,144.25 L 226.74,142.27 Z" fill="#C8D8E8" stroke="#8BAABB" stroke-width="0.8"/>
<path d="M 268.57,96.09 L 263.07,104.21 L 257.03,107.93 L 253.75,103.59 L 246.60,105.47 L 245.93,92.08 L 250.22,62.94 L 257.09,50.55 L 257.29,41.05 L 263.29,38.60 L 265.72,31.99 L 272.65,29.00 L 295.60,3.84 L 293.80,0.00 L 400.64,0.00 L 403.65,9.26 L 402.67,16.90 L 397.07,24.63 L 397.62,29.19 L 388.62,33.54 L 385.76,41.31 L 378.86,47.48 L 377.00,54.95 L 371.45,61.86 L 373.19,69.55 L 371.76,94.24 L 281.29,93.75 L 268.57,96.09 Z" fill="#C8D8E8" stroke="#8BAABB" stroke-width="0.8"/>
<path d="M 345.22,345.33 L 350.68,344.57 L 355.54,351.24 L 354.40,358.00 L 361.03,362.87 L 365.11,372.94 L 360.10,378.53 L 352.33,381.85 L 356.91,390.05 L 352.26,397.38 L 351.75,401.67 L 354.19,402.53 L 354.69,407.73 L 352.91,418.42 L 355.71,423.91 L 360.85,424.71 L 355.74,429.87 L 346.32,432.20 L 343.90,436.77 L 345.99,441.06 L 345.55,449.36 L 340.19,458.85 L 335.86,460.83 L 338.94,462.30 L 338.75,466.09 L 341.96,467.36 L 345.60,474.05 L 349.66,470.40 L 351.47,472.98 L 268.54,500.00 L 142.80,500.00 L 142.80,411.54 L 155.09,411.79 L 163.85,414.74 L 170.51,411.72 L 172.71,402.59 L 177.23,401.83 L 178.80,408.80 L 184.19,412.09 L 190.48,422.91 L 196.80,422.00 L 199.76,425.07 L 213.18,429.54 L 216.66,440.14 L 221.43,440.26 L 229.71,455.00 L 235.21,456.19 L 246.50,450.03 L 249.24,451.66 L 247.74,455.73 L 252.08,456.81 L 253.01,418.85 L 243.60,421.42 L 244.34,427.55 L 230.90,425.39 L 222.68,414.14 L 215.64,410.66 L 211.24,400.34 L 216.99,380.45 L 221.19,374.87 L 217.44,362.54 L 221.16,350.09 L 215.88,338.05 L 211.15,334.95 L 226.79,320.22 L 226.68,311.99 L 280.57,303.58 L 288.71,315.40 L 297.96,315.02 L 303.34,318.40 L 307.20,324.50 L 314.84,325.07 L 314.88,328.83 L 328.92,331.22 L 331.66,334.55 L 343.31,338.91 L 345.22,345.33 Z" fill="#C8D8E8" stroke="#8BAABB" stroke-width="0.8"/>
<path d="M 331.66,334.55 L 328.92,331.22 L 314.88,328.83 L 314.84,325.07 L 307.20,324.50 L 303.34,318.40 L 297.96,315.02 L 289.99,315.87 L 286.57,313.95 L 271.59,286.17 L 267.33,273.17 L 261.44,265.61 L 250.34,257.74 L 245.08,247.66 L 243.66,239.77 L 247.60,231.10 L 239.25,208.27 L 241.57,194.58 L 251.08,194.98 L 258.90,189.41 L 267.83,175.37 L 269.85,175.33 L 271.32,168.44 L 281.95,160.37 L 282.89,157.41 L 282.69,151.76 L 272.94,150.74 L 270.84,148.06 L 273.93,142.17 L 270.73,142.78 L 273.51,136.76 L 282.95,133.32 L 284.50,125.67 L 281.87,121.21 L 282.85,111.46 L 280.15,106.00 L 274.88,103.43 L 272.73,95.88 L 277.29,96.30 L 281.29,93.75 L 374.53,94.24 L 479.98,153.72 L 481.58,161.53 L 478.25,164.40 L 478.65,167.33 L 481.81,167.73 L 483.63,171.46 L 525.41,201.54 L 525.36,206.42 L 522.33,208.17 L 521.63,211.99 L 523.31,213.39 L 512.79,241.30 L 516.73,252.42 L 520.37,253.39 L 527.28,260.87 L 527.29,263.88 L 532.62,264.67 L 535.20,268.84 L 535.02,272.26 L 528.67,277.82 L 526.49,292.78 L 528.67,289.96 L 532.01,293.05 L 532.33,298.23 L 527.28,306.93 L 529.43,318.71 L 535.20,324.77 L 532.18,322.92 L 530.43,324.09 L 533.41,325.24 L 533.61,330.65 L 535.65,329.74 L 537.81,332.54 L 535.60,340.06 L 538.01,339.98 L 540.62,346.44 L 539.35,348.72 L 542.35,351.01 L 539.17,357.41 L 543.11,355.86 L 547.68,362.58 L 548.69,360.01 L 551.95,361.08 L 551.60,364.04 L 554.83,364.78 L 554.83,361.98 L 558.20,366.57 L 560.47,364.88 L 560.75,369.96 L 548.35,379.75 L 533.60,384.98 L 526.80,390.11 L 516.18,390.13 L 504.49,397.29 L 497.68,393.32 L 488.46,393.52 L 484.96,400.78 L 474.91,406.20 L 465.42,404.89 L 462.26,401.70 L 456.12,401.95 L 450.49,406.25 L 438.17,405.67 L 437.25,402.10 L 427.37,397.29 L 420.13,402.87 L 402.44,401.95 L 400.18,396.18 L 396.68,395.30 L 392.28,388.23 L 394.06,378.05 L 391.34,371.85 L 390.05,357.40 L 383.73,347.97 L 374.90,340.93 L 371.98,347.93 L 366.85,344.04 L 358.30,345.13 L 354.29,341.36 L 331.66,334.55 Z M 545.03,290.77 L 543.00,295.42 L 537.40,297.51 L 536.17,296.34 L 545.10,287.38 L 545.03,290.77 Z M 533.89,253.18 L 531.23,248.48 L 530.86,250.59 L 524.93,246.13 L 524.69,237.21 L 527.28,235.11 L 528.25,231.51 L 531.23,245.30 L 533.68,245.42 L 533.61,243.31 L 534.91,249.06 L 533.89,253.18 Z M 538.38,218.96 L 541.78,217.57 L 540.49,217.58 L 537.99,216.15 L 540.77,216.57 L 538.97,207.41 L 542.95,210.42 L 543.95,207.61 L 542.21,222.44 L 537.79,222.65 L 538.38,218.96 Z M 542.37,298.12 L 539.52,300.59 L 539.52,299.35 L 542.37,298.12 Z M 526.06,235.52 L 525.39,235.58 L 525.39,233.23 L 526.06,235.52 Z M 538.05,223.72 L 538.27,224.45 L 536.98,224.10 L 535.83,222.08 L 538.05,223.72 Z" fill="#4A90D9" stroke="#1a5fa8" stroke-width="1.2"/>
<path d="M 299.49,9.32 L 296.30,15.22 L 286.20,20.88 L 276.29,35.03 L 273.21,34.94 L 273.50,29.66 L 269.98,26.91 L 273.24,21.13 L 294.60,3.43 L 297.38,0.00 L 298.45,0.00 L 299.49,9.32 Z" fill="#A8C8E8" stroke="none"/>
<path d="M 400.38,472.90 L 398.52,478.58 L 395.05,480.58 L 390.48,474.88 L 392.90,463.95 L 383.94,454.99 L 384.12,440.59 L 379.93,432.46 L 379.48,425.92 L 375.68,422.23 L 376.53,414.42 L 383.94,403.88 L 379.83,372.96 L 382.37,368.97 L 371.85,351.11 L 374.90,340.93 L 383.73,347.97 L 389.71,356.40 L 394.06,378.05 L 392.28,388.23 L 402.33,399.76 L 402.19,408.94 L 399.68,415.60 L 394.63,419.83 L 394.45,426.80 L 398.41,435.17 L 396.37,441.20 L 399.33,463.65 L 405.46,465.28 L 411.79,482.37 L 409.96,483.77 L 400.38,472.90 Z M 395.94,416.95 L 396.43,415.64 L 395.62,415.24 L 395.94,416.95 Z" fill="#A8C8E8" stroke="none"/>
<path d="M 278.37,311.93 L 274.67,314.86 L 275.21,312.55 L 272.42,312.73 L 271.88,309.45 L 275.30,306.75 L 275.72,302.01 L 266.59,293.16 L 262.52,276.05 L 252.72,270.19 L 245.76,262.15 L 243.98,254.66 L 235.60,241.98 L 235.06,237.31 L 239.16,234.35 L 240.66,228.34 L 232.67,212.58 L 233.14,199.38 L 235.71,196.51 L 237.38,184.96 L 236.65,182.86 L 233.88,191.63 L 231.09,190.43 L 232.91,188.01 L 233.77,164.81 L 235.84,162.12 L 239.40,162.92 L 240.68,178.21 L 248.81,193.11 L 247.04,207.81 L 252.49,210.79 L 253.69,214.78 L 251.33,223.15 L 257.45,235.10 L 257.25,237.31 L 251.13,241.02 L 250.47,246.89 L 257.45,254.48 L 263.40,253.35 L 275.14,267.54 L 275.01,271.78 L 273.11,272.02 L 276.29,278.48 L 275.69,283.60 L 286.44,301.17 L 286.91,305.55 L 291.95,310.33 L 293.36,318.99 L 288.47,321.18 L 278.37,311.93 Z" fill="#A8C8E8" stroke="none"/>
<path d="M 364.52,107.86 L 365.31,109.74 L 363.32,110.64 L 366.10,113.38 L 361.32,113.82 L 364.15,116.73 L 356.17,117.58 L 353.79,121.01 L 358.96,119.82 L 361.53,124.11 L 353.75,123.28 L 351.61,126.62 L 363.12,128.60 L 367.28,125.77 L 369.86,129.69 L 357.39,136.87 L 357.97,139.37 L 351.61,138.20 L 347.93,134.59 L 341.98,137.16 L 342.11,143.78 L 346.28,148.96 L 342.69,146.56 L 338.53,152.73 L 339.72,149.76 L 337.52,148.59 L 341.19,147.27 L 341.93,144.49 L 339.72,141.76 L 340.91,138.17 L 336.15,138.35 L 335.75,134.34 L 331.20,139.17 L 332.60,135.96 L 327.42,135.85 L 327.12,132.85 L 323.00,130.57 L 321.28,134.58 L 318.59,134.50 L 321.21,139.31 L 317.53,136.97 L 314.77,140.57 L 317.12,145.40 L 313.76,141.76 L 310.39,146.99 L 310.12,142.31 L 312.57,140.76 L 309.57,141.32 L 308.56,138.96 L 310.78,136.74 L 309.59,132.78 L 306.07,133.64 L 308.20,123.41 L 305.46,123.38 L 313.02,94.88 L 311.58,93.70 L 309.98,95.55 L 309.99,90.20 L 307.97,88.32 L 312.24,78.78 L 317.75,74.54 L 314.35,68.96 L 318.70,67.95 L 317.14,66.35 L 322.12,67.05 L 322.64,66.28 L 322.27,64.66 L 322.69,63.97 L 325.06,65.56 L 324.07,63.56 L 327.64,65.76 L 327.25,62.57 L 329.62,61.59 L 329.33,64.07 L 332.80,63.77 L 335.34,56.58 L 335.80,60.05 L 338.13,59.99 L 335.96,62.39 L 342.51,59.36 L 342.74,62.81 L 345.21,62.11 L 348.26,59.63 L 347.66,57.40 L 349.26,58.74 L 353.41,54.19 L 351.02,52.59 L 356.19,50.59 L 354.79,54.81 L 359.17,54.81 L 359.92,57.18 L 357.18,56.39 L 359.56,59.58 L 361.99,59.70 L 364.18,55.64 L 367.27,55.76 L 366.10,59.18 L 368.45,58.17 L 369.26,60.58 L 374.01,57.32 L 374.42,66.23 L 376.41,68.16 L 378.44,66.94 L 377.25,69.97 L 381.74,72.39 L 382.86,76.59 L 385.72,73.34 L 384.52,70.55 L 395.84,67.55 L 398.77,74.05 L 387.51,75.14 L 389.16,78.67 L 386.80,80.34 L 385.70,78.00 L 380.00,77.35 L 376.20,81.31 L 375.62,86.32 L 379.83,90.41 L 370.86,101.61 L 372.62,102.26 L 374.12,104.93 L 368.53,103.89 L 372.03,109.65 L 364.52,107.86 Z M 377.99,77.51 L 379.19,77.74 L 380.44,76.91 L 380.97,75.54 L 377.99,77.51 Z M 375.03,79.75 L 376.32,78.86 L 375.41,77.64 L 372.99,78.56 L 375.03,79.75 Z M 311.19,118.01 L 312.31,116.86 L 312.20,116.08 L 311.19,118.01 Z M 311.60,127.07 L 310.19,125.60 L 309.85,126.80 L 311.60,127.07 Z M 314.00,132.64 L 311.19,128.60 L 310.38,132.61 L 312.28,136.50 L 314.00,132.64 Z M 314.94,113.44 L 313.56,111.95 L 312.57,112.25 L 312.57,115.85 L 314.94,113.44 Z M 317.42,130.07 L 315.36,133.39 L 317.76,133.49 L 317.42,130.07 Z M 325.06,73.75 L 321.48,74.54 L 321.66,72.03 L 318.12,72.55 L 323.85,76.60 L 321.61,77.73 L 320.67,80.72 L 324.86,78.73 L 325.06,73.75 Z M 327.37,72.91 L 326.16,71.00 L 325.25,70.96 L 327.37,72.91 Z M 328.63,75.54 L 327.36,74.78 L 326.99,75.97 L 328.63,75.54 Z M 329.22,131.00 L 329.43,135.39 L 331.33,134.82 L 332.04,132.78 L 329.22,131.00 Z M 331.26,76.23 L 329.81,77.53 L 329.65,79.67 L 331.26,76.23 Z M 338.74,66.58 L 340.13,64.49 L 339.51,63.97 L 338.74,66.58 Z M 337.92,66.16 L 338.53,67.55 L 335.75,67.95 L 339.93,68.15 L 337.92,66.16 Z M 346.28,120.02 L 348.23,118.88 L 348.25,117.44 L 345.77,117.60 L 346.28,120.02 Z M 348.65,122.31 L 340.54,121.21 L 342.69,122.61 L 341.36,125.36 L 351.01,127.11 L 348.65,122.31 Z M 350.40,60.77 L 350.62,61.97 L 350.83,61.64 L 350.40,60.77 Z M 354.00,63.20 L 352.84,63.61 L 353.02,64.75 L 354.00,63.20 Z M 352.50,56.39 L 353.19,59.48 L 351.61,59.58 L 355.42,62.73 L 354.81,58.92 L 356.80,57.74 L 352.50,56.39 Z M 366.40,67.95 L 364.52,69.14 L 366.30,69.95 L 366.40,67.95 Z M 371.04,63.20 L 371.14,62.76 L 368.34,61.68 L 371.04,63.20 Z" fill="#A8C8E8" stroke="none"/>
<path d="M 412.90,490.86 L 411.50,494.63 L 408.98,492.53 L 409.06,488.82 L 410.91,487.26 L 412.90,490.86 Z" fill="#A8C8E8" stroke="none"/>
<path d="M 230.10,326.69 L 221.73,335.87 L 221.79,340.00 L 216.03,339.44 L 215.43,337.64 L 214.23,340.64 L 216.22,341.85 L 210.07,342.23 L 210.47,330.05 L 226.09,312.33 L 233.56,316.01 L 230.10,326.69 Z" fill="#A8C8E8" stroke="none"/>
<path d="M 258.47,388.83 L 258.14,387.33 L 255.86,388.92 L 257.30,393.30 L 253.71,397.46 L 246.24,396.43 L 250.12,386.51 L 246.05,392.67 L 244.43,392.32 L 243.76,390.52 L 244.75,392.12 L 250.75,383.24 L 251.11,385.12 L 252.90,382.52 L 250.52,386.73 L 256.66,380.74 L 259.88,384.56 L 258.47,388.83 Z" fill="#A8C8E8" stroke="none"/>
<path d="M 231.55,134.48 L 230.69,131.59 L 225.33,136.97 L 225.30,134.14 L 229.08,130.96 L 226.53,132.78 L 227.74,130.63 L 225.93,130.81 L 225.73,127.40 L 228.93,124.82 L 228.21,122.80 L 226.53,123.61 L 232.56,113.69 L 232.28,112.05 L 230.30,114.25 L 231.59,111.24 L 237.25,114.44 L 239.52,124.77 L 231.55,134.48 Z M 231.16,122.44 L 230.30,130.81 L 232.60,129.68 L 232.76,121.98 L 231.16,122.44 Z" fill="#A8C8E8" stroke="none"/>
<path d="M 240.59,85.13 L 238.82,79.53 L 244.15,70.33 L 251.07,67.07 L 253.69,69.77 L 255.97,69.14 L 253.90,75.54 L 240.59,85.13 Z" fill="#A8C8E8" stroke="none"/>
<path d="M 350.25,17.50 L 350.11,17.60 L 350.08,17.56 L 350.25,17.50 Z" fill="#A8C8E8" stroke="none"/>
<path d="M 348.36,21.19 L 353.59,21.80 L 350.03,23.90 L 351.47,24.85 L 355.22,23.61 L 353.41,29.66 L 342.69,23.10 L 340.91,23.90 L 342.11,27.28 L 340.72,24.26 L 337.63,24.32 L 339.13,27.06 L 332.22,22.82 L 332.40,20.70 L 336.37,21.68 L 340.12,18.48 L 340.12,20.29 L 345.10,20.29 L 348.71,17.03 L 352.88,15.80 L 353.52,17.50 L 358.27,13.42 L 359.72,16.77 L 348.36,21.19 Z M 338.41,22.94 L 337.35,22.49 L 338.40,23.39 L 341.71,23.08 L 338.41,22.94 Z" fill="#A8C8E8" stroke="none"/>
<path d="M 314.26,285.32 L 314.42,285.32 L 314.40,285.32 L 314.26,285.32 Z M 332.26,301.48 L 319.96,296.03 L 315.71,298.01 L 310.78,287.35 L 315.48,285.39 L 332.26,301.48 Z" fill="#A8C8E8" stroke="none"/>
<path d="M 424.84,169.68 L 428.41,164.15 L 428.49,172.18 L 424.84,174.54 L 424.84,169.68 Z" fill="#A8C8E8" stroke="none"/>
<path d="M 475.13,169.72 L 474.10,175.17 L 470.88,170.98 L 475.13,169.72 Z" fill="#A8C8E8" stroke="none"/>
<path d="M 326.04,17.29 L 330.42,19.88 L 323.47,16.49 L 333.19,16.26 L 338.97,10.90 L 342.91,11.92 L 346.27,8.97 L 344.29,11.28 L 346.00,11.97 L 345.29,15.11 L 340.32,11.70 L 339.71,14.64 L 332.30,17.74 L 326.04,17.29 Z" fill="#A8C8E8" stroke="none"/>
<path d="M 622.49,66.39 L 614.35,63.44 L 615.10,60.99 L 622.06,64.13 L 622.49,66.39 Z" fill="#A8C8E8" stroke="none"/>
<path d="M 170.63,382.52 L 173.59,380.93 L 171.50,379.43 L 171.42,378.95 L 175.39,380.93 L 177.81,379.29 L 173.30,386.33 L 170.63,382.52 Z" fill="#A8C8E8" stroke="none"/>
<path d="M 484.45,87.86 L 484.83,88.31 L 483.27,88.88 L 482.66,87.91 L 484.45,87.86 Z" fill="#A8C8E8" stroke="none"/>
<path d="M 480.37,89.54 L 473.80,92.49 L 469.79,88.09 L 475.93,90.70 L 479.67,89.03 L 479.30,86.70 L 480.37,89.54 Z" fill="#A8C8E8" stroke="none"/>
<path d="M 256.06,104.46 L 254.13,99.99 L 256.85,101.66 L 257.85,104.06 L 256.06,104.46 Z" fill="#A8C8E8" stroke="none"/>
<path d="M 251.79,320.37 L 249.64,321.54 L 247.56,319.70 L 255.08,314.50 L 251.79,320.37 Z" fill="#A8C8E8" stroke="none"/>
<path d="M 157.05,317.70 L 150.79,318.71 L 150.39,316.10 L 153.92,313.48 L 158.72,313.12 L 157.05,317.70 Z" fill="#A8C8E8" stroke="none"/>
<path d="M 397.83,173.08 L 395.75,172.60 L 398.16,170.33 L 403.77,169.41 L 412.22,162.65 L 413.27,165.43 L 409.09,171.14 L 396.39,175.02 L 397.83,173.08 Z" fill="#A8C8E8" stroke="none"/>
<path d="M 431.37,129.02 L 433.04,126.43 L 435.81,131.05 L 433.48,138.94 L 430.79,140.25 L 432.39,137.66 L 431.37,129.02 Z" fill="#A8C8E8" stroke="none"/>
</svg>