<svg xmlns="http://www.w3.org/2000/svg" width="800" height="500" viewBox="0 0 800 500">
<rect width="800" height="500" fill="#A8C8E8"/>
<path d="M 244.19,17.16 L 248.83,17.16 L 251.42,20.73 L 250.69,24.09 L 243.84,24.58 L 244.89,20.94 L 242.27,18.09 L 235.25,19.86 L 231.52,25.11 L 224.58,25.01 L 223.66,31.95 L 212.27,35.44 L 206.49,32.40 L 191.45,34.96 L 187.52,33.23 L 187.20,25.93 L 183.88,21.53 L 165.92,13.04 L 165.86,9.06 L 248.75,9.06 L 244.19,17.16 Z" fill="#E8E0D0" stroke="#B8B0A0" stroke-width="0.5"/>
<path d="M 8.04,189.88 L 4.66,180.85 L 19.40,188.95 L 27.27,185.98 L 28.37,189.92 L 23.98,192.20 L 25.18,194.60 L 30.91,200.19 L 36.27,198.96 L 35.44,197.11 L 43.48,202.96 L 50.88,202.98 L 52.50,211.12 L 57.24,213.03 L 58.48,219.69 L 50.23,220.90 L 39.82,230.29 L 37.46,239.19 L 27.80,246.95 L 12.28,247.08 L 6.11,257.84 L 4.11,253.01 L 0.00,251.48 L 0.00,194.20 L 8.04,189.88 Z" fill="#E8E0D0" stroke="#B8B0A0" stroke-width="0.5"/>
<path d="M 654.87,487.85 L 651.65,480.35 L 645.19,477.40 L 647.22,471.25 L 663.66,471.09 L 689.33,484.72 L 724.06,486.68 L 728.11,490.94 L 668.50,490.94 L 654.87,487.85 Z" fill="#E8E0D0" stroke="#B8B0A0" stroke-width="0.5"/>
<path d="M 109.28,490.19 L 107.60,485.45 L 112.88,482.71 L 114.10,486.60 L 121.15,489.96 L 121.68,490.94 L 108.53,490.94 L 109.28,490.19 Z" fill="#E8E0D0" stroke="#B8B0A0" stroke-width="0.5"/>
<path d="M 3.32,267.89 L 11.75,283.05 L 7.74,289.03 L 9.72,295.55 L 2.01,296.94 L 0.00,295.89 L 0.00,251.48 L 4.11,253.01 L 6.11,257.84 L 3.32,267.89 Z" fill="#E8E0D0" stroke="#B8B0A0" stroke-width="0.5"/>
<path d="M 109.93,378.30 L 112.64,377.90 L 112.12,389.40 L 132.26,403.47 L 128.33,409.65 L 133.45,414.24 L 128.44,415.62 L 129.56,418.41 L 146.16,423.95 L 149.83,430.52 L 158.13,420.79 L 167.54,427.14 L 159.74,430.64 L 165.50,442.06 L 162.76,448.99 L 157.40,451.96 L 156.01,459.77 L 160.71,473.82 L 173.62,486.43 L 170.96,490.94 L 121.68,490.94 L 121.15,489.96 L 114.10,486.60 L 113.57,482.94 L 107.60,485.45 L 108.58,490.94 L 91.42,490.94 L 88.88,488.99 L 79.70,486.36 L 67.98,473.54 L 70.11,469.00 L 76.69,470.02 L 77.18,466.53 L 69.86,451.60 L 77.77,452.64 L 80.27,450.18 L 66.34,437.21 L 66.71,429.86 L 73.55,415.35 L 68.29,412.63 L 63.54,415.24 L 62.87,413.16 L 66.76,411.55 L 64.35,403.80 L 74.42,401.03 L 62.48,393.95 L 63.37,388.59 L 66.05,388.04 L 60.43,385.45 L 62.23,381.43 L 59.09,373.48 L 64.92,366.97 L 70.41,368.26 L 78.36,360.57 L 97.58,362.93 L 109.93,378.30 Z" fill="#E8E0D0" stroke="#B8B0A0" stroke-width="0.5"/>
<path d="M 3.13,351.40 L 15.68,368.13 L 24.03,370.16 L 31.43,377.09 L 46.59,378.35 L 53.55,371.37 L 60.37,370.38 L 58.81,375.24 L 62.23,381.43 L 60.43,385.45 L 66.05,388.04 L 63.37,388.59 L 62.48,393.95 L 74.42,401.03 L 66.49,401.34 L 64.35,403.80 L 66.76,411.55 L 60.04,415.42 L 54.34,406.01 L 49.71,407.23 L 41.97,402.95 L 30.81,406.87 L 26.62,402.68 L 12.82,403.33 L 5.53,397.60 L 2.41,401.95 L 0.00,401.42 L 0.00,349.81 L 3.13,351.40 Z M 8.48,470.69 L 15.14,474.28 L 15.67,481.01 L 24.30,490.94 L 19.88,490.94 L 4.32,476.69 L 0.00,475.28 L 0.00,460.93 L 8.48,470.69 Z M 0.00,487.33 L 0.00,486.79 L 13.00,488.42 L 6.06,488.42 L 0.00,487.33 Z M 0.00,480.56 L 0.00,479.40 L 4.65,480.64 L 0.00,480.56 Z" fill="#E8E0D0" stroke="#B8B0A0" stroke-width="0.5"/>
<path d="M 173.54,485.40 L 160.71,473.82 L 156.01,459.77 L 157.40,451.96 L 162.76,448.99 L 165.50,442.06 L 174.91,447.76 L 170.89,451.91 L 170.97,458.44 L 187.50,456.71 L 240.71,466.41 L 251.19,462.96 L 261.44,451.16 L 285.76,444.23 L 295.64,451.05 L 302.57,450.43 L 305.02,453.84 L 310.30,451.96 L 312.21,458.02 L 318.87,461.70 L 328.78,462.57 L 328.28,474.67 L 325.86,478.34 L 321.66,475.75 L 316.03,477.30 L 313.22,483.98 L 310.07,485.26 L 309.98,490.94 L 170.56,490.94 L 173.54,485.40 Z" fill="#E8E0D0" stroke="#B8B0A0" stroke-width="0.5"/>
<path d="M 53.79,483.96 L 58.15,479.41 L 62.90,482.54 L 65.04,480.78 L 60.49,473.13 L 62.48,470.78 L 68.52,471.35 L 68.44,474.65 L 79.70,486.36 L 88.88,488.99 L 91.33,490.94 L 53.25,490.94 L 53.79,483.96 Z" fill="#E8E0D0" stroke="#B8B0A0" stroke-width="0.5"/>
<path d="M 15.67,481.01 L 15.14,474.28 L 8.48,470.69 L 0.00,460.93 L 0.00,401.42 L 2.41,401.95 L 5.53,397.60 L 12.82,403.33 L 26.62,402.68 L 30.81,406.87 L 41.97,402.95 L 49.71,407.23 L 54.18,405.90 L 60.04,415.42 L 68.29,412.63 L 73.33,414.33 L 66.08,435.57 L 80.06,449.39 L 77.77,452.64 L 70.67,451.16 L 69.47,453.46 L 75.91,461.70 L 76.69,470.02 L 72.72,468.15 L 60.64,472.43 L 65.04,480.78 L 62.90,482.54 L 58.15,479.41 L 53.79,483.96 L 53.25,490.94 L 24.30,490.94 L 15.67,481.01 Z" fill="#E8E0D0" stroke="#B8B0A0" stroke-width="0.5"/>
<path d="M 188.82,129.23 L 192.81,115.12 L 191.73,111.32 L 178.65,102.69 L 184.93,93.42 L 199.64,83.61 L 198.84,66.38 L 190.44,47.04 L 187.52,33.23 L 206.49,32.40 L 212.27,35.44 L 224.15,31.71 L 224.58,25.01 L 231.52,25.11 L 235.25,19.86 L 242.27,18.09 L 244.89,20.94 L 243.84,24.58 L 250.69,24.09 L 251.42,20.73 L 248.83,17.16 L 244.19,17.16 L 248.75,9.06 L 398.21,9.06 L 397.74,9.95 L 401.74,11.81 L 404.95,21.02 L 418.76,28.42 L 416.60,39.31 L 426.00,38.69 L 435.95,42.72 L 437.28,44.27 L 434.75,46.02 L 435.59,49.13 L 443.64,54.27 L 443.58,58.67 L 436.30,60.13 L 435.43,64.17 L 426.94,69.36 L 412.98,63.94 L 406.44,65.11 L 402.80,72.17 L 411.50,81.74 L 409.28,86.14 L 413.38,91.80 L 411.22,93.32 L 411.68,101.77 L 415.35,104.29 L 417.15,110.64 L 393.69,112.38 L 394.32,115.14 L 388.78,119.17 L 382.50,131.56 L 386.11,141.51 L 383.48,147.01 L 372.33,136.58 L 363.46,138.87 L 358.16,136.31 L 349.35,141.58 L 344.92,131.58 L 342.23,130.43 L 334.92,134.55 L 332.95,140.08 L 329.49,133.67 L 322.00,134.73 L 318.56,129.53 L 314.70,133.50 L 308.05,131.17 L 304.81,137.45 L 304.21,132.17 L 292.42,132.24 L 289.19,125.12 L 250.82,117.88 L 212.63,119.93 L 201.27,132.30 L 191.50,130.49 L 190.87,135.19 L 188.82,129.23 Z" fill="#C8D8E8" stroke="#8BAABB" stroke-width="0.8"/>
<path d="M 164.00,292.90 L 153.89,294.91 L 146.53,303.60 L 146.36,308.80 L 136.13,324.42 L 132.50,337.86 L 126.93,342.05 L 126.36,349.95 L 120.01,357.54 L 113.58,356.04 L 109.26,361.68 L 103.84,360.15 L 97.58,362.93 L 78.36,360.57 L 70.41,368.26 L 65.56,366.69 L 62.60,370.77 L 53.55,371.37 L 46.59,378.35 L 31.43,377.09 L 24.03,370.16 L 17.21,369.34 L 3.13,351.40 L 0.00,349.64 L 0.00,295.89 L 2.01,296.94 L 9.72,295.55 L 7.74,289.03 L 12.76,282.42 L 30.53,293.80 L 54.59,292.63 L 58.01,290.33 L 55.98,284.50 L 58.63,281.59 L 74.98,279.66 L 80.39,273.72 L 88.86,277.80 L 99.84,271.49 L 104.20,261.13 L 113.04,259.31 L 121.61,262.69 L 130.35,259.65 L 139.63,269.23 L 153.86,266.29 L 156.22,273.04 L 159.67,273.06 L 163.11,279.19 L 168.54,279.45 L 170.66,285.52 L 164.00,292.90 Z" fill="#C8D8E8" stroke="#8BAABB" stroke-width="0.8"/>
<path d="M 276.12,269.38 L 279.06,270.90 L 280.34,266.80 L 290.78,268.10 L 301.77,262.90 L 314.85,270.02 L 315.32,273.28 L 322.66,273.23 L 321.54,277.58 L 324.15,276.09 L 326.04,280.54 L 328.65,276.75 L 334.90,278.57 L 339.09,286.02 L 343.91,284.29 L 347.02,288.72 L 343.73,302.93 L 344.79,306.43 L 351.83,313.60 L 355.91,311.74 L 355.58,319.67 L 353.73,320.68 L 357.17,322.81 L 355.97,327.66 L 366.22,333.39 L 365.49,345.13 L 371.86,349.68 L 363.44,353.19 L 360.28,347.64 L 357.55,352.25 L 353.16,347.07 L 350.87,349.96 L 348.98,347.61 L 346.04,352.44 L 345.58,344.83 L 338.97,348.33 L 338.63,356.58 L 340.90,359.79 L 339.28,367.42 L 333.27,369.45 L 333.21,374.32 L 325.88,381.88 L 326.66,388.16 L 318.27,390.14 L 314.46,384.59 L 317.39,382.95 L 315.03,366.86 L 319.60,341.34 L 315.03,326.58 L 307.37,319.29 L 300.87,309.58 L 300.97,305.99 L 293.43,297.32 L 286.18,277.92 L 279.59,272.40 L 274.40,272.38 L 276.12,269.38 Z" fill="#C8D8E8" stroke="#8BAABB" stroke-width="0.8"/>
<path d="M 57.24,213.03 L 52.50,211.12 L 50.88,202.98 L 43.48,202.96 L 35.44,197.11 L 36.27,198.96 L 30.91,200.19 L 25.18,194.60 L 23.98,192.20 L 28.37,189.92 L 27.27,185.98 L 19.40,188.95 L 4.66,180.85 L 8.04,189.88 L 0.00,194.20 L 0.00,9.06 L 50.44,9.06 L 51.68,12.42 L 59.94,15.93 L 80.01,11.44 L 165.69,16.24 L 169.55,13.79 L 186.51,24.15 L 190.44,47.04 L 198.84,66.38 L 199.64,83.61 L 184.93,93.42 L 178.65,102.69 L 191.73,111.32 L 192.81,115.12 L 189.12,132.02 L 193.40,139.95 L 191.67,144.15 L 205.76,163.02 L 200.61,165.06 L 204.04,169.06 L 204.78,176.31 L 201.27,182.03 L 192.97,183.57 L 164.78,217.29 L 166.78,229.58 L 165.22,234.39 L 169.99,237.61 L 170.04,241.43 L 147.45,232.86 L 144.33,227.25 L 135.25,223.22 L 120.49,223.53 L 116.33,228.95 L 109.97,224.32 L 99.65,224.69 L 94.61,228.17 L 92.24,233.88 L 84.20,233.00 L 84.44,224.63 L 80.50,224.26 L 75.79,216.00 L 67.04,224.58 L 62.06,224.79 L 62.03,220.43 L 58.48,219.69 L 57.24,213.03 Z" fill="#C8D8E8" stroke="#8BAABB" stroke-width="0.8"/>
<path d="M 177.91,279.15 L 186.83,284.48 L 208.20,287.61 L 216.82,285.64 L 226.66,295.48 L 231.74,294.10 L 236.79,287.55 L 262.06,283.57 L 265.68,274.35 L 276.36,271.71 L 283.28,274.66 L 289.68,283.99 L 292.80,296.20 L 300.97,305.99 L 300.87,309.58 L 314.65,325.86 L 319.23,339.59 L 319.56,349.47 L 315.76,357.62 L 315.03,366.86 L 317.39,382.95 L 314.46,384.59 L 321.89,395.99 L 332.43,400.03 L 335.00,399.30 L 334.64,396.05 L 338.53,397.83 L 349.41,390.89 L 356.27,392.95 L 359.88,402.77 L 357.61,415.41 L 344.80,418.66 L 340.49,422.68 L 339.78,420.32 L 344.32,417.83 L 341.70,415.24 L 343.54,410.84 L 340.01,409.06 L 336.85,411.97 L 338.98,419.47 L 334.48,424.35 L 337.63,421.50 L 339.57,422.17 L 340.13,423.25 L 333.75,425.29 L 333.77,432.09 L 338.39,425.56 L 330.35,438.36 L 331.37,451.79 L 328.78,462.57 L 318.87,461.70 L 312.21,458.02 L 310.30,451.96 L 305.02,453.84 L 302.57,450.43 L 295.64,451.05 L 285.76,444.23 L 261.44,451.16 L 251.19,462.96 L 240.71,466.41 L 187.50,456.71 L 170.97,458.44 L 170.89,451.91 L 174.91,447.76 L 165.47,442.04 L 159.55,432.15 L 162.42,427.87 L 167.54,427.14 L 158.13,420.79 L 149.83,430.52 L 146.16,423.95 L 129.56,418.41 L 128.44,415.62 L 133.45,414.24 L 128.33,409.65 L 132.26,403.47 L 112.12,389.40 L 112.64,377.90 L 109.93,378.30 L 97.58,362.93 L 103.84,360.15 L 109.26,361.68 L 112.99,356.21 L 122.59,355.53 L 126.36,349.95 L 126.93,342.05 L 132.50,337.86 L 136.13,324.42 L 146.36,308.80 L 146.53,303.60 L 153.89,294.91 L 164.00,292.90 L 177.91,279.15 Z" fill="#C8D8E8" stroke="#8BAABB" stroke-width="0.8"/>
<path d="M 724.06,486.68 L 689.33,484.72 L 663.66,471.09 L 652.04,469.54 L 647.59,470.58 L 644.54,477.25 L 611.13,440.16 L 596.13,435.38 L 583.96,420.96 L 584.56,424.94 L 576.20,423.54 L 567.69,409.96 L 550.64,401.41 L 561.30,397.67 L 556.51,397.28 L 555.65,394.67 L 558.14,394.12 L 556.31,393.26 L 553.16,395.84 L 557.74,390.93 L 566.23,395.45 L 564.54,399.52 L 571.22,398.14 L 566.77,395.85 L 576.77,394.03 L 578.76,397.40 L 582.59,396.88 L 583.01,390.62 L 579.98,383.98 L 578.63,391.37 L 578.87,382.83 L 581.86,383.40 L 580.86,381.41 L 585.37,377.87 L 588.44,366.62 L 592.81,365.05 L 591.00,366.42 L 591.20,375.22 L 594.75,362.41 L 605.63,366.10 L 605.93,363.07 L 593.51,351.59 L 587.47,350.17 L 582.63,339.27 L 589.61,341.48 L 597.64,336.65 L 606.06,339.95 L 604.34,336.64 L 600.59,337.67 L 601.60,332.40 L 612.39,329.86 L 619.92,324.00 L 625.61,324.84 L 628.62,320.53 L 625.61,321.68 L 625.16,314.40 L 620.28,313.32 L 613.61,318.49 L 603.36,319.38 L 605.63,316.19 L 611.62,315.04 L 612.58,313.26 L 605.45,315.70 L 601.97,319.76 L 596.11,321.03 L 595.75,317.28 L 598.45,313.76 L 595.39,312.04 L 598.95,300.48 L 610.47,296.87 L 613.15,289.67 L 638.89,290.31 L 638.91,282.65 L 645.39,271.77 L 640.47,270.30 L 643.47,267.44 L 641.01,259.13 L 635.36,258.57 L 639.46,249.27 L 644.89,250.03 L 647.07,246.68 L 638.88,245.58 L 636.73,240.32 L 643.32,239.16 L 649.50,230.83 L 650.00,227.13 L 646.54,220.67 L 649.20,216.77 L 640.07,218.35 L 633.30,210.70 L 625.07,209.83 L 622.16,204.40 L 616.10,207.35 L 608.54,200.54 L 599.98,199.89 L 598.42,196.53 L 594.93,196.54 L 594.71,201.58 L 590.11,203.29 L 578.93,190.79 L 578.98,186.83 L 573.88,180.89 L 551.11,190.47 L 546.00,186.25 L 542.09,187.23 L 537.56,181.35 L 523.85,184.27 L 517.37,172.90 L 519.90,170.93 L 514.79,159.32 L 516.74,155.90 L 510.88,154.51 L 509.07,148.23 L 497.87,149.92 L 496.03,147.12 L 484.31,146.50 L 487.72,142.89 L 484.31,140.38 L 485.36,135.30 L 481.63,128.91 L 489.59,127.14 L 490.60,124.23 L 481.82,116.90 L 480.97,108.20 L 473.72,99.95 L 465.57,102.77 L 464.75,99.81 L 456.49,99.41 L 448.89,104.72 L 434.62,101.12 L 430.15,111.47 L 421.20,113.65 L 417.15,110.64 L 415.35,104.29 L 411.68,101.77 L 411.22,93.32 L 413.38,91.80 L 409.28,86.14 L 411.50,81.74 L 402.80,72.17 L 407.49,64.35 L 429.26,68.67 L 435.43,64.17 L 436.30,60.13 L 443.58,58.67 L 443.64,54.27 L 435.59,49.13 L 434.75,46.02 L 437.28,44.27 L 435.95,42.72 L 426.00,38.69 L 416.60,39.31 L 418.76,28.42 L 404.95,21.02 L 401.74,11.81 L 397.74,9.95 L 398.21,9.06 L 800.00,9.06 L 800.00,490.94 L 728.11,490.94 L 724.06,486.68 Z M 81.97,12.29 L 80.01,11.44 L 82.18,9.06 L 165.85,9.06 L 167.60,15.67 L 81.97,12.29 Z M 470.01,358.30 L 473.66,358.95 L 488.42,364.55 L 492.04,369.36 L 498.26,368.57 L 501.62,376.53 L 506.94,378.89 L 520.23,397.04 L 526.75,395.24 L 530.00,389.76 L 534.24,394.31 L 542.51,389.51 L 550.81,391.59 L 552.33,394.79 L 546.76,398.13 L 546.84,406.74 L 530.41,409.90 L 520.93,404.80 L 517.08,411.97 L 513.99,411.32 L 509.13,418.26 L 499.15,417.54 L 492.16,420.96 L 488.34,428.72 L 482.00,433.78 L 471.42,434.86 L 461.75,427.41 L 467.27,425.56 L 465.74,418.63 L 468.61,412.47 L 466.33,404.64 L 462.42,401.59 L 458.62,403.01 L 448.62,394.67 L 440.09,396.10 L 437.04,392.37 L 456.11,376.56 L 470.60,373.34 L 472.97,370.44 L 468.61,369.55 L 470.01,358.30 Z" fill="#C8D8E8" stroke="#8BAABB" stroke-width="0.8"/>
<path d="M 154.92,254.58 L 150.16,259.30 L 148.99,267.30 L 138.76,268.93 L 130.35,259.65 L 121.61,262.69 L 113.04,259.31 L 105.00,260.81 L 99.84,271.49 L 88.86,277.80 L 80.39,273.72 L 74.98,279.66 L 58.63,281.59 L 55.98,284.50 L 58.01,290.33 L 54.59,292.63 L 28.21,293.16 L 17.00,283.33 L 9.57,281.78 L 3.32,267.89 L 8.34,251.86 L 12.28,247.08 L 27.80,246.95 L 37.46,239.19 L 39.82,230.29 L 50.23,220.90 L 61.23,219.94 L 62.06,224.79 L 67.04,224.58 L 75.40,215.84 L 80.50,224.26 L 84.44,224.63 L 84.90,233.26 L 92.24,233.88 L 94.61,228.17 L 99.65,224.69 L 109.97,224.32 L 116.33,228.95 L 120.59,226.14 L 120.06,223.73 L 125.81,222.26 L 141.31,225.29 L 147.45,232.86 L 161.28,238.14 L 154.92,254.58 Z" fill="#C8D8E8" stroke="#8BAABB" stroke-width="0.8"/>
<path d="M 421.20,113.65 L 430.15,111.47 L 434.62,101.12 L 448.89,104.72 L 456.49,99.41 L 464.75,99.81 L 465.57,102.77 L 473.72,99.95 L 480.97,108.20 L 481.82,116.90 L 490.60,124.23 L 489.59,127.14 L 481.63,128.91 L 485.36,135.30 L 484.31,140.38 L 487.72,142.89 L 484.31,146.50 L 496.03,147.12 L 497.87,149.92 L 509.07,148.23 L 510.88,154.51 L 516.74,155.90 L 514.79,159.32 L 519.90,170.93 L 517.37,172.90 L 523.85,184.27 L 537.56,181.35 L 542.09,187.23 L 546.00,186.25 L 551.11,190.47 L 573.88,180.89 L 578.98,186.83 L 578.93,190.79 L 590.11,203.29 L 594.71,201.58 L 594.93,196.54 L 598.42,196.53 L 599.98,199.89 L 608.54,200.54 L 616.10,207.35 L 622.16,204.40 L 625.07,209.83 L 633.30,210.70 L 640.07,218.35 L 648.78,216.31 L 646.54,220.67 L 650.00,227.13 L 649.50,230.83 L 643.32,239.16 L 636.53,242.43 L 647.04,247.50 L 639.46,249.27 L 635.36,258.57 L 641.55,259.87 L 643.47,267.44 L 640.47,270.30 L 645.32,272.59 L 638.91,282.65 L 638.19,291.02 L 614.43,289.12 L 610.47,296.87 L 598.95,300.48 L 595.34,312.71 L 598.37,314.60 L 594.05,323.79 L 592.09,321.18 L 577.52,321.94 L 571.66,330.33 L 568.66,328.03 L 558.31,333.78 L 558.55,334.77 L 555.97,340.64 L 556.89,336.97 L 553.93,334.64 L 545.73,337.00 L 542.35,341.91 L 539.88,339.31 L 531.90,340.00 L 520.52,348.62 L 511.38,362.08 L 506.40,364.20 L 516.38,353.34 L 512.12,345.91 L 512.70,350.79 L 509.90,354.94 L 501.68,360.04 L 506.22,379.38 L 501.04,375.75 L 498.26,368.57 L 492.04,369.36 L 488.42,364.55 L 474.89,359.24 L 470.01,358.30 L 465.74,365.53 L 457.37,362.08 L 457.94,358.06 L 454.83,361.76 L 437.65,364.27 L 420.51,354.01 L 418.17,355.48 L 418.13,353.07 L 425.40,350.90 L 416.71,346.43 L 414.99,349.38 L 410.04,342.74 L 432.49,347.93 L 441.59,340.13 L 433.00,343.81 L 424.31,340.99 L 422.03,335.53 L 423.89,328.95 L 423.57,327.89 L 421.90,327.28 L 423.04,324.99 L 419.94,324.27 L 420.82,321.48 L 418.98,317.52 L 416.96,316.28 L 416.52,314.47 L 416.10,316.09 L 420.19,321.43 L 419.17,325.02 L 422.80,328.03 L 419.93,333.52 L 420.89,340.13 L 409.62,341.01 L 413.09,333.23 L 410.04,336.11 L 408.17,333.78 L 409.98,337.15 L 407.49,340.99 L 390.14,344.20 L 389.63,350.79 L 386.29,352.97 L 381.91,364.09 L 372.05,375.07 L 371.74,372.05 L 370.83,375.27 L 366.16,375.32 L 366.33,379.09 L 362.73,378.53 L 364.33,381.42 L 360.82,383.72 L 358.17,374.79 L 356.83,386.04 L 360.08,385.44 L 357.27,389.45 L 361.44,391.57 L 359.18,400.59 L 358.51,395.01 L 352.42,391.46 L 346.80,391.74 L 338.53,397.83 L 334.64,396.05 L 335.00,399.30 L 332.43,400.03 L 321.89,395.99 L 318.27,390.14 L 326.66,388.16 L 325.88,381.88 L 333.21,374.32 L 333.27,369.45 L 339.28,367.42 L 340.90,359.79 L 338.63,356.58 L 338.97,348.33 L 345.58,344.83 L 346.04,352.44 L 348.98,347.61 L 350.87,349.96 L 353.16,347.07 L 357.55,352.25 L 360.28,347.64 L 363.44,353.19 L 371.86,349.68 L 365.49,345.13 L 366.22,333.39 L 355.97,327.66 L 357.17,322.81 L 353.73,320.68 L 355.58,319.67 L 355.91,311.74 L 351.83,313.60 L 344.79,306.43 L 343.73,302.93 L 347.02,288.72 L 343.91,284.29 L 339.09,286.02 L 334.90,278.57 L 328.65,276.75 L 326.04,280.54 L 324.15,276.09 L 321.54,277.58 L 322.66,273.23 L 315.32,273.28 L 314.85,270.02 L 301.17,262.82 L 290.78,268.10 L 280.34,266.80 L 278.74,271.19 L 276.12,269.38 L 265.68,274.35 L 262.06,283.57 L 236.79,287.55 L 231.74,294.10 L 226.66,295.48 L 216.82,285.64 L 208.20,287.61 L 186.83,284.48 L 177.91,279.15 L 170.66,285.52 L 168.54,279.45 L 163.11,279.19 L 159.67,273.06 L 156.22,273.04 L 153.86,266.29 L 150.00,266.24 L 150.16,259.30 L 154.92,254.58 L 161.28,238.14 L 170.36,240.76 L 165.22,234.39 L 166.78,229.58 L 164.78,217.29 L 192.97,183.57 L 201.27,182.03 L 204.78,176.31 L 204.04,169.06 L 200.61,165.06 L 205.76,163.02 L 191.67,144.15 L 193.40,139.95 L 191.16,130.67 L 201.27,132.30 L 212.63,119.93 L 250.82,117.88 L 289.19,125.12 L 292.42,132.24 L 304.21,132.17 L 304.81,137.45 L 308.05,131.17 L 314.70,133.50 L 318.56,129.53 L 322.00,134.73 L 329.49,133.67 L 332.95,140.08 L 334.92,134.55 L 342.23,130.43 L 344.92,131.58 L 349.35,141.58 L 358.16,136.31 L 363.46,138.87 L 372.33,136.58 L 383.18,147.07 L 386.11,141.51 L 382.50,131.56 L 388.78,119.17 L 394.32,115.14 L 393.69,112.38 L 417.15,110.64 L 421.20,113.65 Z M 370.31,376.22 L 371.70,375.42 L 365.66,381.52 L 362.87,383.72 L 360.75,384.68 L 370.31,376.22 Z M 453.01,366.42 L 452.53,366.97 L 440.86,364.95 L 453.01,366.42 Z M 425.65,359.80 L 428.29,361.19 L 412.04,356.42 L 410.42,354.29 L 409.94,351.76 L 413.09,356.57 L 425.65,359.80 Z" fill="#4A90D9" stroke="#1a5fa8" stroke-width="1.2"/>
<path d="M 20.79,337.29 L 14.51,336.68 L 32.40,329.78 L 31.63,327.74 L 36.67,322.84 L 40.05,324.81 L 31.76,331.11 L 20.79,337.29 Z" fill="#A8C8E8" stroke="none"/>
<path d="M 61.48,201.66 L 57.27,202.52 L 58.05,201.66 L 61.48,201.66 Z" fill="#A8C8E8" stroke="none"/>
<path d="M 380.17,363.96 L 371.47,352.42 L 374.26,350.79 L 376.38,354.41 L 376.79,351.70 L 381.53,360.91 L 380.17,363.96 Z" fill="#A8C8E8" stroke="none"/>
<path d="M 408.17,198.47 L 410.46,198.16 L 412.33,206.28 L 407.79,208.73 L 408.17,198.47 Z" fill="#A8C8E8" stroke="none"/>
<path d="M 304.36,221.57 L 302.00,224.76 L 298.11,223.61 L 304.36,221.57 Z" fill="#A8C8E8" stroke="none"/>
<path d="M 136.25,25.09 L 138.26,25.09 L 136.59,21.76 L 141.08,23.11 L 138.45,24.23 L 140.06,25.82 L 138.72,29.40 L 134.71,26.87 L 136.25,25.09 Z" fill="#A8C8E8" stroke="none"/>
<path d="M 82.00,40.98 L 80.75,43.91 L 78.17,46.75 L 80.38,43.24 L 78.35,39.42 L 82.00,40.98 Z" fill="#A8C8E8" stroke="none"/>
<path d="M 134.26,39.02 L 131.90,34.65 L 133.49,33.61 L 134.26,39.02 Z" fill="#A8C8E8" stroke="none"/>
<path d="M 138.81,41.55 L 140.36,44.14 L 135.59,43.28 L 135.64,40.72 L 134.06,44.14 L 134.26,39.02 L 141.49,40.36 L 138.81,41.55 Z" fill="#A8C8E8" stroke="none"/>
<path d="M 145.49,44.71 L 141.08,45.39 L 142.32,43.80 L 145.49,44.71 Z" fill="#A8C8E8" stroke="none"/>
<path d="M 141.30,31.13 L 137.11,35.24 L 139.78,31.91 L 139.18,29.87 L 141.30,31.13 Z" fill="#A8C8E8" stroke="none"/>
<path d="M 177.78,30.00 L 176.38,30.31 L 174.38,30.00 L 177.78,30.00 Z" fill="#A8C8E8" stroke="none"/>
<path d="M 479.04,246.84 L 482.59,244.10 L 482.31,248.04 L 485.23,247.02 L 494.97,259.61 L 492.78,260.88 L 484.48,251.74 L 466.30,241.08 L 479.04,246.84 Z" fill="#A8C8E8" stroke="none"/>
<path d="M 379.64,156.46 L 375.25,155.54 L 384.59,147.70 L 382.48,173.96 L 378.72,168.47 L 379.64,156.46 Z" fill="#A8C8E8" stroke="none"/>
<path d="M 514.72,307.06 L 506.02,308.70 L 496.24,302.59 L 480.58,307.83 L 479.99,310.73 L 484.24,309.39 L 485.14,312.45 L 480.15,311.99 L 470.82,326.31 L 473.33,328.90 L 469.18,330.93 L 470.70,331.78 L 466.40,332.48 L 469.29,325.87 L 467.66,324.66 L 477.99,312.86 L 477.15,301.77 L 485.23,303.21 L 485.71,299.74 L 489.94,302.65 L 495.54,299.65 L 506.50,301.93 L 510.19,296.34 L 510.04,289.67 L 515.83,302.18 L 514.72,307.06 Z" fill="#A8C8E8" stroke="none"/>
<path d="M 456.61,242.34 L 450.93,242.06 L 454.16,238.27 L 445.03,237.46 L 420.51,217.81 L 423.10,215.82 L 443.13,226.49 L 444.46,225.60 L 440.65,221.57 L 443.57,217.17 L 443.12,220.97 L 447.68,222.73 L 456.44,235.42 L 456.61,242.34 Z" fill="#A8C8E8" stroke="none"/>
<path d="M 753.96,243.19 L 746.87,244.65 L 746.01,247.83 L 741.90,252.00 L 744.72,256.24 L 750.67,254.74 L 742.50,261.39 L 745.82,261.74 L 738.82,264.86 L 737.16,268.60 L 738.51,271.19 L 733.21,271.99 L 731.25,279.58 L 735.63,282.43 L 730.12,285.63 L 731.23,296.17 L 728.71,289.67 L 719.93,293.94 L 715.88,299.74 L 712.50,298.64 L 711.72,301.59 L 705.90,302.92 L 704.09,300.04 L 707.56,294.64 L 705.91,292.23 L 709.05,291.65 L 706.78,289.67 L 710.27,290.09 L 711.34,286.19 L 708.94,285.04 L 706.94,282.74 L 710.11,285.27 L 712.31,283.33 L 715.99,291.25 L 723.01,288.40 L 725.01,278.12 L 722.14,276.40 L 729.76,273.93 L 731.48,269.16 L 730.70,263.98 L 726.71,260.25 L 738.30,263.70 L 743.24,256.05 L 741.17,253.30 L 741.37,250.27 L 746.66,243.81 L 753.47,242.34 L 756.22,233.38 L 749.97,233.66 L 748.09,232.31 L 747.63,225.02 L 744.01,219.85 L 748.22,225.17 L 749.63,232.96 L 756.75,232.92 L 753.96,243.19 Z" fill="#A8C8E8" stroke="none"/>
<path d="M 519.52,397.83 L 508.33,393.80 L 507.18,391.48 L 509.55,389.61 L 506.25,381.67 L 499.01,379.09 L 499.96,375.64 L 497.10,376.51 L 499.96,371.59 L 491.96,377.08 L 496.54,369.69 L 494.25,368.71 L 494.94,370.92 L 492.69,372.72 L 491.49,370.33 L 490.57,373.18 L 488.86,366.38 L 482.37,364.96 L 484.73,367.96 L 483.42,370.15 L 480.19,363.81 L 477.48,363.32 L 478.64,366.74 L 475.43,365.85 L 475.05,360.77 L 473.25,362.37 L 469.94,358.06 L 476.21,357.75 L 482.99,362.25 L 481.31,359.47 L 484.76,359.75 L 484.20,355.73 L 487.70,363.20 L 487.79,358.45 L 494.25,359.59 L 494.47,363.89 L 492.54,362.08 L 490.29,367.00 L 492.55,368.88 L 496.61,364.48 L 496.36,360.65 L 499.74,360.65 L 501.01,363.50 L 497.49,363.81 L 501.21,366.25 L 501.66,375.15 L 503.97,373.94 L 519.52,397.83 Z" fill="#A8C8E8" stroke="none"/>
<path d="M 86.40,10.86 L 85.64,9.06 L 89.50,9.06 L 86.40,10.86 Z" fill="#A8C8E8" stroke="none"/>
<path d="M 73.23,21.07 L 73.82,19.02 L 69.46,16.70 L 82.89,9.06 L 85.64,9.06 L 86.40,10.86 L 73.23,21.07 Z" fill="#A8C8E8" stroke="none"/>
</svg>