<svg xmlns="http://www.w3.org/2000/svg" width="800" height="500" viewBox="0 0 800 500">
<rect width="800" height="500" fill="#A8C8E8"/>
<path d="M 244.19,8.41 L 248.83,8.41 L 251.42,12.11 L 250.69,15.59 L 243.84,16.10 L 244.89,12.33 L 242.27,9.37 L 235.25,11.21 L 231.52,16.65 L 224.58,16.55 L 223.66,23.75 L 212.27,27.37 L 206.49,24.22 L 191.45,26.87 L 187.52,25.08 L 187.20,17.51 L 183.88,12.95 L 165.92,4.14 L 165.86,0.00 L 248.75,0.00 L 244.19,8.41 Z" fill="#E8E0D0" stroke="#B8B0A0" stroke-width="0.5"/>
<path d="M 8.04,187.62 L 4.66,178.25 L 19.40,186.65 L 27.27,183.57 L 28.37,187.66 L 23.98,190.03 L 25.18,192.52 L 30.91,198.31 L 36.27,197.04 L 35.44,195.12 L 43.48,201.19 L 50.88,201.22 L 52.50,209.66 L 57.24,211.64 L 58.48,218.56 L 50.23,219.80 L 39.82,229.54 L 37.46,238.78 L 27.80,246.83 L 12.28,246.97 L 6.11,258.14 L 4.11,253.12 L 0.00,251.53 L 0.00,192.10 L 8.04,187.62 Z" fill="#E8E0D0" stroke="#B8B0A0" stroke-width="0.5"/>
<path d="M 654.87,496.79 L 651.65,489.01 L 645.19,485.95 L 647.22,479.57 L 663.66,479.40 L 689.33,493.54 L 724.06,495.57 L 728.11,500.00 L 668.50,500.00 L 654.87,496.79 Z" fill="#E8E0D0" stroke="#B8B0A0" stroke-width="0.5"/>
<path d="M 109.28,499.22 L 107.60,494.30 L 112.88,491.45 L 114.10,495.50 L 121.15,498.99 L 121.68,500.00 L 108.53,500.00 L 109.28,499.22 Z" fill="#E8E0D0" stroke="#B8B0A0" stroke-width="0.5"/>
<path d="M 3.32,268.56 L 11.75,284.29 L 7.74,290.50 L 9.72,297.26 L 2.01,298.71 L 0.00,297.62 L 0.00,251.53 L 4.11,253.12 L 6.11,258.14 L 3.32,268.56 Z" fill="#E8E0D0" stroke="#B8B0A0" stroke-width="0.5"/>
<path d="M 109.93,383.12 L 112.64,382.71 L 112.12,394.64 L 132.26,409.24 L 128.33,415.66 L 133.45,420.42 L 128.44,421.84 L 129.56,424.74 L 146.16,430.49 L 149.83,437.31 L 158.13,427.21 L 167.54,433.80 L 159.74,437.43 L 165.50,449.28 L 162.76,456.47 L 157.40,459.55 L 156.01,467.65 L 160.71,482.23 L 173.62,495.32 L 170.96,500.00 L 121.68,500.00 L 121.15,498.99 L 114.10,495.50 L 113.57,491.70 L 107.60,494.30 L 108.58,500.00 L 91.42,500.00 L 88.88,497.97 L 79.70,495.25 L 67.98,481.94 L 70.11,477.23 L 76.69,478.29 L 77.18,474.68 L 69.86,459.17 L 77.77,460.26 L 80.27,457.70 L 66.34,444.25 L 66.71,436.62 L 73.55,421.56 L 68.29,418.74 L 63.54,421.45 L 62.87,419.30 L 66.76,417.62 L 64.35,409.58 L 74.42,406.71 L 62.48,399.36 L 63.37,393.80 L 66.05,393.23 L 60.43,390.55 L 62.23,386.37 L 59.09,378.13 L 64.92,371.37 L 70.41,372.71 L 78.36,364.72 L 97.58,367.17 L 109.93,383.12 Z" fill="#E8E0D0" stroke="#B8B0A0" stroke-width="0.5"/>
<path d="M 3.13,355.21 L 15.68,372.57 L 24.03,374.68 L 31.43,381.87 L 46.59,383.17 L 53.55,375.93 L 60.37,374.90 L 58.81,379.95 L 62.23,386.37 L 60.43,390.55 L 66.05,393.23 L 63.37,393.80 L 62.48,399.36 L 74.42,406.71 L 66.49,407.03 L 64.35,409.58 L 66.76,417.62 L 60.04,421.64 L 54.34,411.88 L 49.71,413.14 L 41.97,408.70 L 30.81,412.76 L 26.62,408.42 L 12.82,409.09 L 5.53,403.15 L 2.41,407.66 L 0.00,407.11 L 0.00,353.57 L 3.13,355.21 Z M 8.48,478.99 L 15.14,482.71 L 15.67,489.69 L 24.30,500.00 L 19.88,500.00 L 4.32,485.21 L 0.00,483.75 L 0.00,468.85 L 8.48,478.99 Z M 0.00,496.25 L 0.00,495.69 L 13.00,497.39 L 6.06,497.39 L 0.00,496.25 Z M 0.00,489.22 L 0.00,488.02 L 4.65,489.31 L 0.00,489.22 Z" fill="#E8E0D0" stroke="#B8B0A0" stroke-width="0.5"/>
<path d="M 173.54,494.25 L 160.71,482.23 L 156.01,467.65 L 157.40,459.55 L 162.76,456.47 L 165.50,449.28 L 174.91,455.20 L 170.89,459.50 L 170.97,466.27 L 187.50,464.48 L 240.71,474.55 L 251.19,470.97 L 261.44,458.72 L 285.76,451.53 L 295.64,458.60 L 302.57,457.96 L 305.02,461.50 L 310.30,459.55 L 312.21,465.84 L 318.87,469.66 L 328.78,470.56 L 328.28,483.12 L 325.86,486.92 L 321.66,484.24 L 316.03,485.84 L 313.22,492.78 L 310.07,494.11 L 309.98,500.00 L 170.56,500.00 L 173.54,494.25 Z" fill="#E8E0D0" stroke="#B8B0A0" stroke-width="0.5"/>
<path d="M 53.79,492.76 L 58.15,488.03 L 62.90,491.28 L 65.04,489.46 L 60.49,481.51 L 62.48,479.09 L 68.52,479.67 L 68.44,483.09 L 79.70,495.25 L 88.88,497.97 L 91.33,500.00 L 53.25,500.00 L 53.79,492.76 Z" fill="#E8E0D0" stroke="#B8B0A0" stroke-width="0.5"/>
<path d="M 15.67,489.69 L 15.14,482.71 L 8.48,478.99 L 0.00,468.85 L 0.00,407.11 L 2.41,407.66 L 5.53,403.15 L 12.82,409.09 L 26.62,408.42 L 30.81,412.76 L 41.97,408.70 L 49.71,413.14 L 54.18,411.76 L 60.04,421.64 L 68.29,418.74 L 73.33,420.51 L 66.08,442.54 L 80.06,456.88 L 77.77,460.26 L 70.67,458.72 L 69.47,461.11 L 75.91,469.65 L 76.69,478.29 L 72.72,476.35 L 60.64,480.79 L 65.04,489.46 L 62.90,491.28 L 58.15,488.03 L 53.79,492.76 L 53.25,500.00 L 24.30,500.00 L 15.67,489.69 Z" fill="#E8E0D0" stroke="#B8B0A0" stroke-width="0.5"/>
<path d="M 188.82,124.69 L 192.81,110.05 L 191.73,106.10 L 178.65,97.15 L 184.93,87.53 L 199.64,77.36 L 198.84,59.47 L 190.44,39.41 L 187.52,25.08 L 206.49,24.22 L 212.27,27.37 L 224.15,23.51 L 224.58,16.55 L 231.52,16.65 L 235.25,11.21 L 242.27,9.37 L 244.89,12.33 L 243.84,16.10 L 250.69,15.59 L 251.42,12.11 L 248.83,8.41 L 244.19,8.41 L 248.75,0.00 L 398.21,0.00 L 397.74,0.92 L 401.74,2.86 L 404.95,12.41 L 418.76,20.09 L 416.60,31.39 L 426.00,30.74 L 435.95,34.92 L 437.28,36.53 L 434.75,38.36 L 435.59,41.58 L 443.64,46.91 L 443.58,51.48 L 436.30,52.99 L 435.43,57.18 L 426.94,62.57 L 412.98,56.95 L 406.44,58.16 L 402.80,65.48 L 411.50,75.41 L 409.28,79.98 L 413.38,85.85 L 411.22,87.43 L 411.68,96.19 L 415.35,98.81 L 417.15,105.40 L 393.69,107.21 L 394.32,110.07 L 388.78,114.25 L 382.50,127.11 L 386.11,137.43 L 383.48,143.13 L 372.33,132.32 L 363.46,134.70 L 358.16,132.03 L 349.35,137.51 L 344.92,127.12 L 342.23,125.93 L 334.92,130.21 L 332.95,135.95 L 329.49,129.30 L 322.00,130.40 L 318.56,125.00 L 314.70,129.12 L 308.05,126.70 L 304.81,133.22 L 304.21,127.74 L 292.42,127.81 L 289.19,120.42 L 250.82,112.92 L 212.63,115.04 L 201.27,127.88 L 191.50,126.00 L 190.87,130.88 L 188.82,124.69 Z" fill="#C8D8E8" stroke="#8BAABB" stroke-width="0.8"/>
<path d="M 164.00,294.51 L 153.89,296.60 L 146.53,305.61 L 146.36,311.01 L 136.13,327.22 L 132.50,341.16 L 126.93,345.51 L 126.36,353.71 L 120.01,361.58 L 113.58,360.03 L 109.26,365.88 L 103.84,364.29 L 97.58,367.17 L 78.36,364.72 L 70.41,372.71 L 65.56,371.07 L 62.60,375.31 L 53.55,375.93 L 46.59,383.17 L 31.43,381.87 L 24.03,374.68 L 17.21,373.83 L 3.13,355.21 L 0.00,353.38 L 0.00,297.62 L 2.01,298.71 L 9.72,297.26 L 7.74,290.50 L 12.76,283.64 L 30.53,295.45 L 54.59,294.23 L 58.01,291.84 L 55.98,285.79 L 58.63,282.78 L 74.98,280.78 L 80.39,274.61 L 88.86,278.85 L 99.84,272.30 L 104.20,261.55 L 113.04,259.66 L 121.61,263.16 L 130.35,260.01 L 139.63,269.95 L 153.86,266.90 L 156.22,273.91 L 159.67,273.93 L 163.11,280.29 L 168.54,280.56 L 170.66,286.86 L 164.00,294.51 Z" fill="#C8D8E8" stroke="#8BAABB" stroke-width="0.8"/>
<path d="M 276.12,270.11 L 279.06,271.68 L 280.34,267.43 L 290.78,268.78 L 301.77,263.38 L 314.85,270.77 L 315.32,274.16 L 322.66,274.11 L 321.54,278.62 L 324.15,277.07 L 326.04,281.69 L 328.65,277.76 L 334.90,279.65 L 339.09,287.38 L 343.91,285.58 L 347.02,290.18 L 343.73,304.91 L 344.79,308.55 L 351.83,315.99 L 355.91,314.06 L 355.58,322.29 L 353.73,323.34 L 357.17,325.55 L 355.97,330.58 L 366.22,336.52 L 365.49,348.71 L 371.86,353.43 L 363.44,357.07 L 360.28,351.31 L 357.55,356.09 L 353.16,350.72 L 350.87,353.72 L 348.98,351.28 L 346.04,356.30 L 345.58,348.39 L 338.97,352.03 L 338.63,360.58 L 340.90,363.92 L 339.28,371.84 L 333.27,373.94 L 333.21,378.99 L 325.88,386.84 L 326.66,393.36 L 318.27,395.41 L 314.46,389.65 L 317.39,387.95 L 315.03,371.25 L 319.60,344.78 L 315.03,329.46 L 307.37,321.89 L 300.87,311.82 L 300.97,308.10 L 293.43,299.10 L 286.18,278.97 L 279.59,273.25 L 274.40,273.22 L 276.12,270.11 Z" fill="#C8D8E8" stroke="#8BAABB" stroke-width="0.8"/>
<path d="M 57.24,211.64 L 52.50,209.66 L 50.88,201.22 L 43.48,201.19 L 35.44,195.12 L 36.27,197.04 L 30.91,198.31 L 25.18,192.52 L 23.98,190.03 L 28.37,187.66 L 27.27,183.57 L 19.40,186.65 L 4.66,178.25 L 8.04,187.62 L 0.00,192.10 L 0.00,0.00 L 50.44,0.00 L 51.68,3.48 L 59.94,7.13 L 80.01,2.48 L 165.69,7.45 L 169.55,4.91 L 186.51,15.66 L 190.44,39.41 L 198.84,59.47 L 199.64,77.36 L 184.93,87.53 L 178.65,97.15 L 191.73,106.10 L 192.81,110.05 L 189.12,127.59 L 193.40,135.81 L 191.67,140.17 L 205.76,159.75 L 200.61,161.87 L 204.04,166.02 L 204.78,173.54 L 201.27,179.48 L 192.97,181.08 L 164.78,216.06 L 166.78,228.82 L 165.22,233.80 L 169.99,237.14 L 170.04,241.11 L 147.45,232.22 L 144.33,226.40 L 135.25,222.21 L 120.49,222.53 L 116.33,228.16 L 109.97,223.35 L 99.65,223.74 L 94.61,227.35 L 92.24,233.28 L 84.20,232.36 L 84.44,223.67 L 80.50,223.29 L 75.79,214.72 L 67.04,223.63 L 62.06,223.84 L 62.03,219.32 L 58.48,218.56 L 57.24,211.64 Z" fill="#C8D8E8" stroke="#8BAABB" stroke-width="0.8"/>
<path d="M 177.91,280.24 L 186.83,285.78 L 208.20,289.03 L 216.82,286.98 L 226.66,297.19 L 231.74,295.76 L 236.79,288.96 L 262.06,284.83 L 265.68,275.27 L 276.36,272.52 L 283.28,275.58 L 289.68,285.27 L 292.80,297.94 L 300.97,308.10 L 300.87,311.82 L 314.65,328.71 L 319.23,342.96 L 319.56,353.21 L 315.76,361.67 L 315.03,371.25 L 317.39,387.95 L 314.46,389.65 L 321.89,401.47 L 332.43,405.67 L 335.00,404.91 L 334.64,401.54 L 338.53,403.39 L 349.41,396.19 L 356.27,398.33 L 359.88,408.51 L 357.61,421.63 L 344.80,425.00 L 340.49,429.17 L 339.78,426.72 L 344.32,424.14 L 341.70,421.45 L 343.54,416.89 L 340.01,415.04 L 336.85,418.05 L 338.98,425.84 L 334.48,430.90 L 337.63,427.95 L 339.57,428.64 L 340.13,429.76 L 333.75,431.88 L 333.77,438.94 L 338.39,432.16 L 330.35,445.44 L 331.37,459.38 L 328.78,470.56 L 318.87,469.66 L 312.21,465.84 L 310.30,459.55 L 305.02,461.50 L 302.57,457.96 L 295.64,458.60 L 285.76,451.53 L 261.44,458.72 L 251.19,470.97 L 240.71,474.55 L 187.50,464.48 L 170.97,466.27 L 170.89,459.50 L 174.91,455.20 L 165.47,449.26 L 159.55,439.00 L 162.42,434.56 L 167.54,433.80 L 158.13,427.21 L 149.83,437.31 L 146.16,430.49 L 129.56,424.74 L 128.44,421.84 L 133.45,420.42 L 128.33,415.66 L 132.26,409.24 L 112.12,394.64 L 112.64,382.71 L 109.93,383.12 L 97.58,367.17 L 103.84,364.29 L 109.26,365.88 L 112.99,360.21 L 122.59,359.50 L 126.36,353.71 L 126.93,345.51 L 132.50,341.16 L 136.13,327.22 L 146.36,311.01 L 146.53,305.61 L 153.89,296.60 L 164.00,294.51 L 177.91,280.24 Z" fill="#C8D8E8" stroke="#8BAABB" stroke-width="0.8"/>
<path d="M 724.06,495.57 L 689.33,493.54 L 663.66,479.40 L 652.04,477.79 L 647.59,478.87 L 644.54,485.79 L 611.13,447.31 L 596.13,442.35 L 583.96,427.38 L 584.56,431.51 L 576.20,430.06 L 567.69,415.97 L 550.64,407.10 L 561.30,403.22 L 556.51,402.82 L 555.65,400.11 L 558.14,399.53 L 556.31,398.65 L 553.16,401.32 L 557.74,396.23 L 566.23,400.92 L 564.54,405.14 L 571.22,403.71 L 566.77,401.34 L 576.77,399.45 L 578.76,402.94 L 582.59,402.40 L 583.01,395.90 L 579.98,389.02 L 578.63,396.69 L 578.87,387.83 L 581.86,388.42 L 580.86,386.35 L 585.37,382.68 L 588.44,371.01 L 592.81,369.37 L 591.00,370.79 L 591.20,379.93 L 594.75,366.63 L 605.63,370.47 L 605.93,367.32 L 593.51,355.40 L 587.47,353.94 L 582.63,342.62 L 589.61,344.92 L 597.64,339.90 L 606.06,343.34 L 604.34,339.90 L 600.59,340.96 L 601.60,335.49 L 612.39,332.86 L 619.92,326.79 L 625.61,327.65 L 628.62,323.18 L 625.61,324.38 L 625.16,316.82 L 620.28,315.70 L 613.61,321.07 L 603.36,321.99 L 605.63,318.68 L 611.62,317.49 L 612.58,315.64 L 605.45,318.17 L 601.97,322.38 L 596.11,323.70 L 595.75,319.81 L 598.45,316.15 L 595.39,314.37 L 598.95,302.38 L 610.47,298.63 L 613.15,291.16 L 638.89,291.83 L 638.91,283.88 L 645.39,272.59 L 640.47,271.07 L 643.47,268.10 L 641.01,259.48 L 635.36,258.89 L 639.46,249.24 L 644.89,250.03 L 647.07,246.56 L 638.88,245.41 L 636.73,239.96 L 643.32,238.76 L 649.50,230.11 L 650.00,226.27 L 646.54,219.57 L 649.20,215.52 L 640.07,217.16 L 633.30,209.22 L 625.07,208.32 L 622.16,202.68 L 616.10,205.75 L 608.54,198.68 L 599.98,198.01 L 598.42,194.52 L 594.93,194.53 L 594.71,199.76 L 590.11,201.54 L 578.93,188.56 L 578.98,184.45 L 573.88,178.30 L 551.11,188.23 L 546.00,183.86 L 542.09,184.87 L 537.56,178.77 L 523.85,181.80 L 517.37,170.00 L 519.90,167.96 L 514.79,155.91 L 516.74,152.36 L 510.88,150.92 L 509.07,144.41 L 497.87,146.15 L 496.03,143.26 L 484.31,142.60 L 487.72,138.86 L 484.31,136.26 L 485.36,130.99 L 481.63,124.36 L 489.59,122.52 L 490.60,119.51 L 481.82,111.90 L 480.97,102.87 L 473.72,94.30 L 465.57,97.23 L 464.75,94.17 L 456.49,93.75 L 448.89,99.26 L 434.62,95.52 L 430.15,106.26 L 421.20,108.52 L 417.15,105.40 L 415.35,98.81 L 411.68,96.19 L 411.22,87.43 L 413.38,85.85 L 409.28,79.98 L 411.50,75.41 L 402.80,65.48 L 407.49,57.38 L 429.26,61.85 L 435.43,57.18 L 436.30,52.99 L 443.58,51.48 L 443.64,46.91 L 435.59,41.58 L 434.75,38.36 L 437.28,36.53 L 435.95,34.92 L 426.00,30.74 L 416.60,31.39 L 418.76,20.09 L 404.95,12.41 L 401.74,2.86 L 397.74,0.92 L 398.21,0.00 L 800.00,0.00 L 800.00,500.00 L 728.11,500.00 L 724.06,495.57 Z M 81.97,3.35 L 80.01,2.48 L 82.18,0.00 L 165.85,0.00 L 167.60,6.86 L 81.97,3.35 Z M 470.01,362.37 L 473.66,363.04 L 488.42,368.85 L 492.04,373.85 L 498.26,373.03 L 501.62,381.29 L 506.94,383.73 L 520.23,402.57 L 526.75,400.70 L 530.00,395.01 L 534.24,399.73 L 542.51,394.76 L 550.81,396.91 L 552.33,400.23 L 546.76,403.70 L 546.84,412.63 L 530.41,415.91 L 520.93,410.62 L 517.08,418.05 L 513.99,417.38 L 509.13,424.59 L 499.15,423.84 L 492.16,427.38 L 488.34,435.43 L 482.00,440.69 L 471.42,441.81 L 461.75,434.08 L 467.27,432.16 L 465.74,424.97 L 468.61,418.57 L 466.33,410.45 L 462.42,407.29 L 458.62,408.76 L 448.62,400.11 L 440.09,401.59 L 437.04,397.72 L 456.11,381.31 L 470.60,377.98 L 472.97,374.97 L 468.61,374.05 L 470.01,362.37 Z" fill="#C8D8E8" stroke="#8BAABB" stroke-width="0.8"/>
<path d="M 154.92,254.75 L 150.16,259.65 L 148.99,267.95 L 138.76,269.64 L 130.35,260.01 L 121.61,263.16 L 113.04,259.66 L 105.00,261.21 L 99.84,272.30 L 88.86,278.85 L 80.39,274.61 L 74.98,280.78 L 58.63,282.78 L 55.98,285.79 L 58.01,291.84 L 54.59,294.23 L 28.21,294.78 L 17.00,284.58 L 9.57,282.97 L 3.32,268.56 L 8.34,251.93 L 12.28,246.97 L 27.80,246.83 L 37.46,238.78 L 39.82,229.54 L 50.23,219.80 L 61.23,218.81 L 62.06,223.84 L 67.04,223.63 L 75.40,214.56 L 80.50,223.29 L 84.44,223.67 L 84.90,232.63 L 92.24,233.28 L 94.61,227.35 L 99.65,223.74 L 109.97,223.35 L 116.33,228.16 L 120.59,225.24 L 120.06,222.74 L 125.81,221.21 L 141.31,224.37 L 147.45,232.22 L 161.28,237.69 L 154.92,254.75 Z" fill="#C8D8E8" stroke="#8BAABB" stroke-width="0.8"/>
<path d="M 421.20,108.52 L 430.15,106.26 L 434.62,95.52 L 448.89,99.26 L 456.49,93.75 L 464.75,94.17 L 465.57,97.23 L 473.72,94.30 L 480.97,102.87 L 481.82,111.90 L 490.60,119.51 L 489.59,122.52 L 481.63,124.36 L 485.36,130.99 L 484.31,136.26 L 487.72,138.86 L 484.31,142.60 L 496.03,143.26 L 497.87,146.15 L 509.07,144.41 L 510.88,150.92 L 516.74,152.36 L 514.79,155.91 L 519.90,167.96 L 517.37,170.00 L 523.85,181.80 L 537.56,178.77 L 542.09,184.87 L 546.00,183.86 L 551.11,188.23 L 573.88,178.30 L 578.98,184.45 L 578.93,188.56 L 590.11,201.54 L 594.71,199.76 L 594.93,194.53 L 598.42,194.52 L 599.98,198.01 L 608.54,198.68 L 616.10,205.75 L 622.16,202.68 L 625.07,208.32 L 633.30,209.22 L 640.07,217.16 L 648.78,215.05 L 646.54,219.57 L 650.00,226.27 L 649.50,230.11 L 643.32,238.76 L 636.53,242.15 L 647.04,247.41 L 639.46,249.24 L 635.36,258.89 L 641.55,260.24 L 643.47,268.10 L 640.47,271.07 L 645.32,273.44 L 638.91,283.88 L 638.19,292.57 L 614.43,290.59 L 610.47,298.63 L 598.95,302.38 L 595.34,315.06 L 598.37,317.03 L 594.05,326.57 L 592.09,323.85 L 577.52,324.65 L 571.66,333.35 L 568.66,330.96 L 558.31,336.93 L 558.55,337.96 L 555.97,344.05 L 556.89,340.24 L 553.93,337.82 L 545.73,340.27 L 542.35,345.36 L 539.88,342.67 L 531.90,343.38 L 520.52,352.33 L 511.38,366.29 L 506.40,368.50 L 516.38,357.23 L 512.12,349.51 L 512.70,354.58 L 509.90,358.89 L 501.68,364.18 L 506.22,384.24 L 501.04,380.47 L 498.26,373.03 L 492.04,373.85 L 488.42,368.85 L 474.89,363.35 L 470.01,362.37 L 465.74,369.87 L 457.37,366.29 L 457.94,362.12 L 454.83,365.96 L 437.65,368.57 L 420.51,357.92 L 418.17,359.44 L 418.13,356.95 L 425.40,354.69 L 416.71,350.06 L 414.99,353.12 L 410.04,346.23 L 432.49,351.61 L 441.59,343.52 L 433.00,347.34 L 424.31,344.41 L 422.03,338.75 L 423.89,331.92 L 423.57,330.82 L 421.90,330.19 L 423.04,327.80 L 419.94,327.06 L 420.82,324.16 L 418.98,320.05 L 416.96,318.77 L 416.52,316.89 L 416.10,318.58 L 420.19,324.11 L 419.17,327.84 L 422.80,330.96 L 419.93,336.66 L 420.89,343.52 L 409.62,344.43 L 413.09,336.36 L 410.04,339.34 L 408.17,336.93 L 409.98,340.43 L 407.49,344.41 L 390.14,347.74 L 389.63,354.58 L 386.29,356.84 L 381.91,368.38 L 372.05,379.77 L 371.74,376.64 L 370.83,379.98 L 366.16,380.03 L 366.33,383.94 L 362.73,383.36 L 364.33,386.36 L 360.82,388.74 L 358.17,379.48 L 356.83,391.16 L 360.08,390.54 L 357.27,394.69 L 361.44,396.89 L 359.18,406.25 L 358.51,400.46 L 352.42,396.78 L 346.80,397.07 L 338.53,403.39 L 334.64,401.54 L 335.00,404.91 L 332.43,405.67 L 321.89,401.47 L 318.27,395.41 L 326.66,393.36 L 325.88,386.84 L 333.21,378.99 L 333.27,373.94 L 339.28,371.84 L 340.90,363.92 L 338.63,360.58 L 338.97,352.03 L 345.58,348.39 L 346.04,356.30 L 348.98,351.28 L 350.87,353.72 L 353.16,350.72 L 357.55,356.09 L 360.28,351.31 L 363.44,357.07 L 371.86,353.43 L 365.49,348.71 L 366.22,336.52 L 355.97,330.58 L 357.17,325.55 L 353.73,323.34 L 355.58,322.29 L 355.91,314.06 L 351.83,315.99 L 344.79,308.55 L 343.73,304.91 L 347.02,290.18 L 343.91,285.58 L 339.09,287.38 L 334.90,279.65 L 328.65,277.76 L 326.04,281.69 L 324.15,277.07 L 321.54,278.62 L 322.66,274.11 L 315.32,274.16 L 314.85,270.77 L 301.17,263.30 L 290.78,268.78 L 280.34,267.43 L 278.74,271.98 L 276.12,270.11 L 265.68,275.27 L 262.06,284.83 L 236.79,288.96 L 231.74,295.76 L 226.66,297.19 L 216.82,286.98 L 208.20,289.03 L 186.83,285.78 L 177.91,280.24 L 170.66,286.86 L 168.54,280.56 L 163.11,280.29 L 159.67,273.93 L 156.22,273.91 L 153.86,266.90 L 150.00,266.85 L 150.16,259.65 L 154.92,254.75 L 161.28,237.69 L 170.36,240.41 L 165.22,233.80 L 166.78,228.82 L 164.78,216.06 L 192.97,181.08 L 201.27,179.48 L 204.78,173.54 L 204.04,166.02 L 200.61,161.87 L 205.76,159.75 L 191.67,140.17 L 193.40,135.81 L 191.16,126.19 L 201.27,127.88 L 212.63,115.04 L 250.82,112.92 L 289.19,120.42 L 292.42,127.81 L 304.21,127.74 L 304.81,133.22 L 308.05,126.70 L 314.70,129.12 L 318.56,125.00 L 322.00,130.40 L 329.49,129.30 L 332.95,135.95 L 334.92,130.21 L 342.23,125.93 L 344.92,127.12 L 349.35,137.51 L 358.16,132.03 L 363.46,134.70 L 372.33,132.32 L 383.18,143.21 L 386.11,137.43 L 382.50,127.11 L 388.78,114.25 L 394.32,110.07 L 393.69,107.21 L 417.15,105.40 L 421.20,108.52 Z M 370.31,380.96 L 371.70,380.13 L 365.66,386.47 L 362.87,388.74 L 360.75,389.75 L 370.31,380.96 Z M 453.01,370.79 L 452.53,371.37 L 440.86,369.27 L 453.01,370.79 Z M 425.65,363.93 L 428.29,365.37 L 412.04,360.42 L 410.42,358.21 L 409.94,355.59 L 413.09,360.57 L 425.65,363.93 Z" fill="#4A90D9" stroke="#1a5fa8" stroke-width="1.2"/>
<path d="M 20.79,340.57 L 14.51,339.94 L 32.40,332.77 L 31.63,330.67 L 36.67,325.57 L 40.05,327.62 L 31.76,334.16 L 20.79,340.57 Z" fill="#A8C8E8" stroke="none"/>
<path d="M 61.48,199.84 L 57.27,200.74 L 58.05,199.84 L 61.48,199.84 Z" fill="#A8C8E8" stroke="none"/>
<path d="M 380.17,368.24 L 371.47,356.27 L 374.26,354.58 L 376.38,358.34 L 376.79,355.52 L 381.53,365.08 L 380.17,368.24 Z" fill="#A8C8E8" stroke="none"/>
<path d="M 408.17,196.54 L 410.46,196.21 L 412.33,204.64 L 407.79,207.18 L 408.17,196.54 Z" fill="#A8C8E8" stroke="none"/>
<path d="M 304.36,220.50 L 302.00,223.81 L 298.11,222.61 L 304.36,220.50 Z" fill="#A8C8E8" stroke="none"/>
<path d="M 136.25,16.64 L 138.26,16.64 L 136.59,13.18 L 141.08,14.58 L 138.45,15.74 L 140.06,17.39 L 138.72,21.10 L 134.71,18.48 L 136.25,16.64 Z" fill="#A8C8E8" stroke="none"/>
<path d="M 82.00,33.12 L 80.75,36.16 L 78.17,39.10 L 80.38,35.47 L 78.35,31.50 L 82.00,33.12 Z" fill="#A8C8E8" stroke="none"/>
<path d="M 134.26,31.09 L 131.90,26.55 L 133.49,25.47 L 134.26,31.09 Z" fill="#A8C8E8" stroke="none"/>
<path d="M 138.81,33.72 L 140.36,36.40 L 135.59,35.50 L 135.64,32.85 L 134.06,36.40 L 134.26,31.09 L 141.49,32.48 L 138.81,33.72 Z" fill="#A8C8E8" stroke="none"/>
<path d="M 145.49,37.00 L 141.08,37.70 L 142.32,36.04 L 145.49,37.00 Z" fill="#A8C8E8" stroke="none"/>
<path d="M 141.30,22.90 L 137.11,27.17 L 139.78,23.71 L 139.18,21.60 L 141.30,22.90 Z" fill="#A8C8E8" stroke="none"/>
<path d="M 177.78,21.73 L 176.38,22.05 L 174.38,21.73 L 177.78,21.73 Z" fill="#A8C8E8" stroke="none"/>
<path d="M 479.04,246.72 L 482.59,243.88 L 482.31,247.97 L 485.23,246.90 L 494.97,259.97 L 492.78,261.29 L 484.48,251.80 L 466.30,240.74 L 479.04,246.72 Z" fill="#A8C8E8" stroke="none"/>
<path d="M 379.64,152.94 L 375.25,151.99 L 384.59,143.85 L 382.48,171.10 L 378.72,165.40 L 379.64,152.94 Z" fill="#A8C8E8" stroke="none"/>
<path d="M 514.72,309.20 L 506.02,310.90 L 496.24,304.56 L 480.58,310.00 L 479.99,313.01 L 484.24,311.62 L 485.14,314.80 L 480.15,314.32 L 470.82,329.17 L 473.33,331.86 L 469.18,333.97 L 470.70,334.86 L 466.40,335.58 L 469.29,328.72 L 467.66,327.46 L 477.99,315.22 L 477.15,303.71 L 485.23,305.21 L 485.71,301.60 L 489.94,304.63 L 495.54,301.51 L 506.50,303.88 L 510.19,298.08 L 510.04,291.16 L 515.83,304.14 L 514.72,309.20 Z" fill="#A8C8E8" stroke="none"/>
<path d="M 456.61,242.06 L 450.93,241.76 L 454.16,237.82 L 445.03,236.99 L 420.51,216.59 L 423.10,214.54 L 443.13,225.61 L 444.46,224.68 L 440.65,220.50 L 443.57,215.94 L 443.12,219.87 L 447.68,221.70 L 456.44,234.87 L 456.61,242.06 Z" fill="#A8C8E8" stroke="none"/>
<path d="M 753.96,242.93 L 746.87,244.45 L 746.01,247.75 L 741.90,252.07 L 744.72,256.47 L 750.67,254.91 L 742.50,261.82 L 745.82,262.18 L 738.82,265.42 L 737.16,269.30 L 738.51,271.99 L 733.21,272.81 L 731.25,280.70 L 735.63,283.65 L 730.12,286.97 L 731.23,297.90 L 728.71,291.16 L 719.93,295.59 L 715.88,301.60 L 712.50,300.47 L 711.72,303.53 L 705.90,304.91 L 704.09,301.93 L 707.56,296.32 L 705.91,293.81 L 709.05,293.22 L 706.78,291.16 L 710.27,291.60 L 711.34,287.55 L 708.94,286.35 L 706.94,283.98 L 710.11,286.60 L 712.31,284.58 L 715.99,292.80 L 723.01,289.84 L 725.01,279.18 L 722.14,277.39 L 729.76,274.83 L 731.48,269.88 L 730.70,264.51 L 726.71,260.64 L 738.30,264.21 L 743.24,256.28 L 741.17,253.42 L 741.37,250.29 L 746.66,243.57 L 753.47,242.06 L 756.22,232.76 L 749.97,233.04 L 748.09,231.64 L 747.63,224.08 L 744.01,218.72 L 748.22,224.23 L 749.63,232.32 L 756.75,232.28 L 753.96,242.93 Z" fill="#A8C8E8" stroke="none"/>
<path d="M 519.52,403.38 L 508.33,399.20 L 507.18,396.80 L 509.55,394.86 L 506.25,386.61 L 499.01,383.94 L 499.96,380.37 L 497.10,381.27 L 499.96,376.16 L 491.96,381.86 L 496.54,374.19 L 494.25,373.18 L 494.94,375.47 L 492.69,377.33 L 491.49,374.85 L 490.57,377.81 L 488.86,370.76 L 482.37,369.28 L 484.73,372.39 L 483.42,374.67 L 480.19,368.09 L 477.48,367.58 L 478.64,371.13 L 475.43,370.21 L 475.05,364.93 L 473.25,366.59 L 469.94,362.12 L 476.21,361.80 L 482.99,366.47 L 481.31,363.58 L 484.76,363.88 L 484.20,359.70 L 487.70,367.46 L 487.79,362.53 L 494.25,363.71 L 494.47,368.18 L 492.54,366.30 L 490.29,371.40 L 492.55,373.34 L 496.61,368.78 L 496.36,364.81 L 499.74,364.81 L 501.01,367.76 L 497.49,368.09 L 501.21,370.62 L 501.66,379.85 L 503.97,378.60 L 519.52,403.38 Z" fill="#A8C8E8" stroke="none"/>
<path d="M 86.40,1.86 L 85.64,0.00 L 89.50,0.00 L 86.40,1.86 Z" fill="#A8C8E8" stroke="none"/>
<path d="M 73.23,12.46 L 73.82,10.34 L 69.46,7.93 L 82.89,0.00 L 85.64,0.00 L 86.40,1.86 L 73.23,12.46 Z" fill="#A8C8E8" stroke="none"/>
</svg>