<svg xmlns="http://www.w3.org/2000/svg" width="800" height="500" viewBox="0 0 800 500">
<rect width="800" height="500" fill="#A8C8E8"/>
<path d="M 744.91,80.65 L 735.66,77.11 L 718.34,58.05 L 723.16,32.54 L 692.45,26.34 L 675.77,29.45 L 673.43,21.87 L 658.45,15.78 L 647.06,2.54 L 645.66,0.00 L 800.00,0.00 L 800.00,83.13 L 744.91,80.65 Z" fill="#E8E0D0" stroke="#B8B0A0" stroke-width="0.5"/>
<path d="M 229.00,470.78 L 238.77,470.99 L 228.98,482.12 L 235.64,487.18 L 266.55,489.11 L 265.83,500.00 L 120.38,500.00 L 120.65,492.85 L 97.93,479.10 L 102.12,469.41 L 126.13,471.08 L 130.28,480.73 L 165.16,479.58 L 181.48,472.19 L 184.58,452.69 L 201.55,459.00 L 225.56,451.93 L 241.71,457.30 L 229.00,470.78 Z" fill="#E8E0D0" stroke="#B8B0A0" stroke-width="0.5"/>
<path d="M 8.70,74.80 L 11.98,82.01 L 42.41,89.92 L 76.70,74.58 L 119.43,86.32 L 141.10,68.23 L 155.86,69.76 L 172.20,74.47 L 171.38,84.77 L 184.46,88.09 L 208.21,107.49 L 239.01,112.36 L 240.65,126.37 L 259.35,122.96 L 267.84,133.13 L 273.05,131.49 L 274.30,138.45 L 259.06,157.05 L 269.11,168.17 L 256.01,190.64 L 270.80,196.86 L 279.62,192.82 L 287.62,199.16 L 298.84,198.46 L 307.45,209.46 L 234.71,257.03 L 212.75,262.68 L 205.04,275.19 L 186.01,279.82 L 185.38,297.77 L 163.61,321.20 L 150.00,376.29 L 152.13,401.60 L 120.53,416.47 L 111.10,426.63 L 111.50,446.14 L 86.87,456.82 L 86.04,463.78 L 89.17,471.17 L 101.75,476.25 L 98.66,480.03 L 120.65,492.85 L 120.38,500.00 L 0.00,500.00 L 0.00,73.81 L 8.70,74.80 Z" fill="#C8D8E8" stroke="#8BAABB" stroke-width="0.8"/>
<path d="M 717.22,67.59 L 733.86,70.99 L 744.91,80.65 L 800.00,83.13 L 800.00,462.67 L 548.91,380.37 L 553.43,333.69 L 547.93,319.15 L 565.51,306.10 L 571.41,291.98 L 593.28,280.30 L 602.36,265.62 L 630.87,257.40 L 629.14,248.78 L 646.90,234.16 L 650.00,219.71 L 637.08,196.01 L 642.40,188.86 L 638.00,182.60 L 597.50,150.08 L 592.66,133.86 L 598.02,123.36 L 571.68,117.42 L 576.49,111.97 L 565.47,111.82 L 555.59,92.98 L 592.65,70.94 L 687.16,48.37 L 685.74,54.09 L 701.76,55.31 L 697.30,62.12 L 705.41,70.95 L 717.22,67.59 Z" fill="#C8D8E8" stroke="#8BAABB" stroke-width="0.8"/>
<path d="M 89.17,471.17 L 86.18,458.27 L 111.50,446.14 L 111.10,426.63 L 130.57,408.65 L 173.98,397.97 L 187.21,405.80 L 204.34,399.21 L 221.79,383.87 L 234.11,383.90 L 241.77,397.75 L 258.48,402.60 L 267.73,414.09 L 263.93,431.37 L 272.27,439.80 L 267.37,454.26 L 238.69,457.23 L 225.56,451.93 L 201.55,459.00 L 184.58,452.69 L 181.48,472.19 L 165.16,479.58 L 130.28,480.73 L 127.25,471.58 L 109.54,467.98 L 100.54,474.92 L 89.17,471.17 Z" fill="#C8D8E8" stroke="#8BAABB" stroke-width="0.8"/>
<path d="M 717.22,67.59 L 713.64,72.65 L 705.41,70.95 L 697.30,62.12 L 701.76,55.31 L 685.74,54.09 L 687.16,48.37 L 671.94,51.05 L 592.65,70.94 L 510.98,118.84 L 481.06,118.11 L 465.73,111.37 L 443.64,117.78 L 408.37,119.87 L 391.49,126.03 L 389.68,131.91 L 367.85,127.17 L 353.90,115.17 L 330.59,124.00 L 295.53,116.90 L 277.46,122.72 L 267.84,133.13 L 259.35,122.96 L 241.60,126.83 L 239.01,112.36 L 208.21,107.49 L 184.46,88.09 L 171.38,84.77 L 172.20,74.47 L 148.20,68.71 L 141.10,68.23 L 119.43,86.32 L 76.70,74.58 L 40.20,89.50 L 11.98,82.01 L 8.70,74.80 L 0.00,73.81 L 0.00,0.00 L 645.66,0.00 L 647.06,2.54 L 658.45,15.78 L 673.43,21.87 L 675.77,29.45 L 692.45,26.34 L 723.16,32.54 L 718.34,58.05 L 733.86,70.99 L 717.22,67.59 Z" fill="#C8D8E8" stroke="#8BAABB" stroke-width="0.8"/>
<path d="M 267.17,499.79 L 266.55,489.11 L 235.64,487.18 L 228.98,482.12 L 238.77,470.99 L 228.64,472.13 L 237.44,460.76 L 267.37,454.26 L 272.27,439.80 L 263.93,431.37 L 267.06,412.92 L 258.48,402.60 L 241.77,397.75 L 234.96,383.48 L 249.41,384.26 L 262.11,379.44 L 557.70,380.37 L 800.00,461.88 L 800.00,500.00 L 267.06,500.00 L 267.17,499.79 Z" fill="#C8D8E8" stroke="#8BAABB" stroke-width="0.8"/>
<path d="M 221.79,383.87 L 204.34,399.21 L 185.20,406.25 L 174.81,398.05 L 152.13,401.60 L 150.00,376.29 L 163.61,321.20 L 185.38,297.77 L 186.01,279.82 L 205.04,275.19 L 212.75,262.68 L 234.71,257.03 L 307.45,209.46 L 298.84,198.46 L 287.62,199.16 L 279.62,192.82 L 270.80,196.86 L 256.01,190.64 L 269.11,168.17 L 259.06,157.05 L 274.30,138.45 L 273.05,131.49 L 267.84,133.13 L 277.46,122.72 L 302.26,116.50 L 330.59,124.00 L 353.90,115.17 L 367.85,127.17 L 389.68,131.91 L 391.49,126.03 L 408.37,119.87 L 443.64,117.78 L 465.73,111.37 L 481.06,118.11 L 510.98,118.84 L 558.25,93.75 L 565.47,111.82 L 576.49,111.97 L 571.68,117.42 L 598.02,123.36 L 592.66,133.86 L 597.50,150.08 L 638.00,182.60 L 642.40,188.86 L 637.08,196.01 L 650.00,219.71 L 646.90,234.16 L 629.14,248.78 L 630.87,257.40 L 602.36,265.62 L 593.28,280.30 L 571.41,291.98 L 565.51,306.10 L 547.93,319.15 L 553.43,333.69 L 548.91,380.37 L 262.11,379.44 L 221.79,383.87 Z" fill="#4A90D9" stroke="#1a5fa8" stroke-width="1.2"/>
<path d="M 319.81,219.83 L 309.68,230.99 L 277.66,241.68 L 246.24,268.43 L 236.49,268.26 L 237.41,258.29 L 226.23,253.09 L 236.57,242.15 L 304.28,208.70 L 326.10,192.66 L 316.13,200.20 L 319.81,219.83 Z" fill="#A8C8E8" stroke="none"/>
<path d="M 525.95,406.12 L 528.46,409.67 L 522.15,411.38 L 530.98,416.55 L 515.80,417.39 L 524.79,422.88 L 499.47,424.49 L 491.94,430.98 L 508.32,428.73 L 516.48,436.85 L 491.80,435.28 L 485.03,441.58 L 521.53,445.32 L 534.70,439.97 L 542.88,447.39 L 503.36,460.97 L 505.19,465.68 L 485.03,463.48 L 473.36,456.66 L 454.49,461.52 L 454.92,474.02 L 468.13,483.82 L 456.73,479.27 L 443.56,490.95 L 447.34,485.33 L 440.35,483.11 L 451.98,480.62 L 454.33,475.37 L 447.34,470.20 L 451.09,463.43 L 436.03,463.77 L 434.76,456.19 L 420.31,465.31 L 424.77,459.23 L 408.33,459.04 L 407.38,453.35 L 394.34,449.06 L 388.89,456.63 L 380.36,456.48 L 388.65,465.57 L 376.98,461.15 L 368.24,467.97 L 375.69,477.09 L 365.05,470.20 L 354.36,480.10 L 353.50,471.25 L 361.27,468.32 L 351.77,469.38 L 348.56,464.92 L 355.60,460.72 L 351.82,453.22 L 340.67,454.86 L 347.40,435.52 L 338.73,435.45 L 362.70,381.58 L 358.14,379.34 L 353.04,382.84 L 353.09,372.73 L 346.67,369.18 L 360.22,351.14 L 377.69,343.12 L 366.91,332.57 L 380.68,330.66 L 375.74,327.65 L 391.54,328.96 L 393.18,327.50 L 392.02,324.44 L 393.34,323.15 L 400.85,326.16 L 397.72,322.37 L 409.03,326.53 L 407.79,320.49 L 415.32,318.64 L 414.40,323.34 L 425.39,322.77 L 433.46,309.18 L 434.92,315.74 L 442.29,315.63 L 435.41,320.15 L 456.17,314.43 L 456.92,320.96 L 464.72,319.63 L 474.42,314.95 L 472.50,310.72 L 477.58,313.25 L 490.72,304.66 L 483.16,301.63 L 499.55,297.84 L 495.12,305.83 L 509.00,305.83 L 511.38,310.32 L 502.68,308.81 L 510.21,314.85 L 517.94,315.08 L 524.87,307.40 L 534.67,307.63 L 530.98,314.09 L 538.43,312.18 L 540.99,316.73 L 556.03,310.58 L 557.32,327.42 L 563.64,331.07 L 570.07,328.77 L 566.31,334.49 L 580.54,339.07 L 584.11,347.01 L 593.18,340.87 L 589.37,335.59 L 625.25,329.92 L 634.54,342.20 L 598.85,344.25 L 604.06,350.94 L 596.58,354.09 L 593.09,349.66 L 575.03,348.43 L 562.97,355.93 L 561.13,365.39 L 574.49,373.14 L 546.07,394.31 L 551.63,395.52 L 556.38,400.58 L 538.67,398.62 L 549.76,409.50 L 525.95,406.12 Z M 568.66,348.74 L 572.47,349.18 L 576.41,347.61 L 578.11,345.01 L 568.66,348.74 Z M 559.27,352.97 L 563.37,351.30 L 560.48,348.98 L 552.79,350.73 L 559.27,352.97 Z M 356.90,425.31 L 360.44,423.14 L 360.08,421.67 L 356.90,425.31 Z M 358.19,442.44 L 353.71,439.65 L 352.63,441.92 L 358.19,442.44 Z M 365.81,452.97 L 356.90,445.32 L 354.33,452.92 L 360.35,460.27 L 365.81,452.97 Z M 368.78,416.66 L 364.40,413.84 L 361.27,414.41 L 361.27,421.22 L 368.78,416.66 Z M 376.63,448.11 L 370.10,454.37 L 377.71,454.57 L 376.63,448.11 Z M 400.85,341.63 L 389.51,343.12 L 390.08,338.39 L 378.87,339.36 L 397.02,347.02 L 389.92,349.16 L 386.95,354.82 L 400.23,351.06 L 400.85,341.63 Z M 408.19,340.04 L 404.36,336.43 L 401.47,336.36 L 408.19,340.04 Z M 412.19,345.01 L 408.14,343.59 L 406.98,345.82 L 412.19,345.01 Z M 414.05,449.87 L 414.73,458.17 L 420.75,457.08 L 422.99,453.22 L 414.05,449.87 Z M 420.50,346.33 L 415.91,348.77 L 415.40,352.82 L 420.50,346.33 Z M 444.23,328.07 L 448.63,324.13 L 446.66,323.15 L 444.23,328.07 Z M 441.64,327.28 L 443.56,329.92 L 434.76,330.66 L 447.99,331.05 L 441.64,327.28 Z M 468.13,429.10 L 474.31,426.95 L 474.39,424.23 L 466.51,424.54 L 468.13,429.10 Z M 475.63,433.43 L 449.93,431.36 L 456.73,434.01 L 452.52,439.21 L 483.11,442.52 L 475.63,433.43 Z M 481.19,317.10 L 481.89,319.36 L 482.57,318.74 L 481.19,317.10 Z M 492.61,321.69 L 488.94,322.47 L 489.48,324.62 L 492.61,321.69 Z M 487.86,308.81 L 490.02,314.66 L 485.03,314.85 L 497.09,320.80 L 495.18,313.59 L 501.47,311.37 L 487.86,308.81 Z M 531.92,330.66 L 525.95,332.91 L 531.60,334.45 L 531.92,330.66 Z M 546.63,321.69 L 546.93,320.86 L 538.08,318.82 L 546.63,321.69 Z" fill="#A8C8E8" stroke="none"/>
<path d="M 104.42,456.45 L 101.70,450.99 L 84.69,461.15 L 84.61,455.80 L 96.59,449.79 L 88.50,453.22 L 92.33,449.16 L 86.61,449.50 L 85.99,443.07 L 96.11,438.19 L 93.84,434.37 L 88.50,435.89 L 107.64,417.15 L 106.72,414.04 L 100.46,418.20 L 104.56,412.50 L 122.48,418.56 L 129.69,438.08 L 104.42,456.45 Z M 103.18,433.69 L 100.46,449.50 L 107.74,447.38 L 108.26,432.81 L 103.18,433.69 Z" fill="#A8C8E8" stroke="none"/>
<path d="M 133.07,363.14 L 127.48,352.56 L 144.38,335.17 L 166.30,329.01 L 174.62,334.11 L 181.82,332.91 L 175.26,345.01 L 133.07,363.14 Z" fill="#A8C8E8" stroke="none"/>
<path d="M 480.71,235.30 L 480.27,235.48 L 480.17,235.41 L 480.71,235.30 Z" fill="#A8C8E8" stroke="none"/>
<path d="M 474.71,242.26 L 491.32,243.43 L 480.03,247.40 L 484.59,249.18 L 496.47,246.85 L 490.72,258.29 L 456.76,245.88 L 451.09,247.40 L 454.92,253.78 L 450.50,248.08 L 440.70,248.19 L 445.48,253.36 L 423.55,245.36 L 424.12,241.34 L 436.70,243.19 L 448.61,237.15 L 448.61,240.56 L 464.37,240.56 L 475.85,234.41 L 489.05,232.07 L 491.07,235.30 L 506.14,227.57 L 510.73,233.91 L 474.71,242.26 Z M 443.18,245.57 L 439.83,244.73 L 443.15,246.43 L 453.63,245.84 L 443.18,245.57 Z" fill="#A8C8E8" stroke="none"/>
<path d="M 403.98,234.89 L 417.86,239.80 L 395.83,233.39 L 426.63,232.95 L 444.96,222.83 L 457.44,224.74 L 468.10,219.16 L 461.81,223.54 L 467.24,224.83 L 464.99,230.78 L 449.23,224.33 L 447.31,229.89 L 423.82,235.75 L 403.98,234.89 Z" fill="#A8C8E8" stroke="none"/>
<path d="M 182.12,399.69 L 175.99,391.25 L 184.63,394.41 L 187.79,398.94 L 182.12,399.69 Z" fill="#A8C8E8" stroke="none"/>
<path d="M 792.31,193.42 L 776.03,168.56 L 763.80,161.17 L 752.73,160.78 L 754.70,148.37 L 736.34,141.42 L 735.61,130.34 L 733.61,133.62 L 725.84,120.50 L 740.04,70.12 L 744.06,76.16 L 745.09,70.04 L 758.24,70.70 L 763.55,97.09 L 757.78,107.16 L 765.50,118.63 L 761.53,142.38 L 777.86,159.52 L 800.00,165.48 L 800.00,190.48 L 792.31,193.42 Z" fill="#A8C8E8" stroke="none"/>
<path d="M 737.88,446.13 L 743.17,441.22 L 751.94,449.95 L 744.57,464.87 L 736.04,467.35 L 741.12,462.46 L 737.88,446.13 Z" fill="#A8C8E8" stroke="none"/>
</svg>