<svg xmlns="http://www.w3.org/2000/svg" width="800" height="500" viewBox="0 0 800 500">
<rect width="800" height="500" fill="#A8C8E8"/>
<path d="M 606.90,80.65 L 601.35,77.11 L 590.96,58.05 L 593.85,32.54 L 575.43,26.34 L 565.43,29.45 L 564.02,21.87 L 555.04,15.78 L 548.20,2.54 L 547.37,0.00 L 639.95,0.00 L 639.95,83.13 L 606.90,80.65 Z" fill="#E8E0D0" stroke="#B8B0A0" stroke-width="0.5"/>
<path d="M 297.42,470.78 L 303.28,470.99 L 297.41,482.12 L 301.41,487.18 L 319.95,489.11 L 319.52,500.00 L 232.26,500.00 L 232.43,492.85 L 218.80,479.10 L 221.31,469.41 L 235.72,471.08 L 238.21,480.73 L 259.13,479.58 L 268.92,472.19 L 270.78,452.69 L 280.96,459.00 L 295.36,451.93 L 305.05,457.30 L 297.42,470.78 Z" fill="#E8E0D0" stroke="#B8B0A0" stroke-width="0.5"/>
<path d="M 165.28,74.80 L 167.24,82.01 L 185.49,89.92 L 206.06,74.58 L 231.69,86.32 L 244.69,68.23 L 253.55,69.76 L 263.35,74.47 L 262.86,84.77 L 270.70,88.09 L 284.95,107.49 L 303.43,112.36 L 304.41,126.37 L 315.63,122.96 L 320.72,133.13 L 323.85,131.49 L 324.60,138.45 L 315.46,157.05 L 321.48,168.17 L 313.63,190.64 L 322.50,196.86 L 327.79,192.82 L 332.59,199.16 L 339.32,198.46 L 344.48,209.46 L 300.85,257.03 L 287.68,262.68 L 283.05,275.19 L 271.64,279.82 L 271.26,297.77 L 258.20,321.20 L 250.03,376.29 L 251.31,401.60 L 232.36,416.47 L 226.70,426.63 L 226.94,446.14 L 212.17,456.82 L 211.67,463.78 L 213.54,471.17 L 221.09,476.25 L 219.24,480.03 L 232.43,492.85 L 232.26,500.00 L 160.05,500.00 L 160.05,73.81 L 165.28,74.80 Z" fill="#C8D8E8" stroke="#8BAABB" stroke-width="0.8"/>
<path d="M 590.29,67.59 L 600.27,70.99 L 606.90,80.65 L 639.95,83.13 L 639.95,462.67 L 489.33,380.37 L 492.04,333.69 L 488.74,319.15 L 499.28,306.10 L 502.82,291.98 L 515.94,280.30 L 521.39,265.62 L 538.49,257.40 L 537.45,248.78 L 548.11,234.16 L 549.97,219.71 L 542.22,196.01 L 545.41,188.86 L 542.77,182.60 L 518.47,150.08 L 515.57,133.86 L 518.78,123.36 L 502.98,117.42 L 505.87,111.97 L 499.26,111.82 L 493.33,92.98 L 515.57,70.94 L 572.25,48.37 L 571.40,54.09 L 581.01,55.31 L 578.34,62.12 L 583.20,70.95 L 590.29,67.59 Z" fill="#C8D8E8" stroke="#8BAABB" stroke-width="0.8"/>
<path d="M 213.54,471.17 L 211.75,458.27 L 226.94,446.14 L 226.70,426.63 L 238.38,408.65 L 264.42,397.97 L 272.36,405.80 L 282.63,399.21 L 293.10,383.87 L 300.49,383.90 L 305.09,397.75 L 315.11,402.60 L 320.65,414.09 L 318.38,431.37 L 323.38,439.80 L 320.44,454.26 L 303.24,457.23 L 295.36,451.93 L 280.96,459.00 L 270.78,452.69 L 268.92,472.19 L 259.13,479.58 L 238.21,480.73 L 236.39,471.58 L 225.76,467.98 L 220.36,474.92 L 213.54,471.17 Z" fill="#C8D8E8" stroke="#8BAABB" stroke-width="0.8"/>
<path d="M 590.29,67.59 L 588.14,72.65 L 583.20,70.95 L 578.34,62.12 L 581.01,55.31 L 571.40,54.09 L 572.25,48.37 L 563.13,51.05 L 515.57,70.94 L 466.57,118.84 L 448.63,118.11 L 439.43,111.37 L 426.18,117.78 L 405.02,119.87 L 394.90,126.03 L 393.81,131.91 L 380.71,127.17 L 372.34,115.17 L 358.36,124.00 L 337.33,116.90 L 326.49,122.72 L 320.72,133.13 L 315.63,122.96 L 304.98,126.83 L 303.43,112.36 L 284.95,107.49 L 270.70,88.09 L 262.86,84.77 L 263.35,74.47 L 248.95,68.71 L 244.69,68.23 L 231.69,86.32 L 206.06,74.58 L 184.17,89.50 L 167.24,82.01 L 165.28,74.80 L 160.05,73.81 L 160.05,0.00 L 547.37,0.00 L 548.20,2.54 L 555.04,15.78 L 564.02,21.87 L 565.43,29.45 L 575.43,26.34 L 593.85,32.54 L 590.96,58.05 L 600.27,70.99 L 590.29,67.59 Z" fill="#C8D8E8" stroke="#8BAABB" stroke-width="0.8"/>
<path d="M 320.32,499.79 L 319.95,489.11 L 301.41,487.18 L 297.41,482.12 L 303.28,470.99 L 297.21,472.13 L 302.49,460.76 L 320.44,454.26 L 323.38,439.80 L 318.38,431.37 L 320.25,412.92 L 315.11,402.60 L 305.09,397.75 L 301.00,383.48 L 309.67,384.26 L 317.29,379.44 L 494.60,380.37 L 639.95,461.88 L 639.95,500.00 L 320.25,500.00 L 320.32,499.79 Z" fill="#C8D8E8" stroke="#8BAABB" stroke-width="0.8"/>
<path d="M 293.10,383.87 L 282.63,399.21 L 271.15,406.25 L 264.91,398.05 L 251.31,401.60 L 250.03,376.29 L 258.20,321.20 L 271.26,297.77 L 271.64,279.82 L 283.05,275.19 L 287.68,262.68 L 300.85,257.03 L 344.48,209.46 L 339.32,198.46 L 332.59,199.16 L 327.79,192.82 L 322.50,196.86 L 313.63,190.64 L 321.48,168.17 L 315.46,157.05 L 324.60,138.45 L 323.85,131.49 L 320.72,133.13 L 326.49,122.72 L 341.37,116.50 L 358.36,124.00 L 372.34,115.17 L 380.71,127.17 L 393.81,131.91 L 394.90,126.03 L 405.02,119.87 L 426.18,117.78 L 439.43,111.37 L 448.63,118.11 L 466.57,118.84 L 494.93,93.75 L 499.26,111.82 L 505.87,111.97 L 502.98,117.42 L 518.78,123.36 L 515.57,133.86 L 518.47,150.08 L 542.77,182.60 L 545.41,188.86 L 542.22,196.01 L 549.97,219.71 L 548.11,234.16 L 537.45,248.78 L 538.49,257.40 L 521.39,265.62 L 515.94,280.30 L 502.82,291.98 L 499.28,306.10 L 488.74,319.15 L 492.04,333.69 L 489.33,380.37 L 317.29,379.44 L 293.10,383.87 Z" fill="#4A90D9" stroke="#1a5fa8" stroke-width="1.2"/>
<path d="M 351.89,219.83 L 345.82,230.99 L 326.61,241.68 L 307.76,268.43 L 301.92,268.26 L 302.47,258.29 L 295.76,253.09 L 301.97,242.15 L 342.58,208.70 L 355.67,192.66 L 349.69,200.20 L 351.89,219.83 Z" fill="#A8C8E8" stroke="none"/>
<path d="M 475.56,406.12 L 477.06,409.67 L 473.27,411.38 L 478.57,416.55 L 469.47,417.39 L 474.86,422.88 L 459.67,424.49 L 455.15,430.98 L 464.98,428.73 L 469.87,436.85 L 455.07,435.28 L 451.00,441.58 L 472.90,445.32 L 480.80,439.97 L 485.71,447.39 L 462.00,460.97 L 463.10,465.68 L 451.00,463.48 L 444.01,456.66 L 432.69,461.52 L 432.95,474.02 L 440.87,483.82 L 434.03,479.27 L 426.13,490.95 L 428.40,485.33 L 424.20,483.11 L 431.18,480.62 L 432.59,475.37 L 428.40,470.20 L 430.65,463.43 L 421.61,463.77 L 420.85,456.19 L 412.19,465.31 L 414.86,459.23 L 405.00,459.04 L 404.43,453.35 L 396.61,449.06 L 393.34,456.63 L 388.22,456.48 L 393.19,465.57 L 386.19,461.15 L 380.95,467.97 L 385.42,477.09 L 379.04,470.20 L 372.62,480.10 L 372.10,471.25 L 376.77,468.32 L 371.07,469.38 L 369.14,464.92 L 373.37,460.72 L 371.10,453.22 L 364.41,454.86 L 368.44,435.52 L 363.25,435.45 L 377.63,381.58 L 374.89,379.34 L 371.83,382.84 L 371.86,372.73 L 368.01,369.18 L 376.14,351.14 L 386.62,343.12 L 380.15,332.57 L 388.41,330.66 L 385.45,327.65 L 394.92,328.96 L 395.91,327.50 L 395.21,324.44 L 396.01,323.15 L 400.51,326.16 L 398.63,322.37 L 405.42,326.53 L 404.67,320.49 L 409.19,318.64 L 408.64,323.34 L 415.23,322.77 L 420.07,309.18 L 420.95,315.74 L 425.37,315.63 L 421.24,320.15 L 433.69,314.43 L 434.15,320.96 L 438.83,319.63 L 444.64,314.95 L 443.49,310.72 L 446.53,313.25 L 454.42,304.66 L 449.89,301.63 L 459.72,297.84 L 457.06,305.83 L 465.38,305.83 L 466.81,310.32 L 461.60,308.81 L 466.11,314.85 L 470.75,315.08 L 474.91,307.40 L 480.79,307.63 L 478.57,314.09 L 483.04,312.18 L 484.58,316.73 L 493.60,310.58 L 494.37,327.42 L 498.16,331.07 L 502.02,328.77 L 499.77,334.49 L 508.30,339.07 L 510.44,347.01 L 515.88,340.87 L 513.60,335.59 L 535.12,329.92 L 540.69,342.20 L 519.28,344.25 L 522.41,350.94 L 517.92,354.09 L 515.83,349.66 L 505.00,348.43 L 497.76,355.93 L 496.66,365.39 L 504.67,373.14 L 487.62,394.31 L 490.96,395.52 L 493.81,400.58 L 483.18,398.62 L 489.84,409.50 L 475.56,406.12 Z M 501.17,348.74 L 503.46,349.18 L 505.82,347.61 L 506.84,345.01 L 501.17,348.74 Z M 495.54,352.97 L 498.00,351.30 L 496.27,348.98 L 491.65,350.73 L 495.54,352.97 Z M 374.15,425.31 L 376.27,423.14 L 376.06,421.67 L 374.15,425.31 Z M 374.92,442.44 L 372.23,439.65 L 371.59,441.92 L 374.92,442.44 Z M 379.49,452.97 L 374.15,445.32 L 372.61,452.92 L 376.22,460.27 L 379.49,452.97 Z M 381.27,416.66 L 378.65,413.84 L 376.77,414.41 L 376.77,421.22 L 381.27,416.66 Z M 385.98,448.11 L 382.06,454.37 L 386.63,454.57 L 385.98,448.11 Z M 400.51,341.63 L 393.71,343.12 L 394.05,338.39 L 387.33,339.36 L 398.21,347.02 L 393.95,349.16 L 392.17,354.82 L 400.14,351.06 L 400.51,341.63 Z M 404.91,340.04 L 402.62,336.43 L 400.88,336.36 L 404.91,340.04 Z M 407.31,345.01 L 404.88,343.59 L 404.19,345.82 L 407.31,345.01 Z M 408.43,449.87 L 408.83,458.17 L 412.45,457.08 L 413.79,453.22 L 408.43,449.87 Z M 412.30,346.33 L 409.55,348.77 L 409.24,352.82 L 412.30,346.33 Z M 426.53,328.07 L 429.17,324.13 L 427.99,323.15 L 426.53,328.07 Z M 424.98,327.28 L 426.13,329.92 L 420.85,330.66 L 428.79,331.05 L 424.98,327.28 Z M 440.87,429.10 L 444.58,426.95 L 444.62,424.23 L 439.89,424.54 L 440.87,429.10 Z M 445.37,433.43 L 429.95,431.36 L 434.03,434.01 L 431.51,439.21 L 449.85,442.52 L 445.37,433.43 Z M 448.70,317.10 L 449.13,319.36 L 449.53,318.74 L 448.70,317.10 Z M 455.55,321.69 L 453.35,322.47 L 453.68,324.62 L 455.55,321.69 Z M 452.70,308.81 L 454.00,314.66 L 451.00,314.85 L 458.24,320.80 L 457.09,313.59 L 460.87,311.37 L 452.70,308.81 Z M 479.13,330.66 L 475.56,332.91 L 478.94,334.45 L 479.13,330.66 Z M 487.96,321.69 L 488.14,320.86 L 482.83,318.82 L 487.96,321.69 Z" fill="#A8C8E8" stroke="none"/>
<path d="M 222.69,456.45 L 221.06,450.99 L 210.86,461.15 L 210.81,455.80 L 218.00,449.79 L 213.14,453.22 L 215.44,449.16 L 212.01,449.50 L 211.63,443.07 L 217.71,438.19 L 216.35,434.37 L 213.14,435.89 L 224.62,417.15 L 224.07,414.04 L 220.31,418.20 L 222.78,412.50 L 233.53,418.56 L 237.85,438.08 L 222.69,456.45 Z M 221.95,433.69 L 220.31,449.50 L 224.69,447.38 L 224.99,432.81 L 221.95,433.69 Z" fill="#A8C8E8" stroke="none"/>
<path d="M 239.88,363.14 L 236.52,352.56 L 246.66,335.17 L 259.81,329.01 L 264.80,334.11 L 269.12,332.91 L 265.19,345.01 L 239.88,363.14 Z" fill="#A8C8E8" stroke="none"/>
<path d="M 448.41,235.30 L 448.15,235.48 L 448.09,235.41 L 448.41,235.30 Z" fill="#A8C8E8" stroke="none"/>
<path d="M 444.82,242.26 L 454.78,243.43 L 448.01,247.40 L 450.75,249.18 L 457.87,246.85 L 454.42,258.29 L 434.05,245.88 L 430.65,247.40 L 432.95,253.78 L 430.29,248.08 L 424.41,248.19 L 427.28,253.36 L 414.13,245.36 L 414.47,241.34 L 422.02,243.19 L 429.16,237.15 L 429.16,240.56 L 438.62,240.56 L 445.50,234.41 L 453.42,232.07 L 454.63,235.30 L 463.67,227.57 L 466.42,233.91 L 444.82,242.26 Z M 425.90,245.57 L 423.89,244.73 L 425.89,246.43 L 432.17,245.84 L 425.90,245.57 Z" fill="#A8C8E8" stroke="none"/>
<path d="M 402.39,234.89 L 410.71,239.80 L 397.50,233.39 L 415.98,232.95 L 426.97,222.83 L 434.45,224.74 L 440.85,219.16 L 437.08,223.54 L 440.33,224.83 L 438.99,230.78 L 429.53,224.33 L 428.38,229.89 L 414.29,235.75 L 402.39,234.89 Z" fill="#A8C8E8" stroke="none"/>
<path d="M 269.30,399.69 L 265.63,391.25 L 270.81,394.41 L 272.70,398.94 L 269.30,399.69 Z" fill="#A8C8E8" stroke="none"/>
<path d="M 635.33,193.42 L 625.56,168.56 L 618.23,161.17 L 611.59,160.78 L 612.77,148.37 L 601.76,141.42 L 601.32,130.34 L 600.12,133.62 L 595.46,120.50 L 603.98,70.12 L 606.39,76.16 L 607.01,70.04 L 614.89,70.70 L 618.08,97.09 L 614.62,107.16 L 619.25,118.63 L 616.87,142.38 L 626.67,159.52 L 639.95,165.48 L 639.95,190.48 L 635.33,193.42 Z" fill="#A8C8E8" stroke="none"/>
<path d="M 602.68,446.13 L 605.86,441.22 L 611.12,449.95 L 606.70,464.87 L 601.58,467.35 L 604.62,462.46 L 602.68,446.13 Z" fill="#A8C8E8" stroke="none"/>
</svg>