<svg xmlns="http://www.w3.org/2000/svg" width="800" height="500" viewBox="0 0 800 500">
<rect width="800" height="500" fill="#A8C8E8"/>
<path d="M 225.70,98.98 L 228.63,99.43 L 224.90,99.60 L 225.70,98.98 Z" fill="#E8E0D0" stroke="#B8B0A0" stroke-width="0.5"/>
<path d="M 352.39,8.89 L 339.06,27.49 L 321.26,33.33 L 314.55,44.16 L 276.44,71.28 L 257.89,75.33 L 254.73,85.98 L 225.70,98.98 L 223.94,108.33 L 201.66,122.56 L 210.46,142.95 L 200.32,146.88 L 200.21,166.87 L 184.22,181.90 L 193.22,189.84 L 186.70,202.57 L 172.25,208.73 L 173.76,225.41 L 182.22,233.63 L 170.61,247.02 L 177.50,283.00 L 150.86,286.38 L 152.54,298.94 L 142.26,308.63 L 139.67,325.07 L 155.71,356.07 L 137.68,362.49 L 148.57,367.49 L 146.73,377.47 L 161.69,386.18 L 236.22,409.03 L 261.91,424.15 L 273.24,436.51 L 252.14,454.89 L 250.85,471.60 L 261.98,483.31 L 291.00,497.09 L 309.67,492.70 L 312.24,500.00 L 0.00,500.00 L 0.00,0.00 L 368.26,0.00 L 352.39,8.89 Z" fill="#C8D8E8" stroke="#8BAABB" stroke-width="0.8"/>
<path d="M 254.73,85.98 L 257.89,75.33 L 274.68,72.18 L 302.30,53.50 L 321.26,33.33 L 339.06,27.49 L 352.39,8.89 L 368.26,0.00 L 800.00,0.00 L 800.00,158.16 L 790.63,160.09 L 789.32,167.86 L 758.68,172.73 L 754.51,192.88 L 747.42,187.26 L 749.30,194.12 L 734.70,198.94 L 731.90,206.73 L 742.67,211.15 L 730.94,219.04 L 747.60,217.65 L 739.37,222.06 L 747.05,219.91 L 746.68,226.26 L 731.43,233.73 L 694.64,288.58 L 625.63,327.34 L 610.54,321.47 L 610.80,290.76 L 650.84,261.97 L 608.50,244.45 L 590.08,219.13 L 541.49,204.25 L 510.44,180.91 L 450.31,167.10 L 417.64,141.66 L 392.95,156.18 L 378.21,156.67 L 378.21,138.44 L 301.15,93.75 L 278.04,94.01 L 262.26,106.03 L 234.91,104.82 L 228.63,99.43 L 254.73,85.98 Z M 768.08,211.21 L 747.98,226.33 L 754.10,212.42 L 747.05,204.54 L 770.63,206.28 L 800.00,189.64 L 800.00,197.42 L 768.08,211.21 Z" fill="#C8D8E8" stroke="#8BAABB" stroke-width="0.8"/>
<path d="M 234.91,104.82 L 262.26,106.03 L 278.04,94.01 L 301.15,93.75 L 378.21,138.44 L 378.21,156.67 L 392.95,156.18 L 417.64,141.66 L 450.31,167.10 L 510.44,180.91 L 541.49,204.25 L 590.08,219.13 L 608.50,244.45 L 650.00,261.01 L 613.17,286.17 L 610.54,321.47 L 625.63,327.34 L 610.55,347.99 L 590.20,361.17 L 589.37,369.05 L 553.55,386.84 L 542.86,388.02 L 544.84,381.85 L 536.38,380.05 L 538.46,389.42 L 478.98,406.25 L 408.09,393.08 L 364.61,404.41 L 341.41,398.86 L 343.93,394.23 L 297.14,387.01 L 271.01,372.93 L 204.89,374.22 L 184.06,356.31 L 171.68,353.46 L 153.45,339.03 L 150.00,324.63 L 158.27,287.60 L 178.35,285.90 L 186.74,274.12 L 172.74,245.75 L 182.22,233.63 L 173.76,225.41 L 172.25,208.73 L 186.70,202.57 L 193.22,189.84 L 184.22,181.90 L 200.21,166.87 L 200.32,146.88 L 210.46,142.95 L 202.85,120.25 L 223.94,108.33 L 228.63,99.43 L 234.91,104.82 Z" fill="#4A90D9" stroke="#1a5fa8" stroke-width="1.2"/>
<path d="M 429.18,248.75 L 414.66,248.60 L 415.32,252.08 L 406.54,251.70 L 402.32,249.43 L 406.29,260.39 L 396.59,256.86 L 401.74,264.81 L 389.52,256.50 L 390.18,265.70 L 364.08,264.38 L 363.11,270.56 L 380.56,276.27 L 361.24,273.15 L 360.61,278.93 L 350.59,269.65 L 341.05,272.00 L 334.50,269.20 L 302.60,274.51 L 302.21,264.85 L 309.67,270.09 L 311.34,264.27 L 313.61,268.80 L 323.56,257.33 L 318.61,269.54 L 326.77,267.46 L 339.94,270.41 L 348.64,253.78 L 344.31,263.68 L 351.85,267.01 L 366.47,254.99 L 372.16,258.43 L 377.76,252.27 L 380.21,256.01 L 383.77,249.81 L 395.95,255.14 L 395.37,246.30 L 406.29,250.28 L 405.96,243.29 L 420.00,247.69 L 429.27,243.84 L 429.18,248.75 Z" fill="#A8C8E8" stroke="none"/>
<path d="M 698.74,255.14 L 681.85,273.64 L 671.13,274.21 L 661.62,264.10 L 649.57,266.89 L 640.81,283.71 L 621.43,289.89 L 619.48,313.25 L 611.11,317.61 L 602.98,282.82 L 630.73,276.47 L 634.33,268.56 L 628.12,263.89 L 658.48,254.46 L 664.93,245.71 L 682.34,240.27 L 677.46,236.11 L 692.11,226.85 L 688.42,236.70 L 698.74,245.07 L 698.74,255.14 Z" fill="#A8C8E8" stroke="none"/>
</svg>