<svg xmlns="http://www.w3.org/2000/svg" width="800" height="500" viewBox="0 0 800 500">
<rect width="800" height="500" fill="#A8C8E8"/>
<path d="M 299.64,98.98 L 301.33,99.43 L 299.18,99.60 L 299.64,98.98 Z" fill="#E8E0D0" stroke="#B8B0A0" stroke-width="0.5"/>
<path d="M 372.58,8.89 L 364.91,27.49 L 354.66,33.33 L 350.80,44.16 L 328.85,71.28 L 318.17,75.33 L 316.35,85.98 L 299.64,98.98 L 298.62,108.33 L 285.79,122.56 L 290.86,142.95 L 285.02,146.88 L 284.96,166.87 L 275.76,181.90 L 280.93,189.84 L 277.18,202.57 L 268.86,208.73 L 269.73,225.41 L 274.60,233.63 L 267.92,247.02 L 271.88,283.00 L 256.55,286.38 L 257.51,298.94 L 251.59,308.63 L 250.10,325.07 L 259.34,356.07 L 248.96,362.49 L 255.22,367.49 L 254.16,377.47 L 262.78,386.18 L 305.70,409.03 L 320.49,424.15 L 327.01,436.51 L 314.86,454.89 L 314.12,471.60 L 320.52,483.31 L 337.24,497.09 L 347.99,492.70 L 349.47,500.00 L 169.68,500.00 L 169.68,0.00 L 381.72,0.00 L 372.58,8.89 Z" fill="#C8D8E8" stroke="#8BAABB" stroke-width="0.8"/>
<path d="M 316.35,85.98 L 318.17,75.33 L 327.84,72.18 L 343.74,53.50 L 354.66,33.33 L 364.91,27.49 L 372.58,8.89 L 381.72,0.00 L 630.32,0.00 L 630.32,158.16 L 624.93,160.09 L 624.17,167.86 L 606.53,172.73 L 604.13,192.88 L 600.04,187.26 L 601.13,194.12 L 592.72,198.94 L 591.11,206.73 L 597.31,211.15 L 590.56,219.04 L 600.15,217.65 L 595.41,222.06 L 599.83,219.91 L 599.62,226.26 L 590.84,233.73 L 569.65,288.58 L 529.92,327.34 L 521.23,321.47 L 521.38,290.76 L 544.43,261.97 L 520.06,244.45 L 509.45,219.13 L 481.47,204.25 L 463.59,180.91 L 428.97,167.10 L 410.16,141.66 L 395.94,156.18 L 387.46,156.67 L 387.46,138.44 L 343.08,93.75 L 329.78,94.01 L 320.69,106.03 L 304.94,104.82 L 301.33,99.43 L 316.35,85.98 Z M 611.94,211.21 L 600.37,226.33 L 603.89,212.42 L 599.83,204.54 L 613.41,206.28 L 630.32,189.64 L 630.32,197.42 L 611.94,211.21 Z" fill="#C8D8E8" stroke="#8BAABB" stroke-width="0.8"/>
<path d="M 304.94,104.82 L 320.69,106.03 L 329.78,94.01 L 343.08,93.75 L 387.46,138.44 L 387.46,156.67 L 395.94,156.18 L 410.16,141.66 L 428.97,167.10 L 463.59,180.91 L 481.47,204.25 L 509.45,219.13 L 520.06,244.45 L 543.95,261.01 L 522.74,286.17 L 521.23,321.47 L 529.92,327.34 L 521.24,347.99 L 509.52,361.17 L 509.04,369.05 L 488.42,386.84 L 482.26,388.02 L 483.40,381.85 L 478.53,380.05 L 479.73,389.42 L 445.48,406.25 L 404.66,393.08 L 379.62,404.41 L 366.26,398.86 L 367.71,394.23 L 340.77,387.01 L 325.72,372.93 L 287.66,374.22 L 275.66,356.31 L 268.53,353.46 L 258.03,339.03 L 256.05,324.63 L 260.81,287.60 L 272.37,285.90 L 277.20,274.12 L 269.14,245.75 L 274.60,233.63 L 269.73,225.41 L 268.86,208.73 L 277.18,202.57 L 280.93,189.84 L 275.76,181.90 L 284.96,166.87 L 285.02,146.88 L 290.86,142.95 L 286.48,120.25 L 298.62,108.33 L 301.33,99.43 L 304.94,104.82 Z" fill="#4A90D9" stroke="#1a5fa8" stroke-width="1.2"/>
<path d="M 416.80,248.75 L 408.44,248.60 L 408.82,252.08 L 403.76,251.70 L 401.33,249.43 L 403.62,260.39 L 398.04,256.86 L 401.00,264.81 L 393.97,256.50 L 394.35,265.70 L 379.32,264.38 L 378.76,270.56 L 388.80,276.27 L 377.68,273.15 L 377.32,278.93 L 371.55,269.65 L 366.05,272.00 L 362.29,269.20 L 343.92,274.51 L 343.69,264.85 L 347.99,270.09 L 348.95,264.27 L 350.26,268.80 L 355.99,257.33 L 353.13,269.54 L 357.83,267.46 L 365.42,270.41 L 370.43,253.78 L 367.93,263.68 L 372.28,267.01 L 380.70,254.99 L 383.97,258.43 L 387.20,252.27 L 388.61,256.01 L 390.65,249.81 L 397.67,255.14 L 397.34,246.30 L 403.62,250.28 L 403.43,243.29 L 411.51,247.69 L 416.85,243.84 L 416.80,248.75 Z" fill="#A8C8E8" stroke="none"/>
<path d="M 572.01,255.14 L 562.29,273.64 L 556.11,274.21 L 550.64,264.10 L 543.70,266.89 L 538.66,283.71 L 527.50,289.89 L 526.38,313.25 L 521.56,317.61 L 516.88,282.82 L 532.86,276.47 L 534.93,268.56 L 531.35,263.89 L 548.83,254.46 L 552.55,245.71 L 562.58,240.27 L 559.76,236.11 L 568.20,226.85 L 566.07,236.70 L 572.01,245.07 L 572.01,255.14 Z" fill="#A8C8E8" stroke="none"/>
</svg>