<svg xmlns="http://www.w3.org/2000/svg" width="800" height="500" viewBox="0 0 800 500">
<rect width="800" height="500" fill="#A8C8E8"/>
<path d="M 788.04,471.72 L 792.74,469.46 L 791.48,477.78 L 799.42,500.00 L 733.74,500.00 L 733.88,499.86 L 752.21,497.26 L 755.26,490.98 L 762.71,488.32 L 763.56,483.82 L 785.63,469.32 L 788.04,471.72 Z M 685.11,496.27 L 700.97,500.00 L 675.56,500.00 L 685.11,496.27 Z" fill="#E8E0D0" stroke="#B8B0A0" stroke-width="0.5"/>
<path d="M 791.48,477.78 L 792.74,469.46 L 788.04,471.72 L 785.63,469.32 L 773.50,470.20 L 759.85,466.05 L 749.82,459.77 L 748.84,454.13 L 738.03,457.72 L 735.82,451.30 L 730.29,448.12 L 733.62,441.89 L 732.52,433.22 L 728.82,426.42 L 723.00,422.34 L 716.65,423.50 L 713.20,415.82 L 706.99,413.38 L 700.36,416.63 L 698.03,412.60 L 690.75,412.35 L 686.09,408.44 L 695.96,402.05 L 698.07,405.18 L 700.94,404.53 L 708.85,398.21 L 700.93,390.79 L 703.06,384.51 L 697.98,372.79 L 699.29,358.84 L 684.68,350.94 L 678.54,350.84 L 675.79,356.15 L 669.60,353.94 L 665.65,343.25 L 669.88,339.37 L 663.53,330.77 L 664.25,321.77 L 670.24,320.75 L 672.67,316.78 L 669.67,309.17 L 674.27,299.55 L 684.67,297.68 L 695.50,288.81 L 700.06,289.01 L 697.88,285.48 L 699.28,282.08 L 709.72,284.71 L 720.38,277.56 L 723.93,290.29 L 740.31,284.71 L 742.33,288.37 L 750.95,278.89 L 752.07,272.63 L 758.27,263.36 L 793.63,262.38 L 800.00,255.51 L 800.00,500.00 L 799.42,500.00 L 791.48,477.78 Z" fill="#E8E0D0" stroke="#B8B0A0" stroke-width="0.5"/>
<path d="M 5.22,421.83 L 31.56,428.74 L 92.64,414.93 L 81.07,417.76 L 92.87,419.84 L 93.04,412.13 L 89.94,400.37 L 98.47,401.04 L 111.50,396.78 L 115.41,393.58 L 116.53,385.72 L 125.37,377.61 L 142.22,371.41 L 159.43,372.84 L 159.54,369.14 L 163.42,366.31 L 180.95,368.84 L 184.92,365.47 L 190.09,377.05 L 213.52,383.74 L 214.98,387.83 L 219.37,389.52 L 232.28,387.23 L 247.17,393.36 L 251.53,405.41 L 267.76,412.20 L 277.17,426.71 L 301.16,426.74 L 300.60,437.15 L 302.87,445.87 L 300.11,451.59 L 303.35,454.45 L 304.77,467.36 L 301.78,476.60 L 299.48,477.44 L 300.62,484.00 L 298.23,494.73 L 295.49,500.00 L 0.00,500.00 L 0.00,418.06 L 5.22,421.83 Z" fill="#E8E0D0" stroke="#B8B0A0" stroke-width="0.5"/>
<path d="M 733.62,441.89 L 730.33,446.25 L 730.94,449.31 L 735.82,451.30 L 738.03,457.72 L 749.38,454.30 L 749.82,459.77 L 755.84,463.70 L 763.75,483.69 L 762.71,488.32 L 755.26,490.98 L 751.83,497.48 L 733.88,499.86 L 733.73,500.00 L 698.90,500.00 L 683.27,496.44 L 675.22,500.00 L 589.95,500.00 L 601.25,489.69 L 606.15,480.73 L 603.01,476.58 L 605.70,471.78 L 601.10,458.15 L 592.41,448.78 L 603.84,438.25 L 605.35,433.39 L 610.37,435.69 L 610.09,432.57 L 621.70,426.09 L 621.64,423.94 L 633.16,419.86 L 664.47,417.02 L 675.98,420.04 L 694.24,411.13 L 700.36,416.63 L 706.99,413.38 L 714.31,416.30 L 716.65,423.50 L 725.30,423.49 L 732.65,433.86 L 733.62,441.89 Z" fill="#E8E0D0" stroke="#B8B0A0" stroke-width="0.5"/>
<path d="M 755.84,463.70 L 773.50,470.20 L 785.63,469.32 L 763.75,483.69 L 755.84,463.70 Z" fill="#E8E0D0" stroke="#B8B0A0" stroke-width="0.5"/>
<path d="M 354.95,89.91 L 348.86,79.60 L 351.67,69.42 L 362.33,62.95 L 375.25,65.26 L 382.66,76.46 L 378.87,87.82 L 365.76,93.43 L 354.95,89.91 Z" fill="#E8E0D0" stroke="#B8B0A0" stroke-width="0.5"/>
<path d="M 690.60,414.57 L 686.43,413.38 L 675.98,420.04 L 668.33,417.19 L 651.41,417.75 L 622.92,423.37 L 610.09,432.57 L 610.37,435.69 L 605.35,433.39 L 603.84,438.25 L 594.07,445.81 L 592.55,449.48 L 597.95,452.99 L 602.58,461.63 L 601.93,465.06 L 604.86,467.31 L 605.66,472.51 L 603.01,476.58 L 606.15,480.73 L 601.25,489.69 L 589.95,500.00 L 295.49,500.00 L 298.23,494.73 L 300.62,484.00 L 299.31,478.23 L 301.78,476.60 L 304.18,464.73 L 313.94,471.74 L 325.67,471.43 L 332.26,476.85 L 333.79,482.56 L 338.03,477.34 L 345.65,478.54 L 356.91,471.50 L 356.81,464.50 L 360.82,461.71 L 357.61,455.85 L 367.11,455.30 L 380.49,449.38 L 385.02,450.53 L 385.37,446.56 L 397.61,440.35 L 406.38,415.46 L 406.38,408.75 L 414.66,404.46 L 428.46,403.56 L 435.00,391.57 L 450.53,400.80 L 471.25,398.81 L 478.62,406.25 L 485.73,402.64 L 492.82,404.60 L 493.59,409.06 L 500.79,415.94 L 519.68,402.77 L 524.09,403.80 L 524.54,400.88 L 526.87,402.74 L 526.06,400.54 L 538.41,408.78 L 542.20,404.81 L 540.35,396.83 L 544.14,391.55 L 556.09,390.13 L 563.05,392.95 L 566.69,386.85 L 563.46,377.85 L 566.07,378.10 L 572.15,371.34 L 577.81,360.70 L 586.14,358.18 L 598.01,366.46 L 595.10,378.58 L 604.98,379.63 L 600.13,410.66 L 606.59,424.84 L 611.94,424.39 L 624.27,414.38 L 635.86,412.08 L 639.73,404.94 L 654.45,395.81 L 667.77,397.17 L 667.35,400.53 L 663.22,403.39 L 666.48,405.06 L 684.14,397.23 L 694.18,398.46 L 700.94,404.53 L 698.07,405.18 L 695.96,402.05 L 685.68,406.93 L 690.60,414.57 Z" fill="#C8D8E8" stroke="#8BAABB" stroke-width="0.8"/>
<path d="M 771.88,193.02 L 761.07,189.63 L 745.26,193.47 L 727.29,191.58 L 722.14,196.47 L 709.28,194.81 L 680.16,179.43 L 681.18,181.64 L 673.94,181.10 L 672.09,184.31 L 662.45,188.01 L 657.84,203.11 L 660.54,211.49 L 612.27,195.39 L 594.72,198.64 L 591.73,204.04 L 587.67,205.49 L 589.44,208.97 L 586.47,209.05 L 583.28,215.10 L 586.05,217.26 L 579.84,219.16 L 576.22,225.50 L 568.87,224.20 L 555.90,237.25 L 547.52,238.91 L 540.79,243.51 L 541.04,246.13 L 530.38,249.89 L 530.23,256.06 L 516.83,267.08 L 518.09,278.45 L 513.65,279.36 L 499.94,270.91 L 504.03,262.75 L 501.20,262.26 L 498.38,256.37 L 463.30,257.95 L 456.63,226.77 L 442.20,226.43 L 444.90,189.56 L 435.99,193.78 L 427.88,178.11 L 410.58,162.36 L 396.13,168.78 L 360.64,165.78 L 326.21,171.26 L 301.04,145.60 L 297.38,137.58 L 225.11,93.75 L 150.01,114.73 L 150.08,251.85 L 134.69,253.44 L 120.14,234.16 L 118.87,229.06 L 96.03,213.93 L 75.34,216.89 L 62.71,221.80 L 46.95,235.90 L 48.50,230.18 L 45.91,223.07 L 53.90,206.43 L 50.63,198.82 L 54.90,204.68 L 55.65,200.35 L 47.92,195.69 L 42.15,196.71 L 39.13,193.42 L 31.65,195.09 L 24.04,182.06 L 13.11,183.43 L 14.25,171.94 L 1.03,150.93 L 0.63,144.81 L 0.00,144.60 L 0.00,128.30 L 1.38,128.40 L 9.25,133.78 L 15.75,130.96 L 21.40,132.79 L 3.99,119.64 L 3.90,115.34 L 10.80,112.10 L 13.03,113.63 L 12.20,108.51 L 17.19,99.99 L 20.92,102.05 L 27.17,97.48 L 32.46,100.84 L 49.33,99.29 L 60.70,102.88 L 70.94,101.75 L 55.52,93.86 L 66.78,72.95 L 67.89,64.47 L 64.28,59.64 L 66.30,60.66 L 65.71,58.09 L 63.23,58.38 L 69.38,51.28 L 66.41,49.70 L 65.09,43.91 L 47.48,39.85 L 44.61,43.86 L 39.70,44.23 L 41.34,46.98 L 37.48,46.88 L 34.75,42.25 L 32.50,44.37 L 26.75,42.63 L 24.89,37.76 L 22.33,40.37 L 11.27,35.38 L 0.61,38.52 L 0.00,39.49 L 0.00,0.00 L 800.00,0.00 L 800.00,195.13 L 771.88,193.02 Z M 378.87,87.82 L 382.66,76.46 L 375.25,65.26 L 362.33,62.95 L 351.67,69.42 L 348.86,79.60 L 354.95,89.91 L 365.76,93.43 L 378.87,87.82 Z M 53.92,99.73 L 50.28,96.69 L 52.71,94.93 L 53.92,99.73 Z" fill="#C8D8E8" stroke="#8BAABB" stroke-width="0.8"/>
<path d="M 793.63,262.38 L 758.27,263.36 L 752.07,272.63 L 751.28,278.36 L 742.81,288.19 L 740.31,284.71 L 723.93,290.29 L 720.38,277.56 L 709.72,284.71 L 699.28,282.08 L 697.88,285.48 L 700.06,289.01 L 695.50,288.81 L 684.67,297.68 L 673.97,299.94 L 669.79,308.43 L 672.82,316.38 L 669.73,321.03 L 659.71,321.16 L 650.71,325.24 L 631.82,324.48 L 625.91,326.23 L 623.37,331.44 L 618.15,324.74 L 609.45,328.27 L 609.13,321.77 L 602.51,321.38 L 600.96,315.66 L 590.37,319.38 L 586.91,323.77 L 580.88,324.25 L 576.57,317.47 L 572.35,316.07 L 564.95,319.13 L 564.29,315.38 L 562.31,317.98 L 538.07,319.26 L 535.92,310.47 L 538.36,301.75 L 541.13,305.06 L 543.93,304.07 L 544.41,296.51 L 558.58,293.39 L 573.75,299.92 L 572.35,304.88 L 577.85,297.29 L 585.52,294.81 L 587.43,291.23 L 594.97,289.07 L 602.76,293.58 L 605.87,291.52 L 608.17,295.80 L 611.94,291.88 L 617.25,292.22 L 615.44,289.40 L 621.53,284.22 L 628.18,286.64 L 626.95,278.71 L 634.92,282.13 L 639.53,276.18 L 650.15,270.81 L 635.87,268.81 L 626.38,261.14 L 621.51,263.88 L 621.31,256.84 L 612.96,256.59 L 612.24,251.10 L 609.28,246.95 L 607.14,247.97 L 607.13,243.42 L 604.92,245.42 L 604.63,251.78 L 599.77,250.89 L 599.69,259.10 L 595.62,259.63 L 593.59,256.81 L 592.82,259.82 L 580.89,254.95 L 577.90,246.26 L 571.65,248.72 L 563.30,244.44 L 577.35,230.73 L 582.16,229.53 L 583.07,225.39 L 594.51,220.55 L 589.84,216.03 L 583.28,215.10 L 586.47,209.05 L 589.44,208.97 L 587.67,205.49 L 599.36,196.86 L 604.07,198.26 L 612.27,195.39 L 625.21,198.12 L 660.54,211.49 L 657.84,203.11 L 662.45,188.01 L 672.09,184.31 L 673.94,181.10 L 681.18,181.64 L 680.16,179.43 L 709.28,194.81 L 722.14,196.47 L 727.29,191.58 L 745.26,193.47 L 761.07,189.63 L 771.88,193.02 L 800.00,195.13 L 800.00,255.51 L 793.63,262.38 Z M 607.43,302.86 L 606.96,303.41 L 609.63,304.80 L 610.45,301.57 L 607.43,302.86 Z M 587.82,295.29 L 586.24,297.61 L 588.91,301.48 L 588.21,305.63 L 593.65,305.33 L 592.66,301.40 L 594.68,299.44 L 587.82,295.29 Z M 575.39,309.89 L 578.98,307.82 L 578.81,306.46 L 572.98,305.59 L 575.39,309.89 Z" fill="#C8D8E8" stroke="#8BAABB" stroke-width="0.8"/>
<path d="M 576.41,264.10 L 577.24,266.27 L 574.80,264.06 L 576.41,264.10 Z M 577.85,297.29 L 572.35,304.88 L 573.75,299.92 L 558.58,293.39 L 544.41,296.51 L 543.93,304.07 L 541.13,305.06 L 538.47,301.67 L 536.34,307.57 L 537.66,318.36 L 557.83,318.56 L 564.29,315.38 L 564.95,319.13 L 572.35,316.07 L 576.57,317.47 L 580.88,324.25 L 586.91,323.77 L 590.37,319.38 L 600.96,315.66 L 602.51,321.38 L 609.13,321.77 L 609.45,328.27 L 618.15,324.74 L 623.37,331.44 L 625.91,326.23 L 631.82,324.48 L 650.71,325.24 L 663.43,321.35 L 663.53,330.77 L 669.88,339.37 L 665.65,343.25 L 669.60,353.94 L 675.79,356.15 L 678.54,350.84 L 684.68,350.94 L 699.21,358.53 L 697.98,372.79 L 703.06,384.51 L 700.93,390.79 L 708.85,398.21 L 700.94,404.53 L 694.18,398.46 L 684.14,397.23 L 666.48,405.06 L 663.22,403.39 L 667.35,400.53 L 667.77,397.17 L 654.45,395.81 L 639.73,404.94 L 635.86,412.08 L 624.27,414.38 L 611.94,424.39 L 606.59,424.84 L 600.13,410.66 L 604.98,379.63 L 595.10,378.58 L 598.01,366.46 L 586.14,358.18 L 577.81,360.70 L 572.15,371.34 L 566.07,378.10 L 563.46,377.85 L 566.69,386.85 L 563.05,392.95 L 556.09,390.13 L 544.14,391.55 L 540.35,396.83 L 542.20,404.81 L 538.76,408.64 L 536.48,409.28 L 526.06,400.54 L 526.87,402.74 L 524.54,400.88 L 524.09,403.80 L 519.68,402.77 L 501.15,415.95 L 493.95,409.56 L 495.23,393.45 L 503.76,379.26 L 507.44,377.74 L 510.58,367.90 L 501.81,355.82 L 502.14,346.42 L 505.23,344.28 L 503.14,339.28 L 491.19,338.90 L 490.52,333.59 L 481.27,330.30 L 485.28,318.43 L 491.98,315.24 L 515.27,318.04 L 518.44,306.79 L 521.80,307.91 L 523.13,305.60 L 522.30,301.91 L 525.85,305.72 L 522.76,298.20 L 528.95,297.76 L 517.13,295.05 L 537.63,293.90 L 535.39,290.05 L 538.43,288.38 L 535.10,280.03 L 538.33,278.94 L 539.67,272.05 L 544.16,272.26 L 550.23,277.43 L 566.62,268.42 L 569.04,262.64 L 580.79,273.65 L 569.22,283.43 L 569.27,287.56 L 573.71,288.35 L 576.57,293.73 L 586.38,292.28 L 577.85,297.29 Z M 578.81,306.46 L 578.98,307.82 L 575.39,309.89 L 572.98,305.59 L 578.81,306.46 Z" fill="#C8D8E8" stroke="#8BAABB" stroke-width="0.8"/>
<path d="M 303.35,454.45 L 300.11,451.59 L 302.87,445.87 L 300.60,437.15 L 301.16,426.74 L 277.17,426.71 L 267.76,412.20 L 251.53,405.41 L 247.17,393.36 L 232.28,387.23 L 219.37,389.52 L 214.98,387.83 L 213.52,383.74 L 190.09,377.05 L 185.24,365.51 L 180.95,368.84 L 163.42,366.31 L 156.94,373.26 L 134.61,372.71 L 117.40,384.75 L 115.41,393.58 L 111.50,396.78 L 98.47,401.04 L 89.94,400.37 L 87.35,385.36 L 87.42,356.22 L 91.95,341.64 L 83.76,335.58 L 84.43,329.49 L 82.55,331.03 L 83.24,335.39 L 81.05,329.71 L 79.86,331.29 L 79.70,325.32 L 67.70,325.66 L 68.03,331.80 L 65.81,323.56 L 71.36,313.69 L 69.65,318.91 L 79.87,321.05 L 80.04,318.83 L 84.68,318.80 L 78.87,313.11 L 75.47,314.25 L 74.46,309.79 L 80.06,302.38 L 75.04,300.93 L 71.56,303.42 L 60.81,300.37 L 63.56,309.90 L 55.71,299.18 L 55.66,283.09 L 59.34,276.62 L 60.90,260.68 L 66.88,268.62 L 65.21,269.68 L 66.79,272.45 L 74.10,270.01 L 77.40,273.67 L 81.52,268.07 L 84.33,277.83 L 97.44,273.94 L 104.21,276.04 L 99.74,267.94 L 102.95,266.95 L 106.29,270.95 L 111.09,269.87 L 114.59,265.16 L 112.20,261.21 L 114.81,262.48 L 94.61,245.64 L 89.51,230.06 L 89.74,224.18 L 87.17,221.88 L 68.10,222.66 L 62.17,227.11 L 56.61,238.64 L 60.90,238.69 L 57.90,249.69 L 59.90,261.97 L 56.37,249.76 L 50.58,244.46 L 51.46,239.75 L 46.95,235.90 L 62.71,221.80 L 75.34,216.89 L 96.03,213.93 L 118.87,229.06 L 120.14,234.16 L 135.51,253.90 L 148.09,251.66 L 180.13,254.37 L 184.53,250.12 L 180.40,246.46 L 179.20,230.44 L 190.96,220.42 L 204.60,219.38 L 206.29,210.46 L 209.42,207.87 L 218.42,210.41 L 220.53,215.78 L 223.24,215.42 L 217.87,206.79 L 212.49,203.23 L 216.48,200.79 L 224.52,202.10 L 226.07,196.99 L 235.00,206.08 L 242.33,206.87 L 245.60,213.55 L 263.31,215.17 L 268.02,219.08 L 267.12,226.13 L 264.48,227.77 L 274.56,234.74 L 268.64,235.73 L 272.00,242.02 L 269.29,244.65 L 269.95,249.31 L 281.13,255.94 L 292.26,254.41 L 304.52,257.98 L 308.94,252.64 L 321.90,259.19 L 329.36,279.61 L 335.74,285.12 L 338.64,300.84 L 368.49,323.47 L 375.23,331.38 L 388.09,340.39 L 393.53,339.59 L 430.42,366.97 L 438.36,365.65 L 460.76,377.85 L 457.06,383.95 L 457.87,396.33 L 455.64,400.85 L 446.70,399.09 L 435.00,391.57 L 428.46,403.56 L 414.66,404.46 L 407.23,408.10 L 400.94,427.31 L 401.01,434.65 L 397.61,440.35 L 385.37,446.56 L 385.02,450.53 L 380.49,449.38 L 367.11,455.30 L 357.61,455.85 L 360.82,461.71 L 356.81,464.50 L 356.91,471.50 L 345.65,478.54 L 338.03,477.34 L 333.79,482.56 L 332.26,476.85 L 325.67,471.43 L 313.94,471.74 L 304.18,464.73 L 303.35,454.45 Z M 65.85,335.10 L 66.30,347.65 L 64.50,341.99 L 65.85,335.10 Z M 78.27,316.44 L 78.89,318.81 L 77.66,319.52 L 78.27,316.44 Z" fill="#C8D8E8" stroke="#8BAABB" stroke-width="0.8"/>
<path d="M 609.63,304.80 L 606.96,303.41 L 607.43,302.86 L 610.45,301.57 L 609.63,304.80 Z M 576.57,293.73 L 573.71,288.35 L 569.27,287.56 L 569.22,283.43 L 580.79,273.65 L 577.01,272.42 L 578.99,271.04 L 571.43,262.89 L 569.04,262.64 L 566.62,268.42 L 549.45,277.66 L 544.16,272.26 L 539.67,272.05 L 538.33,278.94 L 535.10,280.03 L 538.43,288.38 L 535.39,290.05 L 537.63,293.90 L 517.13,295.05 L 528.95,297.76 L 522.76,298.20 L 525.85,305.72 L 522.30,301.91 L 523.13,305.60 L 521.80,307.91 L 518.44,306.79 L 515.27,318.04 L 491.98,315.24 L 483.52,320.72 L 481.27,330.30 L 490.52,333.59 L 491.19,338.90 L 503.14,339.28 L 505.23,344.28 L 502.14,346.42 L 501.81,355.82 L 510.58,367.90 L 507.44,377.74 L 503.76,379.26 L 495.23,393.45 L 493.81,406.11 L 485.73,402.64 L 478.62,406.25 L 471.25,398.81 L 457.08,399.57 L 457.06,383.95 L 460.13,376.06 L 438.36,365.65 L 430.42,366.97 L 393.53,339.59 L 388.09,340.39 L 375.23,331.38 L 368.49,323.47 L 338.64,300.84 L 335.74,285.12 L 329.36,279.61 L 321.90,259.19 L 308.94,252.64 L 304.52,257.98 L 292.26,254.41 L 281.13,255.94 L 269.95,249.31 L 269.29,244.65 L 272.00,242.02 L 268.64,235.73 L 274.56,234.74 L 264.48,227.77 L 267.12,226.13 L 268.02,219.08 L 263.31,215.17 L 245.60,213.55 L 242.33,206.87 L 235.00,206.08 L 226.07,196.99 L 224.52,202.10 L 216.48,200.79 L 212.49,203.23 L 217.87,206.79 L 223.24,215.42 L 220.53,215.78 L 218.42,210.41 L 209.42,207.87 L 206.29,210.46 L 204.60,219.38 L 190.96,220.42 L 179.20,230.44 L 180.40,246.46 L 184.53,250.12 L 180.69,254.05 L 150.08,251.85 L 150.00,114.76 L 225.11,93.75 L 297.38,137.58 L 301.04,145.60 L 326.21,171.26 L 360.64,165.78 L 396.13,168.78 L 410.58,162.36 L 427.88,178.11 L 435.99,193.78 L 444.90,189.56 L 442.20,226.43 L 456.63,226.77 L 463.30,257.95 L 498.38,256.37 L 501.20,262.26 L 504.03,262.75 L 499.94,270.91 L 513.65,279.36 L 518.09,278.45 L 516.83,267.08 L 530.23,256.06 L 530.38,249.89 L 541.04,246.13 L 540.79,243.51 L 547.52,238.91 L 555.90,237.25 L 568.87,224.20 L 572.14,223.11 L 575.31,225.92 L 579.84,219.16 L 588.91,215.67 L 594.51,220.55 L 583.07,225.39 L 582.16,229.53 L 577.35,230.73 L 563.30,244.44 L 571.65,248.72 L 577.90,246.26 L 580.89,254.95 L 592.82,259.82 L 593.59,256.81 L 595.62,259.63 L 599.69,259.10 L 599.77,250.89 L 604.63,251.78 L 604.92,245.42 L 607.13,243.42 L 607.14,247.97 L 609.28,246.95 L 612.24,251.10 L 612.96,256.59 L 621.31,256.84 L 621.51,263.88 L 626.38,261.14 L 635.87,268.81 L 650.00,270.06 L 639.53,276.18 L 634.92,282.13 L 626.95,278.71 L 628.18,286.64 L 621.53,284.22 L 615.44,289.40 L 617.25,292.22 L 611.94,291.88 L 608.17,295.80 L 605.87,291.52 L 602.76,293.58 L 594.97,289.07 L 576.57,293.73 Z M 574.80,264.06 L 577.24,266.27 L 576.41,264.10 L 574.80,264.06 Z M 594.68,299.44 L 592.66,301.40 L 593.65,305.33 L 588.21,305.63 L 588.91,301.48 L 586.24,297.61 L 587.82,295.29 L 594.68,299.44 Z" fill="#4A90D9" stroke="#1a5fa8" stroke-width="1.2"/>
<path d="M 792.70,65.10 L 785.96,60.85 L 783.11,63.21 L 774.32,58.33 L 759.77,60.13 L 741.39,55.60 L 719.73,59.65 L 721.12,57.97 L 717.78,53.82 L 721.12,52.74 L 718.39,52.00 L 715.77,53.85 L 716.73,59.36 L 712.18,57.47 L 710.69,61.59 L 706.53,60.89 L 707.94,58.61 L 704.55,62.70 L 701.46,61.72 L 697.17,73.69 L 690.13,77.62 L 681.69,77.65 L 684.39,85.09 L 681.66,87.24 L 684.83,89.30 L 682.22,89.05 L 682.42,91.85 L 677.03,95.10 L 677.07,101.49 L 679.84,102.65 L 680.01,111.29 L 676.98,112.95 L 678.91,115.89 L 675.00,114.62 L 675.05,106.49 L 671.92,106.31 L 664.34,95.83 L 658.21,91.87 L 662.12,86.55 L 658.45,84.18 L 662.55,84.31 L 664.86,77.91 L 667.84,78.04 L 664.48,74.49 L 665.30,70.53 L 675.00,70.12 L 675.89,69.46 L 676.42,68.59 L 673.22,66.04 L 676.99,61.71 L 690.51,54.93 L 692.76,48.39 L 700.76,46.57 L 703.59,46.06 L 704.04,48.40 L 706.54,45.50 L 712.40,50.30 L 731.00,46.04 L 731.71,48.64 L 743.77,49.64 L 744.57,53.10 L 748.06,54.25 L 754.24,51.69 L 760.44,56.31 L 757.67,51.43 L 766.64,56.79 L 780.81,52.21 L 788.35,52.67 L 795.79,54.57 L 800.00,59.60 L 800.00,63.77 L 792.70,65.10 Z" fill="#A8C8E8" stroke="none"/>
<path d="M 322.79,70.88 L 315.12,71.72 L 319.49,74.55 L 316.20,79.00 L 312.67,73.43 L 315.01,69.80 L 324.04,67.54 L 322.79,70.88 Z" fill="#A8C8E8" stroke="none"/>
<path d="M 639.33,235.67 L 635.50,239.03 L 633.90,237.67 L 638.31,234.58 L 633.90,229.47 L 654.36,234.71 L 639.33,235.67 Z" fill="#A8C8E8" stroke="none"/>
<path d="M 508.17,263.25 L 501.19,262.25 L 497.64,254.82 L 512.97,259.17 L 508.17,263.25 Z" fill="#A8C8E8" stroke="none"/>
<path d="M 567.93,289.42 L 563.79,291.27 L 553.27,291.28 L 569.32,285.80 L 567.93,289.42 Z" fill="#A8C8E8" stroke="none"/>
<path d="M 766.44,159.13 L 765.63,156.70 L 772.61,153.76 L 796.57,156.83 L 791.77,160.00 L 766.44,159.13 Z" fill="#A8C8E8" stroke="none"/>
<path d="M 800.00,204.17 L 800.00,204.72 L 786.48,210.30 L 788.97,212.57 L 776.34,220.48 L 760.44,220.29 L 744.75,213.63 L 741.08,214.64 L 738.91,210.11 L 785.17,199.55 L 800.00,198.81 L 800.00,199.05 L 793.83,203.28 L 800.00,204.17 Z" fill="#A8C8E8" stroke="none"/>
<path d="M 204.70,238.37 L 190.09,243.68 L 183.82,234.12 L 182.00,238.94 L 180.80,236.25 L 185.57,217.55 L 190.45,213.64 L 197.71,217.57 L 197.24,223.92 L 200.99,226.20 L 199.64,230.14 L 205.03,232.98 L 204.70,238.37 Z" fill="#A8C8E8" stroke="none"/>
<path d="M 497.42,270.78 L 485.21,273.97 L 488.75,282.62 L 480.58,276.22 L 480.46,272.59 L 445.29,263.72 L 470.63,263.80 L 478.86,265.84 L 482.97,268.57 L 481.93,270.56 L 486.80,270.54 L 501.19,262.25 L 497.42,270.78 Z" fill="#A8C8E8" stroke="none"/>
<path d="M 224.95,99.33 L 229.68,83.38 L 246.90,77.13 L 245.18,81.24 L 235.58,84.88 L 234.28,92.30 L 228.52,97.39 L 228.82,109.70 L 224.88,114.26 L 227.14,121.34 L 223.02,133.05 L 219.56,136.02 L 215.80,134.67 L 218.31,129.37 L 215.39,120.27 L 224.95,99.33 Z" fill="#A8C8E8" stroke="none"/>
<path d="M 255.31,69.42 L 252.76,65.32 L 260.93,66.61 L 261.76,72.60 L 259.30,74.13 L 255.31,69.42 Z" fill="#A8C8E8" stroke="none"/>
<path d="M 291.22,69.72 L 288.24,63.25 L 284.08,66.28 L 277.35,62.18 L 271.09,63.91 L 266.86,60.88 L 267.25,55.87 L 275.55,51.09 L 279.17,59.21 L 280.58,53.80 L 284.10,56.20 L 289.50,53.24 L 282.51,49.20 L 284.10,47.96 L 290.82,49.33 L 289.81,55.52 L 293.19,59.56 L 300.23,60.44 L 304.11,58.57 L 302.35,55.57 L 305.50,53.04 L 311.72,51.95 L 304.47,59.31 L 302.65,68.38 L 290.00,74.01 L 291.22,69.72 Z" fill="#A8C8E8" stroke="none"/>
<path d="M 266.67,74.97 L 267.97,76.58 L 266.04,79.34 L 265.11,76.44 L 261.65,76.57 L 266.67,74.97 Z" fill="#A8C8E8" stroke="none"/>
</svg>