<svg xmlns="http://www.w3.org/2000/svg" width="800" height="500" viewBox="0 0 800 500">
<rect width="800" height="500" fill="#A8C8E8"/>
<path d="M 773.21,471.72 L 777.73,469.46 L 776.52,477.78 L 784.15,500.00 L 720.98,500.00 L 721.12,499.86 L 738.74,497.26 L 741.69,490.98 L 748.84,488.32 L 749.66,483.82 L 770.89,469.32 L 773.21,471.72 Z M 674.21,496.27 L 689.46,500.00 L 665.03,500.00 L 674.21,496.27 Z" fill="#E8E0D0" stroke="#B8B0A0" stroke-width="0.5"/>
<path d="M 776.52,477.78 L 777.73,469.46 L 773.21,471.72 L 770.89,469.32 L 759.22,470.20 L 746.10,466.05 L 736.45,459.77 L 735.51,454.13 L 725.11,457.72 L 722.98,451.30 L 717.66,448.12 L 720.87,441.89 L 719.81,433.22 L 716.26,426.42 L 710.65,422.34 L 704.55,423.50 L 701.23,415.82 L 695.26,413.38 L 688.88,416.63 L 686.64,412.60 L 679.63,412.35 L 675.16,408.44 L 684.65,402.05 L 686.68,405.18 L 689.44,404.53 L 697.05,398.21 L 689.42,390.79 L 691.48,384.51 L 686.59,372.79 L 687.85,358.84 L 673.80,350.94 L 667.90,350.84 L 665.25,356.15 L 659.30,353.94 L 655.50,343.25 L 659.57,339.37 L 653.46,330.77 L 654.15,321.77 L 659.91,320.75 L 662.24,316.78 L 659.36,309.17 L 663.79,299.55 L 673.79,297.68 L 684.21,288.81 L 688.59,289.01 L 686.50,285.48 L 687.84,282.08 L 697.88,284.71 L 708.13,277.56 L 711.55,290.29 L 727.30,284.71 L 729.25,288.37 L 737.53,278.89 L 738.61,272.63 L 744.58,263.36 L 778.59,262.38 L 784.71,255.51 L 784.71,500.00 L 784.15,500.00 L 776.52,477.78 Z" fill="#E8E0D0" stroke="#B8B0A0" stroke-width="0.5"/>
<path d="M 20.31,421.83 L 45.64,428.74 L 104.39,414.93 L 93.26,417.76 L 104.61,419.84 L 104.77,412.13 L 101.79,400.37 L 109.99,401.04 L 122.53,396.78 L 126.29,393.58 L 127.36,385.72 L 135.87,377.61 L 152.07,371.41 L 168.63,372.84 L 168.73,369.14 L 172.46,366.31 L 189.32,368.84 L 193.14,365.47 L 198.11,377.05 L 220.64,383.74 L 222.05,387.83 L 226.28,389.52 L 238.69,387.23 L 253.01,393.36 L 257.20,405.41 L 272.82,412.20 L 281.87,426.71 L 304.93,426.74 L 304.40,437.15 L 306.58,445.87 L 303.93,451.59 L 307.04,454.45 L 308.41,467.36 L 305.53,476.60 L 303.32,477.44 L 304.42,484.00 L 302.12,494.73 L 299.48,500.00 L 15.29,500.00 L 15.29,418.06 L 20.31,421.83 Z" fill="#E8E0D0" stroke="#B8B0A0" stroke-width="0.5"/>
<path d="M 720.87,441.89 L 717.70,446.25 L 718.29,449.31 L 722.98,451.30 L 725.11,457.72 L 736.02,454.30 L 736.45,459.77 L 742.24,463.70 L 749.85,483.69 L 748.84,488.32 L 741.69,490.98 L 738.38,497.48 L 721.12,499.86 L 720.98,500.00 L 687.47,500.00 L 672.45,496.44 L 664.70,500.00 L 582.69,500.00 L 593.56,489.69 L 598.28,480.73 L 595.25,476.58 L 597.84,471.78 L 593.41,458.15 L 585.05,448.78 L 596.05,438.25 L 597.51,433.39 L 602.33,435.69 L 602.06,432.57 L 613.23,426.09 L 613.17,423.94 L 624.25,419.86 L 654.36,417.02 L 665.43,420.04 L 683.00,411.13 L 688.88,416.63 L 695.26,413.38 L 702.29,416.30 L 704.55,423.50 L 712.87,423.49 L 719.93,433.86 L 720.87,441.89 Z" fill="#E8E0D0" stroke="#B8B0A0" stroke-width="0.5"/>
<path d="M 742.24,463.70 L 759.22,470.20 L 770.89,469.32 L 749.85,483.69 L 742.24,463.70 Z" fill="#E8E0D0" stroke="#B8B0A0" stroke-width="0.5"/>
<path d="M 356.68,89.91 L 350.81,79.60 L 353.52,69.42 L 363.77,62.95 L 376.20,65.26 L 383.32,76.46 L 379.67,87.82 L 367.07,93.43 L 356.68,89.91 Z" fill="#E8E0D0" stroke="#B8B0A0" stroke-width="0.5"/>
<path d="M 679.49,414.57 L 675.48,413.38 L 665.43,420.04 L 658.08,417.19 L 641.80,417.75 L 614.40,423.37 L 602.06,432.57 L 602.33,435.69 L 597.51,433.39 L 596.05,438.25 L 586.65,445.81 L 585.19,449.48 L 590.39,452.99 L 594.84,461.63 L 594.21,465.06 L 597.03,467.31 L 597.80,472.51 L 595.25,476.58 L 598.28,480.73 L 593.56,489.69 L 582.69,500.00 L 299.48,500.00 L 302.12,494.73 L 304.42,484.00 L 303.16,478.23 L 305.53,476.60 L 307.84,464.73 L 317.23,471.74 L 328.51,471.43 L 334.85,476.85 L 336.32,482.56 L 340.40,477.34 L 347.73,478.54 L 358.56,471.50 L 358.46,464.50 L 362.32,461.71 L 359.23,455.85 L 368.36,455.30 L 381.24,449.38 L 385.59,450.53 L 385.93,446.56 L 397.71,440.35 L 406.14,415.46 L 406.14,408.75 L 414.10,404.46 L 427.37,403.56 L 433.67,391.57 L 448.60,400.80 L 468.53,398.81 L 475.62,406.25 L 482.45,402.64 L 489.27,404.60 L 490.01,409.06 L 496.94,415.94 L 515.11,402.77 L 519.35,403.80 L 519.78,400.88 L 522.02,402.74 L 521.24,400.54 L 533.12,408.78 L 536.77,404.81 L 534.98,396.83 L 538.63,391.55 L 550.12,390.13 L 556.82,392.95 L 560.32,386.85 L 557.22,377.85 L 559.72,378.10 L 565.57,371.34 L 571.02,360.70 L 579.03,358.18 L 590.44,366.46 L 587.64,378.58 L 597.15,379.63 L 592.48,410.66 L 598.70,424.84 L 603.84,424.39 L 615.69,414.38 L 626.84,412.08 L 630.57,404.94 L 644.73,395.81 L 657.53,397.17 L 657.13,400.53 L 653.16,403.39 L 656.30,405.06 L 673.28,397.23 L 682.94,398.46 L 689.44,404.53 L 686.68,405.18 L 684.65,402.05 L 674.76,406.93 L 679.49,414.57 Z" fill="#C8D8E8" stroke="#8BAABB" stroke-width="0.8"/>
<path d="M 757.67,193.02 L 747.27,189.63 L 732.06,193.47 L 714.78,191.58 L 709.83,196.47 L 697.45,194.81 L 669.45,179.43 L 670.43,181.64 L 663.47,181.10 L 661.69,184.31 L 652.42,188.01 L 647.99,203.11 L 650.58,211.49 L 604.15,195.39 L 587.28,198.64 L 584.40,204.04 L 580.50,205.49 L 582.20,208.97 L 579.34,209.05 L 576.28,215.10 L 578.94,217.26 L 572.96,219.16 L 569.49,225.50 L 562.42,224.20 L 549.94,237.25 L 541.88,238.91 L 535.41,243.51 L 535.65,246.13 L 525.40,249.89 L 525.26,256.06 L 512.36,267.08 L 513.58,278.45 L 509.31,279.36 L 496.12,270.91 L 500.05,262.75 L 497.33,262.26 L 494.62,256.37 L 460.88,257.95 L 454.47,226.77 L 440.59,226.43 L 443.18,189.56 L 434.61,193.78 L 426.82,178.11 L 410.18,162.36 L 396.28,168.78 L 362.14,165.78 L 329.03,171.26 L 304.82,145.60 L 301.31,137.58 L 231.80,93.75 L 159.56,114.73 L 159.63,251.85 L 144.83,253.44 L 130.84,234.16 L 129.62,229.06 L 107.64,213.93 L 87.75,216.89 L 75.60,221.80 L 60.45,235.90 L 61.94,230.18 L 59.45,223.07 L 67.13,206.43 L 63.98,198.82 L 68.09,204.68 L 68.81,200.35 L 61.38,195.69 L 55.83,196.71 L 52.92,193.42 L 45.73,195.09 L 38.41,182.06 L 27.90,183.43 L 28.99,171.94 L 16.28,150.93 L 15.89,144.81 L 15.29,144.60 L 15.29,128.30 L 16.61,128.40 L 24.19,133.78 L 30.43,130.96 L 35.87,132.79 L 19.12,119.64 L 19.03,115.34 L 25.68,112.10 L 27.82,113.63 L 27.02,108.51 L 31.82,99.99 L 35.40,102.05 L 41.42,97.48 L 46.51,100.84 L 62.73,99.29 L 73.67,102.88 L 83.51,101.75 L 68.69,93.86 L 79.51,72.95 L 80.59,64.47 L 77.11,59.64 L 79.06,60.66 L 78.49,58.09 L 76.10,58.38 L 82.02,51.28 L 79.16,49.70 L 77.89,43.91 L 60.96,39.85 L 58.19,43.86 L 53.47,44.23 L 55.05,46.98 L 51.34,46.88 L 48.71,42.25 L 46.54,44.37 L 41.01,42.63 L 39.23,37.76 L 36.76,40.37 L 26.13,35.38 L 15.87,38.52 L 15.29,39.49 L 15.29,0.00 L 784.71,0.00 L 784.71,195.13 L 757.67,193.02 Z M 379.67,87.82 L 383.32,76.46 L 376.20,65.26 L 363.77,62.95 L 353.52,69.42 L 350.81,79.60 L 356.68,89.91 L 367.07,93.43 L 379.67,87.82 Z M 67.15,99.73 L 63.65,96.69 L 65.99,94.93 L 67.15,99.73 Z" fill="#C8D8E8" stroke="#8BAABB" stroke-width="0.8"/>
<path d="M 778.59,262.38 L 744.58,263.36 L 738.61,272.63 L 737.85,278.36 L 729.71,288.19 L 727.30,284.71 L 711.55,290.29 L 708.13,277.56 L 697.88,284.71 L 687.84,282.08 L 686.50,285.48 L 688.59,289.01 L 684.21,288.81 L 673.79,297.68 L 663.50,299.94 L 659.48,308.43 L 662.39,316.38 L 659.42,321.03 L 649.79,321.16 L 641.13,325.24 L 622.96,324.48 L 617.28,326.23 L 614.83,331.44 L 609.81,324.74 L 601.45,328.27 L 601.14,321.77 L 594.77,321.38 L 593.28,315.66 L 583.09,319.38 L 579.77,323.77 L 573.97,324.25 L 569.82,317.47 L 565.76,316.07 L 558.65,319.13 L 558.01,315.38 L 556.10,317.98 L 532.80,319.26 L 530.72,310.47 L 533.08,301.75 L 535.74,305.06 L 538.43,304.07 L 538.89,296.51 L 552.52,293.39 L 567.11,299.92 L 565.76,304.88 L 571.05,297.29 L 578.43,294.81 L 580.27,291.23 L 587.52,289.07 L 595.01,293.58 L 598.01,291.52 L 600.21,295.80 L 603.84,291.88 L 608.95,292.22 L 607.20,289.40 L 613.06,284.22 L 619.46,286.64 L 618.27,278.71 L 625.94,282.13 L 630.38,276.18 L 640.59,270.81 L 626.86,268.81 L 617.73,261.14 L 613.04,263.88 L 612.85,256.84 L 604.82,256.59 L 604.13,251.10 L 601.28,246.95 L 599.23,247.97 L 599.21,243.42 L 597.09,245.42 L 596.81,251.78 L 592.14,250.89 L 592.06,259.10 L 588.14,259.63 L 586.19,256.81 L 585.45,259.82 L 573.98,254.95 L 571.10,246.26 L 565.09,248.72 L 557.06,244.44 L 570.57,230.73 L 575.20,229.53 L 576.08,225.39 L 587.08,220.55 L 582.58,216.03 L 576.28,215.10 L 579.34,209.05 L 582.20,208.97 L 580.50,205.49 L 591.74,196.86 L 596.27,198.26 L 604.15,195.39 L 616.61,198.12 L 650.58,211.49 L 647.99,203.11 L 652.42,188.01 L 661.69,184.31 L 663.47,181.10 L 670.43,181.64 L 669.45,179.43 L 697.45,194.81 L 709.83,196.47 L 714.78,191.58 L 732.06,193.47 L 747.27,189.63 L 757.67,193.02 L 784.71,195.13 L 784.71,255.51 L 778.59,262.38 Z M 599.50,302.86 L 599.05,303.41 L 601.62,304.80 L 602.41,301.57 L 599.50,302.86 Z M 580.65,295.29 L 579.12,297.61 L 581.69,301.48 L 581.02,305.63 L 586.24,305.33 L 585.30,301.40 L 587.24,299.44 L 580.65,295.29 Z M 568.69,309.89 L 572.14,307.82 L 571.97,306.46 L 566.36,305.59 L 568.69,309.89 Z" fill="#C8D8E8" stroke="#8BAABB" stroke-width="0.8"/>
<path d="M 569.67,264.10 L 570.46,266.27 L 568.12,264.06 L 569.67,264.10 Z M 571.05,297.29 L 565.76,304.88 L 567.11,299.92 L 552.52,293.39 L 538.89,296.51 L 538.43,304.07 L 535.74,305.06 L 533.18,301.67 L 531.13,307.57 L 532.40,318.36 L 551.80,318.56 L 558.01,315.38 L 558.65,319.13 L 565.76,316.07 L 569.82,317.47 L 573.97,324.25 L 579.77,323.77 L 583.09,319.38 L 593.28,315.66 L 594.77,321.38 L 601.14,321.77 L 601.45,328.27 L 609.81,324.74 L 614.83,331.44 L 617.28,326.23 L 622.96,324.48 L 641.13,325.24 L 653.36,321.35 L 653.46,330.77 L 659.57,339.37 L 655.50,343.25 L 659.30,353.94 L 665.25,356.15 L 667.90,350.84 L 673.80,350.94 L 687.77,358.53 L 686.59,372.79 L 691.48,384.51 L 689.42,390.79 L 697.05,398.21 L 689.44,404.53 L 682.94,398.46 L 673.28,397.23 L 656.30,405.06 L 653.16,403.39 L 657.13,400.53 L 657.53,397.17 L 644.73,395.81 L 630.57,404.94 L 626.84,412.08 L 615.69,414.38 L 603.84,424.39 L 598.70,424.84 L 592.48,410.66 L 597.15,379.63 L 587.64,378.58 L 590.44,366.46 L 579.03,358.18 L 571.02,360.70 L 565.57,371.34 L 559.72,378.10 L 557.22,377.85 L 560.32,386.85 L 556.82,392.95 L 550.12,390.13 L 538.63,391.55 L 534.98,396.83 L 536.77,404.81 L 533.46,408.64 L 531.26,409.28 L 521.24,400.54 L 522.02,402.74 L 519.78,400.88 L 519.35,403.80 L 515.11,402.77 L 497.29,415.95 L 490.36,409.56 L 491.59,393.45 L 499.79,379.26 L 503.34,377.74 L 506.35,367.90 L 497.92,355.82 L 498.24,346.42 L 501.20,344.28 L 499.20,339.28 L 487.70,338.90 L 487.06,333.59 L 478.17,330.30 L 482.02,318.43 L 488.46,315.24 L 510.87,318.04 L 513.91,306.79 L 517.15,307.91 L 518.43,305.60 L 517.63,301.91 L 521.04,305.72 L 518.07,298.20 L 524.02,297.76 L 512.65,295.05 L 532.37,293.90 L 530.22,290.05 L 533.14,288.38 L 529.94,280.03 L 533.05,278.94 L 534.33,272.05 L 538.65,272.26 L 544.49,277.43 L 560.25,268.42 L 562.58,262.64 L 573.88,273.65 L 562.75,283.43 L 562.80,287.56 L 567.07,288.35 L 569.82,293.73 L 579.26,292.28 L 571.05,297.29 Z M 571.97,306.46 L 572.14,307.82 L 568.69,309.89 L 566.36,305.59 L 571.97,306.46 Z" fill="#C8D8E8" stroke="#8BAABB" stroke-width="0.8"/>
<path d="M 307.04,454.45 L 303.93,451.59 L 306.58,445.87 L 304.40,437.15 L 304.93,426.74 L 281.87,426.71 L 272.82,412.20 L 257.20,405.41 L 253.01,393.36 L 238.69,387.23 L 226.28,389.52 L 222.05,387.83 L 220.64,383.74 L 198.11,377.05 L 193.45,365.51 L 189.32,368.84 L 172.46,366.31 L 166.23,373.26 L 144.75,372.71 L 128.20,384.75 L 126.29,393.58 L 122.53,396.78 L 109.99,401.04 L 101.79,400.37 L 99.30,385.36 L 99.36,356.22 L 103.73,341.64 L 95.85,335.58 L 96.49,329.49 L 94.68,331.03 L 95.35,335.39 L 93.24,329.71 L 92.10,331.29 L 91.94,325.32 L 80.40,325.66 L 80.72,331.80 L 78.58,323.56 L 83.93,313.69 L 82.27,318.91 L 92.10,321.05 L 92.27,318.83 L 96.73,318.80 L 91.14,313.11 L 87.87,314.25 L 86.90,309.79 L 92.29,302.38 L 87.46,300.93 L 84.12,303.42 L 73.78,300.37 L 76.42,309.90 L 68.87,299.18 L 68.82,283.09 L 72.36,276.62 L 73.86,260.68 L 79.61,268.62 L 78.01,269.68 L 79.53,272.45 L 86.56,270.01 L 89.73,273.67 L 93.70,268.07 L 96.39,277.83 L 109.00,273.94 L 115.51,276.04 L 111.21,267.94 L 114.31,266.95 L 117.51,270.95 L 122.13,269.87 L 125.50,265.16 L 123.20,261.21 L 125.71,262.48 L 106.28,245.64 L 101.37,230.06 L 101.60,224.18 L 99.13,221.88 L 80.79,222.66 L 75.08,227.11 L 69.73,238.64 L 73.86,238.69 L 70.97,249.69 L 72.90,261.97 L 69.50,249.76 L 63.93,244.46 L 64.78,239.75 L 60.45,235.90 L 75.60,221.80 L 87.75,216.89 L 107.64,213.93 L 129.62,229.06 L 130.84,234.16 L 145.62,253.90 L 157.71,251.66 L 188.53,254.37 L 192.76,250.12 L 188.79,246.46 L 187.64,230.44 L 198.95,220.42 L 212.07,219.38 L 213.70,210.46 L 216.70,207.87 L 225.36,210.41 L 227.39,215.78 L 230.00,215.42 L 224.83,206.79 L 219.65,203.23 L 223.49,200.79 L 231.23,202.10 L 232.72,196.99 L 241.31,206.08 L 248.36,206.87 L 251.51,213.55 L 268.53,215.17 L 273.07,219.08 L 272.20,226.13 L 269.66,227.77 L 279.36,234.74 L 273.66,235.73 L 276.89,242.02 L 274.29,244.65 L 274.92,249.31 L 285.67,255.94 L 296.38,254.41 L 308.17,257.98 L 312.42,252.64 L 324.88,259.19 L 332.06,279.61 L 338.20,285.12 L 340.99,300.84 L 369.69,323.47 L 376.18,331.38 L 388.54,340.39 L 393.77,339.59 L 429.26,366.97 L 436.89,365.65 L 458.44,377.85 L 454.88,383.95 L 455.66,396.33 L 453.51,400.85 L 444.92,399.09 L 433.67,391.57 L 427.37,403.56 L 414.10,404.46 L 406.96,408.10 L 400.91,427.31 L 400.97,434.65 L 397.71,440.35 L 385.93,446.56 L 385.59,450.53 L 381.24,449.38 L 368.36,455.30 L 359.23,455.85 L 362.32,461.71 L 358.46,464.50 L 358.56,471.50 L 347.73,478.54 L 340.40,477.34 L 336.32,482.56 L 334.85,476.85 L 328.51,471.43 L 317.23,471.74 L 307.84,464.73 L 307.04,454.45 Z M 78.62,335.10 L 79.06,347.65 L 77.32,341.99 L 78.62,335.10 Z M 90.57,316.44 L 91.17,318.81 L 89.98,319.52 L 90.57,316.44 Z" fill="#C8D8E8" stroke="#8BAABB" stroke-width="0.8"/>
<path d="M 601.62,304.80 L 599.05,303.41 L 599.50,302.86 L 602.41,301.57 L 601.62,304.80 Z M 569.82,293.73 L 567.07,288.35 L 562.80,287.56 L 562.75,283.43 L 573.88,273.65 L 570.25,272.42 L 572.15,271.04 L 564.88,262.89 L 562.58,262.64 L 560.25,268.42 L 543.74,277.66 L 538.65,272.26 L 534.33,272.05 L 533.05,278.94 L 529.94,280.03 L 533.14,288.38 L 530.22,290.05 L 532.37,293.90 L 512.65,295.05 L 524.02,297.76 L 518.07,298.20 L 521.04,305.72 L 517.63,301.91 L 518.43,305.60 L 517.15,307.91 L 513.91,306.79 L 510.87,318.04 L 488.46,315.24 L 480.33,320.72 L 478.17,330.30 L 487.06,333.59 L 487.70,338.90 L 499.20,339.28 L 501.20,344.28 L 498.24,346.42 L 497.92,355.82 L 506.35,367.90 L 503.34,377.74 L 499.79,379.26 L 491.59,393.45 L 490.22,406.11 L 482.45,402.64 L 475.62,406.25 L 468.53,398.81 L 454.90,399.57 L 454.88,383.95 L 457.84,376.06 L 436.89,365.65 L 429.26,366.97 L 393.77,339.59 L 388.54,340.39 L 376.18,331.38 L 369.69,323.47 L 340.99,300.84 L 338.20,285.12 L 332.06,279.61 L 324.88,259.19 L 312.42,252.64 L 308.17,257.98 L 296.38,254.41 L 285.67,255.94 L 274.92,249.31 L 274.29,244.65 L 276.89,242.02 L 273.66,235.73 L 279.36,234.74 L 269.66,227.77 L 272.20,226.13 L 273.07,219.08 L 268.53,215.17 L 251.51,213.55 L 248.36,206.87 L 241.31,206.08 L 232.72,196.99 L 231.23,202.10 L 223.49,200.79 L 219.65,203.23 L 224.83,206.79 L 230.00,215.42 L 227.39,215.78 L 225.36,210.41 L 216.70,207.87 L 213.70,210.46 L 212.07,219.38 L 198.95,220.42 L 187.64,230.44 L 188.79,246.46 L 192.76,250.12 L 189.07,254.05 L 159.63,251.85 L 159.56,114.76 L 231.80,93.75 L 301.31,137.58 L 304.82,145.60 L 329.03,171.26 L 362.14,165.78 L 396.28,168.78 L 410.18,162.36 L 426.82,178.11 L 434.61,193.78 L 443.18,189.56 L 440.59,226.43 L 454.47,226.77 L 460.88,257.95 L 494.62,256.37 L 497.33,262.26 L 500.05,262.75 L 496.12,270.91 L 509.31,279.36 L 513.58,278.45 L 512.36,267.08 L 525.26,256.06 L 525.40,249.89 L 535.65,246.13 L 535.41,243.51 L 541.88,238.91 L 549.94,237.25 L 562.42,224.20 L 565.57,223.11 L 568.61,225.92 L 572.96,219.16 L 581.69,215.67 L 587.08,220.55 L 576.08,225.39 L 575.20,229.53 L 570.57,230.73 L 557.06,244.44 L 565.09,248.72 L 571.10,246.26 L 573.98,254.95 L 585.45,259.82 L 586.19,256.81 L 588.14,259.63 L 592.06,259.10 L 592.14,250.89 L 596.81,251.78 L 597.09,245.42 L 599.21,243.42 L 599.23,247.97 L 601.28,246.95 L 604.13,251.10 L 604.82,256.59 L 612.85,256.84 L 613.04,263.88 L 617.73,261.14 L 626.86,268.81 L 640.44,270.06 L 630.38,276.18 L 625.94,282.13 L 618.27,278.71 L 619.46,286.64 L 613.06,284.22 L 607.20,289.40 L 608.95,292.22 L 603.84,291.88 L 600.21,295.80 L 598.01,291.52 L 595.01,293.58 L 587.52,289.07 L 569.82,293.73 Z M 568.12,264.06 L 570.46,266.27 L 569.67,264.10 L 568.12,264.06 Z M 587.24,299.44 L 585.30,301.40 L 586.24,305.33 L 581.02,305.63 L 581.69,301.48 L 579.12,297.61 L 580.65,295.29 L 587.24,299.44 Z" fill="#4A90D9" stroke="#1a5fa8" stroke-width="1.2"/>
<path d="M 777.69,65.10 L 771.21,60.85 L 768.47,63.21 L 760.01,58.33 L 746.02,60.13 L 728.34,55.60 L 707.51,59.65 L 708.84,57.97 L 705.64,53.82 L 708.84,52.74 L 706.22,52.00 L 703.70,53.85 L 704.62,59.36 L 700.25,57.47 L 698.82,61.59 L 694.82,60.89 L 696.17,58.61 L 692.91,62.70 L 689.94,61.72 L 685.81,73.69 L 679.04,77.62 L 670.92,77.65 L 673.52,85.09 L 670.90,87.24 L 673.94,89.30 L 671.43,89.05 L 671.62,91.85 L 666.45,95.10 L 666.48,101.49 L 669.14,102.65 L 669.31,111.29 L 666.40,112.95 L 668.25,115.89 L 664.49,114.62 L 664.53,106.49 L 661.53,106.31 L 654.23,95.83 L 648.34,91.87 L 652.10,86.55 L 648.57,84.18 L 652.51,84.31 L 654.74,77.91 L 657.61,78.04 L 654.37,74.49 L 655.16,70.53 L 664.49,70.12 L 665.34,69.46 L 665.85,68.59 L 662.78,66.04 L 666.40,61.71 L 679.41,54.93 L 681.57,48.39 L 689.27,46.57 L 691.98,46.06 L 692.42,48.40 L 694.83,45.50 L 700.46,50.30 L 718.35,46.04 L 719.04,48.64 L 730.63,49.64 L 731.40,53.10 L 734.76,54.25 L 740.70,51.69 L 746.67,56.31 L 744.00,51.43 L 752.63,56.79 L 766.26,52.21 L 773.51,52.67 L 780.66,54.57 L 784.71,59.60 L 784.71,63.77 L 777.69,65.10 Z" fill="#A8C8E8" stroke="none"/>
<path d="M 325.74,70.88 L 318.37,71.72 L 322.56,74.55 L 319.40,79.00 L 316.01,73.43 L 318.26,69.80 L 326.94,67.54 L 325.74,70.88 Z" fill="#A8C8E8" stroke="none"/>
<path d="M 630.18,235.67 L 626.50,239.03 L 624.96,237.67 L 629.20,234.58 L 624.96,229.47 L 644.64,234.71 L 630.18,235.67 Z" fill="#A8C8E8" stroke="none"/>
<path d="M 504.03,263.25 L 497.32,262.25 L 493.91,254.82 L 508.65,259.17 L 504.03,263.25 Z" fill="#A8C8E8" stroke="none"/>
<path d="M 561.51,289.42 L 557.53,291.27 L 547.41,291.28 L 562.85,285.80 L 561.51,289.42 Z" fill="#A8C8E8" stroke="none"/>
<path d="M 752.44,159.13 L 751.66,156.70 L 758.37,153.76 L 781.41,156.83 L 776.80,160.00 L 752.44,159.13 Z" fill="#A8C8E8" stroke="none"/>
<path d="M 784.71,204.17 L 784.71,204.72 L 771.71,210.30 L 774.10,212.57 L 761.95,220.48 L 746.67,220.29 L 731.58,213.63 L 728.04,214.64 L 725.95,210.11 L 770.45,199.55 L 784.71,198.81 L 784.71,199.05 L 778.78,203.28 L 784.71,204.17 Z" fill="#A8C8E8" stroke="none"/>
<path d="M 212.16,238.37 L 198.11,243.68 L 192.08,234.12 L 190.34,238.94 L 189.18,236.25 L 193.77,217.55 L 198.46,213.64 L 205.44,217.57 L 204.99,223.92 L 208.60,226.20 L 207.30,230.14 L 212.48,232.98 L 212.16,238.37 Z" fill="#A8C8E8" stroke="none"/>
<path d="M 493.70,270.78 L 481.95,273.97 L 485.36,282.62 L 477.50,276.22 L 477.38,272.59 L 443.56,263.72 L 467.93,263.80 L 475.85,265.84 L 479.80,268.57 L 478.80,270.56 L 483.48,270.54 L 497.32,262.25 L 493.70,270.78 Z" fill="#A8C8E8" stroke="none"/>
<path d="M 231.64,99.33 L 236.19,83.38 L 252.75,77.13 L 251.10,81.24 L 241.86,84.88 L 240.61,92.30 L 235.08,97.39 L 235.37,109.70 L 231.57,114.26 L 233.75,121.34 L 229.79,133.05 L 226.46,136.02 L 222.84,134.67 L 225.25,129.37 L 222.45,120.27 L 231.64,99.33 Z" fill="#A8C8E8" stroke="none"/>
<path d="M 260.84,69.42 L 258.39,65.32 L 266.24,66.61 L 267.05,72.60 L 264.68,74.13 L 260.84,69.42 Z" fill="#A8C8E8" stroke="none"/>
<path d="M 295.38,69.72 L 292.51,63.25 L 288.51,66.28 L 282.04,62.18 L 276.02,63.91 L 271.95,60.88 L 272.32,55.87 L 280.31,51.09 L 283.79,59.21 L 285.14,53.80 L 288.53,56.20 L 293.72,53.24 L 287.00,49.20 L 288.53,47.96 L 294.99,49.33 L 294.02,55.52 L 297.28,59.56 L 304.04,60.44 L 307.77,58.57 L 306.08,55.57 L 309.11,53.04 L 315.09,51.95 L 308.12,59.31 L 306.37,68.38 L 294.21,74.01 L 295.38,69.72 Z" fill="#A8C8E8" stroke="none"/>
<path d="M 271.77,74.97 L 273.02,76.58 L 271.16,79.34 L 270.26,76.44 L 266.93,76.57 L 271.77,74.97 Z" fill="#A8C8E8" stroke="none"/>
</svg>