<svg xmlns="http://www.w3.org/2000/svg" width="800" height="500" viewBox="0 0 800 500">
<rect width="800" height="500" fill="#A8C8E8"/>
<path d="M 586.07,134.19 L 586.07,423.84 L 585.39,424.02 L 582.32,403.36 L 547.50,351.71 L 526.81,358.86 L 496.79,344.94 L 468.74,355.60 L 451.17,328.75 L 421.13,321.22 L 375.05,276.10 L 349.62,235.98 L 327.20,229.56 L 307.51,191.25 L 274.77,171.32 L 243.36,173.76 L 252.88,159.85 L 249.39,146.77 L 224.41,118.80 L 213.93,114.73 L 213.93,0.00 L 538.31,0.00 L 586.07,134.19 Z M 400.06,250.09 L 400.05,249.92 L 399.94,249.91 L 400.06,250.09 Z M 562.30,435.63 L 563.89,428.27 L 575.87,432.54 L 562.30,435.63 Z M 223.96,183.23 L 222.05,185.09 L 214.90,177.66 L 223.96,183.23 Z M 512.88,422.36 L 513.79,422.17 L 511.78,424.60 L 512.88,422.36 Z" fill="#C8D8E8" stroke="#8BAABB" stroke-width="0.8"/>
<path d="M 399.94,249.91 L 400.05,249.92 L 400.06,250.09 L 399.94,249.91 Z" fill="#4A90D9" stroke="#1a5fa8" stroke-width="1.2"/>
<path d="M 345.53,149.85 L 330.92,142.27 L 334.92,134.49 L 344.58,134.91 L 345.53,149.85 Z" fill="#A8C8E8" stroke="none"/>
</svg>