<svg xmlns="http://www.w3.org/2000/svg" width="800" height="500" viewBox="0 0 800 500">
<rect width="800" height="500" fill="#A8C8E8"/>
<path d="M 800.00,134.19 L 800.00,423.84 L 798.54,424.02 L 791.95,403.36 L 717.08,351.71 L 672.61,358.86 L 608.07,344.94 L 547.77,355.60 L 510.01,328.75 L 445.43,321.22 L 346.37,276.10 L 291.71,235.98 L 243.49,229.56 L 201.17,191.25 L 130.78,171.32 L 63.27,173.76 L 83.73,159.85 L 76.23,146.77 L 22.52,118.80 L 0.00,114.73 L 0.00,0.00 L 697.34,0.00 L 800.00,134.19 Z M 400.13,250.09 L 400.11,249.92 L 399.87,249.91 L 400.13,250.09 Z M 748.90,435.63 L 752.32,428.27 L 778.07,432.54 L 748.90,435.63 Z M 21.56,183.23 L 17.45,185.09 L 2.07,177.66 L 21.56,183.23 Z M 642.66,422.36 L 644.61,422.17 L 640.30,424.60 L 642.66,422.36 Z" fill="#C8D8E8" stroke="#8BAABB" stroke-width="0.8"/>
<path d="M 399.87,249.91 L 400.11,249.92 L 400.13,250.09 L 399.87,249.91 Z" fill="#4A90D9" stroke="#1a5fa8" stroke-width="1.2"/>
<path d="M 282.91,149.85 L 251.49,142.27 L 260.10,134.49 L 280.85,134.91 L 282.91,149.85 Z" fill="#A8C8E8" stroke="none"/>
</svg>