<svg xmlns="http://www.w3.org/2000/svg" width="800" height="500" viewBox="0 0 800 500">
<rect width="800" height="500" fill="#A8C8E8"/>
<path d="M 463.85,27.37 L 464.16,16.76 L 433.55,18.21 L 428.02,10.42 L 444.75,2.85 L 440.29,0.00 L 461.53,0.00 L 473.01,18.95 L 463.85,27.37 Z" fill="#E8E0D0" stroke="#B8B0A0" stroke-width="0.5"/>
<path d="M 347.98,396.75 L 323.78,402.33 L 341.91,366.75 L 350.82,370.13 L 347.98,396.75 Z M 368.59,334.83 L 378.97,320.86 L 379.95,323.42 L 368.59,334.83 Z" fill="#E8E0D0" stroke="#B8B0A0" stroke-width="0.5"/>
<path d="M 460.56,117.20 L 450.98,135.72 L 432.19,109.92 L 454.27,73.65 L 460.56,117.20 Z" fill="#E8E0D0" stroke="#B8B0A0" stroke-width="0.5"/>
<path d="M 407.23,251.32 L 401.94,249.19 L 413.47,239.39 L 407.23,251.32 Z M 401.61,213.65 L 415.65,187.94 L 425.27,199.22 L 418.66,224.56 L 401.61,213.65 Z M 379.19,311.16 L 374.73,312.06 L 374.78,308.78 L 379.19,311.16 Z M 394.15,294.35 L 390.38,294.81 L 393.08,290.01 L 394.15,294.35 Z M 416.25,265.59 L 417.50,265.86 L 415.58,269.82 L 416.25,265.59 Z" fill="#4A90D9" stroke="#1a5fa8" stroke-width="1.2"/>
</svg>