<svg xmlns="http://www.w3.org/2000/svg" width="800" height="500" viewBox="0 0 800 500">
<rect width="800" height="500" fill="#A8C8E8"/>
<path d="M 504.83,27.37 L 505.35,16.76 L 455.09,18.21 L 446.02,10.42 L 473.48,2.85 L 466.16,0.00 L 501.03,0.00 L 519.88,18.95 L 504.83,27.37 Z" fill="#E8E0D0" stroke="#B8B0A0" stroke-width="0.5"/>
<path d="M 314.59,396.75 L 274.85,402.33 L 304.62,366.75 L 319.25,370.13 L 314.59,396.75 Z M 348.42,334.83 L 365.47,320.86 L 367.08,323.42 L 348.42,334.83 Z" fill="#E8E0D0" stroke="#B8B0A0" stroke-width="0.5"/>
<path d="M 499.43,117.20 L 483.71,135.72 L 452.85,109.92 L 489.12,73.65 L 499.43,117.20 Z" fill="#E8E0D0" stroke="#B8B0A0" stroke-width="0.5"/>
<path d="M 411.88,251.32 L 403.18,249.19 L 422.11,239.39 L 411.88,251.32 Z M 402.64,213.65 L 425.70,187.94 L 441.50,199.22 L 430.64,224.56 L 402.64,213.65 Z M 365.83,311.16 L 358.50,312.06 L 358.59,308.78 L 365.83,311.16 Z M 390.39,294.35 L 384.21,294.81 L 388.64,290.01 L 390.39,294.35 Z M 426.69,265.59 L 428.74,265.86 L 425.58,269.82 L 426.69,265.59 Z" fill="#4A90D9" stroke="#1a5fa8" stroke-width="1.2"/>
</svg>