<svg xmlns="http://www.w3.org/2000/svg" width="800" height="500" viewBox="0 0 800 500">
<rect width="800" height="500" fill="#A8C8E8"/>
<path d="M 194.17,472.42 L 205.15,463.93 L 215.80,451.65 L 219.10,438.91 L 222.90,439.73 L 221.47,435.24 L 222.22,431.02 L 214.47,422.05 L 220.50,422.83 L 223.33,420.34 L 228.94,424.08 L 231.18,423.27 L 231.88,426.22 L 234.93,426.79 L 239.54,431.00 L 242.64,439.92 L 246.55,440.30 L 251.06,444.86 L 255.60,445.79 L 258.46,450.42 L 257.77,454.48 L 261.47,456.91 L 264.71,456.87 L 266.40,462.78 L 264.61,465.69 L 270.01,470.09 L 274.15,468.89 L 274.59,470.02 L 275.99,468.19 L 281.46,470.61 L 285.60,469.78 L 290.28,467.99 L 294.45,464.00 L 298.72,465.89 L 299.54,467.80 L 300.40,466.55 L 301.13,469.06 L 309.93,465.36 L 315.81,468.07 L 317.02,470.61 L 318.44,469.67 L 322.98,471.37 L 322.84,472.83 L 324.70,472.60 L 327.24,475.15 L 328.16,474.24 L 329.30,476.09 L 315.24,498.26 L 319.60,500.00 L 177.03,500.00 L 177.03,478.73 L 194.17,472.42 Z M 323.94,499.24 L 324.62,500.00 L 321.18,500.00 L 323.94,499.24 Z" fill="#E8E0D0" stroke="#B8B0A0" stroke-width="0.5"/>
<path d="M 517.95,120.58 L 518.00,119.18 L 513.86,119.37 L 513.12,118.33 L 515.38,117.33 L 512.02,115.21 L 510.78,111.48 L 517.78,112.92 L 516.58,115.22 L 519.19,119.47 L 517.95,120.58 Z M 509.65,90.15 L 508.47,88.95 L 509.78,87.34 L 511.31,88.94 L 509.65,90.15 Z M 513.88,81.26 L 513.41,81.19 L 514.49,80.38 L 513.88,81.26 Z M 503.66,86.84 L 501.01,88.59 L 498.91,81.05 L 500.13,79.95 L 503.96,81.60 L 503.66,86.84 Z M 505.79,76.88 L 507.78,80.29 L 511.93,82.28 L 505.80,83.33 L 504.11,81.61 L 505.79,76.88 Z M 502.63,90.44 L 502.40,90.71 L 502.18,90.58 L 502.63,90.44 Z M 503.33,90.40 L 503.05,90.38 L 503.38,90.01 L 503.33,90.40 Z" fill="#E8E0D0" stroke="#B8B0A0" stroke-width="0.5"/>
<path d="M 618.65,367.20 L 615.04,372.89 L 619.73,377.16 L 619.00,381.25 L 604.12,377.82 L 595.65,362.14 L 593.34,360.64 L 591.16,349.24 L 587.71,350.41 L 584.14,349.43 L 584.26,346.72 L 580.45,343.69 L 576.29,336.94 L 575.59,333.11 L 580.29,323.17 L 578.62,319.45 L 583.38,315.79 L 591.74,315.38 L 591.56,312.37 L 593.70,312.12 L 590.67,309.11 L 594.14,304.35 L 595.40,297.52 L 598.39,294.92 L 619.37,299.21 L 620.15,301.87 L 619.06,297.62 L 621.25,295.66 L 622.97,295.70 L 622.97,369.56 L 618.65,367.20 Z" fill="#E8E0D0" stroke="#B8B0A0" stroke-width="0.5"/>
<path d="M 471.99,44.62 L 471.17,44.55 L 473.83,43.47 L 473.83,45.32 L 471.99,44.62 Z" fill="#E8E0D0" stroke="#B8B0A0" stroke-width="0.5"/>
<path d="M 472.43,44.79 L 473.83,45.32 L 472.19,45.26 L 472.43,44.79 Z" fill="#E8E0D0" stroke="#B8B0A0" stroke-width="0.5"/>
<path d="M 367.22,168.13 L 366.21,170.09 L 365.22,166.37 L 362.86,165.25 L 363.69,164.15 L 367.09,165.85 L 367.22,168.13 Z M 475.32,56.69 L 475.04,57.13 L 474.58,57.06 L 474.25,55.86 L 475.32,56.69 Z M 469.59,53.71 L 469.29,54.01 L 469.03,53.82 L 469.59,53.71 Z" fill="#E8E0D0" stroke="#B8B0A0" stroke-width="0.5"/>
<path d="M 295.32,16.64 L 293.82,18.45 L 296.55,22.08 L 292.00,25.99 L 294.71,27.68 L 294.98,30.12 L 292.49,33.18 L 289.03,33.58 L 291.03,37.07 L 295.20,39.50 L 293.83,45.19 L 287.75,41.08 L 271.02,43.07 L 260.92,40.65 L 255.11,41.64 L 255.40,40.64 L 251.67,43.06 L 252.36,45.41 L 250.73,45.47 L 245.97,40.87 L 240.48,39.81 L 238.07,37.09 L 239.53,33.19 L 242.87,32.09 L 252.17,34.81 L 256.63,33.98 L 253.99,34.66 L 255.27,35.60 L 270.65,36.99 L 274.51,36.92 L 276.97,34.36 L 281.96,35.00 L 282.44,31.82 L 277.94,29.70 L 272.51,24.15 L 274.70,22.78 L 272.72,20.43 L 274.56,19.15 L 273.34,17.43 L 274.86,15.99 L 268.63,12.72 L 260.26,12.04 L 259.06,10.20 L 261.17,8.20 L 260.04,8.20 L 265.24,5.78 L 273.28,5.65 L 281.32,8.42 L 282.37,10.33 L 284.74,8.91 L 292.90,11.61 L 292.43,10.48 L 294.21,10.50 L 295.32,16.64 Z M 256.80,44.62 L 254.13,44.05 L 254.29,43.76 L 256.80,44.62 Z M 253.47,32.79 L 253.99,33.52 L 252.86,33.79 L 253.47,32.79 Z M 272.74,2.67 L 276.33,4.31 L 269.49,3.21 L 272.74,2.67 Z M 262.59,26.56 L 264.55,25.90 L 271.84,28.84 L 272.61,31.05 L 262.59,26.56 Z" fill="#E8E0D0" stroke="#B8B0A0" stroke-width="0.5"/>
<path d="M 296.19,6.69 L 306.24,7.93 L 309.76,5.78 L 317.51,9.33 L 321.42,9.15 L 324.56,11.71 L 331.42,11.16 L 335.11,19.02 L 343.99,19.15 L 346.13,17.70 L 345.81,19.03 L 347.51,18.87 L 345.67,21.44 L 338.20,20.57 L 338.38,23.31 L 356.23,25.99 L 364.57,34.02 L 362.07,38.58 L 359.33,38.07 L 358.14,41.55 L 356.17,41.76 L 352.48,37.45 L 333.38,36.20 L 329.99,37.47 L 326.80,41.20 L 318.97,41.77 L 318.42,38.00 L 315.87,37.08 L 311.17,40.58 L 308.05,39.69 L 308.52,43.06 L 301.21,54.21 L 298.86,51.09 L 295.82,50.88 L 296.24,46.98 L 293.83,45.19 L 295.20,39.50 L 291.03,37.07 L 289.03,33.58 L 292.49,33.18 L 294.98,30.12 L 294.71,27.68 L 292.00,25.99 L 296.55,22.08 L 293.82,18.45 L 295.32,16.64 L 294.21,10.50 L 296.19,6.69 Z M 298.65,54.81 L 299.07,53.87 L 300.18,54.72 L 298.65,54.81 Z M 359.68,43.77 L 355.26,41.93 L 355.93,41.90 L 359.68,43.77 Z" fill="#E8E0D0" stroke="#B8B0A0" stroke-width="0.5"/>
<path d="M 224.18,6.62 L 224.76,5.07 L 225.62,5.07 L 225.62,6.62 L 224.18,6.62 Z M 224.35,5.75 L 222.79,6.56 L 222.87,5.78 L 224.35,5.75 Z" fill="#E8E0D0" stroke="#B8B0A0" stroke-width="0.5"/>
<path d="M 225.68,3.21 L 221.73,6.80 L 202.87,4.64 L 177.03,7.46 L 177.03,1.08 L 178.85,-0.00 L 244.86,-0.00 L 242.63,3.07 L 231.42,3.71 L 225.62,6.62 L 225.68,3.21 Z" fill="#E8E0D0" stroke="#B8B0A0" stroke-width="0.5"/>
<path d="M 178.30,411.68 L 195.40,415.25 L 198.64,414.45 L 198.47,411.39 L 200.85,410.15 L 205.92,412.18 L 210.77,417.65 L 221.75,421.95 L 214.36,422.41 L 222.22,431.02 L 221.47,435.24 L 222.90,439.87 L 219.22,438.73 L 215.80,451.65 L 205.15,463.93 L 192.95,473.17 L 177.03,478.83 L 177.03,406.90 L 178.30,411.68 Z" fill="#E8E0D0" stroke="#B8B0A0" stroke-width="0.5"/>
<path d="M 178.80,239.83 L 177.03,242.79 L 177.03,239.31 L 178.80,239.83 Z M 183.12,254.89 L 180.30,255.66 L 178.66,258.32 L 179.49,259.71 L 177.03,261.56 L 177.03,244.80 L 183.12,254.89 Z" fill="#E8E0D0" stroke="#B8B0A0" stroke-width="0.5"/>
<path d="M 356.23,169.48 L 351.34,168.00 L 347.47,162.53 L 356.23,169.48 Z" fill="#E8E0D0" stroke="#B8B0A0" stroke-width="0.5"/>
<path d="M 331.88,159.80 L 332.63,161.91 L 329.14,159.43 L 329.08,157.60 L 331.88,159.80 Z" fill="#E8E0D0" stroke="#B8B0A0" stroke-width="0.5"/>
<path d="M 515.38,209.24 L 496.21,210.94 L 505.80,206.25 L 505.25,199.01 L 501.57,197.43 L 517.20,194.73 L 515.25,197.59 L 515.38,209.24 Z M 524.89,185.81 L 518.43,187.94 L 521.84,185.19 L 524.94,184.06 L 524.89,185.81 Z" fill="#E8E0D0" stroke="#B8B0A0" stroke-width="0.5"/>
<path d="M 502.31,169.67 L 499.05,170.41 L 501.50,165.68 L 502.70,166.13 L 502.31,169.67 Z M 505.10,161.44 L 506.50,159.58 L 506.63,159.92 L 505.10,161.44 Z" fill="#E8E0D0" stroke="#B8B0A0" stroke-width="0.5"/>
<path d="M 510.31,150.34 L 509.60,150.06 L 511.15,148.76 L 510.31,150.34 Z M 509.55,145.34 L 511.45,141.92 L 512.75,143.42 L 511.86,146.79 L 509.55,145.34 Z M 506.53,158.29 L 505.92,158.41 L 505.93,157.98 L 506.53,158.29 Z M 508.55,156.06 L 508.04,156.12 L 508.40,155.48 L 508.55,156.06 Z M 511.53,152.24 L 511.70,152.28 L 511.44,152.80 L 511.53,152.24 Z" fill="#E8E0D0" stroke="#B8B0A0" stroke-width="0.5"/>
<path d="M 545.94,148.63 L 543.62,147.87 L 543.14,143.10 L 547.62,146.49 L 545.94,148.63 Z" fill="#E8E0D0" stroke="#B8B0A0" stroke-width="0.5"/>
<path d="M 517.51,132.52 L 516.22,134.98 L 513.68,131.55 L 516.66,126.74 L 517.51,132.52 Z" fill="#E8E0D0" stroke="#B8B0A0" stroke-width="0.5"/>
<path d="M 505.25,97.17 L 505.66,95.14 L 508.97,96.27 L 510.00,98.48 L 510.02,102.37 L 507.84,104.11 L 505.25,97.17 Z" fill="#E8E0D0" stroke="#B8B0A0" stroke-width="0.5"/>
<path d="M 227.43,37.39 L 227.51,37.75 L 227.21,37.77 L 227.43,37.39 Z" fill="#E8E0D0" stroke="#B8B0A0" stroke-width="0.5"/>
<path d="M 490.25,73.23 L 490.59,70.52 L 491.15,70.65 L 490.25,73.23 Z" fill="#E8E0D0" stroke="#B8B0A0" stroke-width="0.5"/>
<path d="M 498.33,63.27 L 501.57,65.12 L 500.15,66.99 L 497.14,65.75 L 498.33,63.27 Z M 497.34,52.42 L 498.21,54.03 L 498.08,51.66 L 500.34,54.55 L 498.05,54.45 L 497.34,52.42 Z M 487.69,68.12 L 487.61,68.18 L 487.59,68.15 L 487.69,68.12 Z" fill="#E8E0D0" stroke="#B8B0A0" stroke-width="0.5"/>
<path d="M 483.51,62.96 L 483.49,64.60 L 482.16,64.61 L 482.43,62.56 L 483.51,62.96 Z M 481.45,62.26 L 477.21,58.58 L 479.95,59.33 L 481.45,62.26 Z" fill="#E8E0D0" stroke="#B8B0A0" stroke-width="0.5"/>
<path d="M 439.86,51.88 L 435.24,52.60 L 435.63,50.66 L 442.14,51.17 L 439.86,51.88 Z M 439.17,39.71 L 437.17,39.19 L 438.29,38.25 L 440.07,39.02 L 439.17,39.71 Z M 435.58,39.69 L 432.24,38.67 L 434.12,37.98 L 435.58,39.69 Z" fill="#E8E0D0" stroke="#B8B0A0" stroke-width="0.5"/>
<path d="M 476.94,47.48 L 478.47,47.76 L 478.09,48.25 L 476.94,47.48 Z" fill="#E8E0D0" stroke="#B8B0A0" stroke-width="0.5"/>
<path d="M 374.04,44.90 L 372.71,44.05 L 373.08,43.63 L 374.40,43.63 L 374.04,44.90 Z M 423.14,44.20 L 421.16,43.47 L 427.42,43.16 L 423.14,44.20 Z M 427.08,39.78 L 426.22,38.94 L 427.81,39.28 L 427.08,39.78 Z M 420.69,41.54 L 417.93,42.22 L 413.79,46.62 L 408.34,47.61 L 396.63,45.96 L 388.20,47.36 L 388.87,41.79 L 386.42,38.50 L 389.90,35.15 L 404.68,35.81 L 420.32,37.93 L 420.69,41.54 Z" fill="#E8E0D0" stroke="#B8B0A0" stroke-width="0.5"/>
<path d="M 474.18,41.29 L 470.74,42.49 L 473.41,40.45 L 474.18,41.29 Z M 465.38,33.53 L 465.49,33.55 L 465.40,33.70 L 465.38,33.53 Z M 475.27,39.84 L 475.72,39.99 L 475.08,40.31 L 475.27,39.84 Z M 468.79,40.15 L 469.34,40.13 L 469.01,40.34 L 468.79,40.15 Z M 470.50,40.48 L 470.24,40.43 L 470.29,40.42 L 470.50,40.48 Z M 470.72,40.50 L 470.73,40.57 L 470.61,40.57 L 470.72,40.50 Z" fill="#E8E0D0" stroke="#B8B0A0" stroke-width="0.5"/>
<path d="M 438.96,37.99 L 440.45,36.64 L 443.02,36.89 L 438.96,37.99 Z M 445.25,36.53 L 444.53,36.81 L 445.10,35.38 L 446.94,35.38 L 445.25,36.53 Z M 445.82,30.93 L 445.24,30.55 L 447.06,30.52 L 448.08,31.46 L 445.82,30.93 Z M 441.91,39.06 L 441.25,38.63 L 441.75,38.52 L 441.91,39.06 Z M 438.63,36.92 L 437.73,36.83 L 437.85,36.67 L 438.63,36.92 Z M 442.77,36.12 L 442.61,36.41 L 442.55,35.98 L 442.77,36.12 Z" fill="#E8E0D0" stroke="#B8B0A0" stroke-width="0.5"/>
<path d="M 203.16,47.76 L 199.56,48.90 L 194.64,48.76 L 189.56,46.17 L 187.66,49.46 L 183.56,48.48 L 182.02,50.74 L 183.58,50.88 L 182.79,52.15 L 177.89,48.88 L 177.03,48.90 L 177.03,36.11 L 180.87,36.47 L 188.63,37.51 L 190.94,40.24 L 199.81,42.77 L 203.16,47.76 Z" fill="#E8E0D0" stroke="#B8B0A0" stroke-width="0.5"/>
<path d="M 342.67,444.29 L 337.97,434.96 L 338.15,430.62 L 328.93,423.06 L 329.22,407.52 L 341.06,404.52 L 344.78,406.90 L 348.06,406.23 L 347.75,401.71 L 344.95,398.17 L 333.37,397.74 L 333.29,384.28 L 339.75,382.93 L 368.08,383.99 L 365.68,381.75 L 367.49,377.90 L 372.90,383.58 L 383.26,375.34 L 389.58,384.23 L 390.22,395.31 L 394.55,394.35 L 406.68,404.25 L 409.78,404.55 L 417.77,399.51 L 420.84,399.31 L 422.46,401.82 L 421.06,405.37 L 422.86,406.05 L 426.36,400.83 L 428.92,400.55 L 430.28,396.33 L 436.39,393.35 L 438.62,393.83 L 445.23,388.43 L 446.39,391.37 L 451.73,386.04 L 452.89,379.72 L 465.73,375.11 L 466.53,372.67 L 466.28,369.47 L 452.65,368.42 L 453.69,363.36 L 449.06,354.87 L 449.47,345.10 L 440.43,337.24 L 436.93,332.31 L 437.37,330.78 L 441.52,334.21 L 450.63,334.39 L 452.87,339.12 L 460.39,337.80 L 463.70,339.70 L 466.96,337.54 L 476.46,345.80 L 479.34,343.73 L 479.00,336.25 L 483.21,335.90 L 485.95,332.88 L 491.59,334.81 L 497.04,333.56 L 499.75,331.57 L 503.95,331.39 L 504.98,328.34 L 509.27,327.38 L 508.81,325.87 L 515.76,325.57 L 517.44,321.97 L 521.09,320.40 L 523.68,316.96 L 520.64,311.72 L 526.62,312.30 L 531.46,310.37 L 536.19,314.14 L 535.18,321.62 L 532.56,325.72 L 542.28,328.77 L 541.22,332.47 L 545.55,337.94 L 542.29,343.11 L 538.66,345.37 L 539.51,350.04 L 535.97,360.41 L 537.62,370.34 L 541.15,372.73 L 540.80,381.07 L 543.11,381.53 L 542.40,383.24 L 545.49,384.37 L 551.06,390.92 L 557.09,392.53 L 559.81,395.11 L 562.61,393.13 L 566.28,393.42 L 566.39,389.86 L 570.36,386.49 L 576.39,388.24 L 577.26,385.31 L 585.97,384.25 L 590.94,378.68 L 595.35,377.76 L 597.27,379.90 L 601.48,380.83 L 608.15,379.42 L 619.00,381.25 L 619.73,377.16 L 615.04,372.89 L 618.65,367.20 L 622.97,369.56 L 622.97,500.00 L 332.52,500.00 L 342.67,444.29 Z" fill="#C8D8E8" stroke="#8BAABB" stroke-width="0.8"/>
<path d="M 177.07,350.05 L 179.92,350.80 L 179.63,346.82 L 181.04,347.67 L 179.86,346.07 L 184.04,343.37 L 182.35,342.01 L 183.89,342.21 L 183.38,340.55 L 185.82,338.43 L 181.27,339.99 L 180.30,337.32 L 182.16,337.15 L 182.58,335.28 L 181.04,334.43 L 179.36,338.15 L 177.53,336.07 L 177.70,332.94 L 180.33,332.46 L 181.62,331.17 L 178.51,329.47 L 180.05,326.89 L 179.78,321.06 L 181.17,322.06 L 179.31,318.95 L 178.64,307.55 L 177.03,306.64 L 177.03,303.94 L 181.42,300.68 L 177.03,292.23 L 177.03,289.45 L 177.94,290.19 L 178.64,288.92 L 179.37,283.40 L 178.02,280.75 L 177.03,280.99 L 177.03,261.56 L 179.49,259.71 L 178.66,258.32 L 180.30,255.66 L 183.12,254.89 L 177.03,244.80 L 177.03,242.07 L 177.55,240.59 L 179.25,239.74 L 180.83,243.34 L 187.25,248.10 L 187.65,250.96 L 189.92,250.80 L 188.38,255.10 L 191.46,255.22 L 191.10,244.98 L 187.56,242.31 L 200.54,233.96 L 203.57,227.74 L 208.18,223.72 L 210.89,224.74 L 214.82,223.47 L 215.73,219.97 L 213.08,218.32 L 216.67,207.11 L 213.12,209.32 L 216.98,205.48 L 216.81,203.98 L 215.69,203.84 L 217.24,201.98 L 217.44,203.08 L 217.52,201.70 L 216.90,200.14 L 222.45,197.43 L 222.08,195.60 L 230.77,189.07 L 242.01,191.52 L 238.02,191.77 L 238.23,194.44 L 235.86,194.09 L 235.83,195.87 L 236.53,194.86 L 236.95,196.29 L 237.86,196.23 L 237.65,194.57 L 240.01,196.55 L 244.97,184.21 L 262.67,185.24 L 273.99,176.65 L 283.82,172.95 L 286.38,165.27 L 289.85,165.29 L 288.92,166.56 L 290.51,167.13 L 291.88,165.27 L 290.04,164.71 L 294.73,162.07 L 295.53,163.00 L 296.81,161.71 L 294.56,161.86 L 295.90,160.86 L 304.40,163.49 L 307.44,168.62 L 306.94,170.25 L 301.36,174.48 L 289.42,177.87 L 283.74,188.13 L 278.97,188.84 L 275.19,194.34 L 270.43,203.12 L 268.98,216.01 L 260.64,229.28 L 264.32,229.27 L 268.48,226.74 L 269.60,230.71 L 272.97,230.50 L 275.35,240.11 L 281.14,246.25 L 282.33,251.48 L 279.13,254.93 L 279.39,264.34 L 284.99,266.47 L 287.21,272.59 L 289.36,274.13 L 297.03,273.31 L 306.00,275.17 L 315.88,272.32 L 323.77,275.68 L 327.68,274.96 L 341.77,292.62 L 344.07,291.91 L 345.83,293.48 L 349.63,290.63 L 358.38,292.34 L 371.89,290.63 L 374.99,288.65 L 382.74,291.05 L 381.89,292.78 L 383.30,295.61 L 379.14,299.63 L 379.31,304.67 L 374.83,308.87 L 375.69,314.60 L 374.00,325.62 L 379.00,341.63 L 381.71,342.54 L 385.63,349.47 L 374.75,359.81 L 374.40,361.81 L 379.11,361.32 L 380.16,363.86 L 388.09,370.02 L 387.52,372.68 L 394.38,391.70 L 394.55,394.35 L 390.22,395.31 L 389.58,384.23 L 383.26,375.34 L 372.90,383.58 L 367.49,377.90 L 365.68,381.75 L 368.08,383.99 L 339.75,382.93 L 333.29,384.28 L 333.37,397.74 L 344.95,398.17 L 347.75,401.71 L 348.06,406.23 L 344.78,406.90 L 341.06,404.52 L 329.22,407.52 L 328.93,423.06 L 338.15,430.62 L 337.97,434.96 L 342.67,444.29 L 332.46,500.00 L 324.58,500.00 L 323.94,499.24 L 321.18,500.00 L 319.60,500.00 L 315.24,498.26 L 329.29,476.10 L 328.16,474.24 L 327.24,475.15 L 318.44,469.67 L 317.02,470.61 L 311.74,465.64 L 301.13,469.06 L 300.40,466.55 L 299.54,467.80 L 298.72,465.89 L 294.45,464.00 L 290.28,467.99 L 285.60,469.78 L 281.46,470.61 L 275.99,468.19 L 274.59,470.02 L 274.15,468.89 L 270.01,470.09 L 264.61,465.69 L 266.40,462.78 L 264.71,456.87 L 261.47,456.91 L 257.77,454.48 L 258.46,450.42 L 255.60,445.79 L 251.06,444.86 L 246.55,440.30 L 242.64,439.92 L 239.54,431.00 L 234.93,426.79 L 231.88,426.22 L 231.18,423.27 L 228.94,424.08 L 224.66,420.63 L 221.75,421.95 L 214.69,418.09 L 211.35,417.98 L 205.92,412.18 L 200.85,410.15 L 198.47,411.39 L 198.64,414.45 L 195.40,415.25 L 178.30,411.68 L 177.03,406.90 L 177.03,350.10 L 177.07,350.05 Z M 180.89,331.31 L 177.03,332.07 L 177.03,330.33 L 177.67,329.60 L 180.89,331.31 Z M 215.74,204.26 L 216.57,204.83 L 215.44,205.48 L 215.74,204.26 Z" fill="#C8D8E8" stroke="#8BAABB" stroke-width="0.8"/>
<path d="M 601.48,380.83 L 597.27,379.90 L 595.35,377.76 L 590.94,378.68 L 585.97,384.25 L 577.26,385.31 L 576.39,388.24 L 570.36,386.49 L 566.39,389.86 L 566.28,393.42 L 562.61,393.13 L 559.81,395.11 L 557.09,392.53 L 551.06,390.92 L 545.49,384.37 L 542.40,383.24 L 543.11,381.53 L 540.80,381.07 L 541.15,372.73 L 537.84,370.74 L 535.84,363.80 L 536.48,356.56 L 539.51,350.04 L 538.66,345.37 L 542.29,343.11 L 545.55,337.94 L 541.22,332.47 L 542.28,328.77 L 532.56,325.72 L 535.18,321.62 L 536.23,314.73 L 533.14,310.87 L 520.64,311.72 L 507.14,296.29 L 512.80,291.28 L 510.94,283.50 L 512.63,280.29 L 516.65,279.96 L 517.19,278.23 L 521.45,279.23 L 528.09,275.67 L 529.61,273.27 L 528.20,270.82 L 524.58,271.79 L 522.93,270.43 L 523.48,267.54 L 520.83,263.49 L 525.04,257.51 L 528.14,257.29 L 539.35,248.54 L 535.41,242.05 L 539.18,245.97 L 547.48,250.93 L 540.75,246.25 L 541.20,245.25 L 554.24,253.35 L 566.88,266.59 L 566.98,274.17 L 562.98,287.35 L 564.82,286.49 L 567.46,278.09 L 570.53,276.63 L 576.83,278.72 L 585.20,286.29 L 586.63,289.64 L 587.42,288.12 L 589.10,288.66 L 594.06,293.39 L 594.18,302.65 L 590.60,309.34 L 593.60,312.41 L 591.56,312.37 L 591.53,315.50 L 583.38,315.79 L 580.02,317.52 L 578.48,320.15 L 580.29,323.17 L 575.56,333.54 L 580.45,343.69 L 584.26,346.72 L 584.04,349.34 L 587.71,350.41 L 591.16,349.24 L 593.34,360.64 L 595.65,362.14 L 603.56,377.59 L 608.15,379.42 L 601.48,380.83 Z M 570.09,275.12 L 567.48,276.82 L 567.76,275.58 L 570.09,275.12 Z" fill="#C8D8E8" stroke="#8BAABB" stroke-width="0.8"/>
<path d="M 539.35,248.54 L 528.14,257.29 L 525.04,257.51 L 520.83,263.49 L 523.48,267.54 L 522.93,270.43 L 524.58,271.79 L 528.20,270.82 L 529.61,273.27 L 528.09,275.67 L 521.45,279.23 L 517.19,278.23 L 516.65,279.96 L 512.63,280.29 L 510.94,283.50 L 512.80,291.28 L 507.14,296.29 L 522.19,312.38 L 523.26,317.98 L 517.44,321.97 L 515.76,325.57 L 508.81,325.87 L 509.27,327.38 L 504.98,328.34 L 503.64,331.52 L 491.59,334.81 L 485.95,332.88 L 483.21,335.90 L 479.45,335.98 L 479.34,343.73 L 476.46,345.80 L 466.96,337.54 L 463.70,339.70 L 460.39,337.80 L 452.87,339.12 L 450.63,334.39 L 441.52,334.21 L 437.37,330.78 L 436.93,332.31 L 440.43,337.24 L 449.47,345.10 L 449.06,354.87 L 453.69,363.36 L 452.65,368.42 L 466.28,369.47 L 466.53,372.67 L 465.73,375.11 L 452.89,379.72 L 451.73,386.04 L 446.39,391.37 L 445.23,388.43 L 438.62,393.83 L 436.39,393.35 L 430.28,396.33 L 428.92,400.55 L 426.36,400.83 L 421.94,406.25 L 421.02,404.39 L 422.43,401.33 L 420.84,399.31 L 417.77,399.51 L 409.78,404.55 L 406.68,404.25 L 394.55,394.35 L 387.52,372.68 L 388.09,370.02 L 380.16,363.86 L 379.11,361.32 L 374.40,361.81 L 374.75,359.81 L 385.63,349.47 L 381.71,342.54 L 379.00,341.63 L 374.00,325.62 L 375.69,314.60 L 374.83,308.87 L 379.31,304.67 L 379.14,299.63 L 383.30,295.61 L 381.89,292.78 L 382.74,291.05 L 374.99,288.65 L 371.89,290.63 L 358.38,292.34 L 349.63,290.63 L 345.83,293.48 L 344.07,291.91 L 341.77,292.62 L 327.68,274.96 L 323.77,275.68 L 315.88,272.32 L 306.00,275.17 L 297.03,273.31 L 289.36,274.13 L 287.21,272.59 L 284.99,266.47 L 279.39,264.34 L 279.13,254.93 L 282.33,251.48 L 281.14,246.25 L 275.35,240.11 L 272.97,230.50 L 269.60,230.71 L 268.48,226.74 L 264.32,229.27 L 260.65,228.83 L 268.98,216.01 L 270.43,203.12 L 278.97,188.84 L 283.74,188.13 L 289.82,177.60 L 302.43,173.68 L 302.01,175.60 L 290.04,179.07 L 292.17,186.84 L 296.91,191.03 L 293.98,191.03 L 297.94,197.14 L 296.84,202.68 L 289.87,209.91 L 286.67,215.72 L 289.25,219.28 L 290.32,221.63 L 289.48,220.20 L 289.33,223.34 L 290.90,222.48 L 292.43,223.75 L 291.27,223.85 L 291.18,224.88 L 294.69,224.88 L 293.00,228.03 L 294.48,227.94 L 295.22,231.28 L 298.32,232.01 L 304.83,229.64 L 308.50,226.09 L 309.05,217.42 L 300.13,203.77 L 297.80,195.31 L 300.62,195.58 L 301.30,193.03 L 299.48,192.18 L 325.58,184.05 L 327.16,181.59 L 329.58,182.19 L 327.01,179.54 L 334.55,182.28 L 335.60,180.89 L 334.11,176.94 L 325.98,178.70 L 326.06,175.27 L 324.13,173.53 L 326.10,168.26 L 329.97,166.45 L 333.72,170.27 L 335.53,178.22 L 338.07,181.63 L 345.33,180.22 L 353.70,181.94 L 363.15,187.19 L 365.71,192.89 L 363.69,193.03 L 366.53,193.73 L 364.61,194.88 L 365.53,198.45 L 368.77,201.98 L 374.20,202.72 L 391.73,199.42 L 406.87,198.57 L 411.58,200.14 L 410.03,201.58 L 414.12,206.25 L 431.36,211.12 L 437.68,210.23 L 438.90,207.38 L 444.01,206.95 L 445.90,205.86 L 444.12,205.20 L 449.77,202.19 L 460.73,201.84 L 452.99,199.86 L 448.83,201.41 L 448.08,198.14 L 455.39,199.01 L 457.50,197.29 L 462.82,199.05 L 470.87,196.85 L 491.57,197.86 L 497.91,196.72 L 495.51,198.57 L 489.55,198.98 L 487.86,201.10 L 481.13,200.33 L 475.77,201.09 L 473.97,202.69 L 477.13,201.07 L 477.66,203.66 L 474.29,203.64 L 474.11,206.39 L 475.60,206.18 L 475.37,203.70 L 479.03,203.90 L 481.87,209.39 L 481.25,210.40 L 478.77,210.31 L 477.83,211.23 L 476.22,209.96 L 473.83,209.96 L 478.28,212.19 L 478.61,210.66 L 480.01,211.10 L 482.03,210.21 L 482.82,207.45 L 488.19,218.21 L 489.46,212.64 L 490.18,213.39 L 490.31,219.63 L 491.57,217.79 L 490.73,213.50 L 494.18,214.72 L 490.19,213.11 L 490.71,211.70 L 498.21,216.43 L 497.91,219.35 L 499.26,217.11 L 500.02,220.49 L 500.27,218.46 L 498.27,215.70 L 503.12,216.63 L 502.21,214.21 L 506.62,217.58 L 504.96,215.44 L 506.27,215.88 L 511.06,220.88 L 514.20,220.80 L 518.12,223.40 L 519.71,226.36 L 513.54,230.74 L 512.99,232.01 L 516.13,229.08 L 513.25,233.69 L 510.99,240.99 L 501.75,240.83 L 502.99,242.10 L 509.46,245.39 L 511.57,243.39 L 514.75,243.23 L 513.69,243.95 L 513.82,245.26 L 515.80,241.67 L 521.62,241.08 L 526.00,242.58 L 528.20,240.44 L 535.41,242.05 L 539.35,248.54 Z M 514.44,242.87 L 509.74,242.95 L 510.62,241.76 L 512.70,242.54 L 514.96,240.97 L 514.44,242.87 Z M 518.62,232.86 L 518.07,234.09 L 513.41,236.56 L 516.93,232.28 L 518.62,232.86 Z M 513.87,233.31 L 518.34,230.87 L 517.85,231.96 L 516.47,232.33 L 513.54,235.14 L 513.87,233.31 Z M 517.56,230.82 L 516.09,231.43 L 518.31,228.84 L 517.56,230.82 Z M 520.87,228.86 L 518.48,230.45 L 518.81,228.97 L 520.87,228.86 Z M 455.62,195.97 L 455.51,196.84 L 453.55,196.00 L 455.62,195.97 Z M 428.88,193.33 L 428.06,193.73 L 424.63,192.91 L 428.88,193.33 Z M 458.00,191.89 L 455.74,193.73 L 452.41,194.30 L 450.03,192.02 L 445.24,192.02 L 446.02,190.05 L 449.12,189.44 L 452.63,191.54 L 454.12,188.89 L 456.79,188.53 L 458.00,191.89 Z M 399.35,175.54 L 398.06,175.09 L 399.90,174.24 L 399.35,175.54 Z M 410.19,175.15 L 408.54,174.37 L 408.85,174.25 L 410.19,175.15 Z M 442.20,173.55 L 442.07,174.39 L 440.31,174.11 L 441.16,172.68 L 442.20,173.55 Z M 397.58,175.11 L 395.53,175.85 L 394.97,175.75 L 397.58,175.11 Z M 397.91,173.33 L 395.73,173.26 L 395.79,173.21 L 397.91,173.33 Z M 378.65,170.92 L 378.88,171.00 L 378.30,170.96 L 378.12,170.80 L 378.65,170.92 Z M 377.98,170.05 L 378.03,170.00 L 378.00,170.06 L 377.98,170.05 Z M 378.07,169.96 L 378.08,170.02 L 378.06,170.01 L 378.07,169.96 Z M 378.12,169.58 L 378.09,169.66 L 378.07,169.62 L 378.12,169.58 Z M 377.99,169.30 L 377.92,169.27 L 377.98,169.26 L 377.99,169.30 Z M 377.83,169.15 L 377.87,169.18 L 377.86,169.22 L 377.83,169.15 Z M 460.96,93.75 L 461.15,93.75 L 461.13,93.89 L 460.96,93.75 Z M 508.83,241.77 L 509.88,244.16 L 504.19,241.89 L 508.83,241.77 Z M 521.95,237.79 L 523.15,240.41 L 519.24,240.49 L 521.95,237.79 Z M 520.79,235.11 L 521.75,237.25 L 518.45,240.39 L 511.80,241.27 L 512.70,237.93 L 520.79,235.11 Z M 488.24,214.48 L 488.05,215.34 L 487.56,214.76 L 488.24,214.48 Z M 486.34,212.68 L 485.78,211.14 L 485.97,211.09 L 486.34,212.68 Z M 489.91,211.82 L 488.62,212.45 L 488.86,211.60 L 489.91,211.82 Z M 481.18,205.67 L 478.69,201.87 L 479.39,202.55 L 481.18,205.67 Z M 450.05,195.51 L 449.10,195.36 L 449.46,194.93 L 450.05,195.51 Z" fill="#4A90D9" stroke="#1a5fa8" stroke-width="1.2"/>
<path d="M 609.19,447.48 L 613.11,451.41 L 617.41,450.83 L 618.05,449.40 L 620.70,456.67 L 617.10,452.00 L 612.01,452.51 L 610.88,449.96 L 607.01,449.60 L 606.21,448.83 L 608.76,448.03 L 603.72,447.22 L 609.19,447.48 Z" fill="#A8C8E8" stroke="none"/>
<path d="M 379.11,209.66 L 374.03,209.47 L 374.83,207.60 L 378.16,207.10 L 379.11,209.66 Z" fill="#A8C8E8" stroke="none"/>
<path d="M 473.29,262.14 L 472.85,262.02 L 474.81,260.68 L 474.25,258.33 L 476.07,260.01 L 479.89,258.89 L 480.87,260.04 L 478.63,260.04 L 479.76,261.31 L 477.40,261.96 L 481.01,262.74 L 478.67,264.61 L 479.66,267.49 L 475.95,274.26 L 477.19,278.25 L 474.19,274.83 L 474.40,272.69 L 478.47,268.71 L 478.19,266.73 L 476.94,266.43 L 477.07,263.44 L 475.09,265.15 L 473.97,264.30 L 475.25,262.45 L 473.29,262.14 Z" fill="#A8C8E8" stroke="none"/>
<path d="M 389.44,214.91 L 390.49,214.43 L 393.30,215.86 L 391.57,216.97 L 389.44,214.91 Z" fill="#A8C8E8" stroke="none"/>
<path d="M 384.74,233.66 L 383.74,233.71 L 383.91,229.59 L 385.63,231.13 L 384.74,233.66 Z" fill="#A8C8E8" stroke="none"/>
<path d="M 299.62,36.37 L 297.53,37.44 L 293.26,35.62 L 292.93,34.77 L 299.62,36.37 Z" fill="#A8C8E8" stroke="none"/>
<path d="M 291.18,35.80 L 288.01,34.22 L 288.78,32.38 L 291.18,35.80 Z" fill="#A8C8E8" stroke="none"/>
</svg>