<svg xmlns="http://www.w3.org/2000/svg" width="800" height="500" viewBox="0 0 800 500">
<rect width="800" height="500" fill="#A8C8E8"/>
<path d="M 609.67,323.98 L 603.77,323.46 L 622.91,315.36 L 622.92,329.23 L 609.67,323.98 Z" fill="#E8E0D0" stroke="#B8B0A0" stroke-width="0.5"/>
<path d="M 612.80,325.30 L 622.92,329.23 L 611.06,328.83 L 612.80,325.30 Z" fill="#E8E0D0" stroke="#B8B0A0" stroke-width="0.5"/>
<path d="M 633.66,414.85 L 631.64,418.11 L 628.33,417.61 L 625.95,408.57 L 633.66,414.85 Z M 592.38,392.38 L 590.21,394.65 L 588.29,393.23 L 592.38,392.38 Z" fill="#E8E0D0" stroke="#B8B0A0" stroke-width="0.5"/>
<path d="M 378.05,378.63 L 344.77,384.01 L 347.55,369.47 L 394.51,373.26 L 378.05,378.63 Z M 373.09,287.05 L 358.68,283.16 L 366.73,276.07 L 379.55,281.83 L 373.09,287.05 Z M 347.19,286.88 L 323.10,279.19 L 336.65,274.04 L 347.19,286.88 Z" fill="#E8E0D0" stroke="#B8B0A0" stroke-width="0.5"/>
<path d="M 257.51,320.80 L 243.26,315.36 L 288.39,313.02 L 257.51,320.80 Z M 285.90,287.58 L 279.76,281.22 L 291.22,283.83 L 285.90,287.58 Z M 239.84,300.81 L 219.98,305.90 L 190.12,339.05 L 162.98,344.19 L 162.98,263.12 L 237.19,273.65 L 239.84,300.81 Z" fill="#E8E0D0" stroke="#B8B0A0" stroke-width="0.5"/>
<path d="M 625.44,298.92 L 600.66,307.99 L 619.87,292.61 L 625.44,298.92 Z M 562.00,240.50 L 562.78,240.69 L 562.13,241.81 L 562.00,240.50 Z M 633.28,288.00 L 636.53,289.18 L 631.94,291.58 L 633.28,288.00 Z M 586.62,290.38 L 590.56,290.23 L 588.19,291.79 L 586.62,290.38 Z M 598.93,292.80 L 597.05,292.44 L 597.36,292.38 L 598.93,292.80 Z M 600.48,292.98 L 600.59,293.53 L 599.73,293.50 L 600.48,292.98 Z" fill="#E8E0D0" stroke="#B8B0A0" stroke-width="0.5"/>
<path d="M 371.59,274.10 L 382.32,263.95 L 400.82,265.81 L 371.59,274.10 Z M 416.91,263.09 L 411.71,265.22 L 415.85,254.45 L 429.08,254.45 L 416.91,263.09 Z M 421.01,220.99 L 416.86,218.09 L 429.93,217.85 L 437.28,224.97 L 421.01,220.99 Z M 392.81,282.15 L 388.05,278.88 L 391.71,278.10 L 392.81,282.15 Z M 369.19,266.02 L 362.72,265.34 L 363.55,264.19 L 369.19,266.02 Z M 398.99,260.01 L 397.90,262.20 L 397.47,259.00 L 398.99,260.01 Z" fill="#4A90D9" stroke="#1a5fa8" stroke-width="1.2"/>
</svg>