<svg xmlns="http://www.w3.org/2000/svg" width="800" height="500" viewBox="0 0 800 500">
<rect width="800" height="500" fill="#A8C8E8"/>
<path d="M 634.26,313.35 L 632.08,315.62 L 630.16,314.21 L 634.26,313.35 Z" fill="#E8E0D0" stroke="#B8B0A0" stroke-width="0.5"/>
<path d="M 298.41,241.77 L 284.11,236.34 L 329.38,233.99 L 298.41,241.77 Z M 326.88,208.55 L 320.72,202.19 L 332.22,204.81 L 326.88,208.55 Z M 280.68,221.78 L 260.77,226.87 L 230.82,260.02 L 191.44,267.46 L 162.28,263.20 L 162.28,178.51 L 164.96,178.63 L 278.03,194.63 L 280.68,221.78 Z" fill="#E8E0D0" stroke="#B8B0A0" stroke-width="0.5"/>
<path d="M 603.79,161.47 L 604.57,161.66 L 603.91,162.79 L 603.79,161.47 Z M 628.48,211.35 L 632.43,211.20 L 630.05,212.77 L 628.48,211.35 Z" fill="#E8E0D0" stroke="#B8B0A0" stroke-width="0.5"/>
<path d="M 412.82,195.07 L 423.58,184.93 L 442.14,186.78 L 412.82,195.07 Z M 458.28,184.06 L 453.05,186.19 L 457.21,175.43 L 470.48,175.43 L 458.28,184.06 Z M 462.39,141.96 L 458.22,139.06 L 471.34,138.82 L 478.70,145.94 L 462.39,141.96 Z M 434.10,203.13 L 429.33,199.85 L 433.00,199.08 L 434.10,203.13 Z M 410.42,187.00 L 403.93,186.31 L 404.76,185.16 L 410.42,187.00 Z M 440.31,180.98 L 439.21,183.17 L 438.78,179.97 L 440.31,180.98 Z" fill="#E8E0D0" stroke="#B8B0A0" stroke-width="0.5"/>
<path d="M 419.30,299.60 L 385.93,304.99 L 388.71,290.44 L 435.81,294.23 L 419.30,299.60 Z M 414.33,208.03 L 399.88,204.13 L 407.95,197.05 L 420.81,202.81 L 414.33,208.03 Z M 388.35,207.85 L 364.19,200.16 L 377.78,195.01 L 388.35,207.85 Z" fill="#4A90D9" stroke="#1a5fa8" stroke-width="1.2"/>
</svg>