<svg xmlns="http://www.w3.org/2000/svg" width="800" height="500" viewBox="0 0 800 500">
<rect width="800" height="500" fill="#A8C8E8"/>
<path d="M 794.19,313.35 L 790.51,315.62 L 787.28,314.21 L 794.19,313.35 Z" fill="#E8E0D0" stroke="#B8B0A0" stroke-width="0.5"/>
<path d="M 229.05,241.77 L 205.00,236.34 L 281.17,233.99 L 229.05,241.77 Z M 276.96,208.55 L 266.60,202.19 L 285.95,204.81 L 276.96,208.55 Z M 199.23,221.78 L 165.73,226.87 L 115.33,260.02 L 49.06,267.46 L 0.00,263.20 L 0.00,178.51 L 4.51,178.63 L 194.76,194.63 L 199.23,221.78 Z" fill="#E8E0D0" stroke="#B8B0A0" stroke-width="0.5"/>
<path d="M 742.91,161.47 L 744.22,161.66 L 743.12,162.79 L 742.91,161.47 Z M 784.45,211.35 L 791.10,211.20 L 787.10,212.77 L 784.45,211.35 Z" fill="#E8E0D0" stroke="#B8B0A0" stroke-width="0.5"/>
<path d="M 421.58,195.07 L 439.68,184.93 L 470.90,186.78 L 421.58,195.07 Z M 498.06,184.06 L 489.27,186.19 L 496.26,175.43 L 518.60,175.43 L 498.06,184.06 Z M 504.98,141.96 L 497.97,139.06 L 520.04,138.82 L 532.43,145.94 L 504.98,141.96 Z M 457.38,203.13 L 449.36,199.85 L 455.52,199.08 L 457.38,203.13 Z M 417.53,187.00 L 406.61,186.31 L 408.01,185.16 L 417.53,187.00 Z M 467.82,180.98 L 465.98,183.17 L 465.25,179.97 L 467.82,180.98 Z" fill="#E8E0D0" stroke="#B8B0A0" stroke-width="0.5"/>
<path d="M 432.48,299.60 L 376.32,304.99 L 381.00,290.44 L 460.26,294.23 L 432.48,299.60 Z M 424.11,208.03 L 399.79,204.13 L 413.37,197.05 L 435.01,202.81 L 424.11,208.03 Z M 380.40,207.85 L 339.74,200.16 L 362.60,195.01 L 380.40,207.85 Z" fill="#4A90D9" stroke="#1a5fa8" stroke-width="1.2"/>
</svg>