<svg xmlns="http://www.w3.org/2000/svg" width="800" height="500" viewBox="0 0 800 500">
<rect width="800" height="500" fill="#A8C8E8"/>
<path d="M 449.50,498.41 L 450.21,500.00 L 447.92,500.00 L 449.50,498.41 Z M 444.79,488.96 L 443.65,488.96 L 443.72,488.59 L 445.03,487.24 L 444.79,488.96 Z" fill="#E8E0D0" stroke="#B8B0A0" stroke-width="0.5"/>
<path d="M 329.73,457.52 L 333.45,463.98 L 343.76,472.15 L 352.31,486.52 L 353.30,497.11 L 352.50,500.00 L 294.92,500.00 L 293.67,496.84 L 295.30,491.74 L 294.26,490.66 L 295.72,489.41 L 294.46,489.50 L 294.73,486.81 L 289.58,480.64 L 290.98,477.96 L 289.81,465.26 L 289.27,461.00 L 284.96,453.21 L 285.56,446.55 L 287.74,446.53 L 290.05,450.21 L 295.00,451.85 L 297.02,450.83 L 299.11,456.25 L 304.17,456.05 L 304.11,462.57 L 301.80,465.66 L 305.00,469.10 L 307.58,465.77 L 313.86,463.14 L 316.06,466.22 L 318.80,466.77 L 324.08,459.26 L 324.34,455.81 L 329.73,457.52 Z M 288.04,476.87 L 285.92,476.74 L 285.82,472.73 L 288.47,472.89 L 288.04,476.87 Z" fill="#E8E0D0" stroke="#B8B0A0" stroke-width="0.5"/>
<path d="M 335.18,329.60 L 334.70,333.24 L 328.88,330.26 L 328.21,328.16 L 329.70,327.78 L 330.02,326.51 L 328.79,327.55 L 329.04,325.24 L 327.04,325.06 L 327.50,327.44 L 324.17,322.21 L 323.04,322.34 L 324.01,324.37 L 318.10,319.35 L 311.02,321.68 L 304.30,319.88 L 301.99,321.63 L 299.62,320.47 L 301.16,313.06 L 300.03,311.04 L 302.42,302.62 L 296.00,302.35 L 294.33,300.17 L 293.88,302.13 L 287.76,302.19 L 281.41,306.56 L 284.29,311.91 L 281.36,320.15 L 282.57,330.21 L 280.43,334.15 L 280.43,155.79 L 280.89,155.56 L 285.27,159.92 L 287.06,157.09 L 289.17,156.73 L 293.33,161.64 L 289.88,170.36 L 291.81,175.03 L 297.48,175.93 L 300.06,173.16 L 307.70,174.56 L 306.02,178.18 L 309.15,185.71 L 307.09,188.79 L 307.29,193.37 L 303.13,198.25 L 305.67,200.47 L 305.87,206.18 L 302.53,209.74 L 300.51,216.58 L 305.20,218.70 L 310.40,213.04 L 317.34,209.17 L 318.59,205.75 L 320.91,206.52 L 324.45,202.78 L 335.05,208.26 L 334.97,210.68 L 336.75,211.33 L 340.20,207.90 L 343.97,207.50 L 346.62,202.02 L 349.21,201.22 L 348.17,199.26 L 351.27,197.97 L 360.65,201.24 L 363.55,200.57 L 372.74,214.38 L 379.67,219.51 L 378.90,238.44 L 384.21,243.78 L 385.07,247.07 L 392.48,249.42 L 391.23,251.34 L 392.27,253.87 L 396.93,256.36 L 396.18,261.50 L 393.60,263.33 L 395.36,265.03 L 392.92,267.96 L 395.96,270.99 L 393.84,275.32 L 394.22,280.02 L 392.35,282.90 L 384.85,287.43 L 383.36,283.90 L 379.24,282.65 L 374.59,284.33 L 367.15,283.40 L 361.21,284.75 L 356.16,282.58 L 346.01,285.19 L 341.54,288.03 L 337.07,297.00 L 333.89,298.95 L 335.02,300.31 L 329.61,301.17 L 329.53,307.30 L 332.83,313.21 L 332.61,319.96 L 338.36,325.06 L 336.94,330.51 L 341.44,341.78 L 335.18,329.60 Z M 281.50,406.12 L 285.10,410.71 L 284.83,408.05 L 286.65,409.44 L 291.12,430.01 L 293.86,435.67 L 290.82,434.44 L 290.43,428.93 L 287.71,428.86 L 288.69,425.12 L 286.45,423.57 L 285.11,424.88 L 285.81,428.86 L 290.80,436.48 L 293.47,437.04 L 294.08,435.35 L 297.73,440.46 L 302.46,443.13 L 309.66,442.73 L 308.45,441.06 L 313.85,443.45 L 318.21,450.67 L 324.34,455.81 L 324.08,459.26 L 318.80,466.77 L 316.06,466.22 L 313.86,463.14 L 307.58,465.77 L 305.00,469.10 L 301.80,465.66 L 304.11,462.57 L 304.17,456.05 L 299.11,456.25 L 297.02,450.83 L 295.00,451.85 L 290.05,450.21 L 287.52,446.45 L 285.56,446.55 L 284.75,451.90 L 280.43,447.47 L 280.43,397.54 L 281.50,406.12 Z M 283.40,387.96 L 281.08,388.92 L 280.67,385.80 L 283.59,385.36 L 283.40,387.96 Z M 283.53,381.36 L 284.00,383.70 L 281.91,382.54 L 283.53,381.36 Z M 335.18,340.96 L 335.03,343.53 L 333.64,342.65 L 334.15,339.37 L 335.18,340.96 Z M 331.83,334.97 L 328.76,334.82 L 327.93,331.05 L 331.83,334.97 Z" fill="#E8E0D0" stroke="#B8B0A0" stroke-width="0.5"/>
<path d="M 280.99,121.69 L 281.15,128.56 L 285.07,129.96 L 284.00,132.62 L 285.97,134.76 L 289.12,132.59 L 294.81,133.89 L 304.19,127.59 L 306.05,130.87 L 302.58,135.23 L 296.92,137.22 L 292.70,145.80 L 295.43,146.43 L 289.59,147.45 L 286.46,150.22 L 284.19,158.26 L 280.89,155.56 L 280.43,155.79 L 280.43,121.61 L 280.99,121.69 Z" fill="#E8E0D0" stroke="#B8B0A0" stroke-width="0.5"/>
<path d="M 431.09,289.42 L 436.87,302.57 L 433.95,312.66 L 436.08,321.45 L 435.21,326.53 L 433.04,328.91 L 428.89,327.82 L 418.51,334.90 L 412.25,334.92 L 412.90,341.44 L 404.55,339.14 L 402.89,341.84 L 400.27,342.22 L 401.07,349.31 L 407.50,354.32 L 407.84,360.38 L 402.84,357.64 L 401.77,359.09 L 399.21,355.12 L 392.24,356.23 L 390.36,358.86 L 385.48,356.57 L 384.12,357.91 L 384.75,361.99 L 380.93,365.37 L 375.08,365.44 L 373.10,367.81 L 368.63,364.54 L 362.44,364.16 L 360.83,361.81 L 359.89,365.10 L 355.89,366.01 L 353.41,363.55 L 354.74,361.24 L 357.21,360.93 L 357.90,357.67 L 356.92,354.10 L 354.04,352.00 L 352.73,352.24 L 351.38,357.90 L 345.78,357.96 L 344.37,350.78 L 346.29,348.72 L 344.51,345.98 L 346.75,346.43 L 343.96,342.65 L 343.82,343.96 L 342.28,343.66 L 344.08,342.23 L 342.56,341.94 L 342.92,340.57 L 344.56,340.46 L 344.93,340.04 L 342.84,340.33 L 341.02,337.88 L 342.56,340.33 L 342.28,343.38 L 337.10,331.35 L 338.36,325.06 L 332.75,320.29 L 332.83,313.21 L 329.53,307.30 L 329.23,301.67 L 335.02,300.31 L 333.89,298.95 L 337.07,297.00 L 341.86,287.71 L 356.16,282.58 L 361.21,284.75 L 367.15,283.40 L 374.59,284.33 L 379.24,282.65 L 383.36,283.90 L 384.85,287.43 L 387.64,284.64 L 390.76,289.63 L 394.74,288.48 L 399.03,290.12 L 402.19,293.60 L 405.64,293.73 L 407.28,290.83 L 403.71,284.22 L 407.76,284.14 L 408.92,281.58 L 412.76,282.09 L 414.66,279.47 L 420.65,285.34 L 423.23,285.18 L 430.42,279.29 L 433.02,280.46 L 435.17,277.05 L 431.09,289.42 Z M 359.60,366.36 L 359.37,367.01 L 358.32,366.43 L 359.60,366.36 Z M 348.84,362.38 L 347.24,360.48 L 348.19,360.15 L 348.84,362.38 Z M 344.08,349.66 L 343.35,350.05 L 342.98,346.43 L 344.08,349.66 Z M 344.23,345.55 L 343.82,346.43 L 343.12,344.58 L 344.23,345.55 Z M 349.78,365.07 L 349.08,363.64 L 349.70,363.55 L 349.78,365.07 Z" fill="#C8D8E8" stroke="#8BAABB" stroke-width="0.8"/>
<path d="M 518.79,132.60 L 517.80,131.50 L 515.65,132.95 L 514.75,131.06 L 514.87,132.51 L 511.40,134.52 L 512.09,133.25 L 507.76,133.82 L 506.52,132.37 L 505.55,134.41 L 506.82,133.56 L 507.36,133.82 L 505.82,134.83 L 501.24,135.40 L 498.86,138.31 L 498.56,135.98 L 500.98,135.07 L 501.08,134.41 L 498.55,135.75 L 498.56,138.95 L 497.32,138.60 L 497.59,139.04 L 495.41,139.22 L 494.39,139.77 L 495.51,136.72 L 494.44,137.28 L 492.91,134.60 L 493.74,140.08 L 489.59,142.31 L 488.80,147.02 L 493.12,147.02 L 493.95,149.09 L 492.87,149.48 L 492.57,147.59 L 491.73,151.08 L 496.48,154.86 L 491.32,159.63 L 486.39,158.60 L 483.93,159.92 L 482.82,156.38 L 485.26,157.54 L 485.81,155.79 L 482.00,154.05 L 482.53,152.38 L 480.56,150.72 L 482.78,149.84 L 481.28,150.35 L 480.72,146.89 L 479.88,147.88 L 478.72,145.35 L 480.85,136.28 L 484.07,136.14 L 484.48,133.38 L 481.84,134.12 L 481.00,131.50 L 481.00,133.54 L 478.49,132.80 L 479.04,130.62 L 477.64,131.65 L 477.37,128.02 L 474.72,129.76 L 476.92,131.51 L 476.07,133.41 L 470.25,134.68 L 470.13,133.54 L 468.09,135.32 L 466.08,134.29 L 468.17,133.02 L 468.03,131.06 L 463.81,130.80 L 462.32,129.32 L 463.73,127.59 L 461.23,126.50 L 462.09,128.05 L 460.79,128.46 L 462.45,130.19 L 460.09,131.06 L 459.67,128.02 L 458.82,128.89 L 458.13,128.30 L 458.70,126.56 L 457.02,128.15 L 457.85,124.98 L 456.59,123.67 L 454.92,125.70 L 454.24,124.40 L 454.65,129.03 L 456.43,129.46 L 454.51,131.92 L 452.85,131.65 L 454.51,129.61 L 451.87,128.46 L 450.70,132.29 L 449.22,133.22 L 450.07,131.36 L 449.12,130.22 L 444.75,132.21 L 446.56,133.54 L 444.33,134.68 L 441.09,130.11 L 431.66,131.13 L 430.13,128.62 L 424.64,126.66 L 424.77,124.19 L 417.52,123.31 L 417.72,117.93 L 414.96,113.38 L 415.98,110.06 L 418.07,110.39 L 420.30,105.78 L 414.16,103.07 L 409.43,104.57 L 406.92,102.02 L 401.26,103.51 L 395.11,100.23 L 390.24,93.75 L 387.98,96.12 L 381.25,98.03 L 379.78,99.68 L 380.30,103.10 L 377.80,105.34 L 374.81,104.96 L 370.47,108.13 L 368.36,106.95 L 368.45,105.21 L 365.31,105.90 L 362.72,111.92 L 356.36,105.74 L 353.45,110.35 L 349.50,105.98 L 343.79,113.55 L 332.37,106.39 L 327.29,113.96 L 322.75,113.19 L 320.17,114.64 L 316.53,112.52 L 313.00,117.46 L 318.86,130.57 L 317.49,131.74 L 317.06,137.02 L 319.27,138.86 L 317.89,140.79 L 313.04,138.68 L 307.48,139.74 L 304.19,127.59 L 294.81,133.89 L 289.12,132.59 L 285.47,134.58 L 283.92,132.16 L 285.07,129.96 L 281.15,128.56 L 280.99,121.69 L 280.43,121.61 L 280.43,0.00 L 519.57,0.00 L 519.57,132.16 L 518.79,132.60 Z M 503.45,174.72 L 501.78,173.42 L 501.81,175.89 L 497.42,182.86 L 495.36,182.56 L 496.91,184.30 L 497.46,182.97 L 496.06,188.12 L 494.39,189.92 L 495.64,190.52 L 495.86,188.64 L 496.49,190.68 L 486.31,196.47 L 486.43,199.22 L 484.98,199.06 L 485.89,198.65 L 486.03,197.77 L 480.45,198.93 L 480.16,201.53 L 478.91,201.53 L 480.31,201.83 L 479.69,202.92 L 476.69,203.72 L 476.69,201.83 L 475.01,203.23 L 474.22,201.19 L 468.58,201.22 L 468.04,199.66 L 458.86,196.40 L 457.68,180.32 L 465.44,173.51 L 471.52,171.09 L 470.83,169.35 L 468.59,170.80 L 470.46,167.13 L 477.11,168.03 L 475.99,166.01 L 479.90,164.76 L 482.27,166.44 L 484.45,165.17 L 485.41,166.97 L 488.81,163.56 L 492.63,163.75 L 494.11,166.60 L 493.41,163.27 L 497.94,166.61 L 497.13,163.51 L 499.41,161.52 L 501.65,164.76 L 504.63,165.09 L 506.17,171.67 L 503.45,174.72 Z M 498.48,145.16 L 497.60,146.28 L 496.75,145.56 L 498.48,145.16 Z M 496.13,145.14 L 494.60,143.69 L 490.62,144.11 L 493.55,141.79 L 496.75,143.03 L 496.13,145.14 Z M 496.67,141.60 L 494.11,140.04 L 496.91,140.50 L 498.17,139.77 L 496.67,141.60 Z M 509.95,254.17 L 510.18,254.09 L 510.18,254.24 L 509.95,254.17 Z M 467.11,142.93 L 467.77,142.43 L 467.87,143.14 L 467.11,142.93 Z M 518.23,238.35 L 518.36,238.45 L 518.30,238.54 L 518.23,238.35 Z M 495.30,152.37 L 494.92,152.56 L 494.11,151.12 L 495.30,152.37 Z" fill="#C8D8E8" stroke="#8BAABB" stroke-width="0.8"/>
<path d="M 334.88,124.74 L 336.09,129.90 L 338.16,129.41 L 339.27,126.12 L 340.09,128.91 L 342.14,128.22 L 342.67,131.64 L 339.16,138.42 L 345.85,146.89 L 352.16,147.72 L 356.96,151.09 L 359.18,147.08 L 365.42,144.64 L 376.06,151.30 L 370.87,155.67 L 377.40,157.76 L 376.91,160.48 L 382.02,161.27 L 382.86,165.08 L 379.43,166.93 L 379.92,169.41 L 376.04,173.29 L 368.20,171.20 L 363.56,171.74 L 365.38,175.91 L 360.46,179.80 L 366.55,182.27 L 378.00,190.46 L 386.18,192.53 L 387.34,194.29 L 385.52,197.69 L 387.27,200.81 L 391.33,204.11 L 393.39,203.48 L 398.60,214.22 L 408.01,223.02 L 410.02,222.44 L 412.60,228.56 L 414.91,228.70 L 415.23,235.68 L 417.88,240.23 L 419.34,240.71 L 421.46,238.42 L 423.70,243.13 L 426.78,243.97 L 430.66,248.27 L 433.44,248.18 L 432.22,251.35 L 428.37,252.61 L 427.61,254.43 L 438.09,265.11 L 436.56,269.56 L 433.65,270.26 L 435.94,273.19 L 433.02,280.46 L 430.42,279.29 L 426.63,283.33 L 425.13,282.75 L 421.24,285.46 L 414.66,279.47 L 412.25,282.31 L 408.92,281.58 L 407.76,284.14 L 403.61,284.45 L 407.28,290.83 L 405.64,293.73 L 402.19,293.60 L 399.03,290.12 L 394.74,288.48 L 391.30,289.76 L 389.12,288.10 L 387.64,284.64 L 392.35,282.90 L 394.22,280.02 L 393.84,275.32 L 395.96,270.99 L 392.92,267.96 L 395.36,265.03 L 393.60,263.33 L 396.18,261.50 L 396.93,256.36 L 392.27,253.87 L 391.23,251.34 L 392.48,249.42 L 385.07,247.07 L 384.21,243.78 L 379.11,238.81 L 378.61,228.42 L 380.16,220.58 L 372.74,214.38 L 363.05,200.31 L 360.98,201.31 L 349.44,198.30 L 347.96,199.78 L 349.21,201.22 L 346.62,202.02 L 343.97,207.50 L 340.20,207.90 L 336.75,211.33 L 334.97,210.68 L 335.05,208.26 L 324.45,202.78 L 320.91,206.52 L 318.59,205.75 L 317.34,209.17 L 310.40,213.04 L 305.20,218.70 L 300.19,216.33 L 302.53,209.74 L 305.87,206.18 L 305.67,200.47 L 303.13,198.25 L 307.29,193.37 L 307.09,188.79 L 309.15,185.71 L 306.02,178.18 L 307.70,174.56 L 300.06,173.16 L 297.48,175.93 L 291.81,175.03 L 289.88,170.36 L 293.28,161.43 L 289.17,156.73 L 287.06,157.09 L 285.27,159.92 L 284.20,157.32 L 287.75,148.85 L 295.43,146.43 L 292.70,145.80 L 296.92,137.22 L 299.49,137.16 L 305.75,132.12 L 307.79,140.02 L 313.04,138.68 L 318.11,140.63 L 319.27,138.86 L 317.07,136.66 L 318.86,130.57 L 313.00,117.46 L 317.02,112.25 L 319.65,114.54 L 322.75,113.19 L 334.88,124.74 Z" fill="#C8D8E8" stroke="#8BAABB" stroke-width="0.8"/>
<path d="M 435.94,273.19 L 433.65,270.26 L 436.56,269.56 L 438.09,265.11 L 427.61,254.43 L 428.37,252.61 L 432.22,251.35 L 433.44,248.18 L 430.66,248.27 L 426.78,243.97 L 423.70,243.13 L 421.46,238.42 L 419.34,240.71 L 417.88,240.23 L 415.23,235.68 L 414.91,228.70 L 412.60,228.56 L 410.02,222.44 L 408.01,223.02 L 398.60,214.22 L 393.39,203.48 L 391.33,204.11 L 387.27,200.81 L 385.52,197.69 L 387.34,194.29 L 386.18,192.53 L 378.00,190.46 L 366.55,182.27 L 360.46,179.80 L 365.38,175.91 L 363.56,171.74 L 368.20,171.20 L 376.04,173.29 L 379.92,169.41 L 379.43,166.93 L 382.86,165.08 L 382.02,161.27 L 376.91,160.48 L 377.40,157.76 L 370.87,155.67 L 376.06,151.30 L 365.42,144.64 L 359.18,147.08 L 356.96,151.09 L 352.16,147.72 L 345.55,146.60 L 339.16,138.42 L 342.67,131.64 L 342.14,128.22 L 340.09,128.91 L 339.27,126.12 L 338.16,129.41 L 336.09,129.90 L 334.88,124.74 L 325.27,114.24 L 327.29,113.96 L 331.86,106.46 L 343.79,113.55 L 349.50,105.98 L 353.45,110.35 L 356.36,105.74 L 362.72,111.92 L 365.31,105.90 L 368.45,105.21 L 368.36,106.95 L 370.47,108.13 L 374.81,104.96 L 377.80,105.34 L 380.30,103.10 L 379.78,99.68 L 381.25,98.03 L 387.98,96.12 L 390.24,93.75 L 395.11,100.23 L 401.26,103.51 L 406.92,102.02 L 409.43,104.57 L 414.16,103.07 L 420.30,105.78 L 418.07,110.39 L 415.98,110.06 L 414.96,113.38 L 417.72,117.93 L 417.52,123.31 L 424.77,124.19 L 424.64,126.66 L 430.13,128.62 L 431.66,131.13 L 440.41,129.93 L 444.75,133.54 L 443.49,134.45 L 443.09,132.68 L 440.18,132.81 L 440.58,134.12 L 436.60,137.60 L 433.03,136.86 L 431.92,138.75 L 432.19,143.23 L 428.59,145.14 L 425.92,144.69 L 427.62,142.96 L 425.10,143.10 L 424.60,144.85 L 421.61,143.98 L 423.42,145.72 L 421.89,146.30 L 419.95,144.72 L 420.47,143.29 L 417.30,143.39 L 419.60,145.12 L 418.48,146.30 L 420.63,150.64 L 416.17,150.94 L 416.95,152.40 L 414.79,153.53 L 416.03,153.40 L 414.79,155.73 L 416.33,155.50 L 416.29,159.15 L 416.07,159.39 L 415.16,158.44 L 414.37,158.46 L 415.82,160.07 L 411.98,160.49 L 407.82,165.14 L 406.41,165.72 L 406.41,164.28 L 403.33,166.56 L 399.98,173.37 L 400.34,180.21 L 396.37,186.45 L 399.16,193.28 L 399.44,191.24 L 406.14,201.83 L 409.75,202.99 L 411.29,206.05 L 413.08,204.69 L 414.91,208.37 L 413.11,209.80 L 414.37,213.43 L 411.85,212.27 L 410.04,212.13 L 414.50,214.02 L 419.78,221.37 L 426.86,226.60 L 428.73,230.18 L 427.46,231.27 L 428.98,230.42 L 437.50,237.21 L 433.60,235.92 L 438.07,237.95 L 441.69,241.60 L 441.11,243.01 L 445.80,242.30 L 446.02,244.64 L 449.08,245.05 L 447.82,246.49 L 449.57,247.73 L 448.94,249.55 L 450.19,249.41 L 449.92,246.20 L 451.67,246.35 L 450.60,249.72 L 458.83,259.84 L 457.72,261.15 L 459.11,260.42 L 460.65,263.91 L 461.76,261.72 L 464.29,265.50 L 462.47,267.57 L 467.02,276.82 L 466.51,280.03 L 471.52,294.58 L 471.45,297.05 L 470.39,294.27 L 469.76,296.06 L 471.26,301.90 L 469.72,299.43 L 469.55,299.77 L 472.18,303.27 L 471.52,304.51 L 470.26,302.85 L 469.99,304.80 L 471.52,305.66 L 471.52,310.31 L 474.73,314.96 L 472.77,316.83 L 474.45,322.21 L 473.48,319.74 L 472.23,320.32 L 472.57,317.41 L 469.44,320.60 L 472.31,325.90 L 471.32,326.86 L 468.32,324.97 L 470.19,327.82 L 469.02,330.18 L 471.26,337.01 L 469.84,336.85 L 469.72,333.95 L 468.87,331.55 L 469.51,334.78 L 467.83,337.17 L 469.44,337.08 L 470.21,339.88 L 468.04,343.38 L 465.68,342.06 L 465.38,348.18 L 461.98,348.45 L 459.76,351.61 L 455.73,352.20 L 451.03,357.29 L 447.09,357.18 L 444.89,361.81 L 441.34,361.96 L 430.11,368.60 L 428.16,366.51 L 424.41,366.43 L 425.25,365.48 L 425.23,363.76 L 425.06,362.72 L 424.26,361.81 L 425.13,365.10 L 424.41,363.39 L 423.84,366.74 L 423.42,363.90 L 422.17,362.81 L 419.44,362.35 L 419.16,365.55 L 416.07,367.03 L 419.31,366.71 L 420.32,370.58 L 412.83,369.90 L 420.46,373.28 L 417.44,377.15 L 413.78,375.36 L 411.56,371.94 L 410.18,371.07 L 413.63,375.86 L 418.40,378.80 L 417.84,379.94 L 416.17,380.36 L 407.18,371.77 L 406.54,371.65 L 415.93,382.13 L 415.30,385.39 L 412.07,386.17 L 400.55,376.44 L 408.24,386.32 L 408.17,389.96 L 394.85,395.04 L 385.95,405.51 L 378.37,406.25 L 383.14,403.71 L 380.91,403.86 L 382.29,401.81 L 379.30,401.63 L 380.97,382.16 L 381.71,379.76 L 385.01,378.02 L 386.20,379.64 L 386.07,377.61 L 379.25,371.82 L 376.02,373.55 L 374.22,367.74 L 373.10,368.60 L 372.73,367.73 L 375.08,365.44 L 380.93,365.37 L 385.25,361.50 L 384.12,357.91 L 385.48,356.57 L 390.36,358.86 L 392.24,356.23 L 399.21,355.12 L 401.77,359.09 L 402.84,357.64 L 407.84,360.38 L 407.50,354.32 L 401.07,349.31 L 400.27,342.22 L 402.89,341.84 L 404.55,339.14 L 412.90,341.44 L 412.25,334.92 L 418.51,334.90 L 428.89,327.82 L 433.04,328.91 L 435.04,327.01 L 436.08,321.45 L 433.95,312.66 L 436.87,302.57 L 431.09,289.42 L 435.94,273.19 Z M 410.02,386.27 L 408.24,385.68 L 406.80,383.54 L 406.14,381.67 L 410.02,386.27 Z M 419.54,371.62 L 418.97,371.82 L 414.65,370.35 L 419.54,371.62 Z M 428.88,367.60 L 426.35,369.77 L 426.19,368.34 L 428.88,367.60 Z M 424.12,368.04 L 422.30,368.76 L 423.11,365.58 L 424.12,368.04 Z M 421.61,364.70 L 421.96,363.75 L 421.61,363.26 L 423.14,363.97 L 422.73,365.34 L 421.61,364.70 Z M 471.52,330.32 L 470.26,329.46 L 470.83,329.30 L 471.52,330.32 Z M 417.58,404.15 L 416.00,405.07 L 415.85,404.00 L 417.58,404.15 Z M 415.13,380.23 L 412.83,377.90 L 413.25,378.03 L 415.13,380.23 Z M 364.23,374.58 L 364.59,376.44 L 360.41,368.75 L 363.64,367.07 L 365.21,368.76 L 364.23,374.58 Z M 421.33,368.04 L 419.91,366.79 L 419.53,362.52 L 421.48,363.62 L 421.33,366.15 L 421.33,368.04 Z M 425.52,150.08 L 422.81,147.27 L 423.71,146.43 L 426.21,148.04 L 425.52,150.08 Z M 422.17,147.59 L 422.01,148.27 L 419.91,146.81 L 420.21,145.28 L 422.17,147.59 Z M 435.84,144.40 L 435.67,145.53 L 434.02,147.75 L 435.84,144.40 Z M 440.71,144.11 L 439.60,145.14 L 440.02,144.19 L 440.71,144.11 Z M 434.99,145.43 L 432.62,145.99 L 435.42,142.96 L 434.99,145.43 Z M 436.37,144.17 L 435.96,144.11 L 436.67,141.93 L 436.37,144.17 Z M 434.16,141.79 L 432.17,142.56 L 433.84,137.98 L 436.39,139.33 L 434.16,141.79 Z M 441.20,136.44 L 439.05,137.31 L 440.53,136.28 L 441.20,136.44 Z M 444.89,135.27 L 441.69,136.44 L 442.25,135.56 L 444.89,135.27 Z M 464.44,365.24 L 464.47,365.97 L 463.85,365.72 L 464.44,365.24 Z M 473.41,322.48 L 471.62,321.28 L 472.78,321.00 L 473.41,322.48 Z M 432.32,148.10 L 431.52,147.15 L 431.85,147.43 L 432.32,148.10 Z M 432.06,146.81 L 431.35,146.29 L 431.48,146.14 L 432.06,146.81 Z M 442.00,143.11 L 441.22,144.07 L 441.19,143.69 L 442.00,143.11 Z" fill="#4A90D9" stroke="#1a5fa8" stroke-width="1.2"/>
<path d="M 376.17,326.26 L 373.64,323.47 L 367.87,322.00 L 365.42,316.83 L 364.02,317.71 L 360.55,315.98 L 357.54,307.60 L 363.78,309.32 L 368.42,318.51 L 372.82,318.86 L 372.64,322.83 L 374.23,322.34 L 376.17,326.26 Z" fill="#A8C8E8" stroke="none"/>
<path d="M 335.18,234.98 L 334.05,237.51 L 334.61,234.03 L 330.57,232.58 L 335.13,231.53 L 335.18,234.98 Z" fill="#A8C8E8" stroke="none"/>
<path d="M 342.40,195.91 L 335.20,197.47 L 332.71,191.10 L 334.87,193.49 L 335.81,192.58 L 335.83,194.37 L 338.74,192.21 L 337.51,194.37 L 342.40,195.91 Z" fill="#A8C8E8" stroke="none"/>
<path d="M 293.90,211.93 L 289.46,211.10 L 292.79,206.69 L 294.76,206.49 L 292.41,208.77 L 293.90,211.93 Z" fill="#A8C8E8" stroke="none"/>
</svg>