<svg xmlns="http://www.w3.org/2000/svg" width="800" height="500" viewBox="0 0 800 500">
<rect width="800" height="500" fill="#A8C8E8"/>
<path d="M 565.59,498.41 L 567.96,500.00 L 560.31,500.00 L 565.59,498.41 Z M 549.84,488.96 L 546.03,488.96 L 546.25,488.59 L 550.64,487.24 L 549.84,488.96 Z" fill="#E8E0D0" stroke="#B8B0A0" stroke-width="0.5"/>
<path d="M 164.94,457.52 L 177.37,463.98 L 211.86,472.15 L 240.48,486.52 L 243.77,497.11 L 241.10,500.00 L 48.46,500.00 L 44.29,496.84 L 49.74,491.74 L 46.26,490.66 L 51.14,489.41 L 46.92,489.50 L 47.82,486.81 L 30.61,480.64 L 35.29,477.96 L 31.38,465.26 L 29.56,461.00 L 15.16,453.21 L 17.16,446.55 L 24.45,446.53 L 32.17,450.21 L 48.73,451.85 L 55.48,450.83 L 62.50,456.25 L 79.42,456.05 L 79.22,462.57 L 71.50,465.66 L 82.18,469.10 L 90.81,465.77 L 111.84,463.14 L 119.19,466.22 L 128.34,466.77 L 146.01,459.26 L 146.90,455.81 L 164.94,457.52 Z M 25.45,476.87 L 18.35,476.74 L 18.02,472.73 L 26.89,472.89 L 25.45,476.87 Z" fill="#E8E0D0" stroke="#B8B0A0" stroke-width="0.5"/>
<path d="M 183.15,329.60 L 181.56,333.24 L 162.06,330.26 L 159.84,328.16 L 164.81,327.78 L 165.89,326.51 L 161.78,327.55 L 162.62,325.24 L 155.93,325.06 L 157.46,327.44 L 146.31,322.21 L 142.56,322.34 L 145.80,324.37 L 126.01,319.35 L 102.32,321.68 L 79.83,319.88 L 72.12,321.63 L 64.19,320.47 L 69.34,313.06 L 65.58,311.04 L 73.58,302.62 L 52.07,302.35 L 46.49,300.17 L 45.00,302.13 L 24.52,302.19 L 3.27,306.56 L 12.90,311.91 L 3.11,320.15 L 7.17,330.21 L 0.00,334.15 L 0.00,155.79 L 1.52,155.56 L 16.18,159.92 L 22.16,157.09 L 29.24,156.73 L 43.15,161.64 L 31.61,170.36 L 38.08,175.03 L 57.05,175.93 L 65.68,173.16 L 91.21,174.56 L 85.59,178.18 L 96.08,185.71 L 89.17,188.79 L 89.84,193.37 L 75.93,198.25 L 84.44,200.47 L 85.11,206.18 L 73.92,209.74 L 67.19,216.58 L 82.87,218.70 L 100.27,213.04 L 123.48,209.17 L 127.66,205.75 L 135.41,206.52 L 147.27,202.78 L 182.73,208.26 L 182.44,210.68 L 188.40,211.33 L 199.96,207.90 L 212.57,207.50 L 221.43,202.02 L 230.09,201.22 L 226.60,199.26 L 236.99,197.97 L 268.37,201.24 L 278.05,200.57 L 308.81,214.38 L 332.00,219.51 L 329.40,238.44 L 347.16,243.78 L 350.06,247.07 L 374.83,249.42 L 370.65,251.34 L 374.15,253.87 L 389.73,256.36 L 387.23,261.50 L 378.60,263.33 L 384.49,265.03 L 376.31,267.96 L 386.47,270.99 L 379.40,275.32 L 380.65,280.02 L 374.42,282.90 L 349.33,287.43 L 344.33,283.90 L 330.57,282.65 L 314.99,284.33 L 290.09,283.40 L 270.23,284.75 L 253.34,282.58 L 219.39,285.19 L 204.45,288.03 L 189.47,297.00 L 178.84,298.95 L 182.61,300.31 L 164.54,301.17 L 164.26,307.30 L 175.28,313.21 L 174.54,319.96 L 193.79,325.06 L 189.04,330.51 L 204.10,341.78 L 183.15,329.60 Z M 3.57,406.12 L 15.62,410.71 L 14.73,408.05 L 20.81,409.44 L 35.76,430.01 L 44.91,435.67 L 34.77,434.44 L 33.44,428.93 L 24.36,428.86 L 27.62,425.12 L 20.14,423.57 L 15.66,424.88 L 18.00,428.86 L 34.69,436.48 L 43.64,437.04 L 45.65,435.35 L 57.88,440.46 L 73.70,443.13 L 97.78,442.73 L 93.72,441.06 L 111.80,443.45 L 126.38,450.67 L 146.90,455.81 L 146.01,459.26 L 128.34,466.77 L 119.19,466.22 L 111.84,463.14 L 90.81,465.77 L 82.18,469.10 L 71.50,465.66 L 79.22,462.57 L 79.42,456.05 L 62.50,456.25 L 55.48,450.83 L 48.73,451.85 L 32.17,450.21 L 23.72,446.45 L 17.16,446.55 L 14.47,451.90 L 0.00,447.47 L 0.00,397.54 L 3.57,406.12 Z M 9.95,387.96 L 2.17,388.92 L 0.78,385.80 L 10.58,385.36 L 9.95,387.96 Z M 10.38,381.36 L 11.93,383.70 L 4.96,382.54 L 10.38,381.36 Z M 183.17,340.96 L 182.65,343.53 L 178.00,342.65 L 179.71,339.37 L 183.17,340.96 Z M 171.95,334.97 L 161.69,334.82 L 158.91,331.05 L 171.95,334.97 Z" fill="#E8E0D0" stroke="#B8B0A0" stroke-width="0.5"/>
<path d="M 1.88,121.69 L 2.42,128.56 L 15.52,129.96 L 11.93,132.62 L 18.54,134.76 L 29.08,132.59 L 48.12,133.89 L 79.50,127.59 L 85.70,130.87 L 74.10,135.23 L 55.17,137.22 L 41.05,145.80 L 50.19,146.43 L 30.63,147.45 L 20.19,150.22 L 12.56,158.26 L 1.52,155.56 L 0.00,155.79 L 0.00,121.61 L 1.88,121.69 Z" fill="#E8E0D0" stroke="#B8B0A0" stroke-width="0.5"/>
<path d="M 504.00,289.42 L 523.36,302.57 L 513.56,312.66 L 520.69,321.45 L 517.77,326.53 L 510.53,328.91 L 496.65,327.82 L 461.92,334.90 L 440.98,334.92 L 443.15,341.44 L 415.22,339.14 L 409.68,341.84 L 400.89,342.22 L 403.58,349.31 L 425.08,354.32 L 426.24,360.38 L 409.49,357.64 L 405.91,359.09 L 397.35,355.12 L 374.05,356.23 L 367.74,358.86 L 351.41,356.57 L 346.88,357.91 L 349.00,361.99 L 336.20,365.37 L 316.62,365.44 L 310.01,367.81 L 295.05,364.54 L 274.34,364.16 L 268.95,361.81 L 265.83,365.10 L 252.45,366.01 L 244.15,363.55 L 248.60,361.24 L 256.86,360.93 L 259.15,357.67 L 255.90,354.10 L 246.26,352.00 L 241.87,352.24 L 237.35,357.90 L 218.61,357.96 L 213.91,350.78 L 220.34,348.72 L 214.37,345.98 L 221.85,346.43 L 212.51,342.65 L 212.05,343.96 L 206.90,343.66 L 212.93,342.23 L 207.86,341.94 L 209.06,340.57 L 214.52,340.46 L 215.77,340.04 L 208.79,340.33 L 202.71,337.88 L 207.86,340.33 L 206.90,343.38 L 189.56,331.35 L 193.79,325.06 L 175.03,320.29 L 175.28,313.21 L 164.26,307.30 L 163.26,301.67 L 182.61,300.31 L 178.84,298.95 L 189.47,297.00 L 205.50,287.71 L 253.34,282.58 L 270.23,284.75 L 290.09,283.40 L 314.99,284.33 L 330.57,282.65 L 344.33,283.90 L 349.33,287.43 L 358.65,284.64 L 369.10,289.63 L 382.40,288.48 L 396.75,290.12 L 407.34,293.60 L 418.88,293.73 L 424.34,290.83 L 412.40,284.22 L 425.96,284.14 L 429.83,281.58 L 442.70,282.09 L 449.05,279.47 L 469.09,285.34 L 477.71,285.18 L 501.78,279.29 L 510.47,280.46 L 517.65,277.05 L 504.00,289.42 Z M 264.84,366.36 L 264.07,367.01 L 260.58,366.43 L 264.84,366.36 Z M 228.86,362.38 L 223.50,360.48 L 226.67,360.15 L 228.86,362.38 Z M 212.93,349.66 L 210.50,350.05 L 209.25,346.43 L 212.93,349.66 Z M 213.44,345.55 L 212.05,346.43 L 209.70,344.58 L 213.44,345.55 Z M 232.00,365.07 L 229.66,363.64 L 231.73,363.55 L 232.00,365.07 Z" fill="#C8D8E8" stroke="#8BAABB" stroke-width="0.8"/>
<path d="M 797.38,132.60 L 794.08,131.50 L 786.88,132.95 L 783.89,131.06 L 784.28,132.51 L 772.67,134.52 L 774.98,133.25 L 760.49,133.82 L 756.35,132.37 L 753.09,134.41 L 757.35,133.56 L 759.14,133.82 L 753.99,134.83 L 738.69,135.40 L 730.71,138.31 L 729.73,135.98 L 737.82,135.07 L 738.14,134.41 L 729.67,135.75 L 729.73,138.95 L 725.56,138.60 L 726.48,139.04 L 719.18,139.22 L 715.76,139.77 L 719.51,136.72 L 715.95,137.28 L 710.81,134.60 L 713.60,140.08 L 699.72,142.31 L 697.08,147.02 L 711.53,147.02 L 714.28,149.09 L 710.67,149.48 L 709.68,147.59 L 706.88,151.08 L 722.77,154.86 L 705.49,159.63 L 688.99,158.60 L 680.78,159.92 L 677.07,156.38 L 685.22,157.54 L 687.08,155.79 L 674.30,154.05 L 676.08,152.38 L 669.50,150.72 L 676.91,149.84 L 671.91,150.35 L 670.04,146.89 L 667.21,147.88 L 663.35,145.35 L 670.47,136.28 L 681.24,136.14 L 682.63,133.38 L 673.77,134.12 L 670.98,131.50 L 670.98,133.54 L 662.57,132.80 L 664.43,130.62 L 659.73,131.65 L 658.81,128.02 L 649.98,129.76 L 657.33,131.51 L 654.48,133.41 L 635.02,134.68 L 634.60,133.54 L 627.79,135.32 L 621.06,134.29 L 628.06,133.02 L 627.59,131.06 L 613.45,130.80 L 608.50,129.32 L 613.18,127.59 L 604.83,126.50 L 607.70,128.05 L 603.35,128.46 L 608.92,130.19 L 601.02,131.06 L 599.62,128.02 L 596.79,128.89 L 594.47,128.30 L 596.37,126.56 L 590.75,128.15 L 593.54,124.98 L 589.31,123.67 L 583.74,125.70 L 581.46,124.40 L 582.81,129.03 L 588.77,129.46 L 582.34,131.92 L 576.81,131.65 L 582.34,129.61 L 573.52,128.46 L 569.60,132.29 L 564.65,133.22 L 567.49,131.36 L 564.31,130.22 L 549.69,132.21 L 555.77,133.54 L 548.30,134.68 L 537.47,130.11 L 505.92,131.13 L 500.79,128.62 L 482.43,126.66 L 482.87,124.19 L 458.62,123.31 L 459.29,117.93 L 450.03,113.38 L 453.45,110.06 L 460.46,110.39 L 467.93,105.78 L 447.37,103.07 L 431.55,104.57 L 423.16,102.02 L 404.22,103.51 L 383.65,100.23 L 367.35,93.75 L 359.78,96.12 L 337.26,98.03 L 332.35,99.68 L 334.10,103.10 L 325.74,105.34 L 315.72,104.96 L 301.20,108.13 L 294.16,106.95 L 294.46,105.21 L 283.96,105.90 L 275.29,111.92 L 254.02,105.74 L 244.26,110.35 L 231.06,105.98 L 211.96,113.55 L 173.76,106.39 L 156.76,113.96 L 141.58,113.19 L 132.93,114.64 L 120.77,112.52 L 108.97,117.46 L 128.57,130.57 L 123.97,131.74 L 122.53,137.02 L 129.93,138.86 L 125.32,140.79 L 109.09,138.68 L 90.49,139.74 L 79.50,127.59 L 48.12,133.89 L 29.08,132.59 L 16.86,134.58 L 11.66,132.16 L 15.52,129.96 L 2.42,128.56 L 1.88,121.69 L 0.00,121.61 L 0.00,0.00 L 800.00,0.00 L 800.00,132.16 L 797.38,132.60 Z M 746.07,174.72 L 740.48,173.42 L 740.60,175.89 L 725.91,182.86 L 719.02,182.56 L 724.18,184.30 L 726.04,182.97 L 721.35,188.12 L 715.78,189.92 L 719.96,190.52 L 720.68,188.64 L 722.79,190.68 L 688.74,196.47 L 689.15,199.22 L 684.27,199.06 L 687.34,198.65 L 687.81,197.77 L 669.13,198.93 L 668.16,201.53 L 663.98,201.53 L 668.67,201.83 L 666.59,202.92 L 656.55,203.72 L 656.55,201.83 L 650.93,203.23 L 648.29,201.19 L 629.42,201.22 L 627.61,199.66 L 596.90,196.40 L 592.96,180.32 L 618.93,173.51 L 639.27,171.09 L 636.95,169.35 L 629.47,170.80 L 635.72,167.13 L 657.94,168.03 L 654.22,166.01 L 667.29,164.76 L 675.21,166.44 L 682.51,165.17 L 685.74,166.97 L 697.10,163.56 L 709.87,163.75 L 714.84,166.60 L 712.48,163.27 L 727.64,166.61 L 724.95,163.51 L 732.55,161.52 L 740.07,164.76 L 750.02,165.09 L 755.19,171.67 L 746.07,174.72 Z M 729.46,145.16 L 726.51,146.28 L 723.68,145.56 L 729.46,145.16 Z M 721.59,145.14 L 716.45,143.69 L 703.14,144.11 L 712.94,141.79 L 723.68,143.03 L 721.59,145.14 Z M 723.38,141.60 L 714.84,140.04 L 724.18,140.50 L 728.40,139.77 L 723.38,141.60 Z M 767.83,254.17 L 768.60,254.09 L 768.60,254.24 L 767.83,254.17 Z M 624.51,142.93 L 626.70,142.43 L 627.04,143.14 L 624.51,142.93 Z M 795.50,238.35 L 795.96,238.45 L 795.74,238.54 L 795.50,238.35 Z M 718.80,152.37 L 717.53,152.56 L 714.84,151.12 L 718.80,152.37 Z" fill="#C8D8E8" stroke="#8BAABB" stroke-width="0.8"/>
<path d="M 182.15,124.74 L 186.21,129.90 L 193.12,129.41 L 196.83,126.12 L 199.58,128.91 L 206.43,128.22 L 208.22,131.64 L 196.46,138.42 L 218.83,146.89 L 239.96,147.72 L 256.02,151.09 L 263.43,147.08 L 284.33,144.64 L 319.92,151.30 L 302.54,155.67 L 324.39,157.76 L 322.77,160.48 L 339.84,161.27 L 342.67,165.08 L 331.18,166.93 L 332.84,169.41 L 319.85,173.29 L 293.63,171.20 L 278.11,171.74 L 284.17,175.91 L 267.73,179.80 L 288.10,182.27 L 326.39,190.46 L 353.78,192.53 L 357.64,194.29 L 351.55,197.69 L 357.42,200.81 L 370.99,204.11 L 377.87,203.48 L 395.32,214.22 L 426.79,223.02 L 433.53,222.44 L 442.17,228.56 L 449.87,228.70 L 450.97,235.68 L 459.81,240.23 L 464.70,240.71 L 471.79,238.42 L 479.27,243.13 L 489.60,243.97 L 502.58,248.27 L 511.88,248.18 L 507.79,251.35 L 494.91,252.61 L 492.36,254.43 L 527.43,265.11 L 522.32,269.56 L 512.55,270.26 L 520.22,273.19 L 510.47,280.46 L 501.78,279.29 L 489.09,283.33 L 484.08,282.75 L 471.06,285.46 L 449.05,279.47 L 440.97,282.31 L 429.83,281.58 L 425.96,284.14 L 412.09,284.45 L 424.34,290.83 L 418.88,293.73 L 407.34,293.60 L 396.75,290.12 L 382.40,288.48 L 370.89,289.76 L 363.59,288.10 L 358.65,284.64 L 374.42,282.90 L 380.65,280.02 L 379.40,275.32 L 386.47,270.99 L 376.31,267.96 L 384.49,265.03 L 378.60,263.33 L 387.23,261.50 L 389.73,256.36 L 374.15,253.87 L 370.65,251.34 L 374.83,249.42 L 350.06,247.07 L 347.16,243.78 L 330.12,238.81 L 328.44,228.42 L 333.61,220.58 L 308.81,214.38 L 276.37,200.31 L 269.47,201.31 L 230.87,198.30 L 225.91,199.78 L 230.09,201.22 L 221.43,202.02 L 212.57,207.50 L 199.96,207.90 L 188.40,211.33 L 182.44,210.68 L 182.73,208.26 L 147.27,202.78 L 135.41,206.52 L 127.66,205.75 L 123.48,209.17 L 100.27,213.04 L 82.87,218.70 L 66.11,216.33 L 73.92,209.74 L 85.11,206.18 L 84.44,200.47 L 75.93,198.25 L 89.84,193.37 L 89.17,188.79 L 96.08,185.71 L 85.59,178.18 L 91.21,174.56 L 65.68,173.16 L 57.05,175.93 L 38.08,175.03 L 31.61,170.36 L 43.00,161.43 L 29.24,156.73 L 22.16,157.09 L 16.18,159.92 L 12.60,157.32 L 24.49,148.85 L 50.19,146.43 L 41.05,145.80 L 55.17,137.22 L 63.75,137.16 L 84.69,132.12 L 91.54,140.02 L 109.09,138.68 L 126.05,140.63 L 129.93,138.86 L 122.57,136.66 L 128.57,130.57 L 108.97,117.46 L 122.40,112.25 L 131.21,114.54 L 141.58,113.19 L 182.15,124.74 Z" fill="#C8D8E8" stroke="#8BAABB" stroke-width="0.8"/>
<path d="M 520.22,273.19 L 512.55,270.26 L 522.32,269.56 L 527.43,265.11 L 492.36,254.43 L 494.91,252.61 L 507.79,251.35 L 511.88,248.18 L 502.58,248.27 L 489.60,243.97 L 479.27,243.13 L 471.79,238.42 L 464.70,240.71 L 459.81,240.23 L 450.97,235.68 L 449.87,228.70 L 442.17,228.56 L 433.53,222.44 L 426.79,223.02 L 395.32,214.22 L 377.87,203.48 L 370.99,204.11 L 357.42,200.81 L 351.55,197.69 L 357.64,194.29 L 353.78,192.53 L 326.39,190.46 L 288.10,182.27 L 267.73,179.80 L 284.17,175.91 L 278.11,171.74 L 293.63,171.20 L 319.85,173.29 L 332.84,169.41 L 331.18,166.93 L 342.67,165.08 L 339.84,161.27 L 322.77,160.48 L 324.39,157.76 L 302.54,155.67 L 319.92,151.30 L 284.33,144.64 L 263.43,147.08 L 256.02,151.09 L 239.96,147.72 L 217.83,146.60 L 196.46,138.42 L 208.22,131.64 L 206.43,128.22 L 199.58,128.91 L 196.83,126.12 L 193.12,129.41 L 186.21,129.90 L 182.15,124.74 L 150.00,114.24 L 156.76,113.96 L 172.06,106.46 L 211.96,113.55 L 231.06,105.98 L 244.26,110.35 L 254.02,105.74 L 275.29,111.92 L 283.96,105.90 L 294.46,105.21 L 294.16,106.95 L 301.20,108.13 L 315.72,104.96 L 325.74,105.34 L 334.10,103.10 L 332.35,99.68 L 337.26,98.03 L 359.78,96.12 L 367.35,93.75 L 383.65,100.23 L 404.22,103.51 L 423.16,102.02 L 431.55,104.57 L 447.37,103.07 L 467.93,105.78 L 460.46,110.39 L 453.45,110.06 L 450.03,113.38 L 459.29,117.93 L 458.62,123.31 L 482.87,124.19 L 482.43,126.66 L 500.79,128.62 L 505.92,131.13 L 535.17,129.93 L 549.69,133.54 L 545.50,134.45 L 544.14,132.68 L 534.42,132.81 L 535.75,134.12 L 522.42,137.60 L 510.49,136.86 L 506.77,138.75 L 507.70,143.23 L 495.64,145.14 L 486.73,144.69 L 492.38,142.96 L 483.97,143.10 L 482.30,144.85 L 472.28,143.98 L 478.36,145.72 L 473.24,146.30 L 466.74,144.72 L 468.49,143.29 L 457.87,143.39 L 465.56,145.12 L 461.81,146.30 L 469.02,150.64 L 454.10,150.94 L 456.69,152.40 L 449.46,153.53 L 453.64,153.40 L 449.46,155.73 L 454.61,155.50 L 454.50,159.15 L 453.76,159.39 L 450.71,158.44 L 448.07,158.46 L 452.94,160.07 L 440.08,160.49 L 426.15,165.14 L 421.46,165.72 L 421.46,164.28 L 411.14,166.56 L 399.93,173.37 L 401.15,180.21 L 387.85,186.45 L 397.20,193.28 L 398.13,191.24 L 420.53,201.83 L 432.60,202.99 L 437.76,206.05 L 443.76,204.69 L 449.88,208.37 L 443.85,209.80 L 448.07,213.43 L 439.66,212.27 L 433.58,212.13 L 448.50,214.02 L 466.16,221.37 L 489.84,226.60 L 496.10,230.18 L 491.88,231.27 L 496.96,230.42 L 525.47,237.21 L 512.40,235.92 L 527.36,237.95 L 539.48,241.60 L 537.51,243.01 L 553.21,242.30 L 553.96,244.64 L 564.20,245.05 L 559.97,246.49 L 565.83,247.73 L 563.73,249.55 L 567.91,249.41 L 566.99,246.20 L 572.84,246.35 L 569.29,249.72 L 596.81,259.84 L 593.09,261.15 L 597.74,260.42 L 602.90,263.91 L 606.61,261.72 L 615.06,265.50 L 608.99,267.57 L 624.21,276.82 L 622.51,280.03 L 639.27,294.58 L 639.04,297.05 L 635.47,294.27 L 633.37,296.06 L 638.37,301.90 L 633.22,299.43 L 632.65,299.77 L 641.47,303.27 L 639.27,304.51 L 635.03,302.85 L 634.15,304.80 L 639.27,305.66 L 639.27,310.31 L 650.00,314.96 L 643.45,316.83 L 649.07,322.21 L 645.81,319.74 L 641.63,320.32 L 642.78,317.41 L 632.30,320.60 L 641.90,325.90 L 638.59,326.86 L 628.54,324.97 L 634.82,327.82 L 630.90,330.18 L 638.37,337.01 L 633.65,336.85 L 633.22,333.95 L 630.38,331.55 L 632.52,334.78 L 626.91,337.17 L 632.30,337.08 L 634.88,339.88 L 627.61,343.38 L 619.73,342.06 L 618.73,348.18 L 607.33,348.45 L 599.93,351.61 L 586.45,352.20 L 570.71,357.29 L 557.54,357.18 L 550.17,361.81 L 538.30,361.96 L 500.74,368.60 L 494.20,366.51 L 481.65,366.43 L 484.46,365.48 L 484.40,363.76 L 483.84,362.72 L 481.15,361.81 L 484.06,365.10 L 481.65,363.39 L 479.75,366.74 L 478.36,363.90 L 474.17,362.81 L 465.05,362.35 L 464.08,365.55 L 453.77,367.03 L 464.60,366.71 L 467.99,370.58 L 442.91,369.90 L 468.45,373.28 L 458.33,377.15 L 446.08,375.36 L 438.66,371.94 L 434.04,371.07 L 445.59,375.86 L 461.56,378.80 L 459.68,379.94 L 454.10,380.36 L 424.03,371.77 L 421.88,371.65 L 453.30,382.13 L 451.17,385.39 L 440.37,386.17 L 401.85,376.44 L 427.58,386.32 L 427.33,389.96 L 382.77,395.04 L 353.01,405.51 L 327.63,406.25 L 343.60,403.71 L 336.12,403.86 L 340.77,401.81 L 330.77,401.63 L 336.34,382.16 L 338.81,379.76 L 349.84,378.02 L 353.82,379.64 L 353.40,377.61 L 330.59,371.82 L 319.77,373.55 L 313.77,367.74 L 310.01,368.60 L 308.76,367.73 L 316.62,365.44 L 336.20,365.37 L 350.65,361.50 L 346.88,357.91 L 351.41,356.57 L 367.74,358.86 L 374.05,356.23 L 397.35,355.12 L 405.91,359.09 L 409.49,357.64 L 426.24,360.38 L 425.08,354.32 L 403.58,349.31 L 400.89,342.22 L 409.68,341.84 L 415.22,339.14 L 443.15,341.44 L 440.98,334.92 L 461.92,334.90 L 496.65,327.82 L 510.53,328.91 L 517.23,327.01 L 520.69,321.45 L 513.56,312.66 L 523.36,302.57 L 504.00,289.42 L 520.22,273.19 Z M 433.53,386.27 L 427.55,385.68 L 422.74,383.54 L 420.53,381.67 L 433.53,386.27 Z M 465.38,371.62 L 463.45,371.82 L 449.00,370.35 L 465.38,371.62 Z M 496.60,367.60 L 488.16,369.77 L 487.63,368.34 L 496.60,367.60 Z M 480.68,368.04 L 474.60,368.76 L 477.29,365.58 L 480.68,368.04 Z M 472.28,364.70 L 473.47,363.75 L 472.28,363.26 L 477.43,363.97 L 476.03,365.34 L 472.28,364.70 Z M 639.27,330.32 L 635.05,329.46 L 636.95,329.30 L 639.27,330.32 Z M 458.80,404.15 L 453.53,405.07 L 453.03,404.00 L 458.80,404.15 Z M 450.62,380.23 L 442.91,377.90 L 444.31,378.03 L 450.62,380.23 Z M 280.32,374.58 L 281.54,376.44 L 267.57,368.75 L 278.37,367.07 L 283.63,368.76 L 280.32,374.58 Z M 471.35,368.04 L 466.62,366.79 L 465.35,362.52 L 471.87,363.62 L 471.35,366.15 L 471.35,368.04 Z M 485.37,150.08 L 476.30,147.27 L 479.33,146.43 L 487.70,148.04 L 485.37,150.08 Z M 474.17,147.59 L 473.62,148.27 L 466.62,146.81 L 467.62,145.28 L 474.17,147.59 Z M 519.88,144.40 L 519.33,145.53 L 513.80,147.75 L 519.88,144.40 Z M 536.19,144.11 L 532.48,145.14 L 533.87,144.19 L 536.19,144.11 Z M 517.06,145.43 L 509.11,145.99 L 518.49,142.96 L 517.06,145.43 Z M 521.68,144.17 L 520.30,144.11 L 522.67,141.93 L 521.68,144.17 Z M 514.27,141.79 L 507.61,142.56 L 513.22,137.98 L 521.74,139.33 L 514.27,141.79 Z M 537.84,136.44 L 530.65,137.31 L 535.58,136.28 L 537.84,136.44 Z M 550.17,135.27 L 539.48,136.44 L 541.35,135.56 L 550.17,135.27 Z M 615.56,365.24 L 615.68,365.97 L 613.60,365.72 L 615.56,365.24 Z M 645.59,322.48 L 639.59,321.28 L 643.46,321.00 L 645.59,322.48 Z M 508.11,148.10 L 505.44,147.15 L 506.53,147.43 L 508.11,148.10 Z M 507.25,146.81 L 504.86,146.29 L 505.32,146.14 L 507.25,146.81 Z M 540.51,143.11 L 537.88,144.07 L 537.81,143.69 L 540.51,143.11 Z" fill="#4A90D9" stroke="#1a5fa8" stroke-width="1.2"/>
<path d="M 320.27,326.26 L 311.82,323.47 L 292.50,322.00 L 284.33,316.83 L 279.64,317.71 L 268.02,315.98 L 257.94,307.60 L 278.82,309.32 L 294.35,318.51 L 309.07,318.86 L 308.47,322.83 L 313.78,322.34 L 320.27,326.26 Z" fill="#A8C8E8" stroke="none"/>
<path d="M 183.15,234.98 L 179.39,237.51 L 181.25,234.03 L 167.73,232.58 L 182.97,231.53 L 183.15,234.98 Z" fill="#A8C8E8" stroke="none"/>
<path d="M 207.32,195.91 L 183.21,197.47 L 174.88,191.10 L 182.13,193.49 L 185.28,192.58 L 185.34,194.37 L 195.07,192.21 L 190.95,194.37 L 207.32,195.91 Z" fill="#A8C8E8" stroke="none"/>
<path d="M 45.05,211.93 L 30.21,211.10 L 41.35,206.69 L 47.94,206.49 L 40.07,208.77 L 45.05,211.93 Z" fill="#A8C8E8" stroke="none"/>
</svg>