<svg xmlns="http://www.w3.org/2000/svg" width="800" height="500" viewBox="0 0 800 500">
<rect width="800" height="500" fill="#A8C8E8"/>
<path d="M 397.11,466.48 L 391.52,467.91 L 386.03,465.54 L 383.82,456.10 L 391.31,454.00 L 392.14,459.10 L 397.55,458.19 L 397.11,466.48 Z M 327.49,427.18 L 324.67,427.48 L 325.32,427.17 L 327.49,427.18 Z M 366.40,447.16 L 355.10,441.64 L 350.96,435.53 L 358.06,431.10 L 351.94,429.28 L 352.54,427.01 L 362.66,426.88 L 361.84,434.77 L 368.13,440.59 L 366.40,447.16 Z M 332.53,419.76 L 334.64,421.80 L 328.97,426.88 L 333.55,415.80 L 331.88,413.33 L 334.95,414.34 L 332.53,419.76 Z M 346.69,500.00 L 346.45,500.00 L 343.43,495.91 L 340.82,500.00 L 340.80,500.00 L 331.13,493.28 L 326.58,496.35 L 326.38,490.44 L 322.71,492.84 L 322.05,489.25 L 312.90,486.87 L 315.17,484.01 L 310.91,478.20 L 308.49,481.36 L 300.47,476.77 L 297.21,470.73 L 294.91,472.54 L 288.13,469.16 L 288.13,445.22 L 292.63,451.05 L 323.81,468.08 L 336.95,482.09 L 347.54,486.41 L 351.53,493.28 L 346.69,500.00 Z" fill="#E8E0D0" stroke="#B8B0A0" stroke-width="0.5"/>
<path d="M 349.43,34.73 L 343.54,34.88 L 340.37,30.69 L 349.43,34.73 Z M 329.59,17.28 L 328.38,14.59 L 330.91,13.16 L 329.59,17.28 Z M 426.28,59.63 L 425.30,60.03 L 425.11,59.65 L 426.28,59.63 Z M 349.24,31.63 L 347.82,32.26 L 347.77,31.05 L 349.24,31.63 Z" fill="#E8E0D0" stroke="#B8B0A0" stroke-width="0.5"/>
<path d="M 469.92,406.25 L 464.34,404.92 L 465.08,402.09 L 468.62,401.95 L 469.92,406.25 Z M 454.49,375.24 L 451.75,380.90 L 442.67,373.61 L 443.71,367.16 L 447.59,365.97 L 454.49,375.24 Z M 445.03,352.23 L 433.02,346.89 L 433.89,337.02 L 439.91,336.42 L 447.59,349.43 L 445.03,352.23 Z M 412.02,300.90 L 402.14,299.41 L 404.73,297.00 L 402.32,295.45 L 398.13,296.43 L 405.30,288.35 L 410.74,288.95 L 414.75,295.25 L 412.02,300.90 Z M 401.79,287.88 L 404.15,288.08 L 402.13,288.95 L 400.39,290.46 L 401.79,287.88 Z M 405.95,283.20 L 407.35,286.02 L 405.76,285.62 L 405.95,283.20 Z M 407.53,268.87 L 405.29,269.05 L 409.56,267.18 L 407.53,268.87 Z M 414.10,260.55 L 415.95,259.79 L 416.73,260.59 L 414.10,260.55 Z M 397.84,246.55 L 411.88,256.45 L 411.59,258.53 L 399.83,257.04 L 397.84,246.55 Z M 405.00,244.93 L 404.15,243.28 L 406.40,243.28 L 405.00,244.93 Z M 401.11,240.79 L 402.71,240.31 L 401.99,243.14 L 401.11,240.79 Z M 392.74,235.82 L 388.18,231.75 L 398.98,225.09 L 405.58,234.93 L 392.74,235.82 Z M 381.83,245.39 L 376.04,243.12 L 369.23,246.33 L 365.73,230.00 L 356.24,225.21 L 357.82,216.83 L 364.11,217.63 L 366.68,225.39 L 382.32,236.23 L 383.02,242.09 L 383.99,239.87 L 381.83,245.39 Z M 353.81,208.68 L 353.25,206.33 L 359.84,205.98 L 358.67,210.76 L 353.81,208.68 Z M 358.13,201.36 L 358.22,204.50 L 354.66,203.63 L 358.13,201.36 Z M 403.10,217.86 L 400.34,221.27 L 396.81,206.91 L 398.27,198.22 L 403.10,217.86 Z M 385.08,199.15 L 378.17,197.63 L 383.66,191.98 L 391.92,190.31 L 385.08,199.15 Z M 354.31,175.41 L 354.11,174.94 L 356.66,176.13 L 354.31,175.41 Z M 396.44,174.37 L 399.29,195.25 L 397.29,195.25 L 396.44,174.37 Z M 339.82,205.38 L 334.07,194.81 L 331.57,162.62 L 339.53,170.18 L 342.29,185.02 L 346.74,184.83 L 348.61,175.92 L 353.55,174.94 L 351.81,179.13 L 356.11,183.62 L 360.41,199.74 L 339.82,205.38 Z M 375.25,142.72 L 373.54,147.50 L 366.83,147.77 L 367.09,142.97 L 371.58,140.60 L 375.25,142.72 Z M 366.40,124.79 L 370.49,121.77 L 374.71,128.24 L 368.98,130.94 L 366.40,124.79 Z M 379.84,120.03 L 376.59,121.13 L 378.04,118.65 L 379.84,120.03 Z M 365.56,113.46 L 365.47,114.59 L 363.26,114.95 L 365.56,113.46 Z M 333.88,100.30 L 335.23,100.95 L 333.94,102.61 L 333.88,100.30 Z M 330.46,98.32 L 330.08,93.75 L 331.78,94.35 L 330.46,98.32 Z M 335.84,109.02 L 336.48,108.68 L 337.10,109.37 L 335.84,109.02 Z" fill="#4A90D9" stroke="#1a5fa8" stroke-width="1.2"/>
</svg>