<svg xmlns="http://www.w3.org/2000/svg" width="800" height="500" viewBox="0 0 800 500">
<rect width="800" height="500" fill="#A8C8E8"/>
<path d="M 389.67,466.48 L 369.69,467.91 L 350.03,465.54 L 342.17,456.10 L 368.93,454.00 L 371.89,459.10 L 391.26,458.19 L 389.67,466.48 Z M 140.75,427.18 L 130.66,427.48 L 132.98,427.17 L 140.75,427.18 Z M 279.85,447.16 L 239.47,441.64 L 224.65,435.53 L 250.03,431.10 L 228.17,429.28 L 230.32,427.01 L 266.49,426.88 L 263.54,434.77 L 286.04,440.59 L 279.85,447.16 Z M 158.77,419.76 L 166.30,421.80 L 146.03,426.88 L 162.42,415.80 L 156.45,413.33 L 167.41,414.34 L 158.77,419.76 Z M 209.39,500.00 L 208.53,500.00 L 197.72,495.91 L 188.39,500.00 L 188.32,500.00 L 153.74,493.28 L 137.49,496.35 L 136.76,490.44 L 123.66,492.84 L 121.30,489.25 L 88.58,486.87 L 96.71,484.01 L 81.47,478.20 L 72.81,481.36 L 44.12,476.77 L 32.49,470.73 L 24.25,472.54 L 0.00,469.16 L 0.00,445.22 L 16.09,451.05 L 127.60,468.08 L 174.55,482.09 L 212.41,486.41 L 226.68,493.28 L 209.39,500.00 Z" fill="#E8E0D0" stroke="#B8B0A0" stroke-width="0.5"/>
<path d="M 219.18,34.73 L 198.12,34.88 L 186.81,30.69 L 219.18,34.73 Z M 148.26,17.28 L 143.92,14.59 L 152.97,13.16 L 148.26,17.28 Z M 493.97,59.63 L 490.47,60.03 L 489.79,59.65 L 493.97,59.63 Z M 218.51,31.63 L 213.43,32.26 L 213.24,31.05 L 218.51,31.63 Z" fill="#E8E0D0" stroke="#B8B0A0" stroke-width="0.5"/>
<path d="M 650.00,406.25 L 630.06,404.92 L 632.68,402.09 L 645.34,401.95 L 650.00,406.25 Z M 594.81,375.24 L 585.04,380.90 L 552.56,373.61 L 556.27,367.16 L 570.18,365.97 L 594.81,375.24 Z M 561.00,352.23 L 518.06,346.89 L 521.17,337.02 L 542.69,336.42 L 570.18,349.43 L 561.00,352.23 Z M 442.98,300.90 L 407.65,299.41 L 416.90,297.00 L 408.31,295.45 L 393.30,296.43 L 418.94,288.35 L 438.39,288.95 L 452.75,295.25 L 442.98,300.90 Z M 406.40,287.88 L 414.83,288.08 L 407.61,288.95 L 401.40,290.46 L 406.40,287.88 Z M 421.26,283.20 L 426.26,286.02 L 420.61,285.62 L 421.26,283.20 Z M 426.92,268.87 L 418.91,269.05 L 434.18,267.18 L 426.92,268.87 Z M 450.42,260.55 L 457.05,259.79 L 459.83,260.59 L 450.42,260.55 Z M 392.27,246.55 L 442.47,256.45 L 441.45,258.53 L 399.41,257.04 L 392.27,246.55 Z M 417.89,244.93 L 414.83,243.28 L 422.88,243.28 L 417.89,244.93 Z M 403.97,240.79 L 409.69,240.31 L 407.13,243.14 L 403.97,240.79 Z M 374.03,235.82 L 357.74,231.75 L 396.36,225.09 L 419.96,234.93 L 374.03,235.82 Z M 335.03,245.39 L 314.34,243.12 L 289.99,246.33 L 277.47,230.00 L 243.55,225.21 L 249.19,216.83 L 271.69,217.63 L 280.87,225.39 L 336.80,236.23 L 339.30,242.09 L 342.77,239.87 L 335.03,245.39 Z M 234.84,208.68 L 232.84,206.33 L 256.39,205.98 L 252.24,210.76 L 234.84,208.68 Z M 250.30,201.36 L 250.61,204.50 L 237.89,203.63 L 250.30,201.36 Z M 411.09,217.86 L 401.23,221.27 L 388.60,206.91 L 393.81,198.22 L 411.09,217.86 Z M 346.66,199.15 L 321.94,197.63 L 341.57,191.98 L 371.11,190.31 L 346.66,199.15 Z M 236.62,175.41 L 235.93,174.94 L 245.03,176.13 L 236.62,175.41 Z M 387.26,174.37 L 397.45,195.25 L 390.31,195.25 L 387.26,174.37 Z M 184.82,205.38 L 164.26,194.81 L 155.32,162.62 L 183.80,170.18 L 193.66,185.02 L 209.57,184.83 L 216.25,175.92 L 233.90,174.94 L 227.70,179.13 L 243.06,183.62 L 258.43,199.74 L 184.82,205.38 Z M 311.52,142.72 L 305.40,147.50 L 281.41,147.77 L 282.34,142.97 L 298.37,140.60 L 311.52,142.72 Z M 279.85,124.79 L 294.49,121.77 L 309.58,128.24 L 289.10,130.94 L 279.85,124.79 Z M 327.91,120.03 L 316.29,121.13 L 321.50,118.65 L 327.91,120.03 Z M 276.88,113.46 L 276.55,114.59 L 268.63,114.95 L 276.88,113.46 Z M 163.59,100.30 L 168.43,100.95 L 163.81,102.61 L 163.59,100.30 Z M 151.36,98.32 L 150.00,93.75 L 156.10,94.35 L 151.36,98.32 Z M 170.58,109.02 L 172.88,108.68 L 175.10,109.37 L 170.58,109.02 Z" fill="#4A90D9" stroke="#1a5fa8" stroke-width="1.2"/>
</svg>