<svg xmlns="http://www.w3.org/2000/svg" width="800" height="500" viewBox="0 0 800 500">
<rect width="800" height="500" fill="#A8C8E8"/>
<path d="M 531.73,469.01 L 584.16,470.33 L 584.16,500.00 L 494.43,500.00 L 531.73,469.01 Z" fill="#E8E0D0" stroke="#B8B0A0" stroke-width="0.5"/>
<path d="M 565.90,287.52 L 584.16,268.51 L 584.16,312.08 L 565.90,287.52 Z M 575.14,246.98 L 581.77,221.84 L 575.38,209.36 L 584.16,206.45 L 584.16,260.08 L 575.14,246.98 Z M 566.41,54.00 L 572.18,25.03 L 584.16,19.09 L 584.16,101.48 L 566.41,54.00 Z" fill="#E8E0D0" stroke="#B8B0A0" stroke-width="0.5"/>
<path d="M 251.26,15.47 L 241.72,27.55 L 215.84,22.72 L 215.84,0.00 L 233.75,0.00 L 251.26,15.47 Z M 234.02,61.16 L 237.23,92.05 L 220.77,85.11 L 215.84,86.67 L 215.84,40.38 L 234.02,61.16 Z" fill="#E8E0D0" stroke="#B8B0A0" stroke-width="0.5"/>
<path d="M 353.58,378.04 L 357.53,401.29 L 347.10,406.86 L 358.16,430.13 L 353.54,455.94 L 375.41,500.00 L 239.84,500.00 L 237.91,492.33 L 236.09,499.94 L 236.02,500.00 L 232.89,500.00 L 240.34,452.68 L 226.14,428.13 L 240.34,412.52 L 231.63,401.27 L 251.43,398.16 L 248.98,364.80 L 222.90,359.56 L 223.75,320.20 L 215.84,312.03 L 215.84,302.77 L 261.37,234.18 L 271.17,262.34 L 300.50,249.34 L 323.35,286.50 L 351.42,300.44 L 364.96,342.65 L 353.58,378.04 Z" fill="#C8D8E8" stroke="#8BAABB" stroke-width="0.8"/>
<path d="M 376.89,359.99 L 386.33,323.67 L 422.42,305.87 L 444.33,322.47 L 461.31,297.92 L 557.13,278.63 L 584.16,312.39 L 584.16,470.33 L 531.73,469.01 L 494.43,500.00 L 375.41,500.00 L 353.54,455.94 L 358.16,430.13 L 347.10,406.86 L 357.53,401.29 L 353.58,378.04 L 361.26,356.31 L 376.89,359.99 Z" fill="#C8D8E8" stroke="#8BAABB" stroke-width="0.8"/>
<path d="M 249.72,152.71 L 287.83,162.44 L 336.68,197.28 L 317.09,220.47 L 299.03,220.36 L 307.94,234.44 L 293.88,256.68 L 273.12,263.35 L 264.00,235.54 L 252.45,241.96 L 215.84,301.24 L 215.84,121.16 L 249.72,152.71 Z M 223.75,320.20 L 222.90,359.56 L 215.84,355.35 L 215.84,310.62 L 223.75,320.20 Z" fill="#C8D8E8" stroke="#8BAABB" stroke-width="0.8"/>
<path d="M 572.18,25.03 L 566.41,54.00 L 584.16,101.48 L 584.16,206.45 L 575.38,209.36 L 581.77,221.84 L 575.14,246.98 L 584.16,257.39 L 584.16,268.69 L 574.98,285.57 L 557.13,278.63 L 477.27,298.67 L 470.48,283.06 L 482.15,276.08 L 499.06,231.86 L 454.67,220.22 L 458.09,204.15 L 441.07,197.97 L 421.74,166.07 L 392.50,153.61 L 390.30,140.02 L 365.51,149.31 L 370.09,172.08 L 348.87,188.05 L 350.80,202.81 L 335.73,207.20 L 334.78,194.78 L 287.83,162.44 L 249.72,152.71 L 215.84,119.51 L 215.84,89.08 L 237.23,92.05 L 239.28,79.12 L 215.84,36.33 L 215.84,24.49 L 241.72,27.55 L 252.11,18.41 L 230.00,0.00 L 584.16,0.00 L 584.16,19.09 L 572.18,25.03 Z" fill="#C8D8E8" stroke="#8BAABB" stroke-width="0.8"/>
<path d="M 307.94,234.44 L 299.97,219.08 L 350.80,202.81 L 348.87,188.05 L 372.51,166.90 L 365.51,149.31 L 387.42,139.14 L 392.50,153.61 L 421.74,166.07 L 441.07,197.97 L 458.09,204.15 L 454.67,220.22 L 500.03,235.32 L 470.48,283.06 L 476.01,298.01 L 453.30,301.51 L 445.53,322.21 L 422.42,305.87 L 386.33,323.67 L 374.42,360.86 L 361.26,356.31 L 353.62,303.49 L 323.35,286.50 L 303.46,251.06 L 307.94,234.44 Z" fill="#4A90D9" stroke="#1a5fa8" stroke-width="1.2"/>
<path d="M 215.84,315.16 L 215.84,295.59 L 219.70,296.62 L 230.91,283.55 L 222.98,300.39 L 236.20,318.83 L 215.84,315.16 Z" fill="#A8C8E8" stroke="none"/>
<path d="M 387.41,500.00 L 371.80,500.00 L 371.32,465.46 L 390.22,475.17 L 387.41,500.00 Z" fill="#A8C8E8" stroke="none"/>
<path d="M 407.03,490.25 L 414.26,500.00 L 405.32,500.00 L 407.03,490.25 Z" fill="#A8C8E8" stroke="none"/>
</svg>