<svg xmlns="http://www.w3.org/2000/svg" width="800" height="500" viewBox="0 0 800 500">
<rect width="800" height="500" fill="#A8C8E8"/>
<path d="M 686.12,469.01 L 800.00,470.33 L 800.00,500.00 L 605.10,500.00 L 686.12,469.01 Z" fill="#E8E0D0" stroke="#B8B0A0" stroke-width="0.5"/>
<path d="M 760.33,287.52 L 800.00,268.51 L 800.00,312.08 L 760.33,287.52 Z M 780.40,246.98 L 794.80,221.84 L 780.92,209.36 L 800.00,206.45 L 800.00,260.08 L 780.40,246.98 Z M 761.44,54.00 L 773.97,25.03 L 800.00,19.09 L 800.00,101.48 L 761.44,54.00 Z" fill="#E8E0D0" stroke="#B8B0A0" stroke-width="0.5"/>
<path d="M 76.93,15.47 L 56.21,27.55 L 0.00,22.72 L 0.00,0.00 L 38.90,0.00 L 76.93,15.47 Z M 39.49,61.16 L 46.47,92.05 L 10.71,85.11 L 0.00,86.67 L 0.00,40.38 L 39.49,61.16 Z" fill="#E8E0D0" stroke="#B8B0A0" stroke-width="0.5"/>
<path d="M 299.17,378.04 L 307.74,401.29 L 285.11,406.86 L 309.11,430.13 L 299.09,455.94 L 346.58,500.00 L 52.12,500.00 L 47.93,492.33 L 43.99,499.94 L 43.83,500.00 L 37.04,500.00 L 53.22,452.68 L 22.38,428.13 L 53.22,412.52 L 34.30,401.27 L 77.31,398.16 L 71.98,364.80 L 15.34,359.56 L 17.19,320.20 L 0.00,312.03 L 0.00,302.77 L 98.89,234.18 L 120.19,262.34 L 183.88,249.34 L 233.51,286.50 L 294.49,300.44 L 323.89,342.65 L 299.17,378.04 Z" fill="#C8D8E8" stroke="#8BAABB" stroke-width="0.8"/>
<path d="M 349.81,359.99 L 370.30,323.67 L 448.69,305.87 L 496.29,322.47 L 533.16,297.92 L 741.28,278.63 L 800.00,312.39 L 800.00,470.33 L 686.12,469.01 L 605.10,500.00 L 346.58,500.00 L 299.09,455.94 L 309.11,430.13 L 285.11,406.86 L 307.74,401.29 L 299.17,378.04 L 315.86,356.31 L 349.81,359.99 Z" fill="#C8D8E8" stroke="#8BAABB" stroke-width="0.8"/>
<path d="M 73.60,152.71 L 156.36,162.44 L 262.48,197.28 L 219.92,220.47 L 180.70,220.36 L 200.05,234.44 L 169.51,256.68 L 124.42,263.35 L 104.60,235.54 L 79.52,241.96 L 0.00,301.24 L 0.00,121.16 L 73.60,152.71 Z M 17.19,320.20 L 15.34,359.56 L 0.00,355.35 L 0.00,310.62 L 17.19,320.20 Z" fill="#C8D8E8" stroke="#8BAABB" stroke-width="0.8"/>
<path d="M 773.97,25.03 L 761.44,54.00 L 800.00,101.48 L 800.00,206.45 L 780.92,209.36 L 794.80,221.84 L 780.40,246.98 L 800.00,257.39 L 800.00,268.69 L 780.07,285.57 L 741.28,278.63 L 567.83,298.67 L 553.08,283.06 L 578.43,276.08 L 615.17,231.86 L 518.74,220.22 L 526.18,204.15 L 489.21,197.97 L 447.22,166.07 L 383.71,153.61 L 378.93,140.02 L 325.08,149.31 L 335.03,172.08 L 288.93,188.05 L 293.15,202.81 L 260.41,207.20 L 258.34,194.78 L 156.36,162.44 L 73.60,152.71 L 0.00,119.51 L 0.00,89.08 L 46.47,92.05 L 50.91,79.12 L 0.00,36.33 L 0.00,24.49 L 56.21,27.55 L 78.79,18.41 L 30.76,0.00 L 800.00,0.00 L 800.00,19.09 L 773.97,25.03 Z" fill="#C8D8E8" stroke="#8BAABB" stroke-width="0.8"/>
<path d="M 200.05,234.44 L 182.74,219.08 L 293.15,202.81 L 288.93,188.05 L 340.30,166.90 L 325.08,149.31 L 372.68,139.14 L 383.71,153.61 L 447.22,166.07 L 489.21,197.97 L 526.18,204.15 L 518.74,220.22 L 617.26,235.32 L 553.08,283.06 L 565.09,298.01 L 515.77,301.51 L 498.90,322.21 L 448.69,305.87 L 370.30,323.67 L 344.44,360.86 L 315.86,356.31 L 299.27,303.49 L 233.51,286.50 L 190.31,251.06 L 200.05,234.44 Z" fill="#4A90D9" stroke="#1a5fa8" stroke-width="1.2"/>
<path d="M 0.00,315.16 L 0.00,295.59 L 8.38,296.62 L 32.74,283.55 L 15.52,300.39 L 44.22,318.83 L 0.00,315.16 Z" fill="#A8C8E8" stroke="none"/>
<path d="M 372.65,500.00 L 338.74,500.00 L 337.70,465.46 L 378.76,475.17 L 372.65,500.00 Z" fill="#A8C8E8" stroke="none"/>
<path d="M 415.26,490.25 L 430.98,500.00 L 411.55,500.00 L 415.26,490.25 Z" fill="#A8C8E8" stroke="none"/>
</svg>