<svg xmlns="http://www.w3.org/2000/svg" width="800" height="500" viewBox="0 0 800 500">
<rect width="800" height="500" fill="#A8C8E8"/>
<path d="M 1.89,289.09 L 6.80,291.21 L 10.17,298.23 L 22.97,292.70 L 38.72,298.82 L 47.58,297.11 L 77.98,312.71 L 92.96,333.94 L 114.65,349.87 L 124.45,365.98 L 134.39,372.18 L 142.51,383.75 L 118.01,416.73 L 116.71,447.41 L 124.07,450.29 L 152.37,443.37 L 165.22,447.30 L 153.69,463.18 L 161.57,481.55 L 167.05,488.57 L 0.00,488.57 L 0.00,291.23 L 1.89,289.09 Z" fill="#E8E0D0" stroke="#B8B0A0" stroke-width="0.5"/>
<path d="M 416.25,436.46 L 471.72,421.72 L 487.28,405.91 L 493.82,404.40 L 514.47,411.16 L 505.65,432.46 L 505.85,439.11 L 510.17,441.26 L 507.06,447.54 L 508.96,464.64 L 502.68,471.77 L 511.46,471.42 L 509.61,466.19 L 518.75,469.82 L 518.85,473.42 L 506.02,472.92 L 499.23,476.37 L 497.97,488.57 L 416.25,488.57 L 416.25,436.46 Z" fill="#E8E0D0" stroke="#B8B0A0" stroke-width="0.5"/>
<path d="M 416.25,488.57 L 167.05,488.57 L 161.57,481.55 L 153.74,464.10 L 180.21,425.64 L 188.83,430.75 L 188.78,436.90 L 203.03,455.78 L 224.64,472.61 L 234.60,473.95 L 250.28,472.56 L 283.97,452.53 L 312.29,460.54 L 352.27,439.25 L 364.98,442.86 L 382.50,441.33 L 398.85,433.42 L 416.25,436.46 L 416.25,488.57 Z" fill="#E8E0D0" stroke="#B8B0A0" stroke-width="0.5"/>
<path d="M 163.12,448.19 L 152.37,443.37 L 124.07,450.29 L 116.71,447.41 L 118.01,416.73 L 144.66,381.39 L 154.98,388.34 L 159.74,385.34 L 162.93,376.81 L 173.32,373.27 L 182.15,382.76 L 185.70,394.19 L 184.14,403.72 L 177.03,405.76 L 170.72,412.44 L 159.11,415.53 L 154.55,422.62 L 148.17,422.38 L 151.87,426.99 L 162.39,421.44 L 174.74,420.75 L 178.45,426.12 L 163.12,448.19 Z" fill="#E8E0D0" stroke="#B8B0A0" stroke-width="0.5"/>
<path d="M 162.93,376.81 L 159.74,385.34 L 154.98,388.34 L 146.53,381.56 L 142.51,383.75 L 134.39,372.18 L 124.45,365.98 L 114.65,349.87 L 92.96,333.94 L 77.98,312.71 L 47.58,297.11 L 38.72,298.82 L 22.97,292.70 L 10.17,298.23 L 6.80,291.21 L 1.89,289.09 L 0.00,291.23 L 0.00,175.94 L 2.00,180.18 L 13.75,233.75 L 19.72,238.81 L 20.57,251.25 L 26.99,252.32 L 31.34,269.90 L 35.34,270.56 L 37.15,266.46 L 33.76,257.06 L 38.01,252.14 L 46.55,259.22 L 44.32,263.70 L 49.87,274.75 L 55.18,277.73 L 64.61,273.22 L 72.19,278.47 L 75.20,287.18 L 91.93,289.70 L 113.18,319.88 L 125.41,323.98 L 131.12,332.74 L 136.02,336.62 L 134.39,331.70 L 138.71,335.72 L 142.51,350.97 L 148.96,350.54 L 157.13,359.18 L 159.28,367.03 L 165.40,369.72 L 168.45,364.93 L 173.32,373.27 L 162.93,376.81 Z M 59.65,249.19 L 42.33,247.71 L 40.60,243.57 L 46.61,245.34 L 40.31,241.94 L 44.77,237.66 L 41.16,235.25 L 48.91,239.05 L 50.05,246.07 L 54.35,243.50 L 59.65,249.19 Z M 47.99,231.27 L 42.79,229.89 L 45.32,226.01 L 47.99,231.27 Z" fill="#E8E0D0" stroke="#B8B0A0" stroke-width="0.5"/>
<path d="M 788.37,46.10 L 781.41,69.16 L 786.69,101.06 L 761.31,104.61 L 744.63,111.73 L 737.67,119.80 L 734.34,137.56 L 725.78,146.62 L 687.76,150.91 L 678.71,164.00 L 681.74,169.29 L 680.05,177.19 L 670.31,186.86 L 660.50,189.45 L 652.16,185.68 L 631.00,186.86 L 611.40,197.83 L 589.49,202.83 L 577.44,175.76 L 574.10,174.43 L 543.10,100.90 L 668.28,57.59 L 683.06,11.43 L 800.00,11.43 L 800.00,33.92 L 788.37,46.10 Z M 705.20,164.87 L 706.36,165.49 L 705.73,165.86 L 705.20,164.87 Z M 714.90,164.87 L 709.78,165.75 L 709.42,164.82 L 714.90,164.87 Z" fill="#C8D8E8" stroke="#8BAABB" stroke-width="0.8"/>
<path d="M 668.28,57.59 L 543.10,100.90 L 420.29,118.91 L 383.82,137.57 L 359.91,167.27 L 353.18,183.36 L 342.07,189.62 L 334.09,189.21 L 323.23,175.41 L 307.06,177.64 L 269.83,173.83 L 258.77,168.79 L 216.36,169.81 L 206.60,174.27 L 185.64,164.82 L 175.29,173.22 L 178.93,175.56 L 173.35,183.61 L 173.11,191.24 L 177.23,196.14 L 175.92,201.87 L 171.95,201.53 L 169.92,207.43 L 159.62,214.59 L 156.41,199.01 L 141.56,179.44 L 141.82,186.27 L 139.26,167.69 L 117.81,151.23 L 105.53,134.32 L 103.13,123.67 L 93.72,113.79 L 95.34,107.89 L 90.64,103.46 L 92.31,97.79 L 87.81,95.28 L 82.63,78.80 L 74.95,74.34 L 74.30,67.05 L 70.61,67.81 L 65.52,59.04 L 46.71,45.29 L 39.17,44.04 L 40.74,46.16 L 33.20,42.19 L 10.30,11.43 L 683.06,11.43 L 668.28,57.59 Z M 134.13,205.39 L 130.25,200.62 L 124.82,201.63 L 116.54,191.83 L 122.72,198.28 L 128.14,199.65 L 129.27,195.39 L 134.46,200.10 L 134.13,205.39 Z M 119.79,192.04 L 123.69,189.30 L 120.26,187.45 L 120.87,186.75 L 124.09,188.52 L 126.75,197.70 L 119.79,192.04 Z" fill="#C8D8E8" stroke="#8BAABB" stroke-width="0.8"/>
<path d="M 574.10,174.43 L 577.44,175.76 L 589.49,202.83 L 566.21,211.29 L 556.21,219.23 L 550.48,231.36 L 553.52,247.29 L 517.61,264.03 L 483.65,271.87 L 468.02,280.76 L 458.11,280.96 L 434.34,289.15 L 422.67,294.79 L 418.95,303.23 L 406.10,315.41 L 384.94,318.63 L 377.77,314.81 L 351.95,332.25 L 322.84,341.97 L 279.65,345.80 L 268.69,357.58 L 256.80,362.27 L 254.32,370.92 L 251.01,370.04 L 252.50,366.73 L 246.51,369.12 L 246.92,372.31 L 235.62,368.43 L 227.48,374.90 L 207.90,378.03 L 193.47,371.17 L 187.94,374.31 L 188.15,367.26 L 177.85,348.32 L 180.13,329.33 L 166.71,295.05 L 169.30,298.15 L 163.55,279.02 L 166.14,282.15 L 165.79,276.21 L 162.73,268.07 L 152.14,263.43 L 155.16,263.30 L 156.41,258.11 L 159.85,264.91 L 155.55,243.57 L 161.51,234.33 L 159.62,214.59 L 169.92,207.43 L 171.95,201.53 L 175.92,201.87 L 177.23,196.14 L 173.11,191.24 L 173.35,183.61 L 178.78,176.43 L 175.29,173.22 L 181.05,167.46 L 189.41,165.10 L 206.60,174.27 L 216.36,169.81 L 258.77,168.79 L 269.83,173.83 L 307.06,177.64 L 323.23,175.41 L 334.09,189.21 L 342.07,189.62 L 353.18,183.36 L 359.91,167.27 L 383.82,137.57 L 420.29,118.91 L 543.10,100.90 L 574.10,174.43 Z M 597.69,398.42 L 598.67,399.10 L 596.70,398.96 L 597.69,398.42 Z M 589.33,398.11 L 585.11,396.88 L 585.89,396.27 L 589.33,398.11 Z M 560.20,397.48 L 546.67,393.73 L 548.93,393.47 L 560.20,397.48 Z M 187.14,375.65 L 186.59,376.55 L 184.69,375.07 L 187.14,375.65 Z M 650.00,380.10 L 633.32,388.71 L 616.23,390.92 L 598.53,380.39 L 607.38,372.99 L 621.03,378.00 L 632.44,373.56 L 650.00,380.10 Z M 159.85,327.26 L 155.41,331.86 L 155.62,330.33 L 159.85,327.26 Z M 160.13,316.29 L 159.30,320.76 L 155.55,316.73 L 160.13,316.29 Z M 150.94,257.02 L 150.39,262.33 L 150.00,256.96 L 153.22,254.68 L 150.94,257.02 Z" fill="#4A90D9" stroke="#1a5fa8" stroke-width="1.2"/>
<path d="M 110.72,430.82 L 108.89,431.37 L 108.59,430.59 L 110.72,430.82 Z" fill="#A8C8E8" stroke="none"/>
<path d="M 111.81,424.31 L 111.26,420.93 L 113.09,421.84 L 114.28,424.58 L 111.81,424.31 Z" fill="#A8C8E8" stroke="none"/>
<path d="M 145.41,418.03 L 143.84,420.19 L 142.72,417.26 L 145.41,418.03 Z" fill="#A8C8E8" stroke="none"/>
<path d="M 121.76,438.30 L 117.17,443.80 L 113.32,439.32 L 118.26,435.23 L 121.76,438.30 Z" fill="#A8C8E8" stroke="none"/>
</svg>