<svg xmlns="http://www.w3.org/2000/svg" width="800" height="500" viewBox="0 0 800 500">
<rect width="800" height="500" fill="#A8C8E8"/>
<path d="M 1.89,290.96 L 6.80,293.18 L 10.17,300.54 L 22.97,294.75 L 38.72,301.16 L 47.58,299.37 L 77.98,315.71 L 92.96,337.96 L 114.65,354.66 L 124.45,371.54 L 134.39,378.03 L 142.51,390.16 L 118.01,424.72 L 116.71,456.88 L 124.07,459.89 L 152.37,452.63 L 165.22,456.76 L 153.69,473.40 L 161.57,492.65 L 167.05,500.00 L 0.00,500.00 L 0.00,293.21 L 1.89,290.96 Z" fill="#E8E0D0" stroke="#B8B0A0" stroke-width="0.5"/>
<path d="M 416.25,445.39 L 471.72,429.95 L 487.28,413.38 L 493.82,411.80 L 514.47,418.88 L 505.65,441.20 L 505.85,448.17 L 510.17,450.42 L 507.06,457.00 L 508.96,474.93 L 502.68,482.39 L 511.46,482.03 L 509.61,476.55 L 518.75,480.35 L 518.85,484.13 L 506.02,483.61 L 499.23,487.21 L 497.97,500.00 L 416.25,500.00 L 416.25,445.39 Z" fill="#E8E0D0" stroke="#B8B0A0" stroke-width="0.5"/>
<path d="M 416.25,500.00 L 167.05,500.00 L 161.57,492.65 L 153.74,474.36 L 180.21,434.05 L 188.83,439.41 L 188.78,445.86 L 203.03,465.65 L 224.64,483.28 L 234.60,484.68 L 250.28,483.22 L 283.97,462.24 L 312.29,470.63 L 352.27,448.32 L 364.98,452.11 L 382.50,450.50 L 398.85,442.21 L 416.25,445.39 L 416.25,500.00 Z" fill="#E8E0D0" stroke="#B8B0A0" stroke-width="0.5"/>
<path d="M 163.12,457.69 L 152.37,452.63 L 124.07,459.89 L 116.71,456.88 L 118.01,424.72 L 144.66,387.69 L 154.98,394.97 L 159.74,391.83 L 162.93,382.89 L 173.32,379.17 L 182.15,389.12 L 185.70,401.10 L 184.14,411.09 L 177.03,413.22 L 170.72,420.22 L 159.11,423.46 L 154.55,430.89 L 148.17,430.64 L 151.87,435.47 L 162.39,429.66 L 174.74,428.93 L 178.45,434.56 L 163.12,457.69 Z" fill="#E8E0D0" stroke="#B8B0A0" stroke-width="0.5"/>
<path d="M 162.93,382.89 L 159.74,391.83 L 154.98,394.97 L 146.53,387.87 L 142.51,390.16 L 134.39,378.03 L 124.45,371.54 L 114.65,354.66 L 92.96,337.96 L 77.98,315.71 L 47.58,299.37 L 38.72,301.16 L 22.97,294.75 L 10.17,300.54 L 6.80,293.18 L 1.89,290.96 L 0.00,293.21 L 0.00,172.39 L 2.00,176.83 L 13.75,232.97 L 19.72,238.27 L 20.57,251.31 L 26.99,252.43 L 31.34,270.86 L 35.34,271.54 L 37.15,267.25 L 33.76,257.40 L 38.01,252.24 L 46.55,259.66 L 44.32,264.36 L 49.87,275.93 L 55.18,279.05 L 64.61,274.33 L 72.19,279.84 L 75.20,288.96 L 91.93,291.61 L 113.18,323.23 L 125.41,327.53 L 131.12,336.70 L 136.02,340.77 L 134.39,335.62 L 138.71,339.83 L 142.51,355.81 L 148.96,355.36 L 157.13,364.41 L 159.28,372.64 L 165.40,375.46 L 168.45,370.44 L 173.32,379.17 L 162.93,382.89 Z M 59.65,249.15 L 42.33,247.60 L 40.60,243.26 L 46.61,245.12 L 40.31,241.56 L 44.77,237.07 L 41.16,234.55 L 48.91,238.53 L 50.05,245.88 L 54.35,243.19 L 59.65,249.15 Z M 47.99,230.37 L 42.79,228.93 L 45.32,224.87 L 47.99,230.37 Z" fill="#E8E0D0" stroke="#B8B0A0" stroke-width="0.5"/>
<path d="M 788.37,36.33 L 781.41,60.50 L 786.69,93.93 L 761.31,97.64 L 744.63,105.10 L 737.67,113.56 L 734.34,132.17 L 725.78,141.67 L 687.76,146.16 L 678.71,159.88 L 681.74,165.42 L 680.05,173.70 L 670.31,183.83 L 660.50,186.55 L 652.16,182.59 L 631.00,183.83 L 611.40,195.33 L 589.49,200.57 L 577.44,172.20 L 574.10,170.80 L 543.10,93.75 L 668.28,48.37 L 683.06,0.00 L 800.00,0.00 L 800.00,23.57 L 788.37,36.33 Z M 705.20,160.79 L 706.36,161.43 L 705.73,161.83 L 705.20,160.79 Z M 714.90,160.79 L 709.78,161.72 L 709.42,160.74 L 714.90,160.79 Z" fill="#C8D8E8" stroke="#8BAABB" stroke-width="0.8"/>
<path d="M 668.28,48.37 L 543.10,93.75 L 420.29,112.63 L 383.82,132.19 L 359.91,163.31 L 353.18,180.17 L 342.07,186.73 L 334.09,186.30 L 323.23,171.84 L 307.06,174.17 L 269.83,170.18 L 258.77,164.89 L 216.36,165.96 L 206.60,170.64 L 185.64,160.74 L 175.29,169.54 L 178.93,171.99 L 173.35,180.42 L 173.11,188.42 L 177.23,193.56 L 175.92,199.56 L 171.95,199.20 L 169.92,205.39 L 159.62,212.89 L 156.41,196.57 L 141.56,176.06 L 141.82,183.21 L 139.26,163.75 L 117.81,146.50 L 105.53,128.78 L 103.13,117.61 L 93.72,107.26 L 95.34,101.08 L 90.64,96.43 L 92.31,90.49 L 87.81,87.86 L 82.63,70.60 L 74.95,65.92 L 74.30,58.28 L 70.61,59.08 L 65.52,49.89 L 46.71,35.48 L 39.17,34.17 L 40.74,36.39 L 33.20,32.23 L 10.30,0.00 L 683.06,0.00 L 668.28,48.37 Z M 134.13,203.25 L 130.25,198.25 L 124.82,199.31 L 116.54,189.04 L 122.72,195.80 L 128.14,197.24 L 129.27,192.77 L 134.46,197.71 L 134.13,203.25 Z M 119.79,189.26 L 123.69,186.39 L 120.26,184.45 L 120.87,183.72 L 124.09,185.57 L 126.75,195.19 L 119.79,189.26 Z" fill="#C8D8E8" stroke="#8BAABB" stroke-width="0.8"/>
<path d="M 574.10,170.80 L 577.44,172.20 L 589.49,200.57 L 566.21,209.43 L 556.21,217.76 L 550.48,230.47 L 553.52,247.16 L 517.61,264.70 L 483.65,272.92 L 468.02,282.24 L 458.11,282.45 L 434.34,291.02 L 422.67,296.93 L 418.95,305.78 L 406.10,318.54 L 384.94,321.92 L 377.77,317.92 L 351.95,336.19 L 322.84,346.38 L 279.65,350.39 L 268.69,362.73 L 256.80,367.65 L 254.32,376.72 L 251.01,375.80 L 252.50,372.33 L 246.51,374.83 L 246.92,378.18 L 235.62,374.11 L 227.48,380.89 L 207.90,384.16 L 193.47,376.98 L 187.94,380.26 L 188.15,372.88 L 177.85,353.03 L 180.13,333.14 L 166.71,297.21 L 169.30,300.45 L 163.55,280.41 L 166.14,283.69 L 165.79,277.47 L 162.73,268.93 L 152.14,264.07 L 155.16,263.94 L 156.41,258.50 L 159.85,265.63 L 155.55,243.26 L 161.51,233.58 L 159.62,212.89 L 169.92,205.39 L 171.95,199.20 L 175.92,199.56 L 177.23,193.56 L 173.11,188.42 L 173.35,180.42 L 178.78,172.90 L 175.29,169.54 L 181.05,163.50 L 189.41,161.03 L 206.60,170.64 L 216.36,165.96 L 258.77,164.89 L 269.83,170.18 L 307.06,174.17 L 323.23,171.84 L 334.09,186.30 L 342.07,186.73 L 353.18,180.17 L 359.91,163.31 L 383.82,132.19 L 420.29,112.63 L 543.10,93.75 L 574.10,170.80 Z M 597.69,405.53 L 598.67,406.25 L 596.70,406.09 L 597.69,405.53 Z M 589.33,405.21 L 585.11,403.92 L 585.89,403.28 L 589.33,405.21 Z M 560.20,404.55 L 546.67,400.62 L 548.93,400.34 L 560.20,404.55 Z M 187.14,381.67 L 186.59,382.61 L 184.69,381.06 L 187.14,381.67 Z M 650.00,386.33 L 633.32,395.36 L 616.23,397.67 L 598.53,386.64 L 607.38,378.88 L 621.03,384.14 L 632.44,379.48 L 650.00,386.33 Z M 159.85,330.97 L 155.41,335.78 L 155.62,334.18 L 159.85,330.97 Z M 160.13,319.47 L 159.30,324.15 L 155.55,319.92 L 160.13,319.47 Z M 150.94,257.35 L 150.39,262.92 L 150.00,257.29 L 153.22,254.90 L 150.94,257.35 Z" fill="#4A90D9" stroke="#1a5fa8" stroke-width="1.2"/>
<path d="M 110.72,439.48 L 108.89,440.06 L 108.59,439.24 L 110.72,439.48 Z" fill="#A8C8E8" stroke="none"/>
<path d="M 111.81,432.67 L 111.26,429.13 L 113.09,430.08 L 114.28,432.95 L 111.81,432.67 Z" fill="#A8C8E8" stroke="none"/>
<path d="M 145.41,426.08 L 143.84,428.35 L 142.72,425.28 L 145.41,426.08 Z" fill="#A8C8E8" stroke="none"/>
<path d="M 121.76,447.33 L 117.17,453.09 L 113.32,448.40 L 118.26,444.11 L 121.76,447.33 Z" fill="#A8C8E8" stroke="none"/>
</svg>