<svg xmlns="http://www.w3.org/2000/svg" width="800" height="500" viewBox="0 0 800 500">
<rect width="800" height="500" fill="#A8C8E8"/>
<path d="M 489.95,2.67 L 488.71,6.25 L 489.29,9.34 L 488.72,17.21 L 485.91,18.83 L 484.46,18.45 L 481.95,23.44 L 483.79,27.38 L 483.74,30.57 L 483.01,30.96 L 481.26,30.64 L 481.81,27.16 L 479.60,25.99 L 474.64,20.12 L 474.41,17.43 L 472.63,15.29 L 476.07,7.83 L 475.51,0.00 L 489.42,0.00 L 489.95,2.67 Z" fill="#E8E0D0" stroke="#B8B0A0" stroke-width="0.5"/>
<path d="M 430.99,3.86 L 433.02,12.02 L 424.49,12.34 L 417.70,16.22 L 416.93,17.43 L 416.93,21.56 L 415.93,23.37 L 406.14,28.75 L 403.66,33.82 L 398.88,40.35 L 394.57,42.71 L 389.51,40.36 L 386.54,41.82 L 384.02,39.46 L 380.43,39.84 L 377.34,36.57 L 373.68,35.45 L 368.88,35.29 L 360.18,37.32 L 346.99,23.52 L 345.68,18.49 L 345.67,0.00 L 440.81,0.00 L 430.99,3.86 Z" fill="#E8E0D0" stroke="#B8B0A0" stroke-width="0.5"/>
<path d="M 345.70,18.76 L 347.44,24.19 L 349.33,25.15 L 353.80,31.39 L 360.18,37.32 L 339.51,42.02 L 337.18,40.96 L 333.50,42.23 L 328.63,40.01 L 322.77,40.46 L 313.64,39.31 L 311.08,37.28 L 309.12,34.16 L 262.77,34.58 L 258.01,30.79 L 257.58,29.38 L 254.33,28.64 L 248.12,32.21 L 244.76,32.08 L 243.16,31.01 L 239.73,32.26 L 240.40,22.70 L 239.50,14.88 L 242.16,11.86 L 242.83,7.03 L 243.75,6.21 L 245.04,0.00 L 345.68,0.00 L 345.70,18.76 Z M 239.53,25.55 L 239.15,22.97 L 239.34,23.04 L 239.53,25.55 Z" fill="#E8E0D0" stroke="#B8B0A0" stroke-width="0.5"/>
<path d="M 578.30,67.69 L 578.30,133.28 L 577.67,133.13 L 576.91,131.83 L 577.82,132.68 L 578.04,132.27 L 574.14,129.89 L 573.00,125.11 L 570.45,121.53 L 569.95,114.33 L 571.37,110.58 L 570.02,109.08 L 569.52,105.69 L 567.22,102.77 L 565.79,95.36 L 566.61,94.91 L 566.04,92.60 L 566.96,89.25 L 568.38,88.03 L 568.74,83.47 L 571.90,82.40 L 572.82,78.11 L 578.30,67.69 Z M 577.69,64.15 L 578.30,62.17 L 578.30,65.69 L 577.69,64.15 Z M 576.27,55.53 L 576.51,51.95 L 574.27,46.83 L 574.21,38.94 L 573.05,36.13 L 578.30,25.50 L 578.30,59.50 L 576.27,55.53 Z" fill="#E8E0D0" stroke="#B8B0A0" stroke-width="0.5"/>
<path d="M 560.62,30.05 L 560.98,30.02 L 560.91,30.21 L 560.62,30.05 Z M 536.39,96.43 L 536.21,96.72 L 535.91,96.68 L 536.39,96.43 Z M 529.59,85.14 L 529.61,85.17 L 529.58,85.17 L 529.59,85.14 Z" fill="#E8E0D0" stroke="#B8B0A0" stroke-width="0.5"/>
<path d="M 379.60,41.85 L 386.70,53.43 L 386.78,55.72 L 388.93,61.17 L 390.46,61.68 L 390.55,62.61 L 394.72,66.08 L 399.77,68.17 L 400.46,73.23 L 404.91,73.40 L 404.59,80.47 L 407.94,86.52 L 414.42,87.72 L 418.81,89.62 L 418.82,92.42 L 422.03,94.51 L 418.81,94.98 L 417.68,97.71 L 416.51,98.36 L 411.17,99.76 L 405.49,107.52 L 403.98,107.47 L 403.37,109.28 L 399.00,111.35 L 397.34,113.78 L 396.01,120.66 L 392.82,123.09 L 391.51,125.28 L 385.95,126.73 L 385.61,130.11 L 383.04,137.70 L 381.71,138.85 L 373.48,140.26 L 370.10,139.36 L 368.49,137.78 L 365.81,137.82 L 360.99,133.45 L 356.55,133.67 L 354.62,135.95 L 353.23,142.44 L 351.52,145.09 L 348.44,146.85 L 346.47,150.25 L 343.59,151.01 L 343.40,152.60 L 342.39,153.34 L 334.55,152.55 L 332.30,153.70 L 331.41,148.69 L 333.86,144.13 L 331.75,137.71 L 331.95,135.79 L 328.92,130.32 L 324.95,126.79 L 324.92,92.17 L 335.35,91.71 L 335.25,45.85 L 359.26,41.82 L 362.55,47.85 L 370.23,41.28 L 372.44,42.50 L 376.47,39.17 L 379.65,39.25 L 379.60,41.85 Z" fill="#C8D8E8" stroke="#8BAABB" stroke-width="0.8"/>
<path d="M 421.64,181.35 L 422.92,184.53 L 419.58,189.66 L 419.90,191.80 L 416.29,193.93 L 412.02,194.62 L 410.12,196.36 L 410.51,197.24 L 409.34,198.56 L 408.86,201.09 L 405.39,200.36 L 402.36,196.71 L 401.47,196.72 L 401.63,194.60 L 397.70,188.61 L 401.31,186.27 L 405.43,179.08 L 408.18,178.70 L 409.65,176.48 L 414.62,174.83 L 418.21,179.08 L 421.64,181.35 Z" fill="#C8D8E8" stroke="#8BAABB" stroke-width="0.8"/>
<path d="M 450.22,142.61 L 448.97,141.96 L 448.52,140.13 L 449.45,137.91 L 449.35,122.64 L 447.94,116.45 L 444.60,110.49 L 444.69,106.71 L 442.02,97.38 L 454.13,83.52 L 453.01,81.26 L 454.58,78.78 L 454.48,74.58 L 456.45,73.69 L 458.67,68.29 L 459.93,67.40 L 460.19,64.28 L 459.27,62.59 L 457.99,62.90 L 458.12,60.72 L 457.40,60.25 L 458.36,55.47 L 456.55,53.85 L 456.66,52.33 L 458.84,51.58 L 458.52,48.58 L 460.30,46.26 L 459.39,45.06 L 459.10,41.49 L 460.11,37.05 L 459.20,35.52 L 460.08,33.60 L 458.08,28.44 L 459.53,25.25 L 457.07,25.59 L 456.45,24.22 L 452.50,22.36 L 448.56,22.07 L 446.49,19.41 L 443.32,18.72 L 441.82,16.97 L 432.94,16.69 L 432.84,10.14 L 430.99,3.86 L 440.81,0.00 L 475.64,0.00 L 476.11,7.50 L 472.63,15.29 L 474.41,17.43 L 474.64,20.12 L 479.60,25.99 L 481.81,27.16 L 481.26,30.64 L 483.61,30.88 L 483.46,25.49 L 481.95,23.44 L 484.46,18.45 L 485.91,18.83 L 488.72,17.21 L 489.29,9.34 L 488.71,6.25 L 489.95,2.67 L 489.42,0.00 L 541.15,0.00 L 541.18,0.38 L 539.92,2.67 L 539.06,2.25 L 540.41,4.06 L 539.34,3.80 L 539.77,5.01 L 537.86,5.74 L 537.71,6.38 L 538.98,6.16 L 539.46,7.02 L 538.42,10.28 L 533.07,16.54 L 533.79,16.50 L 532.31,19.47 L 530.15,20.47 L 530.40,21.57 L 530.90,22.08 L 523.37,27.59 L 522.97,29.05 L 518.54,29.58 L 513.46,32.87 L 512.50,31.65 L 512.99,32.86 L 503.27,38.55 L 501.14,41.99 L 500.14,40.34 L 499.57,40.30 L 501.07,42.42 L 495.84,48.84 L 495.16,51.71 L 493.41,50.57 L 493.71,53.04 L 492.46,53.16 L 492.23,51.91 L 489.44,53.80 L 481.89,63.29 L 479.34,65.28 L 476.71,61.91 L 475.95,61.74 L 478.28,64.67 L 477.57,65.54 L 478.25,68.91 L 477.01,68.90 L 477.92,69.85 L 476.85,71.73 L 477.64,72.87 L 477.14,73.81 L 477.88,73.59 L 479.26,75.97 L 480.51,76.18 L 480.97,78.80 L 481.82,79.16 L 480.75,80.98 L 481.33,83.63 L 481.90,81.83 L 481.82,84.32 L 483.39,87.68 L 483.75,97.05 L 484.66,98.30 L 485.15,93.66 L 485.77,93.49 L 485.94,96.06 L 486.29,94.41 L 485.65,100.84 L 486.15,104.07 L 486.86,103.67 L 485.54,106.96 L 484.63,114.15 L 484.53,113.27 L 484.11,113.25 L 484.02,116.87 L 484.52,115.36 L 485.41,115.81 L 485.51,114.58 L 486.04,114.84 L 485.73,118.60 L 481.68,124.84 L 462.73,133.64 L 463.16,133.08 L 458.54,136.74 L 456.61,141.05 L 455.62,142.09 L 454.85,141.85 L 454.43,142.29 L 458.22,146.11 L 459.38,143.47 L 458.75,153.13 L 450.67,153.05 L 450.22,142.61 Z M 459.01,142.50 L 459.67,142.09 L 459.45,143.04 L 459.01,142.50 Z M 485.67,87.65 L 485.09,89.43 L 485.11,88.04 L 485.45,86.49 L 485.67,87.65 Z M 531.84,20.48 L 531.13,21.92 L 530.54,20.67 L 531.84,20.48 Z" fill="#C8D8E8" stroke="#8BAABB" stroke-width="0.8"/>
<path d="M 287.29,174.64 L 281.08,167.95 L 276.39,159.12 L 275.70,154.38 L 274.19,151.23 L 275.08,149.93 L 274.42,147.77 L 272.98,146.70 L 273.11,143.22 L 271.68,139.36 L 271.81,130.71 L 267.73,118.56 L 268.29,115.97 L 267.47,109.96 L 268.07,108.63 L 267.22,104.37 L 267.48,103.23 L 267.73,104.68 L 268.45,103.48 L 268.24,99.05 L 256.73,77.68 L 254.45,69.38 L 252.99,67.75 L 246.91,53.22 L 242.57,48.19 L 240.14,41.28 L 239.32,36.13 L 239.71,32.61 L 243.16,31.01 L 244.76,32.08 L 248.12,32.21 L 254.33,28.64 L 257.58,29.38 L 258.01,30.79 L 262.77,34.58 L 309.12,34.16 L 311.08,37.28 L 313.64,39.31 L 322.77,40.46 L 328.63,40.01 L 333.50,42.23 L 337.18,40.96 L 339.51,42.02 L 368.88,35.29 L 377.34,36.57 L 379.65,39.25 L 376.47,39.17 L 372.44,42.50 L 370.23,41.28 L 362.55,47.85 L 359.26,41.82 L 335.25,45.85 L 335.35,91.71 L 324.92,92.17 L 324.95,172.96 L 320.67,174.33 L 319.50,176.52 L 317.54,176.99 L 317.77,178.75 L 316.03,179.69 L 312.14,178.21 L 306.14,178.99 L 303.52,177.47 L 300.57,177.26 L 300.10,176.20 L 298.24,176.50 L 298.41,175.11 L 297.42,173.56 L 298.20,172.62 L 297.64,170.51 L 296.26,170.56 L 294.85,167.98 L 292.95,168.68 L 291.66,170.98 L 291.37,173.70 L 287.29,174.64 Z" fill="#C8D8E8" stroke="#8BAABB" stroke-width="0.8"/>
<path d="M 450.22,142.61 L 449.91,146.05 L 450.71,149.81 L 450.67,153.05 L 449.39,152.65 L 449.16,159.04 L 444.59,158.97 L 440.60,157.54 L 436.91,151.50 L 437.10,147.48 L 440.37,141.35 L 443.29,139.16 L 447.78,142.26 L 450.22,142.61 Z" fill="#C8D8E8" stroke="#8BAABB" stroke-width="0.8"/>
<path d="M 382.31,40.10 L 384.02,39.46 L 386.54,41.82 L 389.51,40.36 L 394.57,42.71 L 397.90,41.31 L 403.66,33.82 L 406.14,28.75 L 416.42,22.79 L 416.93,17.43 L 417.70,16.22 L 424.49,12.34 L 432.87,12.09 L 432.94,16.69 L 441.82,16.97 L 443.32,18.72 L 446.49,19.41 L 448.56,22.07 L 452.50,22.36 L 456.45,24.22 L 457.07,25.59 L 459.53,25.25 L 458.08,28.44 L 460.08,33.60 L 459.20,35.52 L 460.11,37.05 L 459.10,41.49 L 459.39,45.06 L 460.30,46.26 L 458.52,48.58 L 458.84,51.58 L 456.66,52.33 L 456.55,53.85 L 458.36,55.47 L 457.40,60.25 L 458.12,60.72 L 457.99,62.90 L 459.27,62.59 L 460.19,64.28 L 459.93,67.40 L 458.67,68.29 L 456.45,73.69 L 454.48,74.58 L 454.58,78.78 L 453.01,81.26 L 454.13,83.52 L 442.12,97.16 L 437.45,95.71 L 432.24,96.50 L 426.27,93.81 L 422.10,94.56 L 418.82,92.42 L 418.81,89.62 L 414.42,87.72 L 407.94,86.52 L 404.59,80.47 L 404.91,73.40 L 400.46,73.23 L 399.77,68.17 L 394.72,66.08 L 390.55,62.61 L 390.46,61.68 L 388.93,61.17 L 386.78,55.72 L 386.70,53.43 L 379.60,41.85 L 379.65,39.25 L 382.31,40.10 Z" fill="#C8D8E8" stroke="#8BAABB" stroke-width="0.8"/>
<path d="M 328.92,130.32 L 331.95,135.79 L 331.75,137.71 L 333.86,144.13 L 331.41,148.69 L 332.30,153.70 L 334.55,152.55 L 342.39,153.34 L 343.40,152.60 L 343.59,151.01 L 346.47,150.25 L 348.44,146.85 L 351.52,145.09 L 353.32,142.28 L 354.62,135.95 L 356.55,133.67 L 360.99,133.45 L 365.81,137.82 L 368.49,137.78 L 370.10,139.36 L 373.48,140.26 L 381.71,138.85 L 383.04,137.70 L 385.61,130.11 L 385.95,126.73 L 391.51,125.28 L 392.82,123.09 L 396.01,120.66 L 397.34,113.78 L 399.00,111.35 L 403.37,109.28 L 403.98,107.47 L 405.49,107.52 L 411.17,99.76 L 417.50,97.87 L 418.81,94.98 L 425.26,93.75 L 432.24,96.50 L 440.71,96.14 L 442.12,97.16 L 444.69,106.71 L 444.60,110.49 L 447.94,116.45 L 449.35,122.64 L 449.45,137.91 L 448.37,142.28 L 443.29,139.16 L 440.37,141.35 L 437.10,147.48 L 437.08,152.66 L 437.89,152.20 L 438.65,155.07 L 440.60,157.54 L 444.59,158.97 L 449.16,159.04 L 449.39,152.65 L 458.75,153.13 L 458.46,155.28 L 453.56,174.38 L 449.67,177.52 L 450.22,177.78 L 449.62,178.55 L 447.10,179.25 L 442.91,184.41 L 439.14,191.58 L 439.73,191.50 L 429.42,208.39 L 422.67,213.91 L 413.73,225.04 L 398.73,237.16 L 392.25,240.16 L 385.09,239.90 L 383.53,241.31 L 384.18,243.57 L 376.47,242.94 L 375.24,245.72 L 362.82,242.87 L 360.24,243.52 L 360.46,244.51 L 351.92,243.05 L 347.62,244.18 L 347.40,245.37 L 345.32,245.94 L 343.68,247.93 L 341.08,247.52 L 338.68,248.47 L 334.61,247.66 L 333.49,248.14 L 333.86,248.98 L 330.14,249.05 L 325.30,253.43 L 321.55,252.87 L 318.91,250.70 L 317.86,250.90 L 318.51,249.43 L 317.79,248.28 L 316.02,248.17 L 316.23,246.83 L 312.89,247.87 L 313.31,245.02 L 312.71,244.26 L 309.37,244.47 L 309.29,247.50 L 307.69,245.11 L 307.68,243.50 L 309.44,241.17 L 307.60,236.58 L 303.95,231.83 L 305.74,233.03 L 304.81,230.97 L 303.40,231.01 L 302.79,228.33 L 304.08,226.82 L 305.65,227.69 L 307.49,225.62 L 308.04,221.24 L 307.29,216.62 L 296.98,197.18 L 292.23,181.50 L 288.56,175.45 L 291.37,173.70 L 291.66,170.98 L 292.95,168.68 L 294.85,167.98 L 296.26,170.56 L 297.64,170.51 L 298.20,172.62 L 297.42,173.56 L 298.41,175.11 L 298.24,176.50 L 300.10,176.20 L 300.57,177.26 L 303.52,177.47 L 306.14,178.99 L 312.14,178.21 L 316.03,179.69 L 317.77,178.75 L 317.54,176.99 L 319.50,176.52 L 320.67,174.33 L 324.95,172.96 L 324.95,126.79 L 328.92,130.32 Z M 414.62,174.83 L 409.65,176.48 L 408.18,178.70 L 405.43,179.08 L 401.31,186.27 L 397.70,188.61 L 401.63,194.60 L 401.47,196.72 L 402.36,196.71 L 405.39,200.36 L 408.86,201.09 L 409.34,198.56 L 410.51,197.24 L 410.12,196.36 L 412.02,194.62 L 416.29,193.93 L 419.90,191.80 L 419.58,189.66 L 422.92,184.53 L 421.64,181.35 L 418.21,179.08 L 414.62,174.83 Z M 509.81,404.72 L 510.59,405.30 L 509.66,406.25 L 507.54,406.03 L 508.17,404.52 L 509.81,404.72 Z M 510.64,401.64 L 511.44,401.85 L 511.03,402.33 L 510.23,402.10 L 510.64,401.64 Z" fill="#4A90D9" stroke="#1a5fa8" stroke-width="1.2"/>
<path d="M 483.46,1.04 L 482.56,0.14 L 482.56,0.00 L 483.78,0.00 L 483.46,1.04 Z" fill="#A8C8E8" stroke="none"/>
<path d="M 374.01,83.81 L 373.68,83.59 L 374.88,82.58 L 374.01,83.81 Z" fill="#A8C8E8" stroke="none"/>
<path d="M 449.51,161.08 L 448.41,159.41 L 449.06,159.23 L 449.51,161.08 Z" fill="#A8C8E8" stroke="none"/>
<path d="M 416.14,26.91 L 415.07,25.19 L 412.62,26.91 L 412.95,27.94 L 411.98,26.09 L 409.25,27.32 L 408.56,29.09 L 409.32,28.97 L 409.11,29.67 L 408.54,30.27 L 407.61,29.54 L 406.48,31.31 L 404.87,31.78 L 403.64,35.27 L 401.31,36.81 L 397.95,41.63 L 399.06,39.76 L 398.60,39.07 L 401.52,35.87 L 400.94,34.79 L 402.01,32.74 L 404.28,29.75 L 405.06,30.00 L 404.49,29.58 L 405.20,28.20 L 406.69,27.90 L 405.73,27.32 L 405.91,26.80 L 407.21,26.29 L 407.83,27.34 L 408.78,27.13 L 408.89,26.04 L 410.12,25.34 L 409.75,24.67 L 411.45,24.15 L 411.08,23.42 L 412.16,24.24 L 414.90,22.69 L 418.14,24.20 L 416.14,26.91 Z" fill="#A8C8E8" stroke="none"/>
<path d="M 456.61,11.76 L 454.13,11.39 L 450.82,13.37 L 442.62,12.53 L 440.78,14.93 L 441.34,13.20 L 440.05,13.23 L 437.02,12.17 L 440.59,13.03 L 442.56,11.74 L 450.08,11.99 L 453.14,10.61 L 456.61,11.76 Z" fill="#A8C8E8" stroke="none"/>
<path d="M 387.84,164.33 L 385.48,162.58 L 384.25,163.30 L 385.82,165.19 L 385.15,165.74 L 383.36,164.04 L 385.18,162.13 L 387.66,163.56 L 388.29,162.70 L 387.84,164.33 Z" fill="#A8C8E8" stroke="none"/>
<path d="M 412.49,155.08 L 410.24,153.98 L 410.75,154.79 L 410.17,155.19 L 411.55,155.02 L 412.29,156.19 L 411.95,157.43 L 411.38,155.67 L 411.16,156.40 L 409.78,155.84 L 409.84,153.81 L 409.01,153.98 L 409.54,152.70 L 413.28,154.72 L 412.49,155.08 Z" fill="#A8C8E8" stroke="none"/>
<path d="M 375.76,195.71 L 374.11,192.52 L 375.20,192.91 L 376.62,195.59 L 375.76,195.71 Z" fill="#A8C8E8" stroke="none"/>
<path d="M 385.08,201.87 L 383.27,201.88 L 383.79,201.41 L 382.20,200.54 L 383.73,199.84 L 383.46,200.55 L 384.77,201.11 L 385.04,200.03 L 385.32,200.71 L 386.76,199.71 L 385.08,201.87 Z" fill="#A8C8E8" stroke="none"/>
</svg>