<svg xmlns="http://www.w3.org/2000/svg" width="800" height="500" viewBox="0 0 800 500">
<rect width="800" height="500" fill="#A8C8E8"/>
<path d="M 601.80,2.67 L 599.00,6.25 L 600.31,9.34 L 599.03,17.21 L 592.74,18.83 L 589.48,18.45 L 583.84,23.44 L 587.99,27.38 L 587.86,30.57 L 586.23,30.96 L 582.31,30.64 L 583.52,27.16 L 578.58,25.99 L 567.44,20.12 L 566.93,17.43 L 562.95,15.29 L 570.67,7.83 L 569.39,0.00 L 600.61,0.00 L 601.80,2.67 Z" fill="#E8E0D0" stroke="#B8B0A0" stroke-width="0.5"/>
<path d="M 469.52,3.86 L 474.08,12.02 L 454.94,12.34 L 439.72,16.22 L 437.97,17.43 L 437.97,21.56 L 435.74,23.37 L 413.79,28.75 L 408.22,33.82 L 397.48,40.35 L 387.82,42.71 L 376.47,40.36 L 369.79,41.82 L 364.14,39.46 L 356.10,39.84 L 349.16,36.57 L 340.96,35.45 L 330.18,35.29 L 310.68,37.32 L 281.07,23.52 L 278.13,18.49 L 278.11,0.00 L 491.55,0.00 L 469.52,3.86 Z" fill="#E8E0D0" stroke="#B8B0A0" stroke-width="0.5"/>
<path d="M 278.18,18.76 L 282.08,24.19 L 286.31,25.15 L 296.35,31.39 L 310.68,37.32 L 264.30,42.02 L 259.06,40.96 L 250.81,42.23 L 239.88,40.01 L 226.74,40.46 L 206.26,39.31 L 200.51,37.28 L 196.11,34.16 L 92.13,34.58 L 81.45,30.79 L 80.49,29.38 L 73.20,28.64 L 59.27,32.21 L 51.73,32.08 L 48.13,31.01 L 40.46,32.26 L 41.95,22.70 L 39.94,14.88 L 45.90,11.86 L 47.40,7.03 L 49.46,6.21 L 52.37,0.00 L 278.14,0.00 L 278.18,18.76 Z M 40.01,25.55 L 39.16,22.97 L 39.57,23.04 L 40.01,25.55 Z" fill="#E8E0D0" stroke="#B8B0A0" stroke-width="0.5"/>
<path d="M 800.00,67.69 L 800.00,133.28 L 798.59,133.13 L 796.89,131.83 L 798.93,132.68 L 799.41,132.27 L 790.67,129.89 L 788.10,125.11 L 782.40,121.53 L 781.28,114.33 L 784.45,110.58 L 781.42,109.08 L 780.31,105.69 L 775.15,102.77 L 771.94,95.36 L 773.77,94.91 L 772.49,92.60 L 774.57,89.25 L 777.74,88.03 L 778.55,83.47 L 785.65,82.40 L 787.71,78.11 L 800.00,67.69 Z M 798.62,64.15 L 800.00,62.17 L 800.00,65.69 L 798.62,64.15 Z M 795.45,55.53 L 795.98,51.95 L 790.97,46.83 L 790.83,38.94 L 788.23,36.13 L 800.00,25.50 L 800.00,59.50 L 795.45,55.53 Z" fill="#E8E0D0" stroke="#B8B0A0" stroke-width="0.5"/>
<path d="M 760.35,30.05 L 761.15,30.02 L 760.98,30.21 L 760.35,30.05 Z M 705.98,96.43 L 705.58,96.72 L 704.89,96.68 L 705.98,96.43 Z M 690.71,85.14 L 690.76,85.17 L 690.69,85.17 L 690.71,85.14 Z" fill="#E8E0D0" stroke="#B8B0A0" stroke-width="0.5"/>
<path d="M 354.23,41.85 L 370.17,53.43 L 370.35,55.72 L 375.16,61.17 L 378.60,61.68 L 378.80,62.61 L 388.14,66.08 L 399.49,68.17 L 401.03,73.23 L 411.02,73.40 L 410.29,80.47 L 417.82,86.52 L 432.36,87.72 L 442.19,89.62 L 442.23,92.42 L 449.43,94.51 L 442.19,94.98 L 439.67,97.71 L 437.03,98.36 L 425.06,99.76 L 412.32,107.52 L 408.93,107.47 L 407.56,109.28 L 397.76,111.35 L 394.03,113.78 L 391.06,120.66 L 383.90,123.09 L 380.95,125.28 L 368.49,126.73 L 367.72,130.11 L 361.95,137.70 L 358.96,138.85 L 340.51,140.26 L 332.93,139.36 L 329.32,137.78 L 323.30,137.82 L 312.48,133.45 L 302.52,133.67 L 298.19,135.95 L 295.08,142.44 L 291.23,145.09 L 284.33,146.85 L 279.90,150.25 L 273.46,151.01 L 273.03,152.60 L 270.76,153.34 L 253.17,152.55 L 248.12,153.70 L 246.13,148.69 L 251.63,144.13 L 246.89,137.71 L 247.33,135.79 L 240.55,130.32 L 231.63,126.79 L 231.56,92.17 L 254.96,91.71 L 254.73,45.85 L 308.61,41.82 L 315.98,47.85 L 333.20,41.28 L 338.17,42.50 L 347.22,39.17 L 354.34,39.25 L 354.23,41.85 Z" fill="#C8D8E8" stroke="#8BAABB" stroke-width="0.8"/>
<path d="M 448.54,181.35 L 451.42,184.53 L 443.93,189.66 L 444.64,191.80 L 436.54,193.93 L 426.97,194.62 L 422.71,196.36 L 423.59,197.24 L 420.96,198.56 L 419.87,201.09 L 412.08,200.36 L 405.31,196.71 L 403.31,196.72 L 403.66,194.60 L 394.85,188.61 L 402.94,186.27 L 412.17,179.08 L 418.36,178.70 L 421.64,176.48 L 432.79,174.83 L 440.84,179.08 L 448.54,181.35 Z" fill="#C8D8E8" stroke="#8BAABB" stroke-width="0.8"/>
<path d="M 512.67,142.61 L 509.85,141.96 L 508.84,140.13 L 510.93,137.91 L 510.72,122.64 L 507.56,116.45 L 500.05,110.49 L 500.25,106.71 L 494.27,97.38 L 521.43,83.52 L 518.93,81.26 L 522.45,78.78 L 522.23,74.58 L 526.65,73.69 L 531.61,68.29 L 534.45,67.40 L 535.04,64.28 L 532.96,62.59 L 530.09,62.90 L 530.38,60.72 L 528.78,60.25 L 530.93,55.47 L 526.87,53.85 L 527.11,52.33 L 532.01,51.58 L 531.27,48.58 L 535.27,46.26 L 533.23,45.06 L 532.59,41.49 L 534.85,37.05 L 532.80,35.52 L 534.78,33.60 L 530.30,28.44 L 533.55,25.25 L 528.03,25.59 L 526.65,24.22 L 517.78,22.36 L 508.95,22.07 L 504.31,19.41 L 497.19,18.72 L 493.83,16.97 L 473.90,16.69 L 473.67,10.14 L 469.52,3.86 L 491.55,0.00 L 569.69,0.00 L 570.76,7.50 L 562.95,15.29 L 566.93,17.43 L 567.44,20.12 L 578.58,25.99 L 583.52,27.16 L 582.31,30.64 L 587.56,30.88 L 587.24,25.49 L 583.84,23.44 L 589.48,18.45 L 592.74,18.83 L 599.03,17.21 L 600.31,9.34 L 599.00,6.25 L 601.80,2.67 L 600.61,0.00 L 716.65,0.00 L 716.72,0.38 L 713.89,2.67 L 711.96,2.25 L 715.00,4.06 L 712.61,3.80 L 713.56,5.01 L 709.29,5.74 L 708.93,6.38 L 711.78,6.16 L 712.86,7.02 L 710.54,10.28 L 698.52,16.54 L 700.14,16.50 L 696.83,19.47 L 691.98,20.47 L 692.55,21.57 L 693.66,22.08 L 676.77,27.59 L 675.87,29.05 L 665.93,29.58 L 654.53,32.87 L 652.40,31.65 L 653.49,32.86 L 631.67,38.55 L 626.90,41.99 L 624.66,40.34 L 623.38,40.30 L 626.74,42.42 L 615.02,48.84 L 613.49,51.71 L 609.56,50.57 L 610.23,53.04 L 607.43,53.16 L 606.90,51.91 L 600.66,53.80 L 583.72,63.29 L 577.99,65.28 L 572.10,61.91 L 570.39,61.74 L 575.60,64.67 L 574.01,65.54 L 575.54,68.91 L 572.76,68.90 L 574.81,69.85 L 572.41,71.73 L 574.18,72.87 L 573.06,73.81 L 574.73,73.59 L 577.81,75.97 L 580.62,76.18 L 581.65,78.80 L 583.57,79.16 L 581.16,80.98 L 582.45,83.63 L 583.73,81.83 L 583.57,84.32 L 587.07,87.68 L 587.88,97.05 L 589.93,98.30 L 591.04,93.66 L 592.42,93.49 L 592.80,96.06 L 593.59,94.41 L 592.15,100.84 L 593.28,104.07 L 594.87,103.67 L 591.90,106.96 L 589.85,114.15 L 589.65,113.27 L 588.69,113.25 L 588.50,116.87 L 589.61,115.36 L 591.61,115.81 L 591.84,114.58 L 593.03,114.84 L 592.32,118.60 L 583.25,124.84 L 540.72,133.64 L 541.70,133.08 L 531.32,136.74 L 527.00,141.05 L 524.78,142.09 L 523.04,141.85 L 522.12,142.29 L 530.62,146.11 L 533.22,143.47 L 531.79,153.13 L 513.68,153.05 L 512.67,142.61 Z M 532.38,142.50 L 533.87,142.09 L 533.38,143.04 L 532.38,142.50 Z M 592.18,87.65 L 590.88,89.43 L 590.95,88.04 L 591.69,86.49 L 592.18,87.65 Z M 695.76,20.48 L 694.19,21.92 L 692.86,20.67 L 695.76,20.48 Z" fill="#C8D8E8" stroke="#8BAABB" stroke-width="0.8"/>
<path d="M 147.14,174.64 L 133.21,167.95 L 122.69,159.12 L 121.14,154.38 L 117.76,151.23 L 119.75,149.93 L 118.28,147.77 L 115.04,146.70 L 115.34,143.22 L 112.12,139.36 L 112.42,130.71 L 103.26,118.56 L 104.53,115.97 L 102.68,109.96 L 104.02,108.63 L 102.11,104.37 L 102.69,103.23 L 103.26,104.68 L 104.88,103.48 L 104.40,99.05 L 78.58,77.68 L 73.46,69.38 L 70.20,67.75 L 56.55,53.22 L 46.83,48.19 L 41.36,41.28 L 39.52,36.13 L 40.39,32.61 L 48.13,31.01 L 51.73,32.08 L 59.27,32.21 L 73.20,28.64 L 80.49,29.38 L 81.45,30.79 L 92.13,34.58 L 196.11,34.16 L 200.51,37.28 L 206.26,39.31 L 226.74,40.46 L 239.88,40.01 L 250.81,42.23 L 259.06,40.96 L 264.30,42.02 L 330.18,35.29 L 349.16,36.57 L 354.34,39.25 L 347.22,39.17 L 338.17,42.50 L 333.20,41.28 L 315.98,47.85 L 308.61,41.82 L 254.73,45.85 L 254.96,91.71 L 231.56,92.17 L 231.64,172.96 L 222.04,174.33 L 219.40,176.52 L 215.00,176.99 L 215.52,178.75 L 211.61,179.69 L 202.90,178.21 L 189.44,178.99 L 183.55,177.47 L 176.94,177.26 L 175.87,176.20 L 171.70,176.50 L 172.10,175.11 L 169.86,173.56 L 171.61,172.62 L 170.36,170.51 L 167.28,170.56 L 164.10,167.98 L 159.83,168.68 L 156.94,170.98 L 156.29,173.70 L 147.14,174.64 Z" fill="#C8D8E8" stroke="#8BAABB" stroke-width="0.8"/>
<path d="M 512.67,142.61 L 511.96,146.05 L 513.76,149.81 L 513.68,153.05 L 510.80,152.65 L 510.29,159.04 L 500.03,158.97 L 491.08,157.54 L 482.80,151.50 L 483.24,147.48 L 490.57,141.35 L 497.12,139.16 L 507.19,142.26 L 512.67,142.61 Z" fill="#C8D8E8" stroke="#8BAABB" stroke-width="0.8"/>
<path d="M 360.31,40.10 L 364.14,39.46 L 369.79,41.82 L 376.47,40.36 L 387.82,42.71 L 395.29,41.31 L 408.22,33.82 L 413.79,28.75 L 436.85,22.79 L 437.97,17.43 L 439.72,16.22 L 454.94,12.34 L 473.75,12.09 L 473.90,16.69 L 493.83,16.97 L 497.19,18.72 L 504.31,19.41 L 508.95,22.07 L 517.78,22.36 L 526.65,24.22 L 528.03,25.59 L 533.55,25.25 L 530.30,28.44 L 534.78,33.60 L 532.80,35.52 L 534.85,37.05 L 532.59,41.49 L 533.23,45.06 L 535.27,46.26 L 531.27,48.58 L 532.01,51.58 L 527.11,52.33 L 526.87,53.85 L 530.93,55.47 L 528.78,60.25 L 530.38,60.72 L 530.09,62.90 L 532.96,62.59 L 535.04,64.28 L 534.45,67.40 L 531.61,68.29 L 526.65,73.69 L 522.23,74.58 L 522.45,78.78 L 518.93,81.26 L 521.43,83.52 L 494.50,97.16 L 484.02,95.71 L 472.32,96.50 L 458.93,93.81 L 449.59,94.56 L 442.23,92.42 L 442.19,89.62 L 432.36,87.72 L 417.82,86.52 L 410.29,80.47 L 411.02,73.40 L 401.03,73.23 L 399.49,68.17 L 388.14,66.08 L 378.80,62.61 L 378.60,61.68 L 375.16,61.17 L 370.35,55.72 L 370.17,53.43 L 354.23,41.85 L 354.34,39.25 L 360.31,40.10 Z" fill="#C8D8E8" stroke="#8BAABB" stroke-width="0.8"/>
<path d="M 240.55,130.32 L 247.33,135.79 L 246.89,137.71 L 251.63,144.13 L 246.13,148.69 L 248.12,153.70 L 253.17,152.55 L 270.76,153.34 L 273.03,152.60 L 273.46,151.01 L 279.90,150.25 L 284.33,146.85 L 291.23,145.09 L 295.28,142.28 L 298.19,135.95 L 302.52,133.67 L 312.48,133.45 L 323.30,137.82 L 329.32,137.78 L 332.93,139.36 L 340.51,140.26 L 358.96,138.85 L 361.95,137.70 L 367.72,130.11 L 368.49,126.73 L 380.95,125.28 L 383.90,123.09 L 391.06,120.66 L 394.03,113.78 L 397.76,111.35 L 407.56,109.28 L 408.93,107.47 L 412.32,107.52 L 425.06,99.76 L 439.26,97.87 L 442.19,94.98 L 456.67,93.75 L 472.32,96.50 L 491.33,96.14 L 494.50,97.16 L 500.25,106.71 L 500.05,110.49 L 507.56,116.45 L 510.72,122.64 L 510.93,137.91 L 508.52,142.28 L 497.12,139.16 L 490.57,141.35 L 483.24,147.48 L 483.19,152.66 L 485.00,152.20 L 486.71,155.07 L 491.08,157.54 L 500.03,158.97 L 510.29,159.04 L 510.80,152.65 L 531.79,153.13 L 531.15,155.28 L 520.15,174.38 L 511.42,177.52 L 512.66,177.78 L 511.31,178.55 L 505.66,179.25 L 496.27,184.41 L 487.81,191.58 L 489.14,191.50 L 466.00,208.39 L 450.86,213.91 L 430.80,225.04 L 397.14,237.16 L 382.62,240.16 L 366.56,239.90 L 363.04,241.31 L 364.52,243.57 L 347.21,242.94 L 344.45,245.72 L 316.58,242.87 L 310.80,243.52 L 311.30,244.51 L 292.13,243.05 L 282.49,244.18 L 281.99,245.37 L 277.33,245.94 L 273.65,247.93 L 267.81,247.52 L 262.42,248.47 L 253.30,247.66 L 250.78,248.14 L 251.62,248.98 L 243.28,249.05 L 232.43,253.43 L 224.00,252.87 L 218.08,250.70 L 215.72,250.90 L 217.19,249.43 L 215.57,248.28 L 211.59,248.17 L 212.07,246.83 L 204.58,247.87 L 205.52,245.02 L 204.17,244.26 L 196.69,244.47 L 196.50,247.50 L 192.92,245.11 L 192.89,243.50 L 196.83,241.17 L 192.71,236.58 L 184.52,231.83 L 188.53,233.03 L 186.44,230.97 L 183.29,231.01 L 181.92,228.33 L 184.81,226.82 L 188.33,227.69 L 192.46,225.62 L 193.69,221.24 L 192.01,216.62 L 168.88,197.18 L 158.23,181.50 L 150.00,175.45 L 156.29,173.70 L 156.94,170.98 L 159.83,168.68 L 164.10,167.98 L 167.28,170.56 L 170.36,170.51 L 171.61,172.62 L 169.86,173.56 L 172.10,175.11 L 171.70,176.50 L 175.87,176.20 L 176.94,177.26 L 183.55,177.47 L 189.44,178.99 L 202.90,178.21 L 211.61,179.69 L 215.52,178.75 L 215.00,176.99 L 219.40,176.52 L 222.04,174.33 L 231.64,172.96 L 231.63,126.79 L 240.55,130.32 Z M 432.79,174.83 L 421.64,176.48 L 418.36,178.70 L 412.17,179.08 L 402.94,186.27 L 394.85,188.61 L 403.66,194.60 L 403.31,196.72 L 405.31,196.71 L 412.08,200.36 L 419.87,201.09 L 420.96,198.56 L 423.59,197.24 L 422.71,196.36 L 426.97,194.62 L 436.54,193.93 L 444.64,191.80 L 443.93,189.66 L 451.42,184.53 L 448.54,181.35 L 440.84,179.08 L 432.79,174.83 Z M 646.36,404.72 L 648.09,405.30 L 646.02,406.25 L 641.27,406.03 L 642.67,404.52 L 646.36,404.72 Z M 648.20,401.64 L 650.00,401.85 L 649.09,402.33 L 647.29,402.10 L 648.20,401.64 Z" fill="#4A90D9" stroke="#1a5fa8" stroke-width="1.2"/>
<path d="M 587.24,1.04 L 585.21,0.14 L 585.21,0.00 L 587.95,0.00 L 587.24,1.04 Z" fill="#A8C8E8" stroke="none"/>
<path d="M 341.69,83.81 L 340.96,83.59 L 343.65,82.58 L 341.69,83.81 Z" fill="#A8C8E8" stroke="none"/>
<path d="M 511.06,161.08 L 508.60,159.41 L 510.06,159.23 L 511.06,161.08 Z" fill="#A8C8E8" stroke="none"/>
<path d="M 436.20,26.91 L 433.82,25.19 L 428.32,26.91 L 429.04,27.94 L 426.86,26.09 L 420.75,27.32 L 419.21,29.09 L 420.92,28.97 L 420.45,29.67 L 419.16,30.27 L 417.07,29.54 L 414.54,31.31 L 410.93,31.78 L 408.18,35.27 L 402.95,36.81 L 395.39,41.63 L 397.90,39.76 L 396.85,39.07 L 403.42,35.87 L 402.11,34.79 L 404.50,32.74 L 409.59,29.75 L 411.35,30.00 L 410.08,29.58 L 411.67,28.20 L 415.02,27.90 L 412.86,27.32 L 413.26,26.80 L 416.18,26.29 L 417.57,27.34 L 419.69,27.13 L 419.95,26.04 L 422.71,25.34 L 421.88,24.67 L 425.69,24.15 L 424.87,23.42 L 427.28,24.24 L 433.42,22.69 L 440.70,24.20 L 436.20,26.91 Z" fill="#A8C8E8" stroke="none"/>
<path d="M 527.01,11.76 L 521.44,11.39 L 514.02,13.37 L 495.62,12.53 L 491.48,14.93 L 492.75,13.20 L 489.85,13.23 L 483.05,12.17 L 491.07,13.03 L 495.47,11.74 L 512.36,11.99 L 519.21,10.61 L 527.01,11.76 Z" fill="#A8C8E8" stroke="none"/>
<path d="M 372.71,164.33 L 367.43,162.58 L 364.67,163.30 L 368.18,165.19 L 366.69,165.74 L 362.67,164.04 L 366.75,162.13 L 372.32,163.56 L 373.72,162.70 L 372.71,164.33 Z" fill="#A8C8E8" stroke="none"/>
<path d="M 428.01,155.08 L 422.98,153.98 L 424.13,154.79 L 422.81,155.19 L 425.91,155.02 L 427.57,156.19 L 426.80,157.43 L 425.52,155.67 L 425.04,156.40 L 421.95,155.84 L 422.07,153.81 L 420.21,153.98 L 421.40,152.70 L 429.79,154.72 L 428.01,155.08 Z" fill="#A8C8E8" stroke="none"/>
<path d="M 345.62,195.71 L 341.91,192.52 L 344.36,192.91 L 347.56,195.59 L 345.62,195.71 Z" fill="#A8C8E8" stroke="none"/>
<path d="M 366.54,201.87 L 362.46,201.88 L 363.64,201.41 L 360.07,200.54 L 363.51,199.84 L 362.89,200.55 L 365.82,201.11 L 366.45,200.03 L 367.07,200.71 L 370.29,199.71 L 366.54,201.87 Z" fill="#A8C8E8" stroke="none"/>
</svg>