<svg xmlns="http://www.w3.org/2000/svg" width="800" height="500" viewBox="0 0 800 500">
<rect width="800" height="500" fill="#A8C8E8"/>
<path d="M 239.01,195.42 L 234.43,202.70 L 234.42,219.00 L 237.69,226.37 L 230.63,239.18 L 236.40,245.88 L 150.00,245.88 L 150.17,346.02 L 157.34,359.68 L 165.13,362.09 L 183.58,377.78 L 209.93,392.70 L 124.64,404.52 L 115.00,401.86 L 99.82,405.05 L 79.72,399.47 L 55.56,400.59 L 17.89,397.71 L 7.32,392.60 L 0.00,385.50 L 0.00,87.60 L 1.54,87.53 L 1.92,85.46 L 37.79,87.67 L 37.80,74.13 L 44.53,71.13 L 44.90,56.02 L 77.93,56.02 L 79.01,53.38 L 91.49,53.30 L 87.60,65.02 L 141.67,64.93 L 144.91,70.83 L 140.34,87.52 L 148.46,102.03 L 141.97,132.10 L 145.68,140.05 L 157.70,148.73 L 164.26,162.56 L 164.52,174.99 L 157.94,177.87 L 161.02,190.44 L 172.28,183.89 L 194.23,185.79 L 213.11,181.31 L 229.26,183.44 L 234.98,178.50 L 239.01,195.42 Z" fill="#C8D8E8" stroke="#8BAABB" stroke-width="0.8"/>
<path d="M 290.03,404.09 L 319.35,433.21 L 319.68,438.97 L 328.53,452.70 L 334.86,453.97 L 335.23,456.32 L 352.41,465.05 L 373.27,470.29 L 376.11,483.04 L 394.49,483.46 L 393.24,500.00 L 107.35,500.00 L 107.04,414.16 L 206.13,404.03 L 219.69,419.18 L 251.36,402.67 L 260.50,405.73 L 277.13,397.36 L 290.23,397.54 L 290.03,404.09 Z" fill="#C8D8E8" stroke="#8BAABB" stroke-width="0.8"/>
<path d="M 476.34,14.96 L 470.51,24.38 L 473.14,34.20 L 480.38,43.92 L 496.79,52.48 L 505.50,60.69 L 525.06,93.75 L 445.41,102.89 L 445.58,111.84 L 422.46,127.86 L 429.46,131.22 L 437.26,144.31 L 431.76,157.85 L 437.31,171.25 L 431.10,177.32 L 422.80,199.43 L 429.11,210.16 L 439.51,213.94 L 451.65,226.18 L 471.51,228.53 L 470.43,221.87 L 484.33,219.06 L 483.60,260.25 L 476.55,259.16 L 478.76,254.73 L 474.71,252.97 L 458.02,259.66 L 449.89,258.36 L 437.67,242.34 L 430.60,242.21 L 425.47,230.68 L 405.63,225.83 L 401.27,222.49 L 391.93,223.48 L 382.63,211.72 L 374.65,208.15 L 372.34,200.57 L 365.65,201.39 L 362.40,211.31 L 352.56,214.60 L 339.61,211.40 L 321.08,211.12 L 305.70,205.61 L 300.32,207.12 L 293.88,202.86 L 292.40,188.71 L 266.84,192.86 L 257.36,197.15 L 248.94,195.18 L 253.14,191.37 L 252.21,185.71 L 241.68,183.91 L 241.26,179.99 L 236.43,178.54 L 229.26,183.44 L 213.11,181.31 L 194.23,185.79 L 172.28,183.89 L 161.02,190.44 L 157.94,177.87 L 164.52,174.99 L 164.26,162.56 L 157.70,148.73 L 145.68,140.05 L 141.97,132.10 L 148.46,102.03 L 140.34,87.52 L 144.91,70.83 L 141.67,64.93 L 87.60,65.02 L 91.49,53.30 L 79.01,53.38 L 77.93,56.02 L 44.90,56.02 L 44.53,71.13 L 37.80,74.13 L 37.79,87.67 L 1.92,85.46 L 1.54,87.53 L 0.00,87.60 L 0.00,0.00 L 468.90,0.00 L 476.34,14.96 Z" fill="#C8D8E8" stroke="#8BAABB" stroke-width="0.8"/>
<path d="M 690.30,200.84 L 688.04,208.84 L 679.27,219.07 L 685.07,235.94 L 687.24,256.14 L 691.32,261.41 L 700.83,262.16 L 710.28,268.12 L 742.91,298.06 L 745.35,305.54 L 740.21,314.56 L 742.62,322.33 L 740.25,342.11 L 728.69,346.19 L 722.70,345.23 L 712.33,357.78 L 719.95,367.69 L 719.72,375.71 L 716.72,376.70 L 709.51,375.89 L 711.74,367.14 L 702.64,364.21 L 682.16,349.44 L 681.23,342.66 L 673.90,337.28 L 688.09,318.53 L 685.38,295.70 L 678.64,289.74 L 666.10,293.15 L 651.98,292.98 L 648.74,296.52 L 633.15,279.40 L 627.17,275.10 L 621.17,279.08 L 615.79,271.80 L 611.04,270.43 L 611.33,266.30 L 606.78,264.70 L 613.18,262.55 L 621.10,252.24 L 621.75,243.21 L 618.66,238.55 L 622.24,233.58 L 636.16,231.04 L 643.71,225.44 L 636.12,224.57 L 631.98,218.60 L 634.60,206.98 L 633.86,201.33 L 630.27,200.39 L 631.02,195.72 L 637.89,187.76 L 631.12,178.85 L 642.59,175.24 L 650.00,169.16 L 643.97,158.21 L 634.18,152.92 L 635.86,145.56 L 628.67,138.31 L 620.61,139.14 L 618.45,131.65 L 628.57,135.42 L 634.01,134.83 L 639.94,138.92 L 652.58,137.74 L 660.16,141.97 L 664.47,134.36 L 677.52,142.01 L 686.86,152.26 L 688.77,167.98 L 692.79,174.71 L 690.16,185.78 L 696.66,193.46 L 701.84,194.42 L 705.17,200.69 L 690.30,200.84 Z M 696.52,215.46 L 693.39,218.13 L 691.97,216.60 L 693.61,214.20 L 696.52,215.46 Z M 690.76,213.79 L 690.06,216.48 L 687.19,214.55 L 690.76,213.79 Z" fill="#C8D8E8" stroke="#8BAABB" stroke-width="0.8"/>
<path d="M 599.41,496.98 L 599.01,486.43 L 607.14,484.18 L 616.27,470.61 L 621.48,468.36 L 622.58,460.52 L 618.74,456.25 L 613.46,457.04 L 614.00,451.55 L 611.06,450.39 L 615.01,438.35 L 607.54,434.28 L 607.98,430.46 L 617.01,428.57 L 615.65,421.01 L 623.00,415.20 L 619.25,412.17 L 618.07,403.20 L 622.22,392.01 L 618.46,388.18 L 622.10,383.35 L 613.85,370.36 L 619.83,362.34 L 609.69,363.20 L 607.14,359.75 L 590.84,355.06 L 574.58,354.34 L 566.05,347.66 L 552.96,345.90 L 546.78,341.51 L 510.12,340.81 L 509.70,324.34 L 502.08,308.54 L 629.84,277.92 L 648.74,296.52 L 651.98,292.98 L 666.10,293.15 L 678.64,289.74 L 686.08,296.70 L 688.26,317.70 L 673.90,337.28 L 681.23,342.66 L 682.16,349.44 L 702.64,364.21 L 711.74,367.14 L 709.51,375.89 L 719.17,376.51 L 718.58,362.94 L 712.33,357.78 L 722.70,345.23 L 728.69,346.19 L 740.25,342.11 L 742.62,322.33 L 740.21,314.56 L 745.35,305.54 L 742.91,298.06 L 710.28,268.12 L 700.83,262.16 L 691.32,261.41 L 687.24,256.14 L 685.07,235.94 L 679.07,220.50 L 690.30,200.84 L 729.41,201.93 L 742.02,195.63 L 756.63,200.86 L 757.98,204.74 L 776.19,205.37 L 784.51,200.69 L 793.58,200.42 L 798.25,203.89 L 800.00,204.07 L 800.00,396.08 L 791.52,404.45 L 787.41,400.29 L 785.05,400.19 L 791.22,405.53 L 769.66,421.67 L 766.86,428.90 L 759.62,426.02 L 760.85,432.25 L 755.72,432.56 L 754.73,429.40 L 743.26,434.16 L 712.11,458.01 L 701.56,463.03 L 690.73,454.56 L 687.58,454.13 L 697.18,461.50 L 694.25,463.68 L 697.06,472.16 L 691.95,472.14 L 695.71,474.52 L 691.31,479.25 L 694.56,482.13 L 692.50,484.47 L 695.57,483.94 L 701.23,489.91 L 706.40,490.46 L 708.29,497.05 L 711.82,497.93 L 709.82,500.00 L 596.29,500.00 L 599.41,496.98 Z M 691.97,216.60 L 693.39,218.13 L 696.52,215.46 L 693.61,214.20 L 691.97,216.60 Z M 687.19,214.55 L 690.06,216.48 L 690.76,213.79 L 687.19,214.55 Z" fill="#C8D8E8" stroke="#8BAABB" stroke-width="0.8"/>
<path d="M 7.32,392.60 L 17.89,397.71 L 55.56,400.59 L 79.72,399.47 L 99.82,405.05 L 115.00,401.86 L 124.64,404.52 L 245.80,387.59 L 280.71,390.81 L 290.23,397.54 L 277.13,397.36 L 260.50,405.73 L 251.36,402.67 L 219.69,419.18 L 206.13,404.03 L 107.04,414.16 L 107.35,500.00 L 0.00,500.00 L 0.00,385.50 L 7.32,392.60 Z" fill="#C8D8E8" stroke="#8BAABB" stroke-width="0.8"/>
<path d="M 600.57,127.42 L 596.52,123.80 L 575.77,121.21 L 575.71,117.12 L 564.42,116.50 L 558.71,109.87 L 550.77,106.19 L 538.99,107.11 L 533.93,105.03 L 511.79,74.83 L 505.50,60.69 L 496.79,52.48 L 480.38,43.92 L 472.62,32.96 L 470.51,24.38 L 476.34,14.96 L 468.90,0.00 L 800.00,0.00 L 800.00,204.07 L 798.25,203.89 L 793.58,200.42 L 784.51,200.69 L 776.19,205.37 L 757.98,204.74 L 756.63,200.86 L 742.02,195.63 L 731.32,201.69 L 705.17,200.69 L 701.84,194.42 L 696.66,193.46 L 690.16,185.78 L 692.79,174.71 L 688.77,167.98 L 686.86,152.26 L 677.52,142.01 L 664.47,134.36 L 660.16,141.97 L 652.58,137.74 L 639.94,138.92 L 634.01,134.83 L 600.57,127.42 Z" fill="#C8D8E8" stroke="#8BAABB" stroke-width="0.8"/>
<path d="M 301.21,399.70 L 308.26,398.09 L 318.66,404.03 L 330.94,400.35 L 351.81,406.25 L 365.55,402.75 L 389.32,383.91 L 399.57,371.14 L 441.98,356.16 L 444.05,342.68 L 447.26,339.62 L 475.26,329.87 L 509.85,329.25 L 510.12,340.81 L 546.78,341.51 L 552.96,345.90 L 566.05,347.66 L 574.58,354.34 L 590.84,355.06 L 607.14,359.75 L 609.69,363.20 L 619.83,362.34 L 613.85,370.36 L 622.10,383.35 L 618.46,388.18 L 622.22,392.01 L 618.07,403.20 L 619.25,412.17 L 623.00,415.20 L 615.65,421.01 L 617.01,428.57 L 607.98,430.46 L 607.54,434.28 L 615.01,438.35 L 611.06,450.39 L 614.00,451.55 L 613.46,457.04 L 618.74,456.25 L 622.58,460.52 L 621.48,468.36 L 616.27,470.61 L 607.14,484.18 L 599.01,486.43 L 599.41,496.98 L 596.29,500.00 L 393.24,500.00 L 394.49,483.46 L 376.11,483.04 L 373.27,470.29 L 352.41,465.05 L 335.23,456.32 L 334.86,453.97 L 328.53,452.70 L 319.68,438.97 L 319.35,433.21 L 290.03,404.09 L 290.23,397.54 L 301.21,399.70 Z" fill="#C8D8E8" stroke="#8BAABB" stroke-width="0.8"/>
<path d="M 620.61,139.14 L 628.67,138.31 L 635.86,145.56 L 634.18,152.92 L 643.97,158.21 L 650.00,169.16 L 642.59,175.24 L 631.12,178.85 L 637.89,187.76 L 631.02,195.72 L 630.27,200.39 L 633.86,201.33 L 634.60,206.98 L 631.98,218.60 L 636.12,224.57 L 643.71,225.44 L 636.16,231.04 L 622.24,233.58 L 618.66,238.55 L 621.75,243.21 L 621.10,252.24 L 613.18,262.55 L 606.78,264.70 L 611.33,266.30 L 611.04,270.43 L 615.79,271.80 L 621.17,279.08 L 627.17,275.10 L 629.84,277.92 L 502.08,308.54 L 510.45,329.07 L 475.26,329.87 L 447.26,339.62 L 444.05,342.68 L 444.05,353.05 L 439.94,357.61 L 399.57,371.14 L 389.32,383.91 L 369.57,400.33 L 351.81,406.25 L 330.94,400.35 L 318.66,404.03 L 308.26,398.09 L 293.47,399.03 L 280.71,390.81 L 265.63,388.00 L 245.80,387.59 L 209.93,392.70 L 155.48,357.98 L 150.07,345.33 L 150.00,245.88 L 236.40,245.88 L 230.63,239.18 L 237.69,226.37 L 234.42,219.00 L 234.43,202.70 L 239.01,195.42 L 234.98,178.50 L 241.26,179.99 L 241.68,183.91 L 252.21,185.71 L 253.14,191.37 L 248.58,194.61 L 255.46,197.21 L 266.84,192.86 L 292.40,188.71 L 293.88,202.86 L 300.32,207.12 L 305.70,205.61 L 321.08,211.12 L 339.61,211.40 L 352.56,214.60 L 362.40,211.31 L 365.65,201.39 L 372.34,200.57 L 374.65,208.15 L 382.63,211.72 L 391.93,223.48 L 401.27,222.49 L 405.63,225.83 L 425.47,230.68 L 430.60,242.21 L 437.67,242.34 L 449.89,258.36 L 458.02,259.66 L 474.71,252.97 L 478.76,254.73 L 476.55,259.16 L 482.95,260.34 L 484.33,219.06 L 470.43,221.87 L 471.51,228.53 L 451.65,226.18 L 439.51,213.94 L 429.11,210.16 L 422.60,198.94 L 431.10,177.32 L 437.31,171.25 L 431.76,157.85 L 437.26,144.31 L 429.46,131.22 L 422.46,127.86 L 445.58,111.84 L 445.41,102.89 L 525.06,93.75 L 537.10,106.60 L 550.77,106.19 L 558.71,109.87 L 564.42,116.50 L 575.71,117.12 L 575.77,121.21 L 596.52,123.80 L 600.57,127.42 L 617.79,132.16 L 620.61,139.14 Z" fill="#4A90D9" stroke="#1a5fa8" stroke-width="1.2"/>
<path d="M 702.13,277.83 L 699.38,284.00 L 694.25,286.17 L 687.49,279.98 L 691.07,268.09 L 677.83,258.36 L 678.09,242.70 L 671.90,233.86 L 671.25,226.75 L 665.62,222.75 L 666.88,214.25 L 677.83,202.79 L 671.76,169.18 L 675.51,164.84 L 659.97,145.43 L 664.47,134.36 L 677.52,142.01 L 686.37,151.18 L 692.79,174.71 L 690.16,185.78 L 705.00,198.32 L 704.80,208.29 L 701.10,215.54 L 693.64,220.14 L 693.37,227.71 L 699.22,236.81 L 696.20,243.36 L 700.58,267.77 L 709.63,269.55 L 719.00,288.12 L 716.29,289.65 L 702.13,277.83 Z M 695.56,217.00 L 696.29,215.57 L 695.10,215.15 L 695.56,217.00 Z" fill="#A8C8E8" stroke="none"/>
<path d="M 521.82,102.83 L 516.34,106.02 L 517.15,103.50 L 513.02,103.70 L 512.22,100.14 L 517.27,97.20 L 517.89,92.04 L 504.40,82.42 L 498.38,63.83 L 483.91,57.46 L 473.62,48.72 L 470.98,40.57 L 458.61,26.79 L 457.80,21.71 L 463.86,18.49 L 466.09,11.96 L 457.84,0.00 L 484.27,0.00 L 481.84,6.32 L 490.89,19.31 L 490.60,21.71 L 481.55,25.74 L 480.58,32.12 L 490.89,40.37 L 499.69,39.15 L 517.05,54.58 L 516.84,59.18 L 514.04,59.44 L 518.74,66.46 L 517.85,72.04 L 533.73,91.13 L 534.43,95.90 L 541.88,101.09 L 543.97,110.51 L 536.74,112.89 L 521.82,102.83 Z" fill="#A8C8E8" stroke="none"/>
<path d="M 720.63,297.35 L 718.57,301.45 L 714.84,299.17 L 714.96,295.13 L 717.69,293.44 L 720.63,297.35 Z" fill="#A8C8E8" stroke="none"/>
<path d="M 450.48,118.88 L 438.11,128.86 L 438.20,133.35 L 429.67,132.74 L 428.79,130.79 L 427.02,134.05 L 429.96,135.36 L 420.86,135.77 L 421.47,122.53 L 444.55,103.27 L 455.59,107.27 L 450.48,118.88 Z" fill="#A8C8E8" stroke="none"/>
<path d="M 492.40,186.44 L 491.91,184.80 L 488.55,186.53 L 490.68,191.29 L 485.37,195.82 L 474.33,194.70 L 480.06,183.91 L 474.04,190.61 L 471.65,190.23 L 470.67,188.27 L 472.13,190.00 L 481.00,180.35 L 481.53,182.40 L 484.17,179.57 L 480.65,184.15 L 489.72,177.63 L 494.48,181.79 L 492.40,186.44 Z" fill="#A8C8E8" stroke="none"/>
<path d="M 574.85,73.90 L 575.09,73.90 L 575.07,73.91 L 574.85,73.90 Z M 601.46,91.48 L 583.27,85.54 L 576.99,87.69 L 569.72,76.12 L 576.66,73.98 L 601.46,91.48 Z" fill="#A8C8E8" stroke="none"/>
<path d="M 362.58,179.57 L 366.96,177.85 L 363.88,176.22 L 363.75,175.69 L 369.62,177.85 L 373.19,176.06 L 366.53,183.72 L 362.58,179.57 Z" fill="#A8C8E8" stroke="none"/>
<path d="M 482.53,112.01 L 479.35,113.27 L 476.28,111.28 L 487.39,105.63 L 482.53,112.01 Z" fill="#A8C8E8" stroke="none"/>
<path d="M 342.52,109.10 L 333.26,110.20 L 332.68,107.37 L 337.89,104.52 L 344.99,104.13 L 342.52,109.10 Z" fill="#A8C8E8" stroke="none"/>
<path d="M 440.79,366.53 L 436.41,362.19 L 426.29,366.53 L 427.62,369.10 L 423.62,364.46 L 412.38,367.54 L 409.54,371.99 L 412.68,371.71 L 411.82,373.46 L 409.45,374.98 L 405.61,373.12 L 400.95,377.58 L 394.31,378.77 L 389.25,387.54 L 379.63,391.43 L 365.74,403.55 L 370.35,398.84 L 368.42,397.11 L 380.50,389.05 L 378.09,386.34 L 382.49,381.17 L 391.85,373.65 L 395.09,374.30 L 392.75,373.22 L 395.67,369.75 L 401.83,369.00 L 397.86,367.54 L 398.60,366.24 L 403.96,364.95 L 406.53,367.61 L 410.42,367.07 L 410.91,364.33 L 415.98,362.58 L 414.46,360.89 L 421.46,359.57 L 419.95,357.73 L 424.39,359.79 L 435.68,355.90 L 449.07,359.69 L 440.79,366.53 Z" fill="#A8C8E8" stroke="none"/>
<path d="M 607.80,328.40 L 597.56,327.48 L 583.91,332.46 L 550.07,330.35 L 542.46,336.37 L 544.80,332.03 L 539.46,332.10 L 526.96,329.44 L 541.70,331.61 L 549.81,328.36 L 580.85,328.99 L 593.47,325.51 L 607.80,328.40 Z" fill="#A8C8E8" stroke="none"/>
</svg>