<svg xmlns="http://www.w3.org/2000/svg" width="800" height="500" viewBox="0 0 800 500">
<rect width="800" height="500" fill="#A8C8E8"/>
<path d="M 283.96,195.42 L 280.66,202.70 L 280.65,219.00 L 283.01,226.37 L 277.92,239.18 L 282.08,245.88 L 219.80,245.88 L 219.92,346.02 L 225.10,359.68 L 230.71,362.09 L 244.00,377.78 L 263.00,392.70 L 201.53,404.52 L 194.58,401.86 L 183.63,405.05 L 169.15,399.47 L 151.73,400.59 L 124.58,397.71 L 116.96,392.60 L 111.69,385.50 L 111.69,87.60 L 112.80,87.53 L 113.07,85.46 L 138.93,87.67 L 138.93,74.13 L 143.79,71.13 L 144.05,56.02 L 167.86,56.02 L 168.64,53.38 L 177.63,53.30 L 174.83,65.02 L 213.80,64.93 L 216.14,70.83 L 212.84,87.52 L 218.70,102.03 L 214.01,132.10 L 216.69,140.05 L 225.35,148.73 L 230.08,162.56 L 230.27,174.99 L 225.52,177.87 L 227.75,190.44 L 235.86,183.89 L 251.68,185.79 L 265.29,181.31 L 276.93,183.44 L 281.06,178.50 L 283.96,195.42 Z" fill="#C8D8E8" stroke="#8BAABB" stroke-width="0.8"/>
<path d="M 320.74,404.09 L 341.87,433.21 L 342.11,438.97 L 348.49,452.70 L 353.05,453.97 L 353.32,456.32 L 365.70,465.05 L 380.73,470.29 L 382.78,483.04 L 396.03,483.46 L 395.12,500.00 L 189.06,500.00 L 188.84,414.16 L 260.26,404.03 L 270.04,419.18 L 292.86,402.67 L 299.45,405.73 L 311.44,397.36 L 320.88,397.54 L 320.74,404.09 Z" fill="#C8D8E8" stroke="#8BAABB" stroke-width="0.8"/>
<path d="M 455.02,14.96 L 450.82,24.38 L 452.72,34.20 L 457.94,43.92 L 469.77,52.48 L 476.04,60.69 L 490.14,93.75 L 432.73,102.89 L 432.85,111.84 L 416.19,127.86 L 421.23,131.22 L 426.86,144.31 L 422.89,157.85 L 426.89,171.25 L 422.42,177.32 L 416.43,199.43 L 420.98,210.16 L 428.48,213.94 L 437.23,226.18 L 451.55,228.53 L 450.76,221.87 L 460.78,219.06 L 460.25,260.25 L 455.17,259.16 L 456.77,254.73 L 453.85,252.97 L 441.82,259.66 L 435.96,258.36 L 427.15,242.34 L 422.06,242.21 L 418.36,230.68 L 404.06,225.83 L 400.91,222.49 L 394.18,223.48 L 387.48,211.72 L 381.73,208.15 L 380.06,200.57 L 375.24,201.39 L 372.90,211.31 L 365.80,214.60 L 356.47,211.40 L 343.11,211.12 L 332.03,205.61 L 328.15,207.12 L 323.51,202.86 L 322.44,188.71 L 304.02,192.86 L 297.19,197.15 L 291.12,195.18 L 294.15,191.37 L 293.48,185.71 L 285.89,183.91 L 285.58,179.99 L 282.10,178.54 L 276.93,183.44 L 265.29,181.31 L 251.68,185.79 L 235.86,183.89 L 227.75,190.44 L 225.52,177.87 L 230.27,174.99 L 230.08,162.56 L 225.35,148.73 L 216.69,140.05 L 214.01,132.10 L 218.70,102.03 L 212.84,87.52 L 216.14,70.83 L 213.80,64.93 L 174.83,65.02 L 177.63,53.30 L 168.64,53.38 L 167.86,56.02 L 144.05,56.02 L 143.79,71.13 L 138.93,74.13 L 138.93,87.67 L 113.07,85.46 L 112.80,87.53 L 111.69,87.60 L 111.69,0.00 L 449.66,0.00 L 455.02,14.96 Z" fill="#C8D8E8" stroke="#8BAABB" stroke-width="0.8"/>
<path d="M 609.24,200.84 L 607.61,208.84 L 601.29,219.07 L 605.47,235.94 L 607.04,256.14 L 609.98,261.41 L 616.84,262.16 L 623.65,268.12 L 647.16,298.06 L 648.92,305.54 L 645.22,314.56 L 646.96,322.33 L 645.25,342.11 L 636.91,346.19 L 632.60,345.23 L 625.12,357.78 L 630.61,367.69 L 630.45,375.71 L 628.29,376.70 L 623.09,375.89 L 624.70,367.14 L 618.14,364.21 L 603.38,349.44 L 602.70,342.66 L 597.42,337.28 L 607.65,318.53 L 605.70,295.70 L 600.84,289.74 L 591.80,293.15 L 581.62,292.98 L 579.29,296.52 L 568.05,279.40 L 563.74,275.10 L 559.41,279.08 L 555.54,271.80 L 552.12,270.43 L 552.33,266.30 L 549.04,264.70 L 553.66,262.55 L 559.36,252.24 L 559.84,243.21 L 557.60,238.55 L 560.18,233.58 L 570.22,231.04 L 575.66,225.44 L 570.19,224.57 L 567.21,218.60 L 569.10,206.98 L 568.56,201.33 L 565.97,200.39 L 566.52,195.72 L 571.47,187.76 L 566.59,178.85 L 574.86,175.24 L 580.20,169.16 L 575.85,158.21 L 568.79,152.92 L 570.00,145.56 L 564.82,138.31 L 559.02,139.14 L 557.45,131.65 L 564.75,135.42 L 568.67,134.83 L 572.95,138.92 L 582.06,137.74 L 587.52,141.97 L 590.63,134.36 L 600.03,142.01 L 606.77,152.26 L 608.14,167.98 L 611.04,174.71 L 609.14,185.78 L 613.83,193.46 L 617.56,194.42 L 619.96,200.69 L 609.24,200.84 Z M 613.73,215.46 L 611.47,218.13 L 610.45,216.60 L 611.63,214.20 L 613.73,215.46 Z M 609.57,213.79 L 609.07,216.48 L 607.00,214.55 L 609.57,213.79 Z" fill="#C8D8E8" stroke="#8BAABB" stroke-width="0.8"/>
<path d="M 543.73,496.98 L 543.44,486.43 L 549.30,484.18 L 555.88,470.61 L 559.64,468.36 L 560.43,460.52 L 557.67,456.25 L 553.86,457.04 L 554.25,451.55 L 552.13,450.39 L 554.98,438.35 L 549.59,434.28 L 549.91,430.46 L 556.41,428.57 L 555.44,421.01 L 560.74,415.20 L 558.03,412.17 L 557.18,403.20 L 560.17,392.01 L 557.46,388.18 L 560.09,383.35 L 554.14,370.36 L 558.45,362.34 L 551.14,363.20 L 549.30,359.75 L 537.55,355.06 L 525.84,354.34 L 519.69,347.66 L 510.25,345.90 L 505.80,341.51 L 479.37,340.81 L 479.07,324.34 L 473.57,308.54 L 565.67,277.92 L 579.29,296.52 L 581.62,292.98 L 591.80,293.15 L 600.84,289.74 L 606.20,296.70 L 607.77,317.70 L 597.42,337.28 L 602.70,342.66 L 603.38,349.44 L 618.14,364.21 L 624.70,367.14 L 623.09,375.89 L 630.05,376.51 L 629.63,362.94 L 625.12,357.78 L 632.60,345.23 L 636.91,346.19 L 645.25,342.11 L 646.96,322.33 L 645.22,314.56 L 648.92,305.54 L 647.16,298.06 L 623.65,268.12 L 616.84,262.16 L 609.98,261.41 L 607.04,256.14 L 605.47,235.94 L 601.15,220.50 L 609.24,200.84 L 637.43,201.93 L 646.52,195.63 L 657.05,200.86 L 658.03,204.74 L 671.15,205.37 L 677.15,200.69 L 683.69,200.42 L 687.05,203.89 L 688.31,204.07 L 688.31,396.08 L 682.20,404.45 L 679.24,400.29 L 677.54,400.19 L 681.99,405.53 L 666.45,421.67 L 664.43,428.90 L 659.21,426.02 L 660.10,432.25 L 656.39,432.56 L 655.69,429.40 L 647.41,434.16 L 624.96,458.01 L 617.36,463.03 L 609.55,454.56 L 607.29,454.13 L 614.20,461.50 L 612.09,463.68 L 614.12,472.16 L 610.43,472.14 L 613.14,474.52 L 609.97,479.25 L 612.31,482.13 L 610.83,484.47 L 613.04,483.94 L 617.12,489.91 L 620.85,490.46 L 622.21,497.05 L 624.76,497.93 L 623.31,500.00 L 541.48,500.00 L 543.73,496.98 Z M 610.45,216.60 L 611.47,218.13 L 613.73,215.46 L 611.63,214.20 L 610.45,216.60 Z M 607.00,214.55 L 609.07,216.48 L 609.57,213.79 L 607.00,214.55 Z" fill="#C8D8E8" stroke="#8BAABB" stroke-width="0.8"/>
<path d="M 116.96,392.60 L 124.58,397.71 L 151.73,400.59 L 169.15,399.47 L 183.63,405.05 L 194.58,401.86 L 201.53,404.52 L 288.85,387.59 L 314.02,390.81 L 320.88,397.54 L 311.44,397.36 L 299.45,405.73 L 292.86,402.67 L 270.04,419.18 L 260.26,404.03 L 188.84,414.16 L 189.06,500.00 L 111.69,500.00 L 111.69,385.50 L 116.96,392.60 Z" fill="#C8D8E8" stroke="#8BAABB" stroke-width="0.8"/>
<path d="M 544.57,127.42 L 541.65,123.80 L 526.69,121.21 L 526.65,117.12 L 518.51,116.50 L 514.40,109.87 L 508.67,106.19 L 500.18,107.11 L 496.54,105.03 L 480.58,74.83 L 476.04,60.69 L 469.77,52.48 L 457.94,43.92 L 452.34,32.96 L 450.82,24.38 L 455.02,14.96 L 449.66,0.00 L 688.31,0.00 L 688.31,204.07 L 687.05,203.89 L 683.69,200.42 L 677.15,200.69 L 671.15,205.37 L 658.03,204.74 L 657.05,200.86 L 646.52,195.63 L 638.81,201.69 L 619.96,200.69 L 617.56,194.42 L 613.83,193.46 L 609.14,185.78 L 611.04,174.71 L 608.14,167.98 L 606.77,152.26 L 600.03,142.01 L 590.63,134.36 L 587.52,141.97 L 582.06,137.74 L 572.95,138.92 L 568.67,134.83 L 544.57,127.42 Z" fill="#C8D8E8" stroke="#8BAABB" stroke-width="0.8"/>
<path d="M 328.79,399.70 L 333.88,398.09 L 341.37,404.03 L 350.23,400.35 L 365.27,406.25 L 375.17,402.75 L 392.30,383.91 L 399.69,371.14 L 430.26,356.16 L 431.75,342.68 L 434.06,339.62 L 454.24,329.87 L 479.18,329.25 L 479.37,340.81 L 505.80,341.51 L 510.25,345.90 L 519.69,347.66 L 525.84,354.34 L 537.55,355.06 L 549.30,359.75 L 551.14,363.20 L 558.45,362.34 L 554.14,370.36 L 560.09,383.35 L 557.46,388.18 L 560.17,392.01 L 557.18,403.20 L 558.03,412.17 L 560.74,415.20 L 555.44,421.01 L 556.41,428.57 L 549.91,430.46 L 549.59,434.28 L 554.98,438.35 L 552.13,450.39 L 554.25,451.55 L 553.86,457.04 L 557.67,456.25 L 560.43,460.52 L 559.64,468.36 L 555.88,470.61 L 549.30,484.18 L 543.44,486.43 L 543.73,496.98 L 541.48,500.00 L 395.12,500.00 L 396.03,483.46 L 382.78,483.04 L 380.73,470.29 L 365.70,465.05 L 353.32,456.32 L 353.05,453.97 L 348.49,452.70 L 342.11,438.97 L 341.87,433.21 L 320.74,404.09 L 320.88,397.54 L 328.79,399.70 Z" fill="#C8D8E8" stroke="#8BAABB" stroke-width="0.8"/>
<path d="M 559.02,139.14 L 564.82,138.31 L 570.00,145.56 L 568.79,152.92 L 575.85,158.21 L 580.20,169.16 L 574.86,175.24 L 566.59,178.85 L 571.47,187.76 L 566.52,195.72 L 565.97,200.39 L 568.56,201.33 L 569.10,206.98 L 567.21,218.60 L 570.19,224.57 L 575.66,225.44 L 570.22,231.04 L 560.18,233.58 L 557.60,238.55 L 559.84,243.21 L 559.36,252.24 L 553.66,262.55 L 549.04,264.70 L 552.33,266.30 L 552.12,270.43 L 555.54,271.80 L 559.41,279.08 L 563.74,275.10 L 565.67,277.92 L 473.57,308.54 L 479.61,329.07 L 454.24,329.87 L 434.06,339.62 L 431.75,342.68 L 431.75,353.05 L 428.79,357.61 L 399.69,371.14 L 392.30,383.91 L 378.07,400.33 L 365.27,406.25 L 350.23,400.35 L 341.37,404.03 L 333.88,398.09 L 323.22,399.03 L 314.02,390.81 L 303.15,388.00 L 288.85,387.59 L 263.00,392.70 L 223.76,357.98 L 219.85,345.33 L 219.80,245.88 L 282.08,245.88 L 277.92,239.18 L 283.01,226.37 L 280.65,219.00 L 280.66,202.70 L 283.96,195.42 L 281.06,178.50 L 285.58,179.99 L 285.89,183.91 L 293.48,185.71 L 294.15,191.37 L 290.86,194.61 L 295.82,197.21 L 304.02,192.86 L 322.44,188.71 L 323.51,202.86 L 328.15,207.12 L 332.03,205.61 L 343.11,211.12 L 356.47,211.40 L 365.80,214.60 L 372.90,211.31 L 375.24,201.39 L 380.06,200.57 L 381.73,208.15 L 387.48,211.72 L 394.18,223.48 L 400.91,222.49 L 404.06,225.83 L 418.36,230.68 L 422.06,242.21 L 427.15,242.34 L 435.96,258.36 L 441.82,259.66 L 453.85,252.97 L 456.77,254.73 L 455.17,259.16 L 459.79,260.34 L 460.78,219.06 L 450.76,221.87 L 451.55,228.53 L 437.23,226.18 L 428.48,213.94 L 420.98,210.16 L 416.29,198.94 L 422.42,177.32 L 426.89,171.25 L 422.89,157.85 L 426.86,144.31 L 421.23,131.22 L 416.19,127.86 L 432.85,111.84 L 432.73,102.89 L 490.14,93.75 L 498.82,106.60 L 508.67,106.19 L 514.40,109.87 L 518.51,116.50 L 526.65,117.12 L 526.69,121.21 L 541.65,123.80 L 544.57,127.42 L 556.98,132.16 L 559.02,139.14 Z" fill="#4A90D9" stroke="#1a5fa8" stroke-width="1.2"/>
<path d="M 617.77,277.83 L 615.79,284.00 L 612.09,286.17 L 607.22,279.98 L 609.80,268.09 L 600.25,258.36 L 600.44,242.70 L 595.98,233.86 L 595.51,226.75 L 591.45,222.75 L 592.36,214.25 L 600.25,202.79 L 595.88,169.18 L 598.59,164.84 L 587.38,145.43 L 590.63,134.36 L 600.03,142.01 L 606.41,151.18 L 611.04,174.71 L 609.14,185.78 L 619.84,198.32 L 619.69,208.29 L 617.03,215.54 L 611.65,220.14 L 611.46,227.71 L 615.68,236.81 L 613.50,243.36 L 616.66,267.77 L 623.18,269.55 L 629.93,288.12 L 627.98,289.65 L 617.77,277.83 Z M 613.04,217.00 L 613.56,215.57 L 612.70,215.15 L 613.04,217.00 Z" fill="#A8C8E8" stroke="none"/>
<path d="M 487.80,102.83 L 483.86,106.02 L 484.44,103.50 L 481.46,103.70 L 480.89,100.14 L 484.53,97.20 L 484.97,92.04 L 475.25,82.42 L 470.91,63.83 L 460.48,57.46 L 453.07,48.72 L 451.16,40.57 L 442.24,26.79 L 441.66,21.71 L 446.03,18.49 L 447.63,11.96 L 441.69,0.00 L 460.74,0.00 L 458.99,6.32 L 465.51,19.31 L 465.30,21.71 L 458.78,25.74 L 458.08,32.12 L 465.51,40.37 L 471.85,39.15 L 484.36,54.58 L 484.22,59.18 L 482.20,59.44 L 485.59,66.46 L 484.94,72.04 L 496.39,91.13 L 496.89,95.90 L 502.26,101.09 L 503.77,110.51 L 498.56,112.89 L 487.80,102.83 Z" fill="#A8C8E8" stroke="none"/>
<path d="M 631.11,297.35 L 629.62,301.45 L 626.93,299.17 L 627.02,295.13 L 628.98,293.44 L 631.11,297.35 Z" fill="#A8C8E8" stroke="none"/>
<path d="M 436.38,118.88 L 427.47,128.86 L 427.53,133.35 L 421.39,132.74 L 420.75,130.79 L 419.47,134.05 L 421.60,135.36 L 415.04,135.77 L 415.47,122.53 L 432.11,103.27 L 440.07,107.27 L 436.38,118.88 Z" fill="#A8C8E8" stroke="none"/>
<path d="M 466.60,186.44 L 466.25,184.80 L 463.83,186.53 L 465.36,191.29 L 461.53,195.82 L 453.58,194.70 L 457.70,183.91 L 453.37,190.61 L 451.64,190.23 L 450.94,188.27 L 451.99,190.00 L 458.38,180.35 L 458.76,182.40 L 460.67,179.57 L 458.13,184.15 L 464.67,177.63 L 468.10,181.79 L 466.60,186.44 Z" fill="#A8C8E8" stroke="none"/>
<path d="M 526.03,73.90 L 526.20,73.90 L 526.18,73.91 L 526.03,73.90 Z M 545.21,91.48 L 532.10,85.54 L 527.57,87.69 L 522.33,76.12 L 527.34,73.98 L 545.21,91.48 Z" fill="#A8C8E8" stroke="none"/>
<path d="M 373.03,179.57 L 376.19,177.85 L 373.96,176.22 L 373.87,175.69 L 378.10,177.85 L 380.68,176.06 L 375.88,183.72 L 373.03,179.57 Z" fill="#A8C8E8" stroke="none"/>
<path d="M 459.49,112.01 L 457.19,113.27 L 454.98,111.28 L 462.99,105.63 L 459.49,112.01 Z" fill="#A8C8E8" stroke="none"/>
<path d="M 358.57,109.10 L 351.89,110.20 L 351.47,107.37 L 355.23,104.52 L 360.35,104.13 L 358.57,109.10 Z" fill="#A8C8E8" stroke="none"/>
<path d="M 429.40,366.53 L 426.24,362.19 L 418.95,366.53 L 419.91,369.10 L 417.03,364.46 L 408.92,367.54 L 406.87,371.99 L 409.14,371.71 L 408.52,373.46 L 406.81,374.98 L 404.04,373.12 L 400.69,377.58 L 395.90,378.77 L 392.25,387.54 L 385.32,391.43 L 375.31,403.55 L 378.63,398.84 L 377.24,397.11 L 385.95,389.05 L 384.20,386.34 L 387.38,381.17 L 394.13,373.65 L 396.46,374.30 L 394.77,373.22 L 396.88,369.75 L 401.32,369.00 L 398.46,367.54 L 398.99,366.24 L 402.86,364.95 L 404.71,367.61 L 407.51,367.07 L 407.86,364.33 L 411.52,362.58 L 410.42,360.89 L 415.47,359.57 L 414.38,357.73 L 417.58,359.79 L 425.72,355.90 L 435.37,359.69 L 429.40,366.53 Z" fill="#A8C8E8" stroke="none"/>
<path d="M 549.78,328.40 L 542.40,327.48 L 532.56,332.46 L 508.17,330.35 L 502.68,336.37 L 504.37,332.03 L 500.52,332.10 L 491.51,329.44 L 502.14,331.61 L 507.98,328.36 L 530.36,328.99 L 539.45,325.51 L 549.78,328.40 Z" fill="#A8C8E8" stroke="none"/>
</svg>