<svg xmlns="http://www.w3.org/2000/svg" width="800" height="500" viewBox="0 0 800 500">
<rect width="800" height="500" fill="#A8C8E8"/>
<path d="M 781.06,4.47 L 800.00,21.37 L 800.00,117.13 L 799.71,117.09 L 784.13,135.42 L 795.58,149.89 L 795.24,161.61 L 790.73,163.05 L 779.90,161.87 L 783.26,149.09 L 769.59,144.81 L 738.84,123.23 L 737.43,113.33 L 726.43,105.48 L 747.74,78.10 L 743.67,44.74 L 733.55,36.04 L 714.72,41.02 L 693.51,40.77 L 688.66,45.95 L 665.25,20.95 L 656.26,14.67 L 647.24,20.47 L 639.17,9.85 L 632.04,7.84 L 632.48,1.82 L 627.16,0.00 L 773.78,0.00 L 781.06,4.47 Z" fill="#E8E0D0" stroke="#B8B0A0" stroke-width="0.5"/>
<path d="M 83.58,178.95 L 136.00,183.65 L 150.31,193.49 L 130.63,193.23 L 105.66,205.45 L 91.93,200.98 L 44.37,225.09 L 24.02,202.96 L 0.00,205.35 L 0.00,190.31 L 83.58,178.95 Z" fill="#E8E0D0" stroke="#B8B0A0" stroke-width="0.5"/>
<path d="M 29.72,186.43 L 0.00,190.43 L 0.00,170.06 L 29.72,186.43 Z" fill="#E8E0D0" stroke="#B8B0A0" stroke-width="0.5"/>
<path d="M 150.00,203.06 L 194.02,245.59 L 194.53,254.00 L 207.81,274.06 L 217.32,275.91 L 217.87,279.33 L 243.67,292.09 L 274.99,299.75 L 279.27,318.36 L 306.86,318.98 L 304.83,344.96 L 325.62,367.18 L 365.77,371.57 L 392.93,378.54 L 393.04,388.85 L 412.92,396.51 L 392.93,398.23 L 385.97,408.26 L 378.68,410.67 L 345.61,415.79 L 310.42,444.31 L 301.07,444.12 L 297.27,450.78 L 270.21,458.37 L 259.93,467.32 L 251.71,492.60 L 235.30,500.00 L 0.00,500.00 L 0.00,205.35 L 24.02,202.96 L 44.37,225.09 L 91.93,200.98 L 105.66,205.45 L 130.63,193.23 L 150.31,193.49 L 150.00,203.06 Z" fill="#C8D8E8" stroke="#8BAABB" stroke-width="0.8"/>
<path d="M 582.19,499.88 L 573.45,477.12 L 552.72,455.22 L 553.28,441.36 L 536.77,407.08 L 611.76,356.16 L 604.87,347.86 L 614.58,338.72 L 613.97,323.32 L 626.18,320.03 L 639.89,300.21 L 647.72,296.93 L 649.36,285.47 L 643.61,279.24 L 635.67,280.39 L 636.48,272.38 L 632.06,270.67 L 638.00,253.10 L 626.78,247.15 L 627.44,241.57 L 641.00,238.81 L 638.96,227.77 L 650.00,219.28 L 644.36,214.86 L 642.59,201.76 L 648.83,185.41 L 643.18,179.82 L 648.64,172.76 L 636.26,153.79 L 645.23,142.08 L 630.00,143.33 L 626.18,138.29 L 601.70,131.45 L 577.29,130.40 L 564.48,120.64 L 544.82,118.07 L 535.54,111.66 L 480.49,110.63 L 479.87,86.58 L 468.41,63.50 L 660.27,18.78 L 688.66,45.95 L 693.51,40.77 L 714.72,41.02 L 733.55,36.04 L 744.72,46.21 L 747.99,76.89 L 726.43,105.48 L 737.43,113.33 L 738.84,123.23 L 769.59,144.81 L 783.26,149.09 L 779.90,161.87 L 794.40,162.77 L 793.52,142.96 L 784.13,135.42 L 799.71,117.09 L 800.00,117.13 L 800.00,269.75 L 783.80,281.81 L 767.96,289.13 L 751.70,276.77 L 746.98,276.14 L 761.38,286.90 L 756.99,290.08 L 761.21,302.48 L 753.53,302.45 L 759.18,305.92 L 752.57,312.83 L 757.45,317.03 L 754.37,320.46 L 758.96,319.68 L 767.47,328.41 L 775.23,329.20 L 778.08,338.82 L 783.37,340.11 L 776.72,346.80 L 780.30,356.55 L 783.81,349.92 L 783.37,359.10 L 793.06,371.44 L 795.29,405.85 L 800.00,409.65 L 800.00,465.42 L 797.51,465.36 L 797.00,478.68 L 800.00,473.25 L 800.00,491.93 L 791.19,500.00 L 582.19,500.00 L 582.19,499.88 Z M 781.06,4.47 L 773.78,0.00 L 800.00,0.00 L 800.00,21.37 L 781.06,4.47 Z" fill="#C8D8E8" stroke="#8BAABB" stroke-width="0.8"/>
<path d="M 251.71,492.60 L 259.93,467.32 L 270.21,458.37 L 297.27,450.78 L 301.07,444.12 L 310.42,444.31 L 345.61,415.79 L 384.82,408.85 L 392.93,398.23 L 432.91,393.73 L 476.15,403.82 L 528.64,402.51 L 537.40,406.25 L 553.28,441.36 L 552.72,455.22 L 573.45,477.12 L 582.19,499.88 L 582.19,500.00 L 235.30,500.00 L 251.71,492.60 Z" fill="#C8D8E8" stroke="#8BAABB" stroke-width="0.8"/>
<path d="M 632.48,1.82 L 632.04,7.84 L 639.17,9.85 L 647.24,20.47 L 656.26,14.67 L 660.27,18.78 L 468.41,63.50 L 480.99,93.49 L 428.14,94.66 L 386.10,108.90 L 381.27,113.37 L 381.27,128.52 L 375.10,135.17 L 314.48,154.93 L 299.10,173.58 L 269.44,197.56 L 242.77,206.21 L 211.44,197.59 L 192.98,202.96 L 177.38,194.30 L 155.17,195.67 L 136.00,183.65 L 113.36,179.55 L 83.58,178.95 L 29.72,186.43 L 0.00,167.99 L 0.00,0.00 L 627.16,0.00 L 632.48,1.82 Z" fill="#C8D8E8" stroke="#8BAABB" stroke-width="0.8"/>
<path d="M 166.78,196.65 L 177.38,194.30 L 192.98,202.96 L 211.44,197.59 L 242.77,206.21 L 263.40,201.09 L 299.10,173.58 L 314.48,154.93 L 378.17,133.05 L 381.27,113.37 L 386.10,108.90 L 428.14,94.66 L 480.09,93.75 L 480.49,110.63 L 535.54,111.66 L 544.82,118.07 L 564.48,120.64 L 577.29,130.40 L 601.70,131.45 L 626.18,138.29 L 630.00,143.33 L 645.23,142.08 L 636.26,153.79 L 648.64,172.76 L 643.18,179.82 L 648.83,185.41 L 642.59,201.76 L 644.36,214.86 L 650.00,219.28 L 638.96,227.77 L 641.00,238.81 L 627.44,241.57 L 626.78,247.15 L 638.00,253.10 L 632.06,270.67 L 636.48,272.38 L 635.67,280.39 L 643.61,279.24 L 649.36,285.47 L 647.72,296.93 L 639.89,300.21 L 626.18,320.03 L 613.97,323.32 L 614.58,338.72 L 604.87,347.86 L 611.76,356.16 L 537.40,406.25 L 508.44,400.93 L 476.15,403.82 L 439.16,393.94 L 413.36,396.71 L 393.04,388.85 L 392.93,378.54 L 365.77,371.57 L 325.62,367.18 L 304.83,344.96 L 306.86,318.98 L 279.27,318.36 L 274.99,299.75 L 243.67,292.09 L 217.87,279.33 L 217.32,275.91 L 207.81,274.06 L 194.53,254.00 L 194.02,245.59 L 150.00,203.06 L 150.31,193.49 L 166.78,196.65 Z" fill="#4A90D9" stroke="#1a5fa8" stroke-width="1.2"/>
<path d="M 768.82,18.65 L 764.68,27.67 L 756.99,30.84 L 746.84,21.79 L 752.21,4.43 L 746.02,0.00 L 765.77,0.00 L 766.50,3.95 L 780.09,6.55 L 794.15,33.68 L 790.08,35.91 L 768.82,18.65 Z" fill="#A8C8E8" stroke="none"/>
<path d="M 796.60,47.16 L 793.50,53.15 L 787.91,49.82 L 788.08,43.92 L 792.18,41.45 L 796.60,47.16 Z" fill="#A8C8E8" stroke="none"/>
<path d="M 115.36,357.22 L 113.36,356.42 L 120.79,352.71 L 115.36,357.22 Z" fill="#A8C8E8" stroke="none"/>
<path d="M 376.38,148.19 L 369.80,141.85 L 354.61,148.19 L 356.61,151.95 L 350.60,145.17 L 333.73,149.68 L 329.45,156.18 L 334.18,155.76 L 332.87,158.32 L 329.32,160.53 L 323.56,157.83 L 316.56,164.34 L 306.59,166.07 L 298.99,178.89 L 284.55,184.56 L 263.68,202.26 L 270.60,195.39 L 267.71,192.86 L 285.85,181.09 L 282.22,177.13 L 288.84,169.58 L 302.90,158.60 L 307.76,159.54 L 304.24,157.98 L 308.63,152.90 L 317.89,151.80 L 311.92,149.68 L 313.03,147.77 L 321.08,145.89 L 324.94,149.77 L 330.78,148.98 L 331.51,144.98 L 339.13,142.43 L 336.84,139.96 L 347.35,138.03 L 345.08,135.35 L 351.76,138.36 L 368.71,132.67 L 388.82,138.21 L 376.38,148.19 Z" fill="#A8C8E8" stroke="none"/>
<path d="M 627.17,92.51 L 611.79,91.16 L 591.30,98.44 L 540.48,95.35 L 529.05,104.15 L 532.56,97.81 L 524.55,97.91 L 505.78,94.03 L 527.91,97.20 L 540.09,92.45 L 586.71,93.37 L 605.65,88.29 L 627.17,92.51 Z" fill="#A8C8E8" stroke="none"/>
</svg>