<svg xmlns="http://www.w3.org/2000/svg" width="800" height="500" viewBox="0 0 800 500">
<rect width="800" height="500" fill="#A8C8E8"/>
<path d="M 659.35,4.47 L 672.24,21.37 L 672.24,117.13 L 672.04,117.09 L 661.44,135.42 L 669.23,149.89 L 669.00,161.61 L 665.93,163.05 L 658.55,161.87 L 660.84,149.09 L 651.54,144.81 L 630.61,123.23 L 629.65,113.33 L 622.16,105.48 L 636.67,78.10 L 633.90,44.74 L 627.01,36.04 L 614.19,41.02 L 599.76,40.77 L 596.46,45.95 L 580.52,20.95 L 574.41,14.67 L 568.27,20.47 L 562.78,9.85 L 557.92,7.84 L 558.22,1.82 L 554.60,0.00 L 654.39,0.00 L 659.35,4.47 Z" fill="#E8E0D0" stroke="#B8B0A0" stroke-width="0.5"/>
<path d="M 184.65,178.95 L 220.32,183.65 L 230.06,193.49 L 216.67,193.23 L 199.68,205.45 L 190.33,200.98 L 157.97,225.09 L 144.11,202.96 L 127.76,205.35 L 127.76,190.31 L 184.65,178.95 Z" fill="#E8E0D0" stroke="#B8B0A0" stroke-width="0.5"/>
<path d="M 147.99,186.43 L 127.76,190.43 L 127.76,170.06 L 147.99,186.43 Z" fill="#E8E0D0" stroke="#B8B0A0" stroke-width="0.5"/>
<path d="M 229.85,203.06 L 259.81,245.59 L 260.16,254.00 L 269.20,274.06 L 275.67,275.91 L 276.05,279.33 L 293.60,292.09 L 314.92,299.75 L 317.83,318.36 L 336.61,318.98 L 335.23,344.96 L 349.38,367.18 L 376.70,371.57 L 395.19,378.54 L 395.26,388.85 L 408.79,396.51 L 395.19,398.23 L 390.45,408.26 L 385.49,410.67 L 362.99,415.79 L 339.03,444.31 L 332.67,444.12 L 330.09,450.78 L 311.67,458.37 L 304.67,467.32 L 299.07,492.60 L 287.91,500.00 L 127.76,500.00 L 127.76,205.35 L 144.11,202.96 L 157.97,225.09 L 190.33,200.98 L 199.68,205.45 L 216.67,193.23 L 230.06,193.49 L 229.85,203.06 Z" fill="#C8D8E8" stroke="#8BAABB" stroke-width="0.8"/>
<path d="M 523.99,499.88 L 518.05,477.12 L 503.94,455.22 L 504.32,441.36 L 493.08,407.08 L 544.12,356.16 L 539.43,347.86 L 546.04,338.72 L 545.63,323.32 L 553.94,320.03 L 563.27,300.21 L 568.60,296.93 L 569.71,285.47 L 565.80,279.24 L 560.40,280.39 L 560.95,272.38 L 557.94,270.67 L 561.98,253.10 L 554.34,247.15 L 554.79,241.57 L 564.02,238.81 L 562.63,227.77 L 570.15,219.28 L 566.31,214.86 L 565.11,201.76 L 569.35,185.41 L 565.51,179.82 L 569.22,172.76 L 560.80,153.79 L 566.90,142.08 L 556.54,143.33 L 553.94,138.29 L 537.27,131.45 L 520.66,130.40 L 511.94,120.64 L 498.56,118.07 L 492.25,111.66 L 454.78,110.63 L 454.36,86.58 L 446.56,63.50 L 577.14,18.78 L 596.46,45.95 L 599.76,40.77 L 614.19,41.02 L 627.01,36.04 L 634.61,46.21 L 636.84,76.89 L 622.16,105.48 L 629.65,113.33 L 630.61,123.23 L 651.54,144.81 L 660.84,149.09 L 658.55,161.87 L 668.43,162.77 L 667.83,142.96 L 661.44,135.42 L 672.04,117.09 L 672.24,117.13 L 672.24,269.75 L 661.21,281.81 L 650.43,289.13 L 639.36,276.77 L 636.15,276.14 L 645.95,286.90 L 642.97,290.08 L 645.84,302.48 L 640.61,302.45 L 644.46,305.92 L 639.95,312.83 L 643.28,317.03 L 641.18,320.46 L 644.31,319.68 L 650.10,328.41 L 655.38,329.20 L 657.31,338.82 L 660.92,340.11 L 656.39,346.80 L 658.83,356.55 L 661.22,349.92 L 660.92,359.10 L 667.51,371.44 L 669.03,405.85 L 672.24,409.65 L 672.24,465.42 L 670.54,465.36 L 670.19,478.68 L 672.24,473.25 L 672.24,491.93 L 666.24,500.00 L 524.00,500.00 L 523.99,499.88 Z M 659.35,4.47 L 654.39,0.00 L 672.24,0.00 L 672.24,21.37 L 659.35,4.47 Z" fill="#C8D8E8" stroke="#8BAABB" stroke-width="0.8"/>
<path d="M 299.07,492.60 L 304.67,467.32 L 311.67,458.37 L 330.09,450.78 L 332.67,444.12 L 339.03,444.31 L 362.99,415.79 L 389.67,408.85 L 395.19,398.23 L 422.40,393.73 L 451.83,403.82 L 487.55,402.51 L 493.51,406.25 L 504.32,441.36 L 503.94,455.22 L 518.05,477.12 L 523.99,499.88 L 524.00,500.00 L 287.91,500.00 L 299.07,492.60 Z" fill="#C8D8E8" stroke="#8BAABB" stroke-width="0.8"/>
<path d="M 558.22,1.82 L 557.92,7.84 L 562.78,9.85 L 568.27,20.47 L 574.41,14.67 L 577.14,18.78 L 446.56,63.50 L 455.12,93.49 L 419.15,94.66 L 390.54,108.90 L 387.26,113.37 L 387.26,128.52 L 383.06,135.17 L 341.80,154.93 L 331.33,173.58 L 311.15,197.56 L 292.99,206.21 L 271.67,197.59 L 259.11,202.96 L 248.48,194.30 L 233.37,195.67 L 220.32,183.65 L 204.92,179.55 L 184.65,178.95 L 147.99,186.43 L 127.76,167.99 L 127.76,0.00 L 554.60,0.00 L 558.22,1.82 Z" fill="#C8D8E8" stroke="#8BAABB" stroke-width="0.8"/>
<path d="M 241.28,196.65 L 248.48,194.30 L 259.11,202.96 L 271.67,197.59 L 292.99,206.21 L 307.03,201.09 L 331.33,173.58 L 341.80,154.93 L 385.14,133.05 L 387.26,113.37 L 390.54,108.90 L 419.15,94.66 L 454.51,93.75 L 454.78,110.63 L 492.25,111.66 L 498.56,118.07 L 511.94,120.64 L 520.66,130.40 L 537.27,131.45 L 553.94,138.29 L 556.54,143.33 L 566.90,142.08 L 560.80,153.79 L 569.22,172.76 L 565.51,179.82 L 569.35,185.41 L 565.11,201.76 L 566.31,214.86 L 570.15,219.28 L 562.63,227.77 L 564.02,238.81 L 554.79,241.57 L 554.34,247.15 L 561.98,253.10 L 557.94,270.67 L 560.95,272.38 L 560.40,280.39 L 565.80,279.24 L 569.71,285.47 L 568.60,296.93 L 563.27,300.21 L 553.94,320.03 L 545.63,323.32 L 546.04,338.72 L 539.43,347.86 L 544.12,356.16 L 493.51,406.25 L 473.80,400.93 L 451.83,403.82 L 426.65,393.94 L 409.09,396.71 L 395.26,388.85 L 395.19,378.54 L 376.70,371.57 L 349.38,367.18 L 335.23,344.96 L 336.61,318.98 L 317.83,318.36 L 314.92,299.75 L 293.60,292.09 L 276.05,279.33 L 275.67,275.91 L 269.20,274.06 L 260.16,254.00 L 259.81,245.59 L 229.85,203.06 L 230.06,193.49 L 241.28,196.65 Z" fill="#4A90D9" stroke="#1a5fa8" stroke-width="1.2"/>
<path d="M 651.02,18.65 L 648.20,27.67 L 642.96,30.84 L 636.06,21.79 L 639.71,4.43 L 635.50,0.00 L 648.94,0.00 L 649.43,3.95 L 658.68,6.55 L 668.25,33.68 L 665.49,35.91 L 651.02,18.65 Z" fill="#A8C8E8" stroke="none"/>
<path d="M 669.92,47.16 L 667.82,53.15 L 664.01,49.82 L 664.12,43.92 L 666.91,41.45 L 669.92,47.16 Z" fill="#A8C8E8" stroke="none"/>
<path d="M 206.28,357.22 L 204.92,356.42 L 209.97,352.71 L 206.28,357.22 Z" fill="#A8C8E8" stroke="none"/>
<path d="M 383.92,148.19 L 379.45,141.85 L 369.11,148.19 L 370.47,151.95 L 366.38,145.17 L 354.89,149.68 L 351.99,156.18 L 355.20,155.76 L 354.32,158.32 L 351.90,160.53 L 347.97,157.83 L 343.21,164.34 L 336.42,166.07 L 331.25,178.89 L 321.43,184.56 L 307.23,202.26 L 311.93,195.39 L 309.97,192.86 L 322.31,181.09 L 319.84,177.13 L 324.35,169.58 L 333.92,158.60 L 337.22,159.54 L 334.83,157.98 L 337.81,152.90 L 344.12,151.80 L 340.05,149.68 L 340.81,147.77 L 346.29,145.89 L 348.91,149.77 L 352.89,148.98 L 353.39,144.98 L 358.57,142.43 L 357.02,139.96 L 364.17,138.03 L 362.62,135.35 L 367.17,138.36 L 378.70,132.67 L 392.39,138.21 L 383.92,148.19 Z" fill="#A8C8E8" stroke="none"/>
<path d="M 554.61,92.51 L 544.14,91.16 L 530.20,98.44 L 495.61,95.35 L 487.83,104.15 L 490.22,97.81 L 484.77,97.91 L 472.00,94.03 L 487.06,97.20 L 495.34,92.45 L 527.07,93.37 L 539.96,88.29 L 554.61,92.51 Z" fill="#A8C8E8" stroke="none"/>
</svg>